<?xml version="1.0" encoding="UTF-8" standalone="no"?>
<!DOCTYPE svg PUBLIC "-//W3C//DTD SVG 1.1//EN"
 "http://www.w3.org/Graphics/SVG/1.1/DTD/svg11.dtd">
<!-- Generated by graphviz version 2.43.0 (0)
 -->
<!-- Title: src/src_user/TlmCmd/Ccsds/TCPacket.h Pages: 1 -->
<svg width="201pt" height="151pt"
 viewBox="0.00 0.00 200.50 151.00" xmlns="http://www.w3.org/2000/svg" xmlns:xlink="http://www.w3.org/1999/xlink">
<g id="graph0" class="graph" transform="scale(1 1) rotate(0) translate(4 147)">
<title>src/src_user/TlmCmd/Ccsds/TCPacket.h</title>
<polygon fill="white" stroke="transparent" points="-4,4 -4,-147 196.5,-147 196.5,4 -4,4"/>
<!-- Node1 -->
<g id="node1" class="node">
<title>Node1</title>
<g id="a_node1"><a xlink:title=" ">
<polygon fill="#bfbfbf" stroke="black" points="18.5,-112.5 18.5,-142.5 137.5,-142.5 137.5,-112.5 18.5,-112.5"/>
<text text-anchor="start" x="26.5" y="-130.5" font-family="Helvetica,sans-Serif" font-size="10.00">src/src_user/TlmCmd</text>
<text text-anchor="middle" x="78" y="-119.5" font-family="Helvetica,sans-Serif" font-size="10.00">/Ccsds/TCPacket.h</text>
</a>
</g>
</g>
<!-- Node2 -->
<g id="node2" class="node">
<title>Node2</title>
<g id="a_node2"><a xlink:title=" ">
<polygon fill="white" stroke="#bfbfbf" points="0,-56.5 0,-75.5 56,-75.5 56,-56.5 0,-56.5"/>
<text text-anchor="middle" x="28" y="-63.5" font-family="Helvetica,sans-Serif" font-size="10.00">stddef.h</text>
</a>
</g>
</g>
<!-- Node1&#45;&gt;Node2 -->
<g id="edge1" class="edge">
<title>Node1&#45;&gt;Node2</title>
<path fill="none" stroke="midnightblue" d="M66.15,-112.4C58.89,-103.75 49.55,-92.64 41.93,-83.58"/>
<polygon fill="midnightblue" stroke="midnightblue" points="44.39,-81.06 35.28,-75.66 39.03,-85.57 44.39,-81.06"/>
</g>
<!-- Node3 -->
<g id="node3" class="node">
<title>Node3</title>
<g id="a_node3"><a xlink:href="stdint_8h.html" target="_top" xlink:title=" ">
<polygon fill="white" stroke="black" points="74,-56.5 74,-75.5 182,-75.5 182,-56.5 74,-56.5"/>
<text text-anchor="middle" x="128" y="-63.5" font-family="Helvetica,sans-Serif" font-size="10.00">../../Library/stdint.h</text>
</a>
</g>
</g>
<!-- Node1&#45;&gt;Node3 -->
<g id="edge2" class="edge">
<title>Node1&#45;&gt;Node3</title>
<path fill="none" stroke="midnightblue" d="M89.85,-112.4C97.11,-103.75 106.45,-92.64 114.07,-83.58"/>
<polygon fill="midnightblue" stroke="midnightblue" points="116.97,-85.57 120.72,-75.66 111.61,-81.06 116.97,-85.57"/>
</g>
<!-- Node4 -->
<g id="node4" class="node">
<title>Node4</title>
<g id="a_node4"><a xlink:href="sils__define_8h.html" target="_top" xlink:title="Switch the build settings between your real OBC and SILS">
<polygon fill="white" stroke="black" points="63.5,-0.5 63.5,-19.5 192.5,-19.5 192.5,-0.5 63.5,-0.5"/>
<text text-anchor="middle" x="128" y="-7.5" font-family="Helvetica,sans-Serif" font-size="10.00">../Settings/sils_define.h</text>
</a>
</g>
</g>
<!-- Node3&#45;&gt;Node4 -->
<g id="edge3" class="edge">
<title>Node3&#45;&gt;Node4</title>
<path fill="none" stroke="midnightblue" d="M128,-56.08C128,-49.01 128,-38.86 128,-29.99"/>
<polygon fill="midnightblue" stroke="midnightblue" points="131.5,-29.75 128,-19.75 124.5,-29.75 131.5,-29.75"/>
</g>
</g>
</svg>
