<?xml version="1.0" encoding="UTF-8" standalone="no"?>
<!DOCTYPE svg PUBLIC "-//W3C//DTD SVG 1.1//EN"
 "http://www.w3.org/Graphics/SVG/1.1/DTD/svg11.dtd">
<!-- Generated by graphviz version 2.43.0 (0)
 -->
<!-- Title: TCP_CMD_get_param_head Pages: 1 -->
<svg width="548pt" height="1987pt"
 viewBox="0.00 0.00 548.00 1986.50" xmlns="http://www.w3.org/2000/svg" xmlns:xlink="http://www.w3.org/1999/xlink">
<g id="graph0" class="graph" transform="scale(1 1) rotate(0) translate(4 1982.5)">
<title>TCP_CMD_get_param_head</title>
<polygon fill="white" stroke="transparent" points="-4,4 -4,-1982.5 544,-1982.5 544,4 -4,4"/>
<!-- Node1 -->
<g id="node1" class="node">
<title>Node1</title>
<g id="a_node1"><a xlink:title="先頭のパラメタのポインタを取得">
<polygon fill="#bfbfbf" stroke="black" points="390,-1018 390,-1037 540,-1037 540,-1018 390,-1018"/>
<text text-anchor="middle" x="465" y="-1025" font-family="Helvetica,sans-Serif" font-size="10.00">TCP_CMD_get_param_head</text>
</a>
</g>
</g>
<!-- Node2 -->
<g id="node2" class="node">
<title>Node2</title>
<g id="a_node2"><a xlink:href="common__tlm__cmd__packet_8c.html#ad98f8912cc698e43db15c2bd8ea0c170" target="_top" xlink:title="先頭のパラメタのポインタを取得">
<polygon fill="white" stroke="red" points="231,-1018 231,-1037 354,-1037 354,-1018 231,-1018"/>
<text text-anchor="middle" x="292.5" y="-1025" font-family="Helvetica,sans-Serif" font-size="10.00">CCP_get_param_head</text>
</a>
</g>
</g>
<!-- Node1&#45;&gt;Node2 -->
<g id="edge1" class="edge">
<title>Node1&#45;&gt;Node2</title>
<path fill="none" stroke="midnightblue" d="M379.67,-1027.5C371.09,-1027.5 362.5,-1027.5 354.25,-1027.5"/>
<polygon fill="midnightblue" stroke="midnightblue" points="379.71,-1031 389.71,-1027.5 379.71,-1024 379.71,-1031"/>
</g>
<!-- Node3 -->
<g id="node3" class="node">
<title>Node3</title>
<g id="a_node3"><a xlink:href="block__command__table_8h.html#a13676f357de98e4604968c2d6f6f720c" target="_top" xlink:title="BCT 内の Cmd の param_head の getter">
<polygon fill="white" stroke="red" points="36,-1959 36,-1978 159,-1978 159,-1959 36,-1959"/>
<text text-anchor="middle" x="97.5" y="-1966" font-family="Helvetica,sans-Serif" font-size="10.00">BCT_get_param_head</text>
</a>
</g>
</g>
<!-- Node2&#45;&gt;Node3 -->
<g id="edge2" class="edge">
<title>Node2&#45;&gt;Node3</title>
<path fill="none" stroke="midnightblue" d="M290.82,-1047.25C286.24,-1174.9 258.17,-1880.37 195,-1949.5 185.67,-1959.71 172.58,-1965.36 159.05,-1968.32"/>
<polygon fill="midnightblue" stroke="midnightblue" points="294.32,-1047.14 291.18,-1037.02 287.33,-1046.89 294.32,-1047.14"/>
</g>
<!-- Node11 -->
<g id="node4" class="node">
<title>Node11</title>
<g id="a_node4"><a xlink:href="anomaly__handler_8h.html#a6e2ef7b108e08e156a65908bb7cf9c27" target="_top" xlink:title=" ">
<polygon fill="white" stroke="red" points="27,-1921 27,-1940 168,-1940 168,-1921 27,-1921"/>
<text text-anchor="middle" x="97.5" y="-1928" font-family="Helvetica,sans-Serif" font-size="10.00">Cmd_AH_ACTIVATE_RULE</text>
</a>
</g>
</g>
<!-- Node2&#45;&gt;Node11 -->
<g id="edge3" class="edge">
<title>Node2&#45;&gt;Node11</title>
<path fill="none" stroke="midnightblue" d="M290.73,-1047.21C285.67,-1171.66 255.61,-1845.46 195,-1911.5 187.84,-1919.3 178.49,-1924.44 168.43,-1927.74"/>
<polygon fill="midnightblue" stroke="midnightblue" points="294.23,-1047.33 291.13,-1037.19 287.23,-1047.05 294.23,-1047.33"/>
</g>
<!-- Node14 -->
<g id="node5" class="node">
<title>Node14</title>
<g id="a_node5"><a xlink:href="anomaly__handler_8h.html#a5fbcd1d1b036ad7a1c6589ed9f881dc8" target="_top" xlink:title=" ">
<polygon fill="white" stroke="red" points="21.5,-1883 21.5,-1902 173.5,-1902 173.5,-1883 21.5,-1883"/>
<text text-anchor="middle" x="97.5" y="-1890" font-family="Helvetica,sans-Serif" font-size="10.00">Cmd_AH_INACTIVATE_RULE</text>
</a>
</g>
</g>
<!-- Node2&#45;&gt;Node14 -->
<g id="edge4" class="edge">
<title>Node2&#45;&gt;Node14</title>
<path fill="none" stroke="midnightblue" d="M290.63,-1047.1C285.09,-1168.13 253.07,-1810.53 195,-1873.5 189.1,-1879.9 181.71,-1884.51 173.68,-1887.78"/>
<polygon fill="midnightblue" stroke="midnightblue" points="294.13,-1047.2 291.08,-1037.06 287.14,-1046.89 294.13,-1047.2"/>
</g>
<!-- Node15 -->
<g id="node6" class="node">
<title>Node15</title>
<g id="a_node6"><a xlink:href="anomaly__handler_8h.html#ab3a4949a43fca568432aac18330bdcfb" target="_top" xlink:title=" ">
<polygon fill="white" stroke="red" points="26,-1845 26,-1864 169,-1864 169,-1845 26,-1845"/>
<text text-anchor="middle" x="97.5" y="-1852" font-family="Helvetica,sans-Serif" font-size="10.00">Cmd_AH_REGISTER_RULE</text>
</a>
</g>
</g>
<!-- Node2&#45;&gt;Node15 -->
<g id="edge5" class="edge">
<title>Node2&#45;&gt;Node15</title>
<path fill="none" stroke="midnightblue" d="M290.51,-1047.31C284.42,-1165.63 250.48,-1775.66 195,-1835.5 188.03,-1843.01 179.03,-1848.05 169.33,-1851.35"/>
<polygon fill="midnightblue" stroke="midnightblue" points="294.01,-1047.33 291.03,-1037.17 287.02,-1046.98 294.01,-1047.33"/>
</g>
<!-- Node16 -->
<g id="node7" class="node">
<title>Node16</title>
<g id="a_node7"><a xlink:href="anomaly__handler_8h.html#a646864196b67f8531288dd994aee8fa0" target="_top" xlink:title=" ">
<polygon fill="white" stroke="red" points="15.5,-1807 15.5,-1826 179.5,-1826 179.5,-1807 15.5,-1807"/>
<text text-anchor="middle" x="97.5" y="-1814" font-family="Helvetica,sans-Serif" font-size="10.00">Cmd_AH_SET_PAGE_FOR_TLM</text>
</a>
</g>
</g>
<!-- Node2&#45;&gt;Node16 -->
<g id="edge6" class="edge">
<title>Node2&#45;&gt;Node16</title>
<path fill="none" stroke="midnightblue" d="M290.38,-1047.45C283.73,-1162.75 247.91,-1740.76 195,-1797.5 190.57,-1802.25 185.34,-1806 179.63,-1808.95"/>
<polygon fill="midnightblue" stroke="midnightblue" points="293.89,-1047.43 290.96,-1037.25 286.9,-1047.03 293.89,-1047.43"/>
</g>
<!-- Node17 -->
<g id="node8" class="node">
<title>Node17</title>
<g id="a_node8"><a xlink:href="anomaly__handler_8h.html#a90687830b43146a540fda8bfde0eebd2" target="_top" xlink:title=" ">
<polygon fill="white" stroke="red" points="19,-1757.5 19,-1787.5 176,-1787.5 176,-1757.5 19,-1757.5"/>
<text text-anchor="start" x="27" y="-1775.5" font-family="Helvetica,sans-Serif" font-size="10.00">Cmd_AHRES_LOG_SET_PAGE</text>
<text text-anchor="middle" x="97.5" y="-1764.5" font-family="Helvetica,sans-Serif" font-size="10.00">_FOR_TLM</text>
</a>
</g>
</g>
<!-- Node2&#45;&gt;Node17 -->
<g id="edge7" class="edge">
<title>Node2&#45;&gt;Node17</title>
<path fill="none" stroke="midnightblue" d="M291.71,-1047.66C292.41,-1153.05 290.35,-1639.93 195,-1747.5 189.72,-1753.46 183.22,-1758.08 176.11,-1761.66"/>
<polygon fill="midnightblue" stroke="midnightblue" points="295.21,-1047.42 291.63,-1037.45 288.21,-1047.48 295.21,-1047.42"/>
</g>
<!-- Node18 -->
<g id="node9" class="node">
<title>Node18</title>
<g id="a_node9"><a xlink:href="anomaly__logger_8h.html#a5cb837cb56ea39e1485f6ee3367ab870" target="_top" xlink:title=" ">
<polygon fill="white" stroke="red" points="29,-1719 29,-1738 166,-1738 166,-1719 29,-1719"/>
<text text-anchor="middle" x="97.5" y="-1726" font-family="Helvetica,sans-Serif" font-size="10.00">Cmd_AL_ADD_ANOMALY</text>
</a>
</g>
</g>
<!-- Node2&#45;&gt;Node18 -->
<g id="edge8" class="edge">
<title>Node2&#45;&gt;Node18</title>
<path fill="none" stroke="midnightblue" d="M291.66,-1047.65C292.03,-1149.96 288.45,-1610.87 195,-1709.5 187.25,-1717.68 177.08,-1722.91 166.26,-1726.16"/>
<polygon fill="midnightblue" stroke="midnightblue" points="295.16,-1047.44 291.6,-1037.46 288.16,-1047.48 295.16,-1047.44"/>
</g>
<!-- Node19 -->
<g id="node10" class="node">
<title>Node19</title>
<g id="a_node10"><a xlink:href="anomaly__logger_8h.html#a092fa467b9ecff38b362c7b495e237c8" target="_top" xlink:title=" ">
<polygon fill="white" stroke="red" points="20,-1681 20,-1700 175,-1700 175,-1681 20,-1681"/>
<text text-anchor="middle" x="97.5" y="-1688" font-family="Helvetica,sans-Serif" font-size="10.00">Cmd_AL_DISABLE_LOGGING</text>
</a>
</g>
</g>
<!-- Node2&#45;&gt;Node19 -->
<g id="edge9" class="edge">
<title>Node2&#45;&gt;Node19</title>
<path fill="none" stroke="midnightblue" d="M291.47,-1047.46C290.93,-1145.92 283.45,-1578.91 195,-1671.5 189.46,-1677.3 182.7,-1681.62 175.35,-1684.79"/>
<polygon fill="midnightblue" stroke="midnightblue" points="294.97,-1047.39 291.51,-1037.38 287.97,-1047.36 294.97,-1047.39"/>
</g>
<!-- Node20 -->
<g id="node11" class="node">
<title>Node20</title>
<g id="a_node11"><a xlink:href="anomaly__logger_8h.html#a5d3c39afd9438afb0977b1a280f7c771" target="_top" xlink:title=" ">
<polygon fill="white" stroke="red" points="22,-1643 22,-1662 173,-1662 173,-1643 22,-1643"/>
<text text-anchor="middle" x="97.5" y="-1650" font-family="Helvetica,sans-Serif" font-size="10.00">Cmd_AL_ENABLE_LOGGING</text>
</a>
</g>
</g>
<!-- Node2&#45;&gt;Node20 -->
<g id="edge10" class="edge">
<title>Node2&#45;&gt;Node20</title>
<path fill="none" stroke="midnightblue" d="M291.27,-1047.46C289.75,-1142.37 278.41,-1546.99 195,-1633.5 188.96,-1639.77 181.49,-1644.29 173.41,-1647.52"/>
<polygon fill="midnightblue" stroke="midnightblue" points="294.77,-1047.29 291.41,-1037.25 287.77,-1047.2 294.77,-1047.29"/>
</g>
<!-- Node21 -->
<g id="node12" class="node">
<title>Node21</title>
<g id="a_node12"><a xlink:href="anomaly__logger_8h.html#a919b5fcaf3b2fc830763d0e1dacf24c3" target="_top" xlink:title=" ">
<polygon fill="white" stroke="red" points="17,-1605 17,-1624 178,-1624 178,-1605 17,-1605"/>
<text text-anchor="middle" x="97.5" y="-1612" font-family="Helvetica,sans-Serif" font-size="10.00">Cmd_AL_SET_PAGE_FOR_TLM</text>
</a>
</g>
</g>
<!-- Node2&#45;&gt;Node21 -->
<g id="edge11" class="edge">
<title>Node2&#45;&gt;Node21</title>
<path fill="none" stroke="midnightblue" d="M291.05,-1047.07C288.55,-1137.61 273.48,-1514.94 195,-1595.5 190.11,-1600.51 184.32,-1604.41 178.03,-1607.42"/>
<polygon fill="midnightblue" stroke="midnightblue" points="294.55,-1047.15 291.3,-1037.07 287.55,-1046.98 294.55,-1047.15"/>
</g>
<!-- Node22 -->
<g id="node13" class="node">
<title>Node22</title>
<g id="a_node13"><a xlink:href="anomaly__logger_8h.html#a0d3cca6fa8cabeefe8c2fca2348994e8" target="_top" xlink:title=" ">
<polygon fill="white" stroke="red" points="29.5,-1555.5 29.5,-1585.5 165.5,-1585.5 165.5,-1555.5 29.5,-1555.5"/>
<text text-anchor="start" x="37.5" y="-1573.5" font-family="Helvetica,sans-Serif" font-size="10.00">Cmd_AL_SET_THRES_OF</text>
<text text-anchor="middle" x="97.5" y="-1562.5" font-family="Helvetica,sans-Serif" font-size="10.00">_NEARLY_FULL</text>
</a>
</g>
</g>
<!-- Node2&#45;&gt;Node22 -->
<g id="edge12" class="edge">
<title>Node2&#45;&gt;Node22</title>
<path fill="none" stroke="midnightblue" d="M290.57,-1047.4C286.16,-1133.25 264.58,-1470.92 195,-1545.5 187.09,-1553.98 176.71,-1559.73 165.7,-1563.6"/>
<polygon fill="midnightblue" stroke="midnightblue" points="294.07,-1047.57 291.06,-1037.41 287.08,-1047.22 294.07,-1047.57"/>
</g>
<!-- Node23 -->
<g id="node14" class="node">
<title>Node23</title>
<g id="a_node14"><a xlink:href="app__manager_8h.html#acc6840cc30186a9c0f9d91c740bf1886" target="_top" xlink:title=" ">
<polygon fill="white" stroke="red" points="30.5,-1517 30.5,-1536 164.5,-1536 164.5,-1517 30.5,-1517"/>
<text text-anchor="middle" x="97.5" y="-1524" font-family="Helvetica,sans-Serif" font-size="10.00">Cmd_AM_EXECUTE_APP</text>
</a>
</g>
</g>
<!-- Node2&#45;&gt;Node23 -->
<g id="edge13" class="edge">
<title>Node2&#45;&gt;Node23</title>
<path fill="none" stroke="midnightblue" d="M290.36,-1047.57C285.24,-1129.97 261.73,-1441.04 195,-1507.5 186.77,-1515.69 176.11,-1520.88 164.88,-1524.07"/>
<polygon fill="midnightblue" stroke="midnightblue" points="293.88,-1047.32 290.98,-1037.13 286.89,-1046.9 293.88,-1047.32"/>
</g>
<!-- Node24 -->
<g id="node15" class="node">
<title>Node24</title>
<g id="a_node15"><a xlink:href="app__manager_8h.html#a1276b643978eb168980957d7307f1b59" target="_top" xlink:title=" ">
<polygon fill="white" stroke="red" points="27.5,-1479 27.5,-1498 167.5,-1498 167.5,-1479 27.5,-1479"/>
<text text-anchor="middle" x="97.5" y="-1486" font-family="Helvetica,sans-Serif" font-size="10.00">Cmd_AM_INITIALIZE_APP</text>
</a>
</g>
</g>
<!-- Node2&#45;&gt;Node24 -->
<g id="edge14" class="edge">
<title>Node2&#45;&gt;Node24</title>
<path fill="none" stroke="midnightblue" d="M289.99,-1047.47C283.67,-1125.56 256.77,-1408.98 195,-1469.5 187.44,-1476.91 177.88,-1481.84 167.73,-1485.07"/>
<polygon fill="midnightblue" stroke="midnightblue" points="293.51,-1047.37 290.8,-1037.12 286.53,-1046.82 293.51,-1047.37"/>
</g>
<!-- Node25 -->
<g id="node16" class="node">
<title>Node25</title>
<g id="a_node16"><a xlink:href="app__manager_8h.html#a8262872fe48790636c1cc7fa7cb0da97" target="_top" xlink:title=" ">
<polygon fill="white" stroke="red" points="29,-1441 29,-1460 166,-1460 166,-1441 29,-1441"/>
<text text-anchor="middle" x="97.5" y="-1448" font-family="Helvetica,sans-Serif" font-size="10.00">Cmd_AM_REGISTER_APP</text>
</a>
</g>
</g>
<!-- Node2&#45;&gt;Node25 -->
<g id="edge15" class="edge">
<title>Node2&#45;&gt;Node25</title>
<path fill="none" stroke="midnightblue" d="M289.58,-1047.16C282.02,-1120.51 251.89,-1376.85 195,-1431.5 187,-1439.19 176.84,-1444.2 166.13,-1447.39"/>
<polygon fill="midnightblue" stroke="midnightblue" points="293.08,-1047.31 290.6,-1037.01 286.12,-1046.61 293.08,-1047.31"/>
</g>
<!-- Node26 -->
<g id="node17" class="node">
<title>Node26</title>
<g id="a_node17"><a xlink:href="app__manager_8h.html#ab4340921b7290a76c1373e18a23c3570" target="_top" xlink:title=" ">
<polygon fill="white" stroke="red" points="15,-1403 15,-1422 180,-1422 180,-1403 15,-1403"/>
<text text-anchor="middle" x="97.5" y="-1410" font-family="Helvetica,sans-Serif" font-size="10.00">Cmd_AM_SET_PAGE_FOR_TLM</text>
</a>
</g>
</g>
<!-- Node2&#45;&gt;Node26 -->
<g id="edge16" class="edge">
<title>Node2&#45;&gt;Node26</title>
<path fill="none" stroke="midnightblue" d="M289.07,-1047.07C280.15,-1115.82 246.97,-1344.72 195,-1393.5 190.64,-1397.59 185.67,-1400.92 180.34,-1403.61"/>
<polygon fill="midnightblue" stroke="midnightblue" points="292.55,-1047.5 290.34,-1037.14 285.6,-1046.62 292.55,-1047.5"/>
</g>
<!-- Node27 -->
<g id="node18" class="node">
<title>Node27</title>
<g id="a_node18"><a xlink:href="block__command__executor_8h.html#ababb16e70e77e1d35425efb92a57cd89" target="_top" xlink:title=" ">
<polygon fill="white" stroke="red" points="20.5,-1353.5 20.5,-1383.5 174.5,-1383.5 174.5,-1353.5 20.5,-1353.5"/>
<text text-anchor="start" x="28.5" y="-1371.5" font-family="Helvetica,sans-Serif" font-size="10.00">Cmd_BCT_ACTIVATE_BLOCK</text>
<text text-anchor="middle" x="97.5" y="-1360.5" font-family="Helvetica,sans-Serif" font-size="10.00">_BY_ID</text>
</a>
</g>
</g>
<!-- Node2&#45;&gt;Node27 -->
<g id="edge17" class="edge">
<title>Node2&#45;&gt;Node27</title>
<path fill="none" stroke="midnightblue" d="M291.69,-1047.43C291.08,-1102.94 281.43,-1260.7 195,-1343.5 189.13,-1349.13 182.16,-1353.53 174.69,-1356.97"/>
<polygon fill="midnightblue" stroke="midnightblue" points="295.19,-1047.2 291.71,-1037.2 288.19,-1047.19 295.19,-1047.2"/>
</g>
<!-- Node28 -->
<g id="node19" class="node">
<title>Node28</title>
<g id="a_node19"><a xlink:href="block__command__table_8h.html#a725e48926ae4709db0ec5b075e93ac2b" target="_top" xlink:title=" ">
<polygon fill="white" stroke="red" points="28,-1315 28,-1334 167,-1334 167,-1315 28,-1315"/>
<text text-anchor="middle" x="97.5" y="-1322" font-family="Helvetica,sans-Serif" font-size="10.00">Cmd_BCT_CLEAR_BLOCK</text>
</a>
</g>
</g>
<!-- Node2&#45;&gt;Node28 -->
<g id="edge18" class="edge">
<title>Node2&#45;&gt;Node28</title>
<path fill="none" stroke="midnightblue" d="M290.98,-1047.33C288.5,-1098.62 274.4,-1236.48 195,-1305.5 187.14,-1312.33 177.54,-1316.99 167.49,-1320.12"/>
<polygon fill="midnightblue" stroke="midnightblue" points="294.48,-1047.37 291.37,-1037.24 287.49,-1047.1 294.48,-1047.37"/>
</g>
<!-- Node29 -->
<g id="node20" class="node">
<title>Node29</title>
<g id="a_node20"><a xlink:href="block__command__executor_8h.html#a59e38e010d6a07a6211667488a4db0cc" target="_top" xlink:title=" ">
<polygon fill="white" stroke="red" points="20.5,-1277 20.5,-1296 174.5,-1296 174.5,-1277 20.5,-1277"/>
<text text-anchor="middle" x="97.5" y="-1284" font-family="Helvetica,sans-Serif" font-size="10.00">Cmd_BCT_COMBINE_BLOCK</text>
</a>
</g>
</g>
<!-- Node2&#45;&gt;Node29 -->
<g id="edge19" class="edge">
<title>Node2&#45;&gt;Node29</title>
<path fill="none" stroke="midnightblue" d="M289.75,-1047.39C284.54,-1093.79 264.84,-1209.69 195,-1267.5 188.95,-1272.51 181.96,-1276.33 174.56,-1279.23"/>
<polygon fill="midnightblue" stroke="midnightblue" points="293.26,-1047.46 290.78,-1037.16 286.3,-1046.76 293.26,-1047.46"/>
</g>
<!-- Node30 -->
<g id="node21" class="node">
<title>Node30</title>
<g id="a_node21"><a xlink:href="block__command__table_8h.html#a2ffe387530a9bccfc5f49ecfe04e56b0" target="_top" xlink:title=" ">
<polygon fill="white" stroke="red" points="37.5,-1239 37.5,-1258 157.5,-1258 157.5,-1239 37.5,-1239"/>
<text text-anchor="middle" x="97.5" y="-1246" font-family="Helvetica,sans-Serif" font-size="10.00">Cmd_BCT_COPY_BCT</text>
</a>
</g>
</g>
<!-- Node2&#45;&gt;Node30 -->
<g id="edge20" class="edge">
<title>Node2&#45;&gt;Node30</title>
<path fill="none" stroke="midnightblue" d="M288.12,-1047.3C280.02,-1088.3 255.48,-1182.58 195,-1229.5 184.27,-1237.82 170.9,-1242.81 157.57,-1245.72"/>
<polygon fill="midnightblue" stroke="midnightblue" points="291.56,-1047.91 289.95,-1037.44 284.68,-1046.64 291.56,-1047.91"/>
</g>
<!-- Node31 -->
<g id="node22" class="node">
<title>Node31</title>
<g id="a_node22"><a xlink:href="block__command__executor_8h.html#a69033c4385076d739a68a12468813fd1" target="_top" xlink:title=" ">
<polygon fill="white" stroke="red" points="40,-1201 40,-1220 155,-1220 155,-1201 40,-1201"/>
<text text-anchor="middle" x="97.5" y="-1208" font-family="Helvetica,sans-Serif" font-size="10.00">Cmd_BCT_FILL_NOP</text>
</a>
</g>
</g>
<!-- Node2&#45;&gt;Node31 -->
<g id="edge21" class="edge">
<title>Node2&#45;&gt;Node31</title>
<path fill="none" stroke="midnightblue" d="M285.85,-1047.12C274.68,-1082.14 246.31,-1155.12 195,-1191.5 183.37,-1199.75 169.06,-1204.63 155.05,-1207.48"/>
<polygon fill="midnightblue" stroke="midnightblue" points="289.31,-1047.77 288.87,-1037.18 282.61,-1045.73 289.31,-1047.77"/>
</g>
<!-- Node32 -->
<g id="node23" class="node">
<title>Node32</title>
<g id="a_node23"><a xlink:href="block__command__executor_8h.html#a90ee823823d5a385f3fd61dbc38212ef" target="_top" xlink:title=" ">
<polygon fill="white" stroke="red" points="34.5,-1151.5 34.5,-1181.5 160.5,-1181.5 160.5,-1151.5 34.5,-1151.5"/>
<text text-anchor="start" x="42.5" y="-1169.5" font-family="Helvetica,sans-Serif" font-size="10.00">Cmd_BCT_INACTIVATE</text>
<text text-anchor="middle" x="97.5" y="-1158.5" font-family="Helvetica,sans-Serif" font-size="10.00">_BLOCK_BY_ID</text>
</a>
</g>
</g>
<!-- Node2&#45;&gt;Node32 -->
<g id="edge22" class="edge">
<title>Node2&#45;&gt;Node32</title>
<path fill="none" stroke="midnightblue" d="M281.03,-1045.86C265.55,-1071.31 234.13,-1116.91 195,-1141.5 184.6,-1148.04 172.54,-1152.87 160.55,-1156.44"/>
<polygon fill="midnightblue" stroke="midnightblue" points="284.08,-1047.57 286.16,-1037.19 278.06,-1044.01 284.08,-1047.57"/>
</g>
<!-- Node33 -->
<g id="node24" class="node">
<title>Node33</title>
<g id="a_node24"><a xlink:href="block__command__table_8h.html#a67bb3a363273909b0e009a55d4d5ce6a" target="_top" xlink:title=" ">
<polygon fill="white" stroke="red" points="19.5,-1113 19.5,-1132 175.5,-1132 175.5,-1113 19.5,-1113"/>
<text text-anchor="middle" x="97.5" y="-1120" font-family="Helvetica,sans-Serif" font-size="10.00">Cmd_BCT_OVERWRITE_CMD</text>
</a>
</g>
</g>
<!-- Node2&#45;&gt;Node33 -->
<g id="edge23" class="edge">
<title>Node2&#45;&gt;Node33</title>
<path fill="none" stroke="midnightblue" d="M275.06,-1044.55C257.08,-1062.13 226.59,-1088.98 195,-1103.5 186.54,-1107.39 177.32,-1110.48 168.03,-1112.94"/>
<polygon fill="midnightblue" stroke="midnightblue" points="277.81,-1046.74 282.4,-1037.19 272.86,-1041.8 277.81,-1046.74"/>
</g>
<!-- Node34 -->
<g id="node25" class="node">
<title>Node34</title>
<g id="a_node25"><a xlink:href="block__command__executor_8h.html#a19802be32ef92e032d4235e3d3ffb751" target="_top" xlink:title=" ">
<polygon fill="white" stroke="red" points="3.5,-1075 3.5,-1094 191.5,-1094 191.5,-1075 3.5,-1075"/>
<text text-anchor="middle" x="97.5" y="-1082" font-family="Helvetica,sans-Serif" font-size="10.00">Cmd_BCT_RESET_COMBINER_INFO</text>
</a>
</g>
</g>
<!-- Node2&#45;&gt;Node34 -->
<g id="edge24" class="edge">
<title>Node2&#45;&gt;Node34</title>
<path fill="none" stroke="midnightblue" d="M261.2,-1041.07C242.43,-1049.06 217.66,-1058.87 195,-1065.5 182.46,-1069.17 168.8,-1072.34 155.81,-1074.99"/>
<polygon fill="midnightblue" stroke="midnightblue" points="262.63,-1044.26 270.42,-1037.08 259.86,-1037.83 262.63,-1044.26"/>
</g>
<!-- Node35 -->
<g id="node26" class="node">
<title>Node35</title>
<g id="a_node26"><a xlink:href="block__command__executor_8h.html#aba061c8a3e5472b9dfed060738059153" target="_top" xlink:title=" ">
<polygon fill="white" stroke="red" points="7.5,-1037 7.5,-1056 187.5,-1056 187.5,-1037 7.5,-1037"/>
<text text-anchor="middle" x="97.5" y="-1044" font-family="Helvetica,sans-Serif" font-size="10.00">Cmd_BCT_RESET_ROTATOR_INFO</text>
</a>
</g>
</g>
<!-- Node2&#45;&gt;Node35 -->
<g id="edge25" class="edge">
<title>Node2&#45;&gt;Node35</title>
<path fill="none" stroke="midnightblue" d="M220.82,-1034.46C210.08,-1035.52 198.88,-1036.62 187.8,-1037.71"/>
<polygon fill="midnightblue" stroke="midnightblue" points="221.35,-1037.92 230.96,-1033.46 220.67,-1030.96 221.35,-1037.92"/>
</g>
<!-- Node36 -->
<g id="node27" class="node">
<title>Node36</title>
<g id="a_node27"><a xlink:href="block__command__executor_8h.html#ae7c356ad53f55bbd4671324a7c52f490" target="_top" xlink:title=" ">
<polygon fill="white" stroke="red" points="25,-999 25,-1018 170,-1018 170,-999 25,-999"/>
<text text-anchor="middle" x="97.5" y="-1006" font-family="Helvetica,sans-Serif" font-size="10.00">Cmd_BCT_ROTATE_BLOCK</text>
</a>
</g>
</g>
<!-- Node2&#45;&gt;Node36 -->
<g id="edge26" class="edge">
<title>Node2&#45;&gt;Node36</title>
<path fill="none" stroke="midnightblue" d="M220.87,-1020.55C204.4,-1018.92 186.84,-1017.2 170.32,-1015.57"/>
<polygon fill="midnightblue" stroke="midnightblue" points="220.67,-1024.04 230.96,-1021.54 221.35,-1017.08 220.67,-1024.04"/>
</g>
<!-- Node37 -->
<g id="node28" class="node">
<title>Node37</title>
<g id="a_node28"><a xlink:href="block__command__table_8h.html#a29ad6e4bb1f8c1d31ea880e112234b26" target="_top" xlink:title=" ">
<polygon fill="white" stroke="red" points="9,-961 9,-980 186,-980 186,-961 9,-961"/>
<text text-anchor="middle" x="97.5" y="-968" font-family="Helvetica,sans-Serif" font-size="10.00">Cmd_BCT_SET_BLOCK_POSITION</text>
</a>
</g>
</g>
<!-- Node2&#45;&gt;Node37 -->
<g id="edge27" class="edge">
<title>Node2&#45;&gt;Node37</title>
<path fill="none" stroke="midnightblue" d="M261.2,-1013.93C242.43,-1005.94 217.66,-996.13 195,-989.5 182.46,-985.83 168.8,-982.66 155.81,-980.01"/>
<polygon fill="midnightblue" stroke="midnightblue" points="259.86,-1017.17 270.42,-1017.92 262.63,-1010.74 259.86,-1017.17"/>
</g>
<!-- Node38 -->
<g id="node29" class="node">
<title>Node38</title>
<g id="a_node29"><a xlink:href="block__command__executor_8h.html#a107c90f91a09c36d013880062bd0631f" target="_top" xlink:title=" ">
<polygon fill="white" stroke="red" points="32.5,-911.5 32.5,-941.5 162.5,-941.5 162.5,-911.5 32.5,-911.5"/>
<text text-anchor="start" x="40.5" y="-929.5" font-family="Helvetica,sans-Serif" font-size="10.00">Cmd_BCT_SET_ROTATE</text>
<text text-anchor="middle" x="97.5" y="-918.5" font-family="Helvetica,sans-Serif" font-size="10.00">_INTERVAL</text>
</a>
</g>
</g>
<!-- Node2&#45;&gt;Node38 -->
<g id="edge28" class="edge">
<title>Node2&#45;&gt;Node38</title>
<path fill="none" stroke="midnightblue" d="M274.6,-1010.54C256.44,-993.26 225.98,-966.86 195,-951.5 184.92,-946.5 173.74,-942.43 162.66,-939.14"/>
<polygon fill="midnightblue" stroke="midnightblue" points="272.42,-1013.31 282.03,-1017.77 277.3,-1008.29 272.42,-1013.31"/>
</g>
<!-- Node39 -->
<g id="node30" class="node">
<title>Node39</title>
<g id="a_node30"><a xlink:href="block__command__executor_8h.html#ae80b7a834ea8a1a068d43f6eae0aaf0e" target="_top" xlink:title=" ">
<polygon fill="white" stroke="red" points="12,-862.5 12,-892.5 183,-892.5 183,-862.5 12,-862.5"/>
<text text-anchor="start" x="20" y="-880.5" font-family="Helvetica,sans-Serif" font-size="10.00">Cmd_BCT_TIMELIMIT_COMBINE</text>
<text text-anchor="middle" x="97.5" y="-869.5" font-family="Helvetica,sans-Serif" font-size="10.00">_BLOCK</text>
</a>
</g>
</g>
<!-- Node2&#45;&gt;Node39 -->
<g id="edge29" class="edge">
<title>Node2&#45;&gt;Node39</title>
<path fill="none" stroke="midnightblue" d="M282.34,-1008.95C267.74,-981.39 236.57,-929.94 195,-902.5 189.08,-898.59 182.58,-895.29 175.84,-892.51"/>
<polygon fill="midnightblue" stroke="midnightblue" points="279.27,-1010.64 286.95,-1017.94 285.49,-1007.44 279.27,-1010.64"/>
</g>
<!-- Node40 -->
<g id="node31" class="node">
<title>Node40</title>
<g id="a_node31"><a xlink:href="command__analyze_8h.html#aab9b069d2040830c8016249999266fbd" target="_top" xlink:title=" ">
<polygon fill="white" stroke="red" points="27.5,-824 27.5,-843 167.5,-843 167.5,-824 27.5,-824"/>
<text text-anchor="middle" x="97.5" y="-831" font-family="Helvetica,sans-Serif" font-size="10.00">Cmd_CA_REGISTER_CMD</text>
</a>
</g>
</g>
<!-- Node2&#45;&gt;Node40 -->
<g id="edge30" class="edge">
<title>Node2&#45;&gt;Node40</title>
<path fill="none" stroke="midnightblue" d="M286.46,-1007.75C276.03,-971.13 248.45,-892.83 195,-853.5 186.87,-847.52 177.36,-843.23 167.54,-840.17"/>
<polygon fill="midnightblue" stroke="midnightblue" points="283.16,-1008.96 289.16,-1017.69 289.91,-1007.13 283.16,-1008.96"/>
</g>
<!-- Node41 -->
<g id="node32" class="node">
<title>Node41</title>
<g id="a_node32"><a xlink:href="command__analyze_8h.html#a5ee20a734a5524845009a71a43fd6836" target="_top" xlink:title=" ">
<polygon fill="white" stroke="red" points="16,-786 16,-805 179,-805 179,-786 16,-786"/>
<text text-anchor="middle" x="97.5" y="-793" font-family="Helvetica,sans-Serif" font-size="10.00">Cmd_CA_SET_PAGE_FOR_TLM</text>
</a>
</g>
</g>
<!-- Node2&#45;&gt;Node41 -->
<g id="edge31" class="edge">
<title>Node2&#45;&gt;Node41</title>
<path fill="none" stroke="midnightblue" d="M288.67,-1007.84C281.46,-965.32 258.26,-864.61 195,-814.5 190.18,-810.68 184.81,-807.56 179.14,-805.02"/>
<polygon fill="midnightblue" stroke="midnightblue" points="285.26,-1008.65 290.27,-1017.98 292.17,-1007.56 285.26,-1008.65"/>
</g>
<!-- Node42 -->
<g id="node33" class="node">
<title>Node42</title>
<g id="a_node33"><a xlink:href="divided__cmd__utility_8h.html#a51777d5a92740e7505b40bf01df3e30a" target="_top" xlink:title="実行中の分割コマンドを停止する">
<polygon fill="white" stroke="red" points="31,-748 31,-767 164,-767 164,-748 31,-748"/>
<text text-anchor="middle" x="97.5" y="-755" font-family="Helvetica,sans-Serif" font-size="10.00">Cmd_DCU_ABORT_CMD</text>
</a>
</g>
</g>
<!-- Node2&#45;&gt;Node42 -->
<g id="edge32" class="edge">
<title>Node2&#45;&gt;Node42</title>
<path fill="none" stroke="midnightblue" d="M290.15,-1007.69C285.76,-959.87 267.63,-837.56 195,-776.5 186.24,-769.14 175.46,-764.33 164.31,-761.24"/>
<polygon fill="midnightblue" stroke="midnightblue" points="286.68,-1008.24 290.98,-1017.93 293.66,-1007.68 286.68,-1008.24"/>
</g>
<!-- Node43 -->
<g id="node34" class="node">
<title>Node43</title>
<g id="a_node34"><a xlink:href="divided__cmd__utility_8h.html#a1304cf11156a2ac71482320bd1ccb472" target="_top" xlink:title="エラー，またはコマンドによって中断ステータスとなっているコマンドを，実行可能状態に戻す">
<polygon fill="white" stroke="red" points="11,-710 11,-729 184,-729 184,-710 11,-710"/>
<text text-anchor="middle" x="97.5" y="-717" font-family="Helvetica,sans-Serif" font-size="10.00">Cmd_DCU_DOWN_ABORT_FLAG</text>
</a>
</g>
</g>
<!-- Node2&#45;&gt;Node43 -->
<g id="edge33" class="edge">
<title>Node2&#45;&gt;Node43</title>
<path fill="none" stroke="midnightblue" d="M291.28,-1007.63C289.55,-954.94 277.16,-810.77 195,-738.5 190.77,-734.78 186.03,-731.7 180.97,-729.16"/>
<polygon fill="midnightblue" stroke="midnightblue" points="287.79,-1008.02 291.51,-1017.94 294.79,-1007.86 287.79,-1008.02"/>
</g>
<!-- Node44 -->
<g id="node35" class="node">
<title>Node44</title>
<g id="a_node35"><a xlink:href="di__gs_8h.html#ad7a1ef5896cea313d29b541adec09615" target="_top" xlink:title=" ">
<polygon fill="white" stroke="red" points="15,-672 15,-691 180,-691 180,-672 15,-672"/>
<text text-anchor="middle" x="97.5" y="-679" font-family="Helvetica,sans-Serif" font-size="10.00">Cmd_DI_GS_CCSDS_SET_RATE</text>
</a>
</g>
</g>
<!-- Node2&#45;&gt;Node44 -->
<g id="edge34" class="edge">
<title>Node2&#45;&gt;Node44</title>
<path fill="none" stroke="midnightblue" d="M292.17,-1007.76C292.95,-950.68 286.88,-784.25 195,-700.5 190.58,-696.47 185.57,-693.19 180.21,-690.53"/>
<polygon fill="midnightblue" stroke="midnightblue" points="288.67,-1007.85 291.94,-1017.93 295.67,-1008.01 288.67,-1007.85"/>
</g>
<!-- Node45 -->
<g id="node36" class="node">
<title>Node45</title>
<g id="a_node36"><a xlink:href="di__gs_8h.html#a214a35c67b1c7a5bd93b9142ce95f7f3" target="_top" xlink:title=" ">
<polygon fill="white" stroke="red" points="22.5,-634 22.5,-653 172.5,-653 172.5,-634 22.5,-634"/>
<text text-anchor="middle" x="97.5" y="-641" font-family="Helvetica,sans-Serif" font-size="10.00">Cmd_DI_GS_SET_FARM_PW</text>
</a>
</g>
</g>
<!-- Node2&#45;&gt;Node45 -->
<g id="edge35" class="edge">
<title>Node2&#45;&gt;Node45</title>
<path fill="none" stroke="midnightblue" d="M289.01,-1007.56C279.98,-938.48 246.75,-711.03 195,-662.5 188.65,-656.54 181,-652.2 172.82,-649.08"/>
<polygon fill="midnightblue" stroke="midnightblue" points="285.59,-1008.41 290.33,-1017.89 292.53,-1007.53 285.59,-1008.41"/>
</g>
<!-- Node46 -->
<g id="node37" class="node">
<title>Node46</title>
<g id="a_node37"><a xlink:href="di__gs_8h.html#a761ea19285df88117d0bd90f4dc0f238" target="_top" xlink:title=" ">
<polygon fill="white" stroke="red" points="34.5,-596 34.5,-615 160.5,-615 160.5,-596 34.5,-596"/>
<text text-anchor="middle" x="97.5" y="-603" font-family="Helvetica,sans-Serif" font-size="10.00">Cmd_DI_GS_SET_INFO</text>
</a>
</g>
</g>
<!-- Node2&#45;&gt;Node46 -->
<g id="edge36" class="edge">
<title>Node2&#45;&gt;Node46</title>
<path fill="none" stroke="midnightblue" d="M289.53,-1007.41C281.86,-933.61 251.65,-678.89 195,-624.5 185.64,-615.51 173.33,-610.19 160.65,-607.14"/>
<polygon fill="midnightblue" stroke="midnightblue" points="286.07,-1008.05 290.56,-1017.65 293.04,-1007.34 286.07,-1008.05"/>
</g>
<!-- Node47 -->
<g id="node38" class="node">
<title>Node47</title>
<g id="a_node38"><a xlink:href="di__gs_8h.html#acac5b65fc5e454ac99c73c128d43980e" target="_top" xlink:title=" ">
<polygon fill="white" stroke="red" points="20,-546.5 20,-576.5 175,-576.5 175,-546.5 20,-546.5"/>
<text text-anchor="start" x="28" y="-564.5" font-family="Helvetica,sans-Serif" font-size="10.00">Cmd_DI_GS_SET_MS_FLUSH</text>
<text text-anchor="middle" x="97.5" y="-553.5" font-family="Helvetica,sans-Serif" font-size="10.00">_INTERVAL</text>
</a>
</g>
</g>
<!-- Node2&#45;&gt;Node47 -->
<g id="edge37" class="edge">
<title>Node2&#45;&gt;Node47</title>
<path fill="none" stroke="midnightblue" d="M289.88,-1007.68C283.13,-930.16 254.84,-648.67 195,-586.5 189.36,-580.64 182.54,-576.09 175.16,-572.56"/>
<polygon fill="midnightblue" stroke="midnightblue" points="286.42,-1008.28 290.75,-1017.95 293.39,-1007.69 286.42,-1008.28"/>
</g>
<!-- Node48 -->
<g id="node39" class="node">
<title>Node48</title>
<g id="a_node39"><a xlink:href="di__gs_8h.html#a9140226718b236b7ac811dc152f2ad7e" target="_top" xlink:title=" ">
<polygon fill="white" stroke="red" points="21.5,-497.5 21.5,-527.5 173.5,-527.5 173.5,-497.5 21.5,-497.5"/>
<text text-anchor="start" x="29.5" y="-515.5" font-family="Helvetica,sans-Serif" font-size="10.00">Cmd_DI_GS_SET_RP_FLUSH</text>
<text text-anchor="middle" x="97.5" y="-504.5" font-family="Helvetica,sans-Serif" font-size="10.00">_INTERVAL</text>
</a>
</g>
</g>
<!-- Node2&#45;&gt;Node48 -->
<g id="edge38" class="edge">
<title>Node2&#45;&gt;Node48</title>
<path fill="none" stroke="midnightblue" d="M290.34,-1007.63C285.12,-924.75 261.03,-607.55 195,-537.5 189.06,-531.2 181.77,-526.41 173.86,-522.78"/>
<polygon fill="midnightblue" stroke="midnightblue" points="286.86,-1007.96 290.96,-1017.73 293.84,-1007.53 286.86,-1007.96"/>
</g>
<!-- Node49 -->
<g id="node40" class="node">
<title>Node49</title>
<g id="a_node40"><a xlink:href="event__handler_8h.html#a481b6c3c268ecd6c5281e5a8f2328010" target="_top" xlink:title=" ">
<polygon fill="white" stroke="red" points="27.5,-459 27.5,-478 167.5,-478 167.5,-459 27.5,-459"/>
<text text-anchor="middle" x="97.5" y="-466" font-family="Helvetica,sans-Serif" font-size="10.00">Cmd_EH_ACTIVATE_RULE</text>
</a>
</g>
</g>
<!-- Node2&#45;&gt;Node49 -->
<g id="edge39" class="edge">
<title>Node2&#45;&gt;Node49</title>
<path fill="none" stroke="midnightblue" d="M290.82,-1007.56C287.4,-919.28 269.15,-564.7 195,-488.5 187.48,-480.78 177.82,-475.64 167.53,-472.29"/>
<polygon fill="midnightblue" stroke="midnightblue" points="287.32,-1007.72 291.19,-1017.58 294.32,-1007.46 287.32,-1007.72"/>
</g>
<!-- Node50 -->
<g id="node41" class="node">
<title>Node50</title>
<g id="a_node41"><a xlink:href="event__handler_8h.html#a3dcc95a83b2c1e6a0ebaa0bfddc059e1" target="_top" xlink:title=" ">
<polygon fill="white" stroke="red" points="32,-421 32,-440 163,-440 163,-421 32,-421"/>
<text text-anchor="middle" x="97.5" y="-428" font-family="Helvetica,sans-Serif" font-size="10.00">Cmd_EH_DELETE_RULE</text>
</a>
</g>
</g>
<!-- Node2&#45;&gt;Node50 -->
<g id="edge40" class="edge">
<title>Node2&#45;&gt;Node50</title>
<path fill="none" stroke="midnightblue" d="M291.1,-1007.59C288.84,-915.47 274.71,-531.55 195,-449.5 186.43,-440.68 175.05,-435.32 163.12,-432.17"/>
<polygon fill="midnightblue" stroke="midnightblue" points="287.61,-1007.85 291.33,-1017.76 294.61,-1007.69 287.61,-1007.85"/>
</g>
<!-- Node51 -->
<g id="node42" class="node">
<title>Node51</title>
<g id="a_node42"><a xlink:href="event__handler_8h.html#a862cc2a449ad9fa844535388168532d0" target="_top" xlink:title=" ">
<polygon fill="white" stroke="red" points="22,-383 22,-402 173,-402 173,-383 22,-383"/>
<text text-anchor="middle" x="97.5" y="-390" font-family="Helvetica,sans-Serif" font-size="10.00">Cmd_EH_INACTIVATE_RULE</text>
</a>
</g>
</g>
<!-- Node2&#45;&gt;Node51 -->
<g id="edge41" class="edge">
<title>Node2&#45;&gt;Node51</title>
<path fill="none" stroke="midnightblue" d="M291.33,-1007.51C290.06,-911.59 279.72,-499.59 195,-411.5 188.96,-405.22 181.5,-400.69 173.42,-397.46"/>
<polygon fill="midnightblue" stroke="midnightblue" points="287.83,-1007.64 291.44,-1017.6 294.83,-1007.56 287.83,-1007.64"/>
</g>
<!-- Node52 -->
<g id="node43" class="node">
<title>Node52</title>
<g id="a_node43"><a xlink:href="event__handler_8h.html#a4a1b8f5175a837ab1734fbcee12f54e7" target="_top" xlink:title=" ">
<polygon fill="white" stroke="red" points="23.5,-333.5 23.5,-363.5 171.5,-363.5 171.5,-333.5 23.5,-333.5"/>
<text text-anchor="start" x="31.5" y="-351.5" font-family="Helvetica,sans-Serif" font-size="10.00">Cmd_EH_SET_MAX_CHECK</text>
<text text-anchor="middle" x="97.5" y="-340.5" font-family="Helvetica,sans-Serif" font-size="10.00">_EVENT_NUM</text>
</a>
</g>
</g>
<!-- Node2&#45;&gt;Node52 -->
<g id="edge42" class="edge">
<title>Node2&#45;&gt;Node52</title>
<path fill="none" stroke="midnightblue" d="M291.42,-1007.97C290.6,-909.72 282.06,-470.41 195,-373.5 188.64,-366.42 180.56,-361.23 171.79,-357.44"/>
<polygon fill="midnightblue" stroke="midnightblue" points="287.92,-1008.02 291.48,-1017.99 294.92,-1007.97 287.92,-1008.02"/>
</g>
<!-- Node53 -->
<g id="node44" class="node">
<title>Node53</title>
<g id="a_node44"><a xlink:href="event__handler_8h.html#a0d48856239b08a03aa9227def96eeaca" target="_top" xlink:title=" ">
<polygon fill="white" stroke="red" points="0,-295 0,-314 195,-314 195,-295 0,-295"/>
<text text-anchor="middle" x="97.5" y="-302" font-family="Helvetica,sans-Serif" font-size="10.00">Cmd_EH_SET_MAX_RESPONSE_NUM</text>
</a>
</g>
</g>
<!-- Node2&#45;&gt;Node53 -->
<g id="edge43" class="edge">
<title>Node2&#45;&gt;Node53</title>
<path fill="none" stroke="midnightblue" d="M291.73,-1007.73C292.52,-904.39 290.86,-427.1 195,-324.5 191.15,-320.37 186.68,-316.98 181.83,-314.2"/>
<polygon fill="midnightblue" stroke="midnightblue" points="288.23,-1007.71 291.64,-1017.74 295.23,-1007.77 288.23,-1007.71"/>
</g>
<!-- Node54 -->
<g id="node45" class="node">
<title>Node54</title>
<g id="a_node45"><a xlink:href="event__handler_8h.html#a026cf5d2e22f624b8c20cb0e6b81f340" target="_top" xlink:title=" ">
<polygon fill="white" stroke="red" points="32,-245.5 32,-275.5 163,-275.5 163,-245.5 32,-245.5"/>
<text text-anchor="start" x="40" y="-263.5" font-family="Helvetica,sans-Serif" font-size="10.00">Cmd_EH_SET_PAGE_OF</text>
<text text-anchor="middle" x="97.5" y="-252.5" font-family="Helvetica,sans-Serif" font-size="10.00">_LOG_TABLE_FOR_TLM</text>
</a>
</g>
</g>
<!-- Node2&#45;&gt;Node54 -->
<g id="edge44" class="edge">
<title>Node2&#45;&gt;Node54</title>
<path fill="none" stroke="midnightblue" d="M291.8,-1007.74C292.99,-901.29 293.3,-396.84 195,-285.5 186.64,-276.03 175.2,-269.93 163.12,-266.04"/>
<polygon fill="midnightblue" stroke="midnightblue" points="288.3,-1007.71 291.67,-1017.75 295.3,-1007.8 288.3,-1007.71"/>
</g>
<!-- Node55 -->
<g id="node46" class="node">
<title>Node55</title>
<g id="a_node46"><a xlink:href="event__handler_8h.html#af2b1b3ac8872d2e5e2eaac0559aeff39" target="_top" xlink:title=" ">
<polygon fill="white" stroke="red" points="15,-196.5 15,-226.5 180,-226.5 180,-196.5 15,-196.5"/>
<text text-anchor="start" x="23" y="-214.5" font-family="Helvetica,sans-Serif" font-size="10.00">Cmd_EH_SET_PAGE_OF</text>
<text text-anchor="middle" x="97.5" y="-203.5" font-family="Helvetica,sans-Serif" font-size="10.00">_RULE_SORTED_IDX_FOR_TLM</text>
</a>
</g>
</g>
<!-- Node2&#45;&gt;Node55 -->
<g id="edge45" class="edge">
<title>Node2&#45;&gt;Node55</title>
<path fill="none" stroke="midnightblue" d="M290.41,-1007.78C283.8,-891.33 247.6,-296.55 195,-236.5 190.78,-231.68 185.77,-227.74 180.27,-224.51"/>
<polygon fill="midnightblue" stroke="midnightblue" points="286.92,-1008 290.97,-1017.79 293.9,-1007.61 286.92,-1008"/>
</g>
<!-- Node56 -->
<g id="node47" class="node">
<title>Node56</title>
<g id="a_node47"><a xlink:href="event__handler_8h.html#a927e26c890b101dd28b8338222a234c1" target="_top" xlink:title=" ">
<polygon fill="white" stroke="red" points="30.5,-147.5 30.5,-177.5 164.5,-177.5 164.5,-147.5 30.5,-147.5"/>
<text text-anchor="start" x="38.5" y="-165.5" font-family="Helvetica,sans-Serif" font-size="10.00">Cmd_EH_SET_PAGE_OF</text>
<text text-anchor="middle" x="97.5" y="-154.5" font-family="Helvetica,sans-Serif" font-size="10.00">_RULE_TABLE_FOR_TLM</text>
</a>
</g>
</g>
<!-- Node2&#45;&gt;Node56 -->
<g id="edge46" class="edge">
<title>Node2&#45;&gt;Node56</title>
<path fill="none" stroke="midnightblue" d="M290.55,-1007.7C284.59,-886.85 250.76,-251.61 195,-187.5 187.05,-178.36 176.23,-172.35 164.71,-168.44"/>
<polygon fill="midnightblue" stroke="midnightblue" points="287.06,-1007.94 291.04,-1017.75 294.05,-1007.6 287.06,-1007.94"/>
</g>
<!-- Node57 -->
<g id="node48" class="node">
<title>Node57</title>
<g id="a_node48"><a xlink:href="event__handler_8h.html#a15f5dad393151a3f945f7fe30afe6e43" target="_top" xlink:title=" ">
<polygon fill="white" stroke="red" points="23,-98.5 23,-128.5 172,-128.5 172,-98.5 23,-98.5"/>
<text text-anchor="start" x="31" y="-116.5" font-family="Helvetica,sans-Serif" font-size="10.00">Cmd_EH_SET_REGISTER</text>
<text text-anchor="middle" x="97.5" y="-105.5" font-family="Helvetica,sans-Serif" font-size="10.00">_RULE_CONDITION_PARAM</text>
</a>
</g>
</g>
<!-- Node2&#45;&gt;Node57 -->
<g id="edge47" class="edge">
<title>Node2&#45;&gt;Node57</title>
<path fill="none" stroke="midnightblue" d="M290.68,-1007.73C285.36,-882.85 253.94,-206.7 195,-138.5 188.78,-131.3 180.77,-126.04 172.04,-122.22"/>
<polygon fill="midnightblue" stroke="midnightblue" points="287.19,-1007.93 291.11,-1017.77 294.18,-1007.64 287.19,-1007.93"/>
</g>
<!-- Node58 -->
<g id="node49" class="node">
<title>Node58</title>
<g id="a_node49"><a xlink:href="event__handler_8h.html#afac06541d941e34ba7cac1d4a8df618e" target="_top" xlink:title=" ">
<polygon fill="white" stroke="red" points="30.5,-49.5 30.5,-79.5 164.5,-79.5 164.5,-49.5 30.5,-49.5"/>
<text text-anchor="start" x="38.5" y="-67.5" font-family="Helvetica,sans-Serif" font-size="10.00">Cmd_EH_SET_REGISTER</text>
<text text-anchor="middle" x="97.5" y="-56.5" font-family="Helvetica,sans-Serif" font-size="10.00">_RULE_EVENT_PARAM</text>
</a>
</g>
</g>
<!-- Node2&#45;&gt;Node58 -->
<g id="edge48" class="edge">
<title>Node2&#45;&gt;Node58</title>
<path fill="none" stroke="midnightblue" d="M290.79,-1007.46C286.04,-877.88 257.08,-161.74 195,-89.5 187.1,-80.31 176.31,-74.28 164.8,-70.36"/>
<polygon fill="midnightblue" stroke="midnightblue" points="287.31,-1007.97 291.17,-1017.84 294.3,-1007.72 287.31,-1007.97"/>
</g>
<!-- Node59 -->
<g id="node50" class="node">
<title>Node59</title>
<g id="a_node50"><a xlink:href="event__handler_8h.html#aac6bf4098714de080e006148450c00be" target="_top" xlink:title=" ">
<polygon fill="white" stroke="red" points="21.5,-0.5 21.5,-30.5 173.5,-30.5 173.5,-0.5 21.5,-0.5"/>
<text text-anchor="start" x="29.5" y="-18.5" font-family="Helvetica,sans-Serif" font-size="10.00">Cmd_EH_SET_TARGET_ID</text>
<text text-anchor="middle" x="97.5" y="-7.5" font-family="Helvetica,sans-Serif" font-size="10.00">_OF_RULE_TABLE_FOR_TLM</text>
</a>
</g>
</g>
<!-- Node2&#45;&gt;Node59 -->
<g id="edge49" class="edge">
<title>Node2&#45;&gt;Node59</title>
<path fill="none" stroke="midnightblue" d="M290.91,-1007.66C286.75,-874.76 260.3,-116.88 195,-40.5 189.15,-33.66 181.7,-28.57 173.53,-24.79"/>
<polygon fill="midnightblue" stroke="midnightblue" points="287.42,-1008.06 291.22,-1017.95 294.41,-1007.85 287.42,-1008.06"/>
</g>
</g>
</svg>
