<?xml version="1.0" encoding="UTF-8" standalone="no"?>
<!DOCTYPE svg PUBLIC "-//W3C//DTD SVG 1.1//EN"
 "http://www.w3.org/Graphics/SVG/1.1/DTD/svg11.dtd">
<!-- Generated by graphviz version 2.43.0 (0)
 -->
<!-- Title: TCP_get_seq_flag Pages: 1 -->
<svg width="2156pt" height="88pt"
 viewBox="0.00 0.00 2156.00 88.00" xmlns="http://www.w3.org/2000/svg" xmlns:xlink="http://www.w3.org/1999/xlink">
<g id="graph0" class="graph" transform="scale(1 1) rotate(0) translate(4 84)">
<title>TCP_get_seq_flag</title>
<polygon fill="white" stroke="transparent" points="-4,4 -4,-84 2152,-84 2152,4 -4,4"/>
<!-- Node1 -->
<g id="node1" class="node">
<title>Node1</title>
<g id="a_node1"><a xlink:title="Sequence Flag を取得">
<polygon fill="#bfbfbf" stroke="black" points="2047,-30 2047,-49 2148,-49 2148,-30 2047,-30"/>
<text text-anchor="middle" x="2097.5" y="-37" font-family="Helvetica,sans-Serif" font-size="10.00">TCP_get_seq_flag</text>
</a>
</g>
</g>
<!-- Node2 -->
<g id="node2" class="node">
<title>Node2</title>
<g id="a_node2"><a xlink:href="gs__validate_8c.html#a2d851e14b61c170707282426f1a3d822" target="_top" xlink:title=" ">
<polygon fill="white" stroke="black" points="1877,-30 1877,-49 2011,-49 2011,-30 1877,-30"/>
<text text-anchor="middle" x="1944" y="-37" font-family="Helvetica,sans-Serif" font-size="10.00">GS_check_tcf_contents_</text>
</a>
</g>
</g>
<!-- Node1&#45;&gt;Node2 -->
<g id="edge1" class="edge">
<title>Node1&#45;&gt;Node2</title>
<path fill="none" stroke="midnightblue" d="M2036.82,-39.5C2028.42,-39.5 2019.75,-39.5 2011.24,-39.5"/>
<polygon fill="midnightblue" stroke="midnightblue" points="2036.89,-43 2046.89,-39.5 2036.89,-36 2036.89,-43"/>
</g>
<!-- Node3 -->
<g id="node3" class="node">
<title>Node3</title>
<g id="a_node3"><a xlink:href="gs__validate_8c.html#aaf57603b3217830c620f10440ff700df" target="_top" xlink:title=" ">
<polygon fill="white" stroke="black" points="1728,-49 1728,-68 1841,-68 1841,-49 1728,-49"/>
<text text-anchor="middle" x="1784.5" y="-56" font-family="Helvetica,sans-Serif" font-size="10.00">GS_check_ad_cmd_</text>
</a>
</g>
</g>
<!-- Node2&#45;&gt;Node3 -->
<g id="edge2" class="edge">
<title>Node2&#45;&gt;Node3</title>
<path fill="none" stroke="midnightblue" d="M1866.67,-48.71C1858.11,-49.74 1849.53,-50.78 1841.3,-51.77"/>
<polygon fill="midnightblue" stroke="midnightblue" points="1867.15,-52.18 1876.66,-47.5 1866.32,-45.23 1867.15,-52.18"/>
</g>
<!-- Node20 -->
<g id="node20" class="node">
<title>Node20</title>
<g id="a_node20"><a xlink:href="gs__validate_8c.html#ade886529947636f12095d299135cbfde" target="_top" xlink:title=" ">
<polygon fill="white" stroke="black" points="1728,-11 1728,-30 1841,-30 1841,-11 1728,-11"/>
<text text-anchor="middle" x="1784.5" y="-18" font-family="Helvetica,sans-Serif" font-size="10.00">GS_check_bd_cmd_</text>
</a>
</g>
</g>
<!-- Node2&#45;&gt;Node20 -->
<g id="edge21" class="edge">
<title>Node2&#45;&gt;Node20</title>
<path fill="none" stroke="midnightblue" d="M1866.67,-30.29C1858.11,-29.26 1849.53,-28.22 1841.3,-27.23"/>
<polygon fill="midnightblue" stroke="midnightblue" points="1866.32,-33.77 1876.66,-31.5 1867.15,-26.82 1866.32,-33.77"/>
</g>
<!-- Node4 -->
<g id="node4" class="node">
<title>Node4</title>
<g id="a_node4"><a xlink:href="gs__validate_8h.html#a9e8584656da1d94102639deb6702179e" target="_top" xlink:title="tc_frame の検証">
<polygon fill="white" stroke="black" points="1568,-30 1568,-49 1692,-49 1692,-30 1568,-30"/>
<text text-anchor="middle" x="1630" y="-37" font-family="Helvetica,sans-Serif" font-size="10.00">GS_validate_tc_frame</text>
</a>
</g>
</g>
<!-- Node3&#45;&gt;Node4 -->
<g id="edge3" class="edge">
<title>Node3&#45;&gt;Node4</title>
<path fill="none" stroke="midnightblue" d="M1717.41,-50.27C1708.99,-49.22 1700.39,-48.15 1692.05,-47.11"/>
<polygon fill="midnightblue" stroke="midnightblue" points="1717.22,-53.77 1727.58,-51.53 1718.09,-46.82 1717.22,-53.77"/>
</g>
<!-- Node5 -->
<g id="node5" class="node">
<title>Node5</title>
<g id="a_node5"><a xlink:href="gs_8c.html#a71a6268f1b467c60429c671e47e51e1d" target="_top" xlink:title="地上からの受信データ解析関数">
<polygon fill="white" stroke="black" points="1406,-30 1406,-49 1532,-49 1532,-30 1406,-30"/>
<text text-anchor="middle" x="1469" y="-37" font-family="Helvetica,sans-Serif" font-size="10.00">GS_analyze_rec_data_</text>
</a>
</g>
</g>
<!-- Node4&#45;&gt;Node5 -->
<g id="edge4" class="edge">
<title>Node4&#45;&gt;Node5</title>
<path fill="none" stroke="midnightblue" d="M1557.97,-39.5C1549.37,-39.5 1540.63,-39.5 1532.17,-39.5"/>
<polygon fill="midnightblue" stroke="midnightblue" points="1557.98,-43 1567.98,-39.5 1557.98,-36 1557.98,-43"/>
</g>
<!-- Node6 -->
<g id="node6" class="node">
<title>Node6</title>
<g id="a_node6"><a xlink:href="gs_8c.html#a77d8b5e22b2b2615c9046060e50a3308" target="_top" xlink:title="上記初期化の共通部分をまとめた関数">
<polygon fill="white" stroke="black" points="1240,-24.5 1240,-54.5 1370,-54.5 1370,-24.5 1240,-24.5"/>
<text text-anchor="start" x="1248" y="-42.5" font-family="Helvetica,sans-Serif" font-size="10.00">GS_load_default_driver</text>
<text text-anchor="middle" x="1305" y="-31.5" font-family="Helvetica,sans-Serif" font-size="10.00">_super_init_settings_</text>
</a>
</g>
</g>
<!-- Node5&#45;&gt;Node6 -->
<g id="edge5" class="edge">
<title>Node5&#45;&gt;Node6</title>
<path fill="none" stroke="midnightblue" d="M1395.58,-39.5C1387.1,-39.5 1378.5,-39.5 1370.15,-39.5"/>
<polygon fill="midnightblue" stroke="midnightblue" points="1395.83,-43 1405.83,-39.5 1395.83,-36 1395.83,-43"/>
</g>
<!-- Node7 -->
<g id="node7" class="node">
<title>Node7</title>
<g id="a_node7"><a xlink:href="gs_8c.html#a4621f4390191b12c281982f635516f67" target="_top" xlink:title="CCSDS 側 Driver の DS 上での初期化設定">
<polygon fill="white" stroke="black" points="1082,-49.5 1082,-79.5 1204,-79.5 1204,-49.5 1082,-49.5"/>
<text text-anchor="start" x="1090" y="-67.5" font-family="Helvetica,sans-Serif" font-size="10.00">GS_load_ccsds_driver</text>
<text text-anchor="middle" x="1143" y="-56.5" font-family="Helvetica,sans-Serif" font-size="10.00">_super_init_settings_</text>
</a>
</g>
</g>
<!-- Node6&#45;&gt;Node7 -->
<g id="edge6" class="edge">
<title>Node6&#45;&gt;Node7</title>
<path fill="none" stroke="midnightblue" d="M1229.78,-51.1C1221.15,-52.45 1212.43,-53.81 1204.02,-55.12"/>
<polygon fill="midnightblue" stroke="midnightblue" points="1230.5,-54.53 1239.84,-49.52 1229.42,-47.61 1230.5,-54.53"/>
</g>
<!-- Node19 -->
<g id="node19" class="node">
<title>Node19</title>
<g id="a_node19"><a xlink:href="gs_8c.html#a940de224a6d318a15603b46983cf69ea" target="_top" xlink:title="UART 側 Driver の DS 上での初期化設定">
<polygon fill="white" stroke="black" points="1083.5,-0.5 1083.5,-30.5 1202.5,-30.5 1202.5,-0.5 1083.5,-0.5"/>
<text text-anchor="start" x="1091.5" y="-18.5" font-family="Helvetica,sans-Serif" font-size="10.00">GS_load_uart_driver</text>
<text text-anchor="middle" x="1143" y="-7.5" font-family="Helvetica,sans-Serif" font-size="10.00">_super_init_settings_</text>
</a>
</g>
</g>
<!-- Node6&#45;&gt;Node19 -->
<g id="edge19" class="edge">
<title>Node6&#45;&gt;Node19</title>
<path fill="none" stroke="midnightblue" d="M1229.7,-28.35C1220.65,-27 1211.51,-25.63 1202.73,-24.31"/>
<polygon fill="midnightblue" stroke="midnightblue" points="1229.44,-31.85 1239.84,-29.88 1230.47,-24.93 1229.44,-31.85"/>
</g>
<!-- Node8 -->
<g id="node8" class="node">
<title>Node8</title>
<g id="a_node8"><a xlink:href="gs_8h.html#a3cda832b6c75f514dfb566fa49b59127" target="_top" xlink:title="Driver の初期化">
<polygon fill="white" stroke="black" points="995,-30 995,-49 1046,-49 1046,-30 995,-30"/>
<text text-anchor="middle" x="1020.5" y="-37" font-family="Helvetica,sans-Serif" font-size="10.00">GS_init</text>
</a>
</g>
</g>
<!-- Node7&#45;&gt;Node8 -->
<g id="edge7" class="edge">
<title>Node7&#45;&gt;Node8</title>
<path fill="none" stroke="midnightblue" d="M1071.76,-49.93C1062.62,-48.03 1053.81,-46.2 1046.18,-44.62"/>
<polygon fill="midnightblue" stroke="midnightblue" points="1071.25,-53.4 1081.75,-52 1072.67,-46.54 1071.25,-53.4"/>
</g>
<!-- Node9 -->
<g id="node9" class="node">
<title>Node9</title>
<g id="a_node9"><a xlink:href="di__gs_8h.html#a85a2f6f774237a127bcd4e9c47334b63" target="_top" xlink:title=" ">
<polygon fill="white" stroke="black" points="807,-52 807,-71 959,-71 959,-52 807,-52"/>
<text text-anchor="middle" x="883" y="-59" font-family="Helvetica,sans-Serif" font-size="10.00">Cmd_DI_GS_DRIVER_RESET</text>
</a>
</g>
</g>
<!-- Node8&#45;&gt;Node9 -->
<g id="edge8" class="edge">
<title>Node8&#45;&gt;Node9</title>
<path fill="none" stroke="midnightblue" d="M984.75,-45.14C971.93,-47.22 957.04,-49.64 942.69,-51.97"/>
<polygon fill="midnightblue" stroke="midnightblue" points="985.65,-48.54 994.96,-43.48 984.53,-41.63 985.65,-48.54"/>
</g>
<!-- Node16 -->
<g id="node16" class="node">
<title>Node16</title>
<g id="a_node16"><a xlink:href="di__gs_8c.html#aac505df7423e0f4abedbc661040be341" target="_top" xlink:title=" ">
<polygon fill="white" stroke="black" points="807,-2.5 807,-32.5 959,-32.5 959,-2.5 807,-2.5"/>
<text text-anchor="start" x="815" y="-20.5" font-family="Helvetica,sans-Serif" font-size="10.00">DI_GS_cmd_packet_handler</text>
<text text-anchor="middle" x="883" y="-9.5" font-family="Helvetica,sans-Serif" font-size="10.00">_init_</text>
</a>
</g>
</g>
<!-- Node8&#45;&gt;Node16 -->
<g id="edge15" class="edge">
<title>Node8&#45;&gt;Node16</title>
<path fill="none" stroke="midnightblue" d="M984.97,-33.89C976.97,-32.59 968.14,-31.16 959.14,-29.7"/>
<polygon fill="midnightblue" stroke="midnightblue" points="984.53,-37.37 994.96,-35.52 985.65,-30.46 984.53,-37.37"/>
</g>
<!-- Node10 -->
<g id="node10" class="node">
<title>Node10</title>
<g id="a_node10"><a xlink:href="command__definitions_8c.html#ad36fa8ab7c3cc0d70e411f238f79fe4b" target="_top" xlink:title="Cmd Tableのロード">
<polygon fill="white" stroke="black" points="638.5,-50 638.5,-69 751.5,-69 751.5,-50 638.5,-50"/>
<text text-anchor="middle" x="695" y="-57" font-family="Helvetica,sans-Serif" font-size="10.00">CA_load_cmd_table</text>
</a>
</g>
</g>
<!-- Node9&#45;&gt;Node10 -->
<g id="edge9" class="edge">
<title>Node9&#45;&gt;Node10</title>
<path fill="none" stroke="midnightblue" d="M796.86,-60.58C781.52,-60.42 765.89,-60.25 751.66,-60.1"/>
<polygon fill="midnightblue" stroke="midnightblue" points="796.85,-64.08 806.88,-60.69 796.92,-57.08 796.85,-64.08"/>
</g>
<!-- Node11 -->
<g id="node11" class="node">
<title>Node11</title>
<g id="a_node11"><a xlink:href="command__analyze_8h.html#ae6d1f376bf4e1c9c4b63bc3f04924c8a" target="_top" xlink:title="CAの初期化">
<polygon fill="white" stroke="black" points="477.5,-49 477.5,-68 554.5,-68 554.5,-49 477.5,-49"/>
<text text-anchor="middle" x="516" y="-56" font-family="Helvetica,sans-Serif" font-size="10.00">CA_initialize</text>
</a>
</g>
</g>
<!-- Node10&#45;&gt;Node11 -->
<g id="edge10" class="edge">
<title>Node10&#45;&gt;Node11</title>
<path fill="none" stroke="midnightblue" d="M628.38,-59.13C603.54,-58.99 576.11,-58.83 554.69,-58.71"/>
<polygon fill="midnightblue" stroke="midnightblue" points="628.46,-62.63 638.48,-59.19 628.5,-55.63 628.46,-62.63"/>
</g>
<!-- Node12 -->
<g id="node12" class="node">
<title>Node12</title>
<g id="a_node12"><a xlink:href="c2a__core__main_8h.html#a65ecdc63d8762ffde4db7f6c6e6f07cf" target="_top" xlink:title=" ">
<polygon fill="white" stroke="black" points="330,-30 330,-49 413,-49 413,-30 330,-30"/>
<text text-anchor="middle" x="371.5" y="-37" font-family="Helvetica,sans-Serif" font-size="10.00">C2A_core_init</text>
</a>
</g>
</g>
<!-- Node11&#45;&gt;Node12 -->
<g id="edge11" class="edge">
<title>Node11&#45;&gt;Node12</title>
<path fill="none" stroke="midnightblue" d="M467.17,-52.12C449.67,-49.79 430.06,-47.17 413.24,-44.93"/>
<polygon fill="midnightblue" stroke="midnightblue" points="466.81,-55.61 477.19,-53.46 467.74,-48.67 466.81,-55.61"/>
</g>
<!-- Node13 -->
<g id="node13" class="node">
<title>Node13</title>
<g id="a_node13"><a xlink:href="c2a__main_8c.html#a630222a80cd8bffd4426d4a55a215069" target="_top" xlink:title=" ">
<polygon fill="white" stroke="black" points="232,-30 232,-49 294,-49 294,-30 232,-30"/>
<text text-anchor="middle" x="263" y="-37" font-family="Helvetica,sans-Serif" font-size="10.00">C2A_init_</text>
</a>
</g>
</g>
<!-- Node12&#45;&gt;Node13 -->
<g id="edge12" class="edge">
<title>Node12&#45;&gt;Node13</title>
<path fill="none" stroke="midnightblue" d="M319.76,-39.5C311.01,-39.5 302.17,-39.5 294.18,-39.5"/>
<polygon fill="midnightblue" stroke="midnightblue" points="319.93,-43 329.93,-39.5 319.93,-36 319.93,-43"/>
</g>
<!-- Node14 -->
<g id="node14" class="node">
<title>Node14</title>
<g id="a_node14"><a xlink:href="c2a__main_8c.html#ac3344a311adda8f9e7310924bedf81fc" target="_top" xlink:title=" ">
<polygon fill="white" stroke="black" points="77,-30 77,-49 196,-49 196,-30 77,-30"/>
<text text-anchor="middle" x="136.5" y="-37" font-family="Helvetica,sans-Serif" font-size="10.00">address_fixed_main_</text>
</a>
</g>
</g>
<!-- Node13&#45;&gt;Node14 -->
<g id="edge13" class="edge">
<title>Node13&#45;&gt;Node14</title>
<path fill="none" stroke="midnightblue" d="M221.83,-39.5C213.62,-39.5 204.82,-39.5 196.12,-39.5"/>
<polygon fill="midnightblue" stroke="midnightblue" points="221.86,-43 231.86,-39.5 221.86,-36 221.86,-43"/>
</g>
<!-- Node15 -->
<g id="node15" class="node">
<title>Node15</title>
<g id="a_node15"><a xlink:href="c2a__main_8c.html#a6288eba0f8e8ad3ab1544ad731eb7667" target="_top" xlink:title=" ">
<polygon fill="white" stroke="black" points="0,-30 0,-49 41,-49 41,-30 0,-30"/>
<text text-anchor="middle" x="20.5" y="-37" font-family="Helvetica,sans-Serif" font-size="10.00">main</text>
</a>
</g>
</g>
<!-- Node14&#45;&gt;Node15 -->
<g id="edge14" class="edge">
<title>Node14&#45;&gt;Node15</title>
<path fill="none" stroke="midnightblue" d="M66.64,-39.5C57.37,-39.5 48.53,-39.5 41.18,-39.5"/>
<polygon fill="midnightblue" stroke="midnightblue" points="66.83,-43 76.83,-39.5 66.83,-36 66.83,-43"/>
</g>
<!-- Node17 -->
<g id="node17" class="node">
<title>Node17</title>
<g id="a_node17"><a xlink:href="di__gs_8h.html#a9db482e4676bf373c0f84561058f1f91" target="_top" xlink:title=" ">
<polygon fill="white" stroke="black" points="619,-11 619,-30 771,-30 771,-11 619,-11"/>
<text text-anchor="middle" x="695" y="-18" font-family="Helvetica,sans-Serif" font-size="10.00">DI_GS_cmd_packet_handler</text>
</a>
</g>
</g>
<!-- Node16&#45;&gt;Node17 -->
<g id="edge16" class="edge">
<title>Node16&#45;&gt;Node17</title>
<path fill="none" stroke="midnightblue" d="M796.85,-18.87C788.26,-19.01 779.57,-19.15 771.1,-19.29"/>
<polygon fill="midnightblue" stroke="midnightblue" points="796.94,-22.37 806.88,-18.71 796.83,-15.37 796.94,-22.37"/>
</g>
<!-- Node18 -->
<g id="node18" class="node">
<title>Node18</title>
<g id="a_node18"><a xlink:href="app__registry_8h.html#ab944b1d78a41e427bc2ed57f9c4e9534" target="_top" xlink:title=" ">
<polygon fill="white" stroke="black" points="449,-11 449,-30 583,-30 583,-11 449,-11"/>
<text text-anchor="middle" x="516" y="-18" font-family="Helvetica,sans-Serif" font-size="10.00">AR_load_initial_settings</text>
</a>
</g>
</g>
<!-- Node17&#45;&gt;Node18 -->
<g id="edge17" class="edge">
<title>Node17&#45;&gt;Node18</title>
<path fill="none" stroke="midnightblue" d="M608.86,-20.5C600.24,-20.5 591.59,-20.5 583.21,-20.5"/>
<polygon fill="midnightblue" stroke="midnightblue" points="608.94,-24 618.94,-20.5 608.94,-17 608.94,-24"/>
</g>
<!-- Node18&#45;&gt;Node12 -->
<g id="edge18" class="edge">
<title>Node18&#45;&gt;Node12</title>
<path fill="none" stroke="midnightblue" d="M438.56,-30.69C429.89,-31.85 421.32,-32.99 413.38,-34.05"/>
<polygon fill="midnightblue" stroke="midnightblue" points="439.31,-34.12 448.76,-29.33 438.38,-27.18 439.31,-34.12"/>
</g>
<!-- Node19&#45;&gt;Node8 -->
<g id="edge20" class="edge">
<title>Node19&#45;&gt;Node8</title>
<path fill="none" stroke="midnightblue" d="M1073.11,-29.22C1063.53,-31.13 1054.25,-32.98 1046.26,-34.57"/>
<polygon fill="midnightblue" stroke="midnightblue" points="1074.04,-32.6 1083.16,-27.22 1072.67,-25.74 1074.04,-32.6"/>
</g>
<!-- Node20&#45;&gt;Node4 -->
<g id="edge22" class="edge">
<title>Node20&#45;&gt;Node4</title>
<path fill="none" stroke="midnightblue" d="M1717.41,-28.73C1708.99,-29.78 1700.39,-30.85 1692.05,-31.89"/>
<polygon fill="midnightblue" stroke="midnightblue" points="1718.09,-32.18 1727.58,-27.47 1717.22,-25.23 1718.09,-32.18"/>
</g>
</g>
</svg>
