<?xml version="1.0" encoding="UTF-8" standalone="no"?>
<!DOCTYPE svg PUBLIC "-//W3C//DTD SVG 1.1//EN"
 "http://www.w3.org/Graphics/SVG/1.1/DTD/svg11.dtd">
<!-- Generated by graphviz version 2.43.0 (0)
 -->
<!-- Title: src/src_user/Settings/AnomalyLogger/al_default_settings.c Pages: 1 -->
<svg width="730pt" height="396pt"
 viewBox="0.00 0.00 730.00 396.00" xmlns="http://www.w3.org/2000/svg" xmlns:xlink="http://www.w3.org/1999/xlink">
<g id="graph0" class="graph" transform="scale(1 1) rotate(0) translate(4 392)">
<title>src/src_user/Settings/AnomalyLogger/al_default_settings.c</title>
<polygon fill="white" stroke="transparent" points="-4,4 -4,-392 726,-392 726,4 -4,4"/>
<!-- Node1 -->
<g id="node1" class="node">
<title>Node1</title>
<g id="a_node1"><a xlink:title=" ">
<polygon fill="#bfbfbf" stroke="black" points="272,-346.5 272,-387.5 420,-387.5 420,-346.5 272,-346.5"/>
<text text-anchor="start" x="280" y="-375.5" font-family="Helvetica,sans-Serif" font-size="10.00">src/src_user/Settings</text>
<text text-anchor="start" x="280" y="-364.5" font-family="Helvetica,sans-Serif" font-size="10.00">/AnomalyLogger/al_default</text>
<text text-anchor="middle" x="346" y="-353.5" font-family="Helvetica,sans-Serif" font-size="10.00">_settings.c</text>
</a>
</g>
</g>
<!-- Node2 -->
<g id="node2" class="node">
<title>Node2</title>
<g id="a_node2"><a xlink:href="al__default__settings_8h.html" target="_top" xlink:title=" ">
<polygon fill="white" stroke="black" points="120.5,-285 120.5,-304 239.5,-304 239.5,-285 120.5,-285"/>
<text text-anchor="middle" x="180" y="-292" font-family="Helvetica,sans-Serif" font-size="10.00">al_default_settings.h</text>
</a>
</g>
</g>
<!-- Node1&#45;&gt;Node2 -->
<g id="edge1" class="edge">
<title>Node1&#45;&gt;Node2</title>
<path fill="none" stroke="midnightblue" d="M299.76,-346.36C270.96,-334.13 234.77,-318.76 209.75,-308.14"/>
<polygon fill="midnightblue" stroke="midnightblue" points="210.99,-304.86 200.42,-304.17 208.26,-311.3 210.99,-304.86"/>
</g>
<!-- Node3 -->
<g id="node3" class="node">
<title>Node3</title>
<g id="a_node3"><a xlink:href="anomaly__logger_8h.html" target="_top" xlink:title=" ">
<polygon fill="white" stroke="black" points="258,-279.5 258,-309.5 434,-309.5 434,-279.5 258,-279.5"/>
<text text-anchor="start" x="266" y="-297.5" font-family="Helvetica,sans-Serif" font-size="10.00">src_core/System/AnomalyLogger</text>
<text text-anchor="middle" x="346" y="-286.5" font-family="Helvetica,sans-Serif" font-size="10.00">/anomaly_logger.h</text>
</a>
</g>
</g>
<!-- Node1&#45;&gt;Node3 -->
<g id="edge2" class="edge">
<title>Node1&#45;&gt;Node3</title>
<path fill="none" stroke="midnightblue" d="M346,-346.36C346,-338.23 346,-328.7 346,-320.11"/>
<polygon fill="midnightblue" stroke="midnightblue" points="349.5,-319.89 346,-309.89 342.5,-319.89 349.5,-319.89"/>
</g>
<!-- Node15 -->
<g id="node15" class="node">
<title>Node15</title>
<g id="a_node15"><a xlink:href="anomaly__group_8h.html" target="_top" xlink:title=" ">
<polygon fill="white" stroke="black" points="542,-212.5 542,-242.5 688,-242.5 688,-212.5 542,-212.5"/>
<text text-anchor="start" x="550" y="-230.5" font-family="Helvetica,sans-Serif" font-size="10.00">src_user/Settings/Anomaly</text>
<text text-anchor="middle" x="615" y="-219.5" font-family="Helvetica,sans-Serif" font-size="10.00">Logger/anomaly_group.h</text>
</a>
</g>
</g>
<!-- Node1&#45;&gt;Node15 -->
<g id="edge17" class="edge">
<title>Node1&#45;&gt;Node15</title>
<path fill="none" stroke="midnightblue" d="M384.26,-346.45C436.01,-319.99 527.69,-273.13 578.51,-247.15"/>
<polygon fill="midnightblue" stroke="midnightblue" points="580.2,-250.22 587.51,-242.55 577.01,-243.99 580.2,-250.22"/>
</g>
<!-- Node4 -->
<g id="node4" class="node">
<title>Node4</title>
<g id="a_node4"><a xlink:title=" ">
<polygon fill="white" stroke="#bfbfbf" points="122,-218 122,-237 178,-237 178,-218 122,-218"/>
<text text-anchor="middle" x="150" y="-225" font-family="Helvetica,sans-Serif" font-size="10.00">stddef.h</text>
</a>
</g>
</g>
<!-- Node3&#45;&gt;Node4 -->
<g id="edge3" class="edge">
<title>Node3&#45;&gt;Node4</title>
<path fill="none" stroke="midnightblue" d="M302.46,-279.42C271.59,-269.39 229.2,-255.52 192,-243 189.57,-242.18 187.06,-241.33 184.54,-240.47"/>
<polygon fill="midnightblue" stroke="midnightblue" points="185.45,-237.08 174.85,-237.15 183.18,-243.71 185.45,-237.08"/>
</g>
<!-- Node5 -->
<g id="node5" class="node">
<title>Node5</title>
<g id="a_node5"><a xlink:href="obc__time_8h.html" target="_top" xlink:title="OBCの時刻情報の定義と演算">
<polygon fill="white" stroke="black" points="87.5,-145.5 87.5,-175.5 200.5,-175.5 200.5,-145.5 87.5,-145.5"/>
<text text-anchor="start" x="95.5" y="-163.5" font-family="Helvetica,sans-Serif" font-size="10.00">../TimeManager/obc</text>
<text text-anchor="middle" x="144" y="-152.5" font-family="Helvetica,sans-Serif" font-size="10.00">_time.h</text>
</a>
</g>
</g>
<!-- Node3&#45;&gt;Node5 -->
<g id="edge4" class="edge">
<title>Node3&#45;&gt;Node5</title>
<path fill="none" stroke="midnightblue" d="M300.77,-279.42C277.08,-270.89 248.24,-258.62 225,-243 200.39,-226.45 177.04,-201.64 161.8,-183.74"/>
<polygon fill="midnightblue" stroke="midnightblue" points="164.08,-181.01 154.99,-175.57 158.7,-185.5 164.08,-181.01"/>
</g>
<!-- Node9 -->
<g id="node9" class="node">
<title>Node9</title>
<g id="a_node9"><a xlink:href="common__cmd__packet_8h.html" target="_top" xlink:title="CCP 関連基本関数の宣言">
<polygon fill="white" stroke="black" points="234,-212.5 234,-242.5 356,-242.5 356,-212.5 234,-212.5"/>
<text text-anchor="start" x="242" y="-230.5" font-family="Helvetica,sans-Serif" font-size="10.00">../../TlmCmd/common</text>
<text text-anchor="middle" x="295" y="-219.5" font-family="Helvetica,sans-Serif" font-size="10.00">_cmd_packet.h</text>
</a>
</g>
</g>
<!-- Node3&#45;&gt;Node9 -->
<g id="edge8" class="edge">
<title>Node3&#45;&gt;Node9</title>
<path fill="none" stroke="midnightblue" d="M334.93,-279.4C328.32,-270.96 319.77,-260.07 312.28,-250.52"/>
<polygon fill="midnightblue" stroke="midnightblue" points="314.97,-248.28 306.04,-242.58 309.46,-252.6 314.97,-248.28"/>
</g>
<!-- Node3&#45;&gt;Node15 -->
<g id="edge15" class="edge">
<title>Node3&#45;&gt;Node15</title>
<path fill="none" stroke="midnightblue" d="M404.04,-279.48C445.97,-269.34 502.74,-255.63 546.83,-244.97"/>
<polygon fill="midnightblue" stroke="midnightblue" points="547.7,-248.36 556.6,-242.61 546.06,-241.56 547.7,-248.36"/>
</g>
<!-- Node16 -->
<g id="node16" class="node">
<title>Node16</title>
<g id="a_node16"><a xlink:href="anomaly__logger__params_8h.html" target="_top" xlink:title="ALのCoreパラメタのオーバーライド用ヘッダー">
<polygon fill="white" stroke="black" points="374.5,-212.5 374.5,-242.5 523.5,-242.5 523.5,-212.5 374.5,-212.5"/>
<text text-anchor="start" x="382.5" y="-230.5" font-family="Helvetica,sans-Serif" font-size="10.00">src_user/Settings/System</text>
<text text-anchor="middle" x="449" y="-219.5" font-family="Helvetica,sans-Serif" font-size="10.00">/anomaly_logger_params.h</text>
</a>
</g>
</g>
<!-- Node3&#45;&gt;Node16 -->
<g id="edge16" class="edge">
<title>Node3&#45;&gt;Node16</title>
<path fill="none" stroke="midnightblue" d="M368.35,-279.4C382.93,-270.2 402.15,-258.07 418.17,-247.95"/>
<polygon fill="midnightblue" stroke="midnightblue" points="420.11,-250.87 426.69,-242.58 416.37,-244.95 420.11,-250.87"/>
</g>
<!-- Node6 -->
<g id="node6" class="node">
<title>Node6</title>
<g id="a_node6"><a xlink:href="stdint_8h.html" target="_top" xlink:title=" ">
<polygon fill="white" stroke="black" points="0,-84 0,-103 134,-103 134,-84 0,-84"/>
<text text-anchor="middle" x="67" y="-91" font-family="Helvetica,sans-Serif" font-size="10.00">src_user/Library/stdint.h</text>
</a>
</g>
</g>
<!-- Node5&#45;&gt;Node6 -->
<g id="edge5" class="edge">
<title>Node5&#45;&gt;Node6</title>
<path fill="none" stroke="midnightblue" d="M127.29,-145.4C114.81,-134.86 97.77,-120.48 84.99,-109.69"/>
<polygon fill="midnightblue" stroke="midnightblue" points="87.2,-106.97 77.3,-103.19 82.68,-112.32 87.2,-106.97"/>
</g>
<!-- Node8 -->
<g id="node8" class="node">
<title>Node8</title>
<g id="a_node8"><a xlink:href="obc__time__params_8h.html" target="_top" xlink:title="OBCTのCoreパラメタのオーバーライド用ヘッダー">
<polygon fill="white" stroke="black" points="152,-78.5 152,-108.5 292,-108.5 292,-78.5 152,-78.5"/>
<text text-anchor="start" x="160" y="-96.5" font-family="Helvetica,sans-Serif" font-size="10.00">src_user/Settings/System</text>
<text text-anchor="middle" x="222" y="-85.5" font-family="Helvetica,sans-Serif" font-size="10.00">/obc_time_params.h</text>
</a>
</g>
</g>
<!-- Node5&#45;&gt;Node8 -->
<g id="edge7" class="edge">
<title>Node5&#45;&gt;Node8</title>
<path fill="none" stroke="midnightblue" d="M160.92,-145.4C171.55,-136.54 185.45,-124.96 197.3,-115.09"/>
<polygon fill="midnightblue" stroke="midnightblue" points="199.67,-117.67 205.11,-108.58 195.19,-112.29 199.67,-117.67"/>
</g>
<!-- Node7 -->
<g id="node7" class="node">
<title>Node7</title>
<g id="a_node7"><a xlink:href="sils__define_8h.html" target="_top" xlink:title="Switch the build settings between your real OBC and SILS">
<polygon fill="white" stroke="black" points="2.5,-11.5 2.5,-30.5 131.5,-30.5 131.5,-11.5 2.5,-11.5"/>
<text text-anchor="middle" x="67" y="-18.5" font-family="Helvetica,sans-Serif" font-size="10.00">../Settings/sils_define.h</text>
</a>
</g>
</g>
<!-- Node6&#45;&gt;Node7 -->
<g id="edge6" class="edge">
<title>Node6&#45;&gt;Node7</title>
<path fill="none" stroke="midnightblue" d="M67,-83.86C67,-73.18 67,-54.72 67,-40.73"/>
<polygon fill="midnightblue" stroke="midnightblue" points="70.5,-40.72 67,-30.72 63.5,-40.72 70.5,-40.72"/>
</g>
<!-- Node9&#45;&gt;Node5 -->
<g id="edge9" class="edge">
<title>Node9&#45;&gt;Node5</title>
<path fill="none" stroke="midnightblue" d="M262.24,-212.4C239.88,-202.77 210.06,-189.94 185.96,-179.56"/>
<polygon fill="midnightblue" stroke="midnightblue" points="187.27,-176.32 176.7,-175.58 184.5,-182.75 187.27,-176.32"/>
</g>
<!-- Node10 -->
<g id="node10" class="node">
<title>Node10</title>
<g id="a_node10"><a xlink:href="command__definitions_8h.html" target="_top" xlink:title="コマンド定義">
<polygon fill="white" stroke="black" points="218.5,-145.5 218.5,-175.5 371.5,-175.5 371.5,-145.5 218.5,-145.5"/>
<text text-anchor="start" x="226.5" y="-163.5" font-family="Helvetica,sans-Serif" font-size="10.00">src_user/TlmCmd/command</text>
<text text-anchor="middle" x="295" y="-152.5" font-family="Helvetica,sans-Serif" font-size="10.00">_definitions.h</text>
</a>
</g>
</g>
<!-- Node9&#45;&gt;Node10 -->
<g id="edge10" class="edge">
<title>Node9&#45;&gt;Node10</title>
<path fill="none" stroke="midnightblue" d="M295,-212.4C295,-204.64 295,-194.81 295,-185.86"/>
<polygon fill="midnightblue" stroke="midnightblue" points="298.5,-185.58 295,-175.58 291.5,-185.58 298.5,-185.58"/>
</g>
<!-- Node11 -->
<g id="node11" class="node">
<title>Node11</title>
<g id="a_node11"><a xlink:href="common__cmd__packet__define_8h.html" target="_top" xlink:title="CCP 型の定義">
<polygon fill="white" stroke="black" points="390,-145.5 390,-175.5 560,-175.5 560,-145.5 390,-145.5"/>
<text text-anchor="start" x="398" y="-163.5" font-family="Helvetica,sans-Serif" font-size="10.00">src_user/Settings/TlmCmd</text>
<text text-anchor="middle" x="475" y="-152.5" font-family="Helvetica,sans-Serif" font-size="10.00">/common_cmd_packet_define.h</text>
</a>
</g>
</g>
<!-- Node9&#45;&gt;Node11 -->
<g id="edge11" class="edge">
<title>Node9&#45;&gt;Node11</title>
<path fill="none" stroke="midnightblue" d="M334.06,-212.4C361.18,-202.6 397.51,-189.48 426.5,-179.02"/>
<polygon fill="midnightblue" stroke="midnightblue" points="427.8,-182.26 436.02,-175.58 425.42,-175.68 427.8,-182.26"/>
</g>
<!-- Node14 -->
<g id="node14" class="node">
<title>Node14</title>
<g id="a_node14"><a xlink:href="apid__define_8h.html" target="_top" xlink:title="CCSDS の APID を定義する">
<polygon fill="white" stroke="black" points="578,-145.5 578,-175.5 722,-175.5 722,-145.5 578,-145.5"/>
<text text-anchor="start" x="586" y="-163.5" font-family="Helvetica,sans-Serif" font-size="10.00">src_user/Settings/TlmCmd</text>
<text text-anchor="middle" x="650" y="-152.5" font-family="Helvetica,sans-Serif" font-size="10.00">/Ccsds/apid_define.h</text>
</a>
</g>
</g>
<!-- Node9&#45;&gt;Node14 -->
<g id="edge14" class="edge">
<title>Node9&#45;&gt;Node14</title>
<path fill="none" stroke="midnightblue" d="M356.06,-213.74C359.08,-213.14 362.07,-212.56 365,-212 452.33,-195.25 476.71,-192.3 567.67,-176.23"/>
<polygon fill="midnightblue" stroke="midnightblue" points="568.34,-179.67 577.58,-174.47 567.12,-172.77 568.34,-179.67"/>
</g>
<!-- Node12 -->
<g id="node12" class="node">
<title>Node12</title>
<g id="a_node12"><a xlink:href="space__packet__typedef_8h.html" target="_top" xlink:title="SpacePacket 類 と CommonTlmCmdPacket 類が相互参照するのを回避するためのヘッダ">
<polygon fill="white" stroke="black" points="406.5,-78.5 406.5,-108.5 543.5,-108.5 543.5,-78.5 406.5,-78.5"/>
<text text-anchor="start" x="414.5" y="-96.5" font-family="Helvetica,sans-Serif" font-size="10.00">src_core/TlmCmd/Ccsds</text>
<text text-anchor="middle" x="475" y="-85.5" font-family="Helvetica,sans-Serif" font-size="10.00">/space_packet_typedef.h</text>
</a>
</g>
</g>
<!-- Node11&#45;&gt;Node12 -->
<g id="edge12" class="edge">
<title>Node11&#45;&gt;Node12</title>
<path fill="none" stroke="midnightblue" d="M475,-145.4C475,-137.64 475,-127.81 475,-118.86"/>
<polygon fill="midnightblue" stroke="midnightblue" points="478.5,-118.58 475,-108.58 471.5,-118.58 478.5,-118.58"/>
</g>
<!-- Node13 -->
<g id="node13" class="node">
<title>Node13</title>
<g id="a_node13"><a xlink:href="space__packet__typedef__params_8h.html" target="_top" xlink:title="SpacePacketの パケット型に関するユーザー設定">
<polygon fill="white" stroke="black" points="395,-0.5 395,-41.5 555,-41.5 555,-0.5 395,-0.5"/>
<text text-anchor="start" x="403" y="-29.5" font-family="Helvetica,sans-Serif" font-size="10.00">src_user/Settings/TlmCmd</text>
<text text-anchor="start" x="403" y="-18.5" font-family="Helvetica,sans-Serif" font-size="10.00">/Ccsds/space_packet_typedef</text>
<text text-anchor="middle" x="475" y="-7.5" font-family="Helvetica,sans-Serif" font-size="10.00">_params.h</text>
</a>
</g>
</g>
<!-- Node12&#45;&gt;Node13 -->
<g id="edge13" class="edge">
<title>Node12&#45;&gt;Node13</title>
<path fill="none" stroke="midnightblue" d="M475,-78.23C475,-70.57 475,-60.84 475,-51.63"/>
<polygon fill="midnightblue" stroke="midnightblue" points="478.5,-51.59 475,-41.59 471.5,-51.59 478.5,-51.59"/>
</g>
</g>
</svg>
