<?xml version="1.0" encoding="UTF-8" standalone="no"?>
<!DOCTYPE svg PUBLIC "-//W3C//DTD SVG 1.1//EN"
 "http://www.w3.org/Graphics/SVG/1.1/DTD/svg11.dtd">
<!-- Generated by graphviz version 2.43.0 (0)
 -->
<!-- Title: src/src_core/System/AnomalyLogger/anomaly_logger.c Pages: 1 -->
<svg width="1317pt" height="441pt"
 viewBox="0.00 0.00 1316.50 441.00" xmlns="http://www.w3.org/2000/svg" xmlns:xlink="http://www.w3.org/1999/xlink">
<g id="graph0" class="graph" transform="scale(1 1) rotate(0) translate(4 437)">
<title>src/src_core/System/AnomalyLogger/anomaly_logger.c</title>
<polygon fill="white" stroke="transparent" points="-4,4 -4,-437 1312.5,-437 1312.5,4 -4,4"/>
<!-- Node1 -->
<g id="node1" class="node">
<title>Node1</title>
<g id="a_node1"><a xlink:title=" ">
<polygon fill="#bfbfbf" stroke="black" points="853.5,-391.5 853.5,-432.5 995.5,-432.5 995.5,-391.5 853.5,-391.5"/>
<text text-anchor="start" x="861.5" y="-420.5" font-family="Helvetica,sans-Serif" font-size="10.00">src/src_core/System</text>
<text text-anchor="start" x="861.5" y="-409.5" font-family="Helvetica,sans-Serif" font-size="10.00">/AnomalyLogger/anomaly</text>
<text text-anchor="middle" x="924.5" y="-398.5" font-family="Helvetica,sans-Serif" font-size="10.00">_logger.c</text>
</a>
</g>
</g>
<!-- Node2 -->
<g id="node2" class="node">
<title>Node2</title>
<g id="a_node2"><a xlink:href="anomaly__logger_8h.html" target="_top" xlink:title=" ">
<polygon fill="white" stroke="black" points="792.5,-330 792.5,-349 896.5,-349 896.5,-330 792.5,-330"/>
<text text-anchor="middle" x="844.5" y="-337" font-family="Helvetica,sans-Serif" font-size="10.00">anomaly_logger.h</text>
</a>
</g>
</g>
<!-- Node1&#45;&gt;Node2 -->
<g id="edge1" class="edge">
<title>Node1&#45;&gt;Node2</title>
<path fill="none" stroke="midnightblue" d="M902.22,-391.36C889.57,-380.21 873.96,-366.46 862.16,-356.06"/>
<polygon fill="midnightblue" stroke="midnightblue" points="864.16,-353.16 854.34,-349.17 859.53,-358.41 864.16,-353.16"/>
</g>
<!-- Node18 -->
<g id="node18" class="node">
<title>Node18</title>
<g id="a_node18"><a xlink:href="al__default__settings_8h.html" target="_top" xlink:title=" ">
<polygon fill="white" stroke="black" points="953,-324.5 953,-354.5 1108,-354.5 1108,-324.5 953,-324.5"/>
<text text-anchor="start" x="961" y="-342.5" font-family="Helvetica,sans-Serif" font-size="10.00">src_user/Settings/Anomaly</text>
<text text-anchor="middle" x="1030.5" y="-331.5" font-family="Helvetica,sans-Serif" font-size="10.00">Logger/al_default_settings.h</text>
</a>
</g>
</g>
<!-- Node1&#45;&gt;Node18 -->
<g id="edge25" class="edge">
<title>Node1&#45;&gt;Node18</title>
<path fill="none" stroke="midnightblue" d="M954.03,-391.36C968.54,-381.71 985.99,-370.11 1000.55,-360.42"/>
<polygon fill="midnightblue" stroke="midnightblue" points="1002.81,-363.12 1009.19,-354.67 998.93,-357.29 1002.81,-363.12"/>
</g>
<!-- Node19 -->
<g id="node19" class="node">
<title>Node19</title>
<g id="a_node19"><a xlink:title=" ">
<polygon fill="white" stroke="#bfbfbf" points="1126,-330 1126,-349 1179,-349 1179,-330 1126,-330"/>
<text text-anchor="middle" x="1152.5" y="-337" font-family="Helvetica,sans-Serif" font-size="10.00">string.h</text>
</a>
</g>
</g>
<!-- Node1&#45;&gt;Node19 -->
<g id="edge26" class="edge">
<title>Node1&#45;&gt;Node19</title>
<path fill="none" stroke="midnightblue" d="M995.7,-392.05C1032.11,-381.9 1076.96,-368.69 1116.5,-355 1118.41,-354.34 1120.37,-353.63 1122.33,-352.9"/>
<polygon fill="midnightblue" stroke="midnightblue" points="1124.01,-356.01 1132.07,-349.14 1121.48,-349.48 1124.01,-356.01"/>
</g>
<!-- Node20 -->
<g id="node20" class="node">
<title>Node20</title>
<g id="a_node20"><a xlink:href="time__manager_8h.html" target="_top" xlink:title="OBCの時刻情報を TimeManager 構造体に保持しカウントアップする. その他, 時刻演算に必要な関数も実装する">
<polygon fill="white" stroke="black" points="487,-324.5 487,-354.5 606,-354.5 606,-324.5 487,-324.5"/>
<text text-anchor="start" x="495" y="-342.5" font-family="Helvetica,sans-Serif" font-size="10.00">../TimeManager/time</text>
<text text-anchor="middle" x="546.5" y="-331.5" font-family="Helvetica,sans-Serif" font-size="10.00">_manager.h</text>
</a>
</g>
</g>
<!-- Node1&#45;&gt;Node20 -->
<g id="edge27" class="edge">
<title>Node1&#45;&gt;Node20</title>
<path fill="none" stroke="midnightblue" d="M853.4,-397.74C785.46,-385.07 683.67,-366.08 616.2,-353.5"/>
<polygon fill="midnightblue" stroke="midnightblue" points="616.56,-350.01 606.09,-351.61 615.28,-356.89 616.56,-350.01"/>
</g>
<!-- Node21 -->
<g id="node21" class="node">
<title>Node21</title>
<g id="a_node21"><a xlink:href="endian__memcpy_8h.html" target="_top" xlink:title="memcpyのエンディアン対策">
<polygon fill="white" stroke="black" points="1204.5,-257.5 1204.5,-287.5 1308.5,-287.5 1308.5,-257.5 1204.5,-257.5"/>
<text text-anchor="start" x="1212.5" y="-275.5" font-family="Helvetica,sans-Serif" font-size="10.00">../../Library/endian</text>
<text text-anchor="middle" x="1256.5" y="-264.5" font-family="Helvetica,sans-Serif" font-size="10.00">_memcpy.h</text>
</a>
</g>
</g>
<!-- Node1&#45;&gt;Node21 -->
<g id="edge30" class="edge">
<title>Node1&#45;&gt;Node21</title>
<path fill="none" stroke="midnightblue" d="M922.89,-391.32C922.42,-371.36 925.16,-341.06 943.5,-324 984.76,-285.63 1139.12,-298.43 1194.5,-288 1194.6,-287.98 1194.7,-287.96 1194.81,-287.94"/>
<polygon fill="midnightblue" stroke="midnightblue" points="1195.35,-291.4 1204.47,-286.01 1193.98,-284.54 1195.35,-291.4"/>
</g>
<!-- Node3 -->
<g id="node3" class="node">
<title>Node3</title>
<g id="a_node3"><a xlink:title=" ">
<polygon fill="white" stroke="#bfbfbf" points="965.5,-56.5 965.5,-75.5 1021.5,-75.5 1021.5,-56.5 965.5,-56.5"/>
<text text-anchor="middle" x="993.5" y="-63.5" font-family="Helvetica,sans-Serif" font-size="10.00">stddef.h</text>
</a>
</g>
</g>
<!-- Node2&#45;&gt;Node3 -->
<g id="edge2" class="edge">
<title>Node2&#45;&gt;Node3</title>
<path fill="none" stroke="midnightblue" d="M843.89,-329.58C843.26,-313.01 844.4,-277.33 863.5,-257 901.63,-216.42 946.17,-262.32 983.5,-221 1017.4,-183.47 1006.75,-117.57 998.81,-85.53"/>
<polygon fill="midnightblue" stroke="midnightblue" points="1002.15,-84.48 996.19,-75.71 995.39,-86.28 1002.15,-84.48"/>
</g>
<!-- Node4 -->
<g id="node4" class="node">
<title>Node4</title>
<g id="a_node4"><a xlink:href="obc__time_8h.html" target="_top" xlink:title="OBCの時刻情報の定義と演算">
<polygon fill="white" stroke="black" points="0,-185 0,-215 113,-215 113,-185 0,-185"/>
<text text-anchor="start" x="8" y="-203" font-family="Helvetica,sans-Serif" font-size="10.00">../TimeManager/obc</text>
<text text-anchor="middle" x="56.5" y="-192" font-family="Helvetica,sans-Serif" font-size="10.00">_time.h</text>
</a>
</g>
</g>
<!-- Node2&#45;&gt;Node4 -->
<g id="edge3" class="edge">
<title>Node2&#45;&gt;Node4</title>
<path fill="none" stroke="midnightblue" d="M792.27,-332.18C720.82,-323.33 588.68,-306.29 476.5,-288 403.29,-276.06 385.39,-270.76 312.5,-257 227.62,-240.98 205.36,-241.73 121.5,-221 117.61,-220.04 113.62,-218.98 109.61,-217.87"/>
<polygon fill="midnightblue" stroke="midnightblue" points="110.24,-214.41 99.67,-215.02 108.31,-221.14 110.24,-214.41"/>
</g>
<!-- Node8 -->
<g id="node8" class="node">
<title>Node8</title>
<g id="a_node8"><a xlink:href="common__tlm__cmd__packet_8h.html" target="_top" xlink:title="CTCP の宣言">
<polygon fill="white" stroke="black" points="485.5,-257.5 485.5,-287.5 607.5,-287.5 607.5,-257.5 485.5,-257.5"/>
<text text-anchor="start" x="493.5" y="-275.5" font-family="Helvetica,sans-Serif" font-size="10.00">../../CmdTlm/common</text>
<text text-anchor="middle" x="546.5" y="-264.5" font-family="Helvetica,sans-Serif" font-size="10.00">_tlm_cmd_packet.h</text>
</a>
</g>
</g>
<!-- Node2&#45;&gt;Node8 -->
<g id="edge7" class="edge">
<title>Node2&#45;&gt;Node8</title>
<path fill="none" stroke="midnightblue" d="M805.24,-329.94C757.58,-319.54 676.3,-301.81 617.55,-289"/>
<polygon fill="midnightblue" stroke="midnightblue" points="618.1,-285.54 607.59,-286.82 616.61,-292.37 618.1,-285.54"/>
</g>
<!-- Node16 -->
<g id="node16" class="node">
<title>Node16</title>
<g id="a_node16"><a xlink:href="anomaly__group_8h.html" target="_top" xlink:title=" ">
<polygon fill="white" stroke="black" points="872.5,-257.5 872.5,-287.5 1018.5,-287.5 1018.5,-257.5 872.5,-257.5"/>
<text text-anchor="start" x="880.5" y="-275.5" font-family="Helvetica,sans-Serif" font-size="10.00">src_user/Settings/Anomaly</text>
<text text-anchor="middle" x="945.5" y="-264.5" font-family="Helvetica,sans-Serif" font-size="10.00">Logger/anomaly_group.h</text>
</a>
</g>
</g>
<!-- Node2&#45;&gt;Node16 -->
<g id="edge23" class="edge">
<title>Node2&#45;&gt;Node16</title>
<path fill="none" stroke="midnightblue" d="M858.12,-329.73C872.62,-320.4 896.05,-305.32 915,-293.13"/>
<polygon fill="midnightblue" stroke="midnightblue" points="917.09,-295.94 923.61,-287.59 913.3,-290.06 917.09,-295.94"/>
</g>
<!-- Node17 -->
<g id="node17" class="node">
<title>Node17</title>
<g id="a_node17"><a xlink:href="anomaly__logger__params_8h.html" target="_top" xlink:title="ALのCoreパラメタのオーバーライド用ヘッダー">
<polygon fill="white" stroke="black" points="1037,-257.5 1037,-287.5 1186,-287.5 1186,-257.5 1037,-257.5"/>
<text text-anchor="start" x="1045" y="-275.5" font-family="Helvetica,sans-Serif" font-size="10.00">src_user/Settings/System</text>
<text text-anchor="middle" x="1111.5" y="-264.5" font-family="Helvetica,sans-Serif" font-size="10.00">/anomaly_logger_params.h</text>
</a>
</g>
</g>
<!-- Node2&#45;&gt;Node17 -->
<g id="edge24" class="edge">
<title>Node2&#45;&gt;Node17</title>
<path fill="none" stroke="midnightblue" d="M879.68,-329.94C921.32,-319.8 991.59,-302.69 1043.88,-289.96"/>
<polygon fill="midnightblue" stroke="midnightblue" points="1044.86,-293.33 1053.75,-287.56 1043.21,-286.52 1044.86,-293.33"/>
</g>
<!-- Node5 -->
<g id="node5" class="node">
<title>Node5</title>
<g id="a_node5"><a xlink:href="stdint_8h.html" target="_top" xlink:title=" ">
<polygon fill="white" stroke="black" points="402.5,-56.5 402.5,-75.5 536.5,-75.5 536.5,-56.5 402.5,-56.5"/>
<text text-anchor="middle" x="469.5" y="-63.5" font-family="Helvetica,sans-Serif" font-size="10.00">src_user/Library/stdint.h</text>
</a>
</g>
</g>
<!-- Node4&#45;&gt;Node5 -->
<g id="edge4" class="edge">
<title>Node4&#45;&gt;Node5</title>
<path fill="none" stroke="midnightblue" d="M55.03,-184.83C53.87,-165.3 55.08,-130.45 75.5,-112 98.48,-91.24 283.82,-77.43 391.92,-71.06"/>
<polygon fill="midnightblue" stroke="midnightblue" points="392.35,-74.54 402.13,-70.46 391.95,-67.55 392.35,-74.54"/>
</g>
<!-- Node7 -->
<g id="node7" class="node">
<title>Node7</title>
<g id="a_node7"><a xlink:href="obc__time__params_8h.html" target="_top" xlink:title="OBCTのCoreパラメタのオーバーライド用ヘッダー">
<polygon fill="white" stroke="black" points="84.5,-112.5 84.5,-142.5 224.5,-142.5 224.5,-112.5 84.5,-112.5"/>
<text text-anchor="start" x="92.5" y="-130.5" font-family="Helvetica,sans-Serif" font-size="10.00">src_user/Settings/System</text>
<text text-anchor="middle" x="154.5" y="-119.5" font-family="Helvetica,sans-Serif" font-size="10.00">/obc_time_params.h</text>
</a>
</g>
</g>
<!-- Node4&#45;&gt;Node7 -->
<g id="edge6" class="edge">
<title>Node4&#45;&gt;Node7</title>
<path fill="none" stroke="midnightblue" d="M76.33,-184.73C90.77,-174.35 110.53,-160.13 126.56,-148.6"/>
<polygon fill="midnightblue" stroke="midnightblue" points="128.96,-151.19 135.03,-142.5 124.87,-145.5 128.96,-151.19"/>
</g>
<!-- Node6 -->
<g id="node6" class="node">
<title>Node6</title>
<g id="a_node6"><a xlink:href="sils__define_8h.html" target="_top" xlink:title=" ">
<polygon fill="white" stroke="black" points="405,-0.5 405,-19.5 534,-19.5 534,-0.5 405,-0.5"/>
<text text-anchor="middle" x="469.5" y="-7.5" font-family="Helvetica,sans-Serif" font-size="10.00">../Settings/sils_define.h</text>
</a>
</g>
</g>
<!-- Node5&#45;&gt;Node6 -->
<g id="edge5" class="edge">
<title>Node5&#45;&gt;Node6</title>
<path fill="none" stroke="midnightblue" d="M469.5,-56.08C469.5,-49.01 469.5,-38.86 469.5,-29.99"/>
<polygon fill="midnightblue" stroke="midnightblue" points="473,-29.75 469.5,-19.75 466,-29.75 473,-29.75"/>
</g>
<!-- Node8&#45;&gt;Node3 -->
<g id="edge8" class="edge">
<title>Node8&#45;&gt;Node3</title>
<path fill="none" stroke="midnightblue" d="M607.69,-267.74C715.42,-260.58 929.98,-243.65 955.5,-221 994.56,-186.34 996.6,-118.52 995.04,-85.69"/>
<polygon fill="midnightblue" stroke="midnightblue" points="998.53,-85.4 994.39,-75.65 991.54,-85.85 998.53,-85.4"/>
</g>
<!-- Node8&#45;&gt;Node4 -->
<g id="edge9" class="edge">
<title>Node8&#45;&gt;Node4</title>
<path fill="none" stroke="midnightblue" d="M485.33,-265.6C384.91,-255.69 189.47,-235.37 121.5,-221 117.09,-220.07 112.55,-218.97 108.02,-217.77"/>
<polygon fill="midnightblue" stroke="midnightblue" points="108.74,-214.34 98.17,-215.03 106.86,-221.09 108.74,-214.34"/>
</g>
<!-- Node8&#45;&gt;Node5 -->
<g id="edge11" class="edge">
<title>Node8&#45;&gt;Node5</title>
<path fill="none" stroke="midnightblue" d="M510.51,-257.35C494.95,-249.22 478.31,-237.32 469.5,-221 445.85,-177.21 456.59,-115.68 464.22,-85.36"/>
<polygon fill="midnightblue" stroke="midnightblue" points="467.6,-86.26 466.82,-75.69 460.84,-84.44 467.6,-86.26"/>
</g>
<!-- Node9 -->
<g id="node9" class="node">
<title>Node9</title>
<g id="a_node9"><a xlink:href="command__definitions_8h.html" target="_top" xlink:title="コマンド定義">
<polygon fill="white" stroke="black" points="131,-185 131,-215 284,-215 284,-185 131,-185"/>
<text text-anchor="start" x="139" y="-203" font-family="Helvetica,sans-Serif" font-size="10.00">src_user/CmdTlm/command</text>
<text text-anchor="middle" x="207.5" y="-192" font-family="Helvetica,sans-Serif" font-size="10.00">_definitions.h</text>
</a>
</g>
</g>
<!-- Node8&#45;&gt;Node9 -->
<g id="edge10" class="edge">
<title>Node8&#45;&gt;Node9</title>
<path fill="none" stroke="midnightblue" d="M485.3,-259.84C433.99,-249.94 358.84,-235.12 293.5,-221 288.07,-219.83 282.45,-218.58 276.81,-217.32"/>
<polygon fill="midnightblue" stroke="midnightblue" points="277.19,-213.81 266.66,-215.02 275.64,-220.64 277.19,-213.81"/>
</g>
<!-- Node10 -->
<g id="node10" class="node">
<title>Node10</title>
<g id="a_node10"><a xlink:href="app__registry_8h.html" target="_top" xlink:title=" ">
<polygon fill="white" stroke="black" points="302.5,-185 302.5,-215 422.5,-215 422.5,-185 302.5,-185"/>
<text text-anchor="start" x="310.5" y="-203" font-family="Helvetica,sans-Serif" font-size="10.00">src_user/Applications</text>
<text text-anchor="middle" x="362.5" y="-192" font-family="Helvetica,sans-Serif" font-size="10.00">/app_registry.h</text>
</a>
</g>
</g>
<!-- Node8&#45;&gt;Node10 -->
<g id="edge12" class="edge">
<title>Node8&#45;&gt;Node10</title>
<path fill="none" stroke="midnightblue" d="M509.71,-257.4C480.62,-246.26 439.86,-230.64 408.6,-218.66"/>
<polygon fill="midnightblue" stroke="midnightblue" points="409.82,-215.38 399.23,-215.07 407.31,-221.92 409.82,-215.38"/>
</g>
<!-- Node11 -->
<g id="node11" class="node">
<title>Node11</title>
<g id="a_node11"><a xlink:href="common__tlm__cmd__packet__define_8h.html" target="_top" xlink:title="CTCP型の定義">
<polygon fill="white" stroke="black" points="798.5,-179.5 798.5,-220.5 946.5,-220.5 946.5,-179.5 798.5,-179.5"/>
<text text-anchor="start" x="806.5" y="-208.5" font-family="Helvetica,sans-Serif" font-size="10.00">src_user/Settings/CmdTlm</text>
<text text-anchor="start" x="806.5" y="-197.5" font-family="Helvetica,sans-Serif" font-size="10.00">/common_tlm_cmd_packet</text>
<text text-anchor="middle" x="872.5" y="-186.5" font-family="Helvetica,sans-Serif" font-size="10.00">_define.h</text>
</a>
</g>
</g>
<!-- Node8&#45;&gt;Node11 -->
<g id="edge13" class="edge">
<title>Node8&#45;&gt;Node11</title>
<path fill="none" stroke="midnightblue" d="M607.53,-259.37C654.44,-249.92 721.09,-236.22 788.38,-221.22"/>
<polygon fill="midnightblue" stroke="midnightblue" points="789.32,-224.6 798.32,-219 787.79,-217.77 789.32,-224.6"/>
</g>
<!-- Node13 -->
<g id="node13" class="node">
<title>Node13</title>
<g id="a_node13"><a xlink:href="common__tlm__cmd__packet__params_8h.html" target="_top" xlink:title="CTCP パラメタのオーバーライド用ヘッダー">
<polygon fill="white" stroke="black" points="632.5,-179.5 632.5,-220.5 780.5,-220.5 780.5,-179.5 632.5,-179.5"/>
<text text-anchor="start" x="640.5" y="-208.5" font-family="Helvetica,sans-Serif" font-size="10.00">src_user/Settings/CmdTlm</text>
<text text-anchor="start" x="640.5" y="-197.5" font-family="Helvetica,sans-Serif" font-size="10.00">/common_tlm_cmd_packet</text>
<text text-anchor="middle" x="706.5" y="-186.5" font-family="Helvetica,sans-Serif" font-size="10.00">_params.h</text>
</a>
</g>
</g>
<!-- Node8&#45;&gt;Node13 -->
<g id="edge17" class="edge">
<title>Node8&#45;&gt;Node13</title>
<path fill="none" stroke="midnightblue" d="M578.49,-257.4C599.76,-248.03 628.21,-235.5 652.89,-224.62"/>
<polygon fill="midnightblue" stroke="midnightblue" points="654.4,-227.78 662.14,-220.55 651.58,-221.38 654.4,-227.78"/>
</g>
<!-- Node14 -->
<g id="node14" class="node">
<title>Node14</title>
<g id="a_node14"><a xlink:href="block__command__table_8h.html" target="_top" xlink:title="BCTの定義, BCT周りの関数">
<polygon fill="white" stroke="black" points="478.5,-190.5 478.5,-209.5 614.5,-209.5 614.5,-190.5 478.5,-190.5"/>
<text text-anchor="middle" x="546.5" y="-197.5" font-family="Helvetica,sans-Serif" font-size="10.00">block_command_table.h</text>
</a>
</g>
</g>
<!-- Node8&#45;&gt;Node14 -->
<g id="edge19" class="edge">
<title>Node8&#45;&gt;Node14</title>
<path fill="none" stroke="midnightblue" d="M540.95,-257.23C539.55,-246.5 539.37,-231.69 540.44,-219.96"/>
<polygon fill="midnightblue" stroke="midnightblue" points="543.93,-220.28 541.83,-209.89 536.99,-219.32 543.93,-220.28"/>
</g>
<!-- Node12 -->
<g id="node12" class="node">
<title>Node12</title>
<g id="a_node12"><a xlink:href="_t_c_packet_8h.html" target="_top" xlink:title=" ">
<polygon fill="white" stroke="black" points="768,-112.5 768,-142.5 875,-142.5 875,-112.5 768,-112.5"/>
<text text-anchor="start" x="776" y="-130.5" font-family="Helvetica,sans-Serif" font-size="10.00">../../CmdTlm/Ccsds</text>
<text text-anchor="middle" x="821.5" y="-119.5" font-family="Helvetica,sans-Serif" font-size="10.00">/TCPacket.h</text>
</a>
</g>
</g>
<!-- Node11&#45;&gt;Node12 -->
<g id="edge14" class="edge">
<title>Node11&#45;&gt;Node12</title>
<path fill="none" stroke="midnightblue" d="M858.29,-179.36C851.95,-170.59 844.44,-160.21 837.86,-151.12"/>
<polygon fill="midnightblue" stroke="midnightblue" points="840.61,-148.94 831.91,-142.89 834.94,-153.05 840.61,-148.94"/>
</g>
<!-- Node12&#45;&gt;Node3 -->
<g id="edge15" class="edge">
<title>Node12&#45;&gt;Node3</title>
<path fill="none" stroke="midnightblue" d="M862.26,-112.4C891.72,-102.21 931.09,-88.59 959,-78.93"/>
<polygon fill="midnightblue" stroke="midnightblue" points="960.42,-82.15 968.72,-75.57 958.13,-75.53 960.42,-82.15"/>
</g>
<!-- Node12&#45;&gt;Node5 -->
<g id="edge16" class="edge">
<title>Node12&#45;&gt;Node5</title>
<path fill="none" stroke="midnightblue" d="M767.66,-117.4C703.54,-106.56 596.75,-88.51 529.88,-77.21"/>
<polygon fill="midnightblue" stroke="midnightblue" points="530.36,-73.74 519.91,-75.52 529.19,-80.64 530.36,-73.74"/>
</g>
<!-- Node13&#45;&gt;Node12 -->
<g id="edge18" class="edge">
<title>Node13&#45;&gt;Node12</title>
<path fill="none" stroke="midnightblue" d="M738.53,-179.36C754.42,-169.62 773.56,-157.89 789.45,-148.15"/>
<polygon fill="midnightblue" stroke="midnightblue" points="791.69,-150.88 798.39,-142.67 788.03,-144.91 791.69,-150.88"/>
</g>
<!-- Node14&#45;&gt;Node5 -->
<g id="edge20" class="edge">
<title>Node14&#45;&gt;Node5</title>
<path fill="none" stroke="midnightblue" d="M539.74,-190.15C531.61,-179.33 517.79,-160.32 507.5,-143 496.11,-123.83 484.93,-100.81 477.67,-85.16"/>
<polygon fill="midnightblue" stroke="midnightblue" points="480.67,-83.29 473.33,-75.65 474.3,-86.2 480.67,-83.29"/>
</g>
<!-- Node14&#45;&gt;Node8 -->
<g id="edge22" class="edge">
<title>Node14&#45;&gt;Node8</title>
<path fill="none" stroke="midnightblue" d="M551.17,-209.89C553.08,-219.2 553.67,-234.21 552.96,-247.09"/>
<polygon fill="midnightblue" stroke="midnightblue" points="549.46,-246.96 552.05,-257.23 556.43,-247.59 549.46,-246.96"/>
</g>
<!-- Node15 -->
<g id="node15" class="node">
<title>Node15</title>
<g id="a_node15"><a xlink:href="block__command__table__params_8h.html" target="_top" xlink:title="BCTのCoreTlmパラメタのオーバーライド用ヘッダー">
<polygon fill="white" stroke="black" points="517,-112.5 517,-142.5 698,-142.5 698,-112.5 517,-112.5"/>
<text text-anchor="start" x="525" y="-130.5" font-family="Helvetica,sans-Serif" font-size="10.00">src_user/Settings/CmdTlm</text>
<text text-anchor="middle" x="607.5" y="-119.5" font-family="Helvetica,sans-Serif" font-size="10.00">/block_command_table_params.h</text>
</a>
</g>
</g>
<!-- Node14&#45;&gt;Node15 -->
<g id="edge21" class="edge">
<title>Node14&#45;&gt;Node15</title>
<path fill="none" stroke="midnightblue" d="M553.98,-190.36C562.52,-180.49 576.8,-163.98 588.47,-150.49"/>
<polygon fill="midnightblue" stroke="midnightblue" points="591.42,-152.43 595.32,-142.58 586.13,-147.85 591.42,-152.43"/>
</g>
<!-- Node20&#45;&gt;Node4 -->
<g id="edge28" class="edge">
<title>Node20&#45;&gt;Node4</title>
<path fill="none" stroke="midnightblue" d="M490.78,-324.43C451.95,-314.52 398.98,-300.79 352.5,-288 249.43,-259.64 223.92,-251.61 121.5,-221 118.33,-220.05 115.08,-219.07 111.8,-218.08"/>
<polygon fill="midnightblue" stroke="midnightblue" points="112.52,-214.64 101.93,-215.08 110.48,-221.34 112.52,-214.64"/>
</g>
<!-- Node20&#45;&gt;Node8 -->
<g id="edge29" class="edge">
<title>Node20&#45;&gt;Node8</title>
<path fill="none" stroke="midnightblue" d="M546.5,-324.4C546.5,-316.64 546.5,-306.81 546.5,-297.86"/>
<polygon fill="midnightblue" stroke="midnightblue" points="550,-297.58 546.5,-287.58 543,-297.58 550,-297.58"/>
</g>
<!-- Node21&#45;&gt;Node3 -->
<g id="edge31" class="edge">
<title>Node21&#45;&gt;Node3</title>
<path fill="none" stroke="midnightblue" d="M1238.42,-257.44C1190.68,-220.32 1061.53,-119.9 1012.62,-81.87"/>
<polygon fill="midnightblue" stroke="midnightblue" points="1014.5,-78.9 1004.46,-75.52 1010.21,-84.43 1014.5,-78.9"/>
</g>
</g>
</svg>
