<?xml version="1.0" encoding="UTF-8" standalone="no"?>
<!DOCTYPE svg PUBLIC "-//W3C//DTD SVG 1.1//EN"
 "http://www.w3.org/Graphics/SVG/1.1/DTD/svg11.dtd">
<!-- Generated by graphviz version 2.43.0 (0)
 -->
<!-- Title: Cmd_AH_ACTIVATE_RULE Pages: 1 -->
<svg width="494pt" height="66pt"
 viewBox="0.00 0.00 494.00 66.00" xmlns="http://www.w3.org/2000/svg" xmlns:xlink="http://www.w3.org/1999/xlink">
<g id="graph0" class="graph" transform="scale(1 1) rotate(0) translate(4 62)">
<title>Cmd_AH_ACTIVATE_RULE</title>
<polygon fill="white" stroke="transparent" points="-4,4 -4,-62 490,-62 490,4 -4,4"/>
<!-- Node1 -->
<g id="node1" class="node">
<title>Node1</title>
<g id="a_node1"><a xlink:title=" ">
<polygon fill="#bfbfbf" stroke="black" points="0,-19.5 0,-38.5 141,-38.5 141,-19.5 0,-19.5"/>
<text text-anchor="middle" x="70.5" y="-26.5" font-family="Helvetica,sans-Serif" font-size="10.00">Cmd_AH_ACTIVATE_RULE</text>
</a>
</g>
</g>
<!-- Node2 -->
<g id="node2" class="node">
<title>Node2</title>
<g id="a_node2"><a xlink:href="anomaly__handler_8c.html#afaa346a3ecc03423bcb25f9ccd132708" target="_top" xlink:title=" ">
<polygon fill="white" stroke="black" points="188.5,-38.5 188.5,-57.5 288.5,-57.5 288.5,-38.5 188.5,-38.5"/>
<text text-anchor="middle" x="238.5" y="-45.5" font-family="Helvetica,sans-Serif" font-size="10.00">AH_activate_rule</text>
</a>
</g>
</g>
<!-- Node1&#45;&gt;Node2 -->
<g id="edge1" class="edge">
<title>Node1&#45;&gt;Node2</title>
<path fill="none" stroke="midnightblue" d="M141.42,-37C153.62,-38.4 166.2,-39.84 178.08,-41.2"/>
<polygon fill="midnightblue" stroke="midnightblue" points="177.98,-44.71 188.32,-42.37 178.78,-37.76 177.98,-44.71"/>
</g>
<!-- Node3 -->
<g id="node3" class="node">
<title>Node3</title>
<g id="a_node3"><a xlink:href="common__tlm__cmd__packet_8h.html#ad98f8912cc698e43db15c2bd8ea0c170" target="_top" xlink:title="先頭のパラメタのポインタを取得">
<polygon fill="white" stroke="black" points="177,-0.5 177,-19.5 300,-19.5 300,-0.5 177,-0.5"/>
<text text-anchor="middle" x="238.5" y="-7.5" font-family="Helvetica,sans-Serif" font-size="10.00">CCP_get_param_head</text>
</a>
</g>
</g>
<!-- Node1&#45;&gt;Node3 -->
<g id="edge2" class="edge">
<title>Node1&#45;&gt;Node3</title>
<path fill="none" stroke="midnightblue" d="M141.42,-21C149.8,-20.04 158.36,-19.06 166.75,-18.1"/>
<polygon fill="midnightblue" stroke="midnightblue" points="167.33,-21.55 176.87,-16.94 166.54,-14.6 167.33,-21.55"/>
</g>
<!-- Node4 -->
<g id="node4" class="node">
<title>Node4</title>
<g id="a_node4"><a xlink:href="_t_c_packet_8c.html#af3416877283ab315ad0ababce5afbfc8" target="_top" xlink:title="先頭のパラメタのポインタを取得">
<polygon fill="white" stroke="black" points="336,-0.5 336,-19.5 486,-19.5 486,-0.5 336,-0.5"/>
<text text-anchor="middle" x="411" y="-7.5" font-family="Helvetica,sans-Serif" font-size="10.00">TCP_CMD_get_param_head</text>
</a>
</g>
</g>
<!-- Node3&#45;&gt;Node4 -->
<g id="edge3" class="edge">
<title>Node3&#45;&gt;Node4</title>
<path fill="none" stroke="midnightblue" d="M300.09,-10C308.42,-10 317.08,-10 325.74,-10"/>
<polygon fill="midnightblue" stroke="midnightblue" points="325.87,-13.5 335.87,-10 325.87,-6.5 325.87,-13.5"/>
</g>
</g>
</svg>
