<?xml version="1.0" encoding="UTF-8" standalone="no"?>
<!DOCTYPE svg PUBLIC "-//W3C//DTD SVG 1.1//EN"
 "http://www.w3.org/Graphics/SVG/1.1/DTD/svg11.dtd">
<!-- Generated by graphviz version 2.43.0 (0)
 -->
<!-- Title: AH_print_ah_status_ Pages: 1 -->
<svg width="342pt" height="47pt"
 viewBox="0.00 0.00 342.00 47.00" xmlns="http://www.w3.org/2000/svg" xmlns:xlink="http://www.w3.org/1999/xlink">
<g id="graph0" class="graph" transform="scale(1 1) rotate(0) translate(4 43)">
<title>AH_print_ah_status_</title>
<polygon fill="white" stroke="transparent" points="-4,4 -4,-43 338,-43 338,4 -4,4"/>
<!-- Node1 -->
<g id="node1" class="node">
<title>Node1</title>
<g id="a_node1"><a xlink:title=" ">
<polygon fill="#bfbfbf" stroke="black" points="0,-19.5 0,-38.5 116,-38.5 116,-19.5 0,-19.5"/>
<text text-anchor="middle" x="58" y="-26.5" font-family="Helvetica,sans-Serif" font-size="10.00">AH_print_ah_status_</text>
</a>
</g>
</g>
<!-- Node2 -->
<g id="node2" class="node">
<title>Node2</title>
<g id="a_node2"><a xlink:href="src__core_2_library_2print_8c.html#a4bc499fc724de87725ee7dc60ed1d106" target="_top" xlink:title=" ">
<polygon fill="white" stroke="black" points="291,-19.5 291,-38.5 334,-38.5 334,-19.5 291,-19.5"/>
<text text-anchor="middle" x="312.5" y="-26.5" font-family="Helvetica,sans-Serif" font-size="10.00">Printf</text>
</a>
</g>
</g>
<!-- Node1&#45;&gt;Node2 -->
<g id="edge1" class="edge">
<title>Node1&#45;&gt;Node2</title>
<path fill="none" stroke="midnightblue" d="M116.3,-29C167.32,-29 240.02,-29 280.77,-29"/>
<polygon fill="midnightblue" stroke="midnightblue" points="280.89,-32.5 290.89,-29 280.89,-25.5 280.89,-32.5"/>
</g>
<!-- Node3 -->
<g id="node3" class="node">
<title>Node3</title>
<g id="a_node3"><a xlink:href="vt100_8c.html#a163b2dc2ab211cce8bd25edb61369302" target="_top" xlink:title=" ">
<polygon fill="white" stroke="black" points="152,-0.5 152,-19.5 255,-19.5 255,-0.5 152,-0.5"/>
<text text-anchor="middle" x="203.5" y="-7.5" font-family="Helvetica,sans-Serif" font-size="10.00">VT100_erase_line</text>
</a>
</g>
</g>
<!-- Node1&#45;&gt;Node3 -->
<g id="edge2" class="edge">
<title>Node1&#45;&gt;Node3</title>
<path fill="none" stroke="midnightblue" d="M116.13,-21.44C124.46,-20.33 133.07,-19.19 141.48,-18.08"/>
<polygon fill="midnightblue" stroke="midnightblue" points="142.15,-21.52 151.61,-16.74 141.23,-14.58 142.15,-21.52"/>
</g>
<!-- Node3&#45;&gt;Node2 -->
<g id="edge3" class="edge">
<title>Node3&#45;&gt;Node2</title>
<path fill="none" stroke="midnightblue" d="M255.18,-19C263.97,-20.56 272.86,-22.14 280.9,-23.57"/>
<polygon fill="midnightblue" stroke="midnightblue" points="280.44,-27.04 290.9,-25.34 281.66,-20.15 280.44,-27.04"/>
</g>
</g>
</svg>
