<?xml version="1.0" encoding="UTF-8" standalone="no"?>
<!DOCTYPE svg PUBLIC "-//W3C//DTD SVG 1.1//EN"
 "http://www.w3.org/Graphics/SVG/1.1/DTD/svg11.dtd">
<!-- Generated by graphviz version 2.43.0 (0)
 -->
<!-- Title: src/src_user/Drivers/Aocs/aobc_telemetry_buffer.h Pages: 1 -->
<svg width="1398pt" height="541pt"
 viewBox="0.00 0.00 1397.50 541.00" xmlns="http://www.w3.org/2000/svg" xmlns:xlink="http://www.w3.org/1999/xlink">
<g id="graph0" class="graph" transform="scale(1 1) rotate(0) translate(4 537)">
<title>src/src_user/Drivers/Aocs/aobc_telemetry_buffer.h</title>
<polygon fill="white" stroke="transparent" points="-4,4 -4,-537 1393.5,-537 1393.5,4 -4,4"/>
<!-- Node1 -->
<g id="node1" class="node">
<title>Node1</title>
<g id="a_node1"><a xlink:title="テレメトリバッファー（テレメ中継）">
<polygon fill="#bfbfbf" stroke="black" points="543.5,-491.5 543.5,-532.5 665.5,-532.5 665.5,-491.5 543.5,-491.5"/>
<text text-anchor="start" x="551.5" y="-520.5" font-family="Helvetica,sans-Serif" font-size="10.00">src/src_user/Drivers</text>
<text text-anchor="start" x="551.5" y="-509.5" font-family="Helvetica,sans-Serif" font-size="10.00">/Aocs/aobc_telemetry</text>
<text text-anchor="middle" x="604.5" y="-498.5" font-family="Helvetica,sans-Serif" font-size="10.00">_buffer.h</text>
</a>
</g>
</g>
<!-- Node2 -->
<g id="node2" class="node">
<title>Node2</title>
<g id="a_node2"><a xlink:href="aobc__telemetry__definitions_8h.html" target="_top" xlink:title="テレメトリ定義">
<polygon fill="white" stroke="black" points="166.5,-430 166.5,-449 330.5,-449 330.5,-430 166.5,-430"/>
<text text-anchor="middle" x="248.5" y="-437" font-family="Helvetica,sans-Serif" font-size="10.00">./aobc_telemetry_definitions.h</text>
</a>
</g>
</g>
<!-- Node1&#45;&gt;Node2 -->
<g id="edge1" class="edge">
<title>Node1&#45;&gt;Node2</title>
<path fill="none" stroke="midnightblue" d="M543.3,-498.88C475.18,-485.39 366.19,-463.81 301.55,-451.01"/>
<polygon fill="midnightblue" stroke="midnightblue" points="302.06,-447.54 291.57,-449.03 300.7,-454.41 302.06,-447.54"/>
</g>
<!-- Node3 -->
<g id="node3" class="node">
<title>Node3</title>
<g id="a_node3"><a xlink:href="driver__super_8h.html" target="_top" xlink:title="各制御センサ・アクチュエータ等とのインターフェースドライバ群のスーパークラス">
<polygon fill="white" stroke="black" points="348.5,-424.5 348.5,-454.5 474.5,-454.5 474.5,-424.5 348.5,-424.5"/>
<text text-anchor="start" x="356.5" y="-442.5" font-family="Helvetica,sans-Serif" font-size="10.00">src_core/Drivers/Super</text>
<text text-anchor="middle" x="411.5" y="-431.5" font-family="Helvetica,sans-Serif" font-size="10.00">/driver_super.h</text>
</a>
</g>
</g>
<!-- Node1&#45;&gt;Node3 -->
<g id="edge2" class="edge">
<title>Node1&#45;&gt;Node3</title>
<path fill="none" stroke="midnightblue" d="M551,-491.46C522.35,-480.99 487.36,-468.21 459.59,-458.07"/>
<polygon fill="midnightblue" stroke="midnightblue" points="460.69,-454.74 450.09,-454.6 458.28,-461.32 460.69,-454.74"/>
</g>
<!-- Node22 -->
<g id="node22" class="node">
<title>Node22</title>
<g id="a_node22"><a xlink:href="common__tlm__packet_8h.html" target="_top" xlink:title="CTP 関連基本関数の宣言">
<polygon fill="white" stroke="black" points="863,-290.5 863,-320.5 1010,-320.5 1010,-290.5 863,-290.5"/>
<text text-anchor="start" x="871" y="-308.5" font-family="Helvetica,sans-Serif" font-size="10.00">src_core/TlmCmd/common</text>
<text text-anchor="middle" x="936.5" y="-297.5" font-family="Helvetica,sans-Serif" font-size="10.00">_tlm_packet.h</text>
</a>
</g>
</g>
<!-- Node1&#45;&gt;Node22 -->
<g id="edge28" class="edge">
<title>Node1&#45;&gt;Node22</title>
<path fill="none" stroke="midnightblue" d="M636.33,-491.39C699.76,-452.33 841.22,-365.19 904.66,-326.11"/>
<polygon fill="midnightblue" stroke="midnightblue" points="906.75,-328.93 913.43,-320.71 903.08,-322.97 906.75,-328.93"/>
</g>
<!-- Node25 -->
<g id="node25" class="node">
<title>Node25</title>
<g id="a_node25"><a xlink:href="telemetry__frame_8h.html" target="_top" xlink:title="テレメトリの登録，テレメトリ関連処理">
<polygon fill="white" stroke="black" points="912.5,-357.5 912.5,-387.5 1064.5,-387.5 1064.5,-357.5 912.5,-357.5"/>
<text text-anchor="start" x="920.5" y="-375.5" font-family="Helvetica,sans-Serif" font-size="10.00">src_core/TlmCmd/telemetry</text>
<text text-anchor="middle" x="988.5" y="-364.5" font-family="Helvetica,sans-Serif" font-size="10.00">_frame.h</text>
</a>
</g>
</g>
<!-- Node1&#45;&gt;Node25 -->
<g id="edge35" class="edge">
<title>Node1&#45;&gt;Node25</title>
<path fill="none" stroke="midnightblue" d="M665.87,-497.39C707.75,-487.4 764.17,-472.55 812.5,-455 862.4,-436.88 917.6,-410.16 952.64,-392.31"/>
<polygon fill="midnightblue" stroke="midnightblue" points="954.67,-395.21 961.97,-387.53 951.47,-388.98 954.67,-395.21"/>
</g>
<!-- Node4 -->
<g id="node4" class="node">
<title>Node4</title>
<g id="a_node4"><a xlink:href="if__list_8h.html" target="_top" xlink:title=" ">
<polygon fill="white" stroke="black" points="214.5,-218 214.5,-248 322.5,-248 322.5,-218 214.5,-218"/>
<text text-anchor="start" x="222.5" y="-236" font-family="Helvetica,sans-Serif" font-size="10.00">src_user/IfWrapper</text>
<text text-anchor="middle" x="268.5" y="-225" font-family="Helvetica,sans-Serif" font-size="10.00">/if_list.h</text>
</a>
</g>
</g>
<!-- Node3&#45;&gt;Node4 -->
<g id="edge3" class="edge">
<title>Node3&#45;&gt;Node4</title>
<path fill="none" stroke="midnightblue" d="M410.62,-424.41C408.11,-395.71 398.65,-329.81 363.5,-290 349.58,-274.23 330.11,-261.69 312.42,-252.5"/>
<polygon fill="midnightblue" stroke="midnightblue" points="313.89,-249.32 303.37,-248 310.77,-255.59 313.89,-249.32"/>
</g>
<!-- Node6 -->
<g id="node6" class="node">
<title>Node6</title>
<g id="a_node6"><a xlink:href="stdint_8h.html" target="_top" xlink:title="C89 環境用 stdint.h">
<polygon fill="white" stroke="black" points="409,-78.5 409,-97.5 462,-97.5 462,-78.5 409,-78.5"/>
<text text-anchor="middle" x="435.5" y="-85.5" font-family="Helvetica,sans-Serif" font-size="10.00">stdint.h</text>
</a>
</g>
</g>
<!-- Node3&#45;&gt;Node6 -->
<g id="edge9" class="edge">
<title>Node3&#45;&gt;Node6</title>
<path fill="none" stroke="midnightblue" d="M348.39,-425.12C320.01,-417.22 287.01,-405.3 260.5,-388 219.53,-361.26 186.5,-355.43 186.5,-306.5 186.5,-306.5 186.5,-306.5 186.5,-232 186.5,-192.42 177.85,-173.32 205.5,-145 232.12,-117.73 340.88,-100.58 398.8,-93.2"/>
<polygon fill="midnightblue" stroke="midnightblue" points="399.49,-96.64 408.99,-91.94 398.63,-89.7 399.49,-96.64"/>
</g>
<!-- Node9 -->
<g id="node9" class="node">
<title>Node9</title>
<g id="a_node9"><a xlink:href="endian_8h.html" target="_top" xlink:title="エンディアンに関するものを定義する">
<polygon fill="white" stroke="black" points="270,-363 270,-382 383,-382 383,-363 270,-363"/>
<text text-anchor="middle" x="326.5" y="-370" font-family="Helvetica,sans-Serif" font-size="10.00">../../Library/endian.h</text>
</a>
</g>
</g>
<!-- Node3&#45;&gt;Node9 -->
<g id="edge10" class="edge">
<title>Node3&#45;&gt;Node9</title>
<path fill="none" stroke="midnightblue" d="M393.06,-424.4C379.15,-413.76 360.11,-399.2 345.96,-388.38"/>
<polygon fill="midnightblue" stroke="midnightblue" points="347.94,-385.49 337.87,-382.19 343.69,-391.05 347.94,-385.49"/>
</g>
<!-- Node11 -->
<g id="node11" class="node">
<title>Node11</title>
<g id="a_node11"><a xlink:href="time__manager_8h.html" target="_top" xlink:title="OBC時刻のカウントアップと，各種衛星時刻関連処理">
<polygon fill="white" stroke="black" points="493.5,-357.5 493.5,-387.5 635.5,-387.5 635.5,-357.5 493.5,-357.5"/>
<text text-anchor="start" x="501.5" y="-375.5" font-family="Helvetica,sans-Serif" font-size="10.00">../../System/TimeManager</text>
<text text-anchor="middle" x="564.5" y="-364.5" font-family="Helvetica,sans-Serif" font-size="10.00">/time_manager.h</text>
</a>
</g>
</g>
<!-- Node3&#45;&gt;Node11 -->
<g id="edge12" class="edge">
<title>Node3&#45;&gt;Node11</title>
<path fill="none" stroke="midnightblue" d="M444.7,-424.4C467.35,-414.77 497.57,-401.94 521.98,-391.56"/>
<polygon fill="midnightblue" stroke="midnightblue" points="523.53,-394.71 531.37,-387.58 520.79,-388.27 523.53,-394.71"/>
</g>
<!-- Node21 -->
<g id="node21" class="node">
<title>Node21</title>
<g id="a_node21"><a xlink:href="driver__super__params_8h.html" target="_top" xlink:title="DriverSuperパラメタのオーバーライド用ヘッダー">
<polygon fill="white" stroke="black" points="0,-357.5 0,-387.5 159,-387.5 159,-357.5 0,-357.5"/>
<text text-anchor="start" x="8" y="-375.5" font-family="Helvetica,sans-Serif" font-size="10.00">src_user/Settings/Driver</text>
<text text-anchor="middle" x="79.5" y="-364.5" font-family="Helvetica,sans-Serif" font-size="10.00">Super/driver_super_params.h</text>
</a>
</g>
</g>
<!-- Node3&#45;&gt;Node21 -->
<g id="edge27" class="edge">
<title>Node3&#45;&gt;Node21</title>
<path fill="none" stroke="midnightblue" d="M348.29,-425.74C345.32,-425.15 342.38,-424.57 339.5,-424 280.3,-412.29 213.46,-399.31 162.37,-389.45"/>
<polygon fill="midnightblue" stroke="midnightblue" points="162.86,-385.97 152.37,-387.52 161.53,-392.85 162.86,-385.97"/>
</g>
<!-- Node5 -->
<g id="node5" class="node">
<title>Node5</title>
<g id="a_node5"><a xlink:href="ccsds_8h.html" target="_top" xlink:title="CCSDS通信ラッパーのクラスです。(MOBC用 バックグラウンド取り込みVer)">
<polygon fill="white" stroke="black" points="214.5,-145.5 214.5,-175.5 322.5,-175.5 322.5,-145.5 214.5,-145.5"/>
<text text-anchor="start" x="222.5" y="-163.5" font-family="Helvetica,sans-Serif" font-size="10.00">src_core/IfWrapper</text>
<text text-anchor="middle" x="268.5" y="-152.5" font-family="Helvetica,sans-Serif" font-size="10.00">/ccsds.h</text>
</a>
</g>
</g>
<!-- Node4&#45;&gt;Node5 -->
<g id="edge4" class="edge">
<title>Node4&#45;&gt;Node5</title>
<path fill="none" stroke="midnightblue" d="M268.5,-217.73C268.5,-208.66 268.5,-196.66 268.5,-186.08"/>
<polygon fill="midnightblue" stroke="midnightblue" points="272,-185.75 268.5,-175.75 265,-185.75 272,-185.75"/>
</g>
<!-- Node8 -->
<g id="node8" class="node">
<title>Node8</title>
<g id="a_node8"><a xlink:href="uart_8h.html" target="_top" xlink:title="UART通信ラッパーのクラスです。">
<polygon fill="white" stroke="black" points="340.5,-145.5 340.5,-175.5 448.5,-175.5 448.5,-145.5 340.5,-145.5"/>
<text text-anchor="start" x="348.5" y="-163.5" font-family="Helvetica,sans-Serif" font-size="10.00">src_core/IfWrapper</text>
<text text-anchor="middle" x="394.5" y="-152.5" font-family="Helvetica,sans-Serif" font-size="10.00">/uart.h</text>
</a>
</g>
</g>
<!-- Node4&#45;&gt;Node8 -->
<g id="edge7" class="edge">
<title>Node4&#45;&gt;Node8</title>
<path fill="none" stroke="midnightblue" d="M293.7,-217.9C312.84,-207.19 339.37,-192.35 360.41,-180.57"/>
<polygon fill="midnightblue" stroke="midnightblue" points="362.33,-183.51 369.35,-175.57 358.91,-177.4 362.33,-183.51"/>
</g>
<!-- Node5&#45;&gt;Node6 -->
<g id="edge5" class="edge">
<title>Node5&#45;&gt;Node6</title>
<path fill="none" stroke="midnightblue" d="M301.89,-145.4C332.34,-132.55 376.88,-113.74 406.03,-101.44"/>
<polygon fill="midnightblue" stroke="midnightblue" points="407.43,-104.65 415.29,-97.53 404.71,-98.2 407.43,-104.65"/>
</g>
<!-- Node7 -->
<g id="node7" class="node">
<title>Node7</title>
<g id="a_node7"><a xlink:title=" ">
<polygon fill="white" stroke="#bfbfbf" points="373,-0.5 373,-30.5 498,-30.5 498,-0.5 373,-0.5"/>
<text text-anchor="start" x="381" y="-18.5" font-family="Helvetica,sans-Serif" font-size="10.00">src_user/Library/stdint</text>
<text text-anchor="middle" x="435.5" y="-7.5" font-family="Helvetica,sans-Serif" font-size="10.00">_impl.h</text>
</a>
</g>
</g>
<!-- Node6&#45;&gt;Node7 -->
<g id="edge6" class="edge">
<title>Node6&#45;&gt;Node7</title>
<path fill="none" stroke="midnightblue" d="M435.5,-78.36C435.5,-69.05 435.5,-53.83 435.5,-40.81"/>
<polygon fill="midnightblue" stroke="midnightblue" points="439,-40.58 435.5,-30.58 432,-40.58 439,-40.58"/>
</g>
<!-- Node8&#45;&gt;Node6 -->
<g id="edge8" class="edge">
<title>Node8&#45;&gt;Node6</title>
<path fill="none" stroke="midnightblue" d="M402.8,-145.23C409.23,-134.17 418.19,-118.77 425.1,-106.88"/>
<polygon fill="midnightblue" stroke="midnightblue" points="428.33,-108.3 430.33,-97.89 422.28,-104.78 428.33,-108.3"/>
</g>
<!-- Node10 -->
<g id="node10" class="node">
<title>Node10</title>
<g id="a_node10"><a xlink:title=" ">
<polygon fill="white" stroke="#bfbfbf" points="298.5,-296 298.5,-315 354.5,-315 354.5,-296 298.5,-296"/>
<text text-anchor="middle" x="326.5" y="-303" font-family="Helvetica,sans-Serif" font-size="10.00">stddef.h</text>
</a>
</g>
</g>
<!-- Node9&#45;&gt;Node10 -->
<g id="edge11" class="edge">
<title>Node9&#45;&gt;Node10</title>
<path fill="none" stroke="midnightblue" d="M326.5,-362.73C326.5,-353.18 326.5,-337.62 326.5,-325.28"/>
<polygon fill="midnightblue" stroke="midnightblue" points="330,-325.13 326.5,-315.13 323,-325.13 330,-325.13"/>
</g>
<!-- Node12 -->
<g id="node12" class="node">
<title>Node12</title>
<g id="a_node12"><a xlink:href="obc__time_8h.html" target="_top" xlink:title="OBCの時刻情報の定義と演算">
<polygon fill="white" stroke="black" points="529,-223.5 529,-242.5 600,-242.5 600,-223.5 529,-223.5"/>
<text text-anchor="middle" x="564.5" y="-230.5" font-family="Helvetica,sans-Serif" font-size="10.00">obc_time.h</text>
</a>
</g>
</g>
<!-- Node11&#45;&gt;Node12 -->
<g id="edge13" class="edge">
<title>Node11&#45;&gt;Node12</title>
<path fill="none" stroke="midnightblue" d="M564.5,-357.3C564.5,-332.34 564.5,-280.58 564.5,-252.72"/>
<polygon fill="midnightblue" stroke="midnightblue" points="568,-252.7 564.5,-242.7 561,-252.7 568,-252.7"/>
</g>
<!-- Node14 -->
<g id="node14" class="node">
<title>Node14</title>
<g id="a_node14"><a xlink:href="common__cmd__packet_8h.html" target="_top" xlink:title="CCP 関連基本関数の宣言">
<polygon fill="white" stroke="black" points="633.5,-290.5 633.5,-320.5 755.5,-320.5 755.5,-290.5 633.5,-290.5"/>
<text text-anchor="start" x="641.5" y="-308.5" font-family="Helvetica,sans-Serif" font-size="10.00">../../TlmCmd/common</text>
<text text-anchor="middle" x="694.5" y="-297.5" font-family="Helvetica,sans-Serif" font-size="10.00">_cmd_packet.h</text>
</a>
</g>
</g>
<!-- Node11&#45;&gt;Node14 -->
<g id="edge16" class="edge">
<title>Node11&#45;&gt;Node14</title>
<path fill="none" stroke="midnightblue" d="M592.71,-357.4C611.62,-347.94 636.72,-335.39 657.27,-325.12"/>
<polygon fill="midnightblue" stroke="midnightblue" points="658.97,-328.18 666.35,-320.58 655.84,-321.92 658.97,-328.18"/>
</g>
<!-- Node12&#45;&gt;Node6 -->
<g id="edge14" class="edge">
<title>Node12&#45;&gt;Node6</title>
<path fill="none" stroke="midnightblue" d="M551.88,-223.44C537.31,-213.2 513.1,-195.03 495.5,-176 475.22,-154.08 456.48,-124.87 445.51,-106.49"/>
<polygon fill="midnightblue" stroke="midnightblue" points="448.46,-104.61 440.39,-97.74 442.42,-108.14 448.46,-104.61"/>
</g>
<!-- Node13 -->
<g id="node13" class="node">
<title>Node13</title>
<g id="a_node13"><a xlink:href="obc__time__params_8h.html" target="_top" xlink:title="OBCTのCoreパラメタのオーバーライド用ヘッダー">
<polygon fill="white" stroke="black" points="504.5,-145.5 504.5,-175.5 644.5,-175.5 644.5,-145.5 504.5,-145.5"/>
<text text-anchor="start" x="512.5" y="-163.5" font-family="Helvetica,sans-Serif" font-size="10.00">src_user/Settings/System</text>
<text text-anchor="middle" x="574.5" y="-152.5" font-family="Helvetica,sans-Serif" font-size="10.00">/obc_time_params.h</text>
</a>
</g>
</g>
<!-- Node12&#45;&gt;Node13 -->
<g id="edge15" class="edge">
<title>Node12&#45;&gt;Node13</title>
<path fill="none" stroke="midnightblue" d="M565.73,-223.36C567.05,-214.05 569.21,-198.83 571.05,-185.81"/>
<polygon fill="midnightblue" stroke="midnightblue" points="574.56,-185.97 572.5,-175.58 567.63,-184.99 574.56,-185.97"/>
</g>
<!-- Node14&#45;&gt;Node12 -->
<g id="edge17" class="edge">
<title>Node14&#45;&gt;Node12</title>
<path fill="none" stroke="midnightblue" d="M668.51,-290.4C645.42,-277.89 611.93,-259.72 589.24,-247.42"/>
<polygon fill="midnightblue" stroke="midnightblue" points="590.69,-244.22 580.24,-242.53 587.36,-250.38 590.69,-244.22"/>
</g>
<!-- Node15 -->
<g id="node15" class="node">
<title>Node15</title>
<g id="a_node15"><a xlink:href="command__definitions_8h.html" target="_top" xlink:title="コマンド定義">
<polygon fill="white" stroke="black" points="618,-218 618,-248 771,-248 771,-218 618,-218"/>
<text text-anchor="start" x="626" y="-236" font-family="Helvetica,sans-Serif" font-size="10.00">src_user/TlmCmd/command</text>
<text text-anchor="middle" x="694.5" y="-225" font-family="Helvetica,sans-Serif" font-size="10.00">_definitions.h</text>
</a>
</g>
</g>
<!-- Node14&#45;&gt;Node15 -->
<g id="edge18" class="edge">
<title>Node14&#45;&gt;Node15</title>
<path fill="none" stroke="midnightblue" d="M694.5,-290.23C694.5,-281.16 694.5,-269.16 694.5,-258.58"/>
<polygon fill="midnightblue" stroke="midnightblue" points="698,-258.25 694.5,-248.25 691,-258.25 698,-258.25"/>
</g>
<!-- Node16 -->
<g id="node16" class="node">
<title>Node16</title>
<g id="a_node16"><a xlink:href="common__cmd__packet__define_8h.html" target="_top" xlink:title="CCP 型の定義">
<polygon fill="white" stroke="black" points="827.5,-218 827.5,-248 997.5,-248 997.5,-218 827.5,-218"/>
<text text-anchor="start" x="835.5" y="-236" font-family="Helvetica,sans-Serif" font-size="10.00">src_user/Settings/TlmCmd</text>
<text text-anchor="middle" x="912.5" y="-225" font-family="Helvetica,sans-Serif" font-size="10.00">/common_cmd_packet_define.h</text>
</a>
</g>
</g>
<!-- Node14&#45;&gt;Node16 -->
<g id="edge19" class="edge">
<title>Node14&#45;&gt;Node16</title>
<path fill="none" stroke="midnightblue" d="M737.83,-290.49C772.71,-279.21 821.89,-263.3 859.18,-251.24"/>
<polygon fill="midnightblue" stroke="midnightblue" points="860.44,-254.51 868.88,-248.11 858.29,-247.85 860.44,-254.51"/>
</g>
<!-- Node19 -->
<g id="node19" class="node">
<title>Node19</title>
<g id="a_node19"><a xlink:href="apid__define_8h.html" target="_top" xlink:title="CCSDS の APID を定義する">
<polygon fill="white" stroke="black" points="796,-151 796,-170 915,-170 915,-151 796,-151"/>
<text text-anchor="middle" x="855.5" y="-158" font-family="Helvetica,sans-Serif" font-size="10.00">./Ccsds/apid_define.h</text>
</a>
</g>
</g>
<!-- Node14&#45;&gt;Node19 -->
<g id="edge25" class="edge">
<title>Node14&#45;&gt;Node19</title>
<path fill="none" stroke="midnightblue" d="M724.49,-290.3C741.86,-281.27 763.56,-268.56 780.5,-254 794.48,-241.98 825.37,-201.82 842.84,-178.56"/>
<polygon fill="midnightblue" stroke="midnightblue" points="845.83,-180.4 849.01,-170.29 840.22,-176.21 845.83,-180.4"/>
</g>
<!-- Node20 -->
<g id="node20" class="node">
<title>Node20</title>
<g id="a_node20"><a xlink:href="timeline__command__dispatcher__define_8h.html" target="_top" xlink:title="timeline command dispatcher の各種定義">
<polygon fill="white" stroke="black" points="340.5,-212.5 340.5,-253.5 510.5,-253.5 510.5,-212.5 340.5,-212.5"/>
<text text-anchor="start" x="348.5" y="-241.5" font-family="Helvetica,sans-Serif" font-size="10.00">src_user/Settings/Applications</text>
<text text-anchor="start" x="348.5" y="-230.5" font-family="Helvetica,sans-Serif" font-size="10.00">/timeline_command_dispatcher</text>
<text text-anchor="middle" x="425.5" y="-219.5" font-family="Helvetica,sans-Serif" font-size="10.00">_define.h</text>
</a>
</g>
</g>
<!-- Node14&#45;&gt;Node20 -->
<g id="edge26" class="edge">
<title>Node14&#45;&gt;Node20</title>
<path fill="none" stroke="midnightblue" d="M641.03,-290.49C603.58,-280.67 552.75,-267.35 509.87,-256.11"/>
<polygon fill="midnightblue" stroke="midnightblue" points="510.56,-252.67 500,-253.53 508.79,-259.45 510.56,-252.67"/>
</g>
<!-- Node17 -->
<g id="node17" class="node">
<title>Node17</title>
<g id="a_node17"><a xlink:href="space__packet__typedef_8h.html" target="_top" xlink:title="SpacePacket 類 と CommonTlmCmdPacket 類が相互参照するのを回避するためのヘッダ">
<polygon fill="white" stroke="black" points="933,-145.5 933,-175.5 1070,-175.5 1070,-145.5 933,-145.5"/>
<text text-anchor="start" x="941" y="-163.5" font-family="Helvetica,sans-Serif" font-size="10.00">src_core/TlmCmd/Ccsds</text>
<text text-anchor="middle" x="1001.5" y="-152.5" font-family="Helvetica,sans-Serif" font-size="10.00">/space_packet_typedef.h</text>
</a>
</g>
</g>
<!-- Node16&#45;&gt;Node17 -->
<g id="edge20" class="edge">
<title>Node16&#45;&gt;Node17</title>
<path fill="none" stroke="midnightblue" d="M930.51,-217.73C943.5,-207.44 961.23,-193.4 975.72,-181.92"/>
<polygon fill="midnightblue" stroke="midnightblue" points="978.15,-184.46 983.82,-175.5 973.81,-178.97 978.15,-184.46"/>
</g>
<!-- Node16&#45;&gt;Node19 -->
<g id="edge23" class="edge">
<title>Node16&#45;&gt;Node19</title>
<path fill="none" stroke="midnightblue" d="M900.97,-217.73C891.75,-206.34 878.82,-190.34 869.1,-178.32"/>
<polygon fill="midnightblue" stroke="midnightblue" points="871.7,-175.97 862.69,-170.39 866.26,-180.37 871.7,-175.97"/>
</g>
<!-- Node17&#45;&gt;Node6 -->
<g id="edge21" class="edge">
<title>Node17&#45;&gt;Node6</title>
<path fill="none" stroke="midnightblue" d="M932.69,-146.29C929.93,-145.84 927.19,-145.41 924.5,-145 756.31,-119.57 554.02,-99.83 472.35,-92.3"/>
<polygon fill="midnightblue" stroke="midnightblue" points="472.37,-88.79 462.09,-91.37 471.73,-95.76 472.37,-88.79"/>
</g>
<!-- Node18 -->
<g id="node18" class="node">
<title>Node18</title>
<g id="a_node18"><a xlink:href="space__packet__typedef__params_8h.html" target="_top" xlink:title="SpacePacketの パケット型に関するユーザー設定">
<polygon fill="white" stroke="black" points="921.5,-67.5 921.5,-108.5 1081.5,-108.5 1081.5,-67.5 921.5,-67.5"/>
<text text-anchor="start" x="929.5" y="-96.5" font-family="Helvetica,sans-Serif" font-size="10.00">src_user/Settings/TlmCmd</text>
<text text-anchor="start" x="929.5" y="-85.5" font-family="Helvetica,sans-Serif" font-size="10.00">/Ccsds/space_packet_typedef</text>
<text text-anchor="middle" x="1001.5" y="-74.5" font-family="Helvetica,sans-Serif" font-size="10.00">_params.h</text>
</a>
</g>
</g>
<!-- Node17&#45;&gt;Node18 -->
<g id="edge22" class="edge">
<title>Node17&#45;&gt;Node18</title>
<path fill="none" stroke="midnightblue" d="M1001.5,-145.23C1001.5,-137.57 1001.5,-127.84 1001.5,-118.63"/>
<polygon fill="midnightblue" stroke="midnightblue" points="1005,-118.59 1001.5,-108.59 998,-118.59 1005,-118.59"/>
</g>
<!-- Node19&#45;&gt;Node6 -->
<g id="edge24" class="edge">
<title>Node19&#45;&gt;Node6</title>
<path fill="none" stroke="midnightblue" d="M804.84,-151C719.09,-136.6 547.36,-107.78 472.18,-95.16"/>
<polygon fill="midnightblue" stroke="midnightblue" points="472.67,-91.69 462.23,-93.49 471.51,-98.59 472.67,-91.69"/>
</g>
<!-- Node22&#45;&gt;Node12 -->
<g id="edge29" class="edge">
<title>Node22&#45;&gt;Node12</title>
<path fill="none" stroke="midnightblue" d="M862.88,-298.74C795.8,-292.19 694.51,-278.97 609.5,-254 603.15,-252.13 596.52,-249.57 590.37,-246.89"/>
<polygon fill="midnightblue" stroke="midnightblue" points="591.74,-243.67 581.19,-242.69 588.83,-250.04 591.74,-243.67"/>
</g>
<!-- Node22&#45;&gt;Node19 -->
<g id="edge34" class="edge">
<title>Node22&#45;&gt;Node19</title>
<path fill="none" stroke="midnightblue" d="M967.84,-290.44C982.42,-282.11 998.31,-270.01 1006.5,-254 1015,-237.38 1017.41,-227.15 1006.5,-212 994.71,-195.63 947.28,-181.51 908.68,-172.4"/>
<polygon fill="midnightblue" stroke="midnightblue" points="909.11,-168.9 898.58,-170.08 907.54,-175.73 909.11,-168.9"/>
</g>
<!-- Node23 -->
<g id="node23" class="node">
<title>Node23</title>
<g id="a_node23"><a xlink:href="telemetry__definitions_8h.html" target="_top" xlink:title="テレメトリ定義">
<polygon fill="white" stroke="black" points="1237.5,-218 1237.5,-248 1389.5,-248 1389.5,-218 1237.5,-218"/>
<text text-anchor="start" x="1245.5" y="-236" font-family="Helvetica,sans-Serif" font-size="10.00">src_user/TlmCmd/telemetry</text>
<text text-anchor="middle" x="1313.5" y="-225" font-family="Helvetica,sans-Serif" font-size="10.00">_definitions.h</text>
</a>
</g>
</g>
<!-- Node22&#45;&gt;Node23 -->
<g id="edge30" class="edge">
<title>Node22&#45;&gt;Node23</title>
<path fill="none" stroke="midnightblue" d="M1010.19,-292.27C1082.56,-280.17 1187.86,-262.29 1228.5,-254 1234.21,-252.84 1240.12,-251.57 1246.04,-250.26"/>
<polygon fill="midnightblue" stroke="midnightblue" points="1247,-253.63 1255.99,-248.02 1245.47,-246.8 1247,-253.63"/>
</g>
<!-- Node24 -->
<g id="node24" class="node">
<title>Node24</title>
<g id="a_node24"><a xlink:href="common__tlm__packet__define_8h.html" target="_top" xlink:title="CTP 型の定義">
<polygon fill="white" stroke="black" points="1053.5,-218 1053.5,-248 1219.5,-248 1219.5,-218 1053.5,-218"/>
<text text-anchor="start" x="1061.5" y="-236" font-family="Helvetica,sans-Serif" font-size="10.00">src_user/Settings/TlmCmd</text>
<text text-anchor="middle" x="1136.5" y="-225" font-family="Helvetica,sans-Serif" font-size="10.00">/common_tlm_packet_define.h</text>
</a>
</g>
</g>
<!-- Node22&#45;&gt;Node24 -->
<g id="edge31" class="edge">
<title>Node22&#45;&gt;Node24</title>
<path fill="none" stroke="midnightblue" d="M976.49,-290.4C1008.24,-279.21 1052.79,-263.51 1086.83,-251.51"/>
<polygon fill="midnightblue" stroke="midnightblue" points="1088.31,-254.7 1096.58,-248.07 1085.98,-248.1 1088.31,-254.7"/>
</g>
<!-- Node24&#45;&gt;Node17 -->
<g id="edge32" class="edge">
<title>Node24&#45;&gt;Node17</title>
<path fill="none" stroke="midnightblue" d="M1109.51,-217.9C1088.81,-207.1 1060.06,-192.08 1037.42,-180.26"/>
<polygon fill="midnightblue" stroke="midnightblue" points="1038.93,-177.1 1028.45,-175.57 1035.69,-183.3 1038.93,-177.1"/>
</g>
<!-- Node24&#45;&gt;Node19 -->
<g id="edge33" class="edge">
<title>Node24&#45;&gt;Node19</title>
<path fill="none" stroke="midnightblue" d="M1080.65,-217.99C1027.45,-204.64 948.45,-184.82 899.55,-172.55"/>
<polygon fill="midnightblue" stroke="midnightblue" points="900.15,-169.09 889.6,-170.05 898.45,-175.88 900.15,-169.09"/>
</g>
<!-- Node25&#45;&gt;Node14 -->
<g id="edge36" class="edge">
<title>Node25&#45;&gt;Node14</title>
<path fill="none" stroke="midnightblue" d="M925.07,-357.48C878.09,-347.09 814.05,-332.93 765.38,-322.17"/>
<polygon fill="midnightblue" stroke="midnightblue" points="766.07,-318.74 755.55,-320 764.56,-325.57 766.07,-318.74"/>
</g>
<!-- Node25&#45;&gt;Node23 -->
<g id="edge37" class="edge">
<title>Node25&#45;&gt;Node23</title>
<path fill="none" stroke="midnightblue" d="M996.66,-357.18C1008.02,-338.61 1030.42,-306.64 1058.5,-290 1124.94,-250.63 1153.13,-270.85 1228.5,-254 1233.77,-252.82 1239.22,-251.58 1244.7,-250.33"/>
<polygon fill="midnightblue" stroke="midnightblue" points="1245.6,-253.71 1254.55,-248.05 1244.02,-246.89 1245.6,-253.71"/>
</g>
<!-- Node26 -->
<g id="node26" class="node">
<title>Node26</title>
<g id="a_node26"><a xlink:href="telemetry__frame__params_8h.html" target="_top" xlink:title="TFのCoreTlmパラメタのオーバーライド用ヘッダー">
<polygon fill="white" stroke="black" points="1067,-290.5 1067,-320.5 1220,-320.5 1220,-290.5 1067,-290.5"/>
<text text-anchor="start" x="1075" y="-308.5" font-family="Helvetica,sans-Serif" font-size="10.00">src_user/Settings/TlmCmd</text>
<text text-anchor="middle" x="1143.5" y="-297.5" font-family="Helvetica,sans-Serif" font-size="10.00">/telemetry_frame_params.h</text>
</a>
</g>
</g>
<!-- Node25&#45;&gt;Node26 -->
<g id="edge38" class="edge">
<title>Node25&#45;&gt;Node26</title>
<path fill="none" stroke="midnightblue" d="M1022.13,-357.4C1045.08,-347.77 1075.69,-334.94 1100.42,-324.56"/>
<polygon fill="midnightblue" stroke="midnightblue" points="1102.06,-327.67 1109.93,-320.58 1099.36,-321.22 1102.06,-327.67"/>
</g>
</g>
</svg>
