<?xml version="1.0" encoding="UTF-8" standalone="no"?>
<!DOCTYPE svg PUBLIC "-//W3C//DTD SVG 1.1//EN"
 "http://www.w3.org/Graphics/SVG/1.1/DTD/svg11.dtd">
<!-- Generated by graphviz version 2.43.0 (0)
 -->
<!-- Title: AOBC_init_tlm_buffer Pages: 1 -->
<svg width="487pt" height="28pt"
 viewBox="0.00 0.00 487.00 28.00" xmlns="http://www.w3.org/2000/svg" xmlns:xlink="http://www.w3.org/1999/xlink">
<g id="graph0" class="graph" transform="scale(1 1) rotate(0) translate(4 24)">
<title>AOBC_init_tlm_buffer</title>
<polygon fill="white" stroke="transparent" points="-4,4 -4,-24 483,-24 483,4 -4,4"/>
<!-- Node1 -->
<g id="node1" class="node">
<title>Node1</title>
<g id="a_node1"><a xlink:title=" ">
<polygon fill="#bfbfbf" stroke="black" points="358,-0.5 358,-19.5 479,-19.5 479,-0.5 358,-0.5"/>
<text text-anchor="middle" x="418.5" y="-7.5" font-family="Helvetica,sans-Serif" font-size="10.00">AOBC_init_tlm_buffer</text>
</a>
</g>
</g>
<!-- Node2 -->
<g id="node2" class="node">
<title>Node2</title>
<g id="a_node2"><a xlink:href="aobc_8h.html#a85cdd2dd8929990fc71d5f3d1f77f970" target="_top" xlink:title="AOBC 初期化">
<polygon fill="white" stroke="black" points="257,-0.5 257,-19.5 322,-19.5 322,-0.5 257,-0.5"/>
<text text-anchor="middle" x="289.5" y="-7.5" font-family="Helvetica,sans-Serif" font-size="10.00">AOBC_init</text>
</a>
</g>
</g>
<!-- Node1&#45;&gt;Node2 -->
<g id="edge1" class="edge">
<title>Node1&#45;&gt;Node2</title>
<path fill="none" stroke="midnightblue" d="M347.69,-10C338.83,-10 330.14,-10 322.31,-10"/>
<polygon fill="midnightblue" stroke="midnightblue" points="347.72,-13.5 357.72,-10 347.72,-6.5 347.72,-13.5"/>
</g>
<!-- Node3 -->
<g id="node3" class="node">
<title>Node3</title>
<g id="a_node3"><a xlink:href="di__aobc_8c.html#ac004552dc331c8fea7b0b6f2acd75a15" target="_top" xlink:title=" ">
<polygon fill="white" stroke="black" points="135,-0.5 135,-19.5 221,-19.5 221,-0.5 135,-0.5"/>
<text text-anchor="middle" x="178" y="-7.5" font-family="Helvetica,sans-Serif" font-size="10.00">DI_AOBC_init_</text>
</a>
</g>
</g>
<!-- Node2&#45;&gt;Node3 -->
<g id="edge2" class="edge">
<title>Node2&#45;&gt;Node3</title>
<path fill="none" stroke="midnightblue" d="M246.58,-10C238.26,-10 229.53,-10 221.2,-10"/>
<polygon fill="midnightblue" stroke="midnightblue" points="246.83,-13.5 256.83,-10 246.83,-6.5 246.83,-13.5"/>
</g>
<!-- Node4 -->
<g id="node4" class="node">
<title>Node4</title>
<g id="a_node4"><a xlink:href="di__aobc_8h.html#a78f30ebb5b71301c1da6d10eac787db4" target="_top" xlink:title="AOBC update アプリ生成関数">
<polygon fill="white" stroke="black" points="0,-0.5 0,-19.5 99,-19.5 99,-0.5 0,-0.5"/>
<text text-anchor="middle" x="49.5" y="-7.5" font-family="Helvetica,sans-Serif" font-size="10.00">DI_AOBC_update</text>
</a>
</g>
</g>
<!-- Node3&#45;&gt;Node4 -->
<g id="edge3" class="edge">
<title>Node3&#45;&gt;Node4</title>
<path fill="none" stroke="midnightblue" d="M124.68,-10C116.18,-10 107.41,-10 99,-10"/>
<polygon fill="midnightblue" stroke="midnightblue" points="124.88,-13.5 134.88,-10 124.88,-6.5 124.88,-13.5"/>
</g>
</g>
</svg>
