<?xml version="1.0" encoding="UTF-8" standalone="no"?>
<!DOCTYPE svg PUBLIC "-//W3C//DTD SVG 1.1//EN"
 "http://www.w3.org/Graphics/SVG/1.1/DTD/svg11.dtd">
<!-- Generated by graphviz version 2.43.0 (0)
 -->
<!-- Title: src/src_user/Drivers/Aocs/aobc.h Pages: 1 -->
<svg width="1441pt" height="597pt"
 viewBox="0.00 0.00 1441.00 597.00" xmlns="http://www.w3.org/2000/svg" xmlns:xlink="http://www.w3.org/1999/xlink">
<g id="graph0" class="graph" transform="scale(1 1) rotate(0) translate(4 593)">
<title>src/src_user/Drivers/Aocs/aobc.h</title>
<polygon fill="white" stroke="transparent" points="-4,4 -4,-593 1437,-593 1437,4 -4,4"/>
<!-- Node1 -->
<g id="node1" class="node">
<title>Node1</title>
<g id="a_node1"><a xlink:title="AOBC の Driver">
<polygon fill="#bfbfbf" stroke="black" points="720.5,-558.5 720.5,-588.5 833.5,-588.5 833.5,-558.5 720.5,-558.5"/>
<text text-anchor="start" x="728.5" y="-576.5" font-family="Helvetica,sans-Serif" font-size="10.00">src/src_user/Drivers</text>
<text text-anchor="middle" x="777" y="-565.5" font-family="Helvetica,sans-Serif" font-size="10.00">/Aocs/aobc.h</text>
</a>
</g>
</g>
<!-- Node2 -->
<g id="node2" class="node">
<title>Node2</title>
<g id="a_node2"><a xlink:href="uart_8h.html" target="_top" xlink:title="UART通信ラッパーのクラスです。">
<polygon fill="white" stroke="black" points="0,-290.5 0,-320.5 108,-320.5 108,-290.5 0,-290.5"/>
<text text-anchor="start" x="8" y="-308.5" font-family="Helvetica,sans-Serif" font-size="10.00">src_core/IfWrapper</text>
<text text-anchor="middle" x="54" y="-297.5" font-family="Helvetica,sans-Serif" font-size="10.00">/uart.h</text>
</a>
</g>
</g>
<!-- Node1&#45;&gt;Node2 -->
<g id="edge1" class="edge">
<title>Node1&#45;&gt;Node2</title>
<path fill="none" stroke="midnightblue" d="M720.27,-569.53C598.04,-560.6 305.23,-525.31 111,-388 90.09,-373.21 74.27,-348.2 64.67,-329.77"/>
<polygon fill="midnightblue" stroke="midnightblue" points="67.68,-327.97 60.1,-320.58 61.41,-331.09 67.68,-327.97"/>
</g>
<!-- Node5 -->
<g id="node5" class="node">
<title>Node5</title>
<g id="a_node5"><a xlink:href="driver__super_8h.html" target="_top" xlink:title="各制御センサ・アクチュエータ等とのインターフェースドライバ群のスーパークラス">
<polygon fill="white" stroke="black" points="419,-424.5 419,-454.5 545,-454.5 545,-424.5 419,-424.5"/>
<text text-anchor="start" x="427" y="-442.5" font-family="Helvetica,sans-Serif" font-size="10.00">src_core/Drivers/Super</text>
<text text-anchor="middle" x="482" y="-431.5" font-family="Helvetica,sans-Serif" font-size="10.00">/driver_super.h</text>
</a>
</g>
</g>
<!-- Node1&#45;&gt;Node5 -->
<g id="edge4" class="edge">
<title>Node1&#45;&gt;Node5</title>
<path fill="none" stroke="midnightblue" d="M745.71,-558.5C692.05,-534.49 582.52,-485.48 522.89,-458.8"/>
<polygon fill="midnightblue" stroke="midnightblue" points="523.97,-455.45 513.41,-454.56 521.11,-461.84 523.97,-455.45"/>
</g>
<!-- Node11 -->
<g id="node11" class="node">
<title>Node11</title>
<g id="a_node11"><a xlink:href="obc__time_8h.html" target="_top" xlink:title="OBCの時刻情報の定義と演算">
<polygon fill="white" stroke="black" points="384.5,-223.5 384.5,-242.5 455.5,-242.5 455.5,-223.5 384.5,-223.5"/>
<text text-anchor="middle" x="420" y="-230.5" font-family="Helvetica,sans-Serif" font-size="10.00">obc_time.h</text>
</a>
</g>
</g>
<!-- Node1&#45;&gt;Node11 -->
<g id="edge27" class="edge">
<title>Node1&#45;&gt;Node11</title>
<path fill="none" stroke="midnightblue" d="M776.37,-558.34C774.2,-515.44 765.67,-387.99 740,-357 656.47,-256.17 585,-304.01 464,-254 458.67,-251.8 453.03,-249.33 447.63,-246.91"/>
<polygon fill="midnightblue" stroke="midnightblue" points="448.84,-243.62 438.29,-242.66 445.94,-249.99 448.84,-243.62"/>
</g>
<!-- Node12 -->
<g id="node12" class="node">
<title>Node12</title>
<g id="a_node12"><a xlink:href="common__cmd__packet_8h.html" target="_top" xlink:title="CCP 関連基本関数の宣言">
<polygon fill="white" stroke="black" points="735,-290.5 735,-320.5 857,-320.5 857,-290.5 735,-290.5"/>
<text text-anchor="start" x="743" y="-308.5" font-family="Helvetica,sans-Serif" font-size="10.00">../../TlmCmd/common</text>
<text text-anchor="middle" x="796" y="-297.5" font-family="Helvetica,sans-Serif" font-size="10.00">_cmd_packet.h</text>
</a>
</g>
</g>
<!-- Node1&#45;&gt;Node12 -->
<g id="edge28" class="edge">
<title>Node1&#45;&gt;Node12</title>
<path fill="none" stroke="midnightblue" d="M778.02,-558.2C781.12,-514.89 790.41,-384.82 794.28,-330.62"/>
<polygon fill="midnightblue" stroke="midnightblue" points="797.78,-330.77 795,-320.55 790.79,-330.27 797.78,-330.77"/>
</g>
<!-- Node20 -->
<g id="node20" class="node">
<title>Node20</title>
<g id="a_node20"><a xlink:href="aobc__telemetry__data__definitions_8h.html" target="_top" xlink:title="バッファリングされているテレメをパースしてMOBC内でかんたんに利用できるようにするためのテレメデータ構造体定義">
<polygon fill="white" stroke="black" points="824,-491.5 824,-521.5 950,-521.5 950,-491.5 824,-491.5"/>
<text text-anchor="start" x="832" y="-509.5" font-family="Helvetica,sans-Serif" font-size="10.00">./aobc_telemetry_data</text>
<text text-anchor="middle" x="887" y="-498.5" font-family="Helvetica,sans-Serif" font-size="10.00">_definitions.h</text>
</a>
</g>
</g>
<!-- Node1&#45;&gt;Node20 -->
<g id="edge29" class="edge">
<title>Node1&#45;&gt;Node20</title>
<path fill="none" stroke="midnightblue" d="M800.87,-558.4C816.58,-549.11 837.35,-536.84 854.55,-526.67"/>
<polygon fill="midnightblue" stroke="midnightblue" points="856.35,-529.68 863.18,-521.58 852.79,-523.65 856.35,-529.68"/>
</g>
<!-- Node21 -->
<g id="node21" class="node">
<title>Node21</title>
<g id="a_node21"><a xlink:href="aobc__telemetry__buffer_8h.html" target="_top" xlink:title="テレメトリバッファー（テレメ中継）">
<polygon fill="white" stroke="black" points="968.5,-497 968.5,-516 1109.5,-516 1109.5,-497 968.5,-497"/>
<text text-anchor="middle" x="1039" y="-504" font-family="Helvetica,sans-Serif" font-size="10.00">./aobc_telemetry_buffer.h</text>
</a>
</g>
</g>
<!-- Node1&#45;&gt;Node21 -->
<g id="edge30" class="edge">
<title>Node1&#45;&gt;Node21</title>
<path fill="none" stroke="midnightblue" d="M833.53,-558.48C881.82,-546.5 950.32,-529.5 994.71,-518.49"/>
<polygon fill="midnightblue" stroke="midnightblue" points="995.76,-521.83 1004.62,-516.03 994.07,-515.04 995.76,-521.83"/>
</g>
<!-- Node3 -->
<g id="node3" class="node">
<title>Node3</title>
<g id="a_node3"><a xlink:href="stdint_8h.html" target="_top" xlink:title="C89 環境用 stdint.h">
<polygon fill="white" stroke="black" points="306.5,-78.5 306.5,-97.5 359.5,-97.5 359.5,-78.5 306.5,-78.5"/>
<text text-anchor="middle" x="333" y="-85.5" font-family="Helvetica,sans-Serif" font-size="10.00">stdint.h</text>
</a>
</g>
</g>
<!-- Node2&#45;&gt;Node3 -->
<g id="edge2" class="edge">
<title>Node2&#45;&gt;Node3</title>
<path fill="none" stroke="midnightblue" d="M55.88,-290.13C60.74,-258.84 76.71,-184.21 122,-145 171.44,-102.19 250.1,-91.65 296.12,-89.33"/>
<polygon fill="midnightblue" stroke="midnightblue" points="296.4,-92.82 306.25,-88.92 296.12,-85.82 296.4,-92.82"/>
</g>
<!-- Node4 -->
<g id="node4" class="node">
<title>Node4</title>
<g id="a_node4"><a xlink:title=" ">
<polygon fill="white" stroke="#bfbfbf" points="270.5,-0.5 270.5,-30.5 395.5,-30.5 395.5,-0.5 270.5,-0.5"/>
<text text-anchor="start" x="278.5" y="-18.5" font-family="Helvetica,sans-Serif" font-size="10.00">src_user/Library/stdint</text>
<text text-anchor="middle" x="333" y="-7.5" font-family="Helvetica,sans-Serif" font-size="10.00">_impl.h</text>
</a>
</g>
</g>
<!-- Node3&#45;&gt;Node4 -->
<g id="edge3" class="edge">
<title>Node3&#45;&gt;Node4</title>
<path fill="none" stroke="midnightblue" d="M333,-78.36C333,-69.05 333,-53.83 333,-40.81"/>
<polygon fill="midnightblue" stroke="midnightblue" points="336.5,-40.58 333,-30.58 329.5,-40.58 336.5,-40.58"/>
</g>
<!-- Node5&#45;&gt;Node3 -->
<g id="edge9" class="edge">
<title>Node5&#45;&gt;Node3</title>
<path fill="none" stroke="midnightblue" d="M418.8,-438.47C330.95,-436.94 178.76,-428.34 144,-388 131.85,-373.9 141.06,-219.05 206,-145 229.42,-118.3 267.97,-103.78 296.47,-96.27"/>
<polygon fill="midnightblue" stroke="midnightblue" points="297.59,-99.59 306.47,-93.81 295.92,-92.8 297.59,-99.59"/>
</g>
<!-- Node6 -->
<g id="node6" class="node">
<title>Node6</title>
<g id="a_node6"><a xlink:href="if__list_8h.html" target="_top" xlink:title=" ">
<polygon fill="white" stroke="black" points="153,-357.5 153,-387.5 261,-387.5 261,-357.5 153,-357.5"/>
<text text-anchor="start" x="161" y="-375.5" font-family="Helvetica,sans-Serif" font-size="10.00">src_user/IfWrapper</text>
<text text-anchor="middle" x="207" y="-364.5" font-family="Helvetica,sans-Serif" font-size="10.00">/if_list.h</text>
</a>
</g>
</g>
<!-- Node5&#45;&gt;Node6 -->
<g id="edge5" class="edge">
<title>Node5&#45;&gt;Node6</title>
<path fill="none" stroke="midnightblue" d="M422.67,-424.48C377.95,-413.91 316.71,-399.43 270.91,-388.61"/>
<polygon fill="midnightblue" stroke="midnightblue" points="271.63,-385.18 261.1,-386.29 270.02,-391.99 271.63,-385.18"/>
</g>
<!-- Node8 -->
<g id="node8" class="node">
<title>Node8</title>
<g id="a_node8"><a xlink:href="endian_8h.html" target="_top" xlink:title="エンディアンに関するものを定義する">
<polygon fill="white" stroke="black" points="279.5,-363 279.5,-382 392.5,-382 392.5,-363 279.5,-363"/>
<text text-anchor="middle" x="336" y="-370" font-family="Helvetica,sans-Serif" font-size="10.00">../../Library/endian.h</text>
</a>
</g>
</g>
<!-- Node5&#45;&gt;Node8 -->
<g id="edge10" class="edge">
<title>Node5&#45;&gt;Node8</title>
<path fill="none" stroke="midnightblue" d="M450.32,-424.4C424.7,-412.99 388.96,-397.08 364.3,-386.1"/>
<polygon fill="midnightblue" stroke="midnightblue" points="365.67,-382.88 355.11,-382.01 362.82,-389.27 365.67,-382.88"/>
</g>
<!-- Node10 -->
<g id="node10" class="node">
<title>Node10</title>
<g id="a_node10"><a xlink:href="time__manager_8h.html" target="_top" xlink:title="OBC時刻のカウントアップと，各種衛星時刻関連処理">
<polygon fill="white" stroke="black" points="411,-357.5 411,-387.5 553,-387.5 553,-357.5 411,-357.5"/>
<text text-anchor="start" x="419" y="-375.5" font-family="Helvetica,sans-Serif" font-size="10.00">../../System/TimeManager</text>
<text text-anchor="middle" x="482" y="-364.5" font-family="Helvetica,sans-Serif" font-size="10.00">/time_manager.h</text>
</a>
</g>
</g>
<!-- Node5&#45;&gt;Node10 -->
<g id="edge12" class="edge">
<title>Node5&#45;&gt;Node10</title>
<path fill="none" stroke="midnightblue" d="M482,-424.4C482,-416.64 482,-406.81 482,-397.86"/>
<polygon fill="midnightblue" stroke="midnightblue" points="485.5,-397.58 482,-387.58 478.5,-397.58 485.5,-397.58"/>
</g>
<!-- Node19 -->
<g id="node19" class="node">
<title>Node19</title>
<g id="a_node19"><a xlink:href="driver__super__params_8h.html" target="_top" xlink:title="DriverSuperパラメタのオーバーライド用ヘッダー">
<polygon fill="white" stroke="black" points="571.5,-357.5 571.5,-387.5 730.5,-387.5 730.5,-357.5 571.5,-357.5"/>
<text text-anchor="start" x="579.5" y="-375.5" font-family="Helvetica,sans-Serif" font-size="10.00">src_user/Settings/Driver</text>
<text text-anchor="middle" x="651" y="-364.5" font-family="Helvetica,sans-Serif" font-size="10.00">Super/driver_super_params.h</text>
</a>
</g>
</g>
<!-- Node5&#45;&gt;Node19 -->
<g id="edge26" class="edge">
<title>Node5&#45;&gt;Node19</title>
<path fill="none" stroke="midnightblue" d="M518.67,-424.4C543.92,-414.69 577.66,-401.71 604.75,-391.29"/>
<polygon fill="midnightblue" stroke="midnightblue" points="606.32,-394.43 614.4,-387.58 603.81,-387.9 606.32,-394.43"/>
</g>
<!-- Node6&#45;&gt;Node2 -->
<g id="edge8" class="edge">
<title>Node6&#45;&gt;Node2</title>
<path fill="none" stroke="midnightblue" d="M173.8,-357.4C151.15,-347.77 120.93,-334.94 96.52,-324.56"/>
<polygon fill="midnightblue" stroke="midnightblue" points="97.71,-321.27 87.13,-320.58 94.97,-327.71 97.71,-321.27"/>
</g>
<!-- Node7 -->
<g id="node7" class="node">
<title>Node7</title>
<g id="a_node7"><a xlink:href="ccsds_8h.html" target="_top" xlink:title="CCSDS通信ラッパーのクラスです。(MOBC用 バックグラウンド取り込みVer)">
<polygon fill="white" stroke="black" points="215,-145.5 215,-175.5 323,-175.5 323,-145.5 215,-145.5"/>
<text text-anchor="start" x="223" y="-163.5" font-family="Helvetica,sans-Serif" font-size="10.00">src_core/IfWrapper</text>
<text text-anchor="middle" x="269" y="-152.5" font-family="Helvetica,sans-Serif" font-size="10.00">/ccsds.h</text>
</a>
</g>
</g>
<!-- Node6&#45;&gt;Node7 -->
<g id="edge6" class="edge">
<title>Node6&#45;&gt;Node7</title>
<path fill="none" stroke="midnightblue" d="M211.16,-357.4C221.6,-322.05 248.95,-229.4 261.95,-185.38"/>
<polygon fill="midnightblue" stroke="midnightblue" points="265.38,-186.13 264.85,-175.54 258.67,-184.14 265.38,-186.13"/>
</g>
<!-- Node7&#45;&gt;Node3 -->
<g id="edge7" class="edge">
<title>Node7&#45;&gt;Node3</title>
<path fill="none" stroke="midnightblue" d="M281.95,-145.23C292.4,-133.73 307.1,-117.53 318.05,-105.47"/>
<polygon fill="midnightblue" stroke="midnightblue" points="320.8,-107.65 324.93,-97.89 315.61,-102.94 320.8,-107.65"/>
</g>
<!-- Node9 -->
<g id="node9" class="node">
<title>Node9</title>
<g id="a_node9"><a xlink:title=" ">
<polygon fill="white" stroke="#bfbfbf" points="308,-296 308,-315 364,-315 364,-296 308,-296"/>
<text text-anchor="middle" x="336" y="-303" font-family="Helvetica,sans-Serif" font-size="10.00">stddef.h</text>
</a>
</g>
</g>
<!-- Node8&#45;&gt;Node9 -->
<g id="edge11" class="edge">
<title>Node8&#45;&gt;Node9</title>
<path fill="none" stroke="midnightblue" d="M336,-362.73C336,-353.18 336,-337.62 336,-325.28"/>
<polygon fill="midnightblue" stroke="midnightblue" points="339.5,-325.13 336,-315.13 332.5,-325.13 339.5,-325.13"/>
</g>
<!-- Node10&#45;&gt;Node11 -->
<g id="edge13" class="edge">
<title>Node10&#45;&gt;Node11</title>
<path fill="none" stroke="midnightblue" d="M475.6,-357.3C464.24,-332.11 440.59,-279.66 428.11,-251.98"/>
<polygon fill="midnightblue" stroke="midnightblue" points="431.22,-250.38 423.92,-242.7 424.84,-253.26 431.22,-250.38"/>
</g>
<!-- Node10&#45;&gt;Node12 -->
<g id="edge15" class="edge">
<title>Node10&#45;&gt;Node12</title>
<path fill="none" stroke="midnightblue" d="M549.75,-357.48C601.41,-346.78 672.37,-332.09 724.85,-321.23"/>
<polygon fill="midnightblue" stroke="midnightblue" points="725.67,-324.63 734.76,-319.18 724.25,-317.78 725.67,-324.63"/>
</g>
<!-- Node11&#45;&gt;Node3 -->
<g id="edge14" class="edge">
<title>Node11&#45;&gt;Node3</title>
<path fill="none" stroke="midnightblue" d="M414.82,-223.48C400.89,-200.59 362.42,-137.36 343.62,-106.46"/>
<polygon fill="midnightblue" stroke="midnightblue" points="346.45,-104.38 338.26,-97.65 340.47,-108.02 346.45,-104.38"/>
</g>
<!-- Node12&#45;&gt;Node11 -->
<g id="edge16" class="edge">
<title>Node12&#45;&gt;Node11</title>
<path fill="none" stroke="midnightblue" d="M734.65,-292.37C730.04,-291.54 725.45,-290.74 721,-290 607.23,-271.05 574.75,-286.2 464,-254 457.65,-252.16 451.05,-249.55 444.95,-246.83"/>
<polygon fill="midnightblue" stroke="midnightblue" points="446.41,-243.66 435.87,-242.56 443.43,-249.99 446.41,-243.66"/>
</g>
<!-- Node13 -->
<g id="node13" class="node">
<title>Node13</title>
<g id="a_node13"><a xlink:href="command__definitions_8h.html" target="_top" xlink:title="コマンド定義">
<polygon fill="white" stroke="black" points="473.5,-218 473.5,-248 626.5,-248 626.5,-218 473.5,-218"/>
<text text-anchor="start" x="481.5" y="-236" font-family="Helvetica,sans-Serif" font-size="10.00">src_user/TlmCmd/command</text>
<text text-anchor="middle" x="550" y="-225" font-family="Helvetica,sans-Serif" font-size="10.00">_definitions.h</text>
</a>
</g>
</g>
<!-- Node12&#45;&gt;Node13 -->
<g id="edge17" class="edge">
<title>Node12&#45;&gt;Node13</title>
<path fill="none" stroke="midnightblue" d="M747.1,-290.49C707.41,-279.11 651.3,-263.03 609.09,-250.93"/>
<polygon fill="midnightblue" stroke="midnightblue" points="609.8,-247.5 599.22,-248.11 607.87,-254.23 609.8,-247.5"/>
</g>
<!-- Node14 -->
<g id="node14" class="node">
<title>Node14</title>
<g id="a_node14"><a xlink:href="common__cmd__packet__define_8h.html" target="_top" xlink:title="CCP 型の定義">
<polygon fill="white" stroke="black" points="683,-218 683,-248 853,-248 853,-218 683,-218"/>
<text text-anchor="start" x="691" y="-236" font-family="Helvetica,sans-Serif" font-size="10.00">src_user/Settings/TlmCmd</text>
<text text-anchor="middle" x="768" y="-225" font-family="Helvetica,sans-Serif" font-size="10.00">/common_cmd_packet_define.h</text>
</a>
</g>
</g>
<!-- Node12&#45;&gt;Node14 -->
<g id="edge18" class="edge">
<title>Node12&#45;&gt;Node14</title>
<path fill="none" stroke="midnightblue" d="M790.33,-290.23C786.61,-280.87 781.66,-268.4 777.36,-257.58"/>
<polygon fill="midnightblue" stroke="midnightblue" points="780.6,-256.25 773.66,-248.25 774.1,-258.83 780.6,-256.25"/>
</g>
<!-- Node17 -->
<g id="node17" class="node">
<title>Node17</title>
<g id="a_node17"><a xlink:href="apid__define_8h.html" target="_top" xlink:title="CCSDS の APID を定義する">
<polygon fill="white" stroke="black" points="651.5,-151 651.5,-170 770.5,-170 770.5,-151 651.5,-151"/>
<text text-anchor="middle" x="711" y="-158" font-family="Helvetica,sans-Serif" font-size="10.00">./Ccsds/apid_define.h</text>
</a>
</g>
</g>
<!-- Node12&#45;&gt;Node17 -->
<g id="edge24" class="edge">
<title>Node12&#45;&gt;Node17</title>
<path fill="none" stroke="midnightblue" d="M734.93,-294.12C711.84,-286.9 687.82,-274.68 674,-254 657.76,-229.7 679.08,-197.17 695.45,-177.87"/>
<polygon fill="midnightblue" stroke="midnightblue" points="698.22,-180.03 702.26,-170.24 692.99,-175.37 698.22,-180.03"/>
</g>
<!-- Node18 -->
<g id="node18" class="node">
<title>Node18</title>
<g id="a_node18"><a xlink:href="timeline__command__dispatcher__define_8h.html" target="_top" xlink:title="timeline command dispatcher の各種定義">
<polygon fill="white" stroke="black" points="871,-212.5 871,-253.5 1041,-253.5 1041,-212.5 871,-212.5"/>
<text text-anchor="start" x="879" y="-241.5" font-family="Helvetica,sans-Serif" font-size="10.00">src_user/Settings/Applications</text>
<text text-anchor="start" x="879" y="-230.5" font-family="Helvetica,sans-Serif" font-size="10.00">/timeline_command_dispatcher</text>
<text text-anchor="middle" x="956" y="-219.5" font-family="Helvetica,sans-Serif" font-size="10.00">_define.h</text>
</a>
</g>
</g>
<!-- Node12&#45;&gt;Node18 -->
<g id="edge25" class="edge">
<title>Node12&#45;&gt;Node18</title>
<path fill="none" stroke="midnightblue" d="M827.99,-290.4C849.26,-281.03 877.71,-268.5 902.39,-257.62"/>
<polygon fill="midnightblue" stroke="midnightblue" points="903.9,-260.78 911.64,-253.55 901.08,-254.38 903.9,-260.78"/>
</g>
<!-- Node15 -->
<g id="node15" class="node">
<title>Node15</title>
<g id="a_node15"><a xlink:href="space__packet__typedef_8h.html" target="_top" xlink:title="SpacePacket 類 と CommonTlmCmdPacket 類が相互参照するのを回避するためのヘッダ">
<polygon fill="white" stroke="black" points="788.5,-145.5 788.5,-175.5 925.5,-175.5 925.5,-145.5 788.5,-145.5"/>
<text text-anchor="start" x="796.5" y="-163.5" font-family="Helvetica,sans-Serif" font-size="10.00">src_core/TlmCmd/Ccsds</text>
<text text-anchor="middle" x="857" y="-152.5" font-family="Helvetica,sans-Serif" font-size="10.00">/space_packet_typedef.h</text>
</a>
</g>
</g>
<!-- Node14&#45;&gt;Node15 -->
<g id="edge19" class="edge">
<title>Node14&#45;&gt;Node15</title>
<path fill="none" stroke="midnightblue" d="M786.01,-217.73C799,-207.44 816.73,-193.4 831.22,-181.92"/>
<polygon fill="midnightblue" stroke="midnightblue" points="833.65,-184.46 839.32,-175.5 829.31,-178.97 833.65,-184.46"/>
</g>
<!-- Node14&#45;&gt;Node17 -->
<g id="edge22" class="edge">
<title>Node14&#45;&gt;Node17</title>
<path fill="none" stroke="midnightblue" d="M756.47,-217.73C747.25,-206.34 734.32,-190.34 724.6,-178.32"/>
<polygon fill="midnightblue" stroke="midnightblue" points="727.2,-175.97 718.19,-170.39 721.76,-180.37 727.2,-175.97"/>
</g>
<!-- Node15&#45;&gt;Node3 -->
<g id="edge20" class="edge">
<title>Node15&#45;&gt;Node3</title>
<path fill="none" stroke="midnightblue" d="M788.19,-146.33C785.43,-145.86 782.69,-145.42 780,-145 628.16,-121.22 446.05,-100.95 369.6,-92.81"/>
<polygon fill="midnightblue" stroke="midnightblue" points="369.84,-89.32 359.53,-91.75 369.11,-96.28 369.84,-89.32"/>
</g>
<!-- Node16 -->
<g id="node16" class="node">
<title>Node16</title>
<g id="a_node16"><a xlink:href="space__packet__typedef__params_8h.html" target="_top" xlink:title="SpacePacketの パケット型に関するユーザー設定">
<polygon fill="white" stroke="black" points="777,-67.5 777,-108.5 937,-108.5 937,-67.5 777,-67.5"/>
<text text-anchor="start" x="785" y="-96.5" font-family="Helvetica,sans-Serif" font-size="10.00">src_user/Settings/TlmCmd</text>
<text text-anchor="start" x="785" y="-85.5" font-family="Helvetica,sans-Serif" font-size="10.00">/Ccsds/space_packet_typedef</text>
<text text-anchor="middle" x="857" y="-74.5" font-family="Helvetica,sans-Serif" font-size="10.00">_params.h</text>
</a>
</g>
</g>
<!-- Node15&#45;&gt;Node16 -->
<g id="edge21" class="edge">
<title>Node15&#45;&gt;Node16</title>
<path fill="none" stroke="midnightblue" d="M857,-145.23C857,-137.57 857,-127.84 857,-118.63"/>
<polygon fill="midnightblue" stroke="midnightblue" points="860.5,-118.59 857,-108.59 853.5,-118.59 860.5,-118.59"/>
</g>
<!-- Node17&#45;&gt;Node3 -->
<g id="edge23" class="edge">
<title>Node17&#45;&gt;Node3</title>
<path fill="none" stroke="midnightblue" d="M665.4,-151C589.57,-136.85 439.03,-108.78 369.62,-95.83"/>
<polygon fill="midnightblue" stroke="midnightblue" points="370.06,-92.35 359.59,-93.96 368.78,-99.23 370.06,-92.35"/>
</g>
<!-- Node21&#45;&gt;Node5 -->
<g id="edge32" class="edge">
<title>Node21&#45;&gt;Node5</title>
<path fill="none" stroke="midnightblue" d="M995.08,-496.94C983.38,-494.82 970.74,-492.68 959,-491 816.58,-470.58 649.13,-454.72 555.31,-446.57"/>
<polygon fill="midnightblue" stroke="midnightblue" points="555.34,-443.06 545.07,-445.68 554.73,-450.03 555.34,-443.06"/>
</g>
<!-- Node22 -->
<g id="node22" class="node">
<title>Node22</title>
<g id="a_node22"><a xlink:href="aobc__telemetry__definitions_8h.html" target="_top" xlink:title="テレメトリ定義">
<polygon fill="white" stroke="black" points="876,-430 876,-449 1040,-449 1040,-430 876,-430"/>
<text text-anchor="middle" x="958" y="-437" font-family="Helvetica,sans-Serif" font-size="10.00">./aobc_telemetry_definitions.h</text>
</a>
</g>
</g>
<!-- Node21&#45;&gt;Node22 -->
<g id="edge31" class="edge">
<title>Node21&#45;&gt;Node22</title>
<path fill="none" stroke="midnightblue" d="M1028.08,-496.73C1014.96,-486.21 992.74,-468.38 976.84,-455.62"/>
<polygon fill="midnightblue" stroke="midnightblue" points="978.74,-452.66 968.75,-449.13 974.36,-458.12 978.74,-452.66"/>
</g>
<!-- Node23 -->
<g id="node23" class="node">
<title>Node23</title>
<g id="a_node23"><a xlink:href="common__tlm__packet_8h.html" target="_top" xlink:title="CTP 関連基本関数の宣言">
<polygon fill="white" stroke="black" points="995.5,-290.5 995.5,-320.5 1142.5,-320.5 1142.5,-290.5 995.5,-290.5"/>
<text text-anchor="start" x="1003.5" y="-308.5" font-family="Helvetica,sans-Serif" font-size="10.00">src_core/TlmCmd/common</text>
<text text-anchor="middle" x="1069" y="-297.5" font-family="Helvetica,sans-Serif" font-size="10.00">_tlm_packet.h</text>
</a>
</g>
</g>
<!-- Node21&#45;&gt;Node23 -->
<g id="edge33" class="edge">
<title>Node21&#45;&gt;Node23</title>
<path fill="none" stroke="midnightblue" d="M1040.86,-496.95C1043,-486.93 1046.54,-469.81 1049,-455 1056.22,-411.54 1062.64,-360.59 1066.16,-331.08"/>
<polygon fill="midnightblue" stroke="midnightblue" points="1069.67,-331.22 1067.36,-320.88 1062.72,-330.4 1069.67,-331.22"/>
</g>
<!-- Node26 -->
<g id="node26" class="node">
<title>Node26</title>
<g id="a_node26"><a xlink:href="telemetry__frame_8h.html" target="_top" xlink:title="テレメトリの登録，テレメトリ関連処理">
<polygon fill="white" stroke="black" points="1096,-357.5 1096,-387.5 1248,-387.5 1248,-357.5 1096,-357.5"/>
<text text-anchor="start" x="1104" y="-375.5" font-family="Helvetica,sans-Serif" font-size="10.00">src_core/TlmCmd/telemetry</text>
<text text-anchor="middle" x="1172" y="-364.5" font-family="Helvetica,sans-Serif" font-size="10.00">_frame.h</text>
</a>
</g>
</g>
<!-- Node21&#45;&gt;Node26 -->
<g id="edge40" class="edge">
<title>Node21&#45;&gt;Node26</title>
<path fill="none" stroke="midnightblue" d="M1047.73,-496.84C1068.31,-476.41 1120.39,-424.72 1150.19,-395.14"/>
<polygon fill="midnightblue" stroke="midnightblue" points="1152.98,-397.31 1157.61,-387.78 1148.05,-392.34 1152.98,-397.31"/>
</g>
<!-- Node23&#45;&gt;Node11 -->
<g id="edge34" class="edge">
<title>Node23&#45;&gt;Node11</title>
<path fill="none" stroke="midnightblue" d="M995.27,-299.02C839.55,-287.36 489.32,-260.6 464,-254 457.5,-252.31 450.76,-249.72 444.57,-246.95"/>
<polygon fill="midnightblue" stroke="midnightblue" points="445.94,-243.73 435.4,-242.58 442.92,-250.05 445.94,-243.73"/>
</g>
<!-- Node23&#45;&gt;Node17 -->
<g id="edge39" class="edge">
<title>Node23&#45;&gt;Node17</title>
<path fill="none" stroke="midnightblue" d="M1070.68,-290.2C1072.21,-269.68 1071.58,-232.12 1050,-212 1005.73,-170.72 839.66,-186.23 780,-176 773.27,-174.85 766.2,-173.51 759.26,-172.12"/>
<polygon fill="midnightblue" stroke="midnightblue" points="759.72,-168.64 749.22,-170.06 758.32,-175.5 759.72,-168.64"/>
</g>
<!-- Node24 -->
<g id="node24" class="node">
<title>Node24</title>
<g id="a_node24"><a xlink:href="telemetry__definitions_8h.html" target="_top" xlink:title="テレメトリ定義">
<polygon fill="white" stroke="black" points="1281,-218 1281,-248 1433,-248 1433,-218 1281,-218"/>
<text text-anchor="start" x="1289" y="-236" font-family="Helvetica,sans-Serif" font-size="10.00">src_user/TlmCmd/telemetry</text>
<text text-anchor="middle" x="1357" y="-225" font-family="Helvetica,sans-Serif" font-size="10.00">_definitions.h</text>
</a>
</g>
</g>
<!-- Node23&#45;&gt;Node24 -->
<g id="edge35" class="edge">
<title>Node23&#45;&gt;Node24</title>
<path fill="none" stroke="midnightblue" d="M1126.24,-290.49C1173.21,-278.99 1239.79,-262.69 1289.38,-250.55"/>
<polygon fill="midnightblue" stroke="midnightblue" points="1290.49,-253.88 1299.37,-248.11 1288.83,-247.09 1290.49,-253.88"/>
</g>
<!-- Node25 -->
<g id="node25" class="node">
<title>Node25</title>
<g id="a_node25"><a xlink:href="common__tlm__packet__define_8h.html" target="_top" xlink:title="CTP 型の定義">
<polygon fill="white" stroke="black" points="1097,-218 1097,-248 1263,-248 1263,-218 1097,-218"/>
<text text-anchor="start" x="1105" y="-236" font-family="Helvetica,sans-Serif" font-size="10.00">src_user/Settings/TlmCmd</text>
<text text-anchor="middle" x="1180" y="-225" font-family="Helvetica,sans-Serif" font-size="10.00">/common_tlm_packet_define.h</text>
</a>
</g>
</g>
<!-- Node23&#45;&gt;Node25 -->
<g id="edge36" class="edge">
<title>Node23&#45;&gt;Node25</title>
<path fill="none" stroke="midnightblue" d="M1091.2,-290.4C1107.83,-279.84 1130.81,-265.24 1149.22,-253.55"/>
<polygon fill="midnightblue" stroke="midnightblue" points="1151.28,-256.39 1157.84,-248.07 1147.52,-250.48 1151.28,-256.39"/>
</g>
<!-- Node25&#45;&gt;Node15 -->
<g id="edge37" class="edge">
<title>Node25&#45;&gt;Node15</title>
<path fill="none" stroke="midnightblue" d="M1115.8,-217.99C1062.6,-206.38 986.96,-189.86 931.18,-177.69"/>
<polygon fill="midnightblue" stroke="midnightblue" points="931.87,-174.26 921.36,-175.55 930.38,-181.1 931.87,-174.26"/>
</g>
<!-- Node25&#45;&gt;Node17 -->
<g id="edge38" class="edge">
<title>Node25&#45;&gt;Node17</title>
<path fill="none" stroke="midnightblue" d="M1115.96,-217.99C1105,-215.83 1093.69,-213.73 1083,-212 949.14,-190.29 913.82,-197.97 780,-176 773.1,-174.87 765.85,-173.52 758.74,-172.11"/>
<polygon fill="midnightblue" stroke="midnightblue" points="758.99,-168.58 748.49,-170.01 757.58,-175.44 758.99,-168.58"/>
</g>
<!-- Node26&#45;&gt;Node12 -->
<g id="edge41" class="edge">
<title>Node26&#45;&gt;Node12</title>
<path fill="none" stroke="midnightblue" d="M1095.91,-358.35C1029.1,-346.8 932.64,-330.12 867.3,-318.83"/>
<polygon fill="midnightblue" stroke="midnightblue" points="867.54,-315.32 857.09,-317.06 866.35,-322.21 867.54,-315.32"/>
</g>
<!-- Node26&#45;&gt;Node24 -->
<g id="edge42" class="edge">
<title>Node26&#45;&gt;Node24</title>
<path fill="none" stroke="midnightblue" d="M1171.57,-357.21C1171.82,-339.27 1174.97,-308.58 1192,-290 1205.38,-275.41 1248.22,-261.1 1286.9,-250.59"/>
<polygon fill="midnightblue" stroke="midnightblue" points="1287.85,-253.96 1296.62,-248.01 1286.05,-247.2 1287.85,-253.96"/>
</g>
<!-- Node27 -->
<g id="node27" class="node">
<title>Node27</title>
<g id="a_node27"><a xlink:href="telemetry__frame__params_8h.html" target="_top" xlink:title="TFのCoreTlmパラメタのオーバーライド用ヘッダー">
<polygon fill="white" stroke="black" points="1200.5,-290.5 1200.5,-320.5 1353.5,-320.5 1353.5,-290.5 1200.5,-290.5"/>
<text text-anchor="start" x="1208.5" y="-308.5" font-family="Helvetica,sans-Serif" font-size="10.00">src_user/Settings/TlmCmd</text>
<text text-anchor="middle" x="1277" y="-297.5" font-family="Helvetica,sans-Serif" font-size="10.00">/telemetry_frame_params.h</text>
</a>
</g>
</g>
<!-- Node26&#45;&gt;Node27 -->
<g id="edge43" class="edge">
<title>Node26&#45;&gt;Node27</title>
<path fill="none" stroke="midnightblue" d="M1194.78,-357.4C1209.64,-348.2 1229.24,-336.07 1245.57,-325.95"/>
<polygon fill="midnightblue" stroke="midnightblue" points="1247.6,-328.82 1254.26,-320.58 1243.92,-322.86 1247.6,-328.82"/>
</g>
</g>
</svg>
