<?xml version="1.0" encoding="UTF-8" standalone="no"?>
<!DOCTYPE svg PUBLIC "-//W3C//DTD SVG 1.1//EN"
 "http://www.w3.org/Graphics/SVG/1.1/DTD/svg11.dtd">
<!-- Generated by graphviz version 2.43.0 (0)
 -->
<!-- Title: src/src_core/System/ApplicationManager/app_manager.h Pages: 1 -->
<svg width="918pt" height="340pt"
 viewBox="0.00 0.00 918.00 340.00" xmlns="http://www.w3.org/2000/svg" xmlns:xlink="http://www.w3.org/1999/xlink">
<g id="graph0" class="graph" transform="scale(1 1) rotate(0) translate(4 336)">
<title>src/src_core/System/ApplicationManager/app_manager.h</title>
<polygon fill="white" stroke="transparent" points="-4,4 -4,-336 914,-336 914,4 -4,4"/>
<!-- Node1 -->
<g id="node1" class="node">
<title>Node1</title>
<g id="a_node1"><a xlink:title=" ">
<polygon fill="#bfbfbf" stroke="black" points="269.5,-290.5 269.5,-331.5 386.5,-331.5 386.5,-290.5 269.5,-290.5"/>
<text text-anchor="start" x="277.5" y="-319.5" font-family="Helvetica,sans-Serif" font-size="10.00">src/src_core/System</text>
<text text-anchor="start" x="277.5" y="-308.5" font-family="Helvetica,sans-Serif" font-size="10.00">/ApplicationManager</text>
<text text-anchor="middle" x="328" y="-297.5" font-family="Helvetica,sans-Serif" font-size="10.00">/app_manager.h</text>
</a>
</g>
</g>
<!-- Node2 -->
<g id="node2" class="node">
<title>Node2</title>
<g id="a_node2"><a xlink:title=" ">
<polygon fill="white" stroke="#bfbfbf" points="164,-229 164,-248 220,-248 220,-229 164,-229"/>
<text text-anchor="middle" x="192" y="-236" font-family="Helvetica,sans-Serif" font-size="10.00">stddef.h</text>
</a>
</g>
</g>
<!-- Node1&#45;&gt;Node2 -->
<g id="edge1" class="edge">
<title>Node1&#45;&gt;Node2</title>
<path fill="none" stroke="midnightblue" d="M290.12,-290.36C267.05,-278.4 238.18,-263.44 217.75,-252.85"/>
<polygon fill="midnightblue" stroke="midnightblue" points="219.22,-249.67 208.73,-248.17 216,-255.88 219.22,-249.67"/>
</g>
<!-- Node3 -->
<g id="node3" class="node">
<title>Node3</title>
<g id="a_node3"><a xlink:href="app__info_8h.html" target="_top" xlink:title="App 情報構造体定義と App 作成">
<polygon fill="white" stroke="black" points="238,-229 238,-248 306,-248 306,-229 238,-229"/>
<text text-anchor="middle" x="272" y="-236" font-family="Helvetica,sans-Serif" font-size="10.00">app_info.h</text>
</a>
</g>
</g>
<!-- Node1&#45;&gt;Node3 -->
<g id="edge2" class="edge">
<title>Node1&#45;&gt;Node3</title>
<path fill="none" stroke="midnightblue" d="M312.4,-290.36C303.89,-279.65 293.46,-266.52 285.34,-256.29"/>
<polygon fill="midnightblue" stroke="midnightblue" points="287.85,-253.83 278.89,-248.17 282.37,-258.18 287.85,-253.83"/>
</g>
<!-- Node8 -->
<g id="node8" class="node">
<title>Node8</title>
<g id="a_node8"><a xlink:href="common__cmd__packet_8h.html" target="_top" xlink:title="CCP 関連基本関数の宣言">
<polygon fill="white" stroke="black" points="324,-223.5 324,-253.5 446,-253.5 446,-223.5 324,-223.5"/>
<text text-anchor="start" x="332" y="-241.5" font-family="Helvetica,sans-Serif" font-size="10.00">../../TlmCmd/common</text>
<text text-anchor="middle" x="385" y="-230.5" font-family="Helvetica,sans-Serif" font-size="10.00">_cmd_packet.h</text>
</a>
</g>
</g>
<!-- Node1&#45;&gt;Node8 -->
<g id="edge7" class="edge">
<title>Node1&#45;&gt;Node8</title>
<path fill="none" stroke="midnightblue" d="M343.88,-290.36C351.04,-281.5 359.54,-271 366.94,-261.84"/>
<polygon fill="midnightblue" stroke="midnightblue" points="369.8,-263.87 373.36,-253.89 364.36,-259.47 369.8,-263.87"/>
</g>
<!-- Node15 -->
<g id="node15" class="node">
<title>Node15</title>
<g id="a_node15"><a xlink:href="app__manager__params_8h.html" target="_top" xlink:title="AM の Core パラメタのオーバーライド用ヘッダー">
<polygon fill="white" stroke="black" points="464,-223.5 464,-253.5 604,-253.5 604,-223.5 464,-223.5"/>
<text text-anchor="start" x="472" y="-241.5" font-family="Helvetica,sans-Serif" font-size="10.00">src_user/Settings/System</text>
<text text-anchor="middle" x="534" y="-230.5" font-family="Helvetica,sans-Serif" font-size="10.00">/app_manager_params.h</text>
</a>
</g>
</g>
<!-- Node1&#45;&gt;Node15 -->
<g id="edge15" class="edge">
<title>Node1&#45;&gt;Node15</title>
<path fill="none" stroke="midnightblue" d="M385.11,-290.46C415.81,-279.95 453.35,-267.1 483.06,-256.93"/>
<polygon fill="midnightblue" stroke="midnightblue" points="484.48,-260.15 492.81,-253.6 482.21,-253.52 484.48,-260.15"/>
</g>
<!-- Node4 -->
<g id="node4" class="node">
<title>Node4</title>
<g id="a_node4"><a xlink:href="obc__time_8h.html" target="_top" xlink:title="OBCの時刻情報の定義と演算">
<polygon fill="white" stroke="black" points="87.5,-151 87.5,-181 200.5,-181 200.5,-151 87.5,-151"/>
<text text-anchor="start" x="95.5" y="-169" font-family="Helvetica,sans-Serif" font-size="10.00">../TimeManager/obc</text>
<text text-anchor="middle" x="144" y="-158" font-family="Helvetica,sans-Serif" font-size="10.00">_time.h</text>
</a>
</g>
</g>
<!-- Node3&#45;&gt;Node4 -->
<g id="edge3" class="edge">
<title>Node3&#45;&gt;Node4</title>
<path fill="none" stroke="midnightblue" d="M256.56,-229C237.37,-218.43 204.06,-200.08 178.64,-186.08"/>
<polygon fill="midnightblue" stroke="midnightblue" points="180.12,-182.9 169.67,-181.14 176.74,-189.03 180.12,-182.9"/>
</g>
<!-- Node5 -->
<g id="node5" class="node">
<title>Node5</title>
<g id="a_node5"><a xlink:href="stdint_8h.html" target="_top" xlink:title=" ">
<polygon fill="white" stroke="black" points="0,-84 0,-103 134,-103 134,-84 0,-84"/>
<text text-anchor="middle" x="67" y="-91" font-family="Helvetica,sans-Serif" font-size="10.00">src_user/Library/stdint.h</text>
</a>
</g>
</g>
<!-- Node4&#45;&gt;Node5 -->
<g id="edge4" class="edge">
<title>Node4&#45;&gt;Node5</title>
<path fill="none" stroke="midnightblue" d="M128.42,-150.73C115.61,-139 97.48,-122.4 84.23,-110.28"/>
<polygon fill="midnightblue" stroke="midnightblue" points="86.45,-107.56 76.71,-103.39 81.73,-112.73 86.45,-107.56"/>
</g>
<!-- Node7 -->
<g id="node7" class="node">
<title>Node7</title>
<g id="a_node7"><a xlink:href="obc__time__params_8h.html" target="_top" xlink:title="OBCTのCoreパラメタのオーバーライド用ヘッダー">
<polygon fill="white" stroke="black" points="152,-78.5 152,-108.5 292,-108.5 292,-78.5 152,-78.5"/>
<text text-anchor="start" x="160" y="-96.5" font-family="Helvetica,sans-Serif" font-size="10.00">src_user/Settings/System</text>
<text text-anchor="middle" x="222" y="-85.5" font-family="Helvetica,sans-Serif" font-size="10.00">/obc_time_params.h</text>
</a>
</g>
</g>
<!-- Node4&#45;&gt;Node7 -->
<g id="edge6" class="edge">
<title>Node4&#45;&gt;Node7</title>
<path fill="none" stroke="midnightblue" d="M159.78,-150.73C171.06,-140.54 186.42,-126.66 199.05,-115.24"/>
<polygon fill="midnightblue" stroke="midnightblue" points="201.43,-117.81 206.51,-108.5 196.74,-112.61 201.43,-117.81"/>
</g>
<!-- Node6 -->
<g id="node6" class="node">
<title>Node6</title>
<g id="a_node6"><a xlink:href="sils__define_8h.html" target="_top" xlink:title="Switch the build settings between your real OBC and SILS">
<polygon fill="white" stroke="black" points="2.5,-11.5 2.5,-30.5 131.5,-30.5 131.5,-11.5 2.5,-11.5"/>
<text text-anchor="middle" x="67" y="-18.5" font-family="Helvetica,sans-Serif" font-size="10.00">../Settings/sils_define.h</text>
</a>
</g>
</g>
<!-- Node5&#45;&gt;Node6 -->
<g id="edge5" class="edge">
<title>Node5&#45;&gt;Node6</title>
<path fill="none" stroke="midnightblue" d="M67,-83.86C67,-73.18 67,-54.72 67,-40.73"/>
<polygon fill="midnightblue" stroke="midnightblue" points="70.5,-40.72 67,-30.72 63.5,-40.72 70.5,-40.72"/>
</g>
<!-- Node8&#45;&gt;Node4 -->
<g id="edge8" class="edge">
<title>Node8&#45;&gt;Node4</title>
<path fill="none" stroke="midnightblue" d="M335.24,-223.49C299.95,-213.5 251.51,-199.64 209,-187 205.83,-186.06 202.58,-185.08 199.3,-184.09"/>
<polygon fill="midnightblue" stroke="midnightblue" points="200.01,-180.65 189.43,-181.1 197.98,-187.35 200.01,-180.65"/>
</g>
<!-- Node9 -->
<g id="node9" class="node">
<title>Node9</title>
<g id="a_node9"><a xlink:href="command__definitions_8h.html" target="_top" xlink:title="コマンド定義">
<polygon fill="white" stroke="black" points="218.5,-151 218.5,-181 371.5,-181 371.5,-151 218.5,-151"/>
<text text-anchor="start" x="226.5" y="-169" font-family="Helvetica,sans-Serif" font-size="10.00">src_user/TlmCmd/command</text>
<text text-anchor="middle" x="295" y="-158" font-family="Helvetica,sans-Serif" font-size="10.00">_definitions.h</text>
</a>
</g>
</g>
<!-- Node8&#45;&gt;Node9 -->
<g id="edge9" class="edge">
<title>Node8&#45;&gt;Node9</title>
<path fill="none" stroke="midnightblue" d="M366.79,-223.23C353.65,-212.94 335.72,-198.9 321.07,-187.42"/>
<polygon fill="midnightblue" stroke="midnightblue" points="322.91,-184.42 312.88,-181 318.59,-189.93 322.91,-184.42"/>
</g>
<!-- Node10 -->
<g id="node10" class="node">
<title>Node10</title>
<g id="a_node10"><a xlink:href="common__cmd__packet__define_8h.html" target="_top" xlink:title="CCP 型の定義">
<polygon fill="white" stroke="black" points="390,-151 390,-181 560,-181 560,-151 390,-151"/>
<text text-anchor="start" x="398" y="-169" font-family="Helvetica,sans-Serif" font-size="10.00">src_user/Settings/TlmCmd</text>
<text text-anchor="middle" x="475" y="-158" font-family="Helvetica,sans-Serif" font-size="10.00">/common_cmd_packet_define.h</text>
</a>
</g>
</g>
<!-- Node8&#45;&gt;Node10 -->
<g id="edge10" class="edge">
<title>Node8&#45;&gt;Node10</title>
<path fill="none" stroke="midnightblue" d="M403.21,-223.23C416.35,-212.94 434.28,-198.9 448.93,-187.42"/>
<polygon fill="midnightblue" stroke="midnightblue" points="451.41,-189.93 457.12,-181 447.09,-184.42 451.41,-189.93"/>
</g>
<!-- Node13 -->
<g id="node13" class="node">
<title>Node13</title>
<g id="a_node13"><a xlink:href="apid__define_8h.html" target="_top" xlink:title="CCSDS の APID を定義する">
<polygon fill="white" stroke="black" points="578,-151 578,-181 722,-181 722,-151 578,-151"/>
<text text-anchor="start" x="586" y="-169" font-family="Helvetica,sans-Serif" font-size="10.00">src_user/Settings/TlmCmd</text>
<text text-anchor="middle" x="650" y="-158" font-family="Helvetica,sans-Serif" font-size="10.00">/Ccsds/apid_define.h</text>
</a>
</g>
</g>
<!-- Node8&#45;&gt;Node13 -->
<g id="edge13" class="edge">
<title>Node8&#45;&gt;Node13</title>
<path fill="none" stroke="midnightblue" d="M437.67,-223.49C480.7,-212.04 541.64,-195.83 587.21,-183.71"/>
<polygon fill="midnightblue" stroke="midnightblue" points="588.21,-187.06 596.97,-181.11 586.41,-180.3 588.21,-187.06"/>
</g>
<!-- Node14 -->
<g id="node14" class="node">
<title>Node14</title>
<g id="a_node14"><a xlink:href="timeline__command__dispatcher__define_8h.html" target="_top" xlink:title="timeline command dispatcher の各種定義">
<polygon fill="white" stroke="black" points="740,-145.5 740,-186.5 910,-186.5 910,-145.5 740,-145.5"/>
<text text-anchor="start" x="748" y="-174.5" font-family="Helvetica,sans-Serif" font-size="10.00">src_user/Settings/Applications</text>
<text text-anchor="start" x="748" y="-163.5" font-family="Helvetica,sans-Serif" font-size="10.00">/timeline_command_dispatcher</text>
<text text-anchor="middle" x="825" y="-152.5" font-family="Helvetica,sans-Serif" font-size="10.00">_define.h</text>
</a>
</g>
</g>
<!-- Node8&#45;&gt;Node14 -->
<g id="edge14" class="edge">
<title>Node8&#45;&gt;Node14</title>
<path fill="none" stroke="midnightblue" d="M446.03,-224.58C449.06,-224.02 452.06,-223.5 455,-223 573.77,-202.98 607.32,-207.62 729.62,-187.17"/>
<polygon fill="midnightblue" stroke="midnightblue" points="730.48,-190.57 739.75,-185.45 729.31,-183.67 730.48,-190.57"/>
</g>
<!-- Node11 -->
<g id="node11" class="node">
<title>Node11</title>
<g id="a_node11"><a xlink:href="space__packet__typedef_8h.html" target="_top" xlink:title="SpacePacket 類 と CommonTlmCmdPacket 類が相互参照するのを回避するためのヘッダ">
<polygon fill="white" stroke="black" points="406.5,-78.5 406.5,-108.5 543.5,-108.5 543.5,-78.5 406.5,-78.5"/>
<text text-anchor="start" x="414.5" y="-96.5" font-family="Helvetica,sans-Serif" font-size="10.00">src_core/TlmCmd/Ccsds</text>
<text text-anchor="middle" x="475" y="-85.5" font-family="Helvetica,sans-Serif" font-size="10.00">/space_packet_typedef.h</text>
</a>
</g>
</g>
<!-- Node10&#45;&gt;Node11 -->
<g id="edge11" class="edge">
<title>Node10&#45;&gt;Node11</title>
<path fill="none" stroke="midnightblue" d="M475,-150.73C475,-141.66 475,-129.66 475,-119.08"/>
<polygon fill="midnightblue" stroke="midnightblue" points="478.5,-118.75 475,-108.75 471.5,-118.75 478.5,-118.75"/>
</g>
<!-- Node12 -->
<g id="node12" class="node">
<title>Node12</title>
<g id="a_node12"><a xlink:href="space__packet__typedef__params_8h.html" target="_top" xlink:title="SpacePacketの パケット型に関するユーザー設定">
<polygon fill="white" stroke="black" points="395,-0.5 395,-41.5 555,-41.5 555,-0.5 395,-0.5"/>
<text text-anchor="start" x="403" y="-29.5" font-family="Helvetica,sans-Serif" font-size="10.00">src_user/Settings/TlmCmd</text>
<text text-anchor="start" x="403" y="-18.5" font-family="Helvetica,sans-Serif" font-size="10.00">/Ccsds/space_packet_typedef</text>
<text text-anchor="middle" x="475" y="-7.5" font-family="Helvetica,sans-Serif" font-size="10.00">_params.h</text>
</a>
</g>
</g>
<!-- Node11&#45;&gt;Node12 -->
<g id="edge12" class="edge">
<title>Node11&#45;&gt;Node12</title>
<path fill="none" stroke="midnightblue" d="M475,-78.23C475,-70.57 475,-60.84 475,-51.63"/>
<polygon fill="midnightblue" stroke="midnightblue" points="478.5,-51.59 475,-41.59 471.5,-51.59 478.5,-51.59"/>
</g>
</g>
</svg>
