<?xml version="1.0" encoding="UTF-8" standalone="no"?>
<!DOCTYPE svg PUBLIC "-//W3C//DTD SVG 1.1//EN"
 "http://www.w3.org/Graphics/SVG/1.1/DTD/svg11.dtd">
<!-- Generated by graphviz version 2.43.0 (0)
 -->
<!-- Title: src/src_core/System/ApplicationManager/app_manager.c Pages: 1 -->
<svg width="1628pt" height="530pt"
 viewBox="0.00 0.00 1627.75 530.00" xmlns="http://www.w3.org/2000/svg" xmlns:xlink="http://www.w3.org/1999/xlink">
<g id="graph0" class="graph" transform="scale(1 1) rotate(0) translate(4 526)">
<title>src/src_core/System/ApplicationManager/app_manager.c</title>
<polygon fill="white" stroke="transparent" points="-4,4 -4,-526 1623.75,-526 1623.75,4 -4,4"/>
<!-- Node1 -->
<g id="node1" class="node">
<title>Node1</title>
<g id="a_node1"><a xlink:title=" ">
<polygon fill="#bfbfbf" stroke="black" points="948,-480.5 948,-521.5 1065,-521.5 1065,-480.5 948,-480.5"/>
<text text-anchor="start" x="956" y="-509.5" font-family="Helvetica,sans-Serif" font-size="10.00">src/src_core/System</text>
<text text-anchor="start" x="956" y="-498.5" font-family="Helvetica,sans-Serif" font-size="10.00">/ApplicationManager</text>
<text text-anchor="middle" x="1006.5" y="-487.5" font-family="Helvetica,sans-Serif" font-size="10.00">/app_manager.c</text>
</a>
</g>
</g>
<!-- Node2 -->
<g id="node2" class="node">
<title>Node2</title>
<g id="a_node2"><a xlink:href="app__manager_8h.html" target="_top" xlink:title=" ">
<polygon fill="white" stroke="black" points="1197.5,-419 1197.5,-438 1289.5,-438 1289.5,-419 1197.5,-419"/>
<text text-anchor="middle" x="1243.5" y="-426" font-family="Helvetica,sans-Serif" font-size="10.00">app_manager.h</text>
</a>
</g>
</g>
<!-- Node1&#45;&gt;Node2 -->
<g id="edge1" class="edge">
<title>Node1&#45;&gt;Node2</title>
<path fill="none" stroke="midnightblue" d="M1065.08,-482.57C1108.75,-469.58 1167.14,-452.22 1205.03,-440.94"/>
<polygon fill="midnightblue" stroke="midnightblue" points="1206.09,-444.28 1214.67,-438.07 1204.09,-437.57 1206.09,-444.28"/>
</g>
<!-- Node7 -->
<g id="node7" class="node">
<title>Node7</title>
<g id="a_node7"><a xlink:href="sils__define_8h.html" target="_top" xlink:title="Switch the build settings between your real OBC and SILS">
<polygon fill="white" stroke="black" points="1014,-0.5 1014,-19.5 1143,-19.5 1143,-0.5 1014,-0.5"/>
<text text-anchor="middle" x="1078.5" y="-7.5" font-family="Helvetica,sans-Serif" font-size="10.00">../Settings/sils_define.h</text>
</a>
</g>
</g>
<!-- Node1&#45;&gt;Node7 -->
<g id="edge30" class="edge">
<title>Node1&#45;&gt;Node7</title>
<path fill="none" stroke="midnightblue" d="M1065.21,-498.29C1206.9,-493.61 1558.87,-478.62 1598.5,-444 1626.51,-419.53 1617.5,-399.69 1617.5,-362.5 1617.5,-362.5 1617.5,-362.5 1617.5,-137.5 1617.5,-43.34 1301.8,-19.21 1153.62,-13.07"/>
<polygon fill="midnightblue" stroke="midnightblue" points="1153.38,-9.56 1143.25,-12.66 1153.1,-16.56 1153.38,-9.56"/>
</g>
<!-- Node18 -->
<g id="node18" class="node">
<title>Node18</title>
<g id="a_node18"><a xlink:href="command__definitions_8h.html" target="_top" xlink:title="コマンド定義">
<polygon fill="white" stroke="black" points="261,-196 261,-226 414,-226 414,-196 261,-196"/>
<text text-anchor="start" x="269" y="-214" font-family="Helvetica,sans-Serif" font-size="10.00">src_user/TlmCmd/command</text>
<text text-anchor="middle" x="337.5" y="-203" font-family="Helvetica,sans-Serif" font-size="10.00">_definitions.h</text>
</a>
</g>
</g>
<!-- Node1&#45;&gt;Node18 -->
<g id="edge55" class="edge">
<title>Node1&#45;&gt;Node18</title>
<path fill="none" stroke="midnightblue" d="M947.93,-499.94C835.03,-498.72 579.97,-490.5 371.5,-444 286.96,-425.14 238.11,-448 188.5,-377 148.19,-319.31 240.9,-260.09 297.59,-230.79"/>
<polygon fill="midnightblue" stroke="midnightblue" points="299.35,-233.82 306.69,-226.18 296.19,-227.57 299.35,-233.82"/>
</g>
<!-- Node21 -->
<g id="node21" class="node">
<title>Node21</title>
<g id="a_node21"><a xlink:title=" ">
<polygon fill="white" stroke="#bfbfbf" points="731,-419 731,-438 784,-438 784,-419 731,-419"/>
<text text-anchor="middle" x="757.5" y="-426" font-family="Helvetica,sans-Serif" font-size="10.00">string.h</text>
</a>
</g>
</g>
<!-- Node1&#45;&gt;Node21 -->
<g id="edge31" class="edge">
<title>Node1&#45;&gt;Node21</title>
<path fill="none" stroke="midnightblue" d="M947.74,-486.91C904.38,-476.71 844.19,-461.38 792.5,-444 790.58,-443.36 788.62,-442.66 786.65,-441.93"/>
<polygon fill="midnightblue" stroke="midnightblue" points="787.53,-438.51 776.94,-438.11 784.97,-445.02 787.53,-438.51"/>
</g>
<!-- Node22 -->
<g id="node22" class="node">
<title>Node22</title>
<g id="a_node22"><a xlink:href="nop_8h.html" target="_top" xlink:title="NOP (No Operation) App">
<polygon fill="white" stroke="black" points="1084,-413.5 1084,-443.5 1179,-443.5 1179,-413.5 1084,-413.5"/>
<text text-anchor="start" x="1092" y="-431.5" font-family="Helvetica,sans-Serif" font-size="10.00">../../Applications</text>
<text text-anchor="middle" x="1131.5" y="-420.5" font-family="Helvetica,sans-Serif" font-size="10.00">/nop.h</text>
</a>
</g>
</g>
<!-- Node1&#45;&gt;Node22 -->
<g id="edge32" class="edge">
<title>Node1&#45;&gt;Node22</title>
<path fill="none" stroke="midnightblue" d="M1041.32,-480.36C1058.91,-470.44 1080.17,-458.45 1097.63,-448.6"/>
<polygon fill="midnightblue" stroke="midnightblue" points="1099.39,-451.63 1106.38,-443.67 1095.95,-445.53 1099.39,-451.63"/>
</g>
<!-- Node23 -->
<g id="node23" class="node">
<title>Node23</title>
<g id="a_node23"><a xlink:href="anomaly__logger_8h.html" target="_top" xlink:title=" ">
<polygon fill="white" stroke="black" points="550.5,-413.5 550.5,-443.5 698.5,-443.5 698.5,-413.5 550.5,-413.5"/>
<text text-anchor="start" x="558.5" y="-431.5" font-family="Helvetica,sans-Serif" font-size="10.00">../AnomalyLogger/anomaly</text>
<text text-anchor="middle" x="624.5" y="-420.5" font-family="Helvetica,sans-Serif" font-size="10.00">_logger.h</text>
</a>
</g>
</g>
<!-- Node1&#45;&gt;Node23 -->
<g id="edge35" class="edge">
<title>Node1&#45;&gt;Node23</title>
<path fill="none" stroke="midnightblue" d="M947.65,-489.14C883.79,-477.35 781.26,-458.43 708.85,-445.07"/>
<polygon fill="midnightblue" stroke="midnightblue" points="709.3,-441.59 698.83,-443.22 708.03,-448.48 709.3,-441.59"/>
</g>
<!-- Node26 -->
<g id="node26" class="node">
<title>Node26</title>
<g id="a_node26"><a xlink:href="event__logger_8h.html" target="_top" xlink:title="アノマリやエラーなどの各種イベントを記録する">
<polygon fill="white" stroke="black" points="802,-413.5 802,-443.5 929,-443.5 929,-413.5 802,-413.5"/>
<text text-anchor="start" x="810" y="-431.5" font-family="Helvetica,sans-Serif" font-size="10.00">../EventManager/event</text>
<text text-anchor="middle" x="865.5" y="-420.5" font-family="Helvetica,sans-Serif" font-size="10.00">_logger.h</text>
</a>
</g>
</g>
<!-- Node1&#45;&gt;Node26 -->
<g id="edge41" class="edge">
<title>Node1&#45;&gt;Node26</title>
<path fill="none" stroke="midnightblue" d="M967.22,-480.36C947.1,-470.3 922.73,-458.12 902.89,-448.2"/>
<polygon fill="midnightblue" stroke="midnightblue" points="904.35,-445.01 893.84,-443.67 901.22,-451.27 904.35,-445.01"/>
</g>
<!-- Node29 -->
<g id="node29" class="node">
<title>Node29</title>
<g id="a_node29"><a xlink:href="time__manager_8h.html" target="_top" xlink:title="OBCの時刻情報を TimeManager 構造体に保持しカウントアップする. その他, 時刻演算に必要な関数も実装する">
<polygon fill="white" stroke="black" points="947,-413.5 947,-443.5 1066,-443.5 1066,-413.5 947,-413.5"/>
<text text-anchor="start" x="955" y="-431.5" font-family="Helvetica,sans-Serif" font-size="10.00">../TimeManager/time</text>
<text text-anchor="middle" x="1006.5" y="-420.5" font-family="Helvetica,sans-Serif" font-size="10.00">_manager.h</text>
</a>
</g>
</g>
<!-- Node1&#45;&gt;Node29 -->
<g id="edge48" class="edge">
<title>Node1&#45;&gt;Node29</title>
<path fill="none" stroke="midnightblue" d="M1006.5,-480.36C1006.5,-472.23 1006.5,-462.7 1006.5,-454.11"/>
<polygon fill="midnightblue" stroke="midnightblue" points="1010,-453.89 1006.5,-443.89 1003,-453.89 1010,-453.89"/>
</g>
<!-- Node30 -->
<g id="node30" class="node">
<title>Node30</title>
<g id="a_node30"><a xlink:href="watchdog__timer_8h.html" target="_top" xlink:title="watchdog timer">
<polygon fill="white" stroke="black" points="380.5,-413.5 380.5,-443.5 532.5,-443.5 532.5,-413.5 380.5,-413.5"/>
<text text-anchor="start" x="388.5" y="-431.5" font-family="Helvetica,sans-Serif" font-size="10.00">../WatchdogTimer/watchdog</text>
<text text-anchor="middle" x="456.5" y="-420.5" font-family="Helvetica,sans-Serif" font-size="10.00">_timer.h</text>
</a>
</g>
</g>
<!-- Node1&#45;&gt;Node30 -->
<g id="edge51" class="edge">
<title>Node1&#45;&gt;Node30</title>
<path fill="none" stroke="midnightblue" d="M947.65,-493.85C861.19,-484.61 694.5,-466 542.89,-444.16"/>
<polygon fill="midnightblue" stroke="midnightblue" points="543.33,-440.69 532.93,-442.72 542.32,-447.62 543.33,-440.69"/>
</g>
<!-- Node32 -->
<g id="node32" class="node">
<title>Node32</title>
<g id="a_node32"><a xlink:href="print_8h.html" target="_top" xlink:title=" ">
<polygon fill="white" stroke="black" points="1486,-419 1486,-438 1589,-438 1589,-419 1486,-419"/>
<text text-anchor="middle" x="1537.5" y="-426" font-family="Helvetica,sans-Serif" font-size="10.00">../../Library/print.h</text>
</a>
</g>
</g>
<!-- Node1&#45;&gt;Node32 -->
<g id="edge56" class="edge">
<title>Node1&#45;&gt;Node32</title>
<path fill="none" stroke="midnightblue" d="M1065.12,-494.77C1153.55,-486.47 1326.2,-468.65 1471.5,-444 1478.11,-442.88 1485.05,-441.54 1491.85,-440.13"/>
<polygon fill="midnightblue" stroke="midnightblue" points="1492.61,-443.54 1501.66,-438.03 1491.15,-436.7 1492.61,-443.54"/>
</g>
<!-- Node33 -->
<g id="node33" class="node">
<title>Node33</title>
<g id="a_node33"><a xlink:href="endian__memcpy_8h.html" target="_top" xlink:title="memcpyのエンディアン対策">
<polygon fill="white" stroke="black" points="1466.5,-123.5 1466.5,-153.5 1570.5,-153.5 1570.5,-123.5 1466.5,-123.5"/>
<text text-anchor="start" x="1474.5" y="-141.5" font-family="Helvetica,sans-Serif" font-size="10.00">../../Library/endian</text>
<text text-anchor="middle" x="1518.5" y="-130.5" font-family="Helvetica,sans-Serif" font-size="10.00">_memcpy.h</text>
</a>
</g>
</g>
<!-- Node1&#45;&gt;Node33 -->
<g id="edge57" class="edge">
<title>Node1&#45;&gt;Node33</title>
<path fill="none" stroke="midnightblue" d="M1065.16,-493.02C1124.88,-484.94 1219.63,-469.37 1298.5,-444 1366.08,-422.26 1396.59,-430.28 1443.5,-377 1498.79,-314.21 1513.34,-210.66 1517.16,-163.84"/>
<polygon fill="midnightblue" stroke="midnightblue" points="1520.66,-163.94 1517.88,-153.72 1513.68,-163.44 1520.66,-163.94"/>
</g>
<!-- Node3 -->
<g id="node3" class="node">
<title>Node3</title>
<g id="a_node3"><a xlink:title=" ">
<polygon fill="white" stroke="#bfbfbf" points="1371.5,-62 1371.5,-81 1427.5,-81 1427.5,-62 1371.5,-62"/>
<text text-anchor="middle" x="1399.5" y="-69" font-family="Helvetica,sans-Serif" font-size="10.00">stddef.h</text>
</a>
</g>
</g>
<!-- Node2&#45;&gt;Node3 -->
<g id="edge2" class="edge">
<title>Node2&#45;&gt;Node3</title>
<path fill="none" stroke="midnightblue" d="M1289.89,-426.78C1329.87,-423.59 1386.23,-412.48 1419.5,-377 1446.57,-348.13 1438.5,-329.58 1438.5,-290 1438.5,-290 1438.5,-290 1438.5,-210 1438.5,-165.73 1419.56,-116.38 1408.07,-90.53"/>
<polygon fill="midnightblue" stroke="midnightblue" points="1411.17,-88.89 1403.82,-81.26 1404.81,-91.81 1411.17,-88.89"/>
</g>
<!-- Node4 -->
<g id="node4" class="node">
<title>Node4</title>
<g id="a_node4"><a xlink:href="app__info_8h.html" target="_top" xlink:title="App 情報構造体定義と App 作成">
<polygon fill="white" stroke="black" points="1184.5,-352 1184.5,-371 1252.5,-371 1252.5,-352 1184.5,-352"/>
<text text-anchor="middle" x="1218.5" y="-359" font-family="Helvetica,sans-Serif" font-size="10.00">app_info.h</text>
</a>
</g>
</g>
<!-- Node2&#45;&gt;Node4 -->
<g id="edge3" class="edge">
<title>Node2&#45;&gt;Node4</title>
<path fill="none" stroke="midnightblue" d="M1240.13,-418.73C1236.38,-408.99 1230.22,-392.98 1225.44,-380.53"/>
<polygon fill="midnightblue" stroke="midnightblue" points="1228.67,-379.2 1221.82,-371.13 1222.14,-381.72 1228.67,-379.2"/>
</g>
<!-- Node9 -->
<g id="node9" class="node">
<title>Node9</title>
<g id="a_node9"><a xlink:href="common__tlm__cmd__packet_8h.html" target="_top" xlink:title="CTCP 関連基本関数の宣言">
<polygon fill="white" stroke="black" points="1006.5,-346.5 1006.5,-376.5 1128.5,-376.5 1128.5,-346.5 1006.5,-346.5"/>
<text text-anchor="start" x="1014.5" y="-364.5" font-family="Helvetica,sans-Serif" font-size="10.00">../../TlmCmd/common</text>
<text text-anchor="middle" x="1067.5" y="-353.5" font-family="Helvetica,sans-Serif" font-size="10.00">_tlm_cmd_packet.h</text>
</a>
</g>
</g>
<!-- Node2&#45;&gt;Node9 -->
<g id="edge8" class="edge">
<title>Node2&#45;&gt;Node9</title>
<path fill="none" stroke="midnightblue" d="M1220.13,-418.87C1193.49,-409.03 1149.24,-392.69 1115.23,-380.13"/>
<polygon fill="midnightblue" stroke="midnightblue" points="1116.08,-376.71 1105.48,-376.53 1113.65,-383.28 1116.08,-376.71"/>
</g>
<!-- Node20 -->
<g id="node20" class="node">
<title>Node20</title>
<g id="a_node20"><a xlink:href="_app_manager_params_8h.html" target="_top" xlink:title="AMのCoreパラメタのオーバーライド用ヘッダー">
<polygon fill="white" stroke="black" points="1270.5,-346.5 1270.5,-376.5 1410.5,-376.5 1410.5,-346.5 1270.5,-346.5"/>
<text text-anchor="start" x="1278.5" y="-364.5" font-family="Helvetica,sans-Serif" font-size="10.00">src_user/Settings/System</text>
<text text-anchor="middle" x="1340.5" y="-353.5" font-family="Helvetica,sans-Serif" font-size="10.00">/AppManagerParams.h</text>
</a>
</g>
</g>
<!-- Node2&#45;&gt;Node20 -->
<g id="edge29" class="edge">
<title>Node2&#45;&gt;Node20</title>
<path fill="none" stroke="midnightblue" d="M1256.58,-418.73C1270.45,-409.44 1292.8,-394.46 1310.96,-382.3"/>
<polygon fill="midnightblue" stroke="midnightblue" points="1313.12,-385.06 1319.47,-376.59 1309.22,-379.25 1313.12,-385.06"/>
</g>
<!-- Node5 -->
<g id="node5" class="node">
<title>Node5</title>
<g id="a_node5"><a xlink:href="obc__time_8h.html" target="_top" xlink:title="OBCの時刻情報の定義と演算">
<polygon fill="white" stroke="black" points="530,-196 530,-226 643,-226 643,-196 530,-196"/>
<text text-anchor="start" x="538" y="-214" font-family="Helvetica,sans-Serif" font-size="10.00">../TimeManager/obc</text>
<text text-anchor="middle" x="586.5" y="-203" font-family="Helvetica,sans-Serif" font-size="10.00">_time.h</text>
</a>
</g>
</g>
<!-- Node4&#45;&gt;Node5 -->
<g id="edge4" class="edge">
<title>Node4&#45;&gt;Node5</title>
<path fill="none" stroke="midnightblue" d="M1184.26,-354.06C1169.85,-351.43 1152.88,-348.44 1137.5,-346 1022.28,-327.72 980.62,-364.54 877.5,-310 855.25,-298.23 861.26,-280.65 839.5,-268 831.35,-263.26 725.41,-240.72 653.23,-225.72"/>
<polygon fill="midnightblue" stroke="midnightblue" points="653.79,-222.26 643.29,-223.66 652.37,-229.12 653.79,-222.26"/>
</g>
<!-- Node6 -->
<g id="node6" class="node">
<title>Node6</title>
<g id="a_node6"><a xlink:href="stdint_8h.html" target="_top" xlink:title=" ">
<polygon fill="white" stroke="black" points="472.5,-62 472.5,-81 606.5,-81 606.5,-62 472.5,-62"/>
<text text-anchor="middle" x="539.5" y="-69" font-family="Helvetica,sans-Serif" font-size="10.00">src_user/Library/stdint.h</text>
</a>
</g>
</g>
<!-- Node5&#45;&gt;Node6 -->
<g id="edge5" class="edge">
<title>Node5&#45;&gt;Node6</title>
<path fill="none" stroke="midnightblue" d="M578.16,-195.68C572.01,-184.6 563.81,-168.72 558.5,-154 550.97,-133.13 545.66,-108.15 542.6,-91.39"/>
<polygon fill="midnightblue" stroke="midnightblue" points="546,-90.51 540.85,-81.26 539.11,-91.71 546,-90.51"/>
</g>
<!-- Node8 -->
<g id="node8" class="node">
<title>Node8</title>
<g id="a_node8"><a xlink:href="obc__time__params_8h.html" target="_top" xlink:title="OBCTのCoreパラメタのオーバーライド用ヘッダー">
<polygon fill="white" stroke="black" points="567.5,-123.5 567.5,-153.5 707.5,-153.5 707.5,-123.5 567.5,-123.5"/>
<text text-anchor="start" x="575.5" y="-141.5" font-family="Helvetica,sans-Serif" font-size="10.00">src_user/Settings/System</text>
<text text-anchor="middle" x="637.5" y="-130.5" font-family="Helvetica,sans-Serif" font-size="10.00">/obc_time_params.h</text>
</a>
</g>
</g>
<!-- Node5&#45;&gt;Node8 -->
<g id="edge7" class="edge">
<title>Node5&#45;&gt;Node8</title>
<path fill="none" stroke="midnightblue" d="M596.82,-195.73C603.8,-186.08 613.17,-173.13 621.16,-162.09"/>
<polygon fill="midnightblue" stroke="midnightblue" points="624.17,-163.9 627.19,-153.75 618.5,-159.8 624.17,-163.9"/>
</g>
<!-- Node6&#45;&gt;Node7 -->
<g id="edge6" class="edge">
<title>Node6&#45;&gt;Node7</title>
<path fill="none" stroke="midnightblue" d="M606.67,-63.08C707.73,-51.93 898.21,-30.9 1003.61,-19.27"/>
<polygon fill="midnightblue" stroke="midnightblue" points="1004.29,-22.71 1013.85,-18.14 1003.52,-15.76 1004.29,-22.71"/>
</g>
<!-- Node10 -->
<g id="node10" class="node">
<title>Node10</title>
<g id="a_node10"><a xlink:href="common__tlm__cmd__packet__define_8h.html" target="_top" xlink:title="CTCP 型の定義">
<polygon fill="white" stroke="black" points="1147.5,-190.5 1147.5,-231.5 1295.5,-231.5 1295.5,-190.5 1147.5,-190.5"/>
<text text-anchor="start" x="1155.5" y="-219.5" font-family="Helvetica,sans-Serif" font-size="10.00">src_user/Settings/TlmCmd</text>
<text text-anchor="start" x="1155.5" y="-208.5" font-family="Helvetica,sans-Serif" font-size="10.00">/common_tlm_cmd_packet</text>
<text text-anchor="middle" x="1221.5" y="-197.5" font-family="Helvetica,sans-Serif" font-size="10.00">_define.h</text>
</a>
</g>
</g>
<!-- Node9&#45;&gt;Node10 -->
<g id="edge9" class="edge">
<title>Node9&#45;&gt;Node10</title>
<path fill="none" stroke="midnightblue" d="M1128.52,-348.91C1152.42,-341.5 1178.19,-329.45 1195.5,-310 1212.12,-291.33 1218.3,-263.21 1220.51,-241.88"/>
<polygon fill="midnightblue" stroke="midnightblue" points="1224.01,-241.97 1221.32,-231.73 1217.04,-241.42 1224.01,-241.97"/>
</g>
<!-- Node13 -->
<g id="node13" class="node">
<title>Node13</title>
<g id="a_node13"><a xlink:href="apid__define_8h.html" target="_top" xlink:title="CCSDS の APID を定義する">
<polygon fill="white" stroke="black" points="1060.5,-56.5 1060.5,-86.5 1204.5,-86.5 1204.5,-56.5 1060.5,-56.5"/>
<text text-anchor="start" x="1068.5" y="-74.5" font-family="Helvetica,sans-Serif" font-size="10.00">src_user/Settings/TlmCmd</text>
<text text-anchor="middle" x="1132.5" y="-63.5" font-family="Helvetica,sans-Serif" font-size="10.00">/Ccsds/apid_define.h</text>
</a>
</g>
</g>
<!-- Node9&#45;&gt;Node13 -->
<g id="edge28" class="edge">
<title>Node9&#45;&gt;Node13</title>
<path fill="none" stroke="midnightblue" d="M1128.75,-349.08C1188.41,-334.09 1274.38,-301.07 1304.5,-232 1333.09,-166.45 1241.52,-115.78 1181.19,-90.42"/>
<polygon fill="midnightblue" stroke="midnightblue" points="1182.38,-87.12 1171.8,-86.56 1179.73,-93.6 1182.38,-87.12"/>
</g>
<!-- Node14 -->
<g id="node14" class="node">
<title>Node14</title>
<g id="a_node14"><a xlink:href="common__tlm__cmd__packet__params_8h.html" target="_top" xlink:title="CTCP パラメタのオーバーライド用ヘッダー">
<polygon fill="white" stroke="black" points="886.5,-268.5 886.5,-309.5 1034.5,-309.5 1034.5,-268.5 886.5,-268.5"/>
<text text-anchor="start" x="894.5" y="-297.5" font-family="Helvetica,sans-Serif" font-size="10.00">src_user/Settings/TlmCmd</text>
<text text-anchor="start" x="894.5" y="-286.5" font-family="Helvetica,sans-Serif" font-size="10.00">/common_tlm_cmd_packet</text>
<text text-anchor="middle" x="960.5" y="-275.5" font-family="Helvetica,sans-Serif" font-size="10.00">_params.h</text>
</a>
</g>
</g>
<!-- Node9&#45;&gt;Node14 -->
<g id="edge16" class="edge">
<title>Node9&#45;&gt;Node14</title>
<path fill="none" stroke="midnightblue" d="M1046.1,-346.4C1032.62,-337.52 1014.82,-325.79 998.95,-315.33"/>
<polygon fill="midnightblue" stroke="midnightblue" points="1000.64,-312.26 990.37,-309.68 996.79,-318.1 1000.64,-312.26"/>
</g>
<!-- Node15 -->
<g id="node15" class="node">
<title>Node15</title>
<g id="a_node15"><a xlink:href="common__tlm__packet_8h.html" target="_top" xlink:title="CTP 関連基本関数の宣言">
<polygon fill="white" stroke="black" points="1052.5,-279.5 1052.5,-298.5 1186.5,-298.5 1186.5,-279.5 1052.5,-279.5"/>
<text text-anchor="middle" x="1119.5" y="-286.5" font-family="Helvetica,sans-Serif" font-size="10.00">./common_tlm_packet.h</text>
</a>
</g>
</g>
<!-- Node9&#45;&gt;Node15 -->
<g id="edge18" class="edge">
<title>Node9&#45;&gt;Node15</title>
<path fill="none" stroke="midnightblue" d="M1078.02,-346.23C1086.35,-334.95 1098,-319.15 1106.83,-307.17"/>
<polygon fill="midnightblue" stroke="midnightblue" points="1109.82,-309.02 1112.94,-298.89 1104.19,-304.86 1109.82,-309.02"/>
</g>
<!-- Node17 -->
<g id="node17" class="node">
<title>Node17</title>
<g id="a_node17"><a xlink:href="common__cmd__packet_8h.html" target="_top" xlink:title="CCP 関連基本関数の宣言">
<polygon fill="white" stroke="black" points="692.5,-279.5 692.5,-298.5 830.5,-298.5 830.5,-279.5 692.5,-279.5"/>
<text text-anchor="middle" x="761.5" y="-286.5" font-family="Helvetica,sans-Serif" font-size="10.00">./common_cmd_packet.h</text>
</a>
</g>
</g>
<!-- Node9&#45;&gt;Node17 -->
<g id="edge22" class="edge">
<title>Node9&#45;&gt;Node17</title>
<path fill="none" stroke="midnightblue" d="M1006.4,-346.9C961.56,-336.86 899.2,-322.78 844.5,-310 832.21,-307.13 818.91,-303.95 806.64,-301"/>
<polygon fill="midnightblue" stroke="midnightblue" points="807.15,-297.52 796.61,-298.57 805.51,-304.32 807.15,-297.52"/>
</g>
<!-- Node11 -->
<g id="node11" class="node">
<title>Node11</title>
<g id="a_node11"><a xlink:href="_t_c_packet_8h.html" target="_top" xlink:title=" ">
<polygon fill="white" stroke="black" points="929,-123.5 929,-153.5 1062,-153.5 1062,-123.5 929,-123.5"/>
<text text-anchor="start" x="937" y="-141.5" font-family="Helvetica,sans-Serif" font-size="10.00">src_core/TlmCmd/Ccsds</text>
<text text-anchor="middle" x="995.5" y="-130.5" font-family="Helvetica,sans-Serif" font-size="10.00">/TCPacket.h</text>
</a>
</g>
</g>
<!-- Node10&#45;&gt;Node11 -->
<g id="edge10" class="edge">
<title>Node10&#45;&gt;Node11</title>
<path fill="none" stroke="midnightblue" d="M1158.85,-190.46C1124.87,-179.86 1083.26,-166.88 1050.54,-156.67"/>
<polygon fill="midnightblue" stroke="midnightblue" points="1051.28,-153.23 1040.69,-153.6 1049.19,-159.92 1051.28,-153.23"/>
</g>
<!-- Node10&#45;&gt;Node13 -->
<g id="edge15" class="edge">
<title>Node10&#45;&gt;Node13</title>
<path fill="none" stroke="midnightblue" d="M1208.75,-190.3C1192.5,-165.19 1164.45,-121.87 1147.28,-95.34"/>
<polygon fill="midnightblue" stroke="midnightblue" points="1150.07,-93.21 1141.7,-86.72 1144.2,-97.01 1150.07,-93.21"/>
</g>
<!-- Node11&#45;&gt;Node3 -->
<g id="edge11" class="edge">
<title>Node11&#45;&gt;Node3</title>
<path fill="none" stroke="midnightblue" d="M1062.21,-126.77C1147.69,-113.01 1293,-89.64 1361.55,-78.61"/>
<polygon fill="midnightblue" stroke="midnightblue" points="1362.17,-82.05 1371.49,-77.01 1361.06,-75.14 1362.17,-82.05"/>
</g>
<!-- Node11&#45;&gt;Node6 -->
<g id="edge12" class="edge">
<title>Node11&#45;&gt;Node6</title>
<path fill="none" stroke="midnightblue" d="M928.71,-127.98C843.28,-115.8 696.04,-94.81 609.22,-82.44"/>
<polygon fill="midnightblue" stroke="midnightblue" points="609.6,-78.96 599.2,-81.01 608.61,-85.89 609.6,-78.96"/>
</g>
<!-- Node12 -->
<g id="node12" class="node">
<title>Node12</title>
<g id="a_node12"><a xlink:href="tcpacket__params_8h.html" target="_top" xlink:title="TCP のユーザー設定">
<polygon fill="white" stroke="black" points="898.5,-56.5 898.5,-86.5 1042.5,-86.5 1042.5,-56.5 898.5,-56.5"/>
<text text-anchor="start" x="906.5" y="-74.5" font-family="Helvetica,sans-Serif" font-size="10.00">src_user/Settings/TlmCmd</text>
<text text-anchor="middle" x="970.5" y="-63.5" font-family="Helvetica,sans-Serif" font-size="10.00">/Ccsds/tcpacket_params.h</text>
</a>
</g>
</g>
<!-- Node11&#45;&gt;Node12 -->
<g id="edge13" class="edge">
<title>Node11&#45;&gt;Node12</title>
<path fill="none" stroke="midnightblue" d="M990.08,-123.4C987,-115.39 983.06,-105.16 979.53,-95.98"/>
<polygon fill="midnightblue" stroke="midnightblue" points="982.77,-94.65 975.91,-86.58 976.24,-97.17 982.77,-94.65"/>
</g>
<!-- Node11&#45;&gt;Node13 -->
<g id="edge14" class="edge">
<title>Node11&#45;&gt;Node13</title>
<path fill="none" stroke="midnightblue" d="M1025.23,-123.4C1045.24,-113.9 1071.85,-101.28 1093.55,-90.98"/>
<polygon fill="midnightblue" stroke="midnightblue" points="1095.3,-94.03 1102.83,-86.58 1092.3,-87.7 1095.3,-94.03"/>
</g>
<!-- Node14&#45;&gt;Node11 -->
<g id="edge17" class="edge">
<title>Node14&#45;&gt;Node11</title>
<path fill="none" stroke="midnightblue" d="M939.85,-268.49C930.83,-258.54 921.23,-245.67 916.5,-232 910.4,-214.36 907.53,-206.37 916.5,-190 923.81,-176.66 936.3,-166.33 949.23,-158.59"/>
<polygon fill="midnightblue" stroke="midnightblue" points="951.13,-161.54 958.19,-153.64 947.74,-155.41 951.13,-161.54"/>
</g>
<!-- Node15&#45;&gt;Node13 -->
<g id="edge21" class="edge">
<title>Node15&#45;&gt;Node13</title>
<path fill="none" stroke="midnightblue" d="M1120.03,-279.29C1121.88,-248.53 1128.16,-144.36 1131.04,-96.68"/>
<polygon fill="midnightblue" stroke="midnightblue" points="1134.54,-96.83 1131.65,-86.63 1127.55,-96.4 1134.54,-96.83"/>
</g>
<!-- Node16 -->
<g id="node16" class="node">
<title>Node16</title>
<g id="a_node16"><a xlink:href="common__tlm__packet__define_8h.html" target="_top" xlink:title="CTP 型の定義">
<polygon fill="white" stroke="black" points="925.5,-196 925.5,-226 1091.5,-226 1091.5,-196 925.5,-196"/>
<text text-anchor="start" x="933.5" y="-214" font-family="Helvetica,sans-Serif" font-size="10.00">src_user/Settings/TlmCmd</text>
<text text-anchor="middle" x="1008.5" y="-203" font-family="Helvetica,sans-Serif" font-size="10.00">/common_tlm_packet_define.h</text>
</a>
</g>
</g>
<!-- Node15&#45;&gt;Node16 -->
<g id="edge19" class="edge">
<title>Node15&#45;&gt;Node16</title>
<path fill="none" stroke="midnightblue" d="M1106.77,-279.28C1089.98,-267.79 1059.93,-247.22 1037.47,-231.84"/>
<polygon fill="midnightblue" stroke="midnightblue" points="1039.2,-228.78 1028.98,-226.02 1035.25,-234.56 1039.2,-228.78"/>
</g>
<!-- Node16&#45;&gt;Node11 -->
<g id="edge20" class="edge">
<title>Node16&#45;&gt;Node11</title>
<path fill="none" stroke="midnightblue" d="M1005.87,-195.73C1004.18,-186.56 1001.94,-174.41 999.97,-163.74"/>
<polygon fill="midnightblue" stroke="midnightblue" points="1003.38,-162.94 998.13,-153.75 996.5,-164.21 1003.38,-162.94"/>
</g>
<!-- Node17&#45;&gt;Node5 -->
<g id="edge23" class="edge">
<title>Node17&#45;&gt;Node5</title>
<path fill="none" stroke="midnightblue" d="M741.77,-279.43C714.36,-267.53 664.1,-245.7 628.18,-230.1"/>
<polygon fill="midnightblue" stroke="midnightblue" points="629.49,-226.85 618.92,-226.08 626.7,-233.28 629.49,-226.85"/>
</g>
<!-- Node17&#45;&gt;Node13 -->
<g id="edge27" class="edge">
<title>Node17&#45;&gt;Node13</title>
<path fill="none" stroke="midnightblue" d="M743.01,-279.48C725.83,-270.42 701.32,-254.32 690.5,-232 682.36,-215.2 679.31,-204.94 690.5,-190 712.3,-160.91 929.03,-113.33 1050.69,-88.58"/>
<polygon fill="midnightblue" stroke="midnightblue" points="1051.62,-91.97 1060.72,-86.55 1050.23,-85.1 1051.62,-91.97"/>
</g>
<!-- Node17&#45;&gt;Node18 -->
<g id="edge24" class="edge">
<title>Node17&#45;&gt;Node18</title>
<path fill="none" stroke="midnightblue" d="M713.69,-279.43C643.51,-266.85 511.5,-243.19 424.02,-227.51"/>
<polygon fill="midnightblue" stroke="midnightblue" points="424.57,-224.05 414.11,-225.73 423.34,-230.94 424.57,-224.05"/>
</g>
<!-- Node19 -->
<g id="node19" class="node">
<title>Node19</title>
<g id="a_node19"><a xlink:href="common__cmd__packet__define_8h.html" target="_top" xlink:title="CCP 型の定義">
<polygon fill="white" stroke="black" points="699.5,-196 699.5,-226 869.5,-226 869.5,-196 699.5,-196"/>
<text text-anchor="start" x="707.5" y="-214" font-family="Helvetica,sans-Serif" font-size="10.00">src_user/Settings/TlmCmd</text>
<text text-anchor="middle" x="784.5" y="-203" font-family="Helvetica,sans-Serif" font-size="10.00">/common_cmd_packet_define.h</text>
</a>
</g>
</g>
<!-- Node17&#45;&gt;Node19 -->
<g id="edge25" class="edge">
<title>Node17&#45;&gt;Node19</title>
<path fill="none" stroke="midnightblue" d="M764.14,-279.28C767.34,-268.7 772.87,-250.43 777.36,-235.6"/>
<polygon fill="midnightblue" stroke="midnightblue" points="780.71,-236.6 780.26,-226.02 774.01,-234.58 780.71,-236.6"/>
</g>
<!-- Node19&#45;&gt;Node11 -->
<g id="edge26" class="edge">
<title>Node19&#45;&gt;Node11</title>
<path fill="none" stroke="midnightblue" d="M826.44,-195.99C860.05,-184.76 907.4,-168.94 943.44,-156.9"/>
<polygon fill="midnightblue" stroke="midnightblue" points="944.9,-160.1 953.28,-153.61 942.69,-153.46 944.9,-160.1"/>
</g>
<!-- Node22&#45;&gt;Node4 -->
<g id="edge33" class="edge">
<title>Node22&#45;&gt;Node4</title>
<path fill="none" stroke="midnightblue" d="M1150.38,-413.4C1164.61,-402.76 1184.1,-388.2 1198.58,-377.38"/>
<polygon fill="midnightblue" stroke="midnightblue" points="1200.95,-379.98 1206.86,-371.19 1196.76,-374.38 1200.95,-379.98"/>
</g>
<!-- Node22&#45;&gt;Node9 -->
<g id="edge34" class="edge">
<title>Node22&#45;&gt;Node9</title>
<path fill="none" stroke="midnightblue" d="M1117.61,-413.4C1109.14,-404.79 1098.15,-393.63 1088.61,-383.94"/>
<polygon fill="midnightblue" stroke="midnightblue" points="1090.87,-381.25 1081.36,-376.58 1085.88,-386.16 1090.87,-381.25"/>
</g>
<!-- Node23&#45;&gt;Node3 -->
<g id="edge36" class="edge">
<title>Node23&#45;&gt;Node3</title>
<path fill="none" stroke="midnightblue" d="M623.19,-413.44C622.33,-394.86 624,-362.54 643.5,-346 737.25,-266.48 1079.74,-351.36 1195.5,-310 1251.6,-289.96 1264.18,-275.85 1304.5,-232 1315.44,-220.1 1367.54,-128.97 1389.6,-90.04"/>
<polygon fill="midnightblue" stroke="midnightblue" points="1392.75,-91.57 1394.63,-81.15 1386.66,-88.13 1392.75,-91.57"/>
</g>
<!-- Node23&#45;&gt;Node5 -->
<g id="edge37" class="edge">
<title>Node23&#45;&gt;Node5</title>
<path fill="none" stroke="midnightblue" d="M550.33,-414.28C547.35,-413.83 544.4,-413.4 541.5,-413 465.6,-402.4 249.79,-433.95 198.5,-377 189.28,-366.76 190.5,-357.22 198.5,-346 236.43,-292.77 419.25,-247.02 519.82,-225.36"/>
<polygon fill="midnightblue" stroke="midnightblue" points="520.83,-228.72 529.88,-223.21 519.37,-221.88 520.83,-228.72"/>
</g>
<!-- Node23&#45;&gt;Node9 -->
<g id="edge38" class="edge">
<title>Node23&#45;&gt;Node9</title>
<path fill="none" stroke="midnightblue" d="M698.64,-416.39C706.36,-415.24 714.09,-414.09 721.5,-413 816.52,-398.96 926.25,-382.99 996.21,-372.83"/>
<polygon fill="midnightblue" stroke="midnightblue" points="996.85,-376.28 1006.24,-371.38 995.84,-369.35 996.85,-376.28"/>
</g>
<!-- Node24 -->
<g id="node24" class="node">
<title>Node24</title>
<g id="a_node24"><a xlink:href="anomaly__group_8h.html" target="_top" xlink:title=" ">
<polygon fill="white" stroke="black" points="207.5,-346.5 207.5,-376.5 353.5,-376.5 353.5,-346.5 207.5,-346.5"/>
<text text-anchor="start" x="215.5" y="-364.5" font-family="Helvetica,sans-Serif" font-size="10.00">src_user/Settings/Anomaly</text>
<text text-anchor="middle" x="280.5" y="-353.5" font-family="Helvetica,sans-Serif" font-size="10.00">Logger/anomaly_group.h</text>
</a>
</g>
</g>
<!-- Node23&#45;&gt;Node24 -->
<g id="edge39" class="edge">
<title>Node23&#45;&gt;Node24</title>
<path fill="none" stroke="midnightblue" d="M550.28,-413.48C495.41,-403.11 420.65,-388.98 363.75,-378.23"/>
<polygon fill="midnightblue" stroke="midnightblue" points="364.18,-374.75 353.7,-376.33 362.88,-381.63 364.18,-374.75"/>
</g>
<!-- Node25 -->
<g id="node25" class="node">
<title>Node25</title>
<g id="a_node25"><a xlink:href="anomaly__logger__params_8h.html" target="_top" xlink:title="ALのCoreパラメタのオーバーライド用ヘッダー">
<polygon fill="white" stroke="black" points="372,-346.5 372,-376.5 521,-376.5 521,-346.5 372,-346.5"/>
<text text-anchor="start" x="380" y="-364.5" font-family="Helvetica,sans-Serif" font-size="10.00">src_user/Settings/System</text>
<text text-anchor="middle" x="446.5" y="-353.5" font-family="Helvetica,sans-Serif" font-size="10.00">/anomaly_logger_params.h</text>
</a>
</g>
</g>
<!-- Node23&#45;&gt;Node25 -->
<g id="edge40" class="edge">
<title>Node23&#45;&gt;Node25</title>
<path fill="none" stroke="midnightblue" d="M585.88,-413.4C559.05,-403.6 523.12,-390.48 494.47,-380.02"/>
<polygon fill="midnightblue" stroke="midnightblue" points="495.64,-376.72 485.05,-376.58 493.24,-383.29 495.64,-376.72"/>
</g>
<!-- Node26&#45;&gt;Node3 -->
<g id="edge42" class="edge">
<title>Node26&#45;&gt;Node3</title>
<path fill="none" stroke="midnightblue" d="M929.09,-414.62C931.93,-414.07 934.74,-413.53 937.5,-413 1026.22,-396.08 1055.45,-414.75 1137.5,-377 1157.3,-367.89 1156.6,-356.86 1175.5,-346 1215.01,-323.3 1236.06,-338.64 1271.5,-310 1345.38,-250.28 1382.54,-136.12 1394.79,-91.26"/>
<polygon fill="midnightblue" stroke="midnightblue" points="1398.22,-91.99 1397.37,-81.43 1391.45,-90.21 1398.22,-91.99"/>
</g>
<!-- Node26&#45;&gt;Node5 -->
<g id="edge45" class="edge">
<title>Node26&#45;&gt;Node5</title>
<path fill="none" stroke="midnightblue" d="M801.85,-414.6C738.4,-401.5 649.51,-382.39 643.5,-377 602.6,-340.33 591.04,-272.87 587.78,-236.61"/>
<polygon fill="midnightblue" stroke="midnightblue" points="591.25,-236.13 587.01,-226.42 584.27,-236.66 591.25,-236.13"/>
</g>
<!-- Node26&#45;&gt;Node6 -->
<g id="edge43" class="edge">
<title>Node26&#45;&gt;Node6</title>
<path fill="none" stroke="midnightblue" d="M801.7,-414.71C728.25,-399.97 617.48,-377.66 616.5,-377 552.41,-333.8 542.78,-306.01 520.5,-232 505.54,-182.29 522.38,-120.55 532.68,-90.55"/>
<polygon fill="midnightblue" stroke="midnightblue" points="536.02,-91.61 536.12,-81.01 529.44,-89.24 536.02,-91.61"/>
</g>
<!-- Node26&#45;&gt;Node9 -->
<g id="edge44" class="edge">
<title>Node26&#45;&gt;Node9</title>
<path fill="none" stroke="midnightblue" d="M909.33,-413.4C940.04,-403.52 981.25,-390.25 1013.91,-379.74"/>
<polygon fill="midnightblue" stroke="midnightblue" points="1015.31,-382.97 1023.75,-376.58 1013.16,-376.31 1015.31,-382.97"/>
</g>
<!-- Node27 -->
<g id="node27" class="node">
<title>Node27</title>
<g id="a_node27"><a xlink:href="event__logger__group_8h.html" target="_top" xlink:title="event_logger の イベント識別IDを定義">
<polygon fill="white" stroke="black" points="652.5,-346.5 652.5,-376.5 792.5,-376.5 792.5,-346.5 652.5,-346.5"/>
<text text-anchor="start" x="660.5" y="-364.5" font-family="Helvetica,sans-Serif" font-size="10.00">src_user/Settings/System</text>
<text text-anchor="middle" x="722.5" y="-353.5" font-family="Helvetica,sans-Serif" font-size="10.00">/event_logger_group.h</text>
</a>
</g>
</g>
<!-- Node26&#45;&gt;Node27 -->
<g id="edge46" class="edge">
<title>Node26&#45;&gt;Node27</title>
<path fill="none" stroke="midnightblue" d="M834.47,-413.4C813.48,-403.86 785.56,-391.16 762.85,-380.84"/>
<polygon fill="midnightblue" stroke="midnightblue" points="764.02,-377.53 753.47,-376.58 761.12,-383.9 764.02,-377.53"/>
</g>
<!-- Node28 -->
<g id="node28" class="node">
<title>Node28</title>
<g id="a_node28"><a xlink:href="event__logger__params_8h.html" target="_top" xlink:title="event_logger の各種設定 各パラメタ類の詳細は event_logger.h を参照すること">
<polygon fill="white" stroke="black" points="810.5,-346.5 810.5,-376.5 950.5,-376.5 950.5,-346.5 810.5,-346.5"/>
<text text-anchor="start" x="818.5" y="-364.5" font-family="Helvetica,sans-Serif" font-size="10.00">src_user/Settings/System</text>
<text text-anchor="middle" x="880.5" y="-353.5" font-family="Helvetica,sans-Serif" font-size="10.00">/event_logger_params.h</text>
</a>
</g>
</g>
<!-- Node26&#45;&gt;Node28 -->
<g id="edge47" class="edge">
<title>Node26&#45;&gt;Node28</title>
<path fill="none" stroke="midnightblue" d="M868.75,-413.4C870.56,-405.56 872.86,-395.6 874.95,-386.57"/>
<polygon fill="midnightblue" stroke="midnightblue" points="878.41,-387.11 877.25,-376.58 871.59,-385.53 878.41,-387.11"/>
</g>
<!-- Node29&#45;&gt;Node5 -->
<g id="edge49" class="edge">
<title>Node29&#45;&gt;Node5</title>
<path fill="none" stroke="midnightblue" d="M1002.6,-413.27C996.66,-394.5 983.41,-361.96 959.5,-346 856.62,-277.31 794.34,-364.93 683.5,-310 648.5,-292.66 618.72,-257.61 601.71,-234.48"/>
<polygon fill="midnightblue" stroke="midnightblue" points="604.5,-232.36 595.84,-226.25 598.8,-236.43 604.5,-232.36"/>
</g>
<!-- Node29&#45;&gt;Node9 -->
<g id="edge50" class="edge">
<title>Node29&#45;&gt;Node9</title>
<path fill="none" stroke="midnightblue" d="M1019.74,-413.4C1027.81,-404.79 1038.29,-393.63 1047.37,-383.94"/>
<polygon fill="midnightblue" stroke="midnightblue" points="1050,-386.26 1054.29,-376.58 1044.89,-381.47 1050,-386.26"/>
</g>
<!-- Node30&#45;&gt;Node9 -->
<g id="edge54" class="edge">
<title>Node30&#45;&gt;Node9</title>
<path fill="none" stroke="midnightblue" d="M532.91,-414.16C535.81,-413.75 538.68,-413.36 541.5,-413 726.45,-389.3 774.16,-397.41 959.5,-377 971.4,-375.69 984.02,-374.14 996.27,-372.55"/>
<polygon fill="midnightblue" stroke="midnightblue" points="996.99,-375.99 1006.45,-371.21 996.08,-369.05 996.99,-375.99"/>
</g>
<!-- Node31 -->
<g id="node31" class="node">
<title>Node31</title>
<g id="a_node31"><a xlink:href="wdt_8h.html" target="_top" xlink:title="watchdog timer の IF wapper">
<polygon fill="white" stroke="black" points="0,-279.5 0,-298.5 113,-298.5 113,-279.5 0,-279.5"/>
<text text-anchor="middle" x="56.5" y="-286.5" font-family="Helvetica,sans-Serif" font-size="10.00">../../IfWrapper/wdt.h</text>
</a>
</g>
</g>
<!-- Node30&#45;&gt;Node31 -->
<g id="edge52" class="edge">
<title>Node30&#45;&gt;Node31</title>
<path fill="none" stroke="midnightblue" d="M380.24,-424.62C319.7,-419.94 234.12,-407.87 165.5,-377 127.27,-359.8 90.89,-326.07 71.35,-306.04"/>
<polygon fill="midnightblue" stroke="midnightblue" points="73.7,-303.43 64.27,-298.62 68.64,-308.27 73.7,-303.43"/>
</g>
<!-- Node31&#45;&gt;Node6 -->
<g id="edge53" class="edge">
<title>Node31&#45;&gt;Node6</title>
<path fill="none" stroke="midnightblue" d="M72.47,-279.44C105.5,-261.85 183.89,-220.72 251.5,-190 342.95,-148.44 453.56,-105.24 507.2,-84.73"/>
<polygon fill="midnightblue" stroke="midnightblue" points="508.74,-87.88 516.84,-81.05 506.25,-81.34 508.74,-87.88"/>
</g>
<!-- Node33&#45;&gt;Node3 -->
<g id="edge58" class="edge">
<title>Node33&#45;&gt;Node3</title>
<path fill="none" stroke="midnightblue" d="M1492.68,-123.4C1472.26,-112.24 1443.95,-96.78 1423.91,-85.83"/>
<polygon fill="midnightblue" stroke="midnightblue" points="1425.53,-82.73 1415.07,-81.01 1422.17,-88.87 1425.53,-82.73"/>
</g>
</g>
</svg>
