<?xml version="1.0" encoding="UTF-8" standalone="no"?>
<!DOCTYPE svg PUBLIC "-//W3C//DTD SVG 1.1//EN"
 "http://www.w3.org/Graphics/SVG/1.1/DTD/svg11.dtd">
<!-- Generated by graphviz version 2.43.0 (0)
 -->
<!-- Title: AM_register_ai Pages: 1 -->
<svg width="902pt" height="394pt"
 viewBox="0.00 0.00 902.00 393.50" xmlns="http://www.w3.org/2000/svg" xmlns:xlink="http://www.w3.org/1999/xlink">
<g id="graph0" class="graph" transform="scale(1 1) rotate(0) translate(4 389.5)">
<title>AM_register_ai</title>
<polygon fill="white" stroke="transparent" points="-4,4 -4,-389.5 898,-389.5 898,4 -4,4"/>
<!-- Node1 -->
<g id="node1" class="node">
<title>Node1</title>
<g id="a_node1"><a xlink:title=" ">
<polygon fill="#bfbfbf" stroke="black" points="0,-208 0,-227 89,-227 89,-208 0,-208"/>
<text text-anchor="middle" x="44.5" y="-215" font-family="Helvetica,sans-Serif" font-size="10.00">AM_register_ai</text>
</a>
</g>
</g>
<!-- Node2 -->
<g id="node2" class="node">
<title>Node2</title>
<g id="a_node2"><a xlink:href="anomaly__logger_8c.html#a0ea6626c89aa7e883a23da90b4c34e66" target="_top" xlink:title=" ">
<polygon fill="white" stroke="black" points="125,-290 125,-309 225,-309 225,-290 125,-290"/>
<text text-anchor="middle" x="175" y="-297" font-family="Helvetica,sans-Serif" font-size="10.00">AL_add_anomaly</text>
</a>
</g>
</g>
<!-- Node1&#45;&gt;Node2 -->
<g id="edge1" class="edge">
<title>Node1&#45;&gt;Node2</title>
<path fill="none" stroke="midnightblue" d="M60.49,-227.07C82.64,-241.2 124.31,-267.79 150.53,-284.52"/>
<polygon fill="midnightblue" stroke="midnightblue" points="148.79,-287.57 159.1,-289.99 152.56,-281.66 148.79,-287.57"/>
</g>
<!-- Node8 -->
<g id="node8" class="node">
<title>Node8</title>
<g id="a_node8"><a xlink:href="event__logger_8c.html#a25a74a48375dfc1f3f80be68e0ac00ea" target="_top" xlink:title="イベント (EL_Event) を記録">
<polygon fill="white" stroke="black" points="126.5,-189 126.5,-208 223.5,-208 223.5,-189 126.5,-189"/>
<text text-anchor="middle" x="175" y="-196" font-family="Helvetica,sans-Serif" font-size="10.00">EL_record_event</text>
</a>
</g>
</g>
<!-- Node1&#45;&gt;Node8 -->
<g id="edge8" class="edge">
<title>Node1&#45;&gt;Node8</title>
<path fill="none" stroke="midnightblue" d="M89,-211.07C97.68,-209.78 106.92,-208.42 115.99,-207.08"/>
<polygon fill="midnightblue" stroke="midnightblue" points="116.75,-210.5 126.13,-205.58 115.72,-203.58 116.75,-210.5"/>
</g>
<!-- Node2&#45;&gt;Node2 -->
<g id="edge3" class="edge">
<title>Node2&#45;&gt;Node2</title>
<path fill="none" stroke="midnightblue" d="M154.96,-309.26C145.22,-318.07 151.89,-327.5 175,-327.5 189.8,-327.5 197.86,-323.63 199.18,-318.53"/>
<polygon fill="midnightblue" stroke="midnightblue" points="202.31,-316.96 195.04,-309.26 195.92,-319.81 202.31,-316.96"/>
</g>
<!-- Node3 -->
<g id="node3" class="node">
<title>Node3</title>
<g id="a_node3"><a xlink:href="anomaly__logger_8c.html#a0d3195f9dcd9ab90f9672a90ed701932" target="_top" xlink:title=" ">
<polygon fill="white" stroke="black" points="284,-366 284,-385 365,-385 365,-366 284,-366"/>
<text text-anchor="middle" x="324.5" y="-373" font-family="Helvetica,sans-Serif" font-size="10.00">AC_is_equal_</text>
</a>
</g>
</g>
<!-- Node2&#45;&gt;Node3 -->
<g id="edge2" class="edge">
<title>Node2&#45;&gt;Node3</title>
<path fill="none" stroke="midnightblue" d="M187.71,-309.01C203.5,-321.43 232.91,-343.17 261,-356.5 265.68,-358.72 270.69,-360.76 275.75,-362.6"/>
<polygon fill="midnightblue" stroke="midnightblue" points="274.88,-366 285.48,-365.9 277.13,-359.37 274.88,-366"/>
</g>
<!-- Node4 -->
<g id="node4" class="node">
<title>Node4</title>
<g id="a_node4"><a xlink:href="anomaly__logger_8c.html#a20757d941f0e6a6fe45076e1b799d58c" target="_top" xlink:title=" ">
<polygon fill="white" stroke="black" points="265,-328 265,-347 384,-347 384,-328 265,-328"/>
<text text-anchor="middle" x="324.5" y="-335" font-family="Helvetica,sans-Serif" font-size="10.00">AL_get_latest_record</text>
</a>
</g>
</g>
<!-- Node2&#45;&gt;Node4 -->
<g id="edge4" class="edge">
<title>Node2&#45;&gt;Node4</title>
<path fill="none" stroke="midnightblue" d="M213.22,-309.09C232.51,-314.06 256.26,-320.18 276.77,-325.46"/>
<polygon fill="midnightblue" stroke="midnightblue" points="275.99,-328.87 286.55,-327.98 277.74,-322.1 275.99,-328.87"/>
</g>
<!-- Node5 -->
<g id="node5" class="node">
<title>Node5</title>
<g id="a_node5"><a xlink:href="anomaly__logger_8c.html#af0545eca5524e201925fa77dd122fd8c" target="_top" xlink:title=" ">
<polygon fill="white" stroke="black" points="261,-290 261,-309 388,-309 388,-290 261,-290"/>
<text text-anchor="middle" x="324.5" y="-297" font-family="Helvetica,sans-Serif" font-size="10.00">AL_is_logging_enable_</text>
</a>
</g>
</g>
<!-- Node2&#45;&gt;Node5 -->
<g id="edge5" class="edge">
<title>Node2&#45;&gt;Node5</title>
<path fill="none" stroke="midnightblue" d="M225.12,-299.5C233.37,-299.5 242.08,-299.5 250.78,-299.5"/>
<polygon fill="midnightblue" stroke="midnightblue" points="250.96,-303 260.96,-299.5 250.96,-296 250.96,-303"/>
</g>
<!-- Node6 -->
<g id="node6" class="node">
<title>Node6</title>
<g id="a_node6"><a xlink:href="time__manager_8c.html#a9d04b4d9b622cbe5a90cf65e58b828bc" target="_top" xlink:title="現在の master_clock_ を取得する">
<polygon fill="white" stroke="black" points="581,-252 581,-271 718,-271 718,-252 581,-252"/>
<text text-anchor="middle" x="649.5" y="-259" font-family="Helvetica,sans-Serif" font-size="10.00">TMGR_get_master_clock</text>
</a>
</g>
</g>
<!-- Node2&#45;&gt;Node6 -->
<g id="edge6" class="edge">
<title>Node2&#45;&gt;Node6</title>
<path fill="none" stroke="midnightblue" d="M212.15,-289.99C227.16,-286.41 244.82,-282.69 261,-280.5 367.68,-266.07 492.19,-262.25 570.69,-261.42"/>
<polygon fill="midnightblue" stroke="midnightblue" points="571.01,-264.92 580.98,-261.33 570.95,-257.92 571.01,-264.92"/>
</g>
<!-- Node7 -->
<g id="node7" class="node">
<title>Node7</title>
<g id="a_node7"><a xlink:href="obc__time_8c.html#a70416835a40bdacbb04f6f06b1e6d1e1" target="_top" xlink:title="引数から ObcTime を作成する">
<polygon fill="white" stroke="black" points="784,-252 784,-271 864,-271 864,-252 784,-252"/>
<text text-anchor="middle" x="824" y="-259" font-family="Helvetica,sans-Serif" font-size="10.00">OBCT_create</text>
</a>
</g>
</g>
<!-- Node6&#45;&gt;Node7 -->
<g id="edge7" class="edge">
<title>Node6&#45;&gt;Node7</title>
<path fill="none" stroke="midnightblue" d="M718.18,-261.5C736.63,-261.5 756.27,-261.5 773.5,-261.5"/>
<polygon fill="midnightblue" stroke="midnightblue" points="773.88,-265 783.88,-261.5 773.88,-258 773.88,-265"/>
</g>
<!-- Node9 -->
<g id="node9" class="node">
<title>Node9</title>
<g id="a_node9"><a xlink:href="event__logger_8c.html#a80a1b60c587d1e3402b02e3bde1db899" target="_top" xlink:title="イベント (EL_Event) を記録">
<polygon fill="white" stroke="black" points="273.5,-107 273.5,-126 375.5,-126 375.5,-107 273.5,-107"/>
<text text-anchor="middle" x="324.5" y="-114" font-family="Helvetica,sans-Serif" font-size="10.00">EL_record_event_</text>
</a>
</g>
</g>
<!-- Node8&#45;&gt;Node9 -->
<g id="edge9" class="edge">
<title>Node8&#45;&gt;Node9</title>
<path fill="none" stroke="midnightblue" d="M193.21,-188.93C218.85,-174.68 267.3,-147.74 297.34,-131.04"/>
<polygon fill="midnightblue" stroke="midnightblue" points="299.36,-133.92 306.4,-126.01 295.96,-127.81 299.36,-133.92"/>
</g>
<!-- Node10 -->
<g id="node10" class="node">
<title>Node10</title>
<g id="a_node10"><a xlink:href="event__logger_8c.html#aeae14f21b4e29006f709a61e7de52d67" target="_top" xlink:title="TLog の wp をチェックし， event を生成する">
<polygon fill="white" stroke="black" points="429.5,-88 429.5,-107 539.5,-107 539.5,-88 429.5,-88"/>
<text text-anchor="middle" x="484.5" y="-95" font-family="Helvetica,sans-Serif" font-size="10.00">EL_check_tlog_wp_</text>
</a>
</g>
</g>
<!-- Node9&#45;&gt;Node10 -->
<g id="edge10" class="edge">
<title>Node9&#45;&gt;Node10</title>
<path fill="none" stroke="midnightblue" d="M358.24,-106.97C375.87,-103.85 398.25,-100.8 419.2,-98.59"/>
<polygon fill="midnightblue" stroke="midnightblue" points="419.74,-102.05 429.34,-97.57 419.04,-95.09 419.74,-102.05"/>
</g>
<!-- Node11 -->
<g id="node11" class="node">
<title>Node11</title>
<g id="a_node11"><a xlink:href="event__logger_8c.html#a0b42c2f5d1eafdad83481ec6e63365e2" target="_top" xlink:title="イベント (EL_Event) を初期化">
<polygon fill="white" stroke="black" points="441,-214 441,-233 528,-233 528,-214 441,-214"/>
<text text-anchor="middle" x="484.5" y="-221" font-family="Helvetica,sans-Serif" font-size="10.00">EL_init_event_</text>
</a>
</g>
</g>
<!-- Node9&#45;&gt;Node11 -->
<g id="edge12" class="edge">
<title>Node9&#45;&gt;Node11</title>
<path fill="none" stroke="midnightblue" d="M334.03,-126.26C350.01,-144 386.27,-181.7 424,-203.5 428.43,-206.06 433.23,-208.35 438.12,-210.39"/>
<polygon fill="midnightblue" stroke="midnightblue" points="436.98,-213.7 447.57,-214 439.48,-207.16 436.98,-213.7"/>
</g>
<!-- Node12 -->
<g id="node12" class="node">
<title>Node12</title>
<g id="a_node12"><a xlink:href="event__logger_8c.html#a50ba2fe43a96f7351951a4109227ba6f" target="_top" xlink:title="event_logger の EL_Event.group が有効か？">
<polygon fill="white" stroke="black" points="424,-50 424,-69 545,-69 545,-50 424,-50"/>
<text text-anchor="middle" x="484.5" y="-57" font-family="Helvetica,sans-Serif" font-size="10.00">EL_is_logging_enable</text>
</a>
</g>
</g>
<!-- Node9&#45;&gt;Node12 -->
<g id="edge14" class="edge">
<title>Node9&#45;&gt;Node12</title>
<path fill="none" stroke="midnightblue" d="M349.24,-106.89C369.1,-98.96 398.24,-87.57 424,-78.5 430.04,-76.37 436.46,-74.22 442.76,-72.16"/>
<polygon fill="midnightblue" stroke="midnightblue" points="444.06,-75.42 452.5,-69.02 441.91,-68.75 444.06,-75.42"/>
</g>
<!-- Node13 -->
<g id="node13" class="node">
<title>Node13</title>
<g id="a_node13"><a xlink:href="event__logger_8c.html#a69fb9dbc85ad467d048f1c9f31d2442c" target="_top" xlink:title="イベント (EL_Event) を CLog に記録">
<polygon fill="white" stroke="black" points="428.5,-164.5 428.5,-194.5 540.5,-194.5 540.5,-164.5 428.5,-164.5"/>
<text text-anchor="start" x="436.5" y="-182.5" font-family="Helvetica,sans-Serif" font-size="10.00">EL_record_event_to</text>
<text text-anchor="middle" x="484.5" y="-171.5" font-family="Helvetica,sans-Serif" font-size="10.00">_clog_</text>
</a>
</g>
</g>
<!-- Node9&#45;&gt;Node13 -->
<g id="edge15" class="edge">
<title>Node9&#45;&gt;Node13</title>
<path fill="none" stroke="midnightblue" d="M349.5,-126.07C372.45,-135.22 407.72,-149.28 436.31,-160.68"/>
<polygon fill="midnightblue" stroke="midnightblue" points="435.13,-163.98 445.72,-164.43 437.73,-157.48 435.13,-163.98"/>
</g>
<!-- Node19 -->
<g id="node19" class="node">
<title>Node19</title>
<g id="a_node19"><a xlink:href="event__logger_8c.html#a93cb3659efd373de0856c92b3c08896a" target="_top" xlink:title="イベント (EL_Event) を TLog に記録">
<polygon fill="white" stroke="black" points="428.5,-0.5 428.5,-30.5 540.5,-30.5 540.5,-0.5 428.5,-0.5"/>
<text text-anchor="start" x="436.5" y="-18.5" font-family="Helvetica,sans-Serif" font-size="10.00">EL_record_event_to</text>
<text text-anchor="middle" x="484.5" y="-7.5" font-family="Helvetica,sans-Serif" font-size="10.00">_tlog_</text>
</a>
</g>
</g>
<!-- Node9&#45;&gt;Node19 -->
<g id="edge23" class="edge">
<title>Node9&#45;&gt;Node19</title>
<path fill="none" stroke="midnightblue" d="M336.06,-106.85C353.41,-91.35 389.47,-60.61 424,-40.5 427.39,-38.53 430.96,-36.62 434.61,-34.81"/>
<polygon fill="midnightblue" stroke="midnightblue" points="436.2,-37.93 443.75,-30.5 433.22,-31.6 436.2,-37.93"/>
</g>
<!-- Node10&#45;&gt;Node9 -->
<g id="edge11" class="edge">
<title>Node10&#45;&gt;Node9</title>
<path fill="none" stroke="midnightblue" d="M450.46,-107.08C431.84,-110.37 408,-113.56 386.13,-115.79"/>
<polygon fill="midnightblue" stroke="midnightblue" points="385.54,-112.33 375.93,-116.78 386.22,-119.3 385.54,-112.33"/>
</g>
<!-- Node11&#45;&gt;Node6 -->
<g id="edge13" class="edge">
<title>Node11&#45;&gt;Node6</title>
<path fill="none" stroke="midnightblue" d="M526.63,-233.09C548.24,-238.13 574.91,-244.34 597.79,-249.68"/>
<polygon fill="midnightblue" stroke="midnightblue" points="597.13,-253.12 607.66,-251.98 598.72,-246.3 597.13,-253.12"/>
</g>
<!-- Node14 -->
<g id="node14" class="node">
<title>Node14</title>
<g id="a_node14"><a xlink:href="event__logger_8c.html#a605a3ff223ddae8830c09ff5aa57cc94" target="_top" xlink:title="該当イベントの CLog を，イベントテーブルの先頭に出す">
<polygon fill="white" stroke="black" points="590,-164.5 590,-194.5 709,-194.5 709,-164.5 590,-164.5"/>
<text text-anchor="start" x="598" y="-182.5" font-family="Helvetica,sans-Serif" font-size="10.00">EL_move_to_front_in</text>
<text text-anchor="middle" x="649.5" y="-171.5" font-family="Helvetica,sans-Serif" font-size="10.00">_clog_</text>
</a>
</g>
</g>
<!-- Node13&#45;&gt;Node14 -->
<g id="edge16" class="edge">
<title>Node13&#45;&gt;Node14</title>
<path fill="none" stroke="midnightblue" d="M540.68,-179.5C553.15,-179.5 566.53,-179.5 579.48,-179.5"/>
<polygon fill="midnightblue" stroke="midnightblue" points="579.75,-183 589.75,-179.5 579.75,-176 579.75,-183"/>
</g>
<!-- Node17 -->
<g id="node17" class="node">
<title>Node17</title>
<g id="a_node17"><a xlink:href="obc__time_8c.html#a02512f745375636ab21f468838587942" target="_top" xlink:title="ObcTime の引き算を行う">
<polygon fill="white" stroke="black" points="617,-214 617,-233 682,-233 682,-214 617,-214"/>
<text text-anchor="middle" x="649.5" y="-221" font-family="Helvetica,sans-Serif" font-size="10.00">OBCT_diff</text>
</a>
</g>
</g>
<!-- Node13&#45;&gt;Node17 -->
<g id="edge20" class="edge">
<title>Node13&#45;&gt;Node17</title>
<path fill="none" stroke="midnightblue" d="M540.68,-194.4C562.33,-200.24 586.76,-206.83 606.88,-212.26"/>
<polygon fill="midnightblue" stroke="midnightblue" points="606.11,-215.68 616.67,-214.91 607.93,-208.92 606.11,-215.68"/>
</g>
<!-- Node15 -->
<g id="node15" class="node">
<title>Node15</title>
<g id="a_node15"><a xlink:href="event__logger_8c.html#a60dac03ee61b8b3fb3ac6335babb7209" target="_top" xlink:title="イベントテーブル先頭に該当イベントの CLog をつくる">
<polygon fill="white" stroke="black" points="754,-129 754,-148 894,-148 894,-129 754,-129"/>
<text text-anchor="middle" x="824" y="-136" font-family="Helvetica,sans-Serif" font-size="10.00">EL_create_clog_on_front_</text>
</a>
</g>
</g>
<!-- Node14&#45;&gt;Node15 -->
<g id="edge17" class="edge">
<title>Node14&#45;&gt;Node15</title>
<path fill="none" stroke="midnightblue" d="M709.38,-165.5C730.09,-160.58 753.14,-155.1 773.04,-150.37"/>
<polygon fill="midnightblue" stroke="midnightblue" points="773.92,-153.76 782.84,-148.05 772.3,-146.95 773.92,-153.76"/>
</g>
<!-- Node16 -->
<g id="node16" class="node">
<title>Node16</title>
<g id="a_node16"><a xlink:href="event__logger_8c.html#a987cce8c848158cc3038bb59dc100de3" target="_top" xlink:title="該当イベントの CLog を検索し取得する">
<polygon fill="white" stroke="black" points="776,-170 776,-189 872,-189 872,-170 776,-170"/>
<text text-anchor="middle" x="824" y="-177" font-family="Helvetica,sans-Serif" font-size="10.00">EL_search_clog_</text>
</a>
</g>
</g>
<!-- Node14&#45;&gt;Node16 -->
<g id="edge19" class="edge">
<title>Node14&#45;&gt;Node16</title>
<path fill="none" stroke="midnightblue" d="M709.38,-179.5C727.58,-179.5 747.59,-179.5 765.68,-179.5"/>
<polygon fill="midnightblue" stroke="midnightblue" points="765.79,-183 775.79,-179.5 765.79,-176 765.79,-183"/>
</g>
<!-- Node15&#45;&gt;Node9 -->
<g id="edge18" class="edge">
<title>Node15&#45;&gt;Node9</title>
<path fill="none" stroke="midnightblue" d="M753.82,-135.44C656,-131.12 478.88,-123.28 386.02,-119.18"/>
<polygon fill="midnightblue" stroke="midnightblue" points="386.09,-115.68 375.94,-118.73 385.78,-122.67 386.09,-115.68"/>
</g>
<!-- Node17&#45;&gt;Node7 -->
<g id="edge22" class="edge">
<title>Node17&#45;&gt;Node7</title>
<path fill="none" stroke="midnightblue" d="M682.14,-230.47C707.72,-236.1 744.19,-244.14 773.61,-250.62"/>
<polygon fill="midnightblue" stroke="midnightblue" points="773.17,-254.11 783.69,-252.84 774.68,-247.27 773.17,-254.11"/>
</g>
<!-- Node18 -->
<g id="node18" class="node">
<title>Node18</title>
<g id="a_node18"><a xlink:href="obc__time_8c.html#a8d70081c0b7615e9381c431ae5f8dca2" target="_top" xlink:title="ObcTime の比較">
<polygon fill="white" stroke="black" points="778,-214 778,-233 870,-233 870,-214 778,-214"/>
<text text-anchor="middle" x="824" y="-221" font-family="Helvetica,sans-Serif" font-size="10.00">OBCT_compare</text>
</a>
</g>
</g>
<!-- Node17&#45;&gt;Node18 -->
<g id="edge21" class="edge">
<title>Node17&#45;&gt;Node18</title>
<path fill="none" stroke="midnightblue" d="M682.14,-223.5C706.05,-223.5 739.47,-223.5 767.75,-223.5"/>
<polygon fill="midnightblue" stroke="midnightblue" points="767.92,-227 777.92,-223.5 767.92,-220 767.92,-227"/>
</g>
<!-- Node20 -->
<g id="node20" class="node">
<title>Node20</title>
<g id="a_node20"><a xlink:href="event__logger_8c.html#af088469f27d5dfca608a9cacee9fbc17" target="_top" xlink:title="TLog のイベントテーブルの上書きが有効か？">
<polygon fill="white" stroke="black" points="591,-0.5 591,-30.5 708,-30.5 708,-0.5 591,-0.5"/>
<text text-anchor="start" x="599" y="-18.5" font-family="Helvetica,sans-Serif" font-size="10.00">EL_is_tlog_overwrite</text>
<text text-anchor="middle" x="649.5" y="-7.5" font-family="Helvetica,sans-Serif" font-size="10.00">_enable</text>
</a>
</g>
</g>
<!-- Node19&#45;&gt;Node20 -->
<g id="edge24" class="edge">
<title>Node19&#45;&gt;Node20</title>
<path fill="none" stroke="midnightblue" d="M540.68,-15.5C553.56,-15.5 567.43,-15.5 580.78,-15.5"/>
<polygon fill="midnightblue" stroke="midnightblue" points="580.87,-19 590.87,-15.5 580.87,-12 580.87,-19"/>
</g>
</g>
</svg>
