<?xml version="1.0" encoding="UTF-8" standalone="no"?>
<!DOCTYPE svg PUBLIC "-//W3C//DTD SVG 1.1//EN"
 "http://www.w3.org/Graphics/SVG/1.1/DTD/svg11.dtd">
<!-- Generated by graphviz version 2.43.0 (0)
 -->
<!-- Title: BCT_timelimit_combine_block_cmd_ Pages: 1 -->
<svg width="1399pt" height="776pt"
 viewBox="0.00 0.00 1399.00 776.00" xmlns="http://www.w3.org/2000/svg" xmlns:xlink="http://www.w3.org/1999/xlink">
<g id="graph0" class="graph" transform="scale(1 1) rotate(0) translate(4 772)">
<title>BCT_timelimit_combine_block_cmd_</title>
<polygon fill="white" stroke="transparent" points="-4,4 -4,-772 1395,-772 1395,4 -4,4"/>
<!-- Node1 -->
<g id="node1" class="node">
<title>Node1</title>
<g id="a_node1"><a xlink:title="BC をまとめて一括で実行する">
<polygon fill="#bfbfbf" stroke="black" points="0,-598 0,-628 134,-628 134,-598 0,-598"/>
<text text-anchor="start" x="8" y="-616" font-family="Helvetica,sans-Serif" font-size="10.00">BCT_timelimit_combine</text>
<text text-anchor="middle" x="67" y="-605" font-family="Helvetica,sans-Serif" font-size="10.00">_block_cmd_</text>
</a>
</g>
</g>
<!-- Node2 -->
<g id="node2" class="node">
<title>Node2</title>
<g id="a_node2"><a xlink:href="block__command__executor_8c.html#a314a5503ec3307e3e4049d32e54399ee" target="_top" xlink:title=" ">
<polygon fill="white" stroke="black" points="170,-748.5 170,-767.5 313,-767.5 313,-748.5 170,-748.5"/>
<text text-anchor="middle" x="241.5" y="-755.5" font-family="Helvetica,sans-Serif" font-size="10.00">BCE_get_bc_exe_params_</text>
</a>
</g>
</g>
<!-- Node1&#45;&gt;Node2 -->
<g id="edge1" class="edge">
<title>Node1&#45;&gt;Node2</title>
<path fill="none" stroke="midnightblue" d="M76.14,-628.41C91.07,-655.14 125.41,-709.99 170,-739 173.16,-741.06 176.54,-742.89 180.04,-744.53"/>
<polygon fill="midnightblue" stroke="midnightblue" points="178.96,-747.87 189.54,-748.42 181.61,-741.39 178.96,-747.87"/>
</g>
<!-- Node3 -->
<g id="node3" class="node">
<title>Node3</title>
<g id="a_node3"><a xlink:href="block__command__executor_8c.html#a458f942c6bfdc924ca92dbf06e1eefdc" target="_top" xlink:title=" ">
<polygon fill="white" stroke="black" points="170,-710.5 170,-729.5 313,-729.5 313,-710.5 170,-710.5"/>
<text text-anchor="middle" x="241.5" y="-717.5" font-family="Helvetica,sans-Serif" font-size="10.00">BCE_set_bc_exe_params_</text>
</a>
</g>
</g>
<!-- Node1&#45;&gt;Node3 -->
<g id="edge2" class="edge">
<title>Node1&#45;&gt;Node3</title>
<path fill="none" stroke="midnightblue" d="M81.31,-628.1C99.45,-647.74 133.84,-681.83 170,-701 174.32,-703.29 178.94,-705.32 183.68,-707.12"/>
<polygon fill="midnightblue" stroke="midnightblue" points="182.89,-710.55 193.48,-710.5 185.17,-703.94 182.89,-710.55"/>
</g>
<!-- Node4 -->
<g id="node4" class="node">
<title>Node4</title>
<g id="a_node4"><a xlink:href="block__command__table_8c.html#ad05cc77d3ebebc7fabf203a7cf44ac52" target="_top" xlink:title="enum変換用関数">
<polygon fill="white" stroke="black" points="181,-661 181,-691 302,-691 302,-661 181,-661"/>
<text text-anchor="start" x="189" y="-679" font-family="Helvetica,sans-Serif" font-size="10.00">BCT_convert_bct_ack</text>
<text text-anchor="middle" x="241.5" y="-668" font-family="Helvetica,sans-Serif" font-size="10.00">_to_ctcp_exec_sts</text>
</a>
</g>
</g>
<!-- Node1&#45;&gt;Node4 -->
<g id="edge3" class="edge">
<title>Node1&#45;&gt;Node4</title>
<path fill="none" stroke="midnightblue" d="M108.16,-628.13C126.92,-635.15 149.58,-643.57 170,-651 175.85,-653.13 181.97,-655.33 188.07,-657.51"/>
<polygon fill="midnightblue" stroke="midnightblue" points="186.99,-660.84 197.59,-660.9 189.34,-654.25 186.99,-660.84"/>
</g>
<!-- Node5 -->
<g id="node5" class="node">
<title>Node5</title>
<g id="a_node5"><a xlink:href="block__command__table_8c.html#add2db8412ac7b28b2e61d99638daaac5" target="_top" xlink:title="BCT の length の getter">
<polygon fill="white" stroke="black" points="186.5,-622.5 186.5,-641.5 296.5,-641.5 296.5,-622.5 186.5,-622.5"/>
<text text-anchor="middle" x="241.5" y="-629.5" font-family="Helvetica,sans-Serif" font-size="10.00">BCT_get_bc_length</text>
</a>
</g>
</g>
<!-- Node1&#45;&gt;Node5 -->
<g id="edge4" class="edge">
<title>Node1&#45;&gt;Node5</title>
<path fill="none" stroke="midnightblue" d="M134.2,-620.29C147.98,-621.81 162.48,-623.41 176.19,-624.92"/>
<polygon fill="midnightblue" stroke="midnightblue" points="176.17,-628.44 186.5,-626.05 176.94,-621.48 176.17,-628.44"/>
</g>
<!-- Node6 -->
<g id="node6" class="node">
<title>Node6</title>
<g id="a_node6"><a xlink:href="block__command__table_8c.html#ae68a5f1f378750e90316a78de887f554" target="_top" xlink:title="保存データをCTCPにコピーする.">
<polygon fill="white" stroke="black" points="197,-584.5 197,-603.5 286,-603.5 286,-584.5 197,-584.5"/>
<text text-anchor="middle" x="241.5" y="-591.5" font-family="Helvetica,sans-Serif" font-size="10.00">BCT_load_cmd</text>
</a>
</g>
</g>
<!-- Node1&#45;&gt;Node6 -->
<g id="edge5" class="edge">
<title>Node1&#45;&gt;Node6</title>
<path fill="none" stroke="midnightblue" d="M134.2,-605.71C151.59,-603.79 170.13,-601.75 186.77,-599.92"/>
<polygon fill="midnightblue" stroke="midnightblue" points="187.31,-603.38 196.87,-598.81 186.54,-596.42 187.31,-603.38"/>
</g>
<!-- Node9 -->
<g id="node9" class="node">
<title>Node9</title>
<g id="a_node9"><a xlink:href="obc__time_8c.html#a3adce1b790eb67e1eff3cb1e79fc197f" target="_top" xlink:title="ObcTime の引き算を step 単位で行う">
<polygon fill="white" stroke="black" points="362.5,-508.5 362.5,-527.5 467.5,-527.5 467.5,-508.5 362.5,-508.5"/>
<text text-anchor="middle" x="415" y="-515.5" font-family="Helvetica,sans-Serif" font-size="10.00">OBCT_diff_in_step</text>
</a>
</g>
</g>
<!-- Node1&#45;&gt;Node9 -->
<g id="edge8" class="edge">
<title>Node1&#45;&gt;Node9</title>
<path fill="none" stroke="midnightblue" d="M84.15,-597.74C103.09,-580.88 136.19,-554.46 170,-542 229.22,-520.18 301.7,-515.58 352.21,-515.58"/>
<polygon fill="midnightblue" stroke="midnightblue" points="352.31,-519.08 362.33,-515.64 352.35,-512.08 352.31,-519.08"/>
</g>
<!-- Node13 -->
<g id="node13" class="node">
<title>Node13</title>
<g id="a_node13"><a xlink:href="packet__handler_8c.html#ac0da2642bb88c1a3073922569184413d" target="_top" xlink:title=" ">
<polygon fill="white" stroke="black" points="176,-76.5 176,-95.5 307,-95.5 307,-76.5 176,-76.5"/>
<text text-anchor="middle" x="241.5" y="-83.5" font-family="Helvetica,sans-Serif" font-size="10.00">PH_dispatch_command</text>
</a>
</g>
</g>
<!-- Node1&#45;&gt;Node13 -->
<g id="edge12" class="edge">
<title>Node1&#45;&gt;Node13</title>
<path fill="none" stroke="midnightblue" d="M72.98,-597.8C97.64,-522.45 206.66,-189.39 234.17,-105.32"/>
<polygon fill="midnightblue" stroke="midnightblue" points="237.53,-106.34 237.31,-95.75 230.87,-104.16 237.53,-106.34"/>
</g>
<!-- Node30 -->
<g id="node30" class="node">
<title>Node30</title>
<g id="a_node30"><a xlink:href="time__manager_8c.html#a9d04b4d9b622cbe5a90cf65e58b828bc" target="_top" xlink:title="現在の master_clock_ を取得する">
<polygon fill="white" stroke="black" points="1074,-508.5 1074,-527.5 1211,-527.5 1211,-508.5 1074,-508.5"/>
<text text-anchor="middle" x="1142.5" y="-515.5" font-family="Helvetica,sans-Serif" font-size="10.00">TMGR_get_master_clock</text>
</a>
</g>
</g>
<!-- Node1&#45;&gt;Node30 -->
<g id="edge49" class="edge">
<title>Node1&#45;&gt;Node30</title>
<path fill="none" stroke="midnightblue" d="M101.28,-597.91C120.88,-589.71 146.38,-580.21 170,-575 276.22,-551.56 305.23,-556 414,-556 414,-556 414,-556 779,-556 883.1,-556 1003.11,-540.31 1075.59,-529.09"/>
<polygon fill="midnightblue" stroke="midnightblue" points="1076.15,-532.54 1085.49,-527.54 1075.07,-525.63 1076.15,-532.54"/>
</g>
<!-- Node7 -->
<g id="node7" class="node">
<title>Node7</title>
<g id="a_node7"><a xlink:href="block__command__table_8c.html#ae25a57a4a97b49bf13a4caa0b5e8ff76" target="_top" xlink:title="BCT_Pos* の validate">
<polygon fill="white" stroke="black" points="358,-622.5 358,-641.5 472,-641.5 472,-622.5 358,-622.5"/>
<text text-anchor="middle" x="415" y="-629.5" font-family="Helvetica,sans-Serif" font-size="10.00">BCT_check_position</text>
</a>
</g>
</g>
<!-- Node6&#45;&gt;Node7 -->
<g id="edge6" class="edge">
<title>Node6&#45;&gt;Node7</title>
<path fill="none" stroke="midnightblue" d="M285.78,-603.59C308.61,-608.65 336.82,-614.9 360.96,-620.25"/>
<polygon fill="midnightblue" stroke="midnightblue" points="360.51,-623.73 371.03,-622.48 362.03,-616.9 360.51,-623.73"/>
</g>
<!-- Node8 -->
<g id="node8" class="node">
<title>Node8</title>
<g id="a_node8"><a xlink:href="block__command__table_8c.html#aad2653a11ef1264594f19869ed916daa" target="_top" xlink:title=" ">
<polygon fill="white" stroke="black" points="349,-584.5 349,-603.5 481,-603.5 481,-584.5 349,-584.5"/>
<text text-anchor="middle" x="415" y="-591.5" font-family="Helvetica,sans-Serif" font-size="10.00">BCT_get_bc_cmd_data_</text>
</a>
</g>
</g>
<!-- Node6&#45;&gt;Node8 -->
<g id="edge7" class="edge">
<title>Node6&#45;&gt;Node8</title>
<path fill="none" stroke="midnightblue" d="M286.22,-594C302.22,-594 320.82,-594 338.79,-594"/>
<polygon fill="midnightblue" stroke="midnightblue" points="338.98,-597.5 348.98,-594 338.98,-590.5 338.98,-597.5"/>
</g>
<!-- Node10 -->
<g id="node10" class="node">
<title>Node10</title>
<g id="a_node10"><a xlink:href="obc__time_8c.html#a02512f745375636ab21f468838587942" target="_top" xlink:title="ObcTime の引き算を行う">
<polygon fill="white" stroke="black" points="1110,-470.5 1110,-489.5 1175,-489.5 1175,-470.5 1110,-470.5"/>
<text text-anchor="middle" x="1142.5" y="-477.5" font-family="Helvetica,sans-Serif" font-size="10.00">OBCT_diff</text>
</a>
</g>
</g>
<!-- Node9&#45;&gt;Node10 -->
<g id="edge9" class="edge">
<title>Node9&#45;&gt;Node10</title>
<path fill="none" stroke="midnightblue" d="M467.85,-518.92C574.28,-520.26 824.99,-520.57 1034,-499 1055.83,-496.75 1079.91,-492.64 1099.74,-488.83"/>
<polygon fill="midnightblue" stroke="midnightblue" points="1100.55,-492.23 1109.68,-486.87 1099.2,-485.37 1100.55,-492.23"/>
</g>
<!-- Node11 -->
<g id="node11" class="node">
<title>Node11</title>
<g id="a_node11"><a xlink:href="obc__time_8c.html#a8d70081c0b7615e9381c431ae5f8dca2" target="_top" xlink:title="ObcTime の比較">
<polygon fill="white" stroke="black" points="1275,-470.5 1275,-489.5 1367,-489.5 1367,-470.5 1275,-470.5"/>
<text text-anchor="middle" x="1321" y="-477.5" font-family="Helvetica,sans-Serif" font-size="10.00">OBCT_compare</text>
</a>
</g>
</g>
<!-- Node10&#45;&gt;Node11 -->
<g id="edge10" class="edge">
<title>Node10&#45;&gt;Node11</title>
<path fill="none" stroke="midnightblue" d="M1175.05,-480C1199.89,-480 1235.11,-480 1264.62,-480"/>
<polygon fill="midnightblue" stroke="midnightblue" points="1264.79,-483.5 1274.79,-480 1264.79,-476.5 1264.79,-483.5"/>
</g>
<!-- Node12 -->
<g id="node12" class="node">
<title>Node12</title>
<g id="a_node12"><a xlink:href="obc__time_8c.html#a70416835a40bdacbb04f6f06b1e6d1e1" target="_top" xlink:title="引数から ObcTime を作成する">
<polygon fill="white" stroke="black" points="1281,-508.5 1281,-527.5 1361,-527.5 1361,-508.5 1281,-508.5"/>
<text text-anchor="middle" x="1321" y="-515.5" font-family="Helvetica,sans-Serif" font-size="10.00">OBCT_create</text>
</a>
</g>
</g>
<!-- Node10&#45;&gt;Node12 -->
<g id="edge11" class="edge">
<title>Node10&#45;&gt;Node12</title>
<path fill="none" stroke="midnightblue" d="M1175.05,-486.79C1201.6,-492.51 1240.02,-500.78 1270.63,-507.37"/>
<polygon fill="midnightblue" stroke="midnightblue" points="1270.18,-510.85 1280.69,-509.54 1271.65,-504.01 1270.18,-510.85"/>
</g>
<!-- Node14 -->
<g id="node14" class="node">
<title>Node14</title>
<g id="a_node14"><a xlink:href="command__analyze_8c.html#a2bfd90a24682bbb8a68779d95ef31ee0" target="_top" xlink:title="コマンド実行の本体">
<polygon fill="white" stroke="black" points="365,-114.5 365,-133.5 465,-133.5 465,-114.5 365,-114.5"/>
<text text-anchor="middle" x="415" y="-121.5" font-family="Helvetica,sans-Serif" font-size="10.00">CA_execute_cmd</text>
</a>
</g>
</g>
<!-- Node13&#45;&gt;Node14 -->
<g id="edge13" class="edge">
<title>Node13&#45;&gt;Node14</title>
<path fill="none" stroke="midnightblue" d="M285.78,-95.59C308.61,-100.65 336.82,-106.9 360.96,-112.25"/>
<polygon fill="midnightblue" stroke="midnightblue" points="360.51,-115.73 371.03,-114.48 362.03,-108.9 360.51,-115.73"/>
</g>
<!-- Node38 -->
<g id="node38" class="node">
<title>Node38</title>
<g id="a_node38"><a xlink:href="common__tlm__cmd__packet_8h.html#a48c6826da1a25e4e710202c1f75ec71e" target="_top" xlink:title="宛先 (TCPではAPID) を取得">
<polygon fill="white" stroke="black" points="541,-38.5 541,-57.5 639,-57.5 639,-38.5 541,-38.5"/>
<text text-anchor="middle" x="590" y="-45.5" font-family="Helvetica,sans-Serif" font-size="10.00">CCP_get_dest_id</text>
</a>
</g>
</g>
<!-- Node13&#45;&gt;Node38 -->
<g id="edge43" class="edge">
<title>Node13&#45;&gt;Node38</title>
<path fill="none" stroke="midnightblue" d="M307.2,-82.51C355.27,-79.51 422.39,-74.47 481,-67 497.11,-64.95 514.48,-62.15 530.48,-59.34"/>
<polygon fill="midnightblue" stroke="midnightblue" points="531.54,-62.7 540.76,-57.49 530.3,-55.81 531.54,-62.7"/>
</g>
<!-- Node40 -->
<g id="node40" class="node">
<title>Node40</title>
<g id="a_node40"><a xlink:href="common__tlm__cmd__packet_8h.html#ab4428b5f4c839c6e0ce2b72e01ccd7db" target="_top" xlink:title="tlm か cmd かを判断">
<polygon fill="white" stroke="black" points="366,-0.5 366,-19.5 464,-19.5 464,-0.5 366,-0.5"/>
<text text-anchor="middle" x="415" y="-7.5" font-family="Helvetica,sans-Serif" font-size="10.00">CTCP_get_tc_dsc</text>
</a>
</g>
</g>
<!-- Node13&#45;&gt;Node40 -->
<g id="edge45" class="edge">
<title>Node13&#45;&gt;Node40</title>
<path fill="none" stroke="midnightblue" d="M257.88,-76.45C278.16,-64.17 315.22,-42.8 349,-29 354.58,-26.72 360.53,-24.59 366.48,-22.65"/>
<polygon fill="midnightblue" stroke="midnightblue" points="367.92,-25.86 376.42,-19.55 365.83,-19.18 367.92,-25.86"/>
</g>
<!-- Node42 -->
<g id="node42" class="node">
<title>Node42</title>
<g id="a_node42"><a xlink:href="user__packet__handler_8c.html#a1d8901bfc5a2d7cfec42de995ad728b3" target="_top" xlink:title="PHのcmd_router_のユーザー処理関数">
<polygon fill="white" stroke="black" points="356.5,-38.5 356.5,-57.5 473.5,-57.5 473.5,-38.5 356.5,-38.5"/>
<text text-anchor="middle" x="415" y="-45.5" font-family="Helvetica,sans-Serif" font-size="10.00">PH_user_cmd_router</text>
</a>
</g>
</g>
<!-- Node13&#45;&gt;Node42 -->
<g id="edge47" class="edge">
<title>Node13&#45;&gt;Node42</title>
<path fill="none" stroke="midnightblue" d="M285.78,-76.41C308.61,-71.35 336.82,-65.1 360.96,-59.75"/>
<polygon fill="midnightblue" stroke="midnightblue" points="362.03,-63.1 371.03,-57.52 360.51,-56.27 362.03,-63.1"/>
</g>
<!-- Node15 -->
<g id="node15" class="node">
<title>Node15</title>
<g id="a_node15"><a xlink:href="command__analyze_8c.html#ae878a1a8ce00cc7468fbdd5bc5aba864" target="_top" xlink:title="コマンドパラメタ長をチェックする">
<polygon fill="white" stroke="black" points="517,-171.5 517,-190.5 663,-190.5 663,-171.5 517,-171.5"/>
<text text-anchor="middle" x="590" y="-178.5" font-family="Helvetica,sans-Serif" font-size="10.00">CA_ckeck_cmd_param_len</text>
</a>
</g>
</g>
<!-- Node14&#45;&gt;Node15 -->
<g id="edge14" class="edge">
<title>Node14&#45;&gt;Node15</title>
<path fill="none" stroke="midnightblue" d="M444.96,-133.54C473.77,-143.03 518.18,-157.67 550.07,-168.17"/>
<polygon fill="midnightblue" stroke="midnightblue" points="549.36,-171.62 559.95,-171.43 551.55,-164.97 549.36,-171.62"/>
</g>
<!-- Node22 -->
<g id="node22" class="node">
<title>Node22</title>
<g id="a_node22"><a xlink:href="common__tlm__cmd__packet_8h.html#aada6263b578341e6ef88174fbdfc5dd7" target="_top" xlink:title="CMD ID を取得">
<polygon fill="white" stroke="black" points="554.5,-114.5 554.5,-133.5 625.5,-133.5 625.5,-114.5 554.5,-114.5"/>
<text text-anchor="middle" x="590" y="-121.5" font-family="Helvetica,sans-Serif" font-size="10.00">CCP_get_id</text>
</a>
</g>
</g>
<!-- Node14&#45;&gt;Node22 -->
<g id="edge23" class="edge">
<title>Node14&#45;&gt;Node22</title>
<path fill="none" stroke="midnightblue" d="M465.11,-124C490.02,-124 520.06,-124 544.32,-124"/>
<polygon fill="midnightblue" stroke="midnightblue" points="544.33,-127.5 554.33,-124 544.33,-120.5 544.33,-127.5"/>
</g>
<!-- Node24 -->
<g id="node24" class="node">
<title>Node24</title>
<g id="a_node24"><a xlink:href="common__tlm__cmd__packet_8h.html#a38431270f66de04dc2e058d47635a084" target="_top" xlink:title="CMD パラメタ長を取得">
<polygon fill="white" stroke="black" points="533,-76.5 533,-95.5 647,-95.5 647,-76.5 533,-76.5"/>
<text text-anchor="middle" x="590" y="-83.5" font-family="Helvetica,sans-Serif" font-size="10.00">CCP_get_param_len</text>
</a>
</g>
</g>
<!-- Node14&#45;&gt;Node24 -->
<g id="edge25" class="edge">
<title>Node14&#45;&gt;Node24</title>
<path fill="none" stroke="midnightblue" d="M459.66,-114.41C482.79,-109.33 511.4,-103.04 535.83,-97.68"/>
<polygon fill="midnightblue" stroke="midnightblue" points="536.64,-101.08 545.66,-95.52 535.14,-94.25 536.64,-101.08"/>
</g>
<!-- Node26 -->
<g id="node26" class="node">
<title>Node26</title>
<g id="a_node26"><a xlink:href="event__logger_8c.html#a25a74a48375dfc1f3f80be68e0ac00ea" target="_top" xlink:title="イベント (EL_Event) を記録">
<polygon fill="white" stroke="black" points="541.5,-284.5 541.5,-303.5 638.5,-303.5 638.5,-284.5 541.5,-284.5"/>
<text text-anchor="middle" x="590" y="-291.5" font-family="Helvetica,sans-Serif" font-size="10.00">EL_record_event</text>
</a>
</g>
</g>
<!-- Node14&#45;&gt;Node26 -->
<g id="edge27" class="edge">
<title>Node14&#45;&gt;Node26</title>
<path fill="none" stroke="midnightblue" d="M425.8,-133.63C454.11,-161.45 536.27,-242.19 572.04,-277.33"/>
<polygon fill="midnightblue" stroke="midnightblue" points="569.72,-279.97 579.31,-284.48 574.63,-274.97 569.72,-279.97"/>
</g>
<!-- Node16 -->
<g id="node16" class="node">
<title>Node16</title>
<g id="a_node16"><a xlink:href="command__analyze_8c.html#ac95557475d470f986e1eb46befbc2ae9" target="_top" xlink:title="最小コマンドパラメタ長を取得する">
<polygon fill="white" stroke="black" points="699,-180.5 699,-199.5 857,-199.5 857,-180.5 699,-180.5"/>
<text text-anchor="middle" x="778" y="-187.5" font-family="Helvetica,sans-Serif" font-size="10.00">CA_get_cmd_param_min_len</text>
</a>
</g>
</g>
<!-- Node15&#45;&gt;Node16 -->
<g id="edge15" class="edge">
<title>Node15&#45;&gt;Node16</title>
<path fill="none" stroke="midnightblue" d="M663.18,-184.49C671.55,-184.9 680.15,-185.31 688.7,-185.73"/>
<polygon fill="midnightblue" stroke="midnightblue" points="688.54,-189.22 698.7,-186.21 688.88,-182.23 688.54,-189.22"/>
</g>
<!-- Node19 -->
<g id="node19" class="node">
<title>Node19</title>
<g id="a_node19"><a xlink:href="command__analyze_8c.html#a8b245c2a85084ae21588acd4deb3b3d6" target="_top" xlink:title="RAW パラメタを持っているか？">
<polygon fill="white" stroke="black" points="721.5,-218.5 721.5,-237.5 834.5,-237.5 834.5,-218.5 721.5,-218.5"/>
<text text-anchor="middle" x="778" y="-225.5" font-family="Helvetica,sans-Serif" font-size="10.00">CA_has_raw_param</text>
</a>
</g>
</g>
<!-- Node15&#45;&gt;Node19 -->
<g id="edge18" class="edge">
<title>Node15&#45;&gt;Node19</title>
<path fill="none" stroke="midnightblue" d="M627.46,-190.6C648.38,-196.06 675.14,-203 699,-209 708.23,-211.32 718.08,-213.75 727.58,-216.08"/>
<polygon fill="midnightblue" stroke="midnightblue" points="726.75,-219.48 737.29,-218.45 728.41,-212.68 726.75,-219.48"/>
</g>
<!-- Node21 -->
<g id="node21" class="node">
<title>Node21</title>
<g id="a_node21"><a xlink:href="common__tlm__cmd__packet_8h.html#a0cb576a77e94553c22d9cb70a6fd50f1" target="_top" xlink:title="CMD パラメタ長の最大値を取得">
<polygon fill="white" stroke="black" points="707.5,-142.5 707.5,-161.5 848.5,-161.5 848.5,-142.5 707.5,-142.5"/>
<text text-anchor="middle" x="778" y="-149.5" font-family="Helvetica,sans-Serif" font-size="10.00">CCP_get_max_param_len</text>
</a>
</g>
</g>
<!-- Node15&#45;&gt;Node21 -->
<g id="edge22" class="edge">
<title>Node15&#45;&gt;Node21</title>
<path fill="none" stroke="midnightblue" d="M652.16,-171.46C669.24,-168.8 687.96,-165.88 705.58,-163.14"/>
<polygon fill="midnightblue" stroke="midnightblue" points="706.46,-166.54 715.8,-161.54 705.38,-159.62 706.46,-166.54"/>
</g>
<!-- Node17 -->
<g id="node17" class="node">
<title>Node17</title>
<g id="a_node17"><a xlink:href="command__analyze_8c.html#a464f3aa16753a76bc5093100542a361a" target="_top" xlink:title="コマンドパラメタサイズを取得する">
<polygon fill="white" stroke="black" points="894,-142.5 894,-161.5 1033,-161.5 1033,-142.5 894,-142.5"/>
<text text-anchor="middle" x="963.5" y="-149.5" font-family="Helvetica,sans-Serif" font-size="10.00">CA_get_cmd_param_size</text>
</a>
</g>
</g>
<!-- Node16&#45;&gt;Node17 -->
<g id="edge16" class="edge">
<title>Node16&#45;&gt;Node17</title>
<path fill="none" stroke="midnightblue" d="M825.3,-180.41C849.96,-175.31 880.46,-168.99 906.44,-163.61"/>
<polygon fill="midnightblue" stroke="midnightblue" points="907.45,-166.98 916.53,-161.52 906.03,-160.12 907.45,-166.98"/>
</g>
<!-- Node18 -->
<g id="node18" class="node">
<title>Node18</title>
<g id="a_node18"><a xlink:href="command__analyze_8c.html#aa312aeadf3ce336a10385fe14e22f77c" target="_top" xlink:title="コマンドパラメタのサイズ情報を取得">
<polygon fill="white" stroke="black" points="1070,-180.5 1070,-199.5 1215,-199.5 1215,-180.5 1070,-180.5"/>
<text text-anchor="middle" x="1142.5" y="-187.5" font-family="Helvetica,sans-Serif" font-size="10.00">CA_get_param_size_type_</text>
</a>
</g>
</g>
<!-- Node17&#45;&gt;Node18 -->
<g id="edge17" class="edge">
<title>Node17&#45;&gt;Node18</title>
<path fill="none" stroke="midnightblue" d="M1009.16,-161.59C1032.84,-166.67 1062.11,-172.96 1087.1,-178.32"/>
<polygon fill="midnightblue" stroke="midnightblue" points="1086.64,-181.8 1097.16,-180.48 1088.11,-174.96 1086.64,-181.8"/>
</g>
<!-- Node19&#45;&gt;Node18 -->
<g id="edge21" class="edge">
<title>Node19&#45;&gt;Node18</title>
<path fill="none" stroke="midnightblue" d="M834.62,-225.47C886.39,-222.73 965.61,-217.57 1034,-209 1050.04,-206.99 1067.33,-204.21 1083.26,-201.4"/>
<polygon fill="midnightblue" stroke="midnightblue" points="1084.27,-204.77 1093.49,-199.55 1083.03,-197.88 1084.27,-204.77"/>
</g>
<!-- Node20 -->
<g id="node20" class="node">
<title>Node20</title>
<g id="a_node20"><a xlink:href="command__analyze_8c.html#a170772c49fb7883a382a30bd38485a6e" target="_top" xlink:title="コマンドパラメタ数を取得する">
<polygon fill="white" stroke="black" points="893,-180.5 893,-199.5 1034,-199.5 1034,-180.5 893,-180.5"/>
<text text-anchor="middle" x="963.5" y="-187.5" font-family="Helvetica,sans-Serif" font-size="10.00">CA_get_cmd_param_num</text>
</a>
</g>
</g>
<!-- Node19&#45;&gt;Node20 -->
<g id="edge19" class="edge">
<title>Node19&#45;&gt;Node20</title>
<path fill="none" stroke="midnightblue" d="M825.3,-218.41C849.96,-213.31 880.46,-206.99 906.44,-201.61"/>
<polygon fill="midnightblue" stroke="midnightblue" points="907.45,-204.98 916.53,-199.52 906.03,-198.12 907.45,-204.98"/>
</g>
<!-- Node20&#45;&gt;Node18 -->
<g id="edge20" class="edge">
<title>Node20&#45;&gt;Node18</title>
<path fill="none" stroke="midnightblue" d="M1034.2,-190C1042.52,-190 1051.08,-190 1059.55,-190"/>
<polygon fill="midnightblue" stroke="midnightblue" points="1059.83,-193.5 1069.83,-190 1059.83,-186.5 1059.83,-193.5"/>
</g>
<!-- Node23 -->
<g id="node23" class="node">
<title>Node23</title>
<g id="a_node23"><a xlink:href="_t_c_packet_8c.html#a39f967d198c8041c0e07b8b356b23f83" target="_top" xlink:title="channel ID を取得">
<polygon fill="white" stroke="black" points="707,-104.5 707,-123.5 849,-123.5 849,-104.5 707,-104.5"/>
<text text-anchor="middle" x="778" y="-111.5" font-family="Helvetica,sans-Serif" font-size="10.00">TCP_CMD_get_channel_id</text>
</a>
</g>
</g>
<!-- Node22&#45;&gt;Node23 -->
<g id="edge24" class="edge">
<title>Node22&#45;&gt;Node23</title>
<path fill="none" stroke="midnightblue" d="M625.55,-122.14C645.59,-121.07 671.71,-119.66 696.61,-118.32"/>
<polygon fill="midnightblue" stroke="midnightblue" points="697.01,-121.81 706.81,-117.77 696.64,-114.82 697.01,-121.81"/>
</g>
<!-- Node25 -->
<g id="node25" class="node">
<title>Node25</title>
<g id="a_node25"><a xlink:href="_t_c_packet_8c.html#a4088b7a1b29268cecc23866a45238fd6" target="_top" xlink:title="Packet Length を取得">
<polygon fill="white" stroke="black" points="721.5,-66.5 721.5,-85.5 834.5,-85.5 834.5,-66.5 721.5,-66.5"/>
<text text-anchor="middle" x="778" y="-73.5" font-family="Helvetica,sans-Serif" font-size="10.00">TCP_get_packet_len</text>
</a>
</g>
</g>
<!-- Node24&#45;&gt;Node25 -->
<g id="edge26" class="edge">
<title>Node24&#45;&gt;Node25</title>
<path fill="none" stroke="midnightblue" d="M647.06,-82.99C667.28,-81.9 690.29,-80.66 711.26,-79.53"/>
<polygon fill="midnightblue" stroke="midnightblue" points="711.58,-83.02 721.38,-78.99 711.2,-76.03 711.58,-83.02"/>
</g>
<!-- Node27 -->
<g id="node27" class="node">
<title>Node27</title>
<g id="a_node27"><a xlink:href="event__logger_8c.html#a80a1b60c587d1e3402b02e3bde1db899" target="_top" xlink:title="イベント (EL_Event) を記録">
<polygon fill="white" stroke="black" points="727,-372.5 727,-391.5 829,-391.5 829,-372.5 727,-372.5"/>
<text text-anchor="middle" x="778" y="-379.5" font-family="Helvetica,sans-Serif" font-size="10.00">EL_record_event_</text>
</a>
</g>
</g>
<!-- Node26&#45;&gt;Node27 -->
<g id="edge28" class="edge">
<title>Node26&#45;&gt;Node27</title>
<path fill="none" stroke="midnightblue" d="M611.26,-303.59C644.24,-319.19 709.68,-350.15 747.72,-368.15"/>
<polygon fill="midnightblue" stroke="midnightblue" points="746.23,-371.31 756.77,-372.43 749.22,-364.99 746.23,-371.31"/>
</g>
<!-- Node28 -->
<g id="node28" class="node">
<title>Node28</title>
<g id="a_node28"><a xlink:href="event__logger_8c.html#aeae14f21b4e29006f709a61e7de52d67" target="_top" xlink:title="TLog の wp をチェックし， event を生成する">
<polygon fill="white" stroke="black" points="908.5,-432.5 908.5,-451.5 1018.5,-451.5 1018.5,-432.5 908.5,-432.5"/>
<text text-anchor="middle" x="963.5" y="-439.5" font-family="Helvetica,sans-Serif" font-size="10.00">EL_check_tlog_wp_</text>
</a>
</g>
</g>
<!-- Node27&#45;&gt;Node28 -->
<g id="edge29" class="edge">
<title>Node27&#45;&gt;Node28</title>
<path fill="none" stroke="midnightblue" d="M825.86,-391.52C846.35,-398.32 870.74,-406.97 893,-414 908.87,-419.02 927.02,-423.95 940.8,-428.8"/>
<polygon fill="midnightblue" stroke="midnightblue" points="939.77,-432.16 950.36,-432.49 942.29,-425.62 939.77,-432.16"/>
</g>
<!-- Node29 -->
<g id="node29" class="node">
<title>Node29</title>
<g id="a_node29"><a xlink:href="event__logger_8c.html#a0b42c2f5d1eafdad83481ec6e63365e2" target="_top" xlink:title="イベント (EL_Event) を初期化">
<polygon fill="white" stroke="black" points="920,-470.5 920,-489.5 1007,-489.5 1007,-470.5 920,-470.5"/>
<text text-anchor="middle" x="963.5" y="-477.5" font-family="Helvetica,sans-Serif" font-size="10.00">EL_init_event_</text>
</a>
</g>
</g>
<!-- Node27&#45;&gt;Node29 -->
<g id="edge31" class="edge">
<title>Node27&#45;&gt;Node29</title>
<path fill="none" stroke="midnightblue" d="M790.17,-391.71C809.72,-408.23 851.97,-441.86 893,-461 898.37,-463.51 904.14,-465.74 909.97,-467.71"/>
<polygon fill="midnightblue" stroke="midnightblue" points="909.2,-471.13 919.78,-470.78 911.29,-464.45 909.2,-471.13"/>
</g>
<!-- Node31 -->
<g id="node31" class="node">
<title>Node31</title>
<g id="a_node31"><a xlink:href="event__logger_8c.html#a50ba2fe43a96f7351951a4109227ba6f" target="_top" xlink:title="event_logger の EL_Event.group が有効か？">
<polygon fill="white" stroke="black" points="903,-394.5 903,-413.5 1024,-413.5 1024,-394.5 903,-394.5"/>
<text text-anchor="middle" x="963.5" y="-401.5" font-family="Helvetica,sans-Serif" font-size="10.00">EL_is_logging_enable</text>
</a>
</g>
</g>
<!-- Node27&#45;&gt;Node31 -->
<g id="edge34" class="edge">
<title>Node27&#45;&gt;Node31</title>
<path fill="none" stroke="midnightblue" d="M829.14,-388.01C848.84,-390.37 871.78,-393.12 893.02,-395.67"/>
<polygon fill="midnightblue" stroke="midnightblue" points="892.62,-399.15 902.97,-396.86 893.46,-392.2 892.62,-399.15"/>
</g>
<!-- Node32 -->
<g id="node32" class="node">
<title>Node32</title>
<g id="a_node32"><a xlink:href="event__logger_8c.html#a69fb9dbc85ad467d048f1c9f31d2442c" target="_top" xlink:title="イベント (EL_Event) を CLog に記録">
<polygon fill="white" stroke="black" points="907.5,-345 907.5,-375 1019.5,-375 1019.5,-345 907.5,-345"/>
<text text-anchor="start" x="915.5" y="-363" font-family="Helvetica,sans-Serif" font-size="10.00">EL_record_event_to</text>
<text text-anchor="middle" x="963.5" y="-352" font-family="Helvetica,sans-Serif" font-size="10.00">_clog_</text>
</a>
</g>
</g>
<!-- Node27&#45;&gt;Node32 -->
<g id="edge35" class="edge">
<title>Node27&#45;&gt;Node32</title>
<path fill="none" stroke="midnightblue" d="M829.14,-375.99C850.12,-373.47 874.79,-370.52 897.16,-367.83"/>
<polygon fill="midnightblue" stroke="midnightblue" points="897.75,-371.29 907.26,-366.62 896.91,-364.34 897.75,-371.29"/>
</g>
<!-- Node36 -->
<g id="node36" class="node">
<title>Node36</title>
<g id="a_node36"><a xlink:href="event__logger_8c.html#a93cb3659efd373de0856c92b3c08896a" target="_top" xlink:title="イベント (EL_Event) を TLog に記録">
<polygon fill="white" stroke="black" points="907.5,-257 907.5,-287 1019.5,-287 1019.5,-257 907.5,-257"/>
<text text-anchor="start" x="915.5" y="-275" font-family="Helvetica,sans-Serif" font-size="10.00">EL_record_event_to</text>
<text text-anchor="middle" x="963.5" y="-264" font-family="Helvetica,sans-Serif" font-size="10.00">_tlog_</text>
</a>
</g>
</g>
<!-- Node27&#45;&gt;Node36 -->
<g id="edge41" class="edge">
<title>Node27&#45;&gt;Node36</title>
<path fill="none" stroke="midnightblue" d="M791.1,-372.25C811.35,-356.23 853.74,-323.94 893,-302 899.78,-298.21 907.12,-294.58 914.42,-291.22"/>
<polygon fill="midnightblue" stroke="midnightblue" points="915.88,-294.4 923.59,-287.14 913.03,-288.01 915.88,-294.4"/>
</g>
<!-- Node28&#45;&gt;Node27 -->
<g id="edge30" class="edge">
<title>Node28&#45;&gt;Node27</title>
<path fill="none" stroke="midnightblue" d="M908.12,-436.54C903,-435.08 897.89,-433.55 893,-432 859.63,-421.46 821.48,-407.3 798.86,-396.21"/>
<polygon fill="midnightblue" stroke="midnightblue" points="800.39,-393.06 789.91,-391.51 797.14,-399.25 800.39,-393.06"/>
</g>
<!-- Node29&#45;&gt;Node30 -->
<g id="edge32" class="edge">
<title>Node29&#45;&gt;Node30</title>
<path fill="none" stroke="midnightblue" d="M1007.35,-489.2C1031.37,-494.36 1061.58,-500.84 1087.24,-506.35"/>
<polygon fill="midnightblue" stroke="midnightblue" points="1086.69,-509.81 1097.2,-508.49 1088.16,-502.97 1086.69,-509.81"/>
</g>
<!-- Node30&#45;&gt;Node12 -->
<g id="edge33" class="edge">
<title>Node30&#45;&gt;Node12</title>
<path fill="none" stroke="midnightblue" d="M1211.23,-518C1230.99,-518 1252.2,-518 1270.6,-518"/>
<polygon fill="midnightblue" stroke="midnightblue" points="1270.79,-521.5 1280.79,-518 1270.79,-514.5 1270.79,-521.5"/>
</g>
<!-- Node32&#45;&gt;Node10 -->
<g id="edge40" class="edge">
<title>Node32&#45;&gt;Node10</title>
<path fill="none" stroke="midnightblue" d="M1013.8,-375.08C1020.78,-377.97 1027.71,-381.28 1034,-385 1070.71,-406.73 1106.41,-441.9 1126.03,-462.81"/>
<polygon fill="midnightblue" stroke="midnightblue" points="1123.6,-465.34 1132.95,-470.31 1128.75,-460.59 1123.6,-465.34"/>
</g>
<!-- Node33 -->
<g id="node33" class="node">
<title>Node33</title>
<g id="a_node33"><a xlink:href="event__logger_8c.html#a605a3ff223ddae8830c09ff5aa57cc94" target="_top" xlink:title="該当イベントの CLog を，イベントテーブルの先頭に出す">
<polygon fill="white" stroke="black" points="1083,-345 1083,-375 1202,-375 1202,-345 1083,-345"/>
<text text-anchor="start" x="1091" y="-363" font-family="Helvetica,sans-Serif" font-size="10.00">EL_move_to_front_in</text>
<text text-anchor="middle" x="1142.5" y="-352" font-family="Helvetica,sans-Serif" font-size="10.00">_clog_</text>
</a>
</g>
</g>
<!-- Node32&#45;&gt;Node33 -->
<g id="edge36" class="edge">
<title>Node32&#45;&gt;Node33</title>
<path fill="none" stroke="midnightblue" d="M1019.53,-360C1036.33,-360 1055.01,-360 1072.61,-360"/>
<polygon fill="midnightblue" stroke="midnightblue" points="1072.82,-363.5 1082.82,-360 1072.82,-356.5 1072.82,-363.5"/>
</g>
<!-- Node34 -->
<g id="node34" class="node">
<title>Node34</title>
<g id="a_node34"><a xlink:href="event__logger_8c.html#a60dac03ee61b8b3fb3ac6335babb7209" target="_top" xlink:title="イベントテーブル先頭に該当イベントの CLog をつくる">
<polygon fill="white" stroke="black" points="1251,-309.5 1251,-328.5 1391,-328.5 1391,-309.5 1251,-309.5"/>
<text text-anchor="middle" x="1321" y="-316.5" font-family="Helvetica,sans-Serif" font-size="10.00">EL_create_clog_on_front_</text>
</a>
</g>
</g>
<!-- Node33&#45;&gt;Node34 -->
<g id="edge37" class="edge">
<title>Node33&#45;&gt;Node34</title>
<path fill="none" stroke="midnightblue" d="M1202.27,-346.35C1223.9,-341.32 1248.2,-335.68 1269.08,-330.83"/>
<polygon fill="midnightblue" stroke="midnightblue" points="1270.09,-334.19 1279.03,-328.52 1268.5,-327.37 1270.09,-334.19"/>
</g>
<!-- Node35 -->
<g id="node35" class="node">
<title>Node35</title>
<g id="a_node35"><a xlink:href="event__logger_8c.html#a987cce8c848158cc3038bb59dc100de3" target="_top" xlink:title="該当イベントの CLog を検索し取得する">
<polygon fill="white" stroke="black" points="1273,-350.5 1273,-369.5 1369,-369.5 1369,-350.5 1273,-350.5"/>
<text text-anchor="middle" x="1321" y="-357.5" font-family="Helvetica,sans-Serif" font-size="10.00">EL_search_clog_</text>
</a>
</g>
</g>
<!-- Node33&#45;&gt;Node35 -->
<g id="edge39" class="edge">
<title>Node33&#45;&gt;Node35</title>
<path fill="none" stroke="midnightblue" d="M1202.27,-360C1221.74,-360 1243.37,-360 1262.72,-360"/>
<polygon fill="midnightblue" stroke="midnightblue" points="1262.91,-363.5 1272.91,-360 1262.91,-356.5 1262.91,-363.5"/>
</g>
<!-- Node34&#45;&gt;Node27 -->
<g id="edge38" class="edge">
<title>Node34&#45;&gt;Node27</title>
<path fill="none" stroke="midnightblue" d="M1250.69,-314.55C1165.45,-310.71 1016.85,-309.39 893,-336 861.96,-342.67 828.5,-357.12 805.92,-368.06"/>
<polygon fill="midnightblue" stroke="midnightblue" points="804.35,-364.92 796.94,-372.49 807.46,-371.2 804.35,-364.92"/>
</g>
<!-- Node37 -->
<g id="node37" class="node">
<title>Node37</title>
<g id="a_node37"><a xlink:href="event__logger_8c.html#af088469f27d5dfca608a9cacee9fbc17" target="_top" xlink:title="TLog のイベントテーブルの上書きが有効か？">
<polygon fill="white" stroke="black" points="1084,-257 1084,-287 1201,-287 1201,-257 1084,-257"/>
<text text-anchor="start" x="1092" y="-275" font-family="Helvetica,sans-Serif" font-size="10.00">EL_is_tlog_overwrite</text>
<text text-anchor="middle" x="1142.5" y="-264" font-family="Helvetica,sans-Serif" font-size="10.00">_enable</text>
</a>
</g>
</g>
<!-- Node36&#45;&gt;Node37 -->
<g id="edge42" class="edge">
<title>Node36&#45;&gt;Node37</title>
<path fill="none" stroke="midnightblue" d="M1019.53,-272C1036.66,-272 1055.76,-272 1073.66,-272"/>
<polygon fill="midnightblue" stroke="midnightblue" points="1073.74,-275.5 1083.74,-272 1073.74,-268.5 1073.74,-275.5"/>
</g>
<!-- Node39 -->
<g id="node39" class="node">
<title>Node39</title>
<g id="a_node39"><a xlink:href="_t_c_packet_8c.html#a58270c80e8bf611867892b029a0d32f9" target="_top" xlink:title="APID を取得">
<polygon fill="white" stroke="black" points="737,-28.5 737,-47.5 819,-47.5 819,-28.5 737,-28.5"/>
<text text-anchor="middle" x="778" y="-35.5" font-family="Helvetica,sans-Serif" font-size="10.00">TCP_get_apid</text>
</a>
</g>
</g>
<!-- Node38&#45;&gt;Node39 -->
<g id="edge44" class="edge">
<title>Node38&#45;&gt;Node39</title>
<path fill="none" stroke="midnightblue" d="M639.38,-45.4C666.2,-43.96 699.51,-42.17 726.64,-40.71"/>
<polygon fill="midnightblue" stroke="midnightblue" points="726.91,-44.2 736.71,-40.17 726.54,-37.21 726.91,-44.2"/>
</g>
<!-- Node41 -->
<g id="node41" class="node">
<title>Node41</title>
<g id="a_node41"><a xlink:href="_t_c_packet_8c.html#aeef51e70e41085a34fe5c6629d3cc2ae" target="_top" xlink:title="TCP type を取得">
<polygon fill="white" stroke="black" points="548.5,-0.5 548.5,-19.5 631.5,-19.5 631.5,-0.5 548.5,-0.5"/>
<text text-anchor="middle" x="590" y="-7.5" font-family="Helvetica,sans-Serif" font-size="10.00">TCP_get_type</text>
</a>
</g>
</g>
<!-- Node40&#45;&gt;Node41 -->
<g id="edge46" class="edge">
<title>Node40&#45;&gt;Node41</title>
<path fill="none" stroke="midnightblue" d="M464.19,-10C487.27,-10 514.91,-10 538.3,-10"/>
<polygon fill="midnightblue" stroke="midnightblue" points="538.38,-13.5 548.38,-10 538.38,-6.5 538.38,-13.5"/>
</g>
<!-- Node42&#45;&gt;Node38 -->
<g id="edge48" class="edge">
<title>Node42&#45;&gt;Node38</title>
<path fill="none" stroke="midnightblue" d="M473.61,-48C492.02,-48 512.4,-48 530.85,-48"/>
<polygon fill="midnightblue" stroke="midnightblue" points="530.88,-51.5 540.88,-48 530.88,-44.5 530.88,-51.5"/>
</g>
</g>
</svg>
