<?xml version="1.0" encoding="UTF-8" standalone="no"?>
<!DOCTYPE svg PUBLIC "-//W3C//DTD SVG 1.1//EN"
 "http://www.w3.org/Graphics/SVG/1.1/DTD/svg11.dtd">
<!-- Generated by graphviz version 2.43.0 (0)
 -->
<!-- Title: BCL_clear_info_ Pages: 1 -->
<svg width="1965pt" height="565pt"
 viewBox="0.00 0.00 1965.00 564.96" xmlns="http://www.w3.org/2000/svg" xmlns:xlink="http://www.w3.org/1999/xlink">
<g id="graph0" class="graph" transform="scale(1 1) rotate(0) translate(4 560.96)">
<title>BCL_clear_info_</title>
<polygon fill="white" stroke="transparent" points="-4,4 -4,-560.96 1961,-560.96 1961,4 -4,4"/>
<!-- Node1 -->
<g id="node1" class="node">
<title>Node1</title>
<g id="a_node1"><a xlink:title=" ">
<polygon fill="#bfbfbf" stroke="black" points="1863,-130.96 1863,-149.96 1957,-149.96 1957,-130.96 1863,-130.96"/>
<text text-anchor="middle" x="1910" y="-137.96" font-family="Helvetica,sans-Serif" font-size="10.00">BCL_clear_info_</text>
</a>
</g>
</g>
<!-- Node2 -->
<g id="node2" class="node">
<title>Node2</title>
<g id="a_node2"><a xlink:href="block__command__loader_8h.html#a3a343b39b373c74ee87e99c11e142d49" target="_top" xlink:title="指定されたブロックコマンドIDへの登録を安全に行うためのwrapper関数">
<polygon fill="white" stroke="black" points="1526.5,-51.96 1526.5,-70.96 1604.5,-70.96 1604.5,-51.96 1526.5,-51.96"/>
<text text-anchor="middle" x="1565.5" y="-58.96" font-family="Helvetica,sans-Serif" font-size="10.00">BCL_load_bc</text>
</a>
</g>
</g>
<!-- Node1&#45;&gt;Node2 -->
<g id="edge1" class="edge">
<title>Node1&#45;&gt;Node2</title>
<path fill="none" stroke="midnightblue" d="M1852.83,-147.2C1803.99,-150.49 1732.7,-148.98 1678,-121.46 1656.34,-110.56 1662.69,-93.1 1642,-80.46 1630.81,-73.62 1617.26,-69.24 1604.75,-66.43"/>
<polygon fill="midnightblue" stroke="midnightblue" points="1853.19,-150.68 1862.89,-146.43 1852.65,-143.7 1853.19,-150.68"/>
</g>
<!-- Node21 -->
<g id="node21" class="node">
<title>Node21</title>
<g id="a_node21"><a xlink:href="block__command__loader_8h.html#a79f8c8fdf61bea28c3e44ddfe447c46d" target="_top" xlink:title="ブロックコマンドの最後にアプリの実行コマンドを追加する">
<polygon fill="white" stroke="black" points="1690,-408.96 1690,-427.96 1815,-427.96 1815,-408.96 1690,-408.96"/>
<text text-anchor="middle" x="1752.5" y="-415.96" font-family="Helvetica,sans-Serif" font-size="10.00">BCL_tool_register_app</text>
</a>
</g>
</g>
<!-- Node1&#45;&gt;Node21 -->
<g id="edge26" class="edge">
<title>Node1&#45;&gt;Node21</title>
<path fill="none" stroke="midnightblue" d="M1898.72,-158.84C1868.6,-212.67 1781.31,-368.74 1758.83,-408.93"/>
<polygon fill="midnightblue" stroke="midnightblue" points="1901.82,-160.46 1903.65,-150.02 1895.71,-157.04 1901.82,-160.46"/>
</g>
<!-- Node27 -->
<g id="node27" class="node">
<title>Node27</title>
<g id="a_node27"><a xlink:href="block__command__loader_8h.html#adc8e2381948a082e62d72d9971fc203f" target="_top" xlink:title="ブロックコマンドの最後にコマンドを追加する">
<polygon fill="white" stroke="black" points="1688.5,-215.96 1688.5,-234.96 1816.5,-234.96 1816.5,-215.96 1688.5,-215.96"/>
<text text-anchor="middle" x="1752.5" y="-222.96" font-family="Helvetica,sans-Serif" font-size="10.00">BCL_tool_register_cmd</text>
</a>
</g>
</g>
<!-- Node1&#45;&gt;Node27 -->
<g id="edge37" class="edge">
<title>Node1&#45;&gt;Node27</title>
<path fill="none" stroke="midnightblue" d="M1888.98,-156.45C1872.9,-168.77 1849.38,-185.64 1827,-197.46 1813.23,-204.72 1797.15,-211.07 1783.55,-215.88"/>
<polygon fill="midnightblue" stroke="midnightblue" points="1891.35,-159.03 1897.1,-150.13 1887.05,-153.51 1891.35,-159.03"/>
</g>
<!-- Node34 -->
<g id="node34" class="node">
<title>Node34</title>
<g id="a_node34"><a xlink:href="block__command__loader_8h.html#a99596019ff3a563f43ebae43ce86a03a" target="_top" xlink:title="ブロックコマンドの最後にコンバイナーの実行コマンドを追加する">
<polygon fill="white" stroke="black" points="1678,-92.96 1678,-111.96 1827,-111.96 1827,-92.96 1678,-92.96"/>
<text text-anchor="middle" x="1752.5" y="-99.96" font-family="Helvetica,sans-Serif" font-size="10.00">BCL_tool_register_combine</text>
</a>
</g>
</g>
<!-- Node1&#45;&gt;Node34 -->
<g id="edge50" class="edge">
<title>Node1&#45;&gt;Node34</title>
<path fill="none" stroke="midnightblue" d="M1860.03,-128.49C1838.23,-123.16 1812.93,-116.98 1792.46,-111.98"/>
<polygon fill="midnightblue" stroke="midnightblue" points="1859.22,-131.89 1869.76,-130.87 1860.88,-125.09 1859.22,-131.89"/>
</g>
<!-- Node36 -->
<g id="node36" class="node">
<title>Node36</title>
<g id="a_node36"><a xlink:href="block__command__loader_8h.html#af4cd27ff6d5da716d1907556847d7326" target="_top" xlink:title="ブロックコマンドの最後にブロックコマンドの展開コマンドを追加する">
<polygon fill="white" stroke="black" points="1682.5,-168.96 1682.5,-187.96 1822.5,-187.96 1822.5,-168.96 1682.5,-168.96"/>
<text text-anchor="middle" x="1752.5" y="-175.96" font-family="Helvetica,sans-Serif" font-size="10.00">BCL_tool_register_deploy</text>
</a>
</g>
</g>
<!-- Node1&#45;&gt;Node36 -->
<g id="edge55" class="edge">
<title>Node1&#45;&gt;Node36</title>
<path fill="none" stroke="midnightblue" d="M1860.03,-152.42C1838.23,-157.75 1812.93,-163.93 1792.46,-168.93"/>
<polygon fill="midnightblue" stroke="midnightblue" points="1860.88,-155.82 1869.76,-150.04 1859.22,-149.02 1860.88,-155.82"/>
</g>
<!-- Node37 -->
<g id="node37" class="node">
<title>Node37</title>
<g id="a_node37"><a xlink:href="block__command__loader_8h.html#a5b59475bbbf303eaca56af95565e6f69" target="_top" xlink:title="ブロックコマンドの最後にタイムリミットコンバイナーの実行コマンドを追加する">
<polygon fill="white" stroke="black" points="1687.5,-43.46 1687.5,-73.46 1817.5,-73.46 1817.5,-43.46 1687.5,-43.46"/>
<text text-anchor="start" x="1695.5" y="-61.46" font-family="Helvetica,sans-Serif" font-size="10.00">BCL_tool_register_limit</text>
<text text-anchor="middle" x="1752.5" y="-50.46" font-family="Helvetica,sans-Serif" font-size="10.00">_combine</text>
</a>
</g>
</g>
<!-- Node1&#45;&gt;Node37 -->
<g id="edge59" class="edge">
<title>Node1&#45;&gt;Node37</title>
<path fill="none" stroke="midnightblue" d="M1889.37,-124.45C1873.35,-111.99 1849.72,-94.93 1827,-83.46 1819.78,-79.81 1811.91,-76.5 1804.09,-73.57"/>
<polygon fill="midnightblue" stroke="midnightblue" points="1887.43,-127.38 1897.44,-130.84 1891.77,-121.89 1887.43,-127.38"/>
</g>
<!-- Node38 -->
<g id="node38" class="node">
<title>Node38</title>
<g id="a_node38"><a xlink:href="block__command__loader_8h.html#a03346645bccaa62a79cee806dfb3609e" target="_top" xlink:title="ブロックコマンドの最後にローテーターの実行コマンドを追加する">
<polygon fill="white" stroke="black" points="1684,-4.96 1684,-23.96 1821,-23.96 1821,-4.96 1684,-4.96"/>
<text text-anchor="middle" x="1752.5" y="-11.96" font-family="Helvetica,sans-Serif" font-size="10.00">BCL_tool_register_rotate</text>
</a>
</g>
</g>
<!-- Node1&#45;&gt;Node38 -->
<g id="edge60" class="edge">
<title>Node1&#45;&gt;Node38</title>
<path fill="none" stroke="midnightblue" d="M1899.63,-121.53C1886.67,-97.35 1860.98,-55.96 1827,-33.46 1821.18,-29.6 1814.61,-26.52 1807.87,-24.07"/>
<polygon fill="midnightblue" stroke="midnightblue" points="1896.69,-123.45 1904.39,-130.73 1902.9,-120.24 1896.69,-123.45"/>
</g>
<!-- Node3 -->
<g id="node3" class="node">
<title>Node3</title>
<g id="a_node3"><a xlink:href="block__command__definitions_8h.html#a522491947d97b89960b9228a8a86c3ec" target="_top" xlink:title="各ブロックコマンドIDに中身の初期値をロードしていく">
<polygon fill="white" stroke="black" points="1311.5,-272.96 1311.5,-291.96 1412.5,-291.96 1412.5,-272.96 1311.5,-272.96"/>
<text text-anchor="middle" x="1362" y="-279.96" font-family="Helvetica,sans-Serif" font-size="10.00">BC_load_defaults</text>
</a>
</g>
</g>
<!-- Node2&#45;&gt;Node3 -->
<g id="edge2" class="edge">
<title>Node2&#45;&gt;Node3</title>
<path fill="none" stroke="midnightblue" d="M1516.66,-67.21C1506.81,-70.05 1497.01,-74.25 1489,-80.46 1462.58,-100.91 1470.24,-117.83 1453,-146.46 1423.79,-194.97 1385.29,-250.69 1369.84,-272.74"/>
<polygon fill="midnightblue" stroke="midnightblue" points="1517.59,-70.59 1526.47,-64.8 1515.92,-63.79 1517.59,-70.59"/>
</g>
<!-- Node9 -->
<g id="node9" class="node">
<title>Node9</title>
<g id="a_node9"><a xlink:href="telemetry__manager_8h.html#af33b34d33dbb6ce127f3fc6d240f2a23" target="_top" xlink:title="master bc の初期化">
<polygon fill="white" stroke="black" points="1271,-13.96 1271,-32.96 1453,-32.96 1453,-13.96 1271,-13.96"/>
<text text-anchor="middle" x="1362" y="-20.96" font-family="Helvetica,sans-Serif" font-size="10.00">Cmd_TLM_MGR_INIT_MASTER_BC</text>
</a>
</g>
</g>
<!-- Node2&#45;&gt;Node9 -->
<g id="edge8" class="edge">
<title>Node2&#45;&gt;Node9</title>
<path fill="none" stroke="midnightblue" d="M1515.98,-52.31C1484.96,-46.46 1444.82,-38.88 1413.43,-32.97"/>
<polygon fill="midnightblue" stroke="midnightblue" points="1515.65,-55.8 1526.13,-54.22 1516.95,-48.93 1515.65,-55.8"/>
</g>
<!-- Node12 -->
<g id="node12" class="node">
<title>Node12</title>
<g id="a_node12"><a xlink:href="telemetry__manager_8c.html#aca6344c0e7a1eb93e72a2c07f36ba89e" target="_top" xlink:title="指定したBCを NOP x TLM_MGR_MAX_TLM_NUM_PER_BC で埋める">
<polygon fill="white" stroke="black" points="1284.5,-117.96 1284.5,-136.96 1439.5,-136.96 1439.5,-117.96 1284.5,-117.96"/>
<text text-anchor="middle" x="1362" y="-124.96" font-family="Helvetica,sans-Serif" font-size="10.00">TLM_MGR_clear_bc_to_nop_</text>
</a>
</g>
</g>
<!-- Node2&#45;&gt;Node12 -->
<g id="edge12" class="edge">
<title>Node2&#45;&gt;Node12</title>
<path fill="none" stroke="midnightblue" d="M1516.47,-72.69C1507.3,-75.08 1497.81,-77.71 1489,-80.46 1452.66,-91.77 1411.52,-107.73 1386.42,-117.83"/>
<polygon fill="midnightblue" stroke="midnightblue" points="1517.42,-76.06 1526.25,-70.21 1515.7,-69.28 1517.42,-76.06"/>
</g>
<!-- Node20 -->
<g id="node20" class="node">
<title>Node20</title>
<g id="a_node20"><a xlink:href="telemetry__manager_8c.html#a86b153bbb4a7d281564275efdf95667e" target="_top" xlink:title=" ">
<polygon fill="white" stroke="black" points="1310.5,-51.96 1310.5,-70.96 1413.5,-70.96 1413.5,-51.96 1310.5,-51.96"/>
<text text-anchor="middle" x="1362" y="-58.96" font-family="Helvetica,sans-Serif" font-size="10.00">TLM_MGR_init_4_</text>
</a>
</g>
</g>
<!-- Node2&#45;&gt;Node20 -->
<g id="edge24" class="edge">
<title>Node2&#45;&gt;Node20</title>
<path fill="none" stroke="midnightblue" d="M1516.02,-61.46C1485.12,-61.46 1445.15,-61.46 1413.81,-61.46"/>
<polygon fill="midnightblue" stroke="midnightblue" points="1516.13,-64.96 1526.13,-61.46 1516.13,-57.96 1516.13,-64.96"/>
</g>
<!-- Node4 -->
<g id="node4" class="node">
<title>Node4</title>
<g id="a_node4"><a xlink:href="block__command__table_8h.html#a626372f9ceecbe91c090aac87437edd1" target="_top" xlink:title="BCT の初期化関数">
<polygon fill="white" stroke="black" points="577,-242.96 577,-261.96 660,-261.96 660,-242.96 577,-242.96"/>
<text text-anchor="middle" x="618.5" y="-249.96" font-family="Helvetica,sans-Serif" font-size="10.00">BCT_initialize</text>
</a>
</g>
</g>
<!-- Node3&#45;&gt;Node4 -->
<g id="edge3" class="edge">
<title>Node3&#45;&gt;Node4</title>
<path fill="none" stroke="midnightblue" d="M1301.39,-280.04C1155.61,-274.15 784,-259.11 660.27,-254.1"/>
<polygon fill="midnightblue" stroke="midnightblue" points="1301.35,-283.54 1311.49,-280.45 1301.64,-276.55 1301.35,-283.54"/>
</g>
<!-- Node5 -->
<g id="node5" class="node">
<title>Node5</title>
<g id="a_node5"><a xlink:href="c2a__core__main_8h.html#a65ecdc63d8762ffde4db7f6c6e6f07cf" target="_top" xlink:title=" ">
<polygon fill="white" stroke="black" points="330,-191.96 330,-210.96 413,-210.96 413,-191.96 330,-191.96"/>
<text text-anchor="middle" x="371.5" y="-198.96" font-family="Helvetica,sans-Serif" font-size="10.00">C2A_core_init</text>
</a>
</g>
</g>
<!-- Node4&#45;&gt;Node5 -->
<g id="edge4" class="edge">
<title>Node4&#45;&gt;Node5</title>
<path fill="none" stroke="midnightblue" d="M566.82,-241.91C521.36,-232.44 455.49,-218.73 413.33,-209.95"/>
<polygon fill="midnightblue" stroke="midnightblue" points="566.26,-245.36 576.77,-243.98 567.69,-238.51 566.26,-245.36"/>
</g>
<!-- Node6 -->
<g id="node6" class="node">
<title>Node6</title>
<g id="a_node6"><a xlink:href="c2a__main_8c.html#a630222a80cd8bffd4426d4a55a215069" target="_top" xlink:title=" ">
<polygon fill="white" stroke="black" points="232,-191.96 232,-210.96 294,-210.96 294,-191.96 232,-191.96"/>
<text text-anchor="middle" x="263" y="-198.96" font-family="Helvetica,sans-Serif" font-size="10.00">C2A_init_</text>
</a>
</g>
</g>
<!-- Node5&#45;&gt;Node6 -->
<g id="edge5" class="edge">
<title>Node5&#45;&gt;Node6</title>
<path fill="none" stroke="midnightblue" d="M319.76,-201.46C311.01,-201.46 302.17,-201.46 294.18,-201.46"/>
<polygon fill="midnightblue" stroke="midnightblue" points="319.93,-204.96 329.93,-201.46 319.93,-197.96 319.93,-204.96"/>
</g>
<!-- Node7 -->
<g id="node7" class="node">
<title>Node7</title>
<g id="a_node7"><a xlink:href="c2a__main_8c.html#ac3344a311adda8f9e7310924bedf81fc" target="_top" xlink:title=" ">
<polygon fill="white" stroke="black" points="77,-191.96 77,-210.96 196,-210.96 196,-191.96 77,-191.96"/>
<text text-anchor="middle" x="136.5" y="-198.96" font-family="Helvetica,sans-Serif" font-size="10.00">address_fixed_main_</text>
</a>
</g>
</g>
<!-- Node6&#45;&gt;Node7 -->
<g id="edge6" class="edge">
<title>Node6&#45;&gt;Node7</title>
<path fill="none" stroke="midnightblue" d="M221.83,-201.46C213.62,-201.46 204.82,-201.46 196.12,-201.46"/>
<polygon fill="midnightblue" stroke="midnightblue" points="221.86,-204.96 231.86,-201.46 221.86,-197.96 221.86,-204.96"/>
</g>
<!-- Node8 -->
<g id="node8" class="node">
<title>Node8</title>
<g id="a_node8"><a xlink:href="c2a__main_8c.html#a840291bc02cba5474a4cb46a9b9566fe" target="_top" xlink:title=" ">
<polygon fill="white" stroke="black" points="0,-191.96 0,-210.96 41,-210.96 41,-191.96 0,-191.96"/>
<text text-anchor="middle" x="20.5" y="-198.96" font-family="Helvetica,sans-Serif" font-size="10.00">main</text>
</a>
</g>
</g>
<!-- Node7&#45;&gt;Node8 -->
<g id="edge7" class="edge">
<title>Node7&#45;&gt;Node8</title>
<path fill="none" stroke="midnightblue" d="M66.64,-201.46C57.37,-201.46 48.53,-201.46 41.18,-201.46"/>
<polygon fill="midnightblue" stroke="midnightblue" points="66.83,-204.96 76.83,-201.46 66.83,-197.96 66.83,-204.96"/>
</g>
<!-- Node10 -->
<g id="node10" class="node">
<title>Node10</title>
<g id="a_node10"><a xlink:href="command__definitions_8c.html#aa375895192b16d8e7f0ff4545b54e6c4" target="_top" xlink:title="Cmd Tableのロード">
<polygon fill="white" stroke="black" points="562,-115.96 562,-134.96 675,-134.96 675,-115.96 562,-115.96"/>
<text text-anchor="middle" x="618.5" y="-122.96" font-family="Helvetica,sans-Serif" font-size="10.00">CA_load_cmd_table</text>
</a>
</g>
</g>
<!-- Node9&#45;&gt;Node10 -->
<g id="edge9" class="edge">
<title>Node9&#45;&gt;Node10</title>
<path fill="none" stroke="midnightblue" d="M1285.06,-12.7C1160.66,1.81 907.63,18.16 711,-54.46 675.54,-67.55 642.82,-99.7 627.93,-115.86"/>
<polygon fill="midnightblue" stroke="midnightblue" points="1284.9,-16.21 1295.24,-13.92 1285.73,-9.26 1284.9,-16.21"/>
</g>
<!-- Node11 -->
<g id="node11" class="node">
<title>Node11</title>
<g id="a_node11"><a xlink:href="command__analyze_8h.html#ae6d1f376bf4e1c9c4b63bc3f04924c8a" target="_top" xlink:title="CA の初期化">
<polygon fill="white" stroke="black" points="449,-172.96 449,-191.96 526,-191.96 526,-172.96 449,-172.96"/>
<text text-anchor="middle" x="487.5" y="-179.96" font-family="Helvetica,sans-Serif" font-size="10.00">CA_initialize</text>
</a>
</g>
</g>
<!-- Node10&#45;&gt;Node11 -->
<g id="edge10" class="edge">
<title>Node10&#45;&gt;Node11</title>
<path fill="none" stroke="midnightblue" d="M586.68,-139.07C563.08,-149.5 531.12,-163.62 510.16,-172.88"/>
<polygon fill="midnightblue" stroke="midnightblue" points="588.18,-142.24 595.91,-135 585.35,-135.84 588.18,-142.24"/>
</g>
<!-- Node11&#45;&gt;Node5 -->
<g id="edge11" class="edge">
<title>Node11&#45;&gt;Node5</title>
<path fill="none" stroke="midnightblue" d="M438.72,-190.42C430.25,-191.83 421.5,-193.29 413.24,-194.66"/>
<polygon fill="midnightblue" stroke="midnightblue" points="439.57,-193.83 448.86,-188.73 438.42,-186.92 439.57,-193.83"/>
</g>
<!-- Node13 -->
<g id="node13" class="node">
<title>Node13</title>
<g id="a_node13"><a xlink:href="telemetry__manager_8c.html#af5ffec9b70960e1c8ffb5bff194ce24c" target="_top" xlink:title="TLM_MGR_RegisterInfo 登録されている BC をクリアして NOP で埋める">
<polygon fill="white" stroke="black" points="947,-134.46 947,-164.46 1073,-164.46 1073,-134.46 947,-134.46"/>
<text text-anchor="start" x="955" y="-152.46" font-family="Helvetica,sans-Serif" font-size="10.00">TLM_MGR_clear_bc_of</text>
<text text-anchor="middle" x="1010" y="-141.46" font-family="Helvetica,sans-Serif" font-size="10.00">_register_info_</text>
</a>
</g>
</g>
<!-- Node12&#45;&gt;Node13 -->
<g id="edge13" class="edge">
<title>Node12&#45;&gt;Node13</title>
<path fill="none" stroke="midnightblue" d="M1273.96,-132.93C1211.52,-136.85 1128.9,-142.04 1073.06,-145.55"/>
<polygon fill="midnightblue" stroke="midnightblue" points="1274.43,-136.4 1284.19,-132.28 1273.99,-129.42 1274.43,-136.4"/>
</g>
<!-- Node17 -->
<g id="node17" class="node">
<title>Node17</title>
<g id="a_node17"><a xlink:href="telemetry__manager_8c.html#a0b48756e83b551349cf04c30585b1cbf" target="_top" xlink:title="すべてのBCを NOP x TLM_MGR_MAX_TLM_NUM_PER_BC で埋める">
<polygon fill="white" stroke="black" points="1109,-90.46 1109,-120.46 1235,-120.46 1235,-90.46 1109,-90.46"/>
<text text-anchor="start" x="1117" y="-108.46" font-family="Helvetica,sans-Serif" font-size="10.00">TLM_MGR_clear_bc_to</text>
<text text-anchor="middle" x="1172" y="-97.46" font-family="Helvetica,sans-Serif" font-size="10.00">_nop_all_</text>
</a>
</g>
</g>
<!-- Node12&#45;&gt;Node17 -->
<g id="edge20" class="edge">
<title>Node12&#45;&gt;Node17</title>
<path fill="none" stroke="midnightblue" d="M1274.23,-117.3C1261.04,-115.76 1247.65,-114.19 1235.13,-112.73"/>
<polygon fill="midnightblue" stroke="midnightblue" points="1273.92,-120.79 1284.26,-118.48 1274.74,-113.84 1273.92,-120.79"/>
</g>
<!-- Node14 -->
<g id="node14" class="node">
<title>Node14</title>
<g id="a_node14"><a xlink:href="telemetry__manager_8h.html#a2bc92ae52dbb32d319d6b50c0a822038" target="_top" xlink:title="HKテレメを初期化">
<polygon fill="white" stroke="black" points="723.5,-139.96 723.5,-158.96 898.5,-158.96 898.5,-139.96 723.5,-139.96"/>
<text text-anchor="middle" x="811" y="-146.96" font-family="Helvetica,sans-Serif" font-size="10.00">Cmd_TLM_MGR_CLEAR_HK_TLM</text>
</a>
</g>
</g>
<!-- Node13&#45;&gt;Node14 -->
<g id="edge14" class="edge">
<title>Node13&#45;&gt;Node14</title>
<path fill="none" stroke="midnightblue" d="M936.69,-149.46C924.31,-149.46 911.33,-149.46 898.62,-149.46"/>
<polygon fill="midnightblue" stroke="midnightblue" points="936.94,-152.96 946.94,-149.46 936.94,-145.96 936.94,-152.96"/>
</g>
<!-- Node15 -->
<g id="node15" class="node">
<title>Node15</title>
<g id="a_node15"><a xlink:href="telemetry__manager_8h.html#af062111b8e574bbfab158a9a47f8d5e0" target="_top" xlink:title="systemテレメを初期化">
<polygon fill="white" stroke="black" points="711,-101.96 711,-120.96 911,-120.96 911,-101.96 711,-101.96"/>
<text text-anchor="middle" x="811" y="-108.96" font-family="Helvetica,sans-Serif" font-size="10.00">Cmd_TLM_MGR_CLEAR_SYSTEM_TLM</text>
</a>
</g>
</g>
<!-- Node13&#45;&gt;Node15 -->
<g id="edge16" class="edge">
<title>Node13&#45;&gt;Node15</title>
<path fill="none" stroke="midnightblue" d="M936.97,-135.47C928.22,-133.78 919.41,-132.08 911,-130.46 894.93,-127.36 877.4,-123.99 861.61,-120.96"/>
<polygon fill="midnightblue" stroke="midnightblue" points="936.31,-138.91 946.79,-137.38 937.64,-132.04 936.31,-138.91"/>
</g>
<!-- Node16 -->
<g id="node16" class="node">
<title>Node16</title>
<g id="a_node16"><a xlink:href="telemetry__manager_8h.html#af76453743bae7b361005376190100cbf" target="_top" xlink:title="high_freq_tlm, low_freq_tlm を初期化">
<polygon fill="white" stroke="black" points="717.5,-177.96 717.5,-196.96 904.5,-196.96 904.5,-177.96 717.5,-177.96"/>
<text text-anchor="middle" x="811" y="-184.96" font-family="Helvetica,sans-Serif" font-size="10.00">Cmd_TLM_MGR_CLEAR_USER_TLM</text>
</a>
</g>
</g>
<!-- Node13&#45;&gt;Node16 -->
<g id="edge18" class="edge">
<title>Node13&#45;&gt;Node16</title>
<path fill="none" stroke="midnightblue" d="M936.97,-163.44C928.22,-165.13 919.41,-166.83 911,-168.46 894.93,-171.55 877.4,-174.92 861.61,-177.95"/>
<polygon fill="midnightblue" stroke="midnightblue" points="937.64,-166.87 946.79,-161.53 936.31,-160 937.64,-166.87"/>
</g>
<!-- Node14&#45;&gt;Node10 -->
<g id="edge15" class="edge">
<title>Node14&#45;&gt;Node10</title>
<path fill="none" stroke="midnightblue" d="M724.17,-138.64C707.58,-136.55 690.6,-134.41 675.28,-132.48"/>
<polygon fill="midnightblue" stroke="midnightblue" points="724.08,-142.16 734.44,-139.94 724.95,-135.21 724.08,-142.16"/>
</g>
<!-- Node15&#45;&gt;Node10 -->
<g id="edge17" class="edge">
<title>Node15&#45;&gt;Node10</title>
<path fill="none" stroke="midnightblue" d="M700.79,-119.48C691.94,-120.13 683.25,-120.77 675.04,-121.37"/>
<polygon fill="midnightblue" stroke="midnightblue" points="701.13,-122.97 710.84,-118.74 700.61,-115.98 701.13,-122.97"/>
</g>
<!-- Node16&#45;&gt;Node10 -->
<g id="edge19" class="edge">
<title>Node16&#45;&gt;Node10</title>
<path fill="none" stroke="midnightblue" d="M737.77,-175.78C728.67,-173.67 719.56,-171.24 711,-168.46 683.96,-159.66 654.5,-144.78 636.51,-135.03"/>
<polygon fill="midnightblue" stroke="midnightblue" points="737.09,-179.21 747.61,-177.94 738.59,-172.38 737.09,-179.21"/>
</g>
<!-- Node18 -->
<g id="node18" class="node">
<title>Node18</title>
<g id="a_node18"><a xlink:href="telemetry__manager_8c.html#a0b75fadd08a5f2641b2f656727b4cb2c" target="_top" xlink:title=" ">
<polygon fill="white" stroke="black" points="958.5,-92.96 958.5,-111.96 1061.5,-111.96 1061.5,-92.96 958.5,-92.96"/>
<text text-anchor="middle" x="1010" y="-99.96" font-family="Helvetica,sans-Serif" font-size="10.00">TLM_MGR_init_3_</text>
</a>
</g>
</g>
<!-- Node17&#45;&gt;Node18 -->
<g id="edge21" class="edge">
<title>Node17&#45;&gt;Node18</title>
<path fill="none" stroke="midnightblue" d="M1098.32,-104.09C1085.89,-103.86 1073.22,-103.62 1061.53,-103.4"/>
<polygon fill="midnightblue" stroke="midnightblue" points="1098.62,-107.6 1108.68,-104.29 1098.75,-100.6 1098.62,-107.6"/>
</g>
<!-- Node19 -->
<g id="node19" class="node">
<title>Node19</title>
<g id="a_node19"><a xlink:href="telemetry__manager_8h.html#a19d6e76042721fe9e576dbacaf49b365" target="_top" xlink:title="初期化">
<polygon fill="white" stroke="black" points="752,-63.96 752,-82.96 870,-82.96 870,-63.96 752,-63.96"/>
<text text-anchor="middle" x="811" y="-70.96" font-family="Helvetica,sans-Serif" font-size="10.00">Cmd_TLM_MGR_INIT</text>
</a>
</g>
</g>
<!-- Node18&#45;&gt;Node19 -->
<g id="edge22" class="edge">
<title>Node18&#45;&gt;Node19</title>
<path fill="none" stroke="midnightblue" d="M948.24,-93.51C923.4,-89.85 894.8,-85.64 870.23,-82.03"/>
<polygon fill="midnightblue" stroke="midnightblue" points="947.86,-96.99 958.27,-94.99 948.88,-90.07 947.86,-96.99"/>
</g>
<!-- Node19&#45;&gt;Node10 -->
<g id="edge23" class="edge">
<title>Node19&#45;&gt;Node10</title>
<path fill="none" stroke="midnightblue" d="M742.1,-85.03C731.62,-87.23 720.98,-89.72 711,-92.46 687.39,-98.94 661.17,-108.66 642.87,-115.88"/>
<polygon fill="midnightblue" stroke="midnightblue" points="742.96,-88.42 752.06,-83 741.57,-81.56 742.96,-88.42"/>
</g>
<!-- Node20&#45;&gt;Node19 -->
<g id="edge25" class="edge">
<title>Node20&#45;&gt;Node19</title>
<path fill="none" stroke="midnightblue" d="M1300.08,-62.79C1193.58,-65.11 974.97,-69.89 870.33,-72.18"/>
<polygon fill="midnightblue" stroke="midnightblue" points="1300.41,-66.28 1310.34,-62.56 1300.26,-59.28 1300.41,-66.28"/>
</g>
<!-- Node22 -->
<g id="node22" class="node">
<title>Node22</title>
<g id="a_node22"><a xlink:href="tl__elem__debug__display_8h.html#ade13b392000fcbdc4c6069044b89caf5" target="_top" xlink:title=" ">
<polygon fill="white" stroke="black" points="1496,-428.46 1496,-458.46 1635,-458.46 1635,-428.46 1496,-428.46"/>
<text text-anchor="start" x="1504" y="-446.46" font-family="Helvetica,sans-Serif" font-size="10.00">BCL_load_tl_elem_debug</text>
<text text-anchor="middle" x="1565.5" y="-435.46" font-family="Helvetica,sans-Serif" font-size="10.00">_display_initial</text>
</a>
</g>
</g>
<!-- Node21&#45;&gt;Node22 -->
<g id="edge27" class="edge">
<title>Node21&#45;&gt;Node22</title>
<path fill="none" stroke="midnightblue" d="M1679.87,-428.14C1665.18,-430.12 1649.75,-432.21 1635.17,-434.18"/>
<polygon fill="midnightblue" stroke="midnightblue" points="1680.46,-431.59 1689.9,-426.78 1679.52,-424.65 1680.46,-431.59"/>
</g>
<!-- Node23 -->
<g id="node23" class="node">
<title>Node23</title>
<g id="a_node23"><a xlink:href="tl__elem__drivers__update_8h.html#a43a4b8a2b65d0d11d99f2e90af311a69" target="_top" xlink:title=" ">
<polygon fill="white" stroke="black" points="1494,-379.46 1494,-409.46 1637,-409.46 1637,-379.46 1494,-379.46"/>
<text text-anchor="start" x="1502" y="-397.46" font-family="Helvetica,sans-Serif" font-size="10.00">BCL_load_tl_elem_drivers</text>
<text text-anchor="middle" x="1565.5" y="-386.46" font-family="Helvetica,sans-Serif" font-size="10.00">_update_initial</text>
</a>
</g>
</g>
<!-- Node21&#45;&gt;Node23 -->
<g id="edge29" class="edge">
<title>Node21&#45;&gt;Node23</title>
<path fill="none" stroke="midnightblue" d="M1679.82,-409.16C1665.8,-407.34 1651.1,-405.43 1637.11,-403.61"/>
<polygon fill="midnightblue" stroke="midnightblue" points="1679.53,-412.65 1689.9,-410.46 1680.43,-405.71 1679.53,-412.65"/>
</g>
<!-- Node24 -->
<g id="node24" class="node">
<title>Node24</title>
<g id="a_node24"><a xlink:href="tl__elem__gs__related__process_8h.html#a54394d894360c586a8b495c0493dcb56" target="_top" xlink:title=" ">
<polygon fill="white" stroke="black" points="1505.5,-526.46 1505.5,-556.46 1625.5,-556.46 1625.5,-526.46 1505.5,-526.46"/>
<text text-anchor="start" x="1513.5" y="-544.46" font-family="Helvetica,sans-Serif" font-size="10.00">BCL_load_tl_elem_gs</text>
<text text-anchor="middle" x="1565.5" y="-533.46" font-family="Helvetica,sans-Serif" font-size="10.00">_related_process</text>
</a>
</g>
</g>
<!-- Node21&#45;&gt;Node24 -->
<g id="edge31" class="edge">
<title>Node21&#45;&gt;Node24</title>
<path fill="none" stroke="midnightblue" d="M1736.83,-435.66C1717.27,-457.58 1680.62,-495.27 1642,-517.46 1636.16,-520.81 1629.78,-523.76 1623.3,-526.34"/>
<polygon fill="midnightblue" stroke="midnightblue" points="1739.49,-437.93 1743.45,-428.1 1734.23,-433.31 1739.49,-437.93"/>
</g>
<!-- Node25 -->
<g id="node25" class="node">
<title>Node25</title>
<g id="a_node25"><a xlink:href="tl__elem__tlm__cmd__hirate_8h.html#a390430a6274e250fb13a60674fcc1421" target="_top" xlink:title=" ">
<polygon fill="white" stroke="black" points="1503,-477.46 1503,-507.46 1628,-507.46 1628,-477.46 1503,-477.46"/>
<text text-anchor="start" x="1511" y="-495.46" font-family="Helvetica,sans-Serif" font-size="10.00">BCL_load_tl_elem_tlm</text>
<text text-anchor="middle" x="1565.5" y="-484.46" font-family="Helvetica,sans-Serif" font-size="10.00">_cmd_hirate</text>
</a>
</g>
</g>
<!-- Node21&#45;&gt;Node25 -->
<g id="edge33" class="edge">
<title>Node21&#45;&gt;Node25</title>
<path fill="none" stroke="midnightblue" d="M1723.36,-432.44C1701.48,-443.04 1670.2,-457.58 1642,-468.46 1633.92,-471.57 1625.24,-474.61 1616.75,-477.42"/>
<polygon fill="midnightblue" stroke="midnightblue" points="1724.96,-435.55 1732.42,-428.02 1721.89,-429.26 1724.96,-435.55"/>
</g>
<!-- Node26 -->
<g id="node26" class="node">
<title>Node26</title>
<g id="a_node26"><a xlink:href="tl__initial_8h.html#af6862d0b2e049d2909fe805ff11763a2" target="_top" xlink:title=" ">
<polygon fill="white" stroke="black" points="1512,-89.96 1512,-108.96 1619,-108.96 1619,-89.96 1512,-89.96"/>
<text text-anchor="middle" x="1565.5" y="-96.96" font-family="Helvetica,sans-Serif" font-size="10.00">BCL_load_tl_initial</text>
</a>
</g>
</g>
<!-- Node21&#45;&gt;Node26 -->
<g id="edge35" class="edge">
<title>Node21&#45;&gt;Node26</title>
<path fill="none" stroke="midnightblue" d="M1742.56,-399.43C1727.88,-367.75 1698.28,-301.97 1678,-244.46 1658.63,-189.53 1683.83,-158.98 1642,-118.46 1635.69,-112.34 1627.72,-108.11 1619.33,-105.19"/>
<polygon fill="midnightblue" stroke="midnightblue" points="1739.54,-401.22 1746.93,-408.81 1745.88,-398.26 1739.54,-401.22"/>
</g>
<!-- Node22&#45;&gt;Node3 -->
<g id="edge28" class="edge">
<title>Node22&#45;&gt;Node3</title>
<path fill="none" stroke="midnightblue" d="M1497.08,-424.09C1494.29,-422.64 1491.58,-421.1 1489,-419.46 1432.87,-383.67 1385.49,-316.77 1369.12,-292"/>
<polygon fill="midnightblue" stroke="midnightblue" points="1495.67,-427.29 1506.21,-428.37 1498.64,-420.95 1495.67,-427.29"/>
</g>
<!-- Node23&#45;&gt;Node3 -->
<g id="edge30" class="edge">
<title>Node23&#45;&gt;Node3</title>
<path fill="none" stroke="midnightblue" d="M1500.67,-375.7C1496.67,-374.05 1492.75,-372.3 1489,-370.46 1443.31,-347.89 1395.66,-310.01 1374.41,-292.23"/>
<polygon fill="midnightblue" stroke="midnightblue" points="1499.51,-379.01 1510.1,-379.35 1502.04,-372.48 1499.51,-379.01"/>
</g>
<!-- Node24&#45;&gt;Node3 -->
<g id="edge32" class="edge">
<title>Node24&#45;&gt;Node3</title>
<path fill="none" stroke="midnightblue" d="M1496.26,-522.71C1493.71,-521.1 1491.28,-519.35 1489,-517.46 1411.37,-452.97 1374.58,-327.9 1365.37,-292.19"/>
<polygon fill="midnightblue" stroke="midnightblue" points="1494.81,-525.91 1505.26,-527.66 1498.19,-519.77 1494.81,-525.91"/>
</g>
<!-- Node25&#45;&gt;Node3 -->
<g id="edge34" class="edge">
<title>Node25&#45;&gt;Node3</title>
<path fill="none" stroke="midnightblue" d="M1494.87,-472.43C1492.84,-471.18 1490.88,-469.86 1489,-468.46 1422.44,-418.74 1379.41,-322.99 1366.84,-292.23"/>
<polygon fill="midnightblue" stroke="midnightblue" points="1493.67,-475.76 1504.13,-477.43 1496.99,-469.6 1493.67,-475.76"/>
</g>
<!-- Node26&#45;&gt;Node3 -->
<g id="edge36" class="edge">
<title>Node26&#45;&gt;Node3</title>
<path fill="none" stroke="midnightblue" d="M1502.15,-111.48C1497.54,-113.46 1493.09,-115.77 1489,-118.46 1425.68,-160.04 1381.14,-244.49 1367.44,-272.89"/>
<polygon fill="midnightblue" stroke="midnightblue" points="1503.68,-114.64 1511.81,-107.85 1501.22,-108.09 1503.68,-114.64"/>
</g>
<!-- Node28 -->
<g id="node28" class="node">
<title>Node28</title>
<g id="a_node28"><a xlink:href="nbc__respond__eh__for__test_8c.html#a3db48d680628bbf52f4cd1fc444b9c36" target="_top" xlink:title=" ">
<polygon fill="white" stroke="black" points="1504,-330.46 1504,-360.46 1627,-360.46 1627,-330.46 1504,-330.46"/>
<text text-anchor="start" x="1512" y="-348.46" font-family="Helvetica,sans-Serif" font-size="10.00">BCL_load_respond_eh</text>
<text text-anchor="middle" x="1565.5" y="-337.46" font-family="Helvetica,sans-Serif" font-size="10.00">_for_test</text>
</a>
</g>
</g>
<!-- Node27&#45;&gt;Node28 -->
<g id="edge38" class="edge">
<title>Node27&#45;&gt;Node28</title>
<path fill="none" stroke="midnightblue" d="M1735.77,-242.78C1715.81,-263.83 1679.47,-299.14 1642,-320.46 1635.4,-324.21 1628.15,-327.51 1620.83,-330.37"/>
<polygon fill="midnightblue" stroke="midnightblue" points="1738.55,-244.93 1742.81,-235.22 1733.43,-240.15 1738.55,-244.93"/>
</g>
<!-- Node29 -->
<g id="node29" class="node">
<title>Node29</title>
<g id="a_node29"><a xlink:href="sl__nop_8h.html#a60219deef0bd8e3aecafc60386f68675" target="_top" xlink:title=" ">
<polygon fill="white" stroke="black" points="1516.5,-291.96 1516.5,-310.96 1614.5,-310.96 1614.5,-291.96 1516.5,-291.96"/>
<text text-anchor="middle" x="1565.5" y="-298.96" font-family="Helvetica,sans-Serif" font-size="10.00">BCL_load_sl_nop</text>
</a>
</g>
</g>
<!-- Node27&#45;&gt;Node29 -->
<g id="edge40" class="edge">
<title>Node27&#45;&gt;Node29</title>
<path fill="none" stroke="midnightblue" d="M1727.23,-240.19C1705.54,-252.85 1672.54,-270.85 1642,-282.46 1632.4,-286.1 1621.84,-289.26 1611.75,-291.9"/>
<polygon fill="midnightblue" stroke="midnightblue" points="1729.25,-243.06 1736.08,-234.96 1725.69,-237.04 1729.25,-243.06"/>
</g>
<!-- Node30 -->
<g id="node30" class="node">
<title>Node30</title>
<g id="a_node30"><a xlink:href="sl__initial_8h.html#a69c9fa67c5ba13f8c12759f823b67d66" target="_top" xlink:title=" ">
<polygon fill="white" stroke="black" points="1505.5,-166.46 1505.5,-196.46 1625.5,-196.46 1625.5,-166.46 1505.5,-166.46"/>
<text text-anchor="start" x="1513.5" y="-184.46" font-family="Helvetica,sans-Serif" font-size="10.00">BCL_load_sl_start_up</text>
<text text-anchor="middle" x="1565.5" y="-173.46" font-family="Helvetica,sans-Serif" font-size="10.00">_to_initial</text>
</a>
</g>
</g>
<!-- Node27&#45;&gt;Node30 -->
<g id="edge42" class="edge">
<title>Node27&#45;&gt;Node30</title>
<path fill="none" stroke="midnightblue" d="M1701.62,-213.59C1678.17,-208.01 1650.04,-201.32 1625.54,-195.5"/>
<polygon fill="midnightblue" stroke="midnightblue" points="1700.82,-217 1711.36,-215.91 1702.44,-210.19 1700.82,-217"/>
</g>
<!-- Node31 -->
<g id="node31" class="node">
<title>Node31</title>
<g id="a_node31"><a xlink:href="nbc__start__hk__tlm_8c.html#a56103faa9caea8b5ce4f318c4f5c8615" target="_top" xlink:title=" ">
<polygon fill="white" stroke="black" points="1501.5,-127.96 1501.5,-146.96 1629.5,-146.96 1629.5,-127.96 1501.5,-127.96"/>
<text text-anchor="middle" x="1565.5" y="-134.96" font-family="Helvetica,sans-Serif" font-size="10.00">BCL_load_start_hk_tlm</text>
</a>
</g>
</g>
<!-- Node27&#45;&gt;Node31 -->
<g id="edge44" class="edge">
<title>Node27&#45;&gt;Node31</title>
<path fill="none" stroke="midnightblue" d="M1707.07,-212.41C1697.05,-208.44 1686.79,-203.48 1678,-197.46 1658.27,-183.93 1662.41,-169.93 1642,-157.46 1634.94,-153.14 1626.96,-149.75 1618.9,-147.08"/>
<polygon fill="midnightblue" stroke="midnightblue" points="1705.96,-215.73 1716.55,-215.93 1708.39,-209.17 1705.96,-215.73"/>
</g>
<!-- Node32 -->
<g id="node32" class="node">
<title>Node32</title>
<g id="a_node32"><a xlink:href="nbc__test__bcl_8c.html#aacbd7fc1d4d5ab306e6dc7c0f3e22ece" target="_top" xlink:title=" ">
<polygon fill="white" stroke="black" points="1513,-253.96 1513,-272.96 1618,-272.96 1618,-253.96 1513,-253.96"/>
<text text-anchor="middle" x="1565.5" y="-260.96" font-family="Helvetica,sans-Serif" font-size="10.00">BCL_load_test_bcl</text>
</a>
</g>
</g>
<!-- Node27&#45;&gt;Node32 -->
<g id="edge46" class="edge">
<title>Node27&#45;&gt;Node32</title>
<path fill="none" stroke="midnightblue" d="M1694.98,-237.06C1668.67,-242.47 1637.76,-248.82 1612.85,-253.93"/>
<polygon fill="midnightblue" stroke="midnightblue" points="1695.73,-240.48 1704.82,-235.04 1694.32,-233.63 1695.73,-240.48"/>
</g>
<!-- Node33 -->
<g id="node33" class="node">
<title>Node33</title>
<g id="a_node33"><a xlink:href="telemetry__manager_8c.html#abb254dddda35d23891f16afbfd91e039" target="_top" xlink:title="NOP で埋められた BCの構築">
<polygon fill="white" stroke="black" points="1497,-215.96 1497,-234.96 1634,-234.96 1634,-215.96 1497,-215.96"/>
<text text-anchor="middle" x="1565.5" y="-222.96" font-family="Helvetica,sans-Serif" font-size="10.00">TLM_MGR_load_nop_bc_</text>
</a>
</g>
</g>
<!-- Node27&#45;&gt;Node33 -->
<g id="edge48" class="edge">
<title>Node27&#45;&gt;Node33</title>
<path fill="none" stroke="midnightblue" d="M1677.95,-225.46C1663.48,-225.46 1648.37,-225.46 1634.11,-225.46"/>
<polygon fill="midnightblue" stroke="midnightblue" points="1678.35,-228.96 1688.35,-225.46 1678.35,-221.96 1678.35,-228.96"/>
</g>
<!-- Node28&#45;&gt;Node3 -->
<g id="edge39" class="edge">
<title>Node28&#45;&gt;Node3</title>
<path fill="none" stroke="midnightblue" d="M1506.83,-327.42C1469.87,-315.87 1423.38,-301.33 1393.43,-291.97"/>
<polygon fill="midnightblue" stroke="midnightblue" points="1505.9,-330.8 1516.49,-330.45 1507.99,-324.12 1505.9,-330.8"/>
</g>
<!-- Node29&#45;&gt;Node3 -->
<g id="edge41" class="edge">
<title>Node29&#45;&gt;Node3</title>
<path fill="none" stroke="midnightblue" d="M1506.29,-295.97C1476.68,-293.17 1441.06,-289.82 1412.74,-287.15"/>
<polygon fill="midnightblue" stroke="midnightblue" points="1506.21,-299.47 1516.49,-296.93 1506.86,-292.5 1506.21,-299.47"/>
</g>
<!-- Node30&#45;&gt;Node3 -->
<g id="edge43" class="edge">
<title>Node30&#45;&gt;Node3</title>
<path fill="none" stroke="midnightblue" d="M1504.42,-199.98C1499.14,-202.02 1493.94,-204.18 1489,-206.46 1446.07,-226.21 1399.38,-257.1 1376.79,-272.72"/>
<polygon fill="midnightblue" stroke="midnightblue" points="1505.78,-203.21 1513.94,-196.46 1503.35,-196.65 1505.78,-203.21"/>
</g>
<!-- Node31&#45;&gt;Node3 -->
<g id="edge45" class="edge">
<title>Node31&#45;&gt;Node3</title>
<path fill="none" stroke="midnightblue" d="M1504.01,-150.39C1498.79,-152.42 1493.71,-154.76 1489,-157.46 1434.46,-188.7 1386.83,-249.52 1369.73,-272.95"/>
<polygon fill="midnightblue" stroke="midnightblue" points="1505.23,-153.67 1513.5,-147.05 1502.91,-147.06 1505.23,-153.67"/>
</g>
<!-- Node32&#45;&gt;Node3 -->
<g id="edge47" class="edge">
<title>Node32&#45;&gt;Node3</title>
<path fill="none" stroke="midnightblue" d="M1502.88,-269.27C1473.98,-271.99 1439.99,-275.2 1412.76,-277.76"/>
<polygon fill="midnightblue" stroke="midnightblue" points="1503.24,-272.75 1512.87,-268.32 1502.59,-265.78 1503.24,-272.75"/>
</g>
<!-- Node33&#45;&gt;Node12 -->
<g id="edge49" class="edge">
<title>Node33&#45;&gt;Node12</title>
<path fill="none" stroke="midnightblue" d="M1507.22,-213.08C1500.98,-211.13 1494.79,-208.93 1489,-206.46 1444.35,-187.41 1397.33,-153.73 1375.5,-137.18"/>
<polygon fill="midnightblue" stroke="midnightblue" points="1506.45,-216.5 1517.03,-215.93 1508.41,-209.77 1506.45,-216.5"/>
</g>
<!-- Node34&#45;&gt;Node26 -->
<g id="edge51" class="edge">
<title>Node34&#45;&gt;Node26</title>
<path fill="none" stroke="midnightblue" d="M1667.63,-101.1C1651.12,-100.83 1634.23,-100.55 1619.1,-100.31"/>
<polygon fill="midnightblue" stroke="midnightblue" points="1667.8,-104.6 1677.85,-101.26 1667.91,-97.6 1667.8,-104.6"/>
</g>
<!-- Node35 -->
<g id="node35" class="node">
<title>Node35</title>
<g id="a_node35"><a xlink:href="telemetry__manager_8c.html#ac73e2b57fc1dc9c21cacd12f0772a84d" target="_top" xlink:title="BC全体を展開していくmaster BCの構築">
<polygon fill="white" stroke="black" points="1489,-13.96 1489,-32.96 1642,-32.96 1642,-13.96 1489,-13.96"/>
<text text-anchor="middle" x="1565.5" y="-20.96" font-family="Helvetica,sans-Serif" font-size="10.00">TLM_MGR_load_master_bc_</text>
</a>
</g>
</g>
<!-- Node34&#45;&gt;Node35 -->
<g id="edge52" class="edge">
<title>Node34&#45;&gt;Node35</title>
<path fill="none" stroke="midnightblue" d="M1691.83,-89.44C1687,-87.43 1682.32,-85.12 1678,-82.46 1657.63,-69.92 1662.49,-54.8 1642,-42.46 1635.52,-38.55 1628.26,-35.44 1620.87,-32.97"/>
<polygon fill="midnightblue" stroke="midnightblue" points="1690.67,-92.74 1701.26,-92.94 1693.1,-86.18 1690.67,-92.74"/>
</g>
<!-- Node35&#45;&gt;Node9 -->
<g id="edge53" class="edge">
<title>Node35&#45;&gt;Node9</title>
<path fill="none" stroke="midnightblue" d="M1478.72,-23.46C1470.31,-23.46 1461.75,-23.46 1453.3,-23.46"/>
<polygon fill="midnightblue" stroke="midnightblue" points="1478.9,-26.96 1488.9,-23.46 1478.9,-19.96 1478.9,-26.96"/>
</g>
<!-- Node35&#45;&gt;Node20 -->
<g id="edge54" class="edge">
<title>Node35&#45;&gt;Node20</title>
<path fill="none" stroke="midnightblue" d="M1503.95,-34.87C1475.12,-40.31 1441.04,-46.74 1413.61,-51.91"/>
<polygon fill="midnightblue" stroke="midnightblue" points="1504.73,-38.29 1513.91,-32.99 1503.44,-31.41 1504.73,-38.29"/>
</g>
<!-- Node36&#45;&gt;Node30 -->
<g id="edge56" class="edge">
<title>Node36&#45;&gt;Node30</title>
<path fill="none" stroke="midnightblue" d="M1672.17,-179.74C1656.53,-180 1640.39,-180.26 1625.56,-180.5"/>
<polygon fill="midnightblue" stroke="midnightblue" points="1672.41,-183.24 1682.35,-179.58 1672.29,-176.24 1672.41,-183.24"/>
</g>
<!-- Node36&#45;&gt;Node31 -->
<g id="edge57" class="edge">
<title>Node36&#45;&gt;Node31</title>
<path fill="none" stroke="midnightblue" d="M1698.5,-166.71C1670.28,-160.46 1636.04,-152.87 1609.5,-146.98"/>
<polygon fill="midnightblue" stroke="midnightblue" points="1698.07,-170.2 1708.59,-168.95 1699.59,-163.36 1698.07,-170.2"/>
</g>
<!-- Node36&#45;&gt;Node35 -->
<g id="edge58" class="edge">
<title>Node36&#45;&gt;Node35</title>
<path fill="none" stroke="midnightblue" d="M1726.1,-163.27C1710.62,-153.01 1691.32,-138.29 1678,-121.46 1654.06,-91.2 1671.64,-67.16 1642,-42.46 1637.33,-38.56 1631.97,-35.45 1626.3,-32.96"/>
<polygon fill="midnightblue" stroke="midnightblue" points="1724.39,-166.33 1734.7,-168.78 1728.17,-160.44 1724.39,-166.33"/>
</g>
<!-- Node38&#45;&gt;Node26 -->
<g id="edge61" class="edge">
<title>Node38&#45;&gt;Node26</title>
<path fill="none" stroke="midnightblue" d="M1687.82,-27.95C1684.4,-29.58 1681.09,-31.41 1678,-33.46 1656.06,-47.99 1663.98,-65.99 1642,-80.46 1635.11,-84.99 1627.22,-88.44 1619.19,-91.06"/>
<polygon fill="midnightblue" stroke="midnightblue" points="1689.24,-31.15 1697.13,-24.07 1686.55,-24.68 1689.24,-31.15"/>
</g>
<!-- Node38&#45;&gt;Node35 -->
<g id="edge62" class="edge">
<title>Node38&#45;&gt;Node35</title>
<path fill="none" stroke="midnightblue" d="M1673.91,-18.23C1663.35,-18.74 1652.54,-19.27 1642.02,-19.78"/>
<polygon fill="midnightblue" stroke="midnightblue" points="1674.11,-21.72 1683.93,-17.74 1673.77,-14.73 1674.11,-21.72"/>
</g>
</g>
</svg>
