<?xml version="1.0" encoding="UTF-8" standalone="no"?>
<!DOCTYPE svg PUBLIC "-//W3C//DTD SVG 1.1//EN"
 "http://www.w3.org/Graphics/SVG/1.1/DTD/svg11.dtd">
<!-- Generated by graphviz version 2.43.0 (0)
 -->
<!-- Title: src/src_user/CmdTlm/block_command_user_settings.c Pages: 1 -->
<svg width="898pt" height="575pt"
 viewBox="0.00 0.00 898.00 575.00" xmlns="http://www.w3.org/2000/svg" xmlns:xlink="http://www.w3.org/1999/xlink">
<g id="graph0" class="graph" transform="scale(1 1) rotate(0) translate(4 571)">
<title>src/src_user/CmdTlm/block_command_user_settings.c</title>
<polygon fill="white" stroke="transparent" points="-4,4 -4,-571 894,-571 894,4 -4,4"/>
<!-- Node1 -->
<g id="node1" class="node">
<title>Node1</title>
<g id="a_node1"><a xlink:title=" ">
<polygon fill="#bfbfbf" stroke="black" points="281,-525.5 281,-566.5 407,-566.5 407,-525.5 281,-525.5"/>
<text text-anchor="start" x="289" y="-554.5" font-family="Helvetica,sans-Serif" font-size="10.00">src/src_user/CmdTlm</text>
<text text-anchor="start" x="289" y="-543.5" font-family="Helvetica,sans-Serif" font-size="10.00">/block_command_user</text>
<text text-anchor="middle" x="344" y="-532.5" font-family="Helvetica,sans-Serif" font-size="10.00">_settings.c</text>
</a>
</g>
</g>
<!-- Node2 -->
<g id="node2" class="node">
<title>Node2</title>
<g id="a_node2"><a xlink:href="block__command__user__settings_8h.html" target="_top" xlink:title=" ">
<polygon fill="white" stroke="black" points="282.5,-458.5 282.5,-488.5 405.5,-488.5 405.5,-458.5 282.5,-458.5"/>
<text text-anchor="start" x="290.5" y="-476.5" font-family="Helvetica,sans-Serif" font-size="10.00">block_command_user</text>
<text text-anchor="middle" x="344" y="-465.5" font-family="Helvetica,sans-Serif" font-size="10.00">_settings.h</text>
</a>
</g>
</g>
<!-- Node1&#45;&gt;Node2 -->
<g id="edge1" class="edge">
<title>Node1&#45;&gt;Node2</title>
<path fill="none" stroke="midnightblue" d="M344,-525.36C344,-517.23 344,-507.7 344,-499.11"/>
<polygon fill="midnightblue" stroke="midnightblue" points="347.5,-498.89 344,-488.89 340.5,-498.89 347.5,-498.89"/>
</g>
<!-- Node3 -->
<g id="node3" class="node">
<title>Node3</title>
<g id="a_node3"><a xlink:href="block__command__table_8h.html" target="_top" xlink:title="BCTの定義, BCT周りの関数">
<polygon fill="white" stroke="black" points="231.5,-324.5 231.5,-354.5 362.5,-354.5 362.5,-324.5 231.5,-324.5"/>
<text text-anchor="start" x="239.5" y="-342.5" font-family="Helvetica,sans-Serif" font-size="10.00">src_core/CmdTlm/block</text>
<text text-anchor="middle" x="297" y="-331.5" font-family="Helvetica,sans-Serif" font-size="10.00">_command_table.h</text>
</a>
</g>
</g>
<!-- Node2&#45;&gt;Node3 -->
<g id="edge2" class="edge">
<title>Node2&#45;&gt;Node3</title>
<path fill="none" stroke="midnightblue" d="M335.21,-458.37C329.37,-448.49 321.91,-434.81 317,-422 309.82,-403.25 304.57,-381.07 301.26,-364.58"/>
<polygon fill="midnightblue" stroke="midnightblue" points="304.68,-363.83 299.36,-354.67 297.8,-365.15 304.68,-363.83"/>
</g>
<!-- Node16 -->
<g id="node16" class="node">
<title>Node16</title>
<g id="a_node16"><a xlink:href="block__command__executor_8h.html" target="_top" xlink:title="BCTの実行周りの関数, パラメーター">
<polygon fill="white" stroke="black" points="325.5,-391.5 325.5,-421.5 456.5,-421.5 456.5,-391.5 325.5,-391.5"/>
<text text-anchor="start" x="333.5" y="-409.5" font-family="Helvetica,sans-Serif" font-size="10.00">src_core/CmdTlm/block</text>
<text text-anchor="middle" x="391" y="-398.5" font-family="Helvetica,sans-Serif" font-size="10.00">_command_executor.h</text>
</a>
</g>
</g>
<!-- Node2&#45;&gt;Node16 -->
<g id="edge21" class="edge">
<title>Node2&#45;&gt;Node16</title>
<path fill="none" stroke="midnightblue" d="M354.2,-458.4C360.23,-450.05 368.02,-439.29 374.87,-429.81"/>
<polygon fill="midnightblue" stroke="midnightblue" points="377.8,-431.73 380.82,-421.58 372.13,-427.63 377.8,-431.73"/>
</g>
<!-- Node4 -->
<g id="node4" class="node">
<title>Node4</title>
<g id="a_node4"><a xlink:href="stdint_8h.html" target="_top" xlink:title=" ">
<polygon fill="white" stroke="black" points="0,-56.5 0,-75.5 134,-75.5 134,-56.5 0,-56.5"/>
<text text-anchor="middle" x="67" y="-63.5" font-family="Helvetica,sans-Serif" font-size="10.00">src_user/Library/stdint.h</text>
</a>
</g>
</g>
<!-- Node3&#45;&gt;Node4 -->
<g id="edge3" class="edge">
<title>Node3&#45;&gt;Node4</title>
<path fill="none" stroke="midnightblue" d="M231.21,-332.03C166.48,-321.48 73.35,-293.75 45,-221 27.41,-175.86 32.66,-159.1 44,-112 46.31,-102.42 51.02,-92.58 55.58,-84.56"/>
<polygon fill="midnightblue" stroke="midnightblue" points="58.69,-86.17 60.9,-75.81 52.71,-82.54 58.69,-86.17"/>
</g>
<!-- Node6 -->
<g id="node6" class="node">
<title>Node6</title>
<g id="a_node6"><a xlink:href="block__command__table__params_8h.html" target="_top" xlink:title="BCTのCoreTlmパラメタのオーバーライド用ヘッダー">
<polygon fill="white" stroke="black" points="114.5,-257.5 114.5,-287.5 295.5,-287.5 295.5,-257.5 114.5,-257.5"/>
<text text-anchor="start" x="122.5" y="-275.5" font-family="Helvetica,sans-Serif" font-size="10.00">src_user/Settings/CmdTlm</text>
<text text-anchor="middle" x="205" y="-264.5" font-family="Helvetica,sans-Serif" font-size="10.00">/block_command_table_params.h</text>
</a>
</g>
</g>
<!-- Node3&#45;&gt;Node6 -->
<g id="edge5" class="edge">
<title>Node3&#45;&gt;Node6</title>
<path fill="none" stroke="midnightblue" d="M277.04,-324.4C264.26,-315.37 247.48,-303.51 233.33,-293.52"/>
<polygon fill="midnightblue" stroke="midnightblue" points="235.11,-290.49 224.92,-287.58 231.07,-296.21 235.11,-290.49"/>
</g>
<!-- Node7 -->
<g id="node7" class="node">
<title>Node7</title>
<g id="a_node7"><a xlink:href="common__tlm__cmd__packet_8h.html" target="_top" xlink:title="CTCP の宣言">
<polygon fill="white" stroke="black" points="314,-263 314,-282 468,-282 468,-263 314,-263"/>
<text text-anchor="middle" x="391" y="-270" font-family="Helvetica,sans-Serif" font-size="10.00">common_tlm_cmd_packet.h</text>
</a>
</g>
</g>
<!-- Node3&#45;&gt;Node7 -->
<g id="edge6" class="edge">
<title>Node3&#45;&gt;Node7</title>
<path fill="none" stroke="midnightblue" d="M311.72,-324.4C326.18,-313.39 348.17,-298.2 365.43,-287.28"/>
<polygon fill="midnightblue" stroke="midnightblue" points="367.3,-290.24 373.96,-282.01 363.62,-284.29 367.3,-290.24"/>
</g>
<!-- Node5 -->
<g id="node5" class="node">
<title>Node5</title>
<g id="a_node5"><a xlink:href="sils__define_8h.html" target="_top" xlink:title=" ">
<polygon fill="white" stroke="black" points="2.5,-0.5 2.5,-19.5 131.5,-19.5 131.5,-0.5 2.5,-0.5"/>
<text text-anchor="middle" x="67" y="-7.5" font-family="Helvetica,sans-Serif" font-size="10.00">../Settings/sils_define.h</text>
</a>
</g>
</g>
<!-- Node4&#45;&gt;Node5 -->
<g id="edge4" class="edge">
<title>Node4&#45;&gt;Node5</title>
<path fill="none" stroke="midnightblue" d="M67,-56.08C67,-49.01 67,-38.86 67,-29.99"/>
<polygon fill="midnightblue" stroke="midnightblue" points="70.5,-29.75 67,-19.75 63.5,-29.75 70.5,-29.75"/>
</g>
<!-- Node7&#45;&gt;Node3 -->
<g id="edge20" class="edge">
<title>Node7&#45;&gt;Node3</title>
<path fill="none" stroke="midnightblue" d="M383.2,-282.19C371.7,-291.52 350.34,-306.62 331.69,-318.84"/>
<polygon fill="midnightblue" stroke="midnightblue" points="329.58,-316.03 323.08,-324.4 333.38,-321.92 329.58,-316.03"/>
</g>
<!-- Node7&#45;&gt;Node4 -->
<g id="edge12" class="edge">
<title>Node7&#45;&gt;Node4</title>
<path fill="none" stroke="midnightblue" d="M341.45,-263C329.52,-260.99 316.81,-258.89 305,-257 252.18,-248.55 101.88,-261.55 67,-221 34.09,-182.74 49.71,-117.18 60.19,-85.38"/>
<polygon fill="midnightblue" stroke="midnightblue" points="63.6,-86.23 63.59,-75.64 56.99,-83.92 63.6,-86.23"/>
</g>
<!-- Node8 -->
<g id="node8" class="node">
<title>Node8</title>
<g id="a_node8"><a xlink:title=" ">
<polygon fill="white" stroke="#bfbfbf" points="455,-56.5 455,-75.5 511,-75.5 511,-56.5 455,-56.5"/>
<text text-anchor="middle" x="483" y="-63.5" font-family="Helvetica,sans-Serif" font-size="10.00">stddef.h</text>
</a>
</g>
</g>
<!-- Node7&#45;&gt;Node8 -->
<g id="edge7" class="edge">
<title>Node7&#45;&gt;Node8</title>
<path fill="none" stroke="midnightblue" d="M468.03,-266.43C498.97,-260.15 531.8,-247.19 551,-221 584.15,-175.78 529.42,-111.84 499.91,-82.64"/>
<polygon fill="midnightblue" stroke="midnightblue" points="502.32,-80.1 492.69,-75.68 497.46,-85.14 502.32,-80.1"/>
</g>
<!-- Node9 -->
<g id="node9" class="node">
<title>Node9</title>
<g id="a_node9"><a xlink:href="obc__time_8h.html" target="_top" xlink:title=" ">
<polygon fill="white" stroke="black" points="76.5,-185 76.5,-215 209.5,-215 209.5,-185 76.5,-185"/>
<text text-anchor="start" x="84.5" y="-203" font-family="Helvetica,sans-Serif" font-size="10.00">../System/TimeManager</text>
<text text-anchor="middle" x="143" y="-192" font-family="Helvetica,sans-Serif" font-size="10.00">/obc_time.h</text>
</a>
</g>
</g>
<!-- Node7&#45;&gt;Node9 -->
<g id="edge8" class="edge">
<title>Node7&#45;&gt;Node9</title>
<path fill="none" stroke="midnightblue" d="M361.09,-263C321.83,-251.84 252.07,-232 202,-217.77"/>
<polygon fill="midnightblue" stroke="midnightblue" points="202.84,-214.37 192.27,-215.01 200.93,-221.11 202.84,-214.37"/>
</g>
<!-- Node11 -->
<g id="node11" class="node">
<title>Node11</title>
<g id="a_node11"><a xlink:href="command__definitions_8h.html" target="_top" xlink:title="コマンド定義">
<polygon fill="white" stroke="black" points="598.5,-185 598.5,-215 751.5,-215 751.5,-185 598.5,-185"/>
<text text-anchor="start" x="606.5" y="-203" font-family="Helvetica,sans-Serif" font-size="10.00">src_user/CmdTlm/command</text>
<text text-anchor="middle" x="675" y="-192" font-family="Helvetica,sans-Serif" font-size="10.00">_definitions.h</text>
</a>
</g>
</g>
<!-- Node7&#45;&gt;Node11 -->
<g id="edge11" class="edge">
<title>Node7&#45;&gt;Node11</title>
<path fill="none" stroke="midnightblue" d="M425.26,-263C470.58,-251.74 551.44,-231.67 608.86,-217.42"/>
<polygon fill="midnightblue" stroke="midnightblue" points="609.72,-220.81 618.58,-215.01 608.03,-214.02 609.72,-220.81"/>
</g>
<!-- Node12 -->
<g id="node12" class="node">
<title>Node12</title>
<g id="a_node12"><a xlink:href="app__registry_8h.html" target="_top" xlink:title=" ">
<polygon fill="white" stroke="black" points="770,-185 770,-215 890,-215 890,-185 770,-185"/>
<text text-anchor="start" x="778" y="-203" font-family="Helvetica,sans-Serif" font-size="10.00">src_user/Applications</text>
<text text-anchor="middle" x="830" y="-192" font-family="Helvetica,sans-Serif" font-size="10.00">/app_registry.h</text>
</a>
</g>
</g>
<!-- Node7&#45;&gt;Node12 -->
<g id="edge13" class="edge">
<title>Node7&#45;&gt;Node12</title>
<path fill="none" stroke="midnightblue" d="M468.1,-264.3C543.34,-256.5 660.79,-242.24 761,-221 765.64,-220.02 770.42,-218.89 775.2,-217.67"/>
<polygon fill="midnightblue" stroke="midnightblue" points="776.19,-221.03 784.96,-215.08 774.4,-214.26 776.19,-221.03"/>
</g>
<!-- Node13 -->
<g id="node13" class="node">
<title>Node13</title>
<g id="a_node13"><a xlink:href="common__tlm__cmd__packet__define_8h.html" target="_top" xlink:title="CTCP型の定義">
<polygon fill="white" stroke="black" points="228,-179.5 228,-220.5 376,-220.5 376,-179.5 228,-179.5"/>
<text text-anchor="start" x="236" y="-208.5" font-family="Helvetica,sans-Serif" font-size="10.00">src_user/Settings/CmdTlm</text>
<text text-anchor="start" x="236" y="-197.5" font-family="Helvetica,sans-Serif" font-size="10.00">/common_tlm_cmd_packet</text>
<text text-anchor="middle" x="302" y="-186.5" font-family="Helvetica,sans-Serif" font-size="10.00">_define.h</text>
</a>
</g>
</g>
<!-- Node7&#45;&gt;Node13 -->
<g id="edge14" class="edge">
<title>Node7&#45;&gt;Node13</title>
<path fill="none" stroke="midnightblue" d="M380.09,-262.86C368.86,-253.96 350.82,-239.67 334.9,-227.06"/>
<polygon fill="midnightblue" stroke="midnightblue" points="336.83,-224.13 326.82,-220.66 332.49,-229.61 336.83,-224.13"/>
</g>
<!-- Node15 -->
<g id="node15" class="node">
<title>Node15</title>
<g id="a_node15"><a xlink:href="common__tlm__cmd__packet__params_8h.html" target="_top" xlink:title="CTCP パラメタのオーバーライド用ヘッダー">
<polygon fill="white" stroke="black" points="394,-179.5 394,-220.5 542,-220.5 542,-179.5 394,-179.5"/>
<text text-anchor="start" x="402" y="-208.5" font-family="Helvetica,sans-Serif" font-size="10.00">src_user/Settings/CmdTlm</text>
<text text-anchor="start" x="402" y="-197.5" font-family="Helvetica,sans-Serif" font-size="10.00">/common_tlm_cmd_packet</text>
<text text-anchor="middle" x="468" y="-186.5" font-family="Helvetica,sans-Serif" font-size="10.00">_params.h</text>
</a>
</g>
</g>
<!-- Node7&#45;&gt;Node15 -->
<g id="edge18" class="edge">
<title>Node7&#45;&gt;Node15</title>
<path fill="none" stroke="midnightblue" d="M400.44,-262.86C409.98,-254.13 425.19,-240.19 438.77,-227.76"/>
<polygon fill="midnightblue" stroke="midnightblue" points="441.51,-230 446.53,-220.66 436.79,-224.83 441.51,-230"/>
</g>
<!-- Node9&#45;&gt;Node4 -->
<g id="edge9" class="edge">
<title>Node9&#45;&gt;Node4</title>
<path fill="none" stroke="midnightblue" d="M132.45,-184.61C124.51,-173.49 113.55,-157.6 105,-143 93.73,-123.76 82.52,-100.75 75.23,-85.13"/>
<polygon fill="midnightblue" stroke="midnightblue" points="78.22,-83.25 70.86,-75.63 71.86,-86.18 78.22,-83.25"/>
</g>
<!-- Node10 -->
<g id="node10" class="node">
<title>Node10</title>
<g id="a_node10"><a xlink:href="obc__time__params_8h.html" target="_top" xlink:title="OBCTのCoreパラメタのオーバーライド用ヘッダー">
<polygon fill="white" stroke="black" points="114,-112.5 114,-142.5 254,-142.5 254,-112.5 114,-112.5"/>
<text text-anchor="start" x="122" y="-130.5" font-family="Helvetica,sans-Serif" font-size="10.00">src_user/Settings/System</text>
<text text-anchor="middle" x="184" y="-119.5" font-family="Helvetica,sans-Serif" font-size="10.00">/obc_time_params.h</text>
</a>
</g>
</g>
<!-- Node9&#45;&gt;Node10 -->
<g id="edge10" class="edge">
<title>Node9&#45;&gt;Node10</title>
<path fill="none" stroke="midnightblue" d="M151.3,-184.73C156.85,-175.18 164.29,-162.39 170.67,-151.42"/>
<polygon fill="midnightblue" stroke="midnightblue" points="173.71,-153.15 175.72,-142.75 167.66,-149.63 173.71,-153.15"/>
</g>
<!-- Node14 -->
<g id="node14" class="node">
<title>Node14</title>
<g id="a_node14"><a xlink:href="_t_c_packet_8h.html" target="_top" xlink:title=" ">
<polygon fill="white" stroke="black" points="343.5,-112.5 343.5,-142.5 450.5,-142.5 450.5,-112.5 343.5,-112.5"/>
<text text-anchor="start" x="351.5" y="-130.5" font-family="Helvetica,sans-Serif" font-size="10.00">../../CmdTlm/Ccsds</text>
<text text-anchor="middle" x="397" y="-119.5" font-family="Helvetica,sans-Serif" font-size="10.00">/TCPacket.h</text>
</a>
</g>
</g>
<!-- Node13&#45;&gt;Node14 -->
<g id="edge15" class="edge">
<title>Node13&#45;&gt;Node14</title>
<path fill="none" stroke="midnightblue" d="M328.46,-179.36C341.34,-169.8 356.81,-158.33 369.79,-148.69"/>
<polygon fill="midnightblue" stroke="midnightblue" points="371.96,-151.44 377.91,-142.67 367.79,-145.82 371.96,-151.44"/>
</g>
<!-- Node14&#45;&gt;Node4 -->
<g id="edge17" class="edge">
<title>Node14&#45;&gt;Node4</title>
<path fill="none" stroke="midnightblue" d="M343.25,-116.81C283.04,-105.95 185.85,-88.43 124.25,-77.32"/>
<polygon fill="midnightblue" stroke="midnightblue" points="124.77,-73.86 114.31,-75.53 123.53,-80.75 124.77,-73.86"/>
</g>
<!-- Node14&#45;&gt;Node8 -->
<g id="edge16" class="edge">
<title>Node14&#45;&gt;Node8</title>
<path fill="none" stroke="midnightblue" d="M417.38,-112.4C430.91,-103.04 448.61,-90.79 462.22,-81.38"/>
<polygon fill="midnightblue" stroke="midnightblue" points="464.25,-84.23 470.49,-75.66 460.27,-78.47 464.25,-84.23"/>
</g>
<!-- Node15&#45;&gt;Node14 -->
<g id="edge19" class="edge">
<title>Node15&#45;&gt;Node14</title>
<path fill="none" stroke="midnightblue" d="M448.22,-179.36C439.03,-170.23 428.07,-159.35 418.65,-150"/>
<polygon fill="midnightblue" stroke="midnightblue" points="421.06,-147.45 411.49,-142.89 416.12,-152.42 421.06,-147.45"/>
</g>
<!-- Node16&#45;&gt;Node3 -->
<g id="edge23" class="edge">
<title>Node16&#45;&gt;Node3</title>
<path fill="none" stroke="midnightblue" d="M370.6,-391.4C357.55,-382.37 340.4,-370.51 325.95,-360.52"/>
<polygon fill="midnightblue" stroke="midnightblue" points="327.57,-357.39 317.36,-354.58 323.59,-363.14 327.57,-357.39"/>
</g>
<!-- Node16&#45;&gt;Node7 -->
<g id="edge22" class="edge">
<title>Node16&#45;&gt;Node7</title>
<path fill="none" stroke="midnightblue" d="M391,-391.37C391,-367.5 391,-319.18 391,-292.41"/>
<polygon fill="midnightblue" stroke="midnightblue" points="394.5,-292.1 391,-282.1 387.5,-292.1 394.5,-292.1"/>
</g>
</g>
</svg>
