<?xml version="1.0" encoding="UTF-8" standalone="no"?>
<!DOCTYPE svg PUBLIC "-//W3C//DTD SVG 1.1//EN"
 "http://www.w3.org/Graphics/SVG/1.1/DTD/svg11.dtd">
<!-- Generated by graphviz version 2.43.0 (0)
 -->
<!-- Title: BCL_register_app_ Pages: 1 -->
<svg width="1864pt" height="640pt"
 viewBox="0.00 0.00 1864.00 639.50" xmlns="http://www.w3.org/2000/svg" xmlns:xlink="http://www.w3.org/1999/xlink">
<g id="graph0" class="graph" transform="scale(1 1) rotate(0) translate(4 635.5)">
<title>BCL_register_app_</title>
<polygon fill="white" stroke="transparent" points="-4,4 -4,-635.5 1860,-635.5 1860,4 -4,4"/>
<!-- Node1 -->
<g id="node1" class="node">
<title>Node1</title>
<g id="a_node1"><a xlink:title=" ">
<polygon fill="#bfbfbf" stroke="black" points="0,-338 0,-357 107,-357 107,-338 0,-338"/>
<text text-anchor="middle" x="53.5" y="-345" font-family="Helvetica,sans-Serif" font-size="10.00">BCL_register_app_</text>
</a>
</g>
</g>
<!-- Node2 -->
<g id="node2" class="node">
<title>Node2</title>
<g id="a_node2"><a xlink:href="block__command__table_8c.html#af4f041d9c2411d039196e8c2eb786005" target="_top" xlink:title="Cmd を block_command_table&#45;&gt;pos に登録する">
<polygon fill="white" stroke="black" points="147.5,-536 147.5,-555 252.5,-555 252.5,-536 147.5,-536"/>
<text text-anchor="middle" x="200" y="-543" font-family="Helvetica,sans-Serif" font-size="10.00">BCT_register_cmd</text>
</a>
</g>
</g>
<!-- Node1&#45;&gt;Node2 -->
<g id="edge1" class="edge">
<title>Node1&#45;&gt;Node2</title>
<path fill="none" stroke="midnightblue" d="M61.47,-357.05C84.11,-388.07 155.86,-486.38 185.74,-527.33"/>
<polygon fill="midnightblue" stroke="midnightblue" points="183.04,-529.57 191.76,-535.58 188.69,-525.44 183.04,-529.57"/>
</g>
<!-- Node15 -->
<g id="node12" class="node">
<title>Node15</title>
<g id="a_node12"><a xlink:href="common__cmd__packet__util_8c.html#a7e4a83a103dfa316c08b1570d93df0d1" target="_top" xlink:title="App 実行 TL コマンドを生成">
<polygon fill="white" stroke="black" points="143,-224 143,-243 257,-243 257,-224 143,-224"/>
<text text-anchor="middle" x="200" y="-231" font-family="Helvetica,sans-Serif" font-size="10.00">CCP_form_app_cmd</text>
</a>
</g>
</g>
<!-- Node1&#45;&gt;Node15 -->
<g id="edge12" class="edge">
<title>Node1&#45;&gt;Node15</title>
<path fill="none" stroke="midnightblue" d="M66.82,-337.78C91.67,-318.18 148.01,-273.73 178.49,-249.68"/>
<polygon fill="midnightblue" stroke="midnightblue" points="181.03,-252.14 186.71,-243.19 176.69,-246.64 181.03,-252.14"/>
</g>
<!-- Node3 -->
<g id="node3" class="node">
<title>Node3</title>
<g id="a_node3"><a xlink:href="block__command__table_8c.html#ae25a57a4a97b49bf13a4caa0b5e8ff76" target="_top" xlink:title="BCT_Pos* の validate">
<polygon fill="white" stroke="black" points="452.5,-612 452.5,-631 566.5,-631 566.5,-612 452.5,-612"/>
<text text-anchor="middle" x="509.5" y="-619" font-family="Helvetica,sans-Serif" font-size="10.00">BCT_check_position</text>
</a>
</g>
</g>
<!-- Node2&#45;&gt;Node3 -->
<g id="edge2" class="edge">
<title>Node2&#45;&gt;Node3</title>
<path fill="none" stroke="midnightblue" d="M212.58,-555.21C229.18,-568.51 261.27,-591.94 293,-602.5 341.17,-618.53 398.55,-622.93 441.98,-623.51"/>
<polygon fill="midnightblue" stroke="midnightblue" points="442.12,-627.01 452.15,-623.58 442.17,-620.01 442.12,-627.01"/>
</g>
<!-- Node4 -->
<g id="node4" class="node">
<title>Node4</title>
<g id="a_node4"><a xlink:href="block__command__table_8c.html#add2db8412ac7b28b2e61d99638daaac5" target="_top" xlink:title="BCT の length の getter">
<polygon fill="white" stroke="black" points="295.5,-536 295.5,-555 405.5,-555 405.5,-536 295.5,-536"/>
<text text-anchor="middle" x="350.5" y="-543" font-family="Helvetica,sans-Serif" font-size="10.00">BCT_get_bc_length</text>
</a>
</g>
</g>
<!-- Node2&#45;&gt;Node4 -->
<g id="edge3" class="edge">
<title>Node2&#45;&gt;Node4</title>
<path fill="none" stroke="midnightblue" d="M252.52,-545.5C263,-545.5 274.14,-545.5 285,-545.5"/>
<polygon fill="midnightblue" stroke="midnightblue" points="285.29,-549 295.29,-545.5 285.29,-542 285.29,-549"/>
</g>
<!-- Node5 -->
<g id="node5" class="node">
<title>Node5</title>
<g id="a_node5"><a xlink:href="block__command__table_8c.html#aa8c676311a614f56a48444ffb17f7e87" target="_top" xlink:title="pos の指す場所に packet の内容を保存 (TCP_PRM_HDR_LEN の長さも考慮)">
<polygon fill="white" stroke="black" points="302.5,-574 302.5,-593 398.5,-593 398.5,-574 302.5,-574"/>
<text text-anchor="middle" x="350.5" y="-581" font-family="Helvetica,sans-Serif" font-size="10.00">BCT_save_cmd_</text>
</a>
</g>
</g>
<!-- Node2&#45;&gt;Node5 -->
<g id="edge4" class="edge">
<title>Node2&#45;&gt;Node5</title>
<path fill="none" stroke="midnightblue" d="M238.47,-555.09C257.89,-560.06 281.8,-566.18 302.45,-571.46"/>
<polygon fill="midnightblue" stroke="midnightblue" points="301.74,-574.89 312.3,-573.98 303.48,-568.11 301.74,-574.89"/>
</g>
<!-- Node14 -->
<g id="node11" class="node">
<title>Node14</title>
<g id="a_node11"><a xlink:href="block__command__table_8c.html#a8de02d89c561030741c771739016db35" target="_top" xlink:title=" ">
<polygon fill="white" stroke="black" points="293.5,-498 293.5,-517 407.5,-517 407.5,-498 293.5,-498"/>
<text text-anchor="middle" x="350.5" y="-505" font-family="Helvetica,sans-Serif" font-size="10.00">BCT_set_bc_length_</text>
</a>
</g>
</g>
<!-- Node2&#45;&gt;Node14 -->
<g id="edge11" class="edge">
<title>Node2&#45;&gt;Node14</title>
<path fill="none" stroke="midnightblue" d="M238.47,-535.91C257.89,-530.94 281.8,-524.82 302.45,-519.54"/>
<polygon fill="midnightblue" stroke="midnightblue" points="303.48,-522.89 312.3,-517.02 301.74,-516.11 303.48,-522.89"/>
</g>
<!-- Node5&#45;&gt;Node3 -->
<g id="edge5" class="edge">
<title>Node5&#45;&gt;Node3</title>
<path fill="none" stroke="midnightblue" d="M391.12,-593.09C411.84,-598.1 437.39,-604.29 459.36,-609.61"/>
<polygon fill="midnightblue" stroke="midnightblue" points="458.62,-613.03 469.17,-611.98 460.27,-606.23 458.62,-613.03"/>
</g>
<!-- Node6 -->
<g id="node6" class="node">
<title>Node6</title>
<g id="a_node6"><a xlink:href="block__command__table_8c.html#a5099527d441a777f4656300ab41037da" target="_top" xlink:title=" ">
<polygon fill="white" stroke="black" points="444,-574 444,-593 575,-593 575,-574 444,-574"/>
<text text-anchor="middle" x="509.5" y="-581" font-family="Helvetica,sans-Serif" font-size="10.00">BCT_set_bc_cmd_data_</text>
</a>
</g>
</g>
<!-- Node5&#45;&gt;Node6 -->
<g id="edge6" class="edge">
<title>Node5&#45;&gt;Node6</title>
<path fill="none" stroke="midnightblue" d="M398.61,-583.5C409.57,-583.5 421.52,-583.5 433.36,-583.5"/>
<polygon fill="midnightblue" stroke="midnightblue" points="433.72,-587 443.72,-583.5 433.72,-580 433.72,-587"/>
</g>
<!-- Node7 -->
<g id="node7" class="node">
<title>Node7</title>
<g id="a_node7"><a xlink:href="common__cmd__packet_8h.html#a09b2e0ad8f87be0782c0f8ef2523f44c" target="_top" xlink:title="パケット長を取得">
<polygon fill="white" stroke="black" points="452,-536 452,-555 567,-555 567,-536 452,-536"/>
<text text-anchor="middle" x="509.5" y="-543" font-family="Helvetica,sans-Serif" font-size="10.00">CCP_get_packet_len</text>
</a>
</g>
</g>
<!-- Node5&#45;&gt;Node7 -->
<g id="edge7" class="edge">
<title>Node5&#45;&gt;Node7</title>
<path fill="none" stroke="midnightblue" d="M391.12,-573.91C411.84,-568.9 437.39,-562.71 459.36,-557.39"/>
<polygon fill="midnightblue" stroke="midnightblue" points="460.27,-560.77 469.17,-555.02 458.62,-553.97 460.27,-560.77"/>
</g>
<!-- Node8 -->
<g id="node8" class="node">
<title>Node8</title>
<g id="a_node8"><a xlink:href="cmd__space__packet_8c.html#aee157565d728de693218da48114b5923" target="_top" xlink:title="Packet Length を取得">
<polygon fill="white" stroke="black" points="611,-557 611,-576 725,-576 725,-557 611,-557"/>
<text text-anchor="middle" x="668" y="-564" font-family="Helvetica,sans-Serif" font-size="10.00">CSP_get_packet_len</text>
</a>
</g>
</g>
<!-- Node7&#45;&gt;Node8 -->
<g id="edge8" class="edge">
<title>Node7&#45;&gt;Node8</title>
<path fill="none" stroke="midnightblue" d="M567,-553.08C577.93,-554.55 589.47,-556.1 600.67,-557.6"/>
<polygon fill="midnightblue" stroke="midnightblue" points="600.47,-561.1 610.85,-558.96 601.4,-554.17 600.47,-561.1"/>
</g>
<!-- Node9 -->
<g id="node9" class="node">
<title>Node9</title>
<g id="a_node9"><a xlink:href="space__packet_8c.html#a25afed909fb67da49f5ac9921a23744f" target="_top" xlink:title="Packet Length を取得">
<polygon fill="white" stroke="black" points="780.5,-563 780.5,-582 887.5,-582 887.5,-563 780.5,-563"/>
<text text-anchor="middle" x="834" y="-570" font-family="Helvetica,sans-Serif" font-size="10.00">SP_get_packet_len</text>
</a>
</g>
</g>
<!-- Node8&#45;&gt;Node9 -->
<g id="edge9" class="edge">
<title>Node8&#45;&gt;Node9</title>
<path fill="none" stroke="midnightblue" d="M725.44,-568.56C739.89,-569.09 755.53,-569.67 770.27,-570.21"/>
<polygon fill="midnightblue" stroke="midnightblue" points="770.2,-573.7 780.32,-570.57 770.45,-566.71 770.2,-573.7"/>
</g>
<!-- Node10 -->
<g id="node10" class="node">
<title>Node10</title>
<g id="a_node10"><a xlink:href="space__packet_8c.html#ad5dd44fdb4e6c00e7dbb311d3aaee3d3" target="_top" xlink:title="Packet Data Length を取得">
<polygon fill="white" stroke="red" points="955,-582 955,-601 1089,-601 1089,-582 955,-582"/>
<text text-anchor="middle" x="1022" y="-589" font-family="Helvetica,sans-Serif" font-size="10.00">SP_get_packet_data_len</text>
</a>
</g>
</g>
<!-- Node9&#45;&gt;Node10 -->
<g id="edge10" class="edge">
<title>Node9&#45;&gt;Node10</title>
<path fill="none" stroke="midnightblue" d="M887.8,-577.89C905.46,-579.7 925.52,-581.75 944.61,-583.7"/>
<polygon fill="midnightblue" stroke="midnightblue" points="944.49,-587.2 954.79,-584.74 945.2,-580.24 944.49,-587.2"/>
</g>
<!-- Node16 -->
<g id="node13" class="node">
<title>Node16</title>
<g id="a_node13"><a xlink:href="common__cmd__packet__util_8c.html#a3695599b4d05dbb0b510c73dab7cd233" target="_top" xlink:title="Timeline command を生成">
<polygon fill="white" stroke="black" points="309.5,-378 309.5,-397 391.5,-397 391.5,-378 309.5,-378"/>
<text text-anchor="middle" x="350.5" y="-385" font-family="Helvetica,sans-Serif" font-size="10.00">CCP_form_tlc</text>
</a>
</g>
</g>
<!-- Node15&#45;&gt;Node16 -->
<g id="edge13" class="edge">
<title>Node15&#45;&gt;Node16</title>
<path fill="none" stroke="midnightblue" d="M210.29,-243.13C234.87,-268.63 301.89,-338.12 333.1,-370.49"/>
<polygon fill="midnightblue" stroke="midnightblue" points="330.75,-373.1 340.21,-377.87 335.79,-368.24 330.75,-373.1"/>
</g>
<!-- Node58 -->
<g id="node43" class="node">
<title>Node58</title>
<g id="a_node43"><a xlink:href="common__cmd__packet__util_8c.html#ad5c2c14986594ce2f6b213458dfa728d" target="_top" xlink:title="Param Generator から完成した param を取得する">
<polygon fill="white" stroke="black" points="762.5,-218.5 762.5,-248.5 905.5,-248.5 905.5,-218.5 762.5,-218.5"/>
<text text-anchor="start" x="770.5" y="-236.5" font-family="Helvetica,sans-Serif" font-size="10.00">CCP_get_prepared_param</text>
<text text-anchor="middle" x="834" y="-225.5" font-family="Helvetica,sans-Serif" font-size="10.00">_for_packet</text>
</a>
</g>
</g>
<!-- Node15&#45;&gt;Node58 -->
<g id="edge54" class="edge">
<title>Node15&#45;&gt;Node58</title>
<path fill="none" stroke="midnightblue" d="M257.09,-233.5C369.3,-233.5 621.8,-233.5 751.99,-233.5"/>
<polygon fill="midnightblue" stroke="midnightblue" points="752.29,-237 762.29,-233.5 752.29,-230 752.29,-237"/>
</g>
<!-- Node61 -->
<g id="node46" class="node">
<title>Node61</title>
<g id="a_node46"><a xlink:href="common__cmd__packet__util_8c.html#aac5fdc61181221fbc60b95acabaacd60" target="_top" xlink:title="Param Generator を初期化">
<polygon fill="white" stroke="black" points="611.5,-65.5 611.5,-95.5 724.5,-95.5 724.5,-65.5 611.5,-65.5"/>
<text text-anchor="start" x="619.5" y="-83.5" font-family="Helvetica,sans-Serif" font-size="10.00">CCP_init_param_for</text>
<text text-anchor="middle" x="668" y="-72.5" font-family="Helvetica,sans-Serif" font-size="10.00">_packet</text>
</a>
</g>
</g>
<!-- Node15&#45;&gt;Node61 -->
<g id="edge58" class="edge">
<title>Node15&#45;&gt;Node61</title>
<path fill="none" stroke="midnightblue" d="M208.15,-224C222.23,-206.04 255.45,-167.24 293,-148.5 392.75,-98.72 523.69,-85.03 601.24,-81.47"/>
<polygon fill="midnightblue" stroke="midnightblue" points="601.5,-84.97 611.35,-81.05 601.21,-77.97 601.5,-84.97"/>
</g>
<!-- Node63 -->
<g id="node48" class="node">
<title>Node63</title>
<g id="a_node48"><a xlink:href="common__cmd__packet__util_8c.html#a3d62c757ee4f59aa67c398cfc0a07f3f" target="_top" xlink:title="Param Generator で uint32_t のパラメタを登録">
<polygon fill="white" stroke="black" points="293,-158.5 293,-188.5 408,-188.5 408,-158.5 293,-158.5"/>
<text text-anchor="start" x="301" y="-176.5" font-family="Helvetica,sans-Serif" font-size="10.00">CCP_prepare_uint32</text>
<text text-anchor="middle" x="350.5" y="-165.5" font-family="Helvetica,sans-Serif" font-size="10.00">_param_for_packet</text>
</a>
</g>
</g>
<!-- Node15&#45;&gt;Node63 -->
<g id="edge60" class="edge">
<title>Node15&#45;&gt;Node63</title>
<path fill="none" stroke="midnightblue" d="M224.53,-223.99C245.51,-215.52 276.83,-202.86 302.87,-192.34"/>
<polygon fill="midnightblue" stroke="midnightblue" points="304.23,-195.56 312.19,-188.57 301.61,-189.07 304.23,-195.56"/>
</g>
<!-- Node17 -->
<g id="node14" class="node">
<title>Node17</title>
<g id="a_node14"><a xlink:href="command__analyze_8c.html#ae878a1a8ce00cc7468fbdd5bc5aba864" target="_top" xlink:title="コマンドパラメタ長をチェックする">
<polygon fill="white" stroke="black" points="761,-316 761,-335 907,-335 907,-316 761,-316"/>
<text text-anchor="middle" x="834" y="-323" font-family="Helvetica,sans-Serif" font-size="10.00">CA_ckeck_cmd_param_len</text>
</a>
</g>
</g>
<!-- Node16&#45;&gt;Node17 -->
<g id="edge14" class="edge">
<title>Node16&#45;&gt;Node17</title>
<path fill="none" stroke="midnightblue" d="M391.88,-378.36C408.02,-374.93 426.83,-371.21 444,-368.5 549.18,-351.92 671.36,-339.53 750.31,-332.41"/>
<polygon fill="midnightblue" stroke="midnightblue" points="751.03,-335.86 760.68,-331.48 750.41,-328.88 751.03,-335.86"/>
</g>
<!-- Node24 -->
<g id="node21" class="node">
<title>Node24</title>
<g id="a_node21"><a xlink:href="common__cmd__packet__util_8c.html#ae0f356389f15546c7e067db35bde985d" target="_top" xlink:title="Realtime Command から Timeline Command へ変換">
<polygon fill="white" stroke="black" points="770,-506 770,-525 898,-525 898,-506 770,-506"/>
<text text-anchor="middle" x="834" y="-513" font-family="Helvetica,sans-Serif" font-size="10.00">CCP_convert_rtc_to_tlc</text>
</a>
</g>
</g>
<!-- Node16&#45;&gt;Node24 -->
<g id="edge23" class="edge">
<title>Node16&#45;&gt;Node24</title>
<path fill="none" stroke="midnightblue" d="M370.94,-397.17C389.38,-406.03 418.05,-419.04 444,-427.5 554.41,-463.51 687.12,-490.11 765.51,-504.17"/>
<polygon fill="midnightblue" stroke="midnightblue" points="765.28,-507.68 775.74,-505.99 766.51,-500.79 765.28,-507.68"/>
</g>
<!-- Node30 -->
<g id="node29" class="node">
<title>Node30</title>
<g id="a_node29"><a xlink:href="common__cmd__packet__util_8c.html#a01b352632ca605771f0cfd66a2a149ba" target="_top" xlink:title="NOP cmd の RTC CCP を作る">
<polygon fill="white" stroke="black" points="454,-378 454,-397 565,-397 565,-378 454,-378"/>
<text text-anchor="middle" x="509.5" y="-385" font-family="Helvetica,sans-Serif" font-size="10.00">CCP_form_nop_rtc_</text>
</a>
</g>
</g>
<!-- Node16&#45;&gt;Node30 -->
<g id="edge32" class="edge">
<title>Node16&#45;&gt;Node30</title>
<path fill="none" stroke="midnightblue" d="M391.52,-387.5C407.32,-387.5 425.88,-387.5 443.5,-387.5"/>
<polygon fill="midnightblue" stroke="midnightblue" points="443.74,-391 453.74,-387.5 443.74,-384 443.74,-391"/>
</g>
<!-- Node32 -->
<g id="node31" class="node">
<title>Node32</title>
<g id="a_node31"><a xlink:href="common__cmd__packet__util_8c.html#a58160242c4b87906597c90a3465c9596" target="_top" xlink:title="RealTime Command を生成する. CCP_form_* の実体.">
<polygon fill="white" stroke="black" points="790,-428 790,-447 878,-447 878,-428 790,-428"/>
<text text-anchor="middle" x="834" y="-435" font-family="Helvetica,sans-Serif" font-size="10.00">CCP_form_rtc_</text>
</a>
</g>
</g>
<!-- Node16&#45;&gt;Node32 -->
<g id="edge53" class="edge">
<title>Node16&#45;&gt;Node32</title>
<path fill="none" stroke="midnightblue" d="M391.84,-396.91C407.98,-400.38 426.79,-404.06 444,-406.5 563.32,-423.44 704.64,-431.81 779.77,-435.33"/>
<polygon fill="midnightblue" stroke="midnightblue" points="779.78,-438.84 789.93,-435.8 780.1,-431.85 779.78,-438.84"/>
</g>
<!-- Node18 -->
<g id="node15" class="node">
<title>Node18</title>
<g id="a_node15"><a xlink:href="command__analyze_8c.html#ac95557475d470f986e1eb46befbc2ae9" target="_top" xlink:title="最小コマンドパラメタ長を取得する">
<polygon fill="white" stroke="black" points="943,-202 943,-221 1101,-221 1101,-202 943,-202"/>
<text text-anchor="middle" x="1022" y="-209" font-family="Helvetica,sans-Serif" font-size="10.00">CA_get_cmd_param_min_len</text>
</a>
</g>
</g>
<!-- Node17&#45;&gt;Node18 -->
<g id="edge15" class="edge">
<title>Node17&#45;&gt;Node18</title>
<path fill="none" stroke="midnightblue" d="M850.54,-315.98C882.95,-296.11 957.98,-250.13 996.78,-226.34"/>
<polygon fill="midnightblue" stroke="midnightblue" points="998.68,-229.29 1005.38,-221.08 995.02,-223.32 998.68,-229.29"/>
</g>
<!-- Node21 -->
<g id="node18" class="node">
<title>Node21</title>
<g id="a_node18"><a xlink:href="command__analyze_8c.html#a8b245c2a85084ae21588acd4deb3b3d6" target="_top" xlink:title="RAW パラメタを持っているか？">
<polygon fill="white" stroke="black" points="965.5,-278 965.5,-297 1078.5,-297 1078.5,-278 965.5,-278"/>
<text text-anchor="middle" x="1022" y="-285" font-family="Helvetica,sans-Serif" font-size="10.00">CA_has_raw_param</text>
</a>
</g>
</g>
<!-- Node17&#45;&gt;Node21 -->
<g id="edge18" class="edge">
<title>Node17&#45;&gt;Node21</title>
<path fill="none" stroke="midnightblue" d="M881.94,-315.91C907.03,-310.78 938.12,-304.43 964.53,-299.04"/>
<polygon fill="midnightblue" stroke="midnightblue" points="965.3,-302.45 974.4,-297.02 963.9,-295.59 965.3,-302.45"/>
</g>
<!-- Node23 -->
<g id="node20" class="node">
<title>Node23</title>
<g id="a_node20"><a xlink:href="common__cmd__packet_8h.html#a0cb576a77e94553c22d9cb70a6fd50f1" target="_top" xlink:title="CMD パラメタ長の最大値を取得">
<polygon fill="white" stroke="black" points="951.5,-316 951.5,-335 1092.5,-335 1092.5,-316 951.5,-316"/>
<text text-anchor="middle" x="1022" y="-323" font-family="Helvetica,sans-Serif" font-size="10.00">CCP_get_max_param_len</text>
</a>
</g>
</g>
<!-- Node17&#45;&gt;Node23 -->
<g id="edge22" class="edge">
<title>Node17&#45;&gt;Node23</title>
<path fill="none" stroke="midnightblue" d="M907.18,-325.5C918.28,-325.5 929.8,-325.5 941.06,-325.5"/>
<polygon fill="midnightblue" stroke="midnightblue" points="941.31,-329 951.31,-325.5 941.31,-322 941.31,-329"/>
</g>
<!-- Node19 -->
<g id="node16" class="node">
<title>Node19</title>
<g id="a_node16"><a xlink:href="command__analyze_8c.html#a464f3aa16753a76bc5093100542a361a" target="_top" xlink:title="コマンドパラメタサイズを取得する">
<polygon fill="white" stroke="black" points="1138,-126 1138,-145 1277,-145 1277,-126 1138,-126"/>
<text text-anchor="middle" x="1207.5" y="-133" font-family="Helvetica,sans-Serif" font-size="10.00">CA_get_cmd_param_size</text>
</a>
</g>
</g>
<!-- Node18&#45;&gt;Node19 -->
<g id="edge16" class="edge">
<title>Node18&#45;&gt;Node19</title>
<path fill="none" stroke="midnightblue" d="M1079.48,-201.87C1086.99,-199.42 1094.37,-196.35 1101,-192.5 1121.12,-180.83 1117.04,-166.45 1137,-154.5 1140.62,-152.33 1144.5,-150.4 1148.49,-148.69"/>
<polygon fill="midnightblue" stroke="midnightblue" points="1149.89,-151.91 1157.99,-145.08 1147.4,-145.36 1149.89,-151.91"/>
</g>
<!-- Node20 -->
<g id="node17" class="node">
<title>Node20</title>
<g id="a_node17"><a xlink:href="command__analyze_8c.html#aa312aeadf3ce336a10385fe14e22f77c" target="_top" xlink:title="コマンドパラメタのサイズ情報を取得">
<polygon fill="white" stroke="black" points="1314,-240 1314,-259 1459,-259 1459,-240 1314,-240"/>
<text text-anchor="middle" x="1386.5" y="-247" font-family="Helvetica,sans-Serif" font-size="10.00">CA_get_param_size_type_</text>
</a>
</g>
</g>
<!-- Node19&#45;&gt;Node20 -->
<g id="edge17" class="edge">
<title>Node19&#45;&gt;Node20</title>
<path fill="none" stroke="midnightblue" d="M1255.25,-145.11C1263.09,-147.6 1270.96,-150.69 1278,-154.5 1315.72,-174.88 1351.32,-210.81 1370.6,-232.16"/>
<polygon fill="midnightblue" stroke="midnightblue" points="1368.13,-234.65 1377.38,-239.82 1373.37,-230.01 1368.13,-234.65"/>
</g>
<!-- Node21&#45;&gt;Node20 -->
<g id="edge21" class="edge">
<title>Node21&#45;&gt;Node20</title>
<path fill="none" stroke="midnightblue" d="M1078.62,-284.97C1130.39,-282.23 1209.61,-277.07 1278,-268.5 1294.04,-266.49 1311.33,-263.71 1327.26,-260.9"/>
<polygon fill="midnightblue" stroke="midnightblue" points="1328.27,-264.27 1337.49,-259.05 1327.03,-257.38 1328.27,-264.27"/>
</g>
<!-- Node22 -->
<g id="node19" class="node">
<title>Node22</title>
<g id="a_node19"><a xlink:href="command__analyze_8c.html#a170772c49fb7883a382a30bd38485a6e" target="_top" xlink:title="コマンドパラメタ数を取得する">
<polygon fill="white" stroke="black" points="1137,-240 1137,-259 1278,-259 1278,-240 1137,-240"/>
<text text-anchor="middle" x="1207.5" y="-247" font-family="Helvetica,sans-Serif" font-size="10.00">CA_get_cmd_param_num</text>
</a>
</g>
</g>
<!-- Node21&#45;&gt;Node22 -->
<g id="edge19" class="edge">
<title>Node21&#45;&gt;Node22</title>
<path fill="none" stroke="midnightblue" d="M1069.3,-277.91C1093.96,-272.81 1124.46,-266.49 1150.44,-261.11"/>
<polygon fill="midnightblue" stroke="midnightblue" points="1151.45,-264.48 1160.53,-259.02 1150.03,-257.62 1151.45,-264.48"/>
</g>
<!-- Node22&#45;&gt;Node20 -->
<g id="edge20" class="edge">
<title>Node22&#45;&gt;Node20</title>
<path fill="none" stroke="midnightblue" d="M1278.2,-249.5C1286.52,-249.5 1295.08,-249.5 1303.55,-249.5"/>
<polygon fill="midnightblue" stroke="midnightblue" points="1303.83,-253 1313.83,-249.5 1303.83,-246 1303.83,-253"/>
</g>
<!-- Node25 -->
<g id="node22" class="node">
<title>Node25</title>
<g id="a_node22"><a xlink:href="common__cmd__packet_8h.html#ab4c0b1be76b7097e922a8a354f500b88" target="_top" xlink:title="EXEC_TYPE を設定">
<polygon fill="white" stroke="black" points="966.5,-506 966.5,-525 1077.5,-525 1077.5,-506 966.5,-506"/>
<text text-anchor="middle" x="1022" y="-513" font-family="Helvetica,sans-Serif" font-size="10.00">CCP_set_exec_type</text>
</a>
</g>
</g>
<!-- Node24&#45;&gt;Node25 -->
<g id="edge24" class="edge">
<title>Node24&#45;&gt;Node25</title>
<path fill="none" stroke="midnightblue" d="M898.23,-515.5C916.89,-515.5 937.34,-515.5 956.1,-515.5"/>
<polygon fill="midnightblue" stroke="midnightblue" points="956.33,-519 966.33,-515.5 956.33,-512 956.33,-519"/>
</g>
<!-- Node28 -->
<g id="node27" class="node">
<title>Node28</title>
<g id="a_node27"><a xlink:href="common__cmd__packet_8h.html#a1fde7575e47a25464d869a3247e1e087" target="_top" xlink:title="TI を設定">
<polygon fill="white" stroke="black" points="988,-544 988,-563 1056,-563 1056,-544 988,-544"/>
<text text-anchor="middle" x="1022" y="-551" font-family="Helvetica,sans-Serif" font-size="10.00">CCP_set_ti</text>
</a>
</g>
</g>
<!-- Node24&#45;&gt;Node28 -->
<g id="edge29" class="edge">
<title>Node24&#45;&gt;Node28</title>
<path fill="none" stroke="midnightblue" d="M881.94,-525.09C911.36,-531.1 949.02,-538.79 977.72,-544.66"/>
<polygon fill="midnightblue" stroke="midnightblue" points="977.36,-548.16 987.86,-546.73 978.76,-541.3 977.36,-548.16"/>
</g>
<!-- Node26 -->
<g id="node23" class="node">
<title>Node26</title>
<g id="a_node23"><a xlink:href="cmd__space__packet_8c.html#a031c095293173f7bc0fa4a97852b7060" target="_top" xlink:title="Execution Type を設定">
<polygon fill="white" stroke="black" points="1331.5,-506 1331.5,-525 1441.5,-525 1441.5,-506 1331.5,-506"/>
<text text-anchor="middle" x="1386.5" y="-513" font-family="Helvetica,sans-Serif" font-size="10.00">CSP_set_exec_type</text>
</a>
</g>
</g>
<!-- Node25&#45;&gt;Node26 -->
<g id="edge25" class="edge">
<title>Node25&#45;&gt;Node26</title>
<path fill="none" stroke="midnightblue" d="M1077.66,-515.5C1142.85,-515.5 1251.67,-515.5 1320.94,-515.5"/>
<polygon fill="midnightblue" stroke="midnightblue" points="1321.28,-519 1331.28,-515.5 1321.28,-512 1321.28,-519"/>
</g>
<!-- Node27 -->
<g id="node24" class="node">
<title>Node27</title>
<g id="a_node24"><a xlink:href="space__packet_8c.html#a9d4e5051b01d74f88ee13ce05f61b392" target="_top" xlink:title="packet に param を格納">
<polygon fill="white" stroke="black" points="1495,-443.5 1495,-473.5 1608,-473.5 1608,-443.5 1495,-443.5"/>
<text text-anchor="start" x="1503" y="-461.5" font-family="Helvetica,sans-Serif" font-size="10.00">SP_insert_param_to</text>
<text text-anchor="middle" x="1551.5" y="-450.5" font-family="Helvetica,sans-Serif" font-size="10.00">_packet</text>
</a>
</g>
</g>
<!-- Node26&#45;&gt;Node27 -->
<g id="edge26" class="edge">
<title>Node26&#45;&gt;Node27</title>
<path fill="none" stroke="midnightblue" d="M1427.12,-505.98C1437.57,-503.2 1448.78,-499.96 1459,-496.5 1475.04,-491.07 1492.27,-484.19 1507.41,-477.79"/>
<polygon fill="midnightblue" stroke="midnightblue" points="1509.21,-480.83 1517.02,-473.67 1506.45,-474.39 1509.21,-480.83"/>
</g>
<!-- Node12 -->
<g id="node25" class="node">
<title>Node12</title>
<g id="a_node25"><a xlink:href="endian__memcpy_8c.html#a153793f6939a1cb0f6bc3968d953f31e" target="_top" xlink:title=" ">
<polygon fill="white" stroke="black" points="1644,-240 1644,-259 1742,-259 1742,-240 1644,-240"/>
<text text-anchor="middle" x="1693" y="-247" font-family="Helvetica,sans-Serif" font-size="10.00">endian_memcpy</text>
</a>
</g>
</g>
<!-- Node27&#45;&gt;Node12 -->
<g id="edge27" class="edge">
<title>Node27&#45;&gt;Node12</title>
<path fill="none" stroke="midnightblue" d="M1562.53,-443.47C1587.57,-405.96 1652.74,-308.32 1679.87,-267.67"/>
<polygon fill="midnightblue" stroke="midnightblue" points="1682.84,-269.53 1685.48,-259.27 1677.02,-265.64 1682.84,-269.53"/>
</g>
<!-- Node13 -->
<g id="node26" class="node">
<title>Node13</title>
<g id="a_node26"><a xlink:href="endian__conv_8c.html#af8d492c4e43d83c161cd2225a9697b6a" target="_top" xlink:title=" ">
<polygon fill="white" stroke="black" points="1778,-240 1778,-259 1856,-259 1856,-240 1778,-240"/>
<text text-anchor="middle" x="1817" y="-247" font-family="Helvetica,sans-Serif" font-size="10.00">endian_conv</text>
</a>
</g>
</g>
<!-- Node12&#45;&gt;Node13 -->
<g id="edge28" class="edge">
<title>Node12&#45;&gt;Node13</title>
<path fill="none" stroke="midnightblue" d="M1742.22,-249.5C1750.65,-249.5 1759.42,-249.5 1767.84,-249.5"/>
<polygon fill="midnightblue" stroke="midnightblue" points="1767.91,-253 1777.91,-249.5 1767.91,-246 1767.91,-253"/>
</g>
<!-- Node29 -->
<g id="node28" class="node">
<title>Node29</title>
<g id="a_node28"><a xlink:href="cmd__space__packet_8c.html#a3b7cf4c50d51882d730ad25b754259fd" target="_top" xlink:title="Time Indicator (TI) を設定">
<polygon fill="white" stroke="black" points="1352.5,-544 1352.5,-563 1420.5,-563 1420.5,-544 1352.5,-544"/>
<text text-anchor="middle" x="1386.5" y="-551" font-family="Helvetica,sans-Serif" font-size="10.00">CSP_set_ti</text>
</a>
</g>
</g>
<!-- Node28&#45;&gt;Node29 -->
<g id="edge30" class="edge">
<title>Node28&#45;&gt;Node29</title>
<path fill="none" stroke="midnightblue" d="M1056.13,-553.5C1121.85,-553.5 1268.68,-553.5 1342.04,-553.5"/>
<polygon fill="midnightblue" stroke="midnightblue" points="1342.32,-557 1352.32,-553.5 1342.32,-550 1342.32,-557"/>
</g>
<!-- Node29&#45;&gt;Node27 -->
<g id="edge31" class="edge">
<title>Node29&#45;&gt;Node27</title>
<path fill="none" stroke="midnightblue" d="M1420.63,-547.84C1433.1,-544.91 1447.13,-540.63 1459,-534.5 1485.73,-520.7 1511.67,-498 1529.06,-480.99"/>
<polygon fill="midnightblue" stroke="midnightblue" points="1531.83,-483.17 1536.43,-473.63 1526.88,-478.22 1531.83,-483.17"/>
</g>
<!-- Node31 -->
<g id="node30" class="node">
<title>Node31</title>
<g id="a_node30"><a xlink:href="common__cmd__packet__util_8c.html#af9f77cfe0b19d8078e79f1c32d9b2843" target="_top" xlink:title="Realtime command を生成">
<polygon fill="white" stroke="black" points="626.5,-378 626.5,-397 709.5,-397 709.5,-378 626.5,-378"/>
<text text-anchor="middle" x="668" y="-385" font-family="Helvetica,sans-Serif" font-size="10.00">CCP_form_rtc</text>
</a>
</g>
</g>
<!-- Node30&#45;&gt;Node31 -->
<g id="edge33" class="edge">
<title>Node30&#45;&gt;Node31</title>
<path fill="none" stroke="midnightblue" d="M565.24,-381.03C581.72,-380.63 599.74,-380.66 615.98,-381.13"/>
<polygon fill="midnightblue" stroke="midnightblue" points="616.24,-384.64 626.35,-381.5 616.48,-377.64 616.24,-384.64"/>
</g>
<!-- Node31&#45;&gt;Node17 -->
<g id="edge34" class="edge">
<title>Node31&#45;&gt;Node17</title>
<path fill="none" stroke="midnightblue" d="M694.27,-377.95C722.07,-367.44 766.96,-350.47 798.11,-338.69"/>
<polygon fill="midnightblue" stroke="midnightblue" points="799.59,-341.87 807.71,-335.06 797.11,-335.32 799.59,-341.87"/>
</g>
<!-- Node31&#45;&gt;Node30 -->
<g id="edge35" class="edge">
<title>Node31&#45;&gt;Node30</title>
<path fill="none" stroke="midnightblue" d="M626.35,-393.5C610.77,-394.17 592.58,-394.39 575.29,-394.16"/>
<polygon fill="midnightblue" stroke="midnightblue" points="575.3,-390.66 565.24,-393.97 575.17,-397.66 575.3,-390.66"/>
</g>
<!-- Node31&#45;&gt;Node32 -->
<g id="edge36" class="edge">
<title>Node31&#45;&gt;Node32</title>
<path fill="none" stroke="midnightblue" d="M700.23,-397.02C726.25,-404.96 763.52,-416.32 791.95,-424.98"/>
<polygon fill="midnightblue" stroke="midnightblue" points="791.02,-428.36 801.6,-427.93 793.06,-421.66 791.02,-428.36"/>
</g>
<!-- Node32&#45;&gt;Node25 -->
<g id="edge46" class="edge">
<title>Node32&#45;&gt;Node25</title>
<path fill="none" stroke="midnightblue" d="M849.78,-447.21C870.04,-460.13 907.93,-482.92 943,-496.5 949.46,-499 956.36,-501.25 963.27,-503.25"/>
<polygon fill="midnightblue" stroke="midnightblue" points="962.8,-506.75 973.37,-505.99 964.64,-499.99 962.8,-506.75"/>
</g>
<!-- Node32&#45;&gt;Node28 -->
<g id="edge52" class="edge">
<title>Node32&#45;&gt;Node28</title>
<path fill="none" stroke="midnightblue" d="M847.63,-447.07C862.33,-458.38 887.12,-478 907,-496.5 924.03,-512.35 922.88,-522.83 943,-534.5 953.64,-540.67 966.22,-544.85 978.13,-547.67"/>
<polygon fill="midnightblue" stroke="midnightblue" points="977.42,-551.1 987.93,-549.74 978.87,-544.25 977.42,-551.1"/>
</g>
<!-- Node33 -->
<g id="node32" class="node">
<title>Node33</title>
<g id="a_node32"><a xlink:href="common__cmd__packet_8h.html#a53e55e3275bb17840514876c95203402" target="_top" xlink:title="共通部分の Header を構築">
<polygon fill="white" stroke="black" points="959.5,-430 959.5,-449 1084.5,-449 1084.5,-430 959.5,-430"/>
<text text-anchor="middle" x="1022" y="-437" font-family="Helvetica,sans-Serif" font-size="10.00">CCP_set_common_hdr</text>
</a>
</g>
</g>
<!-- Node32&#45;&gt;Node33 -->
<g id="edge37" class="edge">
<title>Node32&#45;&gt;Node33</title>
<path fill="none" stroke="midnightblue" d="M878.14,-437.96C899.27,-438.19 925.27,-438.47 949.27,-438.73"/>
<polygon fill="midnightblue" stroke="midnightblue" points="949.38,-442.23 959.42,-438.84 949.46,-435.23 949.38,-442.23"/>
</g>
<!-- Node49 -->
<g id="node37" class="node">
<title>Node49</title>
<g id="a_node37"><a xlink:href="common__cmd__packet_8h.html#a6ce61d959627cd955de389b10cadca90" target="_top" xlink:title="DEST_TYPE を設定">
<polygon fill="white" stroke="black" points="967,-468 967,-487 1077,-487 1077,-468 967,-468"/>
<text text-anchor="middle" x="1022" y="-475" font-family="Helvetica,sans-Serif" font-size="10.00">CCP_set_dest_type</text>
</a>
</g>
</g>
<!-- Node32&#45;&gt;Node49 -->
<g id="edge43" class="edge">
<title>Node32&#45;&gt;Node49</title>
<path fill="none" stroke="midnightblue" d="M878.14,-446.78C904.52,-452.45 938.5,-459.76 966.7,-465.82"/>
<polygon fill="midnightblue" stroke="midnightblue" points="966.29,-469.31 976.8,-468 967.76,-462.47 966.29,-469.31"/>
</g>
<!-- Node51 -->
<g id="node39" class="node">
<title>Node51</title>
<g id="a_node39"><a xlink:href="common__cmd__packet_8h.html#ad3a6d476c3b56794c35a15e3a1d0a395" target="_top" xlink:title="CMD ID を設定">
<polygon fill="white" stroke="black" points="986.5,-392 986.5,-411 1057.5,-411 1057.5,-392 986.5,-392"/>
<text text-anchor="middle" x="1022" y="-399" font-family="Helvetica,sans-Serif" font-size="10.00">CCP_set_id</text>
</a>
</g>
</g>
<!-- Node32&#45;&gt;Node51 -->
<g id="edge47" class="edge">
<title>Node32&#45;&gt;Node51</title>
<path fill="none" stroke="midnightblue" d="M878.14,-429.15C907.61,-423.45 946.57,-415.91 976.35,-410.14"/>
<polygon fill="midnightblue" stroke="midnightblue" points="977.33,-413.52 986.48,-408.18 976,-406.65 977.33,-413.52"/>
</g>
<!-- Node53 -->
<g id="node41" class="node">
<title>Node53</title>
<g id="a_node41"><a xlink:href="common__cmd__packet_8h.html#a07200400c567d95965dda94da0f55b67" target="_top" xlink:title="パラメタを設定">
<polygon fill="white" stroke="black" points="975.5,-354 975.5,-373 1068.5,-373 1068.5,-354 975.5,-354"/>
<text text-anchor="middle" x="1022" y="-361" font-family="Helvetica,sans-Serif" font-size="10.00">CCP_set_param</text>
</a>
</g>
</g>
<!-- Node32&#45;&gt;Node53 -->
<g id="edge50" class="edge">
<title>Node32&#45;&gt;Node53</title>
<path fill="none" stroke="midnightblue" d="M850.93,-427.89C871.55,-415.82 908.87,-395.15 943,-382.5 950.09,-379.87 957.67,-377.51 965.23,-375.41"/>
<polygon fill="midnightblue" stroke="midnightblue" points="966.32,-378.74 975.1,-372.8 964.53,-371.97 966.32,-378.74"/>
</g>
<!-- Node34 -->
<g id="node33" class="node">
<title>Node34</title>
<g id="a_node33"><a xlink:href="cmd__space__packet_8c.html#aa4f250d0b768ce918101f7959940b9da" target="_top" xlink:title="共通部分の Header を構築">
<polygon fill="white" stroke="red" points="1145,-430 1145,-449 1270,-449 1270,-430 1145,-430"/>
<text text-anchor="middle" x="1207.5" y="-437" font-family="Helvetica,sans-Serif" font-size="10.00">CSP_set_common_hdr</text>
</a>
</g>
</g>
<!-- Node33&#45;&gt;Node34 -->
<g id="edge38" class="edge">
<title>Node33&#45;&gt;Node34</title>
<path fill="none" stroke="midnightblue" d="M1084.61,-439.5C1100.65,-439.5 1118.07,-439.5 1134.59,-439.5"/>
<polygon fill="midnightblue" stroke="midnightblue" points="1134.74,-443 1144.74,-439.5 1134.74,-436 1134.74,-443"/>
</g>
<!-- Node35 -->
<g id="node34" class="node">
<title>Node35</title>
<g id="a_node34"><a xlink:href="cmd__space__packet_8c.html#a33b732036a8d1c3a212769b1c18e280f" target="_top" xlink:title="Secondary Header Flag を設定">
<polygon fill="white" stroke="red" points="1325,-392 1325,-411 1448,-411 1448,-392 1325,-392"/>
<text text-anchor="middle" x="1386.5" y="-399" font-family="Helvetica,sans-Serif" font-size="10.00">CSP_set_2nd_hdr_flag</text>
</a>
</g>
</g>
<!-- Node34&#45;&gt;Node35 -->
<g id="edge39" class="edge">
<title>Node34&#45;&gt;Node35</title>
<path fill="none" stroke="midnightblue" d="M1253.16,-429.91C1276.84,-424.83 1306.11,-418.54 1331.1,-413.18"/>
<polygon fill="midnightblue" stroke="midnightblue" points="1332.11,-416.54 1341.16,-411.02 1330.64,-409.7 1332.11,-416.54"/>
</g>
<!-- Node37 -->
<g id="node35" class="node">
<title>Node37</title>
<g id="a_node35"><a xlink:href="cmd__space__packet_8c.html#ac5e8d588a3737dc6c6d65defd0ef04bd" target="_top" xlink:title="Secondary Header Version No を設定">
<polygon fill="white" stroke="black" points="1326,-430 1326,-449 1447,-449 1447,-430 1326,-430"/>
<text text-anchor="middle" x="1386.5" y="-437" font-family="Helvetica,sans-Serif" font-size="10.00">CSP_set_2nd_hdr_ver</text>
</a>
</g>
</g>
<!-- Node34&#45;&gt;Node37 -->
<g id="edge40" class="edge">
<title>Node34&#45;&gt;Node37</title>
<path fill="none" stroke="midnightblue" d="M1270.41,-439.5C1284.99,-439.5 1300.63,-439.5 1315.53,-439.5"/>
<polygon fill="midnightblue" stroke="midnightblue" points="1315.71,-443 1325.71,-439.5 1315.71,-436 1315.71,-443"/>
</g>
<!-- Node38 -->
<g id="node36" class="node">
<title>Node38</title>
<g id="a_node36"><a xlink:href="cmd__space__packet_8c.html#ae4cd4ddfdcc558b8c205240147b6f4af" target="_top" xlink:title="APID を設定">
<polygon fill="white" stroke="red" points="1345.5,-354 1345.5,-373 1427.5,-373 1427.5,-354 1345.5,-354"/>
<text text-anchor="middle" x="1386.5" y="-361" font-family="Helvetica,sans-Serif" font-size="10.00">CSP_set_apid</text>
</a>
</g>
</g>
<!-- Node34&#45;&gt;Node38 -->
<g id="edge42" class="edge">
<title>Node34&#45;&gt;Node38</title>
<path fill="none" stroke="midnightblue" d="M1257.01,-429.92C1264.32,-427.45 1271.56,-424.36 1278,-420.5 1297.96,-408.55 1294,-394.38 1314,-382.5 1320.6,-378.58 1328.02,-375.45 1335.52,-372.96"/>
<polygon fill="midnightblue" stroke="midnightblue" points="1336.76,-376.24 1345.35,-370.04 1334.77,-369.53 1336.76,-376.24"/>
</g>
<!-- Node37&#45;&gt;Node27 -->
<g id="edge41" class="edge">
<title>Node37&#45;&gt;Node27</title>
<path fill="none" stroke="midnightblue" d="M1447.27,-446.47C1459.41,-447.88 1472.24,-449.38 1484.58,-450.82"/>
<polygon fill="midnightblue" stroke="midnightblue" points="1484.46,-454.33 1494.8,-452.01 1485.27,-447.37 1484.46,-454.33"/>
</g>
<!-- Node50 -->
<g id="node38" class="node">
<title>Node50</title>
<g id="a_node38"><a xlink:href="cmd__space__packet_8c.html#a4083ff1a9dbe5894cfacf756d02a50a4" target="_top" xlink:title="Destination Type を設定">
<polygon fill="white" stroke="black" points="1332,-468 1332,-487 1441,-487 1441,-468 1332,-468"/>
<text text-anchor="middle" x="1386.5" y="-475" font-family="Helvetica,sans-Serif" font-size="10.00">CSP_set_dest_type</text>
</a>
</g>
</g>
<!-- Node49&#45;&gt;Node50 -->
<g id="edge44" class="edge">
<title>Node49&#45;&gt;Node50</title>
<path fill="none" stroke="midnightblue" d="M1077.27,-477.5C1142.55,-477.5 1252.01,-477.5 1321.39,-477.5"/>
<polygon fill="midnightblue" stroke="midnightblue" points="1321.75,-481 1331.75,-477.5 1321.75,-474 1321.75,-481"/>
</g>
<!-- Node50&#45;&gt;Node27 -->
<g id="edge45" class="edge">
<title>Node50&#45;&gt;Node27</title>
<path fill="none" stroke="midnightblue" d="M1441.32,-471.23C1455.13,-469.62 1470.14,-467.87 1484.48,-466.2"/>
<polygon fill="midnightblue" stroke="midnightblue" points="1485.25,-469.63 1494.78,-465 1484.44,-462.68 1485.25,-469.63"/>
</g>
<!-- Node52 -->
<g id="node40" class="node">
<title>Node52</title>
<g id="a_node40"><a xlink:href="cmd__space__packet_8c.html#a80ab9fe9f6561b18ef7b5a11ea0005b4" target="_top" xlink:title="Command ID を設定">
<polygon fill="white" stroke="black" points="1159.5,-392 1159.5,-411 1255.5,-411 1255.5,-392 1159.5,-392"/>
<text text-anchor="middle" x="1207.5" y="-399" font-family="Helvetica,sans-Serif" font-size="10.00">CSP_set_cmd_id</text>
</a>
</g>
</g>
<!-- Node51&#45;&gt;Node52 -->
<g id="edge48" class="edge">
<title>Node51&#45;&gt;Node52</title>
<path fill="none" stroke="midnightblue" d="M1057.51,-401.5C1083.24,-401.5 1118.96,-401.5 1148.97,-401.5"/>
<polygon fill="midnightblue" stroke="midnightblue" points="1149.33,-405 1159.33,-401.5 1149.33,-398 1149.33,-405"/>
</g>
<!-- Node52&#45;&gt;Node27 -->
<g id="edge49" class="edge">
<title>Node52&#45;&gt;Node27</title>
<path fill="none" stroke="midnightblue" d="M1255.55,-392.41C1263.35,-389.86 1271.13,-386.61 1278,-382.5 1297.96,-370.55 1292.63,-353.69 1314,-344.5 1373.2,-319.04 1400.89,-316.63 1459,-344.5 1497.69,-363.06 1525.18,-406.82 1539.4,-434.41"/>
<polygon fill="midnightblue" stroke="midnightblue" points="1536.29,-436.02 1543.87,-443.42 1542.56,-432.91 1536.29,-436.02"/>
</g>
<!-- Node54 -->
<g id="node42" class="node">
<title>Node54</title>
<g id="a_node42"><a xlink:href="cmd__space__packet_8c.html#aebe0c42d5d5b6443c55709890b6ad093" target="_top" xlink:title="コマンドパラメタを設定">
<polygon fill="white" stroke="red" points="1161.5,-354 1161.5,-373 1253.5,-373 1253.5,-354 1161.5,-354"/>
<text text-anchor="middle" x="1207.5" y="-361" font-family="Helvetica,sans-Serif" font-size="10.00">CSP_set_param</text>
</a>
</g>
</g>
<!-- Node53&#45;&gt;Node54 -->
<g id="edge51" class="edge">
<title>Node53&#45;&gt;Node54</title>
<path fill="none" stroke="midnightblue" d="M1068.83,-363.5C1093.76,-363.5 1124.78,-363.5 1151.06,-363.5"/>
<polygon fill="midnightblue" stroke="midnightblue" points="1151.25,-367 1161.25,-363.5 1151.25,-360 1151.25,-367"/>
</g>
<!-- Node58&#45;&gt;Node22 -->
<g id="edge55" class="edge">
<title>Node58&#45;&gt;Node22</title>
<path fill="none" stroke="midnightblue" d="M905.75,-236.55C968.8,-239.26 1060.99,-243.23 1126.65,-246.06"/>
<polygon fill="midnightblue" stroke="midnightblue" points="1126.82,-249.57 1136.96,-246.5 1127.12,-242.58 1126.82,-249.57"/>
</g>
<!-- Node59 -->
<g id="node44" class="node">
<title>Node59</title>
<g id="a_node44"><a xlink:href="common__cmd__packet_8h.html#ac7f988d02cd49f16275dcb893b0e8fda" target="_top" xlink:title="先頭のパラメタのポインタを取得">
<polygon fill="white" stroke="black" points="960.5,-164 960.5,-183 1083.5,-183 1083.5,-164 960.5,-164"/>
<text text-anchor="middle" x="1022" y="-171" font-family="Helvetica,sans-Serif" font-size="10.00">CCP_get_param_head</text>
</a>
</g>
</g>
<!-- Node58&#45;&gt;Node59 -->
<g id="edge56" class="edge">
<title>Node58&#45;&gt;Node59</title>
<path fill="none" stroke="midnightblue" d="M871.59,-218.31C892.33,-210.04 918.87,-199.99 943,-192.5 951.04,-190.01 959.62,-187.63 968.05,-185.46"/>
<polygon fill="midnightblue" stroke="midnightblue" points="968.98,-188.83 977.83,-183.01 967.27,-182.05 968.98,-188.83"/>
</g>
<!-- Node60 -->
<g id="node45" class="node">
<title>Node60</title>
<g id="a_node45"><a xlink:href="cmd__space__packet_8c.html#a05169fb3461910d6b5b13a59a0026455" target="_top" xlink:title="コマンドパラメタの先頭ポインタを取得">
<polygon fill="white" stroke="black" points="1146.5,-164 1146.5,-183 1268.5,-183 1268.5,-164 1146.5,-164"/>
<text text-anchor="middle" x="1207.5" y="-171" font-family="Helvetica,sans-Serif" font-size="10.00">CSP_get_param_head</text>
</a>
</g>
</g>
<!-- Node59&#45;&gt;Node60 -->
<g id="edge57" class="edge">
<title>Node59&#45;&gt;Node60</title>
<path fill="none" stroke="midnightblue" d="M1083.59,-173.5C1100.44,-173.5 1118.87,-173.5 1136.21,-173.5"/>
<polygon fill="midnightblue" stroke="midnightblue" points="1136.28,-177 1146.28,-173.5 1136.28,-170 1136.28,-177"/>
</g>
<!-- Node62 -->
<g id="node47" class="node">
<title>Node62</title>
<g id="a_node47"><a xlink:href="common__cmd__packet__util_8c.html#aa22556c98b0b1a9dba15f2c8076828a9" target="_top" xlink:title="Param Generator でエラーを発生した際に呼ぶエラー保存関数">
<polygon fill="white" stroke="black" points="954,-0.5 954,-30.5 1090,-30.5 1090,-0.5 954,-0.5"/>
<text text-anchor="start" x="962" y="-18.5" font-family="Helvetica,sans-Serif" font-size="10.00">CCP_raise_err_at_param</text>
<text text-anchor="middle" x="1022" y="-7.5" font-family="Helvetica,sans-Serif" font-size="10.00">_generator_</text>
</a>
</g>
</g>
<!-- Node61&#45;&gt;Node62 -->
<g id="edge59" class="edge">
<title>Node61&#45;&gt;Node62</title>
<path fill="none" stroke="midnightblue" d="M724.78,-70.2C783.87,-59.29 877.61,-41.98 943.79,-29.76"/>
<polygon fill="midnightblue" stroke="midnightblue" points="944.56,-33.18 953.75,-27.92 943.29,-26.29 944.56,-33.18"/>
</g>
<!-- Node64 -->
<g id="node49" class="node">
<title>Node64</title>
<g id="a_node49"><a xlink:href="common__cmd__packet__util_8c.html#af6cd7310a97de047f27ee76828ba3097" target="_top" xlink:title="Param Generator で n byte のパラメタを登録">
<polygon fill="white" stroke="black" points="767,-101.5 767,-131.5 901,-131.5 901,-101.5 767,-101.5"/>
<text text-anchor="start" x="775" y="-119.5" font-family="Helvetica,sans-Serif" font-size="10.00">CCP_prepare_param_for</text>
<text text-anchor="middle" x="834" y="-108.5" font-family="Helvetica,sans-Serif" font-size="10.00">_packet_</text>
</a>
</g>
</g>
<!-- Node63&#45;&gt;Node64 -->
<g id="edge61" class="edge">
<title>Node63&#45;&gt;Node64</title>
<path fill="none" stroke="midnightblue" d="M408.15,-166.79C494.71,-156.55 660.01,-136.98 756.93,-125.5"/>
<polygon fill="midnightblue" stroke="midnightblue" points="757.44,-128.97 766.96,-124.32 756.62,-122.02 757.44,-128.97"/>
</g>
<!-- Node64&#45;&gt;Node19 -->
<g id="edge62" class="edge">
<title>Node64&#45;&gt;Node19</title>
<path fill="none" stroke="midnightblue" d="M901.01,-113.24C954.92,-111.37 1033.04,-110.43 1101,-116.5 1118.19,-118.04 1136.78,-120.95 1153.49,-124.05"/>
<polygon fill="midnightblue" stroke="midnightblue" points="1153.14,-127.55 1163.62,-125.99 1154.45,-120.67 1153.14,-127.55"/>
</g>
<!-- Node64&#45;&gt;Node12 -->
<g id="edge68" class="edge">
<title>Node64&#45;&gt;Node12</title>
<path fill="none" stroke="midnightblue" d="M895.37,-101.45C968.52,-84.56 1095.74,-59.5 1206.5,-59.5 1206.5,-59.5 1206.5,-59.5 1387.5,-59.5 1517.14,-59.5 1637.18,-184.99 1677.6,-232"/>
<polygon fill="midnightblue" stroke="midnightblue" points="1675.08,-234.44 1684.2,-239.82 1680.42,-229.92 1675.08,-234.44"/>
</g>
<!-- Node64&#45;&gt;Node59 -->
<g id="edge66" class="edge">
<title>Node64&#45;&gt;Node59</title>
<path fill="none" stroke="midnightblue" d="M874.7,-131.53C894.97,-138.94 920.13,-147.71 943,-154.5 951.16,-156.92 959.87,-159.27 968.4,-161.44"/>
<polygon fill="midnightblue" stroke="midnightblue" points="967.74,-164.89 978.29,-163.91 969.43,-158.09 967.74,-164.89"/>
</g>
<!-- Node64&#45;&gt;Node62 -->
<g id="edge67" class="edge">
<title>Node64&#45;&gt;Node62</title>
<path fill="none" stroke="midnightblue" d="M856.71,-101.43C882.98,-83.34 925.83,-54.31 943,-45.5 950.78,-41.5 959.23,-37.73 967.59,-34.28"/>
<polygon fill="midnightblue" stroke="midnightblue" points="968.97,-37.5 976.96,-30.55 966.37,-31 968.97,-37.5"/>
</g>
<!-- Node65 -->
<g id="node50" class="node">
<title>Node65</title>
<g id="a_node50"><a xlink:href="common__cmd__packet__util_8c.html#ac84562eae726befc82b1dbcd8a60c4c1" target="_top" xlink:title="CCP パラメタ開始位置に対する n 番目の引数の offset を計算する">
<polygon fill="white" stroke="black" points="954,-126 954,-145 1090,-145 1090,-126 954,-126"/>
<text text-anchor="middle" x="1022" y="-133" font-family="Helvetica,sans-Serif" font-size="10.00">CCP_calc_param_offset_</text>
</a>
</g>
</g>
<!-- Node64&#45;&gt;Node65 -->
<g id="edge63" class="edge">
<title>Node64&#45;&gt;Node65</title>
<path fill="none" stroke="midnightblue" d="M901.1,-123.25C914.88,-124.66 929.52,-126.16 943.67,-127.6"/>
<polygon fill="midnightblue" stroke="midnightblue" points="943.55,-131.11 953.86,-128.64 944.27,-124.14 943.55,-131.11"/>
</g>
<!-- Node65&#45;&gt;Node19 -->
<g id="edge65" class="edge">
<title>Node65&#45;&gt;Node19</title>
<path fill="none" stroke="midnightblue" d="M1090.03,-135.5C1102.31,-135.5 1115.22,-135.5 1127.81,-135.5"/>
<polygon fill="midnightblue" stroke="midnightblue" points="1127.81,-139 1137.81,-135.5 1127.81,-132 1127.81,-139"/>
</g>
<!-- Node65&#45;&gt;Node22 -->
<g id="edge64" class="edge">
<title>Node65&#45;&gt;Node22</title>
<path fill="none" stroke="midnightblue" d="M1079.48,-145.13C1086.99,-147.58 1094.37,-150.65 1101,-154.5 1121.12,-166.17 1119.97,-176.65 1137,-192.5 1152.7,-207.12 1171.58,-222.47 1185.7,-233.56"/>
<polygon fill="midnightblue" stroke="midnightblue" points="1183.76,-236.48 1193.8,-239.86 1188.06,-230.96 1183.76,-236.48"/>
</g>
</g>
</svg>
