<?xml version="1.0" encoding="UTF-8" standalone="no"?>
<!DOCTYPE svg PUBLIC "-//W3C//DTD SVG 1.1//EN"
 "http://www.w3.org/Graphics/SVG/1.1/DTD/svg11.dtd">
<!-- Generated by graphviz version 2.43.0 (0)
 -->
<!-- Title: BCE_reset_combiner_info Pages: 1 -->
<svg width="328pt" height="66pt"
 viewBox="0.00 0.00 328.00 66.00" xmlns="http://www.w3.org/2000/svg" xmlns:xlink="http://www.w3.org/1999/xlink">
<g id="graph0" class="graph" transform="scale(1 1) rotate(0) translate(4 62)">
<title>BCE_reset_combiner_info</title>
<polygon fill="white" stroke="transparent" points="-4,4 -4,-62 324,-62 324,4 -4,4"/>
<!-- Node1 -->
<g id="node1" class="node">
<title>Node1</title>
<g id="a_node1"><a xlink:title=" ">
<polygon fill="#bfbfbf" stroke="black" points="0,-19.5 0,-38.5 141,-38.5 141,-19.5 0,-19.5"/>
<text text-anchor="middle" x="70.5" y="-26.5" font-family="Helvetica,sans-Serif" font-size="10.00">BCE_reset_combiner_info</text>
</a>
</g>
</g>
<!-- Node2 -->
<g id="node2" class="node">
<title>Node2</title>
<g id="a_node2"><a xlink:href="block__command__executor_8c.html#a314a5503ec3307e3e4049d32e54399ee" target="_top" xlink:title=" ">
<polygon fill="white" stroke="black" points="177,-38.5 177,-57.5 320,-57.5 320,-38.5 177,-38.5"/>
<text text-anchor="middle" x="248.5" y="-45.5" font-family="Helvetica,sans-Serif" font-size="10.00">BCE_get_bc_exe_params_</text>
</a>
</g>
</g>
<!-- Node1&#45;&gt;Node2 -->
<g id="edge1" class="edge">
<title>Node1&#45;&gt;Node2</title>
<path fill="none" stroke="midnightblue" d="M141.06,-36.51C149.49,-37.42 158.15,-38.35 166.72,-39.28"/>
<polygon fill="midnightblue" stroke="midnightblue" points="166.4,-42.76 176.71,-40.36 167.15,-35.81 166.4,-42.76"/>
</g>
<!-- Node3 -->
<g id="node3" class="node">
<title>Node3</title>
<g id="a_node3"><a xlink:href="block__command__executor_8c.html#a458f942c6bfdc924ca92dbf06e1eefdc" target="_top" xlink:title=" ">
<polygon fill="white" stroke="black" points="177,-0.5 177,-19.5 320,-19.5 320,-0.5 177,-0.5"/>
<text text-anchor="middle" x="248.5" y="-7.5" font-family="Helvetica,sans-Serif" font-size="10.00">BCE_set_bc_exe_params_</text>
</a>
</g>
</g>
<!-- Node1&#45;&gt;Node3 -->
<g id="edge2" class="edge">
<title>Node1&#45;&gt;Node3</title>
<path fill="none" stroke="midnightblue" d="M141.06,-21.49C149.49,-20.58 158.15,-19.65 166.72,-18.72"/>
<polygon fill="midnightblue" stroke="midnightblue" points="167.15,-22.19 176.71,-17.64 166.4,-15.24 167.15,-22.19"/>
</g>
</g>
</svg>
