<?xml version="1.0" encoding="UTF-8" standalone="no"?>
<!DOCTYPE svg PUBLIC "-//W3C//DTD SVG 1.1//EN"
 "http://www.w3.org/Graphics/SVG/1.1/DTD/svg11.dtd">
<!-- Generated by graphviz version 2.43.0 (0)
 -->
<!-- Title: Cmd_BCT_ROTATE_BLOCK Pages: 1 -->
<svg width="1587pt" height="515pt"
 viewBox="0.00 0.00 1587.00 514.50" xmlns="http://www.w3.org/2000/svg" xmlns:xlink="http://www.w3.org/1999/xlink">
<g id="graph0" class="graph" transform="scale(1 1) rotate(0) translate(4 510.5)">
<title>Cmd_BCT_ROTATE_BLOCK</title>
<polygon fill="white" stroke="transparent" points="-4,4 -4,-510.5 1583,-510.5 1583,4 -4,4"/>
<!-- Node1 -->
<g id="node1" class="node">
<title>Node1</title>
<g id="a_node1"><a xlink:title=" ">
<polygon fill="#bfbfbf" stroke="black" points="0,-57.5 0,-76.5 145,-76.5 145,-57.5 0,-57.5"/>
<text text-anchor="middle" x="72.5" y="-64.5" font-family="Helvetica,sans-Serif" font-size="10.00">Cmd_BCT_ROTATE_BLOCK</text>
</a>
</g>
</g>
<!-- Node2 -->
<g id="node2" class="node">
<title>Node2</title>
<g id="a_node2"><a xlink:href="block__command__executor_8c.html#a03e45cd5863186a6a2991cc33c4cfa65" target="_top" xlink:title="rotator の実行主体">
<polygon fill="white" stroke="black" points="181,-221.5 181,-240.5 315,-240.5 315,-221.5 181,-221.5"/>
<text text-anchor="middle" x="248" y="-228.5" font-family="Helvetica,sans-Serif" font-size="10.00">BCT_rotate_block_cmd_</text>
</a>
</g>
</g>
<!-- Node1&#45;&gt;Node2 -->
<g id="edge1" class="edge">
<title>Node1&#45;&gt;Node2</title>
<path fill="none" stroke="midnightblue" d="M83.58,-76.53C112.09,-103.47 193.56,-180.49 229.55,-214.51"/>
<polygon fill="midnightblue" stroke="midnightblue" points="227.22,-217.12 236.89,-221.45 232.03,-212.03 227.22,-217.12"/>
</g>
<!-- Node22 -->
<g id="node22" class="node">
<title>Node22</title>
<g id="a_node22"><a xlink:href="common__tlm__cmd__packet_8h.html#a38431270f66de04dc2e058d47635a084" target="_top" xlink:title="CMD パラメタ長を取得">
<polygon fill="white" stroke="black" points="721,-76.5 721,-95.5 835,-95.5 835,-76.5 721,-76.5"/>
<text text-anchor="middle" x="778" y="-83.5" font-family="Helvetica,sans-Serif" font-size="10.00">CCP_get_param_len</text>
</a>
</g>
</g>
<!-- Node1&#45;&gt;Node22 -->
<g id="edge50" class="edge">
<title>Node1&#45;&gt;Node22</title>
<path fill="none" stroke="midnightblue" d="M145.15,-68.94C281.84,-72.63 578.01,-80.63 710.54,-84.21"/>
<polygon fill="midnightblue" stroke="midnightblue" points="710.47,-87.7 720.56,-84.48 710.66,-80.71 710.47,-87.7"/>
</g>
<!-- Node43 -->
<g id="node43" class="node">
<title>Node43</title>
<g id="a_node43"><a xlink:href="common__tlm__cmd__packet_8h.html#ad98f8912cc698e43db15c2bd8ea0c170" target="_top" xlink:title="先頭のパラメタのポインタを取得">
<polygon fill="white" stroke="black" points="186.5,-38.5 186.5,-57.5 309.5,-57.5 309.5,-38.5 186.5,-38.5"/>
<text text-anchor="middle" x="248" y="-45.5" font-family="Helvetica,sans-Serif" font-size="10.00">CCP_get_param_head</text>
</a>
</g>
</g>
<!-- Node1&#45;&gt;Node43 -->
<g id="edge48" class="edge">
<title>Node1&#45;&gt;Node43</title>
<path fill="none" stroke="midnightblue" d="M145.07,-59.16C155.36,-58.04 165.95,-56.88 176.22,-55.75"/>
<polygon fill="midnightblue" stroke="midnightblue" points="176.81,-59.21 186.37,-54.64 176.05,-52.25 176.81,-59.21"/>
</g>
<!-- Node45 -->
<g id="node45" class="node">
<title>Node45</title>
<g id="a_node45"><a xlink:href="endian__memcpy_8c.html#a153793f6939a1cb0f6bc3968d953f31e" target="_top" xlink:title=" ">
<polygon fill="white" stroke="black" points="199,-0.5 199,-19.5 297,-19.5 297,-0.5 199,-0.5"/>
<text text-anchor="middle" x="248" y="-7.5" font-family="Helvetica,sans-Serif" font-size="10.00">endian_memcpy</text>
</a>
</g>
</g>
<!-- Node1&#45;&gt;Node45 -->
<g id="edge51" class="edge">
<title>Node1&#45;&gt;Node45</title>
<path fill="none" stroke="midnightblue" d="M99.42,-57.35C121.1,-49.4 152.91,-38 181,-29 187.95,-26.77 195.35,-24.53 202.58,-22.4"/>
<polygon fill="midnightblue" stroke="midnightblue" points="203.66,-25.73 212.29,-19.57 201.71,-19 203.66,-25.73"/>
</g>
<!-- Node3 -->
<g id="node3" class="node">
<title>Node3</title>
<g id="a_node3"><a xlink:href="block__command__executor_8c.html#a314a5503ec3307e3e4049d32e54399ee" target="_top" xlink:title=" ">
<polygon fill="white" stroke="black" points="354.5,-240.5 354.5,-259.5 497.5,-259.5 497.5,-240.5 354.5,-240.5"/>
<text text-anchor="middle" x="426" y="-247.5" font-family="Helvetica,sans-Serif" font-size="10.00">BCE_get_bc_exe_params_</text>
</a>
</g>
</g>
<!-- Node2&#45;&gt;Node3 -->
<g id="edge2" class="edge">
<title>Node2&#45;&gt;Node3</title>
<path fill="none" stroke="midnightblue" d="M315.04,-238.13C324.59,-239.16 334.52,-240.23 344.32,-241.29"/>
<polygon fill="midnightblue" stroke="midnightblue" points="344.15,-244.79 354.47,-242.39 344.91,-237.83 344.15,-244.79"/>
</g>
<!-- Node4 -->
<g id="node4" class="node">
<title>Node4</title>
<g id="a_node4"><a xlink:href="block__command__executor_8c.html#a458f942c6bfdc924ca92dbf06e1eefdc" target="_top" xlink:title=" ">
<polygon fill="white" stroke="black" points="354.5,-202.5 354.5,-221.5 497.5,-221.5 497.5,-202.5 354.5,-202.5"/>
<text text-anchor="middle" x="426" y="-209.5" font-family="Helvetica,sans-Serif" font-size="10.00">BCE_set_bc_exe_params_</text>
</a>
</g>
</g>
<!-- Node2&#45;&gt;Node4 -->
<g id="edge3" class="edge">
<title>Node2&#45;&gt;Node4</title>
<path fill="none" stroke="midnightblue" d="M315.04,-223.87C324.59,-222.84 334.52,-221.77 344.32,-220.71"/>
<polygon fill="midnightblue" stroke="midnightblue" points="344.91,-224.17 354.47,-219.61 344.15,-217.21 344.91,-224.17"/>
</g>
<!-- Node5 -->
<g id="node5" class="node">
<title>Node5</title>
<g id="a_node5"><a xlink:href="block__command__table_8c.html#ad05cc77d3ebebc7fabf203a7cf44ac52" target="_top" xlink:title="enum変換用関数">
<polygon fill="white" stroke="black" points="365.5,-153 365.5,-183 486.5,-183 486.5,-153 365.5,-153"/>
<text text-anchor="start" x="373.5" y="-171" font-family="Helvetica,sans-Serif" font-size="10.00">BCT_convert_bct_ack</text>
<text text-anchor="middle" x="426" y="-160" font-family="Helvetica,sans-Serif" font-size="10.00">_to_ctcp_exec_sts</text>
</a>
</g>
</g>
<!-- Node2&#45;&gt;Node5 -->
<g id="edge4" class="edge">
<title>Node2&#45;&gt;Node5</title>
<path fill="none" stroke="midnightblue" d="M274.07,-221.41C294.67,-213.6 324.64,-202.36 351,-193 357.04,-190.86 363.37,-188.65 369.68,-186.48"/>
<polygon fill="midnightblue" stroke="midnightblue" points="371.2,-189.66 379.53,-183.12 368.93,-183.04 371.2,-189.66"/>
</g>
<!-- Node6 -->
<g id="node6" class="node">
<title>Node6</title>
<g id="a_node6"><a xlink:href="block__command__table_8c.html#add2db8412ac7b28b2e61d99638daaac5" target="_top" xlink:title="BCT の length の getter">
<polygon fill="white" stroke="black" points="371,-114.5 371,-133.5 481,-133.5 481,-114.5 371,-114.5"/>
<text text-anchor="middle" x="426" y="-121.5" font-family="Helvetica,sans-Serif" font-size="10.00">BCT_get_bc_length</text>
</a>
</g>
</g>
<!-- Node2&#45;&gt;Node6 -->
<g id="edge5" class="edge">
<title>Node2&#45;&gt;Node6</title>
<path fill="none" stroke="midnightblue" d="M257.53,-221.31C273.86,-203.36 311.47,-164.84 351,-144 356.2,-141.26 361.82,-138.87 367.54,-136.78"/>
<polygon fill="midnightblue" stroke="midnightblue" points="368.84,-140.04 377.23,-133.57 366.64,-133.4 368.84,-140.04"/>
</g>
<!-- Node7 -->
<g id="node7" class="node">
<title>Node7</title>
<g id="a_node7"><a xlink:href="block__command__table_8c.html#ae68a5f1f378750e90316a78de887f554" target="_top" xlink:title="保存データをCTCPにコピーする.">
<polygon fill="white" stroke="black" points="381.5,-353.5 381.5,-372.5 470.5,-372.5 470.5,-353.5 381.5,-353.5"/>
<text text-anchor="middle" x="426" y="-360.5" font-family="Helvetica,sans-Serif" font-size="10.00">BCT_load_cmd</text>
</a>
</g>
</g>
<!-- Node2&#45;&gt;Node7 -->
<g id="edge6" class="edge">
<title>Node2&#45;&gt;Node7</title>
<path fill="none" stroke="midnightblue" d="M261.94,-240.71C292.07,-263.31 367.15,-319.61 403.96,-347.22"/>
<polygon fill="midnightblue" stroke="midnightblue" points="401.94,-350.08 412.04,-353.28 406.14,-344.48 401.94,-350.08"/>
</g>
<!-- Node10 -->
<g id="node10" class="node">
<title>Node10</title>
<g id="a_node10"><a xlink:href="block__command__table_8c.html#a2843560950369ecdb9e35801795b54db" target="_top" xlink:title="BCT_Pos* を引数から作る">
<polygon fill="white" stroke="black" points="380.5,-391.5 380.5,-410.5 471.5,-410.5 471.5,-391.5 380.5,-391.5"/>
<text text-anchor="middle" x="426" y="-398.5" font-family="Helvetica,sans-Serif" font-size="10.00">BCT_make_pos</text>
</a>
</g>
</g>
<!-- Node2&#45;&gt;Node10 -->
<g id="edge9" class="edge">
<title>Node2&#45;&gt;Node10</title>
<path fill="none" stroke="midnightblue" d="M252.59,-240.55C263.17,-267.37 296.96,-343.91 351,-382 356.96,-386.2 363.78,-389.48 370.81,-392.03"/>
<polygon fill="midnightblue" stroke="midnightblue" points="369.87,-395.4 380.46,-395.08 371.98,-388.73 369.87,-395.4"/>
</g>
<!-- Node11 -->
<g id="node11" class="node">
<title>Node11</title>
<g id="a_node11"><a xlink:href="packet__handler_8c.html#ac0da2642bb88c1a3073922569184413d" target="_top" xlink:title=" ">
<polygon fill="white" stroke="black" points="360.5,-278.5 360.5,-297.5 491.5,-297.5 491.5,-278.5 360.5,-278.5"/>
<text text-anchor="middle" x="426" y="-285.5" font-family="Helvetica,sans-Serif" font-size="10.00">PH_dispatch_command</text>
</a>
</g>
</g>
<!-- Node2&#45;&gt;Node11 -->
<g id="edge11" class="edge">
<title>Node2&#45;&gt;Node11</title>
<path fill="none" stroke="midnightblue" d="M272.66,-240.62C293.18,-248.77 323.77,-260.46 351,-269 358.56,-271.37 366.63,-273.67 374.55,-275.81"/>
<polygon fill="midnightblue" stroke="midnightblue" points="373.89,-279.25 384.46,-278.41 375.67,-272.48 373.89,-279.25"/>
</g>
<!-- Node8 -->
<g id="node8" class="node">
<title>Node8</title>
<g id="a_node8"><a xlink:href="block__command__table_8c.html#ae25a57a4a97b49bf13a4caa0b5e8ff76" target="_top" xlink:title="BCT_Pos* の validate">
<polygon fill="white" stroke="black" points="546,-391.5 546,-410.5 660,-410.5 660,-391.5 546,-391.5"/>
<text text-anchor="middle" x="603" y="-398.5" font-family="Helvetica,sans-Serif" font-size="10.00">BCT_check_position</text>
</a>
</g>
</g>
<!-- Node7&#45;&gt;Node8 -->
<g id="edge7" class="edge">
<title>Node7&#45;&gt;Node8</title>
<path fill="none" stroke="midnightblue" d="M470.71,-372.49C494.2,-377.59 523.36,-383.92 548.23,-389.32"/>
<polygon fill="midnightblue" stroke="midnightblue" points="547.73,-392.8 558.24,-391.5 549.21,-385.96 547.73,-392.8"/>
</g>
<!-- Node9 -->
<g id="node9" class="node">
<title>Node9</title>
<g id="a_node9"><a xlink:href="block__command__table_8c.html#aad2653a11ef1264594f19869ed916daa" target="_top" xlink:title=" ">
<polygon fill="white" stroke="black" points="537,-353.5 537,-372.5 669,-372.5 669,-353.5 537,-353.5"/>
<text text-anchor="middle" x="603" y="-360.5" font-family="Helvetica,sans-Serif" font-size="10.00">BCT_get_bc_cmd_data_</text>
</a>
</g>
</g>
<!-- Node7&#45;&gt;Node9 -->
<g id="edge8" class="edge">
<title>Node7&#45;&gt;Node9</title>
<path fill="none" stroke="midnightblue" d="M470.71,-363C487.61,-363 507.46,-363 526.53,-363"/>
<polygon fill="midnightblue" stroke="midnightblue" points="526.71,-366.5 536.71,-363 526.71,-359.5 526.71,-366.5"/>
</g>
<!-- Node10&#45;&gt;Node8 -->
<g id="edge10" class="edge">
<title>Node10&#45;&gt;Node8</title>
<path fill="none" stroke="midnightblue" d="M471.61,-401C491.11,-401 514.38,-401 535.82,-401"/>
<polygon fill="midnightblue" stroke="midnightblue" points="535.86,-404.5 545.86,-401 535.85,-397.5 535.86,-404.5"/>
</g>
<!-- Node12 -->
<g id="node12" class="node">
<title>Node12</title>
<g id="a_node12"><a xlink:href="command__analyze_8c.html#a2bfd90a24682bbb8a68779d95ef31ee0" target="_top" xlink:title="コマンド実行の本体">
<polygon fill="white" stroke="black" points="553,-159.5 553,-178.5 653,-178.5 653,-159.5 553,-159.5"/>
<text text-anchor="middle" x="603" y="-166.5" font-family="Helvetica,sans-Serif" font-size="10.00">CA_execute_cmd</text>
</a>
</g>
</g>
<!-- Node11&#45;&gt;Node12 -->
<g id="edge12" class="edge">
<title>Node11&#45;&gt;Node12</title>
<path fill="none" stroke="midnightblue" d="M479.86,-278.43C487.24,-275.97 494.51,-272.88 501,-269 521.25,-256.91 520.39,-246.75 537,-230 552.34,-214.53 570.47,-197.63 583.68,-185.55"/>
<polygon fill="midnightblue" stroke="midnightblue" points="586.15,-188.02 591.19,-178.7 581.44,-182.85 586.15,-188.02"/>
</g>
<!-- Node38 -->
<g id="node38" class="node">
<title>Node38</title>
<g id="a_node38"><a xlink:href="common__tlm__cmd__packet_8h.html#a48c6826da1a25e4e710202c1f75ec71e" target="_top" xlink:title="宛先 (TCPではAPID) を取得">
<polygon fill="white" stroke="black" points="729,-315.5 729,-334.5 827,-334.5 827,-315.5 729,-315.5"/>
<text text-anchor="middle" x="778" y="-322.5" font-family="Helvetica,sans-Serif" font-size="10.00">CCP_get_dest_id</text>
</a>
</g>
</g>
<!-- Node11&#45;&gt;Node38 -->
<g id="edge42" class="edge">
<title>Node11&#45;&gt;Node38</title>
<path fill="none" stroke="midnightblue" d="M479.75,-297.55C497.85,-300.58 518.27,-303.73 537,-306 598.79,-313.49 669.9,-318.69 718.58,-321.74"/>
<polygon fill="midnightblue" stroke="midnightblue" points="718.42,-325.23 728.61,-322.36 718.85,-318.25 718.42,-325.23"/>
</g>
<!-- Node40 -->
<g id="node40" class="node">
<title>Node40</title>
<g id="a_node40"><a xlink:href="common__tlm__cmd__packet_8h.html#ab4428b5f4c839c6e0ce2b72e01ccd7db" target="_top" xlink:title="tlm か cmd かを判断">
<polygon fill="white" stroke="black" points="554,-239.5 554,-258.5 652,-258.5 652,-239.5 554,-239.5"/>
<text text-anchor="middle" x="603" y="-246.5" font-family="Helvetica,sans-Serif" font-size="10.00">CTCP_get_tc_dsc</text>
</a>
</g>
</g>
<!-- Node11&#45;&gt;Node40 -->
<g id="edge44" class="edge">
<title>Node11&#45;&gt;Node40</title>
<path fill="none" stroke="midnightblue" d="M469.81,-278.46C493.84,-273.1 524.02,-266.38 549.47,-260.71"/>
<polygon fill="midnightblue" stroke="midnightblue" points="550.33,-264.1 559.33,-258.51 548.81,-257.27 550.33,-264.1"/>
</g>
<!-- Node42 -->
<g id="node42" class="node">
<title>Node42</title>
<g id="a_node42"><a xlink:href="user__packet__handler_8c.html#a1d8901bfc5a2d7cfec42de995ad728b3" target="_top" xlink:title="PHのcmd_router_のユーザー処理関数">
<polygon fill="white" stroke="black" points="544.5,-277.5 544.5,-296.5 661.5,-296.5 661.5,-277.5 544.5,-277.5"/>
<text text-anchor="middle" x="603" y="-284.5" font-family="Helvetica,sans-Serif" font-size="10.00">PH_user_cmd_router</text>
</a>
</g>
</g>
<!-- Node11&#45;&gt;Node42 -->
<g id="edge46" class="edge">
<title>Node11&#45;&gt;Node42</title>
<path fill="none" stroke="midnightblue" d="M491.67,-287.63C505.53,-287.55 520.22,-287.47 534.21,-287.39"/>
<polygon fill="midnightblue" stroke="midnightblue" points="534.26,-290.89 544.24,-287.33 534.22,-283.89 534.26,-290.89"/>
</g>
<!-- Node13 -->
<g id="node13" class="node">
<title>Node13</title>
<g id="a_node13"><a xlink:href="command__analyze_8c.html#ae878a1a8ce00cc7468fbdd5bc5aba864" target="_top" xlink:title="コマンドパラメタ長をチェックする">
<polygon fill="white" stroke="black" points="705,-159.5 705,-178.5 851,-178.5 851,-159.5 705,-159.5"/>
<text text-anchor="middle" x="778" y="-166.5" font-family="Helvetica,sans-Serif" font-size="10.00">CA_ckeck_cmd_param_len</text>
</a>
</g>
</g>
<!-- Node12&#45;&gt;Node13 -->
<g id="edge13" class="edge">
<title>Node12&#45;&gt;Node13</title>
<path fill="none" stroke="midnightblue" d="M653.11,-169C666.05,-169 680.38,-169 694.56,-169"/>
<polygon fill="midnightblue" stroke="midnightblue" points="694.83,-172.5 704.83,-169 694.83,-165.5 694.83,-172.5"/>
</g>
<!-- Node20 -->
<g id="node20" class="node">
<title>Node20</title>
<g id="a_node20"><a xlink:href="common__tlm__cmd__packet_8h.html#aada6263b578341e6ef88174fbdfc5dd7" target="_top" xlink:title="CMD ID を取得">
<polygon fill="white" stroke="black" points="742.5,-120.5 742.5,-139.5 813.5,-139.5 813.5,-120.5 742.5,-120.5"/>
<text text-anchor="middle" x="778" y="-127.5" font-family="Helvetica,sans-Serif" font-size="10.00">CCP_get_id</text>
</a>
</g>
</g>
<!-- Node12&#45;&gt;Node20 -->
<g id="edge22" class="edge">
<title>Node12&#45;&gt;Node20</title>
<path fill="none" stroke="midnightblue" d="M646.32,-159.46C672.49,-153.56 706.03,-146 732.58,-140.01"/>
<polygon fill="midnightblue" stroke="midnightblue" points="733.39,-143.42 742.38,-137.8 731.85,-136.59 733.39,-143.42"/>
</g>
<!-- Node12&#45;&gt;Node22 -->
<g id="edge24" class="edge">
<title>Node12&#45;&gt;Node22</title>
<path fill="none" stroke="midnightblue" d="M618.6,-159.45C637.83,-147.14 672.99,-125.59 705,-111 714.76,-106.55 725.56,-102.41 735.77,-98.83"/>
<polygon fill="midnightblue" stroke="midnightblue" points="736.98,-102.12 745.31,-95.58 734.72,-95.49 736.98,-102.12"/>
</g>
<!-- Node24 -->
<g id="node24" class="node">
<title>Node24</title>
<g id="a_node24"><a xlink:href="event__logger_8c.html#a25a74a48375dfc1f3f80be68e0ac00ea" target="_top" xlink:title="イベント (EL_Event) を記録">
<polygon fill="white" stroke="black" points="729.5,-200.5 729.5,-219.5 826.5,-219.5 826.5,-200.5 729.5,-200.5"/>
<text text-anchor="middle" x="778" y="-207.5" font-family="Helvetica,sans-Serif" font-size="10.00">EL_record_event</text>
</a>
</g>
</g>
<!-- Node12&#45;&gt;Node24 -->
<g id="edge26" class="edge">
<title>Node12&#45;&gt;Node24</title>
<path fill="none" stroke="midnightblue" d="M644.12,-178.51C668.82,-184.36 700.67,-191.91 727,-198.15"/>
<polygon fill="midnightblue" stroke="midnightblue" points="726.26,-201.57 736.79,-200.47 727.87,-194.76 726.26,-201.57"/>
</g>
<!-- Node14 -->
<g id="node14" class="node">
<title>Node14</title>
<g id="a_node14"><a xlink:href="command__analyze_8c.html#ac95557475d470f986e1eb46befbc2ae9" target="_top" xlink:title="最小コマンドパラメタ長を取得する">
<polygon fill="white" stroke="black" points="887,-121.5 887,-140.5 1045,-140.5 1045,-121.5 887,-121.5"/>
<text text-anchor="middle" x="966" y="-128.5" font-family="Helvetica,sans-Serif" font-size="10.00">CA_get_cmd_param_min_len</text>
</a>
</g>
</g>
<!-- Node13&#45;&gt;Node14 -->
<g id="edge14" class="edge">
<title>Node13&#45;&gt;Node14</title>
<path fill="none" stroke="midnightblue" d="M825.94,-159.41C851.03,-154.28 882.12,-147.93 908.53,-142.54"/>
<polygon fill="midnightblue" stroke="midnightblue" points="909.3,-145.95 918.4,-140.52 907.9,-139.09 909.3,-145.95"/>
</g>
<!-- Node17 -->
<g id="node17" class="node">
<title>Node17</title>
<g id="a_node17"><a xlink:href="command__analyze_8c.html#a8b245c2a85084ae21588acd4deb3b3d6" target="_top" xlink:title="RAW パラメタを持っているか？">
<polygon fill="white" stroke="black" points="909.5,-197.5 909.5,-216.5 1022.5,-216.5 1022.5,-197.5 909.5,-197.5"/>
<text text-anchor="middle" x="966" y="-204.5" font-family="Helvetica,sans-Serif" font-size="10.00">CA_has_raw_param</text>
</a>
</g>
</g>
<!-- Node13&#45;&gt;Node17 -->
<g id="edge17" class="edge">
<title>Node13&#45;&gt;Node17</title>
<path fill="none" stroke="midnightblue" d="M825.94,-178.59C851.03,-183.72 882.12,-190.07 908.53,-195.46"/>
<polygon fill="midnightblue" stroke="midnightblue" points="907.9,-198.91 918.4,-197.48 909.3,-192.05 907.9,-198.91"/>
</g>
<!-- Node19 -->
<g id="node19" class="node">
<title>Node19</title>
<g id="a_node19"><a xlink:href="common__tlm__cmd__packet_8h.html#a0cb576a77e94553c22d9cb70a6fd50f1" target="_top" xlink:title="CMD パラメタ長の最大値を取得">
<polygon fill="white" stroke="black" points="895.5,-159.5 895.5,-178.5 1036.5,-178.5 1036.5,-159.5 895.5,-159.5"/>
<text text-anchor="middle" x="966" y="-166.5" font-family="Helvetica,sans-Serif" font-size="10.00">CCP_get_max_param_len</text>
</a>
</g>
</g>
<!-- Node13&#45;&gt;Node19 -->
<g id="edge21" class="edge">
<title>Node13&#45;&gt;Node19</title>
<path fill="none" stroke="midnightblue" d="M851.18,-169C862.28,-169 873.8,-169 885.06,-169"/>
<polygon fill="midnightblue" stroke="midnightblue" points="885.31,-172.5 895.31,-169 885.31,-165.5 885.31,-172.5"/>
</g>
<!-- Node15 -->
<g id="node15" class="node">
<title>Node15</title>
<g id="a_node15"><a xlink:href="command__analyze_8c.html#a464f3aa16753a76bc5093100542a361a" target="_top" xlink:title="コマンドパラメタサイズを取得する">
<polygon fill="white" stroke="black" points="1082,-121.5 1082,-140.5 1221,-140.5 1221,-121.5 1082,-121.5"/>
<text text-anchor="middle" x="1151.5" y="-128.5" font-family="Helvetica,sans-Serif" font-size="10.00">CA_get_cmd_param_size</text>
</a>
</g>
</g>
<!-- Node14&#45;&gt;Node15 -->
<g id="edge15" class="edge">
<title>Node14&#45;&gt;Node15</title>
<path fill="none" stroke="midnightblue" d="M1045.09,-131C1053.85,-131 1062.78,-131 1071.56,-131"/>
<polygon fill="midnightblue" stroke="midnightblue" points="1071.77,-134.5 1081.77,-131 1071.77,-127.5 1071.77,-134.5"/>
</g>
<!-- Node16 -->
<g id="node16" class="node">
<title>Node16</title>
<g id="a_node16"><a xlink:href="command__analyze_8c.html#aa312aeadf3ce336a10385fe14e22f77c" target="_top" xlink:title="コマンドパラメタのサイズ情報を取得">
<polygon fill="white" stroke="black" points="1258,-159.5 1258,-178.5 1403,-178.5 1403,-159.5 1258,-159.5"/>
<text text-anchor="middle" x="1330.5" y="-166.5" font-family="Helvetica,sans-Serif" font-size="10.00">CA_get_param_size_type_</text>
</a>
</g>
</g>
<!-- Node15&#45;&gt;Node16 -->
<g id="edge16" class="edge">
<title>Node15&#45;&gt;Node16</title>
<path fill="none" stroke="midnightblue" d="M1197.16,-140.59C1220.84,-145.67 1250.11,-151.96 1275.1,-157.32"/>
<polygon fill="midnightblue" stroke="midnightblue" points="1274.64,-160.8 1285.16,-159.48 1276.11,-153.96 1274.64,-160.8"/>
</g>
<!-- Node17&#45;&gt;Node16 -->
<g id="edge20" class="edge">
<title>Node17&#45;&gt;Node16</title>
<path fill="none" stroke="midnightblue" d="M1018.22,-197.47C1037.8,-194.09 1060.38,-190.5 1081,-188 1136.44,-181.27 1199.14,-176.5 1247.69,-173.42"/>
<polygon fill="midnightblue" stroke="midnightblue" points="1248.07,-176.9 1257.83,-172.79 1247.63,-169.92 1248.07,-176.9"/>
</g>
<!-- Node18 -->
<g id="node18" class="node">
<title>Node18</title>
<g id="a_node18"><a xlink:href="command__analyze_8c.html#a170772c49fb7883a382a30bd38485a6e" target="_top" xlink:title="コマンドパラメタ数を取得する">
<polygon fill="white" stroke="black" points="1081,-197.5 1081,-216.5 1222,-216.5 1222,-197.5 1081,-197.5"/>
<text text-anchor="middle" x="1151.5" y="-204.5" font-family="Helvetica,sans-Serif" font-size="10.00">CA_get_cmd_param_num</text>
</a>
</g>
</g>
<!-- Node17&#45;&gt;Node18 -->
<g id="edge18" class="edge">
<title>Node17&#45;&gt;Node18</title>
<path fill="none" stroke="midnightblue" d="M1022.55,-207C1037.75,-207 1054.53,-207 1070.8,-207"/>
<polygon fill="midnightblue" stroke="midnightblue" points="1070.84,-210.5 1080.84,-207 1070.84,-203.5 1070.84,-210.5"/>
</g>
<!-- Node18&#45;&gt;Node16 -->
<g id="edge19" class="edge">
<title>Node18&#45;&gt;Node16</title>
<path fill="none" stroke="midnightblue" d="M1197.16,-197.41C1220.84,-192.33 1250.11,-186.04 1275.1,-180.68"/>
<polygon fill="midnightblue" stroke="midnightblue" points="1276.11,-184.04 1285.16,-178.52 1274.64,-177.2 1276.11,-184.04"/>
</g>
<!-- Node21 -->
<g id="node21" class="node">
<title>Node21</title>
<g id="a_node21"><a xlink:href="_t_c_packet_8c.html#a39f967d198c8041c0e07b8b356b23f83" target="_top" xlink:title="channel ID を取得">
<polygon fill="white" stroke="black" points="895,-83.5 895,-102.5 1037,-102.5 1037,-83.5 895,-83.5"/>
<text text-anchor="middle" x="966" y="-90.5" font-family="Helvetica,sans-Serif" font-size="10.00">TCP_CMD_get_channel_id</text>
</a>
</g>
</g>
<!-- Node20&#45;&gt;Node21 -->
<g id="edge23" class="edge">
<title>Node20&#45;&gt;Node21</title>
<path fill="none" stroke="midnightblue" d="M813.55,-123.13C839.69,-117.93 876.21,-110.66 906.83,-104.57"/>
<polygon fill="midnightblue" stroke="midnightblue" points="907.84,-107.94 916.96,-102.56 906.47,-101.07 907.84,-107.94"/>
</g>
<!-- Node23 -->
<g id="node23" class="node">
<title>Node23</title>
<g id="a_node23"><a xlink:href="_t_c_packet_8c.html#a4088b7a1b29268cecc23866a45238fd6" target="_top" xlink:title="Packet Length を取得">
<polygon fill="white" stroke="black" points="909.5,-45.5 909.5,-64.5 1022.5,-64.5 1022.5,-45.5 909.5,-45.5"/>
<text text-anchor="middle" x="966" y="-52.5" font-family="Helvetica,sans-Serif" font-size="10.00">TCP_get_packet_len</text>
</a>
</g>
</g>
<!-- Node22&#45;&gt;Node23 -->
<g id="edge25" class="edge">
<title>Node22&#45;&gt;Node23</title>
<path fill="none" stroke="midnightblue" d="M835.06,-76.66C855.28,-73.29 878.29,-69.45 899.26,-65.96"/>
<polygon fill="midnightblue" stroke="midnightblue" points="900.09,-69.37 909.38,-64.27 898.94,-62.46 900.09,-69.37"/>
</g>
<!-- Node25 -->
<g id="node25" class="node">
<title>Node25</title>
<g id="a_node25"><a xlink:href="event__logger_8c.html#a80a1b60c587d1e3402b02e3bde1db899" target="_top" xlink:title="イベント (EL_Event) を記録">
<polygon fill="white" stroke="black" points="915,-311.5 915,-330.5 1017,-330.5 1017,-311.5 915,-311.5"/>
<text text-anchor="middle" x="966" y="-318.5" font-family="Helvetica,sans-Serif" font-size="10.00">EL_record_event_</text>
</a>
</g>
</g>
<!-- Node24&#45;&gt;Node25 -->
<g id="edge27" class="edge">
<title>Node24&#45;&gt;Node25</title>
<path fill="none" stroke="midnightblue" d="M824.23,-219.56C833.35,-222.31 842.68,-225.75 851,-230 889.59,-249.72 927.53,-283.74 948.45,-304.13"/>
<polygon fill="midnightblue" stroke="midnightblue" points="946.03,-306.66 955.59,-311.22 950.96,-301.69 946.03,-306.66"/>
</g>
<!-- Node26 -->
<g id="node26" class="node">
<title>Node26</title>
<g id="a_node26"><a xlink:href="event__logger_8c.html#aeae14f21b4e29006f709a61e7de52d67" target="_top" xlink:title="TLog の wp をチェックし， event を生成する">
<polygon fill="white" stroke="black" points="1096.5,-311.5 1096.5,-330.5 1206.5,-330.5 1206.5,-311.5 1096.5,-311.5"/>
<text text-anchor="middle" x="1151.5" y="-318.5" font-family="Helvetica,sans-Serif" font-size="10.00">EL_check_tlog_wp_</text>
</a>
</g>
</g>
<!-- Node25&#45;&gt;Node26 -->
<g id="edge28" class="edge">
<title>Node25&#45;&gt;Node26</title>
<path fill="none" stroke="midnightblue" d="M1017.14,-314.91C1038.4,-314.19 1063.44,-314.06 1086.04,-314.52"/>
<polygon fill="midnightblue" stroke="midnightblue" points="1086.15,-318.03 1096.24,-314.78 1086.33,-311.03 1086.15,-318.03"/>
</g>
<!-- Node27 -->
<g id="node27" class="node">
<title>Node27</title>
<g id="a_node27"><a xlink:href="event__logger_8c.html#a0b42c2f5d1eafdad83481ec6e63365e2" target="_top" xlink:title="イベント (EL_Event) を初期化">
<polygon fill="white" stroke="black" points="1108,-273.5 1108,-292.5 1195,-292.5 1195,-273.5 1108,-273.5"/>
<text text-anchor="middle" x="1151.5" y="-280.5" font-family="Helvetica,sans-Serif" font-size="10.00">EL_init_event_</text>
</a>
</g>
</g>
<!-- Node25&#45;&gt;Node27 -->
<g id="edge30" class="edge">
<title>Node25&#45;&gt;Node27</title>
<path fill="none" stroke="midnightblue" d="M1013.3,-311.41C1039.1,-306.07 1071.31,-299.4 1098.03,-293.86"/>
<polygon fill="midnightblue" stroke="midnightblue" points="1098.9,-297.26 1107.98,-291.8 1097.48,-290.41 1098.9,-297.26"/>
</g>
<!-- Node30 -->
<g id="node30" class="node">
<title>Node30</title>
<g id="a_node30"><a xlink:href="event__logger_8c.html#a50ba2fe43a96f7351951a4109227ba6f" target="_top" xlink:title="event_logger の EL_Event.group が有効か？">
<polygon fill="white" stroke="black" points="1091,-235.5 1091,-254.5 1212,-254.5 1212,-235.5 1091,-235.5"/>
<text text-anchor="middle" x="1151.5" y="-242.5" font-family="Helvetica,sans-Serif" font-size="10.00">EL_is_logging_enable</text>
</a>
</g>
</g>
<!-- Node25&#45;&gt;Node30 -->
<g id="edge33" class="edge">
<title>Node25&#45;&gt;Node30</title>
<path fill="none" stroke="midnightblue" d="M983.53,-311.43C1005.3,-299.14 1045.04,-277.75 1081,-264 1087.28,-261.6 1093.99,-259.37 1100.66,-257.34"/>
<polygon fill="midnightblue" stroke="midnightblue" points="1101.74,-260.67 1110.37,-254.52 1099.79,-253.95 1101.74,-260.67"/>
</g>
<!-- Node31 -->
<g id="node31" class="node">
<title>Node31</title>
<g id="a_node31"><a xlink:href="event__logger_8c.html#a69fb9dbc85ad467d048f1c9f31d2442c" target="_top" xlink:title="イベント (EL_Event) を CLog に記録">
<polygon fill="white" stroke="black" points="1095.5,-437 1095.5,-467 1207.5,-467 1207.5,-437 1095.5,-437"/>
<text text-anchor="start" x="1103.5" y="-455" font-family="Helvetica,sans-Serif" font-size="10.00">EL_record_event_to</text>
<text text-anchor="middle" x="1151.5" y="-444" font-family="Helvetica,sans-Serif" font-size="10.00">_clog_</text>
</a>
</g>
</g>
<!-- Node25&#45;&gt;Node31 -->
<g id="edge34" class="edge">
<title>Node25&#45;&gt;Node31</title>
<path fill="none" stroke="midnightblue" d="M1017.36,-325.95C1027.37,-328.85 1037.18,-333.27 1045,-340 1077.03,-367.57 1050.3,-398.97 1081,-428 1082.7,-429.6 1084.5,-431.1 1086.4,-432.5"/>
<polygon fill="midnightblue" stroke="midnightblue" points="1084.86,-435.66 1095.19,-438.01 1088.58,-429.73 1084.86,-435.66"/>
</g>
<!-- Node36 -->
<g id="node36" class="node">
<title>Node36</title>
<g id="a_node36"><a xlink:href="event__logger_8c.html#a93cb3659efd373de0856c92b3c08896a" target="_top" xlink:title="イベント (EL_Event) を TLog に記録">
<polygon fill="white" stroke="black" points="1095.5,-388 1095.5,-418 1207.5,-418 1207.5,-388 1095.5,-388"/>
<text text-anchor="start" x="1103.5" y="-406" font-family="Helvetica,sans-Serif" font-size="10.00">EL_record_event_to</text>
<text text-anchor="middle" x="1151.5" y="-395" font-family="Helvetica,sans-Serif" font-size="10.00">_tlog_</text>
</a>
</g>
</g>
<!-- Node25&#45;&gt;Node36 -->
<g id="edge40" class="edge">
<title>Node25&#45;&gt;Node36</title>
<path fill="none" stroke="midnightblue" d="M1017.06,-329.24C1026.66,-331.9 1036.39,-335.4 1045,-340 1064.15,-350.22 1062.78,-361.2 1081,-373 1086.85,-376.79 1093.27,-380.3 1099.76,-383.48"/>
<polygon fill="midnightblue" stroke="midnightblue" points="1098.72,-386.86 1109.27,-387.9 1101.68,-380.51 1098.72,-386.86"/>
</g>
<!-- Node26&#45;&gt;Node25 -->
<g id="edge29" class="edge">
<title>Node26&#45;&gt;Node25</title>
<path fill="none" stroke="midnightblue" d="M1096.24,-327.22C1074.52,-327.87 1049.42,-327.92 1027.15,-327.38"/>
<polygon fill="midnightblue" stroke="midnightblue" points="1027.24,-323.88 1017.14,-327.09 1027.04,-330.88 1027.24,-323.88"/>
</g>
<!-- Node28 -->
<g id="node28" class="node">
<title>Node28</title>
<g id="a_node28"><a xlink:href="time__manager_8c.html#a9d04b4d9b622cbe5a90cf65e58b828bc" target="_top" xlink:title=" ">
<polygon fill="white" stroke="black" points="1262,-273.5 1262,-292.5 1399,-292.5 1399,-273.5 1262,-273.5"/>
<text text-anchor="middle" x="1330.5" y="-280.5" font-family="Helvetica,sans-Serif" font-size="10.00">TMGR_get_master_clock</text>
</a>
</g>
</g>
<!-- Node27&#45;&gt;Node28 -->
<g id="edge31" class="edge">
<title>Node27&#45;&gt;Node28</title>
<path fill="none" stroke="midnightblue" d="M1195.35,-283C1212.34,-283 1232.42,-283 1251.8,-283"/>
<polygon fill="midnightblue" stroke="midnightblue" points="1251.85,-286.5 1261.85,-283 1251.85,-279.5 1251.85,-286.5"/>
</g>
<!-- Node29 -->
<g id="node29" class="node">
<title>Node29</title>
<g id="a_node29"><a xlink:href="obc__time_8c.html#a70416835a40bdacbb04f6f06b1e6d1e1" target="_top" xlink:title=" ">
<polygon fill="white" stroke="black" points="1469,-273.5 1469,-292.5 1549,-292.5 1549,-273.5 1469,-273.5"/>
<text text-anchor="middle" x="1509" y="-280.5" font-family="Helvetica,sans-Serif" font-size="10.00">OBCT_create</text>
</a>
</g>
</g>
<!-- Node28&#45;&gt;Node29 -->
<g id="edge32" class="edge">
<title>Node28&#45;&gt;Node29</title>
<path fill="none" stroke="midnightblue" d="M1399.23,-283C1418.99,-283 1440.2,-283 1458.6,-283"/>
<polygon fill="midnightblue" stroke="midnightblue" points="1458.79,-286.5 1468.79,-283 1458.79,-279.5 1458.79,-286.5"/>
</g>
<!-- Node32 -->
<g id="node32" class="node">
<title>Node32</title>
<g id="a_node32"><a xlink:href="event__logger_8c.html#a605a3ff223ddae8830c09ff5aa57cc94" target="_top" xlink:title="該当イベントの CLog を，イベントテーブルの先頭に出す">
<polygon fill="white" stroke="black" points="1271,-476 1271,-506 1390,-506 1390,-476 1271,-476"/>
<text text-anchor="start" x="1279" y="-494" font-family="Helvetica,sans-Serif" font-size="10.00">EL_move_to_front_in</text>
<text text-anchor="middle" x="1330.5" y="-483" font-family="Helvetica,sans-Serif" font-size="10.00">_clog_</text>
</a>
</g>
</g>
<!-- Node31&#45;&gt;Node32 -->
<g id="edge35" class="edge">
<title>Node31&#45;&gt;Node32</title>
<path fill="none" stroke="midnightblue" d="M1207.53,-464.13C1224.33,-467.83 1243.01,-471.94 1260.61,-475.82"/>
<polygon fill="midnightblue" stroke="midnightblue" points="1260.3,-479.34 1270.82,-478.07 1261.81,-472.5 1260.3,-479.34"/>
</g>
<!-- Node35 -->
<g id="node35" class="node">
<title>Node35</title>
<g id="a_node35"><a xlink:href="obc__time_8c.html#a02512f745375636ab21f468838587942" target="_top" xlink:title=" ">
<polygon fill="white" stroke="black" points="1298,-437.5 1298,-456.5 1363,-456.5 1363,-437.5 1298,-437.5"/>
<text text-anchor="middle" x="1330.5" y="-444.5" font-family="Helvetica,sans-Serif" font-size="10.00">OBCT_diff</text>
</a>
</g>
</g>
<!-- Node31&#45;&gt;Node35 -->
<g id="edge39" class="edge">
<title>Node31&#45;&gt;Node35</title>
<path fill="none" stroke="midnightblue" d="M1207.53,-450.45C1233.43,-449.71 1263.82,-448.86 1287.78,-448.18"/>
<polygon fill="midnightblue" stroke="midnightblue" points="1288.07,-451.67 1297.97,-447.89 1287.87,-444.67 1288.07,-451.67"/>
</g>
<!-- Node33 -->
<g id="node33" class="node">
<title>Node33</title>
<g id="a_node33"><a xlink:href="event__logger_8c.html#a60dac03ee61b8b3fb3ac6335babb7209" target="_top" xlink:title="イベントテーブル先頭に該当イベントの CLog をつくる">
<polygon fill="white" stroke="black" points="1439,-396.5 1439,-415.5 1579,-415.5 1579,-396.5 1439,-396.5"/>
<text text-anchor="middle" x="1509" y="-403.5" font-family="Helvetica,sans-Serif" font-size="10.00">EL_create_clog_on_front_</text>
</a>
</g>
</g>
<!-- Node32&#45;&gt;Node33 -->
<g id="edge36" class="edge">
<title>Node32&#45;&gt;Node33</title>
<path fill="none" stroke="midnightblue" d="M1378.52,-475.94C1386.79,-472.9 1395.22,-469.55 1403,-466 1432.12,-452.72 1463.79,-433.98 1484.65,-420.99"/>
<polygon fill="midnightblue" stroke="midnightblue" points="1486.56,-423.93 1493.16,-415.64 1482.83,-418 1486.56,-423.93"/>
</g>
<!-- Node34 -->
<g id="node34" class="node">
<title>Node34</title>
<g id="a_node34"><a xlink:href="event__logger_8c.html#a987cce8c848158cc3038bb59dc100de3" target="_top" xlink:title="該当イベントの CLog を検索し取得する">
<polygon fill="white" stroke="black" points="1461,-481.5 1461,-500.5 1557,-500.5 1557,-481.5 1461,-481.5"/>
<text text-anchor="middle" x="1509" y="-488.5" font-family="Helvetica,sans-Serif" font-size="10.00">EL_search_clog_</text>
</a>
</g>
</g>
<!-- Node32&#45;&gt;Node34 -->
<g id="edge38" class="edge">
<title>Node32&#45;&gt;Node34</title>
<path fill="none" stroke="midnightblue" d="M1390.27,-491C1409.74,-491 1431.37,-491 1450.72,-491"/>
<polygon fill="midnightblue" stroke="midnightblue" points="1450.91,-494.5 1460.91,-491 1450.91,-487.5 1450.91,-494.5"/>
</g>
<!-- Node33&#45;&gt;Node25 -->
<g id="edge37" class="edge">
<title>Node33&#45;&gt;Node25</title>
<path fill="none" stroke="midnightblue" d="M1475.61,-396.5C1454.98,-390.74 1427.6,-383.63 1403,-379 1261.33,-352.33 1223.69,-360.52 1081,-340 1063.48,-337.48 1044.51,-334.44 1027.16,-331.54"/>
<polygon fill="midnightblue" stroke="midnightblue" points="1027.59,-328.07 1017.15,-329.85 1026.43,-334.97 1027.59,-328.07"/>
</g>
<!-- Node37 -->
<g id="node37" class="node">
<title>Node37</title>
<g id="a_node37"><a xlink:href="event__logger_8c.html#af088469f27d5dfca608a9cacee9fbc17" target="_top" xlink:title="TLog のイベントテーブルの上書きが有効か？">
<polygon fill="white" stroke="black" points="1272,-388 1272,-418 1389,-418 1389,-388 1272,-388"/>
<text text-anchor="start" x="1280" y="-406" font-family="Helvetica,sans-Serif" font-size="10.00">EL_is_tlog_overwrite</text>
<text text-anchor="middle" x="1330.5" y="-395" font-family="Helvetica,sans-Serif" font-size="10.00">_enable</text>
</a>
</g>
</g>
<!-- Node36&#45;&gt;Node37 -->
<g id="edge41" class="edge">
<title>Node36&#45;&gt;Node37</title>
<path fill="none" stroke="midnightblue" d="M1207.53,-403C1224.66,-403 1243.76,-403 1261.66,-403"/>
<polygon fill="midnightblue" stroke="midnightblue" points="1261.74,-406.5 1271.74,-403 1261.74,-399.5 1261.74,-406.5"/>
</g>
<!-- Node39 -->
<g id="node39" class="node">
<title>Node39</title>
<g id="a_node39"><a xlink:href="_t_c_packet_8c.html#a58270c80e8bf611867892b029a0d32f9" target="_top" xlink:title="APID を取得">
<polygon fill="white" stroke="black" points="925,-349.5 925,-368.5 1007,-368.5 1007,-349.5 925,-349.5"/>
<text text-anchor="middle" x="966" y="-356.5" font-family="Helvetica,sans-Serif" font-size="10.00">TCP_get_apid</text>
</a>
</g>
</g>
<!-- Node38&#45;&gt;Node39 -->
<g id="edge43" class="edge">
<title>Node38&#45;&gt;Node39</title>
<path fill="none" stroke="midnightblue" d="M827.38,-333.84C854.2,-338.75 887.51,-344.84 914.64,-349.79"/>
<polygon fill="midnightblue" stroke="midnightblue" points="914.24,-353.28 924.71,-351.64 915.5,-346.39 914.24,-353.28"/>
</g>
<!-- Node41 -->
<g id="node41" class="node">
<title>Node41</title>
<g id="a_node41"><a xlink:href="_t_c_packet_8c.html#aeef51e70e41085a34fe5c6629d3cc2ae" target="_top" xlink:title="TCP type を取得">
<polygon fill="white" stroke="black" points="736.5,-239.5 736.5,-258.5 819.5,-258.5 819.5,-239.5 736.5,-239.5"/>
<text text-anchor="middle" x="778" y="-246.5" font-family="Helvetica,sans-Serif" font-size="10.00">TCP_get_type</text>
</a>
</g>
</g>
<!-- Node40&#45;&gt;Node41 -->
<g id="edge45" class="edge">
<title>Node40&#45;&gt;Node41</title>
<path fill="none" stroke="midnightblue" d="M652.19,-249C675.27,-249 702.91,-249 726.3,-249"/>
<polygon fill="midnightblue" stroke="midnightblue" points="726.38,-252.5 736.38,-249 726.38,-245.5 726.38,-252.5"/>
</g>
<!-- Node42&#45;&gt;Node38 -->
<g id="edge47" class="edge">
<title>Node42&#45;&gt;Node38</title>
<path fill="none" stroke="midnightblue" d="M647.66,-296.59C670.79,-301.67 699.4,-307.96 723.83,-313.32"/>
<polygon fill="midnightblue" stroke="midnightblue" points="723.14,-316.75 733.66,-315.48 724.64,-309.92 723.14,-316.75"/>
</g>
<!-- Node44 -->
<g id="node44" class="node">
<title>Node44</title>
<g id="a_node44"><a xlink:href="_t_c_packet_8c.html#af3416877283ab315ad0ababce5afbfc8" target="_top" xlink:title="先頭のパラメタのポインタを取得">
<polygon fill="white" stroke="black" points="351,-38.5 351,-57.5 501,-57.5 501,-38.5 351,-38.5"/>
<text text-anchor="middle" x="426" y="-45.5" font-family="Helvetica,sans-Serif" font-size="10.00">TCP_CMD_get_param_head</text>
</a>
</g>
</g>
<!-- Node43&#45;&gt;Node44 -->
<g id="edge49" class="edge">
<title>Node43&#45;&gt;Node44</title>
<path fill="none" stroke="midnightblue" d="M309.57,-48C319.67,-48 330.3,-48 340.86,-48"/>
<polygon fill="midnightblue" stroke="midnightblue" points="340.94,-51.5 350.94,-48 340.94,-44.5 340.94,-51.5"/>
</g>
<!-- Node46 -->
<g id="node46" class="node">
<title>Node46</title>
<g id="a_node46"><a xlink:href="endian__conv_8c.html#af8d492c4e43d83c161cd2225a9697b6a" target="_top" xlink:title=" ">
<polygon fill="white" stroke="black" points="387,-0.5 387,-19.5 465,-19.5 465,-0.5 387,-0.5"/>
<text text-anchor="middle" x="426" y="-7.5" font-family="Helvetica,sans-Serif" font-size="10.00">endian_conv</text>
</a>
</g>
</g>
<!-- Node45&#45;&gt;Node46 -->
<g id="edge52" class="edge">
<title>Node45&#45;&gt;Node46</title>
<path fill="none" stroke="midnightblue" d="M297.09,-10C321.76,-10 351.74,-10 376.47,-10"/>
<polygon fill="midnightblue" stroke="midnightblue" points="376.72,-13.5 386.72,-10 376.72,-6.5 376.72,-13.5"/>
</g>
</g>
</svg>
