<?xml version="1.0" encoding="UTF-8" standalone="no"?>
<!DOCTYPE svg PUBLIC "-//W3C//DTD SVG 1.1//EN"
 "http://www.w3.org/Graphics/SVG/1.1/DTD/svg11.dtd">
<!-- Generated by graphviz version 2.43.0 (0)
 -->
<!-- Title: src/src_core/TlmCmd/block_command_loader.h Pages: 1 -->
<svg width="1438pt" height="653pt"
 viewBox="0.00 0.00 1438.00 653.00" xmlns="http://www.w3.org/2000/svg" xmlns:xlink="http://www.w3.org/1999/xlink">
<g id="graph0" class="graph" transform="scale(1 1) rotate(0) translate(4 649)">
<title>src/src_core/TlmCmd/block_command_loader.h</title>
<polygon fill="white" stroke="transparent" points="-4,4 -4,-649 1434,-649 1434,4 -4,4"/>
<!-- Node1 -->
<g id="node1" class="node">
<title>Node1</title>
<g id="a_node1"><a xlink:title="ブロックコマンド登録関連のユーティリティ">
<polygon fill="#bfbfbf" stroke="black" points="972,-614.5 972,-644.5 1116,-644.5 1116,-614.5 972,-614.5"/>
<text text-anchor="start" x="980" y="-632.5" font-family="Helvetica,sans-Serif" font-size="10.00">src/src_core/TlmCmd</text>
<text text-anchor="middle" x="1044" y="-621.5" font-family="Helvetica,sans-Serif" font-size="10.00">/block_command_loader.h</text>
</a>
</g>
</g>
<!-- Node2 -->
<g id="node2" class="node">
<title>Node2</title>
<g id="a_node2"><a xlink:href="block__command__table_8h.html" target="_top" xlink:title="BCTの定義, BCT周りの関数">
<polygon fill="white" stroke="black" points="971,-363 971,-382 1113,-382 1113,-363 971,-363"/>
<text text-anchor="middle" x="1042" y="-370" font-family="Helvetica,sans-Serif" font-size="10.00">./block_command_table.h</text>
</a>
</g>
</g>
<!-- Node1&#45;&gt;Node2 -->
<g id="edge1" class="edge">
<title>Node1&#45;&gt;Node2</title>
<path fill="none" stroke="midnightblue" d="M1062.58,-614.32C1091.35,-590.51 1141.79,-540.23 1126,-491 1112.69,-449.5 1078.74,-410.19 1058.3,-389.23"/>
<polygon fill="midnightblue" stroke="midnightblue" points="1060.75,-386.72 1051.21,-382.13 1055.8,-391.67 1060.75,-386.72"/>
</g>
<!-- Node7 -->
<g id="node7" class="node">
<title>Node7</title>
<g id="a_node7"><a xlink:href="obc__time_8h.html" target="_top" xlink:title="OBCの時刻情報の定義と演算">
<polygon fill="white" stroke="black" points="1136.5,-207 1136.5,-237 1269.5,-237 1269.5,-207 1136.5,-207"/>
<text text-anchor="start" x="1144.5" y="-225" font-family="Helvetica,sans-Serif" font-size="10.00">../System/TimeManager</text>
<text text-anchor="middle" x="1203" y="-214" font-family="Helvetica,sans-Serif" font-size="10.00">/obc_time.h</text>
</a>
</g>
</g>
<!-- Node1&#45;&gt;Node7 -->
<g id="edge50" class="edge">
<title>Node1&#45;&gt;Node7</title>
<path fill="none" stroke="midnightblue" d="M1116.15,-619.82C1227.87,-604.35 1430,-567.32 1430,-502 1430,-502 1430,-502 1430,-371.5 1430,-297.93 1345.46,-258.85 1279.56,-239.56"/>
<polygon fill="midnightblue" stroke="midnightblue" points="1280.15,-236.09 1269.57,-236.74 1278.25,-242.83 1280.15,-236.09"/>
</g>
<!-- Node15 -->
<g id="node15" class="node">
<title>Node15</title>
<g id="a_node15"><a xlink:href="timeline__command__dispatcher_8h.html" target="_top" xlink:title=" ">
<polygon fill="white" stroke="black" points="837.5,-547.5 837.5,-577.5 972.5,-577.5 972.5,-547.5 837.5,-547.5"/>
<text text-anchor="start" x="845.5" y="-565.5" font-family="Helvetica,sans-Serif" font-size="10.00">../Applications/timeline</text>
<text text-anchor="middle" x="905" y="-554.5" font-family="Helvetica,sans-Serif" font-size="10.00">_command_dispatcher.h</text>
</a>
</g>
</g>
<!-- Node1&#45;&gt;Node15 -->
<g id="edge18" class="edge">
<title>Node1&#45;&gt;Node15</title>
<path fill="none" stroke="midnightblue" d="M1013.84,-614.4C993.44,-604.86 966.3,-592.16 944.22,-581.84"/>
<polygon fill="midnightblue" stroke="midnightblue" points="945.64,-578.64 935.1,-577.58 942.68,-584.98 945.64,-578.64"/>
</g>
<!-- Node28 -->
<g id="node28" class="node">
<title>Node28</title>
<g id="a_node28"><a xlink:href="app__registry_8h.html" target="_top" xlink:title=" ">
<polygon fill="white" stroke="black" points="448,-547.5 448,-577.5 568,-577.5 568,-547.5 448,-547.5"/>
<text text-anchor="start" x="456" y="-565.5" font-family="Helvetica,sans-Serif" font-size="10.00">src_user/Applications</text>
<text text-anchor="middle" x="508" y="-554.5" font-family="Helvetica,sans-Serif" font-size="10.00">/app_registry.h</text>
</a>
</g>
</g>
<!-- Node1&#45;&gt;Node28 -->
<g id="edge51" class="edge">
<title>Node1&#45;&gt;Node28</title>
<path fill="none" stroke="midnightblue" d="M971.99,-619.77C868.89,-607.27 680.43,-584.41 578.29,-572.02"/>
<polygon fill="midnightblue" stroke="midnightblue" points="578.43,-568.52 568.08,-570.79 577.58,-575.46 578.43,-568.52"/>
</g>
<!-- Node3 -->
<g id="node3" class="node">
<title>Node3</title>
<g id="a_node3"><a xlink:href="stdint_8h.html" target="_top" xlink:title=" ">
<polygon fill="white" stroke="black" points="825,-67.5 825,-86.5 959,-86.5 959,-67.5 825,-67.5"/>
<text text-anchor="middle" x="892" y="-74.5" font-family="Helvetica,sans-Serif" font-size="10.00">src_user/Library/stdint.h</text>
</a>
</g>
</g>
<!-- Node2&#45;&gt;Node3 -->
<g id="edge2" class="edge">
<title>Node2&#45;&gt;Node3</title>
<path fill="none" stroke="midnightblue" d="M1054.34,-362.71C1065.79,-353.72 1082.07,-338.61 1089,-321 1095.42,-304.67 1095.79,-216.46 1087,-201 1053.1,-141.35 977.16,-106.43 930.69,-89.87"/>
<polygon fill="midnightblue" stroke="midnightblue" points="931.56,-86.47 920.96,-86.52 929.28,-93.09 931.56,-86.47"/>
</g>
<!-- Node5 -->
<g id="node5" class="node">
<title>Node5</title>
<g id="a_node5"><a xlink:href="block__command__table__params_8h.html" target="_top" xlink:title="BCTのCoreTlmパラメタのオーバーライド用ヘッダー">
<polygon fill="white" stroke="black" points="898.5,-285 898.5,-315 1079.5,-315 1079.5,-285 898.5,-285"/>
<text text-anchor="start" x="906.5" y="-303" font-family="Helvetica,sans-Serif" font-size="10.00">src_user/Settings/TlmCmd</text>
<text text-anchor="middle" x="989" y="-292" font-family="Helvetica,sans-Serif" font-size="10.00">/block_command_table_params.h</text>
</a>
</g>
</g>
<!-- Node2&#45;&gt;Node5 -->
<g id="edge4" class="edge">
<title>Node2&#45;&gt;Node5</title>
<path fill="none" stroke="midnightblue" d="M1035.5,-362.86C1028.15,-353.08 1015.9,-336.79 1005.82,-323.38"/>
<polygon fill="midnightblue" stroke="midnightblue" points="1008.39,-320.97 999.58,-315.08 1002.79,-325.17 1008.39,-320.97"/>
</g>
<!-- Node6 -->
<g id="node6" class="node">
<title>Node6</title>
<g id="a_node6"><a xlink:href="common__cmd__packet_8h.html" target="_top" xlink:title="CCP 関連基本関数の宣言">
<polygon fill="white" stroke="black" points="748,-290.5 748,-309.5 880,-309.5 880,-290.5 748,-290.5"/>
<text text-anchor="middle" x="814" y="-297.5" font-family="Helvetica,sans-Serif" font-size="10.00">common_cmd_packet.h</text>
</a>
</g>
</g>
<!-- Node2&#45;&gt;Node6 -->
<g id="edge5" class="edge">
<title>Node2&#45;&gt;Node6</title>
<path fill="none" stroke="midnightblue" d="M1014.5,-363C973.76,-350.4 897.26,-326.74 851.44,-312.58"/>
<polygon fill="midnightblue" stroke="midnightblue" points="852.19,-309.14 841.6,-309.53 850.12,-315.83 852.19,-309.14"/>
</g>
<!-- Node4 -->
<g id="node4" class="node">
<title>Node4</title>
<g id="a_node4"><a xlink:href="sils__define_8h.html" target="_top" xlink:title="Switch the build settings between your real OBC and SILS">
<polygon fill="white" stroke="black" points="827.5,-0.5 827.5,-19.5 956.5,-19.5 956.5,-0.5 827.5,-0.5"/>
<text text-anchor="middle" x="892" y="-7.5" font-family="Helvetica,sans-Serif" font-size="10.00">../Settings/sils_define.h</text>
</a>
</g>
</g>
<!-- Node3&#45;&gt;Node4 -->
<g id="edge3" class="edge">
<title>Node3&#45;&gt;Node4</title>
<path fill="none" stroke="midnightblue" d="M892,-67.23C892,-57.68 892,-42.12 892,-29.78"/>
<polygon fill="midnightblue" stroke="midnightblue" points="895.5,-29.63 892,-19.63 888.5,-29.63 895.5,-29.63"/>
</g>
<!-- Node6&#45;&gt;Node7 -->
<g id="edge6" class="edge">
<title>Node6&#45;&gt;Node7</title>
<path fill="none" stroke="midnightblue" d="M844.19,-290.46C858.08,-286.68 874.81,-282.35 890,-279 912.72,-273.99 1041.24,-251.29 1126.37,-236.38"/>
<polygon fill="midnightblue" stroke="midnightblue" points="1127.02,-239.82 1136.27,-234.64 1125.82,-232.92 1127.02,-239.82"/>
</g>
<!-- Node9 -->
<g id="node9" class="node">
<title>Node9</title>
<g id="a_node9"><a xlink:href="command__definitions_8h.html" target="_top" xlink:title="コマンド定義">
<polygon fill="white" stroke="black" points="924.5,-207 924.5,-237 1077.5,-237 1077.5,-207 924.5,-207"/>
<text text-anchor="start" x="932.5" y="-225" font-family="Helvetica,sans-Serif" font-size="10.00">src_user/TlmCmd/command</text>
<text text-anchor="middle" x="1001" y="-214" font-family="Helvetica,sans-Serif" font-size="10.00">_definitions.h</text>
</a>
</g>
</g>
<!-- Node6&#45;&gt;Node9 -->
<g id="edge9" class="edge">
<title>Node6&#45;&gt;Node9</title>
<path fill="none" stroke="midnightblue" d="M835.09,-290.43C864.5,-278.48 918.54,-256.51 956.95,-240.9"/>
<polygon fill="midnightblue" stroke="midnightblue" points="958.41,-244.09 966.35,-237.08 955.77,-237.6 958.41,-244.09"/>
</g>
<!-- Node10 -->
<g id="node10" class="node">
<title>Node10</title>
<g id="a_node10"><a xlink:href="common__cmd__packet__define_8h.html" target="_top" xlink:title="CCP 型の定義">
<polygon fill="white" stroke="black" points="618,-207 618,-237 788,-237 788,-207 618,-207"/>
<text text-anchor="start" x="626" y="-225" font-family="Helvetica,sans-Serif" font-size="10.00">src_user/Settings/TlmCmd</text>
<text text-anchor="middle" x="703" y="-214" font-family="Helvetica,sans-Serif" font-size="10.00">/common_cmd_packet_define.h</text>
</a>
</g>
</g>
<!-- Node6&#45;&gt;Node10 -->
<g id="edge10" class="edge">
<title>Node6&#45;&gt;Node10</title>
<path fill="none" stroke="midnightblue" d="M801.27,-290.28C784.48,-278.79 754.43,-258.22 731.97,-242.84"/>
<polygon fill="midnightblue" stroke="midnightblue" points="733.7,-239.78 723.48,-237.02 729.75,-245.56 733.7,-239.78"/>
</g>
<!-- Node13 -->
<g id="node13" class="node">
<title>Node13</title>
<g id="a_node13"><a xlink:href="apid__define_8h.html" target="_top" xlink:title="CCSDS の APID を定義する">
<polygon fill="white" stroke="black" points="694.5,-140 694.5,-159 813.5,-159 813.5,-140 694.5,-140"/>
<text text-anchor="middle" x="754" y="-147" font-family="Helvetica,sans-Serif" font-size="10.00">./Ccsds/apid_define.h</text>
</a>
</g>
</g>
<!-- Node6&#45;&gt;Node13 -->
<g id="edge16" class="edge">
<title>Node6&#45;&gt;Node13</title>
<path fill="none" stroke="midnightblue" d="M818.86,-290.28C828.11,-272.4 845.97,-230.78 830,-201 820.8,-183.84 802.92,-171.52 786.82,-163.35"/>
<polygon fill="midnightblue" stroke="midnightblue" points="788.15,-160.11 777.62,-159.01 785.17,-166.44 788.15,-160.11"/>
</g>
<!-- Node14 -->
<g id="node14" class="node">
<title>Node14</title>
<g id="a_node14"><a xlink:href="timeline__command__dispatcher__define_8h.html" target="_top" xlink:title="timeline command dispatcher の各種定義">
<polygon fill="white" stroke="black" points="0,-201.5 0,-242.5 170,-242.5 170,-201.5 0,-201.5"/>
<text text-anchor="start" x="8" y="-230.5" font-family="Helvetica,sans-Serif" font-size="10.00">src_user/Settings/Applications</text>
<text text-anchor="start" x="8" y="-219.5" font-family="Helvetica,sans-Serif" font-size="10.00">/timeline_command_dispatcher</text>
<text text-anchor="middle" x="85" y="-208.5" font-family="Helvetica,sans-Serif" font-size="10.00">_define.h</text>
</a>
</g>
</g>
<!-- Node6&#45;&gt;Node14 -->
<g id="edge17" class="edge">
<title>Node6&#45;&gt;Node14</title>
<path fill="none" stroke="midnightblue" d="M754.92,-290.46C727.07,-286.62 693.37,-282.23 663,-279 465.25,-257.94 414.54,-265.91 217,-243 205.01,-241.61 192.43,-239.96 180.01,-238.21"/>
<polygon fill="midnightblue" stroke="midnightblue" points="180.49,-234.74 170.09,-236.79 179.49,-241.67 180.49,-234.74"/>
</g>
<!-- Node7&#45;&gt;Node3 -->
<g id="edge7" class="edge">
<title>Node7&#45;&gt;Node3</title>
<path fill="none" stroke="midnightblue" d="M1193.85,-206.86C1180.47,-187.38 1153.7,-152.57 1122,-134 1075.34,-106.66 1015.87,-92.63 969.1,-85.45"/>
<polygon fill="midnightblue" stroke="midnightblue" points="969.42,-81.96 959.02,-83.98 968.41,-88.89 969.42,-81.96"/>
</g>
<!-- Node8 -->
<g id="node8" class="node">
<title>Node8</title>
<g id="a_node8"><a xlink:href="obc__time__params_8h.html" target="_top" xlink:title="OBCTのCoreパラメタのオーバーライド用ヘッダー">
<polygon fill="white" stroke="black" points="1174,-134.5 1174,-164.5 1314,-164.5 1314,-134.5 1174,-134.5"/>
<text text-anchor="start" x="1182" y="-152.5" font-family="Helvetica,sans-Serif" font-size="10.00">src_user/Settings/System</text>
<text text-anchor="middle" x="1244" y="-141.5" font-family="Helvetica,sans-Serif" font-size="10.00">/obc_time_params.h</text>
</a>
</g>
</g>
<!-- Node7&#45;&gt;Node8 -->
<g id="edge8" class="edge">
<title>Node7&#45;&gt;Node8</title>
<path fill="none" stroke="midnightblue" d="M1211.3,-206.73C1216.85,-197.18 1224.29,-184.39 1230.67,-173.42"/>
<polygon fill="midnightblue" stroke="midnightblue" points="1233.71,-175.15 1235.72,-164.75 1227.66,-171.63 1233.71,-175.15"/>
</g>
<!-- Node11 -->
<g id="node11" class="node">
<title>Node11</title>
<g id="a_node11"><a xlink:href="space__packet__typedef_8h.html" target="_top" xlink:title="SpacePacket 類 と CommonTlmCmdPacket 類が相互参照するのを回避するためのヘッダ">
<polygon fill="white" stroke="black" points="365.5,-134.5 365.5,-164.5 502.5,-164.5 502.5,-134.5 365.5,-134.5"/>
<text text-anchor="start" x="373.5" y="-152.5" font-family="Helvetica,sans-Serif" font-size="10.00">src_core/TlmCmd/Ccsds</text>
<text text-anchor="middle" x="434" y="-141.5" font-family="Helvetica,sans-Serif" font-size="10.00">/space_packet_typedef.h</text>
</a>
</g>
</g>
<!-- Node10&#45;&gt;Node11 -->
<g id="edge11" class="edge">
<title>Node10&#45;&gt;Node11</title>
<path fill="none" stroke="midnightblue" d="M649.53,-206.99C605.85,-195.54 543.99,-179.33 497.74,-167.21"/>
<polygon fill="midnightblue" stroke="midnightblue" points="498.39,-163.76 487.83,-164.61 496.61,-170.53 498.39,-163.76"/>
</g>
<!-- Node10&#45;&gt;Node13 -->
<g id="edge14" class="edge">
<title>Node10&#45;&gt;Node13</title>
<path fill="none" stroke="midnightblue" d="M713.32,-206.73C721.48,-195.45 732.91,-179.65 741.58,-167.67"/>
<polygon fill="midnightblue" stroke="midnightblue" points="744.54,-169.55 747.57,-159.39 738.87,-165.44 744.54,-169.55"/>
</g>
<!-- Node11&#45;&gt;Node3 -->
<g id="edge12" class="edge">
<title>Node11&#45;&gt;Node3</title>
<path fill="none" stroke="midnightblue" d="M502.57,-137.95C590.18,-124.46 740.76,-101.28 826.75,-88.04"/>
<polygon fill="midnightblue" stroke="midnightblue" points="827.3,-91.5 836.65,-86.52 826.24,-84.58 827.3,-91.5"/>
</g>
<!-- Node12 -->
<g id="node12" class="node">
<title>Node12</title>
<g id="a_node12"><a xlink:href="space__packet__typedef__params_8h.html" target="_top" xlink:title="SpacePacketの パケット型に関するユーザー設定">
<polygon fill="white" stroke="black" points="354,-56.5 354,-97.5 514,-97.5 514,-56.5 354,-56.5"/>
<text text-anchor="start" x="362" y="-85.5" font-family="Helvetica,sans-Serif" font-size="10.00">src_user/Settings/TlmCmd</text>
<text text-anchor="start" x="362" y="-74.5" font-family="Helvetica,sans-Serif" font-size="10.00">/Ccsds/space_packet_typedef</text>
<text text-anchor="middle" x="434" y="-63.5" font-family="Helvetica,sans-Serif" font-size="10.00">_params.h</text>
</a>
</g>
</g>
<!-- Node11&#45;&gt;Node12 -->
<g id="edge13" class="edge">
<title>Node11&#45;&gt;Node12</title>
<path fill="none" stroke="midnightblue" d="M434,-134.23C434,-126.57 434,-116.84 434,-107.63"/>
<polygon fill="midnightblue" stroke="midnightblue" points="437.5,-107.59 434,-97.59 430.5,-107.59 437.5,-107.59"/>
</g>
<!-- Node13&#45;&gt;Node3 -->
<g id="edge15" class="edge">
<title>Node13&#45;&gt;Node3</title>
<path fill="none" stroke="midnightblue" d="M770.65,-140C794.37,-127.87 838.14,-105.52 866.12,-91.22"/>
<polygon fill="midnightblue" stroke="midnightblue" points="867.98,-94.2 875.29,-86.53 864.8,-87.97 867.98,-94.2"/>
</g>
<!-- Node15&#45;&gt;Node6 -->
<g id="edge28" class="edge">
<title>Node15&#45;&gt;Node6</title>
<path fill="none" stroke="midnightblue" d="M907.33,-547.25C912.31,-512.32 920.86,-420.64 886,-357 875.89,-338.54 856.87,-324.15 840.91,-314.59"/>
<polygon fill="midnightblue" stroke="midnightblue" points="842.39,-311.4 831.97,-309.52 838.94,-317.49 842.39,-311.4"/>
</g>
<!-- Node15&#45;&gt;Node14 -->
<g id="edge19" class="edge">
<title>Node15&#45;&gt;Node14</title>
<path fill="none" stroke="midnightblue" d="M837.37,-556.69C663.77,-543.43 216,-503.16 216,-440.5 216,-440.5 216,-440.5 216,-371.5 216,-317.48 166.66,-273.84 128.54,-248.17"/>
<polygon fill="midnightblue" stroke="midnightblue" points="130.39,-245.21 120.11,-242.66 126.56,-251.07 130.39,-245.21"/>
</g>
<!-- Node16 -->
<g id="node16" class="node">
<title>Node16</title>
<g id="a_node16"><a xlink:href="command__dispatcher_8h.html" target="_top" xlink:title="各種コマンドの実行管理">
<polygon fill="white" stroke="black" points="933.5,-491.5 933.5,-510.5 1116.5,-510.5 1116.5,-491.5 933.5,-491.5"/>
<text text-anchor="middle" x="1025" y="-498.5" font-family="Helvetica,sans-Serif" font-size="10.00">../TlmCmd/command_dispatcher.h</text>
</a>
</g>
</g>
<!-- Node15&#45;&gt;Node16 -->
<g id="edge20" class="edge">
<title>Node15&#45;&gt;Node16</title>
<path fill="none" stroke="midnightblue" d="M933.44,-547.4C953.12,-537.64 979.14,-524.74 998.41,-515.18"/>
<polygon fill="midnightblue" stroke="midnightblue" points="1000.13,-518.24 1007.54,-510.66 997.02,-511.96 1000.13,-518.24"/>
</g>
<!-- Node19 -->
<g id="node19" class="node">
<title>Node19</title>
<g id="a_node19"><a xlink:href="packet__handler_8h.html" target="_top" xlink:title="C2A 全体を流れる Common Packet の配送を制御する">
<polygon fill="white" stroke="black" points="725,-491.5 725,-510.5 877,-510.5 877,-491.5 725,-491.5"/>
<text text-anchor="middle" x="801" y="-498.5" font-family="Helvetica,sans-Serif" font-size="10.00">../TlmCmd/packet_handler.h</text>
</a>
</g>
</g>
<!-- Node15&#45;&gt;Node19 -->
<g id="edge29" class="edge">
<title>Node15&#45;&gt;Node19</title>
<path fill="none" stroke="midnightblue" d="M874.51,-547.4C856.79,-537.95 835.13,-525.56 819.82,-516.11"/>
<polygon fill="midnightblue" stroke="midnightblue" points="821.53,-513.05 811.2,-510.66 817.78,-518.96 821.53,-513.05"/>
</g>
<!-- Node27 -->
<g id="node27" class="node">
<title>Node27</title>
<g id="a_node27"><a xlink:href="app__info_8h.html" target="_top" xlink:title="App 情報構造体定義と App 作成">
<polygon fill="white" stroke="black" points="1238.5,-424.5 1238.5,-454.5 1401.5,-454.5 1401.5,-424.5 1238.5,-424.5"/>
<text text-anchor="start" x="1246.5" y="-442.5" font-family="Helvetica,sans-Serif" font-size="10.00">../System/ApplicationManager</text>
<text text-anchor="middle" x="1320" y="-431.5" font-family="Helvetica,sans-Serif" font-size="10.00">/app_info.h</text>
</a>
</g>
</g>
<!-- Node15&#45;&gt;Node27 -->
<g id="edge48" class="edge">
<title>Node15&#45;&gt;Node27</title>
<path fill="none" stroke="midnightblue" d="M972.78,-548.28C1016.8,-539.14 1075.22,-525.96 1126,-511 1178.29,-495.59 1236.93,-473.6 1275.91,-458.29"/>
<polygon fill="midnightblue" stroke="midnightblue" points="1277.37,-461.48 1285.39,-454.56 1274.8,-454.97 1277.37,-461.48"/>
</g>
<!-- Node16&#45;&gt;Node6 -->
<g id="edge22" class="edge">
<title>Node16&#45;&gt;Node6</title>
<path fill="none" stroke="midnightblue" d="M1020.35,-491.23C1007.23,-467.14 967.69,-398.97 919,-357 897.19,-338.2 868.01,-323.27 845.94,-313.57"/>
<polygon fill="midnightblue" stroke="midnightblue" points="847.23,-310.32 836.66,-309.61 844.49,-316.76 847.23,-310.32"/>
</g>
<!-- Node16&#45;&gt;Node7 -->
<g id="edge21" class="edge">
<title>Node16&#45;&gt;Node7</title>
<path fill="none" stroke="midnightblue" d="M1047.13,-491.39C1064.14,-483.87 1087.3,-471.57 1103,-455 1161.24,-393.55 1188.5,-292.87 1198.4,-247.05"/>
<polygon fill="midnightblue" stroke="midnightblue" points="1201.85,-247.64 1200.45,-237.14 1194.99,-246.23 1201.85,-247.64"/>
</g>
<!-- Node16&#45;&gt;Node9 -->
<g id="edge27" class="edge">
<title>Node16&#45;&gt;Node9</title>
<path fill="none" stroke="midnightblue" d="M1036.58,-491.44C1058.33,-474.55 1104.66,-434.52 1122,-388 1126.81,-375.09 1124.74,-370.5 1122,-357 1114.52,-320.11 1113.31,-307.74 1089,-279 1076.07,-263.72 1057.9,-251.19 1041.43,-241.89"/>
<polygon fill="midnightblue" stroke="midnightblue" points="1042.96,-238.74 1032.49,-237.06 1039.63,-244.9 1042.96,-238.74"/>
</g>
<!-- Node17 -->
<g id="node17" class="node">
<title>Node17</title>
<g id="a_node17"><a xlink:href="packet__list_8h.html" target="_top" xlink:title="CTCP, CTP, CCP のリストとしてのデータ構造を定義. 片方向リストとして実装されている">
<polygon fill="white" stroke="black" points="799,-430 799,-449 877,-449 877,-430 799,-430"/>
<text text-anchor="middle" x="838" y="-437" font-family="Helvetica,sans-Serif" font-size="10.00">packet_list.h</text>
</a>
</g>
</g>
<!-- Node16&#45;&gt;Node17 -->
<g id="edge23" class="edge">
<title>Node16&#45;&gt;Node17</title>
<path fill="none" stroke="midnightblue" d="M998.21,-491.48C965.71,-481.14 910.79,-463.66 874.46,-452.1"/>
<polygon fill="midnightblue" stroke="midnightblue" points="875.33,-448.71 864.74,-449.01 873.21,-455.38 875.33,-448.71"/>
</g>
<!-- Node17&#45;&gt;Node2 -->
<g id="edge26" class="edge">
<title>Node17&#45;&gt;Node2</title>
<path fill="none" stroke="midnightblue" d="M865.09,-429.87C901.16,-418.38 965.08,-398.01 1005.41,-385.16"/>
<polygon fill="midnightblue" stroke="midnightblue" points="1006.66,-388.43 1015.12,-382.06 1004.53,-381.76 1006.66,-388.43"/>
</g>
<!-- Node17&#45;&gt;Node6 -->
<g id="edge25" class="edge">
<title>Node17&#45;&gt;Node6</title>
<path fill="none" stroke="midnightblue" d="M831.82,-429.71C825.41,-420.02 815.81,-403.72 812,-388 806.4,-364.88 808.44,-337.3 810.85,-319.48"/>
<polygon fill="midnightblue" stroke="midnightblue" points="814.31,-319.97 812.36,-309.55 807.39,-318.91 814.31,-319.97"/>
</g>
<!-- Node18 -->
<g id="node18" class="node">
<title>Node18</title>
<g id="a_node18"><a xlink:title=" ">
<polygon fill="white" stroke="#bfbfbf" points="821,-363 821,-382 877,-382 877,-363 821,-363"/>
<text text-anchor="middle" x="849" y="-370" font-family="Helvetica,sans-Serif" font-size="10.00">stddef.h</text>
</a>
</g>
</g>
<!-- Node17&#45;&gt;Node18 -->
<g id="edge24" class="edge">
<title>Node17&#45;&gt;Node18</title>
<path fill="none" stroke="midnightblue" d="M839.48,-429.73C841.1,-420.18 843.73,-404.62 845.82,-392.28"/>
<polygon fill="midnightblue" stroke="midnightblue" points="849.32,-392.57 847.54,-382.13 842.42,-391.4 849.32,-392.57"/>
</g>
<!-- Node19&#45;&gt;Node15 -->
<g id="edge47" class="edge">
<title>Node19&#45;&gt;Node15</title>
<path fill="none" stroke="midnightblue" d="M821.06,-510.66C837.16,-518.86 859.67,-531.46 877.41,-542.07"/>
<polygon fill="midnightblue" stroke="midnightblue" points="875.83,-545.2 886.19,-547.4 879.46,-539.22 875.83,-545.2"/>
</g>
<!-- Node19&#45;&gt;Node17 -->
<g id="edge46" class="edge">
<title>Node19&#45;&gt;Node17</title>
<path fill="none" stroke="midnightblue" d="M806.3,-491.48C811.74,-482.73 820.36,-468.87 827.24,-457.81"/>
<polygon fill="midnightblue" stroke="midnightblue" points="830.4,-459.35 832.71,-449.01 824.46,-455.65 830.4,-459.35"/>
</g>
<!-- Node20 -->
<g id="node20" class="node">
<title>Node20</title>
<g id="a_node20"><a xlink:href="packet__handler__params_8h.html" target="_top" xlink:title="PHのCoreTlmパラメタのオーバーライド用ヘッダー">
<polygon fill="white" stroke="black" points="382.5,-424.5 382.5,-454.5 527.5,-454.5 527.5,-424.5 382.5,-424.5"/>
<text text-anchor="start" x="390.5" y="-442.5" font-family="Helvetica,sans-Serif" font-size="10.00">src_user/Settings/TlmCmd</text>
<text text-anchor="middle" x="455" y="-431.5" font-family="Helvetica,sans-Serif" font-size="10.00">/packet_handler_params.h</text>
</a>
</g>
</g>
<!-- Node19&#45;&gt;Node20 -->
<g id="edge30" class="edge">
<title>Node19&#45;&gt;Node20</title>
<path fill="none" stroke="midnightblue" d="M751.43,-491.48C695.71,-481.89 604.34,-466.18 537.75,-454.73"/>
<polygon fill="midnightblue" stroke="midnightblue" points="538.15,-451.25 527.7,-453 536.96,-458.15 538.15,-451.25"/>
</g>
<!-- Node22 -->
<g id="node22" class="node">
<title>Node22</title>
<g id="a_node22"><a xlink:href="common__tlm__cmd__packet_8h.html" target="_top" xlink:title="CTCP 関連基本関数の宣言">
<polygon fill="white" stroke="black" points="606,-363 606,-382 760,-382 760,-363 606,-363"/>
<text text-anchor="middle" x="683" y="-370" font-family="Helvetica,sans-Serif" font-size="10.00">common_tlm_cmd_packet.h</text>
</a>
</g>
</g>
<!-- Node19&#45;&gt;Node22 -->
<g id="edge33" class="edge">
<title>Node19&#45;&gt;Node22</title>
<path fill="none" stroke="midnightblue" d="M792.89,-491.31C773.35,-470.36 723.44,-416.85 698.16,-389.75"/>
<polygon fill="midnightblue" stroke="midnightblue" points="700.55,-387.18 691.17,-382.26 695.43,-391.96 700.55,-387.18"/>
</g>
<!-- Node20&#45;&gt;Node14 -->
<g id="edge31" class="edge">
<title>Node20&#45;&gt;Node14</title>
<path fill="none" stroke="midnightblue" d="M436.25,-424.29C390.36,-389.67 273.03,-302.1 230,-279 206.39,-266.32 179.27,-255.06 154.92,-246.01"/>
<polygon fill="midnightblue" stroke="midnightblue" points="155.98,-242.67 145.39,-242.53 153.58,-249.25 155.98,-242.67"/>
</g>
<!-- Node21 -->
<g id="node21" class="node">
<title>Node21</title>
<g id="a_node21"><a xlink:href="data__recorder__define_8h.html" target="_top" xlink:title="Data Recorder の各種定義">
<polygon fill="white" stroke="black" points="400,-357.5 400,-387.5 510,-387.5 510,-357.5 400,-357.5"/>
<text text-anchor="start" x="408" y="-375.5" font-family="Helvetica,sans-Serif" font-size="10.00">../Applications/data</text>
<text text-anchor="middle" x="455" y="-364.5" font-family="Helvetica,sans-Serif" font-size="10.00">_recorder_define.h</text>
</a>
</g>
</g>
<!-- Node20&#45;&gt;Node21 -->
<g id="edge32" class="edge">
<title>Node20&#45;&gt;Node21</title>
<path fill="none" stroke="midnightblue" d="M455,-424.4C455,-416.64 455,-406.81 455,-397.86"/>
<polygon fill="midnightblue" stroke="midnightblue" points="458.5,-397.58 455,-387.58 451.5,-397.58 458.5,-397.58"/>
</g>
<!-- Node22&#45;&gt;Node3 -->
<g id="edge34" class="edge">
<title>Node22&#45;&gt;Node3</title>
<path fill="none" stroke="midnightblue" d="M686.19,-362.99C693.21,-345.23 711.61,-303.85 739,-279 766.38,-254.15 787.93,-269.22 814,-243 856.55,-200.2 878.96,-129.75 887.65,-96.49"/>
<polygon fill="midnightblue" stroke="midnightblue" points="891.06,-97.27 890.08,-86.73 884.27,-95.58 891.06,-97.27"/>
</g>
<!-- Node22&#45;&gt;Node6 -->
<g id="edge44" class="edge">
<title>Node22&#45;&gt;Node6</title>
<path fill="none" stroke="midnightblue" d="M698.8,-363C721.23,-350.93 762.51,-328.71 789.08,-314.41"/>
<polygon fill="midnightblue" stroke="midnightblue" points="791,-317.36 798.14,-309.53 787.68,-311.19 791,-317.36"/>
</g>
<!-- Node22&#45;&gt;Node13 -->
<g id="edge45" class="edge">
<title>Node22&#45;&gt;Node13</title>
<path fill="none" stroke="midnightblue" d="M682.68,-362.93C682.48,-345.08 684.53,-303.53 706,-279 734.64,-246.27 772.55,-278.97 797,-243 807.49,-227.56 803.45,-218.52 797,-201 792.03,-187.49 781.66,-175.14 772.35,-166.03"/>
<polygon fill="midnightblue" stroke="midnightblue" points="774.65,-163.38 764.92,-159.18 769.91,-168.53 774.65,-163.38"/>
</g>
<!-- Node23 -->
<g id="node23" class="node">
<title>Node23</title>
<g id="a_node23"><a xlink:href="common__tlm__cmd__packet__define_8h.html" target="_top" xlink:title="CTCP 型の定義">
<polygon fill="white" stroke="black" points="344,-279.5 344,-320.5 492,-320.5 492,-279.5 344,-279.5"/>
<text text-anchor="start" x="352" y="-308.5" font-family="Helvetica,sans-Serif" font-size="10.00">src_user/Settings/TlmCmd</text>
<text text-anchor="start" x="352" y="-297.5" font-family="Helvetica,sans-Serif" font-size="10.00">/common_tlm_cmd_packet</text>
<text text-anchor="middle" x="418" y="-286.5" font-family="Helvetica,sans-Serif" font-size="10.00">_define.h</text>
</a>
</g>
</g>
<!-- Node22&#45;&gt;Node23 -->
<g id="edge35" class="edge">
<title>Node22&#45;&gt;Node23</title>
<path fill="none" stroke="midnightblue" d="M651.03,-363C614.11,-353.17 551.92,-336.63 501.07,-323.1"/>
<polygon fill="midnightblue" stroke="midnightblue" points="501.96,-319.71 491.39,-320.53 500.16,-326.48 501.96,-319.71"/>
</g>
<!-- Node24 -->
<g id="node24" class="node">
<title>Node24</title>
<g id="a_node24"><a xlink:href="common__tlm__packet_8h.html" target="_top" xlink:title="CTP 関連基本関数の宣言">
<polygon fill="white" stroke="black" points="520,-290.5 520,-309.5 654,-309.5 654,-290.5 520,-290.5"/>
<text text-anchor="middle" x="587" y="-297.5" font-family="Helvetica,sans-Serif" font-size="10.00">./common_tlm_packet.h</text>
</a>
</g>
</g>
<!-- Node22&#45;&gt;Node24 -->
<g id="edge37" class="edge">
<title>Node22&#45;&gt;Node24</title>
<path fill="none" stroke="midnightblue" d="M671.23,-362.86C655.25,-351.12 626.47,-329.98 607.05,-315.72"/>
<polygon fill="midnightblue" stroke="midnightblue" points="609,-312.81 598.87,-309.72 604.86,-318.46 609,-312.81"/>
</g>
<!-- Node23&#45;&gt;Node11 -->
<g id="edge36" class="edge">
<title>Node23&#45;&gt;Node11</title>
<path fill="none" stroke="midnightblue" d="M343.82,-282.89C289.91,-270.44 225.04,-253.58 217,-243 205.71,-228.13 205.39,-215.62 217,-201 234.27,-179.26 300.41,-166.02 355.18,-158.58"/>
<polygon fill="midnightblue" stroke="midnightblue" points="355.8,-162.03 365.26,-157.26 354.89,-155.09 355.8,-162.03"/>
</g>
<!-- Node24&#45;&gt;Node7 -->
<g id="edge38" class="edge">
<title>Node24&#45;&gt;Node7</title>
<path fill="none" stroke="midnightblue" d="M648.7,-290.49C676.31,-286.78 709.26,-282.49 739,-279 893.43,-260.86 932.96,-264.22 1087,-243 1099.74,-241.24 1113.24,-239.14 1126.34,-236.97"/>
<polygon fill="midnightblue" stroke="midnightblue" points="1126.98,-240.41 1136.26,-235.3 1125.82,-233.51 1126.98,-240.41"/>
</g>
<!-- Node24&#45;&gt;Node13 -->
<g id="edge43" class="edge">
<title>Node24&#45;&gt;Node13</title>
<path fill="none" stroke="midnightblue" d="M586.35,-290.44C585.42,-271.75 585.9,-226.9 609,-201 628.28,-179.38 657.31,-167.02 684.35,-159.95"/>
<polygon fill="midnightblue" stroke="midnightblue" points="685.3,-163.32 694.2,-157.57 683.66,-156.51 685.3,-163.32"/>
</g>
<!-- Node25 -->
<g id="node25" class="node">
<title>Node25</title>
<g id="a_node25"><a xlink:href="telemetry__definitions_8h.html" target="_top" xlink:title="テレメトリ定義">
<polygon fill="white" stroke="black" points="410,-207 410,-237 562,-237 562,-207 410,-207"/>
<text text-anchor="start" x="418" y="-225" font-family="Helvetica,sans-Serif" font-size="10.00">src_user/TlmCmd/telemetry</text>
<text text-anchor="middle" x="486" y="-214" font-family="Helvetica,sans-Serif" font-size="10.00">_definitions.h</text>
</a>
</g>
</g>
<!-- Node24&#45;&gt;Node25 -->
<g id="edge39" class="edge">
<title>Node24&#45;&gt;Node25</title>
<path fill="none" stroke="midnightblue" d="M575.41,-290.28C560.2,-278.84 533.04,-258.4 512.63,-243.04"/>
<polygon fill="midnightblue" stroke="midnightblue" points="514.73,-240.24 504.63,-237.02 510.52,-245.83 514.73,-240.24"/>
</g>
<!-- Node26 -->
<g id="node26" class="node">
<title>Node26</title>
<g id="a_node26"><a xlink:href="common__tlm__packet__define_8h.html" target="_top" xlink:title="CTP 型の定義">
<polygon fill="white" stroke="black" points="226,-207 226,-237 392,-237 392,-207 226,-207"/>
<text text-anchor="start" x="234" y="-225" font-family="Helvetica,sans-Serif" font-size="10.00">src_user/Settings/TlmCmd</text>
<text text-anchor="middle" x="309" y="-214" font-family="Helvetica,sans-Serif" font-size="10.00">/common_tlm_packet_define.h</text>
</a>
</g>
</g>
<!-- Node24&#45;&gt;Node26 -->
<g id="edge40" class="edge">
<title>Node24&#45;&gt;Node26</title>
<path fill="none" stroke="midnightblue" d="M555.65,-290.43C510.75,-278.15 427.23,-255.32 369.92,-239.66"/>
<polygon fill="midnightblue" stroke="midnightblue" points="370.82,-236.27 360.25,-237.01 368.98,-243.02 370.82,-236.27"/>
</g>
<!-- Node26&#45;&gt;Node11 -->
<g id="edge41" class="edge">
<title>Node26&#45;&gt;Node11</title>
<path fill="none" stroke="midnightblue" d="M334,-206.9C352.99,-196.19 379.31,-181.35 400.18,-169.57"/>
<polygon fill="midnightblue" stroke="midnightblue" points="402.06,-172.53 409.05,-164.57 398.62,-166.44 402.06,-172.53"/>
</g>
<!-- Node26&#45;&gt;Node13 -->
<g id="edge42" class="edge">
<title>Node26&#45;&gt;Node13</title>
<path fill="none" stroke="midnightblue" d="M370.74,-206.94C380.83,-204.83 391.19,-202.77 401,-201 498.85,-183.39 612.86,-168 684.24,-158.97"/>
<polygon fill="midnightblue" stroke="midnightblue" points="684.97,-162.41 694.46,-157.69 684.1,-155.47 684.97,-162.41"/>
</g>
<!-- Node27&#45;&gt;Node7 -->
<g id="edge49" class="edge">
<title>Node27&#45;&gt;Node7</title>
<path fill="none" stroke="midnightblue" d="M1312.32,-424.36C1292.57,-387.98 1239.85,-290.88 1215.57,-246.15"/>
<polygon fill="midnightblue" stroke="midnightblue" points="1218.55,-244.31 1210.7,-237.19 1212.4,-247.65 1218.55,-244.31"/>
</g>
<!-- Node28&#45;&gt;Node14 -->
<g id="edge52" class="edge">
<title>Node28&#45;&gt;Node14</title>
<path fill="none" stroke="midnightblue" d="M447.65,-556.41C333.21,-545.1 96,-512.91 96,-440.5 96,-440.5 96,-440.5 96,-371.5 96,-330.29 91.73,-282.81 88.52,-252.86"/>
<polygon fill="midnightblue" stroke="midnightblue" points="91.97,-252.22 87.39,-242.66 85.01,-252.99 91.97,-252.22"/>
</g>
</g>
</svg>
