<?xml version="1.0" encoding="UTF-8" standalone="no"?>
<!DOCTYPE svg PUBLIC "-//W3C//DTD SVG 1.1//EN"
 "http://www.w3.org/Graphics/SVG/1.1/DTD/svg11.dtd">
<!-- Generated by graphviz version 2.43.0 (0)
 -->
<!-- Title: src/src_user/TlmCmd/block_command_definitions.c Pages: 1 -->
<svg width="2560pt" height="742pt"
 viewBox="0.00 0.00 2559.56 742.00" xmlns="http://www.w3.org/2000/svg" xmlns:xlink="http://www.w3.org/1999/xlink">
<g id="graph0" class="graph" transform="scale(1 1) rotate(0) translate(4 738)">
<title>src/src_user/TlmCmd/block_command_definitions.c</title>
<polygon fill="white" stroke="transparent" points="-4,4 -4,-738 2555.56,-738 2555.56,4 -4,4"/>
<!-- Node1 -->
<g id="node1" class="node">
<title>Node1</title>
<g id="a_node1"><a xlink:title=" ">
<polygon fill="#bfbfbf" stroke="black" points="1523,-703.5 1523,-733.5 1687,-733.5 1687,-703.5 1523,-703.5"/>
<text text-anchor="start" x="1531" y="-721.5" font-family="Helvetica,sans-Serif" font-size="10.00">src/src_user/TlmCmd</text>
<text text-anchor="middle" x="1605" y="-710.5" font-family="Helvetica,sans-Serif" font-size="10.00">/block_command_definitions.c</text>
</a>
</g>
</g>
<!-- Node2 -->
<g id="node2" class="node">
<title>Node2</title>
<g id="a_node2"><a xlink:href="block__command__definitions_8h.html" target="_top" xlink:title="ブロックコマンド定義">
<polygon fill="white" stroke="black" points="875,-636.5 875,-655.5 1037,-655.5 1037,-636.5 875,-636.5"/>
<text text-anchor="middle" x="956" y="-643.5" font-family="Helvetica,sans-Serif" font-size="10.00">block_command_definitions.h</text>
</a>
</g>
</g>
<!-- Node1&#45;&gt;Node2 -->
<g id="edge1" class="edge">
<title>Node1&#45;&gt;Node2</title>
<path fill="none" stroke="midnightblue" d="M1522.66,-713.38C1413.28,-707.15 1214.26,-693.18 1046,-667 1030.71,-664.62 1014.13,-661.19 999.42,-657.83"/>
<polygon fill="midnightblue" stroke="midnightblue" points="1000.1,-654.4 989.57,-655.54 998.51,-661.21 1000.1,-654.4"/>
</g>
<!-- Node3 -->
<g id="node3" class="node">
<title>Node3</title>
<g id="a_node3"><a xlink:href="block__command__loader_8h.html" target="_top" xlink:title="ブロックコマンド登録関連のユーティリティ">
<polygon fill="white" stroke="black" points="1055.5,-631 1055.5,-661 1186.5,-661 1186.5,-631 1055.5,-631"/>
<text text-anchor="start" x="1063.5" y="-649" font-family="Helvetica,sans-Serif" font-size="10.00">src_core/TlmCmd/block</text>
<text text-anchor="middle" x="1121" y="-638" font-family="Helvetica,sans-Serif" font-size="10.00">_command_loader.h</text>
</a>
</g>
</g>
<!-- Node1&#45;&gt;Node3 -->
<g id="edge2" class="edge">
<title>Node1&#45;&gt;Node3</title>
<path fill="none" stroke="midnightblue" d="M1522.92,-710.17C1440.97,-702.17 1311.65,-687.67 1201,-667 1195.23,-665.92 1189.26,-664.68 1183.29,-663.34"/>
<polygon fill="midnightblue" stroke="midnightblue" points="1183.83,-659.88 1173.3,-661.04 1182.26,-666.7 1183.83,-659.88"/>
</g>
<!-- Node4 -->
<g id="node4" class="node">
<title>Node4</title>
<g id="a_node4"><a xlink:href="block__command__table_8h.html" target="_top" xlink:title="BCTの定義, BCT周りの関数">
<polygon fill="white" stroke="black" points="1205,-363 1205,-382 1347,-382 1347,-363 1205,-363"/>
<text text-anchor="middle" x="1276" y="-370" font-family="Helvetica,sans-Serif" font-size="10.00">./block_command_table.h</text>
</a>
</g>
</g>
<!-- Node1&#45;&gt;Node4 -->
<g id="edge55" class="edge">
<title>Node1&#45;&gt;Node4</title>
<path fill="none" stroke="midnightblue" d="M1522.73,-715.52C1435.99,-711.66 1307.09,-700.31 1272,-667 1241.56,-638.11 1253,-616.47 1253,-574.5 1253,-574.5 1253,-574.5 1253,-505.5 1253,-464.37 1263.97,-417.08 1270.76,-391.76"/>
<polygon fill="midnightblue" stroke="midnightblue" points="1274.15,-392.63 1273.45,-382.06 1267.41,-390.76 1274.15,-392.63"/>
</g>
<!-- Node11 -->
<g id="node11" class="node">
<title>Node11</title>
<g id="a_node11"><a xlink:href="command__definitions_8h.html" target="_top" xlink:title="コマンド定義">
<polygon fill="white" stroke="black" points="1071.5,-207 1071.5,-237 1224.5,-237 1224.5,-207 1071.5,-207"/>
<text text-anchor="start" x="1079.5" y="-225" font-family="Helvetica,sans-Serif" font-size="10.00">src_user/TlmCmd/command</text>
<text text-anchor="middle" x="1148" y="-214" font-family="Helvetica,sans-Serif" font-size="10.00">_definitions.h</text>
</a>
</g>
</g>
<!-- Node1&#45;&gt;Node11 -->
<g id="edge57" class="edge">
<title>Node1&#45;&gt;Node11</title>
<path fill="none" stroke="midnightblue" d="M1522.89,-715.81C1430.57,-712.24 1288.27,-701.18 1248,-667 1167.57,-598.73 1177,-546 1177,-440.5 1177,-440.5 1177,-440.5 1177,-371.5 1177,-326.82 1164.2,-275.95 1155.6,-246.84"/>
<polygon fill="midnightblue" stroke="midnightblue" points="1158.92,-245.71 1152.66,-237.16 1152.22,-247.74 1158.92,-245.71"/>
</g>
<!-- Node31 -->
<g id="node31" class="node">
<title>Node31</title>
<g id="a_node31"><a xlink:title=" ">
<polygon fill="white" stroke="#bfbfbf" points="1281.5,-636.5 1281.5,-655.5 1334.5,-655.5 1334.5,-636.5 1281.5,-636.5"/>
<text text-anchor="middle" x="1308" y="-643.5" font-family="Helvetica,sans-Serif" font-size="10.00">string.h</text>
</a>
</g>
</g>
<!-- Node1&#45;&gt;Node31 -->
<g id="edge56" class="edge">
<title>Node1&#45;&gt;Node31</title>
<path fill="none" stroke="midnightblue" d="M1522.97,-708.4C1470.64,-700.95 1402.01,-688.12 1344,-667 1339.29,-665.29 1334.47,-663.01 1329.94,-660.61"/>
<polygon fill="midnightblue" stroke="midnightblue" points="1331.62,-657.54 1321.19,-655.65 1328.16,-663.63 1331.62,-657.54"/>
</g>
<!-- Node32 -->
<g id="node32" class="node">
<title>Node32</title>
<g id="a_node32"><a xlink:href="sl__initial_8h.html" target="_top" xlink:title=" ">
<polygon fill="white" stroke="black" points="1353,-631 1353,-661 1509,-661 1509,-631 1353,-631"/>
<text text-anchor="start" x="1361" y="-649" font-family="Helvetica,sans-Serif" font-size="10.00">../Settings/Modes/Transitions</text>
<text text-anchor="middle" x="1431" y="-638" font-family="Helvetica,sans-Serif" font-size="10.00">/sl_initial.h</text>
</a>
</g>
</g>
<!-- Node1&#45;&gt;Node32 -->
<g id="edge58" class="edge">
<title>Node1&#45;&gt;Node32</title>
<path fill="none" stroke="midnightblue" d="M1570.21,-703.4C1542.94,-692.36 1504.82,-676.91 1475.36,-664.97"/>
<polygon fill="midnightblue" stroke="midnightblue" points="1476.32,-661.58 1465.73,-661.07 1473.69,-668.07 1476.32,-661.58"/>
</g>
<!-- Node33 -->
<g id="node33" class="node">
<title>Node33</title>
<g id="a_node33"><a xlink:href="sl__nop_8h.html" target="_top" xlink:title=" ">
<polygon fill="white" stroke="black" points="1527,-631 1527,-661 1683,-661 1683,-631 1527,-631"/>
<text text-anchor="start" x="1535" y="-649" font-family="Helvetica,sans-Serif" font-size="10.00">../Settings/Modes/Transitions</text>
<text text-anchor="middle" x="1605" y="-638" font-family="Helvetica,sans-Serif" font-size="10.00">/sl_nop.h</text>
</a>
</g>
</g>
<!-- Node1&#45;&gt;Node33 -->
<g id="edge59" class="edge">
<title>Node1&#45;&gt;Node33</title>
<path fill="none" stroke="midnightblue" d="M1605,-703.23C1605,-694.16 1605,-682.16 1605,-671.58"/>
<polygon fill="midnightblue" stroke="midnightblue" points="1608.5,-671.25 1605,-661.25 1601.5,-671.25 1608.5,-671.25"/>
</g>
<!-- Node34 -->
<g id="node34" class="node">
<title>Node34</title>
<g id="a_node34"><a xlink:href="tl__initial_8h.html" target="_top" xlink:title=" ">
<polygon fill="white" stroke="black" points="1701,-631 1701,-661 1849,-661 1849,-631 1701,-631"/>
<text text-anchor="start" x="1709" y="-649" font-family="Helvetica,sans-Serif" font-size="10.00">../Settings/Modes/TaskLists</text>
<text text-anchor="middle" x="1775" y="-638" font-family="Helvetica,sans-Serif" font-size="10.00">/tl_initial.h</text>
</a>
</g>
</g>
<!-- Node1&#45;&gt;Node34 -->
<g id="edge60" class="edge">
<title>Node1&#45;&gt;Node34</title>
<path fill="none" stroke="midnightblue" d="M1638.99,-703.4C1665.63,-692.36 1702.88,-676.91 1731.66,-664.97"/>
<polygon fill="midnightblue" stroke="midnightblue" points="1733.17,-668.14 1741.07,-661.07 1730.49,-661.67 1733.17,-668.14"/>
</g>
<!-- Node35 -->
<g id="node35" class="node">
<title>Node35</title>
<g id="a_node35"><a xlink:href="tl__elem__tlm__cmd__hirate_8h.html" target="_top" xlink:title=" ">
<polygon fill="white" stroke="black" points="1867.5,-625.5 1867.5,-666.5 2020.5,-666.5 2020.5,-625.5 1867.5,-625.5"/>
<text text-anchor="start" x="1875.5" y="-654.5" font-family="Helvetica,sans-Serif" font-size="10.00">../Settings/Modes/TaskLists</text>
<text text-anchor="start" x="1875.5" y="-643.5" font-family="Helvetica,sans-Serif" font-size="10.00">/Elements/tl_elem_tlm_cmd</text>
<text text-anchor="middle" x="1944" y="-632.5" font-family="Helvetica,sans-Serif" font-size="10.00">_hirate.h</text>
</a>
</g>
</g>
<!-- Node1&#45;&gt;Node35 -->
<g id="edge61" class="edge">
<title>Node1&#45;&gt;Node35</title>
<path fill="none" stroke="midnightblue" d="M1678.47,-703.47C1726.56,-694.14 1791.03,-681.35 1856.97,-667.19"/>
<polygon fill="midnightblue" stroke="midnightblue" points="1858.09,-670.53 1867.13,-665 1856.62,-663.69 1858.09,-670.53"/>
</g>
<!-- Node36 -->
<g id="node36" class="node">
<title>Node36</title>
<g id="a_node36"><a xlink:href="tl__elem__debug__display_8h.html" target="_top" xlink:title=" ">
<polygon fill="white" stroke="black" points="2039,-625.5 2039,-666.5 2187,-666.5 2187,-625.5 2039,-625.5"/>
<text text-anchor="start" x="2047" y="-654.5" font-family="Helvetica,sans-Serif" font-size="10.00">../Settings/Modes/TaskLists</text>
<text text-anchor="start" x="2047" y="-643.5" font-family="Helvetica,sans-Serif" font-size="10.00">/Elements/tl_elem_debug</text>
<text text-anchor="middle" x="2113" y="-632.5" font-family="Helvetica,sans-Serif" font-size="10.00">_display.h</text>
</a>
</g>
</g>
<!-- Node1&#45;&gt;Node36 -->
<g id="edge62" class="edge">
<title>Node1&#45;&gt;Node36</title>
<path fill="none" stroke="midnightblue" d="M1687.3,-710.63C1770.96,-702.98 1904.43,-688.97 2028.8,-667.11"/>
<polygon fill="midnightblue" stroke="midnightblue" points="2029.65,-670.52 2038.88,-665.32 2028.42,-663.62 2029.65,-670.52"/>
</g>
<!-- Node37 -->
<g id="node37" class="node">
<title>Node37</title>
<g id="a_node37"><a xlink:href="tl__elem__drivers__update_8h.html" target="_top" xlink:title=" ">
<polygon fill="white" stroke="black" points="2205,-625.5 2205,-666.5 2353,-666.5 2353,-625.5 2205,-625.5"/>
<text text-anchor="start" x="2213" y="-654.5" font-family="Helvetica,sans-Serif" font-size="10.00">../Settings/Modes/TaskLists</text>
<text text-anchor="start" x="2213" y="-643.5" font-family="Helvetica,sans-Serif" font-size="10.00">/Elements/tl_elem_drivers</text>
<text text-anchor="middle" x="2279" y="-632.5" font-family="Helvetica,sans-Serif" font-size="10.00">_update.h</text>
</a>
</g>
</g>
<!-- Node1&#45;&gt;Node37 -->
<g id="edge63" class="edge">
<title>Node1&#45;&gt;Node37</title>
<path fill="none" stroke="midnightblue" d="M1687.22,-714.4C1799.82,-709.29 2008.33,-696.69 2194.91,-667.05"/>
<polygon fill="midnightblue" stroke="midnightblue" points="2195.58,-670.49 2204.9,-665.44 2194.47,-663.57 2195.58,-670.49"/>
</g>
<!-- Node38 -->
<g id="node38" class="node">
<title>Node38</title>
<g id="a_node38"><a xlink:href="tl__elem__gs__related__process_8h.html" target="_top" xlink:title=" ">
<polygon fill="white" stroke="black" points="2371.5,-625.5 2371.5,-666.5 2532.5,-666.5 2532.5,-625.5 2371.5,-625.5"/>
<text text-anchor="start" x="2379.5" y="-654.5" font-family="Helvetica,sans-Serif" font-size="10.00">../Settings/Modes/TaskLists</text>
<text text-anchor="start" x="2379.5" y="-643.5" font-family="Helvetica,sans-Serif" font-size="10.00">/Elements/tl_elem_gs_related</text>
<text text-anchor="middle" x="2452" y="-632.5" font-family="Helvetica,sans-Serif" font-size="10.00">_process.h</text>
</a>
</g>
</g>
<!-- Node1&#45;&gt;Node38 -->
<g id="edge64" class="edge">
<title>Node1&#45;&gt;Node38</title>
<path fill="none" stroke="midnightblue" d="M1687.2,-716.1C1824.81,-712.86 2110.53,-702.3 2361.13,-667"/>
<polygon fill="midnightblue" stroke="midnightblue" points="2361.75,-670.45 2371.15,-665.57 2360.76,-663.52 2361.75,-670.45"/>
</g>
<!-- Node39 -->
<g id="node39" class="node">
<title>Node39</title>
<g id="a_node39"><a xlink:href="nbc__header_8h.html" target="_top" xlink:title=" ">
<polygon fill="white" stroke="black" points="1875.5,-558.5 1875.5,-588.5 2058.5,-588.5 2058.5,-558.5 1875.5,-558.5"/>
<text text-anchor="start" x="1883.5" y="-576.5" font-family="Helvetica,sans-Serif" font-size="10.00">./NormalBlockCommandDefinition</text>
<text text-anchor="middle" x="1967" y="-565.5" font-family="Helvetica,sans-Serif" font-size="10.00">/nbc_header.h</text>
</a>
</g>
</g>
<!-- Node1&#45;&gt;Node39 -->
<g id="edge65" class="edge">
<title>Node1&#45;&gt;Node39</title>
<path fill="none" stroke="midnightblue" d="M1687.19,-716.11C1910.34,-711.92 2512.81,-697.8 2542,-667 2554.84,-653.45 2554.61,-638.76 2542,-625 2510.75,-590.88 2225.3,-579.71 2068.7,-576.13"/>
<polygon fill="midnightblue" stroke="midnightblue" points="2068.66,-572.63 2058.58,-575.91 2068.5,-579.63 2068.66,-572.63"/>
</g>
<!-- Node3&#45;&gt;Node4 -->
<g id="edge3" class="edge">
<title>Node3&#45;&gt;Node4</title>
<path fill="none" stroke="midnightblue" d="M1129.31,-630.81C1135.86,-619.55 1145.16,-603.35 1153,-589 1192.63,-516.42 1195.33,-494.22 1239,-424 1246.3,-412.27 1255.47,-399.74 1262.85,-390.1"/>
<polygon fill="midnightblue" stroke="midnightblue" points="1265.65,-392.2 1269.03,-382.16 1260.13,-387.9 1265.65,-392.2"/>
</g>
<!-- Node9 -->
<g id="node9" class="node">
<title>Node9</title>
<g id="a_node9"><a xlink:href="obc__time_8h.html" target="_top" xlink:title="OBCの時刻情報の定義と演算">
<polygon fill="white" stroke="black" points="920.5,-207 920.5,-237 1053.5,-237 1053.5,-207 920.5,-207"/>
<text text-anchor="start" x="928.5" y="-225" font-family="Helvetica,sans-Serif" font-size="10.00">../System/TimeManager</text>
<text text-anchor="middle" x="987" y="-214" font-family="Helvetica,sans-Serif" font-size="10.00">/obc_time.h</text>
</a>
</g>
</g>
<!-- Node3&#45;&gt;Node9 -->
<g id="edge52" class="edge">
<title>Node3&#45;&gt;Node9</title>
<path fill="none" stroke="midnightblue" d="M1122.81,-630.75C1125.85,-603.28 1130.61,-541.28 1119,-491 1096.41,-393.13 1032.46,-289.97 1002.65,-245.53"/>
<polygon fill="midnightblue" stroke="midnightblue" points="1005.51,-243.51 997,-237.2 999.72,-247.44 1005.51,-243.51"/>
</g>
<!-- Node17 -->
<g id="node17" class="node">
<title>Node17</title>
<g id="a_node17"><a xlink:href="timeline__command__dispatcher_8h.html" target="_top" xlink:title=" ">
<polygon fill="white" stroke="black" points="650.5,-558.5 650.5,-588.5 785.5,-588.5 785.5,-558.5 650.5,-558.5"/>
<text text-anchor="start" x="658.5" y="-576.5" font-family="Helvetica,sans-Serif" font-size="10.00">../Applications/timeline</text>
<text text-anchor="middle" x="718" y="-565.5" font-family="Helvetica,sans-Serif" font-size="10.00">_command_dispatcher.h</text>
</a>
</g>
</g>
<!-- Node3&#45;&gt;Node17 -->
<g id="edge20" class="edge">
<title>Node3&#45;&gt;Node17</title>
<path fill="none" stroke="midnightblue" d="M1071.15,-630.91C1062.79,-628.77 1054.18,-626.71 1046,-625 960.99,-607.17 862.35,-592.83 795.62,-584.05"/>
<polygon fill="midnightblue" stroke="midnightblue" points="795.97,-580.57 785.6,-582.74 795.06,-587.51 795.97,-580.57"/>
</g>
<!-- Node30 -->
<g id="node30" class="node">
<title>Node30</title>
<g id="a_node30"><a xlink:href="app__registry_8h.html" target="_top" xlink:title=" ">
<polygon fill="white" stroke="black" points="110,-424.5 110,-454.5 230,-454.5 230,-424.5 110,-424.5"/>
<text text-anchor="start" x="118" y="-442.5" font-family="Helvetica,sans-Serif" font-size="10.00">src_user/Applications</text>
<text text-anchor="middle" x="170" y="-431.5" font-family="Helvetica,sans-Serif" font-size="10.00">/app_registry.h</text>
</a>
</g>
</g>
<!-- Node3&#45;&gt;Node30 -->
<g id="edge53" class="edge">
<title>Node3&#45;&gt;Node30</title>
<path fill="none" stroke="midnightblue" d="M1073.26,-630.96C1064.27,-628.69 1054.89,-626.57 1046,-625 692.53,-562.64 560.46,-693.22 245,-522 219.32,-508.06 197.71,-481.96 184.37,-463.04"/>
<polygon fill="midnightblue" stroke="midnightblue" points="187.2,-460.97 178.68,-454.67 181.41,-464.91 187.2,-460.97"/>
</g>
<!-- Node5 -->
<g id="node5" class="node">
<title>Node5</title>
<g id="a_node5"><a xlink:href="stdint_8h.html" target="_top" xlink:title=" ">
<polygon fill="white" stroke="black" points="787,-67.5 787,-86.5 921,-86.5 921,-67.5 787,-67.5"/>
<text text-anchor="middle" x="854" y="-74.5" font-family="Helvetica,sans-Serif" font-size="10.00">src_user/Library/stdint.h</text>
</a>
</g>
</g>
<!-- Node4&#45;&gt;Node5 -->
<g id="edge4" class="edge">
<title>Node4&#45;&gt;Node5</title>
<path fill="none" stroke="midnightblue" d="M1328.18,-362.99C1352.83,-356.06 1380.07,-343.55 1395,-321 1405.3,-305.43 1404.93,-294.81 1395,-279 1295.96,-121.39 1055.76,-86.68 931.43,-79.5"/>
<polygon fill="midnightblue" stroke="midnightblue" points="931.4,-75.99 921.23,-78.96 931.03,-82.98 931.4,-75.99"/>
</g>
<!-- Node7 -->
<g id="node7" class="node">
<title>Node7</title>
<g id="a_node7"><a xlink:href="block__command__table__params_8h.html" target="_top" xlink:title="BCTのCoreTlmパラメタのオーバーライド用ヘッダー">
<polygon fill="white" stroke="black" points="1205.5,-285 1205.5,-315 1386.5,-315 1386.5,-285 1205.5,-285"/>
<text text-anchor="start" x="1213.5" y="-303" font-family="Helvetica,sans-Serif" font-size="10.00">src_user/Settings/TlmCmd</text>
<text text-anchor="middle" x="1296" y="-292" font-family="Helvetica,sans-Serif" font-size="10.00">/block_command_table_params.h</text>
</a>
</g>
</g>
<!-- Node4&#45;&gt;Node7 -->
<g id="edge6" class="edge">
<title>Node4&#45;&gt;Node7</title>
<path fill="none" stroke="midnightblue" d="M1278.45,-362.86C1281.12,-353.46 1285.5,-338.02 1289.21,-324.92"/>
<polygon fill="midnightblue" stroke="midnightblue" points="1292.64,-325.65 1292.01,-315.08 1285.91,-323.74 1292.64,-325.65"/>
</g>
<!-- Node8 -->
<g id="node8" class="node">
<title>Node8</title>
<g id="a_node8"><a xlink:href="common__cmd__packet_8h.html" target="_top" xlink:title="CCP 関連基本関数の宣言">
<polygon fill="white" stroke="black" points="827,-290.5 827,-309.5 959,-309.5 959,-290.5 827,-290.5"/>
<text text-anchor="middle" x="893" y="-297.5" font-family="Helvetica,sans-Serif" font-size="10.00">common_cmd_packet.h</text>
</a>
</g>
</g>
<!-- Node4&#45;&gt;Node8 -->
<g id="edge7" class="edge">
<title>Node4&#45;&gt;Node8</title>
<path fill="none" stroke="midnightblue" d="M1229.8,-363C1159.35,-350.03 1025.25,-325.34 949.24,-311.35"/>
<polygon fill="midnightblue" stroke="midnightblue" points="949.83,-307.9 939.36,-309.53 948.56,-314.79 949.83,-307.9"/>
</g>
<!-- Node6 -->
<g id="node6" class="node">
<title>Node6</title>
<g id="a_node6"><a xlink:href="sils__define_8h.html" target="_top" xlink:title="Switch the build settings between your real OBC and SILS">
<polygon fill="white" stroke="black" points="789.5,-0.5 789.5,-19.5 918.5,-19.5 918.5,-0.5 789.5,-0.5"/>
<text text-anchor="middle" x="854" y="-7.5" font-family="Helvetica,sans-Serif" font-size="10.00">../Settings/sils_define.h</text>
</a>
</g>
</g>
<!-- Node5&#45;&gt;Node6 -->
<g id="edge5" class="edge">
<title>Node5&#45;&gt;Node6</title>
<path fill="none" stroke="midnightblue" d="M854,-67.23C854,-57.68 854,-42.12 854,-29.78"/>
<polygon fill="midnightblue" stroke="midnightblue" points="857.5,-29.63 854,-19.63 850.5,-29.63 857.5,-29.63"/>
</g>
<!-- Node8&#45;&gt;Node9 -->
<g id="edge8" class="edge">
<title>Node8&#45;&gt;Node9</title>
<path fill="none" stroke="midnightblue" d="M903.78,-290.28C917.81,-278.94 942.77,-258.76 961.7,-243.45"/>
<polygon fill="midnightblue" stroke="midnightblue" points="964.08,-246.03 969.66,-237.02 959.68,-240.59 964.08,-246.03"/>
</g>
<!-- Node8&#45;&gt;Node11 -->
<g id="edge11" class="edge">
<title>Node8&#45;&gt;Node11</title>
<path fill="none" stroke="midnightblue" d="M921.76,-290.43C962.63,-278.25 1038.37,-255.67 1090.9,-240.02"/>
<polygon fill="midnightblue" stroke="midnightblue" points="1092.17,-243.29 1100.75,-237.08 1090.17,-236.58 1092.17,-243.29"/>
</g>
<!-- Node12 -->
<g id="node12" class="node">
<title>Node12</title>
<g id="a_node12"><a xlink:href="common__cmd__packet__define_8h.html" target="_top" xlink:title="CCP 型の定義">
<polygon fill="white" stroke="black" points="580,-207 580,-237 750,-237 750,-207 580,-207"/>
<text text-anchor="start" x="588" y="-225" font-family="Helvetica,sans-Serif" font-size="10.00">src_user/Settings/TlmCmd</text>
<text text-anchor="middle" x="665" y="-214" font-family="Helvetica,sans-Serif" font-size="10.00">/common_cmd_packet_define.h</text>
</a>
</g>
</g>
<!-- Node8&#45;&gt;Node12 -->
<g id="edge12" class="edge">
<title>Node8&#45;&gt;Node12</title>
<path fill="none" stroke="midnightblue" d="M867.29,-290.43C830.97,-278.32 763.86,-255.95 716.93,-240.31"/>
<polygon fill="midnightblue" stroke="midnightblue" points="717.84,-236.92 707.24,-237.08 715.62,-243.56 717.84,-236.92"/>
</g>
<!-- Node15 -->
<g id="node15" class="node">
<title>Node15</title>
<g id="a_node15"><a xlink:href="apid__define_8h.html" target="_top" xlink:title="CCSDS の APID を定義する">
<polygon fill="white" stroke="black" points="706.5,-140 706.5,-159 825.5,-159 825.5,-140 706.5,-140"/>
<text text-anchor="middle" x="766" y="-147" font-family="Helvetica,sans-Serif" font-size="10.00">./Ccsds/apid_define.h</text>
</a>
</g>
</g>
<!-- Node8&#45;&gt;Node15 -->
<g id="edge18" class="edge">
<title>Node8&#45;&gt;Node15</title>
<path fill="none" stroke="midnightblue" d="M888.77,-290.48C879.65,-272.63 856.78,-230.5 830,-201 817.48,-187.21 800.91,-174.25 787.77,-164.91"/>
<polygon fill="midnightblue" stroke="midnightblue" points="789.53,-161.87 779.32,-159.06 785.55,-167.63 789.53,-161.87"/>
</g>
<!-- Node16 -->
<g id="node16" class="node">
<title>Node16</title>
<g id="a_node16"><a xlink:href="timeline__command__dispatcher__define_8h.html" target="_top" xlink:title="timeline command dispatcher の各種定義">
<polygon fill="white" stroke="black" points="0,-201.5 0,-242.5 170,-242.5 170,-201.5 0,-201.5"/>
<text text-anchor="start" x="8" y="-230.5" font-family="Helvetica,sans-Serif" font-size="10.00">src_user/Settings/Applications</text>
<text text-anchor="start" x="8" y="-219.5" font-family="Helvetica,sans-Serif" font-size="10.00">/timeline_command_dispatcher</text>
<text text-anchor="middle" x="85" y="-208.5" font-family="Helvetica,sans-Serif" font-size="10.00">_define.h</text>
</a>
</g>
</g>
<!-- Node8&#45;&gt;Node16 -->
<g id="edge19" class="edge">
<title>Node8&#45;&gt;Node16</title>
<path fill="none" stroke="midnightblue" d="M826.85,-291.39C791.09,-287.41 746.16,-282.62 706,-279 488.96,-259.41 433.56,-267.34 217,-243 205,-241.65 192.43,-240.02 180,-238.29"/>
<polygon fill="midnightblue" stroke="midnightblue" points="180.48,-234.82 170.08,-236.87 179.49,-241.75 180.48,-234.82"/>
</g>
<!-- Node9&#45;&gt;Node5 -->
<g id="edge9" class="edge">
<title>Node9&#45;&gt;Node5</title>
<path fill="none" stroke="midnightblue" d="M963.7,-206.97C947.72,-196.63 926.66,-181.55 911,-165 890.8,-143.66 873.25,-114.29 863.14,-95.72"/>
<polygon fill="midnightblue" stroke="midnightblue" points="866.22,-94.06 858.44,-86.87 860.04,-97.35 866.22,-94.06"/>
</g>
<!-- Node10 -->
<g id="node10" class="node">
<title>Node10</title>
<g id="a_node10"><a xlink:href="obc__time__params_8h.html" target="_top" xlink:title="OBCTのCoreパラメタのオーバーライド用ヘッダー">
<polygon fill="white" stroke="black" points="920,-134.5 920,-164.5 1060,-164.5 1060,-134.5 920,-134.5"/>
<text text-anchor="start" x="928" y="-152.5" font-family="Helvetica,sans-Serif" font-size="10.00">src_user/Settings/System</text>
<text text-anchor="middle" x="990" y="-141.5" font-family="Helvetica,sans-Serif" font-size="10.00">/obc_time_params.h</text>
</a>
</g>
</g>
<!-- Node9&#45;&gt;Node10 -->
<g id="edge10" class="edge">
<title>Node9&#45;&gt;Node10</title>
<path fill="none" stroke="midnightblue" d="M987.61,-206.73C988,-197.56 988.51,-185.41 988.97,-174.74"/>
<polygon fill="midnightblue" stroke="midnightblue" points="992.47,-174.89 989.39,-164.75 985.47,-174.59 992.47,-174.89"/>
</g>
<!-- Node13 -->
<g id="node13" class="node">
<title>Node13</title>
<g id="a_node13"><a xlink:href="space__packet__typedef_8h.html" target="_top" xlink:title="SpacePacket 類 と CommonTlmCmdPacket 類が相互参照するのを回避するためのヘッダ">
<polygon fill="white" stroke="black" points="481.5,-134.5 481.5,-164.5 618.5,-164.5 618.5,-134.5 481.5,-134.5"/>
<text text-anchor="start" x="489.5" y="-152.5" font-family="Helvetica,sans-Serif" font-size="10.00">src_core/TlmCmd/Ccsds</text>
<text text-anchor="middle" x="550" y="-141.5" font-family="Helvetica,sans-Serif" font-size="10.00">/space_packet_typedef.h</text>
</a>
</g>
</g>
<!-- Node12&#45;&gt;Node13 -->
<g id="edge13" class="edge">
<title>Node12&#45;&gt;Node13</title>
<path fill="none" stroke="midnightblue" d="M642,-206.9C624.69,-196.29 600.75,-181.61 581.63,-169.89"/>
<polygon fill="midnightblue" stroke="midnightblue" points="583.31,-166.82 572.96,-164.57 579.65,-172.78 583.31,-166.82"/>
</g>
<!-- Node12&#45;&gt;Node15 -->
<g id="edge16" class="edge">
<title>Node12&#45;&gt;Node15</title>
<path fill="none" stroke="midnightblue" d="M685.44,-206.73C702.82,-194.6 727.66,-177.26 745.15,-165.05"/>
<polygon fill="midnightblue" stroke="midnightblue" points="747.35,-167.78 753.55,-159.19 743.35,-162.04 747.35,-167.78"/>
</g>
<!-- Node13&#45;&gt;Node5 -->
<g id="edge14" class="edge">
<title>Node13&#45;&gt;Node5</title>
<path fill="none" stroke="midnightblue" d="M610.42,-134.49C668.34,-121.06 754.52,-101.07 807.33,-88.82"/>
<polygon fill="midnightblue" stroke="midnightblue" points="808.16,-92.22 817.11,-86.55 806.58,-85.4 808.16,-92.22"/>
</g>
<!-- Node14 -->
<g id="node14" class="node">
<title>Node14</title>
<g id="a_node14"><a xlink:href="space__packet__typedef__params_8h.html" target="_top" xlink:title="SpacePacketの パケット型に関するユーザー設定">
<polygon fill="white" stroke="black" points="470,-56.5 470,-97.5 630,-97.5 630,-56.5 470,-56.5"/>
<text text-anchor="start" x="478" y="-85.5" font-family="Helvetica,sans-Serif" font-size="10.00">src_user/Settings/TlmCmd</text>
<text text-anchor="start" x="478" y="-74.5" font-family="Helvetica,sans-Serif" font-size="10.00">/Ccsds/space_packet_typedef</text>
<text text-anchor="middle" x="550" y="-63.5" font-family="Helvetica,sans-Serif" font-size="10.00">_params.h</text>
</a>
</g>
</g>
<!-- Node13&#45;&gt;Node14 -->
<g id="edge15" class="edge">
<title>Node13&#45;&gt;Node14</title>
<path fill="none" stroke="midnightblue" d="M550,-134.23C550,-126.57 550,-116.84 550,-107.63"/>
<polygon fill="midnightblue" stroke="midnightblue" points="553.5,-107.59 550,-97.59 546.5,-107.59 553.5,-107.59"/>
</g>
<!-- Node15&#45;&gt;Node5 -->
<g id="edge17" class="edge">
<title>Node15&#45;&gt;Node5</title>
<path fill="none" stroke="midnightblue" d="M776.79,-139.86C791.31,-128.23 817.35,-107.36 835.14,-93.11"/>
<polygon fill="midnightblue" stroke="midnightblue" points="837.51,-95.7 843.12,-86.72 833.13,-90.24 837.51,-95.7"/>
</g>
<!-- Node17&#45;&gt;Node8 -->
<g id="edge30" class="edge">
<title>Node17&#45;&gt;Node8</title>
<path fill="none" stroke="midnightblue" d="M717.52,-558.36C717.68,-540.56 720.59,-510.04 737,-491 765.4,-458.06 796.9,-485.4 828,-455 848.22,-435.24 875.31,-356.35 887.11,-319.78"/>
<polygon fill="midnightblue" stroke="midnightblue" points="890.55,-320.5 890.25,-309.91 883.88,-318.37 890.55,-320.5"/>
</g>
<!-- Node17&#45;&gt;Node16 -->
<g id="edge21" class="edge">
<title>Node17&#45;&gt;Node16</title>
<path fill="none" stroke="midnightblue" d="M650.27,-567.18C522.59,-555.26 259,-520.93 259,-440.5 259,-440.5 259,-440.5 259,-371.5 259,-311.12 197.63,-270.08 147.78,-246.71"/>
<polygon fill="midnightblue" stroke="midnightblue" points="149.18,-243.5 138.63,-242.55 146.28,-249.87 149.18,-243.5"/>
</g>
<!-- Node18 -->
<g id="node18" class="node">
<title>Node18</title>
<g id="a_node18"><a xlink:href="command__dispatcher_8h.html" target="_top" xlink:title="各種コマンドの実行管理">
<polygon fill="white" stroke="black" points="746.5,-497 746.5,-516 929.5,-516 929.5,-497 746.5,-497"/>
<text text-anchor="middle" x="838" y="-504" font-family="Helvetica,sans-Serif" font-size="10.00">../TlmCmd/command_dispatcher.h</text>
</a>
</g>
</g>
<!-- Node17&#45;&gt;Node18 -->
<g id="edge22" class="edge">
<title>Node17&#45;&gt;Node18</title>
<path fill="none" stroke="midnightblue" d="M744.04,-558.4C764.63,-547.24 793.17,-531.78 813.38,-520.83"/>
<polygon fill="midnightblue" stroke="midnightblue" points="815.17,-523.85 822.29,-516.01 811.83,-517.69 815.17,-523.85"/>
</g>
<!-- Node21 -->
<g id="node21" class="node">
<title>Node21</title>
<g id="a_node21"><a xlink:href="packet__handler_8h.html" target="_top" xlink:title="C2A 全体を流れる Common Packet の配送を制御する">
<polygon fill="white" stroke="black" points="538,-497 538,-516 690,-516 690,-497 538,-497"/>
<text text-anchor="middle" x="614" y="-504" font-family="Helvetica,sans-Serif" font-size="10.00">../TlmCmd/packet_handler.h</text>
</a>
</g>
</g>
<!-- Node17&#45;&gt;Node21 -->
<g id="edge31" class="edge">
<title>Node17&#45;&gt;Node21</title>
<path fill="none" stroke="midnightblue" d="M689.76,-558.4C671.06,-547.6 647.3,-532.76 631.3,-521.89"/>
<polygon fill="midnightblue" stroke="midnightblue" points="633.08,-518.86 622.88,-516.01 629.08,-524.6 633.08,-518.86"/>
</g>
<!-- Node29 -->
<g id="node29" class="node">
<title>Node29</title>
<g id="a_node29"><a xlink:href="app__info_8h.html" target="_top" xlink:title="App 情報構造体定義と App 作成">
<polygon fill="white" stroke="black" points="947.5,-491.5 947.5,-521.5 1110.5,-521.5 1110.5,-491.5 947.5,-491.5"/>
<text text-anchor="start" x="955.5" y="-509.5" font-family="Helvetica,sans-Serif" font-size="10.00">../System/ApplicationManager</text>
<text text-anchor="middle" x="1029" y="-498.5" font-family="Helvetica,sans-Serif" font-size="10.00">/app_info.h</text>
</a>
</g>
</g>
<!-- Node17&#45;&gt;Node29 -->
<g id="edge50" class="edge">
<title>Node17&#45;&gt;Node29</title>
<path fill="none" stroke="midnightblue" d="M785.1,-558.48C834.07,-548.24 900.54,-534.35 951.73,-523.65"/>
<polygon fill="midnightblue" stroke="midnightblue" points="952.68,-527.03 961.75,-521.55 951.25,-520.17 952.68,-527.03"/>
</g>
<!-- Node18&#45;&gt;Node8 -->
<g id="edge24" class="edge">
<title>Node18&#45;&gt;Node8</title>
<path fill="none" stroke="midnightblue" d="M842.69,-496.8C847.83,-486.92 856.03,-470.2 861,-455 876.59,-407.34 886.28,-348.82 890.51,-319.54"/>
<polygon fill="midnightblue" stroke="midnightblue" points="893.99,-319.91 891.91,-309.52 887.06,-318.94 893.99,-319.91"/>
</g>
<!-- Node18&#45;&gt;Node9 -->
<g id="edge23" class="edge">
<title>Node18&#45;&gt;Node9</title>
<path fill="none" stroke="midnightblue" d="M846.42,-496.8C870.02,-471.83 937.15,-396.86 968,-321 977.8,-296.91 982.64,-267.4 984.96,-247.09"/>
<polygon fill="midnightblue" stroke="midnightblue" points="988.45,-247.43 985.99,-237.12 981.49,-246.71 988.45,-247.43"/>
</g>
<!-- Node18&#45;&gt;Node11 -->
<g id="edge29" class="edge">
<title>Node18&#45;&gt;Node11</title>
<path fill="none" stroke="midnightblue" d="M851.27,-496.95C865.87,-487.33 889.82,-470.97 909,-455 995.21,-383.21 1088.01,-287 1127.9,-244.6"/>
<polygon fill="midnightblue" stroke="midnightblue" points="1130.65,-246.79 1134.94,-237.1 1125.55,-242 1130.65,-246.79"/>
</g>
<!-- Node19 -->
<g id="node19" class="node">
<title>Node19</title>
<g id="a_node19"><a xlink:href="packet__list_8h.html" target="_top" xlink:title="CTCP, CTP, CCP のリストとしてのデータ構造を定義. 片方向リストとして実装されている">
<polygon fill="white" stroke="black" points="741,-430 741,-449 819,-449 819,-430 741,-430"/>
<text text-anchor="middle" x="780" y="-437" font-family="Helvetica,sans-Serif" font-size="10.00">packet_list.h</text>
</a>
</g>
</g>
<!-- Node18&#45;&gt;Node19 -->
<g id="edge25" class="edge">
<title>Node18&#45;&gt;Node19</title>
<path fill="none" stroke="midnightblue" d="M830.18,-496.73C821.05,-486.5 805.76,-469.36 794.45,-456.69"/>
<polygon fill="midnightblue" stroke="midnightblue" points="796.97,-454.26 787.7,-449.13 791.74,-458.92 796.97,-454.26"/>
</g>
<!-- Node19&#45;&gt;Node4 -->
<g id="edge28" class="edge">
<title>Node19&#45;&gt;Node4</title>
<path fill="none" stroke="midnightblue" d="M819.33,-433.35C901.8,-422.54 1093.96,-397.36 1200.87,-383.35"/>
<polygon fill="midnightblue" stroke="midnightblue" points="1201.48,-386.8 1210.94,-382.03 1200.57,-379.86 1201.48,-386.8"/>
</g>
<!-- Node19&#45;&gt;Node8 -->
<g id="edge27" class="edge">
<title>Node19&#45;&gt;Node8</title>
<path fill="none" stroke="midnightblue" d="M772.75,-429.95C760.41,-414.31 738.13,-380.51 754,-357 765.31,-340.25 814.1,-323.2 850.71,-312.39"/>
<polygon fill="midnightblue" stroke="midnightblue" points="852.03,-315.65 860.67,-309.51 850.09,-308.92 852.03,-315.65"/>
</g>
<!-- Node20 -->
<g id="node20" class="node">
<title>Node20</title>
<g id="a_node20"><a xlink:title=" ">
<polygon fill="white" stroke="#bfbfbf" points="763,-363 763,-382 819,-382 819,-363 763,-363"/>
<text text-anchor="middle" x="791" y="-370" font-family="Helvetica,sans-Serif" font-size="10.00">stddef.h</text>
</a>
</g>
</g>
<!-- Node19&#45;&gt;Node20 -->
<g id="edge26" class="edge">
<title>Node19&#45;&gt;Node20</title>
<path fill="none" stroke="midnightblue" d="M781.48,-429.73C783.1,-420.18 785.73,-404.62 787.82,-392.28"/>
<polygon fill="midnightblue" stroke="midnightblue" points="791.32,-392.57 789.54,-382.13 784.42,-391.4 791.32,-392.57"/>
</g>
<!-- Node21&#45;&gt;Node17 -->
<g id="edge49" class="edge">
<title>Node21&#45;&gt;Node17</title>
<path fill="none" stroke="midnightblue" d="M632.34,-516.01C649.23,-525.3 674.07,-540.51 692.75,-552.81"/>
<polygon fill="midnightblue" stroke="midnightblue" points="690.85,-555.75 701.11,-558.4 694.74,-549.93 690.85,-555.75"/>
</g>
<!-- Node21&#45;&gt;Node19 -->
<g id="edge48" class="edge">
<title>Node21&#45;&gt;Node19</title>
<path fill="none" stroke="midnightblue" d="M636.04,-496.87C664.9,-485.57 715.65,-465.7 748.54,-452.82"/>
<polygon fill="midnightblue" stroke="midnightblue" points="750.09,-455.97 758.13,-449.06 747.54,-449.45 750.09,-455.97"/>
</g>
<!-- Node22 -->
<g id="node22" class="node">
<title>Node22</title>
<g id="a_node22"><a xlink:href="packet__handler__params_8h.html" target="_top" xlink:title="PHのCoreTlmパラメタのオーバーライド用ヘッダー">
<polygon fill="white" stroke="black" points="378.5,-424.5 378.5,-454.5 523.5,-454.5 523.5,-424.5 378.5,-424.5"/>
<text text-anchor="start" x="386.5" y="-442.5" font-family="Helvetica,sans-Serif" font-size="10.00">src_user/Settings/TlmCmd</text>
<text text-anchor="middle" x="451" y="-431.5" font-family="Helvetica,sans-Serif" font-size="10.00">/packet_handler_params.h</text>
</a>
</g>
</g>
<!-- Node21&#45;&gt;Node22 -->
<g id="edge32" class="edge">
<title>Node21&#45;&gt;Node22</title>
<path fill="none" stroke="midnightblue" d="M592.35,-496.87C567.79,-487.07 527.06,-470.83 495.61,-458.29"/>
<polygon fill="midnightblue" stroke="midnightblue" points="496.76,-454.98 486.18,-454.53 494.17,-461.48 496.76,-454.98"/>
</g>
<!-- Node24 -->
<g id="node24" class="node">
<title>Node24</title>
<g id="a_node24"><a xlink:href="common__tlm__cmd__packet_8h.html" target="_top" xlink:title="CTCP 関連基本関数の宣言">
<polygon fill="white" stroke="black" points="553,-363 553,-382 707,-382 707,-363 553,-363"/>
<text text-anchor="middle" x="630" y="-370" font-family="Helvetica,sans-Serif" font-size="10.00">common_tlm_cmd_packet.h</text>
</a>
</g>
</g>
<!-- Node21&#45;&gt;Node24 -->
<g id="edge35" class="edge">
<title>Node21&#45;&gt;Node24</title>
<path fill="none" stroke="midnightblue" d="M615.05,-496.84C617.62,-475.67 624.25,-420.95 627.75,-392.03"/>
<polygon fill="midnightblue" stroke="midnightblue" points="631.24,-392.37 628.97,-382.02 624.29,-391.53 631.24,-392.37"/>
</g>
<!-- Node22&#45;&gt;Node16 -->
<g id="edge33" class="edge">
<title>Node22&#45;&gt;Node16</title>
<path fill="none" stroke="midnightblue" d="M432.14,-424.37C419.19,-414.49 401.74,-400.81 387,-388 334.09,-342.01 333.62,-314.21 273,-279 244.7,-262.56 211.15,-250.57 180.29,-242.01"/>
<polygon fill="midnightblue" stroke="midnightblue" points="180.94,-238.56 170.37,-239.35 179.12,-245.32 180.94,-238.56"/>
</g>
<!-- Node23 -->
<g id="node23" class="node">
<title>Node23</title>
<g id="a_node23"><a xlink:href="data__recorder__define_8h.html" target="_top" xlink:title="Data Recorder の各種定義">
<polygon fill="white" stroke="black" points="396,-357.5 396,-387.5 506,-387.5 506,-357.5 396,-357.5"/>
<text text-anchor="start" x="404" y="-375.5" font-family="Helvetica,sans-Serif" font-size="10.00">../Applications/data</text>
<text text-anchor="middle" x="451" y="-364.5" font-family="Helvetica,sans-Serif" font-size="10.00">_recorder_define.h</text>
</a>
</g>
</g>
<!-- Node22&#45;&gt;Node23 -->
<g id="edge34" class="edge">
<title>Node22&#45;&gt;Node23</title>
<path fill="none" stroke="midnightblue" d="M451,-424.4C451,-416.64 451,-406.81 451,-397.86"/>
<polygon fill="midnightblue" stroke="midnightblue" points="454.5,-397.58 451,-387.58 447.5,-397.58 454.5,-397.58"/>
</g>
<!-- Node24&#45;&gt;Node5 -->
<g id="edge36" class="edge">
<title>Node24&#45;&gt;Node5</title>
<path fill="none" stroke="midnightblue" d="M667.03,-362.99C693.16,-355.47 727.7,-342.31 752,-321 822.08,-259.54 845.22,-142 851.74,-96.56"/>
<polygon fill="midnightblue" stroke="midnightblue" points="855.21,-97.02 853.06,-86.65 848.28,-96.1 855.21,-97.02"/>
</g>
<!-- Node24&#45;&gt;Node8 -->
<g id="edge46" class="edge">
<title>Node24&#45;&gt;Node8</title>
<path fill="none" stroke="midnightblue" d="M661.72,-363C709.21,-350.27 798.82,-326.25 851.47,-312.13"/>
<polygon fill="midnightblue" stroke="midnightblue" points="852.41,-315.5 861.16,-309.53 850.6,-308.74 852.41,-315.5"/>
</g>
<!-- Node24&#45;&gt;Node15 -->
<g id="edge47" class="edge">
<title>Node24&#45;&gt;Node15</title>
<path fill="none" stroke="midnightblue" d="M648.86,-362.89C683.43,-345.86 755.61,-304.15 780,-243 789.8,-218.43 781.47,-187.69 774.11,-168.57"/>
<polygon fill="midnightblue" stroke="midnightblue" points="777.3,-167.15 770.24,-159.26 770.84,-169.84 777.3,-167.15"/>
</g>
<!-- Node25 -->
<g id="node25" class="node">
<title>Node25</title>
<g id="a_node25"><a xlink:href="common__tlm__cmd__packet__define_8h.html" target="_top" xlink:title="CTCP 型の定義">
<polygon fill="white" stroke="black" points="376,-279.5 376,-320.5 524,-320.5 524,-279.5 376,-279.5"/>
<text text-anchor="start" x="384" y="-308.5" font-family="Helvetica,sans-Serif" font-size="10.00">src_user/Settings/TlmCmd</text>
<text text-anchor="start" x="384" y="-297.5" font-family="Helvetica,sans-Serif" font-size="10.00">/common_tlm_cmd_packet</text>
<text text-anchor="middle" x="450" y="-286.5" font-family="Helvetica,sans-Serif" font-size="10.00">_define.h</text>
</a>
</g>
</g>
<!-- Node24&#45;&gt;Node25 -->
<g id="edge37" class="edge">
<title>Node24&#45;&gt;Node25</title>
<path fill="none" stroke="midnightblue" d="M608.29,-363C583.93,-353.46 543.38,-337.57 509.42,-324.27"/>
<polygon fill="midnightblue" stroke="midnightblue" points="510.63,-320.99 500.04,-320.6 508.07,-327.5 510.63,-320.99"/>
</g>
<!-- Node26 -->
<g id="node26" class="node">
<title>Node26</title>
<g id="a_node26"><a xlink:href="common__tlm__packet_8h.html" target="_top" xlink:title="CTP 関連基本関数の宣言">
<polygon fill="white" stroke="black" points="563,-290.5 563,-309.5 697,-309.5 697,-290.5 563,-290.5"/>
<text text-anchor="middle" x="630" y="-297.5" font-family="Helvetica,sans-Serif" font-size="10.00">./common_tlm_packet.h</text>
</a>
</g>
</g>
<!-- Node24&#45;&gt;Node26 -->
<g id="edge39" class="edge">
<title>Node24&#45;&gt;Node26</title>
<path fill="none" stroke="midnightblue" d="M630,-362.86C630,-352.18 630,-333.72 630,-319.73"/>
<polygon fill="midnightblue" stroke="midnightblue" points="633.5,-319.72 630,-309.72 626.5,-319.72 633.5,-319.72"/>
</g>
<!-- Node25&#45;&gt;Node13 -->
<g id="edge38" class="edge">
<title>Node25&#45;&gt;Node13</title>
<path fill="none" stroke="midnightblue" d="M375.94,-283.5C309.65,-269.27 222.09,-249.45 217,-243 205.45,-228.34 204.83,-215.15 217,-201 249.13,-163.63 383.34,-153.58 471.26,-151.07"/>
<polygon fill="midnightblue" stroke="midnightblue" points="471.57,-154.56 481.48,-150.81 471.39,-147.57 471.57,-154.56"/>
</g>
<!-- Node26&#45;&gt;Node9 -->
<g id="edge40" class="edge">
<title>Node26&#45;&gt;Node9</title>
<path fill="none" stroke="midnightblue" d="M670.26,-290.43C728.52,-278.03 837.39,-254.85 911.03,-239.17"/>
<polygon fill="midnightblue" stroke="midnightblue" points="912.13,-242.52 921.18,-237.01 910.67,-235.67 912.13,-242.52"/>
</g>
<!-- Node26&#45;&gt;Node15 -->
<g id="edge45" class="edge">
<title>Node26&#45;&gt;Node15</title>
<path fill="none" stroke="midnightblue" d="M679.62,-290.45C707.62,-282.9 740.6,-268.86 759,-243 774.37,-221.4 772.87,-189.33 769.84,-169.19"/>
<polygon fill="midnightblue" stroke="midnightblue" points="773.24,-168.35 768.04,-159.12 766.35,-169.58 773.24,-168.35"/>
</g>
<!-- Node27 -->
<g id="node27" class="node">
<title>Node27</title>
<g id="a_node27"><a xlink:href="telemetry__definitions_8h.html" target="_top" xlink:title="テレメトリ定義">
<polygon fill="white" stroke="black" points="226,-207 226,-237 378,-237 378,-207 226,-207"/>
<text text-anchor="start" x="234" y="-225" font-family="Helvetica,sans-Serif" font-size="10.00">src_user/TlmCmd/telemetry</text>
<text text-anchor="middle" x="302" y="-214" font-family="Helvetica,sans-Serif" font-size="10.00">_definitions.h</text>
</a>
</g>
</g>
<!-- Node26&#45;&gt;Node27 -->
<g id="edge41" class="edge">
<title>Node26&#45;&gt;Node27</title>
<path fill="none" stroke="midnightblue" d="M592.52,-290.42C544.78,-279.48 459.73,-259.94 387,-243 381.96,-241.83 376.76,-240.61 371.52,-239.38"/>
<polygon fill="midnightblue" stroke="midnightblue" points="371.97,-235.9 361.44,-237.02 370.37,-242.71 371.97,-235.9"/>
</g>
<!-- Node28 -->
<g id="node28" class="node">
<title>Node28</title>
<g id="a_node28"><a xlink:href="common__tlm__packet__define_8h.html" target="_top" xlink:title="CTP 型の定義">
<polygon fill="white" stroke="black" points="396,-207 396,-237 562,-237 562,-207 396,-207"/>
<text text-anchor="start" x="404" y="-225" font-family="Helvetica,sans-Serif" font-size="10.00">src_user/Settings/TlmCmd</text>
<text text-anchor="middle" x="479" y="-214" font-family="Helvetica,sans-Serif" font-size="10.00">/common_tlm_packet_define.h</text>
</a>
</g>
</g>
<!-- Node26&#45;&gt;Node28 -->
<g id="edge42" class="edge">
<title>Node26&#45;&gt;Node28</title>
<path fill="none" stroke="midnightblue" d="M612.97,-290.43C589.63,-278.68 547.06,-257.26 516.16,-241.7"/>
<polygon fill="midnightblue" stroke="midnightblue" points="517.48,-238.45 506.98,-237.08 514.34,-244.7 517.48,-238.45"/>
</g>
<!-- Node28&#45;&gt;Node13 -->
<g id="edge43" class="edge">
<title>Node28&#45;&gt;Node13</title>
<path fill="none" stroke="midnightblue" d="M493.37,-206.73C503.38,-196.8 516.91,-183.36 528.23,-172.11"/>
<polygon fill="midnightblue" stroke="midnightblue" points="531.02,-174.28 535.65,-164.75 526.09,-169.31 531.02,-174.28"/>
</g>
<!-- Node28&#45;&gt;Node15 -->
<g id="edge44" class="edge">
<title>Node28&#45;&gt;Node15</title>
<path fill="none" stroke="midnightblue" d="M536.05,-206.99C590.49,-193.61 671.41,-173.74 721.32,-161.48"/>
<polygon fill="midnightblue" stroke="midnightblue" points="722.3,-164.84 731.17,-159.05 720.63,-158.04 722.3,-164.84"/>
</g>
<!-- Node29&#45;&gt;Node9 -->
<g id="edge51" class="edge">
<title>Node29&#45;&gt;Node9</title>
<path fill="none" stroke="midnightblue" d="M1027.86,-491.36C1024.83,-455.59 1015.82,-358.66 1001,-279 999.03,-268.44 996.26,-256.9 993.7,-247.05"/>
<polygon fill="midnightblue" stroke="midnightblue" points="997.02,-245.92 991.05,-237.17 990.26,-247.73 997.02,-245.92"/>
</g>
<!-- Node30&#45;&gt;Node16 -->
<g id="edge54" class="edge">
<title>Node30&#45;&gt;Node16</title>
<path fill="none" stroke="midnightblue" d="M164.42,-424.36C150.69,-389.55 115.04,-299.15 96.53,-252.22"/>
<polygon fill="midnightblue" stroke="midnightblue" points="99.67,-250.65 92.74,-242.64 93.16,-253.22 99.67,-250.65"/>
</g>
<!-- Node39&#45;&gt;Node4 -->
<g id="edge66" class="edge">
<title>Node39&#45;&gt;Node4</title>
<path fill="none" stroke="midnightblue" d="M1918.13,-558.43C1787.9,-520.92 1434.3,-419.09 1315.52,-384.88"/>
<polygon fill="midnightblue" stroke="midnightblue" points="1316.32,-381.47 1305.75,-382.07 1314.39,-388.2 1316.32,-381.47"/>
</g>
</g>
</svg>
