<?xml version="1.0" encoding="UTF-8" standalone="no"?>
<!DOCTYPE svg PUBLIC "-//W3C//DTD SVG 1.1//EN"
 "http://www.w3.org/Graphics/SVG/1.1/DTD/svg11.dtd">
<!-- Generated by graphviz version 2.43.0 (0)
 -->
<!-- Title: BCL_tool_prepare_param_uint32 Pages: 1 -->
<svg width="1589pt" height="285pt"
 viewBox="0.00 0.00 1589.00 285.00" xmlns="http://www.w3.org/2000/svg" xmlns:xlink="http://www.w3.org/1999/xlink">
<g id="graph0" class="graph" transform="scale(1 1) rotate(0) translate(4 281)">
<title>BCL_tool_prepare_param_uint32</title>
<polygon fill="white" stroke="transparent" points="-4,4 -4,-281 1585,-281 1585,4 -4,4"/>
<!-- Node1 -->
<g id="node1" class="node">
<title>Node1</title>
<g id="a_node1"><a xlink:title="コマンド登録前にコマンドの引数としてuint32のパラメータを追加する">
<polygon fill="#bfbfbf" stroke="black" points="1442,-101.5 1442,-131.5 1581,-131.5 1581,-101.5 1442,-101.5"/>
<text text-anchor="start" x="1450" y="-119.5" font-family="Helvetica,sans-Serif" font-size="10.00">BCL_tool_prepare_param</text>
<text text-anchor="middle" x="1511.5" y="-108.5" font-family="Helvetica,sans-Serif" font-size="10.00">_uint32</text>
</a>
</g>
</g>
<!-- Node2 -->
<g id="node2" class="node">
<title>Node2</title>
<g id="a_node2"><a xlink:href="nbc__respond__eh__for__test_8c.html#a3db48d680628bbf52f4cd1fc444b9c36" target="_top" xlink:title=" ">
<polygon fill="white" stroke="black" points="1083,-246.5 1083,-276.5 1206,-276.5 1206,-246.5 1083,-246.5"/>
<text text-anchor="start" x="1091" y="-264.5" font-family="Helvetica,sans-Serif" font-size="10.00">BCL_load_respond_eh</text>
<text text-anchor="middle" x="1144.5" y="-253.5" font-family="Helvetica,sans-Serif" font-size="10.00">_for_test</text>
</a>
</g>
</g>
<!-- Node1&#45;&gt;Node2 -->
<g id="edge1" class="edge">
<title>Node1&#45;&gt;Node2</title>
<path fill="none" stroke="midnightblue" d="M1492.86,-139.45C1473.97,-162.3 1441.82,-196.49 1406,-214.5 1342.67,-246.34 1261.08,-256.88 1206.23,-260.22"/>
<polygon fill="midnightblue" stroke="midnightblue" points="1495.64,-141.58 1499.2,-131.6 1490.2,-137.18 1495.64,-141.58"/>
</g>
<!-- Node9 -->
<g id="node9" class="node">
<title>Node9</title>
<g id="a_node9"><a xlink:href="nbc__test__bcl_8c.html#aacbd7fc1d4d5ab306e6dc7c0f3e22ece" target="_top" xlink:title=" ">
<polygon fill="white" stroke="black" points="1279,-186 1279,-205 1384,-205 1384,-186 1279,-186"/>
<text text-anchor="middle" x="1331.5" y="-193" font-family="Helvetica,sans-Serif" font-size="10.00">BCL_load_test_bcl</text>
</a>
</g>
</g>
<!-- Node1&#45;&gt;Node9 -->
<g id="edge8" class="edge">
<title>Node1&#45;&gt;Node9</title>
<path fill="none" stroke="midnightblue" d="M1467.34,-135.66C1431.46,-151.58 1381.93,-173.56 1353.97,-185.97"/>
<polygon fill="midnightblue" stroke="midnightblue" points="1468.88,-138.8 1476.6,-131.55 1466.04,-132.4 1468.88,-138.8"/>
</g>
<!-- Node10 -->
<g id="node10" class="node">
<title>Node10</title>
<g id="a_node10"><a xlink:href="block__command__loader_8h.html#a99596019ff3a563f43ebae43ce86a03a" target="_top" xlink:title="ブロックコマンドの最後にコンバイナーの実行コマンドを追加する">
<polygon fill="white" stroke="black" points="1257,-88 1257,-107 1406,-107 1406,-88 1257,-88"/>
<text text-anchor="middle" x="1331.5" y="-95" font-family="Helvetica,sans-Serif" font-size="10.00">BCL_tool_register_combine</text>
</a>
</g>
</g>
<!-- Node1&#45;&gt;Node10 -->
<g id="edge10" class="edge">
<title>Node1&#45;&gt;Node10</title>
<path fill="none" stroke="midnightblue" d="M1431.92,-108.11C1423.32,-107.19 1414.59,-106.26 1406.05,-105.35"/>
<polygon fill="midnightblue" stroke="midnightblue" points="1431.62,-111.6 1441.94,-109.18 1432.36,-104.64 1431.62,-111.6"/>
</g>
<!-- Node18 -->
<g id="node18" class="node">
<title>Node18</title>
<g id="a_node18"><a xlink:href="block__command__loader_8h.html#af4cd27ff6d5da716d1907556847d7326" target="_top" xlink:title="ブロックコマンドの最後にブロックコマンドの展開コマンドを追加する">
<polygon fill="white" stroke="black" points="1261.5,-126 1261.5,-145 1401.5,-145 1401.5,-126 1261.5,-126"/>
<text text-anchor="middle" x="1331.5" y="-133" font-family="Helvetica,sans-Serif" font-size="10.00">BCL_tool_register_deploy</text>
</a>
</g>
</g>
<!-- Node1&#45;&gt;Node18 -->
<g id="edge21" class="edge">
<title>Node1&#45;&gt;Node18</title>
<path fill="none" stroke="midnightblue" d="M1431.92,-124.89C1421.82,-125.97 1411.55,-127.06 1401.62,-128.12"/>
<polygon fill="midnightblue" stroke="midnightblue" points="1432.36,-128.36 1441.94,-123.82 1431.62,-121.4 1432.36,-128.36"/>
</g>
<!-- Node21 -->
<g id="node21" class="node">
<title>Node21</title>
<g id="a_node21"><a xlink:href="block__command__loader_8h.html#a5b59475bbbf303eaca56af95565e6f69" target="_top" xlink:title="ブロックコマンドの最後にタイムリミットコンバイナーの実行コマンドを追加する">
<polygon fill="white" stroke="black" points="1266.5,-0.5 1266.5,-30.5 1396.5,-30.5 1396.5,-0.5 1266.5,-0.5"/>
<text text-anchor="start" x="1274.5" y="-18.5" font-family="Helvetica,sans-Serif" font-size="10.00">BCL_tool_register_limit</text>
<text text-anchor="middle" x="1331.5" y="-7.5" font-family="Helvetica,sans-Serif" font-size="10.00">_combine</text>
</a>
</g>
</g>
<!-- Node1&#45;&gt;Node21 -->
<g id="edge27" class="edge">
<title>Node1&#45;&gt;Node21</title>
<path fill="none" stroke="midnightblue" d="M1485.26,-94.78C1464.94,-78.14 1435.06,-55.57 1406,-40.5 1398.94,-36.84 1391.23,-33.54 1383.55,-30.63"/>
<polygon fill="midnightblue" stroke="midnightblue" points="1483.16,-97.58 1493.09,-101.28 1487.63,-92.2 1483.16,-97.58"/>
</g>
<!-- Node22 -->
<g id="node22" class="node">
<title>Node22</title>
<g id="a_node22"><a xlink:href="block__command__loader_8h.html#a03346645bccaa62a79cee806dfb3609e" target="_top" xlink:title="ブロックコマンドの最後にローテーターの実行コマンドを追加する">
<polygon fill="white" stroke="black" points="1263,-50 1263,-69 1400,-69 1400,-50 1263,-50"/>
<text text-anchor="middle" x="1331.5" y="-57" font-family="Helvetica,sans-Serif" font-size="10.00">BCL_tool_register_rotate</text>
</a>
</g>
</g>
<!-- Node1&#45;&gt;Node22 -->
<g id="edge28" class="edge">
<title>Node1&#45;&gt;Node22</title>
<path fill="none" stroke="midnightblue" d="M1462.13,-97.82C1444.58,-91.33 1424.51,-84.24 1406,-78.5 1395.17,-75.14 1383.33,-71.89 1372.37,-69.06"/>
<polygon fill="midnightblue" stroke="midnightblue" points="1461.01,-101.13 1471.6,-101.35 1463.45,-94.57 1461.01,-101.13"/>
</g>
<!-- Node3 -->
<g id="node3" class="node">
<title>Node3</title>
<g id="a_node3"><a xlink:href="block__command__definitions_8h.html#a522491947d97b89960b9228a8a86c3ec" target="_top" xlink:title="各ブロックコマンドIDに中身の初期値をロードしていく">
<polygon fill="white" stroke="black" points="930,-169 930,-188 1031,-188 1031,-169 930,-169"/>
<text text-anchor="middle" x="980.5" y="-176" font-family="Helvetica,sans-Serif" font-size="10.00">BC_load_defaults</text>
</a>
</g>
</g>
<!-- Node2&#45;&gt;Node3 -->
<g id="edge2" class="edge">
<title>Node2&#45;&gt;Node3</title>
<path fill="none" stroke="midnightblue" d="M1092.52,-242.63C1084.22,-239.16 1075.79,-235.4 1068,-231.5 1041.38,-218.18 1012.21,-199.35 995.46,-188.09"/>
<polygon fill="midnightblue" stroke="midnightblue" points="1091.21,-245.88 1101.79,-246.41 1093.85,-239.39 1091.21,-245.88"/>
</g>
<!-- Node4 -->
<g id="node4" class="node">
<title>Node4</title>
<g id="a_node4"><a xlink:href="block__command__table_8h.html#a626372f9ceecbe91c090aac87437edd1" target="_top" xlink:title="BCT の初期化関数">
<polygon fill="white" stroke="black" points="577,-162 577,-181 660,-181 660,-162 577,-162"/>
<text text-anchor="middle" x="618.5" y="-169" font-family="Helvetica,sans-Serif" font-size="10.00">BCT_initialize</text>
</a>
</g>
</g>
<!-- Node3&#45;&gt;Node4 -->
<g id="edge3" class="edge">
<title>Node3&#45;&gt;Node4</title>
<path fill="none" stroke="midnightblue" d="M919.79,-177.34C846.28,-175.91 723.43,-173.52 660.06,-172.29"/>
<polygon fill="midnightblue" stroke="midnightblue" points="919.76,-180.84 929.82,-177.53 919.89,-173.84 919.76,-180.84"/>
</g>
<!-- Node5 -->
<g id="node5" class="node">
<title>Node5</title>
<g id="a_node5"><a xlink:href="c2a__core__main_8h.html#a65ecdc63d8762ffde4db7f6c6e6f07cf" target="_top" xlink:title=" ">
<polygon fill="white" stroke="black" points="330,-142 330,-161 413,-161 413,-142 330,-142"/>
<text text-anchor="middle" x="371.5" y="-149" font-family="Helvetica,sans-Serif" font-size="10.00">C2A_core_init</text>
</a>
</g>
</g>
<!-- Node4&#45;&gt;Node5 -->
<g id="edge4" class="edge">
<title>Node4&#45;&gt;Node5</title>
<path fill="none" stroke="midnightblue" d="M566.54,-167.34C521.08,-163.63 455.4,-158.27 413.33,-154.83"/>
<polygon fill="midnightblue" stroke="midnightblue" points="566.52,-170.85 576.77,-168.17 567.09,-163.87 566.52,-170.85"/>
</g>
<!-- Node6 -->
<g id="node6" class="node">
<title>Node6</title>
<g id="a_node6"><a xlink:href="c2a__main_8c.html#a630222a80cd8bffd4426d4a55a215069" target="_top" xlink:title=" ">
<polygon fill="white" stroke="black" points="232,-142 232,-161 294,-161 294,-142 232,-142"/>
<text text-anchor="middle" x="263" y="-149" font-family="Helvetica,sans-Serif" font-size="10.00">C2A_init_</text>
</a>
</g>
</g>
<!-- Node5&#45;&gt;Node6 -->
<g id="edge5" class="edge">
<title>Node5&#45;&gt;Node6</title>
<path fill="none" stroke="midnightblue" d="M319.76,-151.5C311.01,-151.5 302.17,-151.5 294.18,-151.5"/>
<polygon fill="midnightblue" stroke="midnightblue" points="319.93,-155 329.93,-151.5 319.93,-148 319.93,-155"/>
</g>
<!-- Node7 -->
<g id="node7" class="node">
<title>Node7</title>
<g id="a_node7"><a xlink:href="c2a__main_8c.html#ac3344a311adda8f9e7310924bedf81fc" target="_top" xlink:title=" ">
<polygon fill="white" stroke="black" points="77,-142 77,-161 196,-161 196,-142 77,-142"/>
<text text-anchor="middle" x="136.5" y="-149" font-family="Helvetica,sans-Serif" font-size="10.00">address_fixed_main_</text>
</a>
</g>
</g>
<!-- Node6&#45;&gt;Node7 -->
<g id="edge6" class="edge">
<title>Node6&#45;&gt;Node7</title>
<path fill="none" stroke="midnightblue" d="M221.83,-151.5C213.62,-151.5 204.82,-151.5 196.12,-151.5"/>
<polygon fill="midnightblue" stroke="midnightblue" points="221.86,-155 231.86,-151.5 221.86,-148 221.86,-155"/>
</g>
<!-- Node8 -->
<g id="node8" class="node">
<title>Node8</title>
<g id="a_node8"><a xlink:href="c2a__main_8c.html#a840291bc02cba5474a4cb46a9b9566fe" target="_top" xlink:title=" ">
<polygon fill="white" stroke="black" points="0,-142 0,-161 41,-161 41,-142 0,-142"/>
<text text-anchor="middle" x="20.5" y="-149" font-family="Helvetica,sans-Serif" font-size="10.00">main</text>
</a>
</g>
</g>
<!-- Node7&#45;&gt;Node8 -->
<g id="edge7" class="edge">
<title>Node7&#45;&gt;Node8</title>
<path fill="none" stroke="midnightblue" d="M66.64,-151.5C57.37,-151.5 48.53,-151.5 41.18,-151.5"/>
<polygon fill="midnightblue" stroke="midnightblue" points="66.83,-155 76.83,-151.5 66.83,-148 66.83,-155"/>
</g>
<!-- Node9&#45;&gt;Node3 -->
<g id="edge9" class="edge">
<title>Node9&#45;&gt;Node3</title>
<path fill="none" stroke="midnightblue" d="M1268.52,-200.55C1215.19,-203.86 1136.28,-206.29 1068,-198.5 1050.24,-196.47 1030.81,-192.18 1014.88,-188.08"/>
<polygon fill="midnightblue" stroke="midnightblue" points="1268.75,-204.04 1278.51,-199.9 1268.3,-197.06 1268.75,-204.04"/>
</g>
<!-- Node11 -->
<g id="node11" class="node">
<title>Node11</title>
<g id="a_node11"><a xlink:href="tl__initial_8h.html#af6862d0b2e049d2909fe805ff11763a2" target="_top" xlink:title=" ">
<polygon fill="white" stroke="black" points="1091,-44 1091,-63 1198,-63 1198,-44 1091,-44"/>
<text text-anchor="middle" x="1144.5" y="-51" font-family="Helvetica,sans-Serif" font-size="10.00">BCL_load_tl_initial</text>
</a>
</g>
</g>
<!-- Node10&#45;&gt;Node11 -->
<g id="edge11" class="edge">
<title>Node10&#45;&gt;Node11</title>
<path fill="none" stroke="midnightblue" d="M1280.56,-85.62C1250.76,-78.54 1213.43,-69.66 1185.56,-63.03"/>
<polygon fill="midnightblue" stroke="midnightblue" points="1279.82,-89.04 1290.36,-87.95 1281.44,-82.23 1279.82,-89.04"/>
</g>
<!-- Node12 -->
<g id="node12" class="node">
<title>Node12</title>
<g id="a_node12"><a xlink:href="telemetry__manager_8c.html#ac73e2b57fc1dc9c21cacd12f0772a84d" target="_top" xlink:title="BC全体を展開していくmaster BCの構築">
<polygon fill="white" stroke="black" points="1068,-82 1068,-101 1221,-101 1221,-82 1068,-82"/>
<text text-anchor="middle" x="1144.5" y="-89" font-family="Helvetica,sans-Serif" font-size="10.00">TLM_MGR_load_master_bc_</text>
</a>
</g>
</g>
<!-- Node10&#45;&gt;Node12 -->
<g id="edge13" class="edge">
<title>Node10&#45;&gt;Node12</title>
<path fill="none" stroke="midnightblue" d="M1246.82,-94.79C1238.22,-94.51 1229.52,-94.22 1221.01,-93.95"/>
<polygon fill="midnightblue" stroke="midnightblue" points="1246.74,-98.29 1256.85,-95.11 1246.97,-91.29 1246.74,-98.29"/>
</g>
<!-- Node11&#45;&gt;Node3 -->
<g id="edge12" class="edge">
<title>Node11&#45;&gt;Node3</title>
<path fill="none" stroke="midnightblue" d="M1081.24,-65.66C1076.6,-67.61 1072.13,-69.87 1068,-72.5 1057.68,-79.06 1007.96,-143.7 988.93,-168.7"/>
<polygon fill="midnightblue" stroke="midnightblue" points="1082.76,-68.83 1090.93,-62.08 1080.33,-62.26 1082.76,-68.83"/>
</g>
<!-- Node13 -->
<g id="node13" class="node">
<title>Node13</title>
<g id="a_node13"><a xlink:href="telemetry__manager_8h.html#af33b34d33dbb6ce127f3fc6d240f2a23" target="_top" xlink:title="master bc の初期化">
<polygon fill="white" stroke="black" points="711,-120 711,-139 893,-139 893,-120 711,-120"/>
<text text-anchor="middle" x="802" y="-127" font-family="Helvetica,sans-Serif" font-size="10.00">Cmd_TLM_MGR_INIT_MASTER_BC</text>
</a>
</g>
</g>
<!-- Node12&#45;&gt;Node13 -->
<g id="edge14" class="edge">
<title>Node12&#45;&gt;Node13</title>
<path fill="none" stroke="midnightblue" d="M1083.05,-102.77C1066.54,-105.59 1048.62,-108.4 1032,-110.5 986.39,-116.27 935.43,-120.69 893.19,-123.82"/>
<polygon fill="midnightblue" stroke="midnightblue" points="1083.87,-106.19 1093.13,-101.03 1082.68,-99.29 1083.87,-106.19"/>
</g>
<!-- Node16 -->
<g id="node16" class="node">
<title>Node16</title>
<g id="a_node16"><a xlink:href="telemetry__manager_8c.html#a86b153bbb4a7d281564275efdf95667e" target="_top" xlink:title=" ">
<polygon fill="white" stroke="black" points="929,-82 929,-101 1032,-101 1032,-82 929,-82"/>
<text text-anchor="middle" x="980.5" y="-89" font-family="Helvetica,sans-Serif" font-size="10.00">TLM_MGR_init_4_</text>
</a>
</g>
</g>
<!-- Node12&#45;&gt;Node16 -->
<g id="edge18" class="edge">
<title>Node12&#45;&gt;Node16</title>
<path fill="none" stroke="midnightblue" d="M1057.56,-91.5C1048.92,-91.5 1040.35,-91.5 1032.25,-91.5"/>
<polygon fill="midnightblue" stroke="midnightblue" points="1057.72,-95 1067.72,-91.5 1057.72,-88 1057.72,-95"/>
</g>
<!-- Node14 -->
<g id="node14" class="node">
<title>Node14</title>
<g id="a_node14"><a xlink:href="command__definitions_8c.html#aa375895192b16d8e7f0ff4545b54e6c4" target="_top" xlink:title="Cmd Tableのロード">
<polygon fill="white" stroke="black" points="562,-120 562,-139 675,-139 675,-120 562,-120"/>
<text text-anchor="middle" x="618.5" y="-127" font-family="Helvetica,sans-Serif" font-size="10.00">CA_load_cmd_table</text>
</a>
</g>
</g>
<!-- Node13&#45;&gt;Node14 -->
<g id="edge15" class="edge">
<title>Node13&#45;&gt;Node14</title>
<path fill="none" stroke="midnightblue" d="M700.59,-129.5C691.94,-129.5 683.4,-129.5 675.31,-129.5"/>
<polygon fill="midnightblue" stroke="midnightblue" points="700.78,-133 710.78,-129.5 700.78,-126 700.78,-133"/>
</g>
<!-- Node15 -->
<g id="node15" class="node">
<title>Node15</title>
<g id="a_node15"><a xlink:href="command__analyze_8h.html#ae6d1f376bf4e1c9c4b63bc3f04924c8a" target="_top" xlink:title="CA の初期化">
<polygon fill="white" stroke="black" points="449,-123 449,-142 526,-142 526,-123 449,-123"/>
<text text-anchor="middle" x="487.5" y="-130" font-family="Helvetica,sans-Serif" font-size="10.00">CA_initialize</text>
</a>
</g>
</g>
<!-- Node14&#45;&gt;Node15 -->
<g id="edge16" class="edge">
<title>Node14&#45;&gt;Node15</title>
<path fill="none" stroke="midnightblue" d="M551.5,-131.03C542.82,-131.24 534.17,-131.44 526.19,-131.62"/>
<polygon fill="midnightblue" stroke="midnightblue" points="551.75,-134.53 561.67,-130.8 551.59,-127.53 551.75,-134.53"/>
</g>
<!-- Node15&#45;&gt;Node5 -->
<g id="edge17" class="edge">
<title>Node15&#45;&gt;Node5</title>
<path fill="none" stroke="midnightblue" d="M438.72,-140.46C430.25,-141.88 421.5,-143.33 413.24,-144.71"/>
<polygon fill="midnightblue" stroke="midnightblue" points="439.57,-143.87 448.86,-138.77 438.42,-136.97 439.57,-143.87"/>
</g>
<!-- Node17 -->
<g id="node17" class="node">
<title>Node17</title>
<g id="a_node17"><a xlink:href="telemetry__manager_8h.html#a19d6e76042721fe9e576dbacaf49b365" target="_top" xlink:title="初期化">
<polygon fill="white" stroke="black" points="743,-82 743,-101 861,-101 861,-82 743,-82"/>
<text text-anchor="middle" x="802" y="-89" font-family="Helvetica,sans-Serif" font-size="10.00">Cmd_TLM_MGR_INIT</text>
</a>
</g>
</g>
<!-- Node16&#45;&gt;Node17 -->
<g id="edge19" class="edge">
<title>Node16&#45;&gt;Node17</title>
<path fill="none" stroke="midnightblue" d="M918.75,-91.5C900.07,-91.5 879.55,-91.5 861.05,-91.5"/>
<polygon fill="midnightblue" stroke="midnightblue" points="918.92,-95 928.92,-91.5 918.92,-88 918.92,-95"/>
</g>
<!-- Node17&#45;&gt;Node14 -->
<g id="edge20" class="edge">
<title>Node17&#45;&gt;Node14</title>
<path fill="none" stroke="midnightblue" d="M745.21,-103.18C719.47,-108.57 689.3,-114.89 664.97,-119.98"/>
<polygon fill="midnightblue" stroke="midnightblue" points="746.13,-106.56 755.2,-101.09 744.69,-99.71 746.13,-106.56"/>
</g>
<!-- Node18&#45;&gt;Node12 -->
<g id="edge26" class="edge">
<title>Node18&#45;&gt;Node12</title>
<path fill="none" stroke="midnightblue" d="M1280.56,-123.62C1250.76,-116.54 1213.43,-107.66 1185.56,-101.03"/>
<polygon fill="midnightblue" stroke="midnightblue" points="1279.82,-127.04 1290.36,-125.95 1281.44,-120.23 1279.82,-127.04"/>
</g>
<!-- Node19 -->
<g id="node19" class="node">
<title>Node19</title>
<g id="a_node19"><a xlink:href="sl__initial_8h.html#a69c9fa67c5ba13f8c12759f823b67d66" target="_top" xlink:title=" ">
<polygon fill="white" stroke="black" points="1084.5,-120.5 1084.5,-150.5 1204.5,-150.5 1204.5,-120.5 1084.5,-120.5"/>
<text text-anchor="start" x="1092.5" y="-138.5" font-family="Helvetica,sans-Serif" font-size="10.00">BCL_load_sl_start_up</text>
<text text-anchor="middle" x="1144.5" y="-127.5" font-family="Helvetica,sans-Serif" font-size="10.00">_to_initial</text>
</a>
</g>
</g>
<!-- Node18&#45;&gt;Node19 -->
<g id="edge22" class="edge">
<title>Node18&#45;&gt;Node19</title>
<path fill="none" stroke="midnightblue" d="M1251.17,-135.5C1235.53,-135.5 1219.39,-135.5 1204.56,-135.5"/>
<polygon fill="midnightblue" stroke="midnightblue" points="1251.35,-139 1261.35,-135.5 1251.35,-132 1251.35,-139"/>
</g>
<!-- Node20 -->
<g id="node20" class="node">
<title>Node20</title>
<g id="a_node20"><a xlink:href="nbc__start__hk__tlm_8c.html#a56103faa9caea8b5ce4f318c4f5c8615" target="_top" xlink:title=" ">
<polygon fill="white" stroke="black" points="1080.5,-170 1080.5,-189 1208.5,-189 1208.5,-170 1080.5,-170"/>
<text text-anchor="middle" x="1144.5" y="-177" font-family="Helvetica,sans-Serif" font-size="10.00">BCL_load_start_hk_tlm</text>
</a>
</g>
</g>
<!-- Node18&#45;&gt;Node20 -->
<g id="edge24" class="edge">
<title>Node18&#45;&gt;Node20</title>
<path fill="none" stroke="midnightblue" d="M1280.56,-147.38C1250.76,-154.46 1213.43,-163.34 1185.56,-169.97"/>
<polygon fill="midnightblue" stroke="midnightblue" points="1281.44,-150.77 1290.36,-145.05 1279.82,-143.96 1281.44,-150.77"/>
</g>
<!-- Node19&#45;&gt;Node3 -->
<g id="edge23" class="edge">
<title>Node19&#45;&gt;Node3</title>
<path fill="none" stroke="midnightblue" d="M1076.99,-153.15C1056.68,-158.55 1035.11,-164.27 1017.62,-168.91"/>
<polygon fill="midnightblue" stroke="midnightblue" points="1078.07,-156.49 1086.84,-150.54 1076.28,-149.72 1078.07,-156.49"/>
</g>
<!-- Node20&#45;&gt;Node3 -->
<g id="edge25" class="edge">
<title>Node20&#45;&gt;Node3</title>
<path fill="none" stroke="midnightblue" d="M1070.34,-179.05C1057.07,-178.97 1043.53,-178.88 1031.14,-178.81"/>
<polygon fill="midnightblue" stroke="midnightblue" points="1070.38,-182.55 1080.4,-179.11 1070.42,-175.55 1070.38,-182.55"/>
</g>
<!-- Node22&#45;&gt;Node11 -->
<g id="edge29" class="edge">
<title>Node22&#45;&gt;Node11</title>
<path fill="none" stroke="midnightblue" d="M1252.79,-56.98C1234.36,-56.38 1215.13,-55.76 1198.12,-55.21"/>
<polygon fill="midnightblue" stroke="midnightblue" points="1252.82,-60.48 1262.93,-57.31 1253.04,-53.49 1252.82,-60.48"/>
</g>
<!-- Node22&#45;&gt;Node12 -->
<g id="edge30" class="edge">
<title>Node22&#45;&gt;Node12</title>
<path fill="none" stroke="midnightblue" d="M1265.6,-70.73C1244.38,-74.4 1221.04,-78.43 1200.61,-81.97"/>
<polygon fill="midnightblue" stroke="midnightblue" points="1266.24,-74.17 1275.49,-69.01 1265.04,-67.27 1266.24,-74.17"/>
</g>
</g>
</svg>
