<?xml version="1.0" encoding="UTF-8" standalone="no"?>
<!DOCTYPE svg PUBLIC "-//W3C//DTD SVG 1.1//EN"
 "http://www.w3.org/Graphics/SVG/1.1/DTD/svg11.dtd">
<!-- Generated by graphviz version 2.43.0 (0)
 -->
<!-- Title: BCL_tool_register_cmd Pages: 1 -->
<svg width="1771pt" height="246pt"
 viewBox="0.00 0.00 1771.00 246.00" xmlns="http://www.w3.org/2000/svg" xmlns:xlink="http://www.w3.org/1999/xlink">
<g id="graph0" class="graph" transform="scale(1 1) rotate(0) translate(4 242)">
<title>BCL_tool_register_cmd</title>
<polygon fill="white" stroke="transparent" points="-4,4 -4,-242 1767,-242 1767,4 -4,4"/>
<!-- Node1 -->
<g id="node1" class="node">
<title>Node1</title>
<g id="a_node1"><a xlink:title="ブロックコマンドの最後にコマンドを追加する">
<polygon fill="#bfbfbf" stroke="black" points="1635,-130.5 1635,-149.5 1763,-149.5 1763,-130.5 1635,-130.5"/>
<text text-anchor="middle" x="1699" y="-137.5" font-family="Helvetica,sans-Serif" font-size="10.00">BCL_tool_register_cmd</text>
</a>
</g>
</g>
<!-- Node2 -->
<g id="node2" class="node">
<title>Node2</title>
<g id="a_node2"><a xlink:href="_nop_s_l_8h.html#ac2e03db4574677416b3bddc43d14df06" target="_top" xlink:title=" ">
<polygon fill="white" stroke="black" points="1481.5,-218.5 1481.5,-237.5 1579.5,-237.5 1579.5,-218.5 1481.5,-218.5"/>
<text text-anchor="middle" x="1530.5" y="-225.5" font-family="Helvetica,sans-Serif" font-size="10.00">BCL_load_nop_sl</text>
</a>
</g>
</g>
<!-- Node1&#45;&gt;Node2 -->
<g id="edge1" class="edge">
<title>Node1&#45;&gt;Node2</title>
<path fill="none" stroke="midnightblue" d="M1678.99,-156.17C1659.89,-171.68 1629.06,-194.79 1599,-209 1591.08,-212.75 1582.27,-215.89 1573.7,-218.47"/>
<polygon fill="midnightblue" stroke="midnightblue" points="1681.42,-158.7 1686.9,-149.64 1676.96,-153.31 1681.42,-158.7"/>
</g>
<!-- Node9 -->
<g id="node9" class="node">
<title>Node9</title>
<g id="a_node9"><a xlink:href="nbc__respond__eh__for__test_8c.html#a3db48d680628bbf52f4cd1fc444b9c36" target="_top" xlink:title=" ">
<polygon fill="white" stroke="black" points="1469,-169 1469,-199 1592,-199 1592,-169 1469,-169"/>
<text text-anchor="start" x="1477" y="-187" font-family="Helvetica,sans-Serif" font-size="10.00">BCL_load_respond_eh</text>
<text text-anchor="middle" x="1530.5" y="-176" font-family="Helvetica,sans-Serif" font-size="10.00">_for_test</text>
</a>
</g>
</g>
<!-- Node1&#45;&gt;Node9 -->
<g id="edge8" class="edge">
<title>Node1&#45;&gt;Node9</title>
<path fill="none" stroke="midnightblue" d="M1651.95,-152.17C1632.32,-157.36 1609.21,-163.46 1588.51,-168.93"/>
<polygon fill="midnightblue" stroke="midnightblue" points="1653.1,-155.49 1661.87,-149.55 1651.31,-148.72 1653.1,-155.49"/>
</g>
<!-- Node10 -->
<g id="node10" class="node">
<title>Node10</title>
<g id="a_node10"><a xlink:href="nbc__start__hk__tlm_8c.html#a56103faa9caea8b5ce4f318c4f5c8615" target="_top" xlink:title=" ">
<polygon fill="white" stroke="black" points="1466.5,-130.5 1466.5,-149.5 1594.5,-149.5 1594.5,-130.5 1466.5,-130.5"/>
<text text-anchor="middle" x="1530.5" y="-137.5" font-family="Helvetica,sans-Serif" font-size="10.00">BCL_load_start_hk_tlm</text>
</a>
</g>
</g>
<!-- Node1&#45;&gt;Node10 -->
<g id="edge10" class="edge">
<title>Node1&#45;&gt;Node10</title>
<path fill="none" stroke="midnightblue" d="M1624.37,-140C1614.49,-140 1604.43,-140 1594.75,-140"/>
<polygon fill="midnightblue" stroke="midnightblue" points="1624.58,-143.5 1634.58,-140 1624.58,-136.5 1624.58,-143.5"/>
</g>
<!-- Node11 -->
<g id="node11" class="node">
<title>Node11</title>
<g id="a_node11"><a xlink:href="_initial_s_l_8h.html#a2482bfacb75082486f0293bb5c6a06bc" target="_top" xlink:title=" ">
<polygon fill="white" stroke="black" points="1469.5,-81 1469.5,-111 1591.5,-111 1591.5,-81 1469.5,-81"/>
<text text-anchor="start" x="1477.5" y="-99" font-family="Helvetica,sans-Serif" font-size="10.00">BCL_load_start_up_to</text>
<text text-anchor="middle" x="1530.5" y="-88" font-family="Helvetica,sans-Serif" font-size="10.00">_initial</text>
</a>
</g>
</g>
<!-- Node1&#45;&gt;Node11 -->
<g id="edge12" class="edge">
<title>Node1&#45;&gt;Node11</title>
<path fill="none" stroke="midnightblue" d="M1651.95,-127.83C1632.32,-122.64 1609.21,-116.54 1588.51,-111.07"/>
<polygon fill="midnightblue" stroke="midnightblue" points="1651.31,-131.28 1661.87,-130.45 1653.1,-124.51 1651.31,-131.28"/>
</g>
<!-- Node12 -->
<g id="node12" class="node">
<title>Node12</title>
<g id="a_node12"><a xlink:href="telemetry__manager_8c.html#abb254dddda35d23891f16afbfd91e039" target="_top" xlink:title="NOP で埋められた BCの構築">
<polygon fill="white" stroke="black" points="1462,-42.5 1462,-61.5 1599,-61.5 1599,-42.5 1462,-42.5"/>
<text text-anchor="middle" x="1530.5" y="-49.5" font-family="Helvetica,sans-Serif" font-size="10.00">TLM_MGR_load_nop_bc_</text>
</a>
</g>
</g>
<!-- Node1&#45;&gt;Node12 -->
<g id="edge14" class="edge">
<title>Node1&#45;&gt;Node12</title>
<path fill="none" stroke="midnightblue" d="M1678.99,-123.83C1659.89,-108.32 1629.06,-85.21 1599,-71 1591.08,-67.25 1582.27,-64.11 1573.7,-61.53"/>
<polygon fill="midnightblue" stroke="midnightblue" points="1676.96,-126.69 1686.9,-130.36 1681.42,-121.3 1676.96,-126.69"/>
</g>
<!-- Node3 -->
<g id="node3" class="node">
<title>Node3</title>
<g id="a_node3"><a xlink:href="block__command__definitions_8h.html#a522491947d97b89960b9228a8a86c3ec" target="_top" xlink:title="各ブロックコマンドIDに中身の初期値をロードしていく">
<polygon fill="white" stroke="black" points="1298,-152.5 1298,-171.5 1399,-171.5 1399,-152.5 1298,-152.5"/>
<text text-anchor="middle" x="1348.5" y="-159.5" font-family="Helvetica,sans-Serif" font-size="10.00">BC_load_defaults</text>
</a>
</g>
</g>
<!-- Node2&#45;&gt;Node3 -->
<g id="edge2" class="edge">
<title>Node2&#45;&gt;Node3</title>
<path fill="none" stroke="midnightblue" d="M1482.47,-215.55C1475.56,-213.5 1468.57,-211.29 1462,-209 1429.42,-197.65 1392.72,-181.7 1370.35,-171.61"/>
<polygon fill="midnightblue" stroke="midnightblue" points="1481.89,-219.03 1492.46,-218.45 1483.83,-212.31 1481.89,-219.03"/>
</g>
<!-- Node4 -->
<g id="node4" class="node">
<title>Node4</title>
<g id="a_node4"><a xlink:href="block__command__table_8h.html#a626372f9ceecbe91c090aac87437edd1" target="_top" xlink:title="BCT の初期化関数">
<polygon fill="white" stroke="black" points="577,-147.5 577,-166.5 660,-166.5 660,-147.5 577,-147.5"/>
<text text-anchor="middle" x="618.5" y="-154.5" font-family="Helvetica,sans-Serif" font-size="10.00">BCT_initialize</text>
</a>
</g>
</g>
<!-- Node3&#45;&gt;Node4 -->
<g id="edge3" class="edge">
<title>Node3&#45;&gt;Node4</title>
<path fill="none" stroke="midnightblue" d="M1287.36,-161.59C1143.4,-160.6 781.95,-158.12 660.23,-157.28"/>
<polygon fill="midnightblue" stroke="midnightblue" points="1287.72,-165.09 1297.75,-161.66 1287.77,-158.09 1287.72,-165.09"/>
</g>
<!-- Node5 -->
<g id="node5" class="node">
<title>Node5</title>
<g id="a_node5"><a xlink:href="c2a__core__main_8h.html#a65ecdc63d8762ffde4db7f6c6e6f07cf" target="_top" xlink:title=" ">
<polygon fill="white" stroke="black" points="330,-114.5 330,-133.5 413,-133.5 413,-114.5 330,-114.5"/>
<text text-anchor="middle" x="371.5" y="-121.5" font-family="Helvetica,sans-Serif" font-size="10.00">C2A_core_init</text>
</a>
</g>
</g>
<!-- Node4&#45;&gt;Node5 -->
<g id="edge4" class="edge">
<title>Node4&#45;&gt;Node5</title>
<path fill="none" stroke="midnightblue" d="M566.82,-150.17C521.36,-144.05 455.49,-135.18 413.33,-129.5"/>
<polygon fill="midnightblue" stroke="midnightblue" points="566.39,-153.65 576.77,-151.51 567.32,-146.71 566.39,-153.65"/>
</g>
<!-- Node6 -->
<g id="node6" class="node">
<title>Node6</title>
<g id="a_node6"><a xlink:href="c2a__main_8c.html#a630222a80cd8bffd4426d4a55a215069" target="_top" xlink:title=" ">
<polygon fill="white" stroke="black" points="232,-114.5 232,-133.5 294,-133.5 294,-114.5 232,-114.5"/>
<text text-anchor="middle" x="263" y="-121.5" font-family="Helvetica,sans-Serif" font-size="10.00">C2A_init_</text>
</a>
</g>
</g>
<!-- Node5&#45;&gt;Node6 -->
<g id="edge5" class="edge">
<title>Node5&#45;&gt;Node6</title>
<path fill="none" stroke="midnightblue" d="M319.76,-124C311.01,-124 302.17,-124 294.18,-124"/>
<polygon fill="midnightblue" stroke="midnightblue" points="319.93,-127.5 329.93,-124 319.93,-120.5 319.93,-127.5"/>
</g>
<!-- Node7 -->
<g id="node7" class="node">
<title>Node7</title>
<g id="a_node7"><a xlink:href="c2a__main_8c.html#ac3344a311adda8f9e7310924bedf81fc" target="_top" xlink:title=" ">
<polygon fill="white" stroke="black" points="77,-114.5 77,-133.5 196,-133.5 196,-114.5 77,-114.5"/>
<text text-anchor="middle" x="136.5" y="-121.5" font-family="Helvetica,sans-Serif" font-size="10.00">address_fixed_main_</text>
</a>
</g>
</g>
<!-- Node6&#45;&gt;Node7 -->
<g id="edge6" class="edge">
<title>Node6&#45;&gt;Node7</title>
<path fill="none" stroke="midnightblue" d="M221.83,-124C213.62,-124 204.82,-124 196.12,-124"/>
<polygon fill="midnightblue" stroke="midnightblue" points="221.86,-127.5 231.86,-124 221.86,-120.5 221.86,-127.5"/>
</g>
<!-- Node8 -->
<g id="node8" class="node">
<title>Node8</title>
<g id="a_node8"><a xlink:href="c2a__main_8c.html#a840291bc02cba5474a4cb46a9b9566fe" target="_top" xlink:title=" ">
<polygon fill="white" stroke="black" points="0,-114.5 0,-133.5 41,-133.5 41,-114.5 0,-114.5"/>
<text text-anchor="middle" x="20.5" y="-121.5" font-family="Helvetica,sans-Serif" font-size="10.00">main</text>
</a>
</g>
</g>
<!-- Node7&#45;&gt;Node8 -->
<g id="edge7" class="edge">
<title>Node7&#45;&gt;Node8</title>
<path fill="none" stroke="midnightblue" d="M66.64,-124C57.37,-124 48.53,-124 41.18,-124"/>
<polygon fill="midnightblue" stroke="midnightblue" points="66.83,-127.5 76.83,-124 66.83,-120.5 66.83,-127.5"/>
</g>
<!-- Node9&#45;&gt;Node3 -->
<g id="edge9" class="edge">
<title>Node9&#45;&gt;Node3</title>
<path fill="none" stroke="midnightblue" d="M1458.83,-175.36C1438.88,-172.92 1417.6,-170.32 1399.16,-168.07"/>
<polygon fill="midnightblue" stroke="midnightblue" points="1458.46,-178.84 1468.81,-176.58 1459.31,-171.9 1458.46,-178.84"/>
</g>
<!-- Node10&#45;&gt;Node3 -->
<g id="edge11" class="edge">
<title>Node10&#45;&gt;Node3</title>
<path fill="none" stroke="midnightblue" d="M1456.1,-148.97C1436.98,-151.31 1416.82,-153.77 1399.24,-155.92"/>
<polygon fill="midnightblue" stroke="midnightblue" points="1456.79,-152.41 1466.29,-147.73 1455.94,-145.46 1456.79,-152.41"/>
</g>
<!-- Node11&#45;&gt;Node3 -->
<g id="edge13" class="edge">
<title>Node11&#45;&gt;Node3</title>
<path fill="none" stroke="midnightblue" d="M1478.55,-114.68C1444.98,-126.99 1402.42,-142.59 1375.57,-152.44"/>
<polygon fill="midnightblue" stroke="midnightblue" points="1480.02,-117.87 1488.2,-111.14 1477.61,-111.3 1480.02,-117.87"/>
</g>
<!-- Node13 -->
<g id="node13" class="node">
<title>Node13</title>
<g id="a_node13"><a xlink:href="telemetry__manager_8c.html#aca6344c0e7a1eb93e72a2c07f36ba89e" target="_top" xlink:title="指定したBCを NOP x TLM_MGR_MAX_TLM_NUM_PER_BC で埋める">
<polygon fill="white" stroke="black" points="1271,-42.5 1271,-61.5 1426,-61.5 1426,-42.5 1271,-42.5"/>
<text text-anchor="middle" x="1348.5" y="-49.5" font-family="Helvetica,sans-Serif" font-size="10.00">TLM_MGR_clear_bc_to_nop_</text>
</a>
</g>
</g>
<!-- Node12&#45;&gt;Node13 -->
<g id="edge15" class="edge">
<title>Node12&#45;&gt;Node13</title>
<path fill="none" stroke="midnightblue" d="M1451.73,-52C1443.26,-52 1434.64,-52 1426.19,-52"/>
<polygon fill="midnightblue" stroke="midnightblue" points="1451.96,-55.5 1461.96,-52 1451.96,-48.5 1451.96,-55.5"/>
</g>
<!-- Node14 -->
<g id="node14" class="node">
<title>Node14</title>
<g id="a_node14"><a xlink:href="telemetry__manager_8c.html#af5ffec9b70960e1c8ffb5bff194ce24c" target="_top" xlink:title="TLM_MGR_RegisterInfo 登録されている BC をクリアして NOP で埋める">
<polygon fill="white" stroke="black" points="947,-65 947,-95 1073,-95 1073,-65 947,-65"/>
<text text-anchor="start" x="955" y="-83" font-family="Helvetica,sans-Serif" font-size="10.00">TLM_MGR_clear_bc_of</text>
<text text-anchor="middle" x="1010" y="-72" font-family="Helvetica,sans-Serif" font-size="10.00">_register_info_</text>
</a>
</g>
</g>
<!-- Node13&#45;&gt;Node14 -->
<g id="edge16" class="edge">
<title>Node13&#45;&gt;Node14</title>
<path fill="none" stroke="midnightblue" d="M1260.71,-59.22C1201.99,-64.11 1125.81,-70.45 1073.11,-74.83"/>
<polygon fill="midnightblue" stroke="midnightblue" points="1261.05,-62.71 1270.72,-58.39 1260.47,-55.73 1261.05,-62.71"/>
</g>
<!-- Node20 -->
<g id="node20" class="node">
<title>Node20</title>
<g id="a_node20"><a xlink:href="telemetry__manager_8c.html#a0b48756e83b551349cf04c30585b1cbf" target="_top" xlink:title="すべてのBCを NOP x TLM_MGR_MAX_TLM_NUM_PER_BC で埋める">
<polygon fill="white" stroke="black" points="1109,-15 1109,-45 1235,-45 1235,-15 1109,-15"/>
<text text-anchor="start" x="1117" y="-33" font-family="Helvetica,sans-Serif" font-size="10.00">TLM_MGR_clear_bc_to</text>
<text text-anchor="middle" x="1172" y="-22" font-family="Helvetica,sans-Serif" font-size="10.00">_nop_all_</text>
</a>
</g>
</g>
<!-- Node13&#45;&gt;Node20 -->
<g id="edge25" class="edge">
<title>Node13&#45;&gt;Node20</title>
<path fill="none" stroke="midnightblue" d="M1261.8,-41.2C1252.76,-40.06 1243.7,-38.91 1235,-37.82"/>
<polygon fill="midnightblue" stroke="midnightblue" points="1261.62,-44.7 1271.98,-42.48 1262.49,-37.75 1261.62,-44.7"/>
</g>
<!-- Node15 -->
<g id="node15" class="node">
<title>Node15</title>
<g id="a_node15"><a xlink:href="telemetry__manager_8h.html#a2bc92ae52dbb32d319d6b50c0a822038" target="_top" xlink:title="HKテレメを初期化">
<polygon fill="white" stroke="black" points="723.5,-114.5 723.5,-133.5 898.5,-133.5 898.5,-114.5 723.5,-114.5"/>
<text text-anchor="middle" x="811" y="-121.5" font-family="Helvetica,sans-Serif" font-size="10.00">Cmd_TLM_MGR_CLEAR_HK_TLM</text>
</a>
</g>
</g>
<!-- Node14&#45;&gt;Node15 -->
<g id="edge17" class="edge">
<title>Node14&#45;&gt;Node15</title>
<path fill="none" stroke="midnightblue" d="M942.44,-97.55C931.94,-100.16 921.19,-102.72 911,-105 896.05,-108.34 879.76,-111.61 864.78,-114.48"/>
<polygon fill="midnightblue" stroke="midnightblue" points="943.55,-100.88 952.39,-95.06 941.84,-94.09 943.55,-100.88"/>
</g>
<!-- Node18 -->
<g id="node18" class="node">
<title>Node18</title>
<g id="a_node18"><a xlink:href="telemetry__manager_8h.html#af062111b8e574bbfab158a9a47f8d5e0" target="_top" xlink:title="systemテレメを初期化">
<polygon fill="white" stroke="black" points="711,-76.5 711,-95.5 911,-95.5 911,-76.5 711,-76.5"/>
<text text-anchor="middle" x="811" y="-83.5" font-family="Helvetica,sans-Serif" font-size="10.00">Cmd_TLM_MGR_CLEAR_SYSTEM_TLM</text>
</a>
</g>
</g>
<!-- Node14&#45;&gt;Node18 -->
<g id="edge21" class="edge">
<title>Node14&#45;&gt;Node18</title>
<path fill="none" stroke="midnightblue" d="M936.89,-82.2C928.52,-82.45 919.88,-82.71 911.24,-82.98"/>
<polygon fill="midnightblue" stroke="midnightblue" points="937.05,-85.69 946.94,-81.89 936.84,-78.7 937.05,-85.69"/>
</g>
<!-- Node19 -->
<g id="node19" class="node">
<title>Node19</title>
<g id="a_node19"><a xlink:href="telemetry__manager_8h.html#af76453743bae7b361005376190100cbf" target="_top" xlink:title="high_freq_tlm, low_freq_tlm を初期化">
<polygon fill="white" stroke="black" points="717.5,-38.5 717.5,-57.5 904.5,-57.5 904.5,-38.5 717.5,-38.5"/>
<text text-anchor="middle" x="811" y="-45.5" font-family="Helvetica,sans-Serif" font-size="10.00">Cmd_TLM_MGR_CLEAR_USER_TLM</text>
</a>
</g>
</g>
<!-- Node14&#45;&gt;Node19 -->
<g id="edge23" class="edge">
<title>Node14&#45;&gt;Node19</title>
<path fill="none" stroke="midnightblue" d="M937.07,-68.32C915.25,-64.77 891.56,-60.92 870.73,-57.54"/>
<polygon fill="midnightblue" stroke="midnightblue" points="936.51,-71.77 946.94,-69.92 937.63,-64.86 936.51,-71.77"/>
</g>
<!-- Node16 -->
<g id="node16" class="node">
<title>Node16</title>
<g id="a_node16"><a xlink:href="command__definitions_8c.html#aa375895192b16d8e7f0ff4545b54e6c4" target="_top" xlink:title="Cmd Tableのロード">
<polygon fill="white" stroke="black" points="562,-76.5 562,-95.5 675,-95.5 675,-76.5 562,-76.5"/>
<text text-anchor="middle" x="618.5" y="-83.5" font-family="Helvetica,sans-Serif" font-size="10.00">CA_load_cmd_table</text>
</a>
</g>
</g>
<!-- Node15&#45;&gt;Node16 -->
<g id="edge18" class="edge">
<title>Node15&#45;&gt;Node16</title>
<path fill="none" stroke="midnightblue" d="M749.55,-112.55C736.81,-110.09 723.46,-107.49 711,-105 695.89,-101.98 679.39,-98.59 664.62,-95.51"/>
<polygon fill="midnightblue" stroke="midnightblue" points="749.13,-116.03 759.61,-114.48 750.45,-109.16 749.13,-116.03"/>
</g>
<!-- Node17 -->
<g id="node17" class="node">
<title>Node17</title>
<g id="a_node17"><a xlink:href="command__analyze_8h.html#ae6d1f376bf4e1c9c4b63bc3f04924c8a" target="_top" xlink:title="CA の初期化">
<polygon fill="white" stroke="black" points="449,-95.5 449,-114.5 526,-114.5 526,-95.5 449,-95.5"/>
<text text-anchor="middle" x="487.5" y="-102.5" font-family="Helvetica,sans-Serif" font-size="10.00">CA_initialize</text>
</a>
</g>
</g>
<!-- Node16&#45;&gt;Node17 -->
<g id="edge19" class="edge">
<title>Node16&#45;&gt;Node17</title>
<path fill="none" stroke="midnightblue" d="M551.5,-95.72C542.82,-97 534.17,-98.27 526.19,-99.45"/>
<polygon fill="midnightblue" stroke="midnightblue" points="552.29,-99.14 561.67,-94.22 551.27,-92.22 552.29,-99.14"/>
</g>
<!-- Node17&#45;&gt;Node5 -->
<g id="edge20" class="edge">
<title>Node17&#45;&gt;Node5</title>
<path fill="none" stroke="midnightblue" d="M438.72,-112.96C430.25,-114.38 421.5,-115.83 413.24,-117.21"/>
<polygon fill="midnightblue" stroke="midnightblue" points="439.57,-116.37 448.86,-111.27 438.42,-109.47 439.57,-116.37"/>
</g>
<!-- Node18&#45;&gt;Node16 -->
<g id="edge22" class="edge">
<title>Node18&#45;&gt;Node16</title>
<path fill="none" stroke="midnightblue" d="M700.79,-86C691.94,-86 683.25,-86 675.04,-86"/>
<polygon fill="midnightblue" stroke="midnightblue" points="700.84,-89.5 710.84,-86 700.84,-82.5 700.84,-89.5"/>
</g>
<!-- Node19&#45;&gt;Node16 -->
<g id="edge24" class="edge">
<title>Node19&#45;&gt;Node16</title>
<path fill="none" stroke="midnightblue" d="M749.55,-59.45C736.81,-61.91 723.46,-64.51 711,-67 695.89,-70.02 679.39,-73.41 664.62,-76.49"/>
<polygon fill="midnightblue" stroke="midnightblue" points="750.45,-62.84 759.61,-57.52 749.13,-55.97 750.45,-62.84"/>
</g>
<!-- Node21 -->
<g id="node21" class="node">
<title>Node21</title>
<g id="a_node21"><a xlink:href="telemetry__manager_8c.html#a0b75fadd08a5f2641b2f656727b4cb2c" target="_top" xlink:title=" ">
<polygon fill="white" stroke="black" points="958.5,-13.5 958.5,-32.5 1061.5,-32.5 1061.5,-13.5 958.5,-13.5"/>
<text text-anchor="middle" x="1010" y="-20.5" font-family="Helvetica,sans-Serif" font-size="10.00">TLM_MGR_init_3_</text>
</a>
</g>
</g>
<!-- Node20&#45;&gt;Node21 -->
<g id="edge26" class="edge">
<title>Node20&#45;&gt;Node21</title>
<path fill="none" stroke="midnightblue" d="M1098.32,-26.82C1085.89,-26.28 1073.22,-25.72 1061.53,-25.21"/>
<polygon fill="midnightblue" stroke="midnightblue" points="1098.54,-30.33 1108.68,-27.27 1098.84,-23.34 1098.54,-30.33"/>
</g>
<!-- Node22 -->
<g id="node22" class="node">
<title>Node22</title>
<g id="a_node22"><a xlink:href="telemetry__manager_8h.html#a19d6e76042721fe9e576dbacaf49b365" target="_top" xlink:title="初期化">
<polygon fill="white" stroke="black" points="752,-0.5 752,-19.5 870,-19.5 870,-0.5 752,-0.5"/>
<text text-anchor="middle" x="811" y="-7.5" font-family="Helvetica,sans-Serif" font-size="10.00">Cmd_TLM_MGR_INIT</text>
</a>
</g>
</g>
<!-- Node21&#45;&gt;Node22 -->
<g id="edge27" class="edge">
<title>Node21&#45;&gt;Node22</title>
<path fill="none" stroke="midnightblue" d="M948.24,-18.99C923.4,-17.35 894.8,-15.46 870.23,-13.84"/>
<polygon fill="midnightblue" stroke="midnightblue" points="948.06,-22.49 958.27,-19.65 948.52,-15.5 948.06,-22.49"/>
</g>
<!-- Node22&#45;&gt;Node16 -->
<g id="edge28" class="edge">
<title>Node22&#45;&gt;Node16</title>
<path fill="none" stroke="midnightblue" d="M741.89,-19.64C731.36,-22.1 720.76,-25.18 711,-29 680.33,-41.01 648.58,-63.45 631.74,-76.3"/>
<polygon fill="midnightblue" stroke="midnightblue" points="742.9,-23 751.93,-17.46 741.41,-16.16 742.9,-23"/>
</g>
</g>
</svg>
