<?xml version="1.0" encoding="UTF-8" standalone="no"?>
<!DOCTYPE svg PUBLIC "-//W3C//DTD SVG 1.1//EN"
 "http://www.w3.org/Graphics/SVG/1.1/DTD/svg11.dtd">
<!-- Generated by graphviz version 2.43.0 (0)
 -->
<!-- Title: src/src_user/c2a_main.c Pages: 1 -->
<svg width="1072pt" height="419pt"
 viewBox="0.00 0.00 1071.65 419.00" xmlns="http://www.w3.org/2000/svg" xmlns:xlink="http://www.w3.org/1999/xlink">
<g id="graph0" class="graph" transform="scale(1 1) rotate(0) translate(4 415)">
<title>src/src_user/c2a_main.c</title>
<polygon fill="white" stroke="transparent" points="-4,4 -4,-415 1067.65,-415 1067.65,4 -4,4"/>
<!-- Node1 -->
<g id="node1" class="node">
<title>Node1</title>
<g id="a_node1"><a xlink:title=" ">
<polygon fill="#bfbfbf" stroke="black" points="740.15,-391.5 740.15,-410.5 873.15,-410.5 873.15,-391.5 740.15,-391.5"/>
<text text-anchor="middle" x="806.65" y="-398.5" font-family="Helvetica,sans-Serif" font-size="10.00">src/src_user/c2a_main.c</text>
</a>
</g>
</g>
<!-- Node2 -->
<g id="node2" class="node">
<title>Node2</title>
<g id="a_node2"><a xlink:href="print_8h.html" target="_top" xlink:title=" ">
<polygon fill="white" stroke="black" points="502.65,-330 502.65,-349 630.65,-349 630.65,-330 502.65,-330"/>
<text text-anchor="middle" x="566.65" y="-337" font-family="Helvetica,sans-Serif" font-size="10.00">src_core/Library/print.h</text>
</a>
</g>
</g>
<!-- Node1&#45;&gt;Node2 -->
<g id="edge1" class="edge">
<title>Node1&#45;&gt;Node2</title>
<path fill="none" stroke="midnightblue" d="M772.26,-391.48C729.76,-380.94 657.35,-362.99 610.78,-351.44"/>
<polygon fill="midnightblue" stroke="midnightblue" points="611.52,-348.02 600.97,-349.01 609.84,-354.81 611.52,-348.02"/>
</g>
<!-- Node3 -->
<g id="node3" class="node">
<title>Node3</title>
<g id="a_node3"><a xlink:href="c2a__core__main_8h.html" target="_top" xlink:title=" ">
<polygon fill="white" stroke="black" points="649.15,-330 649.15,-349 792.15,-349 792.15,-330 649.15,-330"/>
<text text-anchor="middle" x="720.65" y="-337" font-family="Helvetica,sans-Serif" font-size="10.00">src_core/c2a_core_main.h</text>
</a>
</g>
</g>
<!-- Node1&#45;&gt;Node3 -->
<g id="edge2" class="edge">
<title>Node1&#45;&gt;Node3</title>
<path fill="none" stroke="midnightblue" d="M794.33,-391.48C780.53,-381.93 757.95,-366.31 741.42,-354.87"/>
<polygon fill="midnightblue" stroke="midnightblue" points="743.16,-351.82 732.95,-349.01 739.18,-357.58 743.16,-351.82"/>
</g>
<!-- Node4 -->
<g id="node4" class="node">
<title>Node4</title>
<g id="a_node4"><a xlink:href="time__manager_8h.html" target="_top" xlink:title=" ">
<polygon fill="white" stroke="black" points="810.15,-324.5 810.15,-354.5 977.15,-354.5 977.15,-324.5 810.15,-324.5"/>
<text text-anchor="start" x="818.15" y="-342.5" font-family="Helvetica,sans-Serif" font-size="10.00">src_core/System/TimeManager</text>
<text text-anchor="middle" x="893.65" y="-331.5" font-family="Helvetica,sans-Serif" font-size="10.00">/time_manager.h</text>
</a>
</g>
</g>
<!-- Node1&#45;&gt;Node4 -->
<g id="edge3" class="edge">
<title>Node1&#45;&gt;Node4</title>
<path fill="none" stroke="midnightblue" d="M819.12,-391.48C831.01,-383.34 849.36,-370.79 864.88,-360.18"/>
<polygon fill="midnightblue" stroke="midnightblue" points="866.87,-363.06 873.15,-354.52 862.92,-357.28 866.87,-363.06"/>
</g>
<!-- Node7 -->
<g id="node7" class="node">
<title>Node7</title>
<g id="a_node7"><a xlink:href="sils__define_8h.html" target="_top" xlink:title=" ">
<polygon fill="white" stroke="black" points="882.15,-0.5 882.15,-19.5 1011.15,-19.5 1011.15,-0.5 882.15,-0.5"/>
<text text-anchor="middle" x="946.65" y="-7.5" font-family="Helvetica,sans-Serif" font-size="10.00">../Settings/sils_define.h</text>
</a>
</g>
</g>
<!-- Node1&#45;&gt;Node7 -->
<g id="edge24" class="edge">
<title>Node1&#45;&gt;Node7</title>
<path fill="none" stroke="midnightblue" d="M873.17,-395.51C949.32,-386.33 1063.65,-358.41 1063.65,-273.5 1063.65,-273.5 1063.65,-273.5 1063.65,-126.5 1063.65,-77.19 1010.37,-41.83 975.72,-24.05"/>
<polygon fill="midnightblue" stroke="midnightblue" points="977.01,-20.79 966.5,-19.51 973.92,-27.07 977.01,-20.79"/>
</g>
<!-- Node5 -->
<g id="node5" class="node">
<title>Node5</title>
<g id="a_node5"><a xlink:href="obc__time_8h.html" target="_top" xlink:title=" ">
<polygon fill="white" stroke="black" points="858.15,-190.5 858.15,-209.5 929.15,-209.5 929.15,-190.5 858.15,-190.5"/>
<text text-anchor="middle" x="893.65" y="-197.5" font-family="Helvetica,sans-Serif" font-size="10.00">obc_time.h</text>
</a>
</g>
</g>
<!-- Node4&#45;&gt;Node5 -->
<g id="edge4" class="edge">
<title>Node4&#45;&gt;Node5</title>
<path fill="none" stroke="midnightblue" d="M893.65,-324.3C893.65,-299.34 893.65,-247.58 893.65,-219.72"/>
<polygon fill="midnightblue" stroke="midnightblue" points="897.15,-219.7 893.65,-209.7 890.15,-219.7 897.15,-219.7"/>
</g>
<!-- Node9 -->
<g id="node9" class="node">
<title>Node9</title>
<g id="a_node9"><a xlink:href="common__tlm__cmd__packet_8h.html" target="_top" xlink:title="CTCP の宣言">
<polygon fill="white" stroke="black" points="592.65,-257.5 592.65,-287.5 714.65,-287.5 714.65,-257.5 592.65,-257.5"/>
<text text-anchor="start" x="600.65" y="-275.5" font-family="Helvetica,sans-Serif" font-size="10.00">../../CmdTlm/common</text>
<text text-anchor="middle" x="653.65" y="-264.5" font-family="Helvetica,sans-Serif" font-size="10.00">_tlm_cmd_packet.h</text>
</a>
</g>
</g>
<!-- Node4&#45;&gt;Node9 -->
<g id="edge8" class="edge">
<title>Node4&#45;&gt;Node9</title>
<path fill="none" stroke="midnightblue" d="M841.87,-324.48C804.78,-314.43 754.66,-300.86 715.47,-290.24"/>
<polygon fill="midnightblue" stroke="midnightblue" points="716.32,-286.85 705.75,-287.61 714.49,-293.6 716.32,-286.85"/>
</g>
<!-- Node6 -->
<g id="node6" class="node">
<title>Node6</title>
<g id="a_node6"><a xlink:href="stdint_8h.html" target="_top" xlink:title=" ">
<polygon fill="white" stroke="black" points="762.65,-56.5 762.65,-75.5 896.65,-75.5 896.65,-56.5 762.65,-56.5"/>
<text text-anchor="middle" x="829.65" y="-63.5" font-family="Helvetica,sans-Serif" font-size="10.00">src_user/Library/stdint.h</text>
</a>
</g>
</g>
<!-- Node5&#45;&gt;Node6 -->
<g id="edge5" class="edge">
<title>Node5&#45;&gt;Node6</title>
<path fill="none" stroke="midnightblue" d="M889.45,-190.34C879.1,-168.99 852.18,-113.48 838.27,-84.77"/>
<polygon fill="midnightblue" stroke="midnightblue" points="841.29,-82.99 833.78,-75.52 835,-86.05 841.29,-82.99"/>
</g>
<!-- Node8 -->
<g id="node8" class="node">
<title>Node8</title>
<g id="a_node8"><a xlink:href="obc__time__params_8h.html" target="_top" xlink:title="OBCTのCoreパラメタのオーバーライド用ヘッダー">
<polygon fill="white" stroke="black" points="895.65,-112.5 895.65,-142.5 1035.65,-142.5 1035.65,-112.5 895.65,-112.5"/>
<text text-anchor="start" x="903.65" y="-130.5" font-family="Helvetica,sans-Serif" font-size="10.00">src_user/Settings/System</text>
<text text-anchor="middle" x="965.65" y="-119.5" font-family="Helvetica,sans-Serif" font-size="10.00">/obc_time_params.h</text>
</a>
</g>
</g>
<!-- Node5&#45;&gt;Node8 -->
<g id="edge7" class="edge">
<title>Node5&#45;&gt;Node8</title>
<path fill="none" stroke="midnightblue" d="M902.48,-190.36C912.74,-180.3 930.06,-163.35 943.96,-149.73"/>
<polygon fill="midnightblue" stroke="midnightblue" points="946.58,-152.07 951.27,-142.58 941.68,-147.07 946.58,-152.07"/>
</g>
<!-- Node6&#45;&gt;Node7 -->
<g id="edge6" class="edge">
<title>Node6&#45;&gt;Node7</title>
<path fill="none" stroke="midnightblue" d="M848.19,-56.44C867.27,-47.64 897.23,-33.81 919.09,-23.72"/>
<polygon fill="midnightblue" stroke="midnightblue" points="920.58,-26.88 928.2,-19.52 917.65,-20.53 920.58,-26.88"/>
</g>
<!-- Node9&#45;&gt;Node5 -->
<g id="edge10" class="edge">
<title>Node9&#45;&gt;Node5</title>
<path fill="none" stroke="midnightblue" d="M714.1,-257.41C751.71,-248.16 800.89,-235.18 843.65,-221 850.45,-218.75 857.65,-216.05 864.41,-213.38"/>
<polygon fill="midnightblue" stroke="midnightblue" points="865.95,-216.54 873.9,-209.54 863.32,-210.05 865.95,-216.54"/>
</g>
<!-- Node9&#45;&gt;Node6 -->
<g id="edge12" class="edge">
<title>Node9&#45;&gt;Node6</title>
<path fill="none" stroke="midnightblue" d="M715.02,-267.36C748.34,-261.76 787.38,-249.13 810.65,-221 842.92,-181.99 838.05,-117.27 833.18,-85.6"/>
<polygon fill="midnightblue" stroke="midnightblue" points="836.59,-84.81 831.45,-75.54 829.7,-85.99 836.59,-84.81"/>
</g>
<!-- Node10 -->
<g id="node10" class="node">
<title>Node10</title>
<g id="a_node10"><a xlink:title=" ">
<polygon fill="white" stroke="#bfbfbf" points="224.65,-56.5 224.65,-75.5 280.65,-75.5 280.65,-56.5 224.65,-56.5"/>
<text text-anchor="middle" x="252.65" y="-63.5" font-family="Helvetica,sans-Serif" font-size="10.00">stddef.h</text>
</a>
</g>
</g>
<!-- Node9&#45;&gt;Node10 -->
<g id="edge9" class="edge">
<title>Node9&#45;&gt;Node10</title>
<path fill="none" stroke="midnightblue" d="M592.56,-271.28C440.3,-270.08 53.38,-262.91 14.65,-221 -52.36,-148.48 131.85,-95.04 214.66,-75.32"/>
<polygon fill="midnightblue" stroke="midnightblue" points="215.53,-78.71 224.47,-73.03 213.94,-71.89 215.53,-78.71"/>
</g>
<!-- Node11 -->
<g id="node11" class="node">
<title>Node11</title>
<g id="a_node11"><a xlink:href="command__definitions_8h.html" target="_top" xlink:title="コマンド定義">
<polygon fill="white" stroke="black" points="24.15,-185 24.15,-215 177.15,-215 177.15,-185 24.15,-185"/>
<text text-anchor="start" x="32.15" y="-203" font-family="Helvetica,sans-Serif" font-size="10.00">src_user/CmdTlm/command</text>
<text text-anchor="middle" x="100.65" y="-192" font-family="Helvetica,sans-Serif" font-size="10.00">_definitions.h</text>
</a>
</g>
</g>
<!-- Node9&#45;&gt;Node11 -->
<g id="edge11" class="edge">
<title>Node9&#45;&gt;Node11</title>
<path fill="none" stroke="midnightblue" d="M592.5,-267.26C502.98,-260.51 331.17,-245.53 186.65,-221 180.05,-219.88 173.2,-218.56 166.37,-217.14"/>
<polygon fill="midnightblue" stroke="midnightblue" points="166.94,-213.68 156.43,-215 165.47,-220.53 166.94,-213.68"/>
</g>
<!-- Node12 -->
<g id="node12" class="node">
<title>Node12</title>
<g id="a_node12"><a xlink:href="app__registry_8h.html" target="_top" xlink:title=" ">
<polygon fill="white" stroke="black" points="195.65,-185 195.65,-215 315.65,-215 315.65,-185 195.65,-185"/>
<text text-anchor="start" x="203.65" y="-203" font-family="Helvetica,sans-Serif" font-size="10.00">src_user/Applications</text>
<text text-anchor="middle" x="255.65" y="-192" font-family="Helvetica,sans-Serif" font-size="10.00">/app_registry.h</text>
</a>
</g>
</g>
<!-- Node9&#45;&gt;Node12 -->
<g id="edge13" class="edge">
<title>Node9&#45;&gt;Node12</title>
<path fill="none" stroke="midnightblue" d="M592.57,-264.53C526.19,-256.41 417.19,-241.42 324.65,-221 320.21,-220.02 315.64,-218.92 311.07,-217.74"/>
<polygon fill="midnightblue" stroke="midnightblue" points="311.65,-214.27 301.09,-215.08 309.85,-221.04 311.65,-214.27"/>
</g>
<!-- Node13 -->
<g id="node13" class="node">
<title>Node13</title>
<g id="a_node13"><a xlink:href="common__tlm__cmd__packet__define_8h.html" target="_top" xlink:title="CTCP型の定義">
<polygon fill="white" stroke="black" points="333.65,-179.5 333.65,-220.5 481.65,-220.5 481.65,-179.5 333.65,-179.5"/>
<text text-anchor="start" x="341.65" y="-208.5" font-family="Helvetica,sans-Serif" font-size="10.00">src_user/Settings/CmdTlm</text>
<text text-anchor="start" x="341.65" y="-197.5" font-family="Helvetica,sans-Serif" font-size="10.00">/common_tlm_cmd_packet</text>
<text text-anchor="middle" x="407.65" y="-186.5" font-family="Helvetica,sans-Serif" font-size="10.00">_define.h</text>
</a>
</g>
</g>
<!-- Node9&#45;&gt;Node13 -->
<g id="edge14" class="edge">
<title>Node9&#45;&gt;Node13</title>
<path fill="none" stroke="midnightblue" d="M604.75,-257.49C570.78,-247.75 524.79,-234.57 485.77,-223.39"/>
<polygon fill="midnightblue" stroke="midnightblue" points="486.59,-219.98 476.01,-220.59 484.66,-226.71 486.59,-219.98"/>
</g>
<!-- Node15 -->
<g id="node15" class="node">
<title>Node15</title>
<g id="a_node15"><a xlink:href="common__tlm__cmd__packet__params_8h.html" target="_top" xlink:title="CTCP パラメタのオーバーライド用ヘッダー">
<polygon fill="white" stroke="black" points="499.65,-179.5 499.65,-220.5 647.65,-220.5 647.65,-179.5 499.65,-179.5"/>
<text text-anchor="start" x="507.65" y="-208.5" font-family="Helvetica,sans-Serif" font-size="10.00">src_user/Settings/CmdTlm</text>
<text text-anchor="start" x="507.65" y="-197.5" font-family="Helvetica,sans-Serif" font-size="10.00">/common_tlm_cmd_packet</text>
<text text-anchor="middle" x="573.65" y="-186.5" font-family="Helvetica,sans-Serif" font-size="10.00">_params.h</text>
</a>
</g>
</g>
<!-- Node9&#45;&gt;Node15 -->
<g id="edge18" class="edge">
<title>Node9&#45;&gt;Node15</title>
<path fill="none" stroke="midnightblue" d="M637.46,-257.23C627.74,-248.67 615.07,-237.5 603.59,-227.38"/>
<polygon fill="midnightblue" stroke="midnightblue" points="605.69,-224.57 595.88,-220.59 601.07,-229.83 605.69,-224.57"/>
</g>
<!-- Node16 -->
<g id="node16" class="node">
<title>Node16</title>
<g id="a_node16"><a xlink:href="block__command__table_8h.html" target="_top" xlink:title="BCTの定義, BCT周りの関数">
<polygon fill="white" stroke="black" points="665.65,-190.5 665.65,-209.5 801.65,-209.5 801.65,-190.5 665.65,-190.5"/>
<text text-anchor="middle" x="733.65" y="-197.5" font-family="Helvetica,sans-Serif" font-size="10.00">block_command_table.h</text>
</a>
</g>
</g>
<!-- Node9&#45;&gt;Node16 -->
<g id="edge20" class="edge">
<title>Node9&#45;&gt;Node16</title>
<path fill="none" stroke="midnightblue" d="M664.29,-257.23C676.35,-245.22 695.77,-228.08 711.12,-215.89"/>
<polygon fill="midnightblue" stroke="midnightblue" points="713.38,-218.57 719.16,-209.69 709.11,-213.03 713.38,-218.57"/>
</g>
<!-- Node14 -->
<g id="node14" class="node">
<title>Node14</title>
<g id="a_node14"><a xlink:href="_t_c_packet_8h.html" target="_top" xlink:title=" ">
<polygon fill="white" stroke="black" points="405.15,-112.5 405.15,-142.5 512.15,-142.5 512.15,-112.5 405.15,-112.5"/>
<text text-anchor="start" x="413.15" y="-130.5" font-family="Helvetica,sans-Serif" font-size="10.00">../../CmdTlm/Ccsds</text>
<text text-anchor="middle" x="458.65" y="-119.5" font-family="Helvetica,sans-Serif" font-size="10.00">/TCPacket.h</text>
</a>
</g>
</g>
<!-- Node13&#45;&gt;Node14 -->
<g id="edge15" class="edge">
<title>Node13&#45;&gt;Node14</title>
<path fill="none" stroke="midnightblue" d="M421.86,-179.36C428.2,-170.59 435.71,-160.21 442.29,-151.12"/>
<polygon fill="midnightblue" stroke="midnightblue" points="445.21,-153.05 448.24,-142.89 439.54,-148.94 445.21,-153.05"/>
</g>
<!-- Node14&#45;&gt;Node6 -->
<g id="edge17" class="edge">
<title>Node14&#45;&gt;Node6</title>
<path fill="none" stroke="midnightblue" d="M512.2,-117.91C579.43,-107.13 694.6,-88.66 766.18,-77.18"/>
<polygon fill="midnightblue" stroke="midnightblue" points="767.1,-80.58 776.42,-75.54 765.99,-73.67 767.1,-80.58"/>
</g>
<!-- Node14&#45;&gt;Node10 -->
<g id="edge16" class="edge">
<title>Node14&#45;&gt;Node10</title>
<path fill="none" stroke="midnightblue" d="M410.09,-112.47C373.66,-101.95 324.46,-87.74 290.82,-78.03"/>
<polygon fill="midnightblue" stroke="midnightblue" points="291.49,-74.58 280.91,-75.16 289.55,-81.3 291.49,-74.58"/>
</g>
<!-- Node15&#45;&gt;Node14 -->
<g id="edge19" class="edge">
<title>Node15&#45;&gt;Node14</title>
<path fill="none" stroke="midnightblue" d="M541.62,-179.36C525.73,-169.62 506.59,-157.89 490.7,-148.15"/>
<polygon fill="midnightblue" stroke="midnightblue" points="492.12,-144.91 481.76,-142.67 488.46,-150.88 492.12,-144.91"/>
</g>
<!-- Node16&#45;&gt;Node6 -->
<g id="edge21" class="edge">
<title>Node16&#45;&gt;Node6</title>
<path fill="none" stroke="midnightblue" d="M739.95,-190.34C755.68,-168.71 796.92,-112.01 817.54,-83.65"/>
<polygon fill="midnightblue" stroke="midnightblue" points="820.4,-85.67 823.45,-75.52 814.74,-81.55 820.4,-85.67"/>
</g>
<!-- Node16&#45;&gt;Node9 -->
<g id="edge23" class="edge">
<title>Node16&#45;&gt;Node9</title>
<path fill="none" stroke="midnightblue" d="M728.22,-209.89C718.71,-220.13 699.77,-237.27 683.25,-250.88"/>
<polygon fill="midnightblue" stroke="midnightblue" points="680.97,-248.23 675.39,-257.23 685.37,-253.67 680.97,-248.23"/>
</g>
<!-- Node17 -->
<g id="node17" class="node">
<title>Node17</title>
<g id="a_node17"><a xlink:href="block__command__table__params_8h.html" target="_top" xlink:title="BCTのCoreTlmパラメタのオーバーライド用ヘッダー">
<polygon fill="white" stroke="black" points="582.15,-112.5 582.15,-142.5 763.15,-142.5 763.15,-112.5 582.15,-112.5"/>
<text text-anchor="start" x="590.15" y="-130.5" font-family="Helvetica,sans-Serif" font-size="10.00">src_user/Settings/CmdTlm</text>
<text text-anchor="middle" x="672.65" y="-119.5" font-family="Helvetica,sans-Serif" font-size="10.00">/block_command_table_params.h</text>
</a>
</g>
</g>
<!-- Node16&#45;&gt;Node17 -->
<g id="edge22" class="edge">
<title>Node16&#45;&gt;Node17</title>
<path fill="none" stroke="midnightblue" d="M726.17,-190.36C717.63,-180.49 703.35,-163.98 691.68,-150.49"/>
<polygon fill="midnightblue" stroke="midnightblue" points="694.02,-147.85 684.83,-142.58 688.73,-152.43 694.02,-147.85"/>
</g>
</g>
</svg>
