<?xml version="1.0" encoding="UTF-8" standalone="no"?>
<!DOCTYPE svg PUBLIC "-//W3C//DTD SVG 1.1//EN"
 "http://www.w3.org/Graphics/SVG/1.1/DTD/svg11.dtd">
<!-- Generated by graphviz version 2.43.0 (0)
 -->
<!-- Title: C2A_init_ Pages: 1 -->
<svg width="756pt" height="1447pt"
 viewBox="0.00 0.00 756.00 1446.84" xmlns="http://www.w3.org/2000/svg" xmlns:xlink="http://www.w3.org/1999/xlink">
<g id="graph0" class="graph" transform="scale(1 1) rotate(0) translate(4 1442.84)">
<title>C2A_init_</title>
<polygon fill="white" stroke="transparent" points="-4,4 -4,-1442.84 752,-1442.84 752,4 -4,4"/>
<!-- Node1 -->
<g id="node1" class="node">
<title>Node1</title>
<g id="a_node1"><a xlink:title=" ">
<polygon fill="#bfbfbf" stroke="black" points="0,-95.5 0,-114.5 62,-114.5 62,-95.5 0,-95.5"/>
<text text-anchor="middle" x="31" y="-102.5" font-family="Helvetica,sans-Serif" font-size="10.00">C2A_init_</text>
</a>
</g>
</g>
<!-- Node2 -->
<g id="node2" class="node">
<title>Node2</title>
<g id="a_node2"><a xlink:href="c2a__core__main_8c.html#a65ecdc63d8762ffde4db7f6c6e6f07cf" target="_top" xlink:title=" ">
<polygon fill="white" stroke="black" points="100,-361.5 100,-380.5 183,-380.5 183,-361.5 100,-361.5"/>
<text text-anchor="middle" x="141.5" y="-368.5" font-family="Helvetica,sans-Serif" font-size="10.00">C2A_core_init</text>
</a>
</g>
</g>
<!-- Node1&#45;&gt;Node2 -->
<g id="edge1" class="edge">
<title>Node1&#45;&gt;Node2</title>
<path fill="none" stroke="midnightblue" d="M35.99,-114.78C51.94,-153.89 111.3,-299.42 132.73,-351.94"/>
<polygon fill="midnightblue" stroke="midnightblue" points="129.57,-353.47 136.59,-361.41 136.05,-350.83 129.57,-353.47"/>
</g>
<!-- Node34 -->
<g id="node11" class="node">
<title>Node34</title>
<g id="a_node11"><a xlink:href="src__core_2_library_2print_8c.html#a4bc499fc724de87725ee7dc60ed1d106" target="_top" xlink:title=" ">
<polygon fill="white" stroke="black" points="653.5,-475.5 653.5,-494.5 696.5,-494.5 696.5,-475.5 653.5,-475.5"/>
<text text-anchor="middle" x="675" y="-482.5" font-family="Helvetica,sans-Serif" font-size="10.00">Printf</text>
</a>
</g>
</g>
<!-- Node1&#45;&gt;Node34 -->
<g id="edge49" class="edge">
<title>Node1&#45;&gt;Node34</title>
<path fill="none" stroke="midnightblue" d="M62.14,-107.35C134.82,-113.17 318.17,-128.81 378,-143 464.75,-163.58 502.28,-150.64 566,-213 640.28,-285.7 664.81,-415.89 671.67,-465.28"/>
<polygon fill="midnightblue" stroke="midnightblue" points="668.21,-465.81 672.96,-475.28 675.15,-464.91 668.21,-465.81"/>
</g>
<!-- Node701 -->
<g id="node43" class="node">
<title>Node701</title>
<g id="a_node43"><a xlink:href="time__manager_8c.html#a86a4083b25d115816f123201b6ee13f4" target="_top" xlink:title="master_clock_ と unixtime_info_ をクリアし全てゼロにする">
<polygon fill="white" stroke="black" points="452.5,-76.5 452.5,-95.5 527.5,-95.5 527.5,-76.5 452.5,-76.5"/>
<text text-anchor="middle" x="490" y="-83.5" font-family="Helvetica,sans-Serif" font-size="10.00">TMGR_clear</text>
</a>
</g>
</g>
<!-- Node1&#45;&gt;Node701 -->
<g id="edge51" class="edge">
<title>Node1&#45;&gt;Node701</title>
<path fill="none" stroke="midnightblue" d="M62.34,-103.74C140.45,-100.49 348.87,-91.83 442.42,-87.94"/>
<polygon fill="midnightblue" stroke="midnightblue" points="442.6,-91.43 452.44,-87.52 442.3,-84.44 442.6,-91.43"/>
</g>
<!-- Node703 -->
<g id="node46" class="node">
<title>Node703</title>
<g id="a_node46"><a xlink:href="c2a__main_8c.html#a19d7863309e54cb3fd09b623fe7a082e" target="_top" xlink:title=" ">
<polygon fill="white" stroke="black" points="98,-0.5 98,-19.5 185,-19.5 185,-0.5 98,-0.5"/>
<text text-anchor="middle" x="141.5" y="-7.5" font-family="Helvetica,sans-Serif" font-size="10.00">timer_setting_</text>
</a>
</g>
</g>
<!-- Node1&#45;&gt;Node703 -->
<g id="edge50" class="edge">
<title>Node1&#45;&gt;Node703</title>
<path fill="none" stroke="midnightblue" d="M39.33,-95.39C50.74,-80.85 73.95,-52.97 98,-34 102.22,-30.67 106.95,-27.52 111.69,-24.67"/>
<polygon fill="midnightblue" stroke="midnightblue" points="113.7,-27.55 120.66,-19.56 110.24,-21.46 113.7,-27.55"/>
</g>
<!-- Node704 -->
<g id="node47" class="node">
<title>Node704</title>
<g id="a_node47"><a xlink:href="time__manager_8c.html#a418722e38c58b8ba7fb2e62b1b6f293b" target="_top" xlink:title="TimeManager 構造体を初期化する">
<polygon fill="white" stroke="black" points="266,-35.5 266,-54.5 333,-54.5 333,-35.5 266,-35.5"/>
<text text-anchor="middle" x="299.5" y="-42.5" font-family="Helvetica,sans-Serif" font-size="10.00">TMGR_init</text>
</a>
</g>
</g>
<!-- Node1&#45;&gt;Node704 -->
<g id="edge52" class="edge">
<title>Node1&#45;&gt;Node704</title>
<path fill="none" stroke="midnightblue" d="M47.39,-95.47C60.39,-87.88 79.76,-77.62 98,-72 150.8,-55.74 214.42,-49.27 255.62,-46.69"/>
<polygon fill="midnightblue" stroke="midnightblue" points="256.07,-50.17 265.85,-46.11 255.67,-43.19 256.07,-50.17"/>
</g>
<!-- Node705 -->
<g id="node49" class="node">
<title>Node705</title>
<g id="a_node49"><a xlink:href="watchdog__timer_8c.html#a3b6f1e6b8d84973fe3273975bfbb1908" target="_top" xlink:title="WDTの初期化">
<polygon fill="white" stroke="black" points="111,-810.5 111,-829.5 172,-829.5 172,-810.5 111,-810.5"/>
<text text-anchor="middle" x="141.5" y="-817.5" font-family="Helvetica,sans-Serif" font-size="10.00">WDT_init</text>
</a>
</g>
</g>
<!-- Node1&#45;&gt;Node705 -->
<g id="edge56" class="edge">
<title>Node1&#45;&gt;Node705</title>
<path fill="none" stroke="midnightblue" d="M33.45,-114.57C44.95,-190.35 121.32,-693.59 137.49,-800.19"/>
<polygon fill="midnightblue" stroke="midnightblue" points="134.05,-800.86 139.02,-810.22 140.98,-799.81 134.05,-800.86"/>
</g>
<!-- Node3 -->
<g id="node3" class="node">
<title>Node3</title>
<g id="a_node3"><a xlink:href="anomaly__logger_8c.html#a572ffa232dd3209b4e9e432bcea136aa" target="_top" xlink:title=" ">
<polygon fill="white" stroke="black" points="261.5,-380.5 261.5,-399.5 337.5,-399.5 337.5,-380.5 261.5,-380.5"/>
<text text-anchor="middle" x="299.5" y="-387.5" font-family="Helvetica,sans-Serif" font-size="10.00">AL_initialize</text>
</a>
</g>
</g>
<!-- Node2&#45;&gt;Node3 -->
<g id="edge2" class="edge">
<title>Node2&#45;&gt;Node3</title>
<path fill="none" stroke="midnightblue" d="M183.08,-375.94C203.97,-378.49 229.54,-381.6 251.31,-384.25"/>
<polygon fill="midnightblue" stroke="midnightblue" points="250.98,-387.74 261.33,-385.47 251.83,-380.79 250.98,-387.74"/>
</g>
<!-- Node8 -->
<g id="node7" class="node">
<title>Node8</title>
<g id="a_node7"><a xlink:href="app__manager_8c.html#ab2f87054f18f2233c1d8bcbe8bf8811e" target="_top" xlink:title=" ">
<polygon fill="white" stroke="black" points="259.5,-570.5 259.5,-589.5 339.5,-589.5 339.5,-570.5 259.5,-570.5"/>
<text text-anchor="middle" x="299.5" y="-577.5" font-family="Helvetica,sans-Serif" font-size="10.00">AM_initialize</text>
</a>
</g>
</g>
<!-- Node2&#45;&gt;Node8 -->
<g id="edge6" class="edge">
<title>Node2&#45;&gt;Node8</title>
<path fill="none" stroke="midnightblue" d="M143.47,-380.65C147.13,-411.9 163.06,-511.23 221,-561 229.04,-567.91 239.2,-572.39 249.5,-575.27"/>
<polygon fill="midnightblue" stroke="midnightblue" points="248.81,-578.7 259.34,-577.57 250.4,-571.88 248.81,-578.7"/>
</g>
<!-- Node12 -->
<g id="node9" class="node">
<title>Node12</title>
<g id="a_node9"><a xlink:href="app__manager_8c.html#a4cc7cbb82adf461396826ab31fe4415f" target="_top" xlink:title=" ">
<polygon fill="white" stroke="black" points="237,-190.5 237,-209.5 362,-209.5 362,-190.5 237,-190.5"/>
<text text-anchor="middle" x="299.5" y="-197.5" font-family="Helvetica,sans-Serif" font-size="10.00">AM_initialize_all_apps</text>
</a>
</g>
</g>
<!-- Node2&#45;&gt;Node12 -->
<g id="edge8" class="edge">
<title>Node2&#45;&gt;Node12</title>
<path fill="none" stroke="midnightblue" d="M144.54,-361.4C150.77,-334.42 172.24,-257.41 221,-219 223.3,-217.19 225.74,-215.55 228.29,-214.07"/>
<polygon fill="midnightblue" stroke="midnightblue" points="229.92,-217.16 237.32,-209.58 226.81,-210.89 229.92,-217.16"/>
</g>
<!-- Node2&#45;&gt;Node34 -->
<g id="edge41" class="edge">
<title>Node2&#45;&gt;Node34</title>
<path fill="none" stroke="midnightblue" d="M148.92,-380.58C160.84,-397.45 188.19,-432.09 221,-447 296.61,-481.35 554.03,-484.9 643.25,-485.08"/>
<polygon fill="midnightblue" stroke="midnightblue" points="643.28,-488.58 653.28,-485.09 643.28,-481.58 643.28,-488.58"/>
</g>
<!-- Node39 -->
<g id="node12" class="node">
<title>Node39</title>
<g id="a_node12"><a xlink:href="app__registry_8c.html#ab944b1d78a41e427bc2ed57f9c4e9534" target="_top" xlink:title=" ">
<polygon fill="white" stroke="black" points="232.5,-950.5 232.5,-969.5 366.5,-969.5 366.5,-950.5 232.5,-950.5"/>
<text text-anchor="middle" x="299.5" y="-957.5" font-family="Helvetica,sans-Serif" font-size="10.00">AR_load_initial_settings</text>
</a>
</g>
</g>
<!-- Node2&#45;&gt;Node39 -->
<g id="edge11" class="edge">
<title>Node2&#45;&gt;Node39</title>
<path fill="none" stroke="midnightblue" d="M145.08,-380.73C162.97,-448.28 268.68,-847.4 293.35,-940.56"/>
<polygon fill="midnightblue" stroke="midnightblue" points="290,-941.59 295.95,-950.36 296.77,-939.8 290,-941.59"/>
</g>
<!-- Node320 -->
<g id="node34" class="node">
<title>Node320</title>
<g id="a_node34"><a xlink:href="block__command__table_8c.html#a626372f9ceecbe91c090aac87437edd1" target="_top" xlink:title="BCT の初期化関数">
<polygon fill="white" stroke="red" points="258,-418.5 258,-437.5 341,-437.5 341,-418.5 258,-418.5"/>
<text text-anchor="middle" x="299.5" y="-425.5" font-family="Helvetica,sans-Serif" font-size="10.00">BCT_initialize</text>
</a>
</g>
</g>
<!-- Node2&#45;&gt;Node320 -->
<g id="edge34" class="edge">
<title>Node2&#45;&gt;Node320</title>
<path fill="none" stroke="midnightblue" d="M159.51,-380.53C175.11,-388.95 199.06,-401.1 221,-409 229.61,-412.1 238.95,-414.87 248.05,-417.27"/>
<polygon fill="midnightblue" stroke="midnightblue" points="247.25,-420.67 257.8,-419.72 248.96,-413.88 247.25,-420.67"/>
</g>
<!-- Node366 -->
<g id="node36" class="node">
<title>Node366</title>
<g id="a_node36"><a xlink:href="command__analyze_8c.html#ae6d1f376bf4e1c9c4b63bc3f04924c8a" target="_top" xlink:title="CA の初期化">
<polygon fill="white" stroke="red" points="261,-532.5 261,-551.5 338,-551.5 338,-532.5 261,-532.5"/>
<text text-anchor="middle" x="299.5" y="-539.5" font-family="Helvetica,sans-Serif" font-size="10.00">CA_initialize</text>
</a>
</g>
</g>
<!-- Node2&#45;&gt;Node366 -->
<g id="edge36" class="edge">
<title>Node2&#45;&gt;Node366</title>
<path fill="none" stroke="midnightblue" d="M144.54,-380.6C150.77,-407.58 172.24,-484.59 221,-523 229.66,-529.83 240.44,-534.24 251.17,-537.09"/>
<polygon fill="midnightblue" stroke="midnightblue" points="250.42,-540.51 260.95,-539.29 251.96,-533.68 250.42,-540.51"/>
</g>
<!-- Node654 -->
<g id="node37" class="node">
<title>Node654</title>
<g id="a_node37"><a xlink:href="event__manager_8c.html#ab1482d1d3615e189486d853e1f0209dd" target="_top" xlink:title="event_manager の初期化">
<polygon fill="white" stroke="red" points="260,-342.5 260,-361.5 339,-361.5 339,-342.5 260,-342.5"/>
<text text-anchor="middle" x="299.5" y="-349.5" font-family="Helvetica,sans-Serif" font-size="10.00">EM_initialize</text>
</a>
</g>
</g>
<!-- Node2&#45;&gt;Node654 -->
<g id="edge38" class="edge">
<title>Node2&#45;&gt;Node654</title>
<path fill="none" stroke="midnightblue" d="M183.08,-366.06C203.41,-363.58 228.18,-360.57 249.55,-357.96"/>
<polygon fill="midnightblue" stroke="midnightblue" points="250.23,-361.4 259.74,-356.72 249.39,-354.46 250.23,-361.4"/>
</g>
<!-- Node655 -->
<g id="node38" class="node">
<title>Node655</title>
<g id="a_node38"><a xlink:href="mode__manager_8c.html#a89fbf516698fe6c690438e21ec8efd82" target="_top" xlink:title="モード遷移を管理する ModeManager 構造体 (mode_manager_) の初期化">
<polygon fill="white" stroke="red" points="258.5,-304.5 258.5,-323.5 340.5,-323.5 340.5,-304.5 258.5,-304.5"/>
<text text-anchor="middle" x="299.5" y="-311.5" font-family="Helvetica,sans-Serif" font-size="10.00">MM_initialize</text>
</a>
</g>
</g>
<!-- Node2&#45;&gt;Node655 -->
<g id="edge39" class="edge">
<title>Node2&#45;&gt;Node655</title>
<path fill="none" stroke="midnightblue" d="M159.51,-361.47C175.11,-353.05 199.06,-340.9 221,-333 229.71,-329.86 239.15,-327.07 248.36,-324.65"/>
<polygon fill="midnightblue" stroke="midnightblue" points="249.35,-328.01 258.2,-322.18 247.65,-321.22 249.35,-328.01"/>
</g>
<!-- Node659 -->
<g id="node39" class="node">
<title>Node659</title>
<g id="a_node39"><a xlink:href="packet__handler_8c.html#ad3f261544ad4209b9d6c7c997fcf1931" target="_top" xlink:title=" ">
<polygon fill="white" stroke="red" points="274,-266.5 274,-285.5 325,-285.5 325,-266.5 274,-266.5"/>
<text text-anchor="middle" x="299.5" y="-273.5" font-family="Helvetica,sans-Serif" font-size="10.00">PH_init</text>
</a>
</g>
</g>
<!-- Node2&#45;&gt;Node659 -->
<g id="edge40" class="edge">
<title>Node2&#45;&gt;Node659</title>
<path fill="none" stroke="midnightblue" d="M149.57,-361.41C162.08,-345.15 189.79,-312.25 221,-295 234.04,-287.79 249.81,-283.29 263.71,-280.49"/>
<polygon fill="midnightblue" stroke="midnightblue" points="264.67,-283.87 273.9,-278.66 263.44,-276.98 264.67,-283.87"/>
</g>
<!-- Node662 -->
<g id="node40" class="node">
<title>Node662</title>
<g id="a_node40"><a xlink:href="task__dispatcher_8c.html#ab4cccbf9d36945e27f8023f9d613a667" target="_top" xlink:title="タスク管理を行うTDSP_Info構造体(TDSP_Info_)の初期化">
<polygon fill="white" stroke="red" points="255,-228.5 255,-247.5 344,-247.5 344,-228.5 255,-228.5"/>
<text text-anchor="middle" x="299.5" y="-235.5" font-family="Helvetica,sans-Serif" font-size="10.00">TDSP_initialize</text>
</a>
</g>
</g>
<!-- Node2&#45;&gt;Node662 -->
<g id="edge42" class="edge">
<title>Node2&#45;&gt;Node662</title>
<path fill="none" stroke="midnightblue" d="M146.31,-361.27C155.53,-339.07 181.25,-284.44 221,-257 228.13,-252.08 236.4,-248.43 244.83,-245.72"/>
<polygon fill="midnightblue" stroke="midnightblue" points="246.05,-249.02 254.74,-242.96 244.16,-242.27 246.05,-249.02"/>
</g>
<!-- Node664 -->
<g id="node41" class="node">
<title>Node664</title>
<g id="a_node41"><a xlink:href="telemetry__frame_8c.html#a76cf4c72318af4ce953abdb8b522e787" target="_top" xlink:title="TF の初期化">
<polygon fill="white" stroke="red" points="261.5,-494.5 261.5,-513.5 337.5,-513.5 337.5,-494.5 261.5,-494.5"/>
<text text-anchor="middle" x="299.5" y="-501.5" font-family="Helvetica,sans-Serif" font-size="10.00">TF_initialize</text>
</a>
</g>
</g>
<!-- Node2&#45;&gt;Node664 -->
<g id="edge43" class="edge">
<title>Node2&#45;&gt;Node664</title>
<path fill="none" stroke="midnightblue" d="M146.84,-380.78C156.79,-402.07 183.32,-452.9 221,-480 230.02,-486.49 240.83,-491.25 251.48,-494.74"/>
<polygon fill="midnightblue" stroke="midnightblue" points="250.58,-498.13 261.16,-497.61 252.57,-491.41 250.58,-498.13"/>
</g>
<!-- Node700 -->
<g id="node42" class="node">
<title>Node700</title>
<g id="a_node42"><a xlink:href="time__manager_8c.html#a781332d8904398cf2392f4aa48292f7f" target="_top" xlink:title="C2Aの初期化終了時に呼び出し, 初期化flagを下げ, TMGRをもう一度クリアする">
<polygon fill="white" stroke="black" points="221,-152.5 221,-171.5 378,-171.5 378,-152.5 221,-152.5"/>
<text text-anchor="middle" x="299.5" y="-159.5" font-family="Helvetica,sans-Serif" font-size="10.00">TMGR_down_initializing_flag</text>
</a>
</g>
</g>
<!-- Node2&#45;&gt;Node700 -->
<g id="edge45" class="edge">
<title>Node2&#45;&gt;Node700</title>
<path fill="none" stroke="midnightblue" d="M143.47,-361.35C147.13,-330.1 163.06,-230.77 221,-181 222.98,-179.3 225.08,-177.75 227.29,-176.33"/>
<polygon fill="midnightblue" stroke="midnightblue" points="229.08,-179.34 236.21,-171.51 225.75,-173.19 229.08,-179.34"/>
</g>
<!-- Node4 -->
<g id="node4" class="node">
<title>Node4</title>
<g id="a_node4"><a xlink:href="anomaly__logger_8c.html#a888bdc12f38b32d172038d834916489c" target="_top" xlink:title=" ">
<polygon fill="white" stroke="red" points="461,-380.5 461,-399.5 519,-399.5 519,-380.5 461,-380.5"/>
<text text-anchor="middle" x="490" y="-387.5" font-family="Helvetica,sans-Serif" font-size="10.00">AL_clear</text>
</a>
</g>
</g>
<!-- Node3&#45;&gt;Node4 -->
<g id="edge3" class="edge">
<title>Node3&#45;&gt;Node4</title>
<path fill="none" stroke="midnightblue" d="M337.74,-390C370.37,-390 417.6,-390 450.57,-390"/>
<polygon fill="midnightblue" stroke="midnightblue" points="450.74,-393.5 460.74,-390 450.74,-386.5 450.74,-393.5"/>
</g>
<!-- Node6 -->
<g id="node5" class="node">
<title>Node6</title>
<g id="a_node5"><a xlink:href="anomaly__logger_8c.html#a0c7938f778d5ce70957af2c263f321ea" target="_top" xlink:title=" ">
<polygon fill="white" stroke="black" points="433,-331 433,-361 547,-361 547,-331 433,-331"/>
<text text-anchor="start" x="441" y="-349" font-family="Helvetica,sans-Serif" font-size="10.00">AL_init_logging_ena</text>
<text text-anchor="middle" x="490" y="-338" font-family="Helvetica,sans-Serif" font-size="10.00">_flag_</text>
</a>
</g>
</g>
<!-- Node3&#45;&gt;Node6 -->
<g id="edge4" class="edge">
<title>Node3&#45;&gt;Node6</title>
<path fill="none" stroke="midnightblue" d="M337.74,-381.31C362.02,-375.64 394.39,-368.08 422.96,-361.42"/>
<polygon fill="midnightblue" stroke="midnightblue" points="423.94,-364.78 432.88,-359.1 422.35,-357.96 423.94,-364.78"/>
</g>
<!-- Node7 -->
<g id="node6" class="node">
<title>Node7</title>
<g id="a_node6"><a xlink:href="al__default__settings_8c.html#a54643a20c878017384258a8c67616688" target="_top" xlink:title=" ">
<polygon fill="white" stroke="black" points="420.5,-292.5 420.5,-311.5 559.5,-311.5 559.5,-292.5 420.5,-292.5"/>
<text text-anchor="middle" x="490" y="-299.5" font-family="Helvetica,sans-Serif" font-size="10.00">AL_load_default_settings</text>
</a>
</g>
</g>
<!-- Node3&#45;&gt;Node7 -->
<g id="edge5" class="edge">
<title>Node3&#45;&gt;Node7</title>
<path fill="none" stroke="midnightblue" d="M337.74,-386.24C351.27,-383.55 366.13,-378.92 378,-371 400.47,-355.99 391.68,-337.23 414,-322 417.57,-319.56 421.42,-317.43 425.43,-315.55"/>
<polygon fill="midnightblue" stroke="midnightblue" points="427.08,-318.65 435,-311.62 424.42,-312.18 427.08,-318.65"/>
</g>
<!-- Node9 -->
<g id="node8" class="node">
<title>Node9</title>
<g id="a_node8"><a xlink:href="nop_8c.html#ab02fdb34c152c34d35c242609ad9fdc4" target="_top" xlink:title=" ">
<polygon fill="white" stroke="red" points="441.5,-570.5 441.5,-589.5 538.5,-589.5 538.5,-570.5 441.5,-570.5"/>
<text text-anchor="middle" x="490" y="-577.5" font-family="Helvetica,sans-Serif" font-size="10.00">NOP_create_app</text>
</a>
</g>
</g>
<!-- Node8&#45;&gt;Node9 -->
<g id="edge7" class="edge">
<title>Node8&#45;&gt;Node9</title>
<path fill="none" stroke="midnightblue" d="M339.56,-580C365.99,-580 401.36,-580 431.06,-580"/>
<polygon fill="midnightblue" stroke="midnightblue" points="431.3,-583.5 441.3,-580 431.3,-576.5 431.3,-583.5"/>
</g>
<!-- Node13 -->
<g id="node10" class="node">
<title>Node13</title>
<g id="a_node10"><a xlink:href="app__manager_8c.html#a26a59b0004c449cd7610ce8ef8de4b0c" target="_top" xlink:title=" ">
<polygon fill="white" stroke="red" points="436,-222.5 436,-241.5 544,-241.5 544,-222.5 436,-222.5"/>
<text text-anchor="middle" x="490" y="-229.5" font-family="Helvetica,sans-Serif" font-size="10.00">AM_initialize_app_</text>
</a>
</g>
</g>
<!-- Node12&#45;&gt;Node13 -->
<g id="edge9" class="edge">
<title>Node12&#45;&gt;Node13</title>
<path fill="none" stroke="midnightblue" d="M356.55,-209.51C378.29,-213.2 403.29,-217.45 425.68,-221.25"/>
<polygon fill="midnightblue" stroke="midnightblue" points="425.31,-224.74 435.76,-222.96 426.48,-217.84 425.31,-224.74"/>
</g>
<!-- Node13&#45;&gt;Node34 -->
<g id="edge10" class="edge">
<title>Node13&#45;&gt;Node34</title>
<path fill="none" stroke="midnightblue" d="M510.15,-241.6C526.56,-250.56 550,-265.2 566,-283 617.76,-340.58 653.26,-427.41 667.29,-465.7"/>
<polygon fill="midnightblue" stroke="midnightblue" points="664.01,-466.91 670.68,-475.15 670.6,-464.55 664.01,-466.91"/>
</g>
<!-- Node39&#45;&gt;Node9 -->
<g id="edge25" class="edge">
<title>Node39&#45;&gt;Node9</title>
<path fill="none" stroke="midnightblue" d="M300.36,-950.49C300.25,-904.25 306.09,-700.98 414,-599 419.05,-594.23 425.12,-590.61 431.6,-587.87"/>
<polygon fill="midnightblue" stroke="midnightblue" points="433.03,-591.08 441.3,-584.46 430.7,-584.47 433.03,-591.08"/>
</g>
<!-- Node40 -->
<g id="node13" class="node">
<title>Node40</title>
<g id="a_node13"><a xlink:href="app__registry_8c.html#a2da852209e46150e0940e559e981b582" target="_top" xlink:title=" ">
<polygon fill="white" stroke="red" points="440.5,-684.5 440.5,-703.5 539.5,-703.5 539.5,-684.5 440.5,-684.5"/>
<text text-anchor="middle" x="490" y="-691.5" font-family="Helvetica,sans-Serif" font-size="10.00">add_application_</text>
</a>
</g>
</g>
<!-- Node39&#45;&gt;Node40 -->
<g id="edge12" class="edge">
<title>Node39&#45;&gt;Node40</title>
<path fill="none" stroke="midnightblue" d="M301.91,-950.41C307.85,-913.48 334.38,-779.26 414,-713 418.95,-708.88 424.67,-705.64 430.7,-703.09"/>
<polygon fill="midnightblue" stroke="midnightblue" points="432.14,-706.3 440.37,-699.63 429.78,-699.71 432.14,-706.3"/>
</g>
<!-- Node42 -->
<g id="node14" class="node">
<title>Node42</title>
<g id="a_node14"><a xlink:href="anomaly__handler_8c.html#a527184a40c59e88853557f2fd32f1c98" target="_top" xlink:title=" ">
<polygon fill="white" stroke="red" points="445,-646.5 445,-665.5 535,-665.5 535,-646.5 445,-646.5"/>
<text text-anchor="middle" x="490" y="-653.5" font-family="Helvetica,sans-Serif" font-size="10.00">AH_create_app</text>
</a>
</g>
</g>
<!-- Node39&#45;&gt;Node42 -->
<g id="edge13" class="edge">
<title>Node39&#45;&gt;Node42</title>
<path fill="none" stroke="midnightblue" d="M301.27,-950.38C305.03,-910.03 325.11,-752.96 414,-675 420.04,-669.71 427.34,-665.85 434.99,-663.05"/>
<polygon fill="midnightblue" stroke="midnightblue" points="436.27,-666.31 444.8,-660.03 434.22,-659.62 436.27,-666.31"/>
</g>
<!-- Node99 -->
<g id="node15" class="node">
<title>Node99</title>
<g id="a_node15"><a xlink:href="debug__apps_8c.html#a448f4269bd049fc9e6e7ec800427a7ae" target="_top" xlink:title=" ">
<polygon fill="white" stroke="red" points="426,-608.5 426,-627.5 554,-627.5 554,-608.5 426,-608.5"/>
<text text-anchor="middle" x="490" y="-615.5" font-family="Helvetica,sans-Serif" font-size="10.00">APP_DBG_flush_screen</text>
</a>
</g>
</g>
<!-- Node39&#45;&gt;Node99 -->
<g id="edge14" class="edge">
<title>Node39&#45;&gt;Node99</title>
<path fill="none" stroke="midnightblue" d="M300.77,-950.33C302.53,-906.75 315.72,-726.82 414,-637 415.69,-635.45 417.49,-634.03 419.38,-632.72"/>
<polygon fill="midnightblue" stroke="midnightblue" points="421.22,-635.69 428.12,-627.65 417.72,-629.63 421.22,-635.69"/>
</g>
<!-- Node104 -->
<g id="node16" class="node">
<title>Node104</title>
<g id="a_node16"><a xlink:href="debug__apps_8c.html#a67dbccb31d8e1a91fa6bd81f2e2d89e6" target="_top" xlink:title=" ">
<polygon fill="white" stroke="red" points="414,-1380.5 414,-1399.5 566,-1399.5 566,-1380.5 414,-1380.5"/>
<text text-anchor="middle" x="490" y="-1387.5" font-family="Helvetica,sans-Serif" font-size="10.00">APP_DBG_print_cmd_status</text>
</a>
</g>
</g>
<!-- Node39&#45;&gt;Node104 -->
<g id="edge15" class="edge">
<title>Node39&#45;&gt;Node104</title>
<path fill="none" stroke="midnightblue" d="M304.17,-969.68C316.11,-1001.44 354.43,-1105.5 378,-1194 398.66,-1271.57 358.6,-1312.9 414,-1371 415.24,-1372.3 416.56,-1373.52 417.94,-1374.66"/>
<polygon fill="midnightblue" stroke="midnightblue" points="416.22,-1377.72 426.48,-1380.36 420.11,-1371.9 416.22,-1377.72"/>
</g>
<!-- Node107 -->
<g id="node17" class="node">
<title>Node107</title>
<g id="a_node17"><a xlink:href="debug__apps_8c.html#a1f97b9428a5b3c4fdc8ec2257f2485d6" target="_top" xlink:title=" ">
<polygon fill="white" stroke="red" points="425.5,-1342.5 425.5,-1361.5 554.5,-1361.5 554.5,-1342.5 425.5,-1342.5"/>
<text text-anchor="middle" x="490" y="-1349.5" font-family="Helvetica,sans-Serif" font-size="10.00">APP_DBG_print_git_rev</text>
</a>
</g>
</g>
<!-- Node39&#45;&gt;Node107 -->
<g id="edge16" class="edge">
<title>Node39&#45;&gt;Node107</title>
<path fill="none" stroke="midnightblue" d="M303.98,-969.74C315.35,-1001.66 352.11,-1106.15 378,-1194 396.04,-1255.21 368.76,-1288 414,-1333 415.43,-1334.42 416.95,-1335.74 418.54,-1336.97"/>
<polygon fill="midnightblue" stroke="midnightblue" points="416.73,-1339.96 427.06,-1342.34 420.47,-1334.04 416.73,-1339.96"/>
</g>
<!-- Node109 -->
<g id="node18" class="node">
<title>Node109</title>
<g id="a_node18"><a xlink:href="debug__apps_8c.html#a6c47dcced795ca54bde0910ccbccdcc6" target="_top" xlink:title=" ">
<polygon fill="white" stroke="red" points="431,-1293 431,-1323 549,-1323 549,-1293 431,-1293"/>
<text text-anchor="start" x="439" y="-1311" font-family="Helvetica,sans-Serif" font-size="10.00">APP_DBG_print_time</text>
<text text-anchor="middle" x="490" y="-1300" font-family="Helvetica,sans-Serif" font-size="10.00">_stamp</text>
</a>
</g>
</g>
<!-- Node39&#45;&gt;Node109 -->
<g id="edge17" class="edge">
<title>Node39&#45;&gt;Node109</title>
<path fill="none" stroke="midnightblue" d="M303.62,-969.62C320.62,-1022.02 401.87,-1271.07 414,-1283 416.52,-1285.48 419.3,-1287.72 422.25,-1289.73"/>
<polygon fill="midnightblue" stroke="midnightblue" points="420.57,-1292.8 430.97,-1294.84 424.11,-1286.76 420.57,-1292.8"/>
</g>
<!-- Node113 -->
<g id="node19" class="node">
<title>Node113</title>
<g id="a_node19"><a xlink:href="divided__cmd__utility_8c.html#a84cf58a5349ef5691992551cf0882674" target="_top" xlink:title=" ">
<polygon fill="white" stroke="red" points="441,-1254.5 441,-1273.5 539,-1273.5 539,-1254.5 441,-1254.5"/>
<text text-anchor="middle" x="490" y="-1261.5" font-family="Helvetica,sans-Serif" font-size="10.00">DCU_create_app</text>
</a>
</g>
</g>
<!-- Node39&#45;&gt;Node113 -->
<g id="edge18" class="edge">
<title>Node39&#45;&gt;Node113</title>
<path fill="none" stroke="midnightblue" d="M303.11,-969.79C315.41,-1015.28 368.95,-1205.49 414,-1245 419.09,-1249.46 425.08,-1252.9 431.42,-1255.56"/>
<polygon fill="midnightblue" stroke="midnightblue" points="430.3,-1258.87 440.9,-1258.9 432.63,-1252.27 430.3,-1258.87"/>
</g>
<!-- Node117 -->
<g id="node20" class="node">
<title>Node117</title>
<g id="a_node20"><a xlink:href="di__gs_8c.html#a9db482e4676bf373c0f84561058f1f91" target="_top" xlink:title=" ">
<polygon fill="white" stroke="red" points="414,-1216.5 414,-1235.5 566,-1235.5 566,-1216.5 414,-1216.5"/>
<text text-anchor="middle" x="490" y="-1223.5" font-family="Helvetica,sans-Serif" font-size="10.00">DI_GS_cmd_packet_handler</text>
</a>
</g>
</g>
<!-- Node39&#45;&gt;Node117 -->
<g id="edge19" class="edge">
<title>Node39&#45;&gt;Node117</title>
<path fill="none" stroke="midnightblue" d="M301.91,-969.59C307.85,-1006.52 334.38,-1140.74 414,-1207 416.03,-1208.69 418.2,-1210.24 420.46,-1211.64"/>
<polygon fill="midnightblue" stroke="midnightblue" points="419.12,-1214.9 429.61,-1216.43 422.37,-1208.69 419.12,-1214.9"/>
</g>
<!-- Node222 -->
<g id="node21" class="node">
<title>Node222</title>
<g id="a_node21"><a xlink:href="di__gs_8c.html#acdcbf3a0e68de63d2078e808e87cd0e7" target="_top" xlink:title=" ">
<polygon fill="white" stroke="red" points="415.5,-1178.5 415.5,-1197.5 564.5,-1197.5 564.5,-1178.5 415.5,-1178.5"/>
<text text-anchor="middle" x="490" y="-1185.5" font-family="Helvetica,sans-Serif" font-size="10.00">DI_GS_mst_packet_handler</text>
</a>
</g>
</g>
<!-- Node39&#45;&gt;Node222 -->
<g id="edge20" class="edge">
<title>Node39&#45;&gt;Node222</title>
<path fill="none" stroke="midnightblue" d="M302.79,-969.7C311.19,-1003.11 343.58,-1114.27 414,-1169 416.34,-1170.82 418.83,-1172.46 421.43,-1173.95"/>
<polygon fill="midnightblue" stroke="midnightblue" points="420.1,-1177.2 430.62,-1178.43 423.17,-1170.9 420.1,-1177.2"/>
</g>
<!-- Node256 -->
<g id="node22" class="node">
<title>Node256</title>
<g id="a_node22"><a xlink:href="di__gs_8c.html#a3dbaf7df7b7ed796ff4823ca28dca18c" target="_top" xlink:title=" ">
<polygon fill="white" stroke="red" points="418,-1140.5 418,-1159.5 562,-1159.5 562,-1140.5 418,-1140.5"/>
<text text-anchor="middle" x="490" y="-1147.5" font-family="Helvetica,sans-Serif" font-size="10.00">DI_GS_rpt_packet_handler</text>
</a>
</g>
</g>
<!-- Node39&#45;&gt;Node256 -->
<g id="edge21" class="edge">
<title>Node39&#45;&gt;Node256</title>
<path fill="none" stroke="midnightblue" d="M303.94,-969.55C314.98,-998.72 352.37,-1087.33 414,-1131 416.74,-1132.94 419.66,-1134.68 422.7,-1136.25"/>
<polygon fill="midnightblue" stroke="midnightblue" points="421.55,-1139.57 432.11,-1140.43 424.39,-1133.17 421.55,-1139.57"/>
</g>
<!-- Node260 -->
<g id="node23" class="node">
<title>Node260</title>
<g id="a_node23"><a xlink:href="event__utility_8c.html#aa819ee69e6cd34b9217e9627ee12f70c" target="_top" xlink:title=" ">
<polygon fill="white" stroke="red" points="422.5,-1102.5 422.5,-1121.5 557.5,-1121.5 557.5,-1102.5 422.5,-1102.5"/>
<text text-anchor="middle" x="490" y="-1109.5" font-family="Helvetica,sans-Serif" font-size="10.00">EVENT_UTIL_create_app</text>
</a>
</g>
</g>
<!-- Node39&#45;&gt;Node260 -->
<g id="edge22" class="edge">
<title>Node39&#45;&gt;Node260</title>
<path fill="none" stroke="midnightblue" d="M305.93,-969.82C320.16,-994.62 361.15,-1060.14 414,-1093 417.43,-1095.13 421.09,-1097.03 424.88,-1098.71"/>
<polygon fill="midnightblue" stroke="midnightblue" points="423.91,-1102.09 434.5,-1102.47 426.46,-1095.57 423.91,-1102.09"/>
</g>
<!-- Node286 -->
<g id="node24" class="node">
<title>Node286</title>
<g id="a_node24"><a xlink:href="gs__command__dispatcher_8c.html#a0195f703ab1a606ae7541ef886e609bc" target="_top" xlink:title="GSCD App 生成関数">
<polygon fill="white" stroke="red" points="438,-1064.5 438,-1083.5 542,-1083.5 542,-1064.5 438,-1064.5"/>
<text text-anchor="middle" x="490" y="-1071.5" font-family="Helvetica,sans-Serif" font-size="10.00">GSCD_create_app</text>
</a>
</g>
</g>
<!-- Node39&#45;&gt;Node286 -->
<g id="edge23" class="edge">
<title>Node39&#45;&gt;Node286</title>
<path fill="none" stroke="midnightblue" d="M309.16,-969.73C326.88,-989.01 369.38,-1032.19 414,-1055 418.59,-1057.35 423.49,-1059.42 428.51,-1061.24"/>
<polygon fill="midnightblue" stroke="midnightblue" points="427.65,-1064.64 438.24,-1064.45 429.84,-1058 427.65,-1064.64"/>
</g>
<!-- Node293 -->
<g id="node25" class="node">
<title>Node293</title>
<g id="a_node25"><a xlink:href="memory__dump_8c.html#ac747559fba8a72afe20e7ce1c1c3f250" target="_top" xlink:title=" ">
<polygon fill="white" stroke="red" points="440,-1026.5 440,-1045.5 540,-1045.5 540,-1026.5 440,-1026.5"/>
<text text-anchor="middle" x="490" y="-1033.5" font-family="Helvetica,sans-Serif" font-size="10.00">MEM_create_app</text>
</a>
</g>
</g>
<!-- Node39&#45;&gt;Node293 -->
<g id="edge24" class="edge">
<title>Node39&#45;&gt;Node293</title>
<path fill="none" stroke="midnightblue" d="M316.91,-969.67C338.53,-982.08 378.05,-1003.6 414,-1017 420.51,-1019.43 427.45,-1021.65 434.39,-1023.65"/>
<polygon fill="midnightblue" stroke="midnightblue" points="433.92,-1027.15 444.49,-1026.42 435.77,-1020.4 433.92,-1027.15"/>
</g>
<!-- Node295 -->
<g id="node26" class="node">
<title>Node295</title>
<g id="a_node26"><a xlink:href="realtime__command__dispatcher_8c.html#a6de82e8f79b0281c403be56abfaec6ba" target="_top" xlink:title=" ">
<polygon fill="white" stroke="red" points="439.5,-988.5 439.5,-1007.5 540.5,-1007.5 540.5,-988.5 439.5,-988.5"/>
<text text-anchor="middle" x="490" y="-995.5" font-family="Helvetica,sans-Serif" font-size="10.00">RTCD_create_app</text>
</a>
</g>
</g>
<!-- Node39&#45;&gt;Node295 -->
<g id="edge26" class="edge">
<title>Node39&#45;&gt;Node295</title>
<path fill="none" stroke="midnightblue" d="M348.07,-969.59C373.5,-974.72 405,-981.07 431.77,-986.46"/>
<polygon fill="midnightblue" stroke="midnightblue" points="431.28,-989.93 441.78,-988.48 432.66,-983.07 431.28,-989.93"/>
</g>
<!-- Node298 -->
<g id="node27" class="node">
<title>Node298</title>
<g id="a_node27"><a xlink:href="timeline__command__dispatcher_8c.html#a5c3636e3f9ba660572455a68f07a3c8e" target="_top" xlink:title=" ">
<polygon fill="white" stroke="red" points="436.5,-950.5 436.5,-969.5 543.5,-969.5 543.5,-950.5 436.5,-950.5"/>
<text text-anchor="middle" x="490" y="-957.5" font-family="Helvetica,sans-Serif" font-size="10.00">TLCD0_create_app</text>
</a>
</g>
</g>
<!-- Node39&#45;&gt;Node298 -->
<g id="edge27" class="edge">
<title>Node39&#45;&gt;Node298</title>
<path fill="none" stroke="midnightblue" d="M366.69,-960C386.03,-960 407.09,-960 426.21,-960"/>
<polygon fill="midnightblue" stroke="midnightblue" points="426.3,-963.5 436.3,-960 426.3,-956.5 426.3,-963.5"/>
</g>
<!-- Node304 -->
<g id="node28" class="node">
<title>Node304</title>
<g id="a_node28"><a xlink:href="timeline__command__dispatcher_8c.html#a55fef225002dd96ca2bb3e4dbf48af16" target="_top" xlink:title=" ">
<polygon fill="white" stroke="red" points="436.5,-912.5 436.5,-931.5 543.5,-931.5 543.5,-912.5 436.5,-912.5"/>
<text text-anchor="middle" x="490" y="-919.5" font-family="Helvetica,sans-Serif" font-size="10.00">TLCD1_create_app</text>
</a>
</g>
</g>
<!-- Node39&#45;&gt;Node304 -->
<g id="edge28" class="edge">
<title>Node39&#45;&gt;Node304</title>
<path fill="none" stroke="midnightblue" d="M348.07,-950.41C373.5,-945.28 405,-938.93 431.77,-933.54"/>
<polygon fill="midnightblue" stroke="midnightblue" points="432.66,-936.93 441.78,-931.52 431.28,-930.07 432.66,-936.93"/>
</g>
<!-- Node307 -->
<g id="node29" class="node">
<title>Node307</title>
<g id="a_node29"><a xlink:href="timeline__command__dispatcher_8c.html#a67a4900c4eb408e9d16cdcb4deefbe39" target="_top" xlink:title=" ">
<polygon fill="white" stroke="red" points="436.5,-874.5 436.5,-893.5 543.5,-893.5 543.5,-874.5 436.5,-874.5"/>
<text text-anchor="middle" x="490" y="-881.5" font-family="Helvetica,sans-Serif" font-size="10.00">TLCD2_create_app</text>
</a>
</g>
</g>
<!-- Node39&#45;&gt;Node307 -->
<g id="edge29" class="edge">
<title>Node39&#45;&gt;Node307</title>
<path fill="none" stroke="midnightblue" d="M316.91,-950.33C338.53,-937.92 378.05,-916.4 414,-903 420.51,-900.57 427.45,-898.35 434.39,-896.35"/>
<polygon fill="midnightblue" stroke="midnightblue" points="435.77,-899.6 444.49,-893.58 433.92,-892.85 435.77,-899.6"/>
</g>
<!-- Node310 -->
<g id="node30" class="node">
<title>Node310</title>
<g id="a_node30"><a xlink:href="telemetry__manager_8c.html#ac32b3a7a00616f559cc1d4b06fa21ccd" target="_top" xlink:title=" ">
<polygon fill="white" stroke="red" points="427.5,-836.5 427.5,-855.5 552.5,-855.5 552.5,-836.5 427.5,-836.5"/>
<text text-anchor="middle" x="490" y="-843.5" font-family="Helvetica,sans-Serif" font-size="10.00">TLM_MGR_create_app</text>
</a>
</g>
</g>
<!-- Node39&#45;&gt;Node310 -->
<g id="edge30" class="edge">
<title>Node39&#45;&gt;Node310</title>
<path fill="none" stroke="midnightblue" d="M309.16,-950.27C326.88,-930.99 369.38,-887.81 414,-865 418.59,-862.65 423.49,-860.58 428.51,-858.76"/>
<polygon fill="midnightblue" stroke="midnightblue" points="429.84,-862 438.24,-855.55 427.65,-855.36 429.84,-862"/>
</g>
<!-- Node312 -->
<g id="node31" class="node">
<title>Node312</title>
<g id="a_node31"><a xlink:href="di__uart__test_8c.html#ac2cadb32ca03377583d0cc1d5b0f39cc" target="_top" xlink:title=" ">
<polygon fill="white" stroke="red" points="434.5,-798.5 434.5,-817.5 545.5,-817.5 545.5,-798.5 434.5,-798.5"/>
<text text-anchor="middle" x="490" y="-805.5" font-family="Helvetica,sans-Serif" font-size="10.00">UART_TEST_update</text>
</a>
</g>
</g>
<!-- Node39&#45;&gt;Node312 -->
<g id="edge31" class="edge">
<title>Node39&#45;&gt;Node312</title>
<path fill="none" stroke="midnightblue" d="M305.93,-950.18C320.16,-925.38 361.15,-859.86 414,-827 417.43,-824.87 421.09,-822.97 424.88,-821.29"/>
<polygon fill="midnightblue" stroke="midnightblue" points="426.46,-824.43 434.5,-817.53 423.91,-817.91 426.46,-824.43"/>
</g>
<!-- Node316 -->
<g id="node32" class="node">
<title>Node316</title>
<g id="a_node32"><a xlink:href="utility__command_8c.html#a7d4585daf2c82da6c13c08d6bac72533" target="_top" xlink:title=" ">
<polygon fill="white" stroke="red" points="427,-760.5 427,-779.5 553,-779.5 553,-760.5 427,-760.5"/>
<text text-anchor="middle" x="490" y="-767.5" font-family="Helvetica,sans-Serif" font-size="10.00">UTIL_CMD_create_app</text>
</a>
</g>
</g>
<!-- Node39&#45;&gt;Node316 -->
<g id="edge32" class="edge">
<title>Node39&#45;&gt;Node316</title>
<path fill="none" stroke="midnightblue" d="M303.94,-950.45C314.98,-921.28 352.37,-832.67 414,-789 416.74,-787.06 419.66,-785.32 422.7,-783.75"/>
<polygon fill="midnightblue" stroke="midnightblue" points="424.39,-786.83 432.11,-779.57 421.55,-780.43 424.39,-786.83"/>
</g>
<!-- Node318 -->
<g id="node33" class="node">
<title>Node318</title>
<g id="a_node33"><a xlink:href="utility__counter_8c.html#a11fa1f89c97776d92a69b52f201be370" target="_top" xlink:title=" ">
<polygon fill="white" stroke="red" points="414.5,-722.5 414.5,-741.5 565.5,-741.5 565.5,-722.5 414.5,-722.5"/>
<text text-anchor="middle" x="490" y="-729.5" font-family="Helvetica,sans-Serif" font-size="10.00">UTIL_COUNTER_create_app</text>
</a>
</g>
</g>
<!-- Node39&#45;&gt;Node318 -->
<g id="edge33" class="edge">
<title>Node39&#45;&gt;Node318</title>
<path fill="none" stroke="midnightblue" d="M302.79,-950.3C311.19,-916.89 343.58,-805.73 414,-751 416.34,-749.18 418.83,-747.54 421.43,-746.05"/>
<polygon fill="midnightblue" stroke="midnightblue" points="423.17,-749.1 430.62,-741.57 420.1,-742.8 423.17,-749.1"/>
</g>
<!-- Node321 -->
<g id="node35" class="node">
<title>Node321</title>
<g id="a_node35"><a xlink:href="block__command__definitions_8c.html#a522491947d97b89960b9228a8a86c3ec" target="_top" xlink:title="各ブロックコマンドIDに中身の初期値をロードしていく">
<polygon fill="white" stroke="red" points="439.5,-418.5 439.5,-437.5 540.5,-437.5 540.5,-418.5 439.5,-418.5"/>
<text text-anchor="middle" x="490" y="-425.5" font-family="Helvetica,sans-Serif" font-size="10.00">BC_load_defaults</text>
</a>
</g>
</g>
<!-- Node320&#45;&gt;Node321 -->
<g id="edge35" class="edge">
<title>Node320&#45;&gt;Node321</title>
<path fill="none" stroke="midnightblue" d="M341.4,-428C367.05,-428 400.57,-428 429.18,-428"/>
<polygon fill="midnightblue" stroke="midnightblue" points="429.47,-431.5 439.47,-428 429.47,-424.5 429.47,-431.5"/>
</g>
<!-- Node366&#45;&gt;Node34 -->
<g id="edge37" class="edge">
<title>Node366&#45;&gt;Node34</title>
<path fill="none" stroke="midnightblue" d="M338.02,-538.18C389.58,-532.71 485.14,-521.76 566,-508 592.31,-503.52 621.94,-497.11 643.51,-492.2"/>
<polygon fill="midnightblue" stroke="midnightblue" points="644.43,-495.57 653.39,-489.92 642.86,-488.75 644.43,-495.57"/>
</g>
<!-- Node664&#45;&gt;Node34 -->
<g id="edge44" class="edge">
<title>Node664&#45;&gt;Node34</title>
<path fill="none" stroke="midnightblue" d="M337.68,-502.11C411.41,-498.36 574.93,-490.04 643.16,-486.57"/>
<polygon fill="midnightblue" stroke="midnightblue" points="643.46,-490.06 653.27,-486.05 643.1,-483.07 643.46,-490.06"/>
</g>
<!-- Node700&#45;&gt;Node701 -->
<g id="edge46" class="edge">
<title>Node700&#45;&gt;Node701</title>
<path fill="none" stroke="midnightblue" d="M324.37,-152.37C357.66,-138.95 418.15,-114.57 455.81,-99.38"/>
<polygon fill="midnightblue" stroke="midnightblue" points="457.35,-102.53 465.32,-95.55 454.74,-96.04 457.35,-102.53"/>
</g>
<!-- Node98 -->
<g id="node44" class="node">
<title>Node98</title>
<g id="a_node44"><a xlink:href="obc__time_8c.html#af728cdbeae57ea5bf7f25ba5a3776e60" target="_top" xlink:title="ObcTime をクリアし全てゼロにする">
<polygon fill="white" stroke="black" points="638.5,-13.5 638.5,-32.5 711.5,-32.5 711.5,-13.5 638.5,-13.5"/>
<text text-anchor="middle" x="675" y="-20.5" font-family="Helvetica,sans-Serif" font-size="10.00">OBCT_clear</text>
</a>
</g>
</g>
<!-- Node701&#45;&gt;Node98 -->
<g id="edge47" class="edge">
<title>Node701&#45;&gt;Node98</title>
<path fill="none" stroke="midnightblue" d="M527.88,-77.09C540.1,-73.9 553.72,-70.07 566,-66 592.25,-57.31 621.34,-45.6 642.71,-36.6"/>
<polygon fill="midnightblue" stroke="midnightblue" points="644.11,-39.81 651.94,-32.67 641.37,-33.36 644.11,-39.81"/>
</g>
<!-- Node702 -->
<g id="node45" class="node">
<title>Node702</title>
<g id="a_node45"><a xlink:href="obc__time_8c.html#ae72247fec74fee72ad94d2b5cf1debe0" target="_top" xlink:title="OBCT_UnixtimeInfo をクリアして全て0にする">
<polygon fill="white" stroke="black" points="602,-76.5 602,-95.5 748,-95.5 748,-76.5 602,-76.5"/>
<text text-anchor="middle" x="675" y="-83.5" font-family="Helvetica,sans-Serif" font-size="10.00">OBCT_clear_unixtime_info</text>
</a>
</g>
</g>
<!-- Node701&#45;&gt;Node702 -->
<g id="edge48" class="edge">
<title>Node701&#45;&gt;Node702</title>
<path fill="none" stroke="midnightblue" d="M527.59,-86C546.05,-86 569.22,-86 591.66,-86"/>
<polygon fill="midnightblue" stroke="midnightblue" points="591.9,-89.5 601.9,-86 591.9,-82.5 591.9,-89.5"/>
</g>
<!-- Node704&#45;&gt;Node701 -->
<g id="edge54" class="edge">
<title>Node704&#45;&gt;Node701</title>
<path fill="none" stroke="midnightblue" d="M333.33,-52.14C363.45,-58.69 408.37,-68.46 442.23,-75.83"/>
<polygon fill="midnightblue" stroke="midnightblue" points="441.84,-79.32 452.35,-78.03 443.33,-72.48 441.84,-79.32"/>
</g>
<!-- Node704&#45;&gt;Node98 -->
<g id="edge53" class="edge">
<title>Node704&#45;&gt;Node98</title>
<path fill="none" stroke="midnightblue" d="M330.48,-35.5C353.15,-28.83 385.19,-20.5 414,-17 488.43,-7.95 575.7,-13.17 627.83,-17.95"/>
<polygon fill="midnightblue" stroke="midnightblue" points="627.81,-21.46 638.09,-18.93 628.47,-14.49 627.81,-21.46"/>
</g>
<!-- Node618 -->
<g id="node48" class="node">
<title>Node618</title>
<g id="a_node48"><a xlink:href="time__manager_8c.html#a44c4be95c8692e6e64f8ec10d1a389d6" target="_top" xlink:title="utl_unixtime_epoch_ の setter">
<polygon fill="white" stroke="black" points="423.5,-27 423.5,-57 556.5,-57 556.5,-27 423.5,-27"/>
<text text-anchor="start" x="431.5" y="-45" font-family="Helvetica,sans-Serif" font-size="10.00">TMGR_set_utl_unixtime</text>
<text text-anchor="middle" x="490" y="-34" font-family="Helvetica,sans-Serif" font-size="10.00">_epoch_</text>
</a>
</g>
</g>
<!-- Node704&#45;&gt;Node618 -->
<g id="edge55" class="edge">
<title>Node704&#45;&gt;Node618</title>
<path fill="none" stroke="midnightblue" d="M333.33,-44.48C355.41,-44.13 385.45,-43.65 413.25,-43.21"/>
<polygon fill="midnightblue" stroke="midnightblue" points="413.43,-46.7 423.38,-43.04 413.32,-39.7 413.43,-46.7"/>
</g>
<!-- Node649 -->
<g id="node50" class="node">
<title>Node649</title>
<g id="a_node50"><a xlink:href="watchdog__timer_8c.html#a945b94824a858411b66630dad7c15840" target="_top" xlink:title=" ">
<polygon fill="white" stroke="red" points="269,-1203.5 269,-1222.5 330,-1222.5 330,-1203.5 269,-1203.5"/>
<text text-anchor="middle" x="299.5" y="-1210.5" font-family="Helvetica,sans-Serif" font-size="10.00">wdt_init_</text>
</a>
</g>
</g>
<!-- Node705&#45;&gt;Node649 -->
<g id="edge57" class="edge">
<title>Node705&#45;&gt;Node649</title>
<path fill="none" stroke="midnightblue" d="M146.36,-829.71C166.84,-881.32 263.02,-1123.61 290.9,-1193.86"/>
<polygon fill="midnightblue" stroke="midnightblue" points="287.7,-1195.27 294.64,-1203.27 294.2,-1192.69 287.7,-1195.27"/>
</g>
<!-- Node649&#45;&gt;Node34 -->
<g id="edge58" class="edge">
<title>Node649&#45;&gt;Node34</title>
<path fill="none" stroke="midnightblue" d="M302.56,-1222.75C310.2,-1256.21 340.42,-1366.58 414,-1409 472.53,-1442.74 515.53,-1453.91 566,-1409 636.2,-1346.53 668.02,-633.96 673.23,-504.96"/>
<polygon fill="midnightblue" stroke="midnightblue" points="676.74,-504.75 673.64,-494.62 669.74,-504.48 676.74,-504.75"/>
</g>
</g>
</svg>
