<?xml version="1.0" encoding="UTF-8" standalone="no"?>
<!DOCTYPE svg PUBLIC "-//W3C//DTD SVG 1.1//EN"
 "http://www.w3.org/Graphics/SVG/1.1/DTD/svg11.dtd">
<!-- Generated by graphviz version 2.43.0 (0)
 -->
<!-- Title: CSP_get_dest_type Pages: 1 -->
<svg width="1900pt" height="683pt"
 viewBox="0.00 0.00 1900.00 682.50" xmlns="http://www.w3.org/2000/svg" xmlns:xlink="http://www.w3.org/1999/xlink">
<g id="graph0" class="graph" transform="scale(1 1) rotate(0) translate(4 678.5)">
<title>CSP_get_dest_type</title>
<polygon fill="white" stroke="transparent" points="-4,4 -4,-678.5 1896,-678.5 1896,4 -4,4"/>
<!-- Node1 -->
<g id="node1" class="node">
<title>Node1</title>
<g id="a_node1"><a xlink:title="Destination Type を取得">
<polygon fill="#bfbfbf" stroke="black" points="1782,-137 1782,-156 1892,-156 1892,-137 1782,-137"/>
<text text-anchor="middle" x="1837" y="-144" font-family="Helvetica,sans-Serif" font-size="10.00">CSP_get_dest_type</text>
</a>
</g>
</g>
<!-- Node2 -->
<g id="node2" class="node">
<title>Node2</title>
<g id="a_node2"><a xlink:href="common__cmd__packet_8c.html#a120a6ef1fee069ab4c4013da8539e0eb" target="_top" xlink:title="DEST_TYPE を取得">
<polygon fill="white" stroke="black" points="1636,-194 1636,-213 1746,-213 1746,-194 1636,-194"/>
<text text-anchor="middle" x="1691" y="-201" font-family="Helvetica,sans-Serif" font-size="10.00">CCP_get_dest_type</text>
</a>
</g>
</g>
<!-- Node1&#45;&gt;Node2 -->
<g id="edge1" class="edge">
<title>Node1&#45;&gt;Node2</title>
<path fill="none" stroke="midnightblue" d="M1802.3,-159.84C1775.89,-170.3 1739.78,-184.59 1716.18,-193.93"/>
<polygon fill="midnightblue" stroke="midnightblue" points="1803.89,-162.98 1811.9,-156.04 1801.31,-156.47 1803.89,-162.98"/>
</g>
<!-- Node59 -->
<g id="node42" class="node">
<title>Node59</title>
<g id="a_node42"><a xlink:href="gs_8c.html#a71a6268f1b467c60429c671e47e51e1d" target="_top" xlink:title="地上からの受信データ解析関数">
<polygon fill="white" stroke="black" points="1104,-61 1104,-80 1230,-80 1230,-61 1104,-61"/>
<text text-anchor="middle" x="1167" y="-68" font-family="Helvetica,sans-Serif" font-size="10.00">GS_analyze_rec_data_</text>
</a>
</g>
</g>
<!-- Node1&#45;&gt;Node59 -->
<g id="edge59" class="edge">
<title>Node1&#45;&gt;Node59</title>
<path fill="none" stroke="midnightblue" d="M1771.83,-139.2C1643.57,-124.61 1357.01,-92 1230.3,-77.59"/>
<polygon fill="midnightblue" stroke="midnightblue" points="1771.57,-142.69 1781.9,-140.34 1772.36,-135.74 1771.57,-142.69"/>
</g>
<!-- Node3 -->
<g id="node3" class="node">
<title>Node3</title>
<g id="a_node3"><a xlink:href="di__aobc_8h.html#aff7d4f09f3003e15242d14e6ed393059" target="_top" xlink:title="CommonCmdPacket を AOBC に送信する">
<polygon fill="white" stroke="black" points="1439,-271 1439,-290 1600,-290 1600,-271 1439,-271"/>
<text text-anchor="middle" x="1519.5" y="-278" font-family="Helvetica,sans-Serif" font-size="10.00">DI_AOBC_dispatch_command</text>
</a>
</g>
</g>
<!-- Node2&#45;&gt;Node3 -->
<g id="edge2" class="edge">
<title>Node2&#45;&gt;Node3</title>
<path fill="none" stroke="midnightblue" d="M1659.42,-217.39C1625.38,-232.85 1571.27,-257.44 1541.62,-270.9"/>
<polygon fill="midnightblue" stroke="midnightblue" points="1661.22,-220.42 1668.88,-213.1 1658.32,-214.05 1661.22,-220.42"/>
</g>
<!-- Node48 -->
<g id="node31" class="node">
<title>Node48</title>
<g id="a_node31"><a xlink:href="user__packet__handler_8h.html#a6ceb9e37114f6c81c6872ec90dd2a39d" target="_top" xlink:title="PH の analyze_cmd_ のユーザー処理関数">
<polygon fill="white" stroke="black" points="1456.5,-194 1456.5,-213 1582.5,-213 1582.5,-194 1456.5,-194"/>
<text text-anchor="middle" x="1519.5" y="-201" font-family="Helvetica,sans-Serif" font-size="10.00">PH_user_analyze_cmd</text>
</a>
</g>
</g>
<!-- Node2&#45;&gt;Node48 -->
<g id="edge32" class="edge">
<title>Node2&#45;&gt;Node48</title>
<path fill="none" stroke="midnightblue" d="M1625.78,-203.5C1611.64,-203.5 1596.69,-203.5 1582.64,-203.5"/>
<polygon fill="midnightblue" stroke="midnightblue" points="1625.9,-207 1635.9,-203.5 1625.9,-200 1625.9,-207"/>
</g>
<!-- Node4 -->
<g id="node4" class="node">
<title>Node4</title>
<g id="a_node4"><a xlink:href="user__packet__handler_8h.html#a2c3c644313071db44127bc7a90be4569" target="_top" xlink:title="PH の cmd_router_ のユーザー処理関数">
<polygon fill="white" stroke="black" points="1276,-350 1276,-369 1393,-369 1393,-350 1276,-350"/>
<text text-anchor="middle" x="1334.5" y="-357" font-family="Helvetica,sans-Serif" font-size="10.00">PH_user_cmd_router</text>
</a>
</g>
</g>
<!-- Node3&#45;&gt;Node4 -->
<g id="edge3" class="edge">
<title>Node3&#45;&gt;Node4</title>
<path fill="none" stroke="midnightblue" d="M1487.14,-294.04C1450.26,-309.96 1389.99,-335.98 1357.65,-349.94"/>
<polygon fill="midnightblue" stroke="midnightblue" points="1488.63,-297.21 1496.43,-290.03 1485.86,-290.78 1488.63,-297.21"/>
</g>
<!-- Node5 -->
<g id="node5" class="node">
<title>Node5</title>
<g id="a_node5"><a xlink:href="packet__handler_8h.html#a7b1777e6101ff2eeeef6042166974cdc" target="_top" xlink:title="CCP をコマンドとして解釈して実行，ないしは別機器へ配送する">
<polygon fill="white" stroke="black" points="717.5,-377 717.5,-396 848.5,-396 848.5,-377 717.5,-377"/>
<text text-anchor="middle" x="783" y="-384" font-family="Helvetica,sans-Serif" font-size="10.00">PH_dispatch_command</text>
</a>
</g>
</g>
<!-- Node4&#45;&gt;Node5 -->
<g id="edge4" class="edge">
<title>Node4&#45;&gt;Node5</title>
<path fill="none" stroke="midnightblue" d="M1265.99,-362.82C1159.39,-368.05 953.45,-378.17 848.66,-383.32"/>
<polygon fill="midnightblue" stroke="midnightblue" points="1266.17,-366.31 1275.99,-362.33 1265.83,-359.32 1266.17,-366.31"/>
</g>
<!-- Node6 -->
<g id="node6" class="node">
<title>Node6</title>
<g id="a_node6"><a xlink:href="block__command__executor_8c.html#ae33c8a6dadb5c8d6052c681bd93eabb4" target="_top" xlink:title="BC をまとめて一括で実行する">
<polygon fill="white" stroke="black" points="524,-377 524,-396 670,-396 670,-377 524,-377"/>
<text text-anchor="middle" x="597" y="-384" font-family="Helvetica,sans-Serif" font-size="10.00">BCE_combine_block_cmd_</text>
</a>
</g>
</g>
<!-- Node5&#45;&gt;Node6 -->
<g id="edge5" class="edge">
<title>Node5&#45;&gt;Node6</title>
<path fill="none" stroke="midnightblue" d="M707.26,-386.5C695.06,-386.5 682.44,-386.5 670.31,-386.5"/>
<polygon fill="midnightblue" stroke="midnightblue" points="707.39,-390 717.39,-386.5 707.39,-383 707.39,-390"/>
</g>
<!-- Node14 -->
<g id="node10" class="node">
<title>Node14</title>
<g id="a_node10"><a xlink:href="block__command__executor_8c.html#ad3ff86b57b5abbbdb7dd658a04f00f13" target="_top" xlink:title="rotator の実行主体">
<polygon fill="white" stroke="black" points="530,-339 530,-358 664,-358 664,-339 530,-339"/>
<text text-anchor="middle" x="597" y="-346" font-family="Helvetica,sans-Serif" font-size="10.00">BCE_rotate_block_cmd_</text>
</a>
</g>
</g>
<!-- Node5&#45;&gt;Node14 -->
<g id="edge9" class="edge">
<title>Node5&#45;&gt;Node14</title>
<path fill="none" stroke="midnightblue" d="M725.44,-374.82C699.35,-369.43 668.76,-363.11 644.1,-358.02"/>
<polygon fill="midnightblue" stroke="midnightblue" points="725.07,-378.32 735.57,-376.91 726.48,-371.46 725.07,-378.32"/>
</g>
<!-- Node16 -->
<g id="node12" class="node">
<title>Node16</title>
<g id="a_node12"><a xlink:href="block__command__executor_8c.html#aa35678f3996844ae59428f34e6c8c78f" target="_top" xlink:title="BC をまとめて一括で実行する">
<polygon fill="white" stroke="black" points="530,-289.5 530,-319.5 664,-319.5 664,-289.5 530,-289.5"/>
<text text-anchor="start" x="538" y="-307.5" font-family="Helvetica,sans-Serif" font-size="10.00">BCE_timelimit_combine</text>
<text text-anchor="middle" x="597" y="-296.5" font-family="Helvetica,sans-Serif" font-size="10.00">_block_cmd_</text>
</a>
</g>
</g>
<!-- Node5&#45;&gt;Node16 -->
<g id="edge12" class="edge">
<title>Node5&#45;&gt;Node16</title>
<path fill="none" stroke="midnightblue" d="M756.01,-371.99C733.61,-359.8 700.21,-342.36 670,-329.5 661.84,-326.03 653.02,-322.66 644.45,-319.58"/>
<polygon fill="midnightblue" stroke="midnightblue" points="754.44,-375.12 764.89,-376.86 757.81,-368.99 754.44,-375.12"/>
</g>
<!-- Node18 -->
<g id="node14" class="node">
<title>Node18</title>
<g id="a_node14"><a xlink:href="command__dispatcher_8h.html#a90617acff33923f51c212b8e3034712c" target="_top" xlink:title="CDIS に登録されているコマンドキューからコマンドを実行">
<polygon fill="white" stroke="black" points="527,-469 527,-488 667,-488 667,-469 527,-469"/>
<text text-anchor="middle" x="597" y="-476" font-family="Helvetica,sans-Serif" font-size="10.00">CDIS_dispatch_command</text>
</a>
</g>
</g>
<!-- Node5&#45;&gt;Node18 -->
<g id="edge15" class="edge">
<title>Node5&#45;&gt;Node18</title>
<path fill="none" stroke="midnightblue" d="M753.67,-400.67C715.76,-419.62 649.57,-452.72 617.08,-468.96"/>
<polygon fill="midnightblue" stroke="midnightblue" points="755.28,-403.77 762.66,-396.17 752.15,-397.51 755.28,-403.77"/>
</g>
<!-- Node36 -->
<g id="node27" class="node">
<title>Node36</title>
<g id="a_node27"><a xlink:href="event__handler_8c.html#a8d7de705ac2b09f9f25644f0c9f55952" target="_top" xlink:title="EH 対応を実施">
<polygon fill="white" stroke="black" points="557,-639 557,-658 637,-658 637,-639 557,-639"/>
<text text-anchor="middle" x="597" y="-646" font-family="Helvetica,sans-Serif" font-size="10.00">EH_respond_</text>
</a>
</g>
</g>
<!-- Node5&#45;&gt;Node36 -->
<g id="edge28" class="edge">
<title>Node5&#45;&gt;Node36</title>
<path fill="none" stroke="midnightblue" d="M775.35,-405.9C761.02,-445.58 724.11,-537.42 670,-598.5 654.76,-615.7 632.45,-630.01 616.71,-638.85"/>
<polygon fill="midnightblue" stroke="midnightblue" points="778.69,-406.96 778.71,-396.36 772.08,-404.63 778.69,-406.96"/>
</g>
<!-- Node44 -->
<g id="node29" class="node">
<title>Node44</title>
<g id="a_node29"><a xlink:href="mode__manager_8c.html#a4a483437e28116e6067d488392922a8f" target="_top" xlink:title="(モード遷移に対応する)ブロックコマンドのタイムラインへの展開を行う">
<polygon fill="white" stroke="black" points="529,-570 529,-589 665,-589 665,-570 529,-570"/>
<text text-anchor="middle" x="597" y="-577" font-family="Helvetica,sans-Serif" font-size="10.00">MM_deploy_block_cmd_</text>
</a>
</g>
</g>
<!-- Node5&#45;&gt;Node44 -->
<g id="edge30" class="edge">
<title>Node5&#45;&gt;Node44</title>
<path fill="none" stroke="midnightblue" d="M765.73,-403.57C728.19,-442.94 636.5,-539.11 607.18,-569.87"/>
<polygon fill="midnightblue" stroke="midnightblue" points="768.51,-405.72 772.88,-396.07 763.44,-400.89 768.51,-405.72"/>
</g>
<!-- Node7 -->
<g id="node7" class="node">
<title>Node7</title>
<g id="a_node7"><a xlink:href="block__command__executor_8h.html#a8fc9800360fc4f594c23209a9fa5a516" target="_top" xlink:title=" ">
<polygon fill="white" stroke="black" points="317.5,-377 317.5,-396 471.5,-396 471.5,-377 317.5,-377"/>
<text text-anchor="middle" x="394.5" y="-384" font-family="Helvetica,sans-Serif" font-size="10.00">Cmd_BCE_COMBINE_BLOCK</text>
</a>
</g>
</g>
<!-- Node6&#45;&gt;Node7 -->
<g id="edge6" class="edge">
<title>Node6&#45;&gt;Node7</title>
<path fill="none" stroke="midnightblue" d="M513.85,-386.5C499.91,-386.5 485.48,-386.5 471.7,-386.5"/>
<polygon fill="midnightblue" stroke="midnightblue" points="513.9,-390 523.9,-386.5 513.9,-383 513.9,-390"/>
</g>
<!-- Node8 -->
<g id="node8" class="node">
<title>Node8</title>
<g id="a_node8"><a xlink:href="command__definitions_8c.html#aa375895192b16d8e7f0ff4545b54e6c4" target="_top" xlink:title="Cmd Tableのロード">
<polygon fill="white" stroke="black" points="132.5,-213 132.5,-232 245.5,-232 245.5,-213 132.5,-213"/>
<text text-anchor="middle" x="189" y="-220" font-family="Helvetica,sans-Serif" font-size="10.00">CA_load_cmd_table</text>
</a>
</g>
</g>
<!-- Node7&#45;&gt;Node8 -->
<g id="edge7" class="edge">
<title>Node7&#45;&gt;Node8</title>
<path fill="none" stroke="midnightblue" d="M311.53,-373.13C307.87,-371.46 304.34,-369.6 301,-367.5 245.13,-332.47 206.77,-258.64 194.35,-232.19"/>
<polygon fill="midnightblue" stroke="midnightblue" points="310.25,-376.39 320.83,-376.87 312.86,-369.9 310.25,-376.39"/>
</g>
<!-- Node9 -->
<g id="node9" class="node">
<title>Node9</title>
<g id="a_node9"><a xlink:href="command__analyze_8h.html#ae6d1f376bf4e1c9c4b63bc3f04924c8a" target="_top" xlink:title="CA の初期化">
<polygon fill="white" stroke="red" points="0,-213 0,-232 77,-232 77,-213 0,-213"/>
<text text-anchor="middle" x="38.5" y="-220" font-family="Helvetica,sans-Serif" font-size="10.00">CA_initialize</text>
</a>
</g>
</g>
<!-- Node8&#45;&gt;Node9 -->
<g id="edge8" class="edge">
<title>Node8&#45;&gt;Node9</title>
<path fill="none" stroke="midnightblue" d="M122.21,-222.5C106.74,-222.5 90.78,-222.5 77.04,-222.5"/>
<polygon fill="midnightblue" stroke="midnightblue" points="122.28,-226 132.28,-222.5 122.28,-219 122.28,-226"/>
</g>
<!-- Node15 -->
<g id="node11" class="node">
<title>Node15</title>
<g id="a_node11"><a xlink:href="block__command__executor_8h.html#a7a537f68d3f291d25a6a4eae3f99cb45" target="_top" xlink:title=" ">
<polygon fill="white" stroke="black" points="322,-339 322,-358 467,-358 467,-339 322,-339"/>
<text text-anchor="middle" x="394.5" y="-346" font-family="Helvetica,sans-Serif" font-size="10.00">Cmd_BCE_ROTATE_BLOCK</text>
</a>
</g>
</g>
<!-- Node14&#45;&gt;Node15 -->
<g id="edge10" class="edge">
<title>Node14&#45;&gt;Node15</title>
<path fill="none" stroke="midnightblue" d="M519.76,-348.5C502.5,-348.5 484.23,-348.5 467.16,-348.5"/>
<polygon fill="midnightblue" stroke="midnightblue" points="519.79,-352 529.79,-348.5 519.79,-345 519.79,-352"/>
</g>
<!-- Node15&#45;&gt;Node8 -->
<g id="edge11" class="edge">
<title>Node15&#45;&gt;Node8</title>
<path fill="none" stroke="midnightblue" d="M317.8,-335.8C311.97,-333.73 306.3,-331.31 301,-328.5 254.15,-303.65 213.07,-253.38 197.09,-232.23"/>
<polygon fill="midnightblue" stroke="midnightblue" points="317.12,-339.26 327.71,-338.99 319.26,-332.6 317.12,-339.26"/>
</g>
<!-- Node17 -->
<g id="node13" class="node">
<title>Node17</title>
<g id="a_node13"><a xlink:href="block__command__executor_8h.html#a33ee70475b35e5606d83857c5843d29a" target="_top" xlink:title=" ">
<polygon fill="white" stroke="black" points="309,-289.5 309,-319.5 480,-319.5 480,-289.5 309,-289.5"/>
<text text-anchor="start" x="317" y="-307.5" font-family="Helvetica,sans-Serif" font-size="10.00">Cmd_BCE_TIMELIMIT_COMBINE</text>
<text text-anchor="middle" x="394.5" y="-296.5" font-family="Helvetica,sans-Serif" font-size="10.00">_BLOCK</text>
</a>
</g>
</g>
<!-- Node16&#45;&gt;Node17 -->
<g id="edge13" class="edge">
<title>Node16&#45;&gt;Node17</title>
<path fill="none" stroke="midnightblue" d="M519.61,-304.5C506.73,-304.5 493.3,-304.5 480.23,-304.5"/>
<polygon fill="midnightblue" stroke="midnightblue" points="519.79,-308 529.79,-304.5 519.79,-301 519.79,-308"/>
</g>
<!-- Node17&#45;&gt;Node8 -->
<g id="edge14" class="edge">
<title>Node17&#45;&gt;Node8</title>
<path fill="none" stroke="midnightblue" d="M333.66,-286.3C322.71,-282.63 311.45,-278.62 301,-274.5 267.74,-261.38 230.33,-243.08 208.54,-232.06"/>
<polygon fill="midnightblue" stroke="midnightblue" points="332.58,-289.63 343.17,-289.43 334.77,-282.98 332.58,-289.63"/>
</g>
<!-- Node19 -->
<g id="node15" class="node">
<title>Node19</title>
<g id="a_node15"><a xlink:href="di__aobc_8c.html#ac2b0fb03e89d75b82419d4ad53202f8b" target="_top" xlink:title=" ">
<polygon fill="white" stroke="black" points="320.5,-491 320.5,-510 468.5,-510 468.5,-491 320.5,-491"/>
<text text-anchor="middle" x="394.5" y="-498" font-family="Helvetica,sans-Serif" font-size="10.00">DI_AOBC_cmd_dispatcher_</text>
</a>
</g>
</g>
<!-- Node18&#45;&gt;Node19 -->
<g id="edge16" class="edge">
<title>Node18&#45;&gt;Node19</title>
<path fill="none" stroke="midnightblue" d="M516.72,-487.2C500.9,-488.94 484.34,-490.75 468.73,-492.46"/>
<polygon fill="midnightblue" stroke="midnightblue" points="517.44,-490.64 527,-486.07 516.68,-483.68 517.44,-490.64"/>
</g>
<!-- Node21 -->
<g id="node17" class="node">
<title>Node21</title>
<g id="a_node17"><a xlink:href="gs__command__dispatcher_8c.html#a4fe4cfc8c0f816a286dc50d8797cef54" target="_top" xlink:title="GSCD App 実行関数">
<polygon fill="white" stroke="black" points="346.5,-453 346.5,-472 442.5,-472 442.5,-453 346.5,-453"/>
<text text-anchor="middle" x="394.5" y="-460" font-family="Helvetica,sans-Serif" font-size="10.00">GSCD_dispatch_</text>
</a>
</g>
</g>
<!-- Node18&#45;&gt;Node21 -->
<g id="edge18" class="edge">
<title>Node18&#45;&gt;Node21</title>
<path fill="none" stroke="midnightblue" d="M516.74,-472.17C491.61,-470.17 464.64,-468.02 442.54,-466.25"/>
<polygon fill="midnightblue" stroke="midnightblue" points="516.75,-475.69 527,-472.99 517.31,-468.71 516.75,-475.69"/>
</g>
<!-- Node24 -->
<g id="node19" class="node">
<title>Node24</title>
<g id="a_node19"><a xlink:href="realtime__command__dispatcher_8c.html#aa66b7d158969999a789dc69d2d5b1b7d" target="_top" xlink:title=" ">
<polygon fill="white" stroke="black" points="347.5,-415 347.5,-434 441.5,-434 441.5,-415 347.5,-415"/>
<text text-anchor="middle" x="394.5" y="-422" font-family="Helvetica,sans-Serif" font-size="10.00">RTCD_dispatch_</text>
</a>
</g>
</g>
<!-- Node18&#45;&gt;Node24 -->
<g id="edge20" class="edge">
<title>Node18&#45;&gt;Node24</title>
<path fill="none" stroke="midnightblue" d="M559.47,-465.55C538.69,-458.46 512.08,-449.85 488,-443.5 473.1,-439.57 456.67,-435.96 441.84,-432.97"/>
<polygon fill="midnightblue" stroke="midnightblue" points="558.58,-468.94 569.17,-468.89 560.86,-462.32 558.58,-468.94"/>
</g>
<!-- Node26 -->
<g id="node21" class="node">
<title>Node26</title>
<g id="a_node21"><a xlink:href="task__dispatcher_8h.html#ac880fe6e26ecdf8711d08980cad6787d" target="_top" xlink:title="現在時刻に応じて、TaskList から Cmd を一つ実行する or TaskList を再展開する">
<polygon fill="white" stroke="black" points="336.5,-567.5 336.5,-597.5 452.5,-597.5 452.5,-567.5 336.5,-567.5"/>
<text text-anchor="start" x="344.5" y="-585.5" font-family="Helvetica,sans-Serif" font-size="10.00">TDSP_execute_pl_as</text>
<text text-anchor="middle" x="394.5" y="-574.5" font-family="Helvetica,sans-Serif" font-size="10.00">_task_list</text>
</a>
</g>
</g>
<!-- Node18&#45;&gt;Node26 -->
<g id="edge22" class="edge">
<title>Node18&#45;&gt;Node26</title>
<path fill="none" stroke="midnightblue" d="M577.95,-494.98C557.53,-512.8 522.6,-540.88 488,-557.5 477.05,-562.76 464.83,-567.05 452.94,-570.5"/>
<polygon fill="midnightblue" stroke="midnightblue" points="580.37,-497.52 585.52,-488.26 575.72,-492.28 580.37,-497.52"/>
</g>
<!-- Node29 -->
<g id="node23" class="node">
<title>Node29</title>
<g id="a_node23"><a xlink:href="timeline__command__dispatcher_8c.html#adc7c7ed35f5cb69bb1d8baccd0193f8d" target="_top" xlink:title="指定された lien_no の Timeline コマンドを実行する">
<polygon fill="white" stroke="black" points="334,-529 334,-548 455,-548 455,-529 334,-529"/>
<text text-anchor="middle" x="394.5" y="-536" font-family="Helvetica,sans-Serif" font-size="10.00">TLCD_tlc_dispatcher_</text>
</a>
</g>
</g>
<!-- Node18&#45;&gt;Node29 -->
<g id="edge24" class="edge">
<title>Node18&#45;&gt;Node29</title>
<path fill="none" stroke="midnightblue" d="M564.51,-491.99C543.21,-500.73 514.27,-511.87 488,-519.5 475.56,-523.11 461.99,-526.31 449.17,-528.99"/>
<polygon fill="midnightblue" stroke="midnightblue" points="566.12,-495.11 574.01,-488.04 563.44,-488.64 566.12,-495.11"/>
</g>
<!-- Node20 -->
<g id="node16" class="node">
<title>Node20</title>
<g id="a_node16"><a xlink:href="di__aobc_8h.html#a22b846ecf2fe48c7bff4f2c10f2bc284" target="_top" xlink:title="AOBC cmd dispatcher アプリ生成関数">
<polygon fill="white" stroke="black" points="117.5,-491 117.5,-510 260.5,-510 260.5,-491 117.5,-491"/>
<text text-anchor="middle" x="189" y="-498" font-family="Helvetica,sans-Serif" font-size="10.00">DI_AOBC_cmd_dispatcher</text>
</a>
</g>
</g>
<!-- Node19&#45;&gt;Node20 -->
<g id="edge17" class="edge">
<title>Node19&#45;&gt;Node20</title>
<path fill="none" stroke="midnightblue" d="M310.21,-500.5C293.82,-500.5 276.77,-500.5 260.83,-500.5"/>
<polygon fill="midnightblue" stroke="midnightblue" points="310.32,-504 320.32,-500.5 310.32,-497 310.32,-504"/>
</g>
<!-- Node22 -->
<g id="node18" class="node">
<title>Node22</title>
<g id="a_node18"><a xlink:href="gs__command__dispatcher_8h.html#a0195f703ab1a606ae7541ef886e609bc" target="_top" xlink:title="GSCD App 生成関数">
<polygon fill="white" stroke="red" points="137,-453 137,-472 241,-472 241,-453 137,-453"/>
<text text-anchor="middle" x="189" y="-460" font-family="Helvetica,sans-Serif" font-size="10.00">GSCD_create_app</text>
</a>
</g>
</g>
<!-- Node21&#45;&gt;Node22 -->
<g id="edge19" class="edge">
<title>Node21&#45;&gt;Node22</title>
<path fill="none" stroke="midnightblue" d="M336.04,-462.5C306.21,-462.5 270.08,-462.5 241.22,-462.5"/>
<polygon fill="midnightblue" stroke="midnightblue" points="336.3,-466 346.3,-462.5 336.3,-459 336.3,-466"/>
</g>
<!-- Node25 -->
<g id="node20" class="node">
<title>Node25</title>
<g id="a_node20"><a xlink:href="realtime__command__dispatcher_8h.html#a6de82e8f79b0281c403be56abfaec6ba" target="_top" xlink:title=" ">
<polygon fill="white" stroke="red" points="138.5,-415 138.5,-434 239.5,-434 239.5,-415 138.5,-415"/>
<text text-anchor="middle" x="189" y="-422" font-family="Helvetica,sans-Serif" font-size="10.00">RTCD_create_app</text>
</a>
</g>
</g>
<!-- Node24&#45;&gt;Node25 -->
<g id="edge21" class="edge">
<title>Node24&#45;&gt;Node25</title>
<path fill="none" stroke="midnightblue" d="M337.22,-424.5C306.6,-424.5 269.06,-424.5 239.55,-424.5"/>
<polygon fill="midnightblue" stroke="midnightblue" points="337.32,-428 347.32,-424.5 337.32,-421 337.32,-428"/>
</g>
<!-- Node27 -->
<g id="node22" class="node">
<title>Node27</title>
<g id="a_node22"><a xlink:href="c2a__core__main_8h.html#a64e3c69d223ce8236ab718278b17b195" target="_top" xlink:title=" ">
<polygon fill="white" stroke="red" points="143,-643 143,-662 235,-662 235,-643 143,-643"/>
<text text-anchor="middle" x="189" y="-650" font-family="Helvetica,sans-Serif" font-size="10.00">C2A_core_main</text>
</a>
</g>
</g>
<!-- Node26&#45;&gt;Node27 -->
<g id="edge23" class="edge">
<title>Node26&#45;&gt;Node27</title>
<path fill="none" stroke="midnightblue" d="M326.29,-597.57C317.6,-600.41 308.96,-603.7 301,-607.5 283.18,-615.99 282.88,-625.15 265,-633.5 255.75,-637.82 245.38,-641.25 235.38,-643.93"/>
<polygon fill="midnightblue" stroke="midnightblue" points="327.55,-600.84 336.08,-594.55 325.49,-594.15 327.55,-600.84"/>
</g>
<!-- Node30 -->
<g id="node24" class="node">
<title>Node30</title>
<g id="a_node24"><a xlink:href="timeline__command__dispatcher_8c.html#a66b090a512984479de9b511902b08514" target="_top" xlink:title=" ">
<polygon fill="white" stroke="red" points="134,-605 134,-624 244,-624 244,-605 134,-605"/>
<text text-anchor="middle" x="189" y="-612" font-family="Helvetica,sans-Serif" font-size="10.00">TLCD_bc_dispatch_</text>
</a>
</g>
</g>
<!-- Node29&#45;&gt;Node30 -->
<g id="edge25" class="edge">
<title>Node29&#45;&gt;Node30</title>
<path fill="none" stroke="midnightblue" d="M324.01,-547.91C315.98,-550.39 308.13,-553.53 301,-557.5 280.67,-568.81 285.07,-583.73 265,-595.5 258.4,-599.37 251.01,-602.46 243.53,-604.93"/>
<polygon fill="midnightblue" stroke="midnightblue" points="325.15,-551.22 333.85,-545.18 323.28,-544.48 325.15,-551.22"/>
</g>
<!-- Node32 -->
<g id="node25" class="node">
<title>Node32</title>
<g id="a_node25"><a xlink:href="timeline__command__dispatcher_8c.html#a61acaaad8a32749d22fd16ee68d8522c" target="_top" xlink:title=" ">
<polygon fill="white" stroke="red" points="134,-567 134,-586 244,-586 244,-567 134,-567"/>
<text text-anchor="middle" x="189" y="-574" font-family="Helvetica,sans-Serif" font-size="10.00">TLCD_gs_dispatch_</text>
</a>
</g>
</g>
<!-- Node29&#45;&gt;Node32 -->
<g id="edge26" class="edge">
<title>Node29&#45;&gt;Node32</title>
<path fill="none" stroke="midnightblue" d="M332.35,-549.92C303.24,-555.36 268.81,-561.78 241.11,-566.96"/>
<polygon fill="midnightblue" stroke="midnightblue" points="333.22,-553.32 342.41,-548.04 331.94,-546.44 333.22,-553.32"/>
</g>
<!-- Node34 -->
<g id="node26" class="node">
<title>Node34</title>
<g id="a_node26"><a xlink:href="timeline__command__dispatcher_8c.html#ab6c98e6d001183d4d8b32f0c333c62d0" target="_top" xlink:title=" ">
<polygon fill="white" stroke="red" points="131,-529 131,-548 247,-548 247,-529 131,-529"/>
<text text-anchor="middle" x="189" y="-536" font-family="Helvetica,sans-Serif" font-size="10.00">TLCD_tlm_dispatch_</text>
</a>
</g>
</g>
<!-- Node29&#45;&gt;Node34 -->
<g id="edge27" class="edge">
<title>Node29&#45;&gt;Node34</title>
<path fill="none" stroke="midnightblue" d="M323.69,-538.5C298.76,-538.5 270.98,-538.5 247.23,-538.5"/>
<polygon fill="midnightblue" stroke="midnightblue" points="323.82,-542 333.82,-538.5 323.82,-535 323.82,-542"/>
</g>
<!-- Node37 -->
<g id="node28" class="node">
<title>Node37</title>
<g id="a_node28"><a xlink:href="event__handler_8c.html#ac7461e79109f06783e2c620a6d999a6b" target="_top" xlink:title="EH の対応条件をチェックし， EL_Event に対応する">
<polygon fill="white" stroke="red" points="314,-655 314,-674 475,-674 475,-655 314,-655"/>
<text text-anchor="middle" x="394.5" y="-662" font-family="Helvetica,sans-Serif" font-size="10.00">EH_check_rule_and_respond_</text>
</a>
</g>
</g>
<!-- Node36&#45;&gt;Node37 -->
<g id="edge29" class="edge">
<title>Node36&#45;&gt;Node37</title>
<path fill="none" stroke="midnightblue" d="M546.66,-652.44C525.13,-654.16 499.33,-656.21 475.19,-658.14"/>
<polygon fill="midnightblue" stroke="midnightblue" points="547.18,-655.91 556.87,-651.62 546.62,-648.93 547.18,-655.91"/>
</g>
<!-- Node45 -->
<g id="node30" class="node">
<title>Node45</title>
<g id="a_node30"><a xlink:href="mode__manager_8c.html#ae4381c1c84d8b5d8aa033e522530436d" target="_top" xlink:title="Cmd_MM_START_TRANSITIONの実体">
<polygon fill="white" stroke="red" points="335,-617 335,-636 454,-636 454,-617 335,-617"/>
<text text-anchor="middle" x="394.5" y="-624" font-family="Helvetica,sans-Serif" font-size="10.00">MM_start_transition_</text>
</a>
</g>
</g>
<!-- Node44&#45;&gt;Node45 -->
<g id="edge31" class="edge">
<title>Node44&#45;&gt;Node45</title>
<path fill="none" stroke="midnightblue" d="M549.19,-591.55C530.23,-596.34 508.1,-601.81 488,-606.5 472.8,-610.04 456.14,-613.71 441.2,-616.92"/>
<polygon fill="midnightblue" stroke="midnightblue" points="550.25,-594.89 559.08,-589.04 548.53,-588.11 550.25,-594.89"/>
</g>
<!-- Node49 -->
<g id="node32" class="node">
<title>Node49</title>
<g id="a_node32"><a xlink:href="packet__handler_8h.html#a9d16c8b958f0f983cf15674d6c528b02" target="_top" xlink:title="CCP を解析する">
<polygon fill="white" stroke="black" points="1266,-194 1266,-213 1403,-213 1403,-194 1266,-194"/>
<text text-anchor="middle" x="1334.5" y="-201" font-family="Helvetica,sans-Serif" font-size="10.00">PH_analyze_cmd_packet</text>
</a>
</g>
</g>
<!-- Node48&#45;&gt;Node49 -->
<g id="edge33" class="edge">
<title>Node48&#45;&gt;Node49</title>
<path fill="none" stroke="midnightblue" d="M1446.12,-203.5C1431.97,-203.5 1417.17,-203.5 1403.18,-203.5"/>
<polygon fill="midnightblue" stroke="midnightblue" points="1446.29,-207 1456.29,-203.5 1446.29,-200 1446.29,-207"/>
</g>
<!-- Node50 -->
<g id="node33" class="node">
<title>Node50</title>
<g id="a_node33"><a xlink:href="common__cmd__packet__util_8h.html#aedfb69bc9ff98498734df05026c5a3f2" target="_top" xlink:title="Realtime command を登録">
<polygon fill="white" stroke="black" points="1118.5,-137 1118.5,-156 1215.5,-156 1215.5,-137 1118.5,-137"/>
<text text-anchor="middle" x="1167" y="-144" font-family="Helvetica,sans-Serif" font-size="10.00">CCP_register_rtc</text>
</a>
</g>
</g>
<!-- Node49&#45;&gt;Node50 -->
<g id="edge34" class="edge">
<title>Node49&#45;&gt;Node50</title>
<path fill="none" stroke="midnightblue" d="M1295.96,-190.57C1265.51,-180.08 1223.27,-165.54 1195.79,-156.07"/>
<polygon fill="midnightblue" stroke="midnightblue" points="1295.2,-194.01 1305.8,-193.96 1297.48,-187.39 1295.2,-194.01"/>
</g>
<!-- Node51 -->
<g id="node34" class="node">
<title>Node51</title>
<g id="a_node34"><a xlink:href="common__cmd__packet__util_8h.html#a8321fb60193f3b5dcf93b42075bea0a6" target="_top" xlink:title="Timeline command を登録">
<polygon fill="white" stroke="black" points="1119,-289 1119,-308 1215,-308 1215,-289 1119,-289"/>
<text text-anchor="middle" x="1167" y="-296" font-family="Helvetica,sans-Serif" font-size="10.00">CCP_register_tlc</text>
</a>
</g>
</g>
<!-- Node49&#45;&gt;Node51 -->
<g id="edge35" class="edge">
<title>Node49&#45;&gt;Node51</title>
<path fill="none" stroke="midnightblue" d="M1315.53,-219.65C1295.81,-236.64 1262.6,-263.13 1230,-279.5 1222.66,-283.19 1214.46,-286.32 1206.49,-288.91"/>
<polygon fill="midnightblue" stroke="midnightblue" points="1317.9,-222.23 1323.12,-213.01 1313.29,-216.96 1317.9,-222.23"/>
</g>
<!-- Node52 -->
<g id="node35" class="node">
<title>Node52</title>
<g id="a_node35"><a xlink:href="common__cmd__packet__util_8h.html#a81e108413662be4555dc9ca3fadc6d11" target="_top" xlink:title="Timeline command を登録 (ASAP 版)">
<polygon fill="white" stroke="black" points="1104.5,-327 1104.5,-346 1229.5,-346 1229.5,-327 1104.5,-327"/>
<text text-anchor="middle" x="1167" y="-334" font-family="Helvetica,sans-Serif" font-size="10.00">CCP_register_tlc_asap</text>
</a>
</g>
</g>
<!-- Node49&#45;&gt;Node52 -->
<g id="edge36" class="edge">
<title>Node49&#45;&gt;Node52</title>
<path fill="none" stroke="midnightblue" d="M1321.79,-221.6C1304.61,-246.73 1270.23,-291.97 1230,-317.5 1223.92,-321.36 1217,-324.48 1210.05,-326.98"/>
<polygon fill="midnightblue" stroke="midnightblue" points="1324.86,-223.3 1327.5,-213.04 1319.04,-219.41 1324.86,-223.3"/>
</g>
<!-- Node54 -->
<g id="node37" class="node">
<title>Node54</title>
<g id="a_node37"><a xlink:href="telemetry__manager_8h.html#a923d6ea9078726984798c4b0800381fe" target="_top" xlink:title="TLM送出用TLをクリア">
<polygon fill="white" stroke="black" points="896,-213 896,-232 1068,-232 1068,-213 896,-213"/>
<text text-anchor="middle" x="982" y="-220" font-family="Helvetica,sans-Serif" font-size="10.00">Cmd_TLM_MGR_CLEAR_TLM_TL</text>
</a>
</g>
</g>
<!-- Node49&#45;&gt;Node54 -->
<g id="edge39" class="edge">
<title>Node49&#45;&gt;Node54</title>
<path fill="none" stroke="midnightblue" d="M1255.77,-207.71C1200.14,-210.73 1125.28,-214.79 1068.06,-217.89"/>
<polygon fill="midnightblue" stroke="midnightblue" points="1256.12,-211.2 1265.92,-207.16 1255.75,-204.21 1256.12,-211.2"/>
</g>
<!-- Node55 -->
<g id="node38" class="node">
<title>Node55</title>
<g id="a_node38"><a xlink:href="telemetry__manager_8h.html#ad6f65df0da86f70cbd0f5b1e6cb32dbc" target="_top" xlink:title="TLM送出開始">
<polygon fill="white" stroke="black" points="706,-175 706,-194 860,-194 860,-175 706,-175"/>
<text text-anchor="middle" x="783" y="-182" font-family="Helvetica,sans-Serif" font-size="10.00">Cmd_TLM_MGR_START_TLM</text>
</a>
</g>
</g>
<!-- Node49&#45;&gt;Node55 -->
<g id="edge41" class="edge">
<title>Node49&#45;&gt;Node55</title>
<path fill="none" stroke="midnightblue" d="M1255.62,-200.81C1150.52,-197.17 964.47,-190.74 860.23,-187.14"/>
<polygon fill="midnightblue" stroke="midnightblue" points="1255.73,-204.31 1265.85,-201.16 1255.97,-197.32 1255.73,-204.31"/>
</g>
<!-- Node56 -->
<g id="node39" class="node">
<title>Node56</title>
<g id="a_node39"><a xlink:href="divided__cmd__utility_8h.html#a65ad0b8aa0af1c9c0bdd74aa37b15b15" target="_top" xlink:title="次の分割の実行を登録">
<polygon fill="white" stroke="black" points="543,-99 543,-118 651,-118 651,-99 543,-99"/>
<text text-anchor="middle" x="597" y="-106" font-family="Helvetica,sans-Serif" font-size="10.00">DCU_register_next</text>
</a>
</g>
</g>
<!-- Node49&#45;&gt;Node56 -->
<g id="edge43" class="edge">
<title>Node49&#45;&gt;Node56</title>
<path fill="none" stroke="midnightblue" d="M1317.48,-186.77C1298.57,-168.31 1265.23,-139.63 1230,-127.5 1123.75,-90.9 783.17,-100.69 651.07,-106.08"/>
<polygon fill="midnightblue" stroke="midnightblue" points="1315.12,-189.36 1324.66,-193.97 1320.08,-184.42 1315.12,-189.36"/>
</g>
<!-- Node49&#45;&gt;Node59 -->
<g id="edge48" class="edge">
<title>Node49&#45;&gt;Node59</title>
<path fill="none" stroke="midnightblue" d="M1313.97,-187.17C1300.02,-175.13 1281.12,-158.03 1266,-141.5 1248.24,-122.08 1251.05,-110.28 1230,-94.5 1221.87,-88.41 1212.01,-83.67 1202.56,-80.07"/>
<polygon fill="midnightblue" stroke="midnightblue" points="1312.06,-190.14 1321.95,-193.97 1316.61,-184.82 1312.06,-190.14"/>
</g>
<!-- Node67 -->
<g id="node50" class="node">
<title>Node67</title>
<g id="a_node50"><a xlink:href="packet__handler_8h.html#acf757fa72967bf66b39dc5ced7132330" target="_top" xlink:title="CTCP を解析する">
<polygon fill="white" stroke="black" points="1111.5,-251 1111.5,-270 1222.5,-270 1222.5,-251 1111.5,-251"/>
<text text-anchor="middle" x="1167" y="-258" font-family="Helvetica,sans-Serif" font-size="10.00">PH_analyze_packet</text>
</a>
</g>
</g>
<!-- Node49&#45;&gt;Node67 -->
<g id="edge58" class="edge">
<title>Node49&#45;&gt;Node67</title>
<path fill="none" stroke="midnightblue" d="M1295.96,-216.43C1265.51,-226.92 1223.27,-241.46 1195.79,-250.93"/>
<polygon fill="midnightblue" stroke="midnightblue" points="1297.48,-219.61 1305.8,-213.04 1295.2,-212.99 1297.48,-219.61"/>
</g>
<!-- Node53 -->
<g id="node36" class="node">
<title>Node53</title>
<g id="a_node36"><a xlink:href="test__ccp__util_8h.html#aa30e45980435690c0efaf62a690dd1c5" target="_top" xlink:title=" ">
<polygon fill="white" stroke="black" points="909,-289.5 909,-319.5 1055,-319.5 1055,-289.5 909,-289.5"/>
<text text-anchor="start" x="917" y="-307.5" font-family="Helvetica,sans-Serif" font-size="10.00">Cmd_TEST_CCP_REGISTER</text>
<text text-anchor="middle" x="982" y="-296.5" font-family="Helvetica,sans-Serif" font-size="10.00">_TLC_ASAP</text>
</a>
</g>
</g>
<!-- Node52&#45;&gt;Node53 -->
<g id="edge37" class="edge">
<title>Node52&#45;&gt;Node53</title>
<path fill="none" stroke="midnightblue" d="M1101.42,-325.21C1086.46,-322.59 1070.44,-319.79 1055.17,-317.12"/>
<polygon fill="midnightblue" stroke="midnightblue" points="1101.14,-328.71 1111.59,-326.99 1102.34,-321.82 1101.14,-328.71"/>
</g>
<!-- Node53&#45;&gt;Node8 -->
<g id="edge38" class="edge">
<title>Node53&#45;&gt;Node8</title>
<path fill="none" stroke="midnightblue" d="M898.86,-296.98C770.97,-285.1 516.51,-260.86 301,-236.5 282.95,-234.46 263.28,-232.04 245.58,-229.8"/>
<polygon fill="midnightblue" stroke="midnightblue" points="898.69,-300.47 908.97,-297.91 899.34,-293.5 898.69,-300.47"/>
</g>
<!-- Node54&#45;&gt;Node8 -->
<g id="edge40" class="edge">
<title>Node54&#45;&gt;Node8</title>
<path fill="none" stroke="midnightblue" d="M885.73,-222.5C718.96,-222.5 379.17,-222.5 245.65,-222.5"/>
<polygon fill="midnightblue" stroke="midnightblue" points="885.97,-226 895.97,-222.5 885.97,-219 885.97,-226"/>
</g>
<!-- Node55&#45;&gt;Node8 -->
<g id="edge42" class="edge">
<title>Node55&#45;&gt;Node8</title>
<path fill="none" stroke="midnightblue" d="M695.37,-186.85C598.97,-189.93 438.62,-196.41 301,-208.5 282.91,-210.09 263.23,-212.39 245.53,-214.66"/>
<polygon fill="midnightblue" stroke="midnightblue" points="695.77,-190.34 705.65,-186.53 695.55,-183.34 695.77,-190.34"/>
</g>
<!-- Node57 -->
<g id="node40" class="node">
<title>Node57</title>
<g id="a_node40"><a xlink:href="telemetry__manager_8h.html#af76453743bae7b361005376190100cbf" target="_top" xlink:title="high_freq_tlm, low_freq_tlm を初期化">
<polygon fill="white" stroke="black" points="301,-99 301,-118 488,-118 488,-99 301,-99"/>
<text text-anchor="middle" x="394.5" y="-106" font-family="Helvetica,sans-Serif" font-size="10.00">Cmd_TLM_MGR_CLEAR_USER_TLM</text>
</a>
</g>
</g>
<!-- Node56&#45;&gt;Node57 -->
<g id="edge44" class="edge">
<title>Node56&#45;&gt;Node57</title>
<path fill="none" stroke="midnightblue" d="M532.7,-108.5C518.52,-108.5 503.2,-108.5 488.12,-108.5"/>
<polygon fill="midnightblue" stroke="midnightblue" points="532.8,-112 542.8,-108.5 532.8,-105 532.8,-112"/>
</g>
<!-- Node58 -->
<g id="node41" class="node">
<title>Node58</title>
<g id="a_node41"><a xlink:href="telemetry__manager_8h.html#a19d6e76042721fe9e576dbacaf49b365" target="_top" xlink:title="初期化">
<polygon fill="white" stroke="black" points="335.5,-137 335.5,-156 453.5,-156 453.5,-137 335.5,-137"/>
<text text-anchor="middle" x="394.5" y="-144" font-family="Helvetica,sans-Serif" font-size="10.00">Cmd_TLM_MGR_INIT</text>
</a>
</g>
</g>
<!-- Node56&#45;&gt;Node58 -->
<g id="edge46" class="edge">
<title>Node56&#45;&gt;Node58</title>
<path fill="none" stroke="midnightblue" d="M535.75,-119.92C507.07,-125.36 473.15,-131.78 445.86,-136.96"/>
<polygon fill="midnightblue" stroke="midnightblue" points="536.49,-123.34 545.66,-118.04 535.19,-116.46 536.49,-123.34"/>
</g>
<!-- Node57&#45;&gt;Node8 -->
<g id="edge45" class="edge">
<title>Node57&#45;&gt;Node8</title>
<path fill="none" stroke="midnightblue" d="M316.64,-121.1C311.24,-122.95 305.97,-125.07 301,-127.5 256.35,-149.36 215,-193.43 198.08,-212.89"/>
<polygon fill="midnightblue" stroke="midnightblue" points="317.95,-124.35 326.46,-118.05 315.87,-117.67 317.95,-124.35"/>
</g>
<!-- Node58&#45;&gt;Node8 -->
<g id="edge47" class="edge">
<title>Node58&#45;&gt;Node8</title>
<path fill="none" stroke="midnightblue" d="M340.01,-158.59C327.09,-162 313.44,-166.02 301,-170.5 266.97,-182.77 229.19,-201.67 207.64,-212.99"/>
<polygon fill="midnightblue" stroke="midnightblue" points="340.89,-161.98 349.7,-156.11 339.15,-155.2 340.89,-161.98"/>
</g>
<!-- Node60 -->
<g id="node43" class="node">
<title>Node60</title>
<g id="a_node43"><a xlink:href="gs_8c.html#a77d8b5e22b2b2615c9046060e50a3308" target="_top" xlink:title="上記初期化の共通部分をまとめた関数">
<polygon fill="white" stroke="black" points="917,-49.5 917,-79.5 1047,-79.5 1047,-49.5 917,-49.5"/>
<text text-anchor="start" x="925" y="-67.5" font-family="Helvetica,sans-Serif" font-size="10.00">GS_load_default_driver</text>
<text text-anchor="middle" x="982" y="-56.5" font-family="Helvetica,sans-Serif" font-size="10.00">_super_init_settings_</text>
</a>
</g>
</g>
<!-- Node59&#45;&gt;Node60 -->
<g id="edge49" class="edge">
<title>Node59&#45;&gt;Node60</title>
<path fill="none" stroke="midnightblue" d="M1093.37,-68.12C1078.12,-67.62 1062.14,-67.09 1047.22,-66.61"/>
<polygon fill="midnightblue" stroke="midnightblue" points="1093.68,-71.63 1103.79,-68.46 1093.91,-64.63 1093.68,-71.63"/>
</g>
<!-- Node61 -->
<g id="node44" class="node">
<title>Node61</title>
<g id="a_node44"><a xlink:href="gs_8c.html#a4621f4390191b12c281982f635516f67" target="_top" xlink:title="CCSDS 側 Driver の DS 上での初期化設定">
<polygon fill="white" stroke="black" points="722,-49.5 722,-79.5 844,-79.5 844,-49.5 722,-49.5"/>
<text text-anchor="start" x="730" y="-67.5" font-family="Helvetica,sans-Serif" font-size="10.00">GS_load_ccsds_driver</text>
<text text-anchor="middle" x="783" y="-56.5" font-family="Helvetica,sans-Serif" font-size="10.00">_super_init_settings_</text>
</a>
</g>
</g>
<!-- Node60&#45;&gt;Node61 -->
<g id="edge50" class="edge">
<title>Node60&#45;&gt;Node61</title>
<path fill="none" stroke="midnightblue" d="M906.76,-64.5C886.08,-64.5 863.89,-64.5 844.14,-64.5"/>
<polygon fill="midnightblue" stroke="midnightblue" points="906.77,-68 916.77,-64.5 906.77,-61 906.77,-68"/>
</g>
<!-- Node66 -->
<g id="node49" class="node">
<title>Node66</title>
<g id="a_node49"><a xlink:href="gs_8c.html#a940de224a6d318a15603b46983cf69ea" target="_top" xlink:title="UART 側 Driver の DS 上での初期化設定">
<polygon fill="white" stroke="black" points="723.5,-0.5 723.5,-30.5 842.5,-30.5 842.5,-0.5 723.5,-0.5"/>
<text text-anchor="start" x="731.5" y="-18.5" font-family="Helvetica,sans-Serif" font-size="10.00">GS_load_uart_driver</text>
<text text-anchor="middle" x="783" y="-7.5" font-family="Helvetica,sans-Serif" font-size="10.00">_super_init_settings_</text>
</a>
</g>
</g>
<!-- Node60&#45;&gt;Node66 -->
<g id="edge56" class="edge">
<title>Node60&#45;&gt;Node66</title>
<path fill="none" stroke="midnightblue" d="M910.8,-47.04C888.49,-41.49 864.05,-35.41 842.64,-30.09"/>
<polygon fill="midnightblue" stroke="midnightblue" points="910.01,-50.45 920.55,-49.47 911.7,-43.66 910.01,-50.45"/>
</g>
<!-- Node62 -->
<g id="node45" class="node">
<title>Node62</title>
<g id="a_node45"><a xlink:href="gs_8h.html#a3cda832b6c75f514dfb566fa49b59127" target="_top" xlink:title="Driver の初期化">
<polygon fill="white" stroke="black" points="571.5,-36 571.5,-55 622.5,-55 622.5,-36 571.5,-36"/>
<text text-anchor="middle" x="597" y="-43" font-family="Helvetica,sans-Serif" font-size="10.00">GS_init</text>
</a>
</g>
</g>
<!-- Node61&#45;&gt;Node62 -->
<g id="edge51" class="edge">
<title>Node61&#45;&gt;Node62</title>
<path fill="none" stroke="midnightblue" d="M711.7,-57.24C680.29,-54 645.29,-50.38 622.53,-48.03"/>
<polygon fill="midnightblue" stroke="midnightblue" points="711.44,-60.73 721.75,-58.28 712.16,-53.77 711.44,-60.73"/>
</g>
<!-- Node63 -->
<g id="node46" class="node">
<title>Node63</title>
<g id="a_node46"><a xlink:href="di__gs_8h.html#ad984c5e8f91942178a36dd46ce0d8a07" target="_top" xlink:title=" ">
<polygon fill="white" stroke="black" points="318.5,-61 318.5,-80 470.5,-80 470.5,-61 318.5,-61"/>
<text text-anchor="middle" x="394.5" y="-68" font-family="Helvetica,sans-Serif" font-size="10.00">Cmd_DI_GS_DRIVER_RESET</text>
</a>
</g>
</g>
<!-- Node62&#45;&gt;Node63 -->
<g id="edge52" class="edge">
<title>Node62&#45;&gt;Node63</title>
<path fill="none" stroke="midnightblue" d="M561.38,-49.82C536.49,-52.92 501.99,-57.22 470.89,-61.1"/>
<polygon fill="midnightblue" stroke="midnightblue" points="561.92,-53.28 571.41,-48.57 561.06,-46.33 561.92,-53.28"/>
</g>
<!-- Node64 -->
<g id="node47" class="node">
<title>Node64</title>
<g id="a_node47"><a xlink:href="di__gs_8c.html#aac505df7423e0f4abedbc661040be341" target="_top" xlink:title=" ">
<polygon fill="white" stroke="black" points="318.5,-11.5 318.5,-41.5 470.5,-41.5 470.5,-11.5 318.5,-11.5"/>
<text text-anchor="start" x="326.5" y="-29.5" font-family="Helvetica,sans-Serif" font-size="10.00">DI_GS_cmd_packet_handler</text>
<text text-anchor="middle" x="394.5" y="-18.5" font-family="Helvetica,sans-Serif" font-size="10.00">_init_</text>
</a>
</g>
</g>
<!-- Node62&#45;&gt;Node64 -->
<g id="edge54" class="edge">
<title>Node62&#45;&gt;Node64</title>
<path fill="none" stroke="midnightblue" d="M561.38,-42.22C536.49,-39.86 501.99,-36.59 470.89,-33.64"/>
<polygon fill="midnightblue" stroke="midnightblue" points="561.13,-45.71 571.41,-43.17 561.79,-38.74 561.13,-45.71"/>
</g>
<!-- Node63&#45;&gt;Node8 -->
<g id="edge53" class="edge">
<title>Node63&#45;&gt;Node8</title>
<path fill="none" stroke="midnightblue" d="M312.47,-83.68C308.49,-85.39 304.64,-87.32 301,-89.5 247.83,-121.3 208.35,-188.04 194.96,-212.9"/>
<polygon fill="midnightblue" stroke="midnightblue" points="313.85,-86.9 321.95,-80.07 311.36,-80.36 313.85,-86.9"/>
</g>
<!-- Node65 -->
<g id="node48" class="node">
<title>Node65</title>
<g id="a_node48"><a xlink:href="di__gs_8h.html#a9db482e4676bf373c0f84561058f1f91" target="_top" xlink:title=" ">
<polygon fill="white" stroke="red" points="113,-17 113,-36 265,-36 265,-17 113,-17"/>
<text text-anchor="middle" x="189" y="-24" font-family="Helvetica,sans-Serif" font-size="10.00">DI_GS_cmd_packet_handler</text>
</a>
</g>
</g>
<!-- Node64&#45;&gt;Node65 -->
<g id="edge55" class="edge">
<title>Node64&#45;&gt;Node65</title>
<path fill="none" stroke="midnightblue" d="M308.04,-26.5C293.82,-26.5 279.17,-26.5 265.23,-26.5"/>
<polygon fill="midnightblue" stroke="midnightblue" points="308.3,-30 318.3,-26.5 308.3,-23 308.3,-30"/>
</g>
<!-- Node66&#45;&gt;Node62 -->
<g id="edge57" class="edge">
<title>Node66&#45;&gt;Node62</title>
<path fill="none" stroke="midnightblue" d="M713.18,-26.72C681.58,-31.87 646.09,-37.66 622.96,-41.43"/>
<polygon fill="midnightblue" stroke="midnightblue" points="713.97,-30.14 723.28,-25.07 712.84,-23.23 713.97,-30.14"/>
</g>
</g>
</svg>
