<?xml version="1.0" encoding="UTF-8" standalone="no"?>
<!DOCTYPE svg PUBLIC "-//W3C//DTD SVG 1.1//EN"
 "http://www.w3.org/Graphics/SVG/1.1/DTD/svg11.dtd">
<!-- Generated by graphviz version 2.43.0 (0)
 -->
<!-- Title: CSP_set_apid Pages: 1 -->
<svg width="1703pt" height="682pt"
 viewBox="0.00 0.00 1703.00 682.42" xmlns="http://www.w3.org/2000/svg" xmlns:xlink="http://www.w3.org/1999/xlink">
<g id="graph0" class="graph" transform="scale(1 1) rotate(0) translate(4 678.42)">
<title>CSP_set_apid</title>
<polygon fill="white" stroke="transparent" points="-4,4 -4,-678.42 1699,-678.42 1699,4 -4,4"/>
<!-- Node1 -->
<g id="node1" class="node">
<title>Node1</title>
<g id="a_node1"><a xlink:title="APID を設定">
<polygon fill="#bfbfbf" stroke="black" points="1613,-399.5 1613,-418.5 1695,-418.5 1695,-399.5 1613,-399.5"/>
<text text-anchor="middle" x="1654" y="-406.5" font-family="Helvetica,sans-Serif" font-size="10.00">CSP_set_apid</text>
</a>
</g>
</g>
<!-- Node2 -->
<g id="node2" class="node">
<title>Node2</title>
<g id="a_node2"><a xlink:href="common__cmd__packet_8c.html#a168cb9ebdc527ea78de7c78016b9692e" target="_top" xlink:title="APID を設定">
<polygon fill="white" stroke="black" points="1473,-418.5 1473,-437.5 1556,-437.5 1556,-418.5 1473,-418.5"/>
<text text-anchor="middle" x="1514.5" y="-425.5" font-family="Helvetica,sans-Serif" font-size="10.00">CCP_set_apid</text>
</a>
</g>
</g>
<!-- Node1&#45;&gt;Node2 -->
<g id="edge1" class="edge">
<title>Node1&#45;&gt;Node2</title>
<path fill="none" stroke="midnightblue" d="M1602.59,-415.97C1587.39,-418.07 1570.9,-420.34 1556.41,-422.35"/>
<polygon fill="midnightblue" stroke="midnightblue" points="1603.43,-419.38 1612.86,-414.55 1602.47,-412.45 1603.43,-419.38"/>
</g>
<!-- Node3 -->
<g id="node3" class="node">
<title>Node3</title>
<g id="a_node3"><a xlink:href="cmd__space__packet_8h.html#aa4f250d0b768ce918101f7959940b9da" target="_top" xlink:title="共通部分の Header を構築">
<polygon fill="white" stroke="black" points="1452,-380.5 1452,-399.5 1577,-399.5 1577,-380.5 1452,-380.5"/>
<text text-anchor="middle" x="1514.5" y="-387.5" font-family="Helvetica,sans-Serif" font-size="10.00">CSP_set_common_hdr</text>
</a>
</g>
</g>
<!-- Node1&#45;&gt;Node3 -->
<g id="edge2" class="edge">
<title>Node1&#45;&gt;Node3</title>
<path fill="none" stroke="midnightblue" d="M1602.9,-402.08C1594.54,-400.92 1585.78,-399.71 1577.17,-398.52"/>
<polygon fill="midnightblue" stroke="midnightblue" points="1602.47,-405.55 1612.86,-403.45 1603.43,-398.62 1602.47,-405.55"/>
</g>
<!-- Node4 -->
<g id="node4" class="node">
<title>Node4</title>
<g id="a_node4"><a xlink:href="common__cmd__packet_8c.html#a53e55e3275bb17840514876c95203402" target="_top" xlink:title="共通部分の Header を構築">
<polygon fill="white" stroke="black" points="1291,-380.5 1291,-399.5 1416,-399.5 1416,-380.5 1291,-380.5"/>
<text text-anchor="middle" x="1353.5" y="-387.5" font-family="Helvetica,sans-Serif" font-size="10.00">CCP_set_common_hdr</text>
</a>
</g>
</g>
<!-- Node3&#45;&gt;Node4 -->
<g id="edge3" class="edge">
<title>Node3&#45;&gt;Node4</title>
<path fill="none" stroke="midnightblue" d="M1441.41,-390C1433.01,-390 1424.5,-390 1416.26,-390"/>
<polygon fill="midnightblue" stroke="midnightblue" points="1441.57,-393.5 1451.57,-390 1441.57,-386.5 1441.57,-393.5"/>
</g>
<!-- Node5 -->
<g id="node5" class="node">
<title>Node5</title>
<g id="a_node5"><a xlink:href="common__cmd__packet__util_8h.html#af9f77cfe0b19d8078e79f1c32d9b2843" target="_top" xlink:title="Realtime command を生成">
<polygon fill="white" stroke="black" points="1172,-304.5 1172,-323.5 1255,-323.5 1255,-304.5 1172,-304.5"/>
<text text-anchor="middle" x="1213.5" y="-311.5" font-family="Helvetica,sans-Serif" font-size="10.00">CCP_form_rtc</text>
</a>
</g>
</g>
<!-- Node4&#45;&gt;Node5 -->
<g id="edge4" class="edge">
<title>Node4&#45;&gt;Node5</title>
<path fill="none" stroke="midnightblue" d="M1326.25,-375.54C1298.53,-360.28 1255.61,-336.64 1231.84,-323.55"/>
<polygon fill="midnightblue" stroke="midnightblue" points="1324.57,-378.62 1335.02,-380.37 1327.95,-372.48 1324.57,-378.62"/>
</g>
<!-- Node31 -->
<g id="node19" class="node">
<title>Node31</title>
<g id="a_node19"><a xlink:href="common__cmd__packet__util_8h.html#a3695599b4d05dbb0b510c73dab7cd233" target="_top" xlink:title="Timeline command を生成">
<polygon fill="white" stroke="black" points="862,-323.5 862,-342.5 944,-342.5 944,-323.5 862,-323.5"/>
<text text-anchor="middle" x="903" y="-330.5" font-family="Helvetica,sans-Serif" font-size="10.00">CCP_form_tlc</text>
</a>
</g>
</g>
<!-- Node4&#45;&gt;Node31 -->
<g id="edge69" class="edge">
<title>Node4&#45;&gt;Node31</title>
<path fill="none" stroke="midnightblue" d="M1280.29,-390.89C1213.52,-390.51 1111.81,-386.9 1025,-371 990.56,-364.69 952.23,-351.56 928.12,-342.52"/>
<polygon fill="midnightblue" stroke="midnightblue" points="1280.69,-394.39 1290.7,-390.92 1280.71,-387.39 1280.69,-394.39"/>
</g>
<!-- Node6 -->
<g id="node6" class="node">
<title>Node6</title>
<g id="a_node6"><a xlink:href="common__cmd__packet__util_8h.html#aa81cdbe41bd9883401c5d576e244cfce" target="_top" xlink:title="BC展開 command を生成">
<polygon fill="white" stroke="black" points="822.5,-148.5 822.5,-167.5 983.5,-167.5 983.5,-148.5 822.5,-148.5"/>
<text text-anchor="middle" x="903" y="-155.5" font-family="Helvetica,sans-Serif" font-size="10.00">CCP_form_block_deploy_cmd</text>
</a>
</g>
</g>
<!-- Node5&#45;&gt;Node6 -->
<g id="edge5" class="edge">
<title>Node5&#45;&gt;Node6</title>
<path fill="none" stroke="midnightblue" d="M1165.45,-301.94C1118.32,-289.46 1049.38,-270.02 1025,-257 978.07,-231.94 932.07,-187.22 913.09,-167.64"/>
<polygon fill="midnightblue" stroke="midnightblue" points="1164.59,-305.33 1175.15,-304.49 1166.37,-298.56 1164.59,-305.33"/>
</g>
<!-- Node30 -->
<g id="node18" class="node">
<title>Node30</title>
<g id="a_node18"><a xlink:href="common__cmd__packet__util_8c.html#a01b352632ca605771f0cfd66a2a149ba" target="_top" xlink:title="NOP cmd の RTC CCP を作る">
<polygon fill="white" stroke="black" points="1025,-304.5 1025,-323.5 1136,-323.5 1136,-304.5 1025,-304.5"/>
<text text-anchor="middle" x="1080.5" y="-311.5" font-family="Helvetica,sans-Serif" font-size="10.00">CCP_form_nop_rtc_</text>
</a>
</g>
</g>
<!-- Node5&#45;&gt;Node30 -->
<g id="edge17" class="edge">
<title>Node5&#45;&gt;Node30</title>
<path fill="none" stroke="midnightblue" d="M1161.75,-307.4C1153.37,-307.23 1144.64,-307.2 1136.17,-307.33"/>
<polygon fill="midnightblue" stroke="midnightblue" points="1161.67,-310.9 1171.77,-307.7 1161.88,-303.91 1161.67,-310.9"/>
</g>
<!-- Node72 -->
<g id="node44" class="node">
<title>Node72</title>
<g id="a_node44"><a xlink:href="telemetry__manager_8h.html#a923d6ea9078726984798c4b0800381fe" target="_top" xlink:title="TLM送出用TLをクリア">
<polygon fill="white" stroke="black" points="817,-536.5 817,-555.5 989,-555.5 989,-536.5 817,-536.5"/>
<text text-anchor="middle" x="903" y="-543.5" font-family="Helvetica,sans-Serif" font-size="10.00">Cmd_TLM_MGR_CLEAR_TLM_TL</text>
</a>
</g>
</g>
<!-- Node5&#45;&gt;Node72 -->
<g id="edge59" class="edge">
<title>Node5&#45;&gt;Node72</title>
<path fill="none" stroke="midnightblue" d="M1200.09,-331.73C1186.02,-351.02 1161.69,-382.02 1136,-404 1065.31,-464.48 966.03,-515.97 924.03,-536.49"/>
<polygon fill="midnightblue" stroke="midnightblue" points="1202.98,-333.7 1205.96,-323.54 1197.29,-329.62 1202.98,-333.7"/>
</g>
<!-- Node73 -->
<g id="node45" class="node">
<title>Node73</title>
<g id="a_node45"><a xlink:href="divided__cmd__utility_8h.html#a65ad0b8aa0af1c9c0bdd74aa37b15b15" target="_top" xlink:title="次の分割の実行を登録">
<polygon fill="white" stroke="black" points="635,-573.5 635,-592.5 743,-592.5 743,-573.5 635,-573.5"/>
<text text-anchor="middle" x="689" y="-580.5" font-family="Helvetica,sans-Serif" font-size="10.00">DCU_register_next</text>
</a>
</g>
</g>
<!-- Node5&#45;&gt;Node73 -->
<g id="edge61" class="edge">
<title>Node5&#45;&gt;Node73</title>
<path fill="none" stroke="midnightblue" d="M1194.07,-330.67C1179.3,-343.28 1157.54,-360.2 1136,-371 1089.99,-394.06 1072.17,-383.41 1025,-404 926.57,-446.96 907.94,-469.86 817,-527 800.72,-537.23 798.2,-542.41 781,-551 762.72,-560.13 741.2,-567.82 723.67,-573.38"/>
<polygon fill="midnightblue" stroke="midnightblue" points="1196.68,-333.04 1201.91,-323.82 1192.08,-327.76 1196.68,-333.04"/>
</g>
<!-- Node74 -->
<g id="node48" class="node">
<title>Node74</title>
<g id="a_node48"><a xlink:href="_sequence_items_8h.html#a5d6ce064c84df0f0cae1e7e25c5fde56" target="_top" xlink:title=" ">
<polygon fill="white" stroke="black" points="1033,-228.5 1033,-247.5 1128,-247.5 1128,-228.5 1033,-228.5"/>
<text text-anchor="middle" x="1080.5" y="-235.5" font-family="Helvetica,sans-Serif" font-size="10.00">SI_deploy_block</text>
</a>
</g>
</g>
<!-- Node5&#45;&gt;Node74 -->
<g id="edge66" class="edge">
<title>Node5&#45;&gt;Node74</title>
<path fill="none" stroke="midnightblue" d="M1191.87,-298.46C1176.83,-287.52 1155.73,-272.93 1136,-262 1126.41,-256.69 1115.42,-251.66 1105.83,-247.59"/>
<polygon fill="midnightblue" stroke="midnightblue" points="1189.84,-301.31 1199.96,-304.43 1193.99,-295.67 1189.84,-301.31"/>
</g>
<!-- Node75 -->
<g id="node49" class="node">
<title>Node75</title>
<g id="a_node49"><a xlink:href="_sequence_items_8h.html#aa4a6c84c11e36c033cf8100c04458ee9" target="_top" xlink:title=" ">
<polygon fill="white" stroke="black" points="1026,-190.5 1026,-209.5 1135,-209.5 1135,-190.5 1026,-190.5"/>
<text text-anchor="middle" x="1080.5" y="-197.5" font-family="Helvetica,sans-Serif" font-size="10.00">SI_finish_transition</text>
</a>
</g>
</g>
<!-- Node5&#45;&gt;Node75 -->
<g id="edge67" class="edge">
<title>Node5&#45;&gt;Node75</title>
<path fill="none" stroke="midnightblue" d="M1202.16,-295.73C1189.25,-274.46 1165.26,-239.64 1136,-219 1130.6,-215.19 1124.35,-212.08 1118.07,-209.56"/>
<polygon fill="midnightblue" stroke="midnightblue" points="1199.2,-297.6 1207.29,-304.44 1205.23,-294.05 1199.2,-297.6"/>
</g>
<!-- Node76 -->
<g id="node50" class="node">
<title>Node76</title>
<g id="a_node50"><a xlink:href="_sequence_items_8h.html#a0d524415abe3f1169e24b7f4aeec1096" target="_top" xlink:title=" ">
<polygon fill="white" stroke="black" points="1034.5,-342.5 1034.5,-361.5 1126.5,-361.5 1126.5,-342.5 1034.5,-342.5"/>
<text text-anchor="middle" x="1080.5" y="-349.5" font-family="Helvetica,sans-Serif" font-size="10.00">SI_start_hk_tlm</text>
</a>
</g>
</g>
<!-- Node5&#45;&gt;Node76 -->
<g id="edge68" class="edge">
<title>Node5&#45;&gt;Node76</title>
<path fill="none" stroke="midnightblue" d="M1169.79,-326.39C1151.85,-331.59 1131.3,-337.55 1114.55,-342.41"/>
<polygon fill="midnightblue" stroke="midnightblue" points="1170.81,-329.74 1179.44,-323.59 1168.86,-323.01 1170.81,-329.74"/>
</g>
<!-- Node7 -->
<g id="node7" class="node">
<title>Node7</title>
<g id="a_node7"><a xlink:href="anomaly__handler_8c.html#adfd34d8cadea83c50526f50bbdcfcb40" target="_top" xlink:title=" ">
<polygon fill="white" stroke="black" points="617.5,-28.5 617.5,-47.5 760.5,-47.5 760.5,-28.5 617.5,-28.5"/>
<text text-anchor="middle" x="689" y="-35.5" font-family="Helvetica,sans-Serif" font-size="10.00">AH_respond_to_anomaly_</text>
</a>
</g>
</g>
<!-- Node6&#45;&gt;Node7 -->
<g id="edge6" class="edge">
<title>Node6&#45;&gt;Node7</title>
<path fill="none" stroke="midnightblue" d="M885.83,-141.15C864.03,-119.42 823.08,-81.93 781,-61 769.47,-55.27 756.4,-50.88 743.82,-47.56"/>
<polygon fill="midnightblue" stroke="midnightblue" points="883.45,-143.72 892.96,-148.39 888.43,-138.81 883.45,-143.72"/>
</g>
<!-- Node15 -->
<g id="node10" class="node">
<title>Node15</title>
<g id="a_node10"><a xlink:href="telemetry__manager_8h.html#ad6f65df0da86f70cbd0f5b1e6cb32dbc" target="_top" xlink:title="TLM送出開始">
<polygon fill="white" stroke="black" points="612,-186.5 612,-205.5 766,-205.5 766,-186.5 612,-186.5"/>
<text text-anchor="middle" x="689" y="-193.5" font-family="Helvetica,sans-Serif" font-size="10.00">Cmd_TLM_MGR_START_TLM</text>
</a>
</g>
</g>
<!-- Node6&#45;&gt;Node15 -->
<g id="edge9" class="edge">
<title>Node6&#45;&gt;Node15</title>
<path fill="none" stroke="midnightblue" d="M838.7,-169.35C808.28,-174.8 772.23,-181.26 743.24,-186.46"/>
<polygon fill="midnightblue" stroke="midnightblue" points="839.55,-172.75 848.78,-167.54 838.32,-165.86 839.55,-172.75"/>
</g>
<!-- Node18 -->
<g id="node13" class="node">
<title>Node18</title>
<g id="a_node13"><a xlink:href="event__handler_8c.html#a8d7de705ac2b09f9f25644f0c9f55952" target="_top" xlink:title="EH 対応を実施">
<polygon fill="white" stroke="black" points="649,-70.5 649,-89.5 729,-89.5 729,-70.5 649,-70.5"/>
<text text-anchor="middle" x="689" y="-77.5" font-family="Helvetica,sans-Serif" font-size="10.00">EH_respond_</text>
</a>
</g>
</g>
<!-- Node6&#45;&gt;Node18 -->
<g id="edge12" class="edge">
<title>Node6&#45;&gt;Node18</title>
<path fill="none" stroke="midnightblue" d="M876,-143.76C851.95,-131.07 814.9,-112.74 781,-101 764.3,-95.21 745.32,-90.55 729.04,-87.1"/>
<polygon fill="midnightblue" stroke="midnightblue" points="874.39,-146.87 884.86,-148.49 877.68,-140.69 874.39,-146.87"/>
</g>
<!-- Node26 -->
<g id="node16" class="node">
<title>Node26</title>
<g id="a_node16"><a xlink:href="mode__manager_8c.html#a4a483437e28116e6067d488392922a8f" target="_top" xlink:title="(モード遷移に対応する)ブロックコマンドのタイムラインへの展開を行う">
<polygon fill="white" stroke="black" points="621,-110.5 621,-129.5 757,-129.5 757,-110.5 621,-110.5"/>
<text text-anchor="middle" x="689" y="-117.5" font-family="Helvetica,sans-Serif" font-size="10.00">MM_deploy_block_cmd_</text>
</a>
</g>
</g>
<!-- Node6&#45;&gt;Node26 -->
<g id="edge15" class="edge">
<title>Node6&#45;&gt;Node26</title>
<path fill="none" stroke="midnightblue" d="M838.7,-146.65C808.28,-141.2 772.23,-134.74 743.24,-129.54"/>
<polygon fill="midnightblue" stroke="midnightblue" points="838.32,-150.14 848.78,-148.46 839.55,-143.25 838.32,-150.14"/>
</g>
<!-- Node8 -->
<g id="node8" class="node">
<title>Node8</title>
<g id="a_node8"><a xlink:href="anomaly__handler_8c.html#a91a15ad7eda6409b6380ed9a409f76fc" target="_top" xlink:title=" ">
<polygon fill="white" stroke="black" points="435.5,-15.5 435.5,-34.5 499.5,-34.5 499.5,-15.5 435.5,-15.5"/>
<text text-anchor="middle" x="467.5" y="-22.5" font-family="Helvetica,sans-Serif" font-size="10.00">AH_exec_</text>
</a>
</g>
</g>
<!-- Node7&#45;&gt;Node8 -->
<g id="edge7" class="edge">
<title>Node7&#45;&gt;Node8</title>
<path fill="none" stroke="midnightblue" d="M606.94,-33.2C569.56,-30.99 527.4,-28.49 499.54,-26.84"/>
<polygon fill="midnightblue" stroke="midnightblue" points="607.15,-36.72 617.34,-33.82 607.57,-29.73 607.15,-36.72"/>
</g>
<!-- Node9 -->
<g id="node9" class="node">
<title>Node9</title>
<g id="a_node9"><a xlink:href="anomaly__handler_8h.html#a527184a40c59e88853557f2fd32f1c98" target="_top" xlink:title=" ">
<polygon fill="white" stroke="red" points="218.5,-0.5 218.5,-19.5 308.5,-19.5 308.5,-0.5 218.5,-0.5"/>
<text text-anchor="middle" x="263.5" y="-7.5" font-family="Helvetica,sans-Serif" font-size="10.00">AH_create_app</text>
</a>
</g>
</g>
<!-- Node8&#45;&gt;Node9 -->
<g id="edge8" class="edge">
<title>Node8&#45;&gt;Node9</title>
<path fill="none" stroke="midnightblue" d="M425.34,-21.94C391.45,-19.43 343.5,-15.87 308.78,-13.29"/>
<polygon fill="midnightblue" stroke="midnightblue" points="425.15,-25.44 435.38,-22.69 425.67,-18.46 425.15,-25.44"/>
</g>
<!-- Node16 -->
<g id="node11" class="node">
<title>Node16</title>
<g id="a_node11"><a xlink:href="command__definitions_8c.html#aa375895192b16d8e7f0ff4545b54e6c4" target="_top" xlink:title="Cmd Tableのロード">
<polygon fill="white" stroke="black" points="207,-459.5 207,-478.5 320,-478.5 320,-459.5 207,-459.5"/>
<text text-anchor="middle" x="263.5" y="-466.5" font-family="Helvetica,sans-Serif" font-size="10.00">CA_load_cmd_table</text>
</a>
</g>
</g>
<!-- Node15&#45;&gt;Node16 -->
<g id="edge10" class="edge">
<title>Node15&#45;&gt;Node16</title>
<path fill="none" stroke="midnightblue" d="M601.75,-190.81C521.27,-187.79 408.58,-188.77 374,-215 335.03,-244.56 356.8,-273.84 338,-319 315.38,-373.35 282.42,-435.82 269.74,-459.36"/>
<polygon fill="midnightblue" stroke="midnightblue" points="601.75,-194.31 611.89,-191.22 602.03,-187.32 601.75,-194.31"/>
</g>
<!-- Node17 -->
<g id="node12" class="node">
<title>Node17</title>
<g id="a_node12"><a xlink:href="command__analyze_8h.html#ae6d1f376bf4e1c9c4b63bc3f04924c8a" target="_top" xlink:title="CA の初期化">
<polygon fill="white" stroke="red" points="38,-459.5 38,-478.5 115,-478.5 115,-459.5 38,-459.5"/>
<text text-anchor="middle" x="76.5" y="-466.5" font-family="Helvetica,sans-Serif" font-size="10.00">CA_initialize</text>
</a>
</g>
</g>
<!-- Node16&#45;&gt;Node17 -->
<g id="edge11" class="edge">
<title>Node16&#45;&gt;Node17</title>
<path fill="none" stroke="midnightblue" d="M196.69,-469C169.31,-469 138.52,-469 115.1,-469"/>
<polygon fill="midnightblue" stroke="midnightblue" points="196.99,-472.5 206.99,-469 196.99,-465.5 196.99,-472.5"/>
</g>
<!-- Node19 -->
<g id="node14" class="node">
<title>Node19</title>
<g id="a_node14"><a xlink:href="event__handler_8c.html#ac7461e79109f06783e2c620a6d999a6b" target="_top" xlink:title="EH の対応条件をチェックし， EL_Event に対応する">
<polygon fill="white" stroke="black" points="387,-56.5 387,-75.5 548,-75.5 548,-56.5 387,-56.5"/>
<text text-anchor="middle" x="467.5" y="-63.5" font-family="Helvetica,sans-Serif" font-size="10.00">EH_check_rule_and_respond_</text>
</a>
</g>
</g>
<!-- Node18&#45;&gt;Node19 -->
<g id="edge13" class="edge">
<title>Node18&#45;&gt;Node19</title>
<path fill="none" stroke="midnightblue" d="M638.55,-76.85C611.95,-75.15 578.5,-73.02 548.31,-71.09"/>
<polygon fill="midnightblue" stroke="midnightblue" points="638.56,-80.35 648.76,-77.5 639,-73.37 638.56,-80.35"/>
</g>
<!-- Node20 -->
<g id="node15" class="node">
<title>Node20</title>
<g id="a_node15"><a xlink:href="event__handler_8c.html#a227ed3b7079c58dee50a81ce408549a2" target="_top" xlink:title="EL_Event に対応する EH_Rule が存在するかチェックし，対応する">
<polygon fill="white" stroke="red" points="203.5,-39 203.5,-69 323.5,-69 323.5,-39 203.5,-39"/>
<text text-anchor="start" x="211.5" y="-57" font-family="Helvetica,sans-Serif" font-size="10.00">EH_check_event_and</text>
<text text-anchor="middle" x="263.5" y="-46" font-family="Helvetica,sans-Serif" font-size="10.00">_respond_</text>
</a>
</g>
</g>
<!-- Node19&#45;&gt;Node20 -->
<g id="edge14" class="edge">
<title>Node19&#45;&gt;Node20</title>
<path fill="none" stroke="midnightblue" d="M376.74,-60.67C358.76,-59.6 340.3,-58.5 323.68,-57.52"/>
<polygon fill="midnightblue" stroke="midnightblue" points="376.76,-64.18 386.95,-61.27 377.18,-57.19 376.76,-64.18"/>
</g>
<!-- Node27 -->
<g id="node17" class="node">
<title>Node27</title>
<g id="a_node17"><a xlink:href="mode__manager_8c.html#ae4381c1c84d8b5d8aa033e522530436d" target="_top" xlink:title="Cmd_MM_START_TRANSITIONの実体">
<polygon fill="white" stroke="red" points="408,-110.5 408,-129.5 527,-129.5 527,-110.5 408,-110.5"/>
<text text-anchor="middle" x="467.5" y="-117.5" font-family="Helvetica,sans-Serif" font-size="10.00">MM_start_transition_</text>
</a>
</g>
</g>
<!-- Node26&#45;&gt;Node27 -->
<g id="edge16" class="edge">
<title>Node26&#45;&gt;Node27</title>
<path fill="none" stroke="midnightblue" d="M610.62,-120C583.24,-120 552.92,-120 527.34,-120"/>
<polygon fill="midnightblue" stroke="midnightblue" points="610.95,-123.5 620.95,-120 610.95,-116.5 610.95,-123.5"/>
</g>
<!-- Node30&#45;&gt;Node5 -->
<g id="edge19" class="edge">
<title>Node30&#45;&gt;Node5</title>
<path fill="none" stroke="midnightblue" d="M1146.31,-320.75C1154.98,-320.76 1163.67,-320.61 1171.77,-320.3"/>
<polygon fill="midnightblue" stroke="midnightblue" points="1146.2,-317.25 1136.17,-320.67 1146.14,-324.25 1146.2,-317.25"/>
</g>
<!-- Node30&#45;&gt;Node6 -->
<g id="edge18" class="edge">
<title>Node30&#45;&gt;Node6</title>
<path fill="none" stroke="midnightblue" d="M1042.49,-300.21C1036.41,-297.24 1030.35,-293.83 1025,-290 973.45,-253.06 927.22,-191.17 910.57,-167.55"/>
<polygon fill="midnightblue" stroke="midnightblue" points="1041.42,-303.56 1051.98,-304.49 1044.3,-297.18 1041.42,-303.56"/>
</g>
<!-- Node30&#45;&gt;Node31 -->
<g id="edge20" class="edge">
<title>Node30&#45;&gt;Node31</title>
<path fill="none" stroke="midnightblue" d="M1014.93,-320.99C991.18,-323.56 965,-326.4 944.04,-328.67"/>
<polygon fill="midnightblue" stroke="midnightblue" points="1015.37,-324.46 1024.93,-319.91 1014.61,-317.5 1015.37,-324.46"/>
</g>
<!-- Node31&#45;&gt;Node15 -->
<g id="edge47" class="edge">
<title>Node31&#45;&gt;Node15</title>
<path fill="none" stroke="midnightblue" d="M881.42,-317.03C857.76,-298.95 817.48,-269.02 781,-246 756.76,-230.7 727.53,-215.12 708.85,-205.51"/>
<polygon fill="midnightblue" stroke="midnightblue" points="879.57,-320.02 889.63,-323.34 883.83,-314.47 879.57,-320.02"/>
</g>
<!-- Node32 -->
<g id="node20" class="node">
<title>Node32</title>
<g id="a_node20"><a xlink:href="block__command__loader_8c.html#a34da4d8efe30b2f1872103496dfcf8cb" target="_top" xlink:title=" ">
<polygon fill="white" stroke="black" points="412.5,-148.5 412.5,-167.5 522.5,-167.5 522.5,-148.5 412.5,-148.5"/>
<text text-anchor="middle" x="467.5" y="-155.5" font-family="Helvetica,sans-Serif" font-size="10.00">BCL_register_cmd_</text>
</a>
</g>
</g>
<!-- Node31&#45;&gt;Node32 -->
<g id="edge21" class="edge">
<title>Node31&#45;&gt;Node32</title>
<path fill="none" stroke="midnightblue" d="M893.81,-313.97C877.84,-279.53 838.95,-207.61 781,-177 698.93,-133.66 587.32,-139.68 522.08,-148.5"/>
<polygon fill="midnightblue" stroke="midnightblue" points="890.74,-315.67 898.03,-323.36 897.13,-312.81 890.74,-315.67"/>
</g>
<!-- Node57 -->
<g id="node33" class="node">
<title>Node57</title>
<g id="a_node33"><a xlink:href="common__cmd__packet__util_8h.html#a7e4a83a103dfa316c08b1570d93df0d1" target="_top" xlink:title="App 実行コマンドを生成">
<polygon fill="white" stroke="black" points="632,-255.5 632,-274.5 746,-274.5 746,-255.5 632,-255.5"/>
<text text-anchor="middle" x="689" y="-262.5" font-family="Helvetica,sans-Serif" font-size="10.00">CCP_form_app_cmd</text>
</a>
</g>
</g>
<!-- Node31&#45;&gt;Node57 -->
<g id="edge39" class="edge">
<title>Node31&#45;&gt;Node57</title>
<path fill="none" stroke="midnightblue" d="M862.33,-320.27C820.95,-307 757.03,-286.5 719.77,-274.55"/>
<polygon fill="midnightblue" stroke="midnightblue" points="861.48,-323.68 872.08,-323.4 863.62,-317.01 861.48,-323.68"/>
</g>
<!-- Node64 -->
<g id="node36" class="node">
<title>Node64</title>
<g id="a_node36"><a xlink:href="block__command__table_8h.html#a4ad040fa043c293c99d80d36b9536035" target="_top" xlink:title=" ">
<polygon fill="white" stroke="black" points="631.5,-522.5 631.5,-541.5 746.5,-541.5 746.5,-522.5 631.5,-522.5"/>
<text text-anchor="middle" x="689" y="-529.5" font-family="Helvetica,sans-Serif" font-size="10.00">Cmd_BCT_FILL_NOP</text>
</a>
</g>
</g>
<!-- Node31&#45;&gt;Node64 -->
<g id="edge43" class="edge">
<title>Node31&#45;&gt;Node64</title>
<path fill="none" stroke="midnightblue" d="M860.03,-346.43C844.68,-353.17 828.31,-362.79 817,-376 783.27,-415.4 814.91,-447.76 781,-487 766.14,-504.2 743.14,-515.5 723.99,-522.47"/>
<polygon fill="midnightblue" stroke="midnightblue" points="861.48,-349.62 869.41,-342.6 858.83,-343.14 861.48,-349.62"/>
</g>
<!-- Node65 -->
<g id="node37" class="node">
<title>Node65</title>
<g id="a_node37"><a xlink:href="block__command__table_8h.html#afb56b53815cce4e3c34d0463073368ec" target="_top" xlink:title=" ">
<polygon fill="white" stroke="black" points="611,-458.5 611,-477.5 767,-477.5 767,-458.5 611,-458.5"/>
<text text-anchor="middle" x="689" y="-465.5" font-family="Helvetica,sans-Serif" font-size="10.00">Cmd_BCT_OVERWRITE_CMD</text>
</a>
</g>
</g>
<!-- Node31&#45;&gt;Node65 -->
<g id="edge45" class="edge">
<title>Node31&#45;&gt;Node65</title>
<path fill="none" stroke="midnightblue" d="M871.69,-346.89C855.18,-354.81 834.59,-365.28 817,-376 772.6,-403.08 723.76,-440.96 701.82,-458.46"/>
<polygon fill="midnightblue" stroke="midnightblue" points="873.35,-349.97 880.89,-342.53 870.35,-343.65 873.35,-349.97"/>
</g>
<!-- Node66 -->
<g id="node38" class="node">
<title>Node66</title>
<g id="a_node38"><a xlink:href="telemetry__manager_8h.html#a0149b05e84bcce79dc6b019d5bb99ce1" target="_top" xlink:title="TLM送出一時停止">
<polygon fill="white" stroke="black" points="614.5,-368.5 614.5,-387.5 763.5,-387.5 763.5,-368.5 614.5,-368.5"/>
<text text-anchor="middle" x="689" y="-375.5" font-family="Helvetica,sans-Serif" font-size="10.00">Cmd_TLM_MGR_STOP_TLM</text>
</a>
</g>
</g>
<!-- Node31&#45;&gt;Node66 -->
<g id="edge48" class="edge">
<title>Node31&#45;&gt;Node66</title>
<path fill="none" stroke="midnightblue" d="M851.5,-343.72C816.07,-351.24 769.13,-361.2 735,-368.45"/>
<polygon fill="midnightblue" stroke="midnightblue" points="852.57,-347.07 861.63,-341.57 851.12,-340.22 852.57,-347.07"/>
</g>
<!-- Node67 -->
<g id="node39" class="node">
<title>Node67</title>
<g id="a_node39"><a xlink:href="telemetry__manager_8c.html#a2cf8d6a2174e6649a0f079f3a292fcd4" target="_top" xlink:title="TLM_MGR_RegisterInfo に テレメ生成コマンドを登録する">
<polygon fill="white" stroke="black" points="597,-323.5 597,-342.5 781,-342.5 781,-323.5 597,-323.5"/>
<text text-anchor="middle" x="689" y="-330.5" font-family="Helvetica,sans-Serif" font-size="10.00">TLM_MGR_register_generate_tlm_</text>
</a>
</g>
</g>
<!-- Node31&#45;&gt;Node67 -->
<g id="edge50" class="edge">
<title>Node31&#45;&gt;Node67</title>
<path fill="none" stroke="midnightblue" d="M851.62,-333C830.53,-333 805.33,-333 781.18,-333"/>
<polygon fill="midnightblue" stroke="midnightblue" points="851.63,-336.5 861.63,-333 851.63,-329.5 851.63,-336.5"/>
</g>
<!-- Node33 -->
<g id="node21" class="node">
<title>Node33</title>
<g id="a_node21"><a xlink:href="block__command__loader_8h.html#adc8e2381948a082e62d72d9971fc203f" target="_top" xlink:title="ブロックコマンドの最後にコマンドを追加する">
<polygon fill="white" stroke="black" points="199.5,-88.5 199.5,-107.5 327.5,-107.5 327.5,-88.5 199.5,-88.5"/>
<text text-anchor="middle" x="263.5" y="-95.5" font-family="Helvetica,sans-Serif" font-size="10.00">BCL_tool_register_cmd</text>
</a>
</g>
</g>
<!-- Node32&#45;&gt;Node33 -->
<g id="edge22" class="edge">
<title>Node32&#45;&gt;Node33</title>
<path fill="none" stroke="midnightblue" d="M402.28,-147.82C392.64,-145.43 382.94,-142.53 374,-139 356.56,-132.12 355.27,-124.32 338,-117 329.26,-113.3 319.63,-110.18 310.29,-107.6"/>
<polygon fill="midnightblue" stroke="midnightblue" points="401.74,-151.29 412.27,-150.12 403.31,-144.47 401.74,-151.29"/>
</g>
<!-- Node49 -->
<g id="node27" class="node">
<title>Node49</title>
<g id="a_node27"><a xlink:href="block__command__loader_8h.html#a99596019ff3a563f43ebae43ce86a03a" target="_top" xlink:title="ブロックコマンドの最後にコンバイナーの実行コマンドを追加する">
<polygon fill="white" stroke="black" points="189,-252.5 189,-271.5 338,-271.5 338,-252.5 189,-252.5"/>
<text text-anchor="middle" x="263.5" y="-259.5" font-family="Helvetica,sans-Serif" font-size="10.00">BCL_tool_register_combine</text>
</a>
</g>
</g>
<!-- Node32&#45;&gt;Node49 -->
<g id="edge28" class="edge">
<title>Node32&#45;&gt;Node49</title>
<path fill="none" stroke="midnightblue" d="M402.6,-167.52C392.39,-170.97 382.43,-175.64 374,-182 348.86,-200.94 363.15,-224.07 338,-243 332.84,-246.88 326.96,-249.98 320.83,-252.44"/>
<polygon fill="midnightblue" stroke="midnightblue" points="403.84,-170.81 412.41,-164.59 401.83,-164.1 403.84,-170.81"/>
</g>
<!-- Node54 -->
<g id="node30" class="node">
<title>Node54</title>
<g id="a_node30"><a xlink:href="block__command__loader_8h.html#af4cd27ff6d5da716d1907556847d7326" target="_top" xlink:title="ブロックコマンドの最後にブロックコマンドの展開コマンドを追加する">
<polygon fill="white" stroke="black" points="193.5,-126.5 193.5,-145.5 333.5,-145.5 333.5,-126.5 193.5,-126.5"/>
<text text-anchor="middle" x="263.5" y="-133.5" font-family="Helvetica,sans-Serif" font-size="10.00">BCL_tool_register_deploy</text>
</a>
</g>
</g>
<!-- Node32&#45;&gt;Node54 -->
<g id="edge31" class="edge">
<title>Node32&#45;&gt;Node54</title>
<path fill="none" stroke="midnightblue" d="M402.21,-151C380.36,-148.62 355.86,-145.95 333.65,-143.53"/>
<polygon fill="midnightblue" stroke="midnightblue" points="402.05,-154.5 412.37,-152.1 402.81,-147.54 402.05,-154.5"/>
</g>
<!-- Node55 -->
<g id="node31" class="node">
<title>Node55</title>
<g id="a_node31"><a xlink:href="block__command__loader_8h.html#a5b59475bbbf303eaca56af95565e6f69" target="_top" xlink:title="ブロックコマンドの最後にタイムリミットコンバイナーの実行コマンドを追加する">
<polygon fill="white" stroke="black" points="198.5,-165 198.5,-195 328.5,-195 328.5,-165 198.5,-165"/>
<text text-anchor="start" x="206.5" y="-183" font-family="Helvetica,sans-Serif" font-size="10.00">BCL_tool_register_limit</text>
<text text-anchor="middle" x="263.5" y="-172" font-family="Helvetica,sans-Serif" font-size="10.00">_combine</text>
</a>
</g>
</g>
<!-- Node32&#45;&gt;Node55 -->
<g id="edge35" class="edge">
<title>Node32&#45;&gt;Node55</title>
<path fill="none" stroke="midnightblue" d="M402.19,-165C378.75,-167.56 352.27,-170.44 328.84,-172.99"/>
<polygon fill="midnightblue" stroke="midnightblue" points="402.81,-168.46 412.37,-163.9 402.05,-161.5 402.81,-168.46"/>
</g>
<!-- Node56 -->
<g id="node32" class="node">
<title>Node56</title>
<g id="a_node32"><a xlink:href="block__command__loader_8h.html#a03346645bccaa62a79cee806dfb3609e" target="_top" xlink:title="ブロックコマンドの最後にローテーターの実行コマンドを追加する">
<polygon fill="white" stroke="black" points="195,-214.5 195,-233.5 332,-233.5 332,-214.5 195,-214.5"/>
<text text-anchor="middle" x="263.5" y="-221.5" font-family="Helvetica,sans-Serif" font-size="10.00">BCL_tool_register_rotate</text>
</a>
</g>
</g>
<!-- Node32&#45;&gt;Node56 -->
<g id="edge36" class="edge">
<title>Node32&#45;&gt;Node56</title>
<path fill="none" stroke="midnightblue" d="M408.01,-170.19C396.51,-173.42 384.7,-177.33 374,-182 356.6,-189.59 355.41,-197.42 338,-205 329.42,-208.74 319.95,-211.86 310.73,-214.43"/>
<polygon fill="midnightblue" stroke="midnightblue" points="409.24,-173.49 418,-167.54 407.44,-166.73 409.24,-173.49"/>
</g>
<!-- Node34 -->
<g id="node22" class="node">
<title>Node34</title>
<g id="a_node22"><a xlink:href="_nop_s_l_8h.html#ac2e03db4574677416b3bddc43d14df06" target="_top" xlink:title=" ">
<polygon fill="white" stroke="red" points="27.5,-50.5 27.5,-69.5 125.5,-69.5 125.5,-50.5 27.5,-50.5"/>
<text text-anchor="middle" x="76.5" y="-57.5" font-family="Helvetica,sans-Serif" font-size="10.00">BCL_load_nop_sl</text>
</a>
</g>
</g>
<!-- Node33&#45;&gt;Node34 -->
<g id="edge23" class="edge">
<title>Node33&#45;&gt;Node34</title>
<path fill="none" stroke="midnightblue" d="M205.98,-86.39C179.67,-80.99 148.76,-74.64 123.85,-69.52"/>
<polygon fill="midnightblue" stroke="midnightblue" points="205.32,-89.83 215.82,-88.41 206.73,-82.97 205.32,-89.83"/>
</g>
<!-- Node37 -->
<g id="node23" class="node">
<title>Node37</title>
<g id="a_node23"><a xlink:href="nbc__respond__eh__for__test_8c.html#a3db48d680628bbf52f4cd1fc444b9c36" target="_top" xlink:title=" ">
<polygon fill="white" stroke="red" points="15,-1 15,-31 138,-31 138,-1 15,-1"/>
<text text-anchor="start" x="23" y="-19" font-family="Helvetica,sans-Serif" font-size="10.00">BCL_load_respond_eh</text>
<text text-anchor="middle" x="76.5" y="-8" font-family="Helvetica,sans-Serif" font-size="10.00">_for_test</text>
</a>
</g>
</g>
<!-- Node33&#45;&gt;Node37 -->
<g id="edge24" class="edge">
<title>Node33&#45;&gt;Node37</title>
<path fill="none" stroke="midnightblue" d="M203.41,-84.99C198.39,-82.97 193.51,-80.66 189,-78 169.23,-66.35 172.45,-53.18 153,-41 146.91,-37.19 140.19,-33.9 133.33,-31.07"/>
<polygon fill="midnightblue" stroke="midnightblue" points="202.58,-88.41 213.18,-88.5 204.95,-81.82 202.58,-88.41"/>
</g>
<!-- Node38 -->
<g id="node24" class="node">
<title>Node38</title>
<g id="a_node24"><a xlink:href="nbc__start__hk__tlm_8c.html#a56103faa9caea8b5ce4f318c4f5c8615" target="_top" xlink:title=" ">
<polygon fill="white" stroke="red" points="12.5,-126.5 12.5,-145.5 140.5,-145.5 140.5,-126.5 12.5,-126.5"/>
<text text-anchor="middle" x="76.5" y="-133.5" font-family="Helvetica,sans-Serif" font-size="10.00">BCL_load_start_hk_tlm</text>
</a>
</g>
</g>
<!-- Node33&#45;&gt;Node38 -->
<g id="edge25" class="edge">
<title>Node33&#45;&gt;Node38</title>
<path fill="none" stroke="midnightblue" d="M205.98,-109.61C179.67,-115.01 148.76,-121.36 123.85,-126.48"/>
<polygon fill="midnightblue" stroke="midnightblue" points="206.73,-113.03 215.82,-107.59 205.32,-106.17 206.73,-113.03"/>
</g>
<!-- Node39 -->
<g id="node25" class="node">
<title>Node39</title>
<g id="a_node25"><a xlink:href="_initial_s_l_8h.html#a2482bfacb75082486f0293bb5c6a06bc" target="_top" xlink:title=" ">
<polygon fill="white" stroke="red" points="15.5,-165 15.5,-195 137.5,-195 137.5,-165 15.5,-165"/>
<text text-anchor="start" x="23.5" y="-183" font-family="Helvetica,sans-Serif" font-size="10.00">BCL_load_start_up_to</text>
<text text-anchor="middle" x="76.5" y="-172" font-family="Helvetica,sans-Serif" font-size="10.00">_initial</text>
</a>
</g>
</g>
<!-- Node33&#45;&gt;Node39 -->
<g id="edge26" class="edge">
<title>Node33&#45;&gt;Node39</title>
<path fill="none" stroke="midnightblue" d="M200.74,-111.17C196.66,-112.88 192.7,-114.82 189,-117 168.96,-128.81 172.64,-142.52 153,-155 147.06,-158.78 140.48,-162.04 133.77,-164.85"/>
<polygon fill="midnightblue" stroke="midnightblue" points="202.28,-114.32 210.43,-107.55 199.83,-107.77 202.28,-114.32"/>
</g>
<!-- Node40 -->
<g id="node26" class="node">
<title>Node40</title>
<g id="a_node26"><a xlink:href="telemetry__manager_8c.html#abb254dddda35d23891f16afbfd91e039" target="_top" xlink:title="NOP で埋められた BCの構築">
<polygon fill="white" stroke="red" points="8,-88.5 8,-107.5 145,-107.5 145,-88.5 8,-88.5"/>
<text text-anchor="middle" x="76.5" y="-95.5" font-family="Helvetica,sans-Serif" font-size="10.00">TLM_MGR_load_nop_bc_</text>
</a>
</g>
</g>
<!-- Node33&#45;&gt;Node40 -->
<g id="edge27" class="edge">
<title>Node33&#45;&gt;Node40</title>
<path fill="none" stroke="midnightblue" d="M188.95,-98C174.48,-98 159.37,-98 145.11,-98"/>
<polygon fill="midnightblue" stroke="midnightblue" points="189.35,-101.5 199.35,-98 189.35,-94.5 189.35,-101.5"/>
</g>
<!-- Node50 -->
<g id="node28" class="node">
<title>Node50</title>
<g id="a_node28"><a xlink:href="_initial_t_l_8h.html#a78c37e4dafeb8e340da290527a3dbd1d" target="_top" xlink:title=" ">
<polygon fill="white" stroke="red" points="12.5,-252.5 12.5,-271.5 140.5,-271.5 140.5,-252.5 12.5,-252.5"/>
<text text-anchor="middle" x="76.5" y="-259.5" font-family="Helvetica,sans-Serif" font-size="10.00">BCL_load_initial_mode</text>
</a>
</g>
</g>
<!-- Node49&#45;&gt;Node50 -->
<g id="edge29" class="edge">
<title>Node49&#45;&gt;Node50</title>
<path fill="none" stroke="midnightblue" d="M178.69,-262C165.94,-262 152.97,-262 140.75,-262"/>
<polygon fill="midnightblue" stroke="midnightblue" points="178.85,-265.5 188.85,-262 178.85,-258.5 178.85,-265.5"/>
</g>
<!-- Node51 -->
<g id="node29" class="node">
<title>Node51</title>
<g id="a_node29"><a xlink:href="telemetry__manager_8c.html#ac73e2b57fc1dc9c21cacd12f0772a84d" target="_top" xlink:title="BC全体を展開していくmaster BCの構築">
<polygon fill="white" stroke="red" points="0,-214.5 0,-233.5 153,-233.5 153,-214.5 0,-214.5"/>
<text text-anchor="middle" x="76.5" y="-221.5" font-family="Helvetica,sans-Serif" font-size="10.00">TLM_MGR_load_master_bc_</text>
</a>
</g>
</g>
<!-- Node49&#45;&gt;Node51 -->
<g id="edge30" class="edge">
<title>Node49&#45;&gt;Node51</title>
<path fill="none" stroke="midnightblue" d="M205.98,-250.39C179.67,-244.99 148.76,-238.64 123.85,-233.52"/>
<polygon fill="midnightblue" stroke="midnightblue" points="205.32,-253.83 215.82,-252.41 206.73,-246.97 205.32,-253.83"/>
</g>
<!-- Node54&#45;&gt;Node38 -->
<g id="edge32" class="edge">
<title>Node54&#45;&gt;Node38</title>
<path fill="none" stroke="midnightblue" d="M183.13,-136C168.98,-136 154.4,-136 140.77,-136"/>
<polygon fill="midnightblue" stroke="midnightblue" points="183.35,-139.5 193.35,-136 183.35,-132.5 183.35,-139.5"/>
</g>
<!-- Node54&#45;&gt;Node39 -->
<g id="edge33" class="edge">
<title>Node54&#45;&gt;Node39</title>
<path fill="none" stroke="midnightblue" d="M212.44,-147.91C189.36,-153.39 161.79,-159.95 137.61,-165.7"/>
<polygon fill="midnightblue" stroke="midnightblue" points="213.44,-151.27 222.36,-145.55 211.82,-144.46 213.44,-151.27"/>
</g>
<!-- Node54&#45;&gt;Node51 -->
<g id="edge34" class="edge">
<title>Node54&#45;&gt;Node51</title>
<path fill="none" stroke="midnightblue" d="M200.4,-149.53C196.4,-151.42 192.56,-153.56 189,-156 166.72,-171.29 175.43,-189.92 153,-205 147.28,-208.85 140.84,-211.91 134.2,-214.36"/>
<polygon fill="midnightblue" stroke="midnightblue" points="202.04,-152.64 209.96,-145.6 199.38,-146.17 202.04,-152.64"/>
</g>
<!-- Node56&#45;&gt;Node50 -->
<g id="edge37" class="edge">
<title>Node56&#45;&gt;Node50</title>
<path fill="none" stroke="midnightblue" d="M205.98,-235.61C179.67,-241.01 148.76,-247.36 123.85,-252.48"/>
<polygon fill="midnightblue" stroke="midnightblue" points="206.73,-239.03 215.82,-233.59 205.32,-232.17 206.73,-239.03"/>
</g>
<!-- Node56&#45;&gt;Node51 -->
<g id="edge38" class="edge">
<title>Node56&#45;&gt;Node51</title>
<path fill="none" stroke="midnightblue" d="M184.91,-224C174.35,-224 163.54,-224 153.02,-224"/>
<polygon fill="midnightblue" stroke="midnightblue" points="184.93,-227.5 194.93,-224 184.93,-220.5 184.93,-227.5"/>
</g>
<!-- Node58 -->
<g id="node34" class="node">
<title>Node58</title>
<g id="a_node34"><a xlink:href="block__command__loader_8c.html#a8b8df5aca929f5b6307b9695bb2a5b54" target="_top" xlink:title=" ">
<polygon fill="white" stroke="black" points="414,-224.5 414,-243.5 521,-243.5 521,-224.5 414,-224.5"/>
<text text-anchor="middle" x="467.5" y="-231.5" font-family="Helvetica,sans-Serif" font-size="10.00">BCL_register_app_</text>
</a>
</g>
</g>
<!-- Node57&#45;&gt;Node58 -->
<g id="edge40" class="edge">
<title>Node57&#45;&gt;Node58</title>
<path fill="none" stroke="midnightblue" d="M621.54,-255.61C589.38,-251.07 551.32,-245.7 521.2,-241.44"/>
<polygon fill="midnightblue" stroke="midnightblue" points="621.37,-259.12 631.76,-257.06 622.35,-252.19 621.37,-259.12"/>
</g>
<!-- Node59 -->
<g id="node35" class="node">
<title>Node59</title>
<g id="a_node35"><a xlink:href="block__command__loader_8h.html#a79f8c8fdf61bea28c3e44ddfe447c46d" target="_top" xlink:title="ブロックコマンドの最後にアプリの実行コマンドを追加する">
<polygon fill="white" stroke="red" points="201,-290.5 201,-309.5 326,-309.5 326,-290.5 201,-290.5"/>
<text text-anchor="middle" x="263.5" y="-297.5" font-family="Helvetica,sans-Serif" font-size="10.00">BCL_tool_register_app</text>
</a>
</g>
</g>
<!-- Node58&#45;&gt;Node59 -->
<g id="edge41" class="edge">
<title>Node58&#45;&gt;Node59</title>
<path fill="none" stroke="midnightblue" d="M404.05,-243.65C393.77,-246.32 383.4,-249.71 374,-254 355.81,-262.31 356.02,-272.33 338,-281 330.04,-284.83 321.21,-287.95 312.52,-290.48"/>
<polygon fill="midnightblue" stroke="midnightblue" points="404.95,-247.03 413.86,-241.3 403.32,-240.22 404.95,-247.03"/>
</g>
<!-- Node59&#45;&gt;Node50 -->
<g id="edge42" class="edge">
<title>Node59&#45;&gt;Node50</title>
<path fill="none" stroke="midnightblue" d="M205.98,-288.39C179.67,-282.99 148.76,-276.64 123.85,-271.52"/>
<polygon fill="midnightblue" stroke="midnightblue" points="205.32,-291.83 215.82,-290.41 206.73,-284.97 205.32,-291.83"/>
</g>
<!-- Node64&#45;&gt;Node16 -->
<g id="edge44" class="edge">
<title>Node64&#45;&gt;Node16</title>
<path fill="none" stroke="midnightblue" d="M621.14,-527.7C557.28,-522.9 458.52,-513.68 374,-498 347.12,-493.02 317.15,-484.89 295.37,-478.51"/>
<polygon fill="midnightblue" stroke="midnightblue" points="621.24,-531.22 631.47,-528.46 621.76,-524.24 621.24,-531.22"/>
</g>
<!-- Node65&#45;&gt;Node16 -->
<g id="edge46" class="edge">
<title>Node65&#45;&gt;Node16</title>
<path fill="none" stroke="midnightblue" d="M609.97,-478.68C593.81,-480.48 576.88,-482.07 561,-483 478.03,-487.88 456.94,-488.28 374,-483 356.4,-481.88 337.31,-479.76 320.07,-477.5"/>
<polygon fill="midnightblue" stroke="midnightblue" points="610.38,-482.16 619.91,-477.54 609.58,-475.2 610.38,-482.16"/>
</g>
<!-- Node66&#45;&gt;Node16 -->
<g id="edge49" class="edge">
<title>Node66&#45;&gt;Node16</title>
<path fill="none" stroke="midnightblue" d="M667.2,-393.76C643.1,-411.04 601.49,-437.92 561,-450 479.81,-474.22 380.75,-475.18 320.17,-472.76"/>
<polygon fill="midnightblue" stroke="midnightblue" points="669.54,-396.39 675.54,-387.66 665.41,-390.74 669.54,-396.39"/>
</g>
<!-- Node68 -->
<g id="node40" class="node">
<title>Node68</title>
<g id="a_node40"><a xlink:href="telemetry__manager_8h.html#aa25105738fa6140b99a82d5d28b3b89f" target="_top" xlink:title="high_freq_tlm を登録">
<polygon fill="white" stroke="black" points="394.5,-361 394.5,-391 540.5,-391 540.5,-361 394.5,-361"/>
<text text-anchor="start" x="402.5" y="-379" font-family="Helvetica,sans-Serif" font-size="10.00">Cmd_TLM_MGR_REGISTER</text>
<text text-anchor="middle" x="467.5" y="-368" font-family="Helvetica,sans-Serif" font-size="10.00">_HIGH_FREQ_TLM</text>
</a>
</g>
</g>
<!-- Node67&#45;&gt;Node68 -->
<g id="edge51" class="edge">
<title>Node67&#45;&gt;Node68</title>
<path fill="none" stroke="midnightblue" d="M629.16,-344.53C601.99,-349.85 569.49,-356.22 540.84,-361.83"/>
<polygon fill="midnightblue" stroke="midnightblue" points="630.15,-347.9 639.29,-342.54 628.8,-341.03 630.15,-347.9"/>
</g>
<!-- Node69 -->
<g id="node41" class="node">
<title>Node69</title>
<g id="a_node41"><a xlink:href="telemetry__manager_8h.html#a47e992abafa10e575d0e5cf22875ed81" target="_top" xlink:title="HKテレメを登録">
<polygon fill="white" stroke="black" points="394.5,-312 394.5,-342 540.5,-342 540.5,-312 394.5,-312"/>
<text text-anchor="start" x="402.5" y="-330" font-family="Helvetica,sans-Serif" font-size="10.00">Cmd_TLM_MGR_REGISTER</text>
<text text-anchor="middle" x="467.5" y="-319" font-family="Helvetica,sans-Serif" font-size="10.00">_HK_TLM</text>
</a>
</g>
</g>
<!-- Node67&#45;&gt;Node69 -->
<g id="edge53" class="edge">
<title>Node67&#45;&gt;Node69</title>
<path fill="none" stroke="midnightblue" d="M586.66,-330.23C571.14,-329.81 555.39,-329.38 540.67,-328.97"/>
<polygon fill="midnightblue" stroke="midnightblue" points="586.73,-333.73 596.82,-330.51 586.92,-326.74 586.73,-333.73"/>
</g>
<!-- Node70 -->
<g id="node42" class="node">
<title>Node70</title>
<g id="a_node42"><a xlink:href="telemetry__manager_8h.html#ad8765254cce8d4a2361b16becb1d3d4f" target="_top" xlink:title="low_freq_tlm を登録">
<polygon fill="white" stroke="black" points="394.5,-263 394.5,-293 540.5,-293 540.5,-263 394.5,-263"/>
<text text-anchor="start" x="402.5" y="-281" font-family="Helvetica,sans-Serif" font-size="10.00">Cmd_TLM_MGR_REGISTER</text>
<text text-anchor="middle" x="467.5" y="-270" font-family="Helvetica,sans-Serif" font-size="10.00">_LOW_FREQ_TLM</text>
</a>
</g>
</g>
<!-- Node67&#45;&gt;Node70 -->
<g id="edge55" class="edge">
<title>Node67&#45;&gt;Node70</title>
<path fill="none" stroke="midnightblue" d="M639.98,-320.97C607.25,-312.77 563.66,-301.84 528.62,-293.07"/>
<polygon fill="midnightblue" stroke="midnightblue" points="639.22,-324.38 649.77,-323.42 640.92,-317.59 639.22,-324.38"/>
</g>
<!-- Node71 -->
<g id="node43" class="node">
<title>Node71</title>
<g id="a_node43"><a xlink:href="telemetry__manager_8h.html#a4b2fba4c5b62a78b2e44717fe4296f7e" target="_top" xlink:title="systemテレメを登録">
<polygon fill="white" stroke="black" points="394.5,-410 394.5,-440 540.5,-440 540.5,-410 394.5,-410"/>
<text text-anchor="start" x="402.5" y="-428" font-family="Helvetica,sans-Serif" font-size="10.00">Cmd_TLM_MGR_REGISTER</text>
<text text-anchor="middle" x="467.5" y="-417" font-family="Helvetica,sans-Serif" font-size="10.00">_SYSTEM_TLM</text>
</a>
</g>
</g>
<!-- Node67&#45;&gt;Node71 -->
<g id="edge57" class="edge">
<title>Node67&#45;&gt;Node71</title>
<path fill="none" stroke="midnightblue" d="M624.96,-345.77C615.18,-349.21 605.51,-353.55 597,-359 576.3,-372.27 581.86,-387.98 561,-401 554.67,-404.95 547.7,-408.26 540.52,-411.02"/>
<polygon fill="midnightblue" stroke="midnightblue" points="626.3,-349.02 634.75,-342.63 624.16,-342.36 626.3,-349.02"/>
</g>
<!-- Node68&#45;&gt;Node16 -->
<g id="edge52" class="edge">
<title>Node68&#45;&gt;Node16</title>
<path fill="none" stroke="midnightblue" d="M391.08,-394.39C385.23,-396.42 379.47,-398.62 374,-401 336.65,-417.23 297.06,-444.75 277.3,-459.31"/>
<polygon fill="midnightblue" stroke="midnightblue" points="392.58,-397.58 400.99,-391.14 390.39,-390.93 392.58,-397.58"/>
</g>
<!-- Node69&#45;&gt;Node16 -->
<g id="edge54" class="edge">
<title>Node69&#45;&gt;Node16</title>
<path fill="none" stroke="midnightblue" d="M385.33,-346.03C381.41,-347.85 377.61,-349.83 374,-352 325.83,-380.95 285.5,-437.06 270.63,-459.44"/>
<polygon fill="midnightblue" stroke="midnightblue" points="386.8,-349.21 394.65,-342.09 384.07,-342.76 386.8,-349.21"/>
</g>
<!-- Node70&#45;&gt;Node16 -->
<g id="edge56" class="edge">
<title>Node70&#45;&gt;Node16</title>
<path fill="none" stroke="midnightblue" d="M385.1,-296.17C381.22,-298.21 377.49,-300.48 374,-303 314.96,-345.67 278.86,-430.77 267.99,-459.37"/>
<polygon fill="midnightblue" stroke="midnightblue" points="386.83,-299.23 394.41,-291.82 383.87,-292.89 386.83,-299.23"/>
</g>
<!-- Node71&#45;&gt;Node16 -->
<g id="edge58" class="edge">
<title>Node71&#45;&gt;Node16</title>
<path fill="none" stroke="midnightblue" d="M387.7,-442.16C360.67,-448.05 331.39,-454.43 308.17,-459.49"/>
<polygon fill="midnightblue" stroke="midnightblue" points="388.52,-445.57 397.55,-440.02 387.03,-438.73 388.52,-445.57"/>
</g>
<!-- Node72&#45;&gt;Node16 -->
<g id="edge60" class="edge">
<title>Node72&#45;&gt;Node16</title>
<path fill="none" stroke="midnightblue" d="M877.93,-560.6C799.87,-605.93 548.64,-735.55 374,-640 308.13,-603.96 276.07,-509.51 267.15,-478.8"/>
<polygon fill="midnightblue" stroke="midnightblue" points="879.74,-563.6 886.58,-555.52 876.18,-557.57 879.74,-563.6"/>
</g>
<!-- Node45 -->
<g id="node46" class="node">
<title>Node45</title>
<g id="a_node46"><a xlink:href="telemetry__manager_8h.html#af76453743bae7b361005376190100cbf" target="_top" xlink:title="high_freq_tlm, low_freq_tlm を初期化">
<polygon fill="white" stroke="black" points="374,-611.5 374,-630.5 561,-630.5 561,-611.5 374,-611.5"/>
<text text-anchor="middle" x="467.5" y="-618.5" font-family="Helvetica,sans-Serif" font-size="10.00">Cmd_TLM_MGR_CLEAR_USER_TLM</text>
</a>
</g>
</g>
<!-- Node73&#45;&gt;Node45 -->
<g id="edge62" class="edge">
<title>Node73&#45;&gt;Node45</title>
<path fill="none" stroke="midnightblue" d="M624.71,-593.96C592.69,-599.5 554.2,-606.16 523.44,-611.49"/>
<polygon fill="midnightblue" stroke="midnightblue" points="625.61,-597.35 634.87,-592.2 624.41,-590.46 625.61,-597.35"/>
</g>
<!-- Node48 -->
<g id="node47" class="node">
<title>Node48</title>
<g id="a_node47"><a xlink:href="telemetry__manager_8h.html#a19d6e76042721fe9e576dbacaf49b365" target="_top" xlink:title="初期化">
<polygon fill="white" stroke="black" points="408.5,-573.5 408.5,-592.5 526.5,-592.5 526.5,-573.5 408.5,-573.5"/>
<text text-anchor="middle" x="467.5" y="-580.5" font-family="Helvetica,sans-Serif" font-size="10.00">Cmd_TLM_MGR_INIT</text>
</a>
</g>
</g>
<!-- Node73&#45;&gt;Node48 -->
<g id="edge64" class="edge">
<title>Node73&#45;&gt;Node48</title>
<path fill="none" stroke="midnightblue" d="M624.62,-583C593.69,-583 556.73,-583 526.54,-583"/>
<polygon fill="midnightblue" stroke="midnightblue" points="624.87,-586.5 634.87,-583 624.87,-579.5 624.87,-586.5"/>
</g>
<!-- Node45&#45;&gt;Node16 -->
<g id="edge63" class="edge">
<title>Node45&#45;&gt;Node16</title>
<path fill="none" stroke="midnightblue" d="M385.45,-607.85C381.48,-606.13 377.63,-604.19 374,-602 321.23,-570.2 282.48,-503.46 269.36,-478.6"/>
<polygon fill="midnightblue" stroke="midnightblue" points="384.34,-611.17 394.93,-611.48 386.84,-604.63 384.34,-611.17"/>
</g>
<!-- Node48&#45;&gt;Node16 -->
<g id="edge65" class="edge">
<title>Node48&#45;&gt;Node16</title>
<path fill="none" stroke="midnightblue" d="M403.88,-570.72C393.61,-567.59 383.3,-563.73 374,-559 331.68,-537.45 290.93,-497.24 273.44,-478.75"/>
<polygon fill="midnightblue" stroke="midnightblue" points="403.1,-574.13 413.68,-573.49 405.01,-567.4 403.1,-574.13"/>
</g>
</g>
</svg>
