<?xml version="1.0" encoding="UTF-8" standalone="no"?>
<!DOCTYPE svg PUBLIC "-//W3C//DTD SVG 1.1//EN"
 "http://www.w3.org/Graphics/SVG/1.1/DTD/svg11.dtd">
<!-- Generated by graphviz version 2.43.0 (0)
 -->
<!-- Title: CCP_form_rtc Pages: 1 -->
<svg width="1554pt" height="940pt"
 viewBox="0.00 0.00 1554.00 939.50" xmlns="http://www.w3.org/2000/svg" xmlns:xlink="http://www.w3.org/1999/xlink">
<g id="graph0" class="graph" transform="scale(1 1) rotate(0) translate(4 935.5)">
<title>CCP_form_rtc</title>
<polygon fill="white" stroke="transparent" points="-4,4 -4,-935.5 1550,-935.5 1550,4 -4,4"/>
<!-- Node1 -->
<g id="node1" class="node">
<title>Node1</title>
<g id="a_node1"><a xlink:title="Realtime command を生成">
<polygon fill="#bfbfbf" stroke="black" points="1463,-590.5 1463,-609.5 1546,-609.5 1546,-590.5 1463,-590.5"/>
<text text-anchor="middle" x="1504.5" y="-597.5" font-family="Helvetica,sans-Serif" font-size="10.00">CCP_form_rtc</text>
</a>
</g>
</g>
<!-- Node2 -->
<g id="node2" class="node">
<title>Node2</title>
<g id="a_node2"><a xlink:href="common__cmd__packet__util_8h.html#aa81cdbe41bd9883401c5d576e244cfce" target="_top" xlink:title="BC展開 command を生成">
<polygon fill="white" stroke="black" points="1113.5,-685.5 1113.5,-704.5 1274.5,-704.5 1274.5,-685.5 1113.5,-685.5"/>
<text text-anchor="middle" x="1194" y="-692.5" font-family="Helvetica,sans-Serif" font-size="10.00">CCP_form_block_deploy_cmd</text>
</a>
</g>
</g>
<!-- Node1&#45;&gt;Node2 -->
<g id="edge1" class="edge">
<title>Node1&#45;&gt;Node2</title>
<path fill="none" stroke="midnightblue" d="M1490.24,-617.66C1476.47,-634.52 1453.28,-659.09 1427,-671 1379.42,-692.57 1320.89,-698.49 1274.51,-699.06"/>
<polygon fill="midnightblue" stroke="midnightblue" points="1493.11,-619.67 1496.55,-609.64 1487.61,-615.33 1493.11,-619.67"/>
</g>
<!-- Node24 -->
<g id="node17" class="node">
<title>Node24</title>
<g id="a_node17"><a xlink:href="common__cmd__packet__util_8c.html#a01b352632ca605771f0cfd66a2a149ba" target="_top" xlink:title="NOP cmd の RTC CCP を作る">
<polygon fill="white" stroke="black" points="1316,-609.5 1316,-628.5 1427,-628.5 1427,-609.5 1316,-609.5"/>
<text text-anchor="middle" x="1371.5" y="-616.5" font-family="Helvetica,sans-Serif" font-size="10.00">CCP_form_nop_rtc_</text>
</a>
</g>
</g>
<!-- Node1&#45;&gt;Node24 -->
<g id="edge20" class="edge">
<title>Node1&#45;&gt;Node24</title>
<path fill="none" stroke="midnightblue" d="M1452.63,-600.78C1434.53,-603.02 1414.86,-606.21 1399.54,-609.49"/>
<polygon fill="midnightblue" stroke="midnightblue" points="1453.24,-604.23 1462.77,-599.61 1452.43,-597.28 1453.24,-604.23"/>
</g>
<!-- Node67 -->
<g id="node44" class="node">
<title>Node67</title>
<g id="a_node44"><a xlink:href="telemetry__manager_8h.html#a923d6ea9078726984798c4b0800381fe" target="_top" xlink:title="TLM送出用TLをクリア">
<polygon fill="white" stroke="black" points="1108,-367.5 1108,-386.5 1280,-386.5 1280,-367.5 1108,-367.5"/>
<text text-anchor="middle" x="1194" y="-374.5" font-family="Helvetica,sans-Serif" font-size="10.00">Cmd_TLM_MGR_CLEAR_TLM_TL</text>
</a>
</g>
</g>
<!-- Node1&#45;&gt;Node67 -->
<g id="edge63" class="edge">
<title>Node1&#45;&gt;Node67</title>
<path fill="none" stroke="midnightblue" d="M1453.05,-594.96C1404.94,-589.26 1336.82,-578.54 1316,-562 1285.79,-537.99 1300.22,-515.86 1280,-483 1256.38,-444.63 1220.69,-404.51 1204.09,-386.61"/>
<polygon fill="midnightblue" stroke="midnightblue" points="1452.65,-598.44 1462.99,-596.11 1453.45,-591.49 1452.65,-598.44"/>
</g>
<!-- Node68 -->
<g id="node45" class="node">
<title>Node68</title>
<g id="a_node45"><a xlink:href="divided__cmd__utility_8h.html#a65ad0b8aa0af1c9c0bdd74aa37b15b15" target="_top" xlink:title="次の分割の実行を登録">
<polygon fill="white" stroke="black" points="754,-704.5 754,-723.5 862,-723.5 862,-704.5 754,-704.5"/>
<text text-anchor="middle" x="808" y="-711.5" font-family="Helvetica,sans-Serif" font-size="10.00">DCU_register_next</text>
</a>
</g>
</g>
<!-- Node1&#45;&gt;Node68 -->
<g id="edge65" class="edge">
<title>Node1&#45;&gt;Node68</title>
<path fill="none" stroke="midnightblue" d="M1479.16,-614.78C1464.55,-622.96 1445.3,-632.54 1427,-638 1290.17,-678.8 1249.71,-658.55 1108,-676 1021.92,-686.6 921.96,-699.4 862.19,-707.11"/>
<polygon fill="midnightblue" stroke="midnightblue" points="1481.12,-617.69 1488.04,-609.67 1477.62,-611.63 1481.12,-617.69"/>
</g>
<!-- Node69 -->
<g id="node48" class="node">
<title>Node69</title>
<g id="a_node48"><a xlink:href="sequence__items_8h.html#a5d6ce064c84df0f0cae1e7e25c5fde56" target="_top" xlink:title=" ">
<polygon fill="white" stroke="black" points="1324,-533.5 1324,-552.5 1419,-552.5 1419,-533.5 1324,-533.5"/>
<text text-anchor="middle" x="1371.5" y="-540.5" font-family="Helvetica,sans-Serif" font-size="10.00">SI_deploy_block</text>
</a>
</g>
</g>
<!-- Node1&#45;&gt;Node69 -->
<g id="edge70" class="edge">
<title>Node1&#45;&gt;Node69</title>
<path fill="none" stroke="midnightblue" d="M1472.2,-586.38C1448.24,-575.95 1415.78,-561.83 1394.5,-552.57"/>
<polygon fill="midnightblue" stroke="midnightblue" points="1471.01,-589.68 1481.57,-590.46 1473.8,-583.26 1471.01,-589.68"/>
</g>
<!-- Node70 -->
<g id="node49" class="node">
<title>Node70</title>
<g id="a_node49"><a xlink:href="sequence__items_8h.html#aa4a6c84c11e36c033cf8100c04458ee9" target="_top" xlink:title=" ">
<polygon fill="white" stroke="black" points="1317,-495.5 1317,-514.5 1426,-514.5 1426,-495.5 1317,-495.5"/>
<text text-anchor="middle" x="1371.5" y="-502.5" font-family="Helvetica,sans-Serif" font-size="10.00">SI_finish_transition</text>
</a>
</g>
</g>
<!-- Node1&#45;&gt;Node70 -->
<g id="edge71" class="edge">
<title>Node1&#45;&gt;Node70</title>
<path fill="none" stroke="midnightblue" d="M1489.81,-582.41C1475.71,-565.35 1452.28,-539.81 1427,-524 1420.97,-520.23 1414.09,-517.09 1407.3,-514.52"/>
<polygon fill="midnightblue" stroke="midnightblue" points="1487.29,-584.87 1496.29,-590.46 1492.74,-580.47 1487.29,-584.87"/>
</g>
<!-- Node71 -->
<g id="node50" class="node">
<title>Node71</title>
<g id="a_node50"><a xlink:href="sequence__items_8h.html#a0d524415abe3f1169e24b7f4aeec1096" target="_top" xlink:title=" ">
<polygon fill="white" stroke="black" points="1325.5,-457.5 1325.5,-476.5 1417.5,-476.5 1417.5,-457.5 1325.5,-457.5"/>
<text text-anchor="middle" x="1371.5" y="-464.5" font-family="Helvetica,sans-Serif" font-size="10.00">SI_start_hk_tlm</text>
</a>
</g>
</g>
<!-- Node1&#45;&gt;Node71 -->
<g id="edge72" class="edge">
<title>Node1&#45;&gt;Node71</title>
<path fill="none" stroke="midnightblue" d="M1495.44,-580.98C1483.85,-555.8 1460.16,-511.61 1427,-486 1422,-482.14 1416.17,-479.03 1410.2,-476.54"/>
<polygon fill="midnightblue" stroke="midnightblue" points="1492.28,-582.48 1499.54,-590.2 1498.68,-579.64 1492.28,-582.48"/>
</g>
<!-- Node3 -->
<g id="node3" class="node">
<title>Node3</title>
<g id="a_node3"><a xlink:href="telemetry__manager_8h.html#ad6f65df0da86f70cbd0f5b1e6cb32dbc" target="_top" xlink:title="TLM送出開始">
<polygon fill="white" stroke="black" points="731,-666.5 731,-685.5 885,-685.5 885,-666.5 731,-666.5"/>
<text text-anchor="middle" x="808" y="-673.5" font-family="Helvetica,sans-Serif" font-size="10.00">Cmd_TLM_MGR_START_TLM</text>
</a>
</g>
</g>
<!-- Node2&#45;&gt;Node3 -->
<g id="edge2" class="edge">
<title>Node2&#45;&gt;Node3</title>
<path fill="none" stroke="midnightblue" d="M1103.43,-690.57C1037.2,-687.29 948,-682.88 885.19,-679.77"/>
<polygon fill="midnightblue" stroke="midnightblue" points="1103.27,-694.06 1113.43,-691.06 1103.62,-687.07 1103.27,-694.06"/>
</g>
<!-- Node11 -->
<g id="node8" class="node">
<title>Node11</title>
<g id="a_node8"><a xlink:href="event__handler_8c.html#a8d7de705ac2b09f9f25644f0c9f55952" target="_top" xlink:title="EH 対応を実施">
<polygon fill="white" stroke="black" points="964,-840.5 964,-859.5 1044,-859.5 1044,-840.5 964,-840.5"/>
<text text-anchor="middle" x="1004" y="-847.5" font-family="Helvetica,sans-Serif" font-size="10.00">EH_respond_</text>
</a>
</g>
</g>
<!-- Node2&#45;&gt;Node11 -->
<g id="edge8" class="edge">
<title>Node2&#45;&gt;Node11</title>
<path fill="none" stroke="midnightblue" d="M1173.22,-711.3C1134.15,-743.52 1048.14,-814.43 1016.76,-840.31"/>
<polygon fill="midnightblue" stroke="midnightblue" points="1175.75,-713.76 1181.24,-704.7 1171.3,-708.36 1175.75,-713.76"/>
</g>
<!-- Node20 -->
<g id="node13" class="node">
<title>Node20</title>
<g id="a_node13"><a xlink:href="mode__manager_8c.html#a4a483437e28116e6067d488392922a8f" target="_top" xlink:title="(モード遷移に対応する)ブロックコマンドのタイムラインへの展開を行う">
<polygon fill="white" stroke="black" points="936,-761.5 936,-780.5 1072,-780.5 1072,-761.5 936,-761.5"/>
<text text-anchor="middle" x="1004" y="-768.5" font-family="Helvetica,sans-Serif" font-size="10.00">MM_deploy_block_cmd_</text>
</a>
</g>
</g>
<!-- Node2&#45;&gt;Node20 -->
<g id="edge14" class="edge">
<title>Node2&#45;&gt;Node20</title>
<path fill="none" stroke="midnightblue" d="M1159.68,-708.47C1122.03,-723.69 1061.71,-748.08 1028.62,-761.45"/>
<polygon fill="midnightblue" stroke="midnightblue" points="1161.23,-711.62 1169.19,-704.63 1158.61,-705.13 1161.23,-711.62"/>
</g>
<!-- Node4 -->
<g id="node4" class="node">
<title>Node4</title>
<g id="a_node4"><a xlink:href="command__definitions_8c.html#aa375895192b16d8e7f0ff4545b54e6c4" target="_top" xlink:title="Cmd Tableのロード">
<polygon fill="white" stroke="black" points="326,-573.5 326,-592.5 439,-592.5 439,-573.5 326,-573.5"/>
<text text-anchor="middle" x="382.5" y="-580.5" font-family="Helvetica,sans-Serif" font-size="10.00">CA_load_cmd_table</text>
</a>
</g>
</g>
<!-- Node3&#45;&gt;Node4 -->
<g id="edge3" class="edge">
<title>Node3&#45;&gt;Node4</title>
<path fill="none" stroke="midnightblue" d="M720.86,-682.36C656.43,-684.32 567.05,-681.02 493,-656 452.09,-642.18 411.9,-608.98 393.67,-592.54"/>
<polygon fill="midnightblue" stroke="midnightblue" points="721.11,-685.85 730.98,-682 720.86,-678.86 721.11,-685.85"/>
</g>
<!-- Node5 -->
<g id="node5" class="node">
<title>Node5</title>
<g id="a_node5"><a xlink:href="command__analyze_8h.html#ae6d1f376bf4e1c9c4b63bc3f04924c8a" target="_top" xlink:title="CA の初期化">
<polygon fill="white" stroke="black" points="157,-611.5 157,-630.5 234,-630.5 234,-611.5 157,-611.5"/>
<text text-anchor="middle" x="195.5" y="-618.5" font-family="Helvetica,sans-Serif" font-size="10.00">CA_initialize</text>
</a>
</g>
</g>
<!-- Node4&#45;&gt;Node5 -->
<g id="edge4" class="edge">
<title>Node4&#45;&gt;Node5</title>
<path fill="none" stroke="midnightblue" d="M324.68,-594.67C295.27,-600.71 260.18,-607.92 234.15,-613.27"/>
<polygon fill="midnightblue" stroke="midnightblue" points="325.73,-598.03 334.82,-592.59 324.32,-591.17 325.73,-598.03"/>
</g>
<!-- Node6 -->
<g id="node6" class="node">
<title>Node6</title>
<g id="a_node6"><a xlink:href="c2a__core__main_8h.html#a65ecdc63d8762ffde4db7f6c6e6f07cf" target="_top" xlink:title=" ">
<polygon fill="white" stroke="red" points="0,-630.5 0,-649.5 83,-649.5 83,-630.5 0,-630.5"/>
<text text-anchor="middle" x="41.5" y="-637.5" font-family="Helvetica,sans-Serif" font-size="10.00">C2A_core_init</text>
</a>
</g>
</g>
<!-- Node5&#45;&gt;Node6 -->
<g id="edge5" class="edge">
<title>Node5&#45;&gt;Node6</title>
<path fill="none" stroke="midnightblue" d="M146.86,-626.95C126.39,-629.51 102.72,-632.47 83.1,-634.92"/>
<polygon fill="midnightblue" stroke="midnightblue" points="147.44,-630.41 156.93,-625.7 146.57,-623.46 147.44,-630.41"/>
</g>
<!-- Node10 -->
<g id="node7" class="node">
<title>Node10</title>
<g id="a_node7"><a xlink:href="command__analyze_8h.html#aee45638c6cff2c25a997905b209079d0" target="_top" xlink:title=" ">
<polygon fill="white" stroke="black" points="0,-592.5 0,-611.5 83,-611.5 83,-592.5 0,-592.5"/>
<text text-anchor="middle" x="41.5" y="-599.5" font-family="Helvetica,sans-Serif" font-size="10.00">Cmd_CA_INIT</text>
</a>
</g>
</g>
<!-- Node5&#45;&gt;Node10 -->
<g id="edge6" class="edge">
<title>Node5&#45;&gt;Node10</title>
<path fill="none" stroke="midnightblue" d="M146.86,-615.05C126.39,-612.49 102.72,-609.53 83.1,-607.08"/>
<polygon fill="midnightblue" stroke="midnightblue" points="146.57,-618.54 156.93,-616.3 147.44,-611.59 146.57,-618.54"/>
</g>
<!-- Node10&#45;&gt;Node4 -->
<g id="edge7" class="edge">
<title>Node10&#45;&gt;Node4</title>
<path fill="none" stroke="midnightblue" d="M93.22,-599.16C155.65,-595.66 261.31,-589.74 325.9,-586.12"/>
<polygon fill="midnightblue" stroke="midnightblue" points="93,-595.66 83.21,-599.72 93.39,-602.65 93,-595.66"/>
</g>
<!-- Node12 -->
<g id="node9" class="node">
<title>Node12</title>
<g id="a_node9"><a xlink:href="event__handler_8c.html#ac7461e79109f06783e2c620a6d999a6b" target="_top" xlink:title="EH の対応条件をチェックし， EL_Event に対応する">
<polygon fill="white" stroke="black" points="727.5,-862.5 727.5,-881.5 888.5,-881.5 888.5,-862.5 727.5,-862.5"/>
<text text-anchor="middle" x="808" y="-869.5" font-family="Helvetica,sans-Serif" font-size="10.00">EH_check_rule_and_respond_</text>
</a>
</g>
</g>
<!-- Node11&#45;&gt;Node12 -->
<g id="edge9" class="edge">
<title>Node11&#45;&gt;Node12</title>
<path fill="none" stroke="midnightblue" d="M953.76,-855.58C934,-857.82 910.72,-860.46 888.67,-862.96"/>
<polygon fill="midnightblue" stroke="midnightblue" points="954.2,-859.06 963.74,-854.45 953.41,-852.1 954.2,-859.06"/>
</g>
<!-- Node13 -->
<g id="node10" class="node">
<title>Node13</title>
<g id="a_node10"><a xlink:href="event__handler_8c.html#a227ed3b7079c58dee50a81ce408549a2" target="_top" xlink:title="EL_Event に対応する EH_Rule が存在するかチェックし，対応する">
<polygon fill="white" stroke="black" points="526.5,-857 526.5,-887 646.5,-887 646.5,-857 526.5,-857"/>
<text text-anchor="start" x="534.5" y="-875" font-family="Helvetica,sans-Serif" font-size="10.00">EH_check_event_and</text>
<text text-anchor="middle" x="586.5" y="-864" font-family="Helvetica,sans-Serif" font-size="10.00">_respond_</text>
</a>
</g>
</g>
<!-- Node12&#45;&gt;Node13 -->
<g id="edge10" class="edge">
<title>Node12&#45;&gt;Node13</title>
<path fill="none" stroke="midnightblue" d="M717.35,-872C693.59,-872 668.53,-872 646.82,-872"/>
<polygon fill="midnightblue" stroke="midnightblue" points="717.45,-875.5 727.45,-872 717.45,-868.5 717.45,-875.5"/>
</g>
<!-- Node14 -->
<g id="node11" class="node">
<title>Node14</title>
<g id="a_node11"><a xlink:href="event__handler_8c.html#af084576db8b00a4c7e4b117314b128db" target="_top" xlink:title="上位の EH の対応条件をチェックし，対応する">
<polygon fill="white" stroke="black" points="318,-901 318,-931 447,-931 447,-901 318,-901"/>
<text text-anchor="start" x="326" y="-919" font-family="Helvetica,sans-Serif" font-size="10.00">EH_check_higher_level</text>
<text text-anchor="middle" x="382.5" y="-908" font-family="Helvetica,sans-Serif" font-size="10.00">_rule_and_respond_</text>
</a>
</g>
</g>
<!-- Node13&#45;&gt;Node14 -->
<g id="edge11" class="edge">
<title>Node13&#45;&gt;Node14</title>
<path fill="none" stroke="midnightblue" d="M516.48,-887.03C494.08,-891.91 469.33,-897.3 447.32,-902.1"/>
<polygon fill="midnightblue" stroke="midnightblue" points="517.23,-890.45 526.26,-884.9 515.74,-883.61 517.23,-890.45"/>
</g>
<!-- Node15 -->
<g id="node12" class="node">
<title>Node15</title>
<g id="a_node12"><a xlink:href="event__handler_8h.html#a76ddd224739890733cbd318e2d5c015b" target="_top" xlink:title="event_handler の実行">
<polygon fill="white" stroke="red" points="345.5,-862.5 345.5,-881.5 419.5,-881.5 419.5,-862.5 345.5,-862.5"/>
<text text-anchor="middle" x="382.5" y="-869.5" font-family="Helvetica,sans-Serif" font-size="10.00">EH_execute</text>
</a>
</g>
</g>
<!-- Node13&#45;&gt;Node15 -->
<g id="edge13" class="edge">
<title>Node13&#45;&gt;Node15</title>
<path fill="none" stroke="midnightblue" d="M515.92,-872C483.51,-872 446.29,-872 419.59,-872"/>
<polygon fill="midnightblue" stroke="midnightblue" points="516.26,-875.5 526.26,-872 516.26,-868.5 516.26,-875.5"/>
</g>
<!-- Node14&#45;&gt;Node12 -->
<g id="edge12" class="edge">
<title>Node14&#45;&gt;Node12</title>
<path fill="none" stroke="midnightblue" d="M457.23,-913.95C517.37,-911.63 604.45,-906.81 680,-897 708.86,-893.25 741.02,-886.9 765.76,-881.53"/>
<polygon fill="midnightblue" stroke="midnightblue" points="456.93,-910.45 447.06,-914.32 457.19,-917.45 456.93,-910.45"/>
</g>
<!-- Node21 -->
<g id="node14" class="node">
<title>Node21</title>
<g id="a_node14"><a xlink:href="mode__manager_8c.html#ae4381c1c84d8b5d8aa033e522530436d" target="_top" xlink:title="Cmd_MM_START_TRANSITIONの実体">
<polygon fill="white" stroke="black" points="748.5,-780.5 748.5,-799.5 867.5,-799.5 867.5,-780.5 748.5,-780.5"/>
<text text-anchor="middle" x="808" y="-787.5" font-family="Helvetica,sans-Serif" font-size="10.00">MM_start_transition_</text>
</a>
</g>
</g>
<!-- Node20&#45;&gt;Node21 -->
<g id="edge15" class="edge">
<title>Node20&#45;&gt;Node21</title>
<path fill="none" stroke="midnightblue" d="M925.93,-778.55C906.51,-780.45 885.97,-782.46 867.62,-784.26"/>
<polygon fill="midnightblue" stroke="midnightblue" points="926.35,-782.02 935.96,-777.57 925.67,-775.06 926.35,-782.02"/>
</g>
<!-- Node22 -->
<g id="node15" class="node">
<title>Node22</title>
<g id="a_node15"><a xlink:href="mode__manager_8h.html#ab54a8f93c525edc7f7f2283ad94af267" target="_top" xlink:title="モード遷移を開始するコマンド">
<polygon fill="white" stroke="black" points="505,-780.5 505,-799.5 668,-799.5 668,-780.5 505,-780.5"/>
<text text-anchor="middle" x="586.5" y="-787.5" font-family="Helvetica,sans-Serif" font-size="10.00">Cmd_MM_START_TRANSITION</text>
</a>
</g>
</g>
<!-- Node21&#45;&gt;Node22 -->
<g id="edge16" class="edge">
<title>Node21&#45;&gt;Node22</title>
<path fill="none" stroke="midnightblue" d="M738.43,-790C716.15,-790 691.22,-790 668.14,-790"/>
<polygon fill="midnightblue" stroke="midnightblue" points="738.47,-793.5 748.47,-790 738.47,-786.5 738.47,-793.5"/>
</g>
<!-- Node23 -->
<g id="node16" class="node">
<title>Node23</title>
<g id="a_node16"><a xlink:href="mode__manager_8h.html#a89fbf516698fe6c690438e21ec8efd82" target="_top" xlink:title="モード遷移を管理する ModeManager 構造体 (mode_manager_) の初期化">
<polygon fill="white" stroke="black" points="341.5,-776.5 341.5,-795.5 423.5,-795.5 423.5,-776.5 341.5,-776.5"/>
<text text-anchor="middle" x="382.5" y="-783.5" font-family="Helvetica,sans-Serif" font-size="10.00">MM_initialize</text>
</a>
</g>
</g>
<!-- Node21&#45;&gt;Node23 -->
<g id="edge18" class="edge">
<title>Node21&#45;&gt;Node23</title>
<path fill="none" stroke="midnightblue" d="M745.36,-801.1C724.66,-804.33 701.4,-807.41 680,-809 597.12,-815.17 575.67,-817.59 493,-809 468.27,-806.43 440.89,-800.68 419.7,-795.57"/>
<polygon fill="midnightblue" stroke="midnightblue" points="745.97,-804.55 755.29,-799.51 744.86,-797.64 745.97,-804.55"/>
</g>
<!-- Node22&#45;&gt;Node4 -->
<g id="edge17" class="edge">
<title>Node22&#45;&gt;Node4</title>
<path fill="none" stroke="midnightblue" d="M501.12,-776.06C498.3,-774.53 495.58,-772.85 493,-771 427.35,-723.84 394.94,-624.15 386.07,-592.71"/>
<polygon fill="midnightblue" stroke="midnightblue" points="499.9,-779.35 510.44,-780.42 502.87,-773.01 499.9,-779.35"/>
</g>
<!-- Node23&#45;&gt;Node6 -->
<g id="edge19" class="edge">
<title>Node23&#45;&gt;Node6</title>
<path fill="none" stroke="midnightblue" d="M349.92,-772.4C282,-743.15 123.46,-674.87 64.82,-649.61"/>
<polygon fill="midnightblue" stroke="midnightblue" points="348.69,-775.68 359.26,-776.42 351.46,-769.25 348.69,-775.68"/>
</g>
<!-- Node24&#45;&gt;Node1 -->
<g id="edge22" class="edge">
<title>Node24&#45;&gt;Node1</title>
<path fill="none" stroke="midnightblue" d="M1437.19,-616.37C1451.02,-614.38 1464.9,-611.98 1476.36,-609.53"/>
<polygon fill="midnightblue" stroke="midnightblue" points="1436.6,-612.91 1427.17,-617.74 1437.55,-619.85 1436.6,-612.91"/>
</g>
<!-- Node24&#45;&gt;Node2 -->
<g id="edge21" class="edge">
<title>Node24&#45;&gt;Node2</title>
<path fill="none" stroke="midnightblue" d="M1338.94,-632.67C1303.77,-647.9 1247.81,-672.13 1217.05,-685.45"/>
<polygon fill="midnightblue" stroke="midnightblue" points="1340.49,-635.81 1348.27,-628.63 1337.71,-629.39 1340.49,-635.81"/>
</g>
<!-- Node25 -->
<g id="node18" class="node">
<title>Node25</title>
<g id="a_node18"><a xlink:href="common__cmd__packet__util_8h.html#a3695599b4d05dbb0b510c73dab7cd233" target="_top" xlink:title="Timeline command を生成">
<polygon fill="white" stroke="black" points="963,-412.5 963,-431.5 1045,-431.5 1045,-412.5 963,-412.5"/>
<text text-anchor="middle" x="1004" y="-419.5" font-family="Helvetica,sans-Serif" font-size="10.00">CCP_form_tlc</text>
</a>
</g>
</g>
<!-- Node24&#45;&gt;Node25 -->
<g id="edge23" class="edge">
<title>Node24&#45;&gt;Node25</title>
<path fill="none" stroke="midnightblue" d="M1337.89,-605.23C1330.62,-602 1323,-598.48 1316,-595 1200.36,-537.53 1066.25,-458.59 1020.91,-431.54"/>
<polygon fill="midnightblue" stroke="midnightblue" points="1336.91,-608.62 1347.48,-609.42 1339.72,-602.21 1336.91,-608.62"/>
</g>
<!-- Node25&#45;&gt;Node3 -->
<g id="edge51" class="edge">
<title>Node25&#45;&gt;Node3</title>
<path fill="none" stroke="midnightblue" d="M989.37,-439.85C951.4,-489.56 845.32,-628.45 816.38,-666.34"/>
<polygon fill="midnightblue" stroke="midnightblue" points="992.34,-441.72 995.63,-431.65 986.78,-437.47 992.34,-441.72"/>
</g>
<!-- Node26 -->
<g id="node19" class="node">
<title>Node26</title>
<g id="a_node19"><a xlink:href="block__command__loader_8c.html#a34da4d8efe30b2f1872103496dfcf8cb" target="_top" xlink:title=" ">
<polygon fill="white" stroke="black" points="531.5,-230.5 531.5,-249.5 641.5,-249.5 641.5,-230.5 531.5,-230.5"/>
<text text-anchor="middle" x="586.5" y="-237.5" font-family="Helvetica,sans-Serif" font-size="10.00">BCL_register_cmd_</text>
</a>
</g>
</g>
<!-- Node25&#45;&gt;Node26 -->
<g id="edge24" class="edge">
<title>Node25&#45;&gt;Node26</title>
<path fill="none" stroke="midnightblue" d="M991.65,-403.43C974.92,-377.74 941.13,-331.83 900,-308 818.21,-260.61 707,-246.18 641.67,-241.83"/>
<polygon fill="midnightblue" stroke="midnightblue" points="988.89,-405.62 997.2,-412.2 994.81,-401.88 988.89,-405.62"/>
</g>
<!-- Node52 -->
<g id="node33" class="node">
<title>Node52</title>
<g id="a_node33"><a xlink:href="common__cmd__packet__util_8h.html#a7e4a83a103dfa316c08b1570d93df0d1" target="_top" xlink:title="App 実行コマンドを生成">
<polygon fill="white" stroke="black" points="751,-317.5 751,-336.5 865,-336.5 865,-317.5 751,-317.5"/>
<text text-anchor="middle" x="808" y="-324.5" font-family="Helvetica,sans-Serif" font-size="10.00">CCP_form_app_cmd</text>
</a>
</g>
</g>
<!-- Node25&#45;&gt;Node52 -->
<g id="edge43" class="edge">
<title>Node25&#45;&gt;Node52</title>
<path fill="none" stroke="midnightblue" d="M985.72,-405.54C966.38,-388.05 933.37,-360.93 900,-346 889.1,-341.12 876.9,-337.48 865.06,-334.76"/>
<polygon fill="midnightblue" stroke="midnightblue" points="983.41,-408.17 993.13,-412.37 988.15,-403.02 983.41,-408.17"/>
</g>
<!-- Node59 -->
<g id="node36" class="node">
<title>Node59</title>
<g id="a_node36"><a xlink:href="block__command__table_8h.html#a4ad040fa043c293c99d80d36b9536035" target="_top" xlink:title=" ">
<polygon fill="white" stroke="black" points="750.5,-431.5 750.5,-450.5 865.5,-450.5 865.5,-431.5 750.5,-431.5"/>
<text text-anchor="middle" x="808" y="-438.5" font-family="Helvetica,sans-Serif" font-size="10.00">Cmd_BCT_FILL_NOP</text>
</a>
</g>
</g>
<!-- Node25&#45;&gt;Node59 -->
<g id="edge47" class="edge">
<title>Node25&#45;&gt;Node59</title>
<path fill="none" stroke="midnightblue" d="M952.55,-426.94C925.94,-429.55 893.19,-432.75 865.7,-435.45"/>
<polygon fill="midnightblue" stroke="midnightblue" points="953.19,-430.39 962.8,-425.94 952.51,-423.43 953.19,-430.39"/>
</g>
<!-- Node60 -->
<g id="node37" class="node">
<title>Node60</title>
<g id="a_node37"><a xlink:href="block__command__table_8h.html#afb56b53815cce4e3c34d0463073368ec" target="_top" xlink:title=" ">
<polygon fill="white" stroke="black" points="730,-393.5 730,-412.5 886,-412.5 886,-393.5 730,-393.5"/>
<text text-anchor="middle" x="808" y="-400.5" font-family="Helvetica,sans-Serif" font-size="10.00">Cmd_BCT_OVERWRITE_CMD</text>
</a>
</g>
</g>
<!-- Node25&#45;&gt;Node60 -->
<g id="edge49" class="edge">
<title>Node25&#45;&gt;Node60</title>
<path fill="none" stroke="midnightblue" d="M952.82,-417.09C932.46,-415.09 908.48,-412.74 886,-410.54"/>
<polygon fill="midnightblue" stroke="midnightblue" points="952.51,-420.57 962.8,-418.06 953.19,-413.61 952.51,-420.57"/>
</g>
<!-- Node61 -->
<g id="node38" class="node">
<title>Node61</title>
<g id="a_node38"><a xlink:href="telemetry__manager_8h.html#a0149b05e84bcce79dc6b019d5bb99ce1" target="_top" xlink:title="TLM送出一時停止">
<polygon fill="white" stroke="black" points="733.5,-355.5 733.5,-374.5 882.5,-374.5 882.5,-355.5 733.5,-355.5"/>
<text text-anchor="middle" x="808" y="-362.5" font-family="Helvetica,sans-Serif" font-size="10.00">Cmd_TLM_MGR_STOP_TLM</text>
</a>
</g>
</g>
<!-- Node25&#45;&gt;Node61 -->
<g id="edge52" class="edge">
<title>Node25&#45;&gt;Node61</title>
<path fill="none" stroke="midnightblue" d="M970.7,-408.68C950.6,-400.75 924.09,-390.92 900,-384 887.59,-380.44 874.05,-377.24 861.3,-374.54"/>
<polygon fill="midnightblue" stroke="midnightblue" points="969.42,-411.94 980.01,-412.4 972.02,-405.44 969.42,-411.94"/>
</g>
<!-- Node62 -->
<g id="node39" class="node">
<title>Node62</title>
<g id="a_node39"><a xlink:href="telemetry__manager_8c.html#a2cf8d6a2174e6649a0f079f3a292fcd4" target="_top" xlink:title="TLM_MGR_RegisterInfo に テレメ生成コマンドを登録する">
<polygon fill="white" stroke="black" points="716,-524.5 716,-543.5 900,-543.5 900,-524.5 716,-524.5"/>
<text text-anchor="middle" x="808" y="-531.5" font-family="Helvetica,sans-Serif" font-size="10.00">TLM_MGR_register_generate_tlm_</text>
</a>
</g>
</g>
<!-- Node25&#45;&gt;Node62 -->
<g id="edge54" class="edge">
<title>Node25&#45;&gt;Node62</title>
<path fill="none" stroke="midnightblue" d="M977.75,-436.58C937.4,-459.87 859.47,-504.87 825.5,-524.48"/>
<polygon fill="midnightblue" stroke="midnightblue" points="979.55,-439.58 986.46,-431.55 976.05,-433.52 979.55,-439.58"/>
</g>
<!-- Node27 -->
<g id="node20" class="node">
<title>Node27</title>
<g id="a_node20"><a xlink:href="block__command__loader_8h.html#adc8e2381948a082e62d72d9971fc203f" target="_top" xlink:title="ブロックコマンドの最後にコマンドを追加する">
<polygon fill="white" stroke="black" points="318.5,-126.5 318.5,-145.5 446.5,-145.5 446.5,-126.5 318.5,-126.5"/>
<text text-anchor="middle" x="382.5" y="-133.5" font-family="Helvetica,sans-Serif" font-size="10.00">BCL_tool_register_cmd</text>
</a>
</g>
</g>
<!-- Node26&#45;&gt;Node27 -->
<g id="edge25" class="edge">
<title>Node26&#45;&gt;Node27</title>
<path fill="none" stroke="midnightblue" d="M565.85,-223.96C541.63,-204.94 498.57,-173.5 457,-155 448.57,-151.25 439.26,-148.13 430.17,-145.57"/>
<polygon fill="midnightblue" stroke="midnightblue" points="563.88,-226.87 573.88,-230.36 568.24,-221.39 563.88,-226.87"/>
</g>
<!-- Node44 -->
<g id="node27" class="node">
<title>Node44</title>
<g id="a_node27"><a xlink:href="block__command__loader_8h.html#a99596019ff3a563f43ebae43ce86a03a" target="_top" xlink:title="ブロックコマンドの最後にコンバイナーの実行コマンドを追加する">
<polygon fill="white" stroke="black" points="308,-252.5 308,-271.5 457,-271.5 457,-252.5 308,-252.5"/>
<text text-anchor="middle" x="382.5" y="-259.5" font-family="Helvetica,sans-Serif" font-size="10.00">BCL_tool_register_combine</text>
</a>
</g>
</g>
<!-- Node26&#45;&gt;Node44 -->
<g id="edge32" class="edge">
<title>Node26&#45;&gt;Node44</title>
<path fill="none" stroke="midnightblue" d="M521.25,-247C500.86,-249.22 478.15,-251.69 457.15,-253.98"/>
<polygon fill="midnightblue" stroke="midnightblue" points="521.81,-250.46 531.37,-245.9 521.05,-243.5 521.81,-250.46"/>
</g>
<!-- Node49 -->
<g id="node30" class="node">
<title>Node49</title>
<g id="a_node30"><a xlink:href="block__command__loader_8h.html#af4cd27ff6d5da716d1907556847d7326" target="_top" xlink:title="ブロックコマンドの最後にブロックコマンドの展開コマンドを追加する">
<polygon fill="white" stroke="black" points="312.5,-164.5 312.5,-183.5 452.5,-183.5 452.5,-164.5 312.5,-164.5"/>
<text text-anchor="middle" x="382.5" y="-171.5" font-family="Helvetica,sans-Serif" font-size="10.00">BCL_tool_register_deploy</text>
</a>
</g>
</g>
<!-- Node26&#45;&gt;Node49 -->
<g id="edge35" class="edge">
<title>Node26&#45;&gt;Node49</title>
<path fill="none" stroke="midnightblue" d="M551.93,-226.7C526.18,-216.75 489.64,-203.16 457,-193 446.18,-189.63 434.33,-186.38 423.37,-183.55"/>
<polygon fill="midnightblue" stroke="midnightblue" points="550.99,-230.09 561.58,-230.46 553.53,-223.57 550.99,-230.09"/>
</g>
<!-- Node50 -->
<g id="node31" class="node">
<title>Node50</title>
<g id="a_node31"><a xlink:href="block__command__loader_8h.html#a5b59475bbbf303eaca56af95565e6f69" target="_top" xlink:title="ブロックコマンドの最後にタイムリミットコンバイナーの実行コマンドを追加する">
<polygon fill="white" stroke="black" points="317.5,-203 317.5,-233 447.5,-233 447.5,-203 317.5,-203"/>
<text text-anchor="start" x="325.5" y="-221" font-family="Helvetica,sans-Serif" font-size="10.00">BCL_tool_register_limit</text>
<text text-anchor="middle" x="382.5" y="-210" font-family="Helvetica,sans-Serif" font-size="10.00">_combine</text>
</a>
</g>
</g>
<!-- Node26&#45;&gt;Node50 -->
<g id="edge39" class="edge">
<title>Node26&#45;&gt;Node50</title>
<path fill="none" stroke="midnightblue" d="M521.19,-233C497.75,-230.44 471.27,-227.56 447.84,-225.01"/>
<polygon fill="midnightblue" stroke="midnightblue" points="521.05,-236.5 531.37,-234.1 521.81,-229.54 521.05,-236.5"/>
</g>
<!-- Node51 -->
<g id="node32" class="node">
<title>Node51</title>
<g id="a_node32"><a xlink:href="block__command__loader_8h.html#a03346645bccaa62a79cee806dfb3609e" target="_top" xlink:title="ブロックコマンドの最後にローテーターの実行コマンドを追加する">
<polygon fill="white" stroke="black" points="314,-290.5 314,-309.5 451,-309.5 451,-290.5 314,-290.5"/>
<text text-anchor="middle" x="382.5" y="-297.5" font-family="Helvetica,sans-Serif" font-size="10.00">BCL_tool_register_rotate</text>
</a>
</g>
</g>
<!-- Node26&#45;&gt;Node51 -->
<g id="edge40" class="edge">
<title>Node26&#45;&gt;Node51</title>
<path fill="none" stroke="midnightblue" d="M547.41,-252.77C521.93,-261.16 487.59,-272.17 457,-281 445.73,-284.25 433.41,-287.54 422.14,-290.44"/>
<polygon fill="midnightblue" stroke="midnightblue" points="548.66,-256.04 557.06,-249.58 546.47,-249.4 548.66,-256.04"/>
</g>
<!-- Node28 -->
<g id="node21" class="node">
<title>Node28</title>
<g id="a_node21"><a xlink:href="nbc__respond__eh__for__test_8c.html#a3db48d680628bbf52f4cd1fc444b9c36" target="_top" xlink:title=" ">
<polygon fill="white" stroke="red" points="134,-77 134,-107 257,-107 257,-77 134,-77"/>
<text text-anchor="start" x="142" y="-95" font-family="Helvetica,sans-Serif" font-size="10.00">BCL_load_respond_eh</text>
<text text-anchor="middle" x="195.5" y="-84" font-family="Helvetica,sans-Serif" font-size="10.00">_for_test</text>
</a>
</g>
</g>
<!-- Node27&#45;&gt;Node28 -->
<g id="edge26" class="edge">
<title>Node27&#45;&gt;Node28</title>
<path fill="none" stroke="midnightblue" d="M331.52,-124.11C308.66,-118.68 281.37,-112.18 257.32,-106.47"/>
<polygon fill="midnightblue" stroke="midnightblue" points="330.82,-127.54 341.36,-126.45 332.44,-120.73 330.82,-127.54"/>
</g>
<!-- Node31 -->
<g id="node22" class="node">
<title>Node31</title>
<g id="a_node22"><a xlink:href="sl__nop_8h.html#a60219deef0bd8e3aecafc60386f68675" target="_top" xlink:title=" ">
<polygon fill="white" stroke="red" points="146.5,-38.5 146.5,-57.5 244.5,-57.5 244.5,-38.5 146.5,-38.5"/>
<text text-anchor="middle" x="195.5" y="-45.5" font-family="Helvetica,sans-Serif" font-size="10.00">BCL_load_sl_nop</text>
</a>
</g>
</g>
<!-- Node27&#45;&gt;Node31 -->
<g id="edge27" class="edge">
<title>Node27&#45;&gt;Node31</title>
<path fill="none" stroke="midnightblue" d="M360.85,-120.17C339.62,-104.6 305.08,-81.16 272,-67 263.18,-63.22 253.44,-60.08 243.98,-57.51"/>
<polygon fill="midnightblue" stroke="midnightblue" points="358.98,-123.14 369.09,-126.31 363.16,-117.53 358.98,-123.14"/>
</g>
<!-- Node32 -->
<g id="node23" class="node">
<title>Node32</title>
<g id="a_node23"><a xlink:href="sl__initial_8h.html#a69c9fa67c5ba13f8c12759f823b67d66" target="_top" xlink:title=" ">
<polygon fill="white" stroke="red" points="135.5,-203 135.5,-233 255.5,-233 255.5,-203 135.5,-203"/>
<text text-anchor="start" x="143.5" y="-221" font-family="Helvetica,sans-Serif" font-size="10.00">BCL_load_sl_start_up</text>
<text text-anchor="middle" x="195.5" y="-210" font-family="Helvetica,sans-Serif" font-size="10.00">_to_initial</text>
</a>
</g>
</g>
<!-- Node27&#45;&gt;Node32 -->
<g id="edge28" class="edge">
<title>Node27&#45;&gt;Node32</title>
<path fill="none" stroke="midnightblue" d="M319.74,-149.17C315.66,-150.88 311.7,-152.82 308,-155 287.96,-166.81 291.64,-180.52 272,-193 266.06,-196.78 259.48,-200.04 252.77,-202.85"/>
<polygon fill="midnightblue" stroke="midnightblue" points="321.28,-152.32 329.43,-145.55 318.83,-145.77 321.28,-152.32"/>
</g>
<!-- Node33 -->
<g id="node24" class="node">
<title>Node33</title>
<g id="a_node24"><a xlink:href="nbc__start__hk__tlm_8c.html#a56103faa9caea8b5ce4f318c4f5c8615" target="_top" xlink:title=" ">
<polygon fill="white" stroke="red" points="131.5,-164.5 131.5,-183.5 259.5,-183.5 259.5,-164.5 131.5,-164.5"/>
<text text-anchor="middle" x="195.5" y="-171.5" font-family="Helvetica,sans-Serif" font-size="10.00">BCL_load_start_hk_tlm</text>
</a>
</g>
</g>
<!-- Node27&#45;&gt;Node33 -->
<g id="edge29" class="edge">
<title>Node27&#45;&gt;Node33</title>
<path fill="none" stroke="midnightblue" d="M324.98,-147.61C298.67,-153.01 267.76,-159.36 242.85,-164.48"/>
<polygon fill="midnightblue" stroke="midnightblue" points="325.73,-151.03 334.82,-145.59 324.32,-144.17 325.73,-151.03"/>
</g>
<!-- Node34 -->
<g id="node25" class="node">
<title>Node34</title>
<g id="a_node25"><a xlink:href="nbc__test__bcl_8c.html#aacbd7fc1d4d5ab306e6dc7c0f3e22ece" target="_top" xlink:title=" ">
<polygon fill="white" stroke="red" points="143,-0.5 143,-19.5 248,-19.5 248,-0.5 143,-0.5"/>
<text text-anchor="middle" x="195.5" y="-7.5" font-family="Helvetica,sans-Serif" font-size="10.00">BCL_load_test_bcl</text>
</a>
</g>
</g>
<!-- Node27&#45;&gt;Node34 -->
<g id="edge30" class="edge">
<title>Node27&#45;&gt;Node34</title>
<path fill="none" stroke="midnightblue" d="M368.21,-118.06C349.46,-94.07 312.93,-51.9 272,-29 264.69,-24.91 256.49,-21.68 248.26,-19.15"/>
<polygon fill="midnightblue" stroke="midnightblue" points="365.64,-120.47 374.5,-126.29 371.21,-116.22 365.64,-120.47"/>
</g>
<!-- Node35 -->
<g id="node26" class="node">
<title>Node35</title>
<g id="a_node26"><a xlink:href="telemetry__manager_8c.html#abb254dddda35d23891f16afbfd91e039" target="_top" xlink:title="NOP で埋められた BCの構築">
<polygon fill="white" stroke="red" points="127,-126.5 127,-145.5 264,-145.5 264,-126.5 127,-126.5"/>
<text text-anchor="middle" x="195.5" y="-133.5" font-family="Helvetica,sans-Serif" font-size="10.00">TLM_MGR_load_nop_bc_</text>
</a>
</g>
</g>
<!-- Node27&#45;&gt;Node35 -->
<g id="edge31" class="edge">
<title>Node27&#45;&gt;Node35</title>
<path fill="none" stroke="midnightblue" d="M307.95,-136C293.48,-136 278.37,-136 264.11,-136"/>
<polygon fill="midnightblue" stroke="midnightblue" points="308.35,-139.5 318.35,-136 308.35,-132.5 308.35,-139.5"/>
</g>
<!-- Node45 -->
<g id="node28" class="node">
<title>Node45</title>
<g id="a_node28"><a xlink:href="tl__initial_8h.html#af6862d0b2e049d2909fe805ff11763a2" target="_top" xlink:title=" ">
<polygon fill="white" stroke="red" points="142,-290.5 142,-309.5 249,-309.5 249,-290.5 142,-290.5"/>
<text text-anchor="middle" x="195.5" y="-297.5" font-family="Helvetica,sans-Serif" font-size="10.00">BCL_load_tl_initial</text>
</a>
</g>
</g>
<!-- Node44&#45;&gt;Node45 -->
<g id="edge33" class="edge">
<title>Node44&#45;&gt;Node45</title>
<path fill="none" stroke="midnightblue" d="M324.98,-273.61C298.67,-279.01 267.76,-285.36 242.85,-290.48"/>
<polygon fill="midnightblue" stroke="midnightblue" points="325.73,-277.03 334.82,-271.59 324.32,-270.17 325.73,-277.03"/>
</g>
<!-- Node46 -->
<g id="node29" class="node">
<title>Node46</title>
<g id="a_node29"><a xlink:href="telemetry__manager_8c.html#ac73e2b57fc1dc9c21cacd12f0772a84d" target="_top" xlink:title="BC全体を展開していくmaster BCの構築">
<polygon fill="white" stroke="red" points="119,-252.5 119,-271.5 272,-271.5 272,-252.5 119,-252.5"/>
<text text-anchor="middle" x="195.5" y="-259.5" font-family="Helvetica,sans-Serif" font-size="10.00">TLM_MGR_load_master_bc_</text>
</a>
</g>
</g>
<!-- Node44&#45;&gt;Node46 -->
<g id="edge34" class="edge">
<title>Node44&#45;&gt;Node46</title>
<path fill="none" stroke="midnightblue" d="M297.82,-262C289.22,-262 280.52,-262 272.01,-262"/>
<polygon fill="midnightblue" stroke="midnightblue" points="297.85,-265.5 307.85,-262 297.85,-258.5 297.85,-265.5"/>
</g>
<!-- Node49&#45;&gt;Node32 -->
<g id="edge36" class="edge">
<title>Node49&#45;&gt;Node32</title>
<path fill="none" stroke="midnightblue" d="M331.62,-185.86C308.17,-191.44 280.04,-198.13 255.54,-203.96"/>
<polygon fill="midnightblue" stroke="midnightblue" points="332.44,-189.27 341.36,-183.55 330.82,-182.46 332.44,-189.27"/>
</g>
<!-- Node49&#45;&gt;Node33 -->
<g id="edge37" class="edge">
<title>Node49&#45;&gt;Node33</title>
<path fill="none" stroke="midnightblue" d="M302.13,-174C287.98,-174 273.4,-174 259.77,-174"/>
<polygon fill="midnightblue" stroke="midnightblue" points="302.35,-177.5 312.35,-174 302.35,-170.5 302.35,-177.5"/>
</g>
<!-- Node49&#45;&gt;Node46 -->
<g id="edge38" class="edge">
<title>Node49&#45;&gt;Node46</title>
<path fill="none" stroke="midnightblue" d="M317.77,-187.42C314.36,-189.07 311.07,-190.92 308,-193 285.62,-208.15 294.33,-226.78 272,-242 265.61,-246.35 258.33,-249.76 250.86,-252.42"/>
<polygon fill="midnightblue" stroke="midnightblue" points="319.2,-190.61 327.06,-183.51 316.48,-184.16 319.2,-190.61"/>
</g>
<!-- Node51&#45;&gt;Node45 -->
<g id="edge41" class="edge">
<title>Node51&#45;&gt;Node45</title>
<path fill="none" stroke="midnightblue" d="M303.79,-300C285.36,-300 266.13,-300 249.12,-300"/>
<polygon fill="midnightblue" stroke="midnightblue" points="303.93,-303.5 313.93,-300 303.93,-296.5 303.93,-303.5"/>
</g>
<!-- Node51&#45;&gt;Node46 -->
<g id="edge42" class="edge">
<title>Node51&#45;&gt;Node46</title>
<path fill="none" stroke="midnightblue" d="M324.98,-288.39C298.67,-282.99 267.76,-276.64 242.85,-271.52"/>
<polygon fill="midnightblue" stroke="midnightblue" points="324.32,-291.83 334.82,-290.41 325.73,-284.97 324.32,-291.83"/>
</g>
<!-- Node53 -->
<g id="node34" class="node">
<title>Node53</title>
<g id="a_node34"><a xlink:href="block__command__loader_8c.html#a8b8df5aca929f5b6307b9695bb2a5b54" target="_top" xlink:title=" ">
<polygon fill="white" stroke="black" points="533,-317.5 533,-336.5 640,-336.5 640,-317.5 533,-317.5"/>
<text text-anchor="middle" x="586.5" y="-324.5" font-family="Helvetica,sans-Serif" font-size="10.00">BCL_register_app_</text>
</a>
</g>
</g>
<!-- Node52&#45;&gt;Node53 -->
<g id="edge44" class="edge">
<title>Node52&#45;&gt;Node53</title>
<path fill="none" stroke="midnightblue" d="M740.54,-327C708.38,-327 670.32,-327 640.2,-327"/>
<polygon fill="midnightblue" stroke="midnightblue" points="740.76,-330.5 750.76,-327 740.76,-323.5 740.76,-330.5"/>
</g>
<!-- Node54 -->
<g id="node35" class="node">
<title>Node54</title>
<g id="a_node35"><a xlink:href="block__command__loader_8h.html#a79f8c8fdf61bea28c3e44ddfe447c46d" target="_top" xlink:title="ブロックコマンドの最後にアプリの実行コマンドを追加する">
<polygon fill="white" stroke="red" points="320,-328.5 320,-347.5 445,-347.5 445,-328.5 320,-328.5"/>
<text text-anchor="middle" x="382.5" y="-335.5" font-family="Helvetica,sans-Serif" font-size="10.00">BCL_tool_register_app</text>
</a>
</g>
</g>
<!-- Node53&#45;&gt;Node54 -->
<g id="edge45" class="edge">
<title>Node53&#45;&gt;Node54</title>
<path fill="none" stroke="midnightblue" d="M522.94,-330.41C498.17,-331.76 469.78,-333.3 445.1,-334.65"/>
<polygon fill="midnightblue" stroke="midnightblue" points="523.16,-333.9 532.95,-329.86 522.78,-326.91 523.16,-333.9"/>
</g>
<!-- Node54&#45;&gt;Node45 -->
<g id="edge46" class="edge">
<title>Node54&#45;&gt;Node45</title>
<path fill="none" stroke="midnightblue" d="M324.98,-326.39C298.67,-320.99 267.76,-314.64 242.85,-309.52"/>
<polygon fill="midnightblue" stroke="midnightblue" points="324.32,-329.83 334.82,-328.41 325.73,-322.97 324.32,-329.83"/>
</g>
<!-- Node59&#45;&gt;Node4 -->
<g id="edge48" class="edge">
<title>Node59&#45;&gt;Node4</title>
<path fill="none" stroke="midnightblue" d="M740.15,-430.84C673.93,-423.95 571.35,-421.97 493,-460 440.27,-485.59 401.78,-549.07 388.53,-573.35"/>
<polygon fill="midnightblue" stroke="midnightblue" points="740.13,-434.36 750.46,-431.99 740.91,-427.41 740.13,-434.36"/>
</g>
<!-- Node60&#45;&gt;Node4 -->
<g id="edge50" class="edge">
<title>Node60&#45;&gt;Node4</title>
<path fill="none" stroke="midnightblue" d="M747.06,-392.05C680.42,-383.07 571.81,-378.18 493,-423 431.26,-458.11 396.91,-544.04 386.74,-573.16"/>
<polygon fill="midnightblue" stroke="midnightblue" points="746.59,-395.52 756.98,-393.46 747.57,-388.59 746.59,-395.52"/>
</g>
<!-- Node61&#45;&gt;Node4 -->
<g id="edge53" class="edge">
<title>Node61&#45;&gt;Node4</title>
<path fill="none" stroke="midnightblue" d="M723.09,-360.85C643.23,-358.47 529.91,-359.68 493,-383 420.72,-428.68 392.46,-539.66 385.39,-573.22"/>
<polygon fill="midnightblue" stroke="midnightblue" points="723.04,-364.35 733.15,-361.17 723.27,-357.35 723.04,-364.35"/>
</g>
<!-- Node63 -->
<g id="node40" class="node">
<title>Node63</title>
<g id="a_node40"><a xlink:href="telemetry__manager_8h.html#aa25105738fa6140b99a82d5d28b3b89f" target="_top" xlink:title="high_freq_tlm を登録">
<polygon fill="white" stroke="black" points="513.5,-568 513.5,-598 659.5,-598 659.5,-568 513.5,-568"/>
<text text-anchor="start" x="521.5" y="-586" font-family="Helvetica,sans-Serif" font-size="10.00">Cmd_TLM_MGR_REGISTER</text>
<text text-anchor="middle" x="586.5" y="-575" font-family="Helvetica,sans-Serif" font-size="10.00">_HIGH_FREQ_TLM</text>
</a>
</g>
</g>
<!-- Node62&#45;&gt;Node63 -->
<g id="edge55" class="edge">
<title>Node62&#45;&gt;Node63</title>
<path fill="none" stroke="midnightblue" d="M754.62,-545.69C724.78,-552.36 687.06,-560.77 655.01,-567.93"/>
<polygon fill="midnightblue" stroke="midnightblue" points="755.42,-549.1 764.42,-543.51 753.9,-542.27 755.42,-549.1"/>
</g>
<!-- Node64 -->
<g id="node41" class="node">
<title>Node64</title>
<g id="a_node41"><a xlink:href="telemetry__manager_8h.html#a47e992abafa10e575d0e5cf22875ed81" target="_top" xlink:title="HKテレメを登録">
<polygon fill="white" stroke="black" points="513.5,-519 513.5,-549 659.5,-549 659.5,-519 513.5,-519"/>
<text text-anchor="start" x="521.5" y="-537" font-family="Helvetica,sans-Serif" font-size="10.00">Cmd_TLM_MGR_REGISTER</text>
<text text-anchor="middle" x="586.5" y="-526" font-family="Helvetica,sans-Serif" font-size="10.00">_HK_TLM</text>
</a>
</g>
</g>
<!-- Node62&#45;&gt;Node64 -->
<g id="edge57" class="edge">
<title>Node62&#45;&gt;Node64</title>
<path fill="none" stroke="midnightblue" d="M705.66,-534C690.14,-534 674.39,-534 659.67,-534"/>
<polygon fill="midnightblue" stroke="midnightblue" points="705.82,-537.5 715.82,-534 705.82,-530.5 705.82,-537.5"/>
</g>
<!-- Node65 -->
<g id="node42" class="node">
<title>Node65</title>
<g id="a_node42"><a xlink:href="telemetry__manager_8h.html#ad8765254cce8d4a2361b16becb1d3d4f" target="_top" xlink:title="low_freq_tlm を登録">
<polygon fill="white" stroke="black" points="513.5,-470 513.5,-500 659.5,-500 659.5,-470 513.5,-470"/>
<text text-anchor="start" x="521.5" y="-488" font-family="Helvetica,sans-Serif" font-size="10.00">Cmd_TLM_MGR_REGISTER</text>
<text text-anchor="middle" x="586.5" y="-477" font-family="Helvetica,sans-Serif" font-size="10.00">_LOW_FREQ_TLM</text>
</a>
</g>
</g>
<!-- Node62&#45;&gt;Node65 -->
<g id="edge59" class="edge">
<title>Node62&#45;&gt;Node65</title>
<path fill="none" stroke="midnightblue" d="M754.62,-522.31C724.78,-515.64 687.06,-507.23 655.01,-500.07"/>
<polygon fill="midnightblue" stroke="midnightblue" points="753.9,-525.73 764.42,-524.49 755.42,-518.9 753.9,-525.73"/>
</g>
<!-- Node66 -->
<g id="node43" class="node">
<title>Node66</title>
<g id="a_node43"><a xlink:href="telemetry__manager_8h.html#a4b2fba4c5b62a78b2e44717fe4296f7e" target="_top" xlink:title="systemテレメを登録">
<polygon fill="white" stroke="black" points="513.5,-617 513.5,-647 659.5,-647 659.5,-617 513.5,-617"/>
<text text-anchor="start" x="521.5" y="-635" font-family="Helvetica,sans-Serif" font-size="10.00">Cmd_TLM_MGR_REGISTER</text>
<text text-anchor="middle" x="586.5" y="-624" font-family="Helvetica,sans-Serif" font-size="10.00">_SYSTEM_TLM</text>
</a>
</g>
</g>
<!-- Node62&#45;&gt;Node66 -->
<g id="edge61" class="edge">
<title>Node62&#45;&gt;Node66</title>
<path fill="none" stroke="midnightblue" d="M784.53,-549.31C759.84,-565.55 718.54,-591.03 680,-607 671.09,-610.69 661.46,-614 651.91,-616.9"/>
<polygon fill="midnightblue" stroke="midnightblue" points="786.76,-552.03 793.14,-543.57 782.88,-546.2 786.76,-552.03"/>
</g>
<!-- Node63&#45;&gt;Node4 -->
<g id="edge56" class="edge">
<title>Node63&#45;&gt;Node4</title>
<path fill="none" stroke="midnightblue" d="M503.27,-583C481.66,-583 458.86,-583 439.03,-583"/>
<polygon fill="midnightblue" stroke="midnightblue" points="503.43,-586.5 513.43,-583 503.43,-579.5 503.43,-586.5"/>
</g>
<!-- Node64&#45;&gt;Node4 -->
<g id="edge58" class="edge">
<title>Node64&#45;&gt;Node4</title>
<path fill="none" stroke="midnightblue" d="M513.74,-551.41C483.12,-558.83 448.59,-567.21 422.78,-573.47"/>
<polygon fill="midnightblue" stroke="midnightblue" points="514.63,-554.79 523.52,-549.03 512.98,-547.99 514.63,-554.79"/>
</g>
<!-- Node65&#45;&gt;Node4 -->
<g id="edge60" class="edge">
<title>Node65&#45;&gt;Node4</title>
<path fill="none" stroke="midnightblue" d="M506.68,-503.46C501.99,-505.17 497.4,-507.01 493,-509 454.1,-526.56 413.92,-557.67 394.86,-573.37"/>
<polygon fill="midnightblue" stroke="midnightblue" points="508.07,-506.68 516.4,-500.14 505.81,-500.06 508.07,-506.68"/>
</g>
<!-- Node66&#45;&gt;Node4 -->
<g id="edge62" class="edge">
<title>Node66&#45;&gt;Node4</title>
<path fill="none" stroke="midnightblue" d="M513.74,-614.59C483.12,-607.17 448.59,-598.79 422.78,-592.53"/>
<polygon fill="midnightblue" stroke="midnightblue" points="512.98,-618.01 523.52,-616.97 514.63,-611.21 512.98,-618.01"/>
</g>
<!-- Node67&#45;&gt;Node4 -->
<g id="edge64" class="edge">
<title>Node67&#45;&gt;Node4</title>
<path fill="none" stroke="midnightblue" d="M1152.75,-364.39C1096.76,-347.57 991.87,-318.67 900,-308 810.16,-297.56 567.85,-257.24 493,-308 445.15,-340.45 396.83,-528.29 385.82,-573.31"/>
<polygon fill="midnightblue" stroke="midnightblue" points="1152.04,-367.83 1162.62,-367.38 1154.07,-361.13 1152.04,-367.83"/>
</g>
<!-- Node40 -->
<g id="node46" class="node">
<title>Node40</title>
<g id="a_node46"><a xlink:href="telemetry__manager_8h.html#af76453743bae7b361005376190100cbf" target="_top" xlink:title="high_freq_tlm, low_freq_tlm を初期化">
<polygon fill="white" stroke="black" points="493,-704.5 493,-723.5 680,-723.5 680,-704.5 493,-704.5"/>
<text text-anchor="middle" x="586.5" y="-711.5" font-family="Helvetica,sans-Serif" font-size="10.00">Cmd_TLM_MGR_CLEAR_USER_TLM</text>
</a>
</g>
</g>
<!-- Node68&#45;&gt;Node40 -->
<g id="edge66" class="edge">
<title>Node68&#45;&gt;Node40</title>
<path fill="none" stroke="midnightblue" d="M743.77,-714C724.01,-714 701.78,-714 680.42,-714"/>
<polygon fill="midnightblue" stroke="midnightblue" points="743.87,-717.5 753.87,-714 743.87,-710.5 743.87,-717.5"/>
</g>
<!-- Node43 -->
<g id="node47" class="node">
<title>Node43</title>
<g id="a_node47"><a xlink:href="telemetry__manager_8h.html#a19d6e76042721fe9e576dbacaf49b365" target="_top" xlink:title="初期化">
<polygon fill="white" stroke="black" points="527.5,-742.5 527.5,-761.5 645.5,-761.5 645.5,-742.5 527.5,-742.5"/>
<text text-anchor="middle" x="586.5" y="-749.5" font-family="Helvetica,sans-Serif" font-size="10.00">Cmd_TLM_MGR_INIT</text>
</a>
</g>
</g>
<!-- Node68&#45;&gt;Node43 -->
<g id="edge68" class="edge">
<title>Node68&#45;&gt;Node43</title>
<path fill="none" stroke="midnightblue" d="M743.71,-724.96C711.69,-730.5 673.2,-737.16 642.44,-742.49"/>
<polygon fill="midnightblue" stroke="midnightblue" points="744.61,-728.35 753.87,-723.2 743.41,-721.46 744.61,-728.35"/>
</g>
<!-- Node40&#45;&gt;Node4 -->
<g id="edge67" class="edge">
<title>Node40&#45;&gt;Node4</title>
<path fill="none" stroke="midnightblue" d="M519.72,-701.49C510.44,-698.44 501.26,-694.66 493,-690 446.94,-664 406.32,-613.77 390.52,-592.68"/>
<polygon fill="midnightblue" stroke="midnightblue" points="518.8,-704.87 529.39,-704.42 520.83,-698.17 518.8,-704.87"/>
</g>
<!-- Node43&#45;&gt;Node4 -->
<g id="edge69" class="edge">
<title>Node43&#45;&gt;Node4</title>
<path fill="none" stroke="midnightblue" d="M517.41,-744.09C508.79,-741.37 500.41,-737.77 493,-733 436.32,-696.56 399.2,-619.64 387.49,-592.63"/>
<polygon fill="midnightblue" stroke="midnightblue" points="516.62,-747.5 527.19,-746.79 518.49,-740.75 516.62,-747.5"/>
</g>
</g>
</svg>
