<?xml version="1.0" encoding="UTF-8" standalone="no"?>
<!DOCTYPE svg PUBLIC "-//W3C//DTD SVG 1.1//EN"
 "http://www.w3.org/Graphics/SVG/1.1/DTD/svg11.dtd">
<!-- Generated by graphviz version 2.43.0 (0)
 -->
<!-- Title: src/src_user/Settings/TlmCmd/common_cmd_packet_define.c Pages: 1 -->
<svg width="294pt" height="318pt"
 viewBox="0.00 0.00 293.50 318.00" xmlns="http://www.w3.org/2000/svg" xmlns:xlink="http://www.w3.org/1999/xlink">
<g id="graph0" class="graph" transform="scale(1 1) rotate(0) translate(4 314)">
<title>src/src_user/Settings/TlmCmd/common_cmd_packet_define.c</title>
<polygon fill="white" stroke="transparent" points="-4,4 -4,-314 289.5,-314 289.5,4 -4,4"/>
<!-- Node1 -->
<g id="node1" class="node">
<title>Node1</title>
<g id="a_node1"><a xlink:title="CCP 型の定義">
<polygon fill="#bfbfbf" stroke="black" points="47.5,-268.5 47.5,-309.5 217.5,-309.5 217.5,-268.5 47.5,-268.5"/>
<text text-anchor="start" x="55.5" y="-297.5" font-family="Helvetica,sans-Serif" font-size="10.00">src/src_user/Settings</text>
<text text-anchor="start" x="55.5" y="-286.5" font-family="Helvetica,sans-Serif" font-size="10.00">/TlmCmd/common_cmd_packet</text>
<text text-anchor="middle" x="132.5" y="-275.5" font-family="Helvetica,sans-Serif" font-size="10.00">_define.c</text>
</a>
</g>
</g>
<!-- Node2 -->
<g id="node2" class="node">
<title>Node2</title>
<g id="a_node2"><a xlink:href="common__cmd__packet__define_8h.html" target="_top" xlink:title="CCP 型の定義">
<polygon fill="white" stroke="black" points="49,-212.5 49,-231.5 216,-231.5 216,-212.5 49,-212.5"/>
<text text-anchor="middle" x="132.5" y="-219.5" font-family="Helvetica,sans-Serif" font-size="10.00">common_cmd_packet_define.h</text>
</a>
</g>
</g>
<!-- Node1&#45;&gt;Node2 -->
<g id="edge1" class="edge">
<title>Node1&#45;&gt;Node2</title>
<path fill="none" stroke="midnightblue" d="M132.5,-268.5C132.5,-260.07 132.5,-250.24 132.5,-241.87"/>
<polygon fill="midnightblue" stroke="midnightblue" points="136,-241.65 132.5,-231.65 129,-241.65 136,-241.65"/>
</g>
<!-- Node3 -->
<g id="node3" class="node">
<title>Node3</title>
<g id="a_node3"><a xlink:href="space__packet__typedef_8h.html" target="_top" xlink:title="SpacePacket 類 と CommonTlmCmdPacket 類が相互参照するのを回避するためのヘッダ">
<polygon fill="white" stroke="black" points="137,-145.5 137,-175.5 274,-175.5 274,-145.5 137,-145.5"/>
<text text-anchor="start" x="145" y="-163.5" font-family="Helvetica,sans-Serif" font-size="10.00">src_core/TlmCmd/Ccsds</text>
<text text-anchor="middle" x="205.5" y="-152.5" font-family="Helvetica,sans-Serif" font-size="10.00">/space_packet_typedef.h</text>
</a>
</g>
</g>
<!-- Node2&#45;&gt;Node3 -->
<g id="edge2" class="edge">
<title>Node2&#45;&gt;Node3</title>
<path fill="none" stroke="midnightblue" d="M142.96,-212.48C152.66,-204.57 167.49,-192.48 180.27,-182.07"/>
<polygon fill="midnightblue" stroke="midnightblue" points="182.76,-184.55 188.3,-175.52 178.33,-179.13 182.76,-184.55"/>
</g>
<!-- Node7 -->
<g id="node7" class="node">
<title>Node7</title>
<g id="a_node7"><a xlink:href="apid__define_8h.html" target="_top" xlink:title="CCSDS の APID を定義する">
<polygon fill="white" stroke="black" points="0,-151 0,-170 119,-170 119,-151 0,-151"/>
<text text-anchor="middle" x="59.5" y="-158" font-family="Helvetica,sans-Serif" font-size="10.00">./Ccsds/apid_define.h</text>
</a>
</g>
</g>
<!-- Node2&#45;&gt;Node7 -->
<g id="edge6" class="edge">
<title>Node2&#45;&gt;Node7</title>
<path fill="none" stroke="midnightblue" d="M122.04,-212.48C110.55,-203.11 91.87,-187.88 77.91,-176.51"/>
<polygon fill="midnightblue" stroke="midnightblue" points="79.9,-173.61 69.94,-170.01 75.48,-179.04 79.9,-173.61"/>
</g>
<!-- Node4 -->
<g id="node4" class="node">
<title>Node4</title>
<g id="a_node4"><a xlink:href="stdint_8h.html" target="_top" xlink:title="C89 環境用 stdint.h">
<polygon fill="white" stroke="black" points="44,-78.5 44,-97.5 97,-97.5 97,-78.5 44,-78.5"/>
<text text-anchor="middle" x="70.5" y="-85.5" font-family="Helvetica,sans-Serif" font-size="10.00">stdint.h</text>
</a>
</g>
</g>
<!-- Node3&#45;&gt;Node4 -->
<g id="edge3" class="edge">
<title>Node3&#45;&gt;Node4</title>
<path fill="none" stroke="midnightblue" d="M178.51,-145.4C154.43,-132.83 119.44,-114.56 95.87,-102.25"/>
<polygon fill="midnightblue" stroke="midnightblue" points="97.33,-99.06 86.84,-97.53 94.08,-105.27 97.33,-99.06"/>
</g>
<!-- Node6 -->
<g id="node6" class="node">
<title>Node6</title>
<g id="a_node6"><a xlink:href="space__packet__typedef__params_8h.html" target="_top" xlink:title="SpacePacketの パケット型に関するユーザー設定">
<polygon fill="white" stroke="black" points="125.5,-67.5 125.5,-108.5 285.5,-108.5 285.5,-67.5 125.5,-67.5"/>
<text text-anchor="start" x="133.5" y="-96.5" font-family="Helvetica,sans-Serif" font-size="10.00">src_user/Settings/TlmCmd</text>
<text text-anchor="start" x="133.5" y="-85.5" font-family="Helvetica,sans-Serif" font-size="10.00">/Ccsds/space_packet_typedef</text>
<text text-anchor="middle" x="205.5" y="-74.5" font-family="Helvetica,sans-Serif" font-size="10.00">_params.h</text>
</a>
</g>
</g>
<!-- Node3&#45;&gt;Node6 -->
<g id="edge5" class="edge">
<title>Node3&#45;&gt;Node6</title>
<path fill="none" stroke="midnightblue" d="M205.5,-145.23C205.5,-137.57 205.5,-127.84 205.5,-118.63"/>
<polygon fill="midnightblue" stroke="midnightblue" points="209,-118.59 205.5,-108.59 202,-118.59 209,-118.59"/>
</g>
<!-- Node5 -->
<g id="node5" class="node">
<title>Node5</title>
<g id="a_node5"><a xlink:title=" ">
<polygon fill="white" stroke="#bfbfbf" points="8,-0.5 8,-30.5 133,-30.5 133,-0.5 8,-0.5"/>
<text text-anchor="start" x="16" y="-18.5" font-family="Helvetica,sans-Serif" font-size="10.00">src_user/Library/stdint</text>
<text text-anchor="middle" x="70.5" y="-7.5" font-family="Helvetica,sans-Serif" font-size="10.00">_impl.h</text>
</a>
</g>
</g>
<!-- Node4&#45;&gt;Node5 -->
<g id="edge4" class="edge">
<title>Node4&#45;&gt;Node5</title>
<path fill="none" stroke="midnightblue" d="M70.5,-78.36C70.5,-69.05 70.5,-53.83 70.5,-40.81"/>
<polygon fill="midnightblue" stroke="midnightblue" points="74,-40.58 70.5,-30.58 67,-40.58 74,-40.58"/>
</g>
<!-- Node7&#45;&gt;Node4 -->
<g id="edge7" class="edge">
<title>Node7&#45;&gt;Node4</title>
<path fill="none" stroke="midnightblue" d="M60.85,-150.86C62.51,-140.18 65.4,-121.72 67.58,-107.73"/>
<polygon fill="midnightblue" stroke="midnightblue" points="71.06,-108.14 69.14,-97.72 64.14,-107.06 71.06,-108.14"/>
</g>
</g>
</svg>
