<?xml version="1.0" encoding="UTF-8" standalone="no"?>
<!DOCTYPE svg PUBLIC "-//W3C//DTD SVG 1.1//EN"
 "http://www.w3.org/Graphics/SVG/1.1/DTD/svg11.dtd">
<!-- Generated by graphviz version 2.43.0 (0)
 -->
<!-- Title: CDIS_dispatch_command Pages: 1 -->
<svg width="1208pt" height="332pt"
 viewBox="0.00 0.00 1208.00 332.00" xmlns="http://www.w3.org/2000/svg" xmlns:xlink="http://www.w3.org/1999/xlink">
<g id="graph0" class="graph" transform="scale(1 1) rotate(0) translate(4 328)">
<title>CDIS_dispatch_command</title>
<polygon fill="white" stroke="transparent" points="-4,4 -4,-328 1204,-328 1204,4 -4,4"/>
<!-- Node1 -->
<g id="node1" class="node">
<title>Node1</title>
<g id="a_node1"><a xlink:title=" ">
<polygon fill="#bfbfbf" stroke="black" points="0,-95.5 0,-114.5 140,-114.5 140,-95.5 0,-95.5"/>
<text text-anchor="middle" x="70" y="-102.5" font-family="Helvetica,sans-Serif" font-size="10.00">CDIS_dispatch_command</text>
</a>
</g>
</g>
<!-- Node2 -->
<g id="node2" class="node">
<title>Node2</title>
<g id="a_node2"><a xlink:href="common__tlm__cmd__packet_8h.html#aada6263b578341e6ef88174fbdfc5dd7" target="_top" xlink:title="CMD ID を取得">
<polygon fill="white" stroke="black" points="539.5,-247.5 539.5,-266.5 610.5,-266.5 610.5,-247.5 539.5,-247.5"/>
<text text-anchor="middle" x="575" y="-254.5" font-family="Helvetica,sans-Serif" font-size="10.00">CCP_get_id</text>
</a>
</g>
</g>
<!-- Node1&#45;&gt;Node2 -->
<g id="edge1" class="edge">
<title>Node1&#45;&gt;Node2</title>
<path fill="none" stroke="midnightblue" d="M81.9,-114.67C100.19,-130.46 138.73,-161.95 176,-181 248.09,-217.84 269.68,-221.82 349,-238 410.65,-250.58 483.43,-254.85 529.16,-256.29"/>
<polygon fill="midnightblue" stroke="midnightblue" points="529.24,-259.8 539.34,-256.58 529.44,-252.8 529.24,-259.8"/>
</g>
<!-- Node4 -->
<g id="node4" class="node">
<title>Node4</title>
<g id="a_node4"><a xlink:href="packet__handler_8c.html#ac0da2642bb88c1a3073922569184413d" target="_top" xlink:title=" ">
<polygon fill="white" stroke="black" points="179,-152.5 179,-171.5 310,-171.5 310,-152.5 179,-152.5"/>
<text text-anchor="middle" x="244.5" y="-159.5" font-family="Helvetica,sans-Serif" font-size="10.00">PH_dispatch_command</text>
</a>
</g>
</g>
<!-- Node1&#45;&gt;Node4 -->
<g id="edge3" class="edge">
<title>Node1&#45;&gt;Node4</title>
<path fill="none" stroke="midnightblue" d="M95.86,-114.58C117.02,-122.59 148.31,-134.11 176,-143 183.01,-145.25 190.48,-147.5 197.8,-149.62"/>
<polygon fill="midnightblue" stroke="midnightblue" points="197.05,-153.05 207.62,-152.42 198.97,-146.32 197.05,-153.05"/>
</g>
<!-- Node20 -->
<g id="node20" class="node">
<title>Node20</title>
<g id="a_node20"><a xlink:href="packet__list_8c.html#afdd75e39baffa930cee6287e9821030b" target="_top" xlink:title="先頭ノードを落とす">
<polygon fill="white" stroke="black" points="192.5,-114.5 192.5,-133.5 296.5,-133.5 296.5,-114.5 192.5,-114.5"/>
<text text-anchor="middle" x="244.5" y="-121.5" font-family="Helvetica,sans-Serif" font-size="10.00">PL_drop_executed</text>
</a>
</g>
</g>
<!-- Node1&#45;&gt;Node20 -->
<g id="edge23" class="edge">
<title>Node1&#45;&gt;Node20</title>
<path fill="none" stroke="midnightblue" d="M140.17,-112.62C154.06,-114.15 168.57,-115.75 182.17,-117.25"/>
<polygon fill="midnightblue" stroke="midnightblue" points="182.05,-120.75 192.38,-118.37 182.82,-113.79 182.05,-120.75"/>
</g>
<!-- Node22 -->
<g id="node22" class="node">
<title>Node22</title>
<g id="a_node22"><a xlink:href="packet__list_8c.html#a2b6b5b3ed753070e0ef0b14556311263" target="_top" xlink:title="PacketList の active 先頭ノードを取得">
<polygon fill="white" stroke="black" points="205.5,-76.5 205.5,-95.5 283.5,-95.5 283.5,-76.5 205.5,-76.5"/>
<text text-anchor="middle" x="244.5" y="-83.5" font-family="Helvetica,sans-Serif" font-size="10.00">PL_get_head</text>
</a>
</g>
</g>
<!-- Node1&#45;&gt;Node22 -->
<g id="edge25" class="edge">
<title>Node1&#45;&gt;Node22</title>
<path fill="none" stroke="midnightblue" d="M140.17,-97.38C158.49,-95.36 177.88,-93.23 194.85,-91.36"/>
<polygon fill="midnightblue" stroke="midnightblue" points="195.52,-94.81 205.08,-90.23 194.75,-87.85 195.52,-94.81"/>
</g>
<!-- Node23 -->
<g id="node23" class="node">
<title>Node23</title>
<g id="a_node23"><a xlink:href="packet__list_8c.html#a4caae06aa17abcc1d983f5e43f7b00ac" target="_top" xlink:title="PacketList が空かどうか">
<polygon fill="white" stroke="black" points="205.5,-38.5 205.5,-57.5 283.5,-57.5 283.5,-38.5 205.5,-38.5"/>
<text text-anchor="middle" x="244.5" y="-45.5" font-family="Helvetica,sans-Serif" font-size="10.00">PL_is_empty</text>
</a>
</g>
</g>
<!-- Node1&#45;&gt;Node23 -->
<g id="edge26" class="edge">
<title>Node1&#45;&gt;Node23</title>
<path fill="none" stroke="midnightblue" d="M95.86,-95.42C117.02,-87.41 148.31,-75.89 176,-67 183.01,-64.75 190.48,-62.5 197.8,-60.38"/>
<polygon fill="midnightblue" stroke="midnightblue" points="198.97,-63.68 207.62,-57.58 197.05,-56.95 198.97,-63.68"/>
</g>
<!-- Node24 -->
<g id="node24" class="node">
<title>Node24</title>
<g id="a_node24"><a xlink:href="time__manager_8c.html#a9d04b4d9b622cbe5a90cf65e58b828bc" target="_top" xlink:title=" ">
<polygon fill="white" stroke="black" points="176,-0.5 176,-19.5 313,-19.5 313,-0.5 176,-0.5"/>
<text text-anchor="middle" x="244.5" y="-7.5" font-family="Helvetica,sans-Serif" font-size="10.00">TMGR_get_master_clock</text>
</a>
</g>
</g>
<!-- Node1&#45;&gt;Node24 -->
<g id="edge27" class="edge">
<title>Node1&#45;&gt;Node24</title>
<path fill="none" stroke="midnightblue" d="M81.52,-95.41C99.55,-79.43 138.12,-47.32 176,-29 180.86,-26.65 186.07,-24.54 191.35,-22.66"/>
<polygon fill="midnightblue" stroke="midnightblue" points="192.48,-25.98 200.89,-19.53 190.29,-19.33 192.48,-25.98"/>
</g>
<!-- Node3 -->
<g id="node3" class="node">
<title>Node3</title>
<g id="a_node3"><a xlink:href="_t_c_packet_8c.html#a39f967d198c8041c0e07b8b356b23f83" target="_top" xlink:title="channel ID を取得">
<polygon fill="white" stroke="black" points="692,-304.5 692,-323.5 834,-323.5 834,-304.5 692,-304.5"/>
<text text-anchor="middle" x="763" y="-311.5" font-family="Helvetica,sans-Serif" font-size="10.00">TCP_CMD_get_channel_id</text>
</a>
</g>
</g>
<!-- Node2&#45;&gt;Node3 -->
<g id="edge2" class="edge">
<title>Node2&#45;&gt;Node3</title>
<path fill="none" stroke="midnightblue" d="M601.08,-266.62C622.82,-274.77 655.23,-286.46 684,-295 692.16,-297.42 700.87,-299.77 709.4,-301.94"/>
<polygon fill="midnightblue" stroke="midnightblue" points="708.74,-305.39 719.29,-304.41 710.43,-298.59 708.74,-305.39"/>
</g>
<!-- Node5 -->
<g id="node5" class="node">
<title>Node5</title>
<g id="a_node5"><a xlink:href="command__analyze_8c.html#a2bfd90a24682bbb8a68779d95ef31ee0" target="_top" xlink:title="コマンド実行の本体">
<polygon fill="white" stroke="black" points="357.5,-209.5 357.5,-228.5 457.5,-228.5 457.5,-209.5 357.5,-209.5"/>
<text text-anchor="middle" x="407.5" y="-216.5" font-family="Helvetica,sans-Serif" font-size="10.00">CA_execute_cmd</text>
</a>
</g>
</g>
<!-- Node4&#45;&gt;Node5 -->
<g id="edge4" class="edge">
<title>Node4&#45;&gt;Node5</title>
<path fill="none" stroke="midnightblue" d="M272.45,-171.54C299.15,-180.99 340.24,-195.54 369.89,-206.04"/>
<polygon fill="midnightblue" stroke="midnightblue" points="368.87,-209.39 379.46,-209.43 371.21,-202.79 368.87,-209.39"/>
</g>
<!-- Node15 -->
<g id="node15" class="node">
<title>Node15</title>
<g id="a_node15"><a xlink:href="common__tlm__cmd__packet_8h.html#a48c6826da1a25e4e710202c1f75ec71e" target="_top" xlink:title="宛先 (TCPではAPID) を取得">
<polygon fill="white" stroke="black" points="526,-133.5 526,-152.5 624,-152.5 624,-133.5 526,-133.5"/>
<text text-anchor="middle" x="575" y="-140.5" font-family="Helvetica,sans-Serif" font-size="10.00">CCP_get_dest_id</text>
</a>
</g>
</g>
<!-- Node4&#45;&gt;Node15 -->
<g id="edge17" class="edge">
<title>Node4&#45;&gt;Node15</title>
<path fill="none" stroke="midnightblue" d="M310.27,-164.96C354.28,-166.24 413.75,-166.56 466,-162 483.76,-160.45 502.97,-157.49 520.2,-154.36"/>
<polygon fill="midnightblue" stroke="midnightblue" points="520.91,-157.79 530.09,-152.51 519.62,-150.91 520.91,-157.79"/>
</g>
<!-- Node17 -->
<g id="node17" class="node">
<title>Node17</title>
<g id="a_node17"><a xlink:href="common__tlm__cmd__packet_8h.html#ab4428b5f4c839c6e0ce2b72e01ccd7db" target="_top" xlink:title="tlm か cmd かを判断">
<polygon fill="white" stroke="black" points="358.5,-95.5 358.5,-114.5 456.5,-114.5 456.5,-95.5 358.5,-95.5"/>
<text text-anchor="middle" x="407.5" y="-102.5" font-family="Helvetica,sans-Serif" font-size="10.00">CTCP_get_tc_dsc</text>
</a>
</g>
</g>
<!-- Node4&#45;&gt;Node17 -->
<g id="edge19" class="edge">
<title>Node4&#45;&gt;Node17</title>
<path fill="none" stroke="midnightblue" d="M284.87,-152.43C294.22,-149.74 304.07,-146.57 313,-143 329.8,-136.29 332.35,-131.08 349,-124 354.08,-121.84 359.49,-119.76 364.89,-117.83"/>
<polygon fill="midnightblue" stroke="midnightblue" points="366.2,-121.08 374.51,-114.52 363.92,-114.47 366.2,-121.08"/>
</g>
<!-- Node19 -->
<g id="node19" class="node">
<title>Node19</title>
<g id="a_node19"><a xlink:href="user__packet__handler_8c.html#a1d8901bfc5a2d7cfec42de995ad728b3" target="_top" xlink:title="PHのcmd_router_のユーザー処理関数">
<polygon fill="white" stroke="black" points="349,-133.5 349,-152.5 466,-152.5 466,-133.5 349,-133.5"/>
<text text-anchor="middle" x="407.5" y="-140.5" font-family="Helvetica,sans-Serif" font-size="10.00">PH_user_cmd_router</text>
</a>
</g>
</g>
<!-- Node4&#45;&gt;Node19 -->
<g id="edge21" class="edge">
<title>Node4&#45;&gt;Node19</title>
<path fill="none" stroke="midnightblue" d="M310.06,-154.38C319.5,-153.27 329.25,-152.12 338.76,-150.99"/>
<polygon fill="midnightblue" stroke="midnightblue" points="339.43,-154.44 348.95,-149.79 338.61,-147.49 339.43,-154.44"/>
</g>
<!-- Node5&#45;&gt;Node2 -->
<g id="edge14" class="edge">
<title>Node5&#45;&gt;Node2</title>
<path fill="none" stroke="midnightblue" d="M450.26,-228.59C474.42,-234.14 504.81,-241.11 529.42,-246.76"/>
<polygon fill="midnightblue" stroke="midnightblue" points="528.71,-250.19 539.24,-249.02 530.27,-243.37 528.71,-250.19"/>
</g>
<!-- Node6 -->
<g id="node6" class="node">
<title>Node6</title>
<g id="a_node6"><a xlink:href="command__analyze_8c.html#ae878a1a8ce00cc7468fbdd5bc5aba864" target="_top" xlink:title="コマンドパラメタ長をチェックする">
<polygon fill="white" stroke="black" points="502,-209.5 502,-228.5 648,-228.5 648,-209.5 502,-209.5"/>
<text text-anchor="middle" x="575" y="-216.5" font-family="Helvetica,sans-Serif" font-size="10.00">CA_ckeck_cmd_param_len</text>
</a>
</g>
</g>
<!-- Node5&#45;&gt;Node6 -->
<g id="edge5" class="edge">
<title>Node5&#45;&gt;Node6</title>
<path fill="none" stroke="midnightblue" d="M457.71,-219C468.39,-219 479.98,-219 491.55,-219"/>
<polygon fill="midnightblue" stroke="midnightblue" points="491.7,-222.5 501.7,-219 491.7,-215.5 491.7,-222.5"/>
</g>
<!-- Node13 -->
<g id="node13" class="node">
<title>Node13</title>
<g id="a_node13"><a xlink:href="common__tlm__cmd__packet_8h.html#a38431270f66de04dc2e058d47635a084" target="_top" xlink:title="CMD パラメタ長を取得">
<polygon fill="white" stroke="black" points="518,-171.5 518,-190.5 632,-190.5 632,-171.5 518,-171.5"/>
<text text-anchor="middle" x="575" y="-178.5" font-family="Helvetica,sans-Serif" font-size="10.00">CCP_get_param_len</text>
</a>
</g>
</g>
<!-- Node5&#45;&gt;Node13 -->
<g id="edge15" class="edge">
<title>Node5&#45;&gt;Node13</title>
<path fill="none" stroke="midnightblue" d="M450.26,-209.41C472.2,-204.37 499.28,-198.16 522.51,-192.82"/>
<polygon fill="midnightblue" stroke="midnightblue" points="523.57,-196.17 532.54,-190.52 522.01,-189.35 523.57,-196.17"/>
</g>
<!-- Node7 -->
<g id="node7" class="node">
<title>Node7</title>
<g id="a_node7"><a xlink:href="command__analyze_8c.html#ac95557475d470f986e1eb46befbc2ae9" target="_top" xlink:title="最小コマンドパラメタ長を取得する">
<polygon fill="white" stroke="black" points="684,-266.5 684,-285.5 842,-285.5 842,-266.5 684,-266.5"/>
<text text-anchor="middle" x="763" y="-273.5" font-family="Helvetica,sans-Serif" font-size="10.00">CA_get_cmd_param_min_len</text>
</a>
</g>
</g>
<!-- Node6&#45;&gt;Node7 -->
<g id="edge6" class="edge">
<title>Node6&#45;&gt;Node7</title>
<path fill="none" stroke="midnightblue" d="M618.77,-228.57C628.52,-231.22 638.73,-234.38 648,-238 664.86,-244.57 667.08,-250.59 684,-257 690.72,-259.55 697.9,-261.84 705.08,-263.87"/>
<polygon fill="midnightblue" stroke="midnightblue" points="704.25,-267.28 714.82,-266.49 706.07,-260.52 704.25,-267.28"/>
</g>
<!-- Node10 -->
<g id="node10" class="node">
<title>Node10</title>
<g id="a_node10"><a xlink:href="command__analyze_8c.html#a8b245c2a85084ae21588acd4deb3b3d6" target="_top" xlink:title="RAW パラメタを持っているか？">
<polygon fill="white" stroke="black" points="706.5,-228.5 706.5,-247.5 819.5,-247.5 819.5,-228.5 706.5,-228.5"/>
<text text-anchor="middle" x="763" y="-235.5" font-family="Helvetica,sans-Serif" font-size="10.00">CA_has_raw_param</text>
</a>
</g>
</g>
<!-- Node6&#45;&gt;Node10 -->
<g id="edge9" class="edge">
<title>Node6&#45;&gt;Node10</title>
<path fill="none" stroke="midnightblue" d="M648.18,-226.37C664.01,-227.99 680.69,-229.69 696.25,-231.28"/>
<polygon fill="midnightblue" stroke="midnightblue" points="696,-234.78 706.3,-232.31 696.71,-227.81 696,-234.78"/>
</g>
<!-- Node12 -->
<g id="node12" class="node">
<title>Node12</title>
<g id="a_node12"><a xlink:href="common__tlm__cmd__packet_8h.html#a0cb576a77e94553c22d9cb70a6fd50f1" target="_top" xlink:title="CMD パラメタ長の最大値を取得">
<polygon fill="white" stroke="black" points="692.5,-190.5 692.5,-209.5 833.5,-209.5 833.5,-190.5 692.5,-190.5"/>
<text text-anchor="middle" x="763" y="-197.5" font-family="Helvetica,sans-Serif" font-size="10.00">CCP_get_max_param_len</text>
</a>
</g>
</g>
<!-- Node6&#45;&gt;Node12 -->
<g id="edge13" class="edge">
<title>Node6&#45;&gt;Node12</title>
<path fill="none" stroke="midnightblue" d="M648.18,-211.63C659.28,-210.49 670.8,-209.32 682.06,-208.17"/>
<polygon fill="midnightblue" stroke="midnightblue" points="682.71,-211.62 692.31,-207.12 682,-204.65 682.71,-211.62"/>
</g>
<!-- Node8 -->
<g id="node8" class="node">
<title>Node8</title>
<g id="a_node8"><a xlink:href="command__analyze_8c.html#a464f3aa16753a76bc5093100542a361a" target="_top" xlink:title="コマンドパラメタサイズを取得する">
<polygon fill="white" stroke="black" points="879,-266.5 879,-285.5 1018,-285.5 1018,-266.5 879,-266.5"/>
<text text-anchor="middle" x="948.5" y="-273.5" font-family="Helvetica,sans-Serif" font-size="10.00">CA_get_cmd_param_size</text>
</a>
</g>
</g>
<!-- Node7&#45;&gt;Node8 -->
<g id="edge7" class="edge">
<title>Node7&#45;&gt;Node8</title>
<path fill="none" stroke="midnightblue" d="M842.09,-276C850.85,-276 859.78,-276 868.56,-276"/>
<polygon fill="midnightblue" stroke="midnightblue" points="868.77,-279.5 878.77,-276 868.77,-272.5 868.77,-279.5"/>
</g>
<!-- Node9 -->
<g id="node9" class="node">
<title>Node9</title>
<g id="a_node9"><a xlink:href="command__analyze_8c.html#aa312aeadf3ce336a10385fe14e22f77c" target="_top" xlink:title="コマンドパラメタのサイズ情報を取得">
<polygon fill="white" stroke="black" points="1055,-228.5 1055,-247.5 1200,-247.5 1200,-228.5 1055,-228.5"/>
<text text-anchor="middle" x="1127.5" y="-235.5" font-family="Helvetica,sans-Serif" font-size="10.00">CA_get_param_size_type_</text>
</a>
</g>
</g>
<!-- Node8&#45;&gt;Node9 -->
<g id="edge8" class="edge">
<title>Node8&#45;&gt;Node9</title>
<path fill="none" stroke="midnightblue" d="M994.16,-266.41C1017.84,-261.33 1047.11,-255.04 1072.1,-249.68"/>
<polygon fill="midnightblue" stroke="midnightblue" points="1073.11,-253.04 1082.16,-247.52 1071.64,-246.2 1073.11,-253.04"/>
</g>
<!-- Node10&#45;&gt;Node9 -->
<g id="edge12" class="edge">
<title>Node10&#45;&gt;Node9</title>
<path fill="none" stroke="midnightblue" d="M819.85,-238C879.92,-238 976.04,-238 1044.65,-238"/>
<polygon fill="midnightblue" stroke="midnightblue" points="1044.99,-241.5 1054.99,-238 1044.99,-234.5 1044.99,-241.5"/>
</g>
<!-- Node11 -->
<g id="node11" class="node">
<title>Node11</title>
<g id="a_node11"><a xlink:href="command__analyze_8c.html#a170772c49fb7883a382a30bd38485a6e" target="_top" xlink:title="コマンドパラメタ数を取得する">
<polygon fill="white" stroke="black" points="878,-190.5 878,-209.5 1019,-209.5 1019,-190.5 878,-190.5"/>
<text text-anchor="middle" x="948.5" y="-197.5" font-family="Helvetica,sans-Serif" font-size="10.00">CA_get_cmd_param_num</text>
</a>
</g>
</g>
<!-- Node10&#45;&gt;Node11 -->
<g id="edge10" class="edge">
<title>Node10&#45;&gt;Node11</title>
<path fill="none" stroke="midnightblue" d="M810.3,-228.41C834.96,-223.31 865.46,-216.99 891.44,-211.61"/>
<polygon fill="midnightblue" stroke="midnightblue" points="892.45,-214.98 901.53,-209.52 891.03,-208.12 892.45,-214.98"/>
</g>
<!-- Node11&#45;&gt;Node9 -->
<g id="edge11" class="edge">
<title>Node11&#45;&gt;Node9</title>
<path fill="none" stroke="midnightblue" d="M994.16,-209.59C1017.84,-214.67 1047.11,-220.96 1072.1,-226.32"/>
<polygon fill="midnightblue" stroke="midnightblue" points="1071.64,-229.8 1082.16,-228.48 1073.11,-222.96 1071.64,-229.8"/>
</g>
<!-- Node14 -->
<g id="node14" class="node">
<title>Node14</title>
<g id="a_node14"><a xlink:href="_t_c_packet_8c.html#a4088b7a1b29268cecc23866a45238fd6" target="_top" xlink:title="Packet Length を取得">
<polygon fill="white" stroke="black" points="706.5,-152.5 706.5,-171.5 819.5,-171.5 819.5,-152.5 706.5,-152.5"/>
<text text-anchor="middle" x="763" y="-159.5" font-family="Helvetica,sans-Serif" font-size="10.00">TCP_get_packet_len</text>
</a>
</g>
</g>
<!-- Node13&#45;&gt;Node14 -->
<g id="edge16" class="edge">
<title>Node13&#45;&gt;Node14</title>
<path fill="none" stroke="midnightblue" d="M632.06,-175.27C652.28,-173.21 675.29,-170.86 696.26,-168.71"/>
<polygon fill="midnightblue" stroke="midnightblue" points="696.78,-172.18 706.38,-167.68 696.07,-165.22 696.78,-172.18"/>
</g>
<!-- Node16 -->
<g id="node16" class="node">
<title>Node16</title>
<g id="a_node16"><a xlink:href="_t_c_packet_8c.html#a58270c80e8bf611867892b029a0d32f9" target="_top" xlink:title="APID を取得">
<polygon fill="white" stroke="black" points="722,-114.5 722,-133.5 804,-133.5 804,-114.5 722,-114.5"/>
<text text-anchor="middle" x="763" y="-121.5" font-family="Helvetica,sans-Serif" font-size="10.00">TCP_get_apid</text>
</a>
</g>
</g>
<!-- Node15&#45;&gt;Node16 -->
<g id="edge18" class="edge">
<title>Node15&#45;&gt;Node16</title>
<path fill="none" stroke="midnightblue" d="M624.38,-138.06C651.2,-135.32 684.51,-131.92 711.64,-129.14"/>
<polygon fill="midnightblue" stroke="midnightblue" points="712.12,-132.61 721.71,-128.12 711.41,-125.65 712.12,-132.61"/>
</g>
<!-- Node18 -->
<g id="node18" class="node">
<title>Node18</title>
<g id="a_node18"><a xlink:href="_t_c_packet_8c.html#aeef51e70e41085a34fe5c6629d3cc2ae" target="_top" xlink:title="TCP type を取得">
<polygon fill="white" stroke="black" points="533.5,-95.5 533.5,-114.5 616.5,-114.5 616.5,-95.5 533.5,-95.5"/>
<text text-anchor="middle" x="575" y="-102.5" font-family="Helvetica,sans-Serif" font-size="10.00">TCP_get_type</text>
</a>
</g>
</g>
<!-- Node17&#45;&gt;Node18 -->
<g id="edge20" class="edge">
<title>Node17&#45;&gt;Node18</title>
<path fill="none" stroke="midnightblue" d="M456.81,-105C477.72,-105 502.2,-105 523.36,-105"/>
<polygon fill="midnightblue" stroke="midnightblue" points="523.45,-108.5 533.45,-105 523.45,-101.5 523.45,-108.5"/>
</g>
<!-- Node19&#45;&gt;Node15 -->
<g id="edge22" class="edge">
<title>Node19&#45;&gt;Node15</title>
<path fill="none" stroke="midnightblue" d="M466.38,-143C482.29,-143 499.54,-143 515.48,-143"/>
<polygon fill="midnightblue" stroke="midnightblue" points="515.74,-146.5 525.74,-143 515.74,-139.5 515.74,-146.5"/>
</g>
<!-- Node21 -->
<g id="node21" class="node">
<title>Node21</title>
<g id="a_node21"><a xlink:href="packet__list_8c.html#a70aad047c68c6c6683a064418c9d566b" target="_top" xlink:title="先頭ノードを落とす">
<polygon fill="white" stroke="black" points="363,-57.5 363,-76.5 452,-76.5 452,-57.5 363,-57.5"/>
<text text-anchor="middle" x="407.5" y="-64.5" font-family="Helvetica,sans-Serif" font-size="10.00">PL_drop_head_</text>
</a>
</g>
</g>
<!-- Node20&#45;&gt;Node21 -->
<g id="edge24" class="edge">
<title>Node20&#45;&gt;Node21</title>
<path fill="none" stroke="midnightblue" d="M284.87,-114.43C294.22,-111.74 304.07,-108.57 313,-105 329.8,-98.29 332.35,-93.08 349,-86 354.08,-83.84 359.49,-81.76 364.89,-79.83"/>
<polygon fill="midnightblue" stroke="midnightblue" points="366.2,-83.08 374.51,-76.52 363.92,-76.47 366.2,-83.08"/>
</g>
<!-- Node25 -->
<g id="node25" class="node">
<title>Node25</title>
<g id="a_node25"><a xlink:href="obc__time_8c.html#a70416835a40bdacbb04f6f06b1e6d1e1" target="_top" xlink:title=" ">
<polygon fill="white" stroke="black" points="367.5,-0.5 367.5,-19.5 447.5,-19.5 447.5,-0.5 367.5,-0.5"/>
<text text-anchor="middle" x="407.5" y="-7.5" font-family="Helvetica,sans-Serif" font-size="10.00">OBCT_create</text>
</a>
</g>
</g>
<!-- Node24&#45;&gt;Node25 -->
<g id="edge28" class="edge">
<title>Node24&#45;&gt;Node25</title>
<path fill="none" stroke="midnightblue" d="M313.31,-10C327.97,-10 343.2,-10 356.99,-10"/>
<polygon fill="midnightblue" stroke="midnightblue" points="357.23,-13.5 367.23,-10 357.23,-6.5 357.23,-13.5"/>
</g>
</g>
</svg>
