<?xml version="1.0" encoding="UTF-8" standalone="no"?>
<!DOCTYPE svg PUBLIC "-//W3C//DTD SVG 1.1//EN"
 "http://www.w3.org/Graphics/SVG/1.1/DTD/svg11.dtd">
<!-- Generated by graphviz version 2.43.0 (0)
 -->
<!-- Title: CCP_is_valid_packet Pages: 1 -->
<svg width="1350pt" height="762pt"
 viewBox="0.00 0.00 1350.00 762.00" xmlns="http://www.w3.org/2000/svg" xmlns:xlink="http://www.w3.org/1999/xlink">
<g id="graph0" class="graph" transform="scale(1 1) rotate(0) translate(4 758)">
<title>CCP_is_valid_packet</title>
<polygon fill="white" stroke="transparent" points="-4,4 -4,-758 1346,-758 1346,4 -4,4"/>
<!-- Node1 -->
<g id="node1" class="node">
<title>Node1</title>
<g id="a_node1"><a xlink:title="有効なパケットかチェックする">
<polygon fill="#bfbfbf" stroke="black" points="1226,-527.5 1226,-546.5 1342,-546.5 1342,-527.5 1226,-527.5"/>
<text text-anchor="middle" x="1284" y="-534.5" font-family="Helvetica,sans-Serif" font-size="10.00">CCP_is_valid_packet</text>
</a>
</g>
</g>
<!-- Node2 -->
<g id="node2" class="node">
<title>Node2</title>
<g id="a_node2"><a xlink:href="driver__super__issl__format_8h.html#a5076f38576e3c77d7333169b524e3cd1" target="_top" xlink:title="CommonCmdPacket を受信データからコピーして取得する">
<polygon fill="white" stroke="black" points="1065,-565.5 1065,-584.5 1184,-584.5 1184,-565.5 1065,-565.5"/>
<text text-anchor="middle" x="1124.5" y="-572.5" font-family="Helvetica,sans-Serif" font-size="10.00">DS_C2AFMT_get_ccp</text>
</a>
</g>
</g>
<!-- Node1&#45;&gt;Node2 -->
<g id="edge1" class="edge">
<title>Node1&#45;&gt;Node2</title>
<path fill="none" stroke="midnightblue" d="M1233.4,-548.97C1211.32,-554.29 1185.7,-560.48 1164.96,-565.48"/>
<polygon fill="midnightblue" stroke="midnightblue" points="1234.36,-552.34 1243.26,-546.59 1232.71,-545.53 1234.36,-552.34"/>
</g>
<!-- Node3 -->
<g id="node3" class="node">
<title>Node3</title>
<g id="a_node3"><a xlink:href="packet__handler_8h.html#a9d16c8b958f0f983cf15674d6c528b02" target="_top" xlink:title="CCP を解析する">
<polygon fill="white" stroke="black" points="881.5,-639.5 881.5,-658.5 1018.5,-658.5 1018.5,-639.5 881.5,-639.5"/>
<text text-anchor="middle" x="950" y="-646.5" font-family="Helvetica,sans-Serif" font-size="10.00">PH_analyze_cmd_packet</text>
</a>
</g>
</g>
<!-- Node1&#45;&gt;Node3 -->
<g id="edge2" class="edge">
<title>Node1&#45;&gt;Node3</title>
<path fill="none" stroke="midnightblue" d="M1215.81,-532.09C1169.92,-531.24 1108.68,-535.13 1059,-556 1014.06,-574.88 974.33,-619.78 958.4,-639.47"/>
<polygon fill="midnightblue" stroke="midnightblue" points="1215.85,-535.59 1225.94,-532.36 1216.04,-528.6 1215.85,-535.59"/>
</g>
<!-- Node25 -->
<g id="node18" class="node">
<title>Node25</title>
<g id="a_node18"><a xlink:href="packet__handler_8h.html#a7b1777e6101ff2eeeef6042166974cdc" target="_top" xlink:title="CCP をコマンドとして解釈して実行，ないしは別機器へ配送する">
<polygon fill="white" stroke="black" points="1059,-396.5 1059,-415.5 1190,-415.5 1190,-396.5 1059,-396.5"/>
<text text-anchor="middle" x="1124.5" y="-403.5" font-family="Helvetica,sans-Serif" font-size="10.00">PH_dispatch_command</text>
</a>
</g>
</g>
<!-- Node1&#45;&gt;Node25 -->
<g id="edge21" class="edge">
<title>Node1&#45;&gt;Node25</title>
<path fill="none" stroke="midnightblue" d="M1263.36,-520.66C1230.13,-493.03 1163.85,-437.9 1137.1,-415.65"/>
<polygon fill="midnightblue" stroke="midnightblue" points="1261.49,-523.66 1271.42,-527.37 1265.97,-518.28 1261.49,-523.66"/>
</g>
<!-- Node4 -->
<g id="node4" class="node">
<title>Node4</title>
<g id="a_node4"><a xlink:href="telemetry__manager_8h.html#a923d6ea9078726984798c4b0800381fe" target="_top" xlink:title="TLM送出用TLをクリア">
<polygon fill="white" stroke="black" points="454.5,-658.5 454.5,-677.5 626.5,-677.5 626.5,-658.5 454.5,-658.5"/>
<text text-anchor="middle" x="540.5" y="-665.5" font-family="Helvetica,sans-Serif" font-size="10.00">Cmd_TLM_MGR_CLEAR_TLM_TL</text>
</a>
</g>
</g>
<!-- Node3&#45;&gt;Node4 -->
<g id="edge3" class="edge">
<title>Node3&#45;&gt;Node4</title>
<path fill="none" stroke="midnightblue" d="M871.18,-652.63C801.29,-655.89 698.86,-660.66 626.76,-664.02"/>
<polygon fill="midnightblue" stroke="midnightblue" points="871.43,-656.12 881.25,-652.16 871.1,-649.13 871.43,-656.12"/>
</g>
<!-- Node11 -->
<g id="node8" class="node">
<title>Node11</title>
<g id="a_node8"><a xlink:href="telemetry__manager_8h.html#ad6f65df0da86f70cbd0f5b1e6cb32dbc" target="_top" xlink:title="TLM送出開始">
<polygon fill="white" stroke="black" points="678.5,-620.5 678.5,-639.5 832.5,-639.5 832.5,-620.5 678.5,-620.5"/>
<text text-anchor="middle" x="755.5" y="-627.5" font-family="Helvetica,sans-Serif" font-size="10.00">Cmd_TLM_MGR_START_TLM</text>
</a>
</g>
</g>
<!-- Node3&#45;&gt;Node11 -->
<g id="edge7" class="edge">
<title>Node3&#45;&gt;Node11</title>
<path fill="none" stroke="midnightblue" d="M871.33,-641.33C858.63,-640.08 845.48,-638.78 832.81,-637.53"/>
<polygon fill="midnightblue" stroke="midnightblue" points="871.11,-644.83 881.4,-642.33 871.79,-637.86 871.11,-644.83"/>
</g>
<!-- Node12 -->
<g id="node9" class="node">
<title>Node12</title>
<g id="a_node9"><a xlink:href="divided__cmd__utility_8h.html#a65ad0b8aa0af1c9c0bdd74aa37b15b15" target="_top" xlink:title="次の分割の実行を登録">
<polygon fill="white" stroke="black" points="701.5,-582.5 701.5,-601.5 809.5,-601.5 809.5,-582.5 701.5,-582.5"/>
<text text-anchor="middle" x="755.5" y="-589.5" font-family="Helvetica,sans-Serif" font-size="10.00">DCU_register_next</text>
</a>
</g>
</g>
<!-- Node3&#45;&gt;Node12 -->
<g id="edge9" class="edge">
<title>Node3&#45;&gt;Node12</title>
<path fill="none" stroke="midnightblue" d="M914.9,-635.85C893.81,-628 866.07,-618.2 841,-611 829,-607.55 815.91,-604.35 803.68,-601.58"/>
<polygon fill="midnightblue" stroke="midnightblue" points="913.79,-639.17 924.39,-639.41 916.26,-632.62 913.79,-639.17"/>
</g>
<!-- Node15 -->
<g id="node12" class="node">
<title>Node15</title>
<g id="a_node12"><a xlink:href="gs_8c.html#a71a6268f1b467c60429c671e47e51e1d" target="_top" xlink:title="地上からの受信データ解析関数">
<polygon fill="white" stroke="black" points="692.5,-696.5 692.5,-715.5 818.5,-715.5 818.5,-696.5 692.5,-696.5"/>
<text text-anchor="middle" x="755.5" y="-703.5" font-family="Helvetica,sans-Serif" font-size="10.00">GS_analyze_rec_data_</text>
</a>
</g>
</g>
<!-- Node3&#45;&gt;Node15 -->
<g id="edge14" class="edge">
<title>Node3&#45;&gt;Node15</title>
<path fill="none" stroke="midnightblue" d="M908.5,-661.58C888.25,-667.82 863.36,-675.41 841,-682 824.47,-686.87 806.07,-692.12 790.67,-696.46"/>
<polygon fill="midnightblue" stroke="midnightblue" points="909.8,-664.84 918.32,-658.55 907.74,-658.16 909.8,-664.84"/>
</g>
<!-- Node24 -->
<g id="node17" class="node">
<title>Node24</title>
<g id="a_node17"><a xlink:href="packet__handler_8h.html#acf757fa72967bf66b39dc5ced7132330" target="_top" xlink:title="CTCP を解析する">
<polygon fill="white" stroke="black" points="700,-734.5 700,-753.5 811,-753.5 811,-734.5 700,-734.5"/>
<text text-anchor="middle" x="755.5" y="-741.5" font-family="Helvetica,sans-Serif" font-size="10.00">PH_analyze_packet</text>
</a>
</g>
</g>
<!-- Node3&#45;&gt;Node24 -->
<g id="edge20" class="edge">
<title>Node3&#45;&gt;Node24</title>
<path fill="none" stroke="midnightblue" d="M930.96,-665.1C910.55,-682.45 875.63,-709.65 841,-725 831.65,-729.14 821.31,-732.43 811.16,-735.01"/>
<polygon fill="midnightblue" stroke="midnightblue" points="933.26,-667.73 938.53,-658.54 928.68,-662.44 933.26,-667.73"/>
</g>
<!-- Node5 -->
<g id="node5" class="node">
<title>Node5</title>
<g id="a_node5"><a xlink:href="command__definitions_8c.html#aa375895192b16d8e7f0ff4545b54e6c4" target="_top" xlink:title="Cmd Tableのロード">
<polygon fill="white" stroke="black" points="293.5,-456.5 293.5,-475.5 406.5,-475.5 406.5,-456.5 293.5,-456.5"/>
<text text-anchor="middle" x="350" y="-463.5" font-family="Helvetica,sans-Serif" font-size="10.00">CA_load_cmd_table</text>
</a>
</g>
</g>
<!-- Node4&#45;&gt;Node5 -->
<g id="edge4" class="edge">
<title>Node4&#45;&gt;Node5</title>
<path fill="none" stroke="midnightblue" d="M464.99,-654.67C458.56,-651.78 452.44,-648.26 447,-644 388.43,-598.07 361.03,-506.14 353.34,-475.9"/>
<polygon fill="midnightblue" stroke="midnightblue" points="464.01,-658.05 474.59,-658.48 466.59,-651.54 464.01,-658.05"/>
</g>
<!-- Node6 -->
<g id="node6" class="node">
<title>Node6</title>
<g id="a_node6"><a xlink:href="command__analyze_8h.html#ae6d1f376bf4e1c9c4b63bc3f04924c8a" target="_top" xlink:title="CA の初期化">
<polygon fill="white" stroke="black" points="147.5,-399.5 147.5,-418.5 224.5,-418.5 224.5,-399.5 147.5,-399.5"/>
<text text-anchor="middle" x="186" y="-406.5" font-family="Helvetica,sans-Serif" font-size="10.00">CA_initialize</text>
</a>
</g>
</g>
<!-- Node5&#45;&gt;Node6 -->
<g id="edge5" class="edge">
<title>Node5&#45;&gt;Node6</title>
<path fill="none" stroke="midnightblue" d="M312.26,-453.07C282.45,-442.58 241.1,-428.04 214.2,-418.57"/>
<polygon fill="midnightblue" stroke="midnightblue" points="311.29,-456.44 321.88,-456.46 313.61,-449.84 311.29,-456.44"/>
</g>
<!-- Node7 -->
<g id="node7" class="node">
<title>Node7</title>
<g id="a_node7"><a xlink:href="c2a__core__main_8h.html#a65ecdc63d8762ffde4db7f6c6e6f07cf" target="_top" xlink:title=" ">
<polygon fill="white" stroke="red" points="0,-304.5 0,-323.5 83,-323.5 83,-304.5 0,-304.5"/>
<text text-anchor="middle" x="41.5" y="-311.5" font-family="Helvetica,sans-Serif" font-size="10.00">C2A_core_init</text>
</a>
</g>
</g>
<!-- Node6&#45;&gt;Node7 -->
<g id="edge6" class="edge">
<title>Node6&#45;&gt;Node7</title>
<path fill="none" stroke="midnightblue" d="M162.09,-393.73C132.47,-373.98 81.76,-340.18 56.99,-323.66"/>
<polygon fill="midnightblue" stroke="midnightblue" points="160.29,-396.73 170.55,-399.37 164.17,-390.91 160.29,-396.73"/>
</g>
<!-- Node11&#45;&gt;Node5 -->
<g id="edge8" class="edge">
<title>Node11&#45;&gt;Node5</title>
<path fill="none" stroke="midnightblue" d="M696.13,-641.02C630.8,-650.2 524.04,-655.51 447,-611 392.36,-579.44 362.95,-502.77 353.99,-475.68"/>
<polygon fill="midnightblue" stroke="midnightblue" points="696.86,-644.45 706.24,-639.52 695.84,-637.52 696.86,-644.45"/>
</g>
<!-- Node13 -->
<g id="node10" class="node">
<title>Node13</title>
<g id="a_node10"><a xlink:href="telemetry__manager_8h.html#af76453743bae7b361005376190100cbf" target="_top" xlink:title="high_freq_tlm, low_freq_tlm を初期化">
<polygon fill="white" stroke="black" points="447,-544.5 447,-563.5 634,-563.5 634,-544.5 447,-544.5"/>
<text text-anchor="middle" x="540.5" y="-551.5" font-family="Helvetica,sans-Serif" font-size="10.00">Cmd_TLM_MGR_CLEAR_USER_TLM</text>
</a>
</g>
</g>
<!-- Node12&#45;&gt;Node13 -->
<g id="edge10" class="edge">
<title>Node12&#45;&gt;Node13</title>
<path fill="none" stroke="midnightblue" d="M691.13,-580.69C660.44,-575.22 624,-568.72 594.76,-563.5"/>
<polygon fill="midnightblue" stroke="midnightblue" points="690.84,-584.2 701.3,-582.51 692.07,-577.31 690.84,-584.2"/>
</g>
<!-- Node14 -->
<g id="node11" class="node">
<title>Node14</title>
<g id="a_node11"><a xlink:href="telemetry__manager_8h.html#a19d6e76042721fe9e576dbacaf49b365" target="_top" xlink:title="初期化">
<polygon fill="white" stroke="black" points="481.5,-582.5 481.5,-601.5 599.5,-601.5 599.5,-582.5 481.5,-582.5"/>
<text text-anchor="middle" x="540.5" y="-589.5" font-family="Helvetica,sans-Serif" font-size="10.00">Cmd_TLM_MGR_INIT</text>
</a>
</g>
</g>
<!-- Node12&#45;&gt;Node14 -->
<g id="edge12" class="edge">
<title>Node12&#45;&gt;Node14</title>
<path fill="none" stroke="midnightblue" d="M691.26,-592C662.22,-592 628.02,-592 599.63,-592"/>
<polygon fill="midnightblue" stroke="midnightblue" points="691.3,-595.5 701.3,-592 691.3,-588.5 691.3,-595.5"/>
</g>
<!-- Node13&#45;&gt;Node5 -->
<g id="edge11" class="edge">
<title>Node13&#45;&gt;Node5</title>
<path fill="none" stroke="midnightblue" d="M468.21,-541.66C460.91,-539.49 453.72,-536.96 447,-534 412.6,-518.86 378.06,-490.36 361.35,-475.52"/>
<polygon fill="midnightblue" stroke="midnightblue" points="467.62,-545.13 478.19,-544.4 469.47,-538.38 467.62,-545.13"/>
</g>
<!-- Node14&#45;&gt;Node5 -->
<g id="edge13" class="edge">
<title>Node14&#45;&gt;Node5</title>
<path fill="none" stroke="midnightblue" d="M471.49,-583.27C462.93,-580.68 454.54,-577.33 447,-573 403.71,-548.15 369.47,-496.82 356.56,-475.55"/>
<polygon fill="midnightblue" stroke="midnightblue" points="470.62,-586.66 481.19,-585.89 472.44,-579.9 470.62,-586.66"/>
</g>
<!-- Node16 -->
<g id="node13" class="node">
<title>Node16</title>
<g id="a_node13"><a xlink:href="gs_8c.html#a77d8b5e22b2b2615c9046060e50a3308" target="_top" xlink:title="上記初期化の共通部分をまとめた関数">
<polygon fill="white" stroke="black" points="475.5,-697 475.5,-727 605.5,-727 605.5,-697 475.5,-697"/>
<text text-anchor="start" x="483.5" y="-715" font-family="Helvetica,sans-Serif" font-size="10.00">GS_load_default_driver</text>
<text text-anchor="middle" x="540.5" y="-704" font-family="Helvetica,sans-Serif" font-size="10.00">_super_init_settings_</text>
</a>
</g>
</g>
<!-- Node15&#45;&gt;Node16 -->
<g id="edge15" class="edge">
<title>Node15&#45;&gt;Node16</title>
<path fill="none" stroke="midnightblue" d="M682.22,-708.04C657.38,-708.74 629.76,-709.51 605.61,-710.19"/>
<polygon fill="midnightblue" stroke="midnightblue" points="682.42,-711.53 692.32,-707.75 682.22,-704.53 682.42,-711.53"/>
</g>
<!-- Node17 -->
<g id="node14" class="node">
<title>Node17</title>
<g id="a_node14"><a xlink:href="gs_8c.html#a4621f4390191b12c281982f635516f67" target="_top" xlink:title="CCSDS 側 Driver の DS 上での初期化設定">
<polygon fill="white" stroke="black" points="289,-672 289,-702 411,-702 411,-672 289,-672"/>
<text text-anchor="start" x="297" y="-690" font-family="Helvetica,sans-Serif" font-size="10.00">GS_load_ccsds_driver</text>
<text text-anchor="middle" x="350" y="-679" font-family="Helvetica,sans-Serif" font-size="10.00">_super_init_settings_</text>
</a>
</g>
</g>
<!-- Node16&#45;&gt;Node17 -->
<g id="edge16" class="edge">
<title>Node16&#45;&gt;Node17</title>
<path fill="none" stroke="midnightblue" d="M465.27,-702.16C447.3,-699.77 428.32,-697.25 411.09,-694.97"/>
<polygon fill="midnightblue" stroke="midnightblue" points="465.05,-705.66 475.42,-703.5 465.97,-698.72 465.05,-705.66"/>
</g>
<!-- Node23 -->
<g id="node16" class="node">
<title>Node23</title>
<g id="a_node16"><a xlink:href="gs_8c.html#a940de224a6d318a15603b46983cf69ea" target="_top" xlink:title="UART 側 Driver の DS 上での初期化設定">
<polygon fill="white" stroke="black" points="290.5,-721 290.5,-751 409.5,-751 409.5,-721 290.5,-721"/>
<text text-anchor="start" x="298.5" y="-739" font-family="Helvetica,sans-Serif" font-size="10.00">GS_load_uart_driver</text>
<text text-anchor="middle" x="350" y="-728" font-family="Helvetica,sans-Serif" font-size="10.00">_super_init_settings_</text>
</a>
</g>
</g>
<!-- Node16&#45;&gt;Node23 -->
<g id="edge18" class="edge">
<title>Node16&#45;&gt;Node23</title>
<path fill="none" stroke="midnightblue" d="M465.26,-721.45C446.75,-723.81 427.15,-726.3 409.52,-728.55"/>
<polygon fill="midnightblue" stroke="midnightblue" points="465.94,-724.89 475.42,-720.16 465.06,-717.95 465.94,-724.89"/>
</g>
<!-- Node18 -->
<g id="node15" class="node">
<title>Node18</title>
<g id="a_node15"><a xlink:href="gs_8h.html#a3cda832b6c75f514dfb566fa49b59127" target="_top" xlink:title="Driver の初期化">
<polygon fill="white" stroke="red" points="160.5,-701.5 160.5,-720.5 211.5,-720.5 211.5,-701.5 160.5,-701.5"/>
<text text-anchor="middle" x="186" y="-708.5" font-family="Helvetica,sans-Serif" font-size="10.00">GS_init</text>
</a>
</g>
</g>
<!-- Node17&#45;&gt;Node18 -->
<g id="edge17" class="edge">
<title>Node17&#45;&gt;Node18</title>
<path fill="none" stroke="midnightblue" d="M278.57,-697.43C254.74,-700.96 229.67,-704.68 211.8,-707.33"/>
<polygon fill="midnightblue" stroke="midnightblue" points="279.3,-700.86 288.68,-695.94 278.27,-693.94 279.3,-700.86"/>
</g>
<!-- Node23&#45;&gt;Node18 -->
<g id="edge19" class="edge">
<title>Node23&#45;&gt;Node18</title>
<path fill="none" stroke="midnightblue" d="M280.13,-725.37C255.85,-721.63 230.09,-717.65 211.83,-714.83"/>
<polygon fill="midnightblue" stroke="midnightblue" points="279.64,-728.84 290.06,-726.9 280.71,-721.92 279.64,-728.84"/>
</g>
<!-- Node26 -->
<g id="node19" class="node">
<title>Node26</title>
<g id="a_node19"><a xlink:href="anomaly__handler_8c.html#adfd34d8cadea83c50526f50bbdcfcb40" target="_top" xlink:title=" ">
<polygon fill="white" stroke="black" points="878.5,-279.5 878.5,-298.5 1021.5,-298.5 1021.5,-279.5 878.5,-279.5"/>
<text text-anchor="middle" x="950" y="-286.5" font-family="Helvetica,sans-Serif" font-size="10.00">AH_respond_to_anomaly_</text>
</a>
</g>
</g>
<!-- Node25&#45;&gt;Node26 -->
<g id="edge22" class="edge">
<title>Node25&#45;&gt;Node26</title>
<path fill="none" stroke="midnightblue" d="M1106.67,-389.13C1087.61,-370.69 1055.02,-341.08 1023,-321 1008.63,-311.99 991.29,-304.2 977.23,-298.56"/>
<polygon fill="midnightblue" stroke="midnightblue" points="1104.38,-391.79 1113.97,-396.3 1109.28,-386.79 1104.38,-391.79"/>
</g>
<!-- Node29 -->
<g id="node23" class="node">
<title>Node29</title>
<g id="a_node23"><a xlink:href="block__command__executor_8c.html#ae33c8a6dadb5c8d6052c681bd93eabb4" target="_top" xlink:title="BC をまとめて一括で実行する">
<polygon fill="white" stroke="black" points="877,-456.5 877,-475.5 1023,-475.5 1023,-456.5 877,-456.5"/>
<text text-anchor="middle" x="950" y="-463.5" font-family="Helvetica,sans-Serif" font-size="10.00">BCE_combine_block_cmd_</text>
</a>
</g>
</g>
<!-- Node25&#45;&gt;Node29 -->
<g id="edge27" class="edge">
<title>Node25&#45;&gt;Node29</title>
<path fill="none" stroke="midnightblue" d="M1092.86,-419.71C1073.15,-428.22 1046.85,-439.03 1023,-447 1012.7,-450.44 1001.41,-453.67 990.88,-456.46"/>
<polygon fill="midnightblue" stroke="midnightblue" points="1094.47,-422.82 1102.24,-415.61 1091.67,-416.41 1094.47,-422.82"/>
</g>
<!-- Node31 -->
<g id="node25" class="node">
<title>Node31</title>
<g id="a_node25"><a xlink:href="block__command__executor_8c.html#ad3ff86b57b5abbbdb7dd658a04f00f13" target="_top" xlink:title="rotator の実行主体">
<polygon fill="white" stroke="black" points="883,-418.5 883,-437.5 1017,-437.5 1017,-418.5 883,-418.5"/>
<text text-anchor="middle" x="950" y="-425.5" font-family="Helvetica,sans-Serif" font-size="10.00">BCE_rotate_block_cmd_</text>
</a>
</g>
</g>
<!-- Node25&#45;&gt;Node31 -->
<g id="edge30" class="edge">
<title>Node25&#45;&gt;Node31</title>
<path fill="none" stroke="midnightblue" d="M1048.8,-415.53C1038.3,-416.87 1027.56,-418.24 1017.24,-419.55"/>
<polygon fill="midnightblue" stroke="midnightblue" points="1049.3,-418.99 1058.78,-414.25 1048.41,-412.05 1049.3,-418.99"/>
</g>
<!-- Node33 -->
<g id="node27" class="node">
<title>Node33</title>
<g id="a_node27"><a xlink:href="block__command__executor_8c.html#aa35678f3996844ae59428f34e6c8c78f" target="_top" xlink:title="BC をまとめて一括で実行する">
<polygon fill="white" stroke="black" points="883,-369 883,-399 1017,-399 1017,-369 883,-369"/>
<text text-anchor="start" x="891" y="-387" font-family="Helvetica,sans-Serif" font-size="10.00">BCE_timelimit_combine</text>
<text text-anchor="middle" x="950" y="-376" font-family="Helvetica,sans-Serif" font-size="10.00">_block_cmd_</text>
</a>
</g>
</g>
<!-- Node25&#45;&gt;Node33 -->
<g id="edge33" class="edge">
<title>Node25&#45;&gt;Node33</title>
<path fill="none" stroke="midnightblue" d="M1048.8,-396.47C1038.3,-395.13 1027.56,-393.76 1017.24,-392.45"/>
<polygon fill="midnightblue" stroke="midnightblue" points="1048.41,-399.95 1058.78,-397.75 1049.3,-393.01 1048.41,-399.95"/>
</g>
<!-- Node35 -->
<g id="node29" class="node">
<title>Node35</title>
<g id="a_node29"><a xlink:href="command__dispatcher_8h.html#a90617acff33923f51c212b8e3034712c" target="_top" xlink:title=" ">
<polygon fill="white" stroke="black" points="880,-117.5 880,-136.5 1020,-136.5 1020,-117.5 880,-117.5"/>
<text text-anchor="middle" x="950" y="-124.5" font-family="Helvetica,sans-Serif" font-size="10.00">CDIS_dispatch_command</text>
</a>
</g>
</g>
<!-- Node25&#45;&gt;Node35 -->
<g id="edge36" class="edge">
<title>Node25&#45;&gt;Node35</title>
<path fill="none" stroke="midnightblue" d="M1112.3,-387.89C1079.09,-334.17 981.9,-176.98 956.91,-136.56"/>
<polygon fill="midnightblue" stroke="midnightblue" points="1109.33,-389.73 1117.56,-396.4 1115.28,-386.05 1109.33,-389.73"/>
</g>
<!-- Node52 -->
<g id="node44" class="node">
<title>Node52</title>
<g id="a_node44"><a xlink:href="event__handler_8c.html#a8d7de705ac2b09f9f25644f0c9f55952" target="_top" xlink:title="EH 対応を実施">
<polygon fill="white" stroke="black" points="910,-496.5 910,-515.5 990,-515.5 990,-496.5 910,-496.5"/>
<text text-anchor="middle" x="950" y="-503.5" font-family="Helvetica,sans-Serif" font-size="10.00">EH_respond_</text>
</a>
</g>
</g>
<!-- Node25&#45;&gt;Node52 -->
<g id="edge54" class="edge">
<title>Node25&#45;&gt;Node52</title>
<path fill="none" stroke="midnightblue" d="M1106.6,-422.66C1087.71,-440.45 1055.47,-468.3 1023,-485 1012.81,-490.24 1001.12,-494.36 990.16,-497.51"/>
<polygon fill="midnightblue" stroke="midnightblue" points="1109.05,-425.17 1113.85,-415.72 1104.21,-420.11 1109.05,-425.17"/>
</g>
<!-- Node60 -->
<g id="node47" class="node">
<title>Node60</title>
<g id="a_node47"><a xlink:href="mode__manager_8c.html#a4a483437e28116e6067d488392922a8f" target="_top" xlink:title="(モード遷移に対応する)ブロックコマンドのタイムラインへの展開を行う">
<polygon fill="white" stroke="black" points="882,-330.5 882,-349.5 1018,-349.5 1018,-330.5 882,-330.5"/>
<text text-anchor="middle" x="950" y="-337.5" font-family="Helvetica,sans-Serif" font-size="10.00">MM_deploy_block_cmd_</text>
</a>
</g>
</g>
<!-- Node25&#45;&gt;Node60 -->
<g id="edge57" class="edge">
<title>Node25&#45;&gt;Node60</title>
<path fill="none" stroke="midnightblue" d="M1096.31,-391.66C1076.4,-381.56 1048.52,-368.25 1023,-359 1013.28,-355.48 1002.6,-352.3 992.51,-349.6"/>
<polygon fill="midnightblue" stroke="midnightblue" points="1094.9,-394.87 1105.4,-396.32 1098.1,-388.64 1094.9,-394.87"/>
</g>
<!-- Node27 -->
<g id="node20" class="node">
<title>Node27</title>
<g id="a_node20"><a xlink:href="anomaly__handler_8c.html#a91a15ad7eda6409b6380ed9a409f76fc" target="_top" xlink:title=" ">
<polygon fill="white" stroke="black" points="723.5,-272.5 723.5,-291.5 787.5,-291.5 787.5,-272.5 723.5,-272.5"/>
<text text-anchor="middle" x="755.5" y="-279.5" font-family="Helvetica,sans-Serif" font-size="10.00">AH_exec_</text>
</a>
</g>
</g>
<!-- Node26&#45;&gt;Node27 -->
<g id="edge23" class="edge">
<title>Node26&#45;&gt;Node27</title>
<path fill="none" stroke="midnightblue" d="M868.05,-286.06C839.63,-285.02 809.4,-283.92 787.58,-283.13"/>
<polygon fill="midnightblue" stroke="midnightblue" points="868.29,-289.57 878.41,-286.43 868.55,-282.57 868.29,-289.57"/>
</g>
<!-- Node28 -->
<g id="node21" class="node">
<title>Node28</title>
<g id="a_node21"><a xlink:href="anomaly__handler_8h.html#a527184a40c59e88853557f2fd32f1c98" target="_top" xlink:title=" ">
<polygon fill="white" stroke="black" points="305,-247.5 305,-266.5 395,-266.5 395,-247.5 305,-247.5"/>
<text text-anchor="middle" x="350" y="-254.5" font-family="Helvetica,sans-Serif" font-size="10.00">AH_create_app</text>
</a>
</g>
</g>
<!-- Node27&#45;&gt;Node28 -->
<g id="edge24" class="edge">
<title>Node27&#45;&gt;Node28</title>
<path fill="none" stroke="midnightblue" d="M712.96,-279.43C636.39,-274.68 473.68,-264.6 395.18,-259.74"/>
<polygon fill="midnightblue" stroke="midnightblue" points="712.98,-282.93 723.17,-280.06 713.41,-275.95 712.98,-282.93"/>
</g>
<!-- Node22 -->
<g id="node22" class="node">
<title>Node22</title>
<g id="a_node22"><a xlink:href="app__registry_8h.html#ab944b1d78a41e427bc2ed57f9c4e9534" target="_top" xlink:title=" ">
<polygon fill="white" stroke="black" points="119,-190.5 119,-209.5 253,-209.5 253,-190.5 119,-190.5"/>
<text text-anchor="middle" x="186" y="-197.5" font-family="Helvetica,sans-Serif" font-size="10.00">AR_load_initial_settings</text>
</a>
</g>
</g>
<!-- Node28&#45;&gt;Node22 -->
<g id="edge25" class="edge">
<title>Node28&#45;&gt;Node22</title>
<path fill="none" stroke="midnightblue" d="M312.26,-244.07C282.45,-233.58 241.1,-219.04 214.2,-209.57"/>
<polygon fill="midnightblue" stroke="midnightblue" points="311.29,-247.44 321.88,-247.46 313.61,-240.84 311.29,-247.44"/>
</g>
<!-- Node22&#45;&gt;Node7 -->
<g id="edge26" class="edge">
<title>Node22&#45;&gt;Node7</title>
<path fill="none" stroke="midnightblue" d="M164.74,-216.21C134.66,-240.27 79.1,-284.72 54.62,-304.31"/>
<polygon fill="midnightblue" stroke="midnightblue" points="167.23,-218.7 172.85,-209.72 162.86,-213.23 167.23,-218.7"/>
</g>
<!-- Node30 -->
<g id="node24" class="node">
<title>Node30</title>
<g id="a_node24"><a xlink:href="block__command__executor_8h.html#a8fc9800360fc4f594c23209a9fa5a516" target="_top" xlink:title=" ">
<polygon fill="white" stroke="black" points="678.5,-456.5 678.5,-475.5 832.5,-475.5 832.5,-456.5 678.5,-456.5"/>
<text text-anchor="middle" x="755.5" y="-463.5" font-family="Helvetica,sans-Serif" font-size="10.00">Cmd_BCE_COMBINE_BLOCK</text>
</a>
</g>
</g>
<!-- Node29&#45;&gt;Node30 -->
<g id="edge28" class="edge">
<title>Node29&#45;&gt;Node30</title>
<path fill="none" stroke="midnightblue" d="M866.54,-466C855.29,-466 843.8,-466 832.67,-466"/>
<polygon fill="midnightblue" stroke="midnightblue" points="866.77,-469.5 876.77,-466 866.77,-462.5 866.77,-469.5"/>
</g>
<!-- Node30&#45;&gt;Node5 -->
<g id="edge29" class="edge">
<title>Node30&#45;&gt;Node5</title>
<path fill="none" stroke="midnightblue" d="M667.7,-466C588.59,-466 474.1,-466 406.63,-466"/>
<polygon fill="midnightblue" stroke="midnightblue" points="668.13,-469.5 678.13,-466 668.13,-462.5 668.13,-469.5"/>
</g>
<!-- Node32 -->
<g id="node26" class="node">
<title>Node32</title>
<g id="a_node26"><a xlink:href="block__command__executor_8h.html#a7a537f68d3f291d25a6a4eae3f99cb45" target="_top" xlink:title=" ">
<polygon fill="white" stroke="black" points="683,-418.5 683,-437.5 828,-437.5 828,-418.5 683,-418.5"/>
<text text-anchor="middle" x="755.5" y="-425.5" font-family="Helvetica,sans-Serif" font-size="10.00">Cmd_BCE_ROTATE_BLOCK</text>
</a>
</g>
</g>
<!-- Node31&#45;&gt;Node32 -->
<g id="edge31" class="edge">
<title>Node31&#45;&gt;Node32</title>
<path fill="none" stroke="midnightblue" d="M872.7,-428C858.01,-428 842.67,-428 828.13,-428"/>
<polygon fill="midnightblue" stroke="midnightblue" points="872.75,-431.5 882.75,-428 872.75,-424.5 872.75,-431.5"/>
</g>
<!-- Node32&#45;&gt;Node5 -->
<g id="edge32" class="edge">
<title>Node32&#45;&gt;Node5</title>
<path fill="none" stroke="midnightblue" d="M672.41,-435.73C593.24,-443.19 475.59,-454.27 406.76,-460.75"/>
<polygon fill="midnightblue" stroke="midnightblue" points="673.2,-439.17 682.83,-434.75 672.54,-432.2 673.2,-439.17"/>
</g>
<!-- Node34 -->
<g id="node28" class="node">
<title>Node34</title>
<g id="a_node28"><a xlink:href="block__command__executor_8h.html#a33ee70475b35e5606d83857c5843d29a" target="_top" xlink:title=" ">
<polygon fill="white" stroke="black" points="670,-369 670,-399 841,-399 841,-369 670,-369"/>
<text text-anchor="start" x="678" y="-387" font-family="Helvetica,sans-Serif" font-size="10.00">Cmd_BCE_TIMELIMIT_COMBINE</text>
<text text-anchor="middle" x="755.5" y="-376" font-family="Helvetica,sans-Serif" font-size="10.00">_BLOCK</text>
</a>
</g>
</g>
<!-- Node33&#45;&gt;Node34 -->
<g id="edge34" class="edge">
<title>Node33&#45;&gt;Node34</title>
<path fill="none" stroke="midnightblue" d="M872.58,-384C862.28,-384 851.66,-384 841.23,-384"/>
<polygon fill="midnightblue" stroke="midnightblue" points="872.75,-387.5 882.75,-384 872.75,-380.5 872.75,-387.5"/>
</g>
<!-- Node34&#45;&gt;Node5 -->
<g id="edge35" class="edge">
<title>Node34&#45;&gt;Node5</title>
<path fill="none" stroke="midnightblue" d="M659.74,-397.26C598.63,-406.56 517.67,-420.3 447,-437 423.96,-442.44 398.3,-450.29 379.32,-456.45"/>
<polygon fill="midnightblue" stroke="midnightblue" points="660.39,-400.7 669.75,-395.74 659.34,-393.78 660.39,-400.7"/>
</g>
<!-- Node36 -->
<g id="node30" class="node">
<title>Node36</title>
<g id="a_node30"><a xlink:href="di__aobc_8c.html#ac2b0fb03e89d75b82419d4ad53202f8b" target="_top" xlink:title=" ">
<polygon fill="white" stroke="black" points="681.5,-202.5 681.5,-221.5 829.5,-221.5 829.5,-202.5 681.5,-202.5"/>
<text text-anchor="middle" x="755.5" y="-209.5" font-family="Helvetica,sans-Serif" font-size="10.00">DI_AOBC_cmd_dispatcher_</text>
</a>
</g>
</g>
<!-- Node35&#45;&gt;Node36 -->
<g id="edge37" class="edge">
<title>Node35&#45;&gt;Node36</title>
<path fill="none" stroke="midnightblue" d="M917.94,-140.71C878.72,-158.03 812.25,-187.38 778.13,-202.45"/>
<polygon fill="midnightblue" stroke="midnightblue" points="919.56,-143.83 927.29,-136.59 916.73,-137.42 919.56,-143.83"/>
</g>
<!-- Node38 -->
<g id="node32" class="node">
<title>Node38</title>
<g id="a_node32"><a xlink:href="gs__command__dispatcher_8c.html#a4fe4cfc8c0f816a286dc50d8797cef54" target="_top" xlink:title="GSCD App 実行関数">
<polygon fill="white" stroke="black" points="707.5,-41.5 707.5,-60.5 803.5,-60.5 803.5,-41.5 707.5,-41.5"/>
<text text-anchor="middle" x="755.5" y="-48.5" font-family="Helvetica,sans-Serif" font-size="10.00">GSCD_dispatch_</text>
</a>
</g>
</g>
<!-- Node35&#45;&gt;Node38 -->
<g id="edge39" class="edge">
<title>Node35&#45;&gt;Node38</title>
<path fill="none" stroke="midnightblue" d="M923.03,-112.51C901.53,-100.94 869.94,-84.92 841,-74 827.2,-68.79 811.73,-64.23 797.83,-60.57"/>
<polygon fill="midnightblue" stroke="midnightblue" points="921.41,-115.61 931.87,-117.32 924.76,-109.47 921.41,-115.61"/>
</g>
<!-- Node40 -->
<g id="node34" class="node">
<title>Node40</title>
<g id="a_node34"><a xlink:href="realtime__command__dispatcher_8c.html#aa66b7d158969999a789dc69d2d5b1b7d" target="_top" xlink:title=" ">
<polygon fill="white" stroke="black" points="708.5,-3.5 708.5,-22.5 802.5,-22.5 802.5,-3.5 708.5,-3.5"/>
<text text-anchor="middle" x="755.5" y="-10.5" font-family="Helvetica,sans-Serif" font-size="10.00">RTCD_dispatch_</text>
</a>
</g>
</g>
<!-- Node35&#45;&gt;Node40 -->
<g id="edge42" class="edge">
<title>Node35&#45;&gt;Node40</title>
<path fill="none" stroke="midnightblue" d="M934.45,-109.71C915.29,-88.12 879.5,-51.62 841,-32 829.21,-25.99 815.54,-21.87 802.68,-19.05"/>
<polygon fill="midnightblue" stroke="midnightblue" points="931.97,-112.2 941.17,-117.45 937.26,-107.61 931.97,-112.2"/>
</g>
<!-- Node42 -->
<g id="node36" class="node">
<title>Node42</title>
<g id="a_node36"><a xlink:href="task__dispatcher_8h.html#ac880fe6e26ecdf8711d08980cad6787d" target="_top" xlink:title="現在時刻に応じて、TaskList から Cmd を一つ実行する or TaskList を再展開する">
<polygon fill="white" stroke="black" points="697.5,-84 697.5,-114 813.5,-114 813.5,-84 697.5,-84"/>
<text text-anchor="start" x="705.5" y="-102" font-family="Helvetica,sans-Serif" font-size="10.00">TDSP_execute_pl_as</text>
<text text-anchor="middle" x="755.5" y="-91" font-family="Helvetica,sans-Serif" font-size="10.00">_task_list</text>
</a>
</g>
</g>
<!-- Node35&#45;&gt;Node42 -->
<g id="edge45" class="edge">
<title>Node35&#45;&gt;Node42</title>
<path fill="none" stroke="midnightblue" d="M873.59,-116.03C853.67,-113.13 832.49,-110.05 813.71,-107.32"/>
<polygon fill="midnightblue" stroke="midnightblue" points="873.16,-119.51 883.56,-117.48 874.17,-112.58 873.16,-119.51"/>
</g>
<!-- Node45 -->
<g id="node39" class="node">
<title>Node45</title>
<g id="a_node39"><a xlink:href="timeline__command__dispatcher_8c.html#a81ac915e803ac30a27f6488af9ce45ad" target="_top" xlink:title=" ">
<polygon fill="white" stroke="black" points="710.5,-139.5 710.5,-158.5 800.5,-158.5 800.5,-139.5 710.5,-139.5"/>
<text text-anchor="middle" x="755.5" y="-146.5" font-family="Helvetica,sans-Serif" font-size="10.00">tlc_dispatcher_</text>
</a>
</g>
</g>
<!-- Node35&#45;&gt;Node45 -->
<g id="edge48" class="edge">
<title>Node35&#45;&gt;Node45</title>
<path fill="none" stroke="midnightblue" d="M869.75,-136.06C846.12,-138.76 821.07,-141.62 800.56,-143.96"/>
<polygon fill="midnightblue" stroke="midnightblue" points="870.24,-139.52 879.78,-134.91 869.44,-132.57 870.24,-139.52"/>
</g>
<!-- Node37 -->
<g id="node31" class="node">
<title>Node37</title>
<g id="a_node31"><a xlink:href="di__aobc_8h.html#a22b846ecf2fe48c7bff4f2c10f2bc284" target="_top" xlink:title="AOBC cmd dispatcher アプリ生成関数">
<polygon fill="white" stroke="black" points="469,-228.5 469,-247.5 612,-247.5 612,-228.5 469,-228.5"/>
<text text-anchor="middle" x="540.5" y="-235.5" font-family="Helvetica,sans-Serif" font-size="10.00">DI_AOBC_cmd_dispatcher</text>
</a>
</g>
</g>
<!-- Node36&#45;&gt;Node37 -->
<g id="edge38" class="edge">
<title>Node36&#45;&gt;Node37</title>
<path fill="none" stroke="midnightblue" d="M671.39,-222.14C651.84,-224.53 631.19,-227.05 612.25,-229.36"/>
<polygon fill="midnightblue" stroke="midnightblue" points="671.99,-225.6 681.5,-220.91 671.15,-218.65 671.99,-225.6"/>
</g>
<!-- Node39 -->
<g id="node33" class="node">
<title>Node39</title>
<g id="a_node33"><a xlink:href="gs__command__dispatcher_8h.html#a0195f703ab1a606ae7541ef886e609bc" target="_top" xlink:title="GSCD App 生成関数">
<polygon fill="white" stroke="black" points="298,-38.5 298,-57.5 402,-57.5 402,-38.5 298,-38.5"/>
<text text-anchor="middle" x="350" y="-45.5" font-family="Helvetica,sans-Serif" font-size="10.00">GSCD_create_app</text>
</a>
</g>
</g>
<!-- Node38&#45;&gt;Node39 -->
<g id="edge40" class="edge">
<title>Node38&#45;&gt;Node39</title>
<path fill="none" stroke="midnightblue" d="M697.19,-50.57C618.37,-49.99 477.69,-48.94 402.21,-48.38"/>
<polygon fill="midnightblue" stroke="midnightblue" points="697.4,-54.08 707.42,-50.65 697.45,-47.08 697.4,-54.08"/>
</g>
<!-- Node39&#45;&gt;Node22 -->
<g id="edge41" class="edge">
<title>Node39&#45;&gt;Node22</title>
<path fill="none" stroke="midnightblue" d="M297.7,-61.8C294.66,-63.36 291.73,-65.09 289,-67 240.16,-101.25 204.13,-165.93 191.72,-190.35"/>
<polygon fill="midnightblue" stroke="midnightblue" points="299.39,-64.88 307.1,-57.62 296.54,-58.49 299.39,-64.88"/>
</g>
<!-- Node41 -->
<g id="node35" class="node">
<title>Node41</title>
<g id="a_node35"><a xlink:href="realtime__command__dispatcher_8h.html#a6de82e8f79b0281c403be56abfaec6ba" target="_top" xlink:title=" ">
<polygon fill="white" stroke="black" points="299.5,-0.5 299.5,-19.5 400.5,-19.5 400.5,-0.5 299.5,-0.5"/>
<text text-anchor="middle" x="350" y="-7.5" font-family="Helvetica,sans-Serif" font-size="10.00">RTCD_create_app</text>
</a>
</g>
</g>
<!-- Node40&#45;&gt;Node41 -->
<g id="edge43" class="edge">
<title>Node40&#45;&gt;Node41</title>
<path fill="none" stroke="midnightblue" d="M697.93,-12.58C618.66,-11.99 475.8,-10.93 400.51,-10.37"/>
<polygon fill="midnightblue" stroke="midnightblue" points="698.19,-16.08 708.21,-12.66 698.24,-9.08 698.19,-16.08"/>
</g>
<!-- Node41&#45;&gt;Node22 -->
<g id="edge44" class="edge">
<title>Node41&#45;&gt;Node22</title>
<path fill="none" stroke="midnightblue" d="M296.33,-24.06C293.75,-25.55 291.29,-27.19 289,-29 231.82,-74.28 199.61,-161.09 190.05,-190.2"/>
<polygon fill="midnightblue" stroke="midnightblue" points="298.02,-27.13 305.45,-19.58 294.93,-20.85 298.02,-27.13"/>
</g>
<!-- Node43 -->
<g id="node37" class="node">
<title>Node43</title>
<g id="a_node37"><a xlink:href="c2a__core__main_8h.html#a64e3c69d223ce8236ab718278b17b195" target="_top" xlink:title=" ">
<polygon fill="white" stroke="black" points="494.5,-76.5 494.5,-95.5 586.5,-95.5 586.5,-76.5 494.5,-76.5"/>
<text text-anchor="middle" x="540.5" y="-83.5" font-family="Helvetica,sans-Serif" font-size="10.00">C2A_core_main</text>
</a>
</g>
</g>
<!-- Node42&#45;&gt;Node43 -->
<g id="edge46" class="edge">
<title>Node42&#45;&gt;Node43</title>
<path fill="none" stroke="midnightblue" d="M687.43,-94.91C654.56,-92.9 615.87,-90.54 586.59,-88.75"/>
<polygon fill="midnightblue" stroke="midnightblue" points="687.23,-98.4 697.42,-95.52 687.65,-91.41 687.23,-98.4"/>
</g>
<!-- Node44 -->
<g id="node38" class="node">
<title>Node44</title>
<g id="a_node38"><a xlink:href="c2a__main_8c.html#a06acf8a326dfbc653a6b7094d98099b9" target="_top" xlink:title=" ">
<polygon fill="white" stroke="red" points="314.5,-76.5 314.5,-95.5 385.5,-95.5 385.5,-76.5 314.5,-76.5"/>
<text text-anchor="middle" x="350" y="-83.5" font-family="Helvetica,sans-Serif" font-size="10.00">C2A_main_</text>
</a>
</g>
</g>
<!-- Node43&#45;&gt;Node44 -->
<g id="edge47" class="edge">
<title>Node43&#45;&gt;Node44</title>
<path fill="none" stroke="midnightblue" d="M484.28,-86C452.43,-86 413.34,-86 385.76,-86"/>
<polygon fill="midnightblue" stroke="midnightblue" points="484.35,-89.5 494.35,-86 484.35,-82.5 484.35,-89.5"/>
</g>
<!-- Node46 -->
<g id="node40" class="node">
<title>Node46</title>
<g id="a_node40"><a xlink:href="timeline__command__dispatcher_8c.html#a901708d936509614c56fe989ec93c9ad" target="_top" xlink:title=" ">
<polygon fill="white" stroke="black" points="490.5,-190.5 490.5,-209.5 590.5,-209.5 590.5,-190.5 490.5,-190.5"/>
<text text-anchor="middle" x="540.5" y="-197.5" font-family="Helvetica,sans-Serif" font-size="10.00">TLCD0_dispatch_</text>
</a>
</g>
</g>
<!-- Node45&#45;&gt;Node46 -->
<g id="edge49" class="edge">
<title>Node45&#45;&gt;Node46</title>
<path fill="none" stroke="midnightblue" d="M710.87,-161.23C688.05,-167.46 659.6,-174.98 634,-181 619.96,-184.3 604.64,-187.58 590.58,-190.46"/>
<polygon fill="midnightblue" stroke="midnightblue" points="711.89,-164.58 720.61,-158.55 710.04,-157.83 711.89,-164.58"/>
</g>
<!-- Node48 -->
<g id="node42" class="node">
<title>Node48</title>
<g id="a_node42"><a xlink:href="timeline__command__dispatcher_8c.html#aff4f663a7670bf6eb1be99911bd5cf79" target="_top" xlink:title=" ">
<polygon fill="white" stroke="red" points="490.5,-152.5 490.5,-171.5 590.5,-171.5 590.5,-152.5 490.5,-152.5"/>
<text text-anchor="middle" x="540.5" y="-159.5" font-family="Helvetica,sans-Serif" font-size="10.00">TLCD1_dispatch_</text>
</a>
</g>
</g>
<!-- Node45&#45;&gt;Node48 -->
<g id="edge52" class="edge">
<title>Node45&#45;&gt;Node48</title>
<path fill="none" stroke="midnightblue" d="M700.22,-152.31C666.51,-154.37 623.52,-156.99 590.79,-158.99"/>
<polygon fill="midnightblue" stroke="midnightblue" points="700.6,-155.8 710.37,-151.69 700.17,-148.81 700.6,-155.8"/>
</g>
<!-- Node50 -->
<g id="node43" class="node">
<title>Node50</title>
<g id="a_node43"><a xlink:href="timeline__command__dispatcher_8c.html#aa498bfb7d65299eb0327e26591b69fa4" target="_top" xlink:title=" ">
<polygon fill="white" stroke="red" points="490.5,-114.5 490.5,-133.5 590.5,-133.5 590.5,-114.5 490.5,-114.5"/>
<text text-anchor="middle" x="540.5" y="-121.5" font-family="Helvetica,sans-Serif" font-size="10.00">TLCD2_dispatch_</text>
</a>
</g>
</g>
<!-- Node45&#45;&gt;Node50 -->
<g id="edge53" class="edge">
<title>Node45&#45;&gt;Node50</title>
<path fill="none" stroke="midnightblue" d="M700.22,-142.63C666.51,-138.67 623.52,-133.63 590.79,-129.79"/>
<polygon fill="midnightblue" stroke="midnightblue" points="700.03,-146.13 710.37,-143.82 700.84,-139.18 700.03,-146.13"/>
</g>
<!-- Node47 -->
<g id="node41" class="node">
<title>Node47</title>
<g id="a_node41"><a xlink:href="timeline__command__dispatcher_8h.html#a5c3636e3f9ba660572455a68f07a3c8e" target="_top" xlink:title=" ">
<polygon fill="white" stroke="black" points="296.5,-190.5 296.5,-209.5 403.5,-209.5 403.5,-190.5 296.5,-190.5"/>
<text text-anchor="middle" x="350" y="-197.5" font-family="Helvetica,sans-Serif" font-size="10.00">TLCD0_create_app</text>
</a>
</g>
</g>
<!-- Node46&#45;&gt;Node47 -->
<g id="edge50" class="edge">
<title>Node46&#45;&gt;Node47</title>
<path fill="none" stroke="midnightblue" d="M480.21,-200C455.71,-200 427.53,-200 403.75,-200"/>
<polygon fill="midnightblue" stroke="midnightblue" points="480.47,-203.5 490.47,-200 480.47,-196.5 480.47,-203.5"/>
</g>
<!-- Node47&#45;&gt;Node22 -->
<g id="edge51" class="edge">
<title>Node47&#45;&gt;Node22</title>
<path fill="none" stroke="midnightblue" d="M286.21,-200C275.4,-200 264.14,-200 253.24,-200"/>
<polygon fill="midnightblue" stroke="midnightblue" points="286.4,-203.5 296.4,-200 286.4,-196.5 286.4,-203.5"/>
</g>
<!-- Node53 -->
<g id="node45" class="node">
<title>Node53</title>
<g id="a_node45"><a xlink:href="event__handler_8c.html#ac7461e79109f06783e2c620a6d999a6b" target="_top" xlink:title="EH の対応条件をチェックし， EL_Event に対応する">
<polygon fill="white" stroke="black" points="675,-497.5 675,-516.5 836,-516.5 836,-497.5 675,-497.5"/>
<text text-anchor="middle" x="755.5" y="-504.5" font-family="Helvetica,sans-Serif" font-size="10.00">EH_check_rule_and_respond_</text>
</a>
</g>
</g>
<!-- Node52&#45;&gt;Node53 -->
<g id="edge55" class="edge">
<title>Node52&#45;&gt;Node53</title>
<path fill="none" stroke="midnightblue" d="M899.5,-506.26C880.17,-506.36 857.51,-506.48 836,-506.59"/>
<polygon fill="midnightblue" stroke="midnightblue" points="899.6,-509.76 909.58,-506.2 899.56,-502.76 899.6,-509.76"/>
</g>
<!-- Node54 -->
<g id="node46" class="node">
<title>Node54</title>
<g id="a_node46"><a xlink:href="event__handler_8c.html#a227ed3b7079c58dee50a81ce408549a2" target="_top" xlink:title="EL_Event に対応する EH_Rule が存在するかチェックし，対応する">
<polygon fill="white" stroke="red" points="480.5,-495 480.5,-525 600.5,-525 600.5,-495 480.5,-495"/>
<text text-anchor="start" x="488.5" y="-513" font-family="Helvetica,sans-Serif" font-size="10.00">EH_check_event_and</text>
<text text-anchor="middle" x="540.5" y="-502" font-family="Helvetica,sans-Serif" font-size="10.00">_respond_</text>
</a>
</g>
</g>
<!-- Node53&#45;&gt;Node54 -->
<g id="edge56" class="edge">
<title>Node53&#45;&gt;Node54</title>
<path fill="none" stroke="midnightblue" d="M664.7,-508.26C643.1,-508.57 620.55,-508.89 600.74,-509.17"/>
<polygon fill="midnightblue" stroke="midnightblue" points="664.93,-511.76 674.88,-508.12 664.84,-504.76 664.93,-511.76"/>
</g>
<!-- Node61 -->
<g id="node48" class="node">
<title>Node61</title>
<g id="a_node48"><a xlink:href="mode__manager_8c.html#ae4381c1c84d8b5d8aa033e522530436d" target="_top" xlink:title="Cmd_MM_START_TRANSITIONの実体">
<polygon fill="white" stroke="black" points="696,-330.5 696,-349.5 815,-349.5 815,-330.5 696,-330.5"/>
<text text-anchor="middle" x="755.5" y="-337.5" font-family="Helvetica,sans-Serif" font-size="10.00">MM_start_transition_</text>
</a>
</g>
</g>
<!-- Node60&#45;&gt;Node61 -->
<g id="edge58" class="edge">
<title>Node60&#45;&gt;Node61</title>
<path fill="none" stroke="midnightblue" d="M871.89,-340C853.03,-340 833.15,-340 815.3,-340"/>
<polygon fill="midnightblue" stroke="midnightblue" points="871.94,-343.5 881.94,-340 871.94,-336.5 871.94,-343.5"/>
</g>
<!-- Node62 -->
<g id="node49" class="node">
<title>Node62</title>
<g id="a_node49"><a xlink:href="mode__manager_8h.html#ab54a8f93c525edc7f7f2283ad94af267" target="_top" xlink:title="モード遷移を開始するコマンド">
<polygon fill="white" stroke="black" points="459,-342.5 459,-361.5 622,-361.5 622,-342.5 459,-342.5"/>
<text text-anchor="middle" x="540.5" y="-349.5" font-family="Helvetica,sans-Serif" font-size="10.00">Cmd_MM_START_TRANSITION</text>
</a>
</g>
</g>
<!-- Node61&#45;&gt;Node62 -->
<g id="edge59" class="edge">
<title>Node61&#45;&gt;Node62</title>
<path fill="none" stroke="midnightblue" d="M685.7,-343.88C665.52,-345.01 643.26,-346.27 622.4,-347.44"/>
<polygon fill="midnightblue" stroke="midnightblue" points="685.95,-347.37 695.73,-343.31 685.55,-340.38 685.95,-347.37"/>
</g>
<!-- Node63 -->
<g id="node50" class="node">
<title>Node63</title>
<g id="a_node50"><a xlink:href="mode__manager_8h.html#a89fbf516698fe6c690438e21ec8efd82" target="_top" xlink:title="モード遷移を管理する ModeManager 構造体 (mode_manager_) の初期化">
<polygon fill="white" stroke="black" points="145,-304.5 145,-323.5 227,-323.5 227,-304.5 145,-304.5"/>
<text text-anchor="middle" x="186" y="-311.5" font-family="Helvetica,sans-Serif" font-size="10.00">MM_initialize</text>
</a>
</g>
</g>
<!-- Node61&#45;&gt;Node63 -->
<g id="edge61" class="edge">
<title>Node61&#45;&gt;Node63</title>
<path fill="none" stroke="midnightblue" d="M685.63,-335.81C668.75,-334.84 650.73,-333.84 634,-333 483.89,-325.45 305.32,-318.46 227.08,-315.49"/>
<polygon fill="midnightblue" stroke="midnightblue" points="685.79,-339.33 695.98,-336.42 686.2,-332.34 685.79,-339.33"/>
</g>
<!-- Node62&#45;&gt;Node5 -->
<g id="edge60" class="edge">
<title>Node62&#45;&gt;Node5</title>
<path fill="none" stroke="midnightblue" d="M474.17,-364.55C464.75,-367.6 455.41,-371.37 447,-376 408.18,-397.38 373.07,-438.04 358.33,-456.48"/>
<polygon fill="midnightblue" stroke="midnightblue" points="475.39,-367.83 483.97,-361.62 473.38,-361.13 475.39,-367.83"/>
</g>
<!-- Node63&#45;&gt;Node7 -->
<g id="edge62" class="edge">
<title>Node63&#45;&gt;Node7</title>
<path fill="none" stroke="midnightblue" d="M134.7,-314C117.85,-314 99.29,-314 83.26,-314"/>
<polygon fill="midnightblue" stroke="midnightblue" points="134.93,-317.5 144.93,-314 134.93,-310.5 134.93,-317.5"/>
</g>
</g>
</svg>
