<?xml version="1.0" encoding="UTF-8" standalone="no"?>
<!DOCTYPE svg PUBLIC "-//W3C//DTD SVG 1.1//EN"
 "http://www.w3.org/Graphics/SVG/1.1/DTD/svg11.dtd">
<!-- Generated by graphviz version 2.43.0 (0)
 -->
<!-- Title: CCP_get_apid Pages: 1 -->
<svg width="2287pt" height="534pt"
 viewBox="0.00 0.00 2287.00 534.20" xmlns="http://www.w3.org/2000/svg" xmlns:xlink="http://www.w3.org/1999/xlink">
<g id="graph0" class="graph" transform="scale(1 1) rotate(0) translate(4 530.2)">
<title>CCP_get_apid</title>
<polygon fill="white" stroke="transparent" points="-4,4 -4,-530.2 2283,-530.2 2283,4 -4,4"/>
<!-- Node1 -->
<g id="node1" class="node">
<title>Node1</title>
<g id="a_node1"><a xlink:title="APID を取得">
<polygon fill="#bfbfbf" stroke="black" points="2196,-367 2196,-386 2279,-386 2279,-367 2196,-367"/>
<text text-anchor="middle" x="2237.5" y="-374" font-family="Helvetica,sans-Serif" font-size="10.00">CCP_get_apid</text>
</a>
</g>
</g>
<!-- Node2 -->
<g id="node2" class="node">
<title>Node2</title>
<g id="a_node2"><a xlink:href="packet__handler_8c.html#aa0decb14f7fee73ca1ed3e9a10b05087" target="_top" xlink:title="CCP をコマンドとして解釈して実行，ないしは別機器へ配送する">
<polygon fill="white" stroke="black" points="1876,-367 1876,-386 2007,-386 2007,-367 1876,-367"/>
<text text-anchor="middle" x="1941.5" y="-374" font-family="Helvetica,sans-Serif" font-size="10.00">PH_dispatch_command</text>
</a>
</g>
</g>
<!-- Node1&#45;&gt;Node2 -->
<g id="edge1" class="edge">
<title>Node1&#45;&gt;Node2</title>
<path fill="none" stroke="midnightblue" d="M2185.79,-376.5C2136.34,-376.5 2060.94,-376.5 2007.19,-376.5"/>
<polygon fill="midnightblue" stroke="midnightblue" points="2185.93,-380 2195.93,-376.5 2185.93,-373 2185.93,-380"/>
</g>
<!-- Node47 -->
<g id="node47" class="node">
<title>Node47</title>
<g id="a_node47"><a xlink:href="user__packet__handler_8c.html#a30e628852fd804a52dc0d6ae476a8a01" target="_top" xlink:title="PH の PH_dispatch_command のユーザー処理関数">
<polygon fill="white" stroke="black" points="2043,-348 2043,-367 2160,-367 2160,-348 2043,-348"/>
<text text-anchor="middle" x="2101.5" y="-355" font-family="Helvetica,sans-Serif" font-size="10.00">PH_user_cmd_router</text>
</a>
</g>
</g>
<!-- Node1&#45;&gt;Node47 -->
<g id="edge61" class="edge">
<title>Node1&#45;&gt;Node47</title>
<path fill="none" stroke="midnightblue" d="M2185.92,-369.33C2177.53,-368.14 2168.78,-366.9 2160.23,-365.69"/>
<polygon fill="midnightblue" stroke="midnightblue" points="2185.54,-372.81 2195.93,-370.75 2186.52,-365.88 2185.54,-372.81"/>
</g>
<!-- Node3 -->
<g id="node3" class="node">
<title>Node3</title>
<g id="a_node3"><a xlink:href="block__command__executor_8c.html#a1d6498edea23a380f4ae53bb0460eab0" target="_top" xlink:title="BC をまとめて一括で実行する">
<polygon fill="white" stroke="black" points="1693.5,-502 1693.5,-521 1839.5,-521 1839.5,-502 1693.5,-502"/>
<text text-anchor="middle" x="1766.5" y="-509" font-family="Helvetica,sans-Serif" font-size="10.00">BCE_combine_block_cmd_</text>
</a>
</g>
</g>
<!-- Node2&#45;&gt;Node3 -->
<g id="edge2" class="edge">
<title>Node2&#45;&gt;Node3</title>
<path fill="none" stroke="midnightblue" d="M1928.89,-394.6C1912.15,-419.31 1878.92,-463.37 1840,-488.5 1831.13,-494.23 1820.72,-498.63 1810.6,-501.96"/>
<polygon fill="midnightblue" stroke="midnightblue" points="1931.88,-396.44 1934.48,-386.16 1926.04,-392.57 1931.88,-396.44"/>
</g>
<!-- Node11 -->
<g id="node11" class="node">
<title>Node11</title>
<g id="a_node11"><a xlink:href="block__command__executor_8c.html#acfd4781edc83a7f69a37cd5c7de290c1" target="_top" xlink:title="rotator の実行主体">
<polygon fill="white" stroke="black" points="1699.5,-460 1699.5,-479 1833.5,-479 1833.5,-460 1699.5,-460"/>
<text text-anchor="middle" x="1766.5" y="-467" font-family="Helvetica,sans-Serif" font-size="10.00">BCE_rotate_block_cmd_</text>
</a>
</g>
</g>
<!-- Node2&#45;&gt;Node11 -->
<g id="edge11" class="edge">
<title>Node2&#45;&gt;Node11</title>
<path fill="none" stroke="midnightblue" d="M1919.4,-391.98C1899.58,-406.07 1868.74,-426.85 1840,-441.5 1826.05,-448.61 1809.86,-455.02 1796.32,-459.91"/>
<polygon fill="midnightblue" stroke="midnightblue" points="1921.61,-394.7 1927.69,-386.02 1917.52,-389.02 1921.61,-394.7"/>
</g>
<!-- Node13 -->
<g id="node13" class="node">
<title>Node13</title>
<g id="a_node13"><a xlink:href="block__command__executor_8c.html#ac58bdb2e659454871477f4250903f51d" target="_top" xlink:title="BC をまとめて一括で実行する">
<polygon fill="white" stroke="black" points="1699.5,-402.5 1699.5,-432.5 1833.5,-432.5 1833.5,-402.5 1699.5,-402.5"/>
<text text-anchor="start" x="1707.5" y="-420.5" font-family="Helvetica,sans-Serif" font-size="10.00">BCE_timelimit_combine</text>
<text text-anchor="middle" x="1766.5" y="-409.5" font-family="Helvetica,sans-Serif" font-size="10.00">_block_cmd_</text>
</a>
</g>
</g>
<!-- Node2&#45;&gt;Node13 -->
<g id="edge14" class="edge">
<title>Node2&#45;&gt;Node13</title>
<path fill="none" stroke="midnightblue" d="M1890.4,-388.37C1871.89,-392.76 1850.67,-397.79 1831.12,-402.42"/>
<polygon fill="midnightblue" stroke="midnightblue" points="1891.45,-391.72 1900.38,-386.01 1889.84,-384.91 1891.45,-391.72"/>
</g>
<!-- Node15 -->
<g id="node15" class="node">
<title>Node15</title>
<g id="a_node15"><a xlink:href="common__cmd__packet__util_8c.html#a667d05b68ff9924ced9b5bf3e419e0f1" target="_top" xlink:title="BC展開 command を生成し，即時実行する">
<polygon fill="white" stroke="black" points="1693,-337.5 1693,-367.5 1840,-367.5 1840,-337.5 1693,-337.5"/>
<text text-anchor="start" x="1701" y="-355.5" font-family="Helvetica,sans-Serif" font-size="10.00">CCP_form_and_exec_block</text>
<text text-anchor="middle" x="1766.5" y="-344.5" font-family="Helvetica,sans-Serif" font-size="10.00">_deploy_cmd</text>
</a>
</g>
</g>
<!-- Node2&#45;&gt;Node15 -->
<g id="edge17" class="edge">
<title>Node2&#45;&gt;Node15</title>
<path fill="none" stroke="midnightblue" d="M1865.41,-366.08C1856.99,-364.91 1848.42,-363.73 1840.03,-362.56"/>
<polygon fill="midnightblue" stroke="midnightblue" points="1865.2,-369.59 1875.59,-367.5 1866.16,-362.65 1865.2,-369.59"/>
</g>
<!-- Node29 -->
<g id="node29" class="node">
<title>Node29</title>
<g id="a_node29"><a xlink:href="common__cmd__packet__util_8c.html#a6647f2fbe6dabb44871bd9216c315a46" target="_top" xlink:title="Realtime command を生成し，即時実行する">
<polygon fill="white" stroke="black" points="1699.5,-227 1699.5,-246 1833.5,-246 1833.5,-227 1699.5,-227"/>
<text text-anchor="middle" x="1766.5" y="-234" font-family="Helvetica,sans-Serif" font-size="10.00">CCP_form_and_exec_rtc</text>
</a>
</g>
</g>
<!-- Node2&#45;&gt;Node29 -->
<g id="edge36" class="edge">
<title>Node2&#45;&gt;Node29</title>
<path fill="none" stroke="midnightblue" d="M1929.25,-358.18C1912.72,-332.74 1879.51,-286.85 1840,-260.5 1830.73,-254.32 1819.74,-249.61 1809.16,-246.07"/>
<polygon fill="midnightblue" stroke="midnightblue" points="1926.43,-360.28 1934.75,-366.85 1932.35,-356.53 1926.43,-360.28"/>
</g>
<!-- Node30 -->
<g id="node30" class="node">
<title>Node30</title>
<g id="a_node30"><a xlink:href="command__dispatcher_8c.html#a90617acff33923f51c212b8e3034712c" target="_top" xlink:title="CDIS に登録されているコマンドキューからコマンドを実行">
<polygon fill="white" stroke="black" points="1113,-107 1113,-126 1253,-126 1253,-107 1113,-107"/>
<text text-anchor="middle" x="1183" y="-114" font-family="Helvetica,sans-Serif" font-size="10.00">CDIS_dispatch_command</text>
</a>
</g>
</g>
<!-- Node2&#45;&gt;Node30 -->
<g id="edge37" class="edge">
<title>Node2&#45;&gt;Node30</title>
<path fill="none" stroke="midnightblue" d="M1913.59,-362.08C1893.62,-351.7 1865.54,-337.77 1840,-327.5 1608.86,-234.53 1319.67,-153.19 1219.83,-126.08"/>
<polygon fill="midnightblue" stroke="midnightblue" points="1912.21,-365.31 1922.7,-366.86 1915.47,-359.11 1912.21,-365.31"/>
</g>
<!-- Node4 -->
<g id="node4" class="node">
<title>Node4</title>
<g id="a_node4"><a xlink:href="block__command__executor_8c.html#abb0608b32539dc732cc08efca4a451df" target="_top" xlink:title=" ">
<polygon fill="white" stroke="black" points="1292.5,-505 1292.5,-524 1446.5,-524 1446.5,-505 1292.5,-505"/>
<text text-anchor="middle" x="1369.5" y="-512" font-family="Helvetica,sans-Serif" font-size="10.00">Cmd_BCE_COMBINE_BLOCK</text>
</a>
</g>
</g>
<!-- Node3&#45;&gt;Node4 -->
<g id="edge3" class="edge">
<title>Node3&#45;&gt;Node4</title>
<path fill="none" stroke="midnightblue" d="M1682.99,-512.13C1613.3,-512.66 1514.31,-513.41 1446.53,-513.92"/>
<polygon fill="midnightblue" stroke="midnightblue" points="1683.08,-515.63 1693.05,-512.05 1683.02,-508.63 1683.08,-515.63"/>
</g>
<!-- Node5 -->
<g id="node5" class="node">
<title>Node5</title>
<g id="a_node5"><a xlink:href="command__analyze_8h.html#aa375895192b16d8e7f0ff4545b54e6c4" target="_top" xlink:title="Cmd Tableのロード">
<polygon fill="white" stroke="black" points="566,-410 566,-429 679,-429 679,-410 566,-410"/>
<text text-anchor="middle" x="622.5" y="-417" font-family="Helvetica,sans-Serif" font-size="10.00">CA_load_cmd_table</text>
</a>
</g>
</g>
<!-- Node4&#45;&gt;Node5 -->
<g id="edge4" class="edge">
<title>Node4&#45;&gt;Node5</title>
<path fill="none" stroke="midnightblue" d="M1282.12,-521.57C1157.37,-529.07 920.79,-533.09 730,-476.5 694.21,-465.89 656.7,-442.47 637.17,-429.19"/>
<polygon fill="midnightblue" stroke="midnightblue" points="1282.61,-525.04 1292.37,-520.93 1282.17,-518.06 1282.61,-525.04"/>
</g>
<!-- Node6 -->
<g id="node6" class="node">
<title>Node6</title>
<g id="a_node6"><a xlink:href="command__analyze_8c.html#ae6d1f376bf4e1c9c4b63bc3f04924c8a" target="_top" xlink:title="CA の初期化">
<polygon fill="white" stroke="black" points="409.5,-372 409.5,-391 486.5,-391 486.5,-372 409.5,-372"/>
<text text-anchor="middle" x="448" y="-379" font-family="Helvetica,sans-Serif" font-size="10.00">CA_initialize</text>
</a>
</g>
</g>
<!-- Node5&#45;&gt;Node6 -->
<g id="edge5" class="edge">
<title>Node5&#45;&gt;Node6</title>
<path fill="none" stroke="midnightblue" d="M568.12,-407.74C541.73,-401.93 510.51,-395.05 486.66,-389.8"/>
<polygon fill="midnightblue" stroke="midnightblue" points="567.45,-411.18 577.97,-409.91 568.96,-404.34 567.45,-411.18"/>
</g>
<!-- Node7 -->
<g id="node7" class="node">
<title>Node7</title>
<g id="a_node7"><a xlink:href="c2a__core__main_8c.html#a65ecdc63d8762ffde4db7f6c6e6f07cf" target="_top" xlink:title=" ">
<polygon fill="white" stroke="black" points="262,-234 262,-253 345,-253 345,-234 262,-234"/>
<text text-anchor="middle" x="303.5" y="-241" font-family="Helvetica,sans-Serif" font-size="10.00">C2A_core_init</text>
</a>
</g>
</g>
<!-- Node6&#45;&gt;Node7 -->
<g id="edge6" class="edge">
<title>Node6&#45;&gt;Node7</title>
<path fill="none" stroke="midnightblue" d="M429.45,-364.51C399.33,-335.34 338.7,-276.62 314.66,-253.33"/>
<polygon fill="midnightblue" stroke="midnightblue" points="427.13,-367.13 436.75,-371.58 432,-362.1 427.13,-367.13"/>
</g>
<!-- Node10 -->
<g id="node10" class="node">
<title>Node10</title>
<g id="a_node10"><a xlink:href="command__analyze_8c.html#a85d8daea84970ad2895a0209bd350b7b" target="_top" xlink:title=" ">
<polygon fill="white" stroke="black" points="262,-391 262,-410 345,-410 345,-391 262,-391"/>
<text text-anchor="middle" x="303.5" y="-398" font-family="Helvetica,sans-Serif" font-size="10.00">Cmd_CA_INIT</text>
</a>
</g>
</g>
<!-- Node6&#45;&gt;Node10 -->
<g id="edge9" class="edge">
<title>Node6&#45;&gt;Node10</title>
<path fill="none" stroke="midnightblue" d="M399.17,-387.88C381.67,-390.21 362.06,-392.83 345.24,-395.07"/>
<polygon fill="midnightblue" stroke="midnightblue" points="399.74,-391.33 409.19,-386.54 398.81,-384.39 399.74,-391.33"/>
</g>
<!-- Node8 -->
<g id="node8" class="node">
<title>Node8</title>
<g id="a_node8"><a xlink:href="c2a__main_8c.html#a630222a80cd8bffd4426d4a55a215069" target="_top" xlink:title=" ">
<polygon fill="white" stroke="black" points="159.5,-177 159.5,-196 221.5,-196 221.5,-177 159.5,-177"/>
<text text-anchor="middle" x="190.5" y="-184" font-family="Helvetica,sans-Serif" font-size="10.00">C2A_init_</text>
</a>
</g>
</g>
<!-- Node7&#45;&gt;Node8 -->
<g id="edge7" class="edge">
<title>Node7&#45;&gt;Node8</title>
<path fill="none" stroke="midnightblue" d="M274.89,-229.32C254.7,-218.95 227.85,-205.17 210.14,-196.07"/>
<polygon fill="midnightblue" stroke="midnightblue" points="273.43,-232.5 283.92,-233.96 276.62,-226.28 273.43,-232.5"/>
</g>
<!-- Node9 -->
<g id="node9" class="node">
<title>Node9</title>
<g id="a_node9"><a xlink:href="c2a__main_8c.html#ac3344a311adda8f9e7310924bedf81fc" target="_top" xlink:title=" ">
<polygon fill="white" stroke="black" points="0,-101 0,-120 119,-120 119,-101 0,-101"/>
<text text-anchor="middle" x="59.5" y="-108" font-family="Helvetica,sans-Serif" font-size="10.00">address_fixed_main_</text>
</a>
</g>
</g>
<!-- Node8&#45;&gt;Node9 -->
<g id="edge8" class="edge">
<title>Node8&#45;&gt;Node9</title>
<path fill="none" stroke="midnightblue" d="M164.29,-171.64C138.35,-156.37 98.73,-133.03 76.71,-120.05"/>
<polygon fill="midnightblue" stroke="midnightblue" points="162.77,-174.81 173.16,-176.87 166.32,-168.78 162.77,-174.81"/>
</g>
<!-- Node10&#45;&gt;Node5 -->
<g id="edge10" class="edge">
<title>Node10&#45;&gt;Node5</title>
<path fill="none" stroke="midnightblue" d="M355.71,-403.57C413.32,-407.02 506.58,-412.61 565.92,-416.17"/>
<polygon fill="midnightblue" stroke="midnightblue" points="355.58,-400.06 345.39,-402.95 355.16,-407.04 355.58,-400.06"/>
</g>
<!-- Node12 -->
<g id="node12" class="node">
<title>Node12</title>
<g id="a_node12"><a xlink:href="block__command__executor_8c.html#adc05f3761578b7c2170e54e3f5b13c3e" target="_top" xlink:title=" ">
<polygon fill="white" stroke="black" points="1297,-467 1297,-486 1442,-486 1442,-467 1297,-467"/>
<text text-anchor="middle" x="1369.5" y="-474" font-family="Helvetica,sans-Serif" font-size="10.00">Cmd_BCE_ROTATE_BLOCK</text>
</a>
</g>
</g>
<!-- Node11&#45;&gt;Node12 -->
<g id="edge12" class="edge">
<title>Node11&#45;&gt;Node12</title>
<path fill="none" stroke="midnightblue" d="M1689.11,-470.85C1617.74,-472.12 1511.99,-473.99 1442.18,-475.23"/>
<polygon fill="midnightblue" stroke="midnightblue" points="1689.45,-474.35 1699.39,-470.67 1689.33,-467.35 1689.45,-474.35"/>
</g>
<!-- Node12&#45;&gt;Node5 -->
<g id="edge13" class="edge">
<title>Node12&#45;&gt;Node5</title>
<path fill="none" stroke="midnightblue" d="M1286.5,-480.25C1164.29,-484.29 927.56,-486.21 730,-452.5 701.19,-447.58 669.31,-436.99 648.01,-429.12"/>
<polygon fill="midnightblue" stroke="midnightblue" points="1286.66,-483.74 1296.53,-479.9 1286.42,-476.75 1286.66,-483.74"/>
</g>
<!-- Node14 -->
<g id="node14" class="node">
<title>Node14</title>
<g id="a_node14"><a xlink:href="block__command__executor_8c.html#aaf3687244959da89ab0bc25a86cff912" target="_top" xlink:title=" ">
<polygon fill="white" stroke="black" points="1486,-406.5 1486,-436.5 1657,-436.5 1657,-406.5 1486,-406.5"/>
<text text-anchor="start" x="1494" y="-424.5" font-family="Helvetica,sans-Serif" font-size="10.00">Cmd_BCE_TIMELIMIT_COMBINE</text>
<text text-anchor="middle" x="1571.5" y="-413.5" font-family="Helvetica,sans-Serif" font-size="10.00">_BLOCK</text>
</a>
</g>
</g>
<!-- Node13&#45;&gt;Node14 -->
<g id="edge15" class="edge">
<title>Node13&#45;&gt;Node14</title>
<path fill="none" stroke="midnightblue" d="M1689.06,-419.08C1678.63,-419.3 1667.88,-419.52 1657.32,-419.74"/>
<polygon fill="midnightblue" stroke="midnightblue" points="1689.43,-422.58 1699.35,-418.87 1689.28,-415.58 1689.43,-422.58"/>
</g>
<!-- Node14&#45;&gt;Node5 -->
<g id="edge16" class="edge">
<title>Node14&#45;&gt;Node5</title>
<path fill="none" stroke="midnightblue" d="M1475.41,-428.01C1397.21,-432.81 1283.47,-438.5 1184,-438.5 1184,-438.5 1184,-438.5 1002,-438.5 887.19,-438.5 753.03,-429.67 679.25,-424.05"/>
<polygon fill="midnightblue" stroke="midnightblue" points="1475.96,-431.49 1485.72,-427.37 1475.53,-424.5 1475.96,-431.49"/>
</g>
<!-- Node16 -->
<g id="node16" class="node">
<title>Node16</title>
<g id="a_node16"><a xlink:href="event__handler_8c.html#a8d7de705ac2b09f9f25644f0c9f55952" target="_top" xlink:title="EH 対応を実施">
<polygon fill="white" stroke="black" points="1531.5,-343 1531.5,-362 1611.5,-362 1611.5,-343 1531.5,-343"/>
<text text-anchor="middle" x="1571.5" y="-350" font-family="Helvetica,sans-Serif" font-size="10.00">EH_respond_</text>
</a>
</g>
</g>
<!-- Node15&#45;&gt;Node16 -->
<g id="edge18" class="edge">
<title>Node15&#45;&gt;Node16</title>
<path fill="none" stroke="midnightblue" d="M1682.69,-352.5C1658,-352.5 1632.08,-352.5 1611.6,-352.5"/>
<polygon fill="midnightblue" stroke="midnightblue" points="1682.81,-356 1692.81,-352.5 1682.81,-349 1682.81,-356"/>
</g>
<!-- Node25 -->
<g id="node25" class="node">
<title>Node25</title>
<g id="a_node25"><a xlink:href="mode__manager_8c.html#a4a483437e28116e6067d488392922a8f" target="_top" xlink:title="(モード遷移に対応する)ブロックコマンドのタイムラインへの展開を行う">
<polygon fill="white" stroke="black" points="1503.5,-304 1503.5,-323 1639.5,-323 1639.5,-304 1503.5,-304"/>
<text text-anchor="middle" x="1571.5" y="-311" font-family="Helvetica,sans-Serif" font-size="10.00">MM_deploy_block_cmd_</text>
</a>
</g>
</g>
<!-- Node15&#45;&gt;Node25 -->
<g id="edge30" class="edge">
<title>Node15&#45;&gt;Node25</title>
<path fill="none" stroke="midnightblue" d="M1682.96,-335.82C1661.34,-331.45 1638.77,-326.89 1619.71,-323.04"/>
<polygon fill="midnightblue" stroke="midnightblue" points="1682.31,-339.26 1692.81,-337.81 1683.7,-332.4 1682.31,-339.26"/>
</g>
<!-- Node17 -->
<g id="node17" class="node">
<title>Node17</title>
<g id="a_node17"><a xlink:href="event__handler_8c.html#ac7461e79109f06783e2c620a6d999a6b" target="_top" xlink:title="EH の対応条件をチェックし， EL_Event に対応する">
<polygon fill="white" stroke="black" points="1289,-343 1289,-362 1450,-362 1450,-343 1289,-343"/>
<text text-anchor="middle" x="1369.5" y="-350" font-family="Helvetica,sans-Serif" font-size="10.00">EH_check_rule_and_respond_</text>
</a>
</g>
</g>
<!-- Node16&#45;&gt;Node17 -->
<g id="edge19" class="edge">
<title>Node16&#45;&gt;Node17</title>
<path fill="none" stroke="midnightblue" d="M1521.34,-352.5C1499.97,-352.5 1474.38,-352.5 1450.4,-352.5"/>
<polygon fill="midnightblue" stroke="midnightblue" points="1521.46,-356 1531.46,-352.5 1521.46,-349 1521.46,-356"/>
</g>
<!-- Node18 -->
<g id="node18" class="node">
<title>Node18</title>
<g id="a_node18"><a xlink:href="event__handler_8c.html#a227ed3b7079c58dee50a81ce408549a2" target="_top" xlink:title="EL_Event に対応する EH_Rule が存在するかチェックし，対応する">
<polygon fill="white" stroke="black" points="1123,-379.5 1123,-409.5 1243,-409.5 1243,-379.5 1123,-379.5"/>
<text text-anchor="start" x="1131" y="-397.5" font-family="Helvetica,sans-Serif" font-size="10.00">EH_check_event_and</text>
<text text-anchor="middle" x="1183" y="-386.5" font-family="Helvetica,sans-Serif" font-size="10.00">_respond_</text>
</a>
</g>
</g>
<!-- Node17&#45;&gt;Node18 -->
<g id="edge20" class="edge">
<title>Node17&#45;&gt;Node18</title>
<path fill="none" stroke="midnightblue" d="M1316.77,-364.28C1293.9,-369.48 1266.87,-375.64 1243.19,-381.03"/>
<polygon fill="midnightblue" stroke="midnightblue" points="1317.66,-367.66 1326.63,-362.03 1316.11,-360.84 1317.66,-367.66"/>
</g>
<!-- Node19 -->
<g id="node19" class="node">
<title>Node19</title>
<g id="a_node19"><a xlink:href="event__handler_8c.html#af084576db8b00a4c7e4b117314b128db" target="_top" xlink:title="上位の EH の対応条件をチェックし，対応する">
<polygon fill="white" stroke="black" points="938.5,-338.5 938.5,-368.5 1067.5,-368.5 1067.5,-338.5 938.5,-338.5"/>
<text text-anchor="start" x="946.5" y="-356.5" font-family="Helvetica,sans-Serif" font-size="10.00">EH_check_higher_level</text>
<text text-anchor="middle" x="1003" y="-345.5" font-family="Helvetica,sans-Serif" font-size="10.00">_rule_and_respond_</text>
</a>
</g>
</g>
<!-- Node18&#45;&gt;Node19 -->
<g id="edge21" class="edge">
<title>Node18&#45;&gt;Node19</title>
<path fill="none" stroke="midnightblue" d="M1112.61,-378.52C1097.78,-375.1 1082.19,-371.51 1067.6,-368.15"/>
<polygon fill="midnightblue" stroke="midnightblue" points="1112.2,-382.01 1122.73,-380.85 1113.77,-375.19 1112.2,-382.01"/>
</g>
<!-- Node20 -->
<g id="node20" class="node">
<title>Node20</title>
<g id="a_node20"><a xlink:href="event__handler_8c.html#a76ddd224739890733cbd318e2d5c015b" target="_top" xlink:title="event_handler の実行">
<polygon fill="white" stroke="black" points="966,-388 966,-407 1040,-407 1040,-388 966,-388"/>
<text text-anchor="middle" x="1003" y="-395" font-family="Helvetica,sans-Serif" font-size="10.00">EH_execute</text>
</a>
</g>
</g>
<!-- Node18&#45;&gt;Node20 -->
<g id="edge23" class="edge">
<title>Node18&#45;&gt;Node20</title>
<path fill="none" stroke="midnightblue" d="M1112.64,-395.67C1087.9,-396.09 1061.03,-396.54 1040.2,-396.89"/>
<polygon fill="midnightblue" stroke="midnightblue" points="1112.79,-399.17 1122.73,-395.5 1112.67,-392.17 1112.79,-399.17"/>
</g>
<!-- Node19&#45;&gt;Node17 -->
<g id="edge22" class="edge">
<title>Node19&#45;&gt;Node17</title>
<path fill="none" stroke="midnightblue" d="M1077.99,-353.3C1139.28,-353.13 1226.19,-352.89 1288.96,-352.72"/>
<polygon fill="midnightblue" stroke="midnightblue" points="1077.61,-349.8 1067.62,-353.33 1077.63,-356.8 1077.61,-349.8"/>
</g>
<!-- Node21 -->
<g id="node21" class="node">
<title>Node21</title>
<g id="a_node21"><a xlink:href="event__utility_8c.html#a3c9e15f86a1f5af7de31347158f1d228" target="_top" xlink:title=" ">
<polygon fill="white" stroke="black" points="735,-391 735,-410 888,-410 888,-391 735,-391"/>
<text text-anchor="middle" x="811.5" y="-398" font-family="Helvetica,sans-Serif" font-size="10.00">Cmd_EVENT_UTIL_EXEC_EH</text>
</a>
</g>
</g>
<!-- Node20&#45;&gt;Node21 -->
<g id="edge24" class="edge">
<title>Node20&#45;&gt;Node21</title>
<path fill="none" stroke="midnightblue" d="M955.68,-398.23C935.34,-398.56 910.93,-398.94 888.08,-399.3"/>
<polygon fill="midnightblue" stroke="midnightblue" points="955.97,-401.73 965.91,-398.07 955.86,-394.73 955.97,-401.73"/>
</g>
<!-- Node22 -->
<g id="node22" class="node">
<title>Node22</title>
<g id="a_node22"><a xlink:href="event__utility_8c.html#a548bb66aea76e09e9f801c10fad11b98" target="_top" xlink:title=" ">
<polygon fill="white" stroke="black" points="751.5,-353 751.5,-372 871.5,-372 871.5,-353 751.5,-353"/>
<text text-anchor="middle" x="811.5" y="-360" font-family="Helvetica,sans-Serif" font-size="10.00">EVENT_UTIL_update_</text>
</a>
</g>
</g>
<!-- Node20&#45;&gt;Node22 -->
<g id="edge26" class="edge">
<title>Node20&#45;&gt;Node22</title>
<path fill="none" stroke="midnightblue" d="M956.07,-389.02C928.33,-383.89 892.92,-377.35 864.21,-372.05"/>
<polygon fill="midnightblue" stroke="midnightblue" points="955.44,-392.46 965.91,-390.83 956.71,-385.58 955.44,-392.46"/>
</g>
<!-- Node21&#45;&gt;Node5 -->
<g id="edge25" class="edge">
<title>Node21&#45;&gt;Node5</title>
<path fill="none" stroke="midnightblue" d="M724.85,-409.2C709.34,-410.78 693.54,-412.38 679.17,-413.84"/>
<polygon fill="midnightblue" stroke="midnightblue" points="725.38,-412.67 734.98,-408.17 724.68,-405.7 725.38,-412.67"/>
</g>
<!-- Node23 -->
<g id="node23" class="node">
<title>Node23</title>
<g id="a_node23"><a xlink:href="event__utility_8c.html#aa819ee69e6cd34b9217e9627ee12f70c" target="_top" xlink:title=" ">
<polygon fill="white" stroke="black" points="555,-334 555,-353 690,-353 690,-334 555,-334"/>
<text text-anchor="middle" x="622.5" y="-341" font-family="Helvetica,sans-Serif" font-size="10.00">EVENT_UTIL_create_app</text>
</a>
</g>
</g>
<!-- Node22&#45;&gt;Node23 -->
<g id="edge27" class="edge">
<title>Node22&#45;&gt;Node23</title>
<path fill="none" stroke="midnightblue" d="M741.11,-355.45C724.42,-353.75 706.64,-351.95 690.09,-350.27"/>
<polygon fill="midnightblue" stroke="midnightblue" points="741.03,-358.96 751.33,-356.49 741.74,-352 741.03,-358.96"/>
</g>
<!-- Node24 -->
<g id="node24" class="node">
<title>Node24</title>
<g id="a_node24"><a xlink:href="app__registry_8c.html#ab944b1d78a41e427bc2ed57f9c4e9534" target="_top" xlink:title=" ">
<polygon fill="white" stroke="black" points="381,-177 381,-196 515,-196 515,-177 381,-177"/>
<text text-anchor="middle" x="448" y="-184" font-family="Helvetica,sans-Serif" font-size="10.00">AR_load_initial_settings</text>
</a>
</g>
</g>
<!-- Node23&#45;&gt;Node24 -->
<g id="edge28" class="edge">
<title>Node23&#45;&gt;Node24</title>
<path fill="none" stroke="midnightblue" d="M605.06,-326.46C584.54,-305.42 548.1,-268.83 515,-239.5 497.18,-223.71 475.48,-206.68 461.95,-196.3"/>
<polygon fill="midnightblue" stroke="midnightblue" points="602.63,-328.98 612.11,-333.71 607.65,-324.1 602.63,-328.98"/>
</g>
<!-- Node24&#45;&gt;Node7 -->
<g id="edge29" class="edge">
<title>Node24&#45;&gt;Node7</title>
<path fill="none" stroke="midnightblue" d="M413.65,-199.84C387.51,-210.3 351.78,-224.59 328.43,-233.93"/>
<polygon fill="midnightblue" stroke="midnightblue" points="415.16,-203 423.15,-196.04 412.56,-196.5 415.16,-203"/>
</g>
<!-- Node26 -->
<g id="node26" class="node">
<title>Node26</title>
<g id="a_node26"><a xlink:href="mode__manager_8c.html#ae4381c1c84d8b5d8aa033e522530436d" target="_top" xlink:title="Cmd_MM_START_TRANSITIONの実体">
<polygon fill="white" stroke="black" points="943.5,-300 943.5,-319 1062.5,-319 1062.5,-300 943.5,-300"/>
<text text-anchor="middle" x="1003" y="-307" font-family="Helvetica,sans-Serif" font-size="10.00">MM_start_transition_</text>
</a>
</g>
</g>
<!-- Node25&#45;&gt;Node26 -->
<g id="edge31" class="edge">
<title>Node25&#45;&gt;Node26</title>
<path fill="none" stroke="midnightblue" d="M1493.17,-312.95C1378.38,-312.14 1165.4,-310.64 1062.57,-309.91"/>
<polygon fill="midnightblue" stroke="midnightblue" points="1493.27,-316.45 1503.29,-313.03 1493.32,-309.45 1493.27,-316.45"/>
</g>
<!-- Node27 -->
<g id="node27" class="node">
<title>Node27</title>
<g id="a_node27"><a xlink:href="mode__manager_8c.html#a4ab015aaa816ea5bb1aab8d9b5c1d114" target="_top" xlink:title="モード遷移を開始するコマンド">
<polygon fill="white" stroke="black" points="730,-315 730,-334 893,-334 893,-315 730,-315"/>
<text text-anchor="middle" x="811.5" y="-322" font-family="Helvetica,sans-Serif" font-size="10.00">Cmd_MM_START_TRANSITION</text>
</a>
</g>
</g>
<!-- Node26&#45;&gt;Node27 -->
<g id="edge32" class="edge">
<title>Node26&#45;&gt;Node27</title>
<path fill="none" stroke="midnightblue" d="M933.1,-314.95C920.13,-315.98 906.46,-317.06 893.16,-318.12"/>
<polygon fill="midnightblue" stroke="midnightblue" points="933.65,-318.42 943.34,-314.14 933.09,-311.44 933.65,-318.42"/>
</g>
<!-- Node28 -->
<g id="node28" class="node">
<title>Node28</title>
<g id="a_node28"><a xlink:href="mode__manager_8c.html#a89fbf516698fe6c690438e21ec8efd82" target="_top" xlink:title="モード遷移を管理する ModeManager 構造体 (mode_manager_) の初期化">
<polygon fill="white" stroke="black" points="407,-249 407,-268 489,-268 489,-249 407,-249"/>
<text text-anchor="middle" x="448" y="-256" font-family="Helvetica,sans-Serif" font-size="10.00">MM_initialize</text>
</a>
</g>
</g>
<!-- Node26&#45;&gt;Node28 -->
<g id="edge34" class="edge">
<title>Node26&#45;&gt;Node28</title>
<path fill="none" stroke="midnightblue" d="M933.09,-303.14C816.27,-292.37 582.94,-270.85 489.28,-262.21"/>
<polygon fill="midnightblue" stroke="midnightblue" points="933.06,-306.66 943.34,-304.09 933.71,-299.69 933.06,-306.66"/>
</g>
<!-- Node27&#45;&gt;Node5 -->
<g id="edge33" class="edge">
<title>Node27&#45;&gt;Node5</title>
<path fill="none" stroke="midnightblue" d="M747.15,-336.96C741.25,-338.86 735.45,-341.03 730,-343.5 691.11,-361.14 651.9,-393.86 633.82,-410"/>
<polygon fill="midnightblue" stroke="midnightblue" points="748.53,-340.2 757.13,-334.01 746.55,-333.49 748.53,-340.2"/>
</g>
<!-- Node28&#45;&gt;Node7 -->
<g id="edge35" class="edge">
<title>Node28&#45;&gt;Node7</title>
<path fill="none" stroke="midnightblue" d="M396.7,-253.2C379.85,-251.43 361.29,-249.48 345.26,-247.79"/>
<polygon fill="midnightblue" stroke="midnightblue" points="396.62,-256.72 406.93,-254.28 397.35,-249.75 396.62,-256.72"/>
</g>
<!-- Node31 -->
<g id="node31" class="node">
<title>Node31</title>
<g id="a_node31"><a xlink:href="di__aobc_8c.html#ac2b0fb03e89d75b82419d4ad53202f8b" target="_top" xlink:title=" ">
<polygon fill="white" stroke="black" points="929,-126 929,-145 1077,-145 1077,-126 929,-126"/>
<text text-anchor="middle" x="1003" y="-133" font-family="Helvetica,sans-Serif" font-size="10.00">DI_AOBC_cmd_dispatcher_</text>
</a>
</g>
</g>
<!-- Node30&#45;&gt;Node31 -->
<g id="edge38" class="edge">
<title>Node30&#45;&gt;Node31</title>
<path fill="none" stroke="midnightblue" d="M1102.94,-124.94C1094.36,-125.85 1085.66,-126.78 1077.16,-127.69"/>
<polygon fill="midnightblue" stroke="midnightblue" points="1103.35,-128.41 1112.93,-123.87 1102.61,-121.45 1103.35,-128.41"/>
</g>
<!-- Node33 -->
<g id="node33" class="node">
<title>Node33</title>
<g id="a_node33"><a xlink:href="gs__command__dispatcher_8c.html#a4fe4cfc8c0f816a286dc50d8797cef54" target="_top" xlink:title="GSCD App 実行関数">
<polygon fill="white" stroke="black" points="955,-88 955,-107 1051,-107 1051,-88 955,-88"/>
<text text-anchor="middle" x="1003" y="-95" font-family="Helvetica,sans-Serif" font-size="10.00">GSCD_dispatch_</text>
</a>
</g>
</g>
<!-- Node30&#45;&gt;Node33 -->
<g id="edge41" class="edge">
<title>Node30&#45;&gt;Node33</title>
<path fill="none" stroke="midnightblue" d="M1102.63,-108.03C1085,-106.15 1066.86,-104.21 1051.03,-102.52"/>
<polygon fill="midnightblue" stroke="midnightblue" points="1102.61,-111.55 1112.93,-109.13 1103.35,-104.59 1102.61,-111.55"/>
</g>
<!-- Node35 -->
<g id="node35" class="node">
<title>Node35</title>
<g id="a_node35"><a xlink:href="realtime__command__dispatcher_8c.html#aa66b7d158969999a789dc69d2d5b1b7d" target="_top" xlink:title=" ">
<polygon fill="white" stroke="black" points="956,-50 956,-69 1050,-69 1050,-50 956,-50"/>
<text text-anchor="middle" x="1003" y="-57" font-family="Helvetica,sans-Serif" font-size="10.00">RTCD_dispatch_</text>
</a>
</g>
</g>
<!-- Node30&#45;&gt;Node35 -->
<g id="edge44" class="edge">
<title>Node30&#45;&gt;Node35</title>
<path fill="none" stroke="midnightblue" d="M1148.11,-103.33C1127.67,-95.62 1101.03,-85.96 1077,-78.5 1066.24,-75.16 1054.48,-71.92 1043.59,-69.09"/>
<polygon fill="midnightblue" stroke="midnightblue" points="1147.02,-106.66 1157.61,-106.95 1149.51,-100.12 1147.02,-106.66"/>
</g>
<!-- Node37 -->
<g id="node37" class="node">
<title>Node37</title>
<g id="a_node37"><a xlink:href="task__dispatcher_8c.html#ac880fe6e26ecdf8711d08980cad6787d" target="_top" xlink:title="現在時刻に応じて、TaskList から Cmd を一つ実行する or TaskList を再展開する">
<polygon fill="white" stroke="black" points="945,-0.5 945,-30.5 1061,-30.5 1061,-0.5 945,-0.5"/>
<text text-anchor="start" x="953" y="-18.5" font-family="Helvetica,sans-Serif" font-size="10.00">TDSP_execute_pl_as</text>
<text text-anchor="middle" x="1003" y="-7.5" font-family="Helvetica,sans-Serif" font-size="10.00">_task_list</text>
</a>
</g>
</g>
<!-- Node30&#45;&gt;Node37 -->
<g id="edge47" class="edge">
<title>Node30&#45;&gt;Node37</title>
<path fill="none" stroke="midnightblue" d="M1163.3,-100.3C1143.13,-83.5 1109.52,-57.35 1077,-40.5 1069.86,-36.8 1062.06,-33.46 1054.3,-30.52"/>
<polygon fill="midnightblue" stroke="midnightblue" points="1161.18,-103.1 1171.08,-106.88 1165.7,-97.75 1161.18,-103.1"/>
</g>
<!-- Node40 -->
<g id="node40" class="node">
<title>Node40</title>
<g id="a_node40"><a xlink:href="timeline__command__dispatcher_8c.html#adc7c7ed35f5cb69bb1d8baccd0193f8d" target="_top" xlink:title="指定された lien_no の Timeline コマンドを実行する">
<polygon fill="white" stroke="black" points="942.5,-182 942.5,-201 1063.5,-201 1063.5,-182 942.5,-182"/>
<text text-anchor="middle" x="1003" y="-189" font-family="Helvetica,sans-Serif" font-size="10.00">TLCD_tlc_dispatcher_</text>
</a>
</g>
</g>
<!-- Node30&#45;&gt;Node40 -->
<g id="edge51" class="edge">
<title>Node30&#45;&gt;Node40</title>
<path fill="none" stroke="midnightblue" d="M1149.66,-130.13C1114.14,-145.09 1058.01,-168.74 1026.82,-181.89"/>
<polygon fill="midnightblue" stroke="midnightblue" points="1151.24,-133.26 1159.09,-126.15 1148.52,-126.81 1151.24,-133.26"/>
</g>
<!-- Node32 -->
<g id="node32" class="node">
<title>Node32</title>
<g id="a_node32"><a xlink:href="di__aobc_8c.html#a22b846ecf2fe48c7bff4f2c10f2bc284" target="_top" xlink:title="AOBC cmd dispatcher アプリ生成関数">
<polygon fill="white" stroke="black" points="551,-125 551,-144 694,-144 694,-125 551,-125"/>
<text text-anchor="middle" x="622.5" y="-132" font-family="Helvetica,sans-Serif" font-size="10.00">DI_AOBC_cmd_dispatcher</text>
</a>
</g>
</g>
<!-- Node31&#45;&gt;Node32 -->
<g id="edge39" class="edge">
<title>Node31&#45;&gt;Node32</title>
<path fill="none" stroke="midnightblue" d="M918.43,-135.28C851.18,-135.1 757.72,-134.85 694.16,-134.69"/>
<polygon fill="midnightblue" stroke="midnightblue" points="918.56,-138.78 928.57,-135.31 918.58,-131.78 918.56,-138.78"/>
</g>
<!-- Node32&#45;&gt;Node24 -->
<g id="edge40" class="edge">
<title>Node32&#45;&gt;Node24</title>
<path fill="none" stroke="midnightblue" d="M575.14,-146.64C567.07,-148.86 558.78,-151.2 551,-153.5 526.02,-160.9 497.85,-170.08 477.46,-176.87"/>
<polygon fill="midnightblue" stroke="midnightblue" points="576.08,-150.01 584.81,-144.02 574.24,-143.26 576.08,-150.01"/>
</g>
<!-- Node34 -->
<g id="node34" class="node">
<title>Node34</title>
<g id="a_node34"><a xlink:href="gs__command__dispatcher_8c.html#a0195f703ab1a606ae7541ef886e609bc" target="_top" xlink:title="GSCD App 生成関数">
<polygon fill="white" stroke="black" points="570.5,-87 570.5,-106 674.5,-106 674.5,-87 570.5,-87"/>
<text text-anchor="middle" x="622.5" y="-94" font-family="Helvetica,sans-Serif" font-size="10.00">GSCD_create_app</text>
</a>
</g>
</g>
<!-- Node33&#45;&gt;Node34 -->
<g id="edge42" class="edge">
<title>Node33&#45;&gt;Node34</title>
<path fill="none" stroke="midnightblue" d="M944.83,-97.35C871.37,-97.15 744.98,-96.82 674.6,-96.63"/>
<polygon fill="midnightblue" stroke="midnightblue" points="944.82,-100.85 954.83,-97.38 944.84,-93.85 944.82,-100.85"/>
</g>
<!-- Node34&#45;&gt;Node24 -->
<g id="edge43" class="edge">
<title>Node34&#45;&gt;Node24</title>
<path fill="none" stroke="midnightblue" d="M566.84,-109.2C561.4,-111.06 556.03,-113.16 551,-115.5 515.01,-132.25 478.06,-161.6 460.13,-176.79"/>
<polygon fill="midnightblue" stroke="midnightblue" points="568.19,-112.44 576.67,-106.08 566.08,-105.77 568.19,-112.44"/>
</g>
<!-- Node36 -->
<g id="node36" class="node">
<title>Node36</title>
<g id="a_node36"><a xlink:href="realtime__command__dispatcher_8c.html#a6de82e8f79b0281c403be56abfaec6ba" target="_top" xlink:title=" ">
<polygon fill="white" stroke="black" points="761,-49 761,-68 862,-68 862,-49 761,-49"/>
<text text-anchor="middle" x="811.5" y="-56" font-family="Helvetica,sans-Serif" font-size="10.00">RTCD_create_app</text>
</a>
</g>
</g>
<!-- Node35&#45;&gt;Node36 -->
<g id="edge45" class="edge">
<title>Node35&#45;&gt;Node36</title>
<path fill="none" stroke="midnightblue" d="M945.36,-59.2C918.86,-59.06 887.58,-58.9 862.02,-58.76"/>
<polygon fill="midnightblue" stroke="midnightblue" points="945.62,-62.7 955.64,-59.26 945.66,-55.7 945.62,-62.7"/>
</g>
<!-- Node36&#45;&gt;Node24 -->
<g id="edge46" class="edge">
<title>Node36&#45;&gt;Node24</title>
<path fill="none" stroke="midnightblue" d="M750.71,-50.94C695.99,-46.71 614.18,-47.31 551,-77.5 504,-99.96 467.92,-154.35 454.59,-176.68"/>
<polygon fill="midnightblue" stroke="midnightblue" points="750.67,-54.45 760.93,-51.81 751.27,-47.48 750.67,-54.45"/>
</g>
<!-- Node38 -->
<g id="node38" class="node">
<title>Node38</title>
<g id="a_node38"><a xlink:href="c2a__core__main_8c.html#a64e3c69d223ce8236ab718278b17b195" target="_top" xlink:title=" ">
<polygon fill="white" stroke="black" points="765.5,-9 765.5,-28 857.5,-28 857.5,-9 765.5,-9"/>
<text text-anchor="middle" x="811.5" y="-16" font-family="Helvetica,sans-Serif" font-size="10.00">C2A_core_main</text>
</a>
</g>
</g>
<!-- Node37&#45;&gt;Node38 -->
<g id="edge48" class="edge">
<title>Node37&#45;&gt;Node38</title>
<path fill="none" stroke="midnightblue" d="M934.88,-16.56C909.33,-16.97 880.83,-17.42 857.77,-17.78"/>
<polygon fill="midnightblue" stroke="midnightblue" points="934.94,-20.06 944.89,-16.4 934.83,-13.06 934.94,-20.06"/>
</g>
<!-- Node39 -->
<g id="node39" class="node">
<title>Node39</title>
<g id="a_node39"><a xlink:href="c2a__main_8c.html#a06acf8a326dfbc653a6b7094d98099b9" target="_top" xlink:title=" ">
<polygon fill="white" stroke="black" points="155,-82 155,-101 226,-101 226,-82 155,-82"/>
<text text-anchor="middle" x="190.5" y="-89" font-family="Helvetica,sans-Serif" font-size="10.00">C2A_main_</text>
</a>
</g>
</g>
<!-- Node38&#45;&gt;Node39 -->
<g id="edge49" class="edge">
<title>Node38&#45;&gt;Node39</title>
<path fill="none" stroke="midnightblue" d="M755.34,-23.86C702.78,-29.05 621.44,-37.33 551,-45.5 431.62,-59.35 290.26,-78.14 226.17,-86.79"/>
<polygon fill="midnightblue" stroke="midnightblue" points="755.85,-27.33 765.46,-22.86 755.16,-20.36 755.85,-27.33"/>
</g>
<!-- Node39&#45;&gt;Node9 -->
<g id="edge50" class="edge">
<title>Node39&#45;&gt;Node9</title>
<path fill="none" stroke="midnightblue" d="M145.02,-98.05C136.65,-99.28 127.79,-100.59 119.07,-101.87"/>
<polygon fill="midnightblue" stroke="midnightblue" points="145.55,-101.51 154.93,-96.59 144.53,-94.59 145.55,-101.51"/>
</g>
<!-- Node41 -->
<g id="node41" class="node">
<title>Node41</title>
<g id="a_node41"><a xlink:href="timeline__command__dispatcher_8c.html#a66b090a512984479de9b511902b08514" target="_top" xlink:title=" ">
<polygon fill="white" stroke="black" points="756.5,-239 756.5,-258 866.5,-258 866.5,-239 756.5,-239"/>
<text text-anchor="middle" x="811.5" y="-246" font-family="Helvetica,sans-Serif" font-size="10.00">TLCD_bc_dispatch_</text>
</a>
</g>
</g>
<!-- Node40&#45;&gt;Node41 -->
<g id="edge52" class="edge">
<title>Node40&#45;&gt;Node41</title>
<path fill="none" stroke="midnightblue" d="M967.13,-204.69C945.88,-212.47 918.08,-222.19 893,-229.5 881.28,-232.92 868.47,-236.16 856.58,-238.96"/>
<polygon fill="midnightblue" stroke="midnightblue" points="968.53,-207.91 976.69,-201.16 966.1,-201.34 968.53,-207.91"/>
</g>
<!-- Node43 -->
<g id="node43" class="node">
<title>Node43</title>
<g id="a_node43"><a xlink:href="timeline__command__dispatcher_8c.html#a61acaaad8a32749d22fd16ee68d8522c" target="_top" xlink:title=" ">
<polygon fill="white" stroke="black" points="756.5,-201 756.5,-220 866.5,-220 866.5,-201 756.5,-201"/>
<text text-anchor="middle" x="811.5" y="-208" font-family="Helvetica,sans-Serif" font-size="10.00">TLCD_gs_dispatch_</text>
</a>
</g>
</g>
<!-- Node40&#45;&gt;Node43 -->
<g id="edge55" class="edge">
<title>Node40&#45;&gt;Node43</title>
<path fill="none" stroke="midnightblue" d="M932.2,-198.5C910.6,-200.66 887.14,-203.02 866.76,-205.06"/>
<polygon fill="midnightblue" stroke="midnightblue" points="932.7,-201.97 942.3,-197.49 932,-195 932.7,-201.97"/>
</g>
<!-- Node45 -->
<g id="node45" class="node">
<title>Node45</title>
<g id="a_node45"><a xlink:href="timeline__command__dispatcher_8c.html#ab6c98e6d001183d4d8b32f0c333c62d0" target="_top" xlink:title=" ">
<polygon fill="white" stroke="black" points="753.5,-163 753.5,-182 869.5,-182 869.5,-163 753.5,-163"/>
<text text-anchor="middle" x="811.5" y="-170" font-family="Helvetica,sans-Serif" font-size="10.00">TLCD_tlm_dispatch_</text>
</a>
</g>
</g>
<!-- Node40&#45;&gt;Node45 -->
<g id="edge58" class="edge">
<title>Node40&#45;&gt;Node45</title>
<path fill="none" stroke="midnightblue" d="M932.33,-184.51C911.71,-182.45 889.37,-180.21 869.63,-178.23"/>
<polygon fill="midnightblue" stroke="midnightblue" points="932,-188 942.3,-185.51 932.7,-181.03 932,-188"/>
</g>
<!-- Node42 -->
<g id="node42" class="node">
<title>Node42</title>
<g id="a_node42"><a xlink:href="timeline__command__dispatcher_8c.html#a613f71be9eb32486ac16a35bc5e02678" target="_top" xlink:title="TL1 (BC を展開する用の Timeline) の実行 App を作成する">
<polygon fill="white" stroke="black" points="563.5,-239 563.5,-258 681.5,-258 681.5,-239 563.5,-239"/>
<text text-anchor="middle" x="622.5" y="-246" font-family="Helvetica,sans-Serif" font-size="10.00">TLCD_bc_create_app</text>
</a>
</g>
</g>
<!-- Node41&#45;&gt;Node42 -->
<g id="edge53" class="edge">
<title>Node41&#45;&gt;Node42</title>
<path fill="none" stroke="midnightblue" d="M746.32,-248.5C725.36,-248.5 702.21,-248.5 681.71,-248.5"/>
<polygon fill="midnightblue" stroke="midnightblue" points="746.41,-252 756.41,-248.5 746.41,-245 746.41,-252"/>
</g>
<!-- Node42&#45;&gt;Node24 -->
<g id="edge54" class="edge">
<title>Node42&#45;&gt;Node24</title>
<path fill="none" stroke="midnightblue" d="M572.6,-236.25C565.31,-234.15 557.92,-231.88 551,-229.5 522.1,-219.57 489.75,-205.38 469.39,-196.06"/>
<polygon fill="midnightblue" stroke="midnightblue" points="571.85,-239.67 582.43,-238.98 573.73,-232.93 571.85,-239.67"/>
</g>
<!-- Node44 -->
<g id="node44" class="node">
<title>Node44</title>
<g id="a_node44"><a xlink:href="timeline__command__dispatcher_8c.html#aeb9665c53e8687acbe00da062d413ea3" target="_top" xlink:title="TL0 (GS から登録されるバス用の Timeline) の実行 App を作成する">
<polygon fill="white" stroke="black" points="563.5,-201 563.5,-220 681.5,-220 681.5,-201 563.5,-201"/>
<text text-anchor="middle" x="622.5" y="-208" font-family="Helvetica,sans-Serif" font-size="10.00">TLCD_gs_create_app</text>
</a>
</g>
</g>
<!-- Node43&#45;&gt;Node44 -->
<g id="edge56" class="edge">
<title>Node43&#45;&gt;Node44</title>
<path fill="none" stroke="midnightblue" d="M746.32,-210.5C725.36,-210.5 702.21,-210.5 681.71,-210.5"/>
<polygon fill="midnightblue" stroke="midnightblue" points="746.41,-214 756.41,-210.5 746.41,-207 746.41,-214"/>
</g>
<!-- Node44&#45;&gt;Node24 -->
<g id="edge57" class="edge">
<title>Node44&#45;&gt;Node24</title>
<path fill="none" stroke="midnightblue" d="M553.17,-200.99C540.62,-199.25 527.54,-197.43 515.06,-195.69"/>
<polygon fill="midnightblue" stroke="midnightblue" points="552.71,-204.46 563.1,-202.37 553.68,-197.53 552.71,-204.46"/>
</g>
<!-- Node46 -->
<g id="node46" class="node">
<title>Node46</title>
<g id="a_node46"><a xlink:href="timeline__command__dispatcher_8c.html#a420223ebba00f8b607cf320642276394" target="_top" xlink:title="TL2 (TLM を登録する用の Timeline) の実行 App を作成する">
<polygon fill="white" stroke="black" points="561,-163 561,-182 684,-182 684,-163 561,-163"/>
<text text-anchor="middle" x="622.5" y="-170" font-family="Helvetica,sans-Serif" font-size="10.00">TLCD_tlm_create_app</text>
</a>
</g>
</g>
<!-- Node45&#45;&gt;Node46 -->
<g id="edge59" class="edge">
<title>Node45&#45;&gt;Node46</title>
<path fill="none" stroke="midnightblue" d="M743.16,-172.5C723.89,-172.5 703.01,-172.5 684.17,-172.5"/>
<polygon fill="midnightblue" stroke="midnightblue" points="743.38,-176 753.38,-172.5 743.38,-169 743.38,-176"/>
</g>
<!-- Node46&#45;&gt;Node24 -->
<g id="edge60" class="edge">
<title>Node46&#45;&gt;Node24</title>
<path fill="none" stroke="midnightblue" d="M550.52,-178.26C538.81,-179.21 526.71,-180.19 515.13,-181.13"/>
<polygon fill="midnightblue" stroke="midnightblue" points="551,-181.73 560.68,-177.44 550.43,-174.76 551,-181.73"/>
</g>
<!-- Node47&#45;&gt;Node2 -->
<g id="edge62" class="edge">
<title>Node47&#45;&gt;Node2</title>
<path fill="none" stroke="midnightblue" d="M2032.42,-365.69C2024.02,-366.7 2015.45,-367.73 2007.1,-368.73"/>
<polygon fill="midnightblue" stroke="midnightblue" points="2033.05,-369.14 2042.56,-364.47 2032.22,-362.19 2033.05,-369.14"/>
</g>
</g>
</svg>
