<?xml version="1.0" encoding="UTF-8" standalone="no"?>
<!DOCTYPE svg PUBLIC "-//W3C//DTD SVG 1.1//EN"
 "http://www.w3.org/Graphics/SVG/1.1/DTD/svg11.dtd">
<!-- Generated by graphviz version 2.43.0 (0)
 -->
<!-- Title: CCP_prepare_bct_id_param_for_packet Pages: 1 -->
<svg width="821pt" height="192pt"
 viewBox="0.00 0.00 821.00 192.00" xmlns="http://www.w3.org/2000/svg" xmlns:xlink="http://www.w3.org/1999/xlink">
<g id="graph0" class="graph" transform="scale(1 1) rotate(0) translate(4 188)">
<title>CCP_prepare_bct_id_param_for_packet</title>
<polygon fill="white" stroke="transparent" points="-4,4 -4,-188 817,-188 817,4 -4,4"/>
<!-- Node1 -->
<g id="node1" class="node">
<title>Node1</title>
<g id="a_node1"><a xlink:title="Param Generator で bct_id_t のパラメタを登録">
<polygon fill="#bfbfbf" stroke="black" points="0,-83 0,-113 113,-113 113,-83 0,-83"/>
<text text-anchor="start" x="8" y="-101" font-family="Helvetica,sans-Serif" font-size="10.00">CCP_prepare_bct_id</text>
<text text-anchor="middle" x="56.5" y="-90" font-family="Helvetica,sans-Serif" font-size="10.00">_param_for_packet</text>
</a>
</g>
</g>
<!-- Node2 -->
<g id="node2" class="node">
<title>Node2</title>
<g id="a_node2"><a xlink:href="common__cmd__packet__util_8c.html#af6cd7310a97de047f27ee76828ba3097" target="_top" xlink:title="Param Generator で n byte のパラメタを登録">
<polygon fill="white" stroke="black" points="149,-83 149,-113 283,-113 283,-83 149,-83"/>
<text text-anchor="start" x="157" y="-101" font-family="Helvetica,sans-Serif" font-size="10.00">CCP_prepare_param_for</text>
<text text-anchor="middle" x="216" y="-90" font-family="Helvetica,sans-Serif" font-size="10.00">_packet_</text>
</a>
</g>
</g>
<!-- Node1&#45;&gt;Node2 -->
<g id="edge1" class="edge">
<title>Node1&#45;&gt;Node2</title>
<path fill="none" stroke="midnightblue" d="M113.03,-98C121.37,-98 130.09,-98 138.77,-98"/>
<polygon fill="midnightblue" stroke="midnightblue" points="138.91,-101.5 148.91,-98 138.91,-94.5 138.91,-101.5"/>
</g>
<!-- Node3 -->
<g id="node3" class="node">
<title>Node3</title>
<g id="a_node3"><a xlink:href="command__analyze_8c.html#a464f3aa16753a76bc5093100542a361a" target="_top" xlink:title="コマンドパラメタサイズを取得する">
<polygon fill="white" stroke="black" points="492,-164.5 492,-183.5 631,-183.5 631,-164.5 492,-164.5"/>
<text text-anchor="middle" x="561.5" y="-171.5" font-family="Helvetica,sans-Serif" font-size="10.00">CA_get_cmd_param_size</text>
</a>
</g>
</g>
<!-- Node2&#45;&gt;Node3 -->
<g id="edge2" class="edge">
<title>Node2&#45;&gt;Node3</title>
<path fill="none" stroke="midnightblue" d="M237.67,-113.1C257.46,-126.67 288.71,-145.83 319,-155 371.8,-170.99 433.89,-175.58 481.9,-176.26"/>
<polygon fill="midnightblue" stroke="midnightblue" points="481.89,-179.76 491.92,-176.35 481.95,-172.76 481.89,-179.76"/>
</g>
<!-- Node5 -->
<g id="node5" class="node">
<title>Node5</title>
<g id="a_node5"><a xlink:href="common__cmd__packet__util_8c.html#ac84562eae726befc82b1dbcd8a60c4c1" target="_top" xlink:title="CCP パラメタ開始位置に対する n 番目の引数の offset を計算する">
<polygon fill="white" stroke="black" points="319,-126.5 319,-145.5 455,-145.5 455,-126.5 319,-126.5"/>
<text text-anchor="middle" x="387" y="-133.5" font-family="Helvetica,sans-Serif" font-size="10.00">CCP_calc_param_offset_</text>
</a>
</g>
</g>
<!-- Node2&#45;&gt;Node5 -->
<g id="edge4" class="edge">
<title>Node2&#45;&gt;Node5</title>
<path fill="none" stroke="midnightblue" d="M283.31,-112.91C300,-116.66 317.68,-120.64 333.58,-124.21"/>
<polygon fill="midnightblue" stroke="midnightblue" points="333.22,-127.72 343.75,-126.5 334.76,-120.89 333.22,-127.72"/>
</g>
<!-- Node7 -->
<g id="node7" class="node">
<title>Node7</title>
<g id="a_node7"><a xlink:href="common__cmd__packet_8h.html#ac7f988d02cd49f16275dcb893b0e8fda" target="_top" xlink:title="先頭のパラメタのポインタを取得">
<polygon fill="white" stroke="black" points="325.5,-88.5 325.5,-107.5 448.5,-107.5 448.5,-88.5 325.5,-88.5"/>
<text text-anchor="middle" x="387" y="-95.5" font-family="Helvetica,sans-Serif" font-size="10.00">CCP_get_param_head</text>
</a>
</g>
</g>
<!-- Node2&#45;&gt;Node7 -->
<g id="edge8" class="edge">
<title>Node2&#45;&gt;Node7</title>
<path fill="none" stroke="midnightblue" d="M283.31,-98C293.82,-98 304.73,-98 315.33,-98"/>
<polygon fill="midnightblue" stroke="midnightblue" points="315.39,-101.5 325.39,-98 315.39,-94.5 315.39,-101.5"/>
</g>
<!-- Node9 -->
<g id="node9" class="node">
<title>Node9</title>
<g id="a_node9"><a xlink:href="common__cmd__packet__util_8c.html#aa22556c98b0b1a9dba15f2c8076828a9" target="_top" xlink:title="Param Generator でエラーを発生した際に呼ぶエラー保存関数">
<polygon fill="white" stroke="black" points="319,-39 319,-69 455,-69 455,-39 319,-39"/>
<text text-anchor="start" x="327" y="-57" font-family="Helvetica,sans-Serif" font-size="10.00">CCP_raise_err_at_param</text>
<text text-anchor="middle" x="387" y="-46" font-family="Helvetica,sans-Serif" font-size="10.00">_generator_</text>
</a>
</g>
</g>
<!-- Node2&#45;&gt;Node9 -->
<g id="edge10" class="edge">
<title>Node2&#45;&gt;Node9</title>
<path fill="none" stroke="midnightblue" d="M274.69,-82.98C288.75,-79.32 303.92,-75.37 318.39,-71.6"/>
<polygon fill="midnightblue" stroke="midnightblue" points="319.49,-74.93 328.29,-69.03 317.73,-68.16 319.49,-74.93"/>
</g>
<!-- Node10 -->
<g id="node10" class="node">
<title>Node10</title>
<g id="a_node10"><a xlink:href="endian__memcpy_8c.html#a153793f6939a1cb0f6bc3968d953f31e" target="_top" xlink:title=" ">
<polygon fill="white" stroke="black" points="338,-0.5 338,-19.5 436,-19.5 436,-0.5 338,-0.5"/>
<text text-anchor="middle" x="387" y="-7.5" font-family="Helvetica,sans-Serif" font-size="10.00">endian_memcpy</text>
</a>
</g>
</g>
<!-- Node2&#45;&gt;Node10 -->
<g id="edge11" class="edge">
<title>Node2&#45;&gt;Node10</title>
<path fill="none" stroke="midnightblue" d="M235.46,-82.83C255.09,-67.36 287.6,-43.61 319,-29 324,-26.67 329.35,-24.57 334.76,-22.69"/>
<polygon fill="midnightblue" stroke="midnightblue" points="336.07,-25.94 344.5,-19.54 333.91,-19.28 336.07,-25.94"/>
</g>
<!-- Node4 -->
<g id="node4" class="node">
<title>Node4</title>
<g id="a_node4"><a xlink:href="command__analyze_8c.html#aa312aeadf3ce336a10385fe14e22f77c" target="_top" xlink:title="コマンドパラメタのサイズ情報を取得">
<polygon fill="white" stroke="black" points="668,-145.5 668,-164.5 813,-164.5 813,-145.5 668,-145.5"/>
<text text-anchor="middle" x="740.5" y="-152.5" font-family="Helvetica,sans-Serif" font-size="10.00">CA_get_param_size_type_</text>
</a>
</g>
</g>
<!-- Node3&#45;&gt;Node4 -->
<g id="edge3" class="edge">
<title>Node3&#45;&gt;Node4</title>
<path fill="none" stroke="midnightblue" d="M631.19,-166.63C639.94,-165.69 648.97,-164.72 657.9,-163.76"/>
<polygon fill="midnightblue" stroke="midnightblue" points="658.36,-167.23 667.93,-162.68 657.61,-160.27 658.36,-167.23"/>
</g>
<!-- Node5&#45;&gt;Node3 -->
<g id="edge7" class="edge">
<title>Node5&#45;&gt;Node3</title>
<path fill="none" stroke="midnightblue" d="M431.53,-145.59C454.6,-150.67 483.13,-156.96 507.48,-162.32"/>
<polygon fill="midnightblue" stroke="midnightblue" points="506.77,-165.75 517.28,-164.48 508.27,-158.91 506.77,-165.75"/>
</g>
<!-- Node6 -->
<g id="node6" class="node">
<title>Node6</title>
<g id="a_node6"><a xlink:href="command__analyze_8c.html#a170772c49fb7883a382a30bd38485a6e" target="_top" xlink:title="コマンドパラメタ数を取得する">
<polygon fill="white" stroke="black" points="491,-126.5 491,-145.5 632,-145.5 632,-126.5 491,-126.5"/>
<text text-anchor="middle" x="561.5" y="-133.5" font-family="Helvetica,sans-Serif" font-size="10.00">CA_get_cmd_param_num</text>
</a>
</g>
</g>
<!-- Node5&#45;&gt;Node6 -->
<g id="edge5" class="edge">
<title>Node5&#45;&gt;Node6</title>
<path fill="none" stroke="midnightblue" d="M455.19,-136C463.62,-136 472.31,-136 480.9,-136"/>
<polygon fill="midnightblue" stroke="midnightblue" points="480.94,-139.5 490.94,-136 480.94,-132.5 480.94,-139.5"/>
</g>
<!-- Node6&#45;&gt;Node4 -->
<g id="edge6" class="edge">
<title>Node6&#45;&gt;Node4</title>
<path fill="none" stroke="midnightblue" d="M632.2,-143.48C640.61,-144.39 649.27,-145.31 657.83,-146.23"/>
<polygon fill="midnightblue" stroke="midnightblue" points="657.51,-149.72 667.83,-147.31 658.26,-142.76 657.51,-149.72"/>
</g>
<!-- Node8 -->
<g id="node8" class="node">
<title>Node8</title>
<g id="a_node8"><a xlink:href="cmd__space__packet_8c.html#a05169fb3461910d6b5b13a59a0026455" target="_top" xlink:title="コマンドパラメタの先頭ポインタを取得">
<polygon fill="white" stroke="black" points="500.5,-88.5 500.5,-107.5 622.5,-107.5 622.5,-88.5 500.5,-88.5"/>
<text text-anchor="middle" x="561.5" y="-95.5" font-family="Helvetica,sans-Serif" font-size="10.00">CSP_get_param_head</text>
</a>
</g>
</g>
<!-- Node7&#45;&gt;Node8 -->
<g id="edge9" class="edge">
<title>Node7&#45;&gt;Node8</title>
<path fill="none" stroke="midnightblue" d="M448.82,-98C462.11,-98 476.29,-98 489.93,-98"/>
<polygon fill="midnightblue" stroke="midnightblue" points="490.23,-101.5 500.23,-98 490.23,-94.5 490.23,-101.5"/>
</g>
<!-- Node11 -->
<g id="node11" class="node">
<title>Node11</title>
<g id="a_node11"><a xlink:href="endian__conv_8c.html#af8d492c4e43d83c161cd2225a9697b6a" target="_top" xlink:title=" ">
<polygon fill="white" stroke="black" points="522.5,-0.5 522.5,-19.5 600.5,-19.5 600.5,-0.5 522.5,-0.5"/>
<text text-anchor="middle" x="561.5" y="-7.5" font-family="Helvetica,sans-Serif" font-size="10.00">endian_conv</text>
</a>
</g>
</g>
<!-- Node10&#45;&gt;Node11 -->
<g id="edge12" class="edge">
<title>Node10&#45;&gt;Node11</title>
<path fill="none" stroke="midnightblue" d="M436.05,-10C459.76,-10 488.29,-10 512.05,-10"/>
<polygon fill="midnightblue" stroke="midnightblue" points="512.26,-13.5 522.26,-10 512.26,-6.5 512.26,-13.5"/>
</g>
</g>
</svg>
