<?xml version="1.0" encoding="UTF-8" standalone="no"?>
<!DOCTYPE svg PUBLIC "-//W3C//DTD SVG 1.1//EN"
 "http://www.w3.org/Graphics/SVG/1.1/DTD/svg11.dtd">
<!-- Generated by graphviz version 2.43.0 (0)
 -->
<!-- Title: CCP_get_dest_type Pages: 1 -->
<svg width="697pt" height="88pt"
 viewBox="0.00 0.00 697.00 88.00" xmlns="http://www.w3.org/2000/svg" xmlns:xlink="http://www.w3.org/1999/xlink">
<g id="graph0" class="graph" transform="scale(1 1) rotate(0) translate(4 84)">
<title>CCP_get_dest_type</title>
<polygon fill="white" stroke="transparent" points="-4,4 -4,-84 693,-84 693,4 -4,4"/>
<!-- Node1 -->
<g id="node1" class="node">
<title>Node1</title>
<g id="a_node1"><a xlink:title="DEST_TYPE を取得">
<polygon fill="#bfbfbf" stroke="black" points="0,-30 0,-49 110,-49 110,-30 0,-30"/>
<text text-anchor="middle" x="55" y="-37" font-family="Helvetica,sans-Serif" font-size="10.00">CCP_get_dest_type</text>
</a>
</g>
</g>
<!-- Node2 -->
<g id="node2" class="node">
<title>Node2</title>
<g id="a_node2"><a xlink:href="cmd__space__packet_8c.html#aa6bbd3b94c3c8a9c0e0c26fc96b16b9d" target="_top" xlink:title="Destination Type を取得">
<polygon fill="white" stroke="black" points="146,-30 146,-49 256,-49 256,-30 146,-30"/>
<text text-anchor="middle" x="201" y="-37" font-family="Helvetica,sans-Serif" font-size="10.00">CSP_get_dest_type</text>
</a>
</g>
</g>
<!-- Node1&#45;&gt;Node2 -->
<g id="edge1" class="edge">
<title>Node1&#45;&gt;Node2</title>
<path fill="none" stroke="midnightblue" d="M110.03,-39.5C118.31,-39.5 126.94,-39.5 135.42,-39.5"/>
<polygon fill="midnightblue" stroke="midnightblue" points="135.67,-43 145.67,-39.5 135.67,-36 135.67,-43"/>
</g>
<!-- Node3 -->
<g id="node3" class="node">
<title>Node3</title>
<g id="a_node3"><a xlink:href="common__cmd__packet__define_8c.html#a699c42e6917a0dbcf3a2002f51cf34c2" target="_top" xlink:title="バイト列から CCP_DEST_TYPE を取得">
<polygon fill="white" stroke="black" points="292,-49.5 292,-79.5 431,-79.5 431,-49.5 292,-49.5"/>
<text text-anchor="start" x="300" y="-67.5" font-family="Helvetica,sans-Serif" font-size="10.00">CCP_get_dest_type_from</text>
<text text-anchor="middle" x="361.5" y="-56.5" font-family="Helvetica,sans-Serif" font-size="10.00">_uint8</text>
</a>
</g>
</g>
<!-- Node2&#45;&gt;Node3 -->
<g id="edge2" class="edge">
<title>Node2&#45;&gt;Node3</title>
<path fill="none" stroke="midnightblue" d="M256.1,-48.03C264.35,-49.34 273.01,-50.7 281.66,-52.06"/>
<polygon fill="midnightblue" stroke="midnightblue" points="281.36,-55.56 291.79,-53.66 282.45,-48.65 281.36,-55.56"/>
</g>
<!-- Node4 -->
<g id="node4" class="node">
<title>Node4</title>
<g id="a_node4"><a xlink:href="space__packet_8c.html#a300c7fc3dea91319b0fa2f039f27d5eb" target="_top" xlink:title="packet に格納された param を取得">
<polygon fill="white" stroke="black" points="294.5,-0.5 294.5,-30.5 428.5,-30.5 428.5,-0.5 294.5,-0.5"/>
<text text-anchor="start" x="302.5" y="-18.5" font-family="Helvetica,sans-Serif" font-size="10.00">SP_extract_param_from</text>
<text text-anchor="middle" x="361.5" y="-7.5" font-family="Helvetica,sans-Serif" font-size="10.00">_packet</text>
</a>
</g>
</g>
<!-- Node2&#45;&gt;Node4 -->
<g id="edge3" class="edge">
<title>Node2&#45;&gt;Node4</title>
<path fill="none" stroke="midnightblue" d="M256.1,-31.31C265.22,-29.93 274.84,-28.47 284.39,-27.02"/>
<polygon fill="midnightblue" stroke="midnightblue" points="284.94,-30.48 294.3,-25.52 283.89,-23.56 284.94,-30.48"/>
</g>
<!-- Node5 -->
<g id="node5" class="node">
<title>Node5</title>
<g id="a_node5"><a xlink:href="endian_8c.html#af3c71c10af16134e94da32e1e0d8d0f8" target="_top" xlink:title="エンディアンを考慮した memcpy">
<polygon fill="white" stroke="black" points="467,-6 467,-25 570,-25 570,-6 467,-6"/>
<text text-anchor="middle" x="518.5" y="-13" font-family="Helvetica,sans-Serif" font-size="10.00">ENDIAN_memcpy</text>
</a>
</g>
</g>
<!-- Node4&#45;&gt;Node5 -->
<g id="edge4" class="edge">
<title>Node4&#45;&gt;Node5</title>
<path fill="none" stroke="midnightblue" d="M428.68,-15.5C437.89,-15.5 447.31,-15.5 456.42,-15.5"/>
<polygon fill="midnightblue" stroke="midnightblue" points="456.54,-19 466.54,-15.5 456.54,-12 456.54,-19"/>
</g>
<!-- Node6 -->
<g id="node6" class="node">
<title>Node6</title>
<g id="a_node6"><a xlink:href="endian_8c.html#a3f28de556ac6792695854c7b4f437925" target="_top" xlink:title="エンディアンの変更">
<polygon fill="white" stroke="black" points="606,-6 606,-25 689,-25 689,-6 606,-6"/>
<text text-anchor="middle" x="647.5" y="-13" font-family="Helvetica,sans-Serif" font-size="10.00">ENDIAN_conv</text>
</a>
</g>
</g>
<!-- Node5&#45;&gt;Node6 -->
<g id="edge5" class="edge">
<title>Node5&#45;&gt;Node6</title>
<path fill="none" stroke="midnightblue" d="M570.06,-15.5C578.52,-15.5 587.3,-15.5 595.76,-15.5"/>
<polygon fill="midnightblue" stroke="midnightblue" points="595.88,-19 605.88,-15.5 595.88,-12 595.88,-19"/>
</g>
</g>
</svg>
