<?xml version="1.0" encoding="UTF-8" standalone="no"?>
<!DOCTYPE svg PUBLIC "-//W3C//DTD SVG 1.1//EN"
 "http://www.w3.org/Graphics/SVG/1.1/DTD/svg11.dtd">
<!-- Generated by graphviz version 2.43.0 (0)
 -->
<!-- Title: CDIS_clear_error_status Pages: 1 -->
<svg width="643pt" height="78pt"
 viewBox="0.00 0.00 643.00 77.50" xmlns="http://www.w3.org/2000/svg" xmlns:xlink="http://www.w3.org/1999/xlink">
<g id="graph0" class="graph" transform="scale(1 1) rotate(0) translate(4 73.5)">
<title>CDIS_clear_error_status</title>
<polygon fill="white" stroke="transparent" points="-4,4 -4,-73.5 639,-73.5 639,4 -4,4"/>
<!-- Node1 -->
<g id="node1" class="node">
<title>Node1</title>
<g id="a_node1"><a xlink:title="CDIS に登録されているコマンドキューのコマンド実行エラー情報を削除">
<polygon fill="#bfbfbf" stroke="black" points="0,-22.5 0,-41.5 133,-41.5 133,-22.5 0,-22.5"/>
<text text-anchor="middle" x="66.5" y="-29.5" font-family="Helvetica,sans-Serif" font-size="10.00">CDIS_clear_error_status</text>
</a>
</g>
</g>
<!-- Node2 -->
<g id="node2" class="node">
<title>Node2</title>
<g id="a_node2"><a xlink:href="command__dispatcher_8c.html#ad69bcfd7e12d6c75b7e5ec0841764c6c" target="_top" xlink:title="CDIS_ExecInfo の初期化">
<polygon fill="white" stroke="black" points="169,-22.5 169,-41.5 295,-41.5 295,-22.5 169,-22.5"/>
<text text-anchor="middle" x="232" y="-29.5" font-family="Helvetica,sans-Serif" font-size="10.00">CDIS_clear_exec_info_</text>
</a>
</g>
</g>
<!-- Node1&#45;&gt;Node2 -->
<g id="edge1" class="edge">
<title>Node1&#45;&gt;Node2</title>
<path fill="none" stroke="midnightblue" d="M133.06,-32C141.46,-32 150.1,-32 158.6,-32"/>
<polygon fill="midnightblue" stroke="midnightblue" points="158.88,-35.5 168.88,-32 158.88,-28.5 158.88,-35.5"/>
</g>
<!-- Node3 -->
<g id="node3" class="node">
<title>Node3</title>
<g id="a_node3"><a xlink:href="common__cmd__packet__util_8c.html#a9e58970e1fdf3fd593d764f353e28562" target="_top" xlink:title="コマンド返り値である CCP_CmdRet を作成（エラーコード不使用版）">
<polygon fill="white" stroke="black" points="331,-39 331,-69 486,-69 486,-39 331,-39"/>
<text text-anchor="start" x="339" y="-57" font-family="Helvetica,sans-Serif" font-size="10.00">CCP_make_cmd_ret_without</text>
<text text-anchor="middle" x="408.5" y="-46" font-family="Helvetica,sans-Serif" font-size="10.00">_err_code</text>
</a>
</g>
</g>
<!-- Node2&#45;&gt;Node3 -->
<g id="edge2" class="edge">
<title>Node2&#45;&gt;Node3</title>
<path fill="none" stroke="midnightblue" d="M295.01,-39.82C303.32,-40.87 311.96,-41.96 320.6,-43.04"/>
<polygon fill="midnightblue" stroke="midnightblue" points="320.36,-46.54 330.72,-44.32 321.24,-39.6 320.36,-46.54"/>
</g>
<!-- Node5 -->
<g id="node5" class="node">
<title>Node5</title>
<g id="a_node5"><a xlink:href="obc__time_8c.html#af728cdbeae57ea5bf7f25ba5a3776e60" target="_top" xlink:title="ObcTime をクリアし全てゼロにする">
<polygon fill="white" stroke="black" points="372,-0.5 372,-19.5 445,-19.5 445,-0.5 372,-0.5"/>
<text text-anchor="middle" x="408.5" y="-7.5" font-family="Helvetica,sans-Serif" font-size="10.00">OBCT_clear</text>
</a>
</g>
</g>
<!-- Node2&#45;&gt;Node5 -->
<g id="edge4" class="edge">
<title>Node2&#45;&gt;Node5</title>
<path fill="none" stroke="midnightblue" d="M295.01,-24.18C317.05,-21.4 341.44,-18.33 361.86,-15.75"/>
<polygon fill="midnightblue" stroke="midnightblue" points="362.36,-19.22 371.84,-14.5 361.48,-12.27 362.36,-19.22"/>
</g>
<!-- Node4 -->
<g id="node4" class="node">
<title>Node4</title>
<g id="a_node4"><a xlink:href="common__cmd__packet__util_8c.html#a86a3aeedaeb2eac94c6c86eb0db7f8fd" target="_top" xlink:title="コマンド返り値である CCP_CmdRet を作成">
<polygon fill="white" stroke="black" points="522,-44.5 522,-63.5 635,-63.5 635,-44.5 522,-44.5"/>
<text text-anchor="middle" x="578.5" y="-51.5" font-family="Helvetica,sans-Serif" font-size="10.00">CCP_make_cmd_ret</text>
</a>
</g>
</g>
<!-- Node3&#45;&gt;Node4 -->
<g id="edge3" class="edge">
<title>Node3&#45;&gt;Node4</title>
<path fill="none" stroke="midnightblue" d="M486.13,-54C494.62,-54 503.21,-54 511.55,-54"/>
<polygon fill="midnightblue" stroke="midnightblue" points="511.58,-57.5 521.58,-54 511.58,-50.5 511.58,-57.5"/>
</g>
</g>
</svg>
