<?xml version="1.0" encoding="UTF-8" standalone="no"?>
<!DOCTYPE svg PUBLIC "-//W3C//DTD SVG 1.1//EN"
 "http://www.w3.org/Graphics/SVG/1.1/DTD/svg11.dtd">
<!-- Generated by graphviz version 2.43.0 (0)
 -->
<!-- Title: src/src_core/TlmCmd/command_dispatcher.h Pages: 1 -->
<svg width="1069pt" height="564pt"
 viewBox="0.00 0.00 1068.50 564.00" xmlns="http://www.w3.org/2000/svg" xmlns:xlink="http://www.w3.org/1999/xlink">
<g id="graph0" class="graph" transform="scale(1 1) rotate(0) translate(4 560)">
<title>src/src_core/TlmCmd/command_dispatcher.h</title>
<polygon fill="white" stroke="transparent" points="-4,4 -4,-560 1064.5,-560 1064.5,4 -4,4"/>
<!-- Node1 -->
<g id="node1" class="node">
<title>Node1</title>
<g id="a_node1"><a xlink:title=" ">
<polygon fill="#bfbfbf" stroke="black" points="326,-525.5 326,-555.5 459,-555.5 459,-525.5 326,-525.5"/>
<text text-anchor="start" x="334" y="-543.5" font-family="Helvetica,sans-Serif" font-size="10.00">src/src_core/TlmCmd</text>
<text text-anchor="middle" x="392.5" y="-532.5" font-family="Helvetica,sans-Serif" font-size="10.00">/command_dispatcher.h</text>
</a>
</g>
</g>
<!-- Node2 -->
<g id="node2" class="node">
<title>Node2</title>
<g id="a_node2"><a xlink:href="obc__time_8h.html" target="_top" xlink:title="OBCの時刻情報の定義と演算">
<polygon fill="white" stroke="black" points="171,-196 171,-226 304,-226 304,-196 171,-196"/>
<text text-anchor="start" x="179" y="-214" font-family="Helvetica,sans-Serif" font-size="10.00">../System/TimeManager</text>
<text text-anchor="middle" x="237.5" y="-203" font-family="Helvetica,sans-Serif" font-size="10.00">/obc_time.h</text>
</a>
</g>
</g>
<!-- Node1&#45;&gt;Node2 -->
<g id="edge1" class="edge">
<title>Node1&#45;&gt;Node2</title>
<path fill="none" stroke="midnightblue" d="M357.74,-525.45C320.44,-507.81 266.5,-473.71 266.5,-424 266.5,-424 266.5,-424 266.5,-360.5 266.5,-315.82 253.7,-264.95 245.1,-235.84"/>
<polygon fill="midnightblue" stroke="midnightblue" points="248.42,-234.71 242.16,-226.16 241.72,-236.74 248.42,-234.71"/>
</g>
<!-- Node6 -->
<g id="node6" class="node">
<title>Node6</title>
<g id="a_node6"><a xlink:href="common__tlm__cmd__packet_8h.html" target="_top" xlink:title="CTCP 関連基本関数の宣言">
<polygon fill="white" stroke="black" points="560.5,-352 560.5,-371 714.5,-371 714.5,-352 560.5,-352"/>
<text text-anchor="middle" x="637.5" y="-359" font-family="Helvetica,sans-Serif" font-size="10.00">common_tlm_cmd_packet.h</text>
</a>
</g>
</g>
<!-- Node1&#45;&gt;Node6 -->
<g id="edge5" class="edge">
<title>Node1&#45;&gt;Node6</title>
<path fill="none" stroke="midnightblue" d="M412.14,-525.31C457.8,-492.32 570.79,-410.7 617.15,-377.2"/>
<polygon fill="midnightblue" stroke="midnightblue" points="619.44,-379.87 625.49,-371.17 615.34,-374.19 619.44,-379.87"/>
</g>
<!-- Node16 -->
<g id="node16" class="node">
<title>Node16</title>
<g id="a_node16"><a xlink:href="command__definitions_8h.html" target="_top" xlink:title="コマンド定義">
<polygon fill="white" stroke="black" points="0,-196 0,-226 153,-226 153,-196 0,-196"/>
<text text-anchor="start" x="8" y="-214" font-family="Helvetica,sans-Serif" font-size="10.00">src_user/TlmCmd/command</text>
<text text-anchor="middle" x="76.5" y="-203" font-family="Helvetica,sans-Serif" font-size="10.00">_definitions.h</text>
</a>
</g>
</g>
<!-- Node1&#45;&gt;Node16 -->
<g id="edge33" class="edge">
<title>Node1&#45;&gt;Node16</title>
<path fill="none" stroke="midnightblue" d="M325.76,-537.03C250.51,-530.26 138.5,-506.35 138.5,-424 138.5,-424 138.5,-424 138.5,-360.5 138.5,-312.85 110.98,-262.79 92.61,-234.67"/>
<polygon fill="midnightblue" stroke="midnightblue" points="95.5,-232.69 87.02,-226.34 89.69,-236.59 95.5,-232.69"/>
</g>
<!-- Node18 -->
<g id="node18" class="node">
<title>Node18</title>
<g id="a_node18"><a xlink:href="packet__list_8h.html" target="_top" xlink:title="CTCP, CTP, CCP のリストとしてのデータ構造を定義. 片方向リストとして実装されている">
<polygon fill="white" stroke="black" points="585.5,-469.5 585.5,-488.5 663.5,-488.5 663.5,-469.5 585.5,-469.5"/>
<text text-anchor="middle" x="624.5" y="-476.5" font-family="Helvetica,sans-Serif" font-size="10.00">packet_list.h</text>
</a>
</g>
</g>
<!-- Node1&#45;&gt;Node18 -->
<g id="edge26" class="edge">
<title>Node1&#45;&gt;Node18</title>
<path fill="none" stroke="midnightblue" d="M447.19,-525.47C488.26,-514.94 543.73,-500.72 581.62,-491"/>
<polygon fill="midnightblue" stroke="midnightblue" points="582.52,-494.38 591.33,-488.51 580.78,-487.6 582.52,-494.38"/>
</g>
<!-- Node3 -->
<g id="node3" class="node">
<title>Node3</title>
<g id="a_node3"><a xlink:href="stdint_8h.html" target="_top" xlink:title=" ">
<polygon fill="white" stroke="black" points="265.5,-62 265.5,-81 399.5,-81 399.5,-62 265.5,-62"/>
<text text-anchor="middle" x="332.5" y="-69" font-family="Helvetica,sans-Serif" font-size="10.00">src_user/Library/stdint.h</text>
</a>
</g>
</g>
<!-- Node2&#45;&gt;Node3 -->
<g id="edge2" class="edge">
<title>Node2&#45;&gt;Node3</title>
<path fill="none" stroke="midnightblue" d="M247.31,-195.8C264.87,-170.39 301.59,-117.23 320.58,-89.76"/>
<polygon fill="midnightblue" stroke="midnightblue" points="323.68,-91.42 326.49,-81.2 317.92,-87.44 323.68,-91.42"/>
</g>
<!-- Node5 -->
<g id="node5" class="node">
<title>Node5</title>
<g id="a_node5"><a xlink:href="obc__time__params_8h.html" target="_top" xlink:title="OBCTのCoreパラメタのオーバーライド用ヘッダー">
<polygon fill="white" stroke="black" points="126.5,-123.5 126.5,-153.5 266.5,-153.5 266.5,-123.5 126.5,-123.5"/>
<text text-anchor="start" x="134.5" y="-141.5" font-family="Helvetica,sans-Serif" font-size="10.00">src_user/Settings/System</text>
<text text-anchor="middle" x="196.5" y="-130.5" font-family="Helvetica,sans-Serif" font-size="10.00">/obc_time_params.h</text>
</a>
</g>
</g>
<!-- Node2&#45;&gt;Node5 -->
<g id="edge4" class="edge">
<title>Node2&#45;&gt;Node5</title>
<path fill="none" stroke="midnightblue" d="M229.2,-195.73C223.65,-186.18 216.21,-173.39 209.83,-162.42"/>
<polygon fill="midnightblue" stroke="midnightblue" points="212.84,-160.63 204.78,-153.75 206.79,-164.15 212.84,-160.63"/>
</g>
<!-- Node4 -->
<g id="node4" class="node">
<title>Node4</title>
<g id="a_node4"><a xlink:href="sils__define_8h.html" target="_top" xlink:title="Switch the build settings between your real OBC and SILS">
<polygon fill="white" stroke="black" points="268,-0.5 268,-19.5 397,-19.5 397,-0.5 268,-0.5"/>
<text text-anchor="middle" x="332.5" y="-7.5" font-family="Helvetica,sans-Serif" font-size="10.00">../Settings/sils_define.h</text>
</a>
</g>
</g>
<!-- Node3&#45;&gt;Node4 -->
<g id="edge3" class="edge">
<title>Node3&#45;&gt;Node4</title>
<path fill="none" stroke="midnightblue" d="M332.5,-61.98C332.5,-53.58 332.5,-40.48 332.5,-29.66"/>
<polygon fill="midnightblue" stroke="midnightblue" points="336,-29.51 332.5,-19.51 329,-29.51 336,-29.51"/>
</g>
<!-- Node7 -->
<g id="node7" class="node">
<title>Node7</title>
<g id="a_node7"><a xlink:href="common__tlm__cmd__packet__define_8h.html" target="_top" xlink:title="CTCP 型の定義">
<polygon fill="white" stroke="black" points="846.5,-190.5 846.5,-231.5 994.5,-231.5 994.5,-190.5 846.5,-190.5"/>
<text text-anchor="start" x="854.5" y="-219.5" font-family="Helvetica,sans-Serif" font-size="10.00">src_user/Settings/TlmCmd</text>
<text text-anchor="start" x="854.5" y="-208.5" font-family="Helvetica,sans-Serif" font-size="10.00">/common_tlm_cmd_packet</text>
<text text-anchor="middle" x="920.5" y="-197.5" font-family="Helvetica,sans-Serif" font-size="10.00">_define.h</text>
</a>
</g>
</g>
<!-- Node6&#45;&gt;Node7 -->
<g id="edge6" class="edge">
<title>Node6&#45;&gt;Node7</title>
<path fill="none" stroke="midnightblue" d="M709.13,-351.97C747.53,-344.99 794.43,-332.43 831.5,-310 860.66,-292.36 885.91,-262.26 901.99,-240.07"/>
<polygon fill="midnightblue" stroke="midnightblue" points="904.99,-241.88 907.89,-231.69 899.27,-237.85 904.99,-241.88"/>
</g>
<!-- Node11 -->
<g id="node11" class="node">
<title>Node11</title>
<g id="a_node11"><a xlink:href="apid__define_8h.html" target="_top" xlink:title="CCSDS の APID を定義する">
<polygon fill="white" stroke="black" points="759.5,-56.5 759.5,-86.5 903.5,-86.5 903.5,-56.5 759.5,-56.5"/>
<text text-anchor="start" x="767.5" y="-74.5" font-family="Helvetica,sans-Serif" font-size="10.00">src_user/Settings/TlmCmd</text>
<text text-anchor="middle" x="831.5" y="-63.5" font-family="Helvetica,sans-Serif" font-size="10.00">/Ccsds/apid_define.h</text>
</a>
</g>
</g>
<!-- Node6&#45;&gt;Node11 -->
<g id="edge25" class="edge">
<title>Node6&#45;&gt;Node11</title>
<path fill="none" stroke="midnightblue" d="M714.68,-360.29C804.07,-355.22 946.36,-331.01 1003.5,-232 1039.71,-169.26 942.57,-116.71 879.9,-90.47"/>
<polygon fill="midnightblue" stroke="midnightblue" points="881.13,-87.19 870.55,-86.64 878.47,-93.67 881.13,-87.19"/>
</g>
<!-- Node12 -->
<g id="node12" class="node">
<title>Node12</title>
<g id="a_node12"><a xlink:href="common__tlm__cmd__packet__params_8h.html" target="_top" xlink:title="CTCP パラメタのオーバーライド用ヘッダー">
<polygon fill="white" stroke="black" points="522.5,-268.5 522.5,-309.5 670.5,-309.5 670.5,-268.5 522.5,-268.5"/>
<text text-anchor="start" x="530.5" y="-297.5" font-family="Helvetica,sans-Serif" font-size="10.00">src_user/Settings/TlmCmd</text>
<text text-anchor="start" x="530.5" y="-286.5" font-family="Helvetica,sans-Serif" font-size="10.00">/common_tlm_cmd_packet</text>
<text text-anchor="middle" x="596.5" y="-275.5" font-family="Helvetica,sans-Serif" font-size="10.00">_params.h</text>
</a>
</g>
</g>
<!-- Node6&#45;&gt;Node12 -->
<g id="edge13" class="edge">
<title>Node6&#45;&gt;Node12</title>
<path fill="none" stroke="midnightblue" d="M632.47,-351.86C627.63,-343.53 620.04,-330.48 613.08,-318.51"/>
<polygon fill="midnightblue" stroke="midnightblue" points="615.99,-316.55 607.93,-309.66 609.94,-320.07 615.99,-316.55"/>
</g>
<!-- Node13 -->
<g id="node13" class="node">
<title>Node13</title>
<g id="a_node13"><a xlink:href="common__tlm__packet_8h.html" target="_top" xlink:title="CTP 関連基本関数の宣言">
<polygon fill="white" stroke="black" points="688.5,-279.5 688.5,-298.5 822.5,-298.5 822.5,-279.5 688.5,-279.5"/>
<text text-anchor="middle" x="755.5" y="-286.5" font-family="Helvetica,sans-Serif" font-size="10.00">./common_tlm_packet.h</text>
</a>
</g>
</g>
<!-- Node6&#45;&gt;Node13 -->
<g id="edge15" class="edge">
<title>Node6&#45;&gt;Node13</title>
<path fill="none" stroke="midnightblue" d="M651.97,-351.86C671.96,-339.91 708.27,-318.22 732.13,-303.96"/>
<polygon fill="midnightblue" stroke="midnightblue" points="734.12,-306.85 740.91,-298.72 730.53,-300.84 734.12,-306.85"/>
</g>
<!-- Node15 -->
<g id="node15" class="node">
<title>Node15</title>
<g id="a_node15"><a xlink:href="common__cmd__packet_8h.html" target="_top" xlink:title="CCP 関連基本関数の宣言">
<polygon fill="white" stroke="black" points="360.5,-279.5 360.5,-298.5 498.5,-298.5 498.5,-279.5 360.5,-279.5"/>
<text text-anchor="middle" x="429.5" y="-286.5" font-family="Helvetica,sans-Serif" font-size="10.00">./common_cmd_packet.h</text>
</a>
</g>
</g>
<!-- Node6&#45;&gt;Node15 -->
<g id="edge19" class="edge">
<title>Node6&#45;&gt;Node15</title>
<path fill="none" stroke="midnightblue" d="M612.41,-352C575.4,-339.45 506.04,-315.94 464.18,-301.76"/>
<polygon fill="midnightblue" stroke="midnightblue" points="465.27,-298.43 454.68,-298.53 463.03,-305.06 465.27,-298.43"/>
</g>
<!-- Node8 -->
<g id="node8" class="node">
<title>Node8</title>
<g id="a_node8"><a xlink:href="_t_c_packet_8h.html" target="_top" xlink:title=" ">
<polygon fill="white" stroke="black" points="628,-123.5 628,-153.5 761,-153.5 761,-123.5 628,-123.5"/>
<text text-anchor="start" x="636" y="-141.5" font-family="Helvetica,sans-Serif" font-size="10.00">src_core/TlmCmd/Ccsds</text>
<text text-anchor="middle" x="694.5" y="-130.5" font-family="Helvetica,sans-Serif" font-size="10.00">/TCPacket.h</text>
</a>
</g>
</g>
<!-- Node7&#45;&gt;Node8 -->
<g id="edge7" class="edge">
<title>Node7&#45;&gt;Node8</title>
<path fill="none" stroke="midnightblue" d="M857.85,-190.46C823.87,-179.86 782.26,-166.88 749.54,-156.67"/>
<polygon fill="midnightblue" stroke="midnightblue" points="750.28,-153.23 739.69,-153.6 748.19,-159.92 750.28,-153.23"/>
</g>
<!-- Node7&#45;&gt;Node11 -->
<g id="edge12" class="edge">
<title>Node7&#45;&gt;Node11</title>
<path fill="none" stroke="midnightblue" d="M907.75,-190.3C891.5,-165.19 863.45,-121.87 846.28,-95.34"/>
<polygon fill="midnightblue" stroke="midnightblue" points="849.07,-93.21 840.7,-86.72 843.2,-97.01 849.07,-93.21"/>
</g>
<!-- Node8&#45;&gt;Node3 -->
<g id="edge9" class="edge">
<title>Node8&#45;&gt;Node3</title>
<path fill="none" stroke="midnightblue" d="M627.68,-125.5C559.42,-113.25 454.54,-94.41 389.91,-82.81"/>
<polygon fill="midnightblue" stroke="midnightblue" points="390.36,-79.33 379.89,-81.01 389.12,-86.22 390.36,-79.33"/>
</g>
<!-- Node9 -->
<g id="node9" class="node">
<title>Node9</title>
<g id="a_node9"><a xlink:title=" ">
<polygon fill="white" stroke="#bfbfbf" points="970.5,-62 970.5,-81 1026.5,-81 1026.5,-62 970.5,-62"/>
<text text-anchor="middle" x="998.5" y="-69" font-family="Helvetica,sans-Serif" font-size="10.00">stddef.h</text>
</a>
</g>
</g>
<!-- Node8&#45;&gt;Node9 -->
<g id="edge8" class="edge">
<title>Node8&#45;&gt;Node9</title>
<path fill="none" stroke="midnightblue" d="M760.09,-123.48C821.33,-110.38 910.58,-91.3 960.7,-80.58"/>
<polygon fill="midnightblue" stroke="midnightblue" points="961.44,-84 970.49,-78.49 959.97,-77.16 961.44,-84"/>
</g>
<!-- Node10 -->
<g id="node10" class="node">
<title>Node10</title>
<g id="a_node10"><a xlink:href="tcpacket__params_8h.html" target="_top" xlink:title="TCP のユーザー設定">
<polygon fill="white" stroke="black" points="597.5,-56.5 597.5,-86.5 741.5,-86.5 741.5,-56.5 597.5,-56.5"/>
<text text-anchor="start" x="605.5" y="-74.5" font-family="Helvetica,sans-Serif" font-size="10.00">src_user/Settings/TlmCmd</text>
<text text-anchor="middle" x="669.5" y="-63.5" font-family="Helvetica,sans-Serif" font-size="10.00">/Ccsds/tcpacket_params.h</text>
</a>
</g>
</g>
<!-- Node8&#45;&gt;Node10 -->
<g id="edge10" class="edge">
<title>Node8&#45;&gt;Node10</title>
<path fill="none" stroke="midnightblue" d="M689.08,-123.4C686,-115.39 682.06,-105.16 678.53,-95.98"/>
<polygon fill="midnightblue" stroke="midnightblue" points="681.77,-94.65 674.91,-86.58 675.24,-97.17 681.77,-94.65"/>
</g>
<!-- Node8&#45;&gt;Node11 -->
<g id="edge11" class="edge">
<title>Node8&#45;&gt;Node11</title>
<path fill="none" stroke="midnightblue" d="M724.23,-123.4C744.24,-113.9 770.85,-101.28 792.55,-90.98"/>
<polygon fill="midnightblue" stroke="midnightblue" points="794.3,-94.03 801.83,-86.58 791.3,-87.7 794.3,-94.03"/>
</g>
<!-- Node12&#45;&gt;Node8 -->
<g id="edge14" class="edge">
<title>Node12&#45;&gt;Node8</title>
<path fill="none" stroke="midnightblue" d="M595.91,-268.24C596.22,-247.12 599.53,-213.51 615.5,-190 624.34,-176.98 637.78,-166.59 651.07,-158.71"/>
<polygon fill="midnightblue" stroke="midnightblue" points="653.15,-161.56 660.19,-153.64 649.75,-155.43 653.15,-161.56"/>
</g>
<!-- Node13&#45;&gt;Node11 -->
<g id="edge18" class="edge">
<title>Node13&#45;&gt;Node11</title>
<path fill="none" stroke="midnightblue" d="M764.44,-279.38C774.57,-269.09 790.8,-250.86 799.5,-232 820.13,-187.26 827.5,-129.44 830.11,-97.13"/>
<polygon fill="midnightblue" stroke="midnightblue" points="833.62,-97.06 830.84,-86.83 826.64,-96.56 833.62,-97.06"/>
</g>
<!-- Node14 -->
<g id="node14" class="node">
<title>Node14</title>
<g id="a_node14"><a xlink:href="common__tlm__packet__define_8h.html" target="_top" xlink:title="CTP 型の定義">
<polygon fill="white" stroke="black" points="624.5,-196 624.5,-226 790.5,-226 790.5,-196 624.5,-196"/>
<text text-anchor="start" x="632.5" y="-214" font-family="Helvetica,sans-Serif" font-size="10.00">src_user/Settings/TlmCmd</text>
<text text-anchor="middle" x="707.5" y="-203" font-family="Helvetica,sans-Serif" font-size="10.00">/common_tlm_packet_define.h</text>
</a>
</g>
</g>
<!-- Node13&#45;&gt;Node14 -->
<g id="edge16" class="edge">
<title>Node13&#45;&gt;Node14</title>
<path fill="none" stroke="midnightblue" d="M749.99,-279.28C743.18,-268.5 731.33,-249.73 721.87,-234.75"/>
<polygon fill="midnightblue" stroke="midnightblue" points="724.65,-232.61 716.35,-226.02 718.74,-236.34 724.65,-232.61"/>
</g>
<!-- Node14&#45;&gt;Node8 -->
<g id="edge17" class="edge">
<title>Node14&#45;&gt;Node8</title>
<path fill="none" stroke="midnightblue" d="M704.87,-195.73C703.18,-186.56 700.94,-174.41 698.97,-163.74"/>
<polygon fill="midnightblue" stroke="midnightblue" points="702.38,-162.94 697.13,-153.75 695.5,-164.21 702.38,-162.94"/>
</g>
<!-- Node15&#45;&gt;Node2 -->
<g id="edge20" class="edge">
<title>Node15&#45;&gt;Node2</title>
<path fill="none" stroke="midnightblue" d="M407.85,-279.43C377.65,-267.48 322.17,-245.51 282.73,-229.9"/>
<polygon fill="midnightblue" stroke="midnightblue" points="283.66,-226.51 273.07,-226.08 281.08,-233.02 283.66,-226.51"/>
</g>
<!-- Node15&#45;&gt;Node11 -->
<g id="edge24" class="edge">
<title>Node15&#45;&gt;Node11</title>
<path fill="none" stroke="midnightblue" d="M420.64,-279.4C403.17,-261.38 367.77,-218.96 389.5,-190 411.31,-160.93 628.04,-113.33 749.7,-88.58"/>
<polygon fill="midnightblue" stroke="midnightblue" points="750.62,-91.97 759.73,-86.55 749.23,-85.11 750.62,-91.97"/>
</g>
<!-- Node15&#45;&gt;Node16 -->
<g id="edge21" class="edge">
<title>Node15&#45;&gt;Node16</title>
<path fill="none" stroke="midnightblue" d="M386.73,-279.41C333.77,-268.69 240.85,-249.62 161.5,-232 156.23,-230.83 150.78,-229.6 145.3,-228.34"/>
<polygon fill="midnightblue" stroke="midnightblue" points="145.97,-224.91 135.44,-226.07 144.4,-231.73 145.97,-224.91"/>
</g>
<!-- Node17 -->
<g id="node17" class="node">
<title>Node17</title>
<g id="a_node17"><a xlink:href="common__cmd__packet__define_8h.html" target="_top" xlink:title="CCP 型の定義">
<polygon fill="white" stroke="black" points="398.5,-196 398.5,-226 568.5,-226 568.5,-196 398.5,-196"/>
<text text-anchor="start" x="406.5" y="-214" font-family="Helvetica,sans-Serif" font-size="10.00">src_user/Settings/TlmCmd</text>
<text text-anchor="middle" x="483.5" y="-203" font-family="Helvetica,sans-Serif" font-size="10.00">/common_cmd_packet_define.h</text>
</a>
</g>
</g>
<!-- Node15&#45;&gt;Node17 -->
<g id="edge22" class="edge">
<title>Node15&#45;&gt;Node17</title>
<path fill="none" stroke="midnightblue" d="M435.69,-279.28C443.43,-268.4 456.94,-249.37 467.64,-234.33"/>
<polygon fill="midnightblue" stroke="midnightblue" points="470.6,-236.2 473.54,-226.02 464.89,-232.14 470.6,-236.2"/>
</g>
<!-- Node17&#45;&gt;Node8 -->
<g id="edge23" class="edge">
<title>Node17&#45;&gt;Node8</title>
<path fill="none" stroke="midnightblue" d="M525.44,-195.99C559.05,-184.76 606.4,-168.94 642.44,-156.9"/>
<polygon fill="midnightblue" stroke="midnightblue" points="643.9,-160.1 652.28,-153.61 641.69,-153.46 643.9,-160.1"/>
</g>
<!-- Node18&#45;&gt;Node6 -->
<g id="edge28" class="edge">
<title>Node18&#45;&gt;Node6</title>
<path fill="none" stroke="midnightblue" d="M625.48,-469.32C627.57,-450.76 632.51,-406.84 635.36,-381.47"/>
<polygon fill="midnightblue" stroke="midnightblue" points="638.87,-381.61 636.51,-371.28 631.91,-380.83 638.87,-381.61"/>
</g>
<!-- Node18&#45;&gt;Node9 -->
<g id="edge27" class="edge">
<title>Node18&#45;&gt;Node9</title>
<path fill="none" stroke="midnightblue" d="M663.58,-476C770.59,-469.47 1060.5,-444.23 1060.5,-362.5 1060.5,-362.5 1060.5,-362.5 1060.5,-210 1060.5,-162.89 1029.88,-114.09 1011.68,-89.24"/>
<polygon fill="midnightblue" stroke="midnightblue" points="1014.43,-87.08 1005.61,-81.21 1008.85,-91.3 1014.43,-87.08"/>
</g>
<!-- Node19 -->
<g id="node19" class="node">
<title>Node19</title>
<g id="a_node19"><a xlink:href="block__command__table_8h.html" target="_top" xlink:title="BCTの定義, BCT周りの関数">
<polygon fill="white" stroke="black" points="384.5,-413.5 384.5,-432.5 520.5,-432.5 520.5,-413.5 384.5,-413.5"/>
<text text-anchor="middle" x="452.5" y="-420.5" font-family="Helvetica,sans-Serif" font-size="10.00">block_command_table.h</text>
</a>
</g>
</g>
<!-- Node18&#45;&gt;Node19 -->
<g id="edge29" class="edge">
<title>Node18&#45;&gt;Node19</title>
<path fill="none" stroke="midnightblue" d="M597.25,-469.44C568.06,-460.28 521.58,-445.69 489.19,-435.52"/>
<polygon fill="midnightblue" stroke="midnightblue" points="490.22,-432.17 479.63,-432.52 488.12,-438.85 490.22,-432.17"/>
</g>
<!-- Node19&#45;&gt;Node3 -->
<g id="edge30" class="edge">
<title>Node19&#45;&gt;Node3</title>
<path fill="none" stroke="midnightblue" d="M412.63,-413.48C391.48,-406.95 366.77,-395.76 351.5,-377 326.51,-346.31 332.5,-329.58 332.5,-290 332.5,-290 332.5,-290 332.5,-210 332.5,-167.58 332.5,-117.8 332.5,-91.31"/>
<polygon fill="midnightblue" stroke="midnightblue" points="336,-91.19 332.5,-81.19 329,-91.19 336,-91.19"/>
</g>
<!-- Node19&#45;&gt;Node6 -->
<g id="edge32" class="edge">
<title>Node19&#45;&gt;Node6</title>
<path fill="none" stroke="midnightblue" d="M479.01,-413.48C511.15,-403.14 565.49,-385.66 601.43,-374.1"/>
<polygon fill="midnightblue" stroke="midnightblue" points="602.6,-377.4 611.04,-371.01 600.45,-370.74 602.6,-377.4"/>
</g>
<!-- Node20 -->
<g id="node20" class="node">
<title>Node20</title>
<g id="a_node20"><a xlink:href="block__command__table__params_8h.html" target="_top" xlink:title="BCTのCoreTlmパラメタのオーバーライド用ヘッダー">
<polygon fill="white" stroke="black" points="361,-346.5 361,-376.5 542,-376.5 542,-346.5 361,-346.5"/>
<text text-anchor="start" x="369" y="-364.5" font-family="Helvetica,sans-Serif" font-size="10.00">src_user/Settings/TlmCmd</text>
<text text-anchor="middle" x="451.5" y="-353.5" font-family="Helvetica,sans-Serif" font-size="10.00">/block_command_table_params.h</text>
</a>
</g>
</g>
<!-- Node19&#45;&gt;Node20 -->
<g id="edge31" class="edge">
<title>Node19&#45;&gt;Node20</title>
<path fill="none" stroke="midnightblue" d="M452.36,-413.48C452.24,-406.47 452.07,-396.19 451.91,-386.7"/>
<polygon fill="midnightblue" stroke="midnightblue" points="455.4,-386.46 451.74,-376.52 448.4,-386.58 455.4,-386.46"/>
</g>
</g>
</svg>
