<?xml version="1.0" encoding="UTF-8" standalone="no"?>
<!DOCTYPE svg PUBLIC "-//W3C//DTD SVG 1.1//EN"
 "http://www.w3.org/Graphics/SVG/1.1/DTD/svg11.dtd">
<!-- Generated by graphviz version 2.43.0 (0)
 -->
<!-- Title: CCP_set_dest_type Pages: 1 -->
<svg width="1415pt" height="1031pt"
 viewBox="0.00 0.00 1415.00 1030.50" xmlns="http://www.w3.org/2000/svg" xmlns:xlink="http://www.w3.org/1999/xlink">
<g id="graph0" class="graph" transform="scale(1 1) rotate(0) translate(4 1026.5)">
<title>CCP_set_dest_type</title>
<polygon fill="white" stroke="transparent" points="-4,4 -4,-1026.5 1411,-1026.5 1411,4 -4,4"/>
<!-- Node1 -->
<g id="node1" class="node">
<title>Node1</title>
<g id="a_node1"><a xlink:title="DEST_TYPE を設定">
<polygon fill="#bfbfbf" stroke="black" points="1297,-392.5 1297,-411.5 1407,-411.5 1407,-392.5 1297,-392.5"/>
<text text-anchor="middle" x="1352" y="-399.5" font-family="Helvetica,sans-Serif" font-size="10.00">CCP_set_dest_type</text>
</a>
</g>
</g>
<!-- Node2 -->
<g id="node2" class="node">
<title>Node2</title>
<g id="a_node2"><a xlink:href="common__cmd__packet__util_8c.html#a58160242c4b87906597c90a3465c9596" target="_top" xlink:title="RealTime Command を生成する. CCP_form_* の実体.">
<polygon fill="white" stroke="black" points="1136.5,-468.5 1136.5,-487.5 1224.5,-487.5 1224.5,-468.5 1136.5,-468.5"/>
<text text-anchor="middle" x="1180.5" y="-475.5" font-family="Helvetica,sans-Serif" font-size="10.00">CCP_form_rtc_</text>
</a>
</g>
</g>
<!-- Node1&#45;&gt;Node2 -->
<g id="edge1" class="edge">
<title>Node1&#45;&gt;Node2</title>
<path fill="none" stroke="midnightblue" d="M1320.08,-415.86C1286.09,-431.1 1232.37,-455.19 1202.79,-468.45"/>
<polygon fill="midnightblue" stroke="midnightblue" points="1321.84,-418.91 1329.53,-411.63 1318.98,-412.52 1321.84,-418.91"/>
</g>
<!-- Node81 -->
<g id="node44" class="node">
<title>Node81</title>
<g id="a_node44"><a xlink:href="di__aobc_8h.html#aff7d4f09f3003e15242d14e6ed393059" target="_top" xlink:title="CommonCmdPacket を AOBC に送信する">
<polygon fill="white" stroke="black" points="1100,-373.5 1100,-392.5 1261,-392.5 1261,-373.5 1100,-373.5"/>
<text text-anchor="middle" x="1180.5" y="-380.5" font-family="Helvetica,sans-Serif" font-size="10.00">DI_AOBC_dispatch_command</text>
</a>
</g>
</g>
<!-- Node1&#45;&gt;Node81 -->
<g id="edge60" class="edge">
<title>Node1&#45;&gt;Node81</title>
<path fill="none" stroke="midnightblue" d="M1286.8,-394.8C1278.38,-393.86 1269.67,-392.88 1261.03,-391.91"/>
<polygon fill="midnightblue" stroke="midnightblue" points="1286.58,-398.3 1296.9,-395.94 1287.36,-391.34 1286.58,-398.3"/>
</g>
<!-- Node3 -->
<g id="node3" class="node">
<title>Node3</title>
<g id="a_node3"><a xlink:href="common__cmd__packet__util_8h.html#af9f77cfe0b19d8078e79f1c32d9b2843" target="_top" xlink:title="Realtime command を生成">
<polygon fill="white" stroke="black" points="964,-335.5 964,-354.5 1047,-354.5 1047,-335.5 964,-335.5"/>
<text text-anchor="middle" x="1005.5" y="-342.5" font-family="Helvetica,sans-Serif" font-size="10.00">CCP_form_rtc</text>
</a>
</g>
</g>
<!-- Node2&#45;&gt;Node3 -->
<g id="edge2" class="edge">
<title>Node2&#45;&gt;Node3</title>
<path fill="none" stroke="midnightblue" d="M1158.71,-462.02C1122.51,-434.18 1048.93,-377.62 1019.3,-354.84"/>
<polygon fill="midnightblue" stroke="midnightblue" points="1157,-465.11 1167.06,-468.43 1161.26,-459.57 1157,-465.11"/>
</g>
<!-- Node26 -->
<g id="node12" class="node">
<title>Node26</title>
<g id="a_node12"><a xlink:href="common__cmd__packet__util_8h.html#ae26f24dfab34570ccf41d11ab846c2aa" target="_top" xlink:title="他の OBC のコマンドを RT として生成">
<polygon fill="white" stroke="black" points="602.5,-544.5 602.5,-563.5 753.5,-563.5 753.5,-544.5 602.5,-544.5"/>
<text text-anchor="middle" x="678" y="-551.5" font-family="Helvetica,sans-Serif" font-size="10.00">CCP_form_rtc_to_other_obc</text>
</a>
</g>
</g>
<!-- Node2&#45;&gt;Node26 -->
<g id="edge57" class="edge">
<title>Node2&#45;&gt;Node26</title>
<path fill="none" stroke="midnightblue" d="M1140.17,-490.54C1118,-497.2 1089.68,-505.01 1064,-510 957.18,-530.77 831.65,-542.86 753.69,-548.94"/>
<polygon fill="midnightblue" stroke="midnightblue" points="1141.35,-493.85 1149.89,-487.58 1139.31,-487.15 1141.35,-493.85"/>
</g>
<!-- Node27 -->
<g id="node13" class="node">
<title>Node27</title>
<g id="a_node13"><a xlink:href="common__cmd__packet__util_8h.html#a3695599b4d05dbb0b510c73dab7cd233" target="_top" xlink:title="Timeline command を生成">
<polygon fill="white" stroke="black" points="637,-468.5 637,-487.5 719,-487.5 719,-468.5 637,-468.5"/>
<text text-anchor="middle" x="678" y="-475.5" font-family="Helvetica,sans-Serif" font-size="10.00">CCP_form_tlc</text>
</a>
</g>
</g>
<!-- Node2&#45;&gt;Node27 -->
<g id="edge58" class="edge">
<title>Node2&#45;&gt;Node27</title>
<path fill="none" stroke="midnightblue" d="M1126.13,-478C1025.23,-478 808.6,-478 719.03,-478"/>
<polygon fill="midnightblue" stroke="midnightblue" points="1126.39,-481.5 1136.39,-478 1126.39,-474.5 1126.39,-481.5"/>
</g>
<!-- Node72 -->
<g id="node33" class="node">
<title>Node72</title>
<g id="a_node33"><a xlink:href="common__cmd__packet__util_8h.html#a642139ab97c05af79d26b93a2a57f147" target="_top" xlink:title="他の OBC のコマンドを TL として生成">
<polygon fill="white" stroke="black" points="603,-506.5 603,-525.5 753,-525.5 753,-506.5 603,-506.5"/>
<text text-anchor="middle" x="678" y="-513.5" font-family="Helvetica,sans-Serif" font-size="10.00">CCP_form_tlc_to_other_obc</text>
</a>
</g>
</g>
<!-- Node2&#45;&gt;Node72 -->
<g id="edge59" class="edge">
<title>Node2&#45;&gt;Node72</title>
<path fill="none" stroke="midnightblue" d="M1126.29,-485.11C1106.73,-487.55 1084.38,-490.13 1064,-492 956.13,-501.89 830.87,-508.86 753.26,-512.66"/>
<polygon fill="midnightblue" stroke="midnightblue" points="1126.75,-488.58 1136.23,-483.85 1125.87,-481.63 1126.75,-488.58"/>
</g>
<!-- Node4 -->
<g id="node4" class="node">
<title>Node4</title>
<g id="a_node4"><a xlink:href="common__cmd__packet__util_8h.html#ac4a5c5fca95eda07227b4da1883612fc" target="_top" xlink:title="BC展開 command を生成">
<polygon fill="white" stroke="black" points="597.5,-202.5 597.5,-221.5 758.5,-221.5 758.5,-202.5 597.5,-202.5"/>
<text text-anchor="middle" x="678" y="-209.5" font-family="Helvetica,sans-Serif" font-size="10.00">CCP_form_block_deploy_cmd</text>
</a>
</g>
</g>
<!-- Node3&#45;&gt;Node4 -->
<g id="edge3" class="edge">
<title>Node3&#45;&gt;Node4</title>
<path fill="none" stroke="midnightblue" d="M995.76,-326.08C978.07,-288.72 937.45,-207.78 911,-193 842.56,-154.75 744.62,-185.38 701.19,-202.47"/>
<polygon fill="midnightblue" stroke="midnightblue" points="992.7,-327.8 1000.11,-335.37 999.04,-324.83 992.7,-327.8"/>
</g>
<!-- Node25 -->
<g id="node11" class="node">
<title>Node25</title>
<g id="a_node11"><a xlink:href="common__cmd__packet__util_8c.html#a01b352632ca605771f0cfd66a2a149ba" target="_top" xlink:title="NOP cmd の RTC CCP を作る">
<polygon fill="white" stroke="black" points="800,-430.5 800,-449.5 911,-449.5 911,-430.5 800,-430.5"/>
<text text-anchor="middle" x="855.5" y="-437.5" font-family="Helvetica,sans-Serif" font-size="10.00">CCP_form_nop_rtc_</text>
</a>
</g>
</g>
<!-- Node3&#45;&gt;Node25 -->
<g id="edge10" class="edge">
<title>Node3&#45;&gt;Node25</title>
<path fill="none" stroke="midnightblue" d="M977.1,-360.84C959.07,-374.32 934.55,-393.14 911,-407 895.85,-415.92 876.79,-423.57 865.69,-430.35"/>
<polygon fill="midnightblue" stroke="midnightblue" points="979.44,-363.46 985.39,-354.69 975.27,-357.83 979.44,-363.46"/>
</g>
<!-- Node75 -->
<g id="node36" class="node">
<title>Node75</title>
<g id="a_node36"><a xlink:href="common__cmd__packet__util_8h.html#aedfb69bc9ff98498734df05026c5a3f2" target="_top" xlink:title="Realtime command を登録">
<polygon fill="white" stroke="black" points="807,-316.5 807,-335.5 904,-335.5 904,-316.5 807,-316.5"/>
<text text-anchor="middle" x="855.5" y="-323.5" font-family="Helvetica,sans-Serif" font-size="10.00">CCP_register_rtc</text>
</a>
</g>
</g>
<!-- Node3&#45;&gt;Node75 -->
<g id="edge46" class="edge">
<title>Node3&#45;&gt;Node75</title>
<path fill="none" stroke="midnightblue" d="M953.4,-338.44C937.38,-336.38 919.77,-334.12 904.01,-332.1"/>
<polygon fill="midnightblue" stroke="midnightblue" points="953.3,-341.96 963.67,-339.76 954.19,-335.01 953.3,-341.96"/>
</g>
<!-- Node76 -->
<g id="node37" class="node">
<title>Node76</title>
<g id="a_node37"><a xlink:href="telemetry__manager_8h.html#a923d6ea9078726984798c4b0800381fe" target="_top" xlink:title="TLM送出用TLをクリア">
<polygon fill="white" stroke="black" points="592,-392.5 592,-411.5 764,-411.5 764,-392.5 592,-392.5"/>
<text text-anchor="middle" x="678" y="-399.5" font-family="Helvetica,sans-Serif" font-size="10.00">Cmd_TLM_MGR_CLEAR_TLM_TL</text>
</a>
</g>
</g>
<!-- Node3&#45;&gt;Node76 -->
<g id="edge47" class="edge">
<title>Node3&#45;&gt;Node76</title>
<path fill="none" stroke="midnightblue" d="M972.91,-358.25C955.04,-365.21 932.11,-373.25 911,-378 863,-388.79 808.3,-394.75 764.08,-398.02"/>
<polygon fill="midnightblue" stroke="midnightblue" points="974.27,-361.48 982.27,-354.53 971.68,-354.97 974.27,-361.48"/>
</g>
<!-- Node77 -->
<g id="node38" class="node">
<title>Node77</title>
<g id="a_node38"><a xlink:href="divided__cmd__utility_8h.html#a65ad0b8aa0af1c9c0bdd74aa37b15b15" target="_top" xlink:title="次の分割の実行を登録">
<polygon fill="white" stroke="black" points="410,-278.5 410,-297.5 518,-297.5 518,-278.5 410,-278.5"/>
<text text-anchor="middle" x="464" y="-285.5" font-family="Helvetica,sans-Serif" font-size="10.00">DCU_register_next</text>
</a>
</g>
</g>
<!-- Node3&#45;&gt;Node77 -->
<g id="edge49" class="edge">
<title>Node3&#45;&gt;Node77</title>
<path fill="none" stroke="midnightblue" d="M953.56,-347.38C912.12,-348.74 852.18,-349.41 800,-345 745.48,-340.39 594.07,-312.54 514.82,-297.54"/>
<polygon fill="midnightblue" stroke="midnightblue" points="953.8,-350.87 963.67,-347.02 953.56,-343.87 953.8,-350.87"/>
</g>
<!-- Node78 -->
<g id="node41" class="node">
<title>Node78</title>
<g id="a_node41"><a xlink:href="sequence__items_8h.html#ac5b43e918a54df9779de00de808b12d1" target="_top" xlink:title=" ">
<polygon fill="white" stroke="black" points="808,-278.5 808,-297.5 903,-297.5 903,-278.5 808,-278.5"/>
<text text-anchor="middle" x="855.5" y="-285.5" font-family="Helvetica,sans-Serif" font-size="10.00">SI_deploy_block</text>
</a>
</g>
</g>
<!-- Node3&#45;&gt;Node78 -->
<g id="edge54" class="edge">
<title>Node3&#45;&gt;Node78</title>
<path fill="none" stroke="midnightblue" d="M972.51,-331.53C954.53,-324.08 931.61,-314.78 911,-307 902.56,-303.82 893.32,-300.52 884.88,-297.59"/>
<polygon fill="midnightblue" stroke="midnightblue" points="971.38,-334.85 981.95,-335.46 974.07,-328.39 971.38,-334.85"/>
</g>
<!-- Node79 -->
<g id="node42" class="node">
<title>Node79</title>
<g id="a_node42"><a xlink:href="sequence__items_8h.html#aa4a6c84c11e36c033cf8100c04458ee9" target="_top" xlink:title=" ">
<polygon fill="white" stroke="black" points="801,-240.5 801,-259.5 910,-259.5 910,-240.5 801,-240.5"/>
<text text-anchor="middle" x="855.5" y="-247.5" font-family="Helvetica,sans-Serif" font-size="10.00">SI_finish_transition</text>
</a>
</g>
</g>
<!-- Node3&#45;&gt;Node79 -->
<g id="edge55" class="edge">
<title>Node3&#45;&gt;Node79</title>
<path fill="none" stroke="midnightblue" d="M987.68,-328.24C969.92,-311.34 940.46,-285.44 911,-269 904.44,-265.34 897.04,-262.19 889.87,-259.57"/>
<polygon fill="midnightblue" stroke="midnightblue" points="985.36,-330.87 994.97,-335.31 990.23,-325.84 985.36,-330.87"/>
</g>
<!-- Node80 -->
<g id="node43" class="node">
<title>Node80</title>
<g id="a_node43"><a xlink:href="sequence__items_8h.html#a0d524415abe3f1169e24b7f4aeec1096" target="_top" xlink:title=" ">
<polygon fill="white" stroke="black" points="809.5,-202.5 809.5,-221.5 901.5,-221.5 901.5,-202.5 809.5,-202.5"/>
<text text-anchor="middle" x="855.5" y="-209.5" font-family="Helvetica,sans-Serif" font-size="10.00">SI_start_hk_tlm</text>
</a>
</g>
</g>
<!-- Node3&#45;&gt;Node80 -->
<g id="edge56" class="edge">
<title>Node3&#45;&gt;Node80</title>
<path fill="none" stroke="midnightblue" d="M993.78,-326.36C978.47,-301.29 948.05,-256.88 911,-231 905.58,-227.21 899.33,-224.12 893.04,-221.6"/>
<polygon fill="midnightblue" stroke="midnightblue" points="990.94,-328.42 999.06,-335.23 996.96,-324.85 990.94,-328.42"/>
</g>
<!-- Node5 -->
<g id="node5" class="node">
<title>Node5</title>
<g id="a_node5"><a xlink:href="telemetry__manager_8h.html#ad6f65df0da86f70cbd0f5b1e6cb32dbc" target="_top" xlink:title="TLM送出開始">
<polygon fill="white" stroke="black" points="387,-316.5 387,-335.5 541,-335.5 541,-316.5 387,-316.5"/>
<text text-anchor="middle" x="464" y="-323.5" font-family="Helvetica,sans-Serif" font-size="10.00">Cmd_TLM_MGR_START_TLM</text>
</a>
</g>
</g>
<!-- Node4&#45;&gt;Node5 -->
<g id="edge4" class="edge">
<title>Node4&#45;&gt;Node5</title>
<path fill="none" stroke="midnightblue" d="M660.89,-228.75C639.15,-250.31 598.27,-287.32 556,-307 547.66,-310.88 538.52,-313.98 529.36,-316.44"/>
<polygon fill="midnightblue" stroke="midnightblue" points="663.45,-231.14 668,-221.57 658.47,-226.21 663.45,-231.14"/>
</g>
<!-- Node12 -->
<g id="node7" class="node">
<title>Node12</title>
<g id="a_node7"><a xlink:href="event__handler_8c.html#a8d7de705ac2b09f9f25644f0c9f55952" target="_top" xlink:title="EH 対応を実施">
<polygon fill="white" stroke="black" points="424,-202.5 424,-221.5 504,-221.5 504,-202.5 424,-202.5"/>
<text text-anchor="middle" x="464" y="-209.5" font-family="Helvetica,sans-Serif" font-size="10.00">EH_respond_</text>
</a>
</g>
</g>
<!-- Node4&#45;&gt;Node12 -->
<g id="edge6" class="edge">
<title>Node4&#45;&gt;Node12</title>
<path fill="none" stroke="midnightblue" d="M587.28,-212C558.28,-212 527.62,-212 504.25,-212"/>
<polygon fill="midnightblue" stroke="midnightblue" points="587.46,-215.5 597.46,-212 587.46,-208.5 587.46,-215.5"/>
</g>
<!-- Node21 -->
<g id="node9" class="node">
<title>Node21</title>
<g id="a_node9"><a xlink:href="mode__manager_8c.html#a4a483437e28116e6067d488392922a8f" target="_top" xlink:title="(モード遷移に対応する)ブロックコマンドのタイムラインへの展開を行う">
<polygon fill="white" stroke="black" points="396,-164.5 396,-183.5 532,-183.5 532,-164.5 396,-164.5"/>
<text text-anchor="middle" x="464" y="-171.5" font-family="Helvetica,sans-Serif" font-size="10.00">MM_deploy_block_cmd_</text>
</a>
</g>
</g>
<!-- Node4&#45;&gt;Node21 -->
<g id="edge8" class="edge">
<title>Node4&#45;&gt;Node21</title>
<path fill="none" stroke="midnightblue" d="M613.7,-200.65C583.28,-195.2 547.23,-188.74 518.24,-183.54"/>
<polygon fill="midnightblue" stroke="midnightblue" points="613.32,-204.14 623.78,-202.46 614.55,-197.25 613.32,-204.14"/>
</g>
<!-- Node6 -->
<g id="node6" class="node">
<title>Node6</title>
<g id="a_node6"><a xlink:href="command__definitions_8c.html#aa375895192b16d8e7f0ff4545b54e6c4" target="_top" xlink:title="Cmd Tableのロード">
<polygon fill="white" stroke="red" points="0,-449.5 0,-468.5 113,-468.5 113,-449.5 0,-449.5"/>
<text text-anchor="middle" x="56.5" y="-456.5" font-family="Helvetica,sans-Serif" font-size="10.00">CA_load_cmd_table</text>
</a>
</g>
</g>
<!-- Node5&#45;&gt;Node6 -->
<g id="edge5" class="edge">
<title>Node5&#45;&gt;Node6</title>
<path fill="none" stroke="midnightblue" d="M383.66,-315.67C317.28,-310.74 221.98,-312.53 149,-350 104.82,-372.68 73.61,-426.94 62.24,-449.21"/>
<polygon fill="midnightblue" stroke="midnightblue" points="383.4,-319.16 393.65,-316.48 383.97,-312.19 383.4,-319.16"/>
</g>
<!-- Node13 -->
<g id="node8" class="node">
<title>Node13</title>
<g id="a_node8"><a xlink:href="event__handler_8c.html#ac7461e79109f06783e2c620a6d999a6b" target="_top" xlink:title="EH の対応条件をチェックし， EL_Event に対応する">
<polygon fill="white" stroke="red" points="162,-202.5 162,-221.5 323,-221.5 323,-202.5 162,-202.5"/>
<text text-anchor="middle" x="242.5" y="-209.5" font-family="Helvetica,sans-Serif" font-size="10.00">EH_check_rule_and_respond_</text>
</a>
</g>
</g>
<!-- Node12&#45;&gt;Node13 -->
<g id="edge7" class="edge">
<title>Node12&#45;&gt;Node13</title>
<path fill="none" stroke="midnightblue" d="M413.55,-212C386.95,-212 353.5,-212 323.31,-212"/>
<polygon fill="midnightblue" stroke="midnightblue" points="413.76,-215.5 423.76,-212 413.76,-208.5 413.76,-215.5"/>
</g>
<!-- Node22 -->
<g id="node10" class="node">
<title>Node22</title>
<g id="a_node10"><a xlink:href="mode__manager_8c.html#ae4381c1c84d8b5d8aa033e522530436d" target="_top" xlink:title="Cmd_MM_START_TRANSITIONの実体">
<polygon fill="white" stroke="red" points="183,-164.5 183,-183.5 302,-183.5 302,-164.5 183,-164.5"/>
<text text-anchor="middle" x="242.5" y="-171.5" font-family="Helvetica,sans-Serif" font-size="10.00">MM_start_transition_</text>
</a>
</g>
</g>
<!-- Node21&#45;&gt;Node22 -->
<g id="edge9" class="edge">
<title>Node21&#45;&gt;Node22</title>
<path fill="none" stroke="midnightblue" d="M385.62,-174C358.24,-174 327.92,-174 302.34,-174"/>
<polygon fill="midnightblue" stroke="midnightblue" points="385.95,-177.5 395.95,-174 385.95,-170.5 385.95,-177.5"/>
</g>
<!-- Node25&#45;&gt;Node3 -->
<g id="edge12" class="edge">
<title>Node25&#45;&gt;Node3</title>
<path fill="none" stroke="midnightblue" d="M909.79,-425.71C910.2,-425.47 910.6,-425.24 911,-425 946.65,-404.01 984.56,-371.66 998.72,-354.68"/>
<polygon fill="midnightblue" stroke="midnightblue" points="908.11,-422.63 900.96,-430.45 911.43,-428.8 908.11,-422.63"/>
</g>
<!-- Node25&#45;&gt;Node4 -->
<g id="edge11" class="edge">
<title>Node25&#45;&gt;Node4</title>
<path fill="none" stroke="midnightblue" d="M840.99,-422.44C805.97,-376.95 713.16,-256.38 686.35,-221.55"/>
<polygon fill="midnightblue" stroke="midnightblue" points="838.31,-424.7 847.18,-430.49 843.86,-420.43 838.31,-424.7"/>
</g>
<!-- Node25&#45;&gt;Node26 -->
<g id="edge13" class="edge">
<title>Node25&#45;&gt;Node26</title>
<path fill="none" stroke="midnightblue" d="M842.54,-457.93C827.06,-479.67 798,-515.77 764,-535 757.16,-538.87 749.59,-541.95 741.87,-544.41"/>
<polygon fill="midnightblue" stroke="midnightblue" points="845.51,-459.8 848.32,-449.59 839.75,-455.82 845.51,-459.8"/>
</g>
<!-- Node25&#45;&gt;Node27 -->
<g id="edge14" class="edge">
<title>Node25&#45;&gt;Node27</title>
<path fill="none" stroke="midnightblue" d="M800.41,-451.71C774.16,-457.4 743.17,-464.11 719.07,-469.32"/>
<polygon fill="midnightblue" stroke="midnightblue" points="801.18,-455.13 810.21,-449.59 799.7,-448.28 801.18,-455.13"/>
</g>
<!-- Node25&#45;&gt;Node72 -->
<g id="edge43" class="edge">
<title>Node25&#45;&gt;Node72</title>
<path fill="none" stroke="midnightblue" d="M834,-455.8C816.35,-468.67 789.73,-486.39 764,-497 754.77,-500.8 744.65,-503.91 734.72,-506.42"/>
<polygon fill="midnightblue" stroke="midnightblue" points="836.43,-458.35 842.36,-449.57 832.25,-452.74 836.43,-458.35"/>
</g>
<!-- Node27&#45;&gt;Node5 -->
<g id="edge31" class="edge">
<title>Node27&#45;&gt;Node5</title>
<path fill="none" stroke="midnightblue" d="M651.55,-463.01C634.09,-452.24 610.78,-436.87 592,-421 574.23,-405.98 574,-397.74 556,-383 532.63,-363.87 502.4,-346.13 483.35,-335.67"/>
<polygon fill="midnightblue" stroke="midnightblue" points="650.22,-466.29 660.58,-468.49 653.85,-460.31 650.22,-466.29"/>
</g>
<!-- Node28 -->
<g id="node14" class="node">
<title>Node28</title>
<g id="a_node14"><a xlink:href="block__command__loader_8c.html#a34da4d8efe30b2f1872103496dfcf8cb" target="_top" xlink:title=" ">
<polygon fill="white" stroke="black" points="409,-582.5 409,-601.5 519,-601.5 519,-582.5 409,-582.5"/>
<text text-anchor="middle" x="464" y="-589.5" font-family="Helvetica,sans-Serif" font-size="10.00">BCL_register_cmd_</text>
</a>
</g>
</g>
<!-- Node27&#45;&gt;Node28 -->
<g id="edge15" class="edge">
<title>Node27&#45;&gt;Node28</title>
<path fill="none" stroke="midnightblue" d="M626.84,-484.08C614.91,-486.89 602.58,-490.99 592,-497 571.77,-508.48 574,-520.26 556,-535 532.63,-554.13 502.4,-571.87 483.35,-582.33"/>
<polygon fill="midnightblue" stroke="midnightblue" points="627.65,-487.48 636.72,-482.01 626.22,-480.63 627.65,-487.48"/>
</g>
<!-- Node54 -->
<g id="node20" class="node">
<title>Node54</title>
<g id="a_node20"><a xlink:href="common__cmd__packet__util_8h.html#a7e4a83a103dfa316c08b1570d93df0d1" target="_top" xlink:title="App 実行 TL コマンドを生成">
<polygon fill="white" stroke="black" points="407,-506.5 407,-525.5 521,-525.5 521,-506.5 407,-506.5"/>
<text text-anchor="middle" x="464" y="-513.5" font-family="Helvetica,sans-Serif" font-size="10.00">CCP_form_app_cmd</text>
</a>
</g>
</g>
<!-- Node27&#45;&gt;Node54 -->
<g id="edge21" class="edge">
<title>Node27&#45;&gt;Node54</title>
<path fill="none" stroke="midnightblue" d="M626.38,-487.07C593.69,-492.93 551.22,-500.54 518.06,-506.49"/>
<polygon fill="midnightblue" stroke="midnightblue" points="627.4,-490.45 636.63,-485.24 626.16,-483.56 627.4,-490.45"/>
</g>
<!-- Node61 -->
<g id="node22" class="node">
<title>Node61</title>
<g id="a_node22"><a xlink:href="common__cmd__packet__util_8h.html#a8321fb60193f3b5dcf93b42075bea0a6" target="_top" xlink:title="Timeline command を登録">
<polygon fill="white" stroke="black" points="416,-620.5 416,-639.5 512,-639.5 512,-620.5 416,-620.5"/>
<text text-anchor="middle" x="464" y="-627.5" font-family="Helvetica,sans-Serif" font-size="10.00">CCP_register_tlc</text>
</a>
</g>
</g>
<!-- Node27&#45;&gt;Node61 -->
<g id="edge23" class="edge">
<title>Node27&#45;&gt;Node61</title>
<path fill="none" stroke="midnightblue" d="M626.66,-480.45C614.09,-483.27 601.49,-488.29 592,-497 552.85,-532.92 595.4,-575.35 556,-611 544.15,-621.72 527.86,-626.99 512.33,-629.42"/>
<polygon fill="midnightblue" stroke="midnightblue" points="627.47,-483.86 636.69,-478.64 626.22,-476.98 627.47,-483.86"/>
</g>
<!-- Node62 -->
<g id="node23" class="node">
<title>Node62</title>
<g id="a_node23"><a xlink:href="common__cmd__packet__util_8h.html#a81e108413662be4555dc9ca3fadc6d11" target="_top" xlink:title="Timeline command を登録 (ASAP 版)">
<polygon fill="white" stroke="black" points="401.5,-705.5 401.5,-724.5 526.5,-724.5 526.5,-705.5 401.5,-705.5"/>
<text text-anchor="middle" x="464" y="-712.5" font-family="Helvetica,sans-Serif" font-size="10.00">CCP_register_tlc_asap</text>
</a>
</g>
</g>
<!-- Node27&#45;&gt;Node62 -->
<g id="edge24" class="edge">
<title>Node27&#45;&gt;Node62</title>
<path fill="none" stroke="midnightblue" d="M626.58,-479.92C613.88,-482.72 601.25,-487.86 592,-497 542.6,-545.78 594.51,-591.23 556,-649 538.46,-675.31 506.68,-694.75 485.7,-705.48"/>
<polygon fill="midnightblue" stroke="midnightblue" points="627.46,-483.32 636.71,-478.14 626.25,-476.42 627.46,-483.32"/>
</g>
<!-- Node64 -->
<g id="node25" class="node">
<title>Node64</title>
<g id="a_node25"><a xlink:href="block__command__table_8h.html#a4ad040fa043c293c99d80d36b9536035" target="_top" xlink:title=" ">
<polygon fill="white" stroke="black" points="185,-468.5 185,-487.5 300,-487.5 300,-468.5 185,-468.5"/>
<text text-anchor="middle" x="242.5" y="-475.5" font-family="Helvetica,sans-Serif" font-size="10.00">Cmd_BCT_FILL_NOP</text>
</a>
</g>
</g>
<!-- Node27&#45;&gt;Node64 -->
<g id="edge27" class="edge">
<title>Node27&#45;&gt;Node64</title>
<path fill="none" stroke="midnightblue" d="M626.52,-478C545.17,-478 385.58,-478 300.34,-478"/>
<polygon fill="midnightblue" stroke="midnightblue" points="626.99,-481.5 636.99,-478 626.99,-474.5 626.99,-481.5"/>
</g>
<!-- Node65 -->
<g id="node26" class="node">
<title>Node65</title>
<g id="a_node26"><a xlink:href="block__command__table_8h.html#afb56b53815cce4e3c34d0463073368ec" target="_top" xlink:title=" ">
<polygon fill="white" stroke="black" points="386,-430.5 386,-449.5 542,-449.5 542,-430.5 386,-430.5"/>
<text text-anchor="middle" x="464" y="-437.5" font-family="Helvetica,sans-Serif" font-size="10.00">Cmd_BCT_OVERWRITE_CMD</text>
</a>
</g>
</g>
<!-- Node27&#45;&gt;Node65 -->
<g id="edge29" class="edge">
<title>Node27&#45;&gt;Node65</title>
<path fill="none" stroke="midnightblue" d="M626.38,-468.93C593.69,-463.07 551.22,-455.46 518.06,-449.51"/>
<polygon fill="midnightblue" stroke="midnightblue" points="626.16,-472.44 636.63,-470.76 627.4,-465.55 626.16,-472.44"/>
</g>
<!-- Node66 -->
<g id="node27" class="node">
<title>Node66</title>
<g id="a_node27"><a xlink:href="telemetry__manager_8h.html#a0149b05e84bcce79dc6b019d5bb99ce1" target="_top" xlink:title="TLM送出一時停止">
<polygon fill="white" stroke="black" points="389.5,-392.5 389.5,-411.5 538.5,-411.5 538.5,-392.5 389.5,-392.5"/>
<text text-anchor="middle" x="464" y="-399.5" font-family="Helvetica,sans-Serif" font-size="10.00">Cmd_TLM_MGR_STOP_TLM</text>
</a>
</g>
</g>
<!-- Node27&#45;&gt;Node66 -->
<g id="edge32" class="edge">
<title>Node27&#45;&gt;Node66</title>
<path fill="none" stroke="midnightblue" d="M651.06,-463.59C627.05,-450.79 590.02,-432.39 556,-421 544.83,-417.26 532.63,-414.11 520.89,-411.51"/>
<polygon fill="midnightblue" stroke="midnightblue" points="649.44,-466.69 659.9,-468.37 652.76,-460.53 649.44,-466.69"/>
</g>
<!-- Node67 -->
<g id="node28" class="node">
<title>Node67</title>
<g id="a_node28"><a xlink:href="telemetry__manager_8c.html#a2cf8d6a2174e6649a0f079f3a292fcd4" target="_top" xlink:title="TLM_MGR_RegisterInfo に テレメ生成コマンドを登録する">
<polygon fill="white" stroke="black" points="372,-850.5 372,-869.5 556,-869.5 556,-850.5 372,-850.5"/>
<text text-anchor="middle" x="464" y="-857.5" font-family="Helvetica,sans-Serif" font-size="10.00">TLM_MGR_register_generate_tlm_</text>
</a>
</g>
</g>
<!-- Node27&#45;&gt;Node67 -->
<g id="edge34" class="edge">
<title>Node27&#45;&gt;Node67</title>
<path fill="none" stroke="midnightblue" d="M626.8,-479.27C613.86,-482.03 601.04,-487.31 592,-497 519.31,-574.9 596.32,-635.38 556,-734 536.09,-782.7 493.71,-830.32 474.65,-850.24"/>
<polygon fill="midnightblue" stroke="midnightblue" points="627.38,-482.72 636.67,-477.62 626.23,-475.82 627.38,-482.72"/>
</g>
<!-- Node29 -->
<g id="node15" class="node">
<title>Node29</title>
<g id="a_node15"><a xlink:href="block__command__loader_8h.html#adc8e2381948a082e62d72d9971fc203f" target="_top" xlink:title="ブロックコマンドの最後にコマンドを追加する">
<polygon fill="white" stroke="red" points="178.5,-544.5 178.5,-563.5 306.5,-563.5 306.5,-544.5 178.5,-544.5"/>
<text text-anchor="middle" x="242.5" y="-551.5" font-family="Helvetica,sans-Serif" font-size="10.00">BCL_tool_register_cmd</text>
</a>
</g>
</g>
<!-- Node28&#45;&gt;Node29 -->
<g id="edge16" class="edge">
<title>Node28&#45;&gt;Node29</title>
<path fill="none" stroke="midnightblue" d="M398.67,-580.86C366.94,-575.37 329.05,-568.81 298.66,-563.55"/>
<polygon fill="midnightblue" stroke="midnightblue" points="398.29,-584.35 408.74,-582.61 399.49,-577.45 398.29,-584.35"/>
</g>
<!-- Node46 -->
<g id="node16" class="node">
<title>Node46</title>
<g id="a_node16"><a xlink:href="block__command__loader_8h.html#a99596019ff3a563f43ebae43ce86a03a" target="_top" xlink:title="ブロックコマンドの最後にコンバイナーの実行コマンドを追加する">
<polygon fill="white" stroke="red" points="168,-708.5 168,-727.5 317,-727.5 317,-708.5 168,-708.5"/>
<text text-anchor="middle" x="242.5" y="-715.5" font-family="Helvetica,sans-Serif" font-size="10.00">BCL_tool_register_combine</text>
</a>
</g>
</g>
<!-- Node28&#45;&gt;Node46 -->
<g id="edge17" class="edge">
<title>Node28&#45;&gt;Node46</title>
<path fill="none" stroke="midnightblue" d="M398.79,-597.13C389.07,-600.15 379.72,-604.57 372,-611 339.52,-638.03 368.52,-672.02 336,-699 330.45,-703.61 324.07,-707.19 317.32,-709.97"/>
<polygon fill="midnightblue" stroke="midnightblue" points="399.81,-600.48 408.6,-594.56 398.04,-593.71 399.81,-600.48"/>
</g>
<!-- Node51 -->
<g id="node17" class="node">
<title>Node51</title>
<g id="a_node17"><a xlink:href="block__command__loader_8h.html#a3dab8c3e3aac3833b245e3ba7c597b81" target="_top" xlink:title="ブロックコマンドの最後にブロックコマンドの展開コマンドを追加する">
<polygon fill="white" stroke="red" points="172.5,-670.5 172.5,-689.5 312.5,-689.5 312.5,-670.5 172.5,-670.5"/>
<text text-anchor="middle" x="242.5" y="-677.5" font-family="Helvetica,sans-Serif" font-size="10.00">BCL_tool_register_deploy</text>
</a>
</g>
</g>
<!-- Node28&#45;&gt;Node51 -->
<g id="edge18" class="edge">
<title>Node28&#45;&gt;Node51</title>
<path fill="none" stroke="midnightblue" d="M398.99,-599.06C389.47,-601.86 380.14,-605.71 372,-611 349.04,-625.92 358.98,-646.12 336,-661 328.98,-665.54 321.09,-669.03 312.95,-671.7"/>
<polygon fill="midnightblue" stroke="midnightblue" points="400.12,-602.39 408.93,-596.51 398.38,-595.61 400.12,-602.39"/>
</g>
<!-- Node52 -->
<g id="node18" class="node">
<title>Node52</title>
<g id="a_node18"><a xlink:href="block__command__loader_8h.html#a5b59475bbbf303eaca56af95565e6f69" target="_top" xlink:title="ブロックコマンドの最後にタイムリミットコンバイナーの実行コマンドを追加する">
<polygon fill="white" stroke="black" points="177.5,-621 177.5,-651 307.5,-651 307.5,-621 177.5,-621"/>
<text text-anchor="start" x="185.5" y="-639" font-family="Helvetica,sans-Serif" font-size="10.00">BCL_tool_register_limit</text>
<text text-anchor="middle" x="242.5" y="-628" font-family="Helvetica,sans-Serif" font-size="10.00">_combine</text>
</a>
</g>
</g>
<!-- Node28&#45;&gt;Node52 -->
<g id="edge19" class="edge">
<title>Node28&#45;&gt;Node52</title>
<path fill="none" stroke="midnightblue" d="M405.47,-603.53C375.45,-609.55 338.64,-616.93 307.69,-623.13"/>
<polygon fill="midnightblue" stroke="midnightblue" points="406.25,-606.94 415.37,-601.55 404.88,-600.08 406.25,-606.94"/>
</g>
<!-- Node53 -->
<g id="node19" class="node">
<title>Node53</title>
<g id="a_node19"><a xlink:href="block__command__loader_8h.html#a03346645bccaa62a79cee806dfb3609e" target="_top" xlink:title="ブロックコマンドの最後にローテーターの実行コマンドを追加する">
<polygon fill="white" stroke="red" points="174,-582.5 174,-601.5 311,-601.5 311,-582.5 174,-582.5"/>
<text text-anchor="middle" x="242.5" y="-589.5" font-family="Helvetica,sans-Serif" font-size="10.00">BCL_tool_register_rotate</text>
</a>
</g>
</g>
<!-- Node28&#45;&gt;Node53 -->
<g id="edge20" class="edge">
<title>Node28&#45;&gt;Node53</title>
<path fill="none" stroke="midnightblue" d="M398.47,-592C371.04,-592 339.05,-592 311.28,-592"/>
<polygon fill="midnightblue" stroke="midnightblue" points="398.74,-595.5 408.74,-592 398.74,-588.5 398.74,-595.5"/>
</g>
<!-- Node55 -->
<g id="node21" class="node">
<title>Node55</title>
<g id="a_node21"><a xlink:href="block__command__loader_8c.html#a8b8df5aca929f5b6307b9695bb2a5b54" target="_top" xlink:title=" ">
<polygon fill="white" stroke="red" points="189,-506.5 189,-525.5 296,-525.5 296,-506.5 189,-506.5"/>
<text text-anchor="middle" x="242.5" y="-513.5" font-family="Helvetica,sans-Serif" font-size="10.00">BCL_register_app_</text>
</a>
</g>
</g>
<!-- Node54&#45;&gt;Node55 -->
<g id="edge22" class="edge">
<title>Node54&#45;&gt;Node55</title>
<path fill="none" stroke="midnightblue" d="M396.54,-516C364.38,-516 326.32,-516 296.2,-516"/>
<polygon fill="midnightblue" stroke="midnightblue" points="396.76,-519.5 406.76,-516 396.76,-512.5 396.76,-519.5"/>
</g>
<!-- Node63 -->
<g id="node24" class="node">
<title>Node63</title>
<g id="a_node24"><a xlink:href="test__ccp__util_8h.html#aa30e45980435690c0efaf62a690dd1c5" target="_top" xlink:title=" ">
<polygon fill="white" stroke="black" points="169.5,-747 169.5,-777 315.5,-777 315.5,-747 169.5,-747"/>
<text text-anchor="start" x="177.5" y="-765" font-family="Helvetica,sans-Serif" font-size="10.00">Cmd_TEST_CCP_REGISTER</text>
<text text-anchor="middle" x="242.5" y="-754" font-family="Helvetica,sans-Serif" font-size="10.00">_TLC_ASAP</text>
</a>
</g>
</g>
<!-- Node62&#45;&gt;Node63 -->
<g id="edge25" class="edge">
<title>Node62&#45;&gt;Node63</title>
<path fill="none" stroke="midnightblue" d="M408.74,-726.62C380.07,-732.76 344.54,-740.36 313.78,-746.95"/>
<polygon fill="midnightblue" stroke="midnightblue" points="409.54,-730.03 418.58,-724.51 408.07,-723.18 409.54,-730.03"/>
</g>
<!-- Node63&#45;&gt;Node6 -->
<g id="edge26" class="edge">
<title>Node63&#45;&gt;Node6</title>
<path fill="none" stroke="midnightblue" d="M160.59,-745.74C156.42,-743.22 152.51,-740.33 149,-737 67.3,-659.6 58.48,-508.02 57.59,-468.57"/>
<polygon fill="midnightblue" stroke="midnightblue" points="158.99,-748.85 169.48,-750.39 162.24,-742.65 158.99,-748.85"/>
</g>
<!-- Node64&#45;&gt;Node6 -->
<g id="edge28" class="edge">
<title>Node64&#45;&gt;Node6</title>
<path fill="none" stroke="midnightblue" d="M174.71,-471.1C154.48,-469.01 132.49,-466.74 113.07,-464.74"/>
<polygon fill="midnightblue" stroke="midnightblue" points="174.49,-474.6 184.79,-472.14 175.2,-467.64 174.49,-474.6"/>
</g>
<!-- Node65&#45;&gt;Node6 -->
<g id="edge30" class="edge">
<title>Node65&#45;&gt;Node6</title>
<path fill="none" stroke="midnightblue" d="M375.77,-444.09C296.21,-447.81 181.05,-453.21 113.27,-456.39"/>
<polygon fill="midnightblue" stroke="midnightblue" points="375.95,-447.58 385.77,-443.62 375.62,-440.59 375.95,-447.58"/>
</g>
<!-- Node66&#45;&gt;Node6 -->
<g id="edge33" class="edge">
<title>Node66&#45;&gt;Node6</title>
<path fill="none" stroke="midnightblue" d="M379.29,-411.35C315.93,-418.74 226.82,-429.82 149,-442 134.95,-444.2 119.75,-446.89 105.85,-449.48"/>
<polygon fill="midnightblue" stroke="midnightblue" points="379.71,-414.82 389.24,-410.19 378.9,-407.87 379.71,-414.82"/>
</g>
<!-- Node68 -->
<g id="node29" class="node">
<title>Node68</title>
<g id="a_node29"><a xlink:href="telemetry__manager_8h.html#aa25105738fa6140b99a82d5d28b3b89f" target="_top" xlink:title="high_freq_tlm を登録">
<polygon fill="white" stroke="black" points="169.5,-796 169.5,-826 315.5,-826 315.5,-796 169.5,-796"/>
<text text-anchor="start" x="177.5" y="-814" font-family="Helvetica,sans-Serif" font-size="10.00">Cmd_TLM_MGR_REGISTER</text>
<text text-anchor="middle" x="242.5" y="-803" font-family="Helvetica,sans-Serif" font-size="10.00">_HIGH_FREQ_TLM</text>
</a>
</g>
</g>
<!-- Node67&#45;&gt;Node68 -->
<g id="edge35" class="edge">
<title>Node67&#45;&gt;Node68</title>
<path fill="none" stroke="midnightblue" d="M410.62,-848.31C380.78,-841.64 343.06,-833.23 311.01,-826.07"/>
<polygon fill="midnightblue" stroke="midnightblue" points="409.9,-851.73 420.42,-850.49 411.42,-844.9 409.9,-851.73"/>
</g>
<!-- Node69 -->
<g id="node30" class="node">
<title>Node69</title>
<g id="a_node30"><a xlink:href="telemetry__manager_8h.html#a47e992abafa10e575d0e5cf22875ed81" target="_top" xlink:title="HKテレメを登録">
<polygon fill="white" stroke="black" points="169.5,-943 169.5,-973 315.5,-973 315.5,-943 169.5,-943"/>
<text text-anchor="start" x="177.5" y="-961" font-family="Helvetica,sans-Serif" font-size="10.00">Cmd_TLM_MGR_REGISTER</text>
<text text-anchor="middle" x="242.5" y="-950" font-family="Helvetica,sans-Serif" font-size="10.00">_HK_TLM</text>
</a>
</g>
</g>
<!-- Node67&#45;&gt;Node69 -->
<g id="edge37" class="edge">
<title>Node67&#45;&gt;Node69</title>
<path fill="none" stroke="midnightblue" d="M440.99,-875.35C416.4,-891.88 374.92,-917.97 336,-934 327.87,-937.35 319.14,-940.34 310.41,-942.98"/>
<polygon fill="midnightblue" stroke="midnightblue" points="443.26,-878.04 449.55,-869.52 439.31,-872.25 443.26,-878.04"/>
</g>
<!-- Node70 -->
<g id="node31" class="node">
<title>Node70</title>
<g id="a_node31"><a xlink:href="telemetry__manager_8h.html#ad8765254cce8d4a2361b16becb1d3d4f" target="_top" xlink:title="low_freq_tlm を登録">
<polygon fill="white" stroke="black" points="169.5,-894 169.5,-924 315.5,-924 315.5,-894 169.5,-894"/>
<text text-anchor="start" x="177.5" y="-912" font-family="Helvetica,sans-Serif" font-size="10.00">Cmd_TLM_MGR_REGISTER</text>
<text text-anchor="middle" x="242.5" y="-901" font-family="Helvetica,sans-Serif" font-size="10.00">_LOW_FREQ_TLM</text>
</a>
</g>
</g>
<!-- Node67&#45;&gt;Node70 -->
<g id="edge39" class="edge">
<title>Node67&#45;&gt;Node70</title>
<path fill="none" stroke="midnightblue" d="M410.62,-871.69C380.78,-878.36 343.06,-886.77 311.01,-893.93"/>
<polygon fill="midnightblue" stroke="midnightblue" points="411.42,-875.1 420.42,-869.51 409.9,-868.27 411.42,-875.1"/>
</g>
<!-- Node71 -->
<g id="node32" class="node">
<title>Node71</title>
<g id="a_node32"><a xlink:href="telemetry__manager_8h.html#a4b2fba4c5b62a78b2e44717fe4296f7e" target="_top" xlink:title="systemテレメを登録">
<polygon fill="white" stroke="black" points="169.5,-845 169.5,-875 315.5,-875 315.5,-845 169.5,-845"/>
<text text-anchor="start" x="177.5" y="-863" font-family="Helvetica,sans-Serif" font-size="10.00">Cmd_TLM_MGR_REGISTER</text>
<text text-anchor="middle" x="242.5" y="-852" font-family="Helvetica,sans-Serif" font-size="10.00">_SYSTEM_TLM</text>
</a>
</g>
</g>
<!-- Node67&#45;&gt;Node71 -->
<g id="edge41" class="edge">
<title>Node67&#45;&gt;Node71</title>
<path fill="none" stroke="midnightblue" d="M361.66,-860C346.14,-860 330.39,-860 315.67,-860"/>
<polygon fill="midnightblue" stroke="midnightblue" points="361.82,-863.5 371.82,-860 361.82,-856.5 361.82,-863.5"/>
</g>
<!-- Node68&#45;&gt;Node6 -->
<g id="edge36" class="edge">
<title>Node68&#45;&gt;Node6</title>
<path fill="none" stroke="midnightblue" d="M160.1,-795.63C156.1,-793.15 152.35,-790.29 149,-787 54.51,-694.22 55.32,-512.68 57,-468.74"/>
<polygon fill="midnightblue" stroke="midnightblue" points="158.77,-798.88 169.25,-800.47 162.05,-792.7 158.77,-798.88"/>
</g>
<!-- Node69&#45;&gt;Node6 -->
<g id="edge38" class="edge">
<title>Node69&#45;&gt;Node6</title>
<path fill="none" stroke="midnightblue" d="M160.35,-943.31C156.2,-940.67 152.37,-937.59 149,-934 82.34,-862.96 61.35,-530.57 58,-468.87"/>
<polygon fill="midnightblue" stroke="midnightblue" points="158.78,-946.44 169.23,-948.14 162.12,-940.29 158.78,-946.44"/>
</g>
<!-- Node70&#45;&gt;Node6 -->
<g id="edge40" class="edge">
<title>Node70&#45;&gt;Node6</title>
<path fill="none" stroke="midnightblue" d="M160.43,-894.23C156.27,-891.61 152.41,-888.56 149,-885 88.54,-821.93 62.69,-525.82 58.22,-468.59"/>
<polygon fill="midnightblue" stroke="midnightblue" points="158.89,-897.37 169.36,-899.02 162.2,-891.21 158.89,-897.37"/>
</g>
<!-- Node71&#45;&gt;Node6 -->
<g id="edge42" class="edge">
<title>Node71&#45;&gt;Node6</title>
<path fill="none" stroke="midnightblue" d="M159.97,-844.76C156,-842.25 152.3,-839.35 149,-836 94.78,-780.92 64.24,-521.61 58.5,-468.51"/>
<polygon fill="midnightblue" stroke="midnightblue" points="158.59,-848 169.06,-849.67 161.92,-841.84 158.59,-848"/>
</g>
<!-- Node73 -->
<g id="node34" class="node">
<title>Node73</title>
<g id="a_node34"><a xlink:href="block__command__loader_8c.html#a1929d935564a29842e850ff7a352f81b" target="_top" xlink:title=" ">
<polygon fill="white" stroke="black" points="404.5,-940 404.5,-970 523.5,-970 523.5,-940 404.5,-940"/>
<text text-anchor="start" x="412.5" y="-958" font-family="Helvetica,sans-Serif" font-size="10.00">BCL_register_cmd_to</text>
<text text-anchor="middle" x="464" y="-947" font-family="Helvetica,sans-Serif" font-size="10.00">_other_obc_</text>
</a>
</g>
</g>
<!-- Node72&#45;&gt;Node73 -->
<g id="edge44" class="edge">
<title>Node72&#45;&gt;Node73</title>
<path fill="none" stroke="midnightblue" d="M595.27,-531.69C594.13,-532.73 593.04,-533.84 592,-535 540.88,-592.4 592.15,-811.17 556,-879 541.77,-905.7 513.88,-926.8 492.7,-939.92"/>
<polygon fill="midnightblue" stroke="midnightblue" points="597.47,-534.41 603.43,-525.65 593.31,-528.79 597.47,-534.41"/>
</g>
<!-- Node74 -->
<g id="node35" class="node">
<title>Node74</title>
<g id="a_node35"><a xlink:href="block__command__loader_8h.html#a30907a8161e23fe4d6105ccb21666dcb" target="_top" xlink:title="ブロックコマンドの最後に他の OBC のコマンドを追加する">
<polygon fill="white" stroke="red" points="178.5,-992 178.5,-1022 306.5,-1022 306.5,-992 178.5,-992"/>
<text text-anchor="start" x="186.5" y="-1010" font-family="Helvetica,sans-Serif" font-size="10.00">BCL_tool_register_cmd</text>
<text text-anchor="middle" x="242.5" y="-999" font-family="Helvetica,sans-Serif" font-size="10.00">_to_other_obc</text>
</a>
</g>
</g>
<!-- Node73&#45;&gt;Node74 -->
<g id="edge45" class="edge">
<title>Node73&#45;&gt;Node74</title>
<path fill="none" stroke="midnightblue" d="M394.37,-971.26C366.41,-977.88 334.28,-985.49 306.88,-991.99"/>
<polygon fill="midnightblue" stroke="midnightblue" points="395.54,-974.58 404.47,-968.87 393.93,-967.77 395.54,-974.58"/>
</g>
<!-- Node76&#45;&gt;Node6 -->
<g id="edge48" class="edge">
<title>Node76&#45;&gt;Node6</title>
<path fill="none" stroke="midnightblue" d="M617.75,-390.81C598.17,-387.62 576.22,-384.58 556,-383 375.2,-368.89 322.14,-358.08 149,-412 120.35,-420.92 89.9,-438.37 72.35,-449.32"/>
<polygon fill="midnightblue" stroke="midnightblue" points="617.31,-394.29 627.75,-392.49 618.47,-387.38 617.31,-394.29"/>
</g>
<!-- Node42 -->
<g id="node39" class="node">
<title>Node42</title>
<g id="a_node39"><a xlink:href="telemetry__manager_8h.html#af76453743bae7b361005376190100cbf" target="_top" xlink:title="high_freq_tlm, low_freq_tlm を初期化">
<polygon fill="white" stroke="black" points="149,-240.5 149,-259.5 336,-259.5 336,-240.5 149,-240.5"/>
<text text-anchor="middle" x="242.5" y="-247.5" font-family="Helvetica,sans-Serif" font-size="10.00">Cmd_TLM_MGR_CLEAR_USER_TLM</text>
</a>
</g>
</g>
<!-- Node77&#45;&gt;Node42 -->
<g id="edge50" class="edge">
<title>Node77&#45;&gt;Node42</title>
<path fill="none" stroke="midnightblue" d="M399.71,-277.04C367.69,-271.5 329.2,-264.84 298.44,-259.51"/>
<polygon fill="midnightblue" stroke="midnightblue" points="399.41,-280.54 409.87,-278.8 400.61,-273.65 399.41,-280.54"/>
</g>
<!-- Node45 -->
<g id="node40" class="node">
<title>Node45</title>
<g id="a_node40"><a xlink:href="telemetry__manager_8h.html#a19d6e76042721fe9e576dbacaf49b365" target="_top" xlink:title="初期化">
<polygon fill="white" stroke="black" points="183.5,-278.5 183.5,-297.5 301.5,-297.5 301.5,-278.5 183.5,-278.5"/>
<text text-anchor="middle" x="242.5" y="-285.5" font-family="Helvetica,sans-Serif" font-size="10.00">Cmd_TLM_MGR_INIT</text>
</a>
</g>
</g>
<!-- Node77&#45;&gt;Node45 -->
<g id="edge52" class="edge">
<title>Node77&#45;&gt;Node45</title>
<path fill="none" stroke="midnightblue" d="M399.62,-288C368.69,-288 331.73,-288 301.54,-288"/>
<polygon fill="midnightblue" stroke="midnightblue" points="399.87,-291.5 409.87,-288 399.87,-284.5 399.87,-291.5"/>
</g>
<!-- Node42&#45;&gt;Node6 -->
<g id="edge51" class="edge">
<title>Node42&#45;&gt;Node6</title>
<path fill="none" stroke="midnightblue" d="M156.26,-264.07C153.73,-265.57 151.3,-267.2 149,-269 87.21,-317.18 64.79,-417.58 59.09,-449.23"/>
<polygon fill="midnightblue" stroke="midnightblue" points="157.87,-267.18 165.2,-259.53 154.7,-260.94 157.87,-267.18"/>
</g>
<!-- Node45&#45;&gt;Node6 -->
<g id="edge53" class="edge">
<title>Node45&#45;&gt;Node6</title>
<path fill="none" stroke="midnightblue" d="M173.61,-299.14C164.84,-302.39 156.36,-306.59 149,-312 98.62,-349.04 69.7,-422.93 60.63,-449.34"/>
<polygon fill="midnightblue" stroke="midnightblue" points="174.8,-302.43 183.2,-295.97 172.61,-295.79 174.8,-302.43"/>
</g>
<!-- Node82 -->
<g id="node45" class="node">
<title>Node82</title>
<g id="a_node45"><a xlink:href="user__packet__handler_8h.html#a2c3c644313071db44127bc7a90be4569" target="_top" xlink:title="PH の cmd_router_ のユーザー処理関数">
<polygon fill="white" stroke="black" points="947,-202.5 947,-221.5 1064,-221.5 1064,-202.5 947,-202.5"/>
<text text-anchor="middle" x="1005.5" y="-209.5" font-family="Helvetica,sans-Serif" font-size="10.00">PH_user_cmd_router</text>
</a>
</g>
</g>
<!-- Node81&#45;&gt;Node82 -->
<g id="edge61" class="edge">
<title>Node81&#45;&gt;Node82</title>
<path fill="none" stroke="midnightblue" d="M1162.4,-366.1C1126.52,-330.63 1044.36,-249.42 1016.19,-221.58"/>
<polygon fill="midnightblue" stroke="midnightblue" points="1160.13,-368.78 1169.7,-373.32 1165.05,-363.8 1160.13,-368.78"/>
</g>
<!-- Node83 -->
<g id="node46" class="node">
<title>Node83</title>
<g id="a_node46"><a xlink:href="packet__handler_8h.html#a7b1777e6101ff2eeeef6042166974cdc" target="_top" xlink:title="CCP をコマンドとして解釈して実行，ないしは別機器へ配送する">
<polygon fill="white" stroke="black" points="612.5,-126.5 612.5,-145.5 743.5,-145.5 743.5,-126.5 612.5,-126.5"/>
<text text-anchor="middle" x="678" y="-133.5" font-family="Helvetica,sans-Serif" font-size="10.00">PH_dispatch_command</text>
</a>
</g>
</g>
<!-- Node82&#45;&gt;Node83 -->
<g id="edge62" class="edge">
<title>Node82&#45;&gt;Node83</title>
<path fill="none" stroke="midnightblue" d="M982.68,-196.5C964.44,-184.39 937.25,-168.27 911,-160 856.26,-142.75 791.01,-137.24 743.67,-135.76"/>
<polygon fill="midnightblue" stroke="midnightblue" points="981.12,-199.67 991.35,-202.4 985.06,-193.88 981.12,-199.67"/>
</g>
<!-- Node83&#45;&gt;Node12 -->
<g id="edge67" class="edge">
<title>Node83&#45;&gt;Node12</title>
<path fill="none" stroke="midnightblue" d="M651.06,-150.41C627.05,-163.21 590.02,-181.61 556,-193 539.32,-198.58 520.34,-202.86 504.06,-205.92"/>
<polygon fill="midnightblue" stroke="midnightblue" points="652.76,-153.47 659.9,-145.63 649.44,-147.31 652.76,-153.47"/>
</g>
<!-- Node83&#45;&gt;Node21 -->
<g id="edge68" class="edge">
<title>Node83&#45;&gt;Node21</title>
<path fill="none" stroke="midnightblue" d="M613.7,-147.35C583.28,-152.8 547.23,-159.26 518.24,-164.46"/>
<polygon fill="midnightblue" stroke="midnightblue" points="614.55,-150.75 623.78,-145.54 613.32,-143.86 614.55,-150.75"/>
</g>
<!-- Node84 -->
<g id="node47" class="node">
<title>Node84</title>
<g id="a_node47"><a xlink:href="block__command__executor_8c.html#ae33c8a6dadb5c8d6052c681bd93eabb4" target="_top" xlink:title="BC をまとめて一括で実行する">
<polygon fill="white" stroke="red" points="391,-126.5 391,-145.5 537,-145.5 537,-126.5 391,-126.5"/>
<text text-anchor="middle" x="464" y="-133.5" font-family="Helvetica,sans-Serif" font-size="10.00">BCE_combine_block_cmd_</text>
</a>
</g>
</g>
<!-- Node83&#45;&gt;Node84 -->
<g id="edge63" class="edge">
<title>Node83&#45;&gt;Node84</title>
<path fill="none" stroke="midnightblue" d="M602.05,-136C580.95,-136 558.06,-136 537.13,-136"/>
<polygon fill="midnightblue" stroke="midnightblue" points="602.24,-139.5 612.24,-136 602.24,-132.5 602.24,-139.5"/>
</g>
<!-- Node86 -->
<g id="node48" class="node">
<title>Node86</title>
<g id="a_node48"><a xlink:href="block__command__executor_8c.html#ad3ff86b57b5abbbdb7dd658a04f00f13" target="_top" xlink:title="rotator の実行主体">
<polygon fill="white" stroke="red" points="397,-88.5 397,-107.5 531,-107.5 531,-88.5 397,-88.5"/>
<text text-anchor="middle" x="464" y="-95.5" font-family="Helvetica,sans-Serif" font-size="10.00">BCE_rotate_block_cmd_</text>
</a>
</g>
</g>
<!-- Node83&#45;&gt;Node86 -->
<g id="edge64" class="edge">
<title>Node83&#45;&gt;Node86</title>
<path fill="none" stroke="midnightblue" d="M613.7,-124.65C583.28,-119.2 547.23,-112.74 518.24,-107.54"/>
<polygon fill="midnightblue" stroke="midnightblue" points="613.32,-128.14 623.78,-126.46 614.55,-121.25 613.32,-128.14"/>
</g>
<!-- Node88 -->
<g id="node49" class="node">
<title>Node88</title>
<g id="a_node49"><a xlink:href="block__command__executor_8c.html#aa35678f3996844ae59428f34e6c8c78f" target="_top" xlink:title="BC をまとめて一括で実行する">
<polygon fill="white" stroke="red" points="397,-39 397,-69 531,-69 531,-39 397,-39"/>
<text text-anchor="start" x="405" y="-57" font-family="Helvetica,sans-Serif" font-size="10.00">BCE_timelimit_combine</text>
<text text-anchor="middle" x="464" y="-46" font-family="Helvetica,sans-Serif" font-size="10.00">_block_cmd_</text>
</a>
</g>
</g>
<!-- Node83&#45;&gt;Node88 -->
<g id="edge65" class="edge">
<title>Node83&#45;&gt;Node88</title>
<path fill="none" stroke="midnightblue" d="M650.05,-121.66C625.9,-109.21 589.26,-91.3 556,-79 546.32,-75.42 535.89,-72.09 525.67,-69.1"/>
<polygon fill="midnightblue" stroke="midnightblue" points="648.49,-124.79 658.97,-126.3 651.72,-118.58 648.49,-124.79"/>
</g>
<!-- Node90 -->
<g id="node50" class="node">
<title>Node90</title>
<g id="a_node50"><a xlink:href="command__dispatcher_8h.html#a90617acff33923f51c212b8e3034712c" target="_top" xlink:title="CDIS に登録されているコマンドキューからコマンドを実行">
<polygon fill="white" stroke="red" points="394,-0.5 394,-19.5 534,-19.5 534,-0.5 394,-0.5"/>
<text text-anchor="middle" x="464" y="-7.5" font-family="Helvetica,sans-Serif" font-size="10.00">CDIS_dispatch_command</text>
</a>
</g>
</g>
<!-- Node83&#45;&gt;Node90 -->
<g id="edge66" class="edge">
<title>Node83&#45;&gt;Node90</title>
<path fill="none" stroke="midnightblue" d="M662.89,-118.85C642.1,-94.81 600.84,-51.5 556,-29 548.21,-25.09 539.66,-21.99 531.01,-19.52"/>
<polygon fill="midnightblue" stroke="midnightblue" points="660.22,-121.12 669.36,-126.49 665.57,-116.6 660.22,-121.12"/>
</g>
</g>
</svg>
