<?xml version="1.0" encoding="UTF-8" standalone="no"?>
<!DOCTYPE svg PUBLIC "-//W3C//DTD SVG 1.1//EN"
 "http://www.w3.org/Graphics/SVG/1.1/DTD/svg11.dtd">
<!-- Generated by graphviz version 2.43.0 (0)
 -->
<!-- Title: src/src_core/TlmCmd/command_dispatcher.h Pages: 1 -->
<svg width="1969pt" height="307pt"
 viewBox="0.00 0.00 1969.00 307.00" xmlns="http://www.w3.org/2000/svg" xmlns:xlink="http://www.w3.org/1999/xlink">
<g id="graph0" class="graph" transform="scale(1 1) rotate(0) translate(4 303)">
<title>src/src_core/TlmCmd/command_dispatcher.h</title>
<polygon fill="white" stroke="transparent" points="-4,4 -4,-303 1965,-303 1965,4 -4,4"/>
<!-- Node1 -->
<g id="node1" class="node">
<title>Node1</title>
<g id="a_node1"><a xlink:title="各種コマンドの実行管理">
<polygon fill="#bfbfbf" stroke="black" points="818,-268.5 818,-298.5 951,-298.5 951,-268.5 818,-268.5"/>
<text text-anchor="start" x="826" y="-286.5" font-family="Helvetica,sans-Serif" font-size="10.00">src/src_core/TlmCmd</text>
<text text-anchor="middle" x="884.5" y="-275.5" font-family="Helvetica,sans-Serif" font-size="10.00">/command_dispatcher.h</text>
</a>
</g>
</g>
<!-- Node2 -->
<g id="node2" class="node">
<title>Node2</title>
<g id="a_node2"><a xlink:href="gs__command__dispatcher_8h.html" target="_top" xlink:title="地上局から発行された RTC (Real Time Cmd) を実行する">
<polygon fill="white" stroke="black" points="328,-201.5 328,-231.5 477,-231.5 477,-201.5 328,-201.5"/>
<text text-anchor="start" x="336" y="-219.5" font-family="Helvetica,sans-Serif" font-size="10.00">src/src_core/Applications</text>
<text text-anchor="middle" x="402.5" y="-208.5" font-family="Helvetica,sans-Serif" font-size="10.00">/gs_command_dispatcher.h</text>
</a>
</g>
</g>
<!-- Node1&#45;&gt;Node2 -->
<g id="edge1" class="edge">
<title>Node1&#45;&gt;Node2</title>
<path fill="none" stroke="midnightblue" d="M807.61,-273.86C727.15,-264.56 597.24,-248.82 485.5,-232 482.75,-231.59 479.95,-231.15 477.13,-230.71"/>
<polygon fill="midnightblue" stroke="midnightblue" points="807.32,-277.35 817.65,-275.01 808.12,-270.39 807.32,-277.35"/>
</g>
<!-- Node11 -->
<g id="node11" class="node">
<title>Node11</title>
<g id="a_node11"><a xlink:href="realtime__command__dispatcher_8h.html" target="_top" xlink:title=" ">
<polygon fill="white" stroke="black" points="495,-201.5 495,-231.5 674,-231.5 674,-201.5 495,-201.5"/>
<text text-anchor="start" x="503" y="-219.5" font-family="Helvetica,sans-Serif" font-size="10.00">src/src_core/Applications</text>
<text text-anchor="middle" x="584.5" y="-208.5" font-family="Helvetica,sans-Serif" font-size="10.00">/realtime_command_dispatcher.h</text>
</a>
</g>
</g>
<!-- Node1&#45;&gt;Node11 -->
<g id="edge10" class="edge">
<title>Node1&#45;&gt;Node11</title>
<path fill="none" stroke="midnightblue" d="M809.8,-266.32C760.5,-255.63 696.54,-241.77 649.37,-231.55"/>
<polygon fill="midnightblue" stroke="midnightblue" points="809.26,-269.78 819.77,-268.48 810.74,-262.94 809.26,-269.78"/>
</g>
<!-- Node13 -->
<g id="node13" class="node">
<title>Node13</title>
<g id="a_node13"><a xlink:href="timeline__command__dispatcher_8h.html" target="_top" xlink:title=" ">
<polygon fill="white" stroke="black" points="692,-201.5 692,-231.5 871,-231.5 871,-201.5 692,-201.5"/>
<text text-anchor="start" x="700" y="-219.5" font-family="Helvetica,sans-Serif" font-size="10.00">src/src_core/Applications</text>
<text text-anchor="middle" x="781.5" y="-208.5" font-family="Helvetica,sans-Serif" font-size="10.00">/timeline_command_dispatcher.h</text>
</a>
</g>
</g>
<!-- Node1&#45;&gt;Node13 -->
<g id="edge14" class="edge">
<title>Node1&#45;&gt;Node13</title>
<path fill="none" stroke="midnightblue" d="M853.62,-263.02C837.6,-252.9 818.37,-240.77 803.81,-231.58"/>
<polygon fill="midnightblue" stroke="midnightblue" points="851.83,-266.02 862.15,-268.4 855.56,-260.1 851.83,-266.02"/>
</g>
<!-- Node15 -->
<g id="node15" class="node">
<title>Node15</title>
<g id="a_node15"><a xlink:href="task__dispatcher_8h.html" target="_top" xlink:title="task list に設定されたタスクを実行する主体">
<polygon fill="white" stroke="black" points="895,-201.5 895,-231.5 1068,-231.5 1068,-201.5 895,-201.5"/>
<text text-anchor="start" x="903" y="-219.5" font-family="Helvetica,sans-Serif" font-size="10.00">src/src_core/System</text>
<text text-anchor="middle" x="981.5" y="-208.5" font-family="Helvetica,sans-Serif" font-size="10.00">/TaskManager/task_dispatcher.h</text>
</a>
</g>
</g>
<!-- Node1&#45;&gt;Node15 -->
<g id="edge18" class="edge">
<title>Node1&#45;&gt;Node15</title>
<path fill="none" stroke="midnightblue" d="M914,-262.73C929.01,-252.68 946.9,-240.68 960.49,-231.58"/>
<polygon fill="midnightblue" stroke="midnightblue" points="911.91,-259.92 905.55,-268.4 915.8,-265.74 911.91,-259.92"/>
</g>
<!-- Node20 -->
<g id="node20" class="node">
<title>Node20</title>
<g id="a_node20"><a xlink:href="command__dispatcher_8c.html" target="_top" xlink:title="各種コマンドの実行管理">
<polygon fill="white" stroke="black" points="1250.5,-201.5 1250.5,-231.5 1382.5,-231.5 1382.5,-201.5 1250.5,-201.5"/>
<text text-anchor="start" x="1258.5" y="-219.5" font-family="Helvetica,sans-Serif" font-size="10.00">src/src_core/TlmCmd</text>
<text text-anchor="middle" x="1316.5" y="-208.5" font-family="Helvetica,sans-Serif" font-size="10.00">/command_dispatcher.c</text>
</a>
</g>
</g>
<!-- Node1&#45;&gt;Node20 -->
<g id="edge26" class="edge">
<title>Node1&#45;&gt;Node20</title>
<path fill="none" stroke="midnightblue" d="M961.06,-272.81C1033.47,-263.37 1145.09,-248.13 1241.5,-232 1244.38,-231.52 1247.31,-231.01 1250.28,-230.49"/>
<polygon fill="midnightblue" stroke="midnightblue" points="960.57,-269.34 951.11,-274.1 961.48,-276.28 960.57,-269.34"/>
</g>
<!-- Node21 -->
<g id="node21" class="node">
<title>Node21</title>
<g id="a_node21"><a xlink:href="di__aobc_8h.html" target="_top" xlink:title="AOBC の DI と AOBC の cmd dispatcher">
<polygon fill="white" stroke="black" points="1086.5,-201.5 1086.5,-231.5 1232.5,-231.5 1232.5,-201.5 1086.5,-201.5"/>
<text text-anchor="start" x="1094.5" y="-219.5" font-family="Helvetica,sans-Serif" font-size="10.00">src/src_user/Applications</text>
<text text-anchor="middle" x="1159.5" y="-208.5" font-family="Helvetica,sans-Serif" font-size="10.00">/DriverInstances/di_aobc.h</text>
</a>
</g>
</g>
<!-- Node1&#45;&gt;Node21 -->
<g id="edge27" class="edge">
<title>Node1&#45;&gt;Node21</title>
<path fill="none" stroke="midnightblue" d="M953.81,-266.12C998.8,-255.48 1056.85,-241.76 1099.8,-231.61"/>
<polygon fill="midnightblue" stroke="midnightblue" points="952.76,-262.77 943.83,-268.48 954.37,-269.58 952.76,-262.77"/>
</g>
<!-- Node3 -->
<g id="node3" class="node">
<title>Node3</title>
<g id="a_node3"><a xlink:href="gs__command__dispatcher_8c.html" target="_top" xlink:title="地上局から発行された RTC (Real Time Cmd) を実行する">
<polygon fill="white" stroke="black" points="0,-134.5 0,-164.5 149,-164.5 149,-134.5 0,-134.5"/>
<text text-anchor="start" x="8" y="-152.5" font-family="Helvetica,sans-Serif" font-size="10.00">src/src_core/Applications</text>
<text text-anchor="middle" x="74.5" y="-141.5" font-family="Helvetica,sans-Serif" font-size="10.00">/gs_command_dispatcher.c</text>
</a>
</g>
</g>
<!-- Node2&#45;&gt;Node3 -->
<g id="edge2" class="edge">
<title>Node2&#45;&gt;Node3</title>
<path fill="none" stroke="midnightblue" d="M321.84,-199.52C267.8,-188.81 197.32,-174.84 145.42,-164.55"/>
<polygon fill="midnightblue" stroke="midnightblue" points="321.24,-202.97 331.73,-201.48 322.6,-196.1 321.24,-202.97"/>
</g>
<!-- Node4 -->
<g id="node4" class="node">
<title>Node4</title>
<g id="a_node4"><a xlink:href="app__headers_8h.html" target="_top" xlink:title="Appのヘッダをまとめたヘッダ">
<polygon fill="white" stroke="black" points="531,-134.5 531,-164.5 668,-164.5 668,-134.5 531,-134.5"/>
<text text-anchor="start" x="539" y="-152.5" font-family="Helvetica,sans-Serif" font-size="10.00">src/src_user/Applications</text>
<text text-anchor="middle" x="599.5" y="-141.5" font-family="Helvetica,sans-Serif" font-size="10.00">/app_headers.h</text>
</a>
</g>
</g>
<!-- Node2&#45;&gt;Node4 -->
<g id="edge3" class="edge">
<title>Node2&#45;&gt;Node4</title>
<path fill="none" stroke="midnightblue" d="M454.85,-198.23C486.72,-187.71 526.91,-174.45 556.84,-164.58"/>
<polygon fill="midnightblue" stroke="midnightblue" points="453.65,-194.94 445.25,-201.4 455.84,-201.59 453.65,-194.94"/>
</g>
<!-- Node10 -->
<g id="node10" class="node">
<title>Node10</title>
<g id="a_node10"><a xlink:href="debug__apps_8c.html" target="_top" xlink:title=" ">
<polygon fill="white" stroke="black" points="364,-134.5 364,-164.5 513,-164.5 513,-134.5 364,-134.5"/>
<text text-anchor="start" x="372" y="-152.5" font-family="Helvetica,sans-Serif" font-size="10.00">src/src_user/Applications</text>
<text text-anchor="middle" x="438.5" y="-141.5" font-family="Helvetica,sans-Serif" font-size="10.00">/UserDefined/debug_apps.c</text>
</a>
</g>
</g>
<!-- Node2&#45;&gt;Node10 -->
<g id="edge9" class="edge">
<title>Node2&#45;&gt;Node10</title>
<path fill="none" stroke="midnightblue" d="M415.2,-192.58C420.37,-183.24 426.18,-172.75 430.7,-164.58"/>
<polygon fill="midnightblue" stroke="midnightblue" points="412.09,-190.95 410.31,-201.4 418.22,-194.34 412.09,-190.95"/>
</g>
<!-- Node5 -->
<g id="node5" class="node">
<title>Node5</title>
<g id="a_node5"><a xlink:href="app__registry_8c.html" target="_top" xlink:title=" ">
<polygon fill="white" stroke="black" points="531,-67.5 531,-97.5 668,-97.5 668,-67.5 531,-67.5"/>
<text text-anchor="start" x="539" y="-85.5" font-family="Helvetica,sans-Serif" font-size="10.00">src/src_user/Applications</text>
<text text-anchor="middle" x="599.5" y="-74.5" font-family="Helvetica,sans-Serif" font-size="10.00">/app_registry.c</text>
</a>
</g>
</g>
<!-- Node4&#45;&gt;Node5 -->
<g id="edge4" class="edge">
<title>Node4&#45;&gt;Node5</title>
<path fill="none" stroke="midnightblue" d="M599.5,-124.11C599.5,-115.15 599.5,-105.32 599.5,-97.58"/>
<polygon fill="midnightblue" stroke="midnightblue" points="596,-124.4 599.5,-134.4 603,-124.4 596,-124.4"/>
</g>
<!-- Node6 -->
<g id="node6" class="node">
<title>Node6</title>
<g id="a_node6"><a xlink:href="command__source_8h.html" target="_top" xlink:title="コマンド定義に必要なヘッダー">
<polygon fill="white" stroke="black" points="1282,-67.5 1282,-97.5 1401,-97.5 1401,-67.5 1282,-67.5"/>
<text text-anchor="start" x="1290" y="-85.5" font-family="Helvetica,sans-Serif" font-size="10.00">src/src_user/TlmCmd</text>
<text text-anchor="middle" x="1341.5" y="-74.5" font-family="Helvetica,sans-Serif" font-size="10.00">/command_source.h</text>
</a>
</g>
</g>
<!-- Node4&#45;&gt;Node6 -->
<g id="edge5" class="edge">
<title>Node4&#45;&gt;Node6</title>
<path fill="none" stroke="midnightblue" d="M678.51,-133.97C907.08,-104.62 1166.88,-90.93 1281.76,-85.88"/>
<polygon fill="midnightblue" stroke="midnightblue" points="677.81,-130.53 668.34,-135.29 678.71,-137.47 677.81,-130.53"/>
</g>
<!-- Node8 -->
<g id="node8" class="node">
<title>Node8</title>
<g id="a_node8"><a xlink:href="telemetry__source_8h.html" target="_top" xlink:title="テレメトリ定義に必要なヘッダー">
<polygon fill="white" stroke="black" points="759,-67.5 759,-97.5 878,-97.5 878,-67.5 759,-67.5"/>
<text text-anchor="start" x="767" y="-85.5" font-family="Helvetica,sans-Serif" font-size="10.00">src/src_user/TlmCmd</text>
<text text-anchor="middle" x="818.5" y="-74.5" font-family="Helvetica,sans-Serif" font-size="10.00">/telemetry_source.h</text>
</a>
</g>
</g>
<!-- Node4&#45;&gt;Node8 -->
<g id="edge7" class="edge">
<title>Node4&#45;&gt;Node8</title>
<path fill="none" stroke="midnightblue" d="M656.51,-131.58C692.08,-121.02 737.33,-107.59 770.96,-97.61"/>
<polygon fill="midnightblue" stroke="midnightblue" points="655.34,-128.28 646.75,-134.48 657.33,-134.99 655.34,-128.28"/>
</g>
<!-- Node7 -->
<g id="node7" class="node">
<title>Node7</title>
<g id="a_node7"><a xlink:href="command__definitions_8c.html" target="_top" xlink:title="コマンド定義">
<polygon fill="white" stroke="black" points="1275,-0.5 1275,-30.5 1408,-30.5 1408,-0.5 1275,-0.5"/>
<text text-anchor="start" x="1283" y="-18.5" font-family="Helvetica,sans-Serif" font-size="10.00">src/src_user/TlmCmd</text>
<text text-anchor="middle" x="1341.5" y="-7.5" font-family="Helvetica,sans-Serif" font-size="10.00">/command_definitions.c</text>
</a>
</g>
</g>
<!-- Node6&#45;&gt;Node7 -->
<g id="edge6" class="edge">
<title>Node6&#45;&gt;Node7</title>
<path fill="none" stroke="midnightblue" d="M1341.5,-57.11C1341.5,-48.15 1341.5,-38.32 1341.5,-30.58"/>
<polygon fill="midnightblue" stroke="midnightblue" points="1338,-57.4 1341.5,-67.4 1345,-57.4 1338,-57.4"/>
</g>
<!-- Node9 -->
<g id="node9" class="node">
<title>Node9</title>
<g id="a_node9"><a xlink:href="telemetry__definitions_8c.html" target="_top" xlink:title="テレメトリ定義">
<polygon fill="white" stroke="black" points="752.5,-0.5 752.5,-30.5 884.5,-30.5 884.5,-0.5 752.5,-0.5"/>
<text text-anchor="start" x="760.5" y="-18.5" font-family="Helvetica,sans-Serif" font-size="10.00">src/src_user/TlmCmd</text>
<text text-anchor="middle" x="818.5" y="-7.5" font-family="Helvetica,sans-Serif" font-size="10.00">/telemetry_definitions.c</text>
</a>
</g>
</g>
<!-- Node8&#45;&gt;Node9 -->
<g id="edge8" class="edge">
<title>Node8&#45;&gt;Node9</title>
<path fill="none" stroke="midnightblue" d="M818.5,-57.11C818.5,-48.15 818.5,-38.32 818.5,-30.58"/>
<polygon fill="midnightblue" stroke="midnightblue" points="815,-57.4 818.5,-67.4 822,-57.4 815,-57.4"/>
</g>
<!-- Node11&#45;&gt;Node4 -->
<g id="edge12" class="edge">
<title>Node11&#45;&gt;Node4</title>
<path fill="none" stroke="midnightblue" d="M590.06,-191.4C592.15,-182.37 594.44,-172.41 596.25,-164.58"/>
<polygon fill="midnightblue" stroke="midnightblue" points="586.59,-190.87 587.75,-201.4 593.41,-192.44 586.59,-190.87"/>
</g>
<!-- Node11&#45;&gt;Node10 -->
<g id="edge13" class="edge">
<title>Node11&#45;&gt;Node10</title>
<path fill="none" stroke="midnightblue" d="M543.55,-197.27C520.3,-186.92 491.63,-174.15 470.12,-164.58"/>
<polygon fill="midnightblue" stroke="midnightblue" points="542.26,-200.53 552.82,-201.4 545.11,-194.13 542.26,-200.53"/>
</g>
<!-- Node12 -->
<g id="node12" class="node">
<title>Node12</title>
<g id="a_node12"><a xlink:href="realtime__command__dispatcher_8c.html" target="_top" xlink:title=" ">
<polygon fill="white" stroke="black" points="167,-134.5 167,-164.5 346,-164.5 346,-134.5 167,-134.5"/>
<text text-anchor="start" x="175" y="-152.5" font-family="Helvetica,sans-Serif" font-size="10.00">src/src_core/Applications</text>
<text text-anchor="middle" x="256.5" y="-141.5" font-family="Helvetica,sans-Serif" font-size="10.00">/realtime_command_dispatcher.c</text>
</a>
</g>
</g>
<!-- Node11&#45;&gt;Node12 -->
<g id="edge11" class="edge">
<title>Node11&#45;&gt;Node12</title>
<path fill="none" stroke="midnightblue" d="M503.84,-199.52C449.8,-188.81 379.32,-174.84 327.42,-164.55"/>
<polygon fill="midnightblue" stroke="midnightblue" points="503.24,-202.97 513.73,-201.48 504.6,-196.1 503.24,-202.97"/>
</g>
<!-- Node13&#45;&gt;Node4 -->
<g id="edge16" class="edge">
<title>Node13&#45;&gt;Node4</title>
<path fill="none" stroke="midnightblue" d="M732.37,-197.96C703.06,-187.48 666.32,-174.37 638.91,-164.58"/>
<polygon fill="midnightblue" stroke="midnightblue" points="731.41,-201.33 742.01,-201.4 733.77,-194.74 731.41,-201.33"/>
</g>
<!-- Node13&#45;&gt;Node10 -->
<g id="edge17" class="edge">
<title>Node13&#45;&gt;Node10</title>
<path fill="none" stroke="midnightblue" d="M697.5,-199.58C640.95,-188.86 567.05,-174.86 512.67,-164.55"/>
<polygon fill="midnightblue" stroke="midnightblue" points="697.02,-203.05 707.5,-201.48 698.32,-196.18 697.02,-203.05"/>
</g>
<!-- Node14 -->
<g id="node14" class="node">
<title>Node14</title>
<g id="a_node14"><a xlink:href="timeline__command__dispatcher_8c.html" target="_top" xlink:title=" ">
<polygon fill="white" stroke="black" points="686.5,-134.5 686.5,-164.5 864.5,-164.5 864.5,-134.5 686.5,-134.5"/>
<text text-anchor="start" x="694.5" y="-152.5" font-family="Helvetica,sans-Serif" font-size="10.00">src/src_core/Applications</text>
<text text-anchor="middle" x="775.5" y="-141.5" font-family="Helvetica,sans-Serif" font-size="10.00">/timeline_command_dispatcher.c</text>
</a>
</g>
</g>
<!-- Node13&#45;&gt;Node14 -->
<g id="edge15" class="edge">
<title>Node13&#45;&gt;Node14</title>
<path fill="none" stroke="midnightblue" d="M779.28,-191.4C778.44,-182.37 777.52,-172.41 776.8,-164.58"/>
<polygon fill="midnightblue" stroke="midnightblue" points="775.79,-191.76 780.2,-201.4 782.76,-191.12 775.79,-191.76"/>
</g>
<!-- Node15&#45;&gt;Node6 -->
<g id="edge24" class="edge">
<title>Node15&#45;&gt;Node6</title>
<path fill="none" stroke="midnightblue" d="M1078.21,-201.27C1172.85,-195.55 1583.61,-207.61 1623.5,-165 1689.68,-94.32 1502.28,-83.66 1401.26,-82.86"/>
<polygon fill="midnightblue" stroke="midnightblue" points="1077.75,-197.8 1068.06,-202.08 1078.31,-204.77 1077.75,-197.8"/>
</g>
<!-- Node15&#45;&gt;Node8 -->
<g id="edge25" class="edge">
<title>Node15&#45;&gt;Node8</title>
<path fill="none" stroke="midnightblue" d="M952.48,-195.49C939.7,-186.45 924.65,-175.46 911.5,-165 883.11,-142.4 851.68,-114.12 833.59,-97.51"/>
<polygon fill="midnightblue" stroke="midnightblue" points="950.71,-198.53 960.91,-201.41 954.74,-192.8 950.71,-198.53"/>
</g>
<!-- Node15&#45;&gt;Node10 -->
<g id="edge23" class="edge">
<title>Node15&#45;&gt;Node10</title>
<path fill="none" stroke="midnightblue" d="M884.67,-201.64C882.93,-201.42 881.21,-201.21 879.5,-201 720.75,-181.74 679.92,-186.77 521.5,-165 518.75,-164.62 515.94,-164.22 513.12,-163.8"/>
<polygon fill="midnightblue" stroke="midnightblue" points="884.36,-205.12 894.72,-202.92 885.25,-198.18 884.36,-205.12"/>
</g>
<!-- Node16 -->
<g id="node16" class="node">
<title>Node16</title>
<g id="a_node16"><a xlink:href="c2a__core__main_8c.html" target="_top" xlink:title=" ">
<polygon fill="white" stroke="black" points="921,-134.5 921,-164.5 1042,-164.5 1042,-134.5 921,-134.5"/>
<text text-anchor="start" x="929" y="-152.5" font-family="Helvetica,sans-Serif" font-size="10.00">src/src_core/c2a_core</text>
<text text-anchor="middle" x="981.5" y="-141.5" font-family="Helvetica,sans-Serif" font-size="10.00">_main.c</text>
</a>
</g>
</g>
<!-- Node15&#45;&gt;Node16 -->
<g id="edge19" class="edge">
<title>Node15&#45;&gt;Node16</title>
<path fill="none" stroke="midnightblue" d="M981.5,-191.11C981.5,-182.15 981.5,-172.32 981.5,-164.58"/>
<polygon fill="midnightblue" stroke="midnightblue" points="978,-191.4 981.5,-201.4 985,-191.4 978,-191.4"/>
</g>
<!-- Node17 -->
<g id="node17" class="node">
<title>Node17</title>
<g id="a_node17"><a xlink:href="mode__manager_8c.html" target="_top" xlink:title="モード遷移の制御">
<polygon fill="white" stroke="black" points="1060.5,-134.5 1060.5,-164.5 1236.5,-164.5 1236.5,-134.5 1060.5,-134.5"/>
<text text-anchor="start" x="1068.5" y="-152.5" font-family="Helvetica,sans-Serif" font-size="10.00">src/src_core/System</text>
<text text-anchor="middle" x="1148.5" y="-141.5" font-family="Helvetica,sans-Serif" font-size="10.00">/ModeManager/mode_manager.c</text>
</a>
</g>
</g>
<!-- Node15&#45;&gt;Node17 -->
<g id="edge20" class="edge">
<title>Node15&#45;&gt;Node17</title>
<path fill="none" stroke="midnightblue" d="M1027.28,-197.68C1054.06,-187.26 1087.4,-174.28 1112.33,-164.58"/>
<polygon fill="midnightblue" stroke="midnightblue" points="1025.79,-194.51 1017.74,-201.4 1028.33,-201.03 1025.79,-194.51"/>
</g>
<!-- Node18 -->
<g id="node18" class="node">
<title>Node18</title>
<g id="a_node18"><a xlink:href="task__dispatcher_8c.html" target="_top" xlink:title="task list に設定されたタスクを実行する主体">
<polygon fill="white" stroke="black" points="1254.5,-134.5 1254.5,-164.5 1426.5,-164.5 1426.5,-134.5 1254.5,-134.5"/>
<text text-anchor="start" x="1262.5" y="-152.5" font-family="Helvetica,sans-Serif" font-size="10.00">src/src_core/System</text>
<text text-anchor="middle" x="1340.5" y="-141.5" font-family="Helvetica,sans-Serif" font-size="10.00">/TaskManager/task_dispatcher.c</text>
</a>
</g>
</g>
<!-- Node15&#45;&gt;Node18 -->
<g id="edge21" class="edge">
<title>Node15&#45;&gt;Node18</title>
<path fill="none" stroke="midnightblue" d="M1069.05,-199.65C1128.29,-188.92 1205.84,-174.88 1262.87,-164.55"/>
<polygon fill="midnightblue" stroke="midnightblue" points="1068.17,-196.25 1058.96,-201.48 1069.42,-203.14 1068.17,-196.25"/>
</g>
<!-- Node19 -->
<g id="node19" class="node">
<title>Node19</title>
<g id="a_node19"><a xlink:href="time__manager_8c.html" target="_top" xlink:title="OBC時刻のカウントアップと，各種衛星時刻関連処理">
<polygon fill="white" stroke="black" points="1445,-134.5 1445,-164.5 1614,-164.5 1614,-134.5 1445,-134.5"/>
<text text-anchor="start" x="1453" y="-152.5" font-family="Helvetica,sans-Serif" font-size="10.00">src/src_core/System</text>
<text text-anchor="middle" x="1529.5" y="-141.5" font-family="Helvetica,sans-Serif" font-size="10.00">/TimeManager/time_manager.c</text>
</a>
</g>
</g>
<!-- Node15&#45;&gt;Node19 -->
<g id="edge22" class="edge">
<title>Node15&#45;&gt;Node19</title>
<path fill="none" stroke="midnightblue" d="M1078.26,-200.95C1237.88,-181.21 1280.12,-184.78 1435.5,-165 1438.61,-164.6 1441.78,-164.19 1444.98,-163.75"/>
<polygon fill="midnightblue" stroke="midnightblue" points="1077.57,-197.51 1068.08,-202.22 1078.44,-204.46 1077.57,-197.51"/>
</g>
<!-- Node21&#45;&gt;Node4 -->
<g id="edge28" class="edge">
<title>Node21&#45;&gt;Node4</title>
<path fill="none" stroke="midnightblue" d="M1076.27,-201.06C898.27,-178.07 850.7,-188.86 677.5,-165 674.5,-164.59 671.44,-164.14 668.35,-163.66"/>
<polygon fill="midnightblue" stroke="midnightblue" points="1075.86,-204.53 1086.23,-202.36 1076.77,-197.59 1075.86,-204.53"/>
</g>
<!-- Node22 -->
<g id="node22" class="node">
<title>Node22</title>
<g id="a_node22"><a xlink:href="di__aobc_8c.html" target="_top" xlink:title="AOBC の DI と AOBC の cmd dispatcher">
<polygon fill="white" stroke="black" points="1816,-134.5 1816,-164.5 1961,-164.5 1961,-134.5 1816,-134.5"/>
<text text-anchor="start" x="1824" y="-152.5" font-family="Helvetica,sans-Serif" font-size="10.00">src/src_user/Applications</text>
<text text-anchor="middle" x="1888.5" y="-141.5" font-family="Helvetica,sans-Serif" font-size="10.00">/DriverInstances/di_aobc.c</text>
</a>
</g>
</g>
<!-- Node21&#45;&gt;Node22 -->
<g id="edge29" class="edge">
<title>Node21&#45;&gt;Node22</title>
<path fill="none" stroke="midnightblue" d="M1242.88,-200.93C1493.09,-171.67 1559.96,-194.56 1806.5,-165 1809.51,-164.64 1812.59,-164.24 1815.69,-163.81"/>
<polygon fill="midnightblue" stroke="midnightblue" points="1242.28,-197.48 1232.76,-202.13 1243.1,-204.43 1242.28,-197.48"/>
</g>
<!-- Node23 -->
<g id="node23" class="node">
<title>Node23</title>
<g id="a_node23"><a xlink:href="user__packet__handler_8c.html" target="_top" xlink:title="packet_handlerのコマンドルーター，コマンドアナライザのユーザー定義部分">
<polygon fill="white" stroke="black" points="1669.5,-134.5 1669.5,-164.5 1797.5,-164.5 1797.5,-134.5 1669.5,-134.5"/>
<text text-anchor="start" x="1677.5" y="-152.5" font-family="Helvetica,sans-Serif" font-size="10.00">src/src_user/TlmCmd</text>
<text text-anchor="middle" x="1733.5" y="-141.5" font-family="Helvetica,sans-Serif" font-size="10.00">/user_packet_handler.c</text>
</a>
</g>
</g>
<!-- Node21&#45;&gt;Node23 -->
<g id="edge30" class="edge">
<title>Node21&#45;&gt;Node23</title>
<path fill="none" stroke="midnightblue" d="M1242.75,-200.91C1426.34,-177.34 1475.71,-189.47 1655.5,-165 1660,-164.39 1664.64,-163.69 1669.31,-162.94"/>
<polygon fill="midnightblue" stroke="midnightblue" points="1242.23,-197.45 1232.77,-202.21 1243.14,-204.39 1242.23,-197.45"/>
</g>
</g>
</svg>
