<?xml version="1.0" encoding="UTF-8" standalone="no"?>
<!DOCTYPE svg PUBLIC "-//W3C//DTD SVG 1.1//EN"
 "http://www.w3.org/Graphics/SVG/1.1/DTD/svg11.dtd">
<!-- Generated by graphviz version 2.43.0 (0)
 -->
<!-- Title: CCP_set_ti Pages: 1 -->
<svg width="587pt" height="39pt"
 viewBox="0.00 0.00 587.00 39.00" xmlns="http://www.w3.org/2000/svg" xmlns:xlink="http://www.w3.org/1999/xlink">
<g id="graph0" class="graph" transform="scale(1 1) rotate(0) translate(4 35)">
<title>CCP_set_ti</title>
<polygon fill="white" stroke="transparent" points="-4,4 -4,-35 583,-35 583,4 -4,4"/>
<!-- Node1 -->
<g id="node1" class="node">
<title>Node1</title>
<g id="a_node1"><a xlink:title="TI を設定">
<polygon fill="#bfbfbf" stroke="black" points="0,-6 0,-25 68,-25 68,-6 0,-6"/>
<text text-anchor="middle" x="34" y="-13" font-family="Helvetica,sans-Serif" font-size="10.00">CCP_set_ti</text>
</a>
</g>
</g>
<!-- Node2 -->
<g id="node2" class="node">
<title>Node2</title>
<g id="a_node2"><a xlink:href="cmd__space__packet_8c.html#a3b7cf4c50d51882d730ad25b754259fd" target="_top" xlink:title="Time Indicator (TI) を設定">
<polygon fill="white" stroke="black" points="104,-6 104,-25 172,-25 172,-6 104,-6"/>
<text text-anchor="middle" x="138" y="-13" font-family="Helvetica,sans-Serif" font-size="10.00">CSP_set_ti</text>
</a>
</g>
</g>
<!-- Node1&#45;&gt;Node2 -->
<g id="edge1" class="edge">
<title>Node1&#45;&gt;Node2</title>
<path fill="none" stroke="midnightblue" d="M68.12,-15.5C76.22,-15.5 85.02,-15.5 93.53,-15.5"/>
<polygon fill="midnightblue" stroke="midnightblue" points="93.7,-19 103.7,-15.5 93.7,-12 93.7,-19"/>
</g>
<!-- Node3 -->
<g id="node3" class="node">
<title>Node3</title>
<g id="a_node3"><a xlink:href="space__packet_8c.html#a9d4e5051b01d74f88ee13ce05f61b392" target="_top" xlink:title="packet に param を格納">
<polygon fill="white" stroke="black" points="208,-0.5 208,-30.5 321,-30.5 321,-0.5 208,-0.5"/>
<text text-anchor="start" x="216" y="-18.5" font-family="Helvetica,sans-Serif" font-size="10.00">SP_insert_param_to</text>
<text text-anchor="middle" x="264.5" y="-7.5" font-family="Helvetica,sans-Serif" font-size="10.00">_packet</text>
</a>
</g>
</g>
<!-- Node2&#45;&gt;Node3 -->
<g id="edge2" class="edge">
<title>Node2&#45;&gt;Node3</title>
<path fill="none" stroke="midnightblue" d="M172.04,-15.5C179.99,-15.5 188.77,-15.5 197.65,-15.5"/>
<polygon fill="midnightblue" stroke="midnightblue" points="197.67,-19 207.67,-15.5 197.67,-12 197.67,-19"/>
</g>
<!-- Node4 -->
<g id="node4" class="node">
<title>Node4</title>
<g id="a_node4"><a xlink:href="endian_8c.html#af3c71c10af16134e94da32e1e0d8d0f8" target="_top" xlink:title="エンディアンを考慮した memcpy">
<polygon fill="white" stroke="black" points="357,-6 357,-25 460,-25 460,-6 357,-6"/>
<text text-anchor="middle" x="408.5" y="-13" font-family="Helvetica,sans-Serif" font-size="10.00">ENDIAN_memcpy</text>
</a>
</g>
</g>
<!-- Node3&#45;&gt;Node4 -->
<g id="edge3" class="edge">
<title>Node3&#45;&gt;Node4</title>
<path fill="none" stroke="midnightblue" d="M321.21,-15.5C329.5,-15.5 338.08,-15.5 346.47,-15.5"/>
<polygon fill="midnightblue" stroke="midnightblue" points="346.57,-19 356.57,-15.5 346.57,-12 346.57,-19"/>
</g>
<!-- Node5 -->
<g id="node5" class="node">
<title>Node5</title>
<g id="a_node5"><a xlink:href="endian_8c.html#a3f28de556ac6792695854c7b4f437925" target="_top" xlink:title="エンディアンの変更">
<polygon fill="white" stroke="black" points="496,-6 496,-25 579,-25 579,-6 496,-6"/>
<text text-anchor="middle" x="537.5" y="-13" font-family="Helvetica,sans-Serif" font-size="10.00">ENDIAN_conv</text>
</a>
</g>
</g>
<!-- Node4&#45;&gt;Node5 -->
<g id="edge4" class="edge">
<title>Node4&#45;&gt;Node5</title>
<path fill="none" stroke="midnightblue" d="M460.06,-15.5C468.52,-15.5 477.3,-15.5 485.76,-15.5"/>
<polygon fill="midnightblue" stroke="midnightblue" points="485.88,-19 495.88,-15.5 485.88,-12 485.88,-19"/>
</g>
</g>
</svg>
