<?xml version="1.0" encoding="UTF-8" standalone="no"?>
<!DOCTYPE svg PUBLIC "-//W3C//DTD SVG 1.1//EN"
 "http://www.w3.org/Graphics/SVG/1.1/DTD/svg11.dtd">
<!-- Generated by graphviz version 2.43.0 (0)
 -->
<!-- Title: src/src_core/TlmCmd/command_dispatcher.h Pages: 1 -->
<svg width="946pt" height="497pt"
 viewBox="0.00 0.00 946.05 497.00" xmlns="http://www.w3.org/2000/svg" xmlns:xlink="http://www.w3.org/1999/xlink">
<g id="graph0" class="graph" transform="scale(1 1) rotate(0) translate(4 493)">
<title>src/src_core/TlmCmd/command_dispatcher.h</title>
<polygon fill="white" stroke="transparent" points="-4,4 -4,-493 942.05,-493 942.05,4 -4,4"/>
<!-- Node1 -->
<g id="node1" class="node">
<title>Node1</title>
<g id="a_node1"><a xlink:title="各種コマンドの実行管理">
<polygon fill="#bfbfbf" stroke="black" points="541.5,-458.5 541.5,-488.5 674.5,-488.5 674.5,-458.5 541.5,-458.5"/>
<text text-anchor="start" x="549.5" y="-476.5" font-family="Helvetica,sans-Serif" font-size="10.00">src/src_core/TlmCmd</text>
<text text-anchor="middle" x="608" y="-465.5" font-family="Helvetica,sans-Serif" font-size="10.00">/command_dispatcher.h</text>
</a>
</g>
</g>
<!-- Node2 -->
<g id="node2" class="node">
<title>Node2</title>
<g id="a_node2"><a xlink:href="obc__time_8h.html" target="_top" xlink:title="OBCの時刻情報の定義と演算">
<polygon fill="white" stroke="black" points="3.5,-207 3.5,-237 136.5,-237 136.5,-207 3.5,-207"/>
<text text-anchor="start" x="11.5" y="-225" font-family="Helvetica,sans-Serif" font-size="10.00">../System/TimeManager</text>
<text text-anchor="middle" x="70" y="-214" font-family="Helvetica,sans-Serif" font-size="10.00">/obc_time.h</text>
</a>
</g>
</g>
<!-- Node1&#45;&gt;Node2 -->
<g id="edge1" class="edge">
<title>Node1&#45;&gt;Node2</title>
<path fill="none" stroke="midnightblue" d="M577.53,-458.37C485.81,-415.84 212.3,-288.99 109.58,-241.35"/>
<polygon fill="midnightblue" stroke="midnightblue" points="111.01,-238.16 100.47,-237.13 108.06,-244.51 111.01,-238.16"/>
</g>
<!-- Node6 -->
<g id="node6" class="node">
<title>Node6</title>
<g id="a_node6"><a xlink:href="common__cmd__packet_8h.html" target="_top" xlink:title="CCP 関連基本関数の宣言">
<polygon fill="white" stroke="black" points="475,-285 475,-304 607,-304 607,-285 475,-285"/>
<text text-anchor="middle" x="541" y="-292" font-family="Helvetica,sans-Serif" font-size="10.00">common_cmd_packet.h</text>
</a>
</g>
</g>
<!-- Node1&#45;&gt;Node6 -->
<g id="edge5" class="edge">
<title>Node1&#45;&gt;Node6</title>
<path fill="none" stroke="midnightblue" d="M602.63,-458.31C590.59,-426.5 561.42,-349.45 547.99,-313.96"/>
<polygon fill="midnightblue" stroke="midnightblue" points="551.17,-312.49 544.36,-304.37 544.63,-314.97 551.17,-312.49"/>
</g>
<!-- Node7 -->
<g id="node7" class="node">
<title>Node7</title>
<g id="a_node7"><a xlink:href="command__definitions_8h.html" target="_top" xlink:title="コマンド定義">
<polygon fill="white" stroke="black" points="569.5,-207 569.5,-237 722.5,-237 722.5,-207 569.5,-207"/>
<text text-anchor="start" x="577.5" y="-225" font-family="Helvetica,sans-Serif" font-size="10.00">src_user/TlmCmd/command</text>
<text text-anchor="middle" x="646" y="-214" font-family="Helvetica,sans-Serif" font-size="10.00">_definitions.h</text>
</a>
</g>
</g>
<!-- Node1&#45;&gt;Node7 -->
<g id="edge23" class="edge">
<title>Node1&#45;&gt;Node7</title>
<path fill="none" stroke="midnightblue" d="M674.77,-460.75C752.39,-443.1 876.86,-401.49 932,-310 939.11,-298.2 940.76,-289.64 932,-279 907.12,-248.78 807.85,-234.63 733.19,-228.17"/>
<polygon fill="midnightblue" stroke="midnightblue" points="733.08,-224.65 722.83,-227.31 732.5,-231.63 733.08,-224.65"/>
</g>
<!-- Node13 -->
<g id="node13" class="node">
<title>Node13</title>
<g id="a_node13"><a xlink:href="packet__list_8h.html" target="_top" xlink:title="CTCP, CTP, CCP のリストとしてのデータ構造を定義. 片方向リストとして実装されている">
<polygon fill="white" stroke="black" points="603,-402.5 603,-421.5 681,-421.5 681,-402.5 603,-402.5"/>
<text text-anchor="middle" x="642" y="-409.5" font-family="Helvetica,sans-Serif" font-size="10.00">packet_list.h</text>
</a>
</g>
</g>
<!-- Node1&#45;&gt;Node13 -->
<g id="edge16" class="edge">
<title>Node1&#45;&gt;Node13</title>
<path fill="none" stroke="midnightblue" d="M616.06,-458.4C620.85,-450.02 626.96,-439.33 632.04,-430.42"/>
<polygon fill="midnightblue" stroke="midnightblue" points="635.13,-432.08 637.05,-421.66 629.05,-428.6 635.13,-432.08"/>
</g>
<!-- Node3 -->
<g id="node3" class="node">
<title>Node3</title>
<g id="a_node3"><a xlink:href="stdint_8h.html" target="_top" xlink:title=" ">
<polygon fill="white" stroke="black" points="348,-67.5 348,-86.5 482,-86.5 482,-67.5 348,-67.5"/>
<text text-anchor="middle" x="415" y="-74.5" font-family="Helvetica,sans-Serif" font-size="10.00">src_user/Library/stdint.h</text>
</a>
</g>
</g>
<!-- Node2&#45;&gt;Node3 -->
<g id="edge2" class="edge">
<title>Node2&#45;&gt;Node3</title>
<path fill="none" stroke="midnightblue" d="M121.83,-206.99C129.91,-204.92 138.17,-202.85 146,-201 221.58,-183.11 247.64,-199.95 317,-165 326.35,-160.29 372.92,-117.37 398.35,-93.63"/>
<polygon fill="midnightblue" stroke="midnightblue" points="400.88,-96.05 405.79,-86.66 396.1,-90.94 400.88,-96.05"/>
</g>
<!-- Node5 -->
<g id="node5" class="node">
<title>Node5</title>
<g id="a_node5"><a xlink:href="obc__time__params_8h.html" target="_top" xlink:title="OBCTのCoreパラメタのオーバーライド用ヘッダー">
<polygon fill="white" stroke="black" points="0,-134.5 0,-164.5 140,-164.5 140,-134.5 0,-134.5"/>
<text text-anchor="start" x="8" y="-152.5" font-family="Helvetica,sans-Serif" font-size="10.00">src_user/Settings/System</text>
<text text-anchor="middle" x="70" y="-141.5" font-family="Helvetica,sans-Serif" font-size="10.00">/obc_time_params.h</text>
</a>
</g>
</g>
<!-- Node2&#45;&gt;Node5 -->
<g id="edge4" class="edge">
<title>Node2&#45;&gt;Node5</title>
<path fill="none" stroke="midnightblue" d="M70,-206.73C70,-197.66 70,-185.66 70,-175.08"/>
<polygon fill="midnightblue" stroke="midnightblue" points="73.5,-174.75 70,-164.75 66.5,-174.75 73.5,-174.75"/>
</g>
<!-- Node4 -->
<g id="node4" class="node">
<title>Node4</title>
<g id="a_node4"><a xlink:href="sils__define_8h.html" target="_top" xlink:title="Switch the build settings between your real OBC and SILS">
<polygon fill="white" stroke="black" points="350.5,-0.5 350.5,-19.5 479.5,-19.5 479.5,-0.5 350.5,-0.5"/>
<text text-anchor="middle" x="415" y="-7.5" font-family="Helvetica,sans-Serif" font-size="10.00">../Settings/sils_define.h</text>
</a>
</g>
</g>
<!-- Node3&#45;&gt;Node4 -->
<g id="edge3" class="edge">
<title>Node3&#45;&gt;Node4</title>
<path fill="none" stroke="midnightblue" d="M415,-67.23C415,-57.68 415,-42.12 415,-29.78"/>
<polygon fill="midnightblue" stroke="midnightblue" points="418.5,-29.63 415,-19.63 411.5,-29.63 418.5,-29.63"/>
</g>
<!-- Node6&#45;&gt;Node2 -->
<g id="edge6" class="edge">
<title>Node6&#45;&gt;Node2</title>
<path fill="none" stroke="midnightblue" d="M474.88,-287.7C396.09,-280.18 260.69,-265.32 146,-243 140.64,-241.96 135.1,-240.75 129.57,-239.46"/>
<polygon fill="midnightblue" stroke="midnightblue" points="130.2,-236.01 119.66,-237.06 128.56,-242.82 130.2,-236.01"/>
</g>
<!-- Node6&#45;&gt;Node7 -->
<g id="edge7" class="edge">
<title>Node6&#45;&gt;Node7</title>
<path fill="none" stroke="midnightblue" d="M553.88,-284.86C569.4,-274.43 595.98,-256.59 616.61,-242.73"/>
<polygon fill="midnightblue" stroke="midnightblue" points="618.68,-245.56 625.04,-237.08 614.78,-239.74 618.68,-245.56"/>
</g>
<!-- Node8 -->
<g id="node8" class="node">
<title>Node8</title>
<g id="a_node8"><a xlink:href="common__cmd__packet__define_8h.html" target="_top" xlink:title="CCP 型の定義">
<polygon fill="white" stroke="black" points="155,-207 155,-237 325,-237 325,-207 155,-207"/>
<text text-anchor="start" x="163" y="-225" font-family="Helvetica,sans-Serif" font-size="10.00">src_user/Settings/TlmCmd</text>
<text text-anchor="middle" x="240" y="-214" font-family="Helvetica,sans-Serif" font-size="10.00">/common_cmd_packet_define.h</text>
</a>
</g>
</g>
<!-- Node6&#45;&gt;Node8 -->
<g id="edge8" class="edge">
<title>Node6&#45;&gt;Node8</title>
<path fill="none" stroke="midnightblue" d="M504.69,-285C456.55,-273.72 370.61,-253.59 309.72,-239.33"/>
<polygon fill="midnightblue" stroke="midnightblue" points="310.33,-235.88 299.8,-237.01 308.74,-242.69 310.33,-235.88"/>
</g>
<!-- Node11 -->
<g id="node11" class="node">
<title>Node11</title>
<g id="a_node11"><a xlink:href="apid__define_8h.html" target="_top" xlink:title="CCSDS の APID を定義する">
<polygon fill="white" stroke="black" points="365.5,-140 365.5,-159 484.5,-159 484.5,-140 365.5,-140"/>
<text text-anchor="middle" x="425" y="-147" font-family="Helvetica,sans-Serif" font-size="10.00">./Ccsds/apid_define.h</text>
</a>
</g>
</g>
<!-- Node6&#45;&gt;Node11 -->
<g id="edge14" class="edge">
<title>Node6&#45;&gt;Node11</title>
<path fill="none" stroke="midnightblue" d="M541.55,-284.86C542.21,-267.24 541.36,-226.64 522,-201 508.24,-182.77 485.99,-170.52 466.26,-162.66"/>
<polygon fill="midnightblue" stroke="midnightblue" points="467.43,-159.36 456.83,-159.14 464.98,-165.92 467.43,-159.36"/>
</g>
<!-- Node12 -->
<g id="node12" class="node">
<title>Node12</title>
<g id="a_node12"><a xlink:href="timeline__command__dispatcher__define_8h.html" target="_top" xlink:title="timeline command dispatcher の各種定義">
<polygon fill="white" stroke="black" points="343,-201.5 343,-242.5 513,-242.5 513,-201.5 343,-201.5"/>
<text text-anchor="start" x="351" y="-230.5" font-family="Helvetica,sans-Serif" font-size="10.00">src_user/Settings/Applications</text>
<text text-anchor="start" x="351" y="-219.5" font-family="Helvetica,sans-Serif" font-size="10.00">/timeline_command_dispatcher</text>
<text text-anchor="middle" x="428" y="-208.5" font-family="Helvetica,sans-Serif" font-size="10.00">_define.h</text>
</a>
</g>
</g>
<!-- Node6&#45;&gt;Node12 -->
<g id="edge15" class="edge">
<title>Node6&#45;&gt;Node12</title>
<path fill="none" stroke="midnightblue" d="M527.14,-284.86C512.5,-275.72 488.71,-260.88 468.11,-248.03"/>
<polygon fill="midnightblue" stroke="midnightblue" points="469.85,-244.99 459.51,-242.66 466.15,-250.92 469.85,-244.99"/>
</g>
<!-- Node9 -->
<g id="node9" class="node">
<title>Node9</title>
<g id="a_node9"><a xlink:href="space__packet__typedef_8h.html" target="_top" xlink:title="SpacePacket 類 と CommonTlmCmdPacket 類が相互参照するのを回避するためのヘッダ">
<polygon fill="white" stroke="black" points="171.5,-134.5 171.5,-164.5 308.5,-164.5 308.5,-134.5 171.5,-134.5"/>
<text text-anchor="start" x="179.5" y="-152.5" font-family="Helvetica,sans-Serif" font-size="10.00">src_core/TlmCmd/Ccsds</text>
<text text-anchor="middle" x="240" y="-141.5" font-family="Helvetica,sans-Serif" font-size="10.00">/space_packet_typedef.h</text>
</a>
</g>
</g>
<!-- Node8&#45;&gt;Node9 -->
<g id="edge9" class="edge">
<title>Node8&#45;&gt;Node9</title>
<path fill="none" stroke="midnightblue" d="M240,-206.73C240,-197.66 240,-185.66 240,-175.08"/>
<polygon fill="midnightblue" stroke="midnightblue" points="243.5,-174.75 240,-164.75 236.5,-174.75 243.5,-174.75"/>
</g>
<!-- Node8&#45;&gt;Node11 -->
<g id="edge12" class="edge">
<title>Node8&#45;&gt;Node11</title>
<path fill="none" stroke="midnightblue" d="M276.99,-206.9C311.01,-193.94 360.93,-174.92 393.2,-162.62"/>
<polygon fill="midnightblue" stroke="midnightblue" points="394.51,-165.87 402.61,-159.03 392.02,-159.32 394.51,-165.87"/>
</g>
<!-- Node9&#45;&gt;Node3 -->
<g id="edge10" class="edge">
<title>Node9&#45;&gt;Node3</title>
<path fill="none" stroke="midnightblue" d="M274.99,-134.4C307.03,-121.49 353.98,-102.58 384.52,-90.28"/>
<polygon fill="midnightblue" stroke="midnightblue" points="385.85,-93.52 393.82,-86.53 383.23,-87.02 385.85,-93.52"/>
</g>
<!-- Node10 -->
<g id="node10" class="node">
<title>Node10</title>
<g id="a_node10"><a xlink:href="space__packet__typedef__params_8h.html" target="_top" xlink:title="SpacePacketの パケット型に関するユーザー設定">
<polygon fill="white" stroke="black" points="160,-56.5 160,-97.5 320,-97.5 320,-56.5 160,-56.5"/>
<text text-anchor="start" x="168" y="-85.5" font-family="Helvetica,sans-Serif" font-size="10.00">src_user/Settings/TlmCmd</text>
<text text-anchor="start" x="168" y="-74.5" font-family="Helvetica,sans-Serif" font-size="10.00">/Ccsds/space_packet_typedef</text>
<text text-anchor="middle" x="240" y="-63.5" font-family="Helvetica,sans-Serif" font-size="10.00">_params.h</text>
</a>
</g>
</g>
<!-- Node9&#45;&gt;Node10 -->
<g id="edge11" class="edge">
<title>Node9&#45;&gt;Node10</title>
<path fill="none" stroke="midnightblue" d="M240,-134.23C240,-126.57 240,-116.84 240,-107.63"/>
<polygon fill="midnightblue" stroke="midnightblue" points="243.5,-107.59 240,-97.59 236.5,-107.59 243.5,-107.59"/>
</g>
<!-- Node11&#45;&gt;Node3 -->
<g id="edge13" class="edge">
<title>Node11&#45;&gt;Node3</title>
<path fill="none" stroke="midnightblue" d="M423.77,-139.86C422.26,-129.18 419.64,-110.72 417.66,-96.73"/>
<polygon fill="midnightblue" stroke="midnightblue" points="421.11,-96.12 416.24,-86.72 414.18,-97.11 421.11,-96.12"/>
</g>
<!-- Node13&#45;&gt;Node6 -->
<g id="edge18" class="edge">
<title>Node13&#45;&gt;Node6</title>
<path fill="none" stroke="midnightblue" d="M632.98,-402.27C623.9,-393.37 609.62,-379.06 598,-366 582.23,-348.28 565.27,-326.98 553.99,-312.47"/>
<polygon fill="midnightblue" stroke="midnightblue" points="556.64,-310.18 547.76,-304.4 551.1,-314.46 556.64,-310.18"/>
</g>
<!-- Node14 -->
<g id="node14" class="node">
<title>Node14</title>
<g id="a_node14"><a xlink:title=" ">
<polygon fill="white" stroke="#bfbfbf" points="761,-346.5 761,-365.5 817,-365.5 817,-346.5 761,-346.5"/>
<text text-anchor="middle" x="789" y="-353.5" font-family="Helvetica,sans-Serif" font-size="10.00">stddef.h</text>
</a>
</g>
</g>
<!-- Node13&#45;&gt;Node14 -->
<g id="edge17" class="edge">
<title>Node13&#45;&gt;Node14</title>
<path fill="none" stroke="midnightblue" d="M665.29,-402.44C689.81,-393.44 728.6,-379.19 756.2,-369.05"/>
<polygon fill="midnightblue" stroke="midnightblue" points="757.64,-372.25 765.82,-365.52 755.22,-365.68 757.64,-372.25"/>
</g>
<!-- Node15 -->
<g id="node15" class="node">
<title>Node15</title>
<g id="a_node15"><a xlink:href="block__command__table_8h.html" target="_top" xlink:title="BCTの定義, BCT周りの関数">
<polygon fill="white" stroke="black" points="607,-346.5 607,-365.5 743,-365.5 743,-346.5 607,-346.5"/>
<text text-anchor="middle" x="675" y="-353.5" font-family="Helvetica,sans-Serif" font-size="10.00">block_command_table.h</text>
</a>
</g>
</g>
<!-- Node13&#45;&gt;Node15 -->
<g id="edge19" class="edge">
<title>Node13&#45;&gt;Node15</title>
<path fill="none" stroke="midnightblue" d="M647.45,-402.08C652.01,-394.61 658.67,-383.72 664.29,-374.52"/>
<polygon fill="midnightblue" stroke="midnightblue" points="667.42,-376.11 669.65,-365.75 661.45,-372.46 667.42,-376.11"/>
</g>
<!-- Node15&#45;&gt;Node3 -->
<g id="edge20" class="edge">
<title>Node15&#45;&gt;Node3</title>
<path fill="none" stroke="midnightblue" d="M683.46,-346.31C706.37,-321.7 765.66,-250.16 732,-201 678.46,-122.8 567.4,-94.31 492.03,-83.93"/>
<polygon fill="midnightblue" stroke="midnightblue" points="492.46,-80.46 482.1,-82.64 491.56,-87.4 492.46,-80.46"/>
</g>
<!-- Node15&#45;&gt;Node6 -->
<g id="edge22" class="edge">
<title>Node15&#45;&gt;Node6</title>
<path fill="none" stroke="midnightblue" d="M655.8,-346.48C633.21,-336.45 595.5,-319.7 569.5,-308.15"/>
<polygon fill="midnightblue" stroke="midnightblue" points="570.72,-304.87 560.16,-304.01 567.88,-311.27 570.72,-304.87"/>
</g>
<!-- Node16 -->
<g id="node16" class="node">
<title>Node16</title>
<g id="a_node16"><a xlink:href="block__command__table__params_8h.html" target="_top" xlink:title="BCTのCoreTlmパラメタのオーバーライド用ヘッダー">
<polygon fill="white" stroke="black" points="741.5,-279.5 741.5,-309.5 922.5,-309.5 922.5,-279.5 741.5,-279.5"/>
<text text-anchor="start" x="749.5" y="-297.5" font-family="Helvetica,sans-Serif" font-size="10.00">src_user/Settings/TlmCmd</text>
<text text-anchor="middle" x="832" y="-286.5" font-family="Helvetica,sans-Serif" font-size="10.00">/block_command_table_params.h</text>
</a>
</g>
</g>
<!-- Node15&#45;&gt;Node16 -->
<g id="edge21" class="edge">
<title>Node15&#45;&gt;Node16</title>
<path fill="none" stroke="midnightblue" d="M697.49,-346.48C720.35,-337.81 756.41,-324.15 785.45,-313.14"/>
<polygon fill="midnightblue" stroke="midnightblue" points="786.89,-316.34 795,-309.52 784.41,-309.79 786.89,-316.34"/>
</g>
</g>
</svg>
