<?xml version="1.0" encoding="UTF-8" standalone="no"?>
<!DOCTYPE svg PUBLIC "-//W3C//DTD SVG 1.1//EN"
 "http://www.w3.org/Graphics/SVG/1.1/DTD/svg11.dtd">
<!-- Generated by graphviz version 2.43.0 (0)
 -->
<!-- Title: CCP_get_1byte_param_from_packet Pages: 1 -->
<svg width="674pt" height="180pt"
 viewBox="0.00 0.00 674.00 180.00" xmlns="http://www.w3.org/2000/svg" xmlns:xlink="http://www.w3.org/1999/xlink">
<g id="graph0" class="graph" transform="scale(1 1) rotate(0) translate(4 176)">
<title>CCP_get_1byte_param_from_packet</title>
<polygon fill="white" stroke="transparent" points="-4,4 -4,-176 670,-176 670,4 -4,4"/>
<!-- Node1 -->
<g id="node1" class="node">
<title>Node1</title>
<g id="a_node1"><a xlink:title="CCP packet から，サイズが 1 byte のコマンド引数を取得する">
<polygon fill="#bfbfbf" stroke="black" points="0,-71 0,-101 127,-101 127,-71 0,-71"/>
<text text-anchor="start" x="8" y="-89" font-family="Helvetica,sans-Serif" font-size="10.00">CCP_get_1byte_param</text>
<text text-anchor="middle" x="63.5" y="-78" font-family="Helvetica,sans-Serif" font-size="10.00">_from_packet</text>
</a>
</g>
</g>
<!-- Node2 -->
<g id="node2" class="node">
<title>Node2</title>
<g id="a_node2"><a xlink:href="command__analyze_8c.html#a464f3aa16753a76bc5093100542a361a" target="_top" xlink:title="コマンドパラメタサイズを取得する">
<polygon fill="white" stroke="black" points="340.5,-152.5 340.5,-171.5 479.5,-171.5 479.5,-152.5 340.5,-152.5"/>
<text text-anchor="middle" x="410" y="-159.5" font-family="Helvetica,sans-Serif" font-size="10.00">CA_get_cmd_param_size</text>
</a>
</g>
</g>
<!-- Node1&#45;&gt;Node2 -->
<g id="edge1" class="edge">
<title>Node1&#45;&gt;Node2</title>
<path fill="none" stroke="midnightblue" d="M84.37,-101.12C103.43,-114.7 133.56,-133.87 163,-143 217.14,-159.8 281.04,-164.31 330.15,-164.74"/>
<polygon fill="midnightblue" stroke="midnightblue" points="330.38,-168.24 340.39,-164.78 330.41,-161.24 330.38,-168.24"/>
</g>
<!-- Node4 -->
<g id="node4" class="node">
<title>Node4</title>
<g id="a_node4"><a xlink:href="common__tlm__cmd__packet__util_8c.html#a40849ea3a1aba9277c7096598b1a50bf" target="_top" xlink:title="CTCP パラメタ開始位置に対する n 番目の引数の offset を計算する">
<polygon fill="white" stroke="black" points="163,-114.5 163,-133.5 299,-133.5 299,-114.5 163,-114.5"/>
<text text-anchor="middle" x="231" y="-121.5" font-family="Helvetica,sans-Serif" font-size="10.00">CCP_calc_param_offset_</text>
</a>
</g>
</g>
<!-- Node1&#45;&gt;Node4 -->
<g id="edge3" class="edge">
<title>Node1&#45;&gt;Node4</title>
<path fill="none" stroke="midnightblue" d="M127.07,-100.37C144.05,-104.26 162.24,-108.44 178.53,-112.18"/>
<polygon fill="midnightblue" stroke="midnightblue" points="177.87,-115.62 188.4,-114.45 179.43,-108.8 177.87,-115.62"/>
</g>
<!-- Node6 -->
<g id="node6" class="node">
<title>Node6</title>
<g id="a_node6"><a xlink:href="common__tlm__cmd__packet_8h.html#aada6263b578341e6ef88174fbdfc5dd7" target="_top" xlink:title="CMD ID を取得">
<polygon fill="white" stroke="black" points="195.5,-76.5 195.5,-95.5 266.5,-95.5 266.5,-76.5 195.5,-76.5"/>
<text text-anchor="middle" x="231" y="-83.5" font-family="Helvetica,sans-Serif" font-size="10.00">CCP_get_id</text>
</a>
</g>
</g>
<!-- Node1&#45;&gt;Node6 -->
<g id="edge7" class="edge">
<title>Node1&#45;&gt;Node6</title>
<path fill="none" stroke="midnightblue" d="M127.07,-86C146.35,-86 167.19,-86 185.04,-86"/>
<polygon fill="midnightblue" stroke="midnightblue" points="185.17,-89.5 195.17,-86 185.17,-82.5 185.17,-89.5"/>
</g>
<!-- Node8 -->
<g id="node8" class="node">
<title>Node8</title>
<g id="a_node8"><a xlink:href="common__tlm__cmd__packet_8h.html#ad98f8912cc698e43db15c2bd8ea0c170" target="_top" xlink:title="先頭のパラメタのポインタを取得">
<polygon fill="white" stroke="black" points="169.5,-38.5 169.5,-57.5 292.5,-57.5 292.5,-38.5 169.5,-38.5"/>
<text text-anchor="middle" x="231" y="-45.5" font-family="Helvetica,sans-Serif" font-size="10.00">CCP_get_param_head</text>
</a>
</g>
</g>
<!-- Node1&#45;&gt;Node8 -->
<g id="edge9" class="edge">
<title>Node1&#45;&gt;Node8</title>
<path fill="none" stroke="midnightblue" d="M127.07,-71.63C144.05,-67.74 162.24,-63.56 178.53,-59.82"/>
<polygon fill="midnightblue" stroke="midnightblue" points="179.43,-63.2 188.4,-57.55 177.87,-56.38 179.43,-63.2"/>
</g>
<!-- Node10 -->
<g id="node10" class="node">
<title>Node10</title>
<g id="a_node10"><a xlink:href="endian__memcpy_8c.html#a153793f6939a1cb0f6bc3968d953f31e" target="_top" xlink:title=" ">
<polygon fill="white" stroke="black" points="182,-0.5 182,-19.5 280,-19.5 280,-0.5 182,-0.5"/>
<text text-anchor="middle" x="231" y="-7.5" font-family="Helvetica,sans-Serif" font-size="10.00">endian_memcpy</text>
</a>
</g>
</g>
<!-- Node1&#45;&gt;Node10 -->
<g id="edge11" class="edge">
<title>Node1&#45;&gt;Node10</title>
<path fill="none" stroke="midnightblue" d="M86.75,-70.97C106.19,-58.37 135.53,-40.63 163,-29 168.49,-26.67 174.36,-24.54 180.24,-22.61"/>
<polygon fill="midnightblue" stroke="midnightblue" points="181.59,-25.85 190.11,-19.55 179.52,-19.17 181.59,-25.85"/>
</g>
<!-- Node3 -->
<g id="node3" class="node">
<title>Node3</title>
<g id="a_node3"><a xlink:href="command__analyze_8c.html#aa312aeadf3ce336a10385fe14e22f77c" target="_top" xlink:title="コマンドパラメタのサイズ情報を取得">
<polygon fill="white" stroke="black" points="521,-133.5 521,-152.5 666,-152.5 666,-133.5 521,-133.5"/>
<text text-anchor="middle" x="593.5" y="-140.5" font-family="Helvetica,sans-Serif" font-size="10.00">CA_get_param_size_type_</text>
</a>
</g>
</g>
<!-- Node2&#45;&gt;Node3 -->
<g id="edge2" class="edge">
<title>Node2&#45;&gt;Node3</title>
<path fill="none" stroke="midnightblue" d="M479.62,-154.82C489.71,-153.76 500.18,-152.66 510.51,-151.58"/>
<polygon fill="midnightblue" stroke="midnightblue" points="511.18,-155.03 520.76,-150.51 510.45,-148.07 511.18,-155.03"/>
</g>
<!-- Node4&#45;&gt;Node2 -->
<g id="edge6" class="edge">
<title>Node4&#45;&gt;Node2</title>
<path fill="none" stroke="midnightblue" d="M276.66,-133.59C300.34,-138.67 329.61,-144.96 354.6,-150.32"/>
<polygon fill="midnightblue" stroke="midnightblue" points="354.14,-153.8 364.66,-152.48 355.61,-146.96 354.14,-153.8"/>
</g>
<!-- Node5 -->
<g id="node5" class="node">
<title>Node5</title>
<g id="a_node5"><a xlink:href="command__analyze_8c.html#a170772c49fb7883a382a30bd38485a6e" target="_top" xlink:title="コマンドパラメタ数を取得する">
<polygon fill="white" stroke="black" points="339.5,-114.5 339.5,-133.5 480.5,-133.5 480.5,-114.5 339.5,-114.5"/>
<text text-anchor="middle" x="410" y="-121.5" font-family="Helvetica,sans-Serif" font-size="10.00">CA_get_cmd_param_num</text>
</a>
</g>
</g>
<!-- Node4&#45;&gt;Node5 -->
<g id="edge4" class="edge">
<title>Node4&#45;&gt;Node5</title>
<path fill="none" stroke="midnightblue" d="M299.17,-124C308.89,-124 318.99,-124 328.93,-124"/>
<polygon fill="midnightblue" stroke="midnightblue" points="329.23,-127.5 339.23,-124 329.23,-120.5 329.23,-127.5"/>
</g>
<!-- Node5&#45;&gt;Node3 -->
<g id="edge5" class="edge">
<title>Node5&#45;&gt;Node3</title>
<path fill="none" stroke="midnightblue" d="M480.65,-131.29C490.55,-132.33 500.8,-133.4 510.9,-134.46"/>
<polygon fill="midnightblue" stroke="midnightblue" points="510.62,-137.95 520.93,-135.51 511.35,-130.99 510.62,-137.95"/>
</g>
<!-- Node7 -->
<g id="node7" class="node">
<title>Node7</title>
<g id="a_node7"><a xlink:href="_t_c_packet_8c.html#a39f967d198c8041c0e07b8b356b23f83" target="_top" xlink:title="channel ID を取得">
<polygon fill="white" stroke="black" points="339,-76.5 339,-95.5 481,-95.5 481,-76.5 339,-76.5"/>
<text text-anchor="middle" x="410" y="-83.5" font-family="Helvetica,sans-Serif" font-size="10.00">TCP_CMD_get_channel_id</text>
</a>
</g>
</g>
<!-- Node6&#45;&gt;Node7 -->
<g id="edge8" class="edge">
<title>Node6&#45;&gt;Node7</title>
<path fill="none" stroke="midnightblue" d="M266.55,-86C284.27,-86 306.65,-86 328.39,-86"/>
<polygon fill="midnightblue" stroke="midnightblue" points="328.65,-89.5 338.65,-86 328.65,-82.5 328.65,-89.5"/>
</g>
<!-- Node9 -->
<g id="node9" class="node">
<title>Node9</title>
<g id="a_node9"><a xlink:href="_t_c_packet_8c.html#af3416877283ab315ad0ababce5afbfc8" target="_top" xlink:title="先頭のパラメタのポインタを取得">
<polygon fill="white" stroke="black" points="335,-38.5 335,-57.5 485,-57.5 485,-38.5 335,-38.5"/>
<text text-anchor="middle" x="410" y="-45.5" font-family="Helvetica,sans-Serif" font-size="10.00">TCP_CMD_get_param_head</text>
</a>
</g>
</g>
<!-- Node8&#45;&gt;Node9 -->
<g id="edge10" class="edge">
<title>Node8&#45;&gt;Node9</title>
<path fill="none" stroke="midnightblue" d="M292.91,-48C303.14,-48 313.92,-48 324.62,-48"/>
<polygon fill="midnightblue" stroke="midnightblue" points="324.83,-51.5 334.83,-48 324.83,-44.5 324.83,-51.5"/>
</g>
<!-- Node11 -->
<g id="node11" class="node">
<title>Node11</title>
<g id="a_node11"><a xlink:href="endian__conv_8c.html#af8d492c4e43d83c161cd2225a9697b6a" target="_top" xlink:title=" ">
<polygon fill="white" stroke="black" points="371,-0.5 371,-19.5 449,-19.5 449,-0.5 371,-0.5"/>
<text text-anchor="middle" x="410" y="-7.5" font-family="Helvetica,sans-Serif" font-size="10.00">endian_conv</text>
</a>
</g>
</g>
<!-- Node10&#45;&gt;Node11 -->
<g id="edge12" class="edge">
<title>Node10&#45;&gt;Node11</title>
<path fill="none" stroke="midnightblue" d="M280.37,-10C305.26,-10 335.54,-10 360.46,-10"/>
<polygon fill="midnightblue" stroke="midnightblue" points="360.78,-13.5 370.78,-10 360.78,-6.5 360.78,-13.5"/>
</g>
</g>
</svg>
