<?xml version="1.0" encoding="UTF-8" standalone="no"?>
<!DOCTYPE svg PUBLIC "-//W3C//DTD SVG 1.1//EN"
 "http://www.w3.org/Graphics/SVG/1.1/DTD/svg11.dtd">
<!-- Generated by graphviz version 2.43.0 (0)
 -->
<!-- Title: CCP_set_common_hdr Pages: 1 -->
<svg width="479pt" height="294pt"
 viewBox="0.00 0.00 479.00 294.00" xmlns="http://www.w3.org/2000/svg" xmlns:xlink="http://www.w3.org/1999/xlink">
<g id="graph0" class="graph" transform="scale(1 1) rotate(0) translate(4 290)">
<title>CCP_set_common_hdr</title>
<polygon fill="white" stroke="transparent" points="-4,4 -4,-290 475,-290 475,4 -4,4"/>
<!-- Node1 -->
<g id="node1" class="node">
<title>Node1</title>
<g id="a_node1"><a xlink:title="共通部分の Header を構築">
<polygon fill="#bfbfbf" stroke="black" points="0,-133.5 0,-152.5 125,-152.5 125,-133.5 0,-133.5"/>
<text text-anchor="middle" x="62.5" y="-140.5" font-family="Helvetica,sans-Serif" font-size="10.00">CCP_set_common_hdr</text>
</a>
</g>
</g>
<!-- Node2 -->
<g id="node2" class="node">
<title>Node2</title>
<g id="a_node2"><a xlink:href="_t_c_packet_8c.html#af12da708e39852c835970a582c3de7a6" target="_top" xlink:title="共通部分の Header を構築">
<polygon fill="white" stroke="black" points="161,-133.5 161,-152.5 313,-152.5 313,-133.5 161,-133.5"/>
<text text-anchor="middle" x="237" y="-140.5" font-family="Helvetica,sans-Serif" font-size="10.00">TCP_CMD_set_common_hdr</text>
</a>
</g>
</g>
<!-- Node1&#45;&gt;Node2 -->
<g id="edge1" class="edge">
<title>Node1&#45;&gt;Node2</title>
<path fill="none" stroke="midnightblue" d="M125.29,-143C133.56,-143 142.15,-143 150.74,-143"/>
<polygon fill="midnightblue" stroke="midnightblue" points="150.78,-146.5 160.78,-143 150.78,-139.5 150.78,-146.5"/>
</g>
<!-- Node3 -->
<g id="node3" class="node">
<title>Node3</title>
<g id="a_node3"><a xlink:href="_t_c_packet_8c.html#a39b6f6b6ba2c5dd4578d623eeb4f2daf" target="_top" xlink:title="Format ID を設定">
<polygon fill="white" stroke="black" points="350,-266.5 350,-285.5 470,-285.5 470,-266.5 350,-266.5"/>
<text text-anchor="middle" x="410" y="-273.5" font-family="Helvetica,sans-Serif" font-size="10.00">TCP_CMD_set_fmt_id</text>
</a>
</g>
</g>
<!-- Node2&#45;&gt;Node3 -->
<g id="edge2" class="edge">
<title>Node2&#45;&gt;Node3</title>
<path fill="none" stroke="midnightblue" d="M244.86,-152.81C260.68,-174.73 301.98,-228 349,-257 352.36,-259.07 355.96,-260.93 359.67,-262.61"/>
<polygon fill="midnightblue" stroke="midnightblue" points="358.47,-265.9 369.05,-266.39 361.09,-259.41 358.47,-265.9"/>
</g>
<!-- Node4 -->
<g id="node4" class="node">
<title>Node4</title>
<g id="a_node4"><a xlink:href="_t_c_packet_8c.html#a12ed3d87d3ffd43cd39b80f9c421b7f8" target="_top" xlink:title="Command Type を設定">
<polygon fill="white" stroke="black" points="355,-228.5 355,-247.5 465,-247.5 465,-228.5 355,-228.5"/>
<text text-anchor="middle" x="410" y="-235.5" font-family="Helvetica,sans-Serif" font-size="10.00">TCP_CMD_set_type</text>
</a>
</g>
</g>
<!-- Node2&#45;&gt;Node4 -->
<g id="edge3" class="edge">
<title>Node2&#45;&gt;Node4</title>
<path fill="none" stroke="midnightblue" d="M249.6,-152.67C269.05,-168.47 309.95,-199.97 349,-219 353.55,-221.22 358.42,-223.25 363.34,-225.1"/>
<polygon fill="midnightblue" stroke="midnightblue" points="362.2,-228.41 372.8,-228.43 364.52,-221.81 362.2,-228.41"/>
</g>
<!-- Node5 -->
<g id="node5" class="node">
<title>Node5</title>
<g id="a_node5"><a xlink:href="_t_c_packet_8c.html#a32bccc7ebc63b95774d1fa64beec2840" target="_top" xlink:title="TCP Secondary Header Flag を設定">
<polygon fill="white" stroke="black" points="349,-190.5 349,-209.5 471,-209.5 471,-190.5 349,-190.5"/>
<text text-anchor="middle" x="410" y="-197.5" font-family="Helvetica,sans-Serif" font-size="10.00">TCP_set_2nd_hdr_flag</text>
</a>
</g>
</g>
<!-- Node2&#45;&gt;Node5 -->
<g id="edge4" class="edge">
<title>Node2&#45;&gt;Node5</title>
<path fill="none" stroke="midnightblue" d="M265.31,-152.55C287.74,-160.34 320.37,-171.57 349,-181 355.41,-183.11 362.23,-185.31 368.88,-187.44"/>
<polygon fill="midnightblue" stroke="midnightblue" points="367.84,-190.78 378.43,-190.47 369.96,-184.11 367.84,-190.78"/>
</g>
<!-- Node6 -->
<g id="node6" class="node">
<title>Node6</title>
<g id="a_node6"><a xlink:href="_t_c_packet_8c.html#aa1d3b2e538140f4553a267ccd1e4086d" target="_top" xlink:title="APID を設定">
<polygon fill="white" stroke="black" points="369.5,-152.5 369.5,-171.5 450.5,-171.5 450.5,-152.5 369.5,-152.5"/>
<text text-anchor="middle" x="410" y="-159.5" font-family="Helvetica,sans-Serif" font-size="10.00">TCP_set_apid</text>
</a>
</g>
</g>
<!-- Node2&#45;&gt;Node6 -->
<g id="edge5" class="edge">
<title>Node2&#45;&gt;Node6</title>
<path fill="none" stroke="midnightblue" d="M313,-151.33C328.6,-153.07 344.67,-154.85 359.1,-156.46"/>
<polygon fill="midnightblue" stroke="midnightblue" points="358.95,-159.96 369.28,-157.59 359.73,-153 358.95,-159.96"/>
</g>
<!-- Node7 -->
<g id="node7" class="node">
<title>Node7</title>
<g id="a_node7"><a xlink:href="_t_c_packet_8c.html#af3c9a103fe8e323fde490d0fd9ff2524" target="_top" xlink:title="Sequence Count を設定">
<polygon fill="white" stroke="black" points="361,-114.5 361,-133.5 459,-133.5 459,-114.5 361,-114.5"/>
<text text-anchor="middle" x="410" y="-121.5" font-family="Helvetica,sans-Serif" font-size="10.00">TCP_set_seq_cnt</text>
</a>
</g>
</g>
<!-- Node2&#45;&gt;Node7 -->
<g id="edge6" class="edge">
<title>Node2&#45;&gt;Node7</title>
<path fill="none" stroke="midnightblue" d="M313,-134.67C325.62,-133.26 338.55,-131.83 350.67,-130.48"/>
<polygon fill="midnightblue" stroke="midnightblue" points="351.08,-133.96 360.63,-129.37 350.31,-127 351.08,-133.96"/>
</g>
<!-- Node8 -->
<g id="node8" class="node">
<title>Node8</title>
<g id="a_node8"><a xlink:href="_t_c_packet_8c.html#a97376550c537197a526ee85a84bec294" target="_top" xlink:title="Sequence Flag を設定">
<polygon fill="white" stroke="black" points="359.5,-76.5 359.5,-95.5 460.5,-95.5 460.5,-76.5 359.5,-76.5"/>
<text text-anchor="middle" x="410" y="-83.5" font-family="Helvetica,sans-Serif" font-size="10.00">TCP_set_seq_flag</text>
</a>
</g>
</g>
<!-- Node2&#45;&gt;Node8 -->
<g id="edge7" class="edge">
<title>Node2&#45;&gt;Node8</title>
<path fill="none" stroke="midnightblue" d="M265.31,-133.45C287.74,-125.66 320.37,-114.43 349,-105 355.41,-102.89 362.23,-100.69 368.88,-98.56"/>
<polygon fill="midnightblue" stroke="midnightblue" points="369.96,-101.89 378.43,-95.53 367.84,-95.22 369.96,-101.89"/>
</g>
<!-- Node9 -->
<g id="node9" class="node">
<title>Node9</title>
<g id="a_node9"><a xlink:href="_t_c_packet_8c.html#af10044126dd5355bb5d2b9eab4bbaeae" target="_top" xlink:title="TCP type を設定">
<polygon fill="white" stroke="black" points="369,-38.5 369,-57.5 451,-57.5 451,-38.5 369,-38.5"/>
<text text-anchor="middle" x="410" y="-45.5" font-family="Helvetica,sans-Serif" font-size="10.00">TCP_set_type</text>
</a>
</g>
</g>
<!-- Node2&#45;&gt;Node9 -->
<g id="edge8" class="edge">
<title>Node2&#45;&gt;Node9</title>
<path fill="none" stroke="midnightblue" d="M249.6,-133.33C269.05,-117.53 309.95,-86.03 349,-67 353.55,-64.78 358.42,-62.75 363.34,-60.9"/>
<polygon fill="midnightblue" stroke="midnightblue" points="364.52,-64.19 372.8,-57.57 362.2,-57.59 364.52,-64.19"/>
</g>
<!-- Node10 -->
<g id="node10" class="node">
<title>Node10</title>
<g id="a_node10"><a xlink:href="_t_c_packet_8c.html#ab67ca189d1e2404cc22dcb2a0fbc7b03" target="_top" xlink:title="TCP ver を設定">
<polygon fill="white" stroke="black" points="372,-0.5 372,-19.5 448,-19.5 448,-0.5 372,-0.5"/>
<text text-anchor="middle" x="410" y="-7.5" font-family="Helvetica,sans-Serif" font-size="10.00">TCP_set_ver</text>
</a>
</g>
</g>
<!-- Node2&#45;&gt;Node10 -->
<g id="edge9" class="edge">
<title>Node2&#45;&gt;Node10</title>
<path fill="none" stroke="midnightblue" d="M244.86,-133.19C260.68,-111.27 301.98,-58 349,-29 353.14,-26.45 357.66,-24.2 362.29,-22.25"/>
<polygon fill="midnightblue" stroke="midnightblue" points="363.78,-25.43 371.89,-18.61 361.3,-18.88 363.78,-25.43"/>
</g>
</g>
</svg>
