<?xml version="1.0" encoding="UTF-8" standalone="no"?>
<!DOCTYPE svg PUBLIC "-//W3C//DTD SVG 1.1//EN"
 "http://www.w3.org/Graphics/SVG/1.1/DTD/svg11.dtd">
<!-- Generated by graphviz version 2.43.0 (0)
 -->
<!-- Title: CDIS_dispatch_command Pages: 1 -->
<svg width="1289pt" height="265pt"
 viewBox="0.00 0.00 1289.00 265.00" xmlns="http://www.w3.org/2000/svg" xmlns:xlink="http://www.w3.org/1999/xlink">
<g id="graph0" class="graph" transform="scale(1 1) rotate(0) translate(4 261)">
<title>CDIS_dispatch_command</title>
<polygon fill="white" stroke="transparent" points="-4,4 -4,-261 1285,-261 1285,4 -4,4"/>
<!-- Node1 -->
<g id="node1" class="node">
<title>Node1</title>
<g id="a_node1"><a xlink:title="CDIS に登録されているコマンドキューからコマンドを実行">
<polygon fill="#bfbfbf" stroke="black" points="1141,-149.5 1141,-168.5 1281,-168.5 1281,-149.5 1141,-149.5"/>
<text text-anchor="middle" x="1211" y="-156.5" font-family="Helvetica,sans-Serif" font-size="10.00">CDIS_dispatch_command</text>
</a>
</g>
</g>
<!-- Node2 -->
<g id="node2" class="node">
<title>Node2</title>
<g id="a_node2"><a xlink:href="di__aobc_8c.html#ac2b0fb03e89d75b82419d4ad53202f8b" target="_top" xlink:title=" ">
<polygon fill="white" stroke="black" points="957,-237.5 957,-256.5 1105,-256.5 1105,-237.5 957,-237.5"/>
<text text-anchor="middle" x="1031" y="-244.5" font-family="Helvetica,sans-Serif" font-size="10.00">DI_AOBC_cmd_dispatcher_</text>
</a>
</g>
</g>
<!-- Node1&#45;&gt;Node2 -->
<g id="edge1" class="edge">
<title>Node1&#45;&gt;Node2</title>
<path fill="none" stroke="midnightblue" d="M1190.01,-175.03C1169.69,-190.59 1136.78,-213.88 1105,-228 1096.5,-231.77 1087.1,-234.92 1077.96,-237.49"/>
<polygon fill="midnightblue" stroke="midnightblue" points="1192.42,-177.59 1198.15,-168.68 1188.12,-172.07 1192.42,-177.59"/>
</g>
<!-- Node4 -->
<g id="node4" class="node">
<title>Node4</title>
<g id="a_node4"><a xlink:href="gs__command__dispatcher_8c.html#a4fe4cfc8c0f816a286dc50d8797cef54" target="_top" xlink:title="GSCD App 実行関数">
<polygon fill="white" stroke="black" points="983,-149.5 983,-168.5 1079,-168.5 1079,-149.5 983,-149.5"/>
<text text-anchor="middle" x="1031" y="-156.5" font-family="Helvetica,sans-Serif" font-size="10.00">GSCD_dispatch_</text>
</a>
</g>
</g>
<!-- Node1&#45;&gt;Node4 -->
<g id="edge3" class="edge">
<title>Node1&#45;&gt;Node4</title>
<path fill="none" stroke="midnightblue" d="M1130.63,-159C1113,-159 1094.86,-159 1079.03,-159"/>
<polygon fill="midnightblue" stroke="midnightblue" points="1130.93,-162.5 1140.93,-159 1130.93,-155.5 1130.93,-162.5"/>
</g>
<!-- Node11 -->
<g id="node11" class="node">
<title>Node11</title>
<g id="a_node11"><a xlink:href="realtime__command__dispatcher_8c.html#aa66b7d158969999a789dc69d2d5b1b7d" target="_top" xlink:title=" ">
<polygon fill="white" stroke="black" points="984,-111.5 984,-130.5 1078,-130.5 1078,-111.5 984,-111.5"/>
<text text-anchor="middle" x="1031" y="-118.5" font-family="Helvetica,sans-Serif" font-size="10.00">RTCD_dispatch_</text>
</a>
</g>
</g>
<!-- Node1&#45;&gt;Node11 -->
<g id="edge10" class="edge">
<title>Node1&#45;&gt;Node11</title>
<path fill="none" stroke="midnightblue" d="M1155.28,-147.32C1130.04,-141.93 1100.45,-135.61 1076.59,-130.52"/>
<polygon fill="midnightblue" stroke="midnightblue" points="1154.57,-150.75 1165.08,-149.41 1156.03,-143.9 1154.57,-150.75"/>
</g>
<!-- Node13 -->
<g id="node13" class="node">
<title>Node13</title>
<g id="a_node13"><a xlink:href="task__dispatcher_8h.html#ac880fe6e26ecdf8711d08980cad6787d" target="_top" xlink:title="現在時刻に応じて、TaskList から Cmd を一つ実行する or TaskList を再展開する">
<polygon fill="white" stroke="black" points="973,-188 973,-218 1089,-218 1089,-188 973,-188"/>
<text text-anchor="start" x="981" y="-206" font-family="Helvetica,sans-Serif" font-size="10.00">TDSP_execute_pl_as</text>
<text text-anchor="middle" x="1031" y="-195" font-family="Helvetica,sans-Serif" font-size="10.00">_task_list</text>
</a>
</g>
</g>
<!-- Node1&#45;&gt;Node13 -->
<g id="edge13" class="edge">
<title>Node1&#45;&gt;Node13</title>
<path fill="none" stroke="midnightblue" d="M1161.44,-171C1139.1,-176.52 1112.45,-183.11 1089.14,-188.87"/>
<polygon fill="midnightblue" stroke="midnightblue" points="1162.51,-174.34 1171.38,-168.55 1160.83,-167.55 1162.51,-174.34"/>
</g>
<!-- Node16 -->
<g id="node16" class="node">
<title>Node16</title>
<g id="a_node16"><a xlink:href="timeline__command__dispatcher_8c.html#adc7c7ed35f5cb69bb1d8baccd0193f8d" target="_top" xlink:title="指定された lien_no の Timeline コマンドを実行する">
<polygon fill="white" stroke="black" points="970.5,-57.5 970.5,-76.5 1091.5,-76.5 1091.5,-57.5 970.5,-57.5"/>
<text text-anchor="middle" x="1031" y="-64.5" font-family="Helvetica,sans-Serif" font-size="10.00">TLCD_tlc_dispatcher_</text>
</a>
</g>
</g>
<!-- Node1&#45;&gt;Node16 -->
<g id="edge17" class="edge">
<title>Node1&#45;&gt;Node16</title>
<path fill="none" stroke="midnightblue" d="M1184.05,-144.44C1162.92,-132.7 1132.23,-115.91 1105,-102 1087.48,-93.05 1067.29,-83.42 1052.59,-76.53"/>
<polygon fill="midnightblue" stroke="midnightblue" points="1182.61,-147.64 1193.04,-149.45 1186.01,-141.53 1182.61,-147.64"/>
</g>
<!-- Node3 -->
<g id="node3" class="node">
<title>Node3</title>
<g id="a_node3"><a xlink:href="di__aobc_8h.html#a22b846ecf2fe48c7bff4f2c10f2bc284" target="_top" xlink:title="AOBC cmd dispatcher アプリ生成関数">
<polygon fill="white" stroke="black" points="778,-237.5 778,-256.5 921,-256.5 921,-237.5 778,-237.5"/>
<text text-anchor="middle" x="849.5" y="-244.5" font-family="Helvetica,sans-Serif" font-size="10.00">DI_AOBC_cmd_dispatcher</text>
</a>
</g>
</g>
<!-- Node2&#45;&gt;Node3 -->
<g id="edge2" class="edge">
<title>Node2&#45;&gt;Node3</title>
<path fill="none" stroke="midnightblue" d="M946.92,-247C938.3,-247 929.59,-247 921.12,-247"/>
<polygon fill="midnightblue" stroke="midnightblue" points="946.99,-250.5 956.99,-247 946.99,-243.5 946.99,-250.5"/>
</g>
<!-- Node5 -->
<g id="node5" class="node">
<title>Node5</title>
<g id="a_node5"><a xlink:href="gs__command__dispatcher_8h.html#a0195f703ab1a606ae7541ef886e609bc" target="_top" xlink:title="GSCD App 生成関数">
<polygon fill="white" stroke="black" points="628.5,-152.5 628.5,-171.5 732.5,-171.5 732.5,-152.5 628.5,-152.5"/>
<text text-anchor="middle" x="680.5" y="-159.5" font-family="Helvetica,sans-Serif" font-size="10.00">GSCD_create_app</text>
</a>
</g>
</g>
<!-- Node4&#45;&gt;Node5 -->
<g id="edge4" class="edge">
<title>Node4&#45;&gt;Node5</title>
<path fill="none" stroke="midnightblue" d="M972.66,-159.49C905.87,-160.07 796.53,-161.01 732.56,-161.56"/>
<polygon fill="midnightblue" stroke="midnightblue" points="973.03,-162.99 983,-159.4 972.97,-155.99 973.03,-162.99"/>
</g>
<!-- Node6 -->
<g id="node6" class="node">
<title>Node6</title>
<g id="a_node6"><a xlink:href="app__registry_8h.html#ab944b1d78a41e427bc2ed57f9c4e9534" target="_top" xlink:title=" ">
<polygon fill="white" stroke="black" points="449,-81.5 449,-100.5 583,-100.5 583,-81.5 449,-81.5"/>
<text text-anchor="middle" x="516" y="-88.5" font-family="Helvetica,sans-Serif" font-size="10.00">AR_load_initial_settings</text>
</a>
</g>
</g>
<!-- Node5&#45;&gt;Node6 -->
<g id="edge5" class="edge">
<title>Node5&#45;&gt;Node6</title>
<path fill="none" stroke="midnightblue" d="M635.95,-149.29C630.2,-147.33 624.42,-145.21 619,-143 587.9,-130.29 553.41,-111.7 533.56,-100.53"/>
<polygon fill="midnightblue" stroke="midnightblue" points="634.95,-152.64 645.54,-152.43 637.13,-145.99 634.95,-152.64"/>
</g>
<!-- Node7 -->
<g id="node7" class="node">
<title>Node7</title>
<g id="a_node7"><a xlink:href="c2a__core__main_8h.html#a65ecdc63d8762ffde4db7f6c6e6f07cf" target="_top" xlink:title=" ">
<polygon fill="white" stroke="black" points="330,-119.5 330,-138.5 413,-138.5 413,-119.5 330,-119.5"/>
<text text-anchor="middle" x="371.5" y="-126.5" font-family="Helvetica,sans-Serif" font-size="10.00">C2A_core_init</text>
</a>
</g>
</g>
<!-- Node6&#45;&gt;Node7 -->
<g id="edge6" class="edge">
<title>Node6&#45;&gt;Node7</title>
<path fill="none" stroke="midnightblue" d="M469.35,-103.17C449.64,-108.43 426.93,-114.49 408.45,-119.41"/>
<polygon fill="midnightblue" stroke="midnightblue" points="470.28,-106.55 479.04,-100.59 468.48,-99.78 470.28,-106.55"/>
</g>
<!-- Node8 -->
<g id="node8" class="node">
<title>Node8</title>
<g id="a_node8"><a xlink:href="c2a__main_8c.html#a630222a80cd8bffd4426d4a55a215069" target="_top" xlink:title=" ">
<polygon fill="white" stroke="black" points="232,-138.5 232,-157.5 294,-157.5 294,-138.5 232,-138.5"/>
<text text-anchor="middle" x="263" y="-145.5" font-family="Helvetica,sans-Serif" font-size="10.00">C2A_init_</text>
</a>
</g>
</g>
<!-- Node7&#45;&gt;Node8 -->
<g id="edge7" class="edge">
<title>Node7&#45;&gt;Node8</title>
<path fill="none" stroke="midnightblue" d="M320.04,-138C311.2,-139.58 302.25,-141.18 294.18,-142.62"/>
<polygon fill="midnightblue" stroke="midnightblue" points="320.7,-141.44 329.93,-136.24 319.47,-134.55 320.7,-141.44"/>
</g>
<!-- Node9 -->
<g id="node9" class="node">
<title>Node9</title>
<g id="a_node9"><a xlink:href="c2a__main_8c.html#ac3344a311adda8f9e7310924bedf81fc" target="_top" xlink:title=" ">
<polygon fill="white" stroke="black" points="77,-157.5 77,-176.5 196,-176.5 196,-157.5 77,-157.5"/>
<text text-anchor="middle" x="136.5" y="-164.5" font-family="Helvetica,sans-Serif" font-size="10.00">address_fixed_main_</text>
</a>
</g>
</g>
<!-- Node8&#45;&gt;Node9 -->
<g id="edge8" class="edge">
<title>Node8&#45;&gt;Node9</title>
<path fill="none" stroke="midnightblue" d="M221.83,-154.13C213.62,-155.38 204.82,-156.73 196.12,-158.05"/>
<polygon fill="midnightblue" stroke="midnightblue" points="222.5,-157.57 231.86,-152.6 221.45,-150.65 222.5,-157.57"/>
</g>
<!-- Node10 -->
<g id="node10" class="node">
<title>Node10</title>
<g id="a_node10"><a xlink:href="c2a__main_8c.html#a840291bc02cba5474a4cb46a9b9566fe" target="_top" xlink:title=" ">
<polygon fill="white" stroke="black" points="0,-157.5 0,-176.5 41,-176.5 41,-157.5 0,-157.5"/>
<text text-anchor="middle" x="20.5" y="-164.5" font-family="Helvetica,sans-Serif" font-size="10.00">main</text>
</a>
</g>
</g>
<!-- Node9&#45;&gt;Node10 -->
<g id="edge9" class="edge">
<title>Node9&#45;&gt;Node10</title>
<path fill="none" stroke="midnightblue" d="M66.64,-167C57.37,-167 48.53,-167 41.18,-167"/>
<polygon fill="midnightblue" stroke="midnightblue" points="66.83,-170.5 76.83,-167 66.83,-163.5 66.83,-170.5"/>
</g>
<!-- Node12 -->
<g id="node12" class="node">
<title>Node12</title>
<g id="a_node12"><a xlink:href="realtime__command__dispatcher_8h.html#a6de82e8f79b0281c403be56abfaec6ba" target="_top" xlink:title=" ">
<polygon fill="white" stroke="black" points="630,-114.5 630,-133.5 731,-133.5 731,-114.5 630,-114.5"/>
<text text-anchor="middle" x="680.5" y="-121.5" font-family="Helvetica,sans-Serif" font-size="10.00">RTCD_create_app</text>
</a>
</g>
</g>
<!-- Node11&#45;&gt;Node12 -->
<g id="edge11" class="edge">
<title>Node11&#45;&gt;Node12</title>
<path fill="none" stroke="midnightblue" d="M973.32,-121.49C906.07,-122.07 795.03,-123.02 731.07,-123.57"/>
<polygon fill="midnightblue" stroke="midnightblue" points="973.75,-124.98 983.72,-121.4 973.69,-117.98 973.75,-124.98"/>
</g>
<!-- Node12&#45;&gt;Node6 -->
<g id="edge12" class="edge">
<title>Node12&#45;&gt;Node6</title>
<path fill="none" stroke="midnightblue" d="M622.66,-112.46C603.46,-108.56 582.24,-104.25 563.9,-100.52"/>
<polygon fill="midnightblue" stroke="midnightblue" points="622,-115.89 632.5,-114.46 623.39,-109.03 622,-115.89"/>
</g>
<!-- Node14 -->
<g id="node14" class="node">
<title>Node14</title>
<g id="a_node14"><a xlink:href="c2a__core__main_8h.html#a64e3c69d223ce8236ab718278b17b195" target="_top" xlink:title=" ">
<polygon fill="white" stroke="black" points="803.5,-190.5 803.5,-209.5 895.5,-209.5 895.5,-190.5 803.5,-190.5"/>
<text text-anchor="middle" x="849.5" y="-197.5" font-family="Helvetica,sans-Serif" font-size="10.00">C2A_core_main</text>
</a>
</g>
</g>
<!-- Node13&#45;&gt;Node14 -->
<g id="edge14" class="edge">
<title>Node13&#45;&gt;Node14</title>
<path fill="none" stroke="midnightblue" d="M962.6,-201.87C940.23,-201.5 915.88,-201.09 895.61,-200.75"/>
<polygon fill="midnightblue" stroke="midnightblue" points="962.65,-205.37 972.71,-202.04 962.77,-198.38 962.65,-205.37"/>
</g>
<!-- Node15 -->
<g id="node15" class="node">
<title>Node15</title>
<g id="a_node15"><a xlink:href="c2a__main_8c.html#a06acf8a326dfbc653a6b7094d98099b9" target="_top" xlink:title=" ">
<polygon fill="white" stroke="black" points="480.5,-187.5 480.5,-206.5 551.5,-206.5 551.5,-187.5 480.5,-187.5"/>
<text text-anchor="middle" x="516" y="-194.5" font-family="Helvetica,sans-Serif" font-size="10.00">C2A_main_</text>
</a>
</g>
</g>
<!-- Node14&#45;&gt;Node15 -->
<g id="edge15" class="edge">
<title>Node14&#45;&gt;Node15</title>
<path fill="none" stroke="midnightblue" d="M793.25,-199.5C724.55,-198.88 609.34,-197.84 551.84,-197.32"/>
<polygon fill="midnightblue" stroke="midnightblue" points="793.42,-203 803.45,-199.59 793.48,-196 793.42,-203"/>
</g>
<!-- Node15&#45;&gt;Node9 -->
<g id="edge16" class="edge">
<title>Node15&#45;&gt;Node9</title>
<path fill="none" stroke="midnightblue" d="M470.51,-193.46C402.36,-188.05 272.08,-177.7 196.25,-171.67"/>
<polygon fill="midnightblue" stroke="midnightblue" points="470.25,-196.95 480.5,-194.26 470.81,-189.98 470.25,-196.95"/>
</g>
<!-- Node17 -->
<g id="node17" class="node">
<title>Node17</title>
<g id="a_node17"><a xlink:href="timeline__command__dispatcher_8c.html#a66b090a512984479de9b511902b08514" target="_top" xlink:title=" ">
<polygon fill="white" stroke="black" points="794.5,-0.5 794.5,-19.5 904.5,-19.5 904.5,-0.5 794.5,-0.5"/>
<text text-anchor="middle" x="849.5" y="-7.5" font-family="Helvetica,sans-Serif" font-size="10.00">TLCD_bc_dispatch_</text>
</a>
</g>
</g>
<!-- Node16&#45;&gt;Node17 -->
<g id="edge18" class="edge">
<title>Node16&#45;&gt;Node17</title>
<path fill="none" stroke="midnightblue" d="M994.62,-53.94C973.4,-46.29 945.8,-36.65 921,-29 910.34,-25.71 898.68,-22.44 887.96,-19.56"/>
<polygon fill="midnightblue" stroke="midnightblue" points="993.59,-57.29 1004.19,-57.41 995.98,-50.71 993.59,-57.29"/>
</g>
<!-- Node19 -->
<g id="node19" class="node">
<title>Node19</title>
<g id="a_node19"><a xlink:href="timeline__command__dispatcher_8c.html#a61acaaad8a32749d22fd16ee68d8522c" target="_top" xlink:title=" ">
<polygon fill="white" stroke="black" points="794.5,-76.5 794.5,-95.5 904.5,-95.5 904.5,-76.5 794.5,-76.5"/>
<text text-anchor="middle" x="849.5" y="-83.5" font-family="Helvetica,sans-Serif" font-size="10.00">TLCD_gs_dispatch_</text>
</a>
</g>
</g>
<!-- Node16&#45;&gt;Node19 -->
<g id="edge21" class="edge">
<title>Node16&#45;&gt;Node19</title>
<path fill="none" stroke="midnightblue" d="M960.12,-74.4C941.67,-76.35 922.04,-78.43 904.57,-80.28"/>
<polygon fill="midnightblue" stroke="midnightblue" points="960.65,-77.86 970.23,-73.33 959.92,-70.9 960.65,-77.86"/>
</g>
<!-- Node21 -->
<g id="node21" class="node">
<title>Node21</title>
<g id="a_node21"><a xlink:href="timeline__command__dispatcher_8c.html#ab6c98e6d001183d4d8b32f0c333c62d0" target="_top" xlink:title=" ">
<polygon fill="white" stroke="black" points="791.5,-38.5 791.5,-57.5 907.5,-57.5 907.5,-38.5 791.5,-38.5"/>
<text text-anchor="middle" x="849.5" y="-45.5" font-family="Helvetica,sans-Serif" font-size="10.00">TLCD_tlm_dispatch_</text>
</a>
</g>
</g>
<!-- Node16&#45;&gt;Node21 -->
<g id="edge24" class="edge">
<title>Node16&#45;&gt;Node21</title>
<path fill="none" stroke="midnightblue" d="M960.13,-59.6C942.73,-57.76 924.28,-55.81 907.58,-54.04"/>
<polygon fill="midnightblue" stroke="midnightblue" points="959.92,-63.1 970.23,-60.67 960.65,-56.14 959.92,-63.1"/>
</g>
<!-- Node18 -->
<g id="node18" class="node">
<title>Node18</title>
<g id="a_node18"><a xlink:href="timeline__command__dispatcher_8h.html#a613f71be9eb32486ac16a35bc5e02678" target="_top" xlink:title="TL1 (BC を展開する用の Timeline) の実行 App を作成する">
<polygon fill="white" stroke="black" points="621.5,-0.5 621.5,-19.5 739.5,-19.5 739.5,-0.5 621.5,-0.5"/>
<text text-anchor="middle" x="680.5" y="-7.5" font-family="Helvetica,sans-Serif" font-size="10.00">TLCD_bc_create_app</text>
</a>
</g>
</g>
<!-- Node17&#45;&gt;Node18 -->
<g id="edge19" class="edge">
<title>Node17&#45;&gt;Node18</title>
<path fill="none" stroke="midnightblue" d="M783.87,-10C769.35,-10 754.01,-10 739.77,-10"/>
<polygon fill="midnightblue" stroke="midnightblue" points="784.28,-13.5 794.28,-10 784.28,-6.5 784.28,-13.5"/>
</g>
<!-- Node18&#45;&gt;Node6 -->
<g id="edge20" class="edge">
<title>Node18&#45;&gt;Node6</title>
<path fill="none" stroke="midnightblue" d="M634.56,-22.77C629.24,-24.67 623.95,-26.76 619,-29 585.4,-44.22 549.21,-68.25 530.28,-81.48"/>
<polygon fill="midnightblue" stroke="midnightblue" points="635.74,-26.07 644.09,-19.54 633.5,-19.44 635.74,-26.07"/>
</g>
<!-- Node20 -->
<g id="node20" class="node">
<title>Node20</title>
<g id="a_node20"><a xlink:href="timeline__command__dispatcher_8h.html#aeb9665c53e8687acbe00da062d413ea3" target="_top" xlink:title="TL0 (GS から登録されるバス用の Timeline) の実行 App を作成する">
<polygon fill="white" stroke="black" points="621.5,-76.5 621.5,-95.5 739.5,-95.5 739.5,-76.5 621.5,-76.5"/>
<text text-anchor="middle" x="680.5" y="-83.5" font-family="Helvetica,sans-Serif" font-size="10.00">TLCD_gs_create_app</text>
</a>
</g>
</g>
<!-- Node19&#45;&gt;Node20 -->
<g id="edge22" class="edge">
<title>Node19&#45;&gt;Node20</title>
<path fill="none" stroke="midnightblue" d="M783.87,-86C769.35,-86 754.01,-86 739.77,-86"/>
<polygon fill="midnightblue" stroke="midnightblue" points="784.28,-89.5 794.28,-86 784.28,-82.5 784.28,-89.5"/>
</g>
<!-- Node20&#45;&gt;Node6 -->
<g id="edge23" class="edge">
<title>Node20&#45;&gt;Node6</title>
<path fill="none" stroke="midnightblue" d="M611.28,-88.1C601.95,-88.39 592.38,-88.68 583.09,-88.97"/>
<polygon fill="midnightblue" stroke="midnightblue" points="611.41,-91.6 621.29,-87.79 611.19,-84.6 611.41,-91.6"/>
</g>
<!-- Node22 -->
<g id="node22" class="node">
<title>Node22</title>
<g id="a_node22"><a xlink:href="timeline__command__dispatcher_8h.html#a420223ebba00f8b607cf320642276394" target="_top" xlink:title="TL2 (TLM を登録する用の Timeline) の実行 App を作成する">
<polygon fill="white" stroke="black" points="619,-38.5 619,-57.5 742,-57.5 742,-38.5 619,-38.5"/>
<text text-anchor="middle" x="680.5" y="-45.5" font-family="Helvetica,sans-Serif" font-size="10.00">TLCD_tlm_create_app</text>
</a>
</g>
</g>
<!-- Node21&#45;&gt;Node22 -->
<g id="edge25" class="edge">
<title>Node21&#45;&gt;Node22</title>
<path fill="none" stroke="midnightblue" d="M781.28,-48C768.38,-48 754.93,-48 742.24,-48"/>
<polygon fill="midnightblue" stroke="midnightblue" points="781.5,-51.5 791.5,-48 781.5,-44.5 781.5,-51.5"/>
</g>
<!-- Node22&#45;&gt;Node6 -->
<g id="edge26" class="edge">
<title>Node22&#45;&gt;Node6</title>
<path fill="none" stroke="midnightblue" d="M633.6,-60.15C608.05,-66.91 576.72,-75.2 552.96,-81.48"/>
<polygon fill="midnightblue" stroke="midnightblue" points="634.66,-63.48 643.44,-57.54 632.87,-56.72 634.66,-63.48"/>
</g>
</g>
</svg>
