<?xml version="1.0" encoding="UTF-8" standalone="no"?>
<!DOCTYPE svg PUBLIC "-//W3C//DTD SVG 1.1//EN"
 "http://www.w3.org/Graphics/SVG/1.1/DTD/svg11.dtd">
<!-- Generated by graphviz version 2.43.0 (0)
 -->
<!-- Title: CCP_get_dest_type Pages: 1 -->
<svg width="1655pt" height="795pt"
 viewBox="0.00 0.00 1655.00 794.50" xmlns="http://www.w3.org/2000/svg" xmlns:xlink="http://www.w3.org/1999/xlink">
<g id="graph0" class="graph" transform="scale(1 1) rotate(0) translate(4 790.5)">
<title>CCP_get_dest_type</title>
<polygon fill="white" stroke="transparent" points="-4,4 -4,-790.5 1651,-790.5 1651,4 -4,4"/>
<!-- Node1 -->
<g id="node1" class="node">
<title>Node1</title>
<g id="a_node1"><a xlink:title="DEST_TYPE を取得">
<polygon fill="#bfbfbf" stroke="black" points="1537,-500.5 1537,-519.5 1647,-519.5 1647,-500.5 1537,-500.5"/>
<text text-anchor="middle" x="1592" y="-507.5" font-family="Helvetica,sans-Serif" font-size="10.00">CCP_get_dest_type</text>
</a>
</g>
</g>
<!-- Node2 -->
<g id="node2" class="node">
<title>Node2</title>
<g id="a_node2"><a xlink:href="di__aobc_8h.html#aff7d4f09f3003e15242d14e6ed393059" target="_top" xlink:title="CommonCmdPacket を AOBC に送信する">
<polygon fill="white" stroke="black" points="1340,-481.5 1340,-500.5 1501,-500.5 1501,-481.5 1340,-481.5"/>
<text text-anchor="middle" x="1420.5" y="-488.5" font-family="Helvetica,sans-Serif" font-size="10.00">DI_AOBC_dispatch_command</text>
</a>
</g>
</g>
<!-- Node1&#45;&gt;Node2 -->
<g id="edge1" class="edge">
<title>Node1&#45;&gt;Node2</title>
<path fill="none" stroke="midnightblue" d="M1526.8,-502.8C1518.38,-501.86 1509.67,-500.88 1501.03,-499.91"/>
<polygon fill="midnightblue" stroke="midnightblue" points="1526.58,-506.3 1536.9,-503.94 1527.36,-499.34 1526.58,-506.3"/>
</g>
<!-- Node50 -->
<g id="node38" class="node">
<title>Node50</title>
<g id="a_node38"><a xlink:href="user__packet__handler_8h.html#a6ceb9e37114f6c81c6872ec90dd2a39d" target="_top" xlink:title="PHのanalyze_cmd_のユーザー処理関数">
<polygon fill="white" stroke="black" points="1357.5,-519.5 1357.5,-538.5 1483.5,-538.5 1483.5,-519.5 1357.5,-519.5"/>
<text text-anchor="middle" x="1420.5" y="-526.5" font-family="Helvetica,sans-Serif" font-size="10.00">PH_user_analyze_cmd</text>
</a>
</g>
</g>
<!-- Node1&#45;&gt;Node50 -->
<g id="edge44" class="edge">
<title>Node1&#45;&gt;Node50</title>
<path fill="none" stroke="midnightblue" d="M1526.78,-517.2C1512.64,-518.78 1497.69,-520.46 1483.64,-522.03"/>
<polygon fill="midnightblue" stroke="midnightblue" points="1527.36,-520.66 1536.9,-516.06 1526.58,-513.7 1527.36,-520.66"/>
</g>
<!-- Node3 -->
<g id="node3" class="node">
<title>Node3</title>
<g id="a_node3"><a xlink:href="user__packet__handler_8h.html#a2c3c644313071db44127bc7a90be4569" target="_top" xlink:title="PHのcmd_router_のユーザー処理関数">
<polygon fill="white" stroke="black" points="1187,-481.5 1187,-500.5 1304,-500.5 1304,-481.5 1187,-481.5"/>
<text text-anchor="middle" x="1245.5" y="-488.5" font-family="Helvetica,sans-Serif" font-size="10.00">PH_user_cmd_router</text>
</a>
</g>
</g>
<!-- Node2&#45;&gt;Node3 -->
<g id="edge2" class="edge">
<title>Node2&#45;&gt;Node3</title>
<path fill="none" stroke="midnightblue" d="M1329.64,-491C1320.95,-491 1312.31,-491 1304.07,-491"/>
<polygon fill="midnightblue" stroke="midnightblue" points="1329.84,-494.5 1339.84,-491 1329.84,-487.5 1329.84,-494.5"/>
</g>
<!-- Node4 -->
<g id="node4" class="node">
<title>Node4</title>
<g id="a_node4"><a xlink:href="packet__handler_8h.html#a7b1777e6101ff2eeeef6042166974cdc" target="_top" xlink:title="CCP をコマンドとして解釈して実行，ないしは別機器へ配送する">
<polygon fill="white" stroke="black" points="1020,-375.5 1020,-394.5 1151,-394.5 1151,-375.5 1020,-375.5"/>
<text text-anchor="middle" x="1085.5" y="-382.5" font-family="Helvetica,sans-Serif" font-size="10.00">PH_dispatch_command</text>
</a>
</g>
</g>
<!-- Node3&#45;&gt;Node4 -->
<g id="edge3" class="edge">
<title>Node3&#45;&gt;Node4</title>
<path fill="none" stroke="midnightblue" d="M1221.67,-475.68C1188.7,-453.57 1128.71,-413.32 1101.11,-394.8"/>
<polygon fill="midnightblue" stroke="midnightblue" points="1219.95,-478.74 1230.2,-481.41 1223.85,-472.93 1219.95,-478.74"/>
</g>
<!-- Node5 -->
<g id="node5" class="node">
<title>Node5</title>
<g id="a_node5"><a xlink:href="anomaly__handler_8c.html#adfd34d8cadea83c50526f50bbdcfcb40" target="_top" xlink:title=" ">
<polygon fill="white" stroke="black" points="839.5,-272.5 839.5,-291.5 982.5,-291.5 982.5,-272.5 839.5,-272.5"/>
<text text-anchor="middle" x="911" y="-279.5" font-family="Helvetica,sans-Serif" font-size="10.00">AH_respond_to_anomaly_</text>
</a>
</g>
</g>
<!-- Node4&#45;&gt;Node5 -->
<g id="edge4" class="edge">
<title>Node4&#45;&gt;Node5</title>
<path fill="none" stroke="midnightblue" d="M1068.32,-368.26C1049.62,-349.8 1017.14,-320.42 984,-303 975.13,-298.33 965.08,-294.57 955.36,-291.6"/>
<polygon fill="midnightblue" stroke="midnightblue" points="1065.92,-370.81 1075.46,-375.43 1070.89,-365.87 1065.92,-370.81"/>
</g>
<!-- Node13 -->
<g id="node10" class="node">
<title>Node13</title>
<g id="a_node10"><a xlink:href="block__command__executor_8c.html#ae33c8a6dadb5c8d6052c681bd93eabb4" target="_top" xlink:title="BC をまとめて一括で実行する">
<polygon fill="white" stroke="black" points="838,-436.5 838,-455.5 984,-455.5 984,-436.5 838,-436.5"/>
<text text-anchor="middle" x="911" y="-443.5" font-family="Helvetica,sans-Serif" font-size="10.00">BCE_combine_block_cmd_</text>
</a>
</g>
</g>
<!-- Node4&#45;&gt;Node13 -->
<g id="edge9" class="edge">
<title>Node4&#45;&gt;Node13</title>
<path fill="none" stroke="midnightblue" d="M1048.54,-397.98C1029.39,-404.86 1005.43,-413.44 984,-421 969.4,-426.15 953.11,-431.81 939.72,-436.45"/>
<polygon fill="midnightblue" stroke="midnightblue" points="1049.85,-401.23 1058.08,-394.55 1047.48,-394.64 1049.85,-401.23"/>
</g>
<!-- Node17 -->
<g id="node14" class="node">
<title>Node17</title>
<g id="a_node14"><a xlink:href="block__command__executor_8c.html#ad3ff86b57b5abbbdb7dd658a04f00f13" target="_top" xlink:title="rotator の実行主体">
<polygon fill="white" stroke="black" points="844,-312.5 844,-331.5 978,-331.5 978,-312.5 844,-312.5"/>
<text text-anchor="middle" x="911" y="-319.5" font-family="Helvetica,sans-Serif" font-size="10.00">BCE_rotate_block_cmd_</text>
</a>
</g>
</g>
<!-- Node4&#45;&gt;Node17 -->
<g id="edge14" class="edge">
<title>Node4&#45;&gt;Node17</title>
<path fill="none" stroke="midnightblue" d="M1053.37,-371.44C1033.66,-363.08 1007.54,-352.38 984,-344 971.56,-339.57 957.73,-335.22 945.54,-331.56"/>
<polygon fill="midnightblue" stroke="midnightblue" points="1052.19,-374.75 1062.76,-375.46 1054.94,-368.31 1052.19,-374.75"/>
</g>
<!-- Node19 -->
<g id="node16" class="node">
<title>Node19</title>
<g id="a_node16"><a xlink:href="block__command__executor_8c.html#aa35678f3996844ae59428f34e6c8c78f" target="_top" xlink:title="BC をまとめて一括で実行する">
<polygon fill="white" stroke="black" points="844,-488 844,-518 978,-518 978,-488 844,-488"/>
<text text-anchor="start" x="852" y="-506" font-family="Helvetica,sans-Serif" font-size="10.00">BCE_timelimit_combine</text>
<text text-anchor="middle" x="911" y="-495" font-family="Helvetica,sans-Serif" font-size="10.00">_block_cmd_</text>
</a>
</g>
</g>
<!-- Node4&#45;&gt;Node19 -->
<g id="edge17" class="edge">
<title>Node4&#45;&gt;Node19</title>
<path fill="none" stroke="midnightblue" d="M1066.3,-401.21C1046.75,-418.2 1014.38,-445.14 984,-465 971.22,-473.35 956.41,-481.42 943.56,-487.96"/>
<polygon fill="midnightblue" stroke="midnightblue" points="1068.64,-403.81 1073.85,-394.58 1064.03,-398.55 1068.64,-403.81"/>
</g>
<!-- Node21 -->
<g id="node18" class="node">
<title>Node21</title>
<g id="a_node18"><a xlink:href="command__dispatcher_8h.html#a90617acff33923f51c212b8e3034712c" target="_top" xlink:title=" ">
<polygon fill="white" stroke="black" points="841,-174.5 841,-193.5 981,-193.5 981,-174.5 841,-174.5"/>
<text text-anchor="middle" x="911" y="-181.5" font-family="Helvetica,sans-Serif" font-size="10.00">CDIS_dispatch_command</text>
</a>
</g>
</g>
<!-- Node4&#45;&gt;Node21 -->
<g id="edge20" class="edge">
<title>Node4&#45;&gt;Node21</title>
<path fill="none" stroke="midnightblue" d="M1070.57,-367.54C1051.41,-343.65 1015.69,-299.57 984,-263 961.88,-237.48 934.82,-208.32 921.03,-193.59"/>
<polygon fill="midnightblue" stroke="midnightblue" points="1067.86,-369.75 1076.84,-375.37 1073.33,-365.38 1067.86,-369.75"/>
</g>
<!-- Node38 -->
<g id="node31" class="node">
<title>Node38</title>
<g id="a_node31"><a xlink:href="event__handler_8c.html#a8d7de705ac2b09f9f25644f0c9f55952" target="_top" xlink:title="EH 対応を実施">
<polygon fill="white" stroke="black" points="871,-353.5 871,-372.5 951,-372.5 951,-353.5 871,-353.5"/>
<text text-anchor="middle" x="911" y="-360.5" font-family="Helvetica,sans-Serif" font-size="10.00">EH_respond_</text>
</a>
</g>
</g>
<!-- Node4&#45;&gt;Node38 -->
<g id="edge35" class="edge">
<title>Node4&#45;&gt;Node38</title>
<path fill="none" stroke="midnightblue" d="M1009.63,-375.45C989.42,-372.87 968.37,-370.19 951,-367.97"/>
<polygon fill="midnightblue" stroke="midnightblue" points="1009.41,-378.95 1019.78,-376.75 1010.3,-372.01 1009.41,-378.95"/>
</g>
<!-- Node46 -->
<g id="node34" class="node">
<title>Node46</title>
<g id="a_node34"><a xlink:href="mode__manager_8c.html#a4a483437e28116e6067d488392922a8f" target="_top" xlink:title="(モード遷移に対応する)ブロックコマンドのタイムラインへの展開を行う">
<polygon fill="white" stroke="black" points="843,-392.5 843,-411.5 979,-411.5 979,-392.5 843,-392.5"/>
<text text-anchor="middle" x="911" y="-399.5" font-family="Helvetica,sans-Serif" font-size="10.00">MM_deploy_block_cmd_</text>
</a>
</g>
</g>
<!-- Node4&#45;&gt;Node46 -->
<g id="edge38" class="edge">
<title>Node4&#45;&gt;Node46</title>
<path fill="none" stroke="midnightblue" d="M1009.7,-392.37C999.52,-393.37 989.13,-394.4 979.1,-395.39"/>
<polygon fill="midnightblue" stroke="midnightblue" points="1010.17,-395.84 1019.78,-391.38 1009.48,-388.88 1010.17,-395.84"/>
</g>
<!-- Node6 -->
<g id="node6" class="node">
<title>Node6</title>
<g id="a_node6"><a xlink:href="anomaly__handler_8c.html#a91a15ad7eda6409b6380ed9a409f76fc" target="_top" xlink:title=" ">
<polygon fill="white" stroke="black" points="684,-272.5 684,-291.5 748,-291.5 748,-272.5 684,-272.5"/>
<text text-anchor="middle" x="716" y="-279.5" font-family="Helvetica,sans-Serif" font-size="10.00">AH_exec_</text>
</a>
</g>
</g>
<!-- Node5&#45;&gt;Node6 -->
<g id="edge5" class="edge">
<title>Node5&#45;&gt;Node6</title>
<path fill="none" stroke="midnightblue" d="M829.21,-282C800.62,-282 770.13,-282 748.16,-282"/>
<polygon fill="midnightblue" stroke="midnightblue" points="829.23,-285.5 839.23,-282 829.23,-278.5 829.23,-285.5"/>
</g>
<!-- Node7 -->
<g id="node7" class="node">
<title>Node7</title>
<g id="a_node7"><a xlink:href="anomaly__handler_8h.html#a527184a40c59e88853557f2fd32f1c98" target="_top" xlink:title=" ">
<polygon fill="white" stroke="black" points="455.5,-269.5 455.5,-288.5 545.5,-288.5 545.5,-269.5 455.5,-269.5"/>
<text text-anchor="middle" x="500.5" y="-276.5" font-family="Helvetica,sans-Serif" font-size="10.00">AH_create_app</text>
</a>
</g>
</g>
<!-- Node6&#45;&gt;Node7 -->
<g id="edge6" class="edge">
<title>Node6&#45;&gt;Node7</title>
<path fill="none" stroke="midnightblue" d="M673.58,-281.42C636.78,-280.9 583.15,-280.15 545.57,-279.62"/>
<polygon fill="midnightblue" stroke="midnightblue" points="673.91,-284.92 683.96,-281.56 674.01,-277.92 673.91,-284.92"/>
</g>
<!-- Node8 -->
<g id="node8" class="node">
<title>Node8</title>
<g id="a_node8"><a xlink:href="app__registry_8h.html#ab944b1d78a41e427bc2ed57f9c4e9534" target="_top" xlink:title=" ">
<polygon fill="white" stroke="black" points="237,-250.5 237,-269.5 371,-269.5 371,-250.5 237,-250.5"/>
<text text-anchor="middle" x="304" y="-257.5" font-family="Helvetica,sans-Serif" font-size="10.00">AR_load_initial_settings</text>
</a>
</g>
</g>
<!-- Node7&#45;&gt;Node8 -->
<g id="edge7" class="edge">
<title>Node7&#45;&gt;Node8</title>
<path fill="none" stroke="midnightblue" d="M445.12,-273.69C422.16,-271.45 395.22,-268.81 371.12,-266.46"/>
<polygon fill="midnightblue" stroke="midnightblue" points="445.07,-277.2 455.36,-274.69 445.75,-270.23 445.07,-277.2"/>
</g>
<!-- Node9 -->
<g id="node9" class="node">
<title>Node9</title>
<g id="a_node9"><a xlink:href="c2a__core__main_8h.html#a65ecdc63d8762ffde4db7f6c6e6f07cf" target="_top" xlink:title=" ">
<polygon fill="white" stroke="red" points="0,-395.5 0,-414.5 83,-414.5 83,-395.5 0,-395.5"/>
<text text-anchor="middle" x="41.5" y="-402.5" font-family="Helvetica,sans-Serif" font-size="10.00">C2A_core_init</text>
</a>
</g>
</g>
<!-- Node8&#45;&gt;Node9 -->
<g id="edge8" class="edge">
<title>Node8&#45;&gt;Node9</title>
<path fill="none" stroke="midnightblue" d="M277.1,-274.41C224.05,-303.95 104.25,-370.63 59.66,-395.45"/>
<polygon fill="midnightblue" stroke="midnightblue" points="278.87,-277.44 285.91,-269.51 275.47,-271.32 278.87,-277.44"/>
</g>
<!-- Node14 -->
<g id="node11" class="node">
<title>Node14</title>
<g id="a_node11"><a xlink:href="block__command__executor_8h.html#a8fc9800360fc4f594c23209a9fa5a516" target="_top" xlink:title=" ">
<polygon fill="white" stroke="black" points="423.5,-471.5 423.5,-490.5 577.5,-490.5 577.5,-471.5 423.5,-471.5"/>
<text text-anchor="middle" x="500.5" y="-478.5" font-family="Helvetica,sans-Serif" font-size="10.00">Cmd_BCE_COMBINE_BLOCK</text>
</a>
</g>
</g>
<!-- Node13&#45;&gt;Node14 -->
<g id="edge10" class="edge">
<title>Node13&#45;&gt;Node14</title>
<path fill="none" stroke="midnightblue" d="M827.83,-453.04C754.8,-459.3 648.89,-468.37 577.72,-474.47"/>
<polygon fill="midnightblue" stroke="midnightblue" points="828.24,-456.52 837.91,-452.18 827.65,-449.54 828.24,-456.52"/>
</g>
<!-- Node15 -->
<g id="node12" class="node">
<title>Node15</title>
<g id="a_node12"><a xlink:href="command__definitions_8c.html#aa375895192b16d8e7f0ff4545b54e6c4" target="_top" xlink:title="Cmd Tableのロード">
<polygon fill="white" stroke="black" points="247.5,-509.5 247.5,-528.5 360.5,-528.5 360.5,-509.5 247.5,-509.5"/>
<text text-anchor="middle" x="304" y="-516.5" font-family="Helvetica,sans-Serif" font-size="10.00">CA_load_cmd_table</text>
</a>
</g>
</g>
<!-- Node14&#45;&gt;Node15 -->
<g id="edge11" class="edge">
<title>Node14&#45;&gt;Node15</title>
<path fill="none" stroke="midnightblue" d="M440.69,-492.49C412.94,-497.91 380.21,-504.31 353.85,-509.46"/>
<polygon fill="midnightblue" stroke="midnightblue" points="441.53,-495.89 450.67,-490.54 440.18,-489.02 441.53,-495.89"/>
</g>
<!-- Node16 -->
<g id="node13" class="node">
<title>Node16</title>
<g id="a_node13"><a xlink:href="command__analyze_8h.html#ae6d1f376bf4e1c9c4b63bc3f04924c8a" target="_top" xlink:title="CA の初期化">
<polygon fill="white" stroke="black" points="121.5,-471.5 121.5,-490.5 198.5,-490.5 198.5,-471.5 121.5,-471.5"/>
<text text-anchor="middle" x="160" y="-478.5" font-family="Helvetica,sans-Serif" font-size="10.00">CA_initialize</text>
</a>
</g>
</g>
<!-- Node15&#45;&gt;Node16 -->
<g id="edge12" class="edge">
<title>Node15&#45;&gt;Node16</title>
<path fill="none" stroke="midnightblue" d="M257.51,-506.83C237.87,-501.57 215.23,-495.51 196.82,-490.59"/>
<polygon fill="midnightblue" stroke="midnightblue" points="256.6,-510.21 267.17,-509.41 258.41,-503.44 256.6,-510.21"/>
</g>
<!-- Node16&#45;&gt;Node9 -->
<g id="edge13" class="edge">
<title>Node16&#45;&gt;Node9</title>
<path fill="none" stroke="midnightblue" d="M135.61,-465.74C112.18,-450.46 76.86,-427.41 57.14,-414.55"/>
<polygon fill="midnightblue" stroke="midnightblue" points="133.96,-468.84 144.25,-471.37 137.78,-462.98 133.96,-468.84"/>
</g>
<!-- Node18 -->
<g id="node15" class="node">
<title>Node18</title>
<g id="a_node15"><a xlink:href="block__command__executor_8h.html#a7a537f68d3f291d25a6a4eae3f99cb45" target="_top" xlink:title=" ">
<polygon fill="white" stroke="black" points="643.5,-310.5 643.5,-329.5 788.5,-329.5 788.5,-310.5 643.5,-310.5"/>
<text text-anchor="middle" x="716" y="-317.5" font-family="Helvetica,sans-Serif" font-size="10.00">Cmd_BCE_ROTATE_BLOCK</text>
</a>
</g>
</g>
<!-- Node17&#45;&gt;Node18 -->
<g id="edge15" class="edge">
<title>Node17&#45;&gt;Node18</title>
<path fill="none" stroke="midnightblue" d="M833.7,-321.21C818.86,-321.06 803.36,-320.89 788.67,-320.74"/>
<polygon fill="midnightblue" stroke="midnightblue" points="833.81,-324.71 843.85,-321.31 833.89,-317.71 833.81,-324.71"/>
</g>
<!-- Node18&#45;&gt;Node15 -->
<g id="edge16" class="edge">
<title>Node18&#45;&gt;Node15</title>
<path fill="none" stroke="midnightblue" d="M663.12,-308.65C598.01,-297.4 485.4,-288.11 407,-337 341.23,-378.01 314.14,-477.64 307.02,-509.22"/>
<polygon fill="midnightblue" stroke="midnightblue" points="662.68,-312.13 673.14,-310.46 663.93,-305.24 662.68,-312.13"/>
</g>
<!-- Node20 -->
<g id="node17" class="node">
<title>Node20</title>
<g id="a_node17"><a xlink:href="block__command__executor_8h.html#a33ee70475b35e5606d83857c5843d29a" target="_top" xlink:title=" ">
<polygon fill="white" stroke="black" points="630.5,-488 630.5,-518 801.5,-518 801.5,-488 630.5,-488"/>
<text text-anchor="start" x="638.5" y="-506" font-family="Helvetica,sans-Serif" font-size="10.00">Cmd_BCE_TIMELIMIT_COMBINE</text>
<text text-anchor="middle" x="716" y="-495" font-family="Helvetica,sans-Serif" font-size="10.00">_BLOCK</text>
</a>
</g>
</g>
<!-- Node19&#45;&gt;Node20 -->
<g id="edge18" class="edge">
<title>Node19&#45;&gt;Node20</title>
<path fill="none" stroke="midnightblue" d="M833.56,-503C823.13,-503 812.38,-503 801.82,-503"/>
<polygon fill="midnightblue" stroke="midnightblue" points="833.85,-506.5 843.85,-503 833.85,-499.5 833.85,-506.5"/>
</g>
<!-- Node20&#45;&gt;Node15 -->
<g id="edge19" class="edge">
<title>Node20&#45;&gt;Node15</title>
<path fill="none" stroke="midnightblue" d="M619.92,-506.71C539.55,-509.85 427.17,-514.23 360.66,-516.83"/>
<polygon fill="midnightblue" stroke="midnightblue" points="620.19,-510.2 630.05,-506.32 619.92,-503.21 620.19,-510.2"/>
</g>
<!-- Node22 -->
<g id="node19" class="node">
<title>Node22</title>
<g id="a_node19"><a xlink:href="di__aobc_8c.html#ac2b0fb03e89d75b82419d4ad53202f8b" target="_top" xlink:title=" ">
<polygon fill="white" stroke="black" points="642,-155.5 642,-174.5 790,-174.5 790,-155.5 642,-155.5"/>
<text text-anchor="middle" x="716" y="-162.5" font-family="Helvetica,sans-Serif" font-size="10.00">DI_AOBC_cmd_dispatcher_</text>
</a>
</g>
</g>
<!-- Node21&#45;&gt;Node22 -->
<g id="edge21" class="edge">
<title>Node21&#45;&gt;Node22</title>
<path fill="none" stroke="midnightblue" d="M830.72,-176.2C817.32,-174.88 803.46,-173.51 790.21,-172.21"/>
<polygon fill="midnightblue" stroke="midnightblue" points="830.57,-179.7 840.87,-177.19 831.26,-172.73 830.57,-179.7"/>
</g>
<!-- Node24 -->
<g id="node21" class="node">
<title>Node24</title>
<g id="a_node21"><a xlink:href="gs__command__dispatcher_8c.html#a4fe4cfc8c0f816a286dc50d8797cef54" target="_top" xlink:title="GSCD App 実行関数">
<polygon fill="white" stroke="black" points="668,-231.5 668,-250.5 764,-250.5 764,-231.5 668,-231.5"/>
<text text-anchor="middle" x="716" y="-238.5" font-family="Helvetica,sans-Serif" font-size="10.00">GSCD_dispatch_</text>
</a>
</g>
</g>
<!-- Node21&#45;&gt;Node24 -->
<g id="edge23" class="edge">
<title>Node21&#45;&gt;Node24</title>
<path fill="none" stroke="midnightblue" d="M875.91,-197.16C854.82,-205.01 827.07,-214.81 802,-222 789.79,-225.5 776.44,-228.75 764.02,-231.53"/>
<polygon fill="midnightblue" stroke="midnightblue" points="877.26,-200.39 885.39,-193.6 874.8,-193.84 877.26,-200.39"/>
</g>
<!-- Node26 -->
<g id="node23" class="node">
<title>Node26</title>
<g id="a_node23"><a xlink:href="realtime__command__dispatcher_8c.html#aa66b7d158969999a789dc69d2d5b1b7d" target="_top" xlink:title=" ">
<polygon fill="white" stroke="black" points="669,-193.5 669,-212.5 763,-212.5 763,-193.5 669,-193.5"/>
<text text-anchor="middle" x="716" y="-200.5" font-family="Helvetica,sans-Serif" font-size="10.00">RTCD_dispatch_</text>
</a>
</g>
</g>
<!-- Node21&#45;&gt;Node26 -->
<g id="edge26" class="edge">
<title>Node21&#45;&gt;Node26</title>
<path fill="none" stroke="midnightblue" d="M830.75,-191.8C807.71,-194.07 783.31,-196.47 763.05,-198.47"/>
<polygon fill="midnightblue" stroke="midnightblue" points="831.26,-195.27 840.87,-190.81 830.57,-188.3 831.26,-195.27"/>
</g>
<!-- Node28 -->
<g id="node25" class="node">
<title>Node28</title>
<g id="a_node25"><a xlink:href="task__dispatcher_8h.html#ac880fe6e26ecdf8711d08980cad6787d" target="_top" xlink:title="現在時刻に応じて、TaskList から Cmd を一つ実行する or TaskList を再展開する">
<polygon fill="white" stroke="black" points="658,-106 658,-136 774,-136 774,-106 658,-106"/>
<text text-anchor="start" x="666" y="-124" font-family="Helvetica,sans-Serif" font-size="10.00">TDSP_execute_pl_as</text>
<text text-anchor="middle" x="716" y="-113" font-family="Helvetica,sans-Serif" font-size="10.00">_task_list</text>
</a>
</g>
</g>
<!-- Node21&#45;&gt;Node28 -->
<g id="edge29" class="edge">
<title>Node21&#45;&gt;Node28</title>
<path fill="none" stroke="midnightblue" d="M874.47,-170.97C853.48,-163.41 826.33,-153.85 802,-146 791.61,-142.65 780.44,-139.23 769.73,-136.04"/>
<polygon fill="midnightblue" stroke="midnightblue" points="873.35,-174.29 883.94,-174.4 875.73,-167.71 873.35,-174.29"/>
</g>
<!-- Node31 -->
<g id="node27" class="node">
<title>Node31</title>
<g id="a_node27"><a xlink:href="timeline__command__dispatcher_8c.html#a81ac915e803ac30a27f6488af9ce45ad" target="_top" xlink:title=" ">
<polygon fill="white" stroke="black" points="671,-53.5 671,-72.5 761,-72.5 761,-53.5 671,-53.5"/>
<text text-anchor="middle" x="716" y="-60.5" font-family="Helvetica,sans-Serif" font-size="10.00">tlc_dispatcher_</text>
</a>
</g>
</g>
<!-- Node21&#45;&gt;Node31 -->
<g id="edge31" class="edge">
<title>Node21&#45;&gt;Node31</title>
<path fill="none" stroke="midnightblue" d="M893.16,-167.41C872.92,-148.18 837.25,-116.51 802,-96 785.17,-86.21 764.89,-78.21 748.36,-72.54"/>
<polygon fill="midnightblue" stroke="midnightblue" points="890.74,-169.94 900.37,-174.35 895.6,-164.9 890.74,-169.94"/>
</g>
<!-- Node23 -->
<g id="node20" class="node">
<title>Node23</title>
<g id="a_node20"><a xlink:href="di__aobc_8h.html#a22b846ecf2fe48c7bff4f2c10f2bc284" target="_top" xlink:title="AOBC cmd dispatcher アプリ生成関数">
<polygon fill="white" stroke="black" points="429,-155.5 429,-174.5 572,-174.5 572,-155.5 429,-155.5"/>
<text text-anchor="middle" x="500.5" y="-162.5" font-family="Helvetica,sans-Serif" font-size="10.00">DI_AOBC_cmd_dispatcher</text>
</a>
</g>
</g>
<!-- Node22&#45;&gt;Node23 -->
<g id="edge22" class="edge">
<title>Node22&#45;&gt;Node23</title>
<path fill="none" stroke="midnightblue" d="M631.64,-165C611.94,-165 591.12,-165 572.06,-165"/>
<polygon fill="midnightblue" stroke="midnightblue" points="631.82,-168.5 641.82,-165 631.82,-161.5 631.82,-168.5"/>
</g>
<!-- Node25 -->
<g id="node22" class="node">
<title>Node25</title>
<g id="a_node22"><a xlink:href="gs__command__dispatcher_8h.html#a0195f703ab1a606ae7541ef886e609bc" target="_top" xlink:title="GSCD App 生成関数">
<polygon fill="white" stroke="black" points="448.5,-231.5 448.5,-250.5 552.5,-250.5 552.5,-231.5 448.5,-231.5"/>
<text text-anchor="middle" x="500.5" y="-238.5" font-family="Helvetica,sans-Serif" font-size="10.00">GSCD_create_app</text>
</a>
</g>
</g>
<!-- Node24&#45;&gt;Node25 -->
<g id="edge24" class="edge">
<title>Node24&#45;&gt;Node25</title>
<path fill="none" stroke="midnightblue" d="M657.56,-241C624.84,-241 584.21,-241 552.6,-241"/>
<polygon fill="midnightblue" stroke="midnightblue" points="657.88,-244.5 667.88,-241 657.88,-237.5 657.88,-244.5"/>
</g>
<!-- Node25&#45;&gt;Node8 -->
<g id="edge25" class="edge">
<title>Node25&#45;&gt;Node8</title>
<path fill="none" stroke="midnightblue" d="M438.17,-246.99C416.84,-249.07 392.84,-251.42 371.15,-253.54"/>
<polygon fill="midnightblue" stroke="midnightblue" points="438.79,-250.45 448.4,-245.99 438.1,-243.48 438.79,-250.45"/>
</g>
<!-- Node27 -->
<g id="node24" class="node">
<title>Node27</title>
<g id="a_node24"><a xlink:href="realtime__command__dispatcher_8h.html#a6de82e8f79b0281c403be56abfaec6ba" target="_top" xlink:title=" ">
<polygon fill="white" stroke="black" points="450,-193.5 450,-212.5 551,-212.5 551,-193.5 450,-193.5"/>
<text text-anchor="middle" x="500.5" y="-200.5" font-family="Helvetica,sans-Serif" font-size="10.00">RTCD_create_app</text>
</a>
</g>
</g>
<!-- Node26&#45;&gt;Node27 -->
<g id="edge27" class="edge">
<title>Node26&#45;&gt;Node27</title>
<path fill="none" stroke="midnightblue" d="M658.86,-203C625.44,-203 583.42,-203 551.2,-203"/>
<polygon fill="midnightblue" stroke="midnightblue" points="658.94,-206.5 668.94,-203 658.94,-199.5 658.94,-206.5"/>
</g>
<!-- Node27&#45;&gt;Node8 -->
<g id="edge28" class="edge">
<title>Node27&#45;&gt;Node8</title>
<path fill="none" stroke="midnightblue" d="M439.76,-213.86C428.79,-216.25 417.5,-218.99 407,-222 379.21,-229.98 348.2,-241.99 327.75,-250.37"/>
<polygon fill="midnightblue" stroke="midnightblue" points="440.65,-217.25 449.71,-211.76 439.2,-210.4 440.65,-217.25"/>
</g>
<!-- Node29 -->
<g id="node26" class="node">
<title>Node29</title>
<g id="a_node26"><a xlink:href="c2a__core__main_8h.html#a64e3c69d223ce8236ab718278b17b195" target="_top" xlink:title=" ">
<polygon fill="white" stroke="red" points="454.5,-114.5 454.5,-133.5 546.5,-133.5 546.5,-114.5 454.5,-114.5"/>
<text text-anchor="middle" x="500.5" y="-121.5" font-family="Helvetica,sans-Serif" font-size="10.00">C2A_core_main</text>
</a>
</g>
</g>
<!-- Node28&#45;&gt;Node29 -->
<g id="edge30" class="edge">
<title>Node28&#45;&gt;Node29</title>
<path fill="none" stroke="midnightblue" d="M647.77,-121.94C614.83,-122.41 576.04,-122.95 546.69,-123.36"/>
<polygon fill="midnightblue" stroke="midnightblue" points="647.84,-125.44 657.79,-121.8 647.74,-118.44 647.84,-125.44"/>
</g>
<!-- Node32 -->
<g id="node28" class="node">
<title>Node32</title>
<g id="a_node28"><a xlink:href="timeline__command__dispatcher_8c.html#a901708d936509614c56fe989ec93c9ad" target="_top" xlink:title=" ">
<polygon fill="white" stroke="red" points="450.5,-0.5 450.5,-19.5 550.5,-19.5 550.5,-0.5 450.5,-0.5"/>
<text text-anchor="middle" x="500.5" y="-7.5" font-family="Helvetica,sans-Serif" font-size="10.00">TLCD0_dispatch_</text>
</a>
</g>
</g>
<!-- Node31&#45;&gt;Node32 -->
<g id="edge32" class="edge">
<title>Node31&#45;&gt;Node32</title>
<path fill="none" stroke="midnightblue" d="M673.44,-50.53C650.18,-43.75 620.6,-35.46 594,-29 579.98,-25.6 564.67,-22.29 550.61,-19.41"/>
<polygon fill="midnightblue" stroke="midnightblue" points="672.74,-53.97 683.32,-53.43 674.71,-47.26 672.74,-53.97"/>
</g>
<!-- Node34 -->
<g id="node29" class="node">
<title>Node34</title>
<g id="a_node29"><a xlink:href="timeline__command__dispatcher_8c.html#aff4f663a7670bf6eb1be99911bd5cf79" target="_top" xlink:title=" ">
<polygon fill="white" stroke="red" points="450.5,-76.5 450.5,-95.5 550.5,-95.5 550.5,-76.5 450.5,-76.5"/>
<text text-anchor="middle" x="500.5" y="-83.5" font-family="Helvetica,sans-Serif" font-size="10.00">TLCD1_dispatch_</text>
</a>
</g>
</g>
<!-- Node31&#45;&gt;Node34 -->
<g id="edge33" class="edge">
<title>Node31&#45;&gt;Node34</title>
<path fill="none" stroke="midnightblue" d="M660.56,-68.86C626.64,-72.52 583.37,-77.18 550.53,-80.72"/>
<polygon fill="midnightblue" stroke="midnightblue" points="661.2,-72.32 670.76,-67.77 660.45,-65.36 661.2,-72.32"/>
</g>
<!-- Node36 -->
<g id="node30" class="node">
<title>Node36</title>
<g id="a_node30"><a xlink:href="timeline__command__dispatcher_8c.html#aa498bfb7d65299eb0327e26591b69fa4" target="_top" xlink:title=" ">
<polygon fill="white" stroke="red" points="450.5,-38.5 450.5,-57.5 550.5,-57.5 550.5,-38.5 450.5,-38.5"/>
<text text-anchor="middle" x="500.5" y="-45.5" font-family="Helvetica,sans-Serif" font-size="10.00">TLCD2_dispatch_</text>
</a>
</g>
</g>
<!-- Node31&#45;&gt;Node36 -->
<g id="edge34" class="edge">
<title>Node31&#45;&gt;Node36</title>
<path fill="none" stroke="midnightblue" d="M660.56,-59.18C626.64,-56.79 583.37,-53.75 550.53,-51.44"/>
<polygon fill="midnightblue" stroke="midnightblue" points="660.54,-62.68 670.76,-59.89 661.03,-55.7 660.54,-62.68"/>
</g>
<!-- Node39 -->
<g id="node32" class="node">
<title>Node39</title>
<g id="a_node32"><a xlink:href="event__handler_8c.html#ac7461e79109f06783e2c620a6d999a6b" target="_top" xlink:title="EH の対応条件をチェックし， EL_Event に対応する">
<polygon fill="white" stroke="black" points="635.5,-352.5 635.5,-371.5 796.5,-371.5 796.5,-352.5 635.5,-352.5"/>
<text text-anchor="middle" x="716" y="-359.5" font-family="Helvetica,sans-Serif" font-size="10.00">EH_check_rule_and_respond_</text>
</a>
</g>
</g>
<!-- Node38&#45;&gt;Node39 -->
<g id="edge36" class="edge">
<title>Node38&#45;&gt;Node39</title>
<path fill="none" stroke="midnightblue" d="M860.79,-362.75C841.3,-362.64 818.39,-362.53 796.66,-362.41"/>
<polygon fill="midnightblue" stroke="midnightblue" points="860.93,-366.25 870.94,-362.8 860.96,-359.25 860.93,-366.25"/>
</g>
<!-- Node40 -->
<g id="node33" class="node">
<title>Node40</title>
<g id="a_node33"><a xlink:href="event__handler_8c.html#a227ed3b7079c58dee50a81ce408549a2" target="_top" xlink:title="EL_Event に対応する EH_Rule が存在するかチェックし，対応する">
<polygon fill="white" stroke="red" points="440.5,-346 440.5,-376 560.5,-376 560.5,-346 440.5,-346"/>
<text text-anchor="start" x="448.5" y="-364" font-family="Helvetica,sans-Serif" font-size="10.00">EH_check_event_and</text>
<text text-anchor="middle" x="500.5" y="-353" font-family="Helvetica,sans-Serif" font-size="10.00">_respond_</text>
</a>
</g>
</g>
<!-- Node39&#45;&gt;Node40 -->
<g id="edge37" class="edge">
<title>Node39&#45;&gt;Node40</title>
<path fill="none" stroke="midnightblue" d="M624.94,-361.58C603.18,-361.48 580.47,-361.37 560.54,-361.28"/>
<polygon fill="midnightblue" stroke="midnightblue" points="625.18,-365.08 635.2,-361.63 625.21,-358.08 625.18,-365.08"/>
</g>
<!-- Node47 -->
<g id="node35" class="node">
<title>Node47</title>
<g id="a_node35"><a xlink:href="mode__manager_8c.html#ae4381c1c84d8b5d8aa033e522530436d" target="_top" xlink:title="Cmd_MM_START_TRANSITIONの実体">
<polygon fill="white" stroke="black" points="656.5,-395.5 656.5,-414.5 775.5,-414.5 775.5,-395.5 656.5,-395.5"/>
<text text-anchor="middle" x="716" y="-402.5" font-family="Helvetica,sans-Serif" font-size="10.00">MM_start_transition_</text>
</a>
</g>
</g>
<!-- Node46&#45;&gt;Node47 -->
<g id="edge39" class="edge">
<title>Node46&#45;&gt;Node47</title>
<path fill="none" stroke="midnightblue" d="M832.64,-403.2C813.63,-403.5 793.59,-403.81 775.63,-404.09"/>
<polygon fill="midnightblue" stroke="midnightblue" points="832.82,-406.7 842.77,-403.05 832.72,-399.7 832.82,-406.7"/>
</g>
<!-- Node48 -->
<g id="node36" class="node">
<title>Node48</title>
<g id="a_node36"><a xlink:href="mode__manager_8h.html#ab54a8f93c525edc7f7f2283ad94af267" target="_top" xlink:title="モード遷移を開始するコマンド">
<polygon fill="white" stroke="black" points="419,-433.5 419,-452.5 582,-452.5 582,-433.5 419,-433.5"/>
<text text-anchor="middle" x="500.5" y="-440.5" font-family="Helvetica,sans-Serif" font-size="10.00">Cmd_MM_START_TRANSITION</text>
</a>
</g>
</g>
<!-- Node47&#45;&gt;Node48 -->
<g id="edge40" class="edge">
<title>Node47&#45;&gt;Node48</title>
<path fill="none" stroke="midnightblue" d="M651.25,-416.35C620.62,-421.8 584.31,-428.26 555.12,-433.46"/>
<polygon fill="midnightblue" stroke="midnightblue" points="652.17,-419.74 661.4,-414.54 650.94,-412.85 652.17,-419.74"/>
</g>
<!-- Node49 -->
<g id="node37" class="node">
<title>Node49</title>
<g id="a_node37"><a xlink:href="mode__manager_8h.html#a89fbf516698fe6c690438e21ec8efd82" target="_top" xlink:title="モード遷移を管理する ModeManager 構造体 (mode_manager_) の初期化">
<polygon fill="white" stroke="black" points="119,-395.5 119,-414.5 201,-414.5 201,-395.5 119,-395.5"/>
<text text-anchor="middle" x="160" y="-402.5" font-family="Helvetica,sans-Serif" font-size="10.00">MM_initialize</text>
</a>
</g>
</g>
<!-- Node47&#45;&gt;Node49 -->
<g id="edge42" class="edge">
<title>Node47&#45;&gt;Node49</title>
<path fill="none" stroke="midnightblue" d="M646.23,-405C529.16,-405 294.74,-405 201.04,-405"/>
<polygon fill="midnightblue" stroke="midnightblue" points="646.5,-408.5 656.5,-405 646.5,-401.5 646.5,-408.5"/>
</g>
<!-- Node48&#45;&gt;Node15 -->
<g id="edge41" class="edge">
<title>Node48&#45;&gt;Node15</title>
<path fill="none" stroke="midnightblue" d="M429.7,-454.93C421.95,-456.96 414.24,-459.31 407,-462 373.54,-474.45 337.87,-496.72 318.85,-509.43"/>
<polygon fill="midnightblue" stroke="midnightblue" points="430.65,-458.3 439.53,-452.52 428.98,-451.5 430.65,-458.3"/>
</g>
<!-- Node49&#45;&gt;Node9 -->
<g id="edge43" class="edge">
<title>Node49&#45;&gt;Node9</title>
<path fill="none" stroke="midnightblue" d="M108.65,-405C100.1,-405 91.32,-405 83.06,-405"/>
<polygon fill="midnightblue" stroke="midnightblue" points="108.91,-408.5 118.91,-405 108.91,-401.5 108.91,-408.5"/>
</g>
<!-- Node51 -->
<g id="node39" class="node">
<title>Node51</title>
<g id="a_node39"><a xlink:href="packet__handler_8h.html#a9d16c8b958f0f983cf15674d6c528b02" target="_top" xlink:title="CCP を解析する">
<polygon fill="white" stroke="black" points="842.5,-642.5 842.5,-661.5 979.5,-661.5 979.5,-642.5 842.5,-642.5"/>
<text text-anchor="middle" x="911" y="-649.5" font-family="Helvetica,sans-Serif" font-size="10.00">PH_analyze_cmd_packet</text>
</a>
</g>
</g>
<!-- Node50&#45;&gt;Node51 -->
<g id="edge45" class="edge">
<title>Node50&#45;&gt;Node51</title>
<path fill="none" stroke="midnightblue" d="M1370.2,-540.95C1269.69,-565.31 1042.88,-620.28 951.38,-642.46"/>
<polygon fill="midnightblue" stroke="midnightblue" points="1371.21,-544.31 1380.1,-538.55 1369.56,-537.5 1371.21,-544.31"/>
</g>
<!-- Node52 -->
<g id="node40" class="node">
<title>Node52</title>
<g id="a_node40"><a xlink:href="telemetry__manager_8h.html#a923d6ea9078726984798c4b0800381fe" target="_top" xlink:title="TLM送出用TLをクリア">
<polygon fill="white" stroke="black" points="630,-661.5 630,-680.5 802,-680.5 802,-661.5 630,-661.5"/>
<text text-anchor="middle" x="716" y="-668.5" font-family="Helvetica,sans-Serif" font-size="10.00">Cmd_TLM_MGR_CLEAR_TLM_TL</text>
</a>
</g>
</g>
<!-- Node51&#45;&gt;Node52 -->
<g id="edge46" class="edge">
<title>Node51&#45;&gt;Node52</title>
<path fill="none" stroke="midnightblue" d="M832.27,-659.65C822.35,-660.63 812.14,-661.63 802.11,-662.62"/>
<polygon fill="midnightblue" stroke="midnightblue" points="832.89,-663.11 842.5,-658.65 832.2,-656.14 832.89,-663.11"/>
</g>
<!-- Node53 -->
<g id="node41" class="node">
<title>Node53</title>
<g id="a_node41"><a xlink:href="telemetry__manager_8h.html#ad6f65df0da86f70cbd0f5b1e6cb32dbc" target="_top" xlink:title="TLM送出開始">
<polygon fill="white" stroke="black" points="639,-623.5 639,-642.5 793,-642.5 793,-623.5 639,-623.5"/>
<text text-anchor="middle" x="716" y="-630.5" font-family="Helvetica,sans-Serif" font-size="10.00">Cmd_TLM_MGR_START_TLM</text>
</a>
</g>
</g>
<!-- Node51&#45;&gt;Node53 -->
<g id="edge48" class="edge">
<title>Node51&#45;&gt;Node53</title>
<path fill="none" stroke="midnightblue" d="M832.25,-644.35C819.32,-643.07 805.93,-641.75 793.04,-640.49"/>
<polygon fill="midnightblue" stroke="midnightblue" points="832.2,-647.86 842.5,-645.35 832.89,-640.89 832.2,-647.86"/>
</g>
<!-- Node54 -->
<g id="node42" class="node">
<title>Node54</title>
<g id="a_node42"><a xlink:href="divided__cmd__utility_8h.html#a65ad0b8aa0af1c9c0bdd74aa37b15b15" target="_top" xlink:title="次の分割の実行を登録">
<polygon fill="white" stroke="black" points="662,-585.5 662,-604.5 770,-604.5 770,-585.5 662,-585.5"/>
<text text-anchor="middle" x="716" y="-592.5" font-family="Helvetica,sans-Serif" font-size="10.00">DCU_register_next</text>
</a>
</g>
</g>
<!-- Node51&#45;&gt;Node54 -->
<g id="edge50" class="edge">
<title>Node51&#45;&gt;Node54</title>
<path fill="none" stroke="midnightblue" d="M875.91,-638.84C854.82,-630.99 827.07,-621.19 802,-614 789.94,-610.54 776.76,-607.33 764.46,-604.57"/>
<polygon fill="midnightblue" stroke="midnightblue" points="874.8,-642.16 885.39,-642.4 877.26,-635.61 874.8,-642.16"/>
</g>
<!-- Node57 -->
<g id="node45" class="node">
<title>Node57</title>
<g id="a_node45"><a xlink:href="gs_8c.html#a71a6268f1b467c60429c671e47e51e1d" target="_top" xlink:title="地上からの受信データ解析関数">
<polygon fill="white" stroke="black" points="653,-737.5 653,-756.5 779,-756.5 779,-737.5 653,-737.5"/>
<text text-anchor="middle" x="716" y="-744.5" font-family="Helvetica,sans-Serif" font-size="10.00">GS_analyze_rec_data_</text>
</a>
</g>
</g>
<!-- Node51&#45;&gt;Node57 -->
<g id="edge55" class="edge">
<title>Node51&#45;&gt;Node57</title>
<path fill="none" stroke="midnightblue" d="M891.96,-668.11C871.56,-685.47 836.64,-712.67 802,-728 793.29,-731.85 783.72,-734.96 774.24,-737.46"/>
<polygon fill="midnightblue" stroke="midnightblue" points="894.27,-670.74 899.53,-661.55 889.68,-665.45 894.27,-670.74"/>
</g>
<!-- Node65 -->
<g id="node50" class="node">
<title>Node65</title>
<g id="a_node50"><a xlink:href="packet__handler_8h.html#acf757fa72967bf66b39dc5ced7132330" target="_top" xlink:title="CTCP を解析する">
<polygon fill="white" stroke="black" points="660.5,-699.5 660.5,-718.5 771.5,-718.5 771.5,-699.5 660.5,-699.5"/>
<text text-anchor="middle" x="716" y="-706.5" font-family="Helvetica,sans-Serif" font-size="10.00">PH_analyze_packet</text>
</a>
</g>
</g>
<!-- Node51&#45;&gt;Node65 -->
<g id="edge61" class="edge">
<title>Node51&#45;&gt;Node65</title>
<path fill="none" stroke="midnightblue" d="M875.91,-665.16C854.82,-673.01 827.07,-682.81 802,-690 789.94,-693.46 776.76,-696.67 764.46,-699.43"/>
<polygon fill="midnightblue" stroke="midnightblue" points="877.26,-668.39 885.39,-661.6 874.8,-661.84 877.26,-668.39"/>
</g>
<!-- Node52&#45;&gt;Node15 -->
<g id="edge47" class="edge">
<title>Node52&#45;&gt;Node15</title>
<path fill="none" stroke="midnightblue" d="M619.92,-680.75C556.15,-683.03 472.21,-677.49 407,-643 356.49,-616.28 321.47,-552.84 309.52,-528.62"/>
<polygon fill="midnightblue" stroke="midnightblue" points="620.14,-684.24 629.98,-680.32 619.84,-677.25 620.14,-684.24"/>
</g>
<!-- Node53&#45;&gt;Node15 -->
<g id="edge49" class="edge">
<title>Node53&#45;&gt;Node15</title>
<path fill="none" stroke="midnightblue" d="M628.9,-642.85C565.07,-646.62 477.32,-644.21 407,-614 362.98,-595.09 326.03,-548.6 311.56,-528.51"/>
<polygon fill="midnightblue" stroke="midnightblue" points="629.18,-646.34 638.93,-642.19 628.73,-639.35 629.18,-646.34"/>
</g>
<!-- Node55 -->
<g id="node43" class="node">
<title>Node55</title>
<g id="a_node43"><a xlink:href="telemetry__manager_8h.html#af76453743bae7b361005376190100cbf" target="_top" xlink:title="high_freq_tlm, low_freq_tlm を初期化">
<polygon fill="white" stroke="black" points="407,-547.5 407,-566.5 594,-566.5 594,-547.5 407,-547.5"/>
<text text-anchor="middle" x="500.5" y="-554.5" font-family="Helvetica,sans-Serif" font-size="10.00">Cmd_TLM_MGR_CLEAR_USER_TLM</text>
</a>
</g>
</g>
<!-- Node54&#45;&gt;Node55 -->
<g id="edge51" class="edge">
<title>Node54&#45;&gt;Node55</title>
<path fill="none" stroke="midnightblue" d="M651.76,-583.74C620.98,-578.27 584.39,-571.75 555.02,-566.53"/>
<polygon fill="midnightblue" stroke="midnightblue" points="651.49,-587.25 661.95,-585.56 652.72,-580.36 651.49,-587.25"/>
</g>
<!-- Node56 -->
<g id="node44" class="node">
<title>Node56</title>
<g id="a_node44"><a xlink:href="telemetry__manager_8h.html#a19d6e76042721fe9e576dbacaf49b365" target="_top" xlink:title="初期化">
<polygon fill="white" stroke="black" points="441.5,-585.5 441.5,-604.5 559.5,-604.5 559.5,-585.5 441.5,-585.5"/>
<text text-anchor="middle" x="500.5" y="-592.5" font-family="Helvetica,sans-Serif" font-size="10.00">Cmd_TLM_MGR_INIT</text>
</a>
</g>
</g>
<!-- Node54&#45;&gt;Node56 -->
<g id="edge53" class="edge">
<title>Node54&#45;&gt;Node56</title>
<path fill="none" stroke="midnightblue" d="M651.85,-595C622.61,-595 588.1,-595 559.53,-595"/>
<polygon fill="midnightblue" stroke="midnightblue" points="651.95,-598.5 661.95,-595 651.95,-591.5 651.95,-598.5"/>
</g>
<!-- Node55&#45;&gt;Node15 -->
<g id="edge52" class="edge">
<title>Node55&#45;&gt;Node15</title>
<path fill="none" stroke="midnightblue" d="M440.69,-545.51C412.94,-540.09 380.21,-533.69 353.85,-528.54"/>
<polygon fill="midnightblue" stroke="midnightblue" points="440.18,-548.98 450.67,-547.46 441.53,-542.11 440.18,-548.98"/>
</g>
<!-- Node56&#45;&gt;Node15 -->
<g id="edge54" class="edge">
<title>Node56&#45;&gt;Node15</title>
<path fill="none" stroke="midnightblue" d="M431.64,-583.57C423.23,-581.43 414.84,-578.92 407,-576 373.54,-563.55 337.87,-541.28 318.85,-528.57"/>
<polygon fill="midnightblue" stroke="midnightblue" points="430.95,-587.01 441.49,-585.93 432.58,-580.2 430.95,-587.01"/>
</g>
<!-- Node58 -->
<g id="node46" class="node">
<title>Node58</title>
<g id="a_node46"><a xlink:href="gs_8c.html#a77d8b5e22b2b2615c9046060e50a3308" target="_top" xlink:title="上記初期化の共通部分をまとめた関数">
<polygon fill="white" stroke="black" points="435.5,-732 435.5,-762 565.5,-762 565.5,-732 435.5,-732"/>
<text text-anchor="start" x="443.5" y="-750" font-family="Helvetica,sans-Serif" font-size="10.00">GS_load_default_driver</text>
<text text-anchor="middle" x="500.5" y="-739" font-family="Helvetica,sans-Serif" font-size="10.00">_super_init_settings_</text>
</a>
</g>
</g>
<!-- Node57&#45;&gt;Node58 -->
<g id="edge56" class="edge">
<title>Node57&#45;&gt;Node58</title>
<path fill="none" stroke="midnightblue" d="M642.79,-747C617.76,-747 589.88,-747 565.55,-747"/>
<polygon fill="midnightblue" stroke="midnightblue" points="642.96,-750.5 652.96,-747 642.96,-743.5 642.96,-750.5"/>
</g>
<!-- Node59 -->
<g id="node47" class="node">
<title>Node59</title>
<g id="a_node47"><a xlink:href="gs_8c.html#a4621f4390191b12c281982f635516f67" target="_top" xlink:title="CCSDS 側 Driver の DS 上での初期化設定">
<polygon fill="white" stroke="black" points="243,-756 243,-786 365,-786 365,-756 243,-756"/>
<text text-anchor="start" x="251" y="-774" font-family="Helvetica,sans-Serif" font-size="10.00">GS_load_ccsds_driver</text>
<text text-anchor="middle" x="304" y="-763" font-family="Helvetica,sans-Serif" font-size="10.00">_super_init_settings_</text>
</a>
</g>
</g>
<!-- Node58&#45;&gt;Node59 -->
<g id="edge57" class="edge">
<title>Node58&#45;&gt;Node59</title>
<path fill="none" stroke="midnightblue" d="M425.34,-756.15C405.46,-758.6 384.22,-761.22 365.2,-763.57"/>
<polygon fill="midnightblue" stroke="midnightblue" points="425.78,-759.62 435.27,-754.93 424.92,-752.68 425.78,-759.62"/>
</g>
<!-- Node64 -->
<g id="node49" class="node">
<title>Node64</title>
<g id="a_node49"><a xlink:href="gs_8c.html#a940de224a6d318a15603b46983cf69ea" target="_top" xlink:title="UART 側 Driver の DS 上での初期化設定">
<polygon fill="white" stroke="black" points="244.5,-707 244.5,-737 363.5,-737 363.5,-707 244.5,-707"/>
<text text-anchor="start" x="252.5" y="-725" font-family="Helvetica,sans-Serif" font-size="10.00">GS_load_uart_driver</text>
<text text-anchor="middle" x="304" y="-714" font-family="Helvetica,sans-Serif" font-size="10.00">_super_init_settings_</text>
</a>
</g>
</g>
<!-- Node58&#45;&gt;Node64 -->
<g id="edge59" class="edge">
<title>Node58&#45;&gt;Node64</title>
<path fill="none" stroke="midnightblue" d="M425.09,-737.44C404.72,-734.82 382.93,-732.02 363.58,-729.53"/>
<polygon fill="midnightblue" stroke="midnightblue" points="424.91,-740.94 435.27,-738.74 425.8,-734 424.91,-740.94"/>
</g>
<!-- Node60 -->
<g id="node48" class="node">
<title>Node60</title>
<g id="a_node48"><a xlink:href="gs_8h.html#a3cda832b6c75f514dfb566fa49b59127" target="_top" xlink:title="Driver の初期化">
<polygon fill="white" stroke="red" points="134.5,-736.5 134.5,-755.5 185.5,-755.5 185.5,-736.5 134.5,-736.5"/>
<text text-anchor="middle" x="160" y="-743.5" font-family="Helvetica,sans-Serif" font-size="10.00">GS_init</text>
</a>
</g>
</g>
<!-- Node59&#45;&gt;Node60 -->
<g id="edge58" class="edge">
<title>Node59&#45;&gt;Node60</title>
<path fill="none" stroke="midnightblue" d="M232.82,-758.64C215.83,-755.65 198.79,-752.65 185.57,-750.33"/>
<polygon fill="midnightblue" stroke="midnightblue" points="232.32,-762.11 242.78,-760.4 233.54,-755.22 232.32,-762.11"/>
</g>
<!-- Node64&#45;&gt;Node60 -->
<g id="edge60" class="edge">
<title>Node64&#45;&gt;Node60</title>
<path fill="none" stroke="midnightblue" d="M234.26,-733.62C216.92,-736.55 199.39,-739.51 185.83,-741.8"/>
<polygon fill="midnightblue" stroke="midnightblue" points="235.15,-737.02 244.42,-731.9 233.98,-730.12 235.15,-737.02"/>
</g>
</g>
</svg>
