<?xml version="1.0" encoding="UTF-8" standalone="no"?>
<!DOCTYPE svg PUBLIC "-//W3C//DTD SVG 1.1//EN"
 "http://www.w3.org/Graphics/SVG/1.1/DTD/svg11.dtd">
<!-- Generated by graphviz version 2.43.0 (0)
 -->
<!-- Title: CTP_get_packet_len Pages: 1 -->
<svg width="1952pt" height="375pt"
 viewBox="0.00 0.00 1952.00 374.50" xmlns="http://www.w3.org/2000/svg" xmlns:xlink="http://www.w3.org/1999/xlink">
<g id="graph0" class="graph" transform="scale(1 1) rotate(0) translate(4 370.5)">
<title>CTP_get_packet_len</title>
<polygon fill="white" stroke="transparent" points="-4,4 -4,-370.5 1948,-370.5 1948,4 -4,4"/>
<!-- Node1 -->
<g id="node1" class="node">
<title>Node1</title>
<g id="a_node1"><a xlink:title="パケット長を取得">
<polygon fill="#bfbfbf" stroke="black" points="1830,-214.5 1830,-233.5 1944,-233.5 1944,-214.5 1830,-214.5"/>
<text text-anchor="middle" x="1887" y="-221.5" font-family="Helvetica,sans-Serif" font-size="10.00">CTP_get_packet_len</text>
</a>
</g>
</g>
<!-- Node2 -->
<g id="node2" class="node">
<title>Node2</title>
<g id="a_node2"><a xlink:href="aobc__telemetry__buffer_8c.html#a37b81adac738069788e1ede005ee5eb5" target="_top" xlink:title=" ">
<polygon fill="white" stroke="black" points="1651,-176.5 1651,-195.5 1794,-195.5 1794,-176.5 1651,-176.5"/>
<text text-anchor="middle" x="1722.5" y="-183.5" font-family="Helvetica,sans-Serif" font-size="10.00">AOBC_pick_up_tlm_buffer</text>
</a>
</g>
</g>
<!-- Node1&#45;&gt;Node2 -->
<g id="edge1" class="edge">
<title>Node1&#45;&gt;Node2</title>
<path fill="none" stroke="midnightblue" d="M1835.13,-212.1C1812.29,-206.76 1785.7,-200.55 1764.21,-195.52"/>
<polygon fill="midnightblue" stroke="midnightblue" points="1834.46,-215.54 1844.99,-214.41 1836.05,-208.73 1834.46,-215.54"/>
</g>
<!-- Node15 -->
<g id="node15" class="node">
<title>Node15</title>
<g id="a_node15"><a xlink:href="common__tlm__cmd__packet__for__driver__super_8c.html#ac33606cb83f003e3c3134702e73bf711" target="_top" xlink:title="CommonTlmPacket を受信データからコピーして取得する">
<polygon fill="white" stroke="black" points="1477,-252.5 1477,-271.5 1609,-271.5 1609,-252.5 1477,-252.5"/>
<text text-anchor="middle" x="1543" y="-259.5" font-family="Helvetica,sans-Serif" font-size="10.00">CTP_get_ctp_from_dssc</text>
</a>
</g>
</g>
<!-- Node1&#45;&gt;Node15 -->
<g id="edge18" class="edge">
<title>Node1&#45;&gt;Node15</title>
<path fill="none" stroke="midnightblue" d="M1835.43,-235.65C1822.02,-238.41 1807.51,-241.1 1794,-243 1731.61,-251.78 1659.84,-256.7 1609.26,-259.33"/>
<polygon fill="midnightblue" stroke="midnightblue" points="1836.37,-239.03 1845.43,-233.54 1834.93,-232.18 1836.37,-239.03"/>
</g>
<!-- Node23 -->
<g id="node23" class="node">
<title>Node23</title>
<g id="a_node23"><a xlink:href="common__tlm__packet_8h.html#a285c1dc53d72a80747d8827c38d7aea4" target="_top" xlink:title="有効なパケットかチェックする">
<polygon fill="white" stroke="black" points="1664.5,-214.5 1664.5,-233.5 1780.5,-233.5 1780.5,-214.5 1664.5,-214.5"/>
<text text-anchor="middle" x="1722.5" y="-221.5" font-family="Helvetica,sans-Serif" font-size="10.00">CTP_is_valid_packet</text>
</a>
</g>
</g>
<!-- Node1&#45;&gt;Node23 -->
<g id="edge27" class="edge">
<title>Node1&#45;&gt;Node23</title>
<path fill="none" stroke="midnightblue" d="M1819.43,-224C1806.54,-224 1793.15,-224 1780.6,-224"/>
<polygon fill="midnightblue" stroke="midnightblue" points="1819.62,-227.5 1829.62,-224 1819.62,-220.5 1819.62,-227.5"/>
</g>
<!-- Node3 -->
<g id="node3" class="node">
<title>Node3</title>
<g id="a_node3"><a xlink:href="user__packet__handler_8c.html#a172d3a9e04d8b97fc44ee6b1efd1018d" target="_top" xlink:title="2nd OBC のテレメを転送するために， APID からテレメを判定してルーティングする // FIXME: 命名， router ではない？">
<polygon fill="white" stroke="black" points="1471,-157.5 1471,-176.5 1615,-176.5 1615,-157.5 1471,-157.5"/>
<text text-anchor="middle" x="1543" y="-164.5" font-family="Helvetica,sans-Serif" font-size="10.00">PH_user_telemetry_router</text>
</a>
</g>
</g>
<!-- Node2&#45;&gt;Node3 -->
<g id="edge2" class="edge">
<title>Node2&#45;&gt;Node3</title>
<path fill="none" stroke="midnightblue" d="M1640.88,-177.37C1632.35,-176.46 1623.71,-175.53 1615.29,-174.63"/>
<polygon fill="midnightblue" stroke="midnightblue" points="1640.52,-180.85 1650.84,-178.44 1641.27,-173.89 1640.52,-180.85"/>
</g>
<!-- Node4 -->
<g id="node4" class="node">
<title>Node4</title>
<g id="a_node4"><a xlink:href="telemetry__generator_8c.html#a45e27cfe1011db60f84c4b618ddc0e31" target="_top" xlink:title="2nd OBC のテレメを転送">
<polygon fill="white" stroke="black" points="1316.5,-95.5 1316.5,-114.5 1416.5,-114.5 1416.5,-95.5 1316.5,-95.5"/>
<text text-anchor="middle" x="1366.5" y="-102.5" font-family="Helvetica,sans-Serif" font-size="10.00">TG_forward_tlm_</text>
</a>
</g>
</g>
<!-- Node3&#45;&gt;Node4 -->
<g id="edge3" class="edge">
<title>Node3&#45;&gt;Node4</title>
<path fill="none" stroke="midnightblue" d="M1505.34,-153.98C1472.19,-142.2 1424.14,-125.13 1394.41,-114.56"/>
<polygon fill="midnightblue" stroke="midnightblue" points="1504.52,-157.4 1515.12,-157.45 1506.87,-150.8 1504.52,-157.4"/>
</g>
<!-- Node5 -->
<g id="node5" class="node">
<title>Node5</title>
<g id="a_node5"><a xlink:href="telemetry__generator_8c.html#a2144524e46bddd191cf892ba78deb010" target="_top" xlink:title="HK テレメとして 2nd OBC のテレメを転送">
<polygon fill="white" stroke="black" points="1085.5,-76.5 1085.5,-95.5 1261.5,-95.5 1261.5,-76.5 1085.5,-76.5"/>
<text text-anchor="middle" x="1173.5" y="-83.5" font-family="Helvetica,sans-Serif" font-size="10.00">Cmd_TG_FORWARD_AS_HK_TLM</text>
</a>
</g>
</g>
<!-- Node4&#45;&gt;Node5 -->
<g id="edge4" class="edge">
<title>Node4&#45;&gt;Node5</title>
<path fill="none" stroke="midnightblue" d="M1306.27,-99.11C1292.15,-97.7 1276.78,-96.17 1261.69,-94.67"/>
<polygon fill="midnightblue" stroke="midnightblue" points="1306.02,-102.6 1316.31,-100.11 1306.71,-95.63 1306.02,-102.6"/>
</g>
<!-- Node12 -->
<g id="node12" class="node">
<title>Node12</title>
<g id="a_node12"><a xlink:href="telemetry__generator_8c.html#a760f5adbfac9bbbfcef8f5a7631cae36" target="_top" xlink:title="MS テレメとして 2nd OBC のテレメを転送">
<polygon fill="white" stroke="black" points="1085,-38.5 1085,-57.5 1262,-57.5 1262,-38.5 1085,-38.5"/>
<text text-anchor="middle" x="1173.5" y="-45.5" font-family="Helvetica,sans-Serif" font-size="10.00">Cmd_TG_FORWARD_AS_MS_TLM</text>
</a>
</g>
</g>
<!-- Node4&#45;&gt;Node12 -->
<g id="edge12" class="edge">
<title>Node4&#45;&gt;Node12</title>
<path fill="none" stroke="midnightblue" d="M1333.02,-91.76C1312.81,-83.86 1286.17,-74.02 1262,-67 1249.91,-63.49 1236.71,-60.29 1224.31,-57.57"/>
<polygon fill="midnightblue" stroke="midnightblue" points="1331.79,-95.04 1342.38,-95.47 1334.37,-88.53 1331.79,-95.04"/>
</g>
<!-- Node13 -->
<g id="node13" class="node">
<title>Node13</title>
<g id="a_node13"><a xlink:href="telemetry__generator_8c.html#ab76466d394cac5664637bb03b0b15f66" target="_top" xlink:title="ST テレメとして 2nd OBC のテレメを転送">
<polygon fill="white" stroke="black" points="1086.5,-0.5 1086.5,-19.5 1260.5,-19.5 1260.5,-0.5 1086.5,-0.5"/>
<text text-anchor="middle" x="1173.5" y="-7.5" font-family="Helvetica,sans-Serif" font-size="10.00">Cmd_TG_FORWARD_AS_ST_TLM</text>
</a>
</g>
</g>
<!-- Node4&#45;&gt;Node13 -->
<g id="edge14" class="edge">
<title>Node4&#45;&gt;Node13</title>
<path fill="none" stroke="midnightblue" d="M1348.1,-88.59C1328.63,-71.16 1295.43,-44.07 1262,-29 1253.5,-25.17 1244.17,-22.09 1234.88,-19.62"/>
<polygon fill="midnightblue" stroke="midnightblue" points="1345.82,-91.25 1355.56,-95.41 1350.54,-86.08 1345.82,-91.25"/>
</g>
<!-- Node14 -->
<g id="node14" class="node">
<title>Node14</title>
<g id="a_node14"><a xlink:href="telemetry__generator_8c.html#a1a2f65b4c9d0e0383e2d2345ad32450f" target="_top" xlink:title="2nd OBC のテレメを転送">
<polygon fill="white" stroke="black" points="1104,-114.5 1104,-133.5 1243,-133.5 1243,-114.5 1104,-114.5"/>
<text text-anchor="middle" x="1173.5" y="-121.5" font-family="Helvetica,sans-Serif" font-size="10.00">Cmd_TG_FORWARD_TLM</text>
</a>
</g>
</g>
<!-- Node4&#45;&gt;Node14 -->
<g id="edge16" class="edge">
<title>Node4&#45;&gt;Node14</title>
<path fill="none" stroke="midnightblue" d="M1306.15,-110.9C1286.25,-112.88 1263.88,-115.11 1243.31,-117.15"/>
<polygon fill="midnightblue" stroke="midnightblue" points="1306.71,-114.37 1316.31,-109.89 1306.02,-107.4 1306.71,-114.37"/>
</g>
<!-- Node6 -->
<g id="node6" class="node">
<title>Node6</title>
<g id="a_node6"><a xlink:href="command__analyze_8h.html#aa375895192b16d8e7f0ff4545b54e6c4" target="_top" xlink:title="Cmd Tableのロード">
<polygon fill="white" stroke="black" points="924,-171.5 924,-190.5 1037,-190.5 1037,-171.5 924,-171.5"/>
<text text-anchor="middle" x="980.5" y="-178.5" font-family="Helvetica,sans-Serif" font-size="10.00">CA_load_cmd_table</text>
</a>
</g>
</g>
<!-- Node5&#45;&gt;Node6 -->
<g id="edge5" class="edge">
<title>Node5&#45;&gt;Node6</title>
<path fill="none" stroke="midnightblue" d="M1102.13,-98.52C1096.23,-100.4 1090.45,-102.54 1085,-105 1046.79,-122.23 1008.88,-155.14 991.44,-171.41"/>
<polygon fill="midnightblue" stroke="midnightblue" points="1103.49,-101.77 1112.12,-95.62 1101.54,-95.05 1103.49,-101.77"/>
</g>
<!-- Node7 -->
<g id="node7" class="node">
<title>Node7</title>
<g id="a_node7"><a xlink:href="command__analyze_8c.html#ae6d1f376bf4e1c9c4b63bc3f04924c8a" target="_top" xlink:title="CA の初期化">
<polygon fill="white" stroke="black" points="799,-209.5 799,-228.5 876,-228.5 876,-209.5 799,-209.5"/>
<text text-anchor="middle" x="837.5" y="-216.5" font-family="Helvetica,sans-Serif" font-size="10.00">CA_initialize</text>
</a>
</g>
</g>
<!-- Node6&#45;&gt;Node7 -->
<g id="edge6" class="edge">
<title>Node6&#45;&gt;Node7</title>
<path fill="none" stroke="midnightblue" d="M934.06,-193.25C914.63,-198.48 892.27,-204.51 874.07,-209.41"/>
<polygon fill="midnightblue" stroke="midnightblue" points="935.18,-196.57 943.92,-190.59 933.35,-189.81 935.18,-196.57"/>
</g>
<!-- Node8 -->
<g id="node8" class="node">
<title>Node8</title>
<g id="a_node8"><a xlink:href="c2a__core__main_8c.html#a65ecdc63d8762ffde4db7f6c6e6f07cf" target="_top" xlink:title=" ">
<polygon fill="white" stroke="black" points="253,-294.5 253,-313.5 336,-313.5 336,-294.5 253,-294.5"/>
<text text-anchor="middle" x="294.5" y="-301.5" font-family="Helvetica,sans-Serif" font-size="10.00">C2A_core_init</text>
</a>
</g>
</g>
<!-- Node7&#45;&gt;Node8 -->
<g id="edge7" class="edge">
<title>Node7&#45;&gt;Node8</title>
<path fill="none" stroke="midnightblue" d="M788.9,-226.48C683.97,-242.97 434.32,-282.19 336.15,-297.61"/>
<polygon fill="midnightblue" stroke="midnightblue" points="789.55,-229.92 798.89,-224.91 788.47,-223 789.55,-229.92"/>
</g>
<!-- Node11 -->
<g id="node11" class="node">
<title>Node11</title>
<g id="a_node11"><a xlink:href="command__analyze_8c.html#a85d8daea84970ad2895a0209bd350b7b" target="_top" xlink:title=" ">
<polygon fill="white" stroke="black" points="678.5,-190.5 678.5,-209.5 761.5,-209.5 761.5,-190.5 678.5,-190.5"/>
<text text-anchor="middle" x="720" y="-197.5" font-family="Helvetica,sans-Serif" font-size="10.00">Cmd_CA_INIT</text>
</a>
</g>
</g>
<!-- Node7&#45;&gt;Node11 -->
<g id="edge10" class="edge">
<title>Node7&#45;&gt;Node11</title>
<path fill="none" stroke="midnightblue" d="M788.73,-211.14C779.75,-209.66 770.43,-208.13 761.69,-206.69"/>
<polygon fill="midnightblue" stroke="midnightblue" points="788.25,-214.61 798.68,-212.78 789.38,-207.7 788.25,-214.61"/>
</g>
<!-- Node9 -->
<g id="node9" class="node">
<title>Node9</title>
<g id="a_node9"><a xlink:href="c2a__main_8c.html#a630222a80cd8bffd4426d4a55a215069" target="_top" xlink:title=" ">
<polygon fill="white" stroke="black" points="155,-294.5 155,-313.5 217,-313.5 217,-294.5 155,-294.5"/>
<text text-anchor="middle" x="186" y="-301.5" font-family="Helvetica,sans-Serif" font-size="10.00">C2A_init_</text>
</a>
</g>
</g>
<!-- Node8&#45;&gt;Node9 -->
<g id="edge8" class="edge">
<title>Node8&#45;&gt;Node9</title>
<path fill="none" stroke="midnightblue" d="M242.76,-304C234.01,-304 225.17,-304 217.18,-304"/>
<polygon fill="midnightblue" stroke="midnightblue" points="242.93,-307.5 252.93,-304 242.93,-300.5 242.93,-307.5"/>
</g>
<!-- Node10 -->
<g id="node10" class="node">
<title>Node10</title>
<g id="a_node10"><a xlink:href="c2a__main_8c.html#ac3344a311adda8f9e7310924bedf81fc" target="_top" xlink:title=" ">
<polygon fill="white" stroke="black" points="0,-294.5 0,-313.5 119,-313.5 119,-294.5 0,-294.5"/>
<text text-anchor="middle" x="59.5" y="-301.5" font-family="Helvetica,sans-Serif" font-size="10.00">address_fixed_main_</text>
</a>
</g>
</g>
<!-- Node9&#45;&gt;Node10 -->
<g id="edge9" class="edge">
<title>Node9&#45;&gt;Node10</title>
<path fill="none" stroke="midnightblue" d="M144.83,-304C136.62,-304 127.82,-304 119.12,-304"/>
<polygon fill="midnightblue" stroke="midnightblue" points="144.86,-307.5 154.86,-304 144.86,-300.5 144.86,-307.5"/>
</g>
<!-- Node11&#45;&gt;Node6 -->
<g id="edge11" class="edge">
<title>Node11&#45;&gt;Node6</title>
<path fill="none" stroke="midnightblue" d="M772,-196.25C815.74,-193.04 878.66,-188.41 923.73,-185.1"/>
<polygon fill="midnightblue" stroke="midnightblue" points="771.58,-192.77 761.87,-197 772.1,-199.75 771.58,-192.77"/>
</g>
<!-- Node12&#45;&gt;Node6 -->
<g id="edge13" class="edge">
<title>Node12&#45;&gt;Node6</title>
<path fill="none" stroke="midnightblue" d="M1097.28,-61.02C1093.02,-62.77 1088.89,-64.75 1085,-67 1038.47,-93.87 1001.2,-148.82 987.34,-171.2"/>
<polygon fill="midnightblue" stroke="midnightblue" points="1098.59,-64.27 1106.78,-57.56 1096.19,-57.7 1098.59,-64.27"/>
</g>
<!-- Node13&#45;&gt;Node6 -->
<g id="edge15" class="edge">
<title>Node13&#45;&gt;Node6</title>
<path fill="none" stroke="midnightblue" d="M1094.23,-23.66C1091.02,-25.26 1087.92,-27.03 1085,-29 1029.68,-66.31 995.7,-144.01 985.09,-171.28"/>
<polygon fill="midnightblue" stroke="midnightblue" points="1095.74,-26.82 1103.53,-19.64 1092.96,-20.4 1095.74,-26.82"/>
</g>
<!-- Node14&#45;&gt;Node6 -->
<g id="edge17" class="edge">
<title>Node14&#45;&gt;Node6</title>
<path fill="none" stroke="midnightblue" d="M1112.67,-135.84C1103.36,-138.01 1093.88,-140.42 1085,-143 1056.88,-151.17 1025.4,-163.15 1004.62,-171.47"/>
<polygon fill="midnightblue" stroke="midnightblue" points="1113.71,-139.19 1122.69,-133.57 1112.16,-132.36 1113.71,-139.19"/>
</g>
<!-- Node16 -->
<g id="node16" class="node">
<title>Node16</title>
<g id="a_node16"><a xlink:href="aobc__telemetry__buffer_8c.html#ad9b52088d5f385af72dc6663981f31dc" target="_top" xlink:title=" ">
<polygon fill="white" stroke="black" points="1298,-337.5 1298,-356.5 1435,-356.5 1435,-337.5 1298,-337.5"/>
<text text-anchor="middle" x="1366.5" y="-344.5" font-family="Helvetica,sans-Serif" font-size="10.00">AOBC_buffer_tlm_packet</text>
</a>
</g>
</g>
<!-- Node15&#45;&gt;Node16 -->
<g id="edge19" class="edge">
<title>Node15&#45;&gt;Node16</title>
<path fill="none" stroke="midnightblue" d="M1516.39,-276.54C1494.93,-288.5 1463.35,-305.61 1435,-319 1421.01,-325.61 1405.02,-332.28 1392.12,-337.45"/>
<polygon fill="midnightblue" stroke="midnightblue" points="1518.2,-279.54 1525.21,-271.59 1514.77,-273.43 1518.2,-279.54"/>
</g>
<!-- Node17 -->
<g id="node17" class="node">
<title>Node17</title>
<g id="a_node17"><a xlink:href="aobc_8c.html#abb166b8bf407374a9f89f7cce4dd9f44" target="_top" xlink:title=" ">
<polygon fill="white" stroke="black" points="1103.5,-342.5 1103.5,-361.5 1243.5,-361.5 1243.5,-342.5 1103.5,-342.5"/>
<text text-anchor="middle" x="1173.5" y="-349.5" font-family="Helvetica,sans-Serif" font-size="10.00">AOBC_analyze_rec_data_</text>
</a>
</g>
</g>
<!-- Node16&#45;&gt;Node17 -->
<g id="edge20" class="edge">
<title>Node16&#45;&gt;Node17</title>
<path fill="none" stroke="midnightblue" d="M1287.86,-349.03C1273.22,-349.42 1257.99,-349.81 1243.63,-350.19"/>
<polygon fill="midnightblue" stroke="midnightblue" points="1287.99,-352.53 1297.89,-348.77 1287.8,-345.53 1287.99,-352.53"/>
</g>
<!-- Node18 -->
<g id="node18" class="node">
<title>Node18</title>
<g id="a_node18"><a xlink:href="aobc_8c.html#ace8c524e6d1fe0054e4db53f9fbc0a26" target="_top" xlink:title=" ">
<polygon fill="white" stroke="black" points="912,-336 912,-366 1049,-366 1049,-336 912,-336"/>
<text text-anchor="start" x="920" y="-354" font-family="Helvetica,sans-Serif" font-size="10.00">AOBC_load_driver_super</text>
<text text-anchor="middle" x="980.5" y="-343" font-family="Helvetica,sans-Serif" font-size="10.00">_init_settings_</text>
</a>
</g>
</g>
<!-- Node17&#45;&gt;Node18 -->
<g id="edge21" class="edge">
<title>Node17&#45;&gt;Node18</title>
<path fill="none" stroke="midnightblue" d="M1093.25,-351.59C1078.62,-351.51 1063.46,-351.43 1049.21,-351.35"/>
<polygon fill="midnightblue" stroke="midnightblue" points="1093.26,-355.09 1103.27,-351.64 1093.29,-348.09 1093.26,-355.09"/>
</g>
<!-- Node19 -->
<g id="node19" class="node">
<title>Node19</title>
<g id="a_node19"><a xlink:href="aobc_8c.html#ad57ac68788eec32299ab4a5070251380" target="_top" xlink:title="AOBC 初期化">
<polygon fill="white" stroke="black" points="805,-340.5 805,-359.5 870,-359.5 870,-340.5 805,-340.5"/>
<text text-anchor="middle" x="837.5" y="-347.5" font-family="Helvetica,sans-Serif" font-size="10.00">AOBC_init</text>
</a>
</g>
</g>
<!-- Node18&#45;&gt;Node19 -->
<g id="edge22" class="edge">
<title>Node18&#45;&gt;Node19</title>
<path fill="none" stroke="midnightblue" d="M901.66,-350.45C890.56,-350.37 879.7,-350.29 870.21,-350.22"/>
<polygon fill="midnightblue" stroke="midnightblue" points="901.87,-353.95 911.89,-350.52 901.92,-346.95 901.87,-353.95"/>
</g>
<!-- Node20 -->
<g id="node20" class="node">
<title>Node20</title>
<g id="a_node20"><a xlink:href="di__aobc_8c.html#ac004552dc331c8fea7b0b6f2acd75a15" target="_top" xlink:title=" ">
<polygon fill="white" stroke="black" points="677,-338.5 677,-357.5 763,-357.5 763,-338.5 677,-338.5"/>
<text text-anchor="middle" x="720" y="-345.5" font-family="Helvetica,sans-Serif" font-size="10.00">DI_AOBC_init_</text>
</a>
</g>
</g>
<!-- Node19&#45;&gt;Node20 -->
<g id="edge23" class="edge">
<title>Node19&#45;&gt;Node20</title>
<path fill="none" stroke="midnightblue" d="M794.64,-349.28C784.46,-349.1 773.56,-348.91 763.35,-348.73"/>
<polygon fill="midnightblue" stroke="midnightblue" points="794.88,-352.78 804.94,-349.45 795,-345.78 794.88,-352.78"/>
</g>
<!-- Node21 -->
<g id="node21" class="node">
<title>Node21</title>
<g id="a_node21"><a xlink:href="di__aobc_8c.html#a78f30ebb5b71301c1da6d10eac787db4" target="_top" xlink:title="AOBC update アプリ生成関数">
<polygon fill="white" stroke="black" points="542,-334.5 542,-353.5 641,-353.5 641,-334.5 542,-334.5"/>
<text text-anchor="middle" x="591.5" y="-341.5" font-family="Helvetica,sans-Serif" font-size="10.00">DI_AOBC_update</text>
</a>
</g>
</g>
<!-- Node20&#45;&gt;Node21 -->
<g id="edge24" class="edge">
<title>Node20&#45;&gt;Node21</title>
<path fill="none" stroke="midnightblue" d="M666.68,-346.35C658.18,-346.08 649.41,-345.8 641,-345.53"/>
<polygon fill="midnightblue" stroke="midnightblue" points="666.77,-349.85 676.88,-346.67 666.99,-342.85 666.77,-349.85"/>
</g>
<!-- Node22 -->
<g id="node22" class="node">
<title>Node22</title>
<g id="a_node22"><a xlink:href="app__registry_8c.html#ab944b1d78a41e427bc2ed57f9c4e9534" target="_top" xlink:title=" ">
<polygon fill="white" stroke="black" points="372,-327.5 372,-346.5 506,-346.5 506,-327.5 372,-327.5"/>
<text text-anchor="middle" x="439" y="-334.5" font-family="Helvetica,sans-Serif" font-size="10.00">AR_load_initial_settings</text>
</a>
</g>
</g>
<!-- Node21&#45;&gt;Node22 -->
<g id="edge25" class="edge">
<title>Node21&#45;&gt;Node22</title>
<path fill="none" stroke="midnightblue" d="M531.61,-341.26C523.26,-340.87 514.61,-340.47 506.13,-340.08"/>
<polygon fill="midnightblue" stroke="midnightblue" points="531.49,-344.76 541.64,-341.73 531.81,-337.77 531.49,-344.76"/>
</g>
<!-- Node22&#45;&gt;Node8 -->
<g id="edge26" class="edge">
<title>Node22&#45;&gt;Node8</title>
<path fill="none" stroke="midnightblue" d="M386.67,-325.11C370.06,-321.27 351.86,-317.05 336.13,-313.41"/>
<polygon fill="midnightblue" stroke="midnightblue" points="386.25,-328.61 396.78,-327.46 387.83,-321.79 386.25,-328.61"/>
</g>
<!-- Node23&#45;&gt;Node15 -->
<g id="edge28" class="edge">
<title>Node23&#45;&gt;Node15</title>
<path fill="none" stroke="midnightblue" d="M1666.6,-235.75C1641.5,-241.13 1612.16,-247.41 1588.47,-252.48"/>
<polygon fill="midnightblue" stroke="midnightblue" points="1667.66,-239.1 1676.71,-233.59 1666.2,-232.26 1667.66,-239.1"/>
</g>
<!-- Node24 -->
<g id="node24" class="node">
<title>Node24</title>
<g id="a_node24"><a xlink:href="packet__handler_8c.html#a26d6fa7512d02ca9bb3a0bf700beaad3" target="_top" xlink:title="CTP を解析する">
<polygon fill="white" stroke="black" points="1476.5,-214.5 1476.5,-233.5 1609.5,-233.5 1609.5,-214.5 1476.5,-214.5"/>
<text text-anchor="middle" x="1543" y="-221.5" font-family="Helvetica,sans-Serif" font-size="10.00">PH_analyze_tlm_packet</text>
</a>
</g>
</g>
<!-- Node23&#45;&gt;Node24 -->
<g id="edge29" class="edge">
<title>Node23&#45;&gt;Node24</title>
<path fill="none" stroke="midnightblue" d="M1653.96,-224C1639.44,-224 1624.12,-224 1609.68,-224"/>
<polygon fill="midnightblue" stroke="midnightblue" points="1654.36,-227.5 1664.36,-224 1654.36,-220.5 1654.36,-227.5"/>
</g>
<!-- Node24&#45;&gt;Node4 -->
<g id="edge33" class="edge">
<title>Node24&#45;&gt;Node4</title>
<path fill="none" stroke="midnightblue" d="M1512.84,-209.83C1499.74,-203.11 1484.29,-194.66 1471,-186 1435.45,-162.82 1396.92,-130.57 1378.51,-114.66"/>
<polygon fill="midnightblue" stroke="midnightblue" points="1511.38,-213.02 1521.89,-214.4 1514.54,-206.77 1511.38,-213.02"/>
</g>
<!-- Node25 -->
<g id="node25" class="node">
<title>Node25</title>
<g id="a_node25"><a xlink:href="telemetry__generator_8c.html#a2fcc5d200854a9af5ab4a3d140419093" target="_top" xlink:title=" ">
<polygon fill="white" stroke="black" points="1305.5,-290.5 1305.5,-309.5 1427.5,-309.5 1427.5,-290.5 1305.5,-290.5"/>
<text text-anchor="middle" x="1366.5" y="-297.5" font-family="Helvetica,sans-Serif" font-size="10.00">Cmd_GENERATE_TLM</text>
</a>
</g>
</g>
<!-- Node24&#45;&gt;Node25 -->
<g id="edge30" class="edge">
<title>Node24&#45;&gt;Node25</title>
<path fill="none" stroke="midnightblue" d="M1489.52,-236.5C1483.2,-238.45 1476.9,-240.63 1471,-243 1462.15,-246.56 1411.52,-275.04 1384.5,-290.34"/>
<polygon fill="midnightblue" stroke="midnightblue" points="1490.79,-239.77 1499.4,-233.6 1488.82,-233.06 1490.79,-239.77"/>
</g>
<!-- Node26 -->
<g id="node26" class="node">
<title>Node26</title>
<g id="a_node26"><a xlink:href="packet__handler_8c.html#acf757fa72967bf66b39dc5ced7132330" target="_top" xlink:title="CTCP を解析する">
<polygon fill="white" stroke="black" points="1311,-233.5 1311,-252.5 1422,-252.5 1422,-233.5 1311,-233.5"/>
<text text-anchor="middle" x="1366.5" y="-240.5" font-family="Helvetica,sans-Serif" font-size="10.00">PH_analyze_packet</text>
</a>
</g>
</g>
<!-- Node24&#45;&gt;Node26 -->
<g id="edge32" class="edge">
<title>Node24&#45;&gt;Node26</title>
<path fill="none" stroke="midnightblue" d="M1465.93,-232.28C1451.21,-233.89 1436.06,-235.54 1422.19,-237.05"/>
<polygon fill="midnightblue" stroke="midnightblue" points="1466.47,-235.75 1476.03,-231.18 1465.71,-228.79 1466.47,-235.75"/>
</g>
<!-- Node27 -->
<g id="node27" class="node">
<title>Node27</title>
<g id="a_node27"><a xlink:href="telemetry__generator_8c.html#ad78d5477d3fed44f4b1eb7c49cdbb760" target="_top" xlink:title="自身のテレメを生成">
<polygon fill="white" stroke="black" points="1313.5,-195.5 1313.5,-214.5 1419.5,-214.5 1419.5,-195.5 1313.5,-195.5"/>
<text text-anchor="middle" x="1366.5" y="-202.5" font-family="Helvetica,sans-Serif" font-size="10.00">TG_generate_tlm_</text>
</a>
</g>
</g>
<!-- Node24&#45;&gt;Node27 -->
<g id="edge34" class="edge">
<title>Node24&#45;&gt;Node27</title>
<path fill="none" stroke="midnightblue" d="M1465.88,-215.71C1450.29,-214.01 1434.22,-212.26 1419.7,-210.68"/>
<polygon fill="midnightblue" stroke="midnightblue" points="1465.71,-219.21 1476.03,-216.82 1466.47,-212.25 1465.71,-219.21"/>
</g>
<!-- Node25&#45;&gt;Node6 -->
<g id="edge31" class="edge">
<title>Node25&#45;&gt;Node6</title>
<path fill="none" stroke="midnightblue" d="M1311.2,-311.28C1252.57,-320.75 1157.81,-328.02 1085,-295 1035.58,-272.59 999.46,-214.04 986.62,-190.75"/>
<polygon fill="midnightblue" stroke="midnightblue" points="1312.08,-314.68 1321.36,-309.56 1310.91,-307.78 1312.08,-314.68"/>
</g>
<!-- Node28 -->
<g id="node28" class="node">
<title>Node28</title>
<g id="a_node28"><a xlink:href="telemetry__generator_8c.html#ad97b61fe1cfeb30271f8f8f68b6c5cfb" target="_top" xlink:title="HK テレメを生成">
<polygon fill="white" stroke="black" points="1093.5,-190.5 1093.5,-209.5 1253.5,-209.5 1253.5,-190.5 1093.5,-190.5"/>
<text text-anchor="middle" x="1173.5" y="-197.5" font-family="Helvetica,sans-Serif" font-size="10.00">Cmd_TG_GENERATE_HK_TLM</text>
</a>
</g>
</g>
<!-- Node27&#45;&gt;Node28 -->
<g id="edge35" class="edge">
<title>Node27&#45;&gt;Node28</title>
<path fill="none" stroke="midnightblue" d="M1303.12,-203.37C1287.28,-202.95 1270.06,-202.5 1253.51,-202.07"/>
<polygon fill="midnightblue" stroke="midnightblue" points="1303.22,-206.87 1313.31,-203.63 1303.4,-199.87 1303.22,-206.87"/>
</g>
<!-- Node29 -->
<g id="node29" class="node">
<title>Node29</title>
<g id="a_node29"><a xlink:href="telemetry__generator_8c.html#a596a54975313af3780a7ad383898a498" target="_top" xlink:title="MS テレメを生成">
<polygon fill="white" stroke="black" points="1093,-152.5 1093,-171.5 1254,-171.5 1254,-152.5 1093,-152.5"/>
<text text-anchor="middle" x="1173.5" y="-159.5" font-family="Helvetica,sans-Serif" font-size="10.00">Cmd_TG_GENERATE_MS_TLM</text>
</a>
</g>
</g>
<!-- Node27&#45;&gt;Node29 -->
<g id="edge37" class="edge">
<title>Node27&#45;&gt;Node29</title>
<path fill="none" stroke="midnightblue" d="M1314.59,-193.05C1297.85,-189.15 1279.14,-184.85 1262,-181 1248.05,-177.87 1232.82,-174.53 1219.04,-171.55"/>
<polygon fill="midnightblue" stroke="midnightblue" points="1314.2,-196.55 1324.73,-195.41 1315.78,-189.73 1314.2,-196.55"/>
</g>
<!-- Node30 -->
<g id="node30" class="node">
<title>Node30</title>
<g id="a_node30"><a xlink:href="telemetry__generator_8c.html#a4de86acb2e3da29e5be6506281c0a107" target="_top" xlink:title="ST テレメを生成">
<polygon fill="white" stroke="black" points="1094.5,-266.5 1094.5,-285.5 1252.5,-285.5 1252.5,-266.5 1094.5,-266.5"/>
<text text-anchor="middle" x="1173.5" y="-273.5" font-family="Helvetica,sans-Serif" font-size="10.00">Cmd_TG_GENERATE_ST_TLM</text>
</a>
</g>
</g>
<!-- Node27&#45;&gt;Node30 -->
<g id="edge39" class="edge">
<title>Node27&#45;&gt;Node30</title>
<path fill="none" stroke="midnightblue" d="M1310.66,-218.03C1306.27,-219.79 1302,-221.77 1298,-224 1279.04,-234.56 1281.27,-247.02 1262,-257 1254.55,-260.86 1246.34,-263.94 1238.04,-266.39"/>
<polygon fill="midnightblue" stroke="midnightblue" points="1312.17,-221.21 1320.39,-214.52 1309.8,-214.62 1312.17,-221.21"/>
</g>
<!-- Node31 -->
<g id="node31" class="node">
<title>Node31</title>
<g id="a_node31"><a xlink:href="telemetry__generator_8c.html#ae24085f0be15493396340b3613cc9834" target="_top" xlink:title="自身の OBC のテレメを生成">
<polygon fill="white" stroke="black" points="1103.5,-228.5 1103.5,-247.5 1243.5,-247.5 1243.5,-228.5 1103.5,-228.5"/>
<text text-anchor="middle" x="1173.5" y="-235.5" font-family="Helvetica,sans-Serif" font-size="10.00">Cmd_TG_GENERATE_TLM</text>
</a>
</g>
</g>
<!-- Node27&#45;&gt;Node31 -->
<g id="edge41" class="edge">
<title>Node27&#45;&gt;Node31</title>
<path fill="none" stroke="midnightblue" d="M1303.34,-215.74C1279.59,-219.84 1252.69,-224.49 1229.63,-228.47"/>
<polygon fill="midnightblue" stroke="midnightblue" points="1304.05,-219.17 1313.31,-214.02 1302.86,-212.27 1304.05,-219.17"/>
</g>
<!-- Node28&#45;&gt;Node6 -->
<g id="edge36" class="edge">
<title>Node28&#45;&gt;Node6</title>
<path fill="none" stroke="midnightblue" d="M1083.19,-191.12C1067.52,-189.56 1051.63,-187.98 1037.21,-186.54"/>
<polygon fill="midnightblue" stroke="midnightblue" points="1083.14,-194.63 1093.43,-192.13 1083.83,-187.66 1083.14,-194.63"/>
</g>
<!-- Node29&#45;&gt;Node6 -->
<g id="edge38" class="edge">
<title>Node29&#45;&gt;Node6</title>
<path fill="none" stroke="midnightblue" d="M1082.72,-170.93C1067.19,-172.48 1051.45,-174.04 1037.16,-175.46"/>
<polygon fill="midnightblue" stroke="midnightblue" points="1083.28,-174.39 1092.88,-169.92 1082.58,-167.43 1083.28,-174.39"/>
</g>
<!-- Node30&#45;&gt;Node6 -->
<g id="edge40" class="edge">
<title>Node30&#45;&gt;Node6</title>
<path fill="none" stroke="midnightblue" d="M1102.13,-263.48C1096.23,-261.6 1090.45,-259.46 1085,-257 1046.79,-239.77 1008.88,-206.86 991.44,-190.59"/>
<polygon fill="midnightblue" stroke="midnightblue" points="1101.54,-266.95 1112.12,-266.38 1103.49,-260.23 1101.54,-266.95"/>
</g>
<!-- Node31&#45;&gt;Node6 -->
<g id="edge42" class="edge">
<title>Node31&#45;&gt;Node6</title>
<path fill="none" stroke="midnightblue" d="M1112.67,-226.16C1103.36,-223.99 1093.88,-221.58 1085,-219 1056.88,-210.83 1025.4,-198.85 1004.62,-190.53"/>
<polygon fill="midnightblue" stroke="midnightblue" points="1112.16,-229.64 1122.69,-228.43 1113.71,-222.81 1112.16,-229.64"/>
</g>
</g>
</svg>
