<?xml version="1.0" encoding="UTF-8" standalone="no"?>
<!DOCTYPE svg PUBLIC "-//W3C//DTD SVG 1.1//EN"
 "http://www.w3.org/Graphics/SVG/1.1/DTD/svg11.dtd">
<!-- Generated by graphviz version 2.43.0 (0)
 -->
<!-- Title: Cmd_CA_REGISTER_CMD Pages: 1 -->
<svg width="1591pt" height="218pt"
 viewBox="0.00 0.00 1591.00 218.00" xmlns="http://www.w3.org/2000/svg" xmlns:xlink="http://www.w3.org/1999/xlink">
<g id="graph0" class="graph" transform="scale(1 1) rotate(0) translate(4 214)">
<title>Cmd_CA_REGISTER_CMD</title>
<polygon fill="white" stroke="transparent" points="-4,4 -4,-214 1587,-214 1587,4 -4,4"/>
<!-- Node1 -->
<g id="node1" class="node">
<title>Node1</title>
<g id="a_node1"><a xlink:title=" ">
<polygon fill="#bfbfbf" stroke="black" points="0,-136.5 0,-155.5 140,-155.5 140,-136.5 0,-136.5"/>
<text text-anchor="middle" x="70" y="-143.5" font-family="Helvetica,sans-Serif" font-size="10.00">Cmd_CA_REGISTER_CMD</text>
</a>
</g>
</g>
<!-- Node2 -->
<g id="node2" class="node">
<title>Node2</title>
<g id="a_node2"><a xlink:href="common__cmd__packet_8h.html#a6f37129ce7654260af1f8a565f6423fc" target="_top" xlink:title="CMD パラメタ長を取得">
<polygon fill="white" stroke="black" points="369,-190.5 369,-209.5 483,-209.5 483,-190.5 369,-190.5"/>
<text text-anchor="middle" x="426" y="-197.5" font-family="Helvetica,sans-Serif" font-size="10.00">CCP_get_param_len</text>
</a>
</g>
</g>
<!-- Node1&#45;&gt;Node2 -->
<g id="edge1" class="edge">
<title>Node1&#45;&gt;Node2</title>
<path fill="none" stroke="midnightblue" d="M133.47,-155.53C196.78,-165.19 294.34,-180.07 358.91,-189.92"/>
<polygon fill="midnightblue" stroke="midnightblue" points="358.57,-193.41 368.98,-191.45 359.62,-186.49 358.57,-193.41"/>
</g>
<!-- Node10 -->
<g id="node10" class="node">
<title>Node10</title>
<g id="a_node10"><a xlink:href="common__cmd__packet__util_8c.html#ac42b13a9649fc0a2622e4c41460e2bf6" target="_top" xlink:title="CCP packet から，RAW コマンド引数を取得する">
<polygon fill="white" stroke="black" points="176,-109 176,-139 322,-139 322,-109 176,-109"/>
<text text-anchor="start" x="184" y="-127" font-family="Helvetica,sans-Serif" font-size="10.00">CCP_get_raw_param_from</text>
<text text-anchor="middle" x="249" y="-116" font-family="Helvetica,sans-Serif" font-size="10.00">_packet</text>
</a>
</g>
</g>
<!-- Node1&#45;&gt;Node10 -->
<g id="edge9" class="edge">
<title>Node1&#45;&gt;Node10</title>
<path fill="none" stroke="midnightblue" d="M140.19,-137.4C148.63,-136.35 157.3,-135.27 165.9,-134.2"/>
<polygon fill="midnightblue" stroke="midnightblue" points="166.45,-137.66 175.94,-132.96 165.58,-130.72 166.45,-137.66"/>
</g>
<!-- Node3 -->
<g id="node3" class="node">
<title>Node3</title>
<g id="a_node3"><a xlink:href="cmd__space__packet_8c.html#ad01de2632e93794f7c77749eb788ad74" target="_top" xlink:title="Param Length を取得">
<polygon fill="white" stroke="black" points="544,-190.5 544,-209.5 657,-209.5 657,-190.5 544,-190.5"/>
<text text-anchor="middle" x="600.5" y="-197.5" font-family="Helvetica,sans-Serif" font-size="10.00">CSP_get_param_len</text>
</a>
</g>
</g>
<!-- Node2&#45;&gt;Node3 -->
<g id="edge2" class="edge">
<title>Node2&#45;&gt;Node3</title>
<path fill="none" stroke="midnightblue" d="M483.01,-200C499.14,-200 516.88,-200 533.56,-200"/>
<polygon fill="midnightblue" stroke="midnightblue" points="533.78,-203.5 543.78,-200 533.78,-196.5 533.78,-203.5"/>
</g>
<!-- Node4 -->
<g id="node4" class="node">
<title>Node4</title>
<g id="a_node4"><a xlink:href="cmd__space__packet_8c.html#aee157565d728de693218da48114b5923" target="_top" xlink:title="Packet Length を取得">
<polygon fill="white" stroke="black" points="722.5,-152.5 722.5,-171.5 836.5,-171.5 836.5,-152.5 722.5,-152.5"/>
<text text-anchor="middle" x="779.5" y="-159.5" font-family="Helvetica,sans-Serif" font-size="10.00">CSP_get_packet_len</text>
</a>
</g>
</g>
<!-- Node3&#45;&gt;Node4 -->
<g id="edge3" class="edge">
<title>Node3&#45;&gt;Node4</title>
<path fill="none" stroke="midnightblue" d="M646.16,-190.41C669.84,-185.33 699.11,-179.04 724.1,-173.68"/>
<polygon fill="midnightblue" stroke="midnightblue" points="725.11,-177.04 734.16,-171.52 723.64,-170.2 725.11,-177.04"/>
</g>
<!-- Node5 -->
<g id="node5" class="node">
<title>Node5</title>
<g id="a_node5"><a xlink:href="space__packet_8c.html#a25afed909fb67da49f5ac9921a23744f" target="_top" xlink:title="Packet Length を取得">
<polygon fill="white" stroke="black" points="888,-128.5 888,-147.5 995,-147.5 995,-128.5 888,-128.5"/>
<text text-anchor="middle" x="941.5" y="-135.5" font-family="Helvetica,sans-Serif" font-size="10.00">SP_get_packet_len</text>
</a>
</g>
</g>
<!-- Node4&#45;&gt;Node5 -->
<g id="edge4" class="edge">
<title>Node4&#45;&gt;Node5</title>
<path fill="none" stroke="midnightblue" d="M836.91,-153.54C850.1,-151.56 864.23,-149.44 877.69,-147.42"/>
<polygon fill="midnightblue" stroke="midnightblue" points="878.44,-150.85 887.81,-145.9 877.4,-143.93 878.44,-150.85"/>
</g>
<!-- Node6 -->
<g id="node6" class="node">
<title>Node6</title>
<g id="a_node6"><a xlink:href="space__packet_8c.html#ad5dd44fdb4e6c00e7dbb311d3aaee3d3" target="_top" xlink:title="Packet Data Length を取得">
<polygon fill="white" stroke="black" points="1031,-104.5 1031,-123.5 1165,-123.5 1165,-104.5 1031,-104.5"/>
<text text-anchor="middle" x="1098" y="-111.5" font-family="Helvetica,sans-Serif" font-size="10.00">SP_get_packet_data_len</text>
</a>
</g>
</g>
<!-- Node5&#45;&gt;Node6 -->
<g id="edge5" class="edge">
<title>Node5&#45;&gt;Node6</title>
<path fill="none" stroke="midnightblue" d="M995.24,-129.81C1005.01,-128.29 1015.36,-126.68 1025.57,-125.1"/>
<polygon fill="midnightblue" stroke="midnightblue" points="1026.37,-128.51 1035.72,-123.52 1025.3,-121.6 1026.37,-128.51"/>
</g>
<!-- Node7 -->
<g id="node7" class="node">
<title>Node7</title>
<g id="a_node7"><a xlink:href="space__packet_8c.html#a300c7fc3dea91319b0fa2f039f27d5eb" target="_top" xlink:title="packet に格納された param を取得">
<polygon fill="white" stroke="black" points="1201,-71 1201,-101 1335,-101 1335,-71 1201,-71"/>
<text text-anchor="start" x="1209" y="-89" font-family="Helvetica,sans-Serif" font-size="10.00">SP_extract_param_from</text>
<text text-anchor="middle" x="1268" y="-78" font-family="Helvetica,sans-Serif" font-size="10.00">_packet</text>
</a>
</g>
</g>
<!-- Node6&#45;&gt;Node7 -->
<g id="edge6" class="edge">
<title>Node6&#45;&gt;Node7</title>
<path fill="none" stroke="midnightblue" d="M1156.35,-104.44C1167.45,-102.59 1179.24,-100.63 1190.84,-98.69"/>
<polygon fill="midnightblue" stroke="midnightblue" points="1191.66,-102.1 1200.95,-97.01 1190.51,-95.2 1191.66,-102.1"/>
</g>
<!-- Node8 -->
<g id="node8" class="node">
<title>Node8</title>
<g id="a_node8"><a xlink:href="endian__memcpy_8c.html#a153793f6939a1cb0f6bc3968d953f31e" target="_top" xlink:title=" ">
<polygon fill="white" stroke="black" points="1371,-76.5 1371,-95.5 1469,-95.5 1469,-76.5 1371,-76.5"/>
<text text-anchor="middle" x="1420" y="-83.5" font-family="Helvetica,sans-Serif" font-size="10.00">endian_memcpy</text>
</a>
</g>
</g>
<!-- Node7&#45;&gt;Node8 -->
<g id="edge7" class="edge">
<title>Node7&#45;&gt;Node8</title>
<path fill="none" stroke="midnightblue" d="M1335.23,-86C1343.71,-86 1352.34,-86 1360.69,-86"/>
<polygon fill="midnightblue" stroke="midnightblue" points="1360.69,-89.5 1370.69,-86 1360.69,-82.5 1360.69,-89.5"/>
</g>
<!-- Node9 -->
<g id="node9" class="node">
<title>Node9</title>
<g id="a_node9"><a xlink:href="endian__conv_8c.html#af8d492c4e43d83c161cd2225a9697b6a" target="_top" xlink:title=" ">
<polygon fill="white" stroke="black" points="1505,-76.5 1505,-95.5 1583,-95.5 1583,-76.5 1505,-76.5"/>
<text text-anchor="middle" x="1544" y="-83.5" font-family="Helvetica,sans-Serif" font-size="10.00">endian_conv</text>
</a>
</g>
</g>
<!-- Node8&#45;&gt;Node9 -->
<g id="edge8" class="edge">
<title>Node8&#45;&gt;Node9</title>
<path fill="none" stroke="midnightblue" d="M1469.22,-86C1477.65,-86 1486.42,-86 1494.84,-86"/>
<polygon fill="midnightblue" stroke="midnightblue" points="1494.91,-89.5 1504.91,-86 1494.91,-82.5 1494.91,-89.5"/>
</g>
<!-- Node10&#45;&gt;Node2 -->
<g id="edge24" class="edge">
<title>Node10&#45;&gt;Node2</title>
<path fill="none" stroke="midnightblue" d="M275.03,-139.14C296.47,-151.64 328.48,-169.18 358,-181 363.82,-183.33 370.03,-185.5 376.23,-187.47"/>
<polygon fill="midnightblue" stroke="midnightblue" points="375.33,-190.85 385.92,-190.4 377.36,-184.15 375.33,-190.85"/>
</g>
<!-- Node11 -->
<g id="node11" class="node">
<title>Node11</title>
<g id="a_node11"><a xlink:href="command__analyze_8c.html#a170772c49fb7883a382a30bd38485a6e" target="_top" xlink:title="コマンドパラメタ数を取得する">
<polygon fill="white" stroke="black" points="530,-76.5 530,-95.5 671,-95.5 671,-76.5 530,-76.5"/>
<text text-anchor="middle" x="600.5" y="-83.5" font-family="Helvetica,sans-Serif" font-size="10.00">CA_get_cmd_param_num</text>
</a>
</g>
</g>
<!-- Node10&#45;&gt;Node11 -->
<g id="edge10" class="edge">
<title>Node10&#45;&gt;Node11</title>
<path fill="none" stroke="midnightblue" d="M322.18,-110.32C334.12,-108.34 346.38,-106.48 358,-105 411.74,-98.18 472.53,-93.41 519.68,-90.36"/>
<polygon fill="midnightblue" stroke="midnightblue" points="520.07,-93.84 529.83,-89.71 519.63,-86.85 520.07,-93.84"/>
</g>
<!-- Node13 -->
<g id="node13" class="node">
<title>Node13</title>
<g id="a_node13"><a xlink:href="command__analyze_8c.html#a8b245c2a85084ae21588acd4deb3b3d6" target="_top" xlink:title="RAW パラメタを持っているか？">
<polygon fill="white" stroke="black" points="369.5,-114.5 369.5,-133.5 482.5,-133.5 482.5,-114.5 369.5,-114.5"/>
<text text-anchor="middle" x="426" y="-121.5" font-family="Helvetica,sans-Serif" font-size="10.00">CA_has_raw_param</text>
</a>
</g>
</g>
<!-- Node10&#45;&gt;Node13 -->
<g id="edge12" class="edge">
<title>Node10&#45;&gt;Node13</title>
<path fill="none" stroke="midnightblue" d="M322.19,-124C334.47,-124 347.17,-124 359.28,-124"/>
<polygon fill="midnightblue" stroke="midnightblue" points="359.29,-127.5 369.29,-124 359.29,-120.5 359.29,-127.5"/>
</g>
<!-- Node14 -->
<g id="node14" class="node">
<title>Node14</title>
<g id="a_node14"><a xlink:href="common__cmd__packet__util_8c.html#a02ff66149d13dad64734193314ed906a" target="_top" xlink:title="CCP パラメタ開始位置に対する n 番目の引数の offset を計算する">
<polygon fill="white" stroke="black" points="358,-38.5 358,-57.5 494,-57.5 494,-38.5 358,-38.5"/>
<text text-anchor="middle" x="426" y="-45.5" font-family="Helvetica,sans-Serif" font-size="10.00">CCP_calc_param_offset_</text>
</a>
</g>
</g>
<!-- Node10&#45;&gt;Node14 -->
<g id="edge15" class="edge">
<title>Node10&#45;&gt;Node14</title>
<path fill="none" stroke="midnightblue" d="M279.42,-108.8C300.92,-97.95 330.93,-83.33 358,-72 367.22,-68.14 377.3,-64.32 386.79,-60.91"/>
<polygon fill="midnightblue" stroke="midnightblue" points="388.13,-64.15 396.39,-57.51 385.79,-57.55 388.13,-64.15"/>
</g>
<!-- Node16 -->
<g id="node16" class="node">
<title>Node16</title>
<g id="a_node16"><a xlink:href="common__cmd__packet_8h.html#a5e5c73c5746397c40160652b10398652" target="_top" xlink:title="CMD ID を取得">
<polygon fill="white" stroke="black" points="390.5,-0.5 390.5,-19.5 461.5,-19.5 461.5,-0.5 390.5,-0.5"/>
<text text-anchor="middle" x="426" y="-7.5" font-family="Helvetica,sans-Serif" font-size="10.00">CCP_get_id</text>
</a>
</g>
</g>
<!-- Node10&#45;&gt;Node16 -->
<g id="edge19" class="edge">
<title>Node10&#45;&gt;Node16</title>
<path fill="none" stroke="midnightblue" d="M263.1,-108.84C282,-87.89 318.97,-50.27 358,-29 365.02,-25.18 372.88,-22.06 380.68,-19.54"/>
<polygon fill="midnightblue" stroke="midnightblue" points="381.85,-22.85 390.46,-16.66 379.87,-16.13 381.85,-22.85"/>
</g>
<!-- Node18 -->
<g id="node18" class="node">
<title>Node18</title>
<g id="a_node18"><a xlink:href="common__cmd__packet_8h.html#ac7f988d02cd49f16275dcb893b0e8fda" target="_top" xlink:title="先頭のパラメタのポインタを取得">
<polygon fill="white" stroke="black" points="364.5,-152.5 364.5,-171.5 487.5,-171.5 487.5,-152.5 364.5,-152.5"/>
<text text-anchor="middle" x="426" y="-159.5" font-family="Helvetica,sans-Serif" font-size="10.00">CCP_get_param_head</text>
</a>
</g>
</g>
<!-- Node10&#45;&gt;Node18 -->
<g id="edge22" class="edge">
<title>Node10&#45;&gt;Node18</title>
<path fill="none" stroke="midnightblue" d="M319.16,-139.02C336.49,-142.78 354.82,-146.76 371.27,-150.33"/>
<polygon fill="midnightblue" stroke="midnightblue" points="370.73,-153.8 381.25,-152.5 372.22,-146.96 370.73,-153.8"/>
</g>
<!-- Node12 -->
<g id="node12" class="node">
<title>Node12</title>
<g id="a_node12"><a xlink:href="command__analyze_8c.html#aa312aeadf3ce336a10385fe14e22f77c" target="_top" xlink:title="コマンドパラメタのサイズ情報を取得">
<polygon fill="white" stroke="black" points="707,-76.5 707,-95.5 852,-95.5 852,-76.5 707,-76.5"/>
<text text-anchor="middle" x="779.5" y="-83.5" font-family="Helvetica,sans-Serif" font-size="10.00">CA_get_param_size_type_</text>
</a>
</g>
</g>
<!-- Node11&#45;&gt;Node12 -->
<g id="edge11" class="edge">
<title>Node11&#45;&gt;Node12</title>
<path fill="none" stroke="midnightblue" d="M671.2,-86C679.52,-86 688.08,-86 696.55,-86"/>
<polygon fill="midnightblue" stroke="midnightblue" points="696.83,-89.5 706.83,-86 696.83,-82.5 696.83,-89.5"/>
</g>
<!-- Node13&#45;&gt;Node11 -->
<g id="edge13" class="edge">
<title>Node13&#45;&gt;Node11</title>
<path fill="none" stroke="midnightblue" d="M470.53,-114.41C493.6,-109.33 522.13,-103.04 546.48,-97.68"/>
<polygon fill="midnightblue" stroke="midnightblue" points="547.27,-101.09 556.28,-95.52 545.77,-94.25 547.27,-101.09"/>
</g>
<!-- Node13&#45;&gt;Node12 -->
<g id="edge14" class="edge">
<title>Node13&#45;&gt;Node12</title>
<path fill="none" stroke="midnightblue" d="M482.88,-121.2C532.44,-118.34 606.72,-113.16 671,-105 687.04,-102.96 704.33,-100.17 720.25,-97.36"/>
<polygon fill="midnightblue" stroke="midnightblue" points="721.27,-100.73 730.49,-95.51 720.03,-93.84 721.27,-100.73"/>
</g>
<!-- Node14&#45;&gt;Node11 -->
<g id="edge16" class="edge">
<title>Node14&#45;&gt;Node11</title>
<path fill="none" stroke="midnightblue" d="M470.53,-57.59C493.6,-62.67 522.13,-68.96 546.48,-74.32"/>
<polygon fill="midnightblue" stroke="midnightblue" points="545.77,-77.75 556.28,-76.48 547.27,-70.91 545.77,-77.75"/>
</g>
<!-- Node15 -->
<g id="node15" class="node">
<title>Node15</title>
<g id="a_node15"><a xlink:href="command__analyze_8c.html#a464f3aa16753a76bc5093100542a361a" target="_top" xlink:title="コマンドパラメタサイズを取得する">
<polygon fill="white" stroke="black" points="531,-38.5 531,-57.5 670,-57.5 670,-38.5 531,-38.5"/>
<text text-anchor="middle" x="600.5" y="-45.5" font-family="Helvetica,sans-Serif" font-size="10.00">CA_get_cmd_param_size</text>
</a>
</g>
</g>
<!-- Node14&#45;&gt;Node15 -->
<g id="edge17" class="edge">
<title>Node14&#45;&gt;Node15</title>
<path fill="none" stroke="midnightblue" d="M494.19,-48C502.82,-48 511.73,-48 520.53,-48"/>
<polygon fill="midnightblue" stroke="midnightblue" points="520.79,-51.5 530.79,-48 520.79,-44.5 520.79,-51.5"/>
</g>
<!-- Node15&#45;&gt;Node12 -->
<g id="edge18" class="edge">
<title>Node15&#45;&gt;Node12</title>
<path fill="none" stroke="midnightblue" d="M646.16,-57.59C669.84,-62.67 699.11,-68.96 724.1,-74.32"/>
<polygon fill="midnightblue" stroke="midnightblue" points="723.64,-77.8 734.16,-76.48 725.11,-70.96 723.64,-77.8"/>
</g>
<!-- Node17 -->
<g id="node17" class="node">
<title>Node17</title>
<g id="a_node17"><a xlink:href="cmd__space__packet_8c.html#a45d89842ddfe7dc2c74ae697d6690c89" target="_top" xlink:title="Command ID を取得">
<polygon fill="white" stroke="black" points="893,-38.5 893,-57.5 990,-57.5 990,-38.5 893,-38.5"/>
<text text-anchor="middle" x="941.5" y="-45.5" font-family="Helvetica,sans-Serif" font-size="10.00">CSP_get_cmd_id</text>
</a>
</g>
</g>
<!-- Node16&#45;&gt;Node17 -->
<g id="edge20" class="edge">
<title>Node16&#45;&gt;Node17</title>
<path fill="none" stroke="midnightblue" d="M461.89,-12.58C548.82,-19.01 775.72,-35.81 882.87,-43.74"/>
<polygon fill="midnightblue" stroke="midnightblue" points="882.63,-47.23 892.86,-44.47 883.15,-40.25 882.63,-47.23"/>
</g>
<!-- Node17&#45;&gt;Node7 -->
<g id="edge21" class="edge">
<title>Node17&#45;&gt;Node7</title>
<path fill="none" stroke="midnightblue" d="M990.03,-53.57C1042.73,-59.74 1128.48,-69.78 1190.62,-77.06"/>
<polygon fill="midnightblue" stroke="midnightblue" points="1190.43,-80.56 1200.77,-78.24 1191.24,-73.6 1190.43,-80.56"/>
</g>
<!-- Node19 -->
<g id="node19" class="node">
<title>Node19</title>
<g id="a_node19"><a xlink:href="cmd__space__packet_8c.html#a05169fb3461910d6b5b13a59a0026455" target="_top" xlink:title="コマンドパラメタの先頭ポインタを取得">
<polygon fill="white" stroke="black" points="539.5,-152.5 539.5,-171.5 661.5,-171.5 661.5,-152.5 539.5,-152.5"/>
<text text-anchor="middle" x="600.5" y="-159.5" font-family="Helvetica,sans-Serif" font-size="10.00">CSP_get_param_head</text>
</a>
</g>
</g>
<!-- Node18&#45;&gt;Node19 -->
<g id="edge23" class="edge">
<title>Node18&#45;&gt;Node19</title>
<path fill="none" stroke="midnightblue" d="M487.82,-162C501.11,-162 515.29,-162 528.93,-162"/>
<polygon fill="midnightblue" stroke="midnightblue" points="529.23,-165.5 539.23,-162 529.23,-158.5 529.23,-165.5"/>
</g>
</g>
</svg>
