<?xml version="1.0" encoding="UTF-8" standalone="no"?>
<!DOCTYPE svg PUBLIC "-//W3C//DTD SVG 1.1//EN"
 "http://www.w3.org/Graphics/SVG/1.1/DTD/svg11.dtd">
<!-- Generated by graphviz version 2.43.0 (0)
 -->
<!-- Title: CCP_form_and_exec_block_deploy_cmd Pages: 1 -->
<svg width="1757pt" height="137pt"
 viewBox="0.00 0.00 1757.00 137.00" xmlns="http://www.w3.org/2000/svg" xmlns:xlink="http://www.w3.org/1999/xlink">
<g id="graph0" class="graph" transform="scale(1 1) rotate(0) translate(4 133)">
<title>CCP_form_and_exec_block_deploy_cmd</title>
<polygon fill="white" stroke="transparent" points="-4,4 -4,-133 1753,-133 1753,4 -4,4"/>
<!-- Node1 -->
<g id="node1" class="node">
<title>Node1</title>
<g id="a_node1"><a xlink:title="BC展開 command を生成し，即時実行する">
<polygon fill="#bfbfbf" stroke="black" points="1602,-72 1602,-102 1749,-102 1749,-72 1602,-72"/>
<text text-anchor="start" x="1610" y="-90" font-family="Helvetica,sans-Serif" font-size="10.00">CCP_form_and_exec_block</text>
<text text-anchor="middle" x="1675.5" y="-79" font-family="Helvetica,sans-Serif" font-size="10.00">_deploy_cmd</text>
</a>
</g>
</g>
<!-- Node2 -->
<g id="node2" class="node">
<title>Node2</title>
<g id="a_node2"><a xlink:href="event__handler_8c.html#a8d7de705ac2b09f9f25644f0c9f55952" target="_top" xlink:title="EH 対応を実施">
<polygon fill="white" stroke="black" points="1458,-58.5 1458,-77.5 1538,-77.5 1538,-58.5 1458,-58.5"/>
<text text-anchor="middle" x="1498" y="-65.5" font-family="Helvetica,sans-Serif" font-size="10.00">EH_respond_</text>
</a>
</g>
</g>
<!-- Node1&#45;&gt;Node2 -->
<g id="edge1" class="edge">
<title>Node1&#45;&gt;Node2</title>
<path fill="none" stroke="midnightblue" d="M1591.78,-78.04C1573.02,-76.01 1553.94,-73.95 1538.01,-72.22"/>
<polygon fill="midnightblue" stroke="midnightblue" points="1591.53,-81.54 1601.85,-79.13 1592.29,-74.58 1591.53,-81.54"/>
</g>
<!-- Node17 -->
<g id="node17" class="node">
<title>Node17</title>
<g id="a_node17"><a xlink:href="mode__manager_8c.html#a4a483437e28116e6067d488392922a8f" target="_top" xlink:title="(モード遷移に対応する)ブロックコマンドのタイムラインへの展開を行う">
<polygon fill="white" stroke="black" points="1430,-96.5 1430,-115.5 1566,-115.5 1566,-96.5 1430,-96.5"/>
<text text-anchor="middle" x="1498" y="-103.5" font-family="Helvetica,sans-Serif" font-size="10.00">MM_deploy_block_cmd_</text>
</a>
</g>
</g>
<!-- Node1&#45;&gt;Node17 -->
<g id="edge19" class="edge">
<title>Node1&#45;&gt;Node17</title>
<path fill="none" stroke="midnightblue" d="M1591.84,-95.95C1583.26,-96.88 1574.62,-97.81 1566.25,-98.72"/>
<polygon fill="midnightblue" stroke="midnightblue" points="1592.29,-99.42 1601.85,-94.87 1591.53,-92.46 1592.29,-99.42"/>
</g>
<!-- Node3 -->
<g id="node3" class="node">
<title>Node3</title>
<g id="a_node3"><a xlink:href="event__handler_8c.html#ac7461e79109f06783e2c620a6d999a6b" target="_top" xlink:title="EH の対応条件をチェックし， EL_Event に対応する">
<polygon fill="white" stroke="black" points="1233,-58.5 1233,-77.5 1394,-77.5 1394,-58.5 1233,-58.5"/>
<text text-anchor="middle" x="1313.5" y="-65.5" font-family="Helvetica,sans-Serif" font-size="10.00">EH_check_rule_and_respond_</text>
</a>
</g>
</g>
<!-- Node2&#45;&gt;Node3 -->
<g id="edge2" class="edge">
<title>Node2&#45;&gt;Node3</title>
<path fill="none" stroke="midnightblue" d="M1447.41,-68C1430.97,-68 1412.23,-68 1394.12,-68"/>
<polygon fill="midnightblue" stroke="midnightblue" points="1447.85,-71.5 1457.85,-68 1447.85,-64.5 1447.85,-71.5"/>
</g>
<!-- Node4 -->
<g id="node4" class="node">
<title>Node4</title>
<g id="a_node4"><a xlink:href="event__handler_8c.html#a227ed3b7079c58dee50a81ce408549a2" target="_top" xlink:title="EL_Event に対応する EH_Rule が存在するかチェックし，対応する">
<polygon fill="white" stroke="black" points="1077,-9 1077,-39 1197,-39 1197,-9 1077,-9"/>
<text text-anchor="start" x="1085" y="-27" font-family="Helvetica,sans-Serif" font-size="10.00">EH_check_event_and</text>
<text text-anchor="middle" x="1137" y="-16" font-family="Helvetica,sans-Serif" font-size="10.00">_respond_</text>
</a>
</g>
</g>
<!-- Node3&#45;&gt;Node4 -->
<g id="edge3" class="edge">
<title>Node3&#45;&gt;Node4</title>
<path fill="none" stroke="midnightblue" d="M1264.71,-55.95C1243.82,-50.68 1219.1,-44.45 1197.07,-38.89"/>
<polygon fill="midnightblue" stroke="midnightblue" points="1264.08,-59.4 1274.64,-58.45 1265.8,-52.61 1264.08,-59.4"/>
</g>
<!-- Node5 -->
<g id="node5" class="node">
<title>Node5</title>
<g id="a_node5"><a xlink:href="event__handler_8c.html#af084576db8b00a4c7e4b117314b128db" target="_top" xlink:title="上位の EH の対応条件をチェックし，対応する">
<polygon fill="white" stroke="black" points="912,-52 912,-82 1041,-82 1041,-52 912,-52"/>
<text text-anchor="start" x="920" y="-70" font-family="Helvetica,sans-Serif" font-size="10.00">EH_check_higher_level</text>
<text text-anchor="middle" x="976.5" y="-59" font-family="Helvetica,sans-Serif" font-size="10.00">_rule_and_respond_</text>
</a>
</g>
</g>
<!-- Node4&#45;&gt;Node5 -->
<g id="edge4" class="edge">
<title>Node4&#45;&gt;Node5</title>
<path fill="none" stroke="midnightblue" d="M1070.64,-41.73C1058.1,-45.13 1045.09,-48.66 1032.9,-51.97"/>
<polygon fill="midnightblue" stroke="midnightblue" points="1071.83,-45.04 1080.56,-39.04 1070,-38.28 1071.83,-45.04"/>
</g>
<!-- Node6 -->
<g id="node6" class="node">
<title>Node6</title>
<g id="a_node6"><a xlink:href="event__handler_8h.html#a76ddd224739890733cbd318e2d5c015b" target="_top" xlink:title="event_handler の実行">
<polygon fill="white" stroke="black" points="939.5,-13.5 939.5,-32.5 1013.5,-32.5 1013.5,-13.5 939.5,-13.5"/>
<text text-anchor="middle" x="976.5" y="-20.5" font-family="Helvetica,sans-Serif" font-size="10.00">EH_execute</text>
</a>
</g>
</g>
<!-- Node4&#45;&gt;Node6 -->
<g id="edge6" class="edge">
<title>Node4&#45;&gt;Node6</title>
<path fill="none" stroke="midnightblue" d="M1066.87,-23.56C1048.49,-23.45 1029.36,-23.33 1013.55,-23.23"/>
<polygon fill="midnightblue" stroke="midnightblue" points="1066.96,-27.06 1076.98,-23.63 1067,-20.06 1066.96,-27.06"/>
</g>
<!-- Node5&#45;&gt;Node3 -->
<g id="edge5" class="edge">
<title>Node5&#45;&gt;Node3</title>
<path fill="none" stroke="midnightblue" d="M1051.17,-67.22C1104.89,-67.38 1177.6,-67.6 1232.68,-67.76"/>
<polygon fill="midnightblue" stroke="midnightblue" points="1051.05,-63.72 1041.04,-67.19 1051.03,-70.72 1051.05,-63.72"/>
</g>
<!-- Node7 -->
<g id="node7" class="node">
<title>Node7</title>
<g id="a_node7"><a xlink:href="event__utility_8h.html#a3c9e15f86a1f5af7de31347158f1d228" target="_top" xlink:title=" ">
<polygon fill="white" stroke="black" points="718,-0.5 718,-19.5 871,-19.5 871,-0.5 718,-0.5"/>
<text text-anchor="middle" x="794.5" y="-7.5" font-family="Helvetica,sans-Serif" font-size="10.00">Cmd_EVENT_UTIL_EXEC_EH</text>
</a>
</g>
</g>
<!-- Node6&#45;&gt;Node7 -->
<g id="edge7" class="edge">
<title>Node6&#45;&gt;Node7</title>
<path fill="none" stroke="midnightblue" d="M929.07,-19.65C911.45,-18.37 890.9,-16.89 871.27,-15.47"/>
<polygon fill="midnightblue" stroke="midnightblue" points="928.85,-23.14 939.07,-20.37 929.35,-16.16 928.85,-23.14"/>
</g>
<!-- Node14 -->
<g id="node14" class="node">
<title>Node14</title>
<g id="a_node14"><a xlink:href="event__utility_8c.html#a548bb66aea76e09e9f801c10fad11b98" target="_top" xlink:title=" ">
<polygon fill="white" stroke="black" points="734.5,-38.5 734.5,-57.5 854.5,-57.5 854.5,-38.5 734.5,-38.5"/>
<text text-anchor="middle" x="794.5" y="-45.5" font-family="Helvetica,sans-Serif" font-size="10.00">EVENT_UTIL_update_</text>
</a>
</g>
</g>
<!-- Node6&#45;&gt;Node14 -->
<g id="edge15" class="edge">
<title>Node6&#45;&gt;Node14</title>
<path fill="none" stroke="midnightblue" d="M929.01,-29.46C906.3,-32.61 878.73,-36.44 854.55,-39.8"/>
<polygon fill="midnightblue" stroke="midnightblue" points="929.65,-32.9 939.07,-28.06 928.69,-25.97 929.65,-32.9"/>
</g>
<!-- Node8 -->
<g id="node8" class="node">
<title>Node8</title>
<g id="a_node8"><a xlink:href="command__definitions_8c.html#aa375895192b16d8e7f0ff4545b54e6c4" target="_top" xlink:title="Cmd Tableのロード">
<polygon fill="white" stroke="black" points="553,-19.5 553,-38.5 666,-38.5 666,-19.5 553,-19.5"/>
<text text-anchor="middle" x="609.5" y="-26.5" font-family="Helvetica,sans-Serif" font-size="10.00">CA_load_cmd_table</text>
</a>
</g>
</g>
<!-- Node7&#45;&gt;Node8 -->
<g id="edge8" class="edge">
<title>Node7&#45;&gt;Node8</title>
<path fill="none" stroke="midnightblue" d="M707.54,-18.93C693.45,-20.39 679.18,-21.87 666.08,-23.23"/>
<polygon fill="midnightblue" stroke="midnightblue" points="708.16,-22.38 717.75,-17.87 707.44,-15.42 708.16,-22.38"/>
</g>
<!-- Node9 -->
<g id="node9" class="node">
<title>Node9</title>
<g id="a_node9"><a xlink:href="command__analyze_8h.html#ae6d1f376bf4e1c9c4b63bc3f04924c8a" target="_top" xlink:title="CA の初期化">
<polygon fill="white" stroke="black" points="400.5,-30.5 400.5,-49.5 477.5,-49.5 477.5,-30.5 400.5,-30.5"/>
<text text-anchor="middle" x="439" y="-37.5" font-family="Helvetica,sans-Serif" font-size="10.00">CA_initialize</text>
</a>
</g>
</g>
<!-- Node8&#45;&gt;Node9 -->
<g id="edge9" class="edge">
<title>Node8&#45;&gt;Node9</title>
<path fill="none" stroke="midnightblue" d="M542.83,-33.29C520.68,-34.73 496.72,-36.3 477.51,-37.55"/>
<polygon fill="midnightblue" stroke="midnightblue" points="543.11,-36.78 552.86,-32.63 542.65,-29.79 543.11,-36.78"/>
</g>
<!-- Node10 -->
<g id="node10" class="node">
<title>Node10</title>
<g id="a_node10"><a xlink:href="c2a__core__main_8h.html#a65ecdc63d8762ffde4db7f6c6e6f07cf" target="_top" xlink:title=" ">
<polygon fill="white" stroke="black" points="253,-68.5 253,-87.5 336,-87.5 336,-68.5 253,-68.5"/>
<text text-anchor="middle" x="294.5" y="-75.5" font-family="Helvetica,sans-Serif" font-size="10.00">C2A_core_init</text>
</a>
</g>
</g>
<!-- Node9&#45;&gt;Node10 -->
<g id="edge10" class="edge">
<title>Node9&#45;&gt;Node10</title>
<path fill="none" stroke="midnightblue" d="M392.35,-52.17C372.64,-57.43 349.93,-63.49 331.45,-68.41"/>
<polygon fill="midnightblue" stroke="midnightblue" points="393.28,-55.55 402.04,-49.59 391.48,-48.78 393.28,-55.55"/>
</g>
<!-- Node13 -->
<g id="node13" class="node">
<title>Node13</title>
<g id="a_node13"><a xlink:href="command__analyze_8h.html#a85d8daea84970ad2895a0209bd350b7b" target="_top" xlink:title=" ">
<polygon fill="white" stroke="black" points="253,-11.5 253,-30.5 336,-30.5 336,-11.5 253,-11.5"/>
<text text-anchor="middle" x="294.5" y="-18.5" font-family="Helvetica,sans-Serif" font-size="10.00">Cmd_CA_INIT</text>
</a>
</g>
</g>
<!-- Node9&#45;&gt;Node13 -->
<g id="edge13" class="edge">
<title>Node9&#45;&gt;Node13</title>
<path fill="none" stroke="midnightblue" d="M390.17,-33.62C372.67,-31.29 353.06,-28.67 336.24,-26.43"/>
<polygon fill="midnightblue" stroke="midnightblue" points="389.81,-37.11 400.19,-34.96 390.74,-30.17 389.81,-37.11"/>
</g>
<!-- Node11 -->
<g id="node11" class="node">
<title>Node11</title>
<g id="a_node11"><a xlink:href="c2a__main_8c.html#a630222a80cd8bffd4426d4a55a215069" target="_top" xlink:title=" ">
<polygon fill="white" stroke="black" points="155,-68.5 155,-87.5 217,-87.5 217,-68.5 155,-68.5"/>
<text text-anchor="middle" x="186" y="-75.5" font-family="Helvetica,sans-Serif" font-size="10.00">C2A_init_</text>
</a>
</g>
</g>
<!-- Node10&#45;&gt;Node11 -->
<g id="edge11" class="edge">
<title>Node10&#45;&gt;Node11</title>
<path fill="none" stroke="midnightblue" d="M242.76,-78C234.01,-78 225.17,-78 217.18,-78"/>
<polygon fill="midnightblue" stroke="midnightblue" points="242.93,-81.5 252.93,-78 242.93,-74.5 242.93,-81.5"/>
</g>
<!-- Node12 -->
<g id="node12" class="node">
<title>Node12</title>
<g id="a_node12"><a xlink:href="c2a__main_8c.html#ac3344a311adda8f9e7310924bedf81fc" target="_top" xlink:title=" ">
<polygon fill="white" stroke="black" points="0,-68.5 0,-87.5 119,-87.5 119,-68.5 0,-68.5"/>
<text text-anchor="middle" x="59.5" y="-75.5" font-family="Helvetica,sans-Serif" font-size="10.00">address_fixed_main_</text>
</a>
</g>
</g>
<!-- Node11&#45;&gt;Node12 -->
<g id="edge12" class="edge">
<title>Node11&#45;&gt;Node12</title>
<path fill="none" stroke="midnightblue" d="M144.83,-78C136.62,-78 127.82,-78 119.12,-78"/>
<polygon fill="midnightblue" stroke="midnightblue" points="144.86,-81.5 154.86,-78 144.86,-74.5 144.86,-81.5"/>
</g>
<!-- Node13&#45;&gt;Node8 -->
<g id="edge14" class="edge">
<title>Node13&#45;&gt;Node8</title>
<path fill="none" stroke="midnightblue" d="M346.39,-19.89C389.04,-19.23 451.52,-18.88 506,-21 521.25,-21.59 537.75,-22.68 552.96,-23.87"/>
<polygon fill="midnightblue" stroke="midnightblue" points="346.21,-16.39 336.27,-20.06 346.32,-23.39 346.21,-16.39"/>
</g>
<!-- Node15 -->
<g id="node15" class="node">
<title>Node15</title>
<g id="a_node15"><a xlink:href="event__utility_8h.html#aa819ee69e6cd34b9217e9627ee12f70c" target="_top" xlink:title=" ">
<polygon fill="white" stroke="black" points="542,-66.5 542,-85.5 677,-85.5 677,-66.5 542,-66.5"/>
<text text-anchor="middle" x="609.5" y="-73.5" font-family="Helvetica,sans-Serif" font-size="10.00">EVENT_UTIL_create_app</text>
</a>
</g>
</g>
<!-- Node14&#45;&gt;Node15 -->
<g id="edge16" class="edge">
<title>Node14&#45;&gt;Node15</title>
<path fill="none" stroke="midnightblue" d="M723.98,-58.64C707.09,-61.22 689.13,-63.97 672.61,-66.5"/>
<polygon fill="midnightblue" stroke="midnightblue" points="724.98,-62.02 734.34,-57.05 723.92,-55.1 724.98,-62.02"/>
</g>
<!-- Node16 -->
<g id="node16" class="node">
<title>Node16</title>
<g id="a_node16"><a xlink:href="app__registry_8h.html#ab944b1d78a41e427bc2ed57f9c4e9534" target="_top" xlink:title=" ">
<polygon fill="white" stroke="black" points="372,-68.5 372,-87.5 506,-87.5 506,-68.5 372,-68.5"/>
<text text-anchor="middle" x="439" y="-75.5" font-family="Helvetica,sans-Serif" font-size="10.00">AR_load_initial_settings</text>
</a>
</g>
</g>
<!-- Node15&#45;&gt;Node16 -->
<g id="edge17" class="edge">
<title>Node15&#45;&gt;Node16</title>
<path fill="none" stroke="midnightblue" d="M531.88,-76.91C523.27,-77.01 514.57,-77.11 506.11,-77.22"/>
<polygon fill="midnightblue" stroke="midnightblue" points="531.95,-80.41 541.9,-76.79 531.86,-73.41 531.95,-80.41"/>
</g>
<!-- Node16&#45;&gt;Node10 -->
<g id="edge18" class="edge">
<title>Node16&#45;&gt;Node10</title>
<path fill="none" stroke="midnightblue" d="M361.56,-78C352.89,-78 344.32,-78 336.38,-78"/>
<polygon fill="midnightblue" stroke="midnightblue" points="361.76,-81.5 371.76,-78 361.76,-74.5 361.76,-81.5"/>
</g>
<!-- Node18 -->
<g id="node18" class="node">
<title>Node18</title>
<g id="a_node18"><a xlink:href="mode__manager_8c.html#ae4381c1c84d8b5d8aa033e522530436d" target="_top" xlink:title="Cmd_MM_START_TRANSITIONの実体">
<polygon fill="white" stroke="black" points="917,-101.5 917,-120.5 1036,-120.5 1036,-101.5 917,-101.5"/>
<text text-anchor="middle" x="976.5" y="-108.5" font-family="Helvetica,sans-Serif" font-size="10.00">MM_start_transition_</text>
</a>
</g>
</g>
<!-- Node17&#45;&gt;Node18 -->
<g id="edge20" class="edge">
<title>Node17&#45;&gt;Node18</title>
<path fill="none" stroke="midnightblue" d="M1419.69,-106.74C1314.89,-107.75 1130.07,-109.53 1036.02,-110.44"/>
<polygon fill="midnightblue" stroke="midnightblue" points="1419.92,-110.24 1429.88,-106.65 1419.85,-103.24 1419.92,-110.24"/>
</g>
<!-- Node19 -->
<g id="node19" class="node">
<title>Node19</title>
<g id="a_node19"><a xlink:href="mode__manager_8h.html#a4ab015aaa816ea5bb1aab8d9b5c1d114" target="_top" xlink:title="モード遷移を開始するコマンド">
<polygon fill="white" stroke="black" points="713,-76.5 713,-95.5 876,-95.5 876,-76.5 713,-76.5"/>
<text text-anchor="middle" x="794.5" y="-83.5" font-family="Helvetica,sans-Serif" font-size="10.00">Cmd_MM_START_TRANSITION</text>
</a>
</g>
</g>
<!-- Node18&#45;&gt;Node19 -->
<g id="edge21" class="edge">
<title>Node18&#45;&gt;Node19</title>
<path fill="none" stroke="midnightblue" d="M906.54,-101.42C892.58,-99.48 877.9,-97.44 863.95,-95.51"/>
<polygon fill="midnightblue" stroke="midnightblue" points="906.17,-104.91 916.56,-102.81 907.14,-97.97 906.17,-104.91"/>
</g>
<!-- Node20 -->
<g id="node20" class="node">
<title>Node20</title>
<g id="a_node20"><a xlink:href="mode__manager_8h.html#a89fbf516698fe6c690438e21ec8efd82" target="_top" xlink:title="モード遷移を管理する ModeManager 構造体 (mode_manager_) の初期化">
<polygon fill="white" stroke="black" points="568.5,-109.5 568.5,-128.5 650.5,-128.5 650.5,-109.5 568.5,-109.5"/>
<text text-anchor="middle" x="609.5" y="-116.5" font-family="Helvetica,sans-Serif" font-size="10.00">MM_initialize</text>
</a>
</g>
</g>
<!-- Node18&#45;&gt;Node20 -->
<g id="edge23" class="edge">
<title>Node18&#45;&gt;Node20</title>
<path fill="none" stroke="midnightblue" d="M906.49,-112.51C830.91,-114.17 712.27,-116.77 650.66,-118.12"/>
<polygon fill="midnightblue" stroke="midnightblue" points="906.94,-116 916.86,-112.29 906.78,-109.01 906.94,-116"/>
</g>
<!-- Node19&#45;&gt;Node8 -->
<g id="edge22" class="edge">
<title>Node19&#45;&gt;Node8</title>
<path fill="none" stroke="midnightblue" d="M738.55,-73.99C729.95,-71.83 721.2,-69.48 713,-67 685.39,-58.66 654.43,-46.82 633.83,-38.59"/>
<polygon fill="midnightblue" stroke="midnightblue" points="737.99,-77.45 748.53,-76.42 739.64,-70.65 737.99,-77.45"/>
</g>
<!-- Node20&#45;&gt;Node10 -->
<g id="edge24" class="edge">
<title>Node20&#45;&gt;Node10</title>
<path fill="none" stroke="midnightblue" d="M557.94,-116.51C509.86,-113.62 435.63,-107.8 372,-97 357.83,-94.6 342.42,-90.97 329.16,-87.52"/>
<polygon fill="midnightblue" stroke="midnightblue" points="557.9,-120.01 568.09,-117.1 558.31,-113.02 557.9,-120.01"/>
</g>
</g>
</svg>
