<?xml version="1.0" encoding="UTF-8" standalone="no"?>
<!DOCTYPE svg PUBLIC "-//W3C//DTD SVG 1.1//EN"
 "http://www.w3.org/Graphics/SVG/1.1/DTD/svg11.dtd">
<!-- Generated by graphviz version 2.43.0 (0)
 -->
<!-- Title: src/src_core/TlmCmd/common_tlm_cmd_packet.h Pages: 1 -->
<svg width="1193pt" height="396pt"
 viewBox="0.00 0.00 1192.97 396.00" xmlns="http://www.w3.org/2000/svg" xmlns:xlink="http://www.w3.org/1999/xlink">
<g id="graph0" class="graph" transform="scale(1 1) rotate(0) translate(4 392)">
<title>src/src_core/TlmCmd/common_tlm_cmd_packet.h</title>
<polygon fill="white" stroke="transparent" points="-4,4 -4,-392 1188.97,-392 1188.97,4 -4,4"/>
<!-- Node1 -->
<g id="node1" class="node">
<title>Node1</title>
<g id="a_node1"><a xlink:title="CTCP 関連基本関数の宣言">
<polygon fill="#bfbfbf" stroke="black" points="528.65,-357.5 528.65,-387.5 685.65,-387.5 685.65,-357.5 528.65,-357.5"/>
<text text-anchor="start" x="536.65" y="-375.5" font-family="Helvetica,sans-Serif" font-size="10.00">src/src_core/TlmCmd</text>
<text text-anchor="middle" x="607.15" y="-364.5" font-family="Helvetica,sans-Serif" font-size="10.00">/common_tlm_cmd_packet.h</text>
</a>
</g>
</g>
<!-- Node2 -->
<g id="node2" class="node">
<title>Node2</title>
<g id="a_node2"><a xlink:href="stdint_8h.html" target="_top" xlink:title=" ">
<polygon fill="white" stroke="black" points="493.15,-67.5 493.15,-86.5 627.15,-86.5 627.15,-67.5 493.15,-67.5"/>
<text text-anchor="middle" x="560.15" y="-74.5" font-family="Helvetica,sans-Serif" font-size="10.00">src_user/Library/stdint.h</text>
</a>
</g>
</g>
<!-- Node1&#45;&gt;Node2 -->
<g id="edge1" class="edge">
<title>Node1&#45;&gt;Node2</title>
<path fill="none" stroke="midnightblue" d="M685.78,-365.56C827.25,-353.07 1115.61,-318.74 1176.15,-243 1187.81,-228.42 1187.99,-215.43 1176.15,-201 1108.81,-118.88 787.35,-90.52 637.45,-81.65"/>
<polygon fill="midnightblue" stroke="midnightblue" points="637.57,-78.15 627.39,-81.07 637.17,-85.14 637.57,-78.15"/>
</g>
<!-- Node4 -->
<g id="node4" class="node">
<title>Node4</title>
<g id="a_node4"><a xlink:href="common__tlm__cmd__packet__define_8h.html" target="_top" xlink:title="CTCP 型の定義">
<polygon fill="white" stroke="black" points="32.15,-279.5 32.15,-320.5 180.15,-320.5 180.15,-279.5 32.15,-279.5"/>
<text text-anchor="start" x="40.15" y="-308.5" font-family="Helvetica,sans-Serif" font-size="10.00">src_user/Settings/TlmCmd</text>
<text text-anchor="start" x="40.15" y="-297.5" font-family="Helvetica,sans-Serif" font-size="10.00">/common_tlm_cmd_packet</text>
<text text-anchor="middle" x="106.15" y="-286.5" font-family="Helvetica,sans-Serif" font-size="10.00">_define.h</text>
</a>
</g>
</g>
<!-- Node1&#45;&gt;Node4 -->
<g id="edge3" class="edge">
<title>Node1&#45;&gt;Node4</title>
<path fill="none" stroke="midnightblue" d="M528.6,-360.45C436.66,-347.51 285.02,-326.17 190.62,-312.89"/>
<polygon fill="midnightblue" stroke="midnightblue" points="190.92,-309.39 180.53,-311.47 189.94,-316.33 190.92,-309.39"/>
</g>
<!-- Node7 -->
<g id="node7" class="node">
<title>Node7</title>
<g id="a_node7"><a xlink:href="common__tlm__packet_8h.html" target="_top" xlink:title="CTP 関連基本関数の宣言">
<polygon fill="white" stroke="black" points="314.15,-290.5 314.15,-309.5 448.15,-309.5 448.15,-290.5 314.15,-290.5"/>
<text text-anchor="middle" x="381.15" y="-297.5" font-family="Helvetica,sans-Serif" font-size="10.00">./common_tlm_packet.h</text>
</a>
</g>
</g>
<!-- Node1&#45;&gt;Node7 -->
<g id="edge7" class="edge">
<title>Node1&#45;&gt;Node7</title>
<path fill="none" stroke="midnightblue" d="M562.23,-357.49C520.08,-344.34 457.76,-324.9 418.33,-312.6"/>
<polygon fill="midnightblue" stroke="midnightblue" points="419.17,-309.19 408.58,-309.55 417.08,-315.87 419.17,-309.19"/>
</g>
<!-- Node12 -->
<g id="node12" class="node">
<title>Node12</title>
<g id="a_node12"><a xlink:href="apid__define_8h.html" target="_top" xlink:title="CCSDS の APID を定義する">
<polygon fill="white" stroke="black" points="434.65,-140 434.65,-159 553.65,-159 553.65,-140 434.65,-140"/>
<text text-anchor="middle" x="494.15" y="-147" font-family="Helvetica,sans-Serif" font-size="10.00">./Ccsds/apid_define.h</text>
</a>
</g>
</g>
<!-- Node1&#45;&gt;Node12 -->
<g id="edge25" class="edge">
<title>Node1&#45;&gt;Node12</title>
<path fill="none" stroke="midnightblue" d="M609.68,-357.21C614.41,-325.89 621.34,-250.1 588.15,-201 575.82,-182.75 554.66,-170.56 535.54,-162.73"/>
<polygon fill="midnightblue" stroke="midnightblue" points="536.66,-159.42 526.07,-159.13 534.18,-165.96 536.66,-159.42"/>
</g>
<!-- Node13 -->
<g id="node13" class="node">
<title>Node13</title>
<g id="a_node13"><a xlink:href="common__cmd__packet_8h.html" target="_top" xlink:title="CCP 関連基本関数の宣言">
<polygon fill="white" stroke="black" points="653.15,-290.5 653.15,-309.5 791.15,-309.5 791.15,-290.5 653.15,-290.5"/>
<text text-anchor="middle" x="722.15" y="-297.5" font-family="Helvetica,sans-Serif" font-size="10.00">./common_cmd_packet.h</text>
</a>
</g>
</g>
<!-- Node1&#45;&gt;Node13 -->
<g id="edge17" class="edge">
<title>Node1&#45;&gt;Node13</title>
<path fill="none" stroke="midnightblue" d="M630.15,-357.4C650.29,-345.05 679.4,-327.21 699.46,-314.91"/>
<polygon fill="midnightblue" stroke="midnightblue" points="701.54,-317.74 708.23,-309.53 697.88,-311.78 701.54,-317.74"/>
</g>
<!-- Node3 -->
<g id="node3" class="node">
<title>Node3</title>
<g id="a_node3"><a xlink:href="sils__define_8h.html" target="_top" xlink:title="Switch the build settings between your real OBC and SILS">
<polygon fill="white" stroke="black" points="495.65,-0.5 495.65,-19.5 624.65,-19.5 624.65,-0.5 495.65,-0.5"/>
<text text-anchor="middle" x="560.15" y="-7.5" font-family="Helvetica,sans-Serif" font-size="10.00">../Settings/sils_define.h</text>
</a>
</g>
</g>
<!-- Node2&#45;&gt;Node3 -->
<g id="edge2" class="edge">
<title>Node2&#45;&gt;Node3</title>
<path fill="none" stroke="midnightblue" d="M560.15,-67.23C560.15,-57.68 560.15,-42.12 560.15,-29.78"/>
<polygon fill="midnightblue" stroke="midnightblue" points="563.65,-29.63 560.15,-19.63 556.65,-29.63 563.65,-29.63"/>
</g>
<!-- Node5 -->
<g id="node5" class="node">
<title>Node5</title>
<g id="a_node5"><a xlink:href="space__packet__typedef_8h.html" target="_top" xlink:title="SpacePacket 類 と CommonTlmCmdPacket 類が相互参照するのを回避するためのヘッダ">
<polygon fill="white" stroke="black" points="213.65,-134.5 213.65,-164.5 350.65,-164.5 350.65,-134.5 213.65,-134.5"/>
<text text-anchor="start" x="221.65" y="-152.5" font-family="Helvetica,sans-Serif" font-size="10.00">src_core/TlmCmd/Ccsds</text>
<text text-anchor="middle" x="282.15" y="-141.5" font-family="Helvetica,sans-Serif" font-size="10.00">/space_packet_typedef.h</text>
</a>
</g>
</g>
<!-- Node4&#45;&gt;Node5 -->
<g id="edge4" class="edge">
<title>Node4&#45;&gt;Node5</title>
<path fill="none" stroke="midnightblue" d="M49.45,-279.38C33.23,-270.84 17.45,-259.02 8.15,-243 -1.22,-226.86 -3.79,-215.35 8.15,-201 32.6,-171.64 131.22,-159.28 203.16,-154.13"/>
<polygon fill="midnightblue" stroke="midnightblue" points="203.83,-157.59 213.57,-153.42 203.35,-150.61 203.83,-157.59"/>
</g>
<!-- Node5&#45;&gt;Node2 -->
<g id="edge5" class="edge">
<title>Node5&#45;&gt;Node2</title>
<path fill="none" stroke="midnightblue" d="M337.41,-134.49C390.04,-121.14 468.2,-101.32 516.57,-89.05"/>
<polygon fill="midnightblue" stroke="midnightblue" points="517.59,-92.41 526.42,-86.55 515.87,-85.62 517.59,-92.41"/>
</g>
<!-- Node6 -->
<g id="node6" class="node">
<title>Node6</title>
<g id="a_node6"><a xlink:href="space__packet__typedef__params_8h.html" target="_top" xlink:title="SpacePacketの パケット型に関するユーザー設定">
<polygon fill="white" stroke="black" points="202.15,-56.5 202.15,-97.5 362.15,-97.5 362.15,-56.5 202.15,-56.5"/>
<text text-anchor="start" x="210.15" y="-85.5" font-family="Helvetica,sans-Serif" font-size="10.00">src_user/Settings/TlmCmd</text>
<text text-anchor="start" x="210.15" y="-74.5" font-family="Helvetica,sans-Serif" font-size="10.00">/Ccsds/space_packet_typedef</text>
<text text-anchor="middle" x="282.15" y="-63.5" font-family="Helvetica,sans-Serif" font-size="10.00">_params.h</text>
</a>
</g>
</g>
<!-- Node5&#45;&gt;Node6 -->
<g id="edge6" class="edge">
<title>Node5&#45;&gt;Node6</title>
<path fill="none" stroke="midnightblue" d="M282.15,-134.23C282.15,-126.57 282.15,-116.84 282.15,-107.63"/>
<polygon fill="midnightblue" stroke="midnightblue" points="285.65,-107.59 282.15,-97.59 278.65,-107.59 285.65,-107.59"/>
</g>
<!-- Node8 -->
<g id="node8" class="node">
<title>Node8</title>
<g id="a_node8"><a xlink:href="obc__time_8h.html" target="_top" xlink:title="OBCの時刻情報の定義と演算">
<polygon fill="white" stroke="black" points="673.65,-207 673.65,-237 806.65,-237 806.65,-207 673.65,-207"/>
<text text-anchor="start" x="681.65" y="-225" font-family="Helvetica,sans-Serif" font-size="10.00">../System/TimeManager</text>
<text text-anchor="middle" x="740.15" y="-214" font-family="Helvetica,sans-Serif" font-size="10.00">/obc_time.h</text>
</a>
</g>
</g>
<!-- Node7&#45;&gt;Node8 -->
<g id="edge8" class="edge">
<title>Node7&#45;&gt;Node8</title>
<path fill="none" stroke="midnightblue" d="M421.64,-290.43C480.22,-278.03 589.71,-254.85 663.76,-239.17"/>
<polygon fill="midnightblue" stroke="midnightblue" points="664.91,-242.51 673.97,-237.01 663.46,-235.66 664.91,-242.51"/>
</g>
<!-- Node10 -->
<g id="node10" class="node">
<title>Node10</title>
<g id="a_node10"><a xlink:href="telemetry__definitions_8h.html" target="_top" xlink:title="テレメトリ定義">
<polygon fill="white" stroke="black" points="201.15,-207 201.15,-237 353.15,-237 353.15,-207 201.15,-207"/>
<text text-anchor="start" x="209.15" y="-225" font-family="Helvetica,sans-Serif" font-size="10.00">src_user/TlmCmd/telemetry</text>
<text text-anchor="middle" x="277.15" y="-214" font-family="Helvetica,sans-Serif" font-size="10.00">_definitions.h</text>
</a>
</g>
</g>
<!-- Node7&#45;&gt;Node10 -->
<g id="edge11" class="edge">
<title>Node7&#45;&gt;Node10</title>
<path fill="none" stroke="midnightblue" d="M369.22,-290.28C353.56,-278.84 325.59,-258.4 304.58,-243.04"/>
<polygon fill="midnightblue" stroke="midnightblue" points="306.48,-240.09 296.34,-237.02 302.35,-245.75 306.48,-240.09"/>
</g>
<!-- Node11 -->
<g id="node11" class="node">
<title>Node11</title>
<g id="a_node11"><a xlink:href="common__tlm__packet__define_8h.html" target="_top" xlink:title="CTP 型の定義">
<polygon fill="white" stroke="black" points="17.15,-207 17.15,-237 183.15,-237 183.15,-207 17.15,-207"/>
<text text-anchor="start" x="25.15" y="-225" font-family="Helvetica,sans-Serif" font-size="10.00">src_user/Settings/TlmCmd</text>
<text text-anchor="middle" x="100.15" y="-214" font-family="Helvetica,sans-Serif" font-size="10.00">/common_tlm_packet_define.h</text>
</a>
</g>
</g>
<!-- Node7&#45;&gt;Node11 -->
<g id="edge12" class="edge">
<title>Node7&#45;&gt;Node11</title>
<path fill="none" stroke="midnightblue" d="M349.47,-290.43C304.08,-278.15 219.66,-255.32 161.73,-239.66"/>
<polygon fill="midnightblue" stroke="midnightblue" points="162.53,-236.24 151.96,-237.01 160.7,-243 162.53,-236.24"/>
</g>
<!-- Node7&#45;&gt;Node12 -->
<g id="edge16" class="edge">
<title>Node7&#45;&gt;Node12</title>
<path fill="none" stroke="midnightblue" d="M380.5,-290.44C379.57,-272.15 379.81,-228.63 400.15,-201 413.5,-182.88 435.34,-170.58 454.62,-162.67"/>
<polygon fill="midnightblue" stroke="midnightblue" points="456.03,-165.87 464.11,-159.02 453.52,-159.34 456.03,-165.87"/>
</g>
<!-- Node8&#45;&gt;Node2 -->
<g id="edge9" class="edge">
<title>Node8&#45;&gt;Node2</title>
<path fill="none" stroke="midnightblue" d="M741.04,-206.79C741.42,-187.84 739.21,-154.36 721.15,-134 699.81,-109.93 667.56,-96.21 637.51,-88.38"/>
<polygon fill="midnightblue" stroke="midnightblue" points="637.97,-84.89 627.43,-85.94 636.33,-91.69 637.97,-84.89"/>
</g>
<!-- Node9 -->
<g id="node9" class="node">
<title>Node9</title>
<g id="a_node9"><a xlink:href="obc__time__params_8h.html" target="_top" xlink:title="OBCTのCoreパラメタのオーバーライド用ヘッダー">
<polygon fill="white" stroke="black" points="572.15,-134.5 572.15,-164.5 712.15,-164.5 712.15,-134.5 572.15,-134.5"/>
<text text-anchor="start" x="580.15" y="-152.5" font-family="Helvetica,sans-Serif" font-size="10.00">src_user/Settings/System</text>
<text text-anchor="middle" x="642.15" y="-141.5" font-family="Helvetica,sans-Serif" font-size="10.00">/obc_time_params.h</text>
</a>
</g>
</g>
<!-- Node8&#45;&gt;Node9 -->
<g id="edge10" class="edge">
<title>Node8&#45;&gt;Node9</title>
<path fill="none" stroke="midnightblue" d="M720.32,-206.73C705.88,-196.35 686.13,-182.13 670.09,-170.6"/>
<polygon fill="midnightblue" stroke="midnightblue" points="671.78,-167.5 661.62,-164.5 667.69,-173.19 671.78,-167.5"/>
</g>
<!-- Node11&#45;&gt;Node5 -->
<g id="edge13" class="edge">
<title>Node11&#45;&gt;Node5</title>
<path fill="none" stroke="midnightblue" d="M136.55,-206.9C165.19,-195.81 205.29,-180.28 236.15,-168.32"/>
<polygon fill="midnightblue" stroke="midnightblue" points="237.76,-171.45 245.82,-164.57 235.23,-164.92 237.76,-171.45"/>
</g>
<!-- Node11&#45;&gt;Node12 -->
<g id="edge14" class="edge">
<title>Node11&#45;&gt;Node12</title>
<path fill="none" stroke="midnightblue" d="M162.92,-206.93C172.69,-204.86 182.68,-202.82 192.15,-201 273.25,-185.41 367.14,-170.15 428.42,-160.55"/>
<polygon fill="midnightblue" stroke="midnightblue" points="429.01,-164 438.35,-159 427.93,-157.09 429.01,-164"/>
</g>
<!-- Node12&#45;&gt;Node2 -->
<g id="edge15" class="edge">
<title>Node12&#45;&gt;Node2</title>
<path fill="none" stroke="midnightblue" d="M502.25,-139.86C512.83,-128.54 531.6,-108.5 544.9,-94.29"/>
<polygon fill="midnightblue" stroke="midnightblue" points="547.71,-96.41 551.99,-86.72 542.6,-91.62 547.71,-96.41"/>
</g>
<!-- Node13&#45;&gt;Node8 -->
<g id="edge18" class="edge">
<title>Node13&#45;&gt;Node8</title>
<path fill="none" stroke="midnightblue" d="M724.22,-290.28C726.7,-279.8 730.97,-261.79 734.46,-247.03"/>
<polygon fill="midnightblue" stroke="midnightblue" points="737.93,-247.56 736.83,-237.02 731.12,-245.94 737.93,-247.56"/>
</g>
<!-- Node13&#45;&gt;Node12 -->
<g id="edge23" class="edge">
<title>Node13&#45;&gt;Node12</title>
<path fill="none" stroke="midnightblue" d="M713.46,-290.48C689.46,-266.96 623.83,-202.73 621.15,-201 594.3,-183.62 560.52,-170.55 534.55,-162.06"/>
<polygon fill="midnightblue" stroke="midnightblue" points="535.6,-158.72 525.01,-159.03 533.48,-165.39 535.6,-158.72"/>
</g>
<!-- Node14 -->
<g id="node14" class="node">
<title>Node14</title>
<g id="a_node14"><a xlink:href="command__definitions_8h.html" target="_top" xlink:title="コマンド定義">
<polygon fill="white" stroke="black" points="1013.65,-207 1013.65,-237 1166.65,-237 1166.65,-207 1013.65,-207"/>
<text text-anchor="start" x="1021.65" y="-225" font-family="Helvetica,sans-Serif" font-size="10.00">src_user/TlmCmd/command</text>
<text text-anchor="middle" x="1090.15" y="-214" font-family="Helvetica,sans-Serif" font-size="10.00">_definitions.h</text>
</a>
</g>
</g>
<!-- Node13&#45;&gt;Node14 -->
<g id="edge19" class="edge">
<title>Node13&#45;&gt;Node14</title>
<path fill="none" stroke="midnightblue" d="M767.67,-290.43C823.49,-279.82 920.96,-260.93 1004.15,-243 1009.59,-241.83 1015.2,-240.59 1020.85,-239.32"/>
<polygon fill="midnightblue" stroke="midnightblue" points="1022.01,-242.65 1030.99,-237.02 1020.47,-235.82 1022.01,-242.65"/>
</g>
<!-- Node15 -->
<g id="node15" class="node">
<title>Node15</title>
<g id="a_node15"><a xlink:href="common__cmd__packet__define_8h.html" target="_top" xlink:title="CCP 型の定義">
<polygon fill="white" stroke="black" points="409.15,-207 409.15,-237 579.15,-237 579.15,-207 409.15,-207"/>
<text text-anchor="start" x="417.15" y="-225" font-family="Helvetica,sans-Serif" font-size="10.00">src_user/Settings/TlmCmd</text>
<text text-anchor="middle" x="494.15" y="-214" font-family="Helvetica,sans-Serif" font-size="10.00">/common_cmd_packet_define.h</text>
</a>
</g>
</g>
<!-- Node13&#45;&gt;Node15 -->
<g id="edge20" class="edge">
<title>Node13&#45;&gt;Node15</title>
<path fill="none" stroke="midnightblue" d="M696.44,-290.43C660.13,-278.32 593.01,-255.95 546.09,-240.31"/>
<polygon fill="midnightblue" stroke="midnightblue" points="546.99,-236.92 536.4,-237.08 544.78,-243.56 546.99,-236.92"/>
</g>
<!-- Node16 -->
<g id="node16" class="node">
<title>Node16</title>
<g id="a_node16"><a xlink:href="timeline__command__dispatcher__define_8h.html" target="_top" xlink:title="timeline command dispatcher の各種定義">
<polygon fill="white" stroke="black" points="825.15,-201.5 825.15,-242.5 995.15,-242.5 995.15,-201.5 825.15,-201.5"/>
<text text-anchor="start" x="833.15" y="-230.5" font-family="Helvetica,sans-Serif" font-size="10.00">src_user/Settings/Applications</text>
<text text-anchor="start" x="833.15" y="-219.5" font-family="Helvetica,sans-Serif" font-size="10.00">/timeline_command_dispatcher</text>
<text text-anchor="middle" x="910.15" y="-208.5" font-family="Helvetica,sans-Serif" font-size="10.00">_define.h</text>
</a>
</g>
</g>
<!-- Node13&#45;&gt;Node16 -->
<g id="edge24" class="edge">
<title>Node13&#45;&gt;Node16</title>
<path fill="none" stroke="midnightblue" d="M743.35,-290.43C769.53,-279.85 815.13,-261.41 852.04,-246.49"/>
<polygon fill="midnightblue" stroke="midnightblue" points="853.75,-249.58 861.71,-242.59 851.12,-243.09 853.75,-249.58"/>
</g>
<!-- Node15&#45;&gt;Node5 -->
<g id="edge21" class="edge">
<title>Node15&#45;&gt;Node5</title>
<path fill="none" stroke="midnightblue" d="M452.02,-206.99C418.24,-195.76 370.67,-179.94 334.46,-167.9"/>
<polygon fill="midnightblue" stroke="midnightblue" points="335.17,-164.44 324.57,-164.61 332.96,-171.08 335.17,-164.44"/>
</g>
<!-- Node15&#45;&gt;Node12 -->
<g id="edge22" class="edge">
<title>Node15&#45;&gt;Node12</title>
<path fill="none" stroke="midnightblue" d="M494.15,-206.73C494.15,-196 494.15,-181.19 494.15,-169.46"/>
<polygon fill="midnightblue" stroke="midnightblue" points="497.65,-169.39 494.15,-159.39 490.65,-169.39 497.65,-169.39"/>
</g>
</g>
</svg>
