<?xml version="1.0" encoding="UTF-8" standalone="no"?>
<!DOCTYPE svg PUBLIC "-//W3C//DTD SVG 1.1//EN"
 "http://www.w3.org/Graphics/SVG/1.1/DTD/svg11.dtd">
<!-- Generated by graphviz version 2.43.0 (0)
 -->
<!-- Title: CCP_is_valid_packet Pages: 1 -->
<svg width="1350pt" height="725pt"
 viewBox="0.00 0.00 1350.00 724.50" xmlns="http://www.w3.org/2000/svg" xmlns:xlink="http://www.w3.org/1999/xlink">
<g id="graph0" class="graph" transform="scale(1 1) rotate(0) translate(4 720.5)">
<title>CCP_is_valid_packet</title>
<polygon fill="white" stroke="transparent" points="-4,4 -4,-720.5 1346,-720.5 1346,4 -4,4"/>
<!-- Node1 -->
<g id="node1" class="node">
<title>Node1</title>
<g id="a_node1"><a xlink:title="有効なパケットかチェックする">
<polygon fill="#bfbfbf" stroke="black" points="1226,-484.5 1226,-503.5 1342,-503.5 1342,-484.5 1226,-484.5"/>
<text text-anchor="middle" x="1284" y="-491.5" font-family="Helvetica,sans-Serif" font-size="10.00">CCP_is_valid_packet</text>
</a>
</g>
</g>
<!-- Node2 -->
<g id="node2" class="node">
<title>Node2</title>
<g id="a_node2"><a xlink:href="driver__super__issl__format_8h.html#a5076f38576e3c77d7333169b524e3cd1" target="_top" xlink:title="CommonCmdPacket を受信データからコピーして取得する">
<polygon fill="white" stroke="black" points="1065,-522.5 1065,-541.5 1184,-541.5 1184,-522.5 1065,-522.5"/>
<text text-anchor="middle" x="1124.5" y="-529.5" font-family="Helvetica,sans-Serif" font-size="10.00">DS_C2AFMT_get_ccp</text>
</a>
</g>
</g>
<!-- Node1&#45;&gt;Node2 -->
<g id="edge1" class="edge">
<title>Node1&#45;&gt;Node2</title>
<path fill="none" stroke="midnightblue" d="M1233.4,-505.97C1211.32,-511.29 1185.7,-517.48 1164.96,-522.48"/>
<polygon fill="midnightblue" stroke="midnightblue" points="1234.36,-509.34 1243.26,-503.59 1232.71,-502.53 1234.36,-509.34"/>
</g>
<!-- Node3 -->
<g id="node3" class="node">
<title>Node3</title>
<g id="a_node3"><a xlink:href="packet__handler_8h.html#a9d16c8b958f0f983cf15674d6c528b02" target="_top" xlink:title="CCP を解析する">
<polygon fill="white" stroke="black" points="881.5,-566.5 881.5,-585.5 1018.5,-585.5 1018.5,-566.5 881.5,-566.5"/>
<text text-anchor="middle" x="950" y="-573.5" font-family="Helvetica,sans-Serif" font-size="10.00">PH_analyze_cmd_packet</text>
</a>
</g>
</g>
<!-- Node1&#45;&gt;Node3 -->
<g id="edge2" class="edge">
<title>Node1&#45;&gt;Node3</title>
<path fill="none" stroke="midnightblue" d="M1215.97,-492.05C1170.66,-492.56 1110.03,-496.86 1059,-513 1021.13,-524.98 982.21,-552.03 963.1,-566.48"/>
<polygon fill="midnightblue" stroke="midnightblue" points="1215.99,-495.55 1225.97,-491.99 1215.95,-488.55 1215.99,-495.55"/>
</g>
<!-- Node26 -->
<g id="node19" class="node">
<title>Node26</title>
<g id="a_node19"><a xlink:href="packet__handler_8h.html#a7b1777e6101ff2eeeef6042166974cdc" target="_top" xlink:title="CCP をコマンドとして解釈して実行，ないしは別機器へ配送する">
<polygon fill="white" stroke="black" points="1059,-386.5 1059,-405.5 1190,-405.5 1190,-386.5 1059,-386.5"/>
<text text-anchor="middle" x="1124.5" y="-393.5" font-family="Helvetica,sans-Serif" font-size="10.00">PH_dispatch_command</text>
</a>
</g>
</g>
<!-- Node1&#45;&gt;Node26 -->
<g id="edge23" class="edge">
<title>Node1&#45;&gt;Node26</title>
<path fill="none" stroke="midnightblue" d="M1259.11,-479.14C1226.48,-458.83 1168.85,-422.97 1141.18,-405.76"/>
<polygon fill="midnightblue" stroke="midnightblue" points="1257.27,-482.11 1267.61,-484.42 1260.97,-476.17 1257.27,-482.11"/>
</g>
<!-- Node4 -->
<g id="node4" class="node">
<title>Node4</title>
<g id="a_node4"><a xlink:href="telemetry__manager_8h.html#a923d6ea9078726984798c4b0800381fe" target="_top" xlink:title="TLM送出用TLをクリア">
<polygon fill="white" stroke="black" points="454.5,-623.5 454.5,-642.5 626.5,-642.5 626.5,-623.5 454.5,-623.5"/>
<text text-anchor="middle" x="540.5" y="-630.5" font-family="Helvetica,sans-Serif" font-size="10.00">Cmd_TLM_MGR_CLEAR_TLM_TL</text>
</a>
</g>
</g>
<!-- Node3&#45;&gt;Node4 -->
<g id="edge3" class="edge">
<title>Node3&#45;&gt;Node4</title>
<path fill="none" stroke="midnightblue" d="M918.11,-589.43C896.85,-598.03 867.73,-608.56 841,-614 769.65,-628.53 686.95,-632.85 626.55,-633.79"/>
<polygon fill="midnightblue" stroke="midnightblue" points="919.67,-592.57 927.57,-585.52 916.99,-586.1 919.67,-592.57"/>
</g>
<!-- Node12 -->
<g id="node9" class="node">
<title>Node12</title>
<g id="a_node9"><a xlink:href="telemetry__manager_8h.html#ad6f65df0da86f70cbd0f5b1e6cb32dbc" target="_top" xlink:title="TLM送出開始">
<polygon fill="white" stroke="black" points="678.5,-585.5 678.5,-604.5 832.5,-604.5 832.5,-585.5 678.5,-585.5"/>
<text text-anchor="middle" x="755.5" y="-592.5" font-family="Helvetica,sans-Serif" font-size="10.00">Cmd_TLM_MGR_START_TLM</text>
</a>
</g>
</g>
<!-- Node3&#45;&gt;Node12 -->
<g id="edge9" class="edge">
<title>Node3&#45;&gt;Node12</title>
<path fill="none" stroke="midnightblue" d="M871.33,-583.67C858.63,-584.92 845.48,-586.22 832.81,-587.47"/>
<polygon fill="midnightblue" stroke="midnightblue" points="871.79,-587.14 881.4,-582.67 871.11,-580.17 871.79,-587.14"/>
</g>
<!-- Node13 -->
<g id="node10" class="node">
<title>Node13</title>
<g id="a_node10"><a xlink:href="divided__cmd__utility_8h.html#a65ad0b8aa0af1c9c0bdd74aa37b15b15" target="_top" xlink:title="次の分割の実行を登録">
<polygon fill="white" stroke="black" points="701.5,-547.5 701.5,-566.5 809.5,-566.5 809.5,-547.5 701.5,-547.5"/>
<text text-anchor="middle" x="755.5" y="-554.5" font-family="Helvetica,sans-Serif" font-size="10.00">DCU_register_next</text>
</a>
</g>
</g>
<!-- Node3&#45;&gt;Node13 -->
<g id="edge11" class="edge">
<title>Node3&#45;&gt;Node13</title>
<path fill="none" stroke="midnightblue" d="M871.35,-568.34C850.65,-566.29 828.76,-564.13 809.7,-562.25"/>
<polygon fill="midnightblue" stroke="midnightblue" points="871.11,-571.83 881.4,-569.33 871.79,-564.86 871.11,-571.83"/>
</g>
<!-- Node16 -->
<g id="node13" class="node">
<title>Node16</title>
<g id="a_node13"><a xlink:href="gs_8c.html#a71a6268f1b467c60429c671e47e51e1d" target="_top" xlink:title="地上からの受信データ解析関数">
<polygon fill="white" stroke="black" points="692.5,-664.5 692.5,-683.5 818.5,-683.5 818.5,-664.5 692.5,-664.5"/>
<text text-anchor="middle" x="755.5" y="-671.5" font-family="Helvetica,sans-Serif" font-size="10.00">GS_analyze_rec_data_</text>
</a>
</g>
</g>
<!-- Node3&#45;&gt;Node16 -->
<g id="edge16" class="edge">
<title>Node3&#45;&gt;Node16</title>
<path fill="none" stroke="midnightblue" d="M928.55,-591.9C907.54,-607.63 873.42,-631.52 841,-647 826.13,-654.1 808.93,-659.98 793.94,-664.42"/>
<polygon fill="midnightblue" stroke="midnightblue" points="930.85,-594.55 936.7,-585.71 926.62,-588.97 930.85,-594.55"/>
</g>
<!-- Node25 -->
<g id="node18" class="node">
<title>Node25</title>
<g id="a_node18"><a xlink:href="packet__handler_8h.html#acf757fa72967bf66b39dc5ced7132330" target="_top" xlink:title="CTCP を解析する">
<polygon fill="white" stroke="black" points="700,-509.5 700,-528.5 811,-528.5 811,-509.5 700,-509.5"/>
<text text-anchor="middle" x="755.5" y="-516.5" font-family="Helvetica,sans-Serif" font-size="10.00">PH_analyze_packet</text>
</a>
</g>
</g>
<!-- Node3&#45;&gt;Node25 -->
<g id="edge22" class="edge">
<title>Node3&#45;&gt;Node25</title>
<path fill="none" stroke="midnightblue" d="M914.9,-562.85C893.81,-555 866.07,-545.2 841,-538 829,-534.55 815.91,-531.35 803.68,-528.58"/>
<polygon fill="midnightblue" stroke="midnightblue" points="913.79,-566.17 924.39,-566.41 916.26,-559.62 913.79,-566.17"/>
</g>
<!-- Node5 -->
<g id="node5" class="node">
<title>Node5</title>
<g id="a_node5"><a xlink:href="command__definitions_8c.html#aa375895192b16d8e7f0ff4545b54e6c4" target="_top" xlink:title="Cmd Tableのロード">
<polygon fill="white" stroke="black" points="293.5,-421.5 293.5,-440.5 406.5,-440.5 406.5,-421.5 293.5,-421.5"/>
<text text-anchor="middle" x="350" y="-428.5" font-family="Helvetica,sans-Serif" font-size="10.00">CA_load_cmd_table</text>
</a>
</g>
</g>
<!-- Node4&#45;&gt;Node5 -->
<g id="edge4" class="edge">
<title>Node4&#45;&gt;Node5</title>
<path fill="none" stroke="midnightblue" d="M464.99,-619.67C458.56,-616.78 452.44,-613.26 447,-609 388.43,-563.07 361.03,-471.14 353.34,-440.9"/>
<polygon fill="midnightblue" stroke="midnightblue" points="464.01,-623.05 474.59,-623.48 466.59,-616.54 464.01,-623.05"/>
</g>
<!-- Node6 -->
<g id="node6" class="node">
<title>Node6</title>
<g id="a_node6"><a xlink:href="command__analyze_8h.html#ae6d1f376bf4e1c9c4b63bc3f04924c8a" target="_top" xlink:title="CA の初期化">
<polygon fill="white" stroke="black" points="147.5,-383.5 147.5,-402.5 224.5,-402.5 224.5,-383.5 147.5,-383.5"/>
<text text-anchor="middle" x="186" y="-390.5" font-family="Helvetica,sans-Serif" font-size="10.00">CA_initialize</text>
</a>
</g>
</g>
<!-- Node5&#45;&gt;Node6 -->
<g id="edge5" class="edge">
<title>Node5&#45;&gt;Node6</title>
<path fill="none" stroke="midnightblue" d="M298.18,-419.08C274.34,-413.49 246.43,-406.94 224.54,-401.8"/>
<polygon fill="midnightblue" stroke="midnightblue" points="297.59,-422.53 308.12,-421.41 299.18,-415.72 297.59,-422.53"/>
</g>
<!-- Node7 -->
<g id="node7" class="node">
<title>Node7</title>
<g id="a_node7"><a xlink:href="c2a__core__main_8h.html#a65ecdc63d8762ffde4db7f6c6e6f07cf" target="_top" xlink:title=" ">
<polygon fill="white" stroke="red" points="0,-269.5 0,-288.5 83,-288.5 83,-269.5 0,-269.5"/>
<text text-anchor="middle" x="41.5" y="-276.5" font-family="Helvetica,sans-Serif" font-size="10.00">C2A_core_init</text>
</a>
</g>
</g>
<!-- Node6&#45;&gt;Node7 -->
<g id="edge6" class="edge">
<title>Node6&#45;&gt;Node7</title>
<path fill="none" stroke="midnightblue" d="M164.74,-376.79C134.66,-352.73 79.1,-308.28 54.62,-288.69"/>
<polygon fill="midnightblue" stroke="midnightblue" points="162.86,-379.77 172.85,-383.28 167.23,-374.3 162.86,-379.77"/>
</g>
<!-- Node11 -->
<g id="node8" class="node">
<title>Node11</title>
<g id="a_node8"><a xlink:href="command__analyze_8h.html#aee45638c6cff2c25a997905b209079d0" target="_top" xlink:title=" ">
<polygon fill="white" stroke="black" points="0,-402.5 0,-421.5 83,-421.5 83,-402.5 0,-402.5"/>
<text text-anchor="middle" x="41.5" y="-409.5" font-family="Helvetica,sans-Serif" font-size="10.00">Cmd_CA_INIT</text>
</a>
</g>
</g>
<!-- Node6&#45;&gt;Node11 -->
<g id="edge7" class="edge">
<title>Node6&#45;&gt;Node11</title>
<path fill="none" stroke="midnightblue" d="M137.17,-399.38C119.67,-401.71 100.06,-404.33 83.24,-406.57"/>
<polygon fill="midnightblue" stroke="midnightblue" points="137.74,-402.83 147.19,-398.04 136.81,-395.89 137.74,-402.83"/>
</g>
<!-- Node11&#45;&gt;Node5 -->
<g id="edge8" class="edge">
<title>Node11&#45;&gt;Node5</title>
<path fill="none" stroke="midnightblue" d="M93.64,-415.17C148.89,-418.6 236.61,-424.03 293.5,-427.56"/>
<polygon fill="midnightblue" stroke="midnightblue" points="93.58,-411.66 83.39,-414.53 93.15,-418.65 93.58,-411.66"/>
</g>
<!-- Node12&#45;&gt;Node5 -->
<g id="edge10" class="edge">
<title>Node12&#45;&gt;Node5</title>
<path fill="none" stroke="midnightblue" d="M696.13,-606.02C630.8,-615.2 524.04,-620.51 447,-576 392.36,-544.44 362.95,-467.77 353.99,-440.68"/>
<polygon fill="midnightblue" stroke="midnightblue" points="696.86,-609.45 706.24,-604.52 695.84,-602.52 696.86,-609.45"/>
</g>
<!-- Node14 -->
<g id="node11" class="node">
<title>Node14</title>
<g id="a_node11"><a xlink:href="telemetry__manager_8h.html#af76453743bae7b361005376190100cbf" target="_top" xlink:title="high_freq_tlm, low_freq_tlm を初期化">
<polygon fill="white" stroke="black" points="447,-547.5 447,-566.5 634,-566.5 634,-547.5 447,-547.5"/>
<text text-anchor="middle" x="540.5" y="-554.5" font-family="Helvetica,sans-Serif" font-size="10.00">Cmd_TLM_MGR_CLEAR_USER_TLM</text>
</a>
</g>
</g>
<!-- Node13&#45;&gt;Node14 -->
<g id="edge12" class="edge">
<title>Node13&#45;&gt;Node14</title>
<path fill="none" stroke="midnightblue" d="M691.28,-557C673.36,-557 653.47,-557 634.19,-557"/>
<polygon fill="midnightblue" stroke="midnightblue" points="691.3,-560.5 701.3,-557 691.3,-553.5 691.3,-560.5"/>
</g>
<!-- Node15 -->
<g id="node12" class="node">
<title>Node15</title>
<g id="a_node12"><a xlink:href="telemetry__manager_8h.html#a19d6e76042721fe9e576dbacaf49b365" target="_top" xlink:title="初期化">
<polygon fill="white" stroke="black" points="481.5,-509.5 481.5,-528.5 599.5,-528.5 599.5,-509.5 481.5,-509.5"/>
<text text-anchor="middle" x="540.5" y="-516.5" font-family="Helvetica,sans-Serif" font-size="10.00">Cmd_TLM_MGR_INIT</text>
</a>
</g>
</g>
<!-- Node13&#45;&gt;Node15 -->
<g id="edge14" class="edge">
<title>Node13&#45;&gt;Node15</title>
<path fill="none" stroke="midnightblue" d="M691.13,-545.69C660.44,-540.22 624,-533.72 594.76,-528.5"/>
<polygon fill="midnightblue" stroke="midnightblue" points="690.84,-549.2 701.3,-547.51 692.07,-542.31 690.84,-549.2"/>
</g>
<!-- Node14&#45;&gt;Node5 -->
<g id="edge13" class="edge">
<title>Node14&#45;&gt;Node5</title>
<path fill="none" stroke="midnightblue" d="M459.17,-543.91C454.95,-542.18 450.86,-540.22 447,-538 403.71,-513.15 369.47,-461.82 356.56,-440.55"/>
<polygon fill="midnightblue" stroke="midnightblue" points="457.98,-547.2 468.57,-547.36 460.38,-540.63 457.98,-547.2"/>
</g>
<!-- Node15&#45;&gt;Node5 -->
<g id="edge15" class="edge">
<title>Node15&#45;&gt;Node5</title>
<path fill="none" stroke="midnightblue" d="M471.32,-507.56C462.96,-505.2 454.67,-502.38 447,-499 412.6,-483.86 378.06,-455.36 361.35,-440.52"/>
<polygon fill="midnightblue" stroke="midnightblue" points="470.57,-510.98 481.13,-510.12 472.34,-504.21 470.57,-510.98"/>
</g>
<!-- Node17 -->
<g id="node14" class="node">
<title>Node17</title>
<g id="a_node14"><a xlink:href="gs_8c.html#a77d8b5e22b2b2615c9046060e50a3308" target="_top" xlink:title="上記初期化の共通部分をまとめた関数">
<polygon fill="white" stroke="black" points="475.5,-662 475.5,-692 605.5,-692 605.5,-662 475.5,-662"/>
<text text-anchor="start" x="483.5" y="-680" font-family="Helvetica,sans-Serif" font-size="10.00">GS_load_default_driver</text>
<text text-anchor="middle" x="540.5" y="-669" font-family="Helvetica,sans-Serif" font-size="10.00">_super_init_settings_</text>
</a>
</g>
</g>
<!-- Node16&#45;&gt;Node17 -->
<g id="edge17" class="edge">
<title>Node16&#45;&gt;Node17</title>
<path fill="none" stroke="midnightblue" d="M682.22,-675.02C657.38,-675.37 629.76,-675.76 605.61,-676.1"/>
<polygon fill="midnightblue" stroke="midnightblue" points="682.37,-678.52 692.32,-674.88 682.27,-671.52 682.37,-678.52"/>
</g>
<!-- Node18 -->
<g id="node15" class="node">
<title>Node18</title>
<g id="a_node15"><a xlink:href="gs_8c.html#a4621f4390191b12c281982f635516f67" target="_top" xlink:title="CCSDS 側 Driver の DS 上での初期化設定">
<polygon fill="white" stroke="black" points="289,-686 289,-716 411,-716 411,-686 289,-686"/>
<text text-anchor="start" x="297" y="-704" font-family="Helvetica,sans-Serif" font-size="10.00">GS_load_ccsds_driver</text>
<text text-anchor="middle" x="350" y="-693" font-family="Helvetica,sans-Serif" font-size="10.00">_super_init_settings_</text>
</a>
</g>
</g>
<!-- Node17&#45;&gt;Node18 -->
<g id="edge18" class="edge">
<title>Node17&#45;&gt;Node18</title>
<path fill="none" stroke="midnightblue" d="M465.27,-686.45C447.3,-688.74 428.32,-691.16 411.09,-693.35"/>
<polygon fill="midnightblue" stroke="midnightblue" points="465.94,-689.89 475.42,-685.16 465.06,-682.95 465.94,-689.89"/>
</g>
<!-- Node24 -->
<g id="node17" class="node">
<title>Node24</title>
<g id="a_node17"><a xlink:href="gs_8c.html#a940de224a6d318a15603b46983cf69ea" target="_top" xlink:title="UART 側 Driver の DS 上での初期化設定">
<polygon fill="white" stroke="black" points="290.5,-637 290.5,-667 409.5,-667 409.5,-637 290.5,-637"/>
<text text-anchor="start" x="298.5" y="-655" font-family="Helvetica,sans-Serif" font-size="10.00">GS_load_uart_driver</text>
<text text-anchor="middle" x="350" y="-644" font-family="Helvetica,sans-Serif" font-size="10.00">_super_init_settings_</text>
</a>
</g>
</g>
<!-- Node17&#45;&gt;Node24 -->
<g id="edge20" class="edge">
<title>Node17&#45;&gt;Node24</title>
<path fill="none" stroke="midnightblue" d="M465.26,-667.15C446.75,-664.7 427.15,-662.1 409.52,-659.76"/>
<polygon fill="midnightblue" stroke="midnightblue" points="465.05,-670.66 475.42,-668.5 465.97,-663.72 465.05,-670.66"/>
</g>
<!-- Node19 -->
<g id="node16" class="node">
<title>Node19</title>
<g id="a_node16"><a xlink:href="gs_8h.html#a3cda832b6c75f514dfb566fa49b59127" target="_top" xlink:title="Driver の初期化">
<polygon fill="white" stroke="red" points="160.5,-666.5 160.5,-685.5 211.5,-685.5 211.5,-666.5 160.5,-666.5"/>
<text text-anchor="middle" x="186" y="-673.5" font-family="Helvetica,sans-Serif" font-size="10.00">GS_init</text>
</a>
</g>
</g>
<!-- Node18&#45;&gt;Node19 -->
<g id="edge19" class="edge">
<title>Node18&#45;&gt;Node19</title>
<path fill="none" stroke="midnightblue" d="M278.57,-690.13C254.74,-686.45 229.67,-682.59 211.8,-679.83"/>
<polygon fill="midnightblue" stroke="midnightblue" points="278.26,-693.62 288.68,-691.69 279.33,-686.71 278.26,-693.62"/>
</g>
<!-- Node24&#45;&gt;Node19 -->
<g id="edge21" class="edge">
<title>Node24&#45;&gt;Node19</title>
<path fill="none" stroke="midnightblue" d="M280.13,-662.2C255.85,-665.8 230.09,-669.62 211.83,-672.32"/>
<polygon fill="midnightblue" stroke="midnightblue" points="280.68,-665.66 290.06,-660.73 279.65,-658.74 280.68,-665.66"/>
</g>
<!-- Node27 -->
<g id="node20" class="node">
<title>Node27</title>
<g id="a_node20"><a xlink:href="block__command__executor_8c.html#ae33c8a6dadb5c8d6052c681bd93eabb4" target="_top" xlink:title="BC をまとめて一括で実行する">
<polygon fill="white" stroke="black" points="877,-424.5 877,-443.5 1023,-443.5 1023,-424.5 877,-424.5"/>
<text text-anchor="middle" x="950" y="-431.5" font-family="Helvetica,sans-Serif" font-size="10.00">BCE_combine_block_cmd_</text>
</a>
</g>
</g>
<!-- Node26&#45;&gt;Node27 -->
<g id="edge24" class="edge">
<title>Node26&#45;&gt;Node27</title>
<path fill="none" stroke="midnightblue" d="M1070.15,-407.75C1045.76,-413.13 1017.24,-419.41 994.22,-424.48"/>
<polygon fill="midnightblue" stroke="midnightblue" points="1070.96,-411.16 1079.97,-405.59 1069.45,-404.32 1070.96,-411.16"/>
</g>
<!-- Node29 -->
<g id="node22" class="node">
<title>Node29</title>
<g id="a_node22"><a xlink:href="block__command__executor_8c.html#ad3ff86b57b5abbbdb7dd658a04f00f13" target="_top" xlink:title="rotator の実行主体">
<polygon fill="white" stroke="black" points="883,-386.5 883,-405.5 1017,-405.5 1017,-386.5 883,-386.5"/>
<text text-anchor="middle" x="950" y="-393.5" font-family="Helvetica,sans-Serif" font-size="10.00">BCE_rotate_block_cmd_</text>
</a>
</g>
</g>
<!-- Node26&#45;&gt;Node29 -->
<g id="edge27" class="edge">
<title>Node26&#45;&gt;Node29</title>
<path fill="none" stroke="midnightblue" d="M1048.48,-396C1038.08,-396 1027.46,-396 1017.24,-396"/>
<polygon fill="midnightblue" stroke="midnightblue" points="1048.78,-399.5 1058.78,-396 1048.78,-392.5 1048.78,-399.5"/>
</g>
<!-- Node31 -->
<g id="node24" class="node">
<title>Node31</title>
<g id="a_node24"><a xlink:href="block__command__executor_8c.html#aa35678f3996844ae59428f34e6c8c78f" target="_top" xlink:title="BC をまとめて一括で実行する">
<polygon fill="white" stroke="black" points="883,-337 883,-367 1017,-367 1017,-337 883,-337"/>
<text text-anchor="start" x="891" y="-355" font-family="Helvetica,sans-Serif" font-size="10.00">BCE_timelimit_combine</text>
<text text-anchor="middle" x="950" y="-344" font-family="Helvetica,sans-Serif" font-size="10.00">_block_cmd_</text>
</a>
</g>
</g>
<!-- Node26&#45;&gt;Node31 -->
<g id="edge30" class="edge">
<title>Node26&#45;&gt;Node31</title>
<path fill="none" stroke="midnightblue" d="M1076.35,-383.97C1055.89,-378.75 1031.7,-372.59 1010.06,-367.07"/>
<polygon fill="midnightblue" stroke="midnightblue" points="1075.52,-387.37 1086.07,-386.45 1077.25,-380.59 1075.52,-387.37"/>
</g>
<!-- Node33 -->
<g id="node26" class="node">
<title>Node33</title>
<g id="a_node26"><a xlink:href="command__dispatcher_8h.html#a90617acff33923f51c212b8e3034712c" target="_top" xlink:title="CDIS に登録されているコマンドキューからコマンドを実行">
<polygon fill="white" stroke="black" points="880,-174.5 880,-193.5 1020,-193.5 1020,-174.5 880,-174.5"/>
<text text-anchor="middle" x="950" y="-181.5" font-family="Helvetica,sans-Serif" font-size="10.00">CDIS_dispatch_command</text>
</a>
</g>
</g>
<!-- Node26&#45;&gt;Node33 -->
<g id="edge33" class="edge">
<title>Node26&#45;&gt;Node33</title>
<path fill="none" stroke="midnightblue" d="M1109.24,-378.48C1074.41,-335.67 985.86,-226.84 958.91,-193.72"/>
<polygon fill="midnightblue" stroke="midnightblue" points="1106.61,-380.79 1115.64,-386.34 1112.04,-376.37 1106.61,-380.79"/>
</g>
<!-- Node50 -->
<g id="node44" class="node">
<title>Node50</title>
<g id="a_node44"><a xlink:href="event__handler_8c.html#a8d7de705ac2b09f9f25644f0c9f55952" target="_top" xlink:title="EH 対応を実施">
<polygon fill="white" stroke="black" points="910,-465.5 910,-484.5 990,-484.5 990,-465.5 910,-465.5"/>
<text text-anchor="middle" x="950" y="-472.5" font-family="Helvetica,sans-Serif" font-size="10.00">EH_respond_</text>
</a>
</g>
</g>
<!-- Node26&#45;&gt;Node50 -->
<g id="edge56" class="edge">
<title>Node26&#45;&gt;Node50</title>
<path fill="none" stroke="midnightblue" d="M1100.38,-411.06C1080.48,-423.54 1050.68,-441.09 1023,-453 1011.83,-457.8 999.28,-462.02 987.82,-465.44"/>
<polygon fill="midnightblue" stroke="midnightblue" points="1102.48,-413.87 1109.04,-405.55 1098.72,-407.96 1102.48,-413.87"/>
</g>
<!-- Node58 -->
<g id="node47" class="node">
<title>Node58</title>
<g id="a_node47"><a xlink:href="mode__manager_8c.html#a4a483437e28116e6067d488392922a8f" target="_top" xlink:title="(モード遷移に対応する)ブロックコマンドのタイムラインへの展開を行う">
<polygon fill="white" stroke="black" points="882,-298.5 882,-317.5 1018,-317.5 1018,-298.5 882,-298.5"/>
<text text-anchor="middle" x="950" y="-305.5" font-family="Helvetica,sans-Serif" font-size="10.00">MM_deploy_block_cmd_</text>
</a>
</g>
</g>
<!-- Node26&#45;&gt;Node58 -->
<g id="edge59" class="edge">
<title>Node26&#45;&gt;Node58</title>
<path fill="none" stroke="midnightblue" d="M1104.47,-379.95C1085.11,-364.36 1053.67,-341.06 1023,-327 1014.77,-323.23 1005.66,-320.1 996.77,-317.54"/>
<polygon fill="midnightblue" stroke="midnightblue" points="1102.28,-382.68 1112.23,-386.3 1106.72,-377.26 1102.28,-382.68"/>
</g>
<!-- Node28 -->
<g id="node21" class="node">
<title>Node28</title>
<g id="a_node21"><a xlink:href="block__command__executor_8h.html#a8fc9800360fc4f594c23209a9fa5a516" target="_top" xlink:title=" ">
<polygon fill="white" stroke="black" points="678.5,-424.5 678.5,-443.5 832.5,-443.5 832.5,-424.5 678.5,-424.5"/>
<text text-anchor="middle" x="755.5" y="-431.5" font-family="Helvetica,sans-Serif" font-size="10.00">Cmd_BCE_COMBINE_BLOCK</text>
</a>
</g>
</g>
<!-- Node27&#45;&gt;Node28 -->
<g id="edge25" class="edge">
<title>Node27&#45;&gt;Node28</title>
<path fill="none" stroke="midnightblue" d="M866.54,-434C855.29,-434 843.8,-434 832.67,-434"/>
<polygon fill="midnightblue" stroke="midnightblue" points="866.77,-437.5 876.77,-434 866.77,-430.5 866.77,-437.5"/>
</g>
<!-- Node28&#45;&gt;Node5 -->
<g id="edge26" class="edge">
<title>Node28&#45;&gt;Node5</title>
<path fill="none" stroke="midnightblue" d="M667.7,-433.35C588.59,-432.77 474.1,-431.92 406.63,-431.41"/>
<polygon fill="midnightblue" stroke="midnightblue" points="668.1,-436.86 678.13,-433.43 668.16,-429.86 668.1,-436.86"/>
</g>
<!-- Node30 -->
<g id="node23" class="node">
<title>Node30</title>
<g id="a_node23"><a xlink:href="block__command__executor_8h.html#a7a537f68d3f291d25a6a4eae3f99cb45" target="_top" xlink:title=" ">
<polygon fill="white" stroke="black" points="683,-386.5 683,-405.5 828,-405.5 828,-386.5 683,-386.5"/>
<text text-anchor="middle" x="755.5" y="-393.5" font-family="Helvetica,sans-Serif" font-size="10.00">Cmd_BCE_ROTATE_BLOCK</text>
</a>
</g>
</g>
<!-- Node29&#45;&gt;Node30 -->
<g id="edge28" class="edge">
<title>Node29&#45;&gt;Node30</title>
<path fill="none" stroke="midnightblue" d="M872.7,-396C858.01,-396 842.67,-396 828.13,-396"/>
<polygon fill="midnightblue" stroke="midnightblue" points="872.75,-399.5 882.75,-396 872.75,-392.5 872.75,-399.5"/>
</g>
<!-- Node30&#45;&gt;Node5 -->
<g id="edge29" class="edge">
<title>Node30&#45;&gt;Node5</title>
<path fill="none" stroke="midnightblue" d="M672.41,-403.12C593.24,-409.99 475.59,-420.19 406.76,-426.16"/>
<polygon fill="midnightblue" stroke="midnightblue" points="673.17,-406.57 682.83,-402.22 672.56,-399.59 673.17,-406.57"/>
</g>
<!-- Node32 -->
<g id="node25" class="node">
<title>Node32</title>
<g id="a_node25"><a xlink:href="block__command__executor_8h.html#a33ee70475b35e5606d83857c5843d29a" target="_top" xlink:title=" ">
<polygon fill="white" stroke="black" points="670,-337 670,-367 841,-367 841,-337 670,-337"/>
<text text-anchor="start" x="678" y="-355" font-family="Helvetica,sans-Serif" font-size="10.00">Cmd_BCE_TIMELIMIT_COMBINE</text>
<text text-anchor="middle" x="755.5" y="-344" font-family="Helvetica,sans-Serif" font-size="10.00">_BLOCK</text>
</a>
</g>
</g>
<!-- Node31&#45;&gt;Node32 -->
<g id="edge31" class="edge">
<title>Node31&#45;&gt;Node32</title>
<path fill="none" stroke="midnightblue" d="M872.58,-352C862.28,-352 851.66,-352 841.23,-352"/>
<polygon fill="midnightblue" stroke="midnightblue" points="872.75,-355.5 882.75,-352 872.75,-348.5 872.75,-355.5"/>
</g>
<!-- Node32&#45;&gt;Node5 -->
<g id="edge32" class="edge">
<title>Node32&#45;&gt;Node5</title>
<path fill="none" stroke="midnightblue" d="M659.84,-365.34C598.77,-374.6 517.81,-388.1 447,-404 425.04,-408.93 400.63,-415.82 381.92,-421.4"/>
<polygon fill="midnightblue" stroke="midnightblue" points="660.48,-368.78 669.85,-363.83 659.44,-361.86 660.48,-368.78"/>
</g>
<!-- Node34 -->
<g id="node27" class="node">
<title>Node34</title>
<g id="a_node27"><a xlink:href="di__aobc_8c.html#ac2b0fb03e89d75b82419d4ad53202f8b" target="_top" xlink:title=" ">
<polygon fill="white" stroke="black" points="681.5,-240.5 681.5,-259.5 829.5,-259.5 829.5,-240.5 681.5,-240.5"/>
<text text-anchor="middle" x="755.5" y="-247.5" font-family="Helvetica,sans-Serif" font-size="10.00">DI_AOBC_cmd_dispatcher_</text>
</a>
</g>
</g>
<!-- Node33&#45;&gt;Node34 -->
<g id="edge34" class="edge">
<title>Node33&#45;&gt;Node34</title>
<path fill="none" stroke="midnightblue" d="M920.28,-197.82C898.81,-207.76 868.54,-220.95 841,-230 828.97,-233.95 815.74,-237.47 803.39,-240.4"/>
<polygon fill="midnightblue" stroke="midnightblue" points="921.91,-200.92 929.48,-193.51 918.94,-194.58 921.91,-200.92"/>
</g>
<!-- Node36 -->
<g id="node29" class="node">
<title>Node36</title>
<g id="a_node29"><a xlink:href="gs__command__dispatcher_8c.html#a4fe4cfc8c0f816a286dc50d8797cef54" target="_top" xlink:title="GSCD App 実行関数">
<polygon fill="white" stroke="black" points="707.5,-152.5 707.5,-171.5 803.5,-171.5 803.5,-152.5 707.5,-152.5"/>
<text text-anchor="middle" x="755.5" y="-159.5" font-family="Helvetica,sans-Serif" font-size="10.00">GSCD_dispatch_</text>
</a>
</g>
</g>
<!-- Node33&#45;&gt;Node36 -->
<g id="edge36" class="edge">
<title>Node33&#45;&gt;Node36</title>
<path fill="none" stroke="midnightblue" d="M869.6,-174.93C847.23,-172.37 823.6,-169.67 803.76,-167.4"/>
<polygon fill="midnightblue" stroke="midnightblue" points="869.44,-178.43 879.78,-176.09 870.24,-171.48 869.44,-178.43"/>
</g>
<!-- Node38 -->
<g id="node32" class="node">
<title>Node38</title>
<g id="a_node32"><a xlink:href="realtime__command__dispatcher_8c.html#aa66b7d158969999a789dc69d2d5b1b7d" target="_top" xlink:title=" ">
<polygon fill="white" stroke="black" points="708.5,-114.5 708.5,-133.5 802.5,-133.5 802.5,-114.5 708.5,-114.5"/>
<text text-anchor="middle" x="755.5" y="-121.5" font-family="Helvetica,sans-Serif" font-size="10.00">RTCD_dispatch_</text>
</a>
</g>
</g>
<!-- Node33&#45;&gt;Node38 -->
<g id="edge40" class="edge">
<title>Node33&#45;&gt;Node38</title>
<path fill="none" stroke="midnightblue" d="M917.06,-170.51C895.77,-161.86 867.03,-150.82 841,-143 828.76,-139.32 815.33,-135.99 802.86,-133.18"/>
<polygon fill="midnightblue" stroke="midnightblue" points="915.99,-173.85 926.57,-174.41 918.65,-167.38 915.99,-173.85"/>
</g>
<!-- Node40 -->
<g id="node34" class="node">
<title>Node40</title>
<g id="a_node34"><a xlink:href="task__dispatcher_8h.html#ac880fe6e26ecdf8711d08980cad6787d" target="_top" xlink:title="現在時刻に応じて、TaskList から Cmd を一つ実行する or TaskList を再展開する">
<polygon fill="white" stroke="black" points="697.5,-191 697.5,-221 813.5,-221 813.5,-191 697.5,-191"/>
<text text-anchor="start" x="705.5" y="-209" font-family="Helvetica,sans-Serif" font-size="10.00">TDSP_execute_pl_as</text>
<text text-anchor="middle" x="755.5" y="-198" font-family="Helvetica,sans-Serif" font-size="10.00">_task_list</text>
</a>
</g>
</g>
<!-- Node33&#45;&gt;Node40 -->
<g id="edge43" class="edge">
<title>Node33&#45;&gt;Node40</title>
<path fill="none" stroke="midnightblue" d="M869.75,-193.06C850.97,-195.2 831.3,-197.45 813.71,-199.46"/>
<polygon fill="midnightblue" stroke="midnightblue" points="870.24,-196.52 879.78,-191.91 869.44,-189.57 870.24,-196.52"/>
</g>
<!-- Node43 -->
<g id="node37" class="node">
<title>Node43</title>
<g id="a_node37"><a xlink:href="timeline__command__dispatcher_8c.html#a81ac915e803ac30a27f6488af9ce45ad" target="_top" xlink:title=" ">
<polygon fill="white" stroke="black" points="710.5,-57.5 710.5,-76.5 800.5,-76.5 800.5,-57.5 710.5,-57.5"/>
<text text-anchor="middle" x="755.5" y="-64.5" font-family="Helvetica,sans-Serif" font-size="10.00">tlc_dispatcher_</text>
</a>
</g>
</g>
<!-- Node33&#45;&gt;Node43 -->
<g id="edge46" class="edge">
<title>Node33&#45;&gt;Node43</title>
<path fill="none" stroke="midnightblue" d="M929.74,-167.99C908.77,-151.02 873.82,-124.1 841,-105 821.68,-93.75 798.42,-83.52 781.21,-76.51"/>
<polygon fill="midnightblue" stroke="midnightblue" points="927.61,-170.77 937.57,-174.39 932.04,-165.35 927.61,-170.77"/>
</g>
<!-- Node35 -->
<g id="node28" class="node">
<title>Node35</title>
<g id="a_node28"><a xlink:href="di__aobc_8h.html#a22b846ecf2fe48c7bff4f2c10f2bc284" target="_top" xlink:title="AOBC cmd dispatcher アプリ生成関数">
<polygon fill="white" stroke="black" points="469,-231.5 469,-250.5 612,-250.5 612,-231.5 469,-231.5"/>
<text text-anchor="middle" x="540.5" y="-238.5" font-family="Helvetica,sans-Serif" font-size="10.00">DI_AOBC_cmd_dispatcher</text>
</a>
</g>
</g>
<!-- Node34&#45;&gt;Node35 -->
<g id="edge35" class="edge">
<title>Node34&#45;&gt;Node35</title>
<path fill="none" stroke="midnightblue" d="M671.39,-246.49C651.84,-245.66 631.19,-244.79 612.25,-243.99"/>
<polygon fill="midnightblue" stroke="midnightblue" points="671.36,-249.99 681.5,-246.92 671.65,-243 671.36,-249.99"/>
</g>
<!-- Node37 -->
<g id="node30" class="node">
<title>Node37</title>
<g id="a_node30"><a xlink:href="gs__command__dispatcher_8h.html#a0195f703ab1a606ae7541ef886e609bc" target="_top" xlink:title="GSCD App 生成関数">
<polygon fill="white" stroke="black" points="298,-152.5 298,-171.5 402,-171.5 402,-152.5 298,-152.5"/>
<text text-anchor="middle" x="350" y="-159.5" font-family="Helvetica,sans-Serif" font-size="10.00">GSCD_create_app</text>
</a>
</g>
</g>
<!-- Node36&#45;&gt;Node37 -->
<g id="edge37" class="edge">
<title>Node36&#45;&gt;Node37</title>
<path fill="none" stroke="midnightblue" d="M697.19,-162C618.37,-162 477.69,-162 402.21,-162"/>
<polygon fill="midnightblue" stroke="midnightblue" points="697.42,-165.5 707.42,-162 697.42,-158.5 697.42,-165.5"/>
</g>
<!-- Node23 -->
<g id="node31" class="node">
<title>Node23</title>
<g id="a_node31"><a xlink:href="app__registry_8h.html#ab944b1d78a41e427bc2ed57f9c4e9534" target="_top" xlink:title=" ">
<polygon fill="white" stroke="black" points="119,-95.5 119,-114.5 253,-114.5 253,-95.5 119,-95.5"/>
<text text-anchor="middle" x="186" y="-102.5" font-family="Helvetica,sans-Serif" font-size="10.00">AR_load_initial_settings</text>
</a>
</g>
</g>
<!-- Node37&#45;&gt;Node23 -->
<g id="edge38" class="edge">
<title>Node37&#45;&gt;Node23</title>
<path fill="none" stroke="midnightblue" d="M307.94,-149.3C301.58,-147.24 295.1,-145.1 289,-143 262.38,-133.83 232.19,-122.46 211.61,-114.56"/>
<polygon fill="midnightblue" stroke="midnightblue" points="307.17,-152.73 317.76,-152.43 309.3,-146.06 307.17,-152.73"/>
</g>
<!-- Node23&#45;&gt;Node7 -->
<g id="edge39" class="edge">
<title>Node23&#45;&gt;Node7</title>
<path fill="none" stroke="midnightblue" d="M170.79,-122.35C141.18,-158.51 73.72,-240.88 50.52,-269.21"/>
<polygon fill="midnightblue" stroke="midnightblue" points="173.51,-124.56 177.14,-114.6 168.09,-120.12 173.51,-124.56"/>
</g>
<!-- Node39 -->
<g id="node33" class="node">
<title>Node39</title>
<g id="a_node33"><a xlink:href="realtime__command__dispatcher_8h.html#a6de82e8f79b0281c403be56abfaec6ba" target="_top" xlink:title=" ">
<polygon fill="white" stroke="black" points="299.5,-114.5 299.5,-133.5 400.5,-133.5 400.5,-114.5 299.5,-114.5"/>
<text text-anchor="middle" x="350" y="-121.5" font-family="Helvetica,sans-Serif" font-size="10.00">RTCD_create_app</text>
</a>
</g>
</g>
<!-- Node38&#45;&gt;Node39 -->
<g id="edge41" class="edge">
<title>Node38&#45;&gt;Node39</title>
<path fill="none" stroke="midnightblue" d="M697.93,-124C618.66,-124 475.8,-124 400.51,-124"/>
<polygon fill="midnightblue" stroke="midnightblue" points="698.21,-127.5 708.21,-124 698.21,-120.5 698.21,-127.5"/>
</g>
<!-- Node39&#45;&gt;Node23 -->
<g id="edge42" class="edge">
<title>Node39&#45;&gt;Node23</title>
<path fill="none" stroke="midnightblue" d="M289,-116.96C277.33,-115.59 265.03,-114.15 253.17,-112.76"/>
<polygon fill="midnightblue" stroke="midnightblue" points="288.73,-120.46 299.07,-118.14 289.55,-113.5 288.73,-120.46"/>
</g>
<!-- Node41 -->
<g id="node35" class="node">
<title>Node41</title>
<g id="a_node35"><a xlink:href="c2a__core__main_8h.html#a64e3c69d223ce8236ab718278b17b195" target="_top" xlink:title=" ">
<polygon fill="white" stroke="black" points="494.5,-193.5 494.5,-212.5 586.5,-212.5 586.5,-193.5 494.5,-193.5"/>
<text text-anchor="middle" x="540.5" y="-200.5" font-family="Helvetica,sans-Serif" font-size="10.00">C2A_core_main</text>
</a>
</g>
</g>
<!-- Node40&#45;&gt;Node41 -->
<g id="edge44" class="edge">
<title>Node40&#45;&gt;Node41</title>
<path fill="none" stroke="midnightblue" d="M687,-205.05C654.23,-204.59 615.74,-204.05 586.59,-203.64"/>
<polygon fill="midnightblue" stroke="midnightblue" points="687.37,-208.55 697.42,-205.2 687.47,-201.56 687.37,-208.55"/>
</g>
<!-- Node42 -->
<g id="node36" class="node">
<title>Node42</title>
<g id="a_node36"><a xlink:href="c2a__main_8c.html#a06acf8a326dfbc653a6b7094d98099b9" target="_top" xlink:title=" ">
<polygon fill="white" stroke="red" points="314.5,-193.5 314.5,-212.5 385.5,-212.5 385.5,-193.5 314.5,-193.5"/>
<text text-anchor="middle" x="350" y="-200.5" font-family="Helvetica,sans-Serif" font-size="10.00">C2A_main_</text>
</a>
</g>
</g>
<!-- Node41&#45;&gt;Node42 -->
<g id="edge45" class="edge">
<title>Node41&#45;&gt;Node42</title>
<path fill="none" stroke="midnightblue" d="M484.28,-203C452.43,-203 413.34,-203 385.76,-203"/>
<polygon fill="midnightblue" stroke="midnightblue" points="484.35,-206.5 494.35,-203 484.35,-199.5 484.35,-206.5"/>
</g>
<!-- Node44 -->
<g id="node38" class="node">
<title>Node44</title>
<g id="a_node38"><a xlink:href="timeline__command__dispatcher_8c.html#a901708d936509614c56fe989ec93c9ad" target="_top" xlink:title=" ">
<polygon fill="white" stroke="black" points="490.5,-38.5 490.5,-57.5 590.5,-57.5 590.5,-38.5 490.5,-38.5"/>
<text text-anchor="middle" x="540.5" y="-45.5" font-family="Helvetica,sans-Serif" font-size="10.00">TLCD0_dispatch_</text>
</a>
</g>
</g>
<!-- Node43&#45;&gt;Node44 -->
<g id="edge47" class="edge">
<title>Node43&#45;&gt;Node44</title>
<path fill="none" stroke="midnightblue" d="M700.22,-62.16C666.51,-59.15 623.52,-55.32 590.79,-52.4"/>
<polygon fill="midnightblue" stroke="midnightblue" points="700.09,-65.66 710.37,-63.06 700.72,-58.69 700.09,-65.66"/>
</g>
<!-- Node46 -->
<g id="node40" class="node">
<title>Node46</title>
<g id="a_node40"><a xlink:href="timeline__command__dispatcher_8c.html#aff4f663a7670bf6eb1be99911bd5cf79" target="_top" xlink:title=" ">
<polygon fill="white" stroke="black" points="490.5,-0.5 490.5,-19.5 590.5,-19.5 590.5,-0.5 490.5,-0.5"/>
<text text-anchor="middle" x="540.5" y="-7.5" font-family="Helvetica,sans-Serif" font-size="10.00">TLCD1_dispatch_</text>
</a>
</g>
</g>
<!-- Node43&#45;&gt;Node46 -->
<g id="edge50" class="edge">
<title>Node43&#45;&gt;Node46</title>
<path fill="none" stroke="midnightblue" d="M717.33,-54.19C693.66,-46.3 662.24,-36.33 634,-29 620.04,-25.37 604.74,-22 590.68,-19.12"/>
<polygon fill="midnightblue" stroke="midnightblue" points="716.38,-57.56 726.98,-57.43 718.61,-50.93 716.38,-57.56"/>
</g>
<!-- Node48 -->
<g id="node42" class="node">
<title>Node48</title>
<g id="a_node42"><a xlink:href="timeline__command__dispatcher_8c.html#aa498bfb7d65299eb0327e26591b69fa4" target="_top" xlink:title=" ">
<polygon fill="white" stroke="black" points="490.5,-76.5 490.5,-95.5 590.5,-95.5 590.5,-76.5 490.5,-76.5"/>
<text text-anchor="middle" x="540.5" y="-83.5" font-family="Helvetica,sans-Serif" font-size="10.00">TLCD2_dispatch_</text>
</a>
</g>
</g>
<!-- Node43&#45;&gt;Node48 -->
<g id="edge53" class="edge">
<title>Node43&#45;&gt;Node48</title>
<path fill="none" stroke="midnightblue" d="M700.22,-71.84C666.51,-74.85 623.52,-78.68 590.79,-81.6"/>
<polygon fill="midnightblue" stroke="midnightblue" points="700.72,-75.31 710.37,-70.94 700.09,-68.34 700.72,-75.31"/>
</g>
<!-- Node45 -->
<g id="node39" class="node">
<title>Node45</title>
<g id="a_node39"><a xlink:href="timeline__command__dispatcher_8h.html#a5c3636e3f9ba660572455a68f07a3c8e" target="_top" xlink:title=" ">
<polygon fill="white" stroke="black" points="296.5,-38.5 296.5,-57.5 403.5,-57.5 403.5,-38.5 296.5,-38.5"/>
<text text-anchor="middle" x="350" y="-45.5" font-family="Helvetica,sans-Serif" font-size="10.00">TLCD0_create_app</text>
</a>
</g>
</g>
<!-- Node44&#45;&gt;Node45 -->
<g id="edge48" class="edge">
<title>Node44&#45;&gt;Node45</title>
<path fill="none" stroke="midnightblue" d="M480.21,-48C455.71,-48 427.53,-48 403.75,-48"/>
<polygon fill="midnightblue" stroke="midnightblue" points="480.47,-51.5 490.47,-48 480.47,-44.5 480.47,-51.5"/>
</g>
<!-- Node45&#45;&gt;Node23 -->
<g id="edge49" class="edge">
<title>Node45&#45;&gt;Node23</title>
<path fill="none" stroke="midnightblue" d="M307.94,-60.7C301.58,-62.76 295.1,-64.9 289,-67 262.38,-76.17 232.19,-87.54 211.61,-95.44"/>
<polygon fill="midnightblue" stroke="midnightblue" points="309.3,-63.94 317.76,-57.57 307.17,-57.27 309.3,-63.94"/>
</g>
<!-- Node47 -->
<g id="node41" class="node">
<title>Node47</title>
<g id="a_node41"><a xlink:href="timeline__command__dispatcher_8h.html#a55fef225002dd96ca2bb3e4dbf48af16" target="_top" xlink:title=" ">
<polygon fill="white" stroke="black" points="296.5,-0.5 296.5,-19.5 403.5,-19.5 403.5,-0.5 296.5,-0.5"/>
<text text-anchor="middle" x="350" y="-7.5" font-family="Helvetica,sans-Serif" font-size="10.00">TLCD1_create_app</text>
</a>
</g>
</g>
<!-- Node46&#45;&gt;Node47 -->
<g id="edge51" class="edge">
<title>Node46&#45;&gt;Node47</title>
<path fill="none" stroke="midnightblue" d="M480.21,-10C455.71,-10 427.53,-10 403.75,-10"/>
<polygon fill="midnightblue" stroke="midnightblue" points="480.47,-13.5 490.47,-10 480.47,-6.5 480.47,-13.5"/>
</g>
<!-- Node47&#45;&gt;Node23 -->
<g id="edge52" class="edge">
<title>Node47&#45;&gt;Node23</title>
<path fill="none" stroke="midnightblue" d="M302.49,-23.01C297.85,-24.81 293.27,-26.81 289,-29 252.44,-47.73 215.16,-79.36 197.51,-95.26"/>
<polygon fill="midnightblue" stroke="midnightblue" points="303.83,-26.24 312.05,-19.56 301.46,-19.66 303.83,-26.24"/>
</g>
<!-- Node49 -->
<g id="node43" class="node">
<title>Node49</title>
<g id="a_node43"><a xlink:href="timeline__command__dispatcher_8h.html#a67a4900c4eb408e9d16cdcb4deefbe39" target="_top" xlink:title=" ">
<polygon fill="white" stroke="black" points="296.5,-76.5 296.5,-95.5 403.5,-95.5 403.5,-76.5 296.5,-76.5"/>
<text text-anchor="middle" x="350" y="-83.5" font-family="Helvetica,sans-Serif" font-size="10.00">TLCD2_create_app</text>
</a>
</g>
</g>
<!-- Node48&#45;&gt;Node49 -->
<g id="edge54" class="edge">
<title>Node48&#45;&gt;Node49</title>
<path fill="none" stroke="midnightblue" d="M480.21,-86C455.71,-86 427.53,-86 403.75,-86"/>
<polygon fill="midnightblue" stroke="midnightblue" points="480.47,-89.5 490.47,-86 480.47,-82.5 480.47,-89.5"/>
</g>
<!-- Node49&#45;&gt;Node23 -->
<g id="edge55" class="edge">
<title>Node49&#45;&gt;Node23</title>
<path fill="none" stroke="midnightblue" d="M286.21,-93.36C275.4,-94.63 264.14,-95.95 253.24,-97.23"/>
<polygon fill="midnightblue" stroke="midnightblue" points="286.88,-96.81 296.4,-92.17 286.06,-89.86 286.88,-96.81"/>
</g>
<!-- Node51 -->
<g id="node45" class="node">
<title>Node51</title>
<g id="a_node45"><a xlink:href="event__handler_8c.html#ac7461e79109f06783e2c620a6d999a6b" target="_top" xlink:title="EH の対応条件をチェックし， EL_Event に対応する">
<polygon fill="white" stroke="black" points="675,-465.5 675,-484.5 836,-484.5 836,-465.5 675,-465.5"/>
<text text-anchor="middle" x="755.5" y="-472.5" font-family="Helvetica,sans-Serif" font-size="10.00">EH_check_rule_and_respond_</text>
</a>
</g>
</g>
<!-- Node50&#45;&gt;Node51 -->
<g id="edge57" class="edge">
<title>Node50&#45;&gt;Node51</title>
<path fill="none" stroke="midnightblue" d="M899.5,-475C880.17,-475 857.51,-475 836,-475"/>
<polygon fill="midnightblue" stroke="midnightblue" points="899.58,-478.5 909.58,-475 899.58,-471.5 899.58,-478.5"/>
</g>
<!-- Node52 -->
<g id="node46" class="node">
<title>Node52</title>
<g id="a_node46"><a xlink:href="event__handler_8c.html#a227ed3b7079c58dee50a81ce408549a2" target="_top" xlink:title="EL_Event に対応する EH_Rule が存在するかチェックし，対応する">
<polygon fill="white" stroke="red" points="480.5,-460 480.5,-490 600.5,-490 600.5,-460 480.5,-460"/>
<text text-anchor="start" x="488.5" y="-478" font-family="Helvetica,sans-Serif" font-size="10.00">EH_check_event_and</text>
<text text-anchor="middle" x="540.5" y="-467" font-family="Helvetica,sans-Serif" font-size="10.00">_respond_</text>
</a>
</g>
</g>
<!-- Node51&#45;&gt;Node52 -->
<g id="edge58" class="edge">
<title>Node51&#45;&gt;Node52</title>
<path fill="none" stroke="midnightblue" d="M664.7,-475C643.1,-475 620.55,-475 600.74,-475"/>
<polygon fill="midnightblue" stroke="midnightblue" points="664.88,-478.5 674.88,-475 664.88,-471.5 664.88,-478.5"/>
</g>
<!-- Node59 -->
<g id="node48" class="node">
<title>Node59</title>
<g id="a_node48"><a xlink:href="mode__manager_8c.html#ae4381c1c84d8b5d8aa033e522530436d" target="_top" xlink:title="Cmd_MM_START_TRANSITIONの実体">
<polygon fill="white" stroke="black" points="696,-298.5 696,-317.5 815,-317.5 815,-298.5 696,-298.5"/>
<text text-anchor="middle" x="755.5" y="-305.5" font-family="Helvetica,sans-Serif" font-size="10.00">MM_start_transition_</text>
</a>
</g>
</g>
<!-- Node58&#45;&gt;Node59 -->
<g id="edge60" class="edge">
<title>Node58&#45;&gt;Node59</title>
<path fill="none" stroke="midnightblue" d="M871.89,-308C853.03,-308 833.15,-308 815.3,-308"/>
<polygon fill="midnightblue" stroke="midnightblue" points="871.94,-311.5 881.94,-308 871.94,-304.5 871.94,-311.5"/>
</g>
<!-- Node60 -->
<g id="node49" class="node">
<title>Node60</title>
<g id="a_node49"><a xlink:href="mode__manager_8h.html#ab54a8f93c525edc7f7f2283ad94af267" target="_top" xlink:title="モード遷移を開始するコマンド">
<polygon fill="white" stroke="black" points="459,-307.5 459,-326.5 622,-326.5 622,-307.5 459,-307.5"/>
<text text-anchor="middle" x="540.5" y="-314.5" font-family="Helvetica,sans-Serif" font-size="10.00">Cmd_MM_START_TRANSITION</text>
</a>
</g>
</g>
<!-- Node59&#45;&gt;Node60 -->
<g id="edge61" class="edge">
<title>Node59&#45;&gt;Node60</title>
<path fill="none" stroke="midnightblue" d="M685.7,-310.91C665.52,-311.76 643.26,-312.7 622.4,-313.58"/>
<polygon fill="midnightblue" stroke="midnightblue" points="685.89,-314.4 695.73,-310.48 685.59,-307.41 685.89,-314.4"/>
</g>
<!-- Node61 -->
<g id="node50" class="node">
<title>Node61</title>
<g id="a_node50"><a xlink:href="mode__manager_8h.html#a89fbf516698fe6c690438e21ec8efd82" target="_top" xlink:title="モード遷移を管理する ModeManager 構造体 (mode_manager_) の初期化">
<polygon fill="white" stroke="black" points="145,-269.5 145,-288.5 227,-288.5 227,-269.5 145,-269.5"/>
<text text-anchor="middle" x="186" y="-276.5" font-family="Helvetica,sans-Serif" font-size="10.00">MM_initialize</text>
</a>
</g>
</g>
<!-- Node59&#45;&gt;Node61 -->
<g id="edge63" class="edge">
<title>Node59&#45;&gt;Node61</title>
<path fill="none" stroke="midnightblue" d="M685.4,-301.78C668.59,-300.4 650.66,-299.04 634,-298 484,-288.59 305.37,-282.55 227.1,-280.16"/>
<polygon fill="midnightblue" stroke="midnightblue" points="685.44,-305.3 695.7,-302.64 686.02,-298.32 685.44,-305.3"/>
</g>
<!-- Node60&#45;&gt;Node5 -->
<g id="edge62" class="edge">
<title>Node60&#45;&gt;Node5</title>
<path fill="none" stroke="midnightblue" d="M474.17,-329.55C464.75,-332.6 455.41,-336.37 447,-341 408.18,-362.38 373.07,-403.04 358.33,-421.48"/>
<polygon fill="midnightblue" stroke="midnightblue" points="475.39,-332.83 483.97,-326.62 473.38,-326.13 475.39,-332.83"/>
</g>
<!-- Node61&#45;&gt;Node7 -->
<g id="edge64" class="edge">
<title>Node61&#45;&gt;Node7</title>
<path fill="none" stroke="midnightblue" d="M134.7,-279C117.85,-279 99.29,-279 83.26,-279"/>
<polygon fill="midnightblue" stroke="midnightblue" points="134.93,-282.5 144.93,-279 134.93,-275.5 134.93,-282.5"/>
</g>
</g>
</svg>
