<?xml version="1.0" encoding="UTF-8" standalone="no"?>
<!DOCTYPE svg PUBLIC "-//W3C//DTD SVG 1.1//EN"
 "http://www.w3.org/Graphics/SVG/1.1/DTD/svg11.dtd">
<!-- Generated by graphviz version 2.43.0 (0)
 -->
<!-- Title: CA_load_cmd_table Pages: 1 -->
<svg width="657pt" height="85pt"
 viewBox="0.00 0.00 657.00 85.00" xmlns="http://www.w3.org/2000/svg" xmlns:xlink="http://www.w3.org/1999/xlink">
<g id="graph0" class="graph" transform="scale(1 1) rotate(0) translate(4 81)">
<title>CA_load_cmd_table</title>
<polygon fill="white" stroke="transparent" points="-4,4 -4,-81 653,-81 653,4 -4,4"/>
<!-- Node1 -->
<g id="node1" class="node">
<title>Node1</title>
<g id="a_node1"><a xlink:title="Cmd Tableのロード">
<polygon fill="#bfbfbf" stroke="black" points="536,-19.5 536,-38.5 649,-38.5 649,-19.5 536,-19.5"/>
<text text-anchor="middle" x="592.5" y="-26.5" font-family="Helvetica,sans-Serif" font-size="10.00">CA_load_cmd_table</text>
</a>
</g>
</g>
<!-- Node2 -->
<g id="node2" class="node">
<title>Node2</title>
<g id="a_node2"><a xlink:href="command__analyze_8h.html#ae6d1f376bf4e1c9c4b63bc3f04924c8a" target="_top" xlink:title="CA の初期化">
<polygon fill="white" stroke="black" points="423,-19.5 423,-38.5 500,-38.5 500,-19.5 423,-19.5"/>
<text text-anchor="middle" x="461.5" y="-26.5" font-family="Helvetica,sans-Serif" font-size="10.00">CA_initialize</text>
</a>
</g>
</g>
<!-- Node1&#45;&gt;Node2 -->
<g id="edge1" class="edge">
<title>Node1&#45;&gt;Node2</title>
<path fill="none" stroke="midnightblue" d="M525.5,-29C516.82,-29 508.17,-29 500.19,-29"/>
<polygon fill="midnightblue" stroke="midnightblue" points="525.67,-32.5 535.67,-29 525.67,-25.5 525.67,-32.5"/>
</g>
<!-- Node3 -->
<g id="node3" class="node">
<title>Node3</title>
<g id="a_node3"><a xlink:href="c2a__core__main_8h.html#a65ecdc63d8762ffde4db7f6c6e6f07cf" target="_top" xlink:title=" ">
<polygon fill="white" stroke="black" points="304,-57.5 304,-76.5 387,-76.5 387,-57.5 304,-57.5"/>
<text text-anchor="middle" x="345.5" y="-64.5" font-family="Helvetica,sans-Serif" font-size="10.00">C2A_core_init</text>
</a>
</g>
</g>
<!-- Node2&#45;&gt;Node3 -->
<g id="edge2" class="edge">
<title>Node2&#45;&gt;Node3</title>
<path fill="none" stroke="midnightblue" d="M422.02,-41.83C406.73,-46.92 389.43,-52.69 375.26,-57.41"/>
<polygon fill="midnightblue" stroke="midnightblue" points="423.35,-45.07 431.73,-38.59 421.14,-38.43 423.35,-45.07"/>
</g>
<!-- Node6 -->
<g id="node6" class="node">
<title>Node6</title>
<g id="a_node6"><a xlink:href="command__analyze_8h.html#a85d8daea84970ad2895a0209bd350b7b" target="_top" xlink:title=" ">
<polygon fill="white" stroke="black" points="304,-19.5 304,-38.5 387,-38.5 387,-19.5 304,-19.5"/>
<text text-anchor="middle" x="345.5" y="-26.5" font-family="Helvetica,sans-Serif" font-size="10.00">Cmd_CA_INIT</text>
</a>
</g>
</g>
<!-- Node2&#45;&gt;Node6 -->
<g id="edge5" class="edge">
<title>Node2&#45;&gt;Node6</title>
<path fill="none" stroke="midnightblue" d="M412.72,-29C404.25,-29 395.5,-29 387.24,-29"/>
<polygon fill="midnightblue" stroke="midnightblue" points="412.86,-32.5 422.86,-29 412.86,-25.5 412.86,-32.5"/>
</g>
<!-- Node4 -->
<g id="node4" class="node">
<title>Node4</title>
<g id="a_node4"><a xlink:href="c2a__main_8c.html#a630222a80cd8bffd4426d4a55a215069" target="_top" xlink:title=" ">
<polygon fill="white" stroke="black" points="180.5,-57.5 180.5,-76.5 242.5,-76.5 242.5,-57.5 180.5,-57.5"/>
<text text-anchor="middle" x="211.5" y="-64.5" font-family="Helvetica,sans-Serif" font-size="10.00">C2A_init_</text>
</a>
</g>
</g>
<!-- Node3&#45;&gt;Node4 -->
<g id="edge3" class="edge">
<title>Node3&#45;&gt;Node4</title>
<path fill="none" stroke="midnightblue" d="M293.39,-67C276.29,-67 257.77,-67 242.78,-67"/>
<polygon fill="midnightblue" stroke="midnightblue" points="293.82,-70.5 303.82,-67 293.82,-63.5 293.82,-70.5"/>
</g>
<!-- Node5 -->
<g id="node5" class="node">
<title>Node5</title>
<g id="a_node5"><a xlink:href="c2a__main_8c.html#ac3344a311adda8f9e7310924bedf81fc" target="_top" xlink:title=" ">
<polygon fill="white" stroke="black" points="0,-57.5 0,-76.5 119,-76.5 119,-57.5 0,-57.5"/>
<text text-anchor="middle" x="59.5" y="-64.5" font-family="Helvetica,sans-Serif" font-size="10.00">address_fixed_main_</text>
</a>
</g>
</g>
<!-- Node4&#45;&gt;Node5 -->
<g id="edge4" class="edge">
<title>Node4&#45;&gt;Node5</title>
<path fill="none" stroke="midnightblue" d="M169.78,-67C154.16,-67 136,-67 119.03,-67"/>
<polygon fill="midnightblue" stroke="midnightblue" points="170.15,-70.5 180.15,-67 170.15,-63.5 170.15,-70.5"/>
</g>
<!-- Node7 -->
<g id="node7" class="node">
<title>Node7</title>
<g id="a_node7"><a xlink:href="command__definitions_8c.html#aa375895192b16d8e7f0ff4545b54e6c4" target="_top" xlink:title="Cmd Tableのロード">
<polygon fill="white" stroke="black" points="155,-0.5 155,-19.5 268,-19.5 268,-0.5 155,-0.5"/>
<text text-anchor="middle" x="211.5" y="-7.5" font-family="Helvetica,sans-Serif" font-size="10.00">CA_load_cmd_table</text>
</a>
</g>
</g>
<!-- Node6&#45;&gt;Node7 -->
<g id="edge6" class="edge">
<title>Node6&#45;&gt;Node7</title>
<path fill="none" stroke="midnightblue" d="M293.85,-21.71C285.5,-20.51 276.81,-19.26 268.34,-18.04"/>
<polygon fill="midnightblue" stroke="midnightblue" points="293.42,-25.18 303.82,-23.14 294.42,-18.26 293.42,-25.18"/>
</g>
<!-- Node7&#45;&gt;Node2 -->
<g id="edge7" class="edge">
<title>Node7&#45;&gt;Node2</title>
<path fill="none" stroke="midnightblue" d="M278.49,-6.08C311.25,-5.13 351.34,-5.47 387,-10 401.64,-11.86 417.54,-15.73 430.8,-19.5"/>
<polygon fill="midnightblue" stroke="midnightblue" points="278.01,-2.6 268.13,-6.43 278.24,-9.59 278.01,-2.6"/>
</g>
</g>
</svg>
