<?xml version="1.0" encoding="UTF-8" standalone="no"?>
<!DOCTYPE svg PUBLIC "-//W3C//DTD SVG 1.1//EN"
 "http://www.w3.org/Graphics/SVG/1.1/DTD/svg11.dtd">
<!-- Generated by graphviz version 2.43.0 (0)
 -->
<!-- Title: CCP_calc_param_offset_ Pages: 1 -->
<svg width="1229pt" height="249pt"
 viewBox="0.00 0.00 1229.00 248.50" xmlns="http://www.w3.org/2000/svg" xmlns:xlink="http://www.w3.org/1999/xlink">
<g id="graph0" class="graph" transform="scale(1 1) rotate(0) translate(4 244.5)">
<title>CCP_calc_param_offset_</title>
<polygon fill="white" stroke="transparent" points="-4,4 -4,-244.5 1225,-244.5 1225,4 -4,4"/>
<!-- Node1 -->
<g id="node1" class="node">
<title>Node1</title>
<g id="a_node1"><a xlink:title="CTCP パラメタ開始位置に対する n 番目の引数の offset を計算する">
<polygon fill="#bfbfbf" stroke="black" points="1085,-117.5 1085,-136.5 1221,-136.5 1221,-117.5 1085,-117.5"/>
<text text-anchor="middle" x="1153" y="-124.5" font-family="Helvetica,sans-Serif" font-size="10.00">CCP_calc_param_offset_</text>
</a>
</g>
</g>
<!-- Node2 -->
<g id="node2" class="node">
<title>Node2</title>
<g id="a_node2"><a xlink:href="common__tlm__cmd__packet__util_8h.html#a542d6381f3370c5f69abed0d73134997" target="_top" xlink:title="CCP packet から，サイズが 1 byte のコマンド引数を取得する">
<polygon fill="white" stroke="black" points="912.5,-210 912.5,-240 1039.5,-240 1039.5,-210 912.5,-210"/>
<text text-anchor="start" x="920.5" y="-228" font-family="Helvetica,sans-Serif" font-size="10.00">CCP_get_1byte_param</text>
<text text-anchor="middle" x="976" y="-217" font-family="Helvetica,sans-Serif" font-size="10.00">_from_packet</text>
</a>
</g>
</g>
<!-- Node1&#45;&gt;Node2 -->
<g id="edge1" class="edge">
<title>Node1&#45;&gt;Node2</title>
<path fill="none" stroke="midnightblue" d="M1133.34,-143.08C1113.52,-159.49 1080.74,-184.78 1049,-201 1042.55,-204.3 1035.54,-207.29 1028.52,-209.95"/>
<polygon fill="midnightblue" stroke="midnightblue" points="1135.59,-145.76 1141,-136.64 1131.09,-140.4 1135.59,-145.76"/>
</g>
<!-- Node3 -->
<g id="node3" class="node">
<title>Node3</title>
<g id="a_node3"><a xlink:href="common__tlm__cmd__packet__util_8h.html#a363573aa8d7e834d51ef805c1776a7c1" target="_top" xlink:title="CCP packet から，サイズが 2 byte のコマンド引数を取得する">
<polygon fill="white" stroke="black" points="912.5,-161 912.5,-191 1039.5,-191 1039.5,-161 912.5,-161"/>
<text text-anchor="start" x="920.5" y="-179" font-family="Helvetica,sans-Serif" font-size="10.00">CCP_get_2byte_param</text>
<text text-anchor="middle" x="976" y="-168" font-family="Helvetica,sans-Serif" font-size="10.00">_from_packet</text>
</a>
</g>
</g>
<!-- Node1&#45;&gt;Node3 -->
<g id="edge2" class="edge">
<title>Node1&#45;&gt;Node3</title>
<path fill="none" stroke="midnightblue" d="M1108.15,-139.28C1084.67,-145.85 1055.54,-154.01 1030.7,-160.96"/>
<polygon fill="midnightblue" stroke="midnightblue" points="1109.16,-142.63 1117.84,-136.56 1107.27,-135.89 1109.16,-142.63"/>
</g>
<!-- Node4 -->
<g id="node4" class="node">
<title>Node4</title>
<g id="a_node4"><a xlink:href="common__tlm__cmd__packet__util_8h.html#ae17dcf781a9de5b13513022563a663e2" target="_top" xlink:title="CCP packet から，サイズが 4 byte のコマンド引数を取得する">
<polygon fill="white" stroke="black" points="912.5,-112 912.5,-142 1039.5,-142 1039.5,-112 912.5,-112"/>
<text text-anchor="start" x="920.5" y="-130" font-family="Helvetica,sans-Serif" font-size="10.00">CCP_get_4byte_param</text>
<text text-anchor="middle" x="976" y="-119" font-family="Helvetica,sans-Serif" font-size="10.00">_from_packet</text>
</a>
</g>
</g>
<!-- Node1&#45;&gt;Node4 -->
<g id="edge3" class="edge">
<title>Node1&#45;&gt;Node4</title>
<path fill="none" stroke="midnightblue" d="M1074.65,-127C1062.95,-127 1051.01,-127 1039.67,-127"/>
<polygon fill="midnightblue" stroke="midnightblue" points="1074.84,-130.5 1084.84,-127 1074.84,-123.5 1074.84,-130.5"/>
</g>
<!-- Node5 -->
<g id="node5" class="node">
<title>Node5</title>
<g id="a_node5"><a xlink:href="common__tlm__cmd__packet__util_8h.html#adf6fbc0872d0c50b8e1271b52abd8eea" target="_top" xlink:title="CCP packet から，サイズが 8 byte のコマンド引数を取得する">
<polygon fill="white" stroke="black" points="912.5,-63 912.5,-93 1039.5,-93 1039.5,-63 912.5,-63"/>
<text text-anchor="start" x="920.5" y="-81" font-family="Helvetica,sans-Serif" font-size="10.00">CCP_get_8byte_param</text>
<text text-anchor="middle" x="976" y="-70" font-family="Helvetica,sans-Serif" font-size="10.00">_from_packet</text>
</a>
</g>
</g>
<!-- Node1&#45;&gt;Node5 -->
<g id="edge4" class="edge">
<title>Node1&#45;&gt;Node5</title>
<path fill="none" stroke="midnightblue" d="M1108.15,-114.72C1084.67,-108.15 1055.54,-99.99 1030.7,-93.04"/>
<polygon fill="midnightblue" stroke="midnightblue" points="1107.27,-118.11 1117.84,-117.44 1109.16,-111.37 1107.27,-118.11"/>
</g>
<!-- Node6 -->
<g id="node6" class="node">
<title>Node6</title>
<g id="a_node6"><a xlink:href="common__tlm__cmd__packet__util_8h.html#ae9f395d436a8c6d8a64b4d4154cd57de" target="_top" xlink:title="CCP packet から，RAW コマンド引数を取得する">
<polygon fill="white" stroke="black" points="903,-14 903,-44 1049,-44 1049,-14 903,-14"/>
<text text-anchor="start" x="911" y="-32" font-family="Helvetica,sans-Serif" font-size="10.00">CCP_get_raw_param_from</text>
<text text-anchor="middle" x="976" y="-21" font-family="Helvetica,sans-Serif" font-size="10.00">_packet</text>
</a>
</g>
</g>
<!-- Node1&#45;&gt;Node6 -->
<g id="edge5" class="edge">
<title>Node1&#45;&gt;Node6</title>
<path fill="none" stroke="midnightblue" d="M1132.67,-110.76C1112.73,-94.64 1080.23,-70.08 1049,-54 1041.94,-50.37 1034.24,-47.06 1026.58,-44.13"/>
<polygon fill="midnightblue" stroke="midnightblue" points="1130.7,-113.67 1140.65,-117.3 1135.14,-108.26 1130.7,-113.67"/>
</g>
<!-- Node7 -->
<g id="node7" class="node">
<title>Node7</title>
<g id="a_node7"><a xlink:href="block__command__table_8h.html#a67bb3a363273909b0e009a55d4d5ce6a" target="_top" xlink:title=" ">
<polygon fill="white" stroke="black" points="711,-38.5 711,-57.5 867,-57.5 867,-38.5 711,-38.5"/>
<text text-anchor="middle" x="789" y="-45.5" font-family="Helvetica,sans-Serif" font-size="10.00">Cmd_BCT_OVERWRITE_CMD</text>
</a>
</g>
</g>
<!-- Node6&#45;&gt;Node7 -->
<g id="edge6" class="edge">
<title>Node6&#45;&gt;Node7</title>
<path fill="none" stroke="midnightblue" d="M892.92,-37.43C884.32,-38.31 875.6,-39.21 867.06,-40.09"/>
<polygon fill="midnightblue" stroke="midnightblue" points="893.35,-40.9 902.94,-36.4 892.64,-33.94 893.35,-40.9"/>
</g>
<!-- Node14 -->
<g id="node14" class="node">
<title>Node14</title>
<g id="a_node14"><a xlink:href="command__analyze_8h.html#aab9b069d2040830c8016249999266fbd" target="_top" xlink:title=" ">
<polygon fill="white" stroke="black" points="719,-0.5 719,-19.5 859,-19.5 859,-0.5 719,-0.5"/>
<text text-anchor="middle" x="789" y="-7.5" font-family="Helvetica,sans-Serif" font-size="10.00">Cmd_CA_REGISTER_CMD</text>
</a>
</g>
</g>
<!-- Node6&#45;&gt;Node14 -->
<g id="edge13" class="edge">
<title>Node6&#45;&gt;Node14</title>
<path fill="none" stroke="midnightblue" d="M892.72,-20.55C881.5,-19.4 870.08,-18.22 859.13,-17.1"/>
<polygon fill="midnightblue" stroke="midnightblue" points="892.64,-24.06 902.94,-21.6 893.35,-17.1 892.64,-24.06"/>
</g>
<!-- Node8 -->
<g id="node8" class="node">
<title>Node8</title>
<g id="a_node8"><a xlink:href="command__definitions_8c.html#aa375895192b16d8e7f0ff4545b54e6c4" target="_top" xlink:title="Cmd Tableのロード">
<polygon fill="white" stroke="black" points="562,-19.5 562,-38.5 675,-38.5 675,-19.5 562,-19.5"/>
<text text-anchor="middle" x="618.5" y="-26.5" font-family="Helvetica,sans-Serif" font-size="10.00">CA_load_cmd_table</text>
</a>
</g>
</g>
<!-- Node7&#45;&gt;Node8 -->
<g id="edge7" class="edge">
<title>Node7&#45;&gt;Node8</title>
<path fill="none" stroke="midnightblue" d="M700.56,-38.14C691.96,-37.17 683.4,-36.21 675.25,-35.29"/>
<polygon fill="midnightblue" stroke="midnightblue" points="700.33,-41.64 710.65,-39.28 701.11,-34.68 700.33,-41.64"/>
</g>
<!-- Node9 -->
<g id="node9" class="node">
<title>Node9</title>
<g id="a_node9"><a xlink:href="command__analyze_8h.html#ae6d1f376bf4e1c9c4b63bc3f04924c8a" target="_top" xlink:title="CA の初期化">
<polygon fill="white" stroke="black" points="449,-19.5 449,-38.5 526,-38.5 526,-19.5 449,-19.5"/>
<text text-anchor="middle" x="487.5" y="-26.5" font-family="Helvetica,sans-Serif" font-size="10.00">CA_initialize</text>
</a>
</g>
</g>
<!-- Node8&#45;&gt;Node9 -->
<g id="edge8" class="edge">
<title>Node8&#45;&gt;Node9</title>
<path fill="none" stroke="midnightblue" d="M551.5,-29C542.82,-29 534.17,-29 526.19,-29"/>
<polygon fill="midnightblue" stroke="midnightblue" points="551.67,-32.5 561.67,-29 551.67,-25.5 551.67,-32.5"/>
</g>
<!-- Node10 -->
<g id="node10" class="node">
<title>Node10</title>
<g id="a_node10"><a xlink:href="c2a__core__main_8h.html#a65ecdc63d8762ffde4db7f6c6e6f07cf" target="_top" xlink:title=" ">
<polygon fill="white" stroke="black" points="330,-19.5 330,-38.5 413,-38.5 413,-19.5 330,-19.5"/>
<text text-anchor="middle" x="371.5" y="-26.5" font-family="Helvetica,sans-Serif" font-size="10.00">C2A_core_init</text>
</a>
</g>
</g>
<!-- Node9&#45;&gt;Node10 -->
<g id="edge9" class="edge">
<title>Node9&#45;&gt;Node10</title>
<path fill="none" stroke="midnightblue" d="M438.72,-29C430.25,-29 421.5,-29 413.24,-29"/>
<polygon fill="midnightblue" stroke="midnightblue" points="438.86,-32.5 448.86,-29 438.86,-25.5 438.86,-32.5"/>
</g>
<!-- Node11 -->
<g id="node11" class="node">
<title>Node11</title>
<g id="a_node11"><a xlink:href="c2a__main_8c.html#a630222a80cd8bffd4426d4a55a215069" target="_top" xlink:title=" ">
<polygon fill="white" stroke="black" points="232,-19.5 232,-38.5 294,-38.5 294,-19.5 232,-19.5"/>
<text text-anchor="middle" x="263" y="-26.5" font-family="Helvetica,sans-Serif" font-size="10.00">C2A_init_</text>
</a>
</g>
</g>
<!-- Node10&#45;&gt;Node11 -->
<g id="edge10" class="edge">
<title>Node10&#45;&gt;Node11</title>
<path fill="none" stroke="midnightblue" d="M319.76,-29C311.01,-29 302.17,-29 294.18,-29"/>
<polygon fill="midnightblue" stroke="midnightblue" points="319.93,-32.5 329.93,-29 319.93,-25.5 319.93,-32.5"/>
</g>
<!-- Node12 -->
<g id="node12" class="node">
<title>Node12</title>
<g id="a_node12"><a xlink:href="c2a__main_8c.html#ac3344a311adda8f9e7310924bedf81fc" target="_top" xlink:title=" ">
<polygon fill="white" stroke="black" points="77,-19.5 77,-38.5 196,-38.5 196,-19.5 77,-19.5"/>
<text text-anchor="middle" x="136.5" y="-26.5" font-family="Helvetica,sans-Serif" font-size="10.00">address_fixed_main_</text>
</a>
</g>
</g>
<!-- Node11&#45;&gt;Node12 -->
<g id="edge11" class="edge">
<title>Node11&#45;&gt;Node12</title>
<path fill="none" stroke="midnightblue" d="M221.83,-29C213.62,-29 204.82,-29 196.12,-29"/>
<polygon fill="midnightblue" stroke="midnightblue" points="221.86,-32.5 231.86,-29 221.86,-25.5 221.86,-32.5"/>
</g>
<!-- Node13 -->
<g id="node13" class="node">
<title>Node13</title>
<g id="a_node13"><a xlink:href="c2a__main_8c.html#a840291bc02cba5474a4cb46a9b9566fe" target="_top" xlink:title=" ">
<polygon fill="white" stroke="black" points="0,-19.5 0,-38.5 41,-38.5 41,-19.5 0,-19.5"/>
<text text-anchor="middle" x="20.5" y="-26.5" font-family="Helvetica,sans-Serif" font-size="10.00">main</text>
</a>
</g>
</g>
<!-- Node12&#45;&gt;Node13 -->
<g id="edge12" class="edge">
<title>Node12&#45;&gt;Node13</title>
<path fill="none" stroke="midnightblue" d="M66.64,-29C57.37,-29 48.53,-29 41.18,-29"/>
<polygon fill="midnightblue" stroke="midnightblue" points="66.83,-32.5 76.83,-29 66.83,-25.5 66.83,-32.5"/>
</g>
<!-- Node14&#45;&gt;Node8 -->
<g id="edge14" class="edge">
<title>Node14&#45;&gt;Node8</title>
<path fill="none" stroke="midnightblue" d="M708.96,-18.91C697.49,-20.21 685.89,-21.51 675.02,-22.74"/>
<polygon fill="midnightblue" stroke="midnightblue" points="709.43,-22.38 718.98,-17.78 708.65,-15.43 709.43,-22.38"/>
</g>
</g>
</svg>
