<?xml version="1.0" encoding="UTF-8" standalone="no"?>
<!DOCTYPE svg PUBLIC "-//W3C//DTD SVG 1.1//EN"
 "http://www.w3.org/Graphics/SVG/1.1/DTD/svg11.dtd">
<!-- Generated by graphviz version 2.43.0 (0)
 -->
<!-- Title: CCP_init_param_for_packet Pages: 1 -->
<svg width="2121pt" height="380pt"
 viewBox="0.00 0.00 2121.00 379.50" xmlns="http://www.w3.org/2000/svg" xmlns:xlink="http://www.w3.org/1999/xlink">
<g id="graph0" class="graph" transform="scale(1 1) rotate(0) translate(4 375.5)">
<title>CCP_init_param_for_packet</title>
<polygon fill="white" stroke="transparent" points="-4,4 -4,-375.5 2117,-375.5 2117,4 -4,4"/>
<!-- Node1 -->
<g id="node1" class="node">
<title>Node1</title>
<g id="a_node1"><a xlink:title="Param Generator を初期化">
<polygon fill="#bfbfbf" stroke="black" points="2000,-141 2000,-171 2113,-171 2113,-141 2000,-141"/>
<text text-anchor="start" x="2008" y="-159" font-family="Helvetica,sans-Serif" font-size="10.00">CCP_init_param_for</text>
<text text-anchor="middle" x="2056.5" y="-148" font-family="Helvetica,sans-Serif" font-size="10.00">_packet</text>
</a>
</g>
</g>
<!-- Node2 -->
<g id="node2" class="node">
<title>Node2</title>
<g id="a_node2"><a xlink:href="common__cmd__packet__util_8h.html#a7e4a83a103dfa316c08b1570d93df0d1" target="_top" xlink:title="App 実行 TL コマンドを生成">
<polygon fill="white" stroke="black" points="1826.5,-189.5 1826.5,-208.5 1940.5,-208.5 1940.5,-189.5 1826.5,-189.5"/>
<text text-anchor="middle" x="1883.5" y="-196.5" font-family="Helvetica,sans-Serif" font-size="10.00">CCP_form_app_cmd</text>
</a>
</g>
</g>
<!-- Node1&#45;&gt;Node2 -->
<g id="edge1" class="edge">
<title>Node1&#45;&gt;Node2</title>
<path fill="none" stroke="midnightblue" d="M1990,-172.47C1967.16,-178.21 1942.31,-184.46 1922.46,-189.45"/>
<polygon fill="midnightblue" stroke="midnightblue" points="1991.14,-175.79 1999.98,-169.96 1989.43,-169.01 1991.14,-175.79"/>
</g>
<!-- Node15 -->
<g id="node15" class="node">
<title>Node15</title>
<g id="a_node15"><a xlink:href="common__cmd__packet__util_8h.html#ac4a5c5fca95eda07227b4da1883612fc" target="_top" xlink:title="BC展開 Realtime command を生成">
<polygon fill="white" stroke="black" points="1803,-127.5 1803,-146.5 1964,-146.5 1964,-127.5 1803,-127.5"/>
<text text-anchor="middle" x="1883.5" y="-134.5" font-family="Helvetica,sans-Serif" font-size="10.00">CCP_form_block_deploy_cmd</text>
</a>
</g>
</g>
<!-- Node1&#45;&gt;Node15 -->
<g id="edge18" class="edge">
<title>Node1&#45;&gt;Node15</title>
<path fill="none" stroke="midnightblue" d="M1989.91,-148.71C1981.52,-147.78 1972.86,-146.82 1964.27,-145.86"/>
<polygon fill="midnightblue" stroke="midnightblue" points="1989.66,-152.21 1999.98,-149.83 1990.43,-145.25 1989.66,-152.21"/>
</g>
<!-- Node3 -->
<g id="node3" class="node">
<title>Node3</title>
<g id="a_node3"><a xlink:href="block__command__loader_8c.html#a8b8df5aca929f5b6307b9695bb2a5b54" target="_top" xlink:title=" ">
<polygon fill="white" stroke="black" points="1640,-230.5 1640,-249.5 1747,-249.5 1747,-230.5 1640,-230.5"/>
<text text-anchor="middle" x="1693.5" y="-237.5" font-family="Helvetica,sans-Serif" font-size="10.00">BCL_register_app_</text>
</a>
</g>
</g>
<!-- Node2&#45;&gt;Node3 -->
<g id="edge2" class="edge">
<title>Node2&#45;&gt;Node3</title>
<path fill="none" stroke="midnightblue" d="M1829.01,-210.66C1800.27,-216.93 1765.28,-224.56 1738.19,-230.47"/>
<polygon fill="midnightblue" stroke="midnightblue" points="1829.87,-214.06 1838.9,-208.51 1828.38,-207.22 1829.87,-214.06"/>
</g>
<!-- Node4 -->
<g id="node4" class="node">
<title>Node4</title>
<g id="a_node4"><a xlink:href="block__command__loader_8h.html#a79f8c8fdf61bea28c3e44ddfe447c46d" target="_top" xlink:title="ブロックコマンドの最後にアプリの実行コマンドを追加する">
<polygon fill="white" stroke="black" points="1444.5,-233.5 1444.5,-252.5 1569.5,-252.5 1569.5,-233.5 1444.5,-233.5"/>
<text text-anchor="middle" x="1507" y="-240.5" font-family="Helvetica,sans-Serif" font-size="10.00">BCL_tool_register_app</text>
</a>
</g>
</g>
<!-- Node3&#45;&gt;Node4 -->
<g id="edge3" class="edge">
<title>Node3&#45;&gt;Node4</title>
<path fill="none" stroke="midnightblue" d="M1629.42,-241.03C1610.11,-241.34 1588.9,-241.68 1569.68,-242"/>
<polygon fill="midnightblue" stroke="midnightblue" points="1629.69,-244.52 1639.63,-240.86 1629.57,-237.52 1629.69,-244.52"/>
</g>
<!-- Node5 -->
<g id="node5" class="node">
<title>Node5</title>
<g id="a_node5"><a xlink:href="tl__elem__debug__display_8h.html#ade13b392000fcbdc4c6069044b89caf5" target="_top" xlink:title=" ">
<polygon fill="white" stroke="black" points="1244,-253 1244,-283 1383,-283 1383,-253 1244,-253"/>
<text text-anchor="start" x="1252" y="-271" font-family="Helvetica,sans-Serif" font-size="10.00">BCL_load_tl_elem_debug</text>
<text text-anchor="middle" x="1313.5" y="-260" font-family="Helvetica,sans-Serif" font-size="10.00">_display_initial</text>
</a>
</g>
</g>
<!-- Node4&#45;&gt;Node5 -->
<g id="edge4" class="edge">
<title>Node4&#45;&gt;Node5</title>
<path fill="none" stroke="midnightblue" d="M1434.09,-252.39C1417.35,-254.57 1399.58,-256.89 1383,-259.06"/>
<polygon fill="midnightblue" stroke="midnightblue" points="1434.89,-255.81 1444.35,-251.05 1433.99,-248.87 1434.89,-255.81"/>
</g>
<!-- Node11 -->
<g id="node11" class="node">
<title>Node11</title>
<g id="a_node11"><a xlink:href="tl__elem__drivers__update_8h.html#a43a4b8a2b65d0d11d99f2e90af311a69" target="_top" xlink:title=" ">
<polygon fill="white" stroke="black" points="1242,-204 1242,-234 1385,-234 1385,-204 1242,-204"/>
<text text-anchor="start" x="1250" y="-222" font-family="Helvetica,sans-Serif" font-size="10.00">BCL_load_tl_elem_drivers</text>
<text text-anchor="middle" x="1313.5" y="-211" font-family="Helvetica,sans-Serif" font-size="10.00">_update_initial</text>
</a>
</g>
</g>
<!-- Node4&#45;&gt;Node11 -->
<g id="edge10" class="edge">
<title>Node4&#45;&gt;Node11</title>
<path fill="none" stroke="midnightblue" d="M1433.98,-233.97C1417.95,-231.97 1400.98,-229.84 1385.02,-227.84"/>
<polygon fill="midnightblue" stroke="midnightblue" points="1434,-237.5 1444.35,-235.27 1434.87,-230.56 1434,-237.5"/>
</g>
<!-- Node12 -->
<g id="node12" class="node">
<title>Node12</title>
<g id="a_node12"><a xlink:href="tl__elem__gs__related__process_8h.html#a54394d894360c586a8b495c0493dcb56" target="_top" xlink:title=" ">
<polygon fill="white" stroke="black" points="1253.5,-155 1253.5,-185 1373.5,-185 1373.5,-155 1253.5,-155"/>
<text text-anchor="start" x="1261.5" y="-173" font-family="Helvetica,sans-Serif" font-size="10.00">BCL_load_tl_elem_gs</text>
<text text-anchor="middle" x="1313.5" y="-162" font-family="Helvetica,sans-Serif" font-size="10.00">_related_process</text>
</a>
</g>
</g>
<!-- Node4&#45;&gt;Node12 -->
<g id="edge12" class="edge">
<title>Node4&#45;&gt;Node12</title>
<path fill="none" stroke="midnightblue" d="M1476.79,-229.08C1454.41,-218.69 1422.63,-204.54 1394,-194 1385.48,-190.86 1376.33,-187.81 1367.39,-185"/>
<polygon fill="midnightblue" stroke="midnightblue" points="1475.52,-232.35 1486.06,-233.41 1478.49,-226.01 1475.52,-232.35"/>
</g>
<!-- Node13 -->
<g id="node13" class="node">
<title>Node13</title>
<g id="a_node13"><a xlink:href="tl__elem__tlm__cmd__hirate_8h.html#a390430a6274e250fb13a60674fcc1421" target="_top" xlink:title=" ">
<polygon fill="white" stroke="black" points="1251,-341 1251,-371 1376,-371 1376,-341 1251,-341"/>
<text text-anchor="start" x="1259" y="-359" font-family="Helvetica,sans-Serif" font-size="10.00">BCL_load_tl_elem_tlm</text>
<text text-anchor="middle" x="1313.5" y="-348" font-family="Helvetica,sans-Serif" font-size="10.00">_cmd_hirate</text>
</a>
</g>
</g>
<!-- Node4&#45;&gt;Node13 -->
<g id="edge14" class="edge">
<title>Node4&#45;&gt;Node13</title>
<path fill="none" stroke="midnightblue" d="M1488.98,-259.65C1468.15,-279.21 1431.07,-311.45 1394,-331 1386.83,-334.78 1379,-338.1 1371.13,-340.99"/>
<polygon fill="midnightblue" stroke="midnightblue" points="1491.56,-262.03 1496.37,-252.6 1486.72,-256.97 1491.56,-262.03"/>
</g>
<!-- Node14 -->
<g id="node14" class="node">
<title>Node14</title>
<g id="a_node14"><a xlink:href="tl__initial_8h.html#af6862d0b2e049d2909fe805ff11763a2" target="_top" xlink:title=" ">
<polygon fill="white" stroke="black" points="1260,-302.5 1260,-321.5 1367,-321.5 1367,-302.5 1260,-302.5"/>
<text text-anchor="middle" x="1313.5" y="-309.5" font-family="Helvetica,sans-Serif" font-size="10.00">BCL_load_tl_initial</text>
</a>
</g>
</g>
<!-- Node4&#45;&gt;Node14 -->
<g id="edge16" class="edge">
<title>Node4&#45;&gt;Node14</title>
<path fill="none" stroke="midnightblue" d="M1478.2,-257.15C1455.88,-268.08 1423.51,-282.98 1394,-293 1383.38,-296.6 1371.75,-299.79 1360.74,-302.48"/>
<polygon fill="midnightblue" stroke="midnightblue" points="1480,-260.16 1487.4,-252.59 1476.89,-253.89 1480,-260.16"/>
</g>
<!-- Node6 -->
<g id="node6" class="node">
<title>Node6</title>
<g id="a_node6"><a xlink:href="block__command__definitions_8h.html#a522491947d97b89960b9228a8a86c3ec" target="_top" xlink:title="各ブロックコマンドIDに中身の初期値をロードしていく">
<polygon fill="white" stroke="black" points="1086.5,-233.5 1086.5,-252.5 1187.5,-252.5 1187.5,-233.5 1086.5,-233.5"/>
<text text-anchor="middle" x="1137" y="-240.5" font-family="Helvetica,sans-Serif" font-size="10.00">BC_load_defaults</text>
</a>
</g>
</g>
<!-- Node5&#45;&gt;Node6 -->
<g id="edge5" class="edge">
<title>Node5&#45;&gt;Node6</title>
<path fill="none" stroke="midnightblue" d="M1233.56,-256.69C1217.89,-254.45 1201.86,-252.15 1187.52,-250.09"/>
<polygon fill="midnightblue" stroke="midnightblue" points="1233.39,-260.2 1243.78,-258.16 1234.38,-253.27 1233.39,-260.2"/>
</g>
<!-- Node7 -->
<g id="node7" class="node">
<title>Node7</title>
<g id="a_node7"><a xlink:href="block__command__table_8h.html#a626372f9ceecbe91c090aac87437edd1" target="_top" xlink:title="BCT の初期化関数">
<polygon fill="white" stroke="black" points="568,-195.5 568,-214.5 651,-214.5 651,-195.5 568,-195.5"/>
<text text-anchor="middle" x="609.5" y="-202.5" font-family="Helvetica,sans-Serif" font-size="10.00">BCT_initialize</text>
</a>
</g>
</g>
<!-- Node6&#45;&gt;Node7 -->
<g id="edge6" class="edge">
<title>Node6&#45;&gt;Node7</title>
<path fill="none" stroke="midnightblue" d="M1076,-238.66C967.96,-230.85 743.34,-214.61 651.24,-207.95"/>
<polygon fill="midnightblue" stroke="midnightblue" points="1075.86,-242.16 1086.09,-239.39 1076.37,-235.18 1075.86,-242.16"/>
</g>
<!-- Node8 -->
<g id="node8" class="node">
<title>Node8</title>
<g id="a_node8"><a xlink:href="c2a__core__main_8h.html#a65ecdc63d8762ffde4db7f6c6e6f07cf" target="_top" xlink:title=" ">
<polygon fill="white" stroke="black" points="253,-115.5 253,-134.5 336,-134.5 336,-115.5 253,-115.5"/>
<text text-anchor="middle" x="294.5" y="-122.5" font-family="Helvetica,sans-Serif" font-size="10.00">C2A_core_init</text>
</a>
</g>
</g>
<!-- Node7&#45;&gt;Node8 -->
<g id="edge7" class="edge">
<title>Node7&#45;&gt;Node8</title>
<path fill="none" stroke="midnightblue" d="M557.92,-204.31C509,-202.23 433.47,-195.26 372,-173 346.94,-163.92 321.43,-145.74 307.11,-134.54"/>
<polygon fill="midnightblue" stroke="midnightblue" points="557.81,-207.81 567.93,-204.69 558.07,-200.82 557.81,-207.81"/>
</g>
<!-- Node9 -->
<g id="node9" class="node">
<title>Node9</title>
<g id="a_node9"><a xlink:href="c2a__main_8c.html#a630222a80cd8bffd4426d4a55a215069" target="_top" xlink:title=" ">
<polygon fill="white" stroke="black" points="155,-115.5 155,-134.5 217,-134.5 217,-115.5 155,-115.5"/>
<text text-anchor="middle" x="186" y="-122.5" font-family="Helvetica,sans-Serif" font-size="10.00">C2A_init_</text>
</a>
</g>
</g>
<!-- Node8&#45;&gt;Node9 -->
<g id="edge8" class="edge">
<title>Node8&#45;&gt;Node9</title>
<path fill="none" stroke="midnightblue" d="M242.76,-125C234.01,-125 225.17,-125 217.18,-125"/>
<polygon fill="midnightblue" stroke="midnightblue" points="242.93,-128.5 252.93,-125 242.93,-121.5 242.93,-128.5"/>
</g>
<!-- Node10 -->
<g id="node10" class="node">
<title>Node10</title>
<g id="a_node10"><a xlink:href="c2a__main_8c.html#ac3344a311adda8f9e7310924bedf81fc" target="_top" xlink:title=" ">
<polygon fill="white" stroke="black" points="0,-115.5 0,-134.5 119,-134.5 119,-115.5 0,-115.5"/>
<text text-anchor="middle" x="59.5" y="-122.5" font-family="Helvetica,sans-Serif" font-size="10.00">address_fixed_main_</text>
</a>
</g>
</g>
<!-- Node9&#45;&gt;Node10 -->
<g id="edge9" class="edge">
<title>Node9&#45;&gt;Node10</title>
<path fill="none" stroke="midnightblue" d="M144.83,-125C136.62,-125 127.82,-125 119.12,-125"/>
<polygon fill="midnightblue" stroke="midnightblue" points="144.86,-128.5 154.86,-125 144.86,-121.5 144.86,-128.5"/>
</g>
<!-- Node11&#45;&gt;Node6 -->
<g id="edge11" class="edge">
<title>Node11&#45;&gt;Node6</title>
<path fill="none" stroke="midnightblue" d="M1231.49,-230.14C1216.54,-232.2 1201.35,-234.29 1187.68,-236.17"/>
<polygon fill="midnightblue" stroke="midnightblue" points="1232.35,-233.56 1241.78,-228.73 1231.39,-226.62 1232.35,-233.56"/>
</g>
<!-- Node12&#45;&gt;Node6 -->
<g id="edge13" class="edge">
<title>Node12&#45;&gt;Node6</title>
<path fill="none" stroke="midnightblue" d="M1247.91,-188.4C1242.83,-190.18 1237.8,-192.05 1233,-194 1204.45,-205.56 1172.98,-222.73 1154.38,-233.38"/>
<polygon fill="midnightblue" stroke="midnightblue" points="1249.37,-191.6 1257.73,-185.09 1247.13,-184.97 1249.37,-191.6"/>
</g>
<!-- Node13&#45;&gt;Node6 -->
<g id="edge15" class="edge">
<title>Node13&#45;&gt;Node6</title>
<path fill="none" stroke="midnightblue" d="M1244.49,-336.9C1240.52,-335.09 1236.66,-333.12 1233,-331 1195.67,-309.33 1160.9,-270.67 1145.84,-252.69"/>
<polygon fill="midnightblue" stroke="midnightblue" points="1243.33,-340.21 1253.9,-340.87 1246.05,-333.76 1243.33,-340.21"/>
</g>
<!-- Node14&#45;&gt;Node6 -->
<g id="edge17" class="edge">
<title>Node14&#45;&gt;Node6</title>
<path fill="none" stroke="midnightblue" d="M1254.19,-299.85C1246.97,-297.82 1239.76,-295.54 1233,-293 1203.52,-281.92 1171.56,-263.68 1153.24,-252.56"/>
<polygon fill="midnightblue" stroke="midnightblue" points="1253.43,-303.27 1263.99,-302.45 1255.23,-296.5 1253.43,-303.27"/>
</g>
<!-- Node16 -->
<g id="node16" class="node">
<title>Node16</title>
<g id="a_node16"><a xlink:href="common__cmd__packet__util_8h.html#ad54dccaa6f4da58c94a03a95318f7d95" target="_top" xlink:title="BC展開 command を生成し，即時実行する">
<polygon fill="white" stroke="black" points="1620,-78 1620,-108 1767,-108 1767,-78 1620,-78"/>
<text text-anchor="start" x="1628" y="-96" font-family="Helvetica,sans-Serif" font-size="10.00">CCP_form_and_exec_block</text>
<text text-anchor="middle" x="1693.5" y="-85" font-family="Helvetica,sans-Serif" font-size="10.00">_deploy_cmd</text>
</a>
</g>
</g>
<!-- Node15&#45;&gt;Node16 -->
<g id="edge19" class="edge">
<title>Node15&#45;&gt;Node16</title>
<path fill="none" stroke="midnightblue" d="M1831.72,-125.12C1809.3,-119.87 1782.67,-113.64 1758.87,-108.07"/>
<polygon fill="midnightblue" stroke="midnightblue" points="1831.17,-128.58 1841.71,-127.45 1832.77,-121.77 1831.17,-128.58"/>
</g>
<!-- Node33 -->
<g id="node33" class="node">
<title>Node33</title>
<g id="a_node33"><a xlink:href="telemetry__manager_8h.html#ad6f65df0da86f70cbd0f5b1e6cb32dbc" target="_top" xlink:title="TLM送出開始">
<polygon fill="white" stroke="black" points="1430,-6.5 1430,-25.5 1584,-25.5 1584,-6.5 1430,-6.5"/>
<text text-anchor="middle" x="1507" y="-13.5" font-family="Helvetica,sans-Serif" font-size="10.00">Cmd_TLM_MGR_START_TLM</text>
</a>
</g>
</g>
<!-- Node15&#45;&gt;Node33 -->
<g id="edge42" class="edge">
<title>Node15&#45;&gt;Node33</title>
<path fill="none" stroke="midnightblue" d="M1861.38,-121.35C1839.05,-105.55 1802.24,-81.6 1767,-68 1707.74,-45.13 1636.79,-31.79 1584.15,-24.35"/>
<polygon fill="midnightblue" stroke="midnightblue" points="1859.58,-124.37 1869.75,-127.37 1863.67,-118.69 1859.58,-124.37"/>
</g>
<!-- Node34 -->
<g id="node34" class="node">
<title>Node34</title>
<g id="a_node34"><a xlink:href="sequence__items_8h.html#ac5b43e918a54df9779de00de808b12d1" target="_top" xlink:title=" ">
<polygon fill="white" stroke="black" points="1646,-165.5 1646,-184.5 1741,-184.5 1741,-165.5 1646,-165.5"/>
<text text-anchor="middle" x="1693.5" y="-172.5" font-family="Helvetica,sans-Serif" font-size="10.00">SI_deploy_block</text>
</a>
</g>
</g>
<!-- Node15&#45;&gt;Node34 -->
<g id="edge44" class="edge">
<title>Node15&#45;&gt;Node34</title>
<path fill="none" stroke="midnightblue" d="M1825.02,-148.62C1798.18,-154.04 1766.63,-160.42 1741.27,-165.55"/>
<polygon fill="midnightblue" stroke="midnightblue" points="1825.95,-152 1835.06,-146.59 1824.56,-145.14 1825.95,-152"/>
</g>
<!-- Node35 -->
<g id="node35" class="node">
<title>Node35</title>
<g id="a_node35"><a xlink:href="sequence__items_8h.html#a0d524415abe3f1169e24b7f4aeec1096" target="_top" xlink:title=" ">
<polygon fill="white" stroke="black" points="1647.5,-127.5 1647.5,-146.5 1739.5,-146.5 1739.5,-127.5 1647.5,-127.5"/>
<text text-anchor="middle" x="1693.5" y="-134.5" font-family="Helvetica,sans-Serif" font-size="10.00">SI_start_hk_tlm</text>
</a>
</g>
</g>
<!-- Node15&#45;&gt;Node35 -->
<g id="edge45" class="edge">
<title>Node15&#45;&gt;Node35</title>
<path fill="none" stroke="midnightblue" d="M1792.58,-137C1774.17,-137 1755.54,-137 1739.55,-137"/>
<polygon fill="midnightblue" stroke="midnightblue" points="1792.77,-140.5 1802.77,-137 1792.77,-133.5 1792.77,-140.5"/>
</g>
<!-- Node17 -->
<g id="node17" class="node">
<title>Node17</title>
<g id="a_node17"><a xlink:href="event__handler_8c.html#a8d7de705ac2b09f9f25644f0c9f55952" target="_top" xlink:title="EH 対応を実施">
<polygon fill="white" stroke="black" points="1467,-78.5 1467,-97.5 1547,-97.5 1547,-78.5 1467,-78.5"/>
<text text-anchor="middle" x="1507" y="-85.5" font-family="Helvetica,sans-Serif" font-size="10.00">EH_respond_</text>
</a>
</g>
</g>
<!-- Node16&#45;&gt;Node17 -->
<g id="edge20" class="edge">
<title>Node16&#45;&gt;Node17</title>
<path fill="none" stroke="midnightblue" d="M1609.58,-90.75C1587.82,-90.16 1565.36,-89.55 1547.11,-89.06"/>
<polygon fill="midnightblue" stroke="midnightblue" points="1609.75,-94.26 1619.85,-91.03 1609.94,-87.26 1609.75,-94.26"/>
</g>
<!-- Node29 -->
<g id="node29" class="node">
<title>Node29</title>
<g id="a_node29"><a xlink:href="mode__manager_8c.html#a4a483437e28116e6067d488392922a8f" target="_top" xlink:title="(モード遷移に対応する)ブロックコマンドのタイムラインへの展開を行う">
<polygon fill="white" stroke="black" points="1439,-116.5 1439,-135.5 1575,-135.5 1575,-116.5 1439,-116.5"/>
<text text-anchor="middle" x="1507" y="-123.5" font-family="Helvetica,sans-Serif" font-size="10.00">MM_deploy_block_cmd_</text>
</a>
</g>
</g>
<!-- Node16&#45;&gt;Node29 -->
<g id="edge36" class="edge">
<title>Node16&#45;&gt;Node29</title>
<path fill="none" stroke="midnightblue" d="M1609.67,-107.82C1593.21,-110.76 1576.34,-113.78 1561.2,-116.48"/>
<polygon fill="midnightblue" stroke="midnightblue" points="1610.62,-111.2 1619.85,-106 1609.39,-104.31 1610.62,-111.2"/>
</g>
<!-- Node18 -->
<g id="node18" class="node">
<title>Node18</title>
<g id="a_node18"><a xlink:href="event__handler_8c.html#ac7461e79109f06783e2c620a6d999a6b" target="_top" xlink:title="EH の対応条件をチェックし， EL_Event に対応する">
<polygon fill="white" stroke="black" points="1233,-78.5 1233,-97.5 1394,-97.5 1394,-78.5 1233,-78.5"/>
<text text-anchor="middle" x="1313.5" y="-85.5" font-family="Helvetica,sans-Serif" font-size="10.00">EH_check_rule_and_respond_</text>
</a>
</g>
</g>
<!-- Node17&#45;&gt;Node18 -->
<g id="edge21" class="edge">
<title>Node17&#45;&gt;Node18</title>
<path fill="none" stroke="midnightblue" d="M1456.6,-88C1437.64,-88 1415.48,-88 1394.37,-88"/>
<polygon fill="midnightblue" stroke="midnightblue" points="1456.79,-91.5 1466.79,-88 1456.78,-84.5 1456.79,-91.5"/>
</g>
<!-- Node19 -->
<g id="node19" class="node">
<title>Node19</title>
<g id="a_node19"><a xlink:href="event__handler_8c.html#a227ed3b7079c58dee50a81ce408549a2" target="_top" xlink:title="EL_Event に対応する EH_Rule が存在するかチェックし，対応する">
<polygon fill="white" stroke="black" points="1077,-29 1077,-59 1197,-59 1197,-29 1077,-29"/>
<text text-anchor="start" x="1085" y="-47" font-family="Helvetica,sans-Serif" font-size="10.00">EH_check_event_and</text>
<text text-anchor="middle" x="1137" y="-36" font-family="Helvetica,sans-Serif" font-size="10.00">_respond_</text>
</a>
</g>
</g>
<!-- Node18&#45;&gt;Node19 -->
<g id="edge22" class="edge">
<title>Node18&#45;&gt;Node19</title>
<path fill="none" stroke="midnightblue" d="M1264.71,-75.95C1243.82,-70.68 1219.1,-64.45 1197.07,-58.89"/>
<polygon fill="midnightblue" stroke="midnightblue" points="1264.08,-79.4 1274.64,-78.45 1265.8,-72.61 1264.08,-79.4"/>
</g>
<!-- Node20 -->
<g id="node20" class="node">
<title>Node20</title>
<g id="a_node20"><a xlink:href="event__handler_8c.html#af084576db8b00a4c7e4b117314b128db" target="_top" xlink:title="上位の EH の対応条件をチェックし，対応する">
<polygon fill="white" stroke="black" points="912,-70 912,-100 1041,-100 1041,-70 912,-70"/>
<text text-anchor="start" x="920" y="-88" font-family="Helvetica,sans-Serif" font-size="10.00">EH_check_higher_level</text>
<text text-anchor="middle" x="976.5" y="-77" font-family="Helvetica,sans-Serif" font-size="10.00">_rule_and_respond_</text>
</a>
</g>
</g>
<!-- Node19&#45;&gt;Node20 -->
<g id="edge23" class="edge">
<title>Node19&#45;&gt;Node20</title>
<path fill="none" stroke="midnightblue" d="M1068.06,-61.57C1057.26,-64.37 1046.16,-67.24 1035.61,-69.97"/>
<polygon fill="midnightblue" stroke="midnightblue" points="1069.08,-64.93 1077.88,-59.03 1067.32,-58.15 1069.08,-64.93"/>
</g>
<!-- Node21 -->
<g id="node21" class="node">
<title>Node21</title>
<g id="a_node21"><a xlink:href="event__handler_8h.html#a76ddd224739890733cbd318e2d5c015b" target="_top" xlink:title="event_handler の実行">
<polygon fill="white" stroke="black" points="939.5,-31.5 939.5,-50.5 1013.5,-50.5 1013.5,-31.5 939.5,-31.5"/>
<text text-anchor="middle" x="976.5" y="-38.5" font-family="Helvetica,sans-Serif" font-size="10.00">EH_execute</text>
</a>
</g>
</g>
<!-- Node19&#45;&gt;Node21 -->
<g id="edge25" class="edge">
<title>Node19&#45;&gt;Node21</title>
<path fill="none" stroke="midnightblue" d="M1066.87,-42.69C1048.49,-42.34 1029.36,-41.98 1013.55,-41.68"/>
<polygon fill="midnightblue" stroke="midnightblue" points="1066.92,-46.19 1076.98,-42.88 1067.05,-39.19 1066.92,-46.19"/>
</g>
<!-- Node20&#45;&gt;Node18 -->
<g id="edge24" class="edge">
<title>Node20&#45;&gt;Node18</title>
<path fill="none" stroke="midnightblue" d="M1051.17,-85.66C1104.89,-86.14 1177.6,-86.79 1232.68,-87.29"/>
<polygon fill="midnightblue" stroke="midnightblue" points="1051.07,-82.16 1041.04,-85.57 1051,-89.16 1051.07,-82.16"/>
</g>
<!-- Node22 -->
<g id="node22" class="node">
<title>Node22</title>
<g id="a_node22"><a xlink:href="event__utility_8h.html#a67f98486105b4baa865c8b30d346afa8" target="_top" xlink:title=" ">
<polygon fill="white" stroke="black" points="718,-30.5 718,-49.5 871,-49.5 871,-30.5 718,-30.5"/>
<text text-anchor="middle" x="794.5" y="-37.5" font-family="Helvetica,sans-Serif" font-size="10.00">Cmd_EVENT_UTIL_EXEC_EH</text>
</a>
</g>
</g>
<!-- Node21&#45;&gt;Node22 -->
<g id="edge26" class="edge">
<title>Node21&#45;&gt;Node22</title>
<path fill="none" stroke="midnightblue" d="M929.07,-40.74C911.45,-40.64 890.9,-40.53 871.27,-40.42"/>
<polygon fill="midnightblue" stroke="midnightblue" points="929.05,-44.24 939.07,-40.8 929.09,-37.24 929.05,-44.24"/>
</g>
<!-- Node26 -->
<g id="node26" class="node">
<title>Node26</title>
<g id="a_node26"><a xlink:href="event__utility_8c.html#a548bb66aea76e09e9f801c10fad11b98" target="_top" xlink:title=" ">
<polygon fill="white" stroke="black" points="734.5,-68.5 734.5,-87.5 854.5,-87.5 854.5,-68.5 734.5,-68.5"/>
<text text-anchor="middle" x="794.5" y="-75.5" font-family="Helvetica,sans-Serif" font-size="10.00">EVENT_UTIL_update_</text>
</a>
</g>
</g>
<!-- Node21&#45;&gt;Node26 -->
<g id="edge32" class="edge">
<title>Node21&#45;&gt;Node26</title>
<path fill="none" stroke="midnightblue" d="M929.15,-50.53C902.32,-56.04 868.65,-62.96 841.81,-68.48"/>
<polygon fill="midnightblue" stroke="midnightblue" points="929.98,-53.93 939.07,-48.49 928.57,-47.07 929.98,-53.93"/>
</g>
<!-- Node23 -->
<g id="node23" class="node">
<title>Node23</title>
<g id="a_node23"><a xlink:href="command__definitions_8c.html#aa375895192b16d8e7f0ff4545b54e6c4" target="_top" xlink:title="Cmd Tableのロード">
<polygon fill="white" stroke="black" points="553,-30.5 553,-49.5 666,-49.5 666,-30.5 553,-30.5"/>
<text text-anchor="middle" x="609.5" y="-37.5" font-family="Helvetica,sans-Serif" font-size="10.00">CA_load_cmd_table</text>
</a>
</g>
</g>
<!-- Node22&#45;&gt;Node23 -->
<g id="edge27" class="edge">
<title>Node22&#45;&gt;Node23</title>
<path fill="none" stroke="midnightblue" d="M707.54,-40C693.45,-40 679.18,-40 666.08,-40"/>
<polygon fill="midnightblue" stroke="midnightblue" points="707.75,-43.5 717.75,-40 707.75,-36.5 707.75,-43.5"/>
</g>
<!-- Node24 -->
<g id="node24" class="node">
<title>Node24</title>
<g id="a_node24"><a xlink:href="command__analyze_8h.html#ae6d1f376bf4e1c9c4b63bc3f04924c8a" target="_top" xlink:title="CA の初期化">
<polygon fill="white" stroke="black" points="400.5,-68.5 400.5,-87.5 477.5,-87.5 477.5,-68.5 400.5,-68.5"/>
<text text-anchor="middle" x="439" y="-75.5" font-family="Helvetica,sans-Serif" font-size="10.00">CA_initialize</text>
</a>
</g>
</g>
<!-- Node23&#45;&gt;Node24 -->
<g id="edge28" class="edge">
<title>Node23&#45;&gt;Node24</title>
<path fill="none" stroke="midnightblue" d="M556.12,-51.81C530.71,-57.54 500.75,-64.3 477.62,-69.51"/>
<polygon fill="midnightblue" stroke="midnightblue" points="557,-55.2 565.98,-49.59 555.46,-48.37 557,-55.2"/>
</g>
<!-- Node24&#45;&gt;Node8 -->
<g id="edge29" class="edge">
<title>Node24&#45;&gt;Node8</title>
<path fill="none" stroke="midnightblue" d="M393.56,-90.33C386.33,-92.47 378.94,-94.74 372,-97 354.52,-102.71 335.07,-109.84 320.15,-115.48"/>
<polygon fill="midnightblue" stroke="midnightblue" points="394.64,-93.66 403.26,-87.5 392.68,-86.94 394.64,-93.66"/>
</g>
<!-- Node25 -->
<g id="node25" class="node">
<title>Node25</title>
<g id="a_node25"><a xlink:href="command__analyze_8h.html#aee45638c6cff2c25a997905b209079d0" target="_top" xlink:title=" ">
<polygon fill="white" stroke="black" points="253,-58.5 253,-77.5 336,-77.5 336,-58.5 253,-58.5"/>
<text text-anchor="middle" x="294.5" y="-65.5" font-family="Helvetica,sans-Serif" font-size="10.00">Cmd_CA_INIT</text>
</a>
</g>
</g>
<!-- Node24&#45;&gt;Node25 -->
<g id="edge30" class="edge">
<title>Node24&#45;&gt;Node25</title>
<path fill="none" stroke="midnightblue" d="M390.17,-74.64C372.67,-73.42 353.06,-72.04 336.24,-70.86"/>
<polygon fill="midnightblue" stroke="midnightblue" points="389.97,-78.14 400.19,-75.35 390.46,-71.15 389.97,-78.14"/>
</g>
<!-- Node25&#45;&gt;Node23 -->
<g id="edge31" class="edge">
<title>Node25&#45;&gt;Node23</title>
<path fill="none" stroke="midnightblue" d="M346.56,-61.73C355.05,-60.76 363.77,-59.81 372,-59 433.69,-52.9 504.59,-47.4 552.54,-43.91"/>
<polygon fill="midnightblue" stroke="midnightblue" points="345.89,-58.28 336.36,-62.91 346.7,-65.23 345.89,-58.28"/>
</g>
<!-- Node27 -->
<g id="node27" class="node">
<title>Node27</title>
<g id="a_node27"><a xlink:href="event__utility_8h.html#aa819ee69e6cd34b9217e9627ee12f70c" target="_top" xlink:title=" ">
<polygon fill="white" stroke="black" points="542,-87.5 542,-106.5 677,-106.5 677,-87.5 542,-87.5"/>
<text text-anchor="middle" x="609.5" y="-94.5" font-family="Helvetica,sans-Serif" font-size="10.00">EVENT_UTIL_create_app</text>
</a>
</g>
</g>
<!-- Node26&#45;&gt;Node27 -->
<g id="edge33" class="edge">
<title>Node26&#45;&gt;Node27</title>
<path fill="none" stroke="midnightblue" d="M724.32,-85.18C708.83,-86.79 692.45,-88.49 677.07,-90.09"/>
<polygon fill="midnightblue" stroke="midnightblue" points="724.75,-88.66 734.34,-84.14 724.03,-81.69 724.75,-88.66"/>
</g>
<!-- Node28 -->
<g id="node28" class="node">
<title>Node28</title>
<g id="a_node28"><a xlink:href="app__registry_8h.html#ab944b1d78a41e427bc2ed57f9c4e9534" target="_top" xlink:title=" ">
<polygon fill="white" stroke="black" points="372,-106.5 372,-125.5 506,-125.5 506,-106.5 372,-106.5"/>
<text text-anchor="middle" x="439" y="-113.5" font-family="Helvetica,sans-Serif" font-size="10.00">AR_load_initial_settings</text>
</a>
</g>
</g>
<!-- Node27&#45;&gt;Node28 -->
<g id="edge34" class="edge">
<title>Node27&#45;&gt;Node28</title>
<path fill="none" stroke="midnightblue" d="M531.88,-105.64C523.27,-106.61 514.57,-107.59 506.11,-108.55"/>
<polygon fill="midnightblue" stroke="midnightblue" points="532.36,-109.11 541.9,-104.51 531.58,-102.15 532.36,-109.11"/>
</g>
<!-- Node28&#45;&gt;Node8 -->
<g id="edge35" class="edge">
<title>Node28&#45;&gt;Node8</title>
<path fill="none" stroke="midnightblue" d="M361.56,-120.83C352.89,-121.38 344.32,-121.92 336.38,-122.42"/>
<polygon fill="midnightblue" stroke="midnightblue" points="362,-124.31 371.76,-120.18 361.56,-117.32 362,-124.31"/>
</g>
<!-- Node30 -->
<g id="node30" class="node">
<title>Node30</title>
<g id="a_node30"><a xlink:href="mode__manager_8c.html#ae4381c1c84d8b5d8aa033e522530436d" target="_top" xlink:title="Cmd_MM_START_TRANSITIONの実体">
<polygon fill="white" stroke="black" points="917,-119.5 917,-138.5 1036,-138.5 1036,-119.5 917,-119.5"/>
<text text-anchor="middle" x="976.5" y="-126.5" font-family="Helvetica,sans-Serif" font-size="10.00">MM_start_transition_</text>
</a>
</g>
</g>
<!-- Node29&#45;&gt;Node30 -->
<g id="edge37" class="edge">
<title>Node29&#45;&gt;Node30</title>
<path fill="none" stroke="midnightblue" d="M1428.74,-126.44C1322.04,-127.04 1131.92,-128.12 1036.12,-128.67"/>
<polygon fill="midnightblue" stroke="midnightblue" points="1428.82,-129.94 1438.8,-126.38 1428.78,-122.94 1428.82,-129.94"/>
</g>
<!-- Node31 -->
<g id="node31" class="node">
<title>Node31</title>
<g id="a_node31"><a xlink:href="mode__manager_8h.html#ab54a8f93c525edc7f7f2283ad94af267" target="_top" xlink:title="モード遷移を開始するコマンド">
<polygon fill="white" stroke="black" points="713,-106.5 713,-125.5 876,-125.5 876,-106.5 713,-106.5"/>
<text text-anchor="middle" x="794.5" y="-113.5" font-family="Helvetica,sans-Serif" font-size="10.00">Cmd_MM_START_TRANSITION</text>
</a>
</g>
</g>
<!-- Node30&#45;&gt;Node31 -->
<g id="edge38" class="edge">
<title>Node30&#45;&gt;Node31</title>
<path fill="none" stroke="midnightblue" d="M906.4,-124.01C896.5,-123.29 886.24,-122.55 876.15,-121.82"/>
<polygon fill="midnightblue" stroke="midnightblue" points="906.34,-127.51 916.56,-124.74 906.84,-120.53 906.34,-127.51"/>
</g>
<!-- Node32 -->
<g id="node32" class="node">
<title>Node32</title>
<g id="a_node32"><a xlink:href="mode__manager_8h.html#a89fbf516698fe6c690438e21ec8efd82" target="_top" xlink:title="モード遷移を管理する ModeManager 構造体 (mode_manager_) の初期化">
<polygon fill="white" stroke="black" points="398,-144.5 398,-163.5 480,-163.5 480,-144.5 398,-144.5"/>
<text text-anchor="middle" x="439" y="-151.5" font-family="Helvetica,sans-Serif" font-size="10.00">MM_initialize</text>
</a>
</g>
</g>
<!-- Node30&#45;&gt;Node32 -->
<g id="edge40" class="edge">
<title>Node30&#45;&gt;Node32</title>
<path fill="none" stroke="midnightblue" d="M906.66,-133.3C896.38,-133.9 885.92,-134.49 876,-135 730.35,-142.56 557.21,-149.5 480.28,-152.47"/>
<polygon fill="midnightblue" stroke="midnightblue" points="907.07,-136.78 916.85,-132.7 906.66,-129.8 907.07,-136.78"/>
</g>
<!-- Node31&#45;&gt;Node23 -->
<g id="edge39" class="edge">
<title>Node31&#45;&gt;Node23</title>
<path fill="none" stroke="midnightblue" d="M733.32,-103.73C726.38,-101.75 719.48,-99.51 713,-97 704.17,-93.58 654.06,-65.04 627.32,-49.69"/>
<polygon fill="midnightblue" stroke="midnightblue" points="732.9,-107.24 743.46,-106.45 734.71,-100.48 732.9,-107.24"/>
</g>
<!-- Node32&#45;&gt;Node8 -->
<g id="edge41" class="edge">
<title>Node32&#45;&gt;Node8</title>
<path fill="none" stroke="midnightblue" d="M387.7,-143.76C370.85,-140.33 352.29,-136.56 336.26,-133.3"/>
<polygon fill="midnightblue" stroke="midnightblue" points="387.43,-147.28 397.93,-145.84 388.83,-140.42 387.43,-147.28"/>
</g>
<!-- Node33&#45;&gt;Node23 -->
<g id="edge43" class="edge">
<title>Node33&#45;&gt;Node23</title>
<path fill="none" stroke="midnightblue" d="M1419.65,-10.12C1345.1,-5.56 1234.5,0 1138,0 1138,0 1138,0 975.5,0 858.46,0 829.03,-5.65 713,-21 694.34,-23.47 673.93,-27.07 656.26,-30.47"/>
<polygon fill="midnightblue" stroke="midnightblue" points="1419.73,-13.64 1429.92,-10.76 1420.16,-6.65 1419.73,-13.64"/>
</g>
</g>
</svg>
