<?xml version="1.0" encoding="UTF-8" standalone="no"?>
<!DOCTYPE svg PUBLIC "-//W3C//DTD SVG 1.1//EN"
 "http://www.w3.org/Graphics/SVG/1.1/DTD/svg11.dtd">
<!-- Generated by graphviz version 2.43.0 (0)
 -->
<!-- Title: src/src_user/TlmCmd/common_cmd_packet.c Pages: 1 -->
<svg width="1368pt" height="597pt"
 viewBox="0.00 0.00 1368.35 597.00" xmlns="http://www.w3.org/2000/svg" xmlns:xlink="http://www.w3.org/1999/xlink">
<g id="graph0" class="graph" transform="scale(1 1) rotate(0) translate(4 593)">
<title>src/src_user/TlmCmd/common_cmd_packet.c</title>
<polygon fill="white" stroke="transparent" points="-4,4 -4,-593 1364.35,-593 1364.35,4 -4,4"/>
<!-- Node1 -->
<g id="node1" class="node">
<title>Node1</title>
<g id="a_node1"><a xlink:title="CTP 関連基本関数の定義">
<polygon fill="#bfbfbf" stroke="black" points="890,-558.5 890,-588.5 1024,-588.5 1024,-558.5 890,-558.5"/>
<text text-anchor="start" x="898" y="-576.5" font-family="Helvetica,sans-Serif" font-size="10.00">src/src_user/TlmCmd</text>
<text text-anchor="middle" x="957" y="-565.5" font-family="Helvetica,sans-Serif" font-size="10.00">/common_cmd_packet.c</text>
</a>
</g>
</g>
<!-- Node2 -->
<g id="node2" class="node">
<title>Node2</title>
<g id="a_node2"><a xlink:href="common__cmd__packet_8h.html" target="_top" xlink:title="CCP 関連基本関数の宣言">
<polygon fill="white" stroke="black" points="412.5,-285 412.5,-315 559.5,-315 559.5,-285 412.5,-285"/>
<text text-anchor="start" x="420.5" y="-303" font-family="Helvetica,sans-Serif" font-size="10.00">src_core/TlmCmd/common</text>
<text text-anchor="middle" x="486" y="-292" font-family="Helvetica,sans-Serif" font-size="10.00">_cmd_packet.h</text>
</a>
</g>
</g>
<!-- Node1&#45;&gt;Node2 -->
<g id="edge1" class="edge">
<title>Node1&#45;&gt;Node2</title>
<path fill="none" stroke="midnightblue" d="M928.99,-558.44C886.56,-536.97 803.67,-494.35 735,-455 654.79,-409.04 562.87,-350.65 516.36,-320.7"/>
<polygon fill="midnightblue" stroke="midnightblue" points="517.99,-317.58 507.69,-315.1 514.19,-323.46 517.99,-317.58"/>
</g>
<!-- Node13 -->
<g id="node13" class="node">
<title>Node13</title>
<g id="a_node13"><a xlink:href="cmd__space__packet_8h.html" target="_top" xlink:title="CCSDS で規定される Space Packet の コマンド版の実装">
<polygon fill="white" stroke="black" points="890.5,-491.5 890.5,-521.5 1023.5,-521.5 1023.5,-491.5 890.5,-491.5"/>
<text text-anchor="start" x="898.5" y="-509.5" font-family="Helvetica,sans-Serif" font-size="10.00">src_core/TlmCmd/Ccsds</text>
<text text-anchor="middle" x="957" y="-498.5" font-family="Helvetica,sans-Serif" font-size="10.00">/cmd_space_packet.h</text>
</a>
</g>
</g>
<!-- Node1&#45;&gt;Node13 -->
<g id="edge15" class="edge">
<title>Node1&#45;&gt;Node13</title>
<path fill="none" stroke="midnightblue" d="M957,-558.4C957,-550.64 957,-540.81 957,-531.86"/>
<polygon fill="midnightblue" stroke="midnightblue" points="960.5,-531.58 957,-521.58 953.5,-531.58 960.5,-531.58"/>
</g>
<!-- Node21 -->
<g id="node21" class="node">
<title>Node21</title>
<g id="a_node21"><a xlink:title=" ">
<polygon fill="white" stroke="#bfbfbf" points="1041.5,-497 1041.5,-516 1094.5,-516 1094.5,-497 1041.5,-497"/>
<text text-anchor="middle" x="1068" y="-504" font-family="Helvetica,sans-Serif" font-size="10.00">string.h</text>
</a>
</g>
</g>
<!-- Node1&#45;&gt;Node21 -->
<g id="edge36" class="edge">
<title>Node1&#45;&gt;Node21</title>
<path fill="none" stroke="midnightblue" d="M981.09,-558.4C999.96,-547.34 1026.06,-532.06 1044.72,-521.13"/>
<polygon fill="midnightblue" stroke="midnightblue" points="1046.61,-524.08 1053.47,-516.01 1043.07,-518.04 1046.61,-524.08"/>
</g>
<!-- Node3 -->
<g id="node3" class="node">
<title>Node3</title>
<g id="a_node3"><a xlink:href="obc__time_8h.html" target="_top" xlink:title="OBCの時刻情報の定義と演算">
<polygon fill="white" stroke="black" points="388.5,-207 388.5,-237 521.5,-237 521.5,-207 388.5,-207"/>
<text text-anchor="start" x="396.5" y="-225" font-family="Helvetica,sans-Serif" font-size="10.00">../System/TimeManager</text>
<text text-anchor="middle" x="455" y="-214" font-family="Helvetica,sans-Serif" font-size="10.00">/obc_time.h</text>
</a>
</g>
</g>
<!-- Node2&#45;&gt;Node3 -->
<g id="edge2" class="edge">
<title>Node2&#45;&gt;Node3</title>
<path fill="none" stroke="midnightblue" d="M480.17,-284.7C475.8,-273.98 469.71,-259.07 464.62,-246.59"/>
<polygon fill="midnightblue" stroke="midnightblue" points="467.82,-245.17 460.8,-237.23 461.34,-247.81 467.82,-245.17"/>
</g>
<!-- Node7 -->
<g id="node7" class="node">
<title>Node7</title>
<g id="a_node7"><a xlink:href="command__definitions_8h.html" target="_top" xlink:title="コマンド定義">
<polygon fill="white" stroke="black" points="28.5,-207 28.5,-237 181.5,-237 181.5,-207 28.5,-207"/>
<text text-anchor="start" x="36.5" y="-225" font-family="Helvetica,sans-Serif" font-size="10.00">src_user/TlmCmd/command</text>
<text text-anchor="middle" x="105" y="-214" font-family="Helvetica,sans-Serif" font-size="10.00">_definitions.h</text>
</a>
</g>
</g>
<!-- Node2&#45;&gt;Node7 -->
<g id="edge6" class="edge">
<title>Node2&#45;&gt;Node7</title>
<path fill="none" stroke="midnightblue" d="M412.49,-285.91C352.7,-275.05 266.23,-258.88 191,-243 185.56,-241.85 179.94,-240.63 174.3,-239.37"/>
<polygon fill="midnightblue" stroke="midnightblue" points="174.67,-235.87 164.15,-237.09 173.13,-242.7 174.67,-235.87"/>
</g>
<!-- Node8 -->
<g id="node8" class="node">
<title>Node8</title>
<g id="a_node8"><a xlink:href="common__cmd__packet__define_8h.html" target="_top" xlink:title="CCP 型の定義">
<polygon fill="white" stroke="black" points="616,-207 616,-237 786,-237 786,-207 616,-207"/>
<text text-anchor="start" x="624" y="-225" font-family="Helvetica,sans-Serif" font-size="10.00">src_user/Settings/TlmCmd</text>
<text text-anchor="middle" x="701" y="-214" font-family="Helvetica,sans-Serif" font-size="10.00">/common_cmd_packet_define.h</text>
</a>
</g>
</g>
<!-- Node2&#45;&gt;Node8 -->
<g id="edge7" class="edge">
<title>Node2&#45;&gt;Node8</title>
<path fill="none" stroke="midnightblue" d="M525.68,-284.97C561.1,-272.45 613.12,-254.06 651.3,-240.57"/>
<polygon fill="midnightblue" stroke="midnightblue" points="652.92,-243.71 661.18,-237.07 650.59,-237.11 652.92,-243.71"/>
</g>
<!-- Node11 -->
<g id="node11" class="node">
<title>Node11</title>
<g id="a_node11"><a xlink:href="apid__define_8h.html" target="_top" xlink:title="CCSDS の APID を定義する">
<polygon fill="white" stroke="black" points="697.5,-140 697.5,-159 816.5,-159 816.5,-140 697.5,-140"/>
<text text-anchor="middle" x="757" y="-147" font-family="Helvetica,sans-Serif" font-size="10.00">./Ccsds/apid_define.h</text>
</a>
</g>
</g>
<!-- Node2&#45;&gt;Node11 -->
<g id="edge13" class="edge">
<title>Node2&#45;&gt;Node11</title>
<path fill="none" stroke="midnightblue" d="M497.15,-284.71C516.42,-260.37 555.63,-212.37 574,-201 608.2,-179.84 651.37,-167.37 687.2,-160.13"/>
<polygon fill="midnightblue" stroke="midnightblue" points="687.94,-163.55 697.09,-158.22 686.61,-156.68 687.94,-163.55"/>
</g>
<!-- Node12 -->
<g id="node12" class="node">
<title>Node12</title>
<g id="a_node12"><a xlink:href="timeline__command__dispatcher__define_8h.html" target="_top" xlink:title="timeline command dispatcher の各種定義">
<polygon fill="white" stroke="black" points="200,-201.5 200,-242.5 370,-242.5 370,-201.5 200,-201.5"/>
<text text-anchor="start" x="208" y="-230.5" font-family="Helvetica,sans-Serif" font-size="10.00">src_user/Settings/Applications</text>
<text text-anchor="start" x="208" y="-219.5" font-family="Helvetica,sans-Serif" font-size="10.00">/timeline_command_dispatcher</text>
<text text-anchor="middle" x="285" y="-208.5" font-family="Helvetica,sans-Serif" font-size="10.00">_define.h</text>
</a>
</g>
</g>
<!-- Node2&#45;&gt;Node12 -->
<g id="edge14" class="edge">
<title>Node2&#45;&gt;Node12</title>
<path fill="none" stroke="midnightblue" d="M448.66,-284.88C420.04,-274.06 379.92,-258.89 346.57,-246.28"/>
<polygon fill="midnightblue" stroke="midnightblue" points="347.5,-242.89 336.91,-242.63 345.03,-249.44 347.5,-242.89"/>
</g>
<!-- Node4 -->
<g id="node4" class="node">
<title>Node4</title>
<g id="a_node4"><a xlink:href="stdint_8h.html" target="_top" xlink:title=" ">
<polygon fill="white" stroke="black" points="832,-67.5 832,-86.5 966,-86.5 966,-67.5 832,-67.5"/>
<text text-anchor="middle" x="899" y="-74.5" font-family="Helvetica,sans-Serif" font-size="10.00">src_user/Library/stdint.h</text>
</a>
</g>
</g>
<!-- Node3&#45;&gt;Node4 -->
<g id="edge3" class="edge">
<title>Node3&#45;&gt;Node4</title>
<path fill="none" stroke="midnightblue" d="M453.57,-206.88C452.47,-187.41 453.74,-152.62 474,-134 523.23,-88.74 712.76,-79.43 821.37,-77.9"/>
<polygon fill="midnightblue" stroke="midnightblue" points="821.66,-81.39 831.62,-77.77 821.58,-74.4 821.66,-81.39"/>
</g>
<!-- Node6 -->
<g id="node6" class="node">
<title>Node6</title>
<g id="a_node6"><a xlink:href="obc__time__params_8h.html" target="_top" xlink:title="OBCTのCoreパラメタのオーバーライド用ヘッダー">
<polygon fill="white" stroke="black" points="483,-134.5 483,-164.5 623,-164.5 623,-134.5 483,-134.5"/>
<text text-anchor="start" x="491" y="-152.5" font-family="Helvetica,sans-Serif" font-size="10.00">src_user/Settings/System</text>
<text text-anchor="middle" x="553" y="-141.5" font-family="Helvetica,sans-Serif" font-size="10.00">/obc_time_params.h</text>
</a>
</g>
</g>
<!-- Node3&#45;&gt;Node6 -->
<g id="edge5" class="edge">
<title>Node3&#45;&gt;Node6</title>
<path fill="none" stroke="midnightblue" d="M474.83,-206.73C489.27,-196.35 509.03,-182.13 525.06,-170.6"/>
<polygon fill="midnightblue" stroke="midnightblue" points="527.46,-173.19 533.53,-164.5 523.37,-167.5 527.46,-173.19"/>
</g>
<!-- Node5 -->
<g id="node5" class="node">
<title>Node5</title>
<g id="a_node5"><a xlink:href="sils__define_8h.html" target="_top" xlink:title="Switch the build settings between your real OBC and SILS">
<polygon fill="white" stroke="black" points="834.5,-0.5 834.5,-19.5 963.5,-19.5 963.5,-0.5 834.5,-0.5"/>
<text text-anchor="middle" x="899" y="-7.5" font-family="Helvetica,sans-Serif" font-size="10.00">../Settings/sils_define.h</text>
</a>
</g>
</g>
<!-- Node4&#45;&gt;Node5 -->
<g id="edge4" class="edge">
<title>Node4&#45;&gt;Node5</title>
<path fill="none" stroke="midnightblue" d="M899,-67.23C899,-57.68 899,-42.12 899,-29.78"/>
<polygon fill="midnightblue" stroke="midnightblue" points="902.5,-29.63 899,-19.63 895.5,-29.63 902.5,-29.63"/>
</g>
<!-- Node9 -->
<g id="node9" class="node">
<title>Node9</title>
<g id="a_node9"><a xlink:href="space__packet__typedef_8h.html" target="_top" xlink:title="SpacePacket 類 と CommonTlmCmdPacket 類が相互参照するのを回避するためのヘッダ">
<polygon fill="white" stroke="black" points="1192.5,-134.5 1192.5,-164.5 1329.5,-164.5 1329.5,-134.5 1192.5,-134.5"/>
<text text-anchor="start" x="1200.5" y="-152.5" font-family="Helvetica,sans-Serif" font-size="10.00">src_core/TlmCmd/Ccsds</text>
<text text-anchor="middle" x="1261" y="-141.5" font-family="Helvetica,sans-Serif" font-size="10.00">/space_packet_typedef.h</text>
</a>
</g>
</g>
<!-- Node8&#45;&gt;Node9 -->
<g id="edge8" class="edge">
<title>Node8&#45;&gt;Node9</title>
<path fill="none" stroke="midnightblue" d="M786.15,-207.68C801.72,-205.36 817.84,-203.04 833,-201 954.67,-184.61 1096.2,-168.48 1182.14,-159.02"/>
<polygon fill="midnightblue" stroke="midnightblue" points="1182.79,-162.47 1192.34,-157.9 1182.02,-155.51 1182.79,-162.47"/>
</g>
<!-- Node8&#45;&gt;Node11 -->
<g id="edge11" class="edge">
<title>Node8&#45;&gt;Node11</title>
<path fill="none" stroke="midnightblue" d="M712.33,-206.73C721.39,-195.34 734.09,-179.34 743.64,-167.32"/>
<polygon fill="midnightblue" stroke="midnightblue" points="746.46,-169.4 749.94,-159.39 740.98,-165.05 746.46,-169.4"/>
</g>
<!-- Node9&#45;&gt;Node4 -->
<g id="edge9" class="edge">
<title>Node9&#45;&gt;Node4</title>
<path fill="none" stroke="midnightblue" d="M1192.48,-135.16C1122.83,-121.59 1016.35,-100.85 952.62,-88.44"/>
<polygon fill="midnightblue" stroke="midnightblue" points="953.25,-85 942.77,-86.52 951.91,-91.87 953.25,-85"/>
</g>
<!-- Node10 -->
<g id="node10" class="node">
<title>Node10</title>
<g id="a_node10"><a xlink:href="space__packet__typedef__params_8h.html" target="_top" xlink:title="SpacePacketの パケット型に関するユーザー設定">
<polygon fill="white" stroke="black" points="1181,-56.5 1181,-97.5 1341,-97.5 1341,-56.5 1181,-56.5"/>
<text text-anchor="start" x="1189" y="-85.5" font-family="Helvetica,sans-Serif" font-size="10.00">src_user/Settings/TlmCmd</text>
<text text-anchor="start" x="1189" y="-74.5" font-family="Helvetica,sans-Serif" font-size="10.00">/Ccsds/space_packet_typedef</text>
<text text-anchor="middle" x="1261" y="-63.5" font-family="Helvetica,sans-Serif" font-size="10.00">_params.h</text>
</a>
</g>
</g>
<!-- Node9&#45;&gt;Node10 -->
<g id="edge10" class="edge">
<title>Node9&#45;&gt;Node10</title>
<path fill="none" stroke="midnightblue" d="M1261,-134.23C1261,-126.57 1261,-116.84 1261,-107.63"/>
<polygon fill="midnightblue" stroke="midnightblue" points="1264.5,-107.59 1261,-97.59 1257.5,-107.59 1264.5,-107.59"/>
</g>
<!-- Node11&#45;&gt;Node4 -->
<g id="edge12" class="edge">
<title>Node11&#45;&gt;Node4</title>
<path fill="none" stroke="midnightblue" d="M774.13,-140C798.65,-127.82 843.97,-105.32 872.74,-91.04"/>
<polygon fill="midnightblue" stroke="midnightblue" points="874.41,-94.12 881.81,-86.53 871.3,-87.85 874.41,-94.12"/>
</g>
<!-- Node13&#45;&gt;Node2 -->
<g id="edge35" class="edge">
<title>Node13&#45;&gt;Node2</title>
<path fill="none" stroke="midnightblue" d="M922.17,-491.49C897.48,-481.49 863.62,-467.63 834,-455 722.15,-407.3 591.25,-348.59 526.51,-319.35"/>
<polygon fill="midnightblue" stroke="midnightblue" points="527.63,-316.02 517.07,-315.09 524.74,-322.4 527.63,-316.02"/>
</g>
<!-- Node13&#45;&gt;Node4 -->
<g id="edge17" class="edge">
<title>Node13&#45;&gt;Node4</title>
<path fill="none" stroke="midnightblue" d="M1023.66,-492.42C1096.82,-478.02 1204.61,-456.67 1209,-455 1280.68,-427.76 1358,-444.68 1358,-368 1358,-368 1358,-368 1358,-221 1358,-181.32 1367.41,-160.63 1338,-134 1311.71,-110.2 1095.02,-91.6 976.23,-83.08"/>
<polygon fill="midnightblue" stroke="midnightblue" points="976.32,-79.58 966.1,-82.36 975.82,-86.56 976.32,-79.58"/>
</g>
<!-- Node13&#45;&gt;Node9 -->
<g id="edge18" class="edge">
<title>Node13&#45;&gt;Node9</title>
<path fill="none" stroke="midnightblue" d="M1009.01,-491.4C1109.38,-463.44 1320,-400.85 1320,-368 1320,-368 1320,-368 1320,-299 1320,-253.94 1312.34,-242.16 1294,-201 1289.7,-191.34 1283.66,-181.45 1277.92,-173.01"/>
<polygon fill="midnightblue" stroke="midnightblue" points="1280.76,-170.96 1272.13,-164.81 1275.04,-175 1280.76,-170.96"/>
</g>
<!-- Node14 -->
<g id="node14" class="node">
<title>Node14</title>
<g id="a_node14"><a xlink:href="cmd__space__packet__params_8h.html" target="_top" xlink:title="CmdSpacePacket のユーザー設定">
<polygon fill="white" stroke="black" points="953,-413.5 953,-454.5 1097,-454.5 1097,-413.5 953,-413.5"/>
<text text-anchor="start" x="961" y="-442.5" font-family="Helvetica,sans-Serif" font-size="10.00">src_user/Settings/TlmCmd</text>
<text text-anchor="start" x="961" y="-431.5" font-family="Helvetica,sans-Serif" font-size="10.00">/Ccsds/cmd_space_packet</text>
<text text-anchor="middle" x="1025" y="-420.5" font-family="Helvetica,sans-Serif" font-size="10.00">_params.h</text>
</a>
</g>
</g>
<!-- Node13&#45;&gt;Node14 -->
<g id="edge16" class="edge">
<title>Node13&#45;&gt;Node14</title>
<path fill="none" stroke="midnightblue" d="M970.76,-491.23C978.86,-482.83 989.38,-471.93 998.99,-461.97"/>
<polygon fill="midnightblue" stroke="midnightblue" points="1001.68,-464.22 1006.11,-454.59 996.64,-459.36 1001.68,-464.22"/>
</g>
<!-- Node15 -->
<g id="node15" class="node">
<title>Node15</title>
<g id="a_node15"><a xlink:href="space__packet_8h.html" target="_top" xlink:title="CCSDS で規定される Space Packet の実装">
<polygon fill="white" stroke="black" points="843,-424.5 843,-443.5 935,-443.5 935,-424.5 843,-424.5"/>
<text text-anchor="middle" x="889" y="-431.5" font-family="Helvetica,sans-Serif" font-size="10.00">space_packet.h</text>
</a>
</g>
</g>
<!-- Node13&#45;&gt;Node15 -->
<g id="edge19" class="edge">
<title>Node13&#45;&gt;Node15</title>
<path fill="none" stroke="midnightblue" d="M943.24,-491.23C932.03,-479.62 916.22,-463.22 904.55,-451.12"/>
<polygon fill="midnightblue" stroke="midnightblue" points="907.04,-448.66 897.58,-443.89 902,-453.52 907.04,-448.66"/>
</g>
<!-- Node15&#45;&gt;Node4 -->
<g id="edge20" class="edge">
<title>Node15&#45;&gt;Node4</title>
<path fill="none" stroke="midnightblue" d="M842.77,-431.07C660.28,-422.82 0,-387.06 0,-301 0,-301 0,-301 0,-221 0,-138.11 603.77,-95.04 821.71,-82.19"/>
<polygon fill="midnightblue" stroke="midnightblue" points="822.02,-85.68 831.8,-81.6 821.61,-78.69 822.02,-85.68"/>
</g>
<!-- Node15&#45;&gt;Node9 -->
<g id="edge21" class="edge">
<title>Node15&#45;&gt;Node9</title>
<path fill="none" stroke="midnightblue" d="M911.36,-424.48C921.3,-420.79 933.18,-416.52 944,-413 1084.31,-367.32 1174.29,-438.91 1263,-321 1295.4,-277.94 1280.71,-209.91 1269.52,-174.19"/>
<polygon fill="midnightblue" stroke="midnightblue" points="1272.81,-173.01 1266.36,-164.61 1266.17,-175.21 1272.81,-173.01"/>
</g>
<!-- Node16 -->
<g id="node16" class="node">
<title>Node16</title>
<g id="a_node16"><a xlink:href="common__tlm__cmd__packet_8h.html" target="_top" xlink:title="CTCP 関連基本関数の宣言">
<polygon fill="white" stroke="black" points="807.5,-357.5 807.5,-376.5 970.5,-376.5 970.5,-357.5 807.5,-357.5"/>
<text text-anchor="middle" x="889" y="-364.5" font-family="Helvetica,sans-Serif" font-size="10.00">../common_tlm_cmd_packet.h</text>
</a>
</g>
</g>
<!-- Node15&#45;&gt;Node16 -->
<g id="edge22" class="edge">
<title>Node15&#45;&gt;Node16</title>
<path fill="none" stroke="midnightblue" d="M889,-424.23C889,-414.68 889,-399.12 889,-386.78"/>
<polygon fill="midnightblue" stroke="midnightblue" points="892.5,-386.63 889,-376.63 885.5,-386.63 892.5,-386.63"/>
</g>
<!-- Node16&#45;&gt;Node2 -->
<g id="edge33" class="edge">
<title>Node16&#45;&gt;Node2</title>
<path fill="none" stroke="midnightblue" d="M817.42,-357.47C753.4,-349.43 657.11,-336.36 574,-321 567.73,-319.84 561.23,-318.55 554.73,-317.19"/>
<polygon fill="midnightblue" stroke="midnightblue" points="555.07,-313.68 544.56,-315.01 553.6,-320.52 555.07,-313.68"/>
</g>
<!-- Node16&#45;&gt;Node4 -->
<g id="edge23" class="edge">
<title>Node16&#45;&gt;Node4</title>
<path fill="none" stroke="midnightblue" d="M909.04,-357.5C946.08,-341.8 1027.8,-307.31 1097,-279 1136.87,-262.69 1162.85,-278.67 1187,-243 1247.11,-154.22 1067.72,-107.33 965.21,-88.34"/>
<polygon fill="midnightblue" stroke="midnightblue" points="965.7,-84.87 955.24,-86.53 964.46,-91.76 965.7,-84.87"/>
</g>
<!-- Node16&#45;&gt;Node11 -->
<g id="edge34" class="edge">
<title>Node16&#45;&gt;Node11</title>
<path fill="none" stroke="midnightblue" d="M820.78,-357.48C753.5,-345.04 654.11,-314.94 607,-243 596.77,-227.38 596.11,-216.16 607,-201 625.44,-175.34 657.58,-162.54 687.39,-156.23"/>
<polygon fill="midnightblue" stroke="midnightblue" points="688.22,-159.63 697.39,-154.33 686.91,-152.76 688.22,-159.63"/>
</g>
<!-- Node17 -->
<g id="node17" class="node">
<title>Node17</title>
<g id="a_node17"><a xlink:href="common__tlm__cmd__packet__define_8h.html" target="_top" xlink:title="CTCP 型の定義">
<polygon fill="white" stroke="black" points="1106,-279.5 1106,-320.5 1254,-320.5 1254,-279.5 1106,-279.5"/>
<text text-anchor="start" x="1114" y="-308.5" font-family="Helvetica,sans-Serif" font-size="10.00">src_user/Settings/TlmCmd</text>
<text text-anchor="start" x="1114" y="-297.5" font-family="Helvetica,sans-Serif" font-size="10.00">/common_tlm_cmd_packet</text>
<text text-anchor="middle" x="1180" y="-286.5" font-family="Helvetica,sans-Serif" font-size="10.00">_define.h</text>
</a>
</g>
</g>
<!-- Node16&#45;&gt;Node17 -->
<g id="edge24" class="edge">
<title>Node16&#45;&gt;Node17</title>
<path fill="none" stroke="midnightblue" d="M927.93,-357.43C968.81,-348.43 1034.94,-333.81 1092,-321 1093.25,-320.72 1094.5,-320.44 1095.77,-320.15"/>
<polygon fill="midnightblue" stroke="midnightblue" points="1096.6,-323.55 1105.59,-317.94 1095.06,-316.72 1096.6,-323.55"/>
</g>
<!-- Node18 -->
<g id="node18" class="node">
<title>Node18</title>
<g id="a_node18"><a xlink:href="common__tlm__packet_8h.html" target="_top" xlink:title="CTP 関連基本関数の宣言">
<polygon fill="white" stroke="black" points="822,-290.5 822,-309.5 956,-309.5 956,-290.5 822,-290.5"/>
<text text-anchor="middle" x="889" y="-297.5" font-family="Helvetica,sans-Serif" font-size="10.00">./common_tlm_packet.h</text>
</a>
</g>
</g>
<!-- Node16&#45;&gt;Node18 -->
<g id="edge26" class="edge">
<title>Node16&#45;&gt;Node18</title>
<path fill="none" stroke="midnightblue" d="M889,-357.23C889,-347.68 889,-332.12 889,-319.78"/>
<polygon fill="midnightblue" stroke="midnightblue" points="892.5,-319.63 889,-309.63 885.5,-319.63 892.5,-319.63"/>
</g>
<!-- Node17&#45;&gt;Node9 -->
<g id="edge25" class="edge">
<title>Node17&#45;&gt;Node9</title>
<path fill="none" stroke="midnightblue" d="M1195.47,-279.44C1203.35,-268.97 1212.77,-255.66 1220,-243 1232.84,-220.5 1244.5,-193.22 1252.07,-174.14"/>
<polygon fill="midnightblue" stroke="midnightblue" points="1255.37,-175.31 1255.74,-164.72 1248.85,-172.77 1255.37,-175.31"/>
</g>
<!-- Node18&#45;&gt;Node3 -->
<g id="edge27" class="edge">
<title>Node18&#45;&gt;Node3</title>
<path fill="none" stroke="midnightblue" d="M840.06,-290.43C765.03,-277.29 620.93,-252.06 531.87,-236.46"/>
<polygon fill="midnightblue" stroke="midnightblue" points="532.28,-232.98 521.82,-234.7 531.07,-239.87 532.28,-232.98"/>
</g>
<!-- Node18&#45;&gt;Node11 -->
<g id="edge32" class="edge">
<title>Node18&#45;&gt;Node11</title>
<path fill="none" stroke="midnightblue" d="M879.6,-290.15C868.24,-279.33 848.7,-260.31 833,-243 809.74,-217.35 784.56,-185.9 769.82,-167.07"/>
<polygon fill="midnightblue" stroke="midnightblue" points="772.55,-164.89 763.65,-159.15 767.03,-169.19 772.55,-164.89"/>
</g>
<!-- Node19 -->
<g id="node19" class="node">
<title>Node19</title>
<g id="a_node19"><a xlink:href="telemetry__definitions_8h.html" target="_top" xlink:title="テレメトリ定義">
<polygon fill="white" stroke="black" points="1026,-207 1026,-237 1178,-237 1178,-207 1026,-207"/>
<text text-anchor="start" x="1034" y="-225" font-family="Helvetica,sans-Serif" font-size="10.00">src_user/TlmCmd/telemetry</text>
<text text-anchor="middle" x="1102" y="-214" font-family="Helvetica,sans-Serif" font-size="10.00">_definitions.h</text>
</a>
</g>
</g>
<!-- Node18&#45;&gt;Node19 -->
<g id="edge28" class="edge">
<title>Node18&#45;&gt;Node19</title>
<path fill="none" stroke="midnightblue" d="M913.02,-290.43C946.8,-278.38 1009.12,-256.14 1052.93,-240.51"/>
<polygon fill="midnightblue" stroke="midnightblue" points="1054.29,-243.74 1062.53,-237.08 1051.94,-237.15 1054.29,-243.74"/>
</g>
<!-- Node20 -->
<g id="node20" class="node">
<title>Node20</title>
<g id="a_node20"><a xlink:href="common__tlm__packet__define_8h.html" target="_top" xlink:title="CTP 型の定義">
<polygon fill="white" stroke="black" points="842,-207 842,-237 1008,-237 1008,-207 842,-207"/>
<text text-anchor="start" x="850" y="-225" font-family="Helvetica,sans-Serif" font-size="10.00">src_user/Settings/TlmCmd</text>
<text text-anchor="middle" x="925" y="-214" font-family="Helvetica,sans-Serif" font-size="10.00">/common_tlm_packet_define.h</text>
</a>
</g>
</g>
<!-- Node18&#45;&gt;Node20 -->
<g id="edge29" class="edge">
<title>Node18&#45;&gt;Node20</title>
<path fill="none" stroke="midnightblue" d="M893.13,-290.28C898.19,-279.6 906.96,-261.08 914.02,-246.18"/>
<polygon fill="midnightblue" stroke="midnightblue" points="917.24,-247.56 918.36,-237.02 910.92,-244.56 917.24,-247.56"/>
</g>
<!-- Node20&#45;&gt;Node9 -->
<g id="edge30" class="edge">
<title>Node20&#45;&gt;Node9</title>
<path fill="none" stroke="midnightblue" d="M989.32,-206.93C998.61,-204.93 1008.05,-202.9 1017,-201 1072.21,-189.29 1134.52,-176.39 1182.36,-166.57"/>
<polygon fill="midnightblue" stroke="midnightblue" points="1183.24,-169.96 1192.34,-164.52 1181.84,-163.1 1183.24,-169.96"/>
</g>
<!-- Node20&#45;&gt;Node11 -->
<g id="edge31" class="edge">
<title>Node20&#45;&gt;Node11</title>
<path fill="none" stroke="midnightblue" d="M891.41,-206.9C860.78,-194.05 815.97,-175.24 786.64,-162.94"/>
<polygon fill="midnightblue" stroke="midnightblue" points="787.91,-159.68 777.34,-159.03 785.2,-166.13 787.91,-159.68"/>
</g>
</g>
</svg>
