<?xml version="1.0" encoding="UTF-8" standalone="no"?>
<!DOCTYPE svg PUBLIC "-//W3C//DTD SVG 1.1//EN"
 "http://www.w3.org/Graphics/SVG/1.1/DTD/svg11.dtd">
<!-- Generated by graphviz version 2.43.0 (0)
 -->
<!-- Title: CCP_get_id Pages: 1 -->
<svg width="1640pt" height="605pt"
 viewBox="0.00 0.00 1640.00 604.50" xmlns="http://www.w3.org/2000/svg" xmlns:xlink="http://www.w3.org/1999/xlink">
<g id="graph0" class="graph" transform="scale(1 1) rotate(0) translate(4 600.5)">
<title>CCP_get_id</title>
<polygon fill="white" stroke="transparent" points="-4,4 -4,-600.5 1636,-600.5 1636,4 -4,4"/>
<!-- Node1 -->
<g id="node1" class="node">
<title>Node1</title>
<g id="a_node1"><a xlink:title="CMD ID を取得">
<polygon fill="#bfbfbf" stroke="black" points="1561,-254 1561,-273 1632,-273 1632,-254 1561,-254"/>
<text text-anchor="middle" x="1596.5" y="-261" font-family="Helvetica,sans-Serif" font-size="10.00">CCP_get_id</text>
</a>
</g>
</g>
<!-- Node2 -->
<g id="node2" class="node">
<title>Node2</title>
<g id="a_node2"><a xlink:href="aobc_8h.html#a21bc4dfcbc36f4c3db4c9f59cd020414" target="_top" xlink:title="AOB Cへのコマンド送信">
<polygon fill="white" stroke="black" points="1412,-425 1412,-444 1511,-444 1511,-425 1412,-425"/>
<text text-anchor="middle" x="1461.5" y="-432" font-family="Helvetica,sans-Serif" font-size="10.00">AOBC_send_cmd</text>
</a>
</g>
</g>
<!-- Node1&#45;&gt;Node2 -->
<g id="edge1" class="edge">
<title>Node1&#45;&gt;Node2</title>
<path fill="none" stroke="midnightblue" d="M1591.04,-283.28C1583.03,-314.46 1563.35,-375.12 1525,-410.5 1518.25,-416.73 1509.72,-421.4 1501.14,-424.88"/>
<polygon fill="midnightblue" stroke="midnightblue" points="1594.52,-283.77 1593.47,-273.23 1587.72,-282.12 1594.52,-283.77"/>
</g>
<!-- Node19 -->
<g id="node14" class="node">
<title>Node19</title>
<g id="a_node14"><a xlink:href="command__dispatcher_8h.html#a90617acff33923f51c212b8e3034712c" target="_top" xlink:title="CDIS に登録されているコマンドキューからコマンドを実行">
<polygon fill="white" stroke="black" points="702,-261 702,-280 842,-280 842,-261 702,-261"/>
<text text-anchor="middle" x="772" y="-268" font-family="Helvetica,sans-Serif" font-size="10.00">CDIS_dispatch_command</text>
</a>
</g>
</g>
<!-- Node1&#45;&gt;Node19 -->
<g id="edge60" class="edge">
<title>Node1&#45;&gt;Node19</title>
<path fill="none" stroke="midnightblue" d="M1580.74,-280.92C1567.64,-295.12 1547.17,-314.43 1525,-324.5 1425.91,-369.5 1391.33,-358.5 1282.5,-358.5 1282.5,-358.5 1282.5,-358.5 1105.5,-358.5 983.98,-358.5 845.55,-302.89 793.88,-280.09"/>
<polygon fill="midnightblue" stroke="midnightblue" points="1583.53,-283.05 1587.56,-273.25 1578.3,-278.4 1583.53,-283.05"/>
</g>
<!-- Node49 -->
<g id="node36" class="node">
<title>Node49</title>
<g id="a_node36"><a xlink:href="block__command__table_8h.html#aa2476d37af5b2e36a6d66c60885651f7" target="_top" xlink:title="BCT 内の Cmd の CMD_CODE の getter">
<polygon fill="white" stroke="black" points="1426,-273 1426,-292 1497,-292 1497,-273 1426,-273"/>
<text text-anchor="middle" x="1461.5" y="-280" font-family="Helvetica,sans-Serif" font-size="10.00">BCT_get_id</text>
</a>
</g>
</g>
<!-- Node1&#45;&gt;Node49 -->
<g id="edge41" class="edge">
<title>Node1&#45;&gt;Node49</title>
<path fill="none" stroke="midnightblue" d="M1550.93,-269.87C1533.49,-272.36 1513.77,-275.18 1497.39,-277.52"/>
<polygon fill="midnightblue" stroke="midnightblue" points="1551.5,-273.32 1560.9,-268.44 1550.51,-266.39 1551.5,-273.32"/>
</g>
<!-- Node54 -->
<g id="node40" class="node">
<title>Node54</title>
<g id="a_node40"><a xlink:href="telemetry__definitions_8c.html#a859fa3c26ad362742cfa863c1f15966c" target="_top" xlink:title=" ">
<polygon fill="white" stroke="black" points="1251.5,-311 1251.5,-330 1311.5,-330 1311.5,-311 1251.5,-311"/>
<text text-anchor="middle" x="1281.5" y="-318" font-family="Helvetica,sans-Serif" font-size="10.00">Tlm_HK_</text>
</a>
</g>
</g>
<!-- Node1&#45;&gt;Node54 -->
<g id="edge61" class="edge">
<title>Node1&#45;&gt;Node54</title>
<path fill="none" stroke="midnightblue" d="M1573.43,-278.5C1560.03,-286.8 1542.23,-296.43 1525,-301.5 1450.46,-323.44 1357.8,-323.66 1311.57,-322.04"/>
<polygon fill="midnightblue" stroke="midnightblue" points="1575.41,-281.39 1581.94,-273.04 1571.63,-275.49 1575.41,-281.39"/>
</g>
<!-- Node55 -->
<g id="node41" class="node">
<title>Node55</title>
<g id="a_node41"><a xlink:href="telemetry__definitions_8c.html#ab0997e8d88425f3a6f087d69b64db65d" target="_top" xlink:title=" ">
<polygon fill="white" stroke="black" points="1243.5,-235 1243.5,-254 1319.5,-254 1319.5,-235 1243.5,-235"/>
<text text-anchor="middle" x="1281.5" y="-242" font-family="Helvetica,sans-Serif" font-size="10.00">Tlm_MOBC_</text>
</a>
</g>
</g>
<!-- Node1&#45;&gt;Node55 -->
<g id="edge62" class="edge">
<title>Node1&#45;&gt;Node55</title>
<path fill="none" stroke="midnightblue" d="M1550.54,-260.77C1488.43,-257 1377.52,-250.27 1319.77,-246.76"/>
<polygon fill="midnightblue" stroke="midnightblue" points="1550.61,-264.28 1560.81,-261.39 1551.04,-257.29 1550.61,-264.28"/>
</g>
<!-- Node56 -->
<g id="node42" class="node">
<title>Node56</title>
<g id="a_node42"><a xlink:href="command__analyze_8h.html#a68bd697f2123acd72c8c1a49b7f3652a" target="_top" xlink:title="コマンド実行の本体">
<polygon fill="white" stroke="black" points="1056.5,-387 1056.5,-406 1156.5,-406 1156.5,-387 1056.5,-387"/>
<text text-anchor="middle" x="1106.5" y="-394" font-family="Helvetica,sans-Serif" font-size="10.00">CA_execute_cmd</text>
</a>
</g>
</g>
<!-- Node1&#45;&gt;Node56 -->
<g id="edge49" class="edge">
<title>Node1&#45;&gt;Node56</title>
<path fill="none" stroke="midnightblue" d="M1589.17,-282.99C1579.72,-308.57 1559.26,-352.56 1525,-372.5 1463.74,-408.15 1253.06,-403.38 1156.52,-399.11"/>
<polygon fill="midnightblue" stroke="midnightblue" points="1592.57,-283.87 1592.56,-273.28 1585.96,-281.57 1592.57,-283.87"/>
</g>
<!-- Node57 -->
<g id="node43" class="node">
<title>Node57</title>
<g id="a_node43"><a xlink:href="common__cmd__packet__util_8h.html#ab2c58d5f29f661249b4eadeb1a3606fd" target="_top" xlink:title="CCP packet から，サイズが 1 byte のコマンド引数を取得する">
<polygon fill="white" stroke="black" points="1398,-147.5 1398,-177.5 1525,-177.5 1525,-147.5 1398,-147.5"/>
<text text-anchor="start" x="1406" y="-165.5" font-family="Helvetica,sans-Serif" font-size="10.00">CCP_get_1byte_param</text>
<text text-anchor="middle" x="1461.5" y="-154.5" font-family="Helvetica,sans-Serif" font-size="10.00">_from_packet</text>
</a>
</g>
</g>
<!-- Node1&#45;&gt;Node57 -->
<g id="edge51" class="edge">
<title>Node1&#45;&gt;Node57</title>
<path fill="none" stroke="midnightblue" d="M1581.11,-245.92C1567.76,-230.42 1546.74,-207.96 1525,-192.5 1517.15,-186.92 1508.11,-181.9 1499.38,-177.63"/>
<polygon fill="midnightblue" stroke="midnightblue" points="1578.57,-248.34 1587.69,-253.73 1583.92,-243.82 1578.57,-248.34"/>
</g>
<!-- Node58 -->
<g id="node44" class="node">
<title>Node58</title>
<g id="a_node44"><a xlink:href="common__cmd__packet__util_8h.html#a631b01a16b948f0dad619c2f86eea9c8" target="_top" xlink:title="CCP packet から，サイズが 2 byte のコマンド引数を取得する">
<polygon fill="white" stroke="black" points="1398,-98.5 1398,-128.5 1525,-128.5 1525,-98.5 1398,-98.5"/>
<text text-anchor="start" x="1406" y="-116.5" font-family="Helvetica,sans-Serif" font-size="10.00">CCP_get_2byte_param</text>
<text text-anchor="middle" x="1461.5" y="-105.5" font-family="Helvetica,sans-Serif" font-size="10.00">_from_packet</text>
</a>
</g>
</g>
<!-- Node1&#45;&gt;Node58 -->
<g id="edge52" class="edge">
<title>Node1&#45;&gt;Node58</title>
<path fill="none" stroke="midnightblue" d="M1589.44,-244.23C1579.92,-216.89 1558.96,-166.91 1525,-137.5 1521.05,-134.08 1516.55,-131.11 1511.83,-128.56"/>
<polygon fill="midnightblue" stroke="midnightblue" points="1586.15,-245.43 1592.63,-253.82 1592.8,-243.22 1586.15,-245.43"/>
</g>
<!-- Node59 -->
<g id="node45" class="node">
<title>Node59</title>
<g id="a_node45"><a xlink:href="common__cmd__packet__util_8h.html#a80d5fb3327331e59e88fcf27b0c1280e" target="_top" xlink:title="CCP packet から，サイズが 4 byte のコマンド引数を取得する">
<polygon fill="white" stroke="black" points="1398,-49.5 1398,-79.5 1525,-79.5 1525,-49.5 1398,-49.5"/>
<text text-anchor="start" x="1406" y="-67.5" font-family="Helvetica,sans-Serif" font-size="10.00">CCP_get_4byte_param</text>
<text text-anchor="middle" x="1461.5" y="-56.5" font-family="Helvetica,sans-Serif" font-size="10.00">_from_packet</text>
</a>
</g>
</g>
<!-- Node1&#45;&gt;Node59 -->
<g id="edge53" class="edge">
<title>Node1&#45;&gt;Node59</title>
<path fill="none" stroke="midnightblue" d="M1592.74,-243.53C1586.78,-207.71 1569.46,-132.24 1525,-88.5 1521.52,-85.08 1517.5,-82.13 1513.21,-79.6"/>
<polygon fill="midnightblue" stroke="midnightblue" points="1589.32,-244.32 1594.3,-253.67 1596.24,-243.26 1589.32,-244.32"/>
</g>
<!-- Node60 -->
<g id="node46" class="node">
<title>Node60</title>
<g id="a_node46"><a xlink:href="common__cmd__packet__util_8h.html#a0102106bb6193bc9bf732940f1fc74c7" target="_top" xlink:title="CCP packet から，サイズが 8 byte のコマンド引数を取得する">
<polygon fill="white" stroke="black" points="1398,-0.5 1398,-30.5 1525,-30.5 1525,-0.5 1398,-0.5"/>
<text text-anchor="start" x="1406" y="-18.5" font-family="Helvetica,sans-Serif" font-size="10.00">CCP_get_8byte_param</text>
<text text-anchor="middle" x="1461.5" y="-7.5" font-family="Helvetica,sans-Serif" font-size="10.00">_from_packet</text>
</a>
</g>
</g>
<!-- Node1&#45;&gt;Node60 -->
<g id="edge54" class="edge">
<title>Node1&#45;&gt;Node60</title>
<path fill="none" stroke="midnightblue" d="M1594.83,-243.78C1592.32,-200.95 1580.51,-98.54 1525,-39.5 1521.74,-36.03 1517.91,-33.05 1513.8,-30.5"/>
<polygon fill="midnightblue" stroke="midnightblue" points="1591.34,-244.15 1595.31,-253.98 1598.33,-243.82 1591.34,-244.15"/>
</g>
<!-- Node61 -->
<g id="node47" class="node">
<title>Node61</title>
<g id="a_node47"><a xlink:href="common__cmd__packet__util_8h.html#ac42b13a9649fc0a2622e4c41460e2bf6" target="_top" xlink:title="CCP packet から，RAW コマンド引数を取得する">
<polygon fill="white" stroke="black" points="699,-539.5 699,-569.5 845,-569.5 845,-539.5 699,-539.5"/>
<text text-anchor="start" x="707" y="-557.5" font-family="Helvetica,sans-Serif" font-size="10.00">CCP_get_raw_param_from</text>
<text text-anchor="middle" x="772" y="-546.5" font-family="Helvetica,sans-Serif" font-size="10.00">_packet</text>
</a>
</g>
</g>
<!-- Node1&#45;&gt;Node61 -->
<g id="edge55" class="edge">
<title>Node1&#45;&gt;Node61</title>
<path fill="none" stroke="midnightblue" d="M1594.75,-283.26C1592.08,-322.93 1579.94,-412.01 1525,-453.5 1438.73,-518.65 1390.61,-472.5 1282.5,-472.5 1282.5,-472.5 1282.5,-472.5 1105.5,-472.5 1050.21,-472.5 899.74,-515.79 821.58,-539.46"/>
<polygon fill="midnightblue" stroke="midnightblue" points="1598.26,-283.22 1595.3,-273.05 1591.27,-282.85 1598.26,-283.22"/>
</g>
<!-- Node64 -->
<g id="node50" class="node">
<title>Node64</title>
<g id="a_node50"><a xlink:href="telemetry__definitions_8c.html#a01d72a517d85f5b006ae0f76de71c26d" target="_top" xlink:title=" ">
<polygon fill="white" stroke="black" points="1253,-197 1253,-216 1310,-216 1310,-197 1253,-197"/>
<text text-anchor="middle" x="1281.5" y="-204" font-family="Helvetica,sans-Serif" font-size="10.00">Tlm_TL_</text>
</a>
</g>
</g>
<!-- Node1&#45;&gt;Node64 -->
<g id="edge63" class="edge">
<title>Node1&#45;&gt;Node64</title>
<path fill="none" stroke="midnightblue" d="M1550.9,-253.74C1542.32,-251.94 1533.39,-250.12 1525,-248.5 1447.39,-233.53 1355.31,-218.26 1310.2,-210.94"/>
<polygon fill="midnightblue" stroke="midnightblue" points="1550.26,-257.18 1560.77,-255.84 1551.71,-250.34 1550.26,-257.18"/>
</g>
<!-- Node3 -->
<g id="node3" class="node">
<title>Node3</title>
<g id="a_node3"><a xlink:href="di__aobc_8h.html#aff7d4f09f3003e15242d14e6ed393059" target="_top" xlink:title="CommonCmdPacket を AOBC に送信する">
<polygon fill="white" stroke="black" points="1201,-425 1201,-444 1362,-444 1362,-425 1201,-425"/>
<text text-anchor="middle" x="1281.5" y="-432" font-family="Helvetica,sans-Serif" font-size="10.00">DI_AOBC_dispatch_command</text>
</a>
</g>
</g>
<!-- Node2&#45;&gt;Node3 -->
<g id="edge2" class="edge">
<title>Node2&#45;&gt;Node3</title>
<path fill="none" stroke="midnightblue" d="M1401.53,-434.5C1388.95,-434.5 1375.46,-434.5 1362.24,-434.5"/>
<polygon fill="midnightblue" stroke="midnightblue" points="1401.86,-438 1411.86,-434.5 1401.86,-431 1401.86,-438"/>
</g>
<!-- Node4 -->
<g id="node4" class="node">
<title>Node4</title>
<g id="a_node4"><a xlink:href="user__packet__handler_8h.html#a2c3c644313071db44127bc7a90be4569" target="_top" xlink:title="PH の cmd_router_ のユーザー処理関数">
<polygon fill="white" stroke="black" points="1048,-425 1048,-444 1165,-444 1165,-425 1048,-425"/>
<text text-anchor="middle" x="1106.5" y="-432" font-family="Helvetica,sans-Serif" font-size="10.00">PH_user_cmd_router</text>
</a>
</g>
</g>
<!-- Node3&#45;&gt;Node4 -->
<g id="edge3" class="edge">
<title>Node3&#45;&gt;Node4</title>
<path fill="none" stroke="midnightblue" d="M1190.64,-434.5C1181.95,-434.5 1173.31,-434.5 1165.07,-434.5"/>
<polygon fill="midnightblue" stroke="midnightblue" points="1190.84,-438 1200.84,-434.5 1190.84,-431 1190.84,-438"/>
</g>
<!-- Node5 -->
<g id="node5" class="node">
<title>Node5</title>
<g id="a_node5"><a xlink:href="packet__handler_8h.html#a7b1777e6101ff2eeeef6042166974cdc" target="_top" xlink:title="CCP をコマンドとして解釈して実行，ないしは別機器へ配送する">
<polygon fill="white" stroke="black" points="881,-406 881,-425 1012,-425 1012,-406 881,-406"/>
<text text-anchor="middle" x="946.5" y="-413" font-family="Helvetica,sans-Serif" font-size="10.00">PH_dispatch_command</text>
</a>
</g>
</g>
<!-- Node4&#45;&gt;Node5 -->
<g id="edge4" class="edge">
<title>Node4&#45;&gt;Node5</title>
<path fill="none" stroke="midnightblue" d="M1037.42,-426.31C1029.02,-425.3 1020.45,-424.27 1012.1,-423.27"/>
<polygon fill="midnightblue" stroke="midnightblue" points="1037.22,-429.81 1047.56,-427.53 1038.05,-422.86 1037.22,-429.81"/>
</g>
<!-- Node6 -->
<g id="node6" class="node">
<title>Node6</title>
<g id="a_node6"><a xlink:href="block__command__executor_8c.html#ae33c8a6dadb5c8d6052c681bd93eabb4" target="_top" xlink:title="BC をまとめて一括で実行する">
<polygon fill="white" stroke="black" points="699,-425 699,-444 845,-444 845,-425 699,-425"/>
<text text-anchor="middle" x="772" y="-432" font-family="Helvetica,sans-Serif" font-size="10.00">BCE_combine_block_cmd_</text>
</a>
</g>
</g>
<!-- Node5&#45;&gt;Node6 -->
<g id="edge5" class="edge">
<title>Node5&#45;&gt;Node6</title>
<path fill="none" stroke="midnightblue" d="M870.82,-423.73C862.27,-424.67 853.55,-425.63 845.03,-426.57"/>
<polygon fill="midnightblue" stroke="midnightblue" points="871.22,-427.2 880.78,-422.63 870.45,-420.24 871.22,-427.2"/>
</g>
<!-- Node15 -->
<g id="node10" class="node">
<title>Node15</title>
<g id="a_node10"><a xlink:href="block__command__executor_8c.html#ad3ff86b57b5abbbdb7dd658a04f00f13" target="_top" xlink:title="rotator の実行主体">
<polygon fill="white" stroke="black" points="705,-387 705,-406 839,-406 839,-387 705,-387"/>
<text text-anchor="middle" x="772" y="-394" font-family="Helvetica,sans-Serif" font-size="10.00">BCE_rotate_block_cmd_</text>
</a>
</g>
</g>
<!-- Node5&#45;&gt;Node15 -->
<g id="edge9" class="edge">
<title>Node5&#45;&gt;Node15</title>
<path fill="none" stroke="midnightblue" d="M870.8,-407.27C860.3,-406.12 849.56,-404.93 839.24,-403.8"/>
<polygon fill="midnightblue" stroke="midnightblue" points="870.45,-410.76 880.78,-408.37 871.22,-403.8 870.45,-410.76"/>
</g>
<!-- Node17 -->
<g id="node12" class="node">
<title>Node17</title>
<g id="a_node12"><a xlink:href="block__command__executor_8c.html#aa35678f3996844ae59428f34e6c8c78f" target="_top" xlink:title="BC をまとめて一括で実行する">
<polygon fill="white" stroke="black" points="705,-337.5 705,-367.5 839,-367.5 839,-337.5 705,-337.5"/>
<text text-anchor="start" x="713" y="-355.5" font-family="Helvetica,sans-Serif" font-size="10.00">BCE_timelimit_combine</text>
<text text-anchor="middle" x="772" y="-344.5" font-family="Helvetica,sans-Serif" font-size="10.00">_block_cmd_</text>
</a>
</g>
</g>
<!-- Node5&#45;&gt;Node17 -->
<g id="edge12" class="edge">
<title>Node5&#45;&gt;Node17</title>
<path fill="none" stroke="midnightblue" d="M911.45,-402.36C892.03,-394.93 867.2,-385.55 845,-377.5 835.92,-374.21 826.16,-370.76 816.85,-367.51"/>
<polygon fill="midnightblue" stroke="midnightblue" points="910.2,-405.63 920.79,-405.94 912.7,-399.09 910.2,-405.63"/>
</g>
<!-- Node5&#45;&gt;Node19 -->
<g id="edge15" class="edge">
<title>Node5&#45;&gt;Node19</title>
<path fill="none" stroke="midnightblue" d="M919.46,-400.62C907.17,-392.99 892.68,-383.09 881,-372.5 862.28,-355.53 862.93,-346.3 845,-328.5 826.09,-309.73 801.43,-290.92 786.43,-280.01"/>
<polygon fill="midnightblue" stroke="midnightblue" points="917.98,-403.81 928.35,-405.98 921.6,-397.82 917.98,-403.81"/>
</g>
<!-- Node37 -->
<g id="node32" class="node">
<title>Node37</title>
<g id="a_node32"><a xlink:href="event__handler_8c.html#a8d7de705ac2b09f9f25644f0c9f55952" target="_top" xlink:title="EH 対応を実施">
<polygon fill="white" stroke="black" points="732,-501 732,-520 812,-520 812,-501 732,-501"/>
<text text-anchor="middle" x="772" y="-508" font-family="Helvetica,sans-Serif" font-size="10.00">EH_respond_</text>
</a>
</g>
</g>
<!-- Node5&#45;&gt;Node37 -->
<g id="edge37" class="edge">
<title>Node5&#45;&gt;Node37</title>
<path fill="none" stroke="midnightblue" d="M920.85,-430.67C908.56,-438.54 893.66,-448.57 881,-458.5 863.92,-471.89 864.05,-481.09 845,-491.5 834.9,-497.02 823.12,-500.99 812.05,-503.83"/>
<polygon fill="midnightblue" stroke="midnightblue" points="923.07,-433.4 929.65,-425.1 919.33,-427.49 923.07,-433.4"/>
</g>
<!-- Node45 -->
<g id="node34" class="node">
<title>Node45</title>
<g id="a_node34"><a xlink:href="mode__manager_8c.html#a4a483437e28116e6067d488392922a8f" target="_top" xlink:title="(モード遷移に対応する)ブロックコマンドのタイムラインへの展開を行う">
<polygon fill="white" stroke="black" points="704,-463 704,-482 840,-482 840,-463 704,-463"/>
<text text-anchor="middle" x="772" y="-470" font-family="Helvetica,sans-Serif" font-size="10.00">MM_deploy_block_cmd_</text>
</a>
</g>
</g>
<!-- Node5&#45;&gt;Node45 -->
<g id="edge39" class="edge">
<title>Node5&#45;&gt;Node45</title>
<path fill="none" stroke="midnightblue" d="M912.84,-428.83C893.33,-436.55 867.95,-446.16 845,-453.5 834.41,-456.89 822.81,-460.15 812.07,-462.98"/>
<polygon fill="midnightblue" stroke="midnightblue" points="914.2,-432.06 922.19,-425.1 911.6,-425.56 914.2,-432.06"/>
</g>
<!-- Node7 -->
<g id="node7" class="node">
<title>Node7</title>
<g id="a_node7"><a xlink:href="block__command__executor_8h.html#a8fc9800360fc4f594c23209a9fa5a516" target="_top" xlink:title=" ">
<polygon fill="white" stroke="black" points="500.5,-425 500.5,-444 654.5,-444 654.5,-425 500.5,-425"/>
<text text-anchor="middle" x="577.5" y="-432" font-family="Helvetica,sans-Serif" font-size="10.00">Cmd_BCE_COMBINE_BLOCK</text>
</a>
</g>
</g>
<!-- Node6&#45;&gt;Node7 -->
<g id="edge6" class="edge">
<title>Node6&#45;&gt;Node7</title>
<path fill="none" stroke="midnightblue" d="M688.54,-434.5C677.29,-434.5 665.8,-434.5 654.67,-434.5"/>
<polygon fill="midnightblue" stroke="midnightblue" points="688.77,-438 698.77,-434.5 688.77,-431 688.77,-438"/>
</g>
<!-- Node8 -->
<g id="node8" class="node">
<title>Node8</title>
<g id="a_node8"><a xlink:href="command__definitions_8c.html#aa375895192b16d8e7f0ff4545b54e6c4" target="_top" xlink:title="Cmd Tableのロード">
<polygon fill="white" stroke="black" points="328,-425 328,-444 441,-444 441,-425 328,-425"/>
<text text-anchor="middle" x="384.5" y="-432" font-family="Helvetica,sans-Serif" font-size="10.00">CA_load_cmd_table</text>
</a>
</g>
</g>
<!-- Node7&#45;&gt;Node8 -->
<g id="edge7" class="edge">
<title>Node7&#45;&gt;Node8</title>
<path fill="none" stroke="midnightblue" d="M490.19,-434.5C473.57,-434.5 456.59,-434.5 441.26,-434.5"/>
<polygon fill="midnightblue" stroke="midnightblue" points="490.46,-438 500.46,-434.5 490.46,-431 490.46,-438"/>
</g>
<!-- Node9 -->
<g id="node9" class="node">
<title>Node9</title>
<g id="a_node9"><a xlink:href="command__analyze_8h.html#ae6d1f376bf4e1c9c4b63bc3f04924c8a" target="_top" xlink:title="CA の初期化">
<polygon fill="white" stroke="red" points="185,-425 185,-444 262,-444 262,-425 185,-425"/>
<text text-anchor="middle" x="223.5" y="-432" font-family="Helvetica,sans-Serif" font-size="10.00">CA_initialize</text>
</a>
</g>
</g>
<!-- Node8&#45;&gt;Node9 -->
<g id="edge8" class="edge">
<title>Node8&#45;&gt;Node9</title>
<path fill="none" stroke="midnightblue" d="M317.83,-434.5C298.93,-434.5 278.95,-434.5 262.35,-434.5"/>
<polygon fill="midnightblue" stroke="midnightblue" points="317.89,-438 327.89,-434.5 317.89,-431 317.89,-438"/>
</g>
<!-- Node16 -->
<g id="node11" class="node">
<title>Node16</title>
<g id="a_node11"><a xlink:href="block__command__executor_8h.html#a7a537f68d3f291d25a6a4eae3f99cb45" target="_top" xlink:title=" ">
<polygon fill="white" stroke="black" points="505,-387 505,-406 650,-406 650,-387 505,-387"/>
<text text-anchor="middle" x="577.5" y="-394" font-family="Helvetica,sans-Serif" font-size="10.00">Cmd_BCE_ROTATE_BLOCK</text>
</a>
</g>
</g>
<!-- Node15&#45;&gt;Node16 -->
<g id="edge10" class="edge">
<title>Node15&#45;&gt;Node16</title>
<path fill="none" stroke="midnightblue" d="M694.7,-396.5C680.01,-396.5 664.67,-396.5 650.13,-396.5"/>
<polygon fill="midnightblue" stroke="midnightblue" points="694.75,-400 704.75,-396.5 694.75,-393 694.75,-400"/>
</g>
<!-- Node16&#45;&gt;Node8 -->
<g id="edge11" class="edge">
<title>Node16&#45;&gt;Node8</title>
<path fill="none" stroke="midnightblue" d="M518.15,-408.11C490.98,-413.51 459.07,-419.86 433.35,-424.98"/>
<polygon fill="midnightblue" stroke="midnightblue" points="519.18,-411.47 528.3,-406.09 517.81,-404.61 519.18,-411.47"/>
</g>
<!-- Node18 -->
<g id="node13" class="node">
<title>Node18</title>
<g id="a_node13"><a xlink:href="block__command__executor_8h.html#a33ee70475b35e5606d83857c5843d29a" target="_top" xlink:title=" ">
<polygon fill="white" stroke="black" points="492,-337.5 492,-367.5 663,-367.5 663,-337.5 492,-337.5"/>
<text text-anchor="start" x="500" y="-355.5" font-family="Helvetica,sans-Serif" font-size="10.00">Cmd_BCE_TIMELIMIT_COMBINE</text>
<text text-anchor="middle" x="577.5" y="-344.5" font-family="Helvetica,sans-Serif" font-size="10.00">_BLOCK</text>
</a>
</g>
</g>
<!-- Node17&#45;&gt;Node18 -->
<g id="edge13" class="edge">
<title>Node17&#45;&gt;Node18</title>
<path fill="none" stroke="midnightblue" d="M694.58,-352.5C684.28,-352.5 673.66,-352.5 663.23,-352.5"/>
<polygon fill="midnightblue" stroke="midnightblue" points="694.75,-356 704.75,-352.5 694.75,-349 694.75,-356"/>
</g>
<!-- Node18&#45;&gt;Node8 -->
<g id="edge14" class="edge">
<title>Node18&#45;&gt;Node8</title>
<path fill="none" stroke="midnightblue" d="M507.76,-371.05C502.36,-373.05 497.05,-375.2 492,-377.5 474.73,-385.38 472.58,-391.25 456,-400.5 439.98,-409.44 421.25,-418.4 407.12,-424.88"/>
<polygon fill="midnightblue" stroke="midnightblue" points="509.26,-374.23 517.53,-367.62 506.94,-367.63 509.26,-374.23"/>
</g>
<!-- Node20 -->
<g id="node15" class="node">
<title>Node20</title>
<g id="a_node15"><a xlink:href="di__aobc_8c.html#ac2b0fb03e89d75b82419d4ad53202f8b" target="_top" xlink:title=" ">
<polygon fill="white" stroke="black" points="503.5,-299 503.5,-318 651.5,-318 651.5,-299 503.5,-299"/>
<text text-anchor="middle" x="577.5" y="-306" font-family="Helvetica,sans-Serif" font-size="10.00">DI_AOBC_cmd_dispatcher_</text>
</a>
</g>
</g>
<!-- Node19&#45;&gt;Node20 -->
<g id="edge16" class="edge">
<title>Node19&#45;&gt;Node20</title>
<path fill="none" stroke="midnightblue" d="M712.55,-282.04C685.09,-287.46 652.76,-293.84 626.73,-298.98"/>
<polygon fill="midnightblue" stroke="midnightblue" points="713.29,-285.46 722.42,-280.09 711.94,-278.59 713.29,-285.46"/>
</g>
<!-- Node22 -->
<g id="node17" class="node">
<title>Node22</title>
<g id="a_node17"><a xlink:href="gs__command__dispatcher_8c.html#a4fe4cfc8c0f816a286dc50d8797cef54" target="_top" xlink:title="GSCD App 実行関数">
<polygon fill="white" stroke="black" points="529.5,-223 529.5,-242 625.5,-242 625.5,-223 529.5,-223"/>
<text text-anchor="middle" x="577.5" y="-230" font-family="Helvetica,sans-Serif" font-size="10.00">GSCD_dispatch_</text>
</a>
</g>
</g>
<!-- Node19&#45;&gt;Node22 -->
<g id="edge18" class="edge">
<title>Node19&#45;&gt;Node22</title>
<path fill="none" stroke="midnightblue" d="M712.43,-258.94C684.65,-253.45 651.89,-246.99 625.73,-241.82"/>
<polygon fill="midnightblue" stroke="midnightblue" points="711.94,-262.41 722.42,-260.91 713.29,-255.54 711.94,-262.41"/>
</g>
<!-- Node25 -->
<g id="node20" class="node">
<title>Node25</title>
<g id="a_node20"><a xlink:href="realtime__command__dispatcher_8c.html#aa66b7d158969999a789dc69d2d5b1b7d" target="_top" xlink:title=" ">
<polygon fill="white" stroke="black" points="530.5,-185 530.5,-204 624.5,-204 624.5,-185 530.5,-185"/>
<text text-anchor="middle" x="577.5" y="-192" font-family="Helvetica,sans-Serif" font-size="10.00">RTCD_dispatch_</text>
</a>
</g>
</g>
<!-- Node19&#45;&gt;Node25 -->
<g id="edge21" class="edge">
<title>Node19&#45;&gt;Node25</title>
<path fill="none" stroke="midnightblue" d="M747.16,-255.55C725.83,-242.76 693.32,-224.69 663,-213.5 650.87,-209.02 637.35,-205.41 624.75,-202.59"/>
<polygon fill="midnightblue" stroke="midnightblue" points="745.5,-258.64 755.86,-260.85 749.14,-252.66 745.5,-258.64"/>
</g>
<!-- Node27 -->
<g id="node22" class="node">
<title>Node27</title>
<g id="a_node22"><a xlink:href="task__dispatcher_8h.html#ac880fe6e26ecdf8711d08980cad6787d" target="_top" xlink:title="現在時刻に応じて、TaskList から Cmd を一つ実行する or TaskList を再展開する">
<polygon fill="white" stroke="black" points="519.5,-135.5 519.5,-165.5 635.5,-165.5 635.5,-135.5 519.5,-135.5"/>
<text text-anchor="start" x="527.5" y="-153.5" font-family="Helvetica,sans-Serif" font-size="10.00">TDSP_execute_pl_as</text>
<text text-anchor="middle" x="577.5" y="-142.5" font-family="Helvetica,sans-Serif" font-size="10.00">_task_list</text>
</a>
</g>
</g>
<!-- Node19&#45;&gt;Node27 -->
<g id="edge24" class="edge">
<title>Node19&#45;&gt;Node27</title>
<path fill="none" stroke="midnightblue" d="M755.94,-253.29C736.49,-232.07 700.63,-196.28 663,-175.5 654.56,-170.84 645.16,-166.96 635.78,-163.76"/>
<polygon fill="midnightblue" stroke="midnightblue" points="753.5,-255.8 762.79,-260.9 758.7,-251.12 753.5,-255.8"/>
</g>
<!-- Node30 -->
<g id="node25" class="node">
<title>Node30</title>
<g id="a_node25"><a xlink:href="timeline__command__dispatcher_8c.html#a81ac915e803ac30a27f6488af9ce45ad" target="_top" xlink:title=" ">
<polygon fill="white" stroke="black" points="532.5,-261 532.5,-280 622.5,-280 622.5,-261 532.5,-261"/>
<text text-anchor="middle" x="577.5" y="-268" font-family="Helvetica,sans-Serif" font-size="10.00">tlc_dispatcher_</text>
</a>
</g>
</g>
<!-- Node19&#45;&gt;Node30 -->
<g id="edge27" class="edge">
<title>Node19&#45;&gt;Node30</title>
<path fill="none" stroke="midnightblue" d="M691.75,-270.5C668.12,-270.5 643.07,-270.5 622.56,-270.5"/>
<polygon fill="midnightblue" stroke="midnightblue" points="691.78,-274 701.78,-270.5 691.78,-267 691.78,-274"/>
</g>
<!-- Node21 -->
<g id="node16" class="node">
<title>Node21</title>
<g id="a_node16"><a xlink:href="di__aobc_8h.html#a22b846ecf2fe48c7bff4f2c10f2bc284" target="_top" xlink:title="AOBC cmd dispatcher アプリ生成関数">
<polygon fill="white" stroke="black" points="313,-372 313,-391 456,-391 456,-372 313,-372"/>
<text text-anchor="middle" x="384.5" y="-379" font-family="Helvetica,sans-Serif" font-size="10.00">DI_AOBC_cmd_dispatcher</text>
</a>
</g>
</g>
<!-- Node20&#45;&gt;Node21 -->
<g id="edge17" class="edge">
<title>Node20&#45;&gt;Node21</title>
<path fill="none" stroke="midnightblue" d="M508.47,-321.22C502.76,-323.29 497.19,-325.7 492,-328.5 472.63,-338.95 475.21,-351.76 456,-362.5 449.14,-366.34 441.47,-369.43 433.78,-371.91"/>
<polygon fill="midnightblue" stroke="midnightblue" points="509.78,-324.48 518.2,-318.04 507.6,-317.82 509.78,-324.48"/>
</g>
<!-- Node23 -->
<g id="node18" class="node">
<title>Node23</title>
<g id="a_node18"><a xlink:href="gs__command__dispatcher_8h.html#a0195f703ab1a606ae7541ef886e609bc" target="_top" xlink:title="GSCD App 生成関数">
<polygon fill="white" stroke="black" points="171.5,-220 171.5,-239 275.5,-239 275.5,-220 171.5,-220"/>
<text text-anchor="middle" x="223.5" y="-227" font-family="Helvetica,sans-Serif" font-size="10.00">GSCD_create_app</text>
</a>
</g>
</g>
<!-- Node22&#45;&gt;Node23 -->
<g id="edge19" class="edge">
<title>Node22&#45;&gt;Node23</title>
<path fill="none" stroke="midnightblue" d="M519.35,-232.01C451.8,-231.44 340.4,-230.49 275.61,-229.94"/>
<polygon fill="midnightblue" stroke="midnightblue" points="519.36,-235.51 529.39,-232.1 519.42,-228.51 519.36,-235.51"/>
</g>
<!-- Node24 -->
<g id="node19" class="node">
<title>Node24</title>
<g id="a_node19"><a xlink:href="app__registry_8h.html#ab944b1d78a41e427bc2ed57f9c4e9534" target="_top" xlink:title=" ">
<polygon fill="white" stroke="red" points="0,-258 0,-277 134,-277 134,-258 0,-258"/>
<text text-anchor="middle" x="67" y="-265" font-family="Helvetica,sans-Serif" font-size="10.00">AR_load_initial_settings</text>
</a>
</g>
</g>
<!-- Node23&#45;&gt;Node24 -->
<g id="edge20" class="edge">
<title>Node23&#45;&gt;Node24</title>
<path fill="none" stroke="midnightblue" d="M173.55,-241.54C151.96,-246.85 126.96,-253 106.71,-257.98"/>
<polygon fill="midnightblue" stroke="midnightblue" points="174.64,-244.88 183.51,-239.09 172.97,-238.08 174.64,-244.88"/>
</g>
<!-- Node26 -->
<g id="node21" class="node">
<title>Node26</title>
<g id="a_node21"><a xlink:href="realtime__command__dispatcher_8h.html#a6de82e8f79b0281c403be56abfaec6ba" target="_top" xlink:title=" ">
<polygon fill="white" stroke="black" points="173,-182 173,-201 274,-201 274,-182 173,-182"/>
<text text-anchor="middle" x="223.5" y="-189" font-family="Helvetica,sans-Serif" font-size="10.00">RTCD_create_app</text>
</a>
</g>
</g>
<!-- Node25&#45;&gt;Node26 -->
<g id="edge22" class="edge">
<title>Node25&#45;&gt;Node26</title>
<path fill="none" stroke="midnightblue" d="M520.39,-194.02C452.47,-193.44 339.13,-192.48 274.22,-191.92"/>
<polygon fill="midnightblue" stroke="midnightblue" points="520.45,-197.52 530.48,-194.11 520.51,-190.52 520.45,-197.52"/>
</g>
<!-- Node26&#45;&gt;Node24 -->
<g id="edge23" class="edge">
<title>Node26&#45;&gt;Node24</title>
<path fill="none" stroke="midnightblue" d="M183.92,-204.65C179.19,-206.5 174.45,-208.47 170,-210.5 138.26,-225 103.13,-245.74 83.49,-257.8"/>
<polygon fill="midnightblue" stroke="midnightblue" points="185.42,-207.82 193.55,-201.03 182.96,-201.27 185.42,-207.82"/>
</g>
<!-- Node28 -->
<g id="node23" class="node">
<title>Node28</title>
<g id="a_node23"><a xlink:href="c2a__core__main_8h.html#a64e3c69d223ce8236ab718278b17b195" target="_top" xlink:title=" ">
<polygon fill="white" stroke="black" points="338.5,-141 338.5,-160 430.5,-160 430.5,-141 338.5,-141"/>
<text text-anchor="middle" x="384.5" y="-148" font-family="Helvetica,sans-Serif" font-size="10.00">C2A_core_main</text>
</a>
</g>
</g>
<!-- Node27&#45;&gt;Node28 -->
<g id="edge25" class="edge">
<title>Node27&#45;&gt;Node28</title>
<path fill="none" stroke="midnightblue" d="M509.28,-150.5C483.27,-150.5 454.19,-150.5 430.75,-150.5"/>
<polygon fill="midnightblue" stroke="midnightblue" points="509.45,-154 519.45,-150.5 509.45,-147 509.45,-154"/>
</g>
<!-- Node29 -->
<g id="node24" class="node">
<title>Node29</title>
<g id="a_node24"><a xlink:href="c2a__main_8c.html#a06acf8a326dfbc653a6b7094d98099b9" target="_top" xlink:title=" ">
<polygon fill="white" stroke="red" points="188,-141 188,-160 259,-160 259,-141 188,-141"/>
<text text-anchor="middle" x="223.5" y="-148" font-family="Helvetica,sans-Serif" font-size="10.00">C2A_main_</text>
</a>
</g>
</g>
<!-- Node28&#45;&gt;Node29 -->
<g id="edge26" class="edge">
<title>Node28&#45;&gt;Node29</title>
<path fill="none" stroke="midnightblue" d="M328.07,-150.5C305.15,-150.5 279.28,-150.5 259.13,-150.5"/>
<polygon fill="midnightblue" stroke="midnightblue" points="328.36,-154 338.36,-150.5 328.36,-147 328.36,-154"/>
</g>
<!-- Node31 -->
<g id="node26" class="node">
<title>Node31</title>
<g id="a_node26"><a xlink:href="timeline__command__dispatcher_8c.html#a901708d936509614c56fe989ec93c9ad" target="_top" xlink:title=" ">
<polygon fill="white" stroke="black" points="334.5,-296 334.5,-315 434.5,-315 434.5,-296 334.5,-296"/>
<text text-anchor="middle" x="384.5" y="-303" font-family="Helvetica,sans-Serif" font-size="10.00">TLCD0_dispatch_</text>
</a>
</g>
</g>
<!-- Node30&#45;&gt;Node31 -->
<g id="edge28" class="edge">
<title>Node30&#45;&gt;Node31</title>
<path fill="none" stroke="midnightblue" d="M522.32,-280.43C494.72,-285.49 461.43,-291.59 434.59,-296.5"/>
<polygon fill="midnightblue" stroke="midnightblue" points="523,-283.86 532.2,-278.62 521.73,-276.98 523,-283.86"/>
</g>
<!-- Node33 -->
<g id="node28" class="node">
<title>Node33</title>
<g id="a_node28"><a xlink:href="timeline__command__dispatcher_8c.html#aff4f663a7670bf6eb1be99911bd5cf79" target="_top" xlink:title=" ">
<polygon fill="white" stroke="black" points="334.5,-258 334.5,-277 434.5,-277 434.5,-258 334.5,-258"/>
<text text-anchor="middle" x="384.5" y="-265" font-family="Helvetica,sans-Serif" font-size="10.00">TLCD1_dispatch_</text>
</a>
</g>
</g>
<!-- Node30&#45;&gt;Node33 -->
<g id="edge31" class="edge">
<title>Node30&#45;&gt;Node33</title>
<path fill="none" stroke="midnightblue" d="M521.95,-269.64C494.43,-269.21 461.31,-268.69 434.59,-268.27"/>
<polygon fill="midnightblue" stroke="midnightblue" points="522.15,-273.15 532.2,-269.8 522.26,-266.15 522.15,-273.15"/>
</g>
<!-- Node35 -->
<g id="node30" class="node">
<title>Node35</title>
<g id="a_node30"><a xlink:href="timeline__command__dispatcher_8c.html#aa498bfb7d65299eb0327e26591b69fa4" target="_top" xlink:title=" ">
<polygon fill="white" stroke="black" points="334.5,-334 334.5,-353 434.5,-353 434.5,-334 334.5,-334"/>
<text text-anchor="middle" x="384.5" y="-341" font-family="Helvetica,sans-Serif" font-size="10.00">TLCD2_dispatch_</text>
</a>
</g>
</g>
<!-- Node30&#45;&gt;Node35 -->
<g id="edge34" class="edge">
<title>Node30&#45;&gt;Node35</title>
<path fill="none" stroke="midnightblue" d="M522.37,-278.02C511.91,-280.75 501.32,-284.45 492,-289.5 472.38,-300.12 475.4,-313.46 456,-324.5 449.17,-328.39 441.51,-331.51 433.83,-334"/>
<polygon fill="midnightblue" stroke="midnightblue" points="523.37,-281.38 532.31,-275.7 521.77,-274.57 523.37,-281.38"/>
</g>
<!-- Node32 -->
<g id="node27" class="node">
<title>Node32</title>
<g id="a_node27"><a xlink:href="timeline__command__dispatcher_8h.html#a5c3636e3f9ba660572455a68f07a3c8e" target="_top" xlink:title=" ">
<polygon fill="white" stroke="black" points="170,-296 170,-315 277,-315 277,-296 170,-296"/>
<text text-anchor="middle" x="223.5" y="-303" font-family="Helvetica,sans-Serif" font-size="10.00">TLCD0_create_app</text>
</a>
</g>
</g>
<!-- Node31&#45;&gt;Node32 -->
<g id="edge29" class="edge">
<title>Node31&#45;&gt;Node32</title>
<path fill="none" stroke="midnightblue" d="M324.49,-305.5C308.99,-305.5 292.36,-305.5 277.21,-305.5"/>
<polygon fill="midnightblue" stroke="midnightblue" points="324.5,-309 334.5,-305.5 324.5,-302 324.5,-309"/>
</g>
<!-- Node32&#45;&gt;Node24 -->
<g id="edge30" class="edge">
<title>Node32&#45;&gt;Node24</title>
<path fill="none" stroke="midnightblue" d="M173.55,-293.46C151.96,-288.15 126.96,-282 106.71,-277.02"/>
<polygon fill="midnightblue" stroke="midnightblue" points="172.97,-296.92 183.51,-295.91 174.64,-290.12 172.97,-296.92"/>
</g>
<!-- Node34 -->
<g id="node29" class="node">
<title>Node34</title>
<g id="a_node29"><a xlink:href="timeline__command__dispatcher_8h.html#a55fef225002dd96ca2bb3e4dbf48af16" target="_top" xlink:title=" ">
<polygon fill="white" stroke="black" points="170,-258 170,-277 277,-277 277,-258 170,-258"/>
<text text-anchor="middle" x="223.5" y="-265" font-family="Helvetica,sans-Serif" font-size="10.00">TLCD1_create_app</text>
</a>
</g>
</g>
<!-- Node33&#45;&gt;Node34 -->
<g id="edge32" class="edge">
<title>Node33&#45;&gt;Node34</title>
<path fill="none" stroke="midnightblue" d="M324.49,-267.5C308.99,-267.5 292.36,-267.5 277.21,-267.5"/>
<polygon fill="midnightblue" stroke="midnightblue" points="324.5,-271 334.5,-267.5 324.5,-264 324.5,-271"/>
</g>
<!-- Node34&#45;&gt;Node24 -->
<g id="edge33" class="edge">
<title>Node34&#45;&gt;Node24</title>
<path fill="none" stroke="midnightblue" d="M159.66,-267.5C151.26,-267.5 142.62,-267.5 134.16,-267.5"/>
<polygon fill="midnightblue" stroke="midnightblue" points="159.76,-271 169.76,-267.5 159.76,-264 159.76,-271"/>
</g>
<!-- Node36 -->
<g id="node31" class="node">
<title>Node36</title>
<g id="a_node31"><a xlink:href="timeline__command__dispatcher_8h.html#a67a4900c4eb408e9d16cdcb4deefbe39" target="_top" xlink:title=" ">
<polygon fill="white" stroke="black" points="170,-334 170,-353 277,-353 277,-334 170,-334"/>
<text text-anchor="middle" x="223.5" y="-341" font-family="Helvetica,sans-Serif" font-size="10.00">TLCD2_create_app</text>
</a>
</g>
</g>
<!-- Node35&#45;&gt;Node36 -->
<g id="edge35" class="edge">
<title>Node35&#45;&gt;Node36</title>
<path fill="none" stroke="midnightblue" d="M324.49,-343.5C308.99,-343.5 292.36,-343.5 277.21,-343.5"/>
<polygon fill="midnightblue" stroke="midnightblue" points="324.5,-347 334.5,-343.5 324.5,-340 324.5,-347"/>
</g>
<!-- Node36&#45;&gt;Node24 -->
<g id="edge36" class="edge">
<title>Node36&#45;&gt;Node24</title>
<path fill="none" stroke="midnightblue" d="M183.92,-330.35C179.19,-328.5 174.45,-326.53 170,-324.5 138.26,-310 103.13,-289.26 83.49,-277.2"/>
<polygon fill="midnightblue" stroke="midnightblue" points="182.96,-333.73 193.55,-333.97 185.42,-327.18 182.96,-333.73"/>
</g>
<!-- Node38 -->
<g id="node33" class="node">
<title>Node38</title>
<g id="a_node33"><a xlink:href="event__handler_8c.html#ac7461e79109f06783e2c620a6d999a6b" target="_top" xlink:title="EH の対応条件をチェックし， EL_Event に対応する">
<polygon fill="white" stroke="red" points="497,-501 497,-520 658,-520 658,-501 497,-501"/>
<text text-anchor="middle" x="577.5" y="-508" font-family="Helvetica,sans-Serif" font-size="10.00">EH_check_rule_and_respond_</text>
</a>
</g>
</g>
<!-- Node37&#45;&gt;Node38 -->
<g id="edge38" class="edge">
<title>Node37&#45;&gt;Node38</title>
<path fill="none" stroke="midnightblue" d="M721.5,-510.5C702.17,-510.5 679.51,-510.5 658,-510.5"/>
<polygon fill="midnightblue" stroke="midnightblue" points="721.58,-514 731.58,-510.5 721.58,-507 721.58,-514"/>
</g>
<!-- Node46 -->
<g id="node35" class="node">
<title>Node46</title>
<g id="a_node35"><a xlink:href="mode__manager_8c.html#ae4381c1c84d8b5d8aa033e522530436d" target="_top" xlink:title="Cmd_MM_START_TRANSITIONの実体">
<polygon fill="white" stroke="red" points="518,-463 518,-482 637,-482 637,-463 518,-463"/>
<text text-anchor="middle" x="577.5" y="-470" font-family="Helvetica,sans-Serif" font-size="10.00">MM_start_transition_</text>
</a>
</g>
</g>
<!-- Node45&#45;&gt;Node46 -->
<g id="edge40" class="edge">
<title>Node45&#45;&gt;Node46</title>
<path fill="none" stroke="midnightblue" d="M693.89,-472.5C675.03,-472.5 655.15,-472.5 637.3,-472.5"/>
<polygon fill="midnightblue" stroke="midnightblue" points="693.94,-476 703.94,-472.5 693.94,-469 693.94,-476"/>
</g>
<!-- Node50 -->
<g id="node37" class="node">
<title>Node50</title>
<g id="a_node37"><a xlink:href="telemetry__definitions_8c.html#aeb8b4d65c7fd2e0d4d8ee5a635500e35" target="_top" xlink:title=" ">
<polygon fill="white" stroke="black" points="1252.5,-273 1252.5,-292 1310.5,-292 1310.5,-273 1252.5,-273"/>
<text text-anchor="middle" x="1281.5" y="-280" font-family="Helvetica,sans-Serif" font-size="10.00">Tlm_BL_</text>
</a>
</g>
</g>
<!-- Node49&#45;&gt;Node50 -->
<g id="edge42" class="edge">
<title>Node49&#45;&gt;Node50</title>
<path fill="none" stroke="midnightblue" d="M1415.47,-282.5C1382.53,-282.5 1338.86,-282.5 1310.71,-282.5"/>
<polygon fill="midnightblue" stroke="midnightblue" points="1415.76,-286 1425.76,-282.5 1415.76,-279 1415.76,-286"/>
</g>
<!-- Node49&#45;&gt;Node54 -->
<g id="edge45" class="edge">
<title>Node49&#45;&gt;Node54</title>
<path fill="none" stroke="midnightblue" d="M1415.57,-292.09C1382.95,-299.06 1339.76,-308.28 1311.56,-314.3"/>
<polygon fill="midnightblue" stroke="midnightblue" points="1416.71,-295.43 1425.76,-289.92 1415.25,-288.58 1416.71,-295.43"/>
</g>
<!-- Node49&#45;&gt;Node55 -->
<g id="edge47" class="edge">
<title>Node49&#45;&gt;Node55</title>
<path fill="none" stroke="midnightblue" d="M1415.66,-272.93C1385.99,-266.59 1347.56,-258.39 1319.61,-252.42"/>
<polygon fill="midnightblue" stroke="midnightblue" points="1415.25,-276.42 1425.76,-275.08 1416.71,-269.57 1415.25,-276.42"/>
</g>
<!-- Node51 -->
<g id="node38" class="node">
<title>Node51</title>
<g id="a_node38"><a xlink:href="telemetry__definitions_8c.html#a91def2fbe43510d233815f51bfa65268" target="_top" xlink:title="Tlm Tableのロード">
<polygon fill="white" stroke="black" points="1053,-254 1053,-273 1160,-273 1160,-254 1053,-254"/>
<text text-anchor="middle" x="1106.5" y="-261" font-family="Helvetica,sans-Serif" font-size="10.00">TF_load_tlm_table</text>
</a>
</g>
</g>
<!-- Node50&#45;&gt;Node51 -->
<g id="edge43" class="edge">
<title>Node50&#45;&gt;Node51</title>
<path fill="none" stroke="midnightblue" d="M1242.13,-278.29C1218.01,-275.64 1186.56,-272.18 1160.12,-269.28"/>
<polygon fill="midnightblue" stroke="midnightblue" points="1242,-281.79 1252.32,-279.41 1242.76,-274.83 1242,-281.79"/>
</g>
<!-- Node52 -->
<g id="node39" class="node">
<title>Node52</title>
<g id="a_node39"><a xlink:href="telemetry__frame_8h.html#a76cf4c72318af4ce953abdb8b522e787" target="_top" xlink:title="TF の初期化">
<polygon fill="white" stroke="red" points="908.5,-254 908.5,-273 984.5,-273 984.5,-254 908.5,-254"/>
<text text-anchor="middle" x="946.5" y="-261" font-family="Helvetica,sans-Serif" font-size="10.00">TF_initialize</text>
</a>
</g>
</g>
<!-- Node51&#45;&gt;Node52 -->
<g id="edge44" class="edge">
<title>Node51&#45;&gt;Node52</title>
<path fill="none" stroke="midnightblue" d="M1042.79,-263.5C1023.19,-263.5 1002.19,-263.5 984.91,-263.5"/>
<polygon fill="midnightblue" stroke="midnightblue" points="1042.89,-267 1052.89,-263.5 1042.89,-260 1042.89,-267"/>
</g>
<!-- Node54&#45;&gt;Node51 -->
<g id="edge46" class="edge">
<title>Node54&#45;&gt;Node51</title>
<path fill="none" stroke="midnightblue" d="M1241.14,-312.34C1228.24,-309.33 1213.9,-305.64 1201,-301.5 1175.47,-293.31 1147.06,-281.34 1128.33,-273.03"/>
<polygon fill="midnightblue" stroke="midnightblue" points="1240.61,-315.8 1251.13,-314.6 1242.15,-308.98 1240.61,-315.8"/>
</g>
<!-- Node55&#45;&gt;Node51 -->
<g id="edge48" class="edge">
<title>Node55&#45;&gt;Node51</title>
<path fill="none" stroke="midnightblue" d="M1233.35,-249.68C1210.75,-252.16 1183.6,-255.14 1160.31,-257.7"/>
<polygon fill="midnightblue" stroke="midnightblue" points="1233.83,-253.15 1243.39,-248.58 1233.06,-246.19 1233.83,-253.15"/>
</g>
<!-- Node56&#45;&gt;Node5 -->
<g id="edge50" class="edge">
<title>Node56&#45;&gt;Node5</title>
<path fill="none" stroke="midnightblue" d="M1046.29,-403.62C1035.1,-404.97 1023.34,-406.38 1012,-407.74"/>
<polygon fill="midnightblue" stroke="midnightblue" points="1046.86,-407.08 1056.37,-402.41 1046.03,-400.13 1046.86,-407.08"/>
</g>
<!-- Node62 -->
<g id="node48" class="node">
<title>Node62</title>
<g id="a_node48"><a xlink:href="block__command__table_8h.html#afb56b53815cce4e3c34d0463073368ec" target="_top" xlink:title=" ">
<polygon fill="white" stroke="black" points="499.5,-539 499.5,-558 655.5,-558 655.5,-539 499.5,-539"/>
<text text-anchor="middle" x="577.5" y="-546" font-family="Helvetica,sans-Serif" font-size="10.00">Cmd_BCT_OVERWRITE_CMD</text>
</a>
</g>
</g>
<!-- Node61&#45;&gt;Node62 -->
<g id="edge56" class="edge">
<title>Node61&#45;&gt;Node62</title>
<path fill="none" stroke="midnightblue" d="M688.77,-551.94C677.78,-551.59 666.54,-551.24 655.64,-550.9"/>
<polygon fill="midnightblue" stroke="midnightblue" points="688.67,-555.44 698.77,-552.25 688.89,-548.44 688.67,-555.44"/>
</g>
<!-- Node63 -->
<g id="node49" class="node">
<title>Node63</title>
<g id="a_node49"><a xlink:href="command__analyze_8h.html#a0fa0130cb6cf7f1bca7c4dc371aaf5c0" target="_top" xlink:title=" ">
<polygon fill="white" stroke="black" points="507.5,-577 507.5,-596 647.5,-596 647.5,-577 507.5,-577"/>
<text text-anchor="middle" x="577.5" y="-584" font-family="Helvetica,sans-Serif" font-size="10.00">Cmd_CA_REGISTER_CMD</text>
</a>
</g>
</g>
<!-- Node61&#45;&gt;Node63 -->
<g id="edge58" class="edge">
<title>Node61&#45;&gt;Node63</title>
<path fill="none" stroke="midnightblue" d="M688.42,-568.23C670.69,-571.18 652.32,-574.23 635.8,-576.97"/>
<polygon fill="midnightblue" stroke="midnightblue" points="689.48,-571.6 698.77,-566.51 688.33,-564.69 689.48,-571.6"/>
</g>
<!-- Node62&#45;&gt;Node8 -->
<g id="edge57" class="edge">
<title>Node62&#45;&gt;Node8</title>
<path fill="none" stroke="midnightblue" d="M506.39,-535.71C501.41,-533.9 496.56,-531.85 492,-529.5 448.81,-507.3 409.33,-463.41 393.19,-444.05"/>
<polygon fill="midnightblue" stroke="midnightblue" points="505.48,-539.09 516.07,-538.88 507.66,-532.44 505.48,-539.09"/>
</g>
<!-- Node63&#45;&gt;Node8 -->
<g id="edge59" class="edge">
<title>Node63&#45;&gt;Node8</title>
<path fill="none" stroke="midnightblue" d="M502.8,-573.21C499.05,-571.53 495.42,-569.63 492,-567.5 440.32,-535.21 402.85,-468.77 390.19,-444.04"/>
<polygon fill="midnightblue" stroke="midnightblue" points="501.77,-576.57 512.36,-576.98 504.34,-570.06 501.77,-576.57"/>
</g>
<!-- Node64&#45;&gt;Node51 -->
<g id="edge64" class="edge">
<title>Node64&#45;&gt;Node51</title>
<path fill="none" stroke="midnightblue" d="M1243.13,-214.2C1229.72,-217.29 1214.57,-221.15 1201,-225.5 1175.47,-233.69 1147.06,-245.66 1128.33,-253.97"/>
<polygon fill="midnightblue" stroke="midnightblue" points="1243.99,-217.6 1252.99,-212 1242.47,-210.76 1243.99,-217.6"/>
</g>
</g>
</svg>
