<?xml version="1.0" encoding="UTF-8" standalone="no"?>
<!DOCTYPE svg PUBLIC "-//W3C//DTD SVG 1.1//EN"
 "http://www.w3.org/Graphics/SVG/1.1/DTD/svg11.dtd">
<!-- Generated by graphviz version 2.43.0 (0)
 -->
<!-- Title: CA_execute_cmd Pages: 1 -->
<svg width="1018pt" height="352pt"
 viewBox="0.00 0.00 1018.00 352.38" xmlns="http://www.w3.org/2000/svg" xmlns:xlink="http://www.w3.org/1999/xlink">
<g id="graph0" class="graph" transform="scale(1 1) rotate(0) translate(4 348.38)">
<title>CA_execute_cmd</title>
<polygon fill="white" stroke="transparent" points="-4,4 -4,-348.38 1014,-348.38 1014,4 -4,4"/>
<!-- Node1 -->
<g id="node1" class="node">
<title>Node1</title>
<g id="a_node1"><a xlink:title="コマンド実行の本体">
<polygon fill="#bfbfbf" stroke="black" points="0,-191.88 0,-210.88 100,-210.88 100,-191.88 0,-191.88"/>
<text text-anchor="middle" x="50" y="-198.88" font-family="Helvetica,sans-Serif" font-size="10.00">CA_execute_cmd</text>
</a>
</g>
</g>
<!-- Node2 -->
<g id="node2" class="node">
<title>Node2</title>
<g id="a_node2"><a xlink:href="command__analyze_8c.html#ae878a1a8ce00cc7468fbdd5bc5aba864" target="_top" xlink:title="コマンドパラメタ長をチェックする">
<polygon fill="white" stroke="black" points="136,-267.88 136,-286.88 282,-286.88 282,-267.88 136,-267.88"/>
<text text-anchor="middle" x="209" y="-274.88" font-family="Helvetica,sans-Serif" font-size="10.00">CA_ckeck_cmd_param_len</text>
</a>
</g>
</g>
<!-- Node1&#45;&gt;Node2 -->
<g id="edge1" class="edge">
<title>Node1&#45;&gt;Node2</title>
<path fill="none" stroke="midnightblue" d="M70.88,-211.01C98.25,-224.25 147.71,-248.19 179.14,-263.41"/>
<polygon fill="midnightblue" stroke="midnightblue" points="177.75,-266.63 188.28,-267.83 180.8,-260.33 177.75,-266.63"/>
</g>
<!-- Node9 -->
<g id="node9" class="node">
<title>Node9</title>
<g id="a_node9"><a xlink:href="common__tlm__cmd__packet_8h.html#aada6263b578341e6ef88174fbdfc5dd7" target="_top" xlink:title="CMD ID を取得">
<polygon fill="white" stroke="black" points="173.5,-210.88 173.5,-229.88 244.5,-229.88 244.5,-210.88 173.5,-210.88"/>
<text text-anchor="middle" x="209" y="-217.88" font-family="Helvetica,sans-Serif" font-size="10.00">CCP_get_id</text>
</a>
</g>
</g>
<!-- Node1&#45;&gt;Node9 -->
<g id="edge10" class="edge">
<title>Node1&#45;&gt;Node9</title>
<path fill="none" stroke="midnightblue" d="M100.25,-207.34C120.46,-209.79 143.7,-212.6 163.41,-214.98"/>
<polygon fill="midnightblue" stroke="midnightblue" points="163.01,-218.46 173.36,-216.19 163.85,-211.51 163.01,-218.46"/>
</g>
<!-- Node11 -->
<g id="node11" class="node">
<title>Node11</title>
<g id="a_node11"><a xlink:href="common__tlm__cmd__packet_8h.html#a38431270f66de04dc2e058d47635a084" target="_top" xlink:title="CMD パラメタ長を取得">
<polygon fill="white" stroke="black" points="152,-172.88 152,-191.88 266,-191.88 266,-172.88 152,-172.88"/>
<text text-anchor="middle" x="209" y="-179.88" font-family="Helvetica,sans-Serif" font-size="10.00">CCP_get_param_len</text>
</a>
</g>
</g>
<!-- Node1&#45;&gt;Node11 -->
<g id="edge12" class="edge">
<title>Node1&#45;&gt;Node11</title>
<path fill="none" stroke="midnightblue" d="M100.25,-195.42C113.42,-193.83 127.87,-192.08 141.79,-190.39"/>
<polygon fill="midnightblue" stroke="midnightblue" points="142.3,-193.86 151.81,-189.18 141.46,-186.91 142.3,-193.86"/>
</g>
<!-- Node13 -->
<g id="node13" class="node">
<title>Node13</title>
<g id="a_node13"><a xlink:href="event__logger_8c.html#a25a74a48375dfc1f3f80be68e0ac00ea" target="_top" xlink:title="イベント (EL_Event) を記録">
<polygon fill="white" stroke="black" points="160.5,-134.88 160.5,-153.88 257.5,-153.88 257.5,-134.88 160.5,-134.88"/>
<text text-anchor="middle" x="209" y="-141.88" font-family="Helvetica,sans-Serif" font-size="10.00">EL_record_event</text>
</a>
</g>
</g>
<!-- Node1&#45;&gt;Node13 -->
<g id="edge14" class="edge">
<title>Node1&#45;&gt;Node13</title>
<path fill="none" stroke="midnightblue" d="M69.88,-191.87C86.87,-183.58 112.68,-171.61 136,-163.38 142.87,-160.96 150.21,-158.68 157.47,-156.6"/>
<polygon fill="midnightblue" stroke="midnightblue" points="158.57,-159.93 167.28,-153.89 156.71,-153.18 158.57,-159.93"/>
</g>
<!-- Node3 -->
<g id="node3" class="node">
<title>Node3</title>
<g id="a_node3"><a xlink:href="command__analyze_8c.html#ac95557475d470f986e1eb46befbc2ae9" target="_top" xlink:title="最小コマンドパラメタ長を取得する">
<polygon fill="white" stroke="black" points="318,-324.88 318,-343.88 476,-343.88 476,-324.88 318,-324.88"/>
<text text-anchor="middle" x="397" y="-331.88" font-family="Helvetica,sans-Serif" font-size="10.00">CA_get_cmd_param_min_len</text>
</a>
</g>
</g>
<!-- Node2&#45;&gt;Node3 -->
<g id="edge2" class="edge">
<title>Node2&#45;&gt;Node3</title>
<path fill="none" stroke="midnightblue" d="M235.08,-287C256.82,-295.15 289.23,-306.84 318,-315.38 326.16,-317.8 334.87,-320.15 343.4,-322.33"/>
<polygon fill="midnightblue" stroke="midnightblue" points="342.74,-325.77 353.29,-324.79 344.43,-318.97 342.74,-325.77"/>
</g>
<!-- Node6 -->
<g id="node6" class="node">
<title>Node6</title>
<g id="a_node6"><a xlink:href="command__analyze_8c.html#a8b245c2a85084ae21588acd4deb3b3d6" target="_top" xlink:title="RAW パラメタを持っているか？">
<polygon fill="white" stroke="black" points="340.5,-286.88 340.5,-305.88 453.5,-305.88 453.5,-286.88 340.5,-286.88"/>
<text text-anchor="middle" x="397" y="-293.88" font-family="Helvetica,sans-Serif" font-size="10.00">CA_has_raw_param</text>
</a>
</g>
</g>
<!-- Node2&#45;&gt;Node6 -->
<g id="edge5" class="edge">
<title>Node2&#45;&gt;Node6</title>
<path fill="none" stroke="midnightblue" d="M282.18,-284.75C298.01,-286.37 314.69,-288.08 330.25,-289.66"/>
<polygon fill="midnightblue" stroke="midnightblue" points="330,-293.16 340.3,-290.69 330.71,-286.19 330,-293.16"/>
</g>
<!-- Node8 -->
<g id="node8" class="node">
<title>Node8</title>
<g id="a_node8"><a xlink:href="common__tlm__cmd__packet_8h.html#a0cb576a77e94553c22d9cb70a6fd50f1" target="_top" xlink:title="CMD パラメタ長の最大値を取得">
<polygon fill="white" stroke="black" points="326.5,-248.88 326.5,-267.88 467.5,-267.88 467.5,-248.88 326.5,-248.88"/>
<text text-anchor="middle" x="397" y="-255.88" font-family="Helvetica,sans-Serif" font-size="10.00">CCP_get_max_param_len</text>
</a>
</g>
</g>
<!-- Node2&#45;&gt;Node8 -->
<g id="edge9" class="edge">
<title>Node2&#45;&gt;Node8</title>
<path fill="none" stroke="midnightblue" d="M282.18,-270.01C293.28,-268.87 304.8,-267.7 316.06,-266.55"/>
<polygon fill="midnightblue" stroke="midnightblue" points="316.71,-270 326.31,-265.5 316,-263.03 316.71,-270"/>
</g>
<!-- Node4 -->
<g id="node4" class="node">
<title>Node4</title>
<g id="a_node4"><a xlink:href="command__analyze_8c.html#a464f3aa16753a76bc5093100542a361a" target="_top" xlink:title="コマンドパラメタサイズを取得する">
<polygon fill="white" stroke="black" points="513,-324.88 513,-343.88 652,-343.88 652,-324.88 513,-324.88"/>
<text text-anchor="middle" x="582.5" y="-331.88" font-family="Helvetica,sans-Serif" font-size="10.00">CA_get_cmd_param_size</text>
</a>
</g>
</g>
<!-- Node3&#45;&gt;Node4 -->
<g id="edge3" class="edge">
<title>Node3&#45;&gt;Node4</title>
<path fill="none" stroke="midnightblue" d="M476.09,-334.38C484.85,-334.38 493.78,-334.38 502.56,-334.38"/>
<polygon fill="midnightblue" stroke="midnightblue" points="502.77,-337.88 512.77,-334.38 502.77,-330.88 502.77,-337.88"/>
</g>
<!-- Node5 -->
<g id="node5" class="node">
<title>Node5</title>
<g id="a_node5"><a xlink:href="command__analyze_8c.html#aa312aeadf3ce336a10385fe14e22f77c" target="_top" xlink:title="コマンドパラメタのサイズ情報を取得">
<polygon fill="white" stroke="black" points="689,-286.88 689,-305.88 834,-305.88 834,-286.88 689,-286.88"/>
<text text-anchor="middle" x="761.5" y="-293.88" font-family="Helvetica,sans-Serif" font-size="10.00">CA_get_param_size_type_</text>
</a>
</g>
</g>
<!-- Node4&#45;&gt;Node5 -->
<g id="edge4" class="edge">
<title>Node4&#45;&gt;Node5</title>
<path fill="none" stroke="midnightblue" d="M628.16,-324.79C651.84,-319.71 681.11,-313.43 706.1,-308.06"/>
<polygon fill="midnightblue" stroke="midnightblue" points="707.11,-311.42 716.16,-305.9 705.64,-304.58 707.11,-311.42"/>
</g>
<!-- Node6&#45;&gt;Node5 -->
<g id="edge8" class="edge">
<title>Node6&#45;&gt;Node5</title>
<path fill="none" stroke="midnightblue" d="M453.85,-296.38C513.92,-296.38 610.04,-296.38 678.65,-296.38"/>
<polygon fill="midnightblue" stroke="midnightblue" points="678.99,-299.88 688.99,-296.38 678.99,-292.88 678.99,-299.88"/>
</g>
<!-- Node7 -->
<g id="node7" class="node">
<title>Node7</title>
<g id="a_node7"><a xlink:href="command__analyze_8c.html#a170772c49fb7883a382a30bd38485a6e" target="_top" xlink:title="コマンドパラメタ数を取得する">
<polygon fill="white" stroke="black" points="512,-248.88 512,-267.88 653,-267.88 653,-248.88 512,-248.88"/>
<text text-anchor="middle" x="582.5" y="-255.88" font-family="Helvetica,sans-Serif" font-size="10.00">CA_get_cmd_param_num</text>
</a>
</g>
</g>
<!-- Node6&#45;&gt;Node7 -->
<g id="edge6" class="edge">
<title>Node6&#45;&gt;Node7</title>
<path fill="none" stroke="midnightblue" d="M444.3,-286.79C468.96,-281.69 499.46,-275.37 525.44,-269.99"/>
<polygon fill="midnightblue" stroke="midnightblue" points="526.45,-273.36 535.53,-267.9 525.03,-266.5 526.45,-273.36"/>
</g>
<!-- Node7&#45;&gt;Node5 -->
<g id="edge7" class="edge">
<title>Node7&#45;&gt;Node5</title>
<path fill="none" stroke="midnightblue" d="M628.16,-267.97C651.84,-273.05 681.11,-279.34 706.1,-284.7"/>
<polygon fill="midnightblue" stroke="midnightblue" points="705.64,-288.18 716.16,-286.86 707.11,-281.34 705.64,-288.18"/>
</g>
<!-- Node10 -->
<g id="node10" class="node">
<title>Node10</title>
<g id="a_node10"><a xlink:href="_t_c_packet_8c.html#a39f967d198c8041c0e07b8b356b23f83" target="_top" xlink:title="channel ID を取得">
<polygon fill="white" stroke="black" points="326,-210.88 326,-229.88 468,-229.88 468,-210.88 326,-210.88"/>
<text text-anchor="middle" x="397" y="-217.88" font-family="Helvetica,sans-Serif" font-size="10.00">TCP_CMD_get_channel_id</text>
</a>
</g>
</g>
<!-- Node9&#45;&gt;Node10 -->
<g id="edge11" class="edge">
<title>Node9&#45;&gt;Node10</title>
<path fill="none" stroke="midnightblue" d="M244.55,-220.38C264.59,-220.38 290.71,-220.38 315.61,-220.38"/>
<polygon fill="midnightblue" stroke="midnightblue" points="315.81,-223.88 325.81,-220.38 315.81,-216.88 315.81,-223.88"/>
</g>
<!-- Node12 -->
<g id="node12" class="node">
<title>Node12</title>
<g id="a_node12"><a xlink:href="_t_c_packet_8c.html#a4088b7a1b29268cecc23866a45238fd6" target="_top" xlink:title="Packet Length を取得">
<polygon fill="white" stroke="black" points="340.5,-172.88 340.5,-191.88 453.5,-191.88 453.5,-172.88 340.5,-172.88"/>
<text text-anchor="middle" x="397" y="-179.88" font-family="Helvetica,sans-Serif" font-size="10.00">TCP_get_packet_len</text>
</a>
</g>
</g>
<!-- Node11&#45;&gt;Node12 -->
<g id="edge13" class="edge">
<title>Node11&#45;&gt;Node12</title>
<path fill="none" stroke="midnightblue" d="M266.06,-182.38C286.28,-182.38 309.29,-182.38 330.26,-182.38"/>
<polygon fill="midnightblue" stroke="midnightblue" points="330.38,-185.88 340.38,-182.38 330.38,-178.88 330.38,-185.88"/>
</g>
<!-- Node14 -->
<g id="node14" class="node">
<title>Node14</title>
<g id="a_node14"><a xlink:href="event__logger_8c.html#a80a1b60c587d1e3402b02e3bde1db899" target="_top" xlink:title="イベント (EL_Event) を記録">
<polygon fill="white" stroke="black" points="346,-134.88 346,-153.88 448,-153.88 448,-134.88 346,-134.88"/>
<text text-anchor="middle" x="397" y="-141.88" font-family="Helvetica,sans-Serif" font-size="10.00">EL_record_event_</text>
</a>
</g>
</g>
<!-- Node13&#45;&gt;Node14 -->
<g id="edge15" class="edge">
<title>Node13&#45;&gt;Node14</title>
<path fill="none" stroke="midnightblue" d="M257.9,-144.38C281.65,-144.38 310.57,-144.38 335.79,-144.38"/>
<polygon fill="midnightblue" stroke="midnightblue" points="335.99,-147.88 345.99,-144.38 335.99,-140.88 335.99,-147.88"/>
</g>
<!-- Node15 -->
<g id="node15" class="node">
<title>Node15</title>
<g id="a_node15"><a xlink:href="event__logger_8c.html#aeae14f21b4e29006f709a61e7de52d67" target="_top" xlink:title="TLog の wp をチェックし， event を生成する">
<polygon fill="white" stroke="black" points="527.5,-210.88 527.5,-229.88 637.5,-229.88 637.5,-210.88 527.5,-210.88"/>
<text text-anchor="middle" x="582.5" y="-217.88" font-family="Helvetica,sans-Serif" font-size="10.00">EL_check_tlog_wp_</text>
</a>
</g>
</g>
<!-- Node14&#45;&gt;Node15 -->
<g id="edge16" class="edge">
<title>Node14&#45;&gt;Node15</title>
<path fill="none" stroke="midnightblue" d="M448.33,-143.33C457.91,-145.85 467.56,-149.49 476,-154.38 496.12,-166.05 492.04,-180.43 512,-192.38 524.45,-199.84 539.88,-204.44 553.04,-208.07"/>
<polygon fill="midnightblue" stroke="midnightblue" points="552.44,-211.54 563.01,-210.82 554.3,-204.79 552.44,-211.54"/>
</g>
<!-- Node16 -->
<g id="node16" class="node">
<title>Node16</title>
<g id="a_node16"><a xlink:href="event__logger_8c.html#a0b42c2f5d1eafdad83481ec6e63365e2" target="_top" xlink:title="イベント (EL_Event) を初期化">
<polygon fill="white" stroke="black" points="539,-172.88 539,-191.88 626,-191.88 626,-172.88 539,-172.88"/>
<text text-anchor="middle" x="582.5" y="-179.88" font-family="Helvetica,sans-Serif" font-size="10.00">EL_init_event_</text>
</a>
</g>
</g>
<!-- Node14&#45;&gt;Node16 -->
<g id="edge18" class="edge">
<title>Node14&#45;&gt;Node16</title>
<path fill="none" stroke="midnightblue" d="M444.3,-153.97C470.1,-159.31 502.31,-165.98 529.03,-171.52"/>
<polygon fill="midnightblue" stroke="midnightblue" points="528.48,-174.98 538.98,-173.58 529.9,-168.12 528.48,-174.98"/>
</g>
<!-- Node19 -->
<g id="node19" class="node">
<title>Node19</title>
<g id="a_node19"><a xlink:href="event__logger_8c.html#a50ba2fe43a96f7351951a4109227ba6f" target="_top" xlink:title="event_logger の EL_Event.group が有効か？">
<polygon fill="white" stroke="black" points="522,-134.88 522,-153.88 643,-153.88 643,-134.88 522,-134.88"/>
<text text-anchor="middle" x="582.5" y="-141.88" font-family="Helvetica,sans-Serif" font-size="10.00">EL_is_logging_enable</text>
</a>
</g>
</g>
<!-- Node14&#45;&gt;Node19 -->
<g id="edge21" class="edge">
<title>Node14&#45;&gt;Node19</title>
<path fill="none" stroke="midnightblue" d="M448.14,-144.38C467.75,-144.38 490.57,-144.38 511.74,-144.38"/>
<polygon fill="midnightblue" stroke="midnightblue" points="511.97,-147.88 521.97,-144.38 511.97,-140.88 511.97,-147.88"/>
</g>
<!-- Node20 -->
<g id="node20" class="node">
<title>Node20</title>
<g id="a_node20"><a xlink:href="event__logger_8c.html#a69fb9dbc85ad467d048f1c9f31d2442c" target="_top" xlink:title="イベント (EL_Event) を CLog に記録">
<polygon fill="white" stroke="black" points="526.5,-85.38 526.5,-115.38 638.5,-115.38 638.5,-85.38 526.5,-85.38"/>
<text text-anchor="start" x="534.5" y="-103.38" font-family="Helvetica,sans-Serif" font-size="10.00">EL_record_event_to</text>
<text text-anchor="middle" x="582.5" y="-92.38" font-family="Helvetica,sans-Serif" font-size="10.00">_clog_</text>
</a>
</g>
</g>
<!-- Node14&#45;&gt;Node20 -->
<g id="edge22" class="edge">
<title>Node14&#45;&gt;Node20</title>
<path fill="none" stroke="midnightblue" d="M437.82,-134.83C460.81,-129.32 490.29,-122.25 516.56,-115.95"/>
<polygon fill="midnightblue" stroke="midnightblue" points="517.54,-119.32 526.45,-113.58 515.91,-112.51 517.54,-119.32"/>
</g>
<!-- Node25 -->
<g id="node25" class="node">
<title>Node25</title>
<g id="a_node25"><a xlink:href="event__logger_8c.html#a93cb3659efd373de0856c92b3c08896a" target="_top" xlink:title="イベント (EL_Event) を TLog に記録">
<polygon fill="white" stroke="black" points="526.5,-36.38 526.5,-66.38 638.5,-66.38 638.5,-36.38 526.5,-36.38"/>
<text text-anchor="start" x="534.5" y="-54.38" font-family="Helvetica,sans-Serif" font-size="10.00">EL_record_event_to</text>
<text text-anchor="middle" x="582.5" y="-43.38" font-family="Helvetica,sans-Serif" font-size="10.00">_tlog_</text>
</a>
</g>
</g>
<!-- Node14&#45;&gt;Node25 -->
<g id="edge28" class="edge">
<title>Node14&#45;&gt;Node25</title>
<path fill="none" stroke="midnightblue" d="M412.26,-134.65C433.37,-120.52 474.5,-94.11 512,-76.38 516.59,-74.21 521.43,-72.11 526.32,-70.12"/>
<polygon fill="midnightblue" stroke="midnightblue" points="527.72,-73.33 535.75,-66.42 525.16,-66.81 527.72,-73.33"/>
</g>
<!-- Node15&#45;&gt;Node14 -->
<g id="edge17" class="edge">
<title>Node15&#45;&gt;Node14</title>
<path fill="none" stroke="midnightblue" d="M527.17,-217.64C521.87,-215.63 516.72,-213.21 512,-210.38 492.04,-198.43 496.12,-184.05 476,-172.38 462.22,-164.39 445.21,-159.75 430.59,-156.25"/>
<polygon fill="midnightblue" stroke="midnightblue" points="430.98,-152.75 420.44,-153.88 429.38,-159.57 430.98,-152.75"/>
</g>
<!-- Node17 -->
<g id="node17" class="node">
<title>Node17</title>
<g id="a_node17"><a xlink:href="time__manager_8c.html#a9d04b4d9b622cbe5a90cf65e58b828bc" target="_top" xlink:title=" ">
<polygon fill="white" stroke="black" points="693,-173.88 693,-192.88 830,-192.88 830,-173.88 693,-173.88"/>
<text text-anchor="middle" x="761.5" y="-180.88" font-family="Helvetica,sans-Serif" font-size="10.00">TMGR_get_master_clock</text>
</a>
</g>
</g>
<!-- Node16&#45;&gt;Node17 -->
<g id="edge19" class="edge">
<title>Node16&#45;&gt;Node17</title>
<path fill="none" stroke="midnightblue" d="M626.35,-182.62C643.34,-182.72 663.42,-182.83 682.8,-182.94"/>
<polygon fill="midnightblue" stroke="midnightblue" points="682.83,-186.44 692.85,-183 682.87,-179.44 682.83,-186.44"/>
</g>
<!-- Node18 -->
<g id="node18" class="node">
<title>Node18</title>
<g id="a_node18"><a xlink:href="obc__time_8c.html#a70416835a40bdacbb04f6f06b1e6d1e1" target="_top" xlink:title=" ">
<polygon fill="white" stroke="black" points="900,-173.88 900,-192.88 980,-192.88 980,-173.88 900,-173.88"/>
<text text-anchor="middle" x="940" y="-180.88" font-family="Helvetica,sans-Serif" font-size="10.00">OBCT_create</text>
</a>
</g>
</g>
<!-- Node17&#45;&gt;Node18 -->
<g id="edge20" class="edge">
<title>Node17&#45;&gt;Node18</title>
<path fill="none" stroke="midnightblue" d="M830.23,-183.38C849.99,-183.38 871.2,-183.38 889.6,-183.38"/>
<polygon fill="midnightblue" stroke="midnightblue" points="889.79,-186.88 899.79,-183.38 889.79,-179.88 889.79,-186.88"/>
</g>
<!-- Node21 -->
<g id="node21" class="node">
<title>Node21</title>
<g id="a_node21"><a xlink:href="event__logger_8c.html#a605a3ff223ddae8830c09ff5aa57cc94" target="_top" xlink:title="該当イベントの CLog を，イベントテーブルの先頭に出す">
<polygon fill="white" stroke="black" points="702,-124.38 702,-154.38 821,-154.38 821,-124.38 702,-124.38"/>
<text text-anchor="start" x="710" y="-142.38" font-family="Helvetica,sans-Serif" font-size="10.00">EL_move_to_front_in</text>
<text text-anchor="middle" x="761.5" y="-131.38" font-family="Helvetica,sans-Serif" font-size="10.00">_clog_</text>
</a>
</g>
</g>
<!-- Node20&#45;&gt;Node21 -->
<g id="edge23" class="edge">
<title>Node20&#45;&gt;Node21</title>
<path fill="none" stroke="midnightblue" d="M638.53,-112.51C655.33,-116.21 674.01,-120.32 691.61,-124.2"/>
<polygon fill="midnightblue" stroke="midnightblue" points="691.3,-127.72 701.82,-126.45 692.81,-120.88 691.3,-127.72"/>
</g>
<!-- Node24 -->
<g id="node24" class="node">
<title>Node24</title>
<g id="a_node24"><a xlink:href="obc__time_8c.html#a02512f745375636ab21f468838587942" target="_top" xlink:title=" ">
<polygon fill="white" stroke="black" points="729,-85.88 729,-104.88 794,-104.88 794,-85.88 729,-85.88"/>
<text text-anchor="middle" x="761.5" y="-92.88" font-family="Helvetica,sans-Serif" font-size="10.00">OBCT_diff</text>
</a>
</g>
</g>
<!-- Node20&#45;&gt;Node24 -->
<g id="edge27" class="edge">
<title>Node20&#45;&gt;Node24</title>
<path fill="none" stroke="midnightblue" d="M638.53,-98.83C664.43,-98.09 694.82,-97.24 718.78,-96.56"/>
<polygon fill="midnightblue" stroke="midnightblue" points="719.07,-100.05 728.97,-96.27 718.87,-93.06 719.07,-100.05"/>
</g>
<!-- Node22 -->
<g id="node22" class="node">
<title>Node22</title>
<g id="a_node22"><a xlink:href="event__logger_8c.html#a60dac03ee61b8b3fb3ac6335babb7209" target="_top" xlink:title="イベントテーブル先頭に該当イベントの CLog をつくる">
<polygon fill="white" stroke="black" points="870,-44.88 870,-63.88 1010,-63.88 1010,-44.88 870,-44.88"/>
<text text-anchor="middle" x="940" y="-51.88" font-family="Helvetica,sans-Serif" font-size="10.00">EL_create_clog_on_front_</text>
</a>
</g>
</g>
<!-- Node21&#45;&gt;Node22 -->
<g id="edge24" class="edge">
<title>Node21&#45;&gt;Node22</title>
<path fill="none" stroke="midnightblue" d="M809.52,-124.32C817.79,-121.28 826.22,-117.93 834,-114.38 863.12,-101.1 894.79,-82.36 915.65,-69.37"/>
<polygon fill="midnightblue" stroke="midnightblue" points="917.56,-72.31 924.16,-64.02 913.83,-66.39 917.56,-72.31"/>
</g>
<!-- Node23 -->
<g id="node23" class="node">
<title>Node23</title>
<g id="a_node23"><a xlink:href="event__logger_8c.html#a987cce8c848158cc3038bb59dc100de3" target="_top" xlink:title="該当イベントの CLog を検索し取得する">
<polygon fill="white" stroke="black" points="892,-129.88 892,-148.88 988,-148.88 988,-129.88 892,-129.88"/>
<text text-anchor="middle" x="940" y="-136.88" font-family="Helvetica,sans-Serif" font-size="10.00">EL_search_clog_</text>
</a>
</g>
</g>
<!-- Node21&#45;&gt;Node23 -->
<g id="edge26" class="edge">
<title>Node21&#45;&gt;Node23</title>
<path fill="none" stroke="midnightblue" d="M821.27,-139.38C840.74,-139.38 862.37,-139.38 881.72,-139.38"/>
<polygon fill="midnightblue" stroke="midnightblue" points="881.91,-142.88 891.91,-139.38 881.91,-135.88 881.91,-142.88"/>
</g>
<!-- Node22&#45;&gt;Node14 -->
<g id="edge25" class="edge">
<title>Node22&#45;&gt;Node14</title>
<path fill="none" stroke="midnightblue" d="M912.38,-44.8C843.1,-21.5 652.81,32.02 512,-27.38 464.32,-47.5 426.69,-98.38 409.01,-125.95"/>
<polygon fill="midnightblue" stroke="midnightblue" points="405.91,-124.3 403.6,-134.64 411.86,-128 405.91,-124.3"/>
</g>
<!-- Node26 -->
<g id="node26" class="node">
<title>Node26</title>
<g id="a_node26"><a xlink:href="event__logger_8c.html#af088469f27d5dfca608a9cacee9fbc17" target="_top" xlink:title="TLog のイベントテーブルの上書きが有効か？">
<polygon fill="white" stroke="black" points="703,-36.38 703,-66.38 820,-66.38 820,-36.38 703,-36.38"/>
<text text-anchor="start" x="711" y="-54.38" font-family="Helvetica,sans-Serif" font-size="10.00">EL_is_tlog_overwrite</text>
<text text-anchor="middle" x="761.5" y="-43.38" font-family="Helvetica,sans-Serif" font-size="10.00">_enable</text>
</a>
</g>
</g>
<!-- Node25&#45;&gt;Node26 -->
<g id="edge29" class="edge">
<title>Node25&#45;&gt;Node26</title>
<path fill="none" stroke="midnightblue" d="M638.53,-51.38C655.66,-51.38 674.76,-51.38 692.66,-51.38"/>
<polygon fill="midnightblue" stroke="midnightblue" points="692.74,-54.88 702.74,-51.38 692.74,-47.88 692.74,-54.88"/>
</g>
</g>
</svg>
