<?xml version="1.0" encoding="UTF-8" standalone="no"?>
<!DOCTYPE svg PUBLIC "-//W3C//DTD SVG 1.1//EN"
 "http://www.w3.org/Graphics/SVG/1.1/DTD/svg11.dtd">
<!-- Generated by graphviz version 2.43.0 (0)
 -->
<!-- Title: APP_DBG_print_cmd_status_ Pages: 1 -->
<svg width="424pt" height="104pt"
 viewBox="0.00 0.00 424.00 104.00" xmlns="http://www.w3.org/2000/svg" xmlns:xlink="http://www.w3.org/1999/xlink">
<g id="graph0" class="graph" transform="scale(1 1) rotate(0) translate(4 100)">
<title>APP_DBG_print_cmd_status_</title>
<polygon fill="white" stroke="transparent" points="-4,4 -4,-100 420,-100 420,4 -4,4"/>
<!-- Node1 -->
<g id="node1" class="node">
<title>Node1</title>
<g id="a_node1"><a xlink:title=" ">
<polygon fill="#bfbfbf" stroke="black" points="0,-38.5 0,-57.5 157,-57.5 157,-38.5 0,-38.5"/>
<text text-anchor="middle" x="78.5" y="-45.5" font-family="Helvetica,sans-Serif" font-size="10.00">APP_DBG_print_cmd_status_</text>
</a>
</g>
</g>
<!-- Node2 -->
<g id="node2" class="node">
<title>Node2</title>
<g id="a_node2"><a xlink:href="packet__list_8c.html#acd903b77e7c86ec54da1f8f06599fffa" target="_top" xlink:title="PacketList で実行された Node 数を返す">
<polygon fill="white" stroke="black" points="193,-76.5 193,-95.5 337,-95.5 337,-76.5 193,-76.5"/>
<text text-anchor="middle" x="265" y="-83.5" font-family="Helvetica,sans-Serif" font-size="10.00">PL_count_executed_nodes</text>
</a>
</g>
</g>
<!-- Node1&#45;&gt;Node2 -->
<g id="edge1" class="edge">
<title>Node1&#45;&gt;Node2</title>
<path fill="none" stroke="midnightblue" d="M126.06,-57.59C150.84,-62.69 181.52,-69.01 207.64,-74.39"/>
<polygon fill="midnightblue" stroke="midnightblue" points="207.28,-77.89 217.78,-76.48 208.69,-71.03 207.28,-77.89"/>
</g>
<!-- Node3 -->
<g id="node3" class="node">
<title>Node3</title>
<g id="a_node3"><a xlink:href="src__core_2_library_2print_8c.html#a4bc499fc724de87725ee7dc60ed1d106" target="_top" xlink:title=" ">
<polygon fill="white" stroke="black" points="373,-19.5 373,-38.5 416,-38.5 416,-19.5 373,-19.5"/>
<text text-anchor="middle" x="394.5" y="-26.5" font-family="Helvetica,sans-Serif" font-size="10.00">Printf</text>
</a>
</g>
</g>
<!-- Node1&#45;&gt;Node3 -->
<g id="edge2" class="edge">
<title>Node1&#45;&gt;Node3</title>
<path fill="none" stroke="midnightblue" d="M157.12,-43.3C223.33,-39.3 315.11,-33.74 362.47,-30.88"/>
<polygon fill="midnightblue" stroke="midnightblue" points="362.92,-34.36 372.69,-30.26 362.5,-27.37 362.92,-34.36"/>
</g>
<!-- Node4 -->
<g id="node4" class="node">
<title>Node4</title>
<g id="a_node4"><a xlink:href="vt100_8c.html#a163b2dc2ab211cce8bd25edb61369302" target="_top" xlink:title=" ">
<polygon fill="white" stroke="black" points="213.5,-0.5 213.5,-19.5 316.5,-19.5 316.5,-0.5 213.5,-0.5"/>
<text text-anchor="middle" x="265" y="-7.5" font-family="Helvetica,sans-Serif" font-size="10.00">VT100_erase_line</text>
</a>
</g>
</g>
<!-- Node1&#45;&gt;Node4 -->
<g id="edge3" class="edge">
<title>Node1&#45;&gt;Node4</title>
<path fill="none" stroke="midnightblue" d="M126.06,-38.41C150.84,-33.31 181.52,-26.99 207.64,-21.61"/>
<polygon fill="midnightblue" stroke="midnightblue" points="208.69,-24.97 217.78,-19.52 207.28,-18.11 208.69,-24.97"/>
</g>
<!-- Node4&#45;&gt;Node3 -->
<g id="edge4" class="edge">
<title>Node4&#45;&gt;Node3</title>
<path fill="none" stroke="midnightblue" d="M316.76,-17.56C332.36,-19.89 349.05,-22.38 362.87,-24.44"/>
<polygon fill="midnightblue" stroke="midnightblue" points="362.4,-27.9 372.81,-25.92 363.44,-20.98 362.4,-27.9"/>
</g>
</g>
</svg>
