<?xml version="1.0" encoding="UTF-8" standalone="no"?>
<!DOCTYPE svg PUBLIC "-//W3C//DTD SVG 1.1//EN"
 "http://www.w3.org/Graphics/SVG/1.1/DTD/svg11.dtd">
<!-- Generated by graphviz version 2.43.0 (0)
 -->
<!-- Title: APP_DBG_flush_screen_ Pages: 1 -->
<svg width="370pt" height="122pt"
 viewBox="0.00 0.00 370.00 122.19" xmlns="http://www.w3.org/2000/svg" xmlns:xlink="http://www.w3.org/1999/xlink">
<g id="graph0" class="graph" transform="scale(1 1) rotate(0) translate(4 118.19)">
<title>APP_DBG_flush_screen_</title>
<polygon fill="white" stroke="transparent" points="-4,4 -4,-118.19 366,-118.19 366,4 -4,4"/>
<!-- Node1 -->
<g id="node1" class="node">
<title>Node1</title>
<g id="a_node1"><a xlink:title=" ">
<polygon fill="#bfbfbf" stroke="black" points="0,-57.5 0,-76.5 134,-76.5 134,-57.5 0,-57.5"/>
<text text-anchor="middle" x="67" y="-64.5" font-family="Helvetica,sans-Serif" font-size="10.00">APP_DBG_flush_screen_</text>
</a>
</g>
</g>
<!-- Node2 -->
<g id="node2" class="node">
<title>Node2</title>
<g id="a_node2"><a xlink:href="src__core_2_library_2print_8c.html#a4bc499fc724de87725ee7dc60ed1d106" target="_top" xlink:title=" ">
<polygon fill="white" stroke="black" points="319,-57.5 319,-76.5 362,-76.5 362,-57.5 319,-57.5"/>
<text text-anchor="middle" x="340.5" y="-64.5" font-family="Helvetica,sans-Serif" font-size="10.00">Printf</text>
</a>
</g>
</g>
<!-- Node1&#45;&gt;Node2 -->
<g id="edge1" class="edge">
<title>Node1&#45;&gt;Node2</title>
<path fill="none" stroke="midnightblue" d="M87.34,-76.59C107.43,-85.97 140.06,-99.6 170,-105 219.43,-113.91 234.96,-119.65 283,-105 297.13,-100.69 310.94,-91.53 321.36,-83.28"/>
<polygon fill="midnightblue" stroke="midnightblue" points="323.82,-85.79 329.26,-76.7 319.33,-80.41 323.82,-85.79"/>
</g>
<!-- Node3 -->
<g id="node3" class="node">
<title>Node3</title>
<g id="a_node3"><a xlink:href="_v_t100_8c.html#acec41474080025b75a039ecb0942a4d0" target="_top" xlink:title=" ">
<polygon fill="white" stroke="black" points="171,-76.5 171,-95.5 282,-95.5 282,-76.5 171,-76.5"/>
<text text-anchor="middle" x="226.5" y="-83.5" font-family="Helvetica,sans-Serif" font-size="10.00">VT100_erase_down</text>
</a>
</g>
</g>
<!-- Node1&#45;&gt;Node3 -->
<g id="edge2" class="edge">
<title>Node1&#45;&gt;Node3</title>
<path fill="none" stroke="midnightblue" d="M134.34,-75C143.04,-76.05 151.95,-77.13 160.62,-78.17"/>
<polygon fill="midnightblue" stroke="midnightblue" points="160.33,-81.66 170.68,-79.39 161.17,-74.71 160.33,-81.66"/>
</g>
<!-- Node4 -->
<g id="node4" class="node">
<title>Node4</title>
<g id="a_node4"><a xlink:href="_v_t100_8c.html#a163b2dc2ab211cce8bd25edb61369302" target="_top" xlink:title=" ">
<polygon fill="white" stroke="black" points="175,-38.5 175,-57.5 278,-57.5 278,-38.5 175,-38.5"/>
<text text-anchor="middle" x="226.5" y="-45.5" font-family="Helvetica,sans-Serif" font-size="10.00">VT100_erase_line</text>
</a>
</g>
</g>
<!-- Node1&#45;&gt;Node4 -->
<g id="edge4" class="edge">
<title>Node1&#45;&gt;Node4</title>
<path fill="none" stroke="midnightblue" d="M134.34,-59C144.32,-57.79 154.58,-56.56 164.44,-55.37"/>
<polygon fill="midnightblue" stroke="midnightblue" points="165.05,-58.82 174.55,-54.15 164.21,-51.87 165.05,-58.82"/>
</g>
<!-- Node5 -->
<g id="node5" class="node">
<title>Node5</title>
<g id="a_node5"><a xlink:href="_v_t100_8c.html#a9ea69f5885bf43fe6e80a6b132144f22" target="_top" xlink:title=" ">
<polygon fill="white" stroke="black" points="170,-0.5 170,-19.5 283,-19.5 283,-0.5 170,-0.5"/>
<text text-anchor="middle" x="226.5" y="-7.5" font-family="Helvetica,sans-Serif" font-size="10.00">VT100_reset_cursor</text>
</a>
</g>
</g>
<!-- Node1&#45;&gt;Node5 -->
<g id="edge6" class="edge">
<title>Node1&#45;&gt;Node5</title>
<path fill="none" stroke="midnightblue" d="M93.08,-57.44C113.69,-49.64 143.66,-38.41 170,-29 175.65,-26.98 181.64,-24.88 187.52,-22.85"/>
<polygon fill="midnightblue" stroke="midnightblue" points="188.89,-26.08 197.21,-19.52 186.62,-19.46 188.89,-26.08"/>
</g>
<!-- Node3&#45;&gt;Node2 -->
<g id="edge3" class="edge">
<title>Node3&#45;&gt;Node2</title>
<path fill="none" stroke="midnightblue" d="M282.19,-76.72C291.4,-75.16 300.66,-73.59 308.97,-72.18"/>
<polygon fill="midnightblue" stroke="midnightblue" points="309.64,-75.62 318.92,-70.49 308.47,-68.71 309.64,-75.62"/>
</g>
<!-- Node4&#45;&gt;Node2 -->
<g id="edge5" class="edge">
<title>Node4&#45;&gt;Node2</title>
<path fill="none" stroke="midnightblue" d="M278.26,-56.61C288.69,-58.38 299.36,-60.19 308.81,-61.79"/>
<polygon fill="midnightblue" stroke="midnightblue" points="308.45,-65.28 318.89,-63.5 309.62,-58.38 308.45,-65.28"/>
</g>
<!-- Node5&#45;&gt;Node2 -->
<g id="edge7" class="edge">
<title>Node5&#45;&gt;Node2</title>
<path fill="none" stroke="midnightblue" d="M260.07,-19.56C267.75,-22.24 275.79,-25.42 283,-29 295.45,-35.18 308.38,-43.7 318.72,-51.1"/>
<polygon fill="midnightblue" stroke="midnightblue" points="316.94,-54.14 327.07,-57.24 321.08,-48.5 316.94,-54.14"/>
</g>
</g>
</svg>
