<?xml version="1.0" encoding="UTF-8" standalone="no"?>
<!DOCTYPE svg PUBLIC "-//W3C//DTD SVG 1.1//EN"
 "http://www.w3.org/Graphics/SVG/1.1/DTD/svg11.dtd">
<!-- Generated by graphviz version 2.43.0 (0)
 -->
<!-- Title: DI_AOBC_dispatch_command Pages: 1 -->
<svg width="1685pt" height="651pt"
 viewBox="0.00 0.00 1685.00 650.50" xmlns="http://www.w3.org/2000/svg" xmlns:xlink="http://www.w3.org/1999/xlink">
<g id="graph0" class="graph" transform="scale(1 1) rotate(0) translate(4 646.5)">
<title>DI_AOBC_dispatch_command</title>
<polygon fill="white" stroke="transparent" points="-4,4 -4,-646.5 1681,-646.5 1681,4 -4,4"/>
<!-- Node1 -->
<g id="node1" class="node">
<title>Node1</title>
<g id="a_node1"><a xlink:title="CommonCmdPacket を AOBC に送信する">
<polygon fill="#bfbfbf" stroke="black" points="0,-88 0,-107 161,-107 161,-88 0,-88"/>
<text text-anchor="middle" x="80.5" y="-95" font-family="Helvetica,sans-Serif" font-size="10.00">DI_AOBC_dispatch_command</text>
</a>
</g>
</g>
<!-- Node2 -->
<g id="node2" class="node">
<title>Node2</title>
<g id="a_node2"><a xlink:href="aobc_8c.html#a21bc4dfcbc36f4c3db4c9f59cd020414" target="_top" xlink:title="AOBC へのコマンド送信">
<polygon fill="white" stroke="black" points="207,-307 207,-326 306,-326 306,-307 207,-307"/>
<text text-anchor="middle" x="256.5" y="-314" font-family="Helvetica,sans-Serif" font-size="10.00">AOBC_send_cmd</text>
</a>
</g>
</g>
<!-- Node1&#45;&gt;Node2 -->
<g id="edge1" class="edge">
<title>Node1&#45;&gt;Node2</title>
<path fill="none" stroke="midnightblue" d="M89.2,-107.19C116.15,-141.11 206.48,-254.81 241.48,-298.86"/>
<polygon fill="midnightblue" stroke="midnightblue" points="238.93,-301.27 247.89,-306.92 244.41,-296.91 238.93,-301.27"/>
</g>
<!-- Node27 -->
<g id="node27" class="node">
<title>Node27</title>
<g id="a_node27"><a xlink:href="common__cmd__packet_8h.html#a120a6ef1fee069ab4c4013da8539e0eb" target="_top" xlink:title="DEST_TYPE を取得">
<polygon fill="white" stroke="black" points="201.5,-126 201.5,-145 311.5,-145 311.5,-126 201.5,-126"/>
<text text-anchor="middle" x="256.5" y="-133" font-family="Helvetica,sans-Serif" font-size="10.00">CCP_get_dest_type</text>
</a>
</g>
</g>
<!-- Node1&#45;&gt;Node27 -->
<g id="edge32" class="edge">
<title>Node1&#45;&gt;Node27</title>
<path fill="none" stroke="midnightblue" d="M125.41,-107.09C148.68,-112.17 177.45,-118.46 202.02,-123.82"/>
<polygon fill="midnightblue" stroke="midnightblue" points="201.39,-127.27 211.91,-125.98 202.89,-120.43 201.39,-127.27"/>
</g>
<!-- Node30 -->
<g id="node30" class="node">
<title>Node30</title>
<g id="a_node30"><a xlink:href="common__cmd__packet_8h.html#a6ce61d959627cd955de389b10cadca90" target="_top" xlink:title="DEST_TYPE を設定">
<polygon fill="white" stroke="black" points="201.5,-88 201.5,-107 311.5,-107 311.5,-88 201.5,-88"/>
<text text-anchor="middle" x="256.5" y="-95" font-family="Helvetica,sans-Serif" font-size="10.00">CCP_set_dest_type</text>
</a>
</g>
</g>
<!-- Node1&#45;&gt;Node30 -->
<g id="edge36" class="edge">
<title>Node1&#45;&gt;Node30</title>
<path fill="none" stroke="midnightblue" d="M161.12,-97.5C171.21,-97.5 181.44,-97.5 191.25,-97.5"/>
<polygon fill="midnightblue" stroke="midnightblue" points="191.31,-101 201.31,-97.5 191.31,-94 191.31,-101"/>
</g>
<!-- Node33 -->
<g id="node33" class="node">
<title>Node33</title>
<g id="a_node33"><a xlink:href="common__cmd__packet_8h.html#ab4c0b1be76b7097e922a8a354f500b88" target="_top" xlink:title="EXEC_TYPE を設定">
<polygon fill="white" stroke="black" points="201,-50 201,-69 312,-69 312,-50 201,-50"/>
<text text-anchor="middle" x="256.5" y="-57" font-family="Helvetica,sans-Serif" font-size="10.00">CCP_set_exec_type</text>
</a>
</g>
</g>
<!-- Node1&#45;&gt;Node33 -->
<g id="edge40" class="edge">
<title>Node1&#45;&gt;Node33</title>
<path fill="none" stroke="midnightblue" d="M125.41,-87.91C148.68,-82.83 177.45,-76.54 202.02,-71.18"/>
<polygon fill="midnightblue" stroke="midnightblue" points="202.89,-74.57 211.91,-69.02 201.39,-67.73 202.89,-74.57"/>
</g>
<!-- Node35 -->
<g id="node35" class="node">
<title>Node35</title>
<g id="a_node35"><a xlink:href="driver__super_8c.html#a84bf99f54acb3600a795e46ca963d7a1" target="_top" xlink:title="DS_CMD_ERR_CODE から CCP_CmdRet への変換関数">
<polygon fill="white" stroke="black" points="197,-0.5 197,-30.5 316,-30.5 316,-0.5 197,-0.5"/>
<text text-anchor="start" x="205" y="-18.5" font-family="Helvetica,sans-Serif" font-size="10.00">DS_conv_cmd_err_to</text>
<text text-anchor="middle" x="256.5" y="-7.5" font-family="Helvetica,sans-Serif" font-size="10.00">_ccp_cmd_ret</text>
</a>
</g>
</g>
<!-- Node1&#45;&gt;Node35 -->
<g id="edge43" class="edge">
<title>Node1&#45;&gt;Node35</title>
<path fill="none" stroke="midnightblue" d="M100.15,-87.9C122.86,-76.31 162.47,-56.39 197,-40.5 201.29,-38.53 205.78,-36.52 210.28,-34.53"/>
<polygon fill="midnightblue" stroke="midnightblue" points="211.7,-37.73 219.48,-30.53 208.91,-31.31 211.7,-37.73"/>
</g>
<!-- Node3 -->
<g id="node3" class="node">
<title>Node3</title>
<g id="a_node3"><a xlink:href="common__cmd__packet_8h.html#a5e5c73c5746397c40160652b10398652" target="_top" xlink:title="CMD ID を取得">
<polygon fill="white" stroke="black" points="390.5,-373 390.5,-392 461.5,-392 461.5,-373 390.5,-373"/>
<text text-anchor="middle" x="426" y="-380" font-family="Helvetica,sans-Serif" font-size="10.00">CCP_get_id</text>
</a>
</g>
</g>
<!-- Node2&#45;&gt;Node3 -->
<g id="edge2" class="edge">
<title>Node2&#45;&gt;Node3</title>
<path fill="none" stroke="midnightblue" d="M281.86,-326.1C310.72,-337.47 358.97,-356.48 391.38,-369.25"/>
<polygon fill="midnightblue" stroke="midnightblue" points="390.3,-372.59 400.89,-373 392.87,-366.08 390.3,-372.59"/>
</g>
<!-- Node8 -->
<g id="node8" class="node">
<title>Node8</title>
<g id="a_node8"><a xlink:href="common__tlm__cmd__packet__for__driver__super_8c.html#a002a6f14e2139a1a3daee52eef6263c3" target="_top" xlink:title="C2A 間通信など， CCP をコンポ間通信に用いるときの tx_frame のセット">
<polygon fill="white" stroke="black" points="352,-430 352,-449 500,-449 500,-430 352,-430"/>
<text text-anchor="middle" x="426" y="-437" font-family="Helvetica,sans-Serif" font-size="10.00">CCP_set_tx_frame_to_dssc</text>
</a>
</g>
</g>
<!-- Node2&#45;&gt;Node8 -->
<g id="edge7" class="edge">
<title>Node2&#45;&gt;Node8</title>
<path fill="none" stroke="midnightblue" d="M266.49,-326.04C282.55,-342.73 317.73,-377.74 352,-401.5 365.04,-410.54 380.5,-418.89 393.83,-425.44"/>
<polygon fill="midnightblue" stroke="midnightblue" points="392.57,-428.72 403.1,-429.88 395.59,-422.4 392.57,-428.72"/>
</g>
<!-- Node19 -->
<g id="node19" class="node">
<title>Node19</title>
<g id="a_node19"><a xlink:href="driver__super_8c.html#aeba5ba2ebea1719d8bae74c274b0adfa" target="_top" xlink:title="継承先の機器に一般コマンドを発行する">
<polygon fill="white" stroke="black" points="362.5,-269 362.5,-288 489.5,-288 489.5,-269 362.5,-269"/>
<text text-anchor="middle" x="426" y="-276" font-family="Helvetica,sans-Serif" font-size="10.00">DS_send_general_cmd</text>
</a>
</g>
</g>
<!-- Node2&#45;&gt;Node19 -->
<g id="edge20" class="edge">
<title>Node2&#45;&gt;Node19</title>
<path fill="none" stroke="midnightblue" d="M299.77,-306.91C322.07,-301.85 349.62,-295.6 373.2,-290.25"/>
<polygon fill="midnightblue" stroke="midnightblue" points="374.06,-293.65 383.04,-288.02 372.51,-286.82 374.06,-293.65"/>
</g>
<!-- Node26 -->
<g id="node26" class="node">
<title>Node26</title>
<g id="a_node26"><a xlink:href="driver__super_8c.html#af380ebeb56493a0680e2e4c50e74b979" target="_top" xlink:title="継承先の機器にテレメ要求コマンドを発行する">
<polygon fill="white" stroke="black" points="362,-307 362,-326 490,-326 490,-307 362,-307"/>
<text text-anchor="middle" x="426" y="-314" font-family="Helvetica,sans-Serif" font-size="10.00">DS_send_req_tlm_cmd</text>
</a>
</g>
</g>
<!-- Node2&#45;&gt;Node26 -->
<g id="edge28" class="edge">
<title>Node2&#45;&gt;Node26</title>
<path fill="none" stroke="midnightblue" d="M306.4,-316.5C320.66,-316.5 336.55,-316.5 351.96,-316.5"/>
<polygon fill="midnightblue" stroke="midnightblue" points="351.99,-320 361.99,-316.5 351.99,-313 351.99,-320"/>
</g>
<!-- Node4 -->
<g id="node4" class="node">
<title>Node4</title>
<g id="a_node4"><a xlink:href="cmd__space__packet_8c.html#a45d89842ddfe7dc2c74ae697d6690c89" target="_top" xlink:title="Command ID を取得">
<polygon fill="white" stroke="black" points="1133.5,-383 1133.5,-402 1230.5,-402 1230.5,-383 1133.5,-383"/>
<text text-anchor="middle" x="1182" y="-390" font-family="Helvetica,sans-Serif" font-size="10.00">CSP_get_cmd_id</text>
</a>
</g>
</g>
<!-- Node3&#45;&gt;Node4 -->
<g id="edge3" class="edge">
<title>Node3&#45;&gt;Node4</title>
<path fill="none" stroke="midnightblue" d="M461.61,-382.96C580.65,-384.54 974.13,-389.76 1123.13,-391.73"/>
<polygon fill="midnightblue" stroke="midnightblue" points="1123.38,-395.24 1133.43,-391.87 1123.48,-388.24 1123.38,-395.24"/>
</g>
<!-- Node5 -->
<g id="node5" class="node">
<title>Node5</title>
<g id="a_node5"><a xlink:href="space__packet_8c.html#a300c7fc3dea91319b0fa2f039f27d5eb" target="_top" xlink:title="packet に格納された param を取得">
<polygon fill="white" stroke="black" points="1285,-377.5 1285,-407.5 1419,-407.5 1419,-377.5 1285,-377.5"/>
<text text-anchor="start" x="1293" y="-395.5" font-family="Helvetica,sans-Serif" font-size="10.00">SP_extract_param_from</text>
<text text-anchor="middle" x="1352" y="-384.5" font-family="Helvetica,sans-Serif" font-size="10.00">_packet</text>
</a>
</g>
</g>
<!-- Node4&#45;&gt;Node5 -->
<g id="edge4" class="edge">
<title>Node4&#45;&gt;Node5</title>
<path fill="none" stroke="midnightblue" d="M1230.69,-392.5C1244.33,-392.5 1259.54,-392.5 1274.45,-392.5"/>
<polygon fill="midnightblue" stroke="midnightblue" points="1274.69,-396 1284.69,-392.5 1274.69,-389 1274.69,-396"/>
</g>
<!-- Node6 -->
<g id="node6" class="node">
<title>Node6</title>
<g id="a_node6"><a xlink:href="endian_8c.html#af3c71c10af16134e94da32e1e0d8d0f8" target="_top" xlink:title="エンディアンを考慮した memcpy">
<polygon fill="white" stroke="black" points="1455,-383 1455,-402 1558,-402 1558,-383 1455,-383"/>
<text text-anchor="middle" x="1506.5" y="-390" font-family="Helvetica,sans-Serif" font-size="10.00">ENDIAN_memcpy</text>
</a>
</g>
</g>
<!-- Node5&#45;&gt;Node6 -->
<g id="edge5" class="edge">
<title>Node5&#45;&gt;Node6</title>
<path fill="none" stroke="midnightblue" d="M1419,-392.5C1427.47,-392.5 1436.11,-392.5 1444.5,-392.5"/>
<polygon fill="midnightblue" stroke="midnightblue" points="1444.57,-396 1454.57,-392.5 1444.57,-389 1444.57,-396"/>
</g>
<!-- Node7 -->
<g id="node7" class="node">
<title>Node7</title>
<g id="a_node7"><a xlink:href="endian_8c.html#a3f28de556ac6792695854c7b4f437925" target="_top" xlink:title="エンディアンの変更">
<polygon fill="white" stroke="black" points="1594,-383 1594,-402 1677,-402 1677,-383 1594,-383"/>
<text text-anchor="middle" x="1635.5" y="-390" font-family="Helvetica,sans-Serif" font-size="10.00">ENDIAN_conv</text>
</a>
</g>
</g>
<!-- Node6&#45;&gt;Node7 -->
<g id="edge6" class="edge">
<title>Node6&#45;&gt;Node7</title>
<path fill="none" stroke="midnightblue" d="M1558.06,-392.5C1566.52,-392.5 1575.3,-392.5 1583.76,-392.5"/>
<polygon fill="midnightblue" stroke="midnightblue" points="1583.88,-396 1593.88,-392.5 1583.88,-389 1583.88,-396"/>
</g>
<!-- Node9 -->
<g id="node9" class="node">
<title>Node9</title>
<g id="a_node9"><a xlink:href="common__tlm__cmd__packet_8h.html#ad97c562faf821493786228448ba144fa" target="_top" xlink:title="CCP を CTCP に変換（キャスト）">
<polygon fill="white" stroke="black" points="545.5,-430 545.5,-449 679.5,-449 679.5,-430 545.5,-430"/>
<text text-anchor="middle" x="612.5" y="-437" font-family="Helvetica,sans-Serif" font-size="10.00">CTCP_convert_from_ccp</text>
</a>
</g>
</g>
<!-- Node8&#45;&gt;Node9 -->
<g id="edge8" class="edge">
<title>Node8&#45;&gt;Node9</title>
<path fill="none" stroke="midnightblue" d="M500.18,-439.5C511.7,-439.5 523.63,-439.5 535.22,-439.5"/>
<polygon fill="midnightblue" stroke="midnightblue" points="535.29,-443 545.29,-439.5 535.29,-436 535.29,-443"/>
</g>
<!-- Node10 -->
<g id="node10" class="node">
<title>Node10</title>
<g id="a_node10"><a xlink:href="common__tlm__cmd__packet__for__driver__super_8c.html#a9dc762f650c863090e34ad515967efc9" target="_top" xlink:title="C2A 間通信など， CTCP をコンポ間通信に用いるときの tx_frame のセット">
<polygon fill="white" stroke="black" points="536,-497 536,-516 689,-516 689,-497 536,-497"/>
<text text-anchor="middle" x="612.5" y="-504" font-family="Helvetica,sans-Serif" font-size="10.00">CTCP_set_tx_frame_to_dssc</text>
</a>
</g>
</g>
<!-- Node8&#45;&gt;Node10 -->
<g id="edge9" class="edge">
<title>Node8&#45;&gt;Node10</title>
<path fill="none" stroke="midnightblue" d="M453.43,-449.1C485.49,-460.74 539.68,-480.42 575.52,-493.44"/>
<polygon fill="midnightblue" stroke="midnightblue" points="574.52,-496.79 585.11,-496.92 576.91,-490.22 574.52,-496.79"/>
</g>
<!-- Node10&#45;&gt;Node6 -->
<g id="edge19" class="edge">
<title>Node10&#45;&gt;Node6</title>
<path fill="none" stroke="midnightblue" d="M624.91,-516.25C644.09,-531.99 684.69,-562.54 725,-575.5 843.75,-613.66 880.27,-594.5 1005,-594.5 1005,-594.5 1005,-594.5 1183,-594.5 1321.36,-594.5 1449.17,-459.31 1491.1,-410.13"/>
<polygon fill="midnightblue" stroke="midnightblue" points="1493.96,-412.16 1497.71,-402.24 1488.6,-407.66 1493.96,-412.16"/>
</g>
<!-- Node11 -->
<g id="node11" class="node">
<title>Node11</title>
<g id="a_node11"><a xlink:href="common__tlm__cmd__packet_8h.html#a3b5cbc5a345efdd6e9e7d135478b4868" target="_top" xlink:title="パケット長を取得">
<polygon fill="white" stroke="black" points="751,-421 751,-440 871,-440 871,-421 751,-421"/>
<text text-anchor="middle" x="811" y="-428" font-family="Helvetica,sans-Serif" font-size="10.00">CTCP_get_packet_len</text>
</a>
</g>
</g>
<!-- Node10&#45;&gt;Node11 -->
<g id="edge10" class="edge">
<title>Node10&#45;&gt;Node11</title>
<path fill="none" stroke="midnightblue" d="M629.18,-496.87C650.25,-484.31 689.21,-462.41 725,-449.5 732.3,-446.87 740.09,-444.52 747.88,-442.46"/>
<polygon fill="midnightblue" stroke="midnightblue" points="748.86,-445.83 757.71,-440 747.16,-439.04 748.86,-445.83"/>
</g>
<!-- Node14 -->
<g id="node14" class="node">
<title>Node14</title>
<g id="a_node14"><a xlink:href="driver__super_8c.html#a09ef149f3d4fc279cd212cdb467882cf" target="_top" xlink:title=" ">
<polygon fill="white" stroke="black" points="746,-535.5 746,-565.5 876,-565.5 876,-535.5 746,-535.5"/>
<text text-anchor="start" x="754" y="-553.5" font-family="Helvetica,sans-Serif" font-size="10.00">DSSC_get_tx_frame_as</text>
<text text-anchor="middle" x="811" y="-542.5" font-family="Helvetica,sans-Serif" font-size="10.00">_non_const_pointer</text>
</a>
</g>
</g>
<!-- Node10&#45;&gt;Node14 -->
<g id="edge14" class="edge">
<title>Node10&#45;&gt;Node14</title>
<path fill="none" stroke="midnightblue" d="M656.14,-516.05C679.46,-521.27 709.02,-527.89 735.98,-533.93"/>
<polygon fill="midnightblue" stroke="midnightblue" points="735.25,-537.35 745.78,-536.12 736.78,-530.52 735.25,-537.35"/>
</g>
<!-- Node15 -->
<g id="node15" class="node">
<title>Node15</title>
<g id="a_node15"><a xlink:href="driver__super_8c.html#aeb4c3e2dea382e7303c7f927eaae624f" target="_top" xlink:title=" ">
<polygon fill="white" stroke="black" points="725,-497 725,-516 897,-516 897,-497 725,-497"/>
<text text-anchor="middle" x="811" y="-504" font-family="Helvetica,sans-Serif" font-size="10.00">DSSC_get_tx_frame_buffer_size</text>
</a>
</g>
</g>
<!-- Node10&#45;&gt;Node15 -->
<g id="edge15" class="edge">
<title>Node10&#45;&gt;Node15</title>
<path fill="none" stroke="midnightblue" d="M689.19,-506.5C697.58,-506.5 706.21,-506.5 714.8,-506.5"/>
<polygon fill="midnightblue" stroke="midnightblue" points="714.86,-510 724.86,-506.5 714.86,-503 714.86,-510"/>
</g>
<!-- Node16 -->
<g id="node16" class="node">
<title>Node16</title>
<g id="a_node16"><a xlink:href="driver__super_8c.html#a9907f5844f74f6b8218993911bdc2735" target="_top" xlink:title=" ">
<polygon fill="white" stroke="black" points="742.5,-459 742.5,-478 879.5,-478 879.5,-459 742.5,-459"/>
<text text-anchor="middle" x="811" y="-466" font-family="Helvetica,sans-Serif" font-size="10.00">DSSC_set_tx_frame_size</text>
</a>
</g>
</g>
<!-- Node10&#45;&gt;Node16 -->
<g id="edge16" class="edge">
<title>Node10&#45;&gt;Node16</title>
<path fill="none" stroke="midnightblue" d="M662.83,-496.96C689.46,-491.81 722.53,-485.42 750.57,-479.99"/>
<polygon fill="midnightblue" stroke="midnightblue" points="751.49,-483.38 760.65,-478.04 750.17,-476.51 751.49,-483.38"/>
</g>
<!-- Node17 -->
<g id="node17" class="node">
<title>Node17</title>
<g id="a_node17"><a xlink:href="eb90__frame__for__driver__super_8c.html#a21a8e418aaf9b24d0c2a99c3da11c4c2" target="_top" xlink:title="EB90 Frame の CRC の計算">
<polygon fill="white" stroke="black" points="748.5,-623 748.5,-642 873.5,-642 873.5,-623 748.5,-623"/>
<text text-anchor="middle" x="811" y="-630" font-family="Helvetica,sans-Serif" font-size="10.00">EB90_FRAME_calc_crc</text>
</a>
</g>
</g>
<!-- Node10&#45;&gt;Node17 -->
<g id="edge17" class="edge">
<title>Node10&#45;&gt;Node17</title>
<path fill="none" stroke="midnightblue" d="M621.34,-516.25C638.16,-536.51 679.84,-583.36 725,-608.5 733.25,-613.1 742.46,-616.87 751.67,-619.95"/>
<polygon fill="midnightblue" stroke="midnightblue" points="750.66,-623.3 761.25,-622.92 752.73,-616.61 750.66,-623.3"/>
</g>
<!-- Node12 -->
<g id="node12" class="node">
<title>Node12</title>
<g id="a_node12"><a xlink:href="space__packet_8c.html#a25afed909fb67da49f5ac9921a23744f" target="_top" xlink:title="Packet Length を取得">
<polygon fill="white" stroke="black" points="952.5,-421 952.5,-440 1059.5,-440 1059.5,-421 952.5,-421"/>
<text text-anchor="middle" x="1006" y="-428" font-family="Helvetica,sans-Serif" font-size="10.00">SP_get_packet_len</text>
</a>
</g>
</g>
<!-- Node11&#45;&gt;Node12 -->
<g id="edge11" class="edge">
<title>Node11&#45;&gt;Node12</title>
<path fill="none" stroke="midnightblue" d="M871.22,-430.5C893.7,-430.5 919.38,-430.5 942.19,-430.5"/>
<polygon fill="midnightblue" stroke="midnightblue" points="942.44,-434 952.44,-430.5 942.44,-427 942.44,-434"/>
</g>
<!-- Node13 -->
<g id="node13" class="node">
<title>Node13</title>
<g id="a_node13"><a xlink:href="space__packet_8c.html#ad5dd44fdb4e6c00e7dbb311d3aaee3d3" target="_top" xlink:title="Packet Data Length を取得">
<polygon fill="white" stroke="black" points="1115,-421 1115,-440 1249,-440 1249,-421 1115,-421"/>
<text text-anchor="middle" x="1182" y="-428" font-family="Helvetica,sans-Serif" font-size="10.00">SP_get_packet_data_len</text>
</a>
</g>
</g>
<!-- Node12&#45;&gt;Node13 -->
<g id="edge12" class="edge">
<title>Node12&#45;&gt;Node13</title>
<path fill="none" stroke="midnightblue" d="M1059.68,-430.5C1073.82,-430.5 1089.4,-430.5 1104.55,-430.5"/>
<polygon fill="midnightblue" stroke="midnightblue" points="1104.94,-434 1114.94,-430.5 1104.94,-427 1104.94,-434"/>
</g>
<!-- Node13&#45;&gt;Node5 -->
<g id="edge13" class="edge">
<title>Node13&#45;&gt;Node5</title>
<path fill="none" stroke="midnightblue" d="M1225.39,-420.91C1240.43,-417.51 1257.84,-413.57 1274.82,-409.73"/>
<polygon fill="midnightblue" stroke="midnightblue" points="1275.76,-413.11 1284.75,-407.49 1274.22,-406.28 1275.76,-413.11"/>
</g>
<!-- Node18 -->
<g id="node18" class="node">
<title>Node18</title>
<g id="a_node18"><a xlink:href="crc_8c.html#a2ef2892cb722b99ec46e6da2e262846a" target="_top" xlink:title="CRC&#45;16&#45;CCITT">
<polygon fill="white" stroke="black" points="933,-623 933,-642 1079,-642 1079,-623 933,-623"/>
<text text-anchor="middle" x="1006" y="-630" font-family="Helvetica,sans-Serif" font-size="10.00">CRC_calc_crc_16_ccitt_left</text>
</a>
</g>
</g>
<!-- Node17&#45;&gt;Node18 -->
<g id="edge18" class="edge">
<title>Node17&#45;&gt;Node18</title>
<path fill="none" stroke="midnightblue" d="M873.6,-632.5C889.22,-632.5 906.25,-632.5 922.72,-632.5"/>
<polygon fill="midnightblue" stroke="midnightblue" points="922.88,-636 932.88,-632.5 922.88,-629 922.88,-636"/>
</g>
<!-- Node20 -->
<g id="node20" class="node">
<title>Node20</title>
<g id="a_node20"><a xlink:href="driver__super_8c.html#a842941ac8ad9d371e21b973188a50c37" target="_top" xlink:title="コマンド送信処理">
<polygon fill="white" stroke="black" points="567.5,-269 567.5,-288 657.5,-288 657.5,-269 567.5,-269"/>
<text text-anchor="middle" x="612.5" y="-276" font-family="Helvetica,sans-Serif" font-size="10.00">DS_send_cmd_</text>
</a>
</g>
</g>
<!-- Node19&#45;&gt;Node20 -->
<g id="edge21" class="edge">
<title>Node19&#45;&gt;Node20</title>
<path fill="none" stroke="midnightblue" d="M489.72,-278.5C511.63,-278.5 536.01,-278.5 557.18,-278.5"/>
<polygon fill="midnightblue" stroke="midnightblue" points="557.28,-282 567.28,-278.5 557.28,-275 557.28,-282"/>
</g>
<!-- Node22 -->
<g id="node22" class="node">
<title>Node22</title>
<g id="a_node22"><a xlink:href="src__core_2_library_2print_8c.html#a7365cbf5eae9bd5031842b29db13d370" target="_top" xlink:title=" ">
<polygon fill="white" stroke="black" points="984.5,-269 984.5,-288 1027.5,-288 1027.5,-269 984.5,-269"/>
<text text-anchor="middle" x="1006" y="-276" font-family="Helvetica,sans-Serif" font-size="10.00">Printf</text>
</a>
</g>
</g>
<!-- Node19&#45;&gt;Node22 -->
<g id="edge25" class="edge">
<title>Node19&#45;&gt;Node22</title>
<path fill="none" stroke="midnightblue" d="M448.53,-268.94C515.99,-240.34 728.78,-160.35 897,-209.5 932.13,-219.76 966.71,-245.33 986.94,-262.29"/>
<polygon fill="midnightblue" stroke="midnightblue" points="984.82,-265.09 994.69,-268.96 989.39,-259.79 984.82,-265.09"/>
</g>
<!-- Node24 -->
<g id="node24" class="node">
<title>Node24</title>
<g id="a_node24"><a xlink:href="time__manager_8c.html#a9d04b4d9b622cbe5a90cf65e58b828bc" target="_top" xlink:title="現在の master_clock_ を取得する">
<polygon fill="white" stroke="black" points="544,-307 544,-326 681,-326 681,-307 544,-307"/>
<text text-anchor="middle" x="612.5" y="-314" font-family="Helvetica,sans-Serif" font-size="10.00">TMGR_get_master_clock</text>
</a>
</g>
</g>
<!-- Node19&#45;&gt;Node24 -->
<g id="edge26" class="edge">
<title>Node19&#45;&gt;Node24</title>
<path fill="none" stroke="midnightblue" d="M473.56,-288.09C498.34,-293.19 529.02,-299.51 555.14,-304.89"/>
<polygon fill="midnightblue" stroke="midnightblue" points="554.78,-308.39 565.28,-306.98 556.19,-301.53 554.78,-308.39"/>
</g>
<!-- Node21 -->
<g id="node21" class="node">
<title>Node21</title>
<g id="a_node21"><a xlink:href="driver__super_8c.html#ab223b76629636378c61745e0fc47313d" target="_top" xlink:title="継承先の機器にコマンドを発行する">
<polygon fill="white" stroke="black" points="786,-269 786,-288 836,-288 836,-269 786,-269"/>
<text text-anchor="middle" x="811" y="-276" font-family="Helvetica,sans-Serif" font-size="10.00">DS_tx_</text>
</a>
</g>
</g>
<!-- Node20&#45;&gt;Node21 -->
<g id="edge22" class="edge">
<title>Node20&#45;&gt;Node21</title>
<path fill="none" stroke="midnightblue" d="M657.6,-278.5C693.33,-278.5 742.97,-278.5 775.76,-278.5"/>
<polygon fill="midnightblue" stroke="midnightblue" points="775.78,-282 785.78,-278.5 775.78,-275 775.78,-282"/>
</g>
<!-- Node23 -->
<g id="node23" class="node">
<title>Node23</title>
<g id="a_node23"><a xlink:href="driver__super_8c.html#ae0ea2e130ca952b3e0f289ea735cdaf4" target="_top" xlink:title="DS_StreamConfig 構造体のバリデーション">
<polygon fill="white" stroke="black" points="753.5,-219.5 753.5,-249.5 868.5,-249.5 868.5,-219.5 753.5,-219.5"/>
<text text-anchor="start" x="761.5" y="-237.5" font-family="Helvetica,sans-Serif" font-size="10.00">DS_validate_stream</text>
<text text-anchor="middle" x="811" y="-226.5" font-family="Helvetica,sans-Serif" font-size="10.00">_config_</text>
</a>
</g>
</g>
<!-- Node20&#45;&gt;Node23 -->
<g id="edge24" class="edge">
<title>Node20&#45;&gt;Node23</title>
<path fill="none" stroke="midnightblue" d="M656.14,-268.95C681.58,-263.26 714.45,-255.9 743.27,-249.44"/>
<polygon fill="midnightblue" stroke="midnightblue" points="744.28,-252.8 753.27,-247.2 742.75,-245.97 744.28,-252.8"/>
</g>
<!-- Node21&#45;&gt;Node22 -->
<g id="edge23" class="edge">
<title>Node21&#45;&gt;Node22</title>
<path fill="none" stroke="midnightblue" d="M836.05,-278.5C871.06,-278.5 936.04,-278.5 974.41,-278.5"/>
<polygon fill="midnightblue" stroke="midnightblue" points="974.47,-282 984.47,-278.5 974.47,-275 974.47,-282"/>
</g>
<!-- Node25 -->
<g id="node25" class="node">
<title>Node25</title>
<g id="a_node25"><a xlink:href="obc__time_8c.html#a70416835a40bdacbb04f6f06b1e6d1e1" target="_top" xlink:title="引数から ObcTime を作成する">
<polygon fill="white" stroke="black" points="771,-307 771,-326 851,-326 851,-307 771,-307"/>
<text text-anchor="middle" x="811" y="-314" font-family="Helvetica,sans-Serif" font-size="10.00">OBCT_create</text>
</a>
</g>
</g>
<!-- Node24&#45;&gt;Node25 -->
<g id="edge27" class="edge">
<title>Node24&#45;&gt;Node25</title>
<path fill="none" stroke="midnightblue" d="M681.12,-316.5C707.23,-316.5 736.55,-316.5 760.62,-316.5"/>
<polygon fill="midnightblue" stroke="midnightblue" points="760.93,-320 770.93,-316.5 760.93,-313 760.93,-320"/>
</g>
<!-- Node26&#45;&gt;Node20 -->
<g id="edge29" class="edge">
<title>Node26&#45;&gt;Node20</title>
<path fill="none" stroke="midnightblue" d="M473.56,-306.91C499.11,-301.65 530.93,-295.09 557.57,-289.61"/>
<polygon fill="midnightblue" stroke="midnightblue" points="558.41,-293.01 567.5,-287.56 557,-286.15 558.41,-293.01"/>
</g>
<!-- Node26&#45;&gt;Node22 -->
<g id="edge30" class="edge">
<title>Node26&#45;&gt;Node22</title>
<path fill="none" stroke="midnightblue" d="M469.29,-326.01C552.6,-343.04 743.22,-373.59 897,-335.5 929.27,-327.51 962.52,-307.92 983.45,-293.94"/>
<polygon fill="midnightblue" stroke="midnightblue" points="985.62,-296.7 991.89,-288.16 981.66,-290.93 985.62,-296.7"/>
</g>
<!-- Node26&#45;&gt;Node24 -->
<g id="edge31" class="edge">
<title>Node26&#45;&gt;Node24</title>
<path fill="none" stroke="midnightblue" d="M490.24,-316.5C504.17,-316.5 519.09,-316.5 533.53,-316.5"/>
<polygon fill="midnightblue" stroke="midnightblue" points="533.94,-320 543.94,-316.5 533.94,-313 533.94,-320"/>
</g>
<!-- Node28 -->
<g id="node28" class="node">
<title>Node28</title>
<g id="a_node28"><a xlink:href="cmd__space__packet_8c.html#aa6bbd3b94c3c8a9c0e0c26fc96b16b9d" target="_top" xlink:title="Destination Type を取得">
<polygon fill="white" stroke="black" points="371,-126 371,-145 481,-145 481,-126 371,-126"/>
<text text-anchor="middle" x="426" y="-133" font-family="Helvetica,sans-Serif" font-size="10.00">CSP_get_dest_type</text>
</a>
</g>
</g>
<!-- Node27&#45;&gt;Node28 -->
<g id="edge33" class="edge">
<title>Node27&#45;&gt;Node28</title>
<path fill="none" stroke="midnightblue" d="M311.88,-135.5C327.4,-135.5 344.45,-135.5 360.51,-135.5"/>
<polygon fill="midnightblue" stroke="midnightblue" points="360.89,-139 370.89,-135.5 360.89,-132 360.89,-139"/>
</g>
<!-- Node28&#45;&gt;Node5 -->
<g id="edge35" class="edge">
<title>Node28&#45;&gt;Node5</title>
<path fill="none" stroke="midnightblue" d="M481.2,-139.42C555.37,-144.44 692.69,-152.5 810,-152.5 810,-152.5 810,-152.5 1007,-152.5 1157.61,-152.5 1289.4,-309.16 1334.47,-369.34"/>
<polygon fill="midnightblue" stroke="midnightblue" points="1331.73,-371.52 1340.48,-377.49 1337.36,-367.36 1331.73,-371.52"/>
</g>
<!-- Node29 -->
<g id="node29" class="node">
<title>Node29</title>
<g id="a_node29"><a xlink:href="common__cmd__packet__define_8c.html#a699c42e6917a0dbcf3a2002f51cf34c2" target="_top" xlink:title="バイト列から CCP_DEST_TYPE を取得">
<polygon fill="white" stroke="black" points="543,-93.5 543,-123.5 682,-123.5 682,-93.5 543,-93.5"/>
<text text-anchor="start" x="551" y="-111.5" font-family="Helvetica,sans-Serif" font-size="10.00">CCP_get_dest_type_from</text>
<text text-anchor="middle" x="612.5" y="-100.5" font-family="Helvetica,sans-Serif" font-size="10.00">_uint8</text>
</a>
</g>
</g>
<!-- Node28&#45;&gt;Node29 -->
<g id="edge34" class="edge">
<title>Node28&#45;&gt;Node29</title>
<path fill="none" stroke="midnightblue" d="M481.36,-127.55C497.44,-125.19 515.38,-122.57 532.68,-120.03"/>
<polygon fill="midnightblue" stroke="midnightblue" points="533.39,-123.47 542.77,-118.56 532.37,-116.54 533.39,-123.47"/>
</g>
<!-- Node31 -->
<g id="node31" class="node">
<title>Node31</title>
<g id="a_node31"><a xlink:href="cmd__space__packet_8c.html#a4083ff1a9dbe5894cfacf756d02a50a4" target="_top" xlink:title="Destination Type を設定">
<polygon fill="white" stroke="black" points="371.5,-88 371.5,-107 480.5,-107 480.5,-88 371.5,-88"/>
<text text-anchor="middle" x="426" y="-95" font-family="Helvetica,sans-Serif" font-size="10.00">CSP_set_dest_type</text>
</a>
</g>
</g>
<!-- Node30&#45;&gt;Node31 -->
<g id="edge37" class="edge">
<title>Node30&#45;&gt;Node31</title>
<path fill="none" stroke="midnightblue" d="M311.88,-97.5C327.7,-97.5 345.13,-97.5 361.46,-97.5"/>
<polygon fill="midnightblue" stroke="midnightblue" points="361.46,-101 371.46,-97.5 361.46,-94 361.46,-101"/>
</g>
<!-- Node32 -->
<g id="node32" class="node">
<title>Node32</title>
<g id="a_node32"><a xlink:href="space__packet_8c.html#a9d4e5051b01d74f88ee13ce05f61b392" target="_top" xlink:title="packet に param を格納">
<polygon fill="white" stroke="black" points="556,-44.5 556,-74.5 669,-74.5 669,-44.5 556,-44.5"/>
<text text-anchor="start" x="564" y="-62.5" font-family="Helvetica,sans-Serif" font-size="10.00">SP_insert_param_to</text>
<text text-anchor="middle" x="612.5" y="-51.5" font-family="Helvetica,sans-Serif" font-size="10.00">_packet</text>
</a>
</g>
</g>
<!-- Node31&#45;&gt;Node32 -->
<g id="edge38" class="edge">
<title>Node31&#45;&gt;Node32</title>
<path fill="none" stroke="midnightblue" d="M473.56,-87.91C495.41,-83.41 521.85,-77.96 545.71,-73.05"/>
<polygon fill="midnightblue" stroke="midnightblue" points="546.66,-76.43 555.75,-70.98 545.25,-69.57 546.66,-76.43"/>
</g>
<!-- Node32&#45;&gt;Node6 -->
<g id="edge39" class="edge">
<title>Node32&#45;&gt;Node6</title>
<path fill="none" stroke="midnightblue" d="M669.17,-65.99C745,-74.27 885.07,-87.5 1005,-87.5 1005,-87.5 1005,-87.5 1183,-87.5 1350.15,-87.5 1465.56,-306.44 1496.92,-373.33"/>
<polygon fill="midnightblue" stroke="midnightblue" points="1493.88,-375.07 1501.23,-382.7 1500.24,-372.15 1493.88,-375.07"/>
</g>
<!-- Node34 -->
<g id="node34" class="node">
<title>Node34</title>
<g id="a_node34"><a xlink:href="cmd__space__packet_8c.html#a031c095293173f7bc0fa4a97852b7060" target="_top" xlink:title="Execution Type を設定">
<polygon fill="white" stroke="black" points="371,-50 371,-69 481,-69 481,-50 371,-50"/>
<text text-anchor="middle" x="426" y="-57" font-family="Helvetica,sans-Serif" font-size="10.00">CSP_set_exec_type</text>
</a>
</g>
</g>
<!-- Node33&#45;&gt;Node34 -->
<g id="edge41" class="edge">
<title>Node33&#45;&gt;Node34</title>
<path fill="none" stroke="midnightblue" d="M312.35,-59.5C327.76,-59.5 344.67,-59.5 360.59,-59.5"/>
<polygon fill="midnightblue" stroke="midnightblue" points="360.89,-63 370.89,-59.5 360.89,-56 360.89,-63"/>
</g>
<!-- Node34&#45;&gt;Node32 -->
<g id="edge42" class="edge">
<title>Node34&#45;&gt;Node32</title>
<path fill="none" stroke="midnightblue" d="M481.36,-59.5C501.55,-59.5 524.66,-59.5 545.76,-59.5"/>
<polygon fill="midnightblue" stroke="midnightblue" points="545.93,-63 555.93,-59.5 545.93,-56 545.93,-63"/>
</g>
<!-- Node36 -->
<g id="node36" class="node">
<title>Node36</title>
<g id="a_node36"><a xlink:href="common__cmd__packet__util_8c.html#a86a3aeedaeb2eac94c6c86eb0db7f8fd" target="_top" xlink:title="コマンド返り値である CCP_CmdRet を作成">
<polygon fill="white" stroke="black" points="369.5,-6 369.5,-25 482.5,-25 482.5,-6 369.5,-6"/>
<text text-anchor="middle" x="426" y="-13" font-family="Helvetica,sans-Serif" font-size="10.00">CCP_make_cmd_ret</text>
</a>
</g>
</g>
<!-- Node35&#45;&gt;Node36 -->
<g id="edge44" class="edge">
<title>Node35&#45;&gt;Node36</title>
<path fill="none" stroke="midnightblue" d="M316.08,-15.5C329.98,-15.5 344.89,-15.5 359.08,-15.5"/>
<polygon fill="midnightblue" stroke="midnightblue" points="359.26,-19 369.26,-15.5 359.26,-12 359.26,-19"/>
</g>
</g>
</svg>
