<?xml version="1.0" encoding="UTF-8" standalone="no"?>
<!DOCTYPE svg PUBLIC "-//W3C//DTD SVG 1.1//EN"
 "http://www.w3.org/Graphics/SVG/1.1/DTD/svg11.dtd">
<!-- Generated by graphviz version 2.43.0 (0)
 -->
<!-- Title: DI_GS_cmd_packet_handler_init_ Pages: 1 -->
<svg width="1310pt" height="1057pt"
 viewBox="0.00 0.00 1310.00 1056.50" xmlns="http://www.w3.org/2000/svg" xmlns:xlink="http://www.w3.org/1999/xlink">
<g id="graph0" class="graph" transform="scale(1 1) rotate(0) translate(4 1052.5)">
<title>DI_GS_cmd_packet_handler_init_</title>
<polygon fill="white" stroke="transparent" points="-4,4 -4,-1052.5 1306,-1052.5 1306,4 -4,4"/>
<!-- Node1 -->
<g id="node1" class="node">
<title>Node1</title>
<g id="a_node1"><a xlink:title=" ">
<polygon fill="#bfbfbf" stroke="black" points="0,-661 0,-691 152,-691 152,-661 0,-661"/>
<text text-anchor="start" x="8" y="-679" font-family="Helvetica,sans-Serif" font-size="10.00">DI_GS_cmd_packet_handler</text>
<text text-anchor="middle" x="76" y="-668" font-family="Helvetica,sans-Serif" font-size="10.00">_init_</text>
</a>
</g>
</g>
<!-- Node2 -->
<g id="node2" class="node">
<title>Node2</title>
<g id="a_node2"><a xlink:href="gs_8c.html#a3cda832b6c75f514dfb566fa49b59127" target="_top" xlink:title="Driver の初期化">
<polygon fill="white" stroke="black" points="188,-685.5 188,-704.5 239,-704.5 239,-685.5 188,-685.5"/>
<text text-anchor="middle" x="213.5" y="-692.5" font-family="Helvetica,sans-Serif" font-size="10.00">GS_init</text>
</a>
</g>
</g>
<!-- Node1&#45;&gt;Node2 -->
<g id="edge1" class="edge">
<title>Node1&#45;&gt;Node2</title>
<path fill="none" stroke="midnightblue" d="M152.28,-686.56C161.07,-687.79 169.7,-689 177.55,-690.1"/>
<polygon fill="midnightblue" stroke="midnightblue" points="177.32,-693.6 187.71,-691.52 178.3,-686.67 177.32,-693.6"/>
</g>
<!-- Node107 -->
<g id="node50" class="node">
<title>Node107</title>
<g id="a_node50"><a xlink:href="src__core_2_library_2print_8c.html#a4bc499fc724de87725ee7dc60ed1d106" target="_top" xlink:title=" ">
<polygon fill="white" stroke="black" points="192,-647.5 192,-666.5 235,-666.5 235,-647.5 192,-647.5"/>
<text text-anchor="middle" x="213.5" y="-654.5" font-family="Helvetica,sans-Serif" font-size="10.00">Printf</text>
</a>
</g>
</g>
<!-- Node1&#45;&gt;Node107 -->
<g id="edge54" class="edge">
<title>Node1&#45;&gt;Node107</title>
<path fill="none" stroke="midnightblue" d="M152.28,-665.44C162.79,-663.97 173.05,-662.53 182.04,-661.27"/>
<polygon fill="midnightblue" stroke="midnightblue" points="182.53,-664.74 191.95,-659.88 181.56,-657.8 182.53,-664.74"/>
</g>
<!-- Node3 -->
<g id="node3" class="node">
<title>Node3</title>
<g id="a_node3"><a xlink:href="driver__super_8c.html#ae53312061d6acbd24edd316d126c7dea" target="_top" xlink:title="継承先の機器よりDriverSuperを初期化する">
<polygon fill="white" stroke="black" points="310.5,-897.5 310.5,-916.5 361.5,-916.5 361.5,-897.5 310.5,-897.5"/>
<text text-anchor="middle" x="336" y="-904.5" font-family="Helvetica,sans-Serif" font-size="10.00">DS_init</text>
</a>
</g>
</g>
<!-- Node2&#45;&gt;Node3 -->
<g id="edge2" class="edge">
<title>Node2&#45;&gt;Node3</title>
<path fill="none" stroke="midnightblue" d="M219.99,-704.66C238.61,-737.43 299.59,-844.71 324.38,-888.32"/>
<polygon fill="midnightblue" stroke="midnightblue" points="321.49,-890.32 329.48,-897.28 327.58,-886.86 321.49,-890.32"/>
</g>
<!-- Node12 -->
<g id="node12" class="node">
<title>Node12</title>
<g id="a_node12"><a xlink:href="gs_8c.html#a4621f4390191b12c281982f635516f67" target="_top" xlink:title="CCSDS 側 Driver の DS 上での初期化設定">
<polygon fill="white" stroke="black" points="275,-705 275,-735 397,-735 397,-705 275,-705"/>
<text text-anchor="start" x="283" y="-723" font-family="Helvetica,sans-Serif" font-size="10.00">GS_load_ccsds_driver</text>
<text text-anchor="middle" x="336" y="-712" font-family="Helvetica,sans-Serif" font-size="10.00">_super_init_settings_</text>
</a>
</g>
</g>
<!-- Node2&#45;&gt;Node12 -->
<g id="edge12" class="edge">
<title>Node2&#45;&gt;Node12</title>
<path fill="none" stroke="midnightblue" d="M239.18,-700.12C246.81,-701.7 255.63,-703.53 264.77,-705.43"/>
<polygon fill="midnightblue" stroke="midnightblue" points="264.27,-708.9 274.77,-707.5 265.69,-702.05 264.27,-708.9"/>
</g>
<!-- Node105 -->
<g id="node48" class="node">
<title>Node105</title>
<g id="a_node48"><a xlink:href="gs_8c.html#a940de224a6d318a15603b46983cf69ea" target="_top" xlink:title="UART 側 Driver の DS 上での初期化設定">
<polygon fill="white" stroke="black" points="276.5,-656 276.5,-686 395.5,-686 395.5,-656 276.5,-656"/>
<text text-anchor="start" x="284.5" y="-674" font-family="Helvetica,sans-Serif" font-size="10.00">GS_load_uart_driver</text>
<text text-anchor="middle" x="336" y="-663" font-family="Helvetica,sans-Serif" font-size="10.00">_super_init_settings_</text>
</a>
</g>
</g>
<!-- Node2&#45;&gt;Node105 -->
<g id="edge51" class="edge">
<title>Node2&#45;&gt;Node105</title>
<path fill="none" stroke="midnightblue" d="M239.18,-690.09C247.2,-688.49 256.53,-686.63 266.17,-684.71"/>
<polygon fill="midnightblue" stroke="midnightblue" points="267.15,-688.08 276.27,-682.7 265.78,-681.22 267.15,-688.08"/>
</g>
<!-- Node106 -->
<g id="node49" class="node">
<title>Node106</title>
<g id="a_node49"><a xlink:href="gs__validate_8c.html#a6d00a5c9554a05b6b042017982b3224f" target="_top" xlink:title="GS_ValiateInfo の初期化">
<polygon fill="white" stroke="black" points="288,-617.5 288,-636.5 384,-636.5 384,-617.5 288,-617.5"/>
<text text-anchor="middle" x="336" y="-624.5" font-family="Helvetica,sans-Serif" font-size="10.00">GS_validate_init</text>
</a>
</g>
</g>
<!-- Node2&#45;&gt;Node106 -->
<g id="edge53" class="edge">
<title>Node2&#45;&gt;Node106</title>
<path fill="none" stroke="midnightblue" d="M227.03,-685.42C230.89,-682.43 235.14,-679.1 239,-676 255.23,-662.95 256.73,-656 275,-646 278.93,-643.85 283.15,-641.9 287.45,-640.14"/>
<polygon fill="midnightblue" stroke="midnightblue" points="288.8,-643.37 296.95,-636.59 286.36,-636.81 288.8,-643.37"/>
</g>
<!-- Node4 -->
<g id="node4" class="node">
<title>Node4</title>
<g id="a_node4"><a xlink:href="driver__super_8c.html#a7f4bb1ea81bf8d3a89752a0fc875afce" target="_top" xlink:title="DriverSuperのリセット">
<polygon fill="white" stroke="black" points="468,-960.5 468,-979.5 528,-979.5 528,-960.5 468,-960.5"/>
<text text-anchor="middle" x="498" y="-967.5" font-family="Helvetica,sans-Serif" font-size="10.00">DS_reset</text>
</a>
</g>
</g>
<!-- Node3&#45;&gt;Node4 -->
<g id="edge3" class="edge">
<title>Node3&#45;&gt;Node4</title>
<path fill="none" stroke="midnightblue" d="M361.3,-916.57C388.52,-927.28 432.8,-944.72 463.34,-956.75"/>
<polygon fill="midnightblue" stroke="midnightblue" points="462.15,-960.04 472.73,-960.45 464.71,-953.52 462.15,-960.04"/>
</g>
<!-- Node10 -->
<g id="node10" class="node">
<title>Node10</title>
<g id="a_node10"><a xlink:href="driver__super_8c.html#a54c663378f78e30014495b4957a575ff" target="_top" xlink:title="DriverSuperの設定に不整合が生じていないかチェックする">
<polygon fill="white" stroke="black" points="443,-897.5 443,-916.5 553,-916.5 553,-897.5 443,-897.5"/>
<text text-anchor="middle" x="498" y="-904.5" font-family="Helvetica,sans-Serif" font-size="10.00">DS_validate_config</text>
</a>
</g>
</g>
<!-- Node3&#45;&gt;Node10 -->
<g id="edge10" class="edge">
<title>Node3&#45;&gt;Node10</title>
<path fill="none" stroke="midnightblue" d="M361.65,-907C380.6,-907 407.68,-907 432.65,-907"/>
<polygon fill="midnightblue" stroke="midnightblue" points="432.82,-910.5 442.82,-907 432.82,-903.5 432.82,-910.5"/>
</g>
<!-- Node5 -->
<g id="node5" class="node">
<title>Node5</title>
<g id="a_node5"><a xlink:href="driver__super_8c.html#a8183efca88aff7a47cd50b16e83a66ca" target="_top" xlink:title=" ">
<polygon fill="white" stroke="black" points="624,-1018 624,-1048 740,-1048 740,-1018 624,-1018"/>
<text text-anchor="start" x="632" y="-1036" font-family="Helvetica,sans-Serif" font-size="10.00">DS_load_init_setting</text>
<text text-anchor="middle" x="682" y="-1025" font-family="Helvetica,sans-Serif" font-size="10.00">_dummy_</text>
</a>
</g>
</g>
<!-- Node4&#45;&gt;Node5 -->
<g id="edge4" class="edge">
<title>Node4&#45;&gt;Node5</title>
<path fill="none" stroke="midnightblue" d="M522.68,-979.51C542.84,-987.49 572.64,-998.98 599,-1008 605.78,-1010.32 612.9,-1012.65 620.01,-1014.9"/>
<polygon fill="midnightblue" stroke="midnightblue" points="619.06,-1018.27 629.65,-1017.92 621.16,-1011.59 619.06,-1018.27"/>
</g>
<!-- Node6 -->
<g id="node6" class="node">
<title>Node6</title>
<g id="a_node6"><a xlink:href="driver__super_8c.html#a8f518ac0c2785b0b5b3de8d226dc91b6" target="_top" xlink:title="DS_StreamConfig 構造体の初期化">
<polygon fill="white" stroke="black" points="612,-979.5 612,-998.5 752,-998.5 752,-979.5 612,-979.5"/>
<text text-anchor="middle" x="682" y="-986.5" font-family="Helvetica,sans-Serif" font-size="10.00">DS_reset_stream_config_</text>
</a>
</g>
</g>
<!-- Node4&#45;&gt;Node6 -->
<g id="edge5" class="edge">
<title>Node4&#45;&gt;Node6</title>
<path fill="none" stroke="midnightblue" d="M528.24,-973.05C548.11,-975.13 575.42,-977.98 601.46,-980.7"/>
<polygon fill="midnightblue" stroke="midnightblue" points="601.43,-984.21 611.74,-981.77 602.16,-977.25 601.43,-984.21"/>
</g>
<!-- Node8 -->
<g id="node8" class="node">
<title>Node8</title>
<g id="a_node8"><a xlink:href="time__manager_8c.html#a9d04b4d9b622cbe5a90cf65e58b828bc" target="_top" xlink:title="現在の master_clock_ を取得する">
<polygon fill="white" stroke="black" points="808.5,-941.5 808.5,-960.5 945.5,-960.5 945.5,-941.5 808.5,-941.5"/>
<text text-anchor="middle" x="877" y="-948.5" font-family="Helvetica,sans-Serif" font-size="10.00">TMGR_get_master_clock</text>
</a>
</g>
</g>
<!-- Node4&#45;&gt;Node8 -->
<g id="edge9" class="edge">
<title>Node4&#45;&gt;Node8</title>
<path fill="none" stroke="midnightblue" d="M528.27,-968.52C585.57,-965.64 714.23,-959.15 797.97,-954.93"/>
<polygon fill="midnightblue" stroke="midnightblue" points="798.39,-958.42 808.2,-954.42 798.04,-951.42 798.39,-958.42"/>
</g>
<!-- Node7 -->
<g id="node7" class="node">
<title>Node7</title>
<g id="a_node7"><a xlink:href="driver__super_8c.html#a17276ca37e76a016ddc12766fda7309f" target="_top" xlink:title=" ">
<polygon fill="white" stroke="black" points="801,-979.5 801,-998.5 953,-998.5 953,-979.5 801,-979.5"/>
<text text-anchor="middle" x="877" y="-986.5" font-family="Helvetica,sans-Serif" font-size="10.00">DS_data_analyzer_dummy_</text>
</a>
</g>
</g>
<!-- Node6&#45;&gt;Node7 -->
<g id="edge6" class="edge">
<title>Node6&#45;&gt;Node7</title>
<path fill="none" stroke="midnightblue" d="M752.13,-989C764.59,-989 777.72,-989 790.58,-989"/>
<polygon fill="midnightblue" stroke="midnightblue" points="790.81,-992.5 800.81,-989 790.81,-985.5 790.81,-992.5"/>
</g>
<!-- Node6&#45;&gt;Node8 -->
<g id="edge7" class="edge">
<title>Node6&#45;&gt;Node8</title>
<path fill="none" stroke="midnightblue" d="M731.7,-979.41C757.86,-974.26 790.28,-967.88 817.77,-962.47"/>
<polygon fill="midnightblue" stroke="midnightblue" points="818.51,-965.89 827.65,-960.52 817.16,-959.02 818.51,-965.89"/>
</g>
<!-- Node9 -->
<g id="node9" class="node">
<title>Node9</title>
<g id="a_node9"><a xlink:href="obc__time_8c.html#a70416835a40bdacbb04f6f06b1e6d1e1" target="_top" xlink:title="引数から ObcTime を作成する">
<polygon fill="white" stroke="black" points="1017.5,-941.5 1017.5,-960.5 1097.5,-960.5 1097.5,-941.5 1017.5,-941.5"/>
<text text-anchor="middle" x="1057.5" y="-948.5" font-family="Helvetica,sans-Serif" font-size="10.00">OBCT_create</text>
</a>
</g>
</g>
<!-- Node8&#45;&gt;Node9 -->
<g id="edge8" class="edge">
<title>Node8&#45;&gt;Node9</title>
<path fill="none" stroke="midnightblue" d="M945.74,-951C966.13,-951 988.11,-951 1007.07,-951"/>
<polygon fill="midnightblue" stroke="midnightblue" points="1007.26,-954.5 1017.26,-951 1007.26,-947.5 1007.26,-954.5"/>
</g>
<!-- Node11 -->
<g id="node11" class="node">
<title>Node11</title>
<g id="a_node11"><a xlink:href="driver__super_8c.html#ad1bdc8947460e5efe01f9970684d06dc" target="_top" xlink:title="DS_StreamConfig 構造体のバリデーション">
<polygon fill="white" stroke="black" points="624.5,-892 624.5,-922 739.5,-922 739.5,-892 624.5,-892"/>
<text text-anchor="start" x="632.5" y="-910" font-family="Helvetica,sans-Serif" font-size="10.00">DS_validate_stream</text>
<text text-anchor="middle" x="682" y="-899" font-family="Helvetica,sans-Serif" font-size="10.00">_config_</text>
</a>
</g>
</g>
<!-- Node10&#45;&gt;Node11 -->
<g id="edge11" class="edge">
<title>Node10&#45;&gt;Node11</title>
<path fill="none" stroke="midnightblue" d="M553.11,-907C572.3,-907 594.11,-907 614.22,-907"/>
<polygon fill="midnightblue" stroke="midnightblue" points="614.25,-910.5 624.25,-907 614.25,-903.5 614.25,-910.5"/>
</g>
<!-- Node13 -->
<g id="node13" class="node">
<title>Node13</title>
<g id="a_node13"><a xlink:href="gs_8c.html#a77d8b5e22b2b2615c9046060e50a3308" target="_top" xlink:title="上記初期化の共通部分をまとめた関数">
<polygon fill="white" stroke="black" points="433,-656 433,-686 563,-686 563,-656 433,-656"/>
<text text-anchor="start" x="441" y="-674" font-family="Helvetica,sans-Serif" font-size="10.00">GS_load_default_driver</text>
<text text-anchor="middle" x="498" y="-663" font-family="Helvetica,sans-Serif" font-size="10.00">_super_init_settings_</text>
</a>
</g>
</g>
<!-- Node12&#45;&gt;Node13 -->
<g id="edge13" class="edge">
<title>Node12&#45;&gt;Node13</title>
<path fill="none" stroke="midnightblue" d="M386.31,-704.9C402.66,-699.89 421.02,-694.27 438.03,-689.06"/>
<polygon fill="midnightblue" stroke="midnightblue" points="439.32,-692.33 447.85,-686.05 437.27,-685.63 439.32,-692.33"/>
</g>
<!-- Node14 -->
<g id="node14" class="node">
<title>Node14</title>
<g id="a_node14"><a xlink:href="driver__super_8c.html#af0c2601f37b24ce4a3bc94a525a80621" target="_top" xlink:title=" ">
<polygon fill="white" stroke="black" points="641.5,-853.5 641.5,-872.5 722.5,-872.5 722.5,-853.5 641.5,-853.5"/>
<text text-anchor="middle" x="682" y="-860.5" font-family="Helvetica,sans-Serif" font-size="10.00">DSSC_enable</text>
</a>
</g>
</g>
<!-- Node13&#45;&gt;Node14 -->
<g id="edge14" class="edge">
<title>Node13&#45;&gt;Node14</title>
<path fill="none" stroke="midnightblue" d="M503.26,-686.29C513.57,-720.35 543.23,-802.72 599,-844 608.36,-850.93 619.83,-855.38 631.2,-858.23"/>
<polygon fill="midnightblue" stroke="midnightblue" points="630.59,-861.68 641.11,-860.35 632.06,-854.84 630.59,-861.68"/>
</g>
<!-- Node15 -->
<g id="node15" class="node">
<title>Node15</title>
<g id="a_node15"><a xlink:href="driver__super_8c.html#a093a693ceac26a42fe3157cae06259ac" target="_top" xlink:title=" ">
<polygon fill="white" stroke="black" points="626.5,-804 626.5,-834 737.5,-834 737.5,-804 626.5,-804"/>
<text text-anchor="start" x="634.5" y="-822" font-family="Helvetica,sans-Serif" font-size="10.00">DSSC_enable_strict</text>
<text text-anchor="middle" x="682" y="-811" font-family="Helvetica,sans-Serif" font-size="10.00">_frame_search</text>
</a>
</g>
</g>
<!-- Node13&#45;&gt;Node15 -->
<g id="edge15" class="edge">
<title>Node13&#45;&gt;Node15</title>
<path fill="none" stroke="midnightblue" d="M507.33,-686.31C522.26,-712.33 556.07,-765.13 599,-794 604.56,-797.74 610.7,-800.94 617.04,-803.67"/>
<polygon fill="midnightblue" stroke="midnightblue" points="615.85,-806.96 626.44,-807.34 618.4,-800.44 615.85,-806.96"/>
</g>
<!-- Node16 -->
<g id="node16" class="node">
<title>Node16</title>
<g id="a_node16"><a xlink:href="driver__super_8c.html#ad65037ea9639ef7c8ade47c1c54bbf2e" target="_top" xlink:title=" ">
<polygon fill="white" stroke="black" points="613.5,-765.5 613.5,-784.5 750.5,-784.5 750.5,-765.5 613.5,-765.5"/>
<text text-anchor="middle" x="682" y="-772.5" font-family="Helvetica,sans-Serif" font-size="10.00">DSSC_set_data_analyzer</text>
</a>
</g>
</g>
<!-- Node13&#45;&gt;Node16 -->
<g id="edge16" class="edge">
<title>Node13&#45;&gt;Node16</title>
<path fill="none" stroke="midnightblue" d="M512.31,-686.09C530.11,-705.32 563.58,-738.18 599,-756 603.81,-758.42 608.94,-760.54 614.19,-762.39"/>
<polygon fill="midnightblue" stroke="midnightblue" points="613.15,-765.73 623.74,-765.45 615.28,-759.07 613.15,-765.73"/>
</g>
<!-- Node17 -->
<g id="node17" class="node">
<title>Node17</title>
<g id="a_node17"><a xlink:href="driver__super_8c.html#a257d3e5ef0b2a07401bc30641d50b69a" target="_top" xlink:title=" ">
<polygon fill="white" stroke="black" points="613.5,-727.5 613.5,-746.5 750.5,-746.5 750.5,-727.5 613.5,-727.5"/>
<text text-anchor="middle" x="682" y="-734.5" font-family="Helvetica,sans-Serif" font-size="10.00">DSSC_set_rx_frame_size</text>
</a>
</g>
</g>
<!-- Node13&#45;&gt;Node17 -->
<g id="edge17" class="edge">
<title>Node13&#45;&gt;Node17</title>
<path fill="none" stroke="midnightblue" d="M528.14,-686.21C547.77,-696 574.46,-708.45 599,-717 607.34,-719.91 616.31,-722.55 625.14,-724.9"/>
<polygon fill="midnightblue" stroke="midnightblue" points="624.45,-728.34 635.01,-727.42 626.18,-721.56 624.45,-728.34"/>
</g>
<!-- Node18 -->
<g id="node18" class="node">
<title>Node18</title>
<g id="a_node18"><a xlink:href="driver__super_8c.html#a9869582a20b5ae6e1d3014a3ced86e56" target="_top" xlink:title=" ">
<polygon fill="white" stroke="black" points="610.5,-678 610.5,-708 753.5,-708 753.5,-678 610.5,-678"/>
<text text-anchor="start" x="618.5" y="-696" font-family="Helvetica,sans-Serif" font-size="10.00">DSSC_set_rx_framelength</text>
<text text-anchor="middle" x="682" y="-685" font-family="Helvetica,sans-Serif" font-size="10.00">_offset</text>
</a>
</g>
</g>
<!-- Node13&#45;&gt;Node18 -->
<g id="edge18" class="edge">
<title>Node13&#45;&gt;Node18</title>
<path fill="none" stroke="midnightblue" d="M563.17,-678.76C575.08,-680.2 587.67,-681.72 600.01,-683.21"/>
<polygon fill="midnightblue" stroke="midnightblue" points="599.94,-686.73 610.29,-684.45 600.78,-679.78 599.94,-686.73"/>
</g>
<!-- Node19 -->
<g id="node19" class="node">
<title>Node19</title>
<g id="a_node19"><a xlink:href="driver__super_8c.html#af10516ffc854cff7493ca94b1f980c78" target="_top" xlink:title=" ">
<polygon fill="white" stroke="black" points="599,-639.5 599,-658.5 765,-658.5 765,-639.5 599,-639.5"/>
<text text-anchor="middle" x="682" y="-646.5" font-family="Helvetica,sans-Serif" font-size="10.00">DSSC_set_rx_framelength_pos</text>
</a>
</g>
</g>
<!-- Node13&#45;&gt;Node19 -->
<g id="edge19" class="edge">
<title>Node13&#45;&gt;Node19</title>
<path fill="none" stroke="midnightblue" d="M563.17,-663.24C572.51,-662.11 582.27,-660.93 591.99,-659.76"/>
<polygon fill="midnightblue" stroke="midnightblue" points="592.59,-663.21 602.1,-658.54 591.75,-656.26 592.59,-663.21"/>
</g>
<!-- Node20 -->
<g id="node20" class="node">
<title>Node20</title>
<g id="a_node20"><a xlink:href="driver__super_8c.html#a2791854c5a460d3970eff9f6c9d5c862" target="_top" xlink:title=" ">
<polygon fill="white" stroke="black" points="610.5,-590 610.5,-620 753.5,-620 753.5,-590 610.5,-590"/>
<text text-anchor="start" x="618.5" y="-608" font-family="Helvetica,sans-Serif" font-size="10.00">DSSC_set_rx_framelength</text>
<text text-anchor="middle" x="682" y="-597" font-family="Helvetica,sans-Serif" font-size="10.00">_type_size</text>
</a>
</g>
</g>
<!-- Node13&#45;&gt;Node20 -->
<g id="edge20" class="edge">
<title>Node13&#45;&gt;Node20</title>
<path fill="none" stroke="midnightblue" d="M533.4,-655.97C552.55,-647.84 576.91,-637.88 599,-630 605.5,-627.68 612.33,-625.38 619.17,-623.18"/>
<polygon fill="midnightblue" stroke="midnightblue" points="620.67,-626.37 629.14,-620.01 618.55,-619.7 620.67,-626.37"/>
</g>
<!-- Node21 -->
<g id="node21" class="node">
<title>Node21</title>
<g id="a_node21"><a xlink:href="driver__super_8c.html#ac08f8c480a922624b49921ed953f71be" target="_top" xlink:title=" ">
<polygon fill="white" stroke="black" points="623.5,-551.5 623.5,-570.5 740.5,-570.5 740.5,-551.5 623.5,-551.5"/>
<text text-anchor="middle" x="682" y="-558.5" font-family="Helvetica,sans-Serif" font-size="10.00">DSSC_set_rx_header</text>
</a>
</g>
</g>
<!-- Node13&#45;&gt;Node21 -->
<g id="edge21" class="edge">
<title>Node13&#45;&gt;Node21</title>
<path fill="none" stroke="midnightblue" d="M511.18,-655.86C528.49,-635.41 562.2,-599.3 599,-580 603.57,-577.6 608.45,-575.5 613.45,-573.67"/>
<polygon fill="midnightblue" stroke="midnightblue" points="614.79,-576.91 623.19,-570.45 612.6,-570.26 614.79,-576.91"/>
</g>
<!-- Node22 -->
<g id="node22" class="node">
<title>Node22</title>
<g id="a_node22"><a xlink:href="driver__super_8c.html#a42c80644b6772ae2596e20b75804c0c3" target="_top" xlink:title=" ">
<polygon fill="white" stroke="black" points="625.5,-513.5 625.5,-532.5 738.5,-532.5 738.5,-513.5 625.5,-513.5"/>
<text text-anchor="middle" x="682" y="-520.5" font-family="Helvetica,sans-Serif" font-size="10.00">DSSC_set_tx_frame</text>
</a>
</g>
</g>
<!-- Node13&#45;&gt;Node22 -->
<g id="edge22" class="edge">
<title>Node13&#45;&gt;Node22</title>
<path fill="none" stroke="midnightblue" d="M506.25,-655.92C520.19,-628.63 553.42,-571.19 599,-542 604.05,-538.77 609.58,-536.09 615.31,-533.86"/>
<polygon fill="midnightblue" stroke="midnightblue" points="616.77,-537.06 625.1,-530.52 614.51,-530.43 616.77,-537.06"/>
</g>
<!-- Node23 -->
<g id="node23" class="node">
<title>Node23</title>
<g id="a_node23"><a xlink:href="driver__super_8c.html#a9907f5844f74f6b8218993911bdc2735" target="_top" xlink:title=" ">
<polygon fill="white" stroke="black" points="613.5,-475.5 613.5,-494.5 750.5,-494.5 750.5,-475.5 613.5,-475.5"/>
<text text-anchor="middle" x="682" y="-482.5" font-family="Helvetica,sans-Serif" font-size="10.00">DSSC_set_tx_frame_size</text>
</a>
</g>
</g>
<!-- Node13&#45;&gt;Node23 -->
<g id="edge23" class="edge">
<title>Node13&#45;&gt;Node23</title>
<path fill="none" stroke="midnightblue" d="M503.5,-655.99C514.21,-622.94 544.5,-543.69 599,-504 601.66,-502.06 604.48,-500.32 607.42,-498.75"/>
<polygon fill="midnightblue" stroke="midnightblue" points="608.92,-501.92 616.54,-494.56 606,-495.56 608.92,-501.92"/>
</g>
<!-- Node24 -->
<g id="node24" class="node">
<title>Node24</title>
<g id="a_node24"><a xlink:href="gs_8c.html#a71a6268f1b467c60429c671e47e51e1d" target="_top" xlink:title="地上からの受信データ解析関数">
<polygon fill="white" stroke="black" points="619,-437.5 619,-456.5 745,-456.5 745,-437.5 619,-437.5"/>
<text text-anchor="middle" x="682" y="-444.5" font-family="Helvetica,sans-Serif" font-size="10.00">GS_analyze_rec_data_</text>
</a>
</g>
</g>
<!-- Node13&#45;&gt;Node24 -->
<g id="edge24" class="edge">
<title>Node13&#45;&gt;Node24</title>
<path fill="none" stroke="midnightblue" d="M501.76,-655.85C509.57,-617.6 535.49,-516.56 599,-466 602.19,-463.46 605.66,-461.25 609.3,-459.33"/>
<polygon fill="midnightblue" stroke="midnightblue" points="611,-462.4 618.68,-455.11 608.13,-456.02 611,-462.4"/>
</g>
<!-- Node25 -->
<g id="node25" class="node">
<title>Node25</title>
<g id="a_node25"><a xlink:href="driver__super_8c.html#adf1f7d5bc6090bf72962786be28d0b9d" target="_top" xlink:title=" ">
<polygon fill="white" stroke="black" points="820.5,-475.5 820.5,-494.5 933.5,-494.5 933.5,-475.5 820.5,-475.5"/>
<text text-anchor="middle" x="877" y="-482.5" font-family="Helvetica,sans-Serif" font-size="10.00">DSSC_get_rx_frame</text>
</a>
</g>
</g>
<!-- Node24&#45;&gt;Node25 -->
<g id="edge25" class="edge">
<title>Node24&#45;&gt;Node25</title>
<path fill="none" stroke="midnightblue" d="M731.7,-456.59C757.86,-461.74 790.28,-468.12 817.77,-473.53"/>
<polygon fill="midnightblue" stroke="midnightblue" points="817.16,-476.98 827.65,-475.48 818.51,-470.11 817.16,-476.98"/>
</g>
<!-- Node26 -->
<g id="node26" class="node">
<title>Node26</title>
<g id="a_node26"><a xlink:href="gs__validate_8c.html#a9e8584656da1d94102639deb6702179e" target="_top" xlink:title="tc_frame の検証">
<polygon fill="white" stroke="black" points="815,-437.5 815,-456.5 939,-456.5 939,-437.5 815,-437.5"/>
<text text-anchor="middle" x="877" y="-444.5" font-family="Helvetica,sans-Serif" font-size="10.00">GS_validate_tc_frame</text>
</a>
</g>
</g>
<!-- Node24&#45;&gt;Node26 -->
<g id="edge26" class="edge">
<title>Node24&#45;&gt;Node26</title>
<path fill="none" stroke="midnightblue" d="M745.13,-447C764.18,-447 785.28,-447 804.88,-447"/>
<polygon fill="midnightblue" stroke="midnightblue" points="804.98,-450.5 814.98,-447 804.98,-443.5 804.98,-450.5"/>
</g>
<!-- Node54 -->
<g id="node38" class="node">
<title>Node54</title>
<g id="a_node38"><a xlink:href="packet__handler_8c.html#a9d16c8b958f0f983cf15674d6c528b02" target="_top" xlink:title="CCP を解析する">
<polygon fill="white" stroke="black" points="808.5,-171.5 808.5,-190.5 945.5,-190.5 945.5,-171.5 808.5,-171.5"/>
<text text-anchor="middle" x="877" y="-178.5" font-family="Helvetica,sans-Serif" font-size="10.00">PH_analyze_cmd_packet</text>
</a>
</g>
</g>
<!-- Node24&#45;&gt;Node54 -->
<g id="edge39" class="edge">
<title>Node24&#45;&gt;Node54</title>
<path fill="none" stroke="midnightblue" d="M690.1,-437.22C718.71,-397.78 825.83,-250.14 863.11,-198.76"/>
<polygon fill="midnightblue" stroke="midnightblue" points="866,-200.74 869.04,-190.59 860.34,-196.63 866,-200.74"/>
</g>
<!-- Node27 -->
<g id="node27" class="node">
<title>Node27</title>
<g id="a_node27"><a xlink:href="gs__validate_8c.html#aaf57603b3217830c620f10440ff700df" target="_top" xlink:title=" ">
<polygon fill="white" stroke="black" points="1001,-570.5 1001,-589.5 1114,-589.5 1114,-570.5 1001,-570.5"/>
<text text-anchor="middle" x="1057.5" y="-577.5" font-family="Helvetica,sans-Serif" font-size="10.00">GS_check_ad_cmd_</text>
</a>
</g>
</g>
<!-- Node26&#45;&gt;Node27 -->
<g id="edge27" class="edge">
<title>Node26&#45;&gt;Node27</title>
<path fill="none" stroke="midnightblue" d="M938.41,-456.59C943.71,-459.07 948.69,-462.16 953,-466 986.7,-496.05 955.7,-530.51 989,-561 990.71,-562.57 992.55,-564.01 994.47,-565.33"/>
<polygon fill="midnightblue" stroke="midnightblue" points="993,-568.52 1003.43,-570.41 996.46,-562.43 993,-568.52"/>
</g>
<!-- Node46 -->
<g id="node30" class="node">
<title>Node46</title>
<g id="a_node30"><a xlink:href="gs__validate_8c.html#a84b7f68b65ac893636653398012a7866" target="_top" xlink:title=" ">
<polygon fill="white" stroke="black" points="1001.5,-532.5 1001.5,-551.5 1113.5,-551.5 1113.5,-532.5 1001.5,-532.5"/>
<text text-anchor="middle" x="1057.5" y="-539.5" font-family="Helvetica,sans-Serif" font-size="10.00">GS_check_bc_cmd_</text>
</a>
</g>
</g>
<!-- Node26&#45;&gt;Node46 -->
<g id="edge30" class="edge">
<title>Node26&#45;&gt;Node46</title>
<path fill="none" stroke="midnightblue" d="M935.36,-456.6C941.64,-459.05 947.67,-462.13 953,-466 977.25,-483.6 964.98,-505.08 989,-523 991.51,-524.87 994.19,-526.55 996.98,-528.07"/>
<polygon fill="midnightblue" stroke="midnightblue" points="995.69,-531.33 1006.24,-532.38 998.65,-524.99 995.69,-531.33"/>
</g>
<!-- Node47 -->
<g id="node31" class="node">
<title>Node47</title>
<g id="a_node31"><a xlink:href="gs__validate_8c.html#ade886529947636f12095d299135cbfde" target="_top" xlink:title=" ">
<polygon fill="white" stroke="black" points="1001,-494.5 1001,-513.5 1114,-513.5 1114,-494.5 1001,-494.5"/>
<text text-anchor="middle" x="1057.5" y="-501.5" font-family="Helvetica,sans-Serif" font-size="10.00">GS_check_bd_cmd_</text>
</a>
</g>
</g>
<!-- Node26&#45;&gt;Node47 -->
<g id="edge31" class="edge">
<title>Node26&#45;&gt;Node47</title>
<path fill="none" stroke="midnightblue" d="M922.96,-456.54C932.99,-459.18 943.47,-462.34 953,-466 969.89,-472.49 972.2,-478.29 989,-485 994.86,-487.34 1001.12,-489.51 1007.37,-491.49"/>
<polygon fill="midnightblue" stroke="midnightblue" points="1006.54,-494.9 1017.13,-494.43 1008.56,-488.19 1006.54,-494.9"/>
</g>
<!-- Node48 -->
<g id="node32" class="node">
<title>Node48</title>
<g id="a_node32"><a xlink:href="gs__validate_8c.html#a5660d6b01f6459cbe6c2e284f1b45891" target="_top" xlink:title=" ">
<polygon fill="white" stroke="black" points="1008.5,-456.5 1008.5,-475.5 1106.5,-475.5 1106.5,-456.5 1008.5,-456.5"/>
<text text-anchor="middle" x="1057.5" y="-463.5" font-family="Helvetica,sans-Serif" font-size="10.00">GS_check_fecw_</text>
</a>
</g>
</g>
<!-- Node26&#45;&gt;Node48 -->
<g id="edge33" class="edge">
<title>Node26&#45;&gt;Node48</title>
<path fill="none" stroke="midnightblue" d="M939.43,-453.54C958.58,-455.58 979.62,-457.82 998.53,-459.83"/>
<polygon fill="midnightblue" stroke="midnightblue" points="998.17,-463.31 1008.49,-460.89 998.92,-456.35 998.17,-463.31"/>
</g>
<!-- Node49 -->
<g id="node33" class="node">
<title>Node49</title>
<g id="a_node33"><a xlink:href="gs__validate_8c.html#a74139046c9d543e8106484acdeecb8d3" target="_top" xlink:title=" ">
<polygon fill="white" stroke="black" points="994.5,-418.5 994.5,-437.5 1120.5,-437.5 1120.5,-418.5 994.5,-418.5"/>
<text text-anchor="middle" x="1057.5" y="-425.5" font-family="Helvetica,sans-Serif" font-size="10.00">GS_check_tcf_header_</text>
</a>
</g>
</g>
<!-- Node26&#45;&gt;Node49 -->
<g id="edge34" class="edge">
<title>Node26&#45;&gt;Node49</title>
<path fill="none" stroke="midnightblue" d="M939.43,-440.46C953.85,-438.93 969.35,-437.28 984.2,-435.7"/>
<polygon fill="midnightblue" stroke="midnightblue" points="984.78,-439.15 994.35,-434.62 984.04,-432.19 984.78,-439.15"/>
</g>
<!-- Node52 -->
<g id="node36" class="node">
<title>Node52</title>
<g id="a_node36"><a xlink:href="_t_c_frame_8c.html#a51c2ff49351bbe9db73730fe65c93233" target="_top" xlink:title=" ">
<polygon fill="white" stroke="black" points="1002.5,-380.5 1002.5,-399.5 1112.5,-399.5 1112.5,-380.5 1002.5,-380.5"/>
<text text-anchor="middle" x="1057.5" y="-387.5" font-family="Helvetica,sans-Serif" font-size="10.00">TCF_get_frame_len</text>
</a>
</g>
</g>
<!-- Node26&#45;&gt;Node52 -->
<g id="edge37" class="edge">
<title>Node26&#45;&gt;Node52</title>
<path fill="none" stroke="midnightblue" d="M904.78,-437.37C927.18,-429.42 960.02,-418.03 989,-409 996.19,-406.76 1003.85,-404.49 1011.33,-402.34"/>
<polygon fill="midnightblue" stroke="midnightblue" points="1012.35,-405.69 1021.01,-399.59 1010.43,-398.96 1012.35,-405.69"/>
</g>
<!-- Node53 -->
<g id="node37" class="node">
<title>Node53</title>
<g id="a_node37"><a xlink:href="_t_c_frame_8c.html#a8a5d82abf326db4fbaf4b8acfafda642" target="_top" xlink:title=" ">
<polygon fill="white" stroke="black" points="1016,-342.5 1016,-361.5 1099,-361.5 1099,-342.5 1016,-342.5"/>
<text text-anchor="middle" x="1057.5" y="-349.5" font-family="Helvetica,sans-Serif" font-size="10.00">TCF_get_type</text>
</a>
</g>
</g>
<!-- Node26&#45;&gt;Node53 -->
<g id="edge38" class="edge">
<title>Node26&#45;&gt;Node53</title>
<path fill="none" stroke="midnightblue" d="M889.22,-437.44C908.45,-421.52 949.44,-389.5 989,-371 994.37,-368.49 1000.14,-366.25 1005.96,-364.26"/>
<polygon fill="midnightblue" stroke="midnightblue" points="1007.27,-367.52 1015.75,-361.16 1005.16,-360.84 1007.27,-367.52"/>
</g>
<!-- Node28 -->
<g id="node28" class="node">
<title>Node28</title>
<g id="a_node28"><a xlink:href="gs__validate_8c.html#a2d851e14b61c170707282426f1a3d822" target="_top" xlink:title=" ">
<polygon fill="white" stroke="red" points="1165,-513.5 1165,-532.5 1299,-532.5 1299,-513.5 1165,-513.5"/>
<text text-anchor="middle" x="1232" y="-520.5" font-family="Helvetica,sans-Serif" font-size="10.00">GS_check_tcf_contents_</text>
</a>
</g>
</g>
<!-- Node27&#45;&gt;Node28 -->
<g id="edge28" class="edge">
<title>Node27&#45;&gt;Node28</title>
<path fill="none" stroke="midnightblue" d="M1094.38,-570.42C1104.64,-567.55 1115.8,-564.28 1126,-561 1149.79,-553.36 1176.25,-543.78 1196.65,-536.15"/>
<polygon fill="midnightblue" stroke="midnightblue" points="1198.02,-539.37 1206.14,-532.58 1195.55,-532.82 1198.02,-539.37"/>
</g>
<!-- Node45 -->
<g id="node29" class="node">
<title>Node45</title>
<g id="a_node29"><a xlink:href="_t_c_frame_8c.html#ae24783beaa1ebc5af4b55c18fb7673b4" target="_top" xlink:title=" ">
<polygon fill="white" stroke="black" points="1162,-570.5 1162,-589.5 1302,-589.5 1302,-570.5 1162,-570.5"/>
<text text-anchor="middle" x="1232" y="-577.5" font-family="Helvetica,sans-Serif" font-size="10.00">TCF_get_frame_seq_num</text>
</a>
</g>
</g>
<!-- Node27&#45;&gt;Node45 -->
<g id="edge29" class="edge">
<title>Node27&#45;&gt;Node45</title>
<path fill="none" stroke="midnightblue" d="M1114.03,-580C1126.08,-580 1139.04,-580 1151.8,-580"/>
<polygon fill="midnightblue" stroke="midnightblue" points="1151.97,-583.5 1161.97,-580 1151.97,-576.5 1151.97,-583.5"/>
</g>
<!-- Node47&#45;&gt;Node28 -->
<g id="edge32" class="edge">
<title>Node47&#45;&gt;Node28</title>
<path fill="none" stroke="midnightblue" d="M1114.03,-510.12C1126.9,-511.53 1140.82,-513.07 1154.42,-514.57"/>
<polygon fill="midnightblue" stroke="midnightblue" points="1154.41,-518.08 1164.73,-515.7 1155.17,-511.13 1154.41,-518.08"/>
</g>
<!-- Node50 -->
<g id="node34" class="node">
<title>Node50</title>
<g id="a_node34"><a xlink:href="_t_c_frame_8c.html#a5f478a4f679efc9097899d4807bdf14a" target="_top" xlink:title=" ">
<polygon fill="white" stroke="black" points="1191.5,-437.5 1191.5,-456.5 1272.5,-456.5 1272.5,-437.5 1191.5,-437.5"/>
<text text-anchor="middle" x="1232" y="-444.5" font-family="Helvetica,sans-Serif" font-size="10.00">TCF_get_vcid</text>
</a>
</g>
</g>
<!-- Node49&#45;&gt;Node50 -->
<g id="edge35" class="edge">
<title>Node49&#45;&gt;Node50</title>
<path fill="none" stroke="midnightblue" d="M1120.78,-434.86C1140.64,-437.05 1162.36,-439.44 1181.22,-441.52"/>
<polygon fill="midnightblue" stroke="midnightblue" points="1181.05,-445.02 1191.37,-442.64 1181.81,-438.06 1181.05,-445.02"/>
</g>
<!-- Node51 -->
<g id="node35" class="node">
<title>Node51</title>
<g id="a_node35"><a xlink:href="_t_c_frame_8c.html#ad8eb293e8d4ba07d2e7a63a1f0a427a9" target="_top" xlink:title=" ">
<polygon fill="white" stroke="black" points="1193.5,-399.5 1193.5,-418.5 1270.5,-418.5 1270.5,-399.5 1193.5,-399.5"/>
<text text-anchor="middle" x="1232" y="-406.5" font-family="Helvetica,sans-Serif" font-size="10.00">TCF_get_ver</text>
</a>
</g>
</g>
<!-- Node49&#45;&gt;Node51 -->
<g id="edge36" class="edge">
<title>Node49&#45;&gt;Node51</title>
<path fill="none" stroke="midnightblue" d="M1120.78,-421.14C1141.39,-418.87 1163.99,-416.38 1183.33,-414.25"/>
<polygon fill="midnightblue" stroke="midnightblue" points="1183.85,-417.71 1193.41,-413.14 1183.09,-410.76 1183.85,-417.71"/>
</g>
<!-- Node55 -->
<g id="node39" class="node">
<title>Node55</title>
<g id="a_node39"><a xlink:href="common__cmd__packet_8h.html#a63dd7518abfbd0e6cedf6af2f376d854" target="_top" xlink:title="EXEC_TYPE を取得">
<polygon fill="white" stroke="red" points="1001.5,-304.5 1001.5,-323.5 1113.5,-323.5 1113.5,-304.5 1001.5,-304.5"/>
<text text-anchor="middle" x="1057.5" y="-311.5" font-family="Helvetica,sans-Serif" font-size="10.00">CCP_get_exec_type</text>
</a>
</g>
</g>
<!-- Node54&#45;&gt;Node55 -->
<g id="edge40" class="edge">
<title>Node54&#45;&gt;Node55</title>
<path fill="none" stroke="midnightblue" d="M884.56,-190.59C900.07,-212.53 941.28,-266.62 989,-295 992.65,-297.17 996.56,-299.1 1000.58,-300.82"/>
<polygon fill="midnightblue" stroke="midnightblue" points="999.55,-304.17 1010.14,-304.45 1002.03,-297.63 999.55,-304.17"/>
</g>
<!-- Node57 -->
<g id="node40" class="node">
<title>Node57</title>
<g id="a_node40"><a xlink:href="common__cmd__packet_8h.html#add63f4e739670d463f6ace1f55fa3d48" target="_top" xlink:title="有効なパケットかチェックする">
<polygon fill="white" stroke="red" points="999.5,-266.5 999.5,-285.5 1115.5,-285.5 1115.5,-266.5 999.5,-266.5"/>
<text text-anchor="middle" x="1057.5" y="-273.5" font-family="Helvetica,sans-Serif" font-size="10.00">CCP_is_valid_packet</text>
</a>
</g>
</g>
<!-- Node54&#45;&gt;Node57 -->
<g id="edge41" class="edge">
<title>Node54&#45;&gt;Node57</title>
<path fill="none" stroke="midnightblue" d="M889.22,-190.56C908.45,-206.48 949.44,-238.5 989,-257 993.96,-259.32 999.27,-261.41 1004.64,-263.28"/>
<polygon fill="midnightblue" stroke="midnightblue" points="1003.73,-266.67 1014.32,-266.42 1005.88,-260.01 1003.73,-266.67"/>
</g>
<!-- Node62 -->
<g id="node41" class="node">
<title>Node62</title>
<g id="a_node41"><a xlink:href="packet__handler_8c.html#a7877bd048a812eccc6e5e32a48e4198d" target="_top" xlink:title=" ">
<polygon fill="white" stroke="red" points="1007,-228.5 1007,-247.5 1108,-247.5 1108,-228.5 1007,-228.5"/>
<text text-anchor="middle" x="1057.5" y="-235.5" font-family="Helvetica,sans-Serif" font-size="10.00">PH_add_gs_cmd_</text>
</a>
</g>
</g>
<!-- Node54&#45;&gt;Node62 -->
<g id="edge42" class="edge">
<title>Node54&#45;&gt;Node62</title>
<path fill="none" stroke="midnightblue" d="M904.78,-190.63C927.18,-198.58 960.02,-209.97 989,-219 996.19,-221.24 1003.85,-223.51 1011.33,-225.66"/>
<polygon fill="midnightblue" stroke="midnightblue" points="1010.43,-229.04 1021.01,-228.41 1012.35,-222.31 1010.43,-229.04"/>
</g>
<!-- Node65 -->
<g id="node42" class="node">
<title>Node65</title>
<g id="a_node42"><a xlink:href="packet__handler_8c.html#a8d281dc795ac227a6631832887234892" target="_top" xlink:title=" ">
<polygon fill="white" stroke="red" points="1008.5,-190.5 1008.5,-209.5 1106.5,-209.5 1106.5,-190.5 1008.5,-190.5"/>
<text text-anchor="middle" x="1057.5" y="-197.5" font-family="Helvetica,sans-Serif" font-size="10.00">PH_add_rt_cmd_</text>
</a>
</g>
</g>
<!-- Node54&#45;&gt;Node65 -->
<g id="edge43" class="edge">
<title>Node54&#45;&gt;Node65</title>
<path fill="none" stroke="midnightblue" d="M945.74,-188.21C962.97,-190.04 981.34,-192 998.07,-193.78"/>
<polygon fill="midnightblue" stroke="midnightblue" points="997.93,-197.29 1008.24,-194.86 998.67,-190.32 997.93,-197.29"/>
</g>
<!-- Node66 -->
<g id="node43" class="node">
<title>Node66</title>
<g id="a_node43"><a xlink:href="packet__handler_8c.html#a31e4fc656d51d4b675d88e6c023cc50e" target="_top" xlink:title=" ">
<polygon fill="white" stroke="red" points="1183.5,-136.5 1183.5,-155.5 1280.5,-155.5 1280.5,-136.5 1183.5,-136.5"/>
<text text-anchor="middle" x="1232" y="-143.5" font-family="Helvetica,sans-Serif" font-size="10.00">PH_add_tl_cmd_</text>
</a>
</g>
</g>
<!-- Node54&#45;&gt;Node66 -->
<g id="edge44" class="edge">
<title>Node54&#45;&gt;Node66</title>
<path fill="none" stroke="midnightblue" d="M945.64,-174.29C1011.64,-167.75 1110.94,-157.9 1173.31,-151.72"/>
<polygon fill="midnightblue" stroke="midnightblue" points="1173.76,-155.19 1183.37,-150.72 1173.07,-148.23 1173.76,-155.19"/>
</g>
<!-- Node76 -->
<g id="node44" class="node">
<title>Node76</title>
<g id="a_node44"><a xlink:href="packet__handler_8c.html#aaee24b7aac3411a855ab68922e605325" target="_top" xlink:title="UTL_cmd を TL_cmd に変換して tl_cmd_list に追加する">
<polygon fill="white" stroke="red" points="1006,-114.5 1006,-133.5 1109,-133.5 1109,-114.5 1006,-114.5"/>
<text text-anchor="middle" x="1057.5" y="-121.5" font-family="Helvetica,sans-Serif" font-size="10.00">PH_add_utl_cmd_</text>
</a>
</g>
</g>
<!-- Node54&#45;&gt;Node76 -->
<g id="edge45" class="edge">
<title>Node54&#45;&gt;Node76</title>
<path fill="none" stroke="midnightblue" d="M907.88,-171.46C937.74,-161.92 983.83,-147.21 1016.76,-136.69"/>
<polygon fill="midnightblue" stroke="midnightblue" points="1018.06,-139.95 1026.53,-133.57 1015.93,-133.28 1018.06,-139.95"/>
</g>
<!-- Node85 -->
<g id="node45" class="node">
<title>Node85</title>
<g id="a_node45"><a xlink:href="time__manager_8c.html#a576e42803f8f3896524dbb266a47a08f" target="_top" xlink:title="現在の total_cycle を返す">
<polygon fill="white" stroke="red" points="1165,-79 1165,-109 1299,-109 1299,-79 1165,-79"/>
<text text-anchor="start" x="1173" y="-97" font-family="Helvetica,sans-Serif" font-size="10.00">TMGR_get_master_total</text>
<text text-anchor="middle" x="1232" y="-86" font-family="Helvetica,sans-Serif" font-size="10.00">_cycle</text>
</a>
</g>
</g>
<!-- Node54&#45;&gt;Node85 -->
<g id="edge50" class="edge">
<title>Node54&#45;&gt;Node85</title>
<path fill="none" stroke="midnightblue" d="M887.94,-171.26C906.16,-154.12 946.92,-119.08 989,-105 1042.34,-87.15 1105.99,-84.95 1154.63,-86.92"/>
<polygon fill="midnightblue" stroke="midnightblue" points="1154.62,-90.42 1164.77,-87.4 1154.95,-83.43 1154.62,-90.42"/>
</g>
<!-- Node92 -->
<g id="node46" class="node">
<title>Node92</title>
<g id="a_node46"><a xlink:href="packet__handler_8c.html#add0165039b8b49d3d6f06ae929a8310e" target="_top" xlink:title=" ">
<polygon fill="white" stroke="red" points="989,-38.5 989,-57.5 1126,-57.5 1126,-38.5 989,-38.5"/>
<text text-anchor="middle" x="1057.5" y="-45.5" font-family="Helvetica,sans-Serif" font-size="10.00">PH_analyze_block_cmd_</text>
</a>
</g>
</g>
<!-- Node54&#45;&gt;Node92 -->
<g id="edge48" class="edge">
<title>Node54&#45;&gt;Node92</title>
<path fill="none" stroke="midnightblue" d="M885.28,-171.43C901.64,-150.56 943.43,-100.5 989,-72 995.75,-67.78 1003.34,-64.17 1010.93,-61.13"/>
<polygon fill="midnightblue" stroke="midnightblue" points="1012.33,-64.34 1020.48,-57.58 1009.89,-57.78 1012.33,-64.34"/>
</g>
<!-- Node100 -->
<g id="node47" class="node">
<title>Node100</title>
<g id="a_node47"><a xlink:href="user__packet__handler_8c.html#a6ceb9e37114f6c81c6872ec90dd2a39d" target="_top" xlink:title="PHのanalyze_cmd_のユーザー処理関数">
<polygon fill="white" stroke="red" points="994.5,-0.5 994.5,-19.5 1120.5,-19.5 1120.5,-0.5 994.5,-0.5"/>
<text text-anchor="middle" x="1057.5" y="-7.5" font-family="Helvetica,sans-Serif" font-size="10.00">PH_user_analyze_cmd</text>
</a>
</g>
</g>
<!-- Node54&#45;&gt;Node100 -->
<g id="edge49" class="edge">
<title>Node54&#45;&gt;Node100</title>
<path fill="none" stroke="midnightblue" d="M882.18,-171.45C894.42,-144.62 932.91,-67.97 989,-29 991.89,-26.99 994.98,-25.2 998.2,-23.59"/>
<polygon fill="midnightblue" stroke="midnightblue" points="999.75,-26.74 1007.53,-19.55 996.96,-20.31 999.75,-26.74"/>
</g>
<!-- Node76&#45;&gt;Node66 -->
<g id="edge46" class="edge">
<title>Node76&#45;&gt;Node66</title>
<path fill="none" stroke="midnightblue" d="M1109.32,-130.48C1129.48,-133.05 1152.76,-136.02 1173.52,-138.67"/>
<polygon fill="midnightblue" stroke="midnightblue" points="1173.13,-142.15 1183.49,-139.94 1174.02,-135.2 1173.13,-142.15"/>
</g>
<!-- Node76&#45;&gt;Node85 -->
<g id="edge47" class="edge">
<title>Node76&#45;&gt;Node85</title>
<path fill="none" stroke="midnightblue" d="M1109.32,-115.16C1123.59,-112.68 1139.42,-109.93 1154.82,-107.25"/>
<polygon fill="midnightblue" stroke="midnightblue" points="1155.6,-110.67 1164.85,-105.5 1154.4,-103.77 1155.6,-110.67"/>
</g>
<!-- Node105&#45;&gt;Node13 -->
<g id="edge52" class="edge">
<title>Node105&#45;&gt;Node13</title>
<path fill="none" stroke="midnightblue" d="M395.67,-671C404.48,-671 413.67,-671 422.75,-671"/>
<polygon fill="midnightblue" stroke="midnightblue" points="422.94,-674.5 432.94,-671 422.94,-667.5 422.94,-674.5"/>
</g>
</g>
</svg>
