<?xml version="1.0" encoding="UTF-8" standalone="no"?>
<!DOCTYPE svg PUBLIC "-//W3C//DTD SVG 1.1//EN"
 "http://www.w3.org/Graphics/SVG/1.1/DTD/svg11.dtd">
<!-- Generated by graphviz version 2.43.0 (0)
 -->
<!-- Title: DI_GS_cmd_packet_handler_init_ Pages: 1 -->
<svg width="1429pt" height="905pt"
 viewBox="0.00 0.00 1429.00 904.50" xmlns="http://www.w3.org/2000/svg" xmlns:xlink="http://www.w3.org/1999/xlink">
<g id="graph0" class="graph" transform="scale(1 1) rotate(0) translate(4 900.5)">
<title>DI_GS_cmd_packet_handler_init_</title>
<polygon fill="white" stroke="transparent" points="-4,4 -4,-900.5 1425,-900.5 1425,4 -4,4"/>
<!-- Node1 -->
<g id="node1" class="node">
<title>Node1</title>
<g id="a_node1"><a xlink:title=" ">
<polygon fill="#bfbfbf" stroke="black" points="0,-509 0,-539 152,-539 152,-509 0,-509"/>
<text text-anchor="start" x="8" y="-527" font-family="Helvetica,sans-Serif" font-size="10.00">DI_GS_cmd_packet_handler</text>
<text text-anchor="middle" x="76" y="-516" font-family="Helvetica,sans-Serif" font-size="10.00">_init_</text>
</a>
</g>
</g>
<!-- Node2 -->
<g id="node2" class="node">
<title>Node2</title>
<g id="a_node2"><a xlink:href="gs_8c.html#a3cda832b6c75f514dfb566fa49b59127" target="_top" xlink:title="Driver の初期化">
<polygon fill="white" stroke="black" points="188,-533.5 188,-552.5 239,-552.5 239,-533.5 188,-533.5"/>
<text text-anchor="middle" x="213.5" y="-540.5" font-family="Helvetica,sans-Serif" font-size="10.00">GS_init</text>
</a>
</g>
</g>
<!-- Node1&#45;&gt;Node2 -->
<g id="edge1" class="edge">
<title>Node1&#45;&gt;Node2</title>
<path fill="none" stroke="midnightblue" d="M152.28,-534.56C161.07,-535.79 169.7,-537 177.55,-538.1"/>
<polygon fill="midnightblue" stroke="midnightblue" points="177.32,-541.6 187.71,-539.52 178.3,-534.67 177.32,-541.6"/>
</g>
<!-- Node101 -->
<g id="node50" class="node">
<title>Node101</title>
<g id="a_node50"><a xlink:href="src__core_2_library_2print_8c.html#a4bc499fc724de87725ee7dc60ed1d106" target="_top" xlink:title=" ">
<polygon fill="white" stroke="black" points="192,-495.5 192,-514.5 235,-514.5 235,-495.5 192,-495.5"/>
<text text-anchor="middle" x="213.5" y="-502.5" font-family="Helvetica,sans-Serif" font-size="10.00">Printf</text>
</a>
</g>
</g>
<!-- Node1&#45;&gt;Node101 -->
<g id="edge55" class="edge">
<title>Node1&#45;&gt;Node101</title>
<path fill="none" stroke="midnightblue" d="M152.28,-513.44C162.79,-511.97 173.05,-510.53 182.04,-509.27"/>
<polygon fill="midnightblue" stroke="midnightblue" points="182.53,-512.74 191.95,-507.88 181.56,-505.8 182.53,-512.74"/>
</g>
<!-- Node3 -->
<g id="node3" class="node">
<title>Node3</title>
<g id="a_node3"><a xlink:href="driver__super_8c.html#ae53312061d6acbd24edd316d126c7dea" target="_top" xlink:title="継承先の機器よりDriverSuperを初期化する">
<polygon fill="white" stroke="black" points="310.5,-745.5 310.5,-764.5 361.5,-764.5 361.5,-745.5 310.5,-745.5"/>
<text text-anchor="middle" x="336" y="-752.5" font-family="Helvetica,sans-Serif" font-size="10.00">DS_init</text>
</a>
</g>
</g>
<!-- Node2&#45;&gt;Node3 -->
<g id="edge2" class="edge">
<title>Node2&#45;&gt;Node3</title>
<path fill="none" stroke="midnightblue" d="M219.99,-552.66C238.61,-585.43 299.59,-692.71 324.38,-736.32"/>
<polygon fill="midnightblue" stroke="midnightblue" points="321.49,-738.32 329.48,-745.28 327.58,-734.86 321.49,-738.32"/>
</g>
<!-- Node12 -->
<g id="node12" class="node">
<title>Node12</title>
<g id="a_node12"><a xlink:href="gs_8c.html#a4621f4390191b12c281982f635516f67" target="_top" xlink:title="CCSDS 側 Driver の DS 上での初期化設定">
<polygon fill="white" stroke="black" points="275,-553 275,-583 397,-583 397,-553 275,-553"/>
<text text-anchor="start" x="283" y="-571" font-family="Helvetica,sans-Serif" font-size="10.00">GS_load_ccsds_driver</text>
<text text-anchor="middle" x="336" y="-560" font-family="Helvetica,sans-Serif" font-size="10.00">_super_init_settings_</text>
</a>
</g>
</g>
<!-- Node2&#45;&gt;Node12 -->
<g id="edge12" class="edge">
<title>Node2&#45;&gt;Node12</title>
<path fill="none" stroke="midnightblue" d="M239.18,-548.12C246.81,-549.7 255.63,-551.53 264.77,-553.43"/>
<polygon fill="midnightblue" stroke="midnightblue" points="264.27,-556.9 274.77,-555.5 265.69,-550.05 264.27,-556.9"/>
</g>
<!-- Node99 -->
<g id="node48" class="node">
<title>Node99</title>
<g id="a_node48"><a xlink:href="gs_8c.html#a940de224a6d318a15603b46983cf69ea" target="_top" xlink:title="UART 側 Driver の DS 上での初期化設定">
<polygon fill="white" stroke="black" points="276.5,-504 276.5,-534 395.5,-534 395.5,-504 276.5,-504"/>
<text text-anchor="start" x="284.5" y="-522" font-family="Helvetica,sans-Serif" font-size="10.00">GS_load_uart_driver</text>
<text text-anchor="middle" x="336" y="-511" font-family="Helvetica,sans-Serif" font-size="10.00">_super_init_settings_</text>
</a>
</g>
</g>
<!-- Node2&#45;&gt;Node99 -->
<g id="edge52" class="edge">
<title>Node2&#45;&gt;Node99</title>
<path fill="none" stroke="midnightblue" d="M239.18,-538.09C247.2,-536.49 256.53,-534.63 266.17,-532.71"/>
<polygon fill="midnightblue" stroke="midnightblue" points="267.15,-536.08 276.27,-530.7 265.78,-529.22 267.15,-536.08"/>
</g>
<!-- Node100 -->
<g id="node49" class="node">
<title>Node100</title>
<g id="a_node49"><a xlink:href="gs__validate_8c.html#a6d00a5c9554a05b6b042017982b3224f" target="_top" xlink:title="GS_ValiateInfo の初期化">
<polygon fill="white" stroke="black" points="288,-465.5 288,-484.5 384,-484.5 384,-465.5 288,-465.5"/>
<text text-anchor="middle" x="336" y="-472.5" font-family="Helvetica,sans-Serif" font-size="10.00">GS_validate_init</text>
</a>
</g>
</g>
<!-- Node2&#45;&gt;Node100 -->
<g id="edge54" class="edge">
<title>Node2&#45;&gt;Node100</title>
<path fill="none" stroke="midnightblue" d="M227.03,-533.42C230.89,-530.43 235.14,-527.1 239,-524 255.23,-510.95 256.73,-504 275,-494 278.93,-491.85 283.15,-489.9 287.45,-488.14"/>
<polygon fill="midnightblue" stroke="midnightblue" points="288.8,-491.37 296.95,-484.59 286.36,-484.81 288.8,-491.37"/>
</g>
<!-- Node4 -->
<g id="node4" class="node">
<title>Node4</title>
<g id="a_node4"><a xlink:href="driver__super_8c.html#a7f4bb1ea81bf8d3a89752a0fc875afce" target="_top" xlink:title="DriverSuperのリセット">
<polygon fill="white" stroke="black" points="468,-808.5 468,-827.5 528,-827.5 528,-808.5 468,-808.5"/>
<text text-anchor="middle" x="498" y="-815.5" font-family="Helvetica,sans-Serif" font-size="10.00">DS_reset</text>
</a>
</g>
</g>
<!-- Node3&#45;&gt;Node4 -->
<g id="edge3" class="edge">
<title>Node3&#45;&gt;Node4</title>
<path fill="none" stroke="midnightblue" d="M361.3,-764.57C388.52,-775.28 432.8,-792.72 463.34,-804.75"/>
<polygon fill="midnightblue" stroke="midnightblue" points="462.15,-808.04 472.73,-808.45 464.71,-801.52 462.15,-808.04"/>
</g>
<!-- Node10 -->
<g id="node10" class="node">
<title>Node10</title>
<g id="a_node10"><a xlink:href="driver__super_8c.html#a54c663378f78e30014495b4957a575ff" target="_top" xlink:title="DriverSuperの設定に不整合が生じていないかチェックする">
<polygon fill="white" stroke="black" points="443,-745.5 443,-764.5 553,-764.5 553,-745.5 443,-745.5"/>
<text text-anchor="middle" x="498" y="-752.5" font-family="Helvetica,sans-Serif" font-size="10.00">DS_validate_config</text>
</a>
</g>
</g>
<!-- Node3&#45;&gt;Node10 -->
<g id="edge10" class="edge">
<title>Node3&#45;&gt;Node10</title>
<path fill="none" stroke="midnightblue" d="M361.65,-755C380.6,-755 407.68,-755 432.65,-755"/>
<polygon fill="midnightblue" stroke="midnightblue" points="432.82,-758.5 442.82,-755 432.82,-751.5 432.82,-758.5"/>
</g>
<!-- Node5 -->
<g id="node5" class="node">
<title>Node5</title>
<g id="a_node5"><a xlink:href="driver__super_8c.html#a8183efca88aff7a47cd50b16e83a66ca" target="_top" xlink:title=" ">
<polygon fill="white" stroke="black" points="624,-866 624,-896 740,-896 740,-866 624,-866"/>
<text text-anchor="start" x="632" y="-884" font-family="Helvetica,sans-Serif" font-size="10.00">DS_load_init_setting</text>
<text text-anchor="middle" x="682" y="-873" font-family="Helvetica,sans-Serif" font-size="10.00">_dummy_</text>
</a>
</g>
</g>
<!-- Node4&#45;&gt;Node5 -->
<g id="edge4" class="edge">
<title>Node4&#45;&gt;Node5</title>
<path fill="none" stroke="midnightblue" d="M522.68,-827.51C542.84,-835.49 572.64,-846.98 599,-856 605.78,-858.32 612.9,-860.65 620.01,-862.9"/>
<polygon fill="midnightblue" stroke="midnightblue" points="619.06,-866.27 629.65,-865.92 621.16,-859.59 619.06,-866.27"/>
</g>
<!-- Node6 -->
<g id="node6" class="node">
<title>Node6</title>
<g id="a_node6"><a xlink:href="driver__super_8c.html#a8f518ac0c2785b0b5b3de8d226dc91b6" target="_top" xlink:title="DS_StreamConfig構造体の初期化">
<polygon fill="white" stroke="black" points="612,-827.5 612,-846.5 752,-846.5 752,-827.5 612,-827.5"/>
<text text-anchor="middle" x="682" y="-834.5" font-family="Helvetica,sans-Serif" font-size="10.00">DS_reset_stream_config_</text>
</a>
</g>
</g>
<!-- Node4&#45;&gt;Node6 -->
<g id="edge5" class="edge">
<title>Node4&#45;&gt;Node6</title>
<path fill="none" stroke="midnightblue" d="M528.24,-821.05C548.11,-823.13 575.42,-825.98 601.46,-828.7"/>
<polygon fill="midnightblue" stroke="midnightblue" points="601.43,-832.21 611.74,-829.77 602.16,-825.25 601.43,-832.21"/>
</g>
<!-- Node8 -->
<g id="node8" class="node">
<title>Node8</title>
<g id="a_node8"><a xlink:href="time__manager_8c.html#a9d04b4d9b622cbe5a90cf65e58b828bc" target="_top" xlink:title="現在の master_clock_ を取得する">
<polygon fill="white" stroke="black" points="808.5,-789.5 808.5,-808.5 945.5,-808.5 945.5,-789.5 808.5,-789.5"/>
<text text-anchor="middle" x="877" y="-796.5" font-family="Helvetica,sans-Serif" font-size="10.00">TMGR_get_master_clock</text>
</a>
</g>
</g>
<!-- Node4&#45;&gt;Node8 -->
<g id="edge9" class="edge">
<title>Node4&#45;&gt;Node8</title>
<path fill="none" stroke="midnightblue" d="M528.27,-816.52C585.57,-813.64 714.23,-807.15 797.97,-802.93"/>
<polygon fill="midnightblue" stroke="midnightblue" points="798.39,-806.42 808.2,-802.42 798.04,-799.42 798.39,-806.42"/>
</g>
<!-- Node7 -->
<g id="node7" class="node">
<title>Node7</title>
<g id="a_node7"><a xlink:href="driver__super_8c.html#a17276ca37e76a016ddc12766fda7309f" target="_top" xlink:title=" ">
<polygon fill="white" stroke="black" points="801,-827.5 801,-846.5 953,-846.5 953,-827.5 801,-827.5"/>
<text text-anchor="middle" x="877" y="-834.5" font-family="Helvetica,sans-Serif" font-size="10.00">DS_data_analyzer_dummy_</text>
</a>
</g>
</g>
<!-- Node6&#45;&gt;Node7 -->
<g id="edge6" class="edge">
<title>Node6&#45;&gt;Node7</title>
<path fill="none" stroke="midnightblue" d="M752.13,-837C764.59,-837 777.72,-837 790.58,-837"/>
<polygon fill="midnightblue" stroke="midnightblue" points="790.81,-840.5 800.81,-837 790.81,-833.5 790.81,-840.5"/>
</g>
<!-- Node6&#45;&gt;Node8 -->
<g id="edge7" class="edge">
<title>Node6&#45;&gt;Node8</title>
<path fill="none" stroke="midnightblue" d="M731.7,-827.41C757.86,-822.26 790.28,-815.88 817.77,-810.47"/>
<polygon fill="midnightblue" stroke="midnightblue" points="818.51,-813.89 827.65,-808.52 817.16,-807.02 818.51,-813.89"/>
</g>
<!-- Node9 -->
<g id="node9" class="node">
<title>Node9</title>
<g id="a_node9"><a xlink:href="obc__time_8c.html#a70416835a40bdacbb04f6f06b1e6d1e1" target="_top" xlink:title="引数から ObcTime を作成する">
<polygon fill="white" stroke="black" points="1017.5,-789.5 1017.5,-808.5 1097.5,-808.5 1097.5,-789.5 1017.5,-789.5"/>
<text text-anchor="middle" x="1057.5" y="-796.5" font-family="Helvetica,sans-Serif" font-size="10.00">OBCT_create</text>
</a>
</g>
</g>
<!-- Node8&#45;&gt;Node9 -->
<g id="edge8" class="edge">
<title>Node8&#45;&gt;Node9</title>
<path fill="none" stroke="midnightblue" d="M945.74,-799C966.13,-799 988.11,-799 1007.07,-799"/>
<polygon fill="midnightblue" stroke="midnightblue" points="1007.26,-802.5 1017.26,-799 1007.26,-795.5 1007.26,-802.5"/>
</g>
<!-- Node11 -->
<g id="node11" class="node">
<title>Node11</title>
<g id="a_node11"><a xlink:href="driver__super_8c.html#ad1bdc8947460e5efe01f9970684d06dc" target="_top" xlink:title=" ">
<polygon fill="white" stroke="black" points="624.5,-740 624.5,-770 739.5,-770 739.5,-740 624.5,-740"/>
<text text-anchor="start" x="632.5" y="-758" font-family="Helvetica,sans-Serif" font-size="10.00">DS_validate_stream</text>
<text text-anchor="middle" x="682" y="-747" font-family="Helvetica,sans-Serif" font-size="10.00">_config_</text>
</a>
</g>
</g>
<!-- Node10&#45;&gt;Node11 -->
<g id="edge11" class="edge">
<title>Node10&#45;&gt;Node11</title>
<path fill="none" stroke="midnightblue" d="M553.11,-755C572.3,-755 594.11,-755 614.22,-755"/>
<polygon fill="midnightblue" stroke="midnightblue" points="614.25,-758.5 624.25,-755 614.25,-751.5 614.25,-758.5"/>
</g>
<!-- Node13 -->
<g id="node13" class="node">
<title>Node13</title>
<g id="a_node13"><a xlink:href="gs_8c.html#a77d8b5e22b2b2615c9046060e50a3308" target="_top" xlink:title="上記初期化の共通部分をまとめた関数">
<polygon fill="white" stroke="black" points="433,-504 433,-534 563,-534 563,-504 433,-504"/>
<text text-anchor="start" x="441" y="-522" font-family="Helvetica,sans-Serif" font-size="10.00">GS_load_default_driver</text>
<text text-anchor="middle" x="498" y="-511" font-family="Helvetica,sans-Serif" font-size="10.00">_super_init_settings_</text>
</a>
</g>
</g>
<!-- Node12&#45;&gt;Node13 -->
<g id="edge13" class="edge">
<title>Node12&#45;&gt;Node13</title>
<path fill="none" stroke="midnightblue" d="M386.31,-552.9C402.66,-547.89 421.02,-542.27 438.03,-537.06"/>
<polygon fill="midnightblue" stroke="midnightblue" points="439.32,-540.33 447.85,-534.05 437.27,-533.63 439.32,-540.33"/>
</g>
<!-- Node14 -->
<g id="node14" class="node">
<title>Node14</title>
<g id="a_node14"><a xlink:href="driver__super_8c.html#af0c2601f37b24ce4a3bc94a525a80621" target="_top" xlink:title=" ">
<polygon fill="white" stroke="black" points="641.5,-701.5 641.5,-720.5 722.5,-720.5 722.5,-701.5 641.5,-701.5"/>
<text text-anchor="middle" x="682" y="-708.5" font-family="Helvetica,sans-Serif" font-size="10.00">DSSC_enable</text>
</a>
</g>
</g>
<!-- Node13&#45;&gt;Node14 -->
<g id="edge14" class="edge">
<title>Node13&#45;&gt;Node14</title>
<path fill="none" stroke="midnightblue" d="M503.32,-534.15C513.75,-567.93 543.66,-649.65 599,-691 608.35,-697.99 619.82,-702.56 631.19,-705.55"/>
<polygon fill="midnightblue" stroke="midnightblue" points="630.57,-709 641.1,-707.79 632.11,-702.17 630.57,-709"/>
</g>
<!-- Node15 -->
<g id="node15" class="node">
<title>Node15</title>
<g id="a_node15"><a xlink:href="driver__super_8c.html#a093a693ceac26a42fe3157cae06259ac" target="_top" xlink:title=" ">
<polygon fill="white" stroke="black" points="626.5,-652 626.5,-682 737.5,-682 737.5,-652 626.5,-652"/>
<text text-anchor="start" x="634.5" y="-670" font-family="Helvetica,sans-Serif" font-size="10.00">DSSC_enable_strict</text>
<text text-anchor="middle" x="682" y="-659" font-family="Helvetica,sans-Serif" font-size="10.00">_frame_search</text>
</a>
</g>
</g>
<!-- Node13&#45;&gt;Node15 -->
<g id="edge15" class="edge">
<title>Node13&#45;&gt;Node15</title>
<path fill="none" stroke="midnightblue" d="M507.33,-534.31C522.26,-560.33 556.07,-613.13 599,-642 604.56,-645.74 610.7,-648.94 617.04,-651.67"/>
<polygon fill="midnightblue" stroke="midnightblue" points="615.85,-654.96 626.44,-655.34 618.4,-648.44 615.85,-654.96"/>
</g>
<!-- Node16 -->
<g id="node16" class="node">
<title>Node16</title>
<g id="a_node16"><a xlink:href="driver__super_8c.html#ad65037ea9639ef7c8ade47c1c54bbf2e" target="_top" xlink:title=" ">
<polygon fill="white" stroke="black" points="613.5,-613.5 613.5,-632.5 750.5,-632.5 750.5,-613.5 613.5,-613.5"/>
<text text-anchor="middle" x="682" y="-620.5" font-family="Helvetica,sans-Serif" font-size="10.00">DSSC_set_data_analyzer</text>
</a>
</g>
</g>
<!-- Node13&#45;&gt;Node16 -->
<g id="edge16" class="edge">
<title>Node13&#45;&gt;Node16</title>
<path fill="none" stroke="midnightblue" d="M512.31,-534.09C530.11,-553.32 563.58,-586.18 599,-604 603.81,-606.42 608.94,-608.54 614.19,-610.39"/>
<polygon fill="midnightblue" stroke="midnightblue" points="613.15,-613.73 623.74,-613.45 615.28,-607.07 613.15,-613.73"/>
</g>
<!-- Node17 -->
<g id="node17" class="node">
<title>Node17</title>
<g id="a_node17"><a xlink:href="driver__super_8c.html#a257d3e5ef0b2a07401bc30641d50b69a" target="_top" xlink:title=" ">
<polygon fill="white" stroke="black" points="613.5,-575.5 613.5,-594.5 750.5,-594.5 750.5,-575.5 613.5,-575.5"/>
<text text-anchor="middle" x="682" y="-582.5" font-family="Helvetica,sans-Serif" font-size="10.00">DSSC_set_rx_frame_size</text>
</a>
</g>
</g>
<!-- Node13&#45;&gt;Node17 -->
<g id="edge17" class="edge">
<title>Node13&#45;&gt;Node17</title>
<path fill="none" stroke="midnightblue" d="M528.14,-534.21C547.77,-544 574.46,-556.45 599,-565 607.34,-567.91 616.31,-570.55 625.14,-572.9"/>
<polygon fill="midnightblue" stroke="midnightblue" points="624.45,-576.34 635.01,-575.42 626.18,-569.56 624.45,-576.34"/>
</g>
<!-- Node18 -->
<g id="node18" class="node">
<title>Node18</title>
<g id="a_node18"><a xlink:href="driver__super_8c.html#a9869582a20b5ae6e1d3014a3ced86e56" target="_top" xlink:title=" ">
<polygon fill="white" stroke="black" points="610.5,-526 610.5,-556 753.5,-556 753.5,-526 610.5,-526"/>
<text text-anchor="start" x="618.5" y="-544" font-family="Helvetica,sans-Serif" font-size="10.00">DSSC_set_rx_framelength</text>
<text text-anchor="middle" x="682" y="-533" font-family="Helvetica,sans-Serif" font-size="10.00">_offset</text>
</a>
</g>
</g>
<!-- Node13&#45;&gt;Node18 -->
<g id="edge18" class="edge">
<title>Node13&#45;&gt;Node18</title>
<path fill="none" stroke="midnightblue" d="M563.17,-526.76C575.08,-528.2 587.67,-529.72 600.01,-531.21"/>
<polygon fill="midnightblue" stroke="midnightblue" points="599.94,-534.73 610.29,-532.45 600.78,-527.78 599.94,-534.73"/>
</g>
<!-- Node19 -->
<g id="node19" class="node">
<title>Node19</title>
<g id="a_node19"><a xlink:href="driver__super_8c.html#af10516ffc854cff7493ca94b1f980c78" target="_top" xlink:title=" ">
<polygon fill="white" stroke="black" points="599,-487.5 599,-506.5 765,-506.5 765,-487.5 599,-487.5"/>
<text text-anchor="middle" x="682" y="-494.5" font-family="Helvetica,sans-Serif" font-size="10.00">DSSC_set_rx_framelength_pos</text>
</a>
</g>
</g>
<!-- Node13&#45;&gt;Node19 -->
<g id="edge19" class="edge">
<title>Node13&#45;&gt;Node19</title>
<path fill="none" stroke="midnightblue" d="M563.17,-511.24C572.51,-510.11 582.27,-508.93 591.99,-507.76"/>
<polygon fill="midnightblue" stroke="midnightblue" points="592.59,-511.21 602.1,-506.54 591.75,-504.26 592.59,-511.21"/>
</g>
<!-- Node20 -->
<g id="node20" class="node">
<title>Node20</title>
<g id="a_node20"><a xlink:href="driver__super_8c.html#a2791854c5a460d3970eff9f6c9d5c862" target="_top" xlink:title=" ">
<polygon fill="white" stroke="black" points="610.5,-438 610.5,-468 753.5,-468 753.5,-438 610.5,-438"/>
<text text-anchor="start" x="618.5" y="-456" font-family="Helvetica,sans-Serif" font-size="10.00">DSSC_set_rx_framelength</text>
<text text-anchor="middle" x="682" y="-445" font-family="Helvetica,sans-Serif" font-size="10.00">_type_size</text>
</a>
</g>
</g>
<!-- Node13&#45;&gt;Node20 -->
<g id="edge20" class="edge">
<title>Node13&#45;&gt;Node20</title>
<path fill="none" stroke="midnightblue" d="M533.4,-503.97C552.55,-495.84 576.91,-485.88 599,-478 605.5,-475.68 612.33,-473.38 619.17,-471.18"/>
<polygon fill="midnightblue" stroke="midnightblue" points="620.67,-474.37 629.14,-468.01 618.55,-467.7 620.67,-474.37"/>
</g>
<!-- Node21 -->
<g id="node21" class="node">
<title>Node21</title>
<g id="a_node21"><a xlink:href="driver__super_8c.html#ac08f8c480a922624b49921ed953f71be" target="_top" xlink:title=" ">
<polygon fill="white" stroke="black" points="623.5,-399.5 623.5,-418.5 740.5,-418.5 740.5,-399.5 623.5,-399.5"/>
<text text-anchor="middle" x="682" y="-406.5" font-family="Helvetica,sans-Serif" font-size="10.00">DSSC_set_rx_header</text>
</a>
</g>
</g>
<!-- Node13&#45;&gt;Node21 -->
<g id="edge21" class="edge">
<title>Node13&#45;&gt;Node21</title>
<path fill="none" stroke="midnightblue" d="M511.18,-503.86C528.49,-483.41 562.2,-447.3 599,-428 603.57,-425.6 608.45,-423.5 613.45,-421.67"/>
<polygon fill="midnightblue" stroke="midnightblue" points="614.79,-424.91 623.19,-418.45 612.6,-418.26 614.79,-424.91"/>
</g>
<!-- Node22 -->
<g id="node22" class="node">
<title>Node22</title>
<g id="a_node22"><a xlink:href="driver__super_8c.html#a42c80644b6772ae2596e20b75804c0c3" target="_top" xlink:title=" ">
<polygon fill="white" stroke="black" points="625.5,-361.5 625.5,-380.5 738.5,-380.5 738.5,-361.5 625.5,-361.5"/>
<text text-anchor="middle" x="682" y="-368.5" font-family="Helvetica,sans-Serif" font-size="10.00">DSSC_set_tx_frame</text>
</a>
</g>
</g>
<!-- Node13&#45;&gt;Node22 -->
<g id="edge22" class="edge">
<title>Node13&#45;&gt;Node22</title>
<path fill="none" stroke="midnightblue" d="M506.25,-503.92C520.19,-476.63 553.42,-419.19 599,-390 604.05,-386.77 609.58,-384.09 615.31,-381.86"/>
<polygon fill="midnightblue" stroke="midnightblue" points="616.77,-385.06 625.1,-378.52 614.51,-378.43 616.77,-385.06"/>
</g>
<!-- Node23 -->
<g id="node23" class="node">
<title>Node23</title>
<g id="a_node23"><a xlink:href="driver__super_8c.html#a9907f5844f74f6b8218993911bdc2735" target="_top" xlink:title=" ">
<polygon fill="white" stroke="black" points="613.5,-323.5 613.5,-342.5 750.5,-342.5 750.5,-323.5 613.5,-323.5"/>
<text text-anchor="middle" x="682" y="-330.5" font-family="Helvetica,sans-Serif" font-size="10.00">DSSC_set_tx_frame_size</text>
</a>
</g>
</g>
<!-- Node13&#45;&gt;Node23 -->
<g id="edge23" class="edge">
<title>Node13&#45;&gt;Node23</title>
<path fill="none" stroke="midnightblue" d="M503.5,-503.99C514.21,-470.94 544.5,-391.69 599,-352 601.66,-350.06 604.48,-348.32 607.42,-346.75"/>
<polygon fill="midnightblue" stroke="midnightblue" points="608.92,-349.92 616.54,-342.56 606,-343.56 608.92,-349.92"/>
</g>
<!-- Node24 -->
<g id="node24" class="node">
<title>Node24</title>
<g id="a_node24"><a xlink:href="gs_8c.html#a71a6268f1b467c60429c671e47e51e1d" target="_top" xlink:title="地上からの受信データ解析関数">
<polygon fill="white" stroke="black" points="619,-285.5 619,-304.5 745,-304.5 745,-285.5 619,-285.5"/>
<text text-anchor="middle" x="682" y="-292.5" font-family="Helvetica,sans-Serif" font-size="10.00">GS_analyze_rec_data_</text>
</a>
</g>
</g>
<!-- Node13&#45;&gt;Node24 -->
<g id="edge24" class="edge">
<title>Node13&#45;&gt;Node24</title>
<path fill="none" stroke="midnightblue" d="M501.76,-503.85C509.57,-465.6 535.49,-364.56 599,-314 602.19,-311.46 605.66,-309.25 609.3,-307.33"/>
<polygon fill="midnightblue" stroke="midnightblue" points="611,-310.4 618.68,-303.11 608.13,-304.02 611,-310.4"/>
</g>
<!-- Node25 -->
<g id="node25" class="node">
<title>Node25</title>
<g id="a_node25"><a xlink:href="driver__super_8c.html#adf1f7d5bc6090bf72962786be28d0b9d" target="_top" xlink:title=" ">
<polygon fill="white" stroke="black" points="820.5,-323.5 820.5,-342.5 933.5,-342.5 933.5,-323.5 820.5,-323.5"/>
<text text-anchor="middle" x="877" y="-330.5" font-family="Helvetica,sans-Serif" font-size="10.00">DSSC_get_rx_frame</text>
</a>
</g>
</g>
<!-- Node24&#45;&gt;Node25 -->
<g id="edge25" class="edge">
<title>Node24&#45;&gt;Node25</title>
<path fill="none" stroke="midnightblue" d="M731.7,-304.59C757.86,-309.74 790.28,-316.12 817.77,-321.53"/>
<polygon fill="midnightblue" stroke="midnightblue" points="817.16,-324.98 827.65,-323.48 818.51,-318.11 817.16,-324.98"/>
</g>
<!-- Node26 -->
<g id="node26" class="node">
<title>Node26</title>
<g id="a_node26"><a xlink:href="gs__validate_8c.html#a9e8584656da1d94102639deb6702179e" target="_top" xlink:title="tc_frame の検証">
<polygon fill="white" stroke="black" points="815,-285.5 815,-304.5 939,-304.5 939,-285.5 815,-285.5"/>
<text text-anchor="middle" x="877" y="-292.5" font-family="Helvetica,sans-Serif" font-size="10.00">GS_validate_tc_frame</text>
</a>
</g>
</g>
<!-- Node24&#45;&gt;Node26 -->
<g id="edge26" class="edge">
<title>Node24&#45;&gt;Node26</title>
<path fill="none" stroke="midnightblue" d="M745.13,-295C764.18,-295 785.28,-295 804.88,-295"/>
<polygon fill="midnightblue" stroke="midnightblue" points="804.98,-298.5 814.98,-295 804.98,-291.5 804.98,-298.5"/>
</g>
<!-- Node46 -->
<g id="node39" class="node">
<title>Node46</title>
<g id="a_node39"><a xlink:href="packet__handler_8c.html#acf757fa72967bf66b39dc5ced7132330" target="_top" xlink:title=" ">
<polygon fill="white" stroke="black" points="821.5,-95.5 821.5,-114.5 932.5,-114.5 932.5,-95.5 821.5,-95.5"/>
<text text-anchor="middle" x="877" y="-102.5" font-family="Helvetica,sans-Serif" font-size="10.00">PH_analyze_packet</text>
</a>
</g>
</g>
<!-- Node24&#45;&gt;Node46 -->
<g id="edge40" class="edge">
<title>Node24&#45;&gt;Node46</title>
<path fill="none" stroke="midnightblue" d="M692.84,-285.32C723.74,-254.9 819.16,-160.96 858.63,-122.1"/>
<polygon fill="midnightblue" stroke="midnightblue" points="861.28,-124.4 865.95,-114.89 856.37,-119.41 861.28,-124.4"/>
</g>
<!-- Node27 -->
<g id="node27" class="node">
<title>Node27</title>
<g id="a_node27"><a xlink:href="gs__validate_8c.html#aaf57603b3217830c620f10440ff700df" target="_top" xlink:title=" ">
<polygon fill="white" stroke="black" points="1001,-418.5 1001,-437.5 1114,-437.5 1114,-418.5 1001,-418.5"/>
<text text-anchor="middle" x="1057.5" y="-425.5" font-family="Helvetica,sans-Serif" font-size="10.00">GS_check_ad_cmd_</text>
</a>
</g>
</g>
<!-- Node26&#45;&gt;Node27 -->
<g id="edge27" class="edge">
<title>Node26&#45;&gt;Node27</title>
<path fill="none" stroke="midnightblue" d="M938.41,-304.59C943.71,-307.07 948.69,-310.16 953,-314 986.7,-344.05 955.7,-378.51 989,-409 990.71,-410.57 992.55,-412.01 994.47,-413.33"/>
<polygon fill="midnightblue" stroke="midnightblue" points="993,-416.52 1003.43,-418.41 996.46,-410.43 993,-416.52"/>
</g>
<!-- Node38 -->
<g id="node31" class="node">
<title>Node38</title>
<g id="a_node31"><a xlink:href="gs__validate_8c.html#a84b7f68b65ac893636653398012a7866" target="_top" xlink:title=" ">
<polygon fill="white" stroke="black" points="1001.5,-380.5 1001.5,-399.5 1113.5,-399.5 1113.5,-380.5 1001.5,-380.5"/>
<text text-anchor="middle" x="1057.5" y="-387.5" font-family="Helvetica,sans-Serif" font-size="10.00">GS_check_bc_cmd_</text>
</a>
</g>
</g>
<!-- Node26&#45;&gt;Node38 -->
<g id="edge31" class="edge">
<title>Node26&#45;&gt;Node38</title>
<path fill="none" stroke="midnightblue" d="M935.36,-304.6C941.64,-307.05 947.67,-310.13 953,-314 977.25,-331.6 964.98,-353.08 989,-371 991.51,-372.87 994.19,-374.55 996.98,-376.07"/>
<polygon fill="midnightblue" stroke="midnightblue" points="995.69,-379.33 1006.24,-380.38 998.65,-372.99 995.69,-379.33"/>
</g>
<!-- Node39 -->
<g id="node32" class="node">
<title>Node39</title>
<g id="a_node32"><a xlink:href="gs__validate_8c.html#ade886529947636f12095d299135cbfde" target="_top" xlink:title=" ">
<polygon fill="white" stroke="black" points="1001,-342.5 1001,-361.5 1114,-361.5 1114,-342.5 1001,-342.5"/>
<text text-anchor="middle" x="1057.5" y="-349.5" font-family="Helvetica,sans-Serif" font-size="10.00">GS_check_bd_cmd_</text>
</a>
</g>
</g>
<!-- Node26&#45;&gt;Node39 -->
<g id="edge32" class="edge">
<title>Node26&#45;&gt;Node39</title>
<path fill="none" stroke="midnightblue" d="M922.96,-304.54C932.99,-307.18 943.47,-310.34 953,-314 969.89,-320.49 972.2,-326.29 989,-333 994.86,-335.34 1001.12,-337.51 1007.37,-339.49"/>
<polygon fill="midnightblue" stroke="midnightblue" points="1006.54,-342.9 1017.13,-342.43 1008.56,-336.19 1006.54,-342.9"/>
</g>
<!-- Node40 -->
<g id="node33" class="node">
<title>Node40</title>
<g id="a_node33"><a xlink:href="gs__validate_8c.html#a5660d6b01f6459cbe6c2e284f1b45891" target="_top" xlink:title=" ">
<polygon fill="white" stroke="black" points="1008.5,-304.5 1008.5,-323.5 1106.5,-323.5 1106.5,-304.5 1008.5,-304.5"/>
<text text-anchor="middle" x="1057.5" y="-311.5" font-family="Helvetica,sans-Serif" font-size="10.00">GS_check_fecw_</text>
</a>
</g>
</g>
<!-- Node26&#45;&gt;Node40 -->
<g id="edge34" class="edge">
<title>Node26&#45;&gt;Node40</title>
<path fill="none" stroke="midnightblue" d="M939.43,-301.54C958.58,-303.58 979.62,-305.82 998.53,-307.83"/>
<polygon fill="midnightblue" stroke="midnightblue" points="998.17,-311.31 1008.49,-308.89 998.92,-304.35 998.17,-311.31"/>
</g>
<!-- Node41 -->
<g id="node34" class="node">
<title>Node41</title>
<g id="a_node34"><a xlink:href="gs__validate_8c.html#a74139046c9d543e8106484acdeecb8d3" target="_top" xlink:title=" ">
<polygon fill="white" stroke="black" points="994.5,-266.5 994.5,-285.5 1120.5,-285.5 1120.5,-266.5 994.5,-266.5"/>
<text text-anchor="middle" x="1057.5" y="-273.5" font-family="Helvetica,sans-Serif" font-size="10.00">GS_check_tcf_header_</text>
</a>
</g>
</g>
<!-- Node26&#45;&gt;Node41 -->
<g id="edge35" class="edge">
<title>Node26&#45;&gt;Node41</title>
<path fill="none" stroke="midnightblue" d="M939.43,-288.46C953.85,-286.93 969.35,-285.28 984.2,-283.7"/>
<polygon fill="midnightblue" stroke="midnightblue" points="984.78,-287.15 994.35,-282.62 984.04,-280.19 984.78,-287.15"/>
</g>
<!-- Node44 -->
<g id="node37" class="node">
<title>Node44</title>
<g id="a_node37"><a xlink:href="_t_c_frame_8c.html#a51c2ff49351bbe9db73730fe65c93233" target="_top" xlink:title=" ">
<polygon fill="white" stroke="black" points="1002.5,-228.5 1002.5,-247.5 1112.5,-247.5 1112.5,-228.5 1002.5,-228.5"/>
<text text-anchor="middle" x="1057.5" y="-235.5" font-family="Helvetica,sans-Serif" font-size="10.00">TCF_get_frame_len</text>
</a>
</g>
</g>
<!-- Node26&#45;&gt;Node44 -->
<g id="edge38" class="edge">
<title>Node26&#45;&gt;Node44</title>
<path fill="none" stroke="midnightblue" d="M904.78,-285.37C927.18,-277.42 960.02,-266.03 989,-257 996.19,-254.76 1003.85,-252.49 1011.33,-250.34"/>
<polygon fill="midnightblue" stroke="midnightblue" points="1012.35,-253.69 1021.01,-247.59 1010.43,-246.96 1012.35,-253.69"/>
</g>
<!-- Node45 -->
<g id="node38" class="node">
<title>Node45</title>
<g id="a_node38"><a xlink:href="_t_c_frame_8c.html#a8a5d82abf326db4fbaf4b8acfafda642" target="_top" xlink:title=" ">
<polygon fill="white" stroke="black" points="1016,-190.5 1016,-209.5 1099,-209.5 1099,-190.5 1016,-190.5"/>
<text text-anchor="middle" x="1057.5" y="-197.5" font-family="Helvetica,sans-Serif" font-size="10.00">TCF_get_type</text>
</a>
</g>
</g>
<!-- Node26&#45;&gt;Node45 -->
<g id="edge39" class="edge">
<title>Node26&#45;&gt;Node45</title>
<path fill="none" stroke="midnightblue" d="M889.22,-285.44C908.45,-269.52 949.44,-237.5 989,-219 994.37,-216.49 1000.14,-214.25 1005.96,-212.26"/>
<polygon fill="midnightblue" stroke="midnightblue" points="1007.27,-215.52 1015.75,-209.16 1005.16,-208.84 1007.27,-215.52"/>
</g>
<!-- Node28 -->
<g id="node28" class="node">
<title>Node28</title>
<g id="a_node28"><a xlink:href="gs__validate_8c.html#a2d851e14b61c170707282426f1a3d822" target="_top" xlink:title=" ">
<polygon fill="white" stroke="red" points="1165,-342.5 1165,-361.5 1299,-361.5 1299,-342.5 1165,-342.5"/>
<text text-anchor="middle" x="1232" y="-349.5" font-family="Helvetica,sans-Serif" font-size="10.00">GS_check_tcf_contents_</text>
</a>
</g>
</g>
<!-- Node27&#45;&gt;Node28 -->
<g id="edge28" class="edge">
<title>Node27&#45;&gt;Node28</title>
<path fill="none" stroke="midnightblue" d="M1098.26,-418.4C1107.5,-415.73 1117.2,-412.57 1126,-409 1155,-397.22 1186.29,-379.52 1207.1,-366.98"/>
<polygon fill="midnightblue" stroke="midnightblue" points="1209.17,-369.82 1215.87,-361.62 1205.52,-363.84 1209.17,-369.82"/>
</g>
<!-- Node37 -->
<g id="node30" class="node">
<title>Node37</title>
<g id="a_node30"><a xlink:href="_t_c_frame_8c.html#ae24783beaa1ebc5af4b55c18fb7673b4" target="_top" xlink:title=" ">
<polygon fill="white" stroke="black" points="1162,-418.5 1162,-437.5 1302,-437.5 1302,-418.5 1162,-418.5"/>
<text text-anchor="middle" x="1232" y="-425.5" font-family="Helvetica,sans-Serif" font-size="10.00">TCF_get_frame_seq_num</text>
</a>
</g>
</g>
<!-- Node27&#45;&gt;Node37 -->
<g id="edge30" class="edge">
<title>Node27&#45;&gt;Node37</title>
<path fill="none" stroke="midnightblue" d="M1114.03,-428C1126.08,-428 1139.04,-428 1151.8,-428"/>
<polygon fill="midnightblue" stroke="midnightblue" points="1151.97,-431.5 1161.97,-428 1151.97,-424.5 1151.97,-431.5"/>
</g>
<!-- Node36 -->
<g id="node29" class="node">
<title>Node36</title>
<g id="a_node29"><a xlink:href="_t_c_packet_8c.html#aeef51e70e41085a34fe5c6629d3cc2ae" target="_top" xlink:title="TCP type を取得">
<polygon fill="white" stroke="black" points="1338,-147.5 1338,-166.5 1421,-166.5 1421,-147.5 1338,-147.5"/>
<text text-anchor="middle" x="1379.5" y="-154.5" font-family="Helvetica,sans-Serif" font-size="10.00">TCP_get_type</text>
</a>
</g>
</g>
<!-- Node28&#45;&gt;Node36 -->
<g id="edge29" class="edge">
<title>Node28&#45;&gt;Node36</title>
<path fill="none" stroke="midnightblue" d="M1258.79,-342.36C1272.95,-336.03 1290.03,-326.58 1302,-314 1340.88,-273.12 1363.66,-208.73 1373.2,-176.6"/>
<polygon fill="midnightblue" stroke="midnightblue" points="1376.65,-177.25 1376.02,-166.67 1369.92,-175.33 1376.65,-177.25"/>
</g>
<!-- Node39&#45;&gt;Node28 -->
<g id="edge33" class="edge">
<title>Node39&#45;&gt;Node28</title>
<path fill="none" stroke="midnightblue" d="M1114.03,-352C1126.9,-352 1140.82,-352 1154.42,-352"/>
<polygon fill="midnightblue" stroke="midnightblue" points="1154.73,-355.5 1164.73,-352 1154.73,-348.5 1154.73,-355.5"/>
</g>
<!-- Node42 -->
<g id="node35" class="node">
<title>Node42</title>
<g id="a_node35"><a xlink:href="_t_c_frame_8c.html#a5f478a4f679efc9097899d4807bdf14a" target="_top" xlink:title=" ">
<polygon fill="white" stroke="black" points="1191.5,-285.5 1191.5,-304.5 1272.5,-304.5 1272.5,-285.5 1191.5,-285.5"/>
<text text-anchor="middle" x="1232" y="-292.5" font-family="Helvetica,sans-Serif" font-size="10.00">TCF_get_vcid</text>
</a>
</g>
</g>
<!-- Node41&#45;&gt;Node42 -->
<g id="edge36" class="edge">
<title>Node41&#45;&gt;Node42</title>
<path fill="none" stroke="midnightblue" d="M1120.78,-282.86C1140.64,-285.05 1162.36,-287.44 1181.22,-289.52"/>
<polygon fill="midnightblue" stroke="midnightblue" points="1181.05,-293.02 1191.37,-290.64 1181.81,-286.06 1181.05,-293.02"/>
</g>
<!-- Node43 -->
<g id="node36" class="node">
<title>Node43</title>
<g id="a_node36"><a xlink:href="_t_c_frame_8c.html#ad8eb293e8d4ba07d2e7a63a1f0a427a9" target="_top" xlink:title=" ">
<polygon fill="white" stroke="black" points="1193.5,-247.5 1193.5,-266.5 1270.5,-266.5 1270.5,-247.5 1193.5,-247.5"/>
<text text-anchor="middle" x="1232" y="-254.5" font-family="Helvetica,sans-Serif" font-size="10.00">TCF_get_ver</text>
</a>
</g>
</g>
<!-- Node41&#45;&gt;Node43 -->
<g id="edge37" class="edge">
<title>Node41&#45;&gt;Node43</title>
<path fill="none" stroke="midnightblue" d="M1120.78,-269.14C1141.39,-266.87 1163.99,-264.38 1183.33,-262.25"/>
<polygon fill="midnightblue" stroke="midnightblue" points="1183.85,-265.71 1193.41,-261.14 1183.09,-258.76 1183.85,-265.71"/>
</g>
<!-- Node47 -->
<g id="node40" class="node">
<title>Node47</title>
<g id="a_node40"><a xlink:href="common__tlm__cmd__packet_8h.html#a8da8d74ab0cb68ef9a902267ad27c0a6" target="_top" xlink:title="CTCP を CCP に変換（キャスト）">
<polygon fill="white" stroke="black" points="997.5,-152.5 997.5,-171.5 1117.5,-171.5 1117.5,-152.5 997.5,-152.5"/>
<text text-anchor="middle" x="1057.5" y="-159.5" font-family="Helvetica,sans-Serif" font-size="10.00">CTCP_convert_to_ccp</text>
</a>
</g>
</g>
<!-- Node46&#45;&gt;Node47 -->
<g id="edge41" class="edge">
<title>Node46&#45;&gt;Node47</title>
<path fill="none" stroke="midnightblue" d="M904.78,-114.63C927.18,-122.58 960.02,-133.97 989,-143 996.19,-145.24 1003.85,-147.51 1011.33,-149.66"/>
<polygon fill="midnightblue" stroke="midnightblue" points="1010.43,-153.04 1021.01,-152.41 1012.35,-146.31 1010.43,-153.04"/>
</g>
<!-- Node49 -->
<g id="node42" class="node">
<title>Node49</title>
<g id="a_node42"><a xlink:href="common__tlm__cmd__packet_8h.html#a1c40672d250b1a18b2f130f353659b5a" target="_top" xlink:title="CTCP を CTP に変換（キャスト）">
<polygon fill="white" stroke="black" points="998,-114.5 998,-133.5 1117,-133.5 1117,-114.5 998,-114.5"/>
<text text-anchor="middle" x="1057.5" y="-121.5" font-family="Helvetica,sans-Serif" font-size="10.00">CTCP_convert_to_ctp</text>
</a>
</g>
</g>
<!-- Node46&#45;&gt;Node49 -->
<g id="edge44" class="edge">
<title>Node46&#45;&gt;Node49</title>
<path fill="none" stroke="midnightblue" d="M932.53,-110.8C950,-112.66 969.58,-114.75 987.92,-116.7"/>
<polygon fill="midnightblue" stroke="midnightblue" points="987.65,-120.19 997.97,-117.77 988.39,-113.23 987.65,-120.19"/>
</g>
<!-- Node50 -->
<g id="node43" class="node">
<title>Node50</title>
<g id="a_node43"><a xlink:href="common__tlm__cmd__packet_8h.html#a86d9338ea5a11fafb41cf5ad00ee16c3" target="_top" xlink:title="tlm か cmd かを判断">
<polygon fill="white" stroke="black" points="1168.5,-100.5 1168.5,-119.5 1295.5,-119.5 1295.5,-100.5 1168.5,-100.5"/>
<text text-anchor="middle" x="1232" y="-107.5" font-family="Helvetica,sans-Serif" font-size="10.00">CTCP_get_packet_type</text>
</a>
</g>
</g>
<!-- Node46&#45;&gt;Node50 -->
<g id="edge46" class="edge">
<title>Node46&#45;&gt;Node50</title>
<path fill="none" stroke="midnightblue" d="M932.68,-104.25C982.94,-103.75 1059.5,-103.42 1126,-105 1136.37,-105.25 1147.31,-105.63 1158.06,-106.08"/>
<polygon fill="midnightblue" stroke="midnightblue" points="1158.13,-109.58 1168.28,-106.52 1158.44,-102.59 1158.13,-109.58"/>
</g>
<!-- Node51 -->
<g id="node44" class="node">
<title>Node51</title>
<g id="a_node44"><a xlink:href="packet__handler_8c.html#a259f5d964fe8b69ab11a54c0325be9d5" target="_top" xlink:title=" ">
<polygon fill="white" stroke="red" points="989,-38.5 989,-57.5 1126,-57.5 1126,-38.5 989,-38.5"/>
<text text-anchor="middle" x="1057.5" y="-45.5" font-family="Helvetica,sans-Serif" font-size="10.00">PH_analyze_cmd_packet</text>
</a>
</g>
</g>
<!-- Node46&#45;&gt;Node51 -->
<g id="edge48" class="edge">
<title>Node46&#45;&gt;Node51</title>
<path fill="none" stroke="midnightblue" d="M907.88,-95.46C937.74,-85.92 983.83,-71.21 1016.76,-60.69"/>
<polygon fill="midnightblue" stroke="midnightblue" points="1018.06,-63.95 1026.53,-57.57 1015.93,-57.28 1018.06,-63.95"/>
</g>
<!-- Node93 -->
<g id="node47" class="node">
<title>Node93</title>
<g id="a_node47"><a xlink:href="packet__handler_8c.html#ab5cf7bd4c406c85194969f2284402121" target="_top" xlink:title=" ">
<polygon fill="white" stroke="red" points="991,-0.5 991,-19.5 1124,-19.5 1124,-0.5 991,-0.5"/>
<text text-anchor="middle" x="1057.5" y="-7.5" font-family="Helvetica,sans-Serif" font-size="10.00">PH_analyze_tlm_packet</text>
</a>
</g>
</g>
<!-- Node46&#45;&gt;Node93 -->
<g id="edge51" class="edge">
<title>Node46&#45;&gt;Node93</title>
<path fill="none" stroke="midnightblue" d="M889.22,-95.44C908.45,-79.52 949.44,-47.5 989,-29 993.96,-26.68 999.27,-24.59 1004.64,-22.72"/>
<polygon fill="midnightblue" stroke="midnightblue" points="1005.88,-25.99 1014.32,-19.58 1003.73,-19.33 1005.88,-25.99"/>
</g>
<!-- Node48 -->
<g id="node41" class="node">
<title>Node48</title>
<g id="a_node41"><a xlink:href="common__tlm__cmd__packet_8c.html#a86d9338ea5a11fafb41cf5ad00ee16c3" target="_top" xlink:title="tlm か cmd かを判断">
<polygon fill="white" stroke="black" points="1168.5,-147.5 1168.5,-166.5 1295.5,-166.5 1295.5,-147.5 1168.5,-147.5"/>
<text text-anchor="middle" x="1232" y="-154.5" font-family="Helvetica,sans-Serif" font-size="10.00">CTCP_get_packet_type</text>
</a>
</g>
</g>
<!-- Node47&#45;&gt;Node48 -->
<g id="edge42" class="edge">
<title>Node47&#45;&gt;Node48</title>
<path fill="none" stroke="midnightblue" d="M1117.86,-160.28C1130.83,-159.9 1144.7,-159.5 1158.13,-159.11"/>
<polygon fill="midnightblue" stroke="midnightblue" points="1158.4,-162.61 1168.29,-158.82 1158.19,-155.61 1158.4,-162.61"/>
</g>
<!-- Node48&#45;&gt;Node36 -->
<g id="edge43" class="edge">
<title>Node48&#45;&gt;Node36</title>
<path fill="none" stroke="midnightblue" d="M1295.55,-157C1306.29,-157 1317.34,-157 1327.73,-157"/>
<polygon fill="midnightblue" stroke="midnightblue" points="1327.86,-160.5 1337.86,-157 1327.86,-153.5 1327.86,-160.5"/>
</g>
<!-- Node49&#45;&gt;Node48 -->
<g id="edge45" class="edge">
<title>Node49&#45;&gt;Node48</title>
<path fill="none" stroke="midnightblue" d="M1108.39,-133.54C1128.06,-137.31 1150.82,-141.66 1171.34,-145.59"/>
<polygon fill="midnightblue" stroke="midnightblue" points="1170.74,-149.04 1181.22,-147.48 1172.05,-142.16 1170.74,-149.04"/>
</g>
<!-- Node50&#45;&gt;Node36 -->
<g id="edge47" class="edge">
<title>Node50&#45;&gt;Node36</title>
<path fill="none" stroke="midnightblue" d="M1262.44,-119.51C1284.56,-126.65 1315.07,-136.51 1339.25,-144.32"/>
<polygon fill="midnightblue" stroke="midnightblue" points="1338.26,-147.68 1348.85,-147.42 1340.41,-141.02 1338.26,-147.68"/>
</g>
<!-- Node52 -->
<g id="node45" class="node">
<title>Node52</title>
<g id="a_node45"><a xlink:href="common__cmd__packet_8h.html#a63dd7518abfbd0e6cedf6af2f376d854" target="_top" xlink:title="EXEC_TYPE を取得">
<polygon fill="white" stroke="red" points="1176,-43.5 1176,-62.5 1288,-62.5 1288,-43.5 1176,-43.5"/>
<text text-anchor="middle" x="1232" y="-50.5" font-family="Helvetica,sans-Serif" font-size="10.00">CCP_get_exec_type</text>
</a>
</g>
</g>
<!-- Node51&#45;&gt;Node52 -->
<g id="edge49" class="edge">
<title>Node51&#45;&gt;Node52</title>
<path fill="none" stroke="midnightblue" d="M1126.18,-49.96C1139.14,-50.34 1152.69,-50.73 1165.57,-51.1"/>
<polygon fill="midnightblue" stroke="midnightblue" points="1165.65,-54.61 1175.74,-51.4 1165.85,-47.61 1165.65,-54.61"/>
</g>
<!-- Node54 -->
<g id="node46" class="node">
<title>Node54</title>
<g id="a_node46"><a xlink:href="packet__handler_8c.html#a7877bd048a812eccc6e5e32a48e4198d" target="_top" xlink:title=" ">
<polygon fill="white" stroke="red" points="1181.5,-5.5 1181.5,-24.5 1282.5,-24.5 1282.5,-5.5 1181.5,-5.5"/>
<text text-anchor="middle" x="1232" y="-12.5" font-family="Helvetica,sans-Serif" font-size="10.00">PH_add_gs_cmd_</text>
</a>
</g>
</g>
<!-- Node51&#45;&gt;Node54 -->
<g id="edge50" class="edge">
<title>Node51&#45;&gt;Node54</title>
<path fill="none" stroke="midnightblue" d="M1108.39,-38.46C1128.06,-34.69 1150.82,-30.34 1171.34,-26.41"/>
<polygon fill="midnightblue" stroke="midnightblue" points="1172.05,-29.84 1181.22,-24.52 1170.74,-22.96 1172.05,-29.84"/>
</g>
<!-- Node99&#45;&gt;Node13 -->
<g id="edge53" class="edge">
<title>Node99&#45;&gt;Node13</title>
<path fill="none" stroke="midnightblue" d="M395.67,-519C404.48,-519 413.67,-519 422.75,-519"/>
<polygon fill="midnightblue" stroke="midnightblue" points="422.94,-522.5 432.94,-519 422.94,-515.5 422.94,-522.5"/>
</g>
</g>
</svg>
