<?xml version="1.0" encoding="UTF-8" standalone="no"?>
<!DOCTYPE svg PUBLIC "-//W3C//DTD SVG 1.1//EN"
 "http://www.w3.org/Graphics/SVG/1.1/DTD/svg11.dtd">
<!-- Generated by graphviz version 2.43.0 (0)
 -->
<!-- Title: Cmd_DI_AOBC_CDIS_CLEAR_ERR_LOG Pages: 1 -->
<svg width="832pt" height="78pt"
 viewBox="0.00 0.00 832.00 77.50" xmlns="http://www.w3.org/2000/svg" xmlns:xlink="http://www.w3.org/1999/xlink">
<g id="graph0" class="graph" transform="scale(1 1) rotate(0) translate(4 73.5)">
<title>Cmd_DI_AOBC_CDIS_CLEAR_ERR_LOG</title>
<polygon fill="white" stroke="transparent" points="-4,4 -4,-73.5 828,-73.5 828,4 -4,4"/>
<!-- Node1 -->
<g id="node1" class="node">
<title>Node1</title>
<g id="a_node1"><a xlink:title=" ">
<polygon fill="#bfbfbf" stroke="black" points="0,-20 0,-50 153,-50 153,-20 0,-20"/>
<text text-anchor="start" x="8" y="-38" font-family="Helvetica,sans-Serif" font-size="10.00">Cmd_DI_AOBC_CDIS_CLEAR</text>
<text text-anchor="middle" x="76.5" y="-27" font-family="Helvetica,sans-Serif" font-size="10.00">_ERR_LOG</text>
</a>
</g>
</g>
<!-- Node2 -->
<g id="node2" class="node">
<title>Node2</title>
<g id="a_node2"><a xlink:href="common__cmd__packet__util_8c.html#a9e58970e1fdf3fd593d764f353e28562" target="_top" xlink:title="コマンド返り値である CCP_CmdRet を作成（エラーコード不使用版）">
<polygon fill="white" stroke="black" points="520,-39 520,-69 675,-69 675,-39 520,-39"/>
<text text-anchor="start" x="528" y="-57" font-family="Helvetica,sans-Serif" font-size="10.00">CCP_make_cmd_ret_without</text>
<text text-anchor="middle" x="597.5" y="-46" font-family="Helvetica,sans-Serif" font-size="10.00">_err_code</text>
</a>
</g>
</g>
<!-- Node1&#45;&gt;Node2 -->
<g id="edge1" class="edge">
<title>Node1&#45;&gt;Node2</title>
<path fill="none" stroke="midnightblue" d="M153.24,-37.77C248.04,-41.24 410.02,-47.17 509.72,-50.82"/>
<polygon fill="midnightblue" stroke="midnightblue" points="509.64,-54.32 519.76,-51.19 509.9,-47.33 509.64,-54.32"/>
</g>
<!-- Node4 -->
<g id="node4" class="node">
<title>Node4</title>
<g id="a_node4"><a xlink:href="command__dispatcher_8c.html#ae75776a41a72200cf19c52b3489dd639" target="_top" xlink:title="CDIS に登録されているコマンドキューのコマンド実行エラー情報を削除">
<polygon fill="white" stroke="black" points="189,-6.5 189,-25.5 322,-25.5 322,-6.5 189,-6.5"/>
<text text-anchor="middle" x="255.5" y="-13.5" font-family="Helvetica,sans-Serif" font-size="10.00">CDIS_clear_error_status</text>
</a>
</g>
</g>
<!-- Node1&#45;&gt;Node4 -->
<g id="edge3" class="edge">
<title>Node1&#45;&gt;Node4</title>
<path fill="none" stroke="midnightblue" d="M153.08,-26.89C161.65,-25.97 170.4,-25.03 178.97,-24.11"/>
<polygon fill="midnightblue" stroke="midnightblue" points="179.38,-27.58 188.94,-23.04 178.63,-20.62 179.38,-27.58"/>
</g>
<!-- Node3 -->
<g id="node3" class="node">
<title>Node3</title>
<g id="a_node3"><a xlink:href="common__cmd__packet__util_8c.html#a86a3aeedaeb2eac94c6c86eb0db7f8fd" target="_top" xlink:title="コマンド返り値である CCP_CmdRet を作成">
<polygon fill="white" stroke="black" points="711,-44.5 711,-63.5 824,-63.5 824,-44.5 711,-44.5"/>
<text text-anchor="middle" x="767.5" y="-51.5" font-family="Helvetica,sans-Serif" font-size="10.00">CCP_make_cmd_ret</text>
</a>
</g>
</g>
<!-- Node2&#45;&gt;Node3 -->
<g id="edge2" class="edge">
<title>Node2&#45;&gt;Node3</title>
<path fill="none" stroke="midnightblue" d="M675.13,-54C683.62,-54 692.21,-54 700.55,-54"/>
<polygon fill="midnightblue" stroke="midnightblue" points="700.58,-57.5 710.58,-54 700.58,-50.5 700.58,-57.5"/>
</g>
<!-- Node5 -->
<g id="node5" class="node">
<title>Node5</title>
<g id="a_node5"><a xlink:href="command__dispatcher_8c.html#ad69bcfd7e12d6c75b7e5ec0841764c6c" target="_top" xlink:title="CDIS_ExecInfo の初期化">
<polygon fill="white" stroke="black" points="358,-6.5 358,-25.5 484,-25.5 484,-6.5 358,-6.5"/>
<text text-anchor="middle" x="421" y="-13.5" font-family="Helvetica,sans-Serif" font-size="10.00">CDIS_clear_exec_info_</text>
</a>
</g>
</g>
<!-- Node4&#45;&gt;Node5 -->
<g id="edge4" class="edge">
<title>Node4&#45;&gt;Node5</title>
<path fill="none" stroke="midnightblue" d="M322.06,-16C330.46,-16 339.1,-16 347.6,-16"/>
<polygon fill="midnightblue" stroke="midnightblue" points="347.88,-19.5 357.88,-16 347.88,-12.5 347.88,-19.5"/>
</g>
<!-- Node5&#45;&gt;Node2 -->
<g id="edge5" class="edge">
<title>Node5&#45;&gt;Node2</title>
<path fill="none" stroke="midnightblue" d="M466.03,-25.59C481.56,-28.97 499.54,-32.88 517.08,-36.71"/>
<polygon fill="midnightblue" stroke="midnightblue" points="516.83,-40.23 527.35,-38.94 518.32,-33.39 516.83,-40.23"/>
</g>
<!-- Node6 -->
<g id="node6" class="node">
<title>Node6</title>
<g id="a_node6"><a xlink:href="obc__time_8c.html#af728cdbeae57ea5bf7f25ba5a3776e60" target="_top" xlink:title="ObcTime をクリアし全てゼロにする">
<polygon fill="white" stroke="black" points="561,-0.5 561,-19.5 634,-19.5 634,-0.5 561,-0.5"/>
<text text-anchor="middle" x="597.5" y="-7.5" font-family="Helvetica,sans-Serif" font-size="10.00">OBCT_clear</text>
</a>
</g>
</g>
<!-- Node5&#45;&gt;Node6 -->
<g id="edge6" class="edge">
<title>Node5&#45;&gt;Node6</title>
<path fill="none" stroke="midnightblue" d="M484.01,-13.87C505.95,-13.11 530.22,-12.28 550.58,-11.58"/>
<polygon fill="midnightblue" stroke="midnightblue" points="550.97,-15.07 560.84,-11.23 550.73,-8.07 550.97,-15.07"/>
</g>
</g>
</svg>
