<?xml version="1.0" encoding="UTF-8" standalone="no"?>
<!DOCTYPE svg PUBLIC "-//W3C//DTD SVG 1.1//EN"
 "http://www.w3.org/Graphics/SVG/1.1/DTD/svg11.dtd">
<!-- Generated by graphviz version 2.43.0 (0)
 -->
<!-- Title: DI_GS_cmd_packet_handler Pages: 1 -->
<svg width="1359pt" height="956pt"
 viewBox="0.00 0.00 1359.00 955.57" xmlns="http://www.w3.org/2000/svg" xmlns:xlink="http://www.w3.org/1999/xlink">
<g id="graph0" class="graph" transform="scale(1 1) rotate(0) translate(4 951.57)">
<title>DI_GS_cmd_packet_handler</title>
<polygon fill="white" stroke="transparent" points="-4,4 -4,-951.57 1355,-951.57 1355,4 -4,4"/>
<!-- Node1 -->
<g id="node1" class="node">
<title>Node1</title>
<g id="a_node1"><a xlink:title=" ">
<polygon fill="#bfbfbf" stroke="black" points="0,-656.5 0,-675.5 152,-675.5 152,-656.5 0,-656.5"/>
<text text-anchor="middle" x="76" y="-663.5" font-family="Helvetica,sans-Serif" font-size="10.00">DI_GS_cmd_packet_handler</text>
</a>
</g>
</g>
<!-- Node2 -->
<g id="node2" class="node">
<title>Node2</title>
<g id="a_node2"><a xlink:href="app__info_8c.html#a0d81b42bb05772083032b2f23bac9202" target="_top" xlink:title="AppInfo を作る">
<polygon fill="white" stroke="black" points="211.5,-694.5 211.5,-713.5 321.5,-713.5 321.5,-694.5 211.5,-694.5"/>
<text text-anchor="middle" x="266.5" y="-701.5" font-family="Helvetica,sans-Serif" font-size="10.00">AI_create_app_info</text>
</a>
</g>
</g>
<!-- Node1&#45;&gt;Node2 -->
<g id="edge1" class="edge">
<title>Node1&#45;&gt;Node2</title>
<path fill="none" stroke="midnightblue" d="M124.57,-675.59C150,-680.72 181.5,-687.07 208.27,-692.46"/>
<polygon fill="midnightblue" stroke="midnightblue" points="207.78,-695.93 218.28,-694.48 209.16,-689.07 207.78,-695.93"/>
</g>
<!-- Node3 -->
<g id="node3" class="node">
<title>Node3</title>
<g id="a_node3"><a xlink:href="di__gs_8c.html#a8f20dcd562d4598cd177d1435dafeea4" target="_top" xlink:title=" ">
<polygon fill="white" stroke="black" points="188,-656.5 188,-675.5 345,-675.5 345,-656.5 188,-656.5"/>
<text text-anchor="middle" x="266.5" y="-663.5" font-family="Helvetica,sans-Serif" font-size="10.00">DI_GS_cmd_packet_handler_</text>
</a>
</g>
</g>
<!-- Node1&#45;&gt;Node3 -->
<g id="edge2" class="edge">
<title>Node1&#45;&gt;Node3</title>
<path fill="none" stroke="midnightblue" d="M152.04,-666C160.53,-666 169.23,-666 177.86,-666"/>
<polygon fill="midnightblue" stroke="midnightblue" points="177.94,-669.5 187.94,-666 177.94,-662.5 177.94,-669.5"/>
</g>
<!-- Node30 -->
<g id="node26" class="node">
<title>Node30</title>
<g id="a_node26"><a xlink:href="di__gs_8c.html#aac505df7423e0f4abedbc661040be341" target="_top" xlink:title=" ">
<polygon fill="white" stroke="black" points="190.5,-575 190.5,-605 342.5,-605 342.5,-575 190.5,-575"/>
<text text-anchor="start" x="198.5" y="-593" font-family="Helvetica,sans-Serif" font-size="10.00">DI_GS_cmd_packet_handler</text>
<text text-anchor="middle" x="266.5" y="-582" font-family="Helvetica,sans-Serif" font-size="10.00">_init_</text>
</a>
</g>
</g>
<!-- Node1&#45;&gt;Node30 -->
<g id="edge27" class="edge">
<title>Node1&#45;&gt;Node30</title>
<path fill="none" stroke="midnightblue" d="M100.87,-656.37C130.34,-644.49 181.12,-624.02 218.52,-608.94"/>
<polygon fill="midnightblue" stroke="midnightblue" points="220.23,-612.03 228.2,-605.04 217.61,-605.53 220.23,-612.03"/>
</g>
<!-- Node4 -->
<g id="node4" class="node">
<title>Node4</title>
<g id="a_node4"><a xlink:href="ccsds__user_8h.html#ad1d0d3a68d1e803d5bb1c812f46f602f" target="_top" xlink:title="FPGA が保持する CCSDS sequence counter を読む API を呼び出す">
<polygon fill="white" stroke="black" points="381,-694.5 381,-713.5 509,-713.5 509,-694.5 381,-694.5"/>
<text text-anchor="middle" x="445" y="-701.5" font-family="Helvetica,sans-Serif" font-size="10.00">CCSDS_read_sequence</text>
</a>
</g>
</g>
<!-- Node3&#45;&gt;Node4 -->
<g id="edge3" class="edge">
<title>Node3&#45;&gt;Node4</title>
<path fill="none" stroke="midnightblue" d="M312.04,-675.59C335.64,-680.67 364.83,-686.96 389.75,-692.32"/>
<polygon fill="midnightblue" stroke="midnightblue" points="389.27,-695.8 399.78,-694.48 390.74,-688.95 389.27,-695.8"/>
</g>
<!-- Node5 -->
<g id="node5" class="node">
<title>Node5</title>
<g id="a_node5"><a xlink:href="gs_8c.html#ac7906f03ef12d51bc5a5b27de332984f" target="_top" xlink:title="地上から CMD を受信する. 形式は TCFrame">
<polygon fill="white" stroke="black" points="411,-656.5 411,-675.5 479,-675.5 479,-656.5 411,-656.5"/>
<text text-anchor="middle" x="445" y="-663.5" font-family="Helvetica,sans-Serif" font-size="10.00">GS_rec_tcf</text>
</a>
</g>
</g>
<!-- Node3&#45;&gt;Node5 -->
<g id="edge4" class="edge">
<title>Node3&#45;&gt;Node5</title>
<path fill="none" stroke="midnightblue" d="M345.17,-666C364.17,-666 383.82,-666 400.56,-666"/>
<polygon fill="midnightblue" stroke="midnightblue" points="400.57,-669.5 410.56,-666 400.56,-662.5 400.57,-669.5"/>
</g>
<!-- Node6 -->
<g id="node6" class="node">
<title>Node6</title>
<g id="a_node6"><a xlink:href="driver__super_8c.html#a5048adcd683afb1bb71d4277a0f673d7" target="_top" xlink:title="data_analyzer_ を呼び出し，受信データを解析する．">
<polygon fill="white" stroke="black" points="551.5,-656.5 551.5,-675.5 672.5,-675.5 672.5,-656.5 551.5,-656.5"/>
<text text-anchor="middle" x="612" y="-663.5" font-family="Helvetica,sans-Serif" font-size="10.00">DS_analyze_rec_data</text>
</a>
</g>
</g>
<!-- Node5&#45;&gt;Node6 -->
<g id="edge5" class="edge">
<title>Node5&#45;&gt;Node6</title>
<path fill="none" stroke="midnightblue" d="M479.39,-666C497.19,-666 519.79,-666 541.22,-666"/>
<polygon fill="midnightblue" stroke="midnightblue" points="541.29,-669.5 551.29,-666 541.29,-662.5 541.29,-669.5"/>
</g>
<!-- Node7 -->
<g id="node7" class="node">
<title>Node7</title>
<g id="a_node7"><a xlink:href="driver__super_8c.html#acadaccbff239185ebda242d39d4942bd" target="_top" xlink:title="継承先の機器からテレメトリを受信する">
<polygon fill="white" stroke="black" points="576.5,-744.5 576.5,-763.5 647.5,-763.5 647.5,-744.5 576.5,-744.5"/>
<text text-anchor="middle" x="612" y="-751.5" font-family="Helvetica,sans-Serif" font-size="10.00">DS_receive</text>
</a>
</g>
</g>
<!-- Node5&#45;&gt;Node7 -->
<g id="edge6" class="edge">
<title>Node5&#45;&gt;Node7</title>
<path fill="none" stroke="midnightblue" d="M479.22,-671.75C489.41,-674.6 500.23,-678.8 509,-685 531.07,-700.59 522.94,-718.39 545,-734 551.46,-738.57 558.98,-742.11 566.59,-744.86"/>
<polygon fill="midnightblue" stroke="midnightblue" points="565.61,-748.22 576.2,-747.92 567.73,-741.55 565.61,-748.22"/>
</g>
<!-- Node27 -->
<g id="node23" class="node">
<title>Node27</title>
<g id="a_node23"><a xlink:href="driver__super_8c.html#a5585e9e6e3293d17098598a4e88b0976" target="_top" xlink:title=" ">
<polygon fill="white" stroke="black" points="552.5,-618.5 552.5,-637.5 671.5,-637.5 671.5,-618.5 552.5,-618.5"/>
<text text-anchor="middle" x="612" y="-625.5" font-family="Helvetica,sans-Serif" font-size="10.00">DSSC_get_rec_status</text>
</a>
</g>
</g>
<!-- Node5&#45;&gt;Node27 -->
<g id="edge24" class="edge">
<title>Node5&#45;&gt;Node27</title>
<path fill="none" stroke="midnightblue" d="M479.39,-658.31C502.44,-653 533.52,-645.84 559.69,-639.82"/>
<polygon fill="midnightblue" stroke="midnightblue" points="560.5,-643.22 569.46,-637.57 558.93,-636.4 560.5,-643.22"/>
</g>
<!-- Node28 -->
<g id="node24" class="node">
<title>Node28</title>
<g id="a_node24"><a xlink:href="time__manager_8c.html#a576e42803f8f3896524dbb266a47a08f" target="_top" xlink:title=" ">
<polygon fill="white" stroke="black" points="545,-695 545,-725 679,-725 679,-695 545,-695"/>
<text text-anchor="start" x="553" y="-713" font-family="Helvetica,sans-Serif" font-size="10.00">TMGR_get_master_total</text>
<text text-anchor="middle" x="612" y="-702" font-family="Helvetica,sans-Serif" font-size="10.00">_cycle</text>
</a>
</g>
</g>
<!-- Node5&#45;&gt;Node28 -->
<g id="edge25" class="edge">
<title>Node5&#45;&gt;Node28</title>
<path fill="none" stroke="midnightblue" d="M479.39,-674.9C498.17,-679.91 522.3,-686.35 544.75,-692.33"/>
<polygon fill="midnightblue" stroke="midnightblue" points="544.02,-695.76 554.59,-694.96 545.83,-689 544.02,-695.76"/>
</g>
<!-- Node8 -->
<g id="node8" class="node">
<title>Node8</title>
<g id="a_node8"><a xlink:href="driver__super_8c.html#a813429b169d4c05cce10cff391dd901c" target="_top" xlink:title="受信フレーム解析関数">
<polygon fill="white" stroke="black" points="716,-800.5 716,-819.5 844,-819.5 844,-800.5 716,-800.5"/>
<text text-anchor="middle" x="780" y="-807.5" font-family="Helvetica,sans-Serif" font-size="10.00">DS_analyze_rx_buffer_</text>
</a>
</g>
</g>
<!-- Node7&#45;&gt;Node8 -->
<g id="edge7" class="edge">
<title>Node7&#45;&gt;Node8</title>
<path fill="none" stroke="midnightblue" d="M641.54,-763.63C669.02,-772.9 710.77,-786.98 741.05,-797.2"/>
<polygon fill="midnightblue" stroke="midnightblue" points="740.24,-800.62 750.84,-800.5 742.48,-793.99 740.24,-800.62"/>
</g>
<!-- Node20 -->
<g id="node16" class="node">
<title>Node20</title>
<g id="a_node16"><a xlink:href="driver__super_8c.html#a60c364a73c9e59802dd758e8ce57b3ce" target="_top" xlink:title="継承先の機器からの受信データがあるか確認し，受信する">
<polygon fill="white" stroke="black" points="755,-892.5 755,-911.5 805,-911.5 805,-892.5 755,-892.5"/>
<text text-anchor="middle" x="780" y="-899.5" font-family="Helvetica,sans-Serif" font-size="10.00">DS_rx_</text>
</a>
</g>
</g>
<!-- Node7&#45;&gt;Node20 -->
<g id="edge16" class="edge">
<title>Node7&#45;&gt;Node20</title>
<path fill="none" stroke="midnightblue" d="M623.89,-763.71C651.8,-788.6 726.13,-854.86 760.76,-885.74"/>
<polygon fill="midnightblue" stroke="midnightblue" points="758.49,-888.4 768.28,-892.45 763.15,-883.18 758.49,-888.4"/>
</g>
<!-- Node21 -->
<g id="node17" class="node">
<title>Node21</title>
<g id="a_node17"><a xlink:href="driver__super_8c.html#ad1bdc8947460e5efe01f9970684d06dc" target="_top" xlink:title=" ">
<polygon fill="white" stroke="black" points="906.5,-632 906.5,-662 1021.5,-662 1021.5,-632 906.5,-632"/>
<text text-anchor="start" x="914.5" y="-650" font-family="Helvetica,sans-Serif" font-size="10.00">DS_validate_stream</text>
<text text-anchor="middle" x="964" y="-639" font-family="Helvetica,sans-Serif" font-size="10.00">_config_</text>
</a>
</g>
</g>
<!-- Node7&#45;&gt;Node21 -->
<g id="edge18" class="edge">
<title>Node7&#45;&gt;Node21</title>
<path fill="none" stroke="midnightblue" d="M647.6,-747.63C658.26,-744.62 669.65,-740.26 679,-734 700,-719.95 693.18,-702.74 715,-690 770.37,-657.68 843.73,-648.28 896.28,-646.15"/>
<polygon fill="midnightblue" stroke="midnightblue" points="896.62,-649.64 906.5,-645.81 896.39,-642.64 896.62,-649.64"/>
</g>
<!-- Node22 -->
<g id="node18" class="node">
<title>Node22</title>
<g id="a_node18"><a xlink:href="obc__time_8c.html#a51f2c2c48be7ec8985ec47f36bef1335" target="_top" xlink:title=" ">
<polygon fill="white" stroke="black" points="725,-738.5 725,-757.5 835,-757.5 835,-738.5 725,-738.5"/>
<text text-anchor="middle" x="780" y="-745.5" font-family="Helvetica,sans-Serif" font-size="10.00">OBCT_diff_in_msec</text>
</a>
</g>
</g>
<!-- Node7&#45;&gt;Node22 -->
<g id="edge19" class="edge">
<title>Node7&#45;&gt;Node22</title>
<path fill="none" stroke="midnightblue" d="M647.8,-752.74C667.17,-752.04 691.91,-751.15 714.67,-750.33"/>
<polygon fill="midnightblue" stroke="midnightblue" points="715.1,-753.81 724.96,-749.95 714.84,-746.82 715.1,-753.81"/>
</g>
<!-- Node25 -->
<g id="node21" class="node">
<title>Node25</title>
<g id="a_node21"><a xlink:href="time__manager_8c.html#a9d04b4d9b622cbe5a90cf65e58b828bc" target="_top" xlink:title=" ">
<polygon fill="white" stroke="black" points="1090.5,-542.5 1090.5,-561.5 1227.5,-561.5 1227.5,-542.5 1090.5,-542.5"/>
<text text-anchor="middle" x="1159" y="-549.5" font-family="Helvetica,sans-Serif" font-size="10.00">TMGR_get_master_clock</text>
</a>
</g>
</g>
<!-- Node7&#45;&gt;Node25 -->
<g id="edge22" class="edge">
<title>Node7&#45;&gt;Node25</title>
<path fill="none" stroke="midnightblue" d="M647.8,-744.85C667.46,-739.84 692.52,-733.71 715,-729 861.6,-698.26 915.3,-742.36 1047,-671 1092.11,-646.56 1129.07,-596.92 1146.75,-570.12"/>
<polygon fill="midnightblue" stroke="midnightblue" points="1149.72,-571.98 1152.18,-561.68 1143.83,-568.19 1149.72,-571.98"/>
</g>
<!-- Node9 -->
<g id="node9" class="node">
<title>Node9</title>
<g id="a_node9"><a xlink:href="driver__super_8c.html#a315021431cc376fea12509fd0962e0cc" target="_top" xlink:title="フレーム解析関数後のデータ繰越関数">
<polygon fill="white" stroke="black" points="903,-820 903,-850 1025,-850 1025,-820 903,-820"/>
<text text-anchor="start" x="911" y="-838" font-family="Helvetica,sans-Serif" font-size="10.00">DS_analyze_rx_buffer</text>
<text text-anchor="middle" x="964" y="-827" font-family="Helvetica,sans-Serif" font-size="10.00">_carry_over_buffer_</text>
</a>
</g>
</g>
<!-- Node8&#45;&gt;Node9 -->
<g id="edge8" class="edge">
<title>Node8&#45;&gt;Node9</title>
<path fill="none" stroke="midnightblue" d="M844.14,-818.67C859.72,-820.81 876.51,-823.12 892.42,-825.3"/>
<polygon fill="midnightblue" stroke="midnightblue" points="892.34,-828.83 902.73,-826.72 893.29,-821.89 892.34,-828.83"/>
</g>
<!-- Node10 -->
<g id="node10" class="node">
<title>Node10</title>
<g id="a_node10"><a xlink:href="driver__super_8c.html#adb55026a05103c4bf63d2354134864c7" target="_top" xlink:title="フレーム解析関数">
<polygon fill="white" stroke="black" points="903,-869 903,-899 1025,-899 1025,-869 903,-869"/>
<text text-anchor="start" x="911" y="-887" font-family="Helvetica,sans-Serif" font-size="10.00">DS_analyze_rx_buffer</text>
<text text-anchor="middle" x="964" y="-876" font-family="Helvetica,sans-Serif" font-size="10.00">_pickup_</text>
</a>
</g>
</g>
<!-- Node8&#45;&gt;Node10 -->
<g id="edge9" class="edge">
<title>Node8&#45;&gt;Node10</title>
<path fill="none" stroke="midnightblue" d="M797.92,-819.63C817.47,-830.48 850.83,-848.15 881,-860 886.09,-862 891.42,-863.92 896.8,-865.74"/>
<polygon fill="midnightblue" stroke="midnightblue" points="895.94,-869.14 906.53,-868.92 898.11,-862.49 895.94,-869.14"/>
</g>
<!-- Node19 -->
<g id="node15" class="node">
<title>Node19</title>
<g id="a_node15"><a xlink:href="driver__super_8c.html#aa1808ed031c65cfd936fa3c2cc9bae66" target="_top" xlink:title="解析用受信バッファの準備">
<polygon fill="white" stroke="black" points="903,-771 903,-801 1025,-801 1025,-771 903,-771"/>
<text text-anchor="start" x="911" y="-789" font-family="Helvetica,sans-Serif" font-size="10.00">DS_analyze_rx_buffer</text>
<text text-anchor="middle" x="964" y="-778" font-family="Helvetica,sans-Serif" font-size="10.00">_prepare_buffer_</text>
</a>
</g>
</g>
<!-- Node8&#45;&gt;Node19 -->
<g id="edge15" class="edge">
<title>Node8&#45;&gt;Node19</title>
<path fill="none" stroke="midnightblue" d="M844.14,-801.67C859.72,-799.62 876.51,-797.41 892.42,-795.31"/>
<polygon fill="midnightblue" stroke="midnightblue" points="893.27,-798.73 902.73,-793.95 892.35,-791.79 893.27,-798.73"/>
</g>
<!-- Node11 -->
<g id="node11" class="node">
<title>Node11</title>
<g id="a_node11"><a xlink:href="driver__super_8c.html#a307c2f714ae48261cd20926db4add15c" target="_top" xlink:title="固定長フレーム解析関数（バイト列処理）">
<polygon fill="white" stroke="red" points="1098,-762 1098,-792 1220,-792 1220,-762 1098,-762"/>
<text text-anchor="start" x="1106" y="-780" font-family="Helvetica,sans-Serif" font-size="10.00">DS_analyze_rx_buffer</text>
<text text-anchor="middle" x="1159" y="-769" font-family="Helvetica,sans-Serif" font-size="10.00">_fixed_pickup_</text>
</a>
</g>
</g>
<!-- Node10&#45;&gt;Node11 -->
<g id="edge10" class="edge">
<title>Node10&#45;&gt;Node11</title>
<path fill="none" stroke="midnightblue" d="M1025.26,-871.98C1033.02,-868.86 1040.51,-864.94 1047,-860 1071.15,-841.64 1059.19,-820.81 1083,-802 1085.27,-800.21 1087.68,-798.54 1090.18,-796.99"/>
<polygon fill="midnightblue" stroke="midnightblue" points="1091.92,-800.02 1099.02,-792.15 1088.56,-793.88 1091.92,-800.02"/>
</g>
<!-- Node16 -->
<g id="node12" class="node">
<title>Node16</title>
<g id="a_node12"><a xlink:href="driver__super_8c.html#aba44a396fa200beaf48099d2f50bfb12" target="_top" xlink:title="可変フレーム解析関数（バイト列処理）">
<polygon fill="white" stroke="red" points="1096.5,-871.5 1096.5,-912.5 1221.5,-912.5 1221.5,-871.5 1096.5,-871.5"/>
<text text-anchor="start" x="1104.5" y="-900.5" font-family="Helvetica,sans-Serif" font-size="10.00">DS_analyze_rx_buffer</text>
<text text-anchor="start" x="1104.5" y="-889.5" font-family="Helvetica,sans-Serif" font-size="10.00">_variable_pickup_with</text>
<text text-anchor="middle" x="1159" y="-878.5" font-family="Helvetica,sans-Serif" font-size="10.00">_footer_</text>
</a>
</g>
</g>
<!-- Node10&#45;&gt;Node16 -->
<g id="edge11" class="edge">
<title>Node10&#45;&gt;Node16</title>
<path fill="none" stroke="midnightblue" d="M1025.01,-886.49C1044.41,-887.29 1066.13,-888.19 1086.29,-889.03"/>
<polygon fill="midnightblue" stroke="midnightblue" points="1086.23,-892.53 1096.36,-889.45 1086.52,-885.53 1086.23,-892.53"/>
</g>
<!-- Node17 -->
<g id="node14" class="node">
<title>Node17</title>
<g id="a_node14"><a xlink:href="driver__super_8c.html#ae3822bd6031c1023b5eac98cc3bf8e57" target="_top" xlink:title="可変フレーム解析関数（バイト列処理）">
<polygon fill="white" stroke="red" points="1096.5,-811.5 1096.5,-852.5 1221.5,-852.5 1221.5,-811.5 1096.5,-811.5"/>
<text text-anchor="start" x="1104.5" y="-840.5" font-family="Helvetica,sans-Serif" font-size="10.00">DS_analyze_rx_buffer</text>
<text text-anchor="start" x="1104.5" y="-829.5" font-family="Helvetica,sans-Serif" font-size="10.00">_variable_pickup_with</text>
<text text-anchor="middle" x="1159" y="-818.5" font-family="Helvetica,sans-Serif" font-size="10.00">_rx_frame_size_</text>
</a>
</g>
</g>
<!-- Node10&#45;&gt;Node17 -->
<g id="edge13" class="edge">
<title>Node10&#45;&gt;Node17</title>
<path fill="none" stroke="midnightblue" d="M1020.82,-868.96C1041.29,-863.45 1064.75,-857.13 1086.4,-851.29"/>
<polygon fill="midnightblue" stroke="midnightblue" points="1087.47,-854.63 1096.21,-848.65 1085.65,-847.87 1087.47,-854.63"/>
</g>
<!-- Node13 -->
<g id="node13" class="node">
<title>Node13</title>
<g id="a_node13"><a xlink:href="src__core_2_library_2print_8c.html#a4bc499fc724de87725ee7dc60ed1d106" target="_top" xlink:title=" ">
<polygon fill="white" stroke="black" points="1289.5,-852.5 1289.5,-871.5 1332.5,-871.5 1332.5,-852.5 1289.5,-852.5"/>
<text text-anchor="middle" x="1311" y="-859.5" font-family="Helvetica,sans-Serif" font-size="10.00">Printf</text>
</a>
</g>
</g>
<!-- Node16&#45;&gt;Node13 -->
<g id="edge12" class="edge">
<title>Node16&#45;&gt;Node13</title>
<path fill="none" stroke="midnightblue" d="M1221.88,-879.62C1241.6,-875.68 1262.58,-871.48 1279.12,-868.18"/>
<polygon fill="midnightblue" stroke="midnightblue" points="1280.17,-871.54 1289.29,-866.14 1278.8,-864.67 1280.17,-871.54"/>
</g>
<!-- Node17&#45;&gt;Node13 -->
<g id="edge14" class="edge">
<title>Node17&#45;&gt;Node13</title>
<path fill="none" stroke="midnightblue" d="M1221.88,-844.38C1241.6,-848.32 1262.58,-852.52 1279.12,-855.82"/>
<polygon fill="midnightblue" stroke="midnightblue" points="1278.8,-859.33 1289.29,-857.86 1280.17,-852.46 1278.8,-859.33"/>
</g>
<!-- Node20&#45;&gt;Node13 -->
<g id="edge17" class="edge">
<title>Node20&#45;&gt;Node13</title>
<path fill="none" stroke="midnightblue" d="M805.06,-909.16C874.29,-928.48 1079.03,-976.71 1235,-922 1259.16,-913.52 1281.32,-893.63 1295.19,-879.06"/>
<polygon fill="midnightblue" stroke="midnightblue" points="1297.83,-881.36 1302,-871.62 1292.67,-876.64 1297.83,-881.36"/>
</g>
<!-- Node23 -->
<g id="node19" class="node">
<title>Node23</title>
<g id="a_node19"><a xlink:href="obc__time_8c.html#a3adce1b790eb67e1eff3cb1e79fc197f" target="_top" xlink:title=" ">
<polygon fill="white" stroke="black" points="911.5,-732.5 911.5,-751.5 1016.5,-751.5 1016.5,-732.5 911.5,-732.5"/>
<text text-anchor="middle" x="964" y="-739.5" font-family="Helvetica,sans-Serif" font-size="10.00">OBCT_diff_in_step</text>
</a>
</g>
</g>
<!-- Node22&#45;&gt;Node23 -->
<g id="edge20" class="edge">
<title>Node22&#45;&gt;Node23</title>
<path fill="none" stroke="midnightblue" d="M835.11,-746.22C855.82,-745.53 879.6,-744.75 901,-744.04"/>
<polygon fill="midnightblue" stroke="midnightblue" points="901.4,-747.53 911.28,-743.71 901.17,-740.54 901.4,-747.53"/>
</g>
<!-- Node24 -->
<g id="node20" class="node">
<title>Node24</title>
<g id="a_node20"><a xlink:href="obc__time_8c.html#a02512f745375636ab21f468838587942" target="_top" xlink:title=" ">
<polygon fill="white" stroke="black" points="1126.5,-723.5 1126.5,-742.5 1191.5,-742.5 1191.5,-723.5 1126.5,-723.5"/>
<text text-anchor="middle" x="1159" y="-730.5" font-family="Helvetica,sans-Serif" font-size="10.00">OBCT_diff</text>
</a>
</g>
</g>
<!-- Node23&#45;&gt;Node24 -->
<g id="edge21" class="edge">
<title>Node23&#45;&gt;Node24</title>
<path fill="none" stroke="midnightblue" d="M1016.72,-739.59C1047.85,-738.14 1086.96,-736.31 1116.14,-734.95"/>
<polygon fill="midnightblue" stroke="midnightblue" points="1116.58,-738.44 1126.4,-734.47 1116.25,-731.44 1116.58,-738.44"/>
</g>
<!-- Node26 -->
<g id="node22" class="node">
<title>Node26</title>
<g id="a_node22"><a xlink:href="obc__time_8c.html#a70416835a40bdacbb04f6f06b1e6d1e1" target="_top" xlink:title=" ">
<polygon fill="white" stroke="black" points="1271,-542.5 1271,-561.5 1351,-561.5 1351,-542.5 1271,-542.5"/>
<text text-anchor="middle" x="1311" y="-549.5" font-family="Helvetica,sans-Serif" font-size="10.00">OBCT_create</text>
</a>
</g>
</g>
<!-- Node25&#45;&gt;Node26 -->
<g id="edge23" class="edge">
<title>Node25&#45;&gt;Node26</title>
<path fill="none" stroke="midnightblue" d="M1227.54,-552C1238.62,-552 1249.92,-552 1260.46,-552"/>
<polygon fill="midnightblue" stroke="midnightblue" points="1260.71,-555.5 1270.71,-552 1260.71,-548.5 1260.71,-555.5"/>
</g>
<!-- Node29 -->
<g id="node25" class="node">
<title>Node29</title>
<g id="a_node25"><a xlink:href="obc__time_8c.html#ac42c1d017a2cbb8dab608771907c97d5" target="_top" xlink:title=" ">
<polygon fill="white" stroke="black" points="718.5,-618.5 718.5,-637.5 841.5,-637.5 841.5,-618.5 718.5,-618.5"/>
<text text-anchor="middle" x="780" y="-625.5" font-family="Helvetica,sans-Serif" font-size="10.00">OBCT_get_total_cycle</text>
</a>
</g>
</g>
<!-- Node28&#45;&gt;Node29 -->
<g id="edge26" class="edge">
<title>Node28&#45;&gt;Node29</title>
<path fill="none" stroke="midnightblue" d="M659.51,-694.96C666.25,-692.05 672.95,-688.73 679,-685 697.48,-673.62 696.5,-663.35 715,-652 721.76,-647.85 729.34,-644.24 736.87,-641.16"/>
<polygon fill="midnightblue" stroke="midnightblue" points="738.22,-644.39 746.3,-637.54 735.71,-637.85 738.22,-644.39"/>
</g>
<!-- Node30&#45;&gt;Node13 -->
<g id="edge56" class="edge">
<title>Node30&#45;&gt;Node13</title>
<path fill="none" stroke="midnightblue" d="M342.55,-590C412.14,-590 518.57,-590 611,-590 611,-590 611,-590 965,-590 1022.88,-590 1192.4,-671.99 1235,-714 1272.81,-751.29 1295.06,-811.63 1304.55,-842.48"/>
<polygon fill="midnightblue" stroke="midnightblue" points="1301.29,-843.81 1307.47,-852.41 1308.01,-841.83 1301.29,-843.81"/>
</g>
<!-- Node31 -->
<g id="node27" class="node">
<title>Node31</title>
<g id="a_node27"><a xlink:href="gs_8c.html#a3cda832b6c75f514dfb566fa49b59127" target="_top" xlink:title="Driver の初期化">
<polygon fill="white" stroke="black" points="419.5,-427.5 419.5,-446.5 470.5,-446.5 470.5,-427.5 419.5,-427.5"/>
<text text-anchor="middle" x="445" y="-434.5" font-family="Helvetica,sans-Serif" font-size="10.00">GS_init</text>
</a>
</g>
</g>
<!-- Node30&#45;&gt;Node31 -->
<g id="edge28" class="edge">
<title>Node30&#45;&gt;Node31</title>
<path fill="none" stroke="midnightblue" d="M285.07,-574.77C318.35,-545.92 390.32,-483.53 424.81,-453.63"/>
<polygon fill="midnightblue" stroke="midnightblue" points="427.46,-455.97 432.73,-446.77 422.88,-450.68 427.46,-455.97"/>
</g>
<!-- Node32 -->
<g id="node28" class="node">
<title>Node32</title>
<g id="a_node28"><a xlink:href="driver__super_8c.html#ae53312061d6acbd24edd316d126c7dea" target="_top" xlink:title="継承先の機器よりDriverSuperを初期化する">
<polygon fill="white" stroke="black" points="586.5,-504.5 586.5,-523.5 637.5,-523.5 637.5,-504.5 586.5,-504.5"/>
<text text-anchor="middle" x="612" y="-511.5" font-family="Helvetica,sans-Serif" font-size="10.00">DS_init</text>
</a>
</g>
</g>
<!-- Node31&#45;&gt;Node32 -->
<g id="edge29" class="edge">
<title>Node31&#45;&gt;Node32</title>
<path fill="none" stroke="midnightblue" d="M466.56,-446.6C495.42,-460.06 548.1,-484.65 581.24,-500.11"/>
<polygon fill="midnightblue" stroke="midnightblue" points="579.89,-503.35 590.44,-504.4 582.86,-497 579.89,-503.35"/>
</g>
<!-- Node38 -->
<g id="node34" class="node">
<title>Node38</title>
<g id="a_node34"><a xlink:href="gs_8c.html#a4621f4390191b12c281982f635516f67" target="_top" xlink:title="CCSDS 側 Driver の DS 上での初期化設定">
<polygon fill="white" stroke="black" points="551,-422 551,-452 673,-452 673,-422 551,-422"/>
<text text-anchor="start" x="559" y="-440" font-family="Helvetica,sans-Serif" font-size="10.00">GS_load_ccsds_driver</text>
<text text-anchor="middle" x="612" y="-429" font-family="Helvetica,sans-Serif" font-size="10.00">_super_init_settings_</text>
</a>
</g>
</g>
<!-- Node31&#45;&gt;Node38 -->
<g id="edge38" class="edge">
<title>Node31&#45;&gt;Node38</title>
<path fill="none" stroke="midnightblue" d="M470.7,-437C489.27,-437 515.69,-437 540.6,-437"/>
<polygon fill="midnightblue" stroke="midnightblue" points="540.79,-440.5 550.79,-437 540.79,-433.5 540.79,-440.5"/>
</g>
<!-- Node113 -->
<g id="node49" class="node">
<title>Node113</title>
<g id="a_node49"><a xlink:href="gs_8c.html#a940de224a6d318a15603b46983cf69ea" target="_top" xlink:title="UART 側 Driver の DS 上での初期化設定">
<polygon fill="white" stroke="black" points="552.5,-268 552.5,-298 671.5,-298 671.5,-268 552.5,-268"/>
<text text-anchor="start" x="560.5" y="-286" font-family="Helvetica,sans-Serif" font-size="10.00">GS_load_uart_driver</text>
<text text-anchor="middle" x="612" y="-275" font-family="Helvetica,sans-Serif" font-size="10.00">_super_init_settings_</text>
</a>
</g>
</g>
<!-- Node31&#45;&gt;Node113 -->
<g id="edge53" class="edge">
<title>Node31&#45;&gt;Node113</title>
<path fill="none" stroke="midnightblue" d="M456.32,-427.37C482.23,-403.19 550.54,-339.42 587.11,-305.3"/>
<polygon fill="midnightblue" stroke="midnightblue" points="589.9,-307.48 594.83,-298.1 585.13,-302.36 589.9,-307.48"/>
</g>
<!-- Node114 -->
<g id="node50" class="node">
<title>Node114</title>
<g id="a_node50"><a xlink:href="gs__validate_8c.html#a6d00a5c9554a05b6b042017982b3224f" target="_top" xlink:title="GS_ValiateInfo の初期化">
<polygon fill="white" stroke="black" points="564,-383.5 564,-402.5 660,-402.5 660,-383.5 564,-383.5"/>
<text text-anchor="middle" x="612" y="-390.5" font-family="Helvetica,sans-Serif" font-size="10.00">GS_validate_init</text>
</a>
</g>
</g>
<!-- Node31&#45;&gt;Node114 -->
<g id="edge55" class="edge">
<title>Node31&#45;&gt;Node114</title>
<path fill="none" stroke="midnightblue" d="M470.7,-430.41C495.58,-423.78 534.55,-413.39 565.11,-405.24"/>
<polygon fill="midnightblue" stroke="midnightblue" points="566.36,-408.53 575.12,-402.57 564.55,-401.76 566.36,-408.53"/>
</g>
<!-- Node33 -->
<g id="node29" class="node">
<title>Node33</title>
<g id="a_node29"><a xlink:href="driver__super_8c.html#a7f4bb1ea81bf8d3a89752a0fc875afce" target="_top" xlink:title="DriverSuperのリセット">
<polygon fill="white" stroke="black" points="750,-504.5 750,-523.5 810,-523.5 810,-504.5 750,-504.5"/>
<text text-anchor="middle" x="780" y="-511.5" font-family="Helvetica,sans-Serif" font-size="10.00">DS_reset</text>
</a>
</g>
</g>
<!-- Node32&#45;&gt;Node33 -->
<g id="edge30" class="edge">
<title>Node32&#45;&gt;Node33</title>
<path fill="none" stroke="midnightblue" d="M637.85,-514C664.75,-514 708.02,-514 739.57,-514"/>
<polygon fill="midnightblue" stroke="midnightblue" points="739.78,-517.5 749.78,-514 739.78,-510.5 739.78,-517.5"/>
</g>
<!-- Node37 -->
<g id="node33" class="node">
<title>Node37</title>
<g id="a_node33"><a xlink:href="driver__super_8c.html#a54c663378f78e30014495b4957a575ff" target="_top" xlink:title="DriverSuperの設定に不整合が生じていないかチェックする">
<polygon fill="white" stroke="black" points="725,-542.5 725,-561.5 835,-561.5 835,-542.5 725,-542.5"/>
<text text-anchor="middle" x="780" y="-549.5" font-family="Helvetica,sans-Serif" font-size="10.00">DS_validate_config</text>
</a>
</g>
</g>
<!-- Node32&#45;&gt;Node37 -->
<g id="edge36" class="edge">
<title>Node32&#45;&gt;Node37</title>
<path fill="none" stroke="midnightblue" d="M637.85,-519.69C661.42,-525.08 697.55,-533.35 727.36,-540.18"/>
<polygon fill="midnightblue" stroke="midnightblue" points="726.67,-543.61 737.2,-542.43 728.23,-536.79 726.67,-543.61"/>
</g>
<!-- Node33&#45;&gt;Node25 -->
<g id="edge35" class="edge">
<title>Node33&#45;&gt;Node25</title>
<path fill="none" stroke="midnightblue" d="M810.17,-520.49C830.04,-524.68 856.99,-529.91 881,-533 947.95,-541.62 1024.54,-546.5 1080.19,-549.15"/>
<polygon fill="midnightblue" stroke="midnightblue" points="1080.18,-552.65 1090.33,-549.61 1080.5,-545.66 1080.18,-552.65"/>
</g>
<!-- Node34 -->
<g id="node30" class="node">
<title>Node34</title>
<g id="a_node30"><a xlink:href="driver__super_8c.html#a8183efca88aff7a47cd50b16e83a66ca" target="_top" xlink:title=" ">
<polygon fill="white" stroke="black" points="906,-455 906,-485 1022,-485 1022,-455 906,-455"/>
<text text-anchor="start" x="914" y="-473" font-family="Helvetica,sans-Serif" font-size="10.00">DS_load_init_setting</text>
<text text-anchor="middle" x="964" y="-462" font-family="Helvetica,sans-Serif" font-size="10.00">_dummy_</text>
</a>
</g>
</g>
<!-- Node33&#45;&gt;Node34 -->
<g id="edge31" class="edge">
<title>Node33&#45;&gt;Node34</title>
<path fill="none" stroke="midnightblue" d="M810.24,-506.93C833.35,-501.34 866.53,-493.32 896.06,-486.18"/>
<polygon fill="midnightblue" stroke="midnightblue" points="897.02,-489.55 905.91,-483.8 895.37,-482.75 897.02,-489.55"/>
</g>
<!-- Node35 -->
<g id="node31" class="node">
<title>Node35</title>
<g id="a_node31"><a xlink:href="driver__super_8c.html#a8f518ac0c2785b0b5b3de8d226dc91b6" target="_top" xlink:title="DS_StreamConfig構造体の初期化">
<polygon fill="white" stroke="black" points="894,-504.5 894,-523.5 1034,-523.5 1034,-504.5 894,-504.5"/>
<text text-anchor="middle" x="964" y="-511.5" font-family="Helvetica,sans-Serif" font-size="10.00">DS_reset_stream_config_</text>
</a>
</g>
</g>
<!-- Node33&#45;&gt;Node35 -->
<g id="edge32" class="edge">
<title>Node33&#45;&gt;Node35</title>
<path fill="none" stroke="midnightblue" d="M810.24,-514C830.11,-514 857.42,-514 883.46,-514"/>
<polygon fill="midnightblue" stroke="midnightblue" points="883.74,-517.5 893.74,-514 883.74,-510.5 883.74,-517.5"/>
</g>
<!-- Node35&#45;&gt;Node25 -->
<g id="edge34" class="edge">
<title>Node35&#45;&gt;Node25</title>
<path fill="none" stroke="midnightblue" d="M1013.7,-523.59C1039.86,-528.74 1072.28,-535.12 1099.77,-540.53"/>
<polygon fill="midnightblue" stroke="midnightblue" points="1099.16,-543.98 1109.65,-542.48 1100.51,-537.11 1099.16,-543.98"/>
</g>
<!-- Node36 -->
<g id="node32" class="node">
<title>Node36</title>
<g id="a_node32"><a xlink:href="driver__super_8c.html#a17276ca37e76a016ddc12766fda7309f" target="_top" xlink:title=" ">
<polygon fill="white" stroke="black" points="1083,-504.5 1083,-523.5 1235,-523.5 1235,-504.5 1083,-504.5"/>
<text text-anchor="middle" x="1159" y="-511.5" font-family="Helvetica,sans-Serif" font-size="10.00">DS_data_analyzer_dummy_</text>
</a>
</g>
</g>
<!-- Node35&#45;&gt;Node36 -->
<g id="edge33" class="edge">
<title>Node35&#45;&gt;Node36</title>
<path fill="none" stroke="midnightblue" d="M1034.13,-514C1046.59,-514 1059.72,-514 1072.58,-514"/>
<polygon fill="midnightblue" stroke="midnightblue" points="1072.81,-517.5 1082.81,-514 1072.81,-510.5 1072.81,-517.5"/>
</g>
<!-- Node37&#45;&gt;Node21 -->
<g id="edge37" class="edge">
<title>Node37&#45;&gt;Node21</title>
<path fill="none" stroke="midnightblue" d="M799.45,-561.63C828.69,-576.9 886.3,-606.96 924.73,-627.03"/>
<polygon fill="midnightblue" stroke="midnightblue" points="923.58,-630.37 934.06,-631.9 926.82,-624.17 923.58,-630.37"/>
</g>
<!-- Node39 -->
<g id="node35" class="node">
<title>Node39</title>
<g id="a_node35"><a xlink:href="gs_8c.html#a77d8b5e22b2b2615c9046060e50a3308" target="_top" xlink:title="上記初期化の共通部分をまとめた関数">
<polygon fill="white" stroke="black" points="715,-235 715,-265 845,-265 845,-235 715,-235"/>
<text text-anchor="start" x="723" y="-253" font-family="Helvetica,sans-Serif" font-size="10.00">GS_load_default_driver</text>
<text text-anchor="middle" x="780" y="-242" font-family="Helvetica,sans-Serif" font-size="10.00">_super_init_settings_</text>
</a>
</g>
</g>
<!-- Node38&#45;&gt;Node39 -->
<g id="edge39" class="edge">
<title>Node38&#45;&gt;Node39</title>
<path fill="none" stroke="midnightblue" d="M663.59,-421.89C669.09,-419.1 674.37,-415.82 679,-412 724.71,-374.28 755.44,-309.93 769.76,-274.75"/>
<polygon fill="midnightblue" stroke="midnightblue" points="773.1,-275.83 773.52,-265.24 766.59,-273.26 773.1,-275.83"/>
</g>
<!-- Node40 -->
<g id="node36" class="node">
<title>Node40</title>
<g id="a_node36"><a xlink:href="driver__super_8c.html#af0c2601f37b24ce4a3bc94a525a80621" target="_top" xlink:title=" ">
<polygon fill="white" stroke="black" points="923.5,-88.5 923.5,-107.5 1004.5,-107.5 1004.5,-88.5 923.5,-88.5"/>
<text text-anchor="middle" x="964" y="-95.5" font-family="Helvetica,sans-Serif" font-size="10.00">DSSC_enable</text>
</a>
</g>
</g>
<!-- Node39&#45;&gt;Node40 -->
<g id="edge40" class="edge">
<title>Node39&#45;&gt;Node40</title>
<path fill="none" stroke="midnightblue" d="M787.91,-234.89C801.5,-206.94 834.51,-147.25 881,-117 890.66,-110.71 902.16,-106.5 913.44,-103.67"/>
<polygon fill="midnightblue" stroke="midnightblue" points="914.22,-107.08 923.24,-101.53 912.73,-100.24 914.22,-107.08"/>
</g>
<!-- Node41 -->
<g id="node37" class="node">
<title>Node41</title>
<g id="a_node37"><a xlink:href="driver__super_8c.html#a093a693ceac26a42fe3157cae06259ac" target="_top" xlink:title=" ">
<polygon fill="white" stroke="black" points="908.5,-39 908.5,-69 1019.5,-69 1019.5,-39 908.5,-39"/>
<text text-anchor="start" x="916.5" y="-57" font-family="Helvetica,sans-Serif" font-size="10.00">DSSC_enable_strict</text>
<text text-anchor="middle" x="964" y="-46" font-family="Helvetica,sans-Serif" font-size="10.00">_frame_search</text>
</a>
</g>
</g>
<!-- Node39&#45;&gt;Node41 -->
<g id="edge41" class="edge">
<title>Node39&#45;&gt;Node41</title>
<path fill="none" stroke="midnightblue" d="M785.6,-234.9C796.51,-201.63 827.17,-121.54 881,-79 886.33,-74.78 892.38,-71.28 898.7,-68.36"/>
<polygon fill="midnightblue" stroke="midnightblue" points="900.21,-71.53 908.13,-64.49 897.55,-65.05 900.21,-71.53"/>
</g>
<!-- Node42 -->
<g id="node38" class="node">
<title>Node42</title>
<g id="a_node38"><a xlink:href="driver__super_8c.html#ad65037ea9639ef7c8ade47c1c54bbf2e" target="_top" xlink:title=" ">
<polygon fill="white" stroke="black" points="895.5,-0.5 895.5,-19.5 1032.5,-19.5 1032.5,-0.5 895.5,-0.5"/>
<text text-anchor="middle" x="964" y="-7.5" font-family="Helvetica,sans-Serif" font-size="10.00">DSSC_set_data_analyzer</text>
</a>
</g>
</g>
<!-- Node39&#45;&gt;Node42 -->
<g id="edge42" class="edge">
<title>Node39&#45;&gt;Node42</title>
<path fill="none" stroke="midnightblue" d="M783.18,-234.88C789.81,-194.65 813.59,-84.27 881,-29 883.03,-27.34 885.17,-25.82 887.41,-24.42"/>
<polygon fill="midnightblue" stroke="midnightblue" points="889.23,-27.42 896.44,-19.66 885.96,-21.23 889.23,-27.42"/>
</g>
<!-- Node43 -->
<g id="node39" class="node">
<title>Node43</title>
<g id="a_node39"><a xlink:href="driver__super_8c.html#a257d3e5ef0b2a07401bc30641d50b69a" target="_top" xlink:title=" ">
<polygon fill="white" stroke="black" points="895.5,-416.5 895.5,-435.5 1032.5,-435.5 1032.5,-416.5 895.5,-416.5"/>
<text text-anchor="middle" x="964" y="-423.5" font-family="Helvetica,sans-Serif" font-size="10.00">DSSC_set_rx_frame_size</text>
</a>
</g>
</g>
<!-- Node39&#45;&gt;Node43 -->
<g id="edge43" class="edge">
<title>Node39&#45;&gt;Node43</title>
<path fill="none" stroke="midnightblue" d="M786.27,-265.17C798.01,-296.65 829.42,-369.18 881,-406 884.42,-408.44 888.11,-410.59 891.95,-412.47"/>
<polygon fill="midnightblue" stroke="midnightblue" points="890.6,-415.7 901.17,-416.42 893.35,-409.27 890.6,-415.7"/>
</g>
<!-- Node44 -->
<g id="node40" class="node">
<title>Node44</title>
<g id="a_node40"><a xlink:href="driver__super_8c.html#a9869582a20b5ae6e1d3014a3ced86e56" target="_top" xlink:title=" ">
<polygon fill="white" stroke="black" points="892.5,-367 892.5,-397 1035.5,-397 1035.5,-367 892.5,-367"/>
<text text-anchor="start" x="900.5" y="-385" font-family="Helvetica,sans-Serif" font-size="10.00">DSSC_set_rx_framelength</text>
<text text-anchor="middle" x="964" y="-374" font-family="Helvetica,sans-Serif" font-size="10.00">_offset</text>
</a>
</g>
</g>
<!-- Node39&#45;&gt;Node44 -->
<g id="edge44" class="edge">
<title>Node39&#45;&gt;Node44</title>
<path fill="none" stroke="midnightblue" d="M791.13,-265.13C807.38,-288.28 841.52,-332.38 881,-357 884.38,-359.11 887.96,-361.05 891.65,-362.84"/>
<polygon fill="midnightblue" stroke="midnightblue" points="890.44,-366.13 901,-366.97 893.26,-359.73 890.44,-366.13"/>
</g>
<!-- Node45 -->
<g id="node41" class="node">
<title>Node45</title>
<g id="a_node41"><a xlink:href="driver__super_8c.html#af10516ffc854cff7493ca94b1f980c78" target="_top" xlink:title=" ">
<polygon fill="white" stroke="black" points="881,-328.5 881,-347.5 1047,-347.5 1047,-328.5 881,-328.5"/>
<text text-anchor="middle" x="964" y="-335.5" font-family="Helvetica,sans-Serif" font-size="10.00">DSSC_set_rx_framelength_pos</text>
</a>
</g>
</g>
<!-- Node39&#45;&gt;Node45 -->
<g id="edge45" class="edge">
<title>Node39&#45;&gt;Node45</title>
<path fill="none" stroke="midnightblue" d="M798.98,-265.18C818.13,-280.63 849.92,-304.19 881,-318 887.63,-320.95 894.76,-323.5 901.95,-325.7"/>
<polygon fill="midnightblue" stroke="midnightblue" points="901.18,-329.12 911.75,-328.5 903.09,-322.39 901.18,-329.12"/>
</g>
<!-- Node46 -->
<g id="node42" class="node">
<title>Node46</title>
<g id="a_node42"><a xlink:href="driver__super_8c.html#a2791854c5a460d3970eff9f6c9d5c862" target="_top" xlink:title=" ">
<polygon fill="white" stroke="black" points="892.5,-279 892.5,-309 1035.5,-309 1035.5,-279 892.5,-279"/>
<text text-anchor="start" x="900.5" y="-297" font-family="Helvetica,sans-Serif" font-size="10.00">DSSC_set_rx_framelength</text>
<text text-anchor="middle" x="964" y="-286" font-family="Helvetica,sans-Serif" font-size="10.00">_type_size</text>
</a>
</g>
</g>
<!-- Node39&#45;&gt;Node46 -->
<g id="edge46" class="edge">
<title>Node39&#45;&gt;Node46</title>
<path fill="none" stroke="midnightblue" d="M843.13,-265.02C858.56,-268.75 875.23,-272.78 891.09,-276.62"/>
<polygon fill="midnightblue" stroke="midnightblue" points="890.3,-280.03 900.85,-278.97 891.95,-273.22 890.3,-280.03"/>
</g>
<!-- Node47 -->
<g id="node43" class="node">
<title>Node47</title>
<g id="a_node43"><a xlink:href="driver__super_8c.html#ac08f8c480a922624b49921ed953f71be" target="_top" xlink:title=" ">
<polygon fill="white" stroke="black" points="905.5,-240.5 905.5,-259.5 1022.5,-259.5 1022.5,-240.5 905.5,-240.5"/>
<text text-anchor="middle" x="964" y="-247.5" font-family="Helvetica,sans-Serif" font-size="10.00">DSSC_set_rx_header</text>
</a>
</g>
</g>
<!-- Node39&#45;&gt;Node47 -->
<g id="edge47" class="edge">
<title>Node39&#45;&gt;Node47</title>
<path fill="none" stroke="midnightblue" d="M845.17,-250C861.44,-250 878.97,-250 895.4,-250"/>
<polygon fill="midnightblue" stroke="midnightblue" points="895.48,-253.5 905.48,-250 895.48,-246.5 895.48,-253.5"/>
</g>
<!-- Node48 -->
<g id="node44" class="node">
<title>Node48</title>
<g id="a_node44"><a xlink:href="driver__super_8c.html#a42c80644b6772ae2596e20b75804c0c3" target="_top" xlink:title=" ">
<polygon fill="white" stroke="black" points="907.5,-202.5 907.5,-221.5 1020.5,-221.5 1020.5,-202.5 907.5,-202.5"/>
<text text-anchor="middle" x="964" y="-209.5" font-family="Helvetica,sans-Serif" font-size="10.00">DSSC_set_tx_frame</text>
</a>
</g>
</g>
<!-- Node39&#45;&gt;Node48 -->
<g id="edge48" class="edge">
<title>Node39&#45;&gt;Node48</title>
<path fill="none" stroke="midnightblue" d="M845.17,-236.6C865.47,-232.36 887.74,-227.71 907.39,-223.61"/>
<polygon fill="midnightblue" stroke="midnightblue" points="908.33,-226.99 917.41,-221.52 906.9,-220.14 908.33,-226.99"/>
</g>
<!-- Node49 -->
<g id="node45" class="node">
<title>Node49</title>
<g id="a_node45"><a xlink:href="driver__super_8c.html#a9907f5844f74f6b8218993911bdc2735" target="_top" xlink:title=" ">
<polygon fill="white" stroke="black" points="895.5,-164.5 895.5,-183.5 1032.5,-183.5 1032.5,-164.5 895.5,-164.5"/>
<text text-anchor="middle" x="964" y="-171.5" font-family="Helvetica,sans-Serif" font-size="10.00">DSSC_set_tx_frame_size</text>
</a>
</g>
</g>
<!-- Node39&#45;&gt;Node49 -->
<g id="edge49" class="edge">
<title>Node39&#45;&gt;Node49</title>
<path fill="none" stroke="midnightblue" d="M803.1,-234.9C822.76,-222.09 852.71,-204.07 881,-193 887.64,-190.4 894.73,-188.1 901.86,-186.08"/>
<polygon fill="midnightblue" stroke="midnightblue" points="902.8,-189.46 911.56,-183.5 901,-182.69 902.8,-189.46"/>
</g>
<!-- Node50 -->
<g id="node46" class="node">
<title>Node50</title>
<g id="a_node46"><a xlink:href="gs_8c.html#a71a6268f1b467c60429c671e47e51e1d" target="_top" xlink:title="地上からの受信データ解析関数">
<polygon fill="white" stroke="red" points="901,-126.5 901,-145.5 1027,-145.5 1027,-126.5 901,-126.5"/>
<text text-anchor="middle" x="964" y="-133.5" font-family="Helvetica,sans-Serif" font-size="10.00">GS_analyze_rec_data_</text>
</a>
</g>
</g>
<!-- Node39&#45;&gt;Node50 -->
<g id="edge50" class="edge">
<title>Node39&#45;&gt;Node50</title>
<path fill="none" stroke="midnightblue" d="M792.45,-234.9C809.4,-213.67 843.26,-175.31 881,-155 885.28,-152.7 889.83,-150.67 894.51,-148.89"/>
<polygon fill="midnightblue" stroke="midnightblue" points="895.91,-152.11 904.25,-145.57 893.66,-145.48 895.91,-152.11"/>
</g>
<!-- Node51 -->
<g id="node47" class="node">
<title>Node51</title>
<g id="a_node47"><a xlink:href="driver__super_8c.html#adf1f7d5bc6090bf72962786be28d0b9d" target="_top" xlink:title=" ">
<polygon fill="white" stroke="black" points="1102.5,-107.5 1102.5,-126.5 1215.5,-126.5 1215.5,-107.5 1102.5,-107.5"/>
<text text-anchor="middle" x="1159" y="-114.5" font-family="Helvetica,sans-Serif" font-size="10.00">DSSC_get_rx_frame</text>
</a>
</g>
</g>
<!-- Node50&#45;&gt;Node51 -->
<g id="edge51" class="edge">
<title>Node50&#45;&gt;Node51</title>
<path fill="none" stroke="midnightblue" d="M1027.13,-129.88C1047.87,-127.84 1071.04,-125.56 1092.06,-123.49"/>
<polygon fill="midnightblue" stroke="midnightblue" points="1092.58,-126.96 1102.19,-122.49 1091.89,-119.99 1092.58,-126.96"/>
</g>
<!-- Node52 -->
<g id="node48" class="node">
<title>Node52</title>
<g id="a_node48"><a xlink:href="gs__validate_8c.html#a9e8584656da1d94102639deb6702179e" target="_top" xlink:title="tc_frame の検証">
<polygon fill="white" stroke="red" points="1097,-145.5 1097,-164.5 1221,-164.5 1221,-145.5 1097,-145.5"/>
<text text-anchor="middle" x="1159" y="-152.5" font-family="Helvetica,sans-Serif" font-size="10.00">GS_validate_tc_frame</text>
</a>
</g>
</g>
<!-- Node50&#45;&gt;Node52 -->
<g id="edge52" class="edge">
<title>Node50&#45;&gt;Node52</title>
<path fill="none" stroke="midnightblue" d="M1027.13,-142.12C1046.18,-143.99 1067.28,-146.07 1086.88,-148"/>
<polygon fill="midnightblue" stroke="midnightblue" points="1086.68,-151.5 1096.98,-148.99 1087.37,-144.53 1086.68,-151.5"/>
</g>
<!-- Node113&#45;&gt;Node39 -->
<g id="edge54" class="edge">
<title>Node113&#45;&gt;Node39</title>
<path fill="none" stroke="midnightblue" d="M671.53,-271.37C682.25,-269.23 693.56,-266.98 704.67,-264.78"/>
<polygon fill="midnightblue" stroke="midnightblue" points="705.67,-268.15 714.79,-262.76 704.3,-261.28 705.67,-268.15"/>
</g>
</g>
</svg>
