<?xml version="1.0" encoding="UTF-8" standalone="no"?>
<!DOCTYPE svg PUBLIC "-//W3C//DTD SVG 1.1//EN"
 "http://www.w3.org/Graphics/SVG/1.1/DTD/svg11.dtd">
<!-- Generated by graphviz version 2.43.0 (0)
 -->
<!-- Title: src/src_user/Drivers/Com Pages: 1 -->
<svg width="290pt" height="367pt"
 viewBox="0.00 0.00 289.95 367.00" xmlns="http://www.w3.org/2000/svg" xmlns:xlink="http://www.w3.org/1999/xlink">
<g id="graph0" class="graph" transform="scale(1 1) rotate(0) translate(4 363)">
<title>src/src_user/Drivers/Com</title>
<polygon fill="white" stroke="transparent" points="-4,4 -4,-363 285.95,-363 285.95,4 -4,4"/>
<g id="clust1" class="cluster">
<title>clusterdir_857ab89b484a44f88fda86cc6c60dfeb</title>
<g id="a_clust1"><a xlink:href="dir_857ab89b484a44f88fda86cc6c60dfeb.html" target="_top" xlink:title="Drivers">
<polygon fill="#ddddee" stroke="black" points="63.45,-280 63.45,-351 133.45,-351 133.45,-280 63.45,-280"/>
<text text-anchor="middle" x="98.45" y="-339" font-family="Helvetica,sans-Serif" font-size="10.00">Drivers</text>
</a>
</g>
</g>
<!-- dir_34d3b2d3d46b31684cec10270e90683e -->
<g id="node1" class="node">
<title>dir_34d3b2d3d46b31684cec10270e90683e</title>
<g id="a_node1"><a xlink:href="dir_34d3b2d3d46b31684cec10270e90683e.html" target="_top" xlink:title="Com">
<polygon fill="#eeeeff" stroke="black" points="125.45,-324 71.45,-324 71.45,-288 125.45,-288 125.45,-324"/>
<text text-anchor="middle" x="98.45" y="-303.5" font-family="Helvetica,sans-Serif" font-size="10.00">Com</text>
</a>
</g>
</g>
<!-- dir_82a6d08b74acde068a893bd36b924818 -->
<g id="node2" class="node">
<title>dir_82a6d08b74acde068a893bd36b924818</title>
<g id="a_node2"><a xlink:href="dir_82a6d08b74acde068a893bd36b924818.html" target="_top" xlink:title="IfWrapper">
<polygon fill="white" stroke="red" points="281.95,-324 216.95,-324 216.95,-288 281.95,-288 281.95,-324"/>
<text text-anchor="middle" x="249.45" y="-303.5" font-family="Helvetica,sans-Serif" font-size="10.00">IfWrapper</text>
</a>
</g>
</g>
<!-- dir_34d3b2d3d46b31684cec10270e90683e&#45;&gt;dir_82a6d08b74acde068a893bd36b924818 -->
<g id="edge9" class="edge">
<title>dir_34d3b2d3d46b31684cec10270e90683e&#45;&gt;dir_82a6d08b74acde068a893bd36b924818</title>
<path fill="none" stroke="black" d="M125.58,-306C152.47,-306 179.35,-306 206.24,-306"/>
<polygon fill="black" stroke="black" points="206.54,-309.5 216.54,-306 206.54,-302.5 206.54,-309.5"/>
<g id="a_edge9&#45;headlabel"><a xlink:href="dir_000027_000029.html" target="_top" xlink:title="2">
<text text-anchor="middle" x="202.95" y="-309.84" font-family="Helvetica,sans-Serif" font-size="10.00">2</text>
</a>
</g>
</g>
<!-- dir_8db6de9170c801ae5a17095202f7349c -->
<g id="node3" class="node">
<title>dir_8db6de9170c801ae5a17095202f7349c</title>
<g id="a_node3"><a xlink:href="dir_8db6de9170c801ae5a17095202f7349c.html" target="_top" xlink:title="TlmCmd">
<polygon fill="white" stroke="red" points="71.45,-180 13.45,-180 13.45,-144 71.45,-144 71.45,-180"/>
<text text-anchor="middle" x="42.45" y="-159.5" font-family="Helvetica,sans-Serif" font-size="10.00">TlmCmd</text>
</a>
</g>
</g>
<!-- dir_34d3b2d3d46b31684cec10270e90683e&#45;&gt;dir_8db6de9170c801ae5a17095202f7349c -->
<g id="edge10" class="edge">
<title>dir_34d3b2d3d46b31684cec10270e90683e&#45;&gt;dir_8db6de9170c801ae5a17095202f7349c</title>
<path fill="none" stroke="black" d="M91.69,-287.87C82.06,-263.46 64.3,-218.43 52.95,-189.64"/>
<polygon fill="black" stroke="black" points="56.15,-188.21 49.22,-180.19 49.64,-190.78 56.15,-188.21"/>
<g id="a_edge10&#45;headlabel"><a xlink:href="dir_000027_000044.html" target="_top" xlink:title="4">
<text text-anchor="middle" x="60.11" y="-188.01" font-family="Helvetica,sans-Serif" font-size="10.00">4</text>
</a>
</g>
</g>
<!-- dir_a6c80cab417eca370553d013a38aa3d8 -->
<g id="node4" class="node">
<title>dir_a6c80cab417eca370553d013a38aa3d8</title>
<g id="a_node4"><a xlink:href="dir_a6c80cab417eca370553d013a38aa3d8.html" target="_top" xlink:title="Settings">
<polygon fill="white" stroke="red" points="154.45,-252 98.45,-252 98.45,-216 154.45,-216 154.45,-252"/>
<text text-anchor="middle" x="126.45" y="-231.5" font-family="Helvetica,sans-Serif" font-size="10.00">Settings</text>
</a>
</g>
</g>
<!-- dir_34d3b2d3d46b31684cec10270e90683e&#45;&gt;dir_a6c80cab417eca370553d013a38aa3d8 -->
<g id="edge11" class="edge">
<title>dir_34d3b2d3d46b31684cec10270e90683e&#45;&gt;dir_a6c80cab417eca370553d013a38aa3d8</title>
<path fill="none" stroke="black" d="M105.37,-287.7C108.52,-279.81 112.32,-270.3 115.83,-261.55"/>
<polygon fill="black" stroke="black" points="119.14,-262.69 119.6,-252.1 112.64,-260.09 119.14,-262.69"/>
<g id="a_edge11&#45;headlabel"><a xlink:href="dir_000027_000032.html" target="_top" xlink:title="1">
<text text-anchor="middle" x="120.44" y="-264.58" font-family="Helvetica,sans-Serif" font-size="10.00">1</text>
</a>
</g>
</g>
<!-- dir_be63cfd930404a85b97e9333ec04cd9e -->
<g id="node5" class="node">
<title>dir_be63cfd930404a85b97e9333ec04cd9e</title>
<g id="a_node5"><a xlink:href="dir_be63cfd930404a85b97e9333ec04cd9e.html" target="_top" xlink:title="src_core">
<polygon fill="white" stroke="red" points="136.95,-36 79.95,-36 79.95,0 136.95,0 136.95,-36"/>
<text text-anchor="middle" x="108.45" y="-15.5" font-family="Helvetica,sans-Serif" font-size="10.00">src_core</text>
</a>
</g>
</g>
<!-- dir_34d3b2d3d46b31684cec10270e90683e&#45;&gt;dir_be63cfd930404a85b97e9333ec04cd9e -->
<g id="edge12" class="edge">
<title>dir_34d3b2d3d46b31684cec10270e90683e&#45;&gt;dir_be63cfd930404a85b97e9333ec04cd9e</title>
<path fill="none" stroke="black" d="M76.34,-287.94C42.56,-259.63 -15.97,-200.46 4.45,-144 19.32,-102.86 54.3,-65.72 79.59,-42.82"/>
<polygon fill="black" stroke="black" points="81.92,-45.42 87.09,-36.18 77.28,-40.18 81.92,-45.42"/>
<g id="a_edge12&#45;headlabel"><a xlink:href="dir_000027_000001.html" target="_top" xlink:title="8">
<text text-anchor="middle" x="81.11" y="-47.43" font-family="Helvetica,sans-Serif" font-size="10.00">8</text>
</a>
</g>
</g>
<!-- dir_c9ae416fc705fb809a1f033648649fff -->
<g id="node6" class="node">
<title>dir_c9ae416fc705fb809a1f033648649fff</title>
<g id="a_node6"><a xlink:href="dir_c9ae416fc705fb809a1f033648649fff.html" target="_top" xlink:title="Library">
<polygon fill="none" stroke="black" points="199.45,-108 145.45,-108 145.45,-72 199.45,-72 199.45,-108"/>
<text text-anchor="middle" x="172.45" y="-87.5" font-family="Helvetica,sans-Serif" font-size="10.00">Library</text>
</a>
</g>
</g>
<!-- dir_34d3b2d3d46b31684cec10270e90683e&#45;&gt;dir_c9ae416fc705fb809a1f033648649fff -->
<g id="edge13" class="edge">
<title>dir_34d3b2d3d46b31684cec10270e90683e&#45;&gt;dir_c9ae416fc705fb809a1f033648649fff</title>
<path fill="none" stroke="black" d="M125.58,-289.91C139.29,-280.79 154.81,-267.86 163.45,-252 186.4,-209.85 182.65,-151.95 177.66,-118.29"/>
<polygon fill="black" stroke="black" points="181.09,-117.58 176.03,-108.27 174.18,-118.7 181.09,-117.58"/>
<g id="a_edge13&#45;headlabel"><a xlink:href="dir_000027_000011.html" target="_top" xlink:title="2">
<text text-anchor="middle" x="184.47" y="-118.17" font-family="Helvetica,sans-Serif" font-size="10.00">2</text>
</a>
</g>
</g>
<!-- dir_82a6d08b74acde068a893bd36b924818&#45;&gt;dir_a6c80cab417eca370553d013a38aa3d8 -->
<g id="edge19" class="edge">
<title>dir_82a6d08b74acde068a893bd36b924818&#45;&gt;dir_a6c80cab417eca370553d013a38aa3d8</title>
<path fill="none" stroke="black" d="M219.36,-287.88C202.52,-278.29 181.39,-266.27 163.54,-256.11"/>
<polygon fill="black" stroke="black" points="164.96,-252.89 154.54,-250.99 161.5,-258.98 164.96,-252.89"/>
<g id="a_edge19&#45;headlabel"><a xlink:href="dir_000029_000032.html" target="_top" xlink:title="1">
<text text-anchor="middle" x="169.49" y="-249.7" font-family="Helvetica,sans-Serif" font-size="10.00">1</text>
</a>
</g>
</g>
<!-- dir_82a6d08b74acde068a893bd36b924818&#45;&gt;dir_be63cfd930404a85b97e9333ec04cd9e -->
<g id="edge17" class="edge">
<title>dir_82a6d08b74acde068a893bd36b924818&#45;&gt;dir_be63cfd930404a85b97e9333ec04cd9e</title>
<path fill="none" stroke="black" d="M246.86,-287.72C246.06,-246.04 249.76,-138.49 199.45,-72 186.12,-54.39 165.22,-42.02 146.72,-33.69"/>
<polygon fill="black" stroke="black" points="147.89,-30.39 137.32,-29.7 145.16,-36.83 147.89,-30.39"/>
<g id="a_edge17&#45;headlabel"><a xlink:href="dir_000029_000001.html" target="_top" xlink:title="7">
<text text-anchor="middle" x="152.31" y="-26.68" font-family="Helvetica,sans-Serif" font-size="10.00">7</text>
</a>
</g>
</g>
<!-- dir_82a6d08b74acde068a893bd36b924818&#45;&gt;dir_c9ae416fc705fb809a1f033648649fff -->
<g id="edge18" class="edge">
<title>dir_82a6d08b74acde068a893bd36b924818&#45;&gt;dir_c9ae416fc705fb809a1f033648649fff</title>
<path fill="none" stroke="black" d="M244.02,-287.95C234.54,-258.42 214.08,-195.94 194.45,-144 191.16,-135.29 187.34,-125.88 183.81,-117.44"/>
<polygon fill="black" stroke="black" points="186.97,-115.93 179.86,-108.07 180.52,-118.65 186.97,-115.93"/>
<g id="a_edge18&#45;headlabel"><a xlink:href="dir_000029_000011.html" target="_top" xlink:title="1">
<text text-anchor="middle" x="190.99" y="-115.64" font-family="Helvetica,sans-Serif" font-size="10.00">1</text>
</a>
</g>
</g>
<!-- dir_8db6de9170c801ae5a17095202f7349c&#45;&gt;dir_34d3b2d3d46b31684cec10270e90683e -->
<g id="edge5" class="edge">
<title>dir_8db6de9170c801ae5a17095202f7349c&#45;&gt;dir_34d3b2d3d46b31684cec10270e90683e</title>
<path fill="none" stroke="black" d="M42.58,-180.12C43.3,-198.59 46.15,-228.51 56.45,-252 60.83,-262 67.57,-271.73 74.38,-280.06"/>
<polygon fill="black" stroke="black" points="71.94,-282.6 81.12,-287.89 77.25,-278.03 71.94,-282.6"/>
<g id="a_edge5&#45;headlabel"><a xlink:href="dir_000044_000027.html" target="_top" xlink:title="1">
<text text-anchor="middle" x="67.45" y="-279.23" font-family="Helvetica,sans-Serif" font-size="10.00">1</text>
</a>
</g>
</g>
<!-- dir_8db6de9170c801ae5a17095202f7349c&#45;&gt;dir_a6c80cab417eca370553d013a38aa3d8 -->
<g id="edge6" class="edge">
<title>dir_8db6de9170c801ae5a17095202f7349c&#45;&gt;dir_a6c80cab417eca370553d013a38aa3d8</title>
<path fill="none" stroke="black" d="M68.87,-180.1C80.22,-188.8 93.26,-199.52 104.13,-209.03"/>
<polygon fill="black" stroke="black" points="101.81,-211.65 111.6,-215.7 106.47,-206.43 101.81,-211.65"/>
<g id="a_edge6&#45;headlabel"><a xlink:href="dir_000044_000032.html" target="_top" xlink:title="9">
<text text-anchor="middle" x="97.23" y="-208.88" font-family="Helvetica,sans-Serif" font-size="10.00">9</text>
</a>
</g>
</g>
<!-- dir_8db6de9170c801ae5a17095202f7349c&#45;&gt;dir_be63cfd930404a85b97e9333ec04cd9e -->
<g id="edge7" class="edge">
<title>dir_8db6de9170c801ae5a17095202f7349c&#45;&gt;dir_be63cfd930404a85b97e9333ec04cd9e</title>
<path fill="none" stroke="black" d="M45.82,-143.87C54.63,-119.35 75.43,-74.03 90.86,-45.26"/>
<polygon fill="black" stroke="black" points="94.1,-46.64 95.87,-36.19 87.97,-43.25 94.1,-46.64"/>
<g id="a_edge7&#45;headlabel"><a xlink:href="dir_000044_000001.html" target="_top" xlink:title="46">
<text text-anchor="middle" x="94.85" y="-48.65" font-family="Helvetica,sans-Serif" font-size="10.00">46</text>
</a>
</g>
</g>
<!-- dir_8db6de9170c801ae5a17095202f7349c&#45;&gt;dir_c9ae416fc705fb809a1f033648649fff -->
<g id="edge8" class="edge">
<title>dir_8db6de9170c801ae5a17095202f7349c&#45;&gt;dir_c9ae416fc705fb809a1f033648649fff</title>
<path fill="none" stroke="black" d="M71.62,-145.29C90.71,-135.01 115.79,-121.51 136.16,-110.54"/>
<polygon fill="black" stroke="black" points="138,-113.52 145.15,-105.7 134.68,-107.36 138,-113.52"/>
<g id="a_edge8&#45;headlabel"><a xlink:href="dir_000044_000011.html" target="_top" xlink:title="4">
<text text-anchor="middle" x="136.18" y="-115.23" font-family="Helvetica,sans-Serif" font-size="10.00">4</text>
</a>
</g>
</g>
<!-- dir_a6c80cab417eca370553d013a38aa3d8&#45;&gt;dir_8db6de9170c801ae5a17095202f7349c -->
<g id="edge14" class="edge">
<title>dir_a6c80cab417eca370553d013a38aa3d8&#45;&gt;dir_8db6de9170c801ae5a17095202f7349c</title>
<path fill="none" stroke="black" d="M99.77,-215.7C88.5,-207.05 75.6,-196.45 64.83,-187.03"/>
<polygon fill="black" stroke="black" points="66.87,-184.15 57.08,-180.1 62.21,-189.37 66.87,-184.15"/>
<g id="a_edge14&#45;headlabel"><a xlink:href="dir_000032_000044.html" target="_top" xlink:title="11">
<text text-anchor="middle" x="71.44" y="-181.93" font-family="Helvetica,sans-Serif" font-size="10.00">11</text>
</a>
</g>
</g>
<!-- dir_a6c80cab417eca370553d013a38aa3d8&#45;&gt;dir_be63cfd930404a85b97e9333ec04cd9e -->
<g id="edge15" class="edge">
<title>dir_a6c80cab417eca370553d013a38aa3d8&#45;&gt;dir_be63cfd930404a85b97e9333ec04cd9e</title>
<path fill="none" stroke="black" d="M121.13,-215.85C114.48,-178.83 106.83,-91.18 106.06,-46.39"/>
<polygon fill="black" stroke="black" points="109.56,-46.22 106.01,-36.23 102.56,-46.25 109.56,-46.22"/>
<g id="a_edge15&#45;headlabel"><a xlink:href="dir_000032_000001.html" target="_top" xlink:title="21">
<text text-anchor="middle" x="112.41" y="-47.3" font-family="Helvetica,sans-Serif" font-size="10.00">21</text>
</a>
</g>
</g>
<!-- dir_a6c80cab417eca370553d013a38aa3d8&#45;&gt;dir_c9ae416fc705fb809a1f033648649fff -->
<g id="edge16" class="edge">
<title>dir_a6c80cab417eca370553d013a38aa3d8&#45;&gt;dir_c9ae416fc705fb809a1f033648649fff</title>
<path fill="none" stroke="black" d="M127.41,-215.87C132.74,-191.46 147.05,-146.43 158.41,-117.64"/>
<polygon fill="black" stroke="black" points="161.73,-118.77 162.29,-108.19 155.25,-116.11 161.73,-118.77"/>
<g id="a_edge16&#45;headlabel"><a xlink:href="dir_000032_000011.html" target="_top" xlink:title="1">
<text text-anchor="middle" x="162.99" y="-120.67" font-family="Helvetica,sans-Serif" font-size="10.00">1</text>
</a>
</g>
</g>
<!-- dir_be63cfd930404a85b97e9333ec04cd9e&#45;&gt;dir_82a6d08b74acde068a893bd36b924818 -->
<g id="edge4" class="edge">
<title>dir_be63cfd930404a85b97e9333ec04cd9e&#45;&gt;dir_82a6d08b74acde068a893bd36b924818</title>
<path fill="none" stroke="black" d="M137.01,-24.66C162.43,-31.78 198,-46.3 217.45,-72 264.12,-133.68 264.31,-230.71 257.57,-277.7"/>
<polygon fill="black" stroke="black" points="254.09,-277.28 255.88,-287.72 260.99,-278.44 254.09,-277.28"/>
<g id="a_edge4&#45;headlabel"><a xlink:href="dir_000001_000029.html" target="_top" xlink:title="1">
<text text-anchor="middle" x="251.88" y="-270.77" font-family="Helvetica,sans-Serif" font-size="10.00">1</text>
</a>
</g>
</g>
<!-- dir_be63cfd930404a85b97e9333ec04cd9e&#45;&gt;dir_8db6de9170c801ae5a17095202f7349c -->
<g id="edge1" class="edge">
<title>dir_be63cfd930404a85b97e9333ec04cd9e&#45;&gt;dir_8db6de9170c801ae5a17095202f7349c</title>
<path fill="none" stroke="black" d="M105.05,-36.19C96.22,-60.74 75.42,-106.07 59.99,-134.81"/>
<polygon fill="black" stroke="black" points="56.76,-133.43 54.99,-143.87 62.89,-136.81 56.76,-133.43"/>
<g id="a_edge1&#45;headlabel"><a xlink:href="dir_000001_000044.html" target="_top" xlink:title="21">
<text text-anchor="middle" x="56.01" y="-126.41" font-family="Helvetica,sans-Serif" font-size="10.00">21</text>
</a>
</g>
</g>
<!-- dir_be63cfd930404a85b97e9333ec04cd9e&#45;&gt;dir_a6c80cab417eca370553d013a38aa3d8 -->
<g id="edge2" class="edge">
<title>dir_be63cfd930404a85b97e9333ec04cd9e&#45;&gt;dir_a6c80cab417eca370553d013a38aa3d8</title>
<path fill="none" stroke="black" d="M113.78,-36.23C120.43,-73.32 128.07,-160.98 128.84,-205.71"/>
<polygon fill="black" stroke="black" points="125.34,-205.86 128.88,-215.85 132.34,-205.83 125.34,-205.86"/>
<g id="a_edge2&#45;headlabel"><a xlink:href="dir_000001_000032.html" target="_top" xlink:title="34">
<text text-anchor="middle" x="122.48" y="-199.78" font-family="Helvetica,sans-Serif" font-size="10.00">34</text>
</a>
</g>
</g>
<!-- dir_be63cfd930404a85b97e9333ec04cd9e&#45;&gt;dir_c9ae416fc705fb809a1f033648649fff -->
<g id="edge3" class="edge">
<title>dir_be63cfd930404a85b97e9333ec04cd9e&#45;&gt;dir_c9ae416fc705fb809a1f033648649fff</title>
<path fill="none" stroke="black" d="M129.98,-36.1C138.5,-44.47 148.05,-54.69 156.02,-63.92"/>
<polygon fill="black" stroke="black" points="153.43,-66.28 162.54,-71.7 158.8,-61.79 153.43,-66.28"/>
<g id="a_edge3&#45;headlabel"><a xlink:href="dir_000001_000011.html" target="_top" xlink:title="26">
<text text-anchor="middle" x="148.95" y="-62.85" font-family="Helvetica,sans-Serif" font-size="10.00">26</text>
</a>
</g>
</g>
<!-- dir_c9ae416fc705fb809a1f033648649fff&#45;&gt;dir_a6c80cab417eca370553d013a38aa3d8 -->
<g id="edge20" class="edge">
<title>dir_c9ae416fc705fb809a1f033648649fff&#45;&gt;dir_a6c80cab417eca370553d013a38aa3d8</title>
<path fill="none" stroke="black" d="M171.47,-108.19C166.13,-132.64 151.81,-177.67 140.45,-206.44"/>
<polygon fill="black" stroke="black" points="137.14,-205.29 136.58,-215.87 143.61,-207.95 137.14,-205.29"/>
<g id="a_edge20&#45;headlabel"><a xlink:href="dir_000011_000032.html" target="_top" xlink:title="2">
<text text-anchor="middle" x="135.88" y="-198.39" font-family="Helvetica,sans-Serif" font-size="10.00">2</text>
</a>
</g>
</g>
<!-- dir_c9ae416fc705fb809a1f033648649fff&#45;&gt;dir_be63cfd930404a85b97e9333ec04cd9e -->
<g id="edge21" class="edge">
<title>dir_c9ae416fc705fb809a1f033648649fff&#45;&gt;dir_be63cfd930404a85b97e9333ec04cd9e</title>
<path fill="none" stroke="black" d="M150.71,-71.7C142.17,-63.3 132.62,-53.07 124.68,-43.86"/>
<polygon fill="black" stroke="black" points="127.29,-41.52 118.19,-36.1 121.93,-46.02 127.29,-41.52"/>
<g id="a_edge21&#45;headlabel"><a xlink:href="dir_000011_000001.html" target="_top" xlink:title="3">
<text text-anchor="middle" x="131.78" y="-39.96" font-family="Helvetica,sans-Serif" font-size="10.00">3</text>
</a>
</g>
</g>
</g>
</svg>
