<?xml version="1.0" encoding="UTF-8" standalone="no"?>
<!DOCTYPE svg PUBLIC "-//W3C//DTD SVG 1.1//EN"
 "http://www.w3.org/Graphics/SVG/1.1/DTD/svg11.dtd">
<!-- Generated by graphviz version 2.43.0 (0)
 -->
<!-- Title: src/src_core/System/AnomalyLogger Pages: 1 -->
<svg width="132pt" height="151pt"
 viewBox="0.00 0.00 132.00 151.00" xmlns="http://www.w3.org/2000/svg" xmlns:xlink="http://www.w3.org/1999/xlink">
<g id="graph0" class="graph" transform="scale(1 1) rotate(0) translate(4 147)">
<title>src/src_core/System/AnomalyLogger</title>
<polygon fill="white" stroke="transparent" points="-4,4 -4,-147 128,-147 128,4 -4,4"/>
<g id="clust1" class="cluster">
<title>clusterdir_6b45b0e7f9199277896746cad9df186b</title>
<g id="a_clust1"><a xlink:href="dir_6b45b0e7f9199277896746cad9df186b.html" target="_top" xlink:title="System">
<polygon fill="#ddddee" stroke="black" points="8,-64 8,-135 116,-135 116,-64 8,-64"/>
<text text-anchor="middle" x="62" y="-123" font-family="Helvetica,sans-Serif" font-size="10.00">System</text>
</a>
</g>
</g>
<!-- dir_d999f46065a2a9d90b91201b17d9b831 -->
<g id="node1" class="node">
<title>dir_d999f46065a2a9d90b91201b17d9b831</title>
<g id="a_node1"><a xlink:href="dir_d999f46065a2a9d90b91201b17d9b831.html" target="_top" xlink:title="AnomalyLogger">
<polygon fill="#eeeeff" stroke="black" points="108.5,-108 15.5,-108 15.5,-72 108.5,-72 108.5,-108"/>
<text text-anchor="middle" x="62" y="-87.5" font-family="Helvetica,sans-Serif" font-size="10.00">AnomalyLogger</text>
</a>
</g>
</g>
<!-- dir_eee969b9b1fd07f6dd15d1b94d8d842d -->
<g id="node2" class="node">
<title>dir_eee969b9b1fd07f6dd15d1b94d8d842d</title>
<g id="a_node2"><a xlink:href="dir_eee969b9b1fd07f6dd15d1b94d8d842d.html" target="_top" xlink:title="src_user">
<polygon fill="white" stroke="red" points="90.5,-36 33.5,-36 33.5,0 90.5,0 90.5,-36"/>
<text text-anchor="middle" x="62" y="-15.5" font-family="Helvetica,sans-Serif" font-size="10.00">src_user</text>
</a>
</g>
</g>
<!-- dir_d999f46065a2a9d90b91201b17d9b831&#45;&gt;dir_eee969b9b1fd07f6dd15d1b94d8d842d -->
<g id="edge1" class="edge">
<title>dir_d999f46065a2a9d90b91201b17d9b831&#45;&gt;dir_eee969b9b1fd07f6dd15d1b94d8d842d</title>
<path fill="none" stroke="black" d="M62,-71.7C62,-63.98 62,-54.71 62,-46.11"/>
<polygon fill="black" stroke="black" points="65.5,-46.1 62,-36.1 58.5,-46.1 65.5,-46.1"/>
<g id="a_edge1&#45;headlabel"><a xlink:href="dir_000011_000008.html" target="_top" xlink:title="1">
<text text-anchor="middle" x="68.34" y="-47.2" font-family="Helvetica,sans-Serif" font-size="10.00">1</text>
</a>
</g>
</g>
</g>
</svg>
