<?xml version="1.0" encoding="UTF-8" standalone="no"?>
<!DOCTYPE svg PUBLIC "-//W3C//DTD SVG 1.1//EN"
 "http://www.w3.org/Graphics/SVG/1.1/DTD/svg11.dtd">
<!-- Generated by graphviz version 2.43.0 (0)
 -->
<!-- Title: src/src_core/System/ModeManager Pages: 1 -->
<svg width="772pt" height="583pt"
 viewBox="0.00 0.00 772.00 583.00" xmlns="http://www.w3.org/2000/svg" xmlns:xlink="http://www.w3.org/1999/xlink">
<g id="graph0" class="graph" transform="scale(1 1) rotate(0) translate(4 579)">
<title>src/src_core/System/ModeManager</title>
<polygon fill="white" stroke="transparent" points="-4,4 -4,-579 768,-579 768,4 -4,4"/>
<g id="clust1" class="cluster">
<title>clusterdir_6b45b0e7f9199277896746cad9df186b</title>
<g id="a_clust1"><a xlink:href="dir_6b45b0e7f9199277896746cad9df186b.html" target="_top" xlink:title="System">
<polygon fill="#ddddee" stroke="black" points="435,-496 435,-567 537,-567 537,-496 435,-496"/>
<text text-anchor="middle" x="486" y="-555" font-family="Helvetica,sans-Serif" font-size="10.00">System</text>
</a>
</g>
</g>
<!-- dir_b8f4ad119c1313b5390c21b77b270f88 -->
<g id="node1" class="node">
<title>dir_b8f4ad119c1313b5390c21b77b270f88</title>
<g id="a_node1"><a xlink:href="dir_b8f4ad119c1313b5390c21b77b270f88.html" target="_top" xlink:title="ModeManager">
<polygon fill="#eeeeff" stroke="black" points="529,-540 443,-540 443,-504 529,-504 529,-540"/>
<text text-anchor="middle" x="486" y="-519.5" font-family="Helvetica,sans-Serif" font-size="10.00">ModeManager</text>
</a>
</g>
</g>
<!-- dir_43c499926d30da83a4105ced0951a3ae -->
<g id="node2" class="node">
<title>dir_43c499926d30da83a4105ced0951a3ae</title>
<g id="a_node2"><a xlink:href="dir_43c499926d30da83a4105ced0951a3ae.html" target="_top" xlink:title="TlmCmd">
<polygon fill="white" stroke="red" points="226,-540 168,-540 168,-504 226,-504 226,-540"/>
<text text-anchor="middle" x="197" y="-519.5" font-family="Helvetica,sans-Serif" font-size="10.00">TlmCmd</text>
</a>
</g>
</g>
<!-- dir_b8f4ad119c1313b5390c21b77b270f88&#45;&gt;dir_43c499926d30da83a4105ced0951a3ae -->
<g id="edge32" class="edge">
<title>dir_b8f4ad119c1313b5390c21b77b270f88&#45;&gt;dir_43c499926d30da83a4105ced0951a3ae</title>
<path fill="none" stroke="black" d="M442.85,-522C373.98,-522 305.1,-522 236.23,-522"/>
<polygon fill="black" stroke="black" points="236.07,-518.5 226.07,-522 236.07,-525.5 236.07,-518.5"/>
<g id="a_edge32&#45;headlabel"><a xlink:href="dir_000013_000017.html" target="_top" xlink:title="5">
<text text-anchor="middle" x="239.66" y="-513.16" font-family="Helvetica,sans-Serif" font-size="10.00">5</text>
</a>
</g>
</g>
<!-- dir_6fb10adbb579565acd7b0fde9689e187 -->
<g id="node3" class="node">
<title>dir_6fb10adbb579565acd7b0fde9689e187</title>
<g id="a_node3"><a xlink:href="dir_6fb10adbb579565acd7b0fde9689e187.html" target="_top" xlink:title="Library">
<polygon fill="none" stroke="black" points="458,-468 404,-468 404,-432 458,-432 458,-468"/>
<text text-anchor="middle" x="431" y="-447.5" font-family="Helvetica,sans-Serif" font-size="10.00">Library</text>
</a>
</g>
</g>
<!-- dir_b8f4ad119c1313b5390c21b77b270f88&#45;&gt;dir_6fb10adbb579565acd7b0fde9689e187 -->
<g id="edge33" class="edge">
<title>dir_b8f4ad119c1313b5390c21b77b270f88&#45;&gt;dir_6fb10adbb579565acd7b0fde9689e187</title>
<path fill="none" stroke="black" d="M472.4,-503.7C465.88,-495.39 457.93,-485.28 450.75,-476.14"/>
<polygon fill="black" stroke="black" points="453.37,-473.81 444.44,-468.1 447.87,-478.13 453.37,-473.81"/>
<g id="a_edge33&#45;headlabel"><a xlink:href="dir_000013_000006.html" target="_top" xlink:title="1">
<text text-anchor="middle" x="457.82" y="-472.38" font-family="Helvetica,sans-Serif" font-size="10.00">1</text>
</a>
</g>
</g>
<!-- dir_9c060f6614f66753f784535d0ca0f362 -->
<g id="node4" class="node">
<title>dir_9c060f6614f66753f784535d0ca0f362</title>
<g id="a_node4"><a xlink:href="dir_9c060f6614f66753f784535d0ca0f362.html" target="_top" xlink:title="EventManager">
<polygon fill="none" stroke="black" points="471.5,-252 384.5,-252 384.5,-216 471.5,-216 471.5,-252"/>
<text text-anchor="middle" x="428" y="-231.5" font-family="Helvetica,sans-Serif" font-size="10.00">EventManager</text>
</a>
</g>
</g>
<!-- dir_b8f4ad119c1313b5390c21b77b270f88&#45;&gt;dir_9c060f6614f66753f784535d0ca0f362 -->
<g id="edge34" class="edge">
<title>dir_b8f4ad119c1313b5390c21b77b270f88&#45;&gt;dir_9c060f6614f66753f784535d0ca0f362</title>
<path fill="none" stroke="black" d="M482.55,-503.97C472.86,-456.19 445.36,-320.62 433.53,-262.27"/>
<polygon fill="black" stroke="black" points="436.93,-261.41 431.51,-252.31 430.07,-262.8 436.93,-261.41"/>
<g id="a_edge34&#45;headlabel"><a xlink:href="dir_000013_000012.html" target="_top" xlink:title="1">
<text text-anchor="middle" x="440.42" y="-261.87" font-family="Helvetica,sans-Serif" font-size="10.00">1</text>
</a>
</g>
</g>
<!-- dir_eee969b9b1fd07f6dd15d1b94d8d842d -->
<g id="node5" class="node">
<title>dir_eee969b9b1fd07f6dd15d1b94d8d842d</title>
<g id="a_node5"><a xlink:href="dir_eee969b9b1fd07f6dd15d1b94d8d842d.html" target="_top" xlink:title="src_user">
<polygon fill="white" stroke="red" points="384.5,-396 327.5,-396 327.5,-360 384.5,-360 384.5,-396"/>
<text text-anchor="middle" x="356" y="-375.5" font-family="Helvetica,sans-Serif" font-size="10.00">src_user</text>
</a>
</g>
</g>
<!-- dir_b8f4ad119c1313b5390c21b77b270f88&#45;&gt;dir_eee969b9b1fd07f6dd15d1b94d8d842d -->
<g id="edge35" class="edge">
<title>dir_b8f4ad119c1313b5390c21b77b270f88&#45;&gt;dir_eee969b9b1fd07f6dd15d1b94d8d842d</title>
<path fill="none" stroke="black" d="M444.49,-503.83C427.41,-495.12 408.51,-483.15 395,-468 379.11,-450.18 368.87,-424.85 362.88,-405.77"/>
<polygon fill="black" stroke="black" points="366.24,-404.78 360.07,-396.17 359.52,-406.75 366.24,-404.78"/>
<g id="a_edge35&#45;headlabel"><a xlink:href="dir_000013_000007.html" target="_top" xlink:title="3">
<text text-anchor="middle" x="369.98" y="-404.93" font-family="Helvetica,sans-Serif" font-size="10.00">3</text>
</a>
</g>
</g>
<!-- dir_bac5c72f08f800c1dcf30d4637be4edf -->
<g id="node6" class="node">
<title>dir_bac5c72f08f800c1dcf30d4637be4edf</title>
<g id="a_node6"><a xlink:href="dir_bac5c72f08f800c1dcf30d4637be4edf.html" target="_top" xlink:title="Applications">
<polygon fill="none" stroke="black" points="309.5,-180 232.5,-180 232.5,-144 309.5,-144 309.5,-180"/>
<text text-anchor="middle" x="271" y="-159.5" font-family="Helvetica,sans-Serif" font-size="10.00">Applications</text>
</a>
</g>
</g>
<!-- dir_b8f4ad119c1313b5390c21b77b270f88&#45;&gt;dir_bac5c72f08f800c1dcf30d4637be4edf -->
<g id="edge36" class="edge">
<title>dir_b8f4ad119c1313b5390c21b77b270f88&#45;&gt;dir_bac5c72f08f800c1dcf30d4637be4edf</title>
<path fill="none" stroke="black" d="M442.6,-506.03C396.79,-487.75 326.53,-452.14 292,-396 252.11,-331.14 259.38,-236.32 266.13,-190.21"/>
<polygon fill="black" stroke="black" points="269.63,-190.52 267.72,-180.1 262.71,-189.43 269.63,-190.52"/>
<g id="a_edge36&#45;headlabel"><a xlink:href="dir_000013_000002.html" target="_top" xlink:title="1">
<text text-anchor="middle" x="271.87" y="-192.01" font-family="Helvetica,sans-Serif" font-size="10.00">1</text>
</a>
</g>
</g>
<!-- dir_d999f46065a2a9d90b91201b17d9b831 -->
<g id="node7" class="node">
<title>dir_d999f46065a2a9d90b91201b17d9b831</title>
<g id="a_node7"><a xlink:href="dir_d999f46065a2a9d90b91201b17d9b831.html" target="_top" xlink:title="AnomalyLogger">
<polygon fill="none" stroke="black" points="479.5,-108 386.5,-108 386.5,-72 479.5,-72 479.5,-108"/>
<text text-anchor="middle" x="433" y="-87.5" font-family="Helvetica,sans-Serif" font-size="10.00">AnomalyLogger</text>
</a>
</g>
</g>
<!-- dir_b8f4ad119c1313b5390c21b77b270f88&#45;&gt;dir_d999f46065a2a9d90b91201b17d9b831 -->
<g id="edge37" class="edge">
<title>dir_b8f4ad119c1313b5390c21b77b270f88&#45;&gt;dir_d999f46065a2a9d90b91201b17d9b831</title>
<path fill="none" stroke="black" d="M512.46,-503.78C565.28,-467.06 675.87,-377.14 641,-288 609.29,-206.94 523.74,-144.65 472.78,-113.34"/>
<polygon fill="black" stroke="black" points="474.36,-110.21 463.99,-108.04 470.74,-116.21 474.36,-110.21"/>
<g id="a_edge37&#45;headlabel"><a xlink:href="dir_000013_000010.html" target="_top" xlink:title="1">
<text text-anchor="middle" x="478.9" y="-107.14" font-family="Helvetica,sans-Serif" font-size="10.00">1</text>
</a>
</g>
</g>
<!-- dir_ba00befbaf4d77cdef568747aa76492a -->
<g id="node8" class="node">
<title>dir_ba00befbaf4d77cdef568747aa76492a</title>
<g id="a_node8"><a xlink:href="dir_ba00befbaf4d77cdef568747aa76492a.html" target="_top" xlink:title="TimeManager">
<polygon fill="none" stroke="black" points="665,-36 581,-36 581,0 665,0 665,-36"/>
<text text-anchor="middle" x="623" y="-15.5" font-family="Helvetica,sans-Serif" font-size="10.00">TimeManager</text>
</a>
</g>
</g>
<!-- dir_b8f4ad119c1313b5390c21b77b270f88&#45;&gt;dir_ba00befbaf4d77cdef568747aa76492a -->
<g id="edge38" class="edge">
<title>dir_b8f4ad119c1313b5390c21b77b270f88&#45;&gt;dir_ba00befbaf4d77cdef568747aa76492a</title>
<path fill="none" stroke="black" d="M529.13,-518.35C607.22,-510.98 764,-483.19 764,-379 764,-379 764,-379 764,-161 764,-105.81 709.71,-64.44 668.51,-40.99"/>
<polygon fill="black" stroke="black" points="670.12,-37.88 659.68,-36.12 666.74,-44.01 670.12,-37.88"/>
<g id="a_edge38&#45;headlabel"><a xlink:href="dir_000013_000015.html" target="_top" xlink:title="2">
<text text-anchor="middle" x="674.64" y="-34.63" font-family="Helvetica,sans-Serif" font-size="10.00">2</text>
</a>
</g>
</g>
<!-- dir_bb08ec7551d837c0fd67b166f29970be -->
<g id="node9" class="node">
<title>dir_bb08ec7551d837c0fd67b166f29970be</title>
<g id="a_node9"><a xlink:href="dir_bb08ec7551d837c0fd67b166f29970be.html" target="_top" xlink:title="TaskManager">
<polygon fill="none" stroke="black" points="615.5,-324 534.5,-324 534.5,-288 615.5,-288 615.5,-324"/>
<text text-anchor="middle" x="575" y="-303.5" font-family="Helvetica,sans-Serif" font-size="10.00">TaskManager</text>
</a>
</g>
</g>
<!-- dir_b8f4ad119c1313b5390c21b77b270f88&#45;&gt;dir_bb08ec7551d837c0fd67b166f29970be -->
<g id="edge39" class="edge">
<title>dir_b8f4ad119c1313b5390c21b77b270f88&#45;&gt;dir_bb08ec7551d837c0fd67b166f29970be</title>
<path fill="none" stroke="black" d="M493.13,-503.85C508.63,-466.6 545.44,-378.07 563.96,-333.54"/>
<polygon fill="black" stroke="black" points="567.22,-334.81 567.83,-324.23 560.76,-332.12 567.22,-334.81"/>
<g id="a_edge39&#45;headlabel"><a xlink:href="dir_000013_000014.html" target="_top" xlink:title="1">
<text text-anchor="middle" x="568.47" y="-336.72" font-family="Helvetica,sans-Serif" font-size="10.00">1</text>
</a>
</g>
</g>
<!-- dir_43c499926d30da83a4105ced0951a3ae&#45;&gt;dir_6fb10adbb579565acd7b0fde9689e187 -->
<g id="edge1" class="edge">
<title>dir_43c499926d30da83a4105ced0951a3ae&#45;&gt;dir_6fb10adbb579565acd7b0fde9689e187</title>
<path fill="none" stroke="black" d="M226.16,-512.28C268.62,-499.57 347.45,-475.99 393.96,-462.08"/>
<polygon fill="black" stroke="black" points="395.08,-465.4 403.65,-459.18 393.07,-458.69 395.08,-465.4"/>
<g id="a_edge1&#45;headlabel"><a xlink:href="dir_000017_000006.html" target="_top" xlink:title="8">
<text text-anchor="middle" x="392.45" y="-466.65" font-family="Helvetica,sans-Serif" font-size="10.00">8</text>
</a>
</g>
</g>
<!-- dir_43c499926d30da83a4105ced0951a3ae&#45;&gt;dir_9c060f6614f66753f784535d0ca0f362 -->
<g id="edge2" class="edge">
<title>dir_43c499926d30da83a4105ced0951a3ae&#45;&gt;dir_9c060f6614f66753f784535d0ca0f362</title>
<path fill="none" stroke="black" d="M200.31,-503.76C208.84,-485.46 227.04,-455.91 245,-432 296.07,-364 314.45,-351.52 371,-288 379.38,-278.58 388.67,-268.3 397.39,-259.31"/>
<polygon fill="black" stroke="black" points="399.97,-261.68 404.54,-252.12 395.01,-256.74 399.97,-261.68"/>
<g id="a_edge2&#45;headlabel"><a xlink:href="dir_000017_000012.html" target="_top" xlink:title="2">
<text text-anchor="middle" x="399.45" y="-263.73" font-family="Helvetica,sans-Serif" font-size="10.00">2</text>
</a>
</g>
</g>
<!-- dir_43c499926d30da83a4105ced0951a3ae&#45;&gt;dir_eee969b9b1fd07f6dd15d1b94d8d842d -->
<g id="edge3" class="edge">
<title>dir_43c499926d30da83a4105ced0951a3ae&#45;&gt;dir_eee969b9b1fd07f6dd15d1b94d8d842d</title>
<path fill="none" stroke="black" d="M211.59,-503.87C237.22,-478.6 290.03,-431.25 324.3,-402.68"/>
<polygon fill="black" stroke="black" points="326.68,-405.25 332.16,-396.19 322.22,-399.86 326.68,-405.25"/>
<g id="a_edge3&#45;headlabel"><a xlink:href="dir_000017_000007.html" target="_top" xlink:title="36">
<text text-anchor="middle" x="325.71" y="-407.23" font-family="Helvetica,sans-Serif" font-size="10.00">36</text>
</a>
</g>
</g>
<!-- dir_43c499926d30da83a4105ced0951a3ae&#45;&gt;dir_bac5c72f08f800c1dcf30d4637be4edf -->
<g id="edge4" class="edge">
<title>dir_43c499926d30da83a4105ced0951a3ae&#45;&gt;dir_bac5c72f08f800c1dcf30d4637be4edf</title>
<path fill="none" stroke="black" d="M169.9,-503.94C139.19,-479.45 94,-431.48 94,-379 94,-379 94,-379 94,-305 94,-262.81 97.45,-246.11 127,-216 152.22,-190.29 191.4,-176.77 222.63,-169.84"/>
<polygon fill="black" stroke="black" points="223.38,-173.26 232.47,-167.81 221.97,-166.4 223.38,-173.26"/>
<g id="a_edge4&#45;headlabel"><a xlink:href="dir_000017_000002.html" target="_top" xlink:title="4">
<text text-anchor="middle" x="220.43" y="-174.26" font-family="Helvetica,sans-Serif" font-size="10.00">4</text>
</a>
</g>
</g>
<!-- dir_43c499926d30da83a4105ced0951a3ae&#45;&gt;dir_ba00befbaf4d77cdef568747aa76492a -->
<g id="edge5" class="edge">
<title>dir_43c499926d30da83a4105ced0951a3ae&#45;&gt;dir_ba00befbaf4d77cdef568747aa76492a</title>
<path fill="none" stroke="black" d="M167.59,-514.91C112.46,-500.64 0,-459.99 0,-379 0,-379 0,-379 0,-161 0,-45.21 419.77,-23.82 570.23,-19.88"/>
<polygon fill="black" stroke="black" points="570.68,-23.37 580.59,-19.63 570.51,-16.37 570.68,-23.37"/>
<g id="a_edge5&#45;headlabel"><a xlink:href="dir_000017_000015.html" target="_top" xlink:title="10">
<text text-anchor="middle" x="567.15" y="-23.8" font-family="Helvetica,sans-Serif" font-size="10.00">10</text>
</a>
</g>
</g>
<!-- dir_6fb10adbb579565acd7b0fde9689e187&#45;&gt;dir_eee969b9b1fd07f6dd15d1b94d8d842d -->
<g id="edge6" class="edge">
<title>dir_6fb10adbb579565acd7b0fde9689e187&#45;&gt;dir_eee969b9b1fd07f6dd15d1b94d8d842d</title>
<path fill="none" stroke="black" d="M406.54,-431.7C396.49,-423.14 385.08,-412.66 375.58,-403.3"/>
<polygon fill="black" stroke="black" points="377.96,-400.74 368.43,-396.1 372.99,-405.67 377.96,-400.74"/>
<g id="a_edge6&#45;headlabel"><a xlink:href="dir_000006_000007.html" target="_top" xlink:title="3">
<text text-anchor="middle" x="382.51" y="-398.79" font-family="Helvetica,sans-Serif" font-size="10.00">3</text>
</a>
</g>
</g>
<!-- dir_9c060f6614f66753f784535d0ca0f362&#45;&gt;dir_43c499926d30da83a4105ced0951a3ae -->
<g id="edge7" class="edge">
<title>dir_9c060f6614f66753f784535d0ca0f362&#45;&gt;dir_43c499926d30da83a4105ced0951a3ae</title>
<path fill="none" stroke="black" d="M420.18,-252.12C411.94,-262.47 399.73,-275.95 389,-288 332.45,-351.52 314.07,-364 263,-432 247.56,-452.55 231.95,-477.26 219.51,-495.42"/>
<polygon fill="black" stroke="black" points="216.53,-493.57 213.67,-503.76 222.27,-497.58 216.53,-493.57"/>
<g id="a_edge7&#45;headlabel"><a xlink:href="dir_000012_000017.html" target="_top" xlink:title="4">
<text text-anchor="middle" x="216.27" y="-486.49" font-family="Helvetica,sans-Serif" font-size="10.00">4</text>
</a>
</g>
</g>
<!-- dir_9c060f6614f66753f784535d0ca0f362&#45;&gt;dir_eee969b9b1fd07f6dd15d1b94d8d842d -->
<g id="edge8" class="edge">
<title>dir_9c060f6614f66753f784535d0ca0f362&#45;&gt;dir_eee969b9b1fd07f6dd15d1b94d8d842d</title>
<path fill="none" stroke="black" d="M423.88,-252.19C413.97,-276.85 391.1,-322.46 374.44,-351.19"/>
<polygon fill="black" stroke="black" points="371.37,-349.49 369.27,-359.87 377.39,-353.07 371.37,-349.49"/>
<g id="a_edge8&#45;headlabel"><a xlink:href="dir_000012_000007.html" target="_top" xlink:title="6">
<text text-anchor="middle" x="370.77" y="-342.45" font-family="Helvetica,sans-Serif" font-size="10.00">6</text>
</a>
</g>
</g>
<!-- dir_9c060f6614f66753f784535d0ca0f362&#45;&gt;dir_bac5c72f08f800c1dcf30d4637be4edf -->
<g id="edge9" class="edge">
<title>dir_9c060f6614f66753f784535d0ca0f362&#45;&gt;dir_bac5c72f08f800c1dcf30d4637be4edf</title>
<path fill="none" stroke="black" d="M384.12,-216.05C361.66,-206.5 334.54,-194.46 312.45,-184.27"/>
<polygon fill="black" stroke="black" points="313.86,-181.07 303.31,-180.03 310.91,-187.42 313.86,-181.07"/>
<g id="a_edge9&#45;headlabel"><a xlink:href="dir_000012_000002.html" target="_top" xlink:title="1">
<text text-anchor="middle" x="318.31" y="-177.51" font-family="Helvetica,sans-Serif" font-size="10.00">1</text>
</a>
</g>
</g>
<!-- dir_9c060f6614f66753f784535d0ca0f362&#45;&gt;dir_ba00befbaf4d77cdef568747aa76492a -->
<g id="edge10" class="edge">
<title>dir_9c060f6614f66753f784535d0ca0f362&#45;&gt;dir_ba00befbaf4d77cdef568747aa76492a</title>
<path fill="none" stroke="black" d="M443.63,-215.85C478,-178.13 560.28,-87.83 600.33,-43.88"/>
<polygon fill="black" stroke="black" points="603.15,-45.98 607.3,-36.23 597.98,-41.27 603.15,-45.98"/>
<g id="a_edge10&#45;headlabel"><a xlink:href="dir_000012_000015.html" target="_top" xlink:title="4">
<text text-anchor="middle" x="602.83" y="-48.05" font-family="Helvetica,sans-Serif" font-size="10.00">4</text>
</a>
</g>
</g>
<!-- dir_eee969b9b1fd07f6dd15d1b94d8d842d&#45;&gt;dir_43c499926d30da83a4105ced0951a3ae -->
<g id="edge11" class="edge">
<title>dir_eee969b9b1fd07f6dd15d1b94d8d842d&#45;&gt;dir_43c499926d30da83a4105ced0951a3ae</title>
<path fill="none" stroke="black" d="M341.34,-396.19C315.68,-421.49 262.85,-468.84 228.62,-497.39"/>
<polygon fill="black" stroke="black" points="226.25,-494.81 220.76,-503.87 230.7,-500.2 226.25,-494.81"/>
<g id="a_edge11&#45;headlabel"><a xlink:href="dir_000007_000017.html" target="_top" xlink:title="54">
<text text-anchor="middle" x="227.21" y="-487.83" font-family="Helvetica,sans-Serif" font-size="10.00">54</text>
</a>
</g>
</g>
<!-- dir_eee969b9b1fd07f6dd15d1b94d8d842d&#45;&gt;dir_6fb10adbb579565acd7b0fde9689e187 -->
<g id="edge12" class="edge">
<title>dir_eee969b9b1fd07f6dd15d1b94d8d842d&#45;&gt;dir_6fb10adbb579565acd7b0fde9689e187</title>
<path fill="none" stroke="black" d="M380.22,-396.1C390.26,-404.64 401.67,-415.11 411.2,-424.48"/>
<polygon fill="black" stroke="black" points="408.84,-427.07 418.38,-431.7 413.81,-422.14 408.84,-427.07"/>
<g id="a_edge12&#45;headlabel"><a xlink:href="dir_000007_000006.html" target="_top" xlink:title="11">
<text text-anchor="middle" x="404.3" y="-424.02" font-family="Helvetica,sans-Serif" font-size="10.00">11</text>
</a>
</g>
</g>
<!-- dir_eee969b9b1fd07f6dd15d1b94d8d842d&#45;&gt;dir_9c060f6614f66753f784535d0ca0f362 -->
<g id="edge13" class="edge">
<title>dir_eee969b9b1fd07f6dd15d1b94d8d842d&#45;&gt;dir_9c060f6614f66753f784535d0ca0f362</title>
<path fill="none" stroke="black" d="M360.1,-359.87C369.98,-335.24 392.85,-289.64 409.52,-260.88"/>
<polygon fill="black" stroke="black" points="412.59,-262.57 414.69,-252.19 406.57,-259 412.59,-262.57"/>
<g id="a_edge13&#45;headlabel"><a xlink:href="dir_000007_000012.html" target="_top" xlink:title="8">
<text text-anchor="middle" x="413.19" y="-264.61" font-family="Helvetica,sans-Serif" font-size="10.00">8</text>
</a>
</g>
</g>
<!-- dir_eee969b9b1fd07f6dd15d1b94d8d842d&#45;&gt;dir_bac5c72f08f800c1dcf30d4637be4edf -->
<g id="edge14" class="edge">
<title>dir_eee969b9b1fd07f6dd15d1b94d8d842d&#45;&gt;dir_bac5c72f08f800c1dcf30d4637be4edf</title>
<path fill="none" stroke="black" d="M336.43,-359.88C328.74,-349.75 320.74,-336.5 315,-324 294.25,-278.83 277.81,-223.18 271.61,-190.54"/>
<polygon fill="black" stroke="black" points="275.02,-189.69 269.91,-180.4 268.11,-190.84 275.02,-189.69"/>
<g id="a_edge14&#45;headlabel"><a xlink:href="dir_000007_000002.html" target="_top" xlink:title="19">
<text text-anchor="middle" x="278.41" y="-190.26" font-family="Helvetica,sans-Serif" font-size="10.00">19</text>
</a>
</g>
</g>
<!-- dir_eee969b9b1fd07f6dd15d1b94d8d842d&#45;&gt;dir_d999f46065a2a9d90b91201b17d9b831 -->
<g id="edge15" class="edge">
<title>dir_eee969b9b1fd07f6dd15d1b94d8d842d&#45;&gt;dir_d999f46065a2a9d90b91201b17d9b831</title>
<path fill="none" stroke="black" d="M350.82,-359.73C348.09,-329.88 351.58,-266.91 366,-216 376.22,-179.92 395.67,-141.16 411.28,-116.53"/>
<polygon fill="black" stroke="black" points="414.24,-118.4 416.83,-108.12 408.4,-114.54 414.24,-118.4"/>
<g id="a_edge15&#45;headlabel"><a xlink:href="dir_000007_000010.html" target="_top" xlink:title="2">
<text text-anchor="middle" x="414.63" y="-120.46" font-family="Helvetica,sans-Serif" font-size="10.00">2</text>
</a>
</g>
</g>
<!-- dir_eee969b9b1fd07f6dd15d1b94d8d842d&#45;&gt;dir_ba00befbaf4d77cdef568747aa76492a -->
<g id="edge16" class="edge">
<title>dir_eee969b9b1fd07f6dd15d1b94d8d842d&#45;&gt;dir_ba00befbaf4d77cdef568747aa76492a</title>
<path fill="none" stroke="black" d="M368.23,-359.8C378.73,-349.65 393.48,-336.4 406,-324 436.85,-293.46 445.72,-286.55 472,-252 517.69,-191.93 522.96,-172.59 562,-108 574.77,-86.87 588.88,-62.67 600.58,-44.84"/>
<polygon fill="black" stroke="black" points="603.76,-46.39 606.46,-36.15 597.96,-42.47 603.76,-46.39"/>
<g id="a_edge16&#45;headlabel"><a xlink:href="dir_000007_000015.html" target="_top" xlink:title="7">
<text text-anchor="middle" x="604.09" y="-48.46" font-family="Helvetica,sans-Serif" font-size="10.00">7</text>
</a>
</g>
</g>
<!-- dir_eee969b9b1fd07f6dd15d1b94d8d842d&#45;&gt;dir_bb08ec7551d837c0fd67b166f29970be -->
<g id="edge17" class="edge">
<title>dir_eee969b9b1fd07f6dd15d1b94d8d842d&#45;&gt;dir_bb08ec7551d837c0fd67b166f29970be</title>
<path fill="none" stroke="black" d="M384.92,-361.8C386.63,-361.18 388.33,-360.58 390,-360 443.03,-341.67 457.31,-340.28 511,-324 515.31,-322.69 519.81,-321.32 524.35,-319.94"/>
<polygon fill="black" stroke="black" points="525.72,-323.18 534.28,-316.95 523.7,-316.48 525.72,-323.18"/>
<g id="a_edge17&#45;headlabel"><a xlink:href="dir_000007_000014.html" target="_top" xlink:title="3">
<text text-anchor="middle" x="523.09" y="-324.44" font-family="Helvetica,sans-Serif" font-size="10.00">3</text>
</a>
</g>
</g>
<!-- dir_bac5c72f08f800c1dcf30d4637be4edf&#45;&gt;dir_43c499926d30da83a4105ced0951a3ae -->
<g id="edge18" class="edge">
<title>dir_bac5c72f08f800c1dcf30d4637be4edf&#45;&gt;dir_43c499926d30da83a4105ced0951a3ae</title>
<path fill="none" stroke="black" d="M232.36,-171.15C204.78,-178.42 168.72,-191.83 145,-216 115.45,-246.11 112,-262.81 112,-305 112,-379 112,-379 112,-379 112,-426.63 149.22,-470.55 174.58,-496.56"/>
<polygon fill="black" stroke="black" points="172.17,-499.1 181.7,-503.73 177.13,-494.17 172.17,-499.1"/>
<g id="a_edge18&#45;headlabel"><a xlink:href="dir_000002_000017.html" target="_top" xlink:title="28">
<text text-anchor="middle" x="167.62" y="-496.05" font-family="Helvetica,sans-Serif" font-size="10.00">28</text>
</a>
</g>
</g>
<!-- dir_bac5c72f08f800c1dcf30d4637be4edf&#45;&gt;dir_6fb10adbb579565acd7b0fde9689e187 -->
<g id="edge19" class="edge">
<title>dir_bac5c72f08f800c1dcf30d4637be4edf&#45;&gt;dir_6fb10adbb579565acd7b0fde9689e187</title>
<path fill="none" stroke="black" d="M269.39,-180.2C266.41,-222.17 264.64,-331.16 318,-396 337.12,-419.23 368.75,-432.86 393.69,-440.46"/>
<polygon fill="black" stroke="black" points="392.99,-443.9 403.56,-443.27 394.9,-437.17 392.99,-443.9"/>
<g id="a_edge19&#45;headlabel"><a xlink:href="dir_000002_000006.html" target="_top" xlink:title="6">
<text text-anchor="middle" x="388.75" y="-443.15" font-family="Helvetica,sans-Serif" font-size="10.00">6</text>
</a>
</g>
</g>
<!-- dir_bac5c72f08f800c1dcf30d4637be4edf&#45;&gt;dir_9c060f6614f66753f784535d0ca0f362 -->
<g id="edge20" class="edge">
<title>dir_bac5c72f08f800c1dcf30d4637be4edf&#45;&gt;dir_9c060f6614f66753f784535d0ca0f362</title>
<path fill="none" stroke="black" d="M309.58,-177.7C332.89,-187.53 362.5,-200.64 386.33,-211.63"/>
<polygon fill="black" stroke="black" points="384.95,-214.84 395.49,-215.88 387.89,-208.49 384.95,-214.84"/>
<g id="a_edge20&#45;headlabel"><a xlink:href="dir_000002_000012.html" target="_top" xlink:title="3">
<text text-anchor="middle" x="380.49" y="-213.4" font-family="Helvetica,sans-Serif" font-size="10.00">3</text>
</a>
</g>
</g>
<!-- dir_bac5c72f08f800c1dcf30d4637be4edf&#45;&gt;dir_eee969b9b1fd07f6dd15d1b94d8d842d -->
<g id="edge21" class="edge">
<title>dir_bac5c72f08f800c1dcf30d4637be4edf&#45;&gt;dir_eee969b9b1fd07f6dd15d1b94d8d842d</title>
<path fill="none" stroke="black" d="M280.78,-180.4C292.15,-210.46 309.91,-273.73 333,-324 337.17,-333.08 342.54,-342.56 347.24,-350.95"/>
<polygon fill="black" stroke="black" points="344.28,-352.82 352.18,-359.88 350.4,-349.43 344.28,-352.82"/>
<g id="a_edge21&#45;headlabel"><a xlink:href="dir_000002_000007.html" target="_top" xlink:title="10">
<text text-anchor="middle" x="340.05" y="-348.55" font-family="Helvetica,sans-Serif" font-size="10.00">10</text>
</a>
</g>
</g>
<!-- dir_bac5c72f08f800c1dcf30d4637be4edf&#45;&gt;dir_d999f46065a2a9d90b91201b17d9b831 -->
<g id="edge22" class="edge">
<title>dir_bac5c72f08f800c1dcf30d4637be4edf&#45;&gt;dir_d999f46065a2a9d90b91201b17d9b831</title>
<path fill="none" stroke="black" d="M309.8,-144.23C332.11,-134.59 360.35,-122.39 384.16,-112.1"/>
<polygon fill="black" stroke="black" points="385.6,-115.3 393.39,-108.12 382.82,-108.87 385.6,-115.3"/>
<g id="a_edge22&#45;headlabel"><a xlink:href="dir_000002_000010.html" target="_top" xlink:title="4">
<text text-anchor="middle" x="383.42" y="-116.83" font-family="Helvetica,sans-Serif" font-size="10.00">4</text>
</a>
</g>
</g>
<!-- dir_bac5c72f08f800c1dcf30d4637be4edf&#45;&gt;dir_ba00befbaf4d77cdef568747aa76492a -->
<g id="edge23" class="edge">
<title>dir_bac5c72f08f800c1dcf30d4637be4edf&#45;&gt;dir_ba00befbaf4d77cdef568747aa76492a</title>
<path fill="none" stroke="black" d="M286.61,-143.71C306.01,-123.34 341.07,-89.99 378,-72 440.04,-41.77 519.22,-28.66 570.51,-23.05"/>
<polygon fill="black" stroke="black" points="571.11,-26.51 580.7,-22 570.39,-19.54 571.11,-26.51"/>
<g id="a_edge23&#45;headlabel"><a xlink:href="dir_000002_000015.html" target="_top" xlink:title="5">
<text text-anchor="middle" x="567.83" y="-27.2" font-family="Helvetica,sans-Serif" font-size="10.00">5</text>
</a>
</g>
</g>
<!-- dir_d999f46065a2a9d90b91201b17d9b831&#45;&gt;dir_43c499926d30da83a4105ced0951a3ae -->
<g id="edge24" class="edge">
<title>dir_d999f46065a2a9d90b91201b17d9b831&#45;&gt;dir_43c499926d30da83a4105ced0951a3ae</title>
<path fill="none" stroke="black" d="M386.22,-96.43C330.9,-103.88 243.68,-119.26 223,-144 136.93,-246.97 171.81,-426.09 189.3,-493.92"/>
<polygon fill="black" stroke="black" points="185.98,-495.06 191.94,-503.82 192.75,-493.26 185.98,-495.06"/>
<g id="a_edge24&#45;headlabel"><a xlink:href="dir_000010_000017.html" target="_top" xlink:title="1">
<text text-anchor="middle" x="182.31" y="-489.82" font-family="Helvetica,sans-Serif" font-size="10.00">1</text>
</a>
</g>
</g>
<!-- dir_d999f46065a2a9d90b91201b17d9b831&#45;&gt;dir_6fb10adbb579565acd7b0fde9689e187 -->
<g id="edge25" class="edge">
<title>dir_d999f46065a2a9d90b91201b17d9b831&#45;&gt;dir_6fb10adbb579565acd7b0fde9689e187</title>
<path fill="none" stroke="black" d="M449.83,-108.24C459.52,-118.4 471.77,-131.65 482,-144 520.11,-190 517.34,-212.33 562,-252 586.11,-273.41 608.81,-260.11 625,-288 633.03,-301.84 632.55,-309.89 625,-324 592.15,-385.38 514.53,-421.02 468.04,-437.59"/>
<polygon fill="black" stroke="black" points="466.65,-434.36 458.34,-440.93 468.93,-440.98 466.65,-434.36"/>
<g id="a_edge25&#45;headlabel"><a xlink:href="dir_000010_000006.html" target="_top" xlink:title="1">
<text text-anchor="middle" x="469.12" y="-428.01" font-family="Helvetica,sans-Serif" font-size="10.00">1</text>
</a>
</g>
</g>
<!-- dir_d999f46065a2a9d90b91201b17d9b831&#45;&gt;dir_eee969b9b1fd07f6dd15d1b94d8d842d -->
<g id="edge26" class="edge">
<title>dir_d999f46065a2a9d90b91201b17d9b831&#45;&gt;dir_eee969b9b1fd07f6dd15d1b94d8d842d</title>
<path fill="none" stroke="black" d="M428.98,-108.12C418.58,-131.6 395.47,-175.49 384,-216 371.05,-261.74 366.92,-317.21 363.02,-349.66"/>
<polygon fill="black" stroke="black" points="359.53,-349.36 361.69,-359.73 366.47,-350.27 359.53,-349.36"/>
<g id="a_edge26&#45;headlabel"><a xlink:href="dir_000010_000007.html" target="_top" xlink:title="3">
<text text-anchor="middle" x="357.18" y="-342.93" font-family="Helvetica,sans-Serif" font-size="10.00">3</text>
</a>
</g>
</g>
<!-- dir_d999f46065a2a9d90b91201b17d9b831&#45;&gt;dir_ba00befbaf4d77cdef568747aa76492a -->
<g id="edge27" class="edge">
<title>dir_d999f46065a2a9d90b91201b17d9b831&#45;&gt;dir_ba00befbaf4d77cdef568747aa76492a</title>
<path fill="none" stroke="black" d="M479.48,-71.88C507.31,-61.62 542.74,-48.57 571.44,-38"/>
<polygon fill="black" stroke="black" points="572.72,-41.26 580.89,-34.51 570.3,-34.69 572.72,-41.26"/>
<g id="a_edge27&#45;headlabel"><a xlink:href="dir_000010_000015.html" target="_top" xlink:title="2">
<text text-anchor="middle" x="570.33" y="-42.66" font-family="Helvetica,sans-Serif" font-size="10.00">2</text>
</a>
</g>
</g>
<!-- dir_ba00befbaf4d77cdef568747aa76492a&#45;&gt;dir_43c499926d30da83a4105ced0951a3ae -->
<g id="edge28" class="edge">
<title>dir_ba00befbaf4d77cdef568747aa76492a&#45;&gt;dir_43c499926d30da83a4105ced0951a3ae</title>
<path fill="none" stroke="black" d="M580.67,-19.81C443.06,-23.55 18,-44.48 18,-161 18,-379 18,-379 18,-379 18,-450.28 105.12,-490.32 157.91,-508.62"/>
<polygon fill="black" stroke="black" points="157.06,-512.02 167.66,-511.89 159.29,-505.39 157.06,-512.02"/>
<g id="a_edge28&#45;headlabel"><a xlink:href="dir_000015_000017.html" target="_top" xlink:title="2">
<text text-anchor="middle" x="152.75" y="-511.07" font-family="Helvetica,sans-Serif" font-size="10.00">2</text>
</a>
</g>
</g>
<!-- dir_ba00befbaf4d77cdef568747aa76492a&#45;&gt;dir_6fb10adbb579565acd7b0fde9689e187 -->
<g id="edge29" class="edge">
<title>dir_ba00befbaf4d77cdef568747aa76492a&#45;&gt;dir_6fb10adbb579565acd7b0fde9689e187</title>
<path fill="none" stroke="black" d="M646.63,-36.03C677.04,-60.11 726,-107.25 726,-161 726,-307 726,-307 726,-307 726,-420.15 547.63,-443.19 468.29,-447.84"/>
<polygon fill="black" stroke="black" points="468.03,-444.35 458.22,-448.36 468.39,-451.34 468.03,-444.35"/>
<g id="a_edge29&#45;headlabel"><a xlink:href="dir_000015_000006.html" target="_top" xlink:title="1">
<text text-anchor="middle" x="471.47" y="-438.83" font-family="Helvetica,sans-Serif" font-size="10.00">1</text>
</a>
</g>
</g>
<!-- dir_ba00befbaf4d77cdef568747aa76492a&#45;&gt;dir_eee969b9b1fd07f6dd15d1b94d8d842d -->
<g id="edge30" class="edge">
<title>dir_ba00befbaf4d77cdef568747aa76492a&#45;&gt;dir_eee969b9b1fd07f6dd15d1b94d8d842d</title>
<path fill="none" stroke="black" d="M619.9,-36.15C611.84,-54.14 595,-83.19 580,-108 540.96,-172.59 535.69,-191.93 490,-252 463.72,-286.55 454.85,-293.46 424,-324 414.02,-333.88 402.63,-344.3 391.96,-353.26"/>
<polygon fill="black" stroke="black" points="389.5,-350.76 383.98,-359.8 393.94,-356.17 389.5,-350.76"/>
<g id="a_edge30&#45;headlabel"><a xlink:href="dir_000015_000007.html" target="_top" xlink:title="2">
<text text-anchor="middle" x="390.48" y="-343.78" font-family="Helvetica,sans-Serif" font-size="10.00">2</text>
</a>
</g>
</g>
<!-- dir_ba00befbaf4d77cdef568747aa76492a&#45;&gt;dir_bb08ec7551d837c0fd67b166f29970be -->
<g id="edge31" class="edge">
<title>dir_ba00befbaf4d77cdef568747aa76492a&#45;&gt;dir_bb08ec7551d837c0fd67b166f29970be</title>
<path fill="none" stroke="black" d="M640.42,-36.07C646.64,-46.18 652.39,-59.43 655,-72 671.26,-150.33 690.86,-180.49 655,-252 648.39,-265.18 636.77,-275.93 624.35,-284.21"/>
<polygon fill="black" stroke="black" points="622.36,-281.32 615.68,-289.55 626.03,-287.28 622.36,-281.32"/>
<g id="a_edge31&#45;headlabel"><a xlink:href="dir_000015_000014.html" target="_top" xlink:title="1">
<text text-anchor="middle" x="623.93" y="-274.52" font-family="Helvetica,sans-Serif" font-size="10.00">1</text>
</a>
</g>
</g>
<!-- dir_bb08ec7551d837c0fd67b166f29970be&#45;&gt;dir_b8f4ad119c1313b5390c21b77b270f88 -->
<g id="edge46" class="edge">
<title>dir_bb08ec7551d837c0fd67b166f29970be&#45;&gt;dir_b8f4ad119c1313b5390c21b77b270f88</title>
<path fill="none" stroke="black" d="M573.02,-324.32C570.68,-342.44 566.18,-371.6 559,-396 549.21,-429.26 546.77,-438.23 529,-468 523.2,-477.71 515.75,-487.56 508.68,-496.08"/>
<polygon fill="black" stroke="black" points="505.92,-493.92 502.08,-503.8 511.24,-498.47 505.92,-493.92"/>
<g id="a_edge46&#45;headlabel"><a xlink:href="dir_000014_000013.html" target="_top" xlink:title="1">
<text text-anchor="middle" x="506.09" y="-486.84" font-family="Helvetica,sans-Serif" font-size="10.00">1</text>
</a>
</g>
</g>
<!-- dir_bb08ec7551d837c0fd67b166f29970be&#45;&gt;dir_43c499926d30da83a4105ced0951a3ae -->
<g id="edge40" class="edge">
<title>dir_bb08ec7551d837c0fd67b166f29970be&#45;&gt;dir_43c499926d30da83a4105ced0951a3ae</title>
<path fill="none" stroke="black" d="M543.99,-324.24C525.61,-334.51 501.9,-347.87 481,-360 399.97,-407.01 381.91,-422.55 300,-468 278.84,-479.74 254.82,-492.15 235.3,-502.01"/>
<polygon fill="black" stroke="black" points="233.48,-499.01 226.11,-506.63 236.62,-505.26 233.48,-499.01"/>
<g id="a_edge40&#45;headlabel"><a xlink:href="dir_000014_000017.html" target="_top" xlink:title="4">
<text text-anchor="middle" x="235.41" y="-492.36" font-family="Helvetica,sans-Serif" font-size="10.00">4</text>
</a>
</g>
</g>
<!-- dir_bb08ec7551d837c0fd67b166f29970be&#45;&gt;dir_6fb10adbb579565acd7b0fde9689e187 -->
<g id="edge41" class="edge">
<title>dir_bb08ec7551d837c0fd67b166f29970be&#45;&gt;dir_6fb10adbb579565acd7b0fde9689e187</title>
<path fill="none" stroke="black" d="M557.57,-324.19C532.13,-349.28 484.7,-396.05 455.68,-424.66"/>
<polygon fill="black" stroke="black" points="453.03,-422.36 448.37,-431.87 457.95,-427.34 453.03,-422.36"/>
<g id="a_edge41&#45;headlabel"><a xlink:href="dir_000014_000006.html" target="_top" xlink:title="1">
<text text-anchor="middle" x="453.6" y="-415.31" font-family="Helvetica,sans-Serif" font-size="10.00">1</text>
</a>
</g>
</g>
<!-- dir_bb08ec7551d837c0fd67b166f29970be&#45;&gt;dir_9c060f6614f66753f784535d0ca0f362 -->
<g id="edge42" class="edge">
<title>dir_bb08ec7551d837c0fd67b166f29970be&#45;&gt;dir_9c060f6614f66753f784535d0ca0f362</title>
<path fill="none" stroke="black" d="M539.04,-287.88C519.12,-278.39 494.18,-266.51 472.98,-256.42"/>
<polygon fill="black" stroke="black" points="474.38,-253.21 463.84,-252.07 471.37,-259.53 474.38,-253.21"/>
<g id="a_edge42&#45;headlabel"><a xlink:href="dir_000014_000012.html" target="_top" xlink:title="1">
<text text-anchor="middle" x="478.84" y="-249.69" font-family="Helvetica,sans-Serif" font-size="10.00">1</text>
</a>
</g>
</g>
<!-- dir_bb08ec7551d837c0fd67b166f29970be&#45;&gt;dir_eee969b9b1fd07f6dd15d1b94d8d842d -->
<g id="edge43" class="edge">
<title>dir_bb08ec7551d837c0fd67b166f29970be&#45;&gt;dir_eee969b9b1fd07f6dd15d1b94d8d842d</title>
<path fill="none" stroke="black" d="M534.24,-322.41C532.47,-322.95 530.72,-323.48 529,-324 475.31,-340.28 461.03,-341.67 408,-360 403.59,-361.53 398.96,-363.24 394.33,-364.97"/>
<polygon fill="black" stroke="black" points="393.05,-361.71 384.92,-368.5 395.51,-368.27 393.05,-361.71"/>
<g id="a_edge43&#45;headlabel"><a xlink:href="dir_000014_000007.html" target="_top" xlink:title="3">
<text text-anchor="middle" x="395.42" y="-355.29" font-family="Helvetica,sans-Serif" font-size="10.00">3</text>
</a>
</g>
</g>
<!-- dir_bb08ec7551d837c0fd67b166f29970be&#45;&gt;dir_d999f46065a2a9d90b91201b17d9b831 -->
<g id="edge44" class="edge">
<title>dir_bb08ec7551d837c0fd67b166f29970be&#45;&gt;dir_d999f46065a2a9d90b91201b17d9b831</title>
<path fill="none" stroke="black" d="M556.34,-287.86C546.12,-277.94 533.61,-264.9 524,-252 491.14,-207.9 461.52,-150.74 445.51,-117.74"/>
<polygon fill="black" stroke="black" points="448.47,-115.82 440.99,-108.31 442.16,-118.84 448.47,-115.82"/>
<g id="a_edge44&#45;headlabel"><a xlink:href="dir_000014_000010.html" target="_top" xlink:title="1">
<text text-anchor="middle" x="452.58" y="-115.33" font-family="Helvetica,sans-Serif" font-size="10.00">1</text>
</a>
</g>
</g>
<!-- dir_bb08ec7551d837c0fd67b166f29970be&#45;&gt;dir_ba00befbaf4d77cdef568747aa76492a -->
<g id="edge45" class="edge">
<title>dir_bb08ec7551d837c0fd67b166f29970be&#45;&gt;dir_ba00befbaf4d77cdef568747aa76492a</title>
<path fill="none" stroke="black" d="M601.9,-287.94C614.98,-279.25 629.35,-267.26 637,-252 672.86,-180.49 653.26,-150.33 637,-72 635.14,-63.06 631.7,-53.78 628.44,-45.53"/>
<polygon fill="black" stroke="black" points="631.62,-44.06 624.67,-36.07 625.12,-46.66 631.62,-44.06"/>
<g id="a_edge45&#45;headlabel"><a xlink:href="dir_000014_000015.html" target="_top" xlink:title="1">
<text text-anchor="middle" x="635.59" y="-43.85" font-family="Helvetica,sans-Serif" font-size="10.00">1</text>
</a>
</g>
</g>
</g>
</svg>
