<?xml version="1.0" encoding="UTF-8" standalone="no"?>
<!DOCTYPE svg PUBLIC "-//W3C//DTD SVG 1.1//EN"
 "http://www.w3.org/Graphics/SVG/1.1/DTD/svg11.dtd">
<!-- Generated by graphviz version 2.43.0 (0)
 -->
<!-- Title: src/src_user/Drivers Pages: 1 -->
<svg width="347pt" height="323pt"
 viewBox="0.00 0.00 346.95 323.17" xmlns="http://www.w3.org/2000/svg" xmlns:xlink="http://www.w3.org/1999/xlink">
<g id="graph0" class="graph" transform="scale(1 1) rotate(0) translate(4 319.17)">
<title>src/src_user/Drivers</title>
<polygon fill="white" stroke="transparent" points="-4,4 -4,-319.17 342.95,-319.17 342.95,4 -4,4"/>
<g id="clust1" class="cluster">
<title>clusterdir_eee969b9b1fd07f6dd15d1b94d8d842d</title>
<g id="a_clust1"><a xlink:href="dir_eee969b9b1fd07f6dd15d1b94d8d842d.html" target="_top" xlink:title="src_user">
<polygon fill="#ddddee" stroke="black" points="8,-200 8,-287 238,-287 238,-200 8,-200"/>
<text text-anchor="middle" x="123" y="-275" font-family="Helvetica,sans-Serif" font-size="10.00">src_user</text>
</a>
</g>
</g>
<g id="clust2" class="cluster">
<title>clusterdir_857ab89b484a44f88fda86cc6c60dfeb</title>
<g id="a_clust2"><a xlink:href="dir_857ab89b484a44f88fda86cc6c60dfeb.html" target="_top">
<polygon fill="#eeeeff" stroke="black" points="16,-208 16,-260 230,-260 230,-208 16,-208"/>
</a>
</g>
</g>
<!-- dir_857ab89b484a44f88fda86cc6c60dfeb -->
<g id="node1" class="node">
<title>dir_857ab89b484a44f88fda86cc6c60dfeb</title>
<text text-anchor="middle" x="123" y="-231.5" font-family="Helvetica,sans-Serif" font-size="10.00">Drivers</text>
</g>
<!-- dir_34d3b2d3d46b31684cec10270e90683e -->
<g id="node2" class="node">
<title>dir_34d3b2d3d46b31684cec10270e90683e</title>
<g id="a_node2"><a xlink:href="dir_34d3b2d3d46b31684cec10270e90683e.html" target="_top" xlink:title="Com">
<polygon fill="white" stroke="black" points="222,-252 168,-252 168,-216 222,-216 222,-252"/>
<text text-anchor="middle" x="195" y="-231.5" font-family="Helvetica,sans-Serif" font-size="10.00">Com</text>
</a>
</g>
</g>
<!-- dir_be63cfd930404a85b97e9333ec04cd9e -->
<g id="node4" class="node">
<title>dir_be63cfd930404a85b97e9333ec04cd9e</title>
<g id="a_node4"><a xlink:href="dir_be63cfd930404a85b97e9333ec04cd9e.html" target="_top" xlink:title="src_core">
<polygon fill="white" stroke="red" points="303.5,-252 246.5,-252 246.5,-216 303.5,-216 303.5,-252"/>
<text text-anchor="middle" x="275" y="-231.5" font-family="Helvetica,sans-Serif" font-size="10.00">src_core</text>
</a>
</g>
</g>
<!-- dir_34d3b2d3d46b31684cec10270e90683e&#45;&gt;dir_be63cfd930404a85b97e9333ec04cd9e -->
<g id="edge10" class="edge">
<title>dir_34d3b2d3d46b31684cec10270e90683e&#45;&gt;dir_be63cfd930404a85b97e9333ec04cd9e</title>
<path fill="none" stroke="black" d="M222.19,-234C226.8,-234 231.41,-234 236.02,-234"/>
<polygon fill="black" stroke="black" points="236.12,-237.5 246.12,-234 236.12,-230.5 236.12,-237.5"/>
<g id="a_edge10&#45;headlabel"><a xlink:href="dir_000023_000001.html" target="_top" xlink:title="6">
<text text-anchor="middle" x="232.52" y="-237.84" font-family="Helvetica,sans-Serif" font-size="10.00">6</text>
</a>
</g>
</g>
<!-- dir_8db6de9170c801ae5a17095202f7349c -->
<g id="node5" class="node">
<title>dir_8db6de9170c801ae5a17095202f7349c</title>
<g id="a_node5"><a xlink:href="dir_8db6de9170c801ae5a17095202f7349c.html" target="_top" xlink:title="TlmCmd">
<polygon fill="white" stroke="red" points="171,-180 113,-180 113,-144 171,-144 171,-180"/>
<text text-anchor="middle" x="142" y="-159.5" font-family="Helvetica,sans-Serif" font-size="10.00">TlmCmd</text>
</a>
</g>
</g>
<!-- dir_34d3b2d3d46b31684cec10270e90683e&#45;&gt;dir_8db6de9170c801ae5a17095202f7349c -->
<g id="edge11" class="edge">
<title>dir_34d3b2d3d46b31684cec10270e90683e&#45;&gt;dir_8db6de9170c801ae5a17095202f7349c</title>
<path fill="none" stroke="black" d="M175.98,-215.7C168.91,-207.47 161.14,-197.48 154.73,-188.42"/>
<polygon fill="black" stroke="black" points="157.58,-186.39 149.06,-180.1 151.8,-190.34 157.58,-186.39"/>
<g id="a_edge11&#45;headlabel"><a xlink:href="dir_000023_000041.html" target="_top" xlink:title="3">
<text text-anchor="middle" x="161.95" y="-185.26" font-family="Helvetica,sans-Serif" font-size="10.00">3</text>
</a>
</g>
</g>
<!-- dir_82a6d08b74acde068a893bd36b924818 -->
<g id="node7" class="node">
<title>dir_82a6d08b74acde068a893bd36b924818</title>
<g id="a_node7"><a xlink:href="dir_82a6d08b74acde068a893bd36b924818.html" target="_top" xlink:title="IfWrapper">
<polygon fill="white" stroke="red" points="292.5,-180 227.5,-180 227.5,-144 292.5,-144 292.5,-180"/>
<text text-anchor="middle" x="260" y="-159.5" font-family="Helvetica,sans-Serif" font-size="10.00">IfWrapper</text>
</a>
</g>
</g>
<!-- dir_34d3b2d3d46b31684cec10270e90683e&#45;&gt;dir_82a6d08b74acde068a893bd36b924818 -->
<g id="edge12" class="edge">
<title>dir_34d3b2d3d46b31684cec10270e90683e&#45;&gt;dir_82a6d08b74acde068a893bd36b924818</title>
<path fill="none" stroke="black" d="M211.07,-215.7C218.94,-207.22 228.56,-196.86 237.17,-187.58"/>
<polygon fill="black" stroke="black" points="239.88,-189.81 244.12,-180.1 234.75,-185.05 239.88,-189.81"/>
<g id="a_edge12&#45;headlabel"><a xlink:href="dir_000023_000025.html" target="_top" xlink:title="2">
<text text-anchor="middle" x="239.51" y="-191.88" font-family="Helvetica,sans-Serif" font-size="10.00">2</text>
</a>
</g>
</g>
<!-- dir_c9ae416fc705fb809a1f033648649fff -->
<g id="node8" class="node">
<title>dir_c9ae416fc705fb809a1f033648649fff</title>
<g id="a_node8"><a xlink:href="dir_c9ae416fc705fb809a1f033648649fff.html" target="_top" xlink:title="Library">
<polygon fill="none" stroke="black" points="279,-108 225,-108 225,-72 279,-72 279,-108"/>
<text text-anchor="middle" x="252" y="-87.5" font-family="Helvetica,sans-Serif" font-size="10.00">Library</text>
</a>
</g>
</g>
<!-- dir_34d3b2d3d46b31684cec10270e90683e&#45;&gt;dir_c9ae416fc705fb809a1f033648649fff -->
<g id="edge13" class="edge">
<title>dir_34d3b2d3d46b31684cec10270e90683e&#45;&gt;dir_c9ae416fc705fb809a1f033648649fff</title>
<path fill="none" stroke="black" d="M198.08,-215.77C201.71,-197.46 208.6,-167.92 219,-144 223,-134.8 228.42,-125.33 233.71,-116.98"/>
<polygon fill="black" stroke="black" points="236.76,-118.71 239.33,-108.43 230.91,-114.87 236.76,-118.71"/>
<g id="a_edge13&#45;headlabel"><a xlink:href="dir_000023_000008.html" target="_top" xlink:title="2">
<text text-anchor="middle" x="237.16" y="-120.77" font-family="Helvetica,sans-Serif" font-size="10.00">2</text>
</a>
</g>
</g>
<!-- dir_10c5304028430ac8e514a0a89169518f -->
<g id="node3" class="node">
<title>dir_10c5304028430ac8e514a0a89169518f</title>
<g id="a_node3"><a xlink:href="dir_10c5304028430ac8e514a0a89169518f.html" target="_top" xlink:title="Etc">
<polygon fill="white" stroke="black" points="78,-252 24,-252 24,-216 78,-216 78,-252"/>
<text text-anchor="middle" x="51" y="-231.5" font-family="Helvetica,sans-Serif" font-size="10.00">Etc</text>
</a>
</g>
</g>
<!-- dir_10c5304028430ac8e514a0a89169518f&#45;&gt;dir_be63cfd930404a85b97e9333ec04cd9e -->
<g id="edge20" class="edge">
<title>dir_10c5304028430ac8e514a0a89169518f&#45;&gt;dir_be63cfd930404a85b97e9333ec04cd9e</title>
<path fill="none" stroke="black" d="M56.73,-252.04C63.23,-269.14 75.67,-293.82 96,-305 121.12,-318.82 199.55,-318.2 225,-305 242.62,-295.86 255.34,-277.34 263.54,-261.5"/>
<polygon fill="black" stroke="black" points="266.89,-262.63 268.07,-252.1 260.58,-259.59 266.89,-262.63"/>
<g id="a_edge20&#45;headlabel"><a xlink:href="dir_000024_000001.html" target="_top" xlink:title="5">
<text text-anchor="middle" x="267.89" y="-264.6" font-family="Helvetica,sans-Serif" font-size="10.00">5</text>
</a>
</g>
</g>
<!-- dir_a6c80cab417eca370553d013a38aa3d8 -->
<g id="node6" class="node">
<title>dir_a6c80cab417eca370553d013a38aa3d8</title>
<g id="a_node6"><a xlink:href="dir_a6c80cab417eca370553d013a38aa3d8.html" target="_top" xlink:title="Settings">
<polygon fill="white" stroke="red" points="203,-36 147,-36 147,0 203,0 203,-36"/>
<text text-anchor="middle" x="175" y="-15.5" font-family="Helvetica,sans-Serif" font-size="10.00">Settings</text>
</a>
</g>
</g>
<!-- dir_10c5304028430ac8e514a0a89169518f&#45;&gt;dir_a6c80cab417eca370553d013a38aa3d8 -->
<g id="edge21" class="edge">
<title>dir_10c5304028430ac8e514a0a89169518f&#45;&gt;dir_a6c80cab417eca370553d013a38aa3d8</title>
<path fill="none" stroke="black" d="M52.4,-215.87C55.71,-184.55 66.37,-117.15 99,-72 109.05,-58.1 123.91,-46.58 137.84,-37.87"/>
<polygon fill="black" stroke="black" points="139.98,-40.67 146.79,-32.56 136.41,-34.65 139.98,-40.67"/>
<g id="a_edge21&#45;headlabel"><a xlink:href="dir_000024_000028.html" target="_top" xlink:title="1">
<text text-anchor="middle" x="138.33" y="-42.45" font-family="Helvetica,sans-Serif" font-size="10.00">1</text>
</a>
</g>
</g>
<!-- dir_be63cfd930404a85b97e9333ec04cd9e&#45;&gt;dir_8db6de9170c801ae5a17095202f7349c -->
<g id="edge6" class="edge">
<title>dir_be63cfd930404a85b97e9333ec04cd9e&#45;&gt;dir_8db6de9170c801ae5a17095202f7349c</title>
<path fill="none" stroke="black" d="M247.76,-215.98C240.54,-210.42 232.73,-204.53 225,-200 211.12,-191.87 195.12,-184.74 180.83,-178.97"/>
<polygon fill="black" stroke="black" points="181.84,-175.61 171.25,-175.2 179.27,-182.12 181.84,-175.61"/>
<g id="a_edge6&#45;headlabel"><a xlink:href="dir_000001_000041.html" target="_top" xlink:title="21">
<text text-anchor="middle" x="186.23" y="-171.79" font-family="Helvetica,sans-Serif" font-size="10.00">21</text>
</a>
</g>
</g>
<!-- dir_be63cfd930404a85b97e9333ec04cd9e&#45;&gt;dir_a6c80cab417eca370553d013a38aa3d8 -->
<g id="edge7" class="edge">
<title>dir_be63cfd930404a85b97e9333ec04cd9e&#45;&gt;dir_a6c80cab417eca370553d013a38aa3d8</title>
<path fill="none" stroke="black" d="M290.45,-215.58C300.09,-206.33 311.37,-193.98 317,-180 322.98,-165.16 320.85,-159.53 317,-144 308.3,-108.88 305.18,-96.98 279,-72 260.1,-53.97 233.95,-41.17 212.5,-32.67"/>
<polygon fill="black" stroke="black" points="213.61,-29.35 203.02,-29.06 211.12,-35.89 213.61,-29.35"/>
<g id="a_edge7&#45;headlabel"><a xlink:href="dir_000001_000028.html" target="_top" xlink:title="34">
<text text-anchor="middle" x="217.98" y="-25.47" font-family="Helvetica,sans-Serif" font-size="10.00">34</text>
</a>
</g>
</g>
<!-- dir_be63cfd930404a85b97e9333ec04cd9e&#45;&gt;dir_82a6d08b74acde068a893bd36b924818 -->
<g id="edge8" class="edge">
<title>dir_be63cfd930404a85b97e9333ec04cd9e&#45;&gt;dir_82a6d08b74acde068a893bd36b924818</title>
<path fill="none" stroke="black" d="M265.38,-215.7C262.93,-207.98 260.71,-198.71 259.21,-190.11"/>
<polygon fill="black" stroke="black" points="262.66,-189.5 257.77,-180.1 255.73,-190.5 262.66,-189.5"/>
<g id="a_edge8&#45;headlabel"><a xlink:href="dir_000001_000025.html" target="_top" xlink:title="1">
<text text-anchor="middle" x="265.99" y="-190.15" font-family="Helvetica,sans-Serif" font-size="10.00">1</text>
</a>
</g>
</g>
<!-- dir_be63cfd930404a85b97e9333ec04cd9e&#45;&gt;dir_c9ae416fc705fb809a1f033648649fff -->
<g id="edge9" class="edge">
<title>dir_be63cfd930404a85b97e9333ec04cd9e&#45;&gt;dir_c9ae416fc705fb809a1f033648649fff</title>
<path fill="none" stroke="black" d="M280.27,-215.98C289.11,-197.85 302.72,-168.46 293,-144 288.75,-133.31 281.21,-123.53 273.66,-115.35"/>
<polygon fill="black" stroke="black" points="276.01,-112.75 266.52,-108.04 271,-117.64 276.01,-112.75"/>
<g id="a_edge9&#45;headlabel"><a xlink:href="dir_000001_000008.html" target="_top" xlink:title="24">
<text text-anchor="middle" x="280.55" y="-110.84" font-family="Helvetica,sans-Serif" font-size="10.00">24</text>
</a>
</g>
</g>
<!-- dir_8db6de9170c801ae5a17095202f7349c&#45;&gt;dir_857ab89b484a44f88fda86cc6c60dfeb -->
<g id="edge5" class="edge">
<title>dir_8db6de9170c801ae5a17095202f7349c&#45;&gt;dir_857ab89b484a44f88fda86cc6c60dfeb</title>
<path fill="none" stroke="black" d="M137.36,-180.1C135.25,-187.88 132.7,-197.26 130.34,-205.95"/>
<polygon fill="black" stroke="black" points="126.94,-205.13 127.7,-215.7 133.69,-206.96 126.94,-205.13"/>
<g id="a_edge5&#45;headlabel"><a xlink:href="dir_000041_000022.html" target="_top" xlink:title="1">
<text text-anchor="middle" x="125.14" y="-198.42" font-family="Helvetica,sans-Serif" font-size="10.00">1</text>
</a>
</g>
</g>
<!-- dir_8db6de9170c801ae5a17095202f7349c&#45;&gt;dir_34d3b2d3d46b31684cec10270e90683e -->
<g id="edge2" class="edge">
<title>dir_8db6de9170c801ae5a17095202f7349c&#45;&gt;dir_34d3b2d3d46b31684cec10270e90683e</title>
<path fill="none" stroke="black" d="M160.85,-180.1C167.91,-188.3 175.68,-198.28 182.12,-207.36"/>
<polygon fill="black" stroke="black" points="179.28,-209.42 187.81,-215.7 185.06,-205.47 179.28,-209.42"/>
<g id="a_edge2&#45;headlabel"><a xlink:href="dir_000041_000023.html" target="_top" xlink:title="1">
<text text-anchor="middle" x="174.91" y="-205.55" font-family="Helvetica,sans-Serif" font-size="10.00">1</text>
</a>
</g>
</g>
<!-- dir_8db6de9170c801ae5a17095202f7349c&#45;&gt;dir_be63cfd930404a85b97e9333ec04cd9e -->
<g id="edge1" class="edge">
<title>dir_8db6de9170c801ae5a17095202f7349c&#45;&gt;dir_be63cfd930404a85b97e9333ec04cd9e</title>
<path fill="none" stroke="black" d="M171.15,-169.81C192.22,-176.21 220.42,-186.77 243,-200 247.71,-202.76 252.45,-206.03 256.84,-209.41"/>
<polygon fill="black" stroke="black" points="254.82,-212.28 264.75,-215.98 259.29,-206.9 254.82,-212.28"/>
<g id="a_edge1&#45;headlabel"><a xlink:href="dir_000041_000001.html" target="_top" xlink:title="43">
<text text-anchor="middle" x="250.24" y="-209.67" font-family="Helvetica,sans-Serif" font-size="10.00">43</text>
</a>
</g>
</g>
<!-- dir_8db6de9170c801ae5a17095202f7349c&#45;&gt;dir_a6c80cab417eca370553d013a38aa3d8 -->
<g id="edge3" class="edge">
<title>dir_8db6de9170c801ae5a17095202f7349c&#45;&gt;dir_a6c80cab417eca370553d013a38aa3d8</title>
<path fill="none" stroke="black" d="M141.4,-143.87C144.48,-119.56 154.59,-74.82 163.29,-46.01"/>
<polygon fill="black" stroke="black" points="166.72,-46.78 166.41,-36.19 160.05,-44.66 166.72,-46.78"/>
<g id="a_edge3&#45;headlabel"><a xlink:href="dir_000041_000028.html" target="_top" xlink:title="8">
<text text-anchor="middle" x="168.33" y="-48.57" font-family="Helvetica,sans-Serif" font-size="10.00">8</text>
</a>
</g>
</g>
<!-- dir_8db6de9170c801ae5a17095202f7349c&#45;&gt;dir_c9ae416fc705fb809a1f033648649fff -->
<g id="edge4" class="edge">
<title>dir_8db6de9170c801ae5a17095202f7349c&#45;&gt;dir_c9ae416fc705fb809a1f033648649fff</title>
<path fill="none" stroke="black" d="M168.91,-143.88C183.16,-134.81 200.85,-123.55 216.24,-113.76"/>
<polygon fill="black" stroke="black" points="218.43,-116.51 224.99,-108.19 214.67,-110.61 218.43,-116.51"/>
<g id="a_edge4&#45;headlabel"><a xlink:href="dir_000041_000008.html" target="_top" xlink:title="4">
<text text-anchor="middle" x="216.92" y="-118.34" font-family="Helvetica,sans-Serif" font-size="10.00">4</text>
</a>
</g>
</g>
<!-- dir_a6c80cab417eca370553d013a38aa3d8&#45;&gt;dir_34d3b2d3d46b31684cec10270e90683e -->
<g id="edge16" class="edge">
<title>dir_a6c80cab417eca370553d013a38aa3d8&#45;&gt;dir_34d3b2d3d46b31684cec10270e90683e</title>
<path fill="none" stroke="black" d="M156.64,-36.11C125.94,-66.8 70.7,-132.46 104,-180 118.92,-201.3 136.76,-186.51 159,-200 163.22,-202.56 167.38,-205.66 171.29,-208.92"/>
<polygon fill="black" stroke="black" points="169.12,-211.68 178.91,-215.73 173.78,-206.46 169.12,-211.68"/>
<g id="a_edge16&#45;headlabel"><a xlink:href="dir_000028_000023.html" target="_top" xlink:title="1">
<text text-anchor="middle" x="164.54" y="-208.9" font-family="Helvetica,sans-Serif" font-size="10.00">1</text>
</a>
</g>
</g>
<!-- dir_a6c80cab417eca370553d013a38aa3d8&#45;&gt;dir_be63cfd930404a85b97e9333ec04cd9e -->
<g id="edge15" class="edge">
<title>dir_a6c80cab417eca370553d013a38aa3d8&#45;&gt;dir_be63cfd930404a85b97e9333ec04cd9e</title>
<path fill="none" stroke="black" d="M203.48,-24.71C230.71,-32.08 270.82,-47.02 297,-72 323.18,-96.98 326.3,-108.88 335,-144 338.85,-159.53 340.98,-165.16 335,-180 330.14,-192.06 321.08,-202.9 311.37,-211.6"/>
<polygon fill="black" stroke="black" points="308.99,-209.03 303.5,-218.09 313.44,-214.42 308.99,-209.03"/>
<g id="a_edge15&#45;headlabel"><a xlink:href="dir_000028_000001.html" target="_top" xlink:title="23">
<text text-anchor="middle" x="309.95" y="-202.05" font-family="Helvetica,sans-Serif" font-size="10.00">23</text>
</a>
</g>
</g>
<!-- dir_a6c80cab417eca370553d013a38aa3d8&#45;&gt;dir_8db6de9170c801ae5a17095202f7349c -->
<g id="edge14" class="edge">
<title>dir_a6c80cab417eca370553d013a38aa3d8&#45;&gt;dir_8db6de9170c801ae5a17095202f7349c</title>
<path fill="none" stroke="black" d="M175.6,-36.19C172.51,-60.53 162.38,-105.28 153.69,-134.06"/>
<polygon fill="black" stroke="black" points="150.26,-133.28 150.57,-143.87 156.93,-135.4 150.26,-133.28"/>
<g id="a_edge14&#45;headlabel"><a xlink:href="dir_000028_000041.html" target="_top" xlink:title="12">
<text text-anchor="middle" x="148.65" y="-126.49" font-family="Helvetica,sans-Serif" font-size="10.00">12</text>
</a>
</g>
</g>
<!-- dir_82a6d08b74acde068a893bd36b924818&#45;&gt;dir_be63cfd930404a85b97e9333ec04cd9e -->
<g id="edge17" class="edge">
<title>dir_82a6d08b74acde068a893bd36b924818&#45;&gt;dir_be63cfd930404a85b97e9333ec04cd9e</title>
<path fill="none" stroke="black" d="M269.56,-180.1C272.01,-187.79 274.23,-197.05 275.75,-205.67"/>
<polygon fill="black" stroke="black" points="272.3,-206.31 277.21,-215.7 279.23,-205.3 272.3,-206.31"/>
<g id="a_edge17&#45;headlabel"><a xlink:href="dir_000025_000001.html" target="_top" xlink:title="7">
<text text-anchor="middle" x="268.98" y="-200.66" font-family="Helvetica,sans-Serif" font-size="10.00">7</text>
</a>
</g>
</g>
<!-- dir_82a6d08b74acde068a893bd36b924818&#45;&gt;dir_a6c80cab417eca370553d013a38aa3d8 -->
<g id="edge18" class="edge">
<title>dir_82a6d08b74acde068a893bd36b924818&#45;&gt;dir_a6c80cab417eca370553d013a38aa3d8</title>
<path fill="none" stroke="black" d="M243.7,-143.74C234.82,-133.79 224.03,-120.75 216,-108 203.45,-88.08 192.49,-63.7 185.06,-45.49"/>
<polygon fill="black" stroke="black" points="188.27,-44.07 181.32,-36.08 181.76,-46.66 188.27,-44.07"/>
<g id="a_edge18&#45;headlabel"><a xlink:href="dir_000025_000028.html" target="_top" xlink:title="1">
<text text-anchor="middle" x="192.24" y="-43.86" font-family="Helvetica,sans-Serif" font-size="10.00">1</text>
</a>
</g>
</g>
<!-- dir_82a6d08b74acde068a893bd36b924818&#45;&gt;dir_c9ae416fc705fb809a1f033648649fff -->
<g id="edge19" class="edge">
<title>dir_82a6d08b74acde068a893bd36b924818&#45;&gt;dir_c9ae416fc705fb809a1f033648649fff</title>
<path fill="none" stroke="black" d="M258.02,-143.7C257.14,-135.98 256.08,-126.71 255.1,-118.11"/>
<polygon fill="black" stroke="black" points="258.57,-117.64 253.95,-108.1 251.61,-118.44 258.57,-117.64"/>
<g id="a_edge19&#45;headlabel"><a xlink:href="dir_000025_000008.html" target="_top" xlink:title="1">
<text text-anchor="middle" x="261.8" y="-118.39" font-family="Helvetica,sans-Serif" font-size="10.00">1</text>
</a>
</g>
</g>
<!-- dir_c9ae416fc705fb809a1f033648649fff&#45;&gt;dir_be63cfd930404a85b97e9333ec04cd9e -->
<g id="edge22" class="edge">
<title>dir_c9ae416fc705fb809a1f033648649fff&#45;&gt;dir_be63cfd930404a85b97e9333ec04cd9e</title>
<path fill="none" stroke="black" d="M279.26,-105.34C291.73,-114.88 304.84,-128.48 311,-144 319.35,-165.02 310.48,-189.68 299.26,-207.71"/>
<polygon fill="black" stroke="black" points="296.36,-205.75 293.62,-215.98 302.15,-209.69 296.36,-205.75"/>
<g id="a_edge22&#45;headlabel"><a xlink:href="dir_000008_000001.html" target="_top" xlink:title="3">
<text text-anchor="middle" x="296.04" y="-198.68" font-family="Helvetica,sans-Serif" font-size="10.00">3</text>
</a>
</g>
</g>
<!-- dir_c9ae416fc705fb809a1f033648649fff&#45;&gt;dir_a6c80cab417eca370553d013a38aa3d8 -->
<g id="edge23" class="edge">
<title>dir_c9ae416fc705fb809a1f033648649fff&#45;&gt;dir_a6c80cab417eca370553d013a38aa3d8</title>
<path fill="none" stroke="black" d="M232.97,-71.7C223.46,-63.05 211.79,-52.45 201.43,-43.03"/>
<polygon fill="black" stroke="black" points="203.57,-40.24 193.81,-36.1 198.86,-45.42 203.57,-40.24"/>
<g id="a_edge23&#45;headlabel"><a xlink:href="dir_000008_000028.html" target="_top" xlink:title="2">
<text text-anchor="middle" x="208.14" y="-38.06" font-family="Helvetica,sans-Serif" font-size="10.00">2</text>
</a>
</g>
</g>
</g>
</svg>
