<?xml version="1.0" encoding="UTF-8" standalone="no"?>
<!DOCTYPE svg PUBLIC "-//W3C//DTD SVG 1.1//EN"
 "http://www.w3.org/Graphics/SVG/1.1/DTD/svg11.dtd">
<!-- Generated by graphviz version 2.43.0 (0)
 -->
<!-- Title: src/src_core/Applications/divided_cmd_utility.c Pages: 1 -->
<svg width="2180pt" height="664pt"
 viewBox="0.00 0.00 2180.00 664.00" xmlns="http://www.w3.org/2000/svg" xmlns:xlink="http://www.w3.org/1999/xlink">
<g id="graph0" class="graph" transform="scale(1 1) rotate(0) translate(4 660)">
<title>src/src_core/Applications/divided_cmd_utility.c</title>
<polygon fill="white" stroke="transparent" points="-4,4 -4,-660 2176,-660 2176,4 -4,4"/>
<!-- Node1 -->
<g id="node1" class="node">
<title>Node1</title>
<g id="a_node1"><a xlink:title="コマンド分割をサポートするUtil">
<polygon fill="#bfbfbf" stroke="black" points="1247.5,-625.5 1247.5,-655.5 1384.5,-655.5 1384.5,-625.5 1247.5,-625.5"/>
<text text-anchor="start" x="1255.5" y="-643.5" font-family="Helvetica,sans-Serif" font-size="10.00">src/src_core/Applications</text>
<text text-anchor="middle" x="1316" y="-632.5" font-family="Helvetica,sans-Serif" font-size="10.00">/divided_cmd_utility.c</text>
</a>
</g>
</g>
<!-- Node2 -->
<g id="node2" class="node">
<title>Node2</title>
<g id="a_node2"><a xlink:href="divided__cmd__utility_8h.html" target="_top" xlink:title="コマンド分割をサポートするUtil">
<polygon fill="white" stroke="black" points="813,-296 813,-315 933,-315 933,-296 813,-296"/>
<text text-anchor="middle" x="873" y="-303" font-family="Helvetica,sans-Serif" font-size="10.00">divided_cmd_utility.h</text>
</a>
</g>
</g>
<!-- Node1&#45;&gt;Node2 -->
<g id="edge1" class="edge">
<title>Node1&#45;&gt;Node2</title>
<path fill="none" stroke="midnightblue" d="M1247.36,-638.24C1093.61,-633.57 735,-611.52 735,-507.5 735,-507.5 735,-507.5 735,-438.5 735,-379.42 801.88,-338.62 842.52,-319.29"/>
<polygon fill="midnightblue" stroke="midnightblue" points="844.11,-322.41 851.74,-315.06 841.19,-316.05 844.11,-322.41"/>
</g>
<!-- Node16 -->
<g id="node16" class="node">
<title>Node16</title>
<g id="a_node16"><a xlink:href="packet__handler_8h.html" target="_top" xlink:title="C2A 全体を流れる Common Packet の配送を制御する">
<polygon fill="white" stroke="black" points="1240,-564 1240,-583 1392,-583 1392,-564 1240,-564"/>
<text text-anchor="middle" x="1316" y="-571" font-family="Helvetica,sans-Serif" font-size="10.00">../TlmCmd/packet_handler.h</text>
</a>
</g>
</g>
<!-- Node1&#45;&gt;Node16 -->
<g id="edge18" class="edge">
<title>Node1&#45;&gt;Node16</title>
<path fill="none" stroke="midnightblue" d="M1316,-625.4C1316,-616.06 1316,-603.71 1316,-593.52"/>
<polygon fill="midnightblue" stroke="midnightblue" points="1319.5,-593.19 1316,-583.19 1312.5,-593.19 1319.5,-593.19"/>
</g>
<!-- Node30 -->
<g id="node30" class="node">
<title>Node30</title>
<g id="a_node30"><a xlink:href="common__cmd__packet__util_8h.html" target="_top" xlink:title="CCP の汎用 Utility">
<polygon fill="white" stroke="black" points="1410.5,-558.5 1410.5,-588.5 1549.5,-588.5 1549.5,-558.5 1410.5,-558.5"/>
<text text-anchor="start" x="1418.5" y="-576.5" font-family="Helvetica,sans-Serif" font-size="10.00">../TlmCmd/common_cmd</text>
<text text-anchor="middle" x="1480" y="-565.5" font-family="Helvetica,sans-Serif" font-size="10.00">_packet_util.h</text>
</a>
</g>
</g>
<!-- Node1&#45;&gt;Node30 -->
<g id="edge51" class="edge">
<title>Node1&#45;&gt;Node30</title>
<path fill="none" stroke="midnightblue" d="M1351.59,-625.4C1376.09,-615.69 1408.83,-602.71 1435.12,-592.29"/>
<polygon fill="midnightblue" stroke="midnightblue" points="1436.48,-595.51 1444.48,-588.58 1433.9,-589.01 1436.48,-595.51"/>
</g>
<!-- Node32 -->
<g id="node32" class="node">
<title>Node32</title>
<g id="a_node32"><a xlink:href="time__manager_8h.html" target="_top" xlink:title="OBC時刻のカウントアップと，各種衛星時刻関連処理">
<polygon fill="white" stroke="black" points="1081.5,-290.5 1081.5,-320.5 1214.5,-320.5 1214.5,-290.5 1081.5,-290.5"/>
<text text-anchor="start" x="1089.5" y="-308.5" font-family="Helvetica,sans-Serif" font-size="10.00">../System/TimeManager</text>
<text text-anchor="middle" x="1148" y="-297.5" font-family="Helvetica,sans-Serif" font-size="10.00">/time_manager.h</text>
</a>
</g>
</g>
<!-- Node1&#45;&gt;Node32 -->
<g id="edge57" class="edge">
<title>Node1&#45;&gt;Node32</title>
<path fill="none" stroke="midnightblue" d="M1247.47,-629.79C1139.02,-612.48 940,-571.93 940,-507.5 940,-507.5 940,-507.5 940,-438.5 940,-373.98 1012.22,-339.67 1071.56,-322.36"/>
<polygon fill="midnightblue" stroke="midnightblue" points="1072.64,-325.69 1081.33,-319.63 1070.76,-318.95 1072.64,-325.69"/>
</g>
<!-- Node33 -->
<g id="node33" class="node">
<title>Node33</title>
<g id="a_node33"><a xlink:href="event__logger_8h.html" target="_top" xlink:title="アノマリやエラーなどの各種イベントを記録する">
<polygon fill="white" stroke="black" points="1836,-290.5 1836,-320.5 1972,-320.5 1972,-290.5 1836,-290.5"/>
<text text-anchor="start" x="1844" y="-308.5" font-family="Helvetica,sans-Serif" font-size="10.00">../System/EventManager</text>
<text text-anchor="middle" x="1904" y="-297.5" font-family="Helvetica,sans-Serif" font-size="10.00">/event_logger.h</text>
</a>
</g>
</g>
<!-- Node1&#45;&gt;Node33 -->
<g id="edge60" class="edge">
<title>Node1&#45;&gt;Node33</title>
<path fill="none" stroke="midnightblue" d="M1384.71,-638.32C1539.09,-633.82 1900,-612.1 1900,-507.5 1900,-507.5 1900,-507.5 1900,-438.5 1900,-400.99 1901.63,-357.5 1902.81,-331"/>
<polygon fill="midnightblue" stroke="midnightblue" points="1906.32,-330.91 1903.28,-320.75 1899.33,-330.58 1906.32,-330.91"/>
</g>
<!-- Node3 -->
<g id="node3" class="node">
<title>Node3</title>
<g id="a_node3"><a xlink:href="app__info_8h.html" target="_top" xlink:title="App 情報構造体定義と App 作成">
<polygon fill="white" stroke="black" points="956.5,-223.5 956.5,-253.5 1119.5,-253.5 1119.5,-223.5 956.5,-223.5"/>
<text text-anchor="start" x="964.5" y="-241.5" font-family="Helvetica,sans-Serif" font-size="10.00">../System/ApplicationManager</text>
<text text-anchor="middle" x="1038" y="-230.5" font-family="Helvetica,sans-Serif" font-size="10.00">/app_info.h</text>
</a>
</g>
</g>
<!-- Node2&#45;&gt;Node3 -->
<g id="edge2" class="edge">
<title>Node2&#45;&gt;Node3</title>
<path fill="none" stroke="midnightblue" d="M894.91,-295.87C919.78,-286.07 961.01,-269.83 992.84,-257.29"/>
<polygon fill="midnightblue" stroke="midnightblue" points="994.37,-260.45 1002.39,-253.53 991.8,-253.94 994.37,-260.45"/>
</g>
<!-- Node4 -->
<g id="node4" class="node">
<title>Node4</title>
<g id="a_node4"><a xlink:href="obc__time_8h.html" target="_top" xlink:title="OBCの時刻情報の定義と演算">
<polygon fill="white" stroke="black" points="1140.5,-151 1140.5,-181 1253.5,-181 1253.5,-151 1140.5,-151"/>
<text text-anchor="start" x="1148.5" y="-169" font-family="Helvetica,sans-Serif" font-size="10.00">../TimeManager/obc</text>
<text text-anchor="middle" x="1197" y="-158" font-family="Helvetica,sans-Serif" font-size="10.00">_time.h</text>
</a>
</g>
</g>
<!-- Node2&#45;&gt;Node4 -->
<g id="edge15" class="edge">
<title>Node2&#45;&gt;Node4</title>
<path fill="none" stroke="midnightblue" d="M878.18,-295.96C888.92,-279.06 915.33,-241.41 948,-223 1018.31,-183.37 1047.54,-205.96 1126,-187 1130.32,-185.96 1134.77,-184.83 1139.24,-183.66"/>
<polygon fill="midnightblue" stroke="midnightblue" points="1140.25,-187.01 1149.01,-181.05 1138.44,-180.25 1140.25,-187.01"/>
</g>
<!-- Node8 -->
<g id="node8" class="node">
<title>Node8</title>
<g id="a_node8"><a xlink:href="common__cmd__packet_8h.html" target="_top" xlink:title="CCP 関連基本関数の宣言">
<polygon fill="white" stroke="black" points="1176.5,-223.5 1176.5,-253.5 1315.5,-253.5 1315.5,-223.5 1176.5,-223.5"/>
<text text-anchor="start" x="1184.5" y="-241.5" font-family="Helvetica,sans-Serif" font-size="10.00">../TlmCmd/common_cmd</text>
<text text-anchor="middle" x="1246" y="-230.5" font-family="Helvetica,sans-Serif" font-size="10.00">_packet.h</text>
</a>
</g>
</g>
<!-- Node2&#45;&gt;Node8 -->
<g id="edge7" class="edge">
<title>Node2&#45;&gt;Node8</title>
<path fill="none" stroke="midnightblue" d="M922.15,-295.94C984.31,-285.1 1092.15,-266.31 1166.19,-253.41"/>
<polygon fill="midnightblue" stroke="midnightblue" points="1167.15,-256.79 1176.4,-251.63 1165.95,-249.9 1167.15,-256.79"/>
</g>
<!-- Node9 -->
<g id="node9" class="node">
<title>Node9</title>
<g id="a_node9"><a xlink:href="command__definitions_8h.html" target="_top" xlink:title="コマンド定義">
<polygon fill="white" stroke="black" points="720.5,-151 720.5,-181 873.5,-181 873.5,-151 720.5,-151"/>
<text text-anchor="start" x="728.5" y="-169" font-family="Helvetica,sans-Serif" font-size="10.00">src_user/TlmCmd/command</text>
<text text-anchor="middle" x="797" y="-158" font-family="Helvetica,sans-Serif" font-size="10.00">_definitions.h</text>
</a>
</g>
</g>
<!-- Node2&#45;&gt;Node9 -->
<g id="edge16" class="edge">
<title>Node2&#45;&gt;Node9</title>
<path fill="none" stroke="midnightblue" d="M812.66,-300.18C781.07,-294.49 744.9,-281.82 725,-254 707.78,-229.93 735.9,-204 761.87,-186.77"/>
<polygon fill="midnightblue" stroke="midnightblue" points="763.96,-189.59 770.53,-181.28 760.21,-183.68 763.96,-189.59"/>
</g>
<!-- Node15 -->
<g id="node15" class="node">
<title>Node15</title>
<g id="a_node15"><a xlink:href="divided__cmd__utility__params_8h.html" target="_top" xlink:title="DCU の CoreApp パラメタのオーバーライド用ヘッダー">
<polygon fill="white" stroke="black" points="733.5,-223.5 733.5,-253.5 900.5,-253.5 900.5,-223.5 733.5,-223.5"/>
<text text-anchor="start" x="741.5" y="-241.5" font-family="Helvetica,sans-Serif" font-size="10.00">src_user/Settings/Applications</text>
<text text-anchor="middle" x="817" y="-230.5" font-family="Helvetica,sans-Serif" font-size="10.00">/divided_cmd_utility_params.h</text>
</a>
</g>
</g>
<!-- Node2&#45;&gt;Node15 -->
<g id="edge17" class="edge">
<title>Node2&#45;&gt;Node15</title>
<path fill="none" stroke="midnightblue" d="M865.45,-295.73C857.88,-286.95 845.93,-273.08 835.79,-261.31"/>
<polygon fill="midnightblue" stroke="midnightblue" points="838.32,-258.88 829.14,-253.59 833.01,-263.45 838.32,-258.88"/>
</g>
<!-- Node3&#45;&gt;Node4 -->
<g id="edge3" class="edge">
<title>Node3&#45;&gt;Node4</title>
<path fill="none" stroke="midnightblue" d="M1069.79,-223.4C1094.6,-212.4 1129.24,-197.04 1156.11,-185.13"/>
<polygon fill="midnightblue" stroke="midnightblue" points="1157.54,-188.33 1165.26,-181.07 1154.7,-181.93 1157.54,-188.33"/>
</g>
<!-- Node5 -->
<g id="node5" class="node">
<title>Node5</title>
<g id="a_node5"><a xlink:href="stdint_8h.html" target="_top" xlink:title=" ">
<polygon fill="white" stroke="black" points="1424,-84 1424,-103 1558,-103 1558,-84 1424,-84"/>
<text text-anchor="middle" x="1491" y="-91" font-family="Helvetica,sans-Serif" font-size="10.00">src_user/Library/stdint.h</text>
</a>
</g>
</g>
<!-- Node4&#45;&gt;Node5 -->
<g id="edge4" class="edge">
<title>Node4&#45;&gt;Node5</title>
<path fill="none" stroke="midnightblue" d="M1253.69,-151.41C1309.53,-138.02 1393.77,-117.81 1445.42,-105.43"/>
<polygon fill="midnightblue" stroke="midnightblue" points="1446.39,-108.8 1455.3,-103.06 1444.76,-101.99 1446.39,-108.8"/>
</g>
<!-- Node7 -->
<g id="node7" class="node">
<title>Node7</title>
<g id="a_node7"><a xlink:href="obc__time__params_8h.html" target="_top" xlink:title="OBCTのCoreパラメタのオーバーライド用ヘッダー">
<polygon fill="white" stroke="black" points="1127,-78.5 1127,-108.5 1267,-108.5 1267,-78.5 1127,-78.5"/>
<text text-anchor="start" x="1135" y="-96.5" font-family="Helvetica,sans-Serif" font-size="10.00">src_user/Settings/System</text>
<text text-anchor="middle" x="1197" y="-85.5" font-family="Helvetica,sans-Serif" font-size="10.00">/obc_time_params.h</text>
</a>
</g>
</g>
<!-- Node4&#45;&gt;Node7 -->
<g id="edge6" class="edge">
<title>Node4&#45;&gt;Node7</title>
<path fill="none" stroke="midnightblue" d="M1197,-150.73C1197,-141.66 1197,-129.66 1197,-119.08"/>
<polygon fill="midnightblue" stroke="midnightblue" points="1200.5,-118.75 1197,-108.75 1193.5,-118.75 1200.5,-118.75"/>
</g>
<!-- Node6 -->
<g id="node6" class="node">
<title>Node6</title>
<g id="a_node6"><a xlink:href="sils__define_8h.html" target="_top" xlink:title="Switch the build settings between your real OBC and SILS">
<polygon fill="white" stroke="black" points="1426.5,-11.5 1426.5,-30.5 1555.5,-30.5 1555.5,-11.5 1426.5,-11.5"/>
<text text-anchor="middle" x="1491" y="-18.5" font-family="Helvetica,sans-Serif" font-size="10.00">../Settings/sils_define.h</text>
</a>
</g>
</g>
<!-- Node5&#45;&gt;Node6 -->
<g id="edge5" class="edge">
<title>Node5&#45;&gt;Node6</title>
<path fill="none" stroke="midnightblue" d="M1491,-83.86C1491,-73.18 1491,-54.72 1491,-40.73"/>
<polygon fill="midnightblue" stroke="midnightblue" points="1494.5,-40.72 1491,-30.72 1487.5,-40.72 1494.5,-40.72"/>
</g>
<!-- Node8&#45;&gt;Node4 -->
<g id="edge8" class="edge">
<title>Node8&#45;&gt;Node4</title>
<path fill="none" stroke="midnightblue" d="M1236.08,-223.23C1229.38,-213.58 1220.37,-200.63 1212.7,-189.59"/>
<polygon fill="midnightblue" stroke="midnightblue" points="1215.48,-187.46 1206.9,-181.25 1209.73,-191.45 1215.48,-187.46"/>
</g>
<!-- Node8&#45;&gt;Node9 -->
<g id="edge9" class="edge">
<title>Node8&#45;&gt;Node9</title>
<path fill="none" stroke="midnightblue" d="M1176.34,-226.56C1097.44,-214.17 968.79,-193.97 883.52,-180.58"/>
<polygon fill="midnightblue" stroke="midnightblue" points="884.02,-177.12 873.6,-179.03 882.94,-184.04 884.02,-177.12"/>
</g>
<!-- Node10 -->
<g id="node10" class="node">
<title>Node10</title>
<g id="a_node10"><a xlink:href="common__cmd__packet__define_8h.html" target="_top" xlink:title="CCP 型の定義">
<polygon fill="white" stroke="black" points="947,-151 947,-181 1117,-181 1117,-151 947,-151"/>
<text text-anchor="start" x="955" y="-169" font-family="Helvetica,sans-Serif" font-size="10.00">src_user/Settings/TlmCmd</text>
<text text-anchor="middle" x="1032" y="-158" font-family="Helvetica,sans-Serif" font-size="10.00">/common_cmd_packet_define.h</text>
</a>
</g>
</g>
<!-- Node8&#45;&gt;Node10 -->
<g id="edge10" class="edge">
<title>Node8&#45;&gt;Node10</title>
<path fill="none" stroke="midnightblue" d="M1203.46,-223.49C1169.23,-212.21 1120.95,-196.3 1084.34,-184.24"/>
<polygon fill="midnightblue" stroke="midnightblue" points="1085.41,-180.91 1074.82,-181.11 1083.22,-187.56 1085.41,-180.91"/>
</g>
<!-- Node13 -->
<g id="node13" class="node">
<title>Node13</title>
<g id="a_node13"><a xlink:href="apid__define_8h.html" target="_top" xlink:title="CCSDS の APID を定義する">
<polygon fill="white" stroke="black" points="520,-151 520,-181 664,-181 664,-151 520,-151"/>
<text text-anchor="start" x="528" y="-169" font-family="Helvetica,sans-Serif" font-size="10.00">src_user/Settings/TlmCmd</text>
<text text-anchor="middle" x="592" y="-158" font-family="Helvetica,sans-Serif" font-size="10.00">/Ccsds/apid_define.h</text>
</a>
</g>
</g>
<!-- Node8&#45;&gt;Node13 -->
<g id="edge13" class="edge">
<title>Node8&#45;&gt;Node13</title>
<path fill="none" stroke="midnightblue" d="M1176.45,-228.45C1160.85,-226.54 1144.37,-224.62 1129,-223 944,-203.56 896.56,-210.31 712,-187 699.76,-185.45 686.87,-183.57 674.25,-181.59"/>
<polygon fill="midnightblue" stroke="midnightblue" points="674.63,-178.11 664.2,-179.98 673.53,-185.02 674.63,-178.11"/>
</g>
<!-- Node14 -->
<g id="node14" class="node">
<title>Node14</title>
<g id="a_node14"><a xlink:href="timeline__command__dispatcher__define_8h.html" target="_top" xlink:title="timeline command dispatcher の各種定義">
<polygon fill="white" stroke="black" points="1629,-145.5 1629,-186.5 1799,-186.5 1799,-145.5 1629,-145.5"/>
<text text-anchor="start" x="1637" y="-174.5" font-family="Helvetica,sans-Serif" font-size="10.00">src_user/Settings/Applications</text>
<text text-anchor="start" x="1637" y="-163.5" font-family="Helvetica,sans-Serif" font-size="10.00">/timeline_command_dispatcher</text>
<text text-anchor="middle" x="1714" y="-152.5" font-family="Helvetica,sans-Serif" font-size="10.00">_define.h</text>
</a>
</g>
</g>
<!-- Node8&#45;&gt;Node14 -->
<g id="edge14" class="edge">
<title>Node8&#45;&gt;Node14</title>
<path fill="none" stroke="midnightblue" d="M1315.56,-227.02C1396.06,-214.89 1529.06,-194.86 1619.04,-181.31"/>
<polygon fill="midnightblue" stroke="midnightblue" points="1619.6,-184.76 1628.97,-179.81 1618.56,-177.84 1619.6,-184.76"/>
</g>
<!-- Node11 -->
<g id="node11" class="node">
<title>Node11</title>
<g id="a_node11"><a xlink:href="space__packet__typedef_8h.html" target="_top" xlink:title="SpacePacket 類 と CommonTlmCmdPacket 類が相互参照するのを回避するためのヘッダ">
<polygon fill="white" stroke="black" points="350.5,-78.5 350.5,-108.5 487.5,-108.5 487.5,-78.5 350.5,-78.5"/>
<text text-anchor="start" x="358.5" y="-96.5" font-family="Helvetica,sans-Serif" font-size="10.00">src_core/TlmCmd/Ccsds</text>
<text text-anchor="middle" x="419" y="-85.5" font-family="Helvetica,sans-Serif" font-size="10.00">/space_packet_typedef.h</text>
</a>
</g>
</g>
<!-- Node10&#45;&gt;Node11 -->
<g id="edge11" class="edge">
<title>Node10&#45;&gt;Node11</title>
<path fill="none" stroke="midnightblue" d="M946.95,-153.21C926.05,-150.42 903.73,-147.52 883,-145 747.9,-128.58 590.35,-111.97 497.96,-102.49"/>
<polygon fill="midnightblue" stroke="midnightblue" points="498.15,-98.99 487.85,-101.45 497.44,-105.95 498.15,-98.99"/>
</g>
<!-- Node12 -->
<g id="node12" class="node">
<title>Node12</title>
<g id="a_node12"><a xlink:href="space__packet__typedef__params_8h.html" target="_top" xlink:title="SpacePacketの パケット型に関するユーザー設定">
<polygon fill="white" stroke="black" points="339,-0.5 339,-41.5 499,-41.5 499,-0.5 339,-0.5"/>
<text text-anchor="start" x="347" y="-29.5" font-family="Helvetica,sans-Serif" font-size="10.00">src_user/Settings/TlmCmd</text>
<text text-anchor="start" x="347" y="-18.5" font-family="Helvetica,sans-Serif" font-size="10.00">/Ccsds/space_packet_typedef</text>
<text text-anchor="middle" x="419" y="-7.5" font-family="Helvetica,sans-Serif" font-size="10.00">_params.h</text>
</a>
</g>
</g>
<!-- Node11&#45;&gt;Node12 -->
<g id="edge12" class="edge">
<title>Node11&#45;&gt;Node12</title>
<path fill="none" stroke="midnightblue" d="M419,-78.23C419,-70.57 419,-60.84 419,-51.63"/>
<polygon fill="midnightblue" stroke="midnightblue" points="422.5,-51.59 419,-41.59 415.5,-51.59 422.5,-51.59"/>
</g>
<!-- Node17 -->
<g id="node17" class="node">
<title>Node17</title>
<g id="a_node17"><a xlink:href="packet__handler__params_8h.html" target="_top" xlink:title="PHのCoreTlmパラメタのオーバーライド用ヘッダー">
<polygon fill="white" stroke="black" points="1087.5,-491.5 1087.5,-521.5 1232.5,-521.5 1232.5,-491.5 1087.5,-491.5"/>
<text text-anchor="start" x="1095.5" y="-509.5" font-family="Helvetica,sans-Serif" font-size="10.00">src_user/Settings/TlmCmd</text>
<text text-anchor="middle" x="1160" y="-498.5" font-family="Helvetica,sans-Serif" font-size="10.00">/packet_handler_params.h</text>
</a>
</g>
</g>
<!-- Node16&#45;&gt;Node17 -->
<g id="edge19" class="edge">
<title>Node16&#45;&gt;Node17</title>
<path fill="none" stroke="midnightblue" d="M1295.28,-563.87C1271.88,-554.12 1233.13,-537.97 1203.08,-525.45"/>
<polygon fill="midnightblue" stroke="midnightblue" points="1204.24,-522.14 1193.67,-521.53 1201.55,-528.61 1204.24,-522.14"/>
</g>
<!-- Node19 -->
<g id="node19" class="node">
<title>Node19</title>
<g id="a_node19"><a xlink:href="common__tlm__cmd__packet_8h.html" target="_top" xlink:title="CTCP 関連基本関数の宣言">
<polygon fill="white" stroke="black" points="515,-296 515,-315 669,-315 669,-296 515,-296"/>
<text text-anchor="middle" x="592" y="-303" font-family="Helvetica,sans-Serif" font-size="10.00">common_tlm_cmd_packet.h</text>
</a>
</g>
</g>
<!-- Node16&#45;&gt;Node19 -->
<g id="edge22" class="edge">
<title>Node16&#45;&gt;Node19</title>
<path fill="none" stroke="midnightblue" d="M1260.08,-563.94C1211.5,-555.72 1139.63,-541.64 1079,-522 895.45,-462.54 687.53,-356.82 616.95,-319.77"/>
<polygon fill="midnightblue" stroke="midnightblue" points="618.4,-316.58 607.92,-315.01 615.13,-322.77 618.4,-316.58"/>
</g>
<!-- Node24 -->
<g id="node24" class="node">
<title>Node24</title>
<g id="a_node24"><a xlink:href="packet__list_8h.html" target="_top" xlink:title="CTCP, CTP, CCP のリストとしてのデータ構造を定義. 片方向リストとして実装されている">
<polygon fill="white" stroke="black" points="1373,-363 1373,-382 1451,-382 1451,-363 1373,-363"/>
<text text-anchor="middle" x="1412" y="-370" font-family="Helvetica,sans-Serif" font-size="10.00">packet_list.h</text>
</a>
</g>
</g>
<!-- Node16&#45;&gt;Node24 -->
<g id="edge34" class="edge">
<title>Node16&#45;&gt;Node24</title>
<path fill="none" stroke="midnightblue" d="M1336.35,-563.86C1353.99,-555.46 1379.1,-541.17 1395,-522 1423.85,-487.23 1426.41,-468.96 1422,-424 1420.95,-413.26 1418.66,-401.42 1416.54,-391.9"/>
<polygon fill="midnightblue" stroke="midnightblue" points="1419.91,-390.93 1414.21,-382 1413.1,-392.54 1419.91,-390.93"/>
</g>
<!-- Node28 -->
<g id="node28" class="node">
<title>Node28</title>
<g id="a_node28"><a xlink:href="timeline__command__dispatcher_8h.html" target="_top" xlink:title=" ">
<polygon fill="white" stroke="black" points="1250.5,-491.5 1250.5,-521.5 1385.5,-521.5 1385.5,-491.5 1250.5,-491.5"/>
<text text-anchor="start" x="1258.5" y="-509.5" font-family="Helvetica,sans-Serif" font-size="10.00">../Applications/timeline</text>
<text text-anchor="middle" x="1318" y="-498.5" font-family="Helvetica,sans-Serif" font-size="10.00">_command_dispatcher.h</text>
</a>
</g>
</g>
<!-- Node16&#45;&gt;Node28 -->
<g id="edge41" class="edge">
<title>Node16&#45;&gt;Node28</title>
<path fill="none" stroke="midnightblue" d="M1311.48,-563.73C1310.01,-555.54 1309.81,-542.92 1310.7,-531.71"/>
<polygon fill="midnightblue" stroke="midnightblue" points="1314.2,-531.93 1311.89,-521.59 1307.25,-531.11 1314.2,-531.93"/>
</g>
<!-- Node17&#45;&gt;Node14 -->
<g id="edge20" class="edge">
<title>Node17&#45;&gt;Node14</title>
<path fill="none" stroke="midnightblue" d="M1232.51,-492.45C1307.03,-478.9 1413.37,-459.1 1422,-455 1505.77,-415.17 1522.23,-391.93 1582,-321 1614.47,-282.47 1605.47,-260.61 1639,-223 1649.1,-211.67 1661.82,-201.15 1673.9,-192.35"/>
<polygon fill="midnightblue" stroke="midnightblue" points="1675.97,-195.18 1682.12,-186.56 1671.94,-189.46 1675.97,-195.18"/>
</g>
<!-- Node18 -->
<g id="node18" class="node">
<title>Node18</title>
<g id="a_node18"><a xlink:href="data__recorder__define_8h.html" target="_top" xlink:title="Data Recorder の各種定義">
<polygon fill="white" stroke="black" points="968,-424.5 968,-454.5 1078,-454.5 1078,-424.5 968,-424.5"/>
<text text-anchor="start" x="976" y="-442.5" font-family="Helvetica,sans-Serif" font-size="10.00">../Applications/data</text>
<text text-anchor="middle" x="1023" y="-431.5" font-family="Helvetica,sans-Serif" font-size="10.00">_recorder_define.h</text>
</a>
</g>
</g>
<!-- Node17&#45;&gt;Node18 -->
<g id="edge21" class="edge">
<title>Node17&#45;&gt;Node18</title>
<path fill="none" stroke="midnightblue" d="M1130.27,-491.4C1110.26,-481.9 1083.65,-469.28 1061.95,-458.98"/>
<polygon fill="midnightblue" stroke="midnightblue" points="1063.2,-455.7 1052.67,-454.58 1060.2,-462.03 1063.2,-455.7"/>
</g>
<!-- Node19&#45;&gt;Node5 -->
<g id="edge23" class="edge">
<title>Node19&#45;&gt;Node5</title>
<path fill="none" stroke="midnightblue" d="M598.05,-295.59C620.05,-263.33 695.38,-153.97 712,-145 767.26,-115.18 1213.34,-113.11 1276,-109 1321.6,-106.01 1372.63,-102.57 1413.53,-99.79"/>
<polygon fill="midnightblue" stroke="midnightblue" points="1413.96,-103.27 1423.7,-99.1 1413.49,-96.29 1413.96,-103.27"/>
</g>
<!-- Node19&#45;&gt;Node8 -->
<g id="edge32" class="edge">
<title>Node19&#45;&gt;Node8</title>
<path fill="none" stroke="midnightblue" d="M669.44,-297.94C773.88,-288.93 965.63,-271.8 1129,-254 1141.12,-252.68 1153.94,-251.19 1166.47,-249.68"/>
<polygon fill="midnightblue" stroke="midnightblue" points="1166.93,-253.15 1176.44,-248.46 1166.09,-246.2 1166.93,-253.15"/>
</g>
<!-- Node19&#45;&gt;Node13 -->
<g id="edge33" class="edge">
<title>Node19&#45;&gt;Node13</title>
<path fill="none" stroke="midnightblue" d="M592,-295.9C592,-275.28 592,-222.44 592,-191.19"/>
<polygon fill="midnightblue" stroke="midnightblue" points="595.5,-191.12 592,-181.12 588.5,-191.12 595.5,-191.12"/>
</g>
<!-- Node20 -->
<g id="node20" class="node">
<title>Node20</title>
<g id="a_node20"><a xlink:href="common__tlm__cmd__packet__define_8h.html" target="_top" xlink:title="CTCP 型の定義">
<polygon fill="white" stroke="black" points="0,-145.5 0,-186.5 148,-186.5 148,-145.5 0,-145.5"/>
<text text-anchor="start" x="8" y="-174.5" font-family="Helvetica,sans-Serif" font-size="10.00">src_user/Settings/TlmCmd</text>
<text text-anchor="start" x="8" y="-163.5" font-family="Helvetica,sans-Serif" font-size="10.00">/common_tlm_cmd_packet</text>
<text text-anchor="middle" x="74" y="-152.5" font-family="Helvetica,sans-Serif" font-size="10.00">_define.h</text>
</a>
</g>
</g>
<!-- Node19&#45;&gt;Node20 -->
<g id="edge24" class="edge">
<title>Node19&#45;&gt;Node20</title>
<path fill="none" stroke="midnightblue" d="M559.6,-295.9C480.29,-274.85 274.41,-220.2 157.78,-189.24"/>
<polygon fill="midnightblue" stroke="midnightblue" points="158.38,-185.78 147.82,-186.59 156.59,-192.54 158.38,-185.78"/>
</g>
<!-- Node21 -->
<g id="node21" class="node">
<title>Node21</title>
<g id="a_node21"><a xlink:href="common__tlm__packet_8h.html" target="_top" xlink:title="CTP 関連基本関数の宣言">
<polygon fill="white" stroke="black" points="430,-229 430,-248 564,-248 564,-229 430,-229"/>
<text text-anchor="middle" x="497" y="-236" font-family="Helvetica,sans-Serif" font-size="10.00">./common_tlm_packet.h</text>
</a>
</g>
</g>
<!-- Node19&#45;&gt;Node21 -->
<g id="edge26" class="edge">
<title>Node19&#45;&gt;Node21</title>
<path fill="none" stroke="midnightblue" d="M579.19,-295.73C563.52,-285.01 536.78,-266.72 518.07,-253.91"/>
<polygon fill="midnightblue" stroke="midnightblue" points="519.84,-250.89 509.61,-248.13 515.89,-256.66 519.84,-250.89"/>
</g>
<!-- Node20&#45;&gt;Node11 -->
<g id="edge25" class="edge">
<title>Node20&#45;&gt;Node11</title>
<path fill="none" stroke="midnightblue" d="M148.17,-146.95C151.15,-146.28 154.1,-145.63 157,-145 218.46,-131.68 288.41,-118.29 340.56,-108.64"/>
<polygon fill="midnightblue" stroke="midnightblue" points="341.22,-112.08 350.42,-106.83 339.95,-105.2 341.22,-112.08"/>
</g>
<!-- Node21&#45;&gt;Node4 -->
<g id="edge27" class="edge">
<title>Node21&#45;&gt;Node4</title>
<path fill="none" stroke="midnightblue" d="M564.12,-232.85C714.96,-222.3 1071.81,-196.71 1126,-187 1131.36,-186.04 1136.89,-184.85 1142.4,-183.53"/>
<polygon fill="midnightblue" stroke="midnightblue" points="1143.4,-186.88 1152.24,-181.03 1141.68,-180.1 1143.4,-186.88"/>
</g>
<!-- Node21&#45;&gt;Node13 -->
<g id="edge31" class="edge">
<title>Node21&#45;&gt;Node13</title>
<path fill="none" stroke="midnightblue" d="M508.65,-228.86C522.57,-218.52 546.31,-200.9 564.91,-187.11"/>
<polygon fill="midnightblue" stroke="midnightblue" points="567.09,-189.85 573.03,-181.08 562.92,-184.22 567.09,-189.85"/>
</g>
<!-- Node22 -->
<g id="node22" class="node">
<title>Node22</title>
<g id="a_node22"><a xlink:href="telemetry__definitions_8h.html" target="_top" xlink:title="テレメトリ定義">
<polygon fill="white" stroke="black" points="166,-151 166,-181 318,-181 318,-151 166,-151"/>
<text text-anchor="start" x="174" y="-169" font-family="Helvetica,sans-Serif" font-size="10.00">src_user/TlmCmd/telemetry</text>
<text text-anchor="middle" x="242" y="-158" font-family="Helvetica,sans-Serif" font-size="10.00">_definitions.h</text>
</a>
</g>
</g>
<!-- Node21&#45;&gt;Node22 -->
<g id="edge28" class="edge">
<title>Node21&#45;&gt;Node22</title>
<path fill="none" stroke="midnightblue" d="M466.24,-229C425.8,-217.81 353.85,-197.92 302.35,-183.68"/>
<polygon fill="midnightblue" stroke="midnightblue" points="303.23,-180.3 292.66,-181.01 301.37,-187.04 303.23,-180.3"/>
</g>
<!-- Node23 -->
<g id="node23" class="node">
<title>Node23</title>
<g id="a_node23"><a xlink:href="common__tlm__packet__define_8h.html" target="_top" xlink:title="CTP 型の定義">
<polygon fill="white" stroke="black" points="336,-151 336,-181 502,-181 502,-151 336,-151"/>
<text text-anchor="start" x="344" y="-169" font-family="Helvetica,sans-Serif" font-size="10.00">src_user/Settings/TlmCmd</text>
<text text-anchor="middle" x="419" y="-158" font-family="Helvetica,sans-Serif" font-size="10.00">/common_tlm_packet_define.h</text>
</a>
</g>
</g>
<!-- Node21&#45;&gt;Node23 -->
<g id="edge29" class="edge">
<title>Node21&#45;&gt;Node23</title>
<path fill="none" stroke="midnightblue" d="M487.44,-228.86C476.21,-218.71 457.21,-201.54 442.08,-187.86"/>
<polygon fill="midnightblue" stroke="midnightblue" points="444.34,-185.19 434.57,-181.08 439.65,-190.38 444.34,-185.19"/>
</g>
<!-- Node23&#45;&gt;Node11 -->
<g id="edge30" class="edge">
<title>Node23&#45;&gt;Node11</title>
<path fill="none" stroke="midnightblue" d="M419,-150.73C419,-141.66 419,-129.66 419,-119.08"/>
<polygon fill="midnightblue" stroke="midnightblue" points="422.5,-118.75 419,-108.75 415.5,-118.75 422.5,-118.75"/>
</g>
<!-- Node24&#45;&gt;Node8 -->
<g id="edge36" class="edge">
<title>Node24&#45;&gt;Node8</title>
<path fill="none" stroke="midnightblue" d="M1401.11,-362.84C1375.13,-342.18 1308.96,-289.56 1271.99,-260.17"/>
<polygon fill="midnightblue" stroke="midnightblue" points="1273.7,-257.06 1263.7,-253.57 1269.34,-262.54 1273.7,-257.06"/>
</g>
<!-- Node25 -->
<g id="node25" class="node">
<title>Node25</title>
<g id="a_node25"><a xlink:title=" ">
<polygon fill="white" stroke="#bfbfbf" points="1648,-229 1648,-248 1704,-248 1704,-229 1648,-229"/>
<text text-anchor="middle" x="1676" y="-236" font-family="Helvetica,sans-Serif" font-size="10.00">stddef.h</text>
</a>
</g>
</g>
<!-- Node24&#45;&gt;Node25 -->
<g id="edge35" class="edge">
<title>Node24&#45;&gt;Node25</title>
<path fill="none" stroke="midnightblue" d="M1451.31,-364.76C1487.01,-357.53 1540.29,-343.87 1582,-321 1613.7,-303.62 1644.13,-274.13 1661.4,-255.79"/>
<polygon fill="midnightblue" stroke="midnightblue" points="1664.16,-257.96 1668.36,-248.24 1659.01,-253.22 1664.16,-257.96"/>
</g>
<!-- Node26 -->
<g id="node26" class="node">
<title>Node26</title>
<g id="a_node26"><a xlink:href="block__command__table_8h.html" target="_top" xlink:title="BCTの定義, BCT周りの関数">
<polygon fill="white" stroke="black" points="1437,-296 1437,-315 1573,-315 1573,-296 1437,-296"/>
<text text-anchor="middle" x="1505" y="-303" font-family="Helvetica,sans-Serif" font-size="10.00">block_command_table.h</text>
</a>
</g>
</g>
<!-- Node24&#45;&gt;Node26 -->
<g id="edge37" class="edge">
<title>Node24&#45;&gt;Node26</title>
<path fill="none" stroke="midnightblue" d="M1424.54,-362.73C1439.88,-352.01 1466.06,-333.72 1484.38,-320.91"/>
<polygon fill="midnightblue" stroke="midnightblue" points="1486.46,-323.72 1492.66,-315.13 1482.45,-317.99 1486.46,-323.72"/>
</g>
<!-- Node26&#45;&gt;Node5 -->
<g id="edge38" class="edge">
<title>Node26&#45;&gt;Node5</title>
<path fill="none" stroke="midnightblue" d="M1520.96,-295.92C1534.97,-287.37 1554.43,-272.83 1563,-254 1568.71,-241.46 1566.48,-236.33 1563,-223 1551.59,-179.31 1521.67,-134.76 1504.2,-111.32"/>
<polygon fill="midnightblue" stroke="midnightblue" points="1506.82,-108.98 1497.97,-103.15 1501.25,-113.23 1506.82,-108.98"/>
</g>
<!-- Node26&#45;&gt;Node8 -->
<g id="edge40" class="edge">
<title>Node26&#45;&gt;Node8</title>
<path fill="none" stroke="midnightblue" d="M1470.87,-295.94C1430.57,-285.82 1362.6,-268.76 1311.91,-256.04"/>
<polygon fill="midnightblue" stroke="midnightblue" points="1312.57,-252.6 1302.02,-253.56 1310.87,-259.39 1312.57,-252.6"/>
</g>
<!-- Node27 -->
<g id="node27" class="node">
<title>Node27</title>
<g id="a_node27"><a xlink:href="block__command__table__params_8h.html" target="_top" xlink:title="BCTのCoreTlmパラメタのオーバーライド用ヘッダー">
<polygon fill="white" stroke="black" points="1372.5,-223.5 1372.5,-253.5 1553.5,-253.5 1553.5,-223.5 1372.5,-223.5"/>
<text text-anchor="start" x="1380.5" y="-241.5" font-family="Helvetica,sans-Serif" font-size="10.00">src_user/Settings/TlmCmd</text>
<text text-anchor="middle" x="1463" y="-230.5" font-family="Helvetica,sans-Serif" font-size="10.00">/block_command_table_params.h</text>
</a>
</g>
</g>
<!-- Node26&#45;&gt;Node27 -->
<g id="edge39" class="edge">
<title>Node26&#45;&gt;Node27</title>
<path fill="none" stroke="midnightblue" d="M1499.34,-295.73C1493.77,-287.12 1485.04,-273.61 1477.53,-261.99"/>
<polygon fill="midnightblue" stroke="midnightblue" points="1480.47,-260.09 1472.1,-253.59 1474.59,-263.89 1480.47,-260.09"/>
</g>
<!-- Node28&#45;&gt;Node3 -->
<g id="edge50" class="edge">
<title>Node28&#45;&gt;Node3</title>
<path fill="none" stroke="midnightblue" d="M1280.08,-491.46C1258.57,-482.61 1231.69,-470.03 1210,-455 1139.99,-406.5 1121.17,-391.25 1073,-321 1060.74,-303.12 1051.38,-280.26 1045.44,-263.3"/>
<polygon fill="midnightblue" stroke="midnightblue" points="1048.68,-261.97 1042.18,-253.6 1042.05,-264.2 1048.68,-261.97"/>
</g>
<!-- Node28&#45;&gt;Node8 -->
<g id="edge48" class="edge">
<title>Node28&#45;&gt;Node8</title>
<path fill="none" stroke="midnightblue" d="M1267.62,-491.42C1249.69,-483.71 1231.39,-472.12 1221,-455 1201.75,-423.28 1226.94,-312.72 1239.57,-263.48"/>
<polygon fill="midnightblue" stroke="midnightblue" points="1242.99,-264.24 1242.12,-253.68 1236.21,-262.48 1242.99,-264.24"/>
</g>
<!-- Node28&#45;&gt;Node14 -->
<g id="edge42" class="edge">
<title>Node28&#45;&gt;Node14</title>
<path fill="none" stroke="midnightblue" d="M1385.68,-499.19C1477.7,-490.02 1633.16,-472.24 1653,-455 1728.38,-389.53 1724.24,-256.29 1718.04,-196.82"/>
<polygon fill="midnightblue" stroke="midnightblue" points="1721.49,-196.15 1716.88,-186.61 1714.54,-196.94 1721.49,-196.15"/>
</g>
<!-- Node28&#45;&gt;Node16 -->
<g id="edge49" class="edge">
<title>Node28&#45;&gt;Node16</title>
<path fill="none" stroke="midnightblue" d="M1323.24,-521.59C1324.19,-531 1323.97,-543.49 1322.76,-553.74"/>
<polygon fill="midnightblue" stroke="midnightblue" points="1319.29,-553.29 1321.06,-563.73 1326.19,-554.46 1319.29,-553.29"/>
</g>
<!-- Node29 -->
<g id="node29" class="node">
<title>Node29</title>
<g id="a_node29"><a xlink:href="command__dispatcher_8h.html" target="_top" xlink:title="各種コマンドの実行管理">
<polygon fill="white" stroke="black" points="1229.5,-430 1229.5,-449 1412.5,-449 1412.5,-430 1229.5,-430"/>
<text text-anchor="middle" x="1321" y="-437" font-family="Helvetica,sans-Serif" font-size="10.00">../TlmCmd/command_dispatcher.h</text>
</a>
</g>
</g>
<!-- Node28&#45;&gt;Node29 -->
<g id="edge43" class="edge">
<title>Node28&#45;&gt;Node29</title>
<path fill="none" stroke="midnightblue" d="M1318.65,-491.4C1319.09,-481.96 1319.66,-469.45 1320.14,-459.19"/>
<polygon fill="midnightblue" stroke="midnightblue" points="1323.63,-459.35 1320.6,-449.19 1316.64,-459.02 1323.63,-459.35"/>
</g>
<!-- Node29&#45;&gt;Node4 -->
<g id="edge44" class="edge">
<title>Node29&#45;&gt;Node4</title>
<path fill="none" stroke="midnightblue" d="M1324.34,-429.75C1335.67,-398.55 1369.45,-290.96 1325,-223 1311,-201.59 1286.81,-188.32 1263.2,-180.11"/>
<polygon fill="midnightblue" stroke="midnightblue" points="1264.09,-176.72 1253.5,-177 1261.96,-183.39 1264.09,-176.72"/>
</g>
<!-- Node29&#45;&gt;Node8 -->
<g id="edge45" class="edge">
<title>Node29&#45;&gt;Node8</title>
<path fill="none" stroke="midnightblue" d="M1317.78,-429.95C1306.93,-401.17 1271.5,-307.15 1254.82,-262.91"/>
<polygon fill="midnightblue" stroke="midnightblue" points="1258.09,-261.66 1251.29,-253.53 1251.54,-264.12 1258.09,-261.66"/>
</g>
<!-- Node29&#45;&gt;Node9 -->
<g id="edge47" class="edge">
<title>Node29&#45;&gt;Node9</title>
<path fill="none" stroke="midnightblue" d="M1233.69,-429.98C1127.89,-417.15 946.15,-386.95 804,-321 750.63,-296.24 687.53,-275.03 715,-223 723.41,-207.07 738.62,-194.82 753.67,-185.89"/>
<polygon fill="midnightblue" stroke="midnightblue" points="755.41,-188.92 762.46,-181.01 752.02,-182.8 755.41,-188.92"/>
</g>
<!-- Node29&#45;&gt;Node24 -->
<g id="edge46" class="edge">
<title>Node29&#45;&gt;Node24</title>
<path fill="none" stroke="midnightblue" d="M1333.27,-429.73C1348.15,-419.11 1373.43,-401.05 1391.33,-388.26"/>
<polygon fill="midnightblue" stroke="midnightblue" points="1393.82,-390.79 1399.92,-382.13 1389.75,-385.09 1393.82,-390.79"/>
</g>
<!-- Node30&#45;&gt;Node8 -->
<g id="edge52" class="edge">
<title>Node30&#45;&gt;Node8</title>
<path fill="none" stroke="midnightblue" d="M1482.8,-558.5C1489.31,-521.97 1501.88,-422.1 1460,-357 1439.84,-325.66 1346.42,-281.94 1289.89,-257.63"/>
<polygon fill="midnightblue" stroke="midnightblue" points="1291.04,-254.32 1280.47,-253.62 1288.29,-260.76 1291.04,-254.32"/>
</g>
<!-- Node30&#45;&gt;Node26 -->
<g id="edge54" class="edge">
<title>Node30&#45;&gt;Node26</title>
<path fill="none" stroke="midnightblue" d="M1484.52,-558.07C1487.46,-548.06 1491.09,-534.35 1493,-522 1504.14,-450.16 1505.29,-363.44 1505.19,-325.65"/>
<polygon fill="midnightblue" stroke="midnightblue" points="1508.69,-325.16 1505.12,-315.19 1501.69,-325.21 1508.69,-325.16"/>
</g>
<!-- Node30&#45;&gt;Node28 -->
<g id="edge53" class="edge">
<title>Node30&#45;&gt;Node28</title>
<path fill="none" stroke="midnightblue" d="M1444.85,-558.4C1420.75,-548.73 1388.59,-535.82 1362.68,-525.43"/>
<polygon fill="midnightblue" stroke="midnightblue" points="1363.67,-522.05 1353.08,-521.58 1361.06,-528.55 1363.67,-522.05"/>
</g>
<!-- Node31 -->
<g id="node31" class="node">
<title>Node31</title>
<g id="a_node31"><a xlink:href="app__registry_8h.html" target="_top" xlink:title=" ">
<polygon fill="white" stroke="black" points="1748,-357.5 1748,-387.5 1868,-387.5 1868,-357.5 1748,-357.5"/>
<text text-anchor="start" x="1756" y="-375.5" font-family="Helvetica,sans-Serif" font-size="10.00">src_user/Applications</text>
<text text-anchor="middle" x="1808" y="-364.5" font-family="Helvetica,sans-Serif" font-size="10.00">/app_registry.h</text>
</a>
</g>
</g>
<!-- Node30&#45;&gt;Node31 -->
<g id="edge55" class="edge">
<title>Node30&#45;&gt;Node31</title>
<path fill="none" stroke="midnightblue" d="M1549.53,-565.59C1614.49,-557.92 1705.6,-543.7 1734,-522 1774.9,-490.76 1794.75,-430.79 1803.02,-397.41"/>
<polygon fill="midnightblue" stroke="midnightblue" points="1806.45,-398.12 1805.3,-387.58 1799.63,-396.53 1806.45,-398.12"/>
</g>
<!-- Node31&#45;&gt;Node14 -->
<g id="edge56" class="edge">
<title>Node31&#45;&gt;Node14</title>
<path fill="none" stroke="midnightblue" d="M1802.75,-357.32C1792.72,-330.6 1769.69,-271.13 1746,-223 1741.49,-213.83 1736.12,-204.08 1731.09,-195.33"/>
<polygon fill="midnightblue" stroke="midnightblue" points="1734.08,-193.5 1726.01,-186.63 1728.03,-197.03 1734.08,-193.5"/>
</g>
<!-- Node32&#45;&gt;Node4 -->
<g id="edge58" class="edge">
<title>Node32&#45;&gt;Node4</title>
<path fill="none" stroke="midnightblue" d="M1150.41,-290.35C1153.47,-273.85 1159.4,-245.91 1168,-223 1172.2,-211.82 1178.09,-199.99 1183.46,-190.1"/>
<polygon fill="midnightblue" stroke="midnightblue" points="1186.56,-191.74 1188.39,-181.3 1180.45,-188.32 1186.56,-191.74"/>
</g>
<!-- Node32&#45;&gt;Node8 -->
<g id="edge59" class="edge">
<title>Node32&#45;&gt;Node8</title>
<path fill="none" stroke="midnightblue" d="M1169.26,-290.4C1183.01,-281.28 1201.09,-269.29 1216.24,-259.24"/>
<polygon fill="midnightblue" stroke="midnightblue" points="1218.38,-262.02 1224.78,-253.58 1214.51,-256.19 1218.38,-262.02"/>
</g>
<!-- Node33&#45;&gt;Node4 -->
<g id="edge64" class="edge">
<title>Node33&#45;&gt;Node4</title>
<path fill="none" stroke="midnightblue" d="M1877.99,-290.46C1842.03,-271.74 1774.56,-239.09 1713,-223 1555.55,-181.84 1363.43,-170.88 1263.93,-168"/>
<polygon fill="midnightblue" stroke="midnightblue" points="1263.81,-164.5 1253.72,-167.72 1263.62,-171.49 1263.81,-164.5"/>
</g>
<!-- Node33&#45;&gt;Node5 -->
<g id="edge62" class="edge">
<title>Node33&#45;&gt;Node5</title>
<path fill="none" stroke="midnightblue" d="M1892.04,-290.41C1883.93,-280.54 1873.25,-266.87 1865,-254 1835.51,-207.97 1852.38,-176.92 1808,-145 1770.63,-118.13 1649.5,-104.91 1568.27,-98.91"/>
<polygon fill="midnightblue" stroke="midnightblue" points="1568.3,-95.4 1558.07,-98.18 1567.8,-102.39 1568.3,-95.4"/>
</g>
<!-- Node33&#45;&gt;Node8 -->
<g id="edge63" class="edge">
<title>Node33&#45;&gt;Node8</title>
<path fill="none" stroke="midnightblue" d="M1835.74,-298.76C1733.22,-289.98 1533.44,-272.33 1364,-254 1351.61,-252.66 1338.51,-251.15 1325.71,-249.61"/>
<polygon fill="midnightblue" stroke="midnightblue" points="1325.88,-246.11 1315.53,-248.38 1325.04,-253.06 1325.88,-246.11"/>
</g>
<!-- Node33&#45;&gt;Node25 -->
<g id="edge61" class="edge">
<title>Node33&#45;&gt;Node25</title>
<path fill="none" stroke="midnightblue" d="M1854.81,-290.48C1812.63,-278.45 1752.72,-261.37 1714.11,-250.36"/>
<polygon fill="midnightblue" stroke="midnightblue" points="1714.87,-246.94 1704.29,-247.57 1712.95,-253.67 1714.87,-246.94"/>
</g>
<!-- Node34 -->
<g id="node34" class="node">
<title>Node34</title>
<g id="a_node34"><a xlink:href="event__logger__group_8h.html" target="_top" xlink:title="event_logger の イベント識別IDを定義">
<polygon fill="white" stroke="black" points="1874,-223.5 1874,-253.5 2014,-253.5 2014,-223.5 1874,-223.5"/>
<text text-anchor="start" x="1882" y="-241.5" font-family="Helvetica,sans-Serif" font-size="10.00">src_user/Settings/System</text>
<text text-anchor="middle" x="1944" y="-230.5" font-family="Helvetica,sans-Serif" font-size="10.00">/event_logger_group.h</text>
</a>
</g>
</g>
<!-- Node33&#45;&gt;Node34 -->
<g id="edge65" class="edge">
<title>Node33&#45;&gt;Node34</title>
<path fill="none" stroke="midnightblue" d="M1912.68,-290.4C1917.76,-282.13 1924.3,-271.51 1930.09,-262.1"/>
<polygon fill="midnightblue" stroke="midnightblue" points="1933.08,-263.93 1935.34,-253.58 1927.12,-260.26 1933.08,-263.93"/>
</g>
<!-- Node35 -->
<g id="node35" class="node">
<title>Node35</title>
<g id="a_node35"><a xlink:href="event__logger__params_8h.html" target="_top" xlink:title="event_logger の各種設定 各パラメタ類の詳細は event_logger.h を参照すること">
<polygon fill="white" stroke="black" points="2032,-223.5 2032,-253.5 2172,-253.5 2172,-223.5 2032,-223.5"/>
<text text-anchor="start" x="2040" y="-241.5" font-family="Helvetica,sans-Serif" font-size="10.00">src_user/Settings/System</text>
<text text-anchor="middle" x="2102" y="-230.5" font-family="Helvetica,sans-Serif" font-size="10.00">/event_logger_params.h</text>
</a>
</g>
</g>
<!-- Node33&#45;&gt;Node35 -->
<g id="edge66" class="edge">
<title>Node33&#45;&gt;Node35</title>
<path fill="none" stroke="midnightblue" d="M1946.96,-290.4C1977.06,-280.52 2017.46,-267.25 2049.48,-256.74"/>
<polygon fill="midnightblue" stroke="midnightblue" points="2050.71,-260.02 2059.12,-253.58 2048.53,-253.37 2050.71,-260.02"/>
</g>
</g>
</svg>
