<?xml version="1.0" encoding="UTF-8" standalone="no"?>
<!DOCTYPE svg PUBLIC "-//W3C//DTD SVG 1.1//EN"
 "http://www.w3.org/Graphics/SVG/1.1/DTD/svg11.dtd">
<!-- Generated by graphviz version 2.43.0 (0)
 -->
<!-- Title: DCU_check_in Pages: 1 -->
<svg width="1286pt" height="274pt"
 viewBox="0.00 0.00 1286.00 274.20" xmlns="http://www.w3.org/2000/svg" xmlns:xlink="http://www.w3.org/1999/xlink">
<g id="graph0" class="graph" transform="scale(1 1) rotate(0) translate(4 270.2)">
<title>DCU_check_in</title>
<polygon fill="white" stroke="transparent" points="-4,4 -4,-270.2 1282,-270.2 1282,4 -4,4"/>
<!-- Node1 -->
<g id="node1" class="node">
<title>Node1</title>
<g id="a_node1"><a xlink:title="DCUにチェックインする．分割コマンド実行時，最初に呼び出す関数．">
<polygon fill="#bfbfbf" stroke="black" points="0,-124.5 0,-143.5 86,-143.5 86,-124.5 0,-124.5"/>
<text text-anchor="middle" x="43" y="-131.5" font-family="Helvetica,sans-Serif" font-size="10.00">DCU_check_in</text>
</a>
</g>
</g>
<!-- Node2 -->
<g id="node2" class="node">
<title>Node2</title>
<g id="a_node2"><a xlink:href="divided__cmd__utility_8c.html#af4f7313b1b0fb69acea42ae713497cc3" target="_top" xlink:title="ログクリア（１要素）">
<polygon fill="white" stroke="black" points="495,-181.5 495,-200.5 634,-200.5 634,-181.5 495,-181.5"/>
<text text-anchor="middle" x="564.5" y="-188.5" font-family="Helvetica,sans-Serif" font-size="10.00">DCU_clear_log_element_</text>
</a>
</g>
</g>
<!-- Node1&#45;&gt;Node2 -->
<g id="edge1" class="edge">
<title>Node1&#45;&gt;Node2</title>
<path fill="none" stroke="midnightblue" d="M78.73,-143.56C92.16,-146.97 107.71,-150.56 122,-153 247.83,-174.48 396.03,-184.08 484.73,-188.17"/>
<polygon fill="midnightblue" stroke="midnightblue" points="484.83,-191.68 494.98,-188.63 485.15,-184.69 484.83,-191.68"/>
</g>
<!-- Node4 -->
<g id="node4" class="node">
<title>Node4</title>
<g id="a_node4"><a xlink:href="divided__cmd__utility_8c.html#a2fed1ffbed2edbe0c08102c071f2edcf" target="_top" xlink:title="該当コマンドのログを，ログの先頭に出す">
<polygon fill="white" stroke="black" points="122,-124.5 122,-143.5 277,-143.5 277,-124.5 122,-124.5"/>
<text text-anchor="middle" x="199.5" y="-131.5" font-family="Helvetica,sans-Serif" font-size="10.00">DCU_move_to_front_in_log_</text>
</a>
</g>
</g>
<!-- Node1&#45;&gt;Node4 -->
<g id="edge3" class="edge">
<title>Node1&#45;&gt;Node4</title>
<path fill="none" stroke="midnightblue" d="M86.22,-134C94.27,-134 102.96,-134 111.82,-134"/>
<polygon fill="midnightblue" stroke="midnightblue" points="111.87,-137.5 121.87,-134 111.87,-130.5 111.87,-137.5"/>
</g>
<!-- Node10 -->
<g id="node10" class="node">
<title>Node10</title>
<g id="a_node10"><a xlink:href="time__manager_8c.html#a9d04b4d9b622cbe5a90cf65e58b828bc" target="_top" xlink:title=" ">
<polygon fill="white" stroke="black" points="965,-9.5 965,-28.5 1102,-28.5 1102,-9.5 965,-9.5"/>
<text text-anchor="middle" x="1033.5" y="-16.5" font-family="Helvetica,sans-Serif" font-size="10.00">TMGR_get_master_clock</text>
</a>
</g>
</g>
<!-- Node1&#45;&gt;Node10 -->
<g id="edge22" class="edge">
<title>Node1&#45;&gt;Node10</title>
<path fill="none" stroke="midnightblue" d="M57.53,-124.36C102.05,-93.64 248.88,0 385,0 385,0 385,0 722,0 801.3,0 891.77,-6.25 954.52,-11.58"/>
<polygon fill="midnightblue" stroke="midnightblue" points="954.47,-15.09 964.73,-12.46 955.07,-8.12 954.47,-15.09"/>
</g>
<!-- Node3 -->
<g id="node3" class="node">
<title>Node3</title>
<g id="a_node3"><a xlink:href="obc__time_8c.html#a70416835a40bdacbb04f6f06b1e6d1e1" target="_top" xlink:title=" ">
<polygon fill="white" stroke="black" points="681,-181.5 681,-200.5 761,-200.5 761,-181.5 681,-181.5"/>
<text text-anchor="middle" x="721" y="-188.5" font-family="Helvetica,sans-Serif" font-size="10.00">OBCT_create</text>
</a>
</g>
</g>
<!-- Node2&#45;&gt;Node3 -->
<g id="edge2" class="edge">
<title>Node2&#45;&gt;Node3</title>
<path fill="none" stroke="midnightblue" d="M634.17,-191C646.38,-191 658.89,-191 670.44,-191"/>
<polygon fill="midnightblue" stroke="midnightblue" points="670.75,-194.5 680.75,-191 670.75,-187.5 670.75,-194.5"/>
</g>
<!-- Node5 -->
<g id="node5" class="node">
<title>Node5</title>
<g id="a_node5"><a xlink:href="divided__cmd__utility_8c.html#a9bfb4e0540d42e883eb88b7ea7e9a6f9" target="_top" xlink:title="先頭に該当コマンドのログをつくる">
<polygon fill="white" stroke="black" points="313,-143.5 313,-162.5 459,-162.5 459,-143.5 313,-143.5"/>
<text text-anchor="middle" x="386" y="-150.5" font-family="Helvetica,sans-Serif" font-size="10.00">DCU_create_log_on_front_</text>
</a>
</g>
</g>
<!-- Node4&#45;&gt;Node5 -->
<g id="edge4" class="edge">
<title>Node4&#45;&gt;Node5</title>
<path fill="none" stroke="midnightblue" d="M277.14,-141.89C285.52,-142.76 294.07,-143.64 302.51,-144.51"/>
<polygon fill="midnightblue" stroke="midnightblue" points="302.43,-148.02 312.74,-145.56 303.15,-141.05 302.43,-148.02"/>
</g>
<!-- Node19 -->
<g id="node19" class="node">
<title>Node19</title>
<g id="a_node19"><a xlink:href="divided__cmd__utility_8c.html#a4923a6cf1e379f9f0f1c673a508605de" target="_top" xlink:title="該当コマンドのログを検索し取得する">
<polygon fill="white" stroke="black" points="335.5,-105.5 335.5,-124.5 436.5,-124.5 436.5,-105.5 335.5,-105.5"/>
<text text-anchor="middle" x="386" y="-112.5" font-family="Helvetica,sans-Serif" font-size="10.00">DCU_search_log_</text>
</a>
</g>
</g>
<!-- Node4&#45;&gt;Node19 -->
<g id="edge21" class="edge">
<title>Node4&#45;&gt;Node19</title>
<path fill="none" stroke="midnightblue" d="M277.14,-126.11C293.15,-124.46 309.8,-122.74 325.1,-121.17"/>
<polygon fill="midnightblue" stroke="midnightblue" points="325.86,-124.61 335.45,-120.1 325.14,-117.65 325.86,-124.61"/>
</g>
<!-- Node5&#45;&gt;Node2 -->
<g id="edge5" class="edge">
<title>Node5&#45;&gt;Node2</title>
<path fill="none" stroke="midnightblue" d="M431.54,-162.59C455.14,-167.67 484.33,-173.96 509.25,-179.32"/>
<polygon fill="midnightblue" stroke="midnightblue" points="508.77,-182.8 519.28,-181.48 510.24,-175.95 508.77,-182.8"/>
</g>
<!-- Node6 -->
<g id="node6" class="node">
<title>Node6</title>
<g id="a_node6"><a xlink:href="event__logger_8c.html#a25a74a48375dfc1f3f80be68e0ac00ea" target="_top" xlink:title="イベント (EL_Event) を記録">
<polygon fill="white" stroke="black" points="516,-143.5 516,-162.5 613,-162.5 613,-143.5 516,-143.5"/>
<text text-anchor="middle" x="564.5" y="-150.5" font-family="Helvetica,sans-Serif" font-size="10.00">EL_record_event</text>
</a>
</g>
</g>
<!-- Node5&#45;&gt;Node6 -->
<g id="edge6" class="edge">
<title>Node5&#45;&gt;Node6</title>
<path fill="none" stroke="midnightblue" d="M459.04,-153C474.61,-153 490.87,-153 505.81,-153"/>
<polygon fill="midnightblue" stroke="midnightblue" points="505.91,-156.5 515.91,-153 505.91,-149.5 505.91,-156.5"/>
</g>
<!-- Node7 -->
<g id="node7" class="node">
<title>Node7</title>
<g id="a_node7"><a xlink:href="event__logger_8c.html#a80a1b60c587d1e3402b02e3bde1db899" target="_top" xlink:title="イベント (EL_Event) を記録">
<polygon fill="white" stroke="black" points="670,-143.5 670,-162.5 772,-162.5 772,-143.5 670,-143.5"/>
<text text-anchor="middle" x="721" y="-150.5" font-family="Helvetica,sans-Serif" font-size="10.00">EL_record_event_</text>
</a>
</g>
</g>
<!-- Node6&#45;&gt;Node7 -->
<g id="edge7" class="edge">
<title>Node6&#45;&gt;Node7</title>
<path fill="none" stroke="midnightblue" d="M613.12,-153C627.88,-153 644.35,-153 659.85,-153"/>
<polygon fill="midnightblue" stroke="midnightblue" points="659.87,-156.5 669.87,-153 659.87,-149.5 659.87,-156.5"/>
</g>
<!-- Node8 -->
<g id="node8" class="node">
<title>Node8</title>
<g id="a_node8"><a xlink:href="event__logger_8c.html#aeae14f21b4e29006f709a61e7de52d67" target="_top" xlink:title="TLog の wp をチェックし， event を生成する">
<polygon fill="white" stroke="black" points="813.5,-203.5 813.5,-222.5 923.5,-222.5 923.5,-203.5 813.5,-203.5"/>
<text text-anchor="middle" x="868.5" y="-210.5" font-family="Helvetica,sans-Serif" font-size="10.00">EL_check_tlog_wp_</text>
</a>
</g>
</g>
<!-- Node7&#45;&gt;Node8 -->
<g id="edge8" class="edge">
<title>Node7&#45;&gt;Node8</title>
<path fill="none" stroke="midnightblue" d="M770.99,-162.51C771.33,-162.67 771.67,-162.84 772,-163 788.84,-171.25 790.95,-177.2 808,-185 820.36,-190.65 834.87,-195.32 846.47,-199.67"/>
<polygon fill="midnightblue" stroke="midnightblue" points="845.2,-202.94 855.79,-203.43 847.82,-196.44 845.2,-202.94"/>
</g>
<!-- Node9 -->
<g id="node9" class="node">
<title>Node9</title>
<g id="a_node9"><a xlink:href="event__logger_8c.html#a0b42c2f5d1eafdad83481ec6e63365e2" target="_top" xlink:title="イベント (EL_Event) を初期化">
<polygon fill="white" stroke="black" points="825,-28.5 825,-47.5 912,-47.5 912,-28.5 825,-28.5"/>
<text text-anchor="middle" x="868.5" y="-35.5" font-family="Helvetica,sans-Serif" font-size="10.00">EL_init_event_</text>
</a>
</g>
</g>
<!-- Node7&#45;&gt;Node9 -->
<g id="edge10" class="edge">
<title>Node7&#45;&gt;Node9</title>
<path fill="none" stroke="midnightblue" d="M728.08,-143.29C740.65,-124 771.38,-80.72 808,-57 811.14,-54.96 814.52,-53.13 818.01,-51.49"/>
<polygon fill="midnightblue" stroke="midnightblue" points="819.56,-54.63 827.44,-47.55 816.86,-48.17 819.56,-54.63"/>
</g>
<!-- Node11 -->
<g id="node11" class="node">
<title>Node11</title>
<g id="a_node11"><a xlink:href="event__logger_8c.html#a50ba2fe43a96f7351951a4109227ba6f" target="_top" xlink:title="event_logger の EL_Event.group が有効か？">
<polygon fill="white" stroke="black" points="808,-165.5 808,-184.5 929,-184.5 929,-165.5 808,-165.5"/>
<text text-anchor="middle" x="868.5" y="-172.5" font-family="Helvetica,sans-Serif" font-size="10.00">EL_is_logging_enable</text>
</a>
</g>
</g>
<!-- Node7&#45;&gt;Node11 -->
<g id="edge12" class="edge">
<title>Node7&#45;&gt;Node11</title>
<path fill="none" stroke="midnightblue" d="M772.07,-160.57C780.34,-161.82 789.05,-163.14 797.7,-164.45"/>
<polygon fill="midnightblue" stroke="midnightblue" points="797.39,-167.94 807.8,-165.97 798.44,-161.02 797.39,-167.94"/>
</g>
<!-- Node12 -->
<g id="node12" class="node">
<title>Node12</title>
<g id="a_node12"><a xlink:href="event__logger_8c.html#a69fb9dbc85ad467d048f1c9f31d2442c" target="_top" xlink:title="イベント (EL_Event) を CLog に記録">
<polygon fill="white" stroke="black" points="812.5,-116 812.5,-146 924.5,-146 924.5,-116 812.5,-116"/>
<text text-anchor="start" x="820.5" y="-134" font-family="Helvetica,sans-Serif" font-size="10.00">EL_record_event_to</text>
<text text-anchor="middle" x="868.5" y="-123" font-family="Helvetica,sans-Serif" font-size="10.00">_clog_</text>
</a>
</g>
</g>
<!-- Node7&#45;&gt;Node12 -->
<g id="edge13" class="edge">
<title>Node7&#45;&gt;Node12</title>
<path fill="none" stroke="midnightblue" d="M772.07,-145.43C781.81,-143.96 792.16,-142.39 802.3,-140.86"/>
<polygon fill="midnightblue" stroke="midnightblue" points="802.99,-144.29 812.35,-139.34 801.94,-137.37 802.99,-144.29"/>
</g>
<!-- Node17 -->
<g id="node17" class="node">
<title>Node17</title>
<g id="a_node17"><a xlink:href="event__logger_8c.html#a93cb3659efd373de0856c92b3c08896a" target="_top" xlink:title="イベント (EL_Event) を TLog に記録">
<polygon fill="white" stroke="black" points="812.5,-67 812.5,-97 924.5,-97 924.5,-67 812.5,-67"/>
<text text-anchor="start" x="820.5" y="-85" font-family="Helvetica,sans-Serif" font-size="10.00">EL_record_event_to</text>
<text text-anchor="middle" x="868.5" y="-74" font-family="Helvetica,sans-Serif" font-size="10.00">_tlog_</text>
</a>
</g>
</g>
<!-- Node7&#45;&gt;Node17 -->
<g id="edge19" class="edge">
<title>Node7&#45;&gt;Node17</title>
<path fill="none" stroke="midnightblue" d="M738.89,-143.36C756.06,-133.71 783.54,-118.65 808,-107 812.09,-105.05 816.38,-103.09 820.7,-101.18"/>
<polygon fill="midnightblue" stroke="midnightblue" points="822.35,-104.27 830.13,-97.07 819.56,-97.85 822.35,-104.27"/>
</g>
<!-- Node8&#45;&gt;Node7 -->
<g id="edge9" class="edge">
<title>Node8&#45;&gt;Node7</title>
<path fill="none" stroke="midnightblue" d="M813.44,-205.37C811.59,-204.6 809.78,-203.81 808,-203 790.95,-195.2 788.84,-189.25 772,-181 761.85,-176.02 750.05,-171.48 740.46,-167.12"/>
<polygon fill="midnightblue" stroke="midnightblue" points="741.95,-163.95 731.43,-162.63 738.83,-170.22 741.95,-163.95"/>
</g>
<!-- Node9&#45;&gt;Node10 -->
<g id="edge11" class="edge">
<title>Node9&#45;&gt;Node10</title>
<path fill="none" stroke="midnightblue" d="M912.33,-33.01C925.35,-31.49 940.1,-29.77 954.69,-28.07"/>
<polygon fill="midnightblue" stroke="midnightblue" points="955.21,-31.53 964.74,-26.9 954.4,-24.58 955.21,-31.53"/>
</g>
<!-- Node13 -->
<g id="node13" class="node">
<title>Node13</title>
<g id="a_node13"><a xlink:href="event__logger_8c.html#a605a3ff223ddae8830c09ff5aa57cc94" target="_top" xlink:title="該当イベントの CLog を，イベントテーブルの先頭に出す">
<polygon fill="white" stroke="black" points="974,-116 974,-146 1093,-146 1093,-116 974,-116"/>
<text text-anchor="start" x="982" y="-134" font-family="Helvetica,sans-Serif" font-size="10.00">EL_move_to_front_in</text>
<text text-anchor="middle" x="1033.5" y="-123" font-family="Helvetica,sans-Serif" font-size="10.00">_clog_</text>
</a>
</g>
</g>
<!-- Node12&#45;&gt;Node13 -->
<g id="edge14" class="edge">
<title>Node12&#45;&gt;Node13</title>
<path fill="none" stroke="midnightblue" d="M924.68,-131C937.15,-131 950.53,-131 963.48,-131"/>
<polygon fill="midnightblue" stroke="midnightblue" points="963.75,-134.5 973.75,-131 963.75,-127.5 963.75,-134.5"/>
</g>
<!-- Node16 -->
<g id="node16" class="node">
<title>Node16</title>
<g id="a_node16"><a xlink:href="obc__time_8c.html#a02512f745375636ab21f468838587942" target="_top" xlink:title=" ">
<polygon fill="white" stroke="black" points="1001,-165.5 1001,-184.5 1066,-184.5 1066,-165.5 1001,-165.5"/>
<text text-anchor="middle" x="1033.5" y="-172.5" font-family="Helvetica,sans-Serif" font-size="10.00">OBCT_diff</text>
</a>
</g>
</g>
<!-- Node12&#45;&gt;Node16 -->
<g id="edge18" class="edge">
<title>Node12&#45;&gt;Node16</title>
<path fill="none" stroke="midnightblue" d="M924.68,-145.9C946.33,-151.74 970.76,-158.33 990.88,-163.76"/>
<polygon fill="midnightblue" stroke="midnightblue" points="990.11,-167.18 1000.67,-166.41 991.93,-160.42 990.11,-167.18"/>
</g>
<!-- Node14 -->
<g id="node14" class="node">
<title>Node14</title>
<g id="a_node14"><a xlink:href="event__logger_8c.html#a60dac03ee61b8b3fb3ac6335babb7209" target="_top" xlink:title="イベントテーブル先頭に該当イベントの CLog をつくる">
<polygon fill="white" stroke="black" points="1138,-200.5 1138,-219.5 1278,-219.5 1278,-200.5 1138,-200.5"/>
<text text-anchor="middle" x="1208" y="-207.5" font-family="Helvetica,sans-Serif" font-size="10.00">EL_create_clog_on_front_</text>
</a>
</g>
</g>
<!-- Node13&#45;&gt;Node14 -->
<g id="edge15" class="edge">
<title>Node13&#45;&gt;Node14</title>
<path fill="none" stroke="midnightblue" d="M1077.66,-146.1C1085.82,-149.21 1094.22,-152.57 1102,-156 1129.49,-168.11 1159.92,-184.05 1180.91,-195.47"/>
<polygon fill="midnightblue" stroke="midnightblue" points="1179.4,-198.63 1189.85,-200.37 1182.76,-192.49 1179.4,-198.63"/>
</g>
<!-- Node15 -->
<g id="node15" class="node">
<title>Node15</title>
<g id="a_node15"><a xlink:href="event__logger_8c.html#a987cce8c848158cc3038bb59dc100de3" target="_top" xlink:title="該当イベントの CLog を検索し取得する">
<polygon fill="white" stroke="black" points="1160,-121.5 1160,-140.5 1256,-140.5 1256,-121.5 1160,-121.5"/>
<text text-anchor="middle" x="1208" y="-128.5" font-family="Helvetica,sans-Serif" font-size="10.00">EL_search_clog_</text>
</a>
</g>
</g>
<!-- Node13&#45;&gt;Node15 -->
<g id="edge17" class="edge">
<title>Node13&#45;&gt;Node15</title>
<path fill="none" stroke="midnightblue" d="M1093.38,-131C1111.58,-131 1131.59,-131 1149.68,-131"/>
<polygon fill="midnightblue" stroke="midnightblue" points="1149.79,-134.5 1159.79,-131 1149.79,-127.5 1149.79,-134.5"/>
</g>
<!-- Node14&#45;&gt;Node7 -->
<g id="edge16" class="edge">
<title>Node14&#45;&gt;Node7</title>
<path fill="none" stroke="midnightblue" d="M1183.42,-219.53C1118.49,-244.14 933.57,-303.1 808,-232 780.94,-216.68 795.85,-191.96 772,-172 770.01,-170.33 767.85,-168.8 765.59,-167.4"/>
<polygon fill="midnightblue" stroke="midnightblue" points="766.97,-164.17 756.5,-162.6 763.71,-170.36 766.97,-164.17"/>
</g>
<!-- Node18 -->
<g id="node18" class="node">
<title>Node18</title>
<g id="a_node18"><a xlink:href="event__logger_8c.html#af088469f27d5dfca608a9cacee9fbc17" target="_top" xlink:title="TLog のイベントテーブルの上書きが有効か？">
<polygon fill="white" stroke="black" points="975,-67 975,-97 1092,-97 1092,-67 975,-67"/>
<text text-anchor="start" x="983" y="-85" font-family="Helvetica,sans-Serif" font-size="10.00">EL_is_tlog_overwrite</text>
<text text-anchor="middle" x="1033.5" y="-74" font-family="Helvetica,sans-Serif" font-size="10.00">_enable</text>
</a>
</g>
</g>
<!-- Node17&#45;&gt;Node18 -->
<g id="edge20" class="edge">
<title>Node17&#45;&gt;Node18</title>
<path fill="none" stroke="midnightblue" d="M924.68,-82C937.56,-82 951.43,-82 964.78,-82"/>
<polygon fill="midnightblue" stroke="midnightblue" points="964.87,-85.5 974.87,-82 964.87,-78.5 964.87,-85.5"/>
</g>
</g>
</svg>
