<?xml version="1.0" encoding="UTF-8" standalone="no"?>
<!DOCTYPE svg PUBLIC "-//W3C//DTD SVG 1.1//EN"
 "http://www.w3.org/Graphics/SVG/1.1/DTD/svg11.dtd">
<!-- Generated by graphviz version 2.43.0 (0)
 -->
<!-- Title: DS_analyze_rx_buffer_variable_pickup_with_footer_ Pages: 1 -->
<svg width="481pt" height="198pt"
 viewBox="0.00 0.00 481.00 197.50" xmlns="http://www.w3.org/2000/svg" xmlns:xlink="http://www.w3.org/1999/xlink">
<g id="graph0" class="graph" transform="scale(1 1) rotate(0) translate(4 193.5)">
<title>DS_analyze_rx_buffer_variable_pickup_with_footer_</title>
<polygon fill="white" stroke="transparent" points="-4,4 -4,-193.5 477,-193.5 477,4 -4,4"/>
<!-- Node1 -->
<g id="node1" class="node">
<title>Node1</title>
<g id="a_node1"><a xlink:title="可変フレーム解析関数（バイト列処理）">
<polygon fill="#bfbfbf" stroke="black" points="0,-84.5 0,-125.5 125,-125.5 125,-84.5 0,-84.5"/>
<text text-anchor="start" x="8" y="-113.5" font-family="Helvetica,sans-Serif" font-size="10.00">DS_analyze_rx_buffer</text>
<text text-anchor="start" x="8" y="-102.5" font-family="Helvetica,sans-Serif" font-size="10.00">_variable_pickup_with</text>
<text text-anchor="middle" x="62.5" y="-91.5" font-family="Helvetica,sans-Serif" font-size="10.00">_footer_</text>
</a>
</g>
</g>
<!-- Node2 -->
<g id="node2" class="node">
<title>Node2</title>
<g id="a_node2"><a xlink:href="driver__super_8c.html#a6c2bbe1e4e010e3ce6040b771d4883f1" target="_top" xlink:title="フレーム解析関数（ヘッダ探索）">
<polygon fill="white" stroke="black" points="161,-66 161,-96 283,-96 283,-66 161,-66"/>
<text text-anchor="start" x="169" y="-84" font-family="Helvetica,sans-Serif" font-size="10.00">DS_analyze_rx_buffer</text>
<text text-anchor="middle" x="222" y="-73" font-family="Helvetica,sans-Serif" font-size="10.00">_finding_header_</text>
</a>
</g>
</g>
<!-- Node1&#45;&gt;Node2 -->
<g id="edge1" class="edge">
<title>Node1&#45;&gt;Node2</title>
<path fill="none" stroke="midnightblue" d="M125.3,-95.58C133.72,-94.3 142.42,-92.97 150.97,-91.67"/>
<polygon fill="midnightblue" stroke="midnightblue" points="151.57,-95.12 160.93,-90.15 150.52,-88.2 151.57,-95.12"/>
</g>
<!-- Node3 -->
<g id="node3" class="node">
<title>Node3</title>
<g id="a_node3"><a xlink:href="driver__super_8c.html#a5dfb2655d813064887f947696ba7a0e9" target="_top" xlink:title="DS_StreamRecBuffer で指定サイズだけバッファを確定させる">
<polygon fill="white" stroke="black" points="330,-159 330,-189 462,-189 462,-159 330,-159"/>
<text text-anchor="start" x="338" y="-177" font-family="Helvetica,sans-Serif" font-size="10.00">DS_confirm_stream_rec</text>
<text text-anchor="middle" x="396" y="-166" font-family="Helvetica,sans-Serif" font-size="10.00">_buffer_</text>
</a>
</g>
</g>
<!-- Node1&#45;&gt;Node3 -->
<g id="edge9" class="edge">
<title>Node1&#45;&gt;Node3</title>
<path fill="none" stroke="midnightblue" d="M95.56,-125.51C113.97,-136.22 137.95,-148.44 161,-155 212.77,-169.74 273.4,-174.33 319.97,-175.32"/>
<polygon fill="midnightblue" stroke="midnightblue" points="319.93,-178.82 329.98,-175.48 320.04,-171.82 319.93,-178.82"/>
</g>
<!-- Node4 -->
<g id="node4" class="node">
<title>Node4</title>
<g id="a_node4"><a xlink:href="driver__super_8c.html#a3225db9a854ffccf78baee20af7226d3" target="_top" xlink:title="DS_StreamRecBuffer の未処理バッファサイズの取得">
<polygon fill="white" stroke="black" points="331,-0.5 331,-41.5 461,-41.5 461,-0.5 331,-0.5"/>
<text text-anchor="start" x="339" y="-29.5" font-family="Helvetica,sans-Serif" font-size="10.00">DS_get_unprocessed</text>
<text text-anchor="start" x="339" y="-18.5" font-family="Helvetica,sans-Serif" font-size="10.00">_size_from_stream_rec</text>
<text text-anchor="middle" x="396" y="-7.5" font-family="Helvetica,sans-Serif" font-size="10.00">_buffer_</text>
</a>
</g>
</g>
<!-- Node1&#45;&gt;Node4 -->
<g id="edge10" class="edge">
<title>Node1&#45;&gt;Node4</title>
<path fill="none" stroke="midnightblue" d="M98.02,-84.27C116.17,-74.25 139.15,-62.93 161,-56 213.07,-39.49 274.19,-30.68 320.91,-26.04"/>
<polygon fill="midnightblue" stroke="midnightblue" points="321.33,-29.52 330.95,-25.08 320.66,-22.55 321.33,-29.52"/>
</g>
<!-- Node7 -->
<g id="node7" class="node">
<title>Node7</title>
<g id="a_node7"><a xlink:href="driver__super_8c.html#a34accc97fd7541f8de7798984806f7ad" target="_top" xlink:title="フレーム解析関数（ヘッダ受信中）">
<polygon fill="white" stroke="black" points="161,-115 161,-145 283,-145 283,-115 161,-115"/>
<text text-anchor="start" x="169" y="-133" font-family="Helvetica,sans-Serif" font-size="10.00">DS_analyze_rx_buffer</text>
<text text-anchor="middle" x="222" y="-122" font-family="Helvetica,sans-Serif" font-size="10.00">_receiving_header_</text>
</a>
</g>
</g>
<!-- Node1&#45;&gt;Node7 -->
<g id="edge6" class="edge">
<title>Node1&#45;&gt;Node7</title>
<path fill="none" stroke="midnightblue" d="M125.3,-114.81C133.72,-116.15 142.42,-117.53 150.97,-118.88"/>
<polygon fill="midnightblue" stroke="midnightblue" points="150.5,-122.35 160.93,-120.46 151.6,-115.44 150.5,-122.35"/>
</g>
<!-- Node2&#45;&gt;Node3 -->
<g id="edge2" class="edge">
<title>Node2&#45;&gt;Node3</title>
<path fill="none" stroke="midnightblue" d="M266.32,-96.08C272.18,-98.95 277.91,-102.26 283,-106 303.08,-120.77 298.37,-135.01 319,-149 321.9,-150.97 324.98,-152.79 328.15,-154.48"/>
<polygon fill="midnightblue" stroke="midnightblue" points="326.81,-157.72 337.34,-158.89 329.84,-151.41 326.81,-157.72"/>
</g>
<!-- Node2&#45;&gt;Node4 -->
<g id="edge3" class="edge">
<title>Node2&#45;&gt;Node4</title>
<path fill="none" stroke="midnightblue" d="M266.4,-65.86C284.62,-59.51 306.24,-51.96 326.51,-44.89"/>
<polygon fill="midnightblue" stroke="midnightblue" points="327.73,-48.17 336.02,-41.58 325.42,-41.56 327.73,-48.17"/>
</g>
<!-- Node5 -->
<g id="node5" class="node">
<title>Node5</title>
<g id="a_node5"><a xlink:href="driver__super_8c.html#a65f95b0b8937f57efdbb4ee05b31446e" target="_top" xlink:title="DS_StreamRecBuffer で指定サイズだけフレーム開始点を前進させる">
<polygon fill="white" stroke="black" points="319,-60.5 319,-101.5 473,-101.5 473,-60.5 319,-60.5"/>
<text text-anchor="start" x="327" y="-89.5" font-family="Helvetica,sans-Serif" font-size="10.00">DS_move_forward_frame</text>
<text text-anchor="start" x="327" y="-78.5" font-family="Helvetica,sans-Serif" font-size="10.00">_head_candidate_of_stream</text>
<text text-anchor="middle" x="396" y="-67.5" font-family="Helvetica,sans-Serif" font-size="10.00">_rec_buffer_</text>
</a>
</g>
</g>
<!-- Node2&#45;&gt;Node5 -->
<g id="edge4" class="edge">
<title>Node2&#45;&gt;Node5</title>
<path fill="none" stroke="midnightblue" d="M283.16,-81C291.44,-81 300.08,-81 308.72,-81"/>
<polygon fill="midnightblue" stroke="midnightblue" points="308.85,-84.5 318.85,-81 308.85,-77.5 308.85,-84.5"/>
</g>
<!-- Node6 -->
<g id="node6" class="node">
<title>Node6</title>
<g id="a_node6"><a xlink:href="src__core_2_library_2print_8c.html#a7365cbf5eae9bd5031842b29db13d370" target="_top" xlink:title=" ">
<polygon fill="white" stroke="black" points="374.5,-120.5 374.5,-139.5 417.5,-139.5 417.5,-120.5 374.5,-120.5"/>
<text text-anchor="middle" x="396" y="-127.5" font-family="Helvetica,sans-Serif" font-size="10.00">Printf</text>
</a>
</g>
</g>
<!-- Node2&#45;&gt;Node6 -->
<g id="edge5" class="edge">
<title>Node2&#45;&gt;Node6</title>
<path fill="none" stroke="midnightblue" d="M269.23,-96.04C284.96,-101 302.69,-106.42 319,-111 333.82,-115.16 350.38,-119.36 364.26,-122.74"/>
<polygon fill="midnightblue" stroke="midnightblue" points="363.73,-126.22 374.27,-125.16 365.37,-119.41 363.73,-126.22"/>
</g>
<!-- Node7&#45;&gt;Node3 -->
<g id="edge7" class="edge">
<title>Node7&#45;&gt;Node3</title>
<path fill="none" stroke="midnightblue" d="M281.71,-145.02C296.02,-148.68 311.46,-152.63 326.19,-156.4"/>
<polygon fill="midnightblue" stroke="midnightblue" points="325.71,-159.89 336.26,-158.97 327.44,-153.1 325.71,-159.89"/>
</g>
<!-- Node7&#45;&gt;Node6 -->
<g id="edge8" class="edge">
<title>Node7&#45;&gt;Node6</title>
<path fill="none" stroke="midnightblue" d="M283.16,-130C310.46,-130 341.6,-130 364.08,-130"/>
<polygon fill="midnightblue" stroke="midnightblue" points="364.36,-133.5 374.36,-130 364.36,-126.5 364.36,-133.5"/>
</g>
</g>
</svg>
