<?xml version="1.0" encoding="UTF-8" standalone="no"?>
<!DOCTYPE svg PUBLIC "-//W3C//DTD SVG 1.1//EN"
 "http://www.w3.org/Graphics/SVG/1.1/DTD/svg11.dtd">
<!-- Generated by graphviz version 2.43.0 (0)
 -->
<!-- Title: src/src_core/Drivers/Super/driver_super.c Pages: 1 -->
<svg width="1632pt" height="486pt"
 viewBox="0.00 0.00 1631.92 486.00" xmlns="http://www.w3.org/2000/svg" xmlns:xlink="http://www.w3.org/1999/xlink">
<g id="graph0" class="graph" transform="scale(1 1) rotate(0) translate(4 482)">
<title>src/src_core/Drivers/Super/driver_super.c</title>
<polygon fill="white" stroke="transparent" points="-4,4 -4,-482 1627.92,-482 1627.92,4 -4,4"/>
<!-- Node1 -->
<g id="node1" class="node">
<title>Node1</title>
<g id="a_node1"><a xlink:title="各制御センサ・アクチュエータ等とのインターフェースドライバ群のスーパークラス">
<polygon fill="#bfbfbf" stroke="black" points="1401.92,-447.5 1401.92,-477.5 1520.92,-477.5 1520.92,-447.5 1401.92,-447.5"/>
<text text-anchor="start" x="1409.92" y="-465.5" font-family="Helvetica,sans-Serif" font-size="10.00">src/src_core/Drivers</text>
<text text-anchor="middle" x="1461.42" y="-454.5" font-family="Helvetica,sans-Serif" font-size="10.00">/Super/driver_super.c</text>
</a>
</g>
</g>
<!-- Node2 -->
<g id="node2" class="node">
<title>Node2</title>
<g id="a_node2"><a xlink:href="driver__super_8h.html" target="_top" xlink:title="各制御センサ・アクチュエータ等とのインターフェースドライバ群のスーパークラス">
<polygon fill="white" stroke="black" points="711.42,-391.5 711.42,-410.5 797.42,-410.5 797.42,-391.5 711.42,-391.5"/>
<text text-anchor="middle" x="754.42" y="-398.5" font-family="Helvetica,sans-Serif" font-size="10.00">driver_super.h</text>
</a>
</g>
</g>
<!-- Node1&#45;&gt;Node2 -->
<g id="edge1" class="edge">
<title>Node1&#45;&gt;Node2</title>
<path fill="none" stroke="midnightblue" d="M1401.75,-456.48C1266.27,-445.08 937.16,-417.38 807.85,-406.5"/>
<polygon fill="midnightblue" stroke="midnightblue" points="808.05,-403 797.8,-405.65 807.47,-409.98 808.05,-403"/>
</g>
<!-- Node9 -->
<g id="node9" class="node">
<title>Node9</title>
<g id="a_node9"><a xlink:title=" ">
<polygon fill="white" stroke="#bfbfbf" points="1336.42,-56.5 1336.42,-75.5 1392.42,-75.5 1392.42,-56.5 1336.42,-56.5"/>
<text text-anchor="middle" x="1364.42" y="-63.5" font-family="Helvetica,sans-Serif" font-size="10.00">stddef.h</text>
</a>
</g>
</g>
<!-- Node1&#45;&gt;Node9 -->
<g id="edge34" class="edge">
<title>Node1&#45;&gt;Node9</title>
<path fill="none" stroke="midnightblue" d="M1453.52,-447.47C1441.86,-425.42 1421.42,-380.99 1421.42,-340.5 1421.42,-340.5 1421.42,-340.5 1421.42,-199 1421.42,-154.71 1394.04,-108.4 1377.23,-84.15"/>
<polygon fill="midnightblue" stroke="midnightblue" points="1379.85,-81.8 1371.18,-75.71 1374.16,-85.88 1379.85,-81.8"/>
</g>
<!-- Node22 -->
<g id="node22" class="node">
<title>Node22</title>
<g id="a_node22"><a xlink:href="print_8h.html" target="_top" xlink:title=" ">
<polygon fill="white" stroke="black" points="1449.92,-391.5 1449.92,-410.5 1552.92,-410.5 1552.92,-391.5 1449.92,-391.5"/>
<text text-anchor="middle" x="1501.42" y="-398.5" font-family="Helvetica,sans-Serif" font-size="10.00">../../Library/print.h</text>
</a>
</g>
</g>
<!-- Node1&#45;&gt;Node22 -->
<g id="edge32" class="edge">
<title>Node1&#45;&gt;Node22</title>
<path fill="none" stroke="midnightblue" d="M1470.9,-447.4C1476.59,-438.93 1483.88,-428.1 1489.9,-419.14"/>
<polygon fill="midnightblue" stroke="midnightblue" points="1492.93,-420.91 1495.6,-410.66 1487.12,-417 1492.93,-420.91"/>
</g>
<!-- Node23 -->
<g id="node23" class="node">
<title>Node23</title>
<g id="a_node23"><a xlink:title=" ">
<polygon fill="white" stroke="#bfbfbf" points="1570.92,-391.5 1570.92,-410.5 1623.92,-410.5 1623.92,-391.5 1570.92,-391.5"/>
<text text-anchor="middle" x="1597.42" y="-398.5" font-family="Helvetica,sans-Serif" font-size="10.00">string.h</text>
</a>
</g>
</g>
<!-- Node1&#45;&gt;Node23 -->
<g id="edge33" class="edge">
<title>Node1&#45;&gt;Node23</title>
<path fill="none" stroke="midnightblue" d="M1493.65,-447.4C1516.27,-437.51 1546.26,-424.38 1568.18,-414.79"/>
<polygon fill="midnightblue" stroke="midnightblue" points="1569.87,-417.87 1577.63,-410.66 1567.07,-411.46 1569.87,-417.87"/>
</g>
<!-- Node3 -->
<g id="node3" class="node">
<title>Node3</title>
<g id="a_node3"><a xlink:href="if__list_8h.html" target="_top" xlink:title=" ">
<polygon fill="white" stroke="black" points="156.42,-185 156.42,-215 264.42,-215 264.42,-185 156.42,-185"/>
<text text-anchor="start" x="164.42" y="-203" font-family="Helvetica,sans-Serif" font-size="10.00">src_user/IfWrapper</text>
<text text-anchor="middle" x="210.42" y="-192" font-family="Helvetica,sans-Serif" font-size="10.00">/if_list.h</text>
</a>
</g>
</g>
<!-- Node2&#45;&gt;Node3 -->
<g id="edge2" class="edge">
<title>Node2&#45;&gt;Node3</title>
<path fill="none" stroke="midnightblue" d="M728.95,-391.38C702.7,-382.44 660.61,-367.99 624.42,-355 490.49,-306.92 333.2,-247.63 256.78,-218.64"/>
<polygon fill="midnightblue" stroke="midnightblue" points="258.02,-215.37 247.43,-215.09 255.53,-221.91 258.02,-215.37"/>
</g>
<!-- Node5 -->
<g id="node5" class="node">
<title>Node5</title>
<g id="a_node5"><a xlink:href="stdint_8h.html" target="_top" xlink:title=" ">
<polygon fill="white" stroke="black" points="225.42,-56.5 225.42,-75.5 359.42,-75.5 359.42,-56.5 225.42,-56.5"/>
<text text-anchor="middle" x="292.42" y="-63.5" font-family="Helvetica,sans-Serif" font-size="10.00">src_user/Library/stdint.h</text>
</a>
</g>
</g>
<!-- Node2&#45;&gt;Node5 -->
<g id="edge8" class="edge">
<title>Node2&#45;&gt;Node5</title>
<path fill="none" stroke="midnightblue" d="M711.29,-397.34C551.5,-386.93 2.42,-345.9 2.42,-273.5 2.42,-273.5 2.42,-273.5 2.42,-199 2.42,-159.42 -7.26,-139.27 21.42,-112 48.64,-86.12 144.95,-75.05 215.03,-70.37"/>
<polygon fill="midnightblue" stroke="midnightblue" points="215.41,-73.85 225.17,-69.72 214.96,-66.86 215.41,-73.85"/>
</g>
<!-- Node8 -->
<g id="node8" class="node">
<title>Node8</title>
<g id="a_node8"><a xlink:href="endian__memcpy_8h.html" target="_top" xlink:title="memcpyのエンディアン対策">
<polygon fill="white" stroke="black" points="1069.42,-257.5 1069.42,-287.5 1173.42,-287.5 1173.42,-257.5 1069.42,-257.5"/>
<text text-anchor="start" x="1077.42" y="-275.5" font-family="Helvetica,sans-Serif" font-size="10.00">../../Library/endian</text>
<text text-anchor="middle" x="1121.42" y="-264.5" font-family="Helvetica,sans-Serif" font-size="10.00">_memcpy.h</text>
</a>
</g>
</g>
<!-- Node2&#45;&gt;Node8 -->
<g id="edge9" class="edge">
<title>Node2&#45;&gt;Node8</title>
<path fill="none" stroke="midnightblue" d="M759.46,-391.2C769.29,-374.96 792.66,-340.42 822.42,-324 862.1,-302.11 983.63,-286.82 1058.98,-279.16"/>
<polygon fill="midnightblue" stroke="midnightblue" points="1059.69,-282.61 1069.29,-278.13 1058.99,-275.64 1059.69,-282.61"/>
</g>
<!-- Node10 -->
<g id="node10" class="node">
<title>Node10</title>
<g id="a_node10"><a xlink:href="time__manager_8h.html" target="_top" xlink:title=" ">
<polygon fill="white" stroke="black" points="633.42,-324.5 633.42,-354.5 775.42,-354.5 775.42,-324.5 633.42,-324.5"/>
<text text-anchor="start" x="641.42" y="-342.5" font-family="Helvetica,sans-Serif" font-size="10.00">../../System/TimeManager</text>
<text text-anchor="middle" x="704.42" y="-331.5" font-family="Helvetica,sans-Serif" font-size="10.00">/time_manager.h</text>
</a>
</g>
</g>
<!-- Node2&#45;&gt;Node10 -->
<g id="edge11" class="edge">
<title>Node2&#45;&gt;Node10</title>
<path fill="none" stroke="midnightblue" d="M747.26,-391.48C740.86,-383.87 731.23,-372.4 722.71,-362.26"/>
<polygon fill="midnightblue" stroke="midnightblue" points="725.32,-359.93 716.2,-354.52 719.96,-364.43 725.32,-359.93"/>
</g>
<!-- Node21 -->
<g id="node21" class="node">
<title>Node21</title>
<g id="a_node21"><a xlink:href="driver__super__params_8h.html" target="_top" xlink:title="DriverSuperパラメタのオーバーライド用ヘッダー">
<polygon fill="white" stroke="black" points="830.92,-324.5 830.92,-354.5 989.92,-354.5 989.92,-324.5 830.92,-324.5"/>
<text text-anchor="start" x="838.92" y="-342.5" font-family="Helvetica,sans-Serif" font-size="10.00">src_user/Settings/Driver</text>
<text text-anchor="middle" x="910.42" y="-331.5" font-family="Helvetica,sans-Serif" font-size="10.00">Super/driver_super_params.h</text>
</a>
</g>
</g>
<!-- Node2&#45;&gt;Node21 -->
<g id="edge31" class="edge">
<title>Node2&#45;&gt;Node21</title>
<path fill="none" stroke="midnightblue" d="M776.77,-391.48C799.48,-382.81 835.32,-369.15 864.17,-358.14"/>
<polygon fill="midnightblue" stroke="midnightblue" points="865.56,-361.36 873.65,-354.52 863.06,-354.82 865.56,-361.36"/>
</g>
<!-- Node4 -->
<g id="node4" class="node">
<title>Node4</title>
<g id="a_node4"><a xlink:href="ccsds_8h.html" target="_top" xlink:title="CCSDS通信ラッパーのクラスです。(MOBC用 バックグラウンド取り込みVer)">
<polygon fill="white" stroke="black" points="156.42,-112.5 156.42,-142.5 264.42,-142.5 264.42,-112.5 156.42,-112.5"/>
<text text-anchor="start" x="164.42" y="-130.5" font-family="Helvetica,sans-Serif" font-size="10.00">src_core/IfWrapper</text>
<text text-anchor="middle" x="210.42" y="-119.5" font-family="Helvetica,sans-Serif" font-size="10.00">/ccsds.h</text>
</a>
</g>
</g>
<!-- Node3&#45;&gt;Node4 -->
<g id="edge3" class="edge">
<title>Node3&#45;&gt;Node4</title>
<path fill="none" stroke="midnightblue" d="M210.42,-184.73C210.42,-175.66 210.42,-163.66 210.42,-153.08"/>
<polygon fill="midnightblue" stroke="midnightblue" points="213.92,-152.75 210.42,-142.75 206.92,-152.75 213.92,-152.75"/>
</g>
<!-- Node7 -->
<g id="node7" class="node">
<title>Node7</title>
<g id="a_node7"><a xlink:href="uart_8h.html" target="_top" xlink:title="UART通信ラッパーのクラスです。">
<polygon fill="white" stroke="black" points="30.42,-112.5 30.42,-142.5 138.42,-142.5 138.42,-112.5 30.42,-112.5"/>
<text text-anchor="start" x="38.42" y="-130.5" font-family="Helvetica,sans-Serif" font-size="10.00">src_core/IfWrapper</text>
<text text-anchor="middle" x="84.42" y="-119.5" font-family="Helvetica,sans-Serif" font-size="10.00">/uart.h</text>
</a>
</g>
</g>
<!-- Node3&#45;&gt;Node7 -->
<g id="edge6" class="edge">
<title>Node3&#45;&gt;Node7</title>
<path fill="none" stroke="midnightblue" d="M185.23,-184.9C166.08,-174.19 139.55,-159.35 118.51,-147.57"/>
<polygon fill="midnightblue" stroke="midnightblue" points="120.01,-144.4 109.57,-142.57 116.59,-150.51 120.01,-144.4"/>
</g>
<!-- Node4&#45;&gt;Node5 -->
<g id="edge4" class="edge">
<title>Node4&#45;&gt;Node5</title>
<path fill="none" stroke="midnightblue" d="M229.85,-112.4C242.63,-103.13 259.31,-91.03 272.24,-81.65"/>
<polygon fill="midnightblue" stroke="midnightblue" points="274.45,-84.36 280.49,-75.66 270.34,-78.7 274.45,-84.36"/>
</g>
<!-- Node6 -->
<g id="node6" class="node">
<title>Node6</title>
<g id="a_node6"><a xlink:href="sils__define_8h.html" target="_top" xlink:title=" ">
<polygon fill="white" stroke="black" points="227.92,-0.5 227.92,-19.5 356.92,-19.5 356.92,-0.5 227.92,-0.5"/>
<text text-anchor="middle" x="292.42" y="-7.5" font-family="Helvetica,sans-Serif" font-size="10.00">../Settings/sils_define.h</text>
</a>
</g>
</g>
<!-- Node5&#45;&gt;Node6 -->
<g id="edge5" class="edge">
<title>Node5&#45;&gt;Node6</title>
<path fill="none" stroke="midnightblue" d="M292.42,-56.08C292.42,-49.01 292.42,-38.86 292.42,-29.99"/>
<polygon fill="midnightblue" stroke="midnightblue" points="295.92,-29.75 292.42,-19.75 288.92,-29.75 295.92,-29.75"/>
</g>
<!-- Node7&#45;&gt;Node5 -->
<g id="edge7" class="edge">
<title>Node7&#45;&gt;Node5</title>
<path fill="none" stroke="midnightblue" d="M133.45,-112.47C169.8,-102.08 218.74,-88.08 252.67,-78.37"/>
<polygon fill="midnightblue" stroke="midnightblue" points="254.03,-81.62 262.68,-75.51 252.11,-74.89 254.03,-81.62"/>
</g>
<!-- Node8&#45;&gt;Node9 -->
<g id="edge10" class="edge">
<title>Node8&#45;&gt;Node9</title>
<path fill="none" stroke="midnightblue" d="M1173.67,-267.78C1236.39,-262.11 1336.07,-248.89 1359.42,-221 1391.83,-182.29 1379.17,-116.95 1370.28,-85.29"/>
<polygon fill="midnightblue" stroke="midnightblue" points="1373.6,-84.16 1367.37,-75.59 1366.89,-86.17 1373.6,-84.16"/>
</g>
<!-- Node11 -->
<g id="node11" class="node">
<title>Node11</title>
<g id="a_node11"><a xlink:href="obc__time_8h.html" target="_top" xlink:title=" ">
<polygon fill="white" stroke="black" points="382.92,-190.5 382.92,-209.5 453.92,-209.5 453.92,-190.5 382.92,-190.5"/>
<text text-anchor="middle" x="418.42" y="-197.5" font-family="Helvetica,sans-Serif" font-size="10.00">obc_time.h</text>
</a>
</g>
</g>
<!-- Node10&#45;&gt;Node11 -->
<g id="edge12" class="edge">
<title>Node10&#45;&gt;Node11</title>
<path fill="none" stroke="midnightblue" d="M675.16,-324.43C619.54,-297.69 499.31,-239.89 445.46,-214"/>
<polygon fill="midnightblue" stroke="midnightblue" points="446.74,-210.73 436.21,-209.55 443.71,-217.04 446.74,-210.73"/>
</g>
<!-- Node13 -->
<g id="node13" class="node">
<title>Node13</title>
<g id="a_node13"><a xlink:href="common__tlm__cmd__packet_8h.html" target="_top" xlink:title="CTCP の宣言">
<polygon fill="white" stroke="black" points="657.42,-257.5 657.42,-287.5 779.42,-287.5 779.42,-257.5 657.42,-257.5"/>
<text text-anchor="start" x="665.42" y="-275.5" font-family="Helvetica,sans-Serif" font-size="10.00">../../CmdTlm/common</text>
<text text-anchor="middle" x="718.42" y="-264.5" font-family="Helvetica,sans-Serif" font-size="10.00">_tlm_cmd_packet.h</text>
</a>
</g>
</g>
<!-- Node10&#45;&gt;Node13 -->
<g id="edge15" class="edge">
<title>Node10&#45;&gt;Node13</title>
<path fill="none" stroke="midnightblue" d="M707.46,-324.4C709.15,-316.56 711.29,-306.6 713.24,-297.57"/>
<polygon fill="midnightblue" stroke="midnightblue" points="716.7,-298.09 715.39,-287.58 709.86,-296.62 716.7,-298.09"/>
</g>
<!-- Node11&#45;&gt;Node5 -->
<g id="edge13" class="edge">
<title>Node11&#45;&gt;Node5</title>
<path fill="none" stroke="midnightblue" d="M387.11,-190.36C362.93,-182.09 330.48,-167.22 311.42,-143 298.44,-126.5 294.2,-102.26 292.89,-85.62"/>
<polygon fill="midnightblue" stroke="midnightblue" points="296.38,-85.31 292.37,-75.5 289.38,-85.67 296.38,-85.31"/>
</g>
<!-- Node12 -->
<g id="node12" class="node">
<title>Node12</title>
<g id="a_node12"><a xlink:href="obc__time__params_8h.html" target="_top" xlink:title="OBCTのCoreパラメタのオーバーライド用ヘッダー">
<polygon fill="white" stroke="black" points="320.42,-112.5 320.42,-142.5 460.42,-142.5 460.42,-112.5 320.42,-112.5"/>
<text text-anchor="start" x="328.42" y="-130.5" font-family="Helvetica,sans-Serif" font-size="10.00">src_user/Settings/System</text>
<text text-anchor="middle" x="390.42" y="-119.5" font-family="Helvetica,sans-Serif" font-size="10.00">/obc_time_params.h</text>
</a>
</g>
</g>
<!-- Node11&#45;&gt;Node12 -->
<g id="edge14" class="edge">
<title>Node11&#45;&gt;Node12</title>
<path fill="none" stroke="midnightblue" d="M414.99,-190.36C411.22,-180.86 405,-165.21 399.77,-152.03"/>
<polygon fill="midnightblue" stroke="midnightblue" points="402.96,-150.58 396.01,-142.58 396.45,-153.16 402.96,-150.58"/>
</g>
<!-- Node13&#45;&gt;Node5 -->
<g id="edge19" class="edge">
<title>Node13&#45;&gt;Node5</title>
<path fill="none" stroke="midnightblue" d="M705.81,-257.19C698.28,-247.66 689.43,-234.45 685.42,-221 675.53,-187.77 685.94,-177.67 686.42,-143 686.61,-129.22 695.59,-122.28 686.42,-112 665.74,-88.83 478.5,-75.97 369.75,-70.39"/>
<polygon fill="midnightblue" stroke="midnightblue" points="369.64,-66.88 359.48,-69.87 369.29,-73.87 369.64,-66.88"/>
</g>
<!-- Node13&#45;&gt;Node9 -->
<g id="edge16" class="edge">
<title>Node13&#45;&gt;Node9</title>
<path fill="none" stroke="midnightblue" d="M779.56,-268.34C929.69,-260.32 1305.8,-238.57 1326.42,-221 1366.17,-187.12 1367.88,-118.93 1366.1,-85.85"/>
<polygon fill="midnightblue" stroke="midnightblue" points="1369.58,-85.45 1365.38,-75.73 1362.59,-85.95 1369.58,-85.45"/>
</g>
<!-- Node13&#45;&gt;Node11 -->
<g id="edge17" class="edge">
<title>Node13&#45;&gt;Node11</title>
<path fill="none" stroke="midnightblue" d="M657.34,-258.62C611.77,-248.82 548.04,-234.72 492.42,-221 481.44,-218.29 469.59,-215.18 458.67,-212.22"/>
<polygon fill="midnightblue" stroke="midnightblue" points="459.51,-208.83 448.95,-209.57 457.67,-215.58 459.51,-208.83"/>
</g>
<!-- Node14 -->
<g id="node14" class="node">
<title>Node14</title>
<g id="a_node14"><a xlink:href="command__definitions_8h.html" target="_top" xlink:title="コマンド定義">
<polygon fill="white" stroke="black" points="693.92,-185 693.92,-215 846.92,-215 846.92,-185 693.92,-185"/>
<text text-anchor="start" x="701.92" y="-203" font-family="Helvetica,sans-Serif" font-size="10.00">src_user/CmdTlm/command</text>
<text text-anchor="middle" x="770.42" y="-192" font-family="Helvetica,sans-Serif" font-size="10.00">_definitions.h</text>
</a>
</g>
</g>
<!-- Node13&#45;&gt;Node14 -->
<g id="edge18" class="edge">
<title>Node13&#45;&gt;Node14</title>
<path fill="none" stroke="midnightblue" d="M728.94,-257.23C736.06,-247.58 745.61,-234.63 753.76,-223.59"/>
<polygon fill="midnightblue" stroke="midnightblue" points="756.79,-225.37 759.91,-215.25 751.16,-221.22 756.79,-225.37"/>
</g>
<!-- Node15 -->
<g id="node15" class="node">
<title>Node15</title>
<g id="a_node15"><a xlink:href="app__registry_8h.html" target="_top" xlink:title=" ">
<polygon fill="white" stroke="black" points="865.42,-185 865.42,-215 985.42,-215 985.42,-185 865.42,-185"/>
<text text-anchor="start" x="873.42" y="-203" font-family="Helvetica,sans-Serif" font-size="10.00">src_user/Applications</text>
<text text-anchor="middle" x="925.42" y="-192" font-family="Helvetica,sans-Serif" font-size="10.00">/app_registry.h</text>
</a>
</g>
</g>
<!-- Node13&#45;&gt;Node15 -->
<g id="edge20" class="edge">
<title>Node13&#45;&gt;Node15</title>
<path fill="none" stroke="midnightblue" d="M759.81,-257.4C792.81,-246.16 839.18,-230.37 874.46,-218.36"/>
<polygon fill="midnightblue" stroke="midnightblue" points="875.76,-221.61 884.1,-215.07 873.51,-214.98 875.76,-221.61"/>
</g>
<!-- Node16 -->
<g id="node16" class="node">
<title>Node16</title>
<g id="a_node16"><a xlink:href="common__tlm__cmd__packet__define_8h.html" target="_top" xlink:title="CTCP型の定義">
<polygon fill="white" stroke="black" points="1169.42,-179.5 1169.42,-220.5 1317.42,-220.5 1317.42,-179.5 1169.42,-179.5"/>
<text text-anchor="start" x="1177.42" y="-208.5" font-family="Helvetica,sans-Serif" font-size="10.00">src_user/Settings/CmdTlm</text>
<text text-anchor="start" x="1177.42" y="-197.5" font-family="Helvetica,sans-Serif" font-size="10.00">/common_tlm_cmd_packet</text>
<text text-anchor="middle" x="1243.42" y="-186.5" font-family="Helvetica,sans-Serif" font-size="10.00">_define.h</text>
</a>
</g>
</g>
<!-- Node13&#45;&gt;Node16 -->
<g id="edge21" class="edge">
<title>Node13&#45;&gt;Node16</title>
<path fill="none" stroke="midnightblue" d="M779.53,-266.9C863.13,-260.09 1017.95,-245.58 1159.16,-221.12"/>
<polygon fill="midnightblue" stroke="midnightblue" points="1160.06,-224.51 1169.3,-219.34 1158.85,-217.62 1160.06,-224.51"/>
</g>
<!-- Node18 -->
<g id="node18" class="node">
<title>Node18</title>
<g id="a_node18"><a xlink:href="common__tlm__cmd__packet__params_8h.html" target="_top" xlink:title="CTCP パラメタのオーバーライド用ヘッダー">
<polygon fill="white" stroke="black" points="1003.42,-179.5 1003.42,-220.5 1151.42,-220.5 1151.42,-179.5 1003.42,-179.5"/>
<text text-anchor="start" x="1011.42" y="-208.5" font-family="Helvetica,sans-Serif" font-size="10.00">src_user/Settings/CmdTlm</text>
<text text-anchor="start" x="1011.42" y="-197.5" font-family="Helvetica,sans-Serif" font-size="10.00">/common_tlm_cmd_packet</text>
<text text-anchor="middle" x="1077.42" y="-186.5" font-family="Helvetica,sans-Serif" font-size="10.00">_params.h</text>
</a>
</g>
</g>
<!-- Node13&#45;&gt;Node18 -->
<g id="edge25" class="edge">
<title>Node13&#45;&gt;Node18</title>
<path fill="none" stroke="midnightblue" d="M779.46,-261.33C833.21,-252.15 913.85,-237.83 993.1,-221.23"/>
<polygon fill="midnightblue" stroke="midnightblue" points="994.19,-224.57 1003.26,-219.09 992.75,-217.73 994.19,-224.57"/>
</g>
<!-- Node19 -->
<g id="node19" class="node">
<title>Node19</title>
<g id="a_node19"><a xlink:href="block__command__table_8h.html" target="_top" xlink:title="BCTの定義, BCT周りの関数">
<polygon fill="white" stroke="black" points="501.42,-190.5 501.42,-209.5 637.42,-209.5 637.42,-190.5 501.42,-190.5"/>
<text text-anchor="middle" x="569.42" y="-197.5" font-family="Helvetica,sans-Serif" font-size="10.00">block_command_table.h</text>
</a>
</g>
</g>
<!-- Node13&#45;&gt;Node19 -->
<g id="edge27" class="edge">
<title>Node13&#45;&gt;Node19</title>
<path fill="none" stroke="midnightblue" d="M683.1,-257.4C654.86,-244.83 616.28,-226.56 592.02,-214.25"/>
<polygon fill="midnightblue" stroke="midnightblue" points="593.36,-211 582.87,-209.53 590.15,-217.23 593.36,-211"/>
</g>
<!-- Node17 -->
<g id="node17" class="node">
<title>Node17</title>
<g id="a_node17"><a xlink:href="_t_c_packet_8h.html" target="_top" xlink:title=" ">
<polygon fill="white" stroke="black" points="1106.92,-112.5 1106.92,-142.5 1213.92,-142.5 1213.92,-112.5 1106.92,-112.5"/>
<text text-anchor="start" x="1114.92" y="-130.5" font-family="Helvetica,sans-Serif" font-size="10.00">../../CmdTlm/Ccsds</text>
<text text-anchor="middle" x="1160.42" y="-119.5" font-family="Helvetica,sans-Serif" font-size="10.00">/TCPacket.h</text>
</a>
</g>
</g>
<!-- Node16&#45;&gt;Node17 -->
<g id="edge22" class="edge">
<title>Node16&#45;&gt;Node17</title>
<path fill="none" stroke="midnightblue" d="M1220.3,-179.36C1209.26,-169.99 1196.05,-158.76 1184.85,-149.25"/>
<polygon fill="midnightblue" stroke="midnightblue" points="1186.99,-146.48 1177.1,-142.67 1182.46,-151.81 1186.99,-146.48"/>
</g>
<!-- Node17&#45;&gt;Node5 -->
<g id="edge24" class="edge">
<title>Node17&#45;&gt;Node5</title>
<path fill="none" stroke="midnightblue" d="M1106.78,-122.82C958.56,-112.66 542.96,-84.17 369.74,-72.3"/>
<polygon fill="midnightblue" stroke="midnightblue" points="369.89,-68.8 359.68,-71.61 369.42,-75.79 369.89,-68.8"/>
</g>
<!-- Node17&#45;&gt;Node9 -->
<g id="edge23" class="edge">
<title>Node17&#45;&gt;Node9</title>
<path fill="none" stroke="midnightblue" d="M1208.51,-112.47C1244.48,-101.98 1293.02,-87.83 1326.32,-78.11"/>
<polygon fill="midnightblue" stroke="midnightblue" points="1327.52,-81.41 1336.14,-75.25 1325.56,-74.69 1327.52,-81.41"/>
</g>
<!-- Node18&#45;&gt;Node17 -->
<g id="edge26" class="edge">
<title>Node18&#45;&gt;Node17</title>
<path fill="none" stroke="midnightblue" d="M1100.54,-179.36C1111.58,-169.99 1124.79,-158.76 1136,-149.25"/>
<polygon fill="midnightblue" stroke="midnightblue" points="1138.38,-151.81 1143.74,-142.67 1133.85,-146.48 1138.38,-151.81"/>
</g>
<!-- Node19&#45;&gt;Node5 -->
<g id="edge28" class="edge">
<title>Node19&#45;&gt;Node5</title>
<path fill="none" stroke="midnightblue" d="M593.52,-190.46C631.46,-175.77 697.99,-144.18 669.42,-112 649.89,-90 474.2,-76.8 369.69,-70.82"/>
<polygon fill="midnightblue" stroke="midnightblue" points="369.68,-67.32 359.5,-70.25 369.28,-74.3 369.68,-67.32"/>
</g>
<!-- Node19&#45;&gt;Node13 -->
<g id="edge30" class="edge">
<title>Node19&#45;&gt;Node13</title>
<path fill="none" stroke="midnightblue" d="M592.05,-209.53C616.88,-220.21 656.64,-238.79 685.01,-252.83"/>
<polygon fill="midnightblue" stroke="midnightblue" points="683.64,-256.06 694.15,-257.4 686.77,-249.8 683.64,-256.06"/>
</g>
<!-- Node20 -->
<g id="node20" class="node">
<title>Node20</title>
<g id="a_node20"><a xlink:href="block__command__table__params_8h.html" target="_top" xlink:title="BCTのCoreTlmパラメタのオーバーライド用ヘッダー">
<polygon fill="white" stroke="black" points="478.92,-112.5 478.92,-142.5 659.92,-142.5 659.92,-112.5 478.92,-112.5"/>
<text text-anchor="start" x="486.92" y="-130.5" font-family="Helvetica,sans-Serif" font-size="10.00">src_user/Settings/CmdTlm</text>
<text text-anchor="middle" x="569.42" y="-119.5" font-family="Helvetica,sans-Serif" font-size="10.00">/block_command_table_params.h</text>
</a>
</g>
</g>
<!-- Node19&#45;&gt;Node20 -->
<g id="edge29" class="edge">
<title>Node19&#45;&gt;Node20</title>
<path fill="none" stroke="midnightblue" d="M569.42,-190.36C569.42,-181.05 569.42,-165.83 569.42,-152.81"/>
<polygon fill="midnightblue" stroke="midnightblue" points="572.92,-152.58 569.42,-142.58 565.92,-152.58 572.92,-152.58"/>
</g>
</g>
</svg>
