<?xml version="1.0" encoding="UTF-8" standalone="no"?>
<!DOCTYPE svg PUBLIC "-//W3C//DTD SVG 1.1//EN"
 "http://www.w3.org/Graphics/SVG/1.1/DTD/svg11.dtd">
<!-- Generated by graphviz version 2.43.0 (0)
 -->
<!-- Title: DS_send_general_cmd Pages: 1 -->
<svg width="2245pt" height="572pt"
 viewBox="0.00 0.00 2245.00 571.99" xmlns="http://www.w3.org/2000/svg" xmlns:xlink="http://www.w3.org/1999/xlink">
<g id="graph0" class="graph" transform="scale(1 1) rotate(0) translate(4 567.99)">
<title>DS_send_general_cmd</title>
<polygon fill="white" stroke="transparent" points="-4,4 -4,-567.99 2241,-567.99 2241,4 -4,4"/>
<!-- Node1 -->
<g id="node1" class="node">
<title>Node1</title>
<g id="a_node1"><a xlink:title="継承先の機器に一般コマンドを発行する">
<polygon fill="#bfbfbf" stroke="black" points="2110,-116.49 2110,-135.49 2237,-135.49 2237,-116.49 2110,-116.49"/>
<text text-anchor="middle" x="2173.5" y="-123.49" font-family="Helvetica,sans-Serif" font-size="10.00">DS_send_general_cmd</text>
</a>
</g>
</g>
<!-- Node2 -->
<g id="node2" class="node">
<title>Node2</title>
<g id="a_node2"><a xlink:href="aobc_8c.html#a21bc4dfcbc36f4c3db4c9f59cd020414" target="_top" xlink:title="AOBC へのコマンド送信">
<polygon fill="white" stroke="black" points="1974,-135.49 1974,-154.49 2073,-154.49 2073,-135.49 1974,-135.49"/>
<text text-anchor="middle" x="2023.5" y="-142.49" font-family="Helvetica,sans-Serif" font-size="10.00">AOBC_send_cmd</text>
</a>
</g>
</g>
<!-- Node1&#45;&gt;Node2 -->
<g id="edge1" class="edge">
<title>Node1&#45;&gt;Node2</title>
<path fill="none" stroke="midnightblue" d="M2099.72,-135.33C2090.81,-136.47 2081.88,-137.62 2073.44,-138.7"/>
<polygon fill="midnightblue" stroke="midnightblue" points="2100.26,-138.79 2109.73,-134.04 2099.37,-131.84 2100.26,-138.79"/>
</g>
<!-- Node50 -->
<g id="node41" class="node">
<title>Node50</title>
<g id="a_node41"><a xlink:href="gs_8c.html#a553d2d0a7400d342a82530f0008095a7" target="_top" xlink:title="地上に向けて TLM を送信. 形式は VCDU">
<polygon fill="white" stroke="black" points="1259,-506.49 1259,-525.49 1346,-525.49 1346,-506.49 1259,-506.49"/>
<text text-anchor="middle" x="1302.5" y="-513.49" font-family="Helvetica,sans-Serif" font-size="10.00">GS_send_vcdu</text>
</a>
</g>
</g>
<!-- Node1&#45;&gt;Node50 -->
<g id="edge48" class="edge">
<title>Node1&#45;&gt;Node50</title>
<path fill="none" stroke="midnightblue" d="M2160.7,-144.17C2123.43,-199.17 2002.08,-359.99 1857.5,-359.99 1857.5,-359.99 1857.5,-359.99 1658.5,-359.99 1512.08,-359.99 1358.21,-472.59 1315.24,-506.46"/>
<polygon fill="midnightblue" stroke="midnightblue" points="2163.68,-146.01 2166.31,-135.74 2157.86,-142.13 2163.68,-146.01"/>
</g>
<!-- Node55 -->
<g id="node46" class="node">
<title>Node55</title>
<g id="a_node46"><a xlink:href="i2c__common_8c.html#a9a4ac76054a67ac43ad1a995a1d5721c" target="_top" xlink:title="I2C_Config 構造体にて指定されたデバイスのレジスタへ書き込む">
<polygon fill="white" stroke="black" points="1973.5,-59.49 1973.5,-78.49 2073.5,-78.49 2073.5,-59.49 1973.5,-59.49"/>
<text text-anchor="middle" x="2023.5" y="-66.49" font-family="Helvetica,sans-Serif" font-size="10.00">I2C_write_bytes_</text>
</a>
</g>
</g>
<!-- Node1&#45;&gt;Node55 -->
<g id="edge55" class="edge">
<title>Node1&#45;&gt;Node55</title>
<path fill="none" stroke="midnightblue" d="M2138.4,-112.81C2119.44,-105.49 2095.41,-96.23 2074,-87.99 2066.01,-84.91 2057.29,-81.56 2049.43,-78.55"/>
<polygon fill="midnightblue" stroke="midnightblue" points="2137.22,-116.11 2147.81,-116.45 2139.74,-109.58 2137.22,-116.11"/>
</g>
<!-- Node58 -->
<g id="node49" class="node">
<title>Node58</title>
<g id="a_node49"><a xlink:href="uart__test_8c.html#a515fee0061a72319cf331e110b285e91" target="_top" xlink:title="UART_TESTへのコマンド送信">
<polygon fill="white" stroke="black" points="1973,-97.49 1973,-116.49 2074,-116.49 2074,-97.49 1973,-97.49"/>
<text text-anchor="middle" x="2023.5" y="-104.49" font-family="Helvetica,sans-Serif" font-size="10.00">UART_TEST_send</text>
</a>
</g>
</g>
<!-- Node1&#45;&gt;Node58 -->
<g id="edge58" class="edge">
<title>Node1&#45;&gt;Node58</title>
<path fill="none" stroke="midnightblue" d="M2099.7,-116.64C2091.12,-115.54 2082.51,-114.43 2074.35,-113.38"/>
<polygon fill="midnightblue" stroke="midnightblue" points="2099.37,-120.13 2109.73,-117.93 2100.26,-113.18 2099.37,-120.13"/>
</g>
<!-- Node3 -->
<g id="node3" class="node">
<title>Node3</title>
<g id="a_node3"><a xlink:href="di__aobc_8c.html#af6a532abc7f23de92464ed5201d374fa" target="_top" xlink:title="CommonCmdPacket を AOBC に送信する">
<polygon fill="white" stroke="black" points="1776,-135.49 1776,-154.49 1937,-154.49 1937,-135.49 1776,-135.49"/>
<text text-anchor="middle" x="1856.5" y="-142.49" font-family="Helvetica,sans-Serif" font-size="10.00">DI_AOBC_dispatch_command</text>
</a>
</g>
</g>
<!-- Node2&#45;&gt;Node3 -->
<g id="edge2" class="edge">
<title>Node2&#45;&gt;Node3</title>
<path fill="none" stroke="midnightblue" d="M1963.87,-144.99C1955.17,-144.99 1946.07,-144.99 1937.02,-144.99"/>
<polygon fill="midnightblue" stroke="midnightblue" points="1963.89,-148.49 1973.89,-144.99 1963.89,-141.49 1963.89,-148.49"/>
</g>
<!-- Node4 -->
<g id="node4" class="node">
<title>Node4</title>
<g id="a_node4"><a xlink:href="user__packet__handler_8c.html#a30e628852fd804a52dc0d6ae476a8a01" target="_top" xlink:title="PH の PH_dispatch_command のユーザー処理関数">
<polygon fill="white" stroke="black" points="1601,-135.49 1601,-154.49 1718,-154.49 1718,-135.49 1601,-135.49"/>
<text text-anchor="middle" x="1659.5" y="-142.49" font-family="Helvetica,sans-Serif" font-size="10.00">PH_user_cmd_router</text>
</a>
</g>
</g>
<!-- Node3&#45;&gt;Node4 -->
<g id="edge3" class="edge">
<title>Node3&#45;&gt;Node4</title>
<path fill="none" stroke="midnightblue" d="M1765.84,-144.99C1749.6,-144.99 1733.06,-144.99 1718.05,-144.99"/>
<polygon fill="midnightblue" stroke="midnightblue" points="1765.9,-148.49 1775.9,-144.99 1765.9,-141.49 1765.9,-148.49"/>
</g>
<!-- Node5 -->
<g id="node5" class="node">
<title>Node5</title>
<g id="a_node5"><a xlink:href="packet__handler_8c.html#aa0decb14f7fee73ca1ed3e9a10b05087" target="_top" xlink:title="CCP をコマンドとして解釈して実行，ないしは別機器へ配送する">
<polygon fill="white" stroke="black" points="1412,-135.49 1412,-154.49 1543,-154.49 1543,-135.49 1412,-135.49"/>
<text text-anchor="middle" x="1477.5" y="-142.49" font-family="Helvetica,sans-Serif" font-size="10.00">PH_dispatch_command</text>
</a>
</g>
</g>
<!-- Node4&#45;&gt;Node5 -->
<g id="edge4" class="edge">
<title>Node4&#45;&gt;Node5</title>
<path fill="none" stroke="midnightblue" d="M1590.52,-144.99C1575.01,-144.99 1558.57,-144.99 1543.2,-144.99"/>
<polygon fill="midnightblue" stroke="midnightblue" points="1590.56,-148.49 1600.56,-144.99 1590.56,-141.49 1590.56,-148.49"/>
</g>
<!-- Node6 -->
<g id="node6" class="node">
<title>Node6</title>
<g id="a_node6"><a xlink:href="block__command__executor_8c.html#a1d6498edea23a380f4ae53bb0460eab0" target="_top" xlink:title="BC をまとめて一括で実行する">
<polygon fill="white" stroke="black" points="1229.5,-75.49 1229.5,-94.49 1375.5,-94.49 1375.5,-75.49 1229.5,-75.49"/>
<text text-anchor="middle" x="1302.5" y="-82.49" font-family="Helvetica,sans-Serif" font-size="10.00">BCE_combine_block_cmd_</text>
</a>
</g>
</g>
<!-- Node5&#45;&gt;Node6 -->
<g id="edge5" class="edge">
<title>Node5&#45;&gt;Node6</title>
<path fill="none" stroke="midnightblue" d="M1445.86,-131.26C1426.15,-122.74 1399.86,-111.94 1376,-103.99 1365.63,-100.53 1354.26,-97.29 1343.66,-94.51"/>
<polygon fill="midnightblue" stroke="midnightblue" points="1444.68,-134.56 1455.24,-135.36 1447.48,-128.15 1444.68,-134.56"/>
</g>
<!-- Node14 -->
<g id="node14" class="node">
<title>Node14</title>
<g id="a_node14"><a xlink:href="block__command__executor_8c.html#acfd4781edc83a7f69a37cd5c7de290c1" target="_top" xlink:title="rotator の実行主体">
<polygon fill="white" stroke="black" points="1235.5,-37.49 1235.5,-56.49 1369.5,-56.49 1369.5,-37.49 1235.5,-37.49"/>
<text text-anchor="middle" x="1302.5" y="-44.49" font-family="Helvetica,sans-Serif" font-size="10.00">BCE_rotate_block_cmd_</text>
</a>
</g>
</g>
<!-- Node5&#45;&gt;Node14 -->
<g id="edge14" class="edge">
<title>Node5&#45;&gt;Node14</title>
<path fill="none" stroke="midnightblue" d="M1459.99,-128.44C1441.21,-110.52 1408.87,-82.32 1376,-65.99 1368.31,-62.16 1359.77,-59.05 1351.32,-56.53"/>
<polygon fill="midnightblue" stroke="midnightblue" points="1457.56,-130.96 1467.17,-135.42 1462.44,-125.94 1457.56,-130.96"/>
</g>
<!-- Node16 -->
<g id="node16" class="node">
<title>Node16</title>
<g id="a_node16"><a xlink:href="block__command__executor_8c.html#ac58bdb2e659454871477f4250903f51d" target="_top" xlink:title="BC をまとめて一括で実行する">
<polygon fill="white" stroke="black" points="1235.5,-151.99 1235.5,-181.99 1369.5,-181.99 1369.5,-151.99 1235.5,-151.99"/>
<text text-anchor="start" x="1243.5" y="-169.99" font-family="Helvetica,sans-Serif" font-size="10.00">BCE_timelimit_combine</text>
<text text-anchor="middle" x="1302.5" y="-158.99" font-family="Helvetica,sans-Serif" font-size="10.00">_block_cmd_</text>
</a>
</g>
</g>
<!-- Node5&#45;&gt;Node16 -->
<g id="edge17" class="edge">
<title>Node5&#45;&gt;Node16</title>
<path fill="none" stroke="midnightblue" d="M1401.51,-154.52C1390.91,-155.87 1380.06,-157.25 1369.64,-158.57"/>
<polygon fill="midnightblue" stroke="midnightblue" points="1402.11,-157.97 1411.59,-153.24 1401.23,-151.03 1402.11,-157.97"/>
</g>
<!-- Node18 -->
<g id="node18" class="node">
<title>Node18</title>
<g id="a_node18"><a xlink:href="common__cmd__packet__util_8c.html#a667d05b68ff9924ced9b5bf3e419e0f1" target="_top" xlink:title="BC展開 command を生成し，即時実行する">
<polygon fill="white" stroke="black" points="1229,-200.99 1229,-230.99 1376,-230.99 1376,-200.99 1229,-200.99"/>
<text text-anchor="start" x="1237" y="-218.99" font-family="Helvetica,sans-Serif" font-size="10.00">CCP_form_and_exec_block</text>
<text text-anchor="middle" x="1302.5" y="-207.99" font-family="Helvetica,sans-Serif" font-size="10.00">_deploy_cmd</text>
</a>
</g>
</g>
<!-- Node5&#45;&gt;Node18 -->
<g id="edge20" class="edge">
<title>Node5&#45;&gt;Node18</title>
<path fill="none" stroke="midnightblue" d="M1448.76,-159.03C1428.8,-168.88 1401.07,-182.01 1376,-191.99 1368.24,-195.07 1359.91,-198.09 1351.75,-200.89"/>
<polygon fill="midnightblue" stroke="midnightblue" points="1450.5,-162.08 1457.9,-154.49 1447.38,-155.81 1450.5,-162.08"/>
</g>
<!-- Node32 -->
<g id="node26" class="node">
<title>Node32</title>
<g id="a_node26"><a xlink:href="common__cmd__packet__util_8c.html#a6647f2fbe6dabb44871bd9216c315a46" target="_top" xlink:title="Realtime command を生成し，即時実行する">
<polygon fill="white" stroke="black" points="1235.5,-113.49 1235.5,-132.49 1369.5,-132.49 1369.5,-113.49 1235.5,-113.49"/>
<text text-anchor="middle" x="1302.5" y="-120.49" font-family="Helvetica,sans-Serif" font-size="10.00">CCP_form_and_exec_rtc</text>
</a>
</g>
</g>
<!-- Node5&#45;&gt;Node32 -->
<g id="edge30" class="edge">
<title>Node5&#45;&gt;Node32</title>
<path fill="none" stroke="midnightblue" d="M1401.51,-135.45C1390.91,-134.1 1380.06,-132.72 1369.64,-131.4"/>
<polygon fill="midnightblue" stroke="midnightblue" points="1401.23,-138.94 1411.59,-136.73 1402.11,-132 1401.23,-138.94"/>
</g>
<!-- Node33 -->
<g id="node27" class="node">
<title>Node33</title>
<g id="a_node27"><a xlink:href="command__dispatcher_8c.html#a90617acff33923f51c212b8e3034712c" target="_top" xlink:title="CDIS に登録されているコマンドキューからコマンドを実行">
<polygon fill="white" stroke="black" points="1232.5,-370.49 1232.5,-389.49 1372.5,-389.49 1372.5,-370.49 1232.5,-370.49"/>
<text text-anchor="middle" x="1302.5" y="-377.49" font-family="Helvetica,sans-Serif" font-size="10.00">CDIS_dispatch_command</text>
</a>
</g>
</g>
<!-- Node5&#45;&gt;Node33 -->
<g id="edge31" class="edge">
<title>Node5&#45;&gt;Node33</title>
<path fill="none" stroke="midnightblue" d="M1463.43,-162.73C1429.04,-209.45 1336.86,-334.66 1310.58,-370.36"/>
<polygon fill="midnightblue" stroke="midnightblue" points="1466.39,-164.62 1469.5,-154.49 1460.76,-160.47 1466.39,-164.62"/>
</g>
<!-- Node7 -->
<g id="node7" class="node">
<title>Node7</title>
<g id="a_node7"><a xlink:href="block__command__executor_8c.html#abb0608b32539dc732cc08efca4a451df" target="_top" xlink:title=" ">
<polygon fill="white" stroke="black" points="642.5,-75.49 642.5,-94.49 796.5,-94.49 796.5,-75.49 642.5,-75.49"/>
<text text-anchor="middle" x="719.5" y="-82.49" font-family="Helvetica,sans-Serif" font-size="10.00">Cmd_BCE_COMBINE_BLOCK</text>
</a>
</g>
</g>
<!-- Node6&#45;&gt;Node7 -->
<g id="edge6" class="edge">
<title>Node6&#45;&gt;Node7</title>
<path fill="none" stroke="midnightblue" d="M1219.1,-84.99C1106.46,-84.99 905.97,-84.99 796.68,-84.99"/>
<polygon fill="midnightblue" stroke="midnightblue" points="1219.38,-88.49 1229.38,-84.99 1219.38,-81.49 1219.38,-88.49"/>
</g>
<!-- Node8 -->
<g id="node8" class="node">
<title>Node8</title>
<g id="a_node8"><a xlink:href="command__analyze_8h.html#aa375895192b16d8e7f0ff4545b54e6c4" target="_top" xlink:title="Cmd Tableのロード">
<polygon fill="white" stroke="black" points="485,-97.49 485,-116.49 598,-116.49 598,-97.49 485,-97.49"/>
<text text-anchor="middle" x="541.5" y="-104.49" font-family="Helvetica,sans-Serif" font-size="10.00">CA_load_cmd_table</text>
</a>
</g>
</g>
<!-- Node7&#45;&gt;Node8 -->
<g id="edge7" class="edge">
<title>Node7&#45;&gt;Node8</title>
<path fill="none" stroke="midnightblue" d="M632.17,-95.78C620.59,-97.22 608.96,-98.68 598.1,-100.04"/>
<polygon fill="midnightblue" stroke="midnightblue" points="632.84,-99.22 642.33,-94.51 631.97,-92.27 632.84,-99.22"/>
</g>
<!-- Node9 -->
<g id="node9" class="node">
<title>Node9</title>
<g id="a_node9"><a xlink:href="command__analyze_8c.html#ae6d1f376bf4e1c9c4b63bc3f04924c8a" target="_top" xlink:title="CA の初期化">
<polygon fill="white" stroke="black" points="372,-135.49 372,-154.49 449,-154.49 449,-135.49 372,-135.49"/>
<text text-anchor="middle" x="410.5" y="-142.49" font-family="Helvetica,sans-Serif" font-size="10.00">CA_initialize</text>
</a>
</g>
</g>
<!-- Node8&#45;&gt;Node9 -->
<g id="edge8" class="edge">
<title>Node8&#45;&gt;Node9</title>
<path fill="none" stroke="midnightblue" d="M497.95,-119.52C480.4,-124.69 460.39,-130.58 444.04,-135.4"/>
<polygon fill="midnightblue" stroke="midnightblue" points="499.34,-122.76 507.95,-116.57 497.37,-116.04 499.34,-122.76"/>
</g>
<!-- Node10 -->
<g id="node10" class="node">
<title>Node10</title>
<g id="a_node10"><a xlink:href="c2a__core__main_8c.html#a65ecdc63d8762ffde4db7f6c6e6f07cf" target="_top" xlink:title=" ">
<polygon fill="white" stroke="black" points="253,-201.49 253,-220.49 336,-220.49 336,-201.49 253,-201.49"/>
<text text-anchor="middle" x="294.5" y="-208.49" font-family="Helvetica,sans-Serif" font-size="10.00">C2A_core_init</text>
</a>
</g>
</g>
<!-- Node9&#45;&gt;Node10 -->
<g id="edge9" class="edge">
<title>Node9&#45;&gt;Node10</title>
<path fill="none" stroke="midnightblue" d="M383.87,-159.82C361.89,-172.55 330.86,-190.51 312.02,-201.42"/>
<polygon fill="midnightblue" stroke="midnightblue" points="385.78,-162.76 392.68,-154.72 382.27,-156.7 385.78,-162.76"/>
</g>
<!-- Node13 -->
<g id="node13" class="node">
<title>Node13</title>
<g id="a_node13"><a xlink:href="command__analyze_8c.html#a85d8daea84970ad2895a0209bd350b7b" target="_top" xlink:title=" ">
<polygon fill="white" stroke="black" points="253,-116.49 253,-135.49 336,-135.49 336,-116.49 253,-116.49"/>
<text text-anchor="middle" x="294.5" y="-123.49" font-family="Helvetica,sans-Serif" font-size="10.00">Cmd_CA_INIT</text>
</a>
</g>
</g>
<!-- Node9&#45;&gt;Node13 -->
<g id="edge12" class="edge">
<title>Node9&#45;&gt;Node13</title>
<path fill="none" stroke="midnightblue" d="M361.72,-137.02C353.25,-135.61 344.5,-134.15 336.24,-132.78"/>
<polygon fill="midnightblue" stroke="midnightblue" points="361.42,-140.52 371.86,-138.71 362.57,-133.61 361.42,-140.52"/>
</g>
<!-- Node11 -->
<g id="node11" class="node">
<title>Node11</title>
<g id="a_node11"><a xlink:href="c2a__main_8c.html#a630222a80cd8bffd4426d4a55a215069" target="_top" xlink:title=" ">
<polygon fill="white" stroke="black" points="155,-201.49 155,-220.49 217,-220.49 217,-201.49 155,-201.49"/>
<text text-anchor="middle" x="186" y="-208.49" font-family="Helvetica,sans-Serif" font-size="10.00">C2A_init_</text>
</a>
</g>
</g>
<!-- Node10&#45;&gt;Node11 -->
<g id="edge10" class="edge">
<title>Node10&#45;&gt;Node11</title>
<path fill="none" stroke="midnightblue" d="M242.76,-210.99C234.01,-210.99 225.17,-210.99 217.18,-210.99"/>
<polygon fill="midnightblue" stroke="midnightblue" points="242.93,-214.49 252.93,-210.99 242.93,-207.49 242.93,-214.49"/>
</g>
<!-- Node12 -->
<g id="node12" class="node">
<title>Node12</title>
<g id="a_node12"><a xlink:href="c2a__main_8c.html#ac3344a311adda8f9e7310924bedf81fc" target="_top" xlink:title=" ">
<polygon fill="white" stroke="black" points="0,-201.49 0,-220.49 119,-220.49 119,-201.49 0,-201.49"/>
<text text-anchor="middle" x="59.5" y="-208.49" font-family="Helvetica,sans-Serif" font-size="10.00">address_fixed_main_</text>
</a>
</g>
</g>
<!-- Node11&#45;&gt;Node12 -->
<g id="edge11" class="edge">
<title>Node11&#45;&gt;Node12</title>
<path fill="none" stroke="midnightblue" d="M144.83,-210.99C136.62,-210.99 127.82,-210.99 119.12,-210.99"/>
<polygon fill="midnightblue" stroke="midnightblue" points="144.86,-214.49 154.86,-210.99 144.86,-207.49 144.86,-214.49"/>
</g>
<!-- Node13&#45;&gt;Node8 -->
<g id="edge13" class="edge">
<title>Node13&#45;&gt;Node8</title>
<path fill="none" stroke="midnightblue" d="M346.54,-122.03C386.96,-118.89 443.35,-114.52 484.91,-111.3"/>
<polygon fill="midnightblue" stroke="midnightblue" points="346.07,-118.55 336.37,-122.82 346.61,-125.53 346.07,-118.55"/>
</g>
<!-- Node15 -->
<g id="node15" class="node">
<title>Node15</title>
<g id="a_node15"><a xlink:href="block__command__executor_8c.html#adc05f3761578b7c2170e54e3f5b13c3e" target="_top" xlink:title=" ">
<polygon fill="white" stroke="black" points="647,-37.49 647,-56.49 792,-56.49 792,-37.49 647,-37.49"/>
<text text-anchor="middle" x="719.5" y="-44.49" font-family="Helvetica,sans-Serif" font-size="10.00">Cmd_BCE_ROTATE_BLOCK</text>
</a>
</g>
</g>
<!-- Node14&#45;&gt;Node15 -->
<g id="edge15" class="edge">
<title>Node14&#45;&gt;Node15</title>
<path fill="none" stroke="midnightblue" d="M1225.14,-46.99C1112.33,-46.99 902.62,-46.99 792.42,-46.99"/>
<polygon fill="midnightblue" stroke="midnightblue" points="1225.42,-50.49 1235.42,-46.99 1225.42,-43.49 1225.42,-50.49"/>
</g>
<!-- Node15&#45;&gt;Node8 -->
<g id="edge16" class="edge">
<title>Node15&#45;&gt;Node8</title>
<path fill="none" stroke="midnightblue" d="M658.69,-58.86C650.33,-60.98 641.9,-63.36 634,-65.99 607.9,-74.67 579.17,-88.25 560.99,-97.38"/>
<polygon fill="midnightblue" stroke="midnightblue" points="659.55,-62.26 668.45,-56.5 657.91,-55.45 659.55,-62.26"/>
</g>
<!-- Node17 -->
<g id="node17" class="node">
<title>Node17</title>
<g id="a_node17"><a xlink:href="block__command__executor_8c.html#aaf3687244959da89ab0bc25a86cff912" target="_top" xlink:title=" ">
<polygon fill="white" stroke="black" points="634,-113.99 634,-143.99 805,-143.99 805,-113.99 634,-113.99"/>
<text text-anchor="start" x="642" y="-131.99" font-family="Helvetica,sans-Serif" font-size="10.00">Cmd_BCE_TIMELIMIT_COMBINE</text>
<text text-anchor="middle" x="719.5" y="-120.99" font-family="Helvetica,sans-Serif" font-size="10.00">_BLOCK</text>
</a>
</g>
</g>
<!-- Node16&#45;&gt;Node17 -->
<g id="edge18" class="edge">
<title>Node16&#45;&gt;Node17</title>
<path fill="none" stroke="midnightblue" d="M1225.04,-158.81C1214.29,-157.78 1203.37,-156.81 1193,-155.99 1057.44,-145.25 899.68,-137.11 805.08,-132.7"/>
<polygon fill="midnightblue" stroke="midnightblue" points="1224.98,-162.32 1235.27,-159.8 1225.66,-155.35 1224.98,-162.32"/>
</g>
<!-- Node17&#45;&gt;Node8 -->
<g id="edge19" class="edge">
<title>Node17&#45;&gt;Node8</title>
<path fill="none" stroke="midnightblue" d="M623.88,-117.16C615.07,-116.06 606.34,-114.97 598.07,-113.93"/>
<polygon fill="midnightblue" stroke="midnightblue" points="623.49,-120.64 633.85,-118.4 624.36,-113.69 623.49,-120.64"/>
</g>
<!-- Node19 -->
<g id="node19" class="node">
<title>Node19</title>
<g id="a_node19"><a xlink:href="event__handler_8c.html#a8d7de705ac2b09f9f25644f0c9f55952" target="_top" xlink:title="EH 対応を実施">
<polygon fill="white" stroke="black" points="1075.5,-204.49 1075.5,-223.49 1155.5,-223.49 1155.5,-204.49 1075.5,-204.49"/>
<text text-anchor="middle" x="1115.5" y="-211.49" font-family="Helvetica,sans-Serif" font-size="10.00">EH_respond_</text>
</a>
</g>
</g>
<!-- Node18&#45;&gt;Node19 -->
<g id="edge21" class="edge">
<title>Node18&#45;&gt;Node19</title>
<path fill="none" stroke="midnightblue" d="M1218.86,-215.09C1196.83,-214.85 1174.04,-214.61 1155.58,-214.41"/>
<polygon fill="midnightblue" stroke="midnightblue" points="1218.88,-218.59 1228.91,-215.2 1218.95,-211.59 1218.88,-218.59"/>
</g>
<!-- Node28 -->
<g id="node22" class="node">
<title>Node28</title>
<g id="a_node22"><a xlink:href="mode__manager_8c.html#a4a483437e28116e6067d488392922a8f" target="_top" xlink:title="(モード遷移に対応する)ブロックコマンドのタイムラインへの展開を行う">
<polygon fill="white" stroke="black" points="1047.5,-165.49 1047.5,-184.49 1183.5,-184.49 1183.5,-165.49 1047.5,-165.49"/>
<text text-anchor="middle" x="1115.5" y="-172.49" font-family="Helvetica,sans-Serif" font-size="10.00">MM_deploy_block_cmd_</text>
</a>
</g>
</g>
<!-- Node18&#45;&gt;Node28 -->
<g id="edge24" class="edge">
<title>Node18&#45;&gt;Node28</title>
<path fill="none" stroke="midnightblue" d="M1223.69,-198.74C1201.76,-193.88 1178.7,-188.77 1159.61,-184.54"/>
<polygon fill="midnightblue" stroke="midnightblue" points="1223.14,-202.2 1233.66,-200.95 1224.66,-195.37 1223.14,-202.2"/>
</g>
<!-- Node20 -->
<g id="node20" class="node">
<title>Node20</title>
<g id="a_node20"><a xlink:href="event__handler_8c.html#ac7461e79109f06783e2c620a6d999a6b" target="_top" xlink:title="EH の対応条件をチェックし， EL_Event に対応する">
<polygon fill="white" stroke="black" points="841,-202.49 841,-221.49 1002,-221.49 1002,-202.49 841,-202.49"/>
<text text-anchor="middle" x="921.5" y="-209.49" font-family="Helvetica,sans-Serif" font-size="10.00">EH_check_rule_and_respond_</text>
</a>
</g>
</g>
<!-- Node19&#45;&gt;Node20 -->
<g id="edge22" class="edge">
<title>Node19&#45;&gt;Node20</title>
<path fill="none" stroke="midnightblue" d="M1064.92,-213.47C1045.8,-213.27 1023.44,-213.04 1002.19,-212.82"/>
<polygon fill="midnightblue" stroke="midnightblue" points="1065.15,-216.97 1075.18,-213.58 1065.22,-209.97 1065.15,-216.97"/>
</g>
<!-- Node21 -->
<g id="node21" class="node">
<title>Node21</title>
<g id="a_node21"><a xlink:href="event__handler_8c.html#a227ed3b7079c58dee50a81ce408549a2" target="_top" xlink:title="EL_Event に対応する EH_Rule が存在するかチェックし，対応する">
<polygon fill="white" stroke="red" points="659.5,-239.99 659.5,-269.99 779.5,-269.99 779.5,-239.99 659.5,-239.99"/>
<text text-anchor="start" x="667.5" y="-257.99" font-family="Helvetica,sans-Serif" font-size="10.00">EH_check_event_and</text>
<text text-anchor="middle" x="719.5" y="-246.99" font-family="Helvetica,sans-Serif" font-size="10.00">_respond_</text>
</a>
</g>
</g>
<!-- Node20&#45;&gt;Node21 -->
<g id="edge23" class="edge">
<title>Node20&#45;&gt;Node21</title>
<path fill="none" stroke="midnightblue" d="M866.14,-223.67C839.34,-229.43 806.97,-236.39 779.56,-242.29"/>
<polygon fill="midnightblue" stroke="midnightblue" points="867.07,-227.05 876.11,-221.53 865.6,-220.21 867.07,-227.05"/>
</g>
<!-- Node29 -->
<g id="node23" class="node">
<title>Node29</title>
<g id="a_node23"><a xlink:href="mode__manager_8c.html#ae4381c1c84d8b5d8aa033e522530436d" target="_top" xlink:title="Cmd_MM_START_TRANSITIONの実体">
<polygon fill="white" stroke="black" points="862,-164.49 862,-183.49 981,-183.49 981,-164.49 862,-164.49"/>
<text text-anchor="middle" x="921.5" y="-171.49" font-family="Helvetica,sans-Serif" font-size="10.00">MM_start_transition_</text>
</a>
</g>
</g>
<!-- Node28&#45;&gt;Node29 -->
<g id="edge25" class="edge">
<title>Node28&#45;&gt;Node29</title>
<path fill="none" stroke="midnightblue" d="M1037.12,-174.58C1018.5,-174.49 998.91,-174.38 981.3,-174.29"/>
<polygon fill="midnightblue" stroke="midnightblue" points="1037.33,-178.08 1047.35,-174.64 1037.37,-171.08 1037.33,-178.08"/>
</g>
<!-- Node30 -->
<g id="node24" class="node">
<title>Node30</title>
<g id="a_node24"><a xlink:href="mode__manager_8c.html#a4ab015aaa816ea5bb1aab8d9b5c1d114" target="_top" xlink:title="モード遷移を開始するコマンド">
<polygon fill="white" stroke="black" points="638,-163.49 638,-182.49 801,-182.49 801,-163.49 638,-163.49"/>
<text text-anchor="middle" x="719.5" y="-170.49" font-family="Helvetica,sans-Serif" font-size="10.00">Cmd_MM_START_TRANSITION</text>
</a>
</g>
</g>
<!-- Node29&#45;&gt;Node30 -->
<g id="edge26" class="edge">
<title>Node29&#45;&gt;Node30</title>
<path fill="none" stroke="midnightblue" d="M851.84,-173.64C835.49,-173.56 817.89,-173.47 801.06,-173.39"/>
<polygon fill="midnightblue" stroke="midnightblue" points="851.83,-177.14 861.84,-173.69 851.86,-170.14 851.83,-177.14"/>
</g>
<!-- Node31 -->
<g id="node25" class="node">
<title>Node31</title>
<g id="a_node25"><a xlink:href="mode__manager_8c.html#a89fbf516698fe6c690438e21ec8efd82" target="_top" xlink:title="モード遷移を管理する ModeManager 構造体 (mode_manager_) の初期化">
<polygon fill="white" stroke="black" points="500.5,-201.49 500.5,-220.49 582.5,-220.49 582.5,-201.49 500.5,-201.49"/>
<text text-anchor="middle" x="541.5" y="-208.49" font-family="Helvetica,sans-Serif" font-size="10.00">MM_initialize</text>
</a>
</g>
</g>
<!-- Node29&#45;&gt;Node31 -->
<g id="edge28" class="edge">
<title>Node29&#45;&gt;Node31</title>
<path fill="none" stroke="midnightblue" d="M855.36,-185.1C838.96,-187.63 821.36,-190.12 805,-191.99 726.46,-200.93 634.19,-206.46 582.62,-209.11"/>
<polygon fill="midnightblue" stroke="midnightblue" points="856.07,-188.53 865.4,-183.52 854.98,-181.61 856.07,-188.53"/>
</g>
<!-- Node30&#45;&gt;Node8 -->
<g id="edge27" class="edge">
<title>Node30&#45;&gt;Node8</title>
<path fill="none" stroke="midnightblue" d="M656.74,-161.02C649,-158.96 641.26,-156.62 634,-153.99 606.13,-143.88 575.93,-127.12 558.14,-116.58"/>
<polygon fill="midnightblue" stroke="midnightblue" points="655.96,-164.43 666.51,-163.47 657.67,-157.64 655.96,-164.43"/>
</g>
<!-- Node31&#45;&gt;Node10 -->
<g id="edge29" class="edge">
<title>Node31&#45;&gt;Node10</title>
<path fill="none" stroke="midnightblue" d="M490.07,-210.99C444.52,-210.99 378.34,-210.99 336.11,-210.99"/>
<polygon fill="midnightblue" stroke="midnightblue" points="490.32,-214.49 500.32,-210.99 490.32,-207.49 490.32,-214.49"/>
</g>
<!-- Node34 -->
<g id="node28" class="node">
<title>Node34</title>
<g id="a_node28"><a xlink:href="di__aobc_8c.html#ac2b0fb03e89d75b82419d4ad53202f8b" target="_top" xlink:title=" ">
<polygon fill="white" stroke="black" points="1041.5,-430.49 1041.5,-449.49 1189.5,-449.49 1189.5,-430.49 1041.5,-430.49"/>
<text text-anchor="middle" x="1115.5" y="-437.49" font-family="Helvetica,sans-Serif" font-size="10.00">DI_AOBC_cmd_dispatcher_</text>
</a>
</g>
</g>
<!-- Node33&#45;&gt;Node34 -->
<g id="edge32" class="edge">
<title>Node33&#45;&gt;Node34</title>
<path fill="none" stroke="midnightblue" d="M1268.93,-393.44C1247.57,-401.98 1218.89,-412.91 1193,-420.99 1182.03,-424.41 1170.02,-427.63 1158.83,-430.42"/>
<polygon fill="midnightblue" stroke="midnightblue" points="1270.53,-396.57 1278.49,-389.58 1267.91,-390.08 1270.53,-396.57"/>
</g>
<!-- Node36 -->
<g id="node31" class="node">
<title>Node36</title>
<g id="a_node31"><a xlink:href="gs__command__dispatcher_8c.html#a4fe4cfc8c0f816a286dc50d8797cef54" target="_top" xlink:title="GSCD App 実行関数">
<polygon fill="white" stroke="black" points="1067.5,-392.49 1067.5,-411.49 1163.5,-411.49 1163.5,-392.49 1067.5,-392.49"/>
<text text-anchor="middle" x="1115.5" y="-399.49" font-family="Helvetica,sans-Serif" font-size="10.00">GSCD_dispatch_</text>
</a>
</g>
</g>
<!-- Node33&#45;&gt;Node36 -->
<g id="edge36" class="edge">
<title>Node33&#45;&gt;Node36</title>
<path fill="none" stroke="midnightblue" d="M1222.32,-389.4C1202.34,-391.78 1181.52,-394.25 1163.69,-396.37"/>
<polygon fill="midnightblue" stroke="midnightblue" points="1222.83,-392.86 1232.35,-388.21 1222.01,-385.91 1222.83,-392.86"/>
</g>
<!-- Node38 -->
<g id="node33" class="node">
<title>Node38</title>
<g id="a_node33"><a xlink:href="realtime__command__dispatcher_8c.html#aa66b7d158969999a789dc69d2d5b1b7d" target="_top" xlink:title=" ">
<polygon fill="white" stroke="black" points="1068.5,-468.49 1068.5,-487.49 1162.5,-487.49 1162.5,-468.49 1068.5,-468.49"/>
<text text-anchor="middle" x="1115.5" y="-475.49" font-family="Helvetica,sans-Serif" font-size="10.00">RTCD_dispatch_</text>
</a>
</g>
</g>
<!-- Node33&#45;&gt;Node38 -->
<g id="edge39" class="edge">
<title>Node33&#45;&gt;Node38</title>
<path fill="none" stroke="midnightblue" d="M1283.74,-396.31C1263.32,-414.23 1228.08,-442.63 1193,-458.99 1183.57,-463.38 1173,-466.84 1162.8,-469.53"/>
<polygon fill="midnightblue" stroke="midnightblue" points="1286.17,-398.83 1291.3,-389.56 1281.51,-393.61 1286.17,-398.83"/>
</g>
<!-- Node40 -->
<g id="node35" class="node">
<title>Node40</title>
<g id="a_node35"><a xlink:href="task__dispatcher_8c.html#ac880fe6e26ecdf8711d08980cad6787d" target="_top" xlink:title="現在時刻に応じて、TaskList から Cmd を一つ実行する or TaskList を再展開する">
<polygon fill="white" stroke="black" points="1057.5,-342.99 1057.5,-372.99 1173.5,-372.99 1173.5,-342.99 1057.5,-342.99"/>
<text text-anchor="start" x="1065.5" y="-360.99" font-family="Helvetica,sans-Serif" font-size="10.00">TDSP_execute_pl_as</text>
<text text-anchor="middle" x="1115.5" y="-349.99" font-family="Helvetica,sans-Serif" font-size="10.00">_task_list</text>
</a>
</g>
</g>
<!-- Node33&#45;&gt;Node40 -->
<g id="edge42" class="edge">
<title>Node33&#45;&gt;Node40</title>
<path fill="none" stroke="midnightblue" d="M1222.29,-370.57C1205.99,-368.63 1189.13,-366.62 1173.78,-364.8"/>
<polygon fill="midnightblue" stroke="midnightblue" points="1222.01,-374.06 1232.35,-371.76 1222.83,-367.11 1222.01,-374.06"/>
</g>
<!-- Node43 -->
<g id="node37" class="node">
<title>Node43</title>
<g id="a_node37"><a xlink:href="timeline__command__dispatcher_8c.html#adc7c7ed35f5cb69bb1d8baccd0193f8d" target="_top" xlink:title="指定された lien_no の Timeline コマンドを実行する">
<polygon fill="white" stroke="black" points="1055,-291.49 1055,-310.49 1176,-310.49 1176,-291.49 1055,-291.49"/>
<text text-anchor="middle" x="1115.5" y="-298.49" font-family="Helvetica,sans-Serif" font-size="10.00">TLCD_tlc_dispatcher_</text>
</a>
</g>
</g>
<!-- Node33&#45;&gt;Node43 -->
<g id="edge44" class="edge">
<title>Node33&#45;&gt;Node43</title>
<path fill="none" stroke="midnightblue" d="M1269.79,-366.45C1232.51,-350.53 1171.58,-324.51 1138.89,-310.55"/>
<polygon fill="midnightblue" stroke="midnightblue" points="1268.61,-369.75 1279.18,-370.46 1271.36,-363.31 1268.61,-369.75"/>
</g>
<!-- Node35 -->
<g id="node29" class="node">
<title>Node35</title>
<g id="a_node29"><a xlink:href="di__aobc_8c.html#a22b846ecf2fe48c7bff4f2c10f2bc284" target="_top" xlink:title="AOBC cmd dispatcher アプリ生成関数">
<polygon fill="white" stroke="black" points="850,-430.49 850,-449.49 993,-449.49 993,-430.49 850,-430.49"/>
<text text-anchor="middle" x="921.5" y="-437.49" font-family="Helvetica,sans-Serif" font-size="10.00">DI_AOBC_cmd_dispatcher</text>
</a>
</g>
</g>
<!-- Node34&#45;&gt;Node35 -->
<g id="edge33" class="edge">
<title>Node34&#45;&gt;Node35</title>
<path fill="none" stroke="midnightblue" d="M1031.27,-439.99C1018.59,-439.99 1005.6,-439.99 993.21,-439.99"/>
<polygon fill="midnightblue" stroke="midnightblue" points="1031.37,-443.49 1041.37,-439.99 1031.37,-436.49 1031.37,-443.49"/>
</g>
<!-- Node27 -->
<g id="node30" class="node">
<title>Node27</title>
<g id="a_node30"><a xlink:href="app__registry_8c.html#ab944b1d78a41e427bc2ed57f9c4e9534" target="_top" xlink:title=" ">
<polygon fill="white" stroke="black" points="652.5,-449.49 652.5,-468.49 786.5,-468.49 786.5,-449.49 652.5,-449.49"/>
<text text-anchor="middle" x="719.5" y="-456.49" font-family="Helvetica,sans-Serif" font-size="10.00">AR_load_initial_settings</text>
</a>
</g>
</g>
<!-- Node35&#45;&gt;Node27 -->
<g id="edge34" class="edge">
<title>Node35&#45;&gt;Node27</title>
<path fill="none" stroke="midnightblue" d="M839.73,-447.66C822.11,-449.33 803.66,-451.08 786.69,-452.7"/>
<polygon fill="midnightblue" stroke="midnightblue" points="840.36,-451.11 849.99,-446.68 839.7,-444.15 840.36,-451.11"/>
</g>
<!-- Node27&#45;&gt;Node10 -->
<g id="edge35" class="edge">
<title>Node27&#45;&gt;Node10</title>
<path fill="none" stroke="midnightblue" d="M693.46,-444.3C615.26,-398.45 376.96,-258.74 312,-220.66"/>
<polygon fill="midnightblue" stroke="midnightblue" points="691.78,-447.38 702.18,-449.42 695.32,-441.34 691.78,-447.38"/>
</g>
<!-- Node37 -->
<g id="node32" class="node">
<title>Node37</title>
<g id="a_node32"><a xlink:href="gs__command__dispatcher_8c.html#a0195f703ab1a606ae7541ef886e609bc" target="_top" xlink:title="GSCD App 生成関数">
<polygon fill="white" stroke="black" points="869.5,-392.49 869.5,-411.49 973.5,-411.49 973.5,-392.49 869.5,-392.49"/>
<text text-anchor="middle" x="921.5" y="-399.49" font-family="Helvetica,sans-Serif" font-size="10.00">GSCD_create_app</text>
</a>
</g>
</g>
<!-- Node36&#45;&gt;Node37 -->
<g id="edge37" class="edge">
<title>Node36&#45;&gt;Node37</title>
<path fill="none" stroke="midnightblue" d="M1056.79,-401.99C1030.39,-401.99 999.36,-401.99 973.79,-401.99"/>
<polygon fill="midnightblue" stroke="midnightblue" points="1057.04,-405.49 1067.04,-401.99 1057.04,-398.49 1057.04,-405.49"/>
</g>
<!-- Node37&#45;&gt;Node27 -->
<g id="edge38" class="edge">
<title>Node37&#45;&gt;Node27</title>
<path fill="none" stroke="midnightblue" d="M868.46,-413.86C859.28,-416.12 849.84,-418.54 841,-420.99 809.29,-429.76 773.37,-441.3 749.06,-449.35"/>
<polygon fill="midnightblue" stroke="midnightblue" points="869.38,-417.24 878.27,-411.49 867.73,-410.44 869.38,-417.24"/>
</g>
<!-- Node39 -->
<g id="node34" class="node">
<title>Node39</title>
<g id="a_node34"><a xlink:href="realtime__command__dispatcher_8c.html#a6de82e8f79b0281c403be56abfaec6ba" target="_top" xlink:title=" ">
<polygon fill="white" stroke="black" points="871,-468.49 871,-487.49 972,-487.49 972,-468.49 871,-468.49"/>
<text text-anchor="middle" x="921.5" y="-475.49" font-family="Helvetica,sans-Serif" font-size="10.00">RTCD_create_app</text>
</a>
</g>
</g>
<!-- Node38&#45;&gt;Node39 -->
<g id="edge40" class="edge">
<title>Node38&#45;&gt;Node39</title>
<path fill="none" stroke="midnightblue" d="M1057.88,-477.99C1030.72,-477.99 998.46,-477.99 972.25,-477.99"/>
<polygon fill="midnightblue" stroke="midnightblue" points="1058.02,-481.49 1068.02,-477.99 1058.02,-474.49 1058.02,-481.49"/>
</g>
<!-- Node39&#45;&gt;Node27 -->
<g id="edge41" class="edge">
<title>Node39&#45;&gt;Node27</title>
<path fill="none" stroke="midnightblue" d="M860.69,-472.3C837.34,-470.08 810.48,-467.53 786.57,-465.26"/>
<polygon fill="midnightblue" stroke="midnightblue" points="860.52,-475.8 870.8,-473.26 861.18,-468.83 860.52,-475.8"/>
</g>
<!-- Node41 -->
<g id="node36" class="node">
<title>Node41</title>
<g id="a_node36"><a xlink:href="c2a__core__main_8c.html#a64e3c69d223ce8236ab718278b17b195" target="_top" xlink:title=" ">
<polygon fill="white" stroke="red" points="875.5,-354.49 875.5,-373.49 967.5,-373.49 967.5,-354.49 875.5,-354.49"/>
<text text-anchor="middle" x="921.5" y="-361.49" font-family="Helvetica,sans-Serif" font-size="10.00">C2A_core_main</text>
</a>
</g>
</g>
<!-- Node40&#45;&gt;Node41 -->
<g id="edge43" class="edge">
<title>Node40&#45;&gt;Node41</title>
<path fill="none" stroke="midnightblue" d="M1047.14,-360.09C1020.87,-360.91 991.46,-361.83 967.8,-362.57"/>
<polygon fill="midnightblue" stroke="midnightblue" points="1047.53,-363.58 1057.41,-359.77 1047.31,-356.58 1047.53,-363.58"/>
</g>
<!-- Node44 -->
<g id="node38" class="node">
<title>Node44</title>
<g id="a_node38"><a xlink:href="timeline__command__dispatcher_8c.html#a66b090a512984479de9b511902b08514" target="_top" xlink:title=" ">
<polygon fill="white" stroke="red" points="866.5,-316.49 866.5,-335.49 976.5,-335.49 976.5,-316.49 866.5,-316.49"/>
<text text-anchor="middle" x="921.5" y="-323.49" font-family="Helvetica,sans-Serif" font-size="10.00">TLCD_bc_dispatch_</text>
</a>
</g>
</g>
<!-- Node43&#45;&gt;Node44 -->
<g id="edge45" class="edge">
<title>Node43&#45;&gt;Node44</title>
<path fill="none" stroke="midnightblue" d="M1044.66,-310.08C1022.23,-313 997.74,-316.19 976.62,-318.94"/>
<polygon fill="midnightblue" stroke="midnightblue" points="1045.34,-313.52 1054.8,-308.76 1044.43,-306.58 1045.34,-313.52"/>
</g>
<!-- Node46 -->
<g id="node39" class="node">
<title>Node46</title>
<g id="a_node39"><a xlink:href="timeline__command__dispatcher_8c.html#a61acaaad8a32749d22fd16ee68d8522c" target="_top" xlink:title=" ">
<polygon fill="white" stroke="red" points="866.5,-278.49 866.5,-297.49 976.5,-297.49 976.5,-278.49 866.5,-278.49"/>
<text text-anchor="middle" x="921.5" y="-285.49" font-family="Helvetica,sans-Serif" font-size="10.00">TLCD_gs_dispatch_</text>
</a>
</g>
</g>
<!-- Node43&#45;&gt;Node46 -->
<g id="edge46" class="edge">
<title>Node43&#45;&gt;Node46</title>
<path fill="none" stroke="midnightblue" d="M1044.66,-296.26C1022.23,-294.74 997.74,-293.08 976.62,-291.65"/>
<polygon fill="midnightblue" stroke="midnightblue" points="1044.59,-299.76 1054.8,-296.94 1045.06,-292.78 1044.59,-299.76"/>
</g>
<!-- Node48 -->
<g id="node40" class="node">
<title>Node48</title>
<g id="a_node40"><a xlink:href="timeline__command__dispatcher_8c.html#ab6c98e6d001183d4d8b32f0c333c62d0" target="_top" xlink:title=" ">
<polygon fill="white" stroke="red" points="863.5,-240.49 863.5,-259.49 979.5,-259.49 979.5,-240.49 863.5,-240.49"/>
<text text-anchor="middle" x="921.5" y="-247.49" font-family="Helvetica,sans-Serif" font-size="10.00">TLCD_tlm_dispatch_</text>
</a>
</g>
</g>
<!-- Node43&#45;&gt;Node48 -->
<g id="edge47" class="edge">
<title>Node43&#45;&gt;Node48</title>
<path fill="none" stroke="midnightblue" d="M1072.48,-288.57C1051.39,-282.46 1025.4,-275.11 1002,-268.99 989.64,-265.75 976.15,-262.44 963.85,-259.51"/>
<polygon fill="midnightblue" stroke="midnightblue" points="1071.53,-291.94 1082.11,-291.38 1073.48,-285.22 1071.53,-291.94"/>
</g>
<!-- Node51 -->
<g id="node42" class="node">
<title>Node51</title>
<g id="a_node42"><a xlink:href="di__gs_8c.html#ab60fae9ad2c806b6ba10cb8a076d07c0" target="_top" xlink:title=" ">
<polygon fill="white" stroke="black" points="1038,-544.49 1038,-563.49 1193,-563.49 1193,-544.49 1038,-544.49"/>
<text text-anchor="middle" x="1115.5" y="-551.49" font-family="Helvetica,sans-Serif" font-size="10.00">DI_GS_mst_packet_handler_</text>
</a>
</g>
</g>
<!-- Node50&#45;&gt;Node51 -->
<g id="edge49" class="edge">
<title>Node50&#45;&gt;Node51</title>
<path fill="none" stroke="midnightblue" d="M1248.55,-526.86C1221.58,-532.4 1189.07,-539.08 1163.06,-544.42"/>
<polygon fill="midnightblue" stroke="midnightblue" points="1249.5,-530.24 1258.59,-524.8 1248.09,-523.38 1249.5,-530.24"/>
</g>
<!-- Node53 -->
<g id="node44" class="node">
<title>Node53</title>
<g id="a_node44"><a xlink:href="di__gs_8c.html#ab2b3fada377f7de06881f4654946baeb" target="_top" xlink:title=" ">
<polygon fill="white" stroke="black" points="1041,-506.49 1041,-525.49 1190,-525.49 1190,-506.49 1041,-506.49"/>
<text text-anchor="middle" x="1115.5" y="-513.49" font-family="Helvetica,sans-Serif" font-size="10.00">DI_GS_rpt_packet_handler_</text>
</a>
</g>
</g>
<!-- Node50&#45;&gt;Node53 -->
<g id="edge52" class="edge">
<title>Node50&#45;&gt;Node53</title>
<path fill="none" stroke="midnightblue" d="M1248.53,-515.99C1230.41,-515.99 1209.81,-515.99 1190.35,-515.99"/>
<polygon fill="midnightblue" stroke="midnightblue" points="1248.59,-519.49 1258.59,-515.99 1248.59,-512.49 1248.59,-519.49"/>
</g>
<!-- Node52 -->
<g id="node43" class="node">
<title>Node52</title>
<g id="a_node43"><a xlink:href="di__gs_8c.html#acdcbf3a0e68de63d2078e808e87cd0e7" target="_top" xlink:title=" ">
<polygon fill="white" stroke="black" points="847,-544.49 847,-563.49 996,-563.49 996,-544.49 847,-544.49"/>
<text text-anchor="middle" x="921.5" y="-551.49" font-family="Helvetica,sans-Serif" font-size="10.00">DI_GS_mst_packet_handler</text>
</a>
</g>
</g>
<!-- Node51&#45;&gt;Node52 -->
<g id="edge50" class="edge">
<title>Node51&#45;&gt;Node52</title>
<path fill="none" stroke="midnightblue" d="M1027.77,-553.99C1017.25,-553.99 1006.58,-553.99 996.28,-553.99"/>
<polygon fill="midnightblue" stroke="midnightblue" points="1027.79,-557.49 1037.79,-553.99 1027.79,-550.49 1027.79,-557.49"/>
</g>
<!-- Node52&#45;&gt;Node27 -->
<g id="edge51" class="edge">
<title>Node52&#45;&gt;Node27</title>
<path fill="none" stroke="midnightblue" d="M859.62,-541.63C853.24,-539.69 846.92,-537.48 841,-534.99 798.38,-517.03 753.73,-484.75 732.75,-468.66"/>
<polygon fill="midnightblue" stroke="midnightblue" points="859.08,-545.11 869.66,-544.47 860.99,-538.38 859.08,-545.11"/>
</g>
<!-- Node54 -->
<g id="node45" class="node">
<title>Node54</title>
<g id="a_node45"><a xlink:href="di__gs_8c.html#a3dbaf7df7b7ed796ff4823ca28dca18c" target="_top" xlink:title=" ">
<polygon fill="white" stroke="black" points="849.5,-506.49 849.5,-525.49 993.5,-525.49 993.5,-506.49 849.5,-506.49"/>
<text text-anchor="middle" x="921.5" y="-513.49" font-family="Helvetica,sans-Serif" font-size="10.00">DI_GS_rpt_packet_handler</text>
</a>
</g>
</g>
<!-- Node53&#45;&gt;Node54 -->
<g id="edge53" class="edge">
<title>Node53&#45;&gt;Node54</title>
<path fill="none" stroke="midnightblue" d="M1030.59,-515.99C1018.31,-515.99 1005.76,-515.99 993.77,-515.99"/>
<polygon fill="midnightblue" stroke="midnightblue" points="1030.82,-519.49 1040.82,-515.99 1030.82,-512.49 1030.82,-519.49"/>
</g>
<!-- Node54&#45;&gt;Node27 -->
<g id="edge54" class="edge">
<title>Node54&#45;&gt;Node27</title>
<path fill="none" stroke="midnightblue" d="M868.46,-504.11C859.28,-501.85 849.84,-499.43 841,-496.99 809.29,-488.21 773.37,-476.67 749.06,-468.62"/>
<polygon fill="midnightblue" stroke="midnightblue" points="867.73,-507.53 878.27,-506.48 869.38,-500.73 867.73,-507.53"/>
</g>
<!-- Node56 -->
<g id="node47" class="node">
<title>Node56</title>
<g id="a_node47"><a xlink:href="i2c__common_8c.html#a01d8acbc3ab4e554a5c49b11b80e2804" target="_top" xlink:title="I2C_Config 構造体にて指定されたデバイスのレジスタへ 2 バイトデータを書き込む">
<polygon fill="white" stroke="black" points="1806,-59.49 1806,-78.49 1907,-78.49 1907,-59.49 1806,-59.49"/>
<text text-anchor="middle" x="1856.5" y="-66.49" font-family="Helvetica,sans-Serif" font-size="10.00">I2C_write_2bytes</text>
</a>
</g>
</g>
<!-- Node55&#45;&gt;Node56 -->
<g id="edge56" class="edge">
<title>Node55&#45;&gt;Node56</title>
<path fill="none" stroke="midnightblue" d="M1963.42,-68.99C1945.02,-68.99 1924.92,-68.99 1907.23,-68.99"/>
<polygon fill="midnightblue" stroke="midnightblue" points="1963.44,-72.49 1973.44,-68.99 1963.44,-65.49 1963.44,-72.49"/>
</g>
<!-- Node57 -->
<g id="node48" class="node">
<title>Node57</title>
<g id="a_node48"><a xlink:href="i2c__common_8c.html#a3c6f28a1e63b048b078b08f9f0071710" target="_top" xlink:title="I2C_Config 構造体にて指定されたデバイスのレジスタへ 1 バイトデータを書き込む">
<polygon fill="white" stroke="black" points="1812,-21.49 1812,-40.49 1901,-40.49 1901,-21.49 1812,-21.49"/>
<text text-anchor="middle" x="1856.5" y="-28.49" font-family="Helvetica,sans-Serif" font-size="10.00">I2C_write_byte</text>
</a>
</g>
</g>
<!-- Node55&#45;&gt;Node57 -->
<g id="edge57" class="edge">
<title>Node55&#45;&gt;Node57</title>
<path fill="none" stroke="midnightblue" d="M1970.85,-57.09C1947.65,-51.75 1920.66,-45.53 1898.84,-40.51"/>
<polygon fill="midnightblue" stroke="midnightblue" points="1970.33,-60.56 1980.86,-59.4 1971.9,-53.74 1970.33,-60.56"/>
</g>
<!-- Node59 -->
<g id="node50" class="node">
<title>Node59</title>
<g id="a_node50"><a xlink:href="di__uart__test_8c.html#ab9d387e3321abf7f9c5429c412db6d7f" target="_top" xlink:title=" ">
<polygon fill="white" stroke="black" points="1579,-48.49 1579,-67.49 1740,-67.49 1740,-48.49 1579,-48.49"/>
<text text-anchor="middle" x="1659.5" y="-55.49" font-family="Helvetica,sans-Serif" font-size="10.00">Cmd_UART_TEST_SEND_TEST</text>
</a>
</g>
</g>
<!-- Node58&#45;&gt;Node59 -->
<g id="edge59" class="edge">
<title>Node58&#45;&gt;Node59</title>
<path fill="none" stroke="midnightblue" d="M1962.59,-105.33C1912.45,-103.24 1839.17,-98.54 1776,-87.99 1746.78,-83.1 1714.16,-74.31 1691.06,-67.51"/>
<polygon fill="midnightblue" stroke="midnightblue" points="1962.48,-108.83 1972.61,-105.73 1962.76,-101.84 1962.48,-108.83"/>
</g>
<!-- Node59&#45;&gt;Node8 -->
<g id="edge60" class="edge">
<title>Node59&#45;&gt;Node8</title>
<path fill="none" stroke="midnightblue" d="M1606.81,-46.32C1537.97,-31.82 1412.24,-8.99 1303.5,-8.99 1303.5,-8.99 1303.5,-8.99 920.5,-8.99 792.89,-8.99 752.07,20.44 634,-27.99 596.91,-43.2 564.23,-79.69 550.03,-97.23"/>
<polygon fill="midnightblue" stroke="midnightblue" points="1606.44,-49.82 1616.95,-48.48 1607.9,-42.97 1606.44,-49.82"/>
</g>
</g>
</svg>
