<?xml version="1.0" encoding="UTF-8" standalone="no"?>
<!DOCTYPE svg PUBLIC "-//W3C//DTD SVG 1.1//EN"
 "http://www.w3.org/Graphics/SVG/1.1/DTD/svg11.dtd">
<!-- Generated by graphviz version 2.43.0 (0)
 -->
<!-- Title: DS_receive Pages: 1 -->
<svg width="808pt" height="309pt"
 viewBox="0.00 0.00 808.00 308.51" xmlns="http://www.w3.org/2000/svg" xmlns:xlink="http://www.w3.org/1999/xlink">
<g id="graph0" class="graph" transform="scale(1 1) rotate(0) translate(4 304.51)">
<title>DS_receive</title>
<polygon fill="white" stroke="transparent" points="-4,4 -4,-304.51 804,-304.51 804,4 -4,4"/>
<!-- Node1 -->
<g id="node1" class="node">
<title>Node1</title>
<g id="a_node1"><a xlink:title="継承先の機器からテレメトリを受信する">
<polygon fill="#bfbfbf" stroke="black" points="0,-107.5 0,-126.5 71,-126.5 71,-107.5 0,-107.5"/>
<text text-anchor="middle" x="35.5" y="-114.5" font-family="Helvetica,sans-Serif" font-size="10.00">DS_receive</text>
</a>
</g>
</g>
<!-- Node2 -->
<g id="node2" class="node">
<title>Node2</title>
<g id="a_node2"><a xlink:href="driver__super_8c.html#a813429b169d4c05cce10cff391dd901c" target="_top" xlink:title="受信フレーム解析関数">
<polygon fill="white" stroke="black" points="111.5,-152.5 111.5,-171.5 239.5,-171.5 239.5,-152.5 111.5,-152.5"/>
<text text-anchor="middle" x="175.5" y="-159.5" font-family="Helvetica,sans-Serif" font-size="10.00">DS_analyze_rx_buffer_</text>
</a>
</g>
</g>
<!-- Node1&#45;&gt;Node2 -->
<g id="edge1" class="edge">
<title>Node1&#45;&gt;Node2</title>
<path fill="none" stroke="midnightblue" d="M62.5,-126.59C75.76,-131.39 92.18,-137.18 107,-142 114.85,-144.55 123.26,-147.15 131.38,-149.59"/>
<polygon fill="midnightblue" stroke="midnightblue" points="130.51,-152.98 141.09,-152.48 132.5,-146.27 130.51,-152.98"/>
</g>
<!-- Node14 -->
<g id="node14" class="node">
<title>Node14</title>
<g id="a_node14"><a xlink:href="driver__super_8c.html#a60c364a73c9e59802dd758e8ce57b3ce" target="_top" xlink:title="継承先の機器からの受信データがあるか確認し，受信する">
<polygon fill="white" stroke="black" points="475.5,-272.5 475.5,-291.5 525.5,-291.5 525.5,-272.5 475.5,-272.5"/>
<text text-anchor="middle" x="500.5" y="-279.5" font-family="Helvetica,sans-Serif" font-size="10.00">DS_rx_</text>
</a>
</g>
</g>
<!-- Node1&#45;&gt;Node14 -->
<g id="edge22" class="edge">
<title>Node1&#45;&gt;Node14</title>
<path fill="none" stroke="midnightblue" d="M44.64,-126.63C56.86,-140.5 81.25,-166.08 107,-181 226.59,-250.28 393.72,-272.71 465.05,-279.39"/>
<polygon fill="midnightblue" stroke="midnightblue" points="464.98,-282.9 475.25,-280.3 465.6,-275.93 464.98,-282.9"/>
</g>
<!-- Node15 -->
<g id="node15" class="node">
<title>Node15</title>
<g id="a_node15"><a xlink:href="driver__super_8c.html#ad1bdc8947460e5efe01f9970684d06dc" target="_top" xlink:title=" ">
<polygon fill="white" stroke="black" points="118,-102 118,-132 233,-132 233,-102 118,-102"/>
<text text-anchor="start" x="126" y="-120" font-family="Helvetica,sans-Serif" font-size="10.00">DS_validate_stream</text>
<text text-anchor="middle" x="175.5" y="-109" font-family="Helvetica,sans-Serif" font-size="10.00">_config_</text>
</a>
</g>
</g>
<!-- Node1&#45;&gt;Node15 -->
<g id="edge24" class="edge">
<title>Node1&#45;&gt;Node15</title>
<path fill="none" stroke="midnightblue" d="M71.32,-117C82.47,-117 95.22,-117 107.86,-117"/>
<polygon fill="midnightblue" stroke="midnightblue" points="107.94,-120.5 117.94,-117 107.94,-113.5 107.94,-120.5"/>
</g>
<!-- Node16 -->
<g id="node16" class="node">
<title>Node16</title>
<g id="a_node16"><a xlink:href="obc__time_8c.html#a51f2c2c48be7ec8985ec47f36bef1335" target="_top" xlink:title=" ">
<polygon fill="white" stroke="black" points="120.5,-61.5 120.5,-80.5 230.5,-80.5 230.5,-61.5 120.5,-61.5"/>
<text text-anchor="middle" x="175.5" y="-68.5" font-family="Helvetica,sans-Serif" font-size="10.00">OBCT_diff_in_msec</text>
</a>
</g>
</g>
<!-- Node1&#45;&gt;Node16 -->
<g id="edge25" class="edge">
<title>Node1&#45;&gt;Node16</title>
<path fill="none" stroke="midnightblue" d="M64.26,-107.46C77.23,-103.02 92.89,-97.7 107,-93 116.1,-89.97 125.91,-86.74 135.15,-83.73"/>
<polygon fill="midnightblue" stroke="midnightblue" points="136.48,-86.98 144.9,-80.55 134.31,-80.32 136.48,-86.98"/>
</g>
<!-- Node19 -->
<g id="node19" class="node">
<title>Node19</title>
<g id="a_node19"><a xlink:href="time__manager_8c.html#a9d04b4d9b622cbe5a90cf65e58b828bc" target="_top" xlink:title=" ">
<polygon fill="white" stroke="black" points="107,-23.5 107,-42.5 244,-42.5 244,-23.5 107,-23.5"/>
<text text-anchor="middle" x="175.5" y="-30.5" font-family="Helvetica,sans-Serif" font-size="10.00">TMGR_get_master_clock</text>
</a>
</g>
</g>
<!-- Node1&#45;&gt;Node19 -->
<g id="edge28" class="edge">
<title>Node1&#45;&gt;Node19</title>
<path fill="none" stroke="midnightblue" d="M44.53,-107.08C56.61,-92.81 80.84,-66.62 107,-52 110.99,-49.77 115.27,-47.78 119.66,-46.02"/>
<polygon fill="midnightblue" stroke="midnightblue" points="121.17,-49.19 129.38,-42.5 118.79,-42.61 121.17,-49.19"/>
</g>
<!-- Node3 -->
<g id="node3" class="node">
<title>Node3</title>
<g id="a_node3"><a xlink:href="driver__super_8c.html#a315021431cc376fea12509fd0962e0cc" target="_top" xlink:title="フレーム解析関数後のデータ繰越関数">
<polygon fill="white" stroke="black" points="280,-197 280,-227 402,-227 402,-197 280,-197"/>
<text text-anchor="start" x="288" y="-215" font-family="Helvetica,sans-Serif" font-size="10.00">DS_analyze_rx_buffer</text>
<text text-anchor="middle" x="341" y="-204" font-family="Helvetica,sans-Serif" font-size="10.00">_carry_over_buffer_</text>
</a>
</g>
</g>
<!-- Node2&#45;&gt;Node3 -->
<g id="edge2" class="edge">
<title>Node2&#45;&gt;Node3</title>
<path fill="none" stroke="midnightblue" d="M207.64,-171.52C228.33,-177.85 256.16,-186.36 280.96,-193.94"/>
<polygon fill="midnightblue" stroke="midnightblue" points="280.06,-197.33 290.65,-196.91 282.11,-190.64 280.06,-197.33"/>
</g>
<!-- Node4 -->
<g id="node4" class="node">
<title>Node4</title>
<g id="a_node4"><a xlink:href="driver__super_8c.html#adb55026a05103c4bf63d2354134864c7" target="_top" xlink:title="フレーム解析関数">
<polygon fill="white" stroke="black" points="280,-99 280,-129 402,-129 402,-99 280,-99"/>
<text text-anchor="start" x="288" y="-117" font-family="Helvetica,sans-Serif" font-size="10.00">DS_analyze_rx_buffer</text>
<text text-anchor="middle" x="341" y="-106" font-family="Helvetica,sans-Serif" font-size="10.00">_pickup_</text>
</a>
</g>
</g>
<!-- Node2&#45;&gt;Node4 -->
<g id="edge3" class="edge">
<title>Node2&#45;&gt;Node4</title>
<path fill="none" stroke="midnightblue" d="M209.19,-152.4C229.18,-146.53 255.37,-138.85 279.06,-131.89"/>
<polygon fill="midnightblue" stroke="midnightblue" points="280.08,-135.24 288.69,-129.06 278.11,-128.52 280.08,-135.24"/>
</g>
<!-- Node13 -->
<g id="node13" class="node">
<title>Node13</title>
<g id="a_node13"><a xlink:href="driver__super_8c.html#aa1808ed031c65cfd936fa3c2cc9bae66" target="_top" xlink:title="解析用受信バッファの準備">
<polygon fill="white" stroke="black" points="280,-148 280,-178 402,-178 402,-148 280,-148"/>
<text text-anchor="start" x="288" y="-166" font-family="Helvetica,sans-Serif" font-size="10.00">DS_analyze_rx_buffer</text>
<text text-anchor="middle" x="341" y="-155" font-family="Helvetica,sans-Serif" font-size="10.00">_prepare_buffer_</text>
</a>
</g>
</g>
<!-- Node2&#45;&gt;Node13 -->
<g id="edge21" class="edge">
<title>Node2&#45;&gt;Node13</title>
<path fill="none" stroke="midnightblue" d="M239.71,-162.39C249.52,-162.45 259.7,-162.51 269.65,-162.57"/>
<polygon fill="midnightblue" stroke="midnightblue" points="269.89,-166.07 279.91,-162.63 269.93,-159.07 269.89,-166.07"/>
</g>
<!-- Node5 -->
<g id="node5" class="node">
<title>Node5</title>
<g id="a_node5"><a xlink:href="driver__super_8c.html#a307c2f714ae48261cd20926db4add15c" target="_top" xlink:title="固定長フレーム解析関数（バイト列処理）">
<polygon fill="white" stroke="black" points="439.5,-99 439.5,-129 561.5,-129 561.5,-99 439.5,-99"/>
<text text-anchor="start" x="447.5" y="-117" font-family="Helvetica,sans-Serif" font-size="10.00">DS_analyze_rx_buffer</text>
<text text-anchor="middle" x="500.5" y="-106" font-family="Helvetica,sans-Serif" font-size="10.00">_fixed_pickup_</text>
</a>
</g>
</g>
<!-- Node4&#45;&gt;Node5 -->
<g id="edge4" class="edge">
<title>Node4&#45;&gt;Node5</title>
<path fill="none" stroke="midnightblue" d="M402.44,-114C411.27,-114 420.42,-114 429.41,-114"/>
<polygon fill="midnightblue" stroke="midnightblue" points="429.48,-117.5 439.48,-114 429.48,-110.5 429.48,-117.5"/>
</g>
<!-- Node10 -->
<g id="node10" class="node">
<title>Node10</title>
<g id="a_node10"><a xlink:href="driver__super_8c.html#aba44a396fa200beaf48099d2f50bfb12" target="_top" xlink:title="可変フレーム解析関数（バイト列処理）">
<polygon fill="white" stroke="black" points="438,-38.5 438,-79.5 563,-79.5 563,-38.5 438,-38.5"/>
<text text-anchor="start" x="446" y="-67.5" font-family="Helvetica,sans-Serif" font-size="10.00">DS_analyze_rx_buffer</text>
<text text-anchor="start" x="446" y="-56.5" font-family="Helvetica,sans-Serif" font-size="10.00">_variable_pickup_with</text>
<text text-anchor="middle" x="500.5" y="-45.5" font-family="Helvetica,sans-Serif" font-size="10.00">_footer_</text>
</a>
</g>
</g>
<!-- Node4&#45;&gt;Node10 -->
<g id="edge11" class="edge">
<title>Node4&#45;&gt;Node10</title>
<path fill="none" stroke="midnightblue" d="M385.04,-98.97C399.22,-94.02 415.36,-88.38 430.95,-82.94"/>
<polygon fill="midnightblue" stroke="midnightblue" points="432.29,-86.18 440.57,-79.58 429.98,-79.57 432.29,-86.18"/>
</g>
<!-- Node11 -->
<g id="node11" class="node">
<title>Node11</title>
<g id="a_node11"><a xlink:href="driver__super_8c.html#ae3822bd6031c1023b5eac98cc3bf8e57" target="_top" xlink:title="可変フレーム解析関数（バイト列処理）">
<polygon fill="white" stroke="black" points="438,-148.5 438,-189.5 563,-189.5 563,-148.5 438,-148.5"/>
<text text-anchor="start" x="446" y="-177.5" font-family="Helvetica,sans-Serif" font-size="10.00">DS_analyze_rx_buffer</text>
<text text-anchor="start" x="446" y="-166.5" font-family="Helvetica,sans-Serif" font-size="10.00">_variable_pickup_with</text>
<text text-anchor="middle" x="500.5" y="-155.5" font-family="Helvetica,sans-Serif" font-size="10.00">_rx_frame_size_</text>
</a>
</g>
</g>
<!-- Node4&#45;&gt;Node11 -->
<g id="edge15" class="edge">
<title>Node4&#45;&gt;Node11</title>
<path fill="none" stroke="midnightblue" d="M385.04,-129.03C399.22,-133.98 415.36,-139.62 430.95,-145.06"/>
<polygon fill="midnightblue" stroke="midnightblue" points="429.98,-148.43 440.57,-148.42 432.29,-141.82 429.98,-148.43"/>
</g>
<!-- Node6 -->
<g id="node6" class="node">
<title>Node6</title>
<g id="a_node6"><a xlink:href="driver__super_8c.html#af3cb3191ff23514897baa564e95fee12" target="_top" xlink:title="フレーム解析関数（ヘッダ探索）">
<polygon fill="white" stroke="black" points="599,-47 599,-77 721,-77 721,-47 599,-47"/>
<text text-anchor="start" x="607" y="-65" font-family="Helvetica,sans-Serif" font-size="10.00">DS_analyze_rx_buffer</text>
<text text-anchor="middle" x="660" y="-54" font-family="Helvetica,sans-Serif" font-size="10.00">_finding_header_</text>
</a>
</g>
</g>
<!-- Node5&#45;&gt;Node6 -->
<g id="edge5" class="edge">
<title>Node5&#45;&gt;Node6</title>
<path fill="none" stroke="midnightblue" d="M547.06,-98.96C564.85,-93.08 585.41,-86.3 604.02,-80.15"/>
<polygon fill="midnightblue" stroke="midnightblue" points="605.15,-83.47 613.55,-77.01 602.95,-76.82 605.15,-83.47"/>
</g>
<!-- Node8 -->
<g id="node8" class="node">
<title>Node8</title>
<g id="a_node8"><a xlink:href="driver__super_8c.html#ac03ce9459ce22d22218665a0a14c3b79" target="_top" xlink:title="フレーム解析関数（フッタ受信中）">
<polygon fill="white" stroke="black" points="599,-145 599,-175 721,-175 721,-145 599,-145"/>
<text text-anchor="start" x="607" y="-163" font-family="Helvetica,sans-Serif" font-size="10.00">DS_analyze_rx_buffer</text>
<text text-anchor="middle" x="660" y="-152" font-family="Helvetica,sans-Serif" font-size="10.00">_receiving_footer_</text>
</a>
</g>
</g>
<!-- Node5&#45;&gt;Node8 -->
<g id="edge7" class="edge">
<title>Node5&#45;&gt;Node8</title>
<path fill="none" stroke="midnightblue" d="M553.07,-129.06C567.42,-133.25 583.15,-137.85 597.98,-142.18"/>
<polygon fill="midnightblue" stroke="midnightblue" points="597,-145.54 607.58,-144.98 598.96,-138.82 597,-145.54"/>
</g>
<!-- Node9 -->
<g id="node9" class="node">
<title>Node9</title>
<g id="a_node9"><a xlink:href="driver__super_8c.html#a3d6d6c60302ac1a8f96666f4fed34f7d" target="_top" xlink:title="フレーム解析関数（ヘッダ受信中）">
<polygon fill="white" stroke="black" points="599,-96 599,-126 721,-126 721,-96 599,-96"/>
<text text-anchor="start" x="607" y="-114" font-family="Helvetica,sans-Serif" font-size="10.00">DS_analyze_rx_buffer</text>
<text text-anchor="middle" x="660" y="-103" font-family="Helvetica,sans-Serif" font-size="10.00">_receiving_header_</text>
</a>
</g>
</g>
<!-- Node5&#45;&gt;Node9 -->
<g id="edge9" class="edge">
<title>Node5&#45;&gt;Node9</title>
<path fill="none" stroke="midnightblue" d="M561.94,-112.85C570.77,-112.68 579.92,-112.51 588.91,-112.34"/>
<polygon fill="midnightblue" stroke="midnightblue" points="589.05,-115.83 598.98,-112.14 588.91,-108.83 589.05,-115.83"/>
</g>
<!-- Node7 -->
<g id="node7" class="node">
<title>Node7</title>
<g id="a_node7"><a xlink:href="src__core_2_library_2print_8c.html#a4bc499fc724de87725ee7dc60ed1d106" target="_top" xlink:title=" ">
<polygon fill="white" stroke="black" points="757,-125.5 757,-144.5 800,-144.5 800,-125.5 757,-125.5"/>
<text text-anchor="middle" x="778.5" y="-132.5" font-family="Helvetica,sans-Serif" font-size="10.00">Printf</text>
</a>
</g>
</g>
<!-- Node6&#45;&gt;Node7 -->
<g id="edge6" class="edge">
<title>Node6&#45;&gt;Node7</title>
<path fill="none" stroke="midnightblue" d="M701.87,-77.02C708.44,-80 715.03,-83.35 721,-87 735.34,-95.79 749.77,-108.11 760.45,-118.07"/>
<polygon fill="midnightblue" stroke="midnightblue" points="758.18,-120.74 767.83,-125.13 763.02,-115.69 758.18,-120.74"/>
</g>
<!-- Node8&#45;&gt;Node7 -->
<g id="edge8" class="edge">
<title>Node8&#45;&gt;Node7</title>
<path fill="none" stroke="midnightblue" d="M721.3,-147.06C730.18,-145.16 738.99,-143.26 746.92,-141.56"/>
<polygon fill="midnightblue" stroke="midnightblue" points="747.71,-144.97 756.75,-139.45 746.24,-138.13 747.71,-144.97"/>
</g>
<!-- Node9&#45;&gt;Node7 -->
<g id="edge10" class="edge">
<title>Node9&#45;&gt;Node7</title>
<path fill="none" stroke="midnightblue" d="M721.3,-123.42C730.18,-125.25 738.99,-127.07 746.92,-128.7"/>
<polygon fill="midnightblue" stroke="midnightblue" points="746.25,-132.14 756.75,-130.73 747.67,-125.28 746.25,-132.14"/>
</g>
<!-- Node10&#45;&gt;Node6 -->
<g id="edge12" class="edge">
<title>Node10&#45;&gt;Node6</title>
<path fill="none" stroke="midnightblue" d="M563.3,-60.18C571.63,-60.34 580.23,-60.5 588.69,-60.66"/>
<polygon fill="midnightblue" stroke="midnightblue" points="588.86,-64.16 598.93,-60.86 589,-57.17 588.86,-64.16"/>
</g>
<!-- Node10&#45;&gt;Node7 -->
<g id="edge14" class="edge">
<title>Node10&#45;&gt;Node7</title>
<path fill="none" stroke="midnightblue" d="M551.66,-38.42C598.59,-22.64 669.06,-8.14 721,-38 749.88,-54.6 765.38,-92.28 772.5,-115.48"/>
<polygon fill="midnightblue" stroke="midnightblue" points="769.18,-116.61 775.27,-125.28 775.91,-114.71 769.18,-116.61"/>
</g>
<!-- Node10&#45;&gt;Node9 -->
<g id="edge13" class="edge">
<title>Node10&#45;&gt;Node9</title>
<path fill="none" stroke="midnightblue" d="M563.3,-79.4C576.62,-83.8 590.62,-88.42 603.68,-92.74"/>
<polygon fill="midnightblue" stroke="midnightblue" points="602.86,-96.15 613.45,-95.96 605.05,-89.5 602.86,-96.15"/>
</g>
<!-- Node11&#45;&gt;Node6 -->
<g id="edge16" class="edge">
<title>Node11&#45;&gt;Node6</title>
<path fill="none" stroke="midnightblue" d="M550.02,-148.36C554.62,-145.53 559.03,-142.41 563,-139 584.33,-120.69 577.14,-104.68 599,-87 601.03,-85.35 603.19,-83.8 605.44,-82.34"/>
<polygon fill="midnightblue" stroke="midnightblue" points="607.52,-85.17 614.42,-77.13 604.02,-79.12 607.52,-85.17"/>
</g>
<!-- Node11&#45;&gt;Node7 -->
<g id="edge20" class="edge">
<title>Node11&#45;&gt;Node7</title>
<path fill="none" stroke="midnightblue" d="M563.13,-187.13C608.28,-197.2 670.26,-204.23 721,-185 738.15,-178.5 753.44,-164.15 763.78,-152.49"/>
<polygon fill="midnightblue" stroke="midnightblue" points="766.63,-154.53 770.38,-144.62 761.27,-150.03 766.63,-154.53"/>
</g>
<!-- Node11&#45;&gt;Node8 -->
<g id="edge18" class="edge">
<title>Node11&#45;&gt;Node8</title>
<path fill="none" stroke="midnightblue" d="M563.3,-165.47C571.63,-164.99 580.23,-164.5 588.69,-164.02"/>
<polygon fill="midnightblue" stroke="midnightblue" points="589.15,-167.5 598.93,-163.43 588.75,-160.51 589.15,-167.5"/>
</g>
<!-- Node11&#45;&gt;Node9 -->
<g id="edge19" class="edge">
<title>Node11&#45;&gt;Node9</title>
<path fill="none" stroke="midnightblue" d="M557.47,-148.39C574.02,-142.29 592.04,-135.66 608.24,-129.69"/>
<polygon fill="midnightblue" stroke="midnightblue" points="609.88,-132.82 618.06,-126.08 607.47,-126.25 609.88,-132.82"/>
</g>
<!-- Node12 -->
<g id="node12" class="node">
<title>Node12</title>
<g id="a_node12"><a xlink:href="driver__super_8c.html#afd6a7ce3042412d75d326aa44a140d7c" target="_top" xlink:title="フレーム解析中に受信したフレームからフレーム長を取得する関数">
<polygon fill="white" stroke="black" points="599,-233 599,-263 721,-263 721,-233 599,-233"/>
<text text-anchor="start" x="607" y="-251" font-family="Helvetica,sans-Serif" font-size="10.00">DS_analyze_rx_buffer</text>
<text text-anchor="middle" x="660" y="-240" font-family="Helvetica,sans-Serif" font-size="10.00">_get_framelength_</text>
</a>
</g>
</g>
<!-- Node11&#45;&gt;Node12 -->
<g id="edge17" class="edge">
<title>Node11&#45;&gt;Node12</title>
<path fill="none" stroke="midnightblue" d="M542.29,-189.52C559.75,-198.3 580.37,-208.66 599,-218 605.66,-221.34 612.73,-224.88 619.6,-228.31"/>
<polygon fill="midnightblue" stroke="midnightblue" points="618.27,-231.56 628.78,-232.9 621.4,-225.3 618.27,-231.56"/>
</g>
<!-- Node14&#45;&gt;Node7 -->
<g id="edge23" class="edge">
<title>Node14&#45;&gt;Node7</title>
<path fill="none" stroke="midnightblue" d="M525.57,-288.73C569.01,-299.33 661.51,-314.72 721,-273 760.08,-245.6 772.17,-186.09 775.88,-154.93"/>
<polygon fill="midnightblue" stroke="midnightblue" points="779.38,-155.15 776.9,-144.85 772.41,-154.45 779.38,-155.15"/>
</g>
<!-- Node17 -->
<g id="node17" class="node">
<title>Node17</title>
<g id="a_node17"><a xlink:href="obc__time_8c.html#a3adce1b790eb67e1eff3cb1e79fc197f" target="_top" xlink:title=" ">
<polygon fill="white" stroke="black" points="288.5,-60.5 288.5,-79.5 393.5,-79.5 393.5,-60.5 288.5,-60.5"/>
<text text-anchor="middle" x="341" y="-67.5" font-family="Helvetica,sans-Serif" font-size="10.00">OBCT_diff_in_step</text>
</a>
</g>
</g>
<!-- Node16&#45;&gt;Node17 -->
<g id="edge26" class="edge">
<title>Node16&#45;&gt;Node17</title>
<path fill="none" stroke="midnightblue" d="M230.94,-70.67C246.11,-70.57 262.69,-70.47 278.24,-70.38"/>
<polygon fill="midnightblue" stroke="midnightblue" points="278.31,-73.88 288.29,-70.32 278.27,-66.88 278.31,-73.88"/>
</g>
<!-- Node18 -->
<g id="node18" class="node">
<title>Node18</title>
<g id="a_node18"><a xlink:href="obc__time_8c.html#a02512f745375636ab21f468838587942" target="_top" xlink:title=" ">
<polygon fill="white" stroke="black" points="468,-0.5 468,-19.5 533,-19.5 533,-0.5 468,-0.5"/>
<text text-anchor="middle" x="500.5" y="-7.5" font-family="Helvetica,sans-Serif" font-size="10.00">OBCT_diff</text>
</a>
</g>
</g>
<!-- Node17&#45;&gt;Node18 -->
<g id="edge27" class="edge">
<title>Node17&#45;&gt;Node18</title>
<path fill="none" stroke="midnightblue" d="M377.12,-60.45C385.42,-57.76 394.15,-54.58 402,-51 419.06,-43.22 420.91,-36.72 438,-29 444.36,-26.13 451.29,-23.52 458.11,-21.23"/>
<polygon fill="midnightblue" stroke="midnightblue" points="459.5,-24.46 467.97,-18.1 457.38,-17.79 459.5,-24.46"/>
</g>
<!-- Node20 -->
<g id="node20" class="node">
<title>Node20</title>
<g id="a_node20"><a xlink:href="obc__time_8c.html#a70416835a40bdacbb04f6f06b1e6d1e1" target="_top" xlink:title=" ">
<polygon fill="white" stroke="black" points="301,-22.5 301,-41.5 381,-41.5 381,-22.5 301,-22.5"/>
<text text-anchor="middle" x="341" y="-29.5" font-family="Helvetica,sans-Serif" font-size="10.00">OBCT_create</text>
</a>
</g>
</g>
<!-- Node19&#45;&gt;Node20 -->
<g id="edge29" class="edge">
<title>Node19&#45;&gt;Node20</title>
<path fill="none" stroke="midnightblue" d="M244.42,-32.58C259.81,-32.49 275.87,-32.39 290.34,-32.3"/>
<polygon fill="midnightblue" stroke="midnightblue" points="290.59,-35.8 300.57,-32.24 290.54,-28.8 290.59,-35.8"/>
</g>
</g>
</svg>
