<?xml version="1.0" encoding="UTF-8" standalone="no"?>
<!DOCTYPE svg PUBLIC "-//W3C//DTD SVG 1.1//EN"
 "http://www.w3.org/Graphics/SVG/1.1/DTD/svg11.dtd">
<!-- Generated by graphviz version 2.43.0 (0)
 -->
<!-- Title: DS_C2AFMT_get_ctp Pages: 1 -->
<svg width="1314pt" height="165pt"
 viewBox="0.00 0.00 1314.00 164.50" xmlns="http://www.w3.org/2000/svg" xmlns:xlink="http://www.w3.org/1999/xlink">
<g id="graph0" class="graph" transform="scale(1 1) rotate(0) translate(4 160.5)">
<title>DS_C2AFMT_get_ctp</title>
<polygon fill="white" stroke="transparent" points="-4,4 -4,-160.5 1310,-160.5 1310,4 -4,4"/>
<!-- Node1 -->
<g id="node1" class="node">
<title>Node1</title>
<g id="a_node1"><a xlink:title="CommonTlmPacket を受信データからコピーして取得する">
<polygon fill="#bfbfbf" stroke="black" points="0,-77 0,-96 117,-96 117,-77 0,-77"/>
<text text-anchor="middle" x="58.5" y="-84" font-family="Helvetica,sans-Serif" font-size="10.00">DS_C2AFMT_get_ctp</text>
</a>
</g>
</g>
<!-- Node2 -->
<g id="node2" class="node">
<title>Node2</title>
<g id="a_node2"><a xlink:href="common__tlm__packet_8h.html#ab9f04fbc9871d8fe2639cd46679e33c9" target="_top" xlink:title="パケット長を取得">
<polygon fill="white" stroke="black" points="312,-137 312,-156 426,-156 426,-137 312,-137"/>
<text text-anchor="middle" x="369" y="-144" font-family="Helvetica,sans-Serif" font-size="10.00">CTP_get_packet_len</text>
</a>
</g>
</g>
<!-- Node1&#45;&gt;Node2 -->
<g id="edge1" class="edge">
<title>Node1&#45;&gt;Node2</title>
<path fill="none" stroke="midnightblue" d="M76.81,-96.14C95.13,-105.85 125.18,-120.38 153,-127.5 201.9,-140.02 258.86,-144.63 301.87,-146.18"/>
<polygon fill="midnightblue" stroke="midnightblue" points="301.82,-149.68 311.93,-146.5 302.05,-142.68 301.82,-149.68"/>
</g>
<!-- Node9 -->
<g id="node9" class="node">
<title>Node9</title>
<g id="a_node9"><a xlink:href="common__tlm__packet_8h.html#a285c1dc53d72a80747d8827c38d7aea4" target="_top" xlink:title="有効なパケットかチェックする">
<polygon fill="white" stroke="black" points="156.5,-99 156.5,-118 272.5,-118 272.5,-99 156.5,-99"/>
<text text-anchor="middle" x="214.5" y="-106" font-family="Helvetica,sans-Serif" font-size="10.00">CTP_is_valid_packet</text>
</a>
</g>
</g>
<!-- Node1&#45;&gt;Node9 -->
<g id="edge8" class="edge">
<title>Node1&#45;&gt;Node9</title>
<path fill="none" stroke="midnightblue" d="M117.28,-94.75C126.78,-96.11 136.7,-97.53 146.41,-98.92"/>
<polygon fill="midnightblue" stroke="midnightblue" points="146.02,-102.4 156.42,-100.35 147.01,-95.47 146.02,-102.4"/>
</g>
<!-- Node11 -->
<g id="node11" class="node">
<title>Node11</title>
<g id="a_node11"><a xlink:href="driver__super__issl__format_8c.html#a815627cd6ff22baf5c3b89e967f6d8ea" target="_top" xlink:title="受信フレームからユーザーデータの先頭ポインタを取得する">
<polygon fill="white" stroke="black" points="153,-49.5 153,-79.5 276,-79.5 276,-49.5 153,-49.5"/>
<text text-anchor="start" x="161" y="-67.5" font-family="Helvetica,sans-Serif" font-size="10.00">DS_C2AFMT_get_user</text>
<text text-anchor="middle" x="214.5" y="-56.5" font-family="Helvetica,sans-Serif" font-size="10.00">_data_head</text>
</a>
</g>
</g>
<!-- Node1&#45;&gt;Node11 -->
<g id="edge11" class="edge">
<title>Node1&#45;&gt;Node11</title>
<path fill="none" stroke="midnightblue" d="M117.28,-78.25C125.62,-77.05 134.29,-75.82 142.85,-74.59"/>
<polygon fill="midnightblue" stroke="midnightblue" points="143.42,-78.05 152.82,-73.17 142.43,-71.12 143.42,-78.05"/>
</g>
<!-- Node13 -->
<g id="node13" class="node">
<title>Node13</title>
<g id="a_node13"><a xlink:href="driver__super__issl__format_8c.html#a4d20944b40dd5f98a15a88936efd3152" target="_top" xlink:title="TLM length の取得">
<polygon fill="white" stroke="black" points="155,-0.5 155,-30.5 274,-30.5 274,-0.5 155,-0.5"/>
<text text-anchor="start" x="163" y="-18.5" font-family="Helvetica,sans-Serif" font-size="10.00">DS_ISSLFMT_get_tlm</text>
<text text-anchor="middle" x="214.5" y="-7.5" font-family="Helvetica,sans-Serif" font-size="10.00">_length</text>
</a>
</g>
</g>
<!-- Node1&#45;&gt;Node13 -->
<g id="edge13" class="edge">
<title>Node1&#45;&gt;Node13</title>
<path fill="none" stroke="midnightblue" d="M77.96,-76.98C96.69,-67.41 126.62,-52.42 153,-40.5 157.37,-38.53 161.93,-36.53 166.52,-34.56"/>
<polygon fill="midnightblue" stroke="midnightblue" points="168.05,-37.71 175.9,-30.59 165.33,-31.26 168.05,-37.71"/>
</g>
<!-- Node3 -->
<g id="node3" class="node">
<title>Node3</title>
<g id="a_node3"><a xlink:href="tlm__space__packet_8c.html#a51745cb62959205762b4b2430f81804f" target="_top" xlink:title="Packet Length を取得">
<polygon fill="white" stroke="black" points="462,-118 462,-137 575,-137 575,-118 462,-118"/>
<text text-anchor="middle" x="518.5" y="-125" font-family="Helvetica,sans-Serif" font-size="10.00">TSP_get_packet_len</text>
</a>
</g>
</g>
<!-- Node2&#45;&gt;Node3 -->
<g id="edge2" class="edge">
<title>Node2&#45;&gt;Node3</title>
<path fill="none" stroke="midnightblue" d="M426.18,-139.26C434.61,-138.18 443.36,-137.05 451.96,-135.94"/>
<polygon fill="midnightblue" stroke="midnightblue" points="452.49,-139.4 461.96,-134.65 451.59,-132.46 452.49,-139.4"/>
</g>
<!-- Node4 -->
<g id="node4" class="node">
<title>Node4</title>
<g id="a_node4"><a xlink:href="space__packet_8c.html#a25afed909fb67da49f5ac9921a23744f" target="_top" xlink:title="Packet Length を取得">
<polygon fill="white" stroke="black" points="611,-118 611,-137 718,-137 718,-118 611,-118"/>
<text text-anchor="middle" x="664.5" y="-125" font-family="Helvetica,sans-Serif" font-size="10.00">SP_get_packet_len</text>
</a>
</g>
</g>
<!-- Node3&#45;&gt;Node4 -->
<g id="edge3" class="edge">
<title>Node3&#45;&gt;Node4</title>
<path fill="none" stroke="midnightblue" d="M575.17,-127.5C583.5,-127.5 592.14,-127.5 600.6,-127.5"/>
<polygon fill="midnightblue" stroke="midnightblue" points="600.81,-131 610.81,-127.5 600.81,-124 600.81,-131"/>
</g>
<!-- Node5 -->
<g id="node5" class="node">
<title>Node5</title>
<g id="a_node5"><a xlink:href="space__packet_8c.html#ad5dd44fdb4e6c00e7dbb311d3aaee3d3" target="_top" xlink:title="Packet Data Length を取得">
<polygon fill="white" stroke="black" points="754,-118 754,-137 888,-137 888,-118 754,-118"/>
<text text-anchor="middle" x="821" y="-125" font-family="Helvetica,sans-Serif" font-size="10.00">SP_get_packet_data_len</text>
</a>
</g>
</g>
<!-- Node4&#45;&gt;Node5 -->
<g id="edge4" class="edge">
<title>Node4&#45;&gt;Node5</title>
<path fill="none" stroke="midnightblue" d="M718.24,-127.5C726.47,-127.5 735.11,-127.5 743.74,-127.5"/>
<polygon fill="midnightblue" stroke="midnightblue" points="743.84,-131 753.84,-127.5 743.84,-124 743.84,-131"/>
</g>
<!-- Node6 -->
<g id="node6" class="node">
<title>Node6</title>
<g id="a_node6"><a xlink:href="space__packet_8c.html#a300c7fc3dea91319b0fa2f039f27d5eb" target="_top" xlink:title="packet に格納された param を取得">
<polygon fill="white" stroke="black" points="924,-112.5 924,-142.5 1058,-142.5 1058,-112.5 924,-112.5"/>
<text text-anchor="start" x="932" y="-130.5" font-family="Helvetica,sans-Serif" font-size="10.00">SP_extract_param_from</text>
<text text-anchor="middle" x="991" y="-119.5" font-family="Helvetica,sans-Serif" font-size="10.00">_packet</text>
</a>
</g>
</g>
<!-- Node5&#45;&gt;Node6 -->
<g id="edge5" class="edge">
<title>Node5&#45;&gt;Node6</title>
<path fill="none" stroke="midnightblue" d="M888.4,-127.5C896.68,-127.5 905.2,-127.5 913.62,-127.5"/>
<polygon fill="midnightblue" stroke="midnightblue" points="913.81,-131 923.81,-127.5 913.81,-124 913.81,-131"/>
</g>
<!-- Node7 -->
<g id="node7" class="node">
<title>Node7</title>
<g id="a_node7"><a xlink:href="endian__memcpy_8c.html#a153793f6939a1cb0f6bc3968d953f31e" target="_top" xlink:title=" ">
<polygon fill="white" stroke="black" points="1094,-118 1094,-137 1192,-137 1192,-118 1094,-118"/>
<text text-anchor="middle" x="1143" y="-125" font-family="Helvetica,sans-Serif" font-size="10.00">endian_memcpy</text>
</a>
</g>
</g>
<!-- Node6&#45;&gt;Node7 -->
<g id="edge6" class="edge">
<title>Node6&#45;&gt;Node7</title>
<path fill="none" stroke="midnightblue" d="M1058.23,-127.5C1066.71,-127.5 1075.34,-127.5 1083.69,-127.5"/>
<polygon fill="midnightblue" stroke="midnightblue" points="1083.69,-131 1093.69,-127.5 1083.69,-124 1083.69,-131"/>
</g>
<!-- Node8 -->
<g id="node8" class="node">
<title>Node8</title>
<g id="a_node8"><a xlink:href="endian__conv_8c.html#af8d492c4e43d83c161cd2225a9697b6a" target="_top" xlink:title=" ">
<polygon fill="white" stroke="black" points="1228,-118 1228,-137 1306,-137 1306,-118 1228,-118"/>
<text text-anchor="middle" x="1267" y="-125" font-family="Helvetica,sans-Serif" font-size="10.00">endian_conv</text>
</a>
</g>
</g>
<!-- Node7&#45;&gt;Node8 -->
<g id="edge7" class="edge">
<title>Node7&#45;&gt;Node8</title>
<path fill="none" stroke="midnightblue" d="M1192.22,-127.5C1200.65,-127.5 1209.42,-127.5 1217.84,-127.5"/>
<polygon fill="midnightblue" stroke="midnightblue" points="1217.91,-131 1227.91,-127.5 1217.91,-124 1217.91,-131"/>
</g>
<!-- Node10 -->
<g id="node10" class="node">
<title>Node10</title>
<g id="a_node10"><a xlink:href="common__tlm__packet_8c.html#ab9f04fbc9871d8fe2639cd46679e33c9" target="_top" xlink:title="パケット長を取得">
<polygon fill="white" stroke="black" points="312,-99 312,-118 426,-118 426,-99 312,-99"/>
<text text-anchor="middle" x="369" y="-106" font-family="Helvetica,sans-Serif" font-size="10.00">CTP_get_packet_len</text>
</a>
</g>
</g>
<!-- Node9&#45;&gt;Node10 -->
<g id="edge9" class="edge">
<title>Node9&#45;&gt;Node10</title>
<path fill="none" stroke="midnightblue" d="M272.72,-108.5C282.25,-108.5 292.21,-108.5 301.95,-108.5"/>
<polygon fill="midnightblue" stroke="midnightblue" points="301.98,-112 311.98,-108.5 301.98,-105 301.98,-112"/>
</g>
<!-- Node10&#45;&gt;Node3 -->
<g id="edge10" class="edge">
<title>Node10&#45;&gt;Node3</title>
<path fill="none" stroke="midnightblue" d="M426.18,-115.74C434.61,-116.82 443.36,-117.95 451.96,-119.06"/>
<polygon fill="midnightblue" stroke="midnightblue" points="451.59,-122.54 461.96,-120.35 452.49,-115.6 451.59,-122.54"/>
</g>
<!-- Node12 -->
<g id="node12" class="node">
<title>Node12</title>
<g id="a_node12"><a xlink:href="driver__super_8c.html#adf1f7d5bc6090bf72962786be28d0b9d" target="_top" xlink:title=" ">
<polygon fill="white" stroke="black" points="312.5,-31 312.5,-50 425.5,-50 425.5,-31 312.5,-31"/>
<text text-anchor="middle" x="369" y="-38" font-family="Helvetica,sans-Serif" font-size="10.00">DSSC_get_rx_frame</text>
</a>
</g>
</g>
<!-- Node11&#45;&gt;Node12 -->
<g id="edge12" class="edge">
<title>Node11&#45;&gt;Node12</title>
<path fill="none" stroke="midnightblue" d="M276.21,-54.95C284.81,-53.59 293.68,-52.2 302.36,-50.83"/>
<polygon fill="midnightblue" stroke="midnightblue" points="303.11,-54.26 312.45,-49.24 302.02,-47.34 303.11,-54.26"/>
</g>
<!-- Node13&#45;&gt;Node12 -->
<g id="edge14" class="edge">
<title>Node13&#45;&gt;Node12</title>
<path fill="none" stroke="midnightblue" d="M274.02,-25.09C283.28,-26.61 292.9,-28.19 302.3,-29.73"/>
<polygon fill="midnightblue" stroke="midnightblue" points="301.96,-33.22 312.39,-31.38 303.09,-26.31 301.96,-33.22"/>
</g>
</g>
</svg>
