<?xml version="1.0" encoding="UTF-8" standalone="no"?>
<!DOCTYPE svg PUBLIC "-//W3C//DTD SVG 1.1//EN"
 "http://www.w3.org/Graphics/SVG/1.1/DTD/svg11.dtd">
<!-- Generated by graphviz version 2.43.0 (0)
 -->
<!-- Title: src/src_core/Drivers/Super/driver_super_issl_format.c Pages: 1 -->
<svg width="1776pt" height="530pt"
 viewBox="0.00 0.00 1775.95 530.00" xmlns="http://www.w3.org/2000/svg" xmlns:xlink="http://www.w3.org/1999/xlink">
<g id="graph0" class="graph" transform="scale(1 1) rotate(0) translate(4 526)">
<title>src/src_core/Drivers/Super/driver_super_issl_format.c</title>
<polygon fill="white" stroke="transparent" points="-4,4 -4,-526 1771.95,-526 1771.95,4 -4,4"/>
<!-- Node1 -->
<g id="node1" class="node">
<title>Node1</title>
<g id="a_node1"><a xlink:title="Driver のための ISSL フォーマット通信のための公開定義，関数など">
<polygon fill="#bfbfbf" stroke="black" points="1619.95,-480.5 1619.95,-521.5 1752.95,-521.5 1752.95,-480.5 1619.95,-480.5"/>
<text text-anchor="start" x="1627.95" y="-509.5" font-family="Helvetica,sans-Serif" font-size="10.00">src/src_core/Drivers</text>
<text text-anchor="start" x="1627.95" y="-498.5" font-family="Helvetica,sans-Serif" font-size="10.00">/Super/driver_super_issl</text>
<text text-anchor="middle" x="1686.45" y="-487.5" font-family="Helvetica,sans-Serif" font-size="10.00">_format.c</text>
</a>
</g>
</g>
<!-- Node2 -->
<g id="node2" class="node">
<title>Node2</title>
<g id="a_node2"><a xlink:href="driver__super__issl__format_8h.html" target="_top" xlink:title="Driver のための ISSL フォーマット通信のための公開定義，関数など">
<polygon fill="white" stroke="black" points="1410.45,-424.5 1410.45,-443.5 1556.45,-443.5 1556.45,-424.5 1410.45,-424.5"/>
<text text-anchor="middle" x="1483.45" y="-431.5" font-family="Helvetica,sans-Serif" font-size="10.00">driver_super_issl_format.h</text>
</a>
</g>
</g>
<!-- Node1&#45;&gt;Node2 -->
<g id="edge1" class="edge">
<title>Node1&#45;&gt;Node2</title>
<path fill="none" stroke="midnightblue" d="M1625.54,-480.5C1591.17,-469.49 1549.37,-456.11 1520.03,-446.71"/>
<polygon fill="midnightblue" stroke="midnightblue" points="1520.8,-443.28 1510.21,-443.57 1518.66,-449.95 1520.8,-443.28"/>
</g>
<!-- Node27 -->
<g id="node27" class="node">
<title>Node27</title>
<g id="a_node27"><a xlink:href="crc_8h.html" target="_top" xlink:title="CRC用のライブラリ">
<polygon fill="white" stroke="black" points="1657.95,-307 1657.95,-326 1752.95,-326 1752.95,-307 1657.95,-307"/>
<text text-anchor="middle" x="1705.45" y="-314" font-family="Helvetica,sans-Serif" font-size="10.00">../../Library/crc.h</text>
</a>
</g>
</g>
<!-- Node1&#45;&gt;Node27 -->
<g id="edge38" class="edge">
<title>Node1&#45;&gt;Node27</title>
<path fill="none" stroke="midnightblue" d="M1688.48,-480.47C1692.17,-445.11 1699.89,-370.94 1703.5,-336.2"/>
<polygon fill="midnightblue" stroke="midnightblue" points="1707.01,-336.35 1704.56,-326.04 1700.04,-335.63 1707.01,-336.35"/>
</g>
<!-- Node28 -->
<g id="node28" class="node">
<title>Node28</title>
<g id="a_node28"><a xlink:title=" ">
<polygon fill="white" stroke="#bfbfbf" points="1714.95,-424.5 1714.95,-443.5 1767.95,-443.5 1767.95,-424.5 1714.95,-424.5"/>
<text text-anchor="middle" x="1741.45" y="-431.5" font-family="Helvetica,sans-Serif" font-size="10.00">string.h</text>
</a>
</g>
</g>
<!-- Node1&#45;&gt;Node28 -->
<g id="edge41" class="edge">
<title>Node1&#45;&gt;Node28</title>
<path fill="none" stroke="midnightblue" d="M1702.95,-480.5C1710.82,-471.2 1720.12,-460.21 1727.61,-451.36"/>
<polygon fill="midnightblue" stroke="midnightblue" points="1730.34,-453.55 1734.13,-443.65 1725,-449.03 1730.34,-453.55"/>
</g>
<!-- Node3 -->
<g id="node3" class="node">
<title>Node3</title>
<g id="a_node3"><a xlink:href="driver__super_8h.html" target="_top" xlink:title="各制御センサ・アクチュエータ等とのインターフェースドライバ群のスーパークラス">
<polygon fill="white" stroke="black" points="1372.45,-368.5 1372.45,-387.5 1458.45,-387.5 1458.45,-368.5 1372.45,-368.5"/>
<text text-anchor="middle" x="1415.45" y="-375.5" font-family="Helvetica,sans-Serif" font-size="10.00">driver_super.h</text>
</a>
</g>
</g>
<!-- Node2&#45;&gt;Node3 -->
<g id="edge2" class="edge">
<title>Node2&#45;&gt;Node3</title>
<path fill="none" stroke="midnightblue" d="M1472.53,-424.32C1462.28,-416.18 1446.73,-403.84 1434.45,-394.09"/>
<polygon fill="midnightblue" stroke="midnightblue" points="1436.58,-391.31 1426.57,-387.83 1432.23,-396.79 1436.58,-391.31"/>
</g>
<!-- Node6 -->
<g id="node6" class="node">
<title>Node6</title>
<g id="a_node6"><a xlink:href="stdint_8h.html" target="_top" xlink:title=" ">
<polygon fill="white" stroke="black" points="1320.45,-84 1320.45,-103 1454.45,-103 1454.45,-84 1320.45,-84"/>
<text text-anchor="middle" x="1387.45" y="-91" font-family="Helvetica,sans-Serif" font-size="10.00">src_user/Library/stdint.h</text>
</a>
</g>
</g>
<!-- Node2&#45;&gt;Node6 -->
<g id="edge25" class="edge">
<title>Node2&#45;&gt;Node6</title>
<path fill="none" stroke="midnightblue" d="M1512.65,-424.49C1555.25,-410.07 1629.45,-376.48 1629.45,-317.5 1629.45,-317.5 1629.45,-317.5 1629.45,-243 1629.45,-159.2 1522.73,-121.21 1451.03,-105.14"/>
<polygon fill="midnightblue" stroke="midnightblue" points="1451.67,-101.7 1441.16,-103.02 1450.2,-108.55 1451.67,-101.7"/>
</g>
<!-- Node22 -->
<g id="node22" class="node">
<title>Node22</title>
<g id="a_node22"><a xlink:href="common__tlm__cmd__packet_8h.html" target="_top" xlink:title="CTCP 関連基本関数の宣言">
<polygon fill="white" stroke="black" points="655.45,-301.5 655.45,-331.5 777.45,-331.5 777.45,-301.5 655.45,-301.5"/>
<text text-anchor="start" x="663.45" y="-319.5" font-family="Helvetica,sans-Serif" font-size="10.00">../../TlmCmd/common</text>
<text text-anchor="middle" x="716.45" y="-308.5" font-family="Helvetica,sans-Serif" font-size="10.00">_tlm_cmd_packet.h</text>
</a>
</g>
</g>
<!-- Node2&#45;&gt;Node22 -->
<g id="edge26" class="edge">
<title>Node2&#45;&gt;Node22</title>
<path fill="none" stroke="midnightblue" d="M1426.74,-424.46C1289.36,-403.77 938.96,-351.01 787.73,-328.23"/>
<polygon fill="midnightblue" stroke="midnightblue" points="788.03,-324.74 777.62,-326.71 786.99,-331.66 788.03,-324.74"/>
</g>
<!-- Node4 -->
<g id="node4" class="node">
<title>Node4</title>
<g id="a_node4"><a xlink:href="if__list_8h.html" target="_top" xlink:title=" ">
<polygon fill="white" stroke="black" points="1207.45,-229 1207.45,-259 1315.45,-259 1315.45,-229 1207.45,-229"/>
<text text-anchor="start" x="1215.45" y="-247" font-family="Helvetica,sans-Serif" font-size="10.00">src_user/IfWrapper</text>
<text text-anchor="middle" x="1261.45" y="-236" font-family="Helvetica,sans-Serif" font-size="10.00">/if_list.h</text>
</a>
</g>
</g>
<!-- Node3&#45;&gt;Node4 -->
<g id="edge3" class="edge">
<title>Node3&#45;&gt;Node4</title>
<path fill="none" stroke="midnightblue" d="M1372.14,-375.13C1339.97,-371.3 1297.62,-360.67 1273.45,-332 1258.92,-314.77 1257.17,-288.43 1258.29,-269.25"/>
<polygon fill="midnightblue" stroke="midnightblue" points="1261.78,-269.43 1259.17,-259.17 1254.81,-268.82 1261.78,-269.43"/>
</g>
<!-- Node3&#45;&gt;Node6 -->
<g id="edge9" class="edge">
<title>Node3&#45;&gt;Node6</title>
<path fill="none" stroke="midnightblue" d="M1425.01,-368.45C1433.54,-360.12 1445.44,-346.6 1450.45,-332 1477.42,-253.39 1486.42,-219.93 1450.45,-145 1442.91,-129.29 1427.84,-116.93 1414.33,-108.37"/>
<polygon fill="midnightblue" stroke="midnightblue" points="1415.72,-105.13 1405.33,-103.06 1412.16,-111.16 1415.72,-105.13"/>
</g>
<!-- Node9 -->
<g id="node9" class="node">
<title>Node9</title>
<g id="a_node9"><a xlink:href="endian__memcpy_8h.html" target="_top" xlink:title="memcpyのエンディアン対策">
<polygon fill="white" stroke="black" points="1497.45,-301.5 1497.45,-331.5 1601.45,-331.5 1601.45,-301.5 1497.45,-301.5"/>
<text text-anchor="start" x="1505.45" y="-319.5" font-family="Helvetica,sans-Serif" font-size="10.00">../../Library/endian</text>
<text text-anchor="middle" x="1549.45" y="-308.5" font-family="Helvetica,sans-Serif" font-size="10.00">_memcpy.h</text>
</a>
</g>
</g>
<!-- Node3&#45;&gt;Node9 -->
<g id="edge10" class="edge">
<title>Node3&#45;&gt;Node9</title>
<path fill="none" stroke="midnightblue" d="M1434.65,-368.48C1453.82,-359.96 1483.87,-346.62 1508.42,-335.72"/>
<polygon fill="midnightblue" stroke="midnightblue" points="1510.15,-338.78 1517.87,-331.52 1507.31,-332.38 1510.15,-338.78"/>
</g>
<!-- Node11 -->
<g id="node11" class="node">
<title>Node11</title>
<g id="a_node11"><a xlink:href="time__manager_8h.html" target="_top" xlink:title="OBC時刻のカウントアップと，各種衛星時刻関連処理">
<polygon fill="white" stroke="black" points="1044.45,-301.5 1044.45,-331.5 1186.45,-331.5 1186.45,-301.5 1044.45,-301.5"/>
<text text-anchor="start" x="1052.45" y="-319.5" font-family="Helvetica,sans-Serif" font-size="10.00">../../System/TimeManager</text>
<text text-anchor="middle" x="1115.45" y="-308.5" font-family="Helvetica,sans-Serif" font-size="10.00">/time_manager.h</text>
</a>
</g>
</g>
<!-- Node3&#45;&gt;Node11 -->
<g id="edge12" class="edge">
<title>Node3&#45;&gt;Node11</title>
<path fill="none" stroke="midnightblue" d="M1372.47,-368.48C1326.62,-359.38 1252.93,-344.77 1196.18,-333.51"/>
<polygon fill="midnightblue" stroke="midnightblue" points="1196.64,-330.04 1186.15,-331.52 1195.28,-336.9 1196.64,-330.04"/>
</g>
<!-- Node21 -->
<g id="node21" class="node">
<title>Node21</title>
<g id="a_node21"><a xlink:href="driver__super__params_8h.html" target="_top" xlink:title="DriverSuperパラメタのオーバーライド用ヘッダー">
<polygon fill="white" stroke="black" points="1282.95,-301.5 1282.95,-331.5 1441.95,-331.5 1441.95,-301.5 1282.95,-301.5"/>
<text text-anchor="start" x="1290.95" y="-319.5" font-family="Helvetica,sans-Serif" font-size="10.00">src_user/Settings/Driver</text>
<text text-anchor="middle" x="1362.45" y="-308.5" font-family="Helvetica,sans-Serif" font-size="10.00">Super/driver_super_params.h</text>
</a>
</g>
</g>
<!-- Node3&#45;&gt;Node21 -->
<g id="edge24" class="edge">
<title>Node3&#45;&gt;Node21</title>
<path fill="none" stroke="midnightblue" d="M1407.86,-368.48C1401.08,-360.87 1390.87,-349.4 1381.84,-339.26"/>
<polygon fill="midnightblue" stroke="midnightblue" points="1384.21,-336.66 1374.94,-331.52 1378.98,-341.32 1384.21,-336.66"/>
</g>
<!-- Node5 -->
<g id="node5" class="node">
<title>Node5</title>
<g id="a_node5"><a xlink:href="ccsds_8h.html" target="_top" xlink:title="CCSDS通信ラッパーのクラスです。(MOBC用 バックグラウンド取り込みVer)">
<polygon fill="white" stroke="black" points="1207.45,-151 1207.45,-181 1315.45,-181 1315.45,-151 1207.45,-151"/>
<text text-anchor="start" x="1215.45" y="-169" font-family="Helvetica,sans-Serif" font-size="10.00">src_core/IfWrapper</text>
<text text-anchor="middle" x="1261.45" y="-158" font-family="Helvetica,sans-Serif" font-size="10.00">/ccsds.h</text>
</a>
</g>
</g>
<!-- Node4&#45;&gt;Node5 -->
<g id="edge4" class="edge">
<title>Node4&#45;&gt;Node5</title>
<path fill="none" stroke="midnightblue" d="M1261.45,-228.7C1261.45,-218.2 1261.45,-203.66 1261.45,-191.33"/>
<polygon fill="midnightblue" stroke="midnightblue" points="1264.95,-191.23 1261.45,-181.23 1257.95,-191.23 1264.95,-191.23"/>
</g>
<!-- Node8 -->
<g id="node8" class="node">
<title>Node8</title>
<g id="a_node8"><a xlink:href="uart_8h.html" target="_top" xlink:title="UART通信ラッパーのクラスです。">
<polygon fill="white" stroke="black" points="1333.45,-151 1333.45,-181 1441.45,-181 1441.45,-151 1333.45,-151"/>
<text text-anchor="start" x="1341.45" y="-169" font-family="Helvetica,sans-Serif" font-size="10.00">src_core/IfWrapper</text>
<text text-anchor="middle" x="1387.45" y="-158" font-family="Helvetica,sans-Serif" font-size="10.00">/uart.h</text>
</a>
</g>
</g>
<!-- Node4&#45;&gt;Node8 -->
<g id="edge7" class="edge">
<title>Node4&#45;&gt;Node8</title>
<path fill="none" stroke="midnightblue" d="M1284.86,-228.88C1304.75,-216.89 1333.49,-199.55 1355.5,-186.27"/>
<polygon fill="midnightblue" stroke="midnightblue" points="1357.42,-189.2 1364.17,-181.04 1353.8,-183.21 1357.42,-189.2"/>
</g>
<!-- Node5&#45;&gt;Node6 -->
<g id="edge5" class="edge">
<title>Node5&#45;&gt;Node6</title>
<path fill="none" stroke="midnightblue" d="M1286.65,-150.9C1308.92,-138.44 1341.19,-120.38 1363.18,-108.08"/>
<polygon fill="midnightblue" stroke="midnightblue" points="1365.18,-110.97 1372.2,-103.03 1361.76,-104.86 1365.18,-110.97"/>
</g>
<!-- Node7 -->
<g id="node7" class="node">
<title>Node7</title>
<g id="a_node7"><a xlink:href="sils__define_8h.html" target="_top" xlink:title="Switch the build settings between your real OBC and SILS">
<polygon fill="white" stroke="black" points="1322.95,-11.5 1322.95,-30.5 1451.95,-30.5 1451.95,-11.5 1322.95,-11.5"/>
<text text-anchor="middle" x="1387.45" y="-18.5" font-family="Helvetica,sans-Serif" font-size="10.00">../Settings/sils_define.h</text>
</a>
</g>
</g>
<!-- Node6&#45;&gt;Node7 -->
<g id="edge6" class="edge">
<title>Node6&#45;&gt;Node7</title>
<path fill="none" stroke="midnightblue" d="M1387.45,-83.86C1387.45,-73.18 1387.45,-54.72 1387.45,-40.73"/>
<polygon fill="midnightblue" stroke="midnightblue" points="1390.95,-40.72 1387.45,-30.72 1383.95,-40.72 1390.95,-40.72"/>
</g>
<!-- Node8&#45;&gt;Node6 -->
<g id="edge8" class="edge">
<title>Node8&#45;&gt;Node6</title>
<path fill="none" stroke="midnightblue" d="M1387.45,-150.73C1387.45,-140 1387.45,-125.19 1387.45,-113.46"/>
<polygon fill="midnightblue" stroke="midnightblue" points="1390.95,-113.39 1387.45,-103.39 1383.95,-113.39 1390.95,-113.39"/>
</g>
<!-- Node10 -->
<g id="node10" class="node">
<title>Node10</title>
<g id="a_node10"><a xlink:title=" ">
<polygon fill="white" stroke="#bfbfbf" points="1657.45,-234.5 1657.45,-253.5 1713.45,-253.5 1713.45,-234.5 1657.45,-234.5"/>
<text text-anchor="middle" x="1685.45" y="-241.5" font-family="Helvetica,sans-Serif" font-size="10.00">stddef.h</text>
</a>
</g>
</g>
<!-- Node9&#45;&gt;Node10 -->
<g id="edge11" class="edge">
<title>Node9&#45;&gt;Node10</title>
<path fill="none" stroke="midnightblue" d="M1576.65,-301.4C1600.9,-288.83 1636.14,-270.56 1659.89,-258.25"/>
<polygon fill="midnightblue" stroke="midnightblue" points="1661.72,-261.24 1668.99,-253.53 1658.5,-255.03 1661.72,-261.24"/>
</g>
<!-- Node12 -->
<g id="node12" class="node">
<title>Node12</title>
<g id="a_node12"><a xlink:href="obc__time_8h.html" target="_top" xlink:title="OBCの時刻情報の定義と演算">
<polygon fill="white" stroke="black" points="1079.95,-156.5 1079.95,-175.5 1150.95,-175.5 1150.95,-156.5 1079.95,-156.5"/>
<text text-anchor="middle" x="1115.45" y="-163.5" font-family="Helvetica,sans-Serif" font-size="10.00">obc_time.h</text>
</a>
</g>
</g>
<!-- Node11&#45;&gt;Node12 -->
<g id="edge13" class="edge">
<title>Node11&#45;&gt;Node12</title>
<path fill="none" stroke="midnightblue" d="M1115.45,-301.26C1115.45,-274.35 1115.45,-216.04 1115.45,-185.9"/>
<polygon fill="midnightblue" stroke="midnightblue" points="1118.95,-185.85 1115.45,-175.85 1111.95,-185.85 1118.95,-185.85"/>
</g>
<!-- Node14 -->
<g id="node14" class="node">
<title>Node14</title>
<g id="a_node14"><a xlink:href="common__cmd__packet_8h.html" target="_top" xlink:title="CCP 関連基本関数の宣言">
<polygon fill="white" stroke="black" points="744.45,-229 744.45,-259 866.45,-259 866.45,-229 744.45,-229"/>
<text text-anchor="start" x="752.45" y="-247" font-family="Helvetica,sans-Serif" font-size="10.00">../../TlmCmd/common</text>
<text text-anchor="middle" x="805.45" y="-236" font-family="Helvetica,sans-Serif" font-size="10.00">_cmd_packet.h</text>
</a>
</g>
</g>
<!-- Node11&#45;&gt;Node14 -->
<g id="edge16" class="edge">
<title>Node11&#45;&gt;Node14</title>
<path fill="none" stroke="midnightblue" d="M1053.83,-301.49C1002.72,-289.86 930,-273.33 876.45,-261.15"/>
<polygon fill="midnightblue" stroke="midnightblue" points="877.21,-257.73 866.69,-258.93 875.66,-264.56 877.21,-257.73"/>
</g>
<!-- Node12&#45;&gt;Node6 -->
<g id="edge14" class="edge">
<title>Node12&#45;&gt;Node6</title>
<path fill="none" stroke="midnightblue" d="M1134.67,-156.49C1143.86,-152.64 1155.1,-148.23 1165.45,-145 1220.53,-127.84 1284.97,-113.83 1330.19,-104.96"/>
<polygon fill="midnightblue" stroke="midnightblue" points="1330.96,-108.37 1340.11,-103.03 1329.63,-101.5 1330.96,-108.37"/>
</g>
<!-- Node13 -->
<g id="node13" class="node">
<title>Node13</title>
<g id="a_node13"><a xlink:href="obc__time__params_8h.html" target="_top" xlink:title="OBCTのCoreパラメタのオーバーライド用ヘッダー">
<polygon fill="white" stroke="black" points="1045.45,-78.5 1045.45,-108.5 1185.45,-108.5 1185.45,-78.5 1045.45,-78.5"/>
<text text-anchor="start" x="1053.45" y="-96.5" font-family="Helvetica,sans-Serif" font-size="10.00">src_user/Settings/System</text>
<text text-anchor="middle" x="1115.45" y="-85.5" font-family="Helvetica,sans-Serif" font-size="10.00">/obc_time_params.h</text>
</a>
</g>
</g>
<!-- Node12&#45;&gt;Node13 -->
<g id="edge15" class="edge">
<title>Node12&#45;&gt;Node13</title>
<path fill="none" stroke="midnightblue" d="M1115.45,-156.36C1115.45,-147.05 1115.45,-131.83 1115.45,-118.81"/>
<polygon fill="midnightblue" stroke="midnightblue" points="1118.95,-118.58 1115.45,-108.58 1111.95,-118.58 1118.95,-118.58"/>
</g>
<!-- Node14&#45;&gt;Node12 -->
<g id="edge17" class="edge">
<title>Node14&#45;&gt;Node12</title>
<path fill="none" stroke="midnightblue" d="M866.65,-233.82C920.98,-224.79 1002.12,-209.13 1070.45,-187 1076.49,-185.04 1082.82,-182.54 1088.76,-179.96"/>
<polygon fill="midnightblue" stroke="midnightblue" points="1090.6,-182.97 1098.26,-175.66 1087.71,-176.6 1090.6,-182.97"/>
</g>
<!-- Node15 -->
<g id="node15" class="node">
<title>Node15</title>
<g id="a_node15"><a xlink:href="command__definitions_8h.html" target="_top" xlink:title="コマンド定義">
<polygon fill="white" stroke="black" points="908.95,-151 908.95,-181 1061.95,-181 1061.95,-151 908.95,-151"/>
<text text-anchor="start" x="916.95" y="-169" font-family="Helvetica,sans-Serif" font-size="10.00">src_user/TlmCmd/command</text>
<text text-anchor="middle" x="985.45" y="-158" font-family="Helvetica,sans-Serif" font-size="10.00">_definitions.h</text>
</a>
</g>
</g>
<!-- Node14&#45;&gt;Node15 -->
<g id="edge18" class="edge">
<title>Node14&#45;&gt;Node15</title>
<path fill="none" stroke="midnightblue" d="M838.89,-228.88C868.19,-216.51 910.94,-198.46 942.71,-185.04"/>
<polygon fill="midnightblue" stroke="midnightblue" points="944.34,-188.16 952.2,-181.04 941.62,-181.71 944.34,-188.16"/>
</g>
<!-- Node16 -->
<g id="node16" class="node">
<title>Node16</title>
<g id="a_node16"><a xlink:href="common__cmd__packet__define_8h.html" target="_top" xlink:title="CCP 型の定義">
<polygon fill="white" stroke="black" points="532.45,-151 532.45,-181 702.45,-181 702.45,-151 532.45,-151"/>
<text text-anchor="start" x="540.45" y="-169" font-family="Helvetica,sans-Serif" font-size="10.00">src_user/Settings/TlmCmd</text>
<text text-anchor="middle" x="617.45" y="-158" font-family="Helvetica,sans-Serif" font-size="10.00">/common_cmd_packet_define.h</text>
</a>
</g>
</g>
<!-- Node14&#45;&gt;Node16 -->
<g id="edge19" class="edge">
<title>Node14&#45;&gt;Node16</title>
<path fill="none" stroke="midnightblue" d="M770.53,-228.88C739.8,-216.46 694.89,-198.31 661.66,-184.87"/>
<polygon fill="midnightblue" stroke="midnightblue" points="662.77,-181.54 652.18,-181.04 660.14,-188.03 662.77,-181.54"/>
</g>
<!-- Node19 -->
<g id="node19" class="node">
<title>Node19</title>
<g id="a_node19"><a xlink:href="apid__define_8h.html" target="_top" xlink:title="CCSDS の APID を定義する">
<polygon fill="white" stroke="black" points="370.45,-151 370.45,-181 514.45,-181 514.45,-151 370.45,-151"/>
<text text-anchor="start" x="378.45" y="-169" font-family="Helvetica,sans-Serif" font-size="10.00">src_user/Settings/TlmCmd</text>
<text text-anchor="middle" x="442.45" y="-158" font-family="Helvetica,sans-Serif" font-size="10.00">/Ccsds/apid_define.h</text>
</a>
</g>
</g>
<!-- Node14&#45;&gt;Node19 -->
<g id="edge22" class="edge">
<title>Node14&#45;&gt;Node19</title>
<path fill="none" stroke="midnightblue" d="M744.22,-231.68C686.98,-220.9 599.21,-203.87 523.45,-187 518.37,-185.87 513.11,-184.66 507.84,-183.42"/>
<polygon fill="midnightblue" stroke="midnightblue" points="508.25,-179.92 497.71,-181 506.62,-186.73 508.25,-179.92"/>
</g>
<!-- Node20 -->
<g id="node20" class="node">
<title>Node20</title>
<g id="a_node20"><a xlink:href="timeline__command__dispatcher__define_8h.html" target="_top" xlink:title="timeline command dispatcher の各種定義">
<polygon fill="white" stroke="black" points="720.45,-145.5 720.45,-186.5 890.45,-186.5 890.45,-145.5 720.45,-145.5"/>
<text text-anchor="start" x="728.45" y="-174.5" font-family="Helvetica,sans-Serif" font-size="10.00">src_user/Settings/Applications</text>
<text text-anchor="start" x="728.45" y="-163.5" font-family="Helvetica,sans-Serif" font-size="10.00">/timeline_command_dispatcher</text>
<text text-anchor="middle" x="805.45" y="-152.5" font-family="Helvetica,sans-Serif" font-size="10.00">_define.h</text>
</a>
</g>
</g>
<!-- Node14&#45;&gt;Node20 -->
<g id="edge23" class="edge">
<title>Node14&#45;&gt;Node20</title>
<path fill="none" stroke="midnightblue" d="M805.45,-228.7C805.45,-219.71 805.45,-207.77 805.45,-196.79"/>
<polygon fill="midnightblue" stroke="midnightblue" points="808.95,-196.68 805.45,-186.68 801.95,-196.68 808.95,-196.68"/>
</g>
<!-- Node17 -->
<g id="node17" class="node">
<title>Node17</title>
<g id="a_node17"><a xlink:href="space__packet__typedef_8h.html" target="_top" xlink:title="SpacePacket 類 と CommonTlmCmdPacket 類が相互参照するのを回避するためのヘッダ">
<polygon fill="white" stroke="black" points="30.95,-78.5 30.95,-108.5 167.95,-108.5 167.95,-78.5 30.95,-78.5"/>
<text text-anchor="start" x="38.95" y="-96.5" font-family="Helvetica,sans-Serif" font-size="10.00">src_core/TlmCmd/Ccsds</text>
<text text-anchor="middle" x="99.45" y="-85.5" font-family="Helvetica,sans-Serif" font-size="10.00">/space_packet_typedef.h</text>
</a>
</g>
</g>
<!-- Node16&#45;&gt;Node17 -->
<g id="edge20" class="edge">
<title>Node16&#45;&gt;Node17</title>
<path fill="none" stroke="midnightblue" d="M555.41,-150.97C544.78,-148.8 533.82,-146.72 523.45,-145 403.63,-125.16 263.51,-110.03 178.15,-101.71"/>
<polygon fill="midnightblue" stroke="midnightblue" points="178.31,-98.21 168.02,-100.73 177.63,-105.17 178.31,-98.21"/>
</g>
<!-- Node18 -->
<g id="node18" class="node">
<title>Node18</title>
<g id="a_node18"><a xlink:href="space__packet__typedef__params_8h.html" target="_top" xlink:title="SpacePacketの パケット型に関するユーザー設定">
<polygon fill="white" stroke="black" points="19.45,-0.5 19.45,-41.5 179.45,-41.5 179.45,-0.5 19.45,-0.5"/>
<text text-anchor="start" x="27.45" y="-29.5" font-family="Helvetica,sans-Serif" font-size="10.00">src_user/Settings/TlmCmd</text>
<text text-anchor="start" x="27.45" y="-18.5" font-family="Helvetica,sans-Serif" font-size="10.00">/Ccsds/space_packet_typedef</text>
<text text-anchor="middle" x="99.45" y="-7.5" font-family="Helvetica,sans-Serif" font-size="10.00">_params.h</text>
</a>
</g>
</g>
<!-- Node17&#45;&gt;Node18 -->
<g id="edge21" class="edge">
<title>Node17&#45;&gt;Node18</title>
<path fill="none" stroke="midnightblue" d="M99.45,-78.23C99.45,-70.57 99.45,-60.84 99.45,-51.63"/>
<polygon fill="midnightblue" stroke="midnightblue" points="102.95,-51.59 99.45,-41.59 95.95,-51.59 102.95,-51.59"/>
</g>
<!-- Node22&#45;&gt;Node6 -->
<g id="edge27" class="edge">
<title>Node22&#45;&gt;Node6</title>
<path fill="none" stroke="midnightblue" d="M777.58,-308.3C867.11,-295.53 1036.57,-262.74 1159.45,-187 1181.14,-173.63 1176.63,-158.14 1198.45,-145 1232.36,-124.59 1274.57,-112.3 1310.49,-104.96"/>
<polygon fill="midnightblue" stroke="midnightblue" points="1311.3,-108.37 1320.44,-103.02 1309.96,-101.5 1311.3,-108.37"/>
</g>
<!-- Node22&#45;&gt;Node14 -->
<g id="edge36" class="edge">
<title>Node22&#45;&gt;Node14</title>
<path fill="none" stroke="midnightblue" d="M734.46,-301.23C747.45,-290.94 765.18,-276.9 779.67,-265.42"/>
<polygon fill="midnightblue" stroke="midnightblue" points="782.11,-267.96 787.77,-259 777.76,-262.47 782.11,-267.96"/>
</g>
<!-- Node22&#45;&gt;Node19 -->
<g id="edge37" class="edge">
<title>Node22&#45;&gt;Node19</title>
<path fill="none" stroke="midnightblue" d="M690.18,-301.26C640.57,-274.37 533.1,-216.13 477.44,-185.96"/>
<polygon fill="midnightblue" stroke="midnightblue" points="479.1,-182.88 468.64,-181.2 475.77,-189.04 479.1,-182.88"/>
</g>
<!-- Node23 -->
<g id="node23" class="node">
<title>Node23</title>
<g id="a_node23"><a xlink:href="common__tlm__cmd__packet__define_8h.html" target="_top" xlink:title="CTCP 型の定義">
<polygon fill="white" stroke="black" points="62.45,-223.5 62.45,-264.5 210.45,-264.5 210.45,-223.5 62.45,-223.5"/>
<text text-anchor="start" x="70.45" y="-252.5" font-family="Helvetica,sans-Serif" font-size="10.00">src_user/Settings/TlmCmd</text>
<text text-anchor="start" x="70.45" y="-241.5" font-family="Helvetica,sans-Serif" font-size="10.00">/common_tlm_cmd_packet</text>
<text text-anchor="middle" x="136.45" y="-230.5" font-family="Helvetica,sans-Serif" font-size="10.00">_define.h</text>
</a>
</g>
</g>
<!-- Node22&#45;&gt;Node23 -->
<g id="edge28" class="edge">
<title>Node22&#45;&gt;Node23</title>
<path fill="none" stroke="midnightblue" d="M655.2,-308.06C550.94,-295.38 338.79,-269.6 220.66,-255.24"/>
<polygon fill="midnightblue" stroke="midnightblue" points="220.92,-251.74 210.57,-254.01 220.07,-258.69 220.92,-251.74"/>
</g>
<!-- Node24 -->
<g id="node24" class="node">
<title>Node24</title>
<g id="a_node24"><a xlink:href="common__tlm__packet_8h.html" target="_top" xlink:title="CTP 関連基本関数の宣言">
<polygon fill="white" stroke="black" points="375.45,-234.5 375.45,-253.5 509.45,-253.5 509.45,-234.5 375.45,-234.5"/>
<text text-anchor="middle" x="442.45" y="-241.5" font-family="Helvetica,sans-Serif" font-size="10.00">./common_tlm_packet.h</text>
</a>
</g>
</g>
<!-- Node22&#45;&gt;Node24 -->
<g id="edge30" class="edge">
<title>Node22&#45;&gt;Node24</title>
<path fill="none" stroke="midnightblue" d="M661.99,-301.49C610.12,-288.14 533.08,-268.32 485.41,-256.05"/>
<polygon fill="midnightblue" stroke="midnightblue" points="486.26,-252.66 475.7,-253.55 484.51,-259.44 486.26,-252.66"/>
</g>
<!-- Node23&#45;&gt;Node17 -->
<g id="edge29" class="edge">
<title>Node23&#45;&gt;Node17</title>
<path fill="none" stroke="midnightblue" d="M62.32,-227.29C41,-218.97 20.11,-206.29 7.45,-187 -2.79,-171.39 -2.06,-161.06 7.45,-145 15.67,-131.11 29.22,-120.78 43.43,-113.22"/>
<polygon fill="midnightblue" stroke="midnightblue" points="45.36,-116.17 52.81,-108.64 42.28,-109.88 45.36,-116.17"/>
</g>
<!-- Node24&#45;&gt;Node12 -->
<g id="edge31" class="edge">
<title>Node24&#45;&gt;Node12</title>
<path fill="none" stroke="midnightblue" d="M509.58,-238.27C660.43,-227.45 1017.21,-200.8 1070.45,-187 1077.08,-185.28 1083.96,-182.68 1090.29,-179.92"/>
<polygon fill="midnightblue" stroke="midnightblue" points="1092.08,-182.95 1099.67,-175.55 1089.13,-176.6 1092.08,-182.95"/>
</g>
<!-- Node24&#45;&gt;Node19 -->
<g id="edge35" class="edge">
<title>Node24&#45;&gt;Node19</title>
<path fill="none" stroke="midnightblue" d="M442.45,-234.28C442.45,-223.8 442.45,-205.79 442.45,-191.03"/>
<polygon fill="midnightblue" stroke="midnightblue" points="445.95,-191.02 442.45,-181.02 438.95,-191.02 445.95,-191.02"/>
</g>
<!-- Node25 -->
<g id="node25" class="node">
<title>Node25</title>
<g id="a_node25"><a xlink:href="telemetry__definitions_8h.html" target="_top" xlink:title="テレメトリ定義">
<polygon fill="white" stroke="black" points="200.45,-151 200.45,-181 352.45,-181 352.45,-151 200.45,-151"/>
<text text-anchor="start" x="208.45" y="-169" font-family="Helvetica,sans-Serif" font-size="10.00">src_user/TlmCmd/telemetry</text>
<text text-anchor="middle" x="276.45" y="-158" font-family="Helvetica,sans-Serif" font-size="10.00">_definitions.h</text>
</a>
</g>
</g>
<!-- Node24&#45;&gt;Node25 -->
<g id="edge32" class="edge">
<title>Node24&#45;&gt;Node25</title>
<path fill="none" stroke="midnightblue" d="M423.73,-234.43C397.84,-222.58 350.46,-200.89 316.43,-185.3"/>
<polygon fill="midnightblue" stroke="midnightblue" points="317.76,-182.06 307.21,-181.08 314.84,-188.43 317.76,-182.06"/>
</g>
<!-- Node26 -->
<g id="node26" class="node">
<title>Node26</title>
<g id="a_node26"><a xlink:href="common__tlm__packet__define_8h.html" target="_top" xlink:title="CTP 型の定義">
<polygon fill="white" stroke="black" points="16.45,-151 16.45,-181 182.45,-181 182.45,-151 16.45,-151"/>
<text text-anchor="start" x="24.45" y="-169" font-family="Helvetica,sans-Serif" font-size="10.00">src_user/Settings/TlmCmd</text>
<text text-anchor="middle" x="99.45" y="-158" font-family="Helvetica,sans-Serif" font-size="10.00">/common_tlm_packet_define.h</text>
</a>
</g>
</g>
<!-- Node24&#45;&gt;Node26 -->
<g id="edge33" class="edge">
<title>Node24&#45;&gt;Node26</title>
<path fill="none" stroke="midnightblue" d="M403.77,-234.43C347.91,-222.05 243.62,-198.94 172.87,-183.27"/>
<polygon fill="midnightblue" stroke="midnightblue" points="173.21,-179.76 162.69,-181.01 171.69,-186.59 173.21,-179.76"/>
</g>
<!-- Node26&#45;&gt;Node17 -->
<g id="edge34" class="edge">
<title>Node26&#45;&gt;Node17</title>
<path fill="none" stroke="midnightblue" d="M99.45,-150.73C99.45,-141.66 99.45,-129.66 99.45,-119.08"/>
<polygon fill="midnightblue" stroke="midnightblue" points="102.95,-118.75 99.45,-108.75 95.95,-118.75 102.95,-118.75"/>
</g>
<!-- Node27&#45;&gt;Node6 -->
<g id="edge40" class="edge">
<title>Node27&#45;&gt;Node6</title>
<path fill="none" stroke="midnightblue" d="M1710.11,-306.99C1718.6,-290.28 1734.67,-252.23 1722.45,-223 1703.42,-177.47 1687.06,-168.09 1643.45,-145 1587.97,-115.63 1517.55,-103.26 1464.61,-98.09"/>
<polygon fill="midnightblue" stroke="midnightblue" points="1464.88,-94.6 1454.6,-97.18 1464.24,-101.57 1464.88,-94.6"/>
</g>
<!-- Node27&#45;&gt;Node10 -->
<g id="edge39" class="edge">
<title>Node27&#45;&gt;Node10</title>
<path fill="none" stroke="midnightblue" d="M1703,-306.86C1699.97,-296.18 1694.73,-277.72 1690.77,-263.73"/>
<polygon fill="midnightblue" stroke="midnightblue" points="1694.02,-262.38 1687.92,-253.72 1687.29,-264.29 1694.02,-262.38"/>
</g>
</g>
</svg>
