<?xml version="1.0" encoding="UTF-8" standalone="no"?>
<!DOCTYPE svg PUBLIC "-//W3C//DTD SVG 1.1//EN"
 "http://www.w3.org/Graphics/SVG/1.1/DTD/svg11.dtd">
<!-- Generated by graphviz version 2.43.0 (0)
 -->
<!-- Title: DSSC_set_tx_frame_size Pages: 1 -->
<svg width="2273pt" height="516pt"
 viewBox="0.00 0.00 2273.00 516.00" xmlns="http://www.w3.org/2000/svg" xmlns:xlink="http://www.w3.org/1999/xlink">
<g id="graph0" class="graph" transform="scale(1 1) rotate(0) translate(4 512)">
<title>DSSC_set_tx_frame_size</title>
<polygon fill="white" stroke="transparent" points="-4,4 -4,-512 2269,-512 2269,4 -4,4"/>
<!-- Node1 -->
<g id="node1" class="node">
<title>Node1</title>
<g id="a_node1"><a xlink:title=" ">
<polygon fill="#bfbfbf" stroke="black" points="2128,-196.5 2128,-215.5 2265,-215.5 2265,-196.5 2128,-196.5"/>
<text text-anchor="middle" x="2196.5" y="-203.5" font-family="Helvetica,sans-Serif" font-size="10.00">DSSC_set_tx_frame_size</text>
</a>
</g>
</g>
<!-- Node2 -->
<g id="node2" class="node">
<title>Node2</title>
<g id="a_node2"><a xlink:href="common__tlm__cmd__packet__for__driver__super_8c.html#a1621fe9ac5069a84bdc5135c83afcc41" target="_top" xlink:title="C2A 間通信など， CTCP をコンポ間通信に用いるとき，DS_init で渡す初期化関数内部用の Init Util">
<polygon fill="white" stroke="black" points="1971,-405.5 1971,-424.5 2060,-424.5 2060,-405.5 1971,-405.5"/>
<text text-anchor="middle" x="2015.5" y="-412.5" font-family="Helvetica,sans-Serif" font-size="10.00">CTCP_init_dssc</text>
</a>
</g>
</g>
<!-- Node1&#45;&gt;Node2 -->
<g id="edge1" class="edge">
<title>Node1&#45;&gt;Node2</title>
<path fill="none" stroke="midnightblue" d="M2186.32,-224.84C2170.35,-256.3 2135,-320.38 2092,-364 2074.9,-381.35 2051.05,-396.28 2034.76,-405.42"/>
<polygon fill="midnightblue" stroke="midnightblue" points="2189.48,-226.35 2190.81,-215.84 2183.22,-223.22 2189.48,-226.35"/>
</g>
<!-- Node11 -->
<g id="node11" class="node">
<title>Node11</title>
<g id="a_node11"><a xlink:href="common__tlm__cmd__packet__for__driver__super_8c.html#a9dc762f650c863090e34ad515967efc9" target="_top" xlink:title="C2A 間通信など， CTCP をコンポ間通信に用いるときの tx_frame のセット">
<polygon fill="white" stroke="black" points="1939,-240.5 1939,-259.5 2092,-259.5 2092,-240.5 1939,-240.5"/>
<text text-anchor="middle" x="2015.5" y="-247.5" font-family="Helvetica,sans-Serif" font-size="10.00">CTCP_set_tx_frame_to_dssc</text>
</a>
</g>
</g>
<!-- Node1&#45;&gt;Node11 -->
<g id="edge10" class="edge">
<title>Node1&#45;&gt;Node11</title>
<path fill="none" stroke="midnightblue" d="M2146.81,-217.97C2118.04,-225.04 2082.11,-233.87 2055.26,-240.47"/>
<polygon fill="midnightblue" stroke="midnightblue" points="2147.78,-221.33 2156.66,-215.55 2146.11,-214.54 2147.78,-221.33"/>
</g>
<!-- Node64 -->
<g id="node31" class="node">
<title>Node64</title>
<g id="a_node31"><a xlink:href="gs_8c.html#a77d8b5e22b2b2615c9046060e50a3308" target="_top" xlink:title="上記初期化の共通部分をまとめた関数">
<polygon fill="white" stroke="black" points="1950.5,-324 1950.5,-354 2080.5,-354 2080.5,-324 1950.5,-324"/>
<text text-anchor="start" x="1958.5" y="-342" font-family="Helvetica,sans-Serif" font-size="10.00">GS_load_default_driver</text>
<text text-anchor="middle" x="2015.5" y="-331" font-family="Helvetica,sans-Serif" font-size="10.00">_super_init_settings_</text>
</a>
</g>
</g>
<!-- Node1&#45;&gt;Node64 -->
<g id="edge34" class="edge">
<title>Node1&#45;&gt;Node64</title>
<path fill="none" stroke="midnightblue" d="M2174.17,-221.85C2139.44,-247.65 2071.14,-298.4 2036.98,-323.79"/>
<polygon fill="midnightblue" stroke="midnightblue" points="2176.69,-224.34 2182.63,-215.57 2172.51,-218.72 2176.69,-224.34"/>
</g>
<!-- Node72 -->
<g id="node39" class="node">
<title>Node72</title>
<g id="a_node39"><a xlink:href="i2c__common_8c.html#abfb106dad3e37cab3af6e335af639c84" target="_top" xlink:title="I2C_Config 構造体にて指定されたデバイスのレジスタへ読み込む">
<polygon fill="white" stroke="black" points="1967,-114.5 1967,-133.5 2064,-133.5 2064,-114.5 1967,-114.5"/>
<text text-anchor="middle" x="2015.5" y="-121.5" font-family="Helvetica,sans-Serif" font-size="10.00">I2C_read_bytes_</text>
</a>
</g>
</g>
<!-- Node1&#45;&gt;Node72 -->
<g id="edge45" class="edge">
<title>Node1&#45;&gt;Node72</title>
<path fill="none" stroke="midnightblue" d="M2174.29,-190.45C2154.05,-176.28 2122.25,-155.67 2092,-143 2083.02,-139.24 2073.12,-136.09 2063.53,-133.51"/>
<polygon fill="midnightblue" stroke="midnightblue" points="2172.29,-193.33 2182.47,-196.28 2176.35,-187.63 2172.29,-193.33"/>
</g>
<!-- Node75 -->
<g id="node42" class="node">
<title>Node75</title>
<g id="a_node42"><a xlink:href="i2c__common_8c.html#a9a4ac76054a67ac43ad1a995a1d5721c" target="_top" xlink:title="I2C_Config 構造体にて指定されたデバイスのレジスタへ書き込む">
<polygon fill="white" stroke="black" points="1965.5,-38.5 1965.5,-57.5 2065.5,-57.5 2065.5,-38.5 1965.5,-38.5"/>
<text text-anchor="middle" x="2015.5" y="-45.5" font-family="Helvetica,sans-Serif" font-size="10.00">I2C_write_bytes_</text>
</a>
</g>
</g>
<!-- Node1&#45;&gt;Node75 -->
<g id="edge48" class="edge">
<title>Node1&#45;&gt;Node75</title>
<path fill="none" stroke="midnightblue" d="M2179.4,-189.02C2159.55,-168.39 2124.44,-132.88 2092,-105 2071.32,-87.23 2045.72,-68.54 2030.27,-57.59"/>
<polygon fill="midnightblue" stroke="midnightblue" points="2177.02,-191.59 2186.46,-196.4 2182.07,-186.75 2177.02,-191.59"/>
</g>
<!-- Node78 -->
<g id="node45" class="node">
<title>Node78</title>
<g id="a_node45"><a xlink:href="uart__test_8c.html#a9e7c2b2c8647f39bf6081d6c3af7a1fe" target="_top" xlink:title=" ">
<polygon fill="white" stroke="black" points="1949.5,-191 1949.5,-221 2081.5,-221 2081.5,-191 1949.5,-191"/>
<text text-anchor="start" x="1957.5" y="-209" font-family="Helvetica,sans-Serif" font-size="10.00">UART_TEST_load_driver</text>
<text text-anchor="middle" x="2015.5" y="-198" font-family="Helvetica,sans-Serif" font-size="10.00">_super_init_settings_</text>
</a>
</g>
</g>
<!-- Node1&#45;&gt;Node78 -->
<g id="edge51" class="edge">
<title>Node1&#45;&gt;Node78</title>
<path fill="none" stroke="midnightblue" d="M2117.78,-206C2105.71,-206 2093.35,-206 2081.6,-206"/>
<polygon fill="midnightblue" stroke="midnightblue" points="2117.83,-209.5 2127.83,-206 2117.83,-202.5 2117.83,-209.5"/>
</g>
<!-- Node82 -->
<g id="node49" class="node">
<title>Node82</title>
<g id="a_node49"><a xlink:href="uart__test_8c.html#a515fee0061a72319cf331e110b285e91" target="_top" xlink:title="UART_TESTへのコマンド送信">
<polygon fill="white" stroke="black" points="1965,-152.5 1965,-171.5 2066,-171.5 2066,-152.5 1965,-152.5"/>
<text text-anchor="middle" x="2015.5" y="-159.5" font-family="Helvetica,sans-Serif" font-size="10.00">UART_TEST_send</text>
</a>
</g>
</g>
<!-- Node1&#45;&gt;Node82 -->
<g id="edge56" class="edge">
<title>Node1&#45;&gt;Node82</title>
<path fill="none" stroke="midnightblue" d="M2146.81,-194.03C2118.04,-186.96 2082.11,-178.13 2055.26,-171.53"/>
<polygon fill="midnightblue" stroke="midnightblue" points="2146.11,-197.46 2156.66,-196.45 2147.78,-190.67 2146.11,-197.46"/>
</g>
<!-- Node3 -->
<g id="node3" class="node">
<title>Node3</title>
<g id="a_node3"><a xlink:href="aobc_8c.html#ace8c524e6d1fe0054e4db53f9fbc0a26" target="_top" xlink:title=" ">
<polygon fill="white" stroke="black" points="1760.5,-431 1760.5,-461 1897.5,-461 1897.5,-431 1760.5,-431"/>
<text text-anchor="start" x="1768.5" y="-449" font-family="Helvetica,sans-Serif" font-size="10.00">AOBC_load_driver_super</text>
<text text-anchor="middle" x="1829" y="-438" font-family="Helvetica,sans-Serif" font-size="10.00">_init_settings_</text>
</a>
</g>
</g>
<!-- Node2&#45;&gt;Node3 -->
<g id="edge2" class="edge">
<title>Node2&#45;&gt;Node3</title>
<path fill="none" stroke="midnightblue" d="M1960.74,-424.03C1940.99,-427.35 1918.38,-431.15 1897.58,-434.64"/>
<polygon fill="midnightblue" stroke="midnightblue" points="1961.49,-427.46 1970.78,-422.35 1960.33,-420.55 1961.49,-427.46"/>
</g>
<!-- Node4 -->
<g id="node4" class="node">
<title>Node4</title>
<g id="a_node4"><a xlink:href="aobc_8c.html#ad57ac68788eec32299ab4a5070251380" target="_top" xlink:title="AOBC 初期化">
<polygon fill="white" stroke="black" points="1637,-445.5 1637,-464.5 1702,-464.5 1702,-445.5 1637,-445.5"/>
<text text-anchor="middle" x="1669.5" y="-452.5" font-family="Helvetica,sans-Serif" font-size="10.00">AOBC_init</text>
</a>
</g>
</g>
<!-- Node3&#45;&gt;Node4 -->
<g id="edge3" class="edge">
<title>Node3&#45;&gt;Node4</title>
<path fill="none" stroke="midnightblue" d="M1750.31,-450.44C1733.29,-451.41 1716.21,-452.39 1702.24,-453.19"/>
<polygon fill="midnightblue" stroke="midnightblue" points="1750.51,-453.93 1760.29,-449.87 1750.11,-446.95 1750.51,-453.93"/>
</g>
<!-- Node5 -->
<g id="node5" class="node">
<title>Node5</title>
<g id="a_node5"><a xlink:href="di__aobc_8c.html#ac004552dc331c8fea7b0b6f2acd75a15" target="_top" xlink:title=" ">
<polygon fill="white" stroke="black" points="1460.5,-463.5 1460.5,-482.5 1546.5,-482.5 1546.5,-463.5 1460.5,-463.5"/>
<text text-anchor="middle" x="1503.5" y="-470.5" font-family="Helvetica,sans-Serif" font-size="10.00">DI_AOBC_init_</text>
</a>
</g>
</g>
<!-- Node4&#45;&gt;Node5 -->
<g id="edge4" class="edge">
<title>Node4&#45;&gt;Node5</title>
<path fill="none" stroke="midnightblue" d="M1626.78,-459.58C1602.2,-462.28 1571.21,-465.68 1546.57,-468.38"/>
<polygon fill="midnightblue" stroke="midnightblue" points="1627.32,-463.04 1636.88,-458.47 1626.56,-456.08 1627.32,-463.04"/>
</g>
<!-- Node6 -->
<g id="node6" class="node">
<title>Node6</title>
<g id="a_node6"><a xlink:href="di__aobc_8c.html#a78f30ebb5b71301c1da6d10eac787db4" target="_top" xlink:title="AOBC update アプリ生成関数">
<polygon fill="white" stroke="black" points="1261.5,-488.5 1261.5,-507.5 1360.5,-507.5 1360.5,-488.5 1261.5,-488.5"/>
<text text-anchor="middle" x="1311" y="-495.5" font-family="Helvetica,sans-Serif" font-size="10.00">DI_AOBC_update</text>
</a>
</g>
</g>
<!-- Node5&#45;&gt;Node6 -->
<g id="edge5" class="edge">
<title>Node5&#45;&gt;Node6</title>
<path fill="none" stroke="midnightblue" d="M1450.21,-479.86C1422.22,-483.54 1387.95,-488.03 1360.54,-491.63"/>
<polygon fill="midnightblue" stroke="midnightblue" points="1450.76,-483.32 1460.22,-478.55 1449.85,-476.38 1450.76,-483.32"/>
</g>
<!-- Node7 -->
<g id="node7" class="node">
<title>Node7</title>
<g id="a_node7"><a xlink:href="app__registry_8c.html#ab944b1d78a41e427bc2ed57f9c4e9534" target="_top" xlink:title=" ">
<polygon fill="white" stroke="black" points="847.5,-444.5 847.5,-463.5 981.5,-463.5 981.5,-444.5 847.5,-444.5"/>
<text text-anchor="middle" x="914.5" y="-451.5" font-family="Helvetica,sans-Serif" font-size="10.00">AR_load_initial_settings</text>
</a>
</g>
</g>
<!-- Node6&#45;&gt;Node7 -->
<g id="edge6" class="edge">
<title>Node6&#45;&gt;Node7</title>
<path fill="none" stroke="midnightblue" d="M1251.21,-494.35C1193.28,-490.4 1102.32,-483.26 1024,-473 1004.47,-470.44 983.09,-466.87 964.51,-463.51"/>
<polygon fill="midnightblue" stroke="midnightblue" points="1251.07,-497.85 1261.28,-495.02 1251.54,-490.86 1251.07,-497.85"/>
</g>
<!-- Node8 -->
<g id="node8" class="node">
<title>Node8</title>
<g id="a_node8"><a xlink:href="c2a__core__main_8c.html#a65ecdc63d8762ffde4db7f6c6e6f07cf" target="_top" xlink:title=" ">
<polygon fill="white" stroke="black" points="253,-283.5 253,-302.5 336,-302.5 336,-283.5 253,-283.5"/>
<text text-anchor="middle" x="294.5" y="-290.5" font-family="Helvetica,sans-Serif" font-size="10.00">C2A_core_init</text>
</a>
</g>
</g>
<!-- Node7&#45;&gt;Node8 -->
<g id="edge7" class="edge">
<title>Node7&#45;&gt;Node8</title>
<path fill="none" stroke="midnightblue" d="M866.85,-441.85C748.54,-411.02 438.67,-330.3 332.12,-302.54"/>
<polygon fill="midnightblue" stroke="midnightblue" points="866.13,-445.28 876.69,-444.41 867.9,-438.5 866.13,-445.28"/>
</g>
<!-- Node9 -->
<g id="node9" class="node">
<title>Node9</title>
<g id="a_node9"><a xlink:href="c2a__main_8c.html#a630222a80cd8bffd4426d4a55a215069" target="_top" xlink:title=" ">
<polygon fill="white" stroke="black" points="155,-283.5 155,-302.5 217,-302.5 217,-283.5 155,-283.5"/>
<text text-anchor="middle" x="186" y="-290.5" font-family="Helvetica,sans-Serif" font-size="10.00">C2A_init_</text>
</a>
</g>
</g>
<!-- Node8&#45;&gt;Node9 -->
<g id="edge8" class="edge">
<title>Node8&#45;&gt;Node9</title>
<path fill="none" stroke="midnightblue" d="M242.76,-293C234.01,-293 225.17,-293 217.18,-293"/>
<polygon fill="midnightblue" stroke="midnightblue" points="242.93,-296.5 252.93,-293 242.93,-289.5 242.93,-296.5"/>
</g>
<!-- Node10 -->
<g id="node10" class="node">
<title>Node10</title>
<g id="a_node10"><a xlink:href="c2a__main_8c.html#ac3344a311adda8f9e7310924bedf81fc" target="_top" xlink:title=" ">
<polygon fill="white" stroke="black" points="0,-283.5 0,-302.5 119,-302.5 119,-283.5 0,-283.5"/>
<text text-anchor="middle" x="59.5" y="-290.5" font-family="Helvetica,sans-Serif" font-size="10.00">address_fixed_main_</text>
</a>
</g>
</g>
<!-- Node9&#45;&gt;Node10 -->
<g id="edge9" class="edge">
<title>Node9&#45;&gt;Node10</title>
<path fill="none" stroke="midnightblue" d="M144.83,-293C136.62,-293 127.82,-293 119.12,-293"/>
<polygon fill="midnightblue" stroke="midnightblue" points="144.86,-296.5 154.86,-293 144.86,-289.5 144.86,-296.5"/>
</g>
<!-- Node12 -->
<g id="node12" class="node">
<title>Node12</title>
<g id="a_node12"><a xlink:href="common__tlm__cmd__packet__for__driver__super_8c.html#a002a6f14e2139a1a3daee52eef6263c3" target="_top" xlink:title="C2A 間通信など， CCP をコンポ間通信に用いるときの tx_frame のセット">
<polygon fill="white" stroke="black" points="1755,-236.5 1755,-255.5 1903,-255.5 1903,-236.5 1755,-236.5"/>
<text text-anchor="middle" x="1829" y="-243.5" font-family="Helvetica,sans-Serif" font-size="10.00">CCP_set_tx_frame_to_dssc</text>
</a>
</g>
</g>
<!-- Node11&#45;&gt;Node12 -->
<g id="edge11" class="edge">
<title>Node11&#45;&gt;Node12</title>
<path fill="none" stroke="midnightblue" d="M1928.86,-248.14C1920.24,-247.96 1911.55,-247.77 1903.08,-247.58"/>
<polygon fill="midnightblue" stroke="midnightblue" points="1928.85,-251.64 1938.92,-248.36 1929,-244.65 1928.85,-251.64"/>
</g>
<!-- Node63 -->
<g id="node30" class="node">
<title>Node63</title>
<g id="a_node30"><a xlink:href="common__tlm__cmd__packet__for__driver__super_8c.html#ae1aabd87ca51290c19715ee53a0c4cd6" target="_top" xlink:title="C2A 間通信など， CTP をコンポ間通信に用いるときの tx_frame のセット">
<polygon fill="white" stroke="black" points="1755.5,-274.5 1755.5,-293.5 1902.5,-293.5 1902.5,-274.5 1755.5,-274.5"/>
<text text-anchor="middle" x="1829" y="-281.5" font-family="Helvetica,sans-Serif" font-size="10.00">CTP_set_tx_frame_to_dssc</text>
</a>
</g>
</g>
<!-- Node11&#45;&gt;Node63 -->
<g id="edge33" class="edge">
<title>Node11&#45;&gt;Node63</title>
<path fill="none" stroke="midnightblue" d="M1952.62,-261.4C1929.63,-265.64 1903.81,-270.4 1881.81,-274.45"/>
<polygon fill="midnightblue" stroke="midnightblue" points="1953.42,-264.82 1962.62,-259.56 1952.15,-257.93 1953.42,-264.82"/>
</g>
<!-- Node13 -->
<g id="node13" class="node">
<title>Node13</title>
<g id="a_node13"><a xlink:href="aobc_8c.html#a21bc4dfcbc36f4c3db4c9f59cd020414" target="_top" xlink:title="AOBC へのコマンド送信">
<polygon fill="white" stroke="black" points="1620,-236.5 1620,-255.5 1719,-255.5 1719,-236.5 1620,-236.5"/>
<text text-anchor="middle" x="1669.5" y="-243.5" font-family="Helvetica,sans-Serif" font-size="10.00">AOBC_send_cmd</text>
</a>
</g>
</g>
<!-- Node12&#45;&gt;Node13 -->
<g id="edge12" class="edge">
<title>Node12&#45;&gt;Node13</title>
<path fill="none" stroke="midnightblue" d="M1744.6,-246C1735.93,-246 1727.34,-246 1719.25,-246"/>
<polygon fill="midnightblue" stroke="midnightblue" points="1744.78,-249.5 1754.78,-246 1744.78,-242.5 1744.78,-249.5"/>
</g>
<!-- Node14 -->
<g id="node14" class="node">
<title>Node14</title>
<g id="a_node14"><a xlink:href="di__aobc_8c.html#af6a532abc7f23de92464ed5201d374fa" target="_top" xlink:title="CommonCmdPacket を AOBC に送信する">
<polygon fill="white" stroke="black" points="1423,-236.5 1423,-255.5 1584,-255.5 1584,-236.5 1423,-236.5"/>
<text text-anchor="middle" x="1503.5" y="-243.5" font-family="Helvetica,sans-Serif" font-size="10.00">DI_AOBC_dispatch_command</text>
</a>
</g>
</g>
<!-- Node13&#45;&gt;Node14 -->
<g id="edge13" class="edge">
<title>Node13&#45;&gt;Node14</title>
<path fill="none" stroke="midnightblue" d="M1609.49,-246C1601.24,-246 1592.65,-246 1584.1,-246"/>
<polygon fill="midnightblue" stroke="midnightblue" points="1609.74,-249.5 1619.74,-246 1609.74,-242.5 1609.74,-249.5"/>
</g>
<!-- Node15 -->
<g id="node15" class="node">
<title>Node15</title>
<g id="a_node15"><a xlink:href="user__packet__handler_8c.html#a30e628852fd804a52dc0d6ae476a8a01" target="_top" xlink:title="PH の PH_dispatch_command のユーザー処理関数">
<polygon fill="white" stroke="black" points="1252.5,-236.5 1252.5,-255.5 1369.5,-255.5 1369.5,-236.5 1252.5,-236.5"/>
<text text-anchor="middle" x="1311" y="-243.5" font-family="Helvetica,sans-Serif" font-size="10.00">PH_user_cmd_router</text>
</a>
</g>
</g>
<!-- Node14&#45;&gt;Node15 -->
<g id="edge14" class="edge">
<title>Node14&#45;&gt;Node15</title>
<path fill="none" stroke="midnightblue" d="M1412.72,-246C1398.07,-246 1383.24,-246 1369.64,-246"/>
<polygon fill="midnightblue" stroke="midnightblue" points="1412.81,-249.5 1422.81,-246 1412.81,-242.5 1412.81,-249.5"/>
</g>
<!-- Node16 -->
<g id="node16" class="node">
<title>Node16</title>
<g id="a_node16"><a xlink:href="packet__handler_8c.html#aa0decb14f7fee73ca1ed3e9a10b05087" target="_top" xlink:title="CCP をコマンドとして解釈して実行，ないしは別機器へ配送する">
<polygon fill="white" stroke="black" points="1046,-236.5 1046,-255.5 1177,-255.5 1177,-236.5 1046,-236.5"/>
<text text-anchor="middle" x="1111.5" y="-243.5" font-family="Helvetica,sans-Serif" font-size="10.00">PH_dispatch_command</text>
</a>
</g>
</g>
<!-- Node15&#45;&gt;Node16 -->
<g id="edge15" class="edge">
<title>Node15&#45;&gt;Node16</title>
<path fill="none" stroke="midnightblue" d="M1242.19,-246C1221.14,-246 1198,-246 1177.16,-246"/>
<polygon fill="midnightblue" stroke="midnightblue" points="1242.34,-249.5 1252.34,-246 1242.34,-242.5 1242.34,-249.5"/>
</g>
<!-- Node17 -->
<g id="node17" class="node">
<title>Node17</title>
<g id="a_node17"><a xlink:href="block__command__executor_8c.html#a1d6498edea23a380f4ae53bb0460eab0" target="_top" xlink:title="BC をまとめて一括で実行する">
<polygon fill="white" stroke="black" points="841.5,-236.5 841.5,-255.5 987.5,-255.5 987.5,-236.5 841.5,-236.5"/>
<text text-anchor="middle" x="914.5" y="-243.5" font-family="Helvetica,sans-Serif" font-size="10.00">BCE_combine_block_cmd_</text>
</a>
</g>
</g>
<!-- Node16&#45;&gt;Node17 -->
<g id="edge16" class="edge">
<title>Node16&#45;&gt;Node17</title>
<path fill="none" stroke="midnightblue" d="M1035.64,-246C1019.91,-246 1003.35,-246 987.73,-246"/>
<polygon fill="midnightblue" stroke="midnightblue" points="1035.84,-249.5 1045.84,-246 1035.84,-242.5 1035.84,-249.5"/>
</g>
<!-- Node22 -->
<g id="node22" class="node">
<title>Node22</title>
<g id="a_node22"><a xlink:href="block__command__executor_8c.html#acfd4781edc83a7f69a37cd5c7de290c1" target="_top" xlink:title="rotator の実行主体">
<polygon fill="white" stroke="black" points="847.5,-198.5 847.5,-217.5 981.5,-217.5 981.5,-198.5 847.5,-198.5"/>
<text text-anchor="middle" x="914.5" y="-205.5" font-family="Helvetica,sans-Serif" font-size="10.00">BCE_rotate_block_cmd_</text>
</a>
</g>
</g>
<!-- Node16&#45;&gt;Node22 -->
<g id="edge23" class="edge">
<title>Node16&#45;&gt;Node22</title>
<path fill="none" stroke="midnightblue" d="M1051.54,-234.51C1023.72,-229.09 990.9,-222.69 964.48,-217.54"/>
<polygon fill="midnightblue" stroke="midnightblue" points="1051.06,-237.98 1061.54,-236.46 1052.4,-231.11 1051.06,-237.98"/>
</g>
<!-- Node24 -->
<g id="node24" class="node">
<title>Node24</title>
<g id="a_node24"><a xlink:href="block__command__executor_8c.html#ac58bdb2e659454871477f4250903f51d" target="_top" xlink:title="BC をまとめて一括で実行する">
<polygon fill="white" stroke="black" points="847.5,-149 847.5,-179 981.5,-179 981.5,-149 847.5,-149"/>
<text text-anchor="start" x="855.5" y="-167" font-family="Helvetica,sans-Serif" font-size="10.00">BCE_timelimit_combine</text>
<text text-anchor="middle" x="914.5" y="-156" font-family="Helvetica,sans-Serif" font-size="10.00">_block_cmd_</text>
</a>
</g>
</g>
<!-- Node16&#45;&gt;Node24 -->
<g id="edge26" class="edge">
<title>Node16&#45;&gt;Node24</title>
<path fill="none" stroke="midnightblue" d="M1082.57,-231.99C1057.97,-219.91 1021.03,-202.34 988,-189 979.48,-185.56 970.29,-182.16 961.4,-179.02"/>
<polygon fill="midnightblue" stroke="midnightblue" points="1081.16,-235.2 1091.67,-236.5 1084.26,-228.93 1081.16,-235.2"/>
</g>
<!-- Node26 -->
<g id="node26" class="node">
<title>Node26</title>
<g id="a_node26"><a xlink:href="common__cmd__packet__util_8c.html#a667d05b68ff9924ced9b5bf3e419e0f1" target="_top" xlink:title="BC展開 command を生成し，即時実行する">
<polygon fill="white" stroke="red" points="841,-100 841,-130 988,-130 988,-100 841,-100"/>
<text text-anchor="start" x="849" y="-118" font-family="Helvetica,sans-Serif" font-size="10.00">CCP_form_and_exec_block</text>
<text text-anchor="middle" x="914.5" y="-107" font-family="Helvetica,sans-Serif" font-size="10.00">_deploy_cmd</text>
</a>
</g>
</g>
<!-- Node16&#45;&gt;Node26 -->
<g id="edge29" class="edge">
<title>Node16&#45;&gt;Node26</title>
<path fill="none" stroke="midnightblue" d="M1083.83,-231.33C1065.81,-220.67 1042.1,-205.17 1024,-188 1004.65,-169.65 1009.55,-155.7 988,-140 982.73,-136.16 976.82,-132.87 970.71,-130.07"/>
<polygon fill="midnightblue" stroke="midnightblue" points="1082.26,-234.46 1092.67,-236.44 1085.77,-228.4 1082.26,-234.46"/>
</g>
<!-- Node40 -->
<g id="node27" class="node">
<title>Node40</title>
<g id="a_node27"><a xlink:href="common__cmd__packet__util_8c.html#a6647f2fbe6dabb44871bd9216c315a46" target="_top" xlink:title="Realtime command を生成し，即時実行する">
<polygon fill="white" stroke="red" points="847.5,-362.5 847.5,-381.5 981.5,-381.5 981.5,-362.5 847.5,-362.5"/>
<text text-anchor="middle" x="914.5" y="-369.5" font-family="Helvetica,sans-Serif" font-size="10.00">CCP_form_and_exec_rtc</text>
</a>
</g>
</g>
<!-- Node16&#45;&gt;Node40 -->
<g id="edge30" class="edge">
<title>Node16&#45;&gt;Node40</title>
<path fill="none" stroke="midnightblue" d="M1095.69,-263.19C1074.3,-286.93 1032.42,-329.47 988,-353 980.76,-356.84 972.69,-359.94 964.64,-362.43"/>
<polygon fill="midnightblue" stroke="midnightblue" points="1098.36,-265.45 1102.37,-255.64 1093.12,-260.81 1098.36,-265.45"/>
</g>
<!-- Node45 -->
<g id="node28" class="node">
<title>Node45</title>
<g id="a_node28"><a xlink:href="common__cmd__packet__util_8c.html#abc96a827a712bd57b3fbd1b37d261682" target="_top" xlink:title="他の OBC のコマンドを RT として生成し，即時実行する">
<polygon fill="white" stroke="black" points="847.5,-313 847.5,-343 981.5,-343 981.5,-313 847.5,-313"/>
<text text-anchor="start" x="855.5" y="-331" font-family="Helvetica,sans-Serif" font-size="10.00">CCP_form_and_exec_rtc</text>
<text text-anchor="middle" x="914.5" y="-320" font-family="Helvetica,sans-Serif" font-size="10.00">_to_other_obc</text>
</a>
</g>
</g>
<!-- Node16&#45;&gt;Node45 -->
<g id="edge31" class="edge">
<title>Node16&#45;&gt;Node45</title>
<path fill="none" stroke="midnightblue" d="M1082.57,-260.01C1057.97,-272.09 1021.03,-289.66 988,-303 979.48,-306.44 970.29,-309.84 961.4,-312.98"/>
<polygon fill="midnightblue" stroke="midnightblue" points="1084.26,-263.07 1091.67,-255.5 1081.16,-256.8 1084.26,-263.07"/>
</g>
<!-- Node46 -->
<g id="node29" class="node">
<title>Node46</title>
<g id="a_node29"><a xlink:href="command__dispatcher_8c.html#a90617acff33923f51c212b8e3034712c" target="_top" xlink:title="CDIS に登録されているコマンドキューからコマンドを実行">
<polygon fill="white" stroke="red" points="844.5,-274.5 844.5,-293.5 984.5,-293.5 984.5,-274.5 844.5,-274.5"/>
<text text-anchor="middle" x="914.5" y="-281.5" font-family="Helvetica,sans-Serif" font-size="10.00">CDIS_dispatch_command</text>
</a>
</g>
</g>
<!-- Node16&#45;&gt;Node46 -->
<g id="edge32" class="edge">
<title>Node16&#45;&gt;Node46</title>
<path fill="none" stroke="midnightblue" d="M1051.54,-257.49C1023.72,-262.91 990.9,-269.31 964.48,-274.46"/>
<polygon fill="midnightblue" stroke="midnightblue" points="1052.4,-260.89 1061.54,-255.54 1051.06,-254.02 1052.4,-260.89"/>
</g>
<!-- Node18 -->
<g id="node18" class="node">
<title>Node18</title>
<g id="a_node18"><a xlink:href="block__command__executor_8c.html#abb0608b32539dc732cc08efca4a451df" target="_top" xlink:title=" ">
<polygon fill="white" stroke="black" points="642.5,-236.5 642.5,-255.5 796.5,-255.5 796.5,-236.5 642.5,-236.5"/>
<text text-anchor="middle" x="719.5" y="-243.5" font-family="Helvetica,sans-Serif" font-size="10.00">Cmd_BCE_COMBINE_BLOCK</text>
</a>
</g>
</g>
<!-- Node17&#45;&gt;Node18 -->
<g id="edge17" class="edge">
<title>Node17&#45;&gt;Node18</title>
<path fill="none" stroke="midnightblue" d="M831.36,-246C819.88,-246 808.12,-246 796.75,-246"/>
<polygon fill="midnightblue" stroke="midnightblue" points="831.36,-249.5 841.36,-246 831.36,-242.5 831.36,-249.5"/>
</g>
<!-- Node19 -->
<g id="node19" class="node">
<title>Node19</title>
<g id="a_node19"><a xlink:href="command__analyze_8h.html#aa375895192b16d8e7f0ff4545b54e6c4" target="_top" xlink:title="Cmd Tableのロード">
<polygon fill="white" stroke="black" points="485,-198.5 485,-217.5 598,-217.5 598,-198.5 485,-198.5"/>
<text text-anchor="middle" x="541.5" y="-205.5" font-family="Helvetica,sans-Serif" font-size="10.00">CA_load_cmd_table</text>
</a>
</g>
</g>
<!-- Node18&#45;&gt;Node19 -->
<g id="edge18" class="edge">
<title>Node18&#45;&gt;Node19</title>
<path fill="none" stroke="midnightblue" d="M664.07,-234.25C639.18,-228.87 610.08,-222.59 586.59,-217.52"/>
<polygon fill="midnightblue" stroke="midnightblue" points="663.57,-237.72 674.09,-236.41 665.05,-230.88 663.57,-237.72"/>
</g>
<!-- Node20 -->
<g id="node20" class="node">
<title>Node20</title>
<g id="a_node20"><a xlink:href="command__analyze_8c.html#ae6d1f376bf4e1c9c4b63bc3f04924c8a" target="_top" xlink:title="CA の初期化">
<polygon fill="white" stroke="black" points="372,-236.5 372,-255.5 449,-255.5 449,-236.5 372,-236.5"/>
<text text-anchor="middle" x="410.5" y="-243.5" font-family="Helvetica,sans-Serif" font-size="10.00">CA_initialize</text>
</a>
</g>
</g>
<!-- Node19&#45;&gt;Node20 -->
<g id="edge19" class="edge">
<title>Node19&#45;&gt;Node20</title>
<path fill="none" stroke="midnightblue" d="M497.95,-220.54C480.4,-225.7 460.39,-231.6 444.04,-236.41"/>
<polygon fill="midnightblue" stroke="midnightblue" points="499.34,-223.77 507.95,-217.59 497.37,-217.06 499.34,-223.77"/>
</g>
<!-- Node20&#45;&gt;Node8 -->
<g id="edge20" class="edge">
<title>Node20&#45;&gt;Node8</title>
<path fill="none" stroke="midnightblue" d="M377.18,-259.33C358.62,-266.98 335.74,-276.41 318.93,-283.34"/>
<polygon fill="midnightblue" stroke="midnightblue" points="378.52,-262.56 386.43,-255.51 375.85,-256.09 378.52,-262.56"/>
</g>
<!-- Node21 -->
<g id="node21" class="node">
<title>Node21</title>
<g id="a_node21"><a xlink:href="command__analyze_8c.html#a85d8daea84970ad2895a0209bd350b7b" target="_top" xlink:title=" ">
<polygon fill="white" stroke="black" points="253,-217.5 253,-236.5 336,-236.5 336,-217.5 253,-217.5"/>
<text text-anchor="middle" x="294.5" y="-224.5" font-family="Helvetica,sans-Serif" font-size="10.00">Cmd_CA_INIT</text>
</a>
</g>
</g>
<!-- Node20&#45;&gt;Node21 -->
<g id="edge21" class="edge">
<title>Node20&#45;&gt;Node21</title>
<path fill="none" stroke="midnightblue" d="M361.72,-238.04C353.25,-236.62 344.5,-235.17 336.24,-233.79"/>
<polygon fill="midnightblue" stroke="midnightblue" points="361.42,-241.53 371.86,-239.73 362.57,-234.63 361.42,-241.53"/>
</g>
<!-- Node21&#45;&gt;Node19 -->
<g id="edge22" class="edge">
<title>Node21&#45;&gt;Node19</title>
<path fill="none" stroke="midnightblue" d="M346.54,-223.04C386.96,-219.91 443.35,-215.53 484.91,-212.31"/>
<polygon fill="midnightblue" stroke="midnightblue" points="346.07,-219.57 336.37,-223.83 346.61,-226.55 346.07,-219.57"/>
</g>
<!-- Node23 -->
<g id="node23" class="node">
<title>Node23</title>
<g id="a_node23"><a xlink:href="block__command__executor_8c.html#adc05f3761578b7c2170e54e3f5b13c3e" target="_top" xlink:title=" ">
<polygon fill="white" stroke="black" points="647,-198.5 647,-217.5 792,-217.5 792,-198.5 647,-198.5"/>
<text text-anchor="middle" x="719.5" y="-205.5" font-family="Helvetica,sans-Serif" font-size="10.00">Cmd_BCE_ROTATE_BLOCK</text>
</a>
</g>
</g>
<!-- Node22&#45;&gt;Node23 -->
<g id="edge24" class="edge">
<title>Node22&#45;&gt;Node23</title>
<path fill="none" stroke="midnightblue" d="M837.2,-208C822.36,-208 806.86,-208 792.17,-208"/>
<polygon fill="midnightblue" stroke="midnightblue" points="837.35,-211.5 847.35,-208 837.35,-204.5 837.35,-211.5"/>
</g>
<!-- Node23&#45;&gt;Node19 -->
<g id="edge25" class="edge">
<title>Node23&#45;&gt;Node19</title>
<path fill="none" stroke="midnightblue" d="M636.53,-208C623.52,-208 610.32,-208 598.1,-208"/>
<polygon fill="midnightblue" stroke="midnightblue" points="636.91,-211.5 646.91,-208 636.91,-204.5 636.91,-211.5"/>
</g>
<!-- Node25 -->
<g id="node25" class="node">
<title>Node25</title>
<g id="a_node25"><a xlink:href="block__command__executor_8c.html#aaf3687244959da89ab0bc25a86cff912" target="_top" xlink:title=" ">
<polygon fill="white" stroke="black" points="634,-149 634,-179 805,-179 805,-149 634,-149"/>
<text text-anchor="start" x="642" y="-167" font-family="Helvetica,sans-Serif" font-size="10.00">Cmd_BCE_TIMELIMIT_COMBINE</text>
<text text-anchor="middle" x="719.5" y="-156" font-family="Helvetica,sans-Serif" font-size="10.00">_BLOCK</text>
</a>
</g>
</g>
<!-- Node24&#45;&gt;Node25 -->
<g id="edge27" class="edge">
<title>Node24&#45;&gt;Node25</title>
<path fill="none" stroke="midnightblue" d="M837.06,-164C826.63,-164 815.88,-164 805.32,-164"/>
<polygon fill="midnightblue" stroke="midnightblue" points="837.35,-167.5 847.35,-164 837.35,-160.5 837.35,-167.5"/>
</g>
<!-- Node25&#45;&gt;Node19 -->
<g id="edge28" class="edge">
<title>Node25&#45;&gt;Node19</title>
<path fill="none" stroke="midnightblue" d="M648.6,-181.47C625.39,-187.28 600.43,-193.52 580.55,-198.49"/>
<polygon fill="midnightblue" stroke="midnightblue" points="649.57,-184.84 658.42,-179.02 647.87,-178.05 649.57,-184.84"/>
</g>
<!-- Node65 -->
<g id="node32" class="node">
<title>Node65</title>
<g id="a_node32"><a xlink:href="gs_8c.html#a4621f4390191b12c281982f635516f67" target="_top" xlink:title="CCSDS 側 Driver の DS 上での初期化設定">
<polygon fill="white" stroke="black" points="1768,-324 1768,-354 1890,-354 1890,-324 1768,-324"/>
<text text-anchor="start" x="1776" y="-342" font-family="Helvetica,sans-Serif" font-size="10.00">GS_load_ccsds_driver</text>
<text text-anchor="middle" x="1829" y="-331" font-family="Helvetica,sans-Serif" font-size="10.00">_super_init_settings_</text>
</a>
</g>
</g>
<!-- Node64&#45;&gt;Node65 -->
<g id="edge35" class="edge">
<title>Node64&#45;&gt;Node65</title>
<path fill="none" stroke="midnightblue" d="M1940.25,-339C1923.61,-339 1906.16,-339 1890.18,-339"/>
<polygon fill="midnightblue" stroke="midnightblue" points="1940.49,-342.5 1950.49,-339 1940.49,-335.5 1940.49,-342.5"/>
</g>
<!-- Node71 -->
<g id="node38" class="node">
<title>Node71</title>
<g id="a_node38"><a xlink:href="gs_8c.html#a940de224a6d318a15603b46983cf69ea" target="_top" xlink:title="UART 側 Driver の DS 上での初期化設定">
<polygon fill="white" stroke="black" points="1769.5,-373 1769.5,-403 1888.5,-403 1888.5,-373 1769.5,-373"/>
<text text-anchor="start" x="1777.5" y="-391" font-family="Helvetica,sans-Serif" font-size="10.00">GS_load_uart_driver</text>
<text text-anchor="middle" x="1829" y="-380" font-family="Helvetica,sans-Serif" font-size="10.00">_super_init_settings_</text>
</a>
</g>
</g>
<!-- Node64&#45;&gt;Node71 -->
<g id="edge43" class="edge">
<title>Node64&#45;&gt;Node71</title>
<path fill="none" stroke="midnightblue" d="M1948.14,-356.62C1927.96,-361.98 1905.97,-367.82 1886.5,-372.99"/>
<polygon fill="midnightblue" stroke="midnightblue" points="1949.12,-359.98 1957.89,-354.03 1947.33,-353.22 1949.12,-359.98"/>
</g>
<!-- Node66 -->
<g id="node33" class="node">
<title>Node66</title>
<g id="a_node33"><a xlink:href="gs_8c.html#abb6888bc1931410614492718ca074bcc" target="_top" xlink:title="Driver の初期化">
<polygon fill="white" stroke="black" points="1644,-378.5 1644,-397.5 1695,-397.5 1695,-378.5 1644,-378.5"/>
<text text-anchor="middle" x="1669.5" y="-385.5" font-family="Helvetica,sans-Serif" font-size="10.00">GS_init</text>
</a>
</g>
</g>
<!-- Node65&#45;&gt;Node66 -->
<g id="edge36" class="edge">
<title>Node65&#45;&gt;Node66</title>
<path fill="none" stroke="midnightblue" d="M1769.8,-357.11C1744.11,-365.1 1715.3,-374.06 1695.35,-380.27"/>
<polygon fill="midnightblue" stroke="midnightblue" points="1770.95,-360.41 1779.46,-354.1 1768.87,-353.73 1770.95,-360.41"/>
</g>
<!-- Node67 -->
<g id="node34" class="node">
<title>Node67</title>
<g id="a_node34"><a xlink:href="di__gs_8c.html#a04fc98703a68e3bcc4ab9f6ba7f4f879" target="_top" xlink:title=" ">
<polygon fill="white" stroke="black" points="1467.5,-400.5 1467.5,-419.5 1539.5,-419.5 1539.5,-400.5 1467.5,-400.5"/>
<text text-anchor="middle" x="1503.5" y="-407.5" font-family="Helvetica,sans-Serif" font-size="10.00">DI_GS_init_</text>
</a>
</g>
</g>
<!-- Node66&#45;&gt;Node67 -->
<g id="edge37" class="edge">
<title>Node66&#45;&gt;Node67</title>
<path fill="none" stroke="midnightblue" d="M1633.9,-392.64C1606.17,-396.36 1567.41,-401.56 1539.55,-405.3"/>
<polygon fill="midnightblue" stroke="midnightblue" points="1634.5,-396.09 1643.95,-391.29 1633.57,-389.15 1634.5,-396.09"/>
</g>
<!-- Node68 -->
<g id="node35" class="node">
<title>Node68</title>
<g id="a_node35"><a xlink:href="di__gs_8c.html#ac1683b9b87dfb6e9e52f648f21b582d3" target="_top" xlink:title=" ">
<polygon fill="white" stroke="black" points="643.5,-337.5 643.5,-356.5 795.5,-356.5 795.5,-337.5 643.5,-337.5"/>
<text text-anchor="middle" x="719.5" y="-344.5" font-family="Helvetica,sans-Serif" font-size="10.00">Cmd_DI_GS_DRIVER_RESET</text>
</a>
</g>
</g>
<!-- Node67&#45;&gt;Node68 -->
<g id="edge38" class="edge">
<title>Node67&#45;&gt;Node68</title>
<path fill="none" stroke="midnightblue" d="M1457.08,-413.65C1349.08,-421.26 1068.96,-434.7 841,-391 804.25,-383.96 763.84,-367.21 740.4,-356.53"/>
<polygon fill="midnightblue" stroke="midnightblue" points="1457.57,-417.12 1467.29,-412.91 1457.06,-410.14 1457.57,-417.12"/>
</g>
<!-- Node69 -->
<g id="node36" class="node">
<title>Node69</title>
<g id="a_node36"><a xlink:href="di__gs_8c.html#ac9ba81d358b5839c5883cf526bc3f9c6" target="_top" xlink:title=" ">
<polygon fill="white" stroke="black" points="1235,-439 1235,-469 1387,-469 1387,-439 1235,-439"/>
<text text-anchor="start" x="1243" y="-457" font-family="Helvetica,sans-Serif" font-size="10.00">DI_GS_cmd_packet_handler</text>
<text text-anchor="middle" x="1311" y="-446" font-family="Helvetica,sans-Serif" font-size="10.00">_app_init_</text>
</a>
</g>
</g>
<!-- Node67&#45;&gt;Node69 -->
<g id="edge40" class="edge">
<title>Node67&#45;&gt;Node69</title>
<path fill="none" stroke="midnightblue" d="M1457.26,-420.45C1433.37,-425.97 1403.61,-432.84 1377.26,-438.93"/>
<polygon fill="midnightblue" stroke="midnightblue" points="1458.16,-423.83 1467.11,-418.17 1456.58,-417.01 1458.16,-423.83"/>
</g>
<!-- Node68&#45;&gt;Node19 -->
<g id="edge39" class="edge">
<title>Node68&#45;&gt;Node19</title>
<path fill="none" stroke="midnightblue" d="M698.38,-331.11C661.59,-302.06 584.54,-241.2 554.68,-217.62"/>
<polygon fill="midnightblue" stroke="midnightblue" points="696.39,-333.99 706.4,-337.45 700.72,-328.5 696.39,-333.99"/>
</g>
<!-- Node70 -->
<g id="node37" class="node">
<title>Node70</title>
<g id="a_node37"><a xlink:href="di__gs_8c.html#a707514fb93fd1f102b353a17f52534bb" target="_top" xlink:title=" ">
<polygon fill="white" stroke="black" points="1024,-444.5 1024,-463.5 1199,-463.5 1199,-444.5 1024,-444.5"/>
<text text-anchor="middle" x="1111.5" y="-451.5" font-family="Helvetica,sans-Serif" font-size="10.00">DI_GS_cmd_packet_handler_app</text>
</a>
</g>
</g>
<!-- Node69&#45;&gt;Node70 -->
<g id="edge41" class="edge">
<title>Node69&#45;&gt;Node70</title>
<path fill="none" stroke="midnightblue" d="M1224.56,-454C1216.11,-454 1207.54,-454 1199.09,-454"/>
<polygon fill="midnightblue" stroke="midnightblue" points="1224.77,-457.5 1234.77,-454 1224.77,-450.5 1224.77,-457.5"/>
</g>
<!-- Node70&#45;&gt;Node7 -->
<g id="edge42" class="edge">
<title>Node70&#45;&gt;Node7</title>
<path fill="none" stroke="midnightblue" d="M1013.52,-454C1002.75,-454 991.97,-454 981.7,-454"/>
<polygon fill="midnightblue" stroke="midnightblue" points="1013.83,-457.5 1023.83,-454 1013.83,-450.5 1013.83,-457.5"/>
</g>
<!-- Node71&#45;&gt;Node66 -->
<g id="edge44" class="edge">
<title>Node71&#45;&gt;Node66</title>
<path fill="none" stroke="midnightblue" d="M1759.28,-388C1736.37,-388 1712.3,-388 1695.02,-388"/>
<polygon fill="midnightblue" stroke="midnightblue" points="1759.35,-391.5 1769.35,-388 1759.35,-384.5 1759.35,-391.5"/>
</g>
<!-- Node73 -->
<g id="node40" class="node">
<title>Node73</title>
<g id="a_node40"><a xlink:href="i2c__common_8c.html#ae5f91fa48b36ebf1fa4990650b8ac232" target="_top" xlink:title="I2C_Config 構造体にて指定されたデバイスのレジスタから 2 バイトデータを読み込む">
<polygon fill="white" stroke="black" points="1780,-76.5 1780,-95.5 1878,-95.5 1878,-76.5 1780,-76.5"/>
<text text-anchor="middle" x="1829" y="-83.5" font-family="Helvetica,sans-Serif" font-size="10.00">I2C_read_2bytes</text>
</a>
</g>
</g>
<!-- Node72&#45;&gt;Node73 -->
<g id="edge46" class="edge">
<title>Node72&#45;&gt;Node73</title>
<path fill="none" stroke="midnightblue" d="M1958.13,-112.39C1931.89,-106.99 1901.06,-100.64 1876.22,-95.52"/>
<polygon fill="midnightblue" stroke="midnightblue" points="1957.44,-115.82 1967.94,-114.41 1958.85,-108.97 1957.44,-115.82"/>
</g>
<!-- Node74 -->
<g id="node41" class="node">
<title>Node74</title>
<g id="a_node41"><a xlink:href="i2c__common_8c.html#ad4e2ceb4c7fba8042920b7f67d2b5980" target="_top" xlink:title="I2C_Config 構造体にて指定されたデバイスのレジスタから 1 バイトデータを読み込む">
<polygon fill="white" stroke="black" points="1786,-114.5 1786,-133.5 1872,-133.5 1872,-114.5 1786,-114.5"/>
<text text-anchor="middle" x="1829" y="-121.5" font-family="Helvetica,sans-Serif" font-size="10.00">I2C_read_byte</text>
</a>
</g>
</g>
<!-- Node72&#45;&gt;Node74 -->
<g id="edge47" class="edge">
<title>Node72&#45;&gt;Node74</title>
<path fill="none" stroke="midnightblue" d="M1956.73,-124C1929.28,-124 1897.08,-124 1872.01,-124"/>
<polygon fill="midnightblue" stroke="midnightblue" points="1956.99,-127.5 1966.99,-124 1956.99,-120.5 1956.99,-127.5"/>
</g>
<!-- Node76 -->
<g id="node43" class="node">
<title>Node76</title>
<g id="a_node43"><a xlink:href="i2c__common_8c.html#a01d8acbc3ab4e554a5c49b11b80e2804" target="_top" xlink:title="I2C_Config 構造体にて指定されたデバイスのレジスタへ 2 バイトデータを書き込む">
<polygon fill="white" stroke="black" points="1778.5,-0.5 1778.5,-19.5 1879.5,-19.5 1879.5,-0.5 1778.5,-0.5"/>
<text text-anchor="middle" x="1829" y="-7.5" font-family="Helvetica,sans-Serif" font-size="10.00">I2C_write_2bytes</text>
</a>
</g>
</g>
<!-- Node75&#45;&gt;Node76 -->
<g id="edge49" class="edge">
<title>Node75&#45;&gt;Node76</title>
<path fill="none" stroke="midnightblue" d="M1958.13,-36.39C1931.89,-30.99 1901.06,-24.64 1876.22,-19.52"/>
<polygon fill="midnightblue" stroke="midnightblue" points="1957.44,-39.82 1967.94,-38.41 1958.85,-32.97 1957.44,-39.82"/>
</g>
<!-- Node77 -->
<g id="node44" class="node">
<title>Node77</title>
<g id="a_node44"><a xlink:href="i2c__common_8c.html#a3c6f28a1e63b048b078b08f9f0071710" target="_top" xlink:title="I2C_Config 構造体にて指定されたデバイスのレジスタへ 1 バイトデータを書き込む">
<polygon fill="white" stroke="black" points="1784.5,-38.5 1784.5,-57.5 1873.5,-57.5 1873.5,-38.5 1784.5,-38.5"/>
<text text-anchor="middle" x="1829" y="-45.5" font-family="Helvetica,sans-Serif" font-size="10.00">I2C_write_byte</text>
</a>
</g>
</g>
<!-- Node75&#45;&gt;Node77 -->
<g id="edge50" class="edge">
<title>Node75&#45;&gt;Node77</title>
<path fill="none" stroke="midnightblue" d="M1954.77,-48C1928.35,-48 1897.84,-48 1873.6,-48"/>
<polygon fill="midnightblue" stroke="midnightblue" points="1955.06,-51.5 1965.06,-48 1955.06,-44.5 1955.06,-51.5"/>
</g>
<!-- Node79 -->
<g id="node46" class="node">
<title>Node79</title>
<g id="a_node46"><a xlink:href="uart__test_8c.html#a77024ec4ff3b5707e74c2672f75903be" target="_top" xlink:title="UART_TEST初期化">
<polygon fill="white" stroke="black" points="1782.5,-194.5 1782.5,-213.5 1875.5,-213.5 1875.5,-194.5 1782.5,-194.5"/>
<text text-anchor="middle" x="1829" y="-201.5" font-family="Helvetica,sans-Serif" font-size="10.00">UART_TEST_init</text>
</a>
</g>
</g>
<!-- Node78&#45;&gt;Node79 -->
<g id="edge52" class="edge">
<title>Node78&#45;&gt;Node79</title>
<path fill="none" stroke="midnightblue" d="M1939.32,-205.18C1917.74,-204.95 1894.86,-204.7 1875.65,-204.49"/>
<polygon fill="midnightblue" stroke="midnightblue" points="1939.41,-208.69 1949.45,-205.29 1939.49,-201.69 1939.41,-208.69"/>
</g>
<!-- Node80 -->
<g id="node47" class="node">
<title>Node80</title>
<g id="a_node47"><a xlink:href="di__uart__test_8c.html#a480c3ad63adf77375e50cf42ea37422d" target="_top" xlink:title=" ">
<polygon fill="white" stroke="black" points="1620.5,-191.5 1620.5,-210.5 1718.5,-210.5 1718.5,-191.5 1620.5,-191.5"/>
<text text-anchor="middle" x="1669.5" y="-198.5" font-family="Helvetica,sans-Serif" font-size="10.00">UART_TEST_init_</text>
</a>
</g>
</g>
<!-- Node79&#45;&gt;Node80 -->
<g id="edge53" class="edge">
<title>Node79&#45;&gt;Node80</title>
<path fill="none" stroke="midnightblue" d="M1772.35,-202.94C1754.84,-202.61 1735.65,-202.24 1718.7,-201.92"/>
<polygon fill="midnightblue" stroke="midnightblue" points="1772.38,-206.44 1782.44,-203.13 1772.51,-199.44 1772.38,-206.44"/>
</g>
<!-- Node81 -->
<g id="node48" class="node">
<title>Node81</title>
<g id="a_node48"><a xlink:href="di__uart__test_8c.html#aee9d038befc8e899bdb037ca9cbf5b8f" target="_top" xlink:title=" ">
<polygon fill="white" stroke="black" points="1041.5,-159.5 1041.5,-178.5 1181.5,-178.5 1181.5,-159.5 1041.5,-159.5"/>
<text text-anchor="middle" x="1111.5" y="-166.5" font-family="Helvetica,sans-Serif" font-size="10.00">Cmd_UART_TEST_INIT_DI</text>
</a>
</g>
</g>
<!-- Node80&#45;&gt;Node81 -->
<g id="edge54" class="edge">
<title>Node80&#45;&gt;Node81</title>
<path fill="none" stroke="midnightblue" d="M1609.88,-197.63C1506.48,-191.68 1292.21,-179.34 1181.72,-172.98"/>
<polygon fill="midnightblue" stroke="midnightblue" points="1609.95,-201.14 1620.13,-198.22 1610.35,-194.15 1609.95,-201.14"/>
</g>
<!-- Node81&#45;&gt;Node19 -->
<g id="edge55" class="edge">
<title>Node81&#45;&gt;Node19</title>
<path fill="none" stroke="midnightblue" d="M1092.35,-152.65C1069.79,-133.54 1029.21,-103.01 988,-91 925.27,-72.73 905.89,-83.42 841,-91 747.1,-101.96 719.71,-100.09 634,-140 601.17,-155.29 568.52,-183.47 552.57,-198.29"/>
<polygon fill="midnightblue" stroke="midnightblue" points="1090.23,-155.44 1100.07,-159.35 1094.81,-150.16 1090.23,-155.44"/>
</g>
<!-- Node83 -->
<g id="node50" class="node">
<title>Node83</title>
<g id="a_node50"><a xlink:href="di__uart__test_8c.html#ab9d387e3321abf7f9c5429c412db6d7f" target="_top" xlink:title=" ">
<polygon fill="white" stroke="black" points="1031,-53.5 1031,-72.5 1192,-72.5 1192,-53.5 1031,-53.5"/>
<text text-anchor="middle" x="1111.5" y="-60.5" font-family="Helvetica,sans-Serif" font-size="10.00">Cmd_UART_TEST_SEND_TEST</text>
</a>
</g>
</g>
<!-- Node82&#45;&gt;Node83 -->
<g id="edge57" class="edge">
<title>Node82&#45;&gt;Node83</title>
<path fill="none" stroke="midnightblue" d="M1954.76,-162C1886.14,-162 1770.19,-162 1670.5,-162 1670.5,-162 1670.5,-162 1502.5,-162 1358.25,-162 1192.95,-97.58 1134.43,-72.67"/>
<polygon fill="midnightblue" stroke="midnightblue" points="1954.94,-165.5 1964.94,-162 1954.94,-158.5 1954.94,-165.5"/>
</g>
<!-- Node83&#45;&gt;Node19 -->
<g id="edge58" class="edge">
<title>Node83&#45;&gt;Node19</title>
<path fill="none" stroke="midnightblue" d="M1052.88,-51.82C958.98,-36.65 769.82,-19.02 634,-91 587.75,-115.51 557.31,-174.72 546.69,-198.18"/>
<polygon fill="midnightblue" stroke="midnightblue" points="1052.32,-55.28 1062.76,-53.47 1053.47,-48.37 1052.32,-55.28"/>
</g>
</g>
</svg>
