<?xml version="1.0" encoding="UTF-8" standalone="no"?>
<!DOCTYPE svg PUBLIC "-//W3C//DTD SVG 1.1//EN"
 "http://www.w3.org/Graphics/SVG/1.1/DTD/svg11.dtd">
<!-- Generated by graphviz version 2.43.0 (0)
 -->
<!-- Title: src/src_core/Drivers/Super/driver_super.c Pages: 1 -->
<svg width="1684pt" height="675pt"
 viewBox="0.00 0.00 1684.40 675.00" xmlns="http://www.w3.org/2000/svg" xmlns:xlink="http://www.w3.org/1999/xlink">
<g id="graph0" class="graph" transform="scale(1 1) rotate(0) translate(4 671)">
<title>src/src_core/Drivers/Super/driver_super.c</title>
<polygon fill="white" stroke="transparent" points="-4,4 -4,-671 1680.4,-671 1680.4,4 -4,4"/>
<!-- Node1 -->
<g id="node1" class="node">
<title>Node1</title>
<g id="a_node1"><a xlink:title="各制御センサ・アクチュエータ等とのインターフェースドライバ群のスーパークラス">
<polygon fill="#bfbfbf" stroke="black" points="368.9,-636.5 368.9,-666.5 487.9,-666.5 487.9,-636.5 368.9,-636.5"/>
<text text-anchor="start" x="376.9" y="-654.5" font-family="Helvetica,sans-Serif" font-size="10.00">src/src_core/Drivers</text>
<text text-anchor="middle" x="428.4" y="-643.5" font-family="Helvetica,sans-Serif" font-size="10.00">/Super/driver_super.c</text>
</a>
</g>
</g>
<!-- Node2 -->
<g id="node2" class="node">
<title>Node2</title>
<g id="a_node2"><a xlink:href="driver__super_8h.html" target="_top" xlink:title="各制御センサ・アクチュエータ等とのインターフェースドライバ群のスーパークラス">
<polygon fill="white" stroke="black" points="305.4,-435.5 305.4,-454.5 391.4,-454.5 391.4,-435.5 305.4,-435.5"/>
<text text-anchor="middle" x="348.4" y="-442.5" font-family="Helvetica,sans-Serif" font-size="10.00">driver_super.h</text>
</a>
</g>
</g>
<!-- Node1&#45;&gt;Node2 -->
<g id="edge1" class="edge">
<title>Node1&#45;&gt;Node2</title>
<path fill="none" stroke="midnightblue" d="M403.62,-636.41C390.63,-627.66 375.72,-615.19 367.4,-600 343.42,-556.21 344.2,-495.12 346.46,-464.72"/>
<polygon fill="midnightblue" stroke="midnightblue" points="349.96,-464.94 347.35,-454.67 342.98,-464.33 349.96,-464.94"/>
</g>
<!-- Node9 -->
<g id="node9" class="node">
<title>Node9</title>
<g id="a_node9"><a xlink:title=" ">
<polygon fill="white" stroke="#bfbfbf" points="235.4,-290.5 235.4,-309.5 291.4,-309.5 291.4,-290.5 235.4,-290.5"/>
<text text-anchor="middle" x="263.4" y="-297.5" font-family="Helvetica,sans-Serif" font-size="10.00">stddef.h</text>
</a>
</g>
</g>
<!-- Node1&#45;&gt;Node9 -->
<g id="edge29" class="edge">
<title>Node1&#45;&gt;Node9</title>
<path fill="none" stroke="midnightblue" d="M368.72,-644.6C251.48,-631.35 2.4,-594.28 2.4,-518.5 2.4,-518.5 2.4,-518.5 2.4,-444 2.4,-404.51 -7.2,-385.23 20.4,-357 48.58,-328.18 164.35,-311.65 225.37,-304.79"/>
<polygon fill="midnightblue" stroke="midnightblue" points="225.82,-308.26 235.38,-303.69 225.06,-301.3 225.82,-308.26"/>
</g>
<!-- Node21 -->
<g id="node21" class="node">
<title>Node21</title>
<g id="a_node21"><a xlink:href="print_8h.html" target="_top" xlink:title="HW 依存 Print, つまり ログ情報のフォーマット出力（デバッグ出力）">
<polygon fill="white" stroke="black" points="376.9,-575 376.9,-594 479.9,-594 479.9,-575 376.9,-575"/>
<text text-anchor="middle" x="428.4" y="-582" font-family="Helvetica,sans-Serif" font-size="10.00">../../Library/print.h</text>
</a>
</g>
</g>
<!-- Node1&#45;&gt;Node21 -->
<g id="edge27" class="edge">
<title>Node1&#45;&gt;Node21</title>
<path fill="none" stroke="midnightblue" d="M428.4,-636.4C428.4,-627.06 428.4,-614.71 428.4,-604.52"/>
<polygon fill="midnightblue" stroke="midnightblue" points="431.9,-604.19 428.4,-594.19 424.9,-604.19 431.9,-604.19"/>
</g>
<!-- Node22 -->
<g id="node22" class="node">
<title>Node22</title>
<g id="a_node22"><a xlink:title=" ">
<polygon fill="white" stroke="#bfbfbf" points="497.9,-575 497.9,-594 550.9,-594 550.9,-575 497.9,-575"/>
<text text-anchor="middle" x="524.4" y="-582" font-family="Helvetica,sans-Serif" font-size="10.00">string.h</text>
</a>
</g>
</g>
<!-- Node1&#45;&gt;Node22 -->
<g id="edge28" class="edge">
<title>Node1&#45;&gt;Node22</title>
<path fill="none" stroke="midnightblue" d="M449.23,-636.4C465.18,-625.6 487.1,-610.76 503.15,-599.89"/>
<polygon fill="midnightblue" stroke="midnightblue" points="505.52,-602.51 511.84,-594.01 501.59,-596.72 505.52,-602.51"/>
</g>
<!-- Node23 -->
<g id="node23" class="node">
<title>Node23</title>
<g id="a_node23"><a xlink:href="common__cmd__packet__util_8h.html" target="_top" xlink:title="CCP の汎用 Utility">
<polygon fill="white" stroke="black" points="848.4,-569.5 848.4,-599.5 970.4,-599.5 970.4,-569.5 848.4,-569.5"/>
<text text-anchor="start" x="856.4" y="-587.5" font-family="Helvetica,sans-Serif" font-size="10.00">../../TlmCmd/common</text>
<text text-anchor="middle" x="909.4" y="-576.5" font-family="Helvetica,sans-Serif" font-size="10.00">_cmd_packet_util.h</text>
</a>
</g>
</g>
<!-- Node1&#45;&gt;Node23 -->
<g id="edge30" class="edge">
<title>Node1&#45;&gt;Node23</title>
<path fill="none" stroke="midnightblue" d="M488.35,-642.4C577.16,-630.4 743.38,-607.94 838.24,-595.12"/>
<polygon fill="midnightblue" stroke="midnightblue" points="838.88,-598.56 848.32,-593.75 837.94,-591.63 838.88,-598.56"/>
</g>
<!-- Node3 -->
<g id="node3" class="node">
<title>Node3</title>
<g id="a_node3"><a xlink:href="if__list_8h.html" target="_top" xlink:title=" ">
<polygon fill="white" stroke="black" points="291.4,-207 291.4,-237 399.4,-237 399.4,-207 291.4,-207"/>
<text text-anchor="start" x="299.4" y="-225" font-family="Helvetica,sans-Serif" font-size="10.00">src_user/IfWrapper</text>
<text text-anchor="middle" x="345.4" y="-214" font-family="Helvetica,sans-Serif" font-size="10.00">/if_list.h</text>
</a>
</g>
</g>
<!-- Node2&#45;&gt;Node3 -->
<g id="edge2" class="edge">
<title>Node2&#45;&gt;Node3</title>
<path fill="none" stroke="midnightblue" d="M348.28,-435.34C347.86,-404.09 346.4,-296.48 345.73,-247.55"/>
<polygon fill="midnightblue" stroke="midnightblue" points="349.23,-247.21 345.59,-237.25 342.23,-247.3 349.23,-247.21"/>
</g>
<!-- Node5 -->
<g id="node5" class="node">
<title>Node5</title>
<g id="a_node5"><a xlink:href="stdint_8h.html" target="_top" xlink:title=" ">
<polygon fill="white" stroke="black" points="436.4,-67.5 436.4,-86.5 570.4,-86.5 570.4,-67.5 436.4,-67.5"/>
<text text-anchor="middle" x="503.4" y="-74.5" font-family="Helvetica,sans-Serif" font-size="10.00">src_user/Library/stdint.h</text>
</a>
</g>
</g>
<!-- Node2&#45;&gt;Node5 -->
<g id="edge8" class="edge">
<title>Node2&#45;&gt;Node5</title>
<path fill="none" stroke="midnightblue" d="M352.08,-435.31C372.06,-388.14 467.63,-162.46 495.66,-96.28"/>
<polygon fill="midnightblue" stroke="midnightblue" points="499.01,-97.34 499.69,-86.77 492.57,-94.61 499.01,-97.34"/>
</g>
<!-- Node8 -->
<g id="node8" class="node">
<title>Node8</title>
<g id="a_node8"><a xlink:href="endian_8h.html" target="_top" xlink:title="エンディアンに関するものを定義する">
<polygon fill="white" stroke="black" points="206.9,-363 206.9,-382 319.9,-382 319.9,-363 206.9,-363"/>
<text text-anchor="middle" x="263.4" y="-370" font-family="Helvetica,sans-Serif" font-size="10.00">../../Library/endian.h</text>
</a>
</g>
</g>
<!-- Node2&#45;&gt;Node8 -->
<g id="edge9" class="edge">
<title>Node2&#45;&gt;Node8</title>
<path fill="none" stroke="midnightblue" d="M337.98,-435.36C323.96,-423.73 298.81,-402.86 281.62,-388.61"/>
<polygon fill="midnightblue" stroke="midnightblue" points="283.84,-385.91 273.91,-382.22 279.37,-391.29 283.84,-385.91"/>
</g>
<!-- Node10 -->
<g id="node10" class="node">
<title>Node10</title>
<g id="a_node10"><a xlink:href="time__manager_8h.html" target="_top" xlink:title="OBC時刻のカウントアップと，各種衛星時刻関連処理">
<polygon fill="white" stroke="black" points="452.4,-357.5 452.4,-387.5 594.4,-387.5 594.4,-357.5 452.4,-357.5"/>
<text text-anchor="start" x="460.4" y="-375.5" font-family="Helvetica,sans-Serif" font-size="10.00">../../System/TimeManager</text>
<text text-anchor="middle" x="523.4" y="-364.5" font-family="Helvetica,sans-Serif" font-size="10.00">/time_manager.h</text>
</a>
</g>
</g>
<!-- Node2&#45;&gt;Node10 -->
<g id="edge11" class="edge">
<title>Node2&#45;&gt;Node10</title>
<path fill="none" stroke="midnightblue" d="M369.51,-435.5C396.52,-424.62 443.99,-405.49 479.09,-391.35"/>
<polygon fill="midnightblue" stroke="midnightblue" points="480.67,-394.49 488.63,-387.51 478.05,-388 480.67,-394.49"/>
</g>
<!-- Node20 -->
<g id="node20" class="node">
<title>Node20</title>
<g id="a_node20"><a xlink:href="driver__super__params_8h.html" target="_top" xlink:title="DriverSuperパラメタのオーバーライド用ヘッダー">
<polygon fill="white" stroke="black" points="29.9,-357.5 29.9,-387.5 188.9,-387.5 188.9,-357.5 29.9,-357.5"/>
<text text-anchor="start" x="37.9" y="-375.5" font-family="Helvetica,sans-Serif" font-size="10.00">src_user/Settings/Driver</text>
<text text-anchor="middle" x="109.4" y="-364.5" font-family="Helvetica,sans-Serif" font-size="10.00">Super/driver_super_params.h</text>
</a>
</g>
</g>
<!-- Node2&#45;&gt;Node20 -->
<g id="edge26" class="edge">
<title>Node2&#45;&gt;Node20</title>
<path fill="none" stroke="midnightblue" d="M319.57,-435.5C281.82,-424.36 214.79,-404.59 166.57,-390.36"/>
<polygon fill="midnightblue" stroke="midnightblue" points="167.46,-386.98 156.88,-387.51 165.48,-393.69 167.46,-386.98"/>
</g>
<!-- Node4 -->
<g id="node4" class="node">
<title>Node4</title>
<g id="a_node4"><a xlink:href="ccsds_8h.html" target="_top" xlink:title="CCSDS通信ラッパーのクラスです。(MOBC用 バックグラウンド取り込みVer)">
<polygon fill="white" stroke="black" points="291.4,-134.5 291.4,-164.5 399.4,-164.5 399.4,-134.5 291.4,-134.5"/>
<text text-anchor="start" x="299.4" y="-152.5" font-family="Helvetica,sans-Serif" font-size="10.00">src_core/IfWrapper</text>
<text text-anchor="middle" x="345.4" y="-141.5" font-family="Helvetica,sans-Serif" font-size="10.00">/ccsds.h</text>
</a>
</g>
</g>
<!-- Node3&#45;&gt;Node4 -->
<g id="edge3" class="edge">
<title>Node3&#45;&gt;Node4</title>
<path fill="none" stroke="midnightblue" d="M345.4,-206.73C345.4,-197.66 345.4,-185.66 345.4,-175.08"/>
<polygon fill="midnightblue" stroke="midnightblue" points="348.9,-174.75 345.4,-164.75 341.9,-174.75 348.9,-174.75"/>
</g>
<!-- Node7 -->
<g id="node7" class="node">
<title>Node7</title>
<g id="a_node7"><a xlink:href="uart_8h.html" target="_top" xlink:title="UART通信ラッパーのクラスです。">
<polygon fill="white" stroke="black" points="165.4,-134.5 165.4,-164.5 273.4,-164.5 273.4,-134.5 165.4,-134.5"/>
<text text-anchor="start" x="173.4" y="-152.5" font-family="Helvetica,sans-Serif" font-size="10.00">src_core/IfWrapper</text>
<text text-anchor="middle" x="219.4" y="-141.5" font-family="Helvetica,sans-Serif" font-size="10.00">/uart.h</text>
</a>
</g>
</g>
<!-- Node3&#45;&gt;Node7 -->
<g id="edge6" class="edge">
<title>Node3&#45;&gt;Node7</title>
<path fill="none" stroke="midnightblue" d="M320.21,-206.9C301.06,-196.19 274.53,-181.35 253.49,-169.57"/>
<polygon fill="midnightblue" stroke="midnightblue" points="254.99,-166.4 244.55,-164.57 251.57,-172.51 254.99,-166.4"/>
</g>
<!-- Node4&#45;&gt;Node5 -->
<g id="edge4" class="edge">
<title>Node4&#45;&gt;Node5</title>
<path fill="none" stroke="midnightblue" d="M377,-134.4C405.55,-121.66 447.21,-103.07 474.8,-90.76"/>
<polygon fill="midnightblue" stroke="midnightblue" points="476.57,-93.8 484.28,-86.53 473.72,-87.41 476.57,-93.8"/>
</g>
<!-- Node6 -->
<g id="node6" class="node">
<title>Node6</title>
<g id="a_node6"><a xlink:href="sils__define_8h.html" target="_top" xlink:title="Switch the build settings between your real OBC and SILS">
<polygon fill="white" stroke="black" points="438.9,-0.5 438.9,-19.5 567.9,-19.5 567.9,-0.5 438.9,-0.5"/>
<text text-anchor="middle" x="503.4" y="-7.5" font-family="Helvetica,sans-Serif" font-size="10.00">../Settings/sils_define.h</text>
</a>
</g>
</g>
<!-- Node5&#45;&gt;Node6 -->
<g id="edge5" class="edge">
<title>Node5&#45;&gt;Node6</title>
<path fill="none" stroke="midnightblue" d="M503.4,-67.23C503.4,-57.68 503.4,-42.12 503.4,-29.78"/>
<polygon fill="midnightblue" stroke="midnightblue" points="506.9,-29.63 503.4,-19.63 499.9,-29.63 506.9,-29.63"/>
</g>
<!-- Node7&#45;&gt;Node5 -->
<g id="edge7" class="edge">
<title>Node7&#45;&gt;Node5</title>
<path fill="none" stroke="midnightblue" d="M273.49,-135.07C327.39,-121.69 409.16,-101.4 459.26,-88.96"/>
<polygon fill="midnightblue" stroke="midnightblue" points="460.29,-92.31 469.15,-86.5 458.6,-85.51 460.29,-92.31"/>
</g>
<!-- Node8&#45;&gt;Node9 -->
<g id="edge10" class="edge">
<title>Node8&#45;&gt;Node9</title>
<path fill="none" stroke="midnightblue" d="M263.4,-362.86C263.4,-352.18 263.4,-333.72 263.4,-319.73"/>
<polygon fill="midnightblue" stroke="midnightblue" points="266.9,-319.72 263.4,-309.72 259.9,-319.72 266.9,-319.72"/>
</g>
<!-- Node11 -->
<g id="node11" class="node">
<title>Node11</title>
<g id="a_node11"><a xlink:href="obc__time_8h.html" target="_top" xlink:title="OBCの時刻情報の定義と演算">
<polygon fill="white" stroke="black" points="512.9,-212.5 512.9,-231.5 583.9,-231.5 583.9,-212.5 512.9,-212.5"/>
<text text-anchor="middle" x="548.4" y="-219.5" font-family="Helvetica,sans-Serif" font-size="10.00">obc_time.h</text>
</a>
</g>
</g>
<!-- Node10&#45;&gt;Node11 -->
<g id="edge12" class="edge">
<title>Node10&#45;&gt;Node11</title>
<path fill="none" stroke="midnightblue" d="M520.4,-357.47C517.01,-339.14 512.78,-306.17 519.4,-279 522.77,-265.15 530.21,-250.91 536.71,-240.26"/>
<polygon fill="midnightblue" stroke="midnightblue" points="539.82,-241.9 542.27,-231.59 533.93,-238.12 539.82,-241.9"/>
</g>
<!-- Node13 -->
<g id="node13" class="node">
<title>Node13</title>
<g id="a_node13"><a xlink:href="common__cmd__packet_8h.html" target="_top" xlink:title="CCP 関連基本関数の宣言">
<polygon fill="white" stroke="black" points="728.4,-285 728.4,-315 850.4,-315 850.4,-285 728.4,-285"/>
<text text-anchor="start" x="736.4" y="-303" font-family="Helvetica,sans-Serif" font-size="10.00">../../TlmCmd/common</text>
<text text-anchor="middle" x="789.4" y="-292" font-family="Helvetica,sans-Serif" font-size="10.00">_cmd_packet.h</text>
</a>
</g>
</g>
<!-- Node10&#45;&gt;Node13 -->
<g id="edge15" class="edge">
<title>Node10&#45;&gt;Node13</title>
<path fill="none" stroke="midnightblue" d="M578.96,-357.45C618.02,-347.48 671.48,-333.68 718.4,-321 722.25,-319.96 726.22,-318.87 730.22,-317.77"/>
<polygon fill="midnightblue" stroke="midnightblue" points="731.47,-321.06 740.17,-315.01 729.6,-314.31 731.47,-321.06"/>
</g>
<!-- Node11&#45;&gt;Node5 -->
<g id="edge13" class="edge">
<title>Node11&#45;&gt;Node5</title>
<path fill="none" stroke="midnightblue" d="M545.72,-212.48C538.58,-189.79 518.96,-127.45 509.15,-96.27"/>
<polygon fill="midnightblue" stroke="midnightblue" points="512.46,-95.14 506.12,-86.65 505.79,-97.24 512.46,-95.14"/>
</g>
<!-- Node12 -->
<g id="node12" class="node">
<title>Node12</title>
<g id="a_node12"><a xlink:href="obc__time__params_8h.html" target="_top" xlink:title="OBCTのCoreパラメタのオーバーライド用ヘッダー">
<polygon fill="white" stroke="black" points="550.4,-134.5 550.4,-164.5 690.4,-164.5 690.4,-134.5 550.4,-134.5"/>
<text text-anchor="start" x="558.4" y="-152.5" font-family="Helvetica,sans-Serif" font-size="10.00">src_user/Settings/System</text>
<text text-anchor="middle" x="620.4" y="-141.5" font-family="Helvetica,sans-Serif" font-size="10.00">/obc_time_params.h</text>
</a>
</g>
</g>
<!-- Node11&#45;&gt;Node12 -->
<g id="edge14" class="edge">
<title>Node11&#45;&gt;Node12</title>
<path fill="none" stroke="midnightblue" d="M557.23,-212.36C567.5,-202.3 584.81,-185.35 598.72,-171.73"/>
<polygon fill="midnightblue" stroke="midnightblue" points="601.33,-174.07 606.03,-164.58 596.43,-169.07 601.33,-174.07"/>
</g>
<!-- Node13&#45;&gt;Node11 -->
<g id="edge16" class="edge">
<title>Node13&#45;&gt;Node11</title>
<path fill="none" stroke="midnightblue" d="M739.55,-284.97C692.18,-271.53 624.45,-252 598.4,-243 591.75,-240.7 584.69,-238.03 578.04,-235.39"/>
<polygon fill="midnightblue" stroke="midnightblue" points="579.25,-232.11 568.67,-231.62 576.64,-238.6 579.25,-232.11"/>
</g>
<!-- Node14 -->
<g id="node14" class="node">
<title>Node14</title>
<g id="a_node14"><a xlink:href="command__definitions_8h.html" target="_top" xlink:title="コマンド定義">
<polygon fill="white" stroke="black" points="640.9,-207 640.9,-237 793.9,-237 793.9,-207 640.9,-207"/>
<text text-anchor="start" x="648.9" y="-225" font-family="Helvetica,sans-Serif" font-size="10.00">src_user/TlmCmd/command</text>
<text text-anchor="middle" x="717.4" y="-214" font-family="Helvetica,sans-Serif" font-size="10.00">_definitions.h</text>
</a>
</g>
</g>
<!-- Node13&#45;&gt;Node14 -->
<g id="edge17" class="edge">
<title>Node13&#45;&gt;Node14</title>
<path fill="none" stroke="midnightblue" d="M775.86,-284.7C765.2,-273.45 750.16,-257.58 738.01,-244.76"/>
<polygon fill="midnightblue" stroke="midnightblue" points="740.3,-242.08 730.88,-237.23 735.22,-246.9 740.3,-242.08"/>
</g>
<!-- Node15 -->
<g id="node15" class="node">
<title>Node15</title>
<g id="a_node15"><a xlink:href="common__cmd__packet__define_8h.html" target="_top" xlink:title="CCP 型の定義">
<polygon fill="white" stroke="black" points="888.4,-207 888.4,-237 1058.4,-237 1058.4,-207 888.4,-207"/>
<text text-anchor="start" x="896.4" y="-225" font-family="Helvetica,sans-Serif" font-size="10.00">src_user/Settings/TlmCmd</text>
<text text-anchor="middle" x="973.4" y="-214" font-family="Helvetica,sans-Serif" font-size="10.00">/common_cmd_packet_define.h</text>
</a>
</g>
</g>
<!-- Node13&#45;&gt;Node15 -->
<g id="edge18" class="edge">
<title>Node13&#45;&gt;Node15</title>
<path fill="none" stroke="midnightblue" d="M823.58,-284.88C853.66,-272.46 897.61,-254.31 930.13,-240.87"/>
<polygon fill="midnightblue" stroke="midnightblue" points="931.5,-244.09 939.41,-237.04 928.83,-237.62 931.5,-244.09"/>
</g>
<!-- Node18 -->
<g id="node18" class="node">
<title>Node18</title>
<g id="a_node18"><a xlink:href="apid__define_8h.html" target="_top" xlink:title="CCSDS の APID を定義する">
<polygon fill="white" stroke="black" points="782.9,-140 782.9,-159 901.9,-159 901.9,-140 782.9,-140"/>
<text text-anchor="middle" x="842.4" y="-147" font-family="Helvetica,sans-Serif" font-size="10.00">./Ccsds/apid_define.h</text>
</a>
</g>
</g>
<!-- Node13&#45;&gt;Node18 -->
<g id="edge24" class="edge">
<title>Node13&#45;&gt;Node18</title>
<path fill="none" stroke="midnightblue" d="M741,-284.92C697.04,-271.64 638.06,-252.42 631.4,-243 620.63,-227.75 619.84,-215.66 631.4,-201 648.89,-178.83 718.26,-165.31 772.74,-157.91"/>
<polygon fill="midnightblue" stroke="midnightblue" points="773.27,-161.37 782.73,-156.6 772.36,-154.43 773.27,-161.37"/>
</g>
<!-- Node19 -->
<g id="node19" class="node">
<title>Node19</title>
<g id="a_node19"><a xlink:href="timeline__command__dispatcher__define_8h.html" target="_top" xlink:title="timeline command dispatcher の各種定義">
<polygon fill="white" stroke="black" points="1506.4,-201.5 1506.4,-242.5 1676.4,-242.5 1676.4,-201.5 1506.4,-201.5"/>
<text text-anchor="start" x="1514.4" y="-230.5" font-family="Helvetica,sans-Serif" font-size="10.00">src_user/Settings/Applications</text>
<text text-anchor="start" x="1514.4" y="-219.5" font-family="Helvetica,sans-Serif" font-size="10.00">/timeline_command_dispatcher</text>
<text text-anchor="middle" x="1591.4" y="-208.5" font-family="Helvetica,sans-Serif" font-size="10.00">_define.h</text>
</a>
</g>
</g>
<!-- Node13&#45;&gt;Node19 -->
<g id="edge25" class="edge">
<title>Node13&#45;&gt;Node19</title>
<path fill="none" stroke="midnightblue" d="M850.61,-286.41C865.84,-283.62 882.17,-280.93 897.4,-279 1128.99,-249.7 1188.97,-264.64 1421.4,-243 1445.72,-240.74 1471.94,-237.86 1496.34,-235.01"/>
<polygon fill="midnightblue" stroke="midnightblue" points="1496.79,-238.48 1506.31,-233.83 1495.97,-231.53 1496.79,-238.48"/>
</g>
<!-- Node16 -->
<g id="node16" class="node">
<title>Node16</title>
<g id="a_node16"><a xlink:href="space__packet__typedef_8h.html" target="_top" xlink:title="SpacePacket 類 と CommonTlmCmdPacket 類が相互参照するのを回避するためのヘッダ">
<polygon fill="white" stroke="black" points="921.9,-134.5 921.9,-164.5 1058.9,-164.5 1058.9,-134.5 921.9,-134.5"/>
<text text-anchor="start" x="929.9" y="-152.5" font-family="Helvetica,sans-Serif" font-size="10.00">src_core/TlmCmd/Ccsds</text>
<text text-anchor="middle" x="990.4" y="-141.5" font-family="Helvetica,sans-Serif" font-size="10.00">/space_packet_typedef.h</text>
</a>
</g>
</g>
<!-- Node15&#45;&gt;Node16 -->
<g id="edge19" class="edge">
<title>Node15&#45;&gt;Node16</title>
<path fill="none" stroke="midnightblue" d="M976.84,-206.73C979.05,-197.56 981.98,-185.41 984.56,-174.74"/>
<polygon fill="midnightblue" stroke="midnightblue" points="988.02,-175.29 986.97,-164.75 981.22,-173.65 988.02,-175.29"/>
</g>
<!-- Node15&#45;&gt;Node18 -->
<g id="edge22" class="edge">
<title>Node15&#45;&gt;Node18</title>
<path fill="none" stroke="midnightblue" d="M947.21,-206.9C923.95,-194.39 890.2,-176.22 867.33,-163.92"/>
<polygon fill="midnightblue" stroke="midnightblue" points="868.72,-160.69 858.26,-159.03 865.41,-166.85 868.72,-160.69"/>
</g>
<!-- Node16&#45;&gt;Node5 -->
<g id="edge20" class="edge">
<title>Node16&#45;&gt;Node5</title>
<path fill="none" stroke="midnightblue" d="M921.49,-135.82C917.74,-135.19 914.03,-134.58 910.4,-134 795.79,-115.74 662.45,-98.07 580.49,-87.61"/>
<polygon fill="midnightblue" stroke="midnightblue" points="580.87,-84.13 570.51,-86.34 579.99,-91.08 580.87,-84.13"/>
</g>
<!-- Node17 -->
<g id="node17" class="node">
<title>Node17</title>
<g id="a_node17"><a xlink:href="space__packet__typedef__params_8h.html" target="_top" xlink:title="SpacePacketの パケット型に関するユーザー設定">
<polygon fill="white" stroke="black" points="910.4,-56.5 910.4,-97.5 1070.4,-97.5 1070.4,-56.5 910.4,-56.5"/>
<text text-anchor="start" x="918.4" y="-85.5" font-family="Helvetica,sans-Serif" font-size="10.00">src_user/Settings/TlmCmd</text>
<text text-anchor="start" x="918.4" y="-74.5" font-family="Helvetica,sans-Serif" font-size="10.00">/Ccsds/space_packet_typedef</text>
<text text-anchor="middle" x="990.4" y="-63.5" font-family="Helvetica,sans-Serif" font-size="10.00">_params.h</text>
</a>
</g>
</g>
<!-- Node16&#45;&gt;Node17 -->
<g id="edge21" class="edge">
<title>Node16&#45;&gt;Node17</title>
<path fill="none" stroke="midnightblue" d="M990.4,-134.23C990.4,-126.57 990.4,-116.84 990.4,-107.63"/>
<polygon fill="midnightblue" stroke="midnightblue" points="993.9,-107.59 990.4,-97.59 986.9,-107.59 993.9,-107.59"/>
</g>
<!-- Node18&#45;&gt;Node5 -->
<g id="edge23" class="edge">
<title>Node18&#45;&gt;Node5</title>
<path fill="none" stroke="midnightblue" d="M801.51,-140C739.53,-127.11 621.91,-102.65 554.42,-88.61"/>
<polygon fill="midnightblue" stroke="midnightblue" points="554.94,-85.14 544.44,-86.53 553.52,-92 554.94,-85.14"/>
</g>
<!-- Node23&#45;&gt;Node13 -->
<g id="edge31" class="edge">
<title>Node23&#45;&gt;Node13</title>
<path fill="none" stroke="midnightblue" d="M903.45,-569.49C884.18,-524.12 823.33,-380.87 799.3,-324.31"/>
<polygon fill="midnightblue" stroke="midnightblue" points="802.52,-322.93 795.39,-315.09 796.08,-325.67 802.52,-322.93"/>
</g>
<!-- Node24 -->
<g id="node24" class="node">
<title>Node24</title>
<g id="a_node24"><a xlink:href="packet__handler_8h.html" target="_top" xlink:title="C2A 全体を流れる Common Packet の配送を制御する">
<polygon fill="white" stroke="black" points="920.9,-508 920.9,-527 1019.9,-527 1019.9,-508 920.9,-508"/>
<text text-anchor="middle" x="970.4" y="-515" font-family="Helvetica,sans-Serif" font-size="10.00">packet_handler.h</text>
</a>
</g>
</g>
<!-- Node23&#45;&gt;Node24 -->
<g id="edge32" class="edge">
<title>Node23&#45;&gt;Node24</title>
<path fill="none" stroke="midnightblue" d="M922.64,-569.4C932.24,-559.16 945.25,-545.3 955.27,-534.62"/>
<polygon fill="midnightblue" stroke="midnightblue" points="957.95,-536.88 962.24,-527.19 952.85,-532.09 957.95,-536.88"/>
</g>
<!-- Node31 -->
<g id="node31" class="node">
<title>Node31</title>
<g id="a_node31"><a xlink:href="block__command__table_8h.html" target="_top" xlink:title="BCTの定義, BCT周りの関数">
<polygon fill="white" stroke="black" points="625.4,-363 625.4,-382 761.4,-382 761.4,-363 625.4,-363"/>
<text text-anchor="middle" x="693.4" y="-370" font-family="Helvetica,sans-Serif" font-size="10.00">block_command_table.h</text>
</a>
</g>
</g>
<!-- Node23&#45;&gt;Node31 -->
<g id="edge59" class="edge">
<title>Node23&#45;&gt;Node31</title>
<path fill="none" stroke="midnightblue" d="M874.75,-569.37C834.1,-551.15 767.23,-515.77 727.4,-466 709.8,-444.01 700.78,-412.05 696.58,-392.04"/>
<polygon fill="midnightblue" stroke="midnightblue" points="699.98,-391.22 694.68,-382.05 693.11,-392.53 699.98,-391.22"/>
</g>
<!-- Node33 -->
<g id="node33" class="node">
<title>Node33</title>
<g id="a_node33"><a xlink:href="timeline__command__dispatcher__id__define_8h.html" target="_top" xlink:title="TLCD_ID の定義">
<polygon fill="white" stroke="black" points="1186.9,-424.5 1186.9,-465.5 1327.9,-465.5 1327.9,-424.5 1186.9,-424.5"/>
<text text-anchor="start" x="1194.9" y="-453.5" font-family="Helvetica,sans-Serif" font-size="10.00">../Applications/timeline</text>
<text text-anchor="start" x="1194.9" y="-442.5" font-family="Helvetica,sans-Serif" font-size="10.00">_command_dispatcher_id</text>
<text text-anchor="middle" x="1257.4" y="-431.5" font-family="Helvetica,sans-Serif" font-size="10.00">_define.h</text>
</a>
</g>
</g>
<!-- Node23&#45;&gt;Node33 -->
<g id="edge58" class="edge">
<title>Node23&#45;&gt;Node33</title>
<path fill="none" stroke="midnightblue" d="M945.01,-569.43C1004.77,-545.82 1125.84,-497.98 1198.46,-469.29"/>
<polygon fill="midnightblue" stroke="midnightblue" points="1199.92,-472.47 1207.94,-465.54 1197.35,-465.96 1199.92,-472.47"/>
</g>
<!-- Node36 -->
<g id="node36" class="node">
<title>Node36</title>
<g id="a_node36"><a xlink:href="app__registry_8h.html" target="_top" xlink:title=" ">
<polygon fill="white" stroke="black" points="1359.4,-502.5 1359.4,-532.5 1479.4,-532.5 1479.4,-502.5 1359.4,-502.5"/>
<text text-anchor="start" x="1367.4" y="-520.5" font-family="Helvetica,sans-Serif" font-size="10.00">src_user/Applications</text>
<text text-anchor="middle" x="1419.4" y="-509.5" font-family="Helvetica,sans-Serif" font-size="10.00">/app_registry.h</text>
</a>
</g>
</g>
<!-- Node23&#45;&gt;Node36 -->
<g id="edge60" class="edge">
<title>Node23&#45;&gt;Node36</title>
<path fill="none" stroke="midnightblue" d="M970.41,-575.72C1065.5,-563.6 1248.54,-540.28 1349.05,-527.47"/>
<polygon fill="midnightblue" stroke="midnightblue" points="1349.63,-530.92 1359.11,-526.18 1348.75,-523.98 1349.63,-530.92"/>
</g>
<!-- Node25 -->
<g id="node25" class="node">
<title>Node25</title>
<g id="a_node25"><a xlink:href="common__tlm__cmd__packet_8h.html" target="_top" xlink:title="CTCP 関連基本関数の宣言">
<polygon fill="white" stroke="black" points="893.4,-363 893.4,-382 1047.4,-382 1047.4,-363 893.4,-363"/>
<text text-anchor="middle" x="970.4" y="-370" font-family="Helvetica,sans-Serif" font-size="10.00">common_tlm_cmd_packet.h</text>
</a>
</g>
</g>
<!-- Node24&#45;&gt;Node25 -->
<g id="edge33" class="edge">
<title>Node24&#45;&gt;Node25</title>
<path fill="none" stroke="midnightblue" d="M970.4,-507.98C970.4,-485.38 970.4,-423.5 970.4,-392.18"/>
<polygon fill="midnightblue" stroke="midnightblue" points="973.9,-392.15 970.4,-382.15 966.9,-392.15 973.9,-392.15"/>
</g>
<!-- Node30 -->
<g id="node30" class="node">
<title>Node30</title>
<g id="a_node30"><a xlink:href="packet__list_8h.html" target="_top" xlink:title="CTCP, CTP, CCP のリストとしてのデータ構造を定義. 片方向リストとして実装されている">
<polygon fill="white" stroke="black" points="736.4,-435.5 736.4,-454.5 814.4,-454.5 814.4,-435.5 736.4,-435.5"/>
<text text-anchor="middle" x="775.4" y="-442.5" font-family="Helvetica,sans-Serif" font-size="10.00">packet_list.h</text>
</a>
</g>
</g>
<!-- Node24&#45;&gt;Node30 -->
<g id="edge46" class="edge">
<title>Node24&#45;&gt;Node30</title>
<path fill="none" stroke="midnightblue" d="M946.88,-508C912.33,-495.5 847.71,-472.14 808.42,-457.94"/>
<polygon fill="midnightblue" stroke="midnightblue" points="809.6,-454.64 799.01,-454.53 807.22,-461.23 809.6,-454.64"/>
</g>
<!-- Node24&#45;&gt;Node33 -->
<g id="edge53" class="edge">
<title>Node24&#45;&gt;Node33</title>
<path fill="none" stroke="midnightblue" d="M1005.58,-507.98C1044.84,-498.46 1110.54,-482.49 1176.94,-466.11"/>
<polygon fill="midnightblue" stroke="midnightblue" points="1177.87,-469.48 1186.74,-463.69 1176.19,-462.69 1177.87,-469.48"/>
</g>
<!-- Node34 -->
<g id="node34" class="node">
<title>Node34</title>
<g id="a_node34"><a xlink:href="packet__handler__params_8h.html" target="_top" xlink:title="PHのCoreTlmパラメタのオーバーライド用ヘッダー">
<polygon fill="white" stroke="black" points="1023.9,-430 1023.9,-460 1168.9,-460 1168.9,-430 1023.9,-430"/>
<text text-anchor="start" x="1031.9" y="-448" font-family="Helvetica,sans-Serif" font-size="10.00">src_user/Settings/TlmCmd</text>
<text text-anchor="middle" x="1096.4" y="-437" font-family="Helvetica,sans-Serif" font-size="10.00">/packet_handler_params.h</text>
</a>
</g>
</g>
<!-- Node24&#45;&gt;Node34 -->
<g id="edge55" class="edge">
<title>Node24&#45;&gt;Node34</title>
<path fill="none" stroke="midnightblue" d="M985.85,-507.86C1004.81,-497.25 1037.52,-478.95 1062.45,-465"/>
<polygon fill="midnightblue" stroke="midnightblue" points="1064.23,-468.01 1071.24,-460.08 1060.81,-461.9 1064.23,-468.01"/>
</g>
<!-- Node25&#45;&gt;Node5 -->
<g id="edge34" class="edge">
<title>Node25&#45;&gt;Node5</title>
<path fill="none" stroke="midnightblue" d="M1019.01,-362.95C1031.2,-360.9 1044.27,-358.79 1056.4,-357 1181.83,-338.46 1222.23,-369.45 1339.4,-321 1403.82,-294.36 1485.12,-254.47 1440.4,-201 1385.38,-135.22 795.25,-94.84 580.76,-82.25"/>
<polygon fill="midnightblue" stroke="midnightblue" points="580.71,-78.74 570.53,-81.66 580.31,-85.73 580.71,-78.74"/>
</g>
<!-- Node25&#45;&gt;Node13 -->
<g id="edge44" class="edge">
<title>Node25&#45;&gt;Node13</title>
<path fill="none" stroke="midnightblue" d="M948.57,-363C920.52,-352.07 871.11,-332.83 834.77,-318.67"/>
<polygon fill="midnightblue" stroke="midnightblue" points="835.95,-315.37 825.36,-315.01 833.41,-321.9 835.95,-315.37"/>
</g>
<!-- Node25&#45;&gt;Node18 -->
<g id="edge45" class="edge">
<title>Node25&#45;&gt;Node18</title>
<path fill="none" stroke="midnightblue" d="M953.71,-362.87C937.77,-354.01 913.81,-338.99 897.4,-321 870.57,-291.6 865.77,-280.83 853.4,-243 845.33,-218.32 843.06,-188.2 842.48,-169.18"/>
<polygon fill="midnightblue" stroke="midnightblue" points="845.98,-169.1 842.31,-159.16 838.98,-169.22 845.98,-169.1"/>
</g>
<!-- Node26 -->
<g id="node26" class="node">
<title>Node26</title>
<g id="a_node26"><a xlink:href="common__tlm__cmd__packet__define_8h.html" target="_top" xlink:title="CTCP 型の定義">
<polygon fill="white" stroke="black" points="1182.4,-279.5 1182.4,-320.5 1330.4,-320.5 1330.4,-279.5 1182.4,-279.5"/>
<text text-anchor="start" x="1190.4" y="-308.5" font-family="Helvetica,sans-Serif" font-size="10.00">src_user/Settings/TlmCmd</text>
<text text-anchor="start" x="1190.4" y="-297.5" font-family="Helvetica,sans-Serif" font-size="10.00">/common_tlm_cmd_packet</text>
<text text-anchor="middle" x="1256.4" y="-286.5" font-family="Helvetica,sans-Serif" font-size="10.00">_define.h</text>
</a>
</g>
</g>
<!-- Node25&#45;&gt;Node26 -->
<g id="edge35" class="edge">
<title>Node25&#45;&gt;Node26</title>
<path fill="none" stroke="midnightblue" d="M1004.9,-363C1046.1,-352.84 1116.47,-335.49 1172.31,-321.73"/>
<polygon fill="midnightblue" stroke="midnightblue" points="1173.33,-325.08 1182.2,-319.29 1171.65,-318.29 1173.33,-325.08"/>
</g>
<!-- Node27 -->
<g id="node27" class="node">
<title>Node27</title>
<g id="a_node27"><a xlink:href="common__tlm__packet_8h.html" target="_top" xlink:title="CTP 関連基本関数の宣言">
<polygon fill="white" stroke="black" points="906.4,-290.5 906.4,-309.5 1040.4,-309.5 1040.4,-290.5 906.4,-290.5"/>
<text text-anchor="middle" x="973.4" y="-297.5" font-family="Helvetica,sans-Serif" font-size="10.00">./common_tlm_packet.h</text>
</a>
</g>
</g>
<!-- Node25&#45;&gt;Node27 -->
<g id="edge37" class="edge">
<title>Node25&#45;&gt;Node27</title>
<path fill="none" stroke="midnightblue" d="M970.77,-362.86C971.22,-352.18 972.01,-333.72 972.6,-319.73"/>
<polygon fill="midnightblue" stroke="midnightblue" points="976.1,-319.86 973.03,-309.72 969.11,-319.56 976.1,-319.86"/>
</g>
<!-- Node26&#45;&gt;Node16 -->
<g id="edge36" class="edge">
<title>Node26&#45;&gt;Node16</title>
<path fill="none" stroke="midnightblue" d="M1330.42,-293.02C1363.93,-286.18 1400.61,-272.01 1421.4,-243 1432.27,-227.83 1433.81,-214.95 1421.4,-201 1398.44,-175.19 1187.16,-160.44 1069.18,-154.15"/>
<polygon fill="midnightblue" stroke="midnightblue" points="1069.28,-150.65 1059.11,-153.63 1068.91,-157.64 1069.28,-150.65"/>
</g>
<!-- Node27&#45;&gt;Node11 -->
<g id="edge38" class="edge">
<title>Node27&#45;&gt;Node11</title>
<path fill="none" stroke="midnightblue" d="M926.01,-290.5C905.54,-286.88 881.3,-282.65 859.4,-279 758.21,-262.14 732.02,-263.03 631.4,-243 618.32,-240.4 604.19,-237.15 591.36,-234.04"/>
<polygon fill="midnightblue" stroke="midnightblue" points="591.93,-230.58 581.39,-231.59 590.26,-237.38 591.93,-230.58"/>
</g>
<!-- Node27&#45;&gt;Node18 -->
<g id="edge43" class="edge">
<title>Node27&#45;&gt;Node18</title>
<path fill="none" stroke="midnightblue" d="M950.39,-290.35C929.35,-281.4 898.65,-265.53 879.4,-243 860.82,-221.25 850.81,-189 846.04,-168.89"/>
<polygon fill="midnightblue" stroke="midnightblue" points="849.46,-168.14 843.92,-159.11 842.62,-169.63 849.46,-168.14"/>
</g>
<!-- Node28 -->
<g id="node28" class="node">
<title>Node28</title>
<g id="a_node28"><a xlink:href="telemetry__definitions_8h.html" target="_top" xlink:title="テレメトリ定義">
<polygon fill="white" stroke="black" points="1076.4,-207 1076.4,-237 1228.4,-237 1228.4,-207 1076.4,-207"/>
<text text-anchor="start" x="1084.4" y="-225" font-family="Helvetica,sans-Serif" font-size="10.00">src_user/TlmCmd/telemetry</text>
<text text-anchor="middle" x="1152.4" y="-214" font-family="Helvetica,sans-Serif" font-size="10.00">_definitions.h</text>
</a>
</g>
</g>
<!-- Node27&#45;&gt;Node28 -->
<g id="edge39" class="edge">
<title>Node27&#45;&gt;Node28</title>
<path fill="none" stroke="midnightblue" d="M993.59,-290.43C1021.62,-278.53 1073.03,-256.7 1109.77,-241.1"/>
<polygon fill="midnightblue" stroke="midnightblue" points="1111.4,-244.21 1119.24,-237.08 1108.66,-237.77 1111.4,-244.21"/>
</g>
<!-- Node29 -->
<g id="node29" class="node">
<title>Node29</title>
<g id="a_node29"><a xlink:href="common__tlm__packet__define_8h.html" target="_top" xlink:title="CTP 型の定義">
<polygon fill="white" stroke="black" points="1246.4,-207 1246.4,-237 1412.4,-237 1412.4,-207 1246.4,-207"/>
<text text-anchor="start" x="1254.4" y="-225" font-family="Helvetica,sans-Serif" font-size="10.00">src_user/Settings/TlmCmd</text>
<text text-anchor="middle" x="1329.4" y="-214" font-family="Helvetica,sans-Serif" font-size="10.00">/common_tlm_packet_define.h</text>
</a>
</g>
</g>
<!-- Node27&#45;&gt;Node29 -->
<g id="edge40" class="edge">
<title>Node27&#45;&gt;Node29</title>
<path fill="none" stroke="midnightblue" d="M1014.12,-290.43C1065.99,-279.5 1158.38,-259.97 1237.4,-243 1243.13,-241.77 1249.07,-240.49 1255.03,-239.2"/>
<polygon fill="midnightblue" stroke="midnightblue" points="1256.04,-242.56 1265.07,-237.03 1254.55,-235.72 1256.04,-242.56"/>
</g>
<!-- Node29&#45;&gt;Node16 -->
<g id="edge41" class="edge">
<title>Node29&#45;&gt;Node16</title>
<path fill="none" stroke="midnightblue" d="M1265.08,-206.91C1255.8,-204.91 1246.36,-202.89 1237.4,-201 1181.11,-189.13 1117.5,-176.13 1068.94,-166.3"/>
<polygon fill="midnightblue" stroke="midnightblue" points="1069.62,-162.87 1059.12,-164.31 1068.23,-169.73 1069.62,-162.87"/>
</g>
<!-- Node29&#45;&gt;Node18 -->
<g id="edge42" class="edge">
<title>Node29&#45;&gt;Node18</title>
<path fill="none" stroke="midnightblue" d="M1269.2,-206.98C1258.64,-204.78 1247.72,-202.69 1237.4,-201 1093.98,-177.53 1055.94,-187.76 912.4,-165 905.24,-163.86 897.7,-162.49 890.33,-161.05"/>
<polygon fill="midnightblue" stroke="midnightblue" points="890.92,-157.6 880.43,-159.05 889.54,-164.46 890.92,-157.6"/>
</g>
<!-- Node30&#45;&gt;Node9 -->
<g id="edge47" class="edge">
<title>Node30&#45;&gt;Node9</title>
<path fill="none" stroke="midnightblue" d="M736.22,-441C673.24,-435.39 546.15,-420.76 443.4,-388 384.41,-369.19 320.23,-334.35 286.74,-314.95"/>
<polygon fill="midnightblue" stroke="midnightblue" points="288.15,-311.72 277.75,-309.69 284.61,-317.76 288.15,-311.72"/>
</g>
<!-- Node30&#45;&gt;Node13 -->
<g id="edge48" class="edge">
<title>Node30&#45;&gt;Node13</title>
<path fill="none" stroke="midnightblue" d="M776.24,-435.48C778.32,-414.2 783.81,-358.06 787.01,-325.44"/>
<polygon fill="midnightblue" stroke="midnightblue" points="790.5,-325.66 788,-315.36 783.54,-324.97 790.5,-325.66"/>
</g>
<!-- Node30&#45;&gt;Node31 -->
<g id="edge49" class="edge">
<title>Node30&#45;&gt;Node31</title>
<path fill="none" stroke="midnightblue" d="M765.35,-435.36C751.94,-423.83 728,-403.24 711.43,-389"/>
<polygon fill="midnightblue" stroke="midnightblue" points="713.4,-386.08 703.54,-382.22 708.84,-391.39 713.4,-386.08"/>
</g>
<!-- Node31&#45;&gt;Node5 -->
<g id="edge50" class="edge">
<title>Node31&#45;&gt;Node5</title>
<path fill="none" stroke="midnightblue" d="M643.84,-362.99C598.58,-354.22 536.25,-339.26 519.4,-321 460.98,-257.7 485.41,-141.25 497.82,-96.34"/>
<polygon fill="midnightblue" stroke="midnightblue" points="501.24,-97.11 500.66,-86.53 494.52,-95.17 501.24,-97.11"/>
</g>
<!-- Node31&#45;&gt;Node13 -->
<g id="edge52" class="edge">
<title>Node31&#45;&gt;Node13</title>
<path fill="none" stroke="midnightblue" d="M705.17,-362.86C719.24,-352.52 743.23,-334.9 762.02,-321.11"/>
<polygon fill="midnightblue" stroke="midnightblue" points="764.25,-323.82 770.23,-315.08 760.1,-318.17 764.25,-323.82"/>
</g>
<!-- Node32 -->
<g id="node32" class="node">
<title>Node32</title>
<g id="a_node32"><a xlink:href="block__command__table__params_8h.html" target="_top" xlink:title="BCTのCoreTlmパラメタのオーバーライド用ヘッダー">
<polygon fill="white" stroke="black" points="528.9,-285 528.9,-315 709.9,-315 709.9,-285 528.9,-285"/>
<text text-anchor="start" x="536.9" y="-303" font-family="Helvetica,sans-Serif" font-size="10.00">src_user/Settings/TlmCmd</text>
<text text-anchor="middle" x="619.4" y="-292" font-family="Helvetica,sans-Serif" font-size="10.00">/block_command_table_params.h</text>
</a>
</g>
</g>
<!-- Node31&#45;&gt;Node32 -->
<g id="edge51" class="edge">
<title>Node31&#45;&gt;Node32</title>
<path fill="none" stroke="midnightblue" d="M684.33,-362.86C673.78,-352.8 655.98,-335.85 641.69,-322.23"/>
<polygon fill="midnightblue" stroke="midnightblue" points="643.83,-319.44 634.18,-315.08 639,-324.51 643.83,-319.44"/>
</g>
<!-- Node33&#45;&gt;Node19 -->
<g id="edge54" class="edge">
<title>Node33&#45;&gt;Node19</title>
<path fill="none" stroke="midnightblue" d="M1328.12,-437.29C1398.62,-429.27 1500.58,-413.61 1530.4,-388 1551.38,-369.99 1573.2,-294.91 1584.17,-252.5"/>
<polygon fill="midnightblue" stroke="midnightblue" points="1587.59,-253.28 1586.66,-242.73 1580.8,-251.56 1587.59,-253.28"/>
</g>
<!-- Node34&#45;&gt;Node19 -->
<g id="edge56" class="edge">
<title>Node34&#45;&gt;Node19</title>
<path fill="none" stroke="midnightblue" d="M1153.1,-429.95C1248.01,-405.84 1434.39,-355.83 1492.4,-321 1523.1,-302.56 1551.41,-272.67 1569.82,-250.73"/>
<polygon fill="midnightblue" stroke="midnightblue" points="1572.73,-252.71 1576.38,-242.76 1567.33,-248.26 1572.73,-252.71"/>
</g>
<!-- Node35 -->
<g id="node35" class="node">
<title>Node35</title>
<g id="a_node35"><a xlink:href="data__recorder__define_8h.html" target="_top" xlink:title="Data Recorder の各種定義">
<polygon fill="white" stroke="black" points="1065.4,-357.5 1065.4,-387.5 1175.4,-387.5 1175.4,-357.5 1065.4,-357.5"/>
<text text-anchor="start" x="1073.4" y="-375.5" font-family="Helvetica,sans-Serif" font-size="10.00">../Applications/data</text>
<text text-anchor="middle" x="1120.4" y="-364.5" font-family="Helvetica,sans-Serif" font-size="10.00">_recorder_define.h</text>
</a>
</g>
</g>
<!-- Node34&#45;&gt;Node35 -->
<g id="edge57" class="edge">
<title>Node34&#45;&gt;Node35</title>
<path fill="none" stroke="midnightblue" d="M1101.26,-429.73C1104.41,-420.46 1108.6,-408.15 1112.26,-397.41"/>
<polygon fill="midnightblue" stroke="midnightblue" points="1115.64,-398.34 1115.55,-387.75 1109.02,-396.08 1115.64,-398.34"/>
</g>
<!-- Node36&#45;&gt;Node19 -->
<g id="edge61" class="edge">
<title>Node36&#45;&gt;Node19</title>
<path fill="none" stroke="midnightblue" d="M1439.63,-502.15C1468.79,-480.51 1522.63,-436.81 1554.4,-388 1581.47,-346.42 1588.92,-287.82 1590.86,-252.8"/>
<polygon fill="midnightblue" stroke="midnightblue" points="1594.36,-252.88 1591.3,-242.73 1587.37,-252.57 1594.36,-252.88"/>
</g>
</g>
</svg>
