<?xml version="1.0" encoding="UTF-8" standalone="no"?>
<!DOCTYPE svg PUBLIC "-//W3C//DTD SVG 1.1//EN"
 "http://www.w3.org/Graphics/SVG/1.1/DTD/svg11.dtd">
<!-- Generated by graphviz version 2.43.0 (0)
 -->
<!-- Title: DS_conv_cmd_err_to_ccp_exec_sts Pages: 1 -->
<svg width="2556pt" height="588pt"
 viewBox="0.00 0.00 2556.00 588.00" xmlns="http://www.w3.org/2000/svg" xmlns:xlink="http://www.w3.org/1999/xlink">
<g id="graph0" class="graph" transform="scale(1 1) rotate(0) translate(4 584)">
<title>DS_conv_cmd_err_to_ccp_exec_sts</title>
<polygon fill="white" stroke="transparent" points="-4,4 -4,-584 2552,-584 2552,4 -4,4"/>
<!-- Node1 -->
<g id="node1" class="node">
<title>Node1</title>
<g id="a_node1"><a xlink:title="DS_CMD_ERR_CODE から CCP_EXEC_STS への変換関数">
<polygon fill="#bfbfbf" stroke="black" points="2429,-508 2429,-538 2548,-538 2548,-508 2429,-508"/>
<text text-anchor="start" x="2437" y="-526" font-family="Helvetica,sans-Serif" font-size="10.00">DS_conv_cmd_err_to</text>
<text text-anchor="middle" x="2488.5" y="-515" font-family="Helvetica,sans-Serif" font-size="10.00">_ccp_exec_sts</text>
</a>
</g>
</g>
<!-- Node2 -->
<g id="node2" class="node">
<title>Node2</title>
<g id="a_node2"><a xlink:href="di__uart__test_8h.html#a6007ab982d51e1073a54babe38a33a5f" target="_top" xlink:title=" ">
<polygon fill="white" stroke="black" points="2035,-551.5 2035,-570.5 2196,-570.5 2196,-551.5 2035,-551.5"/>
<text text-anchor="middle" x="2115.5" y="-558.5" font-family="Helvetica,sans-Serif" font-size="10.00">Cmd_UART_TEST_SEND_TEST</text>
</a>
</g>
</g>
<!-- Node1&#45;&gt;Node2 -->
<g id="edge1" class="edge">
<title>Node1&#45;&gt;Node2</title>
<path fill="none" stroke="midnightblue" d="M2418.47,-530.07C2355.42,-536.53 2262.23,-546.07 2196.07,-552.85"/>
<polygon fill="midnightblue" stroke="midnightblue" points="2419.12,-533.52 2428.71,-529.02 2418.41,-526.56 2419.12,-533.52"/>
</g>
<!-- Node9 -->
<g id="node9" class="node">
<title>Node9</title>
<g id="a_node9"><a xlink:href="di__aobc_8h.html#aff7d4f09f3003e15242d14e6ed393059" target="_top" xlink:title="CommonCmdPacket を AOBC に送信する">
<polygon fill="white" stroke="black" points="2232,-494.5 2232,-513.5 2393,-513.5 2393,-494.5 2232,-494.5"/>
<text text-anchor="middle" x="2312.5" y="-501.5" font-family="Helvetica,sans-Serif" font-size="10.00">DI_AOBC_dispatch_command</text>
</a>
</g>
</g>
<!-- Node1&#45;&gt;Node9 -->
<g id="edge9" class="edge">
<title>Node1&#45;&gt;Node9</title>
<path fill="none" stroke="midnightblue" d="M2418.51,-515.47C2410.14,-514.55 2401.53,-513.61 2393.02,-512.68"/>
<polygon fill="midnightblue" stroke="midnightblue" points="2418.27,-518.96 2428.59,-516.57 2419.03,-512 2418.27,-518.96"/>
</g>
<!-- Node3 -->
<g id="node3" class="node">
<title>Node3</title>
<g id="a_node3"><a xlink:href="command__definitions_8c.html#aa375895192b16d8e7f0ff4545b54e6c4" target="_top" xlink:title="Cmd Tableのロード">
<polygon fill="white" stroke="black" points="562,-418.5 562,-437.5 675,-437.5 675,-418.5 562,-418.5"/>
<text text-anchor="middle" x="618.5" y="-425.5" font-family="Helvetica,sans-Serif" font-size="10.00">CA_load_cmd_table</text>
</a>
</g>
</g>
<!-- Node2&#45;&gt;Node3 -->
<g id="edge2" class="edge">
<title>Node2&#45;&gt;Node3</title>
<path fill="none" stroke="midnightblue" d="M2024.56,-568.48C1952.83,-573.79 1849.8,-580 1759.5,-580 1759.5,-580 1759.5,-580 994,-580 841.73,-580 678.52,-470.78 632.33,-437.51"/>
<polygon fill="midnightblue" stroke="midnightblue" points="2025.19,-571.94 2034.9,-567.7 2024.67,-564.96 2025.19,-571.94"/>
</g>
<!-- Node4 -->
<g id="node4" class="node">
<title>Node4</title>
<g id="a_node4"><a xlink:href="command__analyze_8h.html#ae6d1f376bf4e1c9c4b63bc3f04924c8a" target="_top" xlink:title="CA の初期化">
<polygon fill="white" stroke="black" points="409.5,-380.5 409.5,-399.5 486.5,-399.5 486.5,-380.5 409.5,-380.5"/>
<text text-anchor="middle" x="448" y="-387.5" font-family="Helvetica,sans-Serif" font-size="10.00">CA_initialize</text>
</a>
</g>
</g>
<!-- Node3&#45;&gt;Node4 -->
<g id="edge3" class="edge">
<title>Node3&#45;&gt;Node4</title>
<path fill="none" stroke="midnightblue" d="M565.12,-416.19C539.71,-410.46 509.75,-403.7 486.62,-398.49"/>
<polygon fill="midnightblue" stroke="midnightblue" points="564.46,-419.63 574.98,-418.41 566,-412.8 564.46,-419.63"/>
</g>
<!-- Node5 -->
<g id="node5" class="node">
<title>Node5</title>
<g id="a_node5"><a xlink:href="c2a__core__main_8h.html#a65ecdc63d8762ffde4db7f6c6e6f07cf" target="_top" xlink:title=" ">
<polygon fill="white" stroke="black" points="262,-247.5 262,-266.5 345,-266.5 345,-247.5 262,-247.5"/>
<text text-anchor="middle" x="303.5" y="-254.5" font-family="Helvetica,sans-Serif" font-size="10.00">C2A_core_init</text>
</a>
</g>
</g>
<!-- Node4&#45;&gt;Node5 -->
<g id="edge4" class="edge">
<title>Node4&#45;&gt;Node5</title>
<path fill="none" stroke="midnightblue" d="M429.11,-373.3C399.03,-345.23 339.24,-289.43 315.04,-266.84"/>
<polygon fill="midnightblue" stroke="midnightblue" points="427.05,-376.17 436.75,-380.43 431.83,-371.05 427.05,-376.17"/>
</g>
<!-- Node8 -->
<g id="node8" class="node">
<title>Node8</title>
<g id="a_node8"><a xlink:href="command__analyze_8h.html#aee45638c6cff2c25a997905b209079d0" target="_top" xlink:title=" ">
<polygon fill="white" stroke="black" points="262,-399.5 262,-418.5 345,-418.5 345,-399.5 262,-399.5"/>
<text text-anchor="middle" x="303.5" y="-406.5" font-family="Helvetica,sans-Serif" font-size="10.00">Cmd_CA_INIT</text>
</a>
</g>
</g>
<!-- Node4&#45;&gt;Node8 -->
<g id="edge7" class="edge">
<title>Node4&#45;&gt;Node8</title>
<path fill="none" stroke="midnightblue" d="M399.17,-396.38C381.67,-398.71 362.06,-401.33 345.24,-403.57"/>
<polygon fill="midnightblue" stroke="midnightblue" points="399.74,-399.83 409.19,-395.04 398.81,-392.89 399.74,-399.83"/>
</g>
<!-- Node6 -->
<g id="node6" class="node">
<title>Node6</title>
<g id="a_node6"><a xlink:href="c2a__main_8c.html#a630222a80cd8bffd4426d4a55a215069" target="_top" xlink:title=" ">
<polygon fill="white" stroke="black" points="159.5,-123.5 159.5,-142.5 221.5,-142.5 221.5,-123.5 159.5,-123.5"/>
<text text-anchor="middle" x="190.5" y="-130.5" font-family="Helvetica,sans-Serif" font-size="10.00">C2A_init_</text>
</a>
</g>
</g>
<!-- Node5&#45;&gt;Node6 -->
<g id="edge5" class="edge">
<title>Node5&#45;&gt;Node6</title>
<path fill="none" stroke="midnightblue" d="M286.87,-239.54C263.15,-213.04 218.86,-163.56 200.17,-142.68"/>
<polygon fill="midnightblue" stroke="midnightblue" points="284.51,-242.15 293.79,-247.27 289.73,-237.48 284.51,-242.15"/>
</g>
<!-- Node7 -->
<g id="node7" class="node">
<title>Node7</title>
<g id="a_node7"><a xlink:href="c2a__main_8c.html#ac3344a311adda8f9e7310924bedf81fc" target="_top" xlink:title=" ">
<polygon fill="white" stroke="black" points="0,-76.5 0,-95.5 119,-95.5 119,-76.5 0,-76.5"/>
<text text-anchor="middle" x="59.5" y="-83.5" font-family="Helvetica,sans-Serif" font-size="10.00">address_fixed_main_</text>
</a>
</g>
</g>
<!-- Node6&#45;&gt;Node7 -->
<g id="edge6" class="edge">
<title>Node6&#45;&gt;Node7</title>
<path fill="none" stroke="midnightblue" d="M153.79,-119.99C132.64,-112.28 106.3,-102.69 87.01,-95.66"/>
<polygon fill="midnightblue" stroke="midnightblue" points="152.8,-123.35 163.39,-123.49 155.2,-116.78 152.8,-123.35"/>
</g>
<!-- Node8&#45;&gt;Node3 -->
<g id="edge8" class="edge">
<title>Node8&#45;&gt;Node3</title>
<path fill="none" stroke="midnightblue" d="M355.3,-412.08C411.97,-415.52 503.36,-421.07 561.9,-424.63"/>
<polygon fill="midnightblue" stroke="midnightblue" points="355.34,-408.58 345.14,-411.47 354.91,-415.57 355.34,-408.58"/>
</g>
<!-- Node10 -->
<g id="node10" class="node">
<title>Node10</title>
<g id="a_node10"><a xlink:href="user__packet__handler_8h.html#a2c3c644313071db44127bc7a90be4569" target="_top" xlink:title="PH の cmd_router_ のユーザー処理関数">
<polygon fill="white" stroke="black" points="2057,-494.5 2057,-513.5 2174,-513.5 2174,-494.5 2057,-494.5"/>
<text text-anchor="middle" x="2115.5" y="-501.5" font-family="Helvetica,sans-Serif" font-size="10.00">PH_user_cmd_router</text>
</a>
</g>
</g>
<!-- Node9&#45;&gt;Node10 -->
<g id="edge10" class="edge">
<title>Node9&#45;&gt;Node10</title>
<path fill="none" stroke="midnightblue" d="M2221.84,-504C2205.6,-504 2189.06,-504 2174.05,-504"/>
<polygon fill="midnightblue" stroke="midnightblue" points="2221.9,-507.5 2231.9,-504 2221.9,-500.5 2221.9,-507.5"/>
</g>
<!-- Node11 -->
<g id="node11" class="node">
<title>Node11</title>
<g id="a_node11"><a xlink:href="packet__handler_8h.html#a7b1777e6101ff2eeeef6042166974cdc" target="_top" xlink:title="CCP をコマンドとして解釈して実行，ないしは別機器へ配送する">
<polygon fill="white" stroke="black" points="1868,-456.5 1868,-475.5 1999,-475.5 1999,-456.5 1868,-456.5"/>
<text text-anchor="middle" x="1933.5" y="-463.5" font-family="Helvetica,sans-Serif" font-size="10.00">PH_dispatch_command</text>
</a>
</g>
</g>
<!-- Node10&#45;&gt;Node11 -->
<g id="edge11" class="edge">
<title>Node10&#45;&gt;Node11</title>
<path fill="none" stroke="midnightblue" d="M2059.17,-492.32C2033.64,-486.93 2003.72,-480.61 1979.59,-475.52"/>
<polygon fill="midnightblue" stroke="midnightblue" points="2058.57,-495.77 2069.08,-494.41 2060.02,-488.92 2058.57,-495.77"/>
</g>
<!-- Node12 -->
<g id="node12" class="node">
<title>Node12</title>
<g id="a_node12"><a xlink:href="block__command__executor_8c.html#ae33c8a6dadb5c8d6052c681bd93eabb4" target="_top" xlink:title="BC をまとめて一括で実行する">
<polygon fill="white" stroke="black" points="1685.5,-494.5 1685.5,-513.5 1831.5,-513.5 1831.5,-494.5 1685.5,-494.5"/>
<text text-anchor="middle" x="1758.5" y="-501.5" font-family="Helvetica,sans-Serif" font-size="10.00">BCE_combine_block_cmd_</text>
</a>
</g>
</g>
<!-- Node11&#45;&gt;Node12 -->
<g id="edge12" class="edge">
<title>Node11&#45;&gt;Node12</title>
<path fill="none" stroke="midnightblue" d="M1878.99,-477.75C1854.53,-483.13 1825.93,-489.41 1802.84,-494.48"/>
<polygon fill="midnightblue" stroke="midnightblue" points="1879.83,-481.15 1888.84,-475.59 1878.33,-474.32 1879.83,-481.15"/>
</g>
<!-- Node14 -->
<g id="node14" class="node">
<title>Node14</title>
<g id="a_node14"><a xlink:href="block__command__executor_8c.html#ad3ff86b57b5abbbdb7dd658a04f00f13" target="_top" xlink:title="rotator の実行主体">
<polygon fill="white" stroke="black" points="1691.5,-456.5 1691.5,-475.5 1825.5,-475.5 1825.5,-456.5 1691.5,-456.5"/>
<text text-anchor="middle" x="1758.5" y="-463.5" font-family="Helvetica,sans-Serif" font-size="10.00">BCE_rotate_block_cmd_</text>
</a>
</g>
</g>
<!-- Node11&#45;&gt;Node14 -->
<g id="edge15" class="edge">
<title>Node11&#45;&gt;Node14</title>
<path fill="none" stroke="midnightblue" d="M1857.51,-466C1846.91,-466 1836.06,-466 1825.64,-466"/>
<polygon fill="midnightblue" stroke="midnightblue" points="1857.59,-469.5 1867.59,-466 1857.59,-462.5 1857.59,-469.5"/>
</g>
<!-- Node16 -->
<g id="node16" class="node">
<title>Node16</title>
<g id="a_node16"><a xlink:href="block__command__executor_8c.html#aa35678f3996844ae59428f34e6c8c78f" target="_top" xlink:title="BC をまとめて一括で実行する">
<polygon fill="white" stroke="black" points="1691.5,-407 1691.5,-437 1825.5,-437 1825.5,-407 1691.5,-407"/>
<text text-anchor="start" x="1699.5" y="-425" font-family="Helvetica,sans-Serif" font-size="10.00">BCE_timelimit_combine</text>
<text text-anchor="middle" x="1758.5" y="-414" font-family="Helvetica,sans-Serif" font-size="10.00">_block_cmd_</text>
</a>
</g>
</g>
<!-- Node11&#45;&gt;Node16 -->
<g id="edge18" class="edge">
<title>Node11&#45;&gt;Node16</title>
<path fill="none" stroke="midnightblue" d="M1885.22,-453.97C1864.69,-448.75 1840.44,-442.59 1818.73,-437.07"/>
<polygon fill="midnightblue" stroke="midnightblue" points="1884.41,-457.38 1894.96,-456.45 1886.13,-450.6 1884.41,-457.38"/>
</g>
<!-- Node18 -->
<g id="node18" class="node">
<title>Node18</title>
<g id="a_node18"><a xlink:href="common__cmd__packet__util_8h.html#ad54dccaa6f4da58c94a03a95318f7d95" target="_top" xlink:title="BC展開 command を生成し，即時実行する">
<polygon fill="white" stroke="black" points="1685,-358 1685,-388 1832,-388 1832,-358 1685,-358"/>
<text text-anchor="start" x="1693" y="-376" font-family="Helvetica,sans-Serif" font-size="10.00">CCP_form_and_exec_block</text>
<text text-anchor="middle" x="1758.5" y="-365" font-family="Helvetica,sans-Serif" font-size="10.00">_deploy_cmd</text>
</a>
</g>
</g>
<!-- Node11&#45;&gt;Node18 -->
<g id="edge21" class="edge">
<title>Node11&#45;&gt;Node18</title>
<path fill="none" stroke="midnightblue" d="M1912.29,-449.98C1892.67,-435 1861.58,-412.78 1832,-398 1824.74,-394.37 1816.82,-391.05 1808.97,-388.1"/>
<polygon fill="midnightblue" stroke="midnightblue" points="1910.41,-452.95 1920.46,-456.3 1914.69,-447.41 1910.41,-452.95"/>
</g>
<!-- Node32 -->
<g id="node32" class="node">
<title>Node32</title>
<g id="a_node32"><a xlink:href="common__cmd__packet__util_8h.html#a572a39fabb60337856dcd71bb7a471e3" target="_top" xlink:title="Realtime command を生成し，即時実行する">
<polygon fill="white" stroke="black" points="1691.5,-532.5 1691.5,-551.5 1825.5,-551.5 1825.5,-532.5 1691.5,-532.5"/>
<text text-anchor="middle" x="1758.5" y="-539.5" font-family="Helvetica,sans-Serif" font-size="10.00">CCP_form_and_exec_rtc</text>
</a>
</g>
</g>
<!-- Node11&#45;&gt;Node32 -->
<g id="edge40" class="edge">
<title>Node11&#45;&gt;Node32</title>
<path fill="none" stroke="midnightblue" d="M1909.84,-481.13C1890.01,-493.79 1860.07,-511.59 1832,-523 1822.96,-526.68 1812.99,-529.83 1803.42,-532.45"/>
<polygon fill="midnightblue" stroke="midnightblue" points="1911.97,-483.92 1918.45,-475.54 1908.16,-478.05 1911.97,-483.92"/>
</g>
<!-- Node33 -->
<g id="node33" class="node">
<title>Node33</title>
<g id="a_node33"><a xlink:href="command__dispatcher_8h.html#a90617acff33923f51c212b8e3034712c" target="_top" xlink:title="CDIS に登録されているコマンドキューからコマンドを実行">
<polygon fill="white" stroke="black" points="1105,-171.5 1105,-190.5 1245,-190.5 1245,-171.5 1105,-171.5"/>
<text text-anchor="middle" x="1175" y="-178.5" font-family="Helvetica,sans-Serif" font-size="10.00">CDIS_dispatch_command</text>
</a>
</g>
</g>
<!-- Node11&#45;&gt;Node33 -->
<g id="edge41" class="edge">
<title>Node11&#45;&gt;Node33</title>
<path fill="none" stroke="midnightblue" d="M1921.82,-447.36C1905.77,-421.08 1872.91,-373.49 1832,-348 1641.75,-229.44 1370.81,-194.84 1245.05,-184.91"/>
<polygon fill="midnightblue" stroke="midnightblue" points="1919.01,-449.49 1927.13,-456.3 1925.03,-445.92 1919.01,-449.49"/>
</g>
<!-- Node13 -->
<g id="node13" class="node">
<title>Node13</title>
<g id="a_node13"><a xlink:href="block__command__executor_8h.html#a8fc9800360fc4f594c23209a9fa5a516" target="_top" xlink:title=" ">
<polygon fill="white" stroke="black" points="1284.5,-494.5 1284.5,-513.5 1438.5,-513.5 1438.5,-494.5 1284.5,-494.5"/>
<text text-anchor="middle" x="1361.5" y="-501.5" font-family="Helvetica,sans-Serif" font-size="10.00">Cmd_BCE_COMBINE_BLOCK</text>
</a>
</g>
</g>
<!-- Node12&#45;&gt;Node13 -->
<g id="edge13" class="edge">
<title>Node12&#45;&gt;Node13</title>
<path fill="none" stroke="midnightblue" d="M1674.99,-504C1605.3,-504 1506.31,-504 1438.53,-504"/>
<polygon fill="midnightblue" stroke="midnightblue" points="1675.05,-507.5 1685.05,-504 1675.05,-500.5 1675.05,-507.5"/>
</g>
<!-- Node13&#45;&gt;Node3 -->
<g id="edge14" class="edge">
<title>Node13&#45;&gt;Node3</title>
<path fill="none" stroke="midnightblue" d="M1273.89,-504.83C1150.31,-504.51 916.75,-498.33 722,-461 694.46,-455.72 664,-445.3 643.5,-437.57"/>
<polygon fill="midnightblue" stroke="midnightblue" points="1274.05,-508.33 1284.05,-504.84 1274.06,-501.33 1274.05,-508.33"/>
</g>
<!-- Node15 -->
<g id="node15" class="node">
<title>Node15</title>
<g id="a_node15"><a xlink:href="block__command__executor_8h.html#a7a537f68d3f291d25a6a4eae3f99cb45" target="_top" xlink:title=" ">
<polygon fill="white" stroke="black" points="1289,-456.5 1289,-475.5 1434,-475.5 1434,-456.5 1289,-456.5"/>
<text text-anchor="middle" x="1361.5" y="-463.5" font-family="Helvetica,sans-Serif" font-size="10.00">Cmd_BCE_ROTATE_BLOCK</text>
</a>
</g>
</g>
<!-- Node14&#45;&gt;Node15 -->
<g id="edge16" class="edge">
<title>Node14&#45;&gt;Node15</title>
<path fill="none" stroke="midnightblue" d="M1681.11,-466C1609.74,-466 1503.99,-466 1434.18,-466"/>
<polygon fill="midnightblue" stroke="midnightblue" points="1681.39,-469.5 1691.39,-466 1681.39,-462.5 1681.39,-469.5"/>
</g>
<!-- Node15&#45;&gt;Node3 -->
<g id="edge17" class="edge">
<title>Node15&#45;&gt;Node3</title>
<path fill="none" stroke="midnightblue" d="M1278.19,-465.49C1156.42,-464.14 921.2,-459.31 722,-442 706.79,-440.68 690.38,-438.69 675.25,-436.63"/>
<polygon fill="midnightblue" stroke="midnightblue" points="1278.5,-468.99 1288.54,-465.59 1278.58,-461.99 1278.5,-468.99"/>
</g>
<!-- Node17 -->
<g id="node17" class="node">
<title>Node17</title>
<g id="a_node17"><a xlink:href="block__command__executor_8h.html#a33ee70475b35e5606d83857c5843d29a" target="_top" xlink:title=" ">
<polygon fill="white" stroke="black" points="1478,-407 1478,-437 1649,-437 1649,-407 1478,-407"/>
<text text-anchor="start" x="1486" y="-425" font-family="Helvetica,sans-Serif" font-size="10.00">Cmd_BCE_TIMELIMIT_COMBINE</text>
<text text-anchor="middle" x="1563.5" y="-414" font-family="Helvetica,sans-Serif" font-size="10.00">_BLOCK</text>
</a>
</g>
</g>
<!-- Node16&#45;&gt;Node17 -->
<g id="edge19" class="edge">
<title>Node16&#45;&gt;Node17</title>
<path fill="none" stroke="midnightblue" d="M1681.06,-422C1670.63,-422 1659.88,-422 1649.32,-422"/>
<polygon fill="midnightblue" stroke="midnightblue" points="1681.35,-425.5 1691.35,-422 1681.35,-418.5 1681.35,-425.5"/>
</g>
<!-- Node17&#45;&gt;Node3 -->
<g id="edge20" class="edge">
<title>Node17&#45;&gt;Node3</title>
<path fill="none" stroke="midnightblue" d="M1467.36,-424.3C1389.14,-425.99 1275.39,-428 1176,-428 1176,-428 1176,-428 994,-428 880.71,-428 748.14,-428 675.02,-428"/>
<polygon fill="midnightblue" stroke="midnightblue" points="1467.76,-427.79 1477.68,-424.07 1467.61,-420.79 1467.76,-427.79"/>
</g>
<!-- Node19 -->
<g id="node19" class="node">
<title>Node19</title>
<g id="a_node19"><a xlink:href="event__handler_8c.html#a8d7de705ac2b09f9f25644f0c9f55952" target="_top" xlink:title="EH 対応を実施">
<polygon fill="white" stroke="black" points="1523.5,-328.5 1523.5,-347.5 1603.5,-347.5 1603.5,-328.5 1523.5,-328.5"/>
<text text-anchor="middle" x="1563.5" y="-335.5" font-family="Helvetica,sans-Serif" font-size="10.00">EH_respond_</text>
</a>
</g>
</g>
<!-- Node18&#45;&gt;Node19 -->
<g id="edge22" class="edge">
<title>Node18&#45;&gt;Node19</title>
<path fill="none" stroke="midnightblue" d="M1674.69,-357.98C1650,-353.5 1624.08,-348.81 1603.6,-345.09"/>
<polygon fill="midnightblue" stroke="midnightblue" points="1674.35,-361.48 1684.81,-359.82 1675.6,-354.59 1674.35,-361.48"/>
</g>
<!-- Node28 -->
<g id="node28" class="node">
<title>Node28</title>
<g id="a_node28"><a xlink:href="mode__manager_8c.html#a4a483437e28116e6067d488392922a8f" target="_top" xlink:title="(モード遷移に対応する)ブロックコマンドのタイムラインへの展開を行う">
<polygon fill="white" stroke="black" points="1495.5,-366.5 1495.5,-385.5 1631.5,-385.5 1631.5,-366.5 1495.5,-366.5"/>
<text text-anchor="middle" x="1563.5" y="-373.5" font-family="Helvetica,sans-Serif" font-size="10.00">MM_deploy_block_cmd_</text>
</a>
</g>
</g>
<!-- Node18&#45;&gt;Node28 -->
<g id="edge34" class="edge">
<title>Node18&#45;&gt;Node28</title>
<path fill="none" stroke="midnightblue" d="M1674.5,-374.29C1660.21,-374.51 1645.52,-374.74 1631.71,-374.96"/>
<polygon fill="midnightblue" stroke="midnightblue" points="1674.87,-377.78 1684.81,-374.13 1674.76,-370.79 1674.87,-377.78"/>
</g>
<!-- Node20 -->
<g id="node20" class="node">
<title>Node20</title>
<g id="a_node20"><a xlink:href="event__handler_8c.html#ac7461e79109f06783e2c620a6d999a6b" target="_top" xlink:title="EH の対応条件をチェックし， EL_Event に対応する">
<polygon fill="white" stroke="black" points="1281,-328.5 1281,-347.5 1442,-347.5 1442,-328.5 1281,-328.5"/>
<text text-anchor="middle" x="1361.5" y="-335.5" font-family="Helvetica,sans-Serif" font-size="10.00">EH_check_rule_and_respond_</text>
</a>
</g>
</g>
<!-- Node19&#45;&gt;Node20 -->
<g id="edge23" class="edge">
<title>Node19&#45;&gt;Node20</title>
<path fill="none" stroke="midnightblue" d="M1513.34,-338C1491.97,-338 1466.38,-338 1442.4,-338"/>
<polygon fill="midnightblue" stroke="midnightblue" points="1513.46,-341.5 1523.46,-338 1513.46,-334.5 1513.46,-341.5"/>
</g>
<!-- Node21 -->
<g id="node21" class="node">
<title>Node21</title>
<g id="a_node21"><a xlink:href="event__handler_8c.html#a227ed3b7079c58dee50a81ce408549a2" target="_top" xlink:title="EL_Event に対応する EH_Rule が存在するかチェックし，対応する">
<polygon fill="white" stroke="black" points="1115,-279 1115,-309 1235,-309 1235,-279 1115,-279"/>
<text text-anchor="start" x="1123" y="-297" font-family="Helvetica,sans-Serif" font-size="10.00">EH_check_event_and</text>
<text text-anchor="middle" x="1175" y="-286" font-family="Helvetica,sans-Serif" font-size="10.00">_respond_</text>
</a>
</g>
</g>
<!-- Node20&#45;&gt;Node21 -->
<g id="edge24" class="edge">
<title>Node20&#45;&gt;Node21</title>
<path fill="none" stroke="midnightblue" d="M1310.48,-326.07C1287.26,-320.53 1259.49,-313.91 1235.23,-308.13"/>
<polygon fill="midnightblue" stroke="midnightblue" points="1309.93,-329.54 1320.47,-328.45 1311.55,-322.73 1309.93,-329.54"/>
</g>
<!-- Node22 -->
<g id="node22" class="node">
<title>Node22</title>
<g id="a_node22"><a xlink:href="event__handler_8c.html#af084576db8b00a4c7e4b117314b128db" target="_top" xlink:title="上位の EH の対応条件をチェックし，対応する">
<polygon fill="white" stroke="black" points="930.5,-320 930.5,-350 1059.5,-350 1059.5,-320 930.5,-320"/>
<text text-anchor="start" x="938.5" y="-338" font-family="Helvetica,sans-Serif" font-size="10.00">EH_check_higher_level</text>
<text text-anchor="middle" x="995" y="-327" font-family="Helvetica,sans-Serif" font-size="10.00">_rule_and_respond_</text>
</a>
</g>
</g>
<!-- Node21&#45;&gt;Node22 -->
<g id="edge25" class="edge">
<title>Node21&#45;&gt;Node22</title>
<path fill="none" stroke="midnightblue" d="M1104.61,-309.98C1089.78,-313.4 1074.19,-316.99 1059.6,-320.35"/>
<polygon fill="midnightblue" stroke="midnightblue" points="1105.77,-313.31 1114.73,-307.65 1104.2,-306.49 1105.77,-313.31"/>
</g>
<!-- Node23 -->
<g id="node23" class="node">
<title>Node23</title>
<g id="a_node23"><a xlink:href="event__handler_8h.html#a76ddd224739890733cbd318e2d5c015b" target="_top" xlink:title="event_handler の実行">
<polygon fill="white" stroke="black" points="958,-281.5 958,-300.5 1032,-300.5 1032,-281.5 958,-281.5"/>
<text text-anchor="middle" x="995" y="-288.5" font-family="Helvetica,sans-Serif" font-size="10.00">EH_execute</text>
</a>
</g>
</g>
<!-- Node21&#45;&gt;Node23 -->
<g id="edge27" class="edge">
<title>Node21&#45;&gt;Node23</title>
<path fill="none" stroke="midnightblue" d="M1104.64,-292.83C1079.9,-292.41 1053.03,-291.96 1032.2,-291.61"/>
<polygon fill="midnightblue" stroke="midnightblue" points="1104.67,-296.33 1114.73,-293 1104.79,-289.33 1104.67,-296.33"/>
</g>
<!-- Node22&#45;&gt;Node20 -->
<g id="edge26" class="edge">
<title>Node22&#45;&gt;Node20</title>
<path fill="none" stroke="midnightblue" d="M1069.99,-335.61C1131.28,-336.11 1218.19,-336.83 1280.96,-337.35"/>
<polygon fill="midnightblue" stroke="midnightblue" points="1069.65,-332.11 1059.62,-335.52 1069.59,-339.11 1069.65,-332.11"/>
</g>
<!-- Node24 -->
<g id="node24" class="node">
<title>Node24</title>
<g id="a_node24"><a xlink:href="event__utility_8h.html#a67f98486105b4baa865c8b30d346afa8" target="_top" xlink:title=" ">
<polygon fill="white" stroke="black" points="727,-304.5 727,-323.5 880,-323.5 880,-304.5 727,-304.5"/>
<text text-anchor="middle" x="803.5" y="-311.5" font-family="Helvetica,sans-Serif" font-size="10.00">Cmd_EVENT_UTIL_EXEC_EH</text>
</a>
</g>
</g>
<!-- Node23&#45;&gt;Node24 -->
<g id="edge28" class="edge">
<title>Node23&#45;&gt;Node24</title>
<path fill="none" stroke="midnightblue" d="M947.96,-296.59C927.56,-299.06 903.04,-302.04 880.08,-304.83"/>
<polygon fill="midnightblue" stroke="midnightblue" points="948.41,-300.06 957.91,-295.38 947.56,-293.11 948.41,-300.06"/>
</g>
<!-- Node25 -->
<g id="node25" class="node">
<title>Node25</title>
<g id="a_node25"><a xlink:href="event__utility_8c.html#a548bb66aea76e09e9f801c10fad11b98" target="_top" xlink:title=" ">
<polygon fill="white" stroke="black" points="743.5,-266.5 743.5,-285.5 863.5,-285.5 863.5,-266.5 743.5,-266.5"/>
<text text-anchor="middle" x="803.5" y="-273.5" font-family="Helvetica,sans-Serif" font-size="10.00">EVENT_UTIL_update_</text>
</a>
</g>
</g>
<!-- Node23&#45;&gt;Node25 -->
<g id="edge30" class="edge">
<title>Node23&#45;&gt;Node25</title>
<path fill="none" stroke="midnightblue" d="M947.82,-287.34C922.45,-285.34 890.71,-282.82 863.56,-280.67"/>
<polygon fill="midnightblue" stroke="midnightblue" points="947.67,-290.84 957.91,-288.14 948.22,-283.87 947.67,-290.84"/>
</g>
<!-- Node24&#45;&gt;Node3 -->
<g id="edge29" class="edge">
<title>Node24&#45;&gt;Node3</title>
<path fill="none" stroke="midnightblue" d="M778.29,-329.08C740.04,-352.91 666.7,-398.59 634.87,-418.42"/>
<polygon fill="midnightblue" stroke="midnightblue" points="780.58,-331.78 787.21,-323.52 776.87,-325.84 780.58,-331.78"/>
</g>
<!-- Node26 -->
<g id="node26" class="node">
<title>Node26</title>
<g id="a_node26"><a xlink:href="event__utility_8h.html#aa819ee69e6cd34b9217e9627ee12f70c" target="_top" xlink:title=" ">
<polygon fill="white" stroke="black" points="551,-247.5 551,-266.5 686,-266.5 686,-247.5 551,-247.5"/>
<text text-anchor="middle" x="618.5" y="-254.5" font-family="Helvetica,sans-Serif" font-size="10.00">EVENT_UTIL_create_app</text>
</a>
</g>
</g>
<!-- Node25&#45;&gt;Node26 -->
<g id="edge31" class="edge">
<title>Node25&#45;&gt;Node26</title>
<path fill="none" stroke="midnightblue" d="M733.32,-268.82C717.83,-267.21 701.45,-265.51 686.07,-263.91"/>
<polygon fill="midnightblue" stroke="midnightblue" points="733.03,-272.31 743.34,-269.86 733.75,-265.34 733.03,-272.31"/>
</g>
<!-- Node27 -->
<g id="node27" class="node">
<title>Node27</title>
<g id="a_node27"><a xlink:href="app__registry_8h.html#ab944b1d78a41e427bc2ed57f9c4e9534" target="_top" xlink:title=" ">
<polygon fill="white" stroke="black" points="381,-152.5 381,-171.5 515,-171.5 515,-152.5 381,-152.5"/>
<text text-anchor="middle" x="448" y="-159.5" font-family="Helvetica,sans-Serif" font-size="10.00">AR_load_initial_settings</text>
</a>
</g>
</g>
<!-- Node26&#45;&gt;Node27 -->
<g id="edge32" class="edge">
<title>Node26&#45;&gt;Node27</title>
<path fill="none" stroke="midnightblue" d="M591.31,-242.23C556.42,-222.57 495.68,-188.32 466.13,-171.66"/>
<polygon fill="midnightblue" stroke="midnightblue" points="589.99,-245.51 600.42,-247.37 593.42,-239.41 589.99,-245.51"/>
</g>
<!-- Node27&#45;&gt;Node5 -->
<g id="edge33" class="edge">
<title>Node27&#45;&gt;Node5</title>
<path fill="none" stroke="midnightblue" d="M424.09,-177.27C394.47,-197.02 343.76,-230.82 318.99,-247.34"/>
<polygon fill="midnightblue" stroke="midnightblue" points="426.17,-180.09 432.55,-171.63 422.29,-174.27 426.17,-180.09"/>
</g>
<!-- Node29 -->
<g id="node29" class="node">
<title>Node29</title>
<g id="a_node29"><a xlink:href="mode__manager_8c.html#ae4381c1c84d8b5d8aa033e522530436d" target="_top" xlink:title="Cmd_MM_START_TRANSITIONの実体">
<polygon fill="white" stroke="black" points="935.5,-369.5 935.5,-388.5 1054.5,-388.5 1054.5,-369.5 935.5,-369.5"/>
<text text-anchor="middle" x="995" y="-376.5" font-family="Helvetica,sans-Serif" font-size="10.00">MM_start_transition_</text>
</a>
</g>
</g>
<!-- Node28&#45;&gt;Node29 -->
<g id="edge35" class="edge">
<title>Node28&#45;&gt;Node29</title>
<path fill="none" stroke="midnightblue" d="M1485.17,-376.41C1370.38,-377.02 1157.4,-378.15 1054.57,-378.69"/>
<polygon fill="midnightblue" stroke="midnightblue" points="1485.31,-379.91 1495.29,-376.36 1485.27,-372.91 1485.31,-379.91"/>
</g>
<!-- Node30 -->
<g id="node30" class="node">
<title>Node30</title>
<g id="a_node30"><a xlink:href="mode__manager_8h.html#ab54a8f93c525edc7f7f2283ad94af267" target="_top" xlink:title="モード遷移を開始するコマンド">
<polygon fill="white" stroke="black" points="722,-380.5 722,-399.5 885,-399.5 885,-380.5 722,-380.5"/>
<text text-anchor="middle" x="803.5" y="-387.5" font-family="Helvetica,sans-Serif" font-size="10.00">Cmd_MM_START_TRANSITION</text>
</a>
</g>
</g>
<!-- Node29&#45;&gt;Node30 -->
<g id="edge36" class="edge">
<title>Node29&#45;&gt;Node30</title>
<path fill="none" stroke="midnightblue" d="M925.1,-383C912.13,-383.75 898.46,-384.55 885.16,-385.32"/>
<polygon fill="midnightblue" stroke="midnightblue" points="925.56,-386.48 935.34,-382.41 925.15,-379.49 925.56,-386.48"/>
</g>
<!-- Node31 -->
<g id="node31" class="node">
<title>Node31</title>
<g id="a_node31"><a xlink:href="mode__manager_8h.html#a89fbf516698fe6c690438e21ec8efd82" target="_top" xlink:title="モード遷移を管理する ModeManager 構造体 (mode_manager_) の初期化">
<polygon fill="white" stroke="black" points="407,-295.5 407,-314.5 489,-314.5 489,-295.5 407,-295.5"/>
<text text-anchor="middle" x="448" y="-302.5" font-family="Helvetica,sans-Serif" font-size="10.00">MM_initialize</text>
</a>
</g>
</g>
<!-- Node29&#45;&gt;Node31 -->
<g id="edge38" class="edge">
<title>Node29&#45;&gt;Node31</title>
<path fill="none" stroke="midnightblue" d="M925.31,-369.67C810.16,-354.04 581.73,-323.02 489.26,-310.47"/>
<polygon fill="midnightblue" stroke="midnightblue" points="925.04,-373.17 935.42,-371.05 925.98,-366.23 925.04,-373.17"/>
</g>
<!-- Node30&#45;&gt;Node3 -->
<g id="edge37" class="edge">
<title>Node30&#45;&gt;Node3</title>
<path fill="none" stroke="midnightblue" d="M746.25,-401.68C720.29,-407.07 689.88,-413.39 665.35,-418.48"/>
<polygon fill="midnightblue" stroke="midnightblue" points="747.24,-405.05 756.32,-399.59 745.82,-398.2 747.24,-405.05"/>
</g>
<!-- Node31&#45;&gt;Node5 -->
<g id="edge39" class="edge">
<title>Node31&#45;&gt;Node5</title>
<path fill="none" stroke="midnightblue" d="M408.71,-292.1C384.86,-284.07 354.68,-273.9 332.95,-266.58"/>
<polygon fill="midnightblue" stroke="midnightblue" points="407.91,-295.53 418.51,-295.4 410.15,-288.89 407.91,-295.53"/>
</g>
<!-- Node34 -->
<g id="node34" class="node">
<title>Node34</title>
<g id="a_node34"><a xlink:href="di__aobc_8c.html#ac2b0fb03e89d75b82419d4ad53202f8b" target="_top" xlink:title=" ">
<polygon fill="white" stroke="black" points="921,-228.5 921,-247.5 1069,-247.5 1069,-228.5 921,-228.5"/>
<text text-anchor="middle" x="995" y="-235.5" font-family="Helvetica,sans-Serif" font-size="10.00">DI_AOBC_cmd_dispatcher_</text>
</a>
</g>
</g>
<!-- Node33&#45;&gt;Node34 -->
<g id="edge42" class="edge">
<title>Node33&#45;&gt;Node34</title>
<path fill="none" stroke="midnightblue" d="M1140.11,-194.17C1119.67,-201.88 1093.03,-211.54 1069,-219 1058.24,-222.34 1046.48,-225.58 1035.59,-228.41"/>
<polygon fill="midnightblue" stroke="midnightblue" points="1141.51,-197.38 1149.61,-190.55 1139.02,-190.84 1141.51,-197.38"/>
</g>
<!-- Node36 -->
<g id="node36" class="node">
<title>Node36</title>
<g id="a_node36"><a xlink:href="gs__command__dispatcher_8c.html#a4fe4cfc8c0f816a286dc50d8797cef54" target="_top" xlink:title="GSCD App 実行関数">
<polygon fill="white" stroke="black" points="947,-190.5 947,-209.5 1043,-209.5 1043,-190.5 947,-190.5"/>
<text text-anchor="middle" x="995" y="-197.5" font-family="Helvetica,sans-Serif" font-size="10.00">GSCD_dispatch_</text>
</a>
</g>
</g>
<!-- Node33&#45;&gt;Node36 -->
<g id="edge44" class="edge">
<title>Node33&#45;&gt;Node36</title>
<path fill="none" stroke="midnightblue" d="M1094.63,-189.47C1077,-191.35 1058.86,-193.29 1043.03,-194.98"/>
<polygon fill="midnightblue" stroke="midnightblue" points="1095.35,-192.91 1104.93,-188.37 1094.61,-185.95 1095.35,-192.91"/>
</g>
<!-- Node38 -->
<g id="node38" class="node">
<title>Node38</title>
<g id="a_node38"><a xlink:href="realtime__command__dispatcher_8c.html#aa66b7d158969999a789dc69d2d5b1b7d" target="_top" xlink:title=" ">
<polygon fill="white" stroke="black" points="948,-152.5 948,-171.5 1042,-171.5 1042,-152.5 948,-152.5"/>
<text text-anchor="middle" x="995" y="-159.5" font-family="Helvetica,sans-Serif" font-size="10.00">RTCD_dispatch_</text>
</a>
</g>
</g>
<!-- Node33&#45;&gt;Node38 -->
<g id="edge47" class="edge">
<title>Node33&#45;&gt;Node38</title>
<path fill="none" stroke="midnightblue" d="M1094.98,-172.57C1076.95,-170.64 1058.36,-168.66 1042.23,-166.93"/>
<polygon fill="midnightblue" stroke="midnightblue" points="1094.61,-176.05 1104.93,-173.63 1095.35,-169.09 1094.61,-176.05"/>
</g>
<!-- Node40 -->
<g id="node40" class="node">
<title>Node40</title>
<g id="a_node40"><a xlink:href="task__dispatcher_8h.html#ac880fe6e26ecdf8711d08980cad6787d" target="_top" xlink:title="現在時刻に応じて、TaskList から Cmd を一つ実行する or TaskList を再展開する">
<polygon fill="white" stroke="black" points="937,-13 937,-43 1053,-43 1053,-13 937,-13"/>
<text text-anchor="start" x="945" y="-31" font-family="Helvetica,sans-Serif" font-size="10.00">TDSP_execute_pl_as</text>
<text text-anchor="middle" x="995" y="-20" font-family="Helvetica,sans-Serif" font-size="10.00">_task_list</text>
</a>
</g>
</g>
<!-- Node33&#45;&gt;Node40 -->
<g id="edge50" class="edge">
<title>Node33&#45;&gt;Node40</title>
<path fill="none" stroke="midnightblue" d="M1155.91,-164.62C1135.13,-145.87 1099.91,-114.37 1069,-88 1050.78,-72.45 1029.6,-55.12 1014.76,-43.1"/>
<polygon fill="midnightblue" stroke="midnightblue" points="1153.62,-167.26 1163.38,-171.36 1158.31,-162.06 1153.62,-167.26"/>
</g>
<!-- Node43 -->
<g id="node43" class="node">
<title>Node43</title>
<g id="a_node43"><a xlink:href="timeline__command__dispatcher_8c.html#adc7c7ed35f5cb69bb1d8baccd0193f8d" target="_top" xlink:title="指定された lien_no の Timeline コマンドを実行する">
<polygon fill="white" stroke="black" points="934.5,-97.5 934.5,-116.5 1055.5,-116.5 1055.5,-97.5 934.5,-97.5"/>
<text text-anchor="middle" x="995" y="-104.5" font-family="Helvetica,sans-Serif" font-size="10.00">TLCD_tlc_dispatcher_</text>
</a>
</g>
</g>
<!-- Node33&#45;&gt;Node43 -->
<g id="edge54" class="edge">
<title>Node33&#45;&gt;Node43</title>
<path fill="none" stroke="midnightblue" d="M1141.69,-167.57C1106.28,-152.85 1050.36,-129.6 1019.1,-116.6"/>
<polygon fill="midnightblue" stroke="midnightblue" points="1140.52,-170.87 1151.09,-171.48 1143.2,-164.41 1140.52,-170.87"/>
</g>
<!-- Node35 -->
<g id="node35" class="node">
<title>Node35</title>
<g id="a_node35"><a xlink:href="di__aobc_8h.html#a22b846ecf2fe48c7bff4f2c10f2bc284" target="_top" xlink:title="AOBC cmd dispatcher アプリ生成関数">
<polygon fill="white" stroke="black" points="732,-228.5 732,-247.5 875,-247.5 875,-228.5 732,-228.5"/>
<text text-anchor="middle" x="803.5" y="-235.5" font-family="Helvetica,sans-Serif" font-size="10.00">DI_AOBC_cmd_dispatcher</text>
</a>
</g>
</g>
<!-- Node34&#45;&gt;Node35 -->
<g id="edge43" class="edge">
<title>Node34&#45;&gt;Node35</title>
<path fill="none" stroke="midnightblue" d="M910.44,-238C898.64,-238 886.6,-238 875.08,-238"/>
<polygon fill="midnightblue" stroke="midnightblue" points="910.73,-241.5 920.73,-238 910.73,-234.5 910.73,-241.5"/>
</g>
<!-- Node37 -->
<g id="node37" class="node">
<title>Node37</title>
<g id="a_node37"><a xlink:href="gs__command__dispatcher_8h.html#a0195f703ab1a606ae7541ef886e609bc" target="_top" xlink:title="GSCD App 生成関数">
<polygon fill="white" stroke="black" points="566.5,-190.5 566.5,-209.5 670.5,-209.5 670.5,-190.5 566.5,-190.5"/>
<text text-anchor="middle" x="618.5" y="-197.5" font-family="Helvetica,sans-Serif" font-size="10.00">GSCD_create_app</text>
</a>
</g>
</g>
<!-- Node36&#45;&gt;Node37 -->
<g id="edge45" class="edge">
<title>Node36&#45;&gt;Node37</title>
<path fill="none" stroke="midnightblue" d="M936.62,-200C864,-200 740.02,-200 670.55,-200"/>
<polygon fill="midnightblue" stroke="midnightblue" points="936.95,-203.5 946.95,-200 936.95,-196.5 936.95,-203.5"/>
</g>
<!-- Node37&#45;&gt;Node27 -->
<g id="edge46" class="edge">
<title>Node37&#45;&gt;Node27</title>
<path fill="none" stroke="midnightblue" d="M565.07,-188.18C541.31,-182.82 513.6,-176.57 491.21,-171.52"/>
<polygon fill="midnightblue" stroke="midnightblue" points="564.46,-191.63 574.98,-190.41 566,-184.8 564.46,-191.63"/>
</g>
<!-- Node39 -->
<g id="node39" class="node">
<title>Node39</title>
<g id="a_node39"><a xlink:href="realtime__command__dispatcher_8h.html#a6de82e8f79b0281c403be56abfaec6ba" target="_top" xlink:title=" ">
<polygon fill="white" stroke="black" points="568,-152.5 568,-171.5 669,-171.5 669,-152.5 568,-152.5"/>
<text text-anchor="middle" x="618.5" y="-159.5" font-family="Helvetica,sans-Serif" font-size="10.00">RTCD_create_app</text>
</a>
</g>
</g>
<!-- Node38&#45;&gt;Node39 -->
<g id="edge48" class="edge">
<title>Node38&#45;&gt;Node39</title>
<path fill="none" stroke="midnightblue" d="M937.33,-162C864.37,-162 738.71,-162 669.26,-162"/>
<polygon fill="midnightblue" stroke="midnightblue" points="937.7,-165.5 947.7,-162 937.7,-158.5 937.7,-165.5"/>
</g>
<!-- Node39&#45;&gt;Node27 -->
<g id="edge49" class="edge">
<title>Node39&#45;&gt;Node27</title>
<path fill="none" stroke="midnightblue" d="M557.56,-162C543.82,-162 529.14,-162 515.16,-162"/>
<polygon fill="midnightblue" stroke="midnightblue" points="557.86,-165.5 567.86,-162 557.86,-158.5 557.86,-165.5"/>
</g>
<!-- Node41 -->
<g id="node41" class="node">
<title>Node41</title>
<g id="a_node41"><a xlink:href="c2a__core__main_8h.html#a64e3c69d223ce8236ab718278b17b195" target="_top" xlink:title=" ">
<polygon fill="white" stroke="black" points="757.5,-0.5 757.5,-19.5 849.5,-19.5 849.5,-0.5 757.5,-0.5"/>
<text text-anchor="middle" x="803.5" y="-7.5" font-family="Helvetica,sans-Serif" font-size="10.00">C2A_core_main</text>
</a>
</g>
</g>
<!-- Node40&#45;&gt;Node41 -->
<g id="edge51" class="edge">
<title>Node40&#45;&gt;Node41</title>
<path fill="none" stroke="midnightblue" d="M926.88,-21.62C901.33,-19.2 872.83,-16.49 849.77,-14.3"/>
<polygon fill="midnightblue" stroke="midnightblue" points="926.6,-25.11 936.89,-22.57 927.26,-18.14 926.6,-25.11"/>
</g>
<!-- Node42 -->
<g id="node42" class="node">
<title>Node42</title>
<g id="a_node42"><a xlink:href="c2a__main_8c.html#a06acf8a326dfbc653a6b7094d98099b9" target="_top" xlink:title=" ">
<polygon fill="white" stroke="black" points="155,-57.5 155,-76.5 226,-76.5 226,-57.5 155,-57.5"/>
<text text-anchor="middle" x="190.5" y="-64.5" font-family="Helvetica,sans-Serif" font-size="10.00">C2A_main_</text>
</a>
</g>
</g>
<!-- Node41&#45;&gt;Node42 -->
<g id="edge52" class="edge">
<title>Node41&#45;&gt;Node42</title>
<path fill="none" stroke="midnightblue" d="M747.35,-13.69C696.37,-17.21 618.52,-22.88 551,-29 431.62,-39.82 290.26,-55.65 226.17,-62.99"/>
<polygon fill="midnightblue" stroke="midnightblue" points="747.75,-17.17 757.49,-12.99 747.27,-10.19 747.75,-17.17"/>
</g>
<!-- Node42&#45;&gt;Node7 -->
<g id="edge53" class="edge">
<title>Node42&#45;&gt;Node7</title>
<path fill="none" stroke="midnightblue" d="M145.02,-73.55C136.65,-74.78 127.79,-76.09 119.07,-77.37"/>
<polygon fill="midnightblue" stroke="midnightblue" points="145.55,-77.01 154.93,-72.09 144.53,-70.09 145.55,-77.01"/>
</g>
<!-- Node44 -->
<g id="node44" class="node">
<title>Node44</title>
<g id="a_node44"><a xlink:href="timeline__command__dispatcher_8c.html#a66b090a512984479de9b511902b08514" target="_top" xlink:title=" ">
<polygon fill="white" stroke="black" points="748.5,-76.5 748.5,-95.5 858.5,-95.5 858.5,-76.5 748.5,-76.5"/>
<text text-anchor="middle" x="803.5" y="-83.5" font-family="Helvetica,sans-Serif" font-size="10.00">TLCD_bc_dispatch_</text>
</a>
</g>
</g>
<!-- Node43&#45;&gt;Node44 -->
<g id="edge55" class="edge">
<title>Node43&#45;&gt;Node44</title>
<path fill="none" stroke="midnightblue" d="M924.2,-99.26C902.6,-96.87 879.14,-94.27 858.76,-92.01"/>
<polygon fill="midnightblue" stroke="midnightblue" points="923.98,-102.76 934.3,-100.38 924.75,-95.8 923.98,-102.76"/>
</g>
<!-- Node46 -->
<g id="node46" class="node">
<title>Node46</title>
<g id="a_node46"><a xlink:href="timeline__command__dispatcher_8c.html#a61acaaad8a32749d22fd16ee68d8522c" target="_top" xlink:title=" ">
<polygon fill="white" stroke="black" points="748.5,-38.5 748.5,-57.5 858.5,-57.5 858.5,-38.5 748.5,-38.5"/>
<text text-anchor="middle" x="803.5" y="-45.5" font-family="Helvetica,sans-Serif" font-size="10.00">TLCD_gs_dispatch_</text>
</a>
</g>
</g>
<!-- Node43&#45;&gt;Node46 -->
<g id="edge58" class="edge">
<title>Node43&#45;&gt;Node46</title>
<path fill="none" stroke="midnightblue" d="M960.86,-93.66C939.44,-85.33 910.83,-74.76 885,-67 873.45,-63.53 860.81,-60.29 849.04,-57.51"/>
<polygon fill="midnightblue" stroke="midnightblue" points="959.87,-97.03 970.46,-97.43 962.43,-90.52 959.87,-97.03"/>
</g>
<!-- Node48 -->
<g id="node48" class="node">
<title>Node48</title>
<g id="a_node48"><a xlink:href="timeline__command__dispatcher_8c.html#ab6c98e6d001183d4d8b32f0c333c62d0" target="_top" xlink:title=" ">
<polygon fill="white" stroke="black" points="745.5,-114.5 745.5,-133.5 861.5,-133.5 861.5,-114.5 745.5,-114.5"/>
<text text-anchor="middle" x="803.5" y="-121.5" font-family="Helvetica,sans-Serif" font-size="10.00">TLCD_tlm_dispatch_</text>
</a>
</g>
</g>
<!-- Node43&#45;&gt;Node48 -->
<g id="edge61" class="edge">
<title>Node43&#45;&gt;Node48</title>
<path fill="none" stroke="midnightblue" d="M924.33,-113.25C903.71,-115.1 881.37,-117.1 861.63,-118.87"/>
<polygon fill="midnightblue" stroke="midnightblue" points="924.65,-116.74 934.3,-112.36 924.03,-109.76 924.65,-116.74"/>
</g>
<!-- Node45 -->
<g id="node45" class="node">
<title>Node45</title>
<g id="a_node45"><a xlink:href="timeline__command__dispatcher_8h.html#a613f71be9eb32486ac16a35bc5e02678" target="_top" xlink:title="TL1 (BC を展開する用の Timeline) の実行 App を作成する">
<polygon fill="white" stroke="black" points="559.5,-76.5 559.5,-95.5 677.5,-95.5 677.5,-76.5 559.5,-76.5"/>
<text text-anchor="middle" x="618.5" y="-83.5" font-family="Helvetica,sans-Serif" font-size="10.00">TLCD_bc_create_app</text>
</a>
</g>
</g>
<!-- Node44&#45;&gt;Node45 -->
<g id="edge56" class="edge">
<title>Node44&#45;&gt;Node45</title>
<path fill="none" stroke="midnightblue" d="M737.98,-86C718.28,-86 696.76,-86 677.52,-86"/>
<polygon fill="midnightblue" stroke="midnightblue" points="738.09,-89.5 748.09,-86 738.09,-82.5 738.09,-89.5"/>
</g>
<!-- Node45&#45;&gt;Node27 -->
<g id="edge57" class="edge">
<title>Node45&#45;&gt;Node27</title>
<path fill="none" stroke="midnightblue" d="M568.38,-98.64C562.45,-100.57 556.54,-102.7 551,-105 518.41,-118.55 483,-140.01 463.66,-152.37"/>
<polygon fill="midnightblue" stroke="midnightblue" points="569.78,-101.87 578.3,-95.57 567.71,-95.18 569.78,-101.87"/>
</g>
<!-- Node47 -->
<g id="node47" class="node">
<title>Node47</title>
<g id="a_node47"><a xlink:href="timeline__command__dispatcher_8h.html#aeb9665c53e8687acbe00da062d413ea3" target="_top" xlink:title="TL0 (GS から登録されるバス用の Timeline) の実行 App を作成する">
<polygon fill="white" stroke="black" points="559.5,-38.5 559.5,-57.5 677.5,-57.5 677.5,-38.5 559.5,-38.5"/>
<text text-anchor="middle" x="618.5" y="-45.5" font-family="Helvetica,sans-Serif" font-size="10.00">TLCD_gs_create_app</text>
</a>
</g>
</g>
<!-- Node46&#45;&gt;Node47 -->
<g id="edge59" class="edge">
<title>Node46&#45;&gt;Node47</title>
<path fill="none" stroke="midnightblue" d="M737.98,-48C718.28,-48 696.76,-48 677.52,-48"/>
<polygon fill="midnightblue" stroke="midnightblue" points="738.09,-51.5 748.09,-48 738.09,-44.5 738.09,-51.5"/>
</g>
<!-- Node47&#45;&gt;Node27 -->
<g id="edge60" class="edge">
<title>Node47&#45;&gt;Node27</title>
<path fill="none" stroke="midnightblue" d="M563.46,-61.05C559.14,-62.8 554.93,-64.78 551,-67 509.91,-90.2 472.24,-133.18 456.62,-152.34"/>
<polygon fill="midnightblue" stroke="midnightblue" points="564.85,-64.26 573.03,-57.54 562.44,-57.69 564.85,-64.26"/>
</g>
<!-- Node49 -->
<g id="node49" class="node">
<title>Node49</title>
<g id="a_node49"><a xlink:href="timeline__command__dispatcher_8h.html#a420223ebba00f8b607cf320642276394" target="_top" xlink:title="TL2 (TLM を登録する用の Timeline) の実行 App を作成する">
<polygon fill="white" stroke="black" points="557,-114.5 557,-133.5 680,-133.5 680,-114.5 557,-114.5"/>
<text text-anchor="middle" x="618.5" y="-121.5" font-family="Helvetica,sans-Serif" font-size="10.00">TLCD_tlm_create_app</text>
</a>
</g>
</g>
<!-- Node48&#45;&gt;Node49 -->
<g id="edge62" class="edge">
<title>Node48&#45;&gt;Node49</title>
<path fill="none" stroke="midnightblue" d="M735.18,-124C717.11,-124 697.69,-124 680.01,-124"/>
<polygon fill="midnightblue" stroke="midnightblue" points="735.35,-127.5 745.35,-124 735.35,-120.5 735.35,-127.5"/>
</g>
<!-- Node49&#45;&gt;Node27 -->
<g id="edge63" class="edge">
<title>Node49&#45;&gt;Node27</title>
<path fill="none" stroke="midnightblue" d="M565.07,-135.82C541.31,-141.18 513.6,-147.43 491.21,-152.48"/>
<polygon fill="midnightblue" stroke="midnightblue" points="566,-139.2 574.98,-133.59 564.46,-132.37 566,-139.2"/>
</g>
</g>
</svg>
