<?xml version="1.0" encoding="UTF-8" standalone="no"?>
<!DOCTYPE svg PUBLIC "-//W3C//DTD SVG 1.1//EN"
 "http://www.w3.org/Graphics/SVG/1.1/DTD/svg11.dtd">
<!-- Generated by graphviz version 2.43.0 (0)
 -->
<!-- Title: DSSC_set_tx_frame Pages: 1 -->
<svg width="1713pt" height="367pt"
 viewBox="0.00 0.00 1713.00 366.50" xmlns="http://www.w3.org/2000/svg" xmlns:xlink="http://www.w3.org/1999/xlink">
<g id="graph0" class="graph" transform="scale(1 1) rotate(0) translate(4 362.5)">
<title>DSSC_set_tx_frame</title>
<polygon fill="white" stroke="transparent" points="-4,4 -4,-362.5 1709,-362.5 1709,4 -4,4"/>
<!-- Node1 -->
<g id="node1" class="node">
<title>Node1</title>
<g id="a_node1"><a xlink:title=" ">
<polygon fill="#bfbfbf" stroke="black" points="1592,-174.5 1592,-193.5 1705,-193.5 1705,-174.5 1592,-174.5"/>
<text text-anchor="middle" x="1648.5" y="-181.5" font-family="Helvetica,sans-Serif" font-size="10.00">DSSC_set_tx_frame</text>
</a>
</g>
</g>
<!-- Node2 -->
<g id="node2" class="node">
<title>Node2</title>
<g id="a_node2"><a xlink:href="common__tlm__cmd__packet__for__driver__super_8c.html#a1621fe9ac5069a84bdc5135c83afcc41" target="_top" xlink:title="C2A 間通信など， CTCP をコンポ間通信に用いるとき，DS_init で渡す初期化関数内部用の Init Util">
<polygon fill="white" stroke="black" points="1445.5,-330.5 1445.5,-349.5 1534.5,-349.5 1534.5,-330.5 1445.5,-330.5"/>
<text text-anchor="middle" x="1490" y="-337.5" font-family="Helvetica,sans-Serif" font-size="10.00">CTCP_init_dssc</text>
</a>
</g>
</g>
<!-- Node1&#45;&gt;Node2 -->
<g id="edge1" class="edge">
<title>Node1&#45;&gt;Node2</title>
<path fill="none" stroke="midnightblue" d="M1638.49,-202.84C1624.43,-230.46 1594.79,-282.03 1556,-313 1546.64,-320.47 1534.92,-326.18 1524.02,-330.38"/>
<polygon fill="midnightblue" stroke="midnightblue" points="1641.66,-204.34 1642.96,-193.83 1635.38,-201.23 1641.66,-204.34"/>
</g>
<!-- Node11 -->
<g id="node11" class="node">
<title>Node11</title>
<g id="a_node11"><a xlink:href="gs_8c.html#a77d8b5e22b2b2615c9046060e50a3308" target="_top" xlink:title="上記初期化の共通部分をまとめた関数">
<polygon fill="white" stroke="black" points="1425,-191 1425,-221 1555,-221 1555,-191 1425,-191"/>
<text text-anchor="start" x="1433" y="-209" font-family="Helvetica,sans-Serif" font-size="10.00">GS_load_default_driver</text>
<text text-anchor="middle" x="1490" y="-198" font-family="Helvetica,sans-Serif" font-size="10.00">_super_init_settings_</text>
</a>
</g>
</g>
<!-- Node1&#45;&gt;Node11 -->
<g id="edge10" class="edge">
<title>Node1&#45;&gt;Node11</title>
<path fill="none" stroke="midnightblue" d="M1581.72,-193.25C1572.96,-194.48 1563.98,-195.74 1555.25,-196.97"/>
<polygon fill="midnightblue" stroke="midnightblue" points="1582.47,-196.68 1591.88,-191.82 1581.49,-189.74 1582.47,-196.68"/>
</g>
<!-- Node22 -->
<g id="node22" class="node">
<title>Node22</title>
<g id="a_node22"><a xlink:href="gs_8c.html#a553d2d0a7400d342a82530f0008095a7" target="_top" xlink:title="地上に向けて TLM を送信. 形式は VCDU">
<polygon fill="white" stroke="black" points="967.5,-289.5 967.5,-308.5 1054.5,-308.5 1054.5,-289.5 967.5,-289.5"/>
<text text-anchor="middle" x="1011" y="-296.5" font-family="Helvetica,sans-Serif" font-size="10.00">GS_send_vcdu</text>
</a>
</g>
</g>
<!-- Node1&#45;&gt;Node22 -->
<g id="edge25" class="edge">
<title>Node1&#45;&gt;Node22</title>
<path fill="none" stroke="midnightblue" d="M1622.34,-198.58C1604.29,-208.62 1579.17,-221.77 1556,-231 1483.75,-259.79 1464.69,-267.06 1388,-280 1268.44,-300.17 1124.73,-301.09 1054.64,-300.06"/>
<polygon fill="midnightblue" stroke="midnightblue" points="1624.09,-201.61 1631.08,-193.65 1620.65,-195.51 1624.09,-201.61"/>
</g>
<!-- Node27 -->
<g id="node27" class="node">
<title>Node27</title>
<g id="a_node27"><a xlink:href="i2c__common_8c.html#abfb106dad3e37cab3af6e335af639c84" target="_top" xlink:title="I2C_Config 構造体にて指定されたデバイスのレジスタへ読み込む">
<polygon fill="white" stroke="black" points="1441.5,-152.5 1441.5,-171.5 1538.5,-171.5 1538.5,-152.5 1441.5,-152.5"/>
<text text-anchor="middle" x="1490" y="-159.5" font-family="Helvetica,sans-Serif" font-size="10.00">I2C_read_bytes_</text>
</a>
</g>
</g>
<!-- Node1&#45;&gt;Node27 -->
<g id="edge32" class="edge">
<title>Node1&#45;&gt;Node27</title>
<path fill="none" stroke="midnightblue" d="M1581.95,-174.79C1567.43,-172.74 1552.31,-170.62 1538.66,-168.7"/>
<polygon fill="midnightblue" stroke="midnightblue" points="1581.49,-178.26 1591.88,-176.18 1582.47,-171.32 1581.49,-178.26"/>
</g>
<!-- Node30 -->
<g id="node30" class="node">
<title>Node30</title>
<g id="a_node30"><a xlink:href="i2c__common_8c.html#a9a4ac76054a67ac43ad1a995a1d5721c" target="_top" xlink:title="I2C_Config 構造体にて指定されたデバイスのレジスタへ書き込む">
<polygon fill="white" stroke="black" points="1440,-76.5 1440,-95.5 1540,-95.5 1540,-76.5 1440,-76.5"/>
<text text-anchor="middle" x="1490" y="-83.5" font-family="Helvetica,sans-Serif" font-size="10.00">I2C_write_bytes_</text>
</a>
</g>
</g>
<!-- Node1&#45;&gt;Node30 -->
<g id="edge35" class="edge">
<title>Node1&#45;&gt;Node30</title>
<path fill="none" stroke="midnightblue" d="M1623.35,-168.88C1590.85,-148.52 1533.96,-112.9 1506.58,-95.76"/>
<polygon fill="midnightblue" stroke="midnightblue" points="1621.88,-172.08 1632.21,-174.42 1625.59,-166.15 1621.88,-172.08"/>
</g>
<!-- Node33 -->
<g id="node33" class="node">
<title>Node33</title>
<g id="a_node33"><a xlink:href="uart__test_8c.html#a9e7c2b2c8647f39bf6081d6c3af7a1fe" target="_top" xlink:title=" ">
<polygon fill="white" stroke="black" points="1424,-11 1424,-41 1556,-41 1556,-11 1424,-11"/>
<text text-anchor="start" x="1432" y="-29" font-family="Helvetica,sans-Serif" font-size="10.00">UART_TEST_load_driver</text>
<text text-anchor="middle" x="1490" y="-18" font-family="Helvetica,sans-Serif" font-size="10.00">_super_init_settings_</text>
</a>
</g>
</g>
<!-- Node1&#45;&gt;Node33 -->
<g id="edge38" class="edge">
<title>Node1&#45;&gt;Node33</title>
<path fill="none" stroke="midnightblue" d="M1636.06,-165.65C1620.18,-141.16 1589.61,-97.38 1556,-67 1545.01,-57.07 1531.33,-48.04 1519.36,-41"/>
<polygon fill="midnightblue" stroke="midnightblue" points="1633.25,-167.75 1641.57,-174.3 1639.15,-163.99 1633.25,-167.75"/>
</g>
<!-- Node3 -->
<g id="node3" class="node">
<title>Node3</title>
<g id="a_node3"><a xlink:href="aobc_8c.html#ace8c524e6d1fe0054e4db53f9fbc0a26" target="_top" xlink:title=" ">
<polygon fill="white" stroke="black" points="1251,-328 1251,-358 1388,-358 1388,-328 1251,-328"/>
<text text-anchor="start" x="1259" y="-346" font-family="Helvetica,sans-Serif" font-size="10.00">AOBC_load_driver_super</text>
<text text-anchor="middle" x="1319.5" y="-335" font-family="Helvetica,sans-Serif" font-size="10.00">_init_settings_</text>
</a>
</g>
</g>
<!-- Node2&#45;&gt;Node3 -->
<g id="edge2" class="edge">
<title>Node2&#45;&gt;Node3</title>
<path fill="none" stroke="midnightblue" d="M1435.12,-340.96C1420.22,-341.22 1403.86,-341.52 1388.28,-341.79"/>
<polygon fill="midnightblue" stroke="midnightblue" points="1435.23,-344.46 1445.17,-340.78 1435.11,-337.46 1435.23,-344.46"/>
</g>
<!-- Node4 -->
<g id="node4" class="node">
<title>Node4</title>
<g id="a_node4"><a xlink:href="aobc_8c.html#ad57ac68788eec32299ab4a5070251380" target="_top" xlink:title="AOBC 初期化">
<polygon fill="white" stroke="black" points="1133.5,-333.5 1133.5,-352.5 1198.5,-352.5 1198.5,-333.5 1133.5,-333.5"/>
<text text-anchor="middle" x="1166" y="-340.5" font-family="Helvetica,sans-Serif" font-size="10.00">AOBC_init</text>
</a>
</g>
</g>
<!-- Node3&#45;&gt;Node4 -->
<g id="edge3" class="edge">
<title>Node3&#45;&gt;Node4</title>
<path fill="none" stroke="midnightblue" d="M1240.5,-343C1225.71,-343 1211.03,-343 1198.73,-343"/>
<polygon fill="midnightblue" stroke="midnightblue" points="1240.73,-346.5 1250.73,-343 1240.73,-339.5 1240.73,-346.5"/>
</g>
<!-- Node5 -->
<g id="node5" class="node">
<title>Node5</title>
<g id="a_node5"><a xlink:href="di__aobc_8c.html#ac004552dc331c8fea7b0b6f2acd75a15" target="_top" xlink:title=" ">
<polygon fill="white" stroke="black" points="968,-333.5 968,-352.5 1054,-352.5 1054,-333.5 968,-333.5"/>
<text text-anchor="middle" x="1011" y="-340.5" font-family="Helvetica,sans-Serif" font-size="10.00">DI_AOBC_init_</text>
</a>
</g>
</g>
<!-- Node4&#45;&gt;Node5 -->
<g id="edge4" class="edge">
<title>Node4&#45;&gt;Node5</title>
<path fill="none" stroke="midnightblue" d="M1123.17,-343C1101.71,-343 1075.62,-343 1054.11,-343"/>
<polygon fill="midnightblue" stroke="midnightblue" points="1123.3,-346.5 1133.3,-343 1123.3,-339.5 1123.3,-346.5"/>
</g>
<!-- Node6 -->
<g id="node6" class="node">
<title>Node6</title>
<g id="a_node6"><a xlink:href="di__aobc_8c.html#a78f30ebb5b71301c1da6d10eac787db4" target="_top" xlink:title="AOBC update アプリ生成関数">
<polygon fill="white" stroke="black" points="580,-333.5 580,-352.5 679,-352.5 679,-333.5 580,-333.5"/>
<text text-anchor="middle" x="629.5" y="-340.5" font-family="Helvetica,sans-Serif" font-size="10.00">DI_AOBC_update</text>
</a>
</g>
</g>
<!-- Node5&#45;&gt;Node6 -->
<g id="edge5" class="edge">
<title>Node5&#45;&gt;Node6</title>
<path fill="none" stroke="midnightblue" d="M957.5,-343C883.76,-343 750.54,-343 679.01,-343"/>
<polygon fill="midnightblue" stroke="midnightblue" points="957.94,-346.5 967.94,-343 957.94,-339.5 957.94,-346.5"/>
</g>
<!-- Node7 -->
<g id="node7" class="node">
<title>Node7</title>
<g id="a_node7"><a xlink:href="app__registry_8c.html#ab944b1d78a41e427bc2ed57f9c4e9534" target="_top" xlink:title=" ">
<polygon fill="white" stroke="black" points="372,-240.5 372,-259.5 506,-259.5 506,-240.5 372,-240.5"/>
<text text-anchor="middle" x="439" y="-247.5" font-family="Helvetica,sans-Serif" font-size="10.00">AR_load_initial_settings</text>
</a>
</g>
</g>
<!-- Node6&#45;&gt;Node7 -->
<g id="edge6" class="edge">
<title>Node6&#45;&gt;Node7</title>
<path fill="none" stroke="midnightblue" d="M569.9,-333.57C560.36,-331.07 550.74,-327.93 542,-324 504.68,-307.25 467.45,-275.48 450.1,-259.58"/>
<polygon fill="midnightblue" stroke="midnightblue" points="569.24,-337.01 579.78,-335.96 570.89,-330.21 569.24,-337.01"/>
</g>
<!-- Node8 -->
<g id="node8" class="node">
<title>Node8</title>
<g id="a_node8"><a xlink:href="c2a__core__main_8c.html#a65ecdc63d8762ffde4db7f6c6e6f07cf" target="_top" xlink:title=" ">
<polygon fill="white" stroke="black" points="253,-222.5 253,-241.5 336,-241.5 336,-222.5 253,-222.5"/>
<text text-anchor="middle" x="294.5" y="-229.5" font-family="Helvetica,sans-Serif" font-size="10.00">C2A_core_init</text>
</a>
</g>
</g>
<!-- Node7&#45;&gt;Node8 -->
<g id="edge7" class="edge">
<title>Node7&#45;&gt;Node8</title>
<path fill="none" stroke="midnightblue" d="M361.56,-240.34C352.89,-239.25 344.32,-238.17 336.38,-237.16"/>
<polygon fill="midnightblue" stroke="midnightblue" points="361.4,-243.85 371.76,-241.63 362.27,-236.91 361.4,-243.85"/>
</g>
<!-- Node9 -->
<g id="node9" class="node">
<title>Node9</title>
<g id="a_node9"><a xlink:href="c2a__main_8c.html#a630222a80cd8bffd4426d4a55a215069" target="_top" xlink:title=" ">
<polygon fill="white" stroke="black" points="155,-222.5 155,-241.5 217,-241.5 217,-222.5 155,-222.5"/>
<text text-anchor="middle" x="186" y="-229.5" font-family="Helvetica,sans-Serif" font-size="10.00">C2A_init_</text>
</a>
</g>
</g>
<!-- Node8&#45;&gt;Node9 -->
<g id="edge8" class="edge">
<title>Node8&#45;&gt;Node9</title>
<path fill="none" stroke="midnightblue" d="M242.76,-232C234.01,-232 225.17,-232 217.18,-232"/>
<polygon fill="midnightblue" stroke="midnightblue" points="242.93,-235.5 252.93,-232 242.93,-228.5 242.93,-235.5"/>
</g>
<!-- Node10 -->
<g id="node10" class="node">
<title>Node10</title>
<g id="a_node10"><a xlink:href="c2a__main_8c.html#ac3344a311adda8f9e7310924bedf81fc" target="_top" xlink:title=" ">
<polygon fill="white" stroke="black" points="0,-222.5 0,-241.5 119,-241.5 119,-222.5 0,-222.5"/>
<text text-anchor="middle" x="59.5" y="-229.5" font-family="Helvetica,sans-Serif" font-size="10.00">address_fixed_main_</text>
</a>
</g>
</g>
<!-- Node9&#45;&gt;Node10 -->
<g id="edge9" class="edge">
<title>Node9&#45;&gt;Node10</title>
<path fill="none" stroke="midnightblue" d="M144.83,-232C136.62,-232 127.82,-232 119.12,-232"/>
<polygon fill="midnightblue" stroke="midnightblue" points="144.86,-235.5 154.86,-232 144.86,-228.5 144.86,-235.5"/>
</g>
<!-- Node12 -->
<g id="node12" class="node">
<title>Node12</title>
<g id="a_node12"><a xlink:href="gs_8c.html#a4621f4390191b12c281982f635516f67" target="_top" xlink:title="CCSDS 側 Driver の DS 上での初期化設定">
<polygon fill="white" stroke="black" points="1258.5,-191 1258.5,-221 1380.5,-221 1380.5,-191 1258.5,-191"/>
<text text-anchor="start" x="1266.5" y="-209" font-family="Helvetica,sans-Serif" font-size="10.00">GS_load_ccsds_driver</text>
<text text-anchor="middle" x="1319.5" y="-198" font-family="Helvetica,sans-Serif" font-size="10.00">_super_init_settings_</text>
</a>
</g>
</g>
<!-- Node11&#45;&gt;Node12 -->
<g id="edge11" class="edge">
<title>Node11&#45;&gt;Node12</title>
<path fill="none" stroke="midnightblue" d="M1414.5,-206C1403.17,-206 1391.6,-206 1380.62,-206"/>
<polygon fill="midnightblue" stroke="midnightblue" points="1414.82,-209.5 1424.82,-206 1414.82,-202.5 1414.82,-209.5"/>
</g>
<!-- Node21 -->
<g id="node21" class="node">
<title>Node21</title>
<g id="a_node21"><a xlink:href="gs_8c.html#a940de224a6d318a15603b46983cf69ea" target="_top" xlink:title="UART 側 Driver の DS 上での初期化設定">
<polygon fill="white" stroke="black" points="1260,-240 1260,-270 1379,-270 1379,-240 1260,-240"/>
<text text-anchor="start" x="1268" y="-258" font-family="Helvetica,sans-Serif" font-size="10.00">GS_load_uart_driver</text>
<text text-anchor="middle" x="1319.5" y="-247" font-family="Helvetica,sans-Serif" font-size="10.00">_super_init_settings_</text>
</a>
</g>
</g>
<!-- Node11&#45;&gt;Node21 -->
<g id="edge23" class="edge">
<title>Node11&#45;&gt;Node21</title>
<path fill="none" stroke="midnightblue" d="M1427.47,-223.89C1409.34,-229.16 1389.7,-234.88 1372.26,-239.95"/>
<polygon fill="midnightblue" stroke="midnightblue" points="1428.44,-227.25 1437.07,-221.1 1426.49,-220.53 1428.44,-227.25"/>
</g>
<!-- Node13 -->
<g id="node13" class="node">
<title>Node13</title>
<g id="a_node13"><a xlink:href="gs_8c.html#abb6888bc1931410614492718ca074bcc" target="_top" xlink:title="Driver の初期化">
<polygon fill="white" stroke="black" points="1140.5,-196.5 1140.5,-215.5 1191.5,-215.5 1191.5,-196.5 1140.5,-196.5"/>
<text text-anchor="middle" x="1166" y="-203.5" font-family="Helvetica,sans-Serif" font-size="10.00">GS_init</text>
</a>
</g>
</g>
<!-- Node12&#45;&gt;Node13 -->
<g id="edge12" class="edge">
<title>Node12&#45;&gt;Node13</title>
<path fill="none" stroke="midnightblue" d="M1248,-206C1227.76,-206 1207.01,-206 1191.58,-206"/>
<polygon fill="midnightblue" stroke="midnightblue" points="1248.19,-209.5 1258.19,-206 1248.19,-202.5 1248.19,-209.5"/>
</g>
<!-- Node14 -->
<g id="node14" class="node">
<title>Node14</title>
<g id="a_node14"><a xlink:href="di__gs_8c.html#a04fc98703a68e3bcc4ab9f6ba7f4f879" target="_top" xlink:title=" ">
<polygon fill="white" stroke="black" points="975,-191.5 975,-210.5 1047,-210.5 1047,-191.5 975,-191.5"/>
<text text-anchor="middle" x="1011" y="-198.5" font-family="Helvetica,sans-Serif" font-size="10.00">DI_GS_init_</text>
</a>
</g>
</g>
<!-- Node13&#45;&gt;Node14 -->
<g id="edge13" class="edge">
<title>Node13&#45;&gt;Node14</title>
<path fill="none" stroke="midnightblue" d="M1130.33,-204.87C1105.44,-204.05 1072.04,-202.96 1047.07,-202.15"/>
<polygon fill="midnightblue" stroke="midnightblue" points="1130.31,-208.37 1140.42,-205.2 1130.54,-201.37 1130.31,-208.37"/>
</g>
<!-- Node15 -->
<g id="node15" class="node">
<title>Node15</title>
<g id="a_node15"><a xlink:href="di__gs_8c.html#ac1683b9b87dfb6e9e52f648f21b582d3" target="_top" xlink:title=" ">
<polygon fill="white" stroke="black" points="753,-147.5 753,-166.5 905,-166.5 905,-147.5 753,-147.5"/>
<text text-anchor="middle" x="829" y="-154.5" font-family="Helvetica,sans-Serif" font-size="10.00">Cmd_DI_GS_DRIVER_RESET</text>
</a>
</g>
</g>
<!-- Node14&#45;&gt;Node15 -->
<g id="edge14" class="edge">
<title>Node14&#45;&gt;Node15</title>
<path fill="none" stroke="midnightblue" d="M964.83,-189.96C935.36,-182.76 897.28,-173.45 869.11,-166.56"/>
<polygon fill="midnightblue" stroke="midnightblue" points="964.32,-193.44 974.87,-192.41 965.98,-186.64 964.32,-193.44"/>
</g>
<!-- Node19 -->
<g id="node19" class="node">
<title>Node19</title>
<g id="a_node19"><a xlink:href="di__gs_8c.html#ac9ba81d358b5839c5883cf526bc3f9c6" target="_top" xlink:title=" ">
<polygon fill="white" stroke="black" points="753,-186 753,-216 905,-216 905,-186 753,-186"/>
<text text-anchor="start" x="761" y="-204" font-family="Helvetica,sans-Serif" font-size="10.00">DI_GS_cmd_packet_handler</text>
<text text-anchor="middle" x="829" y="-193" font-family="Helvetica,sans-Serif" font-size="10.00">_app_init_</text>
</a>
</g>
</g>
<!-- Node14&#45;&gt;Node19 -->
<g id="edge20" class="edge">
<title>Node14&#45;&gt;Node19</title>
<path fill="none" stroke="midnightblue" d="M964.66,-201C946.66,-201 925.45,-201 905.26,-201"/>
<polygon fill="midnightblue" stroke="midnightblue" points="964.87,-204.5 974.87,-201 964.87,-197.5 964.87,-204.5"/>
</g>
<!-- Node16 -->
<g id="node16" class="node">
<title>Node16</title>
<g id="a_node16"><a xlink:href="command__analyze_8h.html#aa375895192b16d8e7f0ff4545b54e6c4" target="_top" xlink:title="Cmd Tableのロード">
<polygon fill="white" stroke="black" points="573,-147.5 573,-166.5 686,-166.5 686,-147.5 573,-147.5"/>
<text text-anchor="middle" x="629.5" y="-154.5" font-family="Helvetica,sans-Serif" font-size="10.00">CA_load_cmd_table</text>
</a>
</g>
</g>
<!-- Node15&#45;&gt;Node16 -->
<g id="edge15" class="edge">
<title>Node15&#45;&gt;Node16</title>
<path fill="none" stroke="midnightblue" d="M742.56,-157C723.46,-157 703.69,-157 686.17,-157"/>
<polygon fill="midnightblue" stroke="midnightblue" points="742.77,-160.5 752.77,-157 742.77,-153.5 742.77,-160.5"/>
</g>
<!-- Node17 -->
<g id="node17" class="node">
<title>Node17</title>
<g id="a_node17"><a xlink:href="command__analyze_8c.html#ae6d1f376bf4e1c9c4b63bc3f04924c8a" target="_top" xlink:title="CA の初期化">
<polygon fill="white" stroke="black" points="400.5,-185.5 400.5,-204.5 477.5,-204.5 477.5,-185.5 400.5,-185.5"/>
<text text-anchor="middle" x="439" y="-192.5" font-family="Helvetica,sans-Serif" font-size="10.00">CA_initialize</text>
</a>
</g>
</g>
<!-- Node16&#45;&gt;Node17 -->
<g id="edge16" class="edge">
<title>Node16&#45;&gt;Node17</title>
<path fill="none" stroke="midnightblue" d="M570.92,-168.61C540.66,-174.71 504.43,-182.01 477.76,-187.39"/>
<polygon fill="midnightblue" stroke="midnightblue" points="571.82,-172 580.93,-166.59 570.44,-165.13 571.82,-172"/>
</g>
<!-- Node17&#45;&gt;Node8 -->
<g id="edge17" class="edge">
<title>Node17&#45;&gt;Node8</title>
<path fill="none" stroke="midnightblue" d="M391.58,-207.05C372.46,-212.02 350.6,-217.69 332.57,-222.38"/>
<polygon fill="midnightblue" stroke="midnightblue" points="392.5,-210.43 401.3,-204.53 390.74,-203.65 392.5,-210.43"/>
</g>
<!-- Node18 -->
<g id="node18" class="node">
<title>Node18</title>
<g id="a_node18"><a xlink:href="command__analyze_8c.html#a85d8daea84970ad2895a0209bd350b7b" target="_top" xlink:title=" ">
<polygon fill="white" stroke="black" points="253,-166.5 253,-185.5 336,-185.5 336,-166.5 253,-166.5"/>
<text text-anchor="middle" x="294.5" y="-173.5" font-family="Helvetica,sans-Serif" font-size="10.00">Cmd_CA_INIT</text>
</a>
</g>
</g>
<!-- Node17&#45;&gt;Node18 -->
<g id="edge18" class="edge">
<title>Node17&#45;&gt;Node18</title>
<path fill="none" stroke="midnightblue" d="M390.17,-188.62C372.67,-186.29 353.06,-183.67 336.24,-181.43"/>
<polygon fill="midnightblue" stroke="midnightblue" points="389.81,-192.11 400.19,-189.96 390.74,-185.17 389.81,-192.11"/>
</g>
<!-- Node18&#45;&gt;Node16 -->
<g id="edge19" class="edge">
<title>Node18&#45;&gt;Node16</title>
<path fill="none" stroke="midnightblue" d="M346.36,-173.1C407.45,-169.61 509.58,-163.79 572.76,-160.18"/>
<polygon fill="midnightblue" stroke="midnightblue" points="345.97,-169.61 336.18,-173.68 346.37,-176.6 345.97,-169.61"/>
</g>
<!-- Node20 -->
<g id="node20" class="node">
<title>Node20</title>
<g id="a_node20"><a xlink:href="di__gs_8c.html#a707514fb93fd1f102b353a17f52534bb" target="_top" xlink:title=" ">
<polygon fill="white" stroke="black" points="542,-193.5 542,-212.5 717,-212.5 717,-193.5 542,-193.5"/>
<text text-anchor="middle" x="629.5" y="-200.5" font-family="Helvetica,sans-Serif" font-size="10.00">DI_GS_cmd_packet_handler_app</text>
</a>
</g>
</g>
<!-- Node19&#45;&gt;Node20 -->
<g id="edge21" class="edge">
<title>Node19&#45;&gt;Node20</title>
<path fill="none" stroke="midnightblue" d="M742.56,-201.87C734.11,-201.95 725.54,-202.04 717.09,-202.12"/>
<polygon fill="midnightblue" stroke="midnightblue" points="742.81,-205.36 752.77,-201.76 742.74,-198.36 742.81,-205.36"/>
</g>
<!-- Node20&#45;&gt;Node7 -->
<g id="edge22" class="edge">
<title>Node20&#45;&gt;Node7</title>
<path fill="none" stroke="midnightblue" d="M580.43,-214.99C548.78,-222.88 507.89,-233.07 478.41,-240.42"/>
<polygon fill="midnightblue" stroke="midnightblue" points="581.5,-218.33 590.35,-212.51 579.8,-211.53 581.5,-218.33"/>
</g>
<!-- Node21&#45;&gt;Node13 -->
<g id="edge24" class="edge">
<title>Node21&#45;&gt;Node13</title>
<path fill="none" stroke="midnightblue" d="M1261.99,-236.72C1237.78,-228.89 1210.77,-220.16 1191.75,-214.01"/>
<polygon fill="midnightblue" stroke="midnightblue" points="1261.22,-240.15 1271.81,-239.9 1263.37,-233.49 1261.22,-240.15"/>
</g>
<!-- Node23 -->
<g id="node23" class="node">
<title>Node23</title>
<g id="a_node23"><a xlink:href="di__gs_8c.html#aad8305850dcacb40b07ac275cf24d580" target="_top" xlink:title=" ">
<polygon fill="white" stroke="black" points="769,-235 769,-265 889,-265 889,-235 769,-235"/>
<text text-anchor="start" x="777" y="-253" font-family="Helvetica,sans-Serif" font-size="10.00">DI_GS_rp_tlm_packet</text>
<text text-anchor="middle" x="829" y="-242" font-family="Helvetica,sans-Serif" font-size="10.00">_handler_app_</text>
</a>
</g>
</g>
<!-- Node22&#45;&gt;Node23 -->
<g id="edge26" class="edge">
<title>Node22&#45;&gt;Node23</title>
<path fill="none" stroke="midnightblue" d="M964.9,-286.72C940.74,-280.15 910.78,-271.99 885.24,-265.04"/>
<polygon fill="midnightblue" stroke="midnightblue" points="964.3,-290.19 974.87,-289.44 966.14,-283.43 964.3,-290.19"/>
</g>
<!-- Node25 -->
<g id="node25" class="node">
<title>Node25</title>
<g id="a_node25"><a xlink:href="di__gs_8c.html#aed31110821a382995fb86da776856e73" target="_top" xlink:title=" ">
<polygon fill="white" stroke="black" points="770,-284 770,-314 888,-314 888,-284 770,-284"/>
<text text-anchor="start" x="778" y="-302" font-family="Helvetica,sans-Serif" font-size="10.00">DI_GS_rt_tlm_packet</text>
<text text-anchor="middle" x="829" y="-291" font-family="Helvetica,sans-Serif" font-size="10.00">_handler_app_</text>
</a>
</g>
</g>
<!-- Node22&#45;&gt;Node25 -->
<g id="edge29" class="edge">
<title>Node22&#45;&gt;Node25</title>
<path fill="none" stroke="midnightblue" d="M957.3,-299C935.56,-299 910.28,-299 888.01,-299"/>
<polygon fill="midnightblue" stroke="midnightblue" points="957.34,-302.5 967.34,-299 957.34,-295.5 957.34,-302.5"/>
</g>
<!-- Node24 -->
<g id="node24" class="node">
<title>Node24</title>
<g id="a_node24"><a xlink:href="di__gs_8c.html#a622818c63e7a891ae5345dbe732ddac5" target="_top" xlink:title=" ">
<polygon fill="white" stroke="black" points="569.5,-235 569.5,-265 689.5,-265 689.5,-235 569.5,-235"/>
<text text-anchor="start" x="577.5" y="-253" font-family="Helvetica,sans-Serif" font-size="10.00">DI_GS_rp_tlm_packet</text>
<text text-anchor="middle" x="629.5" y="-242" font-family="Helvetica,sans-Serif" font-size="10.00">_handler_app</text>
</a>
</g>
</g>
<!-- Node23&#45;&gt;Node24 -->
<g id="edge27" class="edge">
<title>Node23&#45;&gt;Node24</title>
<path fill="none" stroke="midnightblue" d="M758.59,-250C736.1,-250 711.39,-250 689.71,-250"/>
<polygon fill="midnightblue" stroke="midnightblue" points="758.74,-253.5 768.74,-250 758.74,-246.5 758.74,-253.5"/>
</g>
<!-- Node24&#45;&gt;Node7 -->
<g id="edge28" class="edge">
<title>Node24&#45;&gt;Node7</title>
<path fill="none" stroke="midnightblue" d="M559.31,-250C541.94,-250 523.35,-250 506.13,-250"/>
<polygon fill="midnightblue" stroke="midnightblue" points="559.37,-253.5 569.37,-250 559.37,-246.5 559.37,-253.5"/>
</g>
<!-- Node26 -->
<g id="node26" class="node">
<title>Node26</title>
<g id="a_node26"><a xlink:href="di__gs_8c.html#a4091d20ae51d7038f6d3ce3b035ee9ef" target="_top" xlink:title=" ">
<polygon fill="white" stroke="black" points="570.5,-284 570.5,-314 688.5,-314 688.5,-284 570.5,-284"/>
<text text-anchor="start" x="578.5" y="-302" font-family="Helvetica,sans-Serif" font-size="10.00">DI_GS_rt_tlm_packet</text>
<text text-anchor="middle" x="629.5" y="-291" font-family="Helvetica,sans-Serif" font-size="10.00">_handler_app</text>
</a>
</g>
</g>
<!-- Node25&#45;&gt;Node26 -->
<g id="edge30" class="edge">
<title>Node25&#45;&gt;Node26</title>
<path fill="none" stroke="midnightblue" d="M759.71,-299C736.55,-299 710.91,-299 688.61,-299"/>
<polygon fill="midnightblue" stroke="midnightblue" points="759.81,-302.5 769.81,-299 759.81,-295.5 759.81,-302.5"/>
</g>
<!-- Node26&#45;&gt;Node7 -->
<g id="edge31" class="edge">
<title>Node26&#45;&gt;Node7</title>
<path fill="none" stroke="midnightblue" d="M560.79,-281.4C532.41,-274.02 500.53,-265.73 476.65,-259.53"/>
<polygon fill="midnightblue" stroke="midnightblue" points="560.1,-284.84 570.66,-283.97 561.86,-278.06 560.1,-284.84"/>
</g>
<!-- Node28 -->
<g id="node28" class="node">
<title>Node28</title>
<g id="a_node28"><a xlink:href="i2c__common_8c.html#ae5f91fa48b36ebf1fa4990650b8ac232" target="_top" xlink:title="I2C_Config 構造体にて指定されたデバイスのレジスタから 2 バイトデータを読み込む">
<polygon fill="white" stroke="black" points="1270.5,-114.5 1270.5,-133.5 1368.5,-133.5 1368.5,-114.5 1270.5,-114.5"/>
<text text-anchor="middle" x="1319.5" y="-121.5" font-family="Helvetica,sans-Serif" font-size="10.00">I2C_read_2bytes</text>
</a>
</g>
</g>
<!-- Node27&#45;&gt;Node28 -->
<g id="edge33" class="edge">
<title>Node27&#45;&gt;Node28</title>
<path fill="none" stroke="midnightblue" d="M1436.57,-150.18C1412.81,-144.82 1385.1,-138.57 1362.71,-133.52"/>
<polygon fill="midnightblue" stroke="midnightblue" points="1435.96,-153.63 1446.48,-152.41 1437.5,-146.8 1435.96,-153.63"/>
</g>
<!-- Node29 -->
<g id="node29" class="node">
<title>Node29</title>
<g id="a_node29"><a xlink:href="i2c__common_8c.html#ad4e2ceb4c7fba8042920b7f67d2b5980" target="_top" xlink:title="I2C_Config 構造体にて指定されたデバイスのレジスタから 1 バイトデータを読み込む">
<polygon fill="white" stroke="black" points="1276.5,-152.5 1276.5,-171.5 1362.5,-171.5 1362.5,-152.5 1276.5,-152.5"/>
<text text-anchor="middle" x="1319.5" y="-159.5" font-family="Helvetica,sans-Serif" font-size="10.00">I2C_read_byte</text>
</a>
</g>
</g>
<!-- Node27&#45;&gt;Node29 -->
<g id="edge34" class="edge">
<title>Node27&#45;&gt;Node29</title>
<path fill="none" stroke="midnightblue" d="M1431.07,-162C1408.62,-162 1383.39,-162 1362.71,-162"/>
<polygon fill="midnightblue" stroke="midnightblue" points="1431.17,-165.5 1441.17,-162 1431.17,-158.5 1431.17,-165.5"/>
</g>
<!-- Node31 -->
<g id="node31" class="node">
<title>Node31</title>
<g id="a_node31"><a xlink:href="i2c__common_8c.html#a01d8acbc3ab4e554a5c49b11b80e2804" target="_top" xlink:title="I2C_Config 構造体にて指定されたデバイスのレジスタへ 2 バイトデータを書き込む">
<polygon fill="white" stroke="black" points="1269,-38.5 1269,-57.5 1370,-57.5 1370,-38.5 1269,-38.5"/>
<text text-anchor="middle" x="1319.5" y="-45.5" font-family="Helvetica,sans-Serif" font-size="10.00">I2C_write_2bytes</text>
</a>
</g>
</g>
<!-- Node30&#45;&gt;Node31 -->
<g id="edge36" class="edge">
<title>Node30&#45;&gt;Node31</title>
<path fill="none" stroke="midnightblue" d="M1436.57,-74.18C1412.81,-68.82 1385.1,-62.57 1362.71,-57.52"/>
<polygon fill="midnightblue" stroke="midnightblue" points="1435.96,-77.63 1446.48,-76.41 1437.5,-70.8 1435.96,-77.63"/>
</g>
<!-- Node32 -->
<g id="node32" class="node">
<title>Node32</title>
<g id="a_node32"><a xlink:href="i2c__common_8c.html#a3c6f28a1e63b048b078b08f9f0071710" target="_top" xlink:title="I2C_Config 構造体にて指定されたデバイスのレジスタへ 1 バイトデータを書き込む">
<polygon fill="white" stroke="black" points="1275,-76.5 1275,-95.5 1364,-95.5 1364,-76.5 1275,-76.5"/>
<text text-anchor="middle" x="1319.5" y="-83.5" font-family="Helvetica,sans-Serif" font-size="10.00">I2C_write_byte</text>
</a>
</g>
</g>
<!-- Node30&#45;&gt;Node32 -->
<g id="edge37" class="edge">
<title>Node30&#45;&gt;Node32</title>
<path fill="none" stroke="midnightblue" d="M1429.74,-86C1408.09,-86 1384.04,-86 1364.02,-86"/>
<polygon fill="midnightblue" stroke="midnightblue" points="1429.81,-89.5 1439.81,-86 1429.81,-82.5 1429.81,-89.5"/>
</g>
<!-- Node34 -->
<g id="node34" class="node">
<title>Node34</title>
<g id="a_node34"><a xlink:href="uart__test_8c.html#a77024ec4ff3b5707e74c2672f75903be" target="_top" xlink:title="UART_TEST初期化">
<polygon fill="white" stroke="black" points="1273,-0.5 1273,-19.5 1366,-19.5 1366,-0.5 1273,-0.5"/>
<text text-anchor="middle" x="1319.5" y="-7.5" font-family="Helvetica,sans-Serif" font-size="10.00">UART_TEST_init</text>
</a>
</g>
</g>
<!-- Node33&#45;&gt;Node34 -->
<g id="edge39" class="edge">
<title>Node33&#45;&gt;Node34</title>
<path fill="none" stroke="midnightblue" d="M1413.82,-18.86C1397.57,-17.32 1380.87,-15.73 1366.17,-14.34"/>
<polygon fill="midnightblue" stroke="midnightblue" points="1413.57,-22.35 1423.85,-19.81 1414.23,-15.38 1413.57,-22.35"/>
</g>
<!-- Node35 -->
<g id="node35" class="node">
<title>Node35</title>
<g id="a_node35"><a xlink:href="di__uart__test_8c.html#a480c3ad63adf77375e50cf42ea37422d" target="_top" xlink:title=" ">
<polygon fill="white" stroke="black" points="1117,-14.5 1117,-33.5 1215,-33.5 1215,-14.5 1117,-14.5"/>
<text text-anchor="middle" x="1166" y="-21.5" font-family="Helvetica,sans-Serif" font-size="10.00">UART_TEST_init_</text>
</a>
</g>
</g>
<!-- Node34&#45;&gt;Node35 -->
<g id="edge40" class="edge">
<title>Node34&#45;&gt;Node35</title>
<path fill="none" stroke="midnightblue" d="M1262.59,-15.17C1246.99,-16.61 1230.18,-18.16 1215.07,-19.56"/>
<polygon fill="midnightblue" stroke="midnightblue" points="1263,-18.64 1272.63,-14.24 1262.35,-11.67 1263,-18.64"/>
</g>
<!-- Node36 -->
<g id="node36" class="node">
<title>Node36</title>
<g id="a_node36"><a xlink:href="di__uart__test_8c.html#aee9d038befc8e899bdb037ca9cbf5b8f" target="_top" xlink:title=" ">
<polygon fill="white" stroke="black" points="941,-68.5 941,-87.5 1081,-87.5 1081,-68.5 941,-68.5"/>
<text text-anchor="middle" x="1011" y="-75.5" font-family="Helvetica,sans-Serif" font-size="10.00">Cmd_UART_TEST_INIT_DI</text>
</a>
</g>
</g>
<!-- Node35&#45;&gt;Node36 -->
<g id="edge41" class="edge">
<title>Node35&#45;&gt;Node36</title>
<path fill="none" stroke="midnightblue" d="M1128.34,-36.94C1100.84,-46.64 1063.82,-59.71 1038.99,-68.47"/>
<polygon fill="midnightblue" stroke="midnightblue" points="1129.73,-40.16 1138,-33.53 1127.4,-33.56 1129.73,-40.16"/>
</g>
<!-- Node36&#45;&gt;Node16 -->
<g id="edge42" class="edge">
<title>Node36&#45;&gt;Node16</title>
<path fill="none" stroke="midnightblue" d="M953.97,-89.66C878.56,-105.36 745.82,-132.99 676.14,-147.5"/>
<polygon fill="midnightblue" stroke="midnightblue" points="955.15,-92.99 964.22,-87.53 953.72,-86.14 955.15,-92.99"/>
</g>
</g>
</svg>
