<?xml version="1.0" encoding="UTF-8" standalone="no"?>
<!DOCTYPE svg PUBLIC "-//W3C//DTD SVG 1.1//EN"
 "http://www.w3.org/Graphics/SVG/1.1/DTD/svg11.dtd">
<!-- Generated by graphviz version 2.43.0 (0)
 -->
<!-- Title: EB90_FRAME_get_packet_head_from_dssc Pages: 1 -->
<svg width="1752pt" height="307pt"
 viewBox="0.00 0.00 1752.00 306.50" xmlns="http://www.w3.org/2000/svg" xmlns:xlink="http://www.w3.org/1999/xlink">
<g id="graph0" class="graph" transform="scale(1 1) rotate(0) translate(4 302.5)">
<title>EB90_FRAME_get_packet_head_from_dssc</title>
<polygon fill="white" stroke="transparent" points="-4,4 -4,-302.5 1748,-302.5 1748,4 -4,4"/>
<!-- Node1 -->
<g id="node1" class="node">
<title>Node1</title>
<g id="a_node1"><a xlink:title="受信フレームから Packet Field の先頭ポインタを取得する">
<polygon fill="#bfbfbf" stroke="black" points="1604,-140.5 1604,-170.5 1744,-170.5 1744,-140.5 1604,-140.5"/>
<text text-anchor="start" x="1612" y="-158.5" font-family="Helvetica,sans-Serif" font-size="10.00">EB90_FRAME_get_packet</text>
<text text-anchor="middle" x="1674" y="-147.5" font-family="Helvetica,sans-Serif" font-size="10.00">_head_from_dssc</text>
</a>
</g>
</g>
<!-- Node2 -->
<g id="node2" class="node">
<title>Node2</title>
<g id="a_node2"><a xlink:href="common__tlm__cmd__packet__for__driver__super_8c.html#a40adc5e0e6a976c720682df078eb7876" target="_top" xlink:title="CommonCmdPacket を受信データからコピーして取得する">
<polygon fill="white" stroke="black" points="1428,-279 1428,-298 1562,-298 1562,-279 1428,-279"/>
<text text-anchor="middle" x="1495" y="-286" font-family="Helvetica,sans-Serif" font-size="10.00">CCP_get_ccp_from_dssc</text>
</a>
</g>
</g>
<!-- Node1&#45;&gt;Node2 -->
<g id="edge1" class="edge">
<title>Node1&#45;&gt;Node2</title>
<path fill="none" stroke="midnightblue" d="M1657.5,-179.14C1639.2,-205.17 1606.35,-246.4 1568,-269.5 1561.58,-273.37 1554.37,-276.46 1547.06,-278.93"/>
<polygon fill="midnightblue" stroke="midnightblue" points="1660.58,-180.84 1663.36,-170.62 1654.81,-176.88 1660.58,-180.84"/>
</g>
<!-- Node3 -->
<g id="node3" class="node">
<title>Node3</title>
<g id="a_node3"><a xlink:href="common__tlm__cmd__packet__for__driver__super_8c.html#a7dc0512a0d35141d978018d424de1c38" target="_top" xlink:title="CommonTlmCmdPacket を受信データからコピーして取得する">
<polygon fill="white" stroke="black" points="1423.5,-241 1423.5,-260 1566.5,-260 1566.5,-241 1423.5,-241"/>
<text text-anchor="middle" x="1495" y="-248" font-family="Helvetica,sans-Serif" font-size="10.00">CTCP_get_ctcp_from_dssc</text>
</a>
</g>
</g>
<!-- Node1&#45;&gt;Node3 -->
<g id="edge2" class="edge">
<title>Node1&#45;&gt;Node3</title>
<path fill="none" stroke="midnightblue" d="M1646.02,-176.77C1625.52,-192.17 1596.15,-212.62 1568,-226.5 1556.42,-232.21 1543.15,-237.07 1531.19,-240.89"/>
<polygon fill="midnightblue" stroke="midnightblue" points="1648.4,-179.36 1654.23,-170.52 1644.16,-173.79 1648.4,-179.36"/>
</g>
<!-- Node4 -->
<g id="node4" class="node">
<title>Node4</title>
<g id="a_node4"><a xlink:href="common__tlm__cmd__packet__for__driver__super_8c.html#ac33606cb83f003e3c3134702e73bf711" target="_top" xlink:title="CommonTlmPacket を受信データからコピーして取得する">
<polygon fill="white" stroke="black" points="1429,-165 1429,-184 1561,-184 1561,-165 1429,-165"/>
<text text-anchor="middle" x="1495" y="-172" font-family="Helvetica,sans-Serif" font-size="10.00">CTP_get_ctp_from_dssc</text>
</a>
</g>
</g>
<!-- Node1&#45;&gt;Node4 -->
<g id="edge3" class="edge">
<title>Node1&#45;&gt;Node4</title>
<path fill="none" stroke="midnightblue" d="M1593.83,-164C1582.88,-165.17 1571.74,-166.37 1561.09,-167.51"/>
<polygon fill="midnightblue" stroke="midnightblue" points="1594.24,-167.47 1603.81,-162.93 1593.49,-160.51 1594.24,-167.47"/>
</g>
<!-- Node15 -->
<g id="node15" class="node">
<title>Node15</title>
<g id="a_node15"><a xlink:href="eb90__frame__for__driver__super_8c.html#a8bc011959c1941f8678cac9803a3f24f" target="_top" xlink:title="EB90 Frame に付与された CRC が正しいかチェック">
<polygon fill="white" stroke="black" points="1255.5,-200.5 1255.5,-230.5 1379.5,-230.5 1379.5,-200.5 1255.5,-200.5"/>
<text text-anchor="start" x="1263.5" y="-218.5" font-family="Helvetica,sans-Serif" font-size="10.00">EB90_FRAME_is_valid</text>
<text text-anchor="middle" x="1317.5" y="-207.5" font-family="Helvetica,sans-Serif" font-size="10.00">_crc_of_dssc</text>
</a>
</g>
</g>
<!-- Node1&#45;&gt;Node15 -->
<g id="edge14" class="edge">
<title>Node1&#45;&gt;Node15</title>
<path fill="none" stroke="midnightblue" d="M1628.87,-174.36C1610.39,-181.49 1588.47,-188.97 1568,-193.5 1504.74,-207.49 1430.6,-212.65 1379.67,-214.51"/>
<polygon fill="midnightblue" stroke="midnightblue" points="1630.18,-177.6 1638.2,-170.67 1627.61,-171.09 1630.18,-177.6"/>
</g>
<!-- Node16 -->
<g id="node16" class="node">
<title>Node16</title>
<g id="a_node16"><a xlink:href="eb90__packet__for__driver__super_8c.html#ac53ef9f6242472e49174163255d3feec" target="_top" xlink:title="Tlm / Cmd Count の取得">
<polygon fill="white" stroke="black" points="1249,-110.5 1249,-140.5 1386,-140.5 1386,-110.5 1249,-110.5"/>
<text text-anchor="start" x="1257" y="-128.5" font-family="Helvetica,sans-Serif" font-size="10.00">EB90_PACKET_get_count</text>
<text text-anchor="middle" x="1317.5" y="-117.5" font-family="Helvetica,sans-Serif" font-size="10.00">_from_dssc</text>
</a>
</g>
</g>
<!-- Node1&#45;&gt;Node16 -->
<g id="edge16" class="edge">
<title>Node1&#45;&gt;Node16</title>
<path fill="none" stroke="midnightblue" d="M1593.61,-148.78C1531.18,-143.5 1445.16,-136.22 1386.01,-131.21"/>
<polygon fill="midnightblue" stroke="midnightblue" points="1593.55,-152.29 1603.81,-149.64 1594.14,-145.31 1593.55,-152.29"/>
</g>
<!-- Node17 -->
<g id="node17" class="node">
<title>Node17</title>
<g id="a_node17"><a xlink:href="eb90__packet__for__driver__super_8c.html#ae85f35a27ddee605f0699201443135f4" target="_top" xlink:title="Tlm / Cmd ID の取得">
<polygon fill="white" stroke="black" points="1258,-57.5 1258,-87.5 1377,-87.5 1377,-57.5 1258,-57.5"/>
<text text-anchor="start" x="1266" y="-75.5" font-family="Helvetica,sans-Serif" font-size="10.00">EB90_PACKET_get_id</text>
<text text-anchor="middle" x="1317.5" y="-64.5" font-family="Helvetica,sans-Serif" font-size="10.00">_from_dssc</text>
</a>
</g>
</g>
<!-- Node1&#45;&gt;Node17 -->
<g id="edge17" class="edge">
<title>Node1&#45;&gt;Node17</title>
<path fill="none" stroke="midnightblue" d="M1654.03,-132.52C1634.87,-111.29 1603.15,-81.17 1568,-68.5 1505.75,-46.06 1428.96,-51.82 1377.14,-60.12"/>
<polygon fill="midnightblue" stroke="midnightblue" points="1651.51,-134.96 1660.74,-140.17 1656.78,-130.35 1651.51,-134.96"/>
</g>
<!-- Node18 -->
<g id="node18" class="node">
<title>Node18</title>
<g id="a_node18"><a xlink:href="eb90__packet__for__driver__super_8c.html#a956a902f4d6a814a2f7a24a1f91cdca0" target="_top" xlink:title="受信フレームからPacket Field の先頭ポインタを取得する">
<polygon fill="white" stroke="black" points="1252,-0.5 1252,-30.5 1383,-30.5 1383,-0.5 1252,-0.5"/>
<text text-anchor="start" x="1260" y="-18.5" font-family="Helvetica,sans-Serif" font-size="10.00">EB90_PACKET_get_user</text>
<text text-anchor="middle" x="1317.5" y="-7.5" font-family="Helvetica,sans-Serif" font-size="10.00">_data_head_from_dssc</text>
</a>
</g>
</g>
<!-- Node1&#45;&gt;Node18 -->
<g id="edge18" class="edge">
<title>Node1&#45;&gt;Node18</title>
<path fill="none" stroke="midnightblue" d="M1657.36,-132.05C1639.13,-106.82 1606.53,-67.74 1568,-48.5 1510.05,-19.56 1435.55,-13.07 1383.09,-12.74"/>
<polygon fill="midnightblue" stroke="midnightblue" points="1654.57,-134.18 1663.19,-140.34 1660.3,-130.15 1654.57,-134.18"/>
</g>
<!-- Node19 -->
<g id="node19" class="node">
<title>Node19</title>
<g id="a_node19"><a xlink:href="eb90__packet__for__driver__super_8c.html#a54980fe3d483e945165aa8f1ca26942b" target="_top" xlink:title="Version ID の取得">
<polygon fill="white" stroke="black" points="1422,-77.5 1422,-107.5 1568,-107.5 1568,-77.5 1422,-77.5"/>
<text text-anchor="start" x="1430" y="-95.5" font-family="Helvetica,sans-Serif" font-size="10.00">EB90_PACKET_get_version</text>
<text text-anchor="middle" x="1495" y="-84.5" font-family="Helvetica,sans-Serif" font-size="10.00">_from_dssc</text>
</a>
</g>
</g>
<!-- Node1&#45;&gt;Node19 -->
<g id="edge19" class="edge">
<title>Node1&#45;&gt;Node19</title>
<path fill="none" stroke="midnightblue" d="M1621.16,-137.05C1594.82,-127.67 1563.22,-116.42 1538.36,-107.58"/>
<polygon fill="midnightblue" stroke="midnightblue" points="1620.01,-140.35 1630.6,-140.41 1622.36,-133.76 1620.01,-140.35"/>
</g>
<!-- Node5 -->
<g id="node5" class="node">
<title>Node5</title>
<g id="a_node5"><a xlink:href="aobc__telemetry__buffer_8c.html#ad9b52088d5f385af72dc6663981f31dc" target="_top" xlink:title=" ">
<polygon fill="white" stroke="black" points="1249,-162 1249,-181 1386,-181 1386,-162 1249,-162"/>
<text text-anchor="middle" x="1317.5" y="-169" font-family="Helvetica,sans-Serif" font-size="10.00">AOBC_buffer_tlm_packet</text>
</a>
</g>
</g>
<!-- Node4&#45;&gt;Node5 -->
<g id="edge4" class="edge">
<title>Node4&#45;&gt;Node5</title>
<path fill="none" stroke="midnightblue" d="M1418.48,-173.21C1407.76,-173.03 1396.8,-172.84 1386.25,-172.66"/>
<polygon fill="midnightblue" stroke="midnightblue" points="1418.59,-176.71 1428.65,-173.38 1418.71,-169.71 1418.59,-176.71"/>
</g>
<!-- Node6 -->
<g id="node6" class="node">
<title>Node6</title>
<g id="a_node6"><a xlink:href="aobc_8c.html#abb166b8bf407374a9f89f7cce4dd9f44" target="_top" xlink:title=" ">
<polygon fill="white" stroke="black" points="1073,-184 1073,-203 1213,-203 1213,-184 1073,-184"/>
<text text-anchor="middle" x="1143" y="-191" font-family="Helvetica,sans-Serif" font-size="10.00">AOBC_analyze_rec_data_</text>
</a>
</g>
</g>
<!-- Node5&#45;&gt;Node6 -->
<g id="edge5" class="edge">
<title>Node5&#45;&gt;Node6</title>
<path fill="none" stroke="midnightblue" d="M1238.85,-181.4C1230.3,-182.49 1221.63,-183.6 1213.19,-184.68"/>
<polygon fill="midnightblue" stroke="midnightblue" points="1239.34,-184.87 1248.82,-180.13 1238.46,-177.93 1239.34,-184.87"/>
</g>
<!-- Node7 -->
<g id="node7" class="node">
<title>Node7</title>
<g id="a_node7"><a xlink:href="aobc_8c.html#ace8c524e6d1fe0054e4db53f9fbc0a26" target="_top" xlink:title=" ">
<polygon fill="white" stroke="black" points="900,-178.5 900,-208.5 1037,-208.5 1037,-178.5 900,-178.5"/>
<text text-anchor="start" x="908" y="-196.5" font-family="Helvetica,sans-Serif" font-size="10.00">AOBC_load_driver_super</text>
<text text-anchor="middle" x="968.5" y="-185.5" font-family="Helvetica,sans-Serif" font-size="10.00">_init_settings_</text>
</a>
</g>
</g>
<!-- Node6&#45;&gt;Node7 -->
<g id="edge6" class="edge">
<title>Node6&#45;&gt;Node7</title>
<path fill="none" stroke="midnightblue" d="M1062.58,-193.5C1054.13,-193.5 1045.58,-193.5 1037.28,-193.5"/>
<polygon fill="midnightblue" stroke="midnightblue" points="1062.83,-197 1072.83,-193.5 1062.83,-190 1062.83,-197"/>
</g>
<!-- Node8 -->
<g id="node8" class="node">
<title>Node8</title>
<g id="a_node8"><a xlink:href="aobc_8c.html#ad57ac68788eec32299ab4a5070251380" target="_top" xlink:title="AOBC 初期化">
<polygon fill="white" stroke="black" points="799,-184 799,-203 864,-203 864,-184 799,-184"/>
<text text-anchor="middle" x="831.5" y="-191" font-family="Helvetica,sans-Serif" font-size="10.00">AOBC_init</text>
</a>
</g>
</g>
<!-- Node7&#45;&gt;Node8 -->
<g id="edge7" class="edge">
<title>Node7&#45;&gt;Node8</title>
<path fill="none" stroke="midnightblue" d="M889.52,-193.5C880.64,-193.5 872.02,-193.5 864.28,-193.5"/>
<polygon fill="midnightblue" stroke="midnightblue" points="889.6,-197 899.6,-193.5 889.6,-190 889.6,-197"/>
</g>
<!-- Node9 -->
<g id="node9" class="node">
<title>Node9</title>
<g id="a_node9"><a xlink:href="di__aobc_8c.html#ac004552dc331c8fea7b0b6f2acd75a15" target="_top" xlink:title=" ">
<polygon fill="white" stroke="black" points="677,-184 677,-203 763,-203 763,-184 677,-184"/>
<text text-anchor="middle" x="720" y="-191" font-family="Helvetica,sans-Serif" font-size="10.00">DI_AOBC_init_</text>
</a>
</g>
</g>
<!-- Node8&#45;&gt;Node9 -->
<g id="edge8" class="edge">
<title>Node8&#45;&gt;Node9</title>
<path fill="none" stroke="midnightblue" d="M788.58,-193.5C780.26,-193.5 771.53,-193.5 763.2,-193.5"/>
<polygon fill="midnightblue" stroke="midnightblue" points="788.83,-197 798.83,-193.5 788.83,-190 788.83,-197"/>
</g>
<!-- Node10 -->
<g id="node10" class="node">
<title>Node10</title>
<g id="a_node10"><a xlink:href="di__aobc_8c.html#a78f30ebb5b71301c1da6d10eac787db4" target="_top" xlink:title="AOBC update アプリ生成関数">
<polygon fill="white" stroke="black" points="542,-184 542,-203 641,-203 641,-184 542,-184"/>
<text text-anchor="middle" x="591.5" y="-191" font-family="Helvetica,sans-Serif" font-size="10.00">DI_AOBC_update</text>
</a>
</g>
</g>
<!-- Node9&#45;&gt;Node10 -->
<g id="edge9" class="edge">
<title>Node9&#45;&gt;Node10</title>
<path fill="none" stroke="midnightblue" d="M666.68,-193.5C658.18,-193.5 649.41,-193.5 641,-193.5"/>
<polygon fill="midnightblue" stroke="midnightblue" points="666.88,-197 676.88,-193.5 666.88,-190 666.88,-197"/>
</g>
<!-- Node11 -->
<g id="node11" class="node">
<title>Node11</title>
<g id="a_node11"><a xlink:href="app__registry_8c.html#ab944b1d78a41e427bc2ed57f9c4e9534" target="_top" xlink:title=" ">
<polygon fill="white" stroke="black" points="372,-184 372,-203 506,-203 506,-184 372,-184"/>
<text text-anchor="middle" x="439" y="-191" font-family="Helvetica,sans-Serif" font-size="10.00">AR_load_initial_settings</text>
</a>
</g>
</g>
<!-- Node10&#45;&gt;Node11 -->
<g id="edge10" class="edge">
<title>Node10&#45;&gt;Node11</title>
<path fill="none" stroke="midnightblue" d="M531.61,-193.5C523.26,-193.5 514.61,-193.5 506.13,-193.5"/>
<polygon fill="midnightblue" stroke="midnightblue" points="531.64,-197 541.64,-193.5 531.64,-190 531.64,-197"/>
</g>
<!-- Node12 -->
<g id="node12" class="node">
<title>Node12</title>
<g id="a_node12"><a xlink:href="c2a__core__main_8c.html#a65ecdc63d8762ffde4db7f6c6e6f07cf" target="_top" xlink:title=" ">
<polygon fill="white" stroke="black" points="253,-184 253,-203 336,-203 336,-184 253,-184"/>
<text text-anchor="middle" x="294.5" y="-191" font-family="Helvetica,sans-Serif" font-size="10.00">C2A_core_init</text>
</a>
</g>
</g>
<!-- Node11&#45;&gt;Node12 -->
<g id="edge11" class="edge">
<title>Node11&#45;&gt;Node12</title>
<path fill="none" stroke="midnightblue" d="M361.56,-193.5C352.89,-193.5 344.32,-193.5 336.38,-193.5"/>
<polygon fill="midnightblue" stroke="midnightblue" points="361.76,-197 371.76,-193.5 361.76,-190 361.76,-197"/>
</g>
<!-- Node13 -->
<g id="node13" class="node">
<title>Node13</title>
<g id="a_node13"><a xlink:href="c2a__main_8c.html#a630222a80cd8bffd4426d4a55a215069" target="_top" xlink:title=" ">
<polygon fill="white" stroke="black" points="155,-184 155,-203 217,-203 217,-184 155,-184"/>
<text text-anchor="middle" x="186" y="-191" font-family="Helvetica,sans-Serif" font-size="10.00">C2A_init_</text>
</a>
</g>
</g>
<!-- Node12&#45;&gt;Node13 -->
<g id="edge12" class="edge">
<title>Node12&#45;&gt;Node13</title>
<path fill="none" stroke="midnightblue" d="M242.76,-193.5C234.01,-193.5 225.17,-193.5 217.18,-193.5"/>
<polygon fill="midnightblue" stroke="midnightblue" points="242.93,-197 252.93,-193.5 242.93,-190 242.93,-197"/>
</g>
<!-- Node14 -->
<g id="node14" class="node">
<title>Node14</title>
<g id="a_node14"><a xlink:href="c2a__main_8c.html#ac3344a311adda8f9e7310924bedf81fc" target="_top" xlink:title=" ">
<polygon fill="white" stroke="black" points="0,-184 0,-203 119,-203 119,-184 0,-184"/>
<text text-anchor="middle" x="59.5" y="-191" font-family="Helvetica,sans-Serif" font-size="10.00">address_fixed_main_</text>
</a>
</g>
</g>
<!-- Node13&#45;&gt;Node14 -->
<g id="edge13" class="edge">
<title>Node13&#45;&gt;Node14</title>
<path fill="none" stroke="midnightblue" d="M144.83,-193.5C136.62,-193.5 127.82,-193.5 119.12,-193.5"/>
<polygon fill="midnightblue" stroke="midnightblue" points="144.86,-197 154.86,-193.5 144.86,-190 144.86,-197"/>
</g>
<!-- Node15&#45;&gt;Node6 -->
<g id="edge15" class="edge">
<title>Node15&#45;&gt;Node6</title>
<path fill="none" stroke="midnightblue" d="M1245.14,-206.4C1234.52,-205.05 1223.6,-203.65 1213.03,-202.3"/>
<polygon fill="midnightblue" stroke="midnightblue" points="1244.83,-209.89 1255.2,-207.68 1245.72,-202.94 1244.83,-209.89"/>
</g>
<!-- Node19&#45;&gt;Node16 -->
<g id="edge20" class="edge">
<title>Node19&#45;&gt;Node16</title>
<path fill="none" stroke="midnightblue" d="M1411.81,-107.95C1403.21,-109.57 1394.54,-111.2 1386.13,-112.78"/>
<polygon fill="midnightblue" stroke="midnightblue" points="1412.68,-111.35 1421.86,-106.07 1411.38,-104.47 1412.68,-111.35"/>
</g>
<!-- Node19&#45;&gt;Node17 -->
<g id="edge21" class="edge">
<title>Node19&#45;&gt;Node17</title>
<path fill="none" stroke="midnightblue" d="M1411.69,-83.12C1400.07,-81.8 1388.32,-80.46 1377.25,-79.2"/>
<polygon fill="midnightblue" stroke="midnightblue" points="1411.53,-86.62 1421.86,-84.28 1412.32,-79.67 1411.53,-86.62"/>
</g>
<!-- Node19&#45;&gt;Node18 -->
<g id="edge22" class="edge">
<title>Node19&#45;&gt;Node18</title>
<path fill="none" stroke="midnightblue" d="M1450.33,-73.34C1420.25,-60.14 1380.84,-42.85 1352.97,-30.62"/>
<polygon fill="midnightblue" stroke="midnightblue" points="1449.18,-76.66 1459.75,-77.47 1451.99,-70.25 1449.18,-76.66"/>
</g>
</g>
</svg>
