<?xml version="1.0" encoding="UTF-8" standalone="no"?>
<!DOCTYPE svg PUBLIC "-//W3C//DTD SVG 1.1//EN"
 "http://www.w3.org/Graphics/SVG/1.1/DTD/svg11.dtd">
<!-- Generated by graphviz version 2.43.0 (0)
 -->
<!-- Title: src/src_core/Library/endian.c Pages: 1 -->
<svg width="354pt" height="173pt"
 viewBox="0.00 0.00 354.00 173.00" xmlns="http://www.w3.org/2000/svg" xmlns:xlink="http://www.w3.org/1999/xlink">
<g id="graph0" class="graph" transform="scale(1 1) rotate(0) translate(4 169)">
<title>src/src_core/Library/endian.c</title>
<polygon fill="white" stroke="transparent" points="-4,4 -4,-169 350,-169 350,4 -4,4"/>
<!-- Node1 -->
<g id="node1" class="node">
<title>Node1</title>
<g id="a_node1"><a xlink:title="エンディアンに関するものを定義する">
<polygon fill="#bfbfbf" stroke="black" points="139,-134.5 139,-164.5 250,-164.5 250,-134.5 139,-134.5"/>
<text text-anchor="start" x="147" y="-152.5" font-family="Helvetica,sans-Serif" font-size="10.00">src/src_core/Library</text>
<text text-anchor="middle" x="194.5" y="-141.5" font-family="Helvetica,sans-Serif" font-size="10.00">/endian.c</text>
</a>
</g>
</g>
<!-- Node2 -->
<g id="node2" class="node">
<title>Node2</title>
<g id="a_node2"><a xlink:href="endian_8h.html" target="_top" xlink:title="エンディアンに関するものを定義する">
<polygon fill="white" stroke="black" points="0,-73 0,-92 59,-92 59,-73 0,-73"/>
<text text-anchor="middle" x="29.5" y="-80" font-family="Helvetica,sans-Serif" font-size="10.00">endian.h</text>
</a>
</g>
</g>
<!-- Node1&#45;&gt;Node2 -->
<g id="edge1" class="edge">
<title>Node1&#45;&gt;Node2</title>
<path fill="none" stroke="midnightblue" d="M158.7,-134.4C129.49,-122.89 88.64,-106.8 60.74,-95.81"/>
<polygon fill="midnightblue" stroke="midnightblue" points="61.68,-92.42 51.09,-92.01 59.12,-98.93 61.68,-92.42"/>
</g>
<!-- Node4 -->
<g id="node4" class="node">
<title>Node4</title>
<g id="a_node4"><a xlink:href="build__settings_8h.html" target="_top" xlink:title=" ">
<polygon fill="white" stroke="black" points="77,-67.5 77,-97.5 204,-97.5 204,-67.5 77,-67.5"/>
<text text-anchor="start" x="85" y="-85.5" font-family="Helvetica,sans-Serif" font-size="10.00">src_user/Settings/build</text>
<text text-anchor="middle" x="140.5" y="-74.5" font-family="Helvetica,sans-Serif" font-size="10.00">_settings.h</text>
</a>
</g>
</g>
<!-- Node1&#45;&gt;Node4 -->
<g id="edge3" class="edge">
<title>Node1&#45;&gt;Node4</title>
<path fill="none" stroke="midnightblue" d="M182.78,-134.4C175.78,-125.96 166.73,-115.07 158.79,-105.52"/>
<polygon fill="midnightblue" stroke="midnightblue" points="161.28,-103.03 152.19,-97.58 155.89,-107.51 161.28,-103.03"/>
</g>
<!-- Node6 -->
<g id="node6" class="node">
<title>Node6</title>
<g id="a_node6"><a xlink:href="stdint_8h.html" target="_top" xlink:title="C89 環境用 stdint.h">
<polygon fill="white" stroke="black" points="222,-73 222,-92 275,-92 275,-73 222,-73"/>
<text text-anchor="middle" x="248.5" y="-80" font-family="Helvetica,sans-Serif" font-size="10.00">stdint.h</text>
</a>
</g>
</g>
<!-- Node1&#45;&gt;Node6 -->
<g id="edge5" class="edge">
<title>Node1&#45;&gt;Node6</title>
<path fill="none" stroke="midnightblue" d="M206.22,-134.4C214.64,-124.26 226.01,-110.57 234.84,-99.94"/>
<polygon fill="midnightblue" stroke="midnightblue" points="237.58,-102.12 241.28,-92.19 232.19,-97.65 237.58,-102.12"/>
</g>
<!-- Node8 -->
<g id="node8" class="node">
<title>Node8</title>
<g id="a_node8"><a xlink:title=" ">
<polygon fill="white" stroke="#bfbfbf" points="293,-73 293,-92 346,-92 346,-73 293,-73"/>
<text text-anchor="middle" x="319.5" y="-80" font-family="Helvetica,sans-Serif" font-size="10.00">string.h</text>
</a>
</g>
</g>
<!-- Node1&#45;&gt;Node8 -->
<g id="edge7" class="edge">
<title>Node1&#45;&gt;Node8</title>
<path fill="none" stroke="midnightblue" d="M221.62,-134.4C243.17,-123.19 273.07,-107.64 294.14,-96.69"/>
<polygon fill="midnightblue" stroke="midnightblue" points="295.88,-99.73 303.14,-92.01 292.65,-93.52 295.88,-99.73"/>
</g>
<!-- Node3 -->
<g id="node3" class="node">
<title>Node3</title>
<g id="a_node3"><a xlink:title=" ">
<polygon fill="white" stroke="#bfbfbf" points="1.5,-6 1.5,-25 57.5,-25 57.5,-6 1.5,-6"/>
<text text-anchor="middle" x="29.5" y="-13" font-family="Helvetica,sans-Serif" font-size="10.00">stddef.h</text>
</a>
</g>
</g>
<!-- Node2&#45;&gt;Node3 -->
<g id="edge2" class="edge">
<title>Node2&#45;&gt;Node3</title>
<path fill="none" stroke="midnightblue" d="M29.5,-72.73C29.5,-63.18 29.5,-47.62 29.5,-35.28"/>
<polygon fill="midnightblue" stroke="midnightblue" points="33,-35.13 29.5,-25.13 26,-35.13 33,-35.13"/>
</g>
<!-- Node5 -->
<g id="node5" class="node">
<title>Node5</title>
<g id="a_node5"><a xlink:href="sils__define_8h.html" target="_top" xlink:title="Switch the build settings between your real OBC and SILS">
<polygon fill="white" stroke="black" points="96,-6 96,-25 173,-25 173,-6 96,-6"/>
<text text-anchor="middle" x="134.5" y="-13" font-family="Helvetica,sans-Serif" font-size="10.00">sils_define.h</text>
</a>
</g>
</g>
<!-- Node4&#45;&gt;Node5 -->
<g id="edge4" class="edge">
<title>Node4&#45;&gt;Node5</title>
<path fill="none" stroke="midnightblue" d="M139.2,-67.4C138.33,-57.96 137.17,-45.45 136.23,-35.19"/>
<polygon fill="midnightblue" stroke="midnightblue" points="139.71,-34.83 135.3,-25.19 132.74,-35.47 139.71,-34.83"/>
</g>
<!-- Node7 -->
<g id="node7" class="node">
<title>Node7</title>
<g id="a_node7"><a xlink:title=" ">
<polygon fill="white" stroke="#bfbfbf" points="191,-0.5 191,-30.5 316,-30.5 316,-0.5 191,-0.5"/>
<text text-anchor="start" x="199" y="-18.5" font-family="Helvetica,sans-Serif" font-size="10.00">src_user/Library/stdint</text>
<text text-anchor="middle" x="253.5" y="-7.5" font-family="Helvetica,sans-Serif" font-size="10.00">_impl.h</text>
</a>
</g>
</g>
<!-- Node6&#45;&gt;Node7 -->
<g id="edge6" class="edge">
<title>Node6&#45;&gt;Node7</title>
<path fill="none" stroke="midnightblue" d="M249.17,-72.73C249.8,-64.54 250.78,-51.92 251.64,-40.71"/>
<polygon fill="midnightblue" stroke="midnightblue" points="255.14,-40.83 252.42,-30.59 248.16,-40.29 255.14,-40.83"/>
</g>
</g>
</svg>
