<?xml version="1.0" encoding="UTF-8" standalone="no"?>
<!DOCTYPE svg PUBLIC "-//W3C//DTD SVG 1.1//EN"
 "http://www.w3.org/Graphics/SVG/1.1/DTD/svg11.dtd">
<!-- Generated by graphviz version 2.43.0 (0)
 -->
<!-- Title: EH_check_event_and_respond_ Pages: 1 -->
<svg width="1280pt" height="135pt"
 viewBox="0.00 0.00 1280.00 134.50" xmlns="http://www.w3.org/2000/svg" xmlns:xlink="http://www.w3.org/1999/xlink">
<g id="graph0" class="graph" transform="scale(1 1) rotate(0) translate(4 130.5)">
<title>EH_check_event_and_respond_</title>
<polygon fill="white" stroke="transparent" points="-4,4 -4,-130.5 1276,-130.5 1276,4 -4,4"/>
<!-- Node1 -->
<g id="node1" class="node">
<title>Node1</title>
<g id="a_node1"><a xlink:title="EL_Event に対応する EH_Rule が存在するかチェックし，対応する">
<polygon fill="#bfbfbf" stroke="black" points="1152,-52 1152,-82 1272,-82 1272,-52 1152,-52"/>
<text text-anchor="start" x="1160" y="-70" font-family="Helvetica,sans-Serif" font-size="10.00">EH_check_event_and</text>
<text text-anchor="middle" x="1212" y="-59" font-family="Helvetica,sans-Serif" font-size="10.00">_respond_</text>
</a>
</g>
</g>
<!-- Node2 -->
<g id="node2" class="node">
<title>Node2</title>
<g id="a_node2"><a xlink:href="event__handler_8c.html#af084576db8b00a4c7e4b117314b128db" target="_top" xlink:title="上位の EH の対応条件をチェックし，対応する">
<polygon fill="white" stroke="black" points="987,-96 987,-126 1116,-126 1116,-96 987,-96"/>
<text text-anchor="start" x="995" y="-114" font-family="Helvetica,sans-Serif" font-size="10.00">EH_check_higher_level</text>
<text text-anchor="middle" x="1051.5" y="-103" font-family="Helvetica,sans-Serif" font-size="10.00">_rule_and_respond_</text>
</a>
</g>
</g>
<!-- Node1&#45;&gt;Node2 -->
<g id="edge1" class="edge">
<title>Node1&#45;&gt;Node2</title>
<path fill="none" stroke="midnightblue" d="M1147.23,-84.7C1133.77,-88.44 1119.69,-92.35 1106.63,-95.97"/>
<polygon fill="midnightblue" stroke="midnightblue" points="1148.2,-88.07 1156.9,-82.02 1146.32,-81.32 1148.2,-88.07"/>
</g>
<!-- Node4 -->
<g id="node4" class="node">
<title>Node4</title>
<g id="a_node4"><a xlink:href="event__handler_8h.html#a76ddd224739890733cbd318e2d5c015b" target="_top" xlink:title="event_handler の実行">
<polygon fill="white" stroke="black" points="1014.5,-19.5 1014.5,-38.5 1088.5,-38.5 1088.5,-19.5 1014.5,-19.5"/>
<text text-anchor="middle" x="1051.5" y="-26.5" font-family="Helvetica,sans-Serif" font-size="10.00">EH_execute</text>
</a>
</g>
</g>
<!-- Node1&#45;&gt;Node4 -->
<g id="edge4" class="edge">
<title>Node1&#45;&gt;Node4</title>
<path fill="none" stroke="midnightblue" d="M1142.12,-50.49C1123.66,-46.06 1104.44,-41.45 1088.55,-37.64"/>
<polygon fill="midnightblue" stroke="midnightblue" points="1141.44,-53.92 1151.98,-52.85 1143.07,-47.12 1141.44,-53.92"/>
</g>
<!-- Node3 -->
<g id="node3" class="node">
<title>Node3</title>
<g id="a_node3"><a xlink:href="event__handler_8c.html#ac7461e79109f06783e2c620a6d999a6b" target="_top" xlink:title="EH の対応条件をチェックし， EL_Event に対応する">
<polygon fill="white" stroke="black" points="790,-88.5 790,-107.5 951,-107.5 951,-88.5 790,-88.5"/>
<text text-anchor="middle" x="870.5" y="-95.5" font-family="Helvetica,sans-Serif" font-size="10.00">EH_check_rule_and_respond_</text>
</a>
</g>
</g>
<!-- Node2&#45;&gt;Node3 -->
<g id="edge2" class="edge">
<title>Node2&#45;&gt;Node3</title>
<path fill="none" stroke="midnightblue" d="M976.73,-105.64C968.31,-105.03 959.69,-104.4 951.2,-103.79"/>
<polygon fill="midnightblue" stroke="midnightblue" points="976.66,-109.15 986.89,-106.38 977.17,-102.16 976.66,-109.15"/>
</g>
<!-- Node3&#45;&gt;Node1 -->
<g id="edge3" class="edge">
<title>Node3&#45;&gt;Node1</title>
<path fill="none" stroke="midnightblue" d="M961.23,-89.4C969.94,-88.58 978.64,-87.77 987,-87 1042.79,-81.85 1106.42,-76.19 1151.57,-72.21"/>
<polygon fill="midnightblue" stroke="midnightblue" points="960.65,-85.94 951.02,-90.36 961.31,-92.91 960.65,-85.94"/>
</g>
<!-- Node5 -->
<g id="node5" class="node">
<title>Node5</title>
<g id="a_node5"><a xlink:href="event__utility_8h.html#a67f98486105b4baa865c8b30d346afa8" target="_top" xlink:title=" ">
<polygon fill="white" stroke="black" points="794,-38.5 794,-57.5 947,-57.5 947,-38.5 794,-38.5"/>
<text text-anchor="middle" x="870.5" y="-45.5" font-family="Helvetica,sans-Serif" font-size="10.00">Cmd_EVENT_UTIL_EXEC_EH</text>
</a>
</g>
</g>
<!-- Node4&#45;&gt;Node5 -->
<g id="edge5" class="edge">
<title>Node4&#45;&gt;Node5</title>
<path fill="none" stroke="midnightblue" d="M1003.89,-33.95C986.58,-35.78 966.47,-37.92 947.22,-39.96"/>
<polygon fill="midnightblue" stroke="midnightblue" points="1004.7,-37.38 1014.28,-32.84 1003.96,-30.42 1004.7,-37.38"/>
</g>
<!-- Node12 -->
<g id="node12" class="node">
<title>Node12</title>
<g id="a_node12"><a xlink:href="event__utility_8c.html#a548bb66aea76e09e9f801c10fad11b98" target="_top" xlink:title=" ">
<polygon fill="white" stroke="black" points="810.5,-0.5 810.5,-19.5 930.5,-19.5 930.5,-0.5 810.5,-0.5"/>
<text text-anchor="middle" x="870.5" y="-7.5" font-family="Helvetica,sans-Serif" font-size="10.00">EVENT_UTIL_update_</text>
</a>
</g>
</g>
<!-- Node4&#45;&gt;Node12 -->
<g id="edge12" class="edge">
<title>Node4&#45;&gt;Node12</title>
<path fill="none" stroke="midnightblue" d="M1004.32,-24.1C981.83,-21.71 954.55,-18.82 930.57,-16.27"/>
<polygon fill="midnightblue" stroke="midnightblue" points="1003.96,-27.58 1014.28,-25.16 1004.7,-20.62 1003.96,-27.58"/>
</g>
<!-- Node6 -->
<g id="node6" class="node">
<title>Node6</title>
<g id="a_node6"><a xlink:href="command__definitions_8c.html#aa375895192b16d8e7f0ff4545b54e6c4" target="_top" xlink:title="Cmd Tableのロード">
<polygon fill="white" stroke="black" points="630,-38.5 630,-57.5 743,-57.5 743,-38.5 630,-38.5"/>
<text text-anchor="middle" x="686.5" y="-45.5" font-family="Helvetica,sans-Serif" font-size="10.00">CA_load_cmd_table</text>
</a>
</g>
</g>
<!-- Node5&#45;&gt;Node6 -->
<g id="edge6" class="edge">
<title>Node5&#45;&gt;Node6</title>
<path fill="none" stroke="midnightblue" d="M783.87,-48C770.04,-48 756.05,-48 743.17,-48"/>
<polygon fill="midnightblue" stroke="midnightblue" points="783.9,-51.5 793.9,-48 783.9,-44.5 783.9,-51.5"/>
</g>
<!-- Node7 -->
<g id="node7" class="node">
<title>Node7</title>
<g id="a_node7"><a xlink:href="command__analyze_8h.html#ae6d1f376bf4e1c9c4b63bc3f04924c8a" target="_top" xlink:title="CA の初期化">
<polygon fill="white" stroke="black" points="477.5,-38.5 477.5,-57.5 554.5,-57.5 554.5,-38.5 477.5,-38.5"/>
<text text-anchor="middle" x="516" y="-45.5" font-family="Helvetica,sans-Serif" font-size="10.00">CA_initialize</text>
</a>
</g>
</g>
<!-- Node6&#45;&gt;Node7 -->
<g id="edge7" class="edge">
<title>Node6&#45;&gt;Node7</title>
<path fill="none" stroke="midnightblue" d="M619.83,-48C597.68,-48 573.72,-48 554.51,-48"/>
<polygon fill="midnightblue" stroke="midnightblue" points="619.86,-51.5 629.86,-48 619.86,-44.5 619.86,-51.5"/>
</g>
<!-- Node8 -->
<g id="node8" class="node">
<title>Node8</title>
<g id="a_node8"><a xlink:href="c2a__core__main_8h.html#a65ecdc63d8762ffde4db7f6c6e6f07cf" target="_top" xlink:title=" ">
<polygon fill="white" stroke="black" points="330,-19.5 330,-38.5 413,-38.5 413,-19.5 330,-19.5"/>
<text text-anchor="middle" x="371.5" y="-26.5" font-family="Helvetica,sans-Serif" font-size="10.00">C2A_core_init</text>
</a>
</g>
</g>
<!-- Node7&#45;&gt;Node8 -->
<g id="edge8" class="edge">
<title>Node7&#45;&gt;Node8</title>
<path fill="none" stroke="midnightblue" d="M467.17,-41.62C449.67,-39.29 430.06,-36.67 413.24,-34.43"/>
<polygon fill="midnightblue" stroke="midnightblue" points="466.81,-45.11 477.19,-42.96 467.74,-38.17 466.81,-45.11"/>
</g>
<!-- Node9 -->
<g id="node9" class="node">
<title>Node9</title>
<g id="a_node9"><a xlink:href="c2a__main_8c.html#a630222a80cd8bffd4426d4a55a215069" target="_top" xlink:title=" ">
<polygon fill="white" stroke="black" points="232,-19.5 232,-38.5 294,-38.5 294,-19.5 232,-19.5"/>
<text text-anchor="middle" x="263" y="-26.5" font-family="Helvetica,sans-Serif" font-size="10.00">C2A_init_</text>
</a>
</g>
</g>
<!-- Node8&#45;&gt;Node9 -->
<g id="edge9" class="edge">
<title>Node8&#45;&gt;Node9</title>
<path fill="none" stroke="midnightblue" d="M319.76,-29C311.01,-29 302.17,-29 294.18,-29"/>
<polygon fill="midnightblue" stroke="midnightblue" points="319.93,-32.5 329.93,-29 319.93,-25.5 319.93,-32.5"/>
</g>
<!-- Node10 -->
<g id="node10" class="node">
<title>Node10</title>
<g id="a_node10"><a xlink:href="c2a__main_8c.html#ac3344a311adda8f9e7310924bedf81fc" target="_top" xlink:title=" ">
<polygon fill="white" stroke="black" points="77,-19.5 77,-38.5 196,-38.5 196,-19.5 77,-19.5"/>
<text text-anchor="middle" x="136.5" y="-26.5" font-family="Helvetica,sans-Serif" font-size="10.00">address_fixed_main_</text>
</a>
</g>
</g>
<!-- Node9&#45;&gt;Node10 -->
<g id="edge10" class="edge">
<title>Node9&#45;&gt;Node10</title>
<path fill="none" stroke="midnightblue" d="M221.83,-29C213.62,-29 204.82,-29 196.12,-29"/>
<polygon fill="midnightblue" stroke="midnightblue" points="221.86,-32.5 231.86,-29 221.86,-25.5 221.86,-32.5"/>
</g>
<!-- Node11 -->
<g id="node11" class="node">
<title>Node11</title>
<g id="a_node11"><a xlink:href="c2a__main_8c.html#a840291bc02cba5474a4cb46a9b9566fe" target="_top" xlink:title=" ">
<polygon fill="white" stroke="black" points="0,-19.5 0,-38.5 41,-38.5 41,-19.5 0,-19.5"/>
<text text-anchor="middle" x="20.5" y="-26.5" font-family="Helvetica,sans-Serif" font-size="10.00">main</text>
</a>
</g>
</g>
<!-- Node10&#45;&gt;Node11 -->
<g id="edge11" class="edge">
<title>Node10&#45;&gt;Node11</title>
<path fill="none" stroke="midnightblue" d="M66.64,-29C57.37,-29 48.53,-29 41.18,-29"/>
<polygon fill="midnightblue" stroke="midnightblue" points="66.83,-32.5 76.83,-29 66.83,-25.5 66.83,-32.5"/>
</g>
<!-- Node13 -->
<g id="node13" class="node">
<title>Node13</title>
<g id="a_node13"><a xlink:href="event__utility_8h.html#aa819ee69e6cd34b9217e9627ee12f70c" target="_top" xlink:title=" ">
<polygon fill="white" stroke="black" points="619,-0.5 619,-19.5 754,-19.5 754,-0.5 619,-0.5"/>
<text text-anchor="middle" x="686.5" y="-7.5" font-family="Helvetica,sans-Serif" font-size="10.00">EVENT_UTIL_create_app</text>
</a>
</g>
</g>
<!-- Node12&#45;&gt;Node13 -->
<g id="edge13" class="edge">
<title>Node12&#45;&gt;Node13</title>
<path fill="none" stroke="midnightblue" d="M800.13,-10C785.06,-10 769.15,-10 754.18,-10"/>
<polygon fill="midnightblue" stroke="midnightblue" points="800.41,-13.5 810.41,-10 800.41,-6.5 800.41,-13.5"/>
</g>
<!-- Node14 -->
<g id="node14" class="node">
<title>Node14</title>
<g id="a_node14"><a xlink:href="app__registry_8h.html#ab944b1d78a41e427bc2ed57f9c4e9534" target="_top" xlink:title=" ">
<polygon fill="white" stroke="black" points="449,-0.5 449,-19.5 583,-19.5 583,-0.5 449,-0.5"/>
<text text-anchor="middle" x="516" y="-7.5" font-family="Helvetica,sans-Serif" font-size="10.00">AR_load_initial_settings</text>
</a>
</g>
</g>
<!-- Node13&#45;&gt;Node14 -->
<g id="edge14" class="edge">
<title>Node13&#45;&gt;Node14</title>
<path fill="none" stroke="midnightblue" d="M608.88,-10C600.27,-10 591.57,-10 583.11,-10"/>
<polygon fill="midnightblue" stroke="midnightblue" points="608.9,-13.5 618.9,-10 608.9,-6.5 608.9,-13.5"/>
</g>
<!-- Node14&#45;&gt;Node8 -->
<g id="edge15" class="edge">
<title>Node14&#45;&gt;Node8</title>
<path fill="none" stroke="midnightblue" d="M438.56,-20.19C429.89,-21.35 421.32,-22.49 413.38,-23.55"/>
<polygon fill="midnightblue" stroke="midnightblue" points="439.31,-23.62 448.76,-18.83 438.38,-16.68 439.31,-23.62"/>
</g>
</g>
</svg>
