<?xml version="1.0" encoding="UTF-8" standalone="no"?>
<!DOCTYPE svg PUBLIC "-//W3C//DTD SVG 1.1//EN"
 "http://www.w3.org/Graphics/SVG/1.1/DTD/svg11.dtd">
<!-- Generated by graphviz version 2.43.0 (0)
 -->
<!-- Title: EL_enable_all_logging Pages: 1 -->
<svg width="1220pt" height="145pt"
 viewBox="0.00 0.00 1220.00 145.00" xmlns="http://www.w3.org/2000/svg" xmlns:xlink="http://www.w3.org/1999/xlink">
<g id="graph0" class="graph" transform="scale(1 1) rotate(0) translate(4 141)">
<title>EL_enable_all_logging</title>
<polygon fill="white" stroke="transparent" points="-4,4 -4,-141 1216,-141 1216,4 -4,4"/>
<!-- Node1 -->
<g id="node1" class="node">
<title>Node1</title>
<g id="a_node1"><a xlink:title="event_logger の全 EL_Event.group の有効化">
<polygon fill="#bfbfbf" stroke="black" points="1087,-74.5 1087,-93.5 1212,-93.5 1212,-74.5 1087,-74.5"/>
<text text-anchor="middle" x="1149.5" y="-81.5" font-family="Helvetica,sans-Serif" font-size="10.00">EL_enable_all_logging</text>
</a>
</g>
</g>
<!-- Node2 -->
<g id="node2" class="node">
<title>Node2</title>
<g id="a_node2"><a xlink:href="event__logger_8h.html#aae3e65110cfc60fd40da888b42b6f10f" target="_top" xlink:title=" ">
<polygon fill="white" stroke="black" points="711,-117.5 711,-136.5 884,-136.5 884,-117.5 711,-117.5"/>
<text text-anchor="middle" x="797.5" y="-124.5" font-family="Helvetica,sans-Serif" font-size="10.00">Cmd_EL_ENABLE_LOGGING_ALL</text>
</a>
</g>
</g>
<!-- Node1&#45;&gt;Node2 -->
<g id="edge1" class="edge">
<title>Node1&#45;&gt;Node2</title>
<path fill="none" stroke="midnightblue" d="M1107.42,-96.28C1090.14,-100.99 1069.74,-105.95 1051,-109 995.91,-117.95 933.34,-122.45 884.26,-124.71"/>
<polygon fill="midnightblue" stroke="midnightblue" points="1108.5,-99.62 1117.19,-93.56 1106.62,-92.87 1108.5,-99.62"/>
</g>
<!-- Node10 -->
<g id="node10" class="node">
<title>Node10</title>
<g id="a_node10"><a xlink:href="event__logger_8h.html#a65a4cdcabbafcb43f0e0d07da7631e3c" target="_top" xlink:title=" ">
<polygon fill="white" stroke="black" points="920,-69 920,-99 1051,-99 1051,-69 920,-69"/>
<text text-anchor="start" x="928" y="-87" font-family="Helvetica,sans-Serif" font-size="10.00">Cmd_EL_INIT_LOGGING</text>
<text text-anchor="middle" x="985.5" y="-76" font-family="Helvetica,sans-Serif" font-size="10.00">_SETTINGS</text>
</a>
</g>
</g>
<!-- Node1&#45;&gt;Node10 -->
<g id="edge10" class="edge">
<title>Node1&#45;&gt;Node10</title>
<path fill="none" stroke="midnightblue" d="M1076.6,-84C1068.16,-84 1059.6,-84 1051.27,-84"/>
<polygon fill="midnightblue" stroke="midnightblue" points="1076.79,-87.5 1086.79,-84 1076.79,-80.5 1076.79,-87.5"/>
</g>
<!-- Node11 -->
<g id="node11" class="node">
<title>Node11</title>
<g id="a_node11"><a xlink:href="event__logger_8h.html#a5b3f522390f30515e9561d47da40bcec" target="_top" xlink:title="event_logger の初期化">
<polygon fill="white" stroke="black" points="948,-30.5 948,-49.5 1023,-49.5 1023,-30.5 948,-30.5"/>
<text text-anchor="middle" x="985.5" y="-37.5" font-family="Helvetica,sans-Serif" font-size="10.00">EL_initialize</text>
</a>
</g>
</g>
<!-- Node1&#45;&gt;Node11 -->
<g id="edge12" class="edge">
<title>Node1&#45;&gt;Node11</title>
<path fill="none" stroke="midnightblue" d="M1103.41,-71.75C1077.54,-64.73 1045.56,-56.04 1021.58,-49.53"/>
<polygon fill="midnightblue" stroke="midnightblue" points="1102.78,-75.21 1113.35,-74.45 1104.62,-68.45 1102.78,-75.21"/>
</g>
<!-- Node3 -->
<g id="node3" class="node">
<title>Node3</title>
<g id="a_node3"><a xlink:href="command__definitions_8c.html#aa375895192b16d8e7f0ff4545b54e6c4" target="_top" xlink:title="Cmd Tableのロード">
<polygon fill="white" stroke="black" points="562,-76.5 562,-95.5 675,-95.5 675,-76.5 562,-76.5"/>
<text text-anchor="middle" x="618.5" y="-83.5" font-family="Helvetica,sans-Serif" font-size="10.00">CA_load_cmd_table</text>
</a>
</g>
</g>
<!-- Node2&#45;&gt;Node3 -->
<g id="edge2" class="edge">
<title>Node2&#45;&gt;Node3</title>
<path fill="none" stroke="midnightblue" d="M745.43,-115.17C718.51,-108.93 685.92,-101.38 660.64,-95.53"/>
<polygon fill="midnightblue" stroke="midnightblue" points="744.92,-118.64 755.45,-117.49 746.5,-111.82 744.92,-118.64"/>
</g>
<!-- Node4 -->
<g id="node4" class="node">
<title>Node4</title>
<g id="a_node4"><a xlink:href="command__analyze_8h.html#ae6d1f376bf4e1c9c4b63bc3f04924c8a" target="_top" xlink:title="CA の初期化">
<polygon fill="white" stroke="black" points="449,-38.5 449,-57.5 526,-57.5 526,-38.5 449,-38.5"/>
<text text-anchor="middle" x="487.5" y="-45.5" font-family="Helvetica,sans-Serif" font-size="10.00">CA_initialize</text>
</a>
</g>
</g>
<!-- Node3&#45;&gt;Node4 -->
<g id="edge3" class="edge">
<title>Node3&#45;&gt;Node4</title>
<path fill="none" stroke="midnightblue" d="M574.95,-73.46C557.4,-68.3 537.39,-62.4 521.04,-57.59"/>
<polygon fill="midnightblue" stroke="midnightblue" points="574.37,-76.94 584.95,-76.41 576.34,-70.23 574.37,-76.94"/>
</g>
<!-- Node5 -->
<g id="node5" class="node">
<title>Node5</title>
<g id="a_node5"><a xlink:href="c2a__core__main_8h.html#a65ecdc63d8762ffde4db7f6c6e6f07cf" target="_top" xlink:title=" ">
<polygon fill="white" stroke="black" points="330,-19.5 330,-38.5 413,-38.5 413,-19.5 330,-19.5"/>
<text text-anchor="middle" x="371.5" y="-26.5" font-family="Helvetica,sans-Serif" font-size="10.00">C2A_core_init</text>
</a>
</g>
</g>
<!-- Node4&#45;&gt;Node5 -->
<g id="edge4" class="edge">
<title>Node4&#45;&gt;Node5</title>
<path fill="none" stroke="midnightblue" d="M438.72,-40.04C430.25,-38.62 421.5,-37.17 413.24,-35.79"/>
<polygon fill="midnightblue" stroke="midnightblue" points="438.42,-43.53 448.86,-41.73 439.57,-36.63 438.42,-43.53"/>
</g>
<!-- Node9 -->
<g id="node9" class="node">
<title>Node9</title>
<g id="a_node9"><a xlink:href="command__analyze_8h.html#aee45638c6cff2c25a997905b209079d0" target="_top" xlink:title=" ">
<polygon fill="white" stroke="black" points="330,-66.5 330,-85.5 413,-85.5 413,-66.5 330,-66.5"/>
<text text-anchor="middle" x="371.5" y="-73.5" font-family="Helvetica,sans-Serif" font-size="10.00">Cmd_CA_INIT</text>
</a>
</g>
</g>
<!-- Node4&#45;&gt;Node9 -->
<g id="edge8" class="edge">
<title>Node4&#45;&gt;Node9</title>
<path fill="none" stroke="midnightblue" d="M439.01,-59.66C429.77,-61.93 420.19,-64.29 411.28,-66.48"/>
<polygon fill="midnightblue" stroke="midnightblue" points="439.98,-63.03 448.86,-57.25 438.31,-56.23 439.98,-63.03"/>
</g>
<!-- Node6 -->
<g id="node6" class="node">
<title>Node6</title>
<g id="a_node6"><a xlink:href="c2a__main_8c.html#a630222a80cd8bffd4426d4a55a215069" target="_top" xlink:title=" ">
<polygon fill="white" stroke="black" points="232,-19.5 232,-38.5 294,-38.5 294,-19.5 232,-19.5"/>
<text text-anchor="middle" x="263" y="-26.5" font-family="Helvetica,sans-Serif" font-size="10.00">C2A_init_</text>
</a>
</g>
</g>
<!-- Node5&#45;&gt;Node6 -->
<g id="edge5" class="edge">
<title>Node5&#45;&gt;Node6</title>
<path fill="none" stroke="midnightblue" d="M319.76,-29C311.01,-29 302.17,-29 294.18,-29"/>
<polygon fill="midnightblue" stroke="midnightblue" points="319.93,-32.5 329.93,-29 319.93,-25.5 319.93,-32.5"/>
</g>
<!-- Node7 -->
<g id="node7" class="node">
<title>Node7</title>
<g id="a_node7"><a xlink:href="c2a__main_8c.html#ac3344a311adda8f9e7310924bedf81fc" target="_top" xlink:title=" ">
<polygon fill="white" stroke="black" points="77,-19.5 77,-38.5 196,-38.5 196,-19.5 77,-19.5"/>
<text text-anchor="middle" x="136.5" y="-26.5" font-family="Helvetica,sans-Serif" font-size="10.00">address_fixed_main_</text>
</a>
</g>
</g>
<!-- Node6&#45;&gt;Node7 -->
<g id="edge6" class="edge">
<title>Node6&#45;&gt;Node7</title>
<path fill="none" stroke="midnightblue" d="M221.83,-29C213.62,-29 204.82,-29 196.12,-29"/>
<polygon fill="midnightblue" stroke="midnightblue" points="221.86,-32.5 231.86,-29 221.86,-25.5 221.86,-32.5"/>
</g>
<!-- Node8 -->
<g id="node8" class="node">
<title>Node8</title>
<g id="a_node8"><a xlink:href="c2a__main_8c.html#a840291bc02cba5474a4cb46a9b9566fe" target="_top" xlink:title=" ">
<polygon fill="white" stroke="black" points="0,-19.5 0,-38.5 41,-38.5 41,-19.5 0,-19.5"/>
<text text-anchor="middle" x="20.5" y="-26.5" font-family="Helvetica,sans-Serif" font-size="10.00">main</text>
</a>
</g>
</g>
<!-- Node7&#45;&gt;Node8 -->
<g id="edge7" class="edge">
<title>Node7&#45;&gt;Node8</title>
<path fill="none" stroke="midnightblue" d="M66.64,-29C57.37,-29 48.53,-29 41.18,-29"/>
<polygon fill="midnightblue" stroke="midnightblue" points="66.83,-32.5 76.83,-29 66.83,-25.5 66.83,-32.5"/>
</g>
<!-- Node9&#45;&gt;Node3 -->
<g id="edge9" class="edge">
<title>Node9&#45;&gt;Node3</title>
<path fill="none" stroke="midnightblue" d="M423.54,-78.08C463.96,-79.73 520.35,-82.03 561.91,-83.73"/>
<polygon fill="midnightblue" stroke="midnightblue" points="423.5,-74.58 413.37,-77.67 423.22,-81.57 423.5,-74.58"/>
</g>
<!-- Node10&#45;&gt;Node3 -->
<g id="edge11" class="edge">
<title>Node10&#45;&gt;Node3</title>
<path fill="none" stroke="midnightblue" d="M909.63,-84.41C839.97,-84.79 737.74,-85.35 675.07,-85.7"/>
<polygon fill="midnightblue" stroke="midnightblue" points="909.69,-87.91 919.67,-84.36 909.65,-80.91 909.69,-87.91"/>
</g>
<!-- Node12 -->
<g id="node12" class="node">
<title>Node12</title>
<g id="a_node12"><a xlink:href="event__logger_8h.html#a942af57e03fa2e31bea3903c2587efa7" target="_top" xlink:title=" ">
<polygon fill="white" stroke="black" points="757.5,-38.5 757.5,-57.5 837.5,-57.5 837.5,-38.5 757.5,-38.5"/>
<text text-anchor="middle" x="797.5" y="-45.5" font-family="Helvetica,sans-Serif" font-size="10.00">Cmd_EL_INIT</text>
</a>
</g>
</g>
<!-- Node11&#45;&gt;Node12 -->
<g id="edge13" class="edge">
<title>Node11&#45;&gt;Node12</title>
<path fill="none" stroke="midnightblue" d="M937.67,-42.01C906.83,-43.34 866.91,-45.06 837.74,-46.31"/>
<polygon fill="midnightblue" stroke="midnightblue" points="937.91,-45.51 947.75,-41.58 937.61,-38.51 937.91,-45.51"/>
</g>
<!-- Node13 -->
<g id="node13" class="node">
<title>Node13</title>
<g id="a_node13"><a xlink:href="event__manager_8h.html#ab1482d1d3615e189486d853e1f0209dd" target="_top" xlink:title="event_manager の初期化">
<polygon fill="white" stroke="black" points="579,-0.5 579,-19.5 658,-19.5 658,-0.5 579,-0.5"/>
<text text-anchor="middle" x="618.5" y="-7.5" font-family="Helvetica,sans-Serif" font-size="10.00">EM_initialize</text>
</a>
</g>
</g>
<!-- Node11&#45;&gt;Node13 -->
<g id="edge15" class="edge">
<title>Node11&#45;&gt;Node13</title>
<path fill="none" stroke="midnightblue" d="M937.6,-34.5C920.72,-32.62 901.52,-30.59 884,-29 803.76,-21.73 709.62,-15.52 658.08,-12.32"/>
<polygon fill="midnightblue" stroke="midnightblue" points="937.45,-38.01 947.78,-35.65 938.23,-31.05 937.45,-38.01"/>
</g>
<!-- Node12&#45;&gt;Node3 -->
<g id="edge14" class="edge">
<title>Node12&#45;&gt;Node3</title>
<path fill="none" stroke="midnightblue" d="M747.16,-58.59C721.07,-64.19 689.29,-71.02 663.97,-76.45"/>
<polygon fill="midnightblue" stroke="midnightblue" points="748.18,-61.95 757.22,-56.43 746.71,-55.11 748.18,-61.95"/>
</g>
<!-- Node13&#45;&gt;Node5 -->
<g id="edge16" class="edge">
<title>Node13&#45;&gt;Node5</title>
<path fill="none" stroke="midnightblue" d="M568.72,-13.78C523.19,-17.31 456.02,-22.52 413.27,-25.84"/>
<polygon fill="midnightblue" stroke="midnightblue" points="569.25,-17.25 578.95,-12.99 568.71,-10.27 569.25,-17.25"/>
</g>
</g>
</svg>
