<?xml version="1.0" encoding="UTF-8" standalone="no"?>
<!DOCTYPE svg PUBLIC "-//W3C//DTD SVG 1.1//EN"
 "http://www.w3.org/Graphics/SVG/1.1/DTD/svg11.dtd">
<!-- Generated by graphviz version 2.43.0 (0)
 -->
<!-- Title: Cmd_EH_LOAD_DEFAULT_RULE Pages: 1 -->
<svg width="912pt" height="85pt"
 viewBox="0.00 0.00 912.00 85.00" xmlns="http://www.w3.org/2000/svg" xmlns:xlink="http://www.w3.org/1999/xlink">
<g id="graph0" class="graph" transform="scale(1 1) rotate(0) translate(4 81)">
<title>Cmd_EH_LOAD_DEFAULT_RULE</title>
<polygon fill="white" stroke="transparent" points="-4,4 -4,-81 908,-81 908,4 -4,4"/>
<!-- Node1 -->
<g id="node1" class="node">
<title>Node1</title>
<g id="a_node1"><a xlink:title=" ">
<polygon fill="#bfbfbf" stroke="black" points="0,-38.5 0,-57.5 169,-57.5 169,-38.5 0,-38.5"/>
<text text-anchor="middle" x="84.5" y="-45.5" font-family="Helvetica,sans-Serif" font-size="10.00">Cmd_EH_LOAD_DEFAULT_RULE</text>
</a>
</g>
</g>
<!-- Node2 -->
<g id="node2" class="node">
<title>Node2</title>
<g id="a_node2"><a xlink:href="event__handler__rules_8c.html#a0c0069644e7b97a939424af1cff3b281" target="_top" xlink:title="event_handler のデフォルトルールを読み込む">
<polygon fill="white" stroke="black" points="205,-38.5 205,-57.5 330,-57.5 330,-38.5 205,-38.5"/>
<text text-anchor="middle" x="267.5" y="-45.5" font-family="Helvetica,sans-Serif" font-size="10.00">EH_load_default_rules</text>
</a>
</g>
</g>
<!-- Node1&#45;&gt;Node2 -->
<g id="edge1" class="edge">
<title>Node1&#45;&gt;Node2</title>
<path fill="none" stroke="midnightblue" d="M169.11,-48C177.67,-48 186.32,-48 194.73,-48"/>
<polygon fill="midnightblue" stroke="midnightblue" points="194.87,-51.5 204.87,-48 194.87,-44.5 194.87,-51.5"/>
</g>
<!-- Node3 -->
<g id="node3" class="node">
<title>Node3</title>
<g id="a_node3"><a xlink:href="event__handler__rule__test_8c.html#a7c7f19d43fe3f1e8c4360f4a010c4441" target="_top" xlink:title=" ">
<polygon fill="white" stroke="black" points="366,-38.5 366,-57.5 470,-57.5 470,-38.5 366,-38.5"/>
<text text-anchor="middle" x="418" y="-45.5" font-family="Helvetica,sans-Serif" font-size="10.00">EH_load_rule_test</text>
</a>
</g>
</g>
<!-- Node2&#45;&gt;Node3 -->
<g id="edge2" class="edge">
<title>Node2&#45;&gt;Node3</title>
<path fill="none" stroke="midnightblue" d="M330.19,-48C338.57,-48 347.18,-48 355.56,-48"/>
<polygon fill="midnightblue" stroke="midnightblue" points="355.64,-51.5 365.64,-48 355.64,-44.5 355.64,-51.5"/>
</g>
<!-- Node4 -->
<g id="node4" class="node">
<title>Node4</title>
<g id="a_node4"><a xlink:href="event__handler_8c.html#a081e868576a32e8518a0d73a17c30010" target="_top" xlink:title="ルールの登録">
<polygon fill="white" stroke="black" points="506,-38.5 506,-57.5 603,-57.5 603,-38.5 506,-38.5"/>
<text text-anchor="middle" x="554.5" y="-45.5" font-family="Helvetica,sans-Serif" font-size="10.00">EH_register_rule</text>
</a>
</g>
</g>
<!-- Node3&#45;&gt;Node4 -->
<g id="edge3" class="edge">
<title>Node3&#45;&gt;Node4</title>
<path fill="none" stroke="midnightblue" d="M470.23,-48C478.57,-48 487.26,-48 495.74,-48"/>
<polygon fill="midnightblue" stroke="midnightblue" points="495.95,-51.5 505.95,-48 495.95,-44.5 495.95,-51.5"/>
</g>
<!-- Node5 -->
<g id="node5" class="node">
<title>Node5</title>
<g id="a_node5"><a xlink:href="event__handler_8c.html#a59de6a0bd2f3bfae3758c0cada7c5ca6" target="_top" xlink:title="EH_RULE_ID のルール登録状況を調べる">
<polygon fill="white" stroke="black" points="797,-57.5 797,-76.5 904,-76.5 904,-57.5 797,-57.5"/>
<text text-anchor="middle" x="850.5" y="-64.5" font-family="Helvetica,sans-Serif" font-size="10.00">EH_check_rule_id_</text>
</a>
</g>
</g>
<!-- Node4&#45;&gt;Node5 -->
<g id="edge4" class="edge">
<title>Node4&#45;&gt;Node5</title>
<path fill="none" stroke="midnightblue" d="M589.33,-57.51C604.4,-61.27 622.45,-65.14 639,-67 688.49,-72.56 744.93,-72.2 786.91,-70.65"/>
<polygon fill="midnightblue" stroke="midnightblue" points="787.13,-74.14 796.98,-70.24 786.85,-67.15 787.13,-74.14"/>
</g>
<!-- Node6 -->
<g id="node6" class="node">
<title>Node6</title>
<g id="a_node6"><a xlink:href="event__handler_8c.html#a0c6971282a560e5447340c48c0ce7888" target="_top" xlink:title="EH_Rule を EH_RuleTable と EH_RuleSortedIndex に挿入する">
<polygon fill="white" stroke="black" points="639,-38.5 639,-57.5 761,-57.5 761,-38.5 639,-38.5"/>
<text text-anchor="middle" x="700" y="-45.5" font-family="Helvetica,sans-Serif" font-size="10.00">EH_insert_rule_table_</text>
</a>
</g>
</g>
<!-- Node4&#45;&gt;Node6 -->
<g id="edge5" class="edge">
<title>Node4&#45;&gt;Node6</title>
<path fill="none" stroke="midnightblue" d="M603.28,-48C611.49,-48 620.16,-48 628.81,-48"/>
<polygon fill="midnightblue" stroke="midnightblue" points="628.92,-51.5 638.92,-48 628.92,-44.5 628.92,-51.5"/>
</g>
<!-- Node7 -->
<g id="node7" class="node">
<title>Node7</title>
<g id="a_node7"><a xlink:href="obc__time_8c.html#af728cdbeae57ea5bf7f25ba5a3776e60" target="_top" xlink:title="ObcTime をクリアし全てゼロにする">
<polygon fill="white" stroke="black" points="663.5,-0.5 663.5,-19.5 736.5,-19.5 736.5,-0.5 663.5,-0.5"/>
<text text-anchor="middle" x="700" y="-7.5" font-family="Helvetica,sans-Serif" font-size="10.00">OBCT_clear</text>
</a>
</g>
</g>
<!-- Node4&#45;&gt;Node7 -->
<g id="edge7" class="edge">
<title>Node4&#45;&gt;Node7</title>
<path fill="none" stroke="midnightblue" d="M591.71,-38.41C610.46,-33.45 633.55,-27.33 653.49,-22.05"/>
<polygon fill="midnightblue" stroke="midnightblue" points="654.53,-25.4 663.3,-19.45 652.73,-18.63 654.53,-25.4"/>
</g>
<!-- Node6&#45;&gt;Node5 -->
<g id="edge6" class="edge">
<title>Node6&#45;&gt;Node5</title>
<path fill="none" stroke="midnightblue" d="M761.4,-55.73C769.74,-56.79 778.31,-57.89 786.69,-58.96"/>
<polygon fill="midnightblue" stroke="midnightblue" points="786.42,-62.46 796.78,-60.25 787.3,-55.51 786.42,-62.46"/>
</g>
</g>
</svg>
