<?xml version="1.0" encoding="UTF-8" standalone="no"?>
<!DOCTYPE svg PUBLIC "-//W3C//DTD SVG 1.1//EN"
 "http://www.w3.org/Graphics/SVG/1.1/DTD/svg11.dtd">
<!-- Generated by graphviz version 2.43.0 (0)
 -->
<!-- Title: src/src_user/Settings/System/EventHandlerRules/event_handler_rules.h Pages: 1 -->
<svg width="1007pt" height="273pt"
 viewBox="0.00 0.00 1006.50 273.00" xmlns="http://www.w3.org/2000/svg" xmlns:xlink="http://www.w3.org/1999/xlink">
<g id="graph0" class="graph" transform="scale(1 1) rotate(0) translate(4 269)">
<title>src/src_user/Settings/System/EventHandlerRules/event_handler_rules.h</title>
<polygon fill="white" stroke="transparent" points="-4,4 -4,-269 1002.5,-269 1002.5,4 -4,4"/>
<!-- Node1 -->
<g id="node1" class="node">
<title>Node1</title>
<g id="a_node1"><a xlink:title="EH の Rule 共通ヘッダ">
<polygon fill="#bfbfbf" stroke="black" points="710.5,-223.5 710.5,-264.5 862.5,-264.5 862.5,-223.5 710.5,-223.5"/>
<text text-anchor="start" x="718.5" y="-252.5" font-family="Helvetica,sans-Serif" font-size="10.00">src/src_user/Settings</text>
<text text-anchor="start" x="718.5" y="-241.5" font-family="Helvetica,sans-Serif" font-size="10.00">/System/EventHandlerRules</text>
<text text-anchor="middle" x="786.5" y="-230.5" font-family="Helvetica,sans-Serif" font-size="10.00">/event_handler_rules.h</text>
</a>
</g>
</g>
<!-- Node2 -->
<g id="node2" class="node">
<title>Node2</title>
<g id="a_node2"><a xlink:href="event__handler_8h.html" target="_top" xlink:title="イベント発火型処理を行う">
<polygon fill="white" stroke="black" points="502,-145.5 502,-186.5 623,-186.5 623,-145.5 502,-145.5"/>
<text text-anchor="start" x="510" y="-174.5" font-family="Helvetica,sans-Serif" font-size="10.00">src/src_core/System</text>
<text text-anchor="start" x="510" y="-163.5" font-family="Helvetica,sans-Serif" font-size="10.00">/EventManager/event</text>
<text text-anchor="middle" x="562.5" y="-152.5" font-family="Helvetica,sans-Serif" font-size="10.00">_handler.h</text>
</a>
</g>
</g>
<!-- Node1&#45;&gt;Node2 -->
<g id="edge1" class="edge">
<title>Node1&#45;&gt;Node2</title>
<path fill="none" stroke="midnightblue" d="M719.2,-220.17C687.58,-209.44 650.27,-196.78 619.99,-186.51"/>
<polygon fill="midnightblue" stroke="midnightblue" points="718.22,-223.53 728.81,-223.43 720.47,-216.9 718.22,-223.53"/>
</g>
<!-- Node7 -->
<g id="node7" class="node">
<title>Node7</title>
<g id="a_node7"><a xlink:href="event__handler__rule__test_8c.html" target="_top" xlink:title="EH の テスト用 Rule">
<polygon fill="white" stroke="black" points="846.5,-67.5 846.5,-108.5 998.5,-108.5 998.5,-67.5 846.5,-67.5"/>
<text text-anchor="start" x="854.5" y="-96.5" font-family="Helvetica,sans-Serif" font-size="10.00">src/src_user/Settings</text>
<text text-anchor="start" x="854.5" y="-85.5" font-family="Helvetica,sans-Serif" font-size="10.00">/System/EventHandlerRules</text>
<text text-anchor="middle" x="922.5" y="-74.5" font-family="Helvetica,sans-Serif" font-size="10.00">/event_handler_rule_test.c</text>
</a>
</g>
</g>
<!-- Node1&#45;&gt;Node7 -->
<g id="edge11" class="edge">
<title>Node1&#45;&gt;Node7</title>
<path fill="none" stroke="midnightblue" d="M785.51,-213.21C786.3,-192.16 790.54,-164.36 805.5,-145 818.03,-128.79 836.44,-117.02 854.96,-108.59"/>
<polygon fill="midnightblue" stroke="midnightblue" points="782.01,-213.18 785.37,-223.23 789.01,-213.28 782.01,-213.18"/>
</g>
<!-- Node12 -->
<g id="node12" class="node">
<title>Node12</title>
<g id="a_node12"><a xlink:href="event__handler__rules_8c.html" target="_top" xlink:title="EH の Rule 共通コード">
<polygon fill="white" stroke="black" points="814.5,-145.5 814.5,-186.5 966.5,-186.5 966.5,-145.5 814.5,-145.5"/>
<text text-anchor="start" x="822.5" y="-174.5" font-family="Helvetica,sans-Serif" font-size="10.00">src/src_user/Settings</text>
<text text-anchor="start" x="822.5" y="-163.5" font-family="Helvetica,sans-Serif" font-size="10.00">/System/EventHandlerRules</text>
<text text-anchor="middle" x="890.5" y="-152.5" font-family="Helvetica,sans-Serif" font-size="10.00">/event_handler_rules.c</text>
</a>
</g>
</g>
<!-- Node1&#45;&gt;Node12 -->
<g id="edge12" class="edge">
<title>Node1&#45;&gt;Node12</title>
<path fill="none" stroke="midnightblue" d="M821.6,-217.35C835.39,-207.27 850.96,-195.89 863.81,-186.51"/>
<polygon fill="midnightblue" stroke="midnightblue" points="819.29,-214.7 813.28,-223.43 823.42,-220.35 819.29,-214.7"/>
</g>
<!-- Node3 -->
<g id="node3" class="node">
<title>Node3</title>
<g id="a_node3"><a xlink:href="event__utility_8c.html" target="_top" xlink:title="イベント処理の定期実行のためのApp">
<polygon fill="white" stroke="black" points="0,-73 0,-103 137,-103 137,-73 0,-73"/>
<text text-anchor="start" x="8" y="-91" font-family="Helvetica,sans-Serif" font-size="10.00">src/src_core/Applications</text>
<text text-anchor="middle" x="68.5" y="-80" font-family="Helvetica,sans-Serif" font-size="10.00">/event_utility.c</text>
</a>
</g>
</g>
<!-- Node2&#45;&gt;Node3 -->
<g id="edge2" class="edge">
<title>Node2&#45;&gt;Node3</title>
<path fill="none" stroke="midnightblue" d="M491.59,-158.11C408.27,-149.41 266.09,-132.67 145.5,-109 136.83,-107.3 127.68,-105.2 118.83,-103"/>
<polygon fill="midnightblue" stroke="midnightblue" points="491.39,-161.61 501.7,-159.16 492.11,-154.65 491.39,-161.61"/>
</g>
<!-- Node4 -->
<g id="node4" class="node">
<title>Node4</title>
<g id="a_node4"><a xlink:href="event__handler_8c.html" target="_top" xlink:title="イベント発火型処理を行う">
<polygon fill="white" stroke="black" points="155,-67.5 155,-108.5 276,-108.5 276,-67.5 155,-67.5"/>
<text text-anchor="start" x="163" y="-96.5" font-family="Helvetica,sans-Serif" font-size="10.00">src/src_core/System</text>
<text text-anchor="start" x="163" y="-85.5" font-family="Helvetica,sans-Serif" font-size="10.00">/EventManager/event</text>
<text text-anchor="middle" x="215.5" y="-74.5" font-family="Helvetica,sans-Serif" font-size="10.00">_handler.c</text>
</a>
</g>
</g>
<!-- Node2&#45;&gt;Node4 -->
<g id="edge3" class="edge">
<title>Node2&#45;&gt;Node4</title>
<path fill="none" stroke="midnightblue" d="M492.1,-152.5C435.68,-142.07 354.64,-126.2 284.5,-109 281.71,-108.32 278.87,-107.6 276.01,-106.85"/>
<polygon fill="midnightblue" stroke="midnightblue" points="491.52,-155.95 501.98,-154.31 492.78,-149.06 491.52,-155.95"/>
</g>
<!-- Node5 -->
<g id="node5" class="node">
<title>Node5</title>
<g id="a_node5"><a xlink:href="event__logger_8c.html" target="_top" xlink:title="アノマリやエラーなどの各種イベントを記録する">
<polygon fill="white" stroke="black" points="294,-67.5 294,-108.5 415,-108.5 415,-67.5 294,-67.5"/>
<text text-anchor="start" x="302" y="-96.5" font-family="Helvetica,sans-Serif" font-size="10.00">src/src_core/System</text>
<text text-anchor="start" x="302" y="-85.5" font-family="Helvetica,sans-Serif" font-size="10.00">/EventManager/event</text>
<text text-anchor="middle" x="354.5" y="-74.5" font-family="Helvetica,sans-Serif" font-size="10.00">_logger.c</text>
</a>
</g>
</g>
<!-- Node2&#45;&gt;Node5 -->
<g id="edge4" class="edge">
<title>Node2&#45;&gt;Node5</title>
<path fill="none" stroke="midnightblue" d="M499.24,-141.89C470.05,-131.22 435.76,-118.69 407.88,-108.51"/>
<polygon fill="midnightblue" stroke="midnightblue" points="498.34,-145.28 508.93,-145.43 500.74,-138.71 498.34,-145.28"/>
</g>
<!-- Node6 -->
<g id="node6" class="node">
<title>Node6</title>
<g id="a_node6"><a xlink:href="event__manager_8c.html" target="_top" xlink:title="C2A全体のイベントを管理する">
<polygon fill="white" stroke="black" points="433,-67.5 433,-108.5 554,-108.5 554,-67.5 433,-67.5"/>
<text text-anchor="start" x="441" y="-96.5" font-family="Helvetica,sans-Serif" font-size="10.00">src/src_core/System</text>
<text text-anchor="start" x="441" y="-85.5" font-family="Helvetica,sans-Serif" font-size="10.00">/EventManager/event</text>
<text text-anchor="middle" x="493.5" y="-74.5" font-family="Helvetica,sans-Serif" font-size="10.00">_manager.c</text>
</a>
</g>
</g>
<!-- Node2&#45;&gt;Node6 -->
<g id="edge5" class="edge">
<title>Node2&#45;&gt;Node6</title>
<path fill="none" stroke="midnightblue" d="M537.91,-137.92C529.09,-128.2 519.33,-117.45 511.21,-108.51"/>
<polygon fill="midnightblue" stroke="midnightblue" points="535.42,-140.38 544.73,-145.43 540.6,-135.67 535.42,-140.38"/>
</g>
<!-- Node2&#45;&gt;Node7 -->
<g id="edge6" class="edge">
<title>Node2&#45;&gt;Node7</title>
<path fill="none" stroke="midnightblue" d="M633.33,-151.19C688.95,-140.19 768.28,-124.19 837.5,-109 840.31,-108.38 843.18,-107.75 846.07,-107.1"/>
<polygon fill="midnightblue" stroke="midnightblue" points="632.37,-147.81 623.23,-153.18 633.72,-154.68 632.37,-147.81"/>
</g>
<!-- Node8 -->
<g id="node8" class="node">
<title>Node8</title>
<g id="a_node8"><a xlink:href="command__source_8h.html" target="_top" xlink:title="コマンド定義に必要なヘッダー">
<polygon fill="white" stroke="black" points="572,-73 572,-103 691,-103 691,-73 572,-73"/>
<text text-anchor="start" x="580" y="-91" font-family="Helvetica,sans-Serif" font-size="10.00">src/src_user/TlmCmd</text>
<text text-anchor="middle" x="631.5" y="-80" font-family="Helvetica,sans-Serif" font-size="10.00">/command_source.h</text>
</a>
</g>
</g>
<!-- Node2&#45;&gt;Node8 -->
<g id="edge7" class="edge">
<title>Node2&#45;&gt;Node8</title>
<path fill="none" stroke="midnightblue" d="M587.02,-137.99C597.68,-126.25 609.72,-112.99 618.58,-103.23"/>
<polygon fill="midnightblue" stroke="midnightblue" points="584.4,-135.67 580.27,-145.43 589.58,-140.38 584.4,-135.67"/>
</g>
<!-- Node10 -->
<g id="node10" class="node">
<title>Node10</title>
<g id="a_node10"><a xlink:href="telemetry__source_8h.html" target="_top" xlink:title="テレメトリ定義に必要なヘッダー">
<polygon fill="white" stroke="black" points="709,-73 709,-103 828,-103 828,-73 709,-73"/>
<text text-anchor="start" x="717" y="-91" font-family="Helvetica,sans-Serif" font-size="10.00">src/src_user/TlmCmd</text>
<text text-anchor="middle" x="768.5" y="-80" font-family="Helvetica,sans-Serif" font-size="10.00">/telemetry_source.h</text>
</a>
</g>
</g>
<!-- Node2&#45;&gt;Node10 -->
<g id="edge9" class="edge">
<title>Node2&#45;&gt;Node10</title>
<path fill="none" stroke="midnightblue" d="M625.02,-141.93C659.33,-129.28 700.76,-113.99 730.26,-103.11"/>
<polygon fill="midnightblue" stroke="midnightblue" points="623.72,-138.68 615.55,-145.43 626.14,-145.25 623.72,-138.68"/>
</g>
<!-- Node9 -->
<g id="node9" class="node">
<title>Node9</title>
<g id="a_node9"><a xlink:href="command__definitions_8c.html" target="_top" xlink:title="コマンド定義">
<polygon fill="white" stroke="black" points="558,-0.5 558,-30.5 691,-30.5 691,-0.5 558,-0.5"/>
<text text-anchor="start" x="566" y="-18.5" font-family="Helvetica,sans-Serif" font-size="10.00">src/src_user/TlmCmd</text>
<text text-anchor="middle" x="624.5" y="-7.5" font-family="Helvetica,sans-Serif" font-size="10.00">/command_definitions.c</text>
</a>
</g>
</g>
<!-- Node8&#45;&gt;Node9 -->
<g id="edge8" class="edge">
<title>Node8&#45;&gt;Node9</title>
<path fill="none" stroke="midnightblue" d="M629.09,-62.73C628.03,-52.07 626.82,-39.91 625.91,-30.75"/>
<polygon fill="midnightblue" stroke="midnightblue" points="625.61,-63.13 630.08,-72.73 632.58,-62.44 625.61,-63.13"/>
</g>
<!-- Node11 -->
<g id="node11" class="node">
<title>Node11</title>
<g id="a_node11"><a xlink:href="telemetry__definitions_8c.html" target="_top" xlink:title="テレメトリ定義">
<polygon fill="white" stroke="black" points="709.5,-0.5 709.5,-30.5 841.5,-30.5 841.5,-0.5 709.5,-0.5"/>
<text text-anchor="start" x="717.5" y="-18.5" font-family="Helvetica,sans-Serif" font-size="10.00">src/src_user/TlmCmd</text>
<text text-anchor="middle" x="775.5" y="-7.5" font-family="Helvetica,sans-Serif" font-size="10.00">/telemetry_definitions.c</text>
</a>
</g>
</g>
<!-- Node10&#45;&gt;Node11 -->
<g id="edge10" class="edge">
<title>Node10&#45;&gt;Node11</title>
<path fill="none" stroke="midnightblue" d="M770.91,-62.73C771.97,-52.07 773.18,-39.91 774.09,-30.75"/>
<polygon fill="midnightblue" stroke="midnightblue" points="767.42,-62.44 769.92,-72.73 774.39,-63.13 767.42,-62.44"/>
</g>
</g>
</svg>
