<?xml version="1.0" encoding="UTF-8" standalone="no"?>
<!DOCTYPE svg PUBLIC "-//W3C//DTD SVG 1.1//EN"
 "http://www.w3.org/Graphics/SVG/1.1/DTD/svg11.dtd">
<!-- Generated by graphviz version 2.43.0 (0)
 -->
<!-- Title: src/src_user/Settings/System/event_logger_settings.c Pages: 1 -->
<svg width="757pt" height="463pt"
 viewBox="0.00 0.00 757.05 463.00" xmlns="http://www.w3.org/2000/svg" xmlns:xlink="http://www.w3.org/1999/xlink">
<g id="graph0" class="graph" transform="scale(1 1) rotate(0) translate(4 459)">
<title>src/src_user/Settings/System/event_logger_settings.c</title>
<polygon fill="white" stroke="transparent" points="-4,4 -4,-459 753.05,-459 753.05,4 -4,4"/>
<!-- Node1 -->
<g id="node1" class="node">
<title>Node1</title>
<g id="a_node1"><a xlink:title="event_logger の設定">
<polygon fill="#bfbfbf" stroke="black" points="450.55,-413.5 450.55,-454.5 573.55,-454.5 573.55,-413.5 450.55,-413.5"/>
<text text-anchor="start" x="458.55" y="-442.5" font-family="Helvetica,sans-Serif" font-size="10.00">src/src_user/Settings</text>
<text text-anchor="start" x="458.55" y="-431.5" font-family="Helvetica,sans-Serif" font-size="10.00">/System/event_logger</text>
<text text-anchor="middle" x="512.05" y="-420.5" font-family="Helvetica,sans-Serif" font-size="10.00">_settings.c</text>
</a>
</g>
</g>
<!-- Node2 -->
<g id="node2" class="node">
<title>Node2</title>
<g id="a_node2"><a xlink:href="event__logger_8h.html" target="_top" xlink:title="アノマリやエラーなどの各種イベントを記録する">
<polygon fill="white" stroke="black" points="255.05,-346.5 255.05,-376.5 425.05,-376.5 425.05,-346.5 255.05,-346.5"/>
<text text-anchor="start" x="263.05" y="-364.5" font-family="Helvetica,sans-Serif" font-size="10.00">src_core/System/EventManager</text>
<text text-anchor="middle" x="340.05" y="-353.5" font-family="Helvetica,sans-Serif" font-size="10.00">/event_logger.h</text>
</a>
</g>
</g>
<!-- Node1&#45;&gt;Node2 -->
<g id="edge1" class="edge">
<title>Node1&#45;&gt;Node2</title>
<path fill="none" stroke="midnightblue" d="M464.13,-413.36C438.95,-403.04 408.3,-390.48 383.77,-380.42"/>
<polygon fill="midnightblue" stroke="midnightblue" points="384.93,-377.11 374.35,-376.56 382.27,-383.59 384.93,-377.11"/>
</g>
<!-- Node15 -->
<g id="node15" class="node">
<title>Node15</title>
<g id="a_node15"><a xlink:href="event__logger__group_8h.html" target="_top" xlink:title="event_logger の イベント識別IDを定義">
<polygon fill="white" stroke="black" points="502.05,-279.5 502.05,-309.5 642.05,-309.5 642.05,-279.5 502.05,-279.5"/>
<text text-anchor="start" x="510.05" y="-297.5" font-family="Helvetica,sans-Serif" font-size="10.00">src_user/Settings/System</text>
<text text-anchor="middle" x="572.05" y="-286.5" font-family="Helvetica,sans-Serif" font-size="10.00">/event_logger_group.h</text>
</a>
</g>
</g>
<!-- Node1&#45;&gt;Node15 -->
<g id="edge22" class="edge">
<title>Node1&#45;&gt;Node15</title>
<path fill="none" stroke="midnightblue" d="M513.69,-413.49C515.82,-395.29 520.59,-367.73 531.05,-346 536.02,-335.67 543.5,-325.58 550.71,-317.18"/>
<polygon fill="midnightblue" stroke="midnightblue" points="553.37,-319.46 557.46,-309.69 548.17,-314.78 553.37,-319.46"/>
</g>
<!-- Node17 -->
<g id="node17" class="node">
<title>Node17</title>
<g id="a_node17"><a xlink:href="event__logger__settings_8h.html" target="_top" xlink:title="event_logger の設定">
<polygon fill="white" stroke="black" points="540.05,-352 540.05,-371 674.05,-371 674.05,-352 540.05,-352"/>
<text text-anchor="middle" x="607.05" y="-359" font-family="Helvetica,sans-Serif" font-size="10.00">event_logger_settings.h</text>
</a>
</g>
</g>
<!-- Node1&#45;&gt;Node17 -->
<g id="edge21" class="edge">
<title>Node1&#45;&gt;Node17</title>
<path fill="none" stroke="midnightblue" d="M538.51,-413.36C553.97,-401.89 573.15,-387.65 587.29,-377.16"/>
<polygon fill="midnightblue" stroke="midnightblue" points="589.41,-379.94 595.36,-371.17 585.24,-374.32 589.41,-379.94"/>
</g>
<!-- Node3 -->
<g id="node3" class="node">
<title>Node3</title>
<g id="a_node3"><a xlink:title=" ">
<polygon fill="white" stroke="#bfbfbf" points="428.05,-285 428.05,-304 484.05,-304 484.05,-285 428.05,-285"/>
<text text-anchor="middle" x="456.05" y="-292" font-family="Helvetica,sans-Serif" font-size="10.00">stddef.h</text>
</a>
</g>
</g>
<!-- Node2&#45;&gt;Node3 -->
<g id="edge2" class="edge">
<title>Node2&#45;&gt;Node3</title>
<path fill="none" stroke="midnightblue" d="M365.22,-346.4C385.03,-335.29 412.46,-319.92 431.99,-308.98"/>
<polygon fill="midnightblue" stroke="midnightblue" points="433.85,-311.95 440.86,-304.01 430.43,-305.84 433.85,-311.95"/>
</g>
<!-- Node4 -->
<g id="node4" class="node">
<title>Node4</title>
<g id="a_node4"><a xlink:href="stdint_8h.html" target="_top" xlink:title=" ">
<polygon fill="white" stroke="black" points="168.05,-67.5 168.05,-86.5 302.05,-86.5 302.05,-67.5 168.05,-67.5"/>
<text text-anchor="middle" x="235.05" y="-74.5" font-family="Helvetica,sans-Serif" font-size="10.00">src_user/Library/stdint.h</text>
</a>
</g>
</g>
<!-- Node2&#45;&gt;Node4 -->
<g id="edge3" class="edge">
<title>Node2&#45;&gt;Node4</title>
<path fill="none" stroke="midnightblue" d="M254.68,-359.37C174.23,-352.92 60.2,-328.27 20.05,-243 -0.59,-199.17 -10.6,-172.32 19.05,-134 36.2,-111.83 103.01,-96.83 157.84,-87.97"/>
<polygon fill="midnightblue" stroke="midnightblue" points="158.58,-91.4 167.92,-86.39 157.5,-84.48 158.58,-91.4"/>
</g>
<!-- Node6 -->
<g id="node6" class="node">
<title>Node6</title>
<g id="a_node6"><a xlink:href="common__cmd__packet_8h.html" target="_top" xlink:title="CCP 関連基本関数の宣言">
<polygon fill="white" stroke="black" points="130.05,-279.5 130.05,-309.5 252.05,-309.5 252.05,-279.5 130.05,-279.5"/>
<text text-anchor="start" x="138.05" y="-297.5" font-family="Helvetica,sans-Serif" font-size="10.00">../../TlmCmd/common</text>
<text text-anchor="middle" x="191.05" y="-286.5" font-family="Helvetica,sans-Serif" font-size="10.00">_cmd_packet.h</text>
</a>
</g>
</g>
<!-- Node2&#45;&gt;Node6 -->
<g id="edge5" class="edge">
<title>Node2&#45;&gt;Node6</title>
<path fill="none" stroke="midnightblue" d="M307.72,-346.4C285.75,-336.81 256.49,-324.05 232.77,-313.7"/>
<polygon fill="midnightblue" stroke="midnightblue" points="233.88,-310.37 223.31,-309.58 231.08,-316.78 233.88,-310.37"/>
</g>
<!-- Node7 -->
<g id="node7" class="node">
<title>Node7</title>
<g id="a_node7"><a xlink:href="obc__time_8h.html" target="_top" xlink:title="OBCの時刻情報の定義と演算">
<polygon fill="white" stroke="black" points="29.55,-207 29.55,-237 162.55,-237 162.55,-207 29.55,-207"/>
<text text-anchor="start" x="37.55" y="-225" font-family="Helvetica,sans-Serif" font-size="10.00">../System/TimeManager</text>
<text text-anchor="middle" x="96.05" y="-214" font-family="Helvetica,sans-Serif" font-size="10.00">/obc_time.h</text>
</a>
</g>
</g>
<!-- Node2&#45;&gt;Node7 -->
<g id="edge18" class="edge">
<title>Node2&#45;&gt;Node7</title>
<path fill="none" stroke="midnightblue" d="M254.94,-349.88C202.02,-341.61 140.48,-328.42 121.05,-310 104.01,-293.85 98.35,-266.94 96.58,-247.31"/>
<polygon fill="midnightblue" stroke="midnightblue" points="100.07,-247.04 95.95,-237.27 93.08,-247.47 100.07,-247.04"/>
</g>
<!-- Node2&#45;&gt;Node15 -->
<g id="edge19" class="edge">
<title>Node2&#45;&gt;Node15</title>
<path fill="none" stroke="midnightblue" d="M390.1,-346.48C425.81,-336.47 473.99,-322.97 511.81,-312.38"/>
<polygon fill="midnightblue" stroke="midnightblue" points="513,-315.68 521.68,-309.61 511.11,-308.94 513,-315.68"/>
</g>
<!-- Node16 -->
<g id="node16" class="node">
<title>Node16</title>
<g id="a_node16"><a xlink:href="event__logger__params_8h.html" target="_top" xlink:title="event_logger の各種設定 各パラメタ類の詳細は event_logger.h を参照すること">
<polygon fill="white" stroke="black" points="270.05,-279.5 270.05,-309.5 410.05,-309.5 410.05,-279.5 270.05,-279.5"/>
<text text-anchor="start" x="278.05" y="-297.5" font-family="Helvetica,sans-Serif" font-size="10.00">src_user/Settings/System</text>
<text text-anchor="middle" x="340.05" y="-286.5" font-family="Helvetica,sans-Serif" font-size="10.00">/event_logger_params.h</text>
</a>
</g>
</g>
<!-- Node2&#45;&gt;Node16 -->
<g id="edge20" class="edge">
<title>Node2&#45;&gt;Node16</title>
<path fill="none" stroke="midnightblue" d="M340.05,-346.4C340.05,-338.64 340.05,-328.81 340.05,-319.86"/>
<polygon fill="midnightblue" stroke="midnightblue" points="343.55,-319.58 340.05,-309.58 336.55,-319.58 343.55,-319.58"/>
</g>
<!-- Node5 -->
<g id="node5" class="node">
<title>Node5</title>
<g id="a_node5"><a xlink:href="sils__define_8h.html" target="_top" xlink:title="Switch the build settings between your real OBC and SILS">
<polygon fill="white" stroke="black" points="170.55,-0.5 170.55,-19.5 299.55,-19.5 299.55,-0.5 170.55,-0.5"/>
<text text-anchor="middle" x="235.05" y="-7.5" font-family="Helvetica,sans-Serif" font-size="10.00">../Settings/sils_define.h</text>
</a>
</g>
</g>
<!-- Node4&#45;&gt;Node5 -->
<g id="edge4" class="edge">
<title>Node4&#45;&gt;Node5</title>
<path fill="none" stroke="midnightblue" d="M235.05,-67.23C235.05,-57.68 235.05,-42.12 235.05,-29.78"/>
<polygon fill="midnightblue" stroke="midnightblue" points="238.55,-29.63 235.05,-19.63 231.55,-29.63 238.55,-29.63"/>
</g>
<!-- Node6&#45;&gt;Node7 -->
<g id="edge6" class="edge">
<title>Node6&#45;&gt;Node7</title>
<path fill="none" stroke="midnightblue" d="M171.82,-279.23C157.82,-268.85 138.67,-254.63 123.13,-243.1"/>
<polygon fill="midnightblue" stroke="midnightblue" points="125.03,-240.15 114.92,-237 120.86,-245.77 125.03,-240.15"/>
</g>
<!-- Node9 -->
<g id="node9" class="node">
<title>Node9</title>
<g id="a_node9"><a xlink:href="command__definitions_8h.html" target="_top" xlink:title="コマンド定義">
<polygon fill="white" stroke="black" points="407.55,-207 407.55,-237 560.55,-237 560.55,-207 407.55,-207"/>
<text text-anchor="start" x="415.55" y="-225" font-family="Helvetica,sans-Serif" font-size="10.00">src_user/TlmCmd/command</text>
<text text-anchor="middle" x="484.05" y="-214" font-family="Helvetica,sans-Serif" font-size="10.00">_definitions.h</text>
</a>
</g>
</g>
<!-- Node6&#45;&gt;Node9 -->
<g id="edge9" class="edge">
<title>Node6&#45;&gt;Node9</title>
<path fill="none" stroke="midnightblue" d="M249.28,-279.49C297.24,-267.95 365.31,-251.57 415.81,-239.42"/>
<polygon fill="midnightblue" stroke="midnightblue" points="416.76,-242.79 425.67,-237.05 415.13,-235.98 416.76,-242.79"/>
</g>
<!-- Node10 -->
<g id="node10" class="node">
<title>Node10</title>
<g id="a_node10"><a xlink:href="common__cmd__packet__define_8h.html" target="_top" xlink:title="CCP 型の定義">
<polygon fill="white" stroke="black" points="579.05,-207 579.05,-237 749.05,-237 749.05,-207 579.05,-207"/>
<text text-anchor="start" x="587.05" y="-225" font-family="Helvetica,sans-Serif" font-size="10.00">src_user/Settings/TlmCmd</text>
<text text-anchor="middle" x="664.05" y="-214" font-family="Helvetica,sans-Serif" font-size="10.00">/common_cmd_packet_define.h</text>
</a>
</g>
</g>
<!-- Node6&#45;&gt;Node10 -->
<g id="edge10" class="edge">
<title>Node6&#45;&gt;Node10</title>
<path fill="none" stroke="midnightblue" d="M252.07,-280.53C255.1,-279.99 258.11,-279.48 261.05,-279 397.1,-257 433.03,-265.22 569.05,-243 576.33,-241.81 583.91,-240.44 591.46,-238.99"/>
<polygon fill="midnightblue" stroke="midnightblue" points="592.21,-242.41 601.34,-237.04 590.86,-235.54 592.21,-242.41"/>
</g>
<!-- Node13 -->
<g id="node13" class="node">
<title>Node13</title>
<g id="a_node13"><a xlink:href="apid__define_8h.html" target="_top" xlink:title="CCSDS の APID を定義する">
<polygon fill="white" stroke="black" points="224.55,-140 224.55,-159 343.55,-159 343.55,-140 224.55,-140"/>
<text text-anchor="middle" x="284.05" y="-147" font-family="Helvetica,sans-Serif" font-size="10.00">./Ccsds/apid_define.h</text>
</a>
</g>
</g>
<!-- Node6&#45;&gt;Node13 -->
<g id="edge16" class="edge">
<title>Node6&#45;&gt;Node13</title>
<path fill="none" stroke="midnightblue" d="M190.76,-279.41C191.04,-260.13 193.97,-225.16 210.05,-201 220.82,-184.81 238.73,-172.39 254.23,-163.91"/>
<polygon fill="midnightblue" stroke="midnightblue" points="256.19,-166.84 263.48,-159.15 252.99,-160.62 256.19,-166.84"/>
</g>
<!-- Node14 -->
<g id="node14" class="node">
<title>Node14</title>
<g id="a_node14"><a xlink:href="timeline__command__dispatcher__define_8h.html" target="_top" xlink:title="timeline command dispatcher の各種定義">
<polygon fill="white" stroke="black" points="219.05,-201.5 219.05,-242.5 389.05,-242.5 389.05,-201.5 219.05,-201.5"/>
<text text-anchor="start" x="227.05" y="-230.5" font-family="Helvetica,sans-Serif" font-size="10.00">src_user/Settings/Applications</text>
<text text-anchor="start" x="227.05" y="-219.5" font-family="Helvetica,sans-Serif" font-size="10.00">/timeline_command_dispatcher</text>
<text text-anchor="middle" x="304.05" y="-208.5" font-family="Helvetica,sans-Serif" font-size="10.00">_define.h</text>
</a>
</g>
</g>
<!-- Node6&#45;&gt;Node14 -->
<g id="edge17" class="edge">
<title>Node6&#45;&gt;Node14</title>
<path fill="none" stroke="midnightblue" d="M213.64,-279.4C228.01,-270.44 247.02,-258.58 263.91,-248.04"/>
<polygon fill="midnightblue" stroke="midnightblue" points="265.87,-250.94 272.5,-242.68 262.17,-245 265.87,-250.94"/>
</g>
<!-- Node7&#45;&gt;Node4 -->
<g id="edge7" class="edge">
<title>Node7&#45;&gt;Node4</title>
<path fill="none" stroke="midnightblue" d="M121.27,-207C138.26,-196.78 160.51,-181.82 177.05,-165 197.87,-143.82 215.76,-114.18 225.97,-95.54"/>
<polygon fill="midnightblue" stroke="midnightblue" points="229.08,-97.15 230.7,-86.67 222.91,-93.85 229.08,-97.15"/>
</g>
<!-- Node8 -->
<g id="node8" class="node">
<title>Node8</title>
<g id="a_node8"><a xlink:href="obc__time__params_8h.html" target="_top" xlink:title="OBCTのCoreパラメタのオーバーライド用ヘッダー">
<polygon fill="white" stroke="black" points="28.05,-134.5 28.05,-164.5 168.05,-164.5 168.05,-134.5 28.05,-134.5"/>
<text text-anchor="start" x="36.05" y="-152.5" font-family="Helvetica,sans-Serif" font-size="10.00">src_user/Settings/System</text>
<text text-anchor="middle" x="98.05" y="-141.5" font-family="Helvetica,sans-Serif" font-size="10.00">/obc_time_params.h</text>
</a>
</g>
</g>
<!-- Node7&#45;&gt;Node8 -->
<g id="edge8" class="edge">
<title>Node7&#45;&gt;Node8</title>
<path fill="none" stroke="midnightblue" d="M96.45,-206.73C96.71,-197.56 97.06,-185.41 97.36,-174.74"/>
<polygon fill="midnightblue" stroke="midnightblue" points="100.86,-174.84 97.64,-164.75 93.86,-174.64 100.86,-174.84"/>
</g>
<!-- Node11 -->
<g id="node11" class="node">
<title>Node11</title>
<g id="a_node11"><a xlink:href="space__packet__typedef_8h.html" target="_top" xlink:title="SpacePacket 類 と CommonTlmCmdPacket 類が相互参照するのを回避するためのヘッダ">
<polygon fill="white" stroke="black" points="370.55,-134.5 370.55,-164.5 507.55,-164.5 507.55,-134.5 370.55,-134.5"/>
<text text-anchor="start" x="378.55" y="-152.5" font-family="Helvetica,sans-Serif" font-size="10.00">src_core/TlmCmd/Ccsds</text>
<text text-anchor="middle" x="439.05" y="-141.5" font-family="Helvetica,sans-Serif" font-size="10.00">/space_packet_typedef.h</text>
</a>
</g>
</g>
<!-- Node10&#45;&gt;Node11 -->
<g id="edge11" class="edge">
<title>Node10&#45;&gt;Node11</title>
<path fill="none" stroke="midnightblue" d="M619.32,-206.99C583.33,-195.71 532.56,-179.8 494.07,-167.74"/>
<polygon fill="midnightblue" stroke="midnightblue" points="494.66,-164.26 484.07,-164.61 492.56,-170.94 494.66,-164.26"/>
</g>
<!-- Node10&#45;&gt;Node13 -->
<g id="edge14" class="edge">
<title>Node10&#45;&gt;Node13</title>
<path fill="none" stroke="midnightblue" d="M598.95,-206.97C588.95,-204.91 578.73,-202.86 569.05,-201 476.91,-183.33 453.37,-181.68 361.05,-165 353.87,-163.7 346.32,-162.31 338.87,-160.93"/>
<polygon fill="midnightblue" stroke="midnightblue" points="339.29,-157.44 328.81,-159.05 338,-164.32 339.29,-157.44"/>
</g>
<!-- Node11&#45;&gt;Node4 -->
<g id="edge12" class="edge">
<title>Node11&#45;&gt;Node4</title>
<path fill="none" stroke="midnightblue" d="M398.25,-134.4C360.42,-121.33 304.75,-102.09 269.2,-89.8"/>
<polygon fill="midnightblue" stroke="midnightblue" points="270.33,-86.49 259.74,-86.53 268.05,-93.11 270.33,-86.49"/>
</g>
<!-- Node12 -->
<g id="node12" class="node">
<title>Node12</title>
<g id="a_node12"><a xlink:href="space__packet__typedef__params_8h.html" target="_top" xlink:title="SpacePacketの パケット型に関するユーザー設定">
<polygon fill="white" stroke="black" points="359.05,-56.5 359.05,-97.5 519.05,-97.5 519.05,-56.5 359.05,-56.5"/>
<text text-anchor="start" x="367.05" y="-85.5" font-family="Helvetica,sans-Serif" font-size="10.00">src_user/Settings/TlmCmd</text>
<text text-anchor="start" x="367.05" y="-74.5" font-family="Helvetica,sans-Serif" font-size="10.00">/Ccsds/space_packet_typedef</text>
<text text-anchor="middle" x="439.05" y="-63.5" font-family="Helvetica,sans-Serif" font-size="10.00">_params.h</text>
</a>
</g>
</g>
<!-- Node11&#45;&gt;Node12 -->
<g id="edge13" class="edge">
<title>Node11&#45;&gt;Node12</title>
<path fill="none" stroke="midnightblue" d="M439.05,-134.23C439.05,-126.57 439.05,-116.84 439.05,-107.63"/>
<polygon fill="midnightblue" stroke="midnightblue" points="442.55,-107.59 439.05,-97.59 435.55,-107.59 442.55,-107.59"/>
</g>
<!-- Node13&#45;&gt;Node4 -->
<g id="edge15" class="edge">
<title>Node13&#45;&gt;Node4</title>
<path fill="none" stroke="midnightblue" d="M278.04,-139.86C270.32,-128.76 256.76,-109.24 246.93,-95.09"/>
<polygon fill="midnightblue" stroke="midnightblue" points="249.68,-92.93 241.1,-86.72 243.94,-96.92 249.68,-92.93"/>
</g>
</g>
</svg>
