<?xml version="1.0" encoding="UTF-8" standalone="no"?>
<!DOCTYPE svg PUBLIC "-//W3C//DTD SVG 1.1//EN"
 "http://www.w3.org/Graphics/SVG/1.1/DTD/svg11.dtd">
<!-- Generated by graphviz version 2.43.0 (0)
 -->
<!-- Title: EL_check_tlog_wp_ Pages: 1 -->
<svg width="762pt" height="196pt"
 viewBox="0.00 0.00 762.00 195.90" xmlns="http://www.w3.org/2000/svg" xmlns:xlink="http://www.w3.org/1999/xlink">
<g id="graph0" class="graph" transform="scale(1 1) rotate(0) translate(4 191.9)">
<title>EL_check_tlog_wp_</title>
<polygon fill="white" stroke="transparent" points="-4,4 -4,-191.9 758,-191.9 758,4 -4,4"/>
<!-- Node1 -->
<g id="node1" class="node">
<title>Node1</title>
<g id="a_node1"><a xlink:title="TLog の wp をチェックし， event を生成する">
<polygon fill="#bfbfbf" stroke="black" points="0,-85.4 0,-104.4 110,-104.4 110,-85.4 0,-85.4"/>
<text text-anchor="middle" x="55" y="-92.4" font-family="Helvetica,sans-Serif" font-size="10.00">EL_check_tlog_wp_</text>
</a>
</g>
</g>
<!-- Node2 -->
<g id="node2" class="node">
<title>Node2</title>
<g id="a_node2"><a xlink:href="event__logger_8c.html#a80a1b60c587d1e3402b02e3bde1db899" target="_top" xlink:title="イベント (EL_Event) を記録">
<polygon fill="white" stroke="black" points="146,-85.4 146,-104.4 248,-104.4 248,-85.4 146,-85.4"/>
<text text-anchor="middle" x="197" y="-92.4" font-family="Helvetica,sans-Serif" font-size="10.00">EL_record_event_</text>
</a>
</g>
</g>
<!-- Node1&#45;&gt;Node2 -->
<g id="edge1" class="edge">
<title>Node1&#45;&gt;Node2</title>
<path fill="none" stroke="midnightblue" d="M110.13,-88.31C118.44,-88.14 127.07,-88.11 135.52,-88.21"/>
<polygon fill="midnightblue" stroke="midnightblue" points="135.62,-91.71 145.69,-88.39 135.75,-84.71 135.62,-91.71"/>
</g>
<!-- Node2&#45;&gt;Node1 -->
<g id="edge2" class="edge">
<title>Node2&#45;&gt;Node1</title>
<path fill="none" stroke="midnightblue" d="M145.69,-101.41C137.48,-101.62 128.88,-101.69 120.39,-101.63"/>
<polygon fill="midnightblue" stroke="midnightblue" points="120.17,-98.13 110.13,-101.49 120.08,-105.13 120.17,-98.13"/>
</g>
<!-- Node3 -->
<g id="node3" class="node">
<title>Node3</title>
<g id="a_node3"><a xlink:href="event__logger_8c.html#a0b42c2f5d1eafdad83481ec6e63365e2" target="_top" xlink:title="イベント (EL_Event) を初期化">
<polygon fill="white" stroke="black" points="301,-167.4 301,-186.4 388,-186.4 388,-167.4 301,-167.4"/>
<text text-anchor="middle" x="344.5" y="-174.4" font-family="Helvetica,sans-Serif" font-size="10.00">EL_init_event_</text>
</a>
</g>
</g>
<!-- Node2&#45;&gt;Node3 -->
<g id="edge3" class="edge">
<title>Node2&#45;&gt;Node3</title>
<path fill="none" stroke="midnightblue" d="M208.65,-104.49C224.19,-118.06 254.47,-142.88 284,-157.9 288.3,-160.09 292.91,-162.09 297.58,-163.91"/>
<polygon fill="midnightblue" stroke="midnightblue" points="296.6,-167.27 307.2,-167.37 298.98,-160.69 296.6,-167.27"/>
</g>
<!-- Node6 -->
<g id="node6" class="node">
<title>Node6</title>
<g id="a_node6"><a xlink:href="event__logger_8c.html#a50ba2fe43a96f7351951a4109227ba6f" target="_top" xlink:title="event_logger の EL_Event.group が有効か？">
<polygon fill="white" stroke="black" points="284,-129.4 284,-148.4 405,-148.4 405,-129.4 284,-129.4"/>
<text text-anchor="middle" x="344.5" y="-136.4" font-family="Helvetica,sans-Serif" font-size="10.00">EL_is_logging_enable</text>
</a>
</g>
</g>
<!-- Node2&#45;&gt;Node6 -->
<g id="edge6" class="edge">
<title>Node2&#45;&gt;Node6</title>
<path fill="none" stroke="midnightblue" d="M229.57,-104.45C250.83,-110.88 279.09,-119.42 302.14,-126.39"/>
<polygon fill="midnightblue" stroke="midnightblue" points="301.41,-129.83 311.99,-129.37 303.43,-123.13 301.41,-129.83"/>
</g>
<!-- Node7 -->
<g id="node7" class="node">
<title>Node7</title>
<g id="a_node7"><a xlink:href="event__logger_8c.html#a69fb9dbc85ad467d048f1c9f31d2442c" target="_top" xlink:title="イベント (EL_Event) を CLog に記録">
<polygon fill="white" stroke="black" points="288.5,-79.9 288.5,-109.9 400.5,-109.9 400.5,-79.9 288.5,-79.9"/>
<text text-anchor="start" x="296.5" y="-97.9" font-family="Helvetica,sans-Serif" font-size="10.00">EL_record_event_to</text>
<text text-anchor="middle" x="344.5" y="-86.9" font-family="Helvetica,sans-Serif" font-size="10.00">_clog_</text>
</a>
</g>
</g>
<!-- Node2&#45;&gt;Node7 -->
<g id="edge7" class="edge">
<title>Node2&#45;&gt;Node7</title>
<path fill="none" stroke="midnightblue" d="M248.07,-94.9C257.81,-94.9 268.16,-94.9 278.3,-94.9"/>
<polygon fill="midnightblue" stroke="midnightblue" points="278.35,-98.4 288.35,-94.9 278.35,-91.4 278.35,-98.4"/>
</g>
<!-- Node12 -->
<g id="node12" class="node">
<title>Node12</title>
<g id="a_node12"><a xlink:href="event__logger_8c.html#a93cb3659efd373de0856c92b3c08896a" target="_top" xlink:title="イベント (EL_Event) を TLog に記録">
<polygon fill="white" stroke="black" points="288.5,-30.9 288.5,-60.9 400.5,-60.9 400.5,-30.9 288.5,-30.9"/>
<text text-anchor="start" x="296.5" y="-48.9" font-family="Helvetica,sans-Serif" font-size="10.00">EL_record_event_to</text>
<text text-anchor="middle" x="344.5" y="-37.9" font-family="Helvetica,sans-Serif" font-size="10.00">_tlog_</text>
</a>
</g>
</g>
<!-- Node2&#45;&gt;Node12 -->
<g id="edge13" class="edge">
<title>Node2&#45;&gt;Node12</title>
<path fill="none" stroke="midnightblue" d="M226.4,-85.34C244.26,-79.32 267.88,-71.37 289.23,-64.18"/>
<polygon fill="midnightblue" stroke="midnightblue" points="290.49,-67.45 298.85,-60.94 288.26,-60.81 290.49,-67.45"/>
</g>
<!-- Node4 -->
<g id="node4" class="node">
<title>Node4</title>
<g id="a_node4"><a xlink:href="time__manager_8c.html#a9d04b4d9b622cbe5a90cf65e58b828bc" target="_top" xlink:title=" ">
<polygon fill="white" stroke="black" points="441,-168.4 441,-187.4 578,-187.4 578,-168.4 441,-168.4"/>
<text text-anchor="middle" x="509.5" y="-175.4" font-family="Helvetica,sans-Serif" font-size="10.00">TMGR_get_master_clock</text>
</a>
</g>
</g>
<!-- Node3&#45;&gt;Node4 -->
<g id="edge4" class="edge">
<title>Node3&#45;&gt;Node4</title>
<path fill="none" stroke="midnightblue" d="M388.33,-177.16C401.35,-177.24 416.1,-177.33 430.69,-177.42"/>
<polygon fill="midnightblue" stroke="midnightblue" points="430.72,-180.92 440.74,-177.48 430.76,-173.92 430.72,-180.92"/>
</g>
<!-- Node5 -->
<g id="node5" class="node">
<title>Node5</title>
<g id="a_node5"><a xlink:href="obc__time_8c.html#a70416835a40bdacbb04f6f06b1e6d1e1" target="_top" xlink:title=" ">
<polygon fill="white" stroke="black" points="644,-168.4 644,-187.4 724,-187.4 724,-168.4 644,-168.4"/>
<text text-anchor="middle" x="684" y="-175.4" font-family="Helvetica,sans-Serif" font-size="10.00">OBCT_create</text>
</a>
</g>
</g>
<!-- Node4&#45;&gt;Node5 -->
<g id="edge5" class="edge">
<title>Node4&#45;&gt;Node5</title>
<path fill="none" stroke="midnightblue" d="M578.18,-177.9C596.63,-177.9 616.27,-177.9 633.5,-177.9"/>
<polygon fill="midnightblue" stroke="midnightblue" points="633.88,-181.4 643.88,-177.9 633.88,-174.4 633.88,-181.4"/>
</g>
<!-- Node8 -->
<g id="node8" class="node">
<title>Node8</title>
<g id="a_node8"><a xlink:href="event__logger_8c.html#a605a3ff223ddae8830c09ff5aa57cc94" target="_top" xlink:title="該当イベントの CLog を，イベントテーブルの先頭に出す">
<polygon fill="white" stroke="black" points="450,-118.9 450,-148.9 569,-148.9 569,-118.9 450,-118.9"/>
<text text-anchor="start" x="458" y="-136.9" font-family="Helvetica,sans-Serif" font-size="10.00">EL_move_to_front_in</text>
<text text-anchor="middle" x="509.5" y="-125.9" font-family="Helvetica,sans-Serif" font-size="10.00">_clog_</text>
</a>
</g>
</g>
<!-- Node7&#45;&gt;Node8 -->
<g id="edge8" class="edge">
<title>Node7&#45;&gt;Node8</title>
<path fill="none" stroke="midnightblue" d="M400.68,-108.1C413.27,-111.12 426.79,-114.35 439.86,-117.48"/>
<polygon fill="midnightblue" stroke="midnightblue" points="439.21,-120.92 449.75,-119.84 440.84,-114.11 439.21,-120.92"/>
</g>
<!-- Node11 -->
<g id="node11" class="node">
<title>Node11</title>
<g id="a_node11"><a xlink:href="obc__time_8c.html#a02512f745375636ab21f468838587942" target="_top" xlink:title=" ">
<polygon fill="white" stroke="black" points="477,-80.4 477,-99.4 542,-99.4 542,-80.4 477,-80.4"/>
<text text-anchor="middle" x="509.5" y="-87.4" font-family="Helvetica,sans-Serif" font-size="10.00">OBCT_diff</text>
</a>
</g>
</g>
<!-- Node7&#45;&gt;Node11 -->
<g id="edge12" class="edge">
<title>Node7&#45;&gt;Node11</title>
<path fill="none" stroke="midnightblue" d="M400.68,-93.21C422.23,-92.55 446.53,-91.8 466.6,-91.19"/>
<polygon fill="midnightblue" stroke="midnightblue" points="466.78,-94.68 476.67,-90.88 466.57,-87.69 466.78,-94.68"/>
</g>
<!-- Node9 -->
<g id="node9" class="node">
<title>Node9</title>
<g id="a_node9"><a xlink:href="event__logger_8c.html#a60dac03ee61b8b3fb3ac6335babb7209" target="_top" xlink:title="イベントテーブル先頭に該当イベントの CLog をつくる">
<polygon fill="white" stroke="black" points="614,-39.4 614,-58.4 754,-58.4 754,-39.4 614,-39.4"/>
<text text-anchor="middle" x="684" y="-46.4" font-family="Helvetica,sans-Serif" font-size="10.00">EL_create_clog_on_front_</text>
</a>
</g>
</g>
<!-- Node8&#45;&gt;Node9 -->
<g id="edge9" class="edge">
<title>Node8&#45;&gt;Node9</title>
<path fill="none" stroke="midnightblue" d="M554.5,-118.8C562.42,-115.74 570.53,-112.39 578,-108.9 607,-95.36 638.69,-76.67 659.59,-63.76"/>
<polygon fill="midnightblue" stroke="midnightblue" points="661.48,-66.71 668.11,-58.45 657.78,-60.77 661.48,-66.71"/>
</g>
<!-- Node10 -->
<g id="node10" class="node">
<title>Node10</title>
<g id="a_node10"><a xlink:href="event__logger_8c.html#a987cce8c848158cc3038bb59dc100de3" target="_top" xlink:title="該当イベントの CLog を検索し取得する">
<polygon fill="white" stroke="black" points="636,-124.4 636,-143.4 732,-143.4 732,-124.4 636,-124.4"/>
<text text-anchor="middle" x="684" y="-131.4" font-family="Helvetica,sans-Serif" font-size="10.00">EL_search_clog_</text>
</a>
</g>
</g>
<!-- Node8&#45;&gt;Node10 -->
<g id="edge11" class="edge">
<title>Node8&#45;&gt;Node10</title>
<path fill="none" stroke="midnightblue" d="M569.38,-133.9C587.58,-133.9 607.59,-133.9 625.68,-133.9"/>
<polygon fill="midnightblue" stroke="midnightblue" points="625.79,-137.4 635.79,-133.9 625.79,-130.4 625.79,-137.4"/>
</g>
<!-- Node9&#45;&gt;Node2 -->
<g id="edge10" class="edge">
<title>Node9&#45;&gt;Node2</title>
<path fill="none" stroke="midnightblue" d="M654.8,-39.35C587.97,-18.32 415.65,26.44 284,-21.9 254.14,-32.86 227.55,-59.3 212.1,-77.16"/>
<polygon fill="midnightblue" stroke="midnightblue" points="209.17,-75.22 205.45,-85.14 214.54,-79.7 209.17,-75.22"/>
</g>
<!-- Node13 -->
<g id="node13" class="node">
<title>Node13</title>
<g id="a_node13"><a xlink:href="event__logger_8c.html#af088469f27d5dfca608a9cacee9fbc17" target="_top" xlink:title="TLog のイベントテーブルの上書きが有効か？">
<polygon fill="white" stroke="black" points="451,-30.9 451,-60.9 568,-60.9 568,-30.9 451,-30.9"/>
<text text-anchor="start" x="459" y="-48.9" font-family="Helvetica,sans-Serif" font-size="10.00">EL_is_tlog_overwrite</text>
<text text-anchor="middle" x="509.5" y="-37.9" font-family="Helvetica,sans-Serif" font-size="10.00">_enable</text>
</a>
</g>
</g>
<!-- Node12&#45;&gt;Node13 -->
<g id="edge14" class="edge">
<title>Node12&#45;&gt;Node13</title>
<path fill="none" stroke="midnightblue" d="M400.68,-45.9C413.56,-45.9 427.43,-45.9 440.78,-45.9"/>
<polygon fill="midnightblue" stroke="midnightblue" points="440.87,-49.4 450.87,-45.9 440.87,-42.4 440.87,-49.4"/>
</g>
</g>
</svg>
