<?xml version="1.0" encoding="UTF-8" standalone="no"?>
<!DOCTYPE svg PUBLIC "-//W3C//DTD SVG 1.1//EN"
 "http://www.w3.org/Graphics/SVG/1.1/DTD/svg11.dtd">
<!-- Generated by graphviz version 2.43.0 (0)
 -->
<!-- Title: EL_enable_tlog_overwrite Pages: 1 -->
<svg width="1339pt" height="132pt"
 viewBox="0.00 0.00 1339.00 131.50" xmlns="http://www.w3.org/2000/svg" xmlns:xlink="http://www.w3.org/1999/xlink">
<g id="graph0" class="graph" transform="scale(1 1) rotate(0) translate(4 127.5)">
<title>EL_enable_tlog_overwrite</title>
<polygon fill="white" stroke="transparent" points="-4,4 -4,-127.5 1335,-127.5 1335,4 -4,4"/>
<!-- Node1 -->
<g id="node1" class="node">
<title>Node1</title>
<g id="a_node1"><a xlink:title="TLog のイベントテーブルの上書きを有効化">
<polygon fill="#bfbfbf" stroke="black" points="1189,-76.5 1189,-95.5 1331,-95.5 1331,-76.5 1189,-76.5"/>
<text text-anchor="middle" x="1260" y="-83.5" font-family="Helvetica,sans-Serif" font-size="10.00">EL_enable_tlog_overwrite</text>
</a>
</g>
</g>
<!-- Node2 -->
<g id="node2" class="node">
<title>Node2</title>
<g id="a_node2"><a xlink:href="event__logger_8h.html#ae6339fa6a199f0b9f13375be67988aa5" target="_top" xlink:title=" ">
<polygon fill="white" stroke="black" points="1008,-93 1008,-123 1139,-123 1139,-93 1008,-93"/>
<text text-anchor="start" x="1016" y="-111" font-family="Helvetica,sans-Serif" font-size="10.00">Cmd_EL_ENABLE_TLOG</text>
<text text-anchor="middle" x="1073.5" y="-100" font-family="Helvetica,sans-Serif" font-size="10.00">_OVERWRITE</text>
</a>
</g>
</g>
<!-- Node1&#45;&gt;Node2 -->
<g id="edge1" class="edge">
<title>Node1&#45;&gt;Node2</title>
<path fill="none" stroke="midnightblue" d="M1178.88,-95.55C1165.55,-97.14 1151.88,-98.77 1139,-100.31"/>
<polygon fill="midnightblue" stroke="midnightblue" points="1179.47,-99.01 1188.99,-94.35 1178.64,-92.06 1179.47,-99.01"/>
</g>
<!-- Node9 -->
<g id="node9" class="node">
<title>Node9</title>
<g id="a_node9"><a xlink:href="event__logger_8h.html#ac5e9c3b7d0def1c166f028712b351a0e" target="_top" xlink:title="TLog のイベントテーブルの上書きをすべて有効化">
<polygon fill="white" stroke="black" points="994,-54.5 994,-73.5 1153,-73.5 1153,-54.5 994,-54.5"/>
<text text-anchor="middle" x="1073.5" y="-61.5" font-family="Helvetica,sans-Serif" font-size="10.00">EL_enable_tlog_overwrite_all</text>
</a>
</g>
</g>
<!-- Node1&#45;&gt;Node9 -->
<g id="edge8" class="edge">
<title>Node1&#45;&gt;Node9</title>
<path fill="none" stroke="midnightblue" d="M1178.99,-76.46C1170.41,-75.44 1161.68,-74.4 1153.11,-73.37"/>
<polygon fill="midnightblue" stroke="midnightblue" points="1178.64,-79.94 1188.99,-77.65 1179.47,-72.99 1178.64,-79.94"/>
</g>
<!-- Node3 -->
<g id="node3" class="node">
<title>Node3</title>
<g id="a_node3"><a xlink:href="command__definitions_8c.html#aa375895192b16d8e7f0ff4545b54e6c4" target="_top" xlink:title="Cmd Tableのロード">
<polygon fill="white" stroke="black" points="562,-54.5 562,-73.5 675,-73.5 675,-54.5 562,-54.5"/>
<text text-anchor="middle" x="618.5" y="-61.5" font-family="Helvetica,sans-Serif" font-size="10.00">CA_load_cmd_table</text>
</a>
</g>
</g>
<!-- Node2&#45;&gt;Node3 -->
<g id="edge2" class="edge">
<title>Node2&#45;&gt;Node3</title>
<path fill="none" stroke="midnightblue" d="M997.64,-103.56C924.4,-98.8 809.79,-90.23 711,-78 699.36,-76.56 686.91,-74.8 675.07,-73.02"/>
<polygon fill="midnightblue" stroke="midnightblue" points="997.48,-107.06 1007.69,-104.2 997.93,-100.07 997.48,-107.06"/>
</g>
<!-- Node4 -->
<g id="node4" class="node">
<title>Node4</title>
<g id="a_node4"><a xlink:href="command__analyze_8h.html#ae6d1f376bf4e1c9c4b63bc3f04924c8a" target="_top" xlink:title="CA の初期化">
<polygon fill="white" stroke="black" points="449,-52.5 449,-71.5 526,-71.5 526,-52.5 449,-52.5"/>
<text text-anchor="middle" x="487.5" y="-59.5" font-family="Helvetica,sans-Serif" font-size="10.00">CA_initialize</text>
</a>
</g>
</g>
<!-- Node3&#45;&gt;Node4 -->
<g id="edge3" class="edge">
<title>Node3&#45;&gt;Node4</title>
<path fill="none" stroke="midnightblue" d="M551.5,-62.98C542.82,-62.84 534.17,-62.71 526.19,-62.58"/>
<polygon fill="midnightblue" stroke="midnightblue" points="551.62,-66.48 561.67,-63.13 551.72,-59.48 551.62,-66.48"/>
</g>
<!-- Node5 -->
<g id="node5" class="node">
<title>Node5</title>
<g id="a_node5"><a xlink:href="c2a__core__main_8h.html#a65ecdc63d8762ffde4db7f6c6e6f07cf" target="_top" xlink:title=" ">
<polygon fill="white" stroke="black" points="330,-28.5 330,-47.5 413,-47.5 413,-28.5 330,-28.5"/>
<text text-anchor="middle" x="371.5" y="-35.5" font-family="Helvetica,sans-Serif" font-size="10.00">C2A_core_init</text>
</a>
</g>
</g>
<!-- Node4&#45;&gt;Node5 -->
<g id="edge4" class="edge">
<title>Node4&#45;&gt;Node5</title>
<path fill="none" stroke="midnightblue" d="M438.99,-52C430.44,-50.2 421.59,-48.33 413.24,-46.58"/>
<polygon fill="midnightblue" stroke="midnightblue" points="438.35,-55.44 448.86,-54.07 439.79,-48.59 438.35,-55.44"/>
</g>
<!-- Node6 -->
<g id="node6" class="node">
<title>Node6</title>
<g id="a_node6"><a xlink:href="c2a__main_8c.html#a630222a80cd8bffd4426d4a55a215069" target="_top" xlink:title=" ">
<polygon fill="white" stroke="black" points="232,-28.5 232,-47.5 294,-47.5 294,-28.5 232,-28.5"/>
<text text-anchor="middle" x="263" y="-35.5" font-family="Helvetica,sans-Serif" font-size="10.00">C2A_init_</text>
</a>
</g>
</g>
<!-- Node5&#45;&gt;Node6 -->
<g id="edge5" class="edge">
<title>Node5&#45;&gt;Node6</title>
<path fill="none" stroke="midnightblue" d="M319.76,-38C311.01,-38 302.17,-38 294.18,-38"/>
<polygon fill="midnightblue" stroke="midnightblue" points="319.93,-41.5 329.93,-38 319.93,-34.5 319.93,-41.5"/>
</g>
<!-- Node7 -->
<g id="node7" class="node">
<title>Node7</title>
<g id="a_node7"><a xlink:href="c2a__main_8c.html#ac3344a311adda8f9e7310924bedf81fc" target="_top" xlink:title=" ">
<polygon fill="white" stroke="black" points="77,-28.5 77,-47.5 196,-47.5 196,-28.5 77,-28.5"/>
<text text-anchor="middle" x="136.5" y="-35.5" font-family="Helvetica,sans-Serif" font-size="10.00">address_fixed_main_</text>
</a>
</g>
</g>
<!-- Node6&#45;&gt;Node7 -->
<g id="edge6" class="edge">
<title>Node6&#45;&gt;Node7</title>
<path fill="none" stroke="midnightblue" d="M221.83,-38C213.62,-38 204.82,-38 196.12,-38"/>
<polygon fill="midnightblue" stroke="midnightblue" points="221.86,-41.5 231.86,-38 221.86,-34.5 221.86,-41.5"/>
</g>
<!-- Node8 -->
<g id="node8" class="node">
<title>Node8</title>
<g id="a_node8"><a xlink:href="c2a__main_8c.html#a6288eba0f8e8ad3ab1544ad731eb7667" target="_top" xlink:title=" ">
<polygon fill="white" stroke="black" points="0,-28.5 0,-47.5 41,-47.5 41,-28.5 0,-28.5"/>
<text text-anchor="middle" x="20.5" y="-35.5" font-family="Helvetica,sans-Serif" font-size="10.00">main</text>
</a>
</g>
</g>
<!-- Node7&#45;&gt;Node8 -->
<g id="edge7" class="edge">
<title>Node7&#45;&gt;Node8</title>
<path fill="none" stroke="midnightblue" d="M66.64,-38C57.37,-38 48.53,-38 41.18,-38"/>
<polygon fill="midnightblue" stroke="midnightblue" points="66.83,-41.5 76.83,-38 66.83,-34.5 66.83,-41.5"/>
</g>
<!-- Node10 -->
<g id="node10" class="node">
<title>Node10</title>
<g id="a_node10"><a xlink:href="event__logger_8h.html#a6fc7966341692781ce685743c6eb7261" target="_top" xlink:title=" ">
<polygon fill="white" stroke="black" points="827,-49 827,-79 958,-79 958,-49 827,-49"/>
<text text-anchor="start" x="835" y="-67" font-family="Helvetica,sans-Serif" font-size="10.00">Cmd_EL_ENABLE_TLOG</text>
<text text-anchor="middle" x="892.5" y="-56" font-family="Helvetica,sans-Serif" font-size="10.00">_OVERWRITE_ALL</text>
</a>
</g>
</g>
<!-- Node9&#45;&gt;Node10 -->
<g id="edge9" class="edge">
<title>Node9&#45;&gt;Node10</title>
<path fill="none" stroke="midnightblue" d="M983.88,-64C975.25,-64 966.6,-64 958.27,-64"/>
<polygon fill="midnightblue" stroke="midnightblue" points="983.99,-67.5 993.99,-64 983.99,-60.5 983.99,-67.5"/>
</g>
<!-- Node11 -->
<g id="node11" class="node">
<title>Node11</title>
<g id="a_node11"><a xlink:href="event__logger_8h.html#a5b3f522390f30515e9561d47da40bcec" target="_top" xlink:title="event_logger の初期化">
<polygon fill="white" stroke="black" points="855,-10.5 855,-29.5 930,-29.5 930,-10.5 855,-10.5"/>
<text text-anchor="middle" x="892.5" y="-17.5" font-family="Helvetica,sans-Serif" font-size="10.00">EL_initialize</text>
</a>
</g>
</g>
<!-- Node9&#45;&gt;Node11 -->
<g id="edge11" class="edge">
<title>Node9&#45;&gt;Node11</title>
<path fill="none" stroke="midnightblue" d="M1023.56,-51.97C994.06,-44.72 957.1,-35.63 930.13,-29"/>
<polygon fill="midnightblue" stroke="midnightblue" points="1023.11,-55.46 1033.66,-54.45 1024.78,-48.67 1023.11,-55.46"/>
</g>
<!-- Node10&#45;&gt;Node3 -->
<g id="edge10" class="edge">
<title>Node10&#45;&gt;Node3</title>
<path fill="none" stroke="midnightblue" d="M816.45,-64C771.71,-64 715.86,-64 675.08,-64"/>
<polygon fill="midnightblue" stroke="midnightblue" points="816.69,-67.5 826.69,-64 816.69,-60.5 816.69,-67.5"/>
</g>
<!-- Node12 -->
<g id="node12" class="node">
<title>Node12</title>
<g id="a_node12"><a xlink:href="event__logger_8h.html#a4bc99703dc430e6b9ed9243bdc718238" target="_top" xlink:title=" ">
<polygon fill="white" stroke="black" points="711,-19.5 711,-38.5 791,-38.5 791,-19.5 711,-19.5"/>
<text text-anchor="middle" x="751" y="-26.5" font-family="Helvetica,sans-Serif" font-size="10.00">Cmd_EL_INIT</text>
</a>
</g>
</g>
<!-- Node11&#45;&gt;Node12 -->
<g id="edge12" class="edge">
<title>Node11&#45;&gt;Node12</title>
<path fill="none" stroke="midnightblue" d="M844.42,-23.04C827.17,-24.15 807.84,-25.4 791.34,-26.46"/>
<polygon fill="midnightblue" stroke="midnightblue" points="845.09,-26.5 854.85,-22.36 844.64,-19.52 845.09,-26.5"/>
</g>
<!-- Node13 -->
<g id="node13" class="node">
<title>Node13</title>
<g id="a_node13"><a xlink:href="event__manager_8h.html#ab1482d1d3615e189486d853e1f0209dd" target="_top" xlink:title="event_manager の初期化">
<polygon fill="white" stroke="black" points="579,-0.5 579,-19.5 658,-19.5 658,-0.5 579,-0.5"/>
<text text-anchor="middle" x="618.5" y="-7.5" font-family="Helvetica,sans-Serif" font-size="10.00">EM_initialize</text>
</a>
</g>
</g>
<!-- Node11&#45;&gt;Node13 -->
<g id="edge14" class="edge">
<title>Node11&#45;&gt;Node13</title>
<path fill="none" stroke="midnightblue" d="M844.64,-14.36C827.76,-12.59 808.55,-10.87 791,-10 745.35,-7.73 692.79,-8.19 658.01,-8.91"/>
<polygon fill="midnightblue" stroke="midnightblue" points="844.49,-17.87 854.81,-15.47 845.25,-10.91 844.49,-17.87"/>
</g>
<!-- Node12&#45;&gt;Node3 -->
<g id="edge13" class="edge">
<title>Node12&#45;&gt;Node3</title>
<path fill="none" stroke="midnightblue" d="M704.53,-41.19C688.34,-45.54 670.36,-50.36 655.12,-54.45"/>
<polygon fill="midnightblue" stroke="midnightblue" points="705.59,-44.53 714.34,-38.56 703.77,-37.77 705.59,-44.53"/>
</g>
<!-- Node13&#45;&gt;Node5 -->
<g id="edge15" class="edge">
<title>Node13&#45;&gt;Node5</title>
<path fill="none" stroke="midnightblue" d="M569.01,-15.54C523.48,-20.75 456.11,-28.44 413.27,-33.34"/>
<polygon fill="midnightblue" stroke="midnightblue" points="569.41,-19.02 578.95,-14.41 568.62,-12.06 569.41,-19.02"/>
</g>
</g>
</svg>
