<?xml version="1.0" encoding="UTF-8" standalone="no"?>
<!DOCTYPE svg PUBLIC "-//W3C//DTD SVG 1.1//EN"
 "http://www.w3.org/Graphics/SVG/1.1/DTD/svg11.dtd">
<!-- Generated by graphviz version 2.43.0 (0)
 -->
<!-- Title: EH_check_higher_level_rule_and_respond_ Pages: 1 -->
<svg width="1879pt" height="774pt"
 viewBox="0.00 0.00 1879.00 774.38" xmlns="http://www.w3.org/2000/svg" xmlns:xlink="http://www.w3.org/1999/xlink">
<g id="graph0" class="graph" transform="scale(1 1) rotate(0) translate(4 770.38)">
<title>EH_check_higher_level_rule_and_respond_</title>
<polygon fill="white" stroke="transparent" points="-4,4 -4,-770.38 1875,-770.38 1875,4 -4,4"/>
<!-- Node1 -->
<g id="node1" class="node">
<title>Node1</title>
<g id="a_node1"><a xlink:title="上位の EH の対応条件をチェックし，対応する">
<polygon fill="#bfbfbf" stroke="black" points="0,-625 0,-655 129,-655 129,-625 0,-625"/>
<text text-anchor="start" x="8" y="-643" font-family="Helvetica,sans-Serif" font-size="10.00">EH_check_higher_level</text>
<text text-anchor="middle" x="64.5" y="-632" font-family="Helvetica,sans-Serif" font-size="10.00">_rule_and_respond_</text>
</a>
</g>
</g>
<!-- Node2 -->
<g id="node2" class="node">
<title>Node2</title>
<g id="a_node2"><a xlink:href="event__handler_8c.html#a227ed3b7079c58dee50a81ce408549a2" target="_top" xlink:title="EL_Event に対応する EH_Rule が存在するかチェックし，対応する">
<polygon fill="white" stroke="black" points="165,-650 165,-680 285,-680 285,-650 165,-650"/>
<text text-anchor="start" x="173" y="-668" font-family="Helvetica,sans-Serif" font-size="10.00">EH_check_event_and</text>
<text text-anchor="middle" x="225" y="-657" font-family="Helvetica,sans-Serif" font-size="10.00">_respond_</text>
</a>
</g>
</g>
<!-- Node1&#45;&gt;Node2 -->
<g id="edge1" class="edge">
<title>Node1&#45;&gt;Node2</title>
<path fill="none" stroke="midnightblue" d="M129.05,-650.02C137.54,-651.36 146.27,-652.74 154.84,-654.09"/>
<polygon fill="midnightblue" stroke="midnightblue" points="154.38,-657.56 164.8,-655.66 155.47,-650.65 154.38,-657.56"/>
</g>
<!-- Node16 -->
<g id="node16" class="node">
<title>Node16</title>
<g id="a_node16"><a xlink:href="event__logger_8c.html#a25a74a48375dfc1f3f80be68e0ac00ea" target="_top" xlink:title="イベント (EL_Event) を記録">
<polygon fill="white" stroke="black" points="1076.5,-449.5 1076.5,-468.5 1173.5,-468.5 1173.5,-449.5 1076.5,-449.5"/>
<text text-anchor="middle" x="1125" y="-456.5" font-family="Helvetica,sans-Serif" font-size="10.00">EL_record_event</text>
</a>
</g>
</g>
<!-- Node1&#45;&gt;Node16 -->
<g id="edge67" class="edge">
<title>Node1&#45;&gt;Node16</title>
<path fill="none" stroke="midnightblue" d="M90.99,-655.01C145.71,-685.74 279.28,-753 400.5,-753 400.5,-753 400.5,-753 781.5,-753 893.24,-753 948.96,-797.87 1031,-722 1089.62,-667.79 1036.58,-619.82 1067,-546 1077.72,-519.98 1096.51,-493.4 1109.57,-476.59"/>
<polygon fill="midnightblue" stroke="midnightblue" points="1112.33,-478.74 1115.81,-468.74 1106.85,-474.39 1112.33,-478.74"/>
</g>
<!-- Node109 -->
<g id="node50" class="node">
<title>Node109</title>
<g id="a_node50"><a xlink:href="event__logger_8c.html#a7fdaa66af22854e97bb22c6fecf33ad8" target="_top" xlink:title="TLog のイベントテーブルの最新からn番目のイベントを取得">
<polygon fill="white" stroke="black" points="167.5,-601 167.5,-631 282.5,-631 282.5,-601 167.5,-601"/>
<text text-anchor="start" x="175.5" y="-619" font-family="Helvetica,sans-Serif" font-size="10.00">EL_get_the_nth_tlog</text>
<text text-anchor="middle" x="225" y="-608" font-family="Helvetica,sans-Serif" font-size="10.00">_from_the_latest</text>
</a>
</g>
</g>
<!-- Node1&#45;&gt;Node109 -->
<g id="edge66" class="edge">
<title>Node1&#45;&gt;Node109</title>
<path fill="none" stroke="midnightblue" d="M129.05,-630.38C138.35,-628.97 147.95,-627.52 157.31,-626.1"/>
<polygon fill="midnightblue" stroke="midnightblue" points="157.98,-629.54 167.34,-624.58 156.93,-622.62 157.98,-629.54"/>
</g>
<!-- Node3 -->
<g id="node3" class="node">
<title>Node3</title>
<g id="a_node3"><a xlink:href="event__handler_8c.html#ac7461e79109f06783e2c620a6d999a6b" target="_top" xlink:title="EH の対応条件をチェックし， EL_Event に対応する">
<polygon fill="white" stroke="black" points="321,-540.5 321,-559.5 482,-559.5 482,-540.5 321,-540.5"/>
<text text-anchor="middle" x="401.5" y="-547.5" font-family="Helvetica,sans-Serif" font-size="10.00">EH_check_rule_and_respond_</text>
</a>
</g>
</g>
<!-- Node2&#45;&gt;Node3 -->
<g id="edge2" class="edge">
<title>Node2&#45;&gt;Node3</title>
<path fill="none" stroke="midnightblue" d="M265.42,-649.99C272.11,-646.97 278.86,-643.61 285,-640 322.12,-618.18 360.68,-585.84 382.52,-566.45"/>
<polygon fill="midnightblue" stroke="midnightblue" points="384.94,-568.99 390.04,-559.7 380.26,-563.78 384.94,-568.99"/>
</g>
<!-- Node2&#45;&gt;Node16 -->
<g id="edge65" class="edge">
<title>Node2&#45;&gt;Node16</title>
<path fill="none" stroke="midnightblue" d="M285.26,-665C357.3,-665 482.57,-665 590,-665 590,-665 590,-665 781.5,-665 838.27,-665 1015.78,-602.21 1031,-591 1041.93,-582.94 1089.6,-511.45 1112.13,-477.17"/>
<polygon fill="midnightblue" stroke="midnightblue" points="1115.21,-478.86 1117.76,-468.58 1109.35,-475.02 1115.21,-478.86"/>
</g>
<!-- Node107 -->
<g id="node48" class="node">
<title>Node107</title>
<g id="a_node48"><a xlink:href="event__handler_8c.html#a4d77e82a40fe0de25c75cc34a1ed818a" target="_top" xlink:title="EH_RuleSortedIndex から，目的の EL_Event の idx を検索する">
<polygon fill="white" stroke="black" points="340.5,-694 340.5,-724 462.5,-724 462.5,-694 340.5,-694"/>
<text text-anchor="start" x="348.5" y="-712" font-family="Helvetica,sans-Serif" font-size="10.00">EH_search_rule_table</text>
<text text-anchor="middle" x="401.5" y="-701" font-family="Helvetica,sans-Serif" font-size="10.00">_index_</text>
</a>
</g>
</g>
<!-- Node2&#45;&gt;Node107 -->
<g id="edge63" class="edge">
<title>Node2&#45;&gt;Node107</title>
<path fill="none" stroke="midnightblue" d="M285.08,-679.9C299.84,-683.62 315.81,-687.64 331.02,-691.48"/>
<polygon fill="midnightblue" stroke="midnightblue" points="330.34,-694.92 340.89,-693.97 332.05,-688.13 330.34,-694.92"/>
</g>
<!-- Node3&#45;&gt;Node1 -->
<g id="edge3" class="edge">
<title>Node3&#45;&gt;Node1</title>
<path fill="none" stroke="midnightblue" d="M320.9,-558.12C274.61,-564.25 215.61,-574.51 165,-591 142.6,-598.3 118.89,-609.81 100.23,-619.84"/>
<polygon fill="midnightblue" stroke="midnightblue" points="98.33,-616.9 91.24,-624.77 101.69,-623.03 98.33,-616.9"/>
</g>
<!-- Node4 -->
<g id="node4" class="node">
<title>Node4</title>
<g id="a_node4"><a xlink:href="event__handler_8c.html#a36acbf29023faf34e8f2d16f01cc44d3" target="_top" xlink:title="EH の対応条件をチェックする">
<polygon fill="white" stroke="black" points="544.5,-540.5 544.5,-559.5 637.5,-559.5 637.5,-540.5 544.5,-540.5"/>
<text text-anchor="middle" x="591" y="-547.5" font-family="Helvetica,sans-Serif" font-size="10.00">EH_check_rule_</text>
</a>
</g>
</g>
<!-- Node3&#45;&gt;Node4 -->
<g id="edge4" class="edge">
<title>Node3&#45;&gt;Node4</title>
<path fill="none" stroke="midnightblue" d="M482.02,-550C499.46,-550 517.57,-550 533.86,-550"/>
<polygon fill="midnightblue" stroke="midnightblue" points="534.28,-553.5 544.28,-550 534.28,-546.5 534.28,-553.5"/>
</g>
<!-- Node3&#45;&gt;Node16 -->
<g id="edge62" class="edge">
<title>Node3&#45;&gt;Node16</title>
<path fill="none" stroke="midnightblue" d="M437,-540.41C492.11,-525.48 603.65,-496.85 700,-482 786.82,-468.62 809.29,-470.91 897,-466 954.46,-462.78 1020.19,-460.96 1066.08,-459.98"/>
<polygon fill="midnightblue" stroke="midnightblue" points="1066.22,-463.48 1076.14,-459.78 1066.07,-456.48 1066.22,-463.48"/>
</g>
<!-- Node28 -->
<g id="node28" class="node">
<title>Node28</title>
<g id="a_node28"><a xlink:href="event__handler_8c.html#a8d7de705ac2b09f9f25644f0c9f55952" target="_top" xlink:title="EH 対応を実施">
<polygon fill="white" stroke="black" points="551,-294.5 551,-313.5 631,-313.5 631,-294.5 551,-294.5"/>
<text text-anchor="middle" x="591" y="-301.5" font-family="Helvetica,sans-Serif" font-size="10.00">EH_respond_</text>
</a>
</g>
</g>
<!-- Node3&#45;&gt;Node28 -->
<g id="edge33" class="edge">
<title>Node3&#45;&gt;Node28</title>
<path fill="none" stroke="midnightblue" d="M409.85,-540.36C438.09,-503.31 539.85,-369.8 576.62,-321.55"/>
<polygon fill="midnightblue" stroke="midnightblue" points="579.42,-323.65 582.7,-313.58 573.86,-319.41 579.42,-323.65"/>
</g>
<!-- Node5 -->
<g id="node5" class="node">
<title>Node5</title>
<g id="a_node5"><a xlink:href="event__handler_8c.html#aa8f8643b631236606e67efd8f301d88c" target="_top" xlink:title="EH の対応条件をチェックする (EH_RESPONSE_CONDITION_CONTINUOUS)">
<polygon fill="white" stroke="black" points="719.5,-606 719.5,-636 841.5,-636 841.5,-606 719.5,-606"/>
<text text-anchor="start" x="727.5" y="-624" font-family="Helvetica,sans-Serif" font-size="10.00">EH_check_continuous</text>
<text text-anchor="middle" x="780.5" y="-613" font-family="Helvetica,sans-Serif" font-size="10.00">_rule_</text>
</a>
</g>
</g>
<!-- Node4&#45;&gt;Node5 -->
<g id="edge5" class="edge">
<title>Node4&#45;&gt;Node5</title>
<path fill="none" stroke="midnightblue" d="M612.86,-559.61C634.44,-569.37 669.22,-584.64 700,-596 706.2,-598.29 712.72,-600.56 719.25,-602.74"/>
<polygon fill="midnightblue" stroke="midnightblue" points="718.19,-606.08 728.78,-605.87 720.37,-599.42 718.19,-606.08"/>
</g>
<!-- Node14 -->
<g id="node14" class="node">
<title>Node14</title>
<g id="a_node14"><a xlink:href="event__handler_8c.html#af067cdf04b4ff6b4a8663cbeb9447c62" target="_top" xlink:title="EH の対応条件をチェックする (EH_RESPONSE_CONDITION_CUMULATIVE)">
<polygon fill="white" stroke="black" points="718.5,-557 718.5,-587 842.5,-587 842.5,-557 718.5,-557"/>
<text text-anchor="start" x="726.5" y="-575" font-family="Helvetica,sans-Serif" font-size="10.00">EH_check_cumulative</text>
<text text-anchor="middle" x="780.5" y="-564" font-family="Helvetica,sans-Serif" font-size="10.00">_rule_</text>
</a>
</g>
</g>
<!-- Node4&#45;&gt;Node14 -->
<g id="edge14" class="edge">
<title>Node4&#45;&gt;Node14</title>
<path fill="none" stroke="midnightblue" d="M637.87,-555.38C659.02,-557.86 684.62,-560.87 708.21,-563.64"/>
<polygon fill="midnightblue" stroke="midnightblue" points="707.84,-567.12 718.18,-564.8 708.65,-560.16 707.84,-567.12"/>
</g>
<!-- Node15 -->
<g id="node15" class="node">
<title>Node15</title>
<g id="a_node15"><a xlink:href="event__handler_8c.html#aaafb8f63aa347235b58cd1aec79911a0" target="_top" xlink:title="EH の対応条件をチェックする (EH_RESPONSE_CONDITION_SINGLE)">
<polygon fill="white" stroke="black" points="716.5,-518.5 716.5,-537.5 844.5,-537.5 844.5,-518.5 716.5,-518.5"/>
<text text-anchor="middle" x="780.5" y="-525.5" font-family="Helvetica,sans-Serif" font-size="10.00">EH_check_single_rule_</text>
</a>
</g>
</g>
<!-- Node4&#45;&gt;Node15 -->
<g id="edge16" class="edge">
<title>Node4&#45;&gt;Node15</title>
<path fill="none" stroke="midnightblue" d="M637.87,-544.62C658.46,-542.2 683.26,-539.29 706.31,-536.59"/>
<polygon fill="midnightblue" stroke="midnightblue" points="706.89,-540.04 716.41,-535.4 706.07,-533.09 706.89,-540.04"/>
</g>
<!-- Node4&#45;&gt;Node16 -->
<g id="edge17" class="edge">
<title>Node4&#45;&gt;Node16</title>
<path fill="none" stroke="midnightblue" d="M612.62,-540.42C634.01,-530.92 668.64,-516.68 700,-509 768.06,-492.34 966.84,-473.02 1066.15,-464.05"/>
<polygon fill="midnightblue" stroke="midnightblue" points="1066.66,-467.52 1076.31,-463.14 1066.03,-460.55 1066.66,-467.52"/>
</g>
<!-- Node6 -->
<g id="node6" class="node">
<title>Node6</title>
<g id="a_node6"><a xlink:href="event__handler_8c.html#a7ef25ddb66d3268593fe7b80e71e59ed" target="_top" xlink:title="EH_Rule の counter を 0 クリア">
<polygon fill="white" stroke="black" points="901.5,-562.5 901.5,-581.5 1026.5,-581.5 1026.5,-562.5 901.5,-562.5"/>
<text text-anchor="middle" x="964" y="-569.5" font-family="Helvetica,sans-Serif" font-size="10.00">EH_clear_rule_counter</text>
</a>
</g>
</g>
<!-- Node5&#45;&gt;Node6 -->
<g id="edge6" class="edge">
<title>Node5&#45;&gt;Node6</title>
<path fill="none" stroke="midnightblue" d="M837.44,-605.9C863.34,-598.9 893.71,-590.71 918.09,-584.12"/>
<polygon fill="midnightblue" stroke="midnightblue" points="919.06,-587.49 927.8,-581.5 917.24,-580.73 919.06,-587.49"/>
</g>
<!-- Node9 -->
<g id="node9" class="node">
<title>Node9</title>
<g id="a_node9"><a xlink:href="obc__time_8c.html#a51f2c2c48be7ec8985ec47f36bef1335" target="_top" xlink:title="ObcTime の引き算をミリ秒単位で行う">
<polygon fill="white" stroke="black" points="909,-693.5 909,-712.5 1019,-712.5 1019,-693.5 909,-693.5"/>
<text text-anchor="middle" x="964" y="-700.5" font-family="Helvetica,sans-Serif" font-size="10.00">OBCT_diff_in_msec</text>
</a>
</g>
</g>
<!-- Node5&#45;&gt;Node9 -->
<g id="edge9" class="edge">
<title>Node5&#45;&gt;Node9</title>
<path fill="none" stroke="midnightblue" d="M814.79,-636.04C848.36,-651.21 899.76,-674.43 932.36,-689.16"/>
<polygon fill="midnightblue" stroke="midnightblue" points="931.28,-692.51 941.83,-693.44 934.16,-686.13 931.28,-692.51"/>
</g>
<!-- Node7 -->
<g id="node7" class="node">
<title>Node7</title>
<g id="a_node7"><a xlink:href="event__handler_8c.html#a849447829aa68239351929abc5f10ef4" target="_top" xlink:title="EH_Rule の counter をセット">
<polygon fill="white" stroke="black" points="1067,-555.5 1067,-574.5 1183,-574.5 1183,-555.5 1067,-555.5"/>
<text text-anchor="middle" x="1125" y="-562.5" font-family="Helvetica,sans-Serif" font-size="10.00">EH_set_rule_counter</text>
</a>
</g>
</g>
<!-- Node6&#45;&gt;Node7 -->
<g id="edge7" class="edge">
<title>Node6&#45;&gt;Node7</title>
<path fill="none" stroke="midnightblue" d="M1026.93,-569.27C1036.7,-568.84 1046.85,-568.4 1056.73,-567.96"/>
<polygon fill="midnightblue" stroke="midnightblue" points="1057.08,-571.45 1066.91,-567.51 1056.77,-564.46 1057.08,-571.45"/>
</g>
<!-- Node8 -->
<g id="node8" class="node">
<title>Node8</title>
<g id="a_node8"><a xlink:href="event__handler_8c.html#a59de6a0bd2f3bfae3758c0cada7c5ca6" target="_top" xlink:title="EH_RULE_ID のルール登録状況を調べる">
<polygon fill="white" stroke="black" points="1238.5,-310.5 1238.5,-329.5 1345.5,-329.5 1345.5,-310.5 1238.5,-310.5"/>
<text text-anchor="middle" x="1292" y="-317.5" font-family="Helvetica,sans-Serif" font-size="10.00">EH_check_rule_id_</text>
</a>
</g>
</g>
<!-- Node7&#45;&gt;Node8 -->
<g id="edge8" class="edge">
<title>Node7&#45;&gt;Node8</title>
<path fill="none" stroke="midnightblue" d="M1132.47,-555.4C1157.21,-518.65 1246.12,-386.63 1278.82,-338.08"/>
<polygon fill="midnightblue" stroke="midnightblue" points="1281.89,-339.79 1284.58,-329.54 1276.09,-335.88 1281.89,-339.79"/>
</g>
<!-- Node10 -->
<g id="node10" class="node">
<title>Node10</title>
<g id="a_node10"><a xlink:href="obc__time_8c.html#a3adce1b790eb67e1eff3cb1e79fc197f" target="_top" xlink:title="ObcTime の引き算を step 単位で行う">
<polygon fill="white" stroke="black" points="1409,-572.5 1409,-591.5 1514,-591.5 1514,-572.5 1409,-572.5"/>
<text text-anchor="middle" x="1461.5" y="-579.5" font-family="Helvetica,sans-Serif" font-size="10.00">OBCT_diff_in_step</text>
</a>
</g>
</g>
<!-- Node9&#45;&gt;Node10 -->
<g id="edge10" class="edge">
<title>Node9&#45;&gt;Node10</title>
<path fill="none" stroke="midnightblue" d="M1004.3,-693.4C1093.94,-671.51 1313.37,-617.93 1411.58,-593.95"/>
<polygon fill="midnightblue" stroke="midnightblue" points="1412.66,-597.29 1421.54,-591.51 1411,-590.49 1412.66,-597.29"/>
</g>
<!-- Node11 -->
<g id="node11" class="node">
<title>Node11</title>
<g id="a_node11"><a xlink:href="obc__time_8c.html#a02512f745375636ab21f468838587942" target="_top" xlink:title="ObcTime の引き算を行う">
<polygon fill="white" stroke="black" points="1594,-572.5 1594,-591.5 1659,-591.5 1659,-572.5 1594,-572.5"/>
<text text-anchor="middle" x="1626.5" y="-579.5" font-family="Helvetica,sans-Serif" font-size="10.00">OBCT_diff</text>
</a>
</g>
</g>
<!-- Node10&#45;&gt;Node11 -->
<g id="edge11" class="edge">
<title>Node10&#45;&gt;Node11</title>
<path fill="none" stroke="midnightblue" d="M1514.07,-582C1536.42,-582 1562.24,-582 1583.4,-582"/>
<polygon fill="midnightblue" stroke="midnightblue" points="1583.69,-585.5 1593.69,-582 1583.68,-578.5 1583.69,-585.5"/>
</g>
<!-- Node12 -->
<g id="node12" class="node">
<title>Node12</title>
<g id="a_node12"><a xlink:href="obc__time_8c.html#a8d70081c0b7615e9381c431ae5f8dca2" target="_top" xlink:title="ObcTime の比較">
<polygon fill="white" stroke="black" points="1755,-572.5 1755,-591.5 1847,-591.5 1847,-572.5 1755,-572.5"/>
<text text-anchor="middle" x="1801" y="-579.5" font-family="Helvetica,sans-Serif" font-size="10.00">OBCT_compare</text>
</a>
</g>
</g>
<!-- Node11&#45;&gt;Node12 -->
<g id="edge12" class="edge">
<title>Node11&#45;&gt;Node12</title>
<path fill="none" stroke="midnightblue" d="M1659.14,-582C1683.05,-582 1716.47,-582 1744.75,-582"/>
<polygon fill="midnightblue" stroke="midnightblue" points="1744.92,-585.5 1754.92,-582 1744.92,-578.5 1744.92,-585.5"/>
</g>
<!-- Node13 -->
<g id="node13" class="node">
<title>Node13</title>
<g id="a_node13"><a xlink:href="obc__time_8c.html#a70416835a40bdacbb04f6f06b1e6d1e1" target="_top" xlink:title="引数から ObcTime を作成する">
<polygon fill="white" stroke="black" points="1761,-610.5 1761,-629.5 1841,-629.5 1841,-610.5 1761,-610.5"/>
<text text-anchor="middle" x="1801" y="-617.5" font-family="Helvetica,sans-Serif" font-size="10.00">OBCT_create</text>
</a>
</g>
</g>
<!-- Node11&#45;&gt;Node13 -->
<g id="edge13" class="edge">
<title>Node11&#45;&gt;Node13</title>
<path fill="none" stroke="midnightblue" d="M1659.14,-588.97C1684.72,-594.6 1721.19,-602.64 1750.61,-609.12"/>
<polygon fill="midnightblue" stroke="midnightblue" points="1750.17,-612.61 1760.69,-611.34 1751.68,-605.77 1750.17,-612.61"/>
</g>
<!-- Node14&#45;&gt;Node6 -->
<g id="edge15" class="edge">
<title>Node14&#45;&gt;Node6</title>
<path fill="none" stroke="midnightblue" d="M842.69,-572C858.23,-572 875.06,-572 891.07,-572"/>
<polygon fill="midnightblue" stroke="midnightblue" points="891.45,-575.5 901.45,-572 891.45,-568.5 891.45,-575.5"/>
</g>
<!-- Node17 -->
<g id="node17" class="node">
<title>Node17</title>
<g id="a_node17"><a xlink:href="event__logger_8c.html#a80a1b60c587d1e3402b02e3bde1db899" target="_top" xlink:title="イベント (EL_Event) を記録">
<polygon fill="white" stroke="black" points="1241,-462.5 1241,-481.5 1343,-481.5 1343,-462.5 1241,-462.5"/>
<text text-anchor="middle" x="1292" y="-469.5" font-family="Helvetica,sans-Serif" font-size="10.00">EL_record_event_</text>
</a>
</g>
</g>
<!-- Node16&#45;&gt;Node17 -->
<g id="edge18" class="edge">
<title>Node16&#45;&gt;Node17</title>
<path fill="none" stroke="midnightblue" d="M1173.72,-462.76C1191.47,-464.16 1211.85,-465.76 1230.58,-467.24"/>
<polygon fill="midnightblue" stroke="midnightblue" points="1230.55,-470.75 1240.8,-468.04 1231.1,-463.77 1230.55,-470.75"/>
</g>
<!-- Node18 -->
<g id="node18" class="node">
<title>Node18</title>
<g id="a_node18"><a xlink:href="event__logger_8c.html#aeae14f21b4e29006f709a61e7de52d67" target="_top" xlink:title="TLog の wp をチェックし， event を生成する">
<polygon fill="white" stroke="black" points="1406.5,-484.5 1406.5,-503.5 1516.5,-503.5 1516.5,-484.5 1406.5,-484.5"/>
<text text-anchor="middle" x="1461.5" y="-491.5" font-family="Helvetica,sans-Serif" font-size="10.00">EL_check_tlog_wp_</text>
</a>
</g>
</g>
<!-- Node17&#45;&gt;Node18 -->
<g id="edge19" class="edge">
<title>Node17&#45;&gt;Node18</title>
<path fill="none" stroke="midnightblue" d="M1343.26,-472.36C1367.49,-474.77 1396.2,-478.65 1419.15,-482.66"/>
<polygon fill="midnightblue" stroke="midnightblue" points="1418.78,-486.15 1429.25,-484.5 1420.04,-479.26 1418.78,-486.15"/>
</g>
<!-- Node19 -->
<g id="node19" class="node">
<title>Node19</title>
<g id="a_node19"><a xlink:href="event__logger_8c.html#a0b42c2f5d1eafdad83481ec6e63365e2" target="_top" xlink:title="イベント (EL_Event) を初期化">
<polygon fill="white" stroke="black" points="1418,-610.5 1418,-629.5 1505,-629.5 1505,-610.5 1418,-610.5"/>
<text text-anchor="middle" x="1461.5" y="-617.5" font-family="Helvetica,sans-Serif" font-size="10.00">EL_init_event_</text>
</a>
</g>
</g>
<!-- Node17&#45;&gt;Node19 -->
<g id="edge21" class="edge">
<title>Node17&#45;&gt;Node19</title>
<path fill="none" stroke="midnightblue" d="M1298.44,-481.69C1312.32,-505.59 1351.54,-567.78 1401,-601 1404.06,-603.06 1407.36,-604.9 1410.77,-606.55"/>
<polygon fill="midnightblue" stroke="midnightblue" points="1409.45,-609.79 1420.02,-610.5 1412.19,-603.35 1409.45,-609.79"/>
</g>
<!-- Node21 -->
<g id="node21" class="node">
<title>Node21</title>
<g id="a_node21"><a xlink:href="event__logger_8c.html#a50ba2fe43a96f7351951a4109227ba6f" target="_top" xlink:title="event_logger の EL_Event.group が有効か？">
<polygon fill="white" stroke="black" points="1401,-396.5 1401,-415.5 1522,-415.5 1522,-396.5 1401,-396.5"/>
<text text-anchor="middle" x="1461.5" y="-403.5" font-family="Helvetica,sans-Serif" font-size="10.00">EL_is_logging_enable</text>
</a>
</g>
</g>
<!-- Node17&#45;&gt;Node21 -->
<g id="edge24" class="edge">
<title>Node17&#45;&gt;Node21</title>
<path fill="none" stroke="midnightblue" d="M1313.45,-462.36C1334.98,-452.39 1369.99,-436.66 1401,-425 1406.66,-422.87 1412.67,-420.77 1418.62,-418.78"/>
<polygon fill="midnightblue" stroke="midnightblue" points="1420.07,-421.99 1428.49,-415.57 1417.9,-415.34 1420.07,-421.99"/>
</g>
<!-- Node22 -->
<g id="node22" class="node">
<title>Node22</title>
<g id="a_node22"><a xlink:href="event__logger_8c.html#a69fb9dbc85ad467d048f1c9f31d2442c" target="_top" xlink:title="イベント (EL_Event) を CLog に記録">
<polygon fill="white" stroke="black" points="1405.5,-435 1405.5,-465 1517.5,-465 1517.5,-435 1405.5,-435"/>
<text text-anchor="start" x="1413.5" y="-453" font-family="Helvetica,sans-Serif" font-size="10.00">EL_record_event_to</text>
<text text-anchor="middle" x="1461.5" y="-442" font-family="Helvetica,sans-Serif" font-size="10.00">_clog_</text>
</a>
</g>
</g>
<!-- Node17&#45;&gt;Node22 -->
<g id="edge25" class="edge">
<title>Node17&#45;&gt;Node22</title>
<path fill="none" stroke="midnightblue" d="M1343.26,-465.4C1359.61,-463.25 1378,-460.84 1395.28,-458.57"/>
<polygon fill="midnightblue" stroke="midnightblue" points="1395.85,-462.02 1405.31,-457.25 1394.94,-455.08 1395.85,-462.02"/>
</g>
<!-- Node26 -->
<g id="node26" class="node">
<title>Node26</title>
<g id="a_node26"><a xlink:href="event__logger_8c.html#a93cb3659efd373de0856c92b3c08896a" target="_top" xlink:title="イベント (EL_Event) を TLog に記録">
<polygon fill="white" stroke="black" points="1405.5,-523 1405.5,-553 1517.5,-553 1517.5,-523 1405.5,-523"/>
<text text-anchor="start" x="1413.5" y="-541" font-family="Helvetica,sans-Serif" font-size="10.00">EL_record_event_to</text>
<text text-anchor="middle" x="1461.5" y="-530" font-family="Helvetica,sans-Serif" font-size="10.00">_tlog_</text>
</a>
</g>
</g>
<!-- Node17&#45;&gt;Node26 -->
<g id="edge31" class="edge">
<title>Node17&#45;&gt;Node26</title>
<path fill="none" stroke="midnightblue" d="M1317.36,-481.6C1342.27,-491.41 1381.63,-506.92 1412.78,-519.2"/>
<polygon fill="midnightblue" stroke="midnightblue" points="1411.57,-522.48 1422.16,-522.89 1414.14,-515.97 1411.57,-522.48"/>
</g>
<!-- Node18&#45;&gt;Node17 -->
<g id="edge20" class="edge">
<title>Node18&#45;&gt;Node17</title>
<path fill="none" stroke="midnightblue" d="M1406.4,-493.25C1383.04,-490.83 1356.14,-487.15 1334.41,-483.35"/>
<polygon fill="midnightblue" stroke="midnightblue" points="1334.97,-479.9 1324.51,-481.55 1333.72,-486.79 1334.97,-479.9"/>
</g>
<!-- Node20 -->
<g id="node20" class="node">
<title>Node20</title>
<g id="a_node20"><a xlink:href="time__manager_8c.html#a9d04b4d9b622cbe5a90cf65e58b828bc" target="_top" xlink:title="現在の master_clock_ を取得する">
<polygon fill="white" stroke="black" points="1558,-610.5 1558,-629.5 1695,-629.5 1695,-610.5 1558,-610.5"/>
<text text-anchor="middle" x="1626.5" y="-617.5" font-family="Helvetica,sans-Serif" font-size="10.00">TMGR_get_master_clock</text>
</a>
</g>
</g>
<!-- Node19&#45;&gt;Node20 -->
<g id="edge22" class="edge">
<title>Node19&#45;&gt;Node20</title>
<path fill="none" stroke="midnightblue" d="M1505.33,-620C1518.35,-620 1533.1,-620 1547.69,-620"/>
<polygon fill="midnightblue" stroke="midnightblue" points="1547.74,-623.5 1557.74,-620 1547.74,-616.5 1547.74,-623.5"/>
</g>
<!-- Node20&#45;&gt;Node13 -->
<g id="edge23" class="edge">
<title>Node20&#45;&gt;Node13</title>
<path fill="none" stroke="midnightblue" d="M1695.18,-620C1713.63,-620 1733.27,-620 1750.5,-620"/>
<polygon fill="midnightblue" stroke="midnightblue" points="1750.88,-623.5 1760.88,-620 1750.88,-616.5 1750.88,-623.5"/>
</g>
<!-- Node22&#45;&gt;Node11 -->
<g id="edge30" class="edge">
<title>Node22&#45;&gt;Node11</title>
<path fill="none" stroke="midnightblue" d="M1509,-465.14C1513.75,-467.92 1518.21,-471.19 1522,-475 1551.51,-504.67 1526.91,-533.99 1558,-562 1565.28,-568.56 1574.62,-572.97 1584.01,-575.94"/>
<polygon fill="midnightblue" stroke="midnightblue" points="1583.17,-579.33 1593.74,-578.53 1584.98,-572.57 1583.17,-579.33"/>
</g>
<!-- Node23 -->
<g id="node23" class="node">
<title>Node23</title>
<g id="a_node23"><a xlink:href="event__logger_8c.html#a605a3ff223ddae8830c09ff5aa57cc94" target="_top" xlink:title="該当イベントの CLog を，イベントテーブルの先頭に出す">
<polygon fill="white" stroke="black" points="1567,-424 1567,-454 1686,-454 1686,-424 1567,-424"/>
<text text-anchor="start" x="1575" y="-442" font-family="Helvetica,sans-Serif" font-size="10.00">EL_move_to_front_in</text>
<text text-anchor="middle" x="1626.5" y="-431" font-family="Helvetica,sans-Serif" font-size="10.00">_clog_</text>
</a>
</g>
</g>
<!-- Node22&#45;&gt;Node23 -->
<g id="edge26" class="edge">
<title>Node22&#45;&gt;Node23</title>
<path fill="none" stroke="midnightblue" d="M1517.68,-446.28C1530.15,-445.43 1543.53,-444.53 1556.48,-443.66"/>
<polygon fill="midnightblue" stroke="midnightblue" points="1557.01,-447.13 1566.75,-442.96 1556.53,-440.15 1557.01,-447.13"/>
</g>
<!-- Node24 -->
<g id="node24" class="node">
<title>Node24</title>
<g id="a_node24"><a xlink:href="event__logger_8c.html#a60dac03ee61b8b3fb3ac6335babb7209" target="_top" xlink:title="イベントテーブル先頭に該当イベントの CLog をつくる">
<polygon fill="white" stroke="black" points="1731,-369.5 1731,-388.5 1871,-388.5 1871,-369.5 1731,-369.5"/>
<text text-anchor="middle" x="1801" y="-376.5" font-family="Helvetica,sans-Serif" font-size="10.00">EL_create_clog_on_front_</text>
</a>
</g>
</g>
<!-- Node23&#45;&gt;Node24 -->
<g id="edge27" class="edge">
<title>Node23&#45;&gt;Node24</title>
<path fill="none" stroke="midnightblue" d="M1671.03,-423.86C1699.47,-413.97 1736.21,-401.19 1763.2,-391.8"/>
<polygon fill="midnightblue" stroke="midnightblue" points="1764.37,-395.1 1772.67,-388.51 1762.07,-388.49 1764.37,-395.1"/>
</g>
<!-- Node25 -->
<g id="node25" class="node">
<title>Node25</title>
<g id="a_node25"><a xlink:href="event__logger_8c.html#a987cce8c848158cc3038bb59dc100de3" target="_top" xlink:title="該当イベントの CLog を検索し取得する">
<polygon fill="white" stroke="black" points="1753,-429.5 1753,-448.5 1849,-448.5 1849,-429.5 1753,-429.5"/>
<text text-anchor="middle" x="1801" y="-436.5" font-family="Helvetica,sans-Serif" font-size="10.00">EL_search_clog_</text>
</a>
</g>
</g>
<!-- Node23&#45;&gt;Node25 -->
<g id="edge29" class="edge">
<title>Node23&#45;&gt;Node25</title>
<path fill="none" stroke="midnightblue" d="M1686.38,-439C1704.58,-439 1724.59,-439 1742.68,-439"/>
<polygon fill="midnightblue" stroke="midnightblue" points="1742.79,-442.5 1752.79,-439 1742.79,-435.5 1742.79,-442.5"/>
</g>
<!-- Node24&#45;&gt;Node17 -->
<g id="edge28" class="edge">
<title>Node24&#45;&gt;Node17</title>
<path fill="none" stroke="midnightblue" d="M1745.78,-369.5C1667.15,-358.04 1518.1,-345.13 1401,-387 1362.32,-400.83 1326.83,-434.5 1307.72,-455.07"/>
<polygon fill="midnightblue" stroke="midnightblue" points="1305.12,-452.72 1301.01,-462.49 1310.31,-457.42 1305.12,-452.72"/>
</g>
<!-- Node27 -->
<g id="node27" class="node">
<title>Node27</title>
<g id="a_node27"><a xlink:href="event__logger_8c.html#af088469f27d5dfca608a9cacee9fbc17" target="_top" xlink:title="TLog のイベントテーブルの上書きが有効か？">
<polygon fill="white" stroke="black" points="1568,-523 1568,-553 1685,-553 1685,-523 1568,-523"/>
<text text-anchor="start" x="1576" y="-541" font-family="Helvetica,sans-Serif" font-size="10.00">EL_is_tlog_overwrite</text>
<text text-anchor="middle" x="1626.5" y="-530" font-family="Helvetica,sans-Serif" font-size="10.00">_enable</text>
</a>
</g>
</g>
<!-- Node26&#45;&gt;Node27 -->
<g id="edge32" class="edge">
<title>Node26&#45;&gt;Node27</title>
<path fill="none" stroke="midnightblue" d="M1517.68,-538C1530.56,-538 1544.43,-538 1557.78,-538"/>
<polygon fill="midnightblue" stroke="midnightblue" points="1557.87,-541.5 1567.87,-538 1557.87,-534.5 1557.87,-541.5"/>
</g>
<!-- Node28&#45;&gt;Node16 -->
<g id="edge53" class="edge">
<title>Node28&#45;&gt;Node16</title>
<path fill="none" stroke="midnightblue" d="M631.35,-305.94C732.51,-311.17 996.17,-326.43 1031,-345 1071.37,-366.52 1100.78,-413.74 1114.8,-440.15"/>
<polygon fill="midnightblue" stroke="midnightblue" points="1111.74,-441.86 1119.41,-449.16 1117.97,-438.67 1111.74,-441.86"/>
</g>
<!-- Node29 -->
<g id="node29" class="node">
<title>Node29</title>
<g id="a_node29"><a xlink:href="common__cmd__packet__util_8c.html#ac4a5c5fca95eda07227b4da1883612fc" target="_top" xlink:title="BC展開 command を生成">
<polygon fill="white" stroke="black" points="700,-57.5 700,-76.5 861,-76.5 861,-57.5 700,-57.5"/>
<text text-anchor="middle" x="780.5" y="-64.5" font-family="Helvetica,sans-Serif" font-size="10.00">CCP_form_block_deploy_cmd</text>
</a>
</g>
</g>
<!-- Node28&#45;&gt;Node29 -->
<g id="edge34" class="edge">
<title>Node28&#45;&gt;Node29</title>
<path fill="none" stroke="midnightblue" d="M599.58,-294.42C627.97,-258.54 728.22,-131.82 765.45,-84.76"/>
<polygon fill="midnightblue" stroke="midnightblue" points="768.36,-86.72 771.82,-76.7 762.87,-82.37 768.36,-86.72"/>
</g>
<!-- Node71 -->
<g id="node39" class="node">
<title>Node71</title>
<g id="a_node39"><a xlink:href="event__handler_8c.html#af099854359b045025e9887956c19769f" target="_top" xlink:title="ルールの無効化 (multi&#45;level)">
<polygon fill="white" stroke="black" points="910,-267 910,-297 1018,-297 1018,-267 910,-267"/>
<text text-anchor="start" x="918" y="-285" font-family="Helvetica,sans-Serif" font-size="10.00">EH_inactivate_rule</text>
<text text-anchor="middle" x="964" y="-274" font-family="Helvetica,sans-Serif" font-size="10.00">_for_multi_level</text>
</a>
</g>
</g>
<!-- Node28&#45;&gt;Node71 -->
<g id="edge46" class="edge">
<title>Node28&#45;&gt;Node71</title>
<path fill="none" stroke="midnightblue" d="M631,-301.69C695.01,-297.89 822.91,-290.31 899.93,-285.74"/>
<polygon fill="midnightblue" stroke="midnightblue" points="900.21,-289.23 909.99,-285.14 899.8,-282.24 900.21,-289.23"/>
</g>
<!-- Node73 -->
<g id="node41" class="node">
<title>Node73</title>
<g id="a_node41"><a xlink:href="event__handler_8c.html#aea878950d4dd21be914534ab13f78e9b" target="_top" xlink:title="EH 対応のログを残す">
<polygon fill="white" stroke="black" points="706.5,-360.5 706.5,-379.5 854.5,-379.5 854.5,-360.5 706.5,-360.5"/>
<text text-anchor="middle" x="780.5" y="-367.5" font-family="Helvetica,sans-Serif" font-size="10.00">EH_record_responded_log_</text>
</a>
</g>
</g>
<!-- Node28&#45;&gt;Node73 -->
<g id="edge50" class="edge">
<title>Node28&#45;&gt;Node73</title>
<path fill="none" stroke="midnightblue" d="M619.26,-313.6C651.85,-325.07 706.52,-344.31 742.8,-357.08"/>
<polygon fill="midnightblue" stroke="midnightblue" points="741.91,-360.48 752.51,-360.5 744.24,-353.88 741.91,-360.48"/>
</g>
<!-- Node76 -->
<g id="node43" class="node">
<title>Node76</title>
<g id="a_node43"><a xlink:href="packet__handler_8c.html#a7b1777e6101ff2eeeef6042166974cdc" target="_top" xlink:title="CCP をコマンドとして解釈して実行，ないしは別機器へ配送する">
<polygon fill="white" stroke="black" points="715,-190.5 715,-209.5 846,-209.5 846,-190.5 715,-190.5"/>
<text text-anchor="middle" x="780.5" y="-197.5" font-family="Helvetica,sans-Serif" font-size="10.00">PH_dispatch_command</text>
</a>
</g>
</g>
<!-- Node28&#45;&gt;Node76 -->
<g id="edge54" class="edge">
<title>Node28&#45;&gt;Node76</title>
<path fill="none" stroke="midnightblue" d="M609.3,-294.4C642.23,-276.14 714.09,-236.28 753.08,-214.65"/>
<polygon fill="midnightblue" stroke="midnightblue" points="755.19,-217.49 762.24,-209.57 751.8,-211.36 755.19,-217.49"/>
</g>
<!-- Node30 -->
<g id="node30" class="node">
<title>Node30</title>
<g id="a_node30"><a xlink:href="common__cmd__packet__util_8c.html#a01b352632ca605771f0cfd66a2a149ba" target="_top" xlink:title="NOP cmd の RTC CCP を作る">
<polygon fill="white" stroke="black" points="908.5,-76.5 908.5,-95.5 1019.5,-95.5 1019.5,-76.5 908.5,-76.5"/>
<text text-anchor="middle" x="964" y="-83.5" font-family="Helvetica,sans-Serif" font-size="10.00">CCP_form_nop_rtc_</text>
</a>
</g>
</g>
<!-- Node29&#45;&gt;Node30 -->
<g id="edge35" class="edge">
<title>Node29&#45;&gt;Node30</title>
<path fill="none" stroke="midnightblue" d="M861.11,-75.33C873.61,-76.64 886.4,-77.98 898.5,-79.25"/>
<polygon fill="midnightblue" stroke="midnightblue" points="898.18,-82.73 908.49,-80.29 898.91,-75.77 898.18,-82.73"/>
</g>
<!-- Node31 -->
<g id="node31" class="node">
<title>Node31</title>
<g id="a_node31"><a xlink:href="common__cmd__packet__util_8c.html#af9f77cfe0b19d8078e79f1c32d9b2843" target="_top" xlink:title="Realtime command を生成">
<polygon fill="white" stroke="red" points="1083.5,-76.5 1083.5,-95.5 1166.5,-95.5 1166.5,-76.5 1083.5,-76.5"/>
<text text-anchor="middle" x="1125" y="-83.5" font-family="Helvetica,sans-Serif" font-size="10.00">CCP_form_rtc</text>
</a>
</g>
</g>
<!-- Node29&#45;&gt;Node31 -->
<g id="edge44" class="edge">
<title>Node29&#45;&gt;Node31</title>
<path fill="none" stroke="midnightblue" d="M803.55,-57.41C826.41,-48.02 863.44,-34.38 897,-29 955.81,-19.57 973.68,-12.83 1031,-29 1059.19,-36.95 1087.27,-56.11 1105.08,-70.02"/>
<polygon fill="midnightblue" stroke="midnightblue" points="1102.97,-72.81 1112.95,-76.36 1107.36,-67.36 1102.97,-72.81"/>
</g>
<!-- Node44 -->
<g id="node38" class="node">
<title>Node44</title>
<g id="a_node38"><a xlink:href="endian__memcpy_8c.html#a153793f6939a1cb0f6bc3968d953f31e" target="_top" xlink:title=" ">
<polygon fill="white" stroke="red" points="915,-38.5 915,-57.5 1013,-57.5 1013,-38.5 915,-38.5"/>
<text text-anchor="middle" x="964" y="-45.5" font-family="Helvetica,sans-Serif" font-size="10.00">endian_memcpy</text>
</a>
</g>
</g>
<!-- Node29&#45;&gt;Node44 -->
<g id="edge45" class="edge">
<title>Node29&#45;&gt;Node44</title>
<path fill="none" stroke="midnightblue" d="M861.11,-58.67C875.68,-57.14 890.64,-55.57 904.46,-54.13"/>
<polygon fill="midnightblue" stroke="midnightblue" points="905.2,-57.57 914.78,-53.05 904.47,-50.61 905.2,-57.57"/>
</g>
<!-- Node30&#45;&gt;Node31 -->
<g id="edge36" class="edge">
<title>Node30&#45;&gt;Node31</title>
<path fill="none" stroke="midnightblue" d="M1019.72,-79.55C1036.98,-79.12 1055.97,-79.15 1072.96,-79.65"/>
<polygon fill="midnightblue" stroke="midnightblue" points="1073.13,-83.16 1083.25,-80.02 1073.38,-76.16 1073.13,-83.16"/>
</g>
<!-- Node31&#45;&gt;Node30 -->
<g id="edge38" class="edge">
<title>Node31&#45;&gt;Node30</title>
<path fill="none" stroke="midnightblue" d="M1083.25,-91.98C1067.02,-92.68 1047.94,-92.9 1029.9,-92.65"/>
<polygon fill="midnightblue" stroke="midnightblue" points="1029.79,-89.14 1019.72,-92.45 1029.65,-96.14 1029.79,-89.14"/>
</g>
<!-- Node32 -->
<g id="node32" class="node">
<title>Node32</title>
<g id="a_node32"><a xlink:href="command__analyze_8c.html#ae878a1a8ce00cc7468fbdd5bc5aba864" target="_top" xlink:title="コマンドパラメタ長をチェックする">
<polygon fill="white" stroke="red" points="1219,-190.5 1219,-209.5 1365,-209.5 1365,-190.5 1219,-190.5"/>
<text text-anchor="middle" x="1292" y="-197.5" font-family="Helvetica,sans-Serif" font-size="10.00">CA_ckeck_cmd_param_len</text>
</a>
</g>
</g>
<!-- Node31&#45;&gt;Node32 -->
<g id="edge37" class="edge">
<title>Node31&#45;&gt;Node32</title>
<path fill="none" stroke="midnightblue" d="M1144.39,-95.59C1156.32,-102.42 1171.7,-112.42 1183,-124 1203.92,-145.45 1194.84,-163.28 1219,-181 1221.66,-182.95 1224.5,-184.7 1227.47,-186.27"/>
<polygon fill="midnightblue" stroke="midnightblue" points="1226.11,-189.5 1236.66,-190.46 1229.02,-183.13 1226.11,-189.5"/>
</g>
<!-- Node39 -->
<g id="node33" class="node">
<title>Node39</title>
<g id="a_node33"><a xlink:href="common__cmd__packet_8h.html#a53e55e3275bb17840514876c95203402" target="_top" xlink:title="共通部分の Header を構築">
<polygon fill="white" stroke="red" points="1229.5,-114.5 1229.5,-133.5 1354.5,-133.5 1354.5,-114.5 1229.5,-114.5"/>
<text text-anchor="middle" x="1292" y="-121.5" font-family="Helvetica,sans-Serif" font-size="10.00">CCP_set_common_hdr</text>
</a>
</g>
</g>
<!-- Node31&#45;&gt;Node39 -->
<g id="edge39" class="edge">
<title>Node31&#45;&gt;Node39</title>
<path fill="none" stroke="midnightblue" d="M1166.79,-95.39C1188.83,-100.47 1216.27,-106.79 1239.75,-112.2"/>
<polygon fill="midnightblue" stroke="midnightblue" points="1239.01,-115.62 1249.54,-114.45 1240.58,-108.8 1239.01,-115.62"/>
</g>
<!-- Node58 -->
<g id="node34" class="node">
<title>Node58</title>
<g id="a_node34"><a xlink:href="common__cmd__packet_8h.html#a6ce61d959627cd955de389b10cadca90" target="_top" xlink:title="DEST_TYPE を設定">
<polygon fill="white" stroke="red" points="1237,-76.5 1237,-95.5 1347,-95.5 1347,-76.5 1237,-76.5"/>
<text text-anchor="middle" x="1292" y="-83.5" font-family="Helvetica,sans-Serif" font-size="10.00">CCP_set_dest_type</text>
</a>
</g>
</g>
<!-- Node31&#45;&gt;Node58 -->
<g id="edge40" class="edge">
<title>Node31&#45;&gt;Node58</title>
<path fill="none" stroke="midnightblue" d="M1166.79,-86C1184.91,-86 1206.68,-86 1226.9,-86"/>
<polygon fill="midnightblue" stroke="midnightblue" points="1226.98,-89.5 1236.98,-86 1226.98,-82.5 1226.98,-89.5"/>
</g>
<!-- Node60 -->
<g id="node35" class="node">
<title>Node60</title>
<g id="a_node35"><a xlink:href="common__cmd__packet_8h.html#ab4c0b1be76b7097e922a8a354f500b88" target="_top" xlink:title="EXEC_TYPE を設定">
<polygon fill="white" stroke="red" points="1236.5,-38.5 1236.5,-57.5 1347.5,-57.5 1347.5,-38.5 1236.5,-38.5"/>
<text text-anchor="middle" x="1292" y="-45.5" font-family="Helvetica,sans-Serif" font-size="10.00">CCP_set_exec_type</text>
</a>
</g>
</g>
<!-- Node31&#45;&gt;Node60 -->
<g id="edge41" class="edge">
<title>Node31&#45;&gt;Node60</title>
<path fill="none" stroke="midnightblue" d="M1166.79,-76.61C1188.83,-71.53 1216.27,-65.21 1239.75,-59.8"/>
<polygon fill="midnightblue" stroke="midnightblue" points="1240.58,-63.2 1249.54,-57.55 1239.01,-56.38 1240.58,-63.2"/>
</g>
<!-- Node62 -->
<g id="node36" class="node">
<title>Node62</title>
<g id="a_node36"><a xlink:href="common__cmd__packet_8h.html#ad3a6d476c3b56794c35a15e3a1d0a395" target="_top" xlink:title="CMD ID を設定">
<polygon fill="white" stroke="red" points="1256.5,-0.5 1256.5,-19.5 1327.5,-19.5 1327.5,-0.5 1256.5,-0.5"/>
<text text-anchor="middle" x="1292" y="-7.5" font-family="Helvetica,sans-Serif" font-size="10.00">CCP_set_id</text>
</a>
</g>
</g>
<!-- Node31&#45;&gt;Node62 -->
<g id="edge42" class="edge">
<title>Node31&#45;&gt;Node62</title>
<path fill="none" stroke="midnightblue" d="M1138.89,-76.4C1156.26,-63.88 1188.53,-42.03 1219,-29 1227.64,-25.31 1237.18,-22.18 1246.42,-19.59"/>
<polygon fill="midnightblue" stroke="midnightblue" points="1247.48,-22.93 1256.25,-17 1245.69,-16.16 1247.48,-22.93"/>
</g>
<!-- Node64 -->
<g id="node37" class="node">
<title>Node64</title>
<g id="a_node37"><a xlink:href="common__cmd__packet_8h.html#a07200400c567d95965dda94da0f55b67" target="_top" xlink:title="パラメタを設定">
<polygon fill="white" stroke="red" points="1245.5,-152.5 1245.5,-171.5 1338.5,-171.5 1338.5,-152.5 1245.5,-152.5"/>
<text text-anchor="middle" x="1292" y="-159.5" font-family="Helvetica,sans-Serif" font-size="10.00">CCP_set_param</text>
</a>
</g>
</g>
<!-- Node31&#45;&gt;Node64 -->
<g id="edge43" class="edge">
<title>Node31&#45;&gt;Node64</title>
<path fill="none" stroke="midnightblue" d="M1140.49,-95.6C1162.39,-109.99 1203.07,-136.19 1219,-143 1224.69,-145.43 1230.78,-147.62 1236.91,-149.57"/>
<polygon fill="midnightblue" stroke="midnightblue" points="1235.94,-152.94 1246.53,-152.44 1237.94,-146.23 1235.94,-152.94"/>
</g>
<!-- Node71&#45;&gt;Node8 -->
<g id="edge47" class="edge">
<title>Node71&#45;&gt;Node8</title>
<path fill="none" stroke="midnightblue" d="M1018.04,-292.92C1033.75,-295.87 1051.02,-298.84 1067,-301 1121.18,-308.33 1183.14,-313.32 1228.14,-316.35"/>
<polygon fill="midnightblue" stroke="midnightblue" points="1228.13,-319.85 1238.34,-317.02 1228.59,-312.87 1228.13,-319.85"/>
</g>
<!-- Node72 -->
<g id="node40" class="node">
<title>Node72</title>
<g id="a_node40"><a xlink:href="event__handler_8c.html#addeafcef3304c68bbb5d46ba92992307" target="_top" xlink:title="ルールの無効化">
<polygon fill="white" stroke="black" points="1071,-272.5 1071,-291.5 1179,-291.5 1179,-272.5 1071,-272.5"/>
<text text-anchor="middle" x="1125" y="-279.5" font-family="Helvetica,sans-Serif" font-size="10.00">EH_inactivate_rule</text>
</a>
</g>
</g>
<!-- Node71&#45;&gt;Node72 -->
<g id="edge48" class="edge">
<title>Node71&#45;&gt;Node72</title>
<path fill="none" stroke="midnightblue" d="M1018.39,-282C1031.96,-282 1046.68,-282 1060.7,-282"/>
<polygon fill="midnightblue" stroke="midnightblue" points="1060.75,-285.5 1070.75,-282 1060.75,-278.5 1060.75,-285.5"/>
</g>
<!-- Node72&#45;&gt;Node8 -->
<g id="edge49" class="edge">
<title>Node72&#45;&gt;Node8</title>
<path fill="none" stroke="midnightblue" d="M1167.64,-291.59C1189.51,-296.63 1216.51,-302.84 1239.66,-308.18"/>
<polygon fill="midnightblue" stroke="midnightblue" points="1239.13,-311.65 1249.66,-310.48 1240.7,-304.82 1239.13,-311.65"/>
</g>
<!-- Node73&#45;&gt;Node16 -->
<g id="edge51" class="edge">
<title>Node73&#45;&gt;Node16</title>
<path fill="none" stroke="midnightblue" d="M818.15,-379.52C880.9,-395.83 1008.78,-429.06 1077.64,-446.95"/>
<polygon fill="midnightblue" stroke="midnightblue" points="1076.79,-450.35 1087.35,-449.48 1078.55,-443.57 1076.79,-450.35"/>
</g>
<!-- Node74 -->
<g id="node42" class="node">
<title>Node74</title>
<g id="a_node42"><a xlink:href="time__manager_8c.html#a576e42803f8f3896524dbb266a47a08f" target="_top" xlink:title="現在の total_cycle を返す">
<polygon fill="white" stroke="red" points="897,-355 897,-385 1031,-385 1031,-355 897,-355"/>
<text text-anchor="start" x="905" y="-373" font-family="Helvetica,sans-Serif" font-size="10.00">TMGR_get_master_total</text>
<text text-anchor="middle" x="964" y="-362" font-family="Helvetica,sans-Serif" font-size="10.00">_cycle</text>
</a>
</g>
</g>
<!-- Node73&#45;&gt;Node74 -->
<g id="edge52" class="edge">
<title>Node73&#45;&gt;Node74</title>
<path fill="none" stroke="midnightblue" d="M854.54,-370C865.14,-370 876.07,-370 886.74,-370"/>
<polygon fill="midnightblue" stroke="midnightblue" points="886.85,-373.5 896.85,-370 886.85,-366.5 886.85,-373.5"/>
</g>
<!-- Node77 -->
<g id="node44" class="node">
<title>Node77</title>
<g id="a_node44"><a xlink:href="command__analyze_8c.html#a68bd697f2123acd72c8c1a49b7f3652a" target="_top" xlink:title="コマンド実行の本体">
<polygon fill="white" stroke="red" points="914,-190.5 914,-209.5 1014,-209.5 1014,-190.5 914,-190.5"/>
<text text-anchor="middle" x="964" y="-197.5" font-family="Helvetica,sans-Serif" font-size="10.00">CA_execute_cmd</text>
</a>
</g>
</g>
<!-- Node76&#45;&gt;Node77 -->
<g id="edge55" class="edge">
<title>Node76&#45;&gt;Node77</title>
<path fill="none" stroke="midnightblue" d="M846,-200C864.83,-200 885.31,-200 903.79,-200"/>
<polygon fill="midnightblue" stroke="midnightblue" points="903.83,-203.5 913.83,-200 903.83,-196.5 903.83,-203.5"/>
</g>
<!-- Node86 -->
<g id="node45" class="node">
<title>Node86</title>
<g id="a_node45"><a xlink:href="common__cmd__packet_8h.html#aa24f85ec65651169c91ab2ad0fad832f" target="_top" xlink:title="APID を取得">
<polygon fill="white" stroke="red" points="1083.5,-133.5 1083.5,-152.5 1166.5,-152.5 1166.5,-133.5 1083.5,-133.5"/>
<text text-anchor="middle" x="1125" y="-140.5" font-family="Helvetica,sans-Serif" font-size="10.00">CCP_get_apid</text>
</a>
</g>
</g>
<!-- Node76&#45;&gt;Node86 -->
<g id="edge58" class="edge">
<title>Node76&#45;&gt;Node86</title>
<path fill="none" stroke="midnightblue" d="M795.63,-190.33C816.63,-176.61 857.8,-152.15 897,-143 956.23,-129.18 1026.54,-132.02 1073.05,-136.46"/>
<polygon fill="midnightblue" stroke="midnightblue" points="1072.88,-139.96 1083.18,-137.49 1073.59,-133 1072.88,-139.96"/>
</g>
<!-- Node89 -->
<g id="node46" class="node">
<title>Node89</title>
<g id="a_node46"><a xlink:href="common__cmd__packet_8h.html#add63f4e739670d463f6ace1f55fa3d48" target="_top" xlink:title="有効なパケットかチェックする">
<polygon fill="white" stroke="red" points="906,-228.5 906,-247.5 1022,-247.5 1022,-228.5 906,-228.5"/>
<text text-anchor="middle" x="964" y="-235.5" font-family="Helvetica,sans-Serif" font-size="10.00">CCP_is_valid_packet</text>
</a>
</g>
</g>
<!-- Node76&#45;&gt;Node89 -->
<g id="edge59" class="edge">
<title>Node76&#45;&gt;Node89</title>
<path fill="none" stroke="midnightblue" d="M827.3,-209.59C851.68,-214.69 881.86,-221.01 907.56,-226.39"/>
<polygon fill="midnightblue" stroke="midnightblue" points="907.02,-229.86 917.53,-228.48 908.46,-223 907.02,-229.86"/>
</g>
<!-- Node91 -->
<g id="node47" class="node">
<title>Node91</title>
<g id="a_node47"><a xlink:href="user__packet__handler_8c.html#a2c3c644313071db44127bc7a90be4569" target="_top" xlink:title="PH の cmd_router_ のユーザー処理関数">
<polygon fill="white" stroke="red" points="905.5,-152.5 905.5,-171.5 1022.5,-171.5 1022.5,-152.5 905.5,-152.5"/>
<text text-anchor="middle" x="964" y="-159.5" font-family="Helvetica,sans-Serif" font-size="10.00">PH_user_cmd_router</text>
</a>
</g>
</g>
<!-- Node76&#45;&gt;Node91 -->
<g id="edge60" class="edge">
<title>Node76&#45;&gt;Node91</title>
<path fill="none" stroke="midnightblue" d="M827.3,-190.41C851.68,-185.31 881.86,-178.99 907.56,-173.61"/>
<polygon fill="midnightblue" stroke="midnightblue" points="908.46,-177 917.53,-171.52 907.02,-170.14 908.46,-177"/>
</g>
<!-- Node77&#45;&gt;Node16 -->
<g id="edge57" class="edge">
<title>Node77&#45;&gt;Node16</title>
<path fill="none" stroke="midnightblue" d="M1014.22,-208.56C1020.35,-211.17 1026.16,-214.57 1031,-219 1039.68,-226.93 1096.95,-384.04 1117.04,-439.68"/>
<polygon fill="midnightblue" stroke="midnightblue" points="1113.86,-441.16 1120.54,-449.38 1120.44,-438.78 1113.86,-441.16"/>
</g>
<!-- Node77&#45;&gt;Node32 -->
<g id="edge56" class="edge">
<title>Node77&#45;&gt;Node32</title>
<path fill="none" stroke="midnightblue" d="M1014.16,-200C1065.63,-200 1147.36,-200 1208.7,-200"/>
<polygon fill="midnightblue" stroke="midnightblue" points="1208.74,-203.5 1218.74,-200 1208.74,-196.5 1208.74,-203.5"/>
</g>
<!-- Node91&#45;&gt;Node86 -->
<g id="edge61" class="edge">
<title>Node91&#45;&gt;Node86</title>
<path fill="none" stroke="midnightblue" d="M1022.85,-155.09C1039.31,-153.12 1057.12,-150.99 1073.13,-149.08"/>
<polygon fill="midnightblue" stroke="midnightblue" points="1073.85,-152.52 1083.36,-147.86 1073.02,-145.57 1073.85,-152.52"/>
</g>
<!-- Node108 -->
<g id="node49" class="node">
<title>Node108</title>
<g id="a_node49"><a xlink:href="event__handler_8c.html#a1d5bd0374a75859e6b0bf5b4455a50d9" target="_top" xlink:title="EH_search_rule_table_index_ での bsearch 用の EH_RuleSortedIndex 比較関数">
<polygon fill="white" stroke="black" points="518,-694 518,-724 664,-724 664,-694 518,-694"/>
<text text-anchor="start" x="526" y="-712" font-family="Helvetica,sans-Serif" font-size="10.00">EH_compare_sorted_index</text>
<text text-anchor="middle" x="591" y="-701" font-family="Helvetica,sans-Serif" font-size="10.00">_for_bsearch_</text>
</a>
</g>
</g>
<!-- Node107&#45;&gt;Node108 -->
<g id="edge64" class="edge">
<title>Node107&#45;&gt;Node108</title>
<path fill="none" stroke="midnightblue" d="M462.6,-709C476.87,-709 492.35,-709 507.43,-709"/>
<polygon fill="midnightblue" stroke="midnightblue" points="507.79,-712.5 517.79,-709 507.79,-705.5 507.79,-712.5"/>
</g>
</g>
</svg>
