<?xml version="1.0" encoding="UTF-8" standalone="no"?>
<!DOCTYPE svg PUBLIC "-//W3C//DTD SVG 1.1//EN"
 "http://www.w3.org/Graphics/SVG/1.1/DTD/svg11.dtd">
<!-- Generated by graphviz version 2.43.0 (0)
 -->
<!-- Title: Cmd_EL_CLEAR_STATISTICS Pages: 1 -->
<svg width="485pt" height="39pt"
 viewBox="0.00 0.00 485.00 39.00" xmlns="http://www.w3.org/2000/svg" xmlns:xlink="http://www.w3.org/1999/xlink">
<g id="graph0" class="graph" transform="scale(1 1) rotate(0) translate(4 35)">
<title>Cmd_EL_CLEAR_STATISTICS</title>
<polygon fill="white" stroke="transparent" points="-4,4 -4,-35 481,-35 481,4 -4,4"/>
<!-- Node1 -->
<g id="node1" class="node">
<title>Node1</title>
<g id="a_node1"><a xlink:title=" ">
<polygon fill="#bfbfbf" stroke="black" points="0,-6 0,-25 152,-25 152,-6 0,-6"/>
<text text-anchor="middle" x="76" y="-13" font-family="Helvetica,sans-Serif" font-size="10.00">Cmd_EL_CLEAR_STATISTICS</text>
</a>
</g>
</g>
<!-- Node2 -->
<g id="node2" class="node">
<title>Node2</title>
<g id="a_node2"><a xlink:href="event__logger_8c.html#a7e00285999d4372055ae10dc0a2ea1e4" target="_top" xlink:title="統計情報をクリア">
<polygon fill="white" stroke="black" points="188,-6 188,-25 300,-25 300,-6 188,-6"/>
<text text-anchor="middle" x="244" y="-13" font-family="Helvetica,sans-Serif" font-size="10.00">EL_clear_statistics_</text>
</a>
</g>
</g>
<!-- Node1&#45;&gt;Node2 -->
<g id="edge1" class="edge">
<title>Node1&#45;&gt;Node2</title>
<path fill="none" stroke="midnightblue" d="M152.23,-15.5C160.77,-15.5 169.42,-15.5 177.81,-15.5"/>
<polygon fill="midnightblue" stroke="midnightblue" points="177.9,-19 187.9,-15.5 177.9,-12 177.9,-19"/>
</g>
<!-- Node3 -->
<g id="node3" class="node">
<title>Node3</title>
<g id="a_node3"><a xlink:href="event__handler_8c.html#a6ce222b0f2b5da74cb20954b7062c498" target="_top" xlink:title="イベントカウンタを EL のそれに合わせる">
<polygon fill="white" stroke="black" points="336,-0.5 336,-30.5 477,-30.5 477,-0.5 336,-0.5"/>
<text text-anchor="start" x="344" y="-18.5" font-family="Helvetica,sans-Serif" font-size="10.00">EH_match_event_counter</text>
<text text-anchor="middle" x="406.5" y="-7.5" font-family="Helvetica,sans-Serif" font-size="10.00">_to_el</text>
</a>
</g>
</g>
<!-- Node2&#45;&gt;Node3 -->
<g id="edge2" class="edge">
<title>Node2&#45;&gt;Node3</title>
<path fill="none" stroke="midnightblue" d="M300.23,-15.5C308.51,-15.5 317.18,-15.5 325.85,-15.5"/>
<polygon fill="midnightblue" stroke="midnightblue" points="325.99,-19 335.99,-15.5 325.99,-12 325.99,-19"/>
</g>
</g>
</svg>
