<?xml version="1.0" encoding="UTF-8" standalone="no"?>
<!DOCTYPE svg PUBLIC "-//W3C//DTD SVG 1.1//EN"
 "http://www.w3.org/Graphics/SVG/1.1/DTD/svg11.dtd">
<!-- Generated by graphviz version 2.43.0 (0)
 -->
<!-- Title: EL_move_to_front_in_clog_ Pages: 1 -->
<svg width="1602pt" height="986pt"
 viewBox="0.00 0.00 1602.00 986.00" xmlns="http://www.w3.org/2000/svg" xmlns:xlink="http://www.w3.org/1999/xlink">
<g id="graph0" class="graph" transform="scale(1 1) rotate(0) translate(4 982)">
<title>EL_move_to_front_in_clog_</title>
<polygon fill="white" stroke="transparent" points="-4,4 -4,-982 1598,-982 1598,4 -4,4"/>
<!-- Node1 -->
<g id="node1" class="node">
<title>Node1</title>
<g id="a_node1"><a xlink:title="該当イベントの CLog を，イベントテーブルの先頭に出す">
<polygon fill="#bfbfbf" stroke="black" points="1475,-494 1475,-524 1594,-524 1594,-494 1475,-494"/>
<text text-anchor="start" x="1483" y="-512" font-family="Helvetica,sans-Serif" font-size="10.00">EL_move_to_front_in</text>
<text text-anchor="middle" x="1534.5" y="-501" font-family="Helvetica,sans-Serif" font-size="10.00">_clog_</text>
</a>
</g>
</g>
<!-- Node2 -->
<g id="node2" class="node">
<title>Node2</title>
<g id="a_node2"><a xlink:href="event__logger_8c.html#a69fb9dbc85ad467d048f1c9f31d2442c" target="_top" xlink:title="イベント (EL_Event) を CLog に記録">
<polygon fill="white" stroke="black" points="1327,-516 1327,-546 1439,-546 1439,-516 1327,-516"/>
<text text-anchor="start" x="1335" y="-534" font-family="Helvetica,sans-Serif" font-size="10.00">EL_record_event_to</text>
<text text-anchor="middle" x="1383" y="-523" font-family="Helvetica,sans-Serif" font-size="10.00">_clog_</text>
</a>
</g>
</g>
<!-- Node1&#45;&gt;Node2 -->
<g id="edge1" class="edge">
<title>Node1&#45;&gt;Node2</title>
<path fill="none" stroke="midnightblue" d="M1464.8,-519.11C1456.18,-520.38 1447.45,-521.66 1439.07,-522.9"/>
<polygon fill="midnightblue" stroke="midnightblue" points="1465.46,-522.55 1474.84,-517.63 1464.44,-515.63 1465.46,-522.55"/>
</g>
<!-- Node3 -->
<g id="node3" class="node">
<title>Node3</title>
<g id="a_node3"><a xlink:href="event__logger_8c.html#a80a1b60c587d1e3402b02e3bde1db899" target="_top" xlink:title="イベント (EL_Event) を記録">
<polygon fill="white" stroke="black" points="1189,-521.5 1189,-540.5 1291,-540.5 1291,-521.5 1189,-521.5"/>
<text text-anchor="middle" x="1240" y="-528.5" font-family="Helvetica,sans-Serif" font-size="10.00">EL_record_event_</text>
</a>
</g>
</g>
<!-- Node2&#45;&gt;Node3 -->
<g id="edge2" class="edge">
<title>Node2&#45;&gt;Node3</title>
<path fill="none" stroke="midnightblue" d="M1316.67,-531C1308.09,-531 1299.4,-531 1291.11,-531"/>
<polygon fill="midnightblue" stroke="midnightblue" points="1316.68,-534.5 1326.68,-531 1316.68,-527.5 1316.68,-534.5"/>
</g>
<!-- Node4 -->
<g id="node4" class="node">
<title>Node4</title>
<g id="a_node4"><a xlink:href="event__logger_8c.html#aeae14f21b4e29006f709a61e7de52d67" target="_top" xlink:title="TLog の wp をチェックし， event を生成する">
<polygon fill="white" stroke="black" points="1028,-553.5 1028,-572.5 1138,-572.5 1138,-553.5 1028,-553.5"/>
<text text-anchor="middle" x="1083" y="-560.5" font-family="Helvetica,sans-Serif" font-size="10.00">EL_check_tlog_wp_</text>
</a>
</g>
</g>
<!-- Node3&#45;&gt;Node4 -->
<g id="edge3" class="edge">
<title>Node3&#45;&gt;Node4</title>
<path fill="none" stroke="midnightblue" d="M1178.73,-536.84C1153.33,-541.64 1125.33,-547.98 1106.4,-553.46"/>
<polygon fill="midnightblue" stroke="midnightblue" points="1179.47,-540.27 1188.68,-535.02 1178.21,-533.38 1179.47,-540.27"/>
</g>
<!-- Node5 -->
<g id="node5" class="node">
<title>Node5</title>
<g id="a_node5"><a xlink:href="event__logger_8c.html#a60dac03ee61b8b3fb3ac6335babb7209" target="_top" xlink:title="イベントテーブル先頭に該当イベントの CLog をつくる">
<polygon fill="white" stroke="black" points="1013,-477.5 1013,-496.5 1153,-496.5 1153,-477.5 1013,-477.5"/>
<text text-anchor="middle" x="1083" y="-484.5" font-family="Helvetica,sans-Serif" font-size="10.00">EL_create_clog_on_front_</text>
</a>
</g>
</g>
<!-- Node3&#45;&gt;Node5 -->
<g id="edge5" class="edge">
<title>Node3&#45;&gt;Node5</title>
<path fill="none" stroke="midnightblue" d="M1196.58,-518.54C1182.71,-514.5 1167.21,-510.02 1153,-506 1142,-502.89 1130,-499.56 1119.13,-496.57"/>
<polygon fill="midnightblue" stroke="midnightblue" points="1195.78,-521.95 1206.36,-521.39 1197.74,-515.23 1195.78,-521.95"/>
</g>
<!-- Node6 -->
<g id="node6" class="node">
<title>Node6</title>
<g id="a_node6"><a xlink:href="event__logger_8h.html#a25a74a48375dfc1f3f80be68e0ac00ea" target="_top" xlink:title="イベント (EL_Event) を記録">
<polygon fill="white" stroke="black" points="1034.5,-515.5 1034.5,-534.5 1131.5,-534.5 1131.5,-515.5 1034.5,-515.5"/>
<text text-anchor="middle" x="1083" y="-522.5" font-family="Helvetica,sans-Serif" font-size="10.00">EL_record_event</text>
</a>
</g>
</g>
<!-- Node3&#45;&gt;Node6 -->
<g id="edge7" class="edge">
<title>Node3&#45;&gt;Node6</title>
<path fill="none" stroke="midnightblue" d="M1178.62,-528.66C1163.05,-528.06 1146.52,-527.42 1131.7,-526.85"/>
<polygon fill="midnightblue" stroke="midnightblue" points="1178.55,-532.16 1188.68,-529.05 1178.82,-525.17 1178.55,-532.16"/>
</g>
<!-- Node4&#45;&gt;Node3 -->
<g id="edge4" class="edge">
<title>Node4&#45;&gt;Node3</title>
<path fill="none" stroke="midnightblue" d="M1147.97,-556.45C1172.29,-551.76 1198.46,-545.79 1216.46,-540.58"/>
<polygon fill="midnightblue" stroke="midnightblue" points="1147.23,-553.03 1138.04,-558.31 1148.52,-559.91 1147.23,-553.03"/>
</g>
<!-- Node5&#45;&gt;Node1 -->
<g id="edge6" class="edge">
<title>Node5&#45;&gt;Node1</title>
<path fill="none" stroke="midnightblue" d="M1163.15,-490.87C1252.27,-495.24 1394.99,-502.22 1474.74,-506.12"/>
<polygon fill="midnightblue" stroke="midnightblue" points="1163.26,-487.37 1153.1,-490.38 1162.91,-494.37 1163.26,-487.37"/>
</g>
<!-- Node7 -->
<g id="node7" class="node">
<title>Node7</title>
<g id="a_node7"><a xlink:href="app__manager_8c.html#ac8eb56aeb5e572d9d1215cead52a9ab5" target="_top" xlink:title=" ">
<polygon fill="white" stroke="black" points="849,-694.5 849,-713.5 953,-713.5 953,-694.5 849,-694.5"/>
<text text-anchor="middle" x="901" y="-701.5" font-family="Helvetica,sans-Serif" font-size="10.00">AM_execute_app_</text>
</a>
</g>
</g>
<!-- Node6&#45;&gt;Node7 -->
<g id="edge8" class="edge">
<title>Node6&#45;&gt;Node7</title>
<path fill="none" stroke="midnightblue" d="M1024.9,-535.23C1020.52,-537.59 1016.47,-540.48 1013,-544 968.22,-589.47 1021.68,-637.44 977,-683 970.47,-689.66 962.01,-694.26 953.13,-697.42"/>
<polygon fill="midnightblue" stroke="midnightblue" points="1026.54,-538.33 1034.26,-531.08 1023.7,-531.94 1026.54,-538.33"/>
</g>
<!-- Node15 -->
<g id="node12" class="node">
<title>Node15</title>
<g id="a_node12"><a xlink:href="app__manager_8c.html#a26a59b0004c449cd7610ce8ef8de4b0c" target="_top" xlink:title=" ">
<polygon fill="white" stroke="black" points="847,-581.5 847,-600.5 955,-600.5 955,-581.5 847,-581.5"/>
<text text-anchor="middle" x="901" y="-588.5" font-family="Helvetica,sans-Serif" font-size="10.00">AM_initialize_app_</text>
</a>
</g>
</g>
<!-- Node6&#45;&gt;Node15 -->
<g id="edge13" class="edge">
<title>Node6&#45;&gt;Node15</title>
<path fill="none" stroke="midnightblue" d="M1027.54,-537.8C1022.52,-539.63 1017.6,-541.69 1013,-544 994.88,-553.09 995.21,-563.1 977,-572 969.16,-575.83 960.46,-578.95 951.85,-581.45"/>
<polygon fill="midnightblue" stroke="midnightblue" points="1028.86,-541.05 1037.24,-534.56 1026.64,-534.41 1028.86,-541.05"/>
</g>
<!-- Node18 -->
<g id="node15" class="node">
<title>Node18</title>
<g id="a_node15"><a xlink:href="app__manager_8h.html#a79534e648013966f9c1243f62eda140f" target="_top" xlink:title=" ">
<polygon fill="white" stroke="black" points="856.5,-920.5 856.5,-939.5 945.5,-939.5 945.5,-920.5 856.5,-920.5"/>
<text text-anchor="middle" x="901" y="-927.5" font-family="Helvetica,sans-Serif" font-size="10.00">AM_register_ai</text>
</a>
</g>
</g>
<!-- Node6&#45;&gt;Node18 -->
<g id="edge18" class="edge">
<title>Node6&#45;&gt;Node18</title>
<path fill="none" stroke="midnightblue" d="M1025.03,-534.26C1020.49,-536.81 1016.37,-540 1013,-544 907.69,-669.01 1082.81,-785.42 977,-910 969.15,-919.24 957.55,-924.46 945.8,-927.34"/>
<polygon fill="midnightblue" stroke="midnightblue" points="1026.52,-537.43 1034.18,-530.11 1023.62,-531.05 1026.52,-537.43"/>
</g>
<!-- Node22 -->
<g id="node19" class="node">
<title>Node22</title>
<g id="a_node19"><a xlink:href="event__logger_8h.html#a6cabd560aa69cd66a8c42a9ea7a8afe7" target="_top" xlink:title=" ">
<polygon fill="white" stroke="black" points="831,-881.5 831,-900.5 971,-900.5 971,-881.5 831,-881.5"/>
<text text-anchor="middle" x="901" y="-888.5" font-family="Helvetica,sans-Serif" font-size="10.00">Cmd_EL_RECORD_EVENT</text>
</a>
</g>
</g>
<!-- Node6&#45;&gt;Node22 -->
<g id="edge24" class="edge">
<title>Node6&#45;&gt;Node22</title>
<path fill="none" stroke="midnightblue" d="M1025.08,-534.3C1020.53,-536.84 1016.39,-540.02 1013,-544 918.42,-654.92 1071.34,-758.87 977,-870 972.97,-874.74 967.97,-878.46 962.48,-881.36"/>
<polygon fill="midnightblue" stroke="midnightblue" points="1026.57,-537.47 1034.24,-530.16 1023.69,-531.09 1026.57,-537.47"/>
</g>
<!-- Node23 -->
<g id="node20" class="node">
<title>Node23</title>
<g id="a_node20"><a xlink:href="timeline__command__dispatcher_8h.html#ab14293144452e7b6fc45af33d5db0c11" target="_top" xlink:title=" ">
<polygon fill="white" stroke="black" points="825,-841.5 825,-860.5 977,-860.5 977,-841.5 825,-841.5"/>
<text text-anchor="middle" x="901" y="-848.5" font-family="Helvetica,sans-Serif" font-size="10.00">Cmd_TLCD_DEPLOY_BLOCK</text>
</a>
</g>
</g>
<!-- Node6&#45;&gt;Node23 -->
<g id="edge26" class="edge">
<title>Node6&#45;&gt;Node23</title>
<path fill="none" stroke="midnightblue" d="M1025.14,-534.36C1020.58,-536.89 1016.42,-540.05 1013,-544 929.94,-639.8 1058.08,-729.52 977,-827 971.75,-833.31 964.85,-837.98 957.35,-841.43"/>
<polygon fill="midnightblue" stroke="midnightblue" points="1026.64,-537.53 1034.33,-530.23 1023.77,-531.14 1026.64,-537.53"/>
</g>
<!-- Node24 -->
<g id="node21" class="node">
<title>Node24</title>
<g id="a_node21"><a xlink:href="divided__cmd__utility_8c.html#a9bfb4e0540d42e883eb88b7ea7e9a6f9" target="_top" xlink:title="先頭に該当コマンドのログをつくる">
<polygon fill="white" stroke="black" points="828,-454.5 828,-473.5 974,-473.5 974,-454.5 828,-454.5"/>
<text text-anchor="middle" x="901" y="-461.5" font-family="Helvetica,sans-Serif" font-size="10.00">DCU_create_log_on_front_</text>
</a>
</g>
</g>
<!-- Node6&#45;&gt;Node24 -->
<g id="edge28" class="edge">
<title>Node6&#45;&gt;Node24</title>
<path fill="none" stroke="midnightblue" d="M1032.82,-512.58C1026.1,-510.56 1019.34,-508.35 1013,-506 996.41,-499.85 993.42,-495.59 977,-489 962.86,-483.33 946.88,-477.87 933.32,-473.52"/>
<polygon fill="midnightblue" stroke="midnightblue" points="1032,-515.99 1042.58,-515.41 1033.95,-509.26 1032,-515.99"/>
</g>
<!-- Node36 -->
<g id="node26" class="node">
<title>Node36</title>
<g id="a_node26"><a xlink:href="event__handler_8c.html#aa6c5760770a17a2baba1e6f62fa8bfde" target="_top" xlink:title="EL 側の EL_Event のカウンタをチェックし，整合性を確認する">
<polygon fill="white" stroke="black" points="267.5,-128.5 267.5,-147.5 425.5,-147.5 425.5,-128.5 267.5,-128.5"/>
<text text-anchor="middle" x="346.5" y="-135.5" font-family="Helvetica,sans-Serif" font-size="10.00">EH_check_el_event_counter_</text>
</a>
</g>
</g>
<!-- Node6&#45;&gt;Node36 -->
<g id="edge33" class="edge">
<title>Node6&#45;&gt;Node36</title>
<path fill="none" stroke="midnightblue" d="M1025.05,-515.72C1020.51,-513.17 1016.38,-509.98 1013,-506 963.43,-447.55 1031.3,-217.09 977,-163 901.59,-87.88 577,-112.53 425.7,-128.67"/>
<polygon fill="midnightblue" stroke="midnightblue" points="1023.66,-518.93 1034.21,-519.86 1026.54,-512.55 1023.66,-518.93"/>
</g>
<!-- Node41 -->
<g id="node28" class="node">
<title>Node41</title>
<g id="a_node28"><a xlink:href="event__handler_8c.html#a6f0a35f30f997892cca6b09c225e4688" target="_top" xlink:title="最も古い EL_Event を１つ取得し， EL_Event に対応する EH_Rule が存在するかチェックし，対応する">
<polygon fill="white" stroke="black" points="110,-214 110,-244 230,-244 230,-214 110,-214"/>
<text text-anchor="start" x="118" y="-232" font-family="Helvetica,sans-Serif" font-size="10.00">EH_check_event_and</text>
<text text-anchor="middle" x="170" y="-221" font-family="Helvetica,sans-Serif" font-size="10.00">_respond_</text>
</a>
</g>
</g>
<!-- Node6&#45;&gt;Node41 -->
<g id="edge35" class="edge">
<title>Node6&#45;&gt;Node41</title>
<path fill="none" stroke="midnightblue" d="M1024.92,-513.21C1020.69,-511.18 1016.65,-508.79 1013,-506 988,-486.87 1002.5,-463.45 977,-445 877.49,-372.99 829.83,-386 707,-386 707,-386 707,-386 524,-386 385.16,-386 240.05,-283.35 189.59,-244.05"/>
<polygon fill="midnightblue" stroke="midnightblue" points="1023.86,-516.56 1034.44,-517.12 1026.52,-510.08 1023.86,-516.56"/>
</g>
<!-- Node42 -->
<g id="node29" class="node">
<title>Node42</title>
<g id="a_node29"><a xlink:href="event__handler_8c.html#ae88a5f73ec5311c9fa7311d086103109" target="_top" xlink:title="EH の対応条件をチェックし， EL_Event に対応する">
<polygon fill="white" stroke="black" points="266,-245.5 266,-264.5 427,-264.5 427,-245.5 266,-245.5"/>
<text text-anchor="middle" x="346.5" y="-252.5" font-family="Helvetica,sans-Serif" font-size="10.00">EH_check_rule_and_respond_</text>
</a>
</g>
</g>
<!-- Node6&#45;&gt;Node42 -->
<g id="edge37" class="edge">
<title>Node6&#45;&gt;Node42</title>
<path fill="none" stroke="midnightblue" d="M1024.94,-514.74C1020.55,-512.38 1016.48,-509.51 1013,-506 969.53,-462.26 1024.33,-411.53 977,-372 889.03,-298.52 571.56,-365.78 463,-329 420.37,-314.56 377.73,-281.11 358.33,-264.59"/>
<polygon fill="midnightblue" stroke="midnightblue" points="1023.74,-518.03 1034.3,-518.88 1026.57,-511.63 1023.74,-518.03"/>
</g>
<!-- Node43 -->
<g id="node30" class="node">
<title>Node43</title>
<g id="a_node30"><a xlink:href="event__handler_8c.html#a77f7769c0392e3092be9b96df1159033" target="_top" xlink:title="EH_Rule を EH_RuleTable と EH_RuleSortedIndex から削除する">
<polygon fill="white" stroke="black" points="838.5,-798.5 838.5,-817.5 963.5,-817.5 963.5,-798.5 838.5,-798.5"/>
<text text-anchor="middle" x="901" y="-805.5" font-family="Helvetica,sans-Serif" font-size="10.00">EH_delete_rule_table_</text>
</a>
</g>
</g>
<!-- Node6&#45;&gt;Node43 -->
<g id="edge39" class="edge">
<title>Node6&#45;&gt;Node43</title>
<path fill="none" stroke="midnightblue" d="M1025.25,-534.45C1020.66,-536.96 1016.47,-540.1 1013,-544 942.5,-623.3 1043.92,-697.66 977,-780 970.16,-788.41 960.53,-794.3 950.44,-798.42"/>
<polygon fill="midnightblue" stroke="midnightblue" points="1026.74,-537.61 1034.45,-530.35 1023.9,-531.22 1026.74,-537.61"/>
</g>
<!-- Node45 -->
<g id="node32" class="node">
<title>Node45</title>
<g id="a_node32"><a xlink:href="event__handler_8c.html#a5ce774f31ba9167015120126261d4a5e" target="_top" xlink:title="まだ処理していない最も古い EL_Event を返す">
<polygon fill="white" stroke="black" points="284,-193.5 284,-212.5 409,-212.5 409,-193.5 284,-193.5"/>
<text text-anchor="middle" x="346.5" y="-200.5" font-family="Helvetica,sans-Serif" font-size="10.00">EH_get_oldest_event_</text>
</a>
</g>
</g>
<!-- Node6&#45;&gt;Node45 -->
<g id="edge42" class="edge">
<title>Node6&#45;&gt;Node45</title>
<path fill="none" stroke="midnightblue" d="M1025.21,-515.59C1020.63,-513.07 1016.45,-509.92 1013,-506 937.96,-420.74 1055.74,-334.85 977,-253 813.4,-82.93 479.87,-163.51 377.84,-193.47"/>
<polygon fill="midnightblue" stroke="midnightblue" points="1023.84,-518.81 1034.4,-519.7 1026.7,-512.42 1023.84,-518.81"/>
</g>
<!-- Node46 -->
<g id="node33" class="node">
<title>Node46</title>
<g id="a_node33"><a xlink:href="event__handler_8c.html#aea878950d4dd21be914534ab13f78e9b" target="_top" xlink:title="EH 対応のログを残す">
<polygon fill="white" stroke="black" points="827,-262.5 827,-281.5 975,-281.5 975,-262.5 827,-262.5"/>
<text text-anchor="middle" x="901" y="-269.5" font-family="Helvetica,sans-Serif" font-size="10.00">EH_record_responded_log_</text>
</a>
</g>
</g>
<!-- Node6&#45;&gt;Node46 -->
<g id="edge44" class="edge">
<title>Node6&#45;&gt;Node46</title>
<path fill="none" stroke="midnightblue" d="M1024.77,-515.18C1020.39,-512.74 1016.37,-509.72 1013,-506 949.43,-435.81 1039.11,-367.48 977,-296 971.53,-289.71 964.41,-285.05 956.73,-281.6"/>
<polygon fill="midnightblue" stroke="midnightblue" points="1023.64,-518.51 1034.2,-519.44 1026.53,-512.13 1023.64,-518.51"/>
</g>
<!-- Node47 -->
<g id="node34" class="node">
<title>Node47</title>
<g id="a_node34"><a xlink:href="event__handler_8c.html#a8d7de705ac2b09f9f25644f0c9f55952" target="_top" xlink:title="EH 対応を実施">
<polygon fill="white" stroke="black" points="666,-262.5 666,-281.5 746,-281.5 746,-262.5 666,-262.5"/>
<text text-anchor="middle" x="706" y="-269.5" font-family="Helvetica,sans-Serif" font-size="10.00">EH_respond_</text>
</a>
</g>
</g>
<!-- Node6&#45;&gt;Node47 -->
<g id="edge52" class="edge">
<title>Node6&#45;&gt;Node47</title>
<path fill="none" stroke="midnightblue" d="M1024.92,-515.05C1020.5,-512.63 1016.43,-509.66 1013,-506 959.52,-449.08 1031.69,-389.76 977,-334 960.84,-317.52 817.04,-290.88 746.16,-278.6"/>
<polygon fill="midnightblue" stroke="midnightblue" points="1023.82,-518.39 1034.38,-519.27 1026.67,-512 1023.82,-518.39"/>
</g>
<!-- Node51 -->
<g id="node38" class="node">
<title>Node51</title>
<g id="a_node38"><a xlink:href="mode__manager_8c.html#a47323ca76824c1d3acd39db890aea966" target="_top" xlink:title="Cmd_MM_FINISH_TRANSITIONの実体">
<polygon fill="white" stroke="black" points="839.5,-751.5 839.5,-770.5 962.5,-770.5 962.5,-751.5 839.5,-751.5"/>
<text text-anchor="middle" x="901" y="-758.5" font-family="Helvetica,sans-Serif" font-size="10.00">MM_finish_transition_</text>
</a>
</g>
</g>
<!-- Node6&#45;&gt;Node51 -->
<g id="edge53" class="edge">
<title>Node6&#45;&gt;Node51</title>
<path fill="none" stroke="midnightblue" d="M1024.89,-534.92C1020.48,-537.35 1016.42,-540.33 1013,-544 957.67,-603.36 1026.12,-658.41 977,-723 966.75,-736.48 950.39,-745.54 935.56,-751.43"/>
<polygon fill="midnightblue" stroke="midnightblue" points="1026.64,-537.97 1034.34,-530.69 1023.78,-531.58 1026.64,-537.97"/>
</g>
<!-- Node53 -->
<g id="node40" class="node">
<title>Node53</title>
<g id="a_node40"><a xlink:href="mode__manager_8c.html#ae4381c1c84d8b5d8aa033e522530436d" target="_top" xlink:title="Cmd_MM_START_TRANSITIONの実体">
<polygon fill="white" stroke="black" points="841.5,-654.5 841.5,-673.5 960.5,-673.5 960.5,-654.5 841.5,-654.5"/>
<text text-anchor="middle" x="901" y="-661.5" font-family="Helvetica,sans-Serif" font-size="10.00">MM_start_transition_</text>
</a>
</g>
</g>
<!-- Node6&#45;&gt;Node53 -->
<g id="edge56" class="edge">
<title>Node6&#45;&gt;Node53</title>
<path fill="none" stroke="midnightblue" d="M1024.82,-536.66C1020.61,-538.72 1016.6,-541.14 1013,-544 986.81,-564.75 999.11,-584.95 977,-610 960.33,-628.89 935.9,-644.92 919.5,-654.49"/>
<polygon fill="midnightblue" stroke="midnightblue" points="1026.42,-539.78 1034.3,-532.7 1023.72,-533.32 1026.42,-539.78"/>
</g>
<!-- Node56 -->
<g id="node43" class="node">
<title>Node56</title>
<g id="a_node43"><a xlink:href="task__dispatcher_8c.html#aa6835d29f6d61ff30f70aaebdf0d7df9" target="_top" xlink:title="TDSP_info_.task_list_id に登録された BC を TaskListに展開.">
<polygon fill="white" stroke="black" points="837,-532 837,-562 965,-562 965,-532 837,-532"/>
<text text-anchor="start" x="845" y="-550" font-family="Helvetica,sans-Serif" font-size="10.00">TDSP_deploy_block_as</text>
<text text-anchor="middle" x="901" y="-539" font-family="Helvetica,sans-Serif" font-size="10.00">_task_list_</text>
</a>
</g>
</g>
<!-- Node6&#45;&gt;Node56 -->
<g id="edge61" class="edge">
<title>Node6&#45;&gt;Node56</title>
<path fill="none" stroke="midnightblue" d="M1024.06,-532.08C1005.29,-534.38 984.39,-536.93 965.25,-539.27"/>
<polygon fill="midnightblue" stroke="midnightblue" points="1024.73,-535.53 1034.24,-530.84 1023.89,-528.58 1024.73,-535.53"/>
</g>
<!-- Node57 -->
<g id="node44" class="node">
<title>Node57</title>
<g id="a_node44"><a xlink:href="task__dispatcher_8h.html#ac880fe6e26ecdf8711d08980cad6787d" target="_top" xlink:title="現在時刻に応じて、TaskList から Cmd を一つ実行する or TaskList を再展開する">
<polygon fill="white" stroke="black" points="648,-491 648,-521 764,-521 764,-491 648,-491"/>
<text text-anchor="start" x="656" y="-509" font-family="Helvetica,sans-Serif" font-size="10.00">TDSP_execute_pl_as</text>
<text text-anchor="middle" x="706" y="-498" font-family="Helvetica,sans-Serif" font-size="10.00">_task_list</text>
</a>
</g>
</g>
<!-- Node6&#45;&gt;Node57 -->
<g id="edge66" class="edge">
<title>Node6&#45;&gt;Node57</title>
<path fill="none" stroke="midnightblue" d="M1024.05,-522.06C953.31,-518.48 834.43,-512.46 764.08,-508.89"/>
<polygon fill="midnightblue" stroke="midnightblue" points="1023.96,-525.56 1034.13,-522.57 1024.32,-518.57 1023.96,-525.56"/>
</g>
<!-- Node61 -->
<g id="node47" class="node">
<title>Node61</title>
<g id="a_node47"><a xlink:href="timeline__command__dispatcher_8c.html#a81ac915e803ac30a27f6488af9ce45ad" target="_top" xlink:title=" ">
<polygon fill="white" stroke="black" points="856,-57.5 856,-76.5 946,-76.5 946,-57.5 856,-57.5"/>
<text text-anchor="middle" x="901" y="-64.5" font-family="Helvetica,sans-Serif" font-size="10.00">tlc_dispatcher_</text>
</a>
</g>
</g>
<!-- Node6&#45;&gt;Node61 -->
<g id="edge67" class="edge">
<title>Node6&#45;&gt;Node61</title>
<path fill="none" stroke="midnightblue" d="M1025.19,-515.88C1020.58,-513.3 1016.4,-510.07 1013,-506 956.32,-438.21 1024.72,-184.37 977,-110 966.71,-93.96 948.17,-83.25 932.1,-76.53"/>
<polygon fill="midnightblue" stroke="midnightblue" points="1023.93,-519.15 1034.49,-520.05 1026.8,-512.76 1023.93,-519.15"/>
</g>
<!-- Node8 -->
<g id="node8" class="node">
<title>Node8</title>
<g id="a_node8"><a xlink:href="app__manager_8h.html#acc6840cc30186a9c0f9d91c740bf1886" target="_top" xlink:title=" ">
<polygon fill="white" stroke="black" points="639,-730.5 639,-749.5 773,-749.5 773,-730.5 639,-730.5"/>
<text text-anchor="middle" x="706" y="-737.5" font-family="Helvetica,sans-Serif" font-size="10.00">Cmd_AM_EXECUTE_APP</text>
</a>
</g>
</g>
<!-- Node7&#45;&gt;Node8 -->
<g id="edge9" class="edge">
<title>Node7&#45;&gt;Node8</title>
<path fill="none" stroke="midnightblue" d="M838.93,-715.39C812.97,-720.23 783.03,-725.82 758.25,-730.44"/>
<polygon fill="midnightblue" stroke="midnightblue" points="839.85,-718.78 849.04,-713.51 838.57,-711.9 839.85,-718.78"/>
</g>
<!-- Node9 -->
<g id="node9" class="node">
<title>Node9</title>
<g id="a_node9"><a xlink:href="command__definitions_8c.html#aa375895192b16d8e7f0ff4545b54e6c4" target="_top" xlink:title="Cmd Tableのロード">
<polygon fill="white" stroke="black" points="468.5,-768.5 468.5,-787.5 581.5,-787.5 581.5,-768.5 468.5,-768.5"/>
<text text-anchor="middle" x="525" y="-775.5" font-family="Helvetica,sans-Serif" font-size="10.00">CA_load_cmd_table</text>
</a>
</g>
</g>
<!-- Node8&#45;&gt;Node9 -->
<g id="edge10" class="edge">
<title>Node8&#45;&gt;Node9</title>
<path fill="none" stroke="midnightblue" d="M649.98,-751.68C624.59,-757.07 594.84,-763.39 570.84,-768.48"/>
<polygon fill="midnightblue" stroke="midnightblue" points="650.78,-755.09 659.83,-749.59 649.32,-748.24 650.78,-755.09"/>
</g>
<!-- Node10 -->
<g id="node10" class="node">
<title>Node10</title>
<g id="a_node10"><a xlink:href="command__analyze_8h.html#ae6d1f376bf4e1c9c4b63bc3f04924c8a" target="_top" xlink:title="CA の初期化">
<polygon fill="white" stroke="black" points="308,-730.5 308,-749.5 385,-749.5 385,-730.5 308,-730.5"/>
<text text-anchor="middle" x="346.5" y="-737.5" font-family="Helvetica,sans-Serif" font-size="10.00">CA_initialize</text>
</a>
</g>
</g>
<!-- Node9&#45;&gt;Node10 -->
<g id="edge11" class="edge">
<title>Node9&#45;&gt;Node10</title>
<path fill="none" stroke="midnightblue" d="M469.63,-766.29C442.25,-760.4 409.75,-753.4 385.15,-748.11"/>
<polygon fill="midnightblue" stroke="midnightblue" points="468.95,-769.73 479.46,-768.41 470.42,-762.88 468.95,-769.73"/>
</g>
<!-- Node11 -->
<g id="node11" class="node">
<title>Node11</title>
<g id="a_node11"><a xlink:href="c2a__core__main_8h.html#a65ecdc63d8762ffde4db7f6c6e6f07cf" target="_top" xlink:title=" ">
<polygon fill="white" stroke="red" points="128.5,-654.5 128.5,-673.5 211.5,-673.5 211.5,-654.5 128.5,-654.5"/>
<text text-anchor="middle" x="170" y="-661.5" font-family="Helvetica,sans-Serif" font-size="10.00">C2A_core_init</text>
</a>
</g>
</g>
<!-- Node10&#45;&gt;Node11 -->
<g id="edge12" class="edge">
<title>Node10&#45;&gt;Node11</title>
<path fill="none" stroke="midnightblue" d="M314.12,-726.33C279.15,-711.1 223.5,-686.87 192.92,-673.55"/>
<polygon fill="midnightblue" stroke="midnightblue" points="312.83,-729.59 323.4,-730.37 315.63,-723.17 312.83,-729.59"/>
</g>
<!-- Node16 -->
<g id="node13" class="node">
<title>Node16</title>
<g id="a_node13"><a xlink:href="app__manager_8h.html#a4cc7cbb82adf461396826ab31fe4415f" target="_top" xlink:title=" ">
<polygon fill="white" stroke="black" points="284,-610.5 284,-629.5 409,-629.5 409,-610.5 284,-610.5"/>
<text text-anchor="middle" x="346.5" y="-617.5" font-family="Helvetica,sans-Serif" font-size="10.00">AM_initialize_all_apps</text>
</a>
</g>
</g>
<!-- Node15&#45;&gt;Node16 -->
<g id="edge14" class="edge">
<title>Node15&#45;&gt;Node16</title>
<path fill="none" stroke="midnightblue" d="M836.77,-594.32C729.87,-599.93 514.76,-611.22 409.02,-616.77"/>
<polygon fill="midnightblue" stroke="midnightblue" points="836.97,-597.81 846.77,-593.79 836.6,-590.82 836.97,-597.81"/>
</g>
<!-- Node17 -->
<g id="node14" class="node">
<title>Node17</title>
<g id="a_node14"><a xlink:href="app__manager_8h.html#a1276b643978eb168980957d7307f1b59" target="_top" xlink:title=" ">
<polygon fill="white" stroke="black" points="636,-616.5 636,-635.5 776,-635.5 776,-616.5 636,-616.5"/>
<text text-anchor="middle" x="706" y="-623.5" font-family="Helvetica,sans-Serif" font-size="10.00">Cmd_AM_INITIALIZE_APP</text>
</a>
</g>
</g>
<!-- Node15&#45;&gt;Node17 -->
<g id="edge16" class="edge">
<title>Node15&#45;&gt;Node17</title>
<path fill="none" stroke="midnightblue" d="M837.67,-602.3C812.44,-606.88 783.61,-612.11 759.47,-616.48"/>
<polygon fill="midnightblue" stroke="midnightblue" points="838.3,-605.75 847.52,-600.52 837.05,-598.86 838.3,-605.75"/>
</g>
<!-- Node16&#45;&gt;Node11 -->
<g id="edge15" class="edge">
<title>Node16&#45;&gt;Node11</title>
<path fill="none" stroke="midnightblue" d="M297.66,-632.06C269.68,-639.12 234.84,-647.9 208.79,-654.47"/>
<polygon fill="midnightblue" stroke="midnightblue" points="298.8,-635.39 307.64,-629.55 297.08,-628.6 298.8,-635.39"/>
</g>
<!-- Node17&#45;&gt;Node9 -->
<g id="edge17" class="edge">
<title>Node17&#45;&gt;Node9</title>
<path fill="none" stroke="midnightblue" d="M680.99,-641.16C664.22,-652.1 641.6,-667.61 623,-683 588.31,-711.7 551.39,-750.46 534.88,-768.29"/>
<polygon fill="midnightblue" stroke="midnightblue" points="683.13,-643.94 689.64,-635.57 679.34,-638.06 683.13,-643.94"/>
</g>
<!-- Node19 -->
<g id="node16" class="node">
<title>Node19</title>
<g id="a_node16"><a xlink:href="app__registry_8c.html#a2da852209e46150e0940e559e981b582" target="_top" xlink:title=" ">
<polygon fill="white" stroke="black" points="656.5,-958.5 656.5,-977.5 755.5,-977.5 755.5,-958.5 656.5,-958.5"/>
<text text-anchor="middle" x="706" y="-965.5" font-family="Helvetica,sans-Serif" font-size="10.00">add_application_</text>
</a>
</g>
</g>
<!-- Node18&#45;&gt;Node19 -->
<g id="edge19" class="edge">
<title>Node18&#45;&gt;Node19</title>
<path fill="none" stroke="midnightblue" d="M846.02,-940.63C817.57,-946.23 782.94,-953.05 755.36,-958.48"/>
<polygon fill="midnightblue" stroke="midnightblue" points="847.07,-943.99 856.21,-938.62 845.72,-937.12 847.07,-943.99"/>
</g>
<!-- Node21 -->
<g id="node18" class="node">
<title>Node21</title>
<g id="a_node18"><a xlink:href="app__manager_8h.html#a8262872fe48790636c1cc7fa7cb0da97" target="_top" xlink:title=" ">
<polygon fill="white" stroke="black" points="637.5,-920.5 637.5,-939.5 774.5,-939.5 774.5,-920.5 637.5,-920.5"/>
<text text-anchor="middle" x="706" y="-927.5" font-family="Helvetica,sans-Serif" font-size="10.00">Cmd_AM_REGISTER_APP</text>
</a>
</g>
</g>
<!-- Node18&#45;&gt;Node21 -->
<g id="edge22" class="edge">
<title>Node18&#45;&gt;Node21</title>
<path fill="none" stroke="midnightblue" d="M846.02,-930C823.96,-930 798.18,-930 774.86,-930"/>
<polygon fill="midnightblue" stroke="midnightblue" points="846.21,-933.5 856.21,-930 846.21,-926.5 846.21,-933.5"/>
</g>
<!-- Node20 -->
<g id="node17" class="node">
<title>Node20</title>
<g id="a_node17"><a xlink:href="app__registry_8h.html#ab944b1d78a41e427bc2ed57f9c4e9534" target="_top" xlink:title=" ">
<polygon fill="white" stroke="black" points="279.5,-825.5 279.5,-844.5 413.5,-844.5 413.5,-825.5 279.5,-825.5"/>
<text text-anchor="middle" x="346.5" y="-832.5" font-family="Helvetica,sans-Serif" font-size="10.00">AR_load_initial_settings</text>
</a>
</g>
</g>
<!-- Node19&#45;&gt;Node20 -->
<g id="edge20" class="edge">
<title>Node19&#45;&gt;Node20</title>
<path fill="none" stroke="midnightblue" d="M647.99,-956.07C639.55,-953.93 631,-951.56 623,-949 524.66,-917.5 412.28,-865.86 367.46,-844.6"/>
<polygon fill="midnightblue" stroke="midnightblue" points="647.26,-959.49 657.81,-958.46 648.92,-952.69 647.26,-959.49"/>
</g>
<!-- Node20&#45;&gt;Node11 -->
<g id="edge21" class="edge">
<title>Node20&#45;&gt;Node11</title>
<path fill="none" stroke="midnightblue" d="M327.75,-818.25C311.57,-802.92 287.04,-779.58 266,-759 234.31,-728.02 197.33,-690.69 180.37,-673.51"/>
<polygon fill="midnightblue" stroke="midnightblue" points="325.72,-821.15 335.39,-825.47 330.53,-816.06 325.72,-821.15"/>
</g>
<!-- Node21&#45;&gt;Node9 -->
<g id="edge23" class="edge">
<title>Node21&#45;&gt;Node9</title>
<path fill="none" stroke="midnightblue" d="M644.19,-917.03C636.71,-914.07 629.44,-910.44 623,-906 576.17,-873.72 542.38,-811.6 530.58,-787.7"/>
<polygon fill="midnightblue" stroke="midnightblue" points="643.13,-920.37 653.73,-920.44 645.49,-913.78 643.13,-920.37"/>
</g>
<!-- Node22&#45;&gt;Node9 -->
<g id="edge25" class="edge">
<title>Node22&#45;&gt;Node9</title>
<path fill="none" stroke="midnightblue" d="M820.83,-893.73C763.68,-892.92 685.85,-885.97 623,-859 584.29,-842.39 549.08,-805.13 533.9,-787.54"/>
<polygon fill="midnightblue" stroke="midnightblue" points="820.86,-897.23 830.89,-893.81 820.92,-890.23 820.86,-897.23"/>
</g>
<!-- Node23&#45;&gt;Node9 -->
<g id="edge27" class="edge">
<title>Node23&#45;&gt;Node9</title>
<path fill="none" stroke="midnightblue" d="M814.67,-856.3C758.96,-857.3 685.27,-853.89 623,-835 589.54,-824.85 555.45,-801.03 537.97,-787.61"/>
<polygon fill="midnightblue" stroke="midnightblue" points="814.94,-859.8 824.86,-856.07 814.78,-852.8 814.94,-859.8"/>
</g>
<!-- Node25 -->
<g id="node22" class="node">
<title>Node25</title>
<g id="a_node22"><a xlink:href="divided__cmd__utility_8c.html#a2fed1ffbed2edbe0c08102c071f2edcf" target="_top" xlink:title="該当コマンドのログを，ログの先頭に出す">
<polygon fill="white" stroke="red" points="628.5,-452.5 628.5,-471.5 783.5,-471.5 783.5,-452.5 628.5,-452.5"/>
<text text-anchor="middle" x="706" y="-459.5" font-family="Helvetica,sans-Serif" font-size="10.00">DCU_move_to_front_in_log_</text>
</a>
</g>
</g>
<!-- Node24&#45;&gt;Node25 -->
<g id="edge29" class="edge">
<title>Node24&#45;&gt;Node25</title>
<path fill="none" stroke="midnightblue" d="M817.59,-463.15C806.3,-463.03 794.75,-462.91 783.57,-462.79"/>
<polygon fill="midnightblue" stroke="midnightblue" points="817.82,-466.65 827.86,-463.25 817.9,-459.65 817.82,-466.65"/>
</g>
<!-- Node26 -->
<g id="node23" class="node">
<title>Node26</title>
<g id="a_node23"><a xlink:href="divided__cmd__utility_8h.html#a14a7fb7ac0a231142d85734218d1d117" target="_top" xlink:title="実行中の分割コマンドを外部から強制的に中断させる">
<polygon fill="white" stroke="red" points="477.5,-414.5 477.5,-433.5 572.5,-433.5 572.5,-414.5 477.5,-414.5"/>
<text text-anchor="middle" x="525" y="-421.5" font-family="Helvetica,sans-Serif" font-size="10.00">DCU_abort_cmd</text>
</a>
</g>
</g>
<!-- Node25&#45;&gt;Node26 -->
<g id="edge30" class="edge">
<title>Node25&#45;&gt;Node26</title>
<path fill="none" stroke="midnightblue" d="M649.98,-450.32C624.59,-444.93 594.84,-438.61 570.84,-433.52"/>
<polygon fill="midnightblue" stroke="midnightblue" points="649.32,-453.76 659.83,-452.41 650.78,-446.91 649.32,-453.76"/>
</g>
<!-- Node28 -->
<g id="node24" class="node">
<title>Node28</title>
<g id="a_node24"><a xlink:href="divided__cmd__utility_8h.html#aaad403eb696499ec36e837376be62c2a" target="_top" xlink:title="DCUにチェックインする．分割コマンド実行時，最初に呼び出す関数．">
<polygon fill="white" stroke="red" points="482,-490.5 482,-509.5 568,-509.5 568,-490.5 482,-490.5"/>
<text text-anchor="middle" x="525" y="-497.5" font-family="Helvetica,sans-Serif" font-size="10.00">DCU_check_in</text>
</a>
</g>
</g>
<!-- Node25&#45;&gt;Node28 -->
<g id="edge31" class="edge">
<title>Node25&#45;&gt;Node28</title>
<path fill="none" stroke="midnightblue" d="M649.98,-473.68C623.61,-479.28 592.53,-485.88 568.08,-491.07"/>
<polygon fill="midnightblue" stroke="midnightblue" points="650.78,-477.09 659.83,-471.59 649.32,-470.24 650.78,-477.09"/>
</g>
<!-- Node31 -->
<g id="node25" class="node">
<title>Node31</title>
<g id="a_node25"><a xlink:href="divided__cmd__utility_8h.html#a964ce9f9bbbe021febcd12168eace3d0" target="_top" xlink:title="エラー，またはコマンドによって中断ステータスとなっているコマンドを，実行可能状態に戻す">
<polygon fill="white" stroke="red" points="463,-452.5 463,-471.5 587,-471.5 587,-452.5 463,-452.5"/>
<text text-anchor="middle" x="525" y="-459.5" font-family="Helvetica,sans-Serif" font-size="10.00">DCU_donw_abort_flag</text>
</a>
</g>
</g>
<!-- Node25&#45;&gt;Node31 -->
<g id="edge32" class="edge">
<title>Node25&#45;&gt;Node31</title>
<path fill="none" stroke="midnightblue" d="M618.26,-462C607.74,-462 597.17,-462 587.13,-462"/>
<polygon fill="midnightblue" stroke="midnightblue" points="618.31,-465.5 628.31,-462 618.31,-458.5 618.31,-465.5"/>
</g>
<!-- Node37 -->
<g id="node27" class="node">
<title>Node37</title>
<g id="a_node27"><a xlink:href="event__handler_8h.html#a76ddd224739890733cbd318e2d5c015b" target="_top" xlink:title="event_handler の実行">
<polygon fill="white" stroke="red" points="0,-182.5 0,-201.5 74,-201.5 74,-182.5 0,-182.5"/>
<text text-anchor="middle" x="37" y="-189.5" font-family="Helvetica,sans-Serif" font-size="10.00">EH_execute</text>
</a>
</g>
</g>
<!-- Node36&#45;&gt;Node37 -->
<g id="edge34" class="edge">
<title>Node36&#45;&gt;Node37</title>
<path fill="none" stroke="midnightblue" d="M281.05,-149.32C218.32,-160.33 125.24,-176.68 74.4,-185.61"/>
<polygon fill="midnightblue" stroke="midnightblue" points="281.99,-152.71 291.23,-147.53 280.78,-145.81 281.99,-152.71"/>
</g>
<!-- Node41&#45;&gt;Node37 -->
<g id="edge36" class="edge">
<title>Node41&#45;&gt;Node37</title>
<path fill="none" stroke="midnightblue" d="M105.86,-211.17C94.06,-207.84 82.16,-204.47 71.69,-201.52"/>
<polygon fill="midnightblue" stroke="midnightblue" points="105.14,-214.6 115.72,-213.95 107.05,-207.86 105.14,-214.6"/>
</g>
<!-- Node42&#45;&gt;Node41 -->
<g id="edge38" class="edge">
<title>Node42&#45;&gt;Node41</title>
<path fill="none" stroke="midnightblue" d="M271.53,-243.98C257.68,-241.92 243.38,-239.78 230.06,-237.8"/>
<polygon fill="midnightblue" stroke="midnightblue" points="271.11,-247.45 281.51,-245.47 272.14,-240.53 271.11,-247.45"/>
</g>
<!-- Node44 -->
<g id="node31" class="node">
<title>Node44</title>
<g id="a_node31"><a xlink:href="event__handler_8h.html#a3dcc95a83b2c1e6a0ebaa0bfddc059e1" target="_top" xlink:title=" ">
<polygon fill="white" stroke="black" points="640.5,-806.5 640.5,-825.5 771.5,-825.5 771.5,-806.5 640.5,-806.5"/>
<text text-anchor="middle" x="706" y="-813.5" font-family="Helvetica,sans-Serif" font-size="10.00">Cmd_EH_DELETE_RULE</text>
</a>
</g>
</g>
<!-- Node43&#45;&gt;Node44 -->
<g id="edge40" class="edge">
<title>Node43&#45;&gt;Node44</title>
<path fill="none" stroke="midnightblue" d="M828.25,-810.97C809.7,-811.74 789.84,-812.57 771.67,-813.32"/>
<polygon fill="midnightblue" stroke="midnightblue" points="828.56,-814.46 838.4,-810.55 828.27,-807.47 828.56,-814.46"/>
</g>
<!-- Node44&#45;&gt;Node9 -->
<g id="edge41" class="edge">
<title>Node44&#45;&gt;Node9</title>
<path fill="none" stroke="midnightblue" d="M649.98,-804.32C624.59,-798.93 594.84,-792.61 570.84,-787.52"/>
<polygon fill="midnightblue" stroke="midnightblue" points="649.32,-807.76 659.83,-806.41 650.78,-800.91 649.32,-807.76"/>
</g>
<!-- Node45&#45;&gt;Node41 -->
<g id="edge43" class="edge">
<title>Node45&#45;&gt;Node41</title>
<path fill="none" stroke="midnightblue" d="M274.01,-213.65C259.45,-215.82 244.29,-218.08 230.21,-220.18"/>
<polygon fill="midnightblue" stroke="midnightblue" points="274.6,-217.1 283.98,-212.17 273.57,-210.18 274.6,-217.1"/>
</g>
<!-- Node46&#45;&gt;Node47 -->
<g id="edge45" class="edge">
<title>Node46&#45;&gt;Node47</title>
<path fill="none" stroke="midnightblue" d="M816.7,-272C792.17,-272 766.48,-272 746.13,-272"/>
<polygon fill="midnightblue" stroke="midnightblue" points="816.76,-275.5 826.76,-272 816.76,-268.5 816.76,-275.5"/>
</g>
<!-- Node48 -->
<g id="node35" class="node">
<title>Node48</title>
<g id="a_node35"><a xlink:href="event__handler_8c.html#a2341dd2caef39ab44cf7b7f48677fa7e" target="_top" xlink:title="EH の対応条件をチェックし， EL_Event に対応する (EH_RESPONSE_CONDITION_CONTINUOUS)">
<polygon fill="white" stroke="black" points="464,-191 464,-221 586,-221 586,-191 464,-191"/>
<text text-anchor="start" x="472" y="-209" font-family="Helvetica,sans-Serif" font-size="10.00">EH_check_continuous</text>
<text text-anchor="middle" x="525" y="-198" font-family="Helvetica,sans-Serif" font-size="10.00">_rule_and_respond_</text>
</a>
</g>
</g>
<!-- Node47&#45;&gt;Node48 -->
<g id="edge46" class="edge">
<title>Node47&#45;&gt;Node48</title>
<path fill="none" stroke="midnightblue" d="M669.47,-258.9C639.95,-248.01 597.91,-232.52 566.97,-221.11"/>
<polygon fill="midnightblue" stroke="midnightblue" points="668.38,-262.23 678.97,-262.4 670.8,-255.66 668.38,-262.23"/>
</g>
<!-- Node49 -->
<g id="node36" class="node">
<title>Node49</title>
<g id="a_node36"><a xlink:href="event__handler_8c.html#a8181c591bd4a29577d9b0803924e1feb" target="_top" xlink:title="EH の対応条件をチェックし， EL_Event に対応する (EH_RESPONSE_CONDITION_CUMULATIVE)">
<polygon fill="white" stroke="black" points="463,-289 463,-319 587,-319 587,-289 463,-289"/>
<text text-anchor="start" x="471" y="-307" font-family="Helvetica,sans-Serif" font-size="10.00">EH_check_cumulative</text>
<text text-anchor="middle" x="525" y="-296" font-family="Helvetica,sans-Serif" font-size="10.00">_rule_and_respond_</text>
</a>
</g>
</g>
<!-- Node47&#45;&gt;Node49 -->
<g id="edge48" class="edge">
<title>Node47&#45;&gt;Node49</title>
<path fill="none" stroke="midnightblue" d="M655.63,-280.83C634.4,-284.62 609.38,-289.09 587.01,-293.09"/>
<polygon fill="midnightblue" stroke="midnightblue" points="656.49,-284.23 665.72,-279.02 655.26,-277.34 656.49,-284.23"/>
</g>
<!-- Node50 -->
<g id="node37" class="node">
<title>Node50</title>
<g id="a_node37"><a xlink:href="event__handler_8c.html#a00aa6763c6a5dbb4bd0364e1efc99d96" target="_top" xlink:title="EH の対応条件をチェックし， EL_Event に対応する (EH_RESPONSE_CONDITION_SINGLE)">
<polygon fill="white" stroke="black" points="464,-240 464,-270 586,-270 586,-240 464,-240"/>
<text text-anchor="start" x="472" y="-258" font-family="Helvetica,sans-Serif" font-size="10.00">EH_check_single_rule</text>
<text text-anchor="middle" x="525" y="-247" font-family="Helvetica,sans-Serif" font-size="10.00">_and_respond_</text>
</a>
</g>
</g>
<!-- Node47&#45;&gt;Node50 -->
<g id="edge50" class="edge">
<title>Node47&#45;&gt;Node50</title>
<path fill="none" stroke="midnightblue" d="M655.54,-267.3C634.11,-265.27 608.83,-262.87 586.31,-260.73"/>
<polygon fill="midnightblue" stroke="midnightblue" points="655.43,-270.81 665.72,-268.27 656.09,-263.84 655.43,-270.81"/>
</g>
<!-- Node48&#45;&gt;Node42 -->
<g id="edge47" class="edge">
<title>Node48&#45;&gt;Node42</title>
<path fill="none" stroke="midnightblue" d="M459.67,-223.86C433.29,-231.18 403.83,-239.36 381.73,-245.5"/>
<polygon fill="midnightblue" stroke="midnightblue" points="460.9,-227.15 469.6,-221.1 459.03,-220.4 460.9,-227.15"/>
</g>
<!-- Node49&#45;&gt;Node42 -->
<g id="edge49" class="edge">
<title>Node49&#45;&gt;Node42</title>
<path fill="none" stroke="midnightblue" d="M459.67,-286.14C433.29,-278.82 403.83,-270.64 381.73,-264.5"/>
<polygon fill="midnightblue" stroke="midnightblue" points="459.03,-289.6 469.6,-288.9 460.9,-282.85 459.03,-289.6"/>
</g>
<!-- Node50&#45;&gt;Node42 -->
<g id="edge51" class="edge">
<title>Node50&#45;&gt;Node42</title>
<path fill="none" stroke="midnightblue" d="M453.65,-255C444.94,-255 435.98,-255 427.14,-255"/>
<polygon fill="midnightblue" stroke="midnightblue" points="453.75,-258.5 463.75,-255 453.75,-251.5 453.75,-258.5"/>
</g>
<!-- Node52 -->
<g id="node39" class="node">
<title>Node52</title>
<g id="a_node39"><a xlink:href="mode__manager_8h.html#ac394184090d10b207742dbfe546acf17" target="_top" xlink:title="モード遷移終了を示すコマンド モード遷移のブロックコマンドの最後に入れて使う 入っていない場合、タスクリストが遷移先のモードに置き換わらないので注意">
<polygon fill="white" stroke="black" points="623,-768.5 623,-787.5 789,-787.5 789,-768.5 623,-768.5"/>
<text text-anchor="middle" x="706" y="-775.5" font-family="Helvetica,sans-Serif" font-size="10.00">Cmd_MM_FINISH_TRANSITION</text>
</a>
</g>
</g>
<!-- Node51&#45;&gt;Node52 -->
<g id="edge54" class="edge">
<title>Node51&#45;&gt;Node52</title>
<path fill="none" stroke="midnightblue" d="M829.21,-767.24C816.21,-768.38 802.55,-769.58 789.25,-770.76"/>
<polygon fill="midnightblue" stroke="midnightblue" points="829.81,-770.7 839.46,-766.33 829.19,-763.72 829.81,-770.7"/>
</g>
<!-- Node52&#45;&gt;Node9 -->
<g id="edge55" class="edge">
<title>Node52&#45;&gt;Node9</title>
<path fill="none" stroke="midnightblue" d="M612.66,-778C602.05,-778 591.49,-778 581.58,-778"/>
<polygon fill="midnightblue" stroke="midnightblue" points="612.83,-781.5 622.83,-778 612.83,-774.5 612.83,-781.5"/>
</g>
<!-- Node54 -->
<g id="node41" class="node">
<title>Node54</title>
<g id="a_node41"><a xlink:href="mode__manager_8h.html#aa127fcef7255363d46cf121c9399ce7a" target="_top" xlink:title="モード遷移を開始するコマンド">
<polygon fill="white" stroke="black" points="624.5,-692.5 624.5,-711.5 787.5,-711.5 787.5,-692.5 624.5,-692.5"/>
<text text-anchor="middle" x="706" y="-699.5" font-family="Helvetica,sans-Serif" font-size="10.00">Cmd_MM_START_TRANSITION</text>
</a>
</g>
</g>
<!-- Node53&#45;&gt;Node54 -->
<g id="edge57" class="edge">
<title>Node53&#45;&gt;Node54</title>
<path fill="none" stroke="midnightblue" d="M841.4,-675.54C813.87,-680.96 781.45,-687.34 755.35,-692.48"/>
<polygon fill="midnightblue" stroke="midnightblue" points="842.16,-678.95 851.3,-673.59 840.81,-672.09 842.16,-678.95"/>
</g>
<!-- Node55 -->
<g id="node42" class="node">
<title>Node55</title>
<g id="a_node42"><a xlink:href="mode__manager_8h.html#a89fbf516698fe6c690438e21ec8efd82" target="_top" xlink:title="モード遷移を管理する ModeManager 構造体 (mode_manager_) の初期化">
<polygon fill="white" stroke="black" points="305.5,-654.5 305.5,-673.5 387.5,-673.5 387.5,-654.5 305.5,-654.5"/>
<text text-anchor="middle" x="346.5" y="-661.5" font-family="Helvetica,sans-Serif" font-size="10.00">MM_initialize</text>
</a>
</g>
</g>
<!-- Node53&#45;&gt;Node55 -->
<g id="edge59" class="edge">
<title>Node53&#45;&gt;Node55</title>
<path fill="none" stroke="midnightblue" d="M831.15,-664C714.44,-664 481.32,-664 387.74,-664"/>
<polygon fill="midnightblue" stroke="midnightblue" points="831.4,-667.5 841.4,-664 831.4,-660.5 831.4,-667.5"/>
</g>
<!-- Node54&#45;&gt;Node9 -->
<g id="edge58" class="edge">
<title>Node54&#45;&gt;Node9</title>
<path fill="none" stroke="midnightblue" d="M643.05,-714.22C636.19,-716.2 629.38,-718.45 623,-721 591.25,-733.66 557.58,-755.65 539.45,-768.29"/>
<polygon fill="midnightblue" stroke="midnightblue" points="644.34,-717.5 653.09,-711.51 642.52,-710.74 644.34,-717.5"/>
</g>
<!-- Node55&#45;&gt;Node11 -->
<g id="edge60" class="edge">
<title>Node55&#45;&gt;Node11</title>
<path fill="none" stroke="midnightblue" d="M295.24,-664C268.75,-664 236.68,-664 211.76,-664"/>
<polygon fill="midnightblue" stroke="midnightblue" points="295.47,-667.5 305.47,-664 295.47,-660.5 295.47,-667.5"/>
</g>
<!-- Node56&#45;&gt;Node57 -->
<g id="edge62" class="edge">
<title>Node56&#45;&gt;Node57</title>
<path fill="none" stroke="midnightblue" d="M826.77,-531.44C806.03,-527.04 783.78,-522.31 764.14,-518.14"/>
<polygon fill="midnightblue" stroke="midnightblue" points="826.3,-534.92 836.8,-533.58 827.75,-528.07 826.3,-534.92"/>
</g>
<!-- Node60 -->
<g id="node46" class="node">
<title>Node60</title>
<g id="a_node46"><a xlink:href="task__dispatcher_8h.html#ab4cccbf9d36945e27f8023f9d613a667" target="_top" xlink:title="タスク管理を行うTDSP_Info構造体(TDSP_Info_)の初期化">
<polygon fill="white" stroke="black" points="302,-569.5 302,-588.5 391,-588.5 391,-569.5 302,-569.5"/>
<text text-anchor="middle" x="346.5" y="-576.5" font-family="Helvetica,sans-Serif" font-size="10.00">TDSP_initialize</text>
</a>
</g>
</g>
<!-- Node56&#45;&gt;Node60 -->
<g id="edge64" class="edge">
<title>Node56&#45;&gt;Node60</title>
<path fill="none" stroke="midnightblue" d="M826.63,-551.25C709.98,-558.01 485.79,-570.99 391.25,-576.47"/>
<polygon fill="midnightblue" stroke="midnightblue" points="827.11,-554.73 836.89,-550.66 826.7,-547.74 827.11,-554.73"/>
</g>
<!-- Node58 -->
<g id="node45" class="node">
<title>Node58</title>
<g id="a_node45"><a xlink:href="c2a__core__main_8h.html#a64e3c69d223ce8236ab718278b17b195" target="_top" xlink:title=" ">
<polygon fill="white" stroke="red" points="479,-528.5 479,-547.5 571,-547.5 571,-528.5 479,-528.5"/>
<text text-anchor="middle" x="525" y="-535.5" font-family="Helvetica,sans-Serif" font-size="10.00">C2A_core_main</text>
</a>
</g>
</g>
<!-- Node57&#45;&gt;Node58 -->
<g id="edge63" class="edge">
<title>Node57&#45;&gt;Node58</title>
<path fill="none" stroke="midnightblue" d="M637.82,-518.01C615.61,-521.98 591.44,-526.3 571.27,-529.91"/>
<polygon fill="midnightblue" stroke="midnightblue" points="638.64,-521.42 647.87,-516.21 637.41,-514.53 638.64,-521.42"/>
</g>
<!-- Node60&#45;&gt;Node11 -->
<g id="edge65" class="edge">
<title>Node60&#45;&gt;Node11</title>
<path fill="none" stroke="midnightblue" d="M291.85,-591.34C283.05,-594.08 274.14,-597.29 266,-601 233.77,-615.7 200.16,-640.64 182.87,-654.32"/>
<polygon fill="midnightblue" stroke="midnightblue" points="293.1,-594.63 301.71,-588.46 291.13,-587.91 293.1,-594.63"/>
</g>
<!-- Node62 -->
<g id="node48" class="node">
<title>Node62</title>
<g id="a_node48"><a xlink:href="timeline__command__dispatcher_8c.html#a901708d936509614c56fe989ec93c9ad" target="_top" xlink:title=" ">
<polygon fill="white" stroke="red" points="656,-0.5 656,-19.5 756,-19.5 756,-0.5 656,-0.5"/>
<text text-anchor="middle" x="706" y="-7.5" font-family="Helvetica,sans-Serif" font-size="10.00">TLCD0_dispatch_</text>
</a>
</g>
</g>
<!-- Node61&#45;&gt;Node62 -->
<g id="edge68" class="edge">
<title>Node61&#45;&gt;Node62</title>
<path fill="none" stroke="midnightblue" d="M865.2,-54.06C843.47,-46.24 814.81,-36.39 789,-29 777.06,-25.58 764.01,-22.34 751.9,-19.53"/>
<polygon fill="midnightblue" stroke="midnightblue" points="864.07,-57.38 874.66,-57.5 866.46,-50.8 864.07,-57.38"/>
</g>
<!-- Node64 -->
<g id="node49" class="node">
<title>Node64</title>
<g id="a_node49"><a xlink:href="timeline__command__dispatcher_8c.html#aff4f663a7670bf6eb1be99911bd5cf79" target="_top" xlink:title=" ">
<polygon fill="white" stroke="red" points="656,-76.5 656,-95.5 756,-95.5 756,-76.5 656,-76.5"/>
<text text-anchor="middle" x="706" y="-83.5" font-family="Helvetica,sans-Serif" font-size="10.00">TLCD1_dispatch_</text>
</a>
</g>
</g>
<!-- Node61&#45;&gt;Node64 -->
<g id="edge69" class="edge">
<title>Node61&#45;&gt;Node64</title>
<path fill="none" stroke="midnightblue" d="M845.66,-72.35C817.54,-75.12 783.48,-78.47 756.16,-81.16"/>
<polygon fill="midnightblue" stroke="midnightblue" points="846.11,-75.82 855.72,-71.36 845.43,-68.86 846.11,-75.82"/>
</g>
<!-- Node66 -->
<g id="node50" class="node">
<title>Node66</title>
<g id="a_node50"><a xlink:href="timeline__command__dispatcher_8c.html#aa498bfb7d65299eb0327e26591b69fa4" target="_top" xlink:title=" ">
<polygon fill="white" stroke="red" points="656,-38.5 656,-57.5 756,-57.5 756,-38.5 656,-38.5"/>
<text text-anchor="middle" x="706" y="-45.5" font-family="Helvetica,sans-Serif" font-size="10.00">TLCD2_dispatch_</text>
</a>
</g>
</g>
<!-- Node61&#45;&gt;Node66 -->
<g id="edge70" class="edge">
<title>Node61&#45;&gt;Node66</title>
<path fill="none" stroke="midnightblue" d="M845.66,-61.65C817.54,-58.88 783.48,-55.53 756.16,-52.84"/>
<polygon fill="midnightblue" stroke="midnightblue" points="845.43,-65.14 855.72,-62.64 846.11,-58.18 845.43,-65.14"/>
</g>
</g>
</svg>
