<?xml version="1.0" encoding="UTF-8" standalone="no"?>
<!DOCTYPE svg PUBLIC "-//W3C//DTD SVG 1.1//EN"
 "http://www.w3.org/Graphics/SVG/1.1/DTD/svg11.dtd">
<!-- Generated by graphviz version 2.43.0 (0)
 -->
<!-- Title: Cmd_EH_REGISTER_RULE Pages: 1 -->
<svg width="642pt" height="142pt"
 viewBox="0.00 0.00 642.00 142.00" xmlns="http://www.w3.org/2000/svg" xmlns:xlink="http://www.w3.org/1999/xlink">
<g id="graph0" class="graph" transform="scale(1 1) rotate(0) translate(4 138)">
<title>Cmd_EH_REGISTER_RULE</title>
<polygon fill="white" stroke="transparent" points="-4,4 -4,-138 638,-138 638,4 -4,4"/>
<!-- Node1 -->
<g id="node1" class="node">
<title>Node1</title>
<g id="a_node1"><a xlink:title=" ">
<polygon fill="#bfbfbf" stroke="black" points="0,-76.5 0,-95.5 142,-95.5 142,-76.5 0,-76.5"/>
<text text-anchor="middle" x="71" y="-83.5" font-family="Helvetica,sans-Serif" font-size="10.00">Cmd_EH_REGISTER_RULE</text>
</a>
</g>
</g>
<!-- Node2 -->
<g id="node2" class="node">
<title>Node2</title>
<g id="a_node2"><a xlink:href="common__cmd__packet__util_8c.html#a9e58970e1fdf3fd593d764f353e28562" target="_top" xlink:title="コマンド返り値である CCP_CmdRet を作成（エラーコード不使用版）">
<polygon fill="white" stroke="black" points="178,-101 178,-131 333,-131 333,-101 178,-101"/>
<text text-anchor="start" x="186" y="-119" font-family="Helvetica,sans-Serif" font-size="10.00">CCP_make_cmd_ret_without</text>
<text text-anchor="middle" x="255.5" y="-108" font-family="Helvetica,sans-Serif" font-size="10.00">_err_code</text>
</a>
</g>
</g>
<!-- Node1&#45;&gt;Node2 -->
<g id="edge1" class="edge">
<title>Node1&#45;&gt;Node2</title>
<path fill="none" stroke="midnightblue" d="M129.99,-95.53C142.02,-97.51 154.94,-99.63 167.73,-101.74"/>
<polygon fill="midnightblue" stroke="midnightblue" points="167.52,-105.25 177.95,-103.42 168.65,-98.34 167.52,-105.25"/>
</g>
<!-- Node4 -->
<g id="node4" class="node">
<title>Node4</title>
<g id="a_node4"><a xlink:href="event__handler_8c.html#a081e868576a32e8518a0d73a17c30010" target="_top" xlink:title="ルールの登録">
<polygon fill="white" stroke="black" points="207,-54.5 207,-73.5 304,-73.5 304,-54.5 207,-54.5"/>
<text text-anchor="middle" x="255.5" y="-61.5" font-family="Helvetica,sans-Serif" font-size="10.00">EH_register_rule</text>
</a>
</g>
</g>
<!-- Node1&#45;&gt;Node4 -->
<g id="edge3" class="edge">
<title>Node1&#45;&gt;Node4</title>
<path fill="none" stroke="midnightblue" d="M142.04,-77.56C160.19,-75.37 179.52,-73.04 196.95,-70.94"/>
<polygon fill="midnightblue" stroke="midnightblue" points="197.46,-74.4 206.97,-69.73 196.62,-67.45 197.46,-74.4"/>
</g>
<!-- Node3 -->
<g id="node3" class="node">
<title>Node3</title>
<g id="a_node3"><a xlink:href="common__cmd__packet__util_8c.html#a86a3aeedaeb2eac94c6c86eb0db7f8fd" target="_top" xlink:title="コマンド返り値である CCP_CmdRet を作成">
<polygon fill="white" stroke="black" points="373.5,-114.5 373.5,-133.5 486.5,-133.5 486.5,-114.5 373.5,-114.5"/>
<text text-anchor="middle" x="430" y="-121.5" font-family="Helvetica,sans-Serif" font-size="10.00">CCP_make_cmd_ret</text>
</a>
</g>
</g>
<!-- Node2&#45;&gt;Node3 -->
<g id="edge2" class="edge">
<title>Node2&#45;&gt;Node3</title>
<path fill="none" stroke="midnightblue" d="M333.17,-119.56C343.18,-120.02 353.38,-120.49 363.19,-120.95"/>
<polygon fill="midnightblue" stroke="midnightblue" points="363.11,-124.45 373.26,-121.42 363.44,-117.46 363.11,-124.45"/>
</g>
<!-- Node5 -->
<g id="node5" class="node">
<title>Node5</title>
<g id="a_node5"><a xlink:href="event__handler_8c.html#a59de6a0bd2f3bfae3758c0cada7c5ca6" target="_top" xlink:title="EH_RULE_ID のルール登録状況を調べる">
<polygon fill="white" stroke="black" points="527,-57.5 527,-76.5 634,-76.5 634,-57.5 527,-57.5"/>
<text text-anchor="middle" x="580.5" y="-64.5" font-family="Helvetica,sans-Serif" font-size="10.00">EH_check_rule_id_</text>
</a>
</g>
</g>
<!-- Node4&#45;&gt;Node5 -->
<g id="edge4" class="edge">
<title>Node4&#45;&gt;Node5</title>
<path fill="none" stroke="midnightblue" d="M304.12,-65.55C324.15,-66.13 347.71,-66.72 369,-67 418.62,-67.66 474.84,-67.62 516.68,-67.44"/>
<polygon fill="midnightblue" stroke="midnightblue" points="516.74,-70.94 526.73,-67.39 516.71,-63.94 516.74,-70.94"/>
</g>
<!-- Node6 -->
<g id="node6" class="node">
<title>Node6</title>
<g id="a_node6"><a xlink:href="event__handler_8c.html#a0c6971282a560e5447340c48c0ce7888" target="_top" xlink:title="EH_Rule を EH_RuleTable と EH_RuleSortedIndex に挿入する">
<polygon fill="white" stroke="black" points="369,-38.5 369,-57.5 491,-57.5 491,-38.5 369,-38.5"/>
<text text-anchor="middle" x="430" y="-45.5" font-family="Helvetica,sans-Serif" font-size="10.00">EH_insert_rule_table_</text>
</a>
</g>
</g>
<!-- Node4&#45;&gt;Node6 -->
<g id="edge5" class="edge">
<title>Node4&#45;&gt;Node6</title>
<path fill="none" stroke="midnightblue" d="M304.09,-59.59C321.01,-58.02 340.42,-56.22 358.82,-54.51"/>
<polygon fill="midnightblue" stroke="midnightblue" points="359.28,-57.98 368.92,-53.57 358.64,-51.01 359.28,-57.98"/>
</g>
<!-- Node7 -->
<g id="node7" class="node">
<title>Node7</title>
<g id="a_node7"><a xlink:href="obc__time_8c.html#af728cdbeae57ea5bf7f25ba5a3776e60" target="_top" xlink:title="ObcTime をクリアし全てゼロにする">
<polygon fill="white" stroke="black" points="393.5,-0.5 393.5,-19.5 466.5,-19.5 466.5,-0.5 393.5,-0.5"/>
<text text-anchor="middle" x="430" y="-7.5" font-family="Helvetica,sans-Serif" font-size="10.00">OBCT_clear</text>
</a>
</g>
</g>
<!-- Node4&#45;&gt;Node7 -->
<g id="edge7" class="edge">
<title>Node4&#45;&gt;Node7</title>
<path fill="none" stroke="midnightblue" d="M286.94,-54.47C315.31,-45.59 357.78,-32.29 388.9,-22.55"/>
<polygon fill="midnightblue" stroke="midnightblue" points="390.07,-25.85 398.57,-19.53 387.98,-19.17 390.07,-25.85"/>
</g>
<!-- Node6&#45;&gt;Node5 -->
<g id="edge6" class="edge">
<title>Node6&#45;&gt;Node5</title>
<path fill="none" stroke="midnightblue" d="M491.4,-55.73C499.74,-56.79 508.31,-57.89 516.69,-58.96"/>
<polygon fill="midnightblue" stroke="midnightblue" points="516.42,-62.46 526.78,-60.25 517.3,-55.51 516.42,-62.46"/>
</g>
</g>
</svg>
