<?xml version="1.0" encoding="UTF-8" standalone="no"?>
<!DOCTYPE svg PUBLIC "-//W3C//DTD SVG 1.1//EN"
 "http://www.w3.org/Graphics/SVG/1.1/DTD/svg11.dtd">
<!-- Generated by graphviz version 2.43.0 (0)
 -->
<!-- Title: Cmd_EH_ACTIVATE_RULE Pages: 1 -->
<svg width="488pt" height="78pt"
 viewBox="0.00 0.00 488.00 77.50" xmlns="http://www.w3.org/2000/svg" xmlns:xlink="http://www.w3.org/1999/xlink">
<g id="graph0" class="graph" transform="scale(1 1) rotate(0) translate(4 73.5)">
<title>Cmd_EH_ACTIVATE_RULE</title>
<polygon fill="white" stroke="transparent" points="-4,4 -4,-73.5 484,-73.5 484,4 -4,4"/>
<!-- Node1 -->
<g id="node1" class="node">
<title>Node1</title>
<g id="a_node1"><a xlink:title=" ">
<polygon fill="#bfbfbf" stroke="black" points="0,-22.5 0,-41.5 140,-41.5 140,-22.5 0,-22.5"/>
<text text-anchor="middle" x="70" y="-29.5" font-family="Helvetica,sans-Serif" font-size="10.00">Cmd_EH_ACTIVATE_RULE</text>
</a>
</g>
</g>
<!-- Node2 -->
<g id="node2" class="node">
<title>Node2</title>
<g id="a_node2"><a xlink:href="common__cmd__packet__util_8c.html#a9e58970e1fdf3fd593d764f353e28562" target="_top" xlink:title="コマンド返り値である CCP_CmdRet を作成（エラーコード不使用版）">
<polygon fill="white" stroke="black" points="176,-39 176,-69 331,-69 331,-39 176,-39"/>
<text text-anchor="start" x="184" y="-57" font-family="Helvetica,sans-Serif" font-size="10.00">CCP_make_cmd_ret_without</text>
<text text-anchor="middle" x="253.5" y="-46" font-family="Helvetica,sans-Serif" font-size="10.00">_err_code</text>
</a>
</g>
</g>
<!-- Node1&#45;&gt;Node2 -->
<g id="edge1" class="edge">
<title>Node1&#45;&gt;Node2</title>
<path fill="none" stroke="midnightblue" d="M140.14,-40.38C148.56,-41.4 157.25,-42.45 165.89,-43.5"/>
<polygon fill="midnightblue" stroke="midnightblue" points="165.64,-47 175.98,-44.73 166.48,-40.05 165.64,-47"/>
</g>
<!-- Node4 -->
<g id="node4" class="node">
<title>Node4</title>
<g id="a_node4"><a xlink:href="event__handler_8c.html#a94ea5d3a648f85871e35b36893f15007" target="_top" xlink:title="ルールの有効化">
<polygon fill="white" stroke="black" points="204,-0.5 204,-19.5 303,-19.5 303,-0.5 204,-0.5"/>
<text text-anchor="middle" x="253.5" y="-7.5" font-family="Helvetica,sans-Serif" font-size="10.00">EH_activate_rule</text>
</a>
</g>
</g>
<!-- Node1&#45;&gt;Node4 -->
<g id="edge3" class="edge">
<title>Node1&#45;&gt;Node4</title>
<path fill="none" stroke="midnightblue" d="M140.14,-23.62C157.72,-21.49 176.46,-19.22 193.49,-17.15"/>
<polygon fill="midnightblue" stroke="midnightblue" points="194.34,-20.57 203.85,-15.9 193.5,-13.63 194.34,-20.57"/>
</g>
<!-- Node3 -->
<g id="node3" class="node">
<title>Node3</title>
<g id="a_node3"><a xlink:href="common__cmd__packet__util_8c.html#a86a3aeedaeb2eac94c6c86eb0db7f8fd" target="_top" xlink:title="コマンド返り値である CCP_CmdRet を作成">
<polygon fill="white" stroke="black" points="367,-44.5 367,-63.5 480,-63.5 480,-44.5 367,-44.5"/>
<text text-anchor="middle" x="423.5" y="-51.5" font-family="Helvetica,sans-Serif" font-size="10.00">CCP_make_cmd_ret</text>
</a>
</g>
</g>
<!-- Node2&#45;&gt;Node3 -->
<g id="edge2" class="edge">
<title>Node2&#45;&gt;Node3</title>
<path fill="none" stroke="midnightblue" d="M331.13,-54C339.62,-54 348.21,-54 356.55,-54"/>
<polygon fill="midnightblue" stroke="midnightblue" points="356.58,-57.5 366.58,-54 356.58,-50.5 356.58,-57.5"/>
</g>
<!-- Node5 -->
<g id="node5" class="node">
<title>Node5</title>
<g id="a_node5"><a xlink:href="event__handler_8c.html#a59de6a0bd2f3bfae3758c0cada7c5ca6" target="_top" xlink:title="EH_RULE_ID のルール登録状況を調べる">
<polygon fill="white" stroke="black" points="370,-0.5 370,-19.5 477,-19.5 477,-0.5 370,-0.5"/>
<text text-anchor="middle" x="423.5" y="-7.5" font-family="Helvetica,sans-Serif" font-size="10.00">EH_check_rule_id_</text>
</a>
</g>
</g>
<!-- Node4&#45;&gt;Node5 -->
<g id="edge4" class="edge">
<title>Node4&#45;&gt;Node5</title>
<path fill="none" stroke="midnightblue" d="M303.09,-10C320.75,-10 340.97,-10 359.69,-10"/>
<polygon fill="midnightblue" stroke="midnightblue" points="359.91,-13.5 369.91,-10 359.91,-6.5 359.91,-13.5"/>
</g>
</g>
</svg>
