<?xml version="1.0" encoding="UTF-8" standalone="no"?>
<!DOCTYPE svg PUBLIC "-//W3C//DTD SVG 1.1//EN"
 "http://www.w3.org/Graphics/SVG/1.1/DTD/svg11.dtd">
<!-- Generated by graphviz version 2.43.0 (0)
 -->
<!-- Title: src/src_user/Settings/System/event_logger_group.h Pages: 1 -->
<svg width="2210pt" height="351pt"
 viewBox="0.00 0.00 2210.00 351.00" xmlns="http://www.w3.org/2000/svg" xmlns:xlink="http://www.w3.org/1999/xlink">
<g id="graph0" class="graph" transform="scale(1 1) rotate(0) translate(4 347)">
<title>src/src_user/Settings/System/event_logger_group.h</title>
<polygon fill="white" stroke="transparent" points="-4,4 -4,-347 2206,-347 2206,4 -4,4"/>
<!-- Node1 -->
<g id="node1" class="node">
<title>Node1</title>
<g id="a_node1"><a xlink:title="event_logger の イベント識別IDを定義">
<polygon fill="#bfbfbf" stroke="black" points="1307,-301.5 1307,-342.5 1430,-342.5 1430,-301.5 1307,-301.5"/>
<text text-anchor="start" x="1315" y="-330.5" font-family="Helvetica,sans-Serif" font-size="10.00">src/src_user/Settings</text>
<text text-anchor="start" x="1315" y="-319.5" font-family="Helvetica,sans-Serif" font-size="10.00">/System/event_logger</text>
<text text-anchor="middle" x="1368.5" y="-308.5" font-family="Helvetica,sans-Serif" font-size="10.00">_group.h</text>
</a>
</g>
</g>
<!-- Node2 -->
<g id="node2" class="node">
<title>Node2</title>
<g id="a_node2"><a xlink:href="event__logger_8h.html" target="_top" xlink:title="アノマリやエラーなどの各種イベントを記録する">
<polygon fill="white" stroke="black" points="1264,-223.5 1264,-264.5 1385,-264.5 1385,-223.5 1264,-223.5"/>
<text text-anchor="start" x="1272" y="-252.5" font-family="Helvetica,sans-Serif" font-size="10.00">src/src_core/System</text>
<text text-anchor="start" x="1272" y="-241.5" font-family="Helvetica,sans-Serif" font-size="10.00">/EventManager/event</text>
<text text-anchor="middle" x="1324.5" y="-230.5" font-family="Helvetica,sans-Serif" font-size="10.00">_logger.h</text>
</a>
</g>
</g>
<!-- Node1&#45;&gt;Node2 -->
<g id="edge1" class="edge">
<title>Node1&#45;&gt;Node2</title>
<path fill="none" stroke="midnightblue" d="M1352.15,-292.76C1346.7,-283.35 1340.77,-273.1 1335.79,-264.51"/>
<polygon fill="midnightblue" stroke="midnightblue" points="1349.13,-294.53 1357.17,-301.43 1355.19,-291.02 1349.13,-294.53"/>
</g>
<!-- Node21 -->
<g id="node21" class="node">
<title>Node21</title>
<g id="a_node21"><a xlink:href="event__logger__settings_8c.html" target="_top" xlink:title="event_logger の設定">
<polygon fill="white" stroke="black" points="2079,-145.5 2079,-186.5 2202,-186.5 2202,-145.5 2079,-145.5"/>
<text text-anchor="start" x="2087" y="-174.5" font-family="Helvetica,sans-Serif" font-size="10.00">src/src_user/Settings</text>
<text text-anchor="start" x="2087" y="-163.5" font-family="Helvetica,sans-Serif" font-size="10.00">/System/event_logger</text>
<text text-anchor="middle" x="2140.5" y="-152.5" font-family="Helvetica,sans-Serif" font-size="10.00">_settings.c</text>
</a>
</g>
</g>
<!-- Node1&#45;&gt;Node21 -->
<g id="edge26" class="edge">
<title>Node1&#45;&gt;Node21</title>
<path fill="none" stroke="midnightblue" d="M1440.1,-306.72C1590.59,-276.7 1937.41,-207.51 2078.8,-179.31"/>
<polygon fill="midnightblue" stroke="midnightblue" points="1439.17,-303.33 1430.05,-308.72 1440.54,-310.2 1439.17,-303.33"/>
</g>
<!-- Node3 -->
<g id="node3" class="node">
<title>Node3</title>
<g id="a_node3"><a xlink:href="divided__cmd__utility_8c.html" target="_top" xlink:title="コマンド分割をサポートするUtil">
<polygon fill="white" stroke="black" points="1847,-151 1847,-181 1984,-181 1984,-151 1847,-151"/>
<text text-anchor="start" x="1855" y="-169" font-family="Helvetica,sans-Serif" font-size="10.00">src/src_core/Applications</text>
<text text-anchor="middle" x="1915.5" y="-158" font-family="Helvetica,sans-Serif" font-size="10.00">/divided_cmd_utility.c</text>
</a>
</g>
</g>
<!-- Node2&#45;&gt;Node3 -->
<g id="edge2" class="edge">
<title>Node2&#45;&gt;Node3</title>
<path fill="none" stroke="midnightblue" d="M1395.54,-238.45C1494.99,-231.36 1681.07,-215.44 1837.5,-187 1846.44,-185.37 1855.87,-183.28 1864.96,-181.07"/>
<polygon fill="midnightblue" stroke="midnightblue" points="1395.05,-234.98 1385.32,-239.17 1395.54,-241.96 1395.05,-234.98"/>
</g>
<!-- Node4 -->
<g id="node4" class="node">
<title>Node4</title>
<g id="a_node4"><a xlink:href="event__handler_8h.html" target="_top" xlink:title="イベント発火型処理を行う">
<polygon fill="white" stroke="black" points="299,-145.5 299,-186.5 420,-186.5 420,-145.5 299,-145.5"/>
<text text-anchor="start" x="307" y="-174.5" font-family="Helvetica,sans-Serif" font-size="10.00">src/src_core/System</text>
<text text-anchor="start" x="307" y="-163.5" font-family="Helvetica,sans-Serif" font-size="10.00">/EventManager/event</text>
<text text-anchor="middle" x="359.5" y="-152.5" font-family="Helvetica,sans-Serif" font-size="10.00">_handler.h</text>
</a>
</g>
</g>
<!-- Node2&#45;&gt;Node4 -->
<g id="edge3" class="edge">
<title>Node2&#45;&gt;Node4</title>
<path fill="none" stroke="midnightblue" d="M1253.79,-243.28C1102.45,-242.84 736.41,-236.25 434.5,-187 429.84,-186.24 425.06,-185.31 420.27,-184.28"/>
<polygon fill="midnightblue" stroke="midnightblue" points="1253.87,-246.78 1263.87,-243.3 1253.88,-239.78 1253.87,-246.78"/>
</g>
<!-- Node7 -->
<g id="node7" class="node">
<title>Node7</title>
<g id="a_node7"><a xlink:href="event__logger_8c.html" target="_top" xlink:title="アノマリやエラーなどの各種イベントを記録する">
<polygon fill="white" stroke="black" points="1298,-67.5 1298,-108.5 1419,-108.5 1419,-67.5 1298,-67.5"/>
<text text-anchor="start" x="1306" y="-96.5" font-family="Helvetica,sans-Serif" font-size="10.00">src/src_core/System</text>
<text text-anchor="start" x="1306" y="-85.5" font-family="Helvetica,sans-Serif" font-size="10.00">/EventManager/event</text>
<text text-anchor="middle" x="1358.5" y="-74.5" font-family="Helvetica,sans-Serif" font-size="10.00">_logger.c</text>
</a>
</g>
</g>
<!-- Node2&#45;&gt;Node7 -->
<g id="edge15" class="edge">
<title>Node2&#45;&gt;Node7</title>
<path fill="none" stroke="midnightblue" d="M1395.47,-239.62C1563.56,-231.28 1973.45,-208.79 1993.5,-187 2006.14,-173.26 2006.11,-158.77 1993.5,-145 1974.24,-123.97 1574.32,-100.5 1419.22,-92.15"/>
<polygon fill="midnightblue" stroke="midnightblue" points="1395.05,-236.14 1385.23,-240.13 1395.39,-243.13 1395.05,-236.14"/>
</g>
<!-- Node8 -->
<g id="node8" class="node">
<title>Node8</title>
<g id="a_node8"><a xlink:href="event__manager_8c.html" target="_top" xlink:title="C2A全体のイベントを管理する">
<polygon fill="white" stroke="black" points="1713,-67.5 1713,-108.5 1834,-108.5 1834,-67.5 1713,-67.5"/>
<text text-anchor="start" x="1721" y="-96.5" font-family="Helvetica,sans-Serif" font-size="10.00">src/src_core/System</text>
<text text-anchor="start" x="1721" y="-85.5" font-family="Helvetica,sans-Serif" font-size="10.00">/EventManager/event</text>
<text text-anchor="middle" x="1773.5" y="-74.5" font-family="Helvetica,sans-Serif" font-size="10.00">_manager.c</text>
</a>
</g>
</g>
<!-- Node2&#45;&gt;Node8 -->
<g id="edge16" class="edge">
<title>Node2&#45;&gt;Node8</title>
<path fill="none" stroke="midnightblue" d="M1395.26,-239.79C1566.51,-231.69 1990.81,-209.45 2011.5,-187 2066.92,-126.87 1921.49,-102.63 1834.04,-93.69"/>
<polygon fill="midnightblue" stroke="midnightblue" points="1394.91,-236.31 1385.08,-240.27 1395.24,-243.3 1394.91,-236.31"/>
</g>
<!-- Node10 -->
<g id="node10" class="node">
<title>Node10</title>
<g id="a_node10"><a xlink:href="command__source_8h.html" target="_top" xlink:title="コマンド定義に必要なヘッダー">
<polygon fill="white" stroke="black" points="7,-73 7,-103 126,-103 126,-73 7,-73"/>
<text text-anchor="start" x="15" y="-91" font-family="Helvetica,sans-Serif" font-size="10.00">src/src_user/TlmCmd</text>
<text text-anchor="middle" x="66.5" y="-80" font-family="Helvetica,sans-Serif" font-size="10.00">/command_source.h</text>
</a>
</g>
</g>
<!-- Node2&#45;&gt;Node10 -->
<g id="edge23" class="edge">
<title>Node2&#45;&gt;Node10</title>
<path fill="none" stroke="midnightblue" d="M1253.63,-242.47C1051.2,-240.42 473.17,-230.79 289.5,-187 213.19,-168.81 130.38,-125.52 90.56,-103.06"/>
<polygon fill="midnightblue" stroke="midnightblue" points="1253.81,-245.97 1263.84,-242.57 1253.88,-238.97 1253.81,-245.97"/>
</g>
<!-- Node12 -->
<g id="node12" class="node">
<title>Node12</title>
<g id="a_node12"><a xlink:href="telemetry__source_8h.html" target="_top" xlink:title="テレメトリ定義に必要なヘッダー">
<polygon fill="white" stroke="black" points="609,-73 609,-103 728,-103 728,-73 609,-73"/>
<text text-anchor="start" x="617" y="-91" font-family="Helvetica,sans-Serif" font-size="10.00">src/src_user/TlmCmd</text>
<text text-anchor="middle" x="668.5" y="-80" font-family="Helvetica,sans-Serif" font-size="10.00">/telemetry_source.h</text>
</a>
</g>
</g>
<!-- Node2&#45;&gt;Node12 -->
<g id="edge25" class="edge">
<title>Node2&#45;&gt;Node12</title>
<path fill="none" stroke="midnightblue" d="M1253.6,-240.98C1053.01,-234.92 494.24,-215.54 467.5,-187 454.74,-173.38 456.17,-159.83 467.5,-145 504.41,-96.67 540.96,-125.47 599.5,-109 606.22,-107.11 613.31,-105.09 620.27,-103.08"/>
<polygon fill="midnightblue" stroke="midnightblue" points="1253.63,-244.48 1263.73,-241.28 1253.84,-237.48 1253.63,-244.48"/>
</g>
<!-- Node14 -->
<g id="node14" class="node">
<title>Node14</title>
<g id="a_node14"><a xlink:href="timeline__command__dispatcher_8c.html" target="_top" xlink:title=" ">
<polygon fill="white" stroke="black" points="476.5,-151 476.5,-181 654.5,-181 654.5,-151 476.5,-151"/>
<text text-anchor="start" x="484.5" y="-169" font-family="Helvetica,sans-Serif" font-size="10.00">src/src_core/Applications</text>
<text text-anchor="middle" x="565.5" y="-158" font-family="Helvetica,sans-Serif" font-size="10.00">/timeline_command_dispatcher.c</text>
</a>
</g>
</g>
<!-- Node2&#45;&gt;Node14 -->
<g id="edge13" class="edge">
<title>Node2&#45;&gt;Node14</title>
<path fill="none" stroke="midnightblue" d="M1253.35,-239.7C1131.9,-233.47 877,-217.72 663.5,-187 652.24,-185.38 640.33,-183.28 628.83,-181.05"/>
<polygon fill="midnightblue" stroke="midnightblue" points="1253.46,-243.21 1263.63,-240.22 1253.82,-236.22 1253.46,-243.21"/>
</g>
<!-- Node15 -->
<g id="node15" class="node">
<title>Node15</title>
<g id="a_node15"><a xlink:href="app__manager_8c.html" target="_top" xlink:title=" ">
<polygon fill="white" stroke="black" points="673,-145.5 673,-186.5 790,-186.5 790,-145.5 673,-145.5"/>
<text text-anchor="start" x="681" y="-174.5" font-family="Helvetica,sans-Serif" font-size="10.00">src/src_core/System</text>
<text text-anchor="start" x="681" y="-163.5" font-family="Helvetica,sans-Serif" font-size="10.00">/ApplicationManager</text>
<text text-anchor="middle" x="731.5" y="-152.5" font-family="Helvetica,sans-Serif" font-size="10.00">/app_manager.c</text>
</a>
</g>
</g>
<!-- Node2&#45;&gt;Node15 -->
<g id="edge14" class="edge">
<title>Node2&#45;&gt;Node15</title>
<path fill="none" stroke="midnightblue" d="M1253.61,-239.49C1152.16,-233.55 960.08,-218.91 799.5,-187 796.48,-186.4 793.41,-185.73 790.31,-185"/>
<polygon fill="midnightblue" stroke="midnightblue" points="1253.55,-242.99 1263.73,-240.07 1253.95,-236 1253.55,-242.99"/>
</g>
<!-- Node16 -->
<g id="node16" class="node">
<title>Node16</title>
<g id="a_node16"><a xlink:href="mode__manager_8c.html" target="_top" xlink:title="モード遷移の制御">
<polygon fill="white" stroke="black" points="808.5,-151 808.5,-181 984.5,-181 984.5,-151 808.5,-151"/>
<text text-anchor="start" x="816.5" y="-169" font-family="Helvetica,sans-Serif" font-size="10.00">src/src_core/System</text>
<text text-anchor="middle" x="896.5" y="-158" font-family="Helvetica,sans-Serif" font-size="10.00">/ModeManager/mode_manager.c</text>
</a>
</g>
</g>
<!-- Node2&#45;&gt;Node16 -->
<g id="edge17" class="edge">
<title>Node2&#45;&gt;Node16</title>
<path fill="none" stroke="midnightblue" d="M1253.95,-231.81C1186.85,-221 1083.13,-203.82 993.5,-187 983.61,-185.15 973.18,-183.09 962.97,-181.03"/>
<polygon fill="midnightblue" stroke="midnightblue" points="1253.56,-235.29 1263.98,-233.43 1254.67,-228.38 1253.56,-235.29"/>
</g>
<!-- Node17 -->
<g id="node17" class="node">
<title>Node17</title>
<g id="a_node17"><a xlink:href="task__dispatcher_8c.html" target="_top" xlink:title=" ">
<polygon fill="white" stroke="black" points="1002.5,-151 1002.5,-181 1174.5,-181 1174.5,-151 1002.5,-151"/>
<text text-anchor="start" x="1010.5" y="-169" font-family="Helvetica,sans-Serif" font-size="10.00">src/src_core/System</text>
<text text-anchor="middle" x="1088.5" y="-158" font-family="Helvetica,sans-Serif" font-size="10.00">/TaskManager/task_dispatcher.c</text>
</a>
</g>
</g>
<!-- Node2&#45;&gt;Node17 -->
<g id="edge18" class="edge">
<title>Node2&#45;&gt;Node17</title>
<path fill="none" stroke="midnightblue" d="M1254.13,-220.34C1214.59,-207.6 1166.47,-192.11 1132.3,-181.11"/>
<polygon fill="midnightblue" stroke="midnightblue" points="1253.13,-223.69 1263.72,-223.43 1255.28,-217.03 1253.13,-223.69"/>
</g>
<!-- Node18 -->
<g id="node18" class="node">
<title>Node18</title>
<g id="a_node18"><a xlink:href="command__analyze_8c.html" target="_top" xlink:title="コマンドの実行・登録，コマンド関連処理">
<polygon fill="white" stroke="black" points="1192.5,-151 1192.5,-181 1312.5,-181 1312.5,-151 1192.5,-151"/>
<text text-anchor="start" x="1200.5" y="-169" font-family="Helvetica,sans-Serif" font-size="10.00">src/src_core/TlmCmd</text>
<text text-anchor="middle" x="1252.5" y="-158" font-family="Helvetica,sans-Serif" font-size="10.00">/command_analyze.c</text>
</a>
</g>
</g>
<!-- Node2&#45;&gt;Node18 -->
<g id="edge19" class="edge">
<title>Node2&#45;&gt;Node18</title>
<path fill="none" stroke="midnightblue" d="M1298.91,-215.99C1287.79,-204.25 1275.23,-190.99 1265.98,-181.23"/>
<polygon fill="midnightblue" stroke="midnightblue" points="1296.54,-218.58 1305.96,-223.43 1301.62,-213.76 1296.54,-218.58"/>
</g>
<!-- Node19 -->
<g id="node19" class="node">
<title>Node19</title>
<g id="a_node19"><a xlink:href="command__dispatcher_8c.html" target="_top" xlink:title="各種コマンドの実行管理">
<polygon fill="white" stroke="black" points="1330.5,-151 1330.5,-181 1462.5,-181 1462.5,-151 1330.5,-151"/>
<text text-anchor="start" x="1338.5" y="-169" font-family="Helvetica,sans-Serif" font-size="10.00">src/src_core/TlmCmd</text>
<text text-anchor="middle" x="1396.5" y="-158" font-family="Helvetica,sans-Serif" font-size="10.00">/command_dispatcher.c</text>
</a>
</g>
</g>
<!-- Node2&#45;&gt;Node19 -->
<g id="edge20" class="edge">
<title>Node2&#45;&gt;Node19</title>
<path fill="none" stroke="midnightblue" d="M1350.09,-215.99C1361.21,-204.25 1373.77,-190.99 1383.02,-181.23"/>
<polygon fill="midnightblue" stroke="midnightblue" points="1347.38,-213.76 1343.04,-223.43 1352.46,-218.58 1347.38,-213.76"/>
</g>
<!-- Node20 -->
<g id="node20" class="node">
<title>Node20</title>
<g id="a_node20"><a xlink:href="debug__apps_8c.html" target="_top" xlink:title=" ">
<polygon fill="white" stroke="black" points="1481,-151 1481,-181 1630,-181 1630,-151 1481,-151"/>
<text text-anchor="start" x="1489" y="-169" font-family="Helvetica,sans-Serif" font-size="10.00">src/src_user/Applications</text>
<text text-anchor="middle" x="1555.5" y="-158" font-family="Helvetica,sans-Serif" font-size="10.00">/UserDefined/debug_apps.c</text>
</a>
</g>
</g>
<!-- Node2&#45;&gt;Node20 -->
<g id="edge21" class="edge">
<title>Node2&#45;&gt;Node20</title>
<path fill="none" stroke="midnightblue" d="M1393.62,-220.26C1432.28,-207.54 1479.26,-192.08 1512.62,-181.11"/>
<polygon fill="midnightblue" stroke="midnightblue" points="1392.39,-216.98 1383.99,-223.43 1394.58,-223.63 1392.39,-216.98"/>
</g>
<!-- Node2&#45;&gt;Node21 -->
<g id="edge22" class="edge">
<title>Node2&#45;&gt;Node21</title>
<path fill="none" stroke="midnightblue" d="M1395.28,-239.29C1554.52,-230.68 1936.98,-208.42 2064.5,-187 2069.21,-186.21 2074.05,-185.26 2078.9,-184.21"/>
<polygon fill="midnightblue" stroke="midnightblue" points="1394.92,-235.8 1385.12,-239.84 1395.29,-242.79 1394.92,-235.8"/>
</g>
<!-- Node22 -->
<g id="node22" class="node">
<title>Node22</title>
<g id="a_node22"><a xlink:href="nbc__respond__eh__for__test_8c.html" target="_top" xlink:title="test用． EH のテストで EH が発火したことを検知する">
<polygon fill="white" stroke="black" points="1648.5,-145.5 1648.5,-186.5 1828.5,-186.5 1828.5,-145.5 1648.5,-145.5"/>
<text text-anchor="start" x="1656.5" y="-174.5" font-family="Helvetica,sans-Serif" font-size="10.00">src/src_user/TlmCmd</text>
<text text-anchor="start" x="1656.5" y="-163.5" font-family="Helvetica,sans-Serif" font-size="10.00">/NormalBlockCommandDefinition</text>
<text text-anchor="middle" x="1738.5" y="-152.5" font-family="Helvetica,sans-Serif" font-size="10.00">/nbc_respond_eh_for_test.c</text>
</a>
</g>
</g>
<!-- Node2&#45;&gt;Node22 -->
<g id="edge24" class="edge">
<title>Node2&#45;&gt;Node22</title>
<path fill="none" stroke="midnightblue" d="M1394.99,-230.86C1458.68,-219.79 1554.96,-202.8 1638.5,-187 1641.72,-186.39 1644.99,-185.77 1648.3,-185.13"/>
<polygon fill="midnightblue" stroke="midnightblue" points="1394.31,-227.43 1385.06,-232.59 1395.51,-234.32 1394.31,-227.43"/>
</g>
<!-- Node5 -->
<g id="node5" class="node">
<title>Node5</title>
<g id="a_node5"><a xlink:href="event__utility_8c.html" target="_top" xlink:title="イベント処理の定期実行のためのApp">
<polygon fill="white" stroke="black" points="454,-73 454,-103 591,-103 591,-73 454,-73"/>
<text text-anchor="start" x="462" y="-91" font-family="Helvetica,sans-Serif" font-size="10.00">src/src_core/Applications</text>
<text text-anchor="middle" x="522.5" y="-80" font-family="Helvetica,sans-Serif" font-size="10.00">/event_utility.c</text>
</a>
</g>
</g>
<!-- Node4&#45;&gt;Node5 -->
<g id="edge4" class="edge">
<title>Node4&#45;&gt;Node5</title>
<path fill="none" stroke="midnightblue" d="M410.72,-141.12C437.51,-128.63 469.4,-113.76 492.25,-103.11"/>
<polygon fill="midnightblue" stroke="midnightblue" points="409.06,-138.03 401.48,-145.43 412.02,-144.37 409.06,-138.03"/>
</g>
<!-- Node6 -->
<g id="node6" class="node">
<title>Node6</title>
<g id="a_node6"><a xlink:href="event__handler_8c.html" target="_top" xlink:title="イベント発火型処理を行う">
<polygon fill="white" stroke="black" points="144,-67.5 144,-108.5 265,-108.5 265,-67.5 144,-67.5"/>
<text text-anchor="start" x="152" y="-96.5" font-family="Helvetica,sans-Serif" font-size="10.00">src/src_core/System</text>
<text text-anchor="start" x="152" y="-85.5" font-family="Helvetica,sans-Serif" font-size="10.00">/EventManager/event</text>
<text text-anchor="middle" x="204.5" y="-74.5" font-family="Helvetica,sans-Serif" font-size="10.00">_handler.c</text>
</a>
</g>
</g>
<!-- Node4&#45;&gt;Node6 -->
<g id="edge5" class="edge">
<title>Node4&#45;&gt;Node6</title>
<path fill="none" stroke="midnightblue" d="M310.37,-140.91C289.05,-130.46 264.42,-118.38 244.28,-108.51"/>
<polygon fill="midnightblue" stroke="midnightblue" points="309.06,-144.17 319.58,-145.43 312.15,-137.88 309.06,-144.17"/>
</g>
<!-- Node4&#45;&gt;Node7 -->
<g id="edge6" class="edge">
<title>Node4&#45;&gt;Node7</title>
<path fill="none" stroke="midnightblue" d="M430.01,-150.68C442.46,-148.51 455.33,-146.5 467.5,-145 778.22,-106.61 1153.34,-93.94 1297.77,-90.3"/>
<polygon fill="midnightblue" stroke="midnightblue" points="429.36,-147.24 420.13,-152.45 430.59,-154.13 429.36,-147.24"/>
</g>
<!-- Node4&#45;&gt;Node8 -->
<g id="edge7" class="edge">
<title>Node4&#45;&gt;Node8</title>
<path fill="none" stroke="midnightblue" d="M429.98,-150.42C442.43,-148.28 455.31,-146.35 467.5,-145 891.87,-98 1001.02,-129.32 1427.5,-109 1527.57,-104.23 1643.83,-97.21 1712.89,-92.88"/>
<polygon fill="midnightblue" stroke="midnightblue" points="429.33,-146.98 420.1,-152.17 430.56,-153.87 429.33,-146.98"/>
</g>
<!-- Node9 -->
<g id="node9" class="node">
<title>Node9</title>
<g id="a_node9"><a xlink:href="event__handler__rule__test_8c.html" target="_top" xlink:title="EH の テスト用 Rule">
<polygon fill="white" stroke="black" points="283.5,-67.5 283.5,-108.5 435.5,-108.5 435.5,-67.5 283.5,-67.5"/>
<text text-anchor="start" x="291.5" y="-96.5" font-family="Helvetica,sans-Serif" font-size="10.00">src/src_user/Settings</text>
<text text-anchor="start" x="291.5" y="-85.5" font-family="Helvetica,sans-Serif" font-size="10.00">/System/EventHandlerRules</text>
<text text-anchor="middle" x="359.5" y="-74.5" font-family="Helvetica,sans-Serif" font-size="10.00">/event_handler_rule_test.c</text>
</a>
</g>
</g>
<!-- Node4&#45;&gt;Node9 -->
<g id="edge8" class="edge">
<title>Node4&#45;&gt;Node9</title>
<path fill="none" stroke="midnightblue" d="M359.5,-135.3C359.5,-126.3 359.5,-116.65 359.5,-108.51"/>
<polygon fill="midnightblue" stroke="midnightblue" points="356,-135.43 359.5,-145.43 363,-135.43 356,-135.43"/>
</g>
<!-- Node4&#45;&gt;Node10 -->
<g id="edge9" class="edge">
<title>Node4&#45;&gt;Node10</title>
<path fill="none" stroke="midnightblue" d="M288.85,-148.22C244.42,-137.48 185.97,-122.97 134.5,-109 127.61,-107.13 120.35,-105.08 113.25,-103.03"/>
<polygon fill="midnightblue" stroke="midnightblue" points="288.14,-151.65 298.68,-150.6 289.78,-144.85 288.14,-151.65"/>
</g>
<!-- Node4&#45;&gt;Node12 -->
<g id="edge11" class="edge">
<title>Node4&#45;&gt;Node12</title>
<path fill="none" stroke="midnightblue" d="M430.04,-146.09C431.54,-145.72 433.03,-145.36 434.5,-145 507.45,-127.33 526.75,-127.46 599.5,-109 606.63,-107.19 614.14,-105.15 621.48,-103.09"/>
<polygon fill="midnightblue" stroke="midnightblue" points="428.87,-142.78 420.02,-148.61 430.57,-149.57 428.87,-142.78"/>
</g>
<!-- Node11 -->
<g id="node11" class="node">
<title>Node11</title>
<g id="a_node11"><a xlink:href="command__definitions_8c.html" target="_top" xlink:title="コマンド定義">
<polygon fill="white" stroke="black" points="0,-0.5 0,-30.5 133,-30.5 133,-0.5 0,-0.5"/>
<text text-anchor="start" x="8" y="-18.5" font-family="Helvetica,sans-Serif" font-size="10.00">src/src_user/TlmCmd</text>
<text text-anchor="middle" x="66.5" y="-7.5" font-family="Helvetica,sans-Serif" font-size="10.00">/command_definitions.c</text>
</a>
</g>
</g>
<!-- Node10&#45;&gt;Node11 -->
<g id="edge10" class="edge">
<title>Node10&#45;&gt;Node11</title>
<path fill="none" stroke="midnightblue" d="M66.5,-62.73C66.5,-52.07 66.5,-39.91 66.5,-30.75"/>
<polygon fill="midnightblue" stroke="midnightblue" points="63,-62.73 66.5,-72.73 70,-62.73 63,-62.73"/>
</g>
<!-- Node13 -->
<g id="node13" class="node">
<title>Node13</title>
<g id="a_node13"><a xlink:href="telemetry__definitions_8c.html" target="_top" xlink:title="テレメトリ定義">
<polygon fill="white" stroke="black" points="602.5,-0.5 602.5,-30.5 734.5,-30.5 734.5,-0.5 602.5,-0.5"/>
<text text-anchor="start" x="610.5" y="-18.5" font-family="Helvetica,sans-Serif" font-size="10.00">src/src_user/TlmCmd</text>
<text text-anchor="middle" x="668.5" y="-7.5" font-family="Helvetica,sans-Serif" font-size="10.00">/telemetry_definitions.c</text>
</a>
</g>
</g>
<!-- Node12&#45;&gt;Node13 -->
<g id="edge12" class="edge">
<title>Node12&#45;&gt;Node13</title>
<path fill="none" stroke="midnightblue" d="M668.5,-62.73C668.5,-52.07 668.5,-39.91 668.5,-30.75"/>
<polygon fill="midnightblue" stroke="midnightblue" points="665,-62.73 668.5,-72.73 672,-62.73 665,-62.73"/>
</g>
</g>
</svg>
