<?xml version="1.0" encoding="UTF-8" standalone="no"?>
<!DOCTYPE svg PUBLIC "-//W3C//DTD SVG 1.1//EN"
 "http://www.w3.org/Graphics/SVG/1.1/DTD/svg11.dtd">
<!-- Generated by graphviz version 2.43.0 (0)
 -->
<!-- Title: EH_check_rule_and_respond_ Pages: 1 -->
<svg width="1567pt" height="966pt"
 viewBox="0.00 0.00 1567.00 966.00" xmlns="http://www.w3.org/2000/svg" xmlns:xlink="http://www.w3.org/1999/xlink">
<g id="graph0" class="graph" transform="scale(1 1) rotate(0) translate(4 962)">
<title>EH_check_rule_and_respond_</title>
<polygon fill="white" stroke="transparent" points="-4,4 -4,-962 1563,-962 1563,4 -4,4"/>
<!-- Node1 -->
<g id="node1" class="node">
<title>Node1</title>
<g id="a_node1"><a xlink:title="EH の対応条件をチェックし， EL_Event に対応する">
<polygon fill="#bfbfbf" stroke="black" points="0,-768.5 0,-787.5 161,-787.5 161,-768.5 0,-768.5"/>
<text text-anchor="middle" x="80.5" y="-775.5" font-family="Helvetica,sans-Serif" font-size="10.00">EH_check_rule_and_respond_</text>
</a>
</g>
</g>
<!-- Node2 -->
<g id="node2" class="node">
<title>Node2</title>
<g id="a_node2"><a xlink:href="event__handler_8c.html#af084576db8b00a4c7e4b117314b128db" target="_top" xlink:title="上位の EH の対応条件をチェックし，対応する">
<polygon fill="white" stroke="black" points="197,-763 197,-793 326,-793 326,-763 197,-763"/>
<text text-anchor="start" x="205" y="-781" font-family="Helvetica,sans-Serif" font-size="10.00">EH_check_higher_level</text>
<text text-anchor="middle" x="261.5" y="-770" font-family="Helvetica,sans-Serif" font-size="10.00">_rule_and_respond_</text>
</a>
</g>
</g>
<!-- Node1&#45;&gt;Node2 -->
<g id="edge1" class="edge">
<title>Node1&#45;&gt;Node2</title>
<path fill="none" stroke="midnightblue" d="M161.05,-778C169.55,-778 178.17,-778 186.6,-778"/>
<polygon fill="midnightblue" stroke="midnightblue" points="186.76,-781.5 196.76,-778 186.76,-774.5 186.76,-781.5"/>
</g>
<!-- Node7 -->
<g id="node7" class="node">
<title>Node7</title>
<g id="a_node7"><a xlink:href="event__logger_8c.html#a25a74a48375dfc1f3f80be68e0ac00ea" target="_top" xlink:title="イベント (EL_Event) を記録">
<polygon fill="white" stroke="black" points="942,-714.5 942,-733.5 1039,-733.5 1039,-714.5 942,-714.5"/>
<text text-anchor="middle" x="990.5" y="-721.5" font-family="Helvetica,sans-Serif" font-size="10.00">EL_record_event</text>
</a>
</g>
</g>
<!-- Node1&#45;&gt;Node7 -->
<g id="edge68" class="edge">
<title>Node1&#45;&gt;Node7</title>
<path fill="none" stroke="midnightblue" d="M121.38,-787.53C143.53,-792.51 171.67,-798.32 197,-802 302.05,-817.27 328.85,-822 435,-822 435,-822 435,-822 627.5,-822 749.03,-822 784.09,-824.34 898,-782 924.72,-772.07 951.88,-753.56 969.59,-740.12"/>
<polygon fill="midnightblue" stroke="midnightblue" points="972.19,-742.53 977.93,-733.62 967.89,-737 972.19,-742.53"/>
</g>
<!-- Node23 -->
<g id="node19" class="node">
<title>Node23</title>
<g id="a_node19"><a xlink:href="event__handler_8c.html#a36acbf29023faf34e8f2d16f01cc44d3" target="_top" xlink:title="EH の対応条件をチェックする">
<polygon fill="white" stroke="black" points="215,-199.5 215,-218.5 308,-218.5 308,-199.5 215,-199.5"/>
<text text-anchor="middle" x="261.5" y="-206.5" font-family="Helvetica,sans-Serif" font-size="10.00">EH_check_rule_</text>
</a>
</g>
</g>
<!-- Node1&#45;&gt;Node23 -->
<g id="edge21" class="edge">
<title>Node1&#45;&gt;Node23</title>
<path fill="none" stroke="midnightblue" d="M84.61,-768.12C105.53,-701.62 225.9,-318.98 254.44,-228.28"/>
<polygon fill="midnightblue" stroke="midnightblue" points="257.78,-229.29 257.45,-218.7 251.11,-227.19 257.78,-229.29"/>
</g>
<!-- Node32 -->
<g id="node28" class="node">
<title>Node32</title>
<g id="a_node28"><a xlink:href="event__handler_8c.html#a8d7de705ac2b09f9f25644f0c9f55952" target="_top" xlink:title="EH 対応を実施">
<polygon fill="white" stroke="black" points="221.5,-648.5 221.5,-667.5 301.5,-667.5 301.5,-648.5 221.5,-648.5"/>
<text text-anchor="middle" x="261.5" y="-655.5" font-family="Helvetica,sans-Serif" font-size="10.00">EH_respond_</text>
</a>
</g>
</g>
<!-- Node1&#45;&gt;Node32 -->
<g id="edge33" class="edge">
<title>Node1&#45;&gt;Node32</title>
<path fill="none" stroke="midnightblue" d="M95.85,-768.38C126.74,-747.67 199.81,-698.68 237.35,-673.52"/>
<polygon fill="midnightblue" stroke="midnightblue" points="239.73,-676.14 246.09,-667.66 235.83,-670.32 239.73,-676.14"/>
</g>
<!-- Node3 -->
<g id="node3" class="node">
<title>Node3</title>
<g id="a_node3"><a xlink:href="event__handler_8c.html#a227ed3b7079c58dee50a81ce408549a2" target="_top" xlink:title="EL_Event に対応する EH_Rule が存在するかチェックし，対応する">
<polygon fill="white" stroke="black" points="376,-851 376,-881 496,-881 496,-851 376,-851"/>
<text text-anchor="start" x="384" y="-869" font-family="Helvetica,sans-Serif" font-size="10.00">EH_check_event_and</text>
<text text-anchor="middle" x="436" y="-858" font-family="Helvetica,sans-Serif" font-size="10.00">_respond_</text>
</a>
</g>
</g>
<!-- Node2&#45;&gt;Node3 -->
<g id="edge2" class="edge">
<title>Node2&#45;&gt;Node3</title>
<path fill="none" stroke="midnightblue" d="M292.15,-793.13C321,-807.84 364.96,-830.27 396.5,-846.36"/>
<polygon fill="midnightblue" stroke="midnightblue" points="394.95,-849.5 405.45,-850.92 398.13,-843.26 394.95,-849.5"/>
</g>
<!-- Node2&#45;&gt;Node7 -->
<g id="edge20" class="edge">
<title>Node2&#45;&gt;Node7</title>
<path fill="none" stroke="midnightblue" d="M326.37,-782.41C441.73,-788.95 692.02,-796.53 898,-757 919.07,-752.96 941.77,-744.8 959.28,-737.6"/>
<polygon fill="midnightblue" stroke="midnightblue" points="961.1,-740.64 968.95,-733.52 958.37,-734.19 961.1,-740.64"/>
</g>
<!-- Node22 -->
<g id="node18" class="node">
<title>Node22</title>
<g id="a_node18"><a xlink:href="event__logger_8c.html#a7fdaa66af22854e97bb22c6fecf33ad8" target="_top" xlink:title="TLog のイベントテーブルの最新からn番目のイベントを取得">
<polygon fill="white" stroke="black" points="378.5,-725 378.5,-755 493.5,-755 493.5,-725 378.5,-725"/>
<text text-anchor="start" x="386.5" y="-743" font-family="Helvetica,sans-Serif" font-size="10.00">EL_get_the_nth_tlog</text>
<text text-anchor="middle" x="436" y="-732" font-family="Helvetica,sans-Serif" font-size="10.00">_from_the_latest</text>
</a>
</g>
</g>
<!-- Node2&#45;&gt;Node22 -->
<g id="edge19" class="edge">
<title>Node2&#45;&gt;Node22</title>
<path fill="none" stroke="midnightblue" d="M326.24,-763.96C339.99,-760.93 354.56,-757.72 368.41,-754.67"/>
<polygon fill="midnightblue" stroke="midnightblue" points="369.33,-758.05 378.35,-752.48 367.83,-751.21 369.33,-758.05"/>
</g>
<!-- Node3&#45;&gt;Node1 -->
<g id="edge3" class="edge">
<title>Node3&#45;&gt;Node1</title>
<path fill="none" stroke="midnightblue" d="M375.64,-864.1C326.78,-861.21 256.17,-854 197,-836 163.42,-825.78 127.75,-806.39 105.08,-792.86"/>
<polygon fill="midnightblue" stroke="midnightblue" points="106.85,-789.84 96.49,-787.63 103.22,-795.82 106.85,-789.84"/>
</g>
<!-- Node4 -->
<g id="node4" class="node">
<title>Node4</title>
<g id="a_node4"><a xlink:href="event__handler_8c.html#a4d77e82a40fe0de25c75cc34a1ed818a" target="_top" xlink:title="EH_RuleSortedIndex から，目的の EL_Event の idx を検索する">
<polygon fill="white" stroke="black" points="565.5,-889 565.5,-919 687.5,-919 687.5,-889 565.5,-889"/>
<text text-anchor="start" x="573.5" y="-907" font-family="Helvetica,sans-Serif" font-size="10.00">EH_search_rule_table</text>
<text text-anchor="middle" x="626.5" y="-896" font-family="Helvetica,sans-Serif" font-size="10.00">_index_</text>
</a>
</g>
</g>
<!-- Node3&#45;&gt;Node4 -->
<g id="edge4" class="edge">
<title>Node3&#45;&gt;Node4</title>
<path fill="none" stroke="midnightblue" d="M496.13,-877.92C514.88,-881.7 535.8,-885.92 555.26,-889.84"/>
<polygon fill="midnightblue" stroke="midnightblue" points="554.79,-893.32 565.29,-891.86 556.18,-886.45 554.79,-893.32"/>
</g>
<!-- Node3&#45;&gt;Node7 -->
<g id="edge7" class="edge">
<title>Node3&#45;&gt;Node7</title>
<path fill="none" stroke="midnightblue" d="M496.2,-867.92C604.46,-870.49 829.54,-871.24 898,-836 937.81,-815.51 966.56,-769.22 980.34,-743.01"/>
<polygon fill="midnightblue" stroke="midnightblue" points="983.63,-744.25 985.02,-733.75 977.39,-741.09 983.63,-744.25"/>
</g>
<!-- Node5 -->
<g id="node5" class="node">
<title>Node5</title>
<g id="a_node5"><a xlink:href="bsearch_8c.html#aefe549690442815bb8fcecfe239f2c6c" target="_top" xlink:title=" ">
<polygon fill="white" stroke="black" points="793,-938.5 793,-957.5 848,-957.5 848,-938.5 793,-938.5"/>
<text text-anchor="middle" x="820.5" y="-945.5" font-family="Helvetica,sans-Serif" font-size="10.00">bsearch</text>
</a>
</g>
</g>
<!-- Node4&#45;&gt;Node5 -->
<g id="edge5" class="edge">
<title>Node4&#45;&gt;Node5</title>
<path fill="none" stroke="midnightblue" d="M687.72,-917.8C719.03,-924.97 756.25,-933.51 783.14,-939.67"/>
<polygon fill="midnightblue" stroke="midnightblue" points="782.38,-943.08 792.9,-941.91 783.94,-936.26 782.38,-943.08"/>
</g>
<!-- Node6 -->
<g id="node6" class="node">
<title>Node6</title>
<g id="a_node6"><a xlink:href="event__handler_8c.html#a1d5bd0374a75859e6b0bf5b4455a50d9" target="_top" xlink:title="EH_search_rule_table_index_ での bsearch 用の EH_RuleSortedIndex 比較関数">
<polygon fill="white" stroke="black" points="747.5,-889 747.5,-919 893.5,-919 893.5,-889 747.5,-889"/>
<text text-anchor="start" x="755.5" y="-907" font-family="Helvetica,sans-Serif" font-size="10.00">EH_compare_sorted_index</text>
<text text-anchor="middle" x="820.5" y="-896" font-family="Helvetica,sans-Serif" font-size="10.00">_for_bsearch_</text>
</a>
</g>
</g>
<!-- Node4&#45;&gt;Node6 -->
<g id="edge6" class="edge">
<title>Node4&#45;&gt;Node6</title>
<path fill="none" stroke="midnightblue" d="M687.72,-904C703.39,-904 720.54,-904 737.13,-904"/>
<polygon fill="midnightblue" stroke="midnightblue" points="737.37,-907.5 747.37,-904 737.37,-900.5 737.37,-907.5"/>
</g>
<!-- Node8 -->
<g id="node8" class="node">
<title>Node8</title>
<g id="a_node8"><a xlink:href="event__logger_8c.html#a80a1b60c587d1e3402b02e3bde1db899" target="_top" xlink:title="イベント (EL_Event) を記録">
<polygon fill="white" stroke="black" points="1105,-344.5 1105,-363.5 1207,-363.5 1207,-344.5 1105,-344.5"/>
<text text-anchor="middle" x="1156" y="-351.5" font-family="Helvetica,sans-Serif" font-size="10.00">EL_record_event_</text>
</a>
</g>
</g>
<!-- Node7&#45;&gt;Node8 -->
<g id="edge8" class="edge">
<title>Node7&#45;&gt;Node8</title>
<path fill="none" stroke="midnightblue" d="M995.71,-714.48C1017.39,-665.41 1116.68,-440.73 1146.5,-373.23"/>
<polygon fill="midnightblue" stroke="midnightblue" points="1149.83,-374.36 1150.67,-363.8 1143.43,-371.53 1149.83,-374.36"/>
</g>
<!-- Node9 -->
<g id="node9" class="node">
<title>Node9</title>
<g id="a_node9"><a xlink:href="event__logger_8c.html#aeae14f21b4e29006f709a61e7de52d67" target="_top" xlink:title="TLog の wp をチェックし， event を生成する">
<polygon fill="white" stroke="black" points="1270.5,-300.5 1270.5,-319.5 1380.5,-319.5 1380.5,-300.5 1270.5,-300.5"/>
<text text-anchor="middle" x="1325.5" y="-307.5" font-family="Helvetica,sans-Serif" font-size="10.00">EL_check_tlog_wp_</text>
</a>
</g>
</g>
<!-- Node8&#45;&gt;Node9 -->
<g id="edge9" class="edge">
<title>Node8&#45;&gt;Node9</title>
<path fill="none" stroke="midnightblue" d="M1176.21,-344.46C1196.67,-337.18 1230.17,-327.68 1260.15,-320.32"/>
<polygon fill="midnightblue" stroke="midnightblue" points="1261.26,-323.65 1270.16,-317.91 1259.62,-316.84 1261.26,-323.65"/>
</g>
<!-- Node10 -->
<g id="node10" class="node">
<title>Node10</title>
<g id="a_node10"><a xlink:href="event__logger_8c.html#a0b42c2f5d1eafdad83481ec6e63365e2" target="_top" xlink:title="イベント (EL_Event) を初期化">
<polygon fill="white" stroke="black" points="1282,-437.5 1282,-456.5 1369,-456.5 1369,-437.5 1282,-437.5"/>
<text text-anchor="middle" x="1325.5" y="-444.5" font-family="Helvetica,sans-Serif" font-size="10.00">EL_init_event_</text>
</a>
</g>
</g>
<!-- Node8&#45;&gt;Node10 -->
<g id="edge11" class="edge">
<title>Node8&#45;&gt;Node10</title>
<path fill="none" stroke="midnightblue" d="M1168.97,-363.69C1188.21,-378.9 1227.67,-408.54 1265,-427 1270.07,-429.51 1275.52,-431.82 1281,-433.91"/>
<polygon fill="midnightblue" stroke="midnightblue" points="1280.22,-437.35 1290.82,-437.44 1282.59,-430.76 1280.22,-437.35"/>
</g>
<!-- Node13 -->
<g id="node12" class="node">
<title>Node13</title>
<g id="a_node12"><a xlink:href="event__logger_8c.html#a50ba2fe43a96f7351951a4109227ba6f" target="_top" xlink:title="event_logger の EL_Event.group が有効か？">
<polygon fill="white" stroke="black" points="1265,-262.5 1265,-281.5 1386,-281.5 1386,-262.5 1265,-262.5"/>
<text text-anchor="middle" x="1325.5" y="-269.5" font-family="Helvetica,sans-Serif" font-size="10.00">EL_is_logging_enable</text>
</a>
</g>
</g>
<!-- Node8&#45;&gt;Node13 -->
<g id="edge13" class="edge">
<title>Node8&#45;&gt;Node13</title>
<path fill="none" stroke="midnightblue" d="M1171.14,-344.39C1191.27,-331.03 1229.7,-306.71 1265,-291 1269.95,-288.8 1275.24,-286.73 1280.55,-284.83"/>
<polygon fill="midnightblue" stroke="midnightblue" points="1281.7,-288.13 1290.04,-281.59 1279.44,-281.51 1281.7,-288.13"/>
</g>
<!-- Node14 -->
<g id="node13" class="node">
<title>Node14</title>
<g id="a_node13"><a xlink:href="event__logger_8c.html#a69fb9dbc85ad467d048f1c9f31d2442c" target="_top" xlink:title="イベント (EL_Event) を CLog に記録">
<polygon fill="white" stroke="black" points="1269.5,-339 1269.5,-369 1381.5,-369 1381.5,-339 1269.5,-339"/>
<text text-anchor="start" x="1277.5" y="-357" font-family="Helvetica,sans-Serif" font-size="10.00">EL_record_event_to</text>
<text text-anchor="middle" x="1325.5" y="-346" font-family="Helvetica,sans-Serif" font-size="10.00">_clog_</text>
</a>
</g>
</g>
<!-- Node8&#45;&gt;Node14 -->
<g id="edge14" class="edge">
<title>Node8&#45;&gt;Node14</title>
<path fill="none" stroke="midnightblue" d="M1207.26,-354C1223.61,-354 1242,-354 1259.28,-354"/>
<polygon fill="midnightblue" stroke="midnightblue" points="1259.31,-357.5 1269.31,-354 1259.31,-350.5 1259.31,-357.5"/>
</g>
<!-- Node20 -->
<g id="node16" class="node">
<title>Node20</title>
<g id="a_node16"><a xlink:href="event__logger_8c.html#a93cb3659efd373de0856c92b3c08896a" target="_top" xlink:title="イベント (EL_Event) を TLog に記録">
<polygon fill="white" stroke="black" points="1269.5,-388 1269.5,-418 1381.5,-418 1381.5,-388 1269.5,-388"/>
<text text-anchor="start" x="1277.5" y="-406" font-family="Helvetica,sans-Serif" font-size="10.00">EL_record_event_to</text>
<text text-anchor="middle" x="1325.5" y="-395" font-family="Helvetica,sans-Serif" font-size="10.00">_tlog_</text>
</a>
</g>
</g>
<!-- Node8&#45;&gt;Node20 -->
<g id="edge17" class="edge">
<title>Node8&#45;&gt;Node20</title>
<path fill="none" stroke="midnightblue" d="M1189.69,-363.56C1210.62,-369.69 1238.43,-377.82 1263.35,-385.11"/>
<polygon fill="midnightblue" stroke="midnightblue" points="1262.52,-388.51 1273.1,-387.96 1264.48,-381.8 1262.52,-388.51"/>
</g>
<!-- Node9&#45;&gt;Node8 -->
<g id="edge10" class="edge">
<title>Node9&#45;&gt;Node8</title>
<path fill="none" stroke="midnightblue" d="M1305.21,-319.57C1283.77,-327.19 1248.1,-337.23 1217.12,-344.71"/>
<polygon fill="midnightblue" stroke="midnightblue" points="1216.18,-341.34 1207.26,-347.04 1217.79,-348.15 1216.18,-341.34"/>
</g>
<!-- Node11 -->
<g id="node11" class="node">
<title>Node11</title>
<g id="a_node11"><a xlink:href="time__manager_8c.html#a9d04b4d9b622cbe5a90cf65e58b828bc" target="_top" xlink:title="現在の master_clock_ を取得する">
<polygon fill="white" stroke="red" points="1422,-437.5 1422,-456.5 1559,-456.5 1559,-437.5 1422,-437.5"/>
<text text-anchor="middle" x="1490.5" y="-444.5" font-family="Helvetica,sans-Serif" font-size="10.00">TMGR_get_master_clock</text>
</a>
</g>
</g>
<!-- Node10&#45;&gt;Node11 -->
<g id="edge12" class="edge">
<title>Node10&#45;&gt;Node11</title>
<path fill="none" stroke="midnightblue" d="M1369.33,-447C1382.35,-447 1397.1,-447 1411.69,-447"/>
<polygon fill="midnightblue" stroke="midnightblue" points="1411.74,-450.5 1421.74,-447 1411.74,-443.5 1411.74,-450.5"/>
</g>
<!-- Node15 -->
<g id="node14" class="node">
<title>Node15</title>
<g id="a_node14"><a xlink:href="event__logger_8c.html#a605a3ff223ddae8830c09ff5aa57cc94" target="_top" xlink:title="該当イベントの CLog を，イベントテーブルの先頭に出す">
<polygon fill="white" stroke="red" points="1431,-339 1431,-369 1550,-369 1550,-339 1431,-339"/>
<text text-anchor="start" x="1439" y="-357" font-family="Helvetica,sans-Serif" font-size="10.00">EL_move_to_front_in</text>
<text text-anchor="middle" x="1490.5" y="-346" font-family="Helvetica,sans-Serif" font-size="10.00">_clog_</text>
</a>
</g>
</g>
<!-- Node14&#45;&gt;Node15 -->
<g id="edge15" class="edge">
<title>Node14&#45;&gt;Node15</title>
<path fill="none" stroke="midnightblue" d="M1381.68,-354C1394.15,-354 1407.53,-354 1420.48,-354"/>
<polygon fill="midnightblue" stroke="midnightblue" points="1420.75,-357.5 1430.75,-354 1420.75,-350.5 1420.75,-357.5"/>
</g>
<!-- Node18 -->
<g id="node15" class="node">
<title>Node18</title>
<g id="a_node15"><a xlink:href="obc__time_8c.html#a02512f745375636ab21f468838587942" target="_top" xlink:title="ObcTime の引き算を行う">
<polygon fill="white" stroke="red" points="1458,-262.5 1458,-281.5 1523,-281.5 1523,-262.5 1458,-262.5"/>
<text text-anchor="middle" x="1490.5" y="-269.5" font-family="Helvetica,sans-Serif" font-size="10.00">OBCT_diff</text>
</a>
</g>
</g>
<!-- Node14&#45;&gt;Node18 -->
<g id="edge16" class="edge">
<title>Node14&#45;&gt;Node18</title>
<path fill="none" stroke="midnightblue" d="M1363.91,-338.99C1371.29,-335.83 1378.94,-332.42 1386,-329 1413.38,-315.75 1443.77,-298.73 1464.49,-286.75"/>
<polygon fill="midnightblue" stroke="midnightblue" points="1466.41,-289.68 1473.29,-281.63 1462.89,-283.63 1466.41,-289.68"/>
</g>
<!-- Node21 -->
<g id="node17" class="node">
<title>Node21</title>
<g id="a_node17"><a xlink:href="event__logger_8c.html#af088469f27d5dfca608a9cacee9fbc17" target="_top" xlink:title="TLog のイベントテーブルの上書きが有効か？">
<polygon fill="white" stroke="black" points="1432,-388 1432,-418 1549,-418 1549,-388 1432,-388"/>
<text text-anchor="start" x="1440" y="-406" font-family="Helvetica,sans-Serif" font-size="10.00">EL_is_tlog_overwrite</text>
<text text-anchor="middle" x="1490.5" y="-395" font-family="Helvetica,sans-Serif" font-size="10.00">_enable</text>
</a>
</g>
</g>
<!-- Node20&#45;&gt;Node21 -->
<g id="edge18" class="edge">
<title>Node20&#45;&gt;Node21</title>
<path fill="none" stroke="midnightblue" d="M1381.68,-403C1394.56,-403 1408.43,-403 1421.78,-403"/>
<polygon fill="midnightblue" stroke="midnightblue" points="1421.87,-406.5 1431.87,-403 1421.87,-399.5 1421.87,-406.5"/>
</g>
<!-- Node23&#45;&gt;Node7 -->
<g id="edge32" class="edge">
<title>Node23&#45;&gt;Node7</title>
<path fill="none" stroke="midnightblue" d="M263.72,-218.56C270.61,-270.74 306.19,-520.74 362,-570 452.24,-649.65 788.04,-599.05 898,-648 928.92,-661.76 957.75,-689.06 974.5,-706.91"/>
<polygon fill="midnightblue" stroke="midnightblue" points="971.98,-709.34 981.31,-714.37 977.15,-704.62 971.98,-709.34"/>
</g>
<!-- Node24 -->
<g id="node20" class="node">
<title>Node24</title>
<g id="a_node20"><a xlink:href="event__handler_8c.html#aa8f8643b631236606e67efd8f301d88c" target="_top" xlink:title="EH の対応条件をチェックする (EH_RESPONSE_CONDITION_CONTINUOUS)">
<polygon fill="white" stroke="black" points="375,-49 375,-79 497,-79 497,-49 375,-49"/>
<text text-anchor="start" x="383" y="-67" font-family="Helvetica,sans-Serif" font-size="10.00">EH_check_continuous</text>
<text text-anchor="middle" x="436" y="-56" font-family="Helvetica,sans-Serif" font-size="10.00">_rule_</text>
</a>
</g>
</g>
<!-- Node23&#45;&gt;Node24 -->
<g id="edge22" class="edge">
<title>Node23&#45;&gt;Node24</title>
<path fill="none" stroke="midnightblue" d="M273.82,-199.49C301,-176.64 370.51,-118.21 408.77,-86.05"/>
<polygon fill="midnightblue" stroke="midnightblue" points="411.48,-88.34 416.89,-79.23 406.98,-82.98 411.48,-88.34"/>
</g>
<!-- Node30 -->
<g id="node26" class="node">
<title>Node30</title>
<g id="a_node26"><a xlink:href="event__handler_8c.html#af067cdf04b4ff6b4a8663cbeb9447c62" target="_top" xlink:title="EH の対応条件をチェックする (EH_RESPONSE_CONDITION_CUMULATIVE)">
<polygon fill="white" stroke="black" points="374,-194 374,-224 498,-224 498,-194 374,-194"/>
<text text-anchor="start" x="382" y="-212" font-family="Helvetica,sans-Serif" font-size="10.00">EH_check_cumulative</text>
<text text-anchor="middle" x="436" y="-201" font-family="Helvetica,sans-Serif" font-size="10.00">_rule_</text>
</a>
</g>
</g>
<!-- Node23&#45;&gt;Node30 -->
<g id="edge29" class="edge">
<title>Node23&#45;&gt;Node30</title>
<path fill="none" stroke="midnightblue" d="M308.27,-209C325.2,-209 344.82,-209 363.49,-209"/>
<polygon fill="midnightblue" stroke="midnightblue" points="363.74,-212.5 373.74,-209 363.74,-205.5 363.74,-212.5"/>
</g>
<!-- Node31 -->
<g id="node27" class="node">
<title>Node31</title>
<g id="a_node27"><a xlink:href="event__handler_8c.html#aaafb8f63aa347235b58cd1aec79911a0" target="_top" xlink:title="EH の対応条件をチェックする (EH_RESPONSE_CONDITION_SINGLE)">
<polygon fill="white" stroke="black" points="372,-155.5 372,-174.5 500,-174.5 500,-155.5 372,-155.5"/>
<text text-anchor="middle" x="436" y="-162.5" font-family="Helvetica,sans-Serif" font-size="10.00">EH_check_single_rule_</text>
</a>
</g>
</g>
<!-- Node23&#45;&gt;Node31 -->
<g id="edge31" class="edge">
<title>Node23&#45;&gt;Node31</title>
<path fill="none" stroke="midnightblue" d="M299.93,-199.45C325.7,-192.88 360.14,-184.1 387.79,-177.04"/>
<polygon fill="midnightblue" stroke="midnightblue" points="388.82,-180.39 397.64,-174.53 387.09,-173.61 388.82,-180.39"/>
</g>
<!-- Node25 -->
<g id="node21" class="node">
<title>Node25</title>
<g id="a_node21"><a xlink:href="event__handler_8c.html#a7ef25ddb66d3268593fe7b80e71e59ed" target="_top" xlink:title="EH_Rule の counter を 0 クリア">
<polygon fill="white" stroke="black" points="564,-54.5 564,-73.5 689,-73.5 689,-54.5 564,-54.5"/>
<text text-anchor="middle" x="626.5" y="-61.5" font-family="Helvetica,sans-Serif" font-size="10.00">EH_clear_rule_counter</text>
</a>
</g>
</g>
<!-- Node24&#45;&gt;Node25 -->
<g id="edge23" class="edge">
<title>Node24&#45;&gt;Node25</title>
<path fill="none" stroke="midnightblue" d="M497.16,-64C515.16,-64 535.08,-64 553.75,-64"/>
<polygon fill="midnightblue" stroke="midnightblue" points="553.97,-67.5 563.97,-64 553.97,-60.5 553.97,-67.5"/>
</g>
<!-- Node28 -->
<g id="node24" class="node">
<title>Node28</title>
<g id="a_node24"><a xlink:href="obc__time_8c.html#a51f2c2c48be7ec8985ec47f36bef1335" target="_top" xlink:title="ObcTime の引き算をミリ秒単位で行う">
<polygon fill="white" stroke="black" points="571.5,-0.5 571.5,-19.5 681.5,-19.5 681.5,-0.5 571.5,-0.5"/>
<text text-anchor="middle" x="626.5" y="-7.5" font-family="Helvetica,sans-Serif" font-size="10.00">OBCT_diff_in_msec</text>
</a>
</g>
</g>
<!-- Node24&#45;&gt;Node28 -->
<g id="edge26" class="edge">
<title>Node24&#45;&gt;Node28</title>
<path fill="none" stroke="midnightblue" d="M489.51,-48.96C518.81,-40.56 554.85,-30.24 582.47,-22.33"/>
<polygon fill="midnightblue" stroke="midnightblue" points="583.59,-25.65 592.24,-19.53 581.66,-18.92 583.59,-25.65"/>
</g>
<!-- Node26 -->
<g id="node22" class="node">
<title>Node26</title>
<g id="a_node22"><a xlink:href="event__handler_8c.html#a849447829aa68239351929abc5f10ef4" target="_top" xlink:title="EH_Rule の counter をセット">
<polygon fill="white" stroke="black" points="762.5,-30.5 762.5,-49.5 878.5,-49.5 878.5,-30.5 762.5,-30.5"/>
<text text-anchor="middle" x="820.5" y="-37.5" font-family="Helvetica,sans-Serif" font-size="10.00">EH_set_rule_counter</text>
</a>
</g>
</g>
<!-- Node25&#45;&gt;Node26 -->
<g id="edge24" class="edge">
<title>Node25&#45;&gt;Node26</title>
<path fill="none" stroke="midnightblue" d="M689.04,-56.31C709.12,-53.8 731.52,-51 752.01,-48.44"/>
<polygon fill="midnightblue" stroke="midnightblue" points="752.73,-51.87 762.22,-47.16 751.86,-44.93 752.73,-51.87"/>
</g>
<!-- Node27 -->
<g id="node23" class="node">
<title>Node27</title>
<g id="a_node23"><a xlink:href="event__handler_8c.html#a59de6a0bd2f3bfae3758c0cada7c5ca6" target="_top" xlink:title="EH_RULE_ID のルール登録状況を調べる">
<polygon fill="white" stroke="black" points="937,-68.5 937,-87.5 1044,-87.5 1044,-68.5 937,-68.5"/>
<text text-anchor="middle" x="990.5" y="-75.5" font-family="Helvetica,sans-Serif" font-size="10.00">EH_check_rule_id_</text>
</a>
</g>
</g>
<!-- Node26&#45;&gt;Node27 -->
<g id="edge25" class="edge">
<title>Node26&#45;&gt;Node27</title>
<path fill="none" stroke="midnightblue" d="M863.89,-49.59C886.26,-54.65 913.9,-60.9 937.55,-66.25"/>
<polygon fill="midnightblue" stroke="midnightblue" points="936.89,-69.69 947.41,-68.48 938.43,-62.86 936.89,-69.69"/>
</g>
<!-- Node29 -->
<g id="node25" class="node">
<title>Node29</title>
<g id="a_node25"><a xlink:href="obc__time_8c.html#a3adce1b790eb67e1eff3cb1e79fc197f" target="_top" xlink:title="ObcTime の引き算を step 単位で行う">
<polygon fill="white" stroke="black" points="1103.5,-115.5 1103.5,-134.5 1208.5,-134.5 1208.5,-115.5 1103.5,-115.5"/>
<text text-anchor="middle" x="1156" y="-122.5" font-family="Helvetica,sans-Serif" font-size="10.00">OBCT_diff_in_step</text>
</a>
</g>
</g>
<!-- Node28&#45;&gt;Node29 -->
<g id="edge27" class="edge">
<title>Node28&#45;&gt;Node29</title>
<path fill="none" stroke="midnightblue" d="M681.57,-6.92C763.88,-4.25 924.04,-7.14 1047,-59 1079.07,-72.52 1112.79,-94.58 1133.85,-109.43"/>
<polygon fill="midnightblue" stroke="midnightblue" points="1131.89,-112.33 1142.06,-115.3 1135.97,-106.64 1131.89,-112.33"/>
</g>
<!-- Node29&#45;&gt;Node18 -->
<g id="edge28" class="edge">
<title>Node29&#45;&gt;Node18</title>
<path fill="none" stroke="midnightblue" d="M1178.56,-134.53C1235.89,-159.88 1392.27,-229.02 1458.84,-258.45"/>
<polygon fill="midnightblue" stroke="midnightblue" points="1457.43,-261.65 1467.99,-262.49 1460.26,-255.25 1457.43,-261.65"/>
</g>
<!-- Node30&#45;&gt;Node25 -->
<g id="edge30" class="edge">
<title>Node30&#45;&gt;Node25</title>
<path fill="none" stroke="midnightblue" d="M496.25,-193.97C501.25,-191.19 505.94,-187.9 510,-184 541.95,-153.28 514.01,-121.68 546,-91 551.77,-85.47 558.72,-81.07 566.07,-77.56"/>
<polygon fill="midnightblue" stroke="midnightblue" points="567.68,-80.69 575.55,-73.59 564.97,-74.23 567.68,-80.69"/>
</g>
<!-- Node32&#45;&gt;Node7 -->
<g id="edge67" class="edge">
<title>Node32&#45;&gt;Node7</title>
<path fill="none" stroke="midnightblue" d="M301.7,-665.59C320.02,-669.11 342.11,-673.32 362,-677 597.34,-720.57 658.75,-735.53 898,-729 908.84,-728.7 920.39,-728.21 931.5,-727.65"/>
<polygon fill="midnightblue" stroke="midnightblue" points="931.76,-731.14 941.56,-727.11 931.39,-724.15 931.76,-731.14"/>
</g>
<!-- Node33 -->
<g id="node29" class="node">
<title>Node33</title>
<g id="a_node29"><a xlink:href="common__cmd__packet__util_8c.html#a667d05b68ff9924ced9b5bf3e419e0f1" target="_top" xlink:title="BC展開 command を生成し，即時実行する">
<polygon fill="white" stroke="black" points="362.5,-531 362.5,-561 509.5,-561 509.5,-531 362.5,-531"/>
<text text-anchor="start" x="370.5" y="-549" font-family="Helvetica,sans-Serif" font-size="10.00">CCP_form_and_exec_block</text>
<text text-anchor="middle" x="436" y="-538" font-family="Helvetica,sans-Serif" font-size="10.00">_deploy_cmd</text>
</a>
</g>
</g>
<!-- Node32&#45;&gt;Node33 -->
<g id="edge34" class="edge">
<title>Node32&#45;&gt;Node33</title>
<path fill="none" stroke="midnightblue" d="M277.21,-648.45C304.96,-630.43 365.65,-591.03 403.15,-566.68"/>
<polygon fill="midnightblue" stroke="midnightblue" points="405.21,-569.52 411.69,-561.13 401.4,-563.64 405.21,-569.52"/>
</g>
<!-- Node126 -->
<g id="node46" class="node">
<title>Node126</title>
<g id="a_node46"><a xlink:href="event__handler_8c.html#af099854359b045025e9887956c19769f" target="_top" xlink:title="ルールの無効化 (multi&#45;level)">
<polygon fill="white" stroke="black" points="572.5,-101 572.5,-131 680.5,-131 680.5,-101 572.5,-101"/>
<text text-anchor="start" x="580.5" y="-119" font-family="Helvetica,sans-Serif" font-size="10.00">EH_inactivate_rule</text>
<text text-anchor="middle" x="626.5" y="-108" font-family="Helvetica,sans-Serif" font-size="10.00">_for_multi_level</text>
</a>
</g>
</g>
<!-- Node32&#45;&gt;Node126 -->
<g id="edge59" class="edge">
<title>Node32&#45;&gt;Node126</title>
<path fill="none" stroke="midnightblue" d="M269.11,-648.13C311.61,-584.68 546.57,-233.85 609.82,-139.41"/>
<polygon fill="midnightblue" stroke="midnightblue" points="612.73,-141.35 615.39,-131.09 606.92,-137.45 612.73,-141.35"/>
</g>
<!-- Node128 -->
<g id="node48" class="node">
<title>Node128</title>
<g id="a_node48"><a xlink:href="event__handler_8c.html#aea878950d4dd21be914534ab13f78e9b" target="_top" xlink:title="EH 対応のログを残す">
<polygon fill="white" stroke="black" points="362,-648.5 362,-667.5 510,-667.5 510,-648.5 362,-648.5"/>
<text text-anchor="middle" x="436" y="-655.5" font-family="Helvetica,sans-Serif" font-size="10.00">EH_record_responded_log_</text>
</a>
</g>
</g>
<!-- Node32&#45;&gt;Node128 -->
<g id="edge63" class="edge">
<title>Node32&#45;&gt;Node128</title>
<path fill="none" stroke="midnightblue" d="M301.64,-658C316.52,-658 334.09,-658 351.51,-658"/>
<polygon fill="midnightblue" stroke="midnightblue" points="351.73,-661.5 361.73,-658 351.73,-654.5 351.73,-661.5"/>
</g>
<!-- Node34 -->
<g id="node30" class="node">
<title>Node34</title>
<g id="a_node30"><a xlink:href="common__cmd__packet__util_8c.html#ac4a5c5fca95eda07227b4da1883612fc" target="_top" xlink:title="BC展開 Realtime command を生成">
<polygon fill="white" stroke="black" points="546,-275.5 546,-294.5 707,-294.5 707,-275.5 546,-275.5"/>
<text text-anchor="middle" x="626.5" y="-282.5" font-family="Helvetica,sans-Serif" font-size="10.00">CCP_form_block_deploy_cmd</text>
</a>
</g>
</g>
<!-- Node33&#45;&gt;Node34 -->
<g id="edge35" class="edge">
<title>Node33&#45;&gt;Node34</title>
<path fill="none" stroke="midnightblue" d="M447.95,-530.84C480.65,-485.56 577.5,-351.46 612.61,-302.85"/>
<polygon fill="midnightblue" stroke="midnightblue" points="615.57,-304.72 618.59,-294.57 609.9,-300.62 615.57,-304.72"/>
</g>
<!-- Node86 -->
<g id="node39" class="node">
<title>Node86</title>
<g id="a_node39"><a xlink:href="common__cmd__packet__util_8c.html#a9e58970e1fdf3fd593d764f353e28562" target="_top" xlink:title="コマンド返り値である CCP_CmdRet を作成（エラーコード不使用版）">
<polygon fill="white" stroke="black" points="743,-570 743,-600 898,-600 898,-570 743,-570"/>
<text text-anchor="start" x="751" y="-588" font-family="Helvetica,sans-Serif" font-size="10.00">CCP_make_cmd_ret_without</text>
<text text-anchor="middle" x="820.5" y="-577" font-family="Helvetica,sans-Serif" font-size="10.00">_err_code</text>
</a>
</g>
</g>
<!-- Node33&#45;&gt;Node86 -->
<g id="edge46" class="edge">
<title>Node33&#45;&gt;Node86</title>
<path fill="none" stroke="midnightblue" d="M509.85,-553.43C573.35,-559.9 665.56,-569.3 732.84,-576.16"/>
<polygon fill="midnightblue" stroke="midnightblue" points="732.69,-579.67 742.99,-577.2 733.4,-572.7 732.69,-579.67"/>
</g>
<!-- Node88 -->
<g id="node41" class="node">
<title>Node88</title>
<g id="a_node41"><a xlink:href="packet__handler_8c.html#aa0decb14f7fee73ca1ed3e9a10b05087" target="_top" xlink:title="CCP をコマンドとして解釈して実行，ないしは別機器へ配送する">
<polygon fill="white" stroke="black" points="561,-509.5 561,-528.5 692,-528.5 692,-509.5 561,-509.5"/>
<text text-anchor="middle" x="626.5" y="-516.5" font-family="Helvetica,sans-Serif" font-size="10.00">PH_dispatch_command</text>
</a>
</g>
</g>
<!-- Node33&#45;&gt;Node88 -->
<g id="edge48" class="edge">
<title>Node33&#45;&gt;Node88</title>
<path fill="none" stroke="midnightblue" d="M509.61,-535.6C523.08,-533.67 537.18,-531.65 550.71,-529.71"/>
<polygon fill="midnightblue" stroke="midnightblue" points="551.53,-533.13 560.93,-528.25 550.54,-526.2 551.53,-533.13"/>
</g>
<!-- Node35 -->
<g id="node31" class="node">
<title>Node35</title>
<g id="a_node31"><a xlink:href="common__cmd__packet__util_8c.html#a01b352632ca605771f0cfd66a2a149ba" target="_top" xlink:title="NOP cmd の RTC CCP を作る">
<polygon fill="white" stroke="black" points="765,-182.5 765,-201.5 876,-201.5 876,-182.5 765,-182.5"/>
<text text-anchor="middle" x="820.5" y="-189.5" font-family="Helvetica,sans-Serif" font-size="10.00">CCP_form_nop_rtc_</text>
</a>
</g>
</g>
<!-- Node34&#45;&gt;Node35 -->
<g id="edge36" class="edge">
<title>Node34&#45;&gt;Node35</title>
<path fill="none" stroke="midnightblue" d="M639.56,-275.36C659.78,-259.64 702.32,-228.52 743,-211 748.77,-208.51 754.94,-206.31 761.17,-204.36"/>
<polygon fill="midnightblue" stroke="midnightblue" points="762.34,-207.67 770.96,-201.52 760.39,-200.94 762.34,-207.67"/>
</g>
<!-- Node36 -->
<g id="node32" class="node">
<title>Node36</title>
<g id="a_node32"><a xlink:href="common__cmd__packet__util_8c.html#af9f77cfe0b19d8078e79f1c32d9b2843" target="_top" xlink:title="Realtime command を生成">
<polygon fill="white" stroke="black" points="949,-182.5 949,-201.5 1032,-201.5 1032,-182.5 949,-182.5"/>
<text text-anchor="middle" x="990.5" y="-189.5" font-family="Helvetica,sans-Serif" font-size="10.00">CCP_form_rtc</text>
</a>
</g>
</g>
<!-- Node34&#45;&gt;Node36 -->
<g id="edge41" class="edge">
<title>Node34&#45;&gt;Node36</title>
<path fill="none" stroke="midnightblue" d="M633.54,-275.32C648.61,-252.24 690.45,-194.29 743,-173 813.15,-144.57 903.63,-164.33 953.14,-179.37"/>
<polygon fill="midnightblue" stroke="midnightblue" points="952.18,-182.74 962.76,-182.4 954.27,-176.06 952.18,-182.74"/>
</g>
<!-- Node77 -->
<g id="node35" class="node">
<title>Node77</title>
<g id="a_node35"><a xlink:href="common__cmd__packet__util_8c.html#ad5c2c14986594ce2f6b213458dfa728d" target="_top" xlink:title="Param Generator から完成した param を取得する">
<polygon fill="white" stroke="red" points="749,-368 749,-398 892,-398 892,-368 749,-368"/>
<text text-anchor="start" x="757" y="-386" font-family="Helvetica,sans-Serif" font-size="10.00">CCP_get_prepared_param</text>
<text text-anchor="middle" x="820.5" y="-375" font-family="Helvetica,sans-Serif" font-size="10.00">_for_packet</text>
</a>
</g>
</g>
<!-- Node34&#45;&gt;Node77 -->
<g id="edge42" class="edge">
<title>Node34&#45;&gt;Node77</title>
<path fill="none" stroke="midnightblue" d="M640.4,-294.67C661.12,-309.84 703.51,-339.42 743,-358 747.7,-360.21 752.65,-362.31 757.67,-364.27"/>
<polygon fill="midnightblue" stroke="midnightblue" points="756.79,-367.68 767.38,-367.9 759.24,-361.12 756.79,-367.68"/>
</g>
<!-- Node80 -->
<g id="node36" class="node">
<title>Node80</title>
<g id="a_node36"><a xlink:href="common__cmd__packet__util_8c.html#aac5fdc61181221fbc60b95acabaacd60" target="_top" xlink:title="Param Generator を初期化">
<polygon fill="white" stroke="red" points="764,-319 764,-349 877,-349 877,-319 764,-319"/>
<text text-anchor="start" x="772" y="-337" font-family="Helvetica,sans-Serif" font-size="10.00">CCP_init_param_for</text>
<text text-anchor="middle" x="820.5" y="-326" font-family="Helvetica,sans-Serif" font-size="10.00">_packet</text>
</a>
</g>
</g>
<!-- Node34&#45;&gt;Node80 -->
<g id="edge43" class="edge">
<title>Node34&#45;&gt;Node80</title>
<path fill="none" stroke="midnightblue" d="M664.98,-294.56C690.27,-301.02 724.34,-309.71 754.04,-317.29"/>
<polygon fill="midnightblue" stroke="midnightblue" points="753.38,-320.74 763.93,-319.82 755.11,-313.95 753.38,-320.74"/>
</g>
<!-- Node82 -->
<g id="node37" class="node">
<title>Node82</title>
<g id="a_node37"><a xlink:href="common__cmd__packet__util_8c.html#a923eb1f4cbe3d262a238c55d32a4b667" target="_top" xlink:title="Param Generator で bct_id_t のパラメタを登録">
<polygon fill="white" stroke="red" points="764,-270 764,-300 877,-300 877,-270 764,-270"/>
<text text-anchor="start" x="772" y="-288" font-family="Helvetica,sans-Serif" font-size="10.00">CCP_prepare_bct_id</text>
<text text-anchor="middle" x="820.5" y="-277" font-family="Helvetica,sans-Serif" font-size="10.00">_param_for_packet</text>
</a>
</g>
</g>
<!-- Node34&#45;&gt;Node82 -->
<g id="edge44" class="edge">
<title>Node34&#45;&gt;Node82</title>
<path fill="none" stroke="midnightblue" d="M707.26,-285C722.74,-285 738.81,-285 753.78,-285"/>
<polygon fill="midnightblue" stroke="midnightblue" points="753.95,-288.5 763.95,-285 753.95,-281.5 753.95,-288.5"/>
</g>
<!-- Node85 -->
<g id="node38" class="node">
<title>Node85</title>
<g id="a_node38"><a xlink:href="common__cmd__packet__util_8c.html#a41eae4bdd19d46fc4ec6cea1a9dadafb" target="_top" xlink:title="Param Generator で uint8_t のパラメタを登録">
<polygon fill="white" stroke="red" points="747.5,-221 747.5,-251 893.5,-251 893.5,-221 747.5,-221"/>
<text text-anchor="start" x="755.5" y="-239" font-family="Helvetica,sans-Serif" font-size="10.00">CCP_prepare_uint8_param</text>
<text text-anchor="middle" x="820.5" y="-228" font-family="Helvetica,sans-Serif" font-size="10.00">_for_packet</text>
</a>
</g>
</g>
<!-- Node34&#45;&gt;Node85 -->
<g id="edge45" class="edge">
<title>Node34&#45;&gt;Node85</title>
<path fill="none" stroke="midnightblue" d="M664.98,-275.44C689.28,-269.23 721.69,-260.96 750.54,-253.6"/>
<polygon fill="midnightblue" stroke="midnightblue" points="751.76,-256.9 760.58,-251.04 750.02,-250.12 751.76,-256.9"/>
</g>
<!-- Node35&#45;&gt;Node36 -->
<g id="edge37" class="edge">
<title>Node35&#45;&gt;Node36</title>
<path fill="none" stroke="midnightblue" d="M876.04,-185.63C896.2,-185.09 918.94,-185.12 938.74,-185.74"/>
<polygon fill="midnightblue" stroke="midnightblue" points="938.68,-189.24 948.8,-186.12 938.94,-182.25 938.68,-189.24"/>
</g>
<!-- Node36&#45;&gt;Node35 -->
<g id="edge39" class="edge">
<title>Node36&#45;&gt;Node35</title>
<path fill="none" stroke="midnightblue" d="M948.8,-197.88C930.02,-198.71 907.26,-198.95 886.22,-198.59"/>
<polygon fill="midnightblue" stroke="midnightblue" points="886.12,-195.09 876.04,-198.37 885.97,-202.08 886.12,-195.09"/>
</g>
<!-- Node37 -->
<g id="node33" class="node">
<title>Node37</title>
<g id="a_node33"><a xlink:href="command__analyze_8c.html#ae878a1a8ce00cc7468fbdd5bc5aba864" target="_top" xlink:title="コマンドパラメタ長をチェックする">
<polygon fill="white" stroke="red" points="1083,-277.5 1083,-296.5 1229,-296.5 1229,-277.5 1083,-277.5"/>
<text text-anchor="middle" x="1156" y="-284.5" font-family="Helvetica,sans-Serif" font-size="10.00">CA_ckeck_cmd_param_len</text>
</a>
</g>
</g>
<!-- Node36&#45;&gt;Node37 -->
<g id="edge38" class="edge">
<title>Node36&#45;&gt;Node37</title>
<path fill="none" stroke="midnightblue" d="M1008.08,-201.63C1036.72,-218.28 1095.66,-252.52 1129.53,-272.2"/>
<polygon fill="midnightblue" stroke="midnightblue" points="1127.97,-275.34 1138.38,-277.34 1131.49,-269.29 1127.97,-275.34"/>
</g>
<!-- Node44 -->
<g id="node34" class="node">
<title>Node44</title>
<g id="a_node34"><a xlink:href="common__cmd__packet__util_8c.html#a58160242c4b87906597c90a3465c9596" target="_top" xlink:title="RealTime Command を生成する. CCP_form_* の実体.">
<polygon fill="white" stroke="red" points="1112,-182.5 1112,-201.5 1200,-201.5 1200,-182.5 1112,-182.5"/>
<text text-anchor="middle" x="1156" y="-189.5" font-family="Helvetica,sans-Serif" font-size="10.00">CCP_form_rtc_</text>
</a>
</g>
</g>
<!-- Node36&#45;&gt;Node44 -->
<g id="edge40" class="edge">
<title>Node36&#45;&gt;Node44</title>
<path fill="none" stroke="midnightblue" d="M1032.34,-192C1053.33,-192 1079.18,-192 1101.73,-192"/>
<polygon fill="midnightblue" stroke="midnightblue" points="1101.83,-195.5 1111.83,-192 1101.83,-188.5 1101.83,-195.5"/>
</g>
<!-- Node87 -->
<g id="node40" class="node">
<title>Node87</title>
<g id="a_node40"><a xlink:href="common__cmd__packet__util_8c.html#a86a3aeedaeb2eac94c6c86eb0db7f8fd" target="_top" xlink:title="コマンド返り値である CCP_CmdRet を作成">
<polygon fill="white" stroke="black" points="934,-493.5 934,-512.5 1047,-512.5 1047,-493.5 934,-493.5"/>
<text text-anchor="middle" x="990.5" y="-500.5" font-family="Helvetica,sans-Serif" font-size="10.00">CCP_make_cmd_ret</text>
</a>
</g>
</g>
<!-- Node86&#45;&gt;Node87 -->
<g id="edge47" class="edge">
<title>Node86&#45;&gt;Node87</title>
<path fill="none" stroke="midnightblue" d="M873.19,-570C881.61,-567.02 890.15,-563.66 898,-560 923.13,-548.28 949.82,-531.03 967.85,-518.58"/>
<polygon fill="midnightblue" stroke="midnightblue" points="970.26,-521.17 976.43,-512.56 966.24,-515.44 970.26,-521.17"/>
</g>
<!-- Node88&#45;&gt;Node86 -->
<g id="edge55" class="edge">
<title>Node88&#45;&gt;Node86</title>
<path fill="none" stroke="midnightblue" d="M654.04,-528.64C677.41,-537.07 712.39,-549.57 743,-560 749.49,-562.21 756.3,-564.49 763.07,-566.74"/>
<polygon fill="midnightblue" stroke="midnightblue" points="762.32,-570.18 772.91,-569.98 764.51,-563.53 762.32,-570.18"/>
</g>
<!-- Node89 -->
<g id="node42" class="node">
<title>Node89</title>
<g id="a_node42"><a xlink:href="command__analyze_8c.html#ad02652c85c829b1f04670f2300d713b3" target="_top" xlink:title="コマンド実行の本体">
<polygon fill="white" stroke="red" points="770.5,-493.5 770.5,-512.5 870.5,-512.5 870.5,-493.5 770.5,-493.5"/>
<text text-anchor="middle" x="820.5" y="-500.5" font-family="Helvetica,sans-Serif" font-size="10.00">CA_execute_cmd</text>
</a>
</g>
</g>
<!-- Node88&#45;&gt;Node89 -->
<g id="edge49" class="edge">
<title>Node88&#45;&gt;Node89</title>
<path fill="none" stroke="midnightblue" d="M692.23,-513.61C714.23,-511.77 738.68,-509.74 760.22,-507.94"/>
<polygon fill="midnightblue" stroke="midnightblue" points="760.54,-511.43 770.22,-507.11 759.96,-504.45 760.54,-511.43"/>
</g>
<!-- Node98 -->
<g id="node43" class="node">
<title>Node98</title>
<g id="a_node43"><a xlink:href="common__cmd__packet_8h.html#aa24f85ec65651169c91ab2ad0fad832f" target="_top" xlink:title="APID を取得">
<polygon fill="white" stroke="red" points="949,-417.5 949,-436.5 1032,-436.5 1032,-417.5 949,-417.5"/>
<text text-anchor="middle" x="990.5" y="-424.5" font-family="Helvetica,sans-Serif" font-size="10.00">CCP_get_apid</text>
</a>
</g>
</g>
<!-- Node88&#45;&gt;Node98 -->
<g id="edge53" class="edge">
<title>Node88&#45;&gt;Node98</title>
<path fill="none" stroke="midnightblue" d="M638.66,-509.26C658.22,-492.83 700.67,-460.04 743,-446 807.98,-424.44 887.69,-422.37 938.54,-423.88"/>
<polygon fill="midnightblue" stroke="midnightblue" points="938.51,-427.38 948.62,-424.23 938.75,-420.38 938.51,-427.38"/>
</g>
<!-- Node102 -->
<g id="node44" class="node">
<title>Node102</title>
<g id="a_node44"><a xlink:href="common__cmd__packet_8h.html#add63f4e739670d463f6ace1f55fa3d48" target="_top" xlink:title="有効なパケットかチェックする">
<polygon fill="white" stroke="red" points="762.5,-531.5 762.5,-550.5 878.5,-550.5 878.5,-531.5 762.5,-531.5"/>
<text text-anchor="middle" x="820.5" y="-538.5" font-family="Helvetica,sans-Serif" font-size="10.00">CCP_is_valid_packet</text>
</a>
</g>
</g>
<!-- Node88&#45;&gt;Node102 -->
<g id="edge54" class="edge">
<title>Node88&#45;&gt;Node102</title>
<path fill="none" stroke="midnightblue" d="M692.23,-526.42C711.61,-528.64 732.89,-531.08 752.42,-533.31"/>
<polygon fill="midnightblue" stroke="midnightblue" points="752.11,-536.8 762.45,-534.46 752.91,-529.85 752.11,-536.8"/>
</g>
<!-- Node104 -->
<g id="node45" class="node">
<title>Node104</title>
<g id="a_node45"><a xlink:href="user__packet__handler_8c.html#a30e628852fd804a52dc0d6ae476a8a01" target="_top" xlink:title="PH の PH_dispatch_command のユーザー処理関数">
<polygon fill="white" stroke="red" points="762,-455.5 762,-474.5 879,-474.5 879,-455.5 762,-455.5"/>
<text text-anchor="middle" x="820.5" y="-462.5" font-family="Helvetica,sans-Serif" font-size="10.00">PH_user_cmd_router</text>
</a>
</g>
</g>
<!-- Node88&#45;&gt;Node104 -->
<g id="edge56" class="edge">
<title>Node88&#45;&gt;Node104</title>
<path fill="none" stroke="midnightblue" d="M657.78,-509.37C681,-502.09 713.91,-492.01 743,-484 751.53,-481.65 760.63,-479.27 769.47,-477.04"/>
<polygon fill="midnightblue" stroke="midnightblue" points="770.45,-480.4 779.3,-474.58 768.75,-473.61 770.45,-480.4"/>
</g>
<!-- Node89&#45;&gt;Node7 -->
<g id="edge52" class="edge">
<title>Node89&#45;&gt;Node7</title>
<path fill="none" stroke="midnightblue" d="M870.72,-508.33C880.54,-511.2 890.22,-515.52 898,-522 956.14,-570.42 978.94,-663.54 986.39,-704.2"/>
<polygon fill="midnightblue" stroke="midnightblue" points="982.97,-704.93 988.11,-714.19 989.87,-703.74 982.97,-704.93"/>
</g>
<!-- Node89&#45;&gt;Node37 -->
<g id="edge50" class="edge">
<title>Node89&#45;&gt;Node37</title>
<path fill="none" stroke="midnightblue" d="M869.47,-493.45C931.74,-480.67 1034,-458.19 1047,-446 1084.83,-410.52 1051.69,-376.34 1083,-335 1093.71,-320.85 1109.87,-309.54 1124.17,-301.46"/>
<polygon fill="midnightblue" stroke="midnightblue" points="1126.05,-304.42 1133.21,-296.62 1122.75,-298.25 1126.05,-304.42"/>
</g>
<!-- Node89&#45;&gt;Node87 -->
<g id="edge51" class="edge">
<title>Node89&#45;&gt;Node87</title>
<path fill="none" stroke="midnightblue" d="M870.54,-503C887.14,-503 905.95,-503 923.64,-503"/>
<polygon fill="midnightblue" stroke="midnightblue" points="923.9,-506.5 933.9,-503 923.9,-499.5 923.9,-506.5"/>
</g>
<!-- Node104&#45;&gt;Node87 -->
<g id="edge58" class="edge">
<title>Node104&#45;&gt;Node87</title>
<path fill="none" stroke="midnightblue" d="M863.89,-474.59C886.26,-479.65 913.9,-485.9 937.55,-491.25"/>
<polygon fill="midnightblue" stroke="midnightblue" points="936.89,-494.69 947.41,-493.48 938.43,-487.86 936.89,-494.69"/>
</g>
<!-- Node104&#45;&gt;Node98 -->
<g id="edge57" class="edge">
<title>Node104&#45;&gt;Node98</title>
<path fill="none" stroke="midnightblue" d="M863.89,-455.41C886.69,-450.26 914.95,-443.86 938.89,-438.45"/>
<polygon fill="midnightblue" stroke="midnightblue" points="939.88,-441.81 948.86,-436.19 938.33,-434.99 939.88,-441.81"/>
</g>
<!-- Node126&#45;&gt;Node27 -->
<g id="edge60" class="edge">
<title>Node126&#45;&gt;Node27</title>
<path fill="none" stroke="midnightblue" d="M680.59,-114.38C735.29,-112.22 822.92,-107.38 898,-97 911.45,-95.14 925.88,-92.47 939.21,-89.71"/>
<polygon fill="midnightblue" stroke="midnightblue" points="940.11,-93.1 949.16,-87.6 938.66,-86.25 940.11,-93.1"/>
</g>
<!-- Node127 -->
<g id="node47" class="node">
<title>Node127</title>
<g id="a_node47"><a xlink:href="event__handler_8c.html#addeafcef3304c68bbb5d46ba92992307" target="_top" xlink:title="ルールの無効化">
<polygon fill="white" stroke="black" points="766.5,-68.5 766.5,-87.5 874.5,-87.5 874.5,-68.5 766.5,-68.5"/>
<text text-anchor="middle" x="820.5" y="-75.5" font-family="Helvetica,sans-Serif" font-size="10.00">EH_inactivate_rule</text>
</a>
</g>
</g>
<!-- Node126&#45;&gt;Node127 -->
<g id="edge61" class="edge">
<title>Node126&#45;&gt;Node127</title>
<path fill="none" stroke="midnightblue" d="M680.73,-105.47C705.81,-100.5 735.79,-94.57 761.45,-89.49"/>
<polygon fill="midnightblue" stroke="midnightblue" points="762.29,-92.89 771.42,-87.52 760.93,-86.02 762.29,-92.89"/>
</g>
<!-- Node127&#45;&gt;Node27 -->
<g id="edge62" class="edge">
<title>Node127&#45;&gt;Node27</title>
<path fill="none" stroke="midnightblue" d="M874.66,-78C891.14,-78 909.45,-78 926.53,-78"/>
<polygon fill="midnightblue" stroke="midnightblue" points="926.98,-81.5 936.98,-78 926.98,-74.5 926.98,-81.5"/>
</g>
<!-- Node128&#45;&gt;Node7 -->
<g id="edge64" class="edge">
<title>Node128&#45;&gt;Node7</title>
<path fill="none" stroke="midnightblue" d="M470.11,-667.62C491.58,-673.51 520.23,-680.7 546,-685 683.23,-707.89 846.73,-717.87 931.72,-721.78"/>
<polygon fill="midnightblue" stroke="midnightblue" points="931.79,-725.29 941.94,-722.24 932.1,-718.29 931.79,-725.29"/>
</g>
<!-- Node129 -->
<g id="node49" class="node">
<title>Node129</title>
<g id="a_node49"><a xlink:href="time__manager_8c.html#a576e42803f8f3896524dbb266a47a08f" target="_top" xlink:title="現在の total_cycle を返す">
<polygon fill="white" stroke="black" points="559.5,-646 559.5,-676 693.5,-676 693.5,-646 559.5,-646"/>
<text text-anchor="start" x="567.5" y="-664" font-family="Helvetica,sans-Serif" font-size="10.00">TMGR_get_master_total</text>
<text text-anchor="middle" x="626.5" y="-653" font-family="Helvetica,sans-Serif" font-size="10.00">_cycle</text>
</a>
</g>
</g>
<!-- Node128&#45;&gt;Node129 -->
<g id="edge65" class="edge">
<title>Node128&#45;&gt;Node129</title>
<path fill="none" stroke="midnightblue" d="M510.15,-659.16C522.97,-659.37 536.34,-659.58 549.24,-659.79"/>
<polygon fill="midnightblue" stroke="midnightblue" points="549.41,-663.29 559.47,-659.95 549.53,-656.29 549.41,-663.29"/>
</g>
<!-- Node130 -->
<g id="node50" class="node">
<title>Node130</title>
<g id="a_node50"><a xlink:href="obc__time_8c.html#ac42c1d017a2cbb8dab608771907c97d5" target="_top" xlink:title="引数で指定した ObcTime の total_cycle を返す">
<polygon fill="white" stroke="black" points="759,-657.5 759,-676.5 882,-676.5 882,-657.5 759,-657.5"/>
<text text-anchor="middle" x="820.5" y="-664.5" font-family="Helvetica,sans-Serif" font-size="10.00">OBCT_get_total_cycle</text>
</a>
</g>
</g>
<!-- Node129&#45;&gt;Node130 -->
<g id="edge66" class="edge">
<title>Node129&#45;&gt;Node130</title>
<path fill="none" stroke="midnightblue" d="M693.58,-663.06C711.34,-663.62 730.62,-664.22 748.64,-664.79"/>
<polygon fill="midnightblue" stroke="midnightblue" points="748.68,-668.29 758.79,-665.1 748.9,-661.29 748.68,-668.29"/>
</g>
</g>
</svg>
