<?xml version="1.0" encoding="UTF-8" standalone="no"?>
<!DOCTYPE svg PUBLIC "-//W3C//DTD SVG 1.1//EN"
 "http://www.w3.org/Graphics/SVG/1.1/DTD/svg11.dtd">
<!-- Generated by graphviz version 2.43.0 (0)
 -->
<!-- Title: GS_analyze_rec_data_ Pages: 1 -->
<svg width="1240pt" height="778pt"
 viewBox="0.00 0.00 1240.00 778.00" xmlns="http://www.w3.org/2000/svg" xmlns:xlink="http://www.w3.org/1999/xlink">
<g id="graph0" class="graph" transform="scale(1 1) rotate(0) translate(4 774)">
<title>GS_analyze_rec_data_</title>
<polygon fill="white" stroke="transparent" points="-4,4 -4,-774 1236,-774 1236,4 -4,4"/>
<!-- Node1 -->
<g id="node1" class="node">
<title>Node1</title>
<g id="a_node1"><a xlink:title="地上からの受信データ解析関数">
<polygon fill="#bfbfbf" stroke="black" points="0,-617.5 0,-636.5 126,-636.5 126,-617.5 0,-617.5"/>
<text text-anchor="middle" x="63" y="-624.5" font-family="Helvetica,sans-Serif" font-size="10.00">GS_analyze_rec_data_</text>
</a>
</g>
</g>
<!-- Node2 -->
<g id="node2" class="node">
<title>Node2</title>
<g id="a_node2"><a xlink:href="driver__super_8c.html#adf1f7d5bc6090bf72962786be28d0b9d" target="_top" xlink:title=" ">
<polygon fill="white" stroke="black" points="174,-655.5 174,-674.5 287,-674.5 287,-655.5 174,-655.5"/>
<text text-anchor="middle" x="230.5" y="-662.5" font-family="Helvetica,sans-Serif" font-size="10.00">DSSC_get_rx_frame</text>
</a>
</g>
</g>
<!-- Node1&#45;&gt;Node2 -->
<g id="edge1" class="edge">
<title>Node1&#45;&gt;Node2</title>
<path fill="none" stroke="midnightblue" d="M105.76,-636.59C127.7,-641.63 154.78,-647.84 178.01,-653.18"/>
<polygon fill="midnightblue" stroke="midnightblue" points="177.51,-656.65 188.04,-655.48 179.07,-649.83 177.51,-656.65"/>
</g>
<!-- Node3 -->
<g id="node3" class="node">
<title>Node3</title>
<g id="a_node3"><a xlink:href="gs__validate_8c.html#a9e8584656da1d94102639deb6702179e" target="_top" xlink:title="tc_frame の検証">
<polygon fill="white" stroke="black" points="168.5,-617.5 168.5,-636.5 292.5,-636.5 292.5,-617.5 168.5,-617.5"/>
<text text-anchor="middle" x="230.5" y="-624.5" font-family="Helvetica,sans-Serif" font-size="10.00">GS_validate_tc_frame</text>
</a>
</g>
</g>
<!-- Node1&#45;&gt;Node3 -->
<g id="edge2" class="edge">
<title>Node1&#45;&gt;Node3</title>
<path fill="none" stroke="midnightblue" d="M126.1,-627C136.59,-627 147.56,-627 158.27,-627"/>
<polygon fill="midnightblue" stroke="midnightblue" points="158.43,-630.5 168.43,-627 158.43,-623.5 158.43,-630.5"/>
</g>
<!-- Node31 -->
<g id="node17" class="node">
<title>Node31</title>
<g id="a_node17"><a xlink:href="packet__handler_8c.html#a9d16c8b958f0f983cf15674d6c528b02" target="_top" xlink:title="CCP を解析する">
<polygon fill="white" stroke="black" points="162,-309.5 162,-328.5 299,-328.5 299,-309.5 162,-309.5"/>
<text text-anchor="middle" x="230.5" y="-316.5" font-family="Helvetica,sans-Serif" font-size="10.00">PH_analyze_cmd_packet</text>
</a>
</g>
</g>
<!-- Node1&#45;&gt;Node31 -->
<g id="edge17" class="edge">
<title>Node1&#45;&gt;Node31</title>
<path fill="none" stroke="midnightblue" d="M69.13,-617.44C92.4,-574.16 188.11,-396.03 219.49,-337.63"/>
<polygon fill="midnightblue" stroke="midnightblue" points="222.61,-339.21 224.26,-328.75 216.44,-335.9 222.61,-339.21"/>
</g>
<!-- Node4 -->
<g id="node4" class="node">
<title>Node4</title>
<g id="a_node4"><a xlink:href="gs__validate_8c.html#aaf57603b3217830c620f10440ff700df" target="_top" xlink:title=" ">
<polygon fill="white" stroke="black" points="347,-636.5 347,-655.5 460,-655.5 460,-636.5 347,-636.5"/>
<text text-anchor="middle" x="403.5" y="-643.5" font-family="Helvetica,sans-Serif" font-size="10.00">GS_check_ad_cmd_</text>
</a>
</g>
</g>
<!-- Node3&#45;&gt;Node4 -->
<g id="edge3" class="edge">
<title>Node3&#45;&gt;Node4</title>
<path fill="none" stroke="midnightblue" d="M292.75,-633.81C306.94,-635.38 322.1,-637.07 336.49,-638.67"/>
<polygon fill="midnightblue" stroke="midnightblue" points="336.47,-642.18 346.8,-639.81 337.24,-635.23 336.47,-642.18"/>
</g>
<!-- Node23 -->
<g id="node9" class="node">
<title>Node23</title>
<g id="a_node9"><a xlink:href="gs__validate_8c.html#a84b7f68b65ac893636653398012a7866" target="_top" xlink:title=" ">
<polygon fill="white" stroke="black" points="347.5,-598.5 347.5,-617.5 459.5,-617.5 459.5,-598.5 347.5,-598.5"/>
<text text-anchor="middle" x="403.5" y="-605.5" font-family="Helvetica,sans-Serif" font-size="10.00">GS_check_bc_cmd_</text>
</a>
</g>
</g>
<!-- Node3&#45;&gt;Node23 -->
<g id="edge8" class="edge">
<title>Node3&#45;&gt;Node23</title>
<path fill="none" stroke="midnightblue" d="M292.75,-620.19C307.23,-618.59 322.73,-616.86 337.38,-615.24"/>
<polygon fill="midnightblue" stroke="midnightblue" points="337.81,-618.71 347.36,-614.13 337.03,-611.75 337.81,-618.71"/>
</g>
<!-- Node24 -->
<g id="node10" class="node">
<title>Node24</title>
<g id="a_node10"><a xlink:href="gs__validate_8c.html#ade886529947636f12095d299135cbfde" target="_top" xlink:title=" ">
<polygon fill="white" stroke="black" points="347,-674.5 347,-693.5 460,-693.5 460,-674.5 347,-674.5"/>
<text text-anchor="middle" x="403.5" y="-681.5" font-family="Helvetica,sans-Serif" font-size="10.00">GS_check_bd_cmd_</text>
</a>
</g>
</g>
<!-- Node3&#45;&gt;Node24 -->
<g id="edge9" class="edge">
<title>Node3&#45;&gt;Node24</title>
<path fill="none" stroke="midnightblue" d="M270.87,-636.57C280.22,-639.26 290.07,-642.43 299,-646 315.8,-652.71 318.2,-658.29 335,-665 340.86,-667.34 347.12,-669.51 353.37,-671.49"/>
<polygon fill="midnightblue" stroke="midnightblue" points="352.54,-674.9 363.13,-674.43 354.56,-668.19 352.54,-674.9"/>
</g>
<!-- Node25 -->
<g id="node11" class="node">
<title>Node25</title>
<g id="a_node11"><a xlink:href="gs__validate_8c.html#a5660d6b01f6459cbe6c2e284f1b45891" target="_top" xlink:title=" ">
<polygon fill="white" stroke="black" points="354.5,-560.5 354.5,-579.5 452.5,-579.5 452.5,-560.5 354.5,-560.5"/>
<text text-anchor="middle" x="403.5" y="-567.5" font-family="Helvetica,sans-Serif" font-size="10.00">GS_check_fecw_</text>
</a>
</g>
</g>
<!-- Node3&#45;&gt;Node25 -->
<g id="edge11" class="edge">
<title>Node3&#45;&gt;Node25</title>
<path fill="none" stroke="midnightblue" d="M255.99,-617.4C276.84,-609.37 307.68,-597.84 335,-589 342.01,-586.73 349.47,-584.47 356.79,-582.35"/>
<polygon fill="midnightblue" stroke="midnightblue" points="357.96,-585.65 366.61,-579.54 356.04,-578.92 357.96,-585.65"/>
</g>
<!-- Node26 -->
<g id="node12" class="node">
<title>Node26</title>
<g id="a_node12"><a xlink:href="gs__validate_8c.html#a74139046c9d543e8106484acdeecb8d3" target="_top" xlink:title=" ">
<polygon fill="white" stroke="black" points="340.5,-522.5 340.5,-541.5 466.5,-541.5 466.5,-522.5 340.5,-522.5"/>
<text text-anchor="middle" x="403.5" y="-529.5" font-family="Helvetica,sans-Serif" font-size="10.00">GS_check_tcf_header_</text>
</a>
</g>
</g>
<!-- Node3&#45;&gt;Node26 -->
<g id="edge12" class="edge">
<title>Node3&#45;&gt;Node26</title>
<path fill="none" stroke="midnightblue" d="M241.84,-617.4C259.58,-601.41 297.53,-569.28 335,-551 339.67,-548.72 344.65,-546.68 349.72,-544.85"/>
<polygon fill="midnightblue" stroke="midnightblue" points="351.12,-548.07 359.51,-541.6 348.92,-541.43 351.12,-548.07"/>
</g>
<!-- Node29 -->
<g id="node15" class="node">
<title>Node29</title>
<g id="a_node15"><a xlink:href="_t_c_frame_8c.html#a51c2ff49351bbe9db73730fe65c93233" target="_top" xlink:title=" ">
<polygon fill="white" stroke="black" points="348.5,-750.5 348.5,-769.5 458.5,-769.5 458.5,-750.5 348.5,-750.5"/>
<text text-anchor="middle" x="403.5" y="-757.5" font-family="Helvetica,sans-Serif" font-size="10.00">TCF_get_frame_len</text>
</a>
</g>
</g>
<!-- Node3&#45;&gt;Node29 -->
<g id="edge15" class="edge">
<title>Node3&#45;&gt;Node29</title>
<path fill="none" stroke="midnightblue" d="M284.57,-636.59C289.83,-639.05 294.78,-642.14 299,-646 332.3,-676.49 301.7,-710.51 335,-741 336.71,-742.57 338.55,-744.01 340.47,-745.33"/>
<polygon fill="midnightblue" stroke="midnightblue" points="339,-748.52 349.43,-750.41 342.46,-742.43 339,-748.52"/>
</g>
<!-- Node30 -->
<g id="node16" class="node">
<title>Node30</title>
<g id="a_node16"><a xlink:href="_t_c_frame_8c.html#a8a5d82abf326db4fbaf4b8acfafda642" target="_top" xlink:title=" ">
<polygon fill="white" stroke="black" points="362,-712.5 362,-731.5 445,-731.5 445,-712.5 362,-712.5"/>
<text text-anchor="middle" x="403.5" y="-719.5" font-family="Helvetica,sans-Serif" font-size="10.00">TCF_get_type</text>
</a>
</g>
</g>
<!-- Node3&#45;&gt;Node30 -->
<g id="edge16" class="edge">
<title>Node3&#45;&gt;Node30</title>
<path fill="none" stroke="midnightblue" d="M281.76,-636.62C287.9,-639.07 293.83,-642.14 299,-646 323.02,-663.92 310.98,-685.08 335,-703 340.12,-706.82 345.98,-709.87 352.06,-712.31"/>
<polygon fill="midnightblue" stroke="midnightblue" points="351.13,-715.69 361.72,-715.66 353.42,-709.08 351.13,-715.69"/>
</g>
<!-- Node5 -->
<g id="node5" class="node">
<title>Node5</title>
<g id="a_node5"><a xlink:href="gs__validate_8c.html#a2d851e14b61c170707282426f1a3d822" target="_top" xlink:title=" ">
<polygon fill="white" stroke="black" points="511,-674.5 511,-693.5 645,-693.5 645,-674.5 511,-674.5"/>
<text text-anchor="middle" x="578" y="-681.5" font-family="Helvetica,sans-Serif" font-size="10.00">GS_check_tcf_contents_</text>
</a>
</g>
</g>
<!-- Node4&#45;&gt;Node5 -->
<g id="edge4" class="edge">
<title>Node4&#45;&gt;Node5</title>
<path fill="none" stroke="midnightblue" d="M448.03,-655.59C471.1,-660.67 499.63,-666.96 523.98,-672.32"/>
<polygon fill="midnightblue" stroke="midnightblue" points="523.27,-675.75 533.78,-674.48 524.77,-668.91 523.27,-675.75"/>
</g>
<!-- Node22 -->
<g id="node8" class="node">
<title>Node22</title>
<g id="a_node8"><a xlink:href="_t_c_frame_8c.html#ae24783beaa1ebc5af4b55c18fb7673b4" target="_top" xlink:title=" ">
<polygon fill="white" stroke="black" points="508,-636.5 508,-655.5 648,-655.5 648,-636.5 508,-636.5"/>
<text text-anchor="middle" x="578" y="-643.5" font-family="Helvetica,sans-Serif" font-size="10.00">TCF_get_frame_seq_num</text>
</a>
</g>
</g>
<!-- Node4&#45;&gt;Node22 -->
<g id="edge7" class="edge">
<title>Node4&#45;&gt;Node22</title>
<path fill="none" stroke="midnightblue" d="M460.03,-646C472.08,-646 485.04,-646 497.8,-646"/>
<polygon fill="midnightblue" stroke="midnightblue" points="497.97,-649.5 507.97,-646 497.97,-642.5 497.97,-649.5"/>
</g>
<!-- Node6 -->
<g id="node6" class="node">
<title>Node6</title>
<g id="a_node6"><a xlink:href="gs__validate_8c.html#ab272dff7881efe1314d2e858115eaac7" target="_top" xlink:title=" ">
<polygon fill="white" stroke="red" points="689,-647 689,-677 813,-677 813,-647 689,-647"/>
<text text-anchor="start" x="697" y="-665" font-family="Helvetica,sans-Serif" font-size="10.00">GS_check_cmd_space</text>
<text text-anchor="middle" x="751" y="-654" font-family="Helvetica,sans-Serif" font-size="10.00">_packet_headers_</text>
</a>
</g>
</g>
<!-- Node5&#45;&gt;Node6 -->
<g id="edge5" class="edge">
<title>Node5&#45;&gt;Node6</title>
<path fill="none" stroke="midnightblue" d="M645.11,-675.49C656.12,-674.08 667.58,-672.6 678.72,-671.17"/>
<polygon fill="midnightblue" stroke="midnightblue" points="679.35,-674.62 688.82,-669.87 678.46,-667.68 679.35,-674.62"/>
</g>
<!-- Node20 -->
<g id="node7" class="node">
<title>Node20</title>
<g id="a_node7"><a xlink:href="gs__validate_8c.html#ac435cd754c383f0e0cd71d456ee1f597" target="_top" xlink:title=" ">
<polygon fill="white" stroke="red" points="684.5,-696.5 684.5,-715.5 817.5,-715.5 817.5,-696.5 684.5,-696.5"/>
<text text-anchor="middle" x="751" y="-703.5" font-family="Helvetica,sans-Serif" font-size="10.00">GS_check_tcs_headers_</text>
</a>
</g>
</g>
<!-- Node5&#45;&gt;Node20 -->
<g id="edge6" class="edge">
<title>Node5&#45;&gt;Node20</title>
<path fill="none" stroke="midnightblue" d="M645.11,-692.51C654.67,-693.74 664.57,-695.01 674.29,-696.26"/>
<polygon fill="midnightblue" stroke="midnightblue" points="673.98,-699.75 684.34,-697.55 674.87,-692.81 673.98,-699.75"/>
</g>
<!-- Node24&#45;&gt;Node5 -->
<g id="edge10" class="edge">
<title>Node24&#45;&gt;Node5</title>
<path fill="none" stroke="midnightblue" d="M460.03,-684C472.9,-684 486.82,-684 500.42,-684"/>
<polygon fill="midnightblue" stroke="midnightblue" points="500.73,-687.5 510.73,-684 500.73,-680.5 500.73,-687.5"/>
</g>
<!-- Node27 -->
<g id="node13" class="node">
<title>Node27</title>
<g id="a_node13"><a xlink:href="_t_c_frame_8c.html#a5f478a4f679efc9097899d4807bdf14a" target="_top" xlink:title=" ">
<polygon fill="white" stroke="black" points="537.5,-522.5 537.5,-541.5 618.5,-541.5 618.5,-522.5 537.5,-522.5"/>
<text text-anchor="middle" x="578" y="-529.5" font-family="Helvetica,sans-Serif" font-size="10.00">TCF_get_vcid</text>
</a>
</g>
</g>
<!-- Node26&#45;&gt;Node27 -->
<g id="edge13" class="edge">
<title>Node26&#45;&gt;Node27</title>
<path fill="none" stroke="midnightblue" d="M466.78,-532C486.64,-532 508.36,-532 527.22,-532"/>
<polygon fill="midnightblue" stroke="midnightblue" points="527.37,-535.5 537.37,-532 527.37,-528.5 527.37,-535.5"/>
</g>
<!-- Node28 -->
<g id="node14" class="node">
<title>Node28</title>
<g id="a_node14"><a xlink:href="_t_c_frame_8c.html#ad8eb293e8d4ba07d2e7a63a1f0a427a9" target="_top" xlink:title=" ">
<polygon fill="white" stroke="black" points="539.5,-560.5 539.5,-579.5 616.5,-579.5 616.5,-560.5 539.5,-560.5"/>
<text text-anchor="middle" x="578" y="-567.5" font-family="Helvetica,sans-Serif" font-size="10.00">TCF_get_ver</text>
</a>
</g>
</g>
<!-- Node26&#45;&gt;Node28 -->
<g id="edge14" class="edge">
<title>Node26&#45;&gt;Node28</title>
<path fill="none" stroke="midnightblue" d="M448.03,-541.59C472.88,-547.06 504.05,-553.93 529.53,-559.54"/>
<polygon fill="midnightblue" stroke="midnightblue" points="528.83,-562.97 539.34,-561.7 530.33,-556.14 528.83,-562.97"/>
</g>
<!-- Node32 -->
<g id="node18" class="node">
<title>Node32</title>
<g id="a_node18"><a xlink:href="common__cmd__packet_8h.html#a63dd7518abfbd0e6cedf6af2f376d854" target="_top" xlink:title="EXEC_TYPE を取得">
<polygon fill="white" stroke="black" points="347.5,-112.5 347.5,-131.5 459.5,-131.5 459.5,-112.5 347.5,-112.5"/>
<text text-anchor="middle" x="403.5" y="-119.5" font-family="Helvetica,sans-Serif" font-size="10.00">CCP_get_exec_type</text>
</a>
</g>
</g>
<!-- Node31&#45;&gt;Node32 -->
<g id="edge18" class="edge">
<title>Node31&#45;&gt;Node32</title>
<path fill="none" stroke="midnightblue" d="M236.95,-309.46C251.1,-285.17 290.99,-219.64 335,-174 348.31,-160.2 365.44,-147.04 379.12,-137.42"/>
<polygon fill="midnightblue" stroke="midnightblue" points="381.28,-140.18 387.53,-131.63 377.31,-134.41 381.28,-140.18"/>
</g>
<!-- Node34 -->
<g id="node21" class="node">
<title>Node34</title>
<g id="a_node21"><a xlink:href="common__cmd__packet_8h.html#add63f4e739670d463f6ace1f55fa3d48" target="_top" xlink:title="有効なパケットかチェックする">
<polygon fill="white" stroke="black" points="345.5,-8.5 345.5,-27.5 461.5,-27.5 461.5,-8.5 345.5,-8.5"/>
<text text-anchor="middle" x="403.5" y="-15.5" font-family="Helvetica,sans-Serif" font-size="10.00">CCP_is_valid_packet</text>
</a>
</g>
</g>
<!-- Node31&#45;&gt;Node34 -->
<g id="edge21" class="edge">
<title>Node31&#45;&gt;Node34</title>
<path fill="none" stroke="midnightblue" d="M235.3,-309.12C247.57,-277.76 288.03,-178.09 335,-103 350.57,-78.1 372.2,-52.02 386.74,-35.42"/>
<polygon fill="midnightblue" stroke="midnightblue" points="389.6,-37.46 393.63,-27.66 384.37,-32.82 389.6,-37.46"/>
</g>
<!-- Node39 -->
<g id="node24" class="node">
<title>Node39</title>
<g id="a_node24"><a xlink:href="packet__handler_8c.html#a7877bd048a812eccc6e5e32a48e4198d" target="_top" xlink:title=" ">
<polygon fill="white" stroke="black" points="700.5,-459.5 700.5,-478.5 801.5,-478.5 801.5,-459.5 700.5,-459.5"/>
<text text-anchor="middle" x="751" y="-466.5" font-family="Helvetica,sans-Serif" font-size="10.00">PH_add_gs_cmd_</text>
</a>
</g>
</g>
<!-- Node31&#45;&gt;Node39 -->
<g id="edge24" class="edge">
<title>Node31&#45;&gt;Node39</title>
<path fill="none" stroke="midnightblue" d="M241.72,-328.72C259.27,-344.82 296.97,-376.88 335,-393 454.6,-443.7 607.67,-460.63 690.43,-466.24"/>
<polygon fill="midnightblue" stroke="midnightblue" points="690.2,-469.74 700.41,-466.89 690.65,-462.75 690.2,-469.74"/>
</g>
<!-- Node42 -->
<g id="node27" class="node">
<title>Node42</title>
<g id="a_node27"><a xlink:href="packet__handler_8c.html#a8d281dc795ac227a6631832887234892" target="_top" xlink:title=" ">
<polygon fill="white" stroke="black" points="702,-414.5 702,-433.5 800,-433.5 800,-414.5 702,-414.5"/>
<text text-anchor="middle" x="751" y="-421.5" font-family="Helvetica,sans-Serif" font-size="10.00">PH_add_rt_cmd_</text>
</a>
</g>
</g>
<!-- Node31&#45;&gt;Node42 -->
<g id="edge27" class="edge">
<title>Node31&#45;&gt;Node42</title>
<path fill="none" stroke="midnightblue" d="M250.91,-328.62C271.39,-338.44 304.82,-353.54 335,-363 458.46,-401.67 610.42,-416.05 691.87,-421.22"/>
<polygon fill="midnightblue" stroke="midnightblue" points="691.73,-424.72 701.93,-421.84 692.16,-417.73 691.73,-424.72"/>
</g>
<!-- Node43 -->
<g id="node28" class="node">
<title>Node43</title>
<g id="a_node28"><a xlink:href="packet__handler_8c.html#a31e4fc656d51d4b675d88e6c023cc50e" target="_top" xlink:title=" ">
<polygon fill="white" stroke="black" points="529.5,-370.5 529.5,-389.5 626.5,-389.5 626.5,-370.5 529.5,-370.5"/>
<text text-anchor="middle" x="578" y="-377.5" font-family="Helvetica,sans-Serif" font-size="10.00">PH_add_tl_cmd_</text>
</a>
</g>
</g>
<!-- Node31&#45;&gt;Node43 -->
<g id="edge29" class="edge">
<title>Node31&#45;&gt;Node43</title>
<path fill="none" stroke="midnightblue" d="M285.48,-328.53C348.99,-339.74 453.99,-358.28 519.13,-369.78"/>
<polygon fill="midnightblue" stroke="midnightblue" points="518.78,-373.27 529.23,-371.57 519.99,-366.38 518.78,-373.27"/>
</g>
<!-- Node53 -->
<g id="node37" class="node">
<title>Node53</title>
<g id="a_node37"><a xlink:href="packet__handler_8c.html#aaee24b7aac3411a855ab68922e605325" target="_top" xlink:title="UTL_cmd を TL_cmd に変換して tl_cmd_list に追加する">
<polygon fill="white" stroke="black" points="352,-283.5 352,-302.5 455,-302.5 455,-283.5 352,-283.5"/>
<text text-anchor="middle" x="403.5" y="-290.5" font-family="Helvetica,sans-Serif" font-size="10.00">PH_add_utl_cmd_</text>
</a>
</g>
</g>
<!-- Node31&#45;&gt;Node53 -->
<g id="edge42" class="edge">
<title>Node31&#45;&gt;Node53</title>
<path fill="none" stroke="midnightblue" d="M294.2,-309.47C309.76,-307.1 326.41,-304.57 341.87,-302.22"/>
<polygon fill="midnightblue" stroke="midnightblue" points="342.47,-305.67 351.83,-300.7 341.42,-298.75 342.47,-305.67"/>
</g>
<!-- Node62 -->
<g id="node42" class="node">
<title>Node62</title>
<g id="a_node42"><a xlink:href="time__manager_8c.html#a576e42803f8f3896524dbb266a47a08f" target="_top" xlink:title="現在の total_cycle を返す">
<polygon fill="white" stroke="black" points="511,-119 511,-149 645,-149 645,-119 511,-119"/>
<text text-anchor="start" x="519" y="-137" font-family="Helvetica,sans-Serif" font-size="10.00">TMGR_get_master_total</text>
<text text-anchor="middle" x="578" y="-126" font-family="Helvetica,sans-Serif" font-size="10.00">_cycle</text>
</a>
</g>
</g>
<!-- Node31&#45;&gt;Node62 -->
<g id="edge60" class="edge">
<title>Node31&#45;&gt;Node62</title>
<path fill="none" stroke="midnightblue" d="M253.64,-309.34C312.27,-283.74 467.45,-215.8 472,-212 493.85,-193.73 485.52,-176.48 508,-159 510.31,-157.2 512.76,-155.53 515.31,-153.97"/>
<polygon fill="midnightblue" stroke="midnightblue" points="517.17,-156.94 524.28,-149.09 513.83,-150.79 517.17,-156.94"/>
</g>
<!-- Node69 -->
<g id="node45" class="node">
<title>Node69</title>
<g id="a_node45"><a xlink:href="packet__handler_8c.html#add0165039b8b49d3d6f06ae929a8310e" target="_top" xlink:title=" ">
<polygon fill="white" stroke="black" points="335,-183.5 335,-202.5 472,-202.5 472,-183.5 335,-183.5"/>
<text text-anchor="middle" x="403.5" y="-190.5" font-family="Helvetica,sans-Serif" font-size="10.00">PH_analyze_block_cmd_</text>
</a>
</g>
</g>
<!-- Node31&#45;&gt;Node69 -->
<g id="edge52" class="edge">
<title>Node31&#45;&gt;Node69</title>
<path fill="none" stroke="midnightblue" d="M241.93,-309.38C260.11,-292.83 299.1,-258.31 335,-233 347.86,-223.93 362.87,-214.9 375.46,-207.72"/>
<polygon fill="midnightblue" stroke="midnightblue" points="377.53,-210.57 384.54,-202.62 374.11,-204.46 377.53,-210.57"/>
</g>
<!-- Node77 -->
<g id="node47" class="node">
<title>Node77</title>
<g id="a_node47"><a xlink:href="user__packet__handler_8c.html#a6ceb9e37114f6c81c6872ec90dd2a39d" target="_top" xlink:title="PHのanalyze_cmd_のユーザー処理関数">
<polygon fill="white" stroke="black" points="688,-523.5 688,-542.5 814,-542.5 814,-523.5 688,-523.5"/>
<text text-anchor="middle" x="751" y="-530.5" font-family="Helvetica,sans-Serif" font-size="10.00">PH_user_analyze_cmd</text>
</a>
</g>
</g>
<!-- Node31&#45;&gt;Node77 -->
<g id="edge54" class="edge">
<title>Node31&#45;&gt;Node77</title>
<path fill="none" stroke="midnightblue" d="M237.97,-328.8C252.58,-350.14 290.37,-400.95 335,-427 366.43,-445.34 592.4,-497.6 697.05,-521.19"/>
<polygon fill="midnightblue" stroke="midnightblue" points="696.57,-524.67 707.09,-523.45 698.1,-517.84 696.57,-524.67"/>
</g>
<!-- Node33 -->
<g id="node19" class="node">
<title>Node33</title>
<g id="a_node19"><a xlink:href="cmd__space__packet_8c.html#af0e6dd2c4432ce4d03442e5277766c0c" target="_top" xlink:title="Execution Type を取得">
<polygon fill="white" stroke="black" points="522.5,-42.5 522.5,-61.5 633.5,-61.5 633.5,-42.5 522.5,-42.5"/>
<text text-anchor="middle" x="578" y="-49.5" font-family="Helvetica,sans-Serif" font-size="10.00">CSP_get_exec_type</text>
</a>
</g>
</g>
<!-- Node32&#45;&gt;Node33 -->
<g id="edge19" class="edge">
<title>Node32&#45;&gt;Node33</title>
<path fill="none" stroke="midnightblue" d="M421.63,-112.3C441.8,-101.19 476.54,-82.96 508,-71 514.24,-68.63 520.91,-66.41 527.54,-64.4"/>
<polygon fill="midnightblue" stroke="midnightblue" points="528.56,-67.74 537.18,-61.58 526.6,-61.02 528.56,-67.74"/>
</g>
<!-- Node9 -->
<g id="node20" class="node">
<title>Node9</title>
<g id="a_node20"><a xlink:href="space__packet_8c.html#a300c7fc3dea91319b0fa2f039f27d5eb" target="_top" xlink:title="packet に格納された param を取得">
<polygon fill="white" stroke="red" points="684,-39 684,-69 818,-69 818,-39 684,-39"/>
<text text-anchor="start" x="692" y="-57" font-family="Helvetica,sans-Serif" font-size="10.00">SP_extract_param_from</text>
<text text-anchor="middle" x="751" y="-46" font-family="Helvetica,sans-Serif" font-size="10.00">_packet</text>
</a>
</g>
</g>
<!-- Node33&#45;&gt;Node9 -->
<g id="edge20" class="edge">
<title>Node33&#45;&gt;Node9</title>
<path fill="none" stroke="midnightblue" d="M633.58,-52.64C646.35,-52.79 660.19,-52.95 673.71,-53.11"/>
<polygon fill="midnightblue" stroke="midnightblue" points="673.93,-56.61 683.97,-53.23 674.02,-49.61 673.93,-56.61"/>
</g>
<!-- Node35 -->
<g id="node22" class="node">
<title>Node35</title>
<g id="a_node22"><a xlink:href="common__cmd__packet_8c.html#a09b2e0ad8f87be0782c0f8ef2523f44c" target="_top" xlink:title="パケット長を取得">
<polygon fill="white" stroke="black" points="520.5,-3.5 520.5,-22.5 635.5,-22.5 635.5,-3.5 520.5,-3.5"/>
<text text-anchor="middle" x="578" y="-10.5" font-family="Helvetica,sans-Serif" font-size="10.00">CCP_get_packet_len</text>
</a>
</g>
</g>
<!-- Node34&#45;&gt;Node35 -->
<g id="edge22" class="edge">
<title>Node34&#45;&gt;Node35</title>
<path fill="none" stroke="midnightblue" d="M461.94,-16.34C477.38,-15.89 494.2,-15.4 510.11,-14.94"/>
<polygon fill="midnightblue" stroke="midnightblue" points="510.5,-18.43 520.4,-14.64 510.3,-11.43 510.5,-18.43"/>
</g>
<!-- Node36 -->
<g id="node23" class="node">
<title>Node36</title>
<g id="a_node23"><a xlink:href="cmd__space__packet_8c.html#aee157565d728de693218da48114b5923" target="_top" xlink:title="Packet Length を取得">
<polygon fill="white" stroke="red" points="694,-0.5 694,-19.5 808,-19.5 808,-0.5 694,-0.5"/>
<text text-anchor="middle" x="751" y="-7.5" font-family="Helvetica,sans-Serif" font-size="10.00">CSP_get_packet_len</text>
</a>
</g>
</g>
<!-- Node35&#45;&gt;Node36 -->
<g id="edge23" class="edge">
<title>Node35&#45;&gt;Node36</title>
<path fill="none" stroke="midnightblue" d="M635.94,-12C651.24,-11.73 667.92,-11.44 683.69,-11.16"/>
<polygon fill="midnightblue" stroke="midnightblue" points="683.95,-14.66 693.89,-10.98 683.83,-7.66 683.95,-14.66"/>
</g>
<!-- Node40 -->
<g id="node25" class="node">
<title>Node40</title>
<g id="a_node25"><a xlink:href="packet__list_8c.html#afaf80120b8b97c0fdf3099e13e9019be" target="_top" xlink:title="PacketList の末尾に packet を挿入">
<polygon fill="white" stroke="black" points="1003,-428.5 1003,-447.5 1088,-447.5 1088,-428.5 1003,-428.5"/>
<text text-anchor="middle" x="1045.5" y="-435.5" font-family="Helvetica,sans-Serif" font-size="10.00">PL_push_back</text>
</a>
</g>
</g>
<!-- Node39&#45;&gt;Node40 -->
<g id="edge25" class="edge">
<title>Node39&#45;&gt;Node40</title>
<path fill="none" stroke="midnightblue" d="M801.62,-463.74C854.75,-458.11 938.69,-449.21 992.66,-443.49"/>
<polygon fill="midnightblue" stroke="midnightblue" points="993.13,-446.96 1002.71,-442.43 992.39,-440 993.13,-446.96"/>
</g>
<!-- Node41 -->
<g id="node26" class="node">
<title>Node41</title>
<g id="a_node26"><a xlink:href="packet__list_8c.html#a16ea3d3b9925532e2772678215e38abb" target="_top" xlink:title="未使用 Node を新規に取得">
<polygon fill="white" stroke="black" points="1124,-276.5 1124,-295.5 1232,-295.5 1232,-276.5 1124,-276.5"/>
<text text-anchor="middle" x="1178" y="-283.5" font-family="Helvetica,sans-Serif" font-size="10.00">PL_get_free_node_</text>
</a>
</g>
</g>
<!-- Node40&#45;&gt;Node41 -->
<g id="edge26" class="edge">
<title>Node40&#45;&gt;Node41</title>
<path fill="none" stroke="midnightblue" d="M1054.66,-428.49C1076.18,-403.43 1134.66,-335.32 1162.24,-303.2"/>
<polygon fill="midnightblue" stroke="midnightblue" points="1164.98,-305.37 1168.84,-295.5 1159.67,-300.81 1164.98,-305.37"/>
</g>
<!-- Node42&#45;&gt;Node40 -->
<g id="edge28" class="edge">
<title>Node42&#45;&gt;Node40</title>
<path fill="none" stroke="midnightblue" d="M800.3,-426.31C853.35,-428.85 938.22,-432.91 992.64,-435.52"/>
<polygon fill="midnightblue" stroke="midnightblue" points="992.61,-439.02 1002.77,-436 992.95,-432.03 992.61,-439.02"/>
</g>
<!-- Node44 -->
<g id="node29" class="node">
<title>Node44</title>
<g id="a_node29"><a xlink:href="packet__list_8c.html#ac711a46f484040b1c67c522fbd96b826" target="_top" xlink:title="CCP が時系列に並ぶように CCP を挿入する">
<polygon fill="white" stroke="black" points="701.5,-282.5 701.5,-301.5 800.5,-301.5 800.5,-282.5 701.5,-282.5"/>
<text text-anchor="middle" x="751" y="-289.5" font-family="Helvetica,sans-Serif" font-size="10.00">PL_insert_tl_cmd</text>
</a>
</g>
</g>
<!-- Node43&#45;&gt;Node44 -->
<g id="edge30" class="edge">
<title>Node43&#45;&gt;Node44</title>
<path fill="none" stroke="midnightblue" d="M622.1,-370.46C630.86,-367.88 639.87,-364.74 648,-361 678.95,-346.74 710.91,-323.48 730.62,-307.97"/>
<polygon fill="midnightblue" stroke="midnightblue" points="732.9,-310.62 738.52,-301.64 728.52,-305.16 732.9,-310.62"/>
</g>
<!-- Node44&#45;&gt;Node40 -->
<g id="edge39" class="edge">
<title>Node44&#45;&gt;Node40</title>
<path fill="none" stroke="midnightblue" d="M760.28,-301.54C776.48,-319.63 814.28,-359.09 854,-381 897.8,-405.16 953.04,-420.23 992.74,-428.76"/>
<polygon fill="midnightblue" stroke="midnightblue" points="992.24,-432.23 1002.74,-430.84 993.66,-425.38 992.24,-432.23"/>
</g>
<!-- Node45 -->
<g id="node30" class="node">
<title>Node45</title>
<g id="a_node30"><a xlink:href="common__cmd__packet_8h.html#ad1a6be053f894381150410e424ec20ab" target="_top" xlink:title="TI を取得">
<polygon fill="white" stroke="red" points="876,-124.5 876,-143.5 945,-143.5 945,-124.5 876,-124.5"/>
<text text-anchor="middle" x="910.5" y="-131.5" font-family="Helvetica,sans-Serif" font-size="10.00">CCP_get_ti</text>
</a>
</g>
</g>
<!-- Node44&#45;&gt;Node45 -->
<g id="edge31" class="edge">
<title>Node44&#45;&gt;Node45</title>
<path fill="none" stroke="midnightblue" d="M795.88,-282.46C804.06,-279.02 811.94,-274.35 818,-268 855,-229.28 816.63,-191.37 854,-153 857.59,-149.31 861.93,-146.34 866.59,-143.94"/>
<polygon fill="midnightblue" stroke="midnightblue" points="867.98,-147.15 875.8,-140.01 865.23,-140.71 867.98,-147.15"/>
</g>
<!-- Node47 -->
<g id="node31" class="node">
<title>Node47</title>
<g id="a_node31"><a xlink:href="packet__list_8c.html#a2b6b5b3ed753070e0ef0b14556311263" target="_top" xlink:title="PacketList の active な先頭 Node を取得">
<polygon fill="white" stroke="black" points="871.5,-352.5 871.5,-371.5 949.5,-371.5 949.5,-352.5 871.5,-352.5"/>
<text text-anchor="middle" x="910.5" y="-359.5" font-family="Helvetica,sans-Serif" font-size="10.00">PL_get_head</text>
</a>
</g>
</g>
<!-- Node44&#45;&gt;Node47 -->
<g id="edge32" class="edge">
<title>Node44&#45;&gt;Node47</title>
<path fill="none" stroke="midnightblue" d="M769.36,-301.57C789.39,-312.41 823.5,-330.22 854,-343 859.05,-345.12 864.42,-347.18 869.77,-349.12"/>
<polygon fill="midnightblue" stroke="midnightblue" points="868.67,-352.45 879.27,-352.47 871,-345.85 868.67,-352.45"/>
</g>
<!-- Node48 -->
<g id="node32" class="node">
<title>Node48</title>
<g id="a_node32"><a xlink:href="packet__list_8c.html#a7b5027b1d6d804ce0c4b650ef214df53" target="_top" xlink:title="PacketList の active な末端 Node を取得">
<polygon fill="white" stroke="black" points="875.5,-314.5 875.5,-333.5 945.5,-333.5 945.5,-314.5 875.5,-314.5"/>
<text text-anchor="middle" x="910.5" y="-321.5" font-family="Helvetica,sans-Serif" font-size="10.00">PL_get_tail</text>
</a>
</g>
</g>
<!-- Node44&#45;&gt;Node48 -->
<g id="edge33" class="edge">
<title>Node44&#45;&gt;Node48</title>
<path fill="none" stroke="midnightblue" d="M798.83,-301.51C819.87,-305.79 844.57,-310.81 865.29,-315.02"/>
<polygon fill="midnightblue" stroke="midnightblue" points="864.61,-318.45 875.11,-317.01 866,-311.59 864.61,-318.45"/>
</g>
<!-- Node49 -->
<g id="node33" class="node">
<title>Node49</title>
<g id="a_node33"><a xlink:href="packet__list_8c.html#a6b3b63e47f62fb71acd7de1381f5a0a4" target="_top" xlink:title="ある Node の直後に packet を挿入">
<polygon fill="white" stroke="black" points="866,-276.5 866,-295.5 955,-295.5 955,-276.5 866,-276.5"/>
<text text-anchor="middle" x="910.5" y="-283.5" font-family="Helvetica,sans-Serif" font-size="10.00">PL_insert_after</text>
</a>
</g>
</g>
<!-- Node44&#45;&gt;Node49 -->
<g id="edge34" class="edge">
<title>Node44&#45;&gt;Node49</title>
<path fill="none" stroke="midnightblue" d="M800.54,-290.15C818.08,-289.48 837.97,-288.73 855.91,-288.04"/>
<polygon fill="midnightblue" stroke="midnightblue" points="856.07,-291.54 865.93,-287.66 855.81,-284.54 856.07,-291.54"/>
</g>
<!-- Node50 -->
<g id="node34" class="node">
<title>Node50</title>
<g id="a_node34"><a xlink:href="packet__list_8c.html#afefb37c36db47052d2e2b7e4d6c2274b" target="_top" xlink:title="PacketList が空かどうか">
<polygon fill="white" stroke="black" points="871.5,-200.5 871.5,-219.5 949.5,-219.5 949.5,-200.5 871.5,-200.5"/>
<text text-anchor="middle" x="910.5" y="-207.5" font-family="Helvetica,sans-Serif" font-size="10.00">PL_is_empty</text>
</a>
</g>
</g>
<!-- Node44&#45;&gt;Node50 -->
<g id="edge37" class="edge">
<title>Node44&#45;&gt;Node50</title>
<path fill="none" stroke="midnightblue" d="M786.46,-282.44C797,-278.75 808.35,-273.95 818,-268 836.73,-256.44 835.62,-246.11 854,-234 859.83,-230.16 866.38,-226.69 872.88,-223.67"/>
<polygon fill="midnightblue" stroke="midnightblue" points="874.51,-226.77 882.27,-219.56 871.71,-220.36 874.51,-226.77"/>
</g>
<!-- Node51 -->
<g id="node35" class="node">
<title>Node51</title>
<g id="a_node35"><a xlink:href="packet__list_8c.html#aee623fa81c4a8a1f3b0775a3a5d2925b" target="_top" xlink:title="PacketList が満杯かどうか">
<polygon fill="white" stroke="black" points="879.5,-162.5 879.5,-181.5 941.5,-181.5 941.5,-162.5 879.5,-162.5"/>
<text text-anchor="middle" x="910.5" y="-169.5" font-family="Helvetica,sans-Serif" font-size="10.00">PL_is_full</text>
</a>
</g>
</g>
<!-- Node44&#45;&gt;Node51 -->
<g id="edge38" class="edge">
<title>Node44&#45;&gt;Node51</title>
<path fill="none" stroke="midnightblue" d="M793.86,-282.37C802.57,-278.91 811.16,-274.26 818,-268 845.87,-242.5 825.89,-216.24 854,-191 858.51,-186.95 863.93,-183.75 869.59,-181.23"/>
<polygon fill="midnightblue" stroke="midnightblue" points="871.1,-184.4 879.22,-177.6 868.63,-177.85 871.1,-184.4"/>
</g>
<!-- Node52 -->
<g id="node36" class="node">
<title>Node52</title>
<g id="a_node36"><a xlink:href="packet__list_8c.html#a46379e787e8e3c97939b08e6c838372a" target="_top" xlink:title="PacketList の先頭に packet を挿入">
<polygon fill="white" stroke="black" points="1003,-238.5 1003,-257.5 1088,-257.5 1088,-238.5 1003,-238.5"/>
<text text-anchor="middle" x="1045.5" y="-245.5" font-family="Helvetica,sans-Serif" font-size="10.00">PL_push_front</text>
</a>
</g>
</g>
<!-- Node44&#45;&gt;Node52 -->
<g id="edge40" class="edge">
<title>Node44&#45;&gt;Node52</title>
<path fill="none" stroke="midnightblue" d="M785.75,-282.46C805.5,-277.2 831,-270.95 854,-267 900.41,-259.04 953.8,-254.07 992.23,-251.22"/>
<polygon fill="midnightblue" stroke="midnightblue" points="992.93,-254.68 1002.65,-250.47 992.43,-247.7 992.93,-254.68"/>
</g>
<!-- Node49&#45;&gt;Node40 -->
<g id="edge36" class="edge">
<title>Node49&#45;&gt;Node40</title>
<path fill="none" stroke="midnightblue" d="M950.97,-295.55C956.71,-298.03 962.27,-301.13 967,-305 1004.57,-335.79 1027.86,-389.91 1038.21,-418.71"/>
<polygon fill="midnightblue" stroke="midnightblue" points="1034.98,-420.08 1041.54,-428.4 1041.6,-417.81 1034.98,-420.08"/>
</g>
<!-- Node49&#45;&gt;Node41 -->
<g id="edge35" class="edge">
<title>Node49&#45;&gt;Node41</title>
<path fill="none" stroke="midnightblue" d="M955.04,-286C998.17,-286 1064.67,-286 1113.65,-286"/>
<polygon fill="midnightblue" stroke="midnightblue" points="1113.82,-289.5 1123.82,-286 1113.82,-282.5 1113.82,-289.5"/>
</g>
<!-- Node52&#45;&gt;Node41 -->
<g id="edge41" class="edge">
<title>Node52&#45;&gt;Node41</title>
<path fill="none" stroke="midnightblue" d="M1079.43,-257.59C1096.12,-262.45 1116.59,-268.41 1134.46,-273.61"/>
<polygon fill="midnightblue" stroke="midnightblue" points="1133.5,-276.98 1144.08,-276.41 1135.46,-270.26 1133.5,-276.98"/>
</g>
<!-- Node53&#45;&gt;Node43 -->
<g id="edge48" class="edge">
<title>Node53&#45;&gt;Node43</title>
<path fill="none" stroke="midnightblue" d="M416.51,-302.72C435.08,-317.3 472.35,-344.87 508,-361 513.29,-363.4 518.96,-365.55 524.68,-367.47"/>
<polygon fill="midnightblue" stroke="midnightblue" points="523.71,-370.84 534.3,-370.49 525.8,-364.16 523.71,-370.84"/>
</g>
<!-- Node53&#45;&gt;Node45 -->
<g id="edge45" class="edge">
<title>Node53&#45;&gt;Node45</title>
<path fill="none" stroke="midnightblue" d="M450.24,-283.46C468.2,-279.9 489.02,-275.99 508,-273 576.56,-262.19 762.31,-276.42 818,-235 849.94,-211.25 824.7,-179.94 854,-153 857.65,-149.64 861.92,-146.88 866.44,-144.6"/>
<polygon fill="midnightblue" stroke="midnightblue" points="868.11,-147.69 875.96,-140.57 865.38,-141.24 868.11,-147.69"/>
</g>
<!-- Node54 -->
<g id="node38" class="node">
<title>Node54</title>
<g id="a_node38"><a xlink:href="common__cmd__packet_8h.html#aff399e79c4a5c9d75552b295de0d3365" target="_top" xlink:title="CommonCmdPacket をコピー">
<polygon fill="white" stroke="black" points="527,-206.5 527,-225.5 629,-225.5 629,-206.5 527,-206.5"/>
<text text-anchor="middle" x="578" y="-213.5" font-family="Helvetica,sans-Serif" font-size="10.00">CCP_copy_packet</text>
</a>
</g>
</g>
<!-- Node53&#45;&gt;Node54 -->
<g id="edge43" class="edge">
<title>Node53&#45;&gt;Node54</title>
<path fill="none" stroke="midnightblue" d="M426.01,-283.37C439.39,-277.25 456.86,-268.99 472,-261 488.38,-252.36 491.17,-247.75 508,-240 516.89,-235.91 526.7,-232.1 536.05,-228.78"/>
<polygon fill="midnightblue" stroke="midnightblue" points="537.26,-232.06 545.58,-225.5 534.99,-225.44 537.26,-232.06"/>
</g>
<!-- Node57 -->
<g id="node40" class="node">
<title>Node57</title>
<g id="a_node40"><a xlink:href="common__cmd__packet_8h.html#ab4c0b1be76b7097e922a8a354f500b88" target="_top" xlink:title="EXEC_TYPE を設定">
<polygon fill="white" stroke="red" points="522.5,-168.5 522.5,-187.5 633.5,-187.5 633.5,-168.5 522.5,-168.5"/>
<text text-anchor="middle" x="578" y="-175.5" font-family="Helvetica,sans-Serif" font-size="10.00">CCP_set_exec_type</text>
</a>
</g>
</g>
<!-- Node53&#45;&gt;Node57 -->
<g id="edge46" class="edge">
<title>Node53&#45;&gt;Node57</title>
<path fill="none" stroke="midnightblue" d="M434.46,-283.42C447.13,-278.27 461.38,-270.91 472,-261 495.87,-238.74 482.29,-217.1 508,-197 510.34,-195.17 512.84,-193.52 515.46,-192.02"/>
<polygon fill="midnightblue" stroke="midnightblue" points="517.26,-195.04 524.73,-187.53 514.2,-188.74 517.26,-195.04"/>
</g>
<!-- Node60 -->
<g id="node41" class="node">
<title>Node60</title>
<g id="a_node41"><a xlink:href="common__cmd__packet_8h.html#a1fde7575e47a25464d869a3247e1e087" target="_top" xlink:title="TI を設定">
<polygon fill="white" stroke="red" points="544,-332.5 544,-351.5 612,-351.5 612,-332.5 544,-332.5"/>
<text text-anchor="middle" x="578" y="-339.5" font-family="Helvetica,sans-Serif" font-size="10.00">CCP_set_ti</text>
</a>
</g>
</g>
<!-- Node53&#45;&gt;Node60 -->
<g id="edge47" class="edge">
<title>Node53&#45;&gt;Node60</title>
<path fill="none" stroke="midnightblue" d="M438.17,-302.56C465.57,-310.35 504.41,-321.38 534.04,-329.8"/>
<polygon fill="midnightblue" stroke="midnightblue" points="533.13,-333.18 543.71,-332.54 535.05,-326.44 533.13,-333.18"/>
</g>
<!-- Node53&#45;&gt;Node62 -->
<g id="edge49" class="edge">
<title>Node53&#45;&gt;Node62</title>
<path fill="none" stroke="midnightblue" d="M437.38,-283.43C449.64,-278.45 462.79,-271.21 472,-261 504.19,-225.3 474.15,-193.13 508,-159 509.45,-157.54 510.98,-156.17 512.6,-154.87"/>
<polygon fill="midnightblue" stroke="midnightblue" points="514.89,-157.55 521.2,-149.04 510.96,-151.76 514.89,-157.55"/>
</g>
<!-- Node64 -->
<g id="node44" class="node">
<title>Node64</title>
<g id="a_node44"><a xlink:href="time__manager_8c.html#adb6317bb3e7f3896ae0f4bd41f8c531b" target="_top" xlink:title="引数で指定された utl_unixtime に対応する TI を返す">
<polygon fill="white" stroke="red" points="515.5,-283 515.5,-313 640.5,-313 640.5,-283 515.5,-283"/>
<text text-anchor="start" x="523.5" y="-301" font-family="Helvetica,sans-Serif" font-size="10.00">TMGR_get_ti_from_utl</text>
<text text-anchor="middle" x="578" y="-290" font-family="Helvetica,sans-Serif" font-size="10.00">_unixtime</text>
</a>
</g>
</g>
<!-- Node53&#45;&gt;Node64 -->
<g id="edge51" class="edge">
<title>Node53&#45;&gt;Node64</title>
<path fill="none" stroke="midnightblue" d="M455.32,-294.47C470.88,-294.92 488.29,-295.43 504.98,-295.91"/>
<polygon fill="midnightblue" stroke="midnightblue" points="505.15,-299.42 515.25,-296.21 505.35,-292.42 505.15,-299.42"/>
</g>
<!-- Node55 -->
<g id="node39" class="node">
<title>Node55</title>
<g id="a_node39"><a xlink:href="cmd__space__packet_8c.html#a2a6ae24b63276a3107cbd59f153b658e" target="_top" xlink:title="CmdSpacePacket をコピー">
<polygon fill="white" stroke="red" points="700.5,-206.5 700.5,-225.5 801.5,-225.5 801.5,-206.5 700.5,-206.5"/>
<text text-anchor="middle" x="751" y="-213.5" font-family="Helvetica,sans-Serif" font-size="10.00">CSP_copy_packet</text>
</a>
</g>
</g>
<!-- Node54&#45;&gt;Node55 -->
<g id="edge44" class="edge">
<title>Node54&#45;&gt;Node55</title>
<path fill="none" stroke="midnightblue" d="M629.38,-216C648.42,-216 670.28,-216 690.11,-216"/>
<polygon fill="midnightblue" stroke="midnightblue" points="690.27,-219.5 700.27,-216 690.27,-212.5 690.27,-219.5"/>
</g>
<!-- Node63 -->
<g id="node43" class="node">
<title>Node63</title>
<g id="a_node43"><a xlink:href="obc__time_8c.html#ac42c1d017a2cbb8dab608771907c97d5" target="_top" xlink:title="引数で指定した ObcTime の total_cycle を返す">
<polygon fill="white" stroke="black" points="689.5,-124.5 689.5,-143.5 812.5,-143.5 812.5,-124.5 689.5,-124.5"/>
<text text-anchor="middle" x="751" y="-131.5" font-family="Helvetica,sans-Serif" font-size="10.00">OBCT_get_total_cycle</text>
</a>
</g>
</g>
<!-- Node62&#45;&gt;Node63 -->
<g id="edge50" class="edge">
<title>Node62&#45;&gt;Node63</title>
<path fill="none" stroke="midnightblue" d="M645.11,-134C656.27,-134 667.88,-134 679.15,-134"/>
<polygon fill="midnightblue" stroke="midnightblue" points="679.38,-137.5 689.38,-134 679.38,-130.5 679.38,-137.5"/>
</g>
<!-- Node70 -->
<g id="node46" class="node">
<title>Node70</title>
<g id="a_node46"><a xlink:href="block__command__table_8c.html#af4f041d9c2411d039196e8c2eb786005" target="_top" xlink:title="Cmd を block_command_table&#45;&gt;pos に登録する">
<polygon fill="white" stroke="red" points="525.5,-80.5 525.5,-99.5 630.5,-99.5 630.5,-80.5 525.5,-80.5"/>
<text text-anchor="middle" x="578" y="-87.5" font-family="Helvetica,sans-Serif" font-size="10.00">BCT_register_cmd</text>
</a>
</g>
</g>
<!-- Node69&#45;&gt;Node70 -->
<g id="edge53" class="edge">
<title>Node69&#45;&gt;Node70</title>
<path fill="none" stroke="midnightblue" d="M417.4,-183.49C431.14,-173.25 453.43,-156.38 472,-141 488.49,-127.35 489.19,-119.22 508,-109 512.21,-106.71 516.72,-104.68 521.35,-102.88"/>
<polygon fill="midnightblue" stroke="midnightblue" points="522.67,-106.13 530.94,-99.51 520.34,-99.53 522.67,-106.13"/>
</g>
<!-- Node78 -->
<g id="node48" class="node">
<title>Node78</title>
<g id="a_node48"><a xlink:href="common__cmd__packet_8h.html#a120a6ef1fee069ab4c4013da8539e0eb" target="_top" xlink:title="DEST_TYPE を取得">
<polygon fill="white" stroke="red" points="855.5,-504.5 855.5,-523.5 965.5,-523.5 965.5,-504.5 855.5,-504.5"/>
<text text-anchor="middle" x="910.5" y="-511.5" font-family="Helvetica,sans-Serif" font-size="10.00">CCP_get_dest_type</text>
</a>
</g>
</g>
<!-- Node77&#45;&gt;Node78 -->
<g id="edge55" class="edge">
<title>Node77&#45;&gt;Node78</title>
<path fill="none" stroke="midnightblue" d="M814.25,-525.49C824.44,-524.26 835.01,-522.99 845.25,-521.75"/>
<polygon fill="midnightblue" stroke="midnightblue" points="845.84,-525.21 855.35,-520.53 845,-518.26 845.84,-525.21"/>
</g>
<!-- Node80 -->
<g id="node49" class="node">
<title>Node80</title>
<g id="a_node49"><a xlink:href="user__packet__handler_8c.html#a311f412a8baddf012c1c91324ca32a76" target="_top" xlink:title=" ">
<polygon fill="white" stroke="black" points="854,-580.5 854,-599.5 967,-599.5 967,-580.5 854,-580.5"/>
<text text-anchor="middle" x="910.5" y="-587.5" font-family="Helvetica,sans-Serif" font-size="10.00">PH_add_aobc_cmd_</text>
</a>
</g>
</g>
<!-- Node77&#45;&gt;Node80 -->
<g id="edge56" class="edge">
<title>Node77&#45;&gt;Node80</title>
<path fill="none" stroke="midnightblue" d="M777.08,-542.56C797.69,-550.36 827.66,-561.59 854,-571 859.65,-573.02 865.64,-575.12 871.52,-577.15"/>
<polygon fill="midnightblue" stroke="midnightblue" points="870.62,-580.54 881.21,-580.48 872.89,-573.92 870.62,-580.54"/>
</g>
<!-- Node81 -->
<g id="node50" class="node">
<title>Node81</title>
<g id="a_node50"><a xlink:href="user__packet__handler_8c.html#a4b0723acb8a522d6f5a481a679f9be10" target="_top" xlink:title=" ">
<polygon fill="white" stroke="black" points="855,-542.5 855,-561.5 966,-561.5 966,-542.5 855,-542.5"/>
<text text-anchor="middle" x="910.5" y="-549.5" font-family="Helvetica,sans-Serif" font-size="10.00">PH_add_tobc_cmd_</text>
</a>
</g>
</g>
<!-- Node77&#45;&gt;Node81 -->
<g id="edge58" class="edge">
<title>Node77&#45;&gt;Node81</title>
<path fill="none" stroke="midnightblue" d="M814.25,-540.51C824.31,-541.72 834.74,-542.98 844.86,-544.2"/>
<polygon fill="midnightblue" stroke="midnightblue" points="844.5,-547.68 854.84,-545.41 845.33,-540.73 844.5,-547.68"/>
</g>
<!-- Node80&#45;&gt;Node40 -->
<g id="edge57" class="edge">
<title>Node80&#45;&gt;Node40</title>
<path fill="none" stroke="midnightblue" d="M950.97,-580.45C956.71,-577.97 962.27,-574.87 967,-571 1004.57,-540.21 1027.86,-486.09 1038.21,-457.29"/>
<polygon fill="midnightblue" stroke="midnightblue" points="1041.6,-458.19 1041.54,-447.6 1034.98,-455.92 1041.6,-458.19"/>
</g>
<!-- Node81&#45;&gt;Node40 -->
<g id="edge59" class="edge">
<title>Node81&#45;&gt;Node40</title>
<path fill="none" stroke="midnightblue" d="M948.72,-542.48C955.12,-539.96 961.48,-536.84 967,-533 996.54,-512.43 1020.87,-477.59 1033.98,-456.3"/>
<polygon fill="midnightblue" stroke="midnightblue" points="1037.07,-457.95 1039.2,-447.57 1031.06,-454.36 1037.07,-457.95"/>
</g>
</g>
</svg>
