<?xml version="1.0" encoding="UTF-8" standalone="no"?>
<!DOCTYPE svg PUBLIC "-//W3C//DTD SVG 1.1//EN"
 "http://www.w3.org/Graphics/SVG/1.1/DTD/svg11.dtd">
<!-- Generated by graphviz version 2.43.0 (0)
 -->
<!-- Title: GS_rec_tcf Pages: 1 -->
<svg width="1076pt" height="28pt"
 viewBox="0.00 0.00 1076.00 28.00" xmlns="http://www.w3.org/2000/svg" xmlns:xlink="http://www.w3.org/1999/xlink">
<g id="graph0" class="graph" transform="scale(1 1) rotate(0) translate(4 24)">
<title>GS_rec_tcf</title>
<polygon fill="white" stroke="transparent" points="-4,4 -4,-24 1072,-24 1072,4 -4,4"/>
<!-- Node1 -->
<g id="node1" class="node">
<title>Node1</title>
<g id="a_node1"><a xlink:title="地上から CMD を受信する. 形式は TCFrame">
<polygon fill="#bfbfbf" stroke="black" points="1000,-0.5 1000,-19.5 1068,-19.5 1068,-0.5 1000,-0.5"/>
<text text-anchor="middle" x="1034" y="-7.5" font-family="Helvetica,sans-Serif" font-size="10.00">GS_rec_tcf</text>
</a>
</g>
</g>
<!-- Node2 -->
<g id="node2" class="node">
<title>Node2</title>
<g id="a_node2"><a xlink:href="di__gs_8c.html#a8f20dcd562d4598cd177d1435dafeea4" target="_top" xlink:title=" ">
<polygon fill="white" stroke="black" points="807,-0.5 807,-19.5 964,-19.5 964,-0.5 807,-0.5"/>
<text text-anchor="middle" x="885.5" y="-7.5" font-family="Helvetica,sans-Serif" font-size="10.00">DI_GS_cmd_packet_handler_</text>
</a>
</g>
</g>
<!-- Node1&#45;&gt;Node2 -->
<g id="edge1" class="edge">
<title>Node1&#45;&gt;Node2</title>
<path fill="none" stroke="midnightblue" d="M989.54,-10C981.48,-10 972.84,-10 964.12,-10"/>
<polygon fill="midnightblue" stroke="midnightblue" points="989.76,-13.5 999.76,-10 989.76,-6.5 989.76,-13.5"/>
</g>
<!-- Node3 -->
<g id="node3" class="node">
<title>Node3</title>
<g id="a_node3"><a xlink:href="di__gs_8h.html#a9db482e4676bf373c0f84561058f1f91" target="_top" xlink:title=" ">
<polygon fill="white" stroke="black" points="619,-0.5 619,-19.5 771,-19.5 771,-0.5 619,-0.5"/>
<text text-anchor="middle" x="695" y="-7.5" font-family="Helvetica,sans-Serif" font-size="10.00">DI_GS_cmd_packet_handler</text>
</a>
</g>
</g>
<!-- Node2&#45;&gt;Node3 -->
<g id="edge2" class="edge">
<title>Node2&#45;&gt;Node3</title>
<path fill="none" stroke="midnightblue" d="M796.47,-10C788.01,-10 779.48,-10 771.15,-10"/>
<polygon fill="midnightblue" stroke="midnightblue" points="796.74,-13.5 806.74,-10 796.74,-6.5 796.74,-13.5"/>
</g>
<!-- Node4 -->
<g id="node4" class="node">
<title>Node4</title>
<g id="a_node4"><a xlink:href="app__registry_8h.html#ab944b1d78a41e427bc2ed57f9c4e9534" target="_top" xlink:title=" ">
<polygon fill="white" stroke="black" points="449,-0.5 449,-19.5 583,-19.5 583,-0.5 449,-0.5"/>
<text text-anchor="middle" x="516" y="-7.5" font-family="Helvetica,sans-Serif" font-size="10.00">AR_load_initial_settings</text>
</a>
</g>
</g>
<!-- Node3&#45;&gt;Node4 -->
<g id="edge3" class="edge">
<title>Node3&#45;&gt;Node4</title>
<path fill="none" stroke="midnightblue" d="M608.86,-10C600.24,-10 591.59,-10 583.21,-10"/>
<polygon fill="midnightblue" stroke="midnightblue" points="608.94,-13.5 618.94,-10 608.94,-6.5 608.94,-13.5"/>
</g>
<!-- Node5 -->
<g id="node5" class="node">
<title>Node5</title>
<g id="a_node5"><a xlink:href="c2a__core__main_8h.html#a65ecdc63d8762ffde4db7f6c6e6f07cf" target="_top" xlink:title=" ">
<polygon fill="white" stroke="black" points="330,-0.5 330,-19.5 413,-19.5 413,-0.5 330,-0.5"/>
<text text-anchor="middle" x="371.5" y="-7.5" font-family="Helvetica,sans-Serif" font-size="10.00">C2A_core_init</text>
</a>
</g>
</g>
<!-- Node4&#45;&gt;Node5 -->
<g id="edge4" class="edge">
<title>Node4&#45;&gt;Node5</title>
<path fill="none" stroke="midnightblue" d="M438.56,-10C429.89,-10 421.32,-10 413.38,-10"/>
<polygon fill="midnightblue" stroke="midnightblue" points="438.76,-13.5 448.76,-10 438.76,-6.5 438.76,-13.5"/>
</g>
<!-- Node6 -->
<g id="node6" class="node">
<title>Node6</title>
<g id="a_node6"><a xlink:href="c2a__main_8c.html#a630222a80cd8bffd4426d4a55a215069" target="_top" xlink:title=" ">
<polygon fill="white" stroke="black" points="232,-0.5 232,-19.5 294,-19.5 294,-0.5 232,-0.5"/>
<text text-anchor="middle" x="263" y="-7.5" font-family="Helvetica,sans-Serif" font-size="10.00">C2A_init_</text>
</a>
</g>
</g>
<!-- Node5&#45;&gt;Node6 -->
<g id="edge5" class="edge">
<title>Node5&#45;&gt;Node6</title>
<path fill="none" stroke="midnightblue" d="M319.76,-10C311.01,-10 302.17,-10 294.18,-10"/>
<polygon fill="midnightblue" stroke="midnightblue" points="319.93,-13.5 329.93,-10 319.93,-6.5 319.93,-13.5"/>
</g>
<!-- Node7 -->
<g id="node7" class="node">
<title>Node7</title>
<g id="a_node7"><a xlink:href="c2a__main_8c.html#ac3344a311adda8f9e7310924bedf81fc" target="_top" xlink:title=" ">
<polygon fill="white" stroke="black" points="77,-0.5 77,-19.5 196,-19.5 196,-0.5 77,-0.5"/>
<text text-anchor="middle" x="136.5" y="-7.5" font-family="Helvetica,sans-Serif" font-size="10.00">address_fixed_main_</text>
</a>
</g>
</g>
<!-- Node6&#45;&gt;Node7 -->
<g id="edge6" class="edge">
<title>Node6&#45;&gt;Node7</title>
<path fill="none" stroke="midnightblue" d="M221.83,-10C213.62,-10 204.82,-10 196.12,-10"/>
<polygon fill="midnightblue" stroke="midnightblue" points="221.86,-13.5 231.86,-10 221.86,-6.5 221.86,-13.5"/>
</g>
<!-- Node8 -->
<g id="node8" class="node">
<title>Node8</title>
<g id="a_node8"><a xlink:href="c2a__main_8c.html#a6288eba0f8e8ad3ab1544ad731eb7667" target="_top" xlink:title=" ">
<polygon fill="white" stroke="black" points="0,-0.5 0,-19.5 41,-19.5 41,-0.5 0,-0.5"/>
<text text-anchor="middle" x="20.5" y="-7.5" font-family="Helvetica,sans-Serif" font-size="10.00">main</text>
</a>
</g>
</g>
<!-- Node7&#45;&gt;Node8 -->
<g id="edge7" class="edge">
<title>Node7&#45;&gt;Node8</title>
<path fill="none" stroke="midnightblue" d="M66.64,-10C57.37,-10 48.53,-10 41.18,-10"/>
<polygon fill="midnightblue" stroke="midnightblue" points="66.83,-13.5 76.83,-10 66.83,-6.5 66.83,-13.5"/>
</g>
</g>
</svg>
