<?xml version="1.0" encoding="UTF-8" standalone="no"?>
<!DOCTYPE svg PUBLIC "-//W3C//DTD SVG 1.1//EN"
 "http://www.w3.org/Graphics/SVG/1.1/DTD/svg11.dtd">
<!-- Generated by graphviz version 2.43.0 (0)
 -->
<!-- Title: GS_init Pages: 1 -->
<svg width="1241pt" height="943pt"
 viewBox="0.00 0.00 1241.00 942.50" xmlns="http://www.w3.org/2000/svg" xmlns:xlink="http://www.w3.org/1999/xlink">
<g id="graph0" class="graph" transform="scale(1 1) rotate(0) translate(4 938.5)">
<title>GS_init</title>
<polygon fill="white" stroke="transparent" points="-4,4 -4,-938.5 1237,-938.5 1237,4 -4,4"/>
<!-- Node1 -->
<g id="node1" class="node">
<title>Node1</title>
<g id="a_node1"><a xlink:title="Driver の初期化">
<polygon fill="#bfbfbf" stroke="black" points="0,-571.5 0,-590.5 51,-590.5 51,-571.5 0,-571.5"/>
<text text-anchor="middle" x="25.5" y="-578.5" font-family="Helvetica,sans-Serif" font-size="10.00">GS_init</text>
</a>
</g>
</g>
<!-- Node2 -->
<g id="node2" class="node">
<title>Node2</title>
<g id="a_node2"><a xlink:href="driver__super_8c.html#ae53312061d6acbd24edd316d126c7dea" target="_top" xlink:title="継承先の機器よりDriverSuperを初期化する">
<polygon fill="white" stroke="black" points="122.5,-783.5 122.5,-802.5 173.5,-802.5 173.5,-783.5 122.5,-783.5"/>
<text text-anchor="middle" x="148" y="-790.5" font-family="Helvetica,sans-Serif" font-size="10.00">DS_init</text>
</a>
</g>
</g>
<!-- Node1&#45;&gt;Node2 -->
<g id="edge1" class="edge">
<title>Node1&#45;&gt;Node2</title>
<path fill="none" stroke="midnightblue" d="M31.99,-590.66C50.61,-623.43 111.59,-730.71 136.38,-774.32"/>
<polygon fill="midnightblue" stroke="midnightblue" points="133.49,-776.32 141.48,-783.28 139.58,-772.86 133.49,-776.32"/>
</g>
<!-- Node11 -->
<g id="node11" class="node">
<title>Node11</title>
<g id="a_node11"><a xlink:href="gs_8c.html#a4621f4390191b12c281982f635516f67" target="_top" xlink:title="CCSDS 側 Driver の DS 上での初期化設定">
<polygon fill="white" stroke="black" points="87,-591 87,-621 209,-621 209,-591 87,-591"/>
<text text-anchor="start" x="95" y="-609" font-family="Helvetica,sans-Serif" font-size="10.00">GS_load_ccsds_driver</text>
<text text-anchor="middle" x="148" y="-598" font-family="Helvetica,sans-Serif" font-size="10.00">_super_init_settings_</text>
</a>
</g>
</g>
<!-- Node1&#45;&gt;Node11 -->
<g id="edge11" class="edge">
<title>Node1&#45;&gt;Node11</title>
<path fill="none" stroke="midnightblue" d="M51.18,-586.12C58.81,-587.7 67.63,-589.53 76.77,-591.43"/>
<polygon fill="midnightblue" stroke="midnightblue" points="76.27,-594.9 86.77,-593.5 77.69,-588.05 76.27,-594.9"/>
</g>
<!-- Node101 -->
<g id="node49" class="node">
<title>Node101</title>
<g id="a_node49"><a xlink:href="gs_8c.html#a940de224a6d318a15603b46983cf69ea" target="_top" xlink:title="UART 側 Driver の DS 上での初期化設定">
<polygon fill="white" stroke="black" points="88.5,-542 88.5,-572 207.5,-572 207.5,-542 88.5,-542"/>
<text text-anchor="start" x="96.5" y="-560" font-family="Helvetica,sans-Serif" font-size="10.00">GS_load_uart_driver</text>
<text text-anchor="middle" x="148" y="-549" font-family="Helvetica,sans-Serif" font-size="10.00">_super_init_settings_</text>
</a>
</g>
</g>
<!-- Node1&#45;&gt;Node101 -->
<g id="edge53" class="edge">
<title>Node1&#45;&gt;Node101</title>
<path fill="none" stroke="midnightblue" d="M51.18,-576.09C59.2,-574.49 68.53,-572.63 78.17,-570.71"/>
<polygon fill="midnightblue" stroke="midnightblue" points="79.15,-574.08 88.27,-568.7 77.78,-567.22 79.15,-574.08"/>
</g>
<!-- Node102 -->
<g id="node50" class="node">
<title>Node102</title>
<g id="a_node50"><a xlink:href="gs__validate_8c.html#a6d00a5c9554a05b6b042017982b3224f" target="_top" xlink:title="GS_ValiateInfo の初期化">
<polygon fill="white" stroke="black" points="100,-503.5 100,-522.5 196,-522.5 196,-503.5 100,-503.5"/>
<text text-anchor="middle" x="148" y="-510.5" font-family="Helvetica,sans-Serif" font-size="10.00">GS_validate_init</text>
</a>
</g>
</g>
<!-- Node1&#45;&gt;Node102 -->
<g id="edge55" class="edge">
<title>Node1&#45;&gt;Node102</title>
<path fill="none" stroke="midnightblue" d="M35.94,-571.43C47.2,-560.5 67,-542.76 87,-532 91,-529.84 95.29,-527.89 99.67,-526.12"/>
<polygon fill="midnightblue" stroke="midnightblue" points="101.14,-529.31 109.3,-522.56 98.71,-522.74 101.14,-529.31"/>
</g>
<!-- Node3 -->
<g id="node3" class="node">
<title>Node3</title>
<g id="a_node3"><a xlink:href="driver__super_8c.html#a7f4bb1ea81bf8d3a89752a0fc875afce" target="_top" xlink:title="DriverSuperのリセット">
<polygon fill="white" stroke="black" points="280,-846.5 280,-865.5 340,-865.5 340,-846.5 280,-846.5"/>
<text text-anchor="middle" x="310" y="-853.5" font-family="Helvetica,sans-Serif" font-size="10.00">DS_reset</text>
</a>
</g>
</g>
<!-- Node2&#45;&gt;Node3 -->
<g id="edge2" class="edge">
<title>Node2&#45;&gt;Node3</title>
<path fill="none" stroke="midnightblue" d="M173.3,-802.57C200.52,-813.28 244.8,-830.72 275.34,-842.75"/>
<polygon fill="midnightblue" stroke="midnightblue" points="274.15,-846.04 284.73,-846.45 276.71,-839.52 274.15,-846.04"/>
</g>
<!-- Node9 -->
<g id="node9" class="node">
<title>Node9</title>
<g id="a_node9"><a xlink:href="driver__super_8c.html#a54c663378f78e30014495b4957a575ff" target="_top" xlink:title="DriverSuperの設定に不整合が生じていないかチェックする">
<polygon fill="white" stroke="black" points="255,-783.5 255,-802.5 365,-802.5 365,-783.5 255,-783.5"/>
<text text-anchor="middle" x="310" y="-790.5" font-family="Helvetica,sans-Serif" font-size="10.00">DS_validate_config</text>
</a>
</g>
</g>
<!-- Node2&#45;&gt;Node9 -->
<g id="edge9" class="edge">
<title>Node2&#45;&gt;Node9</title>
<path fill="none" stroke="midnightblue" d="M173.65,-793C192.6,-793 219.68,-793 244.65,-793"/>
<polygon fill="midnightblue" stroke="midnightblue" points="244.82,-796.5 254.82,-793 244.82,-789.5 244.82,-796.5"/>
</g>
<!-- Node4 -->
<g id="node4" class="node">
<title>Node4</title>
<g id="a_node4"><a xlink:href="driver__super_8c.html#a8183efca88aff7a47cd50b16e83a66ca" target="_top" xlink:title=" ">
<polygon fill="white" stroke="black" points="436,-904 436,-934 552,-934 552,-904 436,-904"/>
<text text-anchor="start" x="444" y="-922" font-family="Helvetica,sans-Serif" font-size="10.00">DS_load_init_setting</text>
<text text-anchor="middle" x="494" y="-911" font-family="Helvetica,sans-Serif" font-size="10.00">_dummy_</text>
</a>
</g>
</g>
<!-- Node3&#45;&gt;Node4 -->
<g id="edge3" class="edge">
<title>Node3&#45;&gt;Node4</title>
<path fill="none" stroke="midnightblue" d="M334.68,-865.51C354.84,-873.49 384.64,-884.98 411,-894 417.78,-896.32 424.9,-898.65 432.01,-900.9"/>
<polygon fill="midnightblue" stroke="midnightblue" points="431.06,-904.27 441.65,-903.92 433.16,-897.59 431.06,-904.27"/>
</g>
<!-- Node5 -->
<g id="node5" class="node">
<title>Node5</title>
<g id="a_node5"><a xlink:href="driver__super_8c.html#a8f518ac0c2785b0b5b3de8d226dc91b6" target="_top" xlink:title="DS_StreamConfig構造体の初期化">
<polygon fill="white" stroke="black" points="424,-865.5 424,-884.5 564,-884.5 564,-865.5 424,-865.5"/>
<text text-anchor="middle" x="494" y="-872.5" font-family="Helvetica,sans-Serif" font-size="10.00">DS_reset_stream_config_</text>
</a>
</g>
</g>
<!-- Node3&#45;&gt;Node5 -->
<g id="edge4" class="edge">
<title>Node3&#45;&gt;Node5</title>
<path fill="none" stroke="midnightblue" d="M340.24,-859.05C360.11,-861.13 387.42,-863.98 413.46,-866.7"/>
<polygon fill="midnightblue" stroke="midnightblue" points="413.43,-870.21 423.74,-867.77 414.16,-863.25 413.43,-870.21"/>
</g>
<!-- Node7 -->
<g id="node7" class="node">
<title>Node7</title>
<g id="a_node7"><a xlink:href="time__manager_8c.html#a9d04b4d9b622cbe5a90cf65e58b828bc" target="_top" xlink:title="現在の master_clock_ を取得する">
<polygon fill="white" stroke="black" points="620.5,-827.5 620.5,-846.5 757.5,-846.5 757.5,-827.5 620.5,-827.5"/>
<text text-anchor="middle" x="689" y="-834.5" font-family="Helvetica,sans-Serif" font-size="10.00">TMGR_get_master_clock</text>
</a>
</g>
</g>
<!-- Node3&#45;&gt;Node7 -->
<g id="edge8" class="edge">
<title>Node3&#45;&gt;Node7</title>
<path fill="none" stroke="midnightblue" d="M340.27,-854.52C397.57,-851.64 526.23,-845.15 609.97,-840.93"/>
<polygon fill="midnightblue" stroke="midnightblue" points="610.39,-844.42 620.2,-840.42 610.04,-837.42 610.39,-844.42"/>
</g>
<!-- Node6 -->
<g id="node6" class="node">
<title>Node6</title>
<g id="a_node6"><a xlink:href="driver__super_8c.html#a17276ca37e76a016ddc12766fda7309f" target="_top" xlink:title=" ">
<polygon fill="white" stroke="black" points="613,-865.5 613,-884.5 765,-884.5 765,-865.5 613,-865.5"/>
<text text-anchor="middle" x="689" y="-872.5" font-family="Helvetica,sans-Serif" font-size="10.00">DS_data_analyzer_dummy_</text>
</a>
</g>
</g>
<!-- Node5&#45;&gt;Node6 -->
<g id="edge5" class="edge">
<title>Node5&#45;&gt;Node6</title>
<path fill="none" stroke="midnightblue" d="M564.13,-875C576.59,-875 589.72,-875 602.58,-875"/>
<polygon fill="midnightblue" stroke="midnightblue" points="602.81,-878.5 612.81,-875 602.81,-871.5 602.81,-878.5"/>
</g>
<!-- Node5&#45;&gt;Node7 -->
<g id="edge6" class="edge">
<title>Node5&#45;&gt;Node7</title>
<path fill="none" stroke="midnightblue" d="M543.7,-865.41C569.86,-860.26 602.28,-853.88 629.77,-848.47"/>
<polygon fill="midnightblue" stroke="midnightblue" points="630.51,-851.89 639.65,-846.52 629.16,-845.02 630.51,-851.89"/>
</g>
<!-- Node8 -->
<g id="node8" class="node">
<title>Node8</title>
<g id="a_node8"><a xlink:href="obc__time_8c.html#a70416835a40bdacbb04f6f06b1e6d1e1" target="_top" xlink:title="引数から ObcTime を作成する">
<polygon fill="white" stroke="black" points="829.5,-827.5 829.5,-846.5 909.5,-846.5 909.5,-827.5 829.5,-827.5"/>
<text text-anchor="middle" x="869.5" y="-834.5" font-family="Helvetica,sans-Serif" font-size="10.00">OBCT_create</text>
</a>
</g>
</g>
<!-- Node7&#45;&gt;Node8 -->
<g id="edge7" class="edge">
<title>Node7&#45;&gt;Node8</title>
<path fill="none" stroke="midnightblue" d="M757.74,-837C778.13,-837 800.11,-837 819.07,-837"/>
<polygon fill="midnightblue" stroke="midnightblue" points="819.26,-840.5 829.26,-837 819.26,-833.5 819.26,-840.5"/>
</g>
<!-- Node10 -->
<g id="node10" class="node">
<title>Node10</title>
<g id="a_node10"><a xlink:href="driver__super_8c.html#ad1bdc8947460e5efe01f9970684d06dc" target="_top" xlink:title=" ">
<polygon fill="white" stroke="black" points="436.5,-778 436.5,-808 551.5,-808 551.5,-778 436.5,-778"/>
<text text-anchor="start" x="444.5" y="-796" font-family="Helvetica,sans-Serif" font-size="10.00">DS_validate_stream</text>
<text text-anchor="middle" x="494" y="-785" font-family="Helvetica,sans-Serif" font-size="10.00">_config_</text>
</a>
</g>
</g>
<!-- Node9&#45;&gt;Node10 -->
<g id="edge10" class="edge">
<title>Node9&#45;&gt;Node10</title>
<path fill="none" stroke="midnightblue" d="M365.11,-793C384.3,-793 406.11,-793 426.22,-793"/>
<polygon fill="midnightblue" stroke="midnightblue" points="426.25,-796.5 436.25,-793 426.25,-789.5 426.25,-796.5"/>
</g>
<!-- Node12 -->
<g id="node12" class="node">
<title>Node12</title>
<g id="a_node12"><a xlink:href="gs_8c.html#a77d8b5e22b2b2615c9046060e50a3308" target="_top" xlink:title="上記初期化の共通部分をまとめた関数">
<polygon fill="white" stroke="black" points="245,-542 245,-572 375,-572 375,-542 245,-542"/>
<text text-anchor="start" x="253" y="-560" font-family="Helvetica,sans-Serif" font-size="10.00">GS_load_default_driver</text>
<text text-anchor="middle" x="310" y="-549" font-family="Helvetica,sans-Serif" font-size="10.00">_super_init_settings_</text>
</a>
</g>
</g>
<!-- Node11&#45;&gt;Node12 -->
<g id="edge12" class="edge">
<title>Node11&#45;&gt;Node12</title>
<path fill="none" stroke="midnightblue" d="M198.31,-590.9C214.66,-585.89 233.02,-580.27 250.03,-575.06"/>
<polygon fill="midnightblue" stroke="midnightblue" points="251.32,-578.33 259.85,-572.05 249.27,-571.63 251.32,-578.33"/>
</g>
<!-- Node13 -->
<g id="node13" class="node">
<title>Node13</title>
<g id="a_node13"><a xlink:href="driver__super_8c.html#af0c2601f37b24ce4a3bc94a525a80621" target="_top" xlink:title=" ">
<polygon fill="white" stroke="black" points="453.5,-739.5 453.5,-758.5 534.5,-758.5 534.5,-739.5 453.5,-739.5"/>
<text text-anchor="middle" x="494" y="-746.5" font-family="Helvetica,sans-Serif" font-size="10.00">DSSC_enable</text>
</a>
</g>
</g>
<!-- Node12&#45;&gt;Node13 -->
<g id="edge13" class="edge">
<title>Node12&#45;&gt;Node13</title>
<path fill="none" stroke="midnightblue" d="M315.32,-572.15C325.75,-605.93 355.66,-687.65 411,-729 420.35,-735.99 431.82,-740.56 443.19,-743.55"/>
<polygon fill="midnightblue" stroke="midnightblue" points="442.57,-747 453.1,-745.79 444.11,-740.17 442.57,-747"/>
</g>
<!-- Node14 -->
<g id="node14" class="node">
<title>Node14</title>
<g id="a_node14"><a xlink:href="driver__super_8c.html#a093a693ceac26a42fe3157cae06259ac" target="_top" xlink:title=" ">
<polygon fill="white" stroke="black" points="438.5,-690 438.5,-720 549.5,-720 549.5,-690 438.5,-690"/>
<text text-anchor="start" x="446.5" y="-708" font-family="Helvetica,sans-Serif" font-size="10.00">DSSC_enable_strict</text>
<text text-anchor="middle" x="494" y="-697" font-family="Helvetica,sans-Serif" font-size="10.00">_frame_search</text>
</a>
</g>
</g>
<!-- Node12&#45;&gt;Node14 -->
<g id="edge14" class="edge">
<title>Node12&#45;&gt;Node14</title>
<path fill="none" stroke="midnightblue" d="M319.33,-572.31C334.26,-598.33 368.07,-651.13 411,-680 416.56,-683.74 422.7,-686.94 429.04,-689.67"/>
<polygon fill="midnightblue" stroke="midnightblue" points="427.85,-692.96 438.44,-693.34 430.4,-686.44 427.85,-692.96"/>
</g>
<!-- Node15 -->
<g id="node15" class="node">
<title>Node15</title>
<g id="a_node15"><a xlink:href="driver__super_8c.html#ad65037ea9639ef7c8ade47c1c54bbf2e" target="_top" xlink:title=" ">
<polygon fill="white" stroke="black" points="425.5,-651.5 425.5,-670.5 562.5,-670.5 562.5,-651.5 425.5,-651.5"/>
<text text-anchor="middle" x="494" y="-658.5" font-family="Helvetica,sans-Serif" font-size="10.00">DSSC_set_data_analyzer</text>
</a>
</g>
</g>
<!-- Node12&#45;&gt;Node15 -->
<g id="edge15" class="edge">
<title>Node12&#45;&gt;Node15</title>
<path fill="none" stroke="midnightblue" d="M324.31,-572.09C342.11,-591.32 375.58,-624.18 411,-642 415.81,-644.42 420.94,-646.54 426.19,-648.39"/>
<polygon fill="midnightblue" stroke="midnightblue" points="425.15,-651.73 435.74,-651.45 427.28,-645.07 425.15,-651.73"/>
</g>
<!-- Node16 -->
<g id="node16" class="node">
<title>Node16</title>
<g id="a_node16"><a xlink:href="driver__super_8c.html#a257d3e5ef0b2a07401bc30641d50b69a" target="_top" xlink:title=" ">
<polygon fill="white" stroke="black" points="425.5,-613.5 425.5,-632.5 562.5,-632.5 562.5,-613.5 425.5,-613.5"/>
<text text-anchor="middle" x="494" y="-620.5" font-family="Helvetica,sans-Serif" font-size="10.00">DSSC_set_rx_frame_size</text>
</a>
</g>
</g>
<!-- Node12&#45;&gt;Node16 -->
<g id="edge16" class="edge">
<title>Node12&#45;&gt;Node16</title>
<path fill="none" stroke="midnightblue" d="M340.14,-572.21C359.77,-582 386.46,-594.45 411,-603 419.34,-605.91 428.31,-608.55 437.14,-610.9"/>
<polygon fill="midnightblue" stroke="midnightblue" points="436.45,-614.34 447.01,-613.42 438.18,-607.56 436.45,-614.34"/>
</g>
<!-- Node17 -->
<g id="node17" class="node">
<title>Node17</title>
<g id="a_node17"><a xlink:href="driver__super_8c.html#a9869582a20b5ae6e1d3014a3ced86e56" target="_top" xlink:title=" ">
<polygon fill="white" stroke="black" points="422.5,-564 422.5,-594 565.5,-594 565.5,-564 422.5,-564"/>
<text text-anchor="start" x="430.5" y="-582" font-family="Helvetica,sans-Serif" font-size="10.00">DSSC_set_rx_framelength</text>
<text text-anchor="middle" x="494" y="-571" font-family="Helvetica,sans-Serif" font-size="10.00">_offset</text>
</a>
</g>
</g>
<!-- Node12&#45;&gt;Node17 -->
<g id="edge17" class="edge">
<title>Node12&#45;&gt;Node17</title>
<path fill="none" stroke="midnightblue" d="M375.17,-564.76C387.08,-566.2 399.67,-567.72 412.01,-569.21"/>
<polygon fill="midnightblue" stroke="midnightblue" points="411.94,-572.73 422.29,-570.45 412.78,-565.78 411.94,-572.73"/>
</g>
<!-- Node18 -->
<g id="node18" class="node">
<title>Node18</title>
<g id="a_node18"><a xlink:href="driver__super_8c.html#af10516ffc854cff7493ca94b1f980c78" target="_top" xlink:title=" ">
<polygon fill="white" stroke="black" points="411,-525.5 411,-544.5 577,-544.5 577,-525.5 411,-525.5"/>
<text text-anchor="middle" x="494" y="-532.5" font-family="Helvetica,sans-Serif" font-size="10.00">DSSC_set_rx_framelength_pos</text>
</a>
</g>
</g>
<!-- Node12&#45;&gt;Node18 -->
<g id="edge18" class="edge">
<title>Node12&#45;&gt;Node18</title>
<path fill="none" stroke="midnightblue" d="M375.17,-549.24C384.51,-548.11 394.27,-546.93 403.99,-545.76"/>
<polygon fill="midnightblue" stroke="midnightblue" points="404.59,-549.21 414.1,-544.54 403.75,-542.26 404.59,-549.21"/>
</g>
<!-- Node19 -->
<g id="node19" class="node">
<title>Node19</title>
<g id="a_node19"><a xlink:href="driver__super_8c.html#a2791854c5a460d3970eff9f6c9d5c862" target="_top" xlink:title=" ">
<polygon fill="white" stroke="black" points="422.5,-476 422.5,-506 565.5,-506 565.5,-476 422.5,-476"/>
<text text-anchor="start" x="430.5" y="-494" font-family="Helvetica,sans-Serif" font-size="10.00">DSSC_set_rx_framelength</text>
<text text-anchor="middle" x="494" y="-483" font-family="Helvetica,sans-Serif" font-size="10.00">_type_size</text>
</a>
</g>
</g>
<!-- Node12&#45;&gt;Node19 -->
<g id="edge19" class="edge">
<title>Node12&#45;&gt;Node19</title>
<path fill="none" stroke="midnightblue" d="M345.4,-541.97C364.55,-533.84 388.91,-523.88 411,-516 417.5,-513.68 424.33,-511.38 431.17,-509.18"/>
<polygon fill="midnightblue" stroke="midnightblue" points="432.67,-512.37 441.14,-506.01 430.55,-505.7 432.67,-512.37"/>
</g>
<!-- Node20 -->
<g id="node20" class="node">
<title>Node20</title>
<g id="a_node20"><a xlink:href="driver__super_8c.html#ac08f8c480a922624b49921ed953f71be" target="_top" xlink:title=" ">
<polygon fill="white" stroke="black" points="435.5,-437.5 435.5,-456.5 552.5,-456.5 552.5,-437.5 435.5,-437.5"/>
<text text-anchor="middle" x="494" y="-444.5" font-family="Helvetica,sans-Serif" font-size="10.00">DSSC_set_rx_header</text>
</a>
</g>
</g>
<!-- Node12&#45;&gt;Node20 -->
<g id="edge20" class="edge">
<title>Node12&#45;&gt;Node20</title>
<path fill="none" stroke="midnightblue" d="M323.18,-541.86C340.49,-521.41 374.2,-485.3 411,-466 415.57,-463.6 420.45,-461.5 425.45,-459.67"/>
<polygon fill="midnightblue" stroke="midnightblue" points="426.79,-462.91 435.19,-456.45 424.6,-456.26 426.79,-462.91"/>
</g>
<!-- Node21 -->
<g id="node21" class="node">
<title>Node21</title>
<g id="a_node21"><a xlink:href="driver__super_8c.html#a42c80644b6772ae2596e20b75804c0c3" target="_top" xlink:title=" ">
<polygon fill="white" stroke="black" points="437.5,-399.5 437.5,-418.5 550.5,-418.5 550.5,-399.5 437.5,-399.5"/>
<text text-anchor="middle" x="494" y="-406.5" font-family="Helvetica,sans-Serif" font-size="10.00">DSSC_set_tx_frame</text>
</a>
</g>
</g>
<!-- Node12&#45;&gt;Node21 -->
<g id="edge21" class="edge">
<title>Node12&#45;&gt;Node21</title>
<path fill="none" stroke="midnightblue" d="M318.25,-541.92C332.19,-514.63 365.42,-457.19 411,-428 416.05,-424.77 421.58,-422.09 427.31,-419.86"/>
<polygon fill="midnightblue" stroke="midnightblue" points="428.77,-423.06 437.1,-416.52 426.51,-416.43 428.77,-423.06"/>
</g>
<!-- Node22 -->
<g id="node22" class="node">
<title>Node22</title>
<g id="a_node22"><a xlink:href="driver__super_8c.html#a9907f5844f74f6b8218993911bdc2735" target="_top" xlink:title=" ">
<polygon fill="white" stroke="black" points="425.5,-361.5 425.5,-380.5 562.5,-380.5 562.5,-361.5 425.5,-361.5"/>
<text text-anchor="middle" x="494" y="-368.5" font-family="Helvetica,sans-Serif" font-size="10.00">DSSC_set_tx_frame_size</text>
</a>
</g>
</g>
<!-- Node12&#45;&gt;Node22 -->
<g id="edge22" class="edge">
<title>Node12&#45;&gt;Node22</title>
<path fill="none" stroke="midnightblue" d="M315.5,-541.99C326.21,-508.94 356.5,-429.69 411,-390 413.66,-388.06 416.48,-386.32 419.42,-384.75"/>
<polygon fill="midnightblue" stroke="midnightblue" points="420.92,-387.92 428.54,-380.56 418,-381.56 420.92,-387.92"/>
</g>
<!-- Node23 -->
<g id="node23" class="node">
<title>Node23</title>
<g id="a_node23"><a xlink:href="gs_8c.html#a71a6268f1b467c60429c671e47e51e1d" target="_top" xlink:title="地上からの受信データ解析関数">
<polygon fill="white" stroke="black" points="431,-323.5 431,-342.5 557,-342.5 557,-323.5 431,-323.5"/>
<text text-anchor="middle" x="494" y="-330.5" font-family="Helvetica,sans-Serif" font-size="10.00">GS_analyze_rec_data_</text>
</a>
</g>
</g>
<!-- Node12&#45;&gt;Node23 -->
<g id="edge23" class="edge">
<title>Node12&#45;&gt;Node23</title>
<path fill="none" stroke="midnightblue" d="M313.76,-541.85C321.57,-503.6 347.49,-402.56 411,-352 414.19,-349.46 417.66,-347.25 421.3,-345.33"/>
<polygon fill="midnightblue" stroke="midnightblue" points="423,-348.4 430.68,-341.11 420.13,-342.02 423,-348.4"/>
</g>
<!-- Node24 -->
<g id="node24" class="node">
<title>Node24</title>
<g id="a_node24"><a xlink:href="driver__super_8c.html#adf1f7d5bc6090bf72962786be28d0b9d" target="_top" xlink:title=" ">
<polygon fill="white" stroke="black" points="632.5,-361.5 632.5,-380.5 745.5,-380.5 745.5,-361.5 632.5,-361.5"/>
<text text-anchor="middle" x="689" y="-368.5" font-family="Helvetica,sans-Serif" font-size="10.00">DSSC_get_rx_frame</text>
</a>
</g>
</g>
<!-- Node23&#45;&gt;Node24 -->
<g id="edge24" class="edge">
<title>Node23&#45;&gt;Node24</title>
<path fill="none" stroke="midnightblue" d="M543.7,-342.59C569.86,-347.74 602.28,-354.12 629.77,-359.53"/>
<polygon fill="midnightblue" stroke="midnightblue" points="629.16,-362.98 639.65,-361.48 630.51,-356.11 629.16,-362.98"/>
</g>
<!-- Node25 -->
<g id="node25" class="node">
<title>Node25</title>
<g id="a_node25"><a xlink:href="gs__validate_8c.html#a9e8584656da1d94102639deb6702179e" target="_top" xlink:title="tc_frame の検証">
<polygon fill="white" stroke="black" points="627,-323.5 627,-342.5 751,-342.5 751,-323.5 627,-323.5"/>
<text text-anchor="middle" x="689" y="-330.5" font-family="Helvetica,sans-Serif" font-size="10.00">GS_validate_tc_frame</text>
</a>
</g>
</g>
<!-- Node23&#45;&gt;Node25 -->
<g id="edge25" class="edge">
<title>Node23&#45;&gt;Node25</title>
<path fill="none" stroke="midnightblue" d="M557.13,-333C576.18,-333 597.28,-333 616.88,-333"/>
<polygon fill="midnightblue" stroke="midnightblue" points="616.98,-336.5 626.98,-333 616.98,-329.5 616.98,-336.5"/>
</g>
<!-- Node45 -->
<g id="node38" class="node">
<title>Node45</title>
<g id="a_node38"><a xlink:href="packet__handler_8c.html#acf757fa72967bf66b39dc5ced7132330" target="_top" xlink:title=" ">
<polygon fill="white" stroke="black" points="633.5,-133.5 633.5,-152.5 744.5,-152.5 744.5,-133.5 633.5,-133.5"/>
<text text-anchor="middle" x="689" y="-140.5" font-family="Helvetica,sans-Serif" font-size="10.00">PH_analyze_packet</text>
</a>
</g>
</g>
<!-- Node23&#45;&gt;Node45 -->
<g id="edge39" class="edge">
<title>Node23&#45;&gt;Node45</title>
<path fill="none" stroke="midnightblue" d="M504.84,-323.32C535.74,-292.9 631.16,-198.96 670.63,-160.1"/>
<polygon fill="midnightblue" stroke="midnightblue" points="673.28,-162.4 677.95,-152.89 668.37,-157.41 673.28,-162.4"/>
</g>
<!-- Node26 -->
<g id="node26" class="node">
<title>Node26</title>
<g id="a_node26"><a xlink:href="gs__validate_8c.html#aaf57603b3217830c620f10440ff700df" target="_top" xlink:title=" ">
<polygon fill="white" stroke="black" points="813,-456.5 813,-475.5 926,-475.5 926,-456.5 813,-456.5"/>
<text text-anchor="middle" x="869.5" y="-463.5" font-family="Helvetica,sans-Serif" font-size="10.00">GS_check_ad_cmd_</text>
</a>
</g>
</g>
<!-- Node25&#45;&gt;Node26 -->
<g id="edge26" class="edge">
<title>Node25&#45;&gt;Node26</title>
<path fill="none" stroke="midnightblue" d="M750.41,-342.59C755.71,-345.07 760.69,-348.16 765,-352 798.7,-382.05 767.7,-416.51 801,-447 802.71,-448.57 804.55,-450.01 806.47,-451.33"/>
<polygon fill="midnightblue" stroke="midnightblue" points="805,-454.52 815.43,-456.41 808.46,-448.43 805,-454.52"/>
</g>
<!-- Node37 -->
<g id="node30" class="node">
<title>Node37</title>
<g id="a_node30"><a xlink:href="gs__validate_8c.html#a84b7f68b65ac893636653398012a7866" target="_top" xlink:title=" ">
<polygon fill="white" stroke="black" points="813.5,-418.5 813.5,-437.5 925.5,-437.5 925.5,-418.5 813.5,-418.5"/>
<text text-anchor="middle" x="869.5" y="-425.5" font-family="Helvetica,sans-Serif" font-size="10.00">GS_check_bc_cmd_</text>
</a>
</g>
</g>
<!-- Node25&#45;&gt;Node37 -->
<g id="edge30" class="edge">
<title>Node25&#45;&gt;Node37</title>
<path fill="none" stroke="midnightblue" d="M747.36,-342.6C753.64,-345.05 759.67,-348.13 765,-352 789.25,-369.6 776.98,-391.08 801,-409 803.51,-410.87 806.19,-412.55 808.98,-414.07"/>
<polygon fill="midnightblue" stroke="midnightblue" points="807.69,-417.33 818.24,-418.38 810.65,-410.99 807.69,-417.33"/>
</g>
<!-- Node38 -->
<g id="node31" class="node">
<title>Node38</title>
<g id="a_node31"><a xlink:href="gs__validate_8c.html#ade886529947636f12095d299135cbfde" target="_top" xlink:title=" ">
<polygon fill="white" stroke="black" points="813,-380.5 813,-399.5 926,-399.5 926,-380.5 813,-380.5"/>
<text text-anchor="middle" x="869.5" y="-387.5" font-family="Helvetica,sans-Serif" font-size="10.00">GS_check_bd_cmd_</text>
</a>
</g>
</g>
<!-- Node25&#45;&gt;Node38 -->
<g id="edge31" class="edge">
<title>Node25&#45;&gt;Node38</title>
<path fill="none" stroke="midnightblue" d="M734.96,-342.54C744.99,-345.18 755.47,-348.34 765,-352 781.89,-358.49 784.2,-364.29 801,-371 806.86,-373.34 813.12,-375.51 819.37,-377.49"/>
<polygon fill="midnightblue" stroke="midnightblue" points="818.54,-380.9 829.13,-380.43 820.56,-374.19 818.54,-380.9"/>
</g>
<!-- Node39 -->
<g id="node32" class="node">
<title>Node39</title>
<g id="a_node32"><a xlink:href="gs__validate_8c.html#a5660d6b01f6459cbe6c2e284f1b45891" target="_top" xlink:title=" ">
<polygon fill="white" stroke="black" points="820.5,-342.5 820.5,-361.5 918.5,-361.5 918.5,-342.5 820.5,-342.5"/>
<text text-anchor="middle" x="869.5" y="-349.5" font-family="Helvetica,sans-Serif" font-size="10.00">GS_check_fecw_</text>
</a>
</g>
</g>
<!-- Node25&#45;&gt;Node39 -->
<g id="edge33" class="edge">
<title>Node25&#45;&gt;Node39</title>
<path fill="none" stroke="midnightblue" d="M751.43,-339.54C770.58,-341.58 791.62,-343.82 810.53,-345.83"/>
<polygon fill="midnightblue" stroke="midnightblue" points="810.17,-349.31 820.49,-346.89 810.92,-342.35 810.17,-349.31"/>
</g>
<!-- Node40 -->
<g id="node33" class="node">
<title>Node40</title>
<g id="a_node33"><a xlink:href="gs__validate_8c.html#a74139046c9d543e8106484acdeecb8d3" target="_top" xlink:title=" ">
<polygon fill="white" stroke="black" points="806.5,-304.5 806.5,-323.5 932.5,-323.5 932.5,-304.5 806.5,-304.5"/>
<text text-anchor="middle" x="869.5" y="-311.5" font-family="Helvetica,sans-Serif" font-size="10.00">GS_check_tcf_header_</text>
</a>
</g>
</g>
<!-- Node25&#45;&gt;Node40 -->
<g id="edge34" class="edge">
<title>Node25&#45;&gt;Node40</title>
<path fill="none" stroke="midnightblue" d="M751.43,-326.46C765.85,-324.93 781.35,-323.28 796.2,-321.7"/>
<polygon fill="midnightblue" stroke="midnightblue" points="796.78,-325.15 806.35,-320.62 796.04,-318.19 796.78,-325.15"/>
</g>
<!-- Node43 -->
<g id="node36" class="node">
<title>Node43</title>
<g id="a_node36"><a xlink:href="_t_c_frame_8c.html#a51c2ff49351bbe9db73730fe65c93233" target="_top" xlink:title=" ">
<polygon fill="white" stroke="black" points="814.5,-266.5 814.5,-285.5 924.5,-285.5 924.5,-266.5 814.5,-266.5"/>
<text text-anchor="middle" x="869.5" y="-273.5" font-family="Helvetica,sans-Serif" font-size="10.00">TCF_get_frame_len</text>
</a>
</g>
</g>
<!-- Node25&#45;&gt;Node43 -->
<g id="edge37" class="edge">
<title>Node25&#45;&gt;Node43</title>
<path fill="none" stroke="midnightblue" d="M716.78,-323.37C739.18,-315.42 772.02,-304.03 801,-295 808.19,-292.76 815.85,-290.49 823.33,-288.34"/>
<polygon fill="midnightblue" stroke="midnightblue" points="824.35,-291.69 833.01,-285.59 822.43,-284.96 824.35,-291.69"/>
</g>
<!-- Node44 -->
<g id="node37" class="node">
<title>Node44</title>
<g id="a_node37"><a xlink:href="_t_c_frame_8c.html#a8a5d82abf326db4fbaf4b8acfafda642" target="_top" xlink:title=" ">
<polygon fill="white" stroke="black" points="828,-228.5 828,-247.5 911,-247.5 911,-228.5 828,-228.5"/>
<text text-anchor="middle" x="869.5" y="-235.5" font-family="Helvetica,sans-Serif" font-size="10.00">TCF_get_type</text>
</a>
</g>
</g>
<!-- Node25&#45;&gt;Node44 -->
<g id="edge38" class="edge">
<title>Node25&#45;&gt;Node44</title>
<path fill="none" stroke="midnightblue" d="M701.22,-323.44C720.45,-307.52 761.44,-275.5 801,-257 806.37,-254.49 812.14,-252.25 817.96,-250.26"/>
<polygon fill="midnightblue" stroke="midnightblue" points="819.27,-253.52 827.75,-247.16 817.16,-246.84 819.27,-253.52"/>
</g>
<!-- Node27 -->
<g id="node27" class="node">
<title>Node27</title>
<g id="a_node27"><a xlink:href="gs__validate_8c.html#a2d851e14b61c170707282426f1a3d822" target="_top" xlink:title=" ">
<polygon fill="white" stroke="red" points="977,-380.5 977,-399.5 1111,-399.5 1111,-380.5 977,-380.5"/>
<text text-anchor="middle" x="1044" y="-387.5" font-family="Helvetica,sans-Serif" font-size="10.00">GS_check_tcf_contents_</text>
</a>
</g>
</g>
<!-- Node26&#45;&gt;Node27 -->
<g id="edge27" class="edge">
<title>Node26&#45;&gt;Node27</title>
<path fill="none" stroke="midnightblue" d="M910.26,-456.4C919.5,-453.73 929.2,-450.57 938,-447 967,-435.22 998.29,-417.52 1019.1,-404.98"/>
<polygon fill="midnightblue" stroke="midnightblue" points="1021.17,-407.82 1027.87,-399.62 1017.52,-401.84 1021.17,-407.82"/>
</g>
<!-- Node36 -->
<g id="node29" class="node">
<title>Node36</title>
<g id="a_node29"><a xlink:href="_t_c_frame_8c.html#ae24783beaa1ebc5af4b55c18fb7673b4" target="_top" xlink:title=" ">
<polygon fill="white" stroke="black" points="974,-456.5 974,-475.5 1114,-475.5 1114,-456.5 974,-456.5"/>
<text text-anchor="middle" x="1044" y="-463.5" font-family="Helvetica,sans-Serif" font-size="10.00">TCF_get_frame_seq_num</text>
</a>
</g>
</g>
<!-- Node26&#45;&gt;Node36 -->
<g id="edge29" class="edge">
<title>Node26&#45;&gt;Node36</title>
<path fill="none" stroke="midnightblue" d="M926.03,-466C938.08,-466 951.04,-466 963.8,-466"/>
<polygon fill="midnightblue" stroke="midnightblue" points="963.97,-469.5 973.97,-466 963.97,-462.5 963.97,-469.5"/>
</g>
<!-- Node35 -->
<g id="node28" class="node">
<title>Node35</title>
<g id="a_node28"><a xlink:href="_t_c_packet_8c.html#aeef51e70e41085a34fe5c6629d3cc2ae" target="_top" xlink:title="TCP type を取得">
<polygon fill="white" stroke="black" points="1150,-190.5 1150,-209.5 1233,-209.5 1233,-190.5 1150,-190.5"/>
<text text-anchor="middle" x="1191.5" y="-197.5" font-family="Helvetica,sans-Serif" font-size="10.00">TCP_get_type</text>
</a>
</g>
</g>
<!-- Node27&#45;&gt;Node35 -->
<g id="edge28" class="edge">
<title>Node27&#45;&gt;Node35</title>
<path fill="none" stroke="midnightblue" d="M1070.39,-380.45C1084.6,-374.11 1101.85,-364.61 1114,-352 1151.96,-312.61 1175.03,-250.68 1184.89,-219.42"/>
<polygon fill="midnightblue" stroke="midnightblue" points="1188.27,-220.32 1187.83,-209.73 1181.58,-218.29 1188.27,-220.32"/>
</g>
<!-- Node38&#45;&gt;Node27 -->
<g id="edge32" class="edge">
<title>Node38&#45;&gt;Node27</title>
<path fill="none" stroke="midnightblue" d="M926.03,-390C938.9,-390 952.82,-390 966.42,-390"/>
<polygon fill="midnightblue" stroke="midnightblue" points="966.73,-393.5 976.73,-390 966.73,-386.5 966.73,-393.5"/>
</g>
<!-- Node41 -->
<g id="node34" class="node">
<title>Node41</title>
<g id="a_node34"><a xlink:href="_t_c_frame_8c.html#a5f478a4f679efc9097899d4807bdf14a" target="_top" xlink:title=" ">
<polygon fill="white" stroke="black" points="1003.5,-323.5 1003.5,-342.5 1084.5,-342.5 1084.5,-323.5 1003.5,-323.5"/>
<text text-anchor="middle" x="1044" y="-330.5" font-family="Helvetica,sans-Serif" font-size="10.00">TCF_get_vcid</text>
</a>
</g>
</g>
<!-- Node40&#45;&gt;Node41 -->
<g id="edge35" class="edge">
<title>Node40&#45;&gt;Node41</title>
<path fill="none" stroke="midnightblue" d="M932.78,-320.86C952.64,-323.05 974.36,-325.44 993.22,-327.52"/>
<polygon fill="midnightblue" stroke="midnightblue" points="993.05,-331.02 1003.37,-328.64 993.81,-324.06 993.05,-331.02"/>
</g>
<!-- Node42 -->
<g id="node35" class="node">
<title>Node42</title>
<g id="a_node35"><a xlink:href="_t_c_frame_8c.html#ad8eb293e8d4ba07d2e7a63a1f0a427a9" target="_top" xlink:title=" ">
<polygon fill="white" stroke="black" points="1005.5,-285.5 1005.5,-304.5 1082.5,-304.5 1082.5,-285.5 1005.5,-285.5"/>
<text text-anchor="middle" x="1044" y="-292.5" font-family="Helvetica,sans-Serif" font-size="10.00">TCF_get_ver</text>
</a>
</g>
</g>
<!-- Node40&#45;&gt;Node42 -->
<g id="edge36" class="edge">
<title>Node40&#45;&gt;Node42</title>
<path fill="none" stroke="midnightblue" d="M932.78,-307.14C953.39,-304.87 975.99,-302.38 995.33,-300.25"/>
<polygon fill="midnightblue" stroke="midnightblue" points="995.85,-303.71 1005.41,-299.14 995.09,-296.76 995.85,-303.71"/>
</g>
<!-- Node46 -->
<g id="node39" class="node">
<title>Node46</title>
<g id="a_node39"><a xlink:href="common__tlm__cmd__packet_8h.html#a8da8d74ab0cb68ef9a902267ad27c0a6" target="_top" xlink:title="CTCP を CCP に変換（キャスト）">
<polygon fill="white" stroke="black" points="809.5,-190.5 809.5,-209.5 929.5,-209.5 929.5,-190.5 809.5,-190.5"/>
<text text-anchor="middle" x="869.5" y="-197.5" font-family="Helvetica,sans-Serif" font-size="10.00">CTCP_convert_to_ccp</text>
</a>
</g>
</g>
<!-- Node45&#45;&gt;Node46 -->
<g id="edge40" class="edge">
<title>Node45&#45;&gt;Node46</title>
<path fill="none" stroke="midnightblue" d="M716.78,-152.63C739.18,-160.58 772.02,-171.97 801,-181 808.19,-183.24 815.85,-185.51 823.33,-187.66"/>
<polygon fill="midnightblue" stroke="midnightblue" points="822.43,-191.04 833.01,-190.41 824.35,-184.31 822.43,-191.04"/>
</g>
<!-- Node48 -->
<g id="node41" class="node">
<title>Node48</title>
<g id="a_node41"><a xlink:href="common__tlm__cmd__packet_8h.html#a1c40672d250b1a18b2f130f353659b5a" target="_top" xlink:title="CTCP を CTP に変換（キャスト）">
<polygon fill="white" stroke="black" points="810,-152.5 810,-171.5 929,-171.5 929,-152.5 810,-152.5"/>
<text text-anchor="middle" x="869.5" y="-159.5" font-family="Helvetica,sans-Serif" font-size="10.00">CTCP_convert_to_ctp</text>
</a>
</g>
</g>
<!-- Node45&#45;&gt;Node48 -->
<g id="edge43" class="edge">
<title>Node45&#45;&gt;Node48</title>
<path fill="none" stroke="midnightblue" d="M744.53,-148.8C762,-150.66 781.58,-152.75 799.92,-154.7"/>
<polygon fill="midnightblue" stroke="midnightblue" points="799.65,-158.19 809.97,-155.77 800.39,-151.23 799.65,-158.19"/>
</g>
<!-- Node49 -->
<g id="node42" class="node">
<title>Node49</title>
<g id="a_node42"><a xlink:href="common__tlm__cmd__packet_8h.html#a86d9338ea5a11fafb41cf5ad00ee16c3" target="_top" xlink:title="tlm か cmd かを判断">
<polygon fill="white" stroke="black" points="980.5,-152.5 980.5,-171.5 1107.5,-171.5 1107.5,-152.5 980.5,-152.5"/>
<text text-anchor="middle" x="1044" y="-159.5" font-family="Helvetica,sans-Serif" font-size="10.00">CTCP_get_packet_type</text>
</a>
</g>
</g>
<!-- Node45&#45;&gt;Node49 -->
<g id="edge45" class="edge">
<title>Node45&#45;&gt;Node49</title>
<path fill="none" stroke="midnightblue" d="M744.8,-140.2C795.13,-138.28 871.75,-137.05 938,-143 955.11,-144.54 973.61,-147.45 990.24,-150.55"/>
<polygon fill="midnightblue" stroke="midnightblue" points="989.84,-154.04 1000.32,-152.49 991.16,-147.16 989.84,-154.04"/>
</g>
<!-- Node50 -->
<g id="node43" class="node">
<title>Node50</title>
<g id="a_node43"><a xlink:href="packet__handler_8c.html#a259f5d964fe8b69ab11a54c0325be9d5" target="_top" xlink:title=" ">
<polygon fill="white" stroke="red" points="801,-76.5 801,-95.5 938,-95.5 938,-76.5 801,-76.5"/>
<text text-anchor="middle" x="869.5" y="-83.5" font-family="Helvetica,sans-Serif" font-size="10.00">PH_analyze_cmd_packet</text>
</a>
</g>
</g>
<!-- Node45&#45;&gt;Node50 -->
<g id="edge47" class="edge">
<title>Node45&#45;&gt;Node50</title>
<path fill="none" stroke="midnightblue" d="M719.88,-133.46C749.74,-123.92 795.83,-109.21 828.76,-98.69"/>
<polygon fill="midnightblue" stroke="midnightblue" points="830.06,-101.95 838.53,-95.57 827.93,-95.28 830.06,-101.95"/>
</g>
<!-- Node95 -->
<g id="node48" class="node">
<title>Node95</title>
<g id="a_node48"><a xlink:href="packet__handler_8c.html#ab5cf7bd4c406c85194969f2284402121" target="_top" xlink:title=" ">
<polygon fill="white" stroke="red" points="803,-38.5 803,-57.5 936,-57.5 936,-38.5 803,-38.5"/>
<text text-anchor="middle" x="869.5" y="-45.5" font-family="Helvetica,sans-Serif" font-size="10.00">PH_analyze_tlm_packet</text>
</a>
</g>
</g>
<!-- Node45&#45;&gt;Node95 -->
<g id="edge52" class="edge">
<title>Node45&#45;&gt;Node95</title>
<path fill="none" stroke="midnightblue" d="M701.22,-133.44C720.45,-117.52 761.44,-85.5 801,-67 805.96,-64.68 811.27,-62.59 816.64,-60.72"/>
<polygon fill="midnightblue" stroke="midnightblue" points="817.88,-63.99 826.32,-57.58 815.73,-57.33 817.88,-63.99"/>
</g>
<!-- Node47 -->
<g id="node40" class="node">
<title>Node47</title>
<g id="a_node40"><a xlink:href="common__tlm__cmd__packet_8c.html#a86d9338ea5a11fafb41cf5ad00ee16c3" target="_top" xlink:title="tlm か cmd かを判断">
<polygon fill="white" stroke="black" points="980.5,-190.5 980.5,-209.5 1107.5,-209.5 1107.5,-190.5 980.5,-190.5"/>
<text text-anchor="middle" x="1044" y="-197.5" font-family="Helvetica,sans-Serif" font-size="10.00">CTCP_get_packet_type</text>
</a>
</g>
</g>
<!-- Node46&#45;&gt;Node47 -->
<g id="edge41" class="edge">
<title>Node46&#45;&gt;Node47</title>
<path fill="none" stroke="midnightblue" d="M929.86,-200C942.83,-200 956.7,-200 970.13,-200"/>
<polygon fill="midnightblue" stroke="midnightblue" points="970.29,-203.5 980.29,-200 970.29,-196.5 970.29,-203.5"/>
</g>
<!-- Node47&#45;&gt;Node35 -->
<g id="edge42" class="edge">
<title>Node47&#45;&gt;Node35</title>
<path fill="none" stroke="midnightblue" d="M1107.55,-200C1118.29,-200 1129.34,-200 1139.73,-200"/>
<polygon fill="midnightblue" stroke="midnightblue" points="1139.86,-203.5 1149.86,-200 1139.86,-196.5 1139.86,-203.5"/>
</g>
<!-- Node48&#45;&gt;Node47 -->
<g id="edge44" class="edge">
<title>Node48&#45;&gt;Node47</title>
<path fill="none" stroke="midnightblue" d="M914.03,-171.59C937.1,-176.67 965.63,-182.96 989.98,-188.32"/>
<polygon fill="midnightblue" stroke="midnightblue" points="989.27,-191.75 999.78,-190.48 990.77,-184.91 989.27,-191.75"/>
</g>
<!-- Node49&#45;&gt;Node35 -->
<g id="edge46" class="edge">
<title>Node49&#45;&gt;Node35</title>
<path fill="none" stroke="midnightblue" d="M1081.72,-171.59C1100.66,-176.54 1123.96,-182.62 1144.13,-187.89"/>
<polygon fill="midnightblue" stroke="midnightblue" points="1143.49,-191.34 1154.05,-190.48 1145.26,-184.57 1143.49,-191.34"/>
</g>
<!-- Node51 -->
<g id="node44" class="node">
<title>Node51</title>
<g id="a_node44"><a xlink:href="common__cmd__packet_8h.html#a63dd7518abfbd0e6cedf6af2f376d854" target="_top" xlink:title="EXEC_TYPE を取得">
<polygon fill="white" stroke="red" points="988,-114.5 988,-133.5 1100,-133.5 1100,-114.5 988,-114.5"/>
<text text-anchor="middle" x="1044" y="-121.5" font-family="Helvetica,sans-Serif" font-size="10.00">CCP_get_exec_type</text>
</a>
</g>
</g>
<!-- Node50&#45;&gt;Node51 -->
<g id="edge48" class="edge">
<title>Node50&#45;&gt;Node51</title>
<path fill="none" stroke="midnightblue" d="M914.03,-95.59C937.1,-100.67 965.63,-106.96 989.98,-112.32"/>
<polygon fill="midnightblue" stroke="midnightblue" points="989.27,-115.75 999.78,-114.48 990.77,-108.91 989.27,-115.75"/>
</g>
<!-- Node53 -->
<g id="node45" class="node">
<title>Node53</title>
<g id="a_node45"><a xlink:href="packet__handler_8c.html#a7877bd048a812eccc6e5e32a48e4198d" target="_top" xlink:title=" ">
<polygon fill="white" stroke="red" points="993.5,-76.5 993.5,-95.5 1094.5,-95.5 1094.5,-76.5 993.5,-76.5"/>
<text text-anchor="middle" x="1044" y="-83.5" font-family="Helvetica,sans-Serif" font-size="10.00">PH_add_gs_cmd_</text>
</a>
</g>
</g>
<!-- Node50&#45;&gt;Node53 -->
<g id="edge49" class="edge">
<title>Node50&#45;&gt;Node53</title>
<path fill="none" stroke="midnightblue" d="M938.18,-86C952.99,-86 968.57,-86 983.05,-86"/>
<polygon fill="midnightblue" stroke="midnightblue" points="983.38,-89.5 993.38,-86 983.38,-82.5 983.38,-89.5"/>
</g>
<!-- Node56 -->
<g id="node46" class="node">
<title>Node56</title>
<g id="a_node46"><a xlink:href="packet__handler_8c.html#a8d281dc795ac227a6631832887234892" target="_top" xlink:title=" ">
<polygon fill="white" stroke="red" points="995,-38.5 995,-57.5 1093,-57.5 1093,-38.5 995,-38.5"/>
<text text-anchor="middle" x="1044" y="-45.5" font-family="Helvetica,sans-Serif" font-size="10.00">PH_add_rt_cmd_</text>
</a>
</g>
</g>
<!-- Node50&#45;&gt;Node56 -->
<g id="edge50" class="edge">
<title>Node50&#45;&gt;Node56</title>
<path fill="none" stroke="midnightblue" d="M914.03,-76.41C937.1,-71.33 965.63,-65.04 989.98,-59.68"/>
<polygon fill="midnightblue" stroke="midnightblue" points="990.77,-63.09 999.78,-57.52 989.27,-56.25 990.77,-63.09"/>
</g>
<!-- Node57 -->
<g id="node47" class="node">
<title>Node57</title>
<g id="a_node47"><a xlink:href="packet__handler_8c.html#a31e4fc656d51d4b675d88e6c023cc50e" target="_top" xlink:title=" ">
<polygon fill="white" stroke="red" points="995.5,-0.5 995.5,-19.5 1092.5,-19.5 1092.5,-0.5 995.5,-0.5"/>
<text text-anchor="middle" x="1044" y="-7.5" font-family="Helvetica,sans-Serif" font-size="10.00">PH_add_tl_cmd_</text>
</a>
</g>
</g>
<!-- Node50&#45;&gt;Node57 -->
<g id="edge51" class="edge">
<title>Node50&#45;&gt;Node57</title>
<path fill="none" stroke="midnightblue" d="M917.26,-76.41C924.48,-73.93 931.64,-70.84 938,-67 957.91,-54.97 954.05,-40.97 974,-29 977.66,-26.81 981.57,-24.86 985.61,-23.13"/>
<polygon fill="midnightblue" stroke="midnightblue" points="987.09,-26.31 995.2,-19.49 984.61,-19.77 987.09,-26.31"/>
</g>
<!-- Node101&#45;&gt;Node12 -->
<g id="edge54" class="edge">
<title>Node101&#45;&gt;Node12</title>
<path fill="none" stroke="midnightblue" d="M207.67,-557C216.48,-557 225.67,-557 234.75,-557"/>
<polygon fill="midnightblue" stroke="midnightblue" points="234.94,-560.5 244.94,-557 234.94,-553.5 234.94,-560.5"/>
</g>
</g>
</svg>
