<?xml version="1.0" encoding="UTF-8" standalone="no"?>
<!DOCTYPE svg PUBLIC "-//W3C//DTD SVG 1.1//EN"
 "http://www.w3.org/Graphics/SVG/1.1/DTD/svg11.dtd">
<!-- Generated by graphviz version 2.43.0 (0)
 -->
<!-- Title: GS_load_default_driver_super_init_settings_ Pages: 1 -->
<svg width="1014pt" height="1033pt"
 viewBox="0.00 0.00 1014.00 1033.00" xmlns="http://www.w3.org/2000/svg" xmlns:xlink="http://www.w3.org/1999/xlink">
<g id="graph0" class="graph" transform="scale(1 1) rotate(0) translate(4 1029)">
<title>GS_load_default_driver_super_init_settings_</title>
<polygon fill="white" stroke="transparent" points="-4,4 -4,-1029 1010,-1029 1010,4 -4,4"/>
<!-- Node1 -->
<g id="node1" class="node">
<title>Node1</title>
<g id="a_node1"><a xlink:title="上記初期化の共通部分をまとめた関数">
<polygon fill="#bfbfbf" stroke="black" points="0,-786 0,-816 130,-816 130,-786 0,-786"/>
<text text-anchor="start" x="8" y="-804" font-family="Helvetica,sans-Serif" font-size="10.00">GS_load_default_driver</text>
<text text-anchor="middle" x="65" y="-793" font-family="Helvetica,sans-Serif" font-size="10.00">_super_init_settings_</text>
</a>
</g>
</g>
<!-- Node2 -->
<g id="node2" class="node">
<title>Node2</title>
<g id="a_node2"><a xlink:href="driver__super_8c.html#af0c2601f37b24ce4a3bc94a525a80621" target="_top" xlink:title=" ">
<polygon fill="white" stroke="black" points="208.5,-1005.5 208.5,-1024.5 289.5,-1024.5 289.5,-1005.5 208.5,-1005.5"/>
<text text-anchor="middle" x="249" y="-1012.5" font-family="Helvetica,sans-Serif" font-size="10.00">DSSC_enable</text>
</a>
</g>
</g>
<!-- Node1&#45;&gt;Node2 -->
<g id="edge1" class="edge">
<title>Node1&#45;&gt;Node2</title>
<path fill="none" stroke="midnightblue" d="M69.19,-816.23C77.77,-853.25 104.95,-948.39 166,-996 175.27,-1003.23 186.81,-1007.79 198.28,-1010.65"/>
<polygon fill="midnightblue" stroke="midnightblue" points="197.77,-1014.12 208.28,-1012.74 199.21,-1007.27 197.77,-1014.12"/>
</g>
<!-- Node3 -->
<g id="node3" class="node">
<title>Node3</title>
<g id="a_node3"><a xlink:href="driver__super_8c.html#a093a693ceac26a42fe3157cae06259ac" target="_top" xlink:title=" ">
<polygon fill="white" stroke="black" points="193.5,-956 193.5,-986 304.5,-986 304.5,-956 193.5,-956"/>
<text text-anchor="start" x="201.5" y="-974" font-family="Helvetica,sans-Serif" font-size="10.00">DSSC_enable_strict</text>
<text text-anchor="middle" x="249" y="-963" font-family="Helvetica,sans-Serif" font-size="10.00">_frame_search</text>
</a>
</g>
</g>
<!-- Node1&#45;&gt;Node3 -->
<g id="edge2" class="edge">
<title>Node1&#45;&gt;Node3</title>
<path fill="none" stroke="midnightblue" d="M72.33,-816.23C85.38,-845.77 118.12,-910.98 166,-946 171.49,-950.01 177.63,-953.39 184.02,-956.23"/>
<polygon fill="midnightblue" stroke="midnightblue" points="182.91,-959.56 193.5,-960.02 185.51,-953.06 182.91,-959.56"/>
</g>
<!-- Node4 -->
<g id="node4" class="node">
<title>Node4</title>
<g id="a_node4"><a xlink:href="driver__super_8c.html#ad65037ea9639ef7c8ade47c1c54bbf2e" target="_top" xlink:title=" ">
<polygon fill="white" stroke="black" points="180.5,-917.5 180.5,-936.5 317.5,-936.5 317.5,-917.5 180.5,-917.5"/>
<text text-anchor="middle" x="249" y="-924.5" font-family="Helvetica,sans-Serif" font-size="10.00">DSSC_set_data_analyzer</text>
</a>
</g>
</g>
<!-- Node1&#45;&gt;Node4 -->
<g id="edge3" class="edge">
<title>Node1&#45;&gt;Node4</title>
<path fill="none" stroke="midnightblue" d="M75.67,-816.08C91.55,-839.57 125.48,-884.61 166,-908 169.88,-910.24 174,-912.21 178.26,-913.95"/>
<polygon fill="midnightblue" stroke="midnightblue" points="177.15,-917.28 187.74,-917.41 179.54,-910.7 177.15,-917.28"/>
</g>
<!-- Node5 -->
<g id="node5" class="node">
<title>Node5</title>
<g id="a_node5"><a xlink:href="driver__super_8c.html#a257d3e5ef0b2a07401bc30641d50b69a" target="_top" xlink:title=" ">
<polygon fill="white" stroke="black" points="180.5,-879.5 180.5,-898.5 317.5,-898.5 317.5,-879.5 180.5,-879.5"/>
<text text-anchor="middle" x="249" y="-886.5" font-family="Helvetica,sans-Serif" font-size="10.00">DSSC_set_rx_frame_size</text>
</a>
</g>
</g>
<!-- Node1&#45;&gt;Node5 -->
<g id="edge4" class="edge">
<title>Node1&#45;&gt;Node5</title>
<path fill="none" stroke="midnightblue" d="M83.55,-816.2C102.61,-831.94 134.55,-856.11 166,-870 171.7,-872.52 177.78,-874.72 183.95,-876.65"/>
<polygon fill="midnightblue" stroke="midnightblue" points="183.11,-880.05 193.69,-879.46 185.05,-873.33 183.11,-880.05"/>
</g>
<!-- Node6 -->
<g id="node6" class="node">
<title>Node6</title>
<g id="a_node6"><a xlink:href="driver__super_8c.html#a9869582a20b5ae6e1d3014a3ced86e56" target="_top" xlink:title=" ">
<polygon fill="white" stroke="black" points="177.5,-830 177.5,-860 320.5,-860 320.5,-830 177.5,-830"/>
<text text-anchor="start" x="185.5" y="-848" font-family="Helvetica,sans-Serif" font-size="10.00">DSSC_set_rx_framelength</text>
<text text-anchor="middle" x="249" y="-837" font-family="Helvetica,sans-Serif" font-size="10.00">_offset</text>
</a>
</g>
</g>
<!-- Node1&#45;&gt;Node6 -->
<g id="edge5" class="edge">
<title>Node1&#45;&gt;Node6</title>
<path fill="none" stroke="midnightblue" d="M128.13,-816.02C143.56,-819.75 160.23,-823.78 176.09,-827.62"/>
<polygon fill="midnightblue" stroke="midnightblue" points="175.3,-831.03 185.85,-829.97 176.95,-824.22 175.3,-831.03"/>
</g>
<!-- Node7 -->
<g id="node7" class="node">
<title>Node7</title>
<g id="a_node7"><a xlink:href="driver__super_8c.html#af10516ffc854cff7493ca94b1f980c78" target="_top" xlink:title=" ">
<polygon fill="white" stroke="black" points="166,-791.5 166,-810.5 332,-810.5 332,-791.5 166,-791.5"/>
<text text-anchor="middle" x="249" y="-798.5" font-family="Helvetica,sans-Serif" font-size="10.00">DSSC_set_rx_framelength_pos</text>
</a>
</g>
</g>
<!-- Node1&#45;&gt;Node7 -->
<g id="edge6" class="edge">
<title>Node1&#45;&gt;Node7</title>
<path fill="none" stroke="midnightblue" d="M130.17,-801C138.48,-801 147.12,-801 155.77,-801"/>
<polygon fill="midnightblue" stroke="midnightblue" points="155.92,-804.5 165.92,-801 155.92,-797.5 155.92,-804.5"/>
</g>
<!-- Node8 -->
<g id="node8" class="node">
<title>Node8</title>
<g id="a_node8"><a xlink:href="driver__super_8c.html#a2791854c5a460d3970eff9f6c9d5c862" target="_top" xlink:title=" ">
<polygon fill="white" stroke="black" points="177.5,-742 177.5,-772 320.5,-772 320.5,-742 177.5,-742"/>
<text text-anchor="start" x="185.5" y="-760" font-family="Helvetica,sans-Serif" font-size="10.00">DSSC_set_rx_framelength</text>
<text text-anchor="middle" x="249" y="-749" font-family="Helvetica,sans-Serif" font-size="10.00">_type_size</text>
</a>
</g>
</g>
<!-- Node1&#45;&gt;Node8 -->
<g id="edge7" class="edge">
<title>Node1&#45;&gt;Node8</title>
<path fill="none" stroke="midnightblue" d="M128.13,-785.98C143.56,-782.25 160.23,-778.22 176.09,-774.38"/>
<polygon fill="midnightblue" stroke="midnightblue" points="176.95,-777.78 185.85,-772.03 175.3,-770.97 176.95,-777.78"/>
</g>
<!-- Node9 -->
<g id="node9" class="node">
<title>Node9</title>
<g id="a_node9"><a xlink:href="driver__super_8c.html#ac08f8c480a922624b49921ed953f71be" target="_top" xlink:title=" ">
<polygon fill="white" stroke="black" points="190.5,-703.5 190.5,-722.5 307.5,-722.5 307.5,-703.5 190.5,-703.5"/>
<text text-anchor="middle" x="249" y="-710.5" font-family="Helvetica,sans-Serif" font-size="10.00">DSSC_set_rx_header</text>
</a>
</g>
</g>
<!-- Node1&#45;&gt;Node9 -->
<g id="edge8" class="edge">
<title>Node1&#45;&gt;Node9</title>
<path fill="none" stroke="midnightblue" d="M83.98,-785.82C103.13,-770.37 134.92,-746.81 166,-733 172.63,-730.05 179.76,-727.5 186.95,-725.3"/>
<polygon fill="midnightblue" stroke="midnightblue" points="188.09,-728.61 196.75,-722.5 186.18,-721.88 188.09,-728.61"/>
</g>
<!-- Node10 -->
<g id="node10" class="node">
<title>Node10</title>
<g id="a_node10"><a xlink:href="driver__super_8c.html#a42c80644b6772ae2596e20b75804c0c3" target="_top" xlink:title=" ">
<polygon fill="white" stroke="black" points="192.5,-665.5 192.5,-684.5 305.5,-684.5 305.5,-665.5 192.5,-665.5"/>
<text text-anchor="middle" x="249" y="-672.5" font-family="Helvetica,sans-Serif" font-size="10.00">DSSC_set_tx_frame</text>
</a>
</g>
</g>
<!-- Node1&#45;&gt;Node10 -->
<g id="edge9" class="edge">
<title>Node1&#45;&gt;Node10</title>
<path fill="none" stroke="midnightblue" d="M75.67,-785.92C91.55,-762.43 125.48,-717.39 166,-694 171.19,-691.01 176.82,-688.48 182.62,-686.36"/>
<polygon fill="midnightblue" stroke="midnightblue" points="184.06,-689.57 192.48,-683.14 181.89,-682.91 184.06,-689.57"/>
</g>
<!-- Node11 -->
<g id="node11" class="node">
<title>Node11</title>
<g id="a_node11"><a xlink:href="driver__super_8c.html#a9907f5844f74f6b8218993911bdc2735" target="_top" xlink:title=" ">
<polygon fill="white" stroke="black" points="180.5,-627.5 180.5,-646.5 317.5,-646.5 317.5,-627.5 180.5,-627.5"/>
<text text-anchor="middle" x="249" y="-634.5" font-family="Helvetica,sans-Serif" font-size="10.00">DSSC_set_tx_frame_size</text>
</a>
</g>
</g>
<!-- Node1&#45;&gt;Node11 -->
<g id="edge10" class="edge">
<title>Node1&#45;&gt;Node11</title>
<path fill="none" stroke="midnightblue" d="M71.93,-785.94C84.48,-756.12 116.7,-689.54 166,-656 168.93,-654.01 172.04,-652.22 175.27,-650.62"/>
<polygon fill="midnightblue" stroke="midnightblue" points="176.83,-653.76 184.63,-646.59 174.06,-647.33 176.83,-653.76"/>
</g>
<!-- Node12 -->
<g id="node12" class="node">
<title>Node12</title>
<g id="a_node12"><a xlink:href="gs_8c.html#a71a6268f1b467c60429c671e47e51e1d" target="_top" xlink:title="地上からの受信データ解析関数">
<polygon fill="white" stroke="black" points="186,-589.5 186,-608.5 312,-608.5 312,-589.5 186,-589.5"/>
<text text-anchor="middle" x="249" y="-596.5" font-family="Helvetica,sans-Serif" font-size="10.00">GS_analyze_rec_data_</text>
</a>
</g>
</g>
<!-- Node1&#45;&gt;Node12 -->
<g id="edge11" class="edge">
<title>Node1&#45;&gt;Node12</title>
<path fill="none" stroke="midnightblue" d="M69.69,-785.91C79.16,-750.59 107.74,-662.21 166,-618 169.25,-615.54 172.76,-613.38 176.44,-611.5"/>
<polygon fill="midnightblue" stroke="midnightblue" points="178.13,-614.59 185.89,-607.37 175.32,-608.17 178.13,-614.59"/>
</g>
<!-- Node13 -->
<g id="node13" class="node">
<title>Node13</title>
<g id="a_node13"><a xlink:href="driver__super_8c.html#adf1f7d5bc6090bf72962786be28d0b9d" target="_top" xlink:title=" ">
<polygon fill="white" stroke="black" points="373.5,-627.5 373.5,-646.5 486.5,-646.5 486.5,-627.5 373.5,-627.5"/>
<text text-anchor="middle" x="430" y="-634.5" font-family="Helvetica,sans-Serif" font-size="10.00">DSSC_get_rx_frame</text>
</a>
</g>
</g>
<!-- Node12&#45;&gt;Node13 -->
<g id="edge12" class="edge">
<title>Node12&#45;&gt;Node13</title>
<path fill="none" stroke="midnightblue" d="M295.17,-608.59C319.22,-613.69 348.97,-620.01 374.32,-625.39"/>
<polygon fill="midnightblue" stroke="midnightblue" points="373.65,-628.83 384.16,-627.48 375.1,-621.98 373.65,-628.83"/>
</g>
<!-- Node14 -->
<g id="node14" class="node">
<title>Node14</title>
<g id="a_node14"><a xlink:href="gs__validate_8c.html#a9e8584656da1d94102639deb6702179e" target="_top" xlink:title="tc_frame の検証">
<polygon fill="white" stroke="black" points="368,-589.5 368,-608.5 492,-608.5 492,-589.5 368,-589.5"/>
<text text-anchor="middle" x="430" y="-596.5" font-family="Helvetica,sans-Serif" font-size="10.00">GS_validate_tc_frame</text>
</a>
</g>
</g>
<!-- Node12&#45;&gt;Node14 -->
<g id="edge13" class="edge">
<title>Node12&#45;&gt;Node14</title>
<path fill="none" stroke="midnightblue" d="M312.1,-599C326.79,-599 342.56,-599 357.62,-599"/>
<polygon fill="midnightblue" stroke="midnightblue" points="357.91,-602.5 367.91,-599 357.91,-595.5 357.91,-602.5"/>
</g>
<!-- Node34 -->
<g id="node30" class="node">
<title>Node34</title>
<g id="a_node30"><a xlink:href="packet__handler_8c.html#acf757fa72967bf66b39dc5ced7132330" target="_top" xlink:title=" ">
<polygon fill="white" stroke="black" points="374.5,-399.5 374.5,-418.5 485.5,-418.5 485.5,-399.5 374.5,-399.5"/>
<text text-anchor="middle" x="430" y="-406.5" font-family="Helvetica,sans-Serif" font-size="10.00">PH_analyze_packet</text>
</a>
</g>
</g>
<!-- Node12&#45;&gt;Node34 -->
<g id="edge30" class="edge">
<title>Node12&#45;&gt;Node34</title>
<path fill="none" stroke="midnightblue" d="M259.12,-589.32C287.72,-558.96 375.91,-465.35 412.66,-426.34"/>
<polygon fill="midnightblue" stroke="midnightblue" points="415.37,-428.57 419.68,-418.89 410.28,-423.77 415.37,-428.57"/>
</g>
<!-- Node15 -->
<g id="node15" class="node">
<title>Node15</title>
<g id="a_node15"><a xlink:href="gs__validate_8c.html#aaf57603b3217830c620f10440ff700df" target="_top" xlink:title=" ">
<polygon fill="white" stroke="black" points="535,-722.5 535,-741.5 648,-741.5 648,-722.5 535,-722.5"/>
<text text-anchor="middle" x="591.5" y="-729.5" font-family="Helvetica,sans-Serif" font-size="10.00">GS_check_ad_cmd_</text>
</a>
</g>
</g>
<!-- Node14&#45;&gt;Node15 -->
<g id="edge14" class="edge">
<title>Node14&#45;&gt;Node15</title>
<path fill="none" stroke="midnightblue" d="M477.78,-608.58C482.98,-611.04 487.88,-614.12 492,-618 524.87,-648.95 495.02,-682.16 528,-713 529.68,-714.57 531.49,-716.02 533.4,-717.34"/>
<polygon fill="midnightblue" stroke="midnightblue" points="531.85,-720.49 542.27,-722.41 535.32,-714.41 531.85,-720.49"/>
</g>
<!-- Node26 -->
<g id="node22" class="node">
<title>Node26</title>
<g id="a_node22"><a xlink:href="gs__validate_8c.html#a84b7f68b65ac893636653398012a7866" target="_top" xlink:title=" ">
<polygon fill="white" stroke="black" points="535.5,-684.5 535.5,-703.5 647.5,-703.5 647.5,-684.5 535.5,-684.5"/>
<text text-anchor="middle" x="591.5" y="-691.5" font-family="Helvetica,sans-Serif" font-size="10.00">GS_check_bc_cmd_</text>
</a>
</g>
</g>
<!-- Node14&#45;&gt;Node26 -->
<g id="edge21" class="edge">
<title>Node14&#45;&gt;Node26</title>
<path fill="none" stroke="midnightblue" d="M475.18,-608.61C481.18,-611.07 486.98,-614.15 492,-618 515.77,-636.25 504.17,-656.84 528,-675 530.45,-676.86 533.08,-678.55 535.82,-680.07"/>
<polygon fill="midnightblue" stroke="midnightblue" points="534.38,-683.25 544.91,-684.38 537.38,-676.93 534.38,-683.25"/>
</g>
<!-- Node27 -->
<g id="node23" class="node">
<title>Node27</title>
<g id="a_node23"><a xlink:href="gs__validate_8c.html#ade886529947636f12095d299135cbfde" target="_top" xlink:title=" ">
<polygon fill="white" stroke="black" points="535,-646.5 535,-665.5 648,-665.5 648,-646.5 535,-646.5"/>
<text text-anchor="middle" x="591.5" y="-653.5" font-family="Helvetica,sans-Serif" font-size="10.00">GS_check_bd_cmd_</text>
</a>
</g>
</g>
<!-- Node14&#45;&gt;Node27 -->
<g id="edge22" class="edge">
<title>Node14&#45;&gt;Node27</title>
<path fill="none" stroke="midnightblue" d="M465.59,-608.56C474.32,-611.31 483.6,-614.51 492,-618 508.71,-624.94 511.27,-630.12 528,-637 533.44,-639.24 539.25,-641.35 545.04,-643.3"/>
<polygon fill="midnightblue" stroke="midnightblue" points="544.13,-646.68 554.72,-646.4 546.27,-640.01 544.13,-646.68"/>
</g>
<!-- Node28 -->
<g id="node24" class="node">
<title>Node28</title>
<g id="a_node24"><a xlink:href="gs__validate_8c.html#a5660d6b01f6459cbe6c2e284f1b45891" target="_top" xlink:title=" ">
<polygon fill="white" stroke="black" points="542.5,-608.5 542.5,-627.5 640.5,-627.5 640.5,-608.5 542.5,-608.5"/>
<text text-anchor="middle" x="591.5" y="-615.5" font-family="Helvetica,sans-Serif" font-size="10.00">GS_check_fecw_</text>
</a>
</g>
</g>
<!-- Node14&#45;&gt;Node28 -->
<g id="edge24" class="edge">
<title>Node14&#45;&gt;Node28</title>
<path fill="none" stroke="midnightblue" d="M492.21,-606.29C505.31,-607.85 519.12,-609.5 532.11,-611.04"/>
<polygon fill="midnightblue" stroke="midnightblue" points="531.98,-614.55 542.33,-612.26 532.81,-607.6 531.98,-614.55"/>
</g>
<!-- Node29 -->
<g id="node25" class="node">
<title>Node29</title>
<g id="a_node25"><a xlink:href="gs__validate_8c.html#a74139046c9d543e8106484acdeecb8d3" target="_top" xlink:title=" ">
<polygon fill="white" stroke="black" points="528.5,-570.5 528.5,-589.5 654.5,-589.5 654.5,-570.5 528.5,-570.5"/>
<text text-anchor="middle" x="591.5" y="-577.5" font-family="Helvetica,sans-Serif" font-size="10.00">GS_check_tcf_header_</text>
</a>
</g>
</g>
<!-- Node14&#45;&gt;Node29 -->
<g id="edge25" class="edge">
<title>Node14&#45;&gt;Node29</title>
<path fill="none" stroke="midnightblue" d="M492.21,-591.71C500.74,-590.69 509.56,-589.64 518.26,-588.61"/>
<polygon fill="midnightblue" stroke="midnightblue" points="518.88,-592.06 528.4,-587.4 518.05,-585.11 518.88,-592.06"/>
</g>
<!-- Node32 -->
<g id="node28" class="node">
<title>Node32</title>
<g id="a_node28"><a xlink:href="_t_c_frame_8c.html#a51c2ff49351bbe9db73730fe65c93233" target="_top" xlink:title=" ">
<polygon fill="white" stroke="black" points="536.5,-532.5 536.5,-551.5 646.5,-551.5 646.5,-532.5 536.5,-532.5"/>
<text text-anchor="middle" x="591.5" y="-539.5" font-family="Helvetica,sans-Serif" font-size="10.00">TCF_get_frame_len</text>
</a>
</g>
</g>
<!-- Node14&#45;&gt;Node32 -->
<g id="edge28" class="edge">
<title>Node14&#45;&gt;Node32</title>
<path fill="none" stroke="midnightblue" d="M453.94,-589.43C473.47,-581.42 502.37,-569.9 528,-561 534.33,-558.8 541.08,-556.6 547.7,-554.52"/>
<polygon fill="midnightblue" stroke="midnightblue" points="548.73,-557.87 557.26,-551.58 546.67,-551.18 548.73,-557.87"/>
</g>
<!-- Node33 -->
<g id="node29" class="node">
<title>Node33</title>
<g id="a_node29"><a xlink:href="_t_c_frame_8c.html#a8a5d82abf326db4fbaf4b8acfafda642" target="_top" xlink:title=" ">
<polygon fill="white" stroke="black" points="550,-494.5 550,-513.5 633,-513.5 633,-494.5 550,-494.5"/>
<text text-anchor="middle" x="591.5" y="-501.5" font-family="Helvetica,sans-Serif" font-size="10.00">TCF_get_type</text>
</a>
</g>
</g>
<!-- Node14&#45;&gt;Node33 -->
<g id="edge29" class="edge">
<title>Node14&#45;&gt;Node33</title>
<path fill="none" stroke="midnightblue" d="M440.61,-589.44C457.11,-573.51 492.51,-541.47 528,-523 532.24,-520.79 536.78,-518.8 541.4,-517"/>
<polygon fill="midnightblue" stroke="midnightblue" points="542.7,-520.26 550.95,-513.6 540.35,-513.66 542.7,-520.26"/>
</g>
<!-- Node16 -->
<g id="node16" class="node">
<title>Node16</title>
<g id="a_node16"><a xlink:href="gs__validate_8c.html#a2d851e14b61c170707282426f1a3d822" target="_top" xlink:title=" ">
<polygon fill="white" stroke="black" points="694,-646.5 694,-665.5 828,-665.5 828,-646.5 694,-646.5"/>
<text text-anchor="middle" x="761" y="-653.5" font-family="Helvetica,sans-Serif" font-size="10.00">GS_check_tcf_contents_</text>
</a>
</g>
</g>
<!-- Node15&#45;&gt;Node16 -->
<g id="edge15" class="edge">
<title>Node15&#45;&gt;Node16</title>
<path fill="none" stroke="midnightblue" d="M628.31,-722.47C637.16,-719.75 646.53,-716.55 655,-713 683.87,-700.92 715.19,-683.28 736.04,-670.83"/>
<polygon fill="midnightblue" stroke="midnightblue" points="738.08,-673.68 744.83,-665.51 734.46,-667.69 738.08,-673.68"/>
</g>
<!-- Node25 -->
<g id="node21" class="node">
<title>Node25</title>
<g id="a_node21"><a xlink:href="_t_c_frame_8c.html#ae24783beaa1ebc5af4b55c18fb7673b4" target="_top" xlink:title=" ">
<polygon fill="white" stroke="black" points="691,-722.5 691,-741.5 831,-741.5 831,-722.5 691,-722.5"/>
<text text-anchor="middle" x="761" y="-729.5" font-family="Helvetica,sans-Serif" font-size="10.00">TCF_get_frame_seq_num</text>
</a>
</g>
</g>
<!-- Node15&#45;&gt;Node25 -->
<g id="edge20" class="edge">
<title>Node15&#45;&gt;Node25</title>
<path fill="none" stroke="midnightblue" d="M648.28,-732C658.69,-732 669.77,-732 680.74,-732"/>
<polygon fill="midnightblue" stroke="midnightblue" points="680.76,-735.5 690.76,-732 680.76,-728.5 680.76,-735.5"/>
</g>
<!-- Node17 -->
<g id="node17" class="node">
<title>Node17</title>
<g id="a_node17"><a xlink:href="gs__validate_8c.html#a6cd1469298a38b79c5168cef89667c89" target="_top" xlink:title=" ">
<polygon fill="white" stroke="red" points="869.5,-684.5 869.5,-703.5 1003.5,-703.5 1003.5,-684.5 869.5,-684.5"/>
<text text-anchor="middle" x="936.5" y="-691.5" font-family="Helvetica,sans-Serif" font-size="10.00">GS_check_tcp_headers_</text>
</a>
</g>
</g>
<!-- Node16&#45;&gt;Node17 -->
<g id="edge16" class="edge">
<title>Node16&#45;&gt;Node17</title>
<path fill="none" stroke="midnightblue" d="M805.78,-665.59C828.99,-670.67 857.68,-676.96 882.17,-682.32"/>
<polygon fill="midnightblue" stroke="midnightblue" points="881.52,-685.76 892.03,-684.48 883.01,-678.92 881.52,-685.76"/>
</g>
<!-- Node21 -->
<g id="node18" class="node">
<title>Node21</title>
<g id="a_node18"><a xlink:href="gs__validate_8c.html#ac435cd754c383f0e0cd71d456ee1f597" target="_top" xlink:title=" ">
<polygon fill="white" stroke="red" points="870,-646.5 870,-665.5 1003,-665.5 1003,-646.5 870,-646.5"/>
<text text-anchor="middle" x="936.5" y="-653.5" font-family="Helvetica,sans-Serif" font-size="10.00">GS_check_tcs_headers_</text>
</a>
</g>
</g>
<!-- Node16&#45;&gt;Node21 -->
<g id="edge17" class="edge">
<title>Node16&#45;&gt;Node21</title>
<path fill="none" stroke="midnightblue" d="M828.09,-656C838.47,-656 849.26,-656 859.84,-656"/>
<polygon fill="midnightblue" stroke="midnightblue" points="859.88,-659.5 869.88,-656 859.88,-652.5 859.88,-659.5"/>
</g>
<!-- Node23 -->
<g id="node19" class="node">
<title>Node23</title>
<g id="a_node19"><a xlink:href="_t_c_packet_8c.html#ae26741591fe76767d2cbd4c5c4970bce" target="_top" xlink:title="Sequence Flag を取得">
<polygon fill="white" stroke="black" points="886,-608.5 886,-627.5 987,-627.5 987,-608.5 886,-608.5"/>
<text text-anchor="middle" x="936.5" y="-615.5" font-family="Helvetica,sans-Serif" font-size="10.00">TCP_get_seq_flag</text>
</a>
</g>
</g>
<!-- Node16&#45;&gt;Node23 -->
<g id="edge18" class="edge">
<title>Node16&#45;&gt;Node23</title>
<path fill="none" stroke="midnightblue" d="M805.78,-646.41C828.99,-641.33 857.68,-635.04 882.17,-629.68"/>
<polygon fill="midnightblue" stroke="midnightblue" points="883.01,-633.08 892.03,-627.52 881.52,-626.24 883.01,-633.08"/>
</g>
<!-- Node24 -->
<g id="node20" class="node">
<title>Node24</title>
<g id="a_node20"><a xlink:href="_t_c_packet_8c.html#aeef51e70e41085a34fe5c6629d3cc2ae" target="_top" xlink:title="TCP type を取得">
<polygon fill="white" stroke="black" points="895,-494.5 895,-513.5 978,-513.5 978,-494.5 895,-494.5"/>
<text text-anchor="middle" x="936.5" y="-501.5" font-family="Helvetica,sans-Serif" font-size="10.00">TCP_get_type</text>
</a>
</g>
</g>
<!-- Node16&#45;&gt;Node24 -->
<g id="edge19" class="edge">
<title>Node16&#45;&gt;Node24</title>
<path fill="none" stroke="midnightblue" d="M811.93,-646.38C818.64,-643.93 825.21,-640.85 831,-637 842.9,-629.09 897.1,-556.35 922.41,-521.91"/>
<polygon fill="midnightblue" stroke="midnightblue" points="925.36,-523.81 928.45,-513.67 919.71,-519.67 925.36,-523.81"/>
</g>
<!-- Node27&#45;&gt;Node16 -->
<g id="edge23" class="edge">
<title>Node27&#45;&gt;Node16</title>
<path fill="none" stroke="midnightblue" d="M648.28,-656C659.54,-656 671.56,-656 683.39,-656"/>
<polygon fill="midnightblue" stroke="midnightblue" points="683.72,-659.5 693.72,-656 683.72,-652.5 683.72,-659.5"/>
</g>
<!-- Node30 -->
<g id="node26" class="node">
<title>Node30</title>
<g id="a_node26"><a xlink:href="_t_c_frame_8c.html#a5f478a4f679efc9097899d4807bdf14a" target="_top" xlink:title=" ">
<polygon fill="white" stroke="black" points="720.5,-608.5 720.5,-627.5 801.5,-627.5 801.5,-608.5 720.5,-608.5"/>
<text text-anchor="middle" x="761" y="-615.5" font-family="Helvetica,sans-Serif" font-size="10.00">TCF_get_vcid</text>
</a>
</g>
</g>
<!-- Node29&#45;&gt;Node30 -->
<g id="edge26" class="edge">
<title>Node29&#45;&gt;Node30</title>
<path fill="none" stroke="midnightblue" d="M634.77,-589.59C657.75,-594.8 686.3,-601.28 710.34,-606.73"/>
<polygon fill="midnightblue" stroke="midnightblue" points="709.81,-610.2 720.34,-609 711.36,-603.38 709.81,-610.2"/>
</g>
<!-- Node31 -->
<g id="node27" class="node">
<title>Node31</title>
<g id="a_node27"><a xlink:href="_t_c_frame_8c.html#ad8eb293e8d4ba07d2e7a63a1f0a427a9" target="_top" xlink:title=" ">
<polygon fill="white" stroke="black" points="722.5,-570.5 722.5,-589.5 799.5,-589.5 799.5,-570.5 722.5,-570.5"/>
<text text-anchor="middle" x="761" y="-577.5" font-family="Helvetica,sans-Serif" font-size="10.00">TCF_get_ver</text>
</a>
</g>
</g>
<!-- Node29&#45;&gt;Node31 -->
<g id="edge27" class="edge">
<title>Node29&#45;&gt;Node31</title>
<path fill="none" stroke="midnightblue" d="M654.87,-580C673.84,-580 694.38,-580 712.23,-580"/>
<polygon fill="midnightblue" stroke="midnightblue" points="712.4,-583.5 722.4,-580 712.4,-576.5 712.4,-583.5"/>
</g>
<!-- Node35 -->
<g id="node31" class="node">
<title>Node35</title>
<g id="a_node31"><a xlink:href="common__tlm__cmd__packet_8h.html#a8da8d74ab0cb68ef9a902267ad27c0a6" target="_top" xlink:title="CTCP を CCP に変換（キャスト）">
<polygon fill="white" stroke="black" points="531.5,-456.5 531.5,-475.5 651.5,-475.5 651.5,-456.5 531.5,-456.5"/>
<text text-anchor="middle" x="591.5" y="-463.5" font-family="Helvetica,sans-Serif" font-size="10.00">CTCP_convert_to_ccp</text>
</a>
</g>
</g>
<!-- Node34&#45;&gt;Node35 -->
<g id="edge31" class="edge">
<title>Node34&#45;&gt;Node35</title>
<path fill="none" stroke="midnightblue" d="M453.94,-418.57C473.47,-426.58 502.37,-438.1 528,-447 534.33,-449.2 541.08,-451.4 547.7,-453.48"/>
<polygon fill="midnightblue" stroke="midnightblue" points="546.67,-456.82 557.26,-456.42 548.73,-450.13 546.67,-456.82"/>
</g>
<!-- Node37 -->
<g id="node33" class="node">
<title>Node37</title>
<g id="a_node33"><a xlink:href="common__tlm__cmd__packet_8h.html#a1c40672d250b1a18b2f130f353659b5a" target="_top" xlink:title="CTCP を CTP に変換（キャスト）">
<polygon fill="white" stroke="black" points="532,-418.5 532,-437.5 651,-437.5 651,-418.5 532,-418.5"/>
<text text-anchor="middle" x="591.5" y="-425.5" font-family="Helvetica,sans-Serif" font-size="10.00">CTCP_convert_to_ctp</text>
</a>
</g>
</g>
<!-- Node34&#45;&gt;Node37 -->
<g id="edge34" class="edge">
<title>Node34&#45;&gt;Node37</title>
<path fill="none" stroke="midnightblue" d="M485.89,-415.54C497.51,-416.92 509.9,-418.4 521.95,-419.83"/>
<polygon fill="midnightblue" stroke="midnightblue" points="521.63,-423.32 531.97,-421.03 522.45,-416.37 521.63,-423.32"/>
</g>
<!-- Node38 -->
<g id="node34" class="node">
<title>Node38</title>
<g id="a_node34"><a xlink:href="common__tlm__cmd__packet_8h.html#a86d9338ea5a11fafb41cf5ad00ee16c3" target="_top" xlink:title="tlm か cmd かを判断">
<polygon fill="white" stroke="black" points="528,-380.5 528,-399.5 655,-399.5 655,-380.5 528,-380.5"/>
<text text-anchor="middle" x="591.5" y="-387.5" font-family="Helvetica,sans-Serif" font-size="10.00">CTCP_get_packet_type</text>
</a>
</g>
</g>
<!-- Node34&#45;&gt;Node38 -->
<g id="edge36" class="edge">
<title>Node34&#45;&gt;Node38</title>
<path fill="none" stroke="midnightblue" d="M485.89,-402.46C496.13,-401.24 506.99,-399.95 517.67,-398.68"/>
<polygon fill="midnightblue" stroke="midnightblue" points="518.32,-402.12 527.84,-397.46 517.49,-395.17 518.32,-402.12"/>
</g>
<!-- Node39 -->
<g id="node35" class="node">
<title>Node39</title>
<g id="a_node35"><a xlink:href="packet__handler_8c.html#adad85a9717ad8b86960c7120596783e6" target="_top" xlink:title=" ">
<polygon fill="white" stroke="black" points="541.5,-304.5 541.5,-323.5 641.5,-323.5 641.5,-304.5 541.5,-304.5"/>
<text text-anchor="middle" x="591.5" y="-311.5" font-family="Helvetica,sans-Serif" font-size="10.00">PH_analyze_cmd</text>
</a>
</g>
</g>
<!-- Node34&#45;&gt;Node39 -->
<g id="edge38" class="edge">
<title>Node34&#45;&gt;Node39</title>
<path fill="none" stroke="midnightblue" d="M447.17,-399.37C475.11,-382.72 532.61,-348.48 565.66,-328.8"/>
<polygon fill="midnightblue" stroke="midnightblue" points="567.49,-331.78 574.29,-323.66 563.9,-325.77 567.49,-331.78"/>
</g>
<!-- Node81 -->
<g id="node46" class="node">
<title>Node81</title>
<g id="a_node46"><a xlink:href="packet__handler_8c.html#aa723ecba78b77490183e69a3651995d8" target="_top" xlink:title=" ">
<polygon fill="white" stroke="black" points="544,-76.5 544,-95.5 639,-95.5 639,-76.5 544,-76.5"/>
<text text-anchor="middle" x="591.5" y="-83.5" font-family="Helvetica,sans-Serif" font-size="10.00">PH_analyze_tlm</text>
</a>
</g>
</g>
<!-- Node34&#45;&gt;Node81 -->
<g id="edge52" class="edge">
<title>Node34&#45;&gt;Node81</title>
<path fill="none" stroke="midnightblue" d="M435.77,-399.33C457.97,-354.38 551.27,-165.44 581.21,-104.81"/>
<polygon fill="midnightblue" stroke="midnightblue" points="584.46,-106.15 585.75,-95.63 578.18,-103.05 584.46,-106.15"/>
</g>
<!-- Node36 -->
<g id="node32" class="node">
<title>Node36</title>
<g id="a_node32"><a xlink:href="common__tlm__cmd__packet_8c.html#a86d9338ea5a11fafb41cf5ad00ee16c3" target="_top" xlink:title="tlm か cmd かを判断">
<polygon fill="white" stroke="black" points="697.5,-494.5 697.5,-513.5 824.5,-513.5 824.5,-494.5 697.5,-494.5"/>
<text text-anchor="middle" x="761" y="-501.5" font-family="Helvetica,sans-Serif" font-size="10.00">CTCP_get_packet_type</text>
</a>
</g>
</g>
<!-- Node35&#45;&gt;Node36 -->
<g id="edge32" class="edge">
<title>Node35&#45;&gt;Node36</title>
<path fill="none" stroke="midnightblue" d="M634.77,-475.59C657.07,-480.65 684.62,-486.9 708.2,-492.25"/>
<polygon fill="midnightblue" stroke="midnightblue" points="707.51,-495.68 718.04,-494.48 709.06,-488.85 707.51,-495.68"/>
</g>
<!-- Node36&#45;&gt;Node24 -->
<g id="edge33" class="edge">
<title>Node36&#45;&gt;Node24</title>
<path fill="none" stroke="midnightblue" d="M824.64,-504C844.37,-504 865.92,-504 884.73,-504"/>
<polygon fill="midnightblue" stroke="midnightblue" points="884.86,-507.5 894.86,-504 884.86,-500.5 884.86,-507.5"/>
</g>
<!-- Node37&#45;&gt;Node36 -->
<g id="edge35" class="edge">
<title>Node37&#45;&gt;Node36</title>
<path fill="none" stroke="midnightblue" d="M633.28,-437.51C640.75,-440.05 648.3,-443.18 655,-447 673.85,-457.76 672.36,-468.87 691,-480 698.12,-484.25 706.11,-487.9 714.05,-490.97"/>
<polygon fill="midnightblue" stroke="midnightblue" points="713.07,-494.34 723.66,-494.44 715.44,-487.75 713.07,-494.34"/>
</g>
<!-- Node38&#45;&gt;Node24 -->
<g id="edge37" class="edge">
<title>Node38&#45;&gt;Node24</title>
<path fill="none" stroke="midnightblue" d="M634.82,-399.59C641.83,-402.09 648.83,-405.18 655,-409 674.79,-421.23 670.82,-435.43 691,-447 707.75,-456.6 818.4,-480.21 884.97,-493.84"/>
<polygon fill="midnightblue" stroke="midnightblue" points="884.36,-497.29 894.86,-495.86 885.76,-490.43 884.36,-497.29"/>
</g>
<!-- Node40 -->
<g id="node36" class="node">
<title>Node40</title>
<g id="a_node36"><a xlink:href="common__cmd__packet_8h.html#a63dd7518abfbd0e6cedf6af2f376d854" target="_top" xlink:title="EXEC_TYPE を取得">
<polygon fill="white" stroke="black" points="705,-418.5 705,-437.5 817,-437.5 817,-418.5 705,-418.5"/>
<text text-anchor="middle" x="761" y="-425.5" font-family="Helvetica,sans-Serif" font-size="10.00">CCP_get_exec_type</text>
</a>
</g>
</g>
<!-- Node39&#45;&gt;Node40 -->
<g id="edge39" class="edge">
<title>Node39&#45;&gt;Node40</title>
<path fill="none" stroke="midnightblue" d="M603.12,-323.67C615.57,-335.01 636.79,-354.35 655,-371 671.02,-385.65 672.36,-392.87 691,-404 698.12,-408.25 706.11,-411.9 714.05,-414.97"/>
<polygon fill="midnightblue" stroke="midnightblue" points="713.07,-418.34 723.66,-418.44 715.44,-411.75 713.07,-418.34"/>
</g>
<!-- Node42 -->
<g id="node38" class="node">
<title>Node42</title>
<g id="a_node38"><a xlink:href="packet__handler_8c.html#a7877bd048a812eccc6e5e32a48e4198d" target="_top" xlink:title=" ">
<polygon fill="white" stroke="black" points="710.5,-266.5 710.5,-285.5 811.5,-285.5 811.5,-266.5 710.5,-266.5"/>
<text text-anchor="middle" x="761" y="-273.5" font-family="Helvetica,sans-Serif" font-size="10.00">PH_add_gs_cmd_</text>
</a>
</g>
</g>
<!-- Node39&#45;&gt;Node42 -->
<g id="edge41" class="edge">
<title>Node39&#45;&gt;Node42</title>
<path fill="none" stroke="midnightblue" d="M634.77,-304.41C657.07,-299.35 684.62,-293.1 708.2,-287.75"/>
<polygon fill="midnightblue" stroke="midnightblue" points="709.06,-291.15 718.04,-285.52 707.51,-284.32 709.06,-291.15"/>
</g>
<!-- Node48 -->
<g id="node40" class="node">
<title>Node48</title>
<g id="a_node40"><a xlink:href="packet__handler_8c.html#a8d281dc795ac227a6631832887234892" target="_top" xlink:title=" ">
<polygon fill="white" stroke="black" points="712,-228.5 712,-247.5 810,-247.5 810,-228.5 712,-228.5"/>
<text text-anchor="middle" x="761" y="-235.5" font-family="Helvetica,sans-Serif" font-size="10.00">PH_add_rt_cmd_</text>
</a>
</g>
</g>
<!-- Node39&#45;&gt;Node48 -->
<g id="edge43" class="edge">
<title>Node39&#45;&gt;Node48</title>
<path fill="none" stroke="midnightblue" d="M606.58,-304.29C625.18,-291.84 659.29,-270.28 691,-257 696.72,-254.61 702.82,-252.42 708.95,-250.46"/>
<polygon fill="midnightblue" stroke="midnightblue" points="709.99,-253.8 718.55,-247.56 707.97,-247.1 709.99,-253.8"/>
</g>
<!-- Node49 -->
<g id="node41" class="node">
<title>Node49</title>
<g id="a_node41"><a xlink:href="packet__handler_8c.html#a31e4fc656d51d4b675d88e6c023cc50e" target="_top" xlink:title=" ">
<polygon fill="white" stroke="red" points="888,-364.5 888,-383.5 985,-383.5 985,-364.5 888,-364.5"/>
<text text-anchor="middle" x="936.5" y="-371.5" font-family="Helvetica,sans-Serif" font-size="10.00">PH_add_tl_cmd_</text>
</a>
</g>
</g>
<!-- Node39&#45;&gt;Node49 -->
<g id="edge45" class="edge">
<title>Node39&#45;&gt;Node49</title>
<path fill="none" stroke="midnightblue" d="M604.32,-323.59C621.94,-337.22 656.71,-361.57 691,-371 753.03,-388.06 827.31,-385.97 877.59,-381.43"/>
<polygon fill="midnightblue" stroke="midnightblue" points="878.02,-384.91 887.63,-380.46 877.34,-377.94 878.02,-384.91"/>
</g>
<!-- Node59 -->
<g id="node42" class="node">
<title>Node59</title>
<g id="a_node42"><a xlink:href="packet__handler_8c.html#aaee24b7aac3411a855ab68922e605325" target="_top" xlink:title="UTL_cmd を TL_cmd に変換して tl_cmd_list に追加する">
<polygon fill="white" stroke="red" points="709.5,-342.5 709.5,-361.5 812.5,-361.5 812.5,-342.5 709.5,-342.5"/>
<text text-anchor="middle" x="761" y="-349.5" font-family="Helvetica,sans-Serif" font-size="10.00">PH_add_utl_cmd_</text>
</a>
</g>
</g>
<!-- Node39&#45;&gt;Node59 -->
<g id="edge46" class="edge">
<title>Node39&#45;&gt;Node59</title>
<path fill="none" stroke="midnightblue" d="M634.77,-323.59C657.07,-328.65 684.62,-334.9 708.2,-340.25"/>
<polygon fill="midnightblue" stroke="midnightblue" points="707.51,-343.68 718.04,-342.48 709.06,-336.85 707.51,-343.68"/>
</g>
<!-- Node64 -->
<g id="node43" class="node">
<title>Node64</title>
<g id="a_node43"><a xlink:href="time__manager_8c.html#a576e42803f8f3896524dbb266a47a08f" target="_top" xlink:title="現在の total_cycle を返す">
<polygon fill="white" stroke="red" points="869.5,-307 869.5,-337 1003.5,-337 1003.5,-307 869.5,-307"/>
<text text-anchor="start" x="877.5" y="-325" font-family="Helvetica,sans-Serif" font-size="10.00">TMGR_get_master_total</text>
<text text-anchor="middle" x="936.5" y="-314" font-family="Helvetica,sans-Serif" font-size="10.00">_cycle</text>
</a>
</g>
</g>
<!-- Node39&#45;&gt;Node64 -->
<g id="edge51" class="edge">
<title>Node39&#45;&gt;Node64</title>
<path fill="none" stroke="midnightblue" d="M641.64,-315.15C698.55,-316.47 792.97,-318.68 859.4,-320.22"/>
<polygon fill="midnightblue" stroke="midnightblue" points="859.32,-323.72 869.39,-320.46 859.48,-316.73 859.32,-323.72"/>
</g>
<!-- Node68 -->
<g id="node44" class="node">
<title>Node68</title>
<g id="a_node44"><a xlink:href="packet__handler_8c.html#add0165039b8b49d3d6f06ae929a8310e" target="_top" xlink:title=" ">
<polygon fill="white" stroke="red" points="692.5,-190.5 692.5,-209.5 829.5,-209.5 829.5,-190.5 692.5,-190.5"/>
<text text-anchor="middle" x="761" y="-197.5" font-family="Helvetica,sans-Serif" font-size="10.00">PH_analyze_block_cmd_</text>
</a>
</g>
</g>
<!-- Node39&#45;&gt;Node68 -->
<g id="edge49" class="edge">
<title>Node39&#45;&gt;Node68</title>
<path fill="none" stroke="midnightblue" d="M599.76,-304.3C614.67,-285.05 650.75,-241.94 691,-219 694.93,-216.76 699.14,-214.77 703.47,-213.01"/>
<polygon fill="midnightblue" stroke="midnightblue" points="704.88,-216.22 713.08,-209.51 702.48,-209.65 704.88,-216.22"/>
</g>
<!-- Node76 -->
<g id="node45" class="node">
<title>Node76</title>
<g id="a_node45"><a xlink:href="user__packet__handler_8c.html#a6ceb9e37114f6c81c6872ec90dd2a39d" target="_top" xlink:title="PHのanalyze_cmd_のユーザー処理関数">
<polygon fill="white" stroke="red" points="698,-152.5 698,-171.5 824,-171.5 824,-152.5 698,-152.5"/>
<text text-anchor="middle" x="761" y="-159.5" font-family="Helvetica,sans-Serif" font-size="10.00">PH_user_analyze_cmd</text>
</a>
</g>
</g>
<!-- Node39&#45;&gt;Node76 -->
<g id="edge50" class="edge">
<title>Node39&#45;&gt;Node76</title>
<path fill="none" stroke="midnightblue" d="M596.89,-304.23C608.48,-279.56 642.42,-214.31 691,-181 693.91,-179.01 697.02,-177.22 700.25,-175.63"/>
<polygon fill="midnightblue" stroke="midnightblue" points="701.81,-178.76 709.61,-171.6 699.04,-172.33 701.81,-178.76"/>
</g>
<!-- Node41 -->
<g id="node37" class="node">
<title>Node41</title>
<g id="a_node37"><a xlink:href="_t_c_packet_8c.html#a7277f5efaf34789ea43e4efde68b7452" target="_top" xlink:title="EXEC_TYPE を取得">
<polygon fill="white" stroke="black" points="867,-418.5 867,-437.5 1006,-437.5 1006,-418.5 867,-418.5"/>
<text text-anchor="middle" x="936.5" y="-425.5" font-family="Helvetica,sans-Serif" font-size="10.00">TCP_CMD_get_exec_type</text>
</a>
</g>
</g>
<!-- Node40&#45;&gt;Node41 -->
<g id="edge40" class="edge">
<title>Node40&#45;&gt;Node41</title>
<path fill="none" stroke="midnightblue" d="M817.37,-428C829.94,-428 843.52,-428 856.84,-428"/>
<polygon fill="midnightblue" stroke="midnightblue" points="856.96,-431.5 866.96,-428 856.96,-424.5 856.96,-431.5"/>
</g>
<!-- Node43 -->
<g id="node39" class="node">
<title>Node43</title>
<g id="a_node39"><a xlink:href="packet__list_8c.html#ad7da029bd139e8697b676dc879081e9e" target="_top" xlink:title="PacketList の末尾に packet を挿入">
<polygon fill="white" stroke="red" points="894,-76.5 894,-95.5 979,-95.5 979,-76.5 894,-76.5"/>
<text text-anchor="middle" x="936.5" y="-83.5" font-family="Helvetica,sans-Serif" font-size="10.00">PL_push_back</text>
</a>
</g>
</g>
<!-- Node42&#45;&gt;Node43 -->
<g id="edge42" class="edge">
<title>Node42&#45;&gt;Node43</title>
<path fill="none" stroke="midnightblue" d="M811.65,-267.26C818.55,-264.68 825.24,-261.34 831,-257 884.14,-216.98 916.2,-141.34 929.02,-105.62"/>
<polygon fill="midnightblue" stroke="midnightblue" points="932.42,-106.49 932.38,-95.9 925.81,-104.21 932.42,-106.49"/>
</g>
<!-- Node48&#45;&gt;Node43 -->
<g id="edge44" class="edge">
<title>Node48&#45;&gt;Node43</title>
<path fill="none" stroke="midnightblue" d="M810.13,-229.03C817.47,-226.47 824.69,-223.2 831,-219 875.84,-189.19 910.06,-133.84 925.87,-104.84"/>
<polygon fill="midnightblue" stroke="midnightblue" points="929.09,-106.24 930.68,-95.76 922.9,-102.96 929.09,-106.24"/>
</g>
<!-- Node59&#45;&gt;Node49 -->
<g id="edge47" class="edge">
<title>Node59&#45;&gt;Node49</title>
<path fill="none" stroke="midnightblue" d="M812.65,-358.42C833.02,-361.01 856.63,-364 877.67,-366.67"/>
<polygon fill="midnightblue" stroke="midnightblue" points="877.4,-370.16 887.76,-367.95 878.28,-363.22 877.4,-370.16"/>
</g>
<!-- Node59&#45;&gt;Node64 -->
<g id="edge48" class="edge">
<title>Node59&#45;&gt;Node64</title>
<path fill="none" stroke="midnightblue" d="M812.65,-343.24C827.17,-340.73 843.34,-337.94 859.05,-335.22"/>
<polygon fill="midnightblue" stroke="midnightblue" points="860.02,-338.6 869.28,-333.45 858.83,-331.7 860.02,-338.6"/>
</g>
<!-- Node82 -->
<g id="node47" class="node">
<title>Node82</title>
<g id="a_node47"><a xlink:href="common__tlm__packet_8h.html#acdcac13f52b3e7777659ea6c107d5e6b" target="_top" xlink:title="CTP_DEST_FLAG を取得">
<polygon fill="white" stroke="red" points="708,-114.5 708,-133.5 814,-133.5 814,-114.5 708,-114.5"/>
<text text-anchor="middle" x="761" y="-121.5" font-family="Helvetica,sans-Serif" font-size="10.00">CTP_get_dest_flag</text>
</a>
</g>
</g>
<!-- Node81&#45;&gt;Node82 -->
<g id="edge53" class="edge">
<title>Node81&#45;&gt;Node82</title>
<path fill="none" stroke="midnightblue" d="M634.77,-95.59C657.07,-100.65 684.62,-106.9 708.2,-112.25"/>
<polygon fill="midnightblue" stroke="midnightblue" points="707.51,-115.68 718.04,-114.48 709.06,-108.85 707.51,-115.68"/>
</g>
<!-- Node84 -->
<g id="node48" class="node">
<title>Node84</title>
<g id="a_node48"><a xlink:href="packet__handler_8c.html#a46236f660b6bef7bcd6d440a02b70cfe" target="_top" xlink:title=" ">
<polygon fill="white" stroke="black" points="710.5,-76.5 710.5,-95.5 811.5,-95.5 811.5,-76.5 710.5,-76.5"/>
<text text-anchor="middle" x="761" y="-83.5" font-family="Helvetica,sans-Serif" font-size="10.00">PH_add_ms_tlm_</text>
</a>
</g>
</g>
<!-- Node81&#45;&gt;Node84 -->
<g id="edge54" class="edge">
<title>Node81&#45;&gt;Node84</title>
<path fill="none" stroke="midnightblue" d="M639.16,-86C658.03,-86 680.06,-86 700.1,-86"/>
<polygon fill="midnightblue" stroke="midnightblue" points="700.37,-89.5 710.37,-86 700.37,-82.5 700.37,-89.5"/>
</g>
<!-- Node85 -->
<g id="node49" class="node">
<title>Node85</title>
<g id="a_node49"><a xlink:href="packet__handler_8c.html#a7dd867804b5369e8b3a7137df9311a06" target="_top" xlink:title=" ">
<polygon fill="white" stroke="black" points="713.5,-38.5 713.5,-57.5 808.5,-57.5 808.5,-38.5 713.5,-38.5"/>
<text text-anchor="middle" x="761" y="-45.5" font-family="Helvetica,sans-Serif" font-size="10.00">PH_add_rp_tlm_</text>
</a>
</g>
</g>
<!-- Node81&#45;&gt;Node85 -->
<g id="edge56" class="edge">
<title>Node81&#45;&gt;Node85</title>
<path fill="none" stroke="midnightblue" d="M634.77,-76.41C657.07,-71.35 684.62,-65.1 708.2,-59.75"/>
<polygon fill="midnightblue" stroke="midnightblue" points="709.06,-63.15 718.04,-57.52 707.51,-56.32 709.06,-63.15"/>
</g>
<!-- Node86 -->
<g id="node50" class="node">
<title>Node86</title>
<g id="a_node50"><a xlink:href="packet__handler_8c.html#a84a590cd899730b18feca5a87722bb0c" target="_top" xlink:title=" ">
<polygon fill="white" stroke="black" points="713.5,-0.5 713.5,-19.5 808.5,-19.5 808.5,-0.5 713.5,-0.5"/>
<text text-anchor="middle" x="761" y="-7.5" font-family="Helvetica,sans-Serif" font-size="10.00">PH_add_st_tlm_</text>
</a>
</g>
</g>
<!-- Node81&#45;&gt;Node86 -->
<g id="edge58" class="edge">
<title>Node81&#45;&gt;Node86</title>
<path fill="none" stroke="midnightblue" d="M606.58,-76.29C625.18,-63.84 659.29,-42.28 691,-29 696.72,-26.61 702.82,-24.42 708.95,-22.46"/>
<polygon fill="midnightblue" stroke="midnightblue" points="709.99,-25.8 718.55,-19.56 707.97,-19.1 709.99,-25.8"/>
</g>
<!-- Node84&#45;&gt;Node43 -->
<g id="edge55" class="edge">
<title>Node84&#45;&gt;Node43</title>
<path fill="none" stroke="midnightblue" d="M811.72,-86C834.3,-86 860.99,-86 883.8,-86"/>
<polygon fill="midnightblue" stroke="midnightblue" points="883.98,-89.5 893.98,-86 883.98,-82.5 883.98,-89.5"/>
</g>
<!-- Node85&#45;&gt;Node43 -->
<g id="edge57" class="edge">
<title>Node85&#45;&gt;Node43</title>
<path fill="none" stroke="midnightblue" d="M805.78,-57.59C829.52,-62.79 858.99,-69.24 883.84,-74.69"/>
<polygon fill="midnightblue" stroke="midnightblue" points="883.31,-78.15 893.83,-76.87 884.81,-71.31 883.31,-78.15"/>
</g>
<!-- Node86&#45;&gt;Node43 -->
<g id="edge59" class="edge">
<title>Node86&#45;&gt;Node43</title>
<path fill="none" stroke="midnightblue" d="M802.65,-19.52C812.1,-22.19 822.01,-25.37 831,-29 859.91,-40.68 891.05,-58.4 911.74,-70.97"/>
<polygon fill="midnightblue" stroke="midnightblue" points="910.12,-74.08 920.47,-76.35 913.79,-68.12 910.12,-74.08"/>
</g>
</g>
</svg>
