<?xml version="1.0" encoding="UTF-8" standalone="no"?>
<!DOCTYPE svg PUBLIC "-//W3C//DTD SVG 1.1//EN"
 "http://www.w3.org/Graphics/SVG/1.1/DTD/svg11.dtd">
<!-- Generated by graphviz version 2.43.0 (0)
 -->
<!-- Title: src/src_core/IfWrapper/Common/i2c_common.c Pages: 1 -->
<svg width="951pt" height="575pt"
 viewBox="0.00 0.00 951.00 575.00" xmlns="http://www.w3.org/2000/svg" xmlns:xlink="http://www.w3.org/1999/xlink">
<g id="graph0" class="graph" transform="scale(1 1) rotate(0) translate(4 571)">
<title>src/src_core/IfWrapper/Common/i2c_common.c</title>
<polygon fill="white" stroke="transparent" points="-4,4 -4,-571 947,-571 947,4 -4,4"/>
<!-- Node1 -->
<g id="node1" class="node">
<title>Node1</title>
<g id="a_node1"><a xlink:title="I2C 通信関連の一般 IO 以外の公開関数">
<polygon fill="#bfbfbf" stroke="black" points="358.5,-536.5 358.5,-566.5 495.5,-566.5 495.5,-536.5 358.5,-536.5"/>
<text text-anchor="start" x="366.5" y="-554.5" font-family="Helvetica,sans-Serif" font-size="10.00">src/src_core/IfWrapper</text>
<text text-anchor="middle" x="427" y="-543.5" font-family="Helvetica,sans-Serif" font-size="10.00">/Common/i2c_common.c</text>
</a>
</g>
</g>
<!-- Node2 -->
<g id="node2" class="node">
<title>Node2</title>
<g id="a_node2"><a xlink:href="i2c__common_8h.html" target="_top" xlink:title="I2C 通信関連の一般 IO 以外の公開関数">
<polygon fill="white" stroke="black" points="221,-480.5 221,-499.5 309,-499.5 309,-480.5 221,-480.5"/>
<text text-anchor="middle" x="265" y="-487.5" font-family="Helvetica,sans-Serif" font-size="10.00">i2c_common.h</text>
</a>
</g>
</g>
<!-- Node1&#45;&gt;Node2 -->
<g id="edge1" class="edge">
<title>Node1&#45;&gt;Node2</title>
<path fill="none" stroke="midnightblue" d="M388.61,-536.4C361.06,-526.28 324.33,-512.79 298.08,-503.15"/>
<polygon fill="midnightblue" stroke="midnightblue" points="299.17,-499.82 288.57,-499.66 296.75,-506.39 299.17,-499.82"/>
</g>
<!-- Node9 -->
<g id="node9" class="node">
<title>Node9</title>
<g id="a_node9"><a xlink:href="endian_8h.html" target="_top" xlink:title="エンディアンに関するものを定義する">
<polygon fill="white" stroke="black" points="459.5,-352 459.5,-371 572.5,-371 572.5,-352 459.5,-352"/>
<text text-anchor="middle" x="516" y="-359" font-family="Helvetica,sans-Serif" font-size="10.00">../../Library/endian.h</text>
</a>
</g>
</g>
<!-- Node1&#45;&gt;Node9 -->
<g id="edge30" class="edge">
<title>Node1&#45;&gt;Node9</title>
<path fill="none" stroke="midnightblue" d="M429.62,-536.34C432.58,-521.83 438.05,-498.8 446,-480 462.03,-442.11 488.42,-401.69 503.81,-379.52"/>
<polygon fill="midnightblue" stroke="midnightblue" points="506.78,-381.39 509.67,-371.19 501.05,-377.36 506.78,-381.39"/>
</g>
<!-- Node23 -->
<g id="node23" class="node">
<title>Node23</title>
<g id="a_node23"><a xlink:title=" ">
<polygon fill="white" stroke="#bfbfbf" points="455.5,-480.5 455.5,-499.5 508.5,-499.5 508.5,-480.5 455.5,-480.5"/>
<text text-anchor="middle" x="482" y="-487.5" font-family="Helvetica,sans-Serif" font-size="10.00">string.h</text>
</a>
</g>
</g>
<!-- Node1&#45;&gt;Node23 -->
<g id="edge31" class="edge">
<title>Node1&#45;&gt;Node23</title>
<path fill="none" stroke="midnightblue" d="M440.03,-536.4C448.19,-527.58 458.72,-516.18 467.19,-507.02"/>
<polygon fill="midnightblue" stroke="midnightblue" points="469.78,-509.38 474,-499.66 464.64,-504.63 469.78,-509.38"/>
</g>
<!-- Node3 -->
<g id="node3" class="node">
<title>Node3</title>
<g id="a_node3"><a xlink:href="driver__super_8h.html" target="_top" xlink:title="各制御センサ・アクチュエータ等とのインターフェースドライバ群のスーパークラス">
<polygon fill="white" stroke="black" points="214.5,-413.5 214.5,-443.5 315.5,-443.5 315.5,-413.5 214.5,-413.5"/>
<text text-anchor="start" x="222.5" y="-431.5" font-family="Helvetica,sans-Serif" font-size="10.00">../../Drivers/Super</text>
<text text-anchor="middle" x="265" y="-420.5" font-family="Helvetica,sans-Serif" font-size="10.00">/driver_super.h</text>
</a>
</g>
</g>
<!-- Node2&#45;&gt;Node3 -->
<g id="edge2" class="edge">
<title>Node2&#45;&gt;Node3</title>
<path fill="none" stroke="midnightblue" d="M265,-480.48C265,-473.47 265,-463.19 265,-453.7"/>
<polygon fill="midnightblue" stroke="midnightblue" points="268.5,-453.52 265,-443.52 261.5,-453.52 268.5,-453.52"/>
</g>
<!-- Node22 -->
<g id="node22" class="node">
<title>Node22</title>
<g id="a_node22"><a xlink:href="i2c_8h.html" target="_top" xlink:title="I2C通信(Master側)のラッパークラスです。">
<polygon fill="white" stroke="black" points="68.5,-419 68.5,-438 117.5,-438 117.5,-419 68.5,-419"/>
<text text-anchor="middle" x="93" y="-426" font-family="Helvetica,sans-Serif" font-size="10.00">../i2c.h</text>
</a>
</g>
</g>
<!-- Node2&#45;&gt;Node22 -->
<g id="edge28" class="edge">
<title>Node2&#45;&gt;Node22</title>
<path fill="none" stroke="midnightblue" d="M240.36,-480.48C210.72,-470.22 160.82,-452.96 127.4,-441.4"/>
<polygon fill="midnightblue" stroke="midnightblue" points="128.19,-437.97 117.6,-438.01 125.9,-444.59 128.19,-437.97"/>
</g>
<!-- Node4 -->
<g id="node4" class="node">
<title>Node4</title>
<g id="a_node4"><a xlink:href="if__list_8h.html" target="_top" xlink:title=" ">
<polygon fill="white" stroke="black" points="125,-207 125,-237 233,-237 233,-207 125,-207"/>
<text text-anchor="start" x="133" y="-225" font-family="Helvetica,sans-Serif" font-size="10.00">src_user/IfWrapper</text>
<text text-anchor="middle" x="179" y="-214" font-family="Helvetica,sans-Serif" font-size="10.00">/if_list.h</text>
</a>
</g>
</g>
<!-- Node3&#45;&gt;Node4 -->
<g id="edge3" class="edge">
<title>Node3&#45;&gt;Node4</title>
<path fill="none" stroke="midnightblue" d="M262.89,-413.32C260.16,-396.78 254.69,-368.81 246,-346 232.02,-309.29 209,-269.93 193.92,-245.88"/>
<polygon fill="midnightblue" stroke="midnightblue" points="196.69,-243.72 188.37,-237.16 190.78,-247.47 196.69,-243.72"/>
</g>
<!-- Node6 -->
<g id="node6" class="node">
<title>Node6</title>
<g id="a_node6"><a xlink:href="stdint_8h.html" target="_top" xlink:title=" ">
<polygon fill="white" stroke="black" points="179,-67.5 179,-86.5 313,-86.5 313,-67.5 179,-67.5"/>
<text text-anchor="middle" x="246" y="-74.5" font-family="Helvetica,sans-Serif" font-size="10.00">src_user/Library/stdint.h</text>
</a>
</g>
</g>
<!-- Node3&#45;&gt;Node6 -->
<g id="edge9" class="edge">
<title>Node3&#45;&gt;Node6</title>
<path fill="none" stroke="midnightblue" d="M214.38,-426.93C170.85,-423.81 108.94,-412.73 69,-377 40.11,-351.16 38,-334.25 38,-295.5 38,-295.5 38,-295.5 38,-221 38,-181.42 30.05,-162.99 57,-134 85.55,-103.28 130.08,-89.14 168.74,-82.74"/>
<polygon fill="midnightblue" stroke="midnightblue" points="169.59,-86.16 178.95,-81.21 168.54,-79.24 169.59,-86.16"/>
</g>
<!-- Node3&#45;&gt;Node9 -->
<g id="edge10" class="edge">
<title>Node3&#45;&gt;Node9</title>
<path fill="none" stroke="midnightblue" d="M315.79,-414.35C362.04,-402.37 429.57,-384.88 473.15,-373.6"/>
<polygon fill="midnightblue" stroke="midnightblue" points="474.08,-376.97 482.88,-371.08 472.32,-370.2 474.08,-376.97"/>
</g>
<!-- Node11 -->
<g id="node11" class="node">
<title>Node11</title>
<g id="a_node11"><a xlink:href="time__manager_8h.html" target="_top" xlink:title="OBC時刻のカウントアップと，各種衛星時刻関連処理">
<polygon fill="white" stroke="black" points="299,-346.5 299,-376.5 441,-376.5 441,-346.5 299,-346.5"/>
<text text-anchor="start" x="307" y="-364.5" font-family="Helvetica,sans-Serif" font-size="10.00">../../System/TimeManager</text>
<text text-anchor="middle" x="370" y="-353.5" font-family="Helvetica,sans-Serif" font-size="10.00">/time_manager.h</text>
</a>
</g>
</g>
<!-- Node3&#45;&gt;Node11 -->
<g id="edge12" class="edge">
<title>Node3&#45;&gt;Node11</title>
<path fill="none" stroke="midnightblue" d="M287.78,-413.4C302.64,-404.2 322.24,-392.07 338.57,-381.95"/>
<polygon fill="midnightblue" stroke="midnightblue" points="340.6,-384.82 347.26,-376.58 336.92,-378.86 340.6,-384.82"/>
</g>
<!-- Node21 -->
<g id="node21" class="node">
<title>Node21</title>
<g id="a_node21"><a xlink:href="driver__super__params_8h.html" target="_top" xlink:title="DriverSuperパラメタのオーバーライド用ヘッダー">
<polygon fill="white" stroke="black" points="78.5,-346.5 78.5,-376.5 237.5,-376.5 237.5,-346.5 78.5,-346.5"/>
<text text-anchor="start" x="86.5" y="-364.5" font-family="Helvetica,sans-Serif" font-size="10.00">src_user/Settings/Driver</text>
<text text-anchor="middle" x="158" y="-353.5" font-family="Helvetica,sans-Serif" font-size="10.00">Super/driver_super_params.h</text>
</a>
</g>
</g>
<!-- Node3&#45;&gt;Node21 -->
<g id="edge27" class="edge">
<title>Node3&#45;&gt;Node21</title>
<path fill="none" stroke="midnightblue" d="M241.78,-413.4C226.64,-404.2 206.67,-392.07 190.03,-381.95"/>
<polygon fill="midnightblue" stroke="midnightblue" points="191.54,-378.78 181.17,-376.58 187.9,-384.76 191.54,-378.78"/>
</g>
<!-- Node5 -->
<g id="node5" class="node">
<title>Node5</title>
<g id="a_node5"><a xlink:href="ccsds_8h.html" target="_top" xlink:title="CCSDS通信ラッパーのクラスです。(MOBC用 バックグラウンド取り込みVer)">
<polygon fill="white" stroke="black" points="66,-134.5 66,-164.5 174,-164.5 174,-134.5 66,-134.5"/>
<text text-anchor="start" x="74" y="-152.5" font-family="Helvetica,sans-Serif" font-size="10.00">src_core/IfWrapper</text>
<text text-anchor="middle" x="120" y="-141.5" font-family="Helvetica,sans-Serif" font-size="10.00">/ccsds.h</text>
</a>
</g>
</g>
<!-- Node4&#45;&gt;Node5 -->
<g id="edge4" class="edge">
<title>Node4&#45;&gt;Node5</title>
<path fill="none" stroke="midnightblue" d="M167.06,-206.73C158.82,-196.89 147.71,-183.62 138.36,-172.44"/>
<polygon fill="midnightblue" stroke="midnightblue" points="141.02,-170.17 131.92,-164.75 135.66,-174.66 141.02,-170.17"/>
</g>
<!-- Node8 -->
<g id="node8" class="node">
<title>Node8</title>
<g id="a_node8"><a xlink:href="uart_8h.html" target="_top" xlink:title="UART通信ラッパーのクラスです。">
<polygon fill="white" stroke="black" points="192,-134.5 192,-164.5 300,-164.5 300,-134.5 192,-134.5"/>
<text text-anchor="start" x="200" y="-152.5" font-family="Helvetica,sans-Serif" font-size="10.00">src_core/IfWrapper</text>
<text text-anchor="middle" x="246" y="-141.5" font-family="Helvetica,sans-Serif" font-size="10.00">/uart.h</text>
</a>
</g>
</g>
<!-- Node4&#45;&gt;Node8 -->
<g id="edge7" class="edge">
<title>Node4&#45;&gt;Node8</title>
<path fill="none" stroke="midnightblue" d="M192.56,-206.73C202,-196.8 214.77,-183.36 225.46,-172.11"/>
<polygon fill="midnightblue" stroke="midnightblue" points="228.11,-174.41 232.46,-164.75 223.04,-169.58 228.11,-174.41"/>
</g>
<!-- Node5&#45;&gt;Node6 -->
<g id="edge5" class="edge">
<title>Node5&#45;&gt;Node6</title>
<path fill="none" stroke="midnightblue" d="M145.2,-134.4C167.47,-121.94 199.74,-103.88 221.73,-91.58"/>
<polygon fill="midnightblue" stroke="midnightblue" points="223.73,-94.47 230.75,-86.53 220.31,-88.36 223.73,-94.47"/>
</g>
<!-- Node7 -->
<g id="node7" class="node">
<title>Node7</title>
<g id="a_node7"><a xlink:href="sils__define_8h.html" target="_top" xlink:title="Switch the build settings between your real OBC and SILS">
<polygon fill="white" stroke="black" points="181.5,-0.5 181.5,-19.5 310.5,-19.5 310.5,-0.5 181.5,-0.5"/>
<text text-anchor="middle" x="246" y="-7.5" font-family="Helvetica,sans-Serif" font-size="10.00">../Settings/sils_define.h</text>
</a>
</g>
</g>
<!-- Node6&#45;&gt;Node7 -->
<g id="edge6" class="edge">
<title>Node6&#45;&gt;Node7</title>
<path fill="none" stroke="midnightblue" d="M246,-67.23C246,-57.68 246,-42.12 246,-29.78"/>
<polygon fill="midnightblue" stroke="midnightblue" points="249.5,-29.63 246,-19.63 242.5,-29.63 249.5,-29.63"/>
</g>
<!-- Node8&#45;&gt;Node6 -->
<g id="edge8" class="edge">
<title>Node8&#45;&gt;Node6</title>
<path fill="none" stroke="midnightblue" d="M246,-134.23C246,-123.5 246,-108.69 246,-96.96"/>
<polygon fill="midnightblue" stroke="midnightblue" points="249.5,-96.89 246,-86.89 242.5,-96.89 249.5,-96.89"/>
</g>
<!-- Node10 -->
<g id="node10" class="node">
<title>Node10</title>
<g id="a_node10"><a xlink:title=" ">
<polygon fill="white" stroke="#bfbfbf" points="491,-285 491,-304 547,-304 547,-285 491,-285"/>
<text text-anchor="middle" x="519" y="-292" font-family="Helvetica,sans-Serif" font-size="10.00">stddef.h</text>
</a>
</g>
</g>
<!-- Node9&#45;&gt;Node10 -->
<g id="edge11" class="edge">
<title>Node9&#45;&gt;Node10</title>
<path fill="none" stroke="midnightblue" d="M516.4,-351.73C516.85,-342.18 517.56,-326.62 518.13,-314.28"/>
<polygon fill="midnightblue" stroke="midnightblue" points="521.64,-314.28 518.6,-304.13 514.64,-313.96 521.64,-314.28"/>
</g>
<!-- Node12 -->
<g id="node12" class="node">
<title>Node12</title>
<g id="a_node12"><a xlink:href="obc__time_8h.html" target="_top" xlink:title="OBCの時刻情報の定義と演算">
<polygon fill="white" stroke="black" points="837.5,-212.5 837.5,-231.5 908.5,-231.5 908.5,-212.5 837.5,-212.5"/>
<text text-anchor="middle" x="873" y="-219.5" font-family="Helvetica,sans-Serif" font-size="10.00">obc_time.h</text>
</a>
</g>
</g>
<!-- Node11&#45;&gt;Node12 -->
<g id="edge13" class="edge">
<title>Node11&#45;&gt;Node12</title>
<path fill="none" stroke="midnightblue" d="M391.71,-346.39C406.64,-336.52 426.8,-322.85 444,-310 461.46,-296.96 461.87,-287.37 482,-279 624.76,-219.65 678.63,-282.89 828,-243 834.5,-241.26 841.27,-238.7 847.51,-235.99"/>
<polygon fill="midnightblue" stroke="midnightblue" points="849.18,-239.07 856.79,-231.7 846.24,-232.72 849.18,-239.07"/>
</g>
<!-- Node14 -->
<g id="node14" class="node">
<title>Node14</title>
<g id="a_node14"><a xlink:href="common__cmd__packet_8h.html" target="_top" xlink:title="CCP 関連基本関数の宣言">
<polygon fill="white" stroke="black" points="313,-279.5 313,-309.5 435,-309.5 435,-279.5 313,-279.5"/>
<text text-anchor="start" x="321" y="-297.5" font-family="Helvetica,sans-Serif" font-size="10.00">../../TlmCmd/common</text>
<text text-anchor="middle" x="374" y="-286.5" font-family="Helvetica,sans-Serif" font-size="10.00">_cmd_packet.h</text>
</a>
</g>
</g>
<!-- Node11&#45;&gt;Node14 -->
<g id="edge16" class="edge">
<title>Node11&#45;&gt;Node14</title>
<path fill="none" stroke="midnightblue" d="M370.87,-346.4C371.35,-338.56 371.96,-328.6 372.52,-319.57"/>
<polygon fill="midnightblue" stroke="midnightblue" points="376.01,-319.77 373.13,-309.58 369.03,-319.34 376.01,-319.77"/>
</g>
<!-- Node12&#45;&gt;Node6 -->
<g id="edge14" class="edge">
<title>Node12&#45;&gt;Node6</title>
<path fill="none" stroke="midnightblue" d="M855.26,-212.48C847.07,-208.71 837.14,-204.37 828,-201 729.7,-164.76 704.19,-157.08 602,-134 506.85,-112.51 395.54,-96.42 323.06,-87.13"/>
<polygon fill="midnightblue" stroke="midnightblue" points="323.46,-83.65 313.1,-85.87 322.58,-90.6 323.46,-83.65"/>
</g>
<!-- Node13 -->
<g id="node13" class="node">
<title>Node13</title>
<g id="a_node13"><a xlink:href="obc__time__params_8h.html" target="_top" xlink:title="OBCTのCoreパラメタのオーバーライド用ヘッダー">
<polygon fill="white" stroke="black" points="803,-134.5 803,-164.5 943,-164.5 943,-134.5 803,-134.5"/>
<text text-anchor="start" x="811" y="-152.5" font-family="Helvetica,sans-Serif" font-size="10.00">src_user/Settings/System</text>
<text text-anchor="middle" x="873" y="-141.5" font-family="Helvetica,sans-Serif" font-size="10.00">/obc_time_params.h</text>
</a>
</g>
</g>
<!-- Node12&#45;&gt;Node13 -->
<g id="edge15" class="edge">
<title>Node12&#45;&gt;Node13</title>
<path fill="none" stroke="midnightblue" d="M873,-212.36C873,-203.05 873,-187.83 873,-174.81"/>
<polygon fill="midnightblue" stroke="midnightblue" points="876.5,-174.58 873,-164.58 869.5,-174.58 876.5,-174.58"/>
</g>
<!-- Node14&#45;&gt;Node12 -->
<g id="edge17" class="edge">
<title>Node14&#45;&gt;Node12</title>
<path fill="none" stroke="midnightblue" d="M435.31,-281.15C439.94,-280.37 444.54,-279.64 449,-279 616.48,-254.91 664.33,-285.92 828,-243 834.62,-241.26 841.5,-238.66 847.83,-235.89"/>
<polygon fill="midnightblue" stroke="midnightblue" points="849.62,-238.92 857.21,-231.53 846.67,-232.58 849.62,-238.92"/>
</g>
<!-- Node15 -->
<g id="node15" class="node">
<title>Node15</title>
<g id="a_node15"><a xlink:href="command__definitions_8h.html" target="_top" xlink:title="コマンド定義">
<polygon fill="white" stroke="black" points="477.5,-207 477.5,-237 630.5,-237 630.5,-207 477.5,-207"/>
<text text-anchor="start" x="485.5" y="-225" font-family="Helvetica,sans-Serif" font-size="10.00">src_user/TlmCmd/command</text>
<text text-anchor="middle" x="554" y="-214" font-family="Helvetica,sans-Serif" font-size="10.00">_definitions.h</text>
</a>
</g>
</g>
<!-- Node14&#45;&gt;Node15 -->
<g id="edge18" class="edge">
<title>Node14&#45;&gt;Node15</title>
<path fill="none" stroke="midnightblue" d="M409.99,-279.4C438.32,-268.31 477.98,-252.78 508.5,-240.82"/>
<polygon fill="midnightblue" stroke="midnightblue" points="510.03,-243.98 518.07,-237.07 507.48,-237.46 510.03,-243.98"/>
</g>
<!-- Node16 -->
<g id="node16" class="node">
<title>Node16</title>
<g id="a_node16"><a xlink:href="common__cmd__packet__define_8h.html" target="_top" xlink:title="CCP 型の定義">
<polygon fill="white" stroke="black" points="289,-207 289,-237 459,-237 459,-207 289,-207"/>
<text text-anchor="start" x="297" y="-225" font-family="Helvetica,sans-Serif" font-size="10.00">src_user/Settings/TlmCmd</text>
<text text-anchor="middle" x="374" y="-214" font-family="Helvetica,sans-Serif" font-size="10.00">/common_cmd_packet_define.h</text>
</a>
</g>
</g>
<!-- Node14&#45;&gt;Node16 -->
<g id="edge19" class="edge">
<title>Node14&#45;&gt;Node16</title>
<path fill="none" stroke="midnightblue" d="M374,-279.23C374,-270.16 374,-258.16 374,-247.58"/>
<polygon fill="midnightblue" stroke="midnightblue" points="377.5,-247.25 374,-237.25 370.5,-247.25 377.5,-247.25"/>
</g>
<!-- Node19 -->
<g id="node19" class="node">
<title>Node19</title>
<g id="a_node19"><a xlink:href="apid__define_8h.html" target="_top" xlink:title="CCSDS の APID を定義する">
<polygon fill="white" stroke="black" points="318.5,-140 318.5,-159 437.5,-159 437.5,-140 318.5,-140"/>
<text text-anchor="middle" x="378" y="-147" font-family="Helvetica,sans-Serif" font-size="10.00">./Ccsds/apid_define.h</text>
</a>
</g>
</g>
<!-- Node14&#45;&gt;Node19 -->
<g id="edge25" class="edge">
<title>Node14&#45;&gt;Node19</title>
<path fill="none" stroke="midnightblue" d="M325.88,-279.38C308.26,-271.63 290.17,-260.01 280,-243 270.42,-226.98 270.28,-216.94 280,-201 291.47,-182.18 312.45,-170.07 332.07,-162.45"/>
<polygon fill="midnightblue" stroke="midnightblue" points="333.31,-165.72 341.54,-159.06 330.94,-159.13 333.31,-165.72"/>
</g>
<!-- Node20 -->
<g id="node20" class="node">
<title>Node20</title>
<g id="a_node20"><a xlink:href="timeline__command__dispatcher__define_8h.html" target="_top" xlink:title="timeline command dispatcher の各種定義">
<polygon fill="white" stroke="black" points="649,-201.5 649,-242.5 819,-242.5 819,-201.5 649,-201.5"/>
<text text-anchor="start" x="657" y="-230.5" font-family="Helvetica,sans-Serif" font-size="10.00">src_user/Settings/Applications</text>
<text text-anchor="start" x="657" y="-219.5" font-family="Helvetica,sans-Serif" font-size="10.00">/timeline_command_dispatcher</text>
<text text-anchor="middle" x="734" y="-208.5" font-family="Helvetica,sans-Serif" font-size="10.00">_define.h</text>
</a>
</g>
</g>
<!-- Node14&#45;&gt;Node20 -->
<g id="edge26" class="edge">
<title>Node14&#45;&gt;Node20</title>
<path fill="none" stroke="midnightblue" d="M435.39,-281.61C440,-280.72 444.57,-279.85 449,-279 530.79,-263.39 553.67,-260.21 639.09,-243.16"/>
<polygon fill="midnightblue" stroke="midnightblue" points="639.85,-246.58 648.96,-241.19 638.47,-239.72 639.85,-246.58"/>
</g>
<!-- Node17 -->
<g id="node17" class="node">
<title>Node17</title>
<g id="a_node17"><a xlink:href="space__packet__typedef_8h.html" target="_top" xlink:title="SpacePacket 類 と CommonTlmCmdPacket 類が相互参照するのを回避するためのヘッダ">
<polygon fill="white" stroke="black" points="455.5,-134.5 455.5,-164.5 592.5,-164.5 592.5,-134.5 455.5,-134.5"/>
<text text-anchor="start" x="463.5" y="-152.5" font-family="Helvetica,sans-Serif" font-size="10.00">src_core/TlmCmd/Ccsds</text>
<text text-anchor="middle" x="524" y="-141.5" font-family="Helvetica,sans-Serif" font-size="10.00">/space_packet_typedef.h</text>
</a>
</g>
</g>
<!-- Node16&#45;&gt;Node17 -->
<g id="edge20" class="edge">
<title>Node16&#45;&gt;Node17</title>
<path fill="none" stroke="midnightblue" d="M403.99,-206.9C427.19,-196 459.51,-180.81 484.76,-168.94"/>
<polygon fill="midnightblue" stroke="midnightblue" points="486.5,-171.99 494.06,-164.57 483.52,-165.66 486.5,-171.99"/>
</g>
<!-- Node16&#45;&gt;Node19 -->
<g id="edge23" class="edge">
<title>Node16&#45;&gt;Node19</title>
<path fill="none" stroke="midnightblue" d="M374.81,-206.73C375.42,-196 376.26,-181.19 376.92,-169.46"/>
<polygon fill="midnightblue" stroke="midnightblue" points="380.42,-169.58 377.5,-159.39 373.43,-169.18 380.42,-169.58"/>
</g>
<!-- Node17&#45;&gt;Node6 -->
<g id="edge21" class="edge">
<title>Node17&#45;&gt;Node6</title>
<path fill="none" stroke="midnightblue" d="M468.74,-134.49C416.12,-121.14 337.95,-101.32 289.58,-89.05"/>
<polygon fill="midnightblue" stroke="midnightblue" points="290.29,-85.62 279.73,-86.55 288.57,-92.41 290.29,-85.62"/>
</g>
<!-- Node18 -->
<g id="node18" class="node">
<title>Node18</title>
<g id="a_node18"><a xlink:href="space__packet__typedef__params_8h.html" target="_top" xlink:title="SpacePacketの パケット型に関するユーザー設定">
<polygon fill="white" stroke="black" points="444,-56.5 444,-97.5 604,-97.5 604,-56.5 444,-56.5"/>
<text text-anchor="start" x="452" y="-85.5" font-family="Helvetica,sans-Serif" font-size="10.00">src_user/Settings/TlmCmd</text>
<text text-anchor="start" x="452" y="-74.5" font-family="Helvetica,sans-Serif" font-size="10.00">/Ccsds/space_packet_typedef</text>
<text text-anchor="middle" x="524" y="-63.5" font-family="Helvetica,sans-Serif" font-size="10.00">_params.h</text>
</a>
</g>
</g>
<!-- Node17&#45;&gt;Node18 -->
<g id="edge22" class="edge">
<title>Node17&#45;&gt;Node18</title>
<path fill="none" stroke="midnightblue" d="M524,-134.23C524,-126.57 524,-116.84 524,-107.63"/>
<polygon fill="midnightblue" stroke="midnightblue" points="527.5,-107.59 524,-97.59 520.5,-107.59 527.5,-107.59"/>
</g>
<!-- Node19&#45;&gt;Node6 -->
<g id="edge24" class="edge">
<title>Node19&#45;&gt;Node6</title>
<path fill="none" stroke="midnightblue" d="M362.08,-140C339.48,-127.93 297.89,-105.71 271.11,-91.41"/>
<polygon fill="midnightblue" stroke="midnightblue" points="272.45,-88.16 261.98,-86.53 269.15,-94.33 272.45,-88.16"/>
</g>
<!-- Node22&#45;&gt;Node6 -->
<g id="edge29" class="edge">
<title>Node22&#45;&gt;Node6</title>
<path fill="none" stroke="midnightblue" d="M80.84,-418.79C55.63,-399.61 0,-351.01 0,-295.5 0,-295.5 0,-295.5 0,-221 0,-179.15 4.53,-161.58 36,-134 72.46,-102.05 125.23,-88.06 168.74,-82.06"/>
<polygon fill="midnightblue" stroke="midnightblue" points="169.25,-85.52 178.73,-80.8 168.37,-78.58 169.25,-85.52"/>
</g>
</g>
</svg>
