<?xml version="1.0" encoding="UTF-8" standalone="no"?>
<!DOCTYPE svg PUBLIC "-//W3C//DTD SVG 1.1//EN"
 "http://www.w3.org/Graphics/SVG/1.1/DTD/svg11.dtd">
<!-- Generated by graphviz version 2.43.0 (0)
 -->
<!-- Title: src/src_user/TlmCmd/Ccsds/m_pdu.c Pages: 1 -->
<svg width="173pt" height="218pt"
 viewBox="0.00 0.00 172.50 218.00" xmlns="http://www.w3.org/2000/svg" xmlns:xlink="http://www.w3.org/1999/xlink">
<g id="graph0" class="graph" transform="scale(1 1) rotate(0) translate(4 214)">
<title>src/src_user/TlmCmd/Ccsds/m_pdu.c</title>
<polygon fill="white" stroke="transparent" points="-4,4 -4,-214 168.5,-214 168.5,4 -4,4"/>
<!-- Node1 -->
<g id="node1" class="node">
<title>Node1</title>
<g id="a_node1"><a xlink:title=" ">
<polygon fill="#bfbfbf" stroke="black" points="41.5,-179.5 41.5,-209.5 160.5,-209.5 160.5,-179.5 41.5,-179.5"/>
<text text-anchor="start" x="49.5" y="-197.5" font-family="Helvetica,sans-Serif" font-size="10.00">src/src_user/TlmCmd</text>
<text text-anchor="middle" x="101" y="-186.5" font-family="Helvetica,sans-Serif" font-size="10.00">/Ccsds/m_pdu.c</text>
</a>
</g>
</g>
<!-- Node2 -->
<g id="node2" class="node">
<title>Node2</title>
<g id="a_node2"><a xlink:href="m__pdu_8h.html" target="_top" xlink:title=" ">
<polygon fill="white" stroke="black" points="34.5,-123.5 34.5,-142.5 93.5,-142.5 93.5,-123.5 34.5,-123.5"/>
<text text-anchor="middle" x="64" y="-130.5" font-family="Helvetica,sans-Serif" font-size="10.00">m_pdu.h</text>
</a>
</g>
</g>
<!-- Node1&#45;&gt;Node2 -->
<g id="edge1" class="edge">
<title>Node1&#45;&gt;Node2</title>
<path fill="none" stroke="midnightblue" d="M92.23,-179.4C87.02,-171.02 80.37,-160.33 74.83,-151.42"/>
<polygon fill="midnightblue" stroke="midnightblue" points="77.64,-149.3 69.38,-142.66 71.69,-153 77.64,-149.3"/>
</g>
<!-- Node6 -->
<g id="node6" class="node">
<title>Node6</title>
<g id="a_node6"><a xlink:title=" ">
<polygon fill="white" stroke="#bfbfbf" points="111.5,-123.5 111.5,-142.5 164.5,-142.5 164.5,-123.5 111.5,-123.5"/>
<text text-anchor="middle" x="138" y="-130.5" font-family="Helvetica,sans-Serif" font-size="10.00">string.h</text>
</a>
</g>
</g>
<!-- Node1&#45;&gt;Node6 -->
<g id="edge5" class="edge">
<title>Node1&#45;&gt;Node6</title>
<path fill="none" stroke="midnightblue" d="M109.77,-179.4C114.98,-171.02 121.63,-160.33 127.17,-151.42"/>
<polygon fill="midnightblue" stroke="midnightblue" points="130.31,-153 132.62,-142.66 124.36,-149.3 130.31,-153"/>
</g>
<!-- Node3 -->
<g id="node3" class="node">
<title>Node3</title>
<g id="a_node3"><a xlink:title=" ">
<polygon fill="white" stroke="#bfbfbf" points="0,-67.5 0,-86.5 56,-86.5 56,-67.5 0,-67.5"/>
<text text-anchor="middle" x="28" y="-74.5" font-family="Helvetica,sans-Serif" font-size="10.00">stddef.h</text>
</a>
</g>
</g>
<!-- Node2&#45;&gt;Node3 -->
<g id="edge2" class="edge">
<title>Node2&#45;&gt;Node3</title>
<path fill="none" stroke="midnightblue" d="M58.06,-123.08C53.02,-115.53 45.66,-104.49 39.49,-95.23"/>
<polygon fill="midnightblue" stroke="midnightblue" points="42.29,-93.13 33.83,-86.75 36.47,-97.01 42.29,-93.13"/>
</g>
<!-- Node4 -->
<g id="node4" class="node">
<title>Node4</title>
<g id="a_node4"><a xlink:href="stdint_8h.html" target="_top" xlink:title="C89 環境用 stdint.h">
<polygon fill="white" stroke="black" points="74.5,-67.5 74.5,-86.5 127.5,-86.5 127.5,-67.5 74.5,-67.5"/>
<text text-anchor="middle" x="101" y="-74.5" font-family="Helvetica,sans-Serif" font-size="10.00">stdint.h</text>
</a>
</g>
</g>
<!-- Node2&#45;&gt;Node4 -->
<g id="edge3" class="edge">
<title>Node2&#45;&gt;Node4</title>
<path fill="none" stroke="midnightblue" d="M70.11,-123.08C75.28,-115.53 82.85,-104.49 89.19,-95.23"/>
<polygon fill="midnightblue" stroke="midnightblue" points="92.24,-96.98 95,-86.75 86.46,-93.02 92.24,-96.98"/>
</g>
<!-- Node5 -->
<g id="node5" class="node">
<title>Node5</title>
<g id="a_node5"><a xlink:title=" ">
<polygon fill="white" stroke="#bfbfbf" points="38.5,-0.5 38.5,-30.5 163.5,-30.5 163.5,-0.5 38.5,-0.5"/>
<text text-anchor="start" x="46.5" y="-18.5" font-family="Helvetica,sans-Serif" font-size="10.00">src_user/Library/stdint</text>
<text text-anchor="middle" x="101" y="-7.5" font-family="Helvetica,sans-Serif" font-size="10.00">_impl.h</text>
</a>
</g>
</g>
<!-- Node4&#45;&gt;Node5 -->
<g id="edge4" class="edge">
<title>Node4&#45;&gt;Node5</title>
<path fill="none" stroke="midnightblue" d="M101,-67.48C101,-60.47 101,-50.19 101,-40.7"/>
<polygon fill="midnightblue" stroke="midnightblue" points="104.5,-40.52 101,-30.52 97.5,-40.52 104.5,-40.52"/>
</g>
</g>
</svg>
