<?xml version="1.0" encoding="UTF-8" standalone="no"?>
<!DOCTYPE svg PUBLIC "-//W3C//DTD SVG 1.1//EN"
 "http://www.w3.org/Graphics/SVG/1.1/DTD/svg11.dtd">
<!-- Generated by graphviz version 2.43.0 (0)
 -->
<!-- Title: src/src_core/System/ModeManager/mode_manager.h Pages: 1 -->
<svg width="1285pt" height="463pt"
 viewBox="0.00 0.00 1284.93 463.00" xmlns="http://www.w3.org/2000/svg" xmlns:xlink="http://www.w3.org/1999/xlink">
<g id="graph0" class="graph" transform="scale(1 1) rotate(0) translate(4 459)">
<title>src/src_core/System/ModeManager/mode_manager.h</title>
<polygon fill="white" stroke="transparent" points="-4,4 -4,-459 1280.93,-459 1280.93,4 -4,4"/>
<!-- Node1 -->
<g id="node1" class="node">
<title>Node1</title>
<g id="a_node1"><a xlink:title="モード遷移の制御の定義">
<polygon fill="#bfbfbf" stroke="black" points="814.93,-424.5 814.93,-454.5 991.93,-454.5 991.93,-424.5 814.93,-424.5"/>
<text text-anchor="start" x="822.93" y="-442.5" font-family="Helvetica,sans-Serif" font-size="10.00">src/src_core/System</text>
<text text-anchor="middle" x="903.43" y="-431.5" font-family="Helvetica,sans-Serif" font-size="10.00">/ModeManager/mode_manager.h</text>
</a>
</g>
</g>
<!-- Node2 -->
<g id="node2" class="node">
<title>Node2</title>
<g id="a_node2"><a xlink:href="obc__time_8h.html" target="_top" xlink:title="OBCの時刻情報の定義と演算">
<polygon fill="white" stroke="black" points="891.93,-145.5 891.93,-175.5 1004.93,-175.5 1004.93,-145.5 891.93,-145.5"/>
<text text-anchor="start" x="899.93" y="-163.5" font-family="Helvetica,sans-Serif" font-size="10.00">../TimeManager/obc</text>
<text text-anchor="middle" x="948.43" y="-152.5" font-family="Helvetica,sans-Serif" font-size="10.00">_time.h</text>
</a>
</g>
</g>
<!-- Node1&#45;&gt;Node2 -->
<g id="edge1" class="edge">
<title>Node1&#45;&gt;Node2</title>
<path fill="none" stroke="midnightblue" d="M875.71,-424.46C862.1,-415.94 847.03,-403.67 839.43,-388 820.43,-348.81 824.43,-330.89 839.43,-290 855.87,-245.2 895.62,-205.32 922.29,-182.28"/>
<polygon fill="midnightblue" stroke="midnightblue" points="924.73,-184.8 930.11,-175.68 920.21,-179.45 924.73,-184.8"/>
</g>
<!-- Node6 -->
<g id="node6" class="node">
<title>Node6</title>
<g id="a_node6"><a xlink:href="mode__definitions_8h.html" target="_top" xlink:title="モード定義とモード遷移定義">
<polygon fill="white" stroke="black" points="976.93,-357.5 976.93,-387.5 1111.93,-387.5 1111.93,-357.5 976.93,-357.5"/>
<text text-anchor="start" x="984.93" y="-375.5" font-family="Helvetica,sans-Serif" font-size="10.00">src_user/Settings/Modes</text>
<text text-anchor="middle" x="1044.43" y="-364.5" font-family="Helvetica,sans-Serif" font-size="10.00">/mode_definitions.h</text>
</a>
</g>
</g>
<!-- Node1&#45;&gt;Node6 -->
<g id="edge5" class="edge">
<title>Node1&#45;&gt;Node6</title>
<path fill="none" stroke="midnightblue" d="M934.03,-424.4C954.72,-414.86 982.25,-402.16 1004.65,-391.84"/>
<polygon fill="midnightblue" stroke="midnightblue" points="1006.28,-394.94 1013.9,-387.58 1003.35,-388.58 1006.28,-394.94"/>
</g>
<!-- Node7 -->
<g id="node7" class="node">
<title>Node7</title>
<g id="a_node7"><a xlink:href="common__tlm__cmd__packet_8h.html" target="_top" xlink:title="CTCP 関連基本関数の宣言">
<polygon fill="white" stroke="black" points="637.43,-290.5 637.43,-320.5 759.43,-320.5 759.43,-290.5 637.43,-290.5"/>
<text text-anchor="start" x="645.43" y="-308.5" font-family="Helvetica,sans-Serif" font-size="10.00">../../TlmCmd/common</text>
<text text-anchor="middle" x="698.43" y="-297.5" font-family="Helvetica,sans-Serif" font-size="10.00">_tlm_cmd_packet.h</text>
</a>
</g>
</g>
<!-- Node1&#45;&gt;Node7 -->
<g id="edge6" class="edge">
<title>Node1&#45;&gt;Node7</title>
<path fill="none" stroke="midnightblue" d="M873.43,-424.49C853.89,-414.98 828.1,-401.68 806.43,-388 776.62,-369.18 744.65,-344.41 723.29,-327.14"/>
<polygon fill="midnightblue" stroke="midnightblue" points="725.34,-324.3 715.38,-320.69 720.92,-329.73 725.34,-324.3"/>
</g>
<!-- Node18 -->
<g id="node18" class="node">
<title>Node18</title>
<g id="a_node18"><a xlink:href="block__command__table_8h.html" target="_top" xlink:title="BCTの定義, BCT周りの関数">
<polygon fill="white" stroke="black" points="848.43,-357.5 848.43,-387.5 958.43,-387.5 958.43,-357.5 848.43,-357.5"/>
<text text-anchor="start" x="856.43" y="-375.5" font-family="Helvetica,sans-Serif" font-size="10.00">../../TlmCmd/block</text>
<text text-anchor="middle" x="903.43" y="-364.5" font-family="Helvetica,sans-Serif" font-size="10.00">_command_table.h</text>
</a>
</g>
</g>
<!-- Node1&#45;&gt;Node18 -->
<g id="edge24" class="edge">
<title>Node1&#45;&gt;Node18</title>
<path fill="none" stroke="midnightblue" d="M903.43,-424.4C903.43,-416.64 903.43,-406.81 903.43,-397.86"/>
<polygon fill="midnightblue" stroke="midnightblue" points="906.93,-397.58 903.43,-387.58 899.93,-397.58 906.93,-397.58"/>
</g>
<!-- Node20 -->
<g id="node20" class="node">
<title>Node20</title>
<g id="a_node20"><a xlink:href="mode__manager__params_8h.html" target="_top" xlink:title="ModeMangaer のパラメーターオーバーライト">
<polygon fill="white" stroke="black" points="1129.93,-357.5 1129.93,-387.5 1276.93,-387.5 1276.93,-357.5 1129.93,-357.5"/>
<text text-anchor="start" x="1137.93" y="-375.5" font-family="Helvetica,sans-Serif" font-size="10.00">src_user/Settings/Modes</text>
<text text-anchor="middle" x="1203.43" y="-364.5" font-family="Helvetica,sans-Serif" font-size="10.00">/mode_manager_params.h</text>
</a>
</g>
</g>
<!-- Node1&#45;&gt;Node20 -->
<g id="edge28" class="edge">
<title>Node1&#45;&gt;Node20</title>
<path fill="none" stroke="midnightblue" d="M968.16,-424.48C1015.29,-414.26 1079.25,-400.41 1128.59,-389.72"/>
<polygon fill="midnightblue" stroke="midnightblue" points="1129.53,-393.09 1138.56,-387.55 1128.05,-386.25 1129.53,-393.09"/>
</g>
<!-- Node3 -->
<g id="node3" class="node">
<title>Node3</title>
<g id="a_node3"><a xlink:href="stdint_8h.html" target="_top" xlink:title=" ">
<polygon fill="white" stroke="black" points="985.43,-84 985.43,-103 1119.43,-103 1119.43,-84 985.43,-84"/>
<text text-anchor="middle" x="1052.43" y="-91" font-family="Helvetica,sans-Serif" font-size="10.00">src_user/Library/stdint.h</text>
</a>
</g>
</g>
<!-- Node2&#45;&gt;Node3 -->
<g id="edge2" class="edge">
<title>Node2&#45;&gt;Node3</title>
<path fill="none" stroke="midnightblue" d="M971,-145.4C988.44,-134.5 1012.47,-119.48 1029.9,-108.58"/>
<polygon fill="midnightblue" stroke="midnightblue" points="1032.2,-111.28 1038.82,-103.01 1028.49,-105.34 1032.2,-111.28"/>
</g>
<!-- Node5 -->
<g id="node5" class="node">
<title>Node5</title>
<g id="a_node5"><a xlink:href="obc__time__params_8h.html" target="_top" xlink:title="OBCTのCoreパラメタのオーバーライド用ヘッダー">
<polygon fill="white" stroke="black" points="827.43,-78.5 827.43,-108.5 967.43,-108.5 967.43,-78.5 827.43,-78.5"/>
<text text-anchor="start" x="835.43" y="-96.5" font-family="Helvetica,sans-Serif" font-size="10.00">src_user/Settings/System</text>
<text text-anchor="middle" x="897.43" y="-85.5" font-family="Helvetica,sans-Serif" font-size="10.00">/obc_time_params.h</text>
</a>
</g>
</g>
<!-- Node2&#45;&gt;Node5 -->
<g id="edge4" class="edge">
<title>Node2&#45;&gt;Node5</title>
<path fill="none" stroke="midnightblue" d="M937.37,-145.4C930.75,-136.96 922.2,-126.07 914.71,-116.52"/>
<polygon fill="midnightblue" stroke="midnightblue" points="917.4,-114.28 908.48,-108.58 911.9,-118.6 917.4,-114.28"/>
</g>
<!-- Node4 -->
<g id="node4" class="node">
<title>Node4</title>
<g id="a_node4"><a xlink:href="sils__define_8h.html" target="_top" xlink:title="Switch the build settings between your real OBC and SILS">
<polygon fill="white" stroke="black" points="987.93,-11.5 987.93,-30.5 1116.93,-30.5 1116.93,-11.5 987.93,-11.5"/>
<text text-anchor="middle" x="1052.43" y="-18.5" font-family="Helvetica,sans-Serif" font-size="10.00">../Settings/sils_define.h</text>
</a>
</g>
</g>
<!-- Node3&#45;&gt;Node4 -->
<g id="edge3" class="edge">
<title>Node3&#45;&gt;Node4</title>
<path fill="none" stroke="midnightblue" d="M1052.43,-83.86C1052.43,-73.18 1052.43,-54.72 1052.43,-40.73"/>
<polygon fill="midnightblue" stroke="midnightblue" points="1055.93,-40.72 1052.43,-30.72 1048.93,-40.72 1055.93,-40.72"/>
</g>
<!-- Node7&#45;&gt;Node3 -->
<g id="edge7" class="edge">
<title>Node7&#45;&gt;Node3</title>
<path fill="none" stroke="midnightblue" d="M759.53,-293.38C828.81,-277.93 941.44,-243.86 1013.43,-176 1031.67,-158.81 1042.33,-131.34 1047.77,-113.11"/>
<polygon fill="midnightblue" stroke="midnightblue" points="1051.17,-113.93 1050.45,-103.36 1044.42,-112.08 1051.17,-113.93"/>
</g>
<!-- Node8 -->
<g id="node8" class="node">
<title>Node8</title>
<g id="a_node8"><a xlink:href="common__tlm__cmd__packet__define_8h.html" target="_top" xlink:title="CTCP 型の定義">
<polygon fill="white" stroke="black" points="62.43,-212.5 62.43,-253.5 210.43,-253.5 210.43,-212.5 62.43,-212.5"/>
<text text-anchor="start" x="70.43" y="-241.5" font-family="Helvetica,sans-Serif" font-size="10.00">src_user/Settings/TlmCmd</text>
<text text-anchor="start" x="70.43" y="-230.5" font-family="Helvetica,sans-Serif" font-size="10.00">/common_tlm_cmd_packet</text>
<text text-anchor="middle" x="136.43" y="-219.5" font-family="Helvetica,sans-Serif" font-size="10.00">_define.h</text>
</a>
</g>
</g>
<!-- Node7&#45;&gt;Node8 -->
<g id="edge8" class="edge">
<title>Node7&#45;&gt;Node8</title>
<path fill="none" stroke="midnightblue" d="M637.22,-296.82C536.42,-284.18 335.32,-258.95 221,-244.61"/>
<polygon fill="midnightblue" stroke="midnightblue" points="221.25,-241.11 210.89,-243.34 220.38,-248.06 221.25,-241.11"/>
</g>
<!-- Node11 -->
<g id="node11" class="node">
<title>Node11</title>
<g id="a_node11"><a xlink:href="common__tlm__packet_8h.html" target="_top" xlink:title="CTP 関連基本関数の宣言">
<polygon fill="white" stroke="black" points="375.43,-223.5 375.43,-242.5 509.43,-242.5 509.43,-223.5 375.43,-223.5"/>
<text text-anchor="middle" x="442.43" y="-230.5" font-family="Helvetica,sans-Serif" font-size="10.00">./common_tlm_packet.h</text>
</a>
</g>
</g>
<!-- Node7&#45;&gt;Node11 -->
<g id="edge11" class="edge">
<title>Node7&#45;&gt;Node11</title>
<path fill="none" stroke="midnightblue" d="M647.55,-290.49C599.39,-277.22 528.01,-257.57 483.41,-245.28"/>
<polygon fill="midnightblue" stroke="midnightblue" points="484.07,-241.84 473.5,-242.55 482.21,-248.58 484.07,-241.84"/>
</g>
<!-- Node14 -->
<g id="node14" class="node">
<title>Node14</title>
<g id="a_node14"><a xlink:href="apid__define_8h.html" target="_top" xlink:title="CCSDS の APID を定義する">
<polygon fill="white" stroke="black" points="370.43,-145.5 370.43,-175.5 514.43,-175.5 514.43,-145.5 370.43,-145.5"/>
<text text-anchor="start" x="378.43" y="-163.5" font-family="Helvetica,sans-Serif" font-size="10.00">src_user/Settings/TlmCmd</text>
<text text-anchor="middle" x="442.43" y="-152.5" font-family="Helvetica,sans-Serif" font-size="10.00">/Ccsds/apid_define.h</text>
</a>
</g>
</g>
<!-- Node7&#45;&gt;Node14 -->
<g id="edge23" class="edge">
<title>Node7&#45;&gt;Node14</title>
<path fill="none" stroke="midnightblue" d="M672.95,-290.27C626.66,-264.41 528.74,-209.71 476.67,-180.63"/>
<polygon fill="midnightblue" stroke="midnightblue" points="478.25,-177.5 467.81,-175.68 474.83,-183.61 478.25,-177.5"/>
</g>
<!-- Node15 -->
<g id="node15" class="node">
<title>Node15</title>
<g id="a_node15"><a xlink:href="common__cmd__packet_8h.html" target="_top" xlink:title="CCP 関連基本関数の宣言">
<polygon fill="white" stroke="black" points="629.43,-223.5 629.43,-242.5 767.43,-242.5 767.43,-223.5 629.43,-223.5"/>
<text text-anchor="middle" x="698.43" y="-230.5" font-family="Helvetica,sans-Serif" font-size="10.00">./common_cmd_packet.h</text>
</a>
</g>
</g>
<!-- Node7&#45;&gt;Node15 -->
<g id="edge17" class="edge">
<title>Node7&#45;&gt;Node15</title>
<path fill="none" stroke="midnightblue" d="M698.43,-290.23C698.43,-279.5 698.43,-264.69 698.43,-252.96"/>
<polygon fill="midnightblue" stroke="midnightblue" points="701.93,-252.89 698.43,-242.89 694.93,-252.89 701.93,-252.89"/>
</g>
<!-- Node9 -->
<g id="node9" class="node">
<title>Node9</title>
<g id="a_node9"><a xlink:href="space__packet__typedef_8h.html" target="_top" xlink:title="SpacePacket 類 と CommonTlmCmdPacket 類が相互参照するのを回避するためのヘッダ">
<polygon fill="white" stroke="black" points="200.93,-78.5 200.93,-108.5 337.93,-108.5 337.93,-78.5 200.93,-78.5"/>
<text text-anchor="start" x="208.93" y="-96.5" font-family="Helvetica,sans-Serif" font-size="10.00">src_core/TlmCmd/Ccsds</text>
<text text-anchor="middle" x="269.43" y="-85.5" font-family="Helvetica,sans-Serif" font-size="10.00">/space_packet_typedef.h</text>
</a>
</g>
</g>
<!-- Node8&#45;&gt;Node9 -->
<g id="edge9" class="edge">
<title>Node8&#45;&gt;Node9</title>
<path fill="none" stroke="midnightblue" d="M65.69,-212.4C23.9,-197.28 -16.56,-174.06 7.43,-145 30.33,-117.27 121.84,-104.6 190.31,-98.92"/>
<polygon fill="midnightblue" stroke="midnightblue" points="190.97,-102.38 200.66,-98.1 190.41,-95.4 190.97,-102.38"/>
</g>
<!-- Node10 -->
<g id="node10" class="node">
<title>Node10</title>
<g id="a_node10"><a xlink:href="space__packet__typedef__params_8h.html" target="_top" xlink:title="SpacePacketの パケット型に関するユーザー設定">
<polygon fill="white" stroke="black" points="189.43,-0.5 189.43,-41.5 349.43,-41.5 349.43,-0.5 189.43,-0.5"/>
<text text-anchor="start" x="197.43" y="-29.5" font-family="Helvetica,sans-Serif" font-size="10.00">src_user/Settings/TlmCmd</text>
<text text-anchor="start" x="197.43" y="-18.5" font-family="Helvetica,sans-Serif" font-size="10.00">/Ccsds/space_packet_typedef</text>
<text text-anchor="middle" x="269.43" y="-7.5" font-family="Helvetica,sans-Serif" font-size="10.00">_params.h</text>
</a>
</g>
</g>
<!-- Node9&#45;&gt;Node10 -->
<g id="edge10" class="edge">
<title>Node9&#45;&gt;Node10</title>
<path fill="none" stroke="midnightblue" d="M269.43,-78.23C269.43,-70.57 269.43,-60.84 269.43,-51.63"/>
<polygon fill="midnightblue" stroke="midnightblue" points="272.93,-51.59 269.43,-41.59 265.93,-51.59 272.93,-51.59"/>
</g>
<!-- Node11&#45;&gt;Node2 -->
<g id="edge12" class="edge">
<title>Node11&#45;&gt;Node2</title>
<path fill="none" stroke="midnightblue" d="M509.85,-224.17C610.59,-212.35 796.76,-190 881.55,-176.03"/>
<polygon fill="midnightblue" stroke="midnightblue" points="882.34,-179.44 891.61,-174.32 881.17,-172.54 882.34,-179.44"/>
</g>
<!-- Node12 -->
<g id="node12" class="node">
<title>Node12</title>
<g id="a_node12"><a xlink:href="telemetry__definitions_8h.html" target="_top" xlink:title="テレメトリ定義">
<polygon fill="white" stroke="black" points="16.43,-145.5 16.43,-175.5 168.43,-175.5 168.43,-145.5 16.43,-145.5"/>
<text text-anchor="start" x="24.43" y="-163.5" font-family="Helvetica,sans-Serif" font-size="10.00">src_user/TlmCmd/telemetry</text>
<text text-anchor="middle" x="92.43" y="-152.5" font-family="Helvetica,sans-Serif" font-size="10.00">_definitions.h</text>
</a>
</g>
</g>
<!-- Node11&#45;&gt;Node12 -->
<g id="edge13" class="edge">
<title>Node11&#45;&gt;Node12</title>
<path fill="none" stroke="midnightblue" d="M400.21,-223.5C343.89,-212.15 243.06,-191.84 172.19,-177.57"/>
<polygon fill="midnightblue" stroke="midnightblue" points="172.46,-174.05 161.96,-175.51 171.08,-180.91 172.46,-174.05"/>
</g>
<!-- Node13 -->
<g id="node13" class="node">
<title>Node13</title>
<g id="a_node13"><a xlink:href="common__tlm__packet__define_8h.html" target="_top" xlink:title="CTP 型の定義">
<polygon fill="white" stroke="black" points="186.43,-145.5 186.43,-175.5 352.43,-175.5 352.43,-145.5 186.43,-145.5"/>
<text text-anchor="start" x="194.43" y="-163.5" font-family="Helvetica,sans-Serif" font-size="10.00">src_user/Settings/TlmCmd</text>
<text text-anchor="middle" x="269.43" y="-152.5" font-family="Helvetica,sans-Serif" font-size="10.00">/common_tlm_packet_define.h</text>
</a>
</g>
</g>
<!-- Node11&#45;&gt;Node13 -->
<g id="edge14" class="edge">
<title>Node11&#45;&gt;Node13</title>
<path fill="none" stroke="midnightblue" d="M421.56,-223.5C394.87,-212.62 347.93,-193.49 313.24,-179.35"/>
<polygon fill="midnightblue" stroke="midnightblue" points="314.38,-176.04 303.8,-175.51 311.74,-182.52 314.38,-176.04"/>
</g>
<!-- Node11&#45;&gt;Node14 -->
<g id="edge16" class="edge">
<title>Node11&#45;&gt;Node14</title>
<path fill="none" stroke="midnightblue" d="M442.43,-223.36C442.43,-214.05 442.43,-198.83 442.43,-185.81"/>
<polygon fill="midnightblue" stroke="midnightblue" points="445.93,-185.58 442.43,-175.58 438.93,-185.58 445.93,-185.58"/>
</g>
<!-- Node13&#45;&gt;Node9 -->
<g id="edge15" class="edge">
<title>Node13&#45;&gt;Node9</title>
<path fill="none" stroke="midnightblue" d="M269.43,-145.4C269.43,-137.64 269.43,-127.81 269.43,-118.86"/>
<polygon fill="midnightblue" stroke="midnightblue" points="272.93,-118.58 269.43,-108.58 265.93,-118.58 272.93,-118.58"/>
</g>
<!-- Node15&#45;&gt;Node2 -->
<g id="edge18" class="edge">
<title>Node15&#45;&gt;Node2</title>
<path fill="none" stroke="midnightblue" d="M728.59,-223.5C768.16,-212.34 838.49,-192.5 888.95,-178.27"/>
<polygon fill="midnightblue" stroke="midnightblue" points="890.09,-181.59 898.77,-175.51 888.19,-174.85 890.09,-181.59"/>
</g>
<!-- Node15&#45;&gt;Node14 -->
<g id="edge22" class="edge">
<title>Node15&#45;&gt;Node14</title>
<path fill="none" stroke="midnightblue" d="M667.55,-223.5C626.95,-212.31 554.72,-192.42 503.02,-178.18"/>
<polygon fill="midnightblue" stroke="midnightblue" points="503.86,-174.79 493.29,-175.51 502,-181.54 503.86,-174.79"/>
</g>
<!-- Node16 -->
<g id="node16" class="node">
<title>Node16</title>
<g id="a_node16"><a xlink:href="command__definitions_8h.html" target="_top" xlink:title="コマンド定義">
<polygon fill="white" stroke="black" points="720.93,-145.5 720.93,-175.5 873.93,-175.5 873.93,-145.5 720.93,-145.5"/>
<text text-anchor="start" x="728.93" y="-163.5" font-family="Helvetica,sans-Serif" font-size="10.00">src_user/TlmCmd/command</text>
<text text-anchor="middle" x="797.43" y="-152.5" font-family="Helvetica,sans-Serif" font-size="10.00">_definitions.h</text>
</a>
</g>
</g>
<!-- Node15&#45;&gt;Node16 -->
<g id="edge19" class="edge">
<title>Node15&#45;&gt;Node16</title>
<path fill="none" stroke="midnightblue" d="M710.57,-223.36C725.14,-212.98 750.04,-195.25 769.46,-181.42"/>
<polygon fill="midnightblue" stroke="midnightblue" points="771.55,-184.23 777.67,-175.58 767.49,-178.53 771.55,-184.23"/>
</g>
<!-- Node17 -->
<g id="node17" class="node">
<title>Node17</title>
<g id="a_node17"><a xlink:href="common__cmd__packet__define_8h.html" target="_top" xlink:title="CCP 型の定義">
<polygon fill="white" stroke="black" points="532.43,-145.5 532.43,-175.5 702.43,-175.5 702.43,-145.5 532.43,-145.5"/>
<text text-anchor="start" x="540.43" y="-163.5" font-family="Helvetica,sans-Serif" font-size="10.00">src_user/Settings/TlmCmd</text>
<text text-anchor="middle" x="617.43" y="-152.5" font-family="Helvetica,sans-Serif" font-size="10.00">/common_cmd_packet_define.h</text>
</a>
</g>
</g>
<!-- Node15&#45;&gt;Node17 -->
<g id="edge20" class="edge">
<title>Node15&#45;&gt;Node17</title>
<path fill="none" stroke="midnightblue" d="M688.5,-223.36C676.84,-213.21 657.11,-196.04 641.39,-182.36"/>
<polygon fill="midnightblue" stroke="midnightblue" points="643.45,-179.5 633.6,-175.58 638.85,-184.78 643.45,-179.5"/>
</g>
<!-- Node17&#45;&gt;Node9 -->
<g id="edge21" class="edge">
<title>Node17&#45;&gt;Node9</title>
<path fill="none" stroke="midnightblue" d="M542.35,-145.48C485.02,-134.77 406.25,-120.05 348.06,-109.19"/>
<polygon fill="midnightblue" stroke="midnightblue" points="348.65,-105.74 338.18,-107.34 347.36,-112.62 348.65,-105.74"/>
</g>
<!-- Node18&#45;&gt;Node3 -->
<g id="edge25" class="edge">
<title>Node18&#45;&gt;Node3</title>
<path fill="none" stroke="midnightblue" d="M958.66,-357.42C991.39,-347.88 1028.38,-334.58 1038.43,-321 1085.24,-257.77 1067.54,-155.37 1057.49,-113.38"/>
<polygon fill="midnightblue" stroke="midnightblue" points="1060.82,-112.26 1054.98,-103.43 1054.03,-113.98 1060.82,-112.26"/>
</g>
<!-- Node18&#45;&gt;Node7 -->
<g id="edge27" class="edge">
<title>Node18&#45;&gt;Node7</title>
<path fill="none" stroke="midnightblue" d="M859.2,-357.48C827.92,-347.56 785.8,-334.2 752.51,-323.65"/>
<polygon fill="midnightblue" stroke="midnightblue" points="753.53,-320.3 742.94,-320.61 751.41,-326.97 753.53,-320.3"/>
</g>
<!-- Node19 -->
<g id="node19" class="node">
<title>Node19</title>
<g id="a_node19"><a xlink:href="block__command__table__params_8h.html" target="_top" xlink:title="BCTのCoreTlmパラメタのオーバーライド用ヘッダー">
<polygon fill="white" stroke="black" points="848.93,-290.5 848.93,-320.5 1029.93,-320.5 1029.93,-290.5 848.93,-290.5"/>
<text text-anchor="start" x="856.93" y="-308.5" font-family="Helvetica,sans-Serif" font-size="10.00">src_user/Settings/TlmCmd</text>
<text text-anchor="middle" x="939.43" y="-297.5" font-family="Helvetica,sans-Serif" font-size="10.00">/block_command_table_params.h</text>
</a>
</g>
</g>
<!-- Node18&#45;&gt;Node19 -->
<g id="edge26" class="edge">
<title>Node18&#45;&gt;Node19</title>
<path fill="none" stroke="midnightblue" d="M911.24,-357.4C915.77,-349.22 921.58,-338.73 926.75,-329.39"/>
<polygon fill="midnightblue" stroke="midnightblue" points="929.85,-331.02 931.64,-320.58 923.73,-327.63 929.85,-331.02"/>
</g>
</g>
</svg>
