<?xml version="1.0" encoding="UTF-8" standalone="no"?>
<!DOCTYPE svg PUBLIC "-//W3C//DTD SVG 1.1//EN"
 "http://www.w3.org/Graphics/SVG/1.1/DTD/svg11.dtd">
<!-- Generated by graphviz version 2.43.0 (0)
 -->
<!-- Title: MM_set_mode_list Pages: 1 -->
<svg width="1014pt" height="66pt"
 viewBox="0.00 0.00 1014.00 66.00" xmlns="http://www.w3.org/2000/svg" xmlns:xlink="http://www.w3.org/1999/xlink">
<g id="graph0" class="graph" transform="scale(1 1) rotate(0) translate(4 62)">
<title>MM_set_mode_list</title>
<polygon fill="white" stroke="transparent" points="-4,4 -4,-62 1010,-62 1010,4 -4,4"/>
<!-- Node1 -->
<g id="node1" class="node">
<title>Node1</title>
<g id="a_node1"><a xlink:title="Cmd_MM_SET_MODE_LISTの実体">
<polygon fill="#bfbfbf" stroke="black" points="898,-19.5 898,-38.5 1006,-38.5 1006,-19.5 898,-19.5"/>
<text text-anchor="middle" x="952" y="-26.5" font-family="Helvetica,sans-Serif" font-size="10.00">MM_set_mode_list</text>
</a>
</g>
</g>
<!-- Node2 -->
<g id="node2" class="node">
<title>Node2</title>
<g id="a_node2"><a xlink:href="mode__manager_8h.html#af7370161c6690579bbe7b185234733a9" target="_top" xlink:title="モード遷移後にタスクリストとして実行するブロックコマンドを設定するコマンド">
<polygon fill="white" stroke="black" points="716,-38.5 716,-57.5 862,-57.5 862,-38.5 716,-38.5"/>
<text text-anchor="middle" x="789" y="-45.5" font-family="Helvetica,sans-Serif" font-size="10.00">Cmd_MM_SET_MODE_LIST</text>
</a>
</g>
</g>
<!-- Node1&#45;&gt;Node2 -->
<g id="edge1" class="edge">
<title>Node1&#45;&gt;Node2</title>
<path fill="none" stroke="midnightblue" d="M887.72,-36.47C879.31,-37.46 870.62,-38.49 862.07,-39.5"/>
<polygon fill="midnightblue" stroke="midnightblue" points="888.32,-39.92 897.84,-35.27 887.5,-32.97 888.32,-39.92"/>
</g>
<!-- Node9 -->
<g id="node9" class="node">
<title>Node9</title>
<g id="a_node9"><a xlink:href="mode__definitions_8h.html#a9f8c5d490c296d1d93590307619a583f" target="_top" xlink:title=" ">
<polygon fill="white" stroke="black" points="732.5,-0.5 732.5,-19.5 845.5,-19.5 845.5,-0.5 732.5,-0.5"/>
<text text-anchor="middle" x="789" y="-7.5" font-family="Helvetica,sans-Serif" font-size="10.00">MD_load_mode_list</text>
</a>
</g>
</g>
<!-- Node1&#45;&gt;Node9 -->
<g id="edge8" class="edge">
<title>Node1&#45;&gt;Node9</title>
<path fill="none" stroke="midnightblue" d="M887.84,-21.55C873.89,-19.9 859.21,-18.17 845.59,-16.56"/>
<polygon fill="midnightblue" stroke="midnightblue" points="887.5,-25.03 897.84,-22.73 888.32,-18.08 887.5,-25.03"/>
</g>
<!-- Node3 -->
<g id="node3" class="node">
<title>Node3</title>
<g id="a_node3"><a xlink:href="command__definitions_8c.html#aa375895192b16d8e7f0ff4545b54e6c4" target="_top" xlink:title="Cmd Tableのロード">
<polygon fill="white" stroke="black" points="567,-38.5 567,-57.5 680,-57.5 680,-38.5 567,-38.5"/>
<text text-anchor="middle" x="623.5" y="-45.5" font-family="Helvetica,sans-Serif" font-size="10.00">CA_load_cmd_table</text>
</a>
</g>
</g>
<!-- Node2&#45;&gt;Node3 -->
<g id="edge2" class="edge">
<title>Node2&#45;&gt;Node3</title>
<path fill="none" stroke="midnightblue" d="M705.66,-48C697,-48 688.35,-48 680.1,-48"/>
<polygon fill="midnightblue" stroke="midnightblue" points="705.81,-51.5 715.81,-48 705.81,-44.5 705.81,-51.5"/>
</g>
<!-- Node4 -->
<g id="node4" class="node">
<title>Node4</title>
<g id="a_node4"><a xlink:href="command__analyze_8h.html#ae6d1f376bf4e1c9c4b63bc3f04924c8a" target="_top" xlink:title="CA の初期化">
<polygon fill="white" stroke="black" points="451.5,-38.5 451.5,-57.5 528.5,-57.5 528.5,-38.5 451.5,-38.5"/>
<text text-anchor="middle" x="490" y="-45.5" font-family="Helvetica,sans-Serif" font-size="10.00">CA_initialize</text>
</a>
</g>
</g>
<!-- Node3&#45;&gt;Node4 -->
<g id="edge3" class="edge">
<title>Node3&#45;&gt;Node4</title>
<path fill="none" stroke="midnightblue" d="M556.7,-48C547.04,-48 537.38,-48 528.56,-48"/>
<polygon fill="midnightblue" stroke="midnightblue" points="556.73,-51.5 566.73,-48 556.73,-44.5 556.73,-51.5"/>
</g>
<!-- Node5 -->
<g id="node5" class="node">
<title>Node5</title>
<g id="a_node5"><a xlink:href="c2a__core__main_8h.html#a65ecdc63d8762ffde4db7f6c6e6f07cf" target="_top" xlink:title=" ">
<polygon fill="white" stroke="black" points="330,-19.5 330,-38.5 413,-38.5 413,-19.5 330,-19.5"/>
<text text-anchor="middle" x="371.5" y="-26.5" font-family="Helvetica,sans-Serif" font-size="10.00">C2A_core_init</text>
</a>
</g>
</g>
<!-- Node4&#45;&gt;Node5 -->
<g id="edge4" class="edge">
<title>Node4&#45;&gt;Node5</title>
<path fill="none" stroke="midnightblue" d="M441.5,-40.25C432.09,-38.72 422.3,-37.12 413.15,-35.63"/>
<polygon fill="midnightblue" stroke="midnightblue" points="441.06,-43.73 451.5,-41.88 442.19,-36.82 441.06,-43.73"/>
</g>
<!-- Node6 -->
<g id="node6" class="node">
<title>Node6</title>
<g id="a_node6"><a xlink:href="c2a__main_8c.html#a630222a80cd8bffd4426d4a55a215069" target="_top" xlink:title=" ">
<polygon fill="white" stroke="black" points="232,-19.5 232,-38.5 294,-38.5 294,-19.5 232,-19.5"/>
<text text-anchor="middle" x="263" y="-26.5" font-family="Helvetica,sans-Serif" font-size="10.00">C2A_init_</text>
</a>
</g>
</g>
<!-- Node5&#45;&gt;Node6 -->
<g id="edge5" class="edge">
<title>Node5&#45;&gt;Node6</title>
<path fill="none" stroke="midnightblue" d="M319.76,-29C311.01,-29 302.17,-29 294.18,-29"/>
<polygon fill="midnightblue" stroke="midnightblue" points="319.93,-32.5 329.93,-29 319.93,-25.5 319.93,-32.5"/>
</g>
<!-- Node7 -->
<g id="node7" class="node">
<title>Node7</title>
<g id="a_node7"><a xlink:href="c2a__main_8c.html#ac3344a311adda8f9e7310924bedf81fc" target="_top" xlink:title=" ">
<polygon fill="white" stroke="black" points="77,-19.5 77,-38.5 196,-38.5 196,-19.5 77,-19.5"/>
<text text-anchor="middle" x="136.5" y="-26.5" font-family="Helvetica,sans-Serif" font-size="10.00">address_fixed_main_</text>
</a>
</g>
</g>
<!-- Node6&#45;&gt;Node7 -->
<g id="edge6" class="edge">
<title>Node6&#45;&gt;Node7</title>
<path fill="none" stroke="midnightblue" d="M221.83,-29C213.62,-29 204.82,-29 196.12,-29"/>
<polygon fill="midnightblue" stroke="midnightblue" points="221.86,-32.5 231.86,-29 221.86,-25.5 221.86,-32.5"/>
</g>
<!-- Node8 -->
<g id="node8" class="node">
<title>Node8</title>
<g id="a_node8"><a xlink:href="c2a__main_8c.html#a6288eba0f8e8ad3ab1544ad731eb7667" target="_top" xlink:title=" ">
<polygon fill="white" stroke="black" points="0,-19.5 0,-38.5 41,-38.5 41,-19.5 0,-19.5"/>
<text text-anchor="middle" x="20.5" y="-26.5" font-family="Helvetica,sans-Serif" font-size="10.00">main</text>
</a>
</g>
</g>
<!-- Node7&#45;&gt;Node8 -->
<g id="edge7" class="edge">
<title>Node7&#45;&gt;Node8</title>
<path fill="none" stroke="midnightblue" d="M66.64,-29C57.37,-29 48.53,-29 41.18,-29"/>
<polygon fill="midnightblue" stroke="midnightblue" points="66.83,-32.5 76.83,-29 66.83,-25.5 66.83,-32.5"/>
</g>
<!-- Node10 -->
<g id="node10" class="node">
<title>Node10</title>
<g id="a_node10"><a xlink:href="mode__manager_8h.html#a89fbf516698fe6c690438e21ec8efd82" target="_top" xlink:title="モード遷移を管理する ModeManager 構造体 (mode_manager_) の初期化">
<polygon fill="white" stroke="black" points="449,-0.5 449,-19.5 531,-19.5 531,-0.5 449,-0.5"/>
<text text-anchor="middle" x="490" y="-7.5" font-family="Helvetica,sans-Serif" font-size="10.00">MM_initialize</text>
</a>
</g>
</g>
<!-- Node9&#45;&gt;Node10 -->
<g id="edge9" class="edge">
<title>Node9&#45;&gt;Node10</title>
<path fill="none" stroke="midnightblue" d="M722.23,-10C663.72,-10 580.03,-10 531.03,-10"/>
<polygon fill="midnightblue" stroke="midnightblue" points="722.49,-13.5 732.48,-10 722.48,-6.5 722.49,-13.5"/>
</g>
<!-- Node10&#45;&gt;Node5 -->
<g id="edge10" class="edge">
<title>Node10&#45;&gt;Node5</title>
<path fill="none" stroke="midnightblue" d="M438.93,-18.17C430.29,-19.57 421.41,-21.02 413.06,-22.38"/>
<polygon fill="midnightblue" stroke="midnightblue" points="439.6,-21.6 448.91,-16.54 438.47,-14.69 439.6,-21.6"/>
</g>
</g>
</svg>
