<?xml version="1.0" encoding="UTF-8" standalone="no"?>
<!DOCTYPE svg PUBLIC "-//W3C//DTD SVG 1.1//EN"
 "http://www.w3.org/Graphics/SVG/1.1/DTD/svg11.dtd">
<!-- Generated by graphviz version 2.43.0 (0)
 -->
<!-- Title: MM_initialize Pages: 1 -->
<svg width="1685pt" height="496pt"
 viewBox="0.00 0.00 1685.00 495.81" xmlns="http://www.w3.org/2000/svg" xmlns:xlink="http://www.w3.org/1999/xlink">
<g id="graph0" class="graph" transform="scale(1 1) rotate(0) translate(4 491.81)">
<title>MM_initialize</title>
<polygon fill="white" stroke="transparent" points="-4,4 -4,-491.81 1681,-491.81 1681,4 -4,4"/>
<!-- Node1 -->
<g id="node1" class="node">
<title>Node1</title>
<g id="a_node1"><a xlink:title="モード遷移を管理する ModeManager 構造体 (mode_manager_) の初期化">
<polygon fill="#bfbfbf" stroke="black" points="0,-377.5 0,-396.5 82,-396.5 82,-377.5 0,-377.5"/>
<text text-anchor="middle" x="41" y="-384.5" font-family="Helvetica,sans-Serif" font-size="10.00">MM_initialize</text>
</a>
</g>
</g>
<!-- Node2 -->
<g id="node2" class="node">
<title>Node2</title>
<g id="a_node2"><a xlink:href="mode__definitions_8c.html#a9f8c5d490c296d1d93590307619a583f" target="_top" xlink:title=" ">
<polygon fill="white" stroke="black" points="121,-446.5 121,-465.5 234,-465.5 234,-446.5 121,-446.5"/>
<text text-anchor="middle" x="177.5" y="-453.5" font-family="Helvetica,sans-Serif" font-size="10.00">MD_load_mode_list</text>
</a>
</g>
</g>
<!-- Node1&#45;&gt;Node2 -->
<g id="edge1" class="edge">
<title>Node1&#45;&gt;Node2</title>
<path fill="none" stroke="midnightblue" d="M54.29,-396.59C68.83,-407.57 94.08,-425.51 118,-437 122.57,-439.2 127.47,-441.24 132.4,-443.1"/>
<polygon fill="midnightblue" stroke="midnightblue" points="131.28,-446.41 141.87,-446.45 133.61,-439.81 131.28,-446.41"/>
</g>
<!-- Node6 -->
<g id="node6" class="node">
<title>Node6</title>
<g id="a_node6"><a xlink:href="mode__definitions_8c.html#a71c7114746727ddca52843175c47ad7e" target="_top" xlink:title=" ">
<polygon fill="white" stroke="black" points="122,-397 122,-427 233,-427 233,-397 122,-397"/>
<text text-anchor="start" x="130" y="-415" font-family="Helvetica,sans-Serif" font-size="10.00">MD_load_transition</text>
<text text-anchor="middle" x="177.5" y="-404" font-family="Helvetica,sans-Serif" font-size="10.00">_table</text>
</a>
</g>
</g>
<!-- Node1&#45;&gt;Node6 -->
<g id="edge5" class="edge">
<title>Node1&#45;&gt;Node6</title>
<path fill="none" stroke="midnightblue" d="M82.35,-394.5C91.64,-396.23 101.74,-398.1 111.77,-399.97"/>
<polygon fill="midnightblue" stroke="midnightblue" points="111.27,-403.44 121.75,-401.82 112.55,-396.55 111.27,-403.44"/>
</g>
<!-- Node8 -->
<g id="node8" class="node">
<title>Node8</title>
<g id="a_node8"><a xlink:href="mode__manager_8c.html#a75aa16db5f27f32cce78bf1fadb814b2" target="_top" xlink:title="モード遷移テーブルをすべて未定義に初期化する">
<polygon fill="white" stroke="black" points="119.5,-348 119.5,-378 235.5,-378 235.5,-348 119.5,-348"/>
<text text-anchor="start" x="127.5" y="-366" font-family="Helvetica,sans-Serif" font-size="10.00">MM_clear_transition</text>
<text text-anchor="middle" x="177.5" y="-355" font-family="Helvetica,sans-Serif" font-size="10.00">_table_</text>
</a>
</g>
</g>
<!-- Node1&#45;&gt;Node8 -->
<g id="edge8" class="edge">
<title>Node1&#45;&gt;Node8</title>
<path fill="none" stroke="midnightblue" d="M82.35,-379.8C90.88,-378.28 100.09,-376.63 109.3,-374.99"/>
<polygon fill="midnightblue" stroke="midnightblue" points="110.04,-378.41 119.27,-373.21 108.81,-371.52 110.04,-378.41"/>
</g>
<!-- Node9 -->
<g id="node9" class="node">
<title>Node9</title>
<g id="a_node9"><a xlink:href="mode__manager_8c.html#ae4381c1c84d8b5d8aa033e522530436d" target="_top" xlink:title="Cmd_MM_START_TRANSITIONの実体">
<polygon fill="white" stroke="black" points="118,-251.5 118,-270.5 237,-270.5 237,-251.5 118,-251.5"/>
<text text-anchor="middle" x="177.5" y="-258.5" font-family="Helvetica,sans-Serif" font-size="10.00">MM_start_transition_</text>
</a>
</g>
</g>
<!-- Node1&#45;&gt;Node9 -->
<g id="edge9" class="edge">
<title>Node1&#45;&gt;Node9</title>
<path fill="none" stroke="midnightblue" d="M52.55,-377.11C75.44,-355.68 129.85,-304.7 158.36,-277.99"/>
<polygon fill="midnightblue" stroke="midnightblue" points="161.09,-280.23 166,-270.84 156.3,-275.12 161.09,-280.23"/>
</g>
<!-- Node3 -->
<g id="node3" class="node">
<title>Node3</title>
<g id="a_node3"><a xlink:href="mode__manager_8c.html#a4996faf1b1545bd0a9ba50db676e8c21" target="_top" xlink:title="Cmd_MM_SET_MODE_LISTの実体">
<polygon fill="white" stroke="black" points="293,-446.5 293,-465.5 401,-465.5 401,-446.5 293,-446.5"/>
<text text-anchor="middle" x="347" y="-453.5" font-family="Helvetica,sans-Serif" font-size="10.00">MM_set_mode_list</text>
</a>
</g>
</g>
<!-- Node2&#45;&gt;Node3 -->
<g id="edge2" class="edge">
<title>Node2&#45;&gt;Node3</title>
<path fill="none" stroke="midnightblue" d="M234.28,-456C249.73,-456 266.63,-456 282.49,-456"/>
<polygon fill="midnightblue" stroke="midnightblue" points="282.74,-459.5 292.74,-456 282.74,-452.5 282.74,-459.5"/>
</g>
<!-- Node4 -->
<g id="node4" class="node">
<title>Node4</title>
<g id="a_node4"><a xlink:href="block__command__executor_8c.html#abefa2f3f0811c707ebb5af66e2d73762" target="_top" xlink:title="BCT の length の getter">
<polygon fill="white" stroke="black" points="495,-427.5 495,-446.5 580,-446.5 580,-427.5 495,-427.5"/>
<text text-anchor="middle" x="537.5" y="-434.5" font-family="Helvetica,sans-Serif" font-size="10.00">BCE_is_active</text>
</a>
</g>
</g>
<!-- Node3&#45;&gt;Node4 -->
<g id="edge3" class="edge">
<title>Node3&#45;&gt;Node4</title>
<path fill="none" stroke="midnightblue" d="M401.01,-450.66C427.25,-448.01 458.81,-444.83 484.87,-442.2"/>
<polygon fill="midnightblue" stroke="midnightblue" points="485.33,-445.68 494.93,-441.19 484.63,-438.71 485.33,-445.68"/>
</g>
<!-- Node5 -->
<g id="node5" class="node">
<title>Node5</title>
<g id="a_node5"><a xlink:href="block__command__executor_8c.html#ab093b73c94e0d7fe1936d95e66d5e51f" target="_top" xlink:title="BCE_Params の const getter">
<polygon fill="white" stroke="black" points="654,-427.5 654,-446.5 792,-446.5 792,-427.5 654,-427.5"/>
<text text-anchor="middle" x="723" y="-434.5" font-family="Helvetica,sans-Serif" font-size="10.00">BCE_get_bc_exe_params</text>
</a>
</g>
</g>
<!-- Node4&#45;&gt;Node5 -->
<g id="edge4" class="edge">
<title>Node4&#45;&gt;Node5</title>
<path fill="none" stroke="midnightblue" d="M580.14,-437C598.94,-437 621.8,-437 643.62,-437"/>
<polygon fill="midnightblue" stroke="midnightblue" points="643.9,-440.5 653.9,-437 643.9,-433.5 643.9,-440.5"/>
</g>
<!-- Node7 -->
<g id="node7" class="node">
<title>Node7</title>
<g id="a_node7"><a xlink:href="mode__manager_8c.html#ac717e1371ece68f1852c5051a24046d7" target="_top" xlink:title="Cmd_MM_SET_TRANSITION_TABLEの実体">
<polygon fill="white" stroke="black" points="278.5,-408.5 278.5,-427.5 415.5,-427.5 415.5,-408.5 278.5,-408.5"/>
<text text-anchor="middle" x="347" y="-415.5" font-family="Helvetica,sans-Serif" font-size="10.00">MM_set_transition_table</text>
</a>
</g>
</g>
<!-- Node6&#45;&gt;Node7 -->
<g id="edge6" class="edge">
<title>Node6&#45;&gt;Node7</title>
<path fill="none" stroke="midnightblue" d="M233.35,-413.96C244.49,-414.36 256.41,-414.79 268.17,-415.21"/>
<polygon fill="midnightblue" stroke="midnightblue" points="268.33,-418.72 278.45,-415.58 268.58,-411.72 268.33,-418.72"/>
</g>
<!-- Node7&#45;&gt;Node4 -->
<g id="edge7" class="edge">
<title>Node7&#45;&gt;Node4</title>
<path fill="none" stroke="midnightblue" d="M415.52,-424.81C438.31,-427.1 463.37,-429.63 484.74,-431.78"/>
<polygon fill="midnightblue" stroke="midnightblue" points="484.61,-435.29 494.91,-432.81 485.31,-428.32 484.61,-435.29"/>
</g>
<!-- Node10 -->
<g id="node10" class="node">
<title>Node10</title>
<g id="a_node10"><a xlink:href="anomaly__logger_8c.html#a0ea6626c89aa7e883a23da90b4c34e66" target="_top" xlink:title=" ">
<polygon fill="white" stroke="black" points="297,-171.5 297,-190.5 397,-190.5 397,-171.5 297,-171.5"/>
<text text-anchor="middle" x="347" y="-178.5" font-family="Helvetica,sans-Serif" font-size="10.00">AL_add_anomaly</text>
</a>
</g>
</g>
<!-- Node9&#45;&gt;Node10 -->
<g id="edge10" class="edge">
<title>Node9&#45;&gt;Node10</title>
<path fill="none" stroke="midnightblue" d="M198.7,-251.35C228.09,-237.32 282.78,-211.2 316.62,-195.03"/>
<polygon fill="midnightblue" stroke="midnightblue" points="318.47,-198.03 325.98,-190.56 315.45,-191.71 318.47,-198.03"/>
</g>
<!-- Node16 -->
<g id="node16" class="node">
<title>Node16</title>
<g id="a_node16"><a xlink:href="event__logger_8c.html#a25a74a48375dfc1f3f80be68e0ac00ea" target="_top" xlink:title="イベント (EL_Event) を記録">
<polygon fill="white" stroke="black" points="860,-408.5 860,-427.5 957,-427.5 957,-408.5 860,-408.5"/>
<text text-anchor="middle" x="908.5" y="-415.5" font-family="Helvetica,sans-Serif" font-size="10.00">EL_record_event</text>
</a>
</g>
</g>
<!-- Node9&#45;&gt;Node16 -->
<g id="edge17" class="edge">
<title>Node9&#45;&gt;Node16</title>
<path fill="none" stroke="midnightblue" d="M222.73,-270.53C349.58,-297.85 714.38,-376.41 853.09,-406.28"/>
<polygon fill="midnightblue" stroke="midnightblue" points="852.55,-409.75 863.07,-408.43 854.03,-402.9 852.55,-409.75"/>
</g>
<!-- Node29 -->
<g id="node29" class="node">
<title>Node29</title>
<g id="a_node29"><a xlink:href="mode__manager_8c.html#a4a483437e28116e6067d488392922a8f" target="_top" xlink:title="(モード遷移に対応する)ブロックコマンドのタイムラインへの展開を行う">
<polygon fill="white" stroke="black" points="279,-251.5 279,-270.5 415,-270.5 415,-251.5 279,-251.5"/>
<text text-anchor="middle" x="347" y="-258.5" font-family="Helvetica,sans-Serif" font-size="10.00">MM_deploy_block_cmd_</text>
</a>
</g>
</g>
<!-- Node9&#45;&gt;Node29 -->
<g id="edge34" class="edge">
<title>Node9&#45;&gt;Node29</title>
<path fill="none" stroke="midnightblue" d="M237.08,-261C247.31,-261 258.08,-261 268.72,-261"/>
<polygon fill="midnightblue" stroke="midnightblue" points="268.85,-264.5 278.85,-261 268.85,-257.5 268.85,-264.5"/>
</g>
<!-- Node101 -->
<g id="node50" class="node">
<title>Node101</title>
<g id="a_node50"><a xlink:href="time__manager_8c.html#abd264fef4aa6f3428e3c0bb5030c8af6" target="_top" xlink:title="master_clock_ の mode_cycle をゼロにする">
<polygon fill="white" stroke="black" points="273,-122 273,-152 421,-152 421,-122 273,-122"/>
<text text-anchor="start" x="281" y="-140" font-family="Helvetica,sans-Serif" font-size="10.00">TMGR_clear_master_mode</text>
<text text-anchor="middle" x="347" y="-129" font-family="Helvetica,sans-Serif" font-size="10.00">_cycle</text>
</a>
</g>
</g>
<!-- Node9&#45;&gt;Node101 -->
<g id="edge62" class="edge">
<title>Node9&#45;&gt;Node101</title>
<path fill="none" stroke="midnightblue" d="M185.18,-251.37C199.22,-231.8 233.77,-187.1 273,-162 276.18,-159.97 279.54,-158.08 283,-156.33"/>
<polygon fill="midnightblue" stroke="midnightblue" points="284.76,-159.37 292.37,-152.01 281.83,-153.02 284.76,-159.37"/>
</g>
<!-- Node10&#45;&gt;Node10 -->
<g id="edge12" class="edge">
<title>Node10&#45;&gt;Node10</title>
<path fill="none" stroke="midnightblue" d="M321.11,-190.76C308.51,-199.57 317.14,-209 347,-209 367.06,-209 377.54,-204.74 378.44,-199.27"/>
<polygon fill="midnightblue" stroke="midnightblue" points="381.28,-197.23 372.89,-190.76 375.42,-201.05 381.28,-197.23"/>
</g>
<!-- Node11 -->
<g id="node11" class="node">
<title>Node11</title>
<g id="a_node11"><a xlink:href="anomaly__logger_8c.html#a0d3195f9dcd9ab90f9672a90ed701932" target="_top" xlink:title=" ">
<polygon fill="white" stroke="black" points="497,-180.5 497,-199.5 578,-199.5 578,-180.5 497,-180.5"/>
<text text-anchor="middle" x="537.5" y="-187.5" font-family="Helvetica,sans-Serif" font-size="10.00">AC_is_equal_</text>
</a>
</g>
</g>
<!-- Node10&#45;&gt;Node11 -->
<g id="edge11" class="edge">
<title>Node10&#45;&gt;Node11</title>
<path fill="none" stroke="midnightblue" d="M397.03,-183.34C424.6,-184.66 458.93,-186.3 486.63,-187.62"/>
<polygon fill="midnightblue" stroke="midnightblue" points="486.74,-191.13 496.9,-188.11 487.08,-184.14 486.74,-191.13"/>
</g>
<!-- Node12 -->
<g id="node12" class="node">
<title>Node12</title>
<g id="a_node12"><a xlink:href="anomaly__logger_8c.html#a20757d941f0e6a6fe45076e1b799d58c" target="_top" xlink:title=" ">
<polygon fill="white" stroke="black" points="478,-142.5 478,-161.5 597,-161.5 597,-142.5 478,-142.5"/>
<text text-anchor="middle" x="537.5" y="-149.5" font-family="Helvetica,sans-Serif" font-size="10.00">AL_get_latest_record</text>
</a>
</g>
</g>
<!-- Node10&#45;&gt;Node12 -->
<g id="edge13" class="edge">
<title>Node10&#45;&gt;Node12</title>
<path fill="none" stroke="midnightblue" d="M397.03,-173.46C418.7,-170.12 444.55,-166.15 468.07,-162.53"/>
<polygon fill="midnightblue" stroke="midnightblue" points="468.63,-165.98 477.99,-161 467.57,-159.06 468.63,-165.98"/>
</g>
<!-- Node13 -->
<g id="node13" class="node">
<title>Node13</title>
<g id="a_node13"><a xlink:href="anomaly__logger_8c.html#af0545eca5524e201925fa77dd122fd8c" target="_top" xlink:title=" ">
<polygon fill="white" stroke="black" points="474,-104.5 474,-123.5 601,-123.5 601,-104.5 474,-104.5"/>
<text text-anchor="middle" x="537.5" y="-111.5" font-family="Helvetica,sans-Serif" font-size="10.00">AL_is_logging_enable_</text>
</a>
</g>
</g>
<!-- Node10&#45;&gt;Node13 -->
<g id="edge14" class="edge">
<title>Node10&#45;&gt;Node13</title>
<path fill="none" stroke="midnightblue" d="M393.81,-171.42C403.06,-168.67 412.54,-165.24 421,-161 439.12,-151.92 438.73,-141.78 457,-133 462.04,-130.58 467.4,-128.46 472.88,-126.59"/>
<polygon fill="midnightblue" stroke="midnightblue" points="474.3,-129.82 482.82,-123.51 472.23,-123.13 474.3,-129.82"/>
</g>
<!-- Node14 -->
<g id="node14" class="node">
<title>Node14</title>
<g id="a_node14"><a xlink:href="time__manager_8c.html#a9d04b4d9b622cbe5a90cf65e58b828bc" target="_top" xlink:title="現在の master_clock_ を取得する">
<polygon fill="white" stroke="black" points="1364,-263.5 1364,-282.5 1501,-282.5 1501,-263.5 1364,-263.5"/>
<text text-anchor="middle" x="1432.5" y="-270.5" font-family="Helvetica,sans-Serif" font-size="10.00">TMGR_get_master_clock</text>
</a>
</g>
</g>
<!-- Node10&#45;&gt;Node14 -->
<g id="edge15" class="edge">
<title>Node10&#45;&gt;Node14</title>
<path fill="none" stroke="midnightblue" d="M397.33,-173.33C405.81,-170.44 414.1,-166.46 421,-161 447.2,-140.27 431.61,-116.72 457,-95 552.06,-13.65 596.88,0 722,0 722,0 722,0 1099,0 1259.61,0 1385,-192.61 1421.02,-254.26"/>
<polygon fill="midnightblue" stroke="midnightblue" points="1418.18,-256.35 1426.19,-263.28 1424.25,-252.87 1418.18,-256.35"/>
</g>
<!-- Node15 -->
<g id="node15" class="node">
<title>Node15</title>
<g id="a_node15"><a xlink:href="obc__time_8c.html#a70416835a40bdacbb04f6f06b1e6d1e1" target="_top" xlink:title="引数から ObcTime を作成する">
<polygon fill="white" stroke="black" points="1567,-263.5 1567,-282.5 1647,-282.5 1647,-263.5 1567,-263.5"/>
<text text-anchor="middle" x="1607" y="-270.5" font-family="Helvetica,sans-Serif" font-size="10.00">OBCT_create</text>
</a>
</g>
</g>
<!-- Node14&#45;&gt;Node15 -->
<g id="edge16" class="edge">
<title>Node14&#45;&gt;Node15</title>
<path fill="none" stroke="midnightblue" d="M1501.18,-273C1519.63,-273 1539.27,-273 1556.5,-273"/>
<polygon fill="midnightblue" stroke="midnightblue" points="1556.88,-276.5 1566.88,-273 1556.88,-269.5 1556.88,-276.5"/>
</g>
<!-- Node17 -->
<g id="node17" class="node">
<title>Node17</title>
<g id="a_node17"><a xlink:href="event__logger_8c.html#a80a1b60c587d1e3402b02e3bde1db899" target="_top" xlink:title="イベント (EL_Event) を記録">
<polygon fill="white" stroke="black" points="1047,-370.5 1047,-389.5 1149,-389.5 1149,-370.5 1047,-370.5"/>
<text text-anchor="middle" x="1098" y="-377.5" font-family="Helvetica,sans-Serif" font-size="10.00">EL_record_event_</text>
</a>
</g>
</g>
<!-- Node16&#45;&gt;Node17 -->
<g id="edge18" class="edge">
<title>Node16&#45;&gt;Node17</title>
<path fill="none" stroke="midnightblue" d="M956.81,-408.41C982.11,-403.28 1013.45,-396.93 1040.07,-391.54"/>
<polygon fill="midnightblue" stroke="midnightblue" points="1040.92,-394.94 1050.03,-389.52 1039.53,-388.08 1040.92,-394.94"/>
</g>
<!-- Node18 -->
<g id="node18" class="node">
<title>Node18</title>
<g id="a_node18"><a xlink:href="event__logger_8c.html#aeae14f21b4e29006f709a61e7de52d67" target="_top" xlink:title="TLog の wp をチェックし， event を生成する">
<polygon fill="white" stroke="black" points="1212.5,-301.5 1212.5,-320.5 1322.5,-320.5 1322.5,-301.5 1212.5,-301.5"/>
<text text-anchor="middle" x="1267.5" y="-308.5" font-family="Helvetica,sans-Serif" font-size="10.00">EL_check_tlog_wp_</text>
</a>
</g>
</g>
<!-- Node17&#45;&gt;Node18 -->
<g id="edge19" class="edge">
<title>Node17&#45;&gt;Node18</title>
<path fill="none" stroke="midnightblue" d="M1108.11,-370.46C1125.17,-358.41 1163.38,-339.74 1202.77,-323.76"/>
<polygon fill="midnightblue" stroke="midnightblue" points="1204.27,-326.93 1212.26,-319.98 1201.67,-320.43 1204.27,-326.93"/>
</g>
<!-- Node19 -->
<g id="node19" class="node">
<title>Node19</title>
<g id="a_node19"><a xlink:href="event__logger_8c.html#a0b42c2f5d1eafdad83481ec6e63365e2" target="_top" xlink:title="イベント (EL_Event) を初期化">
<polygon fill="white" stroke="black" points="1224,-263.5 1224,-282.5 1311,-282.5 1311,-263.5 1224,-263.5"/>
<text text-anchor="middle" x="1267.5" y="-270.5" font-family="Helvetica,sans-Serif" font-size="10.00">EL_init_event_</text>
</a>
</g>
</g>
<!-- Node17&#45;&gt;Node19 -->
<g id="edge21" class="edge">
<title>Node17&#45;&gt;Node19</title>
<path fill="none" stroke="midnightblue" d="M1111.35,-370.47C1125.79,-359.27 1150.35,-340.05 1171,-323 1187.28,-309.56 1188.57,-302.31 1207,-292 1210.88,-289.83 1215.05,-287.86 1219.31,-286.1"/>
<polygon fill="midnightblue" stroke="midnightblue" points="1220.6,-289.35 1228.72,-282.54 1218.13,-282.8 1220.6,-289.35"/>
</g>
<!-- Node20 -->
<g id="node20" class="node">
<title>Node20</title>
<g id="a_node20"><a xlink:href="event__logger_8c.html#a50ba2fe43a96f7351951a4109227ba6f" target="_top" xlink:title="event_logger の EL_Event.group が有効か？">
<polygon fill="white" stroke="black" points="1207,-438.5 1207,-457.5 1328,-457.5 1328,-438.5 1207,-438.5"/>
<text text-anchor="middle" x="1267.5" y="-445.5" font-family="Helvetica,sans-Serif" font-size="10.00">EL_is_logging_enable</text>
</a>
</g>
</g>
<!-- Node17&#45;&gt;Node20 -->
<g id="edge23" class="edge">
<title>Node17&#45;&gt;Node20</title>
<path fill="none" stroke="midnightblue" d="M1118.22,-389.55C1139.59,-399.97 1175.3,-416.79 1207,-429 1212.58,-431.15 1218.51,-433.25 1224.38,-435.23"/>
<polygon fill="midnightblue" stroke="midnightblue" points="1223.55,-438.64 1234.15,-438.42 1225.73,-431.99 1223.55,-438.64"/>
</g>
<!-- Node21 -->
<g id="node21" class="node">
<title>Node21</title>
<g id="a_node21"><a xlink:href="event__logger_8c.html#a69fb9dbc85ad467d048f1c9f31d2442c" target="_top" xlink:title="イベント (EL_Event) を CLog に記録">
<polygon fill="white" stroke="black" points="1211.5,-340 1211.5,-370 1323.5,-370 1323.5,-340 1211.5,-340"/>
<text text-anchor="start" x="1219.5" y="-358" font-family="Helvetica,sans-Serif" font-size="10.00">EL_record_event_to</text>
<text text-anchor="middle" x="1267.5" y="-347" font-family="Helvetica,sans-Serif" font-size="10.00">_clog_</text>
</a>
</g>
</g>
<!-- Node17&#45;&gt;Node21 -->
<g id="edge24" class="edge">
<title>Node17&#45;&gt;Node21</title>
<path fill="none" stroke="midnightblue" d="M1149.26,-372.5C1165.61,-370.06 1184,-367.31 1201.28,-364.73"/>
<polygon fill="midnightblue" stroke="midnightblue" points="1201.93,-368.18 1211.31,-363.24 1200.9,-361.25 1201.93,-368.18"/>
</g>
<!-- Node27 -->
<g id="node27" class="node">
<title>Node27</title>
<g id="a_node27"><a xlink:href="event__logger_8c.html#a93cb3659efd373de0856c92b3c08896a" target="_top" xlink:title="イベント (EL_Event) を TLog に記録">
<polygon fill="white" stroke="black" points="1211.5,-389 1211.5,-419 1323.5,-419 1323.5,-389 1211.5,-389"/>
<text text-anchor="start" x="1219.5" y="-407" font-family="Helvetica,sans-Serif" font-size="10.00">EL_record_event_to</text>
<text text-anchor="middle" x="1267.5" y="-396" font-family="Helvetica,sans-Serif" font-size="10.00">_tlog_</text>
</a>
</g>
</g>
<!-- Node17&#45;&gt;Node27 -->
<g id="edge32" class="edge">
<title>Node17&#45;&gt;Node27</title>
<path fill="none" stroke="midnightblue" d="M1149.26,-387.2C1165.61,-389.54 1184,-392.18 1201.28,-394.66"/>
<polygon fill="midnightblue" stroke="midnightblue" points="1200.91,-398.14 1211.31,-396.09 1201.91,-391.21 1200.91,-398.14"/>
</g>
<!-- Node18&#45;&gt;Node17 -->
<g id="edge20" class="edge">
<title>Node18&#45;&gt;Node17</title>
<path fill="none" stroke="midnightblue" d="M1256.28,-320.54C1244.34,-326.78 1224.04,-333.29 1207,-340 1186.19,-348.2 1163.59,-358.26 1144.47,-366.44"/>
<polygon fill="midnightblue" stroke="midnightblue" points="1142.94,-363.29 1135.1,-370.41 1145.67,-369.73 1142.94,-363.29"/>
</g>
<!-- Node19&#45;&gt;Node14 -->
<g id="edge22" class="edge">
<title>Node19&#45;&gt;Node14</title>
<path fill="none" stroke="midnightblue" d="M1311.33,-273C1324.35,-273 1339.1,-273 1353.69,-273"/>
<polygon fill="midnightblue" stroke="midnightblue" points="1353.74,-276.5 1363.74,-273 1353.74,-269.5 1353.74,-276.5"/>
</g>
<!-- Node22 -->
<g id="node22" class="node">
<title>Node22</title>
<g id="a_node22"><a xlink:href="event__logger_8c.html#a605a3ff223ddae8830c09ff5aa57cc94" target="_top" xlink:title="該当イベントの CLog を，イベントテーブルの先頭に出す">
<polygon fill="white" stroke="black" points="1373,-340 1373,-370 1492,-370 1492,-340 1373,-340"/>
<text text-anchor="start" x="1381" y="-358" font-family="Helvetica,sans-Serif" font-size="10.00">EL_move_to_front_in</text>
<text text-anchor="middle" x="1432.5" y="-347" font-family="Helvetica,sans-Serif" font-size="10.00">_clog_</text>
</a>
</g>
</g>
<!-- Node21&#45;&gt;Node22 -->
<g id="edge25" class="edge">
<title>Node21&#45;&gt;Node22</title>
<path fill="none" stroke="midnightblue" d="M1323.68,-355C1336.15,-355 1349.53,-355 1362.48,-355"/>
<polygon fill="midnightblue" stroke="midnightblue" points="1362.75,-358.5 1372.75,-355 1362.75,-351.5 1362.75,-358.5"/>
</g>
<!-- Node25 -->
<g id="node25" class="node">
<title>Node25</title>
<g id="a_node25"><a xlink:href="obc__time_8c.html#a02512f745375636ab21f468838587942" target="_top" xlink:title="ObcTime の引き算を行う">
<polygon fill="white" stroke="black" points="1400,-301.5 1400,-320.5 1465,-320.5 1465,-301.5 1400,-301.5"/>
<text text-anchor="middle" x="1432.5" y="-308.5" font-family="Helvetica,sans-Serif" font-size="10.00">OBCT_diff</text>
</a>
</g>
</g>
<!-- Node21&#45;&gt;Node25 -->
<g id="edge29" class="edge">
<title>Node21&#45;&gt;Node25</title>
<path fill="none" stroke="midnightblue" d="M1323.68,-340.1C1345.33,-334.26 1369.76,-327.67 1389.88,-322.24"/>
<polygon fill="midnightblue" stroke="midnightblue" points="1390.93,-325.58 1399.67,-319.59 1389.11,-318.82 1390.93,-325.58"/>
</g>
<!-- Node23 -->
<g id="node23" class="node">
<title>Node23</title>
<g id="a_node23"><a xlink:href="event__logger_8c.html#a60dac03ee61b8b3fb3ac6335babb7209" target="_top" xlink:title="イベントテーブル先頭に該当イベントの CLog をつくる">
<polygon fill="white" stroke="black" points="1537,-429.5 1537,-448.5 1677,-448.5 1677,-429.5 1537,-429.5"/>
<text text-anchor="middle" x="1607" y="-436.5" font-family="Helvetica,sans-Serif" font-size="10.00">EL_create_clog_on_front_</text>
</a>
</g>
</g>
<!-- Node22&#45;&gt;Node23 -->
<g id="edge26" class="edge">
<title>Node22&#45;&gt;Node23</title>
<path fill="none" stroke="midnightblue" d="M1477.12,-370.01C1485.16,-373.1 1493.4,-376.48 1501,-380 1529.76,-393.31 1561.27,-411.54 1582.2,-424.2"/>
<polygon fill="midnightblue" stroke="midnightblue" points="1580.39,-427.2 1590.75,-429.42 1584.04,-421.22 1580.39,-427.2"/>
</g>
<!-- Node24 -->
<g id="node24" class="node">
<title>Node24</title>
<g id="a_node24"><a xlink:href="event__logger_8c.html#a987cce8c848158cc3038bb59dc100de3" target="_top" xlink:title="該当イベントの CLog を検索し取得する">
<polygon fill="white" stroke="black" points="1559,-345.5 1559,-364.5 1655,-364.5 1655,-345.5 1559,-345.5"/>
<text text-anchor="middle" x="1607" y="-352.5" font-family="Helvetica,sans-Serif" font-size="10.00">EL_search_clog_</text>
</a>
</g>
</g>
<!-- Node22&#45;&gt;Node24 -->
<g id="edge28" class="edge">
<title>Node22&#45;&gt;Node24</title>
<path fill="none" stroke="midnightblue" d="M1492.38,-355C1510.58,-355 1530.59,-355 1548.68,-355"/>
<polygon fill="midnightblue" stroke="midnightblue" points="1548.79,-358.5 1558.79,-355 1548.79,-351.5 1548.79,-358.5"/>
</g>
<!-- Node23&#45;&gt;Node17 -->
<g id="edge27" class="edge">
<title>Node23&#45;&gt;Node17</title>
<path fill="none" stroke="midnightblue" d="M1577.64,-448.52C1510.81,-469.36 1339.12,-513.6 1207,-467 1167.71,-453.14 1132.19,-418.27 1113.3,-397.13"/>
<polygon fill="midnightblue" stroke="midnightblue" points="1115.88,-394.76 1106.68,-389.51 1110.6,-399.35 1115.88,-394.76"/>
</g>
<!-- Node25&#45;&gt;Node15 -->
<g id="edge31" class="edge">
<title>Node25&#45;&gt;Node15</title>
<path fill="none" stroke="midnightblue" d="M1465.14,-304.03C1490.72,-298.4 1527.19,-290.36 1556.61,-283.88"/>
<polygon fill="midnightblue" stroke="midnightblue" points="1557.68,-287.23 1566.69,-281.66 1556.17,-280.39 1557.68,-287.23"/>
</g>
<!-- Node26 -->
<g id="node26" class="node">
<title>Node26</title>
<g id="a_node26"><a xlink:href="obc__time_8c.html#a8d70081c0b7615e9381c431ae5f8dca2" target="_top" xlink:title="ObcTime の比較">
<polygon fill="white" stroke="black" points="1561,-301.5 1561,-320.5 1653,-320.5 1653,-301.5 1561,-301.5"/>
<text text-anchor="middle" x="1607" y="-308.5" font-family="Helvetica,sans-Serif" font-size="10.00">OBCT_compare</text>
</a>
</g>
</g>
<!-- Node25&#45;&gt;Node26 -->
<g id="edge30" class="edge">
<title>Node25&#45;&gt;Node26</title>
<path fill="none" stroke="midnightblue" d="M1465.14,-311C1489.05,-311 1522.47,-311 1550.75,-311"/>
<polygon fill="midnightblue" stroke="midnightblue" points="1550.92,-314.5 1560.92,-311 1550.92,-307.5 1550.92,-314.5"/>
</g>
<!-- Node28 -->
<g id="node28" class="node">
<title>Node28</title>
<g id="a_node28"><a xlink:href="event__logger_8c.html#af088469f27d5dfca608a9cacee9fbc17" target="_top" xlink:title="TLog のイベントテーブルの上書きが有効か？">
<polygon fill="white" stroke="black" points="1374,-389 1374,-419 1491,-419 1491,-389 1374,-389"/>
<text text-anchor="start" x="1382" y="-407" font-family="Helvetica,sans-Serif" font-size="10.00">EL_is_tlog_overwrite</text>
<text text-anchor="middle" x="1432.5" y="-396" font-family="Helvetica,sans-Serif" font-size="10.00">_enable</text>
</a>
</g>
</g>
<!-- Node27&#45;&gt;Node28 -->
<g id="edge33" class="edge">
<title>Node27&#45;&gt;Node28</title>
<path fill="none" stroke="midnightblue" d="M1323.68,-404C1336.56,-404 1350.43,-404 1363.78,-404"/>
<polygon fill="midnightblue" stroke="midnightblue" points="1363.87,-407.5 1373.87,-404 1363.87,-400.5 1363.87,-407.5"/>
</g>
<!-- Node30 -->
<g id="node30" class="node">
<title>Node30</title>
<g id="a_node30"><a xlink:href="common__cmd__packet__util_8c.html#aa81cdbe41bd9883401c5d576e244cfce" target="_top" xlink:title="BC展開 command を生成">
<polygon fill="white" stroke="black" points="457,-218.5 457,-237.5 618,-237.5 618,-218.5 457,-218.5"/>
<text text-anchor="middle" x="537.5" y="-225.5" font-family="Helvetica,sans-Serif" font-size="10.00">CCP_form_block_deploy_cmd</text>
</a>
</g>
</g>
<!-- Node29&#45;&gt;Node30 -->
<g id="edge35" class="edge">
<title>Node29&#45;&gt;Node30</title>
<path fill="none" stroke="midnightblue" d="M402.27,-251.5C424.06,-247.68 449.35,-243.26 472.07,-239.28"/>
<polygon fill="midnightblue" stroke="midnightblue" points="472.71,-242.72 481.96,-237.55 471.51,-235.82 472.71,-242.72"/>
</g>
<!-- Node72 -->
<g id="node42" class="node">
<title>Node72</title>
<g id="a_node42"><a xlink:href="packet__handler_8c.html#a7b1777e6101ff2eeeef6042166974cdc" target="_top" xlink:title=" ">
<polygon fill="white" stroke="black" points="472,-275.5 472,-294.5 603,-294.5 603,-275.5 472,-275.5"/>
<text text-anchor="middle" x="537.5" y="-282.5" font-family="Helvetica,sans-Serif" font-size="10.00">PH_dispatch_command</text>
</a>
</g>
</g>
<!-- Node29&#45;&gt;Node72 -->
<g id="edge49" class="edge">
<title>Node29&#45;&gt;Node72</title>
<path fill="none" stroke="midnightblue" d="M415.25,-269.56C430.35,-271.48 446.45,-273.53 461.82,-275.49"/>
<polygon fill="midnightblue" stroke="midnightblue" points="461.44,-278.97 471.8,-276.76 462.32,-272.03 461.44,-278.97"/>
</g>
<!-- Node31 -->
<g id="node31" class="node">
<title>Node31</title>
<g id="a_node31"><a xlink:href="common__cmd__packet__util_8c.html#a01b352632ca605771f0cfd66a2a149ba" target="_top" xlink:title="NOP cmd の RTC CCP を作る">
<polygon fill="white" stroke="black" points="667.5,-142.5 667.5,-161.5 778.5,-161.5 778.5,-142.5 667.5,-142.5"/>
<text text-anchor="middle" x="723" y="-149.5" font-family="Helvetica,sans-Serif" font-size="10.00">CCP_form_nop_rtc_</text>
</a>
</g>
</g>
<!-- Node30&#45;&gt;Node31 -->
<g id="edge36" class="edge">
<title>Node30&#45;&gt;Node31</title>
<path fill="none" stroke="midnightblue" d="M594.56,-218.41C602.68,-215.95 610.73,-212.86 618,-209 637.17,-198.82 635.39,-187.17 654,-176 661.1,-171.74 669.06,-168.08 676.98,-164.99"/>
<polygon fill="midnightblue" stroke="midnightblue" points="678.34,-168.22 686.54,-161.51 675.95,-161.64 678.34,-168.22"/>
</g>
<!-- Node32 -->
<g id="node32" class="node">
<title>Node32</title>
<g id="a_node32"><a xlink:href="common__cmd__packet__util_8c.html#af9f77cfe0b19d8078e79f1c32d9b2843" target="_top" xlink:title="Realtime command を生成">
<polygon fill="white" stroke="black" points="867,-142.5 867,-161.5 950,-161.5 950,-142.5 867,-142.5"/>
<text text-anchor="middle" x="908.5" y="-149.5" font-family="Helvetica,sans-Serif" font-size="10.00">CCP_form_rtc</text>
</a>
</g>
</g>
<!-- Node30&#45;&gt;Node32 -->
<g id="edge46" class="edge">
<title>Node30&#45;&gt;Node32</title>
<path fill="none" stroke="midnightblue" d="M584.86,-218.45C654.32,-204.15 784.91,-177.25 856.81,-162.44"/>
<polygon fill="midnightblue" stroke="midnightblue" points="857.89,-165.79 866.98,-160.35 856.48,-158.93 857.89,-165.79"/>
</g>
<!-- Node45 -->
<g id="node40" class="node">
<title>Node45</title>
<g id="a_node40"><a xlink:href="endian__memcpy_8c.html#a153793f6939a1cb0f6bc3968d953f31e" target="_top" xlink:title=" ">
<polygon fill="white" stroke="black" points="674,-218.5 674,-237.5 772,-237.5 772,-218.5 674,-218.5"/>
<text text-anchor="middle" x="723" y="-225.5" font-family="Helvetica,sans-Serif" font-size="10.00">endian_memcpy</text>
</a>
</g>
</g>
<!-- Node30&#45;&gt;Node45 -->
<g id="edge47" class="edge">
<title>Node30&#45;&gt;Node45</title>
<path fill="none" stroke="midnightblue" d="M618.19,-228C633.44,-228 649.15,-228 663.58,-228"/>
<polygon fill="midnightblue" stroke="midnightblue" points="663.84,-231.5 673.84,-228 663.84,-224.5 663.84,-231.5"/>
</g>
<!-- Node31&#45;&gt;Node32 -->
<g id="edge37" class="edge">
<title>Node31&#45;&gt;Node32</title>
<path fill="none" stroke="midnightblue" d="M778.56,-145.77C803.33,-145.04 832.46,-145.08 856.76,-145.89"/>
<polygon fill="midnightblue" stroke="midnightblue" points="856.72,-149.39 866.85,-146.28 856.99,-142.4 856.72,-149.39"/>
</g>
<!-- Node32&#45;&gt;Node31 -->
<g id="edge39" class="edge">
<title>Node32&#45;&gt;Node31</title>
<path fill="none" stroke="midnightblue" d="M866.85,-157.72C843.92,-158.76 814.73,-159.01 788.73,-158.48"/>
<polygon fill="midnightblue" stroke="midnightblue" points="788.64,-154.98 778.56,-158.23 788.47,-161.98 788.64,-154.98"/>
</g>
<!-- Node33 -->
<g id="node33" class="node">
<title>Node33</title>
<g id="a_node33"><a xlink:href="command__analyze_8c.html#ae878a1a8ce00cc7468fbdd5bc5aba864" target="_top" xlink:title="コマンドパラメタ長をチェックする">
<polygon fill="white" stroke="red" points="1025,-294.5 1025,-313.5 1171,-313.5 1171,-294.5 1025,-294.5"/>
<text text-anchor="middle" x="1098" y="-301.5" font-family="Helvetica,sans-Serif" font-size="10.00">CA_ckeck_cmd_param_len</text>
</a>
</g>
</g>
<!-- Node32&#45;&gt;Node33 -->
<g id="edge38" class="edge">
<title>Node32&#45;&gt;Node33</title>
<path fill="none" stroke="midnightblue" d="M950.1,-153.72C963.92,-156.22 978.51,-161.23 989,-171 1027.89,-207.21 986.54,-248.34 1025,-285 1026.51,-286.44 1028.11,-287.77 1029.8,-289.01"/>
<polygon fill="midnightblue" stroke="midnightblue" points="1028.39,-292.25 1038.77,-294.39 1032,-286.24 1028.39,-292.25"/>
</g>
<!-- Node40 -->
<g id="node34" class="node">
<title>Node40</title>
<g id="a_node34"><a xlink:href="common__cmd__packet_8h.html#a53e55e3275bb17840514876c95203402" target="_top" xlink:title="共通部分の Header を構築">
<polygon fill="white" stroke="red" points="1035.5,-66.5 1035.5,-85.5 1160.5,-85.5 1160.5,-66.5 1035.5,-66.5"/>
<text text-anchor="middle" x="1098" y="-73.5" font-family="Helvetica,sans-Serif" font-size="10.00">CCP_set_common_hdr</text>
</a>
</g>
</g>
<!-- Node32&#45;&gt;Node40 -->
<g id="edge40" class="edge">
<title>Node32&#45;&gt;Node40</title>
<path fill="none" stroke="midnightblue" d="M926.24,-142.4C948.3,-130.07 988.56,-108.64 1025,-95 1031.43,-92.59 1038.28,-90.37 1045.12,-88.35"/>
<polygon fill="midnightblue" stroke="midnightblue" points="1046.38,-91.63 1055.05,-85.55 1044.48,-84.9 1046.38,-91.63"/>
</g>
<!-- Node59 -->
<g id="node35" class="node">
<title>Node59</title>
<g id="a_node35"><a xlink:href="common__cmd__packet_8h.html#a6ce61d959627cd955de389b10cadca90" target="_top" xlink:title="DEST_TYPE を設定">
<polygon fill="white" stroke="red" points="1043,-218.5 1043,-237.5 1153,-237.5 1153,-218.5 1043,-218.5"/>
<text text-anchor="middle" x="1098" y="-225.5" font-family="Helvetica,sans-Serif" font-size="10.00">CCP_set_dest_type</text>
</a>
</g>
</g>
<!-- Node32&#45;&gt;Node59 -->
<g id="edge41" class="edge">
<title>Node32&#45;&gt;Node59</title>
<path fill="none" stroke="midnightblue" d="M950.02,-157.01C963.07,-159.82 977.2,-164.19 989,-171 1009.15,-182.63 1004.99,-197.13 1025,-209 1028.69,-211.19 1032.63,-213.13 1036.7,-214.85"/>
<polygon fill="midnightblue" stroke="midnightblue" points="1035.77,-218.24 1046.37,-218.47 1038.23,-211.68 1035.77,-218.24"/>
</g>
<!-- Node61 -->
<g id="node36" class="node">
<title>Node61</title>
<g id="a_node36"><a xlink:href="common__cmd__packet_8h.html#ab4c0b1be76b7097e922a8a354f500b88" target="_top" xlink:title="EXEC_TYPE を設定">
<polygon fill="white" stroke="red" points="1042.5,-180.5 1042.5,-199.5 1153.5,-199.5 1153.5,-180.5 1042.5,-180.5"/>
<text text-anchor="middle" x="1098" y="-187.5" font-family="Helvetica,sans-Serif" font-size="10.00">CCP_set_exec_type</text>
</a>
</g>
</g>
<!-- Node32&#45;&gt;Node61 -->
<g id="edge42" class="edge">
<title>Node32&#45;&gt;Node61</title>
<path fill="none" stroke="midnightblue" d="M950.18,-160.25C976.49,-165.58 1011.1,-172.59 1040.11,-178.47"/>
<polygon fill="midnightblue" stroke="midnightblue" points="1039.62,-181.94 1050.11,-180.5 1041.01,-175.08 1039.62,-181.94"/>
</g>
<!-- Node63 -->
<g id="node37" class="node">
<title>Node63</title>
<g id="a_node37"><a xlink:href="common__cmd__packet_8h.html#ad3a6d476c3b56794c35a15e3a1d0a395" target="_top" xlink:title="CMD ID を設定">
<polygon fill="white" stroke="red" points="1062.5,-28.5 1062.5,-47.5 1133.5,-47.5 1133.5,-28.5 1062.5,-28.5"/>
<text text-anchor="middle" x="1098" y="-35.5" font-family="Helvetica,sans-Serif" font-size="10.00">CCP_set_id</text>
</a>
</g>
</g>
<!-- Node32&#45;&gt;Node63 -->
<g id="edge43" class="edge">
<title>Node32&#45;&gt;Node63</title>
<path fill="none" stroke="midnightblue" d="M918.37,-142.32C936.51,-123.12 979.93,-80.07 1025,-57 1033.45,-52.67 1042.98,-49.27 1052.27,-46.61"/>
<polygon fill="midnightblue" stroke="midnightblue" points="1053.41,-49.93 1062.2,-44 1051.63,-43.15 1053.41,-49.93"/>
</g>
<!-- Node65 -->
<g id="node38" class="node">
<title>Node65</title>
<g id="a_node38"><a xlink:href="common__cmd__packet_8h.html#a07200400c567d95965dda94da0f55b67" target="_top" xlink:title="パラメタを設定">
<polygon fill="white" stroke="red" points="1051.5,-142.5 1051.5,-161.5 1144.5,-161.5 1144.5,-142.5 1051.5,-142.5"/>
<text text-anchor="middle" x="1098" y="-149.5" font-family="Helvetica,sans-Serif" font-size="10.00">CCP_set_param</text>
</a>
</g>
</g>
<!-- Node32&#45;&gt;Node65 -->
<g id="edge44" class="edge">
<title>Node32&#45;&gt;Node65</title>
<path fill="none" stroke="midnightblue" d="M950.18,-152C976.87,-152 1012.11,-152 1041.38,-152"/>
<polygon fill="midnightblue" stroke="midnightblue" points="1041.46,-155.5 1051.46,-152 1041.46,-148.5 1041.46,-155.5"/>
</g>
<!-- Node70 -->
<g id="node39" class="node">
<title>Node70</title>
<g id="a_node39"><a xlink:href="common__cmd__packet_8h.html#a1fde7575e47a25464d869a3247e1e087" target="_top" xlink:title="TI を設定">
<polygon fill="white" stroke="red" points="1064,-104.5 1064,-123.5 1132,-123.5 1132,-104.5 1064,-104.5"/>
<text text-anchor="middle" x="1098" y="-111.5" font-family="Helvetica,sans-Serif" font-size="10.00">CCP_set_ti</text>
</a>
</g>
</g>
<!-- Node32&#45;&gt;Node70 -->
<g id="edge45" class="edge">
<title>Node32&#45;&gt;Node70</title>
<path fill="none" stroke="midnightblue" d="M950.18,-143.75C980.76,-137.56 1022.57,-129.08 1053.75,-122.76"/>
<polygon fill="midnightblue" stroke="midnightblue" points="1054.78,-126.13 1063.89,-120.71 1053.39,-119.27 1054.78,-126.13"/>
</g>
<!-- Node46 -->
<g id="node41" class="node">
<title>Node46</title>
<g id="a_node41"><a xlink:href="endian__conv_8c.html#af8d492c4e43d83c161cd2225a9697b6a" target="_top" xlink:title=" ">
<polygon fill="white" stroke="black" points="869.5,-180.5 869.5,-199.5 947.5,-199.5 947.5,-180.5 869.5,-180.5"/>
<text text-anchor="middle" x="908.5" y="-187.5" font-family="Helvetica,sans-Serif" font-size="10.00">endian_conv</text>
</a>
</g>
</g>
<!-- Node45&#45;&gt;Node46 -->
<g id="edge48" class="edge">
<title>Node45&#45;&gt;Node46</title>
<path fill="none" stroke="midnightblue" d="M770.3,-218.41C797.54,-212.77 831.92,-205.65 859.45,-199.95"/>
<polygon fill="midnightblue" stroke="midnightblue" points="860.17,-203.37 869.26,-197.92 858.75,-196.52 860.17,-203.37"/>
</g>
<!-- Node73 -->
<g id="node43" class="node">
<title>Node73</title>
<g id="a_node43"><a xlink:href="command__analyze_8c.html#a68bd697f2123acd72c8c1a49b7f3652a" target="_top" xlink:title="コマンド実行の本体">
<polygon fill="white" stroke="black" points="673,-332.5 673,-351.5 773,-351.5 773,-332.5 673,-332.5"/>
<text text-anchor="middle" x="723" y="-339.5" font-family="Helvetica,sans-Serif" font-size="10.00">CA_execute_cmd</text>
</a>
</g>
</g>
<!-- Node72&#45;&gt;Node73 -->
<g id="edge50" class="edge">
<title>Node72&#45;&gt;Node73</title>
<path fill="none" stroke="midnightblue" d="M569.21,-294.54C600.04,-304.12 647.7,-318.92 681.58,-329.45"/>
<polygon fill="midnightblue" stroke="midnightblue" points="680.6,-332.8 691.19,-332.43 682.67,-326.12 680.6,-332.8"/>
</g>
<!-- Node82 -->
<g id="node46" class="node">
<title>Node82</title>
<g id="a_node46"><a xlink:href="common__cmd__packet_8h.html#aa24f85ec65651169c91ab2ad0fad832f" target="_top" xlink:title="APID を取得">
<polygon fill="white" stroke="black" points="867,-256.5 867,-275.5 950,-275.5 950,-256.5 867,-256.5"/>
<text text-anchor="middle" x="908.5" y="-263.5" font-family="Helvetica,sans-Serif" font-size="10.00">CCP_get_apid</text>
</a>
</g>
</g>
<!-- Node72&#45;&gt;Node82 -->
<g id="edge55" class="edge">
<title>Node72&#45;&gt;Node82</title>
<path fill="none" stroke="midnightblue" d="M603.22,-287.9C654.51,-289.5 727.96,-290.23 792,-285 813.4,-283.25 836.81,-279.71 856.92,-276.15"/>
<polygon fill="midnightblue" stroke="midnightblue" points="857.59,-279.59 866.81,-274.36 856.34,-272.7 857.59,-279.59"/>
</g>
<!-- Node85 -->
<g id="node48" class="node">
<title>Node85</title>
<g id="a_node48"><a xlink:href="user__packet__handler_8c.html#a2c3c644313071db44127bc7a90be4569" target="_top" xlink:title="PHのcmd_router_のユーザー処理関数">
<polygon fill="white" stroke="black" points="664.5,-256.5 664.5,-275.5 781.5,-275.5 781.5,-256.5 664.5,-256.5"/>
<text text-anchor="middle" x="723" y="-263.5" font-family="Helvetica,sans-Serif" font-size="10.00">PH_user_cmd_router</text>
</a>
</g>
</g>
<!-- Node72&#45;&gt;Node85 -->
<g id="edge57" class="edge">
<title>Node72&#45;&gt;Node85</title>
<path fill="none" stroke="midnightblue" d="M603.2,-278.3C619.69,-276.59 637.46,-274.75 654.11,-273.03"/>
<polygon fill="midnightblue" stroke="midnightblue" points="654.72,-276.49 664.3,-271.97 654,-269.52 654.72,-276.49"/>
</g>
<!-- Node73&#45;&gt;Node16 -->
<g id="edge54" class="edge">
<title>Node73&#45;&gt;Node16</title>
<path fill="none" stroke="midnightblue" d="M759.46,-351.51C770.31,-355.2 782.02,-360.01 792,-366 810.61,-377.17 808.83,-388.82 828,-399 834.87,-402.65 842.45,-405.61 850.11,-408"/>
<polygon fill="midnightblue" stroke="midnightblue" points="849.25,-411.4 859.82,-410.75 851.15,-404.66 849.25,-411.4"/>
</g>
<!-- Node73&#45;&gt;Node33 -->
<g id="edge51" class="edge">
<title>Node73&#45;&gt;Node33</title>
<path fill="none" stroke="midnightblue" d="M769.91,-332.49C787.95,-329.04 808.88,-325.41 828,-323 890.4,-315.12 961.39,-310.28 1014.77,-307.46"/>
<polygon fill="midnightblue" stroke="midnightblue" points="1015.05,-310.95 1024.86,-306.94 1014.69,-303.96 1015.05,-310.95"/>
</g>
<!-- Node74 -->
<g id="node44" class="node">
<title>Node74</title>
<g id="a_node44"><a xlink:href="common__cmd__packet_8h.html#a5e5c73c5746397c40160652b10398652" target="_top" xlink:title="CMD ID を取得">
<polygon fill="white" stroke="red" points="873,-370.5 873,-389.5 944,-389.5 944,-370.5 873,-370.5"/>
<text text-anchor="middle" x="908.5" y="-377.5" font-family="Helvetica,sans-Serif" font-size="10.00">CCP_get_id</text>
</a>
</g>
</g>
<!-- Node73&#45;&gt;Node74 -->
<g id="edge52" class="edge">
<title>Node73&#45;&gt;Node74</title>
<path fill="none" stroke="midnightblue" d="M770.3,-351.59C798.67,-357.46 834.8,-364.94 862.85,-370.75"/>
<polygon fill="midnightblue" stroke="midnightblue" points="862.29,-374.21 872.8,-372.81 863.71,-367.36 862.29,-374.21"/>
</g>
<!-- Node77 -->
<g id="node45" class="node">
<title>Node77</title>
<g id="a_node45"><a xlink:href="common__cmd__packet_8h.html#a6f37129ce7654260af1f8a565f6423fc" target="_top" xlink:title="CMD パラメタ長を取得">
<polygon fill="white" stroke="red" points="851.5,-332.5 851.5,-351.5 965.5,-351.5 965.5,-332.5 851.5,-332.5"/>
<text text-anchor="middle" x="908.5" y="-339.5" font-family="Helvetica,sans-Serif" font-size="10.00">CCP_get_param_len</text>
</a>
</g>
</g>
<!-- Node73&#45;&gt;Node77 -->
<g id="edge53" class="edge">
<title>Node73&#45;&gt;Node77</title>
<path fill="none" stroke="midnightblue" d="M773.17,-342C794.07,-342 818.76,-342 841.23,-342"/>
<polygon fill="midnightblue" stroke="midnightblue" points="841.37,-345.5 851.37,-342 841.37,-338.5 841.37,-345.5"/>
</g>
<!-- Node83 -->
<g id="node47" class="node">
<title>Node83</title>
<g id="a_node47"><a xlink:href="cmd__space__packet_8c.html#a66281beb2903f651ac94e9ea379f94ce" target="_top" xlink:title="APID を取得">
<polygon fill="white" stroke="red" points="1056.5,-256.5 1056.5,-275.5 1139.5,-275.5 1139.5,-256.5 1056.5,-256.5"/>
<text text-anchor="middle" x="1098" y="-263.5" font-family="Helvetica,sans-Serif" font-size="10.00">CSP_get_apid</text>
</a>
</g>
</g>
<!-- Node82&#45;&gt;Node83 -->
<g id="edge56" class="edge">
<title>Node82&#45;&gt;Node83</title>
<path fill="none" stroke="midnightblue" d="M950.18,-266C978.32,-266 1015.96,-266 1046.08,-266"/>
<polygon fill="midnightblue" stroke="midnightblue" points="1046.39,-269.5 1056.39,-266 1046.39,-262.5 1046.39,-269.5"/>
</g>
<!-- Node85&#45;&gt;Node82 -->
<g id="edge58" class="edge">
<title>Node85&#45;&gt;Node82</title>
<path fill="none" stroke="midnightblue" d="M781.56,-266C805.64,-266 833.38,-266 856.69,-266"/>
<polygon fill="midnightblue" stroke="midnightblue" points="856.72,-269.5 866.72,-266 856.72,-262.5 856.72,-269.5"/>
</g>
<!-- Node86 -->
<g id="node49" class="node">
<title>Node86</title>
<g id="a_node49"><a xlink:href="di__aobc_8c.html#aff7d4f09f3003e15242d14e6ed393059" target="_top" xlink:title="CommonCmdPacket を AOBC に送信する">
<polygon fill="white" stroke="red" points="828,-218.5 828,-237.5 989,-237.5 989,-218.5 828,-218.5"/>
<text text-anchor="middle" x="908.5" y="-225.5" font-family="Helvetica,sans-Serif" font-size="10.00">DI_AOBC_dispatch_command</text>
</a>
</g>
</g>
<!-- Node85&#45;&gt;Node86 -->
<g id="edge59" class="edge">
<title>Node85&#45;&gt;Node86</title>
<path fill="none" stroke="midnightblue" d="M770.3,-256.41C794.96,-251.31 825.46,-244.99 851.44,-239.61"/>
<polygon fill="midnightblue" stroke="midnightblue" points="852.45,-242.98 861.53,-237.52 851.03,-236.12 852.45,-242.98"/>
</g>
<!-- Node86&#45;&gt;Node59 -->
<g id="edge60" class="edge">
<title>Node86&#45;&gt;Node59</title>
<path fill="none" stroke="midnightblue" d="M989.02,-228C1003.63,-228 1018.72,-228 1032.82,-228"/>
<polygon fill="midnightblue" stroke="midnightblue" points="1032.89,-231.5 1042.89,-228 1032.89,-224.5 1032.89,-231.5"/>
</g>
<!-- Node86&#45;&gt;Node61 -->
<g id="edge61" class="edge">
<title>Node86&#45;&gt;Node61</title>
<path fill="none" stroke="midnightblue" d="M956.81,-218.41C982.11,-213.28 1013.45,-206.93 1040.07,-201.54"/>
<polygon fill="midnightblue" stroke="midnightblue" points="1040.92,-204.94 1050.03,-199.52 1039.53,-198.08 1040.92,-204.94"/>
</g>
</g>
</svg>
