<?xml version="1.0" encoding="UTF-8" standalone="no"?>
<!DOCTYPE svg PUBLIC "-//W3C//DTD SVG 1.1//EN"
 "http://www.w3.org/Graphics/SVG/1.1/DTD/svg11.dtd">
<!-- Generated by graphviz version 2.43.0 (0)
 -->
<!-- Title: src/src_core/Applications/nop.c Pages: 1 -->
<svg width="1086pt" height="419pt"
 viewBox="0.00 0.00 1086.00 419.00" xmlns="http://www.w3.org/2000/svg" xmlns:xlink="http://www.w3.org/1999/xlink">
<g id="graph0" class="graph" transform="scale(1 1) rotate(0) translate(4 415)">
<title>src/src_core/Applications/nop.c</title>
<polygon fill="white" stroke="transparent" points="-4,4 -4,-415 1082,-415 1082,4 -4,4"/>
<!-- Node1 -->
<g id="node1" class="node">
<title>Node1</title>
<g id="a_node1"><a xlink:title=" ">
<polygon fill="#bfbfbf" stroke="black" points="239.5,-380.5 239.5,-410.5 376.5,-410.5 376.5,-380.5 239.5,-380.5"/>
<text text-anchor="start" x="247.5" y="-398.5" font-family="Helvetica,sans-Serif" font-size="10.00">src/src_core/Applications</text>
<text text-anchor="middle" x="308" y="-387.5" font-family="Helvetica,sans-Serif" font-size="10.00">/nop.c</text>
</a>
</g>
</g>
<!-- Node2 -->
<g id="node2" class="node">
<title>Node2</title>
<g id="a_node2"><a xlink:href="nop_8h.html" target="_top" xlink:title=" ">
<polygon fill="white" stroke="black" points="594,-324.5 594,-343.5 638,-343.5 638,-324.5 594,-324.5"/>
<text text-anchor="middle" x="616" y="-331.5" font-family="Helvetica,sans-Serif" font-size="10.00">nop.h</text>
</a>
</g>
</g>
<!-- Node1&#45;&gt;Node2 -->
<g id="edge1" class="edge">
<title>Node1&#45;&gt;Node2</title>
<path fill="none" stroke="midnightblue" d="M376.74,-381.22C441.32,-368.74 535.12,-350.62 583.87,-341.21"/>
<polygon fill="midnightblue" stroke="midnightblue" points="584.69,-344.61 593.84,-339.28 583.36,-337.74 584.69,-344.61"/>
</g>
<!-- Node9 -->
<g id="node9" class="node">
<title>Node9</title>
<g id="a_node9"><a xlink:title=" ">
<polygon fill="white" stroke="#bfbfbf" points="10,-56.5 10,-75.5 66,-75.5 66,-56.5 10,-56.5"/>
<text text-anchor="middle" x="38" y="-63.5" font-family="Helvetica,sans-Serif" font-size="10.00">stddef.h</text>
</a>
</g>
</g>
<!-- Node1&#45;&gt;Node9 -->
<g id="edge23" class="edge">
<title>Node1&#45;&gt;Node9</title>
<path fill="none" stroke="midnightblue" d="M239.26,-381.81C148.49,-363.05 0,-324.56 0,-273.5 0,-273.5 0,-273.5 0,-199 0,-156.85 18.11,-109.98 29.33,-85"/>
<polygon fill="midnightblue" stroke="midnightblue" points="32.61,-86.26 33.64,-75.71 26.26,-83.31 32.61,-86.26"/>
</g>
<!-- Node3 -->
<g id="node3" class="node">
<title>Node3</title>
<g id="a_node3"><a xlink:href="app__info_8h.html" target="_top" xlink:title=" ">
<polygon fill="white" stroke="black" points="788.5,-257.5 788.5,-287.5 951.5,-287.5 951.5,-257.5 788.5,-257.5"/>
<text text-anchor="start" x="796.5" y="-275.5" font-family="Helvetica,sans-Serif" font-size="10.00">../System/ApplicationManager</text>
<text text-anchor="middle" x="870" y="-264.5" font-family="Helvetica,sans-Serif" font-size="10.00">/app_info.h</text>
</a>
</g>
</g>
<!-- Node2&#45;&gt;Node3 -->
<g id="edge2" class="edge">
<title>Node2&#45;&gt;Node3</title>
<path fill="none" stroke="midnightblue" d="M638.1,-327.82C673.83,-319.45 745.78,-302.6 800.12,-289.87"/>
<polygon fill="midnightblue" stroke="midnightblue" points="801.11,-293.23 810.05,-287.54 799.51,-286.42 801.11,-293.23"/>
</g>
<!-- Node8 -->
<g id="node8" class="node">
<title>Node8</title>
<g id="a_node8"><a xlink:href="common__tlm__cmd__packet_8h.html" target="_top" xlink:title="CTCP の宣言">
<polygon fill="white" stroke="black" points="549,-257.5 549,-287.5 683,-287.5 683,-257.5 549,-257.5"/>
<text text-anchor="start" x="557" y="-275.5" font-family="Helvetica,sans-Serif" font-size="10.00">../CmdTlm/common_tlm</text>
<text text-anchor="middle" x="616" y="-264.5" font-family="Helvetica,sans-Serif" font-size="10.00">_cmd_packet.h</text>
</a>
</g>
</g>
<!-- Node2&#45;&gt;Node8 -->
<g id="edge7" class="edge">
<title>Node2&#45;&gt;Node8</title>
<path fill="none" stroke="midnightblue" d="M616,-324.48C616,-317.47 616,-307.19 616,-297.7"/>
<polygon fill="midnightblue" stroke="midnightblue" points="619.5,-297.52 616,-287.52 612.5,-297.52 619.5,-297.52"/>
</g>
<!-- Node4 -->
<g id="node4" class="node">
<title>Node4</title>
<g id="a_node4"><a xlink:href="obc__time_8h.html" target="_top" xlink:title=" ">
<polygon fill="white" stroke="black" points="900.5,-185 900.5,-215 1013.5,-215 1013.5,-185 900.5,-185"/>
<text text-anchor="start" x="908.5" y="-203" font-family="Helvetica,sans-Serif" font-size="10.00">../TimeManager/obc</text>
<text text-anchor="middle" x="957" y="-192" font-family="Helvetica,sans-Serif" font-size="10.00">_time.h</text>
</a>
</g>
</g>
<!-- Node3&#45;&gt;Node4 -->
<g id="edge3" class="edge">
<title>Node3&#45;&gt;Node4</title>
<path fill="none" stroke="midnightblue" d="M887.61,-257.23C900.31,-246.94 917.64,-232.9 931.8,-221.42"/>
<polygon fill="midnightblue" stroke="midnightblue" points="934.15,-224.02 939.72,-215 929.74,-218.58 934.15,-224.02"/>
</g>
<!-- Node5 -->
<g id="node5" class="node">
<title>Node5</title>
<g id="a_node5"><a xlink:href="stdint_8h.html" target="_top" xlink:title=" ">
<polygon fill="white" stroke="black" points="786,-56.5 786,-75.5 920,-75.5 920,-56.5 786,-56.5"/>
<text text-anchor="middle" x="853" y="-63.5" font-family="Helvetica,sans-Serif" font-size="10.00">src_user/Library/stdint.h</text>
</a>
</g>
</g>
<!-- Node4&#45;&gt;Node5 -->
<g id="edge4" class="edge">
<title>Node4&#45;&gt;Node5</title>
<path fill="none" stroke="midnightblue" d="M945.87,-184.87C926.47,-160.26 886.58,-109.62 865.97,-83.46"/>
<polygon fill="midnightblue" stroke="midnightblue" points="868.71,-81.29 859.77,-75.6 863.21,-85.62 868.71,-81.29"/>
</g>
<!-- Node7 -->
<g id="node7" class="node">
<title>Node7</title>
<g id="a_node7"><a xlink:href="obc__time__params_8h.html" target="_top" xlink:title="OBCTのCoreパラメタのオーバーライド用ヘッダー">
<polygon fill="white" stroke="black" points="938,-112.5 938,-142.5 1078,-142.5 1078,-112.5 938,-112.5"/>
<text text-anchor="start" x="946" y="-130.5" font-family="Helvetica,sans-Serif" font-size="10.00">src_user/Settings/System</text>
<text text-anchor="middle" x="1008" y="-119.5" font-family="Helvetica,sans-Serif" font-size="10.00">/obc_time_params.h</text>
</a>
</g>
</g>
<!-- Node4&#45;&gt;Node7 -->
<g id="edge6" class="edge">
<title>Node4&#45;&gt;Node7</title>
<path fill="none" stroke="midnightblue" d="M967.32,-184.73C974.3,-175.08 983.67,-162.13 991.66,-151.09"/>
<polygon fill="midnightblue" stroke="midnightblue" points="994.67,-152.9 997.69,-142.75 989,-148.8 994.67,-152.9"/>
</g>
<!-- Node6 -->
<g id="node6" class="node">
<title>Node6</title>
<g id="a_node6"><a xlink:href="sils__define_8h.html" target="_top" xlink:title=" ">
<polygon fill="white" stroke="black" points="788.5,-0.5 788.5,-19.5 917.5,-19.5 917.5,-0.5 788.5,-0.5"/>
<text text-anchor="middle" x="853" y="-7.5" font-family="Helvetica,sans-Serif" font-size="10.00">../Settings/sils_define.h</text>
</a>
</g>
</g>
<!-- Node5&#45;&gt;Node6 -->
<g id="edge5" class="edge">
<title>Node5&#45;&gt;Node6</title>
<path fill="none" stroke="midnightblue" d="M853,-56.08C853,-49.01 853,-38.86 853,-29.99"/>
<polygon fill="midnightblue" stroke="midnightblue" points="856.5,-29.75 853,-19.75 849.5,-29.75 856.5,-29.75"/>
</g>
<!-- Node8&#45;&gt;Node4 -->
<g id="edge9" class="edge">
<title>Node8&#45;&gt;Node4</title>
<path fill="none" stroke="midnightblue" d="M683.2,-260.65C738.04,-251.39 817.39,-237.05 886,-221 890.4,-219.97 894.93,-218.85 899.48,-217.67"/>
<polygon fill="midnightblue" stroke="midnightblue" points="900.64,-220.98 909.41,-215.04 898.85,-214.22 900.64,-220.98"/>
</g>
<!-- Node8&#45;&gt;Node5 -->
<g id="edge11" class="edge">
<title>Node8&#45;&gt;Node5</title>
<path fill="none" stroke="midnightblue" d="M683.23,-266.44C745.63,-260.18 831.96,-247 853,-221 884.75,-181.77 869.68,-116.68 859.57,-85.18"/>
<polygon fill="midnightblue" stroke="midnightblue" points="862.83,-83.88 856.29,-75.54 856.2,-86.13 862.83,-83.88"/>
</g>
<!-- Node8&#45;&gt;Node9 -->
<g id="edge8" class="edge">
<title>Node8&#45;&gt;Node9</title>
<path fill="none" stroke="midnightblue" d="M548.79,-270.08C407.9,-266.44 91.7,-254.59 57,-221 20.29,-185.47 27.54,-118.07 33.77,-85.52"/>
<polygon fill="midnightblue" stroke="midnightblue" points="37.23,-86.07 35.85,-75.56 30.38,-84.63 37.23,-86.07"/>
</g>
<!-- Node10 -->
<g id="node10" class="node">
<title>Node10</title>
<g id="a_node10"><a xlink:href="command__definitions_8h.html" target="_top" xlink:title="コマンド定義">
<polygon fill="white" stroke="black" points="66.5,-185 66.5,-215 219.5,-215 219.5,-185 66.5,-185"/>
<text text-anchor="start" x="74.5" y="-203" font-family="Helvetica,sans-Serif" font-size="10.00">src_user/CmdTlm/command</text>
<text text-anchor="middle" x="143" y="-192" font-family="Helvetica,sans-Serif" font-size="10.00">_definitions.h</text>
</a>
</g>
</g>
<!-- Node8&#45;&gt;Node10 -->
<g id="edge10" class="edge">
<title>Node8&#45;&gt;Node10</title>
<path fill="none" stroke="midnightblue" d="M548.92,-264.78C471.5,-256.55 340.51,-241.19 229,-221 222.76,-219.87 216.3,-218.58 209.84,-217.22"/>
<polygon fill="midnightblue" stroke="midnightblue" points="210.25,-213.73 199.74,-215.03 208.77,-220.57 210.25,-213.73"/>
</g>
<!-- Node11 -->
<g id="node11" class="node">
<title>Node11</title>
<g id="a_node11"><a xlink:href="app__registry_8h.html" target="_top" xlink:title=" ">
<polygon fill="white" stroke="black" points="238,-185 238,-215 358,-215 358,-185 238,-185"/>
<text text-anchor="start" x="246" y="-203" font-family="Helvetica,sans-Serif" font-size="10.00">src_user/Applications</text>
<text text-anchor="middle" x="298" y="-192" font-family="Helvetica,sans-Serif" font-size="10.00">/app_registry.h</text>
</a>
</g>
</g>
<!-- Node8&#45;&gt;Node11 -->
<g id="edge12" class="edge">
<title>Node8&#45;&gt;Node11</title>
<path fill="none" stroke="midnightblue" d="M548.82,-259.42C498.52,-250 428.14,-236.04 367,-221 362.91,-219.99 358.7,-218.91 354.48,-217.78"/>
<polygon fill="midnightblue" stroke="midnightblue" points="355.2,-214.34 344.63,-215.08 353.35,-221.1 355.2,-214.34"/>
</g>
<!-- Node12 -->
<g id="node12" class="node">
<title>Node12</title>
<g id="a_node12"><a xlink:href="common__tlm__cmd__packet__define_8h.html" target="_top" xlink:title="CTCP型の定義">
<polygon fill="white" stroke="black" points="542,-179.5 542,-220.5 690,-220.5 690,-179.5 542,-179.5"/>
<text text-anchor="start" x="550" y="-208.5" font-family="Helvetica,sans-Serif" font-size="10.00">src_user/Settings/CmdTlm</text>
<text text-anchor="start" x="550" y="-197.5" font-family="Helvetica,sans-Serif" font-size="10.00">/common_tlm_cmd_packet</text>
<text text-anchor="middle" x="616" y="-186.5" font-family="Helvetica,sans-Serif" font-size="10.00">_define.h</text>
</a>
</g>
</g>
<!-- Node8&#45;&gt;Node12 -->
<g id="edge13" class="edge">
<title>Node8&#45;&gt;Node12</title>
<path fill="none" stroke="midnightblue" d="M616,-257.23C616,-249.57 616,-239.84 616,-230.63"/>
<polygon fill="midnightblue" stroke="midnightblue" points="619.5,-230.59 616,-220.59 612.5,-230.59 619.5,-230.59"/>
</g>
<!-- Node14 -->
<g id="node14" class="node">
<title>Node14</title>
<g id="a_node14"><a xlink:href="common__tlm__cmd__packet__params_8h.html" target="_top" xlink:title="CTCP パラメタのオーバーライド用ヘッダー">
<polygon fill="white" stroke="black" points="376,-179.5 376,-220.5 524,-220.5 524,-179.5 376,-179.5"/>
<text text-anchor="start" x="384" y="-208.5" font-family="Helvetica,sans-Serif" font-size="10.00">src_user/Settings/CmdTlm</text>
<text text-anchor="start" x="384" y="-197.5" font-family="Helvetica,sans-Serif" font-size="10.00">/common_tlm_cmd_packet</text>
<text text-anchor="middle" x="450" y="-186.5" font-family="Helvetica,sans-Serif" font-size="10.00">_params.h</text>
</a>
</g>
</g>
<!-- Node8&#45;&gt;Node14 -->
<g id="edge17" class="edge">
<title>Node8&#45;&gt;Node14</title>
<path fill="none" stroke="midnightblue" d="M582.81,-257.4C560.64,-247.99 530.96,-235.39 505.28,-224.48"/>
<polygon fill="midnightblue" stroke="midnightblue" points="506.6,-221.23 496.02,-220.55 503.86,-227.68 506.6,-221.23"/>
</g>
<!-- Node15 -->
<g id="node15" class="node">
<title>Node15</title>
<g id="a_node15"><a xlink:href="block__command__table_8h.html" target="_top" xlink:title="BCTの定義, BCT周りの関数">
<polygon fill="white" stroke="black" points="708,-190.5 708,-209.5 844,-209.5 844,-190.5 708,-190.5"/>
<text text-anchor="middle" x="776" y="-197.5" font-family="Helvetica,sans-Serif" font-size="10.00">block_command_table.h</text>
</a>
</g>
</g>
<!-- Node8&#45;&gt;Node15 -->
<g id="edge19" class="edge">
<title>Node8&#45;&gt;Node15</title>
<path fill="none" stroke="midnightblue" d="M642.47,-257.4C669.93,-244.55 712.69,-225.74 742.48,-213.44"/>
<polygon fill="midnightblue" stroke="midnightblue" points="744.11,-216.55 752.04,-209.53 741.46,-210.07 744.11,-216.55"/>
</g>
<!-- Node13 -->
<g id="node13" class="node">
<title>Node13</title>
<g id="a_node13"><a xlink:href="_t_c_packet_8h.html" target="_top" xlink:title=" ">
<polygon fill="white" stroke="black" points="448.5,-112.5 448.5,-142.5 555.5,-142.5 555.5,-112.5 448.5,-112.5"/>
<text text-anchor="start" x="456.5" y="-130.5" font-family="Helvetica,sans-Serif" font-size="10.00">../../CmdTlm/Ccsds</text>
<text text-anchor="middle" x="502" y="-119.5" font-family="Helvetica,sans-Serif" font-size="10.00">/TCPacket.h</text>
</a>
</g>
</g>
<!-- Node12&#45;&gt;Node13 -->
<g id="edge14" class="edge">
<title>Node12&#45;&gt;Node13</title>
<path fill="none" stroke="midnightblue" d="M584.24,-179.36C568.49,-169.62 549.52,-157.89 533.77,-148.15"/>
<polygon fill="midnightblue" stroke="midnightblue" points="535.26,-144.95 524.91,-142.67 531.58,-150.91 535.26,-144.95"/>
</g>
<!-- Node13&#45;&gt;Node5 -->
<g id="edge16" class="edge">
<title>Node13&#45;&gt;Node5</title>
<path fill="none" stroke="midnightblue" d="M555.69,-117.4C619.62,-106.56 726.11,-88.51 792.79,-77.21"/>
<polygon fill="midnightblue" stroke="midnightblue" points="793.45,-80.64 802.73,-75.52 792.28,-73.74 793.45,-80.64"/>
</g>
<!-- Node13&#45;&gt;Node9 -->
<g id="edge15" class="edge">
<title>Node13&#45;&gt;Node9</title>
<path fill="none" stroke="midnightblue" d="M448.32,-119.62C353.5,-107.46 158.59,-82.46 76.16,-71.89"/>
<polygon fill="midnightblue" stroke="midnightblue" points="76.58,-68.42 66.21,-70.62 75.69,-75.36 76.58,-68.42"/>
</g>
<!-- Node14&#45;&gt;Node13 -->
<g id="edge18" class="edge">
<title>Node14&#45;&gt;Node13</title>
<path fill="none" stroke="midnightblue" d="M464.48,-179.36C470.95,-170.59 478.61,-160.21 485.32,-151.12"/>
<polygon fill="midnightblue" stroke="midnightblue" points="488.27,-153.02 491.38,-142.89 482.63,-148.86 488.27,-153.02"/>
</g>
<!-- Node15&#45;&gt;Node5 -->
<g id="edge20" class="edge">
<title>Node15&#45;&gt;Node5</title>
<path fill="none" stroke="midnightblue" d="M782.26,-190.48C790.08,-179.69 803.69,-160.38 814,-143 825.54,-123.54 837.18,-100.28 844.7,-84.66"/>
<polygon fill="midnightblue" stroke="midnightblue" points="847.86,-86.15 849,-75.62 841.54,-83.14 847.86,-86.15"/>
</g>
<!-- Node15&#45;&gt;Node8 -->
<g id="edge22" class="edge">
<title>Node15&#45;&gt;Node8</title>
<path fill="none" stroke="midnightblue" d="M761.22,-209.53C738.97,-220.35 696.47,-239.28 663.11,-253.38"/>
<polygon fill="midnightblue" stroke="midnightblue" points="661.39,-250.31 653.52,-257.4 664.1,-256.76 661.39,-250.31"/>
</g>
<!-- Node16 -->
<g id="node16" class="node">
<title>Node16</title>
<g id="a_node16"><a xlink:href="block__command__table__params_8h.html" target="_top" xlink:title="BCTのCoreTlmパラメタのオーバーライド用ヘッダー">
<polygon fill="white" stroke="black" points="624.5,-112.5 624.5,-142.5 805.5,-142.5 805.5,-112.5 624.5,-112.5"/>
<text text-anchor="start" x="632.5" y="-130.5" font-family="Helvetica,sans-Serif" font-size="10.00">src_user/Settings/CmdTlm</text>
<text text-anchor="middle" x="715" y="-119.5" font-family="Helvetica,sans-Serif" font-size="10.00">/block_command_table_params.h</text>
</a>
</g>
</g>
<!-- Node15&#45;&gt;Node16 -->
<g id="edge21" class="edge">
<title>Node15&#45;&gt;Node16</title>
<path fill="none" stroke="midnightblue" d="M768.52,-190.36C759.98,-180.49 745.7,-163.98 734.03,-150.49"/>
<polygon fill="midnightblue" stroke="midnightblue" points="736.37,-147.85 727.18,-142.58 731.08,-152.43 736.37,-147.85"/>
</g>
</g>
</svg>
