<?xml version="1.0" encoding="UTF-8" standalone="no"?>
<!DOCTYPE svg PUBLIC "-//W3C//DTD SVG 1.1//EN"
 "http://www.w3.org/Graphics/SVG/1.1/DTD/svg11.dtd">
<!-- Generated by graphviz version 2.43.0 (0)
 -->
<!-- Title: OBCT_diff Pages: 1 -->
<svg width="1611pt" height="1112pt"
 viewBox="0.00 0.00 1611.00 1111.50" xmlns="http://www.w3.org/2000/svg" xmlns:xlink="http://www.w3.org/1999/xlink">
<g id="graph0" class="graph" transform="scale(1 1) rotate(0) translate(4 1107.5)">
<title>OBCT_diff</title>
<polygon fill="white" stroke="transparent" points="-4,4 -4,-1107.5 1607,-1107.5 1607,4 -4,4"/>
<!-- Node1 -->
<g id="node1" class="node">
<title>Node1</title>
<g id="a_node1"><a xlink:title="ObcTime の引き算を行う">
<polygon fill="#bfbfbf" stroke="black" points="1538,-402 1538,-421 1603,-421 1603,-402 1538,-402"/>
<text text-anchor="middle" x="1570.5" y="-409" font-family="Helvetica,sans-Serif" font-size="10.00">OBCT_diff</text>
</a>
</g>
</g>
<!-- Node2 -->
<g id="node2" class="node">
<title>Node2</title>
<g id="a_node2"><a xlink:href="event__logger_8c.html#a69fb9dbc85ad467d048f1c9f31d2442c" target="_top" xlink:title="イベント (EL_Event) を CLog に記録">
<polygon fill="white" stroke="black" points="1390,-396.5 1390,-426.5 1502,-426.5 1502,-396.5 1390,-396.5"/>
<text text-anchor="start" x="1398" y="-414.5" font-family="Helvetica,sans-Serif" font-size="10.00">EL_record_event_to</text>
<text text-anchor="middle" x="1446" y="-403.5" font-family="Helvetica,sans-Serif" font-size="10.00">_clog_</text>
</a>
</g>
</g>
<!-- Node1&#45;&gt;Node2 -->
<g id="edge1" class="edge">
<title>Node1&#45;&gt;Node2</title>
<path fill="none" stroke="midnightblue" d="M1527.84,-411.5C1519.6,-411.5 1510.82,-411.5 1502.21,-411.5"/>
<polygon fill="midnightblue" stroke="midnightblue" points="1527.95,-415 1537.95,-411.5 1527.95,-408 1527.95,-415"/>
</g>
<!-- Node95 -->
<g id="node43" class="node">
<title>Node95</title>
<g id="a_node43"><a xlink:href="obc__time_8h.html#a726e416698ccbad0b6ecced8ca02d2a4" target="_top" xlink:title="ObcTime の引き算を秒単位で行う">
<polygon fill="white" stroke="black" points="1395.5,-358 1395.5,-377 1496.5,-377 1496.5,-358 1395.5,-358"/>
<text text-anchor="middle" x="1446" y="-365" font-family="Helvetica,sans-Serif" font-size="10.00">OBCT_diff_in_sec</text>
</a>
</g>
</g>
<!-- Node1&#45;&gt;Node95 -->
<g id="edge57" class="edge">
<title>Node1&#45;&gt;Node95</title>
<path fill="none" stroke="midnightblue" d="M1534.58,-398.4C1524.12,-394.52 1512.61,-390.3 1502,-386.5 1493.25,-383.37 1483.68,-380.03 1475.02,-377.05"/>
<polygon fill="midnightblue" stroke="midnightblue" points="1533.63,-401.78 1544.23,-401.99 1536.07,-395.22 1533.63,-401.78"/>
</g>
<!-- Node96 -->
<g id="node44" class="node">
<title>Node96</title>
<g id="a_node44"><a xlink:href="obc__time_8h.html#a3adce1b790eb67e1eff3cb1e79fc197f" target="_top" xlink:title="ObcTime の引き算を step 単位で行う">
<polygon fill="white" stroke="black" points="1093.5,-932 1093.5,-951 1198.5,-951 1198.5,-932 1093.5,-932"/>
<text text-anchor="middle" x="1146" y="-939" font-family="Helvetica,sans-Serif" font-size="10.00">OBCT_diff_in_step</text>
</a>
</g>
</g>
<!-- Node1&#45;&gt;Node96 -->
<g id="edge58" class="edge">
<title>Node1&#45;&gt;Node96</title>
<path fill="none" stroke="midnightblue" d="M1555.39,-429.2C1488.65,-512.93 1205.68,-867.89 1154.84,-931.67"/>
<polygon fill="midnightblue" stroke="midnightblue" points="1558.31,-431.15 1561.81,-421.15 1552.84,-426.79 1558.31,-431.15"/>
</g>
<!-- Node3 -->
<g id="node3" class="node">
<title>Node3</title>
<g id="a_node3"><a xlink:href="event__logger_8c.html#a80a1b60c587d1e3402b02e3bde1db899" target="_top" xlink:title="イベント (EL_Event) を記録">
<polygon fill="white" stroke="black" points="1252,-402 1252,-421 1354,-421 1354,-402 1252,-402"/>
<text text-anchor="middle" x="1303" y="-409" font-family="Helvetica,sans-Serif" font-size="10.00">EL_record_event_</text>
</a>
</g>
</g>
<!-- Node2&#45;&gt;Node3 -->
<g id="edge2" class="edge">
<title>Node2&#45;&gt;Node3</title>
<path fill="none" stroke="midnightblue" d="M1379.67,-411.5C1371.09,-411.5 1362.4,-411.5 1354.11,-411.5"/>
<polygon fill="midnightblue" stroke="midnightblue" points="1379.68,-415 1389.68,-411.5 1379.68,-408 1379.68,-415"/>
</g>
<!-- Node4 -->
<g id="node4" class="node">
<title>Node4</title>
<g id="a_node4"><a xlink:href="event__logger_8c.html#aeae14f21b4e29006f709a61e7de52d67" target="_top" xlink:title="TLog の wp をチェックし， event を生成する">
<polygon fill="white" stroke="black" points="1091,-402 1091,-421 1201,-421 1201,-402 1091,-402"/>
<text text-anchor="middle" x="1146" y="-409" font-family="Helvetica,sans-Serif" font-size="10.00">EL_check_tlog_wp_</text>
</a>
</g>
</g>
<!-- Node3&#45;&gt;Node4 -->
<g id="edge3" class="edge">
<title>Node3&#45;&gt;Node4</title>
<path fill="none" stroke="midnightblue" d="M1241.62,-404.9C1228.26,-404.66 1214.18,-404.71 1201.08,-405.03"/>
<polygon fill="midnightblue" stroke="midnightblue" points="1241.6,-408.4 1251.68,-405.13 1241.76,-401.4 1241.6,-408.4"/>
</g>
<!-- Node5 -->
<g id="node5" class="node">
<title>Node5</title>
<g id="a_node5"><a xlink:href="event__logger_8c.html#a60dac03ee61b8b3fb3ac6335babb7209" target="_top" xlink:title="イベントテーブル先頭に該当イベントの CLog をつくる">
<polygon fill="white" stroke="black" points="1076,-278 1076,-297 1216,-297 1216,-278 1076,-278"/>
<text text-anchor="middle" x="1146" y="-285" font-family="Helvetica,sans-Serif" font-size="10.00">EL_create_clog_on_front_</text>
</a>
</g>
</g>
<!-- Node3&#45;&gt;Node5 -->
<g id="edge5" class="edge">
<title>Node3&#45;&gt;Node5</title>
<path fill="none" stroke="midnightblue" d="M1282.17,-395.63C1249.62,-369.59 1185.82,-318.55 1159.16,-297.23"/>
<polygon fill="midnightblue" stroke="midnightblue" points="1280.1,-398.46 1290.09,-401.98 1284.47,-393 1280.1,-398.46"/>
</g>
<!-- Node7 -->
<g id="node7" class="node">
<title>Node7</title>
<g id="a_node7"><a xlink:href="event__logger_8h.html#a25a74a48375dfc1f3f80be68e0ac00ea" target="_top" xlink:title="イベント (EL_Event) を記録">
<polygon fill="white" stroke="black" points="1097.5,-483 1097.5,-502 1194.5,-502 1194.5,-483 1097.5,-483"/>
<text text-anchor="middle" x="1146" y="-490" font-family="Helvetica,sans-Serif" font-size="10.00">EL_record_event</text>
</a>
</g>
</g>
<!-- Node3&#45;&gt;Node7 -->
<g id="edge8" class="edge">
<title>Node3&#45;&gt;Node7</title>
<path fill="none" stroke="midnightblue" d="M1274.51,-425.87C1243.05,-442.31 1192.39,-468.78 1165.37,-482.9"/>
<polygon fill="midnightblue" stroke="midnightblue" points="1276.37,-428.84 1283.61,-421.11 1273.13,-422.64 1276.37,-428.84"/>
</g>
<!-- Node4&#45;&gt;Node3 -->
<g id="edge4" class="edge">
<title>Node4&#45;&gt;Node3</title>
<path fill="none" stroke="midnightblue" d="M1211.26,-418.16C1224.75,-418.34 1238.79,-418.24 1251.68,-417.87"/>
<polygon fill="midnightblue" stroke="midnightblue" points="1211.14,-414.66 1201.08,-417.97 1211.01,-421.66 1211.14,-414.66"/>
</g>
<!-- Node6 -->
<g id="node6" class="node">
<title>Node6</title>
<g id="a_node6"><a xlink:href="event__logger_8c.html#a605a3ff223ddae8830c09ff5aa57cc94" target="_top" xlink:title="該当イベントの CLog を，イベントテーブルの先頭に出す">
<polygon fill="white" stroke="black" points="901.5,-0.5 901.5,-30.5 1020.5,-30.5 1020.5,-0.5 901.5,-0.5"/>
<text text-anchor="start" x="909.5" y="-18.5" font-family="Helvetica,sans-Serif" font-size="10.00">EL_move_to_front_in</text>
<text text-anchor="middle" x="961" y="-7.5" font-family="Helvetica,sans-Serif" font-size="10.00">_clog_</text>
</a>
</g>
</g>
<!-- Node5&#45;&gt;Node6 -->
<g id="edge6" class="edge">
<title>Node5&#45;&gt;Node6</title>
<path fill="none" stroke="midnightblue" d="M1138.87,-268.44C1122.08,-217.25 1074.34,-78.42 1040,-45.5 1033.61,-39.38 1025.84,-34.47 1017.7,-30.54"/>
<polygon fill="midnightblue" stroke="midnightblue" points="1135.55,-269.54 1141.97,-277.96 1142.2,-267.37 1135.55,-269.54"/>
</g>
<!-- Node6&#45;&gt;Node2 -->
<g id="edge7" class="edge">
<title>Node6&#45;&gt;Node2</title>
<path fill="none" stroke="midnightblue" d="M1020.01,-34.75C1026.96,-37.93 1033.78,-41.52 1040,-45.5 1222.87,-162.66 1210.69,-263.96 1390,-386.5 1395.28,-390.11 1401.17,-393.42 1407.07,-396.37"/>
<polygon fill="midnightblue" stroke="midnightblue" points="1021.08,-31.39 1010.51,-30.65 1018.3,-37.82 1021.08,-31.39"/>
</g>
<!-- Node8 -->
<g id="node8" class="node">
<title>Node8</title>
<g id="a_node8"><a xlink:href="app__manager_8c.html#ac8eb56aeb5e572d9d1215cead52a9ab5" target="_top" xlink:title=" ">
<polygon fill="white" stroke="black" points="909,-970 909,-989 1013,-989 1013,-970 909,-970"/>
<text text-anchor="middle" x="961" y="-977" font-family="Helvetica,sans-Serif" font-size="10.00">AM_execute_app_</text>
</a>
</g>
</g>
<!-- Node7&#45;&gt;Node8 -->
<g id="edge9" class="edge">
<title>Node7&#45;&gt;Node8</title>
<path fill="none" stroke="midnightblue" d="M1143.28,-512.53C1135.92,-593.43 1104.5,-894.81 1040,-960.5 1032.77,-967.86 1023.21,-972.55 1013.26,-975.5"/>
<polygon fill="midnightblue" stroke="midnightblue" points="1146.79,-512.52 1144.19,-502.25 1139.82,-511.9 1146.79,-512.52"/>
</g>
<!-- Node17 -->
<g id="node11" class="node">
<title>Node17</title>
<g id="a_node11"><a xlink:href="app__manager_8c.html#a26a59b0004c449cd7610ce8ef8de4b0c" target="_top" xlink:title=" ">
<polygon fill="white" stroke="black" points="907,-932 907,-951 1015,-951 1015,-932 907,-932"/>
<text text-anchor="middle" x="961" y="-939" font-family="Helvetica,sans-Serif" font-size="10.00">AM_initialize_app_</text>
</a>
</g>
</g>
<!-- Node7&#45;&gt;Node17 -->
<g id="edge12" class="edge">
<title>Node7&#45;&gt;Node17</title>
<path fill="none" stroke="midnightblue" d="M1144.24,-512.47C1141.01,-573.59 1124.36,-761.37 1040,-884.5 1025.31,-905.95 999.81,-922.32 981.98,-931.9"/>
<polygon fill="midnightblue" stroke="midnightblue" points="1147.74,-512.44 1144.71,-502.29 1140.75,-512.11 1147.74,-512.44"/>
</g>
<!-- Node20 -->
<g id="node15" class="node">
<title>Node20</title>
<g id="a_node15"><a xlink:href="app__manager_8h.html#a79534e648013966f9c1243f62eda140f" target="_top" xlink:title=" ">
<polygon fill="white" stroke="black" points="916.5,-654 916.5,-673 1005.5,-673 1005.5,-654 916.5,-654"/>
<text text-anchor="middle" x="961" y="-661" font-family="Helvetica,sans-Serif" font-size="10.00">AM_register_ai</text>
</a>
</g>
</g>
<!-- Node7&#45;&gt;Node20 -->
<g id="edge17" class="edge">
<title>Node7&#45;&gt;Node20</title>
<path fill="none" stroke="midnightblue" d="M1136.57,-511.37C1121.63,-542.66 1087.55,-605.23 1040,-639.5 1029.89,-646.79 1017.51,-651.9 1005.62,-655.48"/>
<polygon fill="midnightblue" stroke="midnightblue" points="1139.86,-512.59 1140.89,-502.04 1133.51,-509.64 1139.86,-512.59"/>
</g>
<!-- Node24 -->
<g id="node18" class="node">
<title>Node24</title>
<g id="a_node18"><a xlink:href="command__analyze_8h.html#a68bd697f2123acd72c8c1a49b7f3652a" target="_top" xlink:title="コマンド実行の本体">
<polygon fill="white" stroke="black" points="911,-578 911,-597 1011,-597 1011,-578 911,-578"/>
<text text-anchor="middle" x="961" y="-585" font-family="Helvetica,sans-Serif" font-size="10.00">CA_execute_cmd</text>
</a>
</g>
</g>
<!-- Node7&#45;&gt;Node24 -->
<g id="edge21" class="edge">
<title>Node7&#45;&gt;Node24</title>
<path fill="none" stroke="midnightblue" d="M1125.55,-508.25C1105.25,-524.06 1071.96,-548.2 1040,-563.5 1027.73,-569.37 1013.7,-574.22 1000.94,-577.98"/>
<polygon fill="midnightblue" stroke="midnightblue" points="1127.74,-510.99 1133.42,-502.04 1123.4,-505.49 1127.74,-510.99"/>
</g>
<!-- Node49 -->
<g id="node22" class="node">
<title>Node49</title>
<g id="a_node22"><a xlink:href="event__handler_8c.html#a8d7de705ac2b09f9f25644f0c9f55952" target="_top" xlink:title="EH 対応を実施">
<polygon fill="white" stroke="black" points="555,-426 555,-445 635,-445 635,-426 555,-426"/>
<text text-anchor="middle" x="595" y="-433" font-family="Helvetica,sans-Serif" font-size="10.00">EH_respond_</text>
</a>
</g>
</g>
<!-- Node7&#45;&gt;Node49 -->
<g id="edge50" class="edge">
<title>Node7&#45;&gt;Node49</title>
<path fill="none" stroke="midnightblue" d="M1120.25,-477.04C1104.87,-466.03 1086.15,-449.8 1076,-430.5 1047.21,-375.76 1086.48,-195.31 1040,-154.5 880.28,-14.26 643.5,-362.08 602.24,-425.71"/>
<polygon fill="midnightblue" stroke="midnightblue" points="1118.6,-480.15 1128.84,-482.9 1122.55,-474.37 1118.6,-480.15"/>
</g>
<!-- Node50 -->
<g id="node23" class="node">
<title>Node50</title>
<g id="a_node23"><a xlink:href="event__handler_8c.html#ac7461e79109f06783e2c620a6d999a6b" target="_top" xlink:title="EH の対応条件をチェックし， EL_Event に対応する">
<polygon fill="white" stroke="black" points="326,-426 326,-445 487,-445 487,-426 326,-426"/>
<text text-anchor="middle" x="406.5" y="-433" font-family="Helvetica,sans-Serif" font-size="10.00">EH_check_rule_and_respond_</text>
</a>
</g>
</g>
<!-- Node7&#45;&gt;Node50 -->
<g id="edge44" class="edge">
<title>Node7&#45;&gt;Node50</title>
<path fill="none" stroke="midnightblue" d="M1087.09,-490.77C977.62,-487.08 732.89,-476.91 528,-454.5 505.89,-452.08 481.65,-448.45 460.74,-445.01"/>
<polygon fill="midnightblue" stroke="midnightblue" points="1087.15,-494.27 1097.26,-491.1 1087.38,-487.27 1087.15,-494.27"/>
</g>
<!-- Node51 -->
<g id="node24" class="node">
<title>Node51</title>
<g id="a_node24"><a xlink:href="event__handler_8c.html#a227ed3b7079c58dee50a81ce408549a2" target="_top" xlink:title="EL_Event に対応する EH_Rule が存在するかチェックし，対応する">
<polygon fill="white" stroke="red" points="165,-232.5 165,-262.5 285,-262.5 285,-232.5 165,-232.5"/>
<text text-anchor="start" x="173" y="-250.5" font-family="Helvetica,sans-Serif" font-size="10.00">EH_check_event_and</text>
<text text-anchor="middle" x="225" y="-239.5" font-family="Helvetica,sans-Serif" font-size="10.00">_respond_</text>
</a>
</g>
</g>
<!-- Node7&#45;&gt;Node51 -->
<g id="edge40" class="edge">
<title>Node7&#45;&gt;Node51</title>
<path fill="none" stroke="midnightblue" d="M1120.16,-477.09C1104.74,-466.1 1086.01,-449.88 1076,-430.5 1043.97,-368.49 1090.24,-166.95 1040,-118.5 954.31,-35.88 892.03,-97.5 773,-97.5 773,-97.5 773,-97.5 594,-97.5 452.22,-97.5 300.93,-194.16 246.76,-232.29"/>
<polygon fill="midnightblue" stroke="midnightblue" points="1118.53,-480.21 1128.77,-482.94 1122.46,-474.42 1118.53,-480.21"/>
</g>
<!-- Node52 -->
<g id="node25" class="node">
<title>Node52</title>
<g id="a_node25"><a xlink:href="event__handler_8c.html#af084576db8b00a4c7e4b117314b128db" target="_top" xlink:title="上位の EH の対応条件をチェックし，対応する">
<polygon fill="white" stroke="black" points="0,-232.5 0,-262.5 129,-262.5 129,-232.5 0,-232.5"/>
<text text-anchor="start" x="8" y="-250.5" font-family="Helvetica,sans-Serif" font-size="10.00">EH_check_higher_level</text>
<text text-anchor="middle" x="64.5" y="-239.5" font-family="Helvetica,sans-Serif" font-size="10.00">_rule_and_respond_</text>
</a>
</g>
</g>
<!-- Node7&#45;&gt;Node52 -->
<g id="edge41" class="edge">
<title>Node7&#45;&gt;Node52</title>
<path fill="none" stroke="midnightblue" d="M1120.07,-477.14C1104.61,-466.17 1085.87,-449.95 1076,-430.5 1039.91,-359.4 1097.72,-128.51 1040,-73.5 996.99,-32.51 832.41,-59.5 773,-59.5 773,-59.5 773,-59.5 405.5,-59.5 262.84,-59.5 123.83,-187.82 79.82,-232.43"/>
<polygon fill="midnightblue" stroke="midnightblue" points="1118.45,-480.27 1128.7,-482.97 1122.37,-474.47 1118.45,-480.27"/>
</g>
<!-- Node61 -->
<g id="node26" class="node">
<title>Node61</title>
<g id="a_node26"><a xlink:href="command__dispatcher_8h.html#a65fc5bdc13b85016bdfe85d8191b7681" target="_top" xlink:title="CDIS の初期化と取得">
<polygon fill="white" stroke="red" points="930.5,-388 930.5,-407 991.5,-407 991.5,-388 930.5,-388"/>
<text text-anchor="middle" x="961" y="-395" font-family="Helvetica,sans-Serif" font-size="10.00">CDIS_init</text>
</a>
</g>
</g>
<!-- Node7&#45;&gt;Node61 -->
<g id="edge31" class="edge">
<title>Node7&#45;&gt;Node61</title>
<path fill="none" stroke="midnightblue" d="M1125.55,-476.75C1105.25,-460.94 1071.96,-436.8 1040,-421.5 1024.67,-414.16 1006.57,-408.43 991.67,-404.41"/>
<polygon fill="midnightblue" stroke="midnightblue" points="1123.4,-479.51 1133.42,-482.96 1127.74,-474.01 1123.4,-479.51"/>
</g>
<!-- Node69 -->
<g id="node29" class="node">
<title>Node69</title>
<g id="a_node29"><a xlink:href="event__logger_8h.html#aeebbaeef0191f0a47d54b56f00ae19cb" target="_top" xlink:title=" ">
<polygon fill="white" stroke="black" points="336.5,-635 336.5,-654 476.5,-654 476.5,-635 336.5,-635"/>
<text text-anchor="middle" x="406.5" y="-642" font-family="Helvetica,sans-Serif" font-size="10.00">Cmd_EL_RECORD_EVENT</text>
</a>
</g>
</g>
<!-- Node7&#45;&gt;Node69 -->
<g id="edge34" class="edge">
<title>Node7&#45;&gt;Node69</title>
<path fill="none" stroke="midnightblue" d="M1134.52,-510.83C1118.19,-537.38 1083.95,-585.64 1040,-606.5 990.19,-630.15 630.42,-640.06 476.77,-643.25"/>
<polygon fill="midnightblue" stroke="midnightblue" points="1137.59,-512.51 1139.71,-502.12 1131.58,-508.92 1137.59,-512.51"/>
</g>
<!-- Node70 -->
<g id="node30" class="node">
<title>Node70</title>
<g id="a_node30"><a xlink:href="timeline__command__dispatcher_8h.html#a0f39289b0b07ada46a230d07e22cd4d1" target="_top" xlink:title=" ">
<polygon fill="white" stroke="black" points="330.5,-578 330.5,-597 482.5,-597 482.5,-578 330.5,-578"/>
<text text-anchor="middle" x="406.5" y="-585" font-family="Helvetica,sans-Serif" font-size="10.00">Cmd_TLCD_DEPLOY_BLOCK</text>
</a>
</g>
</g>
<!-- Node7&#45;&gt;Node70 -->
<g id="edge36" class="edge">
<title>Node7&#45;&gt;Node70</title>
<path fill="none" stroke="midnightblue" d="M1091.47,-504.08C1075.01,-507.4 1056.8,-510.84 1040,-513.5 839.62,-545.21 601.53,-569.48 482.74,-580.69"/>
<polygon fill="midnightblue" stroke="midnightblue" points="1092.37,-507.46 1101.46,-502.03 1090.96,-500.61 1092.37,-507.46"/>
</g>
<!-- Node71 -->
<g id="node31" class="node">
<title>Node71</title>
<g id="a_node31"><a xlink:href="divided__cmd__utility_8c.html#a9bfb4e0540d42e883eb88b7ea7e9a6f9" target="_top" xlink:title="先頭に該当コマンドのログをつくる">
<polygon fill="white" stroke="red" points="888,-350 888,-369 1034,-369 1034,-350 888,-350"/>
<text text-anchor="middle" x="961" y="-357" font-family="Helvetica,sans-Serif" font-size="10.00">DCU_create_log_on_front_</text>
</a>
</g>
</g>
<!-- Node7&#45;&gt;Node71 -->
<g id="edge38" class="edge">
<title>Node7&#45;&gt;Node71</title>
<path fill="none" stroke="midnightblue" d="M1124.91,-476.59C1110.49,-464.68 1091.04,-447.57 1076,-430.5 1057.42,-409.41 1063.17,-394.42 1040,-378.5 1034.37,-374.63 1028.04,-371.55 1021.48,-369.09"/>
<polygon fill="midnightblue" stroke="midnightblue" points="1122.78,-479.37 1132.74,-482.96 1127.19,-473.94 1122.78,-479.37"/>
</g>
<!-- Node83 -->
<g id="node32" class="node">
<title>Node83</title>
<g id="a_node32"><a xlink:href="event__handler_8c.html#aa6c5760770a17a2baba1e6f62fa8bfde" target="_top" xlink:title="EL 側の EL_Event のカウンタをチェックし，整合性を確認する">
<polygon fill="white" stroke="red" points="882,-312 882,-331 1040,-331 1040,-312 882,-312"/>
<text text-anchor="middle" x="961" y="-319" font-family="Helvetica,sans-Serif" font-size="10.00">EH_check_el_event_counter_</text>
</a>
</g>
</g>
<!-- Node7&#45;&gt;Node83 -->
<g id="edge39" class="edge">
<title>Node7&#45;&gt;Node83</title>
<path fill="none" stroke="midnightblue" d="M1122.62,-476.72C1107.76,-465.3 1088.72,-448.71 1076,-430.5 1051.33,-395.18 1072.54,-368.73 1040,-340.5 1035.58,-336.66 1030.51,-333.58 1025.12,-331.09"/>
<polygon fill="midnightblue" stroke="midnightblue" points="1120.7,-479.65 1130.81,-482.83 1124.88,-474.04 1120.7,-479.65"/>
</g>
<!-- Node84 -->
<g id="node33" class="node">
<title>Node84</title>
<g id="a_node33"><a xlink:href="event__handler_8c.html#a36acbf29023faf34e8f2d16f01cc44d3" target="_top" xlink:title="EH の対応条件をチェックする">
<polygon fill="white" stroke="black" points="548.5,-502 548.5,-521 641.5,-521 641.5,-502 548.5,-502"/>
<text text-anchor="middle" x="595" y="-509" font-family="Helvetica,sans-Serif" font-size="10.00">EH_check_rule_</text>
</a>
</g>
</g>
<!-- Node7&#45;&gt;Node84 -->
<g id="edge42" class="edge">
<title>Node7&#45;&gt;Node84</title>
<path fill="none" stroke="midnightblue" d="M1087.02,-494.51C977.26,-498.31 741.21,-506.47 641.71,-509.92"/>
<polygon fill="midnightblue" stroke="midnightblue" points="1087.37,-498 1097.24,-494.15 1087.13,-491 1087.37,-498"/>
</g>
<!-- Node85 -->
<g id="node34" class="node">
<title>Node85</title>
<g id="a_node34"><a xlink:href="event__handler_8h.html#a4f18856b3535342c3b93b478d78ad832" target="_top" xlink:title="EH_Rule の counter を EL_Event 指定で 0 クリア">
<polygon fill="white" stroke="red" points="898.5,-262.5 898.5,-292.5 1023.5,-292.5 1023.5,-262.5 898.5,-262.5"/>
<text text-anchor="start" x="906.5" y="-280.5" font-family="Helvetica,sans-Serif" font-size="10.00">EH_clear_rule_counter</text>
<text text-anchor="middle" x="961" y="-269.5" font-family="Helvetica,sans-Serif" font-size="10.00">_by_event</text>
</a>
</g>
</g>
<!-- Node7&#45;&gt;Node85 -->
<g id="edge45" class="edge">
<title>Node7&#45;&gt;Node85</title>
<path fill="none" stroke="midnightblue" d="M1121.72,-476.93C1106.62,-465.7 1087.66,-449.25 1076,-430.5 1044.79,-380.32 1081.03,-345.03 1040,-302.5 1035.36,-297.69 1029.79,-293.8 1023.8,-290.66"/>
<polygon fill="midnightblue" stroke="midnightblue" points="1119.91,-479.94 1130.08,-482.92 1123.99,-474.25 1119.91,-479.94"/>
</g>
<!-- Node87 -->
<g id="node35" class="node">
<title>Node87</title>
<g id="a_node35"><a xlink:href="event__handler_8c.html#a77f7769c0392e3092be9b96df1159033" target="_top" xlink:title="EH_Rule を EH_RuleTable と EH_RuleSortedIndex から削除する">
<polygon fill="white" stroke="red" points="898.5,-224 898.5,-243 1023.5,-243 1023.5,-224 898.5,-224"/>
<text text-anchor="middle" x="961" y="-231" font-family="Helvetica,sans-Serif" font-size="10.00">EH_delete_rule_table_</text>
</a>
</g>
</g>
<!-- Node7&#45;&gt;Node87 -->
<g id="edge46" class="edge">
<title>Node7&#45;&gt;Node87</title>
<path fill="none" stroke="midnightblue" d="M1120.98,-477C1105.73,-465.89 1086.89,-449.55 1076,-430.5 1035.95,-360.42 1095.94,-310.69 1040,-252.5 1035.36,-247.68 1029.72,-243.99 1023.62,-241.2"/>
<polygon fill="midnightblue" stroke="midnightblue" points="1119.25,-480.06 1129.45,-482.92 1123.26,-474.33 1119.25,-480.06"/>
</g>
<!-- Node89 -->
<g id="node36" class="node">
<title>Node89</title>
<g id="a_node36"><a xlink:href="event__handler_8c.html#a9e1add42ee2e4353c89ab65a8a9cf1d2" target="_top" xlink:title="まだ処理していない最も古い EL_Event (EL_ERROR_LEVEL_EH を除く) を返す">
<polygon fill="white" stroke="red" points="901.5,-164 901.5,-205 1020.5,-205 1020.5,-164 901.5,-164"/>
<text text-anchor="start" x="909.5" y="-193" font-family="Helvetica,sans-Serif" font-size="10.00">EH_get_oldest_event</text>
<text text-anchor="start" x="909.5" y="-182" font-family="Helvetica,sans-Serif" font-size="10.00">_excluding_eh_error</text>
<text text-anchor="middle" x="961" y="-171" font-family="Helvetica,sans-Serif" font-size="10.00">_level_</text>
</a>
</g>
</g>
<!-- Node7&#45;&gt;Node89 -->
<g id="edge47" class="edge">
<title>Node7&#45;&gt;Node89</title>
<path fill="none" stroke="midnightblue" d="M1120.48,-476.92C1105.19,-465.86 1086.49,-449.62 1076,-430.5 1029.17,-345.18 1101.53,-289.91 1040,-214.5 1034.77,-208.09 1028,-203.05 1020.64,-199.08"/>
<polygon fill="midnightblue" stroke="midnightblue" points="1118.79,-480 1129,-482.81 1122.77,-474.24 1118.79,-480"/>
</g>
<!-- Node91 -->
<g id="node37" class="node">
<title>Node91</title>
<g id="a_node37"><a xlink:href="event__handler_8c.html#aea878950d4dd21be914534ab13f78e9b" target="_top" xlink:title="EH 対応のログを残す">
<polygon fill="white" stroke="black" points="698,-426 698,-445 846,-445 846,-426 698,-426"/>
<text text-anchor="middle" x="772" y="-433" font-family="Helvetica,sans-Serif" font-size="10.00">EH_record_responded_log_</text>
</a>
</g>
</g>
<!-- Node7&#45;&gt;Node91 -->
<g id="edge48" class="edge">
<title>Node7&#45;&gt;Node91</title>
<path fill="none" stroke="midnightblue" d="M1110.51,-479.6C1090.25,-472.55 1063.99,-464.29 1040,-459.5 975.19,-446.56 900.13,-440.59 846.13,-437.84"/>
<polygon fill="midnightblue" stroke="midnightblue" points="1109.34,-482.9 1119.94,-482.95 1111.68,-476.3 1109.34,-482.9"/>
</g>
<!-- Node92 -->
<g id="node38" class="node">
<title>Node92</title>
<g id="a_node38"><a xlink:href="mode__manager_8c.html#a47323ca76824c1d3acd39db890aea966" target="_top" xlink:title="Cmd_MM_FINISH_TRANSITIONの実体">
<polygon fill="white" stroke="red" points="899.5,-856 899.5,-875 1022.5,-875 1022.5,-856 899.5,-856"/>
<text text-anchor="middle" x="961" y="-863" font-family="Helvetica,sans-Serif" font-size="10.00">MM_finish_transition_</text>
</a>
</g>
</g>
<!-- Node7&#45;&gt;Node92 -->
<g id="edge51" class="edge">
<title>Node7&#45;&gt;Node92</title>
<path fill="none" stroke="midnightblue" d="M1145.49,-512.48C1145.81,-572.54 1138.17,-753.07 1040,-846.5 1035.05,-851.21 1029.14,-854.81 1022.82,-857.56"/>
<polygon fill="midnightblue" stroke="midnightblue" points="1148.98,-512.08 1145.34,-502.13 1141.98,-512.18 1148.98,-512.08"/>
</g>
<!-- Node58 -->
<g id="node39" class="node">
<title>Node58</title>
<g id="a_node39"><a xlink:href="mode__manager_8c.html#ae4381c1c84d8b5d8aa033e522530436d" target="_top" xlink:title="Cmd_MM_START_TRANSITIONの実体">
<polygon fill="white" stroke="red" points="901.5,-818 901.5,-837 1020.5,-837 1020.5,-818 901.5,-818"/>
<text text-anchor="middle" x="961" y="-825" font-family="Helvetica,sans-Serif" font-size="10.00">MM_start_transition_</text>
</a>
</g>
</g>
<!-- Node7&#45;&gt;Node58 -->
<g id="edge52" class="edge">
<title>Node7&#45;&gt;Node58</title>
<path fill="none" stroke="midnightblue" d="M1144.28,-512.33C1141.2,-566.91 1125.02,-720.75 1040,-803.5 1033.5,-809.82 1025.38,-814.49 1016.85,-817.92"/>
<polygon fill="midnightblue" stroke="midnightblue" points="1147.78,-512.41 1144.76,-502.25 1140.79,-512.08 1147.78,-512.41"/>
</g>
<!-- Node94 -->
<g id="node40" class="node">
<title>Node94</title>
<g id="a_node40"><a xlink:href="task__dispatcher_8c.html#aa6835d29f6d61ff30f70aaebdf0d7df9" target="_top" xlink:title="TDSP_info_.task_list_id に登録された BC を TaskListに展開.">
<polygon fill="white" stroke="red" points="897,-730.5 897,-760.5 1025,-760.5 1025,-730.5 897,-730.5"/>
<text text-anchor="start" x="905" y="-748.5" font-family="Helvetica,sans-Serif" font-size="10.00">TDSP_deploy_block_as</text>
<text text-anchor="middle" x="961" y="-737.5" font-family="Helvetica,sans-Serif" font-size="10.00">_task_list_</text>
</a>
</g>
</g>
<!-- Node7&#45;&gt;Node94 -->
<g id="edge53" class="edge">
<title>Node7&#45;&gt;Node94</title>
<path fill="none" stroke="midnightblue" d="M1141.44,-512.41C1132.53,-556.46 1105.13,-662.83 1040,-720.5 1035.53,-724.46 1030.42,-727.79 1025.02,-730.6"/>
<polygon fill="midnightblue" stroke="midnightblue" points="1144.92,-512.88 1143.36,-502.4 1138.04,-511.56 1144.92,-512.88"/>
</g>
<!-- Node39 -->
<g id="node41" class="node">
<title>Node39</title>
<g id="a_node41"><a xlink:href="task__dispatcher_8h.html#ac880fe6e26ecdf8711d08980cad6787d" target="_top" xlink:title="現在時刻に応じて、TaskList から Cmd を一つ実行する or TaskList を再展開する">
<polygon fill="white" stroke="red" points="714,-743.5 714,-773.5 830,-773.5 830,-743.5 714,-743.5"/>
<text text-anchor="start" x="722" y="-761.5" font-family="Helvetica,sans-Serif" font-size="10.00">TDSP_execute_pl_as</text>
<text text-anchor="middle" x="772" y="-750.5" font-family="Helvetica,sans-Serif" font-size="10.00">_task_list</text>
</a>
</g>
</g>
<!-- Node7&#45;&gt;Node39 -->
<g id="edge55" class="edge">
<title>Node7&#45;&gt;Node39</title>
<path fill="none" stroke="midnightblue" d="M1144.57,-512.19C1142.23,-564.83 1127.73,-708.93 1040,-769.5 971.47,-816.81 867.77,-792.37 811.92,-773.53"/>
<polygon fill="midnightblue" stroke="midnightblue" points="1148.07,-512.26 1144.91,-502.15 1141.07,-512.02 1148.07,-512.26"/>
</g>
<!-- Node42 -->
<g id="node42" class="node">
<title>Node42</title>
<g id="a_node42"><a xlink:href="timeline__command__dispatcher_8c.html#a81ac915e803ac30a27f6488af9ce45ad" target="_top" xlink:title=" ">
<polygon fill="white" stroke="red" points="916,-692 916,-711 1006,-711 1006,-692 916,-692"/>
<text text-anchor="middle" x="961" y="-699" font-family="Helvetica,sans-Serif" font-size="10.00">tlc_dispatcher_</text>
</a>
</g>
</g>
<!-- Node7&#45;&gt;Node42 -->
<g id="edge56" class="edge">
<title>Node7&#45;&gt;Node42</title>
<path fill="none" stroke="midnightblue" d="M1139.86,-512.26C1128.68,-551.2 1098.33,-637.93 1040,-682.5 1030.25,-689.95 1017.99,-694.52 1006.09,-697.31"/>
<polygon fill="midnightblue" stroke="midnightblue" points="1143.35,-512.78 1142.62,-502.21 1136.6,-510.93 1143.35,-512.78"/>
</g>
<!-- Node9 -->
<g id="node9" class="node">
<title>Node9</title>
<g id="a_node9"><a xlink:href="app__manager_8h.html#a7332f291e4e14e5b458211e2b965b675" target="_top" xlink:title=" ">
<polygon fill="white" stroke="black" points="339.5,-932 339.5,-951 473.5,-951 473.5,-932 339.5,-932"/>
<text text-anchor="middle" x="406.5" y="-939" font-family="Helvetica,sans-Serif" font-size="10.00">Cmd_AM_EXECUTE_APP</text>
</a>
</g>
</g>
<!-- Node8&#45;&gt;Node9 -->
<g id="edge10" class="edge">
<title>Node8&#45;&gt;Node9</title>
<path fill="none" stroke="midnightblue" d="M898.61,-977.25C814.78,-973.92 659.83,-966.81 528,-955.5 510.37,-953.99 491.34,-951.96 473.72,-949.92"/>
<polygon fill="midnightblue" stroke="midnightblue" points="898.59,-980.75 908.72,-977.65 898.87,-973.76 898.59,-980.75"/>
</g>
<!-- Node10 -->
<g id="node10" class="node">
<title>Node10</title>
<g id="a_node10"><a xlink:href="command__definitions_8c.html#aa375895192b16d8e7f0ff4545b54e6c4" target="_top" xlink:title="Cmd Tableのロード">
<polygon fill="white" stroke="red" points="168.5,-714 168.5,-733 281.5,-733 281.5,-714 168.5,-714"/>
<text text-anchor="middle" x="225" y="-721" font-family="Helvetica,sans-Serif" font-size="10.00">CA_load_cmd_table</text>
</a>
</g>
</g>
<!-- Node9&#45;&gt;Node10 -->
<g id="edge11" class="edge">
<title>Node9&#45;&gt;Node10</title>
<path fill="none" stroke="midnightblue" d="M377.84,-927.08C360.11,-916.88 337.42,-901.95 321,-884.5 274.73,-835.35 240.93,-759.78 229.89,-733.17"/>
<polygon fill="midnightblue" stroke="midnightblue" points="376.17,-930.16 386.61,-931.97 379.58,-924.04 376.17,-930.16"/>
</g>
<!-- Node18 -->
<g id="node12" class="node">
<title>Node18</title>
<g id="a_node12"><a xlink:href="app__manager_8h.html#a4cc7cbb82adf461396826ab31fe4415f" target="_top" xlink:title=" ">
<polygon fill="white" stroke="black" points="709.5,-894 709.5,-913 834.5,-913 834.5,-894 709.5,-894"/>
<text text-anchor="middle" x="772" y="-901" font-family="Helvetica,sans-Serif" font-size="10.00">AM_initialize_all_apps</text>
</a>
</g>
</g>
<!-- Node17&#45;&gt;Node18 -->
<g id="edge13" class="edge">
<title>Node17&#45;&gt;Node18</title>
<path fill="none" stroke="midnightblue" d="M902.87,-929.89C876.27,-924.49 845.03,-918.14 819.85,-913.02"/>
<polygon fill="midnightblue" stroke="midnightblue" points="902.32,-933.35 912.81,-931.91 903.71,-926.49 902.32,-933.35"/>
</g>
<!-- Node19 -->
<g id="node14" class="node">
<title>Node19</title>
<g id="a_node14"><a xlink:href="app__manager_8h.html#a904549233533e24fdaad33d9142da19c" target="_top" xlink:title=" ">
<polygon fill="white" stroke="black" points="336.5,-856 336.5,-875 476.5,-875 476.5,-856 336.5,-856"/>
<text text-anchor="middle" x="406.5" y="-863" font-family="Helvetica,sans-Serif" font-size="10.00">Cmd_AM_INITIALIZE_APP</text>
</a>
</g>
</g>
<!-- Node17&#45;&gt;Node19 -->
<g id="edge15" class="edge">
<title>Node17&#45;&gt;Node19</title>
<path fill="none" stroke="midnightblue" d="M896.81,-946.44C811.65,-951.35 655.97,-954.21 528,-922.5 487.79,-912.54 444.9,-888.64 422.73,-875.16"/>
<polygon fill="midnightblue" stroke="midnightblue" points="897.07,-949.93 906.84,-945.83 896.65,-942.94 897.07,-949.93"/>
</g>
<!-- Node12 -->
<g id="node13" class="node">
<title>Node12</title>
<g id="a_node13"><a xlink:href="c2a__core__main_8h.html#a65ecdc63d8762ffde4db7f6c6e6f07cf" target="_top" xlink:title=" ">
<polygon fill="white" stroke="red" points="553.5,-894 553.5,-913 636.5,-913 636.5,-894 553.5,-894"/>
<text text-anchor="middle" x="595" y="-901" font-family="Helvetica,sans-Serif" font-size="10.00">C2A_core_init</text>
</a>
</g>
</g>
<!-- Node18&#45;&gt;Node12 -->
<g id="edge14" class="edge">
<title>Node18&#45;&gt;Node12</title>
<path fill="none" stroke="midnightblue" d="M699.27,-903.5C677.92,-903.5 655.26,-903.5 636.63,-903.5"/>
<polygon fill="midnightblue" stroke="midnightblue" points="699.3,-907 709.3,-903.5 699.3,-900 699.3,-907"/>
</g>
<!-- Node19&#45;&gt;Node10 -->
<g id="edge16" class="edge">
<title>Node19&#45;&gt;Node10</title>
<path fill="none" stroke="midnightblue" d="M385.3,-849.52C347.94,-819.97 269.06,-757.56 238.48,-733.37"/>
<polygon fill="midnightblue" stroke="midnightblue" points="383.43,-852.5 393.44,-855.96 387.77,-847.01 383.43,-852.5"/>
</g>
<!-- Node21 -->
<g id="node16" class="node">
<title>Node21</title>
<g id="a_node16"><a xlink:href="app__registry_8c.html#a2da852209e46150e0940e559e981b582" target="_top" xlink:title=" ">
<polygon fill="white" stroke="red" points="722.5,-654 722.5,-673 821.5,-673 821.5,-654 722.5,-654"/>
<text text-anchor="middle" x="772" y="-661" font-family="Helvetica,sans-Serif" font-size="10.00">add_application_</text>
</a>
</g>
</g>
<!-- Node20&#45;&gt;Node21 -->
<g id="edge18" class="edge">
<title>Node20&#45;&gt;Node21</title>
<path fill="none" stroke="midnightblue" d="M905.89,-663.5C879.35,-663.5 847.63,-663.5 821.83,-663.5"/>
<polygon fill="midnightblue" stroke="midnightblue" points="906.16,-667 916.16,-663.5 906.16,-660 906.16,-667"/>
</g>
<!-- Node23 -->
<g id="node17" class="node">
<title>Node23</title>
<g id="a_node17"><a xlink:href="app__manager_8h.html#ab2b5dad45b47c718cfc1e551e0f92ced" target="_top" xlink:title=" ">
<polygon fill="white" stroke="black" points="338,-692 338,-711 475,-711 475,-692 338,-692"/>
<text text-anchor="middle" x="406.5" y="-699" font-family="Helvetica,sans-Serif" font-size="10.00">Cmd_AM_REGISTER_APP</text>
</a>
</g>
</g>
<!-- Node20&#45;&gt;Node23 -->
<g id="edge19" class="edge">
<title>Node20&#45;&gt;Node23</title>
<path fill="none" stroke="midnightblue" d="M906.35,-673.82C887.36,-677.11 865.79,-680.43 846,-682.5 715.27,-696.18 561.62,-700.05 475.3,-701.12"/>
<polygon fill="midnightblue" stroke="midnightblue" points="907.08,-677.25 916.32,-672.06 905.86,-670.36 907.08,-677.25"/>
</g>
<!-- Node23&#45;&gt;Node10 -->
<g id="edge20" class="edge">
<title>Node23&#45;&gt;Node10</title>
<path fill="none" stroke="midnightblue" d="M327.77,-711.03C312.21,-712.93 296.17,-714.9 281.55,-716.69"/>
<polygon fill="midnightblue" stroke="midnightblue" points="328.39,-714.48 337.89,-709.79 327.54,-707.53 328.39,-714.48"/>
</g>
<!-- Node25 -->
<g id="node19" class="node">
<title>Node25</title>
<g id="a_node19"><a xlink:href="packet__handler_8h.html#a7b1777e6101ff2eeeef6042166974cdc" target="_top" xlink:title="CCP をコマンドとして解釈して実行，ないしは別機器へ配送する">
<polygon fill="white" stroke="red" points="706.5,-578 706.5,-597 837.5,-597 837.5,-578 706.5,-578"/>
<text text-anchor="middle" x="772" y="-585" font-family="Helvetica,sans-Serif" font-size="10.00">PH_dispatch_command</text>
</a>
</g>
</g>
<!-- Node24&#45;&gt;Node25 -->
<g id="edge22" class="edge">
<title>Node24&#45;&gt;Node25</title>
<path fill="none" stroke="midnightblue" d="M900.62,-587.5C880.57,-587.5 858.08,-587.5 837.64,-587.5"/>
<polygon fill="midnightblue" stroke="midnightblue" points="900.87,-591 910.87,-587.5 900.87,-584 900.87,-591"/>
</g>
<!-- Node30 -->
<g id="node20" class="node">
<title>Node30</title>
<g id="a_node20"><a xlink:href="block__command__executor_8c.html#aa35678f3996844ae59428f34e6c8c78f" target="_top" xlink:title="BC をまとめて一括で実行する">
<polygon fill="white" stroke="black" points="528,-730.5 528,-760.5 662,-760.5 662,-730.5 528,-730.5"/>
<text text-anchor="start" x="536" y="-748.5" font-family="Helvetica,sans-Serif" font-size="10.00">BCE_timelimit_combine</text>
<text text-anchor="middle" x="595" y="-737.5" font-family="Helvetica,sans-Serif" font-size="10.00">_block_cmd_</text>
</a>
</g>
</g>
<!-- Node25&#45;&gt;Node30 -->
<g id="edge23" class="edge">
<title>Node25&#45;&gt;Node30</title>
<path fill="none" stroke="midnightblue" d="M749.63,-603.14C734.79,-614.25 714.75,-629.76 698,-644.5 665.26,-673.31 629.62,-709.93 610.34,-730.22"/>
<polygon fill="midnightblue" stroke="midnightblue" points="751.76,-605.91 757.71,-597.14 747.59,-600.29 751.76,-605.91"/>
</g>
<!-- Node25&#45;&gt;Node49 -->
<g id="edge26" class="edge">
<title>Node25&#45;&gt;Node49</title>
<path fill="none" stroke="midnightblue" d="M752.06,-570.95C730.34,-551.97 693.64,-519.95 662,-492.5 642.79,-475.83 620.37,-456.49 607.22,-445.17"/>
<polygon fill="midnightblue" stroke="midnightblue" points="750.04,-573.83 759.87,-577.77 754.65,-568.56 750.04,-573.83"/>
</g>
<!-- Node31 -->
<g id="node21" class="node">
<title>Node31</title>
<g id="a_node21"><a xlink:href="block__command__executor_8h.html#a33ee70475b35e5606d83857c5843d29a" target="_top" xlink:title=" ">
<polygon fill="white" stroke="black" points="321,-730.5 321,-760.5 492,-760.5 492,-730.5 321,-730.5"/>
<text text-anchor="start" x="329" y="-748.5" font-family="Helvetica,sans-Serif" font-size="10.00">Cmd_BCE_TIMELIMIT_COMBINE</text>
<text text-anchor="middle" x="406.5" y="-737.5" font-family="Helvetica,sans-Serif" font-size="10.00">_BLOCK</text>
</a>
</g>
</g>
<!-- Node30&#45;&gt;Node31 -->
<g id="edge24" class="edge">
<title>Node30&#45;&gt;Node31</title>
<path fill="none" stroke="midnightblue" d="M517.76,-745.5C509.29,-745.5 500.62,-745.5 492.05,-745.5"/>
<polygon fill="midnightblue" stroke="midnightblue" points="517.98,-749 527.98,-745.5 517.98,-742 517.98,-749"/>
</g>
<!-- Node31&#45;&gt;Node10 -->
<g id="edge25" class="edge">
<title>Node31&#45;&gt;Node10</title>
<path fill="none" stroke="midnightblue" d="M310.79,-733.89C300.85,-732.67 291,-731.47 281.71,-730.33"/>
<polygon fill="midnightblue" stroke="midnightblue" points="310.39,-737.37 320.74,-735.11 311.24,-730.42 310.39,-737.37"/>
</g>
<!-- Node49&#45;&gt;Node50 -->
<g id="edge27" class="edge">
<title>Node49&#45;&gt;Node50</title>
<path fill="none" stroke="midnightblue" d="M544.86,-435.5C527.22,-435.5 506.84,-435.5 487.28,-435.5"/>
<polygon fill="midnightblue" stroke="midnightblue" points="544.9,-439 554.9,-435.5 544.9,-432 544.9,-439"/>
</g>
<!-- Node50&#45;&gt;Node51 -->
<g id="edge28" class="edge">
<title>Node50&#45;&gt;Node51</title>
<path fill="none" stroke="midnightblue" d="M389.31,-418.54C354.58,-382.16 273.39,-297.14 240.36,-262.54"/>
<polygon fill="midnightblue" stroke="midnightblue" points="386.91,-421.1 396.35,-425.92 391.98,-416.27 386.91,-421.1"/>
</g>
<!-- Node51&#45;&gt;Node52 -->
<g id="edge29" class="edge">
<title>Node51&#45;&gt;Node52</title>
<path fill="none" stroke="midnightblue" d="M154.98,-247.5C146.37,-247.5 137.6,-247.5 129.09,-247.5"/>
<polygon fill="midnightblue" stroke="midnightblue" points="154.98,-251 164.98,-247.5 154.98,-244 154.98,-251"/>
</g>
<!-- Node52&#45;&gt;Node50 -->
<g id="edge30" class="edge">
<title>Node52&#45;&gt;Node50</title>
<path fill="none" stroke="midnightblue" d="M101.5,-267.41C173.98,-307.48 335.09,-396.57 388.17,-425.92"/>
<polygon fill="midnightblue" stroke="midnightblue" points="103.15,-264.32 92.7,-262.54 99.76,-270.44 103.15,-264.32"/>
</g>
<!-- Node62 -->
<g id="node27" class="node">
<title>Node62</title>
<g id="a_node27"><a xlink:href="di__aobc_8c.html#aba679baeac63e052dbbe183daf0431f5" target="_top" xlink:title=" ">
<polygon fill="white" stroke="red" points="700.5,-338.5 700.5,-368.5 843.5,-368.5 843.5,-338.5 700.5,-338.5"/>
<text text-anchor="start" x="708.5" y="-356.5" font-family="Helvetica,sans-Serif" font-size="10.00">DI_AOBC_cmd_dispatcher</text>
<text text-anchor="middle" x="772" y="-345.5" font-family="Helvetica,sans-Serif" font-size="10.00">_init_</text>
</a>
</g>
</g>
<!-- Node61&#45;&gt;Node62 -->
<g id="edge32" class="edge">
<title>Node61&#45;&gt;Node62</title>
<path fill="none" stroke="midnightblue" d="M920.47,-388.2C896.24,-382.5 864.67,-375.07 836.95,-368.55"/>
<polygon fill="midnightblue" stroke="midnightblue" points="919.83,-391.64 930.37,-390.53 921.44,-384.83 919.83,-391.64"/>
</g>
<!-- Node63 -->
<g id="node28" class="node">
<title>Node63</title>
<g id="a_node28"><a xlink:href="gs__command__dispatcher_8c.html#a3de52d571d95af7924100404ef36e130" target="_top" xlink:title="GSCD App 初期化関数">
<polygon fill="white" stroke="red" points="736.5,-388 736.5,-407 807.5,-407 807.5,-388 736.5,-388"/>
<text text-anchor="middle" x="772" y="-395" font-family="Helvetica,sans-Serif" font-size="10.00">GSCD_init_</text>
</a>
</g>
</g>
<!-- Node61&#45;&gt;Node63 -->
<g id="edge33" class="edge">
<title>Node61&#45;&gt;Node63</title>
<path fill="none" stroke="midnightblue" d="M920.04,-397.5C886.6,-397.5 839.4,-397.5 807.57,-397.5"/>
<polygon fill="midnightblue" stroke="midnightblue" points="920.37,-401 930.37,-397.5 920.37,-394 920.37,-401"/>
</g>
<!-- Node69&#45;&gt;Node10 -->
<g id="edge35" class="edge">
<title>Node69&#45;&gt;Node10</title>
<path fill="none" stroke="midnightblue" d="M374.27,-658.24C338.06,-674.18 279.31,-700.04 247.73,-713.94"/>
<polygon fill="midnightblue" stroke="midnightblue" points="376.11,-661.26 383.85,-654.03 373.29,-654.85 376.11,-661.26"/>
</g>
<!-- Node70&#45;&gt;Node10 -->
<g id="edge37" class="edge">
<title>Node70&#45;&gt;Node10</title>
<path fill="none" stroke="midnightblue" d="M367.81,-600.86C352.57,-607.16 335.26,-615.5 321,-625.5 283.17,-652.04 247.85,-695.01 233.17,-713.98"/>
<polygon fill="midnightblue" stroke="midnightblue" points="369.46,-603.97 377.46,-597.03 366.88,-597.47 369.46,-603.97"/>
</g>
<!-- Node84&#45;&gt;Node50 -->
<g id="edge43" class="edge">
<title>Node84&#45;&gt;Node50</title>
<path fill="none" stroke="midnightblue" d="M556.99,-498.47C547.5,-495.01 537.34,-491.21 528,-487.5 492.85,-473.54 452.62,-455.82 428.67,-445.09"/>
<polygon fill="midnightblue" stroke="midnightblue" points="555.98,-501.83 566.57,-501.93 558.35,-495.24 555.98,-501.83"/>
</g>
<!-- Node91&#45;&gt;Node49 -->
<g id="edge49" class="edge">
<title>Node91&#45;&gt;Node49</title>
<path fill="none" stroke="midnightblue" d="M687.63,-435.5C669.26,-435.5 650.63,-435.5 635.02,-435.5"/>
<polygon fill="midnightblue" stroke="midnightblue" points="687.8,-439 697.8,-435.5 687.8,-432 687.8,-439"/>
</g>
<!-- Node94&#45;&gt;Node39 -->
<g id="edge54" class="edge">
<title>Node94&#45;&gt;Node39</title>
<path fill="none" stroke="midnightblue" d="M886.91,-750.58C868.05,-751.89 848.03,-753.28 830.12,-754.53"/>
<polygon fill="midnightblue" stroke="midnightblue" points="887.22,-754.07 896.95,-749.88 886.73,-747.09 887.22,-754.07"/>
</g>
<!-- Node96&#45;&gt;Node8 -->
<g id="edge59" class="edge">
<title>Node96&#45;&gt;Node8</title>
<path fill="none" stroke="midnightblue" d="M1088.75,-953.18C1062.79,-958.57 1032.38,-964.89 1007.85,-969.98"/>
<polygon fill="midnightblue" stroke="midnightblue" points="1089.74,-956.55 1098.82,-951.09 1088.32,-949.7 1089.74,-956.55"/>
</g>
<!-- Node96&#45;&gt;Node17 -->
<g id="edge60" class="edge">
<title>Node96&#45;&gt;Node17</title>
<path fill="none" stroke="midnightblue" d="M1082.8,-941.5C1060.78,-941.5 1036.22,-941.5 1015.03,-941.5"/>
<polygon fill="midnightblue" stroke="midnightblue" points="1083.05,-945 1093.05,-941.5 1083.05,-938 1083.05,-945"/>
</g>
<!-- Node96&#45;&gt;Node30 -->
<g id="edge61" class="edge">
<title>Node96&#45;&gt;Node30</title>
<path fill="none" stroke="midnightblue" d="M1083.37,-930.52C1011.05,-917.26 898.8,-895.39 882,-884.5 859.33,-869.8 867.72,-851.58 846,-835.5 789.98,-794 763.56,-807.23 698,-783.5 677.57,-776.1 654.91,-767.68 636.15,-760.65"/>
<polygon fill="midnightblue" stroke="midnightblue" points="1082.83,-933.98 1093.29,-932.33 1084.08,-927.09 1082.83,-933.98"/>
</g>
<!-- Node97 -->
<g id="node45" class="node">
<title>Node97</title>
<g id="a_node45"><a xlink:href="obc__time_8h.html#a51f2c2c48be7ec8985ec47f36bef1335" target="_top" xlink:title="ObcTime の引き算をミリ秒単位で行う">
<polygon fill="white" stroke="black" points="906,-1008 906,-1027 1016,-1027 1016,-1008 906,-1008"/>
<text text-anchor="middle" x="961" y="-1015" font-family="Helvetica,sans-Serif" font-size="10.00">OBCT_diff_in_msec</text>
</a>
</g>
</g>
<!-- Node96&#45;&gt;Node97 -->
<g id="edge62" class="edge">
<title>Node96&#45;&gt;Node97</title>
<path fill="none" stroke="midnightblue" d="M1121.56,-956.52C1100.82,-969.24 1069.37,-987.17 1040,-998.5 1030.38,-1002.21 1019.8,-1005.37 1009.62,-1007.97"/>
<polygon fill="midnightblue" stroke="midnightblue" points="1123.65,-959.34 1130.29,-951.08 1119.95,-953.4 1123.65,-959.34"/>
</g>
<!-- Node98 -->
<g id="node46" class="node">
<title>Node98</title>
<g id="a_node46"><a xlink:href="driver__super_8h.html#acadaccbff239185ebda242d39d4942bd" target="_top" xlink:title="継承先の機器からテレメトリを受信する">
<polygon fill="white" stroke="black" points="736.5,-1027 736.5,-1046 807.5,-1046 807.5,-1027 736.5,-1027"/>
<text text-anchor="middle" x="772" y="-1034" font-family="Helvetica,sans-Serif" font-size="10.00">DS_receive</text>
</a>
</g>
</g>
<!-- Node97&#45;&gt;Node98 -->
<g id="edge63" class="edge">
<title>Node97&#45;&gt;Node98</title>
<path fill="none" stroke="midnightblue" d="M895.65,-1024.04C866.08,-1027.04 832.17,-1030.49 807.52,-1032.99"/>
<polygon fill="midnightblue" stroke="midnightblue" points="896.32,-1027.49 905.91,-1023 895.61,-1020.52 896.32,-1027.49"/>
</g>
<!-- Node109 -->
<g id="node50" class="node">
<title>Node109</title>
<g id="a_node50"><a xlink:href="event__handler_8c.html#aa8f8643b631236606e67efd8f301d88c" target="_top" xlink:title="EH の対応条件をチェックする (EH_RESPONSE_CONDITION_CONTINUOUS)">
<polygon fill="white" stroke="black" points="711,-844.5 711,-874.5 833,-874.5 833,-844.5 711,-844.5"/>
<text text-anchor="start" x="719" y="-862.5" font-family="Helvetica,sans-Serif" font-size="10.00">EH_check_continuous</text>
<text text-anchor="middle" x="772" y="-851.5" font-family="Helvetica,sans-Serif" font-size="10.00">_rule_</text>
</a>
</g>
</g>
<!-- Node97&#45;&gt;Node109 -->
<g id="edge67" class="edge">
<title>Node97&#45;&gt;Node109</title>
<path fill="none" stroke="midnightblue" d="M896.68,-1008.3C891.31,-1005.74 886.3,-1002.53 882,-998.5 843.19,-962.21 883.12,-922.52 846,-884.5 842.26,-880.67 837.9,-877.42 833.22,-874.67"/>
<polygon fill="midnightblue" stroke="midnightblue" points="895.4,-1011.56 905.98,-1012.02 898,-1005.06 895.4,-1011.56"/>
</g>
<!-- Node99 -->
<g id="node47" class="node">
<title>Node99</title>
<g id="a_node47"><a xlink:href="aobc_8h.html#ac4887fe7b15c36a303b144f4ed7268c6" target="_top" xlink:title="AOBC のデータ（テレメ）受信">
<polygon fill="white" stroke="red" points="562.5,-1084 562.5,-1103 627.5,-1103 627.5,-1084 562.5,-1084"/>
<text text-anchor="middle" x="595" y="-1091" font-family="Helvetica,sans-Serif" font-size="10.00">AOBC_rec</text>
</a>
</g>
</g>
<!-- Node98&#45;&gt;Node99 -->
<g id="edge64" class="edge">
<title>Node98&#45;&gt;Node99</title>
<path fill="none" stroke="midnightblue" d="M735.15,-1049.56C713.96,-1057.13 686.57,-1066.69 662,-1074.5 650.86,-1078.04 638.58,-1081.66 627.66,-1084.77"/>
<polygon fill="midnightblue" stroke="midnightblue" points="736.48,-1052.8 744.71,-1046.12 734.11,-1046.21 736.48,-1052.8"/>
</g>
<!-- Node102 -->
<g id="node48" class="node">
<title>Node102</title>
<g id="a_node48"><a xlink:href="gs_8h.html#a71cae22585ff22fafc9e1e0572941079" target="_top" xlink:title="地上から CMD を受信する. 形式は TC Transer Frame">
<polygon fill="white" stroke="red" points="559,-1046 559,-1065 631,-1065 631,-1046 559,-1046"/>
<text text-anchor="middle" x="595" y="-1053" font-family="Helvetica,sans-Serif" font-size="10.00">GS_rec_tctf</text>
</a>
</g>
</g>
<!-- Node98&#45;&gt;Node102 -->
<g id="edge65" class="edge">
<title>Node98&#45;&gt;Node102</title>
<path fill="none" stroke="midnightblue" d="M726.36,-1041.35C696.77,-1044.56 658.51,-1048.71 631.1,-1051.69"/>
<polygon fill="midnightblue" stroke="midnightblue" points="726.86,-1044.81 736.43,-1040.25 726.11,-1037.85 726.86,-1044.81"/>
</g>
<!-- Node105 -->
<g id="node49" class="node">
<title>Node105</title>
<g id="a_node49"><a xlink:href="_u_a_r_t___t_e_s_t_8h.html#abb8834a562ff20b065ccb3c8ac8815d5" target="_top" xlink:title="UART_TESTのデータ（テレメ）受信">
<polygon fill="white" stroke="red" points="549,-1008 549,-1027 641,-1027 641,-1008 549,-1008"/>
<text text-anchor="middle" x="595" y="-1015" font-family="Helvetica,sans-Serif" font-size="10.00">UART_TEST_rec</text>
</a>
</g>
</g>
<!-- Node98&#45;&gt;Node105 -->
<g id="edge66" class="edge">
<title>Node98&#45;&gt;Node105</title>
<path fill="none" stroke="midnightblue" d="M726.41,-1031.66C700.27,-1028.82 667.35,-1025.25 641.13,-1022.4"/>
<polygon fill="midnightblue" stroke="midnightblue" points="726.11,-1035.15 736.43,-1032.75 726.86,-1028.19 726.11,-1035.15"/>
</g>
<!-- Node109&#45;&gt;Node84 -->
<g id="edge68" class="edge">
<title>Node109&#45;&gt;Node84</title>
<path fill="none" stroke="midnightblue" d="M744.97,-837.39C729.63,-823.25 710.79,-803.8 698,-783.5 639.14,-690.04 606.34,-557.43 598.09,-521.05"/>
<polygon fill="midnightblue" stroke="midnightblue" points="742.84,-840.18 752.62,-844.27 747.53,-834.98 742.84,-840.18"/>
</g>
</g>
</svg>
