<?xml version="1.0" encoding="UTF-8" standalone="no"?>
<!DOCTYPE svg PUBLIC "-//W3C//DTD SVG 1.1//EN"
 "http://www.w3.org/Graphics/SVG/1.1/DTD/svg11.dtd">
<!-- Generated by graphviz version 2.43.0 (0)
 -->
<!-- Title: OBCT_diff_in_step Pages: 1 -->
<svg width="2202pt" height="342pt"
 viewBox="0.00 0.00 2202.00 342.00" xmlns="http://www.w3.org/2000/svg" xmlns:xlink="http://www.w3.org/1999/xlink">
<g id="graph0" class="graph" transform="scale(1 1) rotate(0) translate(4 338)">
<title>OBCT_diff_in_step</title>
<polygon fill="white" stroke="transparent" points="-4,4 -4,-338 2198,-338 2198,4 -4,4"/>
<!-- Node1 -->
<g id="node1" class="node">
<title>Node1</title>
<g id="a_node1"><a xlink:title="ObcTime の引き算を step 単位で行う">
<polygon fill="#bfbfbf" stroke="black" points="2089,-235.5 2089,-254.5 2194,-254.5 2194,-235.5 2089,-235.5"/>
<text text-anchor="middle" x="2141.5" y="-242.5" font-family="Helvetica,sans-Serif" font-size="10.00">OBCT_diff_in_step</text>
</a>
</g>
</g>
<!-- Node2 -->
<g id="node2" class="node">
<title>Node2</title>
<g id="a_node2"><a xlink:href="app__manager_8c.html#ac8eb56aeb5e572d9d1215cead52a9ab5" target="_top" xlink:title=" ">
<polygon fill="white" stroke="black" points="1934,-213.5 1934,-232.5 2038,-232.5 2038,-213.5 1934,-213.5"/>
<text text-anchor="middle" x="1986" y="-220.5" font-family="Helvetica,sans-Serif" font-size="10.00">AM_execute_app_</text>
</a>
</g>
</g>
<!-- Node1&#45;&gt;Node2 -->
<g id="edge1" class="edge">
<title>Node1&#45;&gt;Node2</title>
<path fill="none" stroke="midnightblue" d="M2078.8,-236.16C2065.31,-234.22 2051.17,-232.2 2038.14,-230.33"/>
<polygon fill="midnightblue" stroke="midnightblue" points="2078.56,-239.66 2088.96,-237.61 2079.56,-232.73 2078.56,-239.66"/>
</g>
<!-- Node10 -->
<g id="node10" class="node">
<title>Node10</title>
<g id="a_node10"><a xlink:href="app__manager_8c.html#a26a59b0004c449cd7610ce8ef8de4b0c" target="_top" xlink:title=" ">
<polygon fill="white" stroke="black" points="1020.5,-301.5 1020.5,-320.5 1128.5,-320.5 1128.5,-301.5 1020.5,-301.5"/>
<text text-anchor="middle" x="1074.5" y="-308.5" font-family="Helvetica,sans-Serif" font-size="10.00">AM_initialize_app_</text>
</a>
</g>
</g>
<!-- Node1&#45;&gt;Node10 -->
<g id="edge9" class="edge">
<title>Node1&#45;&gt;Node10</title>
<path fill="none" stroke="midnightblue" d="M2118.04,-260.09C2100.98,-270.71 2076.51,-284.21 2053,-291 1944,-322.49 1911.96,-311 1798.5,-311 1798.5,-311 1798.5,-311 1424.5,-311 1319.68,-311 1197.15,-311 1128.71,-311"/>
<polygon fill="midnightblue" stroke="midnightblue" points="2120.17,-262.88 2126.71,-254.54 2116.4,-256.98 2120.17,-262.88"/>
</g>
<!-- Node13 -->
<g id="node13" class="node">
<title>Node13</title>
<g id="a_node13"><a xlink:href="block__command__executor_8c.html#a17393664714f4ec0df2f1d98654a28a3" target="_top" xlink:title="BC をまとめて一括で実行する">
<polygon fill="white" stroke="black" points="1919,-252 1919,-282 2053,-282 2053,-252 1919,-252"/>
<text text-anchor="start" x="1927" y="-270" font-family="Helvetica,sans-Serif" font-size="10.00">BCT_timelimit_combine</text>
<text text-anchor="middle" x="1986" y="-259" font-family="Helvetica,sans-Serif" font-size="10.00">_block_cmd_</text>
</a>
</g>
</g>
<!-- Node1&#45;&gt;Node13 -->
<g id="edge14" class="edge">
<title>Node1&#45;&gt;Node13</title>
<path fill="none" stroke="midnightblue" d="M2078.81,-253.84C2070.36,-255.05 2061.65,-256.3 2053.12,-257.52"/>
<polygon fill="midnightblue" stroke="midnightblue" points="2079.56,-257.27 2088.96,-252.39 2078.56,-250.34 2079.56,-257.27"/>
</g>
<!-- Node15 -->
<g id="node15" class="node">
<title>Node15</title>
<g id="a_node15"><a xlink:href="obc__time_8h.html#a51f2c2c48be7ec8985ec47f36bef1335" target="_top" xlink:title="ObcTime の引き算をミリ秒単位で行う">
<polygon fill="white" stroke="black" points="1931,-161.5 1931,-180.5 2041,-180.5 2041,-161.5 1931,-161.5"/>
<text text-anchor="middle" x="1986" y="-168.5" font-family="Helvetica,sans-Serif" font-size="10.00">OBCT_diff_in_msec</text>
</a>
</g>
</g>
<!-- Node1&#45;&gt;Node15 -->
<g id="edge17" class="edge">
<title>Node1&#45;&gt;Node15</title>
<path fill="none" stroke="midnightblue" d="M2111.48,-231.01C2080.99,-216.31 2033.83,-193.57 2007.16,-180.72"/>
<polygon fill="midnightblue" stroke="midnightblue" points="2110.22,-234.29 2120.75,-235.48 2113.26,-227.98 2110.22,-234.29"/>
</g>
<!-- Node3 -->
<g id="node3" class="node">
<title>Node3</title>
<g id="a_node3"><a xlink:href="app__manager_8h.html#a7332f291e4e14e5b458211e2b965b675" target="_top" xlink:title=" ">
<polygon fill="white" stroke="black" points="1542,-216.5 1542,-235.5 1676,-235.5 1676,-216.5 1542,-216.5"/>
<text text-anchor="middle" x="1609" y="-223.5" font-family="Helvetica,sans-Serif" font-size="10.00">Cmd_AM_EXECUTE_APP</text>
</a>
</g>
</g>
<!-- Node2&#45;&gt;Node3 -->
<g id="edge2" class="edge">
<title>Node2&#45;&gt;Node3</title>
<path fill="none" stroke="midnightblue" d="M1923.5,-223.49C1855.42,-224.04 1746.09,-224.91 1676.19,-225.47"/>
<polygon fill="midnightblue" stroke="midnightblue" points="1923.67,-226.99 1933.64,-223.41 1923.62,-219.99 1923.67,-226.99"/>
</g>
<!-- Node4 -->
<g id="node4" class="node">
<title>Node4</title>
<g id="a_node4"><a xlink:href="command__definitions_8c.html#aa375895192b16d8e7f0ff4545b54e6c4" target="_top" xlink:title="Cmd Tableのロード">
<polygon fill="white" stroke="black" points="638.5,-219.5 638.5,-238.5 751.5,-238.5 751.5,-219.5 638.5,-219.5"/>
<text text-anchor="middle" x="695" y="-226.5" font-family="Helvetica,sans-Serif" font-size="10.00">CA_load_cmd_table</text>
</a>
</g>
</g>
<!-- Node3&#45;&gt;Node4 -->
<g id="edge3" class="edge">
<title>Node3&#45;&gt;Node4</title>
<path fill="none" stroke="midnightblue" d="M1531.29,-227.01C1458.8,-227.88 1347.01,-229 1250,-229 1250,-229 1250,-229 1073.5,-229 959.14,-229 825.28,-229 751.65,-229"/>
<polygon fill="midnightblue" stroke="midnightblue" points="1531.73,-230.51 1541.69,-226.89 1531.65,-223.51 1531.73,-230.51"/>
</g>
<!-- Node5 -->
<g id="node5" class="node">
<title>Node5</title>
<g id="a_node5"><a xlink:href="command__analyze_8h.html#ae6d1f376bf4e1c9c4b63bc3f04924c8a" target="_top" xlink:title="CA の初期化">
<polygon fill="white" stroke="black" points="477.5,-219.5 477.5,-238.5 554.5,-238.5 554.5,-219.5 477.5,-219.5"/>
<text text-anchor="middle" x="516" y="-226.5" font-family="Helvetica,sans-Serif" font-size="10.00">CA_initialize</text>
</a>
</g>
</g>
<!-- Node4&#45;&gt;Node5 -->
<g id="edge4" class="edge">
<title>Node4&#45;&gt;Node5</title>
<path fill="none" stroke="midnightblue" d="M628.38,-229C603.54,-229 576.11,-229 554.69,-229"/>
<polygon fill="midnightblue" stroke="midnightblue" points="628.48,-232.5 638.48,-229 628.48,-225.5 628.48,-232.5"/>
</g>
<!-- Node6 -->
<g id="node6" class="node">
<title>Node6</title>
<g id="a_node6"><a xlink:href="c2a__core__main_8h.html#a65ecdc63d8762ffde4db7f6c6e6f07cf" target="_top" xlink:title=" ">
<polygon fill="white" stroke="black" points="330,-219.5 330,-238.5 413,-238.5 413,-219.5 330,-219.5"/>
<text text-anchor="middle" x="371.5" y="-226.5" font-family="Helvetica,sans-Serif" font-size="10.00">C2A_core_init</text>
</a>
</g>
</g>
<!-- Node5&#45;&gt;Node6 -->
<g id="edge5" class="edge">
<title>Node5&#45;&gt;Node6</title>
<path fill="none" stroke="midnightblue" d="M467.17,-229C449.67,-229 430.06,-229 413.24,-229"/>
<polygon fill="midnightblue" stroke="midnightblue" points="467.19,-232.5 477.19,-229 467.19,-225.5 467.19,-232.5"/>
</g>
<!-- Node7 -->
<g id="node7" class="node">
<title>Node7</title>
<g id="a_node7"><a xlink:href="c2a__main_8c.html#a630222a80cd8bffd4426d4a55a215069" target="_top" xlink:title=" ">
<polygon fill="white" stroke="black" points="232,-219.5 232,-238.5 294,-238.5 294,-219.5 232,-219.5"/>
<text text-anchor="middle" x="263" y="-226.5" font-family="Helvetica,sans-Serif" font-size="10.00">C2A_init_</text>
</a>
</g>
</g>
<!-- Node6&#45;&gt;Node7 -->
<g id="edge6" class="edge">
<title>Node6&#45;&gt;Node7</title>
<path fill="none" stroke="midnightblue" d="M319.76,-229C311.01,-229 302.17,-229 294.18,-229"/>
<polygon fill="midnightblue" stroke="midnightblue" points="319.93,-232.5 329.93,-229 319.93,-225.5 319.93,-232.5"/>
</g>
<!-- Node8 -->
<g id="node8" class="node">
<title>Node8</title>
<g id="a_node8"><a xlink:href="c2a__main_8c.html#ac3344a311adda8f9e7310924bedf81fc" target="_top" xlink:title=" ">
<polygon fill="white" stroke="black" points="77,-219.5 77,-238.5 196,-238.5 196,-219.5 77,-219.5"/>
<text text-anchor="middle" x="136.5" y="-226.5" font-family="Helvetica,sans-Serif" font-size="10.00">address_fixed_main_</text>
</a>
</g>
</g>
<!-- Node7&#45;&gt;Node8 -->
<g id="edge7" class="edge">
<title>Node7&#45;&gt;Node8</title>
<path fill="none" stroke="midnightblue" d="M221.83,-229C213.62,-229 204.82,-229 196.12,-229"/>
<polygon fill="midnightblue" stroke="midnightblue" points="221.86,-232.5 231.86,-229 221.86,-225.5 221.86,-232.5"/>
</g>
<!-- Node9 -->
<g id="node9" class="node">
<title>Node9</title>
<g id="a_node9"><a xlink:href="c2a__main_8c.html#a840291bc02cba5474a4cb46a9b9566fe" target="_top" xlink:title=" ">
<polygon fill="white" stroke="black" points="0,-219.5 0,-238.5 41,-238.5 41,-219.5 0,-219.5"/>
<text text-anchor="middle" x="20.5" y="-226.5" font-family="Helvetica,sans-Serif" font-size="10.00">main</text>
</a>
</g>
</g>
<!-- Node8&#45;&gt;Node9 -->
<g id="edge8" class="edge">
<title>Node8&#45;&gt;Node9</title>
<path fill="none" stroke="midnightblue" d="M66.64,-229C57.37,-229 48.53,-229 41.18,-229"/>
<polygon fill="midnightblue" stroke="midnightblue" points="66.83,-232.5 76.83,-229 66.83,-225.5 66.83,-232.5"/>
</g>
<!-- Node11 -->
<g id="node11" class="node">
<title>Node11</title>
<g id="a_node11"><a xlink:href="app__manager_8h.html#a4cc7cbb82adf461396826ab31fe4415f" target="_top" xlink:title=" ">
<polygon fill="white" stroke="black" points="632.5,-314.5 632.5,-333.5 757.5,-333.5 757.5,-314.5 632.5,-314.5"/>
<text text-anchor="middle" x="695" y="-321.5" font-family="Helvetica,sans-Serif" font-size="10.00">AM_initialize_all_apps</text>
</a>
</g>
</g>
<!-- Node10&#45;&gt;Node11 -->
<g id="edge10" class="edge">
<title>Node10&#45;&gt;Node11</title>
<path fill="none" stroke="midnightblue" d="M1010.46,-319.51C994.06,-321.37 976.4,-323.06 960,-324 890.79,-327.95 811.21,-327.23 757.67,-325.98"/>
<polygon fill="midnightblue" stroke="midnightblue" points="1010.96,-322.98 1020.49,-318.34 1010.15,-316.03 1010.96,-322.98"/>
</g>
<!-- Node12 -->
<g id="node12" class="node">
<title>Node12</title>
<g id="a_node12"><a xlink:href="app__manager_8h.html#a904549233533e24fdaad33d9142da19c" target="_top" xlink:title=" ">
<polygon fill="white" stroke="black" points="813.5,-295.5 813.5,-314.5 953.5,-314.5 953.5,-295.5 813.5,-295.5"/>
<text text-anchor="middle" x="883.5" y="-302.5" font-family="Helvetica,sans-Serif" font-size="10.00">Cmd_AM_INITIALIZE_APP</text>
</a>
</g>
</g>
<!-- Node10&#45;&gt;Node12 -->
<g id="edge12" class="edge">
<title>Node10&#45;&gt;Node12</title>
<path fill="none" stroke="midnightblue" d="M1010.2,-308.99C992.11,-308.42 972.29,-307.79 953.84,-307.2"/>
<polygon fill="midnightblue" stroke="midnightblue" points="1010.24,-312.49 1020.35,-309.31 1010.47,-305.5 1010.24,-312.49"/>
</g>
<!-- Node11&#45;&gt;Node6 -->
<g id="edge11" class="edge">
<title>Node11&#45;&gt;Node6</title>
<path fill="none" stroke="midnightblue" d="M651.77,-311.52C586.69,-292.29 463.26,-255.82 404.78,-238.54"/>
<polygon fill="midnightblue" stroke="midnightblue" points="651.12,-314.98 661.7,-314.46 653.1,-308.27 651.12,-314.98"/>
</g>
<!-- Node12&#45;&gt;Node4 -->
<g id="edge13" class="edge">
<title>Node12&#45;&gt;Node4</title>
<path fill="none" stroke="midnightblue" d="M839.5,-292.4C828.79,-288.97 817.39,-285.07 807,-281 773.71,-267.97 736.31,-249.65 714.53,-238.59"/>
<polygon fill="midnightblue" stroke="midnightblue" points="838.51,-295.76 849.1,-295.41 840.6,-289.08 838.51,-295.76"/>
</g>
<!-- Node14 -->
<g id="node14" class="node">
<title>Node14</title>
<g id="a_node14"><a xlink:href="block__command__executor_8h.html#a33ee70475b35e5606d83857c5843d29a" target="_top" xlink:title=" ">
<polygon fill="white" stroke="black" points="1712,-252 1712,-282 1883,-282 1883,-252 1712,-252"/>
<text text-anchor="start" x="1720" y="-270" font-family="Helvetica,sans-Serif" font-size="10.00">Cmd_BCE_TIMELIMIT_COMBINE</text>
<text text-anchor="middle" x="1797.5" y="-259" font-family="Helvetica,sans-Serif" font-size="10.00">_BLOCK</text>
</a>
</g>
</g>
<!-- Node13&#45;&gt;Node14 -->
<g id="edge15" class="edge">
<title>Node13&#45;&gt;Node14</title>
<path fill="none" stroke="midnightblue" d="M1908.76,-267C1900.29,-267 1891.62,-267 1883.05,-267"/>
<polygon fill="midnightblue" stroke="midnightblue" points="1908.98,-270.5 1918.98,-267 1908.98,-263.5 1908.98,-270.5"/>
</g>
<!-- Node14&#45;&gt;Node4 -->
<g id="edge16" class="edge">
<title>Node14&#45;&gt;Node4</title>
<path fill="none" stroke="midnightblue" d="M1701.31,-267C1626.58,-267 1519.91,-267 1426.5,-267 1426.5,-267 1426.5,-267 1073.5,-267 958.72,-267 825.3,-249.39 751.79,-238.15"/>
<polygon fill="midnightblue" stroke="midnightblue" points="1701.63,-270.5 1711.63,-267 1701.63,-263.5 1701.63,-270.5"/>
</g>
<!-- Node16 -->
<g id="node16" class="node">
<title>Node16</title>
<g id="a_node16"><a xlink:href="driver__super_8h.html#acadaccbff239185ebda242d39d4942bd" target="_top" xlink:title="継承先の機器からテレメトリを受信する">
<polygon fill="white" stroke="black" points="1390,-70.5 1390,-89.5 1461,-89.5 1461,-70.5 1390,-70.5"/>
<text text-anchor="middle" x="1425.5" y="-77.5" font-family="Helvetica,sans-Serif" font-size="10.00">DS_receive</text>
</a>
</g>
</g>
<!-- Node15&#45;&gt;Node16 -->
<g id="edge18" class="edge">
<title>Node15&#45;&gt;Node16</title>
<path fill="none" stroke="midnightblue" d="M1939.76,-158.91C1922.13,-154.47 1901.7,-149.63 1883,-146 1726.57,-115.6 1537.49,-92.58 1461.05,-83.84"/>
<polygon fill="midnightblue" stroke="midnightblue" points="1939.23,-162.39 1949.78,-161.48 1940.96,-155.61 1939.23,-162.39"/>
</g>
<!-- Node28 -->
<g id="node28" class="node">
<title>Node28</title>
<g id="a_node28"><a xlink:href="event__handler_8c.html#aa8f8643b631236606e67efd8f301d88c" target="_top" xlink:title="EH の対応条件をチェックする (EH_RESPONSE_CONDITION_CONTINUOUS)">
<polygon fill="white" stroke="black" points="1736.5,-156 1736.5,-186 1858.5,-186 1858.5,-156 1736.5,-156"/>
<text text-anchor="start" x="1744.5" y="-174" font-family="Helvetica,sans-Serif" font-size="10.00">EH_check_continuous</text>
<text text-anchor="middle" x="1797.5" y="-163" font-family="Helvetica,sans-Serif" font-size="10.00">_rule_</text>
</a>
</g>
</g>
<!-- Node15&#45;&gt;Node28 -->
<g id="edge33" class="edge">
<title>Node15&#45;&gt;Node28</title>
<path fill="none" stroke="midnightblue" d="M1920.8,-171C1900.68,-171 1878.55,-171 1858.72,-171"/>
<polygon fill="midnightblue" stroke="midnightblue" points="1920.81,-174.5 1930.81,-171 1920.81,-167.5 1920.81,-174.5"/>
</g>
<!-- Node17 -->
<g id="node17" class="node">
<title>Node17</title>
<g id="a_node17"><a xlink:href="aobc_8h.html#ac4887fe7b15c36a303b144f4ed7268c6" target="_top" xlink:title="AOBC のデータ（テレメ）受信">
<polygon fill="white" stroke="black" points="1216.5,-89.5 1216.5,-108.5 1281.5,-108.5 1281.5,-89.5 1216.5,-89.5"/>
<text text-anchor="middle" x="1249" y="-96.5" font-family="Helvetica,sans-Serif" font-size="10.00">AOBC_rec</text>
</a>
</g>
</g>
<!-- Node16&#45;&gt;Node17 -->
<g id="edge19" class="edge">
<title>Node16&#45;&gt;Node17</title>
<path fill="none" stroke="midnightblue" d="M1379.58,-84.89C1348.89,-88.23 1308.98,-92.58 1281.61,-95.56"/>
<polygon fill="midnightblue" stroke="midnightblue" points="1380.04,-88.36 1389.61,-83.8 1379.29,-81.4 1380.04,-88.36"/>
</g>
<!-- Node20 -->
<g id="node20" class="node">
<title>Node20</title>
<g id="a_node20"><a xlink:href="gs_8h.html#ac7906f03ef12d51bc5a5b27de332984f" target="_top" xlink:title="地上から CMD を受信する. 形式は TCFrame">
<polygon fill="white" stroke="black" points="1215,-13.5 1215,-32.5 1283,-32.5 1283,-13.5 1215,-13.5"/>
<text text-anchor="middle" x="1249" y="-20.5" font-family="Helvetica,sans-Serif" font-size="10.00">GS_rec_tcf</text>
</a>
</g>
</g>
<!-- Node16&#45;&gt;Node20 -->
<g id="edge22" class="edge">
<title>Node16&#45;&gt;Node20</title>
<path fill="none" stroke="midnightblue" d="M1386.05,-67.28C1363.59,-59.87 1334.7,-50.37 1309,-42 1299.48,-38.9 1289.1,-35.55 1279.72,-32.53"/>
<polygon fill="midnightblue" stroke="midnightblue" points="1384.97,-70.61 1395.56,-70.42 1387.16,-63.96 1384.97,-70.61"/>
</g>
<!-- Node24 -->
<g id="node24" class="node">
<title>Node24</title>
<g id="a_node24"><a xlink:href="_u_a_r_t___t_e_s_t_8h.html#abb8834a562ff20b065ccb3c8ac8815d5" target="_top" xlink:title="UART_TESTのデータ（テレメ）受信">
<polygon fill="white" stroke="black" points="1203,-51.5 1203,-70.5 1295,-70.5 1295,-51.5 1203,-51.5"/>
<text text-anchor="middle" x="1249" y="-58.5" font-family="Helvetica,sans-Serif" font-size="10.00">UART_TEST_rec</text>
</a>
</g>
</g>
<!-- Node16&#45;&gt;Node24 -->
<g id="edge27" class="edge">
<title>Node16&#45;&gt;Node24</title>
<path fill="none" stroke="midnightblue" d="M1379.65,-75.12C1353.69,-72.29 1321.11,-68.74 1295.11,-65.91"/>
<polygon fill="midnightblue" stroke="midnightblue" points="1379.29,-78.6 1389.61,-76.2 1380.04,-71.64 1379.29,-78.6"/>
</g>
<!-- Node18 -->
<g id="node18" class="node">
<title>Node18</title>
<g id="a_node18"><a xlink:href="di__aobc_8c.html#a0c3b0ef5c9c0ff2ba0e6327dcb36c7e4" target="_top" xlink:title=" ">
<polygon fill="white" stroke="black" points="1022.5,-92.5 1022.5,-111.5 1126.5,-111.5 1126.5,-92.5 1022.5,-92.5"/>
<text text-anchor="middle" x="1074.5" y="-99.5" font-family="Helvetica,sans-Serif" font-size="10.00">DI_AOBC_update_</text>
</a>
</g>
</g>
<!-- Node17&#45;&gt;Node18 -->
<g id="edge20" class="edge">
<title>Node17&#45;&gt;Node18</title>
<path fill="none" stroke="midnightblue" d="M1206.17,-99.73C1182.2,-100.14 1151.94,-100.67 1126.58,-101.11"/>
<polygon fill="midnightblue" stroke="midnightblue" points="1206.42,-103.22 1216.36,-99.55 1206.3,-96.22 1206.42,-103.22"/>
</g>
<!-- Node19 -->
<g id="node19" class="node">
<title>Node19</title>
<g id="a_node19"><a xlink:href="di__aobc_8h.html#a78f30ebb5b71301c1da6d10eac787db4" target="_top" xlink:title="AOBC update アプリ生成関数">
<polygon fill="white" stroke="black" points="834,-105.5 834,-124.5 933,-124.5 933,-105.5 834,-105.5"/>
<text text-anchor="middle" x="883.5" y="-112.5" font-family="Helvetica,sans-Serif" font-size="10.00">DI_AOBC_update</text>
</a>
</g>
</g>
<!-- Node18&#45;&gt;Node19 -->
<g id="edge21" class="edge">
<title>Node18&#45;&gt;Node19</title>
<path fill="none" stroke="midnightblue" d="M1012.35,-106.21C986.68,-107.97 957.24,-110 933.08,-111.66"/>
<polygon fill="midnightblue" stroke="midnightblue" points="1012.62,-109.7 1022.35,-105.52 1012.14,-102.71 1012.62,-109.7"/>
</g>
<!-- Node21 -->
<g id="node21" class="node">
<title>Node21</title>
<g id="a_node21"><a xlink:href="di__gs_8c.html#a8f20dcd562d4598cd177d1435dafeea4" target="_top" xlink:title=" ">
<polygon fill="white" stroke="black" points="996,-0.5 996,-19.5 1153,-19.5 1153,-0.5 996,-0.5"/>
<text text-anchor="middle" x="1074.5" y="-7.5" font-family="Helvetica,sans-Serif" font-size="10.00">DI_GS_cmd_packet_handler_</text>
</a>
</g>
</g>
<!-- Node20&#45;&gt;Node21 -->
<g id="edge23" class="edge">
<title>Node20&#45;&gt;Node21</title>
<path fill="none" stroke="midnightblue" d="M1204.42,-19.72C1188.88,-18.54 1170.88,-17.19 1153.34,-15.87"/>
<polygon fill="midnightblue" stroke="midnightblue" points="1204.51,-23.23 1214.74,-20.49 1205.03,-16.25 1204.51,-23.23"/>
</g>
<!-- Node22 -->
<g id="node22" class="node">
<title>Node22</title>
<g id="a_node22"><a xlink:href="di__gs_8h.html#a9db482e4676bf373c0f84561058f1f91" target="_top" xlink:title=" ">
<polygon fill="white" stroke="black" points="619,-1.5 619,-20.5 771,-20.5 771,-1.5 619,-1.5"/>
<text text-anchor="middle" x="695" y="-8.5" font-family="Helvetica,sans-Serif" font-size="10.00">DI_GS_cmd_packet_handler</text>
</a>
</g>
</g>
<!-- Node21&#45;&gt;Node22 -->
<g id="edge24" class="edge">
<title>Node21&#45;&gt;Node22</title>
<path fill="none" stroke="midnightblue" d="M985.5,-10.23C920.46,-10.41 832.84,-10.64 771.09,-10.8"/>
<polygon fill="midnightblue" stroke="midnightblue" points="985.75,-13.73 995.74,-10.21 985.73,-6.73 985.75,-13.73"/>
</g>
<!-- Node23 -->
<g id="node23" class="node">
<title>Node23</title>
<g id="a_node23"><a xlink:href="app__registry_8h.html#ab944b1d78a41e427bc2ed57f9c4e9534" target="_top" xlink:title=" ">
<polygon fill="white" stroke="black" points="449,-106.5 449,-125.5 583,-125.5 583,-106.5 449,-106.5"/>
<text text-anchor="middle" x="516" y="-113.5" font-family="Helvetica,sans-Serif" font-size="10.00">AR_load_initial_settings</text>
</a>
</g>
</g>
<!-- Node22&#45;&gt;Node23 -->
<g id="edge25" class="edge">
<title>Node22&#45;&gt;Node23</title>
<path fill="none" stroke="midnightblue" d="M669.34,-25.63C632.52,-47.47 564.17,-88.02 533.11,-106.44"/>
<polygon fill="midnightblue" stroke="midnightblue" points="671.17,-28.62 677.98,-20.5 667.59,-22.6 671.17,-28.62"/>
</g>
<!-- Node23&#45;&gt;Node6 -->
<g id="edge26" class="edge">
<title>Node23&#45;&gt;Node6</title>
<path fill="none" stroke="midnightblue" d="M494.74,-132.07C464.66,-155.92 409.1,-199.98 384.62,-219.39"/>
<polygon fill="midnightblue" stroke="midnightblue" points="497.19,-134.59 502.85,-125.63 492.84,-129.11 497.19,-134.59"/>
</g>
<!-- Node25 -->
<g id="node25" class="node">
<title>Node25</title>
<g id="a_node25"><a xlink:href="di__uart__test_8c.html#a8f76f956fd20e62e8cac93ad593cfcd5" target="_top" xlink:title=" ">
<polygon fill="white" stroke="black" points="1016.5,-51.5 1016.5,-70.5 1132.5,-70.5 1132.5,-51.5 1016.5,-51.5"/>
<text text-anchor="middle" x="1074.5" y="-58.5" font-family="Helvetica,sans-Serif" font-size="10.00">UART_TEST_update_</text>
</a>
</g>
</g>
<!-- Node24&#45;&gt;Node25 -->
<g id="edge28" class="edge">
<title>Node24&#45;&gt;Node25</title>
<path fill="none" stroke="midnightblue" d="M1192.59,-61C1173.41,-61 1151.88,-61 1132.57,-61"/>
<polygon fill="midnightblue" stroke="midnightblue" points="1192.68,-64.5 1202.68,-61 1192.68,-57.5 1192.68,-64.5"/>
</g>
<!-- Node26 -->
<g id="node26" class="node">
<title>Node26</title>
<g id="a_node26"><a xlink:href="di__uart__test_8h.html#a66e484ca8964ec8fcae6930a03aeb3c8" target="_top" xlink:title=" ">
<polygon fill="white" stroke="black" points="811.5,-67.5 811.5,-86.5 955.5,-86.5 955.5,-67.5 811.5,-67.5"/>
<text text-anchor="middle" x="883.5" y="-74.5" font-family="Helvetica,sans-Serif" font-size="10.00">Cmd_UART_TEST_UPDATE</text>
</a>
</g>
</g>
<!-- Node25&#45;&gt;Node26 -->
<g id="edge29" class="edge">
<title>Node25&#45;&gt;Node26</title>
<path fill="none" stroke="midnightblue" d="M1006.23,-66.7C989.8,-68.09 972.17,-69.58 955.57,-70.98"/>
<polygon fill="midnightblue" stroke="midnightblue" points="1006.61,-70.18 1016.28,-65.84 1006.02,-63.2 1006.61,-70.18"/>
</g>
<!-- Node27 -->
<g id="node27" class="node">
<title>Node27</title>
<g id="a_node27"><a xlink:href="di__uart__test_8h.html#ac2cadb32ca03377583d0cc1d5b0f39cc" target="_top" xlink:title=" ">
<polygon fill="white" stroke="black" points="639.5,-77.5 639.5,-96.5 750.5,-96.5 750.5,-77.5 639.5,-77.5"/>
<text text-anchor="middle" x="695" y="-84.5" font-family="Helvetica,sans-Serif" font-size="10.00">UART_TEST_update</text>
</a>
</g>
</g>
<!-- Node25&#45;&gt;Node27 -->
<g id="edge31" class="edge">
<title>Node25&#45;&gt;Node27</title>
<path fill="none" stroke="midnightblue" d="M1006.16,-55.1C952.1,-51.6 874.37,-49.35 807,-58 778.35,-61.68 746.55,-70.5 724.35,-77.45"/>
<polygon fill="midnightblue" stroke="midnightblue" points="1006.09,-58.61 1016.31,-55.79 1006.57,-51.62 1006.09,-58.61"/>
</g>
<!-- Node26&#45;&gt;Node4 -->
<g id="edge30" class="edge">
<title>Node26&#45;&gt;Node4</title>
<path fill="none" stroke="midnightblue" d="M814.47,-91.01C811.85,-92.51 809.35,-94.17 807,-96 780.34,-116.78 792.02,-136.53 771,-163 752.66,-186.09 725.61,-207.62 709.5,-219.48"/>
<polygon fill="midnightblue" stroke="midnightblue" points="816.26,-94.03 823.72,-86.5 813.2,-87.74 816.26,-94.03"/>
</g>
<!-- Node27&#45;&gt;Node23 -->
<g id="edge32" class="edge">
<title>Node27&#45;&gt;Node23</title>
<path fill="none" stroke="midnightblue" d="M629.2,-97.62C611.47,-100.52 592.38,-103.65 575.05,-106.49"/>
<polygon fill="midnightblue" stroke="midnightblue" points="630.15,-101.01 639.45,-95.94 629.02,-94.1 630.15,-101.01"/>
</g>
<!-- Node29 -->
<g id="node29" class="node">
<title>Node29</title>
<g id="a_node29"><a xlink:href="event__handler_8c.html#a36acbf29023faf34e8f2d16f01cc44d3" target="_top" xlink:title="EH の対応条件をチェックする">
<polygon fill="white" stroke="black" points="1562.5,-161.5 1562.5,-180.5 1655.5,-180.5 1655.5,-161.5 1562.5,-161.5"/>
<text text-anchor="middle" x="1609" y="-168.5" font-family="Helvetica,sans-Serif" font-size="10.00">EH_check_rule_</text>
</a>
</g>
</g>
<!-- Node28&#45;&gt;Node29 -->
<g id="edge34" class="edge">
<title>Node28&#45;&gt;Node29</title>
<path fill="none" stroke="midnightblue" d="M1726.15,-171C1702.58,-171 1676.92,-171 1655.72,-171"/>
<polygon fill="midnightblue" stroke="midnightblue" points="1726.46,-174.5 1736.46,-171 1726.46,-167.5 1726.46,-174.5"/>
</g>
<!-- Node30 -->
<g id="node30" class="node">
<title>Node30</title>
<g id="a_node30"><a xlink:href="event__handler_8c.html#ac7461e79109f06783e2c620a6d999a6b" target="_top" xlink:title="EH の対応条件をチェックし， EL_Event に対応する">
<polygon fill="white" stroke="black" points="1345,-161.5 1345,-180.5 1506,-180.5 1506,-161.5 1345,-161.5"/>
<text text-anchor="middle" x="1425.5" y="-168.5" font-family="Helvetica,sans-Serif" font-size="10.00">EH_check_rule_and_respond_</text>
</a>
</g>
</g>
<!-- Node29&#45;&gt;Node30 -->
<g id="edge35" class="edge">
<title>Node29&#45;&gt;Node30</title>
<path fill="none" stroke="midnightblue" d="M1551.93,-171C1537.47,-171 1521.61,-171 1506.19,-171"/>
<polygon fill="midnightblue" stroke="midnightblue" points="1552.2,-174.5 1562.2,-171 1552.2,-167.5 1552.2,-174.5"/>
</g>
<!-- Node31 -->
<g id="node31" class="node">
<title>Node31</title>
<g id="a_node31"><a xlink:href="event__handler_8c.html#a227ed3b7079c58dee50a81ce408549a2" target="_top" xlink:title="EL_Event に対応する EH_Rule が存在するかチェックし，対応する">
<polygon fill="white" stroke="black" points="1189,-128 1189,-158 1309,-158 1309,-128 1189,-128"/>
<text text-anchor="start" x="1197" y="-146" font-family="Helvetica,sans-Serif" font-size="10.00">EH_check_event_and</text>
<text text-anchor="middle" x="1249" y="-135" font-family="Helvetica,sans-Serif" font-size="10.00">_respond_</text>
</a>
</g>
</g>
<!-- Node30&#45;&gt;Node31 -->
<g id="edge36" class="edge">
<title>Node30&#45;&gt;Node31</title>
<path fill="none" stroke="midnightblue" d="M1355.04,-159.86C1339.8,-157.41 1323.79,-154.84 1309,-152.47"/>
<polygon fill="midnightblue" stroke="midnightblue" points="1354.51,-163.31 1364.94,-161.44 1355.62,-156.4 1354.51,-163.31"/>
</g>
<!-- Node32 -->
<g id="node32" class="node">
<title>Node32</title>
<g id="a_node32"><a xlink:href="event__handler_8c.html#af084576db8b00a4c7e4b117314b128db" target="_top" xlink:title="上位の EH の対応条件をチェックし，対応する">
<polygon fill="white" stroke="black" points="1010,-170 1010,-200 1139,-200 1139,-170 1010,-170"/>
<text text-anchor="start" x="1018" y="-188" font-family="Helvetica,sans-Serif" font-size="10.00">EH_check_higher_level</text>
<text text-anchor="middle" x="1074.5" y="-177" font-family="Helvetica,sans-Serif" font-size="10.00">_rule_and_respond_</text>
</a>
</g>
</g>
<!-- Node31&#45;&gt;Node32 -->
<g id="edge37" class="edge">
<title>Node31&#45;&gt;Node32</title>
<path fill="none" stroke="midnightblue" d="M1178.78,-159.85C1165.07,-163.19 1150.77,-166.67 1137.32,-169.95"/>
<polygon fill="midnightblue" stroke="midnightblue" points="1179.75,-163.22 1188.64,-157.45 1178.09,-156.42 1179.75,-163.22"/>
</g>
<!-- Node33 -->
<g id="node33" class="node">
<title>Node33</title>
<g id="a_node33"><a xlink:href="event__handler_8h.html#a76ddd224739890733cbd318e2d5c015b" target="_top" xlink:title="event_handler の実行">
<polygon fill="white" stroke="black" points="1037.5,-131.5 1037.5,-150.5 1111.5,-150.5 1111.5,-131.5 1037.5,-131.5"/>
<text text-anchor="middle" x="1074.5" y="-138.5" font-family="Helvetica,sans-Serif" font-size="10.00">EH_execute</text>
</a>
</g>
</g>
<!-- Node31&#45;&gt;Node33 -->
<g id="edge39" class="edge">
<title>Node31&#45;&gt;Node33</title>
<path fill="none" stroke="midnightblue" d="M1178.57,-142.2C1155.6,-141.93 1130.98,-141.64 1111.56,-141.42"/>
<polygon fill="midnightblue" stroke="midnightblue" points="1178.6,-145.7 1188.64,-142.31 1178.68,-138.7 1178.6,-145.7"/>
</g>
<!-- Node32&#45;&gt;Node30 -->
<g id="edge38" class="edge">
<title>Node32&#45;&gt;Node30</title>
<path fill="none" stroke="midnightblue" d="M1149.16,-182.04C1206.53,-179.74 1286.04,-176.55 1344.87,-174.19"/>
<polygon fill="midnightblue" stroke="midnightblue" points="1148.93,-178.55 1139.08,-182.45 1149.21,-185.55 1148.93,-178.55"/>
</g>
<!-- Node34 -->
<g id="node34" class="node">
<title>Node34</title>
<g id="a_node34"><a xlink:href="event__utility_8h.html#a67f98486105b4baa865c8b30d346afa8" target="_top" xlink:title=" ">
<polygon fill="white" stroke="black" points="807,-181.5 807,-200.5 960,-200.5 960,-181.5 807,-181.5"/>
<text text-anchor="middle" x="883.5" y="-188.5" font-family="Helvetica,sans-Serif" font-size="10.00">Cmd_EVENT_UTIL_EXEC_EH</text>
</a>
</g>
</g>
<!-- Node33&#45;&gt;Node34 -->
<g id="edge40" class="edge">
<title>Node33&#45;&gt;Node34</title>
<path fill="none" stroke="midnightblue" d="M1027.66,-151.58C1017.21,-154.18 1006.19,-157.06 996,-160 979.8,-164.68 976.19,-167.27 960,-172 948.58,-175.33 936.09,-178.62 924.62,-181.5"/>
<polygon fill="midnightblue" stroke="midnightblue" points="1028.57,-154.96 1037.46,-149.19 1026.91,-148.16 1028.57,-154.96"/>
</g>
<!-- Node35 -->
<g id="node35" class="node">
<title>Node35</title>
<g id="a_node35"><a xlink:href="event__utility_8c.html#a548bb66aea76e09e9f801c10fad11b98" target="_top" xlink:title=" ">
<polygon fill="white" stroke="black" points="823.5,-143.5 823.5,-162.5 943.5,-162.5 943.5,-143.5 823.5,-143.5"/>
<text text-anchor="middle" x="883.5" y="-150.5" font-family="Helvetica,sans-Serif" font-size="10.00">EVENT_UTIL_update_</text>
</a>
</g>
</g>
<!-- Node33&#45;&gt;Node35 -->
<g id="edge42" class="edge">
<title>Node33&#45;&gt;Node35</title>
<path fill="none" stroke="midnightblue" d="M1027.02,-143.95C1001.82,-145.55 970.42,-147.54 943.51,-149.25"/>
<polygon fill="midnightblue" stroke="midnightblue" points="1027.3,-147.44 1037.06,-143.31 1026.86,-140.45 1027.3,-147.44"/>
</g>
<!-- Node34&#45;&gt;Node4 -->
<g id="edge41" class="edge">
<title>Node34&#45;&gt;Node4</title>
<path fill="none" stroke="midnightblue" d="M825.52,-202.61C799,-208.01 767.83,-214.36 742.72,-219.48"/>
<polygon fill="midnightblue" stroke="midnightblue" points="826.34,-206.02 835.44,-200.59 824.94,-199.16 826.34,-206.02"/>
</g>
<!-- Node36 -->
<g id="node36" class="node">
<title>Node36</title>
<g id="a_node36"><a xlink:href="event__utility_8h.html#aa819ee69e6cd34b9217e9627ee12f70c" target="_top" xlink:title=" ">
<polygon fill="white" stroke="black" points="627.5,-134.5 627.5,-153.5 762.5,-153.5 762.5,-134.5 627.5,-134.5"/>
<text text-anchor="middle" x="695" y="-141.5" font-family="Helvetica,sans-Serif" font-size="10.00">EVENT_UTIL_create_app</text>
</a>
</g>
</g>
<!-- Node35&#45;&gt;Node36 -->
<g id="edge43" class="edge">
<title>Node35&#45;&gt;Node36</title>
<path fill="none" stroke="midnightblue" d="M813.35,-149.66C796.8,-148.86 779.17,-148.01 762.74,-147.22"/>
<polygon fill="midnightblue" stroke="midnightblue" points="813.33,-153.17 823.49,-150.15 813.67,-146.17 813.33,-153.17"/>
</g>
<!-- Node36&#45;&gt;Node23 -->
<g id="edge44" class="edge">
<title>Node36&#45;&gt;Node23</title>
<path fill="none" stroke="midnightblue" d="M623.61,-132.86C608.23,-130.43 592.08,-127.88 577.15,-125.51"/>
<polygon fill="midnightblue" stroke="midnightblue" points="623.16,-136.34 633.58,-134.44 624.25,-129.42 623.16,-136.34"/>
</g>
</g>
</svg>
