<?xml version="1.0" encoding="UTF-8" standalone="no"?>
<!DOCTYPE svg PUBLIC "-//W3C//DTD SVG 1.1//EN"
 "http://www.w3.org/Graphics/SVG/1.1/DTD/svg11.dtd">
<!-- Generated by graphviz version 2.43.0 (0)
 -->
<!-- Title: OBCT_create Pages: 1 -->
<svg width="1052pt" height="819pt"
 viewBox="0.00 0.00 1052.00 819.18" xmlns="http://www.w3.org/2000/svg" xmlns:xlink="http://www.w3.org/1999/xlink">
<g id="graph0" class="graph" transform="scale(1 1) rotate(0) translate(4 815.18)">
<title>OBCT_create</title>
<polygon fill="white" stroke="transparent" points="-4,4 -4,-815.18 1048,-815.18 1048,4 -4,4"/>
<!-- Node1 -->
<g id="node1" class="node">
<title>Node1</title>
<g id="a_node1"><a xlink:title="引数から ObcTime を作成する">
<polygon fill="#bfbfbf" stroke="black" points="964,-271 964,-290 1044,-290 1044,-271 964,-271"/>
<text text-anchor="middle" x="1004" y="-278" font-family="Helvetica,sans-Serif" font-size="10.00">OBCT_create</text>
</a>
</g>
</g>
<!-- Node2 -->
<g id="node2" class="node">
<title>Node2</title>
<g id="a_node2"><a xlink:href="divided__cmd__utility_8c.html#af4f7313b1b0fb69acea42ae713497cc3" target="_top" xlink:title="ログクリア（１要素）">
<polygon fill="white" stroke="black" points="789,-701 789,-720 928,-720 928,-701 789,-701"/>
<text text-anchor="middle" x="858.5" y="-708" font-family="Helvetica,sans-Serif" font-size="10.00">DCU_clear_log_element_</text>
</a>
</g>
</g>
<!-- Node1&#45;&gt;Node2 -->
<g id="edge1" class="edge">
<title>Node1&#45;&gt;Node2</title>
<path fill="none" stroke="midnightblue" d="M996.52,-299.93C971.38,-375.24 880.89,-646.4 862.7,-700.91"/>
<polygon fill="midnightblue" stroke="midnightblue" points="999.89,-300.88 999.73,-290.29 993.25,-298.67 999.89,-300.88"/>
</g>
<!-- Node29 -->
<g id="node13" class="node">
<title>Node29</title>
<g id="a_node13"><a xlink:href="obc__time_8c.html#a02512f745375636ab21f468838587942" target="_top" xlink:title="ObcTime の引き算を行う">
<polygon fill="white" stroke="black" points="826,-173 826,-192 891,-192 891,-173 826,-173"/>
<text text-anchor="middle" x="858.5" y="-180" font-family="Helvetica,sans-Serif" font-size="10.00">OBCT_diff</text>
</a>
</g>
</g>
<!-- Node1&#45;&gt;Node29 -->
<g id="edge14" class="edge">
<title>Node1&#45;&gt;Node29</title>
<path fill="none" stroke="midnightblue" d="M980.47,-265.11C950.61,-244.72 898.78,-209.33 873.79,-192.26"/>
<polygon fill="midnightblue" stroke="midnightblue" points="978.75,-268.18 988.98,-270.92 982.7,-262.39 978.75,-268.18"/>
</g>
<!-- Node141 -->
<g id="node29" class="node">
<title>Node141</title>
<g id="a_node29"><a xlink:href="obc__time_8c.html#a5d49c8a8ccbdfee20ee8af350dc35c47" target="_top" xlink:title="ObcTime が取りうる最大値を返す">
<polygon fill="white" stroke="black" points="812.5,-111 812.5,-130 904.5,-130 904.5,-111 812.5,-111"/>
<text text-anchor="middle" x="858.5" y="-118" font-family="Helvetica,sans-Serif" font-size="10.00">OBCT_get_max</text>
</a>
</g>
</g>
<!-- Node1&#45;&gt;Node141 -->
<g id="edge30" class="edge">
<title>Node1&#45;&gt;Node141</title>
<path fill="none" stroke="midnightblue" d="M994.22,-261.66C982,-236.93 957.98,-193.2 928,-163.5 913.83,-149.47 894.31,-137.77 879.73,-130.14"/>
<polygon fill="midnightblue" stroke="midnightblue" points="991.08,-263.22 998.57,-270.71 997.39,-260.18 991.08,-263.22"/>
</g>
<!-- Node142 -->
<g id="node32" class="node">
<title>Node142</title>
<g id="a_node32"><a xlink:href="time__manager_8c.html#a9d04b4d9b622cbe5a90cf65e58b828bc" target="_top" xlink:title="現在の master_clock_ を取得する">
<polygon fill="white" stroke="black" points="611.5,-366 611.5,-385 748.5,-385 748.5,-366 611.5,-366"/>
<text text-anchor="middle" x="680" y="-373" font-family="Helvetica,sans-Serif" font-size="10.00">TMGR_get_master_clock</text>
</a>
</g>
</g>
<!-- Node1&#45;&gt;Node142 -->
<g id="edge33" class="edge">
<title>Node1&#45;&gt;Node142</title>
<path fill="none" stroke="midnightblue" d="M960.71,-292.98C895.52,-312.21 771.9,-348.68 713.33,-365.96"/>
<polygon fill="midnightblue" stroke="midnightblue" points="962.05,-296.23 970.65,-290.04 960.07,-289.52 962.05,-296.23"/>
</g>
<!-- Node3 -->
<g id="node3" class="node">
<title>Node3</title>
<g id="a_node3"><a xlink:href="divided__cmd__utility_8c.html#aaad403eb696499ec36e837376be62c2a" target="_top" xlink:title="DCUにチェックインする．分割コマンド実行時，最初に呼び出す関数．">
<polygon fill="white" stroke="black" points="251.5,-682 251.5,-701 337.5,-701 337.5,-682 251.5,-682"/>
<text text-anchor="middle" x="294.5" y="-689" font-family="Helvetica,sans-Serif" font-size="10.00">DCU_check_in</text>
</a>
</g>
</g>
<!-- Node2&#45;&gt;Node3 -->
<g id="edge2" class="edge">
<title>Node2&#45;&gt;Node3</title>
<path fill="none" stroke="midnightblue" d="M804.99,-699.05C788.44,-695.95 770.03,-693.04 753,-691.5 600.52,-677.75 418.3,-684.71 337.56,-688.98"/>
<polygon fill="midnightblue" stroke="midnightblue" points="804.55,-702.53 815.03,-700.99 805.87,-695.65 804.55,-702.53"/>
</g>
<!-- Node15 -->
<g id="node6" class="node">
<title>Node15</title>
<g id="a_node6"><a xlink:href="divided__cmd__utility_8c.html#a304022f60fcd7611c8465de4e58a5050" target="_top" xlink:title="ログクリア">
<polygon fill="white" stroke="black" points="633.5,-739 633.5,-758 726.5,-758 726.5,-739 633.5,-739"/>
<text text-anchor="middle" x="680" y="-746" font-family="Helvetica,sans-Serif" font-size="10.00">DCU_clear_log_</text>
</a>
</g>
</g>
<!-- Node2&#45;&gt;Node15 -->
<g id="edge5" class="edge">
<title>Node2&#45;&gt;Node15</title>
<path fill="none" stroke="midnightblue" d="M802.91,-722.25C777.96,-727.63 748.77,-733.91 725.22,-738.98"/>
<polygon fill="midnightblue" stroke="midnightblue" points="803.92,-725.62 812.96,-720.09 802.45,-718.77 803.92,-725.62"/>
</g>
<!-- Node20 -->
<g id="node9" class="node">
<title>Node20</title>
<g id="a_node9"><a xlink:href="divided__cmd__utility_8c.html#a9bfb4e0540d42e883eb88b7ea7e9a6f9" target="_top" xlink:title="先頭に該当コマンドのログをつくる">
<polygon fill="white" stroke="black" points="607,-701 607,-720 753,-720 753,-701 607,-701"/>
<text text-anchor="middle" x="680" y="-708" font-family="Helvetica,sans-Serif" font-size="10.00">DCU_create_log_on_front_</text>
</a>
</g>
</g>
<!-- Node2&#45;&gt;Node20 -->
<g id="edge8" class="edge">
<title>Node2&#45;&gt;Node20</title>
<path fill="none" stroke="midnightblue" d="M778.5,-710.5C770.03,-710.5 761.44,-710.5 753.05,-710.5"/>
<polygon fill="midnightblue" stroke="midnightblue" points="778.76,-714 788.76,-710.5 778.76,-707 778.76,-714"/>
</g>
<!-- Node24 -->
<g id="node11" class="node">
<title>Node24</title>
<g id="a_node11"><a xlink:href="divided__cmd__utility_8c.html#a964ce9f9bbbe021febcd12168eace3d0" target="_top" xlink:title="エラー，またはコマンドによって中断ステータスとなっているコマンドを，実行可能状態に戻す">
<polygon fill="white" stroke="black" points="232.5,-783 232.5,-802 356.5,-802 356.5,-783 232.5,-783"/>
<text text-anchor="middle" x="294.5" y="-790" font-family="Helvetica,sans-Serif" font-size="10.00">DCU_donw_abort_flag</text>
</a>
</g>
</g>
<!-- Node2&#45;&gt;Node24 -->
<g id="edge13" class="edge">
<title>Node2&#45;&gt;Node24</title>
<path fill="none" stroke="midnightblue" d="M834.62,-725.55C814.05,-738.44 782.6,-756.61 753,-767.5 611.55,-819.55 566.51,-813.6 416,-805.5 396.67,-804.46 375.67,-802.49 356.7,-800.39"/>
<polygon fill="midnightblue" stroke="midnightblue" points="836.71,-728.37 843.26,-720.04 832.95,-722.46 836.71,-728.37"/>
</g>
<!-- Node4 -->
<g id="node4" class="node">
<title>Node4</title>
<g id="a_node4"><a xlink:href="telemetry__manager_8c.html#acca57742230ccff6063cf0663e803a5f" target="_top" xlink:title="初期化">
<polygon fill="white" stroke="red" points="27.5,-682 27.5,-701 145.5,-701 145.5,-682 27.5,-682"/>
<text text-anchor="middle" x="86.5" y="-689" font-family="Helvetica,sans-Serif" font-size="10.00">Cmd_TLM_MGR_INIT</text>
</a>
</g>
</g>
<!-- Node3&#45;&gt;Node4 -->
<g id="edge3" class="edge">
<title>Node3&#45;&gt;Node4</title>
<path fill="none" stroke="midnightblue" d="M240.94,-691.5C211.83,-691.5 175.59,-691.5 145.64,-691.5"/>
<polygon fill="midnightblue" stroke="midnightblue" points="241.32,-695 251.32,-691.5 241.32,-688 241.32,-695"/>
</g>
<!-- Node11 -->
<g id="node5" class="node">
<title>Node11</title>
<g id="a_node5"><a xlink:href="telemetry__manager_8c.html#aaf5dd0d1f8e7bb8997d45a33fb970c0f" target="_top" xlink:title="TLM_MGR_BC_ROLE に応じて TLM_MGR_CmdTable から 1 BC の 1 block から全 cmd を消す (NPO 埋めする)">
<polygon fill="white" stroke="red" points="23.5,-720.5 23.5,-750.5 149.5,-750.5 149.5,-720.5 23.5,-720.5"/>
<text text-anchor="start" x="31.5" y="-738.5" font-family="Helvetica,sans-Serif" font-size="10.00">TLM_MGR_clear_cmds</text>
<text text-anchor="middle" x="86.5" y="-727.5" font-family="Helvetica,sans-Serif" font-size="10.00">_based_on_role_</text>
</a>
</g>
</g>
<!-- Node3&#45;&gt;Node11 -->
<g id="edge4" class="edge">
<title>Node3&#45;&gt;Node11</title>
<path fill="none" stroke="midnightblue" d="M241.35,-702.64C213.43,-708.6 178.86,-715.99 149.57,-722.24"/>
<polygon fill="midnightblue" stroke="midnightblue" points="242.27,-706.02 251.32,-700.51 240.81,-699.18 242.27,-706.02"/>
</g>
<!-- Node16 -->
<g id="node7" class="node">
<title>Node16</title>
<g id="a_node7"><a xlink:href="divided__cmd__utility_8c.html#a4c59284331cb302bcdfd47d8270c30e8" target="_top" xlink:title="ログをクリアする">
<polygon fill="white" stroke="red" points="429.5,-739 429.5,-758 557.5,-758 557.5,-739 429.5,-739"/>
<text text-anchor="middle" x="493.5" y="-746" font-family="Helvetica,sans-Serif" font-size="10.00">Cmd_DCU_CLEAR_LOG</text>
</a>
</g>
</g>
<!-- Node15&#45;&gt;Node16 -->
<g id="edge6" class="edge">
<title>Node15&#45;&gt;Node16</title>
<path fill="none" stroke="midnightblue" d="M623.19,-748.5C602.53,-748.5 578.95,-748.5 557.68,-748.5"/>
<polygon fill="midnightblue" stroke="midnightblue" points="623.39,-752 633.39,-748.5 623.39,-745 623.39,-752"/>
</g>
<!-- Node17 -->
<g id="node8" class="node">
<title>Node17</title>
<g id="a_node8"><a xlink:href="divided__cmd__utility_8c.html#af8cb37ab0d8118c5c928c15fdbd09d69" target="_top" xlink:title="App初期化関数">
<polygon fill="white" stroke="red" points="461,-777 461,-796 526,-796 526,-777 461,-777"/>
<text text-anchor="middle" x="493.5" y="-784" font-family="Helvetica,sans-Serif" font-size="10.00">DCU_init_</text>
</a>
</g>
</g>
<!-- Node15&#45;&gt;Node17 -->
<g id="edge7" class="edge">
<title>Node15&#45;&gt;Node17</title>
<path fill="none" stroke="midnightblue" d="M623.35,-759.96C591.59,-766.5 552.92,-774.47 526.28,-779.95"/>
<polygon fill="midnightblue" stroke="midnightblue" points="624.3,-763.34 633.39,-757.89 622.89,-756.48 624.3,-763.34"/>
</g>
<!-- Node21 -->
<g id="node10" class="node">
<title>Node21</title>
<g id="a_node10"><a xlink:href="divided__cmd__utility_8c.html#a2fed1ffbed2edbe0c08102c071f2edcf" target="_top" xlink:title="該当コマンドのログを，ログの先頭に出す">
<polygon fill="white" stroke="red" points="416,-701 416,-720 571,-720 571,-701 416,-701"/>
<text text-anchor="middle" x="493.5" y="-708" font-family="Helvetica,sans-Serif" font-size="10.00">DCU_move_to_front_in_log_</text>
</a>
</g>
</g>
<!-- Node20&#45;&gt;Node21 -->
<g id="edge9" class="edge">
<title>Node20&#45;&gt;Node21</title>
<path fill="none" stroke="midnightblue" d="M596.61,-710.5C588.14,-710.5 579.55,-710.5 571.14,-710.5"/>
<polygon fill="midnightblue" stroke="midnightblue" points="596.87,-714 606.87,-710.5 596.87,-707 596.87,-714"/>
</g>
<!-- Node21&#45;&gt;Node3 -->
<g id="edge10" class="edge">
<title>Node21&#45;&gt;Node3</title>
<path fill="none" stroke="midnightblue" d="M405.72,-702.13C382.09,-699.85 357.55,-697.48 337.64,-695.56"/>
<polygon fill="midnightblue" stroke="midnightblue" points="405.48,-705.62 415.77,-703.1 406.15,-698.66 405.48,-705.62"/>
</g>
<!-- Node21&#45;&gt;Node24 -->
<g id="edge11" class="edge">
<title>Node21&#45;&gt;Node24</title>
<path fill="none" stroke="midnightblue" d="M436.2,-722.85C429.32,-724.83 422.45,-727.05 416,-729.5 376.49,-744.49 333.32,-769.32 310.92,-782.9"/>
<polygon fill="midnightblue" stroke="midnightblue" points="437.52,-726.12 446.24,-720.1 435.67,-719.36 437.52,-726.12"/>
</g>
<!-- Node25 -->
<g id="node12" class="node">
<title>Node25</title>
<g id="a_node12"><a xlink:href="divided__cmd__utility_8c.html#adb6f8362412118427e4b58464550a741" target="_top" xlink:title="エラー，またはコマンドによって中断ステータスとなっているコマンドを，実行可能状態に戻す">
<polygon fill="white" stroke="red" points="0,-783 0,-802 173,-802 173,-783 0,-783"/>
<text text-anchor="middle" x="86.5" y="-790" font-family="Helvetica,sans-Serif" font-size="10.00">Cmd_DCU_DOWN_ABORT_FLAG</text>
</a>
</g>
</g>
<!-- Node24&#45;&gt;Node25 -->
<g id="edge12" class="edge">
<title>Node24&#45;&gt;Node25</title>
<path fill="none" stroke="midnightblue" d="M222.09,-792.5C206.35,-792.5 189.53,-792.5 173.29,-792.5"/>
<polygon fill="midnightblue" stroke="midnightblue" points="222.25,-796 232.25,-792.5 222.25,-789 222.25,-796"/>
</g>
<!-- Node30 -->
<g id="node14" class="node">
<title>Node30</title>
<g id="a_node14"><a xlink:href="event__logger_8c.html#a69fb9dbc85ad467d048f1c9f31d2442c" target="_top" xlink:title="イベント (EL_Event) を CLog に記録">
<polygon fill="white" stroke="black" points="624,-199.5 624,-229.5 736,-229.5 736,-199.5 624,-199.5"/>
<text text-anchor="start" x="632" y="-217.5" font-family="Helvetica,sans-Serif" font-size="10.00">EL_record_event_to</text>
<text text-anchor="middle" x="680" y="-206.5" font-family="Helvetica,sans-Serif" font-size="10.00">_clog_</text>
</a>
</g>
</g>
<!-- Node29&#45;&gt;Node30 -->
<g id="edge15" class="edge">
<title>Node29&#45;&gt;Node30</title>
<path fill="none" stroke="midnightblue" d="M815.84,-190.05C792.05,-194.37 761.93,-199.83 736.19,-204.49"/>
<polygon fill="midnightblue" stroke="midnightblue" points="816.73,-193.45 825.95,-188.22 815.48,-186.56 816.73,-193.45"/>
</g>
<!-- Node123 -->
<g id="node16" class="node">
<title>Node123</title>
<g id="a_node16"><a xlink:href="obc__time_8c.html#a726e416698ccbad0b6ecced8ca02d2a4" target="_top" xlink:title="ObcTime の引き算を秒単位で行う">
<polygon fill="white" stroke="black" points="629.5,-104 629.5,-123 730.5,-123 730.5,-104 629.5,-104"/>
<text text-anchor="middle" x="680" y="-111" font-family="Helvetica,sans-Serif" font-size="10.00">OBCT_diff_in_sec</text>
</a>
</g>
</g>
<!-- Node29&#45;&gt;Node123 -->
<g id="edge17" class="edge">
<title>Node29&#45;&gt;Node123</title>
<path fill="none" stroke="midnightblue" d="M831.33,-168.28C810.55,-157.4 780.5,-142.61 753,-132.5 743.29,-128.93 732.62,-125.74 722.54,-123.04"/>
<polygon fill="midnightblue" stroke="midnightblue" points="829.71,-171.38 840.19,-172.97 832.99,-165.2 829.71,-171.38"/>
</g>
<!-- Node124 -->
<g id="node17" class="node">
<title>Node124</title>
<g id="a_node17"><a xlink:href="obc__time_8c.html#a3adce1b790eb67e1eff3cb1e79fc197f" target="_top" xlink:title="ObcTime の引き算を step 単位で行う">
<polygon fill="white" stroke="black" points="627.5,-142 627.5,-161 732.5,-161 732.5,-142 627.5,-142"/>
<text text-anchor="middle" x="680" y="-149" font-family="Helvetica,sans-Serif" font-size="10.00">OBCT_diff_in_step</text>
</a>
</g>
</g>
<!-- Node29&#45;&gt;Node124 -->
<g id="edge18" class="edge">
<title>Node29&#45;&gt;Node124</title>
<path fill="none" stroke="midnightblue" d="M816.08,-175.23C791.17,-170.85 759.25,-165.24 732.69,-160.58"/>
<polygon fill="midnightblue" stroke="midnightblue" points="815.49,-178.68 825.95,-176.96 816.7,-171.78 815.49,-178.68"/>
</g>
<!-- Node31 -->
<g id="node15" class="node">
<title>Node31</title>
<g id="a_node15"><a xlink:href="event__logger_8c.html#a80a1b60c587d1e3402b02e3bde1db899" target="_top" xlink:title="イベント (EL_Event) を記録">
<polygon fill="white" stroke="red" points="243.5,-214 243.5,-233 345.5,-233 345.5,-214 243.5,-214"/>
<text text-anchor="middle" x="294.5" y="-221" font-family="Helvetica,sans-Serif" font-size="10.00">EL_record_event_</text>
</a>
</g>
</g>
<!-- Node30&#45;&gt;Node31 -->
<g id="edge16" class="edge">
<title>Node30&#45;&gt;Node31</title>
<path fill="none" stroke="midnightblue" d="M613.26,-216.04C537.37,-217.82 414.22,-220.71 345.65,-222.32"/>
<polygon fill="midnightblue" stroke="midnightblue" points="613.73,-219.53 623.65,-215.8 613.57,-212.53 613.73,-219.53"/>
</g>
<!-- Node36 -->
<g id="node18" class="node">
<title>Node36</title>
<g id="a_node18"><a xlink:href="app__manager_8c.html#ac8eb56aeb5e572d9d1215cead52a9ab5" target="_top" xlink:title=" ">
<polygon fill="white" stroke="black" points="441.5,-176 441.5,-195 545.5,-195 545.5,-176 441.5,-176"/>
<text text-anchor="middle" x="493.5" y="-183" font-family="Helvetica,sans-Serif" font-size="10.00">AM_execute_app_</text>
</a>
</g>
</g>
<!-- Node124&#45;&gt;Node36 -->
<g id="edge19" class="edge">
<title>Node124&#45;&gt;Node36</title>
<path fill="none" stroke="midnightblue" d="M617.03,-162.92C593.84,-167.19 567.78,-172 545.68,-176.07"/>
<polygon fill="midnightblue" stroke="midnightblue" points="617.92,-166.32 627.12,-161.06 616.65,-159.43 617.92,-166.32"/>
</g>
<!-- Node38 -->
<g id="node20" class="node">
<title>Node38</title>
<g id="a_node20"><a xlink:href="app__manager_8c.html#a26a59b0004c449cd7610ce8ef8de4b0c" target="_top" xlink:title=" ">
<polygon fill="white" stroke="red" points="439.5,-50 439.5,-69 547.5,-69 547.5,-50 439.5,-50"/>
<text text-anchor="middle" x="493.5" y="-57" font-family="Helvetica,sans-Serif" font-size="10.00">AM_initialize_app_</text>
</a>
</g>
</g>
<!-- Node124&#45;&gt;Node38 -->
<g id="edge21" class="edge">
<title>Node124&#45;&gt;Node38</title>
<path fill="none" stroke="midnightblue" d="M618.05,-138.95C614.16,-137.09 610.43,-134.95 607,-132.5 583.53,-115.73 594.59,-95.1 571,-78.5 564.06,-73.62 556,-69.99 547.76,-67.29"/>
<polygon fill="midnightblue" stroke="midnightblue" points="616.78,-142.21 627.36,-142.81 619.46,-135.75 616.78,-142.21"/>
</g>
<!-- Node50 -->
<g id="node21" class="node">
<title>Node50</title>
<g id="a_node21"><a xlink:href="block__command__executor_8c.html#ac58bdb2e659454871477f4250903f51d" target="_top" xlink:title="BC をまとめて一括で実行する">
<polygon fill="white" stroke="black" points="426.5,-126.5 426.5,-156.5 560.5,-156.5 560.5,-126.5 426.5,-126.5"/>
<text text-anchor="start" x="434.5" y="-144.5" font-family="Helvetica,sans-Serif" font-size="10.00">BCE_timelimit_combine</text>
<text text-anchor="middle" x="493.5" y="-133.5" font-family="Helvetica,sans-Serif" font-size="10.00">_block_cmd_</text>
</a>
</g>
</g>
<!-- Node124&#45;&gt;Node50 -->
<g id="edge22" class="edge">
<title>Node124&#45;&gt;Node50</title>
<path fill="none" stroke="midnightblue" d="M617,-148.14C598.94,-147.16 579.15,-146.09 560.83,-145.1"/>
<polygon fill="midnightblue" stroke="midnightblue" points="616.94,-151.64 627.12,-148.69 617.32,-144.65 616.94,-151.64"/>
</g>
<!-- Node125 -->
<g id="node23" class="node">
<title>Node125</title>
<g id="a_node23"><a xlink:href="obc__time_8c.html#a51f2c2c48be7ec8985ec47f36bef1335" target="_top" xlink:title="ObcTime の引き算をミリ秒単位で行う">
<polygon fill="white" stroke="red" points="438.5,-88 438.5,-107 548.5,-107 548.5,-88 438.5,-88"/>
<text text-anchor="middle" x="493.5" y="-95" font-family="Helvetica,sans-Serif" font-size="10.00">OBCT_diff_in_msec</text>
</a>
</g>
</g>
<!-- Node124&#45;&gt;Node125 -->
<g id="edge24" class="edge">
<title>Node124&#45;&gt;Node125</title>
<path fill="none" stroke="midnightblue" d="M628.48,-139.27C621.21,-137.19 613.88,-134.92 607,-132.5 590.48,-126.69 587.56,-122.19 571,-116.5 560.65,-112.94 549.29,-109.75 538.58,-107.05"/>
<polygon fill="midnightblue" stroke="midnightblue" points="627.72,-142.69 638.29,-141.97 629.58,-135.94 627.72,-142.69"/>
</g>
<!-- Node37 -->
<g id="node19" class="node">
<title>Node37</title>
<g id="a_node19"><a xlink:href="app__manager_8c.html#a472462691155b9a695bb66a21a0b2145" target="_top" xlink:title=" ">
<polygon fill="white" stroke="red" points="227.5,-176 227.5,-195 361.5,-195 361.5,-176 227.5,-176"/>
<text text-anchor="middle" x="294.5" y="-183" font-family="Helvetica,sans-Serif" font-size="10.00">Cmd_AM_EXECUTE_APP</text>
</a>
</g>
</g>
<!-- Node36&#45;&gt;Node37 -->
<g id="edge20" class="edge">
<title>Node36&#45;&gt;Node37</title>
<path fill="none" stroke="midnightblue" d="M431.03,-185.5C409.02,-185.5 384.12,-185.5 361.72,-185.5"/>
<polygon fill="midnightblue" stroke="midnightblue" points="431.25,-189 441.25,-185.5 431.25,-182 431.25,-189"/>
</g>
<!-- Node51 -->
<g id="node22" class="node">
<title>Node51</title>
<g id="a_node22"><a xlink:href="block__command__executor_8c.html#aaf3687244959da89ab0bc25a86cff912" target="_top" xlink:title=" ">
<polygon fill="white" stroke="red" points="209,-126.5 209,-156.5 380,-156.5 380,-126.5 209,-126.5"/>
<text text-anchor="start" x="217" y="-144.5" font-family="Helvetica,sans-Serif" font-size="10.00">Cmd_BCE_TIMELIMIT_COMBINE</text>
<text text-anchor="middle" x="294.5" y="-133.5" font-family="Helvetica,sans-Serif" font-size="10.00">_BLOCK</text>
</a>
</g>
</g>
<!-- Node50&#45;&gt;Node51 -->
<g id="edge23" class="edge">
<title>Node50&#45;&gt;Node51</title>
<path fill="none" stroke="midnightblue" d="M416.1,-141.5C404.27,-141.5 392,-141.5 380.01,-141.5"/>
<polygon fill="midnightblue" stroke="midnightblue" points="416.35,-145 426.35,-141.5 416.35,-138 416.35,-145"/>
</g>
<!-- Node126 -->
<g id="node24" class="node">
<title>Node126</title>
<g id="a_node24"><a xlink:href="driver__super_8c.html#acadaccbff239185ebda242d39d4942bd" target="_top" xlink:title="継承先の機器からテレメトリを受信する">
<polygon fill="white" stroke="black" points="259,-88 259,-107 330,-107 330,-88 259,-88"/>
<text text-anchor="middle" x="294.5" y="-95" font-family="Helvetica,sans-Serif" font-size="10.00">DS_receive</text>
</a>
</g>
</g>
<!-- Node125&#45;&gt;Node126 -->
<g id="edge25" class="edge">
<title>Node125&#45;&gt;Node126</title>
<path fill="none" stroke="midnightblue" d="M428.06,-97.5C395.49,-97.5 357.26,-97.5 330.24,-97.5"/>
<polygon fill="midnightblue" stroke="midnightblue" points="428.41,-101 438.41,-97.5 428.41,-94 428.41,-101"/>
</g>
<!-- Node127 -->
<g id="node25" class="node">
<title>Node127</title>
<g id="a_node25"><a xlink:href="aobc_8c.html#a96bd416cc06f354cc0886712d02687be" target="_top" xlink:title="AOBC のデータ（テレメ）受信">
<polygon fill="white" stroke="red" points="54,-50 54,-69 119,-69 119,-50 54,-50"/>
<text text-anchor="middle" x="86.5" y="-57" font-family="Helvetica,sans-Serif" font-size="10.00">AOBC_rec</text>
</a>
</g>
</g>
<!-- Node126&#45;&gt;Node127 -->
<g id="edge26" class="edge">
<title>Node126&#45;&gt;Node127</title>
<path fill="none" stroke="midnightblue" d="M248.5,-89.2C209.42,-81.99 153.81,-71.73 119.23,-65.35"/>
<polygon fill="midnightblue" stroke="midnightblue" points="248.09,-92.68 258.55,-91.05 249.36,-85.8 248.09,-92.68"/>
</g>
<!-- Node130 -->
<g id="node26" class="node">
<title>Node130</title>
<g id="a_node26"><a xlink:href="gs_8c.html#a56f8d1a93700e975b1233b271d82b618" target="_top" xlink:title="地上から CMD を受信する. 形式は TC Transer Frame">
<polygon fill="white" stroke="red" points="50.5,-126 50.5,-145 122.5,-145 122.5,-126 50.5,-126"/>
<text text-anchor="middle" x="86.5" y="-133" font-family="Helvetica,sans-Serif" font-size="10.00">GS_rec_tctf</text>
</a>
</g>
</g>
<!-- Node126&#45;&gt;Node130 -->
<g id="edge27" class="edge">
<title>Node126&#45;&gt;Node130</title>
<path fill="none" stroke="midnightblue" d="M248.32,-105.83C210.51,-112.81 157.3,-122.62 122.62,-129.02"/>
<polygon fill="midnightblue" stroke="midnightblue" points="249.36,-109.2 258.55,-103.95 248.09,-102.32 249.36,-109.2"/>
</g>
<!-- Node133 -->
<g id="node27" class="node">
<title>Node133</title>
<g id="a_node27"><a xlink:href="i2c__common_8c.html#abfb106dad3e37cab3af6e335af639c84" target="_top" xlink:title="I2C_Config 構造体にて指定されたデバイスのレジスタへ読み込む">
<polygon fill="white" stroke="red" points="38,-309 38,-328 135,-328 135,-309 38,-309"/>
<text text-anchor="middle" x="86.5" y="-316" font-family="Helvetica,sans-Serif" font-size="10.00">I2C_read_bytes_</text>
</a>
</g>
</g>
<!-- Node126&#45;&gt;Node133 -->
<g id="edge28" class="edge">
<title>Node126&#45;&gt;Node133</title>
<path fill="none" stroke="midnightblue" d="M248.59,-100.76C234.91,-103.47 220.46,-108.22 209,-116.5 172.58,-142.79 109.29,-272.5 91.98,-308.96"/>
<polygon fill="midnightblue" stroke="midnightblue" points="249.56,-104.14 258.85,-99.06 248.41,-97.24 249.56,-104.14"/>
</g>
<!-- Node136 -->
<g id="node28" class="node">
<title>Node136</title>
<g id="a_node28"><a xlink:href="uart__test_8c.html#aae80d6a9c8ea1fe1d1479bd6b7fce3b6" target="_top" xlink:title="UART_TESTのデータ（テレメ）受信">
<polygon fill="white" stroke="red" points="40.5,-88 40.5,-107 132.5,-107 132.5,-88 40.5,-88"/>
<text text-anchor="middle" x="86.5" y="-95" font-family="Helvetica,sans-Serif" font-size="10.00">UART_TEST_rec</text>
</a>
</g>
</g>
<!-- Node126&#45;&gt;Node136 -->
<g id="edge29" class="edge">
<title>Node126&#45;&gt;Node136</title>
<path fill="none" stroke="midnightblue" d="M248.34,-97.5C214.03,-97.5 167.05,-97.5 132.73,-97.5"/>
<polygon fill="midnightblue" stroke="midnightblue" points="248.55,-101 258.55,-97.5 248.55,-94 248.55,-101"/>
</g>
<!-- Node117 -->
<g id="node30" class="node">
<title>Node117</title>
<g id="a_node30"><a xlink:href="event__handler_8c.html#a9e1add42ee2e4353c89ab65a8a9cf1d2" target="_top" xlink:title="まだ処理していない最も古い EL_Event (EL_ERROR_LEVEL_EH を除く) を返す">
<polygon fill="white" stroke="black" points="620.5,-6 620.5,-47 739.5,-47 739.5,-6 620.5,-6"/>
<text text-anchor="start" x="628.5" y="-35" font-family="Helvetica,sans-Serif" font-size="10.00">EH_get_oldest_event</text>
<text text-anchor="start" x="628.5" y="-24" font-family="Helvetica,sans-Serif" font-size="10.00">_excluding_eh_error</text>
<text text-anchor="middle" x="680" y="-13" font-family="Helvetica,sans-Serif" font-size="10.00">_level_</text>
</a>
</g>
</g>
<!-- Node141&#45;&gt;Node117 -->
<g id="edge31" class="edge">
<title>Node141&#45;&gt;Node117</title>
<path fill="none" stroke="midnightblue" d="M830.69,-106.22C801.13,-90.48 753.32,-65.02 719.7,-47.11"/>
<polygon fill="midnightblue" stroke="midnightblue" points="829.13,-109.36 839.6,-110.97 832.42,-103.18 829.13,-109.36"/>
</g>
<!-- Node118 -->
<g id="node31" class="node">
<title>Node118</title>
<g id="a_node31"><a xlink:href="event__handler_8c.html#a72998c8b7483b567b31589c801650114" target="_top" xlink:title="EH_Rule が存在するかチェックするための次の EL_Event (EL_ERROR_LEVEL_EH を除く) を返す">
<polygon fill="white" stroke="red" points="427,-0.5 427,-30.5 560,-30.5 560,-0.5 427,-0.5"/>
<text text-anchor="start" x="435" y="-18.5" font-family="Helvetica,sans-Serif" font-size="10.00">EH_get_event_to_check</text>
<text text-anchor="middle" x="493.5" y="-7.5" font-family="Helvetica,sans-Serif" font-size="10.00">_rule_</text>
</a>
</g>
</g>
<!-- Node117&#45;&gt;Node118 -->
<g id="edge32" class="edge">
<title>Node117&#45;&gt;Node118</title>
<path fill="none" stroke="midnightblue" d="M610.29,-22.4C593.84,-21.42 576.33,-20.38 560.03,-19.41"/>
<polygon fill="midnightblue" stroke="midnightblue" points="610.18,-25.9 620.37,-23 610.6,-18.92 610.18,-25.9"/>
</g>
<!-- Node142&#45;&gt;Node3 -->
<g id="edge42" class="edge">
<title>Node142&#45;&gt;Node3</title>
<path fill="none" stroke="midnightblue" d="M675.95,-395.08C667.76,-440.84 641,-555.42 571,-615.5 516.75,-662.06 483.84,-635.96 416,-658.5 399.71,-663.91 396.42,-667.49 380,-672.5 366.34,-676.67 351.18,-680.36 337.51,-683.35"/>
<polygon fill="midnightblue" stroke="midnightblue" points="679.43,-395.45 677.64,-385.01 672.53,-394.29 679.43,-395.45"/>
</g>
<!-- Node142&#45;&gt;Node36 -->
<g id="edge34" class="edge">
<title>Node142&#45;&gt;Node36</title>
<path fill="none" stroke="midnightblue" d="M665.91,-357.96C646.5,-332.43 608.33,-284.1 571,-247.5 550.37,-227.27 523.64,-206.73 507.85,-195.11"/>
<polygon fill="midnightblue" stroke="midnightblue" points="663.15,-360.11 671.97,-365.98 668.74,-355.89 663.15,-360.11"/>
</g>
<!-- Node142&#45;&gt;Node50 -->
<g id="edge35" class="edge">
<title>Node142&#45;&gt;Node50</title>
<path fill="none" stroke="midnightblue" d="M669.15,-357.05C655.17,-330.8 628.85,-281.11 607,-238.5 590.68,-206.66 598.1,-189.86 571,-166.5 566.56,-162.67 561.51,-159.42 556.18,-156.67"/>
<polygon fill="midnightblue" stroke="midnightblue" points="666.08,-358.72 673.87,-365.9 672.25,-355.43 666.08,-358.72"/>
</g>
<!-- Node142&#45;&gt;Node126 -->
<g id="edge43" class="edge">
<title>Node142&#45;&gt;Node126</title>
<path fill="none" stroke="midnightblue" d="M662.71,-358.66C642.51,-338.38 606.39,-304.12 571,-280.5 507.19,-237.9 468.39,-260.55 416,-204.5 387.15,-173.63 412.27,-143.78 380,-116.5 366.22,-104.85 346.79,-99.95 330.04,-98.03"/>
<polygon fill="midnightblue" stroke="midnightblue" points="660.37,-361.26 669.88,-365.93 665.36,-356.35 660.37,-361.26"/>
</g>
<!-- Node71 -->
<g id="node33" class="node">
<title>Node71</title>
<g id="a_node33"><a xlink:href="command__dispatcher_8c.html#a90617acff33923f51c212b8e3034712c" target="_top" xlink:title="CDIS に登録されているコマンドキューからコマンドを実行">
<polygon fill="white" stroke="black" points="423.5,-404 423.5,-423 563.5,-423 563.5,-404 423.5,-404"/>
<text text-anchor="middle" x="493.5" y="-411" font-family="Helvetica,sans-Serif" font-size="10.00">CDIS_dispatch_command</text>
</a>
</g>
</g>
<!-- Node142&#45;&gt;Node71 -->
<g id="edge36" class="edge">
<title>Node142&#45;&gt;Node71</title>
<path fill="none" stroke="midnightblue" d="M622.63,-387.11C596.39,-392.51 565.56,-398.86 540.72,-403.98"/>
<polygon fill="midnightblue" stroke="midnightblue" points="623.35,-390.53 632.44,-385.09 621.94,-383.68 623.35,-390.53"/>
</g>
<!-- Node143 -->
<g id="node39" class="node">
<title>Node143</title>
<g id="a_node39"><a xlink:href="driver__super_8c.html#a7f4bb1ea81bf8d3a89752a0fc875afce" target="_top" xlink:title="DriverSuper のリセット">
<polygon fill="white" stroke="black" points="264.5,-644 264.5,-663 324.5,-663 324.5,-644 264.5,-644"/>
<text text-anchor="middle" x="294.5" y="-651" font-family="Helvetica,sans-Serif" font-size="10.00">DS_reset</text>
</a>
</g>
</g>
<!-- Node142&#45;&gt;Node143 -->
<g id="edge44" class="edge">
<title>Node142&#45;&gt;Node143</title>
<path fill="none" stroke="midnightblue" d="M671.99,-394.47C658.21,-428.98 624.27,-501.92 571,-539.5 513.04,-580.39 473.56,-536.06 416,-577.5 391.68,-595.01 404.48,-617.23 380,-634.5 363.9,-645.85 342.15,-650.56 324.75,-652.45"/>
<polygon fill="midnightblue" stroke="midnightblue" points="675.28,-395.67 675.61,-385.08 668.74,-393.15 675.28,-395.67"/>
</g>
<!-- Node155 -->
<g id="node41" class="node">
<title>Node155</title>
<g id="a_node41"><a xlink:href="driver__super_8c.html#a8f518ac0c2785b0b5b3de8d226dc91b6" target="_top" xlink:title="DS_StreamConfig 構造体の初期化">
<polygon fill="white" stroke="black" points="423.5,-587 423.5,-606 563.5,-606 563.5,-587 423.5,-587"/>
<text text-anchor="middle" x="493.5" y="-594" font-family="Helvetica,sans-Serif" font-size="10.00">DS_reset_stream_config_</text>
</a>
</g>
</g>
<!-- Node142&#45;&gt;Node155 -->
<g id="edge46" class="edge">
<title>Node142&#45;&gt;Node155</title>
<path fill="none" stroke="midnightblue" d="M673.66,-395.14C661.89,-434.66 630,-524.13 571,-572.5 563.25,-578.85 553.81,-583.53 544.24,-586.97"/>
<polygon fill="midnightblue" stroke="midnightblue" points="677.06,-395.97 676.45,-385.39 670.33,-394.05 677.06,-395.97"/>
</g>
<!-- Node156 -->
<g id="node42" class="node">
<title>Node156</title>
<g id="a_node42"><a xlink:href="driver__super_8c.html#aeba5ba2ebea1719d8bae74c274b0adfa" target="_top" xlink:title="継承先の機器に一般コマンドを発行する">
<polygon fill="white" stroke="black" points="430,-511 430,-530 557,-530 557,-511 430,-511"/>
<text text-anchor="middle" x="493.5" y="-518" font-family="Helvetica,sans-Serif" font-size="10.00">DS_send_general_cmd</text>
</a>
</g>
</g>
<!-- Node142&#45;&gt;Node156 -->
<g id="edge48" class="edge">
<title>Node142&#45;&gt;Node156</title>
<path fill="none" stroke="midnightblue" d="M664.58,-392.91C645.11,-415.64 608.5,-455.68 571,-482.5 554.72,-494.15 534.33,-504.08 518.7,-510.86"/>
<polygon fill="midnightblue" stroke="midnightblue" points="667.39,-395.01 671.17,-385.11 662.05,-390.49 667.39,-395.01"/>
</g>
<!-- Node170 -->
<g id="node47" class="node">
<title>Node170</title>
<g id="a_node47"><a xlink:href="driver__super_8c.html#af380ebeb56493a0680e2e4c50e74b979" target="_top" xlink:title="継承先の機器にテレメ要求コマンドを発行する">
<polygon fill="white" stroke="black" points="429.5,-454 429.5,-473 557.5,-473 557.5,-454 429.5,-454"/>
<text text-anchor="middle" x="493.5" y="-461" font-family="Helvetica,sans-Serif" font-size="10.00">DS_send_req_tlm_cmd</text>
</a>
</g>
</g>
<!-- Node142&#45;&gt;Node170 -->
<g id="edge53" class="edge">
<title>Node142&#45;&gt;Node170</title>
<path fill="none" stroke="midnightblue" d="M653.16,-390.08C631.51,-402.06 599.64,-419.18 571,-432.5 554.24,-440.3 534.94,-448.11 519.93,-453.94"/>
<polygon fill="midnightblue" stroke="midnightblue" points="655.03,-393.05 662.06,-385.12 651.62,-386.93 655.03,-393.05"/>
</g>
<!-- Node171 -->
<g id="node48" class="node">
<title>Node171</title>
<g id="a_node48"><a xlink:href="event__logger_8c.html#a0b42c2f5d1eafdad83481ec6e63365e2" target="_top" xlink:title="イベント (EL_Event) を初期化">
<polygon fill="white" stroke="black" points="450,-366 450,-385 537,-385 537,-366 450,-366"/>
<text text-anchor="middle" x="493.5" y="-373" font-family="Helvetica,sans-Serif" font-size="10.00">EL_init_event_</text>
</a>
</g>
</g>
<!-- Node142&#45;&gt;Node171 -->
<g id="edge56" class="edge">
<title>Node142&#45;&gt;Node171</title>
<path fill="none" stroke="midnightblue" d="M601.06,-375.5C579.19,-375.5 556.21,-375.5 537.22,-375.5"/>
<polygon fill="midnightblue" stroke="midnightblue" points="601.35,-379 611.35,-375.5 601.35,-372 601.35,-379"/>
</g>
<!-- Node172 -->
<g id="node49" class="node">
<title>Node172</title>
<g id="a_node49"><a xlink:href="telemetry__definitions_8c.html#ae991503d7e5e3ed1bd65797e3fa8622c" target="_top" xlink:title=" ">
<polygon fill="white" stroke="red" points="463.5,-328 463.5,-347 523.5,-347 523.5,-328 463.5,-328"/>
<text text-anchor="middle" x="493.5" y="-335" font-family="Helvetica,sans-Serif" font-size="10.00">Tlm_HK_</text>
</a>
</g>
</g>
<!-- Node142&#45;&gt;Node172 -->
<g id="edge58" class="edge">
<title>Node142&#45;&gt;Node172</title>
<path fill="none" stroke="midnightblue" d="M622.56,-363.88C589.92,-357.15 550.2,-348.97 523.73,-343.52"/>
<polygon fill="midnightblue" stroke="midnightblue" points="621.94,-367.32 632.44,-365.91 623.35,-360.47 621.94,-367.32"/>
</g>
<!-- Node176 -->
<g id="node50" class="node">
<title>Node176</title>
<g id="a_node50"><a xlink:href="telemetry__definitions_8c.html#abeb688f0f66e6d3870869fa430fbb3a7" target="_top" xlink:title=" ">
<polygon fill="white" stroke="red" points="455.5,-290 455.5,-309 531.5,-309 531.5,-290 455.5,-290"/>
<text text-anchor="middle" x="493.5" y="-297" font-family="Helvetica,sans-Serif" font-size="10.00">Tlm_MOBC_</text>
</a>
</g>
</g>
<!-- Node142&#45;&gt;Node176 -->
<g id="edge59" class="edge">
<title>Node142&#45;&gt;Node176</title>
<path fill="none" stroke="midnightblue" d="M655.1,-360.72C633.73,-348.03 601.2,-330.02 571,-318.5 558.47,-313.72 544.32,-309.81 531.63,-306.81"/>
<polygon fill="midnightblue" stroke="midnightblue" points="653.44,-363.81 663.82,-365.96 657.05,-357.81 653.44,-363.81"/>
</g>
<!-- Node72 -->
<g id="node34" class="node">
<title>Node72</title>
<g id="a_node34"><a xlink:href="di__aobc_8c.html#ac2b0fb03e89d75b82419d4ad53202f8b" target="_top" xlink:title=" ">
<polygon fill="white" stroke="red" points="220.5,-290 220.5,-309 368.5,-309 368.5,-290 220.5,-290"/>
<text text-anchor="middle" x="294.5" y="-297" font-family="Helvetica,sans-Serif" font-size="10.00">DI_AOBC_cmd_dispatcher_</text>
</a>
</g>
</g>
<!-- Node71&#45;&gt;Node72 -->
<g id="edge37" class="edge">
<title>Node71&#45;&gt;Node72</title>
<path fill="none" stroke="midnightblue" d="M422.46,-399.09C420.2,-397.69 418.04,-396.17 416,-394.5 387.08,-370.83 409.18,-341.85 380,-318.5 375.19,-314.65 369.75,-311.54 364.01,-309.04"/>
<polygon fill="midnightblue" stroke="midnightblue" points="421.1,-402.32 431.59,-403.84 424.33,-396.12 421.1,-402.32"/>
</g>
<!-- Node74 -->
<g id="node35" class="node">
<title>Node74</title>
<g id="a_node35"><a xlink:href="gs__command__dispatcher_8c.html#a4fe4cfc8c0f816a286dc50d8797cef54" target="_top" xlink:title="GSCD App 実行関数">
<polygon fill="white" stroke="red" points="246.5,-252 246.5,-271 342.5,-271 342.5,-252 246.5,-252"/>
<text text-anchor="middle" x="294.5" y="-259" font-family="Helvetica,sans-Serif" font-size="10.00">GSCD_dispatch_</text>
</a>
</g>
</g>
<!-- Node71&#45;&gt;Node74 -->
<g id="edge38" class="edge">
<title>Node71&#45;&gt;Node74</title>
<path fill="none" stroke="midnightblue" d="M421.29,-398.82C419.43,-397.5 417.66,-396.06 416,-394.5 377.27,-358.12 419.13,-316.45 380,-280.5 369.81,-271.14 356.03,-266.06 342.56,-263.38"/>
<polygon fill="midnightblue" stroke="midnightblue" points="419.52,-401.85 429.91,-403.93 423.09,-395.83 419.52,-401.85"/>
</g>
<!-- Node76 -->
<g id="node36" class="node">
<title>Node76</title>
<g id="a_node36"><a xlink:href="realtime__command__dispatcher_8c.html#aa66b7d158969999a789dc69d2d5b1b7d" target="_top" xlink:title=" ">
<polygon fill="white" stroke="red" points="247.5,-416 247.5,-435 341.5,-435 341.5,-416 247.5,-416"/>
<text text-anchor="middle" x="294.5" y="-423" font-family="Helvetica,sans-Serif" font-size="10.00">RTCD_dispatch_</text>
</a>
</g>
</g>
<!-- Node71&#45;&gt;Node76 -->
<g id="edge39" class="edge">
<title>Node71&#45;&gt;Node76</title>
<path fill="none" stroke="midnightblue" d="M413.04,-418.34C388.79,-419.82 362.93,-421.39 341.67,-422.69"/>
<polygon fill="midnightblue" stroke="midnightblue" points="413.55,-421.82 423.32,-417.71 413.13,-414.83 413.55,-421.82"/>
</g>
<!-- Node78 -->
<g id="node37" class="node">
<title>Node78</title>
<g id="a_node37"><a xlink:href="task__dispatcher_8c.html#ac880fe6e26ecdf8711d08980cad6787d" target="_top" xlink:title="現在時刻に応じて、TaskList から Cmd を一つ実行する or TaskList を再展開する">
<polygon fill="white" stroke="red" points="236.5,-366.5 236.5,-396.5 352.5,-396.5 352.5,-366.5 236.5,-366.5"/>
<text text-anchor="start" x="244.5" y="-384.5" font-family="Helvetica,sans-Serif" font-size="10.00">TDSP_execute_pl_as</text>
<text text-anchor="middle" x="294.5" y="-373.5" font-family="Helvetica,sans-Serif" font-size="10.00">_task_list</text>
</a>
</g>
</g>
<!-- Node71&#45;&gt;Node78 -->
<g id="edge40" class="edge">
<title>Node71&#45;&gt;Node78</title>
<path fill="none" stroke="midnightblue" d="M423.82,-402.34C400.64,-398.58 375.03,-394.42 352.83,-390.81"/>
<polygon fill="midnightblue" stroke="midnightblue" points="423.5,-405.84 433.93,-403.99 424.62,-398.93 423.5,-405.84"/>
</g>
<!-- Node81 -->
<g id="node38" class="node">
<title>Node81</title>
<g id="a_node38"><a xlink:href="timeline__command__dispatcher_8c.html#adc7c7ed35f5cb69bb1d8baccd0193f8d" target="_top" xlink:title="指定された lien_no の Timeline コマンドを実行する">
<polygon fill="white" stroke="red" points="234,-328 234,-347 355,-347 355,-328 234,-328"/>
<text text-anchor="middle" x="294.5" y="-335" font-family="Helvetica,sans-Serif" font-size="10.00">TLCD_tlc_dispatcher_</text>
</a>
</g>
</g>
<!-- Node71&#45;&gt;Node81 -->
<g id="edge41" class="edge">
<title>Node71&#45;&gt;Node81</title>
<path fill="none" stroke="midnightblue" d="M428.38,-400.48C424.08,-398.73 419.91,-396.75 416,-394.5 396.1,-383.07 399.96,-368.82 380,-357.5 372.26,-353.11 363.6,-349.69 354.86,-347.01"/>
<polygon fill="midnightblue" stroke="midnightblue" points="427.36,-403.83 437.95,-403.95 429.74,-397.25 427.36,-403.83"/>
</g>
<!-- Node144 -->
<g id="node40" class="node">
<title>Node144</title>
<g id="a_node40"><a xlink:href="driver__super_8c.html#ad57bd928e44cd3a8c790909ad40c7a9d" target="_top" xlink:title="継承先の機器より DriverSuper を初期化する（複数の stream を使用する場合）">
<polygon fill="white" stroke="red" points="38.5,-644 38.5,-663 134.5,-663 134.5,-644 38.5,-644"/>
<text text-anchor="middle" x="86.5" y="-651" font-family="Helvetica,sans-Serif" font-size="10.00">DS_init_streams</text>
</a>
</g>
</g>
<!-- Node143&#45;&gt;Node144 -->
<g id="edge45" class="edge">
<title>Node143&#45;&gt;Node144</title>
<path fill="none" stroke="midnightblue" d="M254.38,-653.5C220.34,-653.5 170.91,-653.5 134.68,-653.5"/>
<polygon fill="midnightblue" stroke="midnightblue" points="254.42,-657 264.42,-653.5 254.42,-650 254.42,-657"/>
</g>
<!-- Node155&#45;&gt;Node143 -->
<g id="edge47" class="edge">
<title>Node155&#45;&gt;Node143</title>
<path fill="none" stroke="midnightblue" d="M450.68,-609.07C439.37,-612.61 427.17,-616.58 416,-620.5 399.8,-626.18 396.42,-629.49 380,-634.5 361.88,-640.03 341.13,-644.72 324.72,-648.05"/>
<polygon fill="midnightblue" stroke="midnightblue" points="451.82,-612.38 460.33,-606.07 449.74,-605.69 451.82,-612.38"/>
</g>
<!-- Node157 -->
<g id="node43" class="node">
<title>Node157</title>
<g id="a_node43"><a xlink:href="aobc_8c.html#a21bc4dfcbc36f4c3db4c9f59cd020414" target="_top" xlink:title="AOBC へのコマンド送信">
<polygon fill="white" stroke="red" points="245,-492 245,-511 344,-511 344,-492 245,-492"/>
<text text-anchor="middle" x="294.5" y="-499" font-family="Helvetica,sans-Serif" font-size="10.00">AOBC_send_cmd</text>
</a>
</g>
</g>
<!-- Node156&#45;&gt;Node157 -->
<g id="edge49" class="edge">
<title>Node156&#45;&gt;Node157</title>
<path fill="none" stroke="midnightblue" d="M419.65,-513.47C394.5,-511.05 366.94,-508.39 344.19,-506.2"/>
<polygon fill="midnightblue" stroke="midnightblue" points="419.61,-516.99 429.9,-514.46 420.28,-510.02 419.61,-516.99"/>
</g>
<!-- Node160 -->
<g id="node44" class="node">
<title>Node160</title>
<g id="a_node44"><a xlink:href="gs_8c.html#a553d2d0a7400d342a82530f0008095a7" target="_top" xlink:title="地上に向けて TLM を送信. 形式は VCDU">
<polygon fill="white" stroke="red" points="251,-568 251,-587 338,-587 338,-568 251,-568"/>
<text text-anchor="middle" x="294.5" y="-575" font-family="Helvetica,sans-Serif" font-size="10.00">GS_send_vcdu</text>
</a>
</g>
</g>
<!-- Node156&#45;&gt;Node160 -->
<g id="edge50" class="edge">
<title>Node156&#45;&gt;Node160</title>
<path fill="none" stroke="midnightblue" d="M450.68,-533.07C439.37,-536.61 427.17,-540.58 416,-544.5 399.8,-550.18 396.42,-553.49 380,-558.5 366.62,-562.58 351.82,-566.2 338.38,-569.16"/>
<polygon fill="midnightblue" stroke="midnightblue" points="451.82,-536.38 460.33,-530.07 449.74,-529.69 451.82,-536.38"/>
</g>
<!-- Node165 -->
<g id="node45" class="node">
<title>Node165</title>
<g id="a_node45"><a xlink:href="i2c__common_8c.html#a9a4ac76054a67ac43ad1a995a1d5721c" target="_top" xlink:title="I2C_Config 構造体にて指定されたデバイスのレジスタへ書き込む">
<polygon fill="white" stroke="red" points="244.5,-530 244.5,-549 344.5,-549 344.5,-530 244.5,-530"/>
<text text-anchor="middle" x="294.5" y="-537" font-family="Helvetica,sans-Serif" font-size="10.00">I2C_write_bytes_</text>
</a>
</g>
</g>
<!-- Node156&#45;&gt;Node165 -->
<g id="edge51" class="edge">
<title>Node156&#45;&gt;Node165</title>
<path fill="none" stroke="midnightblue" d="M419.7,-527.52C394.64,-529.94 367.21,-532.58 344.51,-534.77"/>
<polygon fill="midnightblue" stroke="midnightblue" points="420.28,-530.98 429.9,-526.54 419.61,-524.01 420.28,-530.98"/>
</g>
<!-- Node168 -->
<g id="node46" class="node">
<title>Node168</title>
<g id="a_node46"><a xlink:href="uart__test_8c.html#a515fee0061a72319cf331e110b285e91" target="_top" xlink:title="UART_TESTへのコマンド送信">
<polygon fill="white" stroke="red" points="244,-606 244,-625 345,-625 345,-606 244,-606"/>
<text text-anchor="middle" x="294.5" y="-613" font-family="Helvetica,sans-Serif" font-size="10.00">UART_TEST_send</text>
</a>
</g>
</g>
<!-- Node156&#45;&gt;Node168 -->
<g id="edge52" class="edge">
<title>Node156&#45;&gt;Node168</title>
<path fill="none" stroke="midnightblue" d="M435.39,-533.71C428.51,-536.64 421.86,-540.19 416,-544.5 393.36,-561.17 403.31,-580.79 380,-596.5 369.78,-603.39 357.43,-607.82 345.38,-610.65"/>
<polygon fill="midnightblue" stroke="midnightblue" points="436.76,-536.94 444.86,-530.11 434.27,-530.4 436.76,-536.94"/>
</g>
<!-- Node170&#45;&gt;Node133 -->
<g id="edge55" class="edge">
<title>Node170&#45;&gt;Node133</title>
<path fill="none" stroke="midnightblue" d="M419.26,-472.63C359.81,-476.83 275.28,-475.32 209,-444.5 152.24,-418.11 108.15,-352.6 93.1,-328.02"/>
<polygon fill="midnightblue" stroke="midnightblue" points="419.62,-476.11 429.32,-471.85 419.08,-469.13 419.62,-476.11"/>
</g>
<!-- Node170&#45;&gt;Node157 -->
<g id="edge54" class="edge">
<title>Node170&#45;&gt;Node157</title>
<path fill="none" stroke="midnightblue" d="M432.86,-475C404.53,-480.47 371.09,-486.92 344.29,-492.09"/>
<polygon fill="midnightblue" stroke="midnightblue" points="433.89,-478.37 443.04,-473.04 432.56,-471.5 433.89,-478.37"/>
</g>
<!-- Node171&#45;&gt;Node31 -->
<g id="edge57" class="edge">
<title>Node171&#45;&gt;Node31</title>
<path fill="none" stroke="midnightblue" d="M440.13,-370.06C431.25,-367.14 422.74,-362.83 416,-356.5 377.27,-320.12 419.13,-278.45 380,-242.5 370.59,-233.85 358.11,-228.85 345.64,-226.03"/>
<polygon fill="midnightblue" stroke="midnightblue" points="439.27,-373.46 449.84,-372.71 441.11,-366.7 439.27,-373.46"/>
</g>
</g>
</svg>
