<?xml version="1.0" encoding="UTF-8" standalone="no"?>
<!DOCTYPE svg PUBLIC "-//W3C//DTD SVG 1.1//EN"
 "http://www.w3.org/Graphics/SVG/1.1/DTD/svg11.dtd">
<!-- Generated by graphviz version 2.43.0 (0)
 -->
<!-- Title: PH_analyze_cmd_packet Pages: 1 -->
<svg width="1408pt" height="906pt"
 viewBox="0.00 0.00 1408.00 906.43" xmlns="http://www.w3.org/2000/svg" xmlns:xlink="http://www.w3.org/1999/xlink">
<g id="graph0" class="graph" transform="scale(1 1) rotate(0) translate(4 902.43)">
<title>PH_analyze_cmd_packet</title>
<polygon fill="white" stroke="transparent" points="-4,4 -4,-902.43 1404,-902.43 1404,4 -4,4"/>
<!-- Node1 -->
<g id="node1" class="node">
<title>Node1</title>
<g id="a_node1"><a xlink:title=" ">
<polygon fill="#bfbfbf" stroke="black" points="0,-501.5 0,-520.5 137,-520.5 137,-501.5 0,-501.5"/>
<text text-anchor="middle" x="68.5" y="-508.5" font-family="Helvetica,sans-Serif" font-size="10.00">PH_analyze_cmd_packet</text>
</a>
</g>
</g>
<!-- Node2 -->
<g id="node2" class="node">
<title>Node2</title>
<g id="a_node2"><a xlink:href="common__cmd__packet_8h.html#a63dd7518abfbd0e6cedf6af2f376d854" target="_top" xlink:title="EXEC_TYPE を取得">
<polygon fill="white" stroke="black" points="185.5,-482.5 185.5,-501.5 297.5,-501.5 297.5,-482.5 185.5,-482.5"/>
<text text-anchor="middle" x="241.5" y="-489.5" font-family="Helvetica,sans-Serif" font-size="10.00">CCP_get_exec_type</text>
</a>
</g>
</g>
<!-- Node1&#45;&gt;Node2 -->
<g id="edge1" class="edge">
<title>Node1&#45;&gt;Node2</title>
<path fill="none" stroke="midnightblue" d="M137.08,-503.49C149.63,-502.1 162.71,-500.64 175.19,-499.26"/>
<polygon fill="midnightblue" stroke="midnightblue" points="175.95,-502.69 185.5,-498.11 175.17,-495.74 175.95,-502.69"/>
</g>
<!-- Node7 -->
<g id="node7" class="node">
<title>Node7</title>
<g id="a_node7"><a xlink:href="packet__handler_8c.html#a7877bd048a812eccc6e5e32a48e4198d" target="_top" xlink:title=" ">
<polygon fill="white" stroke="black" points="191,-824.5 191,-843.5 292,-843.5 292,-824.5 191,-824.5"/>
<text text-anchor="middle" x="241.5" y="-831.5" font-family="Helvetica,sans-Serif" font-size="10.00">PH_add_gs_cmd_</text>
</a>
</g>
</g>
<!-- Node1&#45;&gt;Node7 -->
<g id="edge6" class="edge">
<title>Node1&#45;&gt;Node7</title>
<path fill="none" stroke="midnightblue" d="M71.41,-520.53C79.02,-556.81 109.92,-688.7 173,-777 184.81,-793.54 202.48,-808.23 216.78,-818.55"/>
<polygon fill="midnightblue" stroke="midnightblue" points="214.95,-821.54 225.16,-824.39 218.96,-815.8 214.95,-821.54"/>
</g>
<!-- Node10 -->
<g id="node10" class="node">
<title>Node10</title>
<g id="a_node10"><a xlink:href="packet__handler_8c.html#a8d281dc795ac227a6631832887234892" target="_top" xlink:title=" ">
<polygon fill="white" stroke="black" points="192.5,-748.5 192.5,-767.5 290.5,-767.5 290.5,-748.5 192.5,-748.5"/>
<text text-anchor="middle" x="241.5" y="-755.5" font-family="Helvetica,sans-Serif" font-size="10.00">PH_add_rt_cmd_</text>
</a>
</g>
</g>
<!-- Node1&#45;&gt;Node10 -->
<g id="edge9" class="edge">
<title>Node1&#45;&gt;Node10</title>
<path fill="none" stroke="midnightblue" d="M76.2,-520.68C101.9,-557.8 194.38,-691.38 228.09,-740.07"/>
<polygon fill="midnightblue" stroke="midnightblue" points="225.27,-742.15 233.84,-748.38 231.03,-738.17 225.27,-742.15"/>
</g>
<!-- Node11 -->
<g id="node11" class="node">
<title>Node11</title>
<g id="a_node11"><a xlink:href="packet__handler_8c.html#a31e4fc656d51d4b675d88e6c023cc50e" target="_top" xlink:title=" ">
<polygon fill="white" stroke="black" points="364.5,-520.5 364.5,-539.5 461.5,-539.5 461.5,-520.5 364.5,-520.5"/>
<text text-anchor="middle" x="413" y="-527.5" font-family="Helvetica,sans-Serif" font-size="10.00">PH_add_tl_cmd_</text>
</a>
</g>
</g>
<!-- Node1&#45;&gt;Node11 -->
<g id="edge11" class="edge">
<title>Node1&#45;&gt;Node11</title>
<path fill="none" stroke="midnightblue" d="M137.17,-514.75C200.56,-518.27 294.29,-523.47 354.25,-526.8"/>
<polygon fill="midnightblue" stroke="midnightblue" points="354.13,-530.3 364.31,-527.35 354.52,-523.31 354.13,-530.3"/>
</g>
<!-- Node21 -->
<g id="node21" class="node">
<title>Node21</title>
<g id="a_node21"><a xlink:href="packet__handler_8c.html#aaee24b7aac3411a855ab68922e605325" target="_top" xlink:title="UTL_cmd を TL_cmd に変換して tl_cmd_list に追加する">
<polygon fill="white" stroke="black" points="190,-302.5 190,-321.5 293,-321.5 293,-302.5 190,-302.5"/>
<text text-anchor="middle" x="241.5" y="-309.5" font-family="Helvetica,sans-Serif" font-size="10.00">PH_add_utl_cmd_</text>
</a>
</g>
</g>
<!-- Node1&#45;&gt;Node21 -->
<g id="edge26" class="edge">
<title>Node1&#45;&gt;Node21</title>
<path fill="none" stroke="midnightblue" d="M77.75,-501.4C104.78,-469.94 190.95,-369.66 225.73,-329.18"/>
<polygon fill="midnightblue" stroke="midnightblue" points="228.47,-331.37 232.34,-321.5 223.16,-326.81 228.47,-331.37"/>
</g>
<!-- Node32 -->
<g id="node31" class="node">
<title>Node32</title>
<g id="a_node31"><a xlink:href="time__manager_8c.html#a576e42803f8f3896524dbb266a47a08f" target="_top" xlink:title="現在の total_cycle を返す">
<polygon fill="white" stroke="black" points="346,-145 346,-175 480,-175 480,-145 346,-145"/>
<text text-anchor="start" x="354" y="-163" font-family="Helvetica,sans-Serif" font-size="10.00">TMGR_get_master_total</text>
<text text-anchor="middle" x="413" y="-152" font-family="Helvetica,sans-Serif" font-size="10.00">_cycle</text>
</a>
</g>
</g>
<!-- Node1&#45;&gt;Node32 -->
<g id="edge64" class="edge">
<title>Node1&#45;&gt;Node32</title>
<path fill="none" stroke="midnightblue" d="M72,-501.19C80.8,-468.3 113.07,-360.24 173,-293 223.12,-236.77 302.89,-199.16 356.32,-178.68"/>
<polygon fill="midnightblue" stroke="midnightblue" points="357.85,-181.85 365.98,-175.06 355.39,-175.29 357.85,-181.85"/>
</g>
<!-- Node39 -->
<g id="node38" class="node">
<title>Node39</title>
<g id="a_node38"><a xlink:href="packet__handler_8c.html#add0165039b8b49d3d6f06ae929a8310e" target="_top" xlink:title=" ">
<polygon fill="white" stroke="black" points="173,-108.5 173,-127.5 310,-127.5 310,-108.5 173,-108.5"/>
<text text-anchor="middle" x="241.5" y="-115.5" font-family="Helvetica,sans-Serif" font-size="10.00">PH_analyze_block_cmd_</text>
</a>
</g>
</g>
<!-- Node1&#45;&gt;Node39 -->
<g id="edge47" class="edge">
<title>Node1&#45;&gt;Node39</title>
<path fill="none" stroke="midnightblue" d="M72.03,-501.4C82.01,-464.16 120.75,-326.07 173,-221 188.68,-189.46 212.14,-155.85 226.87,-135.9"/>
<polygon fill="midnightblue" stroke="midnightblue" points="229.77,-137.86 232.96,-127.76 224.17,-133.67 229.77,-137.86"/>
</g>
<!-- Node48 -->
<g id="node46" class="node">
<title>Node48</title>
<g id="a_node46"><a xlink:href="user__packet__handler_8c.html#a6ceb9e37114f6c81c6872ec90dd2a39d" target="_top" xlink:title="PHのanalyze_cmd_のユーザー処理関数">
<polygon fill="white" stroke="black" points="527.5,-761.5 527.5,-780.5 653.5,-780.5 653.5,-761.5 527.5,-761.5"/>
<text text-anchor="middle" x="590.5" y="-768.5" font-family="Helvetica,sans-Serif" font-size="10.00">PH_user_analyze_cmd</text>
</a>
</g>
</g>
<!-- Node1&#45;&gt;Node48 -->
<g id="edge56" class="edge">
<title>Node1&#45;&gt;Node48</title>
<path fill="none" stroke="midnightblue" d="M88.62,-520.56C167.46,-559.98 467.53,-710.01 561.31,-756.91"/>
<polygon fill="midnightblue" stroke="midnightblue" points="559.97,-760.15 570.48,-761.49 563.1,-753.89 559.97,-760.15"/>
</g>
<!-- Node3 -->
<g id="node3" class="node">
<title>Node3</title>
<g id="a_node3"><a xlink:href="cmd__space__packet_8c.html#af0e6dd2c4432ce4d03442e5277766c0c" target="_top" xlink:title="Execution Type を取得">
<polygon fill="white" stroke="black" points="871,-438.5 871,-457.5 982,-457.5 982,-438.5 871,-438.5"/>
<text text-anchor="middle" x="926.5" y="-445.5" font-family="Helvetica,sans-Serif" font-size="10.00">CSP_get_exec_type</text>
</a>
</g>
</g>
<!-- Node2&#45;&gt;Node3 -->
<g id="edge2" class="edge">
<title>Node2&#45;&gt;Node3</title>
<path fill="none" stroke="midnightblue" d="M297.69,-491.63C378.51,-490.61 533.75,-486.84 665,-473 681.13,-471.3 684.91,-469.02 701,-467 754.65,-460.27 815.82,-455.27 860.74,-452.09"/>
<polygon fill="midnightblue" stroke="midnightblue" points="861.2,-455.57 870.93,-451.38 860.71,-448.58 861.2,-455.57"/>
</g>
<!-- Node4 -->
<g id="node4" class="node">
<title>Node4</title>
<g id="a_node4"><a xlink:href="space__packet_8c.html#a300c7fc3dea91319b0fa2f039f27d5eb" target="_top" xlink:title="packet に格納された param を取得">
<polygon fill="white" stroke="black" points="1018,-395 1018,-425 1152,-425 1152,-395 1018,-395"/>
<text text-anchor="start" x="1026" y="-413" font-family="Helvetica,sans-Serif" font-size="10.00">SP_extract_param_from</text>
<text text-anchor="middle" x="1085" y="-402" font-family="Helvetica,sans-Serif" font-size="10.00">_packet</text>
</a>
</g>
</g>
<!-- Node3&#45;&gt;Node4 -->
<g id="edge3" class="edge">
<title>Node3&#45;&gt;Node4</title>
<path fill="none" stroke="midnightblue" d="M966.99,-438.41C980.66,-435.09 996.44,-431.26 1011.89,-427.51"/>
<polygon fill="midnightblue" stroke="midnightblue" points="1013.09,-430.82 1021.98,-425.06 1011.43,-424.02 1013.09,-430.82"/>
</g>
<!-- Node5 -->
<g id="node5" class="node">
<title>Node5</title>
<g id="a_node5"><a xlink:href="endian__memcpy_8c.html#a153793f6939a1cb0f6bc3968d953f31e" target="_top" xlink:title=" ">
<polygon fill="white" stroke="black" points="1188,-335.5 1188,-354.5 1286,-354.5 1286,-335.5 1188,-335.5"/>
<text text-anchor="middle" x="1237" y="-342.5" font-family="Helvetica,sans-Serif" font-size="10.00">endian_memcpy</text>
</a>
</g>
</g>
<!-- Node4&#45;&gt;Node5 -->
<g id="edge4" class="edge">
<title>Node4&#45;&gt;Node5</title>
<path fill="none" stroke="midnightblue" d="M1120.79,-394.92C1146.16,-383.93 1180.23,-369.16 1204.74,-358.55"/>
<polygon fill="midnightblue" stroke="midnightblue" points="1206.16,-361.74 1213.95,-354.56 1203.38,-355.32 1206.16,-361.74"/>
</g>
<!-- Node6 -->
<g id="node6" class="node">
<title>Node6</title>
<g id="a_node6"><a xlink:href="endian__conv_8c.html#af8d492c4e43d83c161cd2225a9697b6a" target="_top" xlink:title=" ">
<polygon fill="white" stroke="black" points="1322,-335.5 1322,-354.5 1400,-354.5 1400,-335.5 1322,-335.5"/>
<text text-anchor="middle" x="1361" y="-342.5" font-family="Helvetica,sans-Serif" font-size="10.00">endian_conv</text>
</a>
</g>
</g>
<!-- Node5&#45;&gt;Node6 -->
<g id="edge5" class="edge">
<title>Node5&#45;&gt;Node6</title>
<path fill="none" stroke="midnightblue" d="M1286.22,-345C1294.65,-345 1303.42,-345 1311.84,-345"/>
<polygon fill="midnightblue" stroke="midnightblue" points="1311.91,-348.5 1321.91,-345 1311.91,-341.5 1311.91,-348.5"/>
</g>
<!-- Node8 -->
<g id="node8" class="node">
<title>Node8</title>
<g id="a_node8"><a xlink:href="packet__list_8c.html#afaf80120b8b97c0fdf3099e13e9019be" target="_top" xlink:title="PacketList の末尾に packet を挿入">
<polygon fill="white" stroke="black" points="884,-780.5 884,-799.5 969,-799.5 969,-780.5 884,-780.5"/>
<text text-anchor="middle" x="926.5" y="-787.5" font-family="Helvetica,sans-Serif" font-size="10.00">PL_push_back</text>
</a>
</g>
</g>
<!-- Node7&#45;&gt;Node8 -->
<g id="edge7" class="edge">
<title>Node7&#45;&gt;Node8</title>
<path fill="none" stroke="midnightblue" d="M272.67,-843.56C361.89,-870.18 631.02,-938.54 835,-865 866.63,-853.6 895.03,-825.8 911.26,-807.44"/>
<polygon fill="midnightblue" stroke="midnightblue" points="913.99,-809.64 917.83,-799.76 908.67,-805.09 913.99,-809.64"/>
</g>
<!-- Node9 -->
<g id="node9" class="node">
<title>Node9</title>
<g id="a_node9"><a xlink:href="packet__list_8c.html#a16ea3d3b9925532e2772678215e38abb" target="_top" xlink:title="未使用 Node を新規に取得">
<polygon fill="white" stroke="black" points="1031,-590.5 1031,-609.5 1139,-609.5 1139,-590.5 1031,-590.5"/>
<text text-anchor="middle" x="1085" y="-597.5" font-family="Helvetica,sans-Serif" font-size="10.00">PL_get_free_node_</text>
</a>
</g>
</g>
<!-- Node8&#45;&gt;Node9 -->
<g id="edge8" class="edge">
<title>Node8&#45;&gt;Node9</title>
<path fill="none" stroke="midnightblue" d="M935.48,-780.32C960.38,-750.09 1036.94,-657.14 1069.31,-617.84"/>
<polygon fill="midnightblue" stroke="midnightblue" points="1072.2,-619.84 1075.85,-609.89 1066.79,-615.39 1072.2,-619.84"/>
</g>
<!-- Node10&#45;&gt;Node8 -->
<g id="edge10" class="edge">
<title>Node10&#45;&gt;Node8</title>
<path fill="none" stroke="midnightblue" d="M279,-767.57C356.19,-787.25 541.99,-831.71 701,-847 760.28,-852.7 777.78,-863.52 835,-847 862.35,-839.11 889.39,-820.23 906.69,-806.35"/>
<polygon fill="midnightblue" stroke="midnightblue" points="909.33,-808.71 914.8,-799.64 904.86,-803.32 909.33,-808.71"/>
</g>
<!-- Node12 -->
<g id="node12" class="node">
<title>Node12</title>
<g id="a_node12"><a xlink:href="packet__list_8c.html#ac711a46f484040b1c67c522fbd96b826" target="_top" xlink:title="CCP が時系列に並ぶように CCP を挿入する">
<polygon fill="white" stroke="black" points="541,-552.5 541,-571.5 640,-571.5 640,-552.5 541,-552.5"/>
<text text-anchor="middle" x="590.5" y="-559.5" font-family="Helvetica,sans-Serif" font-size="10.00">PL_insert_tl_cmd</text>
</a>
</g>
</g>
<!-- Node11&#45;&gt;Node12 -->
<g id="edge12" class="edge">
<title>Node11&#45;&gt;Node12</title>
<path fill="none" stroke="midnightblue" d="M461.96,-538.74C483.25,-542.63 508.52,-547.23 530.92,-551.32"/>
<polygon fill="midnightblue" stroke="midnightblue" points="530.53,-554.8 540.99,-553.16 531.78,-547.92 530.53,-554.8"/>
</g>
<!-- Node12&#45;&gt;Node8 -->
<g id="edge23" class="edge">
<title>Node12&#45;&gt;Node8</title>
<path fill="none" stroke="midnightblue" d="M618.85,-571.58C678.72,-592.7 817.5,-642.56 835,-657 858.11,-676.07 854.26,-689.15 871,-714 884.65,-734.26 901.08,-756.96 912.31,-772.23"/>
<polygon fill="midnightblue" stroke="midnightblue" points="909.5,-774.33 918.26,-780.29 915.13,-770.17 909.5,-774.33"/>
</g>
<!-- Node13 -->
<g id="node13" class="node">
<title>Node13</title>
<g id="a_node13"><a xlink:href="common__cmd__packet_8h.html#ad1a6be053f894381150410e424ec20ab" target="_top" xlink:title="TI を取得">
<polygon fill="white" stroke="black" points="733.5,-362.5 733.5,-381.5 802.5,-381.5 802.5,-362.5 733.5,-362.5"/>
<text text-anchor="middle" x="768" y="-369.5" font-family="Helvetica,sans-Serif" font-size="10.00">CCP_get_ti</text>
</a>
</g>
</g>
<!-- Node12&#45;&gt;Node13 -->
<g id="edge13" class="edge">
<title>Node12&#45;&gt;Node13</title>
<path fill="none" stroke="midnightblue" d="M601.08,-552.29C616.15,-536.64 645.66,-504.4 665,-473 685.87,-439.11 671.04,-417.21 701,-391 707.45,-385.36 715.48,-381.39 723.7,-378.59"/>
<polygon fill="midnightblue" stroke="midnightblue" points="724.7,-381.95 733.34,-375.82 722.76,-375.22 724.7,-381.95"/>
</g>
<!-- Node15 -->
<g id="node15" class="node">
<title>Node15</title>
<g id="a_node15"><a xlink:href="packet__list_8c.html#a2b6b5b3ed753070e0ef0b14556311263" target="_top" xlink:title="PacketList の active な先頭 Node を取得">
<polygon fill="white" stroke="black" points="729,-666.5 729,-685.5 807,-685.5 807,-666.5 729,-666.5"/>
<text text-anchor="middle" x="768" y="-673.5" font-family="Helvetica,sans-Serif" font-size="10.00">PL_get_head</text>
</a>
</g>
</g>
<!-- Node12&#45;&gt;Node15 -->
<g id="edge16" class="edge">
<title>Node12&#45;&gt;Node15</title>
<path fill="none" stroke="midnightblue" d="M600.91,-571.67C618.89,-589.67 659.96,-628.59 701,-652 708.23,-656.12 716.29,-659.75 724.24,-662.86"/>
<polygon fill="midnightblue" stroke="midnightblue" points="723.2,-666.21 733.8,-666.39 725.63,-659.64 723.2,-666.21"/>
</g>
<!-- Node16 -->
<g id="node16" class="node">
<title>Node16</title>
<g id="a_node16"><a xlink:href="packet__list_8c.html#a7b5027b1d6d804ce0c4b650ef214df53" target="_top" xlink:title="PacketList の active な末端 Node を取得">
<polygon fill="white" stroke="black" points="733,-514.5 733,-533.5 803,-533.5 803,-514.5 733,-514.5"/>
<text text-anchor="middle" x="768" y="-521.5" font-family="Helvetica,sans-Serif" font-size="10.00">PL_get_tail</text>
</a>
</g>
</g>
<!-- Node12&#45;&gt;Node16 -->
<g id="edge17" class="edge">
<title>Node12&#45;&gt;Node16</title>
<path fill="none" stroke="midnightblue" d="M635.79,-552.41C662.53,-546.62 696.48,-539.27 723.14,-533.5"/>
<polygon fill="midnightblue" stroke="midnightblue" points="723.94,-536.9 732.97,-531.37 722.46,-530.06 723.94,-536.9"/>
</g>
<!-- Node17 -->
<g id="node17" class="node">
<title>Node17</title>
<g id="a_node17"><a xlink:href="packet__list_8c.html#a6b3b63e47f62fb71acd7de1381f5a0a4" target="_top" xlink:title="ある Node の直後に packet を挿入">
<polygon fill="white" stroke="black" points="723.5,-552.5 723.5,-571.5 812.5,-571.5 812.5,-552.5 723.5,-552.5"/>
<text text-anchor="middle" x="768" y="-559.5" font-family="Helvetica,sans-Serif" font-size="10.00">PL_insert_after</text>
</a>
</g>
</g>
<!-- Node12&#45;&gt;Node17 -->
<g id="edge18" class="edge">
<title>Node12&#45;&gt;Node17</title>
<path fill="none" stroke="midnightblue" d="M640.39,-562C663.09,-562 690.15,-562 713.41,-562"/>
<polygon fill="midnightblue" stroke="midnightblue" points="713.46,-565.5 723.46,-562 713.46,-558.5 713.46,-565.5"/>
</g>
<!-- Node18 -->
<g id="node18" class="node">
<title>Node18</title>
<g id="a_node18"><a xlink:href="packet__list_8c.html#afefb37c36db47052d2e2b7e4d6c2274b" target="_top" xlink:title="PacketList が空かどうか">
<polygon fill="white" stroke="black" points="729,-476.5 729,-495.5 807,-495.5 807,-476.5 729,-476.5"/>
<text text-anchor="middle" x="768" y="-483.5" font-family="Helvetica,sans-Serif" font-size="10.00">PL_is_empty</text>
</a>
</g>
</g>
<!-- Node12&#45;&gt;Node18 -->
<g id="edge21" class="edge">
<title>Node12&#45;&gt;Node18</title>
<path fill="none" stroke="midnightblue" d="M607.35,-552.46C628.23,-540.2 666.37,-518.84 701,-505 706.81,-502.68 713.02,-500.51 719.21,-498.53"/>
<polygon fill="midnightblue" stroke="midnightblue" points="720.33,-501.85 728.87,-495.57 718.28,-495.15 720.33,-501.85"/>
</g>
<!-- Node19 -->
<g id="node19" class="node">
<title>Node19</title>
<g id="a_node19"><a xlink:href="packet__list_8c.html#aee623fa81c4a8a1f3b0775a3a5d2925b" target="_top" xlink:title="PacketList が満杯かどうか">
<polygon fill="white" stroke="black" points="737,-704.5 737,-723.5 799,-723.5 799,-704.5 737,-704.5"/>
<text text-anchor="middle" x="768" y="-711.5" font-family="Helvetica,sans-Serif" font-size="10.00">PL_is_full</text>
</a>
</g>
</g>
<!-- Node12&#45;&gt;Node19 -->
<g id="edge22" class="edge">
<title>Node12&#45;&gt;Node19</title>
<path fill="none" stroke="midnightblue" d="M596.7,-571.72C610.36,-596.3 649.75,-661.34 701,-695 708.83,-700.14 718.07,-703.92 727.12,-706.68"/>
<polygon fill="midnightblue" stroke="midnightblue" points="726.22,-710.07 736.79,-709.3 728.05,-703.31 726.22,-710.07"/>
</g>
<!-- Node20 -->
<g id="node20" class="node">
<title>Node20</title>
<g id="a_node20"><a xlink:href="packet__list_8c.html#a46379e787e8e3c97939b08e6c838372a" target="_top" xlink:title="PacketList の先頭に packet を挿入">
<polygon fill="white" stroke="black" points="884,-590.5 884,-609.5 969,-609.5 969,-590.5 884,-590.5"/>
<text text-anchor="middle" x="926.5" y="-597.5" font-family="Helvetica,sans-Serif" font-size="10.00">PL_push_front</text>
</a>
</g>
</g>
<!-- Node12&#45;&gt;Node20 -->
<g id="edge24" class="edge">
<title>Node12&#45;&gt;Node20</title>
<path fill="none" stroke="midnightblue" d="M640.15,-571.38C659.09,-574.78 681,-578.42 701,-581 759.85,-588.58 827.77,-593.85 873.36,-596.88"/>
<polygon fill="midnightblue" stroke="midnightblue" points="873.39,-600.39 883.59,-597.55 873.84,-593.41 873.39,-600.39"/>
</g>
<!-- Node14 -->
<g id="node14" class="node">
<title>Node14</title>
<g id="a_node14"><a xlink:href="cmd__space__packet_8c.html#a8d726fa3f96fbe2be1a779719445b528" target="_top" xlink:title="Time Indicator (TI) を取得">
<polygon fill="white" stroke="black" points="892.5,-362.5 892.5,-381.5 960.5,-381.5 960.5,-362.5 892.5,-362.5"/>
<text text-anchor="middle" x="926.5" y="-369.5" font-family="Helvetica,sans-Serif" font-size="10.00">CSP_get_ti</text>
</a>
</g>
</g>
<!-- Node13&#45;&gt;Node14 -->
<g id="edge14" class="edge">
<title>Node13&#45;&gt;Node14</title>
<path fill="none" stroke="midnightblue" d="M802.57,-372C825.86,-372 857.09,-372 882.24,-372"/>
<polygon fill="midnightblue" stroke="midnightblue" points="882.25,-375.5 892.25,-372 882.25,-368.5 882.25,-375.5"/>
</g>
<!-- Node14&#45;&gt;Node4 -->
<g id="edge15" class="edge">
<title>Node14&#45;&gt;Node4</title>
<path fill="none" stroke="midnightblue" d="M960.69,-380.06C975.75,-383.72 994.2,-388.2 1012.19,-392.56"/>
<polygon fill="midnightblue" stroke="midnightblue" points="1011.57,-396.01 1022.11,-394.97 1013.22,-389.21 1011.57,-396.01"/>
</g>
<!-- Node17&#45;&gt;Node8 -->
<g id="edge20" class="edge">
<title>Node17&#45;&gt;Node8</title>
<path fill="none" stroke="midnightblue" d="M782.28,-571.61C796.91,-582.77 820.3,-602.44 835,-624 859.27,-659.59 850.3,-676.22 871,-714 882.61,-735.19 899.14,-757.42 910.94,-772.33"/>
<polygon fill="midnightblue" stroke="midnightblue" points="908.28,-774.6 917.27,-780.19 913.73,-770.21 908.28,-774.6"/>
</g>
<!-- Node17&#45;&gt;Node9 -->
<g id="edge19" class="edge">
<title>Node17&#45;&gt;Node9</title>
<path fill="none" stroke="midnightblue" d="M812.79,-564.68C855.94,-567.61 923.7,-572.99 982,-581 996.93,-583.05 1013,-585.79 1027.87,-588.55"/>
<polygon fill="midnightblue" stroke="midnightblue" points="1027.47,-592.04 1037.94,-590.46 1028.77,-585.16 1027.47,-592.04"/>
</g>
<!-- Node20&#45;&gt;Node9 -->
<g id="edge25" class="edge">
<title>Node20&#45;&gt;Node9</title>
<path fill="none" stroke="midnightblue" d="M969.03,-600C984.85,-600 1003.26,-600 1020.65,-600"/>
<polygon fill="midnightblue" stroke="midnightblue" points="1020.75,-603.5 1030.75,-600 1020.75,-596.5 1020.75,-603.5"/>
</g>
<!-- Node21&#45;&gt;Node11 -->
<g id="edge39" class="edge">
<title>Node21&#45;&gt;Node11</title>
<path fill="none" stroke="midnightblue" d="M250,-321.65C276.26,-355.41 364.25,-468.59 398.34,-512.44"/>
<polygon fill="midnightblue" stroke="midnightblue" points="395.68,-514.72 404.58,-520.46 401.21,-510.42 395.68,-514.72"/>
</g>
<!-- Node21&#45;&gt;Node13 -->
<g id="edge31" class="edge">
<title>Node21&#45;&gt;Node13</title>
<path fill="none" stroke="midnightblue" d="M269.08,-302.46C339,-279.11 531.84,-226.01 665,-298 690.7,-311.89 677.49,-335.65 701,-353 707.68,-357.93 715.62,-361.59 723.63,-364.3"/>
<polygon fill="midnightblue" stroke="midnightblue" points="722.77,-367.69 733.36,-367.15 724.75,-360.98 722.77,-367.69"/>
</g>
<!-- Node22 -->
<g id="node22" class="node">
<title>Node22</title>
<g id="a_node22"><a xlink:href="common__cmd__packet_8h.html#aff399e79c4a5c9d75552b295de0d3365" target="_top" xlink:title="CommonCmdPacket をコピー">
<polygon fill="white" stroke="black" points="362,-410.5 362,-429.5 464,-429.5 464,-410.5 362,-410.5"/>
<text text-anchor="middle" x="413" y="-417.5" font-family="Helvetica,sans-Serif" font-size="10.00">CCP_copy_packet</text>
</a>
</g>
</g>
<!-- Node21&#45;&gt;Node22 -->
<g id="edge27" class="edge">
<title>Node21&#45;&gt;Node22</title>
<path fill="none" stroke="midnightblue" d="M257.54,-321.58C286.99,-340.35 352.49,-382.08 387.99,-404.7"/>
<polygon fill="midnightblue" stroke="midnightblue" points="386.43,-407.86 396.75,-410.28 390.2,-401.96 386.43,-407.86"/>
</g>
<!-- Node27 -->
<g id="node26" class="node">
<title>Node27</title>
<g id="a_node26"><a xlink:href="common__cmd__packet_8h.html#ab4c0b1be76b7097e922a8a354f500b88" target="_top" xlink:title="EXEC_TYPE を設定">
<polygon fill="white" stroke="black" points="357.5,-194.5 357.5,-213.5 468.5,-213.5 468.5,-194.5 357.5,-194.5"/>
<text text-anchor="middle" x="413" y="-201.5" font-family="Helvetica,sans-Serif" font-size="10.00">CCP_set_exec_type</text>
</a>
</g>
</g>
<!-- Node21&#45;&gt;Node27 -->
<g id="edge32" class="edge">
<title>Node21&#45;&gt;Node27</title>
<path fill="none" stroke="midnightblue" d="M252.52,-302.39C274.22,-281.77 325.25,-234.21 346,-223 350.17,-220.75 354.64,-218.73 359.22,-216.94"/>
<polygon fill="midnightblue" stroke="midnightblue" points="360.44,-220.22 368.69,-213.57 358.09,-213.63 360.44,-220.22"/>
</g>
<!-- Node30 -->
<g id="node29" class="node">
<title>Node30</title>
<g id="a_node29"><a xlink:href="common__cmd__packet_8h.html#a1fde7575e47a25464d869a3247e1e087" target="_top" xlink:title="TI を設定">
<polygon fill="white" stroke="black" points="379,-232.5 379,-251.5 447,-251.5 447,-232.5 379,-232.5"/>
<text text-anchor="middle" x="413" y="-239.5" font-family="Helvetica,sans-Serif" font-size="10.00">CCP_set_ti</text>
</a>
</g>
</g>
<!-- Node21&#45;&gt;Node30 -->
<g id="edge36" class="edge">
<title>Node21&#45;&gt;Node30</title>
<path fill="none" stroke="midnightblue" d="M262.94,-302.41C283.69,-292.8 316.82,-277.77 346,-266 355.31,-262.24 365.47,-258.42 374.96,-254.96"/>
<polygon fill="midnightblue" stroke="midnightblue" points="376.32,-258.19 384.54,-251.5 373.95,-251.6 376.32,-258.19"/>
</g>
<!-- Node21&#45;&gt;Node32 -->
<g id="edge40" class="edge">
<title>Node21&#45;&gt;Node32</title>
<path fill="none" stroke="midnightblue" d="M254.79,-302.5C269.2,-290.93 293.26,-270.3 310,-249 330.17,-223.34 321.26,-206.28 346,-185 347.95,-183.32 350.03,-181.75 352.19,-180.28"/>
<polygon fill="midnightblue" stroke="midnightblue" points="354.11,-183.21 360.92,-175.1 350.54,-177.19 354.11,-183.21"/>
</g>
<!-- Node34 -->
<g id="node33" class="node">
<title>Node34</title>
<g id="a_node33"><a xlink:href="time__manager_8c.html#adb6317bb3e7f3896ae0f4bd41f8c531b" target="_top" xlink:title="引数で指定された utl_unixtime に対応する TI を返す">
<polygon fill="white" stroke="black" points="350.5,-328 350.5,-358 475.5,-358 475.5,-328 350.5,-328"/>
<text text-anchor="start" x="358.5" y="-346" font-family="Helvetica,sans-Serif" font-size="10.00">TMGR_get_ti_from_utl</text>
<text text-anchor="middle" x="413" y="-335" font-family="Helvetica,sans-Serif" font-size="10.00">_unixtime</text>
</a>
</g>
</g>
<!-- Node21&#45;&gt;Node34 -->
<g id="edge42" class="edge">
<title>Node21&#45;&gt;Node34</title>
<path fill="none" stroke="midnightblue" d="M293.36,-321.3C308.07,-323.99 324.43,-326.98 340.17,-329.86"/>
<polygon fill="midnightblue" stroke="midnightblue" points="339.94,-333.38 350.4,-331.73 341.19,-326.49 339.94,-333.38"/>
</g>
<!-- Node23 -->
<g id="node23" class="node">
<title>Node23</title>
<g id="a_node23"><a xlink:href="cmd__space__packet_8c.html#a2a6ae24b63276a3107cbd59f153b658e" target="_top" xlink:title="CmdSpacePacket をコピー">
<polygon fill="white" stroke="black" points="540,-444.5 540,-463.5 641,-463.5 641,-444.5 540,-444.5"/>
<text text-anchor="middle" x="590.5" y="-451.5" font-family="Helvetica,sans-Serif" font-size="10.00">CSP_copy_packet</text>
</a>
</g>
</g>
<!-- Node22&#45;&gt;Node23 -->
<g id="edge28" class="edge">
<title>Node22&#45;&gt;Node23</title>
<path fill="none" stroke="midnightblue" d="M463.35,-429.56C484.1,-433.58 508.41,-438.29 530.12,-442.5"/>
<polygon fill="midnightblue" stroke="midnightblue" points="529.73,-445.99 540.21,-444.45 531.06,-439.11 529.73,-445.99"/>
</g>
<!-- Node24 -->
<g id="node24" class="node">
<title>Node24</title>
<g id="a_node24"><a xlink:href="space__packet_8c.html#af2e7ada2c7544c10e11bb9c7473485fa" target="_top" xlink:title="SpacePacket をコピー">
<polygon fill="white" stroke="black" points="720.5,-400.5 720.5,-419.5 815.5,-419.5 815.5,-400.5 720.5,-400.5"/>
<text text-anchor="middle" x="768" y="-407.5" font-family="Helvetica,sans-Serif" font-size="10.00">SP_copy_packet</text>
</a>
</g>
</g>
<!-- Node23&#45;&gt;Node24 -->
<g id="edge29" class="edge">
<title>Node23&#45;&gt;Node24</title>
<path fill="none" stroke="midnightblue" d="M629.58,-444.45C655.8,-437.88 690.84,-429.1 718.97,-422.04"/>
<polygon fill="midnightblue" stroke="midnightblue" points="720.14,-425.36 728.99,-419.53 718.44,-418.57 720.14,-425.36"/>
</g>
<!-- Node25 -->
<g id="node25" class="node">
<title>Node25</title>
<g id="a_node25"><a xlink:href="space__packet_8c.html#a25afed909fb67da49f5ac9921a23744f" target="_top" xlink:title="Packet Length を取得">
<polygon fill="white" stroke="red" points="873,-400.5 873,-419.5 980,-419.5 980,-400.5 873,-400.5"/>
<text text-anchor="middle" x="926.5" y="-407.5" font-family="Helvetica,sans-Serif" font-size="10.00">SP_get_packet_len</text>
</a>
</g>
</g>
<!-- Node24&#45;&gt;Node25 -->
<g id="edge30" class="edge">
<title>Node24&#45;&gt;Node25</title>
<path fill="none" stroke="midnightblue" d="M815.53,-410C830.31,-410 846.91,-410 862.65,-410"/>
<polygon fill="midnightblue" stroke="midnightblue" points="862.84,-413.5 872.84,-410 862.84,-406.5 862.84,-413.5"/>
</g>
<!-- Node28 -->
<g id="node27" class="node">
<title>Node28</title>
<g id="a_node27"><a xlink:href="cmd__space__packet_8c.html#a031c095293173f7bc0fa4a97852b7060" target="_top" xlink:title="Execution Type を設定">
<polygon fill="white" stroke="black" points="535.5,-193.5 535.5,-212.5 645.5,-212.5 645.5,-193.5 535.5,-193.5"/>
<text text-anchor="middle" x="590.5" y="-200.5" font-family="Helvetica,sans-Serif" font-size="10.00">CSP_set_exec_type</text>
</a>
</g>
</g>
<!-- Node27&#45;&gt;Node28 -->
<g id="edge33" class="edge">
<title>Node27&#45;&gt;Node28</title>
<path fill="none" stroke="midnightblue" d="M468.57,-203.69C486.48,-203.59 506.56,-203.47 525.13,-203.37"/>
<polygon fill="midnightblue" stroke="midnightblue" points="525.29,-206.87 535.27,-203.31 525.25,-199.87 525.29,-206.87"/>
</g>
<!-- Node29 -->
<g id="node28" class="node">
<title>Node29</title>
<g id="a_node28"><a xlink:href="space__packet_8c.html#a9d4e5051b01d74f88ee13ce05f61b392" target="_top" xlink:title="packet に param を格納">
<polygon fill="white" stroke="black" points="711.5,-226 711.5,-256 824.5,-256 824.5,-226 711.5,-226"/>
<text text-anchor="start" x="719.5" y="-244" font-family="Helvetica,sans-Serif" font-size="10.00">SP_insert_param_to</text>
<text text-anchor="middle" x="768" y="-233" font-family="Helvetica,sans-Serif" font-size="10.00">_packet</text>
</a>
</g>
</g>
<!-- Node28&#45;&gt;Node29 -->
<g id="edge34" class="edge">
<title>Node28&#45;&gt;Node29</title>
<path fill="none" stroke="midnightblue" d="M635.79,-212.59C655.69,-216.9 679.58,-222.07 701.49,-226.82"/>
<polygon fill="midnightblue" stroke="midnightblue" points="700.88,-230.26 711.4,-228.96 702.36,-223.42 700.88,-230.26"/>
</g>
<!-- Node29&#45;&gt;Node5 -->
<g id="edge35" class="edge">
<title>Node29&#45;&gt;Node5</title>
<path fill="none" stroke="midnightblue" d="M824.87,-253.44C915.78,-273.69 1094.5,-313.49 1183.32,-333.27"/>
<polygon fill="midnightblue" stroke="midnightblue" points="1182.66,-336.71 1193.18,-335.46 1184.18,-329.87 1182.66,-336.71"/>
</g>
<!-- Node31 -->
<g id="node30" class="node">
<title>Node31</title>
<g id="a_node30"><a xlink:href="cmd__space__packet_8c.html#a3b7cf4c50d51882d730ad25b754259fd" target="_top" xlink:title="Time Indicator (TI) を設定">
<polygon fill="white" stroke="black" points="556.5,-231.5 556.5,-250.5 624.5,-250.5 624.5,-231.5 556.5,-231.5"/>
<text text-anchor="middle" x="590.5" y="-238.5" font-family="Helvetica,sans-Serif" font-size="10.00">CSP_set_ti</text>
</a>
</g>
</g>
<!-- Node30&#45;&gt;Node31 -->
<g id="edge37" class="edge">
<title>Node30&#45;&gt;Node31</title>
<path fill="none" stroke="midnightblue" d="M447.01,-241.81C474.99,-241.65 515.33,-241.42 545.95,-241.25"/>
<polygon fill="midnightblue" stroke="midnightblue" points="546.36,-244.75 556.34,-241.19 546.32,-237.75 546.36,-244.75"/>
</g>
<!-- Node31&#45;&gt;Node29 -->
<g id="edge38" class="edge">
<title>Node31&#45;&gt;Node29</title>
<path fill="none" stroke="midnightblue" d="M624.51,-241C646.07,-241 674.98,-241 701.12,-241"/>
<polygon fill="midnightblue" stroke="midnightblue" points="701.36,-244.5 711.36,-241 701.36,-237.5 701.36,-244.5"/>
</g>
<!-- Node33 -->
<g id="node32" class="node">
<title>Node33</title>
<g id="a_node32"><a xlink:href="obc__time_8c.html#ac42c1d017a2cbb8dab608771907c97d5" target="_top" xlink:title="引数で指定した ObcTime の total_cycle を返す">
<polygon fill="white" stroke="black" points="529,-152.5 529,-171.5 652,-171.5 652,-152.5 529,-152.5"/>
<text text-anchor="middle" x="590.5" y="-159.5" font-family="Helvetica,sans-Serif" font-size="10.00">OBCT_get_total_cycle</text>
</a>
</g>
</g>
<!-- Node32&#45;&gt;Node33 -->
<g id="edge41" class="edge">
<title>Node32&#45;&gt;Node33</title>
<path fill="none" stroke="midnightblue" d="M480.35,-160.76C492.91,-160.9 506.09,-161.05 518.78,-161.19"/>
<polygon fill="midnightblue" stroke="midnightblue" points="518.79,-164.69 528.83,-161.31 518.87,-157.69 518.79,-164.69"/>
</g>
<!-- Node35 -->
<g id="node34" class="node">
<title>Node35</title>
<g id="a_node34"><a xlink:href="time__manager_8c.html#aa180c4f8294ed6b945934f378f5cd164" target="_top" xlink:title="OBC のクロック誤差を反映した cycles_per_sec を返す">
<polygon fill="white" stroke="black" points="519,-395 519,-425 662,-425 662,-395 519,-395"/>
<text text-anchor="start" x="527" y="-413" font-family="Helvetica,sans-Serif" font-size="10.00">TMGR_get_precice_cycles</text>
<text text-anchor="middle" x="590.5" y="-402" font-family="Helvetica,sans-Serif" font-size="10.00">_per_sec</text>
</a>
</g>
</g>
<!-- Node34&#45;&gt;Node35 -->
<g id="edge43" class="edge">
<title>Node34&#45;&gt;Node35</title>
<path fill="none" stroke="midnightblue" d="M447.72,-358.05C467.45,-366.65 492.95,-377.4 516,-386 521.11,-387.91 526.45,-389.81 531.81,-391.67"/>
<polygon fill="midnightblue" stroke="midnightblue" points="530.87,-395.05 541.46,-394.95 533.12,-388.42 530.87,-395.05"/>
</g>
<!-- Node36 -->
<g id="node35" class="node">
<title>Node36</title>
<g id="a_node35"><a xlink:href="time__manager_8c.html#a1a453793eb3f02a4a2e05afdb7c7d61d" target="_top" xlink:title="unixtime_at_ti0 を取得する">
<polygon fill="white" stroke="black" points="516,-307.5 516,-326.5 665,-326.5 665,-307.5 516,-307.5"/>
<text text-anchor="middle" x="590.5" y="-314.5" font-family="Helvetica,sans-Serif" font-size="10.00">TMGR_get_unixtime_at_ti0</text>
</a>
</g>
</g>
<!-- Node34&#45;&gt;Node36 -->
<g id="edge44" class="edge">
<title>Node34&#45;&gt;Node36</title>
<path fill="none" stroke="midnightblue" d="M475.87,-333.83C488.61,-331.95 502.15,-329.94 515.28,-328"/>
<polygon fill="midnightblue" stroke="midnightblue" points="515.84,-331.45 525.21,-326.52 514.81,-324.53 515.84,-331.45"/>
</g>
<!-- Node37 -->
<g id="node36" class="node">
<title>Node37</title>
<g id="a_node36"><a xlink:href="time__manager_8c.html#ab5376aa7e5a854b14c4af120bca9eef5" target="_top" xlink:title="UTL_cmdで用いる utl_unixtime を 一般的なunixtimeに変換する">
<polygon fill="white" stroke="black" points="518.5,-346 518.5,-376 662.5,-376 662.5,-346 518.5,-346"/>
<text text-anchor="start" x="526.5" y="-364" font-family="Helvetica,sans-Serif" font-size="10.00">TMGR_get_unixtime_from</text>
<text text-anchor="middle" x="590.5" y="-353" font-family="Helvetica,sans-Serif" font-size="10.00">_utl_unixtime</text>
</a>
</g>
</g>
<!-- Node34&#45;&gt;Node37 -->
<g id="edge45" class="edge">
<title>Node34&#45;&gt;Node37</title>
<path fill="none" stroke="midnightblue" d="M475.87,-349.35C486.38,-350.42 497.42,-351.56 508.33,-352.68"/>
<polygon fill="midnightblue" stroke="midnightblue" points="507.99,-356.16 518.29,-353.7 508.7,-349.19 507.99,-356.16"/>
</g>
<!-- Node38 -->
<g id="node37" class="node">
<title>Node38</title>
<g id="a_node37"><a xlink:href="time__manager_8c.html#a0a5d959b48e2040ad3cf8cafd0fd022c" target="_top" xlink:title="utl_unixtime_epoch を取得する">
<polygon fill="white" stroke="black" points="701,-313 701,-343 835,-343 835,-313 701,-313"/>
<text text-anchor="start" x="709" y="-331" font-family="Helvetica,sans-Serif" font-size="10.00">TMGR_get_utl_unixtime</text>
<text text-anchor="middle" x="768" y="-320" font-family="Helvetica,sans-Serif" font-size="10.00">_epoch</text>
</a>
</g>
</g>
<!-- Node37&#45;&gt;Node38 -->
<g id="edge46" class="edge">
<title>Node37&#45;&gt;Node38</title>
<path fill="none" stroke="midnightblue" d="M662.63,-347.63C671.91,-345.88 681.45,-344.09 690.81,-342.33"/>
<polygon fill="midnightblue" stroke="midnightblue" points="691.69,-345.72 700.87,-340.43 690.4,-338.84 691.69,-345.72"/>
</g>
<!-- Node40 -->
<g id="node39" class="node">
<title>Node40</title>
<g id="a_node39"><a xlink:href="block__command__table_8c.html#af4f041d9c2411d039196e8c2eb786005" target="_top" xlink:title="Cmd を block_command_table&#45;&gt;pos に登録する">
<polygon fill="white" stroke="black" points="360.5,-76.5 360.5,-95.5 465.5,-95.5 465.5,-76.5 360.5,-76.5"/>
<text text-anchor="middle" x="413" y="-83.5" font-family="Helvetica,sans-Serif" font-size="10.00">BCT_register_cmd</text>
</a>
</g>
</g>
<!-- Node39&#45;&gt;Node40 -->
<g id="edge48" class="edge">
<title>Node39&#45;&gt;Node40</title>
<path fill="none" stroke="midnightblue" d="M292.9,-108.49C311.34,-105 332.41,-101.03 351.64,-97.4"/>
<polygon fill="midnightblue" stroke="midnightblue" points="352.33,-100.83 361.5,-95.53 351.03,-93.95 352.33,-100.83"/>
</g>
<!-- Node41 -->
<g id="node40" class="node">
<title>Node41</title>
<g id="a_node40"><a xlink:href="block__command__table_8c.html#ae25a57a4a97b49bf13a4caa0b5e8ff76" target="_top" xlink:title="BCT_Pos* の validate">
<polygon fill="white" stroke="black" points="711,-114.5 711,-133.5 825,-133.5 825,-114.5 711,-114.5"/>
<text text-anchor="middle" x="768" y="-121.5" font-family="Helvetica,sans-Serif" font-size="10.00">BCT_check_position</text>
</a>
</g>
</g>
<!-- Node40&#45;&gt;Node41 -->
<g id="edge49" class="edge">
<title>Node40&#45;&gt;Node41</title>
<path fill="none" stroke="midnightblue" d="M459.28,-95.53C476.91,-98.95 497.33,-102.56 516,-105 578.43,-113.15 650.09,-118.15 700.82,-120.96"/>
<polygon fill="midnightblue" stroke="midnightblue" points="700.82,-124.46 710.99,-121.51 701.2,-117.47 700.82,-124.46"/>
</g>
<!-- Node42 -->
<g id="node41" class="node">
<title>Node42</title>
<g id="a_node41"><a xlink:href="block__command__table_8c.html#add2db8412ac7b28b2e61d99638daaac5" target="_top" xlink:title="BCT の length の getter">
<polygon fill="white" stroke="black" points="535.5,-38.5 535.5,-57.5 645.5,-57.5 645.5,-38.5 535.5,-38.5"/>
<text text-anchor="middle" x="590.5" y="-45.5" font-family="Helvetica,sans-Serif" font-size="10.00">BCT_get_bc_length</text>
</a>
</g>
</g>
<!-- Node40&#45;&gt;Node42 -->
<g id="edge50" class="edge">
<title>Node40&#45;&gt;Node42</title>
<path fill="none" stroke="midnightblue" d="M458.29,-76.41C481.76,-71.33 510.78,-65.04 535.56,-59.68"/>
<polygon fill="midnightblue" stroke="midnightblue" points="536.5,-63.06 545.53,-57.52 535.02,-56.22 536.5,-63.06"/>
</g>
<!-- Node43 -->
<g id="node42" class="node">
<title>Node43</title>
<g id="a_node42"><a xlink:href="block__command__table_8c.html#aa8c676311a614f56a48444ffb17f7e87" target="_top" xlink:title="pos の指す場所に packet の内容を保存 (TCP_PRM_HDR_LEN の長さも考慮)">
<polygon fill="white" stroke="black" points="542.5,-76.5 542.5,-95.5 638.5,-95.5 638.5,-76.5 542.5,-76.5"/>
<text text-anchor="middle" x="590.5" y="-83.5" font-family="Helvetica,sans-Serif" font-size="10.00">BCT_save_cmd_</text>
</a>
</g>
</g>
<!-- Node40&#45;&gt;Node43 -->
<g id="edge51" class="edge">
<title>Node40&#45;&gt;Node43</title>
<path fill="none" stroke="midnightblue" d="M465.71,-86C486.56,-86 510.7,-86 532.1,-86"/>
<polygon fill="midnightblue" stroke="midnightblue" points="532.35,-89.5 542.35,-86 532.35,-82.5 532.35,-89.5"/>
</g>
<!-- Node47 -->
<g id="node45" class="node">
<title>Node47</title>
<g id="a_node45"><a xlink:href="block__command__table_8c.html#a8de02d89c561030741c771739016db35" target="_top" xlink:title=" ">
<polygon fill="white" stroke="black" points="533.5,-0.5 533.5,-19.5 647.5,-19.5 647.5,-0.5 533.5,-0.5"/>
<text text-anchor="middle" x="590.5" y="-7.5" font-family="Helvetica,sans-Serif" font-size="10.00">BCT_set_bc_length_</text>
</a>
</g>
</g>
<!-- Node40&#45;&gt;Node47 -->
<g id="edge55" class="edge">
<title>Node40&#45;&gt;Node47</title>
<path fill="none" stroke="midnightblue" d="M428.28,-76.46C447.48,-64 483.05,-42.21 516,-29 522.16,-26.53 528.75,-24.29 535.35,-22.3"/>
<polygon fill="midnightblue" stroke="midnightblue" points="536.33,-25.66 544.99,-19.55 534.41,-18.93 536.33,-25.66"/>
</g>
<!-- Node43&#45;&gt;Node41 -->
<g id="edge52" class="edge">
<title>Node43&#45;&gt;Node41</title>
<path fill="none" stroke="midnightblue" d="M635.79,-95.59C659.26,-100.67 688.28,-106.96 713.06,-112.32"/>
<polygon fill="midnightblue" stroke="midnightblue" points="712.52,-115.78 723.03,-114.48 714,-108.94 712.52,-115.78"/>
</g>
<!-- Node44 -->
<g id="node43" class="node">
<title>Node44</title>
<g id="a_node43"><a xlink:href="block__command__table_8c.html#a5099527d441a777f4656300ab41037da" target="_top" xlink:title=" ">
<polygon fill="white" stroke="black" points="702.5,-38.5 702.5,-57.5 833.5,-57.5 833.5,-38.5 702.5,-38.5"/>
<text text-anchor="middle" x="768" y="-45.5" font-family="Helvetica,sans-Serif" font-size="10.00">BCT_set_bc_cmd_data_</text>
</a>
</g>
</g>
<!-- Node43&#45;&gt;Node44 -->
<g id="edge53" class="edge">
<title>Node43&#45;&gt;Node44</title>
<path fill="none" stroke="midnightblue" d="M635.79,-76.41C659.26,-71.33 688.28,-65.04 713.06,-59.68"/>
<polygon fill="midnightblue" stroke="midnightblue" points="714,-63.06 723.03,-57.52 712.52,-56.22 714,-63.06"/>
</g>
<!-- Node45 -->
<g id="node44" class="node">
<title>Node45</title>
<g id="a_node44"><a xlink:href="common__cmd__packet_8h.html#a09b2e0ad8f87be0782c0f8ef2523f44c" target="_top" xlink:title="パケット長を取得">
<polygon fill="white" stroke="red" points="710.5,-76.5 710.5,-95.5 825.5,-95.5 825.5,-76.5 710.5,-76.5"/>
<text text-anchor="middle" x="768" y="-83.5" font-family="Helvetica,sans-Serif" font-size="10.00">CCP_get_packet_len</text>
</a>
</g>
</g>
<!-- Node43&#45;&gt;Node45 -->
<g id="edge54" class="edge">
<title>Node43&#45;&gt;Node45</title>
<path fill="none" stroke="midnightblue" d="M638.53,-86C657.47,-86 679.65,-86 700.21,-86"/>
<polygon fill="midnightblue" stroke="midnightblue" points="700.46,-89.5 710.46,-86 700.46,-82.5 700.46,-89.5"/>
</g>
<!-- Node49 -->
<g id="node47" class="node">
<title>Node49</title>
<g id="a_node47"><a xlink:href="common__cmd__packet_8h.html#a120a6ef1fee069ab4c4013da8539e0eb" target="_top" xlink:title="DEST_TYPE を取得">
<polygon fill="white" stroke="black" points="713,-742.5 713,-761.5 823,-761.5 823,-742.5 713,-742.5"/>
<text text-anchor="middle" x="768" y="-749.5" font-family="Helvetica,sans-Serif" font-size="10.00">CCP_get_dest_type</text>
</a>
</g>
</g>
<!-- Node48&#45;&gt;Node49 -->
<g id="edge57" class="edge">
<title>Node48&#45;&gt;Node49</title>
<path fill="none" stroke="midnightblue" d="M653.87,-764.25C669.71,-762.53 686.76,-760.69 702.69,-758.96"/>
<polygon fill="midnightblue" stroke="midnightblue" points="703.41,-762.4 712.98,-757.85 702.66,-755.45 703.41,-762.4"/>
</g>
<!-- Node51 -->
<g id="node49" class="node">
<title>Node51</title>
<g id="a_node49"><a xlink:href="user__packet__handler_8c.html#a311f412a8baddf012c1c91324ca32a76" target="_top" xlink:title=" ">
<polygon fill="white" stroke="black" points="711.5,-818.5 711.5,-837.5 824.5,-837.5 824.5,-818.5 711.5,-818.5"/>
<text text-anchor="middle" x="768" y="-825.5" font-family="Helvetica,sans-Serif" font-size="10.00">PH_add_aobc_cmd_</text>
</a>
</g>
</g>
<!-- Node48&#45;&gt;Node51 -->
<g id="edge60" class="edge">
<title>Node48&#45;&gt;Node51</title>
<path fill="none" stroke="midnightblue" d="M617.92,-780.62C640.02,-788.55 672.42,-799.93 701,-809 708.03,-811.23 715.52,-813.49 722.83,-815.64"/>
<polygon fill="midnightblue" stroke="midnightblue" points="722.06,-819.06 732.64,-818.49 724.01,-812.34 722.06,-819.06"/>
</g>
<!-- Node52 -->
<g id="node50" class="node">
<title>Node52</title>
<g id="a_node50"><a xlink:href="user__packet__handler_8c.html#a4b0723acb8a522d6f5a481a679f9be10" target="_top" xlink:title=" ">
<polygon fill="white" stroke="black" points="712.5,-780.5 712.5,-799.5 823.5,-799.5 823.5,-780.5 712.5,-780.5"/>
<text text-anchor="middle" x="768" y="-787.5" font-family="Helvetica,sans-Serif" font-size="10.00">PH_add_tobc_cmd_</text>
</a>
</g>
</g>
<!-- Node48&#45;&gt;Node52 -->
<g id="edge62" class="edge">
<title>Node48&#45;&gt;Node52</title>
<path fill="none" stroke="midnightblue" d="M653.87,-777.75C669.55,-779.45 686.41,-781.28 702.2,-782.99"/>
<polygon fill="midnightblue" stroke="midnightblue" points="702.09,-786.49 712.41,-784.09 702.84,-779.53 702.09,-786.49"/>
</g>
<!-- Node50 -->
<g id="node48" class="node">
<title>Node50</title>
<g id="a_node48"><a xlink:href="cmd__space__packet_8c.html#aa6bbd3b94c3c8a9c0e0c26fc96b16b9d" target="_top" xlink:title="Destination Type を取得">
<polygon fill="white" stroke="black" points="871.5,-685.5 871.5,-704.5 981.5,-704.5 981.5,-685.5 871.5,-685.5"/>
<text text-anchor="middle" x="926.5" y="-692.5" font-family="Helvetica,sans-Serif" font-size="10.00">CSP_get_dest_type</text>
</a>
</g>
</g>
<!-- Node49&#45;&gt;Node50 -->
<g id="edge58" class="edge">
<title>Node49&#45;&gt;Node50</title>
<path fill="none" stroke="midnightblue" d="M805.21,-742.4C814.95,-739.6 825.44,-736.37 835,-733 855.29,-725.85 877.57,-716.51 894.95,-708.88"/>
<polygon fill="midnightblue" stroke="midnightblue" points="896.84,-711.87 904.56,-704.62 894,-705.47 896.84,-711.87"/>
</g>
<!-- Node50&#45;&gt;Node4 -->
<g id="edge59" class="edge">
<title>Node50&#45;&gt;Node4</title>
<path fill="none" stroke="midnightblue" d="M935.47,-685.04C946.63,-670.87 967.19,-643.82 982,-619 1020.26,-554.89 1056.46,-474.36 1073.62,-434.57"/>
<polygon fill="midnightblue" stroke="midnightblue" points="1076.94,-435.72 1077.66,-425.15 1070.5,-432.96 1076.94,-435.72"/>
</g>
<!-- Node51&#45;&gt;Node8 -->
<g id="edge61" class="edge">
<title>Node51&#45;&gt;Node8</title>
<path fill="none" stroke="midnightblue" d="M808.49,-818.41C829.14,-813.4 854.61,-807.21 876.51,-801.89"/>
<polygon fill="midnightblue" stroke="midnightblue" points="877.4,-805.28 886.29,-799.52 875.75,-798.48 877.4,-805.28"/>
</g>
<!-- Node52&#45;&gt;Node8 -->
<g id="edge63" class="edge">
<title>Node52&#45;&gt;Node8</title>
<path fill="none" stroke="midnightblue" d="M823.74,-790C839.93,-790 857.61,-790 873.62,-790"/>
<polygon fill="midnightblue" stroke="midnightblue" points="873.87,-793.5 883.87,-790 873.87,-786.5 873.87,-793.5"/>
</g>
</g>
</svg>
