<?xml version="1.0" encoding="UTF-8" standalone="no"?>
<!DOCTYPE svg PUBLIC "-//W3C//DTD SVG 1.1//EN"
 "http://www.w3.org/Graphics/SVG/1.1/DTD/svg11.dtd">
<!-- Generated by graphviz version 2.43.0 (0)
 -->
<!-- Title: PH_analyze_cmd_packet Pages: 1 -->
<svg width="1273pt" height="877pt"
 viewBox="0.00 0.00 1273.00 877.00" xmlns="http://www.w3.org/2000/svg" xmlns:xlink="http://www.w3.org/1999/xlink">
<g id="graph0" class="graph" transform="scale(1 1) rotate(0) translate(4 873)">
<title>PH_analyze_cmd_packet</title>
<polygon fill="white" stroke="transparent" points="-4,4 -4,-873 1269,-873 1269,4 -4,4"/>
<!-- Node1 -->
<g id="node1" class="node">
<title>Node1</title>
<g id="a_node1"><a xlink:title="CCP を解析する">
<polygon fill="#bfbfbf" stroke="black" points="0,-508.5 0,-527.5 137,-527.5 137,-508.5 0,-508.5"/>
<text text-anchor="middle" x="68.5" y="-515.5" font-family="Helvetica,sans-Serif" font-size="10.00">PH_analyze_cmd_packet</text>
</a>
</g>
</g>
<!-- Node2 -->
<g id="node2" class="node">
<title>Node2</title>
<g id="a_node2"><a xlink:href="common__cmd__packet_8h.html#a63dd7518abfbd0e6cedf6af2f376d854" target="_top" xlink:title="EXEC_TYPE を取得">
<polygon fill="white" stroke="black" points="175,-849.5 175,-868.5 287,-868.5 287,-849.5 175,-849.5"/>
<text text-anchor="middle" x="231" y="-856.5" font-family="Helvetica,sans-Serif" font-size="10.00">CCP_get_exec_type</text>
</a>
</g>
</g>
<!-- Node1&#45;&gt;Node2 -->
<g id="edge1" class="edge">
<title>Node1&#45;&gt;Node2</title>
<path fill="none" stroke="midnightblue" d="M70.54,-527.71C75.27,-567.87 97.9,-723.43 173,-821 180.28,-830.45 190.6,-838.33 200.47,-844.42"/>
<polygon fill="midnightblue" stroke="midnightblue" points="198.89,-847.55 209.3,-849.5 202.38,-841.48 198.89,-847.55"/>
</g>
<!-- Node7 -->
<g id="node6" class="node">
<title>Node7</title>
<g id="a_node6"><a xlink:href="common__cmd__packet_8h.html#add63f4e739670d463f6ace1f55fa3d48" target="_top" xlink:title="有効なパケットかチェックする">
<polygon fill="white" stroke="black" points="173,-202.5 173,-221.5 289,-221.5 289,-202.5 173,-202.5"/>
<text text-anchor="middle" x="231" y="-209.5" font-family="Helvetica,sans-Serif" font-size="10.00">CCP_is_valid_packet</text>
</a>
</g>
</g>
<!-- Node1&#45;&gt;Node7 -->
<g id="edge5" class="edge">
<title>Node1&#45;&gt;Node7</title>
<path fill="none" stroke="midnightblue" d="M71.74,-508.5C80.31,-473.47 113.61,-349.14 173,-264 182.62,-250.21 196.51,-237.44 208.17,-228.01"/>
<polygon fill="midnightblue" stroke="midnightblue" points="210.45,-230.67 216.18,-221.76 206.14,-225.15 210.45,-230.67"/>
</g>
<!-- Node12 -->
<g id="node10" class="node">
<title>Node12</title>
<g id="a_node10"><a xlink:href="packet__handler_8c.html#a6bf4c7283826236cc3ba39a9b8d90f32" target="_top" xlink:title=" ">
<polygon fill="white" stroke="black" points="173,-451.5 173,-470.5 289,-470.5 289,-451.5 173,-451.5"/>
<text text-anchor="middle" x="231" y="-458.5" font-family="Helvetica,sans-Serif" font-size="10.00">PH_add_block_cmd_</text>
</a>
</g>
</g>
<!-- Node1&#45;&gt;Node12 -->
<g id="edge9" class="edge">
<title>Node1&#45;&gt;Node12</title>
<path fill="none" stroke="midnightblue" d="M96.36,-508.46C122.98,-499.01 163.94,-484.46 193.5,-473.96"/>
<polygon fill="midnightblue" stroke="midnightblue" points="194.8,-477.22 203.05,-470.57 192.45,-470.62 194.8,-477.22"/>
</g>
<!-- Node20 -->
<g id="node18" class="node">
<title>Node20</title>
<g id="a_node18"><a xlink:href="packet__handler_8c.html#a7877bd048a812eccc6e5e32a48e4198d" target="_top" xlink:title=" ">
<polygon fill="white" stroke="black" points="180.5,-621.5 180.5,-640.5 281.5,-640.5 281.5,-621.5 180.5,-621.5"/>
<text text-anchor="middle" x="231" y="-628.5" font-family="Helvetica,sans-Serif" font-size="10.00">PH_add_gs_cmd_</text>
</a>
</g>
</g>
<!-- Node1&#45;&gt;Node20 -->
<g id="edge19" class="edge">
<title>Node1&#45;&gt;Node20</title>
<path fill="none" stroke="midnightblue" d="M83.18,-527.63C111.02,-547.23 174.44,-591.88 208.09,-615.57"/>
<polygon fill="midnightblue" stroke="midnightblue" points="206.16,-618.5 216.35,-621.39 210.19,-612.77 206.16,-618.5"/>
</g>
<!-- Node23 -->
<g id="node21" class="node">
<title>Node23</title>
<g id="a_node21"><a xlink:href="packet__handler_8c.html#a8d281dc795ac227a6631832887234892" target="_top" xlink:title=" ">
<polygon fill="white" stroke="black" points="182,-792.5 182,-811.5 280,-811.5 280,-792.5 182,-792.5"/>
<text text-anchor="middle" x="231" y="-799.5" font-family="Helvetica,sans-Serif" font-size="10.00">PH_add_rt_cmd_</text>
</a>
</g>
</g>
<!-- Node1&#45;&gt;Node23 -->
<g id="edge22" class="edge">
<title>Node1&#45;&gt;Node23</title>
<path fill="none" stroke="midnightblue" d="M72.86,-527.86C84.07,-560.05 122.38,-664.37 173,-740 184.21,-756.75 199.87,-773.43 211.94,-785.27"/>
<polygon fill="midnightblue" stroke="midnightblue" points="209.63,-787.9 219.27,-792.29 214.47,-782.85 209.63,-787.9"/>
</g>
<!-- Node24 -->
<g id="node22" class="node">
<title>Node24</title>
<g id="a_node22"><a xlink:href="packet__handler_8c.html#adaf645e2f92cac0b2d2120703546c35a" target="_top" xlink:title=" ">
<polygon fill="white" stroke="black" points="343.5,-508.5 343.5,-527.5 440.5,-527.5 440.5,-508.5 343.5,-508.5"/>
<text text-anchor="middle" x="392" y="-515.5" font-family="Helvetica,sans-Serif" font-size="10.00">PH_add_tl_cmd_</text>
</a>
</g>
</g>
<!-- Node1&#45;&gt;Node24 -->
<g id="edge24" class="edge">
<title>Node1&#45;&gt;Node24</title>
<path fill="none" stroke="midnightblue" d="M137.29,-518C195.27,-518 277.83,-518 332.85,-518"/>
<polygon fill="midnightblue" stroke="midnightblue" points="333.13,-521.5 343.13,-518 333.13,-514.5 333.13,-521.5"/>
</g>
<!-- Node34 -->
<g id="node32" class="node">
<title>Node34</title>
<g id="a_node32"><a xlink:href="packet__handler_8c.html#ae2142bcb006e578dcf3c557a2e4e43ae" target="_top" xlink:title="UTL_cmd を TL_cmd に変換して tl_cmd_list に追加する">
<polygon fill="white" stroke="black" points="179.5,-273.5 179.5,-292.5 282.5,-292.5 282.5,-273.5 179.5,-273.5"/>
<text text-anchor="middle" x="231" y="-280.5" font-family="Helvetica,sans-Serif" font-size="10.00">PH_add_utl_cmd_</text>
</a>
</g>
</g>
<!-- Node1&#45;&gt;Node34 -->
<g id="edge39" class="edge">
<title>Node1&#45;&gt;Node34</title>
<path fill="none" stroke="midnightblue" d="M75.99,-508.5C100.24,-473 185.75,-347.79 217.77,-300.91"/>
<polygon fill="midnightblue" stroke="midnightblue" points="220.68,-302.85 223.43,-292.62 214.9,-298.91 220.68,-302.85"/>
</g>
<!-- Node43 -->
<g id="node40" class="node">
<title>Node43</title>
<g id="a_node40"><a xlink:href="time__manager_8c.html#a576e42803f8f3896524dbb266a47a08f" target="_top" xlink:title="現在の total_cycle を返す">
<polygon fill="white" stroke="black" points="325,-76 325,-106 459,-106 459,-76 325,-76"/>
<text text-anchor="start" x="333" y="-94" font-family="Helvetica,sans-Serif" font-size="10.00">TMGR_get_master_total</text>
<text text-anchor="middle" x="392" y="-83" font-family="Helvetica,sans-Serif" font-size="10.00">_cycle</text>
</a>
</g>
</g>
<!-- Node1&#45;&gt;Node43 -->
<g id="edge64" class="edge">
<title>Node1&#45;&gt;Node43</title>
<path fill="none" stroke="midnightblue" d="M69.93,-508.49C72.33,-466.31 87.22,-293.79 173,-193 209.61,-149.98 268.35,-123.95 315.63,-108.97"/>
<polygon fill="midnightblue" stroke="midnightblue" points="316.69,-112.3 325.23,-106.02 314.64,-105.61 316.69,-112.3"/>
</g>
<!-- Node52 -->
<g id="node46" class="node">
<title>Node52</title>
<g id="a_node46"><a xlink:href="user__packet__handler_8c.html#a6ceb9e37114f6c81c6872ec90dd2a39d" target="_top" xlink:title="PH の analyze_cmd_ のユーザー処理関数">
<polygon fill="white" stroke="black" points="504,-731.5 504,-750.5 630,-750.5 630,-731.5 504,-731.5"/>
<text text-anchor="middle" x="567" y="-738.5" font-family="Helvetica,sans-Serif" font-size="10.00">PH_user_analyze_cmd</text>
</a>
</g>
</g>
<!-- Node1&#45;&gt;Node52 -->
<g id="edge56" class="edge">
<title>Node1&#45;&gt;Node52</title>
<path fill="none" stroke="midnightblue" d="M74.28,-527.67C86.88,-552.11 123.42,-616.75 173,-650 270.85,-715.63 409.82,-734.3 493.6,-739.39"/>
<polygon fill="midnightblue" stroke="midnightblue" points="493.61,-742.89 503.79,-739.95 494,-735.9 493.61,-742.89"/>
</g>
<!-- Node3 -->
<g id="node3" class="node">
<title>Node3</title>
<g id="a_node3"><a xlink:href="cmd__space__packet_8c.html#af0e6dd2c4432ce4d03442e5277766c0c" target="_top" xlink:title="Execution Type を取得">
<polygon fill="white" stroke="black" points="843.5,-840.5 843.5,-859.5 954.5,-859.5 954.5,-840.5 843.5,-840.5"/>
<text text-anchor="middle" x="899" y="-847.5" font-family="Helvetica,sans-Serif" font-size="10.00">CSP_get_exec_type</text>
</a>
</g>
</g>
<!-- Node2&#45;&gt;Node3 -->
<g id="edge2" class="edge">
<title>Node2&#45;&gt;Node3</title>
<path fill="none" stroke="midnightblue" d="M287.07,-858.26C409.2,-856.61 702.28,-852.64 833.07,-850.88"/>
<polygon fill="midnightblue" stroke="midnightblue" points="833.38,-854.37 843.33,-850.74 833.29,-847.37 833.38,-854.37"/>
</g>
<!-- Node4 -->
<g id="node4" class="node">
<title>Node4</title>
<g id="a_node4"><a xlink:href="space__packet_8c.html#a300c7fc3dea91319b0fa2f039f27d5eb" target="_top" xlink:title="packet に格納された param を取得">
<polygon fill="white" stroke="black" points="992,-778 992,-808 1126,-808 1126,-778 992,-778"/>
<text text-anchor="start" x="1000" y="-796" font-family="Helvetica,sans-Serif" font-size="10.00">SP_extract_param_from</text>
<text text-anchor="middle" x="1059" y="-785" font-family="Helvetica,sans-Serif" font-size="10.00">_packet</text>
</a>
</g>
</g>
<!-- Node3&#45;&gt;Node4 -->
<g id="edge3" class="edge">
<title>Node3&#45;&gt;Node4</title>
<path fill="none" stroke="midnightblue" d="M926.45,-840.46C948.27,-832.58 979.9,-821.17 1006.67,-811.52"/>
<polygon fill="midnightblue" stroke="midnightblue" points="1008.07,-814.73 1016.29,-808.05 1005.7,-808.15 1008.07,-814.73"/>
</g>
<!-- Node5 -->
<g id="node5" class="node">
<title>Node5</title>
<g id="a_node5"><a xlink:href="endian_8c.html#af3c71c10af16134e94da32e1e0d8d0f8" target="_top" xlink:title="エンディアンを考慮した memcpy">
<polygon fill="white" stroke="red" points="1162,-783.5 1162,-802.5 1265,-802.5 1265,-783.5 1162,-783.5"/>
<text text-anchor="middle" x="1213.5" y="-790.5" font-family="Helvetica,sans-Serif" font-size="10.00">ENDIAN_memcpy</text>
</a>
</g>
</g>
<!-- Node4&#45;&gt;Node5 -->
<g id="edge4" class="edge">
<title>Node4&#45;&gt;Node5</title>
<path fill="none" stroke="midnightblue" d="M1126,-793C1134.47,-793 1143.11,-793 1151.5,-793"/>
<polygon fill="midnightblue" stroke="midnightblue" points="1151.57,-796.5 1161.57,-793 1151.57,-789.5 1151.57,-796.5"/>
</g>
<!-- Node8 -->
<g id="node7" class="node">
<title>Node8</title>
<g id="a_node7"><a xlink:href="common__cmd__packet_8c.html#a09b2e0ad8f87be0782c0f8ef2523f44c" target="_top" xlink:title="パケット長を取得">
<polygon fill="white" stroke="black" points="334.5,-125.5 334.5,-144.5 449.5,-144.5 449.5,-125.5 334.5,-125.5"/>
<text text-anchor="middle" x="392" y="-132.5" font-family="Helvetica,sans-Serif" font-size="10.00">CCP_get_packet_len</text>
</a>
</g>
</g>
<!-- Node7&#45;&gt;Node8 -->
<g id="edge6" class="edge">
<title>Node7&#45;&gt;Node8</title>
<path fill="none" stroke="midnightblue" d="M244.9,-202.32C262.29,-189.68 294.58,-167.55 325,-154 330.3,-151.64 335.98,-149.49 341.69,-147.55"/>
<polygon fill="midnightblue" stroke="midnightblue" points="342.81,-150.87 351.27,-144.5 340.68,-144.2 342.81,-150.87"/>
</g>
<!-- Node9 -->
<g id="node8" class="node">
<title>Node9</title>
<g id="a_node8"><a xlink:href="cmd__space__packet_8c.html#aee157565d728de693218da48114b5923" target="_top" xlink:title="Packet Length を取得">
<polygon fill="white" stroke="black" points="842,-175.5 842,-194.5 956,-194.5 956,-175.5 842,-175.5"/>
<text text-anchor="middle" x="899" y="-182.5" font-family="Helvetica,sans-Serif" font-size="10.00">CSP_get_packet_len</text>
</a>
</g>
</g>
<!-- Node8&#45;&gt;Node9 -->
<g id="edge7" class="edge">
<title>Node8&#45;&gt;Node9</title>
<path fill="none" stroke="midnightblue" d="M438.44,-125.41C445.69,-122.73 452.82,-119.33 459,-115 480.85,-99.71 471.15,-78.93 495,-67 552.24,-38.38 576.46,-53.42 639,-67 731.42,-87.06 830.41,-143.08 874.49,-170.08"/>
<polygon fill="midnightblue" stroke="midnightblue" points="872.7,-173.08 883.04,-175.37 876.39,-167.13 872.7,-173.08"/>
</g>
<!-- Node10 -->
<g id="node9" class="node">
<title>Node10</title>
<g id="a_node9"><a xlink:href="space__packet_8c.html#a25afed909fb67da49f5ac9921a23744f" target="_top" xlink:title="Packet Length を取得">
<polygon fill="white" stroke="red" points="1005.5,-194.5 1005.5,-213.5 1112.5,-213.5 1112.5,-194.5 1005.5,-194.5"/>
<text text-anchor="middle" x="1059" y="-201.5" font-family="Helvetica,sans-Serif" font-size="10.00">SP_get_packet_len</text>
</a>
</g>
</g>
<!-- Node9&#45;&gt;Node10 -->
<g id="edge8" class="edge">
<title>Node9&#45;&gt;Node10</title>
<path fill="none" stroke="midnightblue" d="M956.15,-191.75C968.82,-193.28 982.34,-194.9 995.26,-196.46"/>
<polygon fill="midnightblue" stroke="midnightblue" points="995.12,-199.96 1005.47,-197.68 995.95,-193.01 995.12,-199.96"/>
</g>
<!-- Node13 -->
<g id="node11" class="node">
<title>Node13</title>
<g id="a_node11"><a xlink:href="block__command__table_8c.html#af4f041d9c2411d039196e8c2eb786005" target="_top" xlink:title="Cmd を block_command_table&#45;&gt;pos に登録する">
<polygon fill="white" stroke="black" points="339.5,-441.5 339.5,-460.5 444.5,-460.5 444.5,-441.5 339.5,-441.5"/>
<text text-anchor="middle" x="392" y="-448.5" font-family="Helvetica,sans-Serif" font-size="10.00">BCT_register_cmd</text>
</a>
</g>
</g>
<!-- Node12&#45;&gt;Node13 -->
<g id="edge10" class="edge">
<title>Node12&#45;&gt;Node13</title>
<path fill="none" stroke="midnightblue" d="M289.4,-457.39C302.32,-456.58 316.08,-455.71 329.16,-454.89"/>
<polygon fill="midnightblue" stroke="midnightblue" points="329.73,-458.36 339.49,-454.24 329.29,-451.37 329.73,-458.36"/>
</g>
<!-- Node14 -->
<g id="node12" class="node">
<title>Node14</title>
<g id="a_node12"><a xlink:href="block__command__table_8c.html#ae25a57a4a97b49bf13a4caa0b5e8ff76" target="_top" xlink:title="BCT_Pos* の validate">
<polygon fill="white" stroke="black" points="683.5,-251.5 683.5,-270.5 797.5,-270.5 797.5,-251.5 683.5,-251.5"/>
<text text-anchor="middle" x="740.5" y="-258.5" font-family="Helvetica,sans-Serif" font-size="10.00">BCT_check_position</text>
</a>
</g>
</g>
<!-- Node13&#45;&gt;Node14 -->
<g id="edge11" class="edge">
<title>Node13&#45;&gt;Node14</title>
<path fill="none" stroke="midnightblue" d="M400.58,-441.27C416.13,-421.98 453.68,-378.79 495,-356 552.96,-324.04 582.07,-351.76 639,-318 659.01,-306.13 655.16,-292.15 675,-280 678.43,-277.9 682.1,-276.02 685.9,-274.34"/>
<polygon fill="midnightblue" stroke="midnightblue" points="687.47,-277.48 695.49,-270.57 684.9,-270.97 687.47,-277.48"/>
</g>
<!-- Node15 -->
<g id="node13" class="node">
<title>Node15</title>
<g id="a_node13"><a xlink:href="block__command__table_8c.html#add2db8412ac7b28b2e61d99638daaac5" target="_top" xlink:title="BCT の length の getter">
<polygon fill="white" stroke="black" points="512,-479.5 512,-498.5 622,-498.5 622,-479.5 512,-479.5"/>
<text text-anchor="middle" x="567" y="-486.5" font-family="Helvetica,sans-Serif" font-size="10.00">BCT_get_bc_length</text>
</a>
</g>
</g>
<!-- Node13&#45;&gt;Node15 -->
<g id="edge12" class="edge">
<title>Node13&#45;&gt;Node15</title>
<path fill="none" stroke="midnightblue" d="M436.66,-460.59C459.79,-465.67 488.4,-471.96 512.83,-477.32"/>
<polygon fill="midnightblue" stroke="midnightblue" points="512.14,-480.75 522.66,-479.48 513.64,-473.92 512.14,-480.75"/>
</g>
<!-- Node16 -->
<g id="node14" class="node">
<title>Node16</title>
<g id="a_node14"><a xlink:href="block__command__table_8c.html#aa8c676311a614f56a48444ffb17f7e87" target="_top" xlink:title="pos の指す場所に packet の内容を保存 (TCP_PRM_HDR_LEN の長さも考慮)">
<polygon fill="white" stroke="black" points="519,-365.5 519,-384.5 615,-384.5 615,-365.5 519,-365.5"/>
<text text-anchor="middle" x="567" y="-372.5" font-family="Helvetica,sans-Serif" font-size="10.00">BCT_save_cmd_</text>
</a>
</g>
</g>
<!-- Node13&#45;&gt;Node16 -->
<g id="edge13" class="edge">
<title>Node13&#45;&gt;Node16</title>
<path fill="none" stroke="midnightblue" d="M414.91,-441.37C445.33,-428.01 500.5,-403.77 535.09,-388.58"/>
<polygon fill="midnightblue" stroke="midnightblue" points="536.52,-391.77 544.27,-384.55 533.7,-385.36 536.52,-391.77"/>
</g>
<!-- Node19 -->
<g id="node17" class="node">
<title>Node19</title>
<g id="a_node17"><a xlink:href="block__command__table_8c.html#a8de02d89c561030741c771739016db35" target="_top" xlink:title=" ">
<polygon fill="white" stroke="black" points="510,-441.5 510,-460.5 624,-460.5 624,-441.5 510,-441.5"/>
<text text-anchor="middle" x="567" y="-448.5" font-family="Helvetica,sans-Serif" font-size="10.00">BCT_set_bc_length_</text>
</a>
</g>
</g>
<!-- Node13&#45;&gt;Node19 -->
<g id="edge18" class="edge">
<title>Node13&#45;&gt;Node19</title>
<path fill="none" stroke="midnightblue" d="M444.91,-451C462.12,-451 481.53,-451 499.69,-451"/>
<polygon fill="midnightblue" stroke="midnightblue" points="499.91,-454.5 509.91,-451 499.91,-447.5 499.91,-454.5"/>
</g>
<!-- Node16&#45;&gt;Node14 -->
<g id="edge14" class="edge">
<title>Node16&#45;&gt;Node14</title>
<path fill="none" stroke="midnightblue" d="M613.6,-365.41C622.72,-361.97 631.72,-357.3 639,-351 665.74,-327.84 647.8,-302.63 675,-280 677.04,-278.3 679.23,-276.75 681.52,-275.35"/>
<polygon fill="midnightblue" stroke="midnightblue" points="683.51,-278.26 690.79,-270.57 680.3,-272.04 683.51,-278.26"/>
</g>
<!-- Node17 -->
<g id="node15" class="node">
<title>Node17</title>
<g id="a_node15"><a xlink:href="block__command__table_8c.html#a5099527d441a777f4656300ab41037da" target="_top" xlink:title=" ">
<polygon fill="white" stroke="black" points="675,-327.5 675,-346.5 806,-346.5 806,-327.5 675,-327.5"/>
<text text-anchor="middle" x="740.5" y="-334.5" font-family="Helvetica,sans-Serif" font-size="10.00">BCT_set_bc_cmd_data_</text>
</a>
</g>
</g>
<!-- Node16&#45;&gt;Node17 -->
<g id="edge15" class="edge">
<title>Node16&#45;&gt;Node17</title>
<path fill="none" stroke="midnightblue" d="M611.28,-365.41C634.11,-360.35 662.32,-354.1 686.46,-348.75"/>
<polygon fill="midnightblue" stroke="midnightblue" points="687.53,-352.1 696.53,-346.52 686.01,-345.27 687.53,-352.1"/>
</g>
<!-- Node18 -->
<g id="node16" class="node">
<title>Node18</title>
<g id="a_node16"><a xlink:href="common__cmd__packet_8h.html#a09b2e0ad8f87be0782c0f8ef2523f44c" target="_top" xlink:title="パケット長を取得">
<polygon fill="white" stroke="black" points="683,-289.5 683,-308.5 798,-308.5 798,-289.5 683,-289.5"/>
<text text-anchor="middle" x="740.5" y="-296.5" font-family="Helvetica,sans-Serif" font-size="10.00">CCP_get_packet_len</text>
</a>
</g>
</g>
<!-- Node16&#45;&gt;Node18 -->
<g id="edge16" class="edge">
<title>Node16&#45;&gt;Node18</title>
<path fill="none" stroke="midnightblue" d="M605.76,-365.45C616.89,-361.8 628.81,-357.03 639,-351 657.68,-339.95 656.1,-328.68 675,-318 678.88,-315.81 683.03,-313.85 687.3,-312.1"/>
<polygon fill="midnightblue" stroke="midnightblue" points="688.58,-315.36 696.74,-308.6 686.14,-308.8 688.58,-315.36"/>
</g>
<!-- Node18&#45;&gt;Node9 -->
<g id="edge17" class="edge">
<title>Node18&#45;&gt;Node9</title>
<path fill="none" stroke="midnightblue" d="M790.64,-289.41C796.19,-286.95 801.48,-283.87 806,-280 834.41,-255.71 814.09,-228.86 842,-204 843.91,-202.3 845.98,-200.75 848.16,-199.33"/>
<polygon fill="midnightblue" stroke="midnightblue" points="849.89,-202.38 857.01,-194.54 846.55,-196.22 849.89,-202.38"/>
</g>
<!-- Node21 -->
<g id="node19" class="node">
<title>Node21</title>
<g id="a_node19"><a xlink:href="packet__list_8c.html#afaf80120b8b97c0fdf3099e13e9019be" target="_top" xlink:title="PacketList の末尾に packet を挿入">
<polygon fill="white" stroke="black" points="856.5,-669.5 856.5,-688.5 941.5,-688.5 941.5,-669.5 856.5,-669.5"/>
<text text-anchor="middle" x="899" y="-676.5" font-family="Helvetica,sans-Serif" font-size="10.00">PL_push_back</text>
</a>
</g>
</g>
<!-- Node20&#45;&gt;Node21 -->
<g id="edge20" class="edge">
<title>Node20&#45;&gt;Node21</title>
<path fill="none" stroke="midnightblue" d="M281.51,-634.57C404.23,-643.41 721.48,-666.28 846.38,-675.28"/>
<polygon fill="midnightblue" stroke="midnightblue" points="846.23,-678.78 856.45,-676.01 846.73,-671.8 846.23,-678.78"/>
</g>
<!-- Node22 -->
<g id="node20" class="node">
<title>Node22</title>
<g id="a_node20"><a xlink:href="packet__list_8c.html#a16ea3d3b9925532e2772678215e38abb" target="_top" xlink:title="未使用 Node を新規に取得">
<polygon fill="white" stroke="black" points="1005,-593.5 1005,-612.5 1113,-612.5 1113,-593.5 1005,-593.5"/>
<text text-anchor="middle" x="1059" y="-600.5" font-family="Helvetica,sans-Serif" font-size="10.00">PL_get_free_node_</text>
</a>
</g>
</g>
<!-- Node21&#45;&gt;Node22 -->
<g id="edge21" class="edge">
<title>Node21&#45;&gt;Node22</title>
<path fill="none" stroke="midnightblue" d="M920.01,-669.37C947.55,-656.13 997.32,-632.19 1028.96,-616.97"/>
<polygon fill="midnightblue" stroke="midnightblue" points="1030.66,-620.04 1038.15,-612.55 1027.62,-613.73 1030.66,-620.04"/>
</g>
<!-- Node23&#45;&gt;Node21 -->
<g id="edge23" class="edge">
<title>Node23&#45;&gt;Node21</title>
<path fill="none" stroke="midnightblue" d="M280.05,-808.62C401.11,-824.4 715.41,-859.49 806,-812 829.88,-799.48 869.7,-730.9 888.11,-697.41"/>
<polygon fill="midnightblue" stroke="midnightblue" points="891.2,-699.07 892.9,-688.61 885.05,-695.72 891.2,-699.07"/>
</g>
<!-- Node25 -->
<g id="node23" class="node">
<title>Node25</title>
<g id="a_node23"><a xlink:href="packet__list_8c.html#ac711a46f484040b1c67c522fbd96b826" target="_top" xlink:title="CCP が時系列に並ぶように CCP を挿入する">
<polygon fill="white" stroke="black" points="517.5,-517.5 517.5,-536.5 616.5,-536.5 616.5,-517.5 517.5,-517.5"/>
<text text-anchor="middle" x="567" y="-524.5" font-family="Helvetica,sans-Serif" font-size="10.00">PL_insert_tl_cmd</text>
</a>
</g>
</g>
<!-- Node24&#45;&gt;Node25 -->
<g id="edge25" class="edge">
<title>Node24&#45;&gt;Node25</title>
<path fill="none" stroke="midnightblue" d="M440.73,-520.48C461.28,-521.55 485.51,-522.81 507.16,-523.94"/>
<polygon fill="midnightblue" stroke="midnightblue" points="507.05,-527.44 517.22,-524.46 507.42,-520.45 507.05,-527.44"/>
</g>
<!-- Node25&#45;&gt;Node21 -->
<g id="edge36" class="edge">
<title>Node25&#45;&gt;Node21</title>
<path fill="none" stroke="midnightblue" d="M576.04,-536.74C592.53,-556.05 632.22,-599.28 675,-622 704.4,-637.61 790.01,-657.05 846.19,-668.72"/>
<polygon fill="midnightblue" stroke="midnightblue" points="845.82,-672.22 856.32,-670.8 847.23,-665.36 845.82,-672.22"/>
</g>
<!-- Node26 -->
<g id="node24" class="node">
<title>Node26</title>
<g id="a_node24"><a xlink:href="common__cmd__packet_8h.html#ad1a6be053f894381150410e424ec20ab" target="_top" xlink:title="TI を取得">
<polygon fill="white" stroke="black" points="706,-403.5 706,-422.5 775,-422.5 775,-403.5 706,-403.5"/>
<text text-anchor="middle" x="740.5" y="-410.5" font-family="Helvetica,sans-Serif" font-size="10.00">CCP_get_ti</text>
</a>
</g>
</g>
<!-- Node25&#45;&gt;Node26 -->
<g id="edge26" class="edge">
<title>Node25&#45;&gt;Node26</title>
<path fill="none" stroke="midnightblue" d="M616.59,-520.05C624.68,-517.27 632.53,-513.39 639,-508 667.71,-484.07 646.59,-456.29 675,-432 681.05,-426.83 688.46,-423.06 696.06,-420.32"/>
<polygon fill="midnightblue" stroke="midnightblue" points="697.18,-423.64 705.72,-417.37 695.14,-416.94 697.18,-423.64"/>
</g>
<!-- Node28 -->
<g id="node26" class="node">
<title>Node28</title>
<g id="a_node26"><a xlink:href="packet__list_8c.html#a2b6b5b3ed753070e0ef0b14556311263" target="_top" xlink:title="PacketList の active な先頭 Node を取得">
<polygon fill="white" stroke="black" points="701.5,-555.5 701.5,-574.5 779.5,-574.5 779.5,-555.5 701.5,-555.5"/>
<text text-anchor="middle" x="740.5" y="-562.5" font-family="Helvetica,sans-Serif" font-size="10.00">PL_get_head</text>
</a>
</g>
</g>
<!-- Node25&#45;&gt;Node28 -->
<g id="edge29" class="edge">
<title>Node25&#45;&gt;Node28</title>
<path fill="none" stroke="midnightblue" d="M611.28,-536.59C635.7,-542 666.26,-548.77 691.43,-554.35"/>
<polygon fill="midnightblue" stroke="midnightblue" points="690.97,-557.83 701.49,-556.58 692.49,-551 690.97,-557.83"/>
</g>
<!-- Node29 -->
<g id="node27" class="node">
<title>Node29</title>
<g id="a_node27"><a xlink:href="packet__list_8c.html#a7b5027b1d6d804ce0c4b650ef214df53" target="_top" xlink:title="PacketList の active な末端 Node を取得">
<polygon fill="white" stroke="black" points="705.5,-517.5 705.5,-536.5 775.5,-536.5 775.5,-517.5 705.5,-517.5"/>
<text text-anchor="middle" x="740.5" y="-524.5" font-family="Helvetica,sans-Serif" font-size="10.00">PL_get_tail</text>
</a>
</g>
</g>
<!-- Node25&#45;&gt;Node29 -->
<g id="edge30" class="edge">
<title>Node25&#45;&gt;Node29</title>
<path fill="none" stroke="midnightblue" d="M616.69,-527C641.36,-527 671.1,-527 695.13,-527"/>
<polygon fill="midnightblue" stroke="midnightblue" points="695.39,-530.5 705.39,-527 695.39,-523.5 695.39,-530.5"/>
</g>
<!-- Node30 -->
<g id="node28" class="node">
<title>Node30</title>
<g id="a_node28"><a xlink:href="packet__list_8c.html#a6b3b63e47f62fb71acd7de1381f5a0a4" target="_top" xlink:title="ある Node の直後に packet を挿入">
<polygon fill="white" stroke="black" points="696,-593.5 696,-612.5 785,-612.5 785,-593.5 696,-593.5"/>
<text text-anchor="middle" x="740.5" y="-600.5" font-family="Helvetica,sans-Serif" font-size="10.00">PL_insert_after</text>
</a>
</g>
</g>
<!-- Node25&#45;&gt;Node30 -->
<g id="edge31" class="edge">
<title>Node25&#45;&gt;Node30</title>
<path fill="none" stroke="midnightblue" d="M583.47,-536.53C603.85,-548.79 641.1,-570.15 675,-584 680.54,-586.26 686.44,-588.38 692.35,-590.32"/>
<polygon fill="midnightblue" stroke="midnightblue" points="691.63,-593.77 702.22,-593.42 693.72,-587.09 691.63,-593.77"/>
</g>
<!-- Node31 -->
<g id="node29" class="node">
<title>Node31</title>
<g id="a_node29"><a xlink:href="packet__list_8c.html#afefb37c36db47052d2e2b7e4d6c2274b" target="_top" xlink:title="PacketList が空かどうか">
<polygon fill="white" stroke="black" points="701.5,-479.5 701.5,-498.5 779.5,-498.5 779.5,-479.5 701.5,-479.5"/>
<text text-anchor="middle" x="740.5" y="-486.5" font-family="Helvetica,sans-Serif" font-size="10.00">PL_is_empty</text>
</a>
</g>
</g>
<!-- Node25&#45;&gt;Node31 -->
<g id="edge34" class="edge">
<title>Node25&#45;&gt;Node31</title>
<path fill="none" stroke="midnightblue" d="M611.28,-517.41C635.7,-512 666.26,-505.23 691.43,-499.65"/>
<polygon fill="midnightblue" stroke="midnightblue" points="692.49,-503 701.49,-497.42 690.97,-496.17 692.49,-503"/>
</g>
<!-- Node32 -->
<g id="node30" class="node">
<title>Node32</title>
<g id="a_node30"><a xlink:href="packet__list_8c.html#aee623fa81c4a8a1f3b0775a3a5d2925b" target="_top" xlink:title="PacketList が満杯かどうか">
<polygon fill="white" stroke="black" points="709.5,-441.5 709.5,-460.5 771.5,-460.5 771.5,-441.5 709.5,-441.5"/>
<text text-anchor="middle" x="740.5" y="-448.5" font-family="Helvetica,sans-Serif" font-size="10.00">PL_is_full</text>
</a>
</g>
</g>
<!-- Node25&#45;&gt;Node32 -->
<g id="edge35" class="edge">
<title>Node25&#45;&gt;Node32</title>
<path fill="none" stroke="midnightblue" d="M616.81,-517.78C624.53,-515.25 632.2,-512.05 639,-508 658.99,-496.1 655.16,-482.15 675,-470 682.44,-465.44 691.04,-461.93 699.48,-459.23"/>
<polygon fill="midnightblue" stroke="midnightblue" points="700.59,-462.56 709.24,-456.44 698.66,-455.83 700.59,-462.56"/>
</g>
<!-- Node33 -->
<g id="node31" class="node">
<title>Node33</title>
<g id="a_node31"><a xlink:href="packet__list_8c.html#a46379e787e8e3c97939b08e6c838372a" target="_top" xlink:title="PacketList の先頭に packet を挿入">
<polygon fill="white" stroke="black" points="856.5,-403.5 856.5,-422.5 941.5,-422.5 941.5,-403.5 856.5,-403.5"/>
<text text-anchor="middle" x="899" y="-410.5" font-family="Helvetica,sans-Serif" font-size="10.00">PL_push_front</text>
</a>
</g>
</g>
<!-- Node25&#45;&gt;Node33 -->
<g id="edge37" class="edge">
<title>Node25&#45;&gt;Node33</title>
<path fill="none" stroke="midnightblue" d="M616.85,-520.89C625.01,-518.03 632.82,-513.91 639,-508 677.4,-471.27 632.14,-425.41 675,-394 732.67,-351.74 822.64,-380.04 868.69,-399.31"/>
<polygon fill="midnightblue" stroke="midnightblue" points="867.52,-402.61 878.08,-403.37 870.29,-396.19 867.52,-402.61"/>
</g>
<!-- Node27 -->
<g id="node25" class="node">
<title>Node27</title>
<g id="a_node25"><a xlink:href="cmd__space__packet_8c.html#a8d726fa3f96fbe2be1a779719445b528" target="_top" xlink:title="Time Indicator (TI) を取得">
<polygon fill="white" stroke="black" points="865,-479.5 865,-498.5 933,-498.5 933,-479.5 865,-479.5"/>
<text text-anchor="middle" x="899" y="-486.5" font-family="Helvetica,sans-Serif" font-size="10.00">CSP_get_ti</text>
</a>
</g>
</g>
<!-- Node26&#45;&gt;Node27 -->
<g id="edge27" class="edge">
<title>Node26&#45;&gt;Node27</title>
<path fill="none" stroke="midnightblue" d="M775.26,-421.1C785.35,-424.01 796.3,-427.66 806,-432 831.41,-443.37 858.23,-460.67 876.31,-473.23"/>
<polygon fill="midnightblue" stroke="midnightblue" points="874.73,-476.4 884.92,-479.31 878.77,-470.68 874.73,-476.4"/>
</g>
<!-- Node27&#45;&gt;Node4 -->
<g id="edge28" class="edge">
<title>Node27&#45;&gt;Node4</title>
<path fill="none" stroke="midnightblue" d="M905.08,-498.77C926.84,-540.64 1012.58,-705.62 1045.26,-768.49"/>
<polygon fill="midnightblue" stroke="midnightblue" points="1042.31,-770.41 1050.03,-777.67 1048.52,-767.18 1042.31,-770.41"/>
</g>
<!-- Node30&#45;&gt;Node21 -->
<g id="edge33" class="edge">
<title>Node30&#45;&gt;Node21</title>
<path fill="none" stroke="midnightblue" d="M770.15,-612.56C781.48,-616.63 794.52,-621.66 806,-627 829.91,-638.12 855.97,-653.14 874.23,-664.18"/>
<polygon fill="midnightblue" stroke="midnightblue" points="872.41,-667.17 882.77,-669.4 876.06,-661.2 872.41,-667.17"/>
</g>
<!-- Node30&#45;&gt;Node22 -->
<g id="edge32" class="edge">
<title>Node30&#45;&gt;Node22</title>
<path fill="none" stroke="midnightblue" d="M785.18,-603C839.47,-603 932.55,-603 994.67,-603"/>
<polygon fill="midnightblue" stroke="midnightblue" points="994.75,-606.5 1004.75,-603 994.75,-599.5 994.75,-606.5"/>
</g>
<!-- Node33&#45;&gt;Node22 -->
<g id="edge38" class="edge">
<title>Node33&#45;&gt;Node22</title>
<path fill="none" stroke="midnightblue" d="M910.3,-422.74C921.83,-433.81 940.9,-452.62 956,-470 990.32,-509.49 1026.75,-559.12 1045.39,-585.16"/>
<polygon fill="midnightblue" stroke="midnightblue" points="1042.56,-587.22 1051.21,-593.33 1048.26,-583.16 1042.56,-587.22"/>
</g>
<!-- Node34&#45;&gt;Node24 -->
<g id="edge49" class="edge">
<title>Node34&#45;&gt;Node24</title>
<path fill="none" stroke="midnightblue" d="M235.03,-292.89C244.46,-322.42 275.61,-411.57 325,-470 336.15,-483.19 351.64,-494.7 364.81,-503.14"/>
<polygon fill="midnightblue" stroke="midnightblue" points="363.13,-506.21 373.48,-508.47 366.8,-500.25 363.13,-506.21"/>
</g>
<!-- Node34&#45;&gt;Node26 -->
<g id="edge44" class="edge">
<title>Node34&#45;&gt;Node26</title>
<path fill="none" stroke="midnightblue" d="M249.18,-292.58C290.21,-314.91 397.72,-370.35 495,-394 563.75,-410.71 646.27,-413.73 695.71,-413.8"/>
<polygon fill="midnightblue" stroke="midnightblue" points="695.76,-417.3 705.75,-413.77 695.74,-410.3 695.76,-417.3"/>
</g>
<!-- Node35 -->
<g id="node33" class="node">
<title>Node35</title>
<g id="a_node33"><a xlink:href="common__cmd__packet_8h.html#aff399e79c4a5c9d75552b295de0d3365" target="_top" xlink:title="CommonCmdPacket をコピー">
<polygon fill="white" stroke="black" points="341,-289.5 341,-308.5 443,-308.5 443,-289.5 341,-289.5"/>
<text text-anchor="middle" x="392" y="-296.5" font-family="Helvetica,sans-Serif" font-size="10.00">CCP_copy_packet</text>
</a>
</g>
</g>
<!-- Node34&#45;&gt;Node35 -->
<g id="edge40" class="edge">
<title>Node34&#45;&gt;Node35</title>
<path fill="none" stroke="midnightblue" d="M282.75,-288.11C297.95,-289.64 314.79,-291.33 330.55,-292.92"/>
<polygon fill="midnightblue" stroke="midnightblue" points="330.44,-296.42 340.74,-293.94 331.14,-289.46 330.44,-296.42"/>
</g>
<!-- Node38 -->
<g id="node36" class="node">
<title>Node38</title>
<g id="a_node36"><a xlink:href="common__cmd__packet_8h.html#ab4c0b1be76b7097e922a8a354f500b88" target="_top" xlink:title="EXEC_TYPE を設定">
<polygon fill="white" stroke="black" points="336.5,-201.5 336.5,-220.5 447.5,-220.5 447.5,-201.5 336.5,-201.5"/>
<text text-anchor="middle" x="392" y="-208.5" font-family="Helvetica,sans-Serif" font-size="10.00">CCP_set_exec_type</text>
</a>
</g>
</g>
<!-- Node34&#45;&gt;Node38 -->
<g id="edge45" class="edge">
<title>Node34&#45;&gt;Node38</title>
<path fill="none" stroke="midnightblue" d="M246.95,-273.3C264.92,-261.98 296.23,-243.23 325,-231 331.29,-228.32 338.06,-225.85 344.78,-223.61"/>
<polygon fill="midnightblue" stroke="midnightblue" points="346.06,-226.88 354.53,-220.52 343.94,-220.21 346.06,-226.88"/>
</g>
<!-- Node41 -->
<g id="node38" class="node">
<title>Node41</title>
<g id="a_node38"><a xlink:href="common__cmd__packet_8h.html#a1fde7575e47a25464d869a3247e1e087" target="_top" xlink:title="TI を設定">
<polygon fill="white" stroke="black" points="358,-163.5 358,-182.5 426,-182.5 426,-163.5 358,-163.5"/>
<text text-anchor="middle" x="392" y="-170.5" font-family="Helvetica,sans-Serif" font-size="10.00">CCP_set_ti</text>
</a>
</g>
</g>
<!-- Node34&#45;&gt;Node41 -->
<g id="edge47" class="edge">
<title>Node34&#45;&gt;Node41</title>
<path fill="none" stroke="midnightblue" d="M243.19,-273.3C254.87,-263.06 273.61,-246.3 289,-231 305.73,-214.37 304.92,-204.39 325,-192 332.07,-187.64 340.18,-184.24 348.24,-181.61"/>
<polygon fill="midnightblue" stroke="midnightblue" points="349.36,-184.93 357.98,-178.77 347.39,-178.21 349.36,-184.93"/>
</g>
<!-- Node34&#45;&gt;Node43 -->
<g id="edge50" class="edge">
<title>Node34&#45;&gt;Node43</title>
<path fill="none" stroke="midnightblue" d="M246.16,-273.46C259.06,-264.08 277.77,-248.62 289,-231 317.78,-185.83 288.26,-154.97 325,-116 326.24,-114.68 327.56,-113.43 328.94,-112.25"/>
<polygon fill="midnightblue" stroke="midnightblue" points="331.37,-114.82 337.47,-106.16 327.3,-109.13 331.37,-114.82"/>
</g>
<!-- Node45 -->
<g id="node42" class="node">
<title>Node45</title>
<g id="a_node42"><a xlink:href="time__manager_8c.html#adb6317bb3e7f3896ae0f4bd41f8c531b" target="_top" xlink:title="引数で指定された utl_unixtime に対応する TI を返す">
<polygon fill="white" stroke="black" points="329.5,-240 329.5,-270 454.5,-270 454.5,-240 329.5,-240"/>
<text text-anchor="start" x="337.5" y="-258" font-family="Helvetica,sans-Serif" font-size="10.00">TMGR_get_ti_from_utl</text>
<text text-anchor="middle" x="392" y="-247" font-family="Helvetica,sans-Serif" font-size="10.00">_unixtime</text>
</a>
</g>
</g>
<!-- Node34&#45;&gt;Node45 -->
<g id="edge52" class="edge">
<title>Node34&#45;&gt;Node45</title>
<path fill="none" stroke="midnightblue" d="M282.75,-274.06C294.43,-272.01 307.08,-269.78 319.47,-267.6"/>
<polygon fill="midnightblue" stroke="midnightblue" points="320.08,-271.04 329.32,-265.86 318.87,-264.15 320.08,-271.04"/>
</g>
<!-- Node36 -->
<g id="node34" class="node">
<title>Node36</title>
<g id="a_node34"><a xlink:href="cmd__space__packet_8c.html#a2a6ae24b63276a3107cbd59f153b658e" target="_top" xlink:title="CmdSpacePacket をコピー">
<polygon fill="white" stroke="black" points="516.5,-289.5 516.5,-308.5 617.5,-308.5 617.5,-289.5 516.5,-289.5"/>
<text text-anchor="middle" x="567" y="-296.5" font-family="Helvetica,sans-Serif" font-size="10.00">CSP_copy_packet</text>
</a>
</g>
</g>
<!-- Node35&#45;&gt;Node36 -->
<g id="edge41" class="edge">
<title>Node35&#45;&gt;Node36</title>
<path fill="none" stroke="midnightblue" d="M443.04,-299C462.76,-299 485.57,-299 506.16,-299"/>
<polygon fill="midnightblue" stroke="midnightblue" points="506.37,-302.5 516.37,-299 506.37,-295.5 506.37,-302.5"/>
</g>
<!-- Node37 -->
<g id="node35" class="node">
<title>Node37</title>
<g id="a_node35"><a xlink:href="space__packet_8c.html#af2e7ada2c7544c10e11bb9c7473485fa" target="_top" xlink:title="SpacePacket をコピー">
<polygon fill="white" stroke="black" points="851.5,-213.5 851.5,-232.5 946.5,-232.5 946.5,-213.5 851.5,-213.5"/>
<text text-anchor="middle" x="899" y="-220.5" font-family="Helvetica,sans-Serif" font-size="10.00">SP_copy_packet</text>
</a>
</g>
</g>
<!-- Node36&#45;&gt;Node37 -->
<g id="edge42" class="edge">
<title>Node36&#45;&gt;Node37</title>
<path fill="none" stroke="midnightblue" d="M617.56,-289.53C625.03,-287.04 632.42,-283.92 639,-280 658.99,-268.1 654.04,-252.09 675,-242 727.19,-216.87 794.21,-214.57 841.09,-217.02"/>
<polygon fill="midnightblue" stroke="midnightblue" points="840.88,-220.52 851.07,-217.63 841.3,-213.53 840.88,-220.52"/>
</g>
<!-- Node37&#45;&gt;Node10 -->
<g id="edge43" class="edge">
<title>Node37&#45;&gt;Node10</title>
<path fill="none" stroke="midnightblue" d="M946.55,-217.4C961.85,-215.56 979.12,-213.49 995.42,-211.53"/>
<polygon fill="midnightblue" stroke="midnightblue" points="995.9,-214.99 1005.41,-210.32 995.06,-208.04 995.9,-214.99"/>
</g>
<!-- Node39 -->
<g id="node37" class="node">
<title>Node39</title>
<g id="a_node37"><a xlink:href="cmd__space__packet_8c.html#a031c095293173f7bc0fa4a97852b7060" target="_top" xlink:title="Execution Type を設定">
<polygon fill="white" stroke="red" points="512,-114.5 512,-133.5 622,-133.5 622,-114.5 512,-114.5"/>
<text text-anchor="middle" x="567" y="-121.5" font-family="Helvetica,sans-Serif" font-size="10.00">CSP_set_exec_type</text>
</a>
</g>
</g>
<!-- Node38&#45;&gt;Node39 -->
<g id="edge46" class="edge">
<title>Node38&#45;&gt;Node39</title>
<path fill="none" stroke="midnightblue" d="M440.53,-201.45C447.06,-198.98 453.42,-195.89 459,-192 481.17,-176.55 472.69,-158.24 495,-143 497.93,-141 501.07,-139.2 504.33,-137.6"/>
<polygon fill="midnightblue" stroke="midnightblue" points="505.95,-140.71 513.77,-133.56 503.2,-134.27 505.95,-140.71"/>
</g>
<!-- Node42 -->
<g id="node39" class="node">
<title>Node42</title>
<g id="a_node39"><a xlink:href="cmd__space__packet_8c.html#a3b7cf4c50d51882d730ad25b754259fd" target="_top" xlink:title="Time Indicator (TI) を設定">
<polygon fill="white" stroke="red" points="533,-76.5 533,-95.5 601,-95.5 601,-76.5 533,-76.5"/>
<text text-anchor="middle" x="567" y="-83.5" font-family="Helvetica,sans-Serif" font-size="10.00">CSP_set_ti</text>
</a>
</g>
</g>
<!-- Node41&#45;&gt;Node42 -->
<g id="edge48" class="edge">
<title>Node41&#45;&gt;Node42</title>
<path fill="none" stroke="midnightblue" d="M426.1,-167.94C437.25,-165.12 449.32,-160.75 459,-154 481.17,-138.55 472.69,-120.24 495,-105 503.38,-99.28 513.4,-95.28 523.23,-92.48"/>
<polygon fill="midnightblue" stroke="midnightblue" points="524.08,-95.88 532.94,-90.07 522.39,-89.08 524.08,-95.88"/>
</g>
<!-- Node44 -->
<g id="node41" class="node">
<title>Node44</title>
<g id="a_node41"><a xlink:href="obc__time_8c.html#ac42c1d017a2cbb8dab608771907c97d5" target="_top" xlink:title="引数で指定した ObcTime の total_cycle を返す">
<polygon fill="white" stroke="black" points="505.5,-0.5 505.5,-19.5 628.5,-19.5 628.5,-0.5 505.5,-0.5"/>
<text text-anchor="middle" x="567" y="-7.5" font-family="Helvetica,sans-Serif" font-size="10.00">OBCT_get_total_cycle</text>
</a>
</g>
</g>
<!-- Node43&#45;&gt;Node44 -->
<g id="edge51" class="edge">
<title>Node43&#45;&gt;Node44</title>
<path fill="none" stroke="midnightblue" d="M417.08,-75.88C437.35,-63.56 467.37,-46.26 495,-34 504.28,-29.88 514.49,-26.05 524.21,-22.7"/>
<polygon fill="midnightblue" stroke="midnightblue" points="525.34,-26.02 533.71,-19.53 523.12,-19.38 525.34,-26.02"/>
</g>
<!-- Node46 -->
<g id="node43" class="node">
<title>Node46</title>
<g id="a_node43"><a xlink:href="c2a__round_8c.html#acb05f4628fda85534f986d1f7f7604b4" target="_top" xlink:title=" ">
<polygon fill="white" stroke="black" points="533.5,-251.5 533.5,-270.5 600.5,-270.5 600.5,-251.5 533.5,-251.5"/>
<text text-anchor="middle" x="567" y="-258.5" font-family="Helvetica,sans-Serif" font-size="10.00">c2a_round</text>
</a>
</g>
</g>
<!-- Node45&#45;&gt;Node46 -->
<g id="edge53" class="edge">
<title>Node45&#45;&gt;Node46</title>
<path fill="none" stroke="midnightblue" d="M454.97,-257.15C477.53,-257.93 502.52,-258.8 523.06,-259.51"/>
<polygon fill="midnightblue" stroke="midnightblue" points="522.95,-263.01 533.07,-259.86 523.19,-256.01 522.95,-263.01"/>
</g>
<!-- Node47 -->
<g id="node44" class="node">
<title>Node47</title>
<g id="a_node44"><a xlink:href="time__manager_8c.html#a0b2ceac4b836408b32ed44adcb08f4f1" target="_top" xlink:title="unixtime を TI (cycle単位) に変換する">
<polygon fill="white" stroke="red" points="507.5,-202 507.5,-232 626.5,-232 626.5,-202 507.5,-202"/>
<text text-anchor="start" x="515.5" y="-220" font-family="Helvetica,sans-Serif" font-size="10.00">TMGR_get_precise_ti</text>
<text text-anchor="middle" x="567" y="-209" font-family="Helvetica,sans-Serif" font-size="10.00">_from_unixtime</text>
</a>
</g>
</g>
<!-- Node45&#45;&gt;Node47 -->
<g id="edge54" class="edge">
<title>Node45&#45;&gt;Node47</title>
<path fill="none" stroke="midnightblue" d="M454.97,-241.39C468.7,-238.37 483.33,-235.16 497.31,-232.09"/>
<polygon fill="midnightblue" stroke="midnightblue" points="498.34,-235.45 507.35,-229.88 496.84,-228.61 498.34,-235.45"/>
</g>
<!-- Node50 -->
<g id="node45" class="node">
<title>Node50</title>
<g id="a_node45"><a xlink:href="time__manager_8c.html#ab5376aa7e5a854b14c4af120bca9eef5" target="_top" xlink:title="UTL_cmdで用いる utl_unixtime を 一般的なunixtimeに変換する">
<polygon fill="white" stroke="red" points="495,-153 495,-183 639,-183 639,-153 495,-153"/>
<text text-anchor="start" x="503" y="-171" font-family="Helvetica,sans-Serif" font-size="10.00">TMGR_get_unixtime_from</text>
<text text-anchor="middle" x="567" y="-160" font-family="Helvetica,sans-Serif" font-size="10.00">_utl_unixtime</text>
</a>
</g>
</g>
<!-- Node45&#45;&gt;Node50 -->
<g id="edge55" class="edge">
<title>Node45&#45;&gt;Node50</title>
<path fill="none" stroke="midnightblue" d="M440.4,-239.96C446.88,-237.08 453.26,-233.76 459,-230 478.18,-217.41 475.67,-205.36 495,-193 498.16,-190.98 501.5,-189.1 504.95,-187.35"/>
<polygon fill="midnightblue" stroke="midnightblue" points="506.65,-190.42 514.25,-183.03 503.71,-184.07 506.65,-190.42"/>
</g>
<!-- Node53 -->
<g id="node47" class="node">
<title>Node53</title>
<g id="a_node47"><a xlink:href="common__cmd__packet_8h.html#a120a6ef1fee069ab4c4013da8539e0eb" target="_top" xlink:title="DEST_TYPE を取得">
<polygon fill="white" stroke="black" points="685.5,-783.5 685.5,-802.5 795.5,-802.5 795.5,-783.5 685.5,-783.5"/>
<text text-anchor="middle" x="740.5" y="-790.5" font-family="Helvetica,sans-Serif" font-size="10.00">CCP_get_dest_type</text>
</a>
</g>
</g>
<!-- Node52&#45;&gt;Node53 -->
<g id="edge57" class="edge">
<title>Node52&#45;&gt;Node53</title>
<path fill="none" stroke="midnightblue" d="M598.87,-750.63C620.23,-757.27 649.31,-766.26 675,-774 682.07,-776.13 689.58,-778.37 696.89,-780.53"/>
<polygon fill="midnightblue" stroke="midnightblue" points="696.08,-783.94 706.66,-783.41 698.06,-777.23 696.08,-783.94"/>
</g>
<!-- Node56 -->
<g id="node49" class="node">
<title>Node56</title>
<g id="a_node49"><a xlink:href="user__packet__handler_8c.html#a311f412a8baddf012c1c91324ca32a76" target="_top" xlink:title=" ">
<polygon fill="white" stroke="black" points="684,-707.5 684,-726.5 797,-726.5 797,-707.5 684,-707.5"/>
<text text-anchor="middle" x="740.5" y="-714.5" font-family="Helvetica,sans-Serif" font-size="10.00">PH_add_aobc_cmd_</text>
</a>
</g>
</g>
<!-- Node52&#45;&gt;Node56 -->
<g id="edge60" class="edge">
<title>Node52&#45;&gt;Node56</title>
<path fill="none" stroke="midnightblue" d="M630.4,-732.27C644.5,-730.29 659.52,-728.19 673.76,-726.2"/>
<polygon fill="midnightblue" stroke="midnightblue" points="674.54,-729.62 683.96,-724.77 673.57,-722.69 674.54,-729.62"/>
</g>
<!-- Node57 -->
<g id="node50" class="node">
<title>Node57</title>
<g id="a_node50"><a xlink:href="user__packet__handler_8c.html#a4b0723acb8a522d6f5a481a679f9be10" target="_top" xlink:title=" ">
<polygon fill="white" stroke="black" points="685,-745.5 685,-764.5 796,-764.5 796,-745.5 685,-745.5"/>
<text text-anchor="middle" x="740.5" y="-752.5" font-family="Helvetica,sans-Serif" font-size="10.00">PH_add_tobc_cmd_</text>
</a>
</g>
</g>
<!-- Node52&#45;&gt;Node57 -->
<g id="edge62" class="edge">
<title>Node52&#45;&gt;Node57</title>
<path fill="none" stroke="midnightblue" d="M630.4,-746.09C644.74,-747.26 660.01,-748.51 674.46,-749.69"/>
<polygon fill="midnightblue" stroke="midnightblue" points="674.55,-753.21 684.8,-750.53 675.12,-746.23 674.55,-753.21"/>
</g>
<!-- Node54 -->
<g id="node48" class="node">
<title>Node54</title>
<g id="a_node48"><a xlink:href="cmd__space__packet_8c.html#aa6bbd3b94c3c8a9c0e0c26fc96b16b9d" target="_top" xlink:title="Destination Type を取得">
<polygon fill="white" stroke="red" points="844,-783.5 844,-802.5 954,-802.5 954,-783.5 844,-783.5"/>
<text text-anchor="middle" x="899" y="-790.5" font-family="Helvetica,sans-Serif" font-size="10.00">CSP_get_dest_type</text>
</a>
</g>
</g>
<!-- Node53&#45;&gt;Node54 -->
<g id="edge58" class="edge">
<title>Node53&#45;&gt;Node54</title>
<path fill="none" stroke="midnightblue" d="M795.8,-793C807.94,-793 820.93,-793 833.43,-793"/>
<polygon fill="midnightblue" stroke="midnightblue" points="833.8,-796.5 843.8,-793 833.8,-789.5 833.8,-796.5"/>
</g>
<!-- Node54&#45;&gt;Node4 -->
<g id="edge59" class="edge">
<title>Node54&#45;&gt;Node4</title>
<path fill="none" stroke="midnightblue" d="M954.37,-793C963.22,-793 972.53,-793 981.79,-793"/>
<polygon fill="midnightblue" stroke="midnightblue" points="981.79,-796.5 991.79,-793 981.79,-789.5 981.79,-796.5"/>
</g>
<!-- Node56&#45;&gt;Node21 -->
<g id="edge61" class="edge">
<title>Node56&#45;&gt;Node21</title>
<path fill="none" stroke="midnightblue" d="M780.99,-707.41C801.64,-702.4 827.11,-696.21 849.01,-690.89"/>
<polygon fill="midnightblue" stroke="midnightblue" points="849.9,-694.28 858.79,-688.52 848.25,-687.48 849.9,-694.28"/>
</g>
<!-- Node57&#45;&gt;Node21 -->
<g id="edge63" class="edge">
<title>Node57&#45;&gt;Node21</title>
<path fill="none" stroke="midnightblue" d="M780.31,-745.4C788.93,-742.77 797.9,-739.62 806,-736 831.41,-724.63 858.23,-707.33 876.31,-694.77"/>
<polygon fill="midnightblue" stroke="midnightblue" points="878.77,-697.32 884.92,-688.69 874.73,-691.6 878.77,-697.32"/>
</g>
</g>
</svg>
