<?xml version="1.0" encoding="UTF-8" standalone="no"?>
<!DOCTYPE svg PUBLIC "-//W3C//DTD SVG 1.1//EN"
 "http://www.w3.org/Graphics/SVG/1.1/DTD/svg11.dtd">
<!-- Generated by graphviz version 2.43.0 (0)
 -->
<!-- Title: PL_get_head Pages: 1 -->
<svg width="1456pt" height="645pt"
 viewBox="0.00 0.00 1456.00 645.00" xmlns="http://www.w3.org/2000/svg" xmlns:xlink="http://www.w3.org/1999/xlink">
<g id="graph0" class="graph" transform="scale(1 1) rotate(0) translate(4 641)">
<title>PL_get_head</title>
<polygon fill="white" stroke="transparent" points="-4,4 -4,-641 1452,-641 1452,4 -4,4"/>
<!-- Node1 -->
<g id="node1" class="node">
<title>Node1</title>
<g id="a_node1"><a xlink:title="PacketList の active な先頭 Node を取得">
<polygon fill="#bfbfbf" stroke="black" points="1370,-397.5 1370,-416.5 1448,-416.5 1448,-397.5 1370,-397.5"/>
<text text-anchor="middle" x="1409" y="-404.5" font-family="Helvetica,sans-Serif" font-size="10.00">PL_get_head</text>
</a>
</g>
</g>
<!-- Node2 -->
<g id="node2" class="node">
<title>Node2</title>
<g id="a_node2"><a xlink:href="command__dispatcher_8h.html#a90617acff33923f51c212b8e3034712c" target="_top" xlink:title="CDIS に登録されているコマンドキューからコマンドを実行">
<polygon fill="white" stroke="black" points="1194,-332.5 1194,-351.5 1334,-351.5 1334,-332.5 1194,-332.5"/>
<text text-anchor="middle" x="1264" y="-339.5" font-family="Helvetica,sans-Serif" font-size="10.00">CDIS_dispatch_command</text>
</a>
</g>
</g>
<!-- Node1&#45;&gt;Node2 -->
<g id="edge1" class="edge">
<title>Node1&#45;&gt;Node2</title>
<path fill="none" stroke="midnightblue" d="M1377.74,-393.24C1350.25,-380.75 1310.41,-362.64 1286.19,-351.63"/>
<polygon fill="midnightblue" stroke="midnightblue" points="1376.35,-396.46 1386.9,-397.41 1379.24,-390.08 1376.35,-396.46"/>
</g>
<!-- Node14 -->
<g id="node11" class="node">
<title>Node14</title>
<g id="a_node11"><a xlink:href="task__dispatcher_8h.html#ac880fe6e26ecdf8711d08980cad6787d" target="_top" xlink:title="現在時刻に応じて、TaskList から Cmd を一つ実行する or TaskList を再展開する">
<polygon fill="white" stroke="black" points="650.5,-222 650.5,-252 766.5,-252 766.5,-222 650.5,-222"/>
<text text-anchor="start" x="658.5" y="-240" font-family="Helvetica,sans-Serif" font-size="10.00">TDSP_execute_pl_as</text>
<text text-anchor="middle" x="708.5" y="-229" font-family="Helvetica,sans-Serif" font-size="10.00">_task_list</text>
</a>
</g>
</g>
<!-- Node1&#45;&gt;Node14 -->
<g id="edge53" class="edge">
<title>Node1&#45;&gt;Node14</title>
<path fill="none" stroke="midnightblue" d="M1395.32,-389.12C1381.7,-370.84 1358.68,-342.45 1334,-323 1264.51,-268.24 1243.45,-252.92 1158,-230 1021.48,-193.38 853.1,-212.21 766.66,-226.26"/>
<polygon fill="midnightblue" stroke="midnightblue" points="1392.66,-391.4 1401.38,-397.42 1398.31,-387.28 1392.66,-391.4"/>
</g>
<!-- Node17 -->
<g id="node15" class="node">
<title>Node17</title>
<g id="a_node15"><a xlink:href="timeline__command__dispatcher_8c.html#adc7c7ed35f5cb69bb1d8baccd0193f8d" target="_top" xlink:title="指定された lien_no の Timeline コマンドを実行する">
<polygon fill="white" stroke="black" points="1023.5,-465.5 1023.5,-484.5 1144.5,-484.5 1144.5,-465.5 1023.5,-465.5"/>
<text text-anchor="middle" x="1084" y="-472.5" font-family="Helvetica,sans-Serif" font-size="10.00">TLCD_tlc_dispatcher_</text>
</a>
</g>
</g>
<!-- Node1&#45;&gt;Node17 -->
<g id="edge57" class="edge">
<title>Node1&#45;&gt;Node17</title>
<path fill="none" stroke="midnightblue" d="M1360.09,-417.09C1298.15,-430.13 1191.05,-452.67 1130.37,-465.45"/>
<polygon fill="midnightblue" stroke="midnightblue" points="1360.93,-420.49 1370,-415 1359.49,-413.64 1360.93,-420.49"/>
</g>
<!-- Node24 -->
<g id="node22" class="node">
<title>Node24</title>
<g id="a_node22"><a xlink:href="packet__list_8h.html#ac711a46f484040b1c67c522fbd96b826" target="_top" xlink:title="CCP が時系列に並ぶように CCP を挿入する">
<polygon fill="white" stroke="black" points="1214.5,-142.5 1214.5,-161.5 1313.5,-161.5 1313.5,-142.5 1214.5,-142.5"/>
<text text-anchor="middle" x="1264" y="-149.5" font-family="Helvetica,sans-Serif" font-size="10.00">PL_insert_tl_cmd</text>
</a>
</g>
</g>
<!-- Node1&#45;&gt;Node24 -->
<g id="edge25" class="edge">
<title>Node1&#45;&gt;Node24</title>
<path fill="none" stroke="midnightblue" d="M1405.58,-387.42C1399.77,-347.34 1381.75,-254.7 1334,-195 1322.01,-180.01 1303.29,-168.81 1288.37,-161.61"/>
<polygon fill="midnightblue" stroke="midnightblue" points="1402.13,-388.02 1406.94,-397.46 1409.07,-387.09 1402.13,-388.02"/>
</g>
<!-- Node49 -->
<g id="node37" class="node">
<title>Node49</title>
<g id="a_node37"><a xlink:href="tcp__to__m__pdu_8h.html#a973ccd708198a0d237a3cbb96cb8b078" target="_top" xlink:title="TCPacket を M_PDU に変換する">
<polygon fill="white" stroke="black" points="1032,-397.5 1032,-416.5 1136,-416.5 1136,-397.5 1032,-397.5"/>
<text text-anchor="middle" x="1084" y="-404.5" font-family="Helvetica,sans-Serif" font-size="10.00">T2M_form_m_pdu</text>
</a>
</g>
</g>
<!-- Node1&#45;&gt;Node49 -->
<g id="edge46" class="edge">
<title>Node1&#45;&gt;Node49</title>
<path fill="none" stroke="midnightblue" d="M1359.65,-407C1299.56,-407 1197.47,-407 1136.13,-407"/>
<polygon fill="midnightblue" stroke="midnightblue" points="1360,-410.5 1370,-407 1360,-403.5 1360,-410.5"/>
</g>
<!-- Node54 -->
<g id="node42" class="node">
<title>Node54</title>
<g id="a_node42"><a xlink:href="timeline__command__dispatcher_8c.html#ade1de48e39d05f1a216c85fba039b9c5" target="_top" xlink:title="指定された時刻, id の TL コマンドを削除する">
<polygon fill="white" stroke="black" points="1200,-41.5 1200,-60.5 1328,-60.5 1328,-41.5 1200,-41.5"/>
<text text-anchor="middle" x="1264" y="-48.5" font-family="Helvetica,sans-Serif" font-size="10.00">TLCD_drop_tl_cmd_at_</text>
</a>
</g>
</g>
<!-- Node1&#45;&gt;Node54 -->
<g id="edge54" class="edge">
<title>Node1&#45;&gt;Node54</title>
<path fill="none" stroke="midnightblue" d="M1405.66,-387.27C1399.5,-340.68 1380.08,-221.16 1334,-133 1318.49,-103.32 1290.68,-74.84 1275.53,-60.54"/>
<polygon fill="midnightblue" stroke="midnightblue" points="1402.22,-387.99 1406.94,-397.48 1409.16,-387.12 1402.22,-387.99"/>
</g>
<!-- Node56 -->
<g id="node44" class="node">
<title>Node56</title>
<g id="a_node44"><a xlink:href="timeline__command__dispatcher_8h.html#a49db813d8e8a75895474126e0dc242dc" target="_top" xlink:title="テレメの内容を自動更新する.">
<polygon fill="white" stroke="black" points="1207.5,-498 1207.5,-528 1320.5,-528 1320.5,-498 1207.5,-498"/>
<text text-anchor="start" x="1215.5" y="-516" font-family="Helvetica,sans-Serif" font-size="10.00">TLCD_update_tl_list</text>
<text text-anchor="middle" x="1264" y="-505" font-family="Helvetica,sans-Serif" font-size="10.00">_for_tlm</text>
</a>
</g>
</g>
<!-- Node1&#45;&gt;Node56 -->
<g id="edge58" class="edge">
<title>Node1&#45;&gt;Node56</title>
<path fill="none" stroke="midnightblue" d="M1388.85,-423.35C1374.13,-435.71 1353.15,-452.9 1334,-467 1319.28,-477.84 1302.18,-489.25 1288.69,-497.99"/>
<polygon fill="midnightblue" stroke="midnightblue" points="1391.35,-425.82 1396.73,-416.69 1386.83,-420.47 1391.35,-425.82"/>
</g>
<!-- Node62 -->
<g id="node49" class="node">
<title>Node62</title>
<g id="a_node49"><a xlink:href="telemetry__definitions_8c.html#ae991503d7e5e3ed1bd65797e3fa8622c" target="_top" xlink:title=" ">
<polygon fill="white" stroke="black" points="1234,-609.5 1234,-628.5 1294,-628.5 1294,-609.5 1234,-609.5"/>
<text text-anchor="middle" x="1264" y="-616.5" font-family="Helvetica,sans-Serif" font-size="10.00">Tlm_HK_</text>
</a>
</g>
</g>
<!-- Node1&#45;&gt;Node62 -->
<g id="edge65" class="edge">
<title>Node1&#45;&gt;Node62</title>
<path fill="none" stroke="midnightblue" d="M1405.37,-426.53C1399.39,-463.68 1381.39,-544.96 1334,-592 1323.23,-602.69 1307.72,-609.26 1294.14,-613.24"/>
<polygon fill="midnightblue" stroke="midnightblue" points="1408.85,-426.92 1406.86,-416.51 1401.93,-425.89 1408.85,-426.92"/>
</g>
<!-- Node63 -->
<g id="node50" class="node">
<title>Node63</title>
<g id="a_node50"><a xlink:href="telemetry__definitions_8c.html#abeb688f0f66e6d3870869fa430fbb3a7" target="_top" xlink:title=" ">
<polygon fill="white" stroke="black" points="1226,-563.5 1226,-582.5 1302,-582.5 1302,-563.5 1226,-563.5"/>
<text text-anchor="middle" x="1264" y="-570.5" font-family="Helvetica,sans-Serif" font-size="10.00">Tlm_MOBC_</text>
</a>
</g>
</g>
<!-- Node1&#45;&gt;Node63 -->
<g id="edge67" class="edge">
<title>Node1&#45;&gt;Node63</title>
<path fill="none" stroke="midnightblue" d="M1401.06,-426.35C1390.37,-453.91 1367.51,-504.7 1334,-537 1321.94,-548.63 1305.37,-557.44 1291.5,-563.43"/>
<polygon fill="midnightblue" stroke="midnightblue" points="1404.45,-427.3 1404.68,-416.7 1397.89,-424.84 1404.45,-427.3"/>
</g>
<!-- Node3 -->
<g id="node3" class="node">
<title>Node3</title>
<g id="a_node3"><a xlink:href="di__aobc_8c.html#ac2b0fb03e89d75b82419d4ad53202f8b" target="_top" xlink:title=" ">
<polygon fill="white" stroke="black" points="1010,-351.5 1010,-370.5 1158,-370.5 1158,-351.5 1010,-351.5"/>
<text text-anchor="middle" x="1084" y="-358.5" font-family="Helvetica,sans-Serif" font-size="10.00">DI_AOBC_cmd_dispatcher_</text>
</a>
</g>
</g>
<!-- Node2&#45;&gt;Node3 -->
<g id="edge2" class="edge">
<title>Node2&#45;&gt;Node3</title>
<path fill="none" stroke="midnightblue" d="M1183.94,-350.44C1175.36,-351.35 1166.66,-352.28 1158.16,-353.19"/>
<polygon fill="midnightblue" stroke="midnightblue" points="1184.35,-353.91 1193.93,-349.37 1183.61,-346.95 1184.35,-353.91"/>
</g>
<!-- Node5 -->
<g id="node5" class="node">
<title>Node5</title>
<g id="a_node5"><a xlink:href="gs__command__dispatcher_8c.html#a4fe4cfc8c0f816a286dc50d8797cef54" target="_top" xlink:title="GSCD App 実行関数">
<polygon fill="white" stroke="black" points="1036,-275.5 1036,-294.5 1132,-294.5 1132,-275.5 1036,-275.5"/>
<text text-anchor="middle" x="1084" y="-282.5" font-family="Helvetica,sans-Serif" font-size="10.00">GSCD_dispatch_</text>
</a>
</g>
</g>
<!-- Node2&#45;&gt;Node5 -->
<g id="edge4" class="edge">
<title>Node2&#45;&gt;Node5</title>
<path fill="none" stroke="midnightblue" d="M1229.11,-328.83C1208.67,-321.12 1182.03,-311.46 1158,-304 1147.24,-300.66 1135.48,-297.42 1124.59,-294.59"/>
<polygon fill="midnightblue" stroke="midnightblue" points="1228.02,-332.16 1238.61,-332.45 1230.51,-325.62 1228.02,-332.16"/>
</g>
<!-- Node12 -->
<g id="node9" class="node">
<title>Node12</title>
<g id="a_node9"><a xlink:href="realtime__command__dispatcher_8c.html#aa66b7d158969999a789dc69d2d5b1b7d" target="_top" xlink:title=" ">
<polygon fill="white" stroke="black" points="1037,-313.5 1037,-332.5 1131,-332.5 1131,-313.5 1037,-313.5"/>
<text text-anchor="middle" x="1084" y="-320.5" font-family="Helvetica,sans-Serif" font-size="10.00">RTCD_dispatch_</text>
</a>
</g>
</g>
<!-- Node2&#45;&gt;Node12 -->
<g id="edge8" class="edge">
<title>Node2&#45;&gt;Node12</title>
<path fill="none" stroke="midnightblue" d="M1183.98,-333.57C1165.95,-331.64 1147.36,-329.66 1131.23,-327.93"/>
<polygon fill="midnightblue" stroke="midnightblue" points="1183.61,-337.05 1193.93,-334.63 1184.35,-330.09 1183.61,-337.05"/>
</g>
<!-- Node2&#45;&gt;Node14 -->
<g id="edge11" class="edge">
<title>Node2&#45;&gt;Node14</title>
<path fill="none" stroke="midnightblue" d="M1246.31,-325.2C1226.96,-306.94 1193.2,-278.67 1158,-266 1024.38,-217.9 854.07,-223.53 766.77,-230.81"/>
<polygon fill="midnightblue" stroke="midnightblue" points="1244.06,-327.9 1253.68,-332.34 1248.93,-322.87 1244.06,-327.9"/>
</g>
<!-- Node2&#45;&gt;Node17 -->
<g id="edge15" class="edge">
<title>Node2&#45;&gt;Node17</title>
<path fill="none" stroke="midnightblue" d="M1243.83,-358.14C1223.06,-375.43 1188.77,-403.43 1158,-426 1138.43,-440.36 1115.01,-455.78 1100.07,-465.41"/>
<polygon fill="midnightblue" stroke="midnightblue" points="1246.17,-360.74 1251.59,-351.65 1241.68,-355.37 1246.17,-360.74"/>
</g>
<!-- Node4 -->
<g id="node4" class="node">
<title>Node4</title>
<g id="a_node4"><a xlink:href="di__aobc_8h.html#a22b846ecf2fe48c7bff4f2c10f2bc284" target="_top" xlink:title="AOBC cmd dispatcher アプリ生成関数">
<polygon fill="white" stroke="black" points="825,-351.5 825,-370.5 968,-370.5 968,-351.5 825,-351.5"/>
<text text-anchor="middle" x="896.5" y="-358.5" font-family="Helvetica,sans-Serif" font-size="10.00">DI_AOBC_cmd_dispatcher</text>
</a>
</g>
</g>
<!-- Node3&#45;&gt;Node4 -->
<g id="edge3" class="edge">
<title>Node3&#45;&gt;Node4</title>
<path fill="none" stroke="midnightblue" d="M999.84,-361C989.23,-361 978.45,-361 968.06,-361"/>
<polygon fill="midnightblue" stroke="midnightblue" points="999.95,-364.5 1009.95,-361 999.95,-357.5 999.95,-364.5"/>
</g>
<!-- Node6 -->
<g id="node6" class="node">
<title>Node6</title>
<g id="a_node6"><a xlink:href="gs__command__dispatcher_8h.html#a0195f703ab1a606ae7541ef886e609bc" target="_top" xlink:title="GSCD App 生成関数">
<polygon fill="white" stroke="black" points="656.5,-284.5 656.5,-303.5 760.5,-303.5 760.5,-284.5 656.5,-284.5"/>
<text text-anchor="middle" x="708.5" y="-291.5" font-family="Helvetica,sans-Serif" font-size="10.00">GSCD_create_app</text>
</a>
</g>
</g>
<!-- Node5&#45;&gt;Node6 -->
<g id="edge5" class="edge">
<title>Node5&#45;&gt;Node6</title>
<path fill="none" stroke="midnightblue" d="M1025.39,-286.39C952.98,-288.13 829.8,-291.1 760.6,-292.77"/>
<polygon fill="midnightblue" stroke="midnightblue" points="1025.78,-289.88 1035.7,-286.14 1025.61,-282.88 1025.78,-289.88"/>
</g>
<!-- Node7 -->
<g id="node7" class="node">
<title>Node7</title>
<g id="a_node7"><a xlink:href="app__registry_8h.html#ab944b1d78a41e427bc2ed57f9c4e9534" target="_top" xlink:title=" ">
<polygon fill="white" stroke="black" points="443.5,-408.5 443.5,-427.5 577.5,-427.5 577.5,-408.5 443.5,-408.5"/>
<text text-anchor="middle" x="510.5" y="-415.5" font-family="Helvetica,sans-Serif" font-size="10.00">AR_load_initial_settings</text>
</a>
</g>
</g>
<!-- Node6&#45;&gt;Node7 -->
<g id="edge6" class="edge">
<title>Node6&#45;&gt;Node7</title>
<path fill="none" stroke="midnightblue" d="M674.29,-307.67C661.41,-313.4 646.73,-320.48 634,-328 590.6,-353.63 543.77,-391.12 522.79,-408.5"/>
<polygon fill="midnightblue" stroke="midnightblue" points="675.95,-310.76 683.72,-303.56 673.15,-304.34 675.95,-310.76"/>
</g>
<!-- Node8 -->
<g id="node8" class="node">
<title>Node8</title>
<g id="a_node8"><a xlink:href="c2a__core__main_8h.html#a65ecdc63d8762ffde4db7f6c6e6f07cf" target="_top" xlink:title=" ">
<polygon fill="white" stroke="red" points="0,-305.5 0,-324.5 83,-324.5 83,-305.5 0,-305.5"/>
<text text-anchor="middle" x="41.5" y="-312.5" font-family="Helvetica,sans-Serif" font-size="10.00">C2A_core_init</text>
</a>
</g>
</g>
<!-- Node7&#45;&gt;Node8 -->
<g id="edge7" class="edge">
<title>Node7&#45;&gt;Node8</title>
<path fill="none" stroke="midnightblue" d="M449.36,-406.55C372.46,-391.65 235.31,-364.15 119,-336 104.68,-332.53 88.96,-328.3 75.52,-324.54"/>
<polygon fill="midnightblue" stroke="midnightblue" points="448.87,-410.02 459.35,-408.48 450.2,-403.15 448.87,-410.02"/>
</g>
<!-- Node13 -->
<g id="node10" class="node">
<title>Node13</title>
<g id="a_node10"><a xlink:href="realtime__command__dispatcher_8h.html#a6de82e8f79b0281c403be56abfaec6ba" target="_top" xlink:title=" ">
<polygon fill="white" stroke="black" points="846,-313.5 846,-332.5 947,-332.5 947,-313.5 846,-313.5"/>
<text text-anchor="middle" x="896.5" y="-320.5" font-family="Helvetica,sans-Serif" font-size="10.00">RTCD_create_app</text>
</a>
</g>
</g>
<!-- Node12&#45;&gt;Node13 -->
<g id="edge9" class="edge">
<title>Node12&#45;&gt;Node13</title>
<path fill="none" stroke="midnightblue" d="M1026.47,-323C1001.16,-323 971.58,-323 947.14,-323"/>
<polygon fill="midnightblue" stroke="midnightblue" points="1026.67,-326.5 1036.67,-323 1026.67,-319.5 1026.67,-326.5"/>
</g>
<!-- Node13&#45;&gt;Node7 -->
<g id="edge10" class="edge">
<title>Node13&#45;&gt;Node7</title>
<path fill="none" stroke="midnightblue" d="M835.6,-334.53C782.37,-345.13 702.59,-361.92 634,-380 601.49,-388.57 564.71,-400.25 540.01,-408.39"/>
<polygon fill="midnightblue" stroke="midnightblue" points="836.42,-337.93 845.55,-332.56 835.06,-331.07 836.42,-337.93"/>
</g>
<!-- Node15 -->
<g id="node12" class="node">
<title>Node15</title>
<g id="a_node12"><a xlink:href="c2a__core__main_8h.html#a64e3c69d223ce8236ab718278b17b195" target="_top" xlink:title=" ">
<polygon fill="white" stroke="black" points="464.5,-307.5 464.5,-326.5 556.5,-326.5 556.5,-307.5 464.5,-307.5"/>
<text text-anchor="middle" x="510.5" y="-314.5" font-family="Helvetica,sans-Serif" font-size="10.00">C2A_core_main</text>
</a>
</g>
</g>
<!-- Node14&#45;&gt;Node15 -->
<g id="edge12" class="edge">
<title>Node14&#45;&gt;Node15</title>
<path fill="none" stroke="midnightblue" d="M667.75,-256.71C656.71,-262.41 644.79,-268.78 634,-275 617.55,-284.48 615.54,-290.74 598,-298 585.07,-303.35 570.4,-307.3 556.87,-310.16"/>
<polygon fill="midnightblue" stroke="midnightblue" points="669.46,-259.77 676.77,-252.1 666.27,-253.54 669.46,-259.77"/>
</g>
<!-- Node16 -->
<g id="node13" class="node">
<title>Node16</title>
<g id="a_node13"><a xlink:href="c2a__main_8c.html#a06acf8a326dfbc653a6b7094d98099b9" target="_top" xlink:title=" ">
<polygon fill="white" stroke="black" points="295,-307.5 295,-326.5 366,-326.5 366,-307.5 295,-307.5"/>
<text text-anchor="middle" x="330.5" y="-314.5" font-family="Helvetica,sans-Serif" font-size="10.00">C2A_main_</text>
</a>
</g>
</g>
<!-- Node15&#45;&gt;Node16 -->
<g id="edge13" class="edge">
<title>Node15&#45;&gt;Node16</title>
<path fill="none" stroke="midnightblue" d="M453.82,-317C425.12,-317 391.01,-317 366.12,-317"/>
<polygon fill="midnightblue" stroke="midnightblue" points="454.12,-320.5 464.12,-317 454.12,-313.5 454.12,-320.5"/>
</g>
<!-- Node10 -->
<g id="node14" class="node">
<title>Node10</title>
<g id="a_node14"><a xlink:href="c2a__main_8c.html#ac3344a311adda8f9e7310924bedf81fc" target="_top" xlink:title=" ">
<polygon fill="white" stroke="red" points="119,-307.5 119,-326.5 238,-326.5 238,-307.5 119,-307.5"/>
<text text-anchor="middle" x="178.5" y="-314.5" font-family="Helvetica,sans-Serif" font-size="10.00">address_fixed_main_</text>
</a>
</g>
</g>
<!-- Node16&#45;&gt;Node10 -->
<g id="edge14" class="edge">
<title>Node16&#45;&gt;Node10</title>
<path fill="none" stroke="midnightblue" d="M284.47,-317C269.93,-317 253.58,-317 238.19,-317"/>
<polygon fill="midnightblue" stroke="midnightblue" points="284.71,-320.5 294.71,-317 284.71,-313.5 284.71,-320.5"/>
</g>
<!-- Node18 -->
<g id="node16" class="node">
<title>Node18</title>
<g id="a_node16"><a xlink:href="timeline__command__dispatcher_8c.html#a66b090a512984479de9b511902b08514" target="_top" xlink:title=" ">
<polygon fill="white" stroke="black" points="841.5,-465.5 841.5,-484.5 951.5,-484.5 951.5,-465.5 841.5,-465.5"/>
<text text-anchor="middle" x="896.5" y="-472.5" font-family="Helvetica,sans-Serif" font-size="10.00">TLCD_bc_dispatch_</text>
</a>
</g>
</g>
<!-- Node17&#45;&gt;Node18 -->
<g id="edge16" class="edge">
<title>Node17&#45;&gt;Node18</title>
<path fill="none" stroke="midnightblue" d="M1013.15,-475C992.84,-475 970.96,-475 951.76,-475"/>
<polygon fill="midnightblue" stroke="midnightblue" points="1013.29,-478.5 1023.29,-475 1013.29,-471.5 1013.29,-478.5"/>
</g>
<!-- Node20 -->
<g id="node18" class="node">
<title>Node20</title>
<g id="a_node18"><a xlink:href="timeline__command__dispatcher_8c.html#a61acaaad8a32749d22fd16ee68d8522c" target="_top" xlink:title=" ">
<polygon fill="white" stroke="black" points="841.5,-541.5 841.5,-560.5 951.5,-560.5 951.5,-541.5 841.5,-541.5"/>
<text text-anchor="middle" x="896.5" y="-548.5" font-family="Helvetica,sans-Serif" font-size="10.00">TLCD_gs_dispatch_</text>
</a>
</g>
</g>
<!-- Node17&#45;&gt;Node20 -->
<g id="edge19" class="edge">
<title>Node17&#45;&gt;Node20</title>
<path fill="none" stroke="midnightblue" d="M1021.66,-488.19C1017.61,-489.9 1013.68,-491.83 1010,-494 989.97,-505.83 994.1,-520.28 974,-532 967.14,-536 959.47,-539.16 951.69,-541.66"/>
<polygon fill="midnightblue" stroke="midnightblue" points="1023.14,-491.37 1031.28,-484.58 1020.69,-484.82 1023.14,-491.37"/>
</g>
<!-- Node22 -->
<g id="node20" class="node">
<title>Node22</title>
<g id="a_node20"><a xlink:href="timeline__command__dispatcher_8c.html#ab6c98e6d001183d4d8b32f0c333c62d0" target="_top" xlink:title=" ">
<polygon fill="white" stroke="black" points="838.5,-503.5 838.5,-522.5 954.5,-522.5 954.5,-503.5 838.5,-503.5"/>
<text text-anchor="middle" x="896.5" y="-510.5" font-family="Helvetica,sans-Serif" font-size="10.00">TLCD_tlm_dispatch_</text>
</a>
</g>
</g>
<!-- Node17&#45;&gt;Node22 -->
<g id="edge22" class="edge">
<title>Node17&#45;&gt;Node22</title>
<path fill="none" stroke="midnightblue" d="M1026.33,-486.61C999.94,-492.01 968.95,-498.36 943.97,-503.48"/>
<polygon fill="midnightblue" stroke="midnightblue" points="1027.1,-490.02 1036.19,-484.59 1025.69,-483.17 1027.1,-490.02"/>
</g>
<!-- Node19 -->
<g id="node17" class="node">
<title>Node19</title>
<g id="a_node17"><a xlink:href="timeline__command__dispatcher_8h.html#a613f71be9eb32486ac16a35bc5e02678" target="_top" xlink:title="TL1 (BC を展開する用の Timeline) の実行 App を作成する">
<polygon fill="white" stroke="black" points="649.5,-465.5 649.5,-484.5 767.5,-484.5 767.5,-465.5 649.5,-465.5"/>
<text text-anchor="middle" x="708.5" y="-472.5" font-family="Helvetica,sans-Serif" font-size="10.00">TLCD_bc_create_app</text>
</a>
</g>
</g>
<!-- Node18&#45;&gt;Node19 -->
<g id="edge17" class="edge">
<title>Node18&#45;&gt;Node19</title>
<path fill="none" stroke="midnightblue" d="M831.18,-475C810.52,-475 787.77,-475 767.58,-475"/>
<polygon fill="midnightblue" stroke="midnightblue" points="831.45,-478.5 841.45,-475 831.45,-471.5 831.45,-478.5"/>
</g>
<!-- Node19&#45;&gt;Node7 -->
<g id="edge18" class="edge">
<title>Node19&#45;&gt;Node7</title>
<path fill="none" stroke="midnightblue" d="M659.45,-462.93C650.95,-460.7 642.2,-458.33 634,-456 602.09,-446.93 565.82,-435.55 541.09,-427.61"/>
<polygon fill="midnightblue" stroke="midnightblue" points="658.7,-466.35 669.26,-465.48 660.46,-459.58 658.7,-466.35"/>
</g>
<!-- Node21 -->
<g id="node19" class="node">
<title>Node21</title>
<g id="a_node19"><a xlink:href="timeline__command__dispatcher_8h.html#aeb9665c53e8687acbe00da062d413ea3" target="_top" xlink:title="TL0 (GS から登録されるバス用の Timeline) の実行 App を作成する">
<polygon fill="white" stroke="black" points="649.5,-541.5 649.5,-560.5 767.5,-560.5 767.5,-541.5 649.5,-541.5"/>
<text text-anchor="middle" x="708.5" y="-548.5" font-family="Helvetica,sans-Serif" font-size="10.00">TLCD_gs_create_app</text>
</a>
</g>
</g>
<!-- Node20&#45;&gt;Node21 -->
<g id="edge20" class="edge">
<title>Node20&#45;&gt;Node21</title>
<path fill="none" stroke="midnightblue" d="M831.18,-551C810.52,-551 787.77,-551 767.58,-551"/>
<polygon fill="midnightblue" stroke="midnightblue" points="831.45,-554.5 841.45,-551 831.45,-547.5 831.45,-554.5"/>
</g>
<!-- Node21&#45;&gt;Node7 -->
<g id="edge21" class="edge">
<title>Node21&#45;&gt;Node7</title>
<path fill="none" stroke="midnightblue" d="M647.25,-538.11C642.66,-536.32 638.19,-534.29 634,-532 582.79,-503.94 536.48,-449.67 518.94,-427.64"/>
<polygon fill="midnightblue" stroke="midnightblue" points="646.21,-541.45 656.8,-541.45 648.52,-534.84 646.21,-541.45"/>
</g>
<!-- Node23 -->
<g id="node21" class="node">
<title>Node23</title>
<g id="a_node21"><a xlink:href="timeline__command__dispatcher_8h.html#a420223ebba00f8b607cf320642276394" target="_top" xlink:title="TL2 (TLM を登録する用の Timeline) の実行 App を作成する">
<polygon fill="white" stroke="black" points="647,-503.5 647,-522.5 770,-522.5 770,-503.5 647,-503.5"/>
<text text-anchor="middle" x="708.5" y="-510.5" font-family="Helvetica,sans-Serif" font-size="10.00">TLCD_tlm_create_app</text>
</a>
</g>
</g>
<!-- Node22&#45;&gt;Node23 -->
<g id="edge23" class="edge">
<title>Node22&#45;&gt;Node23</title>
<path fill="none" stroke="midnightblue" d="M828.33,-513C809.27,-513 788.65,-513 770.01,-513"/>
<polygon fill="midnightblue" stroke="midnightblue" points="828.43,-516.5 838.43,-513 828.43,-509.5 828.43,-516.5"/>
</g>
<!-- Node23&#45;&gt;Node7 -->
<g id="edge24" class="edge">
<title>Node23&#45;&gt;Node7</title>
<path fill="none" stroke="midnightblue" d="M652.01,-500.59C645.84,-498.64 639.73,-496.45 634,-494 590.97,-475.6 545.44,-443.53 524.02,-427.58"/>
<polygon fill="midnightblue" stroke="midnightblue" points="651.11,-503.97 661.69,-503.45 653.09,-497.26 651.11,-503.97"/>
</g>
<!-- Node25 -->
<g id="node23" class="node">
<title>Node25</title>
<g id="a_node23"><a xlink:href="packet__handler_8c.html#adaf645e2f92cac0b2d2120703546c35a" target="_top" xlink:title=" ">
<polygon fill="white" stroke="black" points="1035.5,-142.5 1035.5,-161.5 1132.5,-161.5 1132.5,-142.5 1035.5,-142.5"/>
<text text-anchor="middle" x="1084" y="-149.5" font-family="Helvetica,sans-Serif" font-size="10.00">PH_add_tl_cmd_</text>
</a>
</g>
</g>
<!-- Node24&#45;&gt;Node25 -->
<g id="edge26" class="edge">
<title>Node24&#45;&gt;Node25</title>
<path fill="none" stroke="midnightblue" d="M1204.27,-152C1181.04,-152 1154.68,-152 1132.66,-152"/>
<polygon fill="midnightblue" stroke="midnightblue" points="1204.36,-155.5 1214.36,-152 1204.36,-148.5 1204.36,-155.5"/>
</g>
<!-- Node45 -->
<g id="node33" class="node">
<title>Node45</title>
<g id="a_node33"><a xlink:href="packet__list_8h.html#aa1c786e55eef7a21cb425de7fd84db00" target="_top" xlink:title="PacketList 上に BC を展開する">
<polygon fill="white" stroke="black" points="1022,-85.5 1022,-104.5 1146,-104.5 1146,-85.5 1022,-85.5"/>
<text text-anchor="middle" x="1084" y="-92.5" font-family="Helvetica,sans-Serif" font-size="10.00">PL_deploy_block_cmd</text>
</a>
</g>
</g>
<!-- Node24&#45;&gt;Node45 -->
<g id="edge39" class="edge">
<title>Node24&#45;&gt;Node45</title>
<path fill="none" stroke="midnightblue" d="M1223.48,-139.34C1190.67,-128.84 1144.7,-114.12 1114.89,-104.57"/>
<polygon fill="midnightblue" stroke="midnightblue" points="1222.62,-142.74 1233.21,-142.46 1224.75,-136.08 1222.62,-142.74"/>
</g>
<!-- Node26 -->
<g id="node24" class="node">
<title>Node26</title>
<g id="a_node24"><a xlink:href="packet__handler_8c.html#ae2142bcb006e578dcf3c557a2e4e43ae" target="_top" xlink:title="UTL_cmd を TL_cmd に変換して tl_cmd_list に追加する">
<polygon fill="white" stroke="black" points="845,-161.5 845,-180.5 948,-180.5 948,-161.5 845,-161.5"/>
<text text-anchor="middle" x="896.5" y="-168.5" font-family="Helvetica,sans-Serif" font-size="10.00">PH_add_utl_cmd_</text>
</a>
</g>
</g>
<!-- Node25&#45;&gt;Node26 -->
<g id="edge27" class="edge">
<title>Node25&#45;&gt;Node26</title>
<path fill="none" stroke="midnightblue" d="M1025.25,-157.91C1000.52,-160.45 971.9,-163.38 948.03,-165.82"/>
<polygon fill="midnightblue" stroke="midnightblue" points="1025.64,-161.39 1035.23,-156.89 1024.92,-154.43 1025.64,-161.39"/>
</g>
<!-- Node27 -->
<g id="node25" class="node">
<title>Node27</title>
<g id="a_node25"><a xlink:href="packet__handler_8h.html#a9d16c8b958f0f983cf15674d6c528b02" target="_top" xlink:title="CCP を解析する">
<polygon fill="white" stroke="black" points="640,-161.5 640,-180.5 777,-180.5 777,-161.5 640,-161.5"/>
<text text-anchor="middle" x="708.5" y="-168.5" font-family="Helvetica,sans-Serif" font-size="10.00">PH_analyze_cmd_packet</text>
</a>
</g>
</g>
<!-- Node25&#45;&gt;Node27 -->
<g id="edge38" class="edge">
<title>Node25&#45;&gt;Node27</title>
<path fill="none" stroke="midnightblue" d="M1025.21,-149.15C971.64,-147.19 889.78,-145.9 819,-152 797.47,-153.85 773.82,-157.72 754.03,-161.49"/>
<polygon fill="midnightblue" stroke="midnightblue" points="1025.07,-152.65 1035.2,-149.54 1025.34,-145.66 1025.07,-152.65"/>
</g>
<!-- Node26&#45;&gt;Node27 -->
<g id="edge28" class="edge">
<title>Node26&#45;&gt;Node27</title>
<path fill="none" stroke="midnightblue" d="M834.65,-171C816.22,-171 795.86,-171 777.01,-171"/>
<polygon fill="midnightblue" stroke="midnightblue" points="834.67,-174.5 844.67,-171 834.67,-167.5 834.67,-174.5"/>
</g>
<!-- Node28 -->
<g id="node26" class="node">
<title>Node28</title>
<g id="a_node26"><a xlink:href="telemetry__manager_8h.html#a923d6ea9078726984798c4b0800381fe" target="_top" xlink:title="TLM送出用TLをクリア">
<polygon fill="white" stroke="black" points="424.5,-155.5 424.5,-174.5 596.5,-174.5 596.5,-155.5 424.5,-155.5"/>
<text text-anchor="middle" x="510.5" y="-162.5" font-family="Helvetica,sans-Serif" font-size="10.00">Cmd_TLM_MGR_CLEAR_TLM_TL</text>
</a>
</g>
</g>
<!-- Node27&#45;&gt;Node28 -->
<g id="edge29" class="edge">
<title>Node27&#45;&gt;Node28</title>
<path fill="none" stroke="midnightblue" d="M629.5,-168.61C618.66,-168.28 607.48,-167.94 596.52,-167.6"/>
<polygon fill="midnightblue" stroke="midnightblue" points="629.67,-172.12 639.77,-168.93 629.89,-165.12 629.67,-172.12"/>
</g>
<!-- Node32 -->
<g id="node29" class="node">
<title>Node32</title>
<g id="a_node29"><a xlink:href="telemetry__manager_8h.html#ad6f65df0da86f70cbd0f5b1e6cb32dbc" target="_top" xlink:title="TLM送出開始">
<polygon fill="white" stroke="black" points="433.5,-117.5 433.5,-136.5 587.5,-136.5 587.5,-117.5 433.5,-117.5"/>
<text text-anchor="middle" x="510.5" y="-124.5" font-family="Helvetica,sans-Serif" font-size="10.00">Cmd_TLM_MGR_START_TLM</text>
</a>
</g>
</g>
<!-- Node27&#45;&gt;Node32 -->
<g id="edge33" class="edge">
<title>Node27&#45;&gt;Node32</title>
<path fill="none" stroke="midnightblue" d="M656.26,-159.21C637.89,-155.01 617.03,-150.26 598,-146 584.2,-142.91 569.14,-139.58 555.52,-136.6"/>
<polygon fill="midnightblue" stroke="midnightblue" points="655.65,-162.66 666.18,-161.48 657.21,-155.84 655.65,-162.66"/>
</g>
<!-- Node33 -->
<g id="node30" class="node">
<title>Node33</title>
<g id="a_node30"><a xlink:href="divided__cmd__utility_8h.html#a65ad0b8aa0af1c9c0bdd74aa37b15b15" target="_top" xlink:title="次の分割の実行を登録">
<polygon fill="white" stroke="red" points="456.5,-231.5 456.5,-250.5 564.5,-250.5 564.5,-231.5 456.5,-231.5"/>
<text text-anchor="middle" x="510.5" y="-238.5" font-family="Helvetica,sans-Serif" font-size="10.00">DCU_register_next</text>
</a>
</g>
</g>
<!-- Node27&#45;&gt;Node33 -->
<g id="edge35" class="edge">
<title>Node27&#45;&gt;Node33</title>
<path fill="none" stroke="midnightblue" d="M681.21,-185.24C659.44,-196.55 627.42,-212.05 598,-222 587.08,-225.69 575.13,-228.85 563.69,-231.48"/>
<polygon fill="midnightblue" stroke="midnightblue" points="682.95,-188.29 690.16,-180.53 679.69,-182.09 682.95,-188.29"/>
</g>
<!-- Node36 -->
<g id="node31" class="node">
<title>Node36</title>
<g id="a_node31"><a xlink:href="gs_8c.html#a71a6268f1b467c60429c671e47e51e1d" target="_top" xlink:title="地上からの受信データ解析関数">
<polygon fill="white" stroke="red" points="447.5,-193.5 447.5,-212.5 573.5,-212.5 573.5,-193.5 447.5,-193.5"/>
<text text-anchor="middle" x="510.5" y="-200.5" font-family="Helvetica,sans-Serif" font-size="10.00">GS_analyze_rec_data_</text>
</a>
</g>
</g>
<!-- Node27&#45;&gt;Node36 -->
<g id="edge36" class="edge">
<title>Node27&#45;&gt;Node36</title>
<path fill="none" stroke="midnightblue" d="M639.35,-182.13C616.71,-185.82 591.72,-189.9 569.89,-193.47"/>
<polygon fill="midnightblue" stroke="midnightblue" points="639.92,-185.58 649.22,-180.51 638.79,-178.67 639.92,-185.58"/>
</g>
<!-- Node44 -->
<g id="node32" class="node">
<title>Node44</title>
<g id="a_node32"><a xlink:href="packet__handler_8h.html#acf757fa72967bf66b39dc5ced7132330" target="_top" xlink:title="CTCP を解析する">
<polygon fill="white" stroke="black" points="455,-269.5 455,-288.5 566,-288.5 566,-269.5 455,-269.5"/>
<text text-anchor="middle" x="510.5" y="-276.5" font-family="Helvetica,sans-Serif" font-size="10.00">PH_analyze_packet</text>
</a>
</g>
</g>
<!-- Node27&#45;&gt;Node44 -->
<g id="edge37" class="edge">
<title>Node27&#45;&gt;Node44</title>
<path fill="none" stroke="midnightblue" d="M675.64,-185.08C661.97,-192.02 646.34,-201.22 634,-212 613.92,-229.54 620.43,-245.57 598,-260 588.56,-266.07 577.47,-270.23 566.44,-273.06"/>
<polygon fill="midnightblue" stroke="midnightblue" points="677.27,-188.18 684.73,-180.65 674.2,-181.89 677.27,-188.18"/>
</g>
<!-- Node29 -->
<g id="node27" class="node">
<title>Node29</title>
<g id="a_node27"><a xlink:href="command__definitions_8c.html#aa375895192b16d8e7f0ff4545b54e6c4" target="_top" xlink:title="Cmd Tableのロード">
<polygon fill="white" stroke="black" points="274,-117.5 274,-136.5 387,-136.5 387,-117.5 274,-117.5"/>
<text text-anchor="middle" x="330.5" y="-124.5" font-family="Helvetica,sans-Serif" font-size="10.00">CA_load_cmd_table</text>
</a>
</g>
</g>
<!-- Node28&#45;&gt;Node29 -->
<g id="edge30" class="edge">
<title>Node28&#45;&gt;Node29</title>
<path fill="none" stroke="midnightblue" d="M454.78,-153.32C429.54,-147.93 399.95,-141.61 376.09,-136.52"/>
<polygon fill="midnightblue" stroke="midnightblue" points="454.07,-156.75 464.58,-155.41 455.53,-149.9 454.07,-156.75"/>
</g>
<!-- Node30 -->
<g id="node28" class="node">
<title>Node30</title>
<g id="a_node28"><a xlink:href="command__analyze_8h.html#ae6d1f376bf4e1c9c4b63bc3f04924c8a" target="_top" xlink:title="CA の初期化">
<polygon fill="white" stroke="red" points="140,-226.5 140,-245.5 217,-245.5 217,-226.5 140,-226.5"/>
<text text-anchor="middle" x="178.5" y="-233.5" font-family="Helvetica,sans-Serif" font-size="10.00">CA_initialize</text>
</a>
</g>
</g>
<!-- Node29&#45;&gt;Node30 -->
<g id="edge31" class="edge">
<title>Node29&#45;&gt;Node30</title>
<path fill="none" stroke="midnightblue" d="M308.08,-142.57C276.69,-165.38 219.1,-207.22 193,-226.19"/>
<polygon fill="midnightblue" stroke="midnightblue" points="310.16,-145.38 316.19,-136.67 306.04,-139.72 310.16,-145.38"/>
</g>
<!-- Node30&#45;&gt;Node8 -->
<g id="edge32" class="edge">
<title>Node30&#45;&gt;Node8</title>
<path fill="none" stroke="midnightblue" d="M152.25,-250.78C124.9,-266.78 82.09,-291.84 58.84,-305.44"/>
<polygon fill="midnightblue" stroke="midnightblue" points="154.35,-253.6 161.22,-245.53 150.82,-247.56 154.35,-253.6"/>
</g>
<!-- Node32&#45;&gt;Node29 -->
<g id="edge34" class="edge">
<title>Node32&#45;&gt;Node29</title>
<path fill="none" stroke="midnightblue" d="M423.21,-127C410.91,-127 398.55,-127 387.06,-127"/>
<polygon fill="midnightblue" stroke="midnightblue" points="423.5,-130.5 433.5,-127 423.5,-123.5 423.5,-130.5"/>
</g>
<!-- Node46 -->
<g id="node34" class="node">
<title>Node46</title>
<g id="a_node34"><a xlink:href="timeline__command__dispatcher_8h.html#a0f39289b0b07ada46a230d07e22cd4d1" target="_top" xlink:title=" ">
<polygon fill="white" stroke="black" points="434.5,-79.5 434.5,-98.5 586.5,-98.5 586.5,-79.5 434.5,-79.5"/>
<text text-anchor="middle" x="510.5" y="-86.5" font-family="Helvetica,sans-Serif" font-size="10.00">Cmd_TLCD_DEPLOY_BLOCK</text>
</a>
</g>
</g>
<!-- Node45&#45;&gt;Node46 -->
<g id="edge40" class="edge">
<title>Node45&#45;&gt;Node46</title>
<path fill="none" stroke="midnightblue" d="M1011.64,-94.25C903.08,-93.11 697.38,-90.95 586.62,-89.79"/>
<polygon fill="midnightblue" stroke="midnightblue" points="1011.8,-97.75 1021.84,-94.36 1011.88,-90.75 1011.8,-97.75"/>
</g>
<!-- Node47 -->
<g id="node35" class="node">
<title>Node47</title>
<g id="a_node35"><a xlink:href="task__dispatcher_8c.html#aa6835d29f6d61ff30f70aaebdf0d7df9" target="_top" xlink:title="TDSP_info_.task_list_id に登録された BC を TaskListに展開.">
<polygon fill="white" stroke="black" points="832.5,-36 832.5,-66 960.5,-66 960.5,-36 832.5,-36"/>
<text text-anchor="start" x="840.5" y="-54" font-family="Helvetica,sans-Serif" font-size="10.00">TDSP_deploy_block_as</text>
<text text-anchor="middle" x="896.5" y="-43" font-family="Helvetica,sans-Serif" font-size="10.00">_task_list_</text>
</a>
</g>
</g>
<!-- Node45&#45;&gt;Node47 -->
<g id="edge42" class="edge">
<title>Node45&#45;&gt;Node47</title>
<path fill="none" stroke="midnightblue" d="M1032.85,-83.11C1010.62,-77.83 984.21,-71.57 960.65,-65.98"/>
<polygon fill="midnightblue" stroke="midnightblue" points="1032.21,-86.55 1042.75,-85.45 1033.83,-79.74 1032.21,-86.55"/>
</g>
<!-- Node46&#45;&gt;Node29 -->
<g id="edge41" class="edge">
<title>Node46&#45;&gt;Node29</title>
<path fill="none" stroke="midnightblue" d="M454.78,-100.68C429.54,-106.07 399.95,-112.39 376.09,-117.48"/>
<polygon fill="midnightblue" stroke="midnightblue" points="455.53,-104.1 464.58,-98.59 454.07,-97.25 455.53,-104.1"/>
</g>
<!-- Node47&#45;&gt;Node14 -->
<g id="edge43" class="edge">
<title>Node47&#45;&gt;Node14</title>
<path fill="none" stroke="midnightblue" d="M878.24,-74.11C852.32,-108.49 804.12,-171.11 783,-190 769.23,-202.32 751.89,-213.57 737.51,-221.97"/>
<polygon fill="midnightblue" stroke="midnightblue" points="881.11,-76.11 884.32,-66.02 875.51,-71.91 881.11,-76.11"/>
</g>
<!-- Node48 -->
<g id="node36" class="node">
<title>Node48</title>
<g id="a_node36"><a xlink:href="task__dispatcher_8h.html#ab4cccbf9d36945e27f8023f9d613a667" target="_top" xlink:title="タスク管理を行うTDSP_Info構造体(TDSP_Info_)の初期化">
<polygon fill="white" stroke="black" points="286,-60.5 286,-79.5 375,-79.5 375,-60.5 286,-60.5"/>
<text text-anchor="middle" x="330.5" y="-67.5" font-family="Helvetica,sans-Serif" font-size="10.00">TDSP_initialize</text>
</a>
</g>
</g>
<!-- Node47&#45;&gt;Node48 -->
<g id="edge44" class="edge">
<title>Node47&#45;&gt;Node48</title>
<path fill="none" stroke="midnightblue" d="M822.34,-53.46C703.42,-57.47 471.77,-65.27 375.3,-68.52"/>
<polygon fill="midnightblue" stroke="midnightblue" points="822.57,-56.96 832.44,-53.12 822.33,-49.96 822.57,-56.96"/>
</g>
<!-- Node48&#45;&gt;Node8 -->
<g id="edge45" class="edge">
<title>Node48&#45;&gt;Node8</title>
<path fill="none" stroke="midnightblue" d="M303.7,-84.53C262.08,-108.7 178.75,-160.16 119,-217 88.82,-245.71 60.66,-286.83 48.64,-305.33"/>
<polygon fill="midnightblue" stroke="midnightblue" points="305.48,-87.55 312.4,-79.52 301.99,-81.48 305.48,-87.55"/>
</g>
<!-- Node50 -->
<g id="node38" class="node">
<title>Node50</title>
<g id="a_node38"><a xlink:href="di__gs_8c.html#ab60fae9ad2c806b6ba10cb8a076d07c0" target="_top" xlink:title=" ">
<polygon fill="white" stroke="black" points="819,-427.5 819,-446.5 974,-446.5 974,-427.5 819,-427.5"/>
<text text-anchor="middle" x="896.5" y="-434.5" font-family="Helvetica,sans-Serif" font-size="10.00">DI_GS_mst_packet_handler_</text>
</a>
</g>
</g>
<!-- Node49&#45;&gt;Node50 -->
<g id="edge47" class="edge">
<title>Node49&#45;&gt;Node50</title>
<path fill="none" stroke="midnightblue" d="M1021.72,-416.91C1000.69,-420.31 977.21,-424.11 956.38,-427.48"/>
<polygon fill="midnightblue" stroke="midnightblue" points="1022.51,-420.33 1031.82,-415.28 1021.39,-413.42 1022.51,-420.33"/>
</g>
<!-- Node52 -->
<g id="node40" class="node">
<title>Node52</title>
<g id="a_node40"><a xlink:href="di__gs_8c.html#ab2b3fada377f7de06881f4654946baeb" target="_top" xlink:title=" ">
<polygon fill="white" stroke="black" points="822,-389.5 822,-408.5 971,-408.5 971,-389.5 822,-389.5"/>
<text text-anchor="middle" x="896.5" y="-396.5" font-family="Helvetica,sans-Serif" font-size="10.00">DI_GS_rpt_packet_handler_</text>
</a>
</g>
</g>
<!-- Node49&#45;&gt;Node52 -->
<g id="edge50" class="edge">
<title>Node49&#45;&gt;Node52</title>
<path fill="none" stroke="midnightblue" d="M1021.45,-404.35C1005.32,-403.65 987.77,-402.89 971.08,-402.17"/>
<polygon fill="midnightblue" stroke="midnightblue" points="1021.68,-407.86 1031.82,-404.79 1021.98,-400.87 1021.68,-407.86"/>
</g>
<!-- Node51 -->
<g id="node39" class="node">
<title>Node51</title>
<g id="a_node39"><a xlink:href="di__gs_8h.html#acdcbf3a0e68de63d2078e808e87cd0e7" target="_top" xlink:title=" ">
<polygon fill="white" stroke="black" points="634,-427.5 634,-446.5 783,-446.5 783,-427.5 634,-427.5"/>
<text text-anchor="middle" x="708.5" y="-434.5" font-family="Helvetica,sans-Serif" font-size="10.00">DI_GS_mst_packet_handler</text>
</a>
</g>
</g>
<!-- Node50&#45;&gt;Node51 -->
<g id="edge48" class="edge">
<title>Node50&#45;&gt;Node51</title>
<path fill="none" stroke="midnightblue" d="M808.74,-437C800.15,-437 791.49,-437 783.06,-437"/>
<polygon fill="midnightblue" stroke="midnightblue" points="808.77,-440.5 818.77,-437 808.77,-433.5 808.77,-440.5"/>
</g>
<!-- Node51&#45;&gt;Node7 -->
<g id="edge49" class="edge">
<title>Node51&#45;&gt;Node7</title>
<path fill="none" stroke="midnightblue" d="M623.9,-428.9C608.46,-427.4 592.54,-425.86 577.71,-424.42"/>
<polygon fill="midnightblue" stroke="midnightblue" points="623.67,-432.39 633.96,-429.87 624.34,-425.42 623.67,-432.39"/>
</g>
<!-- Node53 -->
<g id="node41" class="node">
<title>Node53</title>
<g id="a_node41"><a xlink:href="di__gs_8h.html#a3dbaf7df7b7ed796ff4823ca28dca18c" target="_top" xlink:title=" ">
<polygon fill="white" stroke="black" points="636.5,-389.5 636.5,-408.5 780.5,-408.5 780.5,-389.5 636.5,-389.5"/>
<text text-anchor="middle" x="708.5" y="-396.5" font-family="Helvetica,sans-Serif" font-size="10.00">DI_GS_rpt_packet_handler</text>
</a>
</g>
</g>
<!-- Node52&#45;&gt;Node53 -->
<g id="edge51" class="edge">
<title>Node52&#45;&gt;Node53</title>
<path fill="none" stroke="midnightblue" d="M811.69,-399C801.33,-399 790.81,-399 780.66,-399"/>
<polygon fill="midnightblue" stroke="midnightblue" points="811.99,-402.5 821.99,-399 811.99,-395.5 811.99,-402.5"/>
</g>
<!-- Node53&#45;&gt;Node7 -->
<g id="edge52" class="edge">
<title>Node53&#45;&gt;Node7</title>
<path fill="none" stroke="midnightblue" d="M626.46,-406.86C610.24,-408.43 593.38,-410.06 577.73,-411.58"/>
<polygon fill="midnightblue" stroke="midnightblue" points="626.85,-410.33 636.46,-405.89 626.17,-403.37 626.85,-410.33"/>
</g>
<!-- Node55 -->
<g id="node43" class="node">
<title>Node55</title>
<g id="a_node43"><a xlink:href="timeline__command__dispatcher_8h.html#acb151d7575978d546ed2c55b91abfb9f" target="_top" xlink:title=" ">
<polygon fill="white" stroke="black" points="423,-0.5 423,-19.5 598,-19.5 598,-0.5 423,-0.5"/>
<text text-anchor="middle" x="510.5" y="-7.5" font-family="Helvetica,sans-Serif" font-size="10.00">Cmd_TLCD_CLEAR_TIMELINE_AT</text>
</a>
</g>
</g>
<!-- Node54&#45;&gt;Node55 -->
<g id="edge55" class="edge">
<title>Node54&#45;&gt;Node55</title>
<path fill="none" stroke="midnightblue" d="M1189.7,-43.6C1131.32,-37.97 1047.5,-30.45 974,-26 843.08,-18.08 691.06,-13.75 598.08,-11.66"/>
<polygon fill="midnightblue" stroke="midnightblue" points="1189.64,-47.12 1199.93,-44.6 1190.31,-40.15 1189.64,-47.12"/>
</g>
<!-- Node55&#45;&gt;Node29 -->
<g id="edge56" class="edge">
<title>Node55&#45;&gt;Node29</title>
<path fill="none" stroke="midnightblue" d="M486.27,-25.27C449.08,-49.71 377.22,-96.95 346.27,-117.29"/>
<polygon fill="midnightblue" stroke="midnightblue" points="488.5,-27.99 494.93,-19.57 484.65,-22.14 488.5,-27.99"/>
</g>
<!-- Node57 -->
<g id="node45" class="node">
<title>Node57</title>
<g id="a_node45"><a xlink:href="timeline__command__dispatcher_8c.html#aed8e8b3848d37e5b5930ff4df9f73f1f" target="_top" xlink:title=" ">
<polygon fill="white" stroke="black" points="1041.5,-503.5 1041.5,-522.5 1126.5,-522.5 1126.5,-503.5 1041.5,-503.5"/>
<text text-anchor="middle" x="1084" y="-510.5" font-family="Helvetica,sans-Serif" font-size="10.00">TLCD_gs_init_</text>
</a>
</g>
</g>
<!-- Node56&#45;&gt;Node57 -->
<g id="edge59" class="edge">
<title>Node56&#45;&gt;Node57</title>
<path fill="none" stroke="midnightblue" d="M1196.88,-513C1173.3,-513 1147.43,-513 1126.51,-513"/>
<polygon fill="midnightblue" stroke="midnightblue" points="1197.17,-516.5 1207.17,-513 1197.17,-509.5 1197.17,-516.5"/>
</g>
<!-- Node58 -->
<g id="node46" class="node">
<title>Node58</title>
<g id="a_node46"><a xlink:href="telemetry__definitions_8c.html#a5bfe725a86cdf3b11c37c014ca94447d" target="_top" xlink:title=" ">
<polygon fill="white" stroke="black" points="1055.5,-541.5 1055.5,-560.5 1112.5,-560.5 1112.5,-541.5 1055.5,-541.5"/>
<text text-anchor="middle" x="1084" y="-548.5" font-family="Helvetica,sans-Serif" font-size="10.00">Tlm_TL_</text>
</a>
</g>
</g>
<!-- Node56&#45;&gt;Node58 -->
<g id="edge61" class="edge">
<title>Node56&#45;&gt;Node58</title>
<path fill="none" stroke="midnightblue" d="M1197.04,-527.08C1167.93,-533.3 1135.28,-540.27 1112.77,-545.07"/>
<polygon fill="midnightblue" stroke="midnightblue" points="1198.12,-530.43 1207.17,-524.92 1196.66,-523.58 1198.12,-530.43"/>
</g>
<!-- Node57&#45;&gt;Node21 -->
<g id="edge60" class="edge">
<title>Node57&#45;&gt;Node21</title>
<path fill="none" stroke="midnightblue" d="M1031.44,-522.53C1023.97,-525.01 1016.59,-528.11 1010,-532 989.97,-543.83 995.37,-560.81 974,-570 892.8,-604.93 784.62,-576.78 735.6,-560.52"/>
<polygon fill="midnightblue" stroke="midnightblue" points="1032.65,-525.82 1041.25,-519.63 1030.67,-519.11 1032.65,-525.82"/>
</g>
<!-- Node59 -->
<g id="node47" class="node">
<title>Node59</title>
<g id="a_node47"><a xlink:href="telemetry__definitions_8c.html#a91def2fbe43510d233815f51bfa65268" target="_top" xlink:title="Tlm Tableのロード">
<polygon fill="white" stroke="black" points="843,-617.5 843,-636.5 950,-636.5 950,-617.5 843,-617.5"/>
<text text-anchor="middle" x="896.5" y="-624.5" font-family="Helvetica,sans-Serif" font-size="10.00">TF_load_tlm_table</text>
</a>
</g>
</g>
<!-- Node58&#45;&gt;Node59 -->
<g id="edge62" class="edge">
<title>Node58&#45;&gt;Node59</title>
<path fill="none" stroke="midnightblue" d="M1045.8,-560.52C1034,-564.25 1021.13,-569.07 1010,-575 992.11,-584.53 991.96,-593.59 974,-603 962.66,-608.94 949.59,-613.71 937.49,-617.39"/>
<polygon fill="midnightblue" stroke="midnightblue" points="1046.82,-563.87 1055.4,-557.65 1044.81,-557.17 1046.82,-563.87"/>
</g>
<!-- Node60 -->
<g id="node48" class="node">
<title>Node60</title>
<g id="a_node48"><a xlink:href="telemetry__frame_8h.html#a76cf4c72318af4ce953abdb8b522e787" target="_top" xlink:title="TF の初期化">
<polygon fill="white" stroke="red" points="140.5,-462.5 140.5,-481.5 216.5,-481.5 216.5,-462.5 140.5,-462.5"/>
<text text-anchor="middle" x="178.5" y="-469.5" font-family="Helvetica,sans-Serif" font-size="10.00">TF_initialize</text>
</a>
</g>
</g>
<!-- Node59&#45;&gt;Node60 -->
<g id="edge63" class="edge">
<title>Node59&#45;&gt;Node60</title>
<path fill="none" stroke="midnightblue" d="M841.53,-615.32C702.61,-585.24 335.33,-505.73 216.89,-480.09"/>
<polygon fill="midnightblue" stroke="midnightblue" points="841.01,-618.78 851.52,-617.48 842.49,-611.94 841.01,-618.78"/>
</g>
<!-- Node60&#45;&gt;Node8 -->
<g id="edge64" class="edge">
<title>Node60&#45;&gt;Node8</title>
<path fill="none" stroke="midnightblue" d="M162.22,-454.23C133.69,-421.05 73.19,-350.7 50.94,-324.82"/>
<polygon fill="midnightblue" stroke="midnightblue" points="159.88,-456.88 169.06,-462.18 165.19,-452.31 159.88,-456.88"/>
</g>
<!-- Node62&#45;&gt;Node59 -->
<g id="edge66" class="edge">
<title>Node62&#45;&gt;Node59</title>
<path fill="none" stroke="midnightblue" d="M1223.7,-619.86C1157.6,-621.31 1024.17,-624.23 950.08,-625.85"/>
<polygon fill="midnightblue" stroke="midnightblue" points="1223.79,-623.36 1233.71,-619.64 1223.63,-616.36 1223.79,-623.36"/>
</g>
<!-- Node63&#45;&gt;Node59 -->
<g id="edge68" class="edge">
<title>Node63&#45;&gt;Node59</title>
<path fill="none" stroke="midnightblue" d="M1215.9,-579.96C1147.61,-590.05 1021.49,-608.68 950.19,-619.22"/>
<polygon fill="midnightblue" stroke="midnightblue" points="1216.56,-583.4 1225.94,-578.47 1215.54,-576.47 1216.56,-583.4"/>
</g>
</g>
</svg>
