<?xml version="1.0" encoding="UTF-8" standalone="no"?>
<!DOCTYPE svg PUBLIC "-//W3C//DTD SVG 1.1//EN"
 "http://www.w3.org/Graphics/SVG/1.1/DTD/svg11.dtd">
<!-- Generated by graphviz version 2.43.0 (0)
 -->
<!-- Title: PH_analyze_tlm_packet Pages: 1 -->
<svg width="1336pt" height="180pt"
 viewBox="0.00 0.00 1336.00 180.00" xmlns="http://www.w3.org/2000/svg" xmlns:xlink="http://www.w3.org/1999/xlink">
<g id="graph0" class="graph" transform="scale(1 1) rotate(0) translate(4 176)">
<title>PH_analyze_tlm_packet</title>
<polygon fill="white" stroke="transparent" points="-4,4 -4,-176 1332,-176 1332,4 -4,4"/>
<!-- Node1 -->
<g id="node1" class="node">
<title>Node1</title>
<g id="a_node1"><a xlink:title="CTP を解析する">
<polygon fill="#bfbfbf" stroke="black" points="0,-114.5 0,-133.5 133,-133.5 133,-114.5 0,-114.5"/>
<text text-anchor="middle" x="66.5" y="-121.5" font-family="Helvetica,sans-Serif" font-size="10.00">PH_analyze_tlm_packet</text>
</a>
</g>
</g>
<!-- Node2 -->
<g id="node2" class="node">
<title>Node2</title>
<g id="a_node2"><a xlink:href="common__tlm__packet_8h.html#a684c8254afbb7793a92c63bdd9462558" target="_top" xlink:title="CTP_DEST_FLAG の &amp; を取った flags を取得">
<polygon fill="white" stroke="black" points="171.5,-152.5 171.5,-171.5 282.5,-171.5 282.5,-152.5 171.5,-152.5"/>
<text text-anchor="middle" x="227" y="-159.5" font-family="Helvetica,sans-Serif" font-size="10.00">CTP_get_dest_flags</text>
</a>
</g>
</g>
<!-- Node1&#45;&gt;Node2 -->
<g id="edge1" class="edge">
<title>Node1&#45;&gt;Node2</title>
<path fill="none" stroke="midnightblue" d="M107.5,-133.59C128.41,-138.6 154.21,-144.79 176.39,-150.11"/>
<polygon fill="midnightblue" stroke="midnightblue" points="175.75,-153.55 186.29,-152.48 177.38,-146.74 175.75,-153.55"/>
</g>
<!-- Node7 -->
<g id="node7" class="node">
<title>Node7</title>
<g id="a_node7"><a xlink:href="common__tlm__packet_8h.html#a285c1dc53d72a80747d8827c38d7aea4" target="_top" xlink:title="有効なパケットかチェックする">
<polygon fill="white" stroke="black" points="169,-114.5 169,-133.5 285,-133.5 285,-114.5 169,-114.5"/>
<text text-anchor="middle" x="227" y="-121.5" font-family="Helvetica,sans-Serif" font-size="10.00">CTP_is_valid_packet</text>
</a>
</g>
</g>
<!-- Node1&#45;&gt;Node7 -->
<g id="edge6" class="edge">
<title>Node1&#45;&gt;Node7</title>
<path fill="none" stroke="midnightblue" d="M133.34,-124C141.69,-124 150.23,-124 158.6,-124"/>
<polygon fill="midnightblue" stroke="midnightblue" points="158.7,-127.5 168.7,-124 158.7,-120.5 158.7,-127.5"/>
</g>
<!-- Node12 -->
<g id="node12" class="node">
<title>Node12</title>
<g id="a_node12"><a xlink:href="packet__handler_8c.html#a46236f660b6bef7bcd6d440a02b70cfe" target="_top" xlink:title=" ">
<polygon fill="white" stroke="black" points="176.5,-57.5 176.5,-76.5 277.5,-76.5 277.5,-57.5 176.5,-57.5"/>
<text text-anchor="middle" x="227" y="-64.5" font-family="Helvetica,sans-Serif" font-size="10.00">PH_add_ms_tlm_</text>
</a>
</g>
</g>
<!-- Node1&#45;&gt;Node12 -->
<g id="edge12" class="edge">
<title>Node1&#45;&gt;Node12</title>
<path fill="none" stroke="midnightblue" d="M94.03,-114.46C120.32,-105.01 160.77,-90.46 189.95,-79.96"/>
<polygon fill="midnightblue" stroke="midnightblue" points="191.16,-83.25 199.38,-76.57 188.79,-76.66 191.16,-83.25"/>
</g>
<!-- Node3 -->
<g id="node3" class="node">
<title>Node3</title>
<g id="a_node3"><a xlink:href="tlm__space__packet_8c.html#a505c9261fd3b3a66339d43e6b637ccd6" target="_top" xlink:title="Destination Flags を取得">
<polygon fill="white" stroke="black" points="778,-152.5 778,-171.5 888,-171.5 888,-152.5 778,-152.5"/>
<text text-anchor="middle" x="833" y="-159.5" font-family="Helvetica,sans-Serif" font-size="10.00">TSP_get_dest_flags</text>
</a>
</g>
</g>
<!-- Node2&#45;&gt;Node3 -->
<g id="edge2" class="edge">
<title>Node2&#45;&gt;Node3</title>
<path fill="none" stroke="midnightblue" d="M282.67,-162C394.4,-162 648.46,-162 767.81,-162"/>
<polygon fill="midnightblue" stroke="midnightblue" points="767.89,-165.5 777.89,-162 767.89,-158.5 767.89,-165.5"/>
</g>
<!-- Node4 -->
<g id="node4" class="node">
<title>Node4</title>
<g id="a_node4"><a xlink:href="space__packet_8c.html#a300c7fc3dea91319b0fa2f039f27d5eb" target="_top" xlink:title="packet に格納された param を取得">
<polygon fill="white" stroke="black" points="936,-120 936,-150 1070,-150 1070,-120 936,-120"/>
<text text-anchor="start" x="944" y="-138" font-family="Helvetica,sans-Serif" font-size="10.00">SP_extract_param_from</text>
<text text-anchor="middle" x="1003" y="-127" font-family="Helvetica,sans-Serif" font-size="10.00">_packet</text>
</a>
</g>
</g>
<!-- Node3&#45;&gt;Node4 -->
<g id="edge3" class="edge">
<title>Node3&#45;&gt;Node4</title>
<path fill="none" stroke="midnightblue" d="M888.08,-153.31C900.12,-151.37 913.09,-149.29 925.83,-147.24"/>
<polygon fill="midnightblue" stroke="midnightblue" points="926.65,-150.66 935.97,-145.61 925.54,-143.74 926.65,-150.66"/>
</g>
<!-- Node5 -->
<g id="node5" class="node">
<title>Node5</title>
<g id="a_node5"><a xlink:href="endian_8c.html#af3c71c10af16134e94da32e1e0d8d0f8" target="_top" xlink:title="エンディアンを考慮した memcpy">
<polygon fill="white" stroke="black" points="1106,-100.5 1106,-119.5 1209,-119.5 1209,-100.5 1106,-100.5"/>
<text text-anchor="middle" x="1157.5" y="-107.5" font-family="Helvetica,sans-Serif" font-size="10.00">ENDIAN_memcpy</text>
</a>
</g>
</g>
<!-- Node4&#45;&gt;Node5 -->
<g id="edge4" class="edge">
<title>Node4&#45;&gt;Node5</title>
<path fill="none" stroke="midnightblue" d="M1070,-124.18C1078.47,-122.79 1087.11,-121.37 1095.5,-120"/>
<polygon fill="midnightblue" stroke="midnightblue" points="1096.27,-123.42 1105.57,-118.35 1095.14,-116.51 1096.27,-123.42"/>
</g>
<!-- Node6 -->
<g id="node6" class="node">
<title>Node6</title>
<g id="a_node6"><a xlink:href="endian_8c.html#a3f28de556ac6792695854c7b4f437925" target="_top" xlink:title="エンディアンの変更">
<polygon fill="white" stroke="black" points="1245,-100.5 1245,-119.5 1328,-119.5 1328,-100.5 1245,-100.5"/>
<text text-anchor="middle" x="1286.5" y="-107.5" font-family="Helvetica,sans-Serif" font-size="10.00">ENDIAN_conv</text>
</a>
</g>
</g>
<!-- Node5&#45;&gt;Node6 -->
<g id="edge5" class="edge">
<title>Node5&#45;&gt;Node6</title>
<path fill="none" stroke="midnightblue" d="M1209.06,-110C1217.52,-110 1226.3,-110 1234.76,-110"/>
<polygon fill="midnightblue" stroke="midnightblue" points="1234.88,-113.5 1244.88,-110 1234.88,-106.5 1234.88,-113.5"/>
</g>
<!-- Node8 -->
<g id="node8" class="node">
<title>Node8</title>
<g id="a_node8"><a xlink:href="common__tlm__packet_8c.html#ab9f04fbc9871d8fe2639cd46679e33c9" target="_top" xlink:title="パケット長を取得">
<polygon fill="white" stroke="black" points="321,-114.5 321,-133.5 435,-133.5 435,-114.5 321,-114.5"/>
<text text-anchor="middle" x="378" y="-121.5" font-family="Helvetica,sans-Serif" font-size="10.00">CTP_get_packet_len</text>
</a>
</g>
</g>
<!-- Node7&#45;&gt;Node8 -->
<g id="edge7" class="edge">
<title>Node7&#45;&gt;Node8</title>
<path fill="none" stroke="midnightblue" d="M285.18,-124C293.47,-124 302.05,-124 310.5,-124"/>
<polygon fill="midnightblue" stroke="midnightblue" points="310.71,-127.5 320.71,-124 310.71,-120.5 310.71,-127.5"/>
</g>
<!-- Node9 -->
<g id="node9" class="node">
<title>Node9</title>
<g id="a_node9"><a xlink:href="tlm__space__packet_8c.html#a51745cb62959205762b4b2430f81804f" target="_top" xlink:title="Packet Length を取得">
<polygon fill="white" stroke="black" points="471,-114.5 471,-133.5 584,-133.5 584,-114.5 471,-114.5"/>
<text text-anchor="middle" x="527.5" y="-121.5" font-family="Helvetica,sans-Serif" font-size="10.00">TSP_get_packet_len</text>
</a>
</g>
</g>
<!-- Node8&#45;&gt;Node9 -->
<g id="edge8" class="edge">
<title>Node8&#45;&gt;Node9</title>
<path fill="none" stroke="midnightblue" d="M435.18,-124C443.52,-124 452.17,-124 460.68,-124"/>
<polygon fill="midnightblue" stroke="midnightblue" points="460.96,-127.5 470.96,-124 460.96,-120.5 460.96,-127.5"/>
</g>
<!-- Node10 -->
<g id="node10" class="node">
<title>Node10</title>
<g id="a_node10"><a xlink:href="space__packet_8c.html#a25afed909fb67da49f5ac9921a23744f" target="_top" xlink:title="Packet Length を取得">
<polygon fill="white" stroke="black" points="621.5,-114.5 621.5,-133.5 728.5,-133.5 728.5,-114.5 621.5,-114.5"/>
<text text-anchor="middle" x="675" y="-121.5" font-family="Helvetica,sans-Serif" font-size="10.00">SP_get_packet_len</text>
</a>
</g>
</g>
<!-- Node9&#45;&gt;Node10 -->
<g id="edge9" class="edge">
<title>Node9&#45;&gt;Node10</title>
<path fill="none" stroke="midnightblue" d="M584.34,-124C593.19,-124 602.39,-124 611.39,-124"/>
<polygon fill="midnightblue" stroke="midnightblue" points="611.42,-127.5 621.42,-124 611.42,-120.5 611.42,-127.5"/>
</g>
<!-- Node11 -->
<g id="node11" class="node">
<title>Node11</title>
<g id="a_node11"><a xlink:href="space__packet_8c.html#ad5dd44fdb4e6c00e7dbb311d3aaee3d3" target="_top" xlink:title="Packet Data Length を取得">
<polygon fill="white" stroke="black" points="766,-114.5 766,-133.5 900,-133.5 900,-114.5 766,-114.5"/>
<text text-anchor="middle" x="833" y="-121.5" font-family="Helvetica,sans-Serif" font-size="10.00">SP_get_packet_data_len</text>
</a>
</g>
</g>
<!-- Node10&#45;&gt;Node11 -->
<g id="edge10" class="edge">
<title>Node10&#45;&gt;Node11</title>
<path fill="none" stroke="midnightblue" d="M728.81,-124C737.48,-124 746.62,-124 755.72,-124"/>
<polygon fill="midnightblue" stroke="midnightblue" points="755.96,-127.5 765.96,-124 755.96,-120.5 755.96,-127.5"/>
</g>
<!-- Node11&#45;&gt;Node4 -->
<g id="edge11" class="edge">
<title>Node11&#45;&gt;Node4</title>
<path fill="none" stroke="midnightblue" d="M900.4,-128.35C908.68,-128.89 917.2,-129.45 925.62,-130"/>
<polygon fill="midnightblue" stroke="midnightblue" points="925.6,-133.51 935.81,-130.67 926.06,-126.52 925.6,-133.51"/>
</g>
<!-- Node13 -->
<g id="node13" class="node">
<title>Node13</title>
<g id="a_node13"><a xlink:href="packet__handler_8c.html#a11de7c4340b58b7775bfb13589d74e27" target="_top" xlink:title=" ">
<polygon fill="white" stroke="black" points="326,-57.5 326,-76.5 430,-76.5 430,-57.5 326,-57.5"/>
<text text-anchor="middle" x="378" y="-64.5" font-family="Helvetica,sans-Serif" font-size="10.00">PH_add_tlm_to_pl</text>
</a>
</g>
</g>
<!-- Node12&#45;&gt;Node13 -->
<g id="edge13" class="edge">
<title>Node12&#45;&gt;Node13</title>
<path fill="none" stroke="midnightblue" d="M277.61,-67C289.84,-67 303.07,-67 315.78,-67"/>
<polygon fill="midnightblue" stroke="midnightblue" points="315.82,-70.5 325.82,-67 315.82,-63.5 315.82,-70.5"/>
</g>
<!-- Node14 -->
<g id="node14" class="node">
<title>Node14</title>
<g id="a_node14"><a xlink:href="common__tlm__packet_8h.html#afddacefa253df08076d9a55613ccd2ab" target="_top" xlink:title="CTP_DEST_FLAG の &amp; を取った flags を設定">
<polygon fill="white" stroke="black" points="472.5,-76.5 472.5,-95.5 582.5,-95.5 582.5,-76.5 472.5,-76.5"/>
<text text-anchor="middle" x="527.5" y="-83.5" font-family="Helvetica,sans-Serif" font-size="10.00">CTP_set_dest_flags</text>
</a>
</g>
</g>
<!-- Node13&#45;&gt;Node14 -->
<g id="edge14" class="edge">
<title>Node13&#45;&gt;Node14</title>
<path fill="none" stroke="midnightblue" d="M430.17,-73.59C440.52,-74.92 451.51,-76.34 462.24,-77.72"/>
<polygon fill="midnightblue" stroke="midnightblue" points="462.04,-81.23 472.4,-79.03 462.93,-74.28 462.04,-81.23"/>
</g>
<!-- Node17 -->
<g id="node17" class="node">
<title>Node17</title>
<g id="a_node17"><a xlink:href="packet__list_8c.html#a2e8740e7602d37d97f4aea46152cf50e" target="_top" xlink:title="PacketList の active な末端 Node を取得">
<polygon fill="white" stroke="black" points="492.5,-38.5 492.5,-57.5 562.5,-57.5 562.5,-38.5 492.5,-38.5"/>
<text text-anchor="middle" x="527.5" y="-45.5" font-family="Helvetica,sans-Serif" font-size="10.00">PL_get_tail</text>
</a>
</g>
</g>
<!-- Node13&#45;&gt;Node17 -->
<g id="edge18" class="edge">
<title>Node13&#45;&gt;Node17</title>
<path fill="none" stroke="midnightblue" d="M430.17,-60.41C446.97,-58.25 465.48,-55.86 481.76,-53.76"/>
<polygon fill="midnightblue" stroke="midnightblue" points="482.62,-57.18 492.09,-52.43 481.73,-50.24 482.62,-57.18"/>
</g>
<!-- Node18 -->
<g id="node18" class="node">
<title>Node18</title>
<g id="a_node18"><a xlink:href="packet__list_8c.html#afaf80120b8b97c0fdf3099e13e9019be" target="_top" xlink:title="PacketList の末尾に packet を挿入">
<polygon fill="white" stroke="black" points="485,-0.5 485,-19.5 570,-19.5 570,-0.5 485,-0.5"/>
<text text-anchor="middle" x="527.5" y="-7.5" font-family="Helvetica,sans-Serif" font-size="10.00">PL_push_back</text>
</a>
</g>
</g>
<!-- Node13&#45;&gt;Node18 -->
<g id="edge19" class="edge">
<title>Node13&#45;&gt;Node18</title>
<path fill="none" stroke="midnightblue" d="M401.16,-57.4C419.7,-49.47 446.91,-38.09 471,-29 476.49,-26.93 482.33,-24.82 488.07,-22.81"/>
<polygon fill="midnightblue" stroke="midnightblue" points="489.27,-26.1 497.57,-19.52 486.98,-19.48 489.27,-26.1"/>
</g>
<!-- Node15 -->
<g id="node15" class="node">
<title>Node15</title>
<g id="a_node15"><a xlink:href="tlm__space__packet_8c.html#ae2d93a907d5dfd7df12f9f8b3a661cd9" target="_top" xlink:title="Destination Flags を設定">
<polygon fill="white" stroke="black" points="620,-76.5 620,-95.5 730,-95.5 730,-76.5 620,-76.5"/>
<text text-anchor="middle" x="675" y="-83.5" font-family="Helvetica,sans-Serif" font-size="10.00">TSP_set_dest_flags</text>
</a>
</g>
</g>
<!-- Node14&#45;&gt;Node15 -->
<g id="edge15" class="edge">
<title>Node14&#45;&gt;Node15</title>
<path fill="none" stroke="midnightblue" d="M582.68,-86C591.48,-86 600.68,-86 609.7,-86"/>
<polygon fill="midnightblue" stroke="midnightblue" points="609.78,-89.5 619.78,-86 609.78,-82.5 609.78,-89.5"/>
</g>
<!-- Node16 -->
<g id="node16" class="node">
<title>Node16</title>
<g id="a_node16"><a xlink:href="space__packet_8c.html#a9d4e5051b01d74f88ee13ce05f61b392" target="_top" xlink:title="packet に param を格納">
<polygon fill="white" stroke="black" points="946.5,-71 946.5,-101 1059.5,-101 1059.5,-71 946.5,-71"/>
<text text-anchor="start" x="954.5" y="-89" font-family="Helvetica,sans-Serif" font-size="10.00">SP_insert_param_to</text>
<text text-anchor="middle" x="1003" y="-78" font-family="Helvetica,sans-Serif" font-size="10.00">_packet</text>
</a>
</g>
</g>
<!-- Node15&#45;&gt;Node16 -->
<g id="edge16" class="edge">
<title>Node15&#45;&gt;Node16</title>
<path fill="none" stroke="midnightblue" d="M730.2,-86C786.76,-86 875.5,-86 936.09,-86"/>
<polygon fill="midnightblue" stroke="midnightblue" points="936.31,-89.5 946.31,-86 936.31,-82.5 936.31,-89.5"/>
</g>
<!-- Node16&#45;&gt;Node5 -->
<g id="edge17" class="edge">
<title>Node16&#45;&gt;Node5</title>
<path fill="none" stroke="midnightblue" d="M1059.92,-94.8C1071.49,-96.62 1083.74,-98.55 1095.48,-100.4"/>
<polygon fill="midnightblue" stroke="midnightblue" points="1095.22,-103.9 1105.64,-102 1096.31,-96.98 1095.22,-103.9"/>
</g>
<!-- Node19 -->
<g id="node19" class="node">
<title>Node19</title>
<g id="a_node19"><a xlink:href="packet__list_8c.html#a16ea3d3b9925532e2772678215e38abb" target="_top" xlink:title="未使用 Node を新規に取得">
<polygon fill="white" stroke="black" points="621,-0.5 621,-19.5 729,-19.5 729,-0.5 621,-0.5"/>
<text text-anchor="middle" x="675" y="-7.5" font-family="Helvetica,sans-Serif" font-size="10.00">PL_get_free_node_</text>
</a>
</g>
</g>
<!-- Node18&#45;&gt;Node19 -->
<g id="edge20" class="edge">
<title>Node18&#45;&gt;Node19</title>
<path fill="none" stroke="midnightblue" d="M570.19,-10C582.77,-10 596.88,-10 610.54,-10"/>
<polygon fill="midnightblue" stroke="midnightblue" points="610.87,-13.5 620.87,-10 610.87,-6.5 610.87,-13.5"/>
</g>
</g>
</svg>
