<?xml version="1.0" encoding="UTF-8" standalone="no"?>
<!DOCTYPE svg PUBLIC "-//W3C//DTD SVG 1.1//EN"
 "http://www.w3.org/Graphics/SVG/1.1/DTD/svg11.dtd">
<!-- Generated by graphviz version 2.43.0 (0)
 -->
<!-- Title: PL_count_executed_nodes Pages: 1 -->
<svg width="1449pt" height="123pt"
 viewBox="0.00 0.00 1449.00 123.00" xmlns="http://www.w3.org/2000/svg" xmlns:xlink="http://www.w3.org/1999/xlink">
<g id="graph0" class="graph" transform="scale(1 1) rotate(0) translate(4 119)">
<title>PL_count_executed_nodes</title>
<polygon fill="white" stroke="transparent" points="-4,4 -4,-119 1445,-119 1445,4 -4,4"/>
<!-- Node1 -->
<g id="node1" class="node">
<title>Node1</title>
<g id="a_node1"><a xlink:title="PacketList で実行された Node 数を返す">
<polygon fill="#bfbfbf" stroke="black" points="1297,-57.5 1297,-76.5 1441,-76.5 1441,-57.5 1297,-57.5"/>
<text text-anchor="middle" x="1369" y="-64.5" font-family="Helvetica,sans-Serif" font-size="10.00">PL_count_executed_nodes</text>
</a>
</g>
</g>
<!-- Node2 -->
<g id="node2" class="node">
<title>Node2</title>
<g id="a_node2"><a xlink:href="debug__apps_8c.html#afe3184e9f0118e022152cf5a1bce5736" target="_top" xlink:title=" ">
<polygon fill="white" stroke="black" points="1104,-95.5 1104,-114.5 1261,-114.5 1261,-95.5 1104,-95.5"/>
<text text-anchor="middle" x="1182.5" y="-102.5" font-family="Helvetica,sans-Serif" font-size="10.00">APP_DBG_print_cmd_status_</text>
</a>
</g>
</g>
<!-- Node1&#45;&gt;Node2 -->
<g id="edge1" class="edge">
<title>Node1&#45;&gt;Node2</title>
<path fill="none" stroke="midnightblue" d="M1311.63,-78.61C1285.39,-84.01 1254.56,-90.36 1229.72,-95.48"/>
<polygon fill="midnightblue" stroke="midnightblue" points="1312.35,-82.03 1321.44,-76.59 1310.94,-75.18 1312.35,-82.03"/>
</g>
<!-- Node8 -->
<g id="node8" class="node">
<title>Node8</title>
<g id="a_node8"><a xlink:href="telemetry__definitions_8c.html#ae991503d7e5e3ed1bd65797e3fa8622c" target="_top" xlink:title=" ">
<polygon fill="white" stroke="black" points="1152.5,-57.5 1152.5,-76.5 1212.5,-76.5 1212.5,-57.5 1152.5,-57.5"/>
<text text-anchor="middle" x="1182.5" y="-64.5" font-family="Helvetica,sans-Serif" font-size="10.00">Tlm_HK_</text>
</a>
</g>
</g>
<!-- Node1&#45;&gt;Node8 -->
<g id="edge7" class="edge">
<title>Node1&#45;&gt;Node8</title>
<path fill="none" stroke="midnightblue" d="M1286.9,-67C1260.52,-67 1232.9,-67 1212.85,-67"/>
<polygon fill="midnightblue" stroke="midnightblue" points="1286.93,-70.5 1296.93,-67 1286.93,-63.5 1286.93,-70.5"/>
</g>
<!-- Node15 -->
<g id="node15" class="node">
<title>Node15</title>
<g id="a_node15"><a xlink:href="telemetry__definitions_8c.html#abeb688f0f66e6d3870869fa430fbb3a7" target="_top" xlink:title=" ">
<polygon fill="white" stroke="black" points="1144.5,-19.5 1144.5,-38.5 1220.5,-38.5 1220.5,-19.5 1144.5,-19.5"/>
<text text-anchor="middle" x="1182.5" y="-26.5" font-family="Helvetica,sans-Serif" font-size="10.00">Tlm_MOBC_</text>
</a>
</g>
</g>
<!-- Node1&#45;&gt;Node15 -->
<g id="edge17" class="edge">
<title>Node1&#45;&gt;Node15</title>
<path fill="none" stroke="midnightblue" d="M1311.29,-55.32C1281.86,-49.26 1246.73,-42.02 1220.75,-36.67"/>
<polygon fill="midnightblue" stroke="midnightblue" points="1310.94,-58.82 1321.44,-57.41 1312.35,-51.97 1310.94,-58.82"/>
</g>
<!-- Node3 -->
<g id="node3" class="node">
<title>Node3</title>
<g id="a_node3"><a xlink:href="debug__apps_8h.html#a67dbccb31d8e1a91fa6bd81f2e2d89e6" target="_top" xlink:title=" ">
<polygon fill="white" stroke="black" points="916,-95.5 916,-114.5 1068,-114.5 1068,-95.5 916,-95.5"/>
<text text-anchor="middle" x="992" y="-102.5" font-family="Helvetica,sans-Serif" font-size="10.00">APP_DBG_print_cmd_status</text>
</a>
</g>
</g>
<!-- Node2&#45;&gt;Node3 -->
<g id="edge2" class="edge">
<title>Node2&#45;&gt;Node3</title>
<path fill="none" stroke="midnightblue" d="M1093.47,-105C1085.01,-105 1076.48,-105 1068.15,-105"/>
<polygon fill="midnightblue" stroke="midnightblue" points="1093.74,-108.5 1103.74,-105 1093.74,-101.5 1093.74,-108.5"/>
</g>
<!-- Node4 -->
<g id="node4" class="node">
<title>Node4</title>
<g id="a_node4"><a xlink:href="app__registry_8h.html#ab944b1d78a41e427bc2ed57f9c4e9534" target="_top" xlink:title=" ">
<polygon fill="white" stroke="black" points="634,-95.5 634,-114.5 768,-114.5 768,-95.5 634,-95.5"/>
<text text-anchor="middle" x="701" y="-102.5" font-family="Helvetica,sans-Serif" font-size="10.00">AR_load_initial_settings</text>
</a>
</g>
</g>
<!-- Node3&#45;&gt;Node4 -->
<g id="edge3" class="edge">
<title>Node3&#45;&gt;Node4</title>
<path fill="none" stroke="midnightblue" d="M905.74,-105C861.89,-105 809.23,-105 768.43,-105"/>
<polygon fill="midnightblue" stroke="midnightblue" points="905.82,-108.5 915.82,-105 905.82,-101.5 905.82,-108.5"/>
</g>
<!-- Node5 -->
<g id="node5" class="node">
<title>Node5</title>
<g id="a_node5"><a xlink:href="c2a__core__main_8h.html#a65ecdc63d8762ffde4db7f6c6e6f07cf" target="_top" xlink:title=" ">
<polygon fill="white" stroke="black" points="253,-57.5 253,-76.5 336,-76.5 336,-57.5 253,-57.5"/>
<text text-anchor="middle" x="294.5" y="-64.5" font-family="Helvetica,sans-Serif" font-size="10.00">C2A_core_init</text>
</a>
</g>
</g>
<!-- Node4&#45;&gt;Node5 -->
<g id="edge4" class="edge">
<title>Node4&#45;&gt;Node5</title>
<path fill="none" stroke="midnightblue" d="M623.83,-101.76C557.2,-98.37 457.92,-91.97 372,-81 360.35,-79.51 347.78,-77.42 336.27,-75.3"/>
<polygon fill="midnightblue" stroke="midnightblue" points="623.66,-105.26 633.83,-102.26 624.01,-98.26 623.66,-105.26"/>
</g>
<!-- Node6 -->
<g id="node6" class="node">
<title>Node6</title>
<g id="a_node6"><a xlink:href="c2a__main_8c.html#a630222a80cd8bffd4426d4a55a215069" target="_top" xlink:title=" ">
<polygon fill="white" stroke="black" points="155,-57.5 155,-76.5 217,-76.5 217,-57.5 155,-57.5"/>
<text text-anchor="middle" x="186" y="-64.5" font-family="Helvetica,sans-Serif" font-size="10.00">C2A_init_</text>
</a>
</g>
</g>
<!-- Node5&#45;&gt;Node6 -->
<g id="edge5" class="edge">
<title>Node5&#45;&gt;Node6</title>
<path fill="none" stroke="midnightblue" d="M242.76,-67C234.01,-67 225.17,-67 217.18,-67"/>
<polygon fill="midnightblue" stroke="midnightblue" points="242.93,-70.5 252.93,-67 242.93,-63.5 242.93,-70.5"/>
</g>
<!-- Node7 -->
<g id="node7" class="node">
<title>Node7</title>
<g id="a_node7"><a xlink:href="c2a__main_8c.html#ac3344a311adda8f9e7310924bedf81fc" target="_top" xlink:title=" ">
<polygon fill="white" stroke="black" points="0,-57.5 0,-76.5 119,-76.5 119,-57.5 0,-57.5"/>
<text text-anchor="middle" x="59.5" y="-64.5" font-family="Helvetica,sans-Serif" font-size="10.00">address_fixed_main_</text>
</a>
</g>
</g>
<!-- Node6&#45;&gt;Node7 -->
<g id="edge6" class="edge">
<title>Node6&#45;&gt;Node7</title>
<path fill="none" stroke="midnightblue" d="M144.83,-67C136.62,-67 127.82,-67 119.12,-67"/>
<polygon fill="midnightblue" stroke="midnightblue" points="144.86,-70.5 154.86,-67 144.86,-63.5 144.86,-70.5"/>
</g>
<!-- Node9 -->
<g id="node9" class="node">
<title>Node9</title>
<g id="a_node9"><a xlink:href="telemetry__definitions_8c.html#a91def2fbe43510d233815f51bfa65268" target="_top" xlink:title="Tlm Tableのロード">
<polygon fill="white" stroke="black" points="938.5,-38.5 938.5,-57.5 1045.5,-57.5 1045.5,-38.5 938.5,-38.5"/>
<text text-anchor="middle" x="992" y="-45.5" font-family="Helvetica,sans-Serif" font-size="10.00">TF_load_tlm_table</text>
</a>
</g>
</g>
<!-- Node8&#45;&gt;Node9 -->
<g id="edge8" class="edge">
<title>Node8&#45;&gt;Node9</title>
<path fill="none" stroke="midnightblue" d="M1142.25,-63.04C1114.24,-60.22 1076.25,-56.39 1045.61,-53.3"/>
<polygon fill="midnightblue" stroke="midnightblue" points="1142.16,-66.55 1152.46,-64.07 1142.86,-59.59 1142.16,-66.55"/>
</g>
<!-- Node10 -->
<g id="node10" class="node">
<title>Node10</title>
<g id="a_node10"><a xlink:href="telemetry__frame_8h.html#a76cf4c72318af4ce953abdb8b522e787" target="_top" xlink:title="TF の初期化">
<polygon fill="white" stroke="black" points="804,-38.5 804,-57.5 880,-57.5 880,-38.5 804,-38.5"/>
<text text-anchor="middle" x="842" y="-45.5" font-family="Helvetica,sans-Serif" font-size="10.00">TF_initialize</text>
</a>
</g>
</g>
<!-- Node9&#45;&gt;Node10 -->
<g id="edge9" class="edge">
<title>Node9&#45;&gt;Node10</title>
<path fill="none" stroke="midnightblue" d="M928.31,-48C911.88,-48 894.7,-48 880.1,-48"/>
<polygon fill="midnightblue" stroke="midnightblue" points="928.4,-51.5 938.4,-48 928.4,-44.5 928.4,-51.5"/>
</g>
<!-- Node10&#45;&gt;Node5 -->
<g id="edge10" class="edge">
<title>Node10&#45;&gt;Node5</title>
<path fill="none" stroke="midnightblue" d="M793.92,-49.64C688.59,-53.31 435.43,-62.13 336.29,-65.58"/>
<polygon fill="midnightblue" stroke="midnightblue" points="794.06,-53.14 803.93,-49.29 793.82,-46.14 794.06,-53.14"/>
</g>
<!-- Node11 -->
<g id="node11" class="node">
<title>Node11</title>
<g id="a_node11"><a xlink:href="telemetry__frame_8h.html#a55747c2a23edb7d30417a4616fe99b57" target="_top" xlink:title=" ">
<polygon fill="white" stroke="black" points="660.5,-19.5 660.5,-38.5 741.5,-38.5 741.5,-19.5 660.5,-19.5"/>
<text text-anchor="middle" x="701" y="-26.5" font-family="Helvetica,sans-Serif" font-size="10.00">Cmd_TF_INIT</text>
</a>
</g>
</g>
<!-- Node10&#45;&gt;Node11 -->
<g id="edge11" class="edge">
<title>Node10&#45;&gt;Node11</title>
<path fill="none" stroke="midnightblue" d="M793.55,-41.51C776.7,-39.21 757.93,-36.65 741.79,-34.44"/>
<polygon fill="midnightblue" stroke="midnightblue" points="793.37,-45.02 803.75,-42.91 794.32,-38.09 793.37,-45.02"/>
</g>
<!-- Node12 -->
<g id="node12" class="node">
<title>Node12</title>
<g id="a_node12"><a xlink:href="command__definitions_8c.html#aa375895192b16d8e7f0ff4545b54e6c4" target="_top" xlink:title="Cmd Tableのロード">
<polygon fill="white" stroke="black" points="485,-19.5 485,-38.5 598,-38.5 598,-19.5 485,-19.5"/>
<text text-anchor="middle" x="541.5" y="-26.5" font-family="Helvetica,sans-Serif" font-size="10.00">CA_load_cmd_table</text>
</a>
</g>
</g>
<!-- Node11&#45;&gt;Node12 -->
<g id="edge12" class="edge">
<title>Node11&#45;&gt;Node12</title>
<path fill="none" stroke="midnightblue" d="M649.79,-29C633.39,-29 615.08,-29 598.29,-29"/>
<polygon fill="midnightblue" stroke="midnightblue" points="650.26,-32.5 660.26,-29 650.26,-25.5 650.26,-32.5"/>
</g>
<!-- Node13 -->
<g id="node13" class="node">
<title>Node13</title>
<g id="a_node13"><a xlink:href="command__analyze_8h.html#ae6d1f376bf4e1c9c4b63bc3f04924c8a" target="_top" xlink:title="CA の初期化">
<polygon fill="white" stroke="black" points="372,-19.5 372,-38.5 449,-38.5 449,-19.5 372,-19.5"/>
<text text-anchor="middle" x="410.5" y="-26.5" font-family="Helvetica,sans-Serif" font-size="10.00">CA_initialize</text>
</a>
</g>
</g>
<!-- Node12&#45;&gt;Node13 -->
<g id="edge13" class="edge">
<title>Node12&#45;&gt;Node13</title>
<path fill="none" stroke="midnightblue" d="M474.5,-29C465.82,-29 457.17,-29 449.19,-29"/>
<polygon fill="midnightblue" stroke="midnightblue" points="474.67,-32.5 484.67,-29 474.67,-25.5 474.67,-32.5"/>
</g>
<!-- Node13&#45;&gt;Node5 -->
<g id="edge14" class="edge">
<title>Node13&#45;&gt;Node5</title>
<path fill="none" stroke="midnightblue" d="M371.02,-41.83C355.73,-46.92 338.43,-52.69 324.26,-57.41"/>
<polygon fill="midnightblue" stroke="midnightblue" points="372.35,-45.07 380.73,-38.59 370.14,-38.43 372.35,-45.07"/>
</g>
<!-- Node14 -->
<g id="node14" class="node">
<title>Node14</title>
<g id="a_node14"><a xlink:href="command__analyze_8h.html#a85d8daea84970ad2895a0209bd350b7b" target="_top" xlink:title=" ">
<polygon fill="white" stroke="black" points="253,-0.5 253,-19.5 336,-19.5 336,-0.5 253,-0.5"/>
<text text-anchor="middle" x="294.5" y="-7.5" font-family="Helvetica,sans-Serif" font-size="10.00">Cmd_CA_INIT</text>
</a>
</g>
</g>
<!-- Node13&#45;&gt;Node14 -->
<g id="edge15" class="edge">
<title>Node13&#45;&gt;Node14</title>
<path fill="none" stroke="midnightblue" d="M361.72,-21.04C353.25,-19.62 344.5,-18.17 336.24,-16.79"/>
<polygon fill="midnightblue" stroke="midnightblue" points="361.42,-24.53 371.86,-22.73 362.57,-17.63 361.42,-24.53"/>
</g>
<!-- Node14&#45;&gt;Node12 -->
<g id="edge16" class="edge">
<title>Node14&#45;&gt;Node12</title>
<path fill="none" stroke="midnightblue" d="M346.23,-7.4C376.21,-6.51 414.85,-6.49 449,-10 467.08,-11.86 486.85,-15.73 503.37,-19.49"/>
<polygon fill="midnightblue" stroke="midnightblue" points="345.89,-3.91 336.01,-7.75 346.13,-10.91 345.89,-3.91"/>
</g>
<!-- Node15&#45;&gt;Node9 -->
<g id="edge18" class="edge">
<title>Node15&#45;&gt;Node9</title>
<path fill="none" stroke="midnightblue" d="M1134.28,-33.76C1107.27,-36.48 1073.34,-39.9 1045.51,-42.71"/>
<polygon fill="midnightblue" stroke="midnightblue" points="1134.66,-37.24 1144.26,-32.75 1133.96,-30.27 1134.66,-37.24"/>
</g>
</g>
</svg>
