<?xml version="1.0" encoding="UTF-8" standalone="no"?>
<!DOCTYPE svg PUBLIC "-//W3C//DTD SVG 1.1//EN"
 "http://www.w3.org/Graphics/SVG/1.1/DTD/svg11.dtd">
<!-- Generated by graphviz version 2.43.0 (0)
 -->
<!-- Title: src/src_core/TlmCmd/packet_handler.h Pages: 1 -->
<svg width="1484pt" height="541pt"
 viewBox="0.00 0.00 1484.24 541.00" xmlns="http://www.w3.org/2000/svg" xmlns:xlink="http://www.w3.org/1999/xlink">
<g id="graph0" class="graph" transform="scale(1 1) rotate(0) translate(4 537)">
<title>src/src_core/TlmCmd/packet_handler.h</title>
<polygon fill="white" stroke="transparent" points="-4,4 -4,-537 1480.24,-537 1480.24,4 -4,4"/>
<!-- Node1 -->
<g id="node1" class="node">
<title>Node1</title>
<g id="a_node1"><a xlink:title="C2A 全体を流れる Common Packet の配送を制御する">
<polygon fill="#bfbfbf" stroke="black" points="1064.24,-502.5 1064.24,-532.5 1183.24,-532.5 1183.24,-502.5 1064.24,-502.5"/>
<text text-anchor="start" x="1072.24" y="-520.5" font-family="Helvetica,sans-Serif" font-size="10.00">src/src_core/TlmCmd</text>
<text text-anchor="middle" x="1123.74" y="-509.5" font-family="Helvetica,sans-Serif" font-size="10.00">/packet_handler.h</text>
</a>
</g>
</g>
<!-- Node2 -->
<g id="node2" class="node">
<title>Node2</title>
<g id="a_node2"><a xlink:href="common__tlm__cmd__packet_8h.html" target="_top" xlink:title="CTCP 関連基本関数の宣言">
<polygon fill="white" stroke="black" points="427.74,-363 427.74,-382 581.74,-382 581.74,-363 427.74,-363"/>
<text text-anchor="middle" x="504.74" y="-370" font-family="Helvetica,sans-Serif" font-size="10.00">common_tlm_cmd_packet.h</text>
</a>
</g>
</g>
<!-- Node1&#45;&gt;Node2 -->
<g id="edge1" class="edge">
<title>Node1&#45;&gt;Node2</title>
<path fill="none" stroke="midnightblue" d="M1063.81,-503.13C1018.68,-493.03 955.3,-478.77 899.74,-466 773.21,-436.92 624.1,-401.76 550.53,-384.35"/>
<polygon fill="midnightblue" stroke="midnightblue" points="551.2,-380.91 540.66,-382.02 549.58,-387.73 551.2,-380.91"/>
</g>
<!-- Node18 -->
<g id="node18" class="node">
<title>Node18</title>
<g id="a_node18"><a xlink:href="packet__list_8h.html" target="_top" xlink:title="CTCP, CTP, CCP のリストとしてのデータ構造を定義. 片方向リストとして実装されている">
<polygon fill="white" stroke="black" points="908.74,-435.5 908.74,-454.5 986.74,-454.5 986.74,-435.5 908.74,-435.5"/>
<text text-anchor="middle" x="947.74" y="-442.5" font-family="Helvetica,sans-Serif" font-size="10.00">packet_list.h</text>
</a>
</g>
</g>
<!-- Node1&#45;&gt;Node18 -->
<g id="edge27" class="edge">
<title>Node1&#45;&gt;Node18</title>
<path fill="none" stroke="midnightblue" d="M1088.54,-502.4C1056.32,-489.49 1009.1,-470.58 978.39,-458.28"/>
<polygon fill="midnightblue" stroke="midnightblue" points="979.63,-455 969.04,-454.53 977.02,-461.5 979.63,-455"/>
</g>
<!-- Node22 -->
<g id="node22" class="node">
<title>Node22</title>
<g id="a_node22"><a xlink:href="timeline__command__dispatcher__id__define_8h.html" target="_top" xlink:title="TLCD_ID の定義">
<polygon fill="white" stroke="black" points="1335.24,-424.5 1335.24,-465.5 1476.24,-465.5 1476.24,-424.5 1335.24,-424.5"/>
<text text-anchor="start" x="1343.24" y="-453.5" font-family="Helvetica,sans-Serif" font-size="10.00">../Applications/timeline</text>
<text text-anchor="start" x="1343.24" y="-442.5" font-family="Helvetica,sans-Serif" font-size="10.00">_command_dispatcher_id</text>
<text text-anchor="middle" x="1405.74" y="-431.5" font-family="Helvetica,sans-Serif" font-size="10.00">_define.h</text>
</a>
</g>
</g>
<!-- Node1&#45;&gt;Node22 -->
<g id="edge34" class="edge">
<title>Node1&#45;&gt;Node22</title>
<path fill="none" stroke="midnightblue" d="M1179.79,-502.49C1221.4,-492.08 1278.75,-477.75 1325.26,-466.12"/>
<polygon fill="midnightblue" stroke="midnightblue" points="1326.16,-469.5 1335.01,-463.68 1324.46,-462.71 1326.16,-469.5"/>
</g>
<!-- Node23 -->
<g id="node23" class="node">
<title>Node23</title>
<g id="a_node23"><a xlink:href="packet__handler__params_8h.html" target="_top" xlink:title="PHのCoreTlmパラメタのオーバーライド用ヘッダー">
<polygon fill="white" stroke="black" points="1170.24,-430 1170.24,-460 1315.24,-460 1315.24,-430 1170.24,-430"/>
<text text-anchor="start" x="1178.24" y="-448" font-family="Helvetica,sans-Serif" font-size="10.00">src_user/Settings/TlmCmd</text>
<text text-anchor="middle" x="1242.74" y="-437" font-family="Helvetica,sans-Serif" font-size="10.00">/packet_handler_params.h</text>
</a>
</g>
</g>
<!-- Node1&#45;&gt;Node23 -->
<g id="edge36" class="edge">
<title>Node1&#45;&gt;Node23</title>
<path fill="none" stroke="midnightblue" d="M1147.53,-502.4C1165.53,-491.74 1190.45,-476.98 1210.27,-465.23"/>
<polygon fill="midnightblue" stroke="midnightblue" points="1212.16,-468.18 1218.98,-460.07 1208.6,-462.16 1212.16,-468.18"/>
</g>
<!-- Node3 -->
<g id="node3" class="node">
<title>Node3</title>
<g id="a_node3"><a xlink:href="stdint_8h.html" target="_top" xlink:title=" ">
<polygon fill="white" stroke="black" points="437.74,-67.5 437.74,-86.5 571.74,-86.5 571.74,-67.5 437.74,-67.5"/>
<text text-anchor="middle" x="504.74" y="-74.5" font-family="Helvetica,sans-Serif" font-size="10.00">src_user/Library/stdint.h</text>
</a>
</g>
</g>
<!-- Node2&#45;&gt;Node3 -->
<g id="edge2" class="edge">
<title>Node2&#45;&gt;Node3</title>
<path fill="none" stroke="midnightblue" d="M427.49,-369.84C318.37,-366.3 125.7,-355.24 65.74,-321 27.99,-299.44 20.57,-284.21 6.74,-243 0.8,-225.3 -4.42,-215.96 6.74,-201 69.11,-117.35 130.54,-159.4 231.74,-134 272.47,-123.78 383.49,-101.67 450.74,-88.5"/>
<polygon fill="midnightblue" stroke="midnightblue" points="451.6,-91.9 460.74,-86.54 450.25,-85.03 451.6,-91.9"/>
</g>
<!-- Node5 -->
<g id="node5" class="node">
<title>Node5</title>
<g id="a_node5"><a xlink:href="common__tlm__cmd__packet__define_8h.html" target="_top" xlink:title="CTCP 型の定義">
<polygon fill="white" stroke="black" points="74.74,-279.5 74.74,-320.5 222.74,-320.5 222.74,-279.5 74.74,-279.5"/>
<text text-anchor="start" x="82.74" y="-308.5" font-family="Helvetica,sans-Serif" font-size="10.00">src_user/Settings/TlmCmd</text>
<text text-anchor="start" x="82.74" y="-297.5" font-family="Helvetica,sans-Serif" font-size="10.00">/common_tlm_cmd_packet</text>
<text text-anchor="middle" x="148.74" y="-286.5" font-family="Helvetica,sans-Serif" font-size="10.00">_define.h</text>
</a>
</g>
</g>
<!-- Node2&#45;&gt;Node5 -->
<g id="edge4" class="edge">
<title>Node2&#45;&gt;Node5</title>
<path fill="none" stroke="midnightblue" d="M461.8,-363C405.28,-351.8 304.68,-331.88 232.77,-317.64"/>
<polygon fill="midnightblue" stroke="midnightblue" points="233.31,-314.18 222.83,-315.67 231.95,-321.05 233.31,-314.18"/>
</g>
<!-- Node8 -->
<g id="node8" class="node">
<title>Node8</title>
<g id="a_node8"><a xlink:href="common__tlm__packet_8h.html" target="_top" xlink:title="CTP 関連基本関数の宣言">
<polygon fill="white" stroke="black" points="324.74,-290.5 324.74,-309.5 458.74,-309.5 458.74,-290.5 324.74,-290.5"/>
<text text-anchor="middle" x="391.74" y="-297.5" font-family="Helvetica,sans-Serif" font-size="10.00">./common_tlm_packet.h</text>
</a>
</g>
</g>
<!-- Node2&#45;&gt;Node8 -->
<g id="edge8" class="edge">
<title>Node2&#45;&gt;Node8</title>
<path fill="none" stroke="midnightblue" d="M490.88,-362.86C471.82,-350.96 437.28,-329.41 414.42,-315.15"/>
<polygon fill="midnightblue" stroke="midnightblue" points="416.04,-312.04 405.71,-309.72 412.34,-317.98 416.04,-312.04"/>
</g>
<!-- Node13 -->
<g id="node13" class="node">
<title>Node13</title>
<g id="a_node13"><a xlink:href="apid__define_8h.html" target="_top" xlink:title="CCSDS の APID を定義する">
<polygon fill="white" stroke="black" points="445.24,-140 445.24,-159 564.24,-159 564.24,-140 445.24,-140"/>
<text text-anchor="middle" x="504.74" y="-147" font-family="Helvetica,sans-Serif" font-size="10.00">./Ccsds/apid_define.h</text>
</a>
</g>
</g>
<!-- Node2&#45;&gt;Node13 -->
<g id="edge26" class="edge">
<title>Node2&#45;&gt;Node13</title>
<path fill="none" stroke="midnightblue" d="M514.41,-362.71C534.8,-343.44 581.74,-295.02 598.74,-243 604.53,-225.26 608.32,-217.02 598.74,-201 587.68,-182.5 567.25,-170.39 548.26,-162.67"/>
<polygon fill="midnightblue" stroke="midnightblue" points="549.41,-159.36 538.81,-159.13 546.95,-165.92 549.41,-159.36"/>
</g>
<!-- Node14 -->
<g id="node14" class="node">
<title>Node14</title>
<g id="a_node14"><a xlink:href="common__cmd__packet_8h.html" target="_top" xlink:title="CCP 関連基本関数の宣言">
<polygon fill="white" stroke="black" points="705.74,-290.5 705.74,-309.5 843.74,-309.5 843.74,-290.5 705.74,-290.5"/>
<text text-anchor="middle" x="774.74" y="-297.5" font-family="Helvetica,sans-Serif" font-size="10.00">./common_cmd_packet.h</text>
</a>
</g>
</g>
<!-- Node2&#45;&gt;Node14 -->
<g id="edge18" class="edge">
<title>Node2&#45;&gt;Node14</title>
<path fill="none" stroke="midnightblue" d="M537.31,-363C586.06,-350.27 678.05,-326.25 732.1,-312.13"/>
<polygon fill="midnightblue" stroke="midnightblue" points="733.26,-315.45 742.05,-309.53 731.49,-308.67 733.26,-315.45"/>
</g>
<!-- Node4 -->
<g id="node4" class="node">
<title>Node4</title>
<g id="a_node4"><a xlink:href="sils__define_8h.html" target="_top" xlink:title="Switch the build settings between your real OBC and SILS">
<polygon fill="white" stroke="black" points="440.24,-0.5 440.24,-19.5 569.24,-19.5 569.24,-0.5 440.24,-0.5"/>
<text text-anchor="middle" x="504.74" y="-7.5" font-family="Helvetica,sans-Serif" font-size="10.00">../Settings/sils_define.h</text>
</a>
</g>
</g>
<!-- Node3&#45;&gt;Node4 -->
<g id="edge3" class="edge">
<title>Node3&#45;&gt;Node4</title>
<path fill="none" stroke="midnightblue" d="M504.74,-67.23C504.74,-57.68 504.74,-42.12 504.74,-29.78"/>
<polygon fill="midnightblue" stroke="midnightblue" points="508.24,-29.63 504.74,-19.63 501.24,-29.63 508.24,-29.63"/>
</g>
<!-- Node6 -->
<g id="node6" class="node">
<title>Node6</title>
<g id="a_node6"><a xlink:href="space__packet__typedef_8h.html" target="_top" xlink:title="SpacePacket 類 と CommonTlmCmdPacket 類が相互参照するのを回避するためのヘッダ">
<polygon fill="white" stroke="black" points="241.24,-134.5 241.24,-164.5 378.24,-164.5 378.24,-134.5 241.24,-134.5"/>
<text text-anchor="start" x="249.24" y="-152.5" font-family="Helvetica,sans-Serif" font-size="10.00">src_core/TlmCmd/Ccsds</text>
<text text-anchor="middle" x="309.74" y="-141.5" font-family="Helvetica,sans-Serif" font-size="10.00">/space_packet_typedef.h</text>
</a>
</g>
</g>
<!-- Node5&#45;&gt;Node6 -->
<g id="edge5" class="edge">
<title>Node5&#45;&gt;Node6</title>
<path fill="none" stroke="midnightblue" d="M74.73,-283.68C53.01,-275.38 31.64,-262.6 18.74,-243 8.48,-227.41 6.72,-215.28 18.74,-201 45.4,-169.32 154.23,-157.51 230.95,-153.11"/>
<polygon fill="midnightblue" stroke="midnightblue" points="231.28,-156.6 241.08,-152.56 230.9,-149.61 231.28,-156.6"/>
</g>
<!-- Node6&#45;&gt;Node3 -->
<g id="edge6" class="edge">
<title>Node6&#45;&gt;Node3</title>
<path fill="none" stroke="midnightblue" d="M348.73,-134.4C384.74,-121.38 437.65,-102.25 471.65,-89.96"/>
<polygon fill="midnightblue" stroke="midnightblue" points="472.92,-93.23 481.13,-86.53 470.54,-86.64 472.92,-93.23"/>
</g>
<!-- Node7 -->
<g id="node7" class="node">
<title>Node7</title>
<g id="a_node7"><a xlink:href="space__packet__typedef__params_8h.html" target="_top" xlink:title="SpacePacketの パケット型に関するユーザー設定">
<polygon fill="white" stroke="black" points="229.74,-56.5 229.74,-97.5 389.74,-97.5 389.74,-56.5 229.74,-56.5"/>
<text text-anchor="start" x="237.74" y="-85.5" font-family="Helvetica,sans-Serif" font-size="10.00">src_user/Settings/TlmCmd</text>
<text text-anchor="start" x="237.74" y="-74.5" font-family="Helvetica,sans-Serif" font-size="10.00">/Ccsds/space_packet_typedef</text>
<text text-anchor="middle" x="309.74" y="-63.5" font-family="Helvetica,sans-Serif" font-size="10.00">_params.h</text>
</a>
</g>
</g>
<!-- Node6&#45;&gt;Node7 -->
<g id="edge7" class="edge">
<title>Node6&#45;&gt;Node7</title>
<path fill="none" stroke="midnightblue" d="M309.74,-134.23C309.74,-126.57 309.74,-116.84 309.74,-107.63"/>
<polygon fill="midnightblue" stroke="midnightblue" points="313.24,-107.59 309.74,-97.59 306.24,-107.59 313.24,-107.59"/>
</g>
<!-- Node9 -->
<g id="node9" class="node">
<title>Node9</title>
<g id="a_node9"><a xlink:href="obc__time_8h.html" target="_top" xlink:title="OBCの時刻情報の定義と演算">
<polygon fill="white" stroke="black" points="684.24,-207 684.24,-237 817.24,-237 817.24,-207 684.24,-207"/>
<text text-anchor="start" x="692.24" y="-225" font-family="Helvetica,sans-Serif" font-size="10.00">../System/TimeManager</text>
<text text-anchor="middle" x="750.74" y="-214" font-family="Helvetica,sans-Serif" font-size="10.00">/obc_time.h</text>
</a>
</g>
</g>
<!-- Node8&#45;&gt;Node9 -->
<g id="edge9" class="edge">
<title>Node8&#45;&gt;Node9</title>
<path fill="none" stroke="midnightblue" d="M432.22,-290.43C490.8,-278.03 600.29,-254.85 674.35,-239.17"/>
<polygon fill="midnightblue" stroke="midnightblue" points="675.49,-242.51 684.55,-237.01 674.04,-235.66 675.49,-242.51"/>
</g>
<!-- Node11 -->
<g id="node11" class="node">
<title>Node11</title>
<g id="a_node11"><a xlink:href="telemetry__definitions_8h.html" target="_top" xlink:title="テレメトリ定義">
<polygon fill="white" stroke="black" points="27.74,-207 27.74,-237 179.74,-237 179.74,-207 27.74,-207"/>
<text text-anchor="start" x="35.74" y="-225" font-family="Helvetica,sans-Serif" font-size="10.00">src_user/TlmCmd/telemetry</text>
<text text-anchor="middle" x="103.74" y="-214" font-family="Helvetica,sans-Serif" font-size="10.00">_definitions.h</text>
</a>
</g>
</g>
<!-- Node8&#45;&gt;Node11 -->
<g id="edge12" class="edge">
<title>Node8&#45;&gt;Node11</title>
<path fill="none" stroke="midnightblue" d="M359.26,-290.43C312.74,-278.15 226.22,-255.32 166.85,-239.66"/>
<polygon fill="midnightblue" stroke="midnightblue" points="167.4,-236.18 156.83,-237.01 165.61,-242.95 167.4,-236.18"/>
</g>
<!-- Node12 -->
<g id="node12" class="node">
<title>Node12</title>
<g id="a_node12"><a xlink:href="common__tlm__packet__define_8h.html" target="_top" xlink:title="CTP 型の定義">
<polygon fill="white" stroke="black" points="197.74,-207 197.74,-237 363.74,-237 363.74,-207 197.74,-207"/>
<text text-anchor="start" x="205.74" y="-225" font-family="Helvetica,sans-Serif" font-size="10.00">src_user/Settings/TlmCmd</text>
<text text-anchor="middle" x="280.74" y="-214" font-family="Helvetica,sans-Serif" font-size="10.00">/common_tlm_packet_define.h</text>
</a>
</g>
</g>
<!-- Node8&#45;&gt;Node12 -->
<g id="edge13" class="edge">
<title>Node8&#45;&gt;Node12</title>
<path fill="none" stroke="midnightblue" d="M379,-290.28C362.21,-278.79 332.17,-258.22 309.71,-242.84"/>
<polygon fill="midnightblue" stroke="midnightblue" points="311.44,-239.78 301.21,-237.02 307.49,-245.56 311.44,-239.78"/>
</g>
<!-- Node8&#45;&gt;Node13 -->
<g id="edge17" class="edge">
<title>Node8&#45;&gt;Node13</title>
<path fill="none" stroke="midnightblue" d="M391.09,-290.44C390.15,-272.15 390.39,-228.63 410.74,-201 424.08,-182.88 445.93,-170.58 465.2,-162.67"/>
<polygon fill="midnightblue" stroke="midnightblue" points="466.61,-165.87 474.7,-159.02 464.11,-159.34 466.61,-165.87"/>
</g>
<!-- Node9&#45;&gt;Node3 -->
<g id="edge10" class="edge">
<title>Node9&#45;&gt;Node3</title>
<path fill="none" stroke="midnightblue" d="M751.88,-206.86C752.6,-187.69 750.83,-153.61 731.74,-134 710.87,-112.56 638.78,-97.25 581.37,-88.11"/>
<polygon fill="midnightblue" stroke="midnightblue" points="581.62,-84.61 571.2,-86.53 580.54,-91.52 581.62,-84.61"/>
</g>
<!-- Node10 -->
<g id="node10" class="node">
<title>Node10</title>
<g id="a_node10"><a xlink:href="obc__time__params_8h.html" target="_top" xlink:title="OBCTのCoreパラメタのオーバーライド用ヘッダー">
<polygon fill="white" stroke="black" points="582.74,-134.5 582.74,-164.5 722.74,-164.5 722.74,-134.5 582.74,-134.5"/>
<text text-anchor="start" x="590.74" y="-152.5" font-family="Helvetica,sans-Serif" font-size="10.00">src_user/Settings/System</text>
<text text-anchor="middle" x="652.74" y="-141.5" font-family="Helvetica,sans-Serif" font-size="10.00">/obc_time_params.h</text>
</a>
</g>
</g>
<!-- Node9&#45;&gt;Node10 -->
<g id="edge11" class="edge">
<title>Node9&#45;&gt;Node10</title>
<path fill="none" stroke="midnightblue" d="M730.91,-206.73C716.47,-196.35 696.71,-182.13 680.67,-170.6"/>
<polygon fill="midnightblue" stroke="midnightblue" points="682.37,-167.5 672.21,-164.5 678.28,-173.19 682.37,-167.5"/>
</g>
<!-- Node12&#45;&gt;Node6 -->
<g id="edge14" class="edge">
<title>Node12&#45;&gt;Node6</title>
<path fill="none" stroke="midnightblue" d="M286.61,-206.73C290.46,-197.37 295.59,-184.9 300.04,-174.08"/>
<polygon fill="midnightblue" stroke="midnightblue" points="303.31,-175.33 303.88,-164.75 296.84,-172.66 303.31,-175.33"/>
</g>
<!-- Node12&#45;&gt;Node13 -->
<g id="edge15" class="edge">
<title>Node12&#45;&gt;Node13</title>
<path fill="none" stroke="midnightblue" d="M325.26,-206.99C367.04,-193.84 428.81,-174.4 467.89,-162.1"/>
<polygon fill="midnightblue" stroke="midnightblue" points="469.07,-165.4 477.56,-159.05 466.97,-158.72 469.07,-165.4"/>
</g>
<!-- Node13&#45;&gt;Node3 -->
<g id="edge16" class="edge">
<title>Node13&#45;&gt;Node3</title>
<path fill="none" stroke="midnightblue" d="M504.74,-139.86C504.74,-129.18 504.74,-110.72 504.74,-96.73"/>
<polygon fill="midnightblue" stroke="midnightblue" points="508.24,-96.72 504.74,-86.72 501.24,-96.72 508.24,-96.72"/>
</g>
<!-- Node14&#45;&gt;Node9 -->
<g id="edge19" class="edge">
<title>Node14&#45;&gt;Node9</title>
<path fill="none" stroke="midnightblue" d="M771.98,-290.28C768.64,-279.7 762.87,-261.43 758.19,-246.6"/>
<polygon fill="midnightblue" stroke="midnightblue" points="761.51,-245.5 755.16,-237.02 754.84,-247.61 761.51,-245.5"/>
</g>
<!-- Node14&#45;&gt;Node13 -->
<g id="edge24" class="edge">
<title>Node14&#45;&gt;Node13</title>
<path fill="none" stroke="midnightblue" d="M756.16,-290.44C735.38,-280.45 701.19,-262.78 674.74,-243 653.34,-227 654.14,-215.55 631.74,-201 604.92,-183.58 571.14,-170.5 545.16,-162.03"/>
<polygon fill="midnightblue" stroke="midnightblue" points="546.2,-158.69 535.61,-159 544.09,-165.36 546.2,-158.69"/>
</g>
<!-- Node15 -->
<g id="node15" class="node">
<title>Node15</title>
<g id="a_node15"><a xlink:href="command__definitions_8h.html" target="_top" xlink:title="コマンド定義">
<polygon fill="white" stroke="black" points="835.24,-207 835.24,-237 988.24,-237 988.24,-207 835.24,-207"/>
<text text-anchor="start" x="843.24" y="-225" font-family="Helvetica,sans-Serif" font-size="10.00">src_user/TlmCmd/command</text>
<text text-anchor="middle" x="911.74" y="-214" font-family="Helvetica,sans-Serif" font-size="10.00">_definitions.h</text>
</a>
</g>
</g>
<!-- Node14&#45;&gt;Node15 -->
<g id="edge20" class="edge">
<title>Node14&#45;&gt;Node15</title>
<path fill="none" stroke="midnightblue" d="M790.19,-290.43C811.19,-278.78 849.32,-257.62 877.3,-242.11"/>
<polygon fill="midnightblue" stroke="midnightblue" points="879.31,-244.99 886.35,-237.08 875.91,-238.87 879.31,-244.99"/>
</g>
<!-- Node16 -->
<g id="node16" class="node">
<title>Node16</title>
<g id="a_node16"><a xlink:href="common__cmd__packet__define_8h.html" target="_top" xlink:title="CCP 型の定義">
<polygon fill="white" stroke="black" points="419.74,-207 419.74,-237 589.74,-237 589.74,-207 419.74,-207"/>
<text text-anchor="start" x="427.74" y="-225" font-family="Helvetica,sans-Serif" font-size="10.00">src_user/Settings/TlmCmd</text>
<text text-anchor="middle" x="504.74" y="-214" font-family="Helvetica,sans-Serif" font-size="10.00">/common_cmd_packet_define.h</text>
</a>
</g>
</g>
<!-- Node14&#45;&gt;Node16 -->
<g id="edge21" class="edge">
<title>Node14&#45;&gt;Node16</title>
<path fill="none" stroke="midnightblue" d="M744.29,-290.43C700.84,-278.2 620.14,-255.48 564.5,-239.82"/>
<polygon fill="midnightblue" stroke="midnightblue" points="565.34,-236.42 554.76,-237.08 563.44,-243.16 565.34,-236.42"/>
</g>
<!-- Node17 -->
<g id="node17" class="node">
<title>Node17</title>
<g id="a_node17"><a xlink:href="timeline__command__dispatcher__define_8h.html" target="_top" xlink:title="timeline command dispatcher の各種定義">
<polygon fill="white" stroke="black" points="1157.74,-201.5 1157.74,-242.5 1327.74,-242.5 1327.74,-201.5 1157.74,-201.5"/>
<text text-anchor="start" x="1165.74" y="-230.5" font-family="Helvetica,sans-Serif" font-size="10.00">src_user/Settings/Applications</text>
<text text-anchor="start" x="1165.74" y="-219.5" font-family="Helvetica,sans-Serif" font-size="10.00">/timeline_command_dispatcher</text>
<text text-anchor="middle" x="1242.74" y="-208.5" font-family="Helvetica,sans-Serif" font-size="10.00">_define.h</text>
</a>
</g>
</g>
<!-- Node14&#45;&gt;Node17 -->
<g id="edge25" class="edge">
<title>Node14&#45;&gt;Node17</title>
<path fill="none" stroke="midnightblue" d="M827.51,-290.43C904.97,-277.85 1050.7,-254.19 1147.26,-238.51"/>
<polygon fill="midnightblue" stroke="midnightblue" points="1148.01,-241.93 1157.32,-236.87 1146.89,-235.02 1148.01,-241.93"/>
</g>
<!-- Node16&#45;&gt;Node6 -->
<g id="edge22" class="edge">
<title>Node16&#45;&gt;Node6</title>
<path fill="none" stroke="midnightblue" d="M465.75,-206.9C434.79,-195.71 391.35,-180.01 358.17,-168.01"/>
<polygon fill="midnightblue" stroke="midnightblue" points="359.26,-164.68 348.66,-164.57 356.88,-171.26 359.26,-164.68"/>
</g>
<!-- Node16&#45;&gt;Node13 -->
<g id="edge23" class="edge">
<title>Node16&#45;&gt;Node13</title>
<path fill="none" stroke="midnightblue" d="M504.74,-206.73C504.74,-196 504.74,-181.19 504.74,-169.46"/>
<polygon fill="midnightblue" stroke="midnightblue" points="508.24,-169.39 504.74,-159.39 501.24,-169.39 508.24,-169.39"/>
</g>
<!-- Node18&#45;&gt;Node14 -->
<g id="edge29" class="edge">
<title>Node18&#45;&gt;Node14</title>
<path fill="none" stroke="midnightblue" d="M929.75,-435.32C910.04,-425.37 878,-407.84 853.74,-388 827.54,-366.58 802.13,-336.4 787.48,-317.8"/>
<polygon fill="midnightblue" stroke="midnightblue" points="790.09,-315.45 781.2,-309.68 784.55,-319.73 790.09,-315.45"/>
</g>
<!-- Node19 -->
<g id="node19" class="node">
<title>Node19</title>
<g id="a_node19"><a xlink:title=" ">
<polygon fill="white" stroke="#bfbfbf" points="862.74,-363 862.74,-382 918.74,-382 918.74,-363 862.74,-363"/>
<text text-anchor="middle" x="890.74" y="-370" font-family="Helvetica,sans-Serif" font-size="10.00">stddef.h</text>
</a>
</g>
</g>
<!-- Node18&#45;&gt;Node19 -->
<g id="edge28" class="edge">
<title>Node18&#45;&gt;Node19</title>
<path fill="none" stroke="midnightblue" d="M940.75,-435.36C931.69,-424.15 915.7,-404.37 904.23,-390.19"/>
<polygon fill="midnightblue" stroke="midnightblue" points="906.79,-387.79 897.78,-382.22 901.35,-392.19 906.79,-387.79"/>
</g>
<!-- Node20 -->
<g id="node20" class="node">
<title>Node20</title>
<g id="a_node20"><a xlink:href="block__command__table_8h.html" target="_top" xlink:title="BCTの定義, BCT周りの関数">
<polygon fill="white" stroke="black" points="936.74,-363 936.74,-382 1072.74,-382 1072.74,-363 936.74,-363"/>
<text text-anchor="middle" x="1004.74" y="-370" font-family="Helvetica,sans-Serif" font-size="10.00">block_command_table.h</text>
</a>
</g>
</g>
<!-- Node18&#45;&gt;Node20 -->
<g id="edge30" class="edge">
<title>Node18&#45;&gt;Node20</title>
<path fill="none" stroke="midnightblue" d="M954.73,-435.36C963.79,-424.15 979.78,-404.37 991.24,-390.19"/>
<polygon fill="midnightblue" stroke="midnightblue" points="994.13,-392.19 997.69,-382.22 988.68,-387.79 994.13,-392.19"/>
</g>
<!-- Node20&#45;&gt;Node3 -->
<g id="edge31" class="edge">
<title>Node20&#45;&gt;Node3</title>
<path fill="none" stroke="midnightblue" d="M1007.54,-362.86C1015.78,-335.62 1037.02,-250.39 997.74,-201 946.46,-136.54 707.64,-100.67 582.19,-85.98"/>
<polygon fill="midnightblue" stroke="midnightblue" points="582.22,-82.46 571.88,-84.79 581.42,-89.41 582.22,-82.46"/>
</g>
<!-- Node20&#45;&gt;Node14 -->
<g id="edge33" class="edge">
<title>Node20&#45;&gt;Node14</title>
<path fill="none" stroke="midnightblue" d="M976.99,-363C935.81,-350.37 858.4,-326.65 812.22,-312.49"/>
<polygon fill="midnightblue" stroke="midnightblue" points="813.17,-309.12 802.58,-309.53 811.11,-315.81 813.17,-309.12"/>
</g>
<!-- Node21 -->
<g id="node21" class="node">
<title>Node21</title>
<g id="a_node21"><a xlink:href="block__command__table__params_8h.html" target="_top" xlink:title="BCTのCoreTlmパラメタのオーバーライド用ヘッダー">
<polygon fill="white" stroke="black" points="1033.24,-285 1033.24,-315 1214.24,-315 1214.24,-285 1033.24,-285"/>
<text text-anchor="start" x="1041.24" y="-303" font-family="Helvetica,sans-Serif" font-size="10.00">src_user/Settings/TlmCmd</text>
<text text-anchor="middle" x="1123.74" y="-292" font-family="Helvetica,sans-Serif" font-size="10.00">/block_command_table_params.h</text>
</a>
</g>
</g>
<!-- Node20&#45;&gt;Node21 -->
<g id="edge32" class="edge">
<title>Node20&#45;&gt;Node21</title>
<path fill="none" stroke="midnightblue" d="M1019.33,-362.86C1037.16,-352.29 1067.85,-334.11 1091.36,-320.18"/>
<polygon fill="midnightblue" stroke="midnightblue" points="1093.16,-323.18 1099.98,-315.08 1089.59,-317.16 1093.16,-323.18"/>
</g>
<!-- Node22&#45;&gt;Node17 -->
<g id="edge35" class="edge">
<title>Node22&#45;&gt;Node17</title>
<path fill="none" stroke="midnightblue" d="M1405.66,-424.49C1404.81,-406.03 1401.44,-378.08 1389.74,-357 1364.17,-310.93 1316.86,-272.18 1282.81,-248.39"/>
<polygon fill="midnightblue" stroke="midnightblue" points="1284.69,-245.43 1274.46,-242.66 1280.73,-251.2 1284.69,-245.43"/>
</g>
<!-- Node23&#45;&gt;Node17 -->
<g id="edge37" class="edge">
<title>Node23&#45;&gt;Node17</title>
<path fill="none" stroke="midnightblue" d="M1242.74,-429.84C1242.74,-394.32 1242.74,-300.87 1242.74,-252.68"/>
<polygon fill="midnightblue" stroke="midnightblue" points="1246.24,-252.56 1242.74,-242.56 1239.24,-252.56 1246.24,-252.56"/>
</g>
<!-- Node24 -->
<g id="node24" class="node">
<title>Node24</title>
<g id="a_node24"><a xlink:href="data__recorder__define_8h.html" target="_top" xlink:title="Data Recorder の各種定義">
<polygon fill="white" stroke="black" points="1270.74,-357.5 1270.74,-387.5 1380.74,-387.5 1380.74,-357.5 1270.74,-357.5"/>
<text text-anchor="start" x="1278.74" y="-375.5" font-family="Helvetica,sans-Serif" font-size="10.00">../Applications/data</text>
<text text-anchor="middle" x="1325.74" y="-364.5" font-family="Helvetica,sans-Serif" font-size="10.00">_recorder_define.h</text>
</a>
</g>
</g>
<!-- Node23&#45;&gt;Node24 -->
<g id="edge38" class="edge">
<title>Node23&#45;&gt;Node24</title>
<path fill="none" stroke="midnightblue" d="M1259.53,-429.73C1271.54,-419.54 1287.88,-405.66 1301.32,-394.24"/>
<polygon fill="midnightblue" stroke="midnightblue" points="1303.89,-396.65 1309.25,-387.5 1299.36,-391.31 1303.89,-396.65"/>
</g>
</g>
</svg>
