<?xml version="1.0" encoding="UTF-8" standalone="no"?>
<!DOCTYPE svg PUBLIC "-//W3C//DTD SVG 1.1//EN"
 "http://www.w3.org/Graphics/SVG/1.1/DTD/svg11.dtd">
<!-- Generated by graphviz version 2.43.0 (0)
 -->
<!-- Title: src/src_core/CmdTlm/packet_list.c Pages: 1 -->
<svg width="1188pt" height="419pt"
 viewBox="0.00 0.00 1188.39 419.00" xmlns="http://www.w3.org/2000/svg" xmlns:xlink="http://www.w3.org/1999/xlink">
<g id="graph0" class="graph" transform="scale(1 1) rotate(0) translate(4 415)">
<title>src/src_core/CmdTlm/packet_list.c</title>
<polygon fill="white" stroke="transparent" points="-4,4 -4,-415 1184.39,-415 1184.39,4 -4,4"/>
<!-- Node1 -->
<g id="node1" class="node">
<title>Node1</title>
<g id="a_node1"><a xlink:title="CTCPのリストとしてのデータ構造を定義. 片方向リストとして実装されている">
<polygon fill="#bfbfbf" stroke="black" points="885.5,-380.5 885.5,-410.5 1004.5,-410.5 1004.5,-380.5 885.5,-380.5"/>
<text text-anchor="start" x="893.5" y="-398.5" font-family="Helvetica,sans-Serif" font-size="10.00">src/src_core/CmdTlm</text>
<text text-anchor="middle" x="945" y="-387.5" font-family="Helvetica,sans-Serif" font-size="10.00">/packet_list.c</text>
</a>
</g>
</g>
<!-- Node2 -->
<g id="node2" class="node">
<title>Node2</title>
<g id="a_node2"><a xlink:href="packet__list_8h.html" target="_top" xlink:title="CTCPのリストとしてのデータ構造を定義. 片方向リストとして実装されている">
<polygon fill="white" stroke="black" points="621,-319 621,-338 699,-338 699,-319 621,-319"/>
<text text-anchor="middle" x="660" y="-326" font-family="Helvetica,sans-Serif" font-size="10.00">packet_list.h</text>
</a>
</g>
</g>
<!-- Node1&#45;&gt;Node2 -->
<g id="edge1" class="edge">
<title>Node1&#45;&gt;Node2</title>
<path fill="none" stroke="midnightblue" d="M885.27,-383.21C837.15,-373.76 767.89,-359.4 708,-344 704.33,-343.06 700.51,-342.01 696.72,-340.93"/>
<polygon fill="midnightblue" stroke="midnightblue" points="697.38,-337.48 686.8,-338.03 695.41,-344.2 697.38,-337.48"/>
</g>
<!-- Node6 -->
<g id="node6" class="node">
<title>Node6</title>
<g id="a_node6"><a xlink:href="stdint_8h.html" target="_top" xlink:title=" ">
<polygon fill="white" stroke="black" points="835,-56.5 835,-75.5 969,-75.5 969,-56.5 835,-56.5"/>
<text text-anchor="middle" x="902" y="-63.5" font-family="Helvetica,sans-Serif" font-size="10.00">src_user/Library/stdint.h</text>
</a>
</g>
</g>
<!-- Node1&#45;&gt;Node6 -->
<g id="edge30" class="edge">
<title>Node1&#45;&gt;Node6</title>
<path fill="none" stroke="midnightblue" d="M1004.7,-388C1073.74,-376.8 1178,-346.82 1178,-268 1178,-268 1178,-268 1178,-199 1178,-159.42 1187.56,-139.4 1159,-112 1133.74,-87.77 1045.29,-76.39 979.17,-71.18"/>
<polygon fill="midnightblue" stroke="midnightblue" points="979.41,-67.69 969.18,-70.43 978.88,-74.67 979.41,-67.69"/>
</g>
<!-- Node14 -->
<g id="node14" class="node">
<title>Node14</title>
<g id="a_node14"><a xlink:href="block__command__table_8h.html" target="_top" xlink:title="BCTの定義, BCT周りの関数">
<polygon fill="white" stroke="black" points="888,-190.5 888,-209.5 1024,-209.5 1024,-190.5 888,-190.5"/>
<text text-anchor="middle" x="956" y="-197.5" font-family="Helvetica,sans-Serif" font-size="10.00">block_command_table.h</text>
</a>
</g>
</g>
<!-- Node1&#45;&gt;Node14 -->
<g id="edge29" class="edge">
<title>Node1&#45;&gt;Node14</title>
<path fill="none" stroke="midnightblue" d="M986.4,-380.4C1003.03,-372.46 1020.49,-360.71 1030,-344 1056.03,-298.25 1003.73,-242.44 974.25,-216.12"/>
<polygon fill="midnightblue" stroke="midnightblue" points="976.47,-213.41 966.63,-209.51 971.89,-218.7 976.47,-213.41"/>
</g>
<!-- Node16 -->
<g id="node16" class="node">
<title>Node16</title>
<g id="a_node16"><a xlink:href="time__manager_8h.html" target="_top" xlink:title="OBCの時刻情報を TimeManager 構造体に保持しカウントアップする. その他, 時刻演算に必要な関数も実装する">
<polygon fill="white" stroke="black" points="717.5,-313.5 717.5,-343.5 850.5,-343.5 850.5,-313.5 717.5,-313.5"/>
<text text-anchor="start" x="725.5" y="-331.5" font-family="Helvetica,sans-Serif" font-size="10.00">../System/TimeManager</text>
<text text-anchor="middle" x="784" y="-320.5" font-family="Helvetica,sans-Serif" font-size="10.00">/time_manager.h</text>
</a>
</g>
</g>
<!-- Node1&#45;&gt;Node16 -->
<g id="edge23" class="edge">
<title>Node1&#45;&gt;Node16</title>
<path fill="none" stroke="midnightblue" d="M910.07,-380.4C886.12,-370.73 854.15,-357.82 828.4,-347.43"/>
<polygon fill="midnightblue" stroke="midnightblue" points="829.45,-344.07 818.87,-343.58 826.83,-350.57 829.45,-344.07"/>
</g>
<!-- Node17 -->
<g id="node17" class="node">
<title>Node17</title>
<g id="a_node17"><a xlink:href="block__command__executor_8h.html" target="_top" xlink:title="BCTの実行周りの関数, パラメーター">
<polygon fill="white" stroke="black" points="869,-319 869,-338 1021,-338 1021,-319 869,-319"/>
<text text-anchor="middle" x="945" y="-326" font-family="Helvetica,sans-Serif" font-size="10.00">block_command_executor.h</text>
</a>
</g>
</g>
<!-- Node1&#45;&gt;Node17 -->
<g id="edge26" class="edge">
<title>Node1&#45;&gt;Node17</title>
<path fill="none" stroke="midnightblue" d="M945,-380.4C945,-371.06 945,-358.71 945,-348.52"/>
<polygon fill="midnightblue" stroke="midnightblue" points="948.5,-348.19 945,-338.19 941.5,-348.19 948.5,-348.19"/>
</g>
<!-- Node3 -->
<g id="node3" class="node">
<title>Node3</title>
<g id="a_node3"><a xlink:title=" ">
<polygon fill="white" stroke="#bfbfbf" points="0,-56.5 0,-75.5 56,-75.5 56,-56.5 0,-56.5"/>
<text text-anchor="middle" x="28" y="-63.5" font-family="Helvetica,sans-Serif" font-size="10.00">stddef.h</text>
</a>
</g>
</g>
<!-- Node2&#45;&gt;Node3 -->
<g id="edge2" class="edge">
<title>Node2&#45;&gt;Node3</title>
<path fill="none" stroke="midnightblue" d="M620.61,-327.01C494.19,-324.55 102.25,-309.77 21,-221 -13.26,-183.57 7.06,-117.13 19.91,-85.17"/>
<polygon fill="midnightblue" stroke="midnightblue" points="23.23,-86.31 23.89,-75.74 16.78,-83.59 23.23,-86.31"/>
</g>
<!-- Node4 -->
<g id="node4" class="node">
<title>Node4</title>
<g id="a_node4"><a xlink:href="common__tlm__cmd__packet_8h.html" target="_top" xlink:title="CTCP の宣言">
<polygon fill="white" stroke="black" points="583,-257.5 583,-276.5 737,-276.5 737,-257.5 583,-257.5"/>
<text text-anchor="middle" x="660" y="-264.5" font-family="Helvetica,sans-Serif" font-size="10.00">common_tlm_cmd_packet.h</text>
</a>
</g>
</g>
<!-- Node2&#45;&gt;Node4 -->
<g id="edge3" class="edge">
<title>Node2&#45;&gt;Node4</title>
<path fill="none" stroke="midnightblue" d="M660,-318.98C660,-310.58 660,-297.48 660,-286.66"/>
<polygon fill="midnightblue" stroke="midnightblue" points="663.5,-286.51 660,-276.51 656.5,-286.51 663.5,-286.51"/>
</g>
<!-- Node2&#45;&gt;Node14 -->
<g id="edge22" class="edge">
<title>Node2&#45;&gt;Node14</title>
<path fill="none" stroke="midnightblue" d="M680.35,-318.81C731.69,-296.86 866.69,-239.17 926.62,-213.56"/>
<polygon fill="midnightblue" stroke="midnightblue" points="928.08,-216.74 935.9,-209.59 925.33,-210.3 928.08,-216.74"/>
</g>
<!-- Node4&#45;&gt;Node3 -->
<g id="edge4" class="edge">
<title>Node4&#45;&gt;Node3</title>
<path fill="none" stroke="midnightblue" d="M582.8,-265.7C426.68,-264.33 85.02,-257.19 47,-221 9.99,-185.78 17.39,-118.23 23.71,-85.58"/>
<polygon fill="midnightblue" stroke="midnightblue" points="27.17,-86.1 25.82,-75.59 20.33,-84.65 27.17,-86.1"/>
</g>
<!-- Node5 -->
<g id="node5" class="node">
<title>Node5</title>
<g id="a_node5"><a xlink:href="obc__time_8h.html" target="_top" xlink:title="OBCの時刻情報の定義と演算">
<polygon fill="white" stroke="black" points="736.5,-185 736.5,-215 869.5,-215 869.5,-185 736.5,-185"/>
<text text-anchor="start" x="744.5" y="-203" font-family="Helvetica,sans-Serif" font-size="10.00">../System/TimeManager</text>
<text text-anchor="middle" x="803" y="-192" font-family="Helvetica,sans-Serif" font-size="10.00">/obc_time.h</text>
</a>
</g>
</g>
<!-- Node4&#45;&gt;Node5 -->
<g id="edge5" class="edge">
<title>Node4&#45;&gt;Node5</title>
<path fill="none" stroke="midnightblue" d="M678.99,-257.37C700.26,-247.7 735.35,-231.75 762.79,-219.28"/>
<polygon fill="midnightblue" stroke="midnightblue" points="764.48,-222.35 772.14,-215.03 761.59,-215.98 764.48,-222.35"/>
</g>
<!-- Node4&#45;&gt;Node6 -->
<g id="edge10" class="edge">
<title>Node4&#45;&gt;Node6</title>
<path fill="none" stroke="midnightblue" d="M666.47,-257.42C672.86,-248.64 682.59,-234.42 689,-221 710.99,-174.97 687.68,-146.79 725,-112 751.81,-87.01 790.49,-75.41 824.86,-70.21"/>
<polygon fill="midnightblue" stroke="midnightblue" points="825.46,-73.66 834.9,-68.85 824.52,-66.72 825.46,-73.66"/>
</g>
<!-- Node9 -->
<g id="node9" class="node">
<title>Node9</title>
<g id="a_node9"><a xlink:href="command__definitions_8h.html" target="_top" xlink:title="コマンド定義">
<polygon fill="white" stroke="black" points="56.5,-185 56.5,-215 209.5,-215 209.5,-185 56.5,-185"/>
<text text-anchor="start" x="64.5" y="-203" font-family="Helvetica,sans-Serif" font-size="10.00">src_user/CmdTlm/command</text>
<text text-anchor="middle" x="133" y="-192" font-family="Helvetica,sans-Serif" font-size="10.00">_definitions.h</text>
</a>
</g>
</g>
<!-- Node4&#45;&gt;Node9 -->
<g id="edge9" class="edge">
<title>Node4&#45;&gt;Node9</title>
<path fill="none" stroke="midnightblue" d="M582.73,-261.1C494.37,-254.8 345.59,-242.09 219,-221 212.4,-219.9 205.54,-218.59 198.72,-217.18"/>
<polygon fill="midnightblue" stroke="midnightblue" points="199.28,-213.72 188.77,-215.05 197.82,-220.57 199.28,-213.72"/>
</g>
<!-- Node10 -->
<g id="node10" class="node">
<title>Node10</title>
<g id="a_node10"><a xlink:href="app__registry_8h.html" target="_top" xlink:title=" ">
<polygon fill="white" stroke="black" points="228,-185 228,-215 348,-215 348,-185 228,-185"/>
<text text-anchor="start" x="236" y="-203" font-family="Helvetica,sans-Serif" font-size="10.00">src_user/Applications</text>
<text text-anchor="middle" x="288" y="-192" font-family="Helvetica,sans-Serif" font-size="10.00">/app_registry.h</text>
</a>
</g>
</g>
<!-- Node4&#45;&gt;Node10 -->
<g id="edge11" class="edge">
<title>Node4&#45;&gt;Node10</title>
<path fill="none" stroke="midnightblue" d="M583.21,-257.5C521.65,-249.98 433.25,-237.63 357,-221 352.37,-219.99 347.59,-218.84 342.82,-217.61"/>
<polygon fill="midnightblue" stroke="midnightblue" points="343.62,-214.2 333.06,-215 341.82,-220.97 343.62,-214.2"/>
</g>
<!-- Node11 -->
<g id="node11" class="node">
<title>Node11</title>
<g id="a_node11"><a xlink:href="common__tlm__cmd__packet__define_8h.html" target="_top" xlink:title="CTCP型の定義">
<polygon fill="white" stroke="black" points="532,-179.5 532,-220.5 680,-220.5 680,-179.5 532,-179.5"/>
<text text-anchor="start" x="540" y="-208.5" font-family="Helvetica,sans-Serif" font-size="10.00">src_user/Settings/CmdTlm</text>
<text text-anchor="start" x="540" y="-197.5" font-family="Helvetica,sans-Serif" font-size="10.00">/common_tlm_cmd_packet</text>
<text text-anchor="middle" x="606" y="-186.5" font-family="Helvetica,sans-Serif" font-size="10.00">_define.h</text>
</a>
</g>
</g>
<!-- Node4&#45;&gt;Node11 -->
<g id="edge12" class="edge">
<title>Node4&#45;&gt;Node11</title>
<path fill="none" stroke="midnightblue" d="M652.72,-257.23C646.52,-249.78 637.29,-238.66 628.66,-228.27"/>
<polygon fill="midnightblue" stroke="midnightblue" points="631.32,-226 622.23,-220.54 625.93,-230.47 631.32,-226"/>
</g>
<!-- Node13 -->
<g id="node13" class="node">
<title>Node13</title>
<g id="a_node13"><a xlink:href="common__tlm__cmd__packet__params_8h.html" target="_top" xlink:title="CTCP パラメタのオーバーライド用ヘッダー">
<polygon fill="white" stroke="black" points="366,-179.5 366,-220.5 514,-220.5 514,-179.5 366,-179.5"/>
<text text-anchor="start" x="374" y="-208.5" font-family="Helvetica,sans-Serif" font-size="10.00">src_user/Settings/CmdTlm</text>
<text text-anchor="start" x="374" y="-197.5" font-family="Helvetica,sans-Serif" font-size="10.00">/common_tlm_cmd_packet</text>
<text text-anchor="middle" x="440" y="-186.5" font-family="Helvetica,sans-Serif" font-size="10.00">_params.h</text>
</a>
</g>
</g>
<!-- Node4&#45;&gt;Node13 -->
<g id="edge16" class="edge">
<title>Node4&#45;&gt;Node13</title>
<path fill="none" stroke="midnightblue" d="M630.79,-257.37C601.63,-248.75 555.6,-235.16 516.06,-223.47"/>
<polygon fill="midnightblue" stroke="midnightblue" points="517.01,-220.1 506.42,-220.63 515.02,-226.82 517.01,-220.1"/>
</g>
<!-- Node4&#45;&gt;Node14 -->
<g id="edge18" class="edge">
<title>Node4&#45;&gt;Node14</title>
<path fill="none" stroke="midnightblue" d="M698.16,-257.45C740.4,-248.86 810.08,-234.93 870,-221 881.77,-218.26 894.49,-215.06 906.5,-212.03"/>
<polygon fill="midnightblue" stroke="midnightblue" points="907.53,-215.38 916.37,-209.54 905.82,-208.59 907.53,-215.38"/>
</g>
<!-- Node5&#45;&gt;Node6 -->
<g id="edge6" class="edge">
<title>Node5&#45;&gt;Node6</title>
<path fill="none" stroke="midnightblue" d="M832.99,-184.85C850.07,-175.32 870.51,-161.16 883,-143 894.77,-125.88 899.26,-102.14 900.97,-85.76"/>
<polygon fill="midnightblue" stroke="midnightblue" points="904.46,-86.02 901.76,-75.78 897.48,-85.47 904.46,-86.02"/>
</g>
<!-- Node8 -->
<g id="node8" class="node">
<title>Node8</title>
<g id="a_node8"><a xlink:href="obc__time__params_8h.html" target="_top" xlink:title="OBCTのCoreパラメタのオーバーライド用ヘッダー">
<polygon fill="white" stroke="black" points="734,-112.5 734,-142.5 874,-142.5 874,-112.5 734,-112.5"/>
<text text-anchor="start" x="742" y="-130.5" font-family="Helvetica,sans-Serif" font-size="10.00">src_user/Settings/System</text>
<text text-anchor="middle" x="804" y="-119.5" font-family="Helvetica,sans-Serif" font-size="10.00">/obc_time_params.h</text>
</a>
</g>
</g>
<!-- Node5&#45;&gt;Node8 -->
<g id="edge8" class="edge">
<title>Node5&#45;&gt;Node8</title>
<path fill="none" stroke="midnightblue" d="M803.2,-184.73C803.33,-175.66 803.5,-163.66 803.65,-153.08"/>
<polygon fill="midnightblue" stroke="midnightblue" points="807.16,-152.79 803.8,-142.75 800.16,-152.69 807.16,-152.79"/>
</g>
<!-- Node7 -->
<g id="node7" class="node">
<title>Node7</title>
<g id="a_node7"><a xlink:href="sils__define_8h.html" target="_top" xlink:title=" ">
<polygon fill="white" stroke="black" points="837.5,-0.5 837.5,-19.5 966.5,-19.5 966.5,-0.5 837.5,-0.5"/>
<text text-anchor="middle" x="902" y="-7.5" font-family="Helvetica,sans-Serif" font-size="10.00">../Settings/sils_define.h</text>
</a>
</g>
</g>
<!-- Node6&#45;&gt;Node7 -->
<g id="edge7" class="edge">
<title>Node6&#45;&gt;Node7</title>
<path fill="none" stroke="midnightblue" d="M902,-56.08C902,-49.01 902,-38.86 902,-29.99"/>
<polygon fill="midnightblue" stroke="midnightblue" points="905.5,-29.75 902,-19.75 898.5,-29.75 905.5,-29.75"/>
</g>
<!-- Node12 -->
<g id="node12" class="node">
<title>Node12</title>
<g id="a_node12"><a xlink:href="_t_c_packet_8h.html" target="_top" xlink:title=" ">
<polygon fill="white" stroke="black" points="469.5,-112.5 469.5,-142.5 576.5,-142.5 576.5,-112.5 469.5,-112.5"/>
<text text-anchor="start" x="477.5" y="-130.5" font-family="Helvetica,sans-Serif" font-size="10.00">../../CmdTlm/Ccsds</text>
<text text-anchor="middle" x="523" y="-119.5" font-family="Helvetica,sans-Serif" font-size="10.00">/TCPacket.h</text>
</a>
</g>
</g>
<!-- Node11&#45;&gt;Node12 -->
<g id="edge13" class="edge">
<title>Node11&#45;&gt;Node12</title>
<path fill="none" stroke="midnightblue" d="M582.88,-179.36C571.84,-169.99 558.63,-158.76 547.42,-149.25"/>
<polygon fill="midnightblue" stroke="midnightblue" points="549.57,-146.48 539.68,-142.67 545.04,-151.81 549.57,-146.48"/>
</g>
<!-- Node12&#45;&gt;Node3 -->
<g id="edge14" class="edge">
<title>Node12&#45;&gt;Node3</title>
<path fill="none" stroke="midnightblue" d="M469.08,-120.02C368.32,-107.91 153.72,-82.11 66.28,-71.6"/>
<polygon fill="midnightblue" stroke="midnightblue" points="66.61,-68.12 56.27,-70.4 65.78,-75.07 66.61,-68.12"/>
</g>
<!-- Node12&#45;&gt;Node6 -->
<g id="edge15" class="edge">
<title>Node12&#45;&gt;Node6</title>
<path fill="none" stroke="midnightblue" d="M576.9,-118.04C645.6,-107.25 764.25,-88.63 837.63,-77.11"/>
<polygon fill="midnightblue" stroke="midnightblue" points="838.34,-80.54 847.67,-75.53 837.25,-73.62 838.34,-80.54"/>
</g>
<!-- Node13&#45;&gt;Node12 -->
<g id="edge17" class="edge">
<title>Node13&#45;&gt;Node12</title>
<path fill="none" stroke="midnightblue" d="M463.12,-179.36C474.16,-169.99 487.37,-158.76 498.58,-149.25"/>
<polygon fill="midnightblue" stroke="midnightblue" points="500.96,-151.81 506.32,-142.67 496.43,-146.48 500.96,-151.81"/>
</g>
<!-- Node14&#45;&gt;Node4 -->
<g id="edge21" class="edge">
<title>Node14&#45;&gt;Node4</title>
<path fill="none" stroke="midnightblue" d="M932.87,-209.54C919.69,-213.23 903.07,-217.5 888,-221 832.17,-233.98 767.88,-246.96 721.74,-255.62"/>
<polygon fill="midnightblue" stroke="midnightblue" points="721.08,-252.18 711.89,-257.45 722.36,-259.06 721.08,-252.18"/>
</g>
<!-- Node14&#45;&gt;Node6 -->
<g id="edge19" class="edge">
<title>Node14&#45;&gt;Node6</title>
<path fill="none" stroke="midnightblue" d="M952.46,-190.34C943.76,-169.08 921.21,-113.96 909.43,-85.15"/>
<polygon fill="midnightblue" stroke="midnightblue" points="912.51,-83.45 905.49,-75.52 906.03,-86.1 912.51,-83.45"/>
</g>
<!-- Node15 -->
<g id="node15" class="node">
<title>Node15</title>
<g id="a_node15"><a xlink:href="block__command__table__params_8h.html" target="_top" xlink:title="BCTのCoreTlmパラメタのオーバーライド用ヘッダー">
<polygon fill="white" stroke="black" points="968.5,-112.5 968.5,-142.5 1149.5,-142.5 1149.5,-112.5 968.5,-112.5"/>
<text text-anchor="start" x="976.5" y="-130.5" font-family="Helvetica,sans-Serif" font-size="10.00">src_user/Settings/CmdTlm</text>
<text text-anchor="middle" x="1059" y="-119.5" font-family="Helvetica,sans-Serif" font-size="10.00">/block_command_table_params.h</text>
</a>
</g>
</g>
<!-- Node14&#45;&gt;Node15 -->
<g id="edge20" class="edge">
<title>Node14&#45;&gt;Node15</title>
<path fill="none" stroke="midnightblue" d="M968.63,-190.36C983.86,-179.93 1009.93,-162.09 1030.17,-148.23"/>
<polygon fill="midnightblue" stroke="midnightblue" points="1032.16,-151.11 1038.43,-142.58 1028.21,-145.34 1032.16,-151.11"/>
</g>
<!-- Node16&#45;&gt;Node4 -->
<g id="edge25" class="edge">
<title>Node16&#45;&gt;Node4</title>
<path fill="none" stroke="midnightblue" d="M754.61,-313.4C734.18,-303.59 707.14,-290.62 687.2,-281.05"/>
<polygon fill="midnightblue" stroke="midnightblue" points="688.57,-277.83 678.04,-276.66 685.54,-284.14 688.57,-277.83"/>
</g>
<!-- Node16&#45;&gt;Node5 -->
<g id="edge24" class="edge">
<title>Node16&#45;&gt;Node5</title>
<path fill="none" stroke="midnightblue" d="M786.11,-313.48C789.3,-292.2 795.42,-251.48 799.35,-225.31"/>
<polygon fill="midnightblue" stroke="midnightblue" points="802.86,-225.49 800.88,-215.08 795.94,-224.45 802.86,-225.49"/>
</g>
<!-- Node17&#45;&gt;Node4 -->
<g id="edge27" class="edge">
<title>Node17&#45;&gt;Node4</title>
<path fill="none" stroke="midnightblue" d="M904.17,-318.98C853.16,-308.33 765.9,-290.11 710.68,-278.58"/>
<polygon fill="midnightblue" stroke="midnightblue" points="711.26,-275.13 700.76,-276.51 709.83,-281.98 711.26,-275.13"/>
</g>
<!-- Node17&#45;&gt;Node14 -->
<g id="edge28" class="edge">
<title>Node17&#45;&gt;Node14</title>
<path fill="none" stroke="midnightblue" d="M945.76,-318.81C947.52,-298.49 951.95,-247.55 954.37,-219.78"/>
<polygon fill="midnightblue" stroke="midnightblue" points="957.86,-220.02 955.24,-209.76 950.89,-219.41 957.86,-220.02"/>
</g>
</g>
</svg>
