<?xml version="1.0" encoding="UTF-8" standalone="no"?>
<!DOCTYPE svg PUBLIC "-//W3C//DTD SVG 1.1//EN"
 "http://www.w3.org/Graphics/SVG/1.1/DTD/svg11.dtd">
<!-- Generated by graphviz version 2.43.0 (0)
 -->
<!-- Title: PL_deploy_block_cmd Pages: 1 -->
<svg width="1048pt" height="522pt"
 viewBox="0.00 0.00 1048.00 522.00" xmlns="http://www.w3.org/2000/svg" xmlns:xlink="http://www.w3.org/1999/xlink">
<g id="graph0" class="graph" transform="scale(1 1) rotate(0) translate(4 518)">
<title>PL_deploy_block_cmd</title>
<polygon fill="white" stroke="transparent" points="-4,4 -4,-518 1044,-518 1044,4 -4,4"/>
<!-- Node1 -->
<g id="node1" class="node">
<title>Node1</title>
<g id="a_node1"><a xlink:title="PacketList 上に BC を展開する">
<polygon fill="#bfbfbf" stroke="black" points="0,-323.5 0,-342.5 124,-342.5 124,-323.5 0,-323.5"/>
<text text-anchor="middle" x="62" y="-330.5" font-family="Helvetica,sans-Serif" font-size="10.00">PL_deploy_block_cmd</text>
</a>
</g>
</g>
<!-- Node2 -->
<g id="node2" class="node">
<title>Node2</title>
<g id="a_node2"><a xlink:href="block__command__executor_8c.html#abefa2f3f0811c707ebb5af66e2d73762" target="_top" xlink:title="BCT の length の getter">
<polygon fill="white" stroke="black" points="187,-494.5 187,-513.5 272,-513.5 272,-494.5 187,-494.5"/>
<text text-anchor="middle" x="229.5" y="-501.5" font-family="Helvetica,sans-Serif" font-size="10.00">BCE_is_active</text>
</a>
</g>
</g>
<!-- Node1&#45;&gt;Node2 -->
<g id="edge1" class="edge">
<title>Node1&#45;&gt;Node2</title>
<path fill="none" stroke="midnightblue" d="M66.29,-342.56C76.03,-369.41 107.39,-446.1 160,-485 165.14,-488.8 171.01,-491.85 177.11,-494.28"/>
<polygon fill="midnightblue" stroke="midnightblue" points="176.19,-497.67 186.79,-497.62 178.48,-491.05 176.19,-497.67"/>
</g>
<!-- Node4 -->
<g id="node4" class="node">
<title>Node4</title>
<g id="a_node4"><a xlink:href="block__command__table_8c.html#add2db8412ac7b28b2e61d99638daaac5" target="_top" xlink:title="BCT の length の getter">
<polygon fill="white" stroke="black" points="174.5,-456.5 174.5,-475.5 284.5,-475.5 284.5,-456.5 174.5,-456.5"/>
<text text-anchor="middle" x="229.5" y="-463.5" font-family="Helvetica,sans-Serif" font-size="10.00">BCT_get_bc_length</text>
</a>
</g>
</g>
<!-- Node1&#45;&gt;Node4 -->
<g id="edge3" class="edge">
<title>Node1&#45;&gt;Node4</title>
<path fill="none" stroke="midnightblue" d="M68.41,-342.63C81.28,-364.65 115.97,-418.89 160,-447 163.3,-449.11 166.83,-450.98 170.49,-452.65"/>
<polygon fill="midnightblue" stroke="midnightblue" points="169.2,-455.91 179.78,-456.4 171.82,-449.41 169.2,-455.91"/>
</g>
<!-- Node5 -->
<g id="node5" class="node">
<title>Node5</title>
<g id="a_node5"><a xlink:href="block__command__table_8c.html#a58c4cbf30f13062bf9a9809af979dea5" target="_top" xlink:title="保存データを CCP にコピーする.">
<polygon fill="white" stroke="black" points="185,-380.5 185,-399.5 274,-399.5 274,-380.5 185,-380.5"/>
<text text-anchor="middle" x="229.5" y="-387.5" font-family="Helvetica,sans-Serif" font-size="10.00">BCT_load_cmd</text>
</a>
</g>
</g>
<!-- Node1&#45;&gt;Node5 -->
<g id="edge4" class="edge">
<title>Node1&#45;&gt;Node5</title>
<path fill="none" stroke="midnightblue" d="M85.49,-342.57C105,-350.69 134.09,-362.36 160,-371 166.92,-373.31 174.3,-375.56 181.56,-377.67"/>
<polygon fill="midnightblue" stroke="midnightblue" points="180.74,-381.08 191.32,-380.44 182.65,-374.34 180.74,-381.08"/>
</g>
<!-- Node8 -->
<g id="node8" class="node">
<title>Node8</title>
<g id="a_node8"><a xlink:href="block__command__table_8c.html#a2843560950369ecdb9e35801795b54db" target="_top" xlink:title="BCT_Pos* を引数から作る">
<polygon fill="white" stroke="black" points="184,-418.5 184,-437.5 275,-437.5 275,-418.5 184,-418.5"/>
<text text-anchor="middle" x="229.5" y="-425.5" font-family="Helvetica,sans-Serif" font-size="10.00">BCT_make_pos</text>
</a>
</g>
</g>
<!-- Node1&#45;&gt;Node8 -->
<g id="edge7" class="edge">
<title>Node1&#45;&gt;Node8</title>
<path fill="none" stroke="midnightblue" d="M72.56,-342.66C88.99,-358.73 124.29,-390.97 160,-409 164.57,-411.31 169.45,-413.36 174.42,-415.19"/>
<polygon fill="midnightblue" stroke="midnightblue" points="173.46,-418.56 184.05,-418.43 175.69,-411.92 173.46,-418.56"/>
</g>
<!-- Node9 -->
<g id="node9" class="node">
<title>Node9</title>
<g id="a_node9"><a xlink:href="common__cmd__packet_8h.html#ad1a6be053f894381150410e424ec20ab" target="_top" xlink:title="TI を取得">
<polygon fill="white" stroke="black" points="369.5,-266.5 369.5,-285.5 438.5,-285.5 438.5,-266.5 369.5,-266.5"/>
<text text-anchor="middle" x="404" y="-273.5" font-family="Helvetica,sans-Serif" font-size="10.00">CCP_get_ti</text>
</a>
</g>
</g>
<!-- Node1&#45;&gt;Node9 -->
<g id="edge9" class="edge">
<title>Node1&#45;&gt;Node9</title>
<path fill="none" stroke="midnightblue" d="M82.52,-323.37C101.73,-314.37 132.15,-301.4 160,-295 228.2,-279.34 309.69,-275.98 358.84,-275.57"/>
<polygon fill="midnightblue" stroke="midnightblue" points="359.13,-279.07 369.12,-275.52 359.1,-272.07 359.13,-279.07"/>
</g>
<!-- Node14 -->
<g id="node14" class="node">
<title>Node14</title>
<g id="a_node14"><a xlink:href="common__cmd__packet_8h.html#ab4c0b1be76b7097e922a8a354f500b88" target="_top" xlink:title="EXEC_TYPE を設定">
<polygon fill="white" stroke="black" points="174,-342.5 174,-361.5 285,-361.5 285,-342.5 174,-342.5"/>
<text text-anchor="middle" x="229.5" y="-349.5" font-family="Helvetica,sans-Serif" font-size="10.00">CCP_set_exec_type</text>
</a>
</g>
</g>
<!-- Node1&#45;&gt;Node14 -->
<g id="edge14" class="edge">
<title>Node1&#45;&gt;Node14</title>
<path fill="none" stroke="midnightblue" d="M124.16,-340.02C137.02,-341.5 150.62,-343.06 163.62,-344.55"/>
<polygon fill="midnightblue" stroke="midnightblue" points="163.54,-348.07 173.88,-345.73 164.34,-341.11 163.54,-348.07"/>
</g>
<!-- Node17 -->
<g id="node17" class="node">
<title>Node17</title>
<g id="a_node17"><a xlink:href="common__cmd__packet_8h.html#a1fde7575e47a25464d869a3247e1e087" target="_top" xlink:title="TI を設定">
<polygon fill="white" stroke="black" points="195.5,-304.5 195.5,-323.5 263.5,-323.5 263.5,-304.5 195.5,-304.5"/>
<text text-anchor="middle" x="229.5" y="-311.5" font-family="Helvetica,sans-Serif" font-size="10.00">CCP_set_ti</text>
</a>
</g>
</g>
<!-- Node1&#45;&gt;Node17 -->
<g id="edge18" class="edge">
<title>Node1&#45;&gt;Node17</title>
<path fill="none" stroke="midnightblue" d="M124.16,-325.98C144.51,-323.64 166.74,-321.09 185.43,-318.94"/>
<polygon fill="midnightblue" stroke="midnightblue" points="185.88,-322.42 195.42,-317.8 185.08,-315.46 185.88,-322.42"/>
</g>
<!-- Node19 -->
<g id="node19" class="node">
<title>Node19</title>
<g id="a_node19"><a xlink:href="packet__list_8c.html#a30838b1a60fd841ab737f565a4ad9d69" target="_top" xlink:title="PacketList をクリア">
<polygon fill="white" stroke="black" points="191,-228.5 191,-247.5 268,-247.5 268,-228.5 191,-228.5"/>
<text text-anchor="middle" x="229.5" y="-235.5" font-family="Helvetica,sans-Serif" font-size="10.00">PL_clear_list</text>
</a>
</g>
</g>
<!-- Node1&#45;&gt;Node19 -->
<g id="edge21" class="edge">
<title>Node1&#45;&gt;Node19</title>
<path fill="none" stroke="midnightblue" d="M73.92,-323.31C91.16,-308.42 126.2,-279.79 160,-262 167.94,-257.82 176.76,-254.11 185.36,-250.93"/>
<polygon fill="midnightblue" stroke="midnightblue" points="186.65,-254.19 194.92,-247.57 184.32,-247.59 186.65,-254.19"/>
</g>
<!-- Node20 -->
<g id="node20" class="node">
<title>Node20</title>
<g id="a_node20"><a xlink:href="packet__list_8c.html#ad57b69af66d040d88a302e79221fb26b" target="_top" xlink:title="PacketList で使用されていない Node 数を返す">
<polygon fill="white" stroke="black" points="160,-190.5 160,-209.5 299,-209.5 299,-190.5 160,-190.5"/>
<text text-anchor="middle" x="229.5" y="-197.5" font-family="Helvetica,sans-Serif" font-size="10.00">PL_count_inactive_nodes</text>
</a>
</g>
</g>
<!-- Node1&#45;&gt;Node20 -->
<g id="edge22" class="edge">
<title>Node1&#45;&gt;Node20</title>
<path fill="none" stroke="midnightblue" d="M68.41,-323.37C81.28,-301.35 115.97,-247.11 160,-219 163.3,-216.89 166.83,-215.02 170.49,-213.35"/>
<polygon fill="midnightblue" stroke="midnightblue" points="171.82,-216.59 179.78,-209.6 169.2,-210.09 171.82,-216.59"/>
</g>
<!-- Node21 -->
<g id="node21" class="node">
<title>Node21</title>
<g id="a_node21"><a xlink:href="packet__list_8c.html#ac711a46f484040b1c67c522fbd96b826" target="_top" xlink:title="CCP が時系列に並ぶように CCP を挿入する">
<polygon fill="white" stroke="black" points="180,-152.5 180,-171.5 279,-171.5 279,-152.5 180,-152.5"/>
<text text-anchor="middle" x="229.5" y="-159.5" font-family="Helvetica,sans-Serif" font-size="10.00">PL_insert_tl_cmd</text>
</a>
</g>
</g>
<!-- Node1&#45;&gt;Node21 -->
<g id="edge23" class="edge">
<title>Node1&#45;&gt;Node21</title>
<path fill="none" stroke="midnightblue" d="M66.29,-323.44C76.03,-296.59 107.39,-219.9 160,-181 163.26,-178.59 166.8,-176.49 170.51,-174.65"/>
<polygon fill="midnightblue" stroke="midnightblue" points="172.17,-177.75 180,-170.62 169.42,-171.31 172.17,-177.75"/>
</g>
<!-- Node3 -->
<g id="node3" class="node">
<title>Node3</title>
<g id="a_node3"><a xlink:href="block__command__executor_8c.html#ab093b73c94e0d7fe1936d95e66d5e51f" target="_top" xlink:title="BCE_Params の const getter">
<polygon fill="white" stroke="black" points="335,-494.5 335,-513.5 473,-513.5 473,-494.5 335,-494.5"/>
<text text-anchor="middle" x="404" y="-501.5" font-family="Helvetica,sans-Serif" font-size="10.00">BCE_get_bc_exe_params</text>
</a>
</g>
</g>
<!-- Node2&#45;&gt;Node3 -->
<g id="edge2" class="edge">
<title>Node2&#45;&gt;Node3</title>
<path fill="none" stroke="midnightblue" d="M272.26,-504C288,-504 306.47,-504 324.48,-504"/>
<polygon fill="midnightblue" stroke="midnightblue" points="324.72,-507.5 334.72,-504 324.72,-500.5 324.72,-507.5"/>
</g>
<!-- Node6 -->
<g id="node6" class="node">
<title>Node6</title>
<g id="a_node6"><a xlink:href="block__command__table_8c.html#ae25a57a4a97b49bf13a4caa0b5e8ff76" target="_top" xlink:title="BCT_Pos* の validate">
<polygon fill="white" stroke="black" points="347,-418.5 347,-437.5 461,-437.5 461,-418.5 347,-418.5"/>
<text text-anchor="middle" x="404" y="-425.5" font-family="Helvetica,sans-Serif" font-size="10.00">BCT_check_position</text>
</a>
</g>
</g>
<!-- Node5&#45;&gt;Node6 -->
<g id="edge5" class="edge">
<title>Node5&#45;&gt;Node6</title>
<path fill="none" stroke="midnightblue" d="M274.03,-399.59C297.1,-404.67 325.63,-410.96 349.98,-416.32"/>
<polygon fill="midnightblue" stroke="midnightblue" points="349.27,-419.75 359.78,-418.48 350.77,-412.91 349.27,-419.75"/>
</g>
<!-- Node7 -->
<g id="node7" class="node">
<title>Node7</title>
<g id="a_node7"><a xlink:href="block__command__table_8c.html#aad2653a11ef1264594f19869ed916daa" target="_top" xlink:title=" ">
<polygon fill="white" stroke="black" points="338,-380.5 338,-399.5 470,-399.5 470,-380.5 338,-380.5"/>
<text text-anchor="middle" x="404" y="-387.5" font-family="Helvetica,sans-Serif" font-size="10.00">BCT_get_bc_cmd_data_</text>
</a>
</g>
</g>
<!-- Node5&#45;&gt;Node7 -->
<g id="edge6" class="edge">
<title>Node5&#45;&gt;Node7</title>
<path fill="none" stroke="midnightblue" d="M274.03,-390C290.37,-390 309.44,-390 327.83,-390"/>
<polygon fill="midnightblue" stroke="midnightblue" points="327.95,-393.5 337.95,-390 327.95,-386.5 327.95,-393.5"/>
</g>
<!-- Node8&#45;&gt;Node6 -->
<g id="edge8" class="edge">
<title>Node8&#45;&gt;Node6</title>
<path fill="none" stroke="midnightblue" d="M275.37,-428C294.07,-428 316.18,-428 336.69,-428"/>
<polygon fill="midnightblue" stroke="midnightblue" points="336.93,-431.5 346.93,-428 336.93,-424.5 336.93,-431.5"/>
</g>
<!-- Node10 -->
<g id="node10" class="node">
<title>Node10</title>
<g id="a_node10"><a xlink:href="cmd__space__packet_8c.html#a8d726fa3f96fbe2be1a779719445b528" target="_top" xlink:title="Time Indicator (TI) を取得">
<polygon fill="white" stroke="black" points="531.5,-266.5 531.5,-285.5 599.5,-285.5 599.5,-266.5 531.5,-266.5"/>
<text text-anchor="middle" x="565.5" y="-273.5" font-family="Helvetica,sans-Serif" font-size="10.00">CSP_get_ti</text>
</a>
</g>
</g>
<!-- Node9&#45;&gt;Node10 -->
<g id="edge10" class="edge">
<title>Node9&#45;&gt;Node10</title>
<path fill="none" stroke="midnightblue" d="M438.83,-276C462.78,-276 495.11,-276 520.98,-276"/>
<polygon fill="midnightblue" stroke="midnightblue" points="521.27,-279.5 531.27,-276 521.27,-272.5 521.27,-279.5"/>
</g>
<!-- Node11 -->
<g id="node11" class="node">
<title>Node11</title>
<g id="a_node11"><a xlink:href="space__packet_8c.html#a300c7fc3dea91319b0fa2f039f27d5eb" target="_top" xlink:title="packet に格納された param を取得">
<polygon fill="white" stroke="black" points="658,-261 658,-291 792,-291 792,-261 658,-261"/>
<text text-anchor="start" x="666" y="-279" font-family="Helvetica,sans-Serif" font-size="10.00">SP_extract_param_from</text>
<text text-anchor="middle" x="725" y="-268" font-family="Helvetica,sans-Serif" font-size="10.00">_packet</text>
</a>
</g>
</g>
<!-- Node10&#45;&gt;Node11 -->
<g id="edge11" class="edge">
<title>Node10&#45;&gt;Node11</title>
<path fill="none" stroke="midnightblue" d="M599.52,-276C613.56,-276 630.57,-276 647.45,-276"/>
<polygon fill="midnightblue" stroke="midnightblue" points="647.92,-279.5 657.92,-276 647.92,-272.5 647.92,-279.5"/>
</g>
<!-- Node12 -->
<g id="node12" class="node">
<title>Node12</title>
<g id="a_node12"><a xlink:href="endian__memcpy_8c.html#a153793f6939a1cb0f6bc3968d953f31e" target="_top" xlink:title=" ">
<polygon fill="white" stroke="black" points="828,-288.5 828,-307.5 926,-307.5 926,-288.5 828,-288.5"/>
<text text-anchor="middle" x="877" y="-295.5" font-family="Helvetica,sans-Serif" font-size="10.00">endian_memcpy</text>
</a>
</g>
</g>
<!-- Node11&#45;&gt;Node12 -->
<g id="edge12" class="edge">
<title>Node11&#45;&gt;Node12</title>
<path fill="none" stroke="midnightblue" d="M792.23,-285.71C800.71,-286.96 809.34,-288.22 817.69,-289.45"/>
<polygon fill="midnightblue" stroke="midnightblue" points="817.29,-292.93 827.69,-290.91 818.3,-286 817.29,-292.93"/>
</g>
<!-- Node13 -->
<g id="node13" class="node">
<title>Node13</title>
<g id="a_node13"><a xlink:href="endian__conv_8c.html#af8d492c4e43d83c161cd2225a9697b6a" target="_top" xlink:title=" ">
<polygon fill="white" stroke="black" points="962,-288.5 962,-307.5 1040,-307.5 1040,-288.5 962,-288.5"/>
<text text-anchor="middle" x="1001" y="-295.5" font-family="Helvetica,sans-Serif" font-size="10.00">endian_conv</text>
</a>
</g>
</g>
<!-- Node12&#45;&gt;Node13 -->
<g id="edge13" class="edge">
<title>Node12&#45;&gt;Node13</title>
<path fill="none" stroke="midnightblue" d="M926.22,-298C934.65,-298 943.42,-298 951.84,-298"/>
<polygon fill="midnightblue" stroke="midnightblue" points="951.91,-301.5 961.91,-298 951.91,-294.5 951.91,-301.5"/>
</g>
<!-- Node15 -->
<g id="node15" class="node">
<title>Node15</title>
<g id="a_node15"><a xlink:href="cmd__space__packet_8c.html#a031c095293173f7bc0fa4a97852b7060" target="_top" xlink:title="Execution Type を設定">
<polygon fill="white" stroke="black" points="349,-342.5 349,-361.5 459,-361.5 459,-342.5 349,-342.5"/>
<text text-anchor="middle" x="404" y="-349.5" font-family="Helvetica,sans-Serif" font-size="10.00">CSP_set_exec_type</text>
</a>
</g>
</g>
<!-- Node14&#45;&gt;Node15 -->
<g id="edge15" class="edge">
<title>Node14&#45;&gt;Node15</title>
<path fill="none" stroke="midnightblue" d="M285.08,-352C302.08,-352 320.98,-352 338.58,-352"/>
<polygon fill="midnightblue" stroke="midnightblue" points="338.78,-355.5 348.77,-352 338.77,-348.5 338.78,-355.5"/>
</g>
<!-- Node16 -->
<g id="node16" class="node">
<title>Node16</title>
<g id="a_node16"><a xlink:href="space__packet_8c.html#a9d4e5051b01d74f88ee13ce05f61b392" target="_top" xlink:title="packet に param を格納">
<polygon fill="white" stroke="black" points="509,-305 509,-335 622,-335 622,-305 509,-305"/>
<text text-anchor="start" x="517" y="-323" font-family="Helvetica,sans-Serif" font-size="10.00">SP_insert_param_to</text>
<text text-anchor="middle" x="565.5" y="-312" font-family="Helvetica,sans-Serif" font-size="10.00">_packet</text>
</a>
</g>
</g>
<!-- Node15&#45;&gt;Node16 -->
<g id="edge16" class="edge">
<title>Node15&#45;&gt;Node16</title>
<path fill="none" stroke="midnightblue" d="M452.42,-342.49C466.96,-339.57 483.23,-336.31 498.76,-333.19"/>
<polygon fill="midnightblue" stroke="midnightblue" points="499.72,-336.57 508.83,-331.17 498.34,-329.7 499.72,-336.57"/>
</g>
<!-- Node16&#45;&gt;Node12 -->
<g id="edge17" class="edge">
<title>Node16&#45;&gt;Node12</title>
<path fill="none" stroke="midnightblue" d="M622.19,-316.04C677.4,-312.12 761.64,-306.13 817.74,-302.14"/>
<polygon fill="midnightblue" stroke="midnightblue" points="818.14,-305.62 827.87,-301.42 817.65,-298.64 818.14,-305.62"/>
</g>
<!-- Node18 -->
<g id="node18" class="node">
<title>Node18</title>
<g id="a_node18"><a xlink:href="cmd__space__packet_8c.html#a3b7cf4c50d51882d730ad25b754259fd" target="_top" xlink:title="Time Indicator (TI) を設定">
<polygon fill="white" stroke="black" points="370,-304.5 370,-323.5 438,-323.5 438,-304.5 370,-304.5"/>
<text text-anchor="middle" x="404" y="-311.5" font-family="Helvetica,sans-Serif" font-size="10.00">CSP_set_ti</text>
</a>
</g>
</g>
<!-- Node17&#45;&gt;Node18 -->
<g id="edge19" class="edge">
<title>Node17&#45;&gt;Node18</title>
<path fill="none" stroke="midnightblue" d="M263.76,-314C291.08,-314 329.99,-314 359.74,-314"/>
<polygon fill="midnightblue" stroke="midnightblue" points="359.84,-317.5 369.84,-314 359.84,-310.5 359.84,-317.5"/>
</g>
<!-- Node18&#45;&gt;Node16 -->
<g id="edge20" class="edge">
<title>Node18&#45;&gt;Node16</title>
<path fill="none" stroke="midnightblue" d="M438.05,-315.24C455.61,-315.9 477.85,-316.74 498.75,-317.53"/>
<polygon fill="midnightblue" stroke="midnightblue" points="498.76,-321.03 508.88,-317.91 499.02,-314.03 498.76,-321.03"/>
</g>
<!-- Node21&#45;&gt;Node9 -->
<g id="edge24" class="edge">
<title>Node21&#45;&gt;Node9</title>
<path fill="none" stroke="midnightblue" d="M279.16,-169.84C286.34,-172.54 293.24,-176.15 299,-181 327.6,-205.06 306.42,-232.91 335,-257 341.95,-262.86 350.57,-266.91 359.32,-269.72"/>
<polygon fill="midnightblue" stroke="midnightblue" points="358.59,-273.15 369.16,-272.39 360.43,-266.4 358.59,-273.15"/>
</g>
<!-- Node22 -->
<g id="node22" class="node">
<title>Node22</title>
<g id="a_node22"><a xlink:href="packet__list_8c.html#a2b6b5b3ed753070e0ef0b14556311263" target="_top" xlink:title="PacketList の active な先頭 Node を取得">
<polygon fill="white" stroke="black" points="365,-0.5 365,-19.5 443,-19.5 443,-0.5 365,-0.5"/>
<text text-anchor="middle" x="404" y="-7.5" font-family="Helvetica,sans-Serif" font-size="10.00">PL_get_head</text>
</a>
</g>
</g>
<!-- Node21&#45;&gt;Node22 -->
<g id="edge25" class="edge">
<title>Node21&#45;&gt;Node22</title>
<path fill="none" stroke="midnightblue" d="M235.76,-152.47C249.19,-128.95 287.12,-67.66 335,-34 341.13,-29.69 348.1,-26.09 355.19,-23.09"/>
<polygon fill="midnightblue" stroke="midnightblue" points="356.79,-26.23 364.87,-19.38 354.28,-19.7 356.79,-26.23"/>
</g>
<!-- Node23 -->
<g id="node23" class="node">
<title>Node23</title>
<g id="a_node23"><a xlink:href="packet__list_8c.html#a7b5027b1d6d804ce0c4b650ef214df53" target="_top" xlink:title="PacketList の active な末端 Node を取得">
<polygon fill="white" stroke="black" points="369,-228.5 369,-247.5 439,-247.5 439,-228.5 369,-228.5"/>
<text text-anchor="middle" x="404" y="-235.5" font-family="Helvetica,sans-Serif" font-size="10.00">PL_get_tail</text>
</a>
</g>
</g>
<!-- Node21&#45;&gt;Node23 -->
<g id="edge26" class="edge">
<title>Node21&#45;&gt;Node23</title>
<path fill="none" stroke="midnightblue" d="M277.96,-171.52C285.28,-174.01 292.55,-177.12 299,-181 318.94,-192.99 315.08,-206.99 335,-219 342.32,-223.41 350.7,-226.83 359.01,-229.47"/>
<polygon fill="midnightblue" stroke="midnightblue" points="358.1,-232.85 368.67,-232.22 360.02,-226.11 358.1,-232.85"/>
</g>
<!-- Node24 -->
<g id="node24" class="node">
<title>Node24</title>
<g id="a_node24"><a xlink:href="packet__list_8c.html#a6b3b63e47f62fb71acd7de1381f5a0a4" target="_top" xlink:title="ある Node の直後に packet を挿入">
<polygon fill="white" stroke="black" points="359.5,-190.5 359.5,-209.5 448.5,-209.5 448.5,-190.5 359.5,-190.5"/>
<text text-anchor="middle" x="404" y="-197.5" font-family="Helvetica,sans-Serif" font-size="10.00">PL_insert_after</text>
</a>
</g>
</g>
<!-- Node21&#45;&gt;Node24 -->
<g id="edge27" class="edge">
<title>Node21&#45;&gt;Node24</title>
<path fill="none" stroke="midnightblue" d="M274.03,-171.59C297.1,-176.67 325.63,-182.96 349.98,-188.32"/>
<polygon fill="midnightblue" stroke="midnightblue" points="349.27,-191.75 359.78,-190.48 350.77,-184.91 349.27,-191.75"/>
</g>
<!-- Node26 -->
<g id="node26" class="node">
<title>Node26</title>
<g id="a_node26"><a xlink:href="packet__list_8c.html#afaf80120b8b97c0fdf3099e13e9019be" target="_top" xlink:title="PacketList の末尾に packet を挿入">
<polygon fill="white" stroke="black" points="523,-152.5 523,-171.5 608,-171.5 608,-152.5 523,-152.5"/>
<text text-anchor="middle" x="565.5" y="-159.5" font-family="Helvetica,sans-Serif" font-size="10.00">PL_push_back</text>
</a>
</g>
</g>
<!-- Node21&#45;&gt;Node26 -->
<g id="edge33" class="edge">
<title>Node21&#45;&gt;Node26</title>
<path fill="none" stroke="midnightblue" d="M279.07,-162C341.36,-162 448.97,-162 512.76,-162"/>
<polygon fill="midnightblue" stroke="midnightblue" points="512.99,-165.5 522.99,-162 512.99,-158.5 512.99,-165.5"/>
</g>
<!-- Node27 -->
<g id="node27" class="node">
<title>Node27</title>
<g id="a_node27"><a xlink:href="packet__list_8c.html#afefb37c36db47052d2e2b7e4d6c2274b" target="_top" xlink:title="PacketList が空かどうか">
<polygon fill="white" stroke="black" points="365,-114.5 365,-133.5 443,-133.5 443,-114.5 365,-114.5"/>
<text text-anchor="middle" x="404" y="-121.5" font-family="Helvetica,sans-Serif" font-size="10.00">PL_is_empty</text>
</a>
</g>
</g>
<!-- Node21&#45;&gt;Node27 -->
<g id="edge31" class="edge">
<title>Node21&#45;&gt;Node27</title>
<path fill="none" stroke="midnightblue" d="M274.03,-152.41C298.7,-146.98 329.61,-140.17 354.99,-134.58"/>
<polygon fill="midnightblue" stroke="midnightblue" points="355.76,-137.99 364.77,-132.42 354.25,-131.15 355.76,-137.99"/>
</g>
<!-- Node28 -->
<g id="node28" class="node">
<title>Node28</title>
<g id="a_node28"><a xlink:href="packet__list_8c.html#aee623fa81c4a8a1f3b0775a3a5d2925b" target="_top" xlink:title="PacketList が満杯かどうか">
<polygon fill="white" stroke="black" points="373,-76.5 373,-95.5 435,-95.5 435,-76.5 373,-76.5"/>
<text text-anchor="middle" x="404" y="-83.5" font-family="Helvetica,sans-Serif" font-size="10.00">PL_is_full</text>
</a>
</g>
</g>
<!-- Node21&#45;&gt;Node28 -->
<g id="edge32" class="edge">
<title>Node21&#45;&gt;Node28</title>
<path fill="none" stroke="midnightblue" d="M245.54,-152.37C265.38,-140 301.69,-118.53 335,-105 343.84,-101.41 353.59,-98.24 362.88,-95.58"/>
<polygon fill="midnightblue" stroke="midnightblue" points="364,-98.9 372.72,-92.89 362.15,-92.15 364,-98.9"/>
</g>
<!-- Node29 -->
<g id="node29" class="node">
<title>Node29</title>
<g id="a_node29"><a xlink:href="packet__list_8c.html#a46379e787e8e3c97939b08e6c838372a" target="_top" xlink:title="PacketList の先頭に packet を挿入">
<polygon fill="white" stroke="black" points="523,-76.5 523,-95.5 608,-95.5 608,-76.5 523,-76.5"/>
<text text-anchor="middle" x="565.5" y="-83.5" font-family="Helvetica,sans-Serif" font-size="10.00">PL_push_front</text>
</a>
</g>
</g>
<!-- Node21&#45;&gt;Node29 -->
<g id="edge34" class="edge">
<title>Node21&#45;&gt;Node29</title>
<path fill="none" stroke="midnightblue" d="M237.19,-152.28C251.97,-131.76 289.72,-84.51 335,-67 399.44,-42.09 481.47,-59.47 527.97,-73.39"/>
<polygon fill="midnightblue" stroke="midnightblue" points="527.02,-76.77 537.61,-76.39 529.1,-70.08 527.02,-76.77"/>
</g>
<!-- Node25 -->
<g id="node25" class="node">
<title>Node25</title>
<g id="a_node25"><a xlink:href="packet__list_8c.html#a16ea3d3b9925532e2772678215e38abb" target="_top" xlink:title="未使用 Node を新規に取得">
<polygon fill="white" stroke="black" points="671,-152.5 671,-171.5 779,-171.5 779,-152.5 671,-152.5"/>
<text text-anchor="middle" x="725" y="-159.5" font-family="Helvetica,sans-Serif" font-size="10.00">PL_get_free_node_</text>
</a>
</g>
</g>
<!-- Node24&#45;&gt;Node25 -->
<g id="edge28" class="edge">
<title>Node24&#45;&gt;Node25</title>
<path fill="none" stroke="midnightblue" d="M448.78,-197.42C492.71,-194.53 562.24,-189.16 622,-181 637.01,-178.95 653.16,-176.2 668.09,-173.42"/>
<polygon fill="midnightblue" stroke="midnightblue" points="669.03,-176.81 678.2,-171.51 667.72,-169.93 669.03,-176.81"/>
</g>
<!-- Node24&#45;&gt;Node26 -->
<g id="edge29" class="edge">
<title>Node24&#45;&gt;Node26</title>
<path fill="none" stroke="midnightblue" d="M445.25,-190.41C466.3,-185.4 492.26,-179.21 514.57,-173.89"/>
<polygon fill="midnightblue" stroke="midnightblue" points="515.62,-177.24 524.54,-171.52 514,-170.43 515.62,-177.24"/>
</g>
<!-- Node26&#45;&gt;Node25 -->
<g id="edge30" class="edge">
<title>Node26&#45;&gt;Node25</title>
<path fill="none" stroke="midnightblue" d="M608.29,-162C624.37,-162 643.1,-162 660.75,-162"/>
<polygon fill="midnightblue" stroke="midnightblue" points="660.99,-165.5 670.99,-162 660.99,-158.5 660.99,-165.5"/>
</g>
<!-- Node29&#45;&gt;Node25 -->
<g id="edge35" class="edge">
<title>Node29&#45;&gt;Node25</title>
<path fill="none" stroke="midnightblue" d="M586.45,-95.63C613.9,-108.87 663.51,-132.81 695.05,-148.03"/>
<polygon fill="midnightblue" stroke="midnightblue" points="693.69,-151.26 704.21,-152.45 696.73,-144.95 693.69,-151.26"/>
</g>
</g>
</svg>
