<?xml version="1.0" encoding="UTF-8" standalone="no"?>
<!DOCTYPE svg PUBLIC "-//W3C//DTD SVG 1.1//EN"
 "http://www.w3.org/Graphics/SVG/1.1/DTD/svg11.dtd">
<!-- Generated by graphviz version 2.43.0 (0)
 -->
<!-- Title: PL_count_inactive_nodes Pages: 1 -->
<svg width="1201pt" height="135pt"
 viewBox="0.00 0.00 1201.00 134.50" xmlns="http://www.w3.org/2000/svg" xmlns:xlink="http://www.w3.org/1999/xlink">
<g id="graph0" class="graph" transform="scale(1 1) rotate(0) translate(4 130.5)">
<title>PL_count_inactive_nodes</title>
<polygon fill="white" stroke="transparent" points="-4,4 -4,-130.5 1197,-130.5 1197,4 -4,4"/>
<!-- Node1 -->
<g id="node1" class="node">
<title>Node1</title>
<g id="a_node1"><a xlink:title="PacketList で使用されていない Node 数を返す">
<polygon fill="#bfbfbf" stroke="black" points="1054,-69 1054,-88 1193,-88 1193,-69 1054,-69"/>
<text text-anchor="middle" x="1123.5" y="-76" font-family="Helvetica,sans-Serif" font-size="10.00">PL_count_inactive_nodes</text>
</a>
</g>
</g>
<!-- Node2 -->
<g id="node2" class="node">
<title>Node2</title>
<g id="a_node2"><a xlink:href="packet__list_8h.html#aa1c786e55eef7a21cb425de7fd84db00" target="_top" xlink:title="PacketList 上に BC を展開する">
<polygon fill="white" stroke="black" points="894,-69 894,-88 1018,-88 1018,-69 894,-69"/>
<text text-anchor="middle" x="956" y="-76" font-family="Helvetica,sans-Serif" font-size="10.00">PL_deploy_block_cmd</text>
</a>
</g>
</g>
<!-- Node1&#45;&gt;Node2 -->
<g id="edge1" class="edge">
<title>Node1&#45;&gt;Node2</title>
<path fill="none" stroke="midnightblue" d="M1043.71,-78.5C1035.12,-78.5 1026.47,-78.5 1018.14,-78.5"/>
<polygon fill="midnightblue" stroke="midnightblue" points="1043.75,-82 1053.75,-78.5 1043.75,-75 1043.75,-82"/>
</g>
<!-- Node3 -->
<g id="node3" class="node">
<title>Node3</title>
<g id="a_node3"><a xlink:href="timeline__command__dispatcher_8h.html#a0f39289b0b07ada46a230d07e22cd4d1" target="_top" xlink:title=" ">
<polygon fill="white" stroke="black" points="706,-89 706,-108 858,-108 858,-89 706,-89"/>
<text text-anchor="middle" x="782" y="-96" font-family="Helvetica,sans-Serif" font-size="10.00">Cmd_TLCD_DEPLOY_BLOCK</text>
</a>
</g>
</g>
<!-- Node2&#45;&gt;Node3 -->
<g id="edge2" class="edge">
<title>Node2&#45;&gt;Node3</title>
<path fill="none" stroke="midnightblue" d="M883.68,-86.79C875.23,-87.78 866.58,-88.78 858.08,-89.77"/>
<polygon fill="midnightblue" stroke="midnightblue" points="884.35,-90.24 893.87,-85.61 883.54,-83.29 884.35,-90.24"/>
</g>
<!-- Node10 -->
<g id="node10" class="node">
<title>Node10</title>
<g id="a_node10"><a xlink:href="task__dispatcher_8c.html#aa6835d29f6d61ff30f70aaebdf0d7df9" target="_top" xlink:title="TDSP_info_.task_list_id に登録された BC を TaskListに展開.">
<polygon fill="white" stroke="black" points="542,-41.5 542,-71.5 670,-71.5 670,-41.5 542,-41.5"/>
<text text-anchor="start" x="550" y="-59.5" font-family="Helvetica,sans-Serif" font-size="10.00">TDSP_deploy_block_as</text>
<text text-anchor="middle" x="606" y="-48.5" font-family="Helvetica,sans-Serif" font-size="10.00">_task_list_</text>
</a>
</g>
</g>
<!-- Node2&#45;&gt;Node10 -->
<g id="edge10" class="edge">
<title>Node2&#45;&gt;Node10</title>
<path fill="none" stroke="midnightblue" d="M883.76,-74C820.93,-70.02 730.23,-64.29 670,-60.48"/>
<polygon fill="midnightblue" stroke="midnightblue" points="883.78,-77.5 893.98,-74.64 884.23,-70.52 883.78,-77.5"/>
</g>
<!-- Node4 -->
<g id="node4" class="node">
<title>Node4</title>
<g id="a_node4"><a xlink:href="command__definitions_8c.html#aa375895192b16d8e7f0ff4545b54e6c4" target="_top" xlink:title="Cmd Tableのロード">
<polygon fill="white" stroke="black" points="549.5,-91 549.5,-110 662.5,-110 662.5,-91 549.5,-91"/>
<text text-anchor="middle" x="606" y="-98" font-family="Helvetica,sans-Serif" font-size="10.00">CA_load_cmd_table</text>
</a>
</g>
</g>
<!-- Node3&#45;&gt;Node4 -->
<g id="edge3" class="edge">
<title>Node3&#45;&gt;Node4</title>
<path fill="none" stroke="midnightblue" d="M695.67,-99.48C684.46,-99.61 673.2,-99.74 662.65,-99.86"/>
<polygon fill="midnightblue" stroke="midnightblue" points="695.99,-102.98 705.95,-99.36 695.91,-95.98 695.99,-102.98"/>
</g>
<!-- Node5 -->
<g id="node5" class="node">
<title>Node5</title>
<g id="a_node5"><a xlink:href="command__analyze_8h.html#ae6d1f376bf4e1c9c4b63bc3f04924c8a" target="_top" xlink:title="CA の初期化">
<polygon fill="white" stroke="black" points="409.5,-88 409.5,-107 486.5,-107 486.5,-88 409.5,-88"/>
<text text-anchor="middle" x="448" y="-95" font-family="Helvetica,sans-Serif" font-size="10.00">CA_initialize</text>
</a>
</g>
</g>
<!-- Node4&#45;&gt;Node5 -->
<g id="edge4" class="edge">
<title>Node4&#45;&gt;Node5</title>
<path fill="none" stroke="midnightblue" d="M538.81,-99.23C521.09,-98.89 502.54,-98.53 486.93,-98.23"/>
<polygon fill="midnightblue" stroke="midnightblue" points="539.06,-102.73 549.12,-99.43 539.19,-95.73 539.06,-102.73"/>
</g>
<!-- Node6 -->
<g id="node6" class="node">
<title>Node6</title>
<g id="a_node6"><a xlink:href="c2a__core__main_8h.html#a65ecdc63d8762ffde4db7f6c6e6f07cf" target="_top" xlink:title=" ">
<polygon fill="white" stroke="black" points="266.5,-50 266.5,-69 349.5,-69 349.5,-50 266.5,-50"/>
<text text-anchor="middle" x="308" y="-57" font-family="Helvetica,sans-Serif" font-size="10.00">C2A_core_init</text>
</a>
</g>
</g>
<!-- Node5&#45;&gt;Node6 -->
<g id="edge5" class="edge">
<title>Node5&#45;&gt;Node6</title>
<path fill="none" stroke="midnightblue" d="M402.53,-85.25C383.51,-80.02 361.62,-73.99 343.81,-69.09"/>
<polygon fill="midnightblue" stroke="midnightblue" points="401.61,-88.63 412.18,-87.91 403.46,-81.88 401.61,-88.63"/>
</g>
<!-- Node9 -->
<g id="node9" class="node">
<title>Node9</title>
<g id="a_node9"><a xlink:href="command__analyze_8h.html#aee45638c6cff2c25a997905b209079d0" target="_top" xlink:title=" ">
<polygon fill="white" stroke="black" points="266.5,-107 266.5,-126 349.5,-126 349.5,-107 266.5,-107"/>
<text text-anchor="middle" x="308" y="-114" font-family="Helvetica,sans-Serif" font-size="10.00">Cmd_CA_INIT</text>
</a>
</g>
</g>
<!-- Node5&#45;&gt;Node9 -->
<g id="edge8" class="edge">
<title>Node5&#45;&gt;Node9</title>
<path fill="none" stroke="midnightblue" d="M398.98,-104.11C382.86,-106.33 365.06,-108.78 349.57,-110.91"/>
<polygon fill="midnightblue" stroke="midnightblue" points="399.86,-107.52 409.29,-102.69 398.91,-100.59 399.86,-107.52"/>
</g>
<!-- Node7 -->
<g id="node7" class="node">
<title>Node7</title>
<g id="a_node7"><a xlink:href="c2a__main_8c.html#a630222a80cd8bffd4426d4a55a215069" target="_top" xlink:title=" ">
<polygon fill="white" stroke="black" points="159.5,-49 159.5,-68 221.5,-68 221.5,-49 159.5,-49"/>
<text text-anchor="middle" x="190.5" y="-56" font-family="Helvetica,sans-Serif" font-size="10.00">C2A_init_</text>
</a>
</g>
</g>
<!-- Node6&#45;&gt;Node7 -->
<g id="edge6" class="edge">
<title>Node6&#45;&gt;Node7</title>
<path fill="none" stroke="midnightblue" d="M256.1,-59.06C244.36,-58.96 232.23,-58.85 221.69,-58.76"/>
<polygon fill="midnightblue" stroke="midnightblue" points="256.25,-62.56 266.28,-59.15 256.31,-55.56 256.25,-62.56"/>
</g>
<!-- Node8 -->
<g id="node8" class="node">
<title>Node8</title>
<g id="a_node8"><a xlink:href="c2a__main_8c.html#ac3344a311adda8f9e7310924bedf81fc" target="_top" xlink:title=" ">
<polygon fill="white" stroke="black" points="0,-29 0,-48 119,-48 119,-29 0,-29"/>
<text text-anchor="middle" x="59.5" y="-36" font-family="Helvetica,sans-Serif" font-size="10.00">address_fixed_main_</text>
</a>
</g>
</g>
<!-- Node7&#45;&gt;Node8 -->
<g id="edge7" class="edge">
<title>Node7&#45;&gt;Node8</title>
<path fill="none" stroke="midnightblue" d="M149.28,-52.26C139.74,-50.79 129.37,-49.18 119.2,-47.6"/>
<polygon fill="midnightblue" stroke="midnightblue" points="148.84,-55.74 159.26,-53.81 149.91,-48.82 148.84,-55.74"/>
</g>
<!-- Node9&#45;&gt;Node4 -->
<g id="edge9" class="edge">
<title>Node9&#45;&gt;Node4</title>
<path fill="none" stroke="midnightblue" d="M359.83,-118.73C399.66,-119.94 456.45,-120.48 506,-116.5 522.31,-115.19 539.99,-112.69 555.84,-110.04"/>
<polygon fill="midnightblue" stroke="midnightblue" points="359.93,-115.23 349.82,-118.4 359.7,-122.23 359.93,-115.23"/>
</g>
<!-- Node11 -->
<g id="node11" class="node">
<title>Node11</title>
<g id="a_node11"><a xlink:href="task__dispatcher_8h.html#ac880fe6e26ecdf8711d08980cad6787d" target="_top" xlink:title="現在時刻に応じて、TaskList から Cmd を一つ実行する or TaskList を再展開する">
<polygon fill="white" stroke="black" points="390,-0.5 390,-30.5 506,-30.5 506,-0.5 390,-0.5"/>
<text text-anchor="start" x="398" y="-18.5" font-family="Helvetica,sans-Serif" font-size="10.00">TDSP_execute_pl_as</text>
<text text-anchor="middle" x="448" y="-7.5" font-family="Helvetica,sans-Serif" font-size="10.00">_task_list</text>
</a>
</g>
</g>
<!-- Node10&#45;&gt;Node11 -->
<g id="edge11" class="edge">
<title>Node10&#45;&gt;Node11</title>
<path fill="none" stroke="midnightblue" d="M537.81,-38.84C527.28,-36.07 516.48,-33.23 506.2,-30.53"/>
<polygon fill="midnightblue" stroke="midnightblue" points="537.24,-42.31 547.8,-41.47 539.02,-35.54 537.24,-42.31"/>
</g>
<!-- Node14 -->
<g id="node14" class="node">
<title>Node14</title>
<g id="a_node14"><a xlink:href="task__dispatcher_8h.html#ab4cccbf9d36945e27f8023f9d613a667" target="_top" xlink:title="タスク管理を行うTDSP_Info構造体(TDSP_Info_)の初期化">
<polygon fill="white" stroke="black" points="403.5,-50 403.5,-69 492.5,-69 492.5,-50 403.5,-50"/>
<text text-anchor="middle" x="448" y="-57" font-family="Helvetica,sans-Serif" font-size="10.00">TDSP_initialize</text>
</a>
</g>
</g>
<!-- Node10&#45;&gt;Node14 -->
<g id="edge15" class="edge">
<title>Node10&#45;&gt;Node14</title>
<path fill="none" stroke="midnightblue" d="M531.81,-57.91C518.4,-58.17 504.8,-58.43 492.61,-58.66"/>
<polygon fill="midnightblue" stroke="midnightblue" points="532.07,-61.4 542,-57.71 531.93,-54.4 532.07,-61.4"/>
</g>
<!-- Node12 -->
<g id="node12" class="node">
<title>Node12</title>
<g id="a_node12"><a xlink:href="c2a__core__main_8h.html#a64e3c69d223ce8236ab718278b17b195" target="_top" xlink:title=" ">
<polygon fill="white" stroke="black" points="262,-7 262,-26 354,-26 354,-7 262,-7"/>
<text text-anchor="middle" x="308" y="-14" font-family="Helvetica,sans-Serif" font-size="10.00">C2A_core_main</text>
</a>
</g>
</g>
<!-- Node11&#45;&gt;Node12 -->
<g id="edge12" class="edge">
<title>Node11&#45;&gt;Node12</title>
<path fill="none" stroke="midnightblue" d="M379.6,-15.99C370.97,-16.05 362.31,-16.11 354.16,-16.17"/>
<polygon fill="midnightblue" stroke="midnightblue" points="379.7,-19.49 389.67,-15.92 379.65,-12.49 379.7,-19.49"/>
</g>
<!-- Node13 -->
<g id="node13" class="node">
<title>Node13</title>
<g id="a_node13"><a xlink:href="c2a__main_8c.html#a06acf8a326dfbc653a6b7094d98099b9" target="_top" xlink:title=" ">
<polygon fill="white" stroke="black" points="155,-10 155,-29 226,-29 226,-10 155,-10"/>
<text text-anchor="middle" x="190.5" y="-17" font-family="Helvetica,sans-Serif" font-size="10.00">C2A_main_</text>
</a>
</g>
</g>
<!-- Node12&#45;&gt;Node13 -->
<g id="edge13" class="edge">
<title>Node12&#45;&gt;Node13</title>
<path fill="none" stroke="midnightblue" d="M251.64,-17.94C243.02,-18.16 234.32,-18.39 226.33,-18.6"/>
<polygon fill="midnightblue" stroke="midnightblue" points="251.78,-21.44 261.68,-17.68 251.6,-14.44 251.78,-21.44"/>
</g>
<!-- Node13&#45;&gt;Node8 -->
<g id="edge14" class="edge">
<title>Node13&#45;&gt;Node8</title>
<path fill="none" stroke="midnightblue" d="M145.02,-26.05C136.65,-27.28 127.79,-28.59 119.07,-29.87"/>
<polygon fill="midnightblue" stroke="midnightblue" points="145.55,-29.51 154.93,-24.59 144.53,-22.59 145.55,-29.51"/>
</g>
<!-- Node14&#45;&gt;Node6 -->
<g id="edge16" class="edge">
<title>Node14&#45;&gt;Node6</title>
<path fill="none" stroke="midnightblue" d="M393.01,-59.5C378.55,-59.5 363.16,-59.5 349.57,-59.5"/>
<polygon fill="midnightblue" stroke="midnightblue" points="393.34,-63 403.34,-59.5 393.34,-56 393.34,-63"/>
</g>
</g>
</svg>
