<?xml version="1.0" encoding="UTF-8" standalone="no"?>
<!DOCTYPE svg PUBLIC "-//W3C//DTD SVG 1.1//EN"
 "http://www.w3.org/Graphics/SVG/1.1/DTD/svg11.dtd">
<!-- Generated by graphviz version 2.43.0 (0)
 -->
<!-- Title: PH_add_st_tlm_ Pages: 1 -->
<svg width="654pt" height="66pt"
 viewBox="0.00 0.00 654.00 66.00" xmlns="http://www.w3.org/2000/svg" xmlns:xlink="http://www.w3.org/1999/xlink">
<g id="graph0" class="graph" transform="scale(1 1) rotate(0) translate(4 62)">
<title>PH_add_st_tlm_</title>
<polygon fill="white" stroke="transparent" points="-4,4 -4,-62 650,-62 650,4 -4,4"/>
<!-- Node1 -->
<g id="node1" class="node">
<title>Node1</title>
<g id="a_node1"><a xlink:title=" ">
<polygon fill="#bfbfbf" stroke="black" points="0,-19.5 0,-38.5 95,-38.5 95,-19.5 0,-19.5"/>
<text text-anchor="middle" x="47.5" y="-26.5" font-family="Helvetica,sans-Serif" font-size="10.00">PH_add_st_tlm_</text>
</a>
</g>
</g>
<!-- Node2 -->
<g id="node2" class="node">
<title>Node2</title>
<g id="a_node2"><a xlink:href="packet__list_8c.html#a3f61ade454579898c70f5b8b2f934c02" target="_top" xlink:title="PacketList の末尾に packet を挿入">
<polygon fill="white" stroke="black" points="131,-19.5 131,-38.5 216,-38.5 216,-19.5 131,-19.5"/>
<text text-anchor="middle" x="173.5" y="-26.5" font-family="Helvetica,sans-Serif" font-size="10.00">PL_push_back</text>
</a>
</g>
</g>
<!-- Node1&#45;&gt;Node2 -->
<g id="edge1" class="edge">
<title>Node1&#45;&gt;Node2</title>
<path fill="none" stroke="midnightblue" d="M95.03,-29C103.33,-29 112.03,-29 120.48,-29"/>
<polygon fill="midnightblue" stroke="midnightblue" points="120.62,-32.5 130.62,-29 120.62,-25.5 120.62,-32.5"/>
</g>
<!-- Node3 -->
<g id="node3" class="node">
<title>Node3</title>
<g id="a_node3"><a xlink:href="common__tlm__cmd__packet_8h.html#ac5218049cba25920b35f5a89d0c0071a" target="_top" xlink:title="CTCP をコピー">
<polygon fill="white" stroke="black" points="252.5,-38.5 252.5,-57.5 359.5,-57.5 359.5,-38.5 252.5,-38.5"/>
<text text-anchor="middle" x="306" y="-45.5" font-family="Helvetica,sans-Serif" font-size="10.00">CTCP_copy_packet</text>
</a>
</g>
</g>
<!-- Node2&#45;&gt;Node3 -->
<g id="edge2" class="edge">
<title>Node2&#45;&gt;Node3</title>
<path fill="none" stroke="midnightblue" d="M216.15,-35.06C224.5,-36.28 233.44,-37.58 242.32,-38.87"/>
<polygon fill="midnightblue" stroke="midnightblue" points="241.88,-42.35 252.28,-40.32 242.89,-35.42 241.88,-42.35"/>
</g>
<!-- Node6 -->
<g id="node6" class="node">
<title>Node6</title>
<g id="a_node6"><a xlink:href="packet__list_8c.html#ac5126c65c48ec09b499008986571eb24" target="_top" xlink:title="未使用ノードを新規に取得">
<polygon fill="white" stroke="black" points="252,-0.5 252,-19.5 360,-19.5 360,-0.5 252,-0.5"/>
<text text-anchor="middle" x="306" y="-7.5" font-family="Helvetica,sans-Serif" font-size="10.00">PL_get_free_node_</text>
</a>
</g>
</g>
<!-- Node2&#45;&gt;Node6 -->
<g id="edge5" class="edge">
<title>Node2&#45;&gt;Node6</title>
<path fill="none" stroke="midnightblue" d="M216.15,-22.94C224.3,-21.75 233.02,-20.48 241.69,-19.22"/>
<polygon fill="midnightblue" stroke="midnightblue" points="242.42,-22.65 251.81,-17.74 241.41,-15.72 242.42,-22.65"/>
</g>
<!-- Node4 -->
<g id="node4" class="node">
<title>Node4</title>
<g id="a_node4"><a xlink:href="_t_c_packet_8c.html#a39fd78f1a46199c3eee2c6fb4e249ab9" target="_top" xlink:title="TCP をコピー">
<polygon fill="white" stroke="black" points="396,-38.5 396,-57.5 497,-57.5 497,-38.5 396,-38.5"/>
<text text-anchor="middle" x="446.5" y="-45.5" font-family="Helvetica,sans-Serif" font-size="10.00">TCP_copy_packet</text>
</a>
</g>
</g>
<!-- Node3&#45;&gt;Node4 -->
<g id="edge3" class="edge">
<title>Node3&#45;&gt;Node4</title>
<path fill="none" stroke="midnightblue" d="M359.76,-48C368.13,-48 376.84,-48 385.36,-48"/>
<polygon fill="midnightblue" stroke="midnightblue" points="385.63,-51.5 395.63,-48 385.63,-44.5 385.63,-51.5"/>
</g>
<!-- Node5 -->
<g id="node5" class="node">
<title>Node5</title>
<g id="a_node5"><a xlink:href="_t_c_packet_8c.html#a4088b7a1b29268cecc23866a45238fd6" target="_top" xlink:title="Packet Length を取得">
<polygon fill="white" stroke="black" points="533,-38.5 533,-57.5 646,-57.5 646,-38.5 533,-38.5"/>
<text text-anchor="middle" x="589.5" y="-45.5" font-family="Helvetica,sans-Serif" font-size="10.00">TCP_get_packet_len</text>
</a>
</g>
</g>
<!-- Node4&#45;&gt;Node5 -->
<g id="edge4" class="edge">
<title>Node4&#45;&gt;Node5</title>
<path fill="none" stroke="midnightblue" d="M497.21,-48C505.53,-48 514.28,-48 522.92,-48"/>
<polygon fill="midnightblue" stroke="midnightblue" points="522.99,-51.5 532.99,-48 522.99,-44.5 522.99,-51.5"/>
</g>
</g>
</svg>
