<?xml version="1.0" encoding="UTF-8" standalone="no"?>
<!DOCTYPE svg PUBLIC "-//W3C//DTD SVG 1.1//EN"
 "http://www.w3.org/Graphics/SVG/1.1/DTD/svg11.dtd">
<!-- Generated by graphviz version 2.43.0 (0)
 -->
<!-- Title: src/src_core/TlmCmd/packet_list.c Pages: 1 -->
<svg width="1141pt" height="575pt"
 viewBox="0.00 0.00 1141.00 575.00" xmlns="http://www.w3.org/2000/svg" xmlns:xlink="http://www.w3.org/1999/xlink">
<g id="graph0" class="graph" transform="scale(1 1) rotate(0) translate(4 571)">
<title>src/src_core/TlmCmd/packet_list.c</title>
<polygon fill="white" stroke="transparent" points="-4,4 -4,-571 1137,-571 1137,4 -4,4"/>
<!-- Node1 -->
<g id="node1" class="node">
<title>Node1</title>
<g id="a_node1"><a xlink:title="CTCP, CTP, CCP のリストとしてのデータ構造を定義. 片方向リストとして実装されている">
<polygon fill="#bfbfbf" stroke="black" points="500.5,-536.5 500.5,-566.5 619.5,-566.5 619.5,-536.5 500.5,-536.5"/>
<text text-anchor="start" x="508.5" y="-554.5" font-family="Helvetica,sans-Serif" font-size="10.00">src/src_core/TlmCmd</text>
<text text-anchor="middle" x="560" y="-543.5" font-family="Helvetica,sans-Serif" font-size="10.00">/packet_list.c</text>
</a>
</g>
</g>
<!-- Node2 -->
<g id="node2" class="node">
<title>Node2</title>
<g id="a_node2"><a xlink:href="packet__list_8h.html" target="_top" xlink:title="CTCP, CTP, CCP のリストとしてのデータ構造を定義. 片方向リストとして実装されている">
<polygon fill="white" stroke="black" points="340,-480.5 340,-499.5 418,-499.5 418,-480.5 340,-480.5"/>
<text text-anchor="middle" x="379" y="-487.5" font-family="Helvetica,sans-Serif" font-size="10.00">packet_list.h</text>
</a>
</g>
</g>
<!-- Node1&#45;&gt;Node2 -->
<g id="edge1" class="edge">
<title>Node1&#45;&gt;Node2</title>
<path fill="none" stroke="midnightblue" d="M517.11,-536.4C485.97,-526.16 444.31,-512.47 414.92,-502.81"/>
<polygon fill="midnightblue" stroke="midnightblue" points="415.67,-499.37 405.07,-499.57 413.48,-506.02 415.67,-499.37"/>
</g>
<!-- Node7 -->
<g id="node7" class="node">
<title>Node7</title>
<g id="a_node7"><a xlink:href="stdint_8h.html" target="_top" xlink:title=" ">
<polygon fill="white" stroke="black" points="930,-62 930,-81 1064,-81 1064,-62 930,-62"/>
<text text-anchor="middle" x="997" y="-69" font-family="Helvetica,sans-Serif" font-size="10.00">src_user/Library/stdint.h</text>
</a>
</g>
</g>
<!-- Node1&#45;&gt;Node7 -->
<g id="edge38" class="edge">
<title>Node1&#45;&gt;Node7</title>
<path fill="none" stroke="midnightblue" d="M619.7,-550.41C766.46,-548.58 1133,-533.59 1133,-429.5 1133,-429.5 1133,-429.5 1133,-210 1133,-167.25 1121.49,-153.94 1092,-123 1075.58,-105.76 1051.95,-93.17 1032.38,-84.87"/>
<polygon fill="midnightblue" stroke="midnightblue" points="1033.44,-81.53 1022.85,-81.03 1030.82,-88.02 1033.44,-81.53"/>
</g>
<!-- Node19 -->
<g id="node19" class="node">
<title>Node19</title>
<g id="a_node19"><a xlink:href="block__command__table_8h.html" target="_top" xlink:title="BCTの定義, BCT周りの関数">
<polygon fill="white" stroke="black" points="396,-419 396,-438 532,-438 532,-419 396,-419"/>
<text text-anchor="middle" x="464" y="-426" font-family="Helvetica,sans-Serif" font-size="10.00">block_command_table.h</text>
</a>
</g>
</g>
<!-- Node1&#45;&gt;Node19 -->
<g id="edge37" class="edge">
<title>Node1&#45;&gt;Node19</title>
<path fill="none" stroke="midnightblue" d="M521.11,-536.3C504.34,-528.2 486.06,-516.35 475,-500 464.71,-484.79 462.65,-463.56 462.74,-448.38"/>
<polygon fill="midnightblue" stroke="midnightblue" points="466.24,-448.27 463.12,-438.15 459.25,-448.01 466.24,-448.27"/>
</g>
<!-- Node21 -->
<g id="node21" class="node">
<title>Node21</title>
<g id="a_node21"><a xlink:href="time__manager_8h.html" target="_top" xlink:title="OBCの時刻情報を TimeManager 構造体に保持しカウントアップする. その他, 時刻演算に必要な関数も実装する">
<polygon fill="white" stroke="black" points="597.5,-413.5 597.5,-443.5 730.5,-443.5 730.5,-413.5 597.5,-413.5"/>
<text text-anchor="start" x="605.5" y="-431.5" font-family="Helvetica,sans-Serif" font-size="10.00">../System/TimeManager</text>
<text text-anchor="middle" x="664" y="-420.5" font-family="Helvetica,sans-Serif" font-size="10.00">/time_manager.h</text>
</a>
</g>
</g>
<!-- Node1&#45;&gt;Node21 -->
<g id="edge31" class="edge">
<title>Node1&#45;&gt;Node21</title>
<path fill="none" stroke="midnightblue" d="M596.8,-536.36C613.74,-528.13 632.76,-516.14 645,-500 655.07,-486.72 659.81,-468.48 662.04,-453.89"/>
<polygon fill="midnightblue" stroke="midnightblue" points="665.56,-453.93 663.3,-443.57 658.61,-453.08 665.56,-453.93"/>
</g>
<!-- Node22 -->
<g id="node22" class="node">
<title>Node22</title>
<g id="a_node22"><a xlink:href="block__command__executor_8h.html" target="_top" xlink:title="BCTの実行周りの関数, パラメーター">
<polygon fill="white" stroke="black" points="484,-480.5 484,-499.5 636,-499.5 636,-480.5 484,-480.5"/>
<text text-anchor="middle" x="560" y="-487.5" font-family="Helvetica,sans-Serif" font-size="10.00">block_command_executor.h</text>
</a>
</g>
</g>
<!-- Node1&#45;&gt;Node22 -->
<g id="edge34" class="edge">
<title>Node1&#45;&gt;Node22</title>
<path fill="none" stroke="midnightblue" d="M560,-536.4C560,-528.47 560,-518.46 560,-509.86"/>
<polygon fill="midnightblue" stroke="midnightblue" points="563.5,-509.66 560,-499.66 556.5,-509.66 563.5,-509.66"/>
</g>
<!-- Node3 -->
<g id="node3" class="node">
<title>Node3</title>
<g id="a_node3"><a xlink:title=" ">
<polygon fill="white" stroke="#bfbfbf" points="2,-62 2,-81 58,-81 58,-62 2,-62"/>
<text text-anchor="middle" x="30" y="-69" font-family="Helvetica,sans-Serif" font-size="10.00">stddef.h</text>
</a>
</g>
</g>
<!-- Node2&#45;&gt;Node3 -->
<g id="edge2" class="edge">
<title>Node2&#45;&gt;Node3</title>
<path fill="none" stroke="midnightblue" d="M339.87,-484.4C243.03,-471.95 0,-433.6 0,-362.5 0,-362.5 0,-362.5 0,-210 0,-166.39 14.59,-116.74 23.42,-90.68"/>
<polygon fill="midnightblue" stroke="midnightblue" points="26.79,-91.64 26.79,-81.05 20.18,-89.33 26.79,-91.64"/>
</g>
<!-- Node4 -->
<g id="node4" class="node">
<title>Node4</title>
<g id="a_node4"><a xlink:href="common__tlm__cmd__packet_8h.html" target="_top" xlink:title="CTCP 関連基本関数の宣言">
<polygon fill="white" stroke="black" points="387,-352 387,-371 541,-371 541,-352 387,-352"/>
<text text-anchor="middle" x="464" y="-359" font-family="Helvetica,sans-Serif" font-size="10.00">common_tlm_cmd_packet.h</text>
</a>
</g>
</g>
<!-- Node2&#45;&gt;Node4 -->
<g id="edge3" class="edge">
<title>Node2&#45;&gt;Node4</title>
<path fill="none" stroke="midnightblue" d="M377.64,-480.27C375.79,-465.3 374.01,-434.3 387,-413 397.3,-396.11 415.63,-383.75 431.82,-375.49"/>
<polygon fill="midnightblue" stroke="midnightblue" points="433.51,-378.56 441.03,-371.09 430.49,-372.24 433.51,-378.56"/>
</g>
<!-- Node2&#45;&gt;Node19 -->
<g id="edge27" class="edge">
<title>Node2&#45;&gt;Node19</title>
<path fill="none" stroke="midnightblue" d="M391.18,-480.48C404.81,-470.93 427.13,-455.31 443.47,-443.87"/>
<polygon fill="midnightblue" stroke="midnightblue" points="445.66,-446.61 451.84,-438.01 441.64,-440.88 445.66,-446.61"/>
</g>
<!-- Node5 -->
<g id="node5" class="node">
<title>Node5</title>
<g id="a_node5"><a xlink:href="common__tlm__cmd__packet__define_8h.html" target="_top" xlink:title="CTCP 型の定義">
<polygon fill="white" stroke="black" points="104,-190.5 104,-231.5 252,-231.5 252,-190.5 104,-190.5"/>
<text text-anchor="start" x="112" y="-219.5" font-family="Helvetica,sans-Serif" font-size="10.00">src_user/Settings/TlmCmd</text>
<text text-anchor="start" x="112" y="-208.5" font-family="Helvetica,sans-Serif" font-size="10.00">/common_tlm_cmd_packet</text>
<text text-anchor="middle" x="178" y="-197.5" font-family="Helvetica,sans-Serif" font-size="10.00">_define.h</text>
</a>
</g>
</g>
<!-- Node4&#45;&gt;Node5 -->
<g id="edge4" class="edge">
<title>Node4&#45;&gt;Node5</title>
<path fill="none" stroke="midnightblue" d="M413.22,-351.95C348.6,-340.71 243.56,-321.1 229,-310 206.78,-293.06 193.33,-263.66 185.87,-241.47"/>
<polygon fill="midnightblue" stroke="midnightblue" points="189.18,-240.35 182.85,-231.85 182.51,-242.44 189.18,-240.35"/>
</g>
<!-- Node10 -->
<g id="node10" class="node">
<title>Node10</title>
<g id="a_node10"><a xlink:href="apid__define_8h.html" target="_top" xlink:title="CCSDS の APID を定義する">
<polygon fill="white" stroke="black" points="106,-56.5 106,-86.5 250,-86.5 250,-56.5 106,-56.5"/>
<text text-anchor="start" x="114" y="-74.5" font-family="Helvetica,sans-Serif" font-size="10.00">src_user/Settings/TlmCmd</text>
<text text-anchor="middle" x="178" y="-63.5" font-family="Helvetica,sans-Serif" font-size="10.00">/Ccsds/apid_define.h</text>
</a>
</g>
</g>
<!-- Node4&#45;&gt;Node10 -->
<g id="edge26" class="edge">
<title>Node4&#45;&gt;Node10</title>
<path fill="none" stroke="midnightblue" d="M415.56,-351.98C340.65,-338.72 204.18,-314.24 194,-310 137.66,-286.54 109.36,-286.04 81,-232 58.21,-188.59 69.19,-162.67 98,-123 107.5,-109.92 121.52,-99.43 135.19,-91.47"/>
<polygon fill="midnightblue" stroke="midnightblue" points="136.97,-94.49 144.06,-86.61 133.61,-88.35 136.97,-94.49"/>
</g>
<!-- Node11 -->
<g id="node11" class="node">
<title>Node11</title>
<g id="a_node11"><a xlink:href="common__tlm__cmd__packet__params_8h.html" target="_top" xlink:title="CTCP パラメタのオーバーライド用ヘッダー">
<polygon fill="white" stroke="black" points="390,-268.5 390,-309.5 538,-309.5 538,-268.5 390,-268.5"/>
<text text-anchor="start" x="398" y="-297.5" font-family="Helvetica,sans-Serif" font-size="10.00">src_user/Settings/TlmCmd</text>
<text text-anchor="start" x="398" y="-286.5" font-family="Helvetica,sans-Serif" font-size="10.00">/common_tlm_cmd_packet</text>
<text text-anchor="middle" x="464" y="-275.5" font-family="Helvetica,sans-Serif" font-size="10.00">_params.h</text>
</a>
</g>
</g>
<!-- Node4&#45;&gt;Node11 -->
<g id="edge12" class="edge">
<title>Node4&#45;&gt;Node11</title>
<path fill="none" stroke="midnightblue" d="M464,-351.86C464,-343.86 464,-331.5 464,-319.92"/>
<polygon fill="midnightblue" stroke="midnightblue" points="467.5,-319.66 464,-309.66 460.5,-319.66 467.5,-319.66"/>
</g>
<!-- Node12 -->
<g id="node12" class="node">
<title>Node12</title>
<g id="a_node12"><a xlink:href="common__tlm__packet_8h.html" target="_top" xlink:title="CTP 関連基本関数の宣言">
<polygon fill="white" stroke="black" points="238,-279.5 238,-298.5 372,-298.5 372,-279.5 238,-279.5"/>
<text text-anchor="middle" x="305" y="-286.5" font-family="Helvetica,sans-Serif" font-size="10.00">./common_tlm_packet.h</text>
</a>
</g>
</g>
<!-- Node4&#45;&gt;Node12 -->
<g id="edge14" class="edge">
<title>Node4&#45;&gt;Node12</title>
<path fill="none" stroke="midnightblue" d="M444.82,-352C417.13,-339.72 365.74,-316.93 333.57,-302.67"/>
<polygon fill="midnightblue" stroke="midnightblue" points="334.81,-299.39 324.25,-298.53 331.97,-305.79 334.81,-299.39"/>
</g>
<!-- Node14 -->
<g id="node14" class="node">
<title>Node14</title>
<g id="a_node14"><a xlink:href="common__cmd__packet_8h.html" target="_top" xlink:title="CCP 関連基本関数の宣言">
<polygon fill="white" stroke="black" points="556,-279.5 556,-298.5 694,-298.5 694,-279.5 556,-279.5"/>
<text text-anchor="middle" x="625" y="-286.5" font-family="Helvetica,sans-Serif" font-size="10.00">./common_cmd_packet.h</text>
</a>
</g>
</g>
<!-- Node4&#45;&gt;Node14 -->
<g id="edge18" class="edge">
<title>Node4&#45;&gt;Node14</title>
<path fill="none" stroke="midnightblue" d="M483.42,-352C511.46,-339.72 563.5,-316.93 596.07,-302.67"/>
<polygon fill="midnightblue" stroke="midnightblue" points="597.75,-305.75 605.51,-298.53 594.95,-299.34 597.75,-305.75"/>
</g>
<!-- Node6 -->
<g id="node6" class="node">
<title>Node6</title>
<g id="a_node6"><a xlink:href="_t_c_packet_8h.html" target="_top" xlink:title=" ">
<polygon fill="white" stroke="black" points="286.5,-123.5 286.5,-153.5 419.5,-153.5 419.5,-123.5 286.5,-123.5"/>
<text text-anchor="start" x="294.5" y="-141.5" font-family="Helvetica,sans-Serif" font-size="10.00">src_core/TlmCmd/Ccsds</text>
<text text-anchor="middle" x="353" y="-130.5" font-family="Helvetica,sans-Serif" font-size="10.00">/TCPacket.h</text>
</a>
</g>
</g>
<!-- Node5&#45;&gt;Node6 -->
<g id="edge5" class="edge">
<title>Node5&#45;&gt;Node6</title>
<path fill="none" stroke="midnightblue" d="M226.75,-190.36C252.37,-180.04 283.55,-167.48 308.52,-157.42"/>
<polygon fill="midnightblue" stroke="midnightblue" points="310.13,-160.54 318.1,-153.56 307.52,-154.05 310.13,-160.54"/>
</g>
<!-- Node5&#45;&gt;Node10 -->
<g id="edge11" class="edge">
<title>Node5&#45;&gt;Node10</title>
<path fill="none" stroke="midnightblue" d="M178,-190.3C178,-165.63 178,-123.38 178,-96.75"/>
<polygon fill="midnightblue" stroke="midnightblue" points="181.5,-96.72 178,-86.72 174.5,-96.72 181.5,-96.72"/>
</g>
<!-- Node6&#45;&gt;Node3 -->
<g id="edge6" class="edge">
<title>Node6&#45;&gt;Node3</title>
<path fill="none" stroke="midnightblue" d="M286.36,-124.7C234.66,-114.69 161.21,-100.28 97,-87 87.59,-85.05 77.44,-82.89 67.96,-80.84"/>
<polygon fill="midnightblue" stroke="midnightblue" points="68.53,-77.38 58.01,-78.68 67.04,-84.22 68.53,-77.38"/>
</g>
<!-- Node6&#45;&gt;Node7 -->
<g id="edge7" class="edge">
<title>Node6&#45;&gt;Node7</title>
<path fill="none" stroke="midnightblue" d="M419.79,-130.76C540.09,-118.62 792.48,-93.14 919.91,-80.28"/>
<polygon fill="midnightblue" stroke="midnightblue" points="920.38,-83.75 929.98,-79.26 919.68,-76.79 920.38,-83.75"/>
</g>
<!-- Node9 -->
<g id="node9" class="node">
<title>Node9</title>
<g id="a_node9"><a xlink:href="tcpacket__params_8h.html" target="_top" xlink:title="TCP のユーザー設定">
<polygon fill="white" stroke="black" points="281,-56.5 281,-86.5 425,-86.5 425,-56.5 281,-56.5"/>
<text text-anchor="start" x="289" y="-74.5" font-family="Helvetica,sans-Serif" font-size="10.00">src_user/Settings/TlmCmd</text>
<text text-anchor="middle" x="353" y="-63.5" font-family="Helvetica,sans-Serif" font-size="10.00">/Ccsds/tcpacket_params.h</text>
</a>
</g>
</g>
<!-- Node6&#45;&gt;Node9 -->
<g id="edge9" class="edge">
<title>Node6&#45;&gt;Node9</title>
<path fill="none" stroke="midnightblue" d="M353,-123.4C353,-115.64 353,-105.81 353,-96.86"/>
<polygon fill="midnightblue" stroke="midnightblue" points="356.5,-96.58 353,-86.58 349.5,-96.58 356.5,-96.58"/>
</g>
<!-- Node6&#45;&gt;Node10 -->
<g id="edge10" class="edge">
<title>Node6&#45;&gt;Node10</title>
<path fill="none" stroke="midnightblue" d="M315.03,-123.4C288.77,-113.64 253.64,-100.59 225.52,-90.15"/>
<polygon fill="midnightblue" stroke="midnightblue" points="226.49,-86.78 215.9,-86.58 224.05,-93.34 226.49,-86.78"/>
</g>
<!-- Node8 -->
<g id="node8" class="node">
<title>Node8</title>
<g id="a_node8"><a xlink:href="sils__define_8h.html" target="_top" xlink:title="Switch the build settings between your real OBC and SILS">
<polygon fill="white" stroke="black" points="932.5,-0.5 932.5,-19.5 1061.5,-19.5 1061.5,-0.5 932.5,-0.5"/>
<text text-anchor="middle" x="997" y="-7.5" font-family="Helvetica,sans-Serif" font-size="10.00">../Settings/sils_define.h</text>
</a>
</g>
</g>
<!-- Node7&#45;&gt;Node8 -->
<g id="edge8" class="edge">
<title>Node7&#45;&gt;Node8</title>
<path fill="none" stroke="midnightblue" d="M997,-61.98C997,-53.58 997,-40.48 997,-29.66"/>
<polygon fill="midnightblue" stroke="midnightblue" points="1000.5,-29.51 997,-19.51 993.5,-29.51 1000.5,-29.51"/>
</g>
<!-- Node11&#45;&gt;Node6 -->
<g id="edge13" class="edge">
<title>Node11&#45;&gt;Node6</title>
<path fill="none" stroke="midnightblue" d="M464.89,-268.41C464.87,-247.14 461.85,-213.1 445,-190 434.95,-176.22 419.96,-165.77 404.98,-158.05"/>
<polygon fill="midnightblue" stroke="midnightblue" points="406.22,-154.77 395.69,-153.6 403.19,-161.08 406.22,-154.77"/>
</g>
<!-- Node12&#45;&gt;Node10 -->
<g id="edge17" class="edge">
<title>Node12&#45;&gt;Node10</title>
<path fill="none" stroke="midnightblue" d="M240.52,-279.47C185.57,-270.73 112.76,-255.11 95,-232 60.35,-186.89 117.08,-125.19 152.66,-93.37"/>
<polygon fill="midnightblue" stroke="midnightblue" points="155.08,-95.9 160.32,-86.68 150.48,-90.62 155.08,-95.9"/>
</g>
<!-- Node13 -->
<g id="node13" class="node">
<title>Node13</title>
<g id="a_node13"><a xlink:href="common__tlm__packet__define_8h.html" target="_top" xlink:title="CTP 型の定義">
<polygon fill="white" stroke="black" points="270,-196 270,-226 436,-226 436,-196 270,-196"/>
<text text-anchor="start" x="278" y="-214" font-family="Helvetica,sans-Serif" font-size="10.00">src_user/Settings/TlmCmd</text>
<text text-anchor="middle" x="353" y="-203" font-family="Helvetica,sans-Serif" font-size="10.00">/common_tlm_packet_define.h</text>
</a>
</g>
</g>
<!-- Node12&#45;&gt;Node13 -->
<g id="edge15" class="edge">
<title>Node12&#45;&gt;Node13</title>
<path fill="none" stroke="midnightblue" d="M310.51,-279.28C317.32,-268.5 329.17,-249.73 338.63,-234.75"/>
<polygon fill="midnightblue" stroke="midnightblue" points="341.76,-236.34 344.15,-226.02 335.85,-232.61 341.76,-236.34"/>
</g>
<!-- Node13&#45;&gt;Node6 -->
<g id="edge16" class="edge">
<title>Node13&#45;&gt;Node6</title>
<path fill="none" stroke="midnightblue" d="M353,-195.73C353,-186.66 353,-174.66 353,-164.08"/>
<polygon fill="midnightblue" stroke="midnightblue" points="356.5,-163.75 353,-153.75 349.5,-163.75 356.5,-163.75"/>
</g>
<!-- Node14&#45;&gt;Node10 -->
<g id="edge25" class="edge">
<title>Node14&#45;&gt;Node10</title>
<path fill="none" stroke="midnightblue" d="M604.3,-279.47C582.48,-269.88 547.77,-252.89 522,-232 472.53,-191.9 483.9,-155.28 429,-123 414.38,-114.4 327.93,-98.1 260.53,-86.34"/>
<polygon fill="midnightblue" stroke="midnightblue" points="260.76,-82.83 250.31,-84.57 259.56,-89.72 260.76,-82.83"/>
</g>
<!-- Node15 -->
<g id="node15" class="node">
<title>Node15</title>
<g id="a_node15"><a xlink:href="obc__time_8h.html" target="_top" xlink:title="OBCの時刻情報の定義と演算">
<polygon fill="white" stroke="black" points="929.5,-196 929.5,-226 1062.5,-226 1062.5,-196 929.5,-196"/>
<text text-anchor="start" x="937.5" y="-214" font-family="Helvetica,sans-Serif" font-size="10.00">../System/TimeManager</text>
<text text-anchor="middle" x="996" y="-203" font-family="Helvetica,sans-Serif" font-size="10.00">/obc_time.h</text>
</a>
</g>
</g>
<!-- Node14&#45;&gt;Node15 -->
<g id="edge19" class="edge">
<title>Node14&#45;&gt;Node15</title>
<path fill="none" stroke="midnightblue" d="M666.84,-279.43C727.96,-266.91 842.69,-243.41 919.23,-227.73"/>
<polygon fill="midnightblue" stroke="midnightblue" points="920.21,-231.1 929.31,-225.66 918.81,-224.24 920.21,-231.1"/>
</g>
<!-- Node17 -->
<g id="node17" class="node">
<title>Node17</title>
<g id="a_node17"><a xlink:href="command__definitions_8h.html" target="_top" xlink:title="コマンド定義">
<polygon fill="white" stroke="black" points="530.5,-196 530.5,-226 683.5,-226 683.5,-196 530.5,-196"/>
<text text-anchor="start" x="538.5" y="-214" font-family="Helvetica,sans-Serif" font-size="10.00">src_user/TlmCmd/command</text>
<text text-anchor="middle" x="607" y="-203" font-family="Helvetica,sans-Serif" font-size="10.00">_definitions.h</text>
</a>
</g>
</g>
<!-- Node14&#45;&gt;Node17 -->
<g id="edge22" class="edge">
<title>Node14&#45;&gt;Node17</title>
<path fill="none" stroke="midnightblue" d="M622.94,-279.28C620.45,-268.8 616.19,-250.79 612.69,-236.03"/>
<polygon fill="midnightblue" stroke="midnightblue" points="616.03,-234.94 610.32,-226.02 609.22,-236.56 616.03,-234.94"/>
</g>
<!-- Node18 -->
<g id="node18" class="node">
<title>Node18</title>
<g id="a_node18"><a xlink:href="common__cmd__packet__define_8h.html" target="_top" xlink:title="CCP 型の定義">
<polygon fill="white" stroke="black" points="702,-196 702,-226 872,-226 872,-196 702,-196"/>
<text text-anchor="start" x="710" y="-214" font-family="Helvetica,sans-Serif" font-size="10.00">src_user/Settings/TlmCmd</text>
<text text-anchor="middle" x="787" y="-203" font-family="Helvetica,sans-Serif" font-size="10.00">/common_cmd_packet_define.h</text>
</a>
</g>
</g>
<!-- Node14&#45;&gt;Node18 -->
<g id="edge23" class="edge">
<title>Node14&#45;&gt;Node18</title>
<path fill="none" stroke="midnightblue" d="M643.27,-279.43C668.42,-267.63 714.38,-246.07 747.56,-230.5"/>
<polygon fill="midnightblue" stroke="midnightblue" points="749.42,-233.5 756.98,-226.08 746.44,-227.16 749.42,-233.5"/>
</g>
<!-- Node15&#45;&gt;Node7 -->
<g id="edge20" class="edge">
<title>Node15&#45;&gt;Node7</title>
<path fill="none" stroke="midnightblue" d="M1029.72,-195.78C1046.91,-186.59 1066.21,-172.8 1076,-154 1082.36,-141.78 1082.62,-135.08 1076,-123 1066.52,-105.69 1048.31,-93.46 1031.76,-85.36"/>
<polygon fill="midnightblue" stroke="midnightblue" points="1032.84,-82.01 1022.28,-81.07 1029.95,-88.39 1032.84,-82.01"/>
</g>
<!-- Node16 -->
<g id="node16" class="node">
<title>Node16</title>
<g id="a_node16"><a xlink:href="obc__time__params_8h.html" target="_top" xlink:title="OBCTのCoreパラメタのオーバーライド用ヘッダー">
<polygon fill="white" stroke="black" points="927,-123.5 927,-153.5 1067,-153.5 1067,-123.5 927,-123.5"/>
<text text-anchor="start" x="935" y="-141.5" font-family="Helvetica,sans-Serif" font-size="10.00">src_user/Settings/System</text>
<text text-anchor="middle" x="997" y="-130.5" font-family="Helvetica,sans-Serif" font-size="10.00">/obc_time_params.h</text>
</a>
</g>
</g>
<!-- Node15&#45;&gt;Node16 -->
<g id="edge21" class="edge">
<title>Node15&#45;&gt;Node16</title>
<path fill="none" stroke="midnightblue" d="M996.2,-195.73C996.33,-186.66 996.5,-174.66 996.65,-164.08"/>
<polygon fill="midnightblue" stroke="midnightblue" points="1000.16,-163.79 996.8,-153.75 993.16,-163.69 1000.16,-163.79"/>
</g>
<!-- Node18&#45;&gt;Node6 -->
<g id="edge24" class="edge">
<title>Node18&#45;&gt;Node6</title>
<path fill="none" stroke="midnightblue" d="M723.65,-195.96C713.42,-193.86 702.93,-191.79 693,-190 602.88,-173.74 498.64,-158.83 429.58,-149.49"/>
<polygon fill="midnightblue" stroke="midnightblue" points="430.03,-146.02 419.65,-148.15 429.1,-152.96 430.03,-146.02"/>
</g>
<!-- Node19&#45;&gt;Node4 -->
<g id="edge30" class="edge">
<title>Node19&#45;&gt;Node4</title>
<path fill="none" stroke="midnightblue" d="M464,-418.73C464,-409.18 464,-393.62 464,-381.28"/>
<polygon fill="midnightblue" stroke="midnightblue" points="467.5,-381.13 464,-371.13 460.5,-381.13 467.5,-381.13"/>
</g>
<!-- Node19&#45;&gt;Node7 -->
<g id="edge28" class="edge">
<title>Node19&#45;&gt;Node7</title>
<path fill="none" stroke="midnightblue" d="M507.33,-419C591.43,-400.27 777.58,-347.61 881,-232 915.11,-193.87 886.45,-163.27 918,-123 930.76,-106.72 950.31,-94.16 966.77,-85.64"/>
<polygon fill="midnightblue" stroke="midnightblue" points="968.6,-88.64 976.03,-81.09 965.52,-82.36 968.6,-88.64"/>
</g>
<!-- Node20 -->
<g id="node20" class="node">
<title>Node20</title>
<g id="a_node20"><a xlink:href="block__command__table__params_8h.html" target="_top" xlink:title="BCTのCoreTlmパラメタのオーバーライド用ヘッダー">
<polygon fill="white" stroke="black" points="187.5,-346.5 187.5,-376.5 368.5,-376.5 368.5,-346.5 187.5,-346.5"/>
<text text-anchor="start" x="195.5" y="-364.5" font-family="Helvetica,sans-Serif" font-size="10.00">src_user/Settings/TlmCmd</text>
<text text-anchor="middle" x="278" y="-353.5" font-family="Helvetica,sans-Serif" font-size="10.00">/block_command_table_params.h</text>
</a>
</g>
</g>
<!-- Node19&#45;&gt;Node20 -->
<g id="edge29" class="edge">
<title>Node19&#45;&gt;Node20</title>
<path fill="none" stroke="midnightblue" d="M439.3,-418.87C411.03,-408.99 363.99,-392.55 327.98,-379.97"/>
<polygon fill="midnightblue" stroke="midnightblue" points="328.74,-376.52 318.14,-376.53 326.43,-383.13 328.74,-376.52"/>
</g>
<!-- Node21&#45;&gt;Node4 -->
<g id="edge33" class="edge">
<title>Node21&#45;&gt;Node4</title>
<path fill="none" stroke="midnightblue" d="M620.6,-413.4C584.58,-401.69 533.94,-385.23 500.1,-374.23"/>
<polygon fill="midnightblue" stroke="midnightblue" points="500.77,-370.77 490.18,-371.01 498.6,-377.43 500.77,-370.77"/>
</g>
<!-- Node21&#45;&gt;Node15 -->
<g id="edge32" class="edge">
<title>Node21&#45;&gt;Node15</title>
<path fill="none" stroke="midnightblue" d="M730.65,-420.69C794.7,-412.99 885.81,-398.63 914,-377 960.43,-341.38 982.38,-272.41 991.12,-235.94"/>
<polygon fill="midnightblue" stroke="midnightblue" points="994.54,-236.68 993.34,-226.16 987.71,-235.14 994.54,-236.68"/>
</g>
<!-- Node22&#45;&gt;Node4 -->
<g id="edge35" class="edge">
<title>Node22&#45;&gt;Node4</title>
<path fill="none" stroke="midnightblue" d="M559.82,-480.17C559.11,-465.06 555.81,-433.84 541,-413 529.31,-396.55 510.43,-384.04 494.29,-375.59"/>
<polygon fill="midnightblue" stroke="midnightblue" points="495.69,-372.38 485.18,-371.09 492.59,-378.66 495.69,-372.38"/>
</g>
<!-- Node22&#45;&gt;Node19 -->
<g id="edge36" class="edge">
<title>Node22&#45;&gt;Node19</title>
<path fill="none" stroke="midnightblue" d="M546.25,-480.48C530.63,-470.8 504.94,-454.87 486.42,-443.39"/>
<polygon fill="midnightblue" stroke="midnightblue" points="488.07,-440.3 477.73,-438.01 484.38,-446.25 488.07,-440.3"/>
</g>
</g>
</svg>
