<?xml version="1.0" encoding="UTF-8" standalone="no"?>
<!DOCTYPE svg PUBLIC "-//W3C//DTD SVG 1.1//EN"
 "http://www.w3.org/Graphics/SVG/1.1/DTD/svg11.dtd">
<!-- Generated by graphviz version 2.43.0 (0)
 -->
<!-- Title: src/src_core/Applications/realtime_command_dispatcher.c Pages: 1 -->
<svg width="1076pt" height="609pt"
 viewBox="0.00 0.00 1075.89 609.00" xmlns="http://www.w3.org/2000/svg" xmlns:xlink="http://www.w3.org/1999/xlink">
<g id="graph0" class="graph" transform="scale(1 1) rotate(0) translate(4 605)">
<title>src/src_core/Applications/realtime_command_dispatcher.c</title>
<polygon fill="white" stroke="transparent" points="-4,4 -4,-605 1071.89,-605 1071.89,4 -4,4"/>
<!-- Node1 -->
<g id="node1" class="node">
<title>Node1</title>
<g id="a_node1"><a xlink:title=" ">
<polygon fill="#bfbfbf" stroke="black" points="553.39,-570.5 553.39,-600.5 732.39,-600.5 732.39,-570.5 553.39,-570.5"/>
<text text-anchor="start" x="561.39" y="-588.5" font-family="Helvetica,sans-Serif" font-size="10.00">src/src_core/Applications</text>
<text text-anchor="middle" x="642.89" y="-577.5" font-family="Helvetica,sans-Serif" font-size="10.00">/realtime_command_dispatcher.c</text>
</a>
</g>
</g>
<!-- Node2 -->
<g id="node2" class="node">
<title>Node2</title>
<g id="a_node2"><a xlink:href="realtime__command__dispatcher_8h.html" target="_top" xlink:title=" ">
<polygon fill="white" stroke="black" points="755.89,-453 755.89,-472 931.89,-472 931.89,-453 755.89,-453"/>
<text text-anchor="middle" x="843.89" y="-460" font-family="Helvetica,sans-Serif" font-size="10.00">realtime_command_dispatcher.h</text>
</a>
</g>
</g>
<!-- Node1&#45;&gt;Node2 -->
<g id="edge1" class="edge">
<title>Node1&#45;&gt;Node2</title>
<path fill="none" stroke="midnightblue" d="M666.34,-570.38C705.1,-547.05 782.07,-500.71 820.67,-477.47"/>
<polygon fill="midnightblue" stroke="midnightblue" points="822.85,-480.25 829.61,-472.09 819.24,-474.25 822.85,-480.25"/>
</g>
<!-- Node20 -->
<g id="node20" class="node">
<title>Node20</title>
<g id="a_node20"><a xlink:href="packet__handler_8h.html" target="_top" xlink:title=" ">
<polygon fill="white" stroke="black" points="514.89,-514.5 514.89,-533.5 666.89,-533.5 666.89,-514.5 514.89,-514.5"/>
<text text-anchor="middle" x="590.89" y="-521.5" font-family="Helvetica,sans-Serif" font-size="10.00">../TlmCmd/packet_handler.h</text>
</a>
</g>
</g>
<!-- Node1&#45;&gt;Node20 -->
<g id="edge32" class="edge">
<title>Node1&#45;&gt;Node20</title>
<path fill="none" stroke="midnightblue" d="M630.56,-570.4C622.93,-561.66 613.1,-550.41 605.13,-541.3"/>
<polygon fill="midnightblue" stroke="midnightblue" points="607.67,-538.88 598.45,-533.66 602.4,-543.49 607.67,-538.88"/>
</g>
<!-- Node3 -->
<g id="node3" class="node">
<title>Node3</title>
<g id="a_node3"><a xlink:href="command__dispatcher_8h.html" target="_top" xlink:title=" ">
<polygon fill="white" stroke="black" points="578.39,-386 578.39,-405 761.39,-405 761.39,-386 578.39,-386"/>
<text text-anchor="middle" x="669.89" y="-393" font-family="Helvetica,sans-Serif" font-size="10.00">../TlmCmd/command_dispatcher.h</text>
</a>
</g>
</g>
<!-- Node2&#45;&gt;Node3 -->
<g id="edge2" class="edge">
<title>Node2&#45;&gt;Node3</title>
<path fill="none" stroke="midnightblue" d="M820.78,-452.87C790.41,-441.52 736.88,-421.52 702.42,-408.65"/>
<polygon fill="midnightblue" stroke="midnightblue" points="703.4,-405.28 692.81,-405.06 700.95,-411.84 703.4,-405.28"/>
</g>
<!-- Node8 -->
<g id="node8" class="node">
<title>Node8</title>
<g id="a_node8"><a xlink:href="common__tlm__cmd__packet_8h.html" target="_top" xlink:title="CTCP の宣言">
<polygon fill="white" stroke="black" points="431.89,-268.5 431.89,-287.5 585.89,-287.5 585.89,-268.5 431.89,-268.5"/>
<text text-anchor="middle" x="508.89" y="-275.5" font-family="Helvetica,sans-Serif" font-size="10.00">common_tlm_cmd_packet.h</text>
</a>
</g>
</g>
<!-- Node2&#45;&gt;Node8 -->
<g id="edge31" class="edge">
<title>Node2&#45;&gt;Node8</title>
<path fill="none" stroke="midnightblue" d="M838.11,-452.65C826.96,-436.2 800.9,-400.72 770.89,-380 703.47,-333.47 611.67,-304.5 556.55,-290.1"/>
<polygon fill="midnightblue" stroke="midnightblue" points="557.25,-286.66 546.69,-287.57 555.51,-293.44 557.25,-286.66"/>
</g>
<!-- Node19 -->
<g id="node19" class="node">
<title>Node19</title>
<g id="a_node19"><a xlink:href="app__info_8h.html" target="_top" xlink:title="App 情報構造体定義と App 作成">
<polygon fill="white" stroke="black" points="818.39,-380.5 818.39,-410.5 981.39,-410.5 981.39,-380.5 818.39,-380.5"/>
<text text-anchor="start" x="826.39" y="-398.5" font-family="Helvetica,sans-Serif" font-size="10.00">../System/ApplicationManager</text>
<text text-anchor="middle" x="899.89" y="-387.5" font-family="Helvetica,sans-Serif" font-size="10.00">/app_info.h</text>
</a>
</g>
</g>
<!-- Node2&#45;&gt;Node19 -->
<g id="edge29" class="edge">
<title>Node2&#45;&gt;Node19</title>
<path fill="none" stroke="midnightblue" d="M851.44,-452.73C859.01,-443.95 870.96,-430.08 881.1,-418.31"/>
<polygon fill="midnightblue" stroke="midnightblue" points="883.87,-420.45 887.75,-410.59 878.57,-415.88 883.87,-420.45"/>
</g>
<!-- Node4 -->
<g id="node4" class="node">
<title>Node4</title>
<g id="a_node4"><a xlink:href="obc__time_8h.html" target="_top" xlink:title="OBCの時刻情報の定義と演算">
<polygon fill="white" stroke="black" points="931.39,-196 931.39,-226 1064.39,-226 1064.39,-196 931.39,-196"/>
<text text-anchor="start" x="939.39" y="-214" font-family="Helvetica,sans-Serif" font-size="10.00">../System/TimeManager</text>
<text text-anchor="middle" x="997.89" y="-203" font-family="Helvetica,sans-Serif" font-size="10.00">/obc_time.h</text>
</a>
</g>
</g>
<!-- Node3&#45;&gt;Node4 -->
<g id="edge3" class="edge">
<title>Node3&#45;&gt;Node4</title>
<path fill="none" stroke="midnightblue" d="M685.27,-385.94C735.08,-358.22 892.87,-270.43 963.32,-231.23"/>
<polygon fill="midnightblue" stroke="midnightblue" points="965.23,-234.18 972.27,-226.25 961.83,-228.06 965.23,-234.18"/>
</g>
<!-- Node3&#45;&gt;Node8 -->
<g id="edge7" class="edge">
<title>Node3&#45;&gt;Node8</title>
<path fill="none" stroke="midnightblue" d="M657.79,-385.82C630.4,-366.17 563.4,-318.11 529.4,-293.72"/>
<polygon fill="midnightblue" stroke="midnightblue" points="531.29,-290.77 521.13,-287.78 527.21,-296.46 531.29,-290.77"/>
</g>
<!-- Node10 -->
<g id="node10" class="node">
<title>Node10</title>
<g id="a_node10"><a xlink:href="command__definitions_8h.html" target="_top" xlink:title="コマンド定義">
<polygon fill="white" stroke="black" points="760.39,-196 760.39,-226 913.39,-226 913.39,-196 760.39,-196"/>
<text text-anchor="start" x="768.39" y="-214" font-family="Helvetica,sans-Serif" font-size="10.00">src_user/TlmCmd/command</text>
<text text-anchor="middle" x="836.89" y="-203" font-family="Helvetica,sans-Serif" font-size="10.00">_definitions.h</text>
</a>
</g>
</g>
<!-- Node3&#45;&gt;Node10 -->
<g id="edge28" class="edge">
<title>Node3&#45;&gt;Node10</title>
<path fill="none" stroke="midnightblue" d="M677.94,-385.7C703.05,-358.26 780.38,-273.75 817.12,-233.6"/>
<polygon fill="midnightblue" stroke="midnightblue" points="819.73,-235.93 823.9,-226.19 814.56,-231.21 819.73,-235.93"/>
</g>
<!-- Node18 -->
<g id="node18" class="node">
<title>Node18</title>
<g id="a_node18"><a xlink:href="packet__list_8h.html" target="_top" xlink:title="CTCPのリストとしてのデータ構造を定義. 片方向リストとして実装されている">
<polygon fill="white" stroke="black" points="304.89,-324.5 304.89,-343.5 382.89,-343.5 382.89,-324.5 304.89,-324.5"/>
<text text-anchor="middle" x="343.89" y="-331.5" font-family="Helvetica,sans-Serif" font-size="10.00">packet_list.h</text>
</a>
</g>
</g>
<!-- Node3&#45;&gt;Node18 -->
<g id="edge24" class="edge">
<title>Node3&#45;&gt;Node18</title>
<path fill="none" stroke="midnightblue" d="M623.18,-385.98C562.14,-374.83 455.7,-355.41 393.34,-344.03"/>
<polygon fill="midnightblue" stroke="midnightblue" points="393.81,-340.55 383.35,-342.2 392.56,-347.44 393.81,-340.55"/>
</g>
<!-- Node5 -->
<g id="node5" class="node">
<title>Node5</title>
<g id="a_node5"><a xlink:href="stdint_8h.html" target="_top" xlink:title=" ">
<polygon fill="white" stroke="black" points="528.89,-62 528.89,-81 662.89,-81 662.89,-62 528.89,-62"/>
<text text-anchor="middle" x="595.89" y="-69" font-family="Helvetica,sans-Serif" font-size="10.00">src_user/Library/stdint.h</text>
</a>
</g>
</g>
<!-- Node4&#45;&gt;Node5 -->
<g id="edge4" class="edge">
<title>Node4&#45;&gt;Node5</title>
<path fill="none" stroke="midnightblue" d="M957.33,-195.89C907.56,-178.6 820.58,-148.47 745.89,-123 706.63,-109.62 661.52,-94.46 631.11,-84.27"/>
<polygon fill="midnightblue" stroke="midnightblue" points="631.98,-80.87 621.39,-81.02 629.76,-87.51 631.98,-80.87"/>
</g>
<!-- Node7 -->
<g id="node7" class="node">
<title>Node7</title>
<g id="a_node7"><a xlink:href="obc__time__params_8h.html" target="_top" xlink:title="OBCTのCoreパラメタのオーバーライド用ヘッダー">
<polygon fill="white" stroke="black" points="927.89,-123.5 927.89,-153.5 1067.89,-153.5 1067.89,-123.5 927.89,-123.5"/>
<text text-anchor="start" x="935.89" y="-141.5" font-family="Helvetica,sans-Serif" font-size="10.00">src_user/Settings/System</text>
<text text-anchor="middle" x="997.89" y="-130.5" font-family="Helvetica,sans-Serif" font-size="10.00">/obc_time_params.h</text>
</a>
</g>
</g>
<!-- Node4&#45;&gt;Node7 -->
<g id="edge6" class="edge">
<title>Node4&#45;&gt;Node7</title>
<path fill="none" stroke="midnightblue" d="M997.89,-195.73C997.89,-186.66 997.89,-174.66 997.89,-164.08"/>
<polygon fill="midnightblue" stroke="midnightblue" points="1001.39,-163.75 997.89,-153.75 994.39,-163.75 1001.39,-163.75"/>
</g>
<!-- Node6 -->
<g id="node6" class="node">
<title>Node6</title>
<g id="a_node6"><a xlink:href="sils__define_8h.html" target="_top" xlink:title="Switch the build settings between your real OBC and SILS">
<polygon fill="white" stroke="black" points="531.39,-0.5 531.39,-19.5 660.39,-19.5 660.39,-0.5 531.39,-0.5"/>
<text text-anchor="middle" x="595.89" y="-7.5" font-family="Helvetica,sans-Serif" font-size="10.00">../Settings/sils_define.h</text>
</a>
</g>
</g>
<!-- Node5&#45;&gt;Node6 -->
<g id="edge5" class="edge">
<title>Node5&#45;&gt;Node6</title>
<path fill="none" stroke="midnightblue" d="M595.89,-61.98C595.89,-53.58 595.89,-40.48 595.89,-29.66"/>
<polygon fill="midnightblue" stroke="midnightblue" points="599.39,-29.51 595.89,-19.51 592.39,-29.51 599.39,-29.51"/>
</g>
<!-- Node8&#45;&gt;Node4 -->
<g id="edge9" class="edge">
<title>Node8&#45;&gt;Node4</title>
<path fill="none" stroke="midnightblue" d="M586.08,-272.14C669.62,-266.06 806.51,-253.71 922.89,-232 928.35,-230.98 934,-229.77 939.64,-228.46"/>
<polygon fill="midnightblue" stroke="midnightblue" points="940.83,-231.77 949.72,-226 939.18,-224.97 940.83,-231.77"/>
</g>
<!-- Node8&#45;&gt;Node5 -->
<g id="edge11" class="edge">
<title>Node8&#45;&gt;Node5</title>
<path fill="none" stroke="midnightblue" d="M585.98,-269.95C636.83,-263.52 696.9,-251.9 712.89,-232 754.84,-179.78 664.93,-114.54 619.75,-86.43"/>
<polygon fill="midnightblue" stroke="midnightblue" points="621.47,-83.38 611.11,-81.17 617.83,-89.36 621.47,-83.38"/>
</g>
<!-- Node9 -->
<g id="node9" class="node">
<title>Node9</title>
<g id="a_node9"><a xlink:title=" ">
<polygon fill="white" stroke="#bfbfbf" points="195.89,-62 195.89,-81 251.89,-81 251.89,-62 195.89,-62"/>
<text text-anchor="middle" x="223.89" y="-69" font-family="Helvetica,sans-Serif" font-size="10.00">stddef.h</text>
</a>
</g>
</g>
<!-- Node8&#45;&gt;Node9 -->
<g id="edge8" class="edge">
<title>Node8&#45;&gt;Node9</title>
<path fill="none" stroke="midnightblue" d="M431.69,-273.96C362.54,-269.52 268.24,-258.63 242.89,-232 206.42,-193.7 213.55,-124.62 219.7,-91.38"/>
<polygon fill="midnightblue" stroke="midnightblue" points="223.21,-91.72 221.76,-81.22 216.35,-90.33 223.21,-91.72"/>
</g>
<!-- Node8&#45;&gt;Node10 -->
<g id="edge10" class="edge">
<title>Node8&#45;&gt;Node10</title>
<path fill="none" stroke="midnightblue" d="M556.18,-268.43C604.07,-259.66 680.24,-245.44 745.89,-232 751.92,-230.76 758.17,-229.45 764.44,-228.12"/>
<polygon fill="midnightblue" stroke="midnightblue" points="765.23,-231.53 774.28,-226.01 763.77,-224.68 765.23,-231.53"/>
</g>
<!-- Node11 -->
<g id="node11" class="node">
<title>Node11</title>
<g id="a_node11"><a xlink:href="app__registry_8h.html" target="_top" xlink:title=" ">
<polygon fill="white" stroke="black" points="583.89,-196 583.89,-226 703.89,-226 703.89,-196 583.89,-196"/>
<text text-anchor="start" x="591.89" y="-214" font-family="Helvetica,sans-Serif" font-size="10.00">src_user/Applications</text>
<text text-anchor="middle" x="643.89" y="-203" font-family="Helvetica,sans-Serif" font-size="10.00">/app_registry.h</text>
</a>
</g>
</g>
<!-- Node8&#45;&gt;Node11 -->
<g id="edge12" class="edge">
<title>Node8&#45;&gt;Node11</title>
<path fill="none" stroke="midnightblue" d="M526.81,-268.37C546.81,-258.74 579.73,-242.89 605.58,-230.44"/>
<polygon fill="midnightblue" stroke="midnightblue" points="607.26,-233.52 614.75,-226.03 604.22,-227.21 607.26,-233.52"/>
</g>
<!-- Node12 -->
<g id="node12" class="node">
<title>Node12</title>
<g id="a_node12"><a xlink:href="common__tlm__cmd__packet__define_8h.html" target="_top" xlink:title="CTCP型の定義">
<polygon fill="white" stroke="black" points="417.89,-190.5 417.89,-231.5 565.89,-231.5 565.89,-190.5 417.89,-190.5"/>
<text text-anchor="start" x="425.89" y="-219.5" font-family="Helvetica,sans-Serif" font-size="10.00">src_user/Settings/TlmCmd</text>
<text text-anchor="start" x="425.89" y="-208.5" font-family="Helvetica,sans-Serif" font-size="10.00">/common_tlm_cmd_packet</text>
<text text-anchor="middle" x="491.89" y="-197.5" font-family="Helvetica,sans-Serif" font-size="10.00">_define.h</text>
</a>
</g>
</g>
<!-- Node8&#45;&gt;Node12 -->
<g id="edge13" class="edge">
<title>Node8&#45;&gt;Node12</title>
<path fill="none" stroke="midnightblue" d="M506.59,-268.23C504.78,-261.29 502.13,-251.17 499.58,-241.42"/>
<polygon fill="midnightblue" stroke="midnightblue" points="502.91,-240.33 497,-231.54 496.14,-242.1 502.91,-240.33"/>
</g>
<!-- Node15 -->
<g id="node15" class="node">
<title>Node15</title>
<g id="a_node15"><a xlink:href="common__tlm__cmd__packet__params_8h.html" target="_top" xlink:title="CTCP パラメタのオーバーライド用ヘッダー">
<polygon fill="white" stroke="black" points="251.89,-190.5 251.89,-231.5 399.89,-231.5 399.89,-190.5 251.89,-190.5"/>
<text text-anchor="start" x="259.89" y="-219.5" font-family="Helvetica,sans-Serif" font-size="10.00">src_user/Settings/TlmCmd</text>
<text text-anchor="start" x="259.89" y="-208.5" font-family="Helvetica,sans-Serif" font-size="10.00">/common_tlm_cmd_packet</text>
<text text-anchor="middle" x="325.89" y="-197.5" font-family="Helvetica,sans-Serif" font-size="10.00">_params.h</text>
</a>
</g>
</g>
<!-- Node8&#45;&gt;Node15 -->
<g id="edge18" class="edge">
<title>Node8&#45;&gt;Node15</title>
<path fill="none" stroke="midnightblue" d="M484.59,-268.37C460.69,-259.88 423.18,-246.56 390.62,-234.99"/>
<polygon fill="midnightblue" stroke="midnightblue" points="391.73,-231.67 381.14,-231.63 389.39,-238.27 391.73,-231.67"/>
</g>
<!-- Node16 -->
<g id="node16" class="node">
<title>Node16</title>
<g id="a_node16"><a xlink:href="block__command__table_8h.html" target="_top" xlink:title="BCTの定義, BCT周りの関数">
<polygon fill="white" stroke="black" points="59.89,-201.5 59.89,-220.5 195.89,-220.5 195.89,-201.5 59.89,-201.5"/>
<text text-anchor="middle" x="127.89" y="-208.5" font-family="Helvetica,sans-Serif" font-size="10.00">block_command_table.h</text>
</a>
</g>
</g>
<!-- Node8&#45;&gt;Node16 -->
<g id="edge20" class="edge">
<title>Node8&#45;&gt;Node16</title>
<path fill="none" stroke="midnightblue" d="M433.2,-268.46C370.5,-260.47 279.43,-247.46 200.89,-232 187.97,-229.46 174.02,-226.24 161.74,-223.13"/>
<polygon fill="midnightblue" stroke="midnightblue" points="162.44,-219.69 151.88,-220.56 160.67,-226.47 162.44,-219.69"/>
</g>
<!-- Node13 -->
<g id="node13" class="node">
<title>Node13</title>
<g id="a_node13"><a xlink:href="_t_c_packet_8h.html" target="_top" xlink:title=" ">
<polygon fill="white" stroke="black" points="350.39,-123.5 350.39,-153.5 483.39,-153.5 483.39,-123.5 350.39,-123.5"/>
<text text-anchor="start" x="358.39" y="-141.5" font-family="Helvetica,sans-Serif" font-size="10.00">src_core/TlmCmd/Ccsds</text>
<text text-anchor="middle" x="416.89" y="-130.5" font-family="Helvetica,sans-Serif" font-size="10.00">/TCPacket.h</text>
</a>
</g>
</g>
<!-- Node12&#45;&gt;Node13 -->
<g id="edge14" class="edge">
<title>Node12&#45;&gt;Node13</title>
<path fill="none" stroke="midnightblue" d="M470.99,-190.36C461.28,-181.23 449.71,-170.35 439.76,-161"/>
<polygon fill="midnightblue" stroke="midnightblue" points="441.88,-158.19 432.2,-153.89 437.09,-163.29 441.88,-158.19"/>
</g>
<!-- Node13&#45;&gt;Node5 -->
<g id="edge16" class="edge">
<title>Node13&#45;&gt;Node5</title>
<path fill="none" stroke="midnightblue" d="M455.73,-123.4C487.69,-111.79 532.51,-95.51 562.79,-84.52"/>
<polygon fill="midnightblue" stroke="midnightblue" points="564.25,-87.71 572.46,-81.01 561.87,-81.13 564.25,-87.71"/>
</g>
<!-- Node13&#45;&gt;Node9 -->
<g id="edge15" class="edge">
<title>Node13&#45;&gt;Node9</title>
<path fill="none" stroke="midnightblue" d="M375.01,-123.4C340.25,-111.69 291.38,-95.23 258.73,-84.23"/>
<polygon fill="midnightblue" stroke="midnightblue" points="259.74,-80.88 249.15,-81.01 257.51,-87.52 259.74,-80.88"/>
</g>
<!-- Node14 -->
<g id="node14" class="node">
<title>Node14</title>
<g id="a_node14"><a xlink:href="tcpacket__params_8h.html" target="_top" xlink:title="TCP のユーザー設定">
<polygon fill="white" stroke="black" points="344.89,-56.5 344.89,-86.5 488.89,-86.5 488.89,-56.5 344.89,-56.5"/>
<text text-anchor="start" x="352.89" y="-74.5" font-family="Helvetica,sans-Serif" font-size="10.00">src_user/Settings/TlmCmd</text>
<text text-anchor="middle" x="416.89" y="-63.5" font-family="Helvetica,sans-Serif" font-size="10.00">/Ccsds/tcpacket_params.h</text>
</a>
</g>
</g>
<!-- Node13&#45;&gt;Node14 -->
<g id="edge17" class="edge">
<title>Node13&#45;&gt;Node14</title>
<path fill="none" stroke="midnightblue" d="M416.89,-123.4C416.89,-115.64 416.89,-105.81 416.89,-96.86"/>
<polygon fill="midnightblue" stroke="midnightblue" points="420.39,-96.58 416.89,-86.58 413.39,-96.58 420.39,-96.58"/>
</g>
<!-- Node15&#45;&gt;Node13 -->
<g id="edge19" class="edge">
<title>Node15&#45;&gt;Node13</title>
<path fill="none" stroke="midnightblue" d="M351.24,-190.36C363.46,-180.89 378.11,-169.54 390.46,-159.97"/>
<polygon fill="midnightblue" stroke="midnightblue" points="392.83,-162.56 398.6,-153.67 388.55,-157.03 392.83,-162.56"/>
</g>
<!-- Node16&#45;&gt;Node5 -->
<g id="edge21" class="edge">
<title>Node16&#45;&gt;Node5</title>
<path fill="none" stroke="midnightblue" d="M175.11,-201.47C195.88,-197.8 220.57,-193.55 242.89,-190 353.31,-172.42 389.08,-197.97 491.89,-154 527.87,-138.61 562.09,-107.53 580.91,-88.51"/>
<polygon fill="midnightblue" stroke="midnightblue" points="583.56,-90.8 587.99,-81.18 578.53,-85.94 583.56,-90.8"/>
</g>
<!-- Node16&#45;&gt;Node8 -->
<g id="edge23" class="edge">
<title>Node16&#45;&gt;Node8</title>
<path fill="none" stroke="midnightblue" d="M168.25,-220.56C184.13,-224.38 202.35,-228.75 218.89,-232 293.14,-246.61 378.58,-259.04 437.46,-267.1"/>
<polygon fill="midnightblue" stroke="midnightblue" points="437.02,-270.58 447.4,-268.46 437.96,-263.64 437.02,-270.58"/>
</g>
<!-- Node17 -->
<g id="node17" class="node">
<title>Node17</title>
<g id="a_node17"><a xlink:href="block__command__table__params_8h.html" target="_top" xlink:title="BCTのCoreTlmパラメタのオーバーライド用ヘッダー">
<polygon fill="white" stroke="black" points="14.39,-123.5 14.39,-153.5 195.39,-153.5 195.39,-123.5 14.39,-123.5"/>
<text text-anchor="start" x="22.39" y="-141.5" font-family="Helvetica,sans-Serif" font-size="10.00">src_user/Settings/TlmCmd</text>
<text text-anchor="middle" x="104.89" y="-130.5" font-family="Helvetica,sans-Serif" font-size="10.00">/block_command_table_params.h</text>
</a>
</g>
</g>
<!-- Node16&#45;&gt;Node17 -->
<g id="edge22" class="edge">
<title>Node16&#45;&gt;Node17</title>
<path fill="none" stroke="midnightblue" d="M125.07,-201.36C122,-191.96 116.96,-176.52 112.69,-163.42"/>
<polygon fill="midnightblue" stroke="midnightblue" points="115.91,-162 109.48,-153.58 109.25,-164.17 115.91,-162"/>
</g>
<!-- Node18&#45;&gt;Node8 -->
<g id="edge26" class="edge">
<title>Node18&#45;&gt;Node8</title>
<path fill="none" stroke="midnightblue" d="M370.03,-324.44C397.91,-315.32 442.23,-300.81 473.29,-290.65"/>
<polygon fill="midnightblue" stroke="midnightblue" points="474.45,-293.95 482.86,-287.52 472.27,-287.3 474.45,-293.95"/>
</g>
<!-- Node18&#45;&gt;Node9 -->
<g id="edge25" class="edge">
<title>Node18&#45;&gt;Node9</title>
<path fill="none" stroke="midnightblue" d="M304.6,-328.24C244.1,-319.14 127.14,-294.29 50.89,-232 19.72,-206.54 15.48,-192.83 4.89,-154 1.26,-140.71 -3.69,-133.78 4.89,-123 27.07,-95.12 129.06,-81.32 185.7,-75.7"/>
<polygon fill="midnightblue" stroke="midnightblue" points="186.1,-79.17 195.72,-74.74 185.43,-72.21 186.1,-79.17"/>
</g>
<!-- Node18&#45;&gt;Node16 -->
<g id="edge27" class="edge">
<title>Node18&#45;&gt;Node16</title>
<path fill="none" stroke="midnightblue" d="M328.7,-324.49C291.76,-303.8 196.99,-250.71 152.12,-225.58"/>
<polygon fill="midnightblue" stroke="midnightblue" points="153.78,-222.49 143.35,-220.66 150.36,-228.6 153.78,-222.49"/>
</g>
<!-- Node19&#45;&gt;Node4 -->
<g id="edge30" class="edge">
<title>Node19&#45;&gt;Node4</title>
<path fill="none" stroke="midnightblue" d="M907.41,-380.48C924.23,-349.17 964.99,-273.27 985.56,-234.95"/>
<polygon fill="midnightblue" stroke="midnightblue" points="988.69,-236.53 990.33,-226.07 982.52,-233.22 988.69,-236.53"/>
</g>
<!-- Node20&#45;&gt;Node8 -->
<g id="edge34" class="edge">
<title>Node20&#45;&gt;Node8</title>
<path fill="none" stroke="midnightblue" d="M533.93,-514.49C492.91,-507.06 442.65,-494.82 429.89,-478 384.97,-418.81 458.36,-330.73 492.69,-294.96"/>
<polygon fill="midnightblue" stroke="midnightblue" points="495.23,-297.37 499.74,-287.78 490.24,-292.46 495.23,-297.37"/>
</g>
<!-- Node20&#45;&gt;Node18 -->
<g id="edge35" class="edge">
<title>Node20&#45;&gt;Node18</title>
<path fill="none" stroke="midnightblue" d="M524.71,-514.45C476.27,-506.97 415.83,-494.68 396.89,-478 359.88,-445.42 348.67,-384.58 345.31,-353.82"/>
<polygon fill="midnightblue" stroke="midnightblue" points="348.77,-353.27 344.36,-343.63 341.8,-353.91 348.77,-353.27"/>
</g>
<!-- Node21 -->
<g id="node21" class="node">
<title>Node21</title>
<g id="a_node21"><a xlink:href="packet__handler__params_8h.html" target="_top" xlink:title="PHのCoreTlmパラメタのオーバーライド用ヘッダー">
<polygon fill="white" stroke="black" points="439.39,-447.5 439.39,-477.5 584.39,-477.5 584.39,-447.5 439.39,-447.5"/>
<text text-anchor="start" x="447.39" y="-465.5" font-family="Helvetica,sans-Serif" font-size="10.00">src_user/Settings/TlmCmd</text>
<text text-anchor="middle" x="511.89" y="-454.5" font-family="Helvetica,sans-Serif" font-size="10.00">/packet_handler_params.h</text>
</a>
</g>
</g>
<!-- Node20&#45;&gt;Node21 -->
<g id="edge33" class="edge">
<title>Node20&#45;&gt;Node21</title>
<path fill="none" stroke="midnightblue" d="M579.57,-514.48C568.97,-506.49 552.72,-494.25 538.8,-483.77"/>
<polygon fill="midnightblue" stroke="midnightblue" points="540.6,-480.74 530.51,-477.52 536.39,-486.33 540.6,-480.74"/>
</g>
<!-- Node22 -->
<g id="node22" class="node">
<title>Node22</title>
<g id="a_node22"><a xlink:href="timeline__command__dispatcher_8h.html" target="_top" xlink:title=" ">
<polygon fill="white" stroke="black" points="602.39,-447.5 602.39,-477.5 737.39,-477.5 737.39,-447.5 602.39,-447.5"/>
<text text-anchor="start" x="610.39" y="-465.5" font-family="Helvetica,sans-Serif" font-size="10.00">../Applications/timeline</text>
<text text-anchor="middle" x="669.89" y="-454.5" font-family="Helvetica,sans-Serif" font-size="10.00">_command_dispatcher.h</text>
</a>
</g>
</g>
<!-- Node20&#45;&gt;Node22 -->
<g id="edge36" class="edge">
<title>Node20&#45;&gt;Node22</title>
<path fill="none" stroke="midnightblue" d="M597.3,-514.48C606.25,-506.42 622.2,-494.02 636.95,-483.47"/>
<polygon fill="midnightblue" stroke="midnightblue" points="639.26,-486.13 645.44,-477.52 635.24,-480.4 639.26,-486.13"/>
</g>
<!-- Node22&#45;&gt;Node3 -->
<g id="edge37" class="edge">
<title>Node22&#45;&gt;Node3</title>
<path fill="none" stroke="midnightblue" d="M669.89,-447.4C669.89,-438.06 669.89,-425.71 669.89,-415.52"/>
<polygon fill="midnightblue" stroke="midnightblue" points="673.39,-415.19 669.89,-405.19 666.39,-415.19 673.39,-415.19"/>
</g>
<!-- Node22&#45;&gt;Node8 -->
<g id="edge38" class="edge">
<title>Node22&#45;&gt;Node8</title>
<path fill="none" stroke="midnightblue" d="M626.46,-447.4C606.88,-439.28 584.67,-427.38 568.89,-411 537.11,-378.02 520.19,-325.25 513.07,-297.47"/>
<polygon fill="midnightblue" stroke="midnightblue" points="516.42,-296.43 510.67,-287.53 509.61,-298.08 516.42,-296.43"/>
</g>
<!-- Node22&#45;&gt;Node19 -->
<g id="edge40" class="edge">
<title>Node22&#45;&gt;Node19</title>
<path fill="none" stroke="midnightblue" d="M719.51,-447.48C754.91,-437.47 802.68,-423.97 840.17,-413.38"/>
<polygon fill="midnightblue" stroke="midnightblue" points="841.28,-416.7 849.96,-410.61 839.38,-409.96 841.28,-416.7"/>
</g>
<!-- Node22&#45;&gt;Node20 -->
<g id="edge39" class="edge">
<title>Node22&#45;&gt;Node20</title>
<path fill="none" stroke="midnightblue" d="M657.1,-477.52C645.82,-486.93 629.43,-499.28 615.68,-508.74"/>
<polygon fill="midnightblue" stroke="midnightblue" points="613.47,-506.01 607.11,-514.48 617.36,-511.82 613.47,-506.01"/>
</g>
</g>
</svg>
