<?xml version="1.0" encoding="UTF-8" standalone="no"?>
<!DOCTYPE svg PUBLIC "-//W3C//DTD SVG 1.1//EN"
 "http://www.w3.org/Graphics/SVG/1.1/DTD/svg11.dtd">
<!-- Generated by graphviz version 2.43.0 (0)
 -->
<!-- Title: src/src_core/Applications/realtime_command_dispatcher.c Pages: 1 -->
<svg width="1437pt" height="642pt"
 viewBox="0.00 0.00 1437.26 642.00" xmlns="http://www.w3.org/2000/svg" xmlns:xlink="http://www.w3.org/1999/xlink">
<g id="graph0" class="graph" transform="scale(1 1) rotate(0) translate(4 638)">
<title>src/src_core/Applications/realtime_command_dispatcher.c</title>
<polygon fill="white" stroke="transparent" points="-4,4 -4,-638 1433.26,-638 1433.26,4 -4,4"/>
<!-- Node1 -->
<g id="node1" class="node">
<title>Node1</title>
<g id="a_node1"><a xlink:title=" ">
<polygon fill="#bfbfbf" stroke="black" points="901.76,-603.5 901.76,-633.5 1080.76,-633.5 1080.76,-603.5 901.76,-603.5"/>
<text text-anchor="start" x="909.76" y="-621.5" font-family="Helvetica,sans-Serif" font-size="10.00">src/src_core/Applications</text>
<text text-anchor="middle" x="991.26" y="-610.5" font-family="Helvetica,sans-Serif" font-size="10.00">/realtime_command_dispatcher.c</text>
</a>
</g>
</g>
<!-- Node2 -->
<g id="node2" class="node">
<title>Node2</title>
<g id="a_node2"><a xlink:href="realtime__command__dispatcher_8h.html" target="_top" xlink:title=" ">
<polygon fill="white" stroke="black" points="786.26,-486 786.26,-505 962.26,-505 962.26,-486 786.26,-486"/>
<text text-anchor="middle" x="874.26" y="-493" font-family="Helvetica,sans-Serif" font-size="10.00">realtime_command_dispatcher.h</text>
</a>
</g>
</g>
<!-- Node1&#45;&gt;Node2 -->
<g id="edge1" class="edge">
<title>Node1&#45;&gt;Node2</title>
<path fill="none" stroke="midnightblue" d="M977.38,-603.14C955.4,-580.41 912.72,-536.27 889.76,-512.53"/>
<polygon fill="midnightblue" stroke="midnightblue" points="892,-509.81 882.53,-505.05 886.97,-514.67 892,-509.81"/>
</g>
<!-- Node20 -->
<g id="node20" class="node">
<title>Node20</title>
<g id="a_node20"><a xlink:href="packet__handler_8h.html" target="_top" xlink:title="C2A 全体を流れる Common Packet の配送を制御する">
<polygon fill="white" stroke="black" points="983.26,-547.5 983.26,-566.5 1135.26,-566.5 1135.26,-547.5 983.26,-547.5"/>
<text text-anchor="middle" x="1059.26" y="-554.5" font-family="Helvetica,sans-Serif" font-size="10.00">../TlmCmd/packet_handler.h</text>
</a>
</g>
</g>
<!-- Node1&#45;&gt;Node20 -->
<g id="edge26" class="edge">
<title>Node1&#45;&gt;Node20</title>
<path fill="none" stroke="midnightblue" d="M1007.38,-603.4C1017.67,-594.4 1031.01,-582.72 1041.59,-573.47"/>
<polygon fill="midnightblue" stroke="midnightblue" points="1044.15,-575.88 1049.37,-566.66 1039.54,-570.61 1044.15,-575.88"/>
</g>
<!-- Node3 -->
<g id="node3" class="node">
<title>Node3</title>
<g id="a_node3"><a xlink:href="command__dispatcher_8h.html" target="_top" xlink:title="各種コマンドの実行管理">
<polygon fill="white" stroke="black" points="761.76,-419 761.76,-438 944.76,-438 944.76,-419 761.76,-419"/>
<text text-anchor="middle" x="853.26" y="-426" font-family="Helvetica,sans-Serif" font-size="10.00">../TlmCmd/command_dispatcher.h</text>
</a>
</g>
</g>
<!-- Node2&#45;&gt;Node3 -->
<g id="edge2" class="edge">
<title>Node2&#45;&gt;Node3</title>
<path fill="none" stroke="midnightblue" d="M871.43,-485.73C868.32,-476.09 863.22,-460.3 859.21,-447.91"/>
<polygon fill="midnightblue" stroke="midnightblue" points="862.46,-446.57 856.05,-438.13 855.8,-448.72 862.46,-446.57"/>
</g>
<!-- Node8 -->
<g id="node8" class="node">
<title>Node8</title>
<g id="a_node8"><a xlink:href="common__cmd__packet_8h.html" target="_top" xlink:title="CCP 関連基本関数の宣言">
<polygon fill="white" stroke="black" points="761.26,-234.5 761.26,-253.5 893.26,-253.5 893.26,-234.5 761.26,-234.5"/>
<text text-anchor="middle" x="827.26" y="-241.5" font-family="Helvetica,sans-Serif" font-size="10.00">common_cmd_packet.h</text>
</a>
</g>
</g>
<!-- Node2&#45;&gt;Node8 -->
<g id="edge25" class="edge">
<title>Node2&#45;&gt;Node8</title>
<path fill="none" stroke="midnightblue" d="M819.55,-485.99C794.62,-479.08 767.36,-466.58 752.26,-444 711.43,-382.9 779.43,-296.51 811.71,-261.1"/>
<polygon fill="midnightblue" stroke="midnightblue" points="814.45,-263.3 818.72,-253.6 809.33,-258.52 814.45,-263.3"/>
</g>
<!-- Node19 -->
<g id="node19" class="node">
<title>Node19</title>
<g id="a_node19"><a xlink:href="app__info_8h.html" target="_top" xlink:title="App 情報構造体定義と App 作成">
<polygon fill="white" stroke="black" points="1039.76,-413.5 1039.76,-443.5 1202.76,-443.5 1202.76,-413.5 1039.76,-413.5"/>
<text text-anchor="start" x="1047.76" y="-431.5" font-family="Helvetica,sans-Serif" font-size="10.00">../System/ApplicationManager</text>
<text text-anchor="middle" x="1121.26" y="-420.5" font-family="Helvetica,sans-Serif" font-size="10.00">/app_info.h</text>
</a>
</g>
</g>
<!-- Node2&#45;&gt;Node19 -->
<g id="edge23" class="edge">
<title>Node2&#45;&gt;Node19</title>
<path fill="none" stroke="midnightblue" d="M906.81,-485.94C945.17,-475.84 1009.8,-458.83 1058.1,-446.12"/>
<polygon fill="midnightblue" stroke="midnightblue" points="1059.06,-449.49 1067.84,-443.56 1057.28,-442.72 1059.06,-449.49"/>
</g>
<!-- Node4 -->
<g id="node4" class="node">
<title>Node4</title>
<g id="a_node4"><a xlink:href="obc__time_8h.html" target="_top" xlink:title="OBCの時刻情報の定義と演算">
<polygon fill="white" stroke="black" points="930.76,-151 930.76,-181 1063.76,-181 1063.76,-151 930.76,-151"/>
<text text-anchor="start" x="938.76" y="-169" font-family="Helvetica,sans-Serif" font-size="10.00">../System/TimeManager</text>
<text text-anchor="middle" x="997.26" y="-158" font-family="Helvetica,sans-Serif" font-size="10.00">/obc_time.h</text>
</a>
</g>
</g>
<!-- Node3&#45;&gt;Node4 -->
<g id="edge3" class="edge">
<title>Node3&#45;&gt;Node4</title>
<path fill="none" stroke="midnightblue" d="M858.06,-418.83C877.9,-382.94 954.01,-245.24 984.52,-190.06"/>
<polygon fill="midnightblue" stroke="midnightblue" points="987.72,-191.5 989.49,-181.06 981.59,-188.12 987.72,-191.5"/>
</g>
<!-- Node3&#45;&gt;Node8 -->
<g id="edge7" class="edge">
<title>Node3&#45;&gt;Node8</title>
<path fill="none" stroke="midnightblue" d="M852.01,-418.7C848,-390.57 835.45,-302.46 829.92,-263.66"/>
<polygon fill="midnightblue" stroke="midnightblue" points="833.38,-263.12 828.51,-253.71 826.45,-264.11 833.38,-263.12"/>
</g>
<!-- Node9 -->
<g id="node9" class="node">
<title>Node9</title>
<g id="a_node9"><a xlink:href="command__definitions_8h.html" target="_top" xlink:title="コマンド定義">
<polygon fill="white" stroke="black" points="570.76,-151 570.76,-181 723.76,-181 723.76,-151 570.76,-151"/>
<text text-anchor="start" x="578.76" y="-169" font-family="Helvetica,sans-Serif" font-size="10.00">src_user/TlmCmd/command</text>
<text text-anchor="middle" x="647.26" y="-158" font-family="Helvetica,sans-Serif" font-size="10.00">_definitions.h</text>
</a>
</g>
</g>
<!-- Node3&#45;&gt;Node9 -->
<g id="edge22" class="edge">
<title>Node3&#45;&gt;Node9</title>
<path fill="none" stroke="midnightblue" d="M846.41,-418.83C817.85,-382.72 707.78,-243.53 664.7,-189.05"/>
<polygon fill="midnightblue" stroke="midnightblue" points="667.33,-186.73 658.38,-181.06 661.84,-191.07 667.33,-186.73"/>
</g>
<!-- Node15 -->
<g id="node15" class="node">
<title>Node15</title>
<g id="a_node15"><a xlink:href="packet__list_8h.html" target="_top" xlink:title="CTCP, CTP, CCP のリストとしてのデータ構造を定義. 片方向リストとして実装されている">
<polygon fill="white" stroke="black" points="987.26,-357.5 987.26,-376.5 1065.26,-376.5 1065.26,-357.5 987.26,-357.5"/>
<text text-anchor="middle" x="1026.26" y="-364.5" font-family="Helvetica,sans-Serif" font-size="10.00">packet_list.h</text>
</a>
</g>
</g>
<!-- Node3&#45;&gt;Node15 -->
<g id="edge15" class="edge">
<title>Node3&#45;&gt;Node15</title>
<path fill="none" stroke="midnightblue" d="M878.05,-418.98C907.86,-408.72 958.06,-391.46 991.67,-379.9"/>
<polygon fill="midnightblue" stroke="midnightblue" points="993.21,-383.07 1001.52,-376.51 990.93,-376.45 993.21,-383.07"/>
</g>
<!-- Node5 -->
<g id="node5" class="node">
<title>Node5</title>
<g id="a_node5"><a xlink:href="stdint_8h.html" target="_top" xlink:title=" ">
<polygon fill="white" stroke="black" points="852.26,-84 852.26,-103 986.26,-103 986.26,-84 852.26,-84"/>
<text text-anchor="middle" x="919.26" y="-91" font-family="Helvetica,sans-Serif" font-size="10.00">src_user/Library/stdint.h</text>
</a>
</g>
</g>
<!-- Node4&#45;&gt;Node5 -->
<g id="edge4" class="edge">
<title>Node4&#45;&gt;Node5</title>
<path fill="none" stroke="midnightblue" d="M981.48,-150.73C968.5,-139 950.14,-122.4 936.72,-110.28"/>
<polygon fill="midnightblue" stroke="midnightblue" points="938.87,-107.5 929.1,-103.39 934.18,-112.7 938.87,-107.5"/>
</g>
<!-- Node7 -->
<g id="node7" class="node">
<title>Node7</title>
<g id="a_node7"><a xlink:href="obc__time__params_8h.html" target="_top" xlink:title="OBCTのCoreパラメタのオーバーライド用ヘッダー">
<polygon fill="white" stroke="black" points="1004.26,-78.5 1004.26,-108.5 1144.26,-108.5 1144.26,-78.5 1004.26,-78.5"/>
<text text-anchor="start" x="1012.26" y="-96.5" font-family="Helvetica,sans-Serif" font-size="10.00">src_user/Settings/System</text>
<text text-anchor="middle" x="1074.26" y="-85.5" font-family="Helvetica,sans-Serif" font-size="10.00">/obc_time_params.h</text>
</a>
</g>
</g>
<!-- Node4&#45;&gt;Node7 -->
<g id="edge6" class="edge">
<title>Node4&#45;&gt;Node7</title>
<path fill="none" stroke="midnightblue" d="M1012.85,-150.73C1023.88,-140.63 1038.85,-126.92 1051.26,-115.57"/>
<polygon fill="midnightblue" stroke="midnightblue" points="1053.96,-117.84 1058.97,-108.5 1049.23,-112.68 1053.96,-117.84"/>
</g>
<!-- Node6 -->
<g id="node6" class="node">
<title>Node6</title>
<g id="a_node6"><a xlink:href="sils__define_8h.html" target="_top" xlink:title="Switch the build settings between your real OBC and SILS">
<polygon fill="white" stroke="black" points="854.76,-11.5 854.76,-30.5 983.76,-30.5 983.76,-11.5 854.76,-11.5"/>
<text text-anchor="middle" x="919.26" y="-18.5" font-family="Helvetica,sans-Serif" font-size="10.00">../Settings/sils_define.h</text>
</a>
</g>
</g>
<!-- Node5&#45;&gt;Node6 -->
<g id="edge5" class="edge">
<title>Node5&#45;&gt;Node6</title>
<path fill="none" stroke="midnightblue" d="M919.26,-83.86C919.26,-73.18 919.26,-54.72 919.26,-40.73"/>
<polygon fill="midnightblue" stroke="midnightblue" points="922.76,-40.72 919.26,-30.72 915.76,-40.72 922.76,-40.72"/>
</g>
<!-- Node8&#45;&gt;Node4 -->
<g id="edge8" class="edge">
<title>Node8&#45;&gt;Node4</title>
<path fill="none" stroke="midnightblue" d="M846.44,-234.43C872.95,-222.58 921.47,-200.89 956.33,-185.3"/>
<polygon fill="midnightblue" stroke="midnightblue" points="958.07,-188.36 965.77,-181.08 955.21,-181.97 958.07,-188.36"/>
</g>
<!-- Node8&#45;&gt;Node9 -->
<g id="edge9" class="edge">
<title>Node8&#45;&gt;Node9</title>
<path fill="none" stroke="midnightblue" d="M806.97,-234.43C778.78,-222.53 727.08,-200.7 690.14,-185.1"/>
<polygon fill="midnightblue" stroke="midnightblue" points="691.19,-181.75 680.62,-181.08 688.47,-188.2 691.19,-181.75"/>
</g>
<!-- Node10 -->
<g id="node10" class="node">
<title>Node10</title>
<g id="a_node10"><a xlink:href="common__cmd__packet__define_8h.html" target="_top" xlink:title="CCP 型の定義">
<polygon fill="white" stroke="black" points="742.26,-151 742.26,-181 912.26,-181 912.26,-151 742.26,-151"/>
<text text-anchor="start" x="750.26" y="-169" font-family="Helvetica,sans-Serif" font-size="10.00">src_user/Settings/TlmCmd</text>
<text text-anchor="middle" x="827.26" y="-158" font-family="Helvetica,sans-Serif" font-size="10.00">/common_cmd_packet_define.h</text>
</a>
</g>
</g>
<!-- Node8&#45;&gt;Node10 -->
<g id="edge10" class="edge">
<title>Node8&#45;&gt;Node10</title>
<path fill="none" stroke="midnightblue" d="M827.26,-234.28C827.26,-223.8 827.26,-205.79 827.26,-191.03"/>
<polygon fill="midnightblue" stroke="midnightblue" points="830.76,-191.02 827.26,-181.02 823.76,-191.02 830.76,-191.02"/>
</g>
<!-- Node13 -->
<g id="node13" class="node">
<title>Node13</title>
<g id="a_node13"><a xlink:href="apid__define_8h.html" target="_top" xlink:title="CCSDS の APID を定義する">
<polygon fill="white" stroke="black" points="370.26,-151 370.26,-181 514.26,-181 514.26,-151 370.26,-151"/>
<text text-anchor="start" x="378.26" y="-169" font-family="Helvetica,sans-Serif" font-size="10.00">src_user/Settings/TlmCmd</text>
<text text-anchor="middle" x="442.26" y="-158" font-family="Helvetica,sans-Serif" font-size="10.00">/Ccsds/apid_define.h</text>
</a>
</g>
</g>
<!-- Node8&#45;&gt;Node13 -->
<g id="edge13" class="edge">
<title>Node8&#45;&gt;Node13</title>
<path fill="none" stroke="midnightblue" d="M783.85,-234.43C720.77,-221.98 602.65,-198.66 523.22,-182.98"/>
<polygon fill="midnightblue" stroke="midnightblue" points="523.73,-179.51 513.24,-181.01 522.38,-186.38 523.73,-179.51"/>
</g>
<!-- Node14 -->
<g id="node14" class="node">
<title>Node14</title>
<g id="a_node14"><a xlink:href="timeline__command__dispatcher__define_8h.html" target="_top" xlink:title="timeline command dispatcher の各種定義">
<polygon fill="white" stroke="black" points="1178.26,-145.5 1178.26,-186.5 1348.26,-186.5 1348.26,-145.5 1178.26,-145.5"/>
<text text-anchor="start" x="1186.26" y="-174.5" font-family="Helvetica,sans-Serif" font-size="10.00">src_user/Settings/Applications</text>
<text text-anchor="start" x="1186.26" y="-163.5" font-family="Helvetica,sans-Serif" font-size="10.00">/timeline_command_dispatcher</text>
<text text-anchor="middle" x="1263.26" y="-152.5" font-family="Helvetica,sans-Serif" font-size="10.00">_define.h</text>
</a>
</g>
</g>
<!-- Node8&#45;&gt;Node14 -->
<g id="edge14" class="edge">
<title>Node8&#45;&gt;Node14</title>
<path fill="none" stroke="midnightblue" d="M876.43,-234.43C946.95,-222.14 1078.19,-199.26 1168.08,-183.59"/>
<polygon fill="midnightblue" stroke="midnightblue" points="1168.76,-187.03 1178.01,-181.86 1167.55,-180.13 1168.76,-187.03"/>
</g>
<!-- Node11 -->
<g id="node11" class="node">
<title>Node11</title>
<g id="a_node11"><a xlink:href="space__packet__typedef_8h.html" target="_top" xlink:title="SpacePacket 類 と CommonTlmCmdPacket 類が相互参照するのを回避するためのヘッダ">
<polygon fill="white" stroke="black" points="30.76,-78.5 30.76,-108.5 167.76,-108.5 167.76,-78.5 30.76,-78.5"/>
<text text-anchor="start" x="38.76" y="-96.5" font-family="Helvetica,sans-Serif" font-size="10.00">src_core/TlmCmd/Ccsds</text>
<text text-anchor="middle" x="99.26" y="-85.5" font-family="Helvetica,sans-Serif" font-size="10.00">/space_packet_typedef.h</text>
</a>
</g>
</g>
<!-- Node10&#45;&gt;Node11 -->
<g id="edge11" class="edge">
<title>Node10&#45;&gt;Node11</title>
<path fill="none" stroke="midnightblue" d="M766.4,-150.98C755.1,-148.72 743.36,-146.6 732.26,-145 534.01,-116.34 298.29,-102.92 178.17,-97.55"/>
<polygon fill="midnightblue" stroke="midnightblue" points="178.11,-94.04 167.96,-97.1 177.8,-101.04 178.11,-94.04"/>
</g>
<!-- Node12 -->
<g id="node12" class="node">
<title>Node12</title>
<g id="a_node12"><a xlink:href="space__packet__typedef__params_8h.html" target="_top" xlink:title="SpacePacketの パケット型に関するユーザー設定">
<polygon fill="white" stroke="black" points="19.26,-0.5 19.26,-41.5 179.26,-41.5 179.26,-0.5 19.26,-0.5"/>
<text text-anchor="start" x="27.26" y="-29.5" font-family="Helvetica,sans-Serif" font-size="10.00">src_user/Settings/TlmCmd</text>
<text text-anchor="start" x="27.26" y="-18.5" font-family="Helvetica,sans-Serif" font-size="10.00">/Ccsds/space_packet_typedef</text>
<text text-anchor="middle" x="99.26" y="-7.5" font-family="Helvetica,sans-Serif" font-size="10.00">_params.h</text>
</a>
</g>
</g>
<!-- Node11&#45;&gt;Node12 -->
<g id="edge12" class="edge">
<title>Node11&#45;&gt;Node12</title>
<path fill="none" stroke="midnightblue" d="M99.26,-78.23C99.26,-70.57 99.26,-60.84 99.26,-51.63"/>
<polygon fill="midnightblue" stroke="midnightblue" points="102.76,-51.59 99.26,-41.59 95.76,-51.59 102.76,-51.59"/>
</g>
<!-- Node15&#45;&gt;Node8 -->
<g id="edge17" class="edge">
<title>Node15&#45;&gt;Node8</title>
<path fill="none" stroke="midnightblue" d="M1012.27,-357.49C978.38,-336.89 891.66,-284.15 850.12,-258.89"/>
<polygon fill="midnightblue" stroke="midnightblue" points="851.87,-255.87 841.51,-253.66 848.23,-261.85 851.87,-255.87"/>
</g>
<!-- Node16 -->
<g id="node16" class="node">
<title>Node16</title>
<g id="a_node16"><a xlink:title=" ">
<polygon fill="white" stroke="#bfbfbf" points="1141.26,-301.5 1141.26,-320.5 1197.26,-320.5 1197.26,-301.5 1141.26,-301.5"/>
<text text-anchor="middle" x="1169.26" y="-308.5" font-family="Helvetica,sans-Serif" font-size="10.00">stddef.h</text>
</a>
</g>
</g>
<!-- Node15&#45;&gt;Node16 -->
<g id="edge16" class="edge">
<title>Node15&#45;&gt;Node16</title>
<path fill="none" stroke="midnightblue" d="M1048.92,-357.44C1072.67,-348.48 1110.17,-334.31 1137,-324.18"/>
<polygon fill="midnightblue" stroke="midnightblue" points="1138.59,-327.32 1146.71,-320.52 1136.12,-320.77 1138.59,-327.32"/>
</g>
<!-- Node17 -->
<g id="node17" class="node">
<title>Node17</title>
<g id="a_node17"><a xlink:href="block__command__table_8h.html" target="_top" xlink:title="BCTの定義, BCT周りの関数">
<polygon fill="white" stroke="black" points="987.26,-301.5 987.26,-320.5 1123.26,-320.5 1123.26,-301.5 987.26,-301.5"/>
<text text-anchor="middle" x="1055.26" y="-308.5" font-family="Helvetica,sans-Serif" font-size="10.00">block_command_table.h</text>
</a>
</g>
</g>
<!-- Node15&#45;&gt;Node17 -->
<g id="edge18" class="edge">
<title>Node15&#45;&gt;Node17</title>
<path fill="none" stroke="midnightblue" d="M1031.05,-357.08C1035.02,-349.69 1040.79,-338.95 1045.7,-329.81"/>
<polygon fill="midnightblue" stroke="midnightblue" points="1048.92,-331.22 1050.56,-320.75 1042.75,-327.91 1048.92,-331.22"/>
</g>
<!-- Node17&#45;&gt;Node5 -->
<g id="edge19" class="edge">
<title>Node17&#45;&gt;Node5</title>
<path fill="none" stroke="midnightblue" d="M1040.89,-301.33C1029.38,-293.47 1014.08,-280.72 1007.26,-265 999.84,-247.87 997.74,-239.05 1007.26,-223 1024.32,-194.27 1056.21,-215.73 1073.26,-187 1082.79,-170.95 1084.22,-160.12 1073.26,-145 1061.2,-128.35 1012.74,-114.26 973.36,-105.22"/>
<polygon fill="midnightblue" stroke="midnightblue" points="974.09,-101.8 963.57,-103.04 972.57,-108.63 974.09,-101.8"/>
</g>
<!-- Node17&#45;&gt;Node8 -->
<g id="edge21" class="edge">
<title>Node17&#45;&gt;Node8</title>
<path fill="none" stroke="midnightblue" d="M1024.99,-301.37C984.33,-289.78 912.02,-269.16 867.02,-256.33"/>
<polygon fill="midnightblue" stroke="midnightblue" points="867.88,-252.94 857.3,-253.56 865.96,-259.67 867.88,-252.94"/>
</g>
<!-- Node18 -->
<g id="node18" class="node">
<title>Node18</title>
<g id="a_node18"><a xlink:href="block__command__table__params_8h.html" target="_top" xlink:title="BCTのCoreTlmパラメタのオーバーライド用ヘッダー">
<polygon fill="white" stroke="black" points="1015.76,-229 1015.76,-259 1196.76,-259 1196.76,-229 1015.76,-229"/>
<text text-anchor="start" x="1023.76" y="-247" font-family="Helvetica,sans-Serif" font-size="10.00">src_user/Settings/TlmCmd</text>
<text text-anchor="middle" x="1106.26" y="-236" font-family="Helvetica,sans-Serif" font-size="10.00">/block_command_table_params.h</text>
</a>
</g>
</g>
<!-- Node17&#45;&gt;Node18 -->
<g id="edge20" class="edge">
<title>Node17&#45;&gt;Node18</title>
<path fill="none" stroke="midnightblue" d="M1062.14,-301.23C1068.97,-292.53 1079.71,-278.84 1088.88,-267.15"/>
<polygon fill="midnightblue" stroke="midnightblue" points="1091.79,-269.12 1095.21,-259.09 1086.28,-264.8 1091.79,-269.12"/>
</g>
<!-- Node19&#45;&gt;Node4 -->
<g id="edge24" class="edge">
<title>Node19&#45;&gt;Node4</title>
<path fill="none" stroke="midnightblue" d="M1138.01,-413.36C1158.68,-394.68 1192.74,-359.63 1206.26,-321 1220.66,-279.89 1232.78,-257.55 1206.26,-223 1189.91,-201.69 1126.59,-186.71 1073.89,-177.64"/>
<polygon fill="midnightblue" stroke="midnightblue" points="1074.29,-174.16 1063.85,-175.96 1073.13,-181.06 1074.29,-174.16"/>
</g>
<!-- Node20&#45;&gt;Node15 -->
<g id="edge42" class="edge">
<title>Node20&#45;&gt;Node15</title>
<path fill="none" stroke="midnightblue" d="M1051.96,-547.38C1045.17,-538.79 1035.5,-524.91 1031.26,-511 1018.21,-468.17 1021.06,-414.76 1023.89,-386.9"/>
<polygon fill="midnightblue" stroke="midnightblue" points="1027.41,-386.96 1025.06,-376.63 1020.45,-386.17 1027.41,-386.96"/>
</g>
<!-- Node21 -->
<g id="node21" class="node">
<title>Node21</title>
<g id="a_node21"><a xlink:href="packet__handler__params_8h.html" target="_top" xlink:title="PHのCoreTlmパラメタのオーバーライド用ヘッダー">
<polygon fill="white" stroke="black" points="1273.76,-480.5 1273.76,-510.5 1418.76,-510.5 1418.76,-480.5 1273.76,-480.5"/>
<text text-anchor="start" x="1281.76" y="-498.5" font-family="Helvetica,sans-Serif" font-size="10.00">src_user/Settings/TlmCmd</text>
<text text-anchor="middle" x="1346.26" y="-487.5" font-family="Helvetica,sans-Serif" font-size="10.00">/packet_handler_params.h</text>
</a>
</g>
</g>
<!-- Node20&#45;&gt;Node21 -->
<g id="edge27" class="edge">
<title>Node20&#45;&gt;Node21</title>
<path fill="none" stroke="midnightblue" d="M1100.38,-547.48C1144.16,-538.4 1214.45,-523.83 1268.69,-512.58"/>
<polygon fill="midnightblue" stroke="midnightblue" points="1269.54,-515.98 1278.62,-510.52 1268.12,-509.13 1269.54,-515.98"/>
</g>
<!-- Node23 -->
<g id="node23" class="node">
<title>Node23</title>
<g id="a_node23"><a xlink:href="common__tlm__cmd__packet_8h.html" target="_top" xlink:title="CTCP 関連基本関数の宣言">
<polygon fill="white" stroke="black" points="446.26,-301.5 446.26,-320.5 600.26,-320.5 600.26,-301.5 446.26,-301.5"/>
<text text-anchor="middle" x="523.26" y="-308.5" font-family="Helvetica,sans-Serif" font-size="10.00">common_tlm_cmd_packet.h</text>
</a>
</g>
</g>
<!-- Node20&#45;&gt;Node23 -->
<g id="edge30" class="edge">
<title>Node20&#45;&gt;Node23</title>
<path fill="none" stroke="midnightblue" d="M983.05,-554.15C924.59,-550.33 843.04,-539.7 777.26,-511 673.2,-465.6 574.71,-367.36 538.19,-328.4"/>
<polygon fill="midnightblue" stroke="midnightblue" points="540.36,-325.58 530.99,-320.62 535.22,-330.34 540.36,-325.58"/>
</g>
<!-- Node28 -->
<g id="node28" class="node">
<title>Node28</title>
<g id="a_node28"><a xlink:href="timeline__command__dispatcher_8h.html" target="_top" xlink:title=" ">
<polygon fill="white" stroke="black" points="1039.76,-480.5 1039.76,-510.5 1174.76,-510.5 1174.76,-480.5 1039.76,-480.5"/>
<text text-anchor="start" x="1047.76" y="-498.5" font-family="Helvetica,sans-Serif" font-size="10.00">../Applications/timeline</text>
<text text-anchor="middle" x="1107.26" y="-487.5" font-family="Helvetica,sans-Serif" font-size="10.00">_command_dispatcher.h</text>
</a>
</g>
</g>
<!-- Node20&#45;&gt;Node28 -->
<g id="edge43" class="edge">
<title>Node20&#45;&gt;Node28</title>
<path fill="none" stroke="midnightblue" d="M1061.24,-547.48C1065.76,-539.79 1074.6,-528.17 1083.44,-517.96"/>
<polygon fill="midnightblue" stroke="midnightblue" points="1086.04,-520.3 1090.12,-510.52 1080.84,-515.62 1086.04,-520.3"/>
</g>
<!-- Node21&#45;&gt;Node14 -->
<g id="edge28" class="edge">
<title>Node21&#45;&gt;Node14</title>
<path fill="none" stroke="midnightblue" d="M1371.21,-480.45C1384.68,-471.64 1400.51,-459.1 1410.26,-444 1429.17,-414.76 1429.26,-402.82 1429.26,-368 1429.26,-368 1429.26,-368 1429.26,-310 1429.26,-252.94 1372.27,-213.65 1325.08,-190.9"/>
<polygon fill="midnightblue" stroke="midnightblue" points="1326.33,-187.62 1315.79,-186.57 1323.37,-193.97 1326.33,-187.62"/>
</g>
<!-- Node22 -->
<g id="node22" class="node">
<title>Node22</title>
<g id="a_node22"><a xlink:href="data__recorder__define_8h.html" target="_top" xlink:title="Data Recorder の各種定義">
<polygon fill="white" stroke="black" points="1291.26,-413.5 1291.26,-443.5 1401.26,-443.5 1401.26,-413.5 1291.26,-413.5"/>
<text text-anchor="start" x="1299.26" y="-431.5" font-family="Helvetica,sans-Serif" font-size="10.00">../Applications/data</text>
<text text-anchor="middle" x="1346.26" y="-420.5" font-family="Helvetica,sans-Serif" font-size="10.00">_recorder_define.h</text>
</a>
</g>
</g>
<!-- Node21&#45;&gt;Node22 -->
<g id="edge29" class="edge">
<title>Node21&#45;&gt;Node22</title>
<path fill="none" stroke="midnightblue" d="M1346.26,-480.4C1346.26,-472.64 1346.26,-462.81 1346.26,-453.86"/>
<polygon fill="midnightblue" stroke="midnightblue" points="1349.76,-453.58 1346.26,-443.58 1342.76,-453.58 1349.76,-453.58"/>
</g>
<!-- Node23&#45;&gt;Node5 -->
<g id="edge31" class="edge">
<title>Node23&#45;&gt;Node5</title>
<path fill="none" stroke="midnightblue" d="M522.22,-301.18C519.46,-273.44 515.12,-187.32 561.26,-145 601.06,-108.5 749.06,-98.25 841.86,-95.45"/>
<polygon fill="midnightblue" stroke="midnightblue" points="842.15,-98.95 852.05,-95.17 841.96,-91.95 842.15,-98.95"/>
</g>
<!-- Node23&#45;&gt;Node8 -->
<g id="edge40" class="edge">
<title>Node23&#45;&gt;Node8</title>
<path fill="none" stroke="midnightblue" d="M563.32,-301.44C618.34,-289.67 717.27,-268.52 777.14,-255.72"/>
<polygon fill="midnightblue" stroke="midnightblue" points="778.07,-259.1 787.12,-253.58 776.61,-252.25 778.07,-259.1"/>
</g>
<!-- Node23&#45;&gt;Node13 -->
<g id="edge41" class="edge">
<title>Node23&#45;&gt;Node13</title>
<path fill="none" stroke="midnightblue" d="M520.25,-301.26C514.54,-285.2 501.27,-250.11 485.26,-223 478.25,-211.13 469.1,-198.87 461.04,-188.87"/>
<polygon fill="midnightblue" stroke="midnightblue" points="463.66,-186.54 454.6,-181.05 458.26,-190.99 463.66,-186.54"/>
</g>
<!-- Node24 -->
<g id="node24" class="node">
<title>Node24</title>
<g id="a_node24"><a xlink:href="common__tlm__cmd__packet__define_8h.html" target="_top" xlink:title="CTCP 型の定義">
<polygon fill="white" stroke="black" points="45.26,-223.5 45.26,-264.5 193.26,-264.5 193.26,-223.5 45.26,-223.5"/>
<text text-anchor="start" x="53.26" y="-252.5" font-family="Helvetica,sans-Serif" font-size="10.00">src_user/Settings/TlmCmd</text>
<text text-anchor="start" x="53.26" y="-241.5" font-family="Helvetica,sans-Serif" font-size="10.00">/common_tlm_cmd_packet</text>
<text text-anchor="middle" x="119.26" y="-230.5" font-family="Helvetica,sans-Serif" font-size="10.00">_define.h</text>
</a>
</g>
</g>
<!-- Node23&#45;&gt;Node24 -->
<g id="edge32" class="edge">
<title>Node23&#45;&gt;Node24</title>
<path fill="none" stroke="midnightblue" d="M470.03,-301.44C402.12,-290.51 283.88,-271.48 203.63,-258.57"/>
<polygon fill="midnightblue" stroke="midnightblue" points="203.98,-255.09 193.55,-256.95 202.87,-262 203.98,-255.09"/>
</g>
<!-- Node25 -->
<g id="node25" class="node">
<title>Node25</title>
<g id="a_node25"><a xlink:href="common__tlm__packet_8h.html" target="_top" xlink:title="CTP 関連基本関数の宣言">
<polygon fill="white" stroke="black" points="342.26,-234.5 342.26,-253.5 476.26,-253.5 476.26,-234.5 342.26,-234.5"/>
<text text-anchor="middle" x="409.26" y="-241.5" font-family="Helvetica,sans-Serif" font-size="10.00">./common_tlm_packet.h</text>
</a>
</g>
</g>
<!-- Node23&#45;&gt;Node25 -->
<g id="edge34" class="edge">
<title>Node23&#45;&gt;Node25</title>
<path fill="none" stroke="midnightblue" d="M507.89,-301.23C488.75,-290.32 455.83,-271.55 433.33,-258.72"/>
<polygon fill="midnightblue" stroke="midnightblue" points="434.82,-255.54 424.4,-253.63 431.35,-261.62 434.82,-255.54"/>
</g>
<!-- Node24&#45;&gt;Node11 -->
<g id="edge33" class="edge">
<title>Node24&#45;&gt;Node11</title>
<path fill="none" stroke="midnightblue" d="M51.16,-223.47C33.89,-215.11 17.38,-203.37 7.26,-187 -2.55,-171.12 -2.24,-161.06 7.26,-145 15.49,-131.11 29.04,-120.78 43.24,-113.22"/>
<polygon fill="midnightblue" stroke="midnightblue" points="45.17,-116.17 52.62,-108.64 42.1,-109.88 45.17,-116.17"/>
</g>
<!-- Node25&#45;&gt;Node4 -->
<g id="edge35" class="edge">
<title>Node25&#45;&gt;Node4</title>
<path fill="none" stroke="midnightblue" d="M476.41,-238.85C574.7,-232.05 763.22,-216.27 921.26,-187 926.71,-185.99 932.35,-184.8 937.97,-183.51"/>
<polygon fill="midnightblue" stroke="midnightblue" points="939.13,-186.83 948.04,-181.09 937.5,-180.02 939.13,-186.83"/>
</g>
<!-- Node25&#45;&gt;Node13 -->
<g id="edge39" class="edge">
<title>Node25&#45;&gt;Node13</title>
<path fill="none" stroke="midnightblue" d="M413.05,-234.28C417.64,-223.7 425.58,-205.43 432.02,-190.6"/>
<polygon fill="midnightblue" stroke="midnightblue" points="435.4,-191.59 436.18,-181.02 428.98,-188.8 435.4,-191.59"/>
</g>
<!-- Node26 -->
<g id="node26" class="node">
<title>Node26</title>
<g id="a_node26"><a xlink:href="telemetry__definitions_8h.html" target="_top" xlink:title="テレメトリ定義">
<polygon fill="white" stroke="black" points="200.26,-151 200.26,-181 352.26,-181 352.26,-151 200.26,-151"/>
<text text-anchor="start" x="208.26" y="-169" font-family="Helvetica,sans-Serif" font-size="10.00">src_user/TlmCmd/telemetry</text>
<text text-anchor="middle" x="276.26" y="-158" font-family="Helvetica,sans-Serif" font-size="10.00">_definitions.h</text>
</a>
</g>
</g>
<!-- Node25&#45;&gt;Node26 -->
<g id="edge36" class="edge">
<title>Node25&#45;&gt;Node26</title>
<path fill="none" stroke="midnightblue" d="M394.27,-234.43C373.88,-222.78 336.86,-201.62 309.7,-186.11"/>
<polygon fill="midnightblue" stroke="midnightblue" points="311.33,-183 300.91,-181.08 307.85,-189.08 311.33,-183"/>
</g>
<!-- Node27 -->
<g id="node27" class="node">
<title>Node27</title>
<g id="a_node27"><a xlink:href="common__tlm__packet__define_8h.html" target="_top" xlink:title="CTP 型の定義">
<polygon fill="white" stroke="black" points="16.26,-151 16.26,-181 182.26,-181 182.26,-151 16.26,-151"/>
<text text-anchor="start" x="24.26" y="-169" font-family="Helvetica,sans-Serif" font-size="10.00">src_user/Settings/TlmCmd</text>
<text text-anchor="middle" x="99.26" y="-158" font-family="Helvetica,sans-Serif" font-size="10.00">/common_tlm_packet_define.h</text>
</a>
</g>
</g>
<!-- Node25&#45;&gt;Node27 -->
<g id="edge37" class="edge">
<title>Node25&#45;&gt;Node27</title>
<path fill="none" stroke="midnightblue" d="M374.31,-234.43C324.03,-222.1 230.34,-199.13 166.41,-183.46"/>
<polygon fill="midnightblue" stroke="midnightblue" points="166.96,-179.99 156.42,-181.01 165.3,-186.79 166.96,-179.99"/>
</g>
<!-- Node27&#45;&gt;Node11 -->
<g id="edge38" class="edge">
<title>Node27&#45;&gt;Node11</title>
<path fill="none" stroke="midnightblue" d="M99.26,-150.73C99.26,-141.66 99.26,-129.66 99.26,-119.08"/>
<polygon fill="midnightblue" stroke="midnightblue" points="102.76,-118.75 99.26,-108.75 95.76,-118.75 102.76,-118.75"/>
</g>
<!-- Node28&#45;&gt;Node3 -->
<g id="edge45" class="edge">
<title>Node28&#45;&gt;Node3</title>
<path fill="none" stroke="midnightblue" d="M1052.46,-480.48C1005.75,-468.52 939.52,-451.57 896.47,-440.56"/>
<polygon fill="midnightblue" stroke="midnightblue" points="897.15,-437.12 886.59,-438.03 895.41,-443.9 897.15,-437.12"/>
</g>
<!-- Node28&#45;&gt;Node8 -->
<g id="edge46" class="edge">
<title>Node28&#45;&gt;Node8</title>
<path fill="none" stroke="midnightblue" d="M1083.53,-480.33C1068.12,-470.75 1047.9,-457.44 1031.26,-444 954.67,-382.1 873.86,-296.15 841.69,-260.98"/>
<polygon fill="midnightblue" stroke="midnightblue" points="844.24,-258.57 834.92,-253.53 839.06,-263.28 844.24,-258.57"/>
</g>
<!-- Node28&#45;&gt;Node14 -->
<g id="edge44" class="edge">
<title>Node28&#45;&gt;Node14</title>
<path fill="none" stroke="midnightblue" d="M1150.72,-480.38C1196.88,-462.32 1263.26,-426.23 1263.26,-368 1263.26,-368 1263.26,-368 1263.26,-310 1263.26,-271.04 1263.26,-226.1 1263.26,-197.16"/>
<polygon fill="midnightblue" stroke="midnightblue" points="1266.76,-196.89 1263.26,-186.89 1259.76,-196.89 1266.76,-196.89"/>
</g>
<!-- Node28&#45;&gt;Node19 -->
<g id="edge48" class="edge">
<title>Node28&#45;&gt;Node19</title>
<path fill="none" stroke="midnightblue" d="M1110.3,-480.4C1111.99,-472.56 1114.14,-462.6 1116.08,-453.57"/>
<polygon fill="midnightblue" stroke="midnightblue" points="1119.55,-454.09 1118.23,-443.58 1112.71,-452.62 1119.55,-454.09"/>
</g>
<!-- Node28&#45;&gt;Node20 -->
<g id="edge47" class="edge">
<title>Node28&#45;&gt;Node20</title>
<path fill="none" stroke="midnightblue" d="M1101.78,-510.52C1095.77,-519.39 1086.58,-530.88 1078.15,-540.09"/>
<polygon fill="midnightblue" stroke="midnightblue" points="1075.46,-537.84 1071.04,-547.48 1080.5,-542.7 1075.46,-537.84"/>
</g>
</g>
</svg>
