<?xml version="1.0" encoding="UTF-8" standalone="no"?>
<!DOCTYPE svg PUBLIC "-//W3C//DTD SVG 1.1//EN"
 "http://www.w3.org/Graphics/SVG/1.1/DTD/svg11.dtd">
<!-- Generated by graphviz version 2.43.0 (0)
 -->
<!-- Title: SP_get_packet_data_len Pages: 1 -->
<svg width="1271pt" height="1094pt"
 viewBox="0.00 0.00 1271.00 1094.00" xmlns="http://www.w3.org/2000/svg" xmlns:xlink="http://www.w3.org/1999/xlink">
<g id="graph0" class="graph" transform="scale(1 1) rotate(0) translate(4 1090)">
<title>SP_get_packet_data_len</title>
<polygon fill="white" stroke="transparent" points="-4,4 -4,-1090 1267,-1090 1267,4 -4,4"/>
<!-- Node1 -->
<g id="node1" class="node">
<title>Node1</title>
<g id="a_node1"><a xlink:title="Packet Data Length を取得">
<polygon fill="#bfbfbf" stroke="black" points="1129,-285.5 1129,-304.5 1263,-304.5 1263,-285.5 1129,-285.5"/>
<text text-anchor="middle" x="1196" y="-292.5" font-family="Helvetica,sans-Serif" font-size="10.00">SP_get_packet_data_len</text>
</a>
</g>
</g>
<!-- Node2 -->
<g id="node2" class="node">
<title>Node2</title>
<g id="a_node2"><a xlink:href="cmd__space__packet_8c.html#a88497aa9871f0ffba50a66525ab470b0" target="_top" xlink:title="Packet Data Length を取得">
<polygon fill="white" stroke="black" points="952,-323.5 952,-342.5 1093,-342.5 1093,-323.5 952,-323.5"/>
<text text-anchor="middle" x="1022.5" y="-330.5" font-family="Helvetica,sans-Serif" font-size="10.00">CSP_get_packet_data_len</text>
</a>
</g>
</g>
<!-- Node1&#45;&gt;Node2 -->
<g id="edge1" class="edge">
<title>Node1&#45;&gt;Node2</title>
<path fill="none" stroke="midnightblue" d="M1141.96,-306.75C1117.71,-312.13 1089.35,-318.41 1066.47,-323.48"/>
<polygon fill="midnightblue" stroke="midnightblue" points="1142.72,-310.17 1151.72,-304.59 1141.2,-303.34 1142.72,-310.17"/>
</g>
<!-- Node3 -->
<g id="node3" class="node">
<title>Node3</title>
<g id="a_node3"><a xlink:href="space__packet_8c.html#a25afed909fb67da49f5ac9921a23744f" target="_top" xlink:title="Packet Length を取得">
<polygon fill="white" stroke="black" points="969,-285.5 969,-304.5 1076,-304.5 1076,-285.5 969,-285.5"/>
<text text-anchor="middle" x="1022.5" y="-292.5" font-family="Helvetica,sans-Serif" font-size="10.00">SP_get_packet_len</text>
</a>
</g>
</g>
<!-- Node1&#45;&gt;Node3 -->
<g id="edge2" class="edge">
<title>Node1&#45;&gt;Node3</title>
<path fill="none" stroke="midnightblue" d="M1118.37,-295C1104.08,-295 1089.44,-295 1076.08,-295"/>
<polygon fill="midnightblue" stroke="midnightblue" points="1118.69,-298.5 1128.69,-295 1118.69,-291.5 1118.69,-298.5"/>
</g>
<!-- Node178 -->
<g id="node50" class="node">
<title>Node178</title>
<g id="a_node50"><a xlink:href="tlm__space__packet_8c.html#a918d0be3151b0e50cd88d9384017023c" target="_top" xlink:title="Packet Data Length を取得">
<polygon fill="white" stroke="black" points="952.5,-247.5 952.5,-266.5 1092.5,-266.5 1092.5,-247.5 952.5,-247.5"/>
<text text-anchor="middle" x="1022.5" y="-254.5" font-family="Helvetica,sans-Serif" font-size="10.00">TSP_get_packet_data_len</text>
</a>
</g>
</g>
<!-- Node1&#45;&gt;Node178 -->
<g id="edge56" class="edge">
<title>Node1&#45;&gt;Node178</title>
<path fill="none" stroke="midnightblue" d="M1141.96,-283.25C1117.71,-277.87 1089.35,-271.59 1066.47,-266.52"/>
<polygon fill="midnightblue" stroke="midnightblue" points="1141.2,-286.66 1151.72,-285.41 1142.72,-279.83 1141.2,-286.66"/>
</g>
<!-- Node4 -->
<g id="node4" class="node">
<title>Node4</title>
<g id="a_node4"><a xlink:href="cmd__space__packet_8c.html#aee157565d728de693218da48114b5923" target="_top" xlink:title="Packet Length を取得">
<polygon fill="white" stroke="black" points="799,-603.5 799,-622.5 913,-622.5 913,-603.5 799,-603.5"/>
<text text-anchor="middle" x="856" y="-610.5" font-family="Helvetica,sans-Serif" font-size="10.00">CSP_get_packet_len</text>
</a>
</g>
</g>
<!-- Node3&#45;&gt;Node4 -->
<g id="edge3" class="edge">
<title>Node3&#45;&gt;Node4</title>
<path fill="none" stroke="midnightblue" d="M959.85,-307.9C957.03,-309.68 954.39,-311.7 952,-314 864.58,-397.93 857.36,-561.83 856.96,-603.29"/>
<polygon fill="midnightblue" stroke="midnightblue" points="961.5,-310.98 968.72,-303.23 958.24,-304.78 961.5,-310.98"/>
</g>
<!-- Node137 -->
<g id="node30" class="node">
<title>Node137</title>
<g id="a_node30"><a xlink:href="common__tlm__cmd__packet_8h.html#a3b5cbc5a345efdd6e9e7d135478b4868" target="_top" xlink:title="パケット長を取得">
<polygon fill="white" stroke="black" points="796,-323.5 796,-342.5 916,-342.5 916,-323.5 796,-323.5"/>
<text text-anchor="middle" x="856" y="-330.5" font-family="Helvetica,sans-Serif" font-size="10.00">CTCP_get_packet_len</text>
</a>
</g>
</g>
<!-- Node3&#45;&gt;Node137 -->
<g id="edge33" class="edge">
<title>Node3&#45;&gt;Node137</title>
<path fill="none" stroke="midnightblue" d="M970,-306.9C946.88,-312.24 919.97,-318.45 898.21,-323.48"/>
<polygon fill="midnightblue" stroke="midnightblue" points="971.03,-310.25 979.99,-304.59 969.46,-303.43 971.03,-310.25"/>
</g>
<!-- Node146 -->
<g id="node36" class="node">
<title>Node146</title>
<g id="a_node36"><a xlink:href="space__packet_8c.html#af2e7ada2c7544c10e11bb9c7473485fa" target="_top" xlink:title="SpacePacket をコピー">
<polygon fill="white" stroke="black" points="808.5,-247.5 808.5,-266.5 903.5,-266.5 903.5,-247.5 808.5,-247.5"/>
<text text-anchor="middle" x="856" y="-254.5" font-family="Helvetica,sans-Serif" font-size="10.00">SP_copy_packet</text>
</a>
</g>
</g>
<!-- Node3&#45;&gt;Node146 -->
<g id="edge41" class="edge">
<title>Node3&#45;&gt;Node146</title>
<path fill="none" stroke="midnightblue" d="M970,-283.1C946.88,-277.76 919.97,-271.55 898.21,-266.52"/>
<polygon fill="midnightblue" stroke="midnightblue" points="969.46,-286.57 979.99,-285.41 971.03,-279.75 969.46,-286.57"/>
</g>
<!-- Node161 -->
<g id="node42" class="node">
<title>Node161</title>
<g id="a_node42"><a xlink:href="tlm__space__packet_8c.html#a51745cb62959205762b4b2430f81804f" target="_top" xlink:title="Packet Length を取得">
<polygon fill="white" stroke="black" points="799.5,-114.5 799.5,-133.5 912.5,-133.5 912.5,-114.5 799.5,-114.5"/>
<text text-anchor="middle" x="856" y="-121.5" font-family="Helvetica,sans-Serif" font-size="10.00">TSP_get_packet_len</text>
</a>
</g>
</g>
<!-- Node3&#45;&gt;Node161 -->
<g id="edge47" class="edge">
<title>Node3&#45;&gt;Node161</title>
<path fill="none" stroke="midnightblue" d="M960.05,-281.1C957.23,-279.57 954.53,-277.88 952,-276 925.41,-256.22 877.3,-164.13 861.89,-133.75"/>
<polygon fill="midnightblue" stroke="midnightblue" points="958.84,-284.4 969.38,-285.43 961.78,-278.05 958.84,-284.4"/>
</g>
<!-- Node5 -->
<g id="node5" class="node">
<title>Node5</title>
<g id="a_node5"><a xlink:href="common__cmd__packet_8h.html#a09b2e0ad8f87be0782c0f8ef2523f44c" target="_top" xlink:title="パケット長を取得">
<polygon fill="white" stroke="black" points="626,-971.5 626,-990.5 741,-990.5 741,-971.5 626,-971.5"/>
<text text-anchor="middle" x="683.5" y="-978.5" font-family="Helvetica,sans-Serif" font-size="10.00">CCP_get_packet_len</text>
</a>
</g>
</g>
<!-- Node4&#45;&gt;Node5 -->
<g id="edge4" class="edge">
<title>Node4&#45;&gt;Node5</title>
<path fill="none" stroke="midnightblue" d="M846.09,-632.24C814.97,-699.4 711.82,-922.04 689,-971.3"/>
<polygon fill="midnightblue" stroke="midnightblue" points="849.41,-633.39 850.44,-622.84 843.06,-630.45 849.41,-633.39"/>
</g>
<!-- Node117 -->
<g id="node15" class="node">
<title>Node117</title>
<g id="a_node15"><a xlink:href="cmd__space__packet_8c.html#ad01de2632e93794f7c77749eb788ad74" target="_top" xlink:title="Param Length を取得">
<polygon fill="white" stroke="black" points="627,-603.5 627,-622.5 740,-622.5 740,-603.5 627,-603.5"/>
<text text-anchor="middle" x="683.5" y="-610.5" font-family="Helvetica,sans-Serif" font-size="10.00">CSP_get_param_len</text>
</a>
</g>
</g>
<!-- Node4&#45;&gt;Node117 -->
<g id="edge15" class="edge">
<title>Node4&#45;&gt;Node117</title>
<path fill="none" stroke="midnightblue" d="M788.37,-613C772.42,-613 755.56,-613 740.16,-613"/>
<polygon fill="midnightblue" stroke="midnightblue" points="788.7,-616.5 798.7,-613 788.7,-609.5 788.7,-616.5"/>
</g>
<!-- Node6 -->
<g id="node6" class="node">
<title>Node6</title>
<g id="a_node6"><a xlink:href="block__command__table_8c.html#aa8c676311a614f56a48444ffb17f7e87" target="_top" xlink:title="pos の指す場所に packet の内容を保存 (TCP_PRM_HDR_LEN の長さも考慮)">
<polygon fill="white" stroke="black" points="445.5,-1028.5 445.5,-1047.5 541.5,-1047.5 541.5,-1028.5 445.5,-1028.5"/>
<text text-anchor="middle" x="493.5" y="-1035.5" font-family="Helvetica,sans-Serif" font-size="10.00">BCT_save_cmd_</text>
</a>
</g>
</g>
<!-- Node5&#45;&gt;Node6 -->
<g id="edge5" class="edge">
<title>Node5&#45;&gt;Node6</title>
<path fill="none" stroke="midnightblue" d="M641.21,-993.52C606.52,-1004.04 557.69,-1018.84 526.07,-1028.43"/>
<polygon fill="midnightblue" stroke="midnightblue" points="642.48,-996.79 651.03,-990.54 640.45,-990.09 642.48,-996.79"/>
</g>
<!-- Node77 -->
<g id="node10" class="node">
<title>Node77</title>
<g id="a_node10"><a xlink:href="common__tlm__cmd__packet__for__driver__super_8c.html#a40adc5e0e6a976c720682df078eb7876" target="_top" xlink:title="CommonCmdPacket を受信データからコピーして取得する">
<polygon fill="white" stroke="black" points="219,-990.5 219,-1009.5 353,-1009.5 353,-990.5 219,-990.5"/>
<text text-anchor="middle" x="286" y="-997.5" font-family="Helvetica,sans-Serif" font-size="10.00">CCP_get_ccp_from_dssc</text>
</a>
</g>
</g>
<!-- Node5&#45;&gt;Node77 -->
<g id="edge9" class="edge">
<title>Node5&#45;&gt;Node77</title>
<path fill="none" stroke="midnightblue" d="M615.81,-984.2C542.68,-987.72 426.04,-993.32 353.13,-996.82"/>
<polygon fill="midnightblue" stroke="midnightblue" points="616.01,-987.7 625.83,-983.72 615.68,-980.71 616.01,-987.7"/>
</g>
<!-- Node78 -->
<g id="node11" class="node">
<title>Node78</title>
<g id="a_node11"><a xlink:href="common__cmd__packet_8h.html#add63f4e739670d463f6ace1f55fa3d48" target="_top" xlink:title="有効なパケットかチェックする">
<polygon fill="white" stroke="black" points="435.5,-952.5 435.5,-971.5 551.5,-971.5 551.5,-952.5 435.5,-952.5"/>
<text text-anchor="middle" x="493.5" y="-959.5" font-family="Helvetica,sans-Serif" font-size="10.00">CCP_is_valid_packet</text>
</a>
</g>
</g>
<!-- Node5&#45;&gt;Node78 -->
<g id="edge10" class="edge">
<title>Node5&#45;&gt;Node78</title>
<path fill="none" stroke="midnightblue" d="M615.74,-974.25C594.81,-972.14 571.9,-969.82 551.69,-967.78"/>
<polygon fill="midnightblue" stroke="midnightblue" points="615.54,-977.75 625.84,-975.27 616.24,-970.79 615.54,-977.75"/>
</g>
<!-- Node7 -->
<g id="node7" class="node">
<title>Node7</title>
<g id="a_node7"><a xlink:href="block__command__table_8c.html#a164ccb35114540791acacd185a326d1b" target="_top" xlink:title="既に登録されている BC の Cmd の中身を外部から上書きする">
<polygon fill="white" stroke="red" points="229,-1028.5 229,-1047.5 343,-1047.5 343,-1028.5 229,-1028.5"/>
<text text-anchor="middle" x="286" y="-1035.5" font-family="Helvetica,sans-Serif" font-size="10.00">BCT_overwrite_cmd</text>
</a>
</g>
</g>
<!-- Node6&#45;&gt;Node7 -->
<g id="edge6" class="edge">
<title>Node6&#45;&gt;Node7</title>
<path fill="none" stroke="midnightblue" d="M435.05,-1038C406.29,-1038 371.61,-1038 343.05,-1038"/>
<polygon fill="midnightblue" stroke="midnightblue" points="435.35,-1041.5 445.35,-1038 435.35,-1034.5 435.35,-1041.5"/>
</g>
<!-- Node22 -->
<g id="node9" class="node">
<title>Node22</title>
<g id="a_node9"><a xlink:href="block__command__table_8c.html#af4f041d9c2411d039196e8c2eb786005" target="_top" xlink:title="Cmd を block_command_table&#45;&gt;pos に登録する">
<polygon fill="white" stroke="red" points="233.5,-1066.5 233.5,-1085.5 338.5,-1085.5 338.5,-1066.5 233.5,-1066.5"/>
<text text-anchor="middle" x="286" y="-1073.5" font-family="Helvetica,sans-Serif" font-size="10.00">BCT_register_cmd</text>
</a>
</g>
</g>
<!-- Node6&#45;&gt;Node22 -->
<g id="edge8" class="edge">
<title>Node6&#45;&gt;Node22</title>
<path fill="none" stroke="midnightblue" d="M435.35,-1048.57C405.02,-1054.18 368.06,-1061.01 338.61,-1066.46"/>
<polygon fill="midnightblue" stroke="midnightblue" points="436.16,-1051.98 445.35,-1046.72 434.88,-1045.09 436.16,-1051.98"/>
</g>
<!-- Node8 -->
<g id="node8" class="node">
<title>Node8</title>
<g id="a_node8"><a xlink:href="block__command__table_8c.html#a2861c4b00ce9134d0ed5f6c27e3ae676" target="_top" xlink:title=" ">
<polygon fill="white" stroke="red" points="0,-876.5 0,-895.5 156,-895.5 156,-876.5 0,-876.5"/>
<text text-anchor="middle" x="78" y="-883.5" font-family="Helvetica,sans-Serif" font-size="10.00">Cmd_BCT_OVERWRITE_CMD</text>
</a>
</g>
</g>
<!-- Node7&#45;&gt;Node8 -->
<g id="edge7" class="edge">
<title>Node7&#45;&gt;Node8</title>
<path fill="none" stroke="midnightblue" d="M218.89,-1033.14C209.1,-1030.08 199.72,-1025.57 192,-1019 157.61,-989.74 186.36,-957.43 156,-924 143.97,-910.76 126.3,-901.58 110.92,-895.57"/>
<polygon fill="midnightblue" stroke="midnightblue" points="218.21,-1036.58 228.78,-1035.74 219.99,-1029.81 218.21,-1036.58"/>
</g>
<!-- Node78&#45;&gt;Node77 -->
<g id="edge11" class="edge">
<title>Node78&#45;&gt;Node77</title>
<path fill="none" stroke="midnightblue" d="M430.75,-973.42C401.35,-978.86 366.59,-985.28 338.61,-990.46"/>
<polygon fill="midnightblue" stroke="midnightblue" points="431.71,-976.8 440.91,-971.54 430.44,-969.92 431.71,-976.8"/>
</g>
<!-- Node59 -->
<g id="node12" class="node">
<title>Node59</title>
<g id="a_node12"><a xlink:href="packet__handler_8c.html#a9d16c8b958f0f983cf15674d6c528b02" target="_top" xlink:title="CCP を解析する">
<polygon fill="white" stroke="red" points="217.5,-838.5 217.5,-857.5 354.5,-857.5 354.5,-838.5 217.5,-838.5"/>
<text text-anchor="middle" x="286" y="-845.5" font-family="Helvetica,sans-Serif" font-size="10.00">PH_analyze_cmd_packet</text>
</a>
</g>
</g>
<!-- Node78&#45;&gt;Node59 -->
<g id="edge12" class="edge">
<title>Node78&#45;&gt;Node59</title>
<path fill="none" stroke="midnightblue" d="M466.4,-947.52C423.76,-923.87 340.31,-877.57 304.26,-857.58"/>
<polygon fill="midnightblue" stroke="midnightblue" points="464.89,-950.69 475.33,-952.48 468.29,-944.56 464.89,-950.69"/>
</g>
<!-- Node79 -->
<g id="node14" class="node">
<title>Node79</title>
<g id="a_node14"><a xlink:href="packet__handler_8c.html#aa0decb14f7fee73ca1ed3e9a10b05087" target="_top" xlink:title="CCP をコマンドとして解釈して実行，ないしは別機器へ配送する">
<polygon fill="white" stroke="red" points="12.5,-933.5 12.5,-952.5 143.5,-952.5 143.5,-933.5 12.5,-933.5"/>
<text text-anchor="middle" x="78" y="-940.5" font-family="Helvetica,sans-Serif" font-size="10.00">PH_dispatch_command</text>
</a>
</g>
</g>
<!-- Node78&#45;&gt;Node79 -->
<g id="edge14" class="edge">
<title>Node78&#45;&gt;Node79</title>
<path fill="none" stroke="midnightblue" d="M425.27,-958.91C347.48,-955.34 220.3,-949.49 143.63,-945.97"/>
<polygon fill="midnightblue" stroke="midnightblue" points="425.29,-962.42 435.44,-959.38 425.61,-955.42 425.29,-962.42"/>
</g>
<!-- Node76 -->
<g id="node13" class="node">
<title>Node76</title>
<g id="a_node13"><a xlink:href="packet__handler_8c.html#acf757fa72967bf66b39dc5ced7132330" target="_top" xlink:title="CTCP を解析する">
<polygon fill="white" stroke="black" points="22.5,-562.5 22.5,-581.5 133.5,-581.5 133.5,-562.5 22.5,-562.5"/>
<text text-anchor="middle" x="78" y="-569.5" font-family="Helvetica,sans-Serif" font-size="10.00">PH_analyze_packet</text>
</a>
</g>
</g>
<!-- Node59&#45;&gt;Node76 -->
<g id="edge13" class="edge">
<title>Node59&#45;&gt;Node76</title>
<path fill="none" stroke="midnightblue" d="M207.46,-838.38C201.92,-835.87 196.68,-832.78 192,-829 108.37,-761.5 84.97,-619.62 80.09,-581.56"/>
<polygon fill="midnightblue" stroke="midnightblue" points="206.44,-841.74 217.03,-842.1 208.98,-835.22 206.44,-841.74"/>
</g>
<!-- Node118 -->
<g id="node16" class="node">
<title>Node118</title>
<g id="a_node16"><a xlink:href="common__cmd__packet_8h.html#a6f37129ce7654260af1f8a565f6423fc" target="_top" xlink:title="CMD パラメタ長を取得">
<polygon fill="white" stroke="red" points="436.5,-603.5 436.5,-622.5 550.5,-622.5 550.5,-603.5 436.5,-603.5"/>
<text text-anchor="middle" x="493.5" y="-610.5" font-family="Helvetica,sans-Serif" font-size="10.00">CCP_get_param_len</text>
</a>
</g>
</g>
<!-- Node117&#45;&gt;Node118 -->
<g id="edge16" class="edge">
<title>Node117&#45;&gt;Node118</title>
<path fill="none" stroke="midnightblue" d="M616.79,-613C595.22,-613 571.45,-613 550.65,-613"/>
<polygon fill="midnightblue" stroke="midnightblue" points="616.86,-616.5 626.86,-613 616.86,-609.5 616.86,-616.5"/>
</g>
<!-- Node118&#45;&gt;Node8 -->
<g id="edge32" class="edge">
<title>Node118&#45;&gt;Node8</title>
<path fill="none" stroke="midnightblue" d="M490.55,-632.48C484.47,-681.57 461.14,-810.48 380,-867 345.09,-891.32 233.22,-892.42 156.16,-889.98"/>
<polygon fill="midnightblue" stroke="midnightblue" points="494.03,-632.86 491.67,-622.53 487.07,-632.07 494.03,-632.86"/>
</g>
<!-- Node119 -->
<g id="node17" class="node">
<title>Node119</title>
<g id="a_node17"><a xlink:href="command__analyze_8c.html#ad02652c85c829b1f04670f2300d713b3" target="_top" xlink:title="コマンド実行の本体">
<polygon fill="white" stroke="black" points="236,-914.5 236,-933.5 336,-933.5 336,-914.5 236,-914.5"/>
<text text-anchor="middle" x="286" y="-921.5" font-family="Helvetica,sans-Serif" font-size="10.00">CA_execute_cmd</text>
</a>
</g>
</g>
<!-- Node118&#45;&gt;Node119 -->
<g id="edge17" class="edge">
<title>Node118&#45;&gt;Node119</title>
<path fill="none" stroke="midnightblue" d="M490.78,-632.91C485.17,-685.07 462.68,-826.76 380,-900 367.89,-910.72 351.61,-916.77 336.05,-920.14"/>
<polygon fill="midnightblue" stroke="midnightblue" points="494.29,-632.97 491.78,-622.67 487.32,-632.29 494.29,-632.97"/>
</g>
<!-- Node120 -->
<g id="node18" class="node">
<title>Node120</title>
<g id="a_node18"><a xlink:href="common__cmd__packet__util_8c.html#ac42b13a9649fc0a2622e4c41460e2bf6" target="_top" xlink:title="CCP packet から，RAW コマンド引数を取得する">
<polygon fill="white" stroke="red" points="213,-789 213,-819 359,-819 359,-789 213,-789"/>
<text text-anchor="start" x="221" y="-807" font-family="Helvetica,sans-Serif" font-size="10.00">CCP_get_raw_param_from</text>
<text text-anchor="middle" x="286" y="-796" font-family="Helvetica,sans-Serif" font-size="10.00">_packet</text>
</a>
</g>
</g>
<!-- Node118&#45;&gt;Node120 -->
<g id="edge19" class="edge">
<title>Node118&#45;&gt;Node120</title>
<path fill="none" stroke="midnightblue" d="M485.02,-632.26C470.39,-667.3 434.59,-741.42 380,-780 373.74,-784.43 366.72,-788.04 359.43,-790.98"/>
<polygon fill="midnightblue" stroke="midnightblue" points="488.37,-633.3 488.88,-622.72 481.88,-630.68 488.37,-633.3"/>
</g>
<!-- Node122 -->
<g id="node19" class="node">
<title>Node122</title>
<g id="a_node19"><a xlink:href="common__cmd__packet__util_8c.html#afc0bbfba6ff06491ad012b8885b54d79" target="_top" xlink:title="CCP packet から，RAW コマンド引数の長さを返す">
<polygon fill="white" stroke="red" points="217.5,-625.5 217.5,-644.5 354.5,-644.5 354.5,-625.5 217.5,-625.5"/>
<text text-anchor="middle" x="286" y="-632.5" font-family="Helvetica,sans-Serif" font-size="10.00">CCP_get_raw_param_len</text>
</a>
</g>
</g>
<!-- Node118&#45;&gt;Node122 -->
<g id="edge21" class="edge">
<title>Node118&#45;&gt;Node122</title>
<path fill="none" stroke="midnightblue" d="M426.38,-620.08C403.49,-622.53 377.81,-625.28 354.79,-627.74"/>
<polygon fill="midnightblue" stroke="midnightblue" points="426.78,-623.56 436.35,-619.01 426.03,-616.6 426.78,-623.56"/>
</g>
<!-- Node124 -->
<g id="node20" class="node">
<title>Node124</title>
<g id="a_node20"><a xlink:href="block__command__executor_8c.html#a465f4293a545f0765d879cbf07cb08ab" target="_top" xlink:title=" ">
<polygon fill="white" stroke="red" points="209,-576 209,-606 363,-606 363,-576 209,-576"/>
<text text-anchor="start" x="217" y="-594" font-family="Helvetica,sans-Serif" font-size="10.00">Cmd_BCE_ACTIVATE_BLOCK</text>
<text text-anchor="middle" x="286" y="-583" font-family="Helvetica,sans-Serif" font-size="10.00">_BY_ID</text>
</a>
</g>
</g>
<!-- Node118&#45;&gt;Node124 -->
<g id="edge22" class="edge">
<title>Node118&#45;&gt;Node124</title>
<path fill="none" stroke="midnightblue" d="M426.34,-605.92C406.18,-603.76 383.87,-601.37 363.12,-599.15"/>
<polygon fill="midnightblue" stroke="midnightblue" points="426.03,-609.4 436.35,-606.99 426.78,-602.44 426.03,-609.4"/>
</g>
<!-- Node81 -->
<g id="node21" class="node">
<title>Node81</title>
<g id="a_node21"><a xlink:href="block__command__executor_8c.html#abb0608b32539dc732cc08efca4a451df" target="_top" xlink:title=" ">
<polygon fill="white" stroke="red" points="209,-537.5 209,-556.5 363,-556.5 363,-537.5 209,-537.5"/>
<text text-anchor="middle" x="286" y="-544.5" font-family="Helvetica,sans-Serif" font-size="10.00">Cmd_BCE_COMBINE_BLOCK</text>
</a>
</g>
</g>
<!-- Node118&#45;&gt;Node81 -->
<g id="edge23" class="edge">
<title>Node118&#45;&gt;Node81</title>
<path fill="none" stroke="midnightblue" d="M462.88,-599.21C440.49,-589.2 408.8,-575.91 380,-567 366.9,-562.95 352.52,-559.42 339.07,-556.51"/>
<polygon fill="midnightblue" stroke="midnightblue" points="461.61,-602.48 472.16,-603.41 464.5,-596.1 461.61,-602.48"/>
</g>
<!-- Node125 -->
<g id="node22" class="node">
<title>Node125</title>
<g id="a_node22"><a xlink:href="block__command__executor_8c.html#a29b81742f06a5c2f7a223817c7ce3c83" target="_top" xlink:title=" ">
<polygon fill="white" stroke="red" points="223,-488 223,-518 349,-518 349,-488 223,-488"/>
<text text-anchor="start" x="231" y="-506" font-family="Helvetica,sans-Serif" font-size="10.00">Cmd_BCE_INACTIVATE</text>
<text text-anchor="middle" x="286" y="-495" font-family="Helvetica,sans-Serif" font-size="10.00">_BLOCK_BY_ID</text>
</a>
</g>
</g>
<!-- Node118&#45;&gt;Node125 -->
<g id="edge24" class="edge">
<title>Node118&#45;&gt;Node125</title>
<path fill="none" stroke="midnightblue" d="M475.09,-596.39C454.12,-577.25 417.08,-546.13 380,-528 370.39,-523.3 359.77,-519.39 349.25,-516.16"/>
<polygon fill="midnightblue" stroke="midnightblue" points="472.84,-599.08 482.55,-603.32 477.6,-593.95 472.84,-599.08"/>
</g>
<!-- Node126 -->
<g id="node23" class="node">
<title>Node126</title>
<g id="a_node23"><a xlink:href="block__command__executor_8c.html#a93423b90ff4f91757177aa01430852a7" target="_top" xlink:title=" ">
<polygon fill="white" stroke="red" points="192,-449.5 192,-468.5 380,-468.5 380,-449.5 192,-449.5"/>
<text text-anchor="middle" x="286" y="-456.5" font-family="Helvetica,sans-Serif" font-size="10.00">Cmd_BCE_RESET_COMBINER_INFO</text>
</a>
</g>
</g>
<!-- Node118&#45;&gt;Node126 -->
<g id="edge25" class="edge">
<title>Node118&#45;&gt;Node126</title>
<path fill="none" stroke="midnightblue" d="M482.47,-594.52C465.48,-565.11 428.16,-508.01 380,-479 372.79,-474.65 364.75,-471.25 356.52,-468.58"/>
<polygon fill="midnightblue" stroke="midnightblue" points="479.48,-596.36 487.44,-603.36 485.59,-592.92 479.48,-596.36"/>
</g>
<!-- Node127 -->
<g id="node24" class="node">
<title>Node127</title>
<g id="a_node24"><a xlink:href="block__command__executor_8c.html#adc2d1f1a3fc7ab66a186bab9211da725" target="_top" xlink:title=" ">
<polygon fill="white" stroke="red" points="196,-411.5 196,-430.5 376,-430.5 376,-411.5 196,-411.5"/>
<text text-anchor="middle" x="286" y="-418.5" font-family="Helvetica,sans-Serif" font-size="10.00">Cmd_BCE_RESET_ROTATOR_INFO</text>
</a>
</g>
</g>
<!-- Node118&#45;&gt;Node127 -->
<g id="edge26" class="edge">
<title>Node118&#45;&gt;Node127</title>
<path fill="none" stroke="midnightblue" d="M485.79,-593.77C472.05,-557.45 437.14,-478.91 380,-440 374.42,-436.2 368.23,-433.12 361.79,-430.65"/>
<polygon fill="midnightblue" stroke="midnightblue" points="482.52,-595.02 489.24,-603.21 489.09,-592.62 482.52,-595.02"/>
</g>
<!-- Node83 -->
<g id="node25" class="node">
<title>Node83</title>
<g id="a_node25"><a xlink:href="block__command__executor_8c.html#adc05f3761578b7c2170e54e3f5b13c3e" target="_top" xlink:title=" ">
<polygon fill="white" stroke="red" points="213.5,-373.5 213.5,-392.5 358.5,-392.5 358.5,-373.5 213.5,-373.5"/>
<text text-anchor="middle" x="286" y="-380.5" font-family="Helvetica,sans-Serif" font-size="10.00">Cmd_BCE_ROTATE_BLOCK</text>
</a>
</g>
</g>
<!-- Node118&#45;&gt;Node83 -->
<g id="edge27" class="edge">
<title>Node118&#45;&gt;Node83</title>
<path fill="none" stroke="midnightblue" d="M484.81,-593.92C465.49,-546.9 414.02,-427.4 380,-402 373.66,-397.27 366.43,-393.64 358.86,-390.88"/>
<polygon fill="midnightblue" stroke="midnightblue" points="481.61,-595.34 488.62,-603.28 488.09,-592.69 481.61,-595.34"/>
</g>
<!-- Node128 -->
<g id="node26" class="node">
<title>Node128</title>
<g id="a_node26"><a xlink:href="block__command__executor_8c.html#aeb3639fa45f0d3ff899c25f9d4eefd1d" target="_top" xlink:title=" ">
<polygon fill="white" stroke="red" points="221,-324 221,-354 351,-354 351,-324 221,-324"/>
<text text-anchor="start" x="229" y="-342" font-family="Helvetica,sans-Serif" font-size="10.00">Cmd_BCE_SET_ROTATE</text>
<text text-anchor="middle" x="286" y="-331" font-family="Helvetica,sans-Serif" font-size="10.00">_INTERVAL</text>
</a>
</g>
</g>
<!-- Node118&#45;&gt;Node128 -->
<g id="edge28" class="edge">
<title>Node118&#45;&gt;Node128</title>
<path fill="none" stroke="midnightblue" d="M484,-594.11C457.88,-536.11 380.6,-364.51 380,-364 371.72,-356.96 361.65,-351.89 351.23,-348.23"/>
<polygon fill="midnightblue" stroke="midnightblue" points="480.82,-595.58 488.12,-603.26 487.2,-592.71 480.82,-595.58"/>
</g>
<!-- Node85 -->
<g id="node27" class="node">
<title>Node85</title>
<g id="a_node27"><a xlink:href="block__command__executor_8c.html#aaf3687244959da89ab0bc25a86cff912" target="_top" xlink:title=" ">
<polygon fill="white" stroke="red" points="200.5,-740 200.5,-770 371.5,-770 371.5,-740 200.5,-740"/>
<text text-anchor="start" x="208.5" y="-758" font-family="Helvetica,sans-Serif" font-size="10.00">Cmd_BCE_TIMELIMIT_COMBINE</text>
<text text-anchor="middle" x="286" y="-747" font-family="Helvetica,sans-Serif" font-size="10.00">_BLOCK</text>
</a>
</g>
</g>
<!-- Node118&#45;&gt;Node85 -->
<g id="edge29" class="edge">
<title>Node118&#45;&gt;Node85</title>
<path fill="none" stroke="midnightblue" d="M480.16,-631.03C461.51,-656.88 423.64,-704.21 380,-730 373.52,-733.83 366.45,-737.08 359.19,-739.85"/>
<polygon fill="midnightblue" stroke="midnightblue" points="483.23,-632.74 486.14,-622.56 477.51,-628.71 483.23,-632.74"/>
</g>
<!-- Node129 -->
<g id="node28" class="node">
<title>Node129</title>
<g id="a_node28"><a xlink:href="block__command__table_8c.html#a9a27d30f9689f0c58b67cb1cf9d3aa1f" target="_top" xlink:title=" ">
<polygon fill="white" stroke="red" points="216.5,-701.5 216.5,-720.5 355.5,-720.5 355.5,-701.5 216.5,-701.5"/>
<text text-anchor="middle" x="286" y="-708.5" font-family="Helvetica,sans-Serif" font-size="10.00">Cmd_BCT_CLEAR_BLOCK</text>
</a>
</g>
</g>
<!-- Node118&#45;&gt;Node129 -->
<g id="edge30" class="edge">
<title>Node118&#45;&gt;Node129</title>
<path fill="none" stroke="midnightblue" d="M474.38,-629.34C453.26,-647.47 416.57,-676.24 380,-692 371.07,-695.85 361.32,-698.93 351.59,-701.4"/>
<polygon fill="midnightblue" stroke="midnightblue" points="476.7,-631.95 481.93,-622.73 472.1,-626.68 476.7,-631.95"/>
</g>
<!-- Node130 -->
<g id="node29" class="node">
<title>Node130</title>
<g id="a_node29"><a xlink:href="block__command__table_8c.html#ad18274859bb1f17e0ebb6fafe0127ebe" target="_top" xlink:title=" ">
<polygon fill="white" stroke="red" points="226,-663.5 226,-682.5 346,-682.5 346,-663.5 226,-663.5"/>
<text text-anchor="middle" x="286" y="-670.5" font-family="Helvetica,sans-Serif" font-size="10.00">Cmd_BCT_COPY_BCT</text>
</a>
</g>
</g>
<!-- Node118&#45;&gt;Node130 -->
<g id="edge31" class="edge">
<title>Node118&#45;&gt;Node130</title>
<path fill="none" stroke="midnightblue" d="M459.82,-626.36C437.59,-635.09 407.36,-646.27 380,-654 367.31,-657.59 353.47,-660.79 340.44,-663.49"/>
<polygon fill="midnightblue" stroke="midnightblue" points="461.13,-629.61 469.13,-622.67 458.54,-623.11 461.13,-629.61"/>
</g>
<!-- Node119&#45;&gt;Node79 -->
<g id="edge18" class="edge">
<title>Node119&#45;&gt;Node79</title>
<path fill="none" stroke="midnightblue" d="M225.94,-929.45C200.22,-931.82 170.01,-934.61 143.69,-937.03"/>
<polygon fill="midnightblue" stroke="midnightblue" points="226.28,-932.93 235.92,-928.53 225.64,-925.96 226.28,-932.93"/>
</g>
<!-- Node120&#45;&gt;Node8 -->
<g id="edge20" class="edge">
<title>Node120&#45;&gt;Node8</title>
<path fill="none" stroke="midnightblue" d="M211.93,-822.11C205.14,-824.25 198.4,-826.55 192,-829 156.28,-842.64 116.92,-864.07 95.36,-876.4"/>
<polygon fill="midnightblue" stroke="midnightblue" points="213.35,-825.33 221.91,-819.08 211.32,-818.64 213.35,-825.33"/>
</g>
<!-- Node138 -->
<g id="node31" class="node">
<title>Node138</title>
<g id="a_node31"><a xlink:href="common__tlm__cmd__packet__for__driver__super_8c.html#a7dc0512a0d35141d978018d424de1c38" target="_top" xlink:title="CommonTlmCmdPacket を受信データからコピーして取得する">
<polygon fill="white" stroke="black" points="422,-333.5 422,-352.5 565,-352.5 565,-333.5 422,-333.5"/>
<text text-anchor="middle" x="493.5" y="-340.5" font-family="Helvetica,sans-Serif" font-size="10.00">CTCP_get_ctcp_from_dssc</text>
</a>
</g>
</g>
<!-- Node137&#45;&gt;Node138 -->
<g id="edge34" class="edge">
<title>Node137&#45;&gt;Node138</title>
<path fill="none" stroke="midnightblue" d="M785.57,-334.93C722.17,-336.68 628.88,-339.27 565.11,-341.04"/>
<polygon fill="midnightblue" stroke="midnightblue" points="785.98,-338.42 795.87,-334.64 785.78,-331.42 785.98,-338.42"/>
</g>
<!-- Node139 -->
<g id="node32" class="node">
<title>Node139</title>
<g id="a_node32"><a xlink:href="common__tlm__cmd__packet_8h.html#a607aefb8beac36566a817d191bb77fae" target="_top" xlink:title="有効なパケットかチェックする">
<polygon fill="white" stroke="black" points="622.5,-304.5 622.5,-323.5 744.5,-323.5 744.5,-304.5 622.5,-304.5"/>
<text text-anchor="middle" x="683.5" y="-311.5" font-family="Helvetica,sans-Serif" font-size="10.00">CTCP_is_valid_packet</text>
</a>
</g>
</g>
<!-- Node137&#45;&gt;Node139 -->
<g id="edge35" class="edge">
<title>Node137&#45;&gt;Node139</title>
<path fill="none" stroke="midnightblue" d="M785.61,-325.27C772.05,-323.76 757.94,-322.18 744.71,-320.71"/>
<polygon fill="midnightblue" stroke="midnightblue" points="785.52,-328.78 795.85,-326.41 786.3,-321.82 785.52,-328.78"/>
</g>
<!-- Node140 -->
<g id="node33" class="node">
<title>Node140</title>
<g id="a_node33"><a xlink:href="common__tlm__cmd__packet__for__driver__super_8c.html#a9dc762f650c863090e34ad515967efc9" target="_top" xlink:title="C2A 間通信など， CTCP をコンポ間通信に用いるときの tx_frame のセット">
<polygon fill="white" stroke="black" points="607,-380.5 607,-399.5 760,-399.5 760,-380.5 607,-380.5"/>
<text text-anchor="middle" x="683.5" y="-387.5" font-family="Helvetica,sans-Serif" font-size="10.00">CTCP_set_tx_frame_to_dssc</text>
</a>
</g>
</g>
<!-- Node137&#45;&gt;Node140 -->
<g id="edge38" class="edge">
<title>Node137&#45;&gt;Node140</title>
<path fill="none" stroke="midnightblue" d="M818.17,-346.05C800.6,-352.21 779.25,-359.6 760,-366 745.25,-370.9 728.81,-376.16 715.05,-380.49"/>
<polygon fill="midnightblue" stroke="midnightblue" points="819.77,-349.2 828.04,-342.58 817.44,-342.59 819.77,-349.2"/>
</g>
<!-- Node139&#45;&gt;Node76 -->
<g id="edge37" class="edge">
<title>Node139&#45;&gt;Node76</title>
<path fill="none" stroke="midnightblue" d="M612.2,-305.01C493.37,-291.29 259.17,-271.06 192,-315 101.65,-374.1 83.05,-523.33 79.68,-562.48"/>
<polygon fill="midnightblue" stroke="midnightblue" points="611.95,-308.5 622.29,-306.19 612.76,-301.55 611.95,-308.5"/>
</g>
<!-- Node139&#45;&gt;Node138 -->
<g id="edge36" class="edge">
<title>Node139&#45;&gt;Node138</title>
<path fill="none" stroke="midnightblue" d="M612.4,-324.81C593.94,-327.66 574.17,-330.71 556.19,-333.48"/>
<polygon fill="midnightblue" stroke="midnightblue" points="613.15,-328.24 622.5,-323.26 612.08,-321.32 613.15,-328.24"/>
</g>
<!-- Node141 -->
<g id="node34" class="node">
<title>Node141</title>
<g id="a_node34"><a xlink:href="common__tlm__cmd__packet__for__driver__super_8c.html#a002a6f14e2139a1a3daee52eef6263c3" target="_top" xlink:title="C2A 間通信など， CCP をコンポ間通信に用いるときの tx_frame のセット">
<polygon fill="white" stroke="red" points="419.5,-376.5 419.5,-395.5 567.5,-395.5 567.5,-376.5 419.5,-376.5"/>
<text text-anchor="middle" x="493.5" y="-383.5" font-family="Helvetica,sans-Serif" font-size="10.00">CCP_set_tx_frame_to_dssc</text>
</a>
</g>
</g>
<!-- Node140&#45;&gt;Node141 -->
<g id="edge39" class="edge">
<title>Node140&#45;&gt;Node141</title>
<path fill="none" stroke="midnightblue" d="M596.74,-388.18C586.99,-387.97 577.12,-387.76 567.56,-387.55"/>
<polygon fill="midnightblue" stroke="midnightblue" points="596.77,-391.68 606.85,-388.39 596.92,-384.68 596.77,-391.68"/>
</g>
<!-- Node145 -->
<g id="node35" class="node">
<title>Node145</title>
<g id="a_node35"><a xlink:href="common__tlm__cmd__packet__for__driver__super_8c.html#ae1aabd87ca51290c19715ee53a0c4cd6" target="_top" xlink:title="C2A 間通信など， CTP をコンポ間通信に用いるときの tx_frame のセット">
<polygon fill="white" stroke="black" points="420,-414.5 420,-433.5 567,-433.5 567,-414.5 420,-414.5"/>
<text text-anchor="middle" x="493.5" y="-421.5" font-family="Helvetica,sans-Serif" font-size="10.00">CTP_set_tx_frame_to_dssc</text>
</a>
</g>
</g>
<!-- Node140&#45;&gt;Node145 -->
<g id="edge40" class="edge">
<title>Node140&#45;&gt;Node145</title>
<path fill="none" stroke="midnightblue" d="M619.96,-401.31C596.34,-405.58 569.73,-410.4 547.11,-414.49"/>
<polygon fill="midnightblue" stroke="midnightblue" points="620.66,-404.74 629.88,-399.52 619.42,-397.85 620.66,-404.74"/>
</g>
<!-- Node147 -->
<g id="node37" class="node">
<title>Node147</title>
<g id="a_node37"><a xlink:href="cmd__space__packet_8c.html#a2a6ae24b63276a3107cbd59f153b658e" target="_top" xlink:title="CmdSpacePacket をコピー">
<polygon fill="white" stroke="black" points="633,-190.5 633,-209.5 734,-209.5 734,-190.5 633,-190.5"/>
<text text-anchor="middle" x="683.5" y="-197.5" font-family="Helvetica,sans-Serif" font-size="10.00">CSP_copy_packet</text>
</a>
</g>
</g>
<!-- Node146&#45;&gt;Node147 -->
<g id="edge42" class="edge">
<title>Node146&#45;&gt;Node147</title>
<path fill="none" stroke="midnightblue" d="M824.08,-243.41C805.69,-235.64 781.77,-226.06 760,-219 749.33,-215.54 737.64,-212.33 726.72,-209.56"/>
<polygon fill="midnightblue" stroke="midnightblue" points="822.85,-246.69 833.42,-247.4 825.6,-240.25 822.85,-246.69"/>
</g>
<!-- Node150 -->
<g id="node39" class="node">
<title>Node150</title>
<g id="a_node39"><a xlink:href="common__tlm__cmd__packet_8h.html#a965276551fd46af0428959d7ad7f5c09" target="_top" xlink:title="CommonTlmCmdPacket をコピー">
<polygon fill="white" stroke="black" points="630,-266.5 630,-285.5 737,-285.5 737,-266.5 630,-266.5"/>
<text text-anchor="middle" x="683.5" y="-273.5" font-family="Helvetica,sans-Serif" font-size="10.00">CTCP_copy_packet</text>
</a>
</g>
</g>
<!-- Node146&#45;&gt;Node150 -->
<g id="edge44" class="edge">
<title>Node146&#45;&gt;Node150</title>
<path fill="none" stroke="midnightblue" d="M798.31,-263.32C778.54,-265.52 756.46,-267.98 737.05,-270.14"/>
<polygon fill="midnightblue" stroke="midnightblue" points="798.86,-266.78 808.41,-262.19 798.08,-259.82 798.86,-266.78"/>
</g>
<!-- Node151 -->
<g id="node40" class="node">
<title>Node151</title>
<g id="a_node40"><a xlink:href="tlm__space__packet_8c.html#aa8365f22b2e6b02fd8d0cc3542215a54" target="_top" xlink:title="TlmSpacePacket をコピー">
<polygon fill="white" stroke="black" points="633,-228.5 633,-247.5 734,-247.5 734,-228.5 633,-228.5"/>
<text text-anchor="middle" x="683.5" y="-235.5" font-family="Helvetica,sans-Serif" font-size="10.00">TSP_copy_packet</text>
</a>
</g>
</g>
<!-- Node146&#45;&gt;Node151 -->
<g id="edge45" class="edge">
<title>Node146&#45;&gt;Node151</title>
<path fill="none" stroke="midnightblue" d="M798.42,-250.69C777.59,-248.37 754.17,-245.76 734.02,-243.52"/>
<polygon fill="midnightblue" stroke="midnightblue" points="798.08,-254.18 808.41,-251.81 798.86,-247.22 798.08,-254.18"/>
</g>
<!-- Node148 -->
<g id="node38" class="node">
<title>Node148</title>
<g id="a_node38"><a xlink:href="common__cmd__packet_8h.html#aff399e79c4a5c9d75552b295de0d3365" target="_top" xlink:title="CommonCmdPacket をコピー">
<polygon fill="white" stroke="red" points="442.5,-190.5 442.5,-209.5 544.5,-209.5 544.5,-190.5 442.5,-190.5"/>
<text text-anchor="middle" x="493.5" y="-197.5" font-family="Helvetica,sans-Serif" font-size="10.00">CCP_copy_packet</text>
</a>
</g>
</g>
<!-- Node147&#45;&gt;Node148 -->
<g id="edge43" class="edge">
<title>Node147&#45;&gt;Node148</title>
<path fill="none" stroke="midnightblue" d="M622.48,-200C597.38,-200 568.55,-200 544.62,-200"/>
<polygon fill="midnightblue" stroke="midnightblue" points="622.61,-203.5 632.61,-200 622.61,-196.5 622.61,-203.5"/>
</g>
<!-- Node152 -->
<g id="node41" class="node">
<title>Node152</title>
<g id="a_node41"><a xlink:href="common__tlm__packet_8h.html#aaa62118176a426201ed1baff826e3dd2" target="_top" xlink:title="CommonTlmPacket をコピー">
<polygon fill="white" stroke="red" points="443,-228.5 443,-247.5 544,-247.5 544,-228.5 443,-228.5"/>
<text text-anchor="middle" x="493.5" y="-235.5" font-family="Helvetica,sans-Serif" font-size="10.00">CTP_copy_packet</text>
</a>
</g>
</g>
<!-- Node151&#45;&gt;Node152 -->
<g id="edge46" class="edge">
<title>Node151&#45;&gt;Node152</title>
<path fill="none" stroke="midnightblue" d="M622.43,-238C597.24,-238 568.28,-238 544.29,-238"/>
<polygon fill="midnightblue" stroke="midnightblue" points="622.61,-241.5 632.61,-238 622.61,-234.5 622.61,-241.5"/>
</g>
<!-- Node162 -->
<g id="node43" class="node">
<title>Node162</title>
<g id="a_node43"><a xlink:href="common__tlm__packet_8h.html#ab9f04fbc9871d8fe2639cd46679e33c9" target="_top" xlink:title="パケット長を取得">
<polygon fill="white" stroke="black" points="626.5,-114.5 626.5,-133.5 740.5,-133.5 740.5,-114.5 626.5,-114.5"/>
<text text-anchor="middle" x="683.5" y="-121.5" font-family="Helvetica,sans-Serif" font-size="10.00">CTP_get_packet_len</text>
</a>
</g>
</g>
<!-- Node161&#45;&gt;Node162 -->
<g id="edge48" class="edge">
<title>Node161&#45;&gt;Node162</title>
<path fill="none" stroke="midnightblue" d="M788.88,-124C772.98,-124 756.15,-124 740.75,-124"/>
<polygon fill="midnightblue" stroke="midnightblue" points="789.17,-127.5 799.17,-124 789.17,-120.5 789.17,-127.5"/>
</g>
<!-- Node173 -->
<g id="node47" class="node">
<title>Node173</title>
<g id="a_node47"><a xlink:href="tcp__to__m__pdu_8c.html#a973ccd708198a0d237a3cbb96cb8b078" target="_top" xlink:title="TCPacket を M_PDU に変換する">
<polygon fill="white" stroke="black" points="631.5,-38.5 631.5,-57.5 735.5,-57.5 735.5,-38.5 631.5,-38.5"/>
<text text-anchor="middle" x="683.5" y="-45.5" font-family="Helvetica,sans-Serif" font-size="10.00">T2M_form_m_pdu</text>
</a>
</g>
</g>
<!-- Node161&#45;&gt;Node173 -->
<g id="edge53" class="edge">
<title>Node161&#45;&gt;Node173</title>
<path fill="none" stroke="midnightblue" d="M823.9,-110.14C789.71,-94.9 735.67,-70.81 705.92,-57.55"/>
<polygon fill="midnightblue" stroke="midnightblue" points="822.85,-113.5 833.41,-114.37 825.7,-107.11 822.85,-113.5"/>
</g>
<!-- Node163 -->
<g id="node44" class="node">
<title>Node163</title>
<g id="a_node44"><a xlink:href="aobc__telemetry__buffer_8c.html#a37b81adac738069788e1ede005ee5eb5" target="_top" xlink:title=" ">
<polygon fill="white" stroke="red" points="422,-152.5 422,-171.5 565,-171.5 565,-152.5 422,-152.5"/>
<text text-anchor="middle" x="493.5" y="-159.5" font-family="Helvetica,sans-Serif" font-size="10.00">AOBC_pick_up_tlm_buffer</text>
</a>
</g>
</g>
<!-- Node162&#45;&gt;Node163 -->
<g id="edge49" class="edge">
<title>Node162&#45;&gt;Node163</title>
<path fill="none" stroke="midnightblue" d="M625.06,-135.61C598.33,-141.01 566.91,-147.36 541.6,-152.48"/>
<polygon fill="midnightblue" stroke="midnightblue" points="625.95,-139 635.06,-133.59 624.56,-132.14 625.95,-139"/>
</g>
<!-- Node169 -->
<g id="node45" class="node">
<title>Node169</title>
<g id="a_node45"><a xlink:href="common__tlm__cmd__packet__for__driver__super_8c.html#ac33606cb83f003e3c3134702e73bf711" target="_top" xlink:title="CommonTlmPacket を受信データからコピーして取得する">
<polygon fill="white" stroke="red" points="220,-95.5 220,-114.5 352,-114.5 352,-95.5 220,-95.5"/>
<text text-anchor="middle" x="286" y="-102.5" font-family="Helvetica,sans-Serif" font-size="10.00">CTP_get_ctp_from_dssc</text>
</a>
</g>
</g>
<!-- Node162&#45;&gt;Node169 -->
<g id="edge50" class="edge">
<title>Node162&#45;&gt;Node169</title>
<path fill="none" stroke="midnightblue" d="M616.2,-120.81C542.8,-117.29 425.24,-111.64 352.26,-108.14"/>
<polygon fill="midnightblue" stroke="midnightblue" points="616.1,-124.31 626.25,-121.3 616.43,-117.32 616.1,-124.31"/>
</g>
<!-- Node170 -->
<g id="node46" class="node">
<title>Node170</title>
<g id="a_node46"><a xlink:href="common__tlm__packet_8h.html#a285c1dc53d72a80747d8827c38d7aea4" target="_top" xlink:title="有効なパケットかチェックする">
<polygon fill="white" stroke="red" points="435.5,-76.5 435.5,-95.5 551.5,-95.5 551.5,-76.5 435.5,-76.5"/>
<text text-anchor="middle" x="493.5" y="-83.5" font-family="Helvetica,sans-Serif" font-size="10.00">CTP_is_valid_packet</text>
</a>
</g>
</g>
<!-- Node162&#45;&gt;Node170 -->
<g id="edge51" class="edge">
<title>Node162&#45;&gt;Node170</title>
<path fill="none" stroke="midnightblue" d="M625.06,-112.39C598.33,-106.99 566.91,-100.64 541.6,-95.52"/>
<polygon fill="midnightblue" stroke="midnightblue" points="624.56,-115.86 635.06,-114.41 625.95,-109 624.56,-115.86"/>
</g>
<!-- Node170&#45;&gt;Node169 -->
<g id="edge52" class="edge">
<title>Node170&#45;&gt;Node169</title>
<path fill="none" stroke="midnightblue" d="M425.07,-92.23C401.67,-94.4 375.49,-96.82 352.27,-98.97"/>
<polygon fill="midnightblue" stroke="midnightblue" points="425.62,-95.7 435.26,-91.29 424.98,-88.73 425.62,-95.7"/>
</g>
<!-- Node174 -->
<g id="node48" class="node">
<title>Node174</title>
<g id="a_node48"><a xlink:href="di__gs_8c.html#ab60fae9ad2c806b6ba10cb8a076d07c0" target="_top" xlink:title=" ">
<polygon fill="white" stroke="red" points="416,-38.5 416,-57.5 571,-57.5 571,-38.5 416,-38.5"/>
<text text-anchor="middle" x="493.5" y="-45.5" font-family="Helvetica,sans-Serif" font-size="10.00">DI_GS_mst_packet_handler_</text>
</a>
</g>
</g>
<!-- Node173&#45;&gt;Node174 -->
<g id="edge54" class="edge">
<title>Node173&#45;&gt;Node174</title>
<path fill="none" stroke="midnightblue" d="M620.92,-48C605.04,-48 587.75,-48 571.2,-48"/>
<polygon fill="midnightblue" stroke="midnightblue" points="621.13,-51.5 631.13,-48 621.13,-44.5 621.13,-51.5"/>
</g>
<!-- Node176 -->
<g id="node49" class="node">
<title>Node176</title>
<g id="a_node49"><a xlink:href="di__gs_8c.html#ab2b3fada377f7de06881f4654946baeb" target="_top" xlink:title=" ">
<polygon fill="white" stroke="red" points="419,-0.5 419,-19.5 568,-19.5 568,-0.5 419,-0.5"/>
<text text-anchor="middle" x="493.5" y="-7.5" font-family="Helvetica,sans-Serif" font-size="10.00">DI_GS_rpt_packet_handler_</text>
</a>
</g>
</g>
<!-- Node173&#45;&gt;Node176 -->
<g id="edge55" class="edge">
<title>Node173&#45;&gt;Node176</title>
<path fill="none" stroke="midnightblue" d="M625.06,-36.39C598.33,-30.99 566.91,-24.64 541.6,-19.52"/>
<polygon fill="midnightblue" stroke="midnightblue" points="624.56,-39.86 635.06,-38.41 625.95,-33 624.56,-39.86"/>
</g>
</g>
</svg>
