<?xml version="1.0" encoding="UTF-8" standalone="no"?>
<!DOCTYPE svg PUBLIC "-//W3C//DTD SVG 1.1//EN"
 "http://www.w3.org/Graphics/SVG/1.1/DTD/svg11.dtd">
<!-- Generated by graphviz version 2.43.0 (0)
 -->
<!-- Title: SP_get_apid Pages: 1 -->
<svg width="1561pt" height="812pt"
 viewBox="0.00 0.00 1561.00 811.50" xmlns="http://www.w3.org/2000/svg" xmlns:xlink="http://www.w3.org/1999/xlink">
<g id="graph0" class="graph" transform="scale(1 1) rotate(0) translate(4 807.5)">
<title>SP_get_apid</title>
<polygon fill="white" stroke="transparent" points="-4,4 -4,-807.5 1557,-807.5 1557,4 -4,4"/>
<!-- Node1 -->
<g id="node1" class="node">
<title>Node1</title>
<g id="a_node1"><a xlink:title="APID を取得">
<polygon fill="#bfbfbf" stroke="black" points="1477,-746 1477,-765 1553,-765 1553,-746 1477,-746"/>
<text text-anchor="middle" x="1515" y="-753" font-family="Helvetica,sans-Serif" font-size="10.00">SP_get_apid</text>
</a>
</g>
</g>
<!-- Node2 -->
<g id="node2" class="node">
<title>Node2</title>
<g id="a_node2"><a xlink:href="cmd__space__packet_8c.html#a66281beb2903f651ac94e9ea379f94ce" target="_top" xlink:title="APID を取得">
<polygon fill="white" stroke="black" points="1355,-708 1355,-727 1438,-727 1438,-708 1355,-708"/>
<text text-anchor="middle" x="1396.5" y="-715" font-family="Helvetica,sans-Serif" font-size="10.00">CSP_get_apid</text>
</a>
</g>
</g>
<!-- Node1&#45;&gt;Node2 -->
<g id="edge1" class="edge">
<title>Node1&#45;&gt;Node2</title>
<path fill="none" stroke="midnightblue" d="M1474.68,-742.67C1459.05,-737.58 1441.37,-731.81 1426.89,-727.09"/>
<polygon fill="midnightblue" stroke="midnightblue" points="1474.01,-746.14 1484.6,-745.91 1476.18,-739.48 1474.01,-746.14"/>
</g>
<!-- Node82 -->
<g id="node47" class="node">
<title>Node82</title>
<g id="a_node47"><a xlink:href="common__tlm__cmd__packet_8h.html#afad90959c53ac528ef98cd3af76bc2cd" target="_top" xlink:title="APID を取得">
<polygon fill="white" stroke="black" points="1352,-746 1352,-765 1441,-765 1441,-746 1352,-746"/>
<text text-anchor="middle" x="1396.5" y="-753" font-family="Helvetica,sans-Serif" font-size="10.00">CTCP_get_apid</text>
</a>
</g>
</g>
<!-- Node1&#45;&gt;Node82 -->
<g id="edge57" class="edge">
<title>Node1&#45;&gt;Node82</title>
<path fill="none" stroke="midnightblue" d="M1466.74,-755.5C1458.31,-755.5 1449.57,-755.5 1441.24,-755.5"/>
<polygon fill="midnightblue" stroke="midnightblue" points="1466.82,-759 1476.82,-755.5 1466.82,-752 1466.82,-759"/>
</g>
<!-- Node83 -->
<g id="node48" class="node">
<title>Node83</title>
<g id="a_node48"><a xlink:href="tlm__space__packet_8c.html#a085b2d425273eee803f0a9815bf5829d" target="_top" xlink:title="APID を取得">
<polygon fill="white" stroke="black" points="1355.5,-784 1355.5,-803 1437.5,-803 1437.5,-784 1355.5,-784"/>
<text text-anchor="middle" x="1396.5" y="-791" font-family="Helvetica,sans-Serif" font-size="10.00">TSP_get_apid</text>
</a>
</g>
</g>
<!-- Node1&#45;&gt;Node83 -->
<g id="edge58" class="edge">
<title>Node1&#45;&gt;Node83</title>
<path fill="none" stroke="midnightblue" d="M1474.68,-768.33C1459.05,-773.42 1441.37,-779.19 1426.89,-783.91"/>
<polygon fill="midnightblue" stroke="midnightblue" points="1476.18,-771.52 1484.6,-765.09 1474.01,-764.86 1476.18,-771.52"/>
</g>
<!-- Node3 -->
<g id="node3" class="node">
<title>Node3</title>
<g id="a_node3"><a xlink:href="common__cmd__packet_8h.html#aa24f85ec65651169c91ab2ad0fad832f" target="_top" xlink:title="APID を取得">
<polygon fill="white" stroke="black" points="1212.5,-544 1212.5,-563 1295.5,-563 1295.5,-544 1212.5,-544"/>
<text text-anchor="middle" x="1254" y="-551" font-family="Helvetica,sans-Serif" font-size="10.00">CCP_get_apid</text>
</a>
</g>
</g>
<!-- Node2&#45;&gt;Node3 -->
<g id="edge2" class="edge">
<title>Node2&#45;&gt;Node3</title>
<path fill="none" stroke="midnightblue" d="M1380.41,-699.88C1350.79,-665.32 1285.97,-589.65 1263.15,-563.01"/>
<polygon fill="midnightblue" stroke="midnightblue" points="1377.97,-702.42 1387.13,-707.73 1383.28,-697.86 1377.97,-702.42"/>
</g>
<!-- Node77 -->
<g id="node42" class="node">
<title>Node77</title>
<g id="a_node42"><a xlink:href="gs__validate_8c.html#ab272dff7881efe1314d2e858115eaac7" target="_top" xlink:title=" ">
<polygon fill="white" stroke="black" points="1192,-702.5 1192,-732.5 1316,-732.5 1316,-702.5 1192,-702.5"/>
<text text-anchor="start" x="1200" y="-720.5" font-family="Helvetica,sans-Serif" font-size="10.00">GS_check_cmd_space</text>
<text text-anchor="middle" x="1254" y="-709.5" font-family="Helvetica,sans-Serif" font-size="10.00">_packet_headers_</text>
</a>
</g>
</g>
<!-- Node2&#45;&gt;Node77 -->
<g id="edge50" class="edge">
<title>Node2&#45;&gt;Node77</title>
<path fill="none" stroke="midnightblue" d="M1344.67,-717.5C1335.43,-717.5 1325.71,-717.5 1316.2,-717.5"/>
<polygon fill="midnightblue" stroke="midnightblue" points="1344.86,-721 1354.86,-717.5 1344.86,-714 1344.86,-721"/>
</g>
<!-- Node4 -->
<g id="node4" class="node">
<title>Node4</title>
<g id="a_node4"><a xlink:href="packet__handler_8c.html#aa0decb14f7fee73ca1ed3e9a10b05087" target="_top" xlink:title="CCP をコマンドとして解釈して実行，ないしは別機器へ配送する">
<polygon fill="white" stroke="black" points="858,-193 858,-212 989,-212 989,-193 858,-193"/>
<text text-anchor="middle" x="923.5" y="-200" font-family="Helvetica,sans-Serif" font-size="10.00">PH_dispatch_command</text>
</a>
</g>
</g>
<!-- Node3&#45;&gt;Node4 -->
<g id="edge3" class="edge">
<title>Node3&#45;&gt;Node4</title>
<path fill="none" stroke="midnightblue" d="M1236.87,-536.27C1178.33,-473.72 978.2,-259.87 933.43,-212.04"/>
<polygon fill="midnightblue" stroke="midnightblue" points="1234.48,-538.84 1243.87,-543.75 1239.59,-534.05 1234.48,-538.84"/>
</g>
<!-- Node55 -->
<g id="node33" class="node">
<title>Node55</title>
<g id="a_node33"><a xlink:href="user__packet__handler_8c.html#a6ceb9e37114f6c81c6872ec90dd2a39d" target="_top" xlink:title="PH の analyze_cmd_ のユーザー処理関数">
<polygon fill="white" stroke="black" points="1027.5,-563 1027.5,-582 1153.5,-582 1153.5,-563 1027.5,-563"/>
<text text-anchor="middle" x="1090.5" y="-570" font-family="Helvetica,sans-Serif" font-size="10.00">PH_user_analyze_cmd</text>
</a>
</g>
</g>
<!-- Node3&#45;&gt;Node55 -->
<g id="edge39" class="edge">
<title>Node3&#45;&gt;Node55</title>
<path fill="none" stroke="midnightblue" d="M1201.93,-559.51C1186.6,-561.31 1169.6,-563.31 1153.64,-565.19"/>
<polygon fill="midnightblue" stroke="midnightblue" points="1202.72,-562.94 1212.25,-558.29 1201.91,-555.99 1202.72,-562.94"/>
</g>
<!-- Node76 -->
<g id="node41" class="node">
<title>Node76</title>
<g id="a_node41"><a xlink:href="user__packet__handler_8c.html#a30e628852fd804a52dc0d6ae476a8a01" target="_top" xlink:title="PH の PH_dispatch_command のユーザー処理関数">
<polygon fill="white" stroke="black" points="1032,-217 1032,-236 1149,-236 1149,-217 1032,-217"/>
<text text-anchor="middle" x="1090.5" y="-224" font-family="Helvetica,sans-Serif" font-size="10.00">PH_user_cmd_router</text>
</a>
</g>
</g>
<!-- Node3&#45;&gt;Node76 -->
<g id="edge48" class="edge">
<title>Node3&#45;&gt;Node76</title>
<path fill="none" stroke="midnightblue" d="M1243.57,-534.41C1213.22,-472.95 1118.75,-281.67 1096.31,-236.25"/>
<polygon fill="midnightblue" stroke="midnightblue" points="1240.6,-536.3 1248.17,-543.71 1246.88,-533.2 1240.6,-536.3"/>
</g>
<!-- Node5 -->
<g id="node5" class="node">
<title>Node5</title>
<g id="a_node5"><a xlink:href="block__command__executor_8c.html#a1d6498edea23a380f4ae53bb0460eab0" target="_top" xlink:title="BC をまとめて一括で実行する">
<polygon fill="white" stroke="black" points="675.5,-149 675.5,-168 821.5,-168 821.5,-149 675.5,-149"/>
<text text-anchor="middle" x="748.5" y="-156" font-family="Helvetica,sans-Serif" font-size="10.00">BCE_combine_block_cmd_</text>
</a>
</g>
</g>
<!-- Node4&#45;&gt;Node5 -->
<g id="edge4" class="edge">
<title>Node4&#45;&gt;Node5</title>
<path fill="none" stroke="midnightblue" d="M875.08,-190.44C847.33,-183.38 812.79,-174.6 786.97,-168.03"/>
<polygon fill="midnightblue" stroke="midnightblue" points="874.41,-193.88 884.96,-192.95 876.13,-187.1 874.41,-193.88"/>
</g>
<!-- Node13 -->
<g id="node9" class="node">
<title>Node13</title>
<g id="a_node9"><a xlink:href="block__command__executor_8c.html#acfd4781edc83a7f69a37cd5c7de290c1" target="_top" xlink:title="rotator の実行主体">
<polygon fill="white" stroke="black" points="681.5,-111 681.5,-130 815.5,-130 815.5,-111 681.5,-111"/>
<text text-anchor="middle" x="748.5" y="-118" font-family="Helvetica,sans-Serif" font-size="10.00">BCE_rotate_block_cmd_</text>
</a>
</g>
</g>
<!-- Node4&#45;&gt;Node13 -->
<g id="edge8" class="edge">
<title>Node4&#45;&gt;Node13</title>
<path fill="none" stroke="midnightblue" d="M901.68,-186.8C882.05,-172.65 851.34,-152.19 822,-139.5 813.4,-135.78 803.9,-132.65 794.69,-130.07"/>
<polygon fill="midnightblue" stroke="midnightblue" points="899.74,-189.71 909.88,-192.8 903.88,-184.07 899.74,-189.71"/>
</g>
<!-- Node15 -->
<g id="node11" class="node">
<title>Node15</title>
<g id="a_node11"><a xlink:href="block__command__executor_8c.html#ac58bdb2e659454871477f4250903f51d" target="_top" xlink:title="BC をまとめて一括で実行する">
<polygon fill="white" stroke="black" points="681.5,-6.5 681.5,-36.5 815.5,-36.5 815.5,-6.5 681.5,-6.5"/>
<text text-anchor="start" x="689.5" y="-24.5" font-family="Helvetica,sans-Serif" font-size="10.00">BCE_timelimit_combine</text>
<text text-anchor="middle" x="748.5" y="-13.5" font-family="Helvetica,sans-Serif" font-size="10.00">_block_cmd_</text>
</a>
</g>
</g>
<!-- Node4&#45;&gt;Node15 -->
<g id="edge11" class="edge">
<title>Node4&#45;&gt;Node15</title>
<path fill="none" stroke="midnightblue" d="M914.42,-183.59C900.11,-152.14 867.46,-88.87 822,-51.5 814.74,-45.53 806.12,-40.6 797.41,-36.58"/>
<polygon fill="midnightblue" stroke="midnightblue" points="911.31,-185.22 918.56,-192.95 917.72,-182.39 911.31,-185.22"/>
</g>
<!-- Node17 -->
<g id="node13" class="node">
<title>Node17</title>
<g id="a_node13"><a xlink:href="common__cmd__packet__util_8c.html#a667d05b68ff9924ced9b5bf3e419e0f1" target="_top" xlink:title="BC展開 command を生成し，即時実行する">
<polygon fill="white" stroke="black" points="675,-187.5 675,-217.5 822,-217.5 822,-187.5 675,-187.5"/>
<text text-anchor="start" x="683" y="-205.5" font-family="Helvetica,sans-Serif" font-size="10.00">CCP_form_and_exec_block</text>
<text text-anchor="middle" x="748.5" y="-194.5" font-family="Helvetica,sans-Serif" font-size="10.00">_deploy_cmd</text>
</a>
</g>
</g>
<!-- Node4&#45;&gt;Node17 -->
<g id="edge14" class="edge">
<title>Node4&#45;&gt;Node17</title>
<path fill="none" stroke="midnightblue" d="M847.41,-202.5C838.99,-202.5 830.42,-202.5 822.03,-202.5"/>
<polygon fill="midnightblue" stroke="midnightblue" points="847.59,-206 857.59,-202.5 847.59,-199 847.59,-206"/>
</g>
<!-- Node32 -->
<g id="node19" class="node">
<title>Node32</title>
<g id="a_node19"><a xlink:href="common__cmd__packet__util_8c.html#a6647f2fbe6dabb44871bd9216c315a46" target="_top" xlink:title="Realtime command を生成し，即時実行する">
<polygon fill="white" stroke="black" points="681.5,-240 681.5,-259 815.5,-259 815.5,-240 681.5,-240"/>
<text text-anchor="middle" x="748.5" y="-247" font-family="Helvetica,sans-Serif" font-size="10.00">CCP_form_and_exec_rtc</text>
</a>
</g>
</g>
<!-- Node4&#45;&gt;Node32 -->
<g id="edge21" class="edge">
<title>Node4&#45;&gt;Node32</title>
<path fill="none" stroke="midnightblue" d="M877.62,-214.69C848.68,-222.55 811.58,-232.64 784.75,-239.92"/>
<polygon fill="midnightblue" stroke="midnightblue" points="878.76,-218.01 887.49,-212.01 876.92,-211.26 878.76,-218.01"/>
</g>
<!-- Node37 -->
<g id="node24" class="node">
<title>Node37</title>
<g id="a_node24"><a xlink:href="common__cmd__packet__util_8c.html#abc96a827a712bd57b3fbd1b37d261682" target="_top" xlink:title="他の OBC のコマンドを RT として生成し，即時実行する">
<polygon fill="white" stroke="black" points="681.5,-61.5 681.5,-91.5 815.5,-91.5 815.5,-61.5 681.5,-61.5"/>
<text text-anchor="start" x="689.5" y="-79.5" font-family="Helvetica,sans-Serif" font-size="10.00">CCP_form_and_exec_rtc</text>
<text text-anchor="middle" x="748.5" y="-68.5" font-family="Helvetica,sans-Serif" font-size="10.00">_to_other_obc</text>
</a>
</g>
</g>
<!-- Node4&#45;&gt;Node37 -->
<g id="edge30" class="edge">
<title>Node4&#45;&gt;Node37</title>
<path fill="none" stroke="midnightblue" d="M909.1,-184.71C891.42,-162.38 858.26,-124.23 822,-101.5 816.02,-97.75 809.41,-94.48 802.69,-91.66"/>
<polygon fill="midnightblue" stroke="midnightblue" points="906.4,-186.94 915.3,-192.7 911.93,-182.65 906.4,-186.94"/>
</g>
<!-- Node38 -->
<g id="node25" class="node">
<title>Node38</title>
<g id="a_node25"><a xlink:href="command__dispatcher_8c.html#a90617acff33923f51c212b8e3034712c" target="_top" xlink:title="CDIS に登録されているコマンドキューからコマンドを実行">
<polygon fill="white" stroke="black" points="678.5,-420 678.5,-439 818.5,-439 818.5,-420 678.5,-420"/>
<text text-anchor="middle" x="748.5" y="-427" font-family="Helvetica,sans-Serif" font-size="10.00">CDIS_dispatch_command</text>
</a>
</g>
</g>
<!-- Node4&#45;&gt;Node38 -->
<g id="edge31" class="edge">
<title>Node4&#45;&gt;Node38</title>
<path fill="none" stroke="midnightblue" d="M908.92,-220.32C874.28,-265.77 783.48,-384.92 756.91,-419.78"/>
<polygon fill="midnightblue" stroke="midnightblue" points="911.79,-222.33 915.07,-212.25 906.22,-218.09 911.79,-222.33"/>
</g>
<!-- Node6 -->
<g id="node6" class="node">
<title>Node6</title>
<g id="a_node6"><a xlink:href="block__command__executor_8c.html#abb0608b32539dc732cc08efca4a451df" target="_top" xlink:title=" ">
<polygon fill="white" stroke="black" points="278.5,-88 278.5,-107 432.5,-107 432.5,-88 278.5,-88"/>
<text text-anchor="middle" x="355.5" y="-95" font-family="Helvetica,sans-Serif" font-size="10.00">Cmd_BCE_COMBINE_BLOCK</text>
</a>
</g>
</g>
<!-- Node5&#45;&gt;Node6 -->
<g id="edge5" class="edge">
<title>Node5&#45;&gt;Node6</title>
<path fill="none" stroke="midnightblue" d="M692.3,-145.98C686.37,-144.06 680.5,-141.91 675,-139.5 657.61,-131.89 657.04,-122.43 639,-116.5 571.76,-94.38 490.78,-91.13 432.79,-92.53"/>
<polygon fill="midnightblue" stroke="midnightblue" points="691.7,-149.45 702.28,-148.98 693.71,-142.75 691.7,-149.45"/>
</g>
<!-- Node7 -->
<g id="node7" class="node">
<title>Node7</title>
<g id="a_node7"><a xlink:href="command__analyze_8h.html#aa375895192b16d8e7f0ff4545b54e6c4" target="_top" xlink:title="Cmd Tableのロード">
<polygon fill="white" stroke="black" points="113,-221 113,-240 226,-240 226,-221 113,-221"/>
<text text-anchor="middle" x="169.5" y="-228" font-family="Helvetica,sans-Serif" font-size="10.00">CA_load_cmd_table</text>
</a>
</g>
</g>
<!-- Node6&#45;&gt;Node7 -->
<g id="edge6" class="edge">
<title>Node6&#45;&gt;Node7</title>
<path fill="none" stroke="midnightblue" d="M272.84,-110.85C269.08,-112.52 265.44,-114.4 262,-116.5 218.26,-143.23 186.58,-198.76 175.16,-220.99"/>
<polygon fill="midnightblue" stroke="midnightblue" points="274.36,-114.01 282.4,-107.11 271.81,-107.49 274.36,-114.01"/>
</g>
<!-- Node8 -->
<g id="node8" class="node">
<title>Node8</title>
<g id="a_node8"><a xlink:href="command__analyze_8c.html#ae6d1f376bf4e1c9c4b63bc3f04924c8a" target="_top" xlink:title="CA の初期化">
<polygon fill="white" stroke="red" points="0,-221 0,-240 77,-240 77,-221 0,-221"/>
<text text-anchor="middle" x="38.5" y="-228" font-family="Helvetica,sans-Serif" font-size="10.00">CA_initialize</text>
</a>
</g>
</g>
<!-- Node7&#45;&gt;Node8 -->
<g id="edge7" class="edge">
<title>Node7&#45;&gt;Node8</title>
<path fill="none" stroke="midnightblue" d="M102.5,-230.5C93.82,-230.5 85.17,-230.5 77.19,-230.5"/>
<polygon fill="midnightblue" stroke="midnightblue" points="102.67,-234 112.67,-230.5 102.67,-227 102.67,-234"/>
</g>
<!-- Node14 -->
<g id="node10" class="node">
<title>Node14</title>
<g id="a_node10"><a xlink:href="block__command__executor_8c.html#adc05f3761578b7c2170e54e3f5b13c3e" target="_top" xlink:title=" ">
<polygon fill="white" stroke="black" points="283,-50 283,-69 428,-69 428,-50 283,-50"/>
<text text-anchor="middle" x="355.5" y="-57" font-family="Helvetica,sans-Serif" font-size="10.00">Cmd_BCE_ROTATE_BLOCK</text>
</a>
</g>
</g>
<!-- Node13&#45;&gt;Node14 -->
<g id="edge9" class="edge">
<title>Node13&#45;&gt;Node14</title>
<path fill="none" stroke="midnightblue" d="M702.39,-108.26C693.31,-105.74 683.84,-103.07 675,-100.5 658.93,-95.83 655.39,-92.84 639,-89.5 568.08,-75.04 485.64,-67.3 428.19,-63.33"/>
<polygon fill="midnightblue" stroke="midnightblue" points="701.47,-111.64 712.04,-110.93 703.34,-104.89 701.47,-111.64"/>
</g>
<!-- Node14&#45;&gt;Node7 -->
<g id="edge10" class="edge">
<title>Node14&#45;&gt;Node7</title>
<path fill="none" stroke="midnightblue" d="M273.29,-71.89C269.33,-73.81 265.54,-76 262,-78.5 209.45,-115.68 181.72,-193.46 173.31,-220.77"/>
<polygon fill="midnightblue" stroke="midnightblue" points="274.92,-75.01 282.79,-67.92 272.21,-68.55 274.92,-75.01"/>
</g>
<!-- Node16 -->
<g id="node12" class="node">
<title>Node16</title>
<g id="a_node12"><a xlink:href="block__command__executor_8c.html#aaf3687244959da89ab0bc25a86cff912" target="_top" xlink:title=" ">
<polygon fill="white" stroke="black" points="270,-0.5 270,-30.5 441,-30.5 441,-0.5 270,-0.5"/>
<text text-anchor="start" x="278" y="-18.5" font-family="Helvetica,sans-Serif" font-size="10.00">Cmd_BCE_TIMELIMIT_COMBINE</text>
<text text-anchor="middle" x="355.5" y="-7.5" font-family="Helvetica,sans-Serif" font-size="10.00">_BLOCK</text>
</a>
</g>
</g>
<!-- Node15&#45;&gt;Node16 -->
<g id="edge12" class="edge">
<title>Node15&#45;&gt;Node16</title>
<path fill="none" stroke="midnightblue" d="M670.83,-20.32C604.78,-19.31 509.58,-17.85 441.28,-16.8"/>
<polygon fill="midnightblue" stroke="midnightblue" points="671.12,-23.83 681.17,-20.48 671.23,-16.83 671.12,-23.83"/>
</g>
<!-- Node16&#45;&gt;Node7 -->
<g id="edge13" class="edge">
<title>Node16&#45;&gt;Node7</title>
<path fill="none" stroke="midnightblue" d="M268.33,-35.81C266.13,-37.26 264.02,-38.83 262,-40.5 201.72,-90.55 178.28,-189.69 172.21,-220.88"/>
<polygon fill="midnightblue" stroke="midnightblue" points="270.28,-38.72 277.18,-30.68 266.77,-32.66 270.28,-38.72"/>
</g>
<!-- Node18 -->
<g id="node14" class="node">
<title>Node18</title>
<g id="a_node14"><a xlink:href="telemetry__manager_8c.html#ad35deac0fb010f1cc7e1891f1de5084c" target="_top" xlink:title="TLM 送出開始">
<polygon fill="white" stroke="black" points="485,-202 485,-221 639,-221 639,-202 485,-202"/>
<text text-anchor="middle" x="562" y="-209" font-family="Helvetica,sans-Serif" font-size="10.00">Cmd_TLM_MGR_START_TLM</text>
</a>
</g>
</g>
<!-- Node17&#45;&gt;Node18 -->
<g id="edge15" class="edge">
<title>Node17&#45;&gt;Node18</title>
<path fill="none" stroke="midnightblue" d="M664.61,-206.54C656.16,-206.96 647.61,-207.37 639.23,-207.78"/>
<polygon fill="midnightblue" stroke="midnightblue" points="665.03,-210.03 674.85,-206.04 664.69,-203.04 665.03,-210.03"/>
</g>
<!-- Node19 -->
<g id="node15" class="node">
<title>Node19</title>
<g id="a_node15"><a xlink:href="event__handler_8c.html#a8d7de705ac2b09f9f25644f0c9f55952" target="_top" xlink:title="EH 対応を実施">
<polygon fill="white" stroke="black" points="522,-164 522,-183 602,-183 602,-164 522,-164"/>
<text text-anchor="middle" x="562" y="-171" font-family="Helvetica,sans-Serif" font-size="10.00">EH_respond_</text>
</a>
</g>
</g>
<!-- Node17&#45;&gt;Node19 -->
<g id="edge17" class="edge">
<title>Node17&#45;&gt;Node19</title>
<path fill="none" stroke="midnightblue" d="M664.87,-189.51C643.02,-186.08 620.44,-182.53 602.11,-179.65"/>
<polygon fill="midnightblue" stroke="midnightblue" points="664.42,-192.98 674.85,-191.08 665.51,-186.07 664.42,-192.98"/>
</g>
<!-- Node28 -->
<g id="node17" class="node">
<title>Node28</title>
<g id="a_node17"><a xlink:href="mode__manager_8c.html#a4a483437e28116e6067d488392922a8f" target="_top" xlink:title="(モード遷移に対応する)ブロックコマンドのタイムラインへの展開を行う">
<polygon fill="white" stroke="black" points="494,-126 494,-145 630,-145 630,-126 494,-126"/>
<text text-anchor="middle" x="562" y="-133" font-family="Helvetica,sans-Serif" font-size="10.00">MM_deploy_block_cmd_</text>
</a>
</g>
</g>
<!-- Node17&#45;&gt;Node28 -->
<g id="edge19" class="edge">
<title>Node17&#45;&gt;Node28</title>
<path fill="none" stroke="midnightblue" d="M689.14,-183.75C684.3,-181.78 679.53,-179.69 675,-177.5 657.91,-169.24 656.44,-162.01 639,-154.5 630.26,-150.73 620.61,-147.61 611.21,-145.05"/>
<polygon fill="midnightblue" stroke="midnightblue" points="687.91,-187.02 698.5,-187.38 690.45,-180.5 687.91,-187.02"/>
</g>
<!-- Node18&#45;&gt;Node7 -->
<g id="edge16" class="edge">
<title>Node18&#45;&gt;Node7</title>
<path fill="none" stroke="midnightblue" d="M474.77,-215.7C398.97,-219.38 290.9,-224.64 226.03,-227.8"/>
<polygon fill="midnightblue" stroke="midnightblue" points="474.96,-219.19 484.78,-215.21 474.62,-212.2 474.96,-219.19"/>
</g>
<!-- Node20 -->
<g id="node16" class="node">
<title>Node20</title>
<g id="a_node16"><a xlink:href="event__handler_8c.html#ac7461e79109f06783e2c620a6d999a6b" target="_top" xlink:title="EH の対応条件をチェックし， EL_Event に対応する">
<polygon fill="white" stroke="red" points="275,-164 275,-183 436,-183 436,-164 275,-164"/>
<text text-anchor="middle" x="355.5" y="-171" font-family="Helvetica,sans-Serif" font-size="10.00">EH_check_rule_and_respond_</text>
</a>
</g>
</g>
<!-- Node19&#45;&gt;Node20 -->
<g id="edge18" class="edge">
<title>Node19&#45;&gt;Node20</title>
<path fill="none" stroke="midnightblue" d="M511.52,-173.5C488.87,-173.5 461.46,-173.5 436.02,-173.5"/>
<polygon fill="midnightblue" stroke="midnightblue" points="511.57,-177 521.57,-173.5 511.57,-170 511.57,-177"/>
</g>
<!-- Node29 -->
<g id="node18" class="node">
<title>Node29</title>
<g id="a_node18"><a xlink:href="mode__manager_8c.html#ae4381c1c84d8b5d8aa033e522530436d" target="_top" xlink:title="Cmd_MM_START_TRANSITIONの実体">
<polygon fill="white" stroke="red" points="296,-126 296,-145 415,-145 415,-126 296,-126"/>
<text text-anchor="middle" x="355.5" y="-133" font-family="Helvetica,sans-Serif" font-size="10.00">MM_start_transition_</text>
</a>
</g>
</g>
<!-- Node28&#45;&gt;Node29 -->
<g id="edge20" class="edge">
<title>Node28&#45;&gt;Node29</title>
<path fill="none" stroke="midnightblue" d="M483.49,-135.5C460.84,-135.5 436.47,-135.5 415.19,-135.5"/>
<polygon fill="midnightblue" stroke="midnightblue" points="483.76,-139 493.76,-135.5 483.76,-132 483.76,-139"/>
</g>
<!-- Node32&#45;&gt;Node18 -->
<g id="edge24" class="edge">
<title>Node32&#45;&gt;Node18</title>
<path fill="none" stroke="midnightblue" d="M691.13,-237.89C664.89,-232.49 634.06,-226.14 609.22,-221.02"/>
<polygon fill="midnightblue" stroke="midnightblue" points="690.44,-241.32 700.94,-239.91 691.85,-234.47 690.44,-241.32"/>
</g>
<!-- Node33 -->
<g id="node20" class="node">
<title>Node33</title>
<g id="a_node20"><a xlink:href="telemetry__manager_8c.html#a074cc3d91b445b8c4b4c42c153d7187d" target="_top" xlink:title="User テレメ (HIGH_FREQ, LOW_FREQ) を初期化">
<polygon fill="white" stroke="black" points="262,-278 262,-297 449,-297 449,-278 262,-278"/>
<text text-anchor="middle" x="355.5" y="-285" font-family="Helvetica,sans-Serif" font-size="10.00">Cmd_TLM_MGR_CLEAR_USER_TLM</text>
</a>
</g>
</g>
<!-- Node32&#45;&gt;Node33 -->
<g id="edge22" class="edge">
<title>Node32&#45;&gt;Node33</title>
<path fill="none" stroke="midnightblue" d="M671.05,-259.79C660.3,-261.11 649.38,-262.39 639,-263.5 575.74,-270.27 504.35,-276.32 449.16,-280.65"/>
<polygon fill="midnightblue" stroke="midnightblue" points="671.79,-263.22 681.28,-258.51 670.93,-256.28 671.79,-263.22"/>
</g>
<!-- Node34 -->
<g id="node21" class="node">
<title>Node34</title>
<g id="a_node21"><a xlink:href="telemetry__manager_8c.html#a3d32a11022f8d6fe049e3866cf5753e3" target="_top" xlink:title="TLM 送出一時停止">
<polygon fill="white" stroke="black" points="281,-240 281,-259 430,-259 430,-240 281,-240"/>
<text text-anchor="middle" x="355.5" y="-247" font-family="Helvetica,sans-Serif" font-size="10.00">Cmd_TLM_MGR_STOP_TLM</text>
</a>
</g>
</g>
<!-- Node32&#45;&gt;Node34 -->
<g id="edge25" class="edge">
<title>Node32&#45;&gt;Node34</title>
<path fill="none" stroke="midnightblue" d="M671.13,-249.5C601.41,-249.5 499.01,-249.5 430.15,-249.5"/>
<polygon fill="midnightblue" stroke="midnightblue" points="671.17,-253 681.17,-249.5 671.17,-246 671.17,-253"/>
</g>
<!-- Node35 -->
<g id="node22" class="node">
<title>Node35</title>
<g id="a_node22"><a xlink:href="telemetry__manager_8c.html#aa1c9511a663d343ea17f183e18ce3356" target="_top" xlink:title="初期化（分割 2/2）">
<polygon fill="white" stroke="black" points="510.5,-316 510.5,-335 613.5,-335 613.5,-316 510.5,-316"/>
<text text-anchor="middle" x="562" y="-323" font-family="Helvetica,sans-Serif" font-size="10.00">TLM_MGR_init_2_</text>
</a>
</g>
</g>
<!-- Node32&#45;&gt;Node35 -->
<g id="edge27" class="edge">
<title>Node32&#45;&gt;Node35</title>
<path fill="none" stroke="midnightblue" d="M720.48,-263.76C698.81,-274.88 667.43,-290.26 639,-301.5 625.36,-306.89 609.99,-311.93 596.65,-315.99"/>
<polygon fill="midnightblue" stroke="midnightblue" points="722.15,-266.84 729.42,-259.14 718.93,-260.63 722.15,-266.84"/>
</g>
<!-- Node33&#45;&gt;Node7 -->
<g id="edge23" class="edge">
<title>Node33&#45;&gt;Node7</title>
<path fill="none" stroke="midnightblue" d="M289.32,-275.75C280.08,-273.61 270.75,-271.19 262,-268.5 236.68,-260.72 208.71,-248.55 190.44,-240.09"/>
<polygon fill="midnightblue" stroke="midnightblue" points="288.76,-279.21 299.28,-277.96 290.28,-272.37 288.76,-279.21"/>
</g>
<!-- Node34&#45;&gt;Node7 -->
<g id="edge26" class="edge">
<title>Node34&#45;&gt;Node7</title>
<path fill="none" stroke="midnightblue" d="M271.03,-240.88C255.78,-239.31 240.22,-237.7 226.04,-236.24"/>
<polygon fill="midnightblue" stroke="midnightblue" points="270.68,-244.36 280.99,-241.91 271.4,-237.4 270.68,-244.36"/>
</g>
<!-- Node36 -->
<g id="node23" class="node">
<title>Node36</title>
<g id="a_node23"><a xlink:href="telemetry__manager_8c.html#acca57742230ccff6063cf0663e803a5f" target="_top" xlink:title="初期化">
<polygon fill="white" stroke="black" points="296.5,-556 296.5,-575 414.5,-575 414.5,-556 296.5,-556"/>
<text text-anchor="middle" x="355.5" y="-563" font-family="Helvetica,sans-Serif" font-size="10.00">Cmd_TLM_MGR_INIT</text>
</a>
</g>
</g>
<!-- Node35&#45;&gt;Node36 -->
<g id="edge28" class="edge">
<title>Node35&#45;&gt;Node36</title>
<path fill="none" stroke="midnightblue" d="M500.8,-333.31C494.89,-336.09 489.45,-339.74 485,-344.5 422.77,-411.16 512.63,-481.18 449,-546.5 439.85,-555.89 427.38,-561.27 414.57,-564.23"/>
<polygon fill="midnightblue" stroke="midnightblue" points="502.32,-336.48 510.4,-329.62 499.81,-329.94 502.32,-336.48"/>
</g>
<!-- Node36&#45;&gt;Node7 -->
<g id="edge29" class="edge">
<title>Node36&#45;&gt;Node7</title>
<path fill="none" stroke="midnightblue" d="M286.29,-560.45C277.34,-557.34 268.9,-552.87 262,-546.5 168.02,-459.69 168.45,-282.86 170.03,-240.01"/>
<polygon fill="midnightblue" stroke="midnightblue" points="285.57,-563.88 296.15,-563.3 287.52,-557.16 285.57,-563.88"/>
</g>
<!-- Node39 -->
<g id="node26" class="node">
<title>Node39</title>
<g id="a_node26"><a xlink:href="di__aobc_8c.html#ac2b0fb03e89d75b82419d4ad53202f8b" target="_top" xlink:title=" ">
<polygon fill="white" stroke="black" points="488,-518 488,-537 636,-537 636,-518 488,-518"/>
<text text-anchor="middle" x="562" y="-525" font-family="Helvetica,sans-Serif" font-size="10.00">DI_AOBC_cmd_dispatcher_</text>
</a>
</g>
</g>
<!-- Node38&#45;&gt;Node39 -->
<g id="edge32" class="edge">
<title>Node38&#45;&gt;Node39</title>
<path fill="none" stroke="midnightblue" d="M729.73,-445.82C709.31,-463.73 674.07,-492.11 639,-508.5 630.87,-512.3 621.88,-515.4 613.01,-517.92"/>
<polygon fill="midnightblue" stroke="midnightblue" points="732.16,-448.34 737.29,-439.07 727.5,-443.12 732.16,-448.34"/>
</g>
<!-- Node41 -->
<g id="node28" class="node">
<title>Node41</title>
<g id="a_node28"><a xlink:href="gs__command__dispatcher_8c.html#a4fe4cfc8c0f816a286dc50d8797cef54" target="_top" xlink:title="GSCD App 実行関数">
<polygon fill="white" stroke="black" points="514,-480 514,-499 610,-499 610,-480 514,-480"/>
<text text-anchor="middle" x="562" y="-487" font-family="Helvetica,sans-Serif" font-size="10.00">GSCD_dispatch_</text>
</a>
</g>
</g>
<!-- Node38&#45;&gt;Node41 -->
<g id="edge34" class="edge">
<title>Node38&#45;&gt;Node41</title>
<path fill="none" stroke="midnightblue" d="M714.93,-442.94C693.56,-451.48 664.88,-462.4 639,-470.5 628.1,-473.91 616.17,-477.13 605.06,-479.91"/>
<polygon fill="midnightblue" stroke="midnightblue" points="716.53,-446.07 724.49,-439.09 713.91,-439.58 716.53,-446.07"/>
</g>
<!-- Node43 -->
<g id="node30" class="node">
<title>Node43</title>
<g id="a_node30"><a xlink:href="realtime__command__dispatcher_8c.html#aa66b7d158969999a789dc69d2d5b1b7d" target="_top" xlink:title=" ">
<polygon fill="white" stroke="red" points="515,-442 515,-461 609,-461 609,-442 515,-442"/>
<text text-anchor="middle" x="562" y="-449" font-family="Helvetica,sans-Serif" font-size="10.00">RTCD_dispatch_</text>
</a>
</g>
</g>
<!-- Node38&#45;&gt;Node43 -->
<g id="edge36" class="edge">
<title>Node38&#45;&gt;Node43</title>
<path fill="none" stroke="midnightblue" d="M668.14,-438.96C647.98,-441.37 626.98,-443.87 609.09,-446"/>
<polygon fill="midnightblue" stroke="midnightblue" points="668.76,-442.41 678.27,-437.75 667.93,-435.46 668.76,-442.41"/>
</g>
<!-- Node45 -->
<g id="node31" class="node">
<title>Node45</title>
<g id="a_node31"><a xlink:href="task__dispatcher_8c.html#ac880fe6e26ecdf8711d08980cad6787d" target="_top" xlink:title="現在時刻に応じて、TaskList から Cmd を一つ実行する or TaskList を再展開する">
<polygon fill="white" stroke="red" points="504,-392.5 504,-422.5 620,-422.5 620,-392.5 504,-392.5"/>
<text text-anchor="start" x="512" y="-410.5" font-family="Helvetica,sans-Serif" font-size="10.00">TDSP_execute_pl_as</text>
<text text-anchor="middle" x="562" y="-399.5" font-family="Helvetica,sans-Serif" font-size="10.00">_task_list</text>
</a>
</g>
</g>
<!-- Node38&#45;&gt;Node45 -->
<g id="edge37" class="edge">
<title>Node38&#45;&gt;Node45</title>
<path fill="none" stroke="midnightblue" d="M668.31,-420.06C652.16,-418.13 635.47,-416.14 620.26,-414.33"/>
<polygon fill="midnightblue" stroke="midnightblue" points="667.93,-423.54 678.27,-421.25 668.76,-416.59 667.93,-423.54"/>
</g>
<!-- Node48 -->
<g id="node32" class="node">
<title>Node48</title>
<g id="a_node32"><a xlink:href="timeline__command__dispatcher_8c.html#adc7c7ed35f5cb69bb1d8baccd0193f8d" target="_top" xlink:title="指定された lien_no の Timeline コマンドを実行する">
<polygon fill="white" stroke="red" points="501.5,-354 501.5,-373 622.5,-373 622.5,-354 501.5,-354"/>
<text text-anchor="middle" x="562" y="-361" font-family="Helvetica,sans-Serif" font-size="10.00">TLCD_tlc_dispatcher_</text>
</a>
</g>
</g>
<!-- Node38&#45;&gt;Node48 -->
<g id="edge38" class="edge">
<title>Node38&#45;&gt;Node48</title>
<path fill="none" stroke="midnightblue" d="M718.64,-415.45C697.06,-405.34 666.65,-391.87 639,-382.5 628.57,-378.96 617.13,-375.76 606.36,-373.04"/>
<polygon fill="midnightblue" stroke="midnightblue" points="717.35,-418.72 727.89,-419.84 720.35,-412.39 717.35,-418.72"/>
</g>
<!-- Node40 -->
<g id="node27" class="node">
<title>Node40</title>
<g id="a_node27"><a xlink:href="di__aobc_8c.html#a22b846ecf2fe48c7bff4f2c10f2bc284" target="_top" xlink:title="AOBC cmd dispatcher アプリ生成関数">
<polygon fill="white" stroke="red" points="284,-518 284,-537 427,-537 427,-518 284,-518"/>
<text text-anchor="middle" x="355.5" y="-525" font-family="Helvetica,sans-Serif" font-size="10.00">DI_AOBC_cmd_dispatcher</text>
</a>
</g>
</g>
<!-- Node39&#45;&gt;Node40 -->
<g id="edge33" class="edge">
<title>Node39&#45;&gt;Node40</title>
<path fill="none" stroke="midnightblue" d="M477.46,-527.5C460.77,-527.5 443.39,-527.5 427.19,-527.5"/>
<polygon fill="midnightblue" stroke="midnightblue" points="477.75,-531 487.75,-527.5 477.75,-524 477.75,-531"/>
</g>
<!-- Node42 -->
<g id="node29" class="node">
<title>Node42</title>
<g id="a_node29"><a xlink:href="gs__command__dispatcher_8c.html#a0195f703ab1a606ae7541ef886e609bc" target="_top" xlink:title="GSCD App 生成関数">
<polygon fill="white" stroke="red" points="303.5,-480 303.5,-499 407.5,-499 407.5,-480 303.5,-480"/>
<text text-anchor="middle" x="355.5" y="-487" font-family="Helvetica,sans-Serif" font-size="10.00">GSCD_create_app</text>
</a>
</g>
</g>
<!-- Node41&#45;&gt;Node42 -->
<g id="edge35" class="edge">
<title>Node41&#45;&gt;Node42</title>
<path fill="none" stroke="midnightblue" d="M503.47,-489.5C473.38,-489.5 436.85,-489.5 407.73,-489.5"/>
<polygon fill="midnightblue" stroke="midnightblue" points="503.83,-493 513.83,-489.5 503.83,-486 503.83,-493"/>
</g>
<!-- Node56 -->
<g id="node34" class="node">
<title>Node56</title>
<g id="a_node34"><a xlink:href="packet__handler_8c.html#a9d16c8b958f0f983cf15674d6c528b02" target="_top" xlink:title="CCP を解析する">
<polygon fill="white" stroke="black" points="680,-632 680,-651 817,-651 817,-632 680,-632"/>
<text text-anchor="middle" x="748.5" y="-639" font-family="Helvetica,sans-Serif" font-size="10.00">PH_analyze_cmd_packet</text>
</a>
</g>
</g>
<!-- Node55&#45;&gt;Node56 -->
<g id="edge40" class="edge">
<title>Node55&#45;&gt;Node56</title>
<path fill="none" stroke="midnightblue" d="M1032.73,-584.02C966.49,-597.46 858.2,-619.44 796.48,-631.97"/>
<polygon fill="midnightblue" stroke="midnightblue" points="1033.48,-587.44 1042.58,-582.02 1032.09,-580.58 1033.48,-587.44"/>
</g>
<!-- Node57 -->
<g id="node35" class="node">
<title>Node57</title>
<g id="a_node35"><a xlink:href="common__cmd__packet__util_8c.html#aedfb69bc9ff98498734df05026c5a3f2" target="_top" xlink:title="Realtime command を登録">
<polygon fill="white" stroke="black" points="513.5,-708 513.5,-727 610.5,-727 610.5,-708 513.5,-708"/>
<text text-anchor="middle" x="562" y="-715" font-family="Helvetica,sans-Serif" font-size="10.00">CCP_register_rtc</text>
</a>
</g>
</g>
<!-- Node56&#45;&gt;Node57 -->
<g id="edge41" class="edge">
<title>Node56&#45;&gt;Node57</title>
<path fill="none" stroke="midnightblue" d="M723.48,-656.26C701.99,-668.94 669.31,-686.94 639,-698.5 629.34,-702.18 618.72,-705.35 608.56,-707.99"/>
<polygon fill="midnightblue" stroke="midnightblue" points="725.45,-659.16 732.24,-651.02 721.86,-653.15 725.45,-659.16"/>
</g>
<!-- Node58 -->
<g id="node36" class="node">
<title>Node58</title>
<g id="a_node36"><a xlink:href="common__cmd__packet__util_8c.html#a8321fb60193f3b5dcf93b42075bea0a6" target="_top" xlink:title="Timeline command を登録">
<polygon fill="white" stroke="black" points="514,-670 514,-689 610,-689 610,-670 514,-670"/>
<text text-anchor="middle" x="562" y="-677" font-family="Helvetica,sans-Serif" font-size="10.00">CCP_register_tlc</text>
</a>
</g>
</g>
<!-- Node56&#45;&gt;Node58 -->
<g id="edge42" class="edge">
<title>Node56&#45;&gt;Node58</title>
<path fill="none" stroke="midnightblue" d="M691.13,-653.11C664.89,-658.51 634.06,-664.86 609.22,-669.98"/>
<polygon fill="midnightblue" stroke="midnightblue" points="691.85,-656.53 700.94,-651.09 690.44,-649.68 691.85,-656.53"/>
</g>
<!-- Node59 -->
<g id="node37" class="node">
<title>Node59</title>
<g id="a_node37"><a xlink:href="common__cmd__packet__util_8c.html#a81e108413662be4555dc9ca3fadc6d11" target="_top" xlink:title="Timeline command を登録 (ASAP 版)">
<polygon fill="white" stroke="red" points="499.5,-632 499.5,-651 624.5,-651 624.5,-632 499.5,-632"/>
<text text-anchor="middle" x="562" y="-639" font-family="Helvetica,sans-Serif" font-size="10.00">CCP_register_tlc_asap</text>
</a>
</g>
</g>
<!-- Node56&#45;&gt;Node59 -->
<g id="edge43" class="edge">
<title>Node56&#45;&gt;Node59</title>
<path fill="none" stroke="midnightblue" d="M669.54,-641.5C654.51,-641.5 638.95,-641.5 624.53,-641.5"/>
<polygon fill="midnightblue" stroke="midnightblue" points="669.85,-645 679.85,-641.5 669.85,-638 669.85,-645"/>
</g>
<!-- Node61 -->
<g id="node38" class="node">
<title>Node61</title>
<g id="a_node38"><a xlink:href="divided__cmd__utility_8c.html#a65ad0b8aa0af1c9c0bdd74aa37b15b15" target="_top" xlink:title="次の分割の実行を登録">
<polygon fill="white" stroke="red" points="508,-556 508,-575 616,-575 616,-556 508,-556"/>
<text text-anchor="middle" x="562" y="-563" font-family="Helvetica,sans-Serif" font-size="10.00">DCU_register_next</text>
</a>
</g>
</g>
<!-- Node56&#45;&gt;Node61 -->
<g id="edge44" class="edge">
<title>Node56&#45;&gt;Node61</title>
<path fill="none" stroke="midnightblue" d="M723.48,-626.74C701.99,-614.06 669.31,-596.06 639,-584.5 629.34,-580.82 618.72,-577.65 608.56,-575.01"/>
<polygon fill="midnightblue" stroke="midnightblue" points="721.86,-629.85 732.24,-631.98 725.45,-623.84 721.86,-629.85"/>
</g>
<!-- Node66 -->
<g id="node39" class="node">
<title>Node66</title>
<g id="a_node39"><a xlink:href="gs_8c.html#a71a6268f1b467c60429c671e47e51e1d" target="_top" xlink:title="地上からの受信データ解析関数">
<polygon fill="white" stroke="red" points="499,-746 499,-765 625,-765 625,-746 499,-746"/>
<text text-anchor="middle" x="562" y="-753" font-family="Helvetica,sans-Serif" font-size="10.00">GS_analyze_rec_data_</text>
</a>
</g>
</g>
<!-- Node56&#45;&gt;Node66 -->
<g id="edge46" class="edge">
<title>Node56&#45;&gt;Node66</title>
<path fill="none" stroke="midnightblue" d="M732.5,-658.97C713.08,-680.45 677.19,-716.52 639,-736.5 631.65,-740.35 623.49,-743.44 615.32,-745.92"/>
<polygon fill="midnightblue" stroke="midnightblue" points="735.32,-661.06 739.32,-651.26 730.07,-656.42 735.32,-661.06"/>
</g>
<!-- Node75 -->
<g id="node40" class="node">
<title>Node75</title>
<g id="a_node40"><a xlink:href="packet__handler_8c.html#acf757fa72967bf66b39dc5ced7132330" target="_top" xlink:title="CTCP を解析する">
<polygon fill="white" stroke="black" points="506.5,-594 506.5,-613 617.5,-613 617.5,-594 506.5,-594"/>
<text text-anchor="middle" x="562" y="-601" font-family="Helvetica,sans-Serif" font-size="10.00">PH_analyze_packet</text>
</a>
</g>
</g>
<!-- Node56&#45;&gt;Node75 -->
<g id="edge47" class="edge">
<title>Node56&#45;&gt;Node75</title>
<path fill="none" stroke="midnightblue" d="M691.13,-629.89C664.89,-624.49 634.06,-618.14 609.22,-613.02"/>
<polygon fill="midnightblue" stroke="midnightblue" points="690.44,-633.32 700.94,-631.91 691.85,-626.47 690.44,-633.32"/>
</g>
<!-- Node61&#45;&gt;Node36 -->
<g id="edge45" class="edge">
<title>Node61&#45;&gt;Node36</title>
<path fill="none" stroke="midnightblue" d="M497.52,-565.5C471.12,-565.5 440.66,-565.5 414.82,-565.5"/>
<polygon fill="midnightblue" stroke="midnightblue" points="497.8,-569 507.8,-565.5 497.8,-562 497.8,-569"/>
</g>
<!-- Node76&#45;&gt;Node4 -->
<g id="edge49" class="edge">
<title>Node76&#45;&gt;Node4</title>
<path fill="none" stroke="midnightblue" d="M1021.64,-216.63C1010.93,-215.07 999.87,-213.46 989.22,-211.91"/>
<polygon fill="midnightblue" stroke="midnightblue" points="1021.39,-220.13 1031.79,-218.11 1022.4,-213.2 1021.39,-220.13"/>
</g>
<!-- Node78 -->
<g id="node43" class="node">
<title>Node78</title>
<g id="a_node43"><a xlink:href="gs__validate_8c.html#a6db373d9953513322f50fa091a63dca2" target="_top" xlink:title=" ">
<polygon fill="white" stroke="black" points="1025,-708 1025,-727 1156,-727 1156,-708 1025,-708"/>
<text text-anchor="middle" x="1090.5" y="-715" font-family="Helvetica,sans-Serif" font-size="10.00">GS_check_tc_segment_</text>
</a>
</g>
</g>
<!-- Node77&#45;&gt;Node78 -->
<g id="edge51" class="edge">
<title>Node77&#45;&gt;Node78</title>
<path fill="none" stroke="midnightblue" d="M1181.67,-717.5C1173.18,-717.5 1164.54,-717.5 1156.14,-717.5"/>
<polygon fill="midnightblue" stroke="midnightblue" points="1181.94,-721 1191.94,-717.5 1181.94,-714 1181.94,-721"/>
</g>
<!-- Node79 -->
<g id="node44" class="node">
<title>Node79</title>
<g id="a_node44"><a xlink:href="gs__validate_8c.html#a3f54d41f51742962777dcc779abbdfb5" target="_top" xlink:title=" ">
<polygon fill="white" stroke="black" points="867,-746 867,-765 980,-765 980,-746 867,-746"/>
<text text-anchor="middle" x="923.5" y="-753" font-family="Helvetica,sans-Serif" font-size="10.00">GS_check_ad_cmd_</text>
</a>
</g>
</g>
<!-- Node78&#45;&gt;Node79 -->
<g id="edge52" class="edge">
<title>Node78&#45;&gt;Node79</title>
<path fill="none" stroke="midnightblue" d="M1037.85,-729.4C1014.65,-734.74 987.66,-740.95 965.84,-745.98"/>
<polygon fill="midnightblue" stroke="midnightblue" points="1038.9,-732.74 1047.86,-727.09 1037.33,-725.92 1038.9,-732.74"/>
</g>
<!-- Node81 -->
<g id="node46" class="node">
<title>Node81</title>
<g id="a_node46"><a xlink:href="gs__validate_8c.html#afa5e289c0b903a34c000228ac8967281" target="_top" xlink:title=" ">
<polygon fill="white" stroke="black" points="867,-708 867,-727 980,-727 980,-708 867,-708"/>
<text text-anchor="middle" x="923.5" y="-715" font-family="Helvetica,sans-Serif" font-size="10.00">GS_check_bd_cmd_</text>
</a>
</g>
</g>
<!-- Node78&#45;&gt;Node81 -->
<g id="edge55" class="edge">
<title>Node78&#45;&gt;Node81</title>
<path fill="none" stroke="midnightblue" d="M1014.66,-717.5C1003.08,-717.5 991.3,-717.5 980.23,-717.5"/>
<polygon fill="midnightblue" stroke="midnightblue" points="1014.76,-721 1024.76,-717.5 1014.76,-714 1014.76,-721"/>
</g>
<!-- Node80 -->
<g id="node45" class="node">
<title>Node80</title>
<g id="a_node45"><a xlink:href="gs__validate_8c.html#ae90018ba12acc225fde998d339d09ea2" target="_top" xlink:title="tctf の検証">
<polygon fill="white" stroke="black" points="700,-746 700,-765 797,-765 797,-746 700,-746"/>
<text text-anchor="middle" x="748.5" y="-753" font-family="Helvetica,sans-Serif" font-size="10.00">GS_validate_tctf</text>
</a>
</g>
</g>
<!-- Node79&#45;&gt;Node80 -->
<g id="edge53" class="edge">
<title>Node79&#45;&gt;Node80</title>
<path fill="none" stroke="midnightblue" d="M856.64,-755.5C836.88,-755.5 815.59,-755.5 797.24,-755.5"/>
<polygon fill="midnightblue" stroke="midnightblue" points="856.81,-759 866.81,-755.5 856.81,-752 856.81,-759"/>
</g>
<!-- Node80&#45;&gt;Node66 -->
<g id="edge54" class="edge">
<title>Node80&#45;&gt;Node66</title>
<path fill="none" stroke="midnightblue" d="M689.85,-755.5C669.35,-755.5 646.19,-755.5 625.32,-755.5"/>
<polygon fill="midnightblue" stroke="midnightblue" points="689.99,-759 699.99,-755.5 689.99,-752 689.99,-759"/>
</g>
<!-- Node81&#45;&gt;Node80 -->
<g id="edge56" class="edge">
<title>Node81&#45;&gt;Node80</title>
<path fill="none" stroke="midnightblue" d="M868.99,-729.25C844.53,-734.63 815.93,-740.91 792.84,-745.98"/>
<polygon fill="midnightblue" stroke="midnightblue" points="869.83,-732.65 878.84,-727.09 868.33,-725.82 869.83,-732.65"/>
</g>
<!-- Node84 -->
<g id="node49" class="node">
<title>Node84</title>
<g id="a_node49"><a xlink:href="common__tlm__packet_8h.html#aea474a8c441c9f2d5cc21033ce4cc5f8" target="_top" xlink:title="APID を取得">
<polygon fill="white" stroke="black" points="1212.5,-784 1212.5,-803 1295.5,-803 1295.5,-784 1212.5,-784"/>
<text text-anchor="middle" x="1254" y="-791" font-family="Helvetica,sans-Serif" font-size="10.00">CTP_get_apid</text>
</a>
</g>
</g>
<!-- Node83&#45;&gt;Node84 -->
<g id="edge59" class="edge">
<title>Node83&#45;&gt;Node84</title>
<path fill="none" stroke="midnightblue" d="M1344.89,-793.5C1328.75,-793.5 1311.1,-793.5 1295.75,-793.5"/>
<polygon fill="midnightblue" stroke="midnightblue" points="1345.24,-797 1355.24,-793.5 1345.24,-790 1345.24,-797"/>
</g>
<!-- Node85 -->
<g id="node50" class="node">
<title>Node85</title>
<g id="a_node50"><a xlink:href="telemetry__generator_8c.html#a2fcc5d200854a9af5ab4a3d140419093" target="_top" xlink:title=" ">
<polygon fill="white" stroke="black" points="1029.5,-784 1029.5,-803 1151.5,-803 1151.5,-784 1029.5,-784"/>
<text text-anchor="middle" x="1090.5" y="-791" font-family="Helvetica,sans-Serif" font-size="10.00">Cmd_GENERATE_TLM</text>
</a>
</g>
</g>
<!-- Node84&#45;&gt;Node85 -->
<g id="edge60" class="edge">
<title>Node84&#45;&gt;Node85</title>
<path fill="none" stroke="midnightblue" d="M1202.05,-793.5C1186.09,-793.5 1168.32,-793.5 1151.78,-793.5"/>
<polygon fill="midnightblue" stroke="midnightblue" points="1202.25,-797 1212.25,-793.5 1202.25,-790 1202.25,-797"/>
</g>
<!-- Node85&#45;&gt;Node7 -->
<g id="edge61" class="edge">
<title>Node85&#45;&gt;Node7</title>
<path fill="none" stroke="midnightblue" d="M1019.04,-793.5C950.27,-793.5 842.7,-793.5 749.5,-793.5 749.5,-793.5 749.5,-793.5 561,-793.5 398.86,-793.5 347.99,-721.95 262,-584.5 186.59,-463.96 173.09,-283.33 170.9,-240.06"/>
<polygon fill="midnightblue" stroke="midnightblue" points="1019.31,-797 1029.31,-793.5 1019.31,-790 1019.31,-797"/>
</g>
</g>
</svg>
