<?xml version="1.0" encoding="UTF-8" standalone="no"?>
<!DOCTYPE svg PUBLIC "-//W3C//DTD SVG 1.1//EN"
 "http://www.w3.org/Graphics/SVG/1.1/DTD/svg11.dtd">
<!-- Generated by graphviz version 2.43.0 (0)
 -->
<!-- Title: SP_set_2nd_hdr_flag Pages: 1 -->
<svg width="2031pt" height="699pt"
 viewBox="0.00 0.00 2031.00 699.25" xmlns="http://www.w3.org/2000/svg" xmlns:xlink="http://www.w3.org/1999/xlink">
<g id="graph0" class="graph" transform="scale(1 1) rotate(0) translate(4 695.25)">
<title>SP_set_2nd_hdr_flag</title>
<polygon fill="white" stroke="transparent" points="-4,4 -4,-695.25 2027,-695.25 2027,4 -4,4"/>
<!-- Node1 -->
<g id="node1" class="node">
<title>Node1</title>
<g id="a_node1"><a xlink:title="Secondary Header Flag を設定">
<polygon fill="#bfbfbf" stroke="black" points="1907,-77.37 1907,-96.37 2023,-96.37 2023,-77.37 1907,-77.37"/>
<text text-anchor="middle" x="1965" y="-84.37" font-family="Helvetica,sans-Serif" font-size="10.00">SP_set_2nd_hdr_flag</text>
</a>
</g>
</g>
<!-- Node2 -->
<g id="node2" class="node">
<title>Node2</title>
<g id="a_node2"><a xlink:href="cmd__space__packet_8h.html#a33b732036a8d1c3a212769b1c18e280f" target="_top" xlink:title="Secondary Header Flag を設定">
<polygon fill="white" stroke="black" points="1748,-96.37 1748,-115.37 1871,-115.37 1871,-96.37 1748,-96.37"/>
<text text-anchor="middle" x="1809.5" y="-103.37" font-family="Helvetica,sans-Serif" font-size="10.00">CSP_set_2nd_hdr_flag</text>
</a>
</g>
</g>
<!-- Node1&#45;&gt;Node2 -->
<g id="edge1" class="edge">
<title>Node1&#45;&gt;Node2</title>
<path fill="none" stroke="midnightblue" d="M1896.86,-95.18C1888.27,-96.24 1879.52,-97.33 1871.05,-98.37"/>
<polygon fill="midnightblue" stroke="midnightblue" points="1897.35,-98.65 1906.84,-93.94 1896.49,-91.7 1897.35,-98.65"/>
</g>
<!-- Node84 -->
<g id="node43" class="node">
<title>Node84</title>
<g id="a_node43"><a xlink:href="tlm__space__packet_8h.html#a086b20222708c5b7a9aaace514d19500" target="_top" xlink:title="Secondary Header Flag を設定">
<polygon fill="white" stroke="black" points="1748.5,-58.37 1748.5,-77.37 1870.5,-77.37 1870.5,-58.37 1748.5,-58.37"/>
<text text-anchor="middle" x="1809.5" y="-65.37" font-family="Helvetica,sans-Serif" font-size="10.00">TSP_set_2nd_hdr_flag</text>
</a>
</g>
</g>
<!-- Node1&#45;&gt;Node84 -->
<g id="edge57" class="edge">
<title>Node1&#45;&gt;Node84</title>
<path fill="none" stroke="midnightblue" d="M1896.71,-78.54C1888,-77.46 1879.12,-76.36 1870.53,-75.3"/>
<polygon fill="midnightblue" stroke="midnightblue" points="1896.49,-82.04 1906.84,-79.79 1897.35,-75.09 1896.49,-82.04"/>
</g>
<!-- Node3 -->
<g id="node3" class="node">
<title>Node3</title>
<g id="a_node3"><a xlink:href="cmd__space__packet_8h.html#aa4f250d0b768ce918101f7959940b9da" target="_top" xlink:title="共通部分の Header を構築">
<polygon fill="white" stroke="black" points="1587,-176.37 1587,-195.37 1712,-195.37 1712,-176.37 1587,-176.37"/>
<text text-anchor="middle" x="1649.5" y="-183.37" font-family="Helvetica,sans-Serif" font-size="10.00">CSP_set_common_hdr</text>
</a>
</g>
</g>
<!-- Node2&#45;&gt;Node3 -->
<g id="edge2" class="edge">
<title>Node2&#45;&gt;Node3</title>
<path fill="none" stroke="midnightblue" d="M1780.19,-120.2C1748.26,-136.37 1697.19,-162.23 1669.63,-176.18"/>
<polygon fill="midnightblue" stroke="midnightblue" points="1782.1,-123.16 1789.44,-115.52 1778.94,-116.91 1782.1,-123.16"/>
</g>
<!-- Node4 -->
<g id="node4" class="node">
<title>Node4</title>
<g id="a_node4"><a xlink:href="common__cmd__packet_8c.html#a53e55e3275bb17840514876c95203402" target="_top" xlink:title="共通部分の Header を構築">
<polygon fill="white" stroke="black" points="1423,-257.37 1423,-276.37 1548,-276.37 1548,-257.37 1423,-257.37"/>
<text text-anchor="middle" x="1485.5" y="-264.37" font-family="Helvetica,sans-Serif" font-size="10.00">CCP_set_common_hdr</text>
</a>
</g>
</g>
<!-- Node3&#45;&gt;Node4 -->
<g id="edge3" class="edge">
<title>Node3&#45;&gt;Node4</title>
<path fill="none" stroke="midnightblue" d="M1620.19,-200.02C1587.34,-216.45 1534.06,-243.09 1505.69,-257.27"/>
<polygon fill="midnightblue" stroke="midnightblue" points="1621.9,-203.08 1629.28,-195.48 1618.77,-196.82 1621.9,-203.08"/>
</g>
<!-- Node5 -->
<g id="node5" class="node">
<title>Node5</title>
<g id="a_node5"><a xlink:href="common__cmd__packet__util_8c.html#a58160242c4b87906597c90a3465c9596" target="_top" xlink:title="RealTime Command を生成する. CCP_form_* の実体.">
<polygon fill="white" stroke="black" points="1279,-419.37 1279,-438.37 1367,-438.37 1367,-419.37 1279,-419.37"/>
<text text-anchor="middle" x="1323" y="-426.37" font-family="Helvetica,sans-Serif" font-size="10.00">CCP_form_rtc_</text>
</a>
</g>
</g>
<!-- Node4&#45;&gt;Node5 -->
<g id="edge4" class="edge">
<title>Node4&#45;&gt;Node5</title>
<path fill="none" stroke="midnightblue" d="M1467.73,-283.8C1434.29,-317.55 1360.26,-392.27 1333.71,-419.07"/>
<polygon fill="midnightblue" stroke="midnightblue" points="1470.39,-286.08 1474.94,-276.52 1465.42,-281.16 1470.39,-286.08"/>
</g>
<!-- Node6 -->
<g id="node6" class="node">
<title>Node6</title>
<g id="a_node6"><a xlink:href="common__cmd__packet__util_8h.html#af9f77cfe0b19d8078e79f1c32d9b2843" target="_top" xlink:title="Realtime command を生成">
<polygon fill="white" stroke="black" points="1123.5,-248.37 1123.5,-267.37 1206.5,-267.37 1206.5,-248.37 1123.5,-248.37"/>
<text text-anchor="middle" x="1165" y="-255.37" font-family="Helvetica,sans-Serif" font-size="10.00">CCP_form_rtc</text>
</a>
</g>
</g>
<!-- Node5&#45;&gt;Node6 -->
<g id="edge5" class="edge">
<title>Node5&#45;&gt;Node6</title>
<path fill="none" stroke="midnightblue" d="M1306.17,-411.52C1273.6,-375.82 1200.03,-295.18 1174.74,-267.45"/>
<polygon fill="midnightblue" stroke="midnightblue" points="1303.84,-414.16 1313.17,-419.18 1309.01,-409.44 1303.84,-414.16"/>
</g>
<!-- Node29 -->
<g id="node14" class="node">
<title>Node29</title>
<g id="a_node14"><a xlink:href="common__cmd__packet__util_8h.html#ae26f24dfab34570ccf41d11ab846c2aa" target="_top" xlink:title="他の OBC のコマンドを RT として生成">
<polygon fill="white" stroke="black" points="715.5,-495.37 715.5,-514.37 866.5,-514.37 866.5,-495.37 715.5,-495.37"/>
<text text-anchor="middle" x="791" y="-502.37" font-family="Helvetica,sans-Serif" font-size="10.00">CCP_form_rtc_to_other_obc</text>
</a>
</g>
</g>
<!-- Node5&#45;&gt;Node29 -->
<g id="edge54" class="edge">
<title>Node5&#45;&gt;Node29</title>
<path fill="none" stroke="midnightblue" d="M1281.52,-441.28C1264.51,-446.11 1244.43,-451.33 1226,-454.87 1101.05,-478.85 953.5,-492.87 866.62,-499.69"/>
<polygon fill="midnightblue" stroke="midnightblue" points="1282.51,-444.63 1291.15,-438.49 1280.57,-437.91 1282.51,-444.63"/>
</g>
<!-- Node30 -->
<g id="node15" class="node">
<title>Node30</title>
<g id="a_node15"><a xlink:href="common__cmd__packet__util_8h.html#a3695599b4d05dbb0b510c73dab7cd233" target="_top" xlink:title="Timeline command を生成">
<polygon fill="white" stroke="black" points="750,-400.37 750,-419.37 832,-419.37 832,-400.37 750,-400.37"/>
<text text-anchor="middle" x="791" y="-407.37" font-family="Helvetica,sans-Serif" font-size="10.00">CCP_form_tlc</text>
</a>
</g>
</g>
<!-- Node5&#45;&gt;Node30 -->
<g id="edge55" class="edge">
<title>Node5&#45;&gt;Node30</title>
<path fill="none" stroke="midnightblue" d="M1268.45,-426.95C1162.17,-423.14 926.71,-414.7 832.31,-411.31"/>
<polygon fill="midnightblue" stroke="midnightblue" points="1268.51,-430.45 1278.63,-427.31 1268.76,-423.46 1268.51,-430.45"/>
</g>
<!-- Node75 -->
<g id="node33" class="node">
<title>Node75</title>
<g id="a_node33"><a xlink:href="common__cmd__packet__util_8h.html#a642139ab97c05af79d26b93a2a57f147" target="_top" xlink:title="他の OBC のコマンドを TL として生成">
<polygon fill="white" stroke="black" points="716,-457.37 716,-476.37 866,-476.37 866,-457.37 716,-457.37"/>
<text text-anchor="middle" x="791" y="-464.37" font-family="Helvetica,sans-Serif" font-size="10.00">CCP_form_tlc_to_other_obc</text>
</a>
</g>
</g>
<!-- Node5&#45;&gt;Node75 -->
<g id="edge56" class="edge">
<title>Node5&#45;&gt;Node75</title>
<path fill="none" stroke="midnightblue" d="M1268.23,-433.48C1254.47,-434.63 1239.69,-435.83 1226,-436.87 1099.67,-446.5 952.55,-456.39 866.13,-462.06"/>
<polygon fill="midnightblue" stroke="midnightblue" points="1268.85,-436.94 1278.52,-432.62 1268.26,-429.97 1268.85,-436.94"/>
</g>
<!-- Node7 -->
<g id="node7" class="node">
<title>Node7</title>
<g id="a_node7"><a xlink:href="common__cmd__packet__util_8h.html#ac4a5c5fca95eda07227b4da1883612fc" target="_top" xlink:title="BC展開 command を生成">
<polygon fill="white" stroke="black" points="710.5,-210.37 710.5,-229.37 871.5,-229.37 871.5,-210.37 710.5,-210.37"/>
<text text-anchor="middle" x="791" y="-217.37" font-family="Helvetica,sans-Serif" font-size="10.00">CCP_form_block_deploy_cmd</text>
</a>
</g>
</g>
<!-- Node6&#45;&gt;Node7 -->
<g id="edge6" class="edge">
<title>Node6&#45;&gt;Node7</title>
<path fill="none" stroke="midnightblue" d="M1136.73,-243.87C1117.96,-235.04 1092.14,-224.47 1068,-219.87 1002.69,-207.41 927.1,-208.46 871.56,-212.03"/>
<polygon fill="midnightblue" stroke="midnightblue" points="1135.34,-247.08 1145.86,-248.29 1138.38,-240.78 1135.34,-247.08"/>
</g>
<!-- Node28 -->
<g id="node13" class="node">
<title>Node28</title>
<g id="a_node13"><a xlink:href="common__cmd__packet__util_8c.html#a01b352632ca605771f0cfd66a2a149ba" target="_top" xlink:title="NOP cmd の RTC CCP を作る">
<polygon fill="white" stroke="black" points="935,-229.37 935,-248.37 1046,-248.37 1046,-229.37 935,-229.37"/>
<text text-anchor="middle" x="990.5" y="-236.37" font-family="Helvetica,sans-Serif" font-size="10.00">CCP_form_nop_rtc_</text>
</a>
</g>
</g>
<!-- Node6&#45;&gt;Node28 -->
<g id="edge12" class="edge">
<title>Node6&#45;&gt;Node28</title>
<path fill="none" stroke="midnightblue" d="M1118.14,-246.77C1096.04,-243.51 1069.38,-240.47 1046.23,-238.56"/>
<polygon fill="midnightblue" stroke="midnightblue" points="1117.84,-250.27 1128.26,-248.34 1118.91,-243.35 1117.84,-250.27"/>
</g>
<!-- Node78 -->
<g id="node35" class="node">
<title>Node78</title>
<g id="a_node35"><a xlink:href="common__cmd__packet__util_8h.html#aedfb69bc9ff98498734df05026c5a3f2" target="_top" xlink:title="Realtime command を登録">
<polygon fill="white" stroke="black" points="942,-381.37 942,-400.37 1039,-400.37 1039,-381.37 942,-381.37"/>
<text text-anchor="middle" x="990.5" y="-388.37" font-family="Helvetica,sans-Serif" font-size="10.00">CCP_register_rtc</text>
</a>
</g>
</g>
<!-- Node6&#45;&gt;Node78 -->
<g id="edge43" class="edge">
<title>Node6&#45;&gt;Node78</title>
<path fill="none" stroke="midnightblue" d="M1153.64,-276.29C1138.31,-301.8 1107.14,-347.48 1068,-371.87 1059.29,-377.3 1049.12,-381.17 1039.09,-383.94"/>
<polygon fill="midnightblue" stroke="midnightblue" points="1156.7,-277.99 1158.72,-267.59 1150.66,-274.46 1156.7,-277.99"/>
</g>
<!-- Node79 -->
<g id="node36" class="node">
<title>Node79</title>
<g id="a_node36"><a xlink:href="telemetry__manager_8h.html#a923d6ea9078726984798c4b0800381fe" target="_top" xlink:title="TLM送出用TLをクリア">
<polygon fill="white" stroke="black" points="705,-153.37 705,-172.37 877,-172.37 877,-153.37 705,-153.37"/>
<text text-anchor="middle" x="791" y="-160.37" font-family="Helvetica,sans-Serif" font-size="10.00">Cmd_TLM_MGR_CLEAR_TLM_TL</text>
</a>
</g>
</g>
<!-- Node6&#45;&gt;Node79 -->
<g id="edge44" class="edge">
<title>Node6&#45;&gt;Node79</title>
<path fill="none" stroke="midnightblue" d="M1141.98,-242.75C1123.17,-230.57 1094.95,-214.03 1068,-204.87 1006.05,-183.81 932.69,-173.28 877.17,-168.03"/>
<polygon fill="midnightblue" stroke="midnightblue" points="1140.14,-245.73 1150.41,-248.32 1144,-239.89 1140.14,-245.73"/>
</g>
<!-- Node80 -->
<g id="node37" class="node">
<title>Node80</title>
<g id="a_node37"><a xlink:href="divided__cmd__utility_8h.html#a65ad0b8aa0af1c9c0bdd74aa37b15b15" target="_top" xlink:title="次の分割の実行を登録">
<polygon fill="white" stroke="black" points="523,-96.37 523,-115.37 631,-115.37 631,-96.37 523,-96.37"/>
<text text-anchor="middle" x="577" y="-103.37" font-family="Helvetica,sans-Serif" font-size="10.00">DCU_register_next</text>
</a>
</g>
</g>
<!-- Node6&#45;&gt;Node80 -->
<g id="edge46" class="edge">
<title>Node6&#45;&gt;Node80</title>
<path fill="none" stroke="midnightblue" d="M1150.86,-240.05C1134.17,-218.91 1103.28,-184.45 1068,-167.87 921.53,-99 724.67,-97.98 631.35,-102.2"/>
<polygon fill="midnightblue" stroke="midnightblue" points="1148.25,-242.4 1157.11,-248.2 1153.8,-238.14 1148.25,-242.4"/>
</g>
<!-- Node81 -->
<g id="node40" class="node">
<title>Node81</title>
<g id="a_node40"><a xlink:href="sequence__items_8h.html#ac5b43e918a54df9779de00de808b12d1" target="_top" xlink:title=" ">
<polygon fill="white" stroke="black" points="943,-343.37 943,-362.37 1038,-362.37 1038,-343.37 943,-343.37"/>
<text text-anchor="middle" x="990.5" y="-350.37" font-family="Helvetica,sans-Serif" font-size="10.00">SI_deploy_block</text>
</a>
</g>
</g>
<!-- Node6&#45;&gt;Node81 -->
<g id="edge51" class="edge">
<title>Node6&#45;&gt;Node81</title>
<path fill="none" stroke="midnightblue" d="M1147.52,-274.61C1129.53,-291.95 1099.11,-318.59 1068,-333.87 1058.79,-338.39 1048.41,-341.9 1038.33,-344.59"/>
<polygon fill="midnightblue" stroke="midnightblue" points="1150.2,-276.89 1154.87,-267.38 1145.29,-271.9 1150.2,-276.89"/>
</g>
<!-- Node82 -->
<g id="node41" class="node">
<title>Node82</title>
<g id="a_node41"><a xlink:href="sequence__items_8h.html#aa4a6c84c11e36c033cf8100c04458ee9" target="_top" xlink:title=" ">
<polygon fill="white" stroke="black" points="936,-305.37 936,-324.37 1045,-324.37 1045,-305.37 936,-305.37"/>
<text text-anchor="middle" x="990.5" y="-312.37" font-family="Helvetica,sans-Serif" font-size="10.00">SI_finish_transition</text>
</a>
</g>
</g>
<!-- Node6&#45;&gt;Node82 -->
<g id="edge52" class="edge">
<title>Node6&#45;&gt;Node82</title>
<path fill="none" stroke="midnightblue" d="M1132.75,-271.46C1114.17,-279.24 1089.99,-288.82 1068,-295.87 1057.18,-299.34 1045.34,-302.55 1034.27,-305.31"/>
<polygon fill="midnightblue" stroke="midnightblue" points="1134.34,-274.59 1142.19,-267.47 1131.61,-268.14 1134.34,-274.59"/>
</g>
<!-- Node83 -->
<g id="node42" class="node">
<title>Node83</title>
<g id="a_node42"><a xlink:href="sequence__items_8h.html#a0d524415abe3f1169e24b7f4aeec1096" target="_top" xlink:title=" ">
<polygon fill="white" stroke="black" points="944.5,-267.37 944.5,-286.37 1036.5,-286.37 1036.5,-267.37 944.5,-267.37"/>
<text text-anchor="middle" x="990.5" y="-274.37" font-family="Helvetica,sans-Serif" font-size="10.00">SI_start_hk_tlm</text>
</a>
</g>
</g>
<!-- Node6&#45;&gt;Node83 -->
<g id="edge53" class="edge">
<title>Node6&#45;&gt;Node83</title>
<path fill="none" stroke="midnightblue" d="M1113.04,-263.48C1088.8,-266.15 1060.07,-269.32 1036.63,-271.9"/>
<polygon fill="midnightblue" stroke="midnightblue" points="1113.56,-266.95 1123.12,-262.37 1112.8,-259.99 1113.56,-266.95"/>
</g>
<!-- Node8 -->
<g id="node8" class="node">
<title>Node8</title>
<g id="a_node8"><a xlink:href="telemetry__manager_8h.html#ad6f65df0da86f70cbd0f5b1e6cb32dbc" target="_top" xlink:title="TLM送出開始">
<polygon fill="white" stroke="black" points="500,-248.37 500,-267.37 654,-267.37 654,-248.37 500,-248.37"/>
<text text-anchor="middle" x="577" y="-255.37" font-family="Helvetica,sans-Serif" font-size="10.00">Cmd_TLM_MGR_START_TLM</text>
</a>
</g>
</g>
<!-- Node7&#45;&gt;Node8 -->
<g id="edge7" class="edge">
<title>Node7&#45;&gt;Node8</title>
<path fill="none" stroke="midnightblue" d="M726.7,-231.22C696.28,-236.67 660.23,-243.13 631.24,-248.32"/>
<polygon fill="midnightblue" stroke="midnightblue" points="727.55,-234.62 736.78,-229.41 726.32,-227.73 727.55,-234.62"/>
</g>
<!-- Node15 -->
<g id="node11" class="node">
<title>Node15</title>
<g id="a_node11"><a xlink:href="event__handler_8c.html#a8d7de705ac2b09f9f25644f0c9f55952" target="_top" xlink:title="EH 対応を実施">
<polygon fill="white" stroke="red" points="537,-210.37 537,-229.37 617,-229.37 617,-210.37 537,-210.37"/>
<text text-anchor="middle" x="577" y="-217.37" font-family="Helvetica,sans-Serif" font-size="10.00">EH_respond_</text>
</a>
</g>
</g>
<!-- Node7&#45;&gt;Node15 -->
<g id="edge10" class="edge">
<title>Node7&#45;&gt;Node15</title>
<path fill="none" stroke="midnightblue" d="M700.28,-219.87C671.28,-219.87 640.62,-219.87 617.25,-219.87"/>
<polygon fill="midnightblue" stroke="midnightblue" points="700.46,-223.37 710.46,-219.87 700.46,-216.37 700.46,-223.37"/>
</g>
<!-- Node24 -->
<g id="node12" class="node">
<title>Node24</title>
<g id="a_node12"><a xlink:href="mode__manager_8c.html#a4a483437e28116e6067d488392922a8f" target="_top" xlink:title="(モード遷移に対応する)ブロックコマンドのタイムラインへの展開を行う">
<polygon fill="white" stroke="red" points="509,-172.37 509,-191.37 645,-191.37 645,-172.37 509,-172.37"/>
<text text-anchor="middle" x="577" y="-179.37" font-family="Helvetica,sans-Serif" font-size="10.00">MM_deploy_block_cmd_</text>
</a>
</g>
</g>
<!-- Node7&#45;&gt;Node24 -->
<g id="edge11" class="edge">
<title>Node7&#45;&gt;Node24</title>
<path fill="none" stroke="midnightblue" d="M726.7,-208.52C696.28,-203.07 660.23,-196.61 631.24,-191.41"/>
<polygon fill="midnightblue" stroke="midnightblue" points="726.32,-212.01 736.78,-210.33 727.55,-205.12 726.32,-212.01"/>
</g>
<!-- Node9 -->
<g id="node9" class="node">
<title>Node9</title>
<g id="a_node9"><a xlink:href="command__definitions_8c.html#aa375895192b16d8e7f0ff4545b54e6c4" target="_top" xlink:title="Cmd Tableのロード">
<polygon fill="white" stroke="black" points="113,-210.37 113,-229.37 226,-229.37 226,-210.37 113,-210.37"/>
<text text-anchor="middle" x="169.5" y="-217.37" font-family="Helvetica,sans-Serif" font-size="10.00">CA_load_cmd_table</text>
</a>
</g>
</g>
<!-- Node8&#45;&gt;Node9 -->
<g id="edge8" class="edge">
<title>Node8&#45;&gt;Node9</title>
<path fill="none" stroke="midnightblue" d="M497.57,-244.8C493.21,-243.06 488.99,-241.1 485,-238.87 464.69,-227.53 470.37,-210.06 449,-200.87 363.08,-163.91 248.42,-193.48 197.19,-210.27"/>
<polygon fill="midnightblue" stroke="midnightblue" points="496.68,-248.2 507.27,-248.25 499.02,-241.6 496.68,-248.2"/>
</g>
<!-- Node10 -->
<g id="node10" class="node">
<title>Node10</title>
<g id="a_node10"><a xlink:href="command__analyze_8h.html#ae6d1f376bf4e1c9c4b63bc3f04924c8a" target="_top" xlink:title="CA の初期化">
<polygon fill="white" stroke="red" points="0,-210.37 0,-229.37 77,-229.37 77,-210.37 0,-210.37"/>
<text text-anchor="middle" x="38.5" y="-217.37" font-family="Helvetica,sans-Serif" font-size="10.00">CA_initialize</text>
</a>
</g>
</g>
<!-- Node9&#45;&gt;Node10 -->
<g id="edge9" class="edge">
<title>Node9&#45;&gt;Node10</title>
<path fill="none" stroke="midnightblue" d="M102.5,-219.87C93.82,-219.87 85.17,-219.87 77.19,-219.87"/>
<polygon fill="midnightblue" stroke="midnightblue" points="102.67,-223.37 112.67,-219.87 102.67,-216.37 102.67,-223.37"/>
</g>
<!-- Node28&#45;&gt;Node6 -->
<g id="edge14" class="edge">
<title>Node28&#45;&gt;Node6</title>
<path fill="none" stroke="midnightblue" d="M1037.35,-249.96C1064.02,-253.91 1097.35,-257.51 1123.12,-259.21"/>
<polygon fill="midnightblue" stroke="midnightblue" points="1037.54,-246.45 1027.12,-248.38 1036.47,-253.37 1037.54,-246.45"/>
</g>
<!-- Node28&#45;&gt;Node7 -->
<g id="edge13" class="edge">
<title>Node28&#45;&gt;Node7</title>
<path fill="none" stroke="midnightblue" d="M924.45,-232.61C907.56,-230.99 889.18,-229.22 871.64,-227.53"/>
<polygon fill="midnightblue" stroke="midnightblue" points="924.46,-236.13 934.75,-233.6 925.13,-229.16 924.46,-236.13"/>
</g>
<!-- Node28&#45;&gt;Node29 -->
<g id="edge15" class="edge">
<title>Node28&#45;&gt;Node29</title>
<path fill="none" stroke="midnightblue" d="M925.56,-248.2C920.89,-250.76 916.61,-253.93 913,-257.87 843.68,-333.49 947.21,-411.07 877,-485.87 873.48,-489.62 869.4,-492.71 864.96,-495.24"/>
<polygon fill="midnightblue" stroke="midnightblue" points="927.24,-251.28 934.94,-244.01 924.38,-244.89 927.24,-251.28"/>
</g>
<!-- Node28&#45;&gt;Node30 -->
<g id="edge16" class="edge">
<title>Node28&#45;&gt;Node30</title>
<path fill="none" stroke="midnightblue" d="M925.34,-251.36C921.02,-253.23 916.86,-255.39 913,-257.87 853.69,-295.97 810.57,-373.17 796.74,-400.23"/>
<polygon fill="midnightblue" stroke="midnightblue" points="926.88,-254.51 934.99,-247.69 924.39,-247.97 926.88,-254.51"/>
</g>
<!-- Node28&#45;&gt;Node75 -->
<g id="edge41" class="edge">
<title>Node28&#45;&gt;Node75</title>
<path fill="none" stroke="midnightblue" d="M925.55,-248.52C920.92,-251.01 916.65,-254.09 913,-257.87 859.08,-313.76 925.77,-368.43 877,-428.87 865.94,-442.58 848.88,-451.5 832.95,-457.23"/>
<polygon fill="midnightblue" stroke="midnightblue" points="927.1,-251.66 934.83,-244.4 924.27,-245.26 927.1,-251.66"/>
</g>
<!-- Node30&#45;&gt;Node8 -->
<g id="edge33" class="edge">
<title>Node30&#45;&gt;Node8</title>
<path fill="none" stroke="midnightblue" d="M777.92,-391.68C758.4,-363.73 717.2,-310.48 669,-281.87 658.32,-275.53 645.96,-270.84 633.86,-267.38"/>
<polygon fill="midnightblue" stroke="midnightblue" points="775.16,-393.83 783.69,-400.11 780.94,-389.88 775.16,-393.83"/>
</g>
<!-- Node31 -->
<g id="node16" class="node">
<title>Node31</title>
<g id="a_node16"><a xlink:href="block__command__loader_8c.html#a34da4d8efe30b2f1872103496dfcf8cb" target="_top" xlink:title=" ">
<polygon fill="white" stroke="black" points="522,-438.37 522,-457.37 632,-457.37 632,-438.37 522,-438.37"/>
<text text-anchor="middle" x="577" y="-445.37" font-family="Helvetica,sans-Serif" font-size="10.00">BCL_register_cmd_</text>
</a>
</g>
</g>
<!-- Node30&#45;&gt;Node31 -->
<g id="edge17" class="edge">
<title>Node30&#45;&gt;Node31</title>
<path fill="none" stroke="midnightblue" d="M739.38,-418.94C706.69,-424.8 664.22,-432.41 631.06,-438.36"/>
<polygon fill="midnightblue" stroke="midnightblue" points="740.4,-422.31 749.63,-417.11 739.16,-415.42 740.4,-422.31"/>
</g>
<!-- Node57 -->
<g id="node22" class="node">
<title>Node57</title>
<g id="a_node22"><a xlink:href="common__cmd__packet__util_8h.html#a7e4a83a103dfa316c08b1570d93df0d1" target="_top" xlink:title="App 実行 TL コマンドを生成">
<polygon fill="white" stroke="black" points="520,-400.37 520,-419.37 634,-419.37 634,-400.37 520,-400.37"/>
<text text-anchor="middle" x="577" y="-407.37" font-family="Helvetica,sans-Serif" font-size="10.00">CCP_form_app_cmd</text>
</a>
</g>
</g>
<!-- Node30&#45;&gt;Node57 -->
<g id="edge23" class="edge">
<title>Node30&#45;&gt;Node57</title>
<path fill="none" stroke="midnightblue" d="M739.27,-409.87C707.63,-409.87 666.87,-409.87 634.24,-409.87"/>
<polygon fill="midnightblue" stroke="midnightblue" points="739.63,-413.37 749.63,-409.87 739.63,-406.37 739.63,-413.37"/>
</g>
<!-- Node64 -->
<g id="node24" class="node">
<title>Node64</title>
<g id="a_node24"><a xlink:href="common__cmd__packet__util_8h.html#a8321fb60193f3b5dcf93b42075bea0a6" target="_top" xlink:title="Timeline command を登録">
<polygon fill="white" stroke="black" points="529,-362.37 529,-381.37 625,-381.37 625,-362.37 529,-362.37"/>
<text text-anchor="middle" x="577" y="-369.37" font-family="Helvetica,sans-Serif" font-size="10.00">CCP_register_tlc</text>
</a>
</g>
</g>
<!-- Node30&#45;&gt;Node64 -->
<g id="edge25" class="edge">
<title>Node30&#45;&gt;Node64</title>
<path fill="none" stroke="midnightblue" d="M739.7,-400.85C705.03,-394.64 659.25,-386.43 625.26,-380.34"/>
<polygon fill="midnightblue" stroke="midnightblue" points="739.16,-404.31 749.63,-402.63 740.4,-397.42 739.16,-404.31"/>
</g>
<!-- Node65 -->
<g id="node25" class="node">
<title>Node65</title>
<g id="a_node25"><a xlink:href="common__cmd__packet__util_8h.html#a81e108413662be4555dc9ca3fadc6d11" target="_top" xlink:title="Timeline command を登録 (ASAP 版)">
<polygon fill="white" stroke="black" points="514.5,-324.37 514.5,-343.37 639.5,-343.37 639.5,-324.37 514.5,-324.37"/>
<text text-anchor="middle" x="577" y="-331.37" font-family="Helvetica,sans-Serif" font-size="10.00">CCP_register_tlc_asap</text>
</a>
</g>
</g>
<!-- Node30&#45;&gt;Node65 -->
<g id="edge26" class="edge">
<title>Node30&#45;&gt;Node65</title>
<path fill="none" stroke="midnightblue" d="M764.06,-395.46C740.05,-382.66 703.02,-364.26 669,-352.87 657.83,-349.13 645.63,-345.98 633.89,-343.38"/>
<polygon fill="midnightblue" stroke="midnightblue" points="762.44,-398.56 772.9,-400.23 765.76,-392.4 762.44,-398.56"/>
</g>
<!-- Node67 -->
<g id="node27" class="node">
<title>Node67</title>
<g id="a_node27"><a xlink:href="block__command__table_8h.html#a4ad040fa043c293c99d80d36b9536035" target="_top" xlink:title=" ">
<polygon fill="white" stroke="black" points="298,-210.37 298,-229.37 413,-229.37 413,-210.37 298,-210.37"/>
<text text-anchor="middle" x="355.5" y="-217.37" font-family="Helvetica,sans-Serif" font-size="10.00">Cmd_BCT_FILL_NOP</text>
</a>
</g>
</g>
<!-- Node30&#45;&gt;Node67 -->
<g id="edge29" class="edge">
<title>Node30&#45;&gt;Node67</title>
<path fill="none" stroke="midnightblue" d="M773.89,-393.1C752.17,-371.53 711.29,-334.5 669,-314.87 593.26,-279.71 558.23,-317 485,-276.87 464.88,-265.84 469.07,-250.99 449,-239.87 438.08,-233.82 425.49,-229.59 413.18,-226.65"/>
<polygon fill="midnightblue" stroke="midnightblue" points="771.48,-395.64 781,-400.29 776.46,-390.72 771.48,-395.64"/>
</g>
<!-- Node68 -->
<g id="node28" class="node">
<title>Node68</title>
<g id="a_node28"><a xlink:href="block__command__table_8h.html#afb56b53815cce4e3c34d0463073368ec" target="_top" xlink:title=" ">
<polygon fill="white" stroke="black" points="499,-585.37 499,-604.37 655,-604.37 655,-585.37 499,-585.37"/>
<text text-anchor="middle" x="577" y="-592.37" font-family="Helvetica,sans-Serif" font-size="10.00">Cmd_BCT_OVERWRITE_CMD</text>
</a>
</g>
</g>
<!-- Node30&#45;&gt;Node68 -->
<g id="edge31" class="edge">
<title>Node30&#45;&gt;Node68</title>
<path fill="none" stroke="midnightblue" d="M741.18,-423.17C727.87,-428.87 714.52,-436.84 705,-447.87 666.38,-492.6 712.19,-535.53 669,-575.87 664.87,-579.72 660.17,-582.88 655.13,-585.46"/>
<polygon fill="midnightblue" stroke="midnightblue" points="742.76,-426.31 750.8,-419.41 740.22,-419.79 742.76,-426.31"/>
</g>
<!-- Node69 -->
<g id="node29" class="node">
<title>Node69</title>
<g id="a_node29"><a xlink:href="telemetry__manager_8h.html#a0149b05e84bcce79dc6b019d5bb99ce1" target="_top" xlink:title="TLM送出一時停止">
<polygon fill="white" stroke="black" points="502.5,-547.37 502.5,-566.37 651.5,-566.37 651.5,-547.37 502.5,-547.37"/>
<text text-anchor="middle" x="577" y="-554.37" font-family="Helvetica,sans-Serif" font-size="10.00">Cmd_TLM_MGR_STOP_TLM</text>
</a>
</g>
</g>
<!-- Node30&#45;&gt;Node69 -->
<g id="edge34" class="edge">
<title>Node30&#45;&gt;Node69</title>
<path fill="none" stroke="midnightblue" d="M743.72,-423.05C729.86,-428.84 715.56,-436.88 705,-447.87 675.15,-478.93 702,-510.18 669,-537.87 663.81,-542.23 657.87,-545.66 651.57,-548.37"/>
<polygon fill="midnightblue" stroke="midnightblue" points="745.12,-426.26 753.2,-419.4 742.61,-419.73 745.12,-426.26"/>
</g>
<!-- Node70 -->
<g id="node30" class="node">
<title>Node70</title>
<g id="a_node30"><a xlink:href="telemetry__manager_8c.html#a2cf8d6a2174e6649a0f079f3a292fcd4" target="_top" xlink:title="TLM_MGR_RegisterInfo に テレメ生成コマンドを登録する">
<polygon fill="white" stroke="red" points="485,-509.37 485,-528.37 669,-528.37 669,-509.37 485,-509.37"/>
<text text-anchor="middle" x="577" y="-516.37" font-family="Helvetica,sans-Serif" font-size="10.00">TLM_MGR_register_generate_tlm_</text>
</a>
</g>
</g>
<!-- Node30&#45;&gt;Node70 -->
<g id="edge36" class="edge">
<title>Node30&#45;&gt;Node70</title>
<path fill="none" stroke="midnightblue" d="M757.56,-423.56C741.58,-430.51 722.11,-439.28 705,-447.87 683.55,-458.63 623.98,-492.53 594.69,-509.29"/>
<polygon fill="midnightblue" stroke="midnightblue" points="759.22,-426.66 767.01,-419.48 756.44,-420.23 759.22,-426.66"/>
</g>
<!-- Node32 -->
<g id="node17" class="node">
<title>Node32</title>
<g id="a_node17"><a xlink:href="block__command__loader_8h.html#adc8e2381948a082e62d72d9971fc203f" target="_top" xlink:title="ブロックコマンドの最後にコマンドを追加する">
<polygon fill="white" stroke="red" points="291.5,-412.37 291.5,-431.37 419.5,-431.37 419.5,-412.37 291.5,-412.37"/>
<text text-anchor="middle" x="355.5" y="-419.37" font-family="Helvetica,sans-Serif" font-size="10.00">BCL_tool_register_cmd</text>
</a>
</g>
</g>
<!-- Node31&#45;&gt;Node32 -->
<g id="edge18" class="edge">
<title>Node31&#45;&gt;Node32</title>
<path fill="none" stroke="midnightblue" d="M511.73,-440.26C482.78,-436.83 448.7,-432.79 419.86,-429.37"/>
<polygon fill="midnightblue" stroke="midnightblue" points="511.4,-443.74 521.74,-441.44 512.22,-436.79 511.4,-443.74"/>
</g>
<!-- Node49 -->
<g id="node18" class="node">
<title>Node49</title>
<g id="a_node18"><a xlink:href="block__command__loader_8h.html#a99596019ff3a563f43ebae43ce86a03a" target="_top" xlink:title="ブロックコマンドの最後にコンバイナーの実行コマンドを追加する">
<polygon fill="white" stroke="red" points="281,-374.37 281,-393.37 430,-393.37 430,-374.37 281,-374.37"/>
<text text-anchor="middle" x="355.5" y="-381.37" font-family="Helvetica,sans-Serif" font-size="10.00">BCL_tool_register_combine</text>
</a>
</g>
</g>
<!-- Node31&#45;&gt;Node49 -->
<g id="edge19" class="edge">
<title>Node31&#45;&gt;Node49</title>
<path fill="none" stroke="midnightblue" d="M511.92,-438.04C502.69,-435.62 493.46,-432.6 485,-428.87 466.94,-420.9 467.07,-410.81 449,-402.87 440.14,-398.98 430.46,-395.87 420.79,-393.39"/>
<polygon fill="midnightblue" stroke="midnightblue" points="511.36,-441.51 521.9,-440.46 513,-434.71 511.36,-441.51"/>
</g>
<!-- Node54 -->
<g id="node19" class="node">
<title>Node54</title>
<g id="a_node19"><a xlink:href="block__command__loader_8h.html#a3dab8c3e3aac3833b245e3ba7c597b81" target="_top" xlink:title="ブロックコマンドの最後にブロックコマンドの展開コマンドを追加する">
<polygon fill="white" stroke="red" points="285.5,-336.37 285.5,-355.37 425.5,-355.37 425.5,-336.37 285.5,-336.37"/>
<text text-anchor="middle" x="355.5" y="-343.37" font-family="Helvetica,sans-Serif" font-size="10.00">BCL_tool_register_deploy</text>
</a>
</g>
</g>
<!-- Node31&#45;&gt;Node54 -->
<g id="edge20" class="edge">
<title>Node31&#45;&gt;Node54</title>
<path fill="none" stroke="midnightblue" d="M512.1,-441.79C502.42,-438.88 493.01,-434.73 485,-428.87 458.67,-409.59 475.36,-384.11 449,-364.87 441.98,-359.75 433.9,-355.93 425.51,-353.1"/>
<polygon fill="midnightblue" stroke="midnightblue" points="511.27,-445.19 521.83,-444.31 513.02,-438.41 511.27,-445.19"/>
</g>
<!-- Node55 -->
<g id="node20" class="node">
<title>Node55</title>
<g id="a_node20"><a xlink:href="block__command__loader_8h.html#a5b59475bbbf303eaca56af95565e6f69" target="_top" xlink:title="ブロックコマンドの最後にタイムリミットコンバイナーの実行コマンドを追加する">
<polygon fill="white" stroke="black" points="290.5,-488.87 290.5,-518.87 420.5,-518.87 420.5,-488.87 290.5,-488.87"/>
<text text-anchor="start" x="298.5" y="-506.87" font-family="Helvetica,sans-Serif" font-size="10.00">BCL_tool_register_limit</text>
<text text-anchor="middle" x="355.5" y="-495.87" font-family="Helvetica,sans-Serif" font-size="10.00">_combine</text>
</a>
</g>
</g>
<!-- Node31&#45;&gt;Node55 -->
<g id="edge21" class="edge">
<title>Node31&#45;&gt;Node55</title>
<path fill="none" stroke="midnightblue" d="M528.38,-460.02C495.29,-468.46 450.97,-479.77 415.62,-488.79"/>
<polygon fill="midnightblue" stroke="midnightblue" points="529.44,-463.36 538.27,-457.5 527.71,-456.58 529.44,-463.36"/>
</g>
<!-- Node56 -->
<g id="node21" class="node">
<title>Node56</title>
<g id="a_node21"><a xlink:href="block__command__loader_8h.html#a03346645bccaa62a79cee806dfb3609e" target="_top" xlink:title="ブロックコマンドの最後にローテーターの実行コマンドを追加する">
<polygon fill="white" stroke="red" points="287,-450.37 287,-469.37 424,-469.37 424,-450.37 287,-450.37"/>
<text text-anchor="middle" x="355.5" y="-457.37" font-family="Helvetica,sans-Serif" font-size="10.00">BCL_tool_register_rotate</text>
</a>
</g>
</g>
<!-- Node31&#45;&gt;Node56 -->
<g id="edge22" class="edge">
<title>Node31&#45;&gt;Node56</title>
<path fill="none" stroke="midnightblue" d="M511.47,-451.4C484.04,-452.9 452.05,-454.64 424.28,-456.16"/>
<polygon fill="midnightblue" stroke="midnightblue" points="511.95,-454.88 521.74,-450.83 511.57,-447.89 511.95,-454.88"/>
</g>
<!-- Node58 -->
<g id="node23" class="node">
<title>Node58</title>
<g id="a_node23"><a xlink:href="block__command__loader_8c.html#a8b8df5aca929f5b6307b9695bb2a5b54" target="_top" xlink:title=" ">
<polygon fill="white" stroke="red" points="302,-298.37 302,-317.37 409,-317.37 409,-298.37 302,-298.37"/>
<text text-anchor="middle" x="355.5" y="-305.37" font-family="Helvetica,sans-Serif" font-size="10.00">BCL_register_app_</text>
</a>
</g>
</g>
<!-- Node57&#45;&gt;Node58 -->
<g id="edge24" class="edge">
<title>Node57&#45;&gt;Node58</title>
<path fill="none" stroke="midnightblue" d="M510.11,-403.17C501.14,-400.3 492.46,-396.33 485,-390.87 458.67,-371.59 475.36,-346.11 449,-326.87 437.48,-318.46 423.11,-313.57 409.15,-310.78"/>
<polygon fill="midnightblue" stroke="midnightblue" points="509.36,-406.59 519.93,-405.87 511.21,-399.84 509.36,-406.59"/>
</g>
<!-- Node66 -->
<g id="node26" class="node">
<title>Node66</title>
<g id="a_node26"><a xlink:href="test__ccp__util_8h.html#aa30e45980435690c0efaf62a690dd1c5" target="_top" xlink:title=" ">
<polygon fill="white" stroke="black" points="282.5,-248.87 282.5,-278.87 428.5,-278.87 428.5,-248.87 282.5,-248.87"/>
<text text-anchor="start" x="290.5" y="-266.87" font-family="Helvetica,sans-Serif" font-size="10.00">Cmd_TEST_CCP_REGISTER</text>
<text text-anchor="middle" x="355.5" y="-255.87" font-family="Helvetica,sans-Serif" font-size="10.00">_TLC_ASAP</text>
</a>
</g>
</g>
<!-- Node65&#45;&gt;Node66 -->
<g id="edge27" class="edge">
<title>Node65&#45;&gt;Node66</title>
<path fill="none" stroke="midnightblue" d="M520.08,-321.67C508.3,-318.4 496.08,-314.46 485,-309.87 467.89,-302.78 466.09,-296.01 449,-288.87 440.1,-285.15 430.48,-281.83 420.93,-278.92"/>
<polygon fill="midnightblue" stroke="midnightblue" points="519.28,-325.08 529.84,-324.27 521.08,-318.31 519.28,-325.08"/>
</g>
<!-- Node66&#45;&gt;Node9 -->
<g id="edge28" class="edge">
<title>Node66&#45;&gt;Node9</title>
<path fill="none" stroke="midnightblue" d="M281.75,-246.47C257.4,-240.65 231.16,-234.37 210.28,-229.38"/>
<polygon fill="midnightblue" stroke="midnightblue" points="281.15,-249.93 291.69,-248.85 282.78,-243.12 281.15,-249.93"/>
</g>
<!-- Node67&#45;&gt;Node9 -->
<g id="edge30" class="edge">
<title>Node67&#45;&gt;Node9</title>
<path fill="none" stroke="midnightblue" d="M287.71,-219.87C267.48,-219.87 245.49,-219.87 226.07,-219.87"/>
<polygon fill="midnightblue" stroke="midnightblue" points="287.79,-223.37 297.79,-219.87 287.79,-216.37 287.79,-223.37"/>
</g>
<!-- Node68&#45;&gt;Node9 -->
<g id="edge32" class="edge">
<title>Node68&#45;&gt;Node9</title>
<path fill="none" stroke="midnightblue" d="M498.93,-607.9C494.08,-609.9 489.38,-612.21 485,-614.87 463.69,-627.79 471.58,-647.32 449,-657.87 373.7,-693.03 326.5,-710.28 262,-657.87 192.22,-601.16 173.82,-288.84 170.94,-229.58"/>
<polygon fill="midnightblue" stroke="midnightblue" points="500.26,-611.15 508.44,-604.42 497.85,-604.57 500.26,-611.15"/>
</g>
<!-- Node69&#45;&gt;Node9 -->
<g id="edge35" class="edge">
<title>Node69&#45;&gt;Node9</title>
<path fill="none" stroke="midnightblue" d="M494.42,-570.55C491.15,-572.14 487.99,-573.9 485,-575.87 461.81,-591.1 473.63,-614.1 449,-626.87 375.21,-665.1 326.89,-678.79 262,-626.87 196.83,-574.72 174.84,-286.52 171.1,-229.63"/>
<polygon fill="midnightblue" stroke="midnightblue" points="496.05,-573.66 503.89,-566.53 493.32,-567.22 496.05,-573.66"/>
</g>
<!-- Node71 -->
<g id="node31" class="node">
<title>Node71</title>
<g id="a_node31"><a xlink:href="telemetry__manager_8h.html#aa25105738fa6140b99a82d5d28b3b89f" target="_top" xlink:title="high_freq_tlm を登録">
<polygon fill="white" stroke="black" points="282.5,-537.87 282.5,-567.87 428.5,-567.87 428.5,-537.87 282.5,-537.87"/>
<text text-anchor="start" x="290.5" y="-555.87" font-family="Helvetica,sans-Serif" font-size="10.00">Cmd_TLM_MGR_REGISTER</text>
<text text-anchor="middle" x="355.5" y="-544.87" font-family="Helvetica,sans-Serif" font-size="10.00">_HIGH_FREQ_TLM</text>
</a>
</g>
</g>
<!-- Node70&#45;&gt;Node71 -->
<g id="edge37" class="edge">
<title>Node70&#45;&gt;Node71</title>
<path fill="none" stroke="midnightblue" d="M504.37,-529.96C480.14,-533.72 453.09,-537.91 428.81,-541.67"/>
<polygon fill="midnightblue" stroke="midnightblue" points="505.22,-533.37 514.57,-528.38 504.15,-526.46 505.22,-533.37"/>
</g>
<!-- Node72 -->
<g id="node32" class="node">
<title>Node72</title>
<g id="a_node32"><a xlink:href="telemetry__manager_8h.html#a47e992abafa10e575d0e5cf22875ed81" target="_top" xlink:title="HKテレメを登録">
<polygon fill="white" stroke="black" points="282.5,-586.87 282.5,-616.87 428.5,-616.87 428.5,-586.87 282.5,-586.87"/>
<text text-anchor="start" x="290.5" y="-604.87" font-family="Helvetica,sans-Serif" font-size="10.00">Cmd_TLM_MGR_REGISTER</text>
<text text-anchor="middle" x="355.5" y="-593.87" font-family="Helvetica,sans-Serif" font-size="10.00">_HK_TLM</text>
</a>
</g>
</g>
<!-- Node70&#45;&gt;Node72 -->
<g id="edge39" class="edge">
<title>Node70&#45;&gt;Node72</title>
<path fill="none" stroke="midnightblue" d="M497.24,-531.92C492.99,-533.66 488.88,-535.64 485,-537.87 464.27,-549.79 469.44,-565.45 449,-577.87 442.76,-581.66 435.93,-584.85 428.91,-587.55"/>
<polygon fill="midnightblue" stroke="midnightblue" points="498.51,-535.18 506.7,-528.47 496.1,-528.61 498.51,-535.18"/>
</g>
<!-- Node71&#45;&gt;Node9 -->
<g id="edge38" class="edge">
<title>Node71&#45;&gt;Node9</title>
<path fill="none" stroke="midnightblue" d="M273.17,-537.44C269.14,-534.97 265.38,-532.13 262,-528.87 172.29,-442.16 169.44,-272.04 170.2,-229.63"/>
<polygon fill="midnightblue" stroke="midnightblue" points="271.85,-540.7 282.33,-542.25 275.11,-534.5 271.85,-540.7"/>
</g>
<!-- Node72&#45;&gt;Node9 -->
<g id="edge40" class="edge">
<title>Node72&#45;&gt;Node9</title>
<path fill="none" stroke="midnightblue" d="M273.02,-586.58C269.03,-584.08 265.32,-581.2 262,-577.87 210.27,-525.95 177.99,-281.5 171.65,-229.58"/>
<polygon fill="midnightblue" stroke="midnightblue" points="271.66,-589.83 282.12,-591.47 274.96,-583.66 271.66,-589.83"/>
</g>
<!-- Node76 -->
<g id="node34" class="node">
<title>Node76</title>
<g id="a_node34"><a xlink:href="block__command__loader_8c.html#a1929d935564a29842e850ff7a352f81b" target="_top" xlink:title=" ">
<polygon fill="white" stroke="red" points="517.5,-623.87 517.5,-653.87 636.5,-653.87 636.5,-623.87 517.5,-623.87"/>
<text text-anchor="start" x="525.5" y="-641.87" font-family="Helvetica,sans-Serif" font-size="10.00">BCL_register_cmd_to</text>
<text text-anchor="middle" x="577" y="-630.87" font-family="Helvetica,sans-Serif" font-size="10.00">_other_obc_</text>
</a>
</g>
</g>
<!-- Node75&#45;&gt;Node76 -->
<g id="edge42" class="edge">
<title>Node75&#45;&gt;Node76</title>
<path fill="none" stroke="midnightblue" d="M709.67,-481.94C708.04,-483.16 706.48,-484.46 705,-485.87 662.09,-526.51 710.91,-572.21 669,-613.87 660.17,-622.65 648.56,-628.42 636.6,-632.19"/>
<polygon fill="midnightblue" stroke="midnightblue" points="711.68,-484.81 718.33,-476.55 707.99,-478.86 711.68,-484.81"/>
</g>
<!-- Node79&#45;&gt;Node9 -->
<g id="edge45" class="edge">
<title>Node79&#45;&gt;Node9</title>
<path fill="none" stroke="midnightblue" d="M694.65,-153.63C587.6,-146.02 409.55,-141.75 262,-178.87 234.48,-185.79 204.91,-200.52 187.06,-210.31"/>
<polygon fill="midnightblue" stroke="midnightblue" points="694.56,-157.13 704.79,-154.37 695.07,-150.15 694.56,-157.13"/>
</g>
<!-- Node45 -->
<g id="node38" class="node">
<title>Node45</title>
<g id="a_node38"><a xlink:href="telemetry__manager_8h.html#af76453743bae7b361005376190100cbf" target="_top" xlink:title="high_freq_tlm, low_freq_tlm を初期化">
<polygon fill="white" stroke="black" points="262,-58.37 262,-77.37 449,-77.37 449,-58.37 262,-58.37"/>
<text text-anchor="middle" x="355.5" y="-65.37" font-family="Helvetica,sans-Serif" font-size="10.00">Cmd_TLM_MGR_CLEAR_USER_TLM</text>
</a>
</g>
</g>
<!-- Node80&#45;&gt;Node45 -->
<g id="edge47" class="edge">
<title>Node80&#45;&gt;Node45</title>
<path fill="none" stroke="midnightblue" d="M512.71,-94.91C480.69,-89.37 442.2,-82.71 411.44,-77.38"/>
<polygon fill="midnightblue" stroke="midnightblue" points="512.41,-98.41 522.87,-96.67 513.61,-91.52 512.41,-98.41"/>
</g>
<!-- Node48 -->
<g id="node39" class="node">
<title>Node48</title>
<g id="a_node39"><a xlink:href="telemetry__manager_8h.html#a19d6e76042721fe9e576dbacaf49b365" target="_top" xlink:title="初期化">
<polygon fill="white" stroke="black" points="296.5,-96.37 296.5,-115.37 414.5,-115.37 414.5,-96.37 296.5,-96.37"/>
<text text-anchor="middle" x="355.5" y="-103.37" font-family="Helvetica,sans-Serif" font-size="10.00">Cmd_TLM_MGR_INIT</text>
</a>
</g>
</g>
<!-- Node80&#45;&gt;Node48 -->
<g id="edge49" class="edge">
<title>Node80&#45;&gt;Node48</title>
<path fill="none" stroke="midnightblue" d="M512.62,-105.87C481.69,-105.87 444.73,-105.87 414.54,-105.87"/>
<polygon fill="midnightblue" stroke="midnightblue" points="512.87,-109.37 522.87,-105.87 512.87,-102.37 512.87,-109.37"/>
</g>
<!-- Node45&#45;&gt;Node9 -->
<g id="edge48" class="edge">
<title>Node45&#45;&gt;Node9</title>
<path fill="none" stroke="midnightblue" d="M271.31,-81.55C268.08,-83.14 264.96,-84.91 262,-86.87 213.88,-118.77 183.95,-185.45 174.1,-210.28"/>
<polygon fill="midnightblue" stroke="midnightblue" points="272.88,-84.69 280.68,-77.53 270.11,-78.26 272.88,-84.69"/>
</g>
<!-- Node48&#45;&gt;Node9 -->
<g id="edge50" class="edge">
<title>Node48&#45;&gt;Node9</title>
<path fill="none" stroke="midnightblue" d="M288.7,-118.35C279.43,-121.41 270.25,-125.19 262,-129.87 224.39,-151.18 191.24,-191.88 177.38,-210.34"/>
<polygon fill="midnightblue" stroke="midnightblue" points="289.82,-121.67 298.37,-115.42 287.79,-114.97 289.82,-121.67"/>
</g>
<!-- Node85 -->
<g id="node44" class="node">
<title>Node85</title>
<g id="a_node44"><a xlink:href="tlm__space__packet_8h.html#abba748fe8e777a580261c16ee3ba07e8" target="_top" xlink:title="共通部分の Header を構築">
<polygon fill="white" stroke="black" points="1587.5,-58.37 1587.5,-77.37 1711.5,-77.37 1711.5,-58.37 1587.5,-58.37"/>
<text text-anchor="middle" x="1649.5" y="-65.37" font-family="Helvetica,sans-Serif" font-size="10.00">TSP_set_common_hdr</text>
</a>
</g>
</g>
<!-- Node84&#45;&gt;Node85 -->
<g id="edge58" class="edge">
<title>Node84&#45;&gt;Node85</title>
<path fill="none" stroke="midnightblue" d="M1738.04,-67.87C1729.21,-67.87 1720.24,-67.87 1711.56,-67.87"/>
<polygon fill="midnightblue" stroke="midnightblue" points="1738.32,-71.37 1748.32,-67.87 1738.32,-64.37 1738.32,-71.37"/>
</g>
<!-- Node86 -->
<g id="node45" class="node">
<title>Node86</title>
<g id="a_node45"><a xlink:href="tlm__space__packet_8h.html#aa687e5632376033a29f4acad3d51c236" target="_top" xlink:title="Primary Header を構築">
<polygon fill="white" stroke="black" points="1420,-58.37 1420,-77.37 1551,-77.37 1551,-58.37 1420,-58.37"/>
<text text-anchor="middle" x="1485.5" y="-65.37" font-family="Helvetica,sans-Serif" font-size="10.00">TSP_setup_primary_hdr</text>
</a>
</g>
</g>
<!-- Node85&#45;&gt;Node86 -->
<g id="edge59" class="edge">
<title>Node85&#45;&gt;Node86</title>
<path fill="none" stroke="midnightblue" d="M1577.16,-67.87C1568.48,-67.87 1559.65,-67.87 1551.07,-67.87"/>
<polygon fill="midnightblue" stroke="midnightblue" points="1577.25,-71.37 1587.25,-67.87 1577.25,-64.37 1577.25,-71.37"/>
</g>
<!-- Node87 -->
<g id="node46" class="node">
<title>Node87</title>
<g id="a_node46"><a xlink:href="telemetry__generator_8h.html#a49a2e0186e9cd2d40d667048b871911f" target="_top" xlink:title=" ">
<polygon fill="white" stroke="black" points="1104,-11.37 1104,-30.37 1226,-30.37 1226,-11.37 1104,-11.37"/>
<text text-anchor="middle" x="1165" y="-18.37" font-family="Helvetica,sans-Serif" font-size="10.00">Cmd_GENERATE_TLM</text>
</a>
</g>
</g>
<!-- Node86&#45;&gt;Node87 -->
<g id="edge60" class="edge">
<title>Node86&#45;&gt;Node87</title>
<path fill="none" stroke="midnightblue" d="M1427.24,-56.44C1413.13,-53.79 1398.04,-51.1 1384,-48.87 1330.86,-40.44 1270.13,-32.8 1226.28,-27.64"/>
<polygon fill="midnightblue" stroke="midnightblue" points="1426.83,-59.92 1437.31,-58.35 1428.14,-53.05 1426.83,-59.92"/>
</g>
<!-- Node88 -->
<g id="node47" class="node">
<title>Node88</title>
<g id="a_node47"><a xlink:href="tlm__space__packet_8h.html#a6a3a85b0640f6dfa288a01adca693958" target="_top" xlink:title="パケット全体を 0x00 クリアし， fill_size に等しいサイズのパケットを生成する">
<polygon fill="white" stroke="black" points="1262,-58.37 1262,-77.37 1384,-77.37 1384,-58.37 1262,-58.37"/>
<text text-anchor="middle" x="1323" y="-65.37" font-family="Helvetica,sans-Serif" font-size="10.00">TSP_setup_fill_packet</text>
</a>
</g>
</g>
<!-- Node86&#45;&gt;Node88 -->
<g id="edge62" class="edge">
<title>Node86&#45;&gt;Node88</title>
<path fill="none" stroke="midnightblue" d="M1409.41,-67.87C1400.93,-67.87 1392.38,-67.87 1384.13,-67.87"/>
<polygon fill="midnightblue" stroke="midnightblue" points="1409.68,-71.37 1419.68,-67.87 1409.68,-64.37 1409.68,-71.37"/>
</g>
<!-- Node87&#45;&gt;Node9 -->
<g id="edge61" class="edge">
<title>Node87&#45;&gt;Node9</title>
<path fill="none" stroke="midnightblue" d="M1093.53,-17.85C1018.73,-14.9 897.05,-10.87 792,-10.87 792,-10.87 792,-10.87 576,-10.87 435.43,-10.87 378.02,30.5 262,-48.87 203.08,-89.17 179,-179.99 172.46,-210.02"/>
<polygon fill="midnightblue" stroke="midnightblue" points="1093.64,-21.35 1103.77,-18.25 1093.92,-14.36 1093.64,-21.35"/>
</g>
<!-- Node89 -->
<g id="node48" class="node">
<title>Node89</title>
<g id="a_node48"><a xlink:href="tcp__to__m__pdu_8h.html#a973ccd708198a0d237a3cbb96cb8b078" target="_top" xlink:title="TCPacket を M_PDU に変換する">
<polygon fill="white" stroke="black" points="1113,-58.37 1113,-77.37 1217,-77.37 1217,-58.37 1113,-58.37"/>
<text text-anchor="middle" x="1165" y="-65.37" font-family="Helvetica,sans-Serif" font-size="10.00">T2M_form_m_pdu</text>
</a>
</g>
</g>
<!-- Node88&#45;&gt;Node89 -->
<g id="edge63" class="edge">
<title>Node88&#45;&gt;Node89</title>
<path fill="none" stroke="midnightblue" d="M1251.55,-67.87C1239.92,-67.87 1228.07,-67.87 1217.04,-67.87"/>
<polygon fill="midnightblue" stroke="midnightblue" points="1251.69,-71.37 1261.69,-67.87 1251.69,-64.37 1251.69,-71.37"/>
</g>
<!-- Node90 -->
<g id="node49" class="node">
<title>Node90</title>
<g id="a_node49"><a xlink:href="di__gs_8c.html#ab60fae9ad2c806b6ba10cb8a076d07c0" target="_top" xlink:title=" ">
<polygon fill="white" stroke="red" points="913,-77.37 913,-96.37 1068,-96.37 1068,-77.37 913,-77.37"/>
<text text-anchor="middle" x="990.5" y="-84.37" font-family="Helvetica,sans-Serif" font-size="10.00">DI_GS_mst_packet_handler_</text>
</a>
</g>
</g>
<!-- Node89&#45;&gt;Node90 -->
<g id="edge64" class="edge">
<title>Node89&#45;&gt;Node90</title>
<path fill="none" stroke="midnightblue" d="M1102.65,-74.63C1091.47,-75.86 1079.69,-77.15 1068.14,-78.43"/>
<polygon fill="midnightblue" stroke="midnightblue" points="1103.15,-78.09 1112.71,-73.52 1102.39,-71.13 1103.15,-78.09"/>
</g>
<!-- Node92 -->
<g id="node50" class="node">
<title>Node92</title>
<g id="a_node50"><a xlink:href="di__gs_8c.html#ab2b3fada377f7de06881f4654946baeb" target="_top" xlink:title=" ">
<polygon fill="white" stroke="red" points="916,-39.37 916,-58.37 1065,-58.37 1065,-39.37 916,-39.37"/>
<text text-anchor="middle" x="990.5" y="-46.37" font-family="Helvetica,sans-Serif" font-size="10.00">DI_GS_rpt_packet_handler_</text>
</a>
</g>
</g>
<!-- Node89&#45;&gt;Node92 -->
<g id="edge65" class="edge">
<title>Node89&#45;&gt;Node92</title>
<path fill="none" stroke="midnightblue" d="M1102.72,-61.12C1090.59,-59.78 1077.75,-58.37 1065.26,-56.99"/>
<polygon fill="midnightblue" stroke="midnightblue" points="1102.39,-64.6 1112.71,-62.22 1103.15,-57.65 1102.39,-64.6"/>
</g>
</g>
</svg>
