<?xml version="1.0" encoding="UTF-8" standalone="no"?>
<!DOCTYPE svg PUBLIC "-//W3C//DTD SVG 1.1//EN"
 "http://www.w3.org/Graphics/SVG/1.1/DTD/svg11.dtd">
<!-- Generated by graphviz version 2.43.0 (0)
 -->
<!-- Title: SP_get_packet_len Pages: 1 -->
<svg width="1067pt" height="1209pt"
 viewBox="0.00 0.00 1067.00 1209.00" xmlns="http://www.w3.org/2000/svg" xmlns:xlink="http://www.w3.org/1999/xlink">
<g id="graph0" class="graph" transform="scale(1 1) rotate(0) translate(4 1205)">
<title>SP_get_packet_len</title>
<polygon fill="white" stroke="transparent" points="-4,4 -4,-1205 1063,-1205 1063,4 -4,4"/>
<!-- Node1 -->
<g id="node1" class="node">
<title>Node1</title>
<g id="a_node1"><a xlink:title="Packet Length を取得">
<polygon fill="#bfbfbf" stroke="black" points="952,-266.5 952,-285.5 1059,-285.5 1059,-266.5 952,-266.5"/>
<text text-anchor="middle" x="1005.5" y="-273.5" font-family="Helvetica,sans-Serif" font-size="10.00">SP_get_packet_len</text>
</a>
</g>
</g>
<!-- Node2 -->
<g id="node2" class="node">
<title>Node2</title>
<g id="a_node2"><a xlink:href="cmd__space__packet_8h.html#aee157565d728de693218da48114b5923" target="_top" xlink:title="Packet Length を取得">
<polygon fill="white" stroke="black" points="799,-663.5 799,-682.5 913,-682.5 913,-663.5 799,-663.5"/>
<text text-anchor="middle" x="856" y="-670.5" font-family="Helvetica,sans-Serif" font-size="10.00">CSP_get_packet_len</text>
</a>
</g>
</g>
<!-- Node1&#45;&gt;Node2 -->
<g id="edge1" class="edge">
<title>Node1&#45;&gt;Node2</title>
<path fill="none" stroke="midnightblue" d="M997.32,-295.32C970.97,-366.26 880.03,-611.01 860.65,-663.17"/>
<polygon fill="midnightblue" stroke="midnightblue" points="1000.65,-296.41 1000.85,-285.81 994.09,-293.97 1000.65,-296.41"/>
</g>
<!-- Node134 -->
<g id="node31" class="node">
<title>Node134</title>
<g id="a_node31"><a xlink:href="common__tlm__cmd__packet_8c.html#a3b5cbc5a345efdd6e9e7d135478b4868" target="_top" xlink:title="パケット長を取得">
<polygon fill="white" stroke="black" points="796,-304.5 796,-323.5 916,-323.5 916,-304.5 796,-304.5"/>
<text text-anchor="middle" x="856" y="-311.5" font-family="Helvetica,sans-Serif" font-size="10.00">CTCP_get_packet_len</text>
</a>
</g>
</g>
<!-- Node1&#45;&gt;Node134 -->
<g id="edge35" class="edge">
<title>Node1&#45;&gt;Node134</title>
<path fill="none" stroke="midnightblue" d="M957.49,-288.11C936.94,-293.4 913.2,-299.52 893.95,-304.48"/>
<polygon fill="midnightblue" stroke="midnightblue" points="958.47,-291.47 967.28,-285.59 956.72,-284.69 958.47,-291.47"/>
</g>
<!-- Node143 -->
<g id="node37" class="node">
<title>Node143</title>
<g id="a_node37"><a xlink:href="space__packet_8h.html#af2e7ada2c7544c10e11bb9c7473485fa" target="_top" xlink:title="SpacePacket をコピー">
<polygon fill="white" stroke="black" points="808.5,-228.5 808.5,-247.5 903.5,-247.5 903.5,-228.5 808.5,-228.5"/>
<text text-anchor="middle" x="856" y="-235.5" font-family="Helvetica,sans-Serif" font-size="10.00">SP_copy_packet</text>
</a>
</g>
</g>
<!-- Node1&#45;&gt;Node143 -->
<g id="edge43" class="edge">
<title>Node1&#45;&gt;Node143</title>
<path fill="none" stroke="midnightblue" d="M957.49,-263.89C936.94,-258.6 913.2,-252.48 893.95,-247.52"/>
<polygon fill="midnightblue" stroke="midnightblue" points="956.72,-267.31 967.28,-266.41 958.47,-260.53 956.72,-267.31"/>
</g>
<!-- Node158 -->
<g id="node43" class="node">
<title>Node158</title>
<g id="a_node43"><a xlink:href="tlm__space__packet_8h.html#a51745cb62959205762b4b2430f81804f" target="_top" xlink:title="Packet Length を取得">
<polygon fill="white" stroke="black" points="799.5,-114.5 799.5,-133.5 912.5,-133.5 912.5,-114.5 799.5,-114.5"/>
<text text-anchor="middle" x="856" y="-121.5" font-family="Helvetica,sans-Serif" font-size="10.00">TSP_get_packet_len</text>
</a>
</g>
</g>
<!-- Node1&#45;&gt;Node158 -->
<g id="edge49" class="edge">
<title>Node1&#45;&gt;Node158</title>
<path fill="none" stroke="midnightblue" d="M988.2,-259.21C957.2,-227.26 890.64,-158.67 866.22,-133.5"/>
<polygon fill="midnightblue" stroke="midnightblue" points="985.8,-261.75 995.27,-266.49 990.82,-256.88 985.8,-261.75"/>
</g>
<!-- Node3 -->
<g id="node3" class="node">
<title>Node3</title>
<g id="a_node3"><a xlink:href="common__cmd__packet_8c.html#a09b2e0ad8f87be0782c0f8ef2523f44c" target="_top" xlink:title="パケット長を取得">
<polygon fill="white" stroke="black" points="626,-1086.5 626,-1105.5 741,-1105.5 741,-1086.5 626,-1086.5"/>
<text text-anchor="middle" x="683.5" y="-1093.5" font-family="Helvetica,sans-Serif" font-size="10.00">CCP_get_packet_len</text>
</a>
</g>
</g>
<!-- Node2&#45;&gt;Node3 -->
<g id="edge2" class="edge">
<title>Node2&#45;&gt;Node3</title>
<path fill="none" stroke="midnightblue" d="M847.31,-692.09C817.53,-765.97 710.41,-1031.72 688.45,-1086.2"/>
<polygon fill="midnightblue" stroke="midnightblue" points="850.63,-693.21 851.12,-682.63 844.13,-690.6 850.63,-693.21"/>
</g>
<!-- Node114 -->
<g id="node13" class="node">
<title>Node114</title>
<g id="a_node13"><a xlink:href="cmd__space__packet_8h.html#ad01de2632e93794f7c77749eb788ad74" target="_top" xlink:title="Param Length を取得">
<polygon fill="white" stroke="black" points="627,-663.5 627,-682.5 740,-682.5 740,-663.5 627,-663.5"/>
<text text-anchor="middle" x="683.5" y="-670.5" font-family="Helvetica,sans-Serif" font-size="10.00">CSP_get_param_len</text>
</a>
</g>
</g>
<!-- Node2&#45;&gt;Node114 -->
<g id="edge13" class="edge">
<title>Node2&#45;&gt;Node114</title>
<path fill="none" stroke="midnightblue" d="M788.37,-673C772.42,-673 755.56,-673 740.16,-673"/>
<polygon fill="midnightblue" stroke="midnightblue" points="788.7,-676.5 798.7,-673 788.7,-669.5 788.7,-676.5"/>
</g>
<!-- Node4 -->
<g id="node4" class="node">
<title>Node4</title>
<g id="a_node4"><a xlink:href="block__command__table_8c.html#aa8c676311a614f56a48444ffb17f7e87" target="_top" xlink:title="pos の指す場所に packet の内容を保存 (TCP_PRM_HDR_LEN の長さも考慮)">
<polygon fill="white" stroke="black" points="445.5,-1143.5 445.5,-1162.5 541.5,-1162.5 541.5,-1143.5 445.5,-1143.5"/>
<text text-anchor="middle" x="493.5" y="-1150.5" font-family="Helvetica,sans-Serif" font-size="10.00">BCT_save_cmd_</text>
</a>
</g>
</g>
<!-- Node3&#45;&gt;Node4 -->
<g id="edge3" class="edge">
<title>Node3&#45;&gt;Node4</title>
<path fill="none" stroke="midnightblue" d="M641.21,-1108.52C606.52,-1119.04 557.69,-1133.84 526.07,-1143.43"/>
<polygon fill="midnightblue" stroke="midnightblue" points="642.48,-1111.79 651.03,-1105.54 640.45,-1105.09 642.48,-1111.79"/>
</g>
<!-- Node74 -->
<g id="node8" class="node">
<title>Node74</title>
<g id="a_node8"><a xlink:href="common__tlm__cmd__packet__for__driver__super_8h.html#a40adc5e0e6a976c720682df078eb7876" target="_top" xlink:title="CommonCmdPacket を受信データからコピーして取得する">
<polygon fill="white" stroke="black" points="219,-1105.5 219,-1124.5 353,-1124.5 353,-1105.5 219,-1105.5"/>
<text text-anchor="middle" x="286" y="-1112.5" font-family="Helvetica,sans-Serif" font-size="10.00">CCP_get_ccp_from_dssc</text>
</a>
</g>
</g>
<!-- Node3&#45;&gt;Node74 -->
<g id="edge7" class="edge">
<title>Node3&#45;&gt;Node74</title>
<path fill="none" stroke="midnightblue" d="M615.81,-1099.2C542.68,-1102.72 426.04,-1108.32 353.13,-1111.82"/>
<polygon fill="midnightblue" stroke="midnightblue" points="616.01,-1102.7 625.83,-1098.72 615.68,-1095.71 616.01,-1102.7"/>
</g>
<!-- Node75 -->
<g id="node9" class="node">
<title>Node75</title>
<g id="a_node9"><a xlink:href="common__cmd__packet_8c.html#add63f4e739670d463f6ace1f55fa3d48" target="_top" xlink:title="有効なパケットかチェックする">
<polygon fill="white" stroke="black" points="435.5,-1067.5 435.5,-1086.5 551.5,-1086.5 551.5,-1067.5 435.5,-1067.5"/>
<text text-anchor="middle" x="493.5" y="-1074.5" font-family="Helvetica,sans-Serif" font-size="10.00">CCP_is_valid_packet</text>
</a>
</g>
</g>
<!-- Node3&#45;&gt;Node75 -->
<g id="edge8" class="edge">
<title>Node3&#45;&gt;Node75</title>
<path fill="none" stroke="midnightblue" d="M615.74,-1089.25C594.81,-1087.14 571.9,-1084.82 551.69,-1082.78"/>
<polygon fill="midnightblue" stroke="midnightblue" points="615.54,-1092.75 625.84,-1090.27 616.24,-1085.79 615.54,-1092.75"/>
</g>
<!-- Node5 -->
<g id="node5" class="node">
<title>Node5</title>
<g id="a_node5"><a xlink:href="block__command__table_8h.html#a164ccb35114540791acacd185a326d1b" target="_top" xlink:title="既に登録されている BC の Cmd の中身を外部から上書きする">
<polygon fill="white" stroke="red" points="229,-1143.5 229,-1162.5 343,-1162.5 343,-1143.5 229,-1143.5"/>
<text text-anchor="middle" x="286" y="-1150.5" font-family="Helvetica,sans-Serif" font-size="10.00">BCT_overwrite_cmd</text>
</a>
</g>
</g>
<!-- Node4&#45;&gt;Node5 -->
<g id="edge4" class="edge">
<title>Node4&#45;&gt;Node5</title>
<path fill="none" stroke="midnightblue" d="M435.05,-1153C406.29,-1153 371.61,-1153 343.05,-1153"/>
<polygon fill="midnightblue" stroke="midnightblue" points="435.35,-1156.5 445.35,-1153 435.35,-1149.5 435.35,-1156.5"/>
</g>
<!-- Node20 -->
<g id="node7" class="node">
<title>Node20</title>
<g id="a_node7"><a xlink:href="block__command__table_8h.html#af4f041d9c2411d039196e8c2eb786005" target="_top" xlink:title="Cmd を block_command_table&#45;&gt;pos に登録する">
<polygon fill="white" stroke="red" points="233.5,-1181.5 233.5,-1200.5 338.5,-1200.5 338.5,-1181.5 233.5,-1181.5"/>
<text text-anchor="middle" x="286" y="-1188.5" font-family="Helvetica,sans-Serif" font-size="10.00">BCT_register_cmd</text>
</a>
</g>
</g>
<!-- Node4&#45;&gt;Node20 -->
<g id="edge6" class="edge">
<title>Node4&#45;&gt;Node20</title>
<path fill="none" stroke="midnightblue" d="M435.35,-1163.57C405.02,-1169.18 368.06,-1176.01 338.61,-1181.46"/>
<polygon fill="midnightblue" stroke="midnightblue" points="436.16,-1166.98 445.35,-1161.72 434.88,-1160.09 436.16,-1166.98"/>
</g>
<!-- Node6 -->
<g id="node6" class="node">
<title>Node6</title>
<g id="a_node6"><a xlink:href="block__command__table_8h.html#a2861c4b00ce9134d0ed5f6c27e3ae676" target="_top" xlink:title=" ">
<polygon fill="white" stroke="red" points="0,-751.5 0,-770.5 156,-770.5 156,-751.5 0,-751.5"/>
<text text-anchor="middle" x="78" y="-758.5" font-family="Helvetica,sans-Serif" font-size="10.00">Cmd_BCT_OVERWRITE_CMD</text>
</a>
</g>
</g>
<!-- Node5&#45;&gt;Node6 -->
<g id="edge5" class="edge">
<title>Node5&#45;&gt;Node6</title>
<path fill="none" stroke="midnightblue" d="M219.16,-1148.8C209.17,-1145.68 199.66,-1140.98 192,-1134 177.56,-1120.84 97.17,-827.72 81.61,-770.6"/>
<polygon fill="midnightblue" stroke="midnightblue" points="218.28,-1152.18 228.84,-1151.32 220.05,-1145.41 218.28,-1152.18"/>
</g>
<!-- Node75&#45;&gt;Node74 -->
<g id="edge9" class="edge">
<title>Node75&#45;&gt;Node74</title>
<path fill="none" stroke="midnightblue" d="M430.75,-1088.42C401.35,-1093.86 366.59,-1100.28 338.61,-1105.46"/>
<polygon fill="midnightblue" stroke="midnightblue" points="431.71,-1091.8 440.91,-1086.54 430.44,-1084.92 431.71,-1091.8"/>
</g>
<!-- Node57 -->
<g id="node10" class="node">
<title>Node57</title>
<g id="a_node10"><a xlink:href="packet__handler_8h.html#a9d16c8b958f0f983cf15674d6c528b02" target="_top" xlink:title="CCP を解析する">
<polygon fill="white" stroke="red" points="217.5,-991.5 217.5,-1010.5 354.5,-1010.5 354.5,-991.5 217.5,-991.5"/>
<text text-anchor="middle" x="286" y="-998.5" font-family="Helvetica,sans-Serif" font-size="10.00">PH_analyze_cmd_packet</text>
</a>
</g>
</g>
<!-- Node75&#45;&gt;Node57 -->
<g id="edge10" class="edge">
<title>Node75&#45;&gt;Node57</title>
<path fill="none" stroke="midnightblue" d="M468.32,-1062.35C446.08,-1049.47 411.84,-1031.09 380,-1020 369.11,-1016.2 357.22,-1013.06 345.69,-1010.5"/>
<polygon fill="midnightblue" stroke="midnightblue" points="466.67,-1065.44 477.07,-1067.49 470.22,-1059.41 466.67,-1065.44"/>
</g>
<!-- Node76 -->
<g id="node12" class="node">
<title>Node76</title>
<g id="a_node12"><a xlink:href="packet__handler_8h.html#a7b1777e6101ff2eeeef6042166974cdc" target="_top" xlink:title="CCP をコマンドとして解釈して実行，ないしは別機器へ配送する">
<polygon fill="white" stroke="red" points="12.5,-1048.5 12.5,-1067.5 143.5,-1067.5 143.5,-1048.5 12.5,-1048.5"/>
<text text-anchor="middle" x="78" y="-1055.5" font-family="Helvetica,sans-Serif" font-size="10.00">PH_dispatch_command</text>
</a>
</g>
</g>
<!-- Node75&#45;&gt;Node76 -->
<g id="edge12" class="edge">
<title>Node75&#45;&gt;Node76</title>
<path fill="none" stroke="midnightblue" d="M425.27,-1073.91C347.48,-1070.34 220.3,-1064.49 143.63,-1060.97"/>
<polygon fill="midnightblue" stroke="midnightblue" points="425.29,-1077.42 435.44,-1074.38 425.61,-1070.42 425.29,-1077.42"/>
</g>
<!-- Node73 -->
<g id="node11" class="node">
<title>Node73</title>
<g id="a_node11"><a xlink:href="packet__handler_8h.html#acf757fa72967bf66b39dc5ced7132330" target="_top" xlink:title="CTCP を解析する">
<polygon fill="white" stroke="black" points="22.5,-710.5 22.5,-729.5 133.5,-729.5 133.5,-710.5 22.5,-710.5"/>
<text text-anchor="middle" x="78" y="-717.5" font-family="Helvetica,sans-Serif" font-size="10.00">PH_analyze_packet</text>
</a>
</g>
</g>
<!-- Node57&#45;&gt;Node73 -->
<g id="edge11" class="edge">
<title>Node57&#45;&gt;Node73</title>
<path fill="none" stroke="midnightblue" d="M207.81,-993.47C201.93,-990.54 196.54,-986.79 192,-982 117.76,-903.75 227.18,-823.04 156,-742 150.04,-735.21 142.14,-730.45 133.67,-727.13"/>
<polygon fill="midnightblue" stroke="midnightblue" points="206.79,-996.83 217.37,-997.42 209.46,-990.36 206.79,-996.83"/>
</g>
<!-- Node115 -->
<g id="node14" class="node">
<title>Node115</title>
<g id="a_node14"><a xlink:href="common__cmd__packet_8c.html#a6f37129ce7654260af1f8a565f6423fc" target="_top" xlink:title="CMD パラメタ長を取得">
<polygon fill="white" stroke="red" points="436.5,-663.5 436.5,-682.5 550.5,-682.5 550.5,-663.5 436.5,-663.5"/>
<text text-anchor="middle" x="493.5" y="-670.5" font-family="Helvetica,sans-Serif" font-size="10.00">CCP_get_param_len</text>
</a>
</g>
</g>
<!-- Node114&#45;&gt;Node115 -->
<g id="edge14" class="edge">
<title>Node114&#45;&gt;Node115</title>
<path fill="none" stroke="midnightblue" d="M616.79,-673C595.22,-673 571.45,-673 550.65,-673"/>
<polygon fill="midnightblue" stroke="midnightblue" points="616.86,-676.5 626.86,-673 616.86,-669.5 616.86,-676.5"/>
</g>
<!-- Node115&#45;&gt;Node6 -->
<g id="edge31" class="edge">
<title>Node115&#45;&gt;Node6</title>
<path fill="none" stroke="midnightblue" d="M473.37,-688.83C452.07,-705.42 415.9,-730.63 380,-742 306.49,-765.27 217.96,-768.06 156.01,-766.23"/>
<polygon fill="midnightblue" stroke="midnightblue" points="475.65,-691.49 481.29,-682.52 471.29,-686.01 475.65,-691.49"/>
</g>
<!-- Node116 -->
<g id="node15" class="node">
<title>Node116</title>
<g id="a_node15"><a xlink:href="command__analyze_8h.html#a68bd697f2123acd72c8c1a49b7f3652a" target="_top" xlink:title="コマンド実行の本体">
<polygon fill="white" stroke="black" points="236,-1029.5 236,-1048.5 336,-1048.5 336,-1029.5 236,-1029.5"/>
<text text-anchor="middle" x="286" y="-1036.5" font-family="Helvetica,sans-Serif" font-size="10.00">CA_execute_cmd</text>
</a>
</g>
</g>
<!-- Node115&#45;&gt;Node116 -->
<g id="edge15" class="edge">
<title>Node115&#45;&gt;Node116</title>
<path fill="none" stroke="midnightblue" d="M492.53,-692.8C491.5,-752.28 479.82,-930.78 380,-1020 368.08,-1030.65 351.84,-1035.96 336.27,-1038.44"/>
<polygon fill="midnightblue" stroke="midnightblue" points="496.04,-692.58 492.62,-682.55 489.04,-692.52 496.04,-692.58"/>
</g>
<!-- Node117 -->
<g id="node16" class="node">
<title>Node117</title>
<g id="a_node16"><a xlink:href="common__cmd__packet__util_8h.html#ac42b13a9649fc0a2622e4c41460e2bf6" target="_top" xlink:title="CCP packet から，RAW コマンド引数を取得する">
<polygon fill="white" stroke="black" points="213,-702 213,-732 359,-732 359,-702 213,-702"/>
<text text-anchor="start" x="221" y="-720" font-family="Helvetica,sans-Serif" font-size="10.00">CCP_get_raw_param_from</text>
<text text-anchor="middle" x="286" y="-709" font-family="Helvetica,sans-Serif" font-size="10.00">_packet</text>
</a>
</g>
</g>
<!-- Node115&#45;&gt;Node117 -->
<g id="edge17" class="edge">
<title>Node115&#45;&gt;Node117</title>
<path fill="none" stroke="midnightblue" d="M437.99,-684.67C413.27,-689.96 383.73,-696.29 357.36,-701.93"/>
<polygon fill="midnightblue" stroke="midnightblue" points="438.86,-688.06 447.91,-682.55 437.4,-681.22 438.86,-688.06"/>
</g>
<!-- Node118 -->
<g id="node17" class="node">
<title>Node118</title>
<g id="a_node17"><a xlink:href="command__analyze_8h.html#ac85eef527a5efde49ce80fd5930eb7ed" target="_top" xlink:title=" ">
<polygon fill="white" stroke="red" points="8,-666.5 8,-685.5 148,-685.5 148,-666.5 8,-666.5"/>
<text text-anchor="middle" x="78" y="-673.5" font-family="Helvetica,sans-Serif" font-size="10.00">Cmd_CA_REGISTER_CMD</text>
</a>
</g>
</g>
<!-- Node115&#45;&gt;Node118 -->
<g id="edge33" class="edge">
<title>Node115&#45;&gt;Node118</title>
<path fill="none" stroke="midnightblue" d="M425.88,-673.48C349.66,-674.04 225.44,-674.94 148.17,-675.5"/>
<polygon fill="midnightblue" stroke="midnightblue" points="426.33,-676.98 436.3,-673.41 426.28,-669.98 426.33,-676.98"/>
</g>
<!-- Node119 -->
<g id="node18" class="node">
<title>Node119</title>
<g id="a_node18"><a xlink:href="common__cmd__packet__util_8h.html#afc0bbfba6ff06491ad012b8885b54d79" target="_top" xlink:title="CCP packet から，RAW コマンド引数の長さを返す">
<polygon fill="white" stroke="red" points="217.5,-625.5 217.5,-644.5 354.5,-644.5 354.5,-625.5 217.5,-625.5"/>
<text text-anchor="middle" x="286" y="-632.5" font-family="Helvetica,sans-Serif" font-size="10.00">CCP_get_raw_param_len</text>
</a>
</g>
</g>
<!-- Node115&#45;&gt;Node119 -->
<g id="edge20" class="edge">
<title>Node115&#45;&gt;Node119</title>
<path fill="none" stroke="midnightblue" d="M430.75,-661.58C401.35,-656.14 366.59,-649.72 338.61,-644.54"/>
<polygon fill="midnightblue" stroke="midnightblue" points="430.44,-665.08 440.91,-663.46 431.71,-658.2 430.44,-665.08"/>
</g>
<!-- Node121 -->
<g id="node19" class="node">
<title>Node121</title>
<g id="a_node19"><a xlink:href="block__command__executor_8h.html#a465f4293a545f0765d879cbf07cb08ab" target="_top" xlink:title=" ">
<polygon fill="white" stroke="red" points="209,-576 209,-606 363,-606 363,-576 209,-576"/>
<text text-anchor="start" x="217" y="-594" font-family="Helvetica,sans-Serif" font-size="10.00">Cmd_BCE_ACTIVATE_BLOCK</text>
<text text-anchor="middle" x="286" y="-583" font-family="Helvetica,sans-Serif" font-size="10.00">_BY_ID</text>
</a>
</g>
</g>
<!-- Node115&#45;&gt;Node121 -->
<g id="edge21" class="edge">
<title>Node115&#45;&gt;Node121</title>
<path fill="none" stroke="midnightblue" d="M467.38,-658.38C445.02,-645.83 411.13,-627.92 380,-616 370.48,-612.35 360.21,-609.02 350.1,-606.07"/>
<polygon fill="midnightblue" stroke="midnightblue" points="465.79,-661.5 476.22,-663.4 469.25,-655.41 465.79,-661.5"/>
</g>
<!-- Node78 -->
<g id="node20" class="node">
<title>Node78</title>
<g id="a_node20"><a xlink:href="block__command__executor_8h.html#abb0608b32539dc732cc08efca4a451df" target="_top" xlink:title=" ">
<polygon fill="white" stroke="red" points="209,-537.5 209,-556.5 363,-556.5 363,-537.5 209,-537.5"/>
<text text-anchor="middle" x="286" y="-544.5" font-family="Helvetica,sans-Serif" font-size="10.00">Cmd_BCE_COMBINE_BLOCK</text>
</a>
</g>
</g>
<!-- Node115&#45;&gt;Node78 -->
<g id="edge22" class="edge">
<title>Node115&#45;&gt;Node78</title>
<path fill="none" stroke="midnightblue" d="M479.06,-655.35C459.83,-631.42 422.1,-589.12 380,-567 371.67,-562.62 362.43,-559.2 353.11,-556.53"/>
<polygon fill="midnightblue" stroke="midnightblue" points="476.35,-657.57 485.28,-663.27 481.86,-653.24 476.35,-657.57"/>
</g>
<!-- Node122 -->
<g id="node21" class="node">
<title>Node122</title>
<g id="a_node21"><a xlink:href="block__command__executor_8h.html#a29b81742f06a5c2f7a223817c7ce3c83" target="_top" xlink:title=" ">
<polygon fill="white" stroke="red" points="223,-488 223,-518 349,-518 349,-488 223,-488"/>
<text text-anchor="start" x="231" y="-506" font-family="Helvetica,sans-Serif" font-size="10.00">Cmd_BCE_INACTIVATE</text>
<text text-anchor="middle" x="286" y="-495" font-family="Helvetica,sans-Serif" font-size="10.00">_BLOCK_BY_ID</text>
</a>
</g>
</g>
<!-- Node115&#45;&gt;Node122 -->
<g id="edge23" class="edge">
<title>Node115&#45;&gt;Node122</title>
<path fill="none" stroke="midnightblue" d="M483.17,-654.2C466.72,-623.07 429.58,-560.97 380,-528 370.81,-521.89 360.18,-517.27 349.46,-513.78"/>
<polygon fill="midnightblue" stroke="midnightblue" points="480.25,-656.19 487.94,-663.49 486.48,-652.99 480.25,-656.19"/>
</g>
<!-- Node123 -->
<g id="node22" class="node">
<title>Node123</title>
<g id="a_node22"><a xlink:href="block__command__executor_8h.html#a93423b90ff4f91757177aa01430852a7" target="_top" xlink:title=" ">
<polygon fill="white" stroke="red" points="192,-449.5 192,-468.5 380,-468.5 380,-449.5 192,-449.5"/>
<text text-anchor="middle" x="286" y="-456.5" font-family="Helvetica,sans-Serif" font-size="10.00">Cmd_BCE_RESET_COMBINER_INFO</text>
</a>
</g>
</g>
<!-- Node115&#45;&gt;Node123 -->
<g id="edge24" class="edge">
<title>Node115&#45;&gt;Node123</title>
<path fill="none" stroke="midnightblue" d="M487.13,-653.74C475.06,-614.23 441.89,-523.99 380,-479 374.12,-474.73 367.52,-471.33 360.61,-468.64"/>
<polygon fill="midnightblue" stroke="midnightblue" points="483.8,-654.84 489.98,-663.45 490.52,-652.87 483.8,-654.84"/>
</g>
<!-- Node124 -->
<g id="node23" class="node">
<title>Node124</title>
<g id="a_node23"><a xlink:href="block__command__executor_8h.html#adc2d1f1a3fc7ab66a186bab9211da725" target="_top" xlink:title=" ">
<polygon fill="white" stroke="red" points="196,-411.5 196,-430.5 376,-430.5 376,-411.5 196,-411.5"/>
<text text-anchor="middle" x="286" y="-418.5" font-family="Helvetica,sans-Serif" font-size="10.00">Cmd_BCE_RESET_ROTATOR_INFO</text>
</a>
</g>
</g>
<!-- Node115&#45;&gt;Node124 -->
<g id="edge25" class="edge">
<title>Node115&#45;&gt;Node124</title>
<path fill="none" stroke="midnightblue" d="M489.02,-653.01C479.96,-607.43 451.25,-495.44 380,-440 375.06,-436.15 369.53,-433.03 363.71,-430.5"/>
<polygon fill="midnightblue" stroke="midnightblue" points="485.62,-653.91 490.91,-663.1 492.5,-652.62 485.62,-653.91"/>
</g>
<!-- Node80 -->
<g id="node24" class="node">
<title>Node80</title>
<g id="a_node24"><a xlink:href="block__command__executor_8h.html#adc05f3761578b7c2170e54e3f5b13c3e" target="_top" xlink:title=" ">
<polygon fill="white" stroke="red" points="213.5,-373.5 213.5,-392.5 358.5,-392.5 358.5,-373.5 213.5,-373.5"/>
<text text-anchor="middle" x="286" y="-380.5" font-family="Helvetica,sans-Serif" font-size="10.00">Cmd_BCE_ROTATE_BLOCK</text>
</a>
</g>
</g>
<!-- Node115&#45;&gt;Node80 -->
<g id="edge26" class="edge">
<title>Node115&#45;&gt;Node80</title>
<path fill="none" stroke="midnightblue" d="M490.52,-653.29C484.36,-602.89 460.77,-468.59 380,-402 373.77,-396.86 366.52,-393 358.86,-390.1"/>
<polygon fill="midnightblue" stroke="midnightblue" points="487.07,-653.92 491.66,-663.47 494.03,-653.14 487.07,-653.92"/>
</g>
<!-- Node125 -->
<g id="node25" class="node">
<title>Node125</title>
<g id="a_node25"><a xlink:href="block__command__executor_8h.html#aeb3639fa45f0d3ff899c25f9d4eefd1d" target="_top" xlink:title=" ">
<polygon fill="white" stroke="red" points="221,-324 221,-354 351,-354 351,-324 221,-324"/>
<text text-anchor="start" x="229" y="-342" font-family="Helvetica,sans-Serif" font-size="10.00">Cmd_BCE_SET_ROTATE</text>
<text text-anchor="middle" x="286" y="-331" font-family="Helvetica,sans-Serif" font-size="10.00">_INTERVAL</text>
</a>
</g>
</g>
<!-- Node115&#45;&gt;Node125 -->
<g id="edge27" class="edge">
<title>Node115&#45;&gt;Node125</title>
<path fill="none" stroke="midnightblue" d="M486.52,-653.41C466.63,-588.7 402.62,-384.75 380,-364 371.87,-356.54 361.75,-351.27 351.2,-347.55"/>
<polygon fill="midnightblue" stroke="midnightblue" points="483.24,-654.64 489.52,-663.18 489.93,-652.59 483.24,-654.64"/>
</g>
<!-- Node82 -->
<g id="node26" class="node">
<title>Node82</title>
<g id="a_node26"><a xlink:href="block__command__executor_8h.html#aaf3687244959da89ab0bc25a86cff912" target="_top" xlink:title=" ">
<polygon fill="white" stroke="red" points="200.5,-942 200.5,-972 371.5,-972 371.5,-942 200.5,-942"/>
<text text-anchor="start" x="208.5" y="-960" font-family="Helvetica,sans-Serif" font-size="10.00">Cmd_BCE_TIMELIMIT_COMBINE</text>
<text text-anchor="middle" x="286" y="-949" font-family="Helvetica,sans-Serif" font-size="10.00">_BLOCK</text>
</a>
</g>
</g>
<!-- Node115&#45;&gt;Node82 -->
<g id="edge28" class="edge">
<title>Node115&#45;&gt;Node82</title>
<path fill="none" stroke="midnightblue" d="M489.8,-692.87C482.12,-741.4 455.6,-866.78 380,-932 375.57,-935.82 370.61,-939.07 365.35,-941.82"/>
<polygon fill="midnightblue" stroke="midnightblue" points="493.29,-693.15 491.3,-682.75 486.37,-692.12 493.29,-693.15"/>
</g>
<!-- Node126 -->
<g id="node27" class="node">
<title>Node126</title>
<g id="a_node27"><a xlink:href="block__command__table_8h.html#a9a27d30f9689f0c58b67cb1cf9d3aa1f" target="_top" xlink:title=" ">
<polygon fill="white" stroke="red" points="216.5,-903.5 216.5,-922.5 355.5,-922.5 355.5,-903.5 216.5,-903.5"/>
<text text-anchor="middle" x="286" y="-910.5" font-family="Helvetica,sans-Serif" font-size="10.00">Cmd_BCT_CLEAR_BLOCK</text>
</a>
</g>
</g>
<!-- Node115&#45;&gt;Node126 -->
<g id="edge29" class="edge">
<title>Node115&#45;&gt;Node126</title>
<path fill="none" stroke="midnightblue" d="M488.48,-692.86C478.52,-736.69 448.38,-841.94 380,-894 372.79,-899.49 364.38,-903.5 355.63,-906.41"/>
<polygon fill="midnightblue" stroke="midnightblue" points="491.95,-693.4 490.64,-682.88 485.11,-691.92 491.95,-693.4"/>
</g>
<!-- Node127 -->
<g id="node28" class="node">
<title>Node127</title>
<g id="a_node28"><a xlink:href="block__command__table_8h.html#ad18274859bb1f17e0ebb6fafe0127ebe" target="_top" xlink:title=" ">
<polygon fill="white" stroke="red" points="226,-865.5 226,-884.5 346,-884.5 346,-865.5 226,-865.5"/>
<text text-anchor="middle" x="286" y="-872.5" font-family="Helvetica,sans-Serif" font-size="10.00">Cmd_BCT_COPY_BCT</text>
</a>
</g>
</g>
<!-- Node115&#45;&gt;Node127 -->
<g id="edge30" class="edge">
<title>Node115&#45;&gt;Node127</title>
<path fill="none" stroke="midnightblue" d="M486.3,-692.78C473.27,-730.93 439.24,-814.55 380,-856 370.01,-862.99 358.02,-867.53 346.03,-870.45"/>
<polygon fill="midnightblue" stroke="midnightblue" points="489.75,-693.49 489.55,-682.9 483.1,-691.31 489.75,-693.49"/>
</g>
<!-- Node128 -->
<g id="node29" class="node">
<title>Node128</title>
<g id="a_node29"><a xlink:href="block__command__table_8h.html#a3b0f9ff22673fd7b7b9e986bc7434710" target="_top" xlink:title=" ">
<polygon fill="white" stroke="red" points="197.5,-827.5 197.5,-846.5 374.5,-846.5 374.5,-827.5 197.5,-827.5"/>
<text text-anchor="middle" x="286" y="-834.5" font-family="Helvetica,sans-Serif" font-size="10.00">Cmd_BCT_SET_BLOCK_POSITION</text>
</a>
</g>
</g>
<!-- Node115&#45;&gt;Node128 -->
<g id="edge32" class="edge">
<title>Node115&#45;&gt;Node128</title>
<path fill="none" stroke="midnightblue" d="M483.59,-691.72C467.57,-723.21 430.79,-786.43 380,-818 373.84,-821.83 367.05,-824.9 360.03,-827.37"/>
<polygon fill="midnightblue" stroke="midnightblue" points="486.76,-693.21 488.05,-682.69 480.49,-690.11 486.76,-693.21"/>
</g>
<!-- Node129 -->
<g id="node30" class="node">
<title>Node129</title>
<g id="a_node30"><a xlink:href="memory__dump_8h.html#a5859c99be5a6d5d964671cf9aadb159d" target="_top" xlink:title=" ">
<polygon fill="white" stroke="red" points="235.5,-789.5 235.5,-808.5 336.5,-808.5 336.5,-789.5 235.5,-789.5"/>
<text text-anchor="middle" x="286" y="-796.5" font-family="Helvetica,sans-Serif" font-size="10.00">Cmd_MEM_LOAD</text>
</a>
</g>
</g>
<!-- Node115&#45;&gt;Node129 -->
<g id="edge34" class="edge">
<title>Node115&#45;&gt;Node129</title>
<path fill="none" stroke="midnightblue" d="M478.23,-690.37C458.51,-713.22 420.74,-753.03 380,-775 366.79,-782.12 351.37,-787.2 336.94,-790.8"/>
<polygon fill="midnightblue" stroke="midnightblue" points="481.08,-692.42 484.87,-682.52 475.74,-687.9 481.08,-692.42"/>
</g>
<!-- Node116&#45;&gt;Node76 -->
<g id="edge16" class="edge">
<title>Node116&#45;&gt;Node76</title>
<path fill="none" stroke="midnightblue" d="M225.94,-1044.45C200.22,-1046.82 170.01,-1049.61 143.69,-1052.03"/>
<polygon fill="midnightblue" stroke="midnightblue" points="226.28,-1047.93 235.92,-1043.53 225.64,-1040.96 226.28,-1047.93"/>
</g>
<!-- Node117&#45;&gt;Node6 -->
<g id="edge18" class="edge">
<title>Node117&#45;&gt;Node6</title>
<path fill="none" stroke="midnightblue" d="M204.64,-734.16C177.07,-740.05 147.22,-746.43 123.54,-751.49"/>
<polygon fill="midnightblue" stroke="midnightblue" points="205.63,-737.53 214.68,-732.02 204.17,-730.69 205.63,-737.53"/>
</g>
<!-- Node117&#45;&gt;Node118 -->
<g id="edge19" class="edge">
<title>Node117&#45;&gt;Node118</title>
<path fill="none" stroke="midnightblue" d="M203.13,-700.71C177.23,-695.55 149.47,-690.03 126.79,-685.51"/>
<polygon fill="midnightblue" stroke="midnightblue" points="202.46,-704.14 212.95,-702.66 203.83,-697.28 202.46,-704.14"/>
</g>
<!-- Node135 -->
<g id="node32" class="node">
<title>Node135</title>
<g id="a_node32"><a xlink:href="common__tlm__cmd__packet__for__driver__super_8h.html#a7dc0512a0d35141d978018d424de1c38" target="_top" xlink:title="CommonTlmCmdPacket を受信データからコピーして取得する">
<polygon fill="white" stroke="black" points="422,-323.5 422,-342.5 565,-342.5 565,-323.5 422,-323.5"/>
<text text-anchor="middle" x="493.5" y="-330.5" font-family="Helvetica,sans-Serif" font-size="10.00">CTCP_get_ctcp_from_dssc</text>
</a>
</g>
</g>
<!-- Node134&#45;&gt;Node135 -->
<g id="edge36" class="edge">
<title>Node134&#45;&gt;Node135</title>
<path fill="none" stroke="midnightblue" d="M785.57,-317.66C722.17,-321 628.88,-325.92 565.11,-329.28"/>
<polygon fill="midnightblue" stroke="midnightblue" points="786.07,-321.14 795.87,-317.12 785.7,-314.15 786.07,-321.14"/>
</g>
<!-- Node136 -->
<g id="node33" class="node">
<title>Node136</title>
<g id="a_node33"><a xlink:href="common__tlm__cmd__packet_8c.html#a607aefb8beac36566a817d191bb77fae" target="_top" xlink:title="有効なパケットかチェックする">
<polygon fill="white" stroke="black" points="622.5,-285.5 622.5,-304.5 744.5,-304.5 744.5,-285.5 622.5,-285.5"/>
<text text-anchor="middle" x="683.5" y="-292.5" font-family="Helvetica,sans-Serif" font-size="10.00">CTCP_is_valid_packet</text>
</a>
</g>
</g>
<!-- Node134&#45;&gt;Node136 -->
<g id="edge37" class="edge">
<title>Node134&#45;&gt;Node136</title>
<path fill="none" stroke="midnightblue" d="M785.61,-306.27C772.05,-304.76 757.94,-303.18 744.71,-301.71"/>
<polygon fill="midnightblue" stroke="midnightblue" points="785.52,-309.78 795.85,-307.41 786.3,-302.82 785.52,-309.78"/>
</g>
<!-- Node137 -->
<g id="node34" class="node">
<title>Node137</title>
<g id="a_node34"><a xlink:href="common__tlm__cmd__packet__for__driver__super_8h.html#a9dc762f650c863090e34ad515967efc9" target="_top" xlink:title="C2A 間通信など， CTCP をコンポ間通信に用いるときの tx_frame のセット">
<polygon fill="white" stroke="black" points="607,-361.5 607,-380.5 760,-380.5 760,-361.5 607,-361.5"/>
<text text-anchor="middle" x="683.5" y="-368.5" font-family="Helvetica,sans-Serif" font-size="10.00">CTCP_set_tx_frame_to_dssc</text>
</a>
</g>
</g>
<!-- Node134&#45;&gt;Node137 -->
<g id="edge40" class="edge">
<title>Node134&#45;&gt;Node137</title>
<path fill="none" stroke="midnightblue" d="M818.17,-327.05C800.6,-333.21 779.25,-340.6 760,-347 745.25,-351.9 728.81,-357.16 715.05,-361.49"/>
<polygon fill="midnightblue" stroke="midnightblue" points="819.77,-330.2 828.04,-323.58 817.44,-323.59 819.77,-330.2"/>
</g>
<!-- Node136&#45;&gt;Node73 -->
<g id="edge39" class="edge">
<title>Node136&#45;&gt;Node73</title>
<path fill="none" stroke="midnightblue" d="M612.01,-292.86C483.55,-289.69 221.74,-286.82 192,-315 130.43,-373.35 209.05,-628.81 156,-695 150.2,-702.24 142.27,-707.41 133.7,-711.09"/>
<polygon fill="midnightblue" stroke="midnightblue" points="612.06,-296.37 622.15,-293.12 612.24,-289.37 612.06,-296.37"/>
</g>
<!-- Node136&#45;&gt;Node135 -->
<g id="edge38" class="edge">
<title>Node136&#45;&gt;Node135</title>
<path fill="none" stroke="midnightblue" d="M625.06,-306.61C598.33,-312.01 566.91,-318.36 541.6,-323.48"/>
<polygon fill="midnightblue" stroke="midnightblue" points="625.95,-310 635.06,-304.59 624.56,-303.14 625.95,-310"/>
</g>
<!-- Node138 -->
<g id="node35" class="node">
<title>Node138</title>
<g id="a_node35"><a xlink:href="common__tlm__cmd__packet__for__driver__super_8h.html#a002a6f14e2139a1a3daee52eef6263c3" target="_top" xlink:title="C2A 間通信など， CCP をコンポ間通信に用いるときの tx_frame のセット">
<polygon fill="white" stroke="red" points="419.5,-361.5 419.5,-380.5 567.5,-380.5 567.5,-361.5 419.5,-361.5"/>
<text text-anchor="middle" x="493.5" y="-368.5" font-family="Helvetica,sans-Serif" font-size="10.00">CCP_set_tx_frame_to_dssc</text>
</a>
</g>
</g>
<!-- Node137&#45;&gt;Node138 -->
<g id="edge41" class="edge">
<title>Node137&#45;&gt;Node138</title>
<path fill="none" stroke="midnightblue" d="M596.74,-371C586.99,-371 577.12,-371 567.56,-371"/>
<polygon fill="midnightblue" stroke="midnightblue" points="596.85,-374.5 606.85,-371 596.85,-367.5 596.85,-374.5"/>
</g>
<!-- Node142 -->
<g id="node36" class="node">
<title>Node142</title>
<g id="a_node36"><a xlink:href="common__tlm__cmd__packet__for__driver__super_8h.html#ae1aabd87ca51290c19715ee53a0c4cd6" target="_top" xlink:title="C2A 間通信など， CTP をコンポ間通信に用いるときの tx_frame のセット">
<polygon fill="white" stroke="black" points="420,-399.5 420,-418.5 567,-418.5 567,-399.5 420,-399.5"/>
<text text-anchor="middle" x="493.5" y="-406.5" font-family="Helvetica,sans-Serif" font-size="10.00">CTP_set_tx_frame_to_dssc</text>
</a>
</g>
</g>
<!-- Node137&#45;&gt;Node142 -->
<g id="edge42" class="edge">
<title>Node137&#45;&gt;Node142</title>
<path fill="none" stroke="midnightblue" d="M625.06,-382.61C598.33,-388.01 566.91,-394.36 541.6,-399.48"/>
<polygon fill="midnightblue" stroke="midnightblue" points="625.95,-386 635.06,-380.59 624.56,-379.14 625.95,-386"/>
</g>
<!-- Node144 -->
<g id="node38" class="node">
<title>Node144</title>
<g id="a_node38"><a xlink:href="cmd__space__packet_8h.html#a2a6ae24b63276a3107cbd59f153b658e" target="_top" xlink:title="CmdSpacePacket をコピー">
<polygon fill="white" stroke="black" points="633,-247.5 633,-266.5 734,-266.5 734,-247.5 633,-247.5"/>
<text text-anchor="middle" x="683.5" y="-254.5" font-family="Helvetica,sans-Serif" font-size="10.00">CSP_copy_packet</text>
</a>
</g>
</g>
<!-- Node143&#45;&gt;Node144 -->
<g id="edge44" class="edge">
<title>Node143&#45;&gt;Node144</title>
<path fill="none" stroke="midnightblue" d="M798.42,-244.31C777.59,-246.63 754.17,-249.24 734.02,-251.48"/>
<polygon fill="midnightblue" stroke="midnightblue" points="798.86,-247.78 808.41,-243.19 798.08,-240.82 798.86,-247.78"/>
</g>
<!-- Node147 -->
<g id="node40" class="node">
<title>Node147</title>
<g id="a_node40"><a xlink:href="common__tlm__cmd__packet_8c.html#a965276551fd46af0428959d7ad7f5c09" target="_top" xlink:title="CommonTlmCmdPacket をコピー">
<polygon fill="white" stroke="black" points="630,-209.5 630,-228.5 737,-228.5 737,-209.5 630,-209.5"/>
<text text-anchor="middle" x="683.5" y="-216.5" font-family="Helvetica,sans-Serif" font-size="10.00">CTCP_copy_packet</text>
</a>
</g>
</g>
<!-- Node143&#45;&gt;Node147 -->
<g id="edge46" class="edge">
<title>Node143&#45;&gt;Node147</title>
<path fill="none" stroke="midnightblue" d="M798.31,-231.68C778.54,-229.48 756.46,-227.02 737.05,-224.86"/>
<polygon fill="midnightblue" stroke="midnightblue" points="798.08,-235.18 808.41,-232.81 798.86,-228.22 798.08,-235.18"/>
</g>
<!-- Node148 -->
<g id="node41" class="node">
<title>Node148</title>
<g id="a_node41"><a xlink:href="tlm__space__packet_8h.html#aa8365f22b2e6b02fd8d0cc3542215a54" target="_top" xlink:title="TlmSpacePacket をコピー">
<polygon fill="white" stroke="black" points="633,-171.5 633,-190.5 734,-190.5 734,-171.5 633,-171.5"/>
<text text-anchor="middle" x="683.5" y="-178.5" font-family="Helvetica,sans-Serif" font-size="10.00">TSP_copy_packet</text>
</a>
</g>
</g>
<!-- Node143&#45;&gt;Node148 -->
<g id="edge47" class="edge">
<title>Node143&#45;&gt;Node148</title>
<path fill="none" stroke="midnightblue" d="M824.08,-224.41C805.69,-216.64 781.77,-207.06 760,-200 749.33,-196.54 737.64,-193.33 726.72,-190.56"/>
<polygon fill="midnightblue" stroke="midnightblue" points="822.85,-227.69 833.42,-228.4 825.6,-221.25 822.85,-227.69"/>
</g>
<!-- Node145 -->
<g id="node39" class="node">
<title>Node145</title>
<g id="a_node39"><a xlink:href="common__cmd__packet_8c.html#aff399e79c4a5c9d75552b295de0d3365" target="_top" xlink:title="CommonCmdPacket をコピー">
<polygon fill="white" stroke="red" points="442.5,-247.5 442.5,-266.5 544.5,-266.5 544.5,-247.5 442.5,-247.5"/>
<text text-anchor="middle" x="493.5" y="-254.5" font-family="Helvetica,sans-Serif" font-size="10.00">CCP_copy_packet</text>
</a>
</g>
</g>
<!-- Node144&#45;&gt;Node145 -->
<g id="edge45" class="edge">
<title>Node144&#45;&gt;Node145</title>
<path fill="none" stroke="midnightblue" d="M622.48,-257C597.38,-257 568.55,-257 544.62,-257"/>
<polygon fill="midnightblue" stroke="midnightblue" points="622.61,-260.5 632.61,-257 622.61,-253.5 622.61,-260.5"/>
</g>
<!-- Node149 -->
<g id="node42" class="node">
<title>Node149</title>
<g id="a_node42"><a xlink:href="common__tlm__packet_8c.html#aaa62118176a426201ed1baff826e3dd2" target="_top" xlink:title="CommonTlmPacket をコピー">
<polygon fill="white" stroke="red" points="443,-190.5 443,-209.5 544,-209.5 544,-190.5 443,-190.5"/>
<text text-anchor="middle" x="493.5" y="-197.5" font-family="Helvetica,sans-Serif" font-size="10.00">CTP_copy_packet</text>
</a>
</g>
</g>
<!-- Node148&#45;&gt;Node149 -->
<g id="edge48" class="edge">
<title>Node148&#45;&gt;Node149</title>
<path fill="none" stroke="midnightblue" d="M622.43,-187.07C597.24,-189.62 568.28,-192.54 544.29,-194.97"/>
<polygon fill="midnightblue" stroke="midnightblue" points="623.02,-190.53 632.61,-186.04 622.31,-183.57 623.02,-190.53"/>
</g>
<!-- Node159 -->
<g id="node44" class="node">
<title>Node159</title>
<g id="a_node44"><a xlink:href="common__tlm__packet_8c.html#ab9f04fbc9871d8fe2639cd46679e33c9" target="_top" xlink:title="パケット長を取得">
<polygon fill="white" stroke="black" points="626.5,-114.5 626.5,-133.5 740.5,-133.5 740.5,-114.5 626.5,-114.5"/>
<text text-anchor="middle" x="683.5" y="-121.5" font-family="Helvetica,sans-Serif" font-size="10.00">CTP_get_packet_len</text>
</a>
</g>
</g>
<!-- Node158&#45;&gt;Node159 -->
<g id="edge50" class="edge">
<title>Node158&#45;&gt;Node159</title>
<path fill="none" stroke="midnightblue" d="M788.88,-124C772.98,-124 756.15,-124 740.75,-124"/>
<polygon fill="midnightblue" stroke="midnightblue" points="789.17,-127.5 799.17,-124 789.17,-120.5 789.17,-127.5"/>
</g>
<!-- Node170 -->
<g id="node48" class="node">
<title>Node170</title>
<g id="a_node48"><a xlink:href="tcp__to__m__pdu_8h.html#a973ccd708198a0d237a3cbb96cb8b078" target="_top" xlink:title="TCPacket を M_PDU に変換する">
<polygon fill="white" stroke="black" points="631.5,-38.5 631.5,-57.5 735.5,-57.5 735.5,-38.5 631.5,-38.5"/>
<text text-anchor="middle" x="683.5" y="-45.5" font-family="Helvetica,sans-Serif" font-size="10.00">T2M_form_m_pdu</text>
</a>
</g>
</g>
<!-- Node158&#45;&gt;Node170 -->
<g id="edge55" class="edge">
<title>Node158&#45;&gt;Node170</title>
<path fill="none" stroke="midnightblue" d="M823.9,-110.14C789.71,-94.9 735.67,-70.81 705.92,-57.55"/>
<polygon fill="midnightblue" stroke="midnightblue" points="822.85,-113.5 833.41,-114.37 825.7,-107.11 822.85,-113.5"/>
</g>
<!-- Node160 -->
<g id="node45" class="node">
<title>Node160</title>
<g id="a_node45"><a xlink:href="aobc__telemetry__buffer_8h.html#a37b81adac738069788e1ede005ee5eb5" target="_top" xlink:title=" ">
<polygon fill="white" stroke="red" points="422,-152.5 422,-171.5 565,-171.5 565,-152.5 422,-152.5"/>
<text text-anchor="middle" x="493.5" y="-159.5" font-family="Helvetica,sans-Serif" font-size="10.00">AOBC_pick_up_tlm_buffer</text>
</a>
</g>
</g>
<!-- Node159&#45;&gt;Node160 -->
<g id="edge51" class="edge">
<title>Node159&#45;&gt;Node160</title>
<path fill="none" stroke="midnightblue" d="M625.06,-135.61C598.33,-141.01 566.91,-147.36 541.6,-152.48"/>
<polygon fill="midnightblue" stroke="midnightblue" points="625.95,-139 635.06,-133.59 624.56,-132.14 625.95,-139"/>
</g>
<!-- Node166 -->
<g id="node46" class="node">
<title>Node166</title>
<g id="a_node46"><a xlink:href="common__tlm__cmd__packet__for__driver__super_8h.html#ac33606cb83f003e3c3134702e73bf711" target="_top" xlink:title="CommonTlmPacket を受信データからコピーして取得する">
<polygon fill="white" stroke="red" points="220,-95.5 220,-114.5 352,-114.5 352,-95.5 220,-95.5"/>
<text text-anchor="middle" x="286" y="-102.5" font-family="Helvetica,sans-Serif" font-size="10.00">CTP_get_ctp_from_dssc</text>
</a>
</g>
</g>
<!-- Node159&#45;&gt;Node166 -->
<g id="edge52" class="edge">
<title>Node159&#45;&gt;Node166</title>
<path fill="none" stroke="midnightblue" d="M626.94,-112.64C609.15,-109.51 589.32,-106.55 571,-105 496.2,-98.67 409.92,-99.87 352.27,-101.88"/>
<polygon fill="midnightblue" stroke="midnightblue" points="626.69,-116.15 637.15,-114.49 627.94,-109.26 626.69,-116.15"/>
</g>
<!-- Node167 -->
<g id="node47" class="node">
<title>Node167</title>
<g id="a_node47"><a xlink:href="common__tlm__packet_8c.html#a285c1dc53d72a80747d8827c38d7aea4" target="_top" xlink:title="有効なパケットかチェックする">
<polygon fill="white" stroke="red" points="435.5,-114.5 435.5,-133.5 551.5,-133.5 551.5,-114.5 435.5,-114.5"/>
<text text-anchor="middle" x="493.5" y="-121.5" font-family="Helvetica,sans-Serif" font-size="10.00">CTP_is_valid_packet</text>
</a>
</g>
</g>
<!-- Node159&#45;&gt;Node167 -->
<g id="edge53" class="edge">
<title>Node159&#45;&gt;Node167</title>
<path fill="none" stroke="midnightblue" d="M616.19,-124C595.13,-124 572.03,-124 551.66,-124"/>
<polygon fill="midnightblue" stroke="midnightblue" points="616.35,-127.5 626.35,-124 616.35,-120.5 616.35,-127.5"/>
</g>
<!-- Node167&#45;&gt;Node166 -->
<g id="edge54" class="edge">
<title>Node167&#45;&gt;Node166</title>
<path fill="none" stroke="midnightblue" d="M425.07,-117.77C401.67,-115.6 375.49,-113.18 352.27,-111.03"/>
<polygon fill="midnightblue" stroke="midnightblue" points="424.98,-121.27 435.26,-118.71 425.62,-114.3 424.98,-121.27"/>
</g>
<!-- Node171 -->
<g id="node49" class="node">
<title>Node171</title>
<g id="a_node49"><a xlink:href="di__gs_8c.html#ab60fae9ad2c806b6ba10cb8a076d07c0" target="_top" xlink:title=" ">
<polygon fill="white" stroke="red" points="416,-0.5 416,-19.5 571,-19.5 571,-0.5 416,-0.5"/>
<text text-anchor="middle" x="493.5" y="-7.5" font-family="Helvetica,sans-Serif" font-size="10.00">DI_GS_mst_packet_handler_</text>
</a>
</g>
</g>
<!-- Node170&#45;&gt;Node171 -->
<g id="edge56" class="edge">
<title>Node170&#45;&gt;Node171</title>
<path fill="none" stroke="midnightblue" d="M625.06,-36.39C598.33,-30.99 566.91,-24.64 541.6,-19.52"/>
<polygon fill="midnightblue" stroke="midnightblue" points="624.56,-39.86 635.06,-38.41 625.95,-33 624.56,-39.86"/>
</g>
<!-- Node173 -->
<g id="node50" class="node">
<title>Node173</title>
<g id="a_node50"><a xlink:href="di__gs_8c.html#ab2b3fada377f7de06881f4654946baeb" target="_top" xlink:title=" ">
<polygon fill="white" stroke="red" points="419,-38.5 419,-57.5 568,-57.5 568,-38.5 419,-38.5"/>
<text text-anchor="middle" x="493.5" y="-45.5" font-family="Helvetica,sans-Serif" font-size="10.00">DI_GS_rpt_packet_handler_</text>
</a>
</g>
</g>
<!-- Node170&#45;&gt;Node173 -->
<g id="edge57" class="edge">
<title>Node170&#45;&gt;Node173</title>
<path fill="none" stroke="midnightblue" d="M620.84,-48C603.96,-48 585.49,-48 568.01,-48"/>
<polygon fill="midnightblue" stroke="midnightblue" points="621.13,-51.5 631.13,-48 621.13,-44.5 621.13,-51.5"/>
</g>
</g>
</svg>
