<?xml version="1.0" encoding="UTF-8" standalone="no"?>
<!DOCTYPE svg PUBLIC "-//W3C//DTD SVG 1.1//EN"
 "http://www.w3.org/Graphics/SVG/1.1/DTD/svg11.dtd">
<!-- Generated by graphviz version 2.43.0 (0)
 -->
<!-- Title: SP_set_apid Pages: 1 -->
<svg width="1771pt" height="869pt"
 viewBox="0.00 0.00 1771.00 868.50" xmlns="http://www.w3.org/2000/svg" xmlns:xlink="http://www.w3.org/1999/xlink">
<g id="graph0" class="graph" transform="scale(1 1) rotate(0) translate(4 864.5)">
<title>SP_set_apid</title>
<polygon fill="white" stroke="transparent" points="-4,4 -4,-864.5 1767,-864.5 1767,4 -4,4"/>
<!-- Node1 -->
<g id="node1" class="node">
<title>Node1</title>
<g id="a_node1"><a xlink:title="APID を設定">
<polygon fill="#bfbfbf" stroke="black" points="1688,-455 1688,-474 1763,-474 1763,-455 1688,-455"/>
<text text-anchor="middle" x="1725.5" y="-462" font-family="Helvetica,sans-Serif" font-size="10.00">SP_set_apid</text>
</a>
</g>
</g>
<!-- Node2 -->
<g id="node2" class="node">
<title>Node2</title>
<g id="a_node2"><a xlink:href="cmd__space__packet_8c.html#ae4cd4ddfdcc558b8c205240147b6f4af" target="_top" xlink:title="APID を設定">
<polygon fill="white" stroke="black" points="1567,-708 1567,-727 1649,-727 1649,-708 1567,-708"/>
<text text-anchor="middle" x="1608" y="-715" font-family="Helvetica,sans-Serif" font-size="10.00">CSP_set_apid</text>
</a>
</g>
</g>
<!-- Node1&#45;&gt;Node2 -->
<g id="edge1" class="edge">
<title>Node1&#45;&gt;Node2</title>
<path fill="none" stroke="midnightblue" d="M1715.96,-483.21C1692.99,-533.51 1630.52,-670.37 1613.39,-707.88"/>
<polygon fill="midnightblue" stroke="midnightblue" points="1719.14,-484.66 1720.11,-474.11 1712.78,-481.75 1719.14,-484.66"/>
</g>
<!-- Node101 -->
<g id="node37" class="node">
<title>Node101</title>
<g id="a_node37"><a xlink:href="common__tlm__cmd__packet_8h.html#aca86275d7e62e0580a4e688cddafa4fd" target="_top" xlink:title="APID を設定">
<polygon fill="white" stroke="black" points="1564,-417 1564,-436 1652,-436 1652,-417 1564,-417"/>
<text text-anchor="middle" x="1608" y="-424" font-family="Helvetica,sans-Serif" font-size="10.00">CTCP_set_apid</text>
</a>
</g>
</g>
<!-- Node1&#45;&gt;Node101 -->
<g id="edge45" class="edge">
<title>Node1&#45;&gt;Node101</title>
<path fill="none" stroke="midnightblue" d="M1685.52,-451.67C1670.02,-446.58 1652.5,-440.81 1638.14,-436.09"/>
<polygon fill="midnightblue" stroke="midnightblue" points="1684.76,-455.11 1695.35,-454.91 1686.95,-448.46 1684.76,-455.11"/>
</g>
<!-- Node102 -->
<g id="node38" class="node">
<title>Node102</title>
<g id="a_node38"><a xlink:href="tlm__space__packet_8c.html#a79a7575999ff965ea1c95125e6b017fa" target="_top" xlink:title="APID を設定">
<polygon fill="white" stroke="black" points="1000,-211 1000,-230 1081,-230 1081,-211 1000,-211"/>
<text text-anchor="middle" x="1040.5" y="-218" font-family="Helvetica,sans-Serif" font-size="10.00">TSP_set_apid</text>
</a>
</g>
</g>
<!-- Node1&#45;&gt;Node102 -->
<g id="edge46" class="edge">
<title>Node1&#45;&gt;Node102</title>
<path fill="none" stroke="midnightblue" d="M1677.57,-464.5C1625.86,-464.5 1540.25,-464.5 1466.5,-464.5 1466.5,-464.5 1466.5,-464.5 1303.5,-464.5 1163.34,-464.5 1066.81,-275.18 1045.8,-230.07"/>
<polygon fill="midnightblue" stroke="midnightblue" points="1677.76,-468 1687.76,-464.5 1677.76,-461 1677.76,-468"/>
</g>
<!-- Node3 -->
<g id="node3" class="node">
<title>Node3</title>
<g id="a_node3"><a xlink:href="common__cmd__packet_8h.html#a168cb9ebdc527ea78de7c78016b9692e" target="_top" xlink:title="APID を設定">
<polygon fill="white" stroke="black" points="854.5,-841 854.5,-860 937.5,-860 937.5,-841 854.5,-841"/>
<text text-anchor="middle" x="896" y="-848" font-family="Helvetica,sans-Serif" font-size="10.00">CCP_set_apid</text>
</a>
</g>
</g>
<!-- Node2&#45;&gt;Node3 -->
<g id="edge2" class="edge">
<title>Node2&#45;&gt;Node3</title>
<path fill="none" stroke="midnightblue" d="M1587.18,-733.26C1540.83,-768.47 1420.52,-850.5 1305.5,-850.5 1305.5,-850.5 1305.5,-850.5 1161,-850.5 1081.94,-850.5 989.56,-850.5 937.7,-850.5"/>
<polygon fill="midnightblue" stroke="midnightblue" points="1589.43,-735.95 1595.2,-727.07 1585.15,-730.41 1589.43,-735.95"/>
</g>
<!-- Node15 -->
<g id="node10" class="node">
<title>Node15</title>
<g id="a_node10"><a xlink:href="cmd__space__packet_8c.html#aa4f250d0b768ce918101f7959940b9da" target="_top" xlink:title="共通部分の Header を構築">
<polygon fill="white" stroke="black" points="1403,-708 1403,-727 1528,-727 1528,-708 1403,-708"/>
<text text-anchor="middle" x="1465.5" y="-715" font-family="Helvetica,sans-Serif" font-size="10.00">CSP_set_common_hdr</text>
</a>
</g>
</g>
<!-- Node2&#45;&gt;Node15 -->
<g id="edge9" class="edge">
<title>Node2&#45;&gt;Node15</title>
<path fill="none" stroke="midnightblue" d="M1556.61,-717.5C1547.42,-717.5 1537.73,-717.5 1528.26,-717.5"/>
<polygon fill="midnightblue" stroke="midnightblue" points="1556.74,-721 1566.74,-717.5 1556.74,-714 1556.74,-721"/>
</g>
<!-- Node4 -->
<g id="node4" class="node">
<title>Node4</title>
<g id="a_node4"><a xlink:href="common__cmd__packet__util_8c.html#ae26f24dfab34570ccf41d11ab846c2aa" target="_top" xlink:title="他の OBC のコマンドを RT として生成">
<polygon fill="white" stroke="black" points="637,-808 637,-827 788,-827 788,-808 637,-808"/>
<text text-anchor="middle" x="712.5" y="-815" font-family="Helvetica,sans-Serif" font-size="10.00">CCP_form_rtc_to_other_obc</text>
</a>
</g>
</g>
<!-- Node3&#45;&gt;Node4 -->
<g id="edge3" class="edge">
<title>Node3&#45;&gt;Node4</title>
<path fill="none" stroke="midnightblue" d="M844.12,-841.25C819.69,-836.81 790.45,-831.49 765.83,-827.01"/>
<polygon fill="midnightblue" stroke="midnightblue" points="843.8,-844.75 854.27,-843.09 845.06,-837.86 843.8,-844.75"/>
</g>
<!-- Node6 -->
<g id="node6" class="node">
<title>Node6</title>
<g id="a_node6"><a xlink:href="common__cmd__packet__util_8c.html#a642139ab97c05af79d26b93a2a57f147" target="_top" xlink:title="他の OBC のコマンドを TL として生成">
<polygon fill="white" stroke="black" points="637.5,-765 637.5,-784 787.5,-784 787.5,-765 637.5,-765"/>
<text text-anchor="middle" x="712.5" y="-772" font-family="Helvetica,sans-Serif" font-size="10.00">CCP_form_tlc_to_other_obc</text>
</a>
</g>
</g>
<!-- Node3&#45;&gt;Node6 -->
<g id="edge5" class="edge">
<title>Node3&#45;&gt;Node6</title>
<path fill="none" stroke="midnightblue" d="M869.56,-835.92C849.27,-824.7 819.91,-809.32 793,-798.5 779.22,-792.96 763.66,-787.99 749.98,-784.03"/>
<polygon fill="midnightblue" stroke="midnightblue" points="868.03,-839.08 878.46,-840.91 871.45,-832.97 868.03,-839.08"/>
</g>
<!-- Node5 -->
<g id="node5" class="node">
<title>Node5</title>
<g id="a_node5"><a xlink:href="common__cmd__packet__util_8c.html#abc96a827a712bd57b3fbd1b37d261682" target="_top" xlink:title="他の OBC のコマンドを RT として生成し，即時実行する">
<polygon fill="white" stroke="black" points="443,-808.5 443,-838.5 577,-838.5 577,-808.5 443,-808.5"/>
<text text-anchor="start" x="451" y="-826.5" font-family="Helvetica,sans-Serif" font-size="10.00">CCP_form_and_exec_rtc</text>
<text text-anchor="middle" x="510" y="-815.5" font-family="Helvetica,sans-Serif" font-size="10.00">_to_other_obc</text>
</a>
</g>
</g>
<!-- Node4&#45;&gt;Node5 -->
<g id="edge4" class="edge">
<title>Node4&#45;&gt;Node5</title>
<path fill="none" stroke="midnightblue" d="M626.63,-820.04C610.08,-820.53 592.97,-821.05 577.14,-821.52"/>
<polygon fill="midnightblue" stroke="midnightblue" points="626.95,-823.53 636.84,-819.73 626.74,-816.53 626.95,-823.53"/>
</g>
<!-- Node7 -->
<g id="node7" class="node">
<title>Node7</title>
<g id="a_node7"><a xlink:href="block__command__loader_8c.html#a1929d935564a29842e850ff7a352f81b" target="_top" xlink:title=" ">
<polygon fill="white" stroke="black" points="450.5,-759.5 450.5,-789.5 569.5,-789.5 569.5,-759.5 450.5,-759.5"/>
<text text-anchor="start" x="458.5" y="-777.5" font-family="Helvetica,sans-Serif" font-size="10.00">BCL_register_cmd_to</text>
<text text-anchor="middle" x="510" y="-766.5" font-family="Helvetica,sans-Serif" font-size="10.00">_other_obc_</text>
</a>
</g>
</g>
<!-- Node6&#45;&gt;Node7 -->
<g id="edge6" class="edge">
<title>Node6&#45;&gt;Node7</title>
<path fill="none" stroke="midnightblue" d="M627.37,-774.5C607.99,-774.5 587.79,-774.5 569.76,-774.5"/>
<polygon fill="midnightblue" stroke="midnightblue" points="627.41,-778 637.41,-774.5 627.41,-771 627.41,-778"/>
</g>
<!-- Node8 -->
<g id="node8" class="node">
<title>Node8</title>
<g id="a_node8"><a xlink:href="block__command__loader_8c.html#a30907a8161e23fe4d6105ccb21666dcb" target="_top" xlink:title="ブロックコマンドの最後に他の OBC のコマンドを追加する">
<polygon fill="white" stroke="black" points="260,-759.5 260,-789.5 388,-789.5 388,-759.5 260,-759.5"/>
<text text-anchor="start" x="268" y="-777.5" font-family="Helvetica,sans-Serif" font-size="10.00">BCL_tool_register_cmd</text>
<text text-anchor="middle" x="324" y="-766.5" font-family="Helvetica,sans-Serif" font-size="10.00">_to_other_obc</text>
</a>
</g>
</g>
<!-- Node7&#45;&gt;Node8 -->
<g id="edge7" class="edge">
<title>Node7&#45;&gt;Node8</title>
<path fill="none" stroke="midnightblue" d="M439.89,-774.5C422.95,-774.5 404.9,-774.5 388.25,-774.5"/>
<polygon fill="midnightblue" stroke="midnightblue" points="440.28,-778 450.28,-774.5 440.28,-771 440.28,-778"/>
</g>
<!-- Node9 -->
<g id="node9" class="node">
<title>Node9</title>
<g id="a_node9"><a xlink:href="nbc__header_8h.html#aacbd7fc1d4d5ab306e6dc7c0f3e22ece" target="_top" xlink:title=" ">
<polygon fill="white" stroke="red" points="119,-765 119,-784 224,-784 224,-765 119,-765"/>
<text text-anchor="middle" x="171.5" y="-772" font-family="Helvetica,sans-Serif" font-size="10.00">BCL_load_test_bcl</text>
</a>
</g>
</g>
<!-- Node8&#45;&gt;Node9 -->
<g id="edge8" class="edge">
<title>Node8&#45;&gt;Node9</title>
<path fill="none" stroke="midnightblue" d="M249.37,-774.5C240.94,-774.5 232.48,-774.5 224.42,-774.5"/>
<polygon fill="midnightblue" stroke="midnightblue" points="249.61,-778 259.61,-774.5 249.61,-771 249.61,-778"/>
</g>
<!-- Node16 -->
<g id="node11" class="node">
<title>Node16</title>
<g id="a_node11"><a xlink:href="common__cmd__packet_8h.html#a53e55e3275bb17840514876c95203402" target="_top" xlink:title="共通部分の Header を構築">
<polygon fill="white" stroke="black" points="1242,-708 1242,-727 1367,-727 1367,-708 1242,-708"/>
<text text-anchor="middle" x="1304.5" y="-715" font-family="Helvetica,sans-Serif" font-size="10.00">CCP_set_common_hdr</text>
</a>
</g>
</g>
<!-- Node15&#45;&gt;Node16 -->
<g id="edge10" class="edge">
<title>Node15&#45;&gt;Node16</title>
<path fill="none" stroke="midnightblue" d="M1392.41,-717.5C1384.01,-717.5 1375.5,-717.5 1367.26,-717.5"/>
<polygon fill="midnightblue" stroke="midnightblue" points="1392.57,-721 1402.57,-717.5 1392.57,-714 1392.57,-721"/>
</g>
<!-- Node17 -->
<g id="node12" class="node">
<title>Node17</title>
<g id="a_node12"><a xlink:href="common__cmd__packet__util_8c.html#a58160242c4b87906597c90a3465c9596" target="_top" xlink:title="RealTime Command を生成する. CCP_form_* の実体.">
<polygon fill="white" stroke="black" points="1118,-708 1118,-727 1206,-727 1206,-708 1118,-708"/>
<text text-anchor="middle" x="1162" y="-715" font-family="Helvetica,sans-Serif" font-size="10.00">CCP_form_rtc_</text>
</a>
</g>
</g>
<!-- Node16&#45;&gt;Node17 -->
<g id="edge11" class="edge">
<title>Node16&#45;&gt;Node17</title>
<path fill="none" stroke="midnightblue" d="M1231.62,-717.5C1222.87,-717.5 1214.16,-717.5 1206.02,-717.5"/>
<polygon fill="midnightblue" stroke="midnightblue" points="1231.87,-721 1241.87,-717.5 1231.87,-714 1231.87,-721"/>
</g>
<!-- Node17&#45;&gt;Node4 -->
<g id="edge42" class="edge">
<title>Node17&#45;&gt;Node4</title>
<path fill="none" stroke="midnightblue" d="M1135.41,-732.08C1120.31,-740.11 1100.56,-749.6 1082,-755.5 982.92,-786.97 863.48,-803.33 788.01,-811.17"/>
<polygon fill="midnightblue" stroke="midnightblue" points="1137.5,-734.93 1144.61,-727.08 1134.16,-728.78 1137.5,-734.93"/>
</g>
<!-- Node17&#45;&gt;Node6 -->
<g id="edge44" class="edge">
<title>Node17&#45;&gt;Node6</title>
<path fill="none" stroke="midnightblue" d="M1108.74,-729.21C1068.98,-737.71 1012.79,-748.85 963,-755.5 904.33,-763.34 837.44,-768.21 787.69,-771.06"/>
<polygon fill="midnightblue" stroke="midnightblue" points="1109.7,-732.58 1118.74,-727.06 1108.23,-725.74 1109.7,-732.58"/>
</g>
<!-- Node18 -->
<g id="node13" class="node">
<title>Node18</title>
<g id="a_node13"><a xlink:href="common__cmd__packet__util_8c.html#af9f77cfe0b19d8078e79f1c32d9b2843" target="_top" xlink:title="Realtime command を生成">
<polygon fill="white" stroke="black" points="999,-670 999,-689 1082,-689 1082,-670 999,-670"/>
<text text-anchor="middle" x="1040.5" y="-677" font-family="Helvetica,sans-Serif" font-size="10.00">CCP_form_rtc</text>
</a>
</g>
</g>
<!-- Node17&#45;&gt;Node18 -->
<g id="edge12" class="edge">
<title>Node17&#45;&gt;Node18</title>
<path fill="none" stroke="midnightblue" d="M1121.12,-704.82C1104.98,-699.69 1086.65,-693.86 1071.65,-689.09"/>
<polygon fill="midnightblue" stroke="midnightblue" points="1120.25,-708.22 1130.85,-707.91 1122.38,-701.55 1120.25,-708.22"/>
</g>
<!-- Node46 -->
<g id="node17" class="node">
<title>Node46</title>
<g id="a_node17"><a xlink:href="common__cmd__packet__util_8c.html#a3695599b4d05dbb0b510c73dab7cd233" target="_top" xlink:title="Timeline command を生成">
<polygon fill="white" stroke="black" points="671.5,-515 671.5,-534 753.5,-534 753.5,-515 671.5,-515"/>
<text text-anchor="middle" x="712.5" y="-522" font-family="Helvetica,sans-Serif" font-size="10.00">CCP_form_tlc</text>
</a>
</g>
</g>
<!-- Node17&#45;&gt;Node46 -->
<g id="edge43" class="edge">
<title>Node17&#45;&gt;Node46</title>
<path fill="none" stroke="midnightblue" d="M1149.37,-699.36C1122.41,-659.22 1051.17,-563.58 963,-527.5 893.84,-499.2 804.6,-507.68 753.74,-516.22"/>
<polygon fill="midnightblue" stroke="midnightblue" points="1146.56,-701.46 1154.98,-707.89 1152.41,-697.61 1146.56,-701.46"/>
</g>
<!-- Node19 -->
<g id="node14" class="node">
<title>Node19</title>
<g id="a_node14"><a xlink:href="common__cmd__packet__util_8c.html#a6647f2fbe6dabb44871bd9216c315a46" target="_top" xlink:title="Realtime command を生成し，即時実行する">
<polygon fill="white" stroke="red" points="829,-651 829,-670 963,-670 963,-651 829,-651"/>
<text text-anchor="middle" x="896" y="-658" font-family="Helvetica,sans-Serif" font-size="10.00">CCP_form_and_exec_rtc</text>
</a>
</g>
</g>
<!-- Node18&#45;&gt;Node19 -->
<g id="edge13" class="edge">
<title>Node18&#45;&gt;Node19</title>
<path fill="none" stroke="midnightblue" d="M988.49,-672.7C980.27,-671.6 971.65,-670.45 963.13,-669.32"/>
<polygon fill="midnightblue" stroke="midnightblue" points="988.29,-676.2 998.67,-674.06 989.22,-669.26 988.29,-676.2"/>
</g>
<!-- Node28 -->
<g id="node15" class="node">
<title>Node28</title>
<g id="a_node15"><a xlink:href="common__cmd__packet__util_8c.html#ac4a5c5fca95eda07227b4da1883612fc" target="_top" xlink:title="BC展開 Realtime command を生成">
<polygon fill="white" stroke="red" points="632,-708 632,-727 793,-727 793,-708 632,-708"/>
<text text-anchor="middle" x="712.5" y="-715" font-family="Helvetica,sans-Serif" font-size="10.00">CCP_form_block_deploy_cmd</text>
</a>
</g>
</g>
<!-- Node18&#45;&gt;Node28 -->
<g id="edge14" class="edge">
<title>Node18&#45;&gt;Node28</title>
<path fill="none" stroke="midnightblue" d="M988.82,-685.41C936.5,-691.51 854.13,-701.11 793.1,-708.22"/>
<polygon fill="midnightblue" stroke="midnightblue" points="989.34,-688.87 998.87,-684.24 988.53,-681.92 989.34,-688.87"/>
</g>
<!-- Node45 -->
<g id="node16" class="node">
<title>Node45</title>
<g id="a_node16"><a xlink:href="common__cmd__packet__util_8c.html#a01b352632ca605771f0cfd66a2a149ba" target="_top" xlink:title="NOP cmd の RTC CCP を作る">
<polygon fill="white" stroke="black" points="840.5,-727 840.5,-746 951.5,-746 951.5,-727 840.5,-727"/>
<text text-anchor="middle" x="896" y="-734" font-family="Helvetica,sans-Serif" font-size="10.00">CCP_form_nop_rtc_</text>
</a>
</g>
</g>
<!-- Node18&#45;&gt;Node45 -->
<g id="edge15" class="edge">
<title>Node18&#45;&gt;Node45</title>
<path fill="none" stroke="midnightblue" d="M989.43,-692.74C980.66,-696.33 971.59,-700.09 963,-703.5 943.28,-711.33 919.88,-719.6 906.91,-726.93"/>
<polygon fill="midnightblue" stroke="midnightblue" points="990.84,-695.94 998.79,-688.94 988.21,-689.45 990.84,-695.94"/>
</g>
<!-- Node98 -->
<g id="node34" class="node">
<title>Node98</title>
<g id="a_node34"><a xlink:href="common__cmd__packet__util_8c.html#aedfb69bc9ff98498734df05026c5a3f2" target="_top" xlink:title="Realtime command を登録">
<polygon fill="white" stroke="black" points="847.5,-613 847.5,-632 944.5,-632 944.5,-613 847.5,-613"/>
<text text-anchor="middle" x="896" y="-620" font-family="Helvetica,sans-Serif" font-size="10.00">CCP_register_rtc</text>
</a>
</g>
</g>
<!-- Node18&#45;&gt;Node98 -->
<g id="edge39" class="edge">
<title>Node18&#45;&gt;Node98</title>
<path fill="none" stroke="midnightblue" d="M1013.66,-665.2C999.07,-657.51 980.35,-648.24 963,-641.5 954,-638 944.08,-634.81 934.74,-632.09"/>
<polygon fill="midnightblue" stroke="midnightblue" points="1012.12,-668.35 1022.58,-669.99 1015.42,-662.18 1012.12,-668.35"/>
</g>
<!-- Node99 -->
<g id="node35" class="node">
<title>Node99</title>
<g id="a_node35"><a xlink:href="divided__cmd__utility_8c.html#a65ad0b8aa0af1c9c0bdd74aa37b15b15" target="_top" xlink:title="次の分割の実行を登録">
<polygon fill="white" stroke="red" points="842,-575 842,-594 950,-594 950,-575 842,-575"/>
<text text-anchor="middle" x="896" y="-582" font-family="Helvetica,sans-Serif" font-size="10.00">DCU_register_next</text>
</a>
</g>
</g>
<!-- Node18&#45;&gt;Node99 -->
<g id="edge40" class="edge">
<title>Node18&#45;&gt;Node99</title>
<path fill="none" stroke="midnightblue" d="M1025.99,-661.61C1012.03,-644.32 988.7,-618.6 963,-603.5 956.42,-599.63 949.01,-596.51 941.58,-594.01"/>
<polygon fill="midnightblue" stroke="midnightblue" points="1023.48,-664.07 1032.4,-669.78 1028.98,-659.75 1023.48,-664.07"/>
</g>
<!-- Node100 -->
<g id="node36" class="node">
<title>Node100</title>
<g id="a_node36"><a xlink:href="sequence__items_8c.html#aa4a6c84c11e36c033cf8100c04458ee9" target="_top" xlink:title=" ">
<polygon fill="white" stroke="black" points="841.5,-537 841.5,-556 950.5,-556 950.5,-537 841.5,-537"/>
<text text-anchor="middle" x="896" y="-544" font-family="Helvetica,sans-Serif" font-size="10.00">SI_finish_transition</text>
</a>
</g>
</g>
<!-- Node18&#45;&gt;Node100 -->
<g id="edge41" class="edge">
<title>Node18&#45;&gt;Node100</title>
<path fill="none" stroke="midnightblue" d="M1031.81,-660.59C1020.52,-635.16 997.02,-590.31 963,-565.5 957.7,-561.64 951.63,-558.56 945.37,-556.1"/>
<polygon fill="midnightblue" stroke="midnightblue" points="1028.64,-662.06 1035.78,-669.88 1035.08,-659.31 1028.64,-662.06"/>
</g>
<!-- Node45&#45;&gt;Node4 -->
<g id="edge18" class="edge">
<title>Node45&#45;&gt;Node4</title>
<path fill="none" stroke="midnightblue" d="M871.78,-751.39C851.57,-763.88 821.18,-781.54 793,-793.5 779.73,-799.13 764.69,-804.03 751.3,-807.9"/>
<polygon fill="midnightblue" stroke="midnightblue" points="873.69,-754.33 880.31,-746.05 869.98,-748.39 873.69,-754.33"/>
</g>
<!-- Node45&#45;&gt;Node6 -->
<g id="edge38" class="edge">
<title>Node45&#45;&gt;Node6</title>
<path fill="none" stroke="midnightblue" d="M839.21,-748.18C813.47,-753.57 783.3,-759.89 758.97,-764.98"/>
<polygon fill="midnightblue" stroke="midnightblue" points="840.13,-751.56 849.2,-746.09 838.69,-744.71 840.13,-751.56"/>
</g>
<!-- Node45&#45;&gt;Node18 -->
<g id="edge17" class="edge">
<title>Node45&#45;&gt;Node18</title>
<path fill="none" stroke="midnightblue" d="M958.7,-723.19C960.15,-722.63 961.58,-722.06 963,-721.5 987.74,-711.68 1016.43,-698.93 1030.62,-689.19"/>
<polygon fill="midnightblue" stroke="midnightblue" points="957.09,-720.06 948.99,-726.88 959.58,-726.6 957.09,-720.06"/>
</g>
<!-- Node45&#45;&gt;Node28 -->
<g id="edge16" class="edge">
<title>Node45&#45;&gt;Node28</title>
<path fill="none" stroke="midnightblue" d="M829.77,-729.67C817.86,-728.42 805.31,-727.11 793.04,-725.83"/>
<polygon fill="midnightblue" stroke="midnightblue" points="829.74,-733.19 840.05,-730.75 830.47,-726.23 829.74,-733.19"/>
</g>
<!-- Node45&#45;&gt;Node46 -->
<g id="edge19" class="edge">
<title>Node45&#45;&gt;Node46</title>
<path fill="none" stroke="midnightblue" d="M874.14,-720.45C860.61,-709.57 842.96,-694.5 829,-679.5 781.91,-628.89 735.82,-559.36 719.61,-534.14"/>
<polygon fill="midnightblue" stroke="midnightblue" points="872.35,-723.49 882.36,-726.95 876.69,-718 872.35,-723.49"/>
</g>
<!-- Node47 -->
<g id="node18" class="node">
<title>Node47</title>
<g id="a_node18"><a xlink:href="block__command__loader_8c.html#a34da4d8efe30b2f1872103496dfcf8cb" target="_top" xlink:title=" ">
<polygon fill="white" stroke="red" points="455,-721 455,-740 565,-740 565,-721 455,-721"/>
<text text-anchor="middle" x="510" y="-728" font-family="Helvetica,sans-Serif" font-size="10.00">BCL_register_cmd_</text>
</a>
</g>
</g>
<!-- Node46&#45;&gt;Node47 -->
<g id="edge20" class="edge">
<title>Node46&#45;&gt;Node47</title>
<path fill="none" stroke="midnightblue" d="M705.23,-544.08C691.82,-582.63 656.55,-668.39 596,-711.5 587.01,-717.9 576.23,-722.2 565.42,-725.07"/>
<polygon fill="midnightblue" stroke="midnightblue" points="708.71,-544.72 708.57,-534.12 702.07,-542.49 708.71,-544.72"/>
</g>
<!-- Node67 -->
<g id="node19" class="node">
<title>Node67</title>
<g id="a_node19"><a xlink:href="common__cmd__packet__util_8c.html#a7e4a83a103dfa316c08b1570d93df0d1" target="_top" xlink:title="App 実行 TL コマンドを生成">
<polygon fill="white" stroke="red" points="453,-683 453,-702 567,-702 567,-683 453,-683"/>
<text text-anchor="middle" x="510" y="-690" font-family="Helvetica,sans-Serif" font-size="10.00">CCP_form_app_cmd</text>
</a>
</g>
</g>
<!-- Node46&#45;&gt;Node67 -->
<g id="edge21" class="edge">
<title>Node46&#45;&gt;Node67</title>
<path fill="none" stroke="midnightblue" d="M702.53,-543.17C686.13,-575.22 648.11,-640.42 596,-673.5 587.32,-679.01 577.25,-682.93 567.15,-685.73"/>
<polygon fill="midnightblue" stroke="midnightblue" points="705.77,-544.53 707.09,-534.02 699.5,-541.41 705.77,-544.53"/>
</g>
<!-- Node74 -->
<g id="node20" class="node">
<title>Node74</title>
<g id="a_node20"><a xlink:href="common__cmd__packet__util_8c.html#a8321fb60193f3b5dcf93b42075bea0a6" target="_top" xlink:title="Timeline command を登録">
<polygon fill="white" stroke="black" points="462,-645 462,-664 558,-664 558,-645 462,-645"/>
<text text-anchor="middle" x="510" y="-652" font-family="Helvetica,sans-Serif" font-size="10.00">CCP_register_tlc</text>
</a>
</g>
</g>
<!-- Node46&#45;&gt;Node74 -->
<g id="edge22" class="edge">
<title>Node46&#45;&gt;Node74</title>
<path fill="none" stroke="midnightblue" d="M698.35,-542.19C678.86,-567.06 639.86,-611.95 596,-635.5 584.41,-641.72 570.88,-645.91 558.07,-648.73"/>
<polygon fill="midnightblue" stroke="midnightblue" points="701.31,-544.07 704.62,-534.01 695.76,-539.82 701.31,-544.07"/>
</g>
<!-- Node75 -->
<g id="node21" class="node">
<title>Node75</title>
<g id="a_node21"><a xlink:href="common__cmd__packet__util_8c.html#a81e108413662be4555dc9ca3fadc6d11" target="_top" xlink:title="Timeline command を登録 (ASAP 版)">
<polygon fill="white" stroke="red" points="447.5,-607 447.5,-626 572.5,-626 572.5,-607 447.5,-607"/>
<text text-anchor="middle" x="510" y="-614" font-family="Helvetica,sans-Serif" font-size="10.00">CCP_register_tlc_asap</text>
</a>
</g>
</g>
<!-- Node46&#45;&gt;Node75 -->
<g id="edge23" class="edge">
<title>Node46&#45;&gt;Node75</title>
<path fill="none" stroke="midnightblue" d="M691.48,-540.19C669.34,-556.8 632,-582.63 596,-597.5 586.78,-601.31 576.66,-604.42 566.72,-606.93"/>
<polygon fill="midnightblue" stroke="midnightblue" points="693.63,-542.96 699.46,-534.11 689.39,-537.39 693.63,-542.96"/>
</g>
<!-- Node77 -->
<g id="node22" class="node">
<title>Node77</title>
<g id="a_node22"><a xlink:href="block__command__table_8c.html#a18cc108a04bebe4cf1683a3564a30bd1" target="_top" xlink:title=" ">
<polygon fill="white" stroke="black" points="452.5,-569 452.5,-588 567.5,-588 567.5,-569 452.5,-569"/>
<text text-anchor="middle" x="510" y="-576" font-family="Helvetica,sans-Serif" font-size="10.00">Cmd_BCT_FILL_NOP</text>
</a>
</g>
</g>
<!-- Node46&#45;&gt;Node77 -->
<g id="edge24" class="edge">
<title>Node46&#45;&gt;Node77</title>
<path fill="none" stroke="midnightblue" d="M672.47,-537.12C650.19,-544.12 621.66,-552.76 596,-559.5 583.28,-562.84 569.38,-566.11 556.59,-568.96"/>
<polygon fill="midnightblue" stroke="midnightblue" points="673.76,-540.38 682.24,-534.02 671.65,-533.71 673.76,-540.38"/>
</g>
<!-- Node78 -->
<g id="node27" class="node">
<title>Node78</title>
<g id="a_node27"><a xlink:href="block__command__table_8c.html#a2861c4b00ce9134d0ed5f6c27e3ae676" target="_top" xlink:title=" ">
<polygon fill="white" stroke="black" points="432,-531 432,-550 588,-550 588,-531 432,-531"/>
<text text-anchor="middle" x="510" y="-538" font-family="Helvetica,sans-Serif" font-size="10.00">Cmd_BCT_OVERWRITE_CMD</text>
</a>
</g>
</g>
<!-- Node46&#45;&gt;Node78 -->
<g id="edge30" class="edge">
<title>Node46&#45;&gt;Node78</title>
<path fill="none" stroke="midnightblue" d="M661.28,-528.51C639.23,-530.27 612.83,-532.37 588.36,-534.33"/>
<polygon fill="midnightblue" stroke="midnightblue" points="661.72,-531.98 671.41,-527.7 661.16,-525.01 661.72,-531.98"/>
</g>
<!-- Node79 -->
<g id="node28" class="node">
<title>Node79</title>
<g id="a_node28"><a xlink:href="telemetry__manager_8c.html#a25caa94e8778f29fb38e00ed0ed16711" target="_top" xlink:title="TLM MGR に登録する TLC (TLM_MGR_CMD_TYPE_DR_REPLAY_TLM) を生成する">
<polygon fill="white" stroke="red" points="424,-493 424,-512 596,-512 596,-493 424,-493"/>
<text text-anchor="middle" x="510" y="-500" font-family="Helvetica,sans-Serif" font-size="10.00">TLM_MGR_form_dr_replay_tlm_</text>
</a>
</g>
</g>
<!-- Node46&#45;&gt;Node79 -->
<g id="edge32" class="edge">
<title>Node46&#45;&gt;Node79</title>
<path fill="none" stroke="midnightblue" d="M661.42,-519.01C641.67,-516.84 618.42,-514.29 596.18,-511.85"/>
<polygon fill="midnightblue" stroke="midnightblue" points="661.09,-522.49 671.41,-520.1 661.85,-515.53 661.09,-522.49"/>
</g>
<!-- Node87 -->
<g id="node29" class="node">
<title>Node87</title>
<g id="a_node29"><a xlink:href="telemetry__manager_8c.html#a69aa19ae9f58886da7e3b5d1374f10e1" target="_top" xlink:title="TLM MGR に上書きして削除するための NOP TLC を生成する">
<polygon fill="white" stroke="red" points="440,-455 440,-474 580,-474 580,-455 440,-455"/>
<text text-anchor="middle" x="510" y="-462" font-family="Helvetica,sans-Serif" font-size="10.00">TLM_MGR_form_nop_tlc_</text>
</a>
</g>
</g>
<!-- Node46&#45;&gt;Node87 -->
<g id="edge33" class="edge">
<title>Node46&#45;&gt;Node87</title>
<path fill="none" stroke="midnightblue" d="M677.87,-511.34C655.01,-502.71 623.96,-491.56 596,-483.5 583.94,-480.03 570.77,-476.81 558.47,-474.04"/>
<polygon fill="midnightblue" stroke="midnightblue" points="676.85,-514.7 687.44,-515 679.35,-508.16 676.85,-514.7"/>
</g>
<!-- Node94 -->
<g id="node30" class="node">
<title>Node94</title>
<g id="a_node30"><a xlink:href="telemetry__manager_8c.html#a1a3668595781b35fab672d99b1820ef4" target="_top" xlink:title="TLM MGR に登録する TLC (TLM_MGR_CMD_TYPE_TG_FORWARD_AS_RT_TLM) を生成する">
<polygon fill="white" stroke="red" points="434,-405.5 434,-435.5 586,-435.5 586,-405.5 434,-405.5"/>
<text text-anchor="start" x="442" y="-423.5" font-family="Helvetica,sans-Serif" font-size="10.00">TLM_MGR_form_tg_forward</text>
<text text-anchor="middle" x="510" y="-412.5" font-family="Helvetica,sans-Serif" font-size="10.00">_as_rt_tlm_</text>
</a>
</g>
</g>
<!-- Node46&#45;&gt;Node94 -->
<g id="edge34" class="edge">
<title>Node46&#45;&gt;Node94</title>
<path fill="none" stroke="midnightblue" d="M692.21,-508.47C670.17,-490.86 632.43,-462.78 596,-445.5 588.08,-441.74 579.47,-438.42 570.87,-435.52"/>
<polygon fill="midnightblue" stroke="midnightblue" points="690.14,-511.3 700.12,-514.88 694.55,-505.87 690.14,-511.3"/>
</g>
<!-- Node95 -->
<g id="node31" class="node">
<title>Node95</title>
<g id="a_node31"><a xlink:href="telemetry__manager_8c.html#a3136a41c73e7938344e20455559f9b44" target="_top" xlink:title="TLM MGR に登録する TLC (TLM_MGR_CMD_TYPE_TG_FORWARD_AS_ST_TLM) を生成する">
<polygon fill="white" stroke="red" points="434,-356.5 434,-386.5 586,-386.5 586,-356.5 434,-356.5"/>
<text text-anchor="start" x="442" y="-374.5" font-family="Helvetica,sans-Serif" font-size="10.00">TLM_MGR_form_tg_forward</text>
<text text-anchor="middle" x="510" y="-363.5" font-family="Helvetica,sans-Serif" font-size="10.00">_as_st_tlm_</text>
</a>
</g>
</g>
<!-- Node46&#45;&gt;Node95 -->
<g id="edge35" class="edge">
<title>Node46&#45;&gt;Node95</title>
<path fill="none" stroke="midnightblue" d="M700.15,-506.25C681.76,-478.19 642.74,-424.67 596,-395.5 590.54,-392.09 584.58,-389.15 578.43,-386.63"/>
<polygon fill="midnightblue" stroke="midnightblue" points="697.24,-508.18 705.58,-514.71 703.13,-504.41 697.24,-508.18"/>
</g>
<!-- Node96 -->
<g id="node32" class="node">
<title>Node96</title>
<g id="a_node32"><a xlink:href="telemetry__manager_8c.html#ac9c0936a3f30bedd357f45f44ad269ea" target="_top" xlink:title="TLM MGR に登録する TLC (TLM_MGR_CMD_TYPE_TG_GENERATE_RT_TLM) を生成する">
<polygon fill="white" stroke="red" points="431,-307.5 431,-337.5 589,-337.5 589,-307.5 431,-307.5"/>
<text text-anchor="start" x="439" y="-325.5" font-family="Helvetica,sans-Serif" font-size="10.00">TLM_MGR_form_tg_generate</text>
<text text-anchor="middle" x="510" y="-314.5" font-family="Helvetica,sans-Serif" font-size="10.00">_rt_tlm_</text>
</a>
</g>
</g>
<!-- Node46&#45;&gt;Node96 -->
<g id="edge36" class="edge">
<title>Node46&#45;&gt;Node96</title>
<path fill="none" stroke="midnightblue" d="M704.35,-505.1C689.8,-468.4 653.22,-388.68 596,-346.5 591.31,-343.04 586.14,-340.08 580.73,-337.55"/>
<polygon fill="midnightblue" stroke="midnightblue" points="701.16,-506.56 708.01,-514.64 707.69,-504.05 701.16,-506.56"/>
</g>
<!-- Node97 -->
<g id="node33" class="node">
<title>Node97</title>
<g id="a_node33"><a xlink:href="telemetry__manager_8c.html#ab6f3e2eab53d84a84ee3014f56ed11dd" target="_top" xlink:title="TLM MGR に登録する TLC (TLM_MGR_CMD_TYPE_TG_GENERATE_ST_TLM) を生成する">
<polygon fill="white" stroke="red" points="431,-258.5 431,-288.5 589,-288.5 589,-258.5 431,-258.5"/>
<text text-anchor="start" x="439" y="-276.5" font-family="Helvetica,sans-Serif" font-size="10.00">TLM_MGR_form_tg_generate</text>
<text text-anchor="middle" x="510" y="-265.5" font-family="Helvetica,sans-Serif" font-size="10.00">_st_tlm_</text>
</a>
</g>
</g>
<!-- Node46&#45;&gt;Node97 -->
<g id="edge37" class="edge">
<title>Node46&#45;&gt;Node97</title>
<path fill="none" stroke="midnightblue" d="M707.16,-504.75C696.41,-460.66 664.35,-353.65 596,-297.5 591.85,-294.09 587.25,-291.17 582.4,-288.66"/>
<polygon fill="midnightblue" stroke="midnightblue" points="703.76,-505.6 709.44,-514.54 710.57,-504.01 703.76,-505.6"/>
</g>
<!-- Node21 -->
<g id="node23" class="node">
<title>Node21</title>
<g id="a_node23"><a xlink:href="command__analyze_8h.html#aa375895192b16d8e7f0ff4545b54e6c4" target="_top" xlink:title="Cmd Tableのロード">
<polygon fill="white" stroke="black" points="267.5,-182 267.5,-201 380.5,-201 380.5,-182 267.5,-182"/>
<text text-anchor="middle" x="324" y="-189" font-family="Helvetica,sans-Serif" font-size="10.00">CA_load_cmd_table</text>
</a>
</g>
</g>
<!-- Node77&#45;&gt;Node21 -->
<g id="edge25" class="edge">
<title>Node77&#45;&gt;Node21</title>
<path fill="none" stroke="midnightblue" d="M442.57,-571.34C435.72,-568.46 429.33,-564.61 424,-559.5 369.3,-507.09 333.24,-253.98 326.25,-201.17"/>
<polygon fill="midnightblue" stroke="midnightblue" points="441.54,-574.69 452.13,-574.71 443.86,-568.09 441.54,-574.69"/>
</g>
<!-- Node22 -->
<g id="node24" class="node">
<title>Node22</title>
<g id="a_node24"><a xlink:href="command__analyze_8c.html#ae6d1f376bf4e1c9c4b63bc3f04924c8a" target="_top" xlink:title="CA の初期化">
<polygon fill="white" stroke="black" points="133,-201 133,-220 210,-220 210,-201 133,-201"/>
<text text-anchor="middle" x="171.5" y="-208" font-family="Helvetica,sans-Serif" font-size="10.00">CA_initialize</text>
</a>
</g>
</g>
<!-- Node21&#45;&gt;Node22 -->
<g id="edge26" class="edge">
<title>Node21&#45;&gt;Node22</title>
<path fill="none" stroke="midnightblue" d="M257.41,-199.78C241.22,-201.82 224.41,-203.95 210.07,-205.76"/>
<polygon fill="midnightblue" stroke="midnightblue" points="257.9,-203.25 267.39,-198.52 257.03,-196.3 257.9,-203.25"/>
</g>
<!-- Node12 -->
<g id="node25" class="node">
<title>Node12</title>
<g id="a_node25"><a xlink:href="c2a__core__main_8c.html#a65ecdc63d8762ffde4db7f6c6e6f07cf" target="_top" xlink:title=" ">
<polygon fill="white" stroke="red" points="0,-201 0,-220 83,-220 83,-201 0,-201"/>
<text text-anchor="middle" x="41.5" y="-208" font-family="Helvetica,sans-Serif" font-size="10.00">C2A_core_init</text>
</a>
</g>
</g>
<!-- Node22&#45;&gt;Node12 -->
<g id="edge27" class="edge">
<title>Node22&#45;&gt;Node12</title>
<path fill="none" stroke="midnightblue" d="M122.6,-210.5C109.59,-210.5 95.63,-210.5 83.07,-210.5"/>
<polygon fill="midnightblue" stroke="midnightblue" points="122.79,-214 132.79,-210.5 122.79,-207 122.79,-214"/>
</g>
<!-- Node23 -->
<g id="node26" class="node">
<title>Node23</title>
<g id="a_node26"><a xlink:href="command__analyze_8c.html#a85d8daea84970ad2895a0209bd350b7b" target="_top" xlink:title=" ">
<polygon fill="white" stroke="black" points="0,-163 0,-182 83,-182 83,-163 0,-163"/>
<text text-anchor="middle" x="41.5" y="-170" font-family="Helvetica,sans-Serif" font-size="10.00">Cmd_CA_INIT</text>
</a>
</g>
</g>
<!-- Node22&#45;&gt;Node23 -->
<g id="edge28" class="edge">
<title>Node22&#45;&gt;Node23</title>
<path fill="none" stroke="midnightblue" d="M128.28,-197.96C110.86,-192.8 91.01,-186.9 74.79,-182.09"/>
<polygon fill="midnightblue" stroke="midnightblue" points="127.62,-201.42 138.2,-200.91 129.61,-194.71 127.62,-201.42"/>
</g>
<!-- Node23&#45;&gt;Node21 -->
<g id="edge29" class="edge">
<title>Node23&#45;&gt;Node21</title>
<path fill="none" stroke="midnightblue" d="M93.23,-175.94C142.32,-179.26 216.53,-184.29 267.25,-187.72"/>
<polygon fill="midnightblue" stroke="midnightblue" points="93.37,-172.44 83.16,-175.25 92.9,-179.42 93.37,-172.44"/>
</g>
<!-- Node78&#45;&gt;Node21 -->
<g id="edge31" class="edge">
<title>Node78&#45;&gt;Node21</title>
<path fill="none" stroke="midnightblue" d="M428.84,-525.5C427.15,-524.26 425.54,-522.93 424,-521.5 325.71,-430 323.68,-245.2 324.66,-201.1"/>
<polygon fill="midnightblue" stroke="midnightblue" points="427.44,-528.74 437.8,-530.95 431.08,-522.76 427.44,-528.74"/>
</g>
<!-- Node103 -->
<g id="node39" class="node">
<title>Node103</title>
<g id="a_node39"><a xlink:href="common__tlm__packet_8h.html#a52c7ef7c91bb3b6047d22ec569656899" target="_top" xlink:title="APID を設定">
<polygon fill="white" stroke="black" points="855,-211 855,-230 937,-230 937,-211 855,-211"/>
<text text-anchor="middle" x="896" y="-218" font-family="Helvetica,sans-Serif" font-size="10.00">CTP_set_apid</text>
</a>
</g>
</g>
<!-- Node102&#45;&gt;Node103 -->
<g id="edge47" class="edge">
<title>Node102&#45;&gt;Node103</title>
<path fill="none" stroke="midnightblue" d="M989.48,-220.5C972.45,-220.5 953.65,-220.5 937.47,-220.5"/>
<polygon fill="midnightblue" stroke="midnightblue" points="989.81,-224 999.81,-220.5 989.81,-217 989.81,-224"/>
</g>
<!-- Node105 -->
<g id="node41" class="node">
<title>Node105</title>
<g id="a_node41"><a xlink:href="tlm__space__packet_8c.html#a1004b5815cc4b83d1205e772508b0cc9" target="_top" xlink:title="Primary Header を構築">
<polygon fill="white" stroke="black" points="830.5,-154 830.5,-173 961.5,-173 961.5,-154 830.5,-154"/>
<text text-anchor="middle" x="896" y="-161" font-family="Helvetica,sans-Serif" font-size="10.00">TSP_setup_primary_hdr</text>
</a>
</g>
</g>
<!-- Node102&#45;&gt;Node105 -->
<g id="edge50" class="edge">
<title>Node102&#45;&gt;Node105</title>
<path fill="none" stroke="midnightblue" d="M1006.15,-207.16C980.01,-196.7 944.28,-182.41 920.93,-173.07"/>
<polygon fill="midnightblue" stroke="midnightblue" points="1005.06,-210.5 1015.65,-210.96 1007.66,-204 1005.06,-210.5"/>
</g>
<!-- Node104 -->
<g id="node40" class="node">
<title>Node104</title>
<g id="a_node40"><a xlink:href="telemetry__generator_8c.html#a2fcc5d200854a9af5ab4a3d140419093" target="_top" xlink:title=" ">
<polygon fill="white" stroke="black" points="651.5,-211 651.5,-230 773.5,-230 773.5,-211 651.5,-211"/>
<text text-anchor="middle" x="712.5" y="-218" font-family="Helvetica,sans-Serif" font-size="10.00">Cmd_GENERATE_TLM</text>
</a>
</g>
</g>
<!-- Node103&#45;&gt;Node104 -->
<g id="edge48" class="edge">
<title>Node103&#45;&gt;Node104</title>
<path fill="none" stroke="midnightblue" d="M844.6,-220.5C822.61,-220.5 796.66,-220.5 773.67,-220.5"/>
<polygon fill="midnightblue" stroke="midnightblue" points="844.72,-224 854.72,-220.5 844.72,-217 844.72,-224"/>
</g>
<!-- Node104&#45;&gt;Node21 -->
<g id="edge49" class="edge">
<title>Node104&#45;&gt;Node21</title>
<path fill="none" stroke="midnightblue" d="M641.07,-221.08C582.73,-220.84 497.74,-218.81 424,-210.5 405.22,-208.38 384.66,-204.67 367.17,-201.09"/>
<polygon fill="midnightblue" stroke="midnightblue" points="641.27,-224.58 651.28,-221.11 641.29,-217.58 641.27,-224.58"/>
</g>
<!-- Node105&#45;&gt;Node104 -->
<g id="edge51" class="edge">
<title>Node105&#45;&gt;Node104</title>
<path fill="none" stroke="midnightblue" d="M854.7,-176.16C821.24,-186.66 774.38,-201.38 743.98,-210.93"/>
<polygon fill="midnightblue" stroke="midnightblue" points="856.13,-179.38 864.62,-173.04 854.03,-172.7 856.13,-179.38"/>
</g>
<!-- Node106 -->
<g id="node42" class="node">
<title>Node106</title>
<g id="a_node42"><a xlink:href="telemetry__generator_8c.html#ad78d5477d3fed44f4b1eb7c49cdbb760" target="_top" xlink:title="自身のテレメを生成">
<polygon fill="white" stroke="black" points="659.5,-144 659.5,-163 765.5,-163 765.5,-144 659.5,-144"/>
<text text-anchor="middle" x="712.5" y="-151" font-family="Helvetica,sans-Serif" font-size="10.00">TG_generate_tlm_</text>
</a>
</g>
</g>
<!-- Node105&#45;&gt;Node106 -->
<g id="edge52" class="edge">
<title>Node105&#45;&gt;Node106</title>
<path fill="none" stroke="midnightblue" d="M820.38,-159.39C801.97,-158.37 782.64,-157.31 765.55,-156.37"/>
<polygon fill="midnightblue" stroke="midnightblue" points="820.32,-162.89 830.5,-159.95 820.71,-155.9 820.32,-162.89"/>
</g>
<!-- Node111 -->
<g id="node47" class="node">
<title>Node111</title>
<g id="a_node47"><a xlink:href="tlm__space__packet_8c.html#a6a3a85b0640f6dfa288a01adca693958" target="_top" xlink:title="パケット全体を 0x00 クリアし， fill_size に等しいサイズのパケットを生成する">
<polygon fill="white" stroke="black" points="651.5,-68 651.5,-87 773.5,-87 773.5,-68 651.5,-68"/>
<text text-anchor="middle" x="712.5" y="-75" font-family="Helvetica,sans-Serif" font-size="10.00">TSP_setup_fill_packet</text>
</a>
</g>
</g>
<!-- Node105&#45;&gt;Node111 -->
<g id="edge61" class="edge">
<title>Node105&#45;&gt;Node111</title>
<path fill="none" stroke="midnightblue" d="M865.6,-149.57C828.54,-132.01 765.79,-102.28 733.71,-87.07"/>
<polygon fill="midnightblue" stroke="midnightblue" points="864.35,-152.85 874.88,-153.97 867.34,-146.52 864.35,-152.85"/>
</g>
<!-- Node107 -->
<g id="node43" class="node">
<title>Node107</title>
<g id="a_node43"><a xlink:href="telemetry__generator_8c.html#ad295be65cd39f29379869f893e8cb8ec" target="_top" xlink:title="HP テレメを生成">
<polygon fill="white" stroke="black" points="430.5,-182 430.5,-201 589.5,-201 589.5,-182 430.5,-182"/>
<text text-anchor="middle" x="510" y="-189" font-family="Helvetica,sans-Serif" font-size="10.00">Cmd_TG_GENERATE_HP_TLM</text>
</a>
</g>
</g>
<!-- Node106&#45;&gt;Node107 -->
<g id="edge53" class="edge">
<title>Node106&#45;&gt;Node107</title>
<path fill="none" stroke="midnightblue" d="M651.25,-164.92C622.57,-170.36 588.65,-176.78 561.36,-181.96"/>
<polygon fill="midnightblue" stroke="midnightblue" points="651.99,-168.34 661.16,-163.04 650.69,-161.46 651.99,-168.34"/>
</g>
<!-- Node108 -->
<g id="node44" class="node">
<title>Node108</title>
<g id="a_node44"><a xlink:href="telemetry__generator_8c.html#ac3563f8e03c03b0ae78216a8e30ba824" target="_top" xlink:title="RT テレメを生成">
<polygon fill="white" stroke="black" points="431,-144 431,-163 589,-163 589,-144 431,-144"/>
<text text-anchor="middle" x="510" y="-151" font-family="Helvetica,sans-Serif" font-size="10.00">Cmd_TG_GENERATE_RT_TLM</text>
</a>
</g>
</g>
<!-- Node106&#45;&gt;Node108 -->
<g id="edge55" class="edge">
<title>Node106&#45;&gt;Node108</title>
<path fill="none" stroke="midnightblue" d="M649.34,-153.5C630.37,-153.5 609.25,-153.5 589.35,-153.5"/>
<polygon fill="midnightblue" stroke="midnightblue" points="649.34,-157 659.34,-153.5 649.34,-150 649.34,-157"/>
</g>
<!-- Node109 -->
<g id="node45" class="node">
<title>Node109</title>
<g id="a_node45"><a xlink:href="telemetry__generator_8c.html#a4de86acb2e3da29e5be6506281c0a107" target="_top" xlink:title="ST テレメを生成">
<polygon fill="white" stroke="black" points="431,-106 431,-125 589,-125 589,-106 431,-106"/>
<text text-anchor="middle" x="510" y="-113" font-family="Helvetica,sans-Serif" font-size="10.00">Cmd_TG_GENERATE_ST_TLM</text>
</a>
</g>
</g>
<!-- Node106&#45;&gt;Node109 -->
<g id="edge57" class="edge">
<title>Node106&#45;&gt;Node109</title>
<path fill="none" stroke="midnightblue" d="M651.25,-142.08C622.57,-136.64 588.65,-130.22 561.36,-125.04"/>
<polygon fill="midnightblue" stroke="midnightblue" points="650.69,-145.54 661.16,-143.96 651.99,-138.66 650.69,-145.54"/>
</g>
<!-- Node110 -->
<g id="node46" class="node">
<title>Node110</title>
<g id="a_node46"><a xlink:href="telemetry__generator_8c.html#ae24085f0be15493396340b3613cc9834" target="_top" xlink:title="自身の OBC のテレメを生成">
<polygon fill="white" stroke="black" points="440,-68 440,-87 580,-87 580,-68 440,-68"/>
<text text-anchor="middle" x="510" y="-75" font-family="Helvetica,sans-Serif" font-size="10.00">Cmd_TG_GENERATE_TLM</text>
</a>
</g>
</g>
<!-- Node106&#45;&gt;Node110 -->
<g id="edge59" class="edge">
<title>Node106&#45;&gt;Node110</title>
<path fill="none" stroke="midnightblue" d="M686.48,-138.97C663.59,-126.21 628.43,-107.94 596,-96.5 585.45,-92.78 573.89,-89.62 562.8,-87.01"/>
<polygon fill="midnightblue" stroke="midnightblue" points="684.78,-142.03 695.21,-143.9 688.23,-135.94 684.78,-142.03"/>
</g>
<!-- Node107&#45;&gt;Node21 -->
<g id="edge54" class="edge">
<title>Node107&#45;&gt;Node21</title>
<path fill="none" stroke="midnightblue" d="M420.14,-191.5C406.63,-191.5 393.03,-191.5 380.51,-191.5"/>
<polygon fill="midnightblue" stroke="midnightblue" points="420.43,-195 430.43,-191.5 420.43,-188 420.43,-195"/>
</g>
<!-- Node108&#45;&gt;Node21 -->
<g id="edge56" class="edge">
<title>Node108&#45;&gt;Node21</title>
<path fill="none" stroke="midnightblue" d="M452.44,-165.18C426.35,-170.57 395.76,-176.89 371.1,-181.98"/>
<polygon fill="midnightblue" stroke="midnightblue" points="453.48,-168.54 462.57,-163.09 452.07,-161.68 453.48,-168.54"/>
</g>
<!-- Node109&#45;&gt;Node21 -->
<g id="edge58" class="edge">
<title>Node109&#45;&gt;Node21</title>
<path fill="none" stroke="midnightblue" d="M444.98,-127.6C437.81,-129.61 430.68,-131.9 424,-134.5 391.47,-147.16 356.88,-169.35 338.43,-181.99"/>
<polygon fill="midnightblue" stroke="midnightblue" points="445.97,-130.96 454.76,-125.05 444.2,-124.19 445.97,-130.96"/>
</g>
<!-- Node110&#45;&gt;Node21 -->
<g id="edge60" class="edge">
<title>Node110&#45;&gt;Node21</title>
<path fill="none" stroke="midnightblue" d="M437.47,-90.42C432.81,-92.19 428.27,-94.21 424,-96.5 382.86,-118.57 346.68,-162.53 331.99,-181.93"/>
<polygon fill="midnightblue" stroke="midnightblue" points="438.85,-93.65 447.19,-87.11 436.6,-87.02 438.85,-93.65"/>
</g>
<!-- Node112 -->
<g id="node48" class="node">
<title>Node112</title>
<g id="a_node48"><a xlink:href="tcp__to__m__pdu_8c.html#a973ccd708198a0d237a3cbb96cb8b078" target="_top" xlink:title="TCPacket を M_PDU に変換する">
<polygon fill="white" stroke="black" points="458,-30 458,-49 562,-49 562,-30 458,-30"/>
<text text-anchor="middle" x="510" y="-37" font-family="Helvetica,sans-Serif" font-size="10.00">T2M_form_m_pdu</text>
</a>
</g>
</g>
<!-- Node111&#45;&gt;Node112 -->
<g id="edge62" class="edge">
<title>Node111&#45;&gt;Node112</title>
<path fill="none" stroke="midnightblue" d="M651.25,-66.08C622.57,-60.64 588.65,-54.22 561.36,-49.04"/>
<polygon fill="midnightblue" stroke="midnightblue" points="650.69,-69.54 661.16,-67.96 651.99,-62.66 650.69,-69.54"/>
</g>
<!-- Node113 -->
<g id="node49" class="node">
<title>Node113</title>
<g id="a_node49"><a xlink:href="di__gs_8c.html#aad8305850dcacb40b07ac275cf24d580" target="_top" xlink:title=" ">
<polygon fill="white" stroke="red" points="264,-49.5 264,-79.5 384,-79.5 384,-49.5 264,-49.5"/>
<text text-anchor="start" x="272" y="-67.5" font-family="Helvetica,sans-Serif" font-size="10.00">DI_GS_rp_tlm_packet</text>
<text text-anchor="middle" x="324" y="-56.5" font-family="Helvetica,sans-Serif" font-size="10.00">_handler_app_</text>
</a>
</g>
</g>
<!-- Node112&#45;&gt;Node113 -->
<g id="edge63" class="edge">
<title>Node112&#45;&gt;Node113</title>
<path fill="none" stroke="midnightblue" d="M447.59,-47.84C427.13,-50.62 404.39,-53.71 384.1,-56.47"/>
<polygon fill="midnightblue" stroke="midnightblue" points="448.31,-51.28 457.75,-46.46 447.37,-44.34 448.31,-51.28"/>
</g>
<!-- Node115 -->
<g id="node50" class="node">
<title>Node115</title>
<g id="a_node50"><a xlink:href="di__gs_8c.html#aed31110821a382995fb86da776856e73" target="_top" xlink:title=" ">
<polygon fill="white" stroke="red" points="265,-0.5 265,-30.5 383,-30.5 383,-0.5 265,-0.5"/>
<text text-anchor="start" x="273" y="-18.5" font-family="Helvetica,sans-Serif" font-size="10.00">DI_GS_rt_tlm_packet</text>
<text text-anchor="middle" x="324" y="-7.5" font-family="Helvetica,sans-Serif" font-size="10.00">_handler_app_</text>
</a>
</g>
</g>
<!-- Node112&#45;&gt;Node115 -->
<g id="edge64" class="edge">
<title>Node112&#45;&gt;Node115</title>
<path fill="none" stroke="midnightblue" d="M447.73,-31.51C426.9,-28.79 403.69,-25.76 383.11,-23.08"/>
<polygon fill="midnightblue" stroke="midnightblue" points="447.38,-34.99 457.75,-32.81 448.28,-28.05 447.38,-34.99"/>
</g>
</g>
</svg>
