<?xml version="1.0" encoding="UTF-8" standalone="no"?>
<!DOCTYPE svg PUBLIC "-//W3C//DTD SVG 1.1//EN"
 "http://www.w3.org/Graphics/SVG/1.1/DTD/svg11.dtd">
<!-- Generated by graphviz version 2.43.0 (0)
 -->
<!-- Title: src/src_core/System/TaskManager/task_dispatcher.c Pages: 1 -->
<svg width="1751pt" height="642pt"
 viewBox="0.00 0.00 1750.98 642.00" xmlns="http://www.w3.org/2000/svg" xmlns:xlink="http://www.w3.org/1999/xlink">
<g id="graph0" class="graph" transform="scale(1 1) rotate(0) translate(4 638)">
<title>src/src_core/System/TaskManager/task_dispatcher.c</title>
<polygon fill="white" stroke="transparent" points="-4,4 -4,-638 1746.98,-638 1746.98,4 -4,4"/>
<!-- Node1 -->
<g id="node1" class="node">
<title>Node1</title>
<g id="a_node1"><a xlink:title=" ">
<polygon fill="#bfbfbf" stroke="black" points="688.5,-603.5 688.5,-633.5 860.5,-633.5 860.5,-603.5 688.5,-603.5"/>
<text text-anchor="start" x="696.5" y="-621.5" font-family="Helvetica,sans-Serif" font-size="10.00">src/src_core/System</text>
<text text-anchor="middle" x="774.5" y="-610.5" font-family="Helvetica,sans-Serif" font-size="10.00">/TaskManager/task_dispatcher.c</text>
</a>
</g>
</g>
<!-- Node2 -->
<g id="node2" class="node">
<title>Node2</title>
<g id="a_node2"><a xlink:href="task__dispatcher_8h.html" target="_top" xlink:title=" ">
<polygon fill="white" stroke="black" points="639.5,-542 639.5,-561 741.5,-561 741.5,-542 639.5,-542"/>
<text text-anchor="middle" x="690.5" y="-549" font-family="Helvetica,sans-Serif" font-size="10.00">task_dispatcher.h</text>
</a>
</g>
</g>
<!-- Node1&#45;&gt;Node2 -->
<g id="edge1" class="edge">
<title>Node1&#45;&gt;Node2</title>
<path fill="none" stroke="midnightblue" d="M756.27,-603.4C742.53,-592.76 723.72,-578.2 709.73,-567.38"/>
<polygon fill="midnightblue" stroke="midnightblue" points="711.79,-564.55 701.74,-561.19 707.5,-570.08 711.79,-564.55"/>
</g>
<!-- Node11 -->
<g id="node11" class="node">
<title>Node11</title>
<g id="a_node11"><a xlink:href="command__definitions_8h.html" target="_top" xlink:title="コマンド定義">
<polygon fill="white" stroke="black" points="0,-196 0,-226 153,-226 153,-196 0,-196"/>
<text text-anchor="start" x="8" y="-214" font-family="Helvetica,sans-Serif" font-size="10.00">src_user/TlmCmd/command</text>
<text text-anchor="middle" x="76.5" y="-203" font-family="Helvetica,sans-Serif" font-size="10.00">_definitions.h</text>
</a>
</g>
</g>
<!-- Node1&#45;&gt;Node11 -->
<g id="edge61" class="edge">
<title>Node1&#45;&gt;Node11</title>
<path fill="none" stroke="midnightblue" d="M688.21,-610.1C501.46,-592.93 76.5,-547.09 76.5,-485.5 76.5,-485.5 76.5,-485.5 76.5,-349.5 76.5,-309.85 76.5,-263.76 76.5,-236.28"/>
<polygon fill="midnightblue" stroke="midnightblue" points="80,-236.05 76.5,-226.05 73,-236.05 80,-236.05"/>
</g>
<!-- Node18 -->
<g id="node18" class="node">
<title>Node18</title>
<g id="a_node18"><a xlink:href="packet__list_8h.html" target="_top" xlink:title="CTCPのリストとしてのデータ構造を定義. 片方向リストとして実装されている">
<polygon fill="white" stroke="black" points="342.5,-408 342.5,-427 420.5,-427 420.5,-408 342.5,-408"/>
<text text-anchor="middle" x="381.5" y="-415" font-family="Helvetica,sans-Serif" font-size="10.00">packet_list.h</text>
</a>
</g>
</g>
<!-- Node1&#45;&gt;Node18 -->
<g id="edge34" class="edge">
<title>Node1&#45;&gt;Node18</title>
<path fill="none" stroke="midnightblue" d="M688.37,-609.47C616.63,-601.5 521.11,-587.47 488.5,-567 437.48,-534.97 403.35,-468.95 389.07,-436.84"/>
<polygon fill="midnightblue" stroke="midnightblue" points="392.16,-435.15 384.99,-427.35 385.72,-437.92 392.16,-435.15"/>
</g>
<!-- Node20 -->
<g id="node20" class="node">
<title>Node20</title>
<g id="a_node20"><a xlink:title=" ">
<polygon fill="white" stroke="#bfbfbf" points="497,-542 497,-561 550,-561 550,-542 497,-542"/>
<text text-anchor="middle" x="523.5" y="-549" font-family="Helvetica,sans-Serif" font-size="10.00">stdlib.h</text>
</a>
</g>
</g>
<!-- Node1&#45;&gt;Node20 -->
<g id="edge32" class="edge">
<title>Node1&#45;&gt;Node20</title>
<path fill="none" stroke="midnightblue" d="M702.58,-603.47C660.46,-594.55 606.47,-581.88 559.5,-567 557.22,-566.28 554.89,-565.48 552.55,-564.64"/>
<polygon fill="midnightblue" stroke="midnightblue" points="553.7,-561.33 543.11,-561.03 551.2,-567.87 553.7,-561.33"/>
</g>
<!-- Node21 -->
<g id="node21" class="node">
<title>Node21</title>
<g id="a_node21"><a xlink:title=" ">
<polygon fill="white" stroke="#bfbfbf" points="568,-542 568,-561 621,-561 621,-542 568,-542"/>
<text text-anchor="middle" x="594.5" y="-549" font-family="Helvetica,sans-Serif" font-size="10.00">string.h</text>
</a>
</g>
</g>
<!-- Node1&#45;&gt;Node21 -->
<g id="edge33" class="edge">
<title>Node1&#45;&gt;Node21</title>
<path fill="none" stroke="midnightblue" d="M732.73,-603.41C703.89,-593.55 664.72,-579.88 630.5,-567 628.66,-566.31 626.76,-565.58 624.86,-564.84"/>
<polygon fill="midnightblue" stroke="midnightblue" points="625.96,-561.52 615.38,-561.1 623.39,-568.03 625.96,-561.52"/>
</g>
<!-- Node22 -->
<g id="node22" class="node">
<title>Node22</title>
<g id="a_node22"><a xlink:href="block__command__executor_8h.html" target="_top" xlink:title="BCTの実行周りの関数, パラメーター">
<polygon fill="white" stroke="black" points="198.5,-402.5 198.5,-432.5 324.5,-432.5 324.5,-402.5 198.5,-402.5"/>
<text text-anchor="start" x="206.5" y="-420.5" font-family="Helvetica,sans-Serif" font-size="10.00">../../TlmCmd/block</text>
<text text-anchor="middle" x="261.5" y="-409.5" font-family="Helvetica,sans-Serif" font-size="10.00">_command_executor.h</text>
</a>
</g>
</g>
<!-- Node1&#45;&gt;Node22 -->
<g id="edge35" class="edge">
<title>Node1&#45;&gt;Node22</title>
<path fill="none" stroke="midnightblue" d="M688.44,-616.13C620.69,-612.27 525.24,-600.57 448.5,-567 378.88,-536.54 313.08,-473.56 281.33,-440.25"/>
<polygon fill="midnightblue" stroke="midnightblue" points="283.77,-437.73 274.37,-432.85 278.67,-442.53 283.77,-437.73"/>
</g>
<!-- Node23 -->
<g id="node23" class="node">
<title>Node23</title>
<g id="a_node23"><a xlink:href="mode__manager_8h.html" target="_top" xlink:title="モード遷移の制御の定義">
<polygon fill="white" stroke="black" points="800.5,-402.5 800.5,-432.5 926.5,-432.5 926.5,-402.5 800.5,-402.5"/>
<text text-anchor="start" x="808.5" y="-420.5" font-family="Helvetica,sans-Serif" font-size="10.00">../ModeManager/mode</text>
<text text-anchor="middle" x="863.5" y="-409.5" font-family="Helvetica,sans-Serif" font-size="10.00">_manager.h</text>
</a>
</g>
</g>
<!-- Node1&#45;&gt;Node23 -->
<g id="edge38" class="edge">
<title>Node1&#45;&gt;Node23</title>
<path fill="none" stroke="midnightblue" d="M780.9,-603.19C796.07,-569.27 834.33,-483.72 852.97,-442.04"/>
<polygon fill="midnightblue" stroke="midnightblue" points="856.27,-443.24 857.16,-432.68 849.88,-440.38 856.27,-443.24"/>
</g>
<!-- Node26 -->
<g id="node26" class="node">
<title>Node26</title>
<g id="a_node26"><a xlink:href="time__manager_8h.html" target="_top" xlink:title="OBCの時刻情報を TimeManager 構造体に保持しカウントアップする. その他, 時刻演算に必要な関数も実装する">
<polygon fill="white" stroke="black" points="715,-335.5 715,-365.5 834,-365.5 834,-335.5 715,-335.5"/>
<text text-anchor="start" x="723" y="-353.5" font-family="Helvetica,sans-Serif" font-size="10.00">../TimeManager/time</text>
<text text-anchor="middle" x="774.5" y="-342.5" font-family="Helvetica,sans-Serif" font-size="10.00">_manager.h</text>
</a>
</g>
</g>
<!-- Node1&#45;&gt;Node26 -->
<g id="edge44" class="edge">
<title>Node1&#45;&gt;Node26</title>
<path fill="none" stroke="midnightblue" d="M774.5,-603.2C774.5,-559.89 774.5,-429.82 774.5,-375.62"/>
<polygon fill="midnightblue" stroke="midnightblue" points="778,-375.55 774.5,-365.55 771,-375.55 778,-375.55"/>
</g>
<!-- Node27 -->
<g id="node27" class="node">
<title>Node27</title>
<g id="a_node27"><a xlink:href="anomaly__logger_8h.html" target="_top" xlink:title=" ">
<polygon fill="white" stroke="black" points="1424.5,-335.5 1424.5,-365.5 1572.5,-365.5 1572.5,-335.5 1424.5,-335.5"/>
<text text-anchor="start" x="1432.5" y="-353.5" font-family="Helvetica,sans-Serif" font-size="10.00">../AnomalyLogger/anomaly</text>
<text text-anchor="middle" x="1498.5" y="-342.5" font-family="Helvetica,sans-Serif" font-size="10.00">_logger.h</text>
</a>
</g>
</g>
<!-- Node1&#45;&gt;Node27 -->
<g id="edge47" class="edge">
<title>Node1&#45;&gt;Node27</title>
<path fill="none" stroke="midnightblue" d="M812.66,-603.48C934.72,-558.63 1315.51,-418.73 1450.47,-369.14"/>
<polygon fill="midnightblue" stroke="midnightblue" points="1451.96,-372.33 1460.14,-365.59 1449.54,-365.76 1451.96,-372.33"/>
</g>
<!-- Node30 -->
<g id="node30" class="node">
<title>Node30</title>
<g id="a_node30"><a xlink:href="event__logger_8h.html" target="_top" xlink:title="アノマリやエラーなどの各種イベントを記録する">
<polygon fill="white" stroke="black" points="1209,-335.5 1209,-365.5 1336,-365.5 1336,-335.5 1209,-335.5"/>
<text text-anchor="start" x="1217" y="-353.5" font-family="Helvetica,sans-Serif" font-size="10.00">../EventManager/event</text>
<text text-anchor="middle" x="1272.5" y="-342.5" font-family="Helvetica,sans-Serif" font-size="10.00">_logger.h</text>
</a>
</g>
</g>
<!-- Node1&#45;&gt;Node30 -->
<g id="edge53" class="edge">
<title>Node1&#45;&gt;Node30</title>
<path fill="none" stroke="midnightblue" d="M786.92,-603.37C827.36,-557.48 954.08,-414.92 978.5,-402 1064,-356.75 1099.82,-382.1 1198.82,-366.17"/>
<polygon fill="midnightblue" stroke="midnightblue" points="1199.66,-369.58 1208.92,-364.44 1198.47,-362.68 1199.66,-369.58"/>
</g>
<!-- Node33 -->
<g id="node33" class="node">
<title>Node33</title>
<g id="a_node33"><a xlink:href="block__command__definitions_8h.html" target="_top" xlink:title="ブロックコマンド定義">
<polygon fill="white" stroke="black" points="1020.5,-536.5 1020.5,-566.5 1156.5,-566.5 1156.5,-536.5 1020.5,-536.5"/>
<text text-anchor="start" x="1028.5" y="-554.5" font-family="Helvetica,sans-Serif" font-size="10.00">src_user/TlmCmd/block</text>
<text text-anchor="middle" x="1088.5" y="-543.5" font-family="Helvetica,sans-Serif" font-size="10.00">_command_definitions.h</text>
</a>
</g>
</g>
<!-- Node1&#45;&gt;Node33 -->
<g id="edge60" class="edge">
<title>Node1&#45;&gt;Node33</title>
<path fill="none" stroke="midnightblue" d="M842.25,-603.48C891.79,-593.22 959.08,-579.29 1010.81,-568.58"/>
<polygon fill="midnightblue" stroke="midnightblue" points="1011.52,-572.01 1020.6,-566.55 1010.1,-565.15 1011.52,-572.01"/>
</g>
<!-- Node34 -->
<g id="node34" class="node">
<title>Node34</title>
<g id="a_node34"><a xlink:href="print_8h.html" target="_top" xlink:title=" ">
<polygon fill="white" stroke="black" points="1175,-542 1175,-561 1278,-561 1278,-542 1175,-542"/>
<text text-anchor="middle" x="1226.5" y="-549" font-family="Helvetica,sans-Serif" font-size="10.00">../../Library/print.h</text>
</a>
</g>
</g>
<!-- Node1&#45;&gt;Node34 -->
<g id="edge62" class="edge">
<title>Node1&#45;&gt;Node34</title>
<path fill="none" stroke="midnightblue" d="M860.71,-608.99C940.21,-600.53 1061.31,-586.06 1165.5,-567 1171.33,-565.93 1177.44,-564.66 1183.45,-563.33"/>
<polygon fill="midnightblue" stroke="midnightblue" points="1184.43,-566.69 1193.39,-561.04 1182.86,-559.87 1184.43,-566.69"/>
</g>
<!-- Node35 -->
<g id="node35" class="node">
<title>Node35</title>
<g id="a_node35"><a xlink:href="_v_t100_8h.html" target="_top" xlink:title=" ">
<polygon fill="white" stroke="black" points="1296,-542 1296,-561 1433,-561 1433,-542 1296,-542"/>
<text text-anchor="middle" x="1364.5" y="-549" font-family="Helvetica,sans-Serif" font-size="10.00">src_user/Library/VT100.h</text>
</a>
</g>
</g>
<!-- Node1&#45;&gt;Node35 -->
<g id="edge63" class="edge">
<title>Node1&#45;&gt;Node35</title>
<path fill="none" stroke="midnightblue" d="M860.55,-611.36C962.69,-603.52 1138,-588.39 1287.5,-567 1295.64,-565.84 1304.22,-564.41 1312.59,-562.92"/>
<polygon fill="midnightblue" stroke="midnightblue" points="1313.45,-566.32 1322.65,-561.07 1312.18,-559.44 1313.45,-566.32"/>
</g>
<!-- Node3 -->
<g id="node3" class="node">
<title>Node3</title>
<g id="a_node3"><a xlink:href="block__command__table_8h.html" target="_top" xlink:title="BCTの定義, BCT周りの関数">
<polygon fill="white" stroke="black" points="364.5,-335.5 364.5,-365.5 474.5,-365.5 474.5,-335.5 364.5,-335.5"/>
<text text-anchor="start" x="372.5" y="-353.5" font-family="Helvetica,sans-Serif" font-size="10.00">../../TlmCmd/block</text>
<text text-anchor="middle" x="419.5" y="-342.5" font-family="Helvetica,sans-Serif" font-size="10.00">_command_table.h</text>
</a>
</g>
</g>
<!-- Node2&#45;&gt;Node3 -->
<g id="edge2" class="edge">
<title>Node2&#45;&gt;Node3</title>
<path fill="none" stroke="midnightblue" d="M655.63,-541.95C647.4,-539.96 638.64,-537.88 630.5,-536 558.22,-519.29 522.4,-549.9 467.5,-500 448.98,-483.16 432.19,-413.28 424.28,-375.69"/>
<polygon fill="midnightblue" stroke="midnightblue" points="427.64,-374.67 422.2,-365.58 420.79,-376.08 427.64,-374.67"/>
</g>
<!-- Node17 -->
<g id="node17" class="node">
<title>Node17</title>
<g id="a_node17"><a xlink:href="command__dispatcher_8h.html" target="_top" xlink:title=" ">
<polygon fill="white" stroke="black" points="476.5,-469.5 476.5,-499.5 604.5,-499.5 604.5,-469.5 476.5,-469.5"/>
<text text-anchor="start" x="484.5" y="-487.5" font-family="Helvetica,sans-Serif" font-size="10.00">../../TlmCmd/command</text>
<text text-anchor="middle" x="540.5" y="-476.5" font-family="Helvetica,sans-Serif" font-size="10.00">_dispatcher.h</text>
</a>
</g>
</g>
<!-- Node2&#45;&gt;Node17 -->
<g id="edge22" class="edge">
<title>Node2&#45;&gt;Node17</title>
<path fill="none" stroke="midnightblue" d="M670.58,-541.87C648.17,-532.16 611.14,-516.11 582.3,-503.61"/>
<polygon fill="midnightblue" stroke="midnightblue" points="583.44,-500.29 572.87,-499.53 580.66,-506.72 583.44,-500.29"/>
</g>
<!-- Node19 -->
<g id="node19" class="node">
<title>Node19</title>
<g id="a_node19"><a xlink:href="app__info_8h.html" target="_top" xlink:title="App 情報構造体定義と App 作成">
<polygon fill="white" stroke="black" points="623,-469.5 623,-499.5 746,-499.5 746,-469.5 623,-469.5"/>
<text text-anchor="start" x="631" y="-487.5" font-family="Helvetica,sans-Serif" font-size="10.00">../ApplicationManager</text>
<text text-anchor="middle" x="684.5" y="-476.5" font-family="Helvetica,sans-Serif" font-size="10.00">/app_info.h</text>
</a>
</g>
</g>
<!-- Node2&#45;&gt;Node19 -->
<g id="edge30" class="edge">
<title>Node2&#45;&gt;Node19</title>
<path fill="none" stroke="midnightblue" d="M689.69,-541.73C688.93,-533.54 687.77,-520.92 686.74,-509.71"/>
<polygon fill="midnightblue" stroke="midnightblue" points="690.2,-509.22 685.8,-499.59 683.23,-509.87 690.2,-509.22"/>
</g>
<!-- Node4 -->
<g id="node4" class="node">
<title>Node4</title>
<g id="a_node4"><a xlink:href="stdint_8h.html" target="_top" xlink:title=" ">
<polygon fill="white" stroke="black" points="586.5,-62 586.5,-81 720.5,-81 720.5,-62 586.5,-62"/>
<text text-anchor="middle" x="653.5" y="-69" font-family="Helvetica,sans-Serif" font-size="10.00">src_user/Library/stdint.h</text>
</a>
</g>
</g>
<!-- Node3&#45;&gt;Node4 -->
<g id="edge3" class="edge">
<title>Node3&#45;&gt;Node4</title>
<path fill="none" stroke="midnightblue" d="M420.43,-335.24C420.79,-317.04 418.47,-285.78 400.5,-268 348.08,-216.12 284.65,-289.53 238.5,-232 226.82,-217.44 227.88,-205.35 238.5,-190 286.6,-120.49 335.38,-146.76 416.5,-123 450.18,-113.13 540.63,-94.68 599.54,-83.02"/>
<polygon fill="midnightblue" stroke="midnightblue" points="600.3,-86.44 609.44,-81.07 598.95,-79.57 600.3,-86.44"/>
</g>
<!-- Node6 -->
<g id="node6" class="node">
<title>Node6</title>
<g id="a_node6"><a xlink:href="block__command__table__params_8h.html" target="_top" xlink:title="BCTのCoreTlmパラメタのオーバーライド用ヘッダー">
<polygon fill="white" stroke="black" points="210,-268.5 210,-298.5 391,-298.5 391,-268.5 210,-268.5"/>
<text text-anchor="start" x="218" y="-286.5" font-family="Helvetica,sans-Serif" font-size="10.00">src_user/Settings/TlmCmd</text>
<text text-anchor="middle" x="300.5" y="-275.5" font-family="Helvetica,sans-Serif" font-size="10.00">/block_command_table_params.h</text>
</a>
</g>
</g>
<!-- Node3&#45;&gt;Node6 -->
<g id="edge5" class="edge">
<title>Node3&#45;&gt;Node6</title>
<path fill="none" stroke="midnightblue" d="M393.68,-335.4C376.53,-326.03 353.8,-313.62 335.09,-303.39"/>
<polygon fill="midnightblue" stroke="midnightblue" points="336.72,-300.3 326.27,-298.58 333.37,-306.44 336.72,-300.3"/>
</g>
<!-- Node7 -->
<g id="node7" class="node">
<title>Node7</title>
<g id="a_node7"><a xlink:href="common__tlm__cmd__packet_8h.html" target="_top" xlink:title="CTCP の宣言">
<polygon fill="white" stroke="black" points="447.5,-274 447.5,-293 601.5,-293 601.5,-274 447.5,-274"/>
<text text-anchor="middle" x="524.5" y="-281" font-family="Helvetica,sans-Serif" font-size="10.00">common_tlm_cmd_packet.h</text>
</a>
</g>
</g>
<!-- Node3&#45;&gt;Node7 -->
<g id="edge6" class="edge">
<title>Node3&#45;&gt;Node7</title>
<path fill="none" stroke="midnightblue" d="M436.61,-335.4C453.08,-324.29 477.94,-308.92 497.13,-297.98"/>
<polygon fill="midnightblue" stroke="midnightblue" points="499,-300.94 506.02,-293.01 495.59,-294.83 499,-300.94"/>
</g>
<!-- Node5 -->
<g id="node5" class="node">
<title>Node5</title>
<g id="a_node5"><a xlink:href="sils__define_8h.html" target="_top" xlink:title="Switch the build settings between your real OBC and SILS">
<polygon fill="white" stroke="black" points="589,-0.5 589,-19.5 718,-19.5 718,-0.5 589,-0.5"/>
<text text-anchor="middle" x="653.5" y="-7.5" font-family="Helvetica,sans-Serif" font-size="10.00">../Settings/sils_define.h</text>
</a>
</g>
</g>
<!-- Node4&#45;&gt;Node5 -->
<g id="edge4" class="edge">
<title>Node4&#45;&gt;Node5</title>
<path fill="none" stroke="midnightblue" d="M653.5,-61.98C653.5,-53.58 653.5,-40.48 653.5,-29.66"/>
<polygon fill="midnightblue" stroke="midnightblue" points="657,-29.51 653.5,-19.51 650,-29.51 657,-29.51"/>
</g>
<!-- Node7&#45;&gt;Node3 -->
<g id="edge21" class="edge">
<title>Node7&#45;&gt;Node3</title>
<path fill="none" stroke="midnightblue" d="M515.49,-293.01C502.3,-302.43 477.77,-317.93 456.72,-330.31"/>
<polygon fill="midnightblue" stroke="midnightblue" points="454.85,-327.35 447.96,-335.4 458.37,-333.4 454.85,-327.35"/>
</g>
<!-- Node7&#45;&gt;Node4 -->
<g id="edge12" class="edge">
<title>Node7&#45;&gt;Node4</title>
<path fill="none" stroke="midnightblue" d="M565.47,-273.99C616.96,-262.89 699.71,-243.52 708.5,-232 742.59,-187.29 694.64,-119.95 668.51,-89.06"/>
<polygon fill="midnightblue" stroke="midnightblue" points="671.01,-86.6 661.8,-81.36 665.73,-91.2 671.01,-86.6"/>
</g>
<!-- Node8 -->
<g id="node8" class="node">
<title>Node8</title>
<g id="a_node8"><a xlink:title=" ">
<polygon fill="white" stroke="#bfbfbf" points="738.5,-62 738.5,-81 794.5,-81 794.5,-62 738.5,-62"/>
<text text-anchor="middle" x="766.5" y="-69" font-family="Helvetica,sans-Serif" font-size="10.00">stddef.h</text>
</a>
</g>
</g>
<!-- Node7&#45;&gt;Node8 -->
<g id="edge7" class="edge">
<title>Node7&#45;&gt;Node8</title>
<path fill="none" stroke="midnightblue" d="M569.24,-273.91C625.54,-262.72 716.29,-243.26 727.5,-232 765.65,-193.7 768.68,-124.62 767.69,-91.37"/>
<polygon fill="midnightblue" stroke="midnightblue" points="771.18,-91.05 767.22,-81.22 764.18,-91.37 771.18,-91.05"/>
</g>
<!-- Node9 -->
<g id="node9" class="node">
<title>Node9</title>
<g id="a_node9"><a xlink:href="obc__time_8h.html" target="_top" xlink:title="OBCの時刻情報の定義と演算">
<polygon fill="white" stroke="black" points="794,-196 794,-226 927,-226 927,-196 794,-196"/>
<text text-anchor="start" x="802" y="-214" font-family="Helvetica,sans-Serif" font-size="10.00">../System/TimeManager</text>
<text text-anchor="middle" x="860.5" y="-203" font-family="Helvetica,sans-Serif" font-size="10.00">/obc_time.h</text>
</a>
</g>
</g>
<!-- Node7&#45;&gt;Node9 -->
<g id="edge8" class="edge">
<title>Node7&#45;&gt;Node9</title>
<path fill="none" stroke="midnightblue" d="M571.17,-273.93C622.4,-264.37 707.03,-248.11 779.5,-232 784.58,-230.87 789.84,-229.66 795.11,-228.42"/>
<polygon fill="midnightblue" stroke="midnightblue" points="796.33,-231.73 805.24,-226.01 794.71,-224.92 796.33,-231.73"/>
</g>
<!-- Node7&#45;&gt;Node11 -->
<g id="edge11" class="edge">
<title>Node7&#45;&gt;Node11</title>
<path fill="none" stroke="midnightblue" d="M470.46,-274C394.19,-261.99 254.16,-239.96 163.23,-225.65"/>
<polygon fill="midnightblue" stroke="midnightblue" points="163.64,-222.17 153.22,-224.07 162.55,-229.09 163.64,-222.17"/>
</g>
<!-- Node12 -->
<g id="node12" class="node">
<title>Node12</title>
<g id="a_node12"><a xlink:href="app__registry_8h.html" target="_top" xlink:title=" ">
<polygon fill="white" stroke="black" points="579.5,-196 579.5,-226 699.5,-226 699.5,-196 579.5,-196"/>
<text text-anchor="start" x="587.5" y="-214" font-family="Helvetica,sans-Serif" font-size="10.00">src_user/Applications</text>
<text text-anchor="middle" x="639.5" y="-203" font-family="Helvetica,sans-Serif" font-size="10.00">/app_registry.h</text>
</a>
</g>
</g>
<!-- Node7&#45;&gt;Node12 -->
<g id="edge13" class="edge">
<title>Node7&#45;&gt;Node12</title>
<path fill="none" stroke="midnightblue" d="M538.6,-273.86C555.76,-263.34 585.23,-245.27 607.91,-231.36"/>
<polygon fill="midnightblue" stroke="midnightblue" points="609.84,-234.29 616.54,-226.08 606.18,-228.32 609.84,-234.29"/>
</g>
<!-- Node13 -->
<g id="node13" class="node">
<title>Node13</title>
<g id="a_node13"><a xlink:href="common__tlm__cmd__packet__define_8h.html" target="_top" xlink:title="CTCP型の定義">
<polygon fill="white" stroke="black" points="247.5,-190.5 247.5,-231.5 395.5,-231.5 395.5,-190.5 247.5,-190.5"/>
<text text-anchor="start" x="255.5" y="-219.5" font-family="Helvetica,sans-Serif" font-size="10.00">src_user/Settings/TlmCmd</text>
<text text-anchor="start" x="255.5" y="-208.5" font-family="Helvetica,sans-Serif" font-size="10.00">/common_tlm_cmd_packet</text>
<text text-anchor="middle" x="321.5" y="-197.5" font-family="Helvetica,sans-Serif" font-size="10.00">_define.h</text>
</a>
</g>
</g>
<!-- Node7&#45;&gt;Node13 -->
<g id="edge14" class="edge">
<title>Node7&#45;&gt;Node13</title>
<path fill="none" stroke="midnightblue" d="M500.01,-274C472.31,-264.37 426.03,-248.3 387.53,-234.93"/>
<polygon fill="midnightblue" stroke="midnightblue" points="388.53,-231.57 377.93,-231.6 386.23,-238.19 388.53,-231.57"/>
</g>
<!-- Node16 -->
<g id="node16" class="node">
<title>Node16</title>
<g id="a_node16"><a xlink:href="common__tlm__cmd__packet__params_8h.html" target="_top" xlink:title="CTCP パラメタのオーバーライド用ヘッダー">
<polygon fill="white" stroke="black" points="413.5,-190.5 413.5,-231.5 561.5,-231.5 561.5,-190.5 413.5,-190.5"/>
<text text-anchor="start" x="421.5" y="-219.5" font-family="Helvetica,sans-Serif" font-size="10.00">src_user/Settings/TlmCmd</text>
<text text-anchor="start" x="421.5" y="-208.5" font-family="Helvetica,sans-Serif" font-size="10.00">/common_tlm_cmd_packet</text>
<text text-anchor="middle" x="487.5" y="-197.5" font-family="Helvetica,sans-Serif" font-size="10.00">_params.h</text>
</a>
</g>
</g>
<!-- Node7&#45;&gt;Node16 -->
<g id="edge19" class="edge">
<title>Node7&#45;&gt;Node16</title>
<path fill="none" stroke="midnightblue" d="M519.96,-273.86C515.64,-265.62 508.88,-252.74 502.65,-240.86"/>
<polygon fill="midnightblue" stroke="midnightblue" points="505.57,-238.89 497.82,-231.66 499.37,-242.14 505.57,-238.89"/>
</g>
<!-- Node9&#45;&gt;Node4 -->
<g id="edge9" class="edge">
<title>Node9&#45;&gt;Node4</title>
<path fill="none" stroke="midnightblue" d="M839.13,-195.8C799.36,-169.39 714.43,-112.98 674.75,-86.62"/>
<polygon fill="midnightblue" stroke="midnightblue" points="676.61,-83.65 666.35,-81.03 672.74,-89.48 676.61,-83.65"/>
</g>
<!-- Node10 -->
<g id="node10" class="node">
<title>Node10</title>
<g id="a_node10"><a xlink:href="obc__time__params_8h.html" target="_top" xlink:title="OBCTのCoreパラメタのオーバーライド用ヘッダー">
<polygon fill="white" stroke="black" points="822.5,-123.5 822.5,-153.5 962.5,-153.5 962.5,-123.5 822.5,-123.5"/>
<text text-anchor="start" x="830.5" y="-141.5" font-family="Helvetica,sans-Serif" font-size="10.00">src_user/Settings/System</text>
<text text-anchor="middle" x="892.5" y="-130.5" font-family="Helvetica,sans-Serif" font-size="10.00">/obc_time_params.h</text>
</a>
</g>
</g>
<!-- Node9&#45;&gt;Node10 -->
<g id="edge10" class="edge">
<title>Node9&#45;&gt;Node10</title>
<path fill="none" stroke="midnightblue" d="M866.98,-195.73C871.23,-186.37 876.89,-173.9 881.8,-163.08"/>
<polygon fill="midnightblue" stroke="midnightblue" points="885.09,-164.3 886.03,-153.75 878.71,-161.4 885.09,-164.3"/>
</g>
<!-- Node14 -->
<g id="node14" class="node">
<title>Node14</title>
<g id="a_node14"><a xlink:href="_t_c_packet_8h.html" target="_top" xlink:title=" ">
<polygon fill="white" stroke="black" points="425,-123.5 425,-153.5 558,-153.5 558,-123.5 425,-123.5"/>
<text text-anchor="start" x="433" y="-141.5" font-family="Helvetica,sans-Serif" font-size="10.00">src_core/TlmCmd/Ccsds</text>
<text text-anchor="middle" x="491.5" y="-130.5" font-family="Helvetica,sans-Serif" font-size="10.00">/TCPacket.h</text>
</a>
</g>
</g>
<!-- Node13&#45;&gt;Node14 -->
<g id="edge15" class="edge">
<title>Node13&#45;&gt;Node14</title>
<path fill="none" stroke="midnightblue" d="M368.85,-190.36C393.75,-180.04 424.04,-167.48 448.29,-157.42"/>
<polygon fill="midnightblue" stroke="midnightblue" points="449.7,-160.62 457.6,-153.56 447.02,-154.16 449.7,-160.62"/>
</g>
<!-- Node14&#45;&gt;Node4 -->
<g id="edge17" class="edge">
<title>Node14&#45;&gt;Node4</title>
<path fill="none" stroke="midnightblue" d="M526.65,-123.4C555.33,-111.89 595.44,-95.8 622.83,-84.81"/>
<polygon fill="midnightblue" stroke="midnightblue" points="624.32,-87.98 632.3,-81.01 621.71,-81.48 624.32,-87.98"/>
</g>
<!-- Node14&#45;&gt;Node8 -->
<g id="edge16" class="edge">
<title>Node14&#45;&gt;Node8</title>
<path fill="none" stroke="midnightblue" d="M558.15,-126.39C606.28,-117.64 672.55,-104.07 729.5,-87 731.93,-86.27 734.42,-85.45 736.91,-84.59"/>
<polygon fill="midnightblue" stroke="midnightblue" points="738.19,-87.84 746.35,-81.09 735.76,-81.28 738.19,-87.84"/>
</g>
<!-- Node15 -->
<g id="node15" class="node">
<title>Node15</title>
<g id="a_node15"><a xlink:href="tcpacket__params_8h.html" target="_top" xlink:title="TCP のユーザー設定">
<polygon fill="white" stroke="black" points="419.5,-56.5 419.5,-86.5 563.5,-86.5 563.5,-56.5 419.5,-56.5"/>
<text text-anchor="start" x="427.5" y="-74.5" font-family="Helvetica,sans-Serif" font-size="10.00">src_user/Settings/TlmCmd</text>
<text text-anchor="middle" x="491.5" y="-63.5" font-family="Helvetica,sans-Serif" font-size="10.00">/Ccsds/tcpacket_params.h</text>
</a>
</g>
</g>
<!-- Node14&#45;&gt;Node15 -->
<g id="edge18" class="edge">
<title>Node14&#45;&gt;Node15</title>
<path fill="none" stroke="midnightblue" d="M491.5,-123.4C491.5,-115.64 491.5,-105.81 491.5,-96.86"/>
<polygon fill="midnightblue" stroke="midnightblue" points="495,-96.58 491.5,-86.58 488,-96.58 495,-96.58"/>
</g>
<!-- Node16&#45;&gt;Node14 -->
<g id="edge20" class="edge">
<title>Node16&#45;&gt;Node14</title>
<path fill="none" stroke="midnightblue" d="M488.61,-190.36C489.08,-182.23 489.62,-172.7 490.1,-164.11"/>
<polygon fill="midnightblue" stroke="midnightblue" points="493.61,-164.07 490.68,-153.89 486.62,-163.68 493.61,-164.07"/>
</g>
<!-- Node17&#45;&gt;Node7 -->
<g id="edge24" class="edge">
<title>Node17&#45;&gt;Node7</title>
<path fill="none" stroke="midnightblue" d="M539.35,-469.19C536.52,-433.99 529.22,-343.17 526.03,-303.51"/>
<polygon fill="midnightblue" stroke="midnightblue" points="529.5,-303.05 525.21,-293.36 522.53,-303.61 529.5,-303.05"/>
</g>
<!-- Node17&#45;&gt;Node9 -->
<g id="edge23" class="edge">
<title>Node17&#45;&gt;Node9</title>
<path fill="none" stroke="midnightblue" d="M549.53,-469.5C574.28,-432.1 646.92,-328.62 730.5,-268 753.07,-251.63 781.16,-238.78 805.45,-229.53"/>
<polygon fill="midnightblue" stroke="midnightblue" points="806.74,-232.79 814.9,-226.04 804.31,-226.22 806.74,-232.79"/>
</g>
<!-- Node17&#45;&gt;Node11 -->
<g id="edge29" class="edge">
<title>Node17&#45;&gt;Node11</title>
<path fill="none" stroke="midnightblue" d="M476.13,-481.22C387.64,-476.93 234.27,-464.99 189.5,-433 154.49,-407.98 105.32,-287.46 85.4,-235.7"/>
<polygon fill="midnightblue" stroke="midnightblue" points="88.55,-234.14 81.71,-226.04 82.01,-236.63 88.55,-234.14"/>
</g>
<!-- Node17&#45;&gt;Node18 -->
<g id="edge25" class="edge">
<title>Node17&#45;&gt;Node18</title>
<path fill="none" stroke="midnightblue" d="M506,-469.4C477.85,-457.89 438.49,-441.8 411.61,-430.81"/>
<polygon fill="midnightblue" stroke="midnightblue" points="412.89,-427.55 402.31,-427.01 410.24,-434.03 412.89,-427.55"/>
</g>
<!-- Node18&#45;&gt;Node3 -->
<g id="edge28" class="edge">
<title>Node18&#45;&gt;Node3</title>
<path fill="none" stroke="midnightblue" d="M386.62,-407.73C391.61,-399.2 399.4,-385.87 406.15,-374.33"/>
<polygon fill="midnightblue" stroke="midnightblue" points="409.24,-375.99 411.26,-365.59 403.19,-372.46 409.24,-375.99"/>
</g>
<!-- Node18&#45;&gt;Node7 -->
<g id="edge27" class="edge">
<title>Node18&#45;&gt;Node7</title>
<path fill="none" stroke="midnightblue" d="M410.02,-407.97C432.32,-400.09 462.9,-386.47 483.5,-366 501.45,-348.17 512.96,-320.85 519.08,-302.84"/>
<polygon fill="midnightblue" stroke="midnightblue" points="522.45,-303.81 522.14,-293.22 515.78,-301.69 522.45,-303.81"/>
</g>
<!-- Node18&#45;&gt;Node8 -->
<g id="edge26" class="edge">
<title>Node18&#45;&gt;Node8</title>
<path fill="none" stroke="midnightblue" d="M353.72,-407.98C311.65,-393.4 233.22,-359.25 200.5,-299 179.85,-260.97 237.39,-190.78 238.5,-190 298.65,-147.67 496.22,-172.11 567.5,-154 632.27,-137.54 703.76,-104.25 740.9,-85.72"/>
<polygon fill="midnightblue" stroke="midnightblue" points="742.65,-88.75 750.01,-81.12 739.5,-82.5 742.65,-88.75"/>
</g>
<!-- Node19&#45;&gt;Node9 -->
<g id="edge31" class="edge">
<title>Node19&#45;&gt;Node9</title>
<path fill="none" stroke="midnightblue" d="M683.31,-469.3C681.66,-441.51 681.29,-378.83 706.5,-335 733.79,-287.56 787.09,-251.38 823.25,-230.92"/>
<polygon fill="midnightblue" stroke="midnightblue" points="824.99,-233.96 832.05,-226.06 821.6,-227.83 824.99,-233.96"/>
</g>
<!-- Node22&#45;&gt;Node3 -->
<g id="edge37" class="edge">
<title>Node22&#45;&gt;Node3</title>
<path fill="none" stroke="midnightblue" d="M295.78,-402.4C319.28,-392.73 350.65,-379.82 375.93,-369.43"/>
<polygon fill="midnightblue" stroke="midnightblue" points="377.37,-372.62 385.28,-365.58 374.7,-366.14 377.37,-372.62"/>
</g>
<!-- Node22&#45;&gt;Node7 -->
<g id="edge36" class="edge">
<title>Node22&#45;&gt;Node7</title>
<path fill="none" stroke="midnightblue" d="M274.12,-402.34C290.97,-384.24 322.56,-353.09 355.5,-335 390.43,-315.81 433.53,-303.08 467.46,-295.2"/>
<polygon fill="midnightblue" stroke="midnightblue" points="468.23,-298.61 477.22,-293.01 466.7,-291.78 468.23,-298.61"/>
</g>
<!-- Node23&#45;&gt;Node3 -->
<g id="edge42" class="edge">
<title>Node23&#45;&gt;Node3</title>
<path fill="none" stroke="midnightblue" d="M800.36,-407.26C716.61,-395 569.54,-373.47 484.75,-361.05"/>
<polygon fill="midnightblue" stroke="midnightblue" points="485.13,-357.57 474.73,-359.59 484.11,-364.5 485.13,-357.57"/>
</g>
<!-- Node23&#45;&gt;Node7 -->
<g id="edge41" class="edge">
<title>Node23&#45;&gt;Node7</title>
<path fill="none" stroke="midnightblue" d="M815.27,-402.49C783.97,-393.03 742.46,-379.79 706.5,-366 650.06,-344.36 585.96,-314.33 550.89,-297.42"/>
<polygon fill="midnightblue" stroke="midnightblue" points="552.33,-294.23 541.8,-293.02 549.27,-300.53 552.33,-294.23"/>
</g>
<!-- Node23&#45;&gt;Node9 -->
<g id="edge39" class="edge">
<title>Node23&#45;&gt;Node9</title>
<path fill="none" stroke="midnightblue" d="M863.29,-402.44C862.79,-368.08 861.49,-279.46 860.86,-236.32"/>
<polygon fill="midnightblue" stroke="midnightblue" points="864.35,-236.1 860.71,-226.15 857.35,-236.2 864.35,-236.1"/>
</g>
<!-- Node24 -->
<g id="node24" class="node">
<title>Node24</title>
<g id="a_node24"><a xlink:href="mode__definitions_8h.html" target="_top" xlink:title="モード定義とモード遷移定義">
<polygon fill="white" stroke="black" points="891,-335.5 891,-365.5 1026,-365.5 1026,-335.5 891,-335.5"/>
<text text-anchor="start" x="899" y="-353.5" font-family="Helvetica,sans-Serif" font-size="10.00">src_user/Settings/Modes</text>
<text text-anchor="middle" x="958.5" y="-342.5" font-family="Helvetica,sans-Serif" font-size="10.00">/mode_definitions.h</text>
</a>
</g>
</g>
<!-- Node23&#45;&gt;Node24 -->
<g id="edge40" class="edge">
<title>Node23&#45;&gt;Node24</title>
<path fill="none" stroke="midnightblue" d="M884.11,-402.4C897.43,-393.28 914.96,-381.29 929.66,-371.24"/>
<polygon fill="midnightblue" stroke="midnightblue" points="931.65,-374.11 937.93,-365.58 927.7,-368.33 931.65,-374.11"/>
</g>
<!-- Node25 -->
<g id="node25" class="node">
<title>Node25</title>
<g id="a_node25"><a xlink:href="mode__manager__params_8h.html" target="_top" xlink:title="ModeMangaer のパラメーターオーバーライト">
<polygon fill="white" stroke="black" points="1044,-335.5 1044,-365.5 1191,-365.5 1191,-335.5 1044,-335.5"/>
<text text-anchor="start" x="1052" y="-353.5" font-family="Helvetica,sans-Serif" font-size="10.00">src_user/Settings/Modes</text>
<text text-anchor="middle" x="1117.5" y="-342.5" font-family="Helvetica,sans-Serif" font-size="10.00">/mode_manager_params.h</text>
</a>
</g>
</g>
<!-- Node23&#45;&gt;Node25 -->
<g id="edge43" class="edge">
<title>Node23&#45;&gt;Node25</title>
<path fill="none" stroke="midnightblue" d="M918.3,-402.48C957.73,-392.39 1011.05,-378.74 1052.6,-368.11"/>
<polygon fill="midnightblue" stroke="midnightblue" points="1053.54,-371.48 1062.36,-365.61 1051.8,-364.7 1053.54,-371.48"/>
</g>
<!-- Node26&#45;&gt;Node7 -->
<g id="edge46" class="edge">
<title>Node26&#45;&gt;Node7</title>
<path fill="none" stroke="midnightblue" d="M720.56,-335.48C674.58,-323.52 609.39,-306.57 567.03,-295.56"/>
<polygon fill="midnightblue" stroke="midnightblue" points="567.86,-292.16 557.3,-293.03 566.1,-298.93 567.86,-292.16"/>
</g>
<!-- Node26&#45;&gt;Node9 -->
<g id="edge45" class="edge">
<title>Node26&#45;&gt;Node9</title>
<path fill="none" stroke="midnightblue" d="M783.38,-335.3C798.25,-311.53 828.31,-263.46 846.2,-234.87"/>
<polygon fill="midnightblue" stroke="midnightblue" points="849.2,-236.66 851.54,-226.33 843.27,-232.95 849.2,-236.66"/>
</g>
<!-- Node27&#45;&gt;Node7 -->
<g id="edge50" class="edge">
<title>Node27&#45;&gt;Node7</title>
<path fill="none" stroke="midnightblue" d="M1424.22,-341.96C1399.23,-339.56 1371.17,-337.01 1345.5,-335 1078.29,-314.13 761.59,-296.72 611.6,-288.91"/>
<polygon fill="midnightblue" stroke="midnightblue" points="611.7,-285.41 601.53,-288.39 611.33,-292.4 611.7,-285.41"/>
</g>
<!-- Node27&#45;&gt;Node8 -->
<g id="edge48" class="edge">
<title>Node27&#45;&gt;Node8</title>
<path fill="none" stroke="midnightblue" d="M1572.61,-347.49C1657.46,-342.5 1779.12,-325.46 1732.5,-268 1612.36,-119.95 969.33,-81.51 804.84,-74.04"/>
<polygon fill="midnightblue" stroke="midnightblue" points="804.85,-70.53 794.71,-73.59 804.54,-77.53 804.85,-70.53"/>
</g>
<!-- Node27&#45;&gt;Node9 -->
<g id="edge49" class="edge">
<title>Node27&#45;&gt;Node9</title>
<path fill="none" stroke="midnightblue" d="M1512.3,-335.48C1528.02,-317.82 1549.38,-287.43 1531.5,-268 1491.94,-225 1104.88,-215.01 937.25,-212.69"/>
<polygon fill="midnightblue" stroke="midnightblue" points="937.06,-209.19 927.02,-212.56 936.97,-216.19 937.06,-209.19"/>
</g>
<!-- Node28 -->
<g id="node28" class="node">
<title>Node28</title>
<g id="a_node28"><a xlink:href="anomaly__group_8h.html" target="_top" xlink:title=" ">
<polygon fill="white" stroke="black" points="1577.5,-268.5 1577.5,-298.5 1723.5,-298.5 1723.5,-268.5 1577.5,-268.5"/>
<text text-anchor="start" x="1585.5" y="-286.5" font-family="Helvetica,sans-Serif" font-size="10.00">src_user/Settings/Anomaly</text>
<text text-anchor="middle" x="1650.5" y="-275.5" font-family="Helvetica,sans-Serif" font-size="10.00">Logger/anomaly_group.h</text>
</a>
</g>
</g>
<!-- Node27&#45;&gt;Node28 -->
<g id="edge51" class="edge">
<title>Node27&#45;&gt;Node28</title>
<path fill="none" stroke="midnightblue" d="M1531.48,-335.4C1553.99,-325.77 1584,-312.94 1608.26,-302.56"/>
<polygon fill="midnightblue" stroke="midnightblue" points="1609.76,-305.73 1617.58,-298.58 1607.01,-299.29 1609.76,-305.73"/>
</g>
<!-- Node29 -->
<g id="node29" class="node">
<title>Node29</title>
<g id="a_node29"><a xlink:href="anomaly__logger__params_8h.html" target="_top" xlink:title="ALのCoreパラメタのオーバーライド用ヘッダー">
<polygon fill="white" stroke="black" points="1373,-268.5 1373,-298.5 1522,-298.5 1522,-268.5 1373,-268.5"/>
<text text-anchor="start" x="1381" y="-286.5" font-family="Helvetica,sans-Serif" font-size="10.00">src_user/Settings/System</text>
<text text-anchor="middle" x="1447.5" y="-275.5" font-family="Helvetica,sans-Serif" font-size="10.00">/anomaly_logger_params.h</text>
</a>
</g>
</g>
<!-- Node27&#45;&gt;Node29 -->
<g id="edge52" class="edge">
<title>Node27&#45;&gt;Node29</title>
<path fill="none" stroke="midnightblue" d="M1487.43,-335.4C1480.82,-326.96 1472.27,-316.07 1464.78,-306.52"/>
<polygon fill="midnightblue" stroke="midnightblue" points="1467.47,-304.28 1458.54,-298.58 1461.96,-308.6 1467.47,-304.28"/>
</g>
<!-- Node30&#45;&gt;Node4 -->
<g id="edge55" class="edge">
<title>Node30&#45;&gt;Node4</title>
<path fill="none" stroke="midnightblue" d="M1208.91,-336.65C1206.07,-336.09 1203.25,-335.54 1200.5,-335 1115.71,-318.47 1071.38,-359.27 1009.5,-299 952.17,-243.16 1029.89,-177.72 971.5,-123 931.83,-85.82 783.1,-96.1 729.5,-87 722.04,-85.73 714.19,-84.32 706.47,-82.89"/>
<polygon fill="midnightblue" stroke="midnightblue" points="706.93,-79.42 696.45,-81.01 705.63,-86.3 706.93,-79.42"/>
</g>
<!-- Node30&#45;&gt;Node7 -->
<g id="edge56" class="edge">
<title>Node30&#45;&gt;Node7</title>
<path fill="none" stroke="midnightblue" d="M1208.97,-336.26C1206.11,-335.81 1203.28,-335.38 1200.5,-335 990.35,-306.1 741.01,-292.86 611.85,-287.56"/>
<polygon fill="midnightblue" stroke="midnightblue" points="611.76,-284.05 601.62,-287.14 611.47,-291.05 611.76,-284.05"/>
</g>
<!-- Node30&#45;&gt;Node8 -->
<g id="edge54" class="edge">
<title>Node30&#45;&gt;Node8</title>
<path fill="none" stroke="midnightblue" d="M1253.15,-335.5C1239.61,-325.56 1221.21,-311.77 1205.5,-299 1113.36,-224.1 1110.68,-176.15 1004.5,-123 939.22,-90.32 853.62,-78.75 804.88,-74.68"/>
<polygon fill="midnightblue" stroke="midnightblue" points="805.01,-71.18 794.77,-73.9 804.47,-78.16 805.01,-71.18"/>
</g>
<!-- Node30&#45;&gt;Node9 -->
<g id="edge57" class="edge">
<title>Node30&#45;&gt;Node9</title>
<path fill="none" stroke="midnightblue" d="M1208.92,-336.56C1206.08,-336.02 1203.26,-335.5 1200.5,-335 1101.28,-317.04 1069.32,-338.4 976.5,-299 939.56,-283.32 903.64,-253.43 881.8,-233.11"/>
<polygon fill="midnightblue" stroke="midnightblue" points="884.08,-230.44 874.41,-226.1 879.26,-235.52 884.08,-230.44"/>
</g>
<!-- Node31 -->
<g id="node31" class="node">
<title>Node31</title>
<g id="a_node31"><a xlink:href="event__logger__group_8h.html" target="_top" xlink:title="event_logger の イベント識別IDを定義">
<polygon fill="white" stroke="black" points="1214.5,-268.5 1214.5,-298.5 1354.5,-298.5 1354.5,-268.5 1214.5,-268.5"/>
<text text-anchor="start" x="1222.5" y="-286.5" font-family="Helvetica,sans-Serif" font-size="10.00">src_user/Settings/System</text>
<text text-anchor="middle" x="1284.5" y="-275.5" font-family="Helvetica,sans-Serif" font-size="10.00">/event_logger_group.h</text>
</a>
</g>
</g>
<!-- Node30&#45;&gt;Node31 -->
<g id="edge58" class="edge">
<title>Node30&#45;&gt;Node31</title>
<path fill="none" stroke="midnightblue" d="M1275.1,-335.4C1276.55,-327.56 1278.39,-317.6 1280.06,-308.57"/>
<polygon fill="midnightblue" stroke="midnightblue" points="1283.53,-309.05 1281.9,-298.58 1276.64,-307.77 1283.53,-309.05"/>
</g>
<!-- Node32 -->
<g id="node32" class="node">
<title>Node32</title>
<g id="a_node32"><a xlink:href="event__logger__params_8h.html" target="_top" xlink:title="event_logger の各種設定 各パラメタ類の詳細は event_logger.h を参照すること">
<polygon fill="white" stroke="black" points="1018.5,-268.5 1018.5,-298.5 1158.5,-298.5 1158.5,-268.5 1018.5,-268.5"/>
<text text-anchor="start" x="1026.5" y="-286.5" font-family="Helvetica,sans-Serif" font-size="10.00">src_user/Settings/System</text>
<text text-anchor="middle" x="1088.5" y="-275.5" font-family="Helvetica,sans-Serif" font-size="10.00">/event_logger_params.h</text>
</a>
</g>
</g>
<!-- Node30&#45;&gt;Node32 -->
<g id="edge59" class="edge">
<title>Node30&#45;&gt;Node32</title>
<path fill="none" stroke="midnightblue" d="M1232.57,-335.4C1204.85,-325.6 1167.71,-312.48 1138.08,-302.02"/>
<polygon fill="midnightblue" stroke="midnightblue" points="1138.94,-298.61 1128.35,-298.58 1136.61,-305.21 1138.94,-298.61"/>
</g>
</g>
</svg>
