<?xml version="1.0" encoding="UTF-8" standalone="no"?>
<!DOCTYPE svg PUBLIC "-//W3C//DTD SVG 1.1//EN"
 "http://www.w3.org/Graphics/SVG/1.1/DTD/svg11.dtd">
<!-- Generated by graphviz version 2.43.0 (0)
 -->
<!-- Title: T2M_form_m_pdu Pages: 1 -->
<svg width="1375pt" height="491pt"
 viewBox="0.00 0.00 1375.00 491.00" xmlns="http://www.w3.org/2000/svg" xmlns:xlink="http://www.w3.org/1999/xlink">
<g id="graph0" class="graph" transform="scale(1 1) rotate(0) translate(4 487)">
<title>T2M_form_m_pdu</title>
<polygon fill="white" stroke="transparent" points="-4,4 -4,-487 1371,-487 1371,4 -4,4"/>
<!-- Node1 -->
<g id="node1" class="node">
<title>Node1</title>
<g id="a_node1"><a xlink:title="TCPacket を M_PDU に変換する">
<polygon fill="#bfbfbf" stroke="black" points="0,-311.5 0,-330.5 104,-330.5 104,-311.5 0,-311.5"/>
<text text-anchor="middle" x="52" y="-318.5" font-family="Helvetica,sans-Serif" font-size="10.00">T2M_form_m_pdu</text>
</a>
</g>
</g>
<!-- Node2 -->
<g id="node2" class="node">
<title>Node2</title>
<g id="a_node2"><a xlink:href="m__pdu_8c.html#a019bb2c9d8cf7368e9fa6548c40afd2a" target="_top" xlink:title=" ">
<polygon fill="white" stroke="black" points="141,-463.5 141,-482.5 273,-482.5 273,-463.5 141,-463.5"/>
<text text-anchor="middle" x="207" y="-470.5" font-family="Helvetica,sans-Serif" font-size="10.00">M_PDU_set_1st_hdr_ptr</text>
</a>
</g>
</g>
<!-- Node1&#45;&gt;Node2 -->
<g id="edge1" class="edge">
<title>Node1&#45;&gt;Node2</title>
<path fill="none" stroke="midnightblue" d="M56.56,-330.73C66.08,-355.33 94.49,-420.41 140,-454 142.64,-455.95 145.47,-457.7 148.43,-459.27"/>
<polygon fill="midnightblue" stroke="midnightblue" points="147.04,-462.48 157.59,-463.46 149.95,-456.11 147.04,-462.48"/>
</g>
<!-- Node3 -->
<g id="node3" class="node">
<title>Node3</title>
<g id="a_node3"><a xlink:href="m__pdu_8c.html#a07652bd97f36c9bfe866e789651cbe27" target="_top" xlink:title=" ">
<polygon fill="white" stroke="black" points="157.5,-425.5 157.5,-444.5 256.5,-444.5 256.5,-425.5 157.5,-425.5"/>
<text text-anchor="middle" x="207" y="-432.5" font-family="Helvetica,sans-Serif" font-size="10.00">M_PDU_set_data</text>
</a>
</g>
</g>
<!-- Node1&#45;&gt;Node3 -->
<g id="edge2" class="edge">
<title>Node1&#45;&gt;Node3</title>
<path fill="none" stroke="midnightblue" d="M59.15,-330.7C71.86,-349.93 102.93,-393.03 140,-416 143.38,-418.1 147,-419.97 150.74,-421.64"/>
<polygon fill="midnightblue" stroke="midnightblue" points="149.63,-424.96 160.22,-425.39 152.21,-418.45 149.63,-424.96"/>
</g>
<!-- Node4 -->
<g id="node4" class="node">
<title>Node4</title>
<g id="a_node4"><a xlink:href="packet__list_8c.html#ad1429f7199a84346e4e5177b9b2adc62" target="_top" xlink:title="先頭 Node を落とす">
<polygon fill="white" stroke="black" points="155,-387.5 155,-406.5 259,-406.5 259,-387.5 155,-387.5"/>
<text text-anchor="middle" x="207" y="-394.5" font-family="Helvetica,sans-Serif" font-size="10.00">PL_drop_executed</text>
</a>
</g>
</g>
<!-- Node1&#45;&gt;Node4 -->
<g id="edge3" class="edge">
<title>Node1&#45;&gt;Node4</title>
<path fill="none" stroke="midnightblue" d="M64.99,-330.55C81.17,-343.02 111.28,-364.82 140,-378 145.01,-380.3 150.37,-382.39 155.78,-384.27"/>
<polygon fill="midnightblue" stroke="midnightblue" points="154.92,-387.67 165.52,-387.42 157.08,-381.01 154.92,-387.67"/>
</g>
<!-- Node6 -->
<g id="node6" class="node">
<title>Node6</title>
<g id="a_node6"><a xlink:href="packet__list_8c.html#a8940e0130b272005921972f331cc6cc1" target="_top" xlink:title="PacketList の active な先頭 Node を取得">
<polygon fill="white" stroke="black" points="168,-349.5 168,-368.5 246,-368.5 246,-349.5 168,-349.5"/>
<text text-anchor="middle" x="207" y="-356.5" font-family="Helvetica,sans-Serif" font-size="10.00">PL_get_head</text>
</a>
</g>
</g>
<!-- Node1&#45;&gt;Node6 -->
<g id="edge5" class="edge">
<title>Node1&#45;&gt;Node6</title>
<path fill="none" stroke="midnightblue" d="M91.61,-330.59C111.78,-335.6 136.66,-341.78 158.06,-347.09"/>
<polygon fill="midnightblue" stroke="midnightblue" points="157.39,-350.53 167.93,-349.55 159.07,-343.74 157.39,-350.53"/>
</g>
<!-- Node7 -->
<g id="node7" class="node">
<title>Node7</title>
<g id="a_node7"><a xlink:href="packet__list_8c.html#afefb37c36db47052d2e2b7e4d6c2274b" target="_top" xlink:title="PacketList が空かどうか">
<polygon fill="white" stroke="black" points="168,-311.5 168,-330.5 246,-330.5 246,-311.5 168,-311.5"/>
<text text-anchor="middle" x="207" y="-318.5" font-family="Helvetica,sans-Serif" font-size="10.00">PL_is_empty</text>
</a>
</g>
</g>
<!-- Node1&#45;&gt;Node7 -->
<g id="edge6" class="edge">
<title>Node1&#45;&gt;Node7</title>
<path fill="none" stroke="midnightblue" d="M104.37,-321C121.48,-321 140.48,-321 157.37,-321"/>
<polygon fill="midnightblue" stroke="midnightblue" points="157.59,-324.5 167.59,-321 157.59,-317.5 157.59,-324.5"/>
</g>
<!-- Node8 -->
<g id="node8" class="node">
<title>Node8</title>
<g id="a_node8"><a xlink:href="packet__list_8c.html#afaf80120b8b97c0fdf3099e13e9019be" target="_top" xlink:title="PacketList の末尾に packet を挿入">
<polygon fill="white" stroke="black" points="164.5,-273.5 164.5,-292.5 249.5,-292.5 249.5,-273.5 164.5,-273.5"/>
<text text-anchor="middle" x="207" y="-280.5" font-family="Helvetica,sans-Serif" font-size="10.00">PL_push_back</text>
</a>
</g>
</g>
<!-- Node1&#45;&gt;Node8 -->
<g id="edge7" class="edge">
<title>Node1&#45;&gt;Node8</title>
<path fill="none" stroke="midnightblue" d="M91.61,-311.41C111.71,-306.42 136.48,-300.27 157.82,-294.97"/>
<polygon fill="midnightblue" stroke="midnightblue" points="158.81,-298.33 167.67,-292.52 157.12,-291.53 158.81,-298.33"/>
</g>
<!-- Node10 -->
<g id="node10" class="node">
<title>Node10</title>
<g id="a_node10"><a xlink:href="time__manager_8c.html#a576e42803f8f3896524dbb266a47a08f" target="_top" xlink:title="現在の total_cycle を返す">
<polygon fill="white" stroke="black" points="140,-224 140,-254 274,-254 274,-224 140,-224"/>
<text text-anchor="start" x="148" y="-242" font-family="Helvetica,sans-Serif" font-size="10.00">TMGR_get_master_total</text>
<text text-anchor="middle" x="207" y="-231" font-family="Helvetica,sans-Serif" font-size="10.00">_cycle</text>
</a>
</g>
</g>
<!-- Node1&#45;&gt;Node10 -->
<g id="edge9" class="edge">
<title>Node1&#45;&gt;Node10</title>
<path fill="none" stroke="midnightblue" d="M65.73,-311.38C82.22,-299.22 112.16,-278.18 140,-264 144.04,-261.94 148.29,-259.96 152.61,-258.07"/>
<polygon fill="midnightblue" stroke="midnightblue" points="154.23,-261.18 162.1,-254.09 151.53,-254.72 154.23,-261.18"/>
</g>
<!-- Node12 -->
<g id="node12" class="node">
<title>Node12</title>
<g id="a_node12"><a xlink:href="tlm__space__packet_8c.html#a51745cb62959205762b4b2430f81804f" target="_top" xlink:title="Packet Length を取得">
<polygon fill="white" stroke="black" points="150.5,-185.5 150.5,-204.5 263.5,-204.5 263.5,-185.5 150.5,-185.5"/>
<text text-anchor="middle" x="207" y="-192.5" font-family="Helvetica,sans-Serif" font-size="10.00">TSP_get_packet_len</text>
</a>
</g>
</g>
<!-- Node1&#45;&gt;Node12 -->
<g id="edge11" class="edge">
<title>Node1&#45;&gt;Node12</title>
<path fill="none" stroke="midnightblue" d="M58.16,-311.49C69.89,-290.77 100.6,-241.31 140,-215 143.74,-212.5 147.81,-210.3 152.02,-208.38"/>
<polygon fill="midnightblue" stroke="midnightblue" points="153.46,-211.57 161.41,-204.57 150.83,-205.08 153.46,-211.57"/>
</g>
<!-- Node18 -->
<g id="node18" class="node">
<title>Node18</title>
<g id="a_node18"><a xlink:href="tlm__space__packet_8c.html#a6a3a85b0640f6dfa288a01adca693958" target="_top" xlink:title="パケット全体を 0x00 クリアし， fill_size に等しいサイズのパケットを生成する">
<polygon fill="white" stroke="black" points="146,-139.5 146,-158.5 268,-158.5 268,-139.5 146,-139.5"/>
<text text-anchor="middle" x="207" y="-146.5" font-family="Helvetica,sans-Serif" font-size="10.00">TSP_setup_fill_packet</text>
</a>
</g>
</g>
<!-- Node1&#45;&gt;Node18 -->
<g id="edge17" class="edge">
<title>Node1&#45;&gt;Node18</title>
<path fill="none" stroke="midnightblue" d="M56.27,-311.45C65.47,-285.96 93.89,-215.58 140,-176 146.34,-170.55 153.94,-166.1 161.67,-162.5"/>
<polygon fill="midnightblue" stroke="midnightblue" points="163.26,-165.63 171.11,-158.52 160.54,-159.18 163.26,-165.63"/>
</g>
<!-- Node5 -->
<g id="node5" class="node">
<title>Node5</title>
<g id="a_node5"><a xlink:href="packet__list_8c.html#a73f448f3b619d2a36949a483f3c70d8a" target="_top" xlink:title="先頭 Node を落とす">
<polygon fill="white" stroke="black" points="331,-387.5 331,-406.5 420,-406.5 420,-387.5 331,-387.5"/>
<text text-anchor="middle" x="375.5" y="-394.5" font-family="Helvetica,sans-Serif" font-size="10.00">PL_drop_head_</text>
</a>
</g>
</g>
<!-- Node4&#45;&gt;Node5 -->
<g id="edge4" class="edge">
<title>Node4&#45;&gt;Node5</title>
<path fill="none" stroke="midnightblue" d="M259.31,-397C278.84,-397 301.13,-397 320.87,-397"/>
<polygon fill="midnightblue" stroke="midnightblue" points="320.93,-400.5 330.93,-397 320.93,-393.5 320.93,-400.5"/>
</g>
<!-- Node9 -->
<g id="node9" class="node">
<title>Node9</title>
<g id="a_node9"><a xlink:href="packet__list_8c.html#a16ea3d3b9925532e2772678215e38abb" target="_top" xlink:title="未使用 Node を新規に取得">
<polygon fill="white" stroke="black" points="321.5,-273.5 321.5,-292.5 429.5,-292.5 429.5,-273.5 321.5,-273.5"/>
<text text-anchor="middle" x="375.5" y="-280.5" font-family="Helvetica,sans-Serif" font-size="10.00">PL_get_free_node_</text>
</a>
</g>
</g>
<!-- Node8&#45;&gt;Node9 -->
<g id="edge8" class="edge">
<title>Node8&#45;&gt;Node9</title>
<path fill="none" stroke="midnightblue" d="M249.59,-283C268.21,-283 290.58,-283 311.21,-283"/>
<polygon fill="midnightblue" stroke="midnightblue" points="311.49,-286.5 321.49,-283 311.49,-279.5 311.49,-286.5"/>
</g>
<!-- Node11 -->
<g id="node11" class="node">
<title>Node11</title>
<g id="a_node11"><a xlink:href="obc__time_8c.html#ac42c1d017a2cbb8dab608771907c97d5" target="_top" xlink:title="引数で指定した ObcTime の total_cycle を返す">
<polygon fill="white" stroke="black" points="314,-229.5 314,-248.5 437,-248.5 437,-229.5 314,-229.5"/>
<text text-anchor="middle" x="375.5" y="-236.5" font-family="Helvetica,sans-Serif" font-size="10.00">OBCT_get_total_cycle</text>
</a>
</g>
</g>
<!-- Node10&#45;&gt;Node11 -->
<g id="edge10" class="edge">
<title>Node10&#45;&gt;Node11</title>
<path fill="none" stroke="midnightblue" d="M274.28,-239C283.98,-239 293.99,-239 303.77,-239"/>
<polygon fill="midnightblue" stroke="midnightblue" points="303.85,-242.5 313.85,-239 303.84,-235.5 303.85,-242.5"/>
</g>
<!-- Node13 -->
<g id="node13" class="node">
<title>Node13</title>
<g id="a_node13"><a xlink:href="space__packet_8c.html#a25afed909fb67da49f5ac9921a23744f" target="_top" xlink:title="Packet Length を取得">
<polygon fill="white" stroke="black" points="322,-188.5 322,-207.5 429,-207.5 429,-188.5 322,-188.5"/>
<text text-anchor="middle" x="375.5" y="-195.5" font-family="Helvetica,sans-Serif" font-size="10.00">SP_get_packet_len</text>
</a>
</g>
</g>
<!-- Node12&#45;&gt;Node13 -->
<g id="edge12" class="edge">
<title>Node12&#45;&gt;Node13</title>
<path fill="none" stroke="midnightblue" d="M263.91,-196.01C279.25,-196.28 295.99,-196.59 311.69,-196.87"/>
<polygon fill="midnightblue" stroke="midnightblue" points="311.78,-200.37 321.84,-197.05 311.9,-193.37 311.78,-200.37"/>
</g>
<!-- Node14 -->
<g id="node14" class="node">
<title>Node14</title>
<g id="a_node14"><a xlink:href="space__packet_8c.html#ad5dd44fdb4e6c00e7dbb311d3aaee3d3" target="_top" xlink:title="Packet Data Length を取得">
<polygon fill="white" stroke="black" points="477,-256.5 477,-275.5 611,-275.5 611,-256.5 477,-256.5"/>
<text text-anchor="middle" x="544" y="-263.5" font-family="Helvetica,sans-Serif" font-size="10.00">SP_get_packet_data_len</text>
</a>
</g>
</g>
<!-- Node13&#45;&gt;Node14 -->
<g id="edge13" class="edge">
<title>Node13&#45;&gt;Node14</title>
<path fill="none" stroke="midnightblue" d="M406.58,-207.6C417.5,-211.26 429.89,-215.61 441,-220 466,-229.87 493.77,-242.51 514.01,-252.04"/>
<polygon fill="midnightblue" stroke="midnightblue" points="512.77,-255.32 523.3,-256.44 515.77,-249 512.77,-255.32"/>
</g>
<!-- Node15 -->
<g id="node15" class="node">
<title>Node15</title>
<g id="a_node15"><a xlink:href="space__packet_8c.html#a300c7fc3dea91319b0fa2f039f27d5eb" target="_top" xlink:title="packet に格納された param を取得">
<polygon fill="white" stroke="black" points="975,-219 975,-249 1109,-249 1109,-219 975,-219"/>
<text text-anchor="start" x="983" y="-237" font-family="Helvetica,sans-Serif" font-size="10.00">SP_extract_param_from</text>
<text text-anchor="middle" x="1042" y="-226" font-family="Helvetica,sans-Serif" font-size="10.00">_packet</text>
</a>
</g>
</g>
<!-- Node14&#45;&gt;Node15 -->
<g id="edge14" class="edge">
<title>Node14&#45;&gt;Node15</title>
<path fill="none" stroke="midnightblue" d="M611.17,-268.49C689.69,-270.51 824.4,-271.09 939,-257 950.29,-255.61 962.16,-253.53 973.65,-251.17"/>
<polygon fill="midnightblue" stroke="midnightblue" points="974.58,-254.55 983.63,-249.03 973.12,-247.7 974.58,-254.55"/>
</g>
<!-- Node16 -->
<g id="node16" class="node">
<title>Node16</title>
<g id="a_node16"><a xlink:href="endian_8c.html#af3c71c10af16134e94da32e1e0d8d0f8" target="_top" xlink:title="エンディアンを考慮した memcpy">
<polygon fill="white" stroke="black" points="1145,-157.5 1145,-176.5 1248,-176.5 1248,-157.5 1145,-157.5"/>
<text text-anchor="middle" x="1196.5" y="-164.5" font-family="Helvetica,sans-Serif" font-size="10.00">ENDIAN_memcpy</text>
</a>
</g>
</g>
<!-- Node15&#45;&gt;Node16 -->
<g id="edge15" class="edge">
<title>Node15&#45;&gt;Node16</title>
<path fill="none" stroke="midnightblue" d="M1077.22,-218.96C1103.39,-207.47 1139.15,-191.76 1164.48,-180.63"/>
<polygon fill="midnightblue" stroke="midnightblue" points="1165.89,-183.83 1173.64,-176.6 1163.08,-177.42 1165.89,-183.83"/>
</g>
<!-- Node17 -->
<g id="node17" class="node">
<title>Node17</title>
<g id="a_node17"><a xlink:href="endian_8c.html#a3f28de556ac6792695854c7b4f437925" target="_top" xlink:title="エンディアンの変更">
<polygon fill="white" stroke="black" points="1284,-157.5 1284,-176.5 1367,-176.5 1367,-157.5 1284,-157.5"/>
<text text-anchor="middle" x="1325.5" y="-164.5" font-family="Helvetica,sans-Serif" font-size="10.00">ENDIAN_conv</text>
</a>
</g>
</g>
<!-- Node16&#45;&gt;Node17 -->
<g id="edge16" class="edge">
<title>Node16&#45;&gt;Node17</title>
<path fill="none" stroke="midnightblue" d="M1248.06,-167C1256.52,-167 1265.3,-167 1273.76,-167"/>
<polygon fill="midnightblue" stroke="midnightblue" points="1273.88,-170.5 1283.88,-167 1273.88,-163.5 1273.88,-170.5"/>
</g>
<!-- Node19 -->
<g id="node19" class="node">
<title>Node19</title>
<g id="a_node19"><a xlink:href="tlm__space__packet_8c.html#a1004b5815cc4b83d1205e772508b0cc9" target="_top" xlink:title="Primary Header を構築">
<polygon fill="white" stroke="black" points="310,-123.5 310,-142.5 441,-142.5 441,-123.5 310,-123.5"/>
<text text-anchor="middle" x="375.5" y="-130.5" font-family="Helvetica,sans-Serif" font-size="10.00">TSP_setup_primary_hdr</text>
</a>
</g>
</g>
<!-- Node18&#45;&gt;Node19 -->
<g id="edge18" class="edge">
<title>Node18&#45;&gt;Node19</title>
<path fill="none" stroke="midnightblue" d="M268.11,-143.22C278.42,-142.23 289.24,-141.19 299.87,-140.17"/>
<polygon fill="midnightblue" stroke="midnightblue" points="300.36,-143.64 309.98,-139.2 299.69,-136.67 300.36,-143.64"/>
</g>
<!-- Node20 -->
<g id="node20" class="node">
<title>Node20</title>
<g id="a_node20"><a xlink:href="tlm__space__packet_8c.html#a79a7575999ff965ea1c95125e6b017fa" target="_top" xlink:title="APID を設定">
<polygon fill="white" stroke="black" points="503.5,-199.5 503.5,-218.5 584.5,-218.5 584.5,-199.5 503.5,-199.5"/>
<text text-anchor="middle" x="544" y="-206.5" font-family="Helvetica,sans-Serif" font-size="10.00">TSP_set_apid</text>
</a>
</g>
</g>
<!-- Node19&#45;&gt;Node20 -->
<g id="edge19" class="edge">
<title>Node19&#45;&gt;Node20</title>
<path fill="none" stroke="midnightblue" d="M397.59,-142.63C426.74,-155.93 479.51,-180.02 512.83,-195.23"/>
<polygon fill="midnightblue" stroke="midnightblue" points="511.53,-198.48 522.08,-199.45 514.44,-192.12 511.53,-198.48"/>
</g>
<!-- Node23 -->
<g id="node23" class="node">
<title>Node23</title>
<g id="a_node23"><a xlink:href="tlm__space__packet_8c.html#abba748fe8e777a580261c16ee3ba07e8" target="_top" xlink:title="共通部分の Header を構築">
<polygon fill="white" stroke="black" points="482,-123.5 482,-142.5 606,-142.5 606,-123.5 482,-123.5"/>
<text text-anchor="middle" x="544" y="-130.5" font-family="Helvetica,sans-Serif" font-size="10.00">TSP_set_common_hdr</text>
</a>
</g>
</g>
<!-- Node19&#45;&gt;Node23 -->
<g id="edge23" class="edge">
<title>Node19&#45;&gt;Node23</title>
<path fill="none" stroke="midnightblue" d="M441.35,-133C451.35,-133 461.72,-133 471.85,-133"/>
<polygon fill="midnightblue" stroke="midnightblue" points="471.87,-136.5 481.87,-133 471.87,-129.5 471.87,-136.5"/>
</g>
<!-- Node32 -->
<g id="node32" class="node">
<title>Node32</title>
<g id="a_node32"><a xlink:href="tlm__space__packet_8c.html#adc19b780aaf01a516d07c48c4d52c21b" target="_top" xlink:title="Packet Length を設定">
<polygon fill="white" stroke="black" points="487.5,-76.5 487.5,-95.5 600.5,-95.5 600.5,-76.5 487.5,-76.5"/>
<text text-anchor="middle" x="544" y="-83.5" font-family="Helvetica,sans-Serif" font-size="10.00">TSP_set_packet_len</text>
</a>
</g>
</g>
<!-- Node19&#45;&gt;Node32 -->
<g id="edge36" class="edge">
<title>Node19&#45;&gt;Node32</title>
<path fill="none" stroke="midnightblue" d="M410.19,-123.49C435.84,-116.25 471.34,-106.23 499.19,-98.37"/>
<polygon fill="midnightblue" stroke="midnightblue" points="500.4,-101.66 509.07,-95.58 498.5,-94.93 500.4,-101.66"/>
</g>
<!-- Node35 -->
<g id="node35" class="node">
<title>Node35</title>
<g id="a_node35"><a xlink:href="tlm__space__packet_8c.html#adfbc7ce2baafa2f87e7bd9f136610eeb" target="_top" xlink:title="Sequence Count を設定">
<polygon fill="white" stroke="black" points="489,-19.5 489,-38.5 599,-38.5 599,-19.5 489,-19.5"/>
<text text-anchor="middle" x="544" y="-26.5" font-family="Helvetica,sans-Serif" font-size="10.00">TSP_set_seq_count</text>
</a>
</g>
</g>
<!-- Node19&#45;&gt;Node35 -->
<g id="edge40" class="edge">
<title>Node19&#45;&gt;Node35</title>
<path fill="none" stroke="midnightblue" d="M390.64,-123.33C409.94,-110.23 445.71,-86.26 477,-67 490.01,-58.99 504.72,-50.47 516.95,-43.53"/>
<polygon fill="midnightblue" stroke="midnightblue" points="518.75,-46.53 525.74,-38.57 515.31,-40.44 518.75,-46.53"/>
</g>
<!-- Node21 -->
<g id="node21" class="node">
<title>Node21</title>
<g id="a_node21"><a xlink:href="space__packet_8c.html#afa5b380432a9ac74e3e8ed05dbcb2d5b" target="_top" xlink:title="APID を設定">
<polygon fill="white" stroke="black" points="834.5,-228.5 834.5,-247.5 909.5,-247.5 909.5,-228.5 834.5,-228.5"/>
<text text-anchor="middle" x="872" y="-235.5" font-family="Helvetica,sans-Serif" font-size="10.00">SP_set_apid</text>
</a>
</g>
</g>
<!-- Node20&#45;&gt;Node21 -->
<g id="edge20" class="edge">
<title>Node20&#45;&gt;Node21</title>
<path fill="none" stroke="midnightblue" d="M584.71,-213.02C603.58,-214.89 626.45,-217.12 647,-219 708.12,-224.59 778.67,-230.48 824.01,-234.19"/>
<polygon fill="midnightblue" stroke="midnightblue" points="823.87,-237.69 834.12,-235.02 824.44,-230.72 823.87,-237.69"/>
</g>
<!-- Node22 -->
<g id="node22" class="node">
<title>Node22</title>
<g id="a_node22"><a xlink:href="space__packet_8c.html#a9d4e5051b01d74f88ee13ce05f61b392" target="_top" xlink:title="packet に param を格納">
<polygon fill="white" stroke="black" points="985.5,-128 985.5,-158 1098.5,-158 1098.5,-128 985.5,-128"/>
<text text-anchor="start" x="993.5" y="-146" font-family="Helvetica,sans-Serif" font-size="10.00">SP_insert_param_to</text>
<text text-anchor="middle" x="1042" y="-135" font-family="Helvetica,sans-Serif" font-size="10.00">_packet</text>
</a>
</g>
</g>
<!-- Node21&#45;&gt;Node22 -->
<g id="edge21" class="edge">
<title>Node21&#45;&gt;Node22</title>
<path fill="none" stroke="midnightblue" d="M909.51,-230.02C919.35,-227.19 929.81,-223.56 939,-219 968.04,-204.6 997.31,-181.73 1017,-164.83"/>
<polygon fill="midnightblue" stroke="midnightblue" points="1019.34,-167.44 1024.57,-158.23 1014.73,-162.17 1019.34,-167.44"/>
</g>
<!-- Node22&#45;&gt;Node16 -->
<g id="edge22" class="edge">
<title>Node22&#45;&gt;Node16</title>
<path fill="none" stroke="midnightblue" d="M1098.92,-151.8C1110.49,-153.62 1122.74,-155.55 1134.48,-157.4"/>
<polygon fill="midnightblue" stroke="midnightblue" points="1134.22,-160.9 1144.64,-159 1135.31,-153.98 1134.22,-160.9"/>
</g>
<!-- Node24 -->
<g id="node24" class="node">
<title>Node24</title>
<g id="a_node24"><a xlink:href="tlm__space__packet_8c.html#a086b20222708c5b7a9aaace514d19500" target="_top" xlink:title="Secondary Header Flag を設定">
<polygon fill="white" stroke="black" points="647,-190.5 647,-209.5 769,-209.5 769,-190.5 647,-190.5"/>
<text text-anchor="middle" x="708" y="-197.5" font-family="Helvetica,sans-Serif" font-size="10.00">TSP_set_2nd_hdr_flag</text>
</a>
</g>
</g>
<!-- Node23&#45;&gt;Node24 -->
<g id="edge24" class="edge">
<title>Node23&#45;&gt;Node24</title>
<path fill="none" stroke="midnightblue" d="M563.47,-142.61C583.66,-152.89 617.11,-169.3 647,-181 652.54,-183.17 658.44,-185.28 664.29,-187.25"/>
<polygon fill="midnightblue" stroke="midnightblue" points="663.43,-190.65 674.03,-190.43 665.61,-184 663.43,-190.65"/>
</g>
<!-- Node26 -->
<g id="node26" class="node">
<title>Node26</title>
<g id="a_node26"><a xlink:href="tlm__space__packet_8c.html#a2dde2d41faea54b0997599427b64796a" target="_top" xlink:title="Sequence Flag を設定">
<polygon fill="white" stroke="black" points="657.5,-152.5 657.5,-171.5 758.5,-171.5 758.5,-152.5 657.5,-152.5"/>
<text text-anchor="middle" x="708" y="-159.5" font-family="Helvetica,sans-Serif" font-size="10.00">TSP_set_seq_flag</text>
</a>
</g>
</g>
<!-- Node23&#45;&gt;Node26 -->
<g id="edge27" class="edge">
<title>Node23&#45;&gt;Node26</title>
<path fill="none" stroke="midnightblue" d="M598.49,-142.58C614.07,-145.36 631.18,-148.43 647.12,-151.28"/>
<polygon fill="midnightblue" stroke="midnightblue" points="646.94,-154.8 657.4,-153.12 648.17,-147.91 646.94,-154.8"/>
</g>
<!-- Node28 -->
<g id="node28" class="node">
<title>Node28</title>
<g id="a_node28"><a xlink:href="tlm__space__packet_8c.html#a1b92e3806a30d3049d18eea341ee0c26" target="_top" xlink:title="Packet Type を設定">
<polygon fill="white" stroke="black" points="667,-114.5 667,-133.5 749,-133.5 749,-114.5 667,-114.5"/>
<text text-anchor="middle" x="708" y="-121.5" font-family="Helvetica,sans-Serif" font-size="10.00">TSP_set_type</text>
</a>
</g>
</g>
<!-- Node23&#45;&gt;Node28 -->
<g id="edge30" class="edge">
<title>Node23&#45;&gt;Node28</title>
<path fill="none" stroke="midnightblue" d="M606.25,-129.6C622.86,-128.67 640.65,-127.69 656.59,-126.8"/>
<polygon fill="midnightblue" stroke="midnightblue" points="656.97,-130.28 666.76,-126.24 656.58,-123.3 656.97,-130.28"/>
</g>
<!-- Node30 -->
<g id="node30" class="node">
<title>Node30</title>
<g id="a_node30"><a xlink:href="tlm__space__packet_8c.html#a725157c412be020faec3736821be8b6b" target="_top" xlink:title="Version No を設定">
<polygon fill="white" stroke="black" points="670,-76.5 670,-95.5 746,-95.5 746,-76.5 670,-76.5"/>
<text text-anchor="middle" x="708" y="-83.5" font-family="Helvetica,sans-Serif" font-size="10.00">TSP_set_ver</text>
</a>
</g>
</g>
<!-- Node23&#45;&gt;Node30 -->
<g id="edge33" class="edge">
<title>Node23&#45;&gt;Node30</title>
<path fill="none" stroke="midnightblue" d="M577.78,-123.49C602.73,-116.25 637.28,-106.23 664.37,-98.37"/>
<polygon fill="midnightblue" stroke="midnightblue" points="665.36,-101.73 673.99,-95.58 663.41,-95 665.36,-101.73"/>
</g>
<!-- Node25 -->
<g id="node25" class="node">
<title>Node25</title>
<g id="a_node25"><a xlink:href="space__packet_8c.html#aa8abca9ee84afbb20102452e81e48b5b" target="_top" xlink:title="Secondary Header Flag を設定">
<polygon fill="white" stroke="black" points="814,-190.5 814,-209.5 930,-209.5 930,-190.5 814,-190.5"/>
<text text-anchor="middle" x="872" y="-197.5" font-family="Helvetica,sans-Serif" font-size="10.00">SP_set_2nd_hdr_flag</text>
</a>
</g>
</g>
<!-- Node24&#45;&gt;Node25 -->
<g id="edge25" class="edge">
<title>Node24&#45;&gt;Node25</title>
<path fill="none" stroke="midnightblue" d="M769.32,-200C780.48,-200 792.2,-200 803.55,-200"/>
<polygon fill="midnightblue" stroke="midnightblue" points="803.85,-203.5 813.85,-200 803.85,-196.5 803.85,-203.5"/>
</g>
<!-- Node25&#45;&gt;Node22 -->
<g id="edge26" class="edge">
<title>Node25&#45;&gt;Node22</title>
<path fill="none" stroke="midnightblue" d="M908.09,-190.44C918.12,-187.56 929.03,-184.29 939,-181 956.7,-175.16 975.91,-168.18 992.83,-161.81"/>
<polygon fill="midnightblue" stroke="midnightblue" points="994.39,-164.96 1002.5,-158.14 991.91,-158.41 994.39,-164.96"/>
</g>
<!-- Node27 -->
<g id="node27" class="node">
<title>Node27</title>
<g id="a_node27"><a xlink:href="space__packet_8c.html#a87c32edde9091b947e50ed99e16e6310" target="_top" xlink:title="Sequence Flag を設定">
<polygon fill="white" stroke="black" points="824.5,-152.5 824.5,-171.5 919.5,-171.5 919.5,-152.5 824.5,-152.5"/>
<text text-anchor="middle" x="872" y="-159.5" font-family="Helvetica,sans-Serif" font-size="10.00">SP_set_seq_flag</text>
</a>
</g>
</g>
<!-- Node26&#45;&gt;Node27 -->
<g id="edge28" class="edge">
<title>Node26&#45;&gt;Node27</title>
<path fill="none" stroke="midnightblue" d="M758.93,-162C776.42,-162 796.18,-162 814.19,-162"/>
<polygon fill="midnightblue" stroke="midnightblue" points="814.28,-165.5 824.28,-162 814.28,-158.5 814.28,-165.5"/>
</g>
<!-- Node27&#45;&gt;Node22 -->
<g id="edge29" class="edge">
<title>Node27&#45;&gt;Node22</title>
<path fill="none" stroke="midnightblue" d="M919.8,-156.71C936.92,-154.77 956.62,-152.54 975.1,-150.45"/>
<polygon fill="midnightblue" stroke="midnightblue" points="975.67,-153.91 985.22,-149.31 974.89,-146.95 975.67,-153.91"/>
</g>
<!-- Node29 -->
<g id="node29" class="node">
<title>Node29</title>
<g id="a_node29"><a xlink:href="space__packet_8c.html#ad7ea8fd9875d2c0d682f2deb16a481e1" target="_top" xlink:title="Packet Type を設定">
<polygon fill="white" stroke="black" points="834,-114.5 834,-133.5 910,-133.5 910,-114.5 834,-114.5"/>
<text text-anchor="middle" x="872" y="-121.5" font-family="Helvetica,sans-Serif" font-size="10.00">SP_set_type</text>
</a>
</g>
</g>
<!-- Node28&#45;&gt;Node29 -->
<g id="edge31" class="edge">
<title>Node28&#45;&gt;Node29</title>
<path fill="none" stroke="midnightblue" d="M749.04,-124C771.65,-124 800.04,-124 823.73,-124"/>
<polygon fill="midnightblue" stroke="midnightblue" points="823.91,-127.5 833.91,-124 823.91,-120.5 823.91,-127.5"/>
</g>
<!-- Node29&#45;&gt;Node22 -->
<g id="edge32" class="edge">
<title>Node29&#45;&gt;Node22</title>
<path fill="none" stroke="midnightblue" d="M910.28,-128.22C929.4,-130.38 953.24,-133.08 975.31,-135.57"/>
<polygon fill="midnightblue" stroke="midnightblue" points="974.98,-139.06 985.31,-136.7 975.76,-132.1 974.98,-139.06"/>
</g>
<!-- Node31 -->
<g id="node31" class="node">
<title>Node31</title>
<g id="a_node31"><a xlink:href="space__packet_8c.html#a66df39f39c177fae374912fb1eaae377" target="_top" xlink:title="Version No を設定">
<polygon fill="white" stroke="black" points="837,-76.5 837,-95.5 907,-95.5 907,-76.5 837,-76.5"/>
<text text-anchor="middle" x="872" y="-83.5" font-family="Helvetica,sans-Serif" font-size="10.00">SP_set_ver</text>
</a>
</g>
</g>
<!-- Node30&#45;&gt;Node31 -->
<g id="edge34" class="edge">
<title>Node30&#45;&gt;Node31</title>
<path fill="none" stroke="midnightblue" d="M746.17,-86C770.14,-86 801.44,-86 826.71,-86"/>
<polygon fill="midnightblue" stroke="midnightblue" points="826.77,-89.5 836.77,-86 826.77,-82.5 826.77,-89.5"/>
</g>
<!-- Node31&#45;&gt;Node22 -->
<g id="edge35" class="edge">
<title>Node31&#45;&gt;Node22</title>
<path fill="none" stroke="midnightblue" d="M907.07,-95.27C917.38,-98.22 928.7,-101.6 939,-105 956.7,-110.84 975.91,-117.82 992.83,-124.19"/>
<polygon fill="midnightblue" stroke="midnightblue" points="991.91,-127.59 1002.5,-127.86 994.39,-121.04 991.91,-127.59"/>
</g>
<!-- Node33 -->
<g id="node33" class="node">
<title>Node33</title>
<g id="a_node33"><a xlink:href="space__packet_8c.html#addad7908c3c2db6b1ab2546971373bb7" target="_top" xlink:title="Packet Length を設定">
<polygon fill="white" stroke="black" points="654.5,-38.5 654.5,-57.5 761.5,-57.5 761.5,-38.5 654.5,-38.5"/>
<text text-anchor="middle" x="708" y="-45.5" font-family="Helvetica,sans-Serif" font-size="10.00">SP_set_packet_len</text>
</a>
</g>
</g>
<!-- Node32&#45;&gt;Node33 -->
<g id="edge37" class="edge">
<title>Node32&#45;&gt;Node33</title>
<path fill="none" stroke="midnightblue" d="M585.88,-76.41C607.35,-71.37 633.86,-65.16 656.6,-59.82"/>
<polygon fill="midnightblue" stroke="midnightblue" points="657.48,-63.21 666.41,-57.52 655.88,-56.4 657.48,-63.21"/>
</g>
<!-- Node34 -->
<g id="node34" class="node">
<title>Node34</title>
<g id="a_node34"><a xlink:href="space__packet_8c.html#a03e63eb8f8570b389b15eb44c5071af9" target="_top" xlink:title="Packet Data Length を設定">
<polygon fill="white" stroke="black" points="805,-38.5 805,-57.5 939,-57.5 939,-38.5 805,-38.5"/>
<text text-anchor="middle" x="872" y="-45.5" font-family="Helvetica,sans-Serif" font-size="10.00">SP_set_packet_data_len</text>
</a>
</g>
</g>
<!-- Node33&#45;&gt;Node34 -->
<g id="edge38" class="edge">
<title>Node33&#45;&gt;Node34</title>
<path fill="none" stroke="midnightblue" d="M761.6,-48C772.14,-48 783.41,-48 794.57,-48"/>
<polygon fill="midnightblue" stroke="midnightblue" points="794.76,-51.5 804.76,-48 794.76,-44.5 794.76,-51.5"/>
</g>
<!-- Node34&#45;&gt;Node22 -->
<g id="edge39" class="edge">
<title>Node34&#45;&gt;Node22</title>
<path fill="none" stroke="midnightblue" d="M914.7,-57.53C922.96,-60.1 931.42,-63.24 939,-67 968.04,-81.4 997.31,-104.27 1017,-121.17"/>
<polygon fill="midnightblue" stroke="midnightblue" points="1014.73,-123.83 1024.57,-127.77 1019.34,-118.56 1014.73,-123.83"/>
</g>
<!-- Node36 -->
<g id="node36" class="node">
<title>Node36</title>
<g id="a_node36"><a xlink:href="space__packet_8c.html#a89427fc91a39c1d05b8bc03135d4b9a1" target="_top" xlink:title="Sequence Count を設定">
<polygon fill="white" stroke="black" points="656,-0.5 656,-19.5 760,-19.5 760,-0.5 656,-0.5"/>
<text text-anchor="middle" x="708" y="-7.5" font-family="Helvetica,sans-Serif" font-size="10.00">SP_set_seq_count</text>
</a>
</g>
</g>
<!-- Node35&#45;&gt;Node36 -->
<g id="edge41" class="edge">
<title>Node35&#45;&gt;Node36</title>
<path fill="none" stroke="midnightblue" d="M599.39,-22.62C614.18,-20.89 630.3,-19 645.45,-17.22"/>
<polygon fill="midnightblue" stroke="midnightblue" points="646.24,-20.65 655.76,-16.01 645.42,-13.7 646.24,-20.65"/>
</g>
<!-- Node36&#45;&gt;Node22 -->
<g id="edge42" class="edge">
<title>Node36&#45;&gt;Node22</title>
<path fill="none" stroke="midnightblue" d="M760.32,-3.76C808.93,-0.18 882.68,-0.98 939,-29 978.99,-48.89 1010.45,-91.85 1027.34,-118.98"/>
<polygon fill="midnightblue" stroke="midnightblue" points="1024.53,-121.1 1032.69,-127.85 1030.52,-117.48 1024.53,-121.1"/>
</g>
</g>
</svg>
