<?xml version="1.0" encoding="UTF-8" standalone="no"?>
<!DOCTYPE svg PUBLIC "-//W3C//DTD SVG 1.1//EN"
 "http://www.w3.org/Graphics/SVG/1.1/DTD/svg11.dtd">
<!-- Generated by graphviz version 2.43.0 (0)
 -->
<!-- Title: Cmd_TLM_MGR_CLEAR_SYSTEM_TLM Pages: 1 -->
<svg width="1721pt" height="615pt"
 viewBox="0.00 0.00 1721.00 614.58" xmlns="http://www.w3.org/2000/svg" xmlns:xlink="http://www.w3.org/1999/xlink">
<g id="graph0" class="graph" transform="scale(1 1) rotate(0) translate(4 610.58)">
<title>Cmd_TLM_MGR_CLEAR_SYSTEM_TLM</title>
<polygon fill="white" stroke="transparent" points="-4,4 -4,-610.58 1717,-610.58 1717,4 -4,4"/>
<!-- Node1 -->
<g id="node1" class="node">
<title>Node1</title>
<g id="a_node1"><a xlink:title="systemテレメを初期化">
<polygon fill="#bfbfbf" stroke="black" points="0,-304.5 0,-323.5 200,-323.5 200,-304.5 0,-304.5"/>
<text text-anchor="middle" x="100" y="-311.5" font-family="Helvetica,sans-Serif" font-size="10.00">Cmd_TLM_MGR_CLEAR_SYSTEM_TLM</text>
</a>
</g>
</g>
<!-- Node2 -->
<g id="node2" class="node">
<title>Node2</title>
<g id="a_node2"><a xlink:href="telemetry__manager_8c.html#af5ffec9b70960e1c8ffb5bff194ce24c" target="_top" xlink:title="TLM_MGR_RegisterInfo 登録されている BC をクリアして NOP で埋める">
<polygon fill="white" stroke="black" points="236,-299 236,-329 362,-329 362,-299 236,-299"/>
<text text-anchor="start" x="244" y="-317" font-family="Helvetica,sans-Serif" font-size="10.00">TLM_MGR_clear_bc_of</text>
<text text-anchor="middle" x="299" y="-306" font-family="Helvetica,sans-Serif" font-size="10.00">_register_info_</text>
</a>
</g>
</g>
<!-- Node1&#45;&gt;Node2 -->
<g id="edge1" class="edge">
<title>Node1&#45;&gt;Node2</title>
<path fill="none" stroke="midnightblue" d="M200.08,-314C208.73,-314 217.37,-314 225.75,-314"/>
<polygon fill="midnightblue" stroke="midnightblue" points="225.8,-317.5 235.8,-314 225.8,-310.5 225.8,-317.5"/>
</g>
<!-- Node3 -->
<g id="node3" class="node">
<title>Node3</title>
<g id="a_node3"><a xlink:href="telemetry__manager_8c.html#aca6344c0e7a1eb93e72a2c07f36ba89e" target="_top" xlink:title="指定したBCを NOP x TLM_MGR_MAX_TLM_NUM_PER_BC で埋める">
<polygon fill="white" stroke="black" points="398,-304.5 398,-323.5 553,-323.5 553,-304.5 398,-304.5"/>
<text text-anchor="middle" x="475.5" y="-311.5" font-family="Helvetica,sans-Serif" font-size="10.00">TLM_MGR_clear_bc_to_nop_</text>
</a>
</g>
</g>
<!-- Node2&#45;&gt;Node3 -->
<g id="edge2" class="edge">
<title>Node2&#45;&gt;Node3</title>
<path fill="none" stroke="midnightblue" d="M362.01,-314C370.32,-314 378.96,-314 387.6,-314"/>
<polygon fill="midnightblue" stroke="midnightblue" points="387.72,-317.5 397.72,-314 387.72,-310.5 387.72,-317.5"/>
</g>
<!-- Node4 -->
<g id="node4" class="node">
<title>Node4</title>
<g id="a_node4"><a xlink:href="block__command__loader_8c.html#a3b8f5d996e5769cd9d42ee4c78e48a43" target="_top" xlink:title="指定されたブロックコマンドIDへの登録を安全に行うためのwrapper関数">
<polygon fill="white" stroke="black" points="787,-323.5 787,-342.5 865,-342.5 865,-323.5 787,-323.5"/>
<text text-anchor="middle" x="826" y="-330.5" font-family="Helvetica,sans-Serif" font-size="10.00">BCL_load_bc</text>
</a>
</g>
</g>
<!-- Node3&#45;&gt;Node4 -->
<g id="edge3" class="edge">
<title>Node3&#45;&gt;Node4</title>
<path fill="none" stroke="midnightblue" d="M553.41,-318.19C621.53,-321.91 718.88,-327.21 776.64,-330.36"/>
<polygon fill="midnightblue" stroke="midnightblue" points="776.77,-333.88 786.95,-330.93 777.15,-326.89 776.77,-333.88"/>
</g>
<!-- Node17 -->
<g id="node17" class="node">
<title>Node17</title>
<g id="a_node17"><a xlink:href="telemetry__manager_8c.html#abb254dddda35d23891f16afbfd91e039" target="_top" xlink:title="NOP で埋められた BCの構築">
<polygon fill="white" stroke="black" points="589,-285.5 589,-304.5 726,-304.5 726,-285.5 589,-285.5"/>
<text text-anchor="middle" x="657.5" y="-292.5" font-family="Helvetica,sans-Serif" font-size="10.00">TLM_MGR_load_nop_bc_</text>
</a>
</g>
</g>
<!-- Node3&#45;&gt;Node17 -->
<g id="edge22" class="edge">
<title>Node3&#45;&gt;Node17</title>
<path fill="none" stroke="midnightblue" d="M553.1,-305.91C561.53,-305.02 570.13,-304.12 578.58,-303.22"/>
<polygon fill="midnightblue" stroke="midnightblue" points="579.22,-306.68 588.8,-302.15 578.48,-299.72 579.22,-306.68"/>
</g>
<!-- Node5 -->
<g id="node5" class="node">
<title>Node5</title>
<g id="a_node5"><a xlink:href="block__command__executor_8c.html#afa74726eddc14b94b624b69408b116f9" target="_top" xlink:title="block_command_table&#45;&gt;pos の BC を activate する">
<polygon fill="white" stroke="black" points="1072,-418.5 1072,-437.5 1185,-437.5 1185,-418.5 1072,-418.5"/>
<text text-anchor="middle" x="1128.5" y="-425.5" font-family="Helvetica,sans-Serif" font-size="10.00">BCE_activate_block</text>
</a>
</g>
</g>
<!-- Node4&#45;&gt;Node5 -->
<g id="edge4" class="edge">
<title>Node4&#45;&gt;Node5</title>
<path fill="none" stroke="midnightblue" d="M835.71,-342.55C851.71,-359.37 887.68,-393.95 926,-409 969.11,-425.94 1021.26,-430.47 1061.7,-430.88"/>
<polygon fill="midnightblue" stroke="midnightblue" points="1061.71,-434.38 1071.72,-430.9 1061.72,-427.38 1061.71,-434.38"/>
</g>
<!-- Node9 -->
<g id="node9" class="node">
<title>Node9</title>
<g id="a_node9"><a xlink:href="block__command__loader_8c.html#ae259ce6d85f2937c0c260c4e70a523a6" target="_top" xlink:title=" ">
<polygon fill="white" stroke="black" points="934,-266.5 934,-285.5 1028,-285.5 1028,-266.5 934,-266.5"/>
<text text-anchor="middle" x="981" y="-273.5" font-family="Helvetica,sans-Serif" font-size="10.00">BCL_clear_info_</text>
</a>
</g>
</g>
<!-- Node4&#45;&gt;Node9 -->
<g id="edge8" class="edge">
<title>Node4&#45;&gt;Node9</title>
<path fill="none" stroke="midnightblue" d="M851.34,-323.44C871.33,-315.64 900.43,-304.4 926,-295 931.5,-292.98 937.33,-290.88 943.04,-288.85"/>
<polygon fill="midnightblue" stroke="midnightblue" points="944.21,-292.15 952.48,-285.52 941.88,-285.55 944.21,-292.15"/>
</g>
<!-- Node10 -->
<g id="node10" class="node">
<title>Node10</title>
<g id="a_node10"><a xlink:href="block__command__table_8c.html#a1ebc0b01cb3816d89903243ac30b882e" target="_top" xlink:title="指定された block の BCT を初期化する">
<polygon fill="white" stroke="black" points="932.5,-380.5 932.5,-399.5 1029.5,-399.5 1029.5,-380.5 932.5,-380.5"/>
<text text-anchor="middle" x="981" y="-387.5" font-family="Helvetica,sans-Serif" font-size="10.00">BCT_clear_block</text>
</a>
</g>
</g>
<!-- Node4&#45;&gt;Node10 -->
<g id="edge9" class="edge">
<title>Node4&#45;&gt;Node10</title>
<path fill="none" stroke="midnightblue" d="M851.34,-342.56C871.33,-350.36 900.43,-361.6 926,-371 931.5,-373.02 937.33,-375.12 943.04,-377.15"/>
<polygon fill="midnightblue" stroke="midnightblue" points="941.88,-380.45 952.48,-380.48 944.21,-373.85 941.88,-380.45"/>
</g>
<!-- Node15 -->
<g id="node15" class="node">
<title>Node15</title>
<g id="a_node15"><a xlink:href="block__command__table_8c.html#a23bedf8b5329bf20bcd79b3b79db01f7" target="_top" xlink:title="pos を pos_stored から復旧">
<polygon fill="white" stroke="black" points="932,-342.5 932,-361.5 1030,-361.5 1030,-342.5 932,-342.5"/>
<text text-anchor="middle" x="981" y="-349.5" font-family="Helvetica,sans-Serif" font-size="10.00">BCT_restore_pos</text>
</a>
</g>
</g>
<!-- Node4&#45;&gt;Node15 -->
<g id="edge20" class="edge">
<title>Node4&#45;&gt;Node15</title>
<path fill="none" stroke="midnightblue" d="M865.21,-337.75C882.32,-339.87 902.87,-342.42 921.82,-344.78"/>
<polygon fill="midnightblue" stroke="midnightblue" points="921.5,-348.26 931.86,-346.02 922.36,-341.32 921.5,-348.26"/>
</g>
<!-- Node16 -->
<g id="node16" class="node">
<title>Node16</title>
<g id="a_node16"><a xlink:href="block__command__table_8c.html#ab267a5795fb4b8be5df08ab86465f2a4" target="_top" xlink:title="pos を pos_stored に保存">
<polygon fill="white" stroke="black" points="936.5,-304.5 936.5,-323.5 1025.5,-323.5 1025.5,-304.5 936.5,-304.5"/>
<text text-anchor="middle" x="981" y="-311.5" font-family="Helvetica,sans-Serif" font-size="10.00">BCT_store_pos</text>
</a>
</g>
</g>
<!-- Node4&#45;&gt;Node16 -->
<g id="edge21" class="edge">
<title>Node4&#45;&gt;Node16</title>
<path fill="none" stroke="midnightblue" d="M865.21,-328.25C883.69,-325.96 906.18,-323.17 926.34,-320.66"/>
<polygon fill="midnightblue" stroke="midnightblue" points="926.83,-324.13 936.33,-319.42 925.97,-317.18 926.83,-324.13"/>
</g>
<!-- Node6 -->
<g id="node6" class="node">
<title>Node6</title>
<g id="a_node6"><a xlink:href="block__command__executor_8c.html#a314a5503ec3307e3e4049d32e54399ee" target="_top" xlink:title=" ">
<polygon fill="white" stroke="black" points="1407.5,-541.5 1407.5,-560.5 1550.5,-560.5 1550.5,-541.5 1407.5,-541.5"/>
<text text-anchor="middle" x="1479" y="-548.5" font-family="Helvetica,sans-Serif" font-size="10.00">BCE_get_bc_exe_params_</text>
</a>
</g>
</g>
<!-- Node5&#45;&gt;Node6 -->
<g id="edge5" class="edge">
<title>Node5&#45;&gt;Node6</title>
<path fill="none" stroke="midnightblue" d="M1140.84,-437.59C1152.93,-448.24 1172.08,-466.4 1185,-485 1206.33,-515.69 1189.42,-541.01 1221,-561 1289.77,-604.52 1390.88,-581 1443.43,-563.85"/>
<polygon fill="midnightblue" stroke="midnightblue" points="1444.6,-567.14 1452.96,-560.63 1442.36,-560.51 1444.6,-567.14"/>
</g>
<!-- Node7 -->
<g id="node7" class="node">
<title>Node7</title>
<g id="a_node7"><a xlink:href="block__command__executor_8c.html#a458f942c6bfdc924ca92dbf06e1eefdc" target="_top" xlink:title=" ">
<polygon fill="white" stroke="black" points="1407.5,-484.5 1407.5,-503.5 1550.5,-503.5 1550.5,-484.5 1407.5,-484.5"/>
<text text-anchor="middle" x="1479" y="-491.5" font-family="Helvetica,sans-Serif" font-size="10.00">BCE_set_bc_exe_params_</text>
</a>
</g>
</g>
<!-- Node5&#45;&gt;Node7 -->
<g id="edge6" class="edge">
<title>Node5&#45;&gt;Node7</title>
<path fill="none" stroke="midnightblue" d="M1179.8,-437.53C1242.73,-449.44 1350.39,-469.83 1417.68,-482.58"/>
<polygon fill="midnightblue" stroke="midnightblue" points="1417.24,-486.05 1427.71,-484.48 1418.54,-479.18 1417.24,-486.05"/>
</g>
<!-- Node8 -->
<g id="node8" class="node">
<title>Node8</title>
<g id="a_node8"><a xlink:href="block__command__table_8c.html#add2db8412ac7b28b2e61d99638daaac5" target="_top" xlink:title="BCT の length の getter">
<polygon fill="white" stroke="black" points="1239,-380.5 1239,-399.5 1349,-399.5 1349,-380.5 1239,-380.5"/>
<text text-anchor="middle" x="1294" y="-387.5" font-family="Helvetica,sans-Serif" font-size="10.00">BCT_get_bc_length</text>
</a>
</g>
</g>
<!-- Node5&#45;&gt;Node8 -->
<g id="edge7" class="edge">
<title>Node5&#45;&gt;Node8</title>
<path fill="none" stroke="midnightblue" d="M1170.76,-418.41C1192.43,-413.37 1219.18,-407.16 1242.13,-401.82"/>
<polygon fill="midnightblue" stroke="midnightblue" points="1243.09,-405.19 1252.04,-399.52 1241.51,-398.37 1243.09,-405.19"/>
</g>
<!-- Node11 -->
<g id="node11" class="node">
<title>Node11</title>
<g id="a_node11"><a xlink:href="block__command__executor_8c.html#a6e05f5a7b995f6a92a38c858792d6cd0" target="_top" xlink:title="指定された block の BCE を初期化">
<polygon fill="white" stroke="black" points="1080,-494.5 1080,-513.5 1177,-513.5 1177,-494.5 1080,-494.5"/>
<text text-anchor="middle" x="1128.5" y="-501.5" font-family="Helvetica,sans-Serif" font-size="10.00">BCE_clear_block</text>
</a>
</g>
</g>
<!-- Node10&#45;&gt;Node11 -->
<g id="edge10" class="edge">
<title>Node10&#45;&gt;Node11</title>
<path fill="none" stroke="midnightblue" d="M994.41,-399.72C1019.53,-419.41 1076.64,-464.15 1107.25,-488.13"/>
<polygon fill="midnightblue" stroke="midnightblue" points="1105.1,-490.89 1115.13,-494.31 1109.41,-485.38 1105.1,-490.89"/>
</g>
<!-- Node14 -->
<g id="node14" class="node">
<title>Node14</title>
<g id="a_node14"><a xlink:href="block__command__table_8c.html#a8de02d89c561030741c771739016db35" target="_top" xlink:title=" ">
<polygon fill="white" stroke="black" points="1237,-342.5 1237,-361.5 1351,-361.5 1351,-342.5 1237,-342.5"/>
<text text-anchor="middle" x="1294" y="-349.5" font-family="Helvetica,sans-Serif" font-size="10.00">BCT_set_bc_length_</text>
</a>
</g>
</g>
<!-- Node10&#45;&gt;Node14 -->
<g id="edge19" class="edge">
<title>Node10&#45;&gt;Node14</title>
<path fill="none" stroke="midnightblue" d="M1029.57,-384.19C1082.25,-377.75 1167.54,-367.33 1226.74,-360.1"/>
<polygon fill="midnightblue" stroke="midnightblue" points="1227.24,-363.56 1236.74,-358.87 1226.39,-356.61 1227.24,-363.56"/>
</g>
<!-- Node11&#45;&gt;Node6 -->
<g id="edge11" class="edge">
<title>Node11&#45;&gt;Node6</title>
<path fill="none" stroke="midnightblue" d="M1135.56,-513.79C1148.42,-533.49 1180.58,-577.45 1221,-594 1300.12,-626.39 1402.48,-587.53 1450.65,-564.96"/>
<polygon fill="midnightblue" stroke="midnightblue" points="1452.31,-568.04 1459.81,-560.55 1449.28,-561.73 1452.31,-568.04"/>
</g>
<!-- Node11&#45;&gt;Node7 -->
<g id="edge18" class="edge">
<title>Node11&#45;&gt;Node7</title>
<path fill="none" stroke="midnightblue" d="M1166.63,-494.49C1183.15,-490.73 1202.92,-486.86 1221,-485 1279.79,-478.96 1346.5,-481.57 1397.22,-485.51"/>
<polygon fill="midnightblue" stroke="midnightblue" points="1397.22,-489.02 1407.47,-486.33 1397.78,-482.04 1397.22,-489.02"/>
</g>
<!-- Node12 -->
<g id="node12" class="node">
<title>Node12</title>
<g id="a_node12"><a xlink:href="block__command__executor_8c.html#a0b8956e904421adc0bdcf7bc5bb6f77c" target="_top" xlink:title=" ">
<polygon fill="white" stroke="black" points="1223.5,-494.5 1223.5,-513.5 1364.5,-513.5 1364.5,-494.5 1223.5,-494.5"/>
<text text-anchor="middle" x="1294" y="-501.5" font-family="Helvetica,sans-Serif" font-size="10.00">BCE_reset_combiner_info</text>
</a>
</g>
</g>
<!-- Node11&#45;&gt;Node12 -->
<g id="edge12" class="edge">
<title>Node11&#45;&gt;Node12</title>
<path fill="none" stroke="midnightblue" d="M1177.23,-504C1188.5,-504 1200.81,-504 1213.07,-504"/>
<polygon fill="midnightblue" stroke="midnightblue" points="1213.34,-507.5 1223.34,-504 1213.34,-500.5 1213.34,-507.5"/>
</g>
<!-- Node13 -->
<g id="node13" class="node">
<title>Node13</title>
<g id="a_node13"><a xlink:href="block__command__executor_8c.html#a853db84c8dfb9ec02d82ef44fc98ec18" target="_top" xlink:title=" ">
<polygon fill="white" stroke="black" points="1230,-532.5 1230,-551.5 1358,-551.5 1358,-532.5 1230,-532.5"/>
<text text-anchor="middle" x="1294" y="-539.5" font-family="Helvetica,sans-Serif" font-size="10.00">BCE_reset_rotator_info</text>
</a>
</g>
</g>
<!-- Node11&#45;&gt;Node13 -->
<g id="edge15" class="edge">
<title>Node11&#45;&gt;Node13</title>
<path fill="none" stroke="midnightblue" d="M1170.76,-513.59C1192.43,-518.63 1219.18,-524.84 1242.13,-530.18"/>
<polygon fill="midnightblue" stroke="midnightblue" points="1241.51,-533.63 1252.04,-532.48 1243.09,-526.81 1241.51,-533.63"/>
</g>
<!-- Node12&#45;&gt;Node6 -->
<g id="edge13" class="edge">
<title>Node12&#45;&gt;Node6</title>
<path fill="none" stroke="midnightblue" d="M1332.03,-513.51C1360.46,-520.81 1399.93,-530.95 1430.65,-538.84"/>
<polygon fill="midnightblue" stroke="midnightblue" points="1430.15,-542.32 1440.71,-541.42 1431.89,-535.54 1430.15,-542.32"/>
</g>
<!-- Node12&#45;&gt;Node7 -->
<g id="edge14" class="edge">
<title>Node12&#45;&gt;Node7</title>
<path fill="none" stroke="midnightblue" d="M1364.71,-500.19C1375.27,-499.61 1386.24,-499.01 1397.02,-498.43"/>
<polygon fill="midnightblue" stroke="midnightblue" points="1397.48,-501.91 1407.27,-497.86 1397.1,-494.92 1397.48,-501.91"/>
</g>
<!-- Node13&#45;&gt;Node6 -->
<g id="edge16" class="edge">
<title>Node13&#45;&gt;Node6</title>
<path fill="none" stroke="midnightblue" d="M1358.23,-545.11C1370.71,-545.72 1383.96,-546.37 1396.92,-547.01"/>
<polygon fill="midnightblue" stroke="midnightblue" points="1397.08,-550.52 1407.24,-547.52 1397.42,-543.53 1397.08,-550.52"/>
</g>
<!-- Node13&#45;&gt;Node7 -->
<g id="edge17" class="edge">
<title>Node13&#45;&gt;Node7</title>
<path fill="none" stroke="midnightblue" d="M1331.59,-532.4C1360.39,-524.85 1400.71,-514.27 1431.75,-506.13"/>
<polygon fill="midnightblue" stroke="midnightblue" points="1432.69,-509.5 1441.47,-503.58 1430.91,-502.73 1432.69,-509.5"/>
</g>
<!-- Node18 -->
<g id="node18" class="node">
<title>Node18</title>
<g id="a_node18"><a xlink:href="block__command__loader_8c.html#adc8e2381948a082e62d72d9971fc203f" target="_top" xlink:title="ブロックコマンドの最後にコマンドを追加する">
<polygon fill="white" stroke="black" points="762,-266.5 762,-285.5 890,-285.5 890,-266.5 762,-266.5"/>
<text text-anchor="middle" x="826" y="-273.5" font-family="Helvetica,sans-Serif" font-size="10.00">BCL_tool_register_cmd</text>
</a>
</g>
</g>
<!-- Node17&#45;&gt;Node18 -->
<g id="edge23" class="edge">
<title>Node17&#45;&gt;Node18</title>
<path fill="none" stroke="midnightblue" d="M726.22,-287.27C734.7,-286.3 743.4,-285.31 751.95,-284.34"/>
<polygon fill="midnightblue" stroke="midnightblue" points="752.37,-287.81 761.91,-283.2 751.57,-280.86 752.37,-287.81"/>
</g>
<!-- Node18&#45;&gt;Node9 -->
<g id="edge24" class="edge">
<title>Node18&#45;&gt;Node9</title>
<path fill="none" stroke="midnightblue" d="M890.11,-276C901.22,-276 912.71,-276 923.61,-276"/>
<polygon fill="midnightblue" stroke="midnightblue" points="923.86,-279.5 933.86,-276 923.86,-272.5 923.86,-279.5"/>
</g>
<!-- Node19 -->
<g id="node19" class="node">
<title>Node19</title>
<g id="a_node19"><a xlink:href="block__command__loader_8c.html#a34da4d8efe30b2f1872103496dfcf8cb" target="_top" xlink:title=" ">
<polygon fill="white" stroke="black" points="926,-228.5 926,-247.5 1036,-247.5 1036,-228.5 926,-228.5"/>
<text text-anchor="middle" x="981" y="-235.5" font-family="Helvetica,sans-Serif" font-size="10.00">BCL_register_cmd_</text>
</a>
</g>
</g>
<!-- Node18&#45;&gt;Node19 -->
<g id="edge25" class="edge">
<title>Node18&#45;&gt;Node19</title>
<path fill="none" stroke="midnightblue" d="M865.61,-266.41C885.71,-261.42 910.48,-255.27 931.82,-249.97"/>
<polygon fill="midnightblue" stroke="midnightblue" points="932.81,-253.33 941.67,-247.52 931.12,-246.53 932.81,-253.33"/>
</g>
<!-- Node20 -->
<g id="node20" class="node">
<title>Node20</title>
<g id="a_node20"><a xlink:href="block__command__table_8c.html#a203d4e8714245fd65719d10d35ae0d09" target="_top" xlink:title="Cmd を block_command_table&#45;&gt;pos に登録する">
<polygon fill="white" stroke="black" points="1076,-304.5 1076,-323.5 1181,-323.5 1181,-304.5 1076,-304.5"/>
<text text-anchor="middle" x="1128.5" y="-311.5" font-family="Helvetica,sans-Serif" font-size="10.00">BCT_register_cmd</text>
</a>
</g>
</g>
<!-- Node19&#45;&gt;Node20 -->
<g id="edge26" class="edge">
<title>Node19&#45;&gt;Node20</title>
<path fill="none" stroke="midnightblue" d="M1012.75,-247.51C1020.47,-250.25 1028.65,-253.47 1036,-257 1060.85,-268.94 1087.4,-286.01 1105.47,-298.36"/>
<polygon fill="midnightblue" stroke="midnightblue" points="1103.87,-301.51 1114.09,-304.33 1107.86,-295.76 1103.87,-301.51"/>
</g>
<!-- Node26 -->
<g id="node26" class="node">
<title>Node26</title>
<g id="a_node26"><a xlink:href="common__tlm__cmd__packet__util_8c.html#aa6724382fdc7221804d8649c76ca6d5f" target="_top" xlink:title="Timeline command を生成">
<polygon fill="white" stroke="black" points="1087.5,-133.5 1087.5,-152.5 1169.5,-152.5 1169.5,-133.5 1087.5,-133.5"/>
<text text-anchor="middle" x="1128.5" y="-140.5" font-family="Helvetica,sans-Serif" font-size="10.00">CCP_form_tlc</text>
</a>
</g>
</g>
<!-- Node19&#45;&gt;Node26 -->
<g id="edge35" class="edge">
<title>Node19&#45;&gt;Node26</title>
<path fill="none" stroke="midnightblue" d="M996.75,-228.37C1022.02,-211.87 1073.8,-178.06 1104.06,-158.3"/>
<polygon fill="midnightblue" stroke="midnightblue" points="1106.25,-161.06 1112.71,-152.66 1102.42,-155.19 1106.25,-161.06"/>
</g>
<!-- Node20&#45;&gt;Node8 -->
<g id="edge28" class="edge">
<title>Node20&#45;&gt;Node8</title>
<path fill="none" stroke="midnightblue" d="M1142.15,-323.61C1159.21,-336.15 1190.93,-358.02 1221,-371 1226.69,-373.45 1232.77,-375.66 1238.89,-377.61"/>
<polygon fill="midnightblue" stroke="midnightblue" points="1237.92,-380.98 1248.51,-380.49 1239.93,-374.27 1237.92,-380.98"/>
</g>
<!-- Node20&#45;&gt;Node14 -->
<g id="edge34" class="edge">
<title>Node20&#45;&gt;Node14</title>
<path fill="none" stroke="midnightblue" d="M1170.76,-323.59C1192.43,-328.63 1219.18,-334.84 1242.13,-340.18"/>
<polygon fill="midnightblue" stroke="midnightblue" points="1241.51,-343.63 1252.04,-342.48 1243.09,-336.81 1241.51,-343.63"/>
</g>
<!-- Node21 -->
<g id="node21" class="node">
<title>Node21</title>
<g id="a_node21"><a xlink:href="block__command__table_8c.html#ae25a57a4a97b49bf13a4caa0b5e8ff76" target="_top" xlink:title="BCT_Pos* の validate">
<polygon fill="white" stroke="black" points="1422,-266.5 1422,-285.5 1536,-285.5 1536,-266.5 1422,-266.5"/>
<text text-anchor="middle" x="1479" y="-273.5" font-family="Helvetica,sans-Serif" font-size="10.00">BCT_check_position</text>
</a>
</g>
</g>
<!-- Node20&#45;&gt;Node21 -->
<g id="edge27" class="edge">
<title>Node20&#45;&gt;Node21</title>
<path fill="none" stroke="midnightblue" d="M1169.84,-304.44C1185.71,-300.99 1204.13,-297.36 1221,-295 1285.49,-285.96 1359.72,-281.06 1411.77,-278.51"/>
<polygon fill="midnightblue" stroke="midnightblue" points="1412.05,-282 1421.88,-278.03 1411.72,-275.01 1412.05,-282"/>
</g>
<!-- Node22 -->
<g id="node22" class="node">
<title>Node22</title>
<g id="a_node22"><a xlink:href="block__command__table_8c.html#a452f0a76d249ba2bd1d66a0312d71f02" target="_top" xlink:title="pos の指す場所に packet の内容を保存 (TCP_PRM_HDR_LEN の長さも考慮)">
<polygon fill="white" stroke="black" points="1246,-304.5 1246,-323.5 1342,-323.5 1342,-304.5 1246,-304.5"/>
<text text-anchor="middle" x="1294" y="-311.5" font-family="Helvetica,sans-Serif" font-size="10.00">BCT_save_cmd_</text>
</a>
</g>
</g>
<!-- Node20&#45;&gt;Node22 -->
<g id="edge29" class="edge">
<title>Node20&#45;&gt;Node22</title>
<path fill="none" stroke="midnightblue" d="M1181.23,-314C1198.52,-314 1217.88,-314 1235.57,-314"/>
<polygon fill="midnightblue" stroke="midnightblue" points="1235.76,-317.5 1245.76,-314 1235.76,-310.5 1235.76,-317.5"/>
</g>
<!-- Node22&#45;&gt;Node21 -->
<g id="edge30" class="edge">
<title>Node22&#45;&gt;Node21</title>
<path fill="none" stroke="midnightblue" d="M1341.18,-304.41C1365.76,-299.31 1396.19,-292.99 1422.1,-287.61"/>
<polygon fill="midnightblue" stroke="midnightblue" points="1423.07,-290.98 1432.15,-285.52 1421.65,-284.13 1423.07,-290.98"/>
</g>
<!-- Node23 -->
<g id="node23" class="node">
<title>Node23</title>
<g id="a_node23"><a xlink:href="block__command__table_8c.html#a5099527d441a777f4656300ab41037da" target="_top" xlink:title=" ">
<polygon fill="white" stroke="black" points="1413.5,-304.5 1413.5,-323.5 1544.5,-323.5 1544.5,-304.5 1413.5,-304.5"/>
<text text-anchor="middle" x="1479" y="-311.5" font-family="Helvetica,sans-Serif" font-size="10.00">BCT_set_bc_cmd_data_</text>
</a>
</g>
</g>
<!-- Node22&#45;&gt;Node23 -->
<g id="edge31" class="edge">
<title>Node22&#45;&gt;Node23</title>
<path fill="none" stroke="midnightblue" d="M1342.13,-314C1360.78,-314 1382.69,-314 1403.4,-314"/>
<polygon fill="midnightblue" stroke="midnightblue" points="1403.45,-317.5 1413.45,-314 1403.45,-310.5 1403.45,-317.5"/>
</g>
<!-- Node24 -->
<g id="node24" class="node">
<title>Node24</title>
<g id="a_node24"><a xlink:href="common__tlm__cmd__packet_8h.html#ad78165495f290e15c34fba3c5acb1c34" target="_top" xlink:title="CTCP (CCP) のパケット長を取得">
<polygon fill="white" stroke="black" points="1421.5,-352.5 1421.5,-371.5 1536.5,-371.5 1536.5,-352.5 1421.5,-352.5"/>
<text text-anchor="middle" x="1479" y="-359.5" font-family="Helvetica,sans-Serif" font-size="10.00">CCP_get_packet_len</text>
</a>
</g>
</g>
<!-- Node22&#45;&gt;Node24 -->
<g id="edge32" class="edge">
<title>Node22&#45;&gt;Node24</title>
<path fill="none" stroke="midnightblue" d="M1331.59,-323.6C1360.39,-331.15 1400.71,-341.73 1431.75,-349.87"/>
<polygon fill="midnightblue" stroke="midnightblue" points="1430.91,-353.27 1441.47,-352.42 1432.69,-346.5 1430.91,-353.27"/>
</g>
<!-- Node25 -->
<g id="node25" class="node">
<title>Node25</title>
<g id="a_node25"><a xlink:href="_t_c_packet_8c.html#a4088b7a1b29268cecc23866a45238fd6" target="_top" xlink:title="Packet Length を取得">
<polygon fill="white" stroke="black" points="1595.5,-371.5 1595.5,-390.5 1708.5,-390.5 1708.5,-371.5 1595.5,-371.5"/>
<text text-anchor="middle" x="1652" y="-378.5" font-family="Helvetica,sans-Serif" font-size="10.00">TCP_get_packet_len</text>
</a>
</g>
</g>
<!-- Node24&#45;&gt;Node25 -->
<g id="edge33" class="edge">
<title>Node24&#45;&gt;Node25</title>
<path fill="none" stroke="midnightblue" d="M1536.94,-368.33C1552.4,-370.04 1569.27,-371.92 1585.18,-373.69"/>
<polygon fill="midnightblue" stroke="midnightblue" points="1585.14,-377.2 1595.47,-374.83 1585.92,-370.25 1585.14,-377.2"/>
</g>
<!-- Node27 -->
<g id="node27" class="node">
<title>Node27</title>
<g id="a_node27"><a xlink:href="command__analyze_8c.html#ae878a1a8ce00cc7468fbdd5bc5aba864" target="_top" xlink:title="コマンドパラメタ長をチェックする">
<polygon fill="white" stroke="black" points="1221,-228.5 1221,-247.5 1367,-247.5 1367,-228.5 1221,-228.5"/>
<text text-anchor="middle" x="1294" y="-235.5" font-family="Helvetica,sans-Serif" font-size="10.00">CA_ckeck_cmd_param_len</text>
</a>
</g>
</g>
<!-- Node26&#45;&gt;Node27 -->
<g id="edge36" class="edge">
<title>Node26&#45;&gt;Node27</title>
<path fill="none" stroke="midnightblue" d="M1138.38,-152.73C1153.67,-168.92 1186.67,-201.32 1221,-219 1225.55,-221.34 1230.42,-223.42 1235.4,-225.25"/>
<polygon fill="midnightblue" stroke="midnightblue" points="1234.45,-228.62 1245.04,-228.48 1236.67,-221.99 1234.45,-228.62"/>
</g>
<!-- Node29 -->
<g id="node29" class="node">
<title>Node29</title>
<g id="a_node29"><a xlink:href="common__tlm__cmd__packet_8h.html#a2b44a3a9eed1859231570465d73e9ed7" target="_top" xlink:title="共通部分の Header を構築">
<polygon fill="white" stroke="black" points="1231.5,-190.5 1231.5,-209.5 1356.5,-209.5 1356.5,-190.5 1231.5,-190.5"/>
<text text-anchor="middle" x="1294" y="-197.5" font-family="Helvetica,sans-Serif" font-size="10.00">CCP_set_common_hdr</text>
</a>
</g>
</g>
<!-- Node26&#45;&gt;Node29 -->
<g id="edge38" class="edge">
<title>Node26&#45;&gt;Node29</title>
<path fill="none" stroke="midnightblue" d="M1150.27,-152.58C1168.62,-160.8 1196.23,-172.63 1221,-181 1228.07,-183.39 1235.61,-185.67 1243.05,-187.76"/>
<polygon fill="midnightblue" stroke="midnightblue" points="1242.16,-191.14 1252.73,-190.4 1244,-184.39 1242.16,-191.14"/>
</g>
<!-- Node39 -->
<g id="node39" class="node">
<title>Node39</title>
<g id="a_node39"><a xlink:href="common__tlm__cmd__packet_8h.html#a7da518ebeaff8d04bb1317b4a1752f59" target="_top" xlink:title="DEST_TYPE を設定">
<polygon fill="white" stroke="black" points="1239,-114.5 1239,-133.5 1349,-133.5 1349,-114.5 1239,-114.5"/>
<text text-anchor="middle" x="1294" y="-121.5" font-family="Helvetica,sans-Serif" font-size="10.00">CCP_set_dest_type</text>
</a>
</g>
</g>
<!-- Node26&#45;&gt;Node39 -->
<g id="edge48" class="edge">
<title>Node26&#45;&gt;Node39</title>
<path fill="none" stroke="midnightblue" d="M1169.92,-138.3C1187.63,-136.24 1208.86,-133.78 1228.66,-131.48"/>
<polygon fill="midnightblue" stroke="midnightblue" points="1229.33,-134.92 1238.86,-130.29 1228.52,-127.97 1229.33,-134.92"/>
</g>
<!-- Node41 -->
<g id="node41" class="node">
<title>Node41</title>
<g id="a_node41"><a xlink:href="common__tlm__cmd__packet_8h.html#a0e4a5753372aa95e6d8f0e3e935ed8f2" target="_top" xlink:title="EXEC_TYPE を設定">
<polygon fill="white" stroke="black" points="1238.5,-38.5 1238.5,-57.5 1349.5,-57.5 1349.5,-38.5 1238.5,-38.5"/>
<text text-anchor="middle" x="1294" y="-45.5" font-family="Helvetica,sans-Serif" font-size="10.00">CCP_set_exec_type</text>
</a>
</g>
</g>
<!-- Node26&#45;&gt;Node41 -->
<g id="edge50" class="edge">
<title>Node26&#45;&gt;Node41</title>
<path fill="none" stroke="midnightblue" d="M1138.38,-133.27C1153.67,-117.08 1186.67,-84.68 1221,-67 1225.55,-64.66 1230.42,-62.58 1235.4,-60.75"/>
<polygon fill="midnightblue" stroke="midnightblue" points="1236.67,-64.01 1245.04,-57.52 1234.45,-57.38 1236.67,-64.01"/>
</g>
<!-- Node43 -->
<g id="node43" class="node">
<title>Node43</title>
<g id="a_node43"><a xlink:href="common__tlm__cmd__packet_8h.html#a9f065f596d9b7f58a96e6b46181db85f" target="_top" xlink:title="CMD ID を設定">
<polygon fill="white" stroke="black" points="1258.5,-152.5 1258.5,-171.5 1329.5,-171.5 1329.5,-152.5 1258.5,-152.5"/>
<text text-anchor="middle" x="1294" y="-159.5" font-family="Helvetica,sans-Serif" font-size="10.00">CCP_set_id</text>
</a>
</g>
</g>
<!-- Node26&#45;&gt;Node43 -->
<g id="edge52" class="edge">
<title>Node26&#45;&gt;Node43</title>
<path fill="none" stroke="midnightblue" d="M1169.92,-147.7C1193.66,-150.46 1223.73,-153.95 1248.2,-156.79"/>
<polygon fill="midnightblue" stroke="midnightblue" points="1247.97,-160.29 1258.31,-157.97 1248.78,-153.34 1247.97,-160.29"/>
</g>
<!-- Node45 -->
<g id="node45" class="node">
<title>Node45</title>
<g id="a_node45"><a xlink:href="common__tlm__cmd__packet_8h.html#a8f2922ca6def0a502e00d7014da4c398" target="_top" xlink:title="パラメタを設定">
<polygon fill="white" stroke="black" points="1247.5,-76.5 1247.5,-95.5 1340.5,-95.5 1340.5,-76.5 1247.5,-76.5"/>
<text text-anchor="middle" x="1294" y="-83.5" font-family="Helvetica,sans-Serif" font-size="10.00">CCP_set_param</text>
</a>
</g>
</g>
<!-- Node26&#45;&gt;Node45 -->
<g id="edge54" class="edge">
<title>Node26&#45;&gt;Node45</title>
<path fill="none" stroke="midnightblue" d="M1150.27,-133.42C1168.62,-125.2 1196.23,-113.37 1221,-105 1228.07,-102.61 1235.61,-100.33 1243.05,-98.24"/>
<polygon fill="midnightblue" stroke="midnightblue" points="1244,-101.61 1252.73,-95.6 1242.16,-94.86 1244,-101.61"/>
</g>
<!-- Node48 -->
<g id="node48" class="node">
<title>Node48</title>
<g id="a_node48"><a xlink:href="common__tlm__cmd__packet_8h.html#a1a044b1b84588ee16221581830757741" target="_top" xlink:title="TI を設定">
<polygon fill="white" stroke="black" points="1260,-0.5 1260,-19.5 1328,-19.5 1328,-0.5 1260,-0.5"/>
<text text-anchor="middle" x="1294" y="-7.5" font-family="Helvetica,sans-Serif" font-size="10.00">CCP_set_ti</text>
</a>
</g>
</g>
<!-- Node26&#45;&gt;Node48 -->
<g id="edge57" class="edge">
<title>Node26&#45;&gt;Node48</title>
<path fill="none" stroke="midnightblue" d="M1134.43,-133.32C1146.21,-111.22 1178.23,-56.79 1221,-29 1229.62,-23.4 1239.83,-19.45 1249.81,-16.66"/>
<polygon fill="midnightblue" stroke="midnightblue" points="1250.77,-20.02 1259.65,-14.23 1249.1,-13.23 1250.77,-20.02"/>
</g>
<!-- Node28 -->
<g id="node28" class="node">
<title>Node28</title>
<g id="a_node28"><a xlink:href="common__tlm__cmd__packet_8h.html#a0cb576a77e94553c22d9cb70a6fd50f1" target="_top" xlink:title="CMD パラメタ長の最大値を取得">
<polygon fill="white" stroke="black" points="1408.5,-228.5 1408.5,-247.5 1549.5,-247.5 1549.5,-228.5 1408.5,-228.5"/>
<text text-anchor="middle" x="1479" y="-235.5" font-family="Helvetica,sans-Serif" font-size="10.00">CCP_get_max_param_len</text>
</a>
</g>
</g>
<!-- Node27&#45;&gt;Node28 -->
<g id="edge37" class="edge">
<title>Node27&#45;&gt;Node28</title>
<path fill="none" stroke="midnightblue" d="M1367.06,-238C1377.27,-238 1387.81,-238 1398.14,-238"/>
<polygon fill="midnightblue" stroke="midnightblue" points="1398.4,-241.5 1408.4,-238 1398.4,-234.5 1398.4,-241.5"/>
</g>
<!-- Node30 -->
<g id="node30" class="node">
<title>Node30</title>
<g id="a_node30"><a xlink:href="_t_c_packet_8c.html#af12da708e39852c835970a582c3de7a6" target="_top" xlink:title="共通部分の Header を構築">
<polygon fill="white" stroke="black" points="1403,-190.5 1403,-209.5 1555,-209.5 1555,-190.5 1403,-190.5"/>
<text text-anchor="middle" x="1479" y="-197.5" font-family="Helvetica,sans-Serif" font-size="10.00">TCP_CMD_set_common_hdr</text>
</a>
</g>
</g>
<!-- Node29&#45;&gt;Node30 -->
<g id="edge39" class="edge">
<title>Node29&#45;&gt;Node30</title>
<path fill="none" stroke="midnightblue" d="M1356.7,-200C1368.29,-200 1380.6,-200 1392.76,-200"/>
<polygon fill="midnightblue" stroke="midnightblue" points="1392.92,-203.5 1402.92,-200 1392.92,-196.5 1392.92,-203.5"/>
</g>
<!-- Node31 -->
<g id="node31" class="node">
<title>Node31</title>
<g id="a_node31"><a xlink:href="_t_c_packet_8c.html#a39b6f6b6ba2c5dd4578d623eeb4f2daf" target="_top" xlink:title="Format ID を設定">
<polygon fill="white" stroke="black" points="1592,-219.5 1592,-238.5 1712,-238.5 1712,-219.5 1592,-219.5"/>
<text text-anchor="middle" x="1652" y="-226.5" font-family="Helvetica,sans-Serif" font-size="10.00">TCP_CMD_set_fmt_id</text>
</a>
</g>
</g>
<!-- Node30&#45;&gt;Node31 -->
<g id="edge40" class="edge">
<title>Node30&#45;&gt;Node31</title>
<path fill="none" stroke="midnightblue" d="M1536.47,-209.58C1551.87,-212.19 1568.7,-215.04 1584.6,-217.74"/>
<polygon fill="midnightblue" stroke="midnightblue" points="1584.44,-221.26 1594.89,-219.48 1585.61,-214.36 1584.44,-221.26"/>
</g>
<!-- Node32 -->
<g id="node32" class="node">
<title>Node32</title>
<g id="a_node32"><a xlink:href="_t_c_packet_8c.html#a12ed3d87d3ffd43cd39b80f9c421b7f8" target="_top" xlink:title="Command Type を設定">
<polygon fill="white" stroke="black" points="1597,-181.5 1597,-200.5 1707,-200.5 1707,-181.5 1597,-181.5"/>
<text text-anchor="middle" x="1652" y="-188.5" font-family="Helvetica,sans-Serif" font-size="10.00">TCP_CMD_set_type</text>
</a>
</g>
</g>
<!-- Node30&#45;&gt;Node32 -->
<g id="edge41" class="edge">
<title>Node30&#45;&gt;Node32</title>
<path fill="none" stroke="midnightblue" d="M1555,-196.05C1565.57,-195.5 1576.35,-194.93 1586.7,-194.38"/>
<polygon fill="midnightblue" stroke="midnightblue" points="1587.06,-197.87 1596.87,-193.85 1586.7,-190.88 1587.06,-197.87"/>
</g>
<!-- Node33 -->
<g id="node33" class="node">
<title>Node33</title>
<g id="a_node33"><a xlink:href="_t_c_packet_8c.html#a32bccc7ebc63b95774d1fa64beec2840" target="_top" xlink:title="TCP Secondary Header Flag を設定">
<polygon fill="white" stroke="black" points="1591,-143.5 1591,-162.5 1713,-162.5 1713,-143.5 1591,-143.5"/>
<text text-anchor="middle" x="1652" y="-150.5" font-family="Helvetica,sans-Serif" font-size="10.00">TCP_set_2nd_hdr_flag</text>
</a>
</g>
</g>
<!-- Node30&#45;&gt;Node33 -->
<g id="edge42" class="edge">
<title>Node30&#45;&gt;Node33</title>
<path fill="none" stroke="midnightblue" d="M1518.61,-190.5C1530.32,-187.54 1543.21,-184.21 1555,-181 1572.76,-176.16 1592.27,-170.53 1609.03,-165.59"/>
<polygon fill="midnightblue" stroke="midnightblue" points="1610.48,-168.81 1619.08,-162.62 1608.5,-162.1 1610.48,-168.81"/>
</g>
<!-- Node34 -->
<g id="node34" class="node">
<title>Node34</title>
<g id="a_node34"><a xlink:href="_t_c_packet_8c.html#aa1d3b2e538140f4553a267ccd1e4086d" target="_top" xlink:title="APID を設定">
<polygon fill="white" stroke="black" points="1611.5,-105.5 1611.5,-124.5 1692.5,-124.5 1692.5,-105.5 1611.5,-105.5"/>
<text text-anchor="middle" x="1652" y="-112.5" font-family="Helvetica,sans-Serif" font-size="10.00">TCP_set_apid</text>
</a>
</g>
</g>
<!-- Node30&#45;&gt;Node34 -->
<g id="edge43" class="edge">
<title>Node30&#45;&gt;Node34</title>
<path fill="none" stroke="midnightblue" d="M1535.47,-190.5C1542.36,-188.03 1549.06,-184.92 1555,-181 1576.97,-166.52 1569.46,-149.11 1591,-134 1594.42,-131.6 1598.16,-129.49 1602.04,-127.64"/>
<polygon fill="midnightblue" stroke="midnightblue" points="1603.41,-130.87 1611.29,-123.79 1600.71,-124.41 1603.41,-130.87"/>
</g>
<!-- Node35 -->
<g id="node35" class="node">
<title>Node35</title>
<g id="a_node35"><a xlink:href="_t_c_packet_8c.html#af3c9a103fe8e323fde490d0fd9ff2524" target="_top" xlink:title="Sequence Count を設定">
<polygon fill="white" stroke="black" points="1603,-67.5 1603,-86.5 1701,-86.5 1701,-67.5 1603,-67.5"/>
<text text-anchor="middle" x="1652" y="-74.5" font-family="Helvetica,sans-Serif" font-size="10.00">TCP_set_seq_cnt</text>
</a>
</g>
</g>
<!-- Node30&#45;&gt;Node35 -->
<g id="edge44" class="edge">
<title>Node30&#45;&gt;Node35</title>
<path fill="none" stroke="midnightblue" d="M1539.89,-190.41C1545.36,-187.94 1550.51,-184.85 1555,-181 1586.14,-154.28 1560.66,-123.62 1591,-96 1592.74,-94.42 1594.61,-92.96 1596.58,-91.63"/>
<polygon fill="midnightblue" stroke="midnightblue" points="1598.69,-94.46 1605.73,-86.54 1595.29,-88.35 1598.69,-94.46"/>
</g>
<!-- Node36 -->
<g id="node36" class="node">
<title>Node36</title>
<g id="a_node36"><a xlink:href="_t_c_packet_8c.html#a97376550c537197a526ee85a84bec294" target="_top" xlink:title="Sequence Flag を設定">
<polygon fill="white" stroke="black" points="1601.5,-333.5 1601.5,-352.5 1702.5,-352.5 1702.5,-333.5 1601.5,-333.5"/>
<text text-anchor="middle" x="1652" y="-340.5" font-family="Helvetica,sans-Serif" font-size="10.00">TCP_set_seq_flag</text>
</a>
</g>
</g>
<!-- Node30&#45;&gt;Node36 -->
<g id="edge45" class="edge">
<title>Node30&#45;&gt;Node36</title>
<path fill="none" stroke="midnightblue" d="M1540.91,-209.62C1546.04,-212.1 1550.85,-215.18 1555,-219 1591.29,-252.42 1555.71,-289.53 1591,-324 1592.62,-325.58 1594.37,-327.03 1596.22,-328.36"/>
<polygon fill="midnightblue" stroke="midnightblue" points="1594.47,-331.39 1604.86,-333.45 1598.02,-325.36 1594.47,-331.39"/>
</g>
<!-- Node37 -->
<g id="node37" class="node">
<title>Node37</title>
<g id="a_node37"><a xlink:href="_t_c_packet_8c.html#af10044126dd5355bb5d2b9eab4bbaeae" target="_top" xlink:title="TCP type を設定">
<polygon fill="white" stroke="black" points="1611,-295.5 1611,-314.5 1693,-314.5 1693,-295.5 1611,-295.5"/>
<text text-anchor="middle" x="1652" y="-302.5" font-family="Helvetica,sans-Serif" font-size="10.00">TCP_set_type</text>
</a>
</g>
</g>
<!-- Node30&#45;&gt;Node37 -->
<g id="edge46" class="edge">
<title>Node30&#45;&gt;Node37</title>
<path fill="none" stroke="midnightblue" d="M1538.39,-209.55C1544.35,-212.02 1550.02,-215.11 1555,-219 1581.64,-239.8 1564.98,-264.42 1591,-286 1594.13,-288.59 1597.61,-290.83 1601.29,-292.77"/>
<polygon fill="midnightblue" stroke="midnightblue" points="1600.15,-296.1 1610.71,-296.98 1603.01,-289.7 1600.15,-296.1"/>
</g>
<!-- Node38 -->
<g id="node38" class="node">
<title>Node38</title>
<g id="a_node38"><a xlink:href="_t_c_packet_8c.html#ab67ca189d1e2404cc22dcb2a0fbc7b03" target="_top" xlink:title="TCP ver を設定">
<polygon fill="white" stroke="black" points="1614,-257.5 1614,-276.5 1690,-276.5 1690,-257.5 1614,-257.5"/>
<text text-anchor="middle" x="1652" y="-264.5" font-family="Helvetica,sans-Serif" font-size="10.00">TCP_set_ver</text>
</a>
</g>
</g>
<!-- Node30&#45;&gt;Node38 -->
<g id="edge47" class="edge">
<title>Node30&#45;&gt;Node38</title>
<path fill="none" stroke="midnightblue" d="M1530.3,-209.55C1538.78,-212.05 1547.31,-215.16 1555,-219 1573.38,-228.18 1572.9,-238.29 1591,-248 1595.23,-250.27 1599.78,-252.32 1604.4,-254.16"/>
<polygon fill="midnightblue" stroke="midnightblue" points="1603.35,-257.5 1613.95,-257.64 1605.75,-250.92 1603.35,-257.5"/>
</g>
<!-- Node40 -->
<g id="node40" class="node">
<title>Node40</title>
<g id="a_node40"><a xlink:href="_t_c_packet_8c.html#a2aec696023015465579550bc71505994" target="_top" xlink:title="CMD_DEST_TYPE を設定">
<polygon fill="white" stroke="black" points="1410.5,-114.5 1410.5,-133.5 1547.5,-133.5 1547.5,-114.5 1410.5,-114.5"/>
<text text-anchor="middle" x="1479" y="-121.5" font-family="Helvetica,sans-Serif" font-size="10.00">TCP_CMD_set_dest_type</text>
</a>
</g>
</g>
<!-- Node39&#45;&gt;Node40 -->
<g id="edge49" class="edge">
<title>Node39&#45;&gt;Node40</title>
<path fill="none" stroke="midnightblue" d="M1349.41,-124C1365.2,-124 1382.77,-124 1399.72,-124"/>
<polygon fill="midnightblue" stroke="midnightblue" points="1400.17,-127.5 1410.17,-124 1400.17,-120.5 1400.17,-127.5"/>
</g>
<!-- Node42 -->
<g id="node42" class="node">
<title>Node42</title>
<g id="a_node42"><a xlink:href="_t_c_packet_8c.html#a4cefa4f71a3b4a61bed4daac5b4c4810" target="_top" xlink:title="EXEC_TYPE を設定">
<polygon fill="white" stroke="black" points="1410,-38.5 1410,-57.5 1548,-57.5 1548,-38.5 1410,-38.5"/>
<text text-anchor="middle" x="1479" y="-45.5" font-family="Helvetica,sans-Serif" font-size="10.00">TCP_CMD_set_exec_type</text>
</a>
</g>
</g>
<!-- Node41&#45;&gt;Node42 -->
<g id="edge51" class="edge">
<title>Node41&#45;&gt;Node42</title>
<path fill="none" stroke="midnightblue" d="M1349.91,-48C1365.51,-48 1382.82,-48 1399.53,-48"/>
<polygon fill="midnightblue" stroke="midnightblue" points="1399.84,-51.5 1409.84,-48 1399.84,-44.5 1399.84,-51.5"/>
</g>
<!-- Node44 -->
<g id="node44" class="node">
<title>Node44</title>
<g id="a_node44"><a xlink:href="_t_c_packet_8c.html#af16559aa68f7cd01900db1b8630dc920" target="_top" xlink:title="channel ID を設定">
<polygon fill="white" stroke="black" points="1408.5,-152.5 1408.5,-171.5 1549.5,-171.5 1549.5,-152.5 1408.5,-152.5"/>
<text text-anchor="middle" x="1479" y="-159.5" font-family="Helvetica,sans-Serif" font-size="10.00">TCP_CMD_set_channel_id</text>
</a>
</g>
</g>
<!-- Node43&#45;&gt;Node44 -->
<g id="edge53" class="edge">
<title>Node43&#45;&gt;Node44</title>
<path fill="none" stroke="midnightblue" d="M1329.85,-162C1349.27,-162 1374.3,-162 1398.24,-162"/>
<polygon fill="midnightblue" stroke="midnightblue" points="1398.41,-165.5 1408.41,-162 1398.41,-158.5 1398.41,-165.5"/>
</g>
<!-- Node46 -->
<g id="node46" class="node">
<title>Node46</title>
<g id="a_node46"><a xlink:href="_t_c_packet_8c.html#a472318d3057151be89449b1e4129d3ad" target="_top" xlink:title="パラメタを設定">
<polygon fill="white" stroke="black" points="1419,-76.5 1419,-95.5 1539,-95.5 1539,-76.5 1419,-76.5"/>
<text text-anchor="middle" x="1479" y="-83.5" font-family="Helvetica,sans-Serif" font-size="10.00">TCP_CMD_set_param</text>
</a>
</g>
</g>
<!-- Node45&#45;&gt;Node46 -->
<g id="edge55" class="edge">
<title>Node45&#45;&gt;Node46</title>
<path fill="none" stroke="midnightblue" d="M1340.71,-86C1361.18,-86 1385.77,-86 1408.45,-86"/>
<polygon fill="midnightblue" stroke="midnightblue" points="1408.72,-89.5 1418.72,-86 1408.72,-82.5 1408.72,-89.5"/>
</g>
<!-- Node47 -->
<g id="node47" class="node">
<title>Node47</title>
<g id="a_node47"><a xlink:href="_t_c_packet_8c.html#a4046c466cc06ed602ea076f653433979" target="_top" xlink:title="Packet Length を設定">
<polygon fill="white" stroke="black" points="1595.5,-29.5 1595.5,-48.5 1708.5,-48.5 1708.5,-29.5 1595.5,-29.5"/>
<text text-anchor="middle" x="1652" y="-36.5" font-family="Helvetica,sans-Serif" font-size="10.00">TCP_set_packet_len</text>
</a>
</g>
</g>
<!-- Node46&#45;&gt;Node47 -->
<g id="edge56" class="edge">
<title>Node46&#45;&gt;Node47</title>
<path fill="none" stroke="midnightblue" d="M1518.61,-76.5C1530.32,-73.54 1543.21,-70.21 1555,-67 1572.76,-62.16 1592.27,-56.53 1609.03,-51.59"/>
<polygon fill="midnightblue" stroke="midnightblue" points="1610.48,-54.81 1619.08,-48.62 1608.5,-48.1 1610.48,-54.81"/>
</g>
<!-- Node49 -->
<g id="node49" class="node">
<title>Node49</title>
<g id="a_node49"><a xlink:href="_t_c_packet_8c.html#a16279dd832680e4678ebeb4ff4767e1a" target="_top" xlink:title="Time Indicator (TI) を設定">
<polygon fill="white" stroke="black" points="1431.5,-0.5 1431.5,-19.5 1526.5,-19.5 1526.5,-0.5 1431.5,-0.5"/>
<text text-anchor="middle" x="1479" y="-7.5" font-family="Helvetica,sans-Serif" font-size="10.00">TCP_CMD_set_ti</text>
</a>
</g>
</g>
<!-- Node48&#45;&gt;Node49 -->
<g id="edge58" class="edge">
<title>Node48&#45;&gt;Node49</title>
<path fill="none" stroke="midnightblue" d="M1328.14,-10C1354.05,-10 1390.68,-10 1421.23,-10"/>
<polygon fill="midnightblue" stroke="midnightblue" points="1421.34,-13.5 1431.34,-10 1421.34,-6.5 1421.34,-13.5"/>
</g>
</g>
</svg>
