<?xml version="1.0" encoding="UTF-8" standalone="no"?>
<!DOCTYPE svg PUBLIC "-//W3C//DTD SVG 1.1//EN"
 "http://www.w3.org/Graphics/SVG/1.1/DTD/svg11.dtd">
<!-- Generated by graphviz version 2.43.0 (0)
 -->
<!-- Title: Cmd_TLM_MGR_CLEAR_USER_TLM Pages: 1 -->
<svg width="1194pt" height="888pt"
 viewBox="0.00 0.00 1194.00 888.00" xmlns="http://www.w3.org/2000/svg" xmlns:xlink="http://www.w3.org/1999/xlink">
<g id="graph0" class="graph" transform="scale(1 1) rotate(0) translate(4 884)">
<title>Cmd_TLM_MGR_CLEAR_USER_TLM</title>
<polygon fill="white" stroke="transparent" points="-4,4 -4,-884 1190,-884 1190,4 -4,4"/>
<!-- Node1 -->
<g id="node1" class="node">
<title>Node1</title>
<g id="a_node1"><a xlink:title="high_freq_tlm, low_freq_tlm を初期化">
<polygon fill="#bfbfbf" stroke="black" points="0,-708.5 0,-727.5 187,-727.5 187,-708.5 0,-708.5"/>
<text text-anchor="middle" x="93.5" y="-715.5" font-family="Helvetica,sans-Serif" font-size="10.00">Cmd_TLM_MGR_CLEAR_USER_TLM</text>
</a>
</g>
</g>
<!-- Node2 -->
<g id="node2" class="node">
<title>Node2</title>
<g id="a_node2"><a xlink:href="divided__cmd__utility_8c.html#aaad403eb696499ec36e837376be62c2a" target="_top" xlink:title="DCUにチェックインする．分割コマンド実行時，最初に呼び出す関数．">
<polygon fill="white" stroke="black" points="243,-803.5 243,-822.5 329,-822.5 329,-803.5 243,-803.5"/>
<text text-anchor="middle" x="286" y="-810.5" font-family="Helvetica,sans-Serif" font-size="10.00">DCU_check_in</text>
</a>
</g>
</g>
<!-- Node1&#45;&gt;Node2 -->
<g id="edge1" class="edge">
<title>Node1&#45;&gt;Node2</title>
<path fill="none" stroke="midnightblue" d="M113.81,-727.63C147.56,-744.46 217.4,-779.29 256.64,-798.86"/>
<polygon fill="midnightblue" stroke="midnightblue" points="255.41,-802.15 265.92,-803.48 258.53,-795.89 255.41,-802.15"/>
</g>
<!-- Node22 -->
<g id="node10" class="node">
<title>Node22</title>
<g id="a_node10"><a xlink:href="divided__cmd__utility_8c.html#a65ad0b8aa0af1c9c0bdd74aa37b15b15" target="_top" xlink:title="次の分割の実行を登録">
<polygon fill="white" stroke="black" points="232,-670.5 232,-689.5 340,-689.5 340,-670.5 232,-670.5"/>
<text text-anchor="middle" x="286" y="-677.5" font-family="Helvetica,sans-Serif" font-size="10.00">DCU_register_next</text>
</a>
</g>
</g>
<!-- Node1&#45;&gt;Node22 -->
<g id="edge11" class="edge">
<title>Node1&#45;&gt;Node22</title>
<path fill="none" stroke="midnightblue" d="M142.57,-708.41C168.28,-703.28 200.11,-696.93 227.16,-691.54"/>
<polygon fill="midnightblue" stroke="midnightblue" points="228.15,-694.91 237.27,-689.52 226.78,-688.04 228.15,-694.91"/>
</g>
<!-- Node114 -->
<g id="node45" class="node">
<title>Node114</title>
<g id="a_node45"><a xlink:href="divided__cmd__utility_8c.html#a3acc22aa0545ff17883837d22091b267" target="_top" xlink:title="DCUに，途中でエラーが発生したことを伝える">
<polygon fill="white" stroke="black" points="240,-708.5 240,-727.5 332,-727.5 332,-708.5 240,-708.5"/>
<text text-anchor="middle" x="286" y="-715.5" font-family="Helvetica,sans-Serif" font-size="10.00">DCU_report_err</text>
</a>
</g>
</g>
<!-- Node1&#45;&gt;Node114 -->
<g id="edge57" class="edge">
<title>Node1&#45;&gt;Node114</title>
<path fill="none" stroke="midnightblue" d="M187.24,-718C201.72,-718 216.29,-718 229.58,-718"/>
<polygon fill="midnightblue" stroke="midnightblue" points="229.95,-721.5 239.95,-718 229.95,-714.5 229.95,-721.5"/>
</g>
<!-- Node115 -->
<g id="node46" class="node">
<title>Node115</title>
<g id="a_node46"><a xlink:href="divided__cmd__utility_8c.html#ae40540dcb7caa23a6eec4197bda6ebcf" target="_top" xlink:title="DCUに，分割コマンドが実行終了したことを伝える">
<polygon fill="white" stroke="black" points="234,-746.5 234,-765.5 338,-765.5 338,-746.5 234,-746.5"/>
<text text-anchor="middle" x="286" y="-753.5" font-family="Helvetica,sans-Serif" font-size="10.00">DCU_report_finish</text>
</a>
</g>
</g>
<!-- Node1&#45;&gt;Node115 -->
<g id="edge59" class="edge">
<title>Node1&#45;&gt;Node115</title>
<path fill="none" stroke="midnightblue" d="M142.57,-727.59C168.28,-732.72 200.11,-739.07 227.16,-744.46"/>
<polygon fill="midnightblue" stroke="midnightblue" points="226.78,-747.96 237.27,-746.48 228.15,-741.09 226.78,-747.96"/>
</g>
<!-- Node116 -->
<g id="node47" class="node">
<title>Node116</title>
<g id="a_node47"><a xlink:href="telemetry__manager_8c.html#af5ffec9b70960e1c8ffb5bff194ce24c" target="_top" xlink:title="TLM_MGR_RegisterInfo 登録されている BC をクリアして NOP で埋める">
<polygon fill="white" stroke="black" points="223,-339 223,-369 349,-369 349,-339 223,-339"/>
<text text-anchor="start" x="231" y="-357" font-family="Helvetica,sans-Serif" font-size="10.00">TLM_MGR_clear_bc_of</text>
<text text-anchor="middle" x="286" y="-346" font-family="Helvetica,sans-Serif" font-size="10.00">_register_info_</text>
</a>
</g>
</g>
<!-- Node1&#45;&gt;Node116 -->
<g id="edge61" class="edge">
<title>Node1&#45;&gt;Node116</title>
<path fill="none" stroke="midnightblue" d="M99.6,-708.26C124.57,-660.54 234.4,-450.68 272.18,-378.49"/>
<polygon fill="midnightblue" stroke="midnightblue" points="275.48,-379.74 277.02,-369.25 269.28,-376.49 275.48,-379.74"/>
</g>
<!-- Node3 -->
<g id="node3" class="node">
<title>Node3</title>
<g id="a_node3"><a xlink:href="divided__cmd__utility_8c.html#af4f7313b1b0fb69acea42ae713497cc3" target="_top" xlink:title="ログクリア（１要素）">
<polygon fill="white" stroke="black" points="767.5,-822.5 767.5,-841.5 906.5,-841.5 906.5,-822.5 767.5,-822.5"/>
<text text-anchor="middle" x="837" y="-829.5" font-family="Helvetica,sans-Serif" font-size="10.00">DCU_clear_log_element_</text>
</a>
</g>
</g>
<!-- Node2&#45;&gt;Node3 -->
<g id="edge2" class="edge">
<title>Node2&#45;&gt;Node3</title>
<path fill="none" stroke="midnightblue" d="M329.17,-814.46C420.78,-817.63 639.21,-825.19 757.19,-829.27"/>
<polygon fill="midnightblue" stroke="midnightblue" points="757.13,-832.77 767.24,-829.62 757.37,-825.78 757.13,-832.77"/>
</g>
<!-- Node5 -->
<g id="node5" class="node">
<title>Node5</title>
<g id="a_node5"><a xlink:href="divided__cmd__utility_8c.html#a2fed1ffbed2edbe0c08102c071f2edcf" target="_top" xlink:title="該当コマンドのログを，ログの先頭に出す">
<polygon fill="white" stroke="black" points="385,-746.5 385,-765.5 540,-765.5 540,-746.5 385,-746.5"/>
<text text-anchor="middle" x="462.5" y="-753.5" font-family="Helvetica,sans-Serif" font-size="10.00">DCU_move_to_front_in_log_</text>
</a>
</g>
</g>
<!-- Node2&#45;&gt;Node5 -->
<g id="edge4" class="edge">
<title>Node2&#45;&gt;Node5</title>
<path fill="none" stroke="midnightblue" d="M316.21,-803.46C345.4,-793.92 390.46,-779.21 422.65,-768.69"/>
<polygon fill="midnightblue" stroke="midnightblue" points="423.78,-772 432.2,-765.57 421.6,-765.35 423.78,-772"/>
</g>
<!-- Node11 -->
<g id="node9" class="node">
<title>Node11</title>
<g id="a_node9"><a xlink:href="time__manager_8c.html#a9d04b4d9b622cbe5a90cf65e58b828bc" target="_top" xlink:title="現在の master_clock_ を取得する">
<polygon fill="white" stroke="black" points="394,-860.5 394,-879.5 531,-879.5 531,-860.5 394,-860.5"/>
<text text-anchor="middle" x="462.5" y="-867.5" font-family="Helvetica,sans-Serif" font-size="10.00">TMGR_get_master_clock</text>
</a>
</g>
</g>
<!-- Node2&#45;&gt;Node11 -->
<g id="edge9" class="edge">
<title>Node2&#45;&gt;Node11</title>
<path fill="none" stroke="midnightblue" d="M314.83,-822.54C334.42,-829.22 361.27,-838.28 385,-846 396.57,-849.76 409.16,-853.75 420.72,-857.38"/>
<polygon fill="midnightblue" stroke="midnightblue" points="419.97,-860.81 430.56,-860.45 422.06,-854.13 419.97,-860.81"/>
</g>
<!-- Node4 -->
<g id="node4" class="node">
<title>Node4</title>
<g id="a_node4"><a xlink:href="obc__time_8c.html#a70416835a40bdacbb04f6f06b1e6d1e1" target="_top" xlink:title="引数から ObcTime を作成する">
<polygon fill="white" stroke="black" points="968.5,-841.5 968.5,-860.5 1048.5,-860.5 1048.5,-841.5 968.5,-841.5"/>
<text text-anchor="middle" x="1008.5" y="-848.5" font-family="Helvetica,sans-Serif" font-size="10.00">OBCT_create</text>
</a>
</g>
</g>
<!-- Node3&#45;&gt;Node4 -->
<g id="edge3" class="edge">
<title>Node3&#45;&gt;Node4</title>
<path fill="none" stroke="midnightblue" d="M906.94,-839.73C924.08,-841.65 942.12,-843.67 958.11,-845.46"/>
<polygon fill="midnightblue" stroke="midnightblue" points="957.97,-848.97 968.29,-846.61 958.75,-842.01 957.97,-848.97"/>
</g>
<!-- Node6 -->
<g id="node6" class="node">
<title>Node6</title>
<g id="a_node6"><a xlink:href="divided__cmd__utility_8c.html#a9bfb4e0540d42e883eb88b7ea7e9a6f9" target="_top" xlink:title="先頭に該当コマンドのログをつくる">
<polygon fill="white" stroke="black" points="576,-784.5 576,-803.5 722,-803.5 722,-784.5 576,-784.5"/>
<text text-anchor="middle" x="649" y="-791.5" font-family="Helvetica,sans-Serif" font-size="10.00">DCU_create_log_on_front_</text>
</a>
</g>
</g>
<!-- Node5&#45;&gt;Node6 -->
<g id="edge5" class="edge">
<title>Node5&#45;&gt;Node6</title>
<path fill="none" stroke="midnightblue" d="M510.06,-765.59C534.84,-770.69 565.52,-777.01 591.64,-782.39"/>
<polygon fill="midnightblue" stroke="midnightblue" points="591.28,-785.89 601.78,-784.48 592.69,-779.03 591.28,-785.89"/>
</g>
<!-- Node21 -->
<g id="node8" class="node">
<title>Node21</title>
<g id="a_node8"><a xlink:href="divided__cmd__utility_8c.html#a4923a6cf1e379f9f0f1c673a508605de" target="_top" xlink:title="該当コマンドのログを検索し取得する">
<polygon fill="white" stroke="black" points="598.5,-746.5 598.5,-765.5 699.5,-765.5 699.5,-746.5 598.5,-746.5"/>
<text text-anchor="middle" x="649" y="-753.5" font-family="Helvetica,sans-Serif" font-size="10.00">DCU_search_log_</text>
</a>
</g>
</g>
<!-- Node5&#45;&gt;Node21 -->
<g id="edge8" class="edge">
<title>Node5&#45;&gt;Node21</title>
<path fill="none" stroke="midnightblue" d="M540.14,-756C556.15,-756 572.8,-756 588.1,-756"/>
<polygon fill="midnightblue" stroke="midnightblue" points="588.45,-759.5 598.45,-756 588.45,-752.5 588.45,-759.5"/>
</g>
<!-- Node6&#45;&gt;Node3 -->
<g id="edge6" class="edge">
<title>Node6&#45;&gt;Node3</title>
<path fill="none" stroke="midnightblue" d="M696.94,-803.59C722.03,-808.72 753.12,-815.07 779.53,-820.46"/>
<polygon fill="midnightblue" stroke="midnightblue" points="778.9,-823.91 789.4,-822.48 780.3,-817.05 778.9,-823.91"/>
</g>
<!-- Node7 -->
<g id="node7" class="node">
<title>Node7</title>
<g id="a_node7"><a xlink:href="event__logger_8c.html#a25a74a48375dfc1f3f80be68e0ac00ea" target="_top" xlink:title="イベント (EL_Event) を記録">
<polygon fill="white" stroke="red" points="788.5,-784.5 788.5,-803.5 885.5,-803.5 885.5,-784.5 788.5,-784.5"/>
<text text-anchor="middle" x="837" y="-791.5" font-family="Helvetica,sans-Serif" font-size="10.00">EL_record_event</text>
</a>
</g>
</g>
<!-- Node6&#45;&gt;Node7 -->
<g id="edge7" class="edge">
<title>Node6&#45;&gt;Node7</title>
<path fill="none" stroke="midnightblue" d="M722.18,-794C740.7,-794 760.39,-794 778.09,-794"/>
<polygon fill="midnightblue" stroke="midnightblue" points="778.25,-797.5 788.25,-794 778.25,-790.5 778.25,-797.5"/>
</g>
<!-- Node11&#45;&gt;Node4 -->
<g id="edge10" class="edge">
<title>Node11&#45;&gt;Node4</title>
<path fill="none" stroke="midnightblue" d="M531.02,-867.64C641.94,-863.77 860.14,-856.15 957.98,-852.73"/>
<polygon fill="midnightblue" stroke="midnightblue" points="958.32,-856.22 968.19,-852.37 958.07,-849.22 958.32,-856.22"/>
</g>
<!-- Node22&#45;&gt;Node5 -->
<g id="edge26" class="edge">
<title>Node22&#45;&gt;Node5</title>
<path fill="none" stroke="midnightblue" d="M321.8,-689.52C330.77,-692.28 340.33,-695.51 349,-699 379.74,-711.39 413.46,-729.06 435.89,-741.43"/>
<polygon fill="midnightblue" stroke="midnightblue" points="434.33,-744.57 444.77,-746.38 437.74,-738.45 434.33,-744.57"/>
</g>
<!-- Node23 -->
<g id="node11" class="node">
<title>Node23</title>
<g id="a_node11"><a xlink:href="common__cmd__packet__util_8c.html#af9f77cfe0b19d8078e79f1c32d9b2843" target="_top" xlink:title="Realtime command を生成">
<polygon fill="white" stroke="black" points="421,-670.5 421,-689.5 504,-689.5 504,-670.5 421,-670.5"/>
<text text-anchor="middle" x="462.5" y="-677.5" font-family="Helvetica,sans-Serif" font-size="10.00">CCP_form_rtc</text>
</a>
</g>
</g>
<!-- Node22&#45;&gt;Node23 -->
<g id="edge12" class="edge">
<title>Node22&#45;&gt;Node23</title>
<path fill="none" stroke="midnightblue" d="M340.3,-680C362.71,-680 388.66,-680 410.79,-680"/>
<polygon fill="midnightblue" stroke="midnightblue" points="410.98,-683.5 420.98,-680 410.98,-676.5 410.98,-683.5"/>
</g>
<!-- Node65 -->
<g id="node24" class="node">
<title>Node65</title>
<g id="a_node24"><a xlink:href="packet__handler_8c.html#a9d16c8b958f0f983cf15674d6c528b02" target="_top" xlink:title="CCP を解析する">
<polygon fill="white" stroke="black" points="394,-271.5 394,-290.5 531,-290.5 531,-271.5 394,-271.5"/>
<text text-anchor="middle" x="462.5" y="-278.5" font-family="Helvetica,sans-Serif" font-size="10.00">PH_analyze_cmd_packet</text>
</a>
</g>
</g>
<!-- Node22&#45;&gt;Node65 -->
<g id="edge27" class="edge">
<title>Node22&#45;&gt;Node65</title>
<path fill="none" stroke="midnightblue" d="M291.31,-670.14C314.28,-617.63 422.28,-370.68 453.21,-299.97"/>
<polygon fill="midnightblue" stroke="midnightblue" points="456.54,-301.08 457.34,-290.52 450.12,-298.28 456.54,-301.08"/>
</g>
<!-- Node24 -->
<g id="node12" class="node">
<title>Node24</title>
<g id="a_node12"><a xlink:href="command__analyze_8c.html#ae878a1a8ce00cc7468fbdd5bc5aba864" target="_top" xlink:title="コマンドパラメタ長をチェックする">
<polygon fill="white" stroke="black" points="576,-708.5 576,-727.5 722,-727.5 722,-708.5 576,-708.5"/>
<text text-anchor="middle" x="649" y="-715.5" font-family="Helvetica,sans-Serif" font-size="10.00">CA_ckeck_cmd_param_len</text>
</a>
</g>
</g>
<!-- Node23&#45;&gt;Node24 -->
<g id="edge13" class="edge">
<title>Node23&#45;&gt;Node24</title>
<path fill="none" stroke="midnightblue" d="M504.45,-688.43C530.07,-693.71 563.44,-700.58 591.55,-706.37"/>
<polygon fill="midnightblue" stroke="midnightblue" points="591.15,-709.86 601.65,-708.45 592.56,-703.01 591.15,-709.86"/>
</g>
<!-- Node31 -->
<g id="node16" class="node">
<title>Node31</title>
<g id="a_node16"><a xlink:href="common__cmd__packet__util_8c.html#a01b352632ca605771f0cfd66a2a149ba" target="_top" xlink:title="NOP cmd の RTC CCP を作る">
<polygon fill="white" stroke="black" points="593.5,-670.5 593.5,-689.5 704.5,-689.5 704.5,-670.5 593.5,-670.5"/>
<text text-anchor="middle" x="649" y="-677.5" font-family="Helvetica,sans-Serif" font-size="10.00">CCP_form_nop_rtc_</text>
</a>
</g>
</g>
<!-- Node23&#45;&gt;Node31 -->
<g id="edge17" class="edge">
<title>Node23&#45;&gt;Node31</title>
<path fill="none" stroke="midnightblue" d="M504.45,-674.28C527.5,-673.24 556.83,-672.99 582.95,-673.52"/>
<polygon fill="midnightblue" stroke="midnightblue" points="583.08,-677.02 593.17,-673.77 583.26,-670.02 583.08,-677.02"/>
</g>
<!-- Node32 -->
<g id="node17" class="node">
<title>Node32</title>
<g id="a_node17"><a xlink:href="common__cmd__packet__util_8c.html#a58160242c4b87906597c90a3465c9596" target="_top" xlink:title="RealTime Command を生成する. CCP_form_* の実体.">
<polygon fill="white" stroke="black" points="605,-556.5 605,-575.5 693,-575.5 693,-556.5 605,-556.5"/>
<text text-anchor="middle" x="649" y="-563.5" font-family="Helvetica,sans-Serif" font-size="10.00">CCP_form_rtc_</text>
</a>
</g>
</g>
<!-- Node23&#45;&gt;Node32 -->
<g id="edge19" class="edge">
<title>Node23&#45;&gt;Node32</title>
<path fill="none" stroke="midnightblue" d="M478.91,-670.48C511.06,-650.61 585.49,-604.63 623.98,-580.84"/>
<polygon fill="midnightblue" stroke="midnightblue" points="625.83,-583.81 632.5,-575.58 622.15,-577.86 625.83,-583.81"/>
</g>
<!-- Node25 -->
<g id="node13" class="node">
<title>Node25</title>
<g id="a_node13"><a xlink:href="command__analyze_8c.html#ac95557475d470f986e1eb46befbc2ae9" target="_top" xlink:title="最小コマンドパラメタ長を取得する">
<polygon fill="white" stroke="red" points="758,-708.5 758,-727.5 916,-727.5 916,-708.5 758,-708.5"/>
<text text-anchor="middle" x="837" y="-715.5" font-family="Helvetica,sans-Serif" font-size="10.00">CA_get_cmd_param_min_len</text>
</a>
</g>
</g>
<!-- Node24&#45;&gt;Node25 -->
<g id="edge14" class="edge">
<title>Node24&#45;&gt;Node25</title>
<path fill="none" stroke="midnightblue" d="M722.18,-718C730.45,-718 738.96,-718 747.42,-718"/>
<polygon fill="midnightblue" stroke="midnightblue" points="747.7,-721.5 757.7,-718 747.7,-714.5 747.7,-721.5"/>
</g>
<!-- Node28 -->
<g id="node14" class="node">
<title>Node28</title>
<g id="a_node14"><a xlink:href="command__analyze_8c.html#a8b245c2a85084ae21588acd4deb3b3d6" target="_top" xlink:title="RAW パラメタを持っているか？">
<polygon fill="white" stroke="red" points="780.5,-670.5 780.5,-689.5 893.5,-689.5 893.5,-670.5 780.5,-670.5"/>
<text text-anchor="middle" x="837" y="-677.5" font-family="Helvetica,sans-Serif" font-size="10.00">CA_has_raw_param</text>
</a>
</g>
</g>
<!-- Node24&#45;&gt;Node28 -->
<g id="edge15" class="edge">
<title>Node24&#45;&gt;Node28</title>
<path fill="none" stroke="midnightblue" d="M696.94,-708.41C722.03,-703.28 753.12,-696.93 779.53,-691.54"/>
<polygon fill="midnightblue" stroke="midnightblue" points="780.3,-694.95 789.4,-689.52 778.9,-688.09 780.3,-694.95"/>
</g>
<!-- Node30 -->
<g id="node15" class="node">
<title>Node30</title>
<g id="a_node15"><a xlink:href="common__cmd__packet_8h.html#a0cb576a77e94553c22d9cb70a6fd50f1" target="_top" xlink:title="CMD パラメタ長の最大値を取得">
<polygon fill="white" stroke="black" points="766.5,-746.5 766.5,-765.5 907.5,-765.5 907.5,-746.5 766.5,-746.5"/>
<text text-anchor="middle" x="837" y="-753.5" font-family="Helvetica,sans-Serif" font-size="10.00">CCP_get_max_param_len</text>
</a>
</g>
</g>
<!-- Node24&#45;&gt;Node30 -->
<g id="edge16" class="edge">
<title>Node24&#45;&gt;Node30</title>
<path fill="none" stroke="midnightblue" d="M696.94,-727.59C722.03,-732.72 753.12,-739.07 779.53,-744.46"/>
<polygon fill="midnightblue" stroke="midnightblue" points="778.9,-747.91 789.4,-746.48 780.3,-741.05 778.9,-747.91"/>
</g>
<!-- Node31&#45;&gt;Node23 -->
<g id="edge18" class="edge">
<title>Node31&#45;&gt;Node23</title>
<path fill="none" stroke="midnightblue" d="M593.17,-686.23C568.28,-686.96 539.01,-686.92 514.59,-686.11"/>
<polygon fill="midnightblue" stroke="midnightblue" points="514.57,-682.61 504.45,-685.72 514.3,-689.6 514.57,-682.61"/>
</g>
<!-- Node33 -->
<g id="node18" class="node">
<title>Node33</title>
<g id="a_node18"><a xlink:href="common__cmd__packet_8h.html#a53e55e3275bb17840514876c95203402" target="_top" xlink:title="共通部分の Header を構築">
<polygon fill="white" stroke="red" points="774.5,-556.5 774.5,-575.5 899.5,-575.5 899.5,-556.5 774.5,-556.5"/>
<text text-anchor="middle" x="837" y="-563.5" font-family="Helvetica,sans-Serif" font-size="10.00">CCP_set_common_hdr</text>
</a>
</g>
</g>
<!-- Node32&#45;&gt;Node33 -->
<g id="edge20" class="edge">
<title>Node32&#45;&gt;Node33</title>
<path fill="none" stroke="midnightblue" d="M693.14,-566C714.27,-566 740.27,-566 764.27,-566"/>
<polygon fill="midnightblue" stroke="midnightblue" points="764.42,-569.5 774.42,-566 764.42,-562.5 764.42,-569.5"/>
</g>
<!-- Node52 -->
<g id="node19" class="node">
<title>Node52</title>
<g id="a_node19"><a xlink:href="common__cmd__packet_8h.html#a6ce61d959627cd955de389b10cadca90" target="_top" xlink:title="DEST_TYPE を設定">
<polygon fill="white" stroke="red" points="782,-518.5 782,-537.5 892,-537.5 892,-518.5 782,-518.5"/>
<text text-anchor="middle" x="837" y="-525.5" font-family="Helvetica,sans-Serif" font-size="10.00">CCP_set_dest_type</text>
</a>
</g>
</g>
<!-- Node32&#45;&gt;Node52 -->
<g id="edge21" class="edge">
<title>Node32&#45;&gt;Node52</title>
<path fill="none" stroke="midnightblue" d="M693.14,-557.19C718.75,-551.95 751.53,-545.26 779.23,-539.6"/>
<polygon fill="midnightblue" stroke="midnightblue" points="780.09,-543 789.18,-537.56 778.69,-536.14 780.09,-543"/>
</g>
<!-- Node54 -->
<g id="node20" class="node">
<title>Node54</title>
<g id="a_node20"><a xlink:href="common__cmd__packet_8h.html#ab4c0b1be76b7097e922a8a354f500b88" target="_top" xlink:title="EXEC_TYPE を設定">
<polygon fill="white" stroke="red" points="781.5,-366.5 781.5,-385.5 892.5,-385.5 892.5,-366.5 781.5,-366.5"/>
<text text-anchor="middle" x="837" y="-373.5" font-family="Helvetica,sans-Serif" font-size="10.00">CCP_set_exec_type</text>
</a>
</g>
</g>
<!-- Node32&#45;&gt;Node54 -->
<g id="edge22" class="edge">
<title>Node32&#45;&gt;Node54</title>
<path fill="none" stroke="midnightblue" d="M653.12,-556.43C663.16,-527.2 697.55,-438.45 758,-395 762.21,-391.98 766.84,-389.43 771.68,-387.29"/>
<polygon fill="midnightblue" stroke="midnightblue" points="773.11,-390.49 781.19,-383.64 770.6,-383.95 773.11,-390.49"/>
</g>
<!-- Node56 -->
<g id="node21" class="node">
<title>Node56</title>
<g id="a_node21"><a xlink:href="common__cmd__packet_8h.html#ad3a6d476c3b56794c35a15e3a1d0a395" target="_top" xlink:title="CMD ID を設定">
<polygon fill="white" stroke="red" points="801.5,-632.5 801.5,-651.5 872.5,-651.5 872.5,-632.5 801.5,-632.5"/>
<text text-anchor="middle" x="837" y="-639.5" font-family="Helvetica,sans-Serif" font-size="10.00">CCP_set_id</text>
</a>
</g>
</g>
<!-- Node32&#45;&gt;Node56 -->
<g id="edge23" class="edge">
<title>Node32&#45;&gt;Node56</title>
<path fill="none" stroke="midnightblue" d="M665.17,-575.56C685.58,-588.04 723.31,-609.85 758,-623 768.58,-627.01 780.29,-630.39 791.35,-633.13"/>
<polygon fill="midnightblue" stroke="midnightblue" points="790.74,-636.58 801.27,-635.47 792.34,-629.77 790.74,-636.58"/>
</g>
<!-- Node58 -->
<g id="node22" class="node">
<title>Node58</title>
<g id="a_node22"><a xlink:href="common__cmd__packet_8h.html#a07200400c567d95965dda94da0f55b67" target="_top" xlink:title="パラメタを設定">
<polygon fill="white" stroke="red" points="790.5,-594.5 790.5,-613.5 883.5,-613.5 883.5,-594.5 790.5,-594.5"/>
<text text-anchor="middle" x="837" y="-601.5" font-family="Helvetica,sans-Serif" font-size="10.00">CCP_set_param</text>
</a>
</g>
</g>
<!-- Node32&#45;&gt;Node58 -->
<g id="edge24" class="edge">
<title>Node32&#45;&gt;Node58</title>
<path fill="none" stroke="midnightblue" d="M693.14,-574.81C719.14,-580.12 752.52,-586.94 780.47,-592.66"/>
<polygon fill="midnightblue" stroke="midnightblue" points="780,-596.13 790.5,-594.7 781.4,-589.27 780,-596.13"/>
</g>
<!-- Node63 -->
<g id="node23" class="node">
<title>Node63</title>
<g id="a_node23"><a xlink:href="common__cmd__packet_8h.html#a1fde7575e47a25464d869a3247e1e087" target="_top" xlink:title="TI を設定">
<polygon fill="white" stroke="red" points="803,-404.5 803,-423.5 871,-423.5 871,-404.5 803,-404.5"/>
<text text-anchor="middle" x="837" y="-411.5" font-family="Helvetica,sans-Serif" font-size="10.00">CCP_set_ti</text>
</a>
</g>
</g>
<!-- Node32&#45;&gt;Node63 -->
<g id="edge25" class="edge">
<title>Node32&#45;&gt;Node63</title>
<path fill="none" stroke="midnightblue" d="M661.64,-556.49C692.69,-531.11 777.79,-461.57 816.44,-429.98"/>
<polygon fill="midnightblue" stroke="midnightblue" points="818.84,-432.54 824.37,-423.5 814.41,-427.12 818.84,-432.54"/>
</g>
<!-- Node66 -->
<g id="node25" class="node">
<title>Node66</title>
<g id="a_node25"><a xlink:href="common__cmd__packet_8h.html#a63dd7518abfbd0e6cedf6af2f376d854" target="_top" xlink:title="EXEC_TYPE を取得">
<polygon fill="white" stroke="black" points="593,-176.5 593,-195.5 705,-195.5 705,-176.5 593,-176.5"/>
<text text-anchor="middle" x="649" y="-183.5" font-family="Helvetica,sans-Serif" font-size="10.00">CCP_get_exec_type</text>
</a>
</g>
</g>
<!-- Node65&#45;&gt;Node66 -->
<g id="edge28" class="edge">
<title>Node65&#45;&gt;Node66</title>
<path fill="none" stroke="midnightblue" d="M476.41,-271.39C496.73,-256.6 537.8,-228.09 576,-210 584.84,-205.81 594.6,-202.04 604.01,-198.79"/>
<polygon fill="midnightblue" stroke="midnightblue" points="605.25,-202.06 613.64,-195.59 603.05,-195.42 605.25,-202.06"/>
</g>
<!-- Node69 -->
<g id="node27" class="node">
<title>Node69</title>
<g id="a_node27"><a xlink:href="common__cmd__packet_8h.html#add63f4e739670d463f6ace1f55fa3d48" target="_top" xlink:title="有効なパケットかチェックする">
<polygon fill="white" stroke="black" points="591,-138.5 591,-157.5 707,-157.5 707,-138.5 591,-138.5"/>
<text text-anchor="middle" x="649" y="-145.5" font-family="Helvetica,sans-Serif" font-size="10.00">CCP_is_valid_packet</text>
</a>
</g>
</g>
<!-- Node65&#45;&gt;Node69 -->
<g id="edge30" class="edge">
<title>Node65&#45;&gt;Node69</title>
<path fill="none" stroke="midnightblue" d="M470.15,-271.35C485.87,-249.31 527.64,-195.01 576,-167 579.88,-164.75 584.03,-162.76 588.31,-161.01"/>
<polygon fill="midnightblue" stroke="midnightblue" points="589.63,-164.25 597.81,-157.52 587.22,-157.68 589.63,-164.25"/>
</g>
<!-- Node74 -->
<g id="node29" class="node">
<title>Node74</title>
<g id="a_node29"><a xlink:href="packet__handler_8c.html#a6bf4c7283826236cc3ba39a9b8d90f32" target="_top" xlink:title=" ">
<polygon fill="white" stroke="black" points="591,-100.5 591,-119.5 707,-119.5 707,-100.5 591,-100.5"/>
<text text-anchor="middle" x="649" y="-107.5" font-family="Helvetica,sans-Serif" font-size="10.00">PH_add_block_cmd_</text>
</a>
</g>
</g>
<!-- Node65&#45;&gt;Node74 -->
<g id="edge32" class="edge">
<title>Node65&#45;&gt;Node74</title>
<path fill="none" stroke="midnightblue" d="M467.74,-271.4C480.16,-244.45 519.21,-167.51 576,-129 579.07,-126.92 582.36,-125.07 585.77,-123.41"/>
<polygon fill="midnightblue" stroke="midnightblue" points="587.2,-126.61 595.05,-119.5 584.48,-120.16 587.2,-126.61"/>
</g>
<!-- Node82 -->
<g id="node31" class="node">
<title>Node82</title>
<g id="a_node31"><a xlink:href="packet__handler_8c.html#a7877bd048a812eccc6e5e32a48e4198d" target="_top" xlink:title=" ">
<polygon fill="white" stroke="black" points="958,-480.5 958,-499.5 1059,-499.5 1059,-480.5 958,-480.5"/>
<text text-anchor="middle" x="1008.5" y="-487.5" font-family="Helvetica,sans-Serif" font-size="10.00">PH_add_gs_cmd_</text>
</a>
</g>
</g>
<!-- Node65&#45;&gt;Node82 -->
<g id="edge34" class="edge">
<title>Node65&#45;&gt;Node82</title>
<path fill="none" stroke="midnightblue" d="M469.87,-290.69C485.31,-313.4 527.07,-370.45 576,-401 693.18,-474.15 859.78,-488.39 947.75,-490.42"/>
<polygon fill="midnightblue" stroke="midnightblue" points="947.76,-493.92 957.82,-490.61 947.89,-486.93 947.76,-493.92"/>
</g>
<!-- Node85 -->
<g id="node33" class="node">
<title>Node85</title>
<g id="a_node33"><a xlink:href="packet__handler_8c.html#a8d281dc795ac227a6631832887234892" target="_top" xlink:title=" ">
<polygon fill="white" stroke="black" points="959.5,-442.5 959.5,-461.5 1057.5,-461.5 1057.5,-442.5 959.5,-442.5"/>
<text text-anchor="middle" x="1008.5" y="-449.5" font-family="Helvetica,sans-Serif" font-size="10.00">PH_add_rt_cmd_</text>
</a>
</g>
</g>
<!-- Node65&#45;&gt;Node85 -->
<g id="edge36" class="edge">
<title>Node65&#45;&gt;Node85</title>
<path fill="none" stroke="midnightblue" d="M477.06,-290.57C517.46,-318.49 641.48,-399.97 758,-433 821.54,-451.01 897.6,-454.33 948.91,-454.06"/>
<polygon fill="midnightblue" stroke="midnightblue" points="949.18,-457.55 959.14,-453.95 949.11,-450.55 949.18,-457.55"/>
</g>
<!-- Node86 -->
<g id="node34" class="node">
<title>Node86</title>
<g id="a_node34"><a xlink:href="packet__handler_8c.html#adaf645e2f92cac0b2d2120703546c35a" target="_top" xlink:title=" ">
<polygon fill="white" stroke="black" points="788.5,-290.5 788.5,-309.5 885.5,-309.5 885.5,-290.5 788.5,-290.5"/>
<text text-anchor="middle" x="837" y="-297.5" font-family="Helvetica,sans-Serif" font-size="10.00">PH_add_tl_cmd_</text>
</a>
</g>
</g>
<!-- Node65&#45;&gt;Node86 -->
<g id="edge38" class="edge">
<title>Node65&#45;&gt;Node86</title>
<path fill="none" stroke="midnightblue" d="M531.39,-284.46C602,-288.06 711.37,-293.64 778.05,-297.04"/>
<polygon fill="midnightblue" stroke="midnightblue" points="778.21,-300.56 788.38,-297.57 778.57,-293.57 778.21,-300.56"/>
</g>
<!-- Node96 -->
<g id="node37" class="node">
<title>Node96</title>
<g id="a_node37"><a xlink:href="packet__handler_8c.html#ae2142bcb006e578dcf3c557a2e4e43ae" target="_top" xlink:title="UTL_cmd を TL_cmd に変換して tl_cmd_list に追加する">
<polygon fill="white" stroke="black" points="597.5,-252.5 597.5,-271.5 700.5,-271.5 700.5,-252.5 597.5,-252.5"/>
<text text-anchor="middle" x="649" y="-259.5" font-family="Helvetica,sans-Serif" font-size="10.00">PH_add_utl_cmd_</text>
</a>
</g>
</g>
<!-- Node65&#45;&gt;Node96 -->
<g id="edge42" class="edge">
<title>Node65&#45;&gt;Node96</title>
<path fill="none" stroke="midnightblue" d="M531.15,-274.03C549.55,-272.14 569.36,-270.1 587.34,-268.25"/>
<polygon fill="midnightblue" stroke="midnightblue" points="587.82,-271.72 597.41,-267.21 587.1,-264.75 587.82,-271.72"/>
</g>
<!-- Node100 -->
<g id="node39" class="node">
<title>Node100</title>
<g id="a_node39"><a xlink:href="time__manager_8c.html#a576e42803f8f3896524dbb266a47a08f" target="_top" xlink:title="現在の total_cycle を返す">
<polygon fill="white" stroke="red" points="770,-115 770,-145 904,-145 904,-115 770,-115"/>
<text text-anchor="start" x="778" y="-133" font-family="Helvetica,sans-Serif" font-size="10.00">TMGR_get_master_total</text>
<text text-anchor="middle" x="837" y="-122" font-family="Helvetica,sans-Serif" font-size="10.00">_cycle</text>
</a>
</g>
</g>
<!-- Node65&#45;&gt;Node100 -->
<g id="edge56" class="edge">
<title>Node65&#45;&gt;Node100</title>
<path fill="none" stroke="midnightblue" d="M490.15,-271.4C512.84,-263.37 546.37,-251.85 576,-243 640.25,-223.81 666.69,-242.9 722,-205 744.59,-189.52 735.85,-171.1 758,-155 760.65,-153.08 763.45,-151.3 766.35,-149.65"/>
<polygon fill="midnightblue" stroke="midnightblue" points="767.99,-152.74 775.33,-145.11 764.83,-146.5 767.99,-152.74"/>
</g>
<!-- Node109 -->
<g id="node41" class="node">
<title>Node109</title>
<g id="a_node41"><a xlink:href="user__packet__handler_8c.html#a6ceb9e37114f6c81c6872ec90dd2a39d" target="_top" xlink:title="PH の analyze_cmd_ のユーザー処理関数">
<polygon fill="white" stroke="black" points="774,-328.5 774,-347.5 900,-347.5 900,-328.5 774,-328.5"/>
<text text-anchor="middle" x="837" y="-335.5" font-family="Helvetica,sans-Serif" font-size="10.00">PH_user_analyze_cmd</text>
</a>
</g>
</g>
<!-- Node65&#45;&gt;Node109 -->
<g id="edge50" class="edge">
<title>Node65&#45;&gt;Node109</title>
<path fill="none" stroke="midnightblue" d="M506.37,-290.52C527.3,-294.97 552.9,-300.13 576,-304 639.14,-314.57 711.37,-323.79 763.64,-329.95"/>
<polygon fill="midnightblue" stroke="midnightblue" points="763.49,-333.45 773.83,-331.14 764.3,-326.5 763.49,-333.45"/>
</g>
<!-- Node67 -->
<g id="node26" class="node">
<title>Node67</title>
<g id="a_node26"><a xlink:href="cmd__space__packet_8c.html#af0e6dd2c4432ce4d03442e5277766c0c" target="_top" xlink:title="Execution Type を取得">
<polygon fill="white" stroke="red" points="781.5,-76.5 781.5,-95.5 892.5,-95.5 892.5,-76.5 781.5,-76.5"/>
<text text-anchor="middle" x="837" y="-83.5" font-family="Helvetica,sans-Serif" font-size="10.00">CSP_get_exec_type</text>
</a>
</g>
</g>
<!-- Node66&#45;&gt;Node67 -->
<g id="edge29" class="edge">
<title>Node66&#45;&gt;Node67</title>
<path fill="none" stroke="midnightblue" d="M705.22,-176.35C711.22,-173.91 716.96,-170.84 722,-167 747.34,-147.68 732.48,-124.08 758,-105 762.22,-101.85 766.89,-99.21 771.79,-97.01"/>
<polygon fill="midnightblue" stroke="midnightblue" points="773.37,-100.15 781.43,-93.28 770.84,-93.62 773.37,-100.15"/>
</g>
<!-- Node70 -->
<g id="node28" class="node">
<title>Node70</title>
<g id="a_node28"><a xlink:href="common__cmd__packet_8c.html#a09b2e0ad8f87be0782c0f8ef2523f44c" target="_top" xlink:title="パケット長を取得">
<polygon fill="white" stroke="red" points="779.5,-38.5 779.5,-57.5 894.5,-57.5 894.5,-38.5 779.5,-38.5"/>
<text text-anchor="middle" x="837" y="-45.5" font-family="Helvetica,sans-Serif" font-size="10.00">CCP_get_packet_len</text>
</a>
</g>
</g>
<!-- Node69&#45;&gt;Node70 -->
<g id="edge31" class="edge">
<title>Node69&#45;&gt;Node70</title>
<path fill="none" stroke="midnightblue" d="M705.22,-138.35C711.22,-135.91 716.96,-132.84 722,-129 747.34,-109.68 732.48,-86.08 758,-67 761.68,-64.25 765.7,-61.89 769.92,-59.87"/>
<polygon fill="midnightblue" stroke="midnightblue" points="771.5,-63.01 779.41,-55.97 768.83,-56.54 771.5,-63.01"/>
</g>
<!-- Node75 -->
<g id="node30" class="node">
<title>Node75</title>
<g id="a_node30"><a xlink:href="block__command__table_8c.html#af4f041d9c2411d039196e8c2eb786005" target="_top" xlink:title="Cmd を block_command_table&#45;&gt;pos に登録する">
<polygon fill="white" stroke="red" points="784.5,-0.5 784.5,-19.5 889.5,-19.5 889.5,-0.5 784.5,-0.5"/>
<text text-anchor="middle" x="837" y="-7.5" font-family="Helvetica,sans-Serif" font-size="10.00">BCT_register_cmd</text>
</a>
</g>
</g>
<!-- Node74&#45;&gt;Node75 -->
<g id="edge33" class="edge">
<title>Node74&#45;&gt;Node75</title>
<path fill="none" stroke="midnightblue" d="M705.22,-100.35C711.22,-97.91 716.96,-94.84 722,-91 747.34,-71.68 732.48,-48.08 758,-29 763.06,-25.22 768.76,-22.19 774.73,-19.75"/>
<polygon fill="midnightblue" stroke="midnightblue" points="776.01,-23.01 784.28,-16.39 773.68,-16.41 776.01,-23.01"/>
</g>
<!-- Node83 -->
<g id="node32" class="node">
<title>Node83</title>
<g id="a_node32"><a xlink:href="packet__list_8c.html#afaf80120b8b97c0fdf3099e13e9019be" target="_top" xlink:title="PacketList の末尾に packet を挿入">
<polygon fill="white" stroke="red" points="1101,-366.5 1101,-385.5 1186,-385.5 1186,-366.5 1101,-366.5"/>
<text text-anchor="middle" x="1143.5" y="-373.5" font-family="Helvetica,sans-Serif" font-size="10.00">PL_push_back</text>
</a>
</g>
</g>
<!-- Node82&#45;&gt;Node83 -->
<g id="edge35" class="edge">
<title>Node82&#45;&gt;Node83</title>
<path fill="none" stroke="midnightblue" d="M1046.72,-480.48C1053.12,-477.96 1059.48,-474.84 1065,-471 1094.54,-450.43 1118.87,-415.59 1131.98,-394.3"/>
<polygon fill="midnightblue" stroke="midnightblue" points="1135.07,-395.95 1137.2,-385.57 1129.06,-392.36 1135.07,-395.95"/>
</g>
<!-- Node85&#45;&gt;Node83 -->
<g id="edge37" class="edge">
<title>Node85&#45;&gt;Node83</title>
<path fill="none" stroke="midnightblue" d="M1042.77,-442.45C1050.26,-439.8 1058.05,-436.64 1065,-433 1086.53,-421.74 1108.61,-404.87 1123.67,-392.41"/>
<polygon fill="midnightblue" stroke="midnightblue" points="1126.29,-394.78 1131.67,-385.65 1121.77,-389.43 1126.29,-394.78"/>
</g>
<!-- Node87 -->
<g id="node35" class="node">
<title>Node87</title>
<g id="a_node35"><a xlink:href="packet__list_8c.html#ac711a46f484040b1c67c522fbd96b826" target="_top" xlink:title="CCP が時系列に並ぶように CCP を挿入する">
<polygon fill="white" stroke="red" points="959,-290.5 959,-309.5 1058,-309.5 1058,-290.5 959,-290.5"/>
<text text-anchor="middle" x="1008.5" y="-297.5" font-family="Helvetica,sans-Serif" font-size="10.00">PL_insert_tl_cmd</text>
</a>
</g>
</g>
<!-- Node86&#45;&gt;Node87 -->
<g id="edge39" class="edge">
<title>Node86&#45;&gt;Node87</title>
<path fill="none" stroke="midnightblue" d="M885.67,-300C905.18,-300 927.97,-300 948.52,-300"/>
<polygon fill="midnightblue" stroke="midnightblue" points="948.72,-303.5 958.72,-300 948.72,-296.5 948.72,-303.5"/>
</g>
<!-- Node87&#45;&gt;Node83 -->
<g id="edge41" class="edge">
<title>Node87&#45;&gt;Node83</title>
<path fill="none" stroke="midnightblue" d="M1042.77,-309.55C1050.26,-312.2 1058.05,-315.36 1065,-319 1086.53,-330.26 1108.61,-347.13 1123.67,-359.59"/>
<polygon fill="midnightblue" stroke="midnightblue" points="1121.77,-362.57 1131.67,-366.35 1126.29,-357.22 1121.77,-362.57"/>
</g>
<!-- Node88 -->
<g id="node36" class="node">
<title>Node88</title>
<g id="a_node36"><a xlink:href="common__cmd__packet_8h.html#ad1a6be053f894381150410e424ec20ab" target="_top" xlink:title="TI を取得">
<polygon fill="white" stroke="red" points="1109,-246.5 1109,-265.5 1178,-265.5 1178,-246.5 1109,-246.5"/>
<text text-anchor="middle" x="1143.5" y="-253.5" font-family="Helvetica,sans-Serif" font-size="10.00">CCP_get_ti</text>
</a>
</g>
</g>
<!-- Node87&#45;&gt;Node88 -->
<g id="edge40" class="edge">
<title>Node87&#45;&gt;Node88</title>
<path fill="none" stroke="midnightblue" d="M1038.36,-290.45C1057.62,-284.08 1083.16,-275.63 1104.12,-268.7"/>
<polygon fill="midnightblue" stroke="midnightblue" points="1105.3,-271.99 1113.7,-265.53 1103.1,-265.35 1105.3,-271.99"/>
</g>
<!-- Node96&#45;&gt;Node54 -->
<g id="edge45" class="edge">
<title>Node96&#45;&gt;Node54</title>
<path fill="none" stroke="midnightblue" d="M658.12,-271.78C674.76,-291.16 714.81,-334.51 758,-357 762.52,-359.35 767.34,-361.42 772.28,-363.24"/>
<polygon fill="midnightblue" stroke="midnightblue" points="771.29,-366.6 781.89,-366.44 773.5,-359.96 771.29,-366.6"/>
</g>
<!-- Node96&#45;&gt;Node63 -->
<g id="edge46" class="edge">
<title>Node96&#45;&gt;Node63</title>
<path fill="none" stroke="midnightblue" d="M655.01,-271.85C668.21,-296.73 706.46,-362.41 758,-395 768.4,-401.58 780.9,-405.88 792.82,-408.69"/>
<polygon fill="midnightblue" stroke="midnightblue" points="792.14,-412.12 802.64,-410.72 793.55,-405.26 792.14,-412.12"/>
</g>
<!-- Node96&#45;&gt;Node86 -->
<g id="edge47" class="edge">
<title>Node96&#45;&gt;Node86</title>
<path fill="none" stroke="midnightblue" d="M696.94,-271.59C722.03,-276.72 753.12,-283.07 779.53,-288.46"/>
<polygon fill="midnightblue" stroke="midnightblue" points="778.9,-291.91 789.4,-290.48 780.3,-285.05 778.9,-291.91"/>
</g>
<!-- Node96&#45;&gt;Node88 -->
<g id="edge44" class="edge">
<title>Node96&#45;&gt;Node88</title>
<path fill="none" stroke="midnightblue" d="M676.65,-252.42C698.25,-245.18 729.66,-235.86 758,-232 880.85,-215.25 1027.41,-235.35 1098.91,-247.71"/>
<polygon fill="midnightblue" stroke="midnightblue" points="1098.45,-251.18 1108.91,-249.47 1099.67,-244.28 1098.45,-251.18"/>
</g>
<!-- Node97 -->
<g id="node38" class="node">
<title>Node97</title>
<g id="a_node38"><a xlink:href="common__cmd__packet_8h.html#aff399e79c4a5c9d75552b295de0d3365" target="_top" xlink:title="CommonCmdPacket をコピー">
<polygon fill="white" stroke="red" points="786,-164.5 786,-183.5 888,-183.5 888,-164.5 786,-164.5"/>
<text text-anchor="middle" x="837" y="-171.5" font-family="Helvetica,sans-Serif" font-size="10.00">CCP_copy_packet</text>
</a>
</g>
</g>
<!-- Node96&#45;&gt;Node97 -->
<g id="edge43" class="edge">
<title>Node96&#45;&gt;Node97</title>
<path fill="none" stroke="midnightblue" d="M690.92,-252.39C701.55,-248.84 712.63,-244.14 722,-238 742.01,-224.9 737.84,-210.87 758,-198 764.96,-193.56 772.8,-189.89 780.75,-186.88"/>
<polygon fill="midnightblue" stroke="midnightblue" points="782.15,-190.1 790.45,-183.53 779.86,-183.48 782.15,-190.1"/>
</g>
<!-- Node96&#45;&gt;Node100 -->
<g id="edge48" class="edge">
<title>Node96&#45;&gt;Node100</title>
<path fill="none" stroke="midnightblue" d="M697.65,-252.41C706.49,-248.98 715.1,-244.32 722,-238 751.65,-210.84 728.19,-181.99 758,-155 759.76,-153.41 761.61,-151.92 763.55,-150.53"/>
<polygon fill="midnightblue" stroke="midnightblue" points="765.83,-153.23 772.51,-145 762.16,-147.27 765.83,-153.23"/>
</g>
<!-- Node102 -->
<g id="node40" class="node">
<title>Node102</title>
<g id="a_node40"><a xlink:href="time__manager_8c.html#adb6317bb3e7f3896ae0f4bd41f8c531b" target="_top" xlink:title="引数で指定された utl_unixtime に対応する TI を返す">
<polygon fill="white" stroke="red" points="774.5,-241 774.5,-271 899.5,-271 899.5,-241 774.5,-241"/>
<text text-anchor="start" x="782.5" y="-259" font-family="Helvetica,sans-Serif" font-size="10.00">TMGR_get_ti_from_utl</text>
<text text-anchor="middle" x="837" y="-248" font-family="Helvetica,sans-Serif" font-size="10.00">_unixtime</text>
</a>
</g>
</g>
<!-- Node96&#45;&gt;Node102 -->
<g id="edge49" class="edge">
<title>Node96&#45;&gt;Node102</title>
<path fill="none" stroke="midnightblue" d="M700.83,-260.36C720.33,-259.73 742.97,-259 764.09,-258.32"/>
<polygon fill="midnightblue" stroke="midnightblue" points="764.42,-261.81 774.31,-257.99 764.2,-254.81 764.42,-261.81"/>
</g>
<!-- Node110 -->
<g id="node42" class="node">
<title>Node110</title>
<g id="a_node42"><a xlink:href="common__cmd__packet_8h.html#a120a6ef1fee069ab4c4013da8539e0eb" target="_top" xlink:title="DEST_TYPE を取得">
<polygon fill="white" stroke="red" points="953.5,-404.5 953.5,-423.5 1063.5,-423.5 1063.5,-404.5 953.5,-404.5"/>
<text text-anchor="middle" x="1008.5" y="-411.5" font-family="Helvetica,sans-Serif" font-size="10.00">CCP_get_dest_type</text>
</a>
</g>
</g>
<!-- Node109&#45;&gt;Node110 -->
<g id="edge51" class="edge">
<title>Node109&#45;&gt;Node110</title>
<path fill="none" stroke="midnightblue" d="M894.48,-347.63C901.99,-350.08 909.37,-353.15 916,-357 936.12,-368.67 932.43,-382.42 952,-395 955.14,-397.02 958.52,-398.85 962,-400.5"/>
<polygon fill="midnightblue" stroke="midnightblue" points="960.81,-403.8 971.39,-404.48 963.54,-397.35 960.81,-403.8"/>
</g>
<!-- Node112 -->
<g id="node43" class="node">
<title>Node112</title>
<g id="a_node43"><a xlink:href="user__packet__handler_8c.html#a311f412a8baddf012c1c91324ca32a76" target="_top" xlink:title=" ">
<polygon fill="white" stroke="black" points="952,-366.5 952,-385.5 1065,-385.5 1065,-366.5 952,-366.5"/>
<text text-anchor="middle" x="1008.5" y="-373.5" font-family="Helvetica,sans-Serif" font-size="10.00">PH_add_aobc_cmd_</text>
</a>
</g>
</g>
<!-- Node109&#45;&gt;Node112 -->
<g id="edge52" class="edge">
<title>Node109&#45;&gt;Node112</title>
<path fill="none" stroke="midnightblue" d="M880.77,-347.59C903.34,-352.65 931.22,-358.9 955.08,-364.25"/>
<polygon fill="midnightblue" stroke="midnightblue" points="954.51,-367.71 965.04,-366.48 956.04,-360.88 954.51,-367.71"/>
</g>
<!-- Node113 -->
<g id="node44" class="node">
<title>Node113</title>
<g id="a_node44"><a xlink:href="user__packet__handler_8c.html#a4b0723acb8a522d6f5a481a679f9be10" target="_top" xlink:title=" ">
<polygon fill="white" stroke="black" points="953,-328.5 953,-347.5 1064,-347.5 1064,-328.5 953,-328.5"/>
<text text-anchor="middle" x="1008.5" y="-335.5" font-family="Helvetica,sans-Serif" font-size="10.00">PH_add_tobc_cmd_</text>
</a>
</g>
</g>
<!-- Node109&#45;&gt;Node113 -->
<g id="edge54" class="edge">
<title>Node109&#45;&gt;Node113</title>
<path fill="none" stroke="midnightblue" d="M900.15,-338C914.07,-338 928.86,-338 942.87,-338"/>
<polygon fill="midnightblue" stroke="midnightblue" points="942.91,-341.5 952.91,-338 942.91,-334.5 942.91,-341.5"/>
</g>
<!-- Node112&#45;&gt;Node83 -->
<g id="edge53" class="edge">
<title>Node112&#45;&gt;Node83</title>
<path fill="none" stroke="midnightblue" d="M1065.13,-376C1073.64,-376 1082.38,-376 1090.79,-376"/>
<polygon fill="midnightblue" stroke="midnightblue" points="1090.85,-379.5 1100.85,-376 1090.85,-372.5 1090.85,-379.5"/>
</g>
<!-- Node113&#45;&gt;Node83 -->
<g id="edge55" class="edge">
<title>Node113&#45;&gt;Node83</title>
<path fill="none" stroke="midnightblue" d="M1043.06,-347.59C1060.07,-352.45 1080.93,-358.41 1099.14,-363.61"/>
<polygon fill="midnightblue" stroke="midnightblue" points="1098.37,-367.03 1108.95,-366.41 1100.3,-360.3 1098.37,-367.03"/>
</g>
<!-- Node114&#45;&gt;Node5 -->
<g id="edge58" class="edge">
<title>Node114&#45;&gt;Node5</title>
<path fill="none" stroke="midnightblue" d="M331.03,-727.59C354.37,-732.67 383.23,-738.96 407.87,-744.32"/>
<polygon fill="midnightblue" stroke="midnightblue" points="407.27,-747.77 417.78,-746.48 408.76,-740.93 407.27,-747.77"/>
</g>
<!-- Node115&#45;&gt;Node5 -->
<g id="edge60" class="edge">
<title>Node115&#45;&gt;Node5</title>
<path fill="none" stroke="midnightblue" d="M338.41,-756C349.8,-756 362.18,-756 374.54,-756"/>
<polygon fill="midnightblue" stroke="midnightblue" points="374.91,-759.5 384.91,-756 374.91,-752.5 374.91,-759.5"/>
</g>
<!-- Node117 -->
<g id="node48" class="node">
<title>Node117</title>
<g id="a_node48"><a xlink:href="telemetry__manager_8c.html#aca6344c0e7a1eb93e72a2c07f36ba89e" target="_top" xlink:title="指定したBCを NOP x TLM_MGR_MAX_TLM_NUM_PER_BC で埋める">
<polygon fill="white" stroke="black" points="385,-62.5 385,-81.5 540,-81.5 540,-62.5 385,-62.5"/>
<text text-anchor="middle" x="462.5" y="-69.5" font-family="Helvetica,sans-Serif" font-size="10.00">TLM_MGR_clear_bc_to_nop_</text>
</a>
</g>
</g>
<!-- Node116&#45;&gt;Node117 -->
<g id="edge62" class="edge">
<title>Node116&#45;&gt;Node117</title>
<path fill="none" stroke="midnightblue" d="M296.38,-338.84C326.11,-290.8 418.12,-142.11 450.27,-90.15"/>
<polygon fill="midnightblue" stroke="midnightblue" points="453.26,-91.96 455.55,-81.62 447.31,-88.28 453.26,-91.96"/>
</g>
<!-- Node118 -->
<g id="node49" class="node">
<title>Node118</title>
<g id="a_node49"><a xlink:href="block__command__loader_8c.html#a3b8f5d996e5769cd9d42ee4c78e48a43" target="_top" xlink:title="指定されたブロックコマンドIDへの登録を安全に行うためのwrapper関数">
<polygon fill="white" stroke="red" points="610,-62.5 610,-81.5 688,-81.5 688,-62.5 610,-62.5"/>
<text text-anchor="middle" x="649" y="-69.5" font-family="Helvetica,sans-Serif" font-size="10.00">BCL_load_bc</text>
</a>
</g>
</g>
<!-- Node117&#45;&gt;Node118 -->
<g id="edge63" class="edge">
<title>Node117&#45;&gt;Node118</title>
<path fill="none" stroke="midnightblue" d="M540.14,-72C560.26,-72 581.41,-72 599.59,-72"/>
<polygon fill="midnightblue" stroke="midnightblue" points="599.64,-75.5 609.64,-72 599.64,-68.5 599.64,-75.5"/>
</g>
<!-- Node129 -->
<g id="node50" class="node">
<title>Node129</title>
<g id="a_node50"><a xlink:href="telemetry__manager_8c.html#abb254dddda35d23891f16afbfd91e039" target="_top" xlink:title="NOP で埋められた BCの構築">
<polygon fill="white" stroke="red" points="580.5,-24.5 580.5,-43.5 717.5,-43.5 717.5,-24.5 580.5,-24.5"/>
<text text-anchor="middle" x="649" y="-31.5" font-family="Helvetica,sans-Serif" font-size="10.00">TLM_MGR_load_nop_bc_</text>
</a>
</g>
</g>
<!-- Node117&#45;&gt;Node129 -->
<g id="edge64" class="edge">
<title>Node117&#45;&gt;Node129</title>
<path fill="none" stroke="midnightblue" d="M510.06,-62.41C534.84,-57.31 565.52,-50.99 591.64,-45.61"/>
<polygon fill="midnightblue" stroke="midnightblue" points="592.69,-48.97 601.78,-43.52 591.28,-42.11 592.69,-48.97"/>
</g>
</g>
</svg>
