<?xml version="1.0" encoding="UTF-8" standalone="no"?>
<!DOCTYPE svg PUBLIC "-//W3C//DTD SVG 1.1//EN"
 "http://www.w3.org/Graphics/SVG/1.1/DTD/svg11.dtd">
<!-- Generated by graphviz version 2.43.0 (0)
 -->
<!-- Title: TLM_MGR_clear_bc_of_register_info_ Pages: 1 -->
<svg width="1485pt" height="615pt"
 viewBox="0.00 0.00 1485.00 614.58" xmlns="http://www.w3.org/2000/svg" xmlns:xlink="http://www.w3.org/1999/xlink">
<g id="graph0" class="graph" transform="scale(1 1) rotate(0) translate(4 610.58)">
<title>TLM_MGR_clear_bc_of_register_info_</title>
<polygon fill="white" stroke="transparent" points="-4,4 -4,-610.58 1481,-610.58 1481,4 -4,4"/>
<!-- Node1 -->
<g id="node1" class="node">
<title>Node1</title>
<g id="a_node1"><a xlink:title="TLM_MGR_RegisterInfo 登録されている BC をクリアして NOP で埋める">
<polygon fill="#bfbfbf" stroke="black" points="0,-299 0,-329 126,-329 126,-299 0,-299"/>
<text text-anchor="start" x="8" y="-317" font-family="Helvetica,sans-Serif" font-size="10.00">TLM_MGR_clear_bc_of</text>
<text text-anchor="middle" x="63" y="-306" font-family="Helvetica,sans-Serif" font-size="10.00">_register_info_</text>
</a>
</g>
</g>
<!-- Node2 -->
<g id="node2" class="node">
<title>Node2</title>
<g id="a_node2"><a xlink:href="telemetry__manager_8c.html#aca6344c0e7a1eb93e72a2c07f36ba89e" target="_top" xlink:title="指定したBCを NOP x TLM_MGR_MAX_TLM_NUM_PER_BC で埋める">
<polygon fill="white" stroke="black" points="162,-304.5 162,-323.5 317,-323.5 317,-304.5 162,-304.5"/>
<text text-anchor="middle" x="239.5" y="-311.5" font-family="Helvetica,sans-Serif" font-size="10.00">TLM_MGR_clear_bc_to_nop_</text>
</a>
</g>
</g>
<!-- Node1&#45;&gt;Node2 -->
<g id="edge1" class="edge">
<title>Node1&#45;&gt;Node2</title>
<path fill="none" stroke="midnightblue" d="M126.01,-314C134.32,-314 142.96,-314 151.6,-314"/>
<polygon fill="midnightblue" stroke="midnightblue" points="151.72,-317.5 161.72,-314 151.72,-310.5 151.72,-317.5"/>
</g>
<!-- Node3 -->
<g id="node3" class="node">
<title>Node3</title>
<g id="a_node3"><a xlink:href="block__command__loader_8c.html#a3b8f5d996e5769cd9d42ee4c78e48a43" target="_top" xlink:title="指定されたブロックコマンドIDへの登録を安全に行うためのwrapper関数">
<polygon fill="white" stroke="black" points="551,-323.5 551,-342.5 629,-342.5 629,-323.5 551,-323.5"/>
<text text-anchor="middle" x="590" y="-330.5" font-family="Helvetica,sans-Serif" font-size="10.00">BCL_load_bc</text>
</a>
</g>
</g>
<!-- Node2&#45;&gt;Node3 -->
<g id="edge2" class="edge">
<title>Node2&#45;&gt;Node3</title>
<path fill="none" stroke="midnightblue" d="M317.41,-318.19C385.53,-321.91 482.88,-327.21 540.64,-330.36"/>
<polygon fill="midnightblue" stroke="midnightblue" points="540.77,-333.88 550.95,-330.93 541.15,-326.89 540.77,-333.88"/>
</g>
<!-- Node16 -->
<g id="node16" class="node">
<title>Node16</title>
<g id="a_node16"><a xlink:href="telemetry__manager_8c.html#abb254dddda35d23891f16afbfd91e039" target="_top" xlink:title="NOP で埋められた BCの構築">
<polygon fill="white" stroke="black" points="353,-285.5 353,-304.5 490,-304.5 490,-285.5 353,-285.5"/>
<text text-anchor="middle" x="421.5" y="-292.5" font-family="Helvetica,sans-Serif" font-size="10.00">TLM_MGR_load_nop_bc_</text>
</a>
</g>
</g>
<!-- Node2&#45;&gt;Node16 -->
<g id="edge21" class="edge">
<title>Node2&#45;&gt;Node16</title>
<path fill="none" stroke="midnightblue" d="M317.1,-305.91C325.53,-305.02 334.13,-304.12 342.58,-303.22"/>
<polygon fill="midnightblue" stroke="midnightblue" points="343.22,-306.68 352.8,-302.15 342.48,-299.72 343.22,-306.68"/>
</g>
<!-- Node4 -->
<g id="node4" class="node">
<title>Node4</title>
<g id="a_node4"><a xlink:href="block__command__executor_8c.html#afa74726eddc14b94b624b69408b116f9" target="_top" xlink:title="block_command_table&#45;&gt;pos の BC を activate する">
<polygon fill="white" stroke="black" points="836,-418.5 836,-437.5 949,-437.5 949,-418.5 836,-418.5"/>
<text text-anchor="middle" x="892.5" y="-425.5" font-family="Helvetica,sans-Serif" font-size="10.00">BCE_activate_block</text>
</a>
</g>
</g>
<!-- Node3&#45;&gt;Node4 -->
<g id="edge3" class="edge">
<title>Node3&#45;&gt;Node4</title>
<path fill="none" stroke="midnightblue" d="M599.71,-342.55C615.71,-359.37 651.68,-393.95 690,-409 733.11,-425.94 785.26,-430.47 825.7,-430.88"/>
<polygon fill="midnightblue" stroke="midnightblue" points="825.71,-434.38 835.72,-430.9 825.72,-427.38 825.71,-434.38"/>
</g>
<!-- Node8 -->
<g id="node8" class="node">
<title>Node8</title>
<g id="a_node8"><a xlink:href="block__command__loader_8c.html#ae259ce6d85f2937c0c260c4e70a523a6" target="_top" xlink:title=" ">
<polygon fill="white" stroke="black" points="698,-266.5 698,-285.5 792,-285.5 792,-266.5 698,-266.5"/>
<text text-anchor="middle" x="745" y="-273.5" font-family="Helvetica,sans-Serif" font-size="10.00">BCL_clear_info_</text>
</a>
</g>
</g>
<!-- Node3&#45;&gt;Node8 -->
<g id="edge7" class="edge">
<title>Node3&#45;&gt;Node8</title>
<path fill="none" stroke="midnightblue" d="M615.34,-323.44C635.33,-315.64 664.43,-304.4 690,-295 695.5,-292.98 701.33,-290.88 707.04,-288.85"/>
<polygon fill="midnightblue" stroke="midnightblue" points="708.21,-292.15 716.48,-285.52 705.88,-285.55 708.21,-292.15"/>
</g>
<!-- Node9 -->
<g id="node9" class="node">
<title>Node9</title>
<g id="a_node9"><a xlink:href="block__command__table_8c.html#a1ebc0b01cb3816d89903243ac30b882e" target="_top" xlink:title="指定された block の BCT を初期化する">
<polygon fill="white" stroke="black" points="696.5,-380.5 696.5,-399.5 793.5,-399.5 793.5,-380.5 696.5,-380.5"/>
<text text-anchor="middle" x="745" y="-387.5" font-family="Helvetica,sans-Serif" font-size="10.00">BCT_clear_block</text>
</a>
</g>
</g>
<!-- Node3&#45;&gt;Node9 -->
<g id="edge8" class="edge">
<title>Node3&#45;&gt;Node9</title>
<path fill="none" stroke="midnightblue" d="M615.34,-342.56C635.33,-350.36 664.43,-361.6 690,-371 695.5,-373.02 701.33,-375.12 707.04,-377.15"/>
<polygon fill="midnightblue" stroke="midnightblue" points="705.88,-380.45 716.48,-380.48 708.21,-373.85 705.88,-380.45"/>
</g>
<!-- Node14 -->
<g id="node14" class="node">
<title>Node14</title>
<g id="a_node14"><a xlink:href="block__command__table_8c.html#a23bedf8b5329bf20bcd79b3b79db01f7" target="_top" xlink:title="pos を pos_stored から復旧">
<polygon fill="white" stroke="black" points="696,-342.5 696,-361.5 794,-361.5 794,-342.5 696,-342.5"/>
<text text-anchor="middle" x="745" y="-349.5" font-family="Helvetica,sans-Serif" font-size="10.00">BCT_restore_pos</text>
</a>
</g>
</g>
<!-- Node3&#45;&gt;Node14 -->
<g id="edge19" class="edge">
<title>Node3&#45;&gt;Node14</title>
<path fill="none" stroke="midnightblue" d="M629.21,-337.75C646.32,-339.87 666.87,-342.42 685.82,-344.78"/>
<polygon fill="midnightblue" stroke="midnightblue" points="685.5,-348.26 695.86,-346.02 686.36,-341.32 685.5,-348.26"/>
</g>
<!-- Node15 -->
<g id="node15" class="node">
<title>Node15</title>
<g id="a_node15"><a xlink:href="block__command__table_8c.html#ab267a5795fb4b8be5df08ab86465f2a4" target="_top" xlink:title="pos を pos_stored に保存">
<polygon fill="white" stroke="black" points="700.5,-304.5 700.5,-323.5 789.5,-323.5 789.5,-304.5 700.5,-304.5"/>
<text text-anchor="middle" x="745" y="-311.5" font-family="Helvetica,sans-Serif" font-size="10.00">BCT_store_pos</text>
</a>
</g>
</g>
<!-- Node3&#45;&gt;Node15 -->
<g id="edge20" class="edge">
<title>Node3&#45;&gt;Node15</title>
<path fill="none" stroke="midnightblue" d="M629.21,-328.25C647.69,-325.96 670.18,-323.17 690.34,-320.66"/>
<polygon fill="midnightblue" stroke="midnightblue" points="690.83,-324.13 700.33,-319.42 689.97,-317.18 690.83,-324.13"/>
</g>
<!-- Node5 -->
<g id="node5" class="node">
<title>Node5</title>
<g id="a_node5"><a xlink:href="block__command__executor_8c.html#a314a5503ec3307e3e4049d32e54399ee" target="_top" xlink:title=" ">
<polygon fill="white" stroke="black" points="1171.5,-541.5 1171.5,-560.5 1314.5,-560.5 1314.5,-541.5 1171.5,-541.5"/>
<text text-anchor="middle" x="1243" y="-548.5" font-family="Helvetica,sans-Serif" font-size="10.00">BCE_get_bc_exe_params_</text>
</a>
</g>
</g>
<!-- Node4&#45;&gt;Node5 -->
<g id="edge4" class="edge">
<title>Node4&#45;&gt;Node5</title>
<path fill="none" stroke="midnightblue" d="M904.84,-437.59C916.93,-448.24 936.08,-466.4 949,-485 970.33,-515.69 953.42,-541.01 985,-561 1053.77,-604.52 1154.88,-581 1207.43,-563.85"/>
<polygon fill="midnightblue" stroke="midnightblue" points="1208.6,-567.14 1216.96,-560.63 1206.36,-560.51 1208.6,-567.14"/>
</g>
<!-- Node6 -->
<g id="node6" class="node">
<title>Node6</title>
<g id="a_node6"><a xlink:href="block__command__executor_8c.html#a458f942c6bfdc924ca92dbf06e1eefdc" target="_top" xlink:title=" ">
<polygon fill="white" stroke="black" points="1171.5,-484.5 1171.5,-503.5 1314.5,-503.5 1314.5,-484.5 1171.5,-484.5"/>
<text text-anchor="middle" x="1243" y="-491.5" font-family="Helvetica,sans-Serif" font-size="10.00">BCE_set_bc_exe_params_</text>
</a>
</g>
</g>
<!-- Node4&#45;&gt;Node6 -->
<g id="edge5" class="edge">
<title>Node4&#45;&gt;Node6</title>
<path fill="none" stroke="midnightblue" d="M943.8,-437.53C1006.73,-449.44 1114.39,-469.83 1181.68,-482.58"/>
<polygon fill="midnightblue" stroke="midnightblue" points="1181.24,-486.05 1191.71,-484.48 1182.54,-479.18 1181.24,-486.05"/>
</g>
<!-- Node7 -->
<g id="node7" class="node">
<title>Node7</title>
<g id="a_node7"><a xlink:href="block__command__table_8c.html#add2db8412ac7b28b2e61d99638daaac5" target="_top" xlink:title="BCT の length の getter">
<polygon fill="white" stroke="black" points="1003,-380.5 1003,-399.5 1113,-399.5 1113,-380.5 1003,-380.5"/>
<text text-anchor="middle" x="1058" y="-387.5" font-family="Helvetica,sans-Serif" font-size="10.00">BCT_get_bc_length</text>
</a>
</g>
</g>
<!-- Node4&#45;&gt;Node7 -->
<g id="edge6" class="edge">
<title>Node4&#45;&gt;Node7</title>
<path fill="none" stroke="midnightblue" d="M934.76,-418.41C956.43,-413.37 983.18,-407.16 1006.13,-401.82"/>
<polygon fill="midnightblue" stroke="midnightblue" points="1007.09,-405.19 1016.04,-399.52 1005.51,-398.37 1007.09,-405.19"/>
</g>
<!-- Node10 -->
<g id="node10" class="node">
<title>Node10</title>
<g id="a_node10"><a xlink:href="block__command__executor_8c.html#a6e05f5a7b995f6a92a38c858792d6cd0" target="_top" xlink:title="指定された block の BCE を初期化">
<polygon fill="white" stroke="black" points="844,-494.5 844,-513.5 941,-513.5 941,-494.5 844,-494.5"/>
<text text-anchor="middle" x="892.5" y="-501.5" font-family="Helvetica,sans-Serif" font-size="10.00">BCE_clear_block</text>
</a>
</g>
</g>
<!-- Node9&#45;&gt;Node10 -->
<g id="edge9" class="edge">
<title>Node9&#45;&gt;Node10</title>
<path fill="none" stroke="midnightblue" d="M758.41,-399.72C783.53,-419.41 840.64,-464.15 871.25,-488.13"/>
<polygon fill="midnightblue" stroke="midnightblue" points="869.1,-490.89 879.13,-494.31 873.41,-485.38 869.1,-490.89"/>
</g>
<!-- Node13 -->
<g id="node13" class="node">
<title>Node13</title>
<g id="a_node13"><a xlink:href="block__command__table_8c.html#a8de02d89c561030741c771739016db35" target="_top" xlink:title=" ">
<polygon fill="white" stroke="black" points="1001,-342.5 1001,-361.5 1115,-361.5 1115,-342.5 1001,-342.5"/>
<text text-anchor="middle" x="1058" y="-349.5" font-family="Helvetica,sans-Serif" font-size="10.00">BCT_set_bc_length_</text>
</a>
</g>
</g>
<!-- Node9&#45;&gt;Node13 -->
<g id="edge18" class="edge">
<title>Node9&#45;&gt;Node13</title>
<path fill="none" stroke="midnightblue" d="M793.57,-384.19C846.25,-377.75 931.54,-367.33 990.74,-360.1"/>
<polygon fill="midnightblue" stroke="midnightblue" points="991.24,-363.56 1000.74,-358.87 990.39,-356.61 991.24,-363.56"/>
</g>
<!-- Node10&#45;&gt;Node5 -->
<g id="edge10" class="edge">
<title>Node10&#45;&gt;Node5</title>
<path fill="none" stroke="midnightblue" d="M899.56,-513.79C912.42,-533.49 944.58,-577.45 985,-594 1064.12,-626.39 1166.48,-587.53 1214.65,-564.96"/>
<polygon fill="midnightblue" stroke="midnightblue" points="1216.31,-568.04 1223.81,-560.55 1213.28,-561.73 1216.31,-568.04"/>
</g>
<!-- Node10&#45;&gt;Node6 -->
<g id="edge17" class="edge">
<title>Node10&#45;&gt;Node6</title>
<path fill="none" stroke="midnightblue" d="M930.63,-494.49C947.15,-490.73 966.92,-486.86 985,-485 1043.79,-478.96 1110.5,-481.57 1161.22,-485.51"/>
<polygon fill="midnightblue" stroke="midnightblue" points="1161.22,-489.02 1171.47,-486.33 1161.78,-482.04 1161.22,-489.02"/>
</g>
<!-- Node11 -->
<g id="node11" class="node">
<title>Node11</title>
<g id="a_node11"><a xlink:href="block__command__executor_8c.html#a0b8956e904421adc0bdcf7bc5bb6f77c" target="_top" xlink:title=" ">
<polygon fill="white" stroke="black" points="987.5,-494.5 987.5,-513.5 1128.5,-513.5 1128.5,-494.5 987.5,-494.5"/>
<text text-anchor="middle" x="1058" y="-501.5" font-family="Helvetica,sans-Serif" font-size="10.00">BCE_reset_combiner_info</text>
</a>
</g>
</g>
<!-- Node10&#45;&gt;Node11 -->
<g id="edge11" class="edge">
<title>Node10&#45;&gt;Node11</title>
<path fill="none" stroke="midnightblue" d="M941.23,-504C952.5,-504 964.81,-504 977.07,-504"/>
<polygon fill="midnightblue" stroke="midnightblue" points="977.34,-507.5 987.34,-504 977.34,-500.5 977.34,-507.5"/>
</g>
<!-- Node12 -->
<g id="node12" class="node">
<title>Node12</title>
<g id="a_node12"><a xlink:href="block__command__executor_8c.html#a853db84c8dfb9ec02d82ef44fc98ec18" target="_top" xlink:title=" ">
<polygon fill="white" stroke="black" points="994,-532.5 994,-551.5 1122,-551.5 1122,-532.5 994,-532.5"/>
<text text-anchor="middle" x="1058" y="-539.5" font-family="Helvetica,sans-Serif" font-size="10.00">BCE_reset_rotator_info</text>
</a>
</g>
</g>
<!-- Node10&#45;&gt;Node12 -->
<g id="edge14" class="edge">
<title>Node10&#45;&gt;Node12</title>
<path fill="none" stroke="midnightblue" d="M934.76,-513.59C956.43,-518.63 983.18,-524.84 1006.13,-530.18"/>
<polygon fill="midnightblue" stroke="midnightblue" points="1005.51,-533.63 1016.04,-532.48 1007.09,-526.81 1005.51,-533.63"/>
</g>
<!-- Node11&#45;&gt;Node5 -->
<g id="edge12" class="edge">
<title>Node11&#45;&gt;Node5</title>
<path fill="none" stroke="midnightblue" d="M1096.03,-513.51C1124.46,-520.81 1163.93,-530.95 1194.65,-538.84"/>
<polygon fill="midnightblue" stroke="midnightblue" points="1194.15,-542.32 1204.71,-541.42 1195.89,-535.54 1194.15,-542.32"/>
</g>
<!-- Node11&#45;&gt;Node6 -->
<g id="edge13" class="edge">
<title>Node11&#45;&gt;Node6</title>
<path fill="none" stroke="midnightblue" d="M1128.71,-500.19C1139.27,-499.61 1150.24,-499.01 1161.02,-498.43"/>
<polygon fill="midnightblue" stroke="midnightblue" points="1161.48,-501.91 1171.27,-497.86 1161.1,-494.92 1161.48,-501.91"/>
</g>
<!-- Node12&#45;&gt;Node5 -->
<g id="edge15" class="edge">
<title>Node12&#45;&gt;Node5</title>
<path fill="none" stroke="midnightblue" d="M1122.23,-545.11C1134.71,-545.72 1147.96,-546.37 1160.92,-547.01"/>
<polygon fill="midnightblue" stroke="midnightblue" points="1161.08,-550.52 1171.24,-547.52 1161.42,-543.53 1161.08,-550.52"/>
</g>
<!-- Node12&#45;&gt;Node6 -->
<g id="edge16" class="edge">
<title>Node12&#45;&gt;Node6</title>
<path fill="none" stroke="midnightblue" d="M1095.59,-532.4C1124.39,-524.85 1164.71,-514.27 1195.75,-506.13"/>
<polygon fill="midnightblue" stroke="midnightblue" points="1196.69,-509.5 1205.47,-503.58 1194.91,-502.73 1196.69,-509.5"/>
</g>
<!-- Node17 -->
<g id="node17" class="node">
<title>Node17</title>
<g id="a_node17"><a xlink:href="block__command__loader_8c.html#adc8e2381948a082e62d72d9971fc203f" target="_top" xlink:title="ブロックコマンドの最後にコマンドを追加する">
<polygon fill="white" stroke="black" points="526,-266.5 526,-285.5 654,-285.5 654,-266.5 526,-266.5"/>
<text text-anchor="middle" x="590" y="-273.5" font-family="Helvetica,sans-Serif" font-size="10.00">BCL_tool_register_cmd</text>
</a>
</g>
</g>
<!-- Node16&#45;&gt;Node17 -->
<g id="edge22" class="edge">
<title>Node16&#45;&gt;Node17</title>
<path fill="none" stroke="midnightblue" d="M490.22,-287.27C498.7,-286.3 507.4,-285.31 515.95,-284.34"/>
<polygon fill="midnightblue" stroke="midnightblue" points="516.37,-287.81 525.91,-283.2 515.57,-280.86 516.37,-287.81"/>
</g>
<!-- Node17&#45;&gt;Node8 -->
<g id="edge23" class="edge">
<title>Node17&#45;&gt;Node8</title>
<path fill="none" stroke="midnightblue" d="M654.11,-276C665.22,-276 676.71,-276 687.61,-276"/>
<polygon fill="midnightblue" stroke="midnightblue" points="687.86,-279.5 697.86,-276 687.86,-272.5 687.86,-279.5"/>
</g>
<!-- Node18 -->
<g id="node18" class="node">
<title>Node18</title>
<g id="a_node18"><a xlink:href="block__command__loader_8c.html#a34da4d8efe30b2f1872103496dfcf8cb" target="_top" xlink:title=" ">
<polygon fill="white" stroke="black" points="690,-228.5 690,-247.5 800,-247.5 800,-228.5 690,-228.5"/>
<text text-anchor="middle" x="745" y="-235.5" font-family="Helvetica,sans-Serif" font-size="10.00">BCL_register_cmd_</text>
</a>
</g>
</g>
<!-- Node17&#45;&gt;Node18 -->
<g id="edge24" class="edge">
<title>Node17&#45;&gt;Node18</title>
<path fill="none" stroke="midnightblue" d="M629.61,-266.41C649.71,-261.42 674.48,-255.27 695.82,-249.97"/>
<polygon fill="midnightblue" stroke="midnightblue" points="696.81,-253.33 705.67,-247.52 695.12,-246.53 696.81,-253.33"/>
</g>
<!-- Node19 -->
<g id="node19" class="node">
<title>Node19</title>
<g id="a_node19"><a xlink:href="block__command__table_8c.html#a203d4e8714245fd65719d10d35ae0d09" target="_top" xlink:title="Cmd を block_command_table&#45;&gt;pos に登録する">
<polygon fill="white" stroke="black" points="840,-304.5 840,-323.5 945,-323.5 945,-304.5 840,-304.5"/>
<text text-anchor="middle" x="892.5" y="-311.5" font-family="Helvetica,sans-Serif" font-size="10.00">BCT_register_cmd</text>
</a>
</g>
</g>
<!-- Node18&#45;&gt;Node19 -->
<g id="edge25" class="edge">
<title>Node18&#45;&gt;Node19</title>
<path fill="none" stroke="midnightblue" d="M776.75,-247.51C784.47,-250.25 792.65,-253.47 800,-257 824.85,-268.94 851.4,-286.01 869.47,-298.36"/>
<polygon fill="midnightblue" stroke="midnightblue" points="867.87,-301.51 878.09,-304.33 871.86,-295.76 867.87,-301.51"/>
</g>
<!-- Node25 -->
<g id="node25" class="node">
<title>Node25</title>
<g id="a_node25"><a xlink:href="common__tlm__cmd__packet__util_8c.html#aa6724382fdc7221804d8649c76ca6d5f" target="_top" xlink:title="Timeline command を生成">
<polygon fill="white" stroke="black" points="851.5,-133.5 851.5,-152.5 933.5,-152.5 933.5,-133.5 851.5,-133.5"/>
<text text-anchor="middle" x="892.5" y="-140.5" font-family="Helvetica,sans-Serif" font-size="10.00">CCP_form_tlc</text>
</a>
</g>
</g>
<!-- Node18&#45;&gt;Node25 -->
<g id="edge34" class="edge">
<title>Node18&#45;&gt;Node25</title>
<path fill="none" stroke="midnightblue" d="M760.75,-228.37C786.02,-211.87 837.8,-178.06 868.06,-158.3"/>
<polygon fill="midnightblue" stroke="midnightblue" points="870.25,-161.06 876.71,-152.66 866.42,-155.19 870.25,-161.06"/>
</g>
<!-- Node19&#45;&gt;Node7 -->
<g id="edge27" class="edge">
<title>Node19&#45;&gt;Node7</title>
<path fill="none" stroke="midnightblue" d="M906.15,-323.61C923.21,-336.15 954.93,-358.02 985,-371 990.69,-373.45 996.77,-375.66 1002.89,-377.61"/>
<polygon fill="midnightblue" stroke="midnightblue" points="1001.92,-380.98 1012.51,-380.49 1003.93,-374.27 1001.92,-380.98"/>
</g>
<!-- Node19&#45;&gt;Node13 -->
<g id="edge33" class="edge">
<title>Node19&#45;&gt;Node13</title>
<path fill="none" stroke="midnightblue" d="M934.76,-323.59C956.43,-328.63 983.18,-334.84 1006.13,-340.18"/>
<polygon fill="midnightblue" stroke="midnightblue" points="1005.51,-343.63 1016.04,-342.48 1007.09,-336.81 1005.51,-343.63"/>
</g>
<!-- Node20 -->
<g id="node20" class="node">
<title>Node20</title>
<g id="a_node20"><a xlink:href="block__command__table_8c.html#ae25a57a4a97b49bf13a4caa0b5e8ff76" target="_top" xlink:title="BCT_Pos* の validate">
<polygon fill="white" stroke="black" points="1186,-266.5 1186,-285.5 1300,-285.5 1300,-266.5 1186,-266.5"/>
<text text-anchor="middle" x="1243" y="-273.5" font-family="Helvetica,sans-Serif" font-size="10.00">BCT_check_position</text>
</a>
</g>
</g>
<!-- Node19&#45;&gt;Node20 -->
<g id="edge26" class="edge">
<title>Node19&#45;&gt;Node20</title>
<path fill="none" stroke="midnightblue" d="M933.84,-304.44C949.71,-300.99 968.13,-297.36 985,-295 1049.49,-285.96 1123.72,-281.06 1175.77,-278.51"/>
<polygon fill="midnightblue" stroke="midnightblue" points="1176.05,-282 1185.88,-278.03 1175.72,-275.01 1176.05,-282"/>
</g>
<!-- Node21 -->
<g id="node21" class="node">
<title>Node21</title>
<g id="a_node21"><a xlink:href="block__command__table_8c.html#a452f0a76d249ba2bd1d66a0312d71f02" target="_top" xlink:title="pos の指す場所に packet の内容を保存 (TCP_PRM_HDR_LEN の長さも考慮)">
<polygon fill="white" stroke="black" points="1010,-304.5 1010,-323.5 1106,-323.5 1106,-304.5 1010,-304.5"/>
<text text-anchor="middle" x="1058" y="-311.5" font-family="Helvetica,sans-Serif" font-size="10.00">BCT_save_cmd_</text>
</a>
</g>
</g>
<!-- Node19&#45;&gt;Node21 -->
<g id="edge28" class="edge">
<title>Node19&#45;&gt;Node21</title>
<path fill="none" stroke="midnightblue" d="M945.23,-314C962.52,-314 981.88,-314 999.57,-314"/>
<polygon fill="midnightblue" stroke="midnightblue" points="999.76,-317.5 1009.76,-314 999.76,-310.5 999.76,-317.5"/>
</g>
<!-- Node21&#45;&gt;Node20 -->
<g id="edge29" class="edge">
<title>Node21&#45;&gt;Node20</title>
<path fill="none" stroke="midnightblue" d="M1105.18,-304.41C1129.76,-299.31 1160.19,-292.99 1186.1,-287.61"/>
<polygon fill="midnightblue" stroke="midnightblue" points="1187.07,-290.98 1196.15,-285.52 1185.65,-284.13 1187.07,-290.98"/>
</g>
<!-- Node22 -->
<g id="node22" class="node">
<title>Node22</title>
<g id="a_node22"><a xlink:href="block__command__table_8c.html#a5099527d441a777f4656300ab41037da" target="_top" xlink:title=" ">
<polygon fill="white" stroke="black" points="1177.5,-304.5 1177.5,-323.5 1308.5,-323.5 1308.5,-304.5 1177.5,-304.5"/>
<text text-anchor="middle" x="1243" y="-311.5" font-family="Helvetica,sans-Serif" font-size="10.00">BCT_set_bc_cmd_data_</text>
</a>
</g>
</g>
<!-- Node21&#45;&gt;Node22 -->
<g id="edge30" class="edge">
<title>Node21&#45;&gt;Node22</title>
<path fill="none" stroke="midnightblue" d="M1106.13,-314C1124.78,-314 1146.69,-314 1167.4,-314"/>
<polygon fill="midnightblue" stroke="midnightblue" points="1167.45,-317.5 1177.45,-314 1167.45,-310.5 1167.45,-317.5"/>
</g>
<!-- Node23 -->
<g id="node23" class="node">
<title>Node23</title>
<g id="a_node23"><a xlink:href="common__tlm__cmd__packet_8h.html#ad78165495f290e15c34fba3c5acb1c34" target="_top" xlink:title="CTCP (CCP) のパケット長を取得">
<polygon fill="white" stroke="black" points="1185.5,-352.5 1185.5,-371.5 1300.5,-371.5 1300.5,-352.5 1185.5,-352.5"/>
<text text-anchor="middle" x="1243" y="-359.5" font-family="Helvetica,sans-Serif" font-size="10.00">CCP_get_packet_len</text>
</a>
</g>
</g>
<!-- Node21&#45;&gt;Node23 -->
<g id="edge31" class="edge">
<title>Node21&#45;&gt;Node23</title>
<path fill="none" stroke="midnightblue" d="M1095.59,-323.6C1124.39,-331.15 1164.71,-341.73 1195.75,-349.87"/>
<polygon fill="midnightblue" stroke="midnightblue" points="1194.91,-353.27 1205.47,-352.42 1196.69,-346.5 1194.91,-353.27"/>
</g>
<!-- Node24 -->
<g id="node24" class="node">
<title>Node24</title>
<g id="a_node24"><a xlink:href="_t_c_packet_8c.html#a4088b7a1b29268cecc23866a45238fd6" target="_top" xlink:title="Packet Length を取得">
<polygon fill="white" stroke="black" points="1359.5,-371.5 1359.5,-390.5 1472.5,-390.5 1472.5,-371.5 1359.5,-371.5"/>
<text text-anchor="middle" x="1416" y="-378.5" font-family="Helvetica,sans-Serif" font-size="10.00">TCP_get_packet_len</text>
</a>
</g>
</g>
<!-- Node23&#45;&gt;Node24 -->
<g id="edge32" class="edge">
<title>Node23&#45;&gt;Node24</title>
<path fill="none" stroke="midnightblue" d="M1300.94,-368.33C1316.4,-370.04 1333.27,-371.92 1349.18,-373.69"/>
<polygon fill="midnightblue" stroke="midnightblue" points="1349.14,-377.2 1359.47,-374.83 1349.92,-370.25 1349.14,-377.2"/>
</g>
<!-- Node26 -->
<g id="node26" class="node">
<title>Node26</title>
<g id="a_node26"><a xlink:href="command__analyze_8c.html#ae878a1a8ce00cc7468fbdd5bc5aba864" target="_top" xlink:title="コマンドパラメタ長をチェックする">
<polygon fill="white" stroke="black" points="985,-228.5 985,-247.5 1131,-247.5 1131,-228.5 985,-228.5"/>
<text text-anchor="middle" x="1058" y="-235.5" font-family="Helvetica,sans-Serif" font-size="10.00">CA_ckeck_cmd_param_len</text>
</a>
</g>
</g>
<!-- Node25&#45;&gt;Node26 -->
<g id="edge35" class="edge">
<title>Node25&#45;&gt;Node26</title>
<path fill="none" stroke="midnightblue" d="M902.38,-152.73C917.67,-168.92 950.67,-201.32 985,-219 989.55,-221.34 994.42,-223.42 999.4,-225.25"/>
<polygon fill="midnightblue" stroke="midnightblue" points="998.45,-228.62 1009.04,-228.48 1000.67,-221.99 998.45,-228.62"/>
</g>
<!-- Node28 -->
<g id="node28" class="node">
<title>Node28</title>
<g id="a_node28"><a xlink:href="common__tlm__cmd__packet_8h.html#a2b44a3a9eed1859231570465d73e9ed7" target="_top" xlink:title="共通部分の Header を構築">
<polygon fill="white" stroke="black" points="995.5,-190.5 995.5,-209.5 1120.5,-209.5 1120.5,-190.5 995.5,-190.5"/>
<text text-anchor="middle" x="1058" y="-197.5" font-family="Helvetica,sans-Serif" font-size="10.00">CCP_set_common_hdr</text>
</a>
</g>
</g>
<!-- Node25&#45;&gt;Node28 -->
<g id="edge37" class="edge">
<title>Node25&#45;&gt;Node28</title>
<path fill="none" stroke="midnightblue" d="M914.27,-152.58C932.62,-160.8 960.23,-172.63 985,-181 992.07,-183.39 999.61,-185.67 1007.05,-187.76"/>
<polygon fill="midnightblue" stroke="midnightblue" points="1006.16,-191.14 1016.73,-190.4 1008,-184.39 1006.16,-191.14"/>
</g>
<!-- Node38 -->
<g id="node38" class="node">
<title>Node38</title>
<g id="a_node38"><a xlink:href="common__tlm__cmd__packet_8h.html#a7da518ebeaff8d04bb1317b4a1752f59" target="_top" xlink:title="DEST_TYPE を設定">
<polygon fill="white" stroke="black" points="1003,-114.5 1003,-133.5 1113,-133.5 1113,-114.5 1003,-114.5"/>
<text text-anchor="middle" x="1058" y="-121.5" font-family="Helvetica,sans-Serif" font-size="10.00">CCP_set_dest_type</text>
</a>
</g>
</g>
<!-- Node25&#45;&gt;Node38 -->
<g id="edge47" class="edge">
<title>Node25&#45;&gt;Node38</title>
<path fill="none" stroke="midnightblue" d="M933.92,-138.3C951.63,-136.24 972.86,-133.78 992.66,-131.48"/>
<polygon fill="midnightblue" stroke="midnightblue" points="993.33,-134.92 1002.86,-130.29 992.52,-127.97 993.33,-134.92"/>
</g>
<!-- Node40 -->
<g id="node40" class="node">
<title>Node40</title>
<g id="a_node40"><a xlink:href="common__tlm__cmd__packet_8h.html#a0e4a5753372aa95e6d8f0e3e935ed8f2" target="_top" xlink:title="EXEC_TYPE を設定">
<polygon fill="white" stroke="black" points="1002.5,-38.5 1002.5,-57.5 1113.5,-57.5 1113.5,-38.5 1002.5,-38.5"/>
<text text-anchor="middle" x="1058" y="-45.5" font-family="Helvetica,sans-Serif" font-size="10.00">CCP_set_exec_type</text>
</a>
</g>
</g>
<!-- Node25&#45;&gt;Node40 -->
<g id="edge49" class="edge">
<title>Node25&#45;&gt;Node40</title>
<path fill="none" stroke="midnightblue" d="M902.38,-133.27C917.67,-117.08 950.67,-84.68 985,-67 989.55,-64.66 994.42,-62.58 999.4,-60.75"/>
<polygon fill="midnightblue" stroke="midnightblue" points="1000.67,-64.01 1009.04,-57.52 998.45,-57.38 1000.67,-64.01"/>
</g>
<!-- Node42 -->
<g id="node42" class="node">
<title>Node42</title>
<g id="a_node42"><a xlink:href="common__tlm__cmd__packet_8h.html#a9f065f596d9b7f58a96e6b46181db85f" target="_top" xlink:title="CMD ID を設定">
<polygon fill="white" stroke="black" points="1022.5,-152.5 1022.5,-171.5 1093.5,-171.5 1093.5,-152.5 1022.5,-152.5"/>
<text text-anchor="middle" x="1058" y="-159.5" font-family="Helvetica,sans-Serif" font-size="10.00">CCP_set_id</text>
</a>
</g>
</g>
<!-- Node25&#45;&gt;Node42 -->
<g id="edge51" class="edge">
<title>Node25&#45;&gt;Node42</title>
<path fill="none" stroke="midnightblue" d="M933.92,-147.7C957.66,-150.46 987.73,-153.95 1012.2,-156.79"/>
<polygon fill="midnightblue" stroke="midnightblue" points="1011.97,-160.29 1022.31,-157.97 1012.78,-153.34 1011.97,-160.29"/>
</g>
<!-- Node44 -->
<g id="node44" class="node">
<title>Node44</title>
<g id="a_node44"><a xlink:href="common__tlm__cmd__packet_8h.html#a8f2922ca6def0a502e00d7014da4c398" target="_top" xlink:title="パラメタを設定">
<polygon fill="white" stroke="black" points="1011.5,-76.5 1011.5,-95.5 1104.5,-95.5 1104.5,-76.5 1011.5,-76.5"/>
<text text-anchor="middle" x="1058" y="-83.5" font-family="Helvetica,sans-Serif" font-size="10.00">CCP_set_param</text>
</a>
</g>
</g>
<!-- Node25&#45;&gt;Node44 -->
<g id="edge53" class="edge">
<title>Node25&#45;&gt;Node44</title>
<path fill="none" stroke="midnightblue" d="M914.27,-133.42C932.62,-125.2 960.23,-113.37 985,-105 992.07,-102.61 999.61,-100.33 1007.05,-98.24"/>
<polygon fill="midnightblue" stroke="midnightblue" points="1008,-101.61 1016.73,-95.6 1006.16,-94.86 1008,-101.61"/>
</g>
<!-- Node47 -->
<g id="node47" class="node">
<title>Node47</title>
<g id="a_node47"><a xlink:href="common__tlm__cmd__packet_8h.html#a1a044b1b84588ee16221581830757741" target="_top" xlink:title="TI を設定">
<polygon fill="white" stroke="black" points="1024,-0.5 1024,-19.5 1092,-19.5 1092,-0.5 1024,-0.5"/>
<text text-anchor="middle" x="1058" y="-7.5" font-family="Helvetica,sans-Serif" font-size="10.00">CCP_set_ti</text>
</a>
</g>
</g>
<!-- Node25&#45;&gt;Node47 -->
<g id="edge56" class="edge">
<title>Node25&#45;&gt;Node47</title>
<path fill="none" stroke="midnightblue" d="M898.43,-133.32C910.21,-111.22 942.23,-56.79 985,-29 993.62,-23.4 1003.83,-19.45 1013.81,-16.66"/>
<polygon fill="midnightblue" stroke="midnightblue" points="1014.77,-20.02 1023.65,-14.23 1013.1,-13.23 1014.77,-20.02"/>
</g>
<!-- Node27 -->
<g id="node27" class="node">
<title>Node27</title>
<g id="a_node27"><a xlink:href="common__tlm__cmd__packet_8h.html#a0cb576a77e94553c22d9cb70a6fd50f1" target="_top" xlink:title="CMD パラメタ長の最大値を取得">
<polygon fill="white" stroke="black" points="1172.5,-228.5 1172.5,-247.5 1313.5,-247.5 1313.5,-228.5 1172.5,-228.5"/>
<text text-anchor="middle" x="1243" y="-235.5" font-family="Helvetica,sans-Serif" font-size="10.00">CCP_get_max_param_len</text>
</a>
</g>
</g>
<!-- Node26&#45;&gt;Node27 -->
<g id="edge36" class="edge">
<title>Node26&#45;&gt;Node27</title>
<path fill="none" stroke="midnightblue" d="M1131.06,-238C1141.27,-238 1151.81,-238 1162.14,-238"/>
<polygon fill="midnightblue" stroke="midnightblue" points="1162.4,-241.5 1172.4,-238 1162.4,-234.5 1162.4,-241.5"/>
</g>
<!-- Node29 -->
<g id="node29" class="node">
<title>Node29</title>
<g id="a_node29"><a xlink:href="_t_c_packet_8c.html#af12da708e39852c835970a582c3de7a6" target="_top" xlink:title="共通部分の Header を構築">
<polygon fill="white" stroke="black" points="1167,-190.5 1167,-209.5 1319,-209.5 1319,-190.5 1167,-190.5"/>
<text text-anchor="middle" x="1243" y="-197.5" font-family="Helvetica,sans-Serif" font-size="10.00">TCP_CMD_set_common_hdr</text>
</a>
</g>
</g>
<!-- Node28&#45;&gt;Node29 -->
<g id="edge38" class="edge">
<title>Node28&#45;&gt;Node29</title>
<path fill="none" stroke="midnightblue" d="M1120.7,-200C1132.29,-200 1144.6,-200 1156.76,-200"/>
<polygon fill="midnightblue" stroke="midnightblue" points="1156.92,-203.5 1166.92,-200 1156.92,-196.5 1156.92,-203.5"/>
</g>
<!-- Node30 -->
<g id="node30" class="node">
<title>Node30</title>
<g id="a_node30"><a xlink:href="_t_c_packet_8c.html#a39b6f6b6ba2c5dd4578d623eeb4f2daf" target="_top" xlink:title="Format ID を設定">
<polygon fill="white" stroke="black" points="1356,-219.5 1356,-238.5 1476,-238.5 1476,-219.5 1356,-219.5"/>
<text text-anchor="middle" x="1416" y="-226.5" font-family="Helvetica,sans-Serif" font-size="10.00">TCP_CMD_set_fmt_id</text>
</a>
</g>
</g>
<!-- Node29&#45;&gt;Node30 -->
<g id="edge39" class="edge">
<title>Node29&#45;&gt;Node30</title>
<path fill="none" stroke="midnightblue" d="M1300.47,-209.58C1315.87,-212.19 1332.7,-215.04 1348.6,-217.74"/>
<polygon fill="midnightblue" stroke="midnightblue" points="1348.44,-221.26 1358.89,-219.48 1349.61,-214.36 1348.44,-221.26"/>
</g>
<!-- Node31 -->
<g id="node31" class="node">
<title>Node31</title>
<g id="a_node31"><a xlink:href="_t_c_packet_8c.html#a12ed3d87d3ffd43cd39b80f9c421b7f8" target="_top" xlink:title="Command Type を設定">
<polygon fill="white" stroke="black" points="1361,-181.5 1361,-200.5 1471,-200.5 1471,-181.5 1361,-181.5"/>
<text text-anchor="middle" x="1416" y="-188.5" font-family="Helvetica,sans-Serif" font-size="10.00">TCP_CMD_set_type</text>
</a>
</g>
</g>
<!-- Node29&#45;&gt;Node31 -->
<g id="edge40" class="edge">
<title>Node29&#45;&gt;Node31</title>
<path fill="none" stroke="midnightblue" d="M1319,-196.05C1329.57,-195.5 1340.35,-194.93 1350.7,-194.38"/>
<polygon fill="midnightblue" stroke="midnightblue" points="1351.06,-197.87 1360.87,-193.85 1350.7,-190.88 1351.06,-197.87"/>
</g>
<!-- Node32 -->
<g id="node32" class="node">
<title>Node32</title>
<g id="a_node32"><a xlink:href="_t_c_packet_8c.html#a32bccc7ebc63b95774d1fa64beec2840" target="_top" xlink:title="TCP Secondary Header Flag を設定">
<polygon fill="white" stroke="black" points="1355,-143.5 1355,-162.5 1477,-162.5 1477,-143.5 1355,-143.5"/>
<text text-anchor="middle" x="1416" y="-150.5" font-family="Helvetica,sans-Serif" font-size="10.00">TCP_set_2nd_hdr_flag</text>
</a>
</g>
</g>
<!-- Node29&#45;&gt;Node32 -->
<g id="edge41" class="edge">
<title>Node29&#45;&gt;Node32</title>
<path fill="none" stroke="midnightblue" d="M1282.61,-190.5C1294.32,-187.54 1307.21,-184.21 1319,-181 1336.76,-176.16 1356.27,-170.53 1373.03,-165.59"/>
<polygon fill="midnightblue" stroke="midnightblue" points="1374.48,-168.81 1383.08,-162.62 1372.5,-162.1 1374.48,-168.81"/>
</g>
<!-- Node33 -->
<g id="node33" class="node">
<title>Node33</title>
<g id="a_node33"><a xlink:href="_t_c_packet_8c.html#aa1d3b2e538140f4553a267ccd1e4086d" target="_top" xlink:title="APID を設定">
<polygon fill="white" stroke="black" points="1375.5,-105.5 1375.5,-124.5 1456.5,-124.5 1456.5,-105.5 1375.5,-105.5"/>
<text text-anchor="middle" x="1416" y="-112.5" font-family="Helvetica,sans-Serif" font-size="10.00">TCP_set_apid</text>
</a>
</g>
</g>
<!-- Node29&#45;&gt;Node33 -->
<g id="edge42" class="edge">
<title>Node29&#45;&gt;Node33</title>
<path fill="none" stroke="midnightblue" d="M1299.47,-190.5C1306.36,-188.03 1313.06,-184.92 1319,-181 1340.97,-166.52 1333.46,-149.11 1355,-134 1358.42,-131.6 1362.16,-129.49 1366.04,-127.64"/>
<polygon fill="midnightblue" stroke="midnightblue" points="1367.41,-130.87 1375.29,-123.79 1364.71,-124.41 1367.41,-130.87"/>
</g>
<!-- Node34 -->
<g id="node34" class="node">
<title>Node34</title>
<g id="a_node34"><a xlink:href="_t_c_packet_8c.html#af3c9a103fe8e323fde490d0fd9ff2524" target="_top" xlink:title="Sequence Count を設定">
<polygon fill="white" stroke="black" points="1367,-67.5 1367,-86.5 1465,-86.5 1465,-67.5 1367,-67.5"/>
<text text-anchor="middle" x="1416" y="-74.5" font-family="Helvetica,sans-Serif" font-size="10.00">TCP_set_seq_cnt</text>
</a>
</g>
</g>
<!-- Node29&#45;&gt;Node34 -->
<g id="edge43" class="edge">
<title>Node29&#45;&gt;Node34</title>
<path fill="none" stroke="midnightblue" d="M1303.89,-190.41C1309.36,-187.94 1314.51,-184.85 1319,-181 1350.14,-154.28 1324.66,-123.62 1355,-96 1356.74,-94.42 1358.61,-92.96 1360.58,-91.63"/>
<polygon fill="midnightblue" stroke="midnightblue" points="1362.69,-94.46 1369.73,-86.54 1359.29,-88.35 1362.69,-94.46"/>
</g>
<!-- Node35 -->
<g id="node35" class="node">
<title>Node35</title>
<g id="a_node35"><a xlink:href="_t_c_packet_8c.html#a97376550c537197a526ee85a84bec294" target="_top" xlink:title="Sequence Flag を設定">
<polygon fill="white" stroke="black" points="1365.5,-333.5 1365.5,-352.5 1466.5,-352.5 1466.5,-333.5 1365.5,-333.5"/>
<text text-anchor="middle" x="1416" y="-340.5" font-family="Helvetica,sans-Serif" font-size="10.00">TCP_set_seq_flag</text>
</a>
</g>
</g>
<!-- Node29&#45;&gt;Node35 -->
<g id="edge44" class="edge">
<title>Node29&#45;&gt;Node35</title>
<path fill="none" stroke="midnightblue" d="M1304.91,-209.62C1310.04,-212.1 1314.85,-215.18 1319,-219 1355.29,-252.42 1319.71,-289.53 1355,-324 1356.62,-325.58 1358.37,-327.03 1360.22,-328.36"/>
<polygon fill="midnightblue" stroke="midnightblue" points="1358.47,-331.39 1368.86,-333.45 1362.02,-325.36 1358.47,-331.39"/>
</g>
<!-- Node36 -->
<g id="node36" class="node">
<title>Node36</title>
<g id="a_node36"><a xlink:href="_t_c_packet_8c.html#af10044126dd5355bb5d2b9eab4bbaeae" target="_top" xlink:title="TCP type を設定">
<polygon fill="white" stroke="black" points="1375,-295.5 1375,-314.5 1457,-314.5 1457,-295.5 1375,-295.5"/>
<text text-anchor="middle" x="1416" y="-302.5" font-family="Helvetica,sans-Serif" font-size="10.00">TCP_set_type</text>
</a>
</g>
</g>
<!-- Node29&#45;&gt;Node36 -->
<g id="edge45" class="edge">
<title>Node29&#45;&gt;Node36</title>
<path fill="none" stroke="midnightblue" d="M1302.39,-209.55C1308.35,-212.02 1314.02,-215.11 1319,-219 1345.64,-239.8 1328.98,-264.42 1355,-286 1358.13,-288.59 1361.61,-290.83 1365.29,-292.77"/>
<polygon fill="midnightblue" stroke="midnightblue" points="1364.15,-296.1 1374.71,-296.98 1367.01,-289.7 1364.15,-296.1"/>
</g>
<!-- Node37 -->
<g id="node37" class="node">
<title>Node37</title>
<g id="a_node37"><a xlink:href="_t_c_packet_8c.html#ab67ca189d1e2404cc22dcb2a0fbc7b03" target="_top" xlink:title="TCP ver を設定">
<polygon fill="white" stroke="black" points="1378,-257.5 1378,-276.5 1454,-276.5 1454,-257.5 1378,-257.5"/>
<text text-anchor="middle" x="1416" y="-264.5" font-family="Helvetica,sans-Serif" font-size="10.00">TCP_set_ver</text>
</a>
</g>
</g>
<!-- Node29&#45;&gt;Node37 -->
<g id="edge46" class="edge">
<title>Node29&#45;&gt;Node37</title>
<path fill="none" stroke="midnightblue" d="M1294.3,-209.55C1302.78,-212.05 1311.31,-215.16 1319,-219 1337.38,-228.18 1336.9,-238.29 1355,-248 1359.23,-250.27 1363.78,-252.32 1368.4,-254.16"/>
<polygon fill="midnightblue" stroke="midnightblue" points="1367.35,-257.5 1377.95,-257.64 1369.75,-250.92 1367.35,-257.5"/>
</g>
<!-- Node39 -->
<g id="node39" class="node">
<title>Node39</title>
<g id="a_node39"><a xlink:href="_t_c_packet_8c.html#a2aec696023015465579550bc71505994" target="_top" xlink:title="CMD_DEST_TYPE を設定">
<polygon fill="white" stroke="black" points="1174.5,-114.5 1174.5,-133.5 1311.5,-133.5 1311.5,-114.5 1174.5,-114.5"/>
<text text-anchor="middle" x="1243" y="-121.5" font-family="Helvetica,sans-Serif" font-size="10.00">TCP_CMD_set_dest_type</text>
</a>
</g>
</g>
<!-- Node38&#45;&gt;Node39 -->
<g id="edge48" class="edge">
<title>Node38&#45;&gt;Node39</title>
<path fill="none" stroke="midnightblue" d="M1113.41,-124C1129.2,-124 1146.77,-124 1163.72,-124"/>
<polygon fill="midnightblue" stroke="midnightblue" points="1164.17,-127.5 1174.17,-124 1164.17,-120.5 1164.17,-127.5"/>
</g>
<!-- Node41 -->
<g id="node41" class="node">
<title>Node41</title>
<g id="a_node41"><a xlink:href="_t_c_packet_8c.html#a4cefa4f71a3b4a61bed4daac5b4c4810" target="_top" xlink:title="EXEC_TYPE を設定">
<polygon fill="white" stroke="black" points="1174,-38.5 1174,-57.5 1312,-57.5 1312,-38.5 1174,-38.5"/>
<text text-anchor="middle" x="1243" y="-45.5" font-family="Helvetica,sans-Serif" font-size="10.00">TCP_CMD_set_exec_type</text>
</a>
</g>
</g>
<!-- Node40&#45;&gt;Node41 -->
<g id="edge50" class="edge">
<title>Node40&#45;&gt;Node41</title>
<path fill="none" stroke="midnightblue" d="M1113.91,-48C1129.51,-48 1146.82,-48 1163.53,-48"/>
<polygon fill="midnightblue" stroke="midnightblue" points="1163.84,-51.5 1173.84,-48 1163.84,-44.5 1163.84,-51.5"/>
</g>
<!-- Node43 -->
<g id="node43" class="node">
<title>Node43</title>
<g id="a_node43"><a xlink:href="_t_c_packet_8c.html#af16559aa68f7cd01900db1b8630dc920" target="_top" xlink:title="channel ID を設定">
<polygon fill="white" stroke="black" points="1172.5,-152.5 1172.5,-171.5 1313.5,-171.5 1313.5,-152.5 1172.5,-152.5"/>
<text text-anchor="middle" x="1243" y="-159.5" font-family="Helvetica,sans-Serif" font-size="10.00">TCP_CMD_set_channel_id</text>
</a>
</g>
</g>
<!-- Node42&#45;&gt;Node43 -->
<g id="edge52" class="edge">
<title>Node42&#45;&gt;Node43</title>
<path fill="none" stroke="midnightblue" d="M1093.85,-162C1113.27,-162 1138.3,-162 1162.24,-162"/>
<polygon fill="midnightblue" stroke="midnightblue" points="1162.41,-165.5 1172.41,-162 1162.41,-158.5 1162.41,-165.5"/>
</g>
<!-- Node45 -->
<g id="node45" class="node">
<title>Node45</title>
<g id="a_node45"><a xlink:href="_t_c_packet_8c.html#a472318d3057151be89449b1e4129d3ad" target="_top" xlink:title="パラメタを設定">
<polygon fill="white" stroke="black" points="1183,-76.5 1183,-95.5 1303,-95.5 1303,-76.5 1183,-76.5"/>
<text text-anchor="middle" x="1243" y="-83.5" font-family="Helvetica,sans-Serif" font-size="10.00">TCP_CMD_set_param</text>
</a>
</g>
</g>
<!-- Node44&#45;&gt;Node45 -->
<g id="edge54" class="edge">
<title>Node44&#45;&gt;Node45</title>
<path fill="none" stroke="midnightblue" d="M1104.71,-86C1125.18,-86 1149.77,-86 1172.45,-86"/>
<polygon fill="midnightblue" stroke="midnightblue" points="1172.72,-89.5 1182.72,-86 1172.72,-82.5 1172.72,-89.5"/>
</g>
<!-- Node46 -->
<g id="node46" class="node">
<title>Node46</title>
<g id="a_node46"><a xlink:href="_t_c_packet_8c.html#a4046c466cc06ed602ea076f653433979" target="_top" xlink:title="Packet Length を設定">
<polygon fill="white" stroke="black" points="1359.5,-29.5 1359.5,-48.5 1472.5,-48.5 1472.5,-29.5 1359.5,-29.5"/>
<text text-anchor="middle" x="1416" y="-36.5" font-family="Helvetica,sans-Serif" font-size="10.00">TCP_set_packet_len</text>
</a>
</g>
</g>
<!-- Node45&#45;&gt;Node46 -->
<g id="edge55" class="edge">
<title>Node45&#45;&gt;Node46</title>
<path fill="none" stroke="midnightblue" d="M1282.61,-76.5C1294.32,-73.54 1307.21,-70.21 1319,-67 1336.76,-62.16 1356.27,-56.53 1373.03,-51.59"/>
<polygon fill="midnightblue" stroke="midnightblue" points="1374.48,-54.81 1383.08,-48.62 1372.5,-48.1 1374.48,-54.81"/>
</g>
<!-- Node48 -->
<g id="node48" class="node">
<title>Node48</title>
<g id="a_node48"><a xlink:href="_t_c_packet_8c.html#a16279dd832680e4678ebeb4ff4767e1a" target="_top" xlink:title="Time Indicator (TI) を設定">
<polygon fill="white" stroke="black" points="1195.5,-0.5 1195.5,-19.5 1290.5,-19.5 1290.5,-0.5 1195.5,-0.5"/>
<text text-anchor="middle" x="1243" y="-7.5" font-family="Helvetica,sans-Serif" font-size="10.00">TCP_CMD_set_ti</text>
</a>
</g>
</g>
<!-- Node47&#45;&gt;Node48 -->
<g id="edge57" class="edge">
<title>Node47&#45;&gt;Node48</title>
<path fill="none" stroke="midnightblue" d="M1092.14,-10C1118.05,-10 1154.68,-10 1185.23,-10"/>
<polygon fill="midnightblue" stroke="midnightblue" points="1185.34,-13.5 1195.34,-10 1185.34,-6.5 1185.34,-13.5"/>
</g>
</g>
</svg>
