<?xml version="1.0" encoding="UTF-8" standalone="no"?>
<!DOCTYPE svg PUBLIC "-//W3C//DTD SVG 1.1//EN"
 "http://www.w3.org/Graphics/SVG/1.1/DTD/svg11.dtd">
<!-- Generated by graphviz version 2.43.0 (0)
 -->
<!-- Title: Tlm_EL_TLOG_ Pages: 1 -->
<svg width="471pt" height="104pt"
 viewBox="0.00 0.00 471.00 104.00" xmlns="http://www.w3.org/2000/svg" xmlns:xlink="http://www.w3.org/1999/xlink">
<g id="graph0" class="graph" transform="scale(1 1) rotate(0) translate(4 100)">
<title>Tlm_EL_TLOG_</title>
<polygon fill="white" stroke="transparent" points="-4,4 -4,-100 467,-100 467,4 -4,4"/>
<!-- Node1 -->
<g id="node1" class="node">
<title>Node1</title>
<g id="a_node1"><a xlink:title=" ">
<polygon fill="#bfbfbf" stroke="black" points="0,-38.5 0,-57.5 89,-57.5 89,-38.5 0,-38.5"/>
<text text-anchor="middle" x="44.5" y="-45.5" font-family="Helvetica,sans-Serif" font-size="10.00">Tlm_EL_TLOG_</text>
</a>
</g>
</g>
<!-- Node2 -->
<g id="node2" class="node">
<title>Node2</title>
<g id="a_node2"><a xlink:href="telemetry__frame_8c.html#a83528ca89bc208864fd2294bec7bf2ee" target="_top" xlink:title=" ">
<polygon fill="white" stroke="black" points="125,-76.5 125,-95.5 205,-95.5 205,-76.5 125,-76.5"/>
<text text-anchor="middle" x="165" y="-83.5" font-family="Helvetica,sans-Serif" font-size="10.00">TF_copy_u16</text>
</a>
</g>
</g>
<!-- Node1&#45;&gt;Node2 -->
<g id="edge1" class="edge">
<title>Node1&#45;&gt;Node2</title>
<path fill="none" stroke="midnightblue" d="M75.4,-57.59C90.28,-62.36 108.46,-68.19 124.47,-73.32"/>
<polygon fill="midnightblue" stroke="midnightblue" points="123.52,-76.69 134.11,-76.41 125.65,-70.03 123.52,-76.69"/>
</g>
<!-- Node5 -->
<g id="node5" class="node">
<title>Node5</title>
<g id="a_node5"><a xlink:href="telemetry__frame_8c.html#a41778d10a8b9c25ca57599cac63ab63f" target="_top" xlink:title=" ">
<polygon fill="white" stroke="black" points="125,-38.5 125,-57.5 205,-57.5 205,-38.5 125,-38.5"/>
<text text-anchor="middle" x="165" y="-45.5" font-family="Helvetica,sans-Serif" font-size="10.00">TF_copy_u32</text>
</a>
</g>
</g>
<!-- Node1&#45;&gt;Node5 -->
<g id="edge4" class="edge">
<title>Node1&#45;&gt;Node5</title>
<path fill="none" stroke="midnightblue" d="M89.29,-48C97.54,-48 106.22,-48 114.62,-48"/>
<polygon fill="midnightblue" stroke="midnightblue" points="114.7,-51.5 124.7,-48 114.7,-44.5 114.7,-51.5"/>
</g>
<!-- Node6 -->
<g id="node6" class="node">
<title>Node6</title>
<g id="a_node6"><a xlink:href="telemetry__frame_8c.html#a3ddf3d3883e35734d54a78e04abfdf89" target="_top" xlink:title=" ">
<polygon fill="white" stroke="black" points="128,-0.5 128,-19.5 202,-19.5 202,-0.5 128,-0.5"/>
<text text-anchor="middle" x="165" y="-7.5" font-family="Helvetica,sans-Serif" font-size="10.00">TF_copy_u8</text>
</a>
</g>
</g>
<!-- Node1&#45;&gt;Node6 -->
<g id="edge6" class="edge">
<title>Node1&#45;&gt;Node6</title>
<path fill="none" stroke="midnightblue" d="M75.4,-38.41C90.28,-33.64 108.46,-27.81 124.47,-22.68"/>
<polygon fill="midnightblue" stroke="midnightblue" points="125.65,-25.97 134.11,-19.59 123.52,-19.31 125.65,-25.97"/>
</g>
<!-- Node3 -->
<g id="node3" class="node">
<title>Node3</title>
<g id="a_node3"><a xlink:href="endian_8c.html#af3c71c10af16134e94da32e1e0d8d0f8" target="_top" xlink:title="エンディアンを考慮した memcpy">
<polygon fill="white" stroke="black" points="241,-57.5 241,-76.5 344,-76.5 344,-57.5 241,-57.5"/>
<text text-anchor="middle" x="292.5" y="-64.5" font-family="Helvetica,sans-Serif" font-size="10.00">ENDIAN_memcpy</text>
</a>
</g>
</g>
<!-- Node2&#45;&gt;Node3 -->
<g id="edge2" class="edge">
<title>Node2&#45;&gt;Node3</title>
<path fill="none" stroke="midnightblue" d="M205.02,-80.09C213.28,-78.84 222.18,-77.49 231.03,-76.16"/>
<polygon fill="midnightblue" stroke="midnightblue" points="231.59,-79.61 240.95,-74.65 230.54,-72.69 231.59,-79.61"/>
</g>
<!-- Node4 -->
<g id="node4" class="node">
<title>Node4</title>
<g id="a_node4"><a xlink:href="endian_8c.html#a3f28de556ac6792695854c7b4f437925" target="_top" xlink:title="エンディアンの変更">
<polygon fill="white" stroke="black" points="380,-57.5 380,-76.5 463,-76.5 463,-57.5 380,-57.5"/>
<text text-anchor="middle" x="421.5" y="-64.5" font-family="Helvetica,sans-Serif" font-size="10.00">ENDIAN_conv</text>
</a>
</g>
</g>
<!-- Node3&#45;&gt;Node4 -->
<g id="edge3" class="edge">
<title>Node3&#45;&gt;Node4</title>
<path fill="none" stroke="midnightblue" d="M344.06,-67C352.52,-67 361.3,-67 369.76,-67"/>
<polygon fill="midnightblue" stroke="midnightblue" points="369.88,-70.5 379.88,-67 369.88,-63.5 369.88,-70.5"/>
</g>
<!-- Node5&#45;&gt;Node3 -->
<g id="edge5" class="edge">
<title>Node5&#45;&gt;Node3</title>
<path fill="none" stroke="midnightblue" d="M205.02,-53.91C213.28,-55.16 222.18,-56.51 231.03,-57.84"/>
<polygon fill="midnightblue" stroke="midnightblue" points="230.54,-61.31 240.95,-59.35 231.59,-54.39 230.54,-61.31"/>
</g>
</g>
</svg>
