<?xml version="1.0" encoding="UTF-8" standalone="no"?>
<!DOCTYPE svg PUBLIC "-//W3C//DTD SVG 1.1//EN"
 "http://www.w3.org/Graphics/SVG/1.1/DTD/svg11.dtd">
<!-- Generated by graphviz version 2.43.0 (0)
 -->
<!-- Title: Cmd_TG_GENERATE_MS_TLM Pages: 1 -->
<svg width="1642pt" height="804pt"
 viewBox="0.00 0.00 1642.00 803.69" xmlns="http://www.w3.org/2000/svg" xmlns:xlink="http://www.w3.org/1999/xlink">
<g id="graph0" class="graph" transform="scale(1 1) rotate(0) translate(4 799.69)">
<title>Cmd_TG_GENERATE_MS_TLM</title>
<polygon fill="white" stroke="transparent" points="-4,4 -4,-799.69 1638,-799.69 1638,4 -4,4"/>
<!-- Node1 -->
<g id="node1" class="node">
<title>Node1</title>
<g id="a_node1"><a xlink:title="MS テレメを生成">
<polygon fill="#bfbfbf" stroke="black" points="0,-507.5 0,-526.5 161,-526.5 161,-507.5 0,-507.5"/>
<text text-anchor="middle" x="80.5" y="-514.5" font-family="Helvetica,sans-Serif" font-size="10.00">Cmd_TG_GENERATE_MS_TLM</text>
</a>
</g>
</g>
<!-- Node2 -->
<g id="node2" class="node">
<title>Node2</title>
<g id="a_node2"><a xlink:href="telemetry__generator_8c.html#ad78d5477d3fed44f4b1eb7c49cdbb760" target="_top" xlink:title="自身のテレメを生成">
<polygon fill="white" stroke="black" points="197,-507.5 197,-526.5 303,-526.5 303,-507.5 197,-507.5"/>
<text text-anchor="middle" x="250" y="-514.5" font-family="Helvetica,sans-Serif" font-size="10.00">TG_generate_tlm_</text>
</a>
</g>
</g>
<!-- Node1&#45;&gt;Node2 -->
<g id="edge1" class="edge">
<title>Node1&#45;&gt;Node2</title>
<path fill="none" stroke="midnightblue" d="M161.33,-517C169.74,-517 178.2,-517 186.38,-517"/>
<polygon fill="midnightblue" stroke="midnightblue" points="186.56,-520.5 196.56,-517 186.56,-513.5 186.56,-520.5"/>
</g>
<!-- Node3 -->
<g id="node3" class="node">
<title>Node3</title>
<g id="a_node3"><a xlink:href="common__cmd__packet__util_8c.html#a86a3aeedaeb2eac94c6c86eb0db7f8fd" target="_top" xlink:title="コマンド返り値である CCP_CmdRet を作成">
<polygon fill="white" stroke="black" points="576,-750.5 576,-769.5 689,-769.5 689,-750.5 576,-750.5"/>
<text text-anchor="middle" x="632.5" y="-757.5" font-family="Helvetica,sans-Serif" font-size="10.00">CCP_make_cmd_ret</text>
</a>
</g>
</g>
<!-- Node2&#45;&gt;Node3 -->
<g id="edge2" class="edge">
<title>Node2&#45;&gt;Node3</title>
<path fill="none" stroke="midnightblue" d="M250.89,-526.56C251.04,-564.52 257.23,-705.41 339,-763 416.32,-817.46 535.93,-791.1 595.39,-772.68"/>
<polygon fill="midnightblue" stroke="midnightblue" points="596.63,-775.96 605.09,-769.58 594.49,-769.3 596.63,-775.96"/>
</g>
<!-- Node4 -->
<g id="node4" class="node">
<title>Node4</title>
<g id="a_node4"><a xlink:href="common__cmd__packet__util_8c.html#a9e58970e1fdf3fd593d764f353e28562" target="_top" xlink:title="コマンド返り値である CCP_CmdRet を作成（エラーコード不使用版）">
<polygon fill="white" stroke="black" points="347.5,-723 347.5,-753 502.5,-753 502.5,-723 347.5,-723"/>
<text text-anchor="start" x="355.5" y="-741" font-family="Helvetica,sans-Serif" font-size="10.00">CCP_make_cmd_ret_without</text>
<text text-anchor="middle" x="425" y="-730" font-family="Helvetica,sans-Serif" font-size="10.00">_err_code</text>
</a>
</g>
</g>
<!-- Node2&#45;&gt;Node4 -->
<g id="edge3" class="edge">
<title>Node2&#45;&gt;Node4</title>
<path fill="none" stroke="midnightblue" d="M252.47,-526.86C257.77,-558.82 278.85,-660.52 339,-713 340.79,-714.56 342.67,-716.02 344.63,-717.4"/>
<polygon fill="midnightblue" stroke="midnightblue" points="343.28,-720.67 353.64,-722.85 346.9,-714.68 343.28,-720.67"/>
</g>
<!-- Node5 -->
<g id="node5" class="node">
<title>Node5</title>
<g id="a_node5"><a xlink:href="common__tlm__packet_8h.html#a538e4de2c8a399d3658f88be6518b85d" target="_top" xlink:title="現在の Global Time を設定">
<polygon fill="white" stroke="black" points="365.5,-684.5 365.5,-703.5 484.5,-703.5 484.5,-684.5 365.5,-684.5"/>
<text text-anchor="middle" x="425" y="-691.5" font-family="Helvetica,sans-Serif" font-size="10.00">CTP_set_global_time</text>
</a>
</g>
</g>
<!-- Node2&#45;&gt;Node5 -->
<g id="edge5" class="edge">
<title>Node2&#45;&gt;Node5</title>
<path fill="none" stroke="midnightblue" d="M253.7,-526.6C261.8,-553.57 288.49,-630.63 339,-670 344.44,-674.24 350.6,-677.74 357.05,-680.61"/>
<polygon fill="midnightblue" stroke="midnightblue" points="356.08,-683.99 366.67,-684.4 358.65,-677.48 356.08,-683.99"/>
</g>
<!-- Node10 -->
<g id="node10" class="node">
<title>Node10</title>
<g id="a_node10"><a xlink:href="common__tlm__packet_8h.html#ab28ed4a6623f08747bdc30b19aba939f" target="_top" xlink:title="現在の On&#45;Board Subnetwork Time を設定">
<polygon fill="white" stroke="black" points="339,-526.5 339,-545.5 511,-545.5 511,-526.5 339,-526.5"/>
<text text-anchor="middle" x="425" y="-533.5" font-family="Helvetica,sans-Serif" font-size="10.00">CTP_set_on_board_subnet_time</text>
</a>
</g>
</g>
<!-- Node2&#45;&gt;Node10 -->
<g id="edge10" class="edge">
<title>Node2&#45;&gt;Node10</title>
<path fill="none" stroke="midnightblue" d="M303.38,-522.75C311.45,-523.64 320,-524.58 328.67,-525.53"/>
<polygon fill="midnightblue" stroke="midnightblue" points="328.56,-529.04 338.88,-526.65 329.32,-522.08 328.56,-529.04"/>
</g>
<!-- Node11 -->
<g id="node11" class="node">
<title>Node11</title>
<g id="a_node11"><a xlink:href="time__manager_8c.html#a576e42803f8f3896524dbb266a47a08f" target="_top" xlink:title="現在の total_cycle を返す">
<polygon fill="white" stroke="black" points="565.5,-483 565.5,-513 699.5,-513 699.5,-483 565.5,-483"/>
<text text-anchor="start" x="573.5" y="-501" font-family="Helvetica,sans-Serif" font-size="10.00">TMGR_get_master_total</text>
<text text-anchor="middle" x="632.5" y="-490" font-family="Helvetica,sans-Serif" font-size="10.00">_cycle</text>
</a>
</g>
</g>
<!-- Node2&#45;&gt;Node11 -->
<g id="edge33" class="edge">
<title>Node2&#45;&gt;Node11</title>
<path fill="none" stroke="midnightblue" d="M303.11,-514.4C368.23,-511.15 480.2,-505.56 555.04,-501.82"/>
<polygon fill="midnightblue" stroke="midnightblue" points="555.53,-505.3 565.34,-501.3 555.18,-498.31 555.53,-505.3"/>
</g>
<!-- Node14 -->
<g id="node14" class="node">
<title>Node14</title>
<g id="a_node14"><a xlink:href="packet__handler_8c.html#a26d6fa7512d02ca9bb3a0bf700beaad3" target="_top" xlink:title="CTP を解析する">
<polygon fill="white" stroke="black" points="358.5,-143.5 358.5,-162.5 491.5,-162.5 491.5,-143.5 358.5,-143.5"/>
<text text-anchor="middle" x="425" y="-150.5" font-family="Helvetica,sans-Serif" font-size="10.00">PH_analyze_tlm_packet</text>
</a>
</g>
</g>
<!-- Node2&#45;&gt;Node14 -->
<g id="edge15" class="edge">
<title>Node2&#45;&gt;Node14</title>
<path fill="none" stroke="midnightblue" d="M250.62,-507.43C249.42,-464.23 250.16,-285.24 339,-186 346.68,-177.43 356.85,-171.06 367.48,-166.34"/>
<polygon fill="midnightblue" stroke="midnightblue" points="368.89,-169.55 376.89,-162.6 366.3,-163.04 368.89,-169.55"/>
</g>
<!-- Node26 -->
<g id="node25" class="node">
<title>Node26</title>
<g id="a_node25"><a xlink:href="tlm__space__packet_8c.html#ae2d93a907d5dfd7df12f9f8b3a661cd9" target="_top" xlink:title="Destination Flags を設定">
<polygon fill="white" stroke="black" points="1084,-190.5 1084,-209.5 1194,-209.5 1194,-190.5 1084,-190.5"/>
<text text-anchor="middle" x="1139" y="-197.5" font-family="Helvetica,sans-Serif" font-size="10.00">TSP_set_dest_flags</text>
</a>
</g>
</g>
<!-- Node2&#45;&gt;Node26 -->
<g id="edge38" class="edge">
<title>Node2&#45;&gt;Node26</title>
<path fill="none" stroke="midnightblue" d="M253.91,-507.12C262.55,-479.25 290.53,-398.94 339,-351 443.01,-248.12 485.2,-200 631.5,-200 631.5,-200 631.5,-200 817,-200 906,-200 1008.89,-200 1073.69,-200"/>
<polygon fill="midnightblue" stroke="midnightblue" points="1073.76,-203.5 1083.76,-200 1073.76,-196.5 1073.76,-203.5"/>
</g>
<!-- Node30 -->
<g id="node28" class="node">
<title>Node30</title>
<g id="a_node28"><a xlink:href="telemetry__frame_8c.html#a601c12bb837251422c9b329f5903a416" target="_top" xlink:title="テレメを実際に生成する関数">
<polygon fill="white" stroke="black" points="362.5,-105.5 362.5,-124.5 487.5,-124.5 487.5,-105.5 362.5,-105.5"/>
<text text-anchor="middle" x="425" y="-112.5" font-family="Helvetica,sans-Serif" font-size="10.00">TF_generate_contents</text>
</a>
</g>
</g>
<!-- Node2&#45;&gt;Node30 -->
<g id="edge31" class="edge">
<title>Node2&#45;&gt;Node30</title>
<path fill="none" stroke="midnightblue" d="M251.85,-507.31C256.78,-453.24 283.48,-189.19 339,-134 343.02,-130 347.69,-126.77 352.73,-124.16"/>
<polygon fill="midnightblue" stroke="midnightblue" points="354.33,-127.28 362.13,-120.11 351.56,-120.85 354.33,-127.28"/>
</g>
<!-- Node31 -->
<g id="node29" class="node">
<title>Node31</title>
<g id="a_node29"><a xlink:href="telemetry__generator_8c.html#a8128db3de7a3fea0534382ea631a5ce8" target="_top" xlink:title="次のパケットで用いる Sequence Count を取得">
<polygon fill="white" stroke="black" points="356,-67.5 356,-86.5 494,-86.5 494,-67.5 356,-67.5"/>
<text text-anchor="middle" x="425" y="-74.5" font-family="Helvetica,sans-Serif" font-size="10.00">TG_get_next_seq_count_</text>
</a>
</g>
</g>
<!-- Node2&#45;&gt;Node31 -->
<g id="edge32" class="edge">
<title>Node2&#45;&gt;Node31</title>
<path fill="none" stroke="midnightblue" d="M251.62,-507.5C255.52,-450.78 278.44,-157.4 339,-96 341.39,-93.58 344.01,-91.43 346.82,-89.54"/>
<polygon fill="midnightblue" stroke="midnightblue" points="348.68,-92.51 355.69,-84.57 345.26,-86.4 348.68,-92.51"/>
</g>
<!-- Node32 -->
<g id="node30" class="node">
<title>Node32</title>
<g id="a_node30"><a xlink:href="tlm__space__packet_8c.html#a4c7c1e56a52ce7ee11ce6775603acbc7" target="_top" xlink:title="Secondary Header Version No を設定">
<polygon fill="white" stroke="black" points="1079,-646.5 1079,-665.5 1199,-665.5 1199,-646.5 1079,-646.5"/>
<text text-anchor="middle" x="1139" y="-653.5" font-family="Helvetica,sans-Serif" font-size="10.00">TSP_set_2nd_hdr_ver</text>
</a>
</g>
</g>
<!-- Node2&#45;&gt;Node32 -->
<g id="edge34" class="edge">
<title>Node2&#45;&gt;Node32</title>
<path fill="none" stroke="midnightblue" d="M255.52,-526.61C266.38,-548.47 296.25,-601.85 339,-625 453.95,-687.25 500.77,-656 631.5,-656 631.5,-656 631.5,-656 817,-656 903.75,-656 1003.7,-656 1068.71,-656"/>
<polygon fill="midnightblue" stroke="midnightblue" points="1068.84,-659.5 1078.84,-656 1068.84,-652.5 1068.84,-659.5"/>
</g>
<!-- Node33 -->
<g id="node31" class="node">
<title>Node33</title>
<g id="a_node31"><a xlink:href="tlm__space__packet_8c.html#ace24297759446caff5a6ccb251193dc0" target="_top" xlink:title="Board Time を設定">
<polygon fill="white" stroke="black" points="574.5,-608.5 574.5,-627.5 690.5,-627.5 690.5,-608.5 574.5,-608.5"/>
<text text-anchor="middle" x="632.5" y="-615.5" font-family="Helvetica,sans-Serif" font-size="10.00">TSP_set_board_time</text>
</a>
</g>
</g>
<!-- Node2&#45;&gt;Node33 -->
<g id="edge36" class="edge">
<title>Node2&#45;&gt;Node33</title>
<path fill="none" stroke="midnightblue" d="M258.16,-526.72C271.7,-544.21 302.93,-580.61 339,-596 411.28,-626.84 502.71,-628.5 563.93,-624.94"/>
<polygon fill="midnightblue" stroke="midnightblue" points="564.49,-628.41 574.25,-624.28 564.04,-621.43 564.49,-628.41"/>
</g>
<!-- Node34 -->
<g id="node32" class="node">
<title>Node34</title>
<g id="a_node32"><a xlink:href="tlm__space__packet_8c.html#a6530dd1ecc12d20f80fcb45c95cca68b" target="_top" xlink:title="Dest Info を設定">
<polygon fill="white" stroke="black" points="372.5,-567.5 372.5,-586.5 477.5,-586.5 477.5,-567.5 372.5,-567.5"/>
<text text-anchor="middle" x="425" y="-574.5" font-family="Helvetica,sans-Serif" font-size="10.00">TSP_set_dest_info</text>
</a>
</g>
</g>
<!-- Node2&#45;&gt;Node34 -->
<g id="edge39" class="edge">
<title>Node2&#45;&gt;Node34</title>
<path fill="none" stroke="midnightblue" d="M270.92,-526.66C288.54,-534.94 315.07,-546.79 339,-555 349.49,-558.6 360.88,-561.93 371.81,-564.85"/>
<polygon fill="midnightblue" stroke="midnightblue" points="371.12,-568.29 381.68,-567.42 372.88,-561.51 371.12,-568.29"/>
</g>
<!-- Node35 -->
<g id="node33" class="node">
<title>Node35</title>
<g id="a_node33"><a xlink:href="tlm__space__packet_8c.html#afeebf5c4a5df3148b168acde4eaf85ad" target="_top" xlink:title="Tlm ID を設定">
<polygon fill="white" stroke="black" points="379.5,-447.5 379.5,-466.5 470.5,-466.5 470.5,-447.5 379.5,-447.5"/>
<text text-anchor="middle" x="425" y="-454.5" font-family="Helvetica,sans-Serif" font-size="10.00">TSP_set_tlm_id</text>
</a>
</g>
</g>
<!-- Node2&#45;&gt;Node35 -->
<g id="edge41" class="edge">
<title>Node2&#45;&gt;Node35</title>
<path fill="none" stroke="midnightblue" d="M275.53,-507.42C293.12,-500.64 317.41,-491.47 339,-484 353.13,-479.11 368.69,-474.07 382.6,-469.68"/>
<polygon fill="midnightblue" stroke="midnightblue" points="383.89,-472.95 392.39,-466.62 381.8,-466.27 383.89,-472.95"/>
</g>
<!-- Node36 -->
<g id="node34" class="node">
<title>Node36</title>
<g id="a_node34"><a xlink:href="tlm__space__packet_8c.html#a1004b5815cc4b83d1205e772508b0cc9" target="_top" xlink:title="Primary Header を構築">
<polygon fill="white" stroke="black" points="567,-304.5 567,-323.5 698,-323.5 698,-304.5 567,-304.5"/>
<text text-anchor="middle" x="632.5" y="-311.5" font-family="Helvetica,sans-Serif" font-size="10.00">TSP_setup_primary_hdr</text>
</a>
</g>
</g>
<!-- Node2&#45;&gt;Node36 -->
<g id="edge43" class="edge">
<title>Node2&#45;&gt;Node36</title>
<path fill="none" stroke="midnightblue" d="M259.67,-507.37C274.58,-491.26 306.6,-458.6 339,-438 422.16,-385.13 531.71,-345.66 590.32,-326.64"/>
<polygon fill="midnightblue" stroke="midnightblue" points="591.51,-329.93 599.96,-323.54 589.37,-323.27 591.51,-329.93"/>
</g>
<!-- Node4&#45;&gt;Node3 -->
<g id="edge4" class="edge">
<title>Node4&#45;&gt;Node3</title>
<path fill="none" stroke="midnightblue" d="M502.52,-746.19C523.31,-748.42 545.64,-750.81 565.78,-752.96"/>
<polygon fill="midnightblue" stroke="midnightblue" points="565.47,-756.45 575.78,-754.04 566.21,-749.49 565.47,-756.45"/>
</g>
<!-- Node6 -->
<g id="node6" class="node">
<title>Node6</title>
<g id="a_node6"><a xlink:href="tlm__space__packet_8c.html#a97232cc3b8df6cb21403d7b0f78af673" target="_top" xlink:title="Global Time を設定">
<polygon fill="white" stroke="black" points="757,-684.5 757,-703.5 875,-703.5 875,-684.5 757,-684.5"/>
<text text-anchor="middle" x="816" y="-691.5" font-family="Helvetica,sans-Serif" font-size="10.00">TSP_set_global_time</text>
</a>
</g>
</g>
<!-- Node5&#45;&gt;Node6 -->
<g id="edge6" class="edge">
<title>Node5&#45;&gt;Node6</title>
<path fill="none" stroke="midnightblue" d="M484.66,-694C554.9,-694 672.35,-694 746.63,-694"/>
<polygon fill="midnightblue" stroke="midnightblue" points="746.82,-697.5 756.82,-694 746.82,-690.5 746.82,-697.5"/>
</g>
<!-- Node7 -->
<g id="node7" class="node">
<title>Node7</title>
<g id="a_node7"><a xlink:href="space__packet_8c.html#a9d4e5051b01d74f88ee13ce05f61b392" target="_top" xlink:title="packet に param を格納">
<polygon fill="white" stroke="black" points="1252.5,-413 1252.5,-443 1365.5,-443 1365.5,-413 1252.5,-413"/>
<text text-anchor="start" x="1260.5" y="-431" font-family="Helvetica,sans-Serif" font-size="10.00">SP_insert_param_to</text>
<text text-anchor="middle" x="1309" y="-420" font-family="Helvetica,sans-Serif" font-size="10.00">_packet</text>
</a>
</g>
</g>
<!-- Node6&#45;&gt;Node7 -->
<g id="edge7" class="edge">
<title>Node6&#45;&gt;Node7</title>
<path fill="none" stroke="midnightblue" d="M851.56,-703.53C924.59,-721.47 1096.85,-751.94 1206,-675 1280.52,-622.47 1300.74,-505.03 1306.11,-453.3"/>
<polygon fill="midnightblue" stroke="midnightblue" points="1309.6,-453.58 1307.04,-443.3 1302.63,-452.93 1309.6,-453.58"/>
</g>
<!-- Node8 -->
<g id="node8" class="node">
<title>Node8</title>
<g id="a_node8"><a xlink:href="endian_8c.html#af3c71c10af16134e94da32e1e0d8d0f8" target="_top" xlink:title="エンディアンを考慮した memcpy">
<polygon fill="white" stroke="black" points="1412,-228.5 1412,-247.5 1515,-247.5 1515,-228.5 1412,-228.5"/>
<text text-anchor="middle" x="1463.5" y="-235.5" font-family="Helvetica,sans-Serif" font-size="10.00">ENDIAN_memcpy</text>
</a>
</g>
</g>
<!-- Node7&#45;&gt;Node8 -->
<g id="edge8" class="edge">
<title>Node7&#45;&gt;Node8</title>
<path fill="none" stroke="midnightblue" d="M1322.22,-412.77C1350.23,-377.88 1418.9,-292.32 1448.52,-255.41"/>
<polygon fill="midnightblue" stroke="midnightblue" points="1451.32,-257.52 1454.85,-247.53 1445.87,-253.13 1451.32,-257.52"/>
</g>
<!-- Node9 -->
<g id="node9" class="node">
<title>Node9</title>
<g id="a_node9"><a xlink:href="endian_8c.html#a3f28de556ac6792695854c7b4f437925" target="_top" xlink:title="エンディアンの変更">
<polygon fill="white" stroke="black" points="1551,-228.5 1551,-247.5 1634,-247.5 1634,-228.5 1551,-228.5"/>
<text text-anchor="middle" x="1592.5" y="-235.5" font-family="Helvetica,sans-Serif" font-size="10.00">ENDIAN_conv</text>
</a>
</g>
</g>
<!-- Node8&#45;&gt;Node9 -->
<g id="edge9" class="edge">
<title>Node8&#45;&gt;Node9</title>
<path fill="none" stroke="midnightblue" d="M1515.06,-238C1523.52,-238 1532.3,-238 1540.76,-238"/>
<polygon fill="midnightblue" stroke="midnightblue" points="1540.88,-241.5 1550.88,-238 1540.88,-234.5 1540.88,-241.5"/>
</g>
<!-- Node10&#45;&gt;Node11 -->
<g id="edge11" class="edge">
<title>Node10&#45;&gt;Node11</title>
<path fill="none" stroke="midnightblue" d="M477.59,-526.46C501.1,-522.11 529.41,-516.88 555.3,-512.09"/>
<polygon fill="midnightblue" stroke="midnightblue" points="556.27,-515.47 565.47,-510.21 555,-508.59 556.27,-515.47"/>
</g>
<!-- Node13 -->
<g id="node13" class="node">
<title>Node13</title>
<g id="a_node13"><a xlink:href="tlm__space__packet_8c.html#ab296f31eaf414114853e6221b4fbdda1" target="_top" xlink:title="On&#45;Board Subnetwork Time を設定">
<polygon fill="white" stroke="black" points="547,-532.5 547,-551.5 718,-551.5 718,-532.5 547,-532.5"/>
<text text-anchor="middle" x="632.5" y="-539.5" font-family="Helvetica,sans-Serif" font-size="10.00">TSP_set_on_board_subnet_time</text>
</a>
</g>
</g>
<!-- Node10&#45;&gt;Node13 -->
<g id="edge13" class="edge">
<title>Node10&#45;&gt;Node13</title>
<path fill="none" stroke="midnightblue" d="M511.07,-538.48C519.56,-538.73 528.22,-538.98 536.8,-539.24"/>
<polygon fill="midnightblue" stroke="midnightblue" points="536.73,-542.73 546.83,-539.53 536.93,-535.74 536.73,-542.73"/>
</g>
<!-- Node12 -->
<g id="node12" class="node">
<title>Node12</title>
<g id="a_node12"><a xlink:href="obc__time_8c.html#ac42c1d017a2cbb8dab608771907c97d5" target="_top" xlink:title="引数で指定した ObcTime の total_cycle を返す">
<polygon fill="white" stroke="black" points="754.5,-488.5 754.5,-507.5 877.5,-507.5 877.5,-488.5 754.5,-488.5"/>
<text text-anchor="middle" x="816" y="-495.5" font-family="Helvetica,sans-Serif" font-size="10.00">OBCT_get_total_cycle</text>
</a>
</g>
</g>
<!-- Node11&#45;&gt;Node12 -->
<g id="edge12" class="edge">
<title>Node11&#45;&gt;Node12</title>
<path fill="none" stroke="midnightblue" d="M699.54,-498C714.12,-498 729.61,-498 744.36,-498"/>
<polygon fill="midnightblue" stroke="midnightblue" points="744.44,-501.5 754.44,-498 744.44,-494.5 744.44,-501.5"/>
</g>
<!-- Node13&#45;&gt;Node7 -->
<g id="edge14" class="edge">
<title>Node13&#45;&gt;Node7</title>
<path fill="none" stroke="midnightblue" d="M718.15,-545.31C855.42,-549.53 1119.94,-552.62 1206,-518 1240.78,-504.01 1271.64,-472.77 1290.07,-451.05"/>
<polygon fill="midnightblue" stroke="midnightblue" points="1292.85,-453.19 1296.51,-443.25 1287.45,-448.73 1292.85,-453.19"/>
</g>
<!-- Node15 -->
<g id="node15" class="node">
<title>Node15</title>
<g id="a_node15"><a xlink:href="common__tlm__packet_8h.html#a684c8254afbb7793a92c63bdd9462558" target="_top" xlink:title="CTP_DEST_FLAG の &amp; を取った flags を取得">
<polygon fill="white" stroke="black" points="577,-95.5 577,-114.5 688,-114.5 688,-95.5 577,-95.5"/>
<text text-anchor="middle" x="632.5" y="-102.5" font-family="Helvetica,sans-Serif" font-size="10.00">CTP_get_dest_flags</text>
</a>
</g>
</g>
<!-- Node14&#45;&gt;Node15 -->
<g id="edge16" class="edge">
<title>Node14&#45;&gt;Node15</title>
<path fill="none" stroke="midnightblue" d="M469.27,-143.47C482.66,-140.48 497.45,-137.14 511,-134 534.63,-128.52 560.82,-122.24 582.72,-116.93"/>
<polygon fill="midnightblue" stroke="midnightblue" points="583.57,-120.32 592.46,-114.56 581.92,-113.52 583.57,-120.32"/>
</g>
<!-- Node18 -->
<g id="node18" class="node">
<title>Node18</title>
<g id="a_node18"><a xlink:href="common__tlm__packet_8h.html#a285c1dc53d72a80747d8827c38d7aea4" target="_top" xlink:title="有効なパケットかチェックする">
<polygon fill="white" stroke="black" points="574.5,-57.5 574.5,-76.5 690.5,-76.5 690.5,-57.5 574.5,-57.5"/>
<text text-anchor="middle" x="632.5" y="-64.5" font-family="Helvetica,sans-Serif" font-size="10.00">CTP_is_valid_packet</text>
</a>
</g>
</g>
<!-- Node14&#45;&gt;Node18 -->
<g id="edge20" class="edge">
<title>Node14&#45;&gt;Node18</title>
<path fill="none" stroke="midnightblue" d="M491.52,-143.4C498.39,-140.94 505.03,-137.86 511,-134 533.4,-119.53 524.61,-100.49 547,-86 552.39,-82.52 558.32,-79.67 564.48,-77.33"/>
<polygon fill="midnightblue" stroke="midnightblue" points="565.89,-80.55 574.28,-74.08 563.69,-73.91 565.89,-80.55"/>
</g>
<!-- Node23 -->
<g id="node22" class="node">
<title>Node23</title>
<g id="a_node22"><a xlink:href="packet__handler_8c.html#a46236f660b6bef7bcd6d440a02b70cfe" target="_top" xlink:title=" ">
<polygon fill="white" stroke="black" points="582,-143.5 582,-162.5 683,-162.5 683,-143.5 582,-143.5"/>
<text text-anchor="middle" x="632.5" y="-150.5" font-family="Helvetica,sans-Serif" font-size="10.00">PH_add_ms_tlm_</text>
</a>
</g>
</g>
<!-- Node14&#45;&gt;Node23 -->
<g id="edge24" class="edge">
<title>Node14&#45;&gt;Node23</title>
<path fill="none" stroke="midnightblue" d="M491.59,-153C517.29,-153 546.59,-153 571.7,-153"/>
<polygon fill="midnightblue" stroke="midnightblue" points="571.83,-156.5 581.83,-153 571.83,-149.5 571.83,-156.5"/>
</g>
<!-- Node16 -->
<g id="node16" class="node">
<title>Node16</title>
<g id="a_node16"><a xlink:href="tlm__space__packet_8c.html#a505c9261fd3b3a66339d43e6b637ccd6" target="_top" xlink:title="Destination Flags を取得">
<polygon fill="white" stroke="black" points="761,-86.5 761,-105.5 871,-105.5 871,-86.5 761,-86.5"/>
<text text-anchor="middle" x="816" y="-93.5" font-family="Helvetica,sans-Serif" font-size="10.00">TSP_get_dest_flags</text>
</a>
</g>
</g>
<!-- Node15&#45;&gt;Node16 -->
<g id="edge17" class="edge">
<title>Node15&#45;&gt;Node16</title>
<path fill="none" stroke="midnightblue" d="M688.45,-102.28C708.08,-101.3 730.38,-100.2 750.74,-99.19"/>
<polygon fill="midnightblue" stroke="midnightblue" points="751.05,-102.68 760.86,-98.68 750.7,-95.68 751.05,-102.68"/>
</g>
<!-- Node17 -->
<g id="node17" class="node">
<title>Node17</title>
<g id="a_node17"><a xlink:href="space__packet_8c.html#a300c7fc3dea91319b0fa2f039f27d5eb" target="_top" xlink:title="packet に格納された param を取得">
<polygon fill="white" stroke="black" points="1242,-199 1242,-229 1376,-229 1376,-199 1242,-199"/>
<text text-anchor="start" x="1250" y="-217" font-family="Helvetica,sans-Serif" font-size="10.00">SP_extract_param_from</text>
<text text-anchor="middle" x="1309" y="-206" font-family="Helvetica,sans-Serif" font-size="10.00">_packet</text>
</a>
</g>
</g>
<!-- Node16&#45;&gt;Node17 -->
<g id="edge18" class="edge">
<title>Node16&#45;&gt;Node17</title>
<path fill="none" stroke="midnightblue" d="M841.67,-86.45C861.01,-79.5 888.78,-70.69 914,-67 967.65,-59.15 983.43,-53.7 1036,-67 1133,-91.53 1232.95,-158.27 1280.13,-192.75"/>
<polygon fill="midnightblue" stroke="midnightblue" points="1278.18,-195.67 1288.31,-198.8 1282.34,-190.04 1278.18,-195.67"/>
</g>
<!-- Node17&#45;&gt;Node8 -->
<g id="edge19" class="edge">
<title>Node17&#45;&gt;Node8</title>
<path fill="none" stroke="midnightblue" d="M1376,-224.39C1384.47,-225.72 1393.11,-227.08 1401.5,-228.4"/>
<polygon fill="midnightblue" stroke="midnightblue" points="1401.15,-231.89 1411.57,-229.98 1402.24,-224.97 1401.15,-231.89"/>
</g>
<!-- Node19 -->
<g id="node19" class="node">
<title>Node19</title>
<g id="a_node19"><a xlink:href="common__tlm__packet_8c.html#ab9f04fbc9871d8fe2639cd46679e33c9" target="_top" xlink:title="パケット長を取得">
<polygon fill="white" stroke="black" points="759,-10.5 759,-29.5 873,-29.5 873,-10.5 759,-10.5"/>
<text text-anchor="middle" x="816" y="-17.5" font-family="Helvetica,sans-Serif" font-size="10.00">CTP_get_packet_len</text>
</a>
</g>
</g>
<!-- Node18&#45;&gt;Node19 -->
<g id="edge21" class="edge">
<title>Node18&#45;&gt;Node19</title>
<path fill="none" stroke="midnightblue" d="M670.23,-57.49C698.43,-50.19 737.57,-40.05 768.04,-32.16"/>
<polygon fill="midnightblue" stroke="midnightblue" points="769.21,-35.47 778.01,-29.58 767.46,-28.7 769.21,-35.47"/>
</g>
<!-- Node20 -->
<g id="node20" class="node">
<title>Node20</title>
<g id="a_node20"><a xlink:href="tlm__space__packet_8c.html#a51745cb62959205762b4b2430f81804f" target="_top" xlink:title="Packet Length を取得">
<polygon fill="white" stroke="black" points="918.5,-0.5 918.5,-19.5 1031.5,-19.5 1031.5,-0.5 918.5,-0.5"/>
<text text-anchor="middle" x="975" y="-7.5" font-family="Helvetica,sans-Serif" font-size="10.00">TSP_get_packet_len</text>
</a>
</g>
</g>
<!-- Node19&#45;&gt;Node20 -->
<g id="edge22" class="edge">
<title>Node19&#45;&gt;Node20</title>
<path fill="none" stroke="midnightblue" d="M873.24,-16.42C884.6,-15.69 896.65,-14.93 908.3,-14.18"/>
<polygon fill="midnightblue" stroke="midnightblue" points="908.66,-17.67 918.42,-13.54 908.22,-10.68 908.66,-17.67"/>
</g>
<!-- Node21 -->
<g id="node21" class="node">
<title>Node21</title>
<g id="a_node21"><a xlink:href="space__packet_8c.html#a25afed909fb67da49f5ac9921a23744f" target="_top" xlink:title="Packet Length を取得">
<polygon fill="white" stroke="red" points="1085.5,-0.5 1085.5,-19.5 1192.5,-19.5 1192.5,-0.5 1085.5,-0.5"/>
<text text-anchor="middle" x="1139" y="-7.5" font-family="Helvetica,sans-Serif" font-size="10.00">SP_get_packet_len</text>
</a>
</g>
</g>
<!-- Node20&#45;&gt;Node21 -->
<g id="edge23" class="edge">
<title>Node20&#45;&gt;Node21</title>
<path fill="none" stroke="midnightblue" d="M1031.75,-10C1045.74,-10 1060.85,-10 1075.17,-10"/>
<polygon fill="midnightblue" stroke="midnightblue" points="1075.42,-13.5 1085.42,-10 1075.42,-6.5 1075.42,-13.5"/>
</g>
<!-- Node24 -->
<g id="node23" class="node">
<title>Node24</title>
<g id="a_node23"><a xlink:href="packet__handler_8c.html#a11de7c4340b58b7775bfb13589d74e27" target="_top" xlink:title=" ">
<polygon fill="white" stroke="black" points="764,-143.5 764,-162.5 868,-162.5 868,-143.5 764,-143.5"/>
<text text-anchor="middle" x="816" y="-150.5" font-family="Helvetica,sans-Serif" font-size="10.00">PH_add_tlm_to_pl</text>
</a>
</g>
</g>
<!-- Node23&#45;&gt;Node24 -->
<g id="edge25" class="edge">
<title>Node23&#45;&gt;Node24</title>
<path fill="none" stroke="midnightblue" d="M683.1,-153C704.95,-153 730.84,-153 753.87,-153"/>
<polygon fill="midnightblue" stroke="midnightblue" points="753.88,-156.5 763.88,-153 753.88,-149.5 753.88,-156.5"/>
</g>
<!-- Node25 -->
<g id="node24" class="node">
<title>Node25</title>
<g id="a_node24"><a xlink:href="common__tlm__packet_8h.html#afddacefa253df08076d9a55613ccd2ab" target="_top" xlink:title="CTP_DEST_FLAG の &amp; を取った flags を設定">
<polygon fill="white" stroke="black" points="920,-152.5 920,-171.5 1030,-171.5 1030,-152.5 920,-152.5"/>
<text text-anchor="middle" x="975" y="-159.5" font-family="Helvetica,sans-Serif" font-size="10.00">CTP_set_dest_flags</text>
</a>
</g>
</g>
<!-- Node24&#45;&gt;Node25 -->
<g id="edge26" class="edge">
<title>Node24&#45;&gt;Node25</title>
<path fill="none" stroke="midnightblue" d="M868.41,-155.95C881.52,-156.7 895.78,-157.52 909.46,-158.3"/>
<polygon fill="midnightblue" stroke="midnightblue" points="909.59,-161.81 919.78,-158.89 909.99,-154.83 909.59,-161.81"/>
</g>
<!-- Node27 -->
<g id="node26" class="node">
<title>Node27</title>
<g id="a_node26"><a xlink:href="packet__list_8c.html#a2e8740e7602d37d97f4aea46152cf50e" target="_top" xlink:title="PacketList の active な末端 Node を取得">
<polygon fill="white" stroke="black" points="940,-76.5 940,-95.5 1010,-95.5 1010,-76.5 940,-76.5"/>
<text text-anchor="middle" x="975" y="-83.5" font-family="Helvetica,sans-Serif" font-size="10.00">PL_get_tail</text>
</a>
</g>
</g>
<!-- Node24&#45;&gt;Node27 -->
<g id="edge29" class="edge">
<title>Node24&#45;&gt;Node27</title>
<path fill="none" stroke="midnightblue" d="M834.5,-143.32C853.65,-132.98 885.42,-116.52 914,-105 919.45,-102.8 925.27,-100.69 931.04,-98.72"/>
<polygon fill="midnightblue" stroke="midnightblue" points="932.26,-102.01 940.67,-95.56 930.08,-95.36 932.26,-102.01"/>
</g>
<!-- Node28 -->
<g id="node27" class="node">
<title>Node28</title>
<g id="a_node27"><a xlink:href="packet__list_8c.html#afaf80120b8b97c0fdf3099e13e9019be" target="_top" xlink:title="PacketList の末尾に packet を挿入">
<polygon fill="white" stroke="red" points="932.5,-114.5 932.5,-133.5 1017.5,-133.5 1017.5,-114.5 932.5,-114.5"/>
<text text-anchor="middle" x="975" y="-121.5" font-family="Helvetica,sans-Serif" font-size="10.00">PL_push_back</text>
</a>
</g>
</g>
<!-- Node24&#45;&gt;Node28 -->
<g id="edge30" class="edge">
<title>Node24&#45;&gt;Node28</title>
<path fill="none" stroke="midnightblue" d="M868.41,-143.5C885.75,-140.3 905.11,-136.73 922.46,-133.52"/>
<polygon fill="midnightblue" stroke="midnightblue" points="923.22,-136.94 932.42,-131.68 921.95,-130.06 923.22,-136.94"/>
</g>
<!-- Node25&#45;&gt;Node26 -->
<g id="edge27" class="edge">
<title>Node25&#45;&gt;Node26</title>
<path fill="none" stroke="midnightblue" d="M1016.88,-171.59C1038.35,-176.63 1064.86,-182.84 1087.6,-188.18"/>
<polygon fill="midnightblue" stroke="midnightblue" points="1086.88,-191.6 1097.41,-190.48 1088.48,-184.79 1086.88,-191.6"/>
</g>
<!-- Node26&#45;&gt;Node7 -->
<g id="edge28" class="edge">
<title>Node26&#45;&gt;Node7</title>
<path fill="none" stroke="midnightblue" d="M1190.23,-209.52C1195.92,-211.98 1201.34,-215.09 1206,-219 1264.56,-268.17 1292.3,-358.97 1302.77,-402.9"/>
<polygon fill="midnightblue" stroke="midnightblue" points="1299.38,-403.79 1305.02,-412.76 1306.21,-402.23 1299.38,-403.79"/>
</g>
<!-- Node32&#45;&gt;Node7 -->
<g id="edge35" class="edge">
<title>Node32&#45;&gt;Node7</title>
<path fill="none" stroke="midnightblue" d="M1181.4,-646.37C1190.23,-642.91 1198.99,-638.25 1206,-632 1261.59,-582.45 1290.55,-495.61 1302.01,-453.01"/>
<polygon fill="midnightblue" stroke="midnightblue" points="1305.43,-453.74 1304.55,-443.18 1298.66,-451.98 1305.43,-453.74"/>
</g>
<!-- Node33&#45;&gt;Node7 -->
<g id="edge37" class="edge">
<title>Node33&#45;&gt;Node7</title>
<path fill="none" stroke="midnightblue" d="M690.91,-622.26C818.29,-630.65 1120.1,-644.43 1206,-594 1259.46,-562.62 1288.65,-491.09 1300.92,-452.98"/>
<polygon fill="midnightblue" stroke="midnightblue" points="1304.34,-453.77 1303.94,-443.18 1297.65,-451.71 1304.34,-453.77"/>
</g>
<!-- Node34&#45;&gt;Node7 -->
<g id="edge40" class="edge">
<title>Node34&#45;&gt;Node7</title>
<path fill="none" stroke="midnightblue" d="M477.6,-577.65C552.09,-578.53 694.11,-580 815,-580 815,-580 815,-580 976,-580 1079.54,-580 1115.26,-592.85 1206,-543 1245.13,-521.51 1276.67,-479 1293.84,-452.12"/>
<polygon fill="midnightblue" stroke="midnightblue" points="1297,-453.66 1299.3,-443.32 1291.05,-449.97 1297,-453.66"/>
</g>
<!-- Node35&#45;&gt;Node7 -->
<g id="edge42" class="edge">
<title>Node35&#45;&gt;Node7</title>
<path fill="none" stroke="midnightblue" d="M470.72,-457.45C552.02,-458.66 729.38,-463.05 878,-479 894.13,-480.73 897.83,-483.66 914,-485 1043.34,-495.7 1080.41,-517.71 1206,-485 1232.9,-477.99 1260.22,-462.16 1279.81,-448.95"/>
<polygon fill="midnightblue" stroke="midnightblue" points="1282.01,-451.69 1288.24,-443.11 1278.02,-445.93 1282.01,-451.69"/>
</g>
<!-- Node37 -->
<g id="node35" class="node">
<title>Node37</title>
<g id="a_node35"><a xlink:href="tlm__space__packet_8c.html#a79a7575999ff965ea1c95125e6b017fa" target="_top" xlink:title="APID を設定">
<polygon fill="white" stroke="black" points="775.5,-228.5 775.5,-247.5 856.5,-247.5 856.5,-228.5 775.5,-228.5"/>
<text text-anchor="middle" x="816" y="-235.5" font-family="Helvetica,sans-Serif" font-size="10.00">TSP_set_apid</text>
</a>
</g>
</g>
<!-- Node36&#45;&gt;Node37 -->
<g id="edge44" class="edge">
<title>Node36&#45;&gt;Node37</title>
<path fill="none" stroke="midnightblue" d="M651.52,-304.5C674.78,-292.46 716.7,-271.55 754,-257 759.63,-254.81 765.62,-252.68 771.57,-250.71"/>
<polygon fill="midnightblue" stroke="midnightblue" points="773.02,-253.92 781.47,-247.52 770.88,-247.25 773.02,-253.92"/>
</g>
<!-- Node39 -->
<g id="node37" class="node">
<title>Node39</title>
<g id="a_node37"><a xlink:href="tlm__space__packet_8c.html#abba748fe8e777a580261c16ee3ba07e8" target="_top" xlink:title="共通部分の Header を構築">
<polygon fill="white" stroke="black" points="754,-380.5 754,-399.5 878,-399.5 878,-380.5 754,-380.5"/>
<text text-anchor="middle" x="816" y="-387.5" font-family="Helvetica,sans-Serif" font-size="10.00">TSP_set_common_hdr</text>
</a>
</g>
</g>
<!-- Node36&#45;&gt;Node39 -->
<g id="edge47" class="edge">
<title>Node36&#45;&gt;Node39</title>
<path fill="none" stroke="midnightblue" d="M656.49,-323.63C688.4,-336.99 746.28,-361.23 782.58,-376.42"/>
<polygon fill="midnightblue" stroke="midnightblue" points="781.62,-379.82 792.2,-380.45 784.33,-373.36 781.62,-379.82"/>
</g>
<!-- Node48 -->
<g id="node46" class="node">
<title>Node48</title>
<g id="a_node46"><a xlink:href="tlm__space__packet_8c.html#adc19b780aaf01a516d07c48c4d52c21b" target="_top" xlink:title="Packet Length を設定">
<polygon fill="white" stroke="black" points="759.5,-304.5 759.5,-323.5 872.5,-323.5 872.5,-304.5 759.5,-304.5"/>
<text text-anchor="middle" x="816" y="-311.5" font-family="Helvetica,sans-Serif" font-size="10.00">TSP_set_packet_len</text>
</a>
</g>
</g>
<!-- Node36&#45;&gt;Node48 -->
<g id="edge60" class="edge">
<title>Node36&#45;&gt;Node48</title>
<path fill="none" stroke="midnightblue" d="M698,-314C714.62,-314 732.53,-314 749.22,-314"/>
<polygon fill="midnightblue" stroke="midnightblue" points="749.43,-317.5 759.43,-314 749.43,-310.5 749.43,-317.5"/>
</g>
<!-- Node51 -->
<g id="node49" class="node">
<title>Node51</title>
<g id="a_node49"><a xlink:href="tlm__space__packet_8c.html#adfbc7ce2baafa2f87e7bd9f136610eeb" target="_top" xlink:title="Sequence Count を設定">
<polygon fill="white" stroke="black" points="761,-266.5 761,-285.5 871,-285.5 871,-266.5 761,-266.5"/>
<text text-anchor="middle" x="816" y="-273.5" font-family="Helvetica,sans-Serif" font-size="10.00">TSP_set_seq_count</text>
</a>
</g>
</g>
<!-- Node36&#45;&gt;Node51 -->
<g id="edge64" class="edge">
<title>Node36&#45;&gt;Node51</title>
<path fill="none" stroke="midnightblue" d="M679.3,-304.41C703.68,-299.31 733.86,-292.99 759.56,-287.61"/>
<polygon fill="midnightblue" stroke="midnightblue" points="760.46,-291 769.53,-285.52 759.02,-284.14 760.46,-291"/>
</g>
<!-- Node38 -->
<g id="node36" class="node">
<title>Node38</title>
<g id="a_node36"><a xlink:href="space__packet_8c.html#afa5b380432a9ac74e3e8ed05dbcb2d5b" target="_top" xlink:title="APID を設定">
<polygon fill="white" stroke="black" points="1101.5,-228.5 1101.5,-247.5 1176.5,-247.5 1176.5,-228.5 1101.5,-228.5"/>
<text text-anchor="middle" x="1139" y="-235.5" font-family="Helvetica,sans-Serif" font-size="10.00">SP_set_apid</text>
</a>
</g>
</g>
<!-- Node37&#45;&gt;Node38 -->
<g id="edge45" class="edge">
<title>Node37&#45;&gt;Node38</title>
<path fill="none" stroke="midnightblue" d="M856.68,-238C916.11,-238 1027.99,-238 1091.28,-238"/>
<polygon fill="midnightblue" stroke="midnightblue" points="1091.38,-241.5 1101.38,-238 1091.38,-234.5 1091.38,-241.5"/>
</g>
<!-- Node38&#45;&gt;Node7 -->
<g id="edge46" class="edge">
<title>Node38&#45;&gt;Node7</title>
<path fill="none" stroke="midnightblue" d="M1176.54,-243.34C1186.82,-246.16 1197.5,-250.45 1206,-257 1255.93,-295.48 1286.48,-365.91 1299.93,-403.24"/>
<polygon fill="midnightblue" stroke="midnightblue" points="1296.68,-404.55 1303.27,-412.84 1303.29,-402.25 1296.68,-404.55"/>
</g>
<!-- Node40 -->
<g id="node38" class="node">
<title>Node40</title>
<g id="a_node38"><a xlink:href="tlm__space__packet_8c.html#a086b20222708c5b7a9aaace514d19500" target="_top" xlink:title="Secondary Header Flag を設定">
<polygon fill="white" stroke="black" points="914,-342.5 914,-361.5 1036,-361.5 1036,-342.5 914,-342.5"/>
<text text-anchor="middle" x="975" y="-349.5" font-family="Helvetica,sans-Serif" font-size="10.00">TSP_set_2nd_hdr_flag</text>
</a>
</g>
</g>
<!-- Node39&#45;&gt;Node40 -->
<g id="edge48" class="edge">
<title>Node39&#45;&gt;Node40</title>
<path fill="none" stroke="midnightblue" d="M856.62,-380.41C877.34,-375.4 902.89,-369.21 924.86,-363.89"/>
<polygon fill="midnightblue" stroke="midnightblue" points="925.77,-367.27 934.67,-361.52 924.12,-360.47 925.77,-367.27"/>
</g>
<!-- Node42 -->
<g id="node40" class="node">
<title>Node42</title>
<g id="a_node40"><a xlink:href="tlm__space__packet_8c.html#a2dde2d41faea54b0997599427b64796a" target="_top" xlink:title="Sequence Flag を設定">
<polygon fill="white" stroke="black" points="924.5,-456.5 924.5,-475.5 1025.5,-475.5 1025.5,-456.5 924.5,-456.5"/>
<text text-anchor="middle" x="975" y="-463.5" font-family="Helvetica,sans-Serif" font-size="10.00">TSP_set_seq_flag</text>
</a>
</g>
</g>
<!-- Node39&#45;&gt;Node42 -->
<g id="edge51" class="edge">
<title>Node39&#45;&gt;Node42</title>
<path fill="none" stroke="midnightblue" d="M830.92,-399.54C849.3,-411.81 882.95,-433.17 914,-447 918.99,-449.22 924.32,-451.3 929.67,-453.21"/>
<polygon fill="midnightblue" stroke="midnightblue" points="928.64,-456.56 939.24,-456.45 930.89,-449.93 928.64,-456.56"/>
</g>
<!-- Node44 -->
<g id="node42" class="node">
<title>Node44</title>
<g id="a_node42"><a xlink:href="tlm__space__packet_8c.html#a1b92e3806a30d3049d18eea341ee0c26" target="_top" xlink:title="Packet Type を設定">
<polygon fill="white" stroke="black" points="934,-418.5 934,-437.5 1016,-437.5 1016,-418.5 934,-418.5"/>
<text text-anchor="middle" x="975" y="-425.5" font-family="Helvetica,sans-Serif" font-size="10.00">TSP_set_type</text>
</a>
</g>
</g>
<!-- Node39&#45;&gt;Node44 -->
<g id="edge54" class="edge">
<title>Node39&#45;&gt;Node44</title>
<path fill="none" stroke="midnightblue" d="M856.62,-399.59C877.34,-404.6 902.89,-410.79 924.86,-416.11"/>
<polygon fill="midnightblue" stroke="midnightblue" points="924.12,-419.53 934.67,-418.48 925.77,-412.73 924.12,-419.53"/>
</g>
<!-- Node46 -->
<g id="node44" class="node">
<title>Node46</title>
<g id="a_node44"><a xlink:href="tlm__space__packet_8c.html#a725157c412be020faec3736821be8b6b" target="_top" xlink:title="Version No を設定">
<polygon fill="white" stroke="black" points="937,-380.5 937,-399.5 1013,-399.5 1013,-380.5 937,-380.5"/>
<text text-anchor="middle" x="975" y="-387.5" font-family="Helvetica,sans-Serif" font-size="10.00">TSP_set_ver</text>
</a>
</g>
</g>
<!-- Node39&#45;&gt;Node46 -->
<g id="edge57" class="edge">
<title>Node39&#45;&gt;Node46</title>
<path fill="none" stroke="midnightblue" d="M878.15,-390C894.24,-390 911.35,-390 926.6,-390"/>
<polygon fill="midnightblue" stroke="midnightblue" points="926.82,-393.5 936.82,-390 926.82,-386.5 926.82,-393.5"/>
</g>
<!-- Node41 -->
<g id="node39" class="node">
<title>Node41</title>
<g id="a_node39"><a xlink:href="space__packet_8c.html#aa8abca9ee84afbb20102452e81e48b5b" target="_top" xlink:title="Secondary Header Flag を設定">
<polygon fill="white" stroke="black" points="1081,-342.5 1081,-361.5 1197,-361.5 1197,-342.5 1081,-342.5"/>
<text text-anchor="middle" x="1139" y="-349.5" font-family="Helvetica,sans-Serif" font-size="10.00">SP_set_2nd_hdr_flag</text>
</a>
</g>
</g>
<!-- Node40&#45;&gt;Node41 -->
<g id="edge49" class="edge">
<title>Node40&#45;&gt;Node41</title>
<path fill="none" stroke="midnightblue" d="M1036.32,-352C1047.48,-352 1059.2,-352 1070.55,-352"/>
<polygon fill="midnightblue" stroke="midnightblue" points="1070.85,-355.5 1080.85,-352 1070.85,-348.5 1070.85,-355.5"/>
</g>
<!-- Node41&#45;&gt;Node7 -->
<g id="edge50" class="edge">
<title>Node41&#45;&gt;Node7</title>
<path fill="none" stroke="midnightblue" d="M1178.9,-361.59C1187.94,-364.26 1197.42,-367.42 1206,-371 1230.36,-381.15 1256.3,-395.7 1275.92,-407.56"/>
<polygon fill="midnightblue" stroke="midnightblue" points="1274.11,-410.56 1284.46,-412.8 1277.77,-404.59 1274.11,-410.56"/>
</g>
<!-- Node43 -->
<g id="node41" class="node">
<title>Node43</title>
<g id="a_node41"><a xlink:href="space__packet_8c.html#a87c32edde9091b947e50ed99e16e6310" target="_top" xlink:title="Sequence Flag を設定">
<polygon fill="white" stroke="black" points="1091.5,-456.5 1091.5,-475.5 1186.5,-475.5 1186.5,-456.5 1091.5,-456.5"/>
<text text-anchor="middle" x="1139" y="-463.5" font-family="Helvetica,sans-Serif" font-size="10.00">SP_set_seq_flag</text>
</a>
</g>
</g>
<!-- Node42&#45;&gt;Node43 -->
<g id="edge52" class="edge">
<title>Node42&#45;&gt;Node43</title>
<path fill="none" stroke="midnightblue" d="M1025.93,-466C1043.42,-466 1063.18,-466 1081.19,-466"/>
<polygon fill="midnightblue" stroke="midnightblue" points="1081.28,-469.5 1091.28,-466 1081.28,-462.5 1081.28,-469.5"/>
</g>
<!-- Node43&#45;&gt;Node7 -->
<g id="edge53" class="edge">
<title>Node43&#45;&gt;Node7</title>
<path fill="none" stroke="midnightblue" d="M1182.39,-456.41C1200.6,-452.29 1222.31,-447.38 1242.5,-442.81"/>
<polygon fill="midnightblue" stroke="midnightblue" points="1243.3,-446.22 1252.28,-440.6 1241.75,-439.4 1243.3,-446.22"/>
</g>
<!-- Node45 -->
<g id="node43" class="node">
<title>Node45</title>
<g id="a_node43"><a xlink:href="space__packet_8c.html#ad7ea8fd9875d2c0d682f2deb16a481e1" target="_top" xlink:title="Packet Type を設定">
<polygon fill="white" stroke="black" points="1101,-418.5 1101,-437.5 1177,-437.5 1177,-418.5 1101,-418.5"/>
<text text-anchor="middle" x="1139" y="-425.5" font-family="Helvetica,sans-Serif" font-size="10.00">SP_set_type</text>
</a>
</g>
</g>
<!-- Node44&#45;&gt;Node45 -->
<g id="edge55" class="edge">
<title>Node44&#45;&gt;Node45</title>
<path fill="none" stroke="midnightblue" d="M1016.04,-428C1038.65,-428 1067.04,-428 1090.73,-428"/>
<polygon fill="midnightblue" stroke="midnightblue" points="1090.91,-431.5 1100.91,-428 1090.91,-424.5 1090.91,-431.5"/>
</g>
<!-- Node45&#45;&gt;Node7 -->
<g id="edge56" class="edge">
<title>Node45&#45;&gt;Node7</title>
<path fill="none" stroke="midnightblue" d="M1177.28,-428C1196.31,-428 1220.03,-428 1242.02,-428"/>
<polygon fill="midnightblue" stroke="midnightblue" points="1242.31,-431.5 1252.31,-428 1242.31,-424.5 1242.31,-431.5"/>
</g>
<!-- Node47 -->
<g id="node45" class="node">
<title>Node47</title>
<g id="a_node45"><a xlink:href="space__packet_8c.html#a66df39f39c177fae374912fb1eaae377" target="_top" xlink:title="Version No を設定">
<polygon fill="white" stroke="black" points="1104,-380.5 1104,-399.5 1174,-399.5 1174,-380.5 1104,-380.5"/>
<text text-anchor="middle" x="1139" y="-387.5" font-family="Helvetica,sans-Serif" font-size="10.00">SP_set_ver</text>
</a>
</g>
</g>
<!-- Node46&#45;&gt;Node47 -->
<g id="edge58" class="edge">
<title>Node46&#45;&gt;Node47</title>
<path fill="none" stroke="midnightblue" d="M1013.17,-390C1037.14,-390 1068.44,-390 1093.71,-390"/>
<polygon fill="midnightblue" stroke="midnightblue" points="1093.77,-393.5 1103.77,-390 1093.77,-386.5 1093.77,-393.5"/>
</g>
<!-- Node47&#45;&gt;Node7 -->
<g id="edge59" class="edge">
<title>Node47&#45;&gt;Node7</title>
<path fill="none" stroke="midnightblue" d="M1174.4,-397.78C1194.06,-402.23 1219.36,-407.95 1242.64,-413.22"/>
<polygon fill="midnightblue" stroke="midnightblue" points="1241.95,-416.65 1252.48,-415.44 1243.5,-409.82 1241.95,-416.65"/>
</g>
<!-- Node49 -->
<g id="node47" class="node">
<title>Node49</title>
<g id="a_node47"><a xlink:href="space__packet_8c.html#addad7908c3c2db6b1ab2546971373bb7" target="_top" xlink:title="Packet Length を設定">
<polygon fill="white" stroke="black" points="921.5,-304.5 921.5,-323.5 1028.5,-323.5 1028.5,-304.5 921.5,-304.5"/>
<text text-anchor="middle" x="975" y="-311.5" font-family="Helvetica,sans-Serif" font-size="10.00">SP_set_packet_len</text>
</a>
</g>
</g>
<!-- Node48&#45;&gt;Node49 -->
<g id="edge61" class="edge">
<title>Node48&#45;&gt;Node49</title>
<path fill="none" stroke="midnightblue" d="M872.79,-314C885.24,-314 898.53,-314 911.23,-314"/>
<polygon fill="midnightblue" stroke="midnightblue" points="911.28,-317.5 921.28,-314 911.28,-310.5 911.28,-317.5"/>
</g>
<!-- Node50 -->
<g id="node48" class="node">
<title>Node50</title>
<g id="a_node48"><a xlink:href="space__packet_8c.html#a03e63eb8f8570b389b15eb44c5071af9" target="_top" xlink:title="Packet Data Length を設定">
<polygon fill="white" stroke="black" points="1072,-304.5 1072,-323.5 1206,-323.5 1206,-304.5 1072,-304.5"/>
<text text-anchor="middle" x="1139" y="-311.5" font-family="Helvetica,sans-Serif" font-size="10.00">SP_set_packet_data_len</text>
</a>
</g>
</g>
<!-- Node49&#45;&gt;Node50 -->
<g id="edge62" class="edge">
<title>Node49&#45;&gt;Node50</title>
<path fill="none" stroke="midnightblue" d="M1028.6,-314C1039.14,-314 1050.41,-314 1061.57,-314"/>
<polygon fill="midnightblue" stroke="midnightblue" points="1061.76,-317.5 1071.76,-314 1061.76,-310.5 1061.76,-317.5"/>
</g>
<!-- Node50&#45;&gt;Node7 -->
<g id="edge63" class="edge">
<title>Node50&#45;&gt;Node7</title>
<path fill="none" stroke="midnightblue" d="M1184.13,-323.57C1191.68,-326.08 1199.26,-329.18 1206,-333 1239.24,-351.82 1270.26,-383.54 1289.17,-405.11"/>
<polygon fill="midnightblue" stroke="midnightblue" points="1286.63,-407.52 1295.8,-412.83 1291.94,-402.96 1286.63,-407.52"/>
</g>
<!-- Node52 -->
<g id="node50" class="node">
<title>Node52</title>
<g id="a_node50"><a xlink:href="space__packet_8c.html#a89427fc91a39c1d05b8bc03135d4b9a1" target="_top" xlink:title="Sequence Count を設定">
<polygon fill="white" stroke="black" points="1087,-266.5 1087,-285.5 1191,-285.5 1191,-266.5 1087,-266.5"/>
<text text-anchor="middle" x="1139" y="-273.5" font-family="Helvetica,sans-Serif" font-size="10.00">SP_set_seq_count</text>
</a>
</g>
</g>
<!-- Node51&#45;&gt;Node52 -->
<g id="edge65" class="edge">
<title>Node51&#45;&gt;Node52</title>
<path fill="none" stroke="midnightblue" d="M871.09,-276C928.01,-276 1017.43,-276 1076.87,-276"/>
<polygon fill="midnightblue" stroke="midnightblue" points="1076.87,-279.5 1086.87,-276 1076.87,-272.5 1076.87,-279.5"/>
</g>
<!-- Node52&#45;&gt;Node7 -->
<g id="edge66" class="edge">
<title>Node52&#45;&gt;Node7</title>
<path fill="none" stroke="midnightblue" d="M1187.12,-285.52C1193.77,-288 1200.29,-291.1 1206,-295 1247.44,-323.25 1279.31,-373.75 1295.72,-403.73"/>
<polygon fill="midnightblue" stroke="midnightblue" points="1292.7,-405.51 1300.49,-412.69 1298.88,-402.22 1292.7,-405.51"/>
</g>
</g>
</svg>
