<?xml version="1.0" encoding="UTF-8" standalone="no"?>
<!DOCTYPE svg PUBLIC "-//W3C//DTD SVG 1.1//EN"
 "http://www.w3.org/Graphics/SVG/1.1/DTD/svg11.dtd">
<!-- Generated by graphviz version 2.43.0 (0)
 -->
<!-- Title: Cmd_TLM_MGR_REGISTER_HIGH_FREQ_TLM Pages: 1 -->
<svg width="1729pt" height="534pt"
 viewBox="0.00 0.00 1729.00 533.50" xmlns="http://www.w3.org/2000/svg" xmlns:xlink="http://www.w3.org/1999/xlink">
<g id="graph0" class="graph" transform="scale(1 1) rotate(0) translate(4 529.5)">
<title>Cmd_TLM_MGR_REGISTER_HIGH_FREQ_TLM</title>
<polygon fill="white" stroke="transparent" points="-4,4 -4,-529.5 1725,-529.5 1725,4 -4,4"/>
<!-- Node1 -->
<g id="node1" class="node">
<title>Node1</title>
<g id="a_node1"><a xlink:title="high_freq_tlm を登録">
<polygon fill="#bfbfbf" stroke="black" points="0,-335 0,-365 146,-365 146,-335 0,-335"/>
<text text-anchor="start" x="8" y="-353" font-family="Helvetica,sans-Serif" font-size="10.00">Cmd_TLM_MGR_REGISTER</text>
<text text-anchor="middle" x="73" y="-342" font-family="Helvetica,sans-Serif" font-size="10.00">_HIGH_FREQ_TLM</text>
</a>
</g>
</g>
<!-- Node2 -->
<g id="node2" class="node">
<title>Node2</title>
<g id="a_node2"><a xlink:href="command__analyze_8c.html#ae878a1a8ce00cc7468fbdd5bc5aba864" target="_top" xlink:title="コマンドパラメタ長をチェックする">
<polygon fill="white" stroke="black" points="874,-95.5 874,-114.5 1020,-114.5 1020,-95.5 874,-95.5"/>
<text text-anchor="middle" x="947" y="-102.5" font-family="Helvetica,sans-Serif" font-size="10.00">CA_ckeck_cmd_param_len</text>
</a>
</g>
</g>
<!-- Node1&#45;&gt;Node2 -->
<g id="edge1" class="edge">
<title>Node1&#45;&gt;Node2</title>
<path fill="none" stroke="midnightblue" d="M102.9,-334.9C190.65,-290.08 462.98,-158.67 707,-122 758.72,-114.23 817.3,-109.99 863.51,-107.69"/>
<polygon fill="midnightblue" stroke="midnightblue" points="863.95,-111.17 873.78,-107.2 863.62,-104.18 863.95,-111.17"/>
</g>
<!-- Node9 -->
<g id="node9" class="node">
<title>Node9</title>
<g id="a_node9"><a xlink:href="common__cmd__packet_8h.html#ac7f988d02cd49f16275dcb893b0e8fda" target="_top" xlink:title="先頭のパラメタのポインタを取得">
<polygon fill="white" stroke="black" points="212.5,-378.5 212.5,-397.5 335.5,-397.5 335.5,-378.5 212.5,-378.5"/>
<text text-anchor="middle" x="274" y="-385.5" font-family="Helvetica,sans-Serif" font-size="10.00">CCP_get_param_head</text>
</a>
</g>
</g>
<!-- Node1&#45;&gt;Node9 -->
<g id="edge10" class="edge">
<title>Node1&#45;&gt;Node9</title>
<path fill="none" stroke="midnightblue" d="M146.12,-363.77C168.11,-367.97 192.03,-372.54 213.11,-376.56"/>
<polygon fill="midnightblue" stroke="midnightblue" points="212.74,-380.06 223.21,-378.49 214.05,-373.18 212.74,-380.06"/>
</g>
<!-- Node11 -->
<g id="node11" class="node">
<title>Node11</title>
<g id="a_node11"><a xlink:href="common__cmd__packet_8h.html#a6f37129ce7654260af1f8a565f6423fc" target="_top" xlink:title="CMD パラメタ長を取得">
<polygon fill="white" stroke="black" points="217,-425.5 217,-444.5 331,-444.5 331,-425.5 217,-425.5"/>
<text text-anchor="middle" x="274" y="-432.5" font-family="Helvetica,sans-Serif" font-size="10.00">CCP_get_param_len</text>
</a>
</g>
</g>
<!-- Node1&#45;&gt;Node11 -->
<g id="edge12" class="edge">
<title>Node1&#45;&gt;Node11</title>
<path fill="none" stroke="midnightblue" d="M99.53,-365.22C121.01,-377.6 152.81,-394.93 182,-407 196.27,-412.9 212.25,-418.22 226.79,-422.61"/>
<polygon fill="midnightblue" stroke="midnightblue" points="226,-426.02 236.58,-425.48 227.97,-419.31 226,-426.02"/>
</g>
<!-- Node19 -->
<g id="node17" class="node">
<title>Node19</title>
<g id="a_node17"><a xlink:href="telemetry__manager_8c.html#a2cf8d6a2174e6649a0f079f3a292fcd4" target="_top" xlink:title="TLM_MGR_RegisterInfo に テレメ生成コマンドを登録する">
<polygon fill="white" stroke="black" points="182,-321.5 182,-340.5 366,-340.5 366,-321.5 182,-321.5"/>
<text text-anchor="middle" x="274" y="-328.5" font-family="Helvetica,sans-Serif" font-size="10.00">TLM_MGR_register_generate_tlm_</text>
</a>
</g>
</g>
<!-- Node1&#45;&gt;Node19 -->
<g id="edge18" class="edge">
<title>Node1&#45;&gt;Node19</title>
<path fill="none" stroke="midnightblue" d="M146.12,-343.11C154.44,-342.32 163.03,-341.5 171.64,-340.68"/>
<polygon fill="midnightblue" stroke="midnightblue" points="172.12,-344.15 181.74,-339.71 171.45,-337.18 172.12,-344.15"/>
</g>
<!-- Node3 -->
<g id="node3" class="node">
<title>Node3</title>
<g id="a_node3"><a xlink:href="command__analyze_8c.html#ac95557475d470f986e1eb46befbc2ae9" target="_top" xlink:title="最小コマンドパラメタ長を取得する">
<polygon fill="white" stroke="black" points="1056,-38.5 1056,-57.5 1214,-57.5 1214,-38.5 1056,-38.5"/>
<text text-anchor="middle" x="1135" y="-45.5" font-family="Helvetica,sans-Serif" font-size="10.00">CA_get_cmd_param_min_len</text>
</a>
</g>
</g>
<!-- Node2&#45;&gt;Node3 -->
<g id="edge2" class="edge">
<title>Node2&#45;&gt;Node3</title>
<path fill="none" stroke="midnightblue" d="M977.89,-95.4C990.88,-91.14 1006.24,-85.96 1020,-81 1036.15,-75.17 1039.62,-72.15 1056,-67 1063.84,-64.53 1072.22,-62.19 1080.46,-60.05"/>
<polygon fill="midnightblue" stroke="midnightblue" points="1081.56,-63.38 1090.4,-57.55 1079.85,-56.6 1081.56,-63.38"/>
</g>
<!-- Node6 -->
<g id="node6" class="node">
<title>Node6</title>
<g id="a_node6"><a xlink:href="command__analyze_8c.html#a8b245c2a85084ae21588acd4deb3b3d6" target="_top" xlink:title="RAW パラメタを持っているか？">
<polygon fill="white" stroke="black" points="1078.5,-76.5 1078.5,-95.5 1191.5,-95.5 1191.5,-76.5 1078.5,-76.5"/>
<text text-anchor="middle" x="1135" y="-83.5" font-family="Helvetica,sans-Serif" font-size="10.00">CA_has_raw_param</text>
</a>
</g>
</g>
<!-- Node2&#45;&gt;Node6 -->
<g id="edge5" class="edge">
<title>Node2&#45;&gt;Node6</title>
<path fill="none" stroke="midnightblue" d="M1020.18,-97.63C1036.01,-96.01 1052.69,-94.31 1068.25,-92.72"/>
<polygon fill="midnightblue" stroke="midnightblue" points="1068.71,-96.19 1078.3,-91.69 1068,-89.22 1068.71,-96.19"/>
</g>
<!-- Node8 -->
<g id="node8" class="node">
<title>Node8</title>
<g id="a_node8"><a xlink:href="common__cmd__packet_8h.html#a0cb576a77e94553c22d9cb70a6fd50f1" target="_top" xlink:title="CMD パラメタ長の最大値を取得">
<polygon fill="white" stroke="black" points="1064.5,-114.5 1064.5,-133.5 1205.5,-133.5 1205.5,-114.5 1064.5,-114.5"/>
<text text-anchor="middle" x="1135" y="-121.5" font-family="Helvetica,sans-Serif" font-size="10.00">CCP_get_max_param_len</text>
</a>
</g>
</g>
<!-- Node2&#45;&gt;Node8 -->
<g id="edge9" class="edge">
<title>Node2&#45;&gt;Node8</title>
<path fill="none" stroke="midnightblue" d="M1020.18,-112.37C1031.28,-113.51 1042.8,-114.68 1054.06,-115.83"/>
<polygon fill="midnightblue" stroke="midnightblue" points="1054,-119.35 1064.31,-116.88 1054.71,-112.38 1054,-119.35"/>
</g>
<!-- Node4 -->
<g id="node4" class="node">
<title>Node4</title>
<g id="a_node4"><a xlink:href="command__analyze_8c.html#a464f3aa16753a76bc5093100542a361a" target="_top" xlink:title="コマンドパラメタサイズを取得する">
<polygon fill="white" stroke="black" points="1251,-0.5 1251,-19.5 1390,-19.5 1390,-0.5 1251,-0.5"/>
<text text-anchor="middle" x="1320.5" y="-7.5" font-family="Helvetica,sans-Serif" font-size="10.00">CA_get_cmd_param_size</text>
</a>
</g>
</g>
<!-- Node3&#45;&gt;Node4 -->
<g id="edge3" class="edge">
<title>Node3&#45;&gt;Node4</title>
<path fill="none" stroke="midnightblue" d="M1182.3,-38.41C1206.96,-33.31 1237.46,-26.99 1263.44,-21.61"/>
<polygon fill="midnightblue" stroke="midnightblue" points="1264.45,-24.98 1273.53,-19.52 1263.03,-18.12 1264.45,-24.98"/>
</g>
<!-- Node5 -->
<g id="node5" class="node">
<title>Node5</title>
<g id="a_node5"><a xlink:href="command__analyze_8c.html#aa312aeadf3ce336a10385fe14e22f77c" target="_top" xlink:title="コマンドパラメタのサイズ情報を取得">
<polygon fill="white" stroke="black" points="1427,-0.5 1427,-19.5 1572,-19.5 1572,-0.5 1427,-0.5"/>
<text text-anchor="middle" x="1499.5" y="-7.5" font-family="Helvetica,sans-Serif" font-size="10.00">CA_get_param_size_type_</text>
</a>
</g>
</g>
<!-- Node4&#45;&gt;Node5 -->
<g id="edge4" class="edge">
<title>Node4&#45;&gt;Node5</title>
<path fill="none" stroke="midnightblue" d="M1390.19,-10C1398.94,-10 1407.97,-10 1416.9,-10"/>
<polygon fill="midnightblue" stroke="midnightblue" points="1416.93,-13.5 1426.93,-10 1416.93,-6.5 1416.93,-13.5"/>
</g>
<!-- Node6&#45;&gt;Node5 -->
<g id="edge8" class="edge">
<title>Node6&#45;&gt;Node5</title>
<path fill="none" stroke="midnightblue" d="M1191.62,-88.35C1244.07,-89.07 1324.35,-86.23 1391,-67 1407.7,-62.18 1447.37,-40 1473.56,-24.77"/>
<polygon fill="midnightblue" stroke="midnightblue" points="1475.34,-27.78 1482.2,-19.71 1471.81,-21.74 1475.34,-27.78"/>
</g>
<!-- Node7 -->
<g id="node7" class="node">
<title>Node7</title>
<g id="a_node7"><a xlink:href="command__analyze_8c.html#a170772c49fb7883a382a30bd38485a6e" target="_top" xlink:title="コマンドパラメタ数を取得する">
<polygon fill="white" stroke="black" points="1250,-38.5 1250,-57.5 1391,-57.5 1391,-38.5 1250,-38.5"/>
<text text-anchor="middle" x="1320.5" y="-45.5" font-family="Helvetica,sans-Serif" font-size="10.00">CA_get_cmd_param_num</text>
</a>
</g>
</g>
<!-- Node6&#45;&gt;Node7 -->
<g id="edge6" class="edge">
<title>Node6&#45;&gt;Node7</title>
<path fill="none" stroke="midnightblue" d="M1182.3,-76.41C1206.96,-71.31 1237.46,-64.99 1263.44,-59.61"/>
<polygon fill="midnightblue" stroke="midnightblue" points="1264.45,-62.98 1273.53,-57.52 1263.03,-56.12 1264.45,-62.98"/>
</g>
<!-- Node7&#45;&gt;Node5 -->
<g id="edge7" class="edge">
<title>Node7&#45;&gt;Node5</title>
<path fill="none" stroke="midnightblue" d="M1366.16,-38.41C1389.84,-33.33 1419.11,-27.04 1444.1,-21.68"/>
<polygon fill="midnightblue" stroke="midnightblue" points="1445.11,-25.04 1454.16,-19.52 1443.64,-18.2 1445.11,-25.04"/>
</g>
<!-- Node10 -->
<g id="node10" class="node">
<title>Node10</title>
<g id="a_node10"><a xlink:href="cmd__space__packet_8c.html#a05169fb3461910d6b5b13a59a0026455" target="_top" xlink:title="コマンドパラメタの先頭ポインタを取得">
<polygon fill="white" stroke="black" points="402,-397.5 402,-416.5 524,-416.5 524,-397.5 402,-397.5"/>
<text text-anchor="middle" x="463" y="-404.5" font-family="Helvetica,sans-Serif" font-size="10.00">CSP_get_param_head</text>
</a>
</g>
</g>
<!-- Node9&#45;&gt;Node10 -->
<g id="edge11" class="edge">
<title>Node9&#45;&gt;Node10</title>
<path fill="none" stroke="midnightblue" d="M335.71,-394.17C353.62,-395.99 373.36,-397.99 391.81,-399.87"/>
<polygon fill="midnightblue" stroke="midnightblue" points="391.61,-403.37 401.91,-400.89 392.32,-396.4 391.61,-403.37"/>
</g>
<!-- Node12 -->
<g id="node12" class="node">
<title>Node12</title>
<g id="a_node12"><a xlink:href="cmd__space__packet_8c.html#ad01de2632e93794f7c77749eb788ad74" target="_top" xlink:title="Param Length を取得">
<polygon fill="white" stroke="black" points="406.5,-454.5 406.5,-473.5 519.5,-473.5 519.5,-454.5 406.5,-454.5"/>
<text text-anchor="middle" x="463" y="-461.5" font-family="Helvetica,sans-Serif" font-size="10.00">CSP_get_param_len</text>
</a>
</g>
</g>
<!-- Node11&#45;&gt;Node12 -->
<g id="edge13" class="edge">
<title>Node11&#45;&gt;Node12</title>
<path fill="none" stroke="midnightblue" d="M331.11,-443.7C351.63,-446.88 375.03,-450.51 396.32,-453.81"/>
<polygon fill="midnightblue" stroke="midnightblue" points="395.84,-457.28 406.26,-455.36 396.91,-450.36 395.84,-457.28"/>
</g>
<!-- Node13 -->
<g id="node13" class="node">
<title>Node13</title>
<g id="a_node13"><a xlink:href="cmd__space__packet_8c.html#aee157565d728de693218da48114b5923" target="_top" xlink:title="Packet Length を取得">
<polygon fill="white" stroke="black" points="890,-464.5 890,-483.5 1004,-483.5 1004,-464.5 890,-464.5"/>
<text text-anchor="middle" x="947" y="-471.5" font-family="Helvetica,sans-Serif" font-size="10.00">CSP_get_packet_len</text>
</a>
</g>
</g>
<!-- Node12&#45;&gt;Node13 -->
<g id="edge14" class="edge">
<title>Node12&#45;&gt;Node13</title>
<path fill="none" stroke="midnightblue" d="M519.76,-465.16C609.18,-467.01 784.28,-470.64 879.87,-472.63"/>
<polygon fill="midnightblue" stroke="midnightblue" points="879.93,-476.13 890,-472.84 880.07,-469.13 879.93,-476.13"/>
</g>
<!-- Node14 -->
<g id="node14" class="node">
<title>Node14</title>
<g id="a_node14"><a xlink:href="space__packet_8c.html#a25afed909fb67da49f5ac9921a23744f" target="_top" xlink:title="Packet Length を取得">
<polygon fill="white" stroke="black" points="1081.5,-475.5 1081.5,-494.5 1188.5,-494.5 1188.5,-475.5 1081.5,-475.5"/>
<text text-anchor="middle" x="1135" y="-482.5" font-family="Helvetica,sans-Serif" font-size="10.00">SP_get_packet_len</text>
</a>
</g>
</g>
<!-- Node13&#45;&gt;Node14 -->
<g id="edge15" class="edge">
<title>Node13&#45;&gt;Node14</title>
<path fill="none" stroke="midnightblue" d="M1004.06,-477.32C1025.2,-478.57 1049.39,-480 1071.12,-481.28"/>
<polygon fill="midnightblue" stroke="midnightblue" points="1071.05,-484.78 1081.24,-481.88 1071.46,-477.8 1071.05,-484.78"/>
</g>
<!-- Node15 -->
<g id="node15" class="node">
<title>Node15</title>
<g id="a_node15"><a xlink:href="space__packet_8c.html#ad5dd44fdb4e6c00e7dbb311d3aaee3d3" target="_top" xlink:title="Packet Data Length を取得">
<polygon fill="white" stroke="black" points="1253.5,-497.5 1253.5,-516.5 1387.5,-516.5 1387.5,-497.5 1253.5,-497.5"/>
<text text-anchor="middle" x="1320.5" y="-504.5" font-family="Helvetica,sans-Serif" font-size="10.00">SP_get_packet_data_len</text>
</a>
</g>
</g>
<!-- Node14&#45;&gt;Node15 -->
<g id="edge16" class="edge">
<title>Node14&#45;&gt;Node15</title>
<path fill="none" stroke="midnightblue" d="M1188.58,-491.3C1205.56,-493.34 1224.74,-495.64 1243.08,-497.84"/>
<polygon fill="midnightblue" stroke="midnightblue" points="1242.82,-501.33 1253.17,-499.05 1243.65,-494.38 1242.82,-501.33"/>
</g>
<!-- Node16 -->
<g id="node16" class="node">
<title>Node16</title>
<g id="a_node16"><a xlink:href="space__packet_8c.html#a300c7fc3dea91319b0fa2f039f27d5eb" target="_top" xlink:title="packet に格納された param を取得">
<polygon fill="white" stroke="red" points="1432.5,-495 1432.5,-525 1566.5,-525 1566.5,-495 1432.5,-495"/>
<text text-anchor="start" x="1440.5" y="-513" font-family="Helvetica,sans-Serif" font-size="10.00">SP_extract_param_from</text>
<text text-anchor="middle" x="1499.5" y="-502" font-family="Helvetica,sans-Serif" font-size="10.00">_packet</text>
</a>
</g>
</g>
<!-- Node15&#45;&gt;Node16 -->
<g id="edge17" class="edge">
<title>Node15&#45;&gt;Node16</title>
<path fill="none" stroke="midnightblue" d="M1387.66,-508.12C1398.98,-508.31 1410.81,-508.51 1422.36,-508.71"/>
<polygon fill="midnightblue" stroke="midnightblue" points="1422.36,-512.21 1432.42,-508.88 1422.48,-505.21 1422.36,-512.21"/>
</g>
<!-- Node19&#45;&gt;Node3 -->
<g id="edge29" class="edge">
<title>Node19&#45;&gt;Node3</title>
<path fill="none" stroke="midnightblue" d="M292.88,-321.38C312.09,-310.57 342.96,-291.79 366,-271 384.76,-254.08 381.94,-242.37 402,-227 596.22,-78.21 897.31,-51.29 1045.49,-47.58"/>
<polygon fill="midnightblue" stroke="midnightblue" points="1045.97,-51.07 1055.89,-47.35 1045.81,-44.07 1045.97,-51.07"/>
</g>
<!-- Node20 -->
<g id="node18" class="node">
<title>Node20</title>
<g id="a_node18"><a xlink:href="block__command__table_8c.html#a2843560950369ecdb9e35801795b54db" target="_top" xlink:title="BCT_Pos* を引数から作る">
<polygon fill="white" stroke="black" points="570,-426.5 570,-445.5 661,-445.5 661,-426.5 570,-426.5"/>
<text text-anchor="middle" x="615.5" y="-433.5" font-family="Helvetica,sans-Serif" font-size="10.00">BCT_make_pos</text>
</a>
</g>
</g>
<!-- Node19&#45;&gt;Node20 -->
<g id="edge19" class="edge">
<title>Node19&#45;&gt;Node20</title>
<path fill="none" stroke="midnightblue" d="M329.49,-340.51C391.99,-351.93 490.18,-371.6 524,-388 542.49,-396.97 542.04,-407.03 560,-417 563.7,-419.05 567.65,-420.94 571.69,-422.67"/>
<polygon fill="midnightblue" stroke="midnightblue" points="570.56,-425.99 581.15,-426.41 573.13,-419.48 570.56,-425.99"/>
</g>
<!-- Node22 -->
<g id="node20" class="node">
<title>Node22</title>
<g id="a_node20"><a xlink:href="block__command__table_8c.html#a164ccb35114540791acacd185a326d1b" target="_top" xlink:title="既に登録されている BC の Cmd の中身を外部から上書きする">
<polygon fill="white" stroke="black" points="406,-321.5 406,-340.5 520,-340.5 520,-321.5 406,-321.5"/>
<text text-anchor="middle" x="463" y="-328.5" font-family="Helvetica,sans-Serif" font-size="10.00">BCT_overwrite_cmd</text>
</a>
</g>
</g>
<!-- Node19&#45;&gt;Node22 -->
<g id="edge21" class="edge">
<title>Node19&#45;&gt;Node22</title>
<path fill="none" stroke="midnightblue" d="M366.03,-331C375.99,-331 385.99,-331 395.57,-331"/>
<polygon fill="midnightblue" stroke="midnightblue" points="395.78,-334.5 405.78,-331 395.78,-327.5 395.78,-334.5"/>
</g>
<!-- Node27 -->
<g id="node25" class="node">
<title>Node27</title>
<g id="a_node25"><a xlink:href="common__cmd__packet__util_8c.html#a3695599b4d05dbb0b510c73dab7cd233" target="_top" xlink:title="Timeline command を生成">
<polygon fill="white" stroke="black" points="422,-236.5 422,-255.5 504,-255.5 504,-236.5 422,-236.5"/>
<text text-anchor="middle" x="463" y="-243.5" font-family="Helvetica,sans-Serif" font-size="10.00">CCP_form_tlc</text>
</a>
</g>
</g>
<!-- Node19&#45;&gt;Node27 -->
<g id="edge30" class="edge">
<title>Node19&#45;&gt;Node27</title>
<path fill="none" stroke="midnightblue" d="M296.09,-321.41C329.14,-306.39 393.31,-277.22 431.43,-259.89"/>
<polygon fill="midnightblue" stroke="midnightblue" points="433.33,-262.87 440.99,-255.55 430.44,-256.5 433.33,-262.87"/>
</g>
<!-- Node21 -->
<g id="node19" class="node">
<title>Node21</title>
<g id="a_node19"><a xlink:href="block__command__table_8c.html#ae25a57a4a97b49bf13a4caa0b5e8ff76" target="_top" xlink:title="BCT_Pos* の validate">
<polygon fill="white" stroke="black" points="715.5,-388.5 715.5,-407.5 829.5,-407.5 829.5,-388.5 715.5,-388.5"/>
<text text-anchor="middle" x="772.5" y="-395.5" font-family="Helvetica,sans-Serif" font-size="10.00">BCT_check_position</text>
</a>
</g>
</g>
<!-- Node20&#45;&gt;Node21 -->
<g id="edge20" class="edge">
<title>Node20&#45;&gt;Node21</title>
<path fill="none" stroke="midnightblue" d="M655.61,-426.41C675.97,-421.42 701.07,-415.27 722.69,-409.97"/>
<polygon fill="midnightblue" stroke="midnightblue" points="723.79,-413.3 732.67,-407.52 722.12,-406.5 723.79,-413.3"/>
</g>
<!-- Node22&#45;&gt;Node21 -->
<g id="edge22" class="edge">
<title>Node22&#45;&gt;Node21</title>
<path fill="none" stroke="midnightblue" d="M507.73,-340.53C562.9,-352.55 657.77,-373.22 717.44,-386.22"/>
<polygon fill="midnightblue" stroke="midnightblue" points="716.91,-389.69 727.42,-388.4 718.4,-382.85 716.91,-389.69"/>
</g>
<!-- Node23 -->
<g id="node21" class="node">
<title>Node23</title>
<g id="a_node21"><a xlink:href="block__command__table_8c.html#add2db8412ac7b28b2e61d99638daaac5" target="_top" xlink:title="BCT の length の getter">
<polygon fill="white" stroke="black" points="560.5,-388.5 560.5,-407.5 670.5,-407.5 670.5,-388.5 560.5,-388.5"/>
<text text-anchor="middle" x="615.5" y="-395.5" font-family="Helvetica,sans-Serif" font-size="10.00">BCT_get_bc_length</text>
</a>
</g>
</g>
<!-- Node22&#45;&gt;Node23 -->
<g id="edge23" class="edge">
<title>Node22&#45;&gt;Node23</title>
<path fill="none" stroke="midnightblue" d="M489.65,-340.58C500.38,-344.76 512.9,-349.87 524,-355 540.42,-362.59 543.71,-366.13 560,-374 567.1,-377.43 574.81,-380.95 582.14,-384.2"/>
<polygon fill="midnightblue" stroke="midnightblue" points="581.23,-387.62 591.8,-388.43 584.04,-381.21 581.23,-387.62"/>
</g>
<!-- Node24 -->
<g id="node22" class="node">
<title>Node24</title>
<g id="a_node22"><a xlink:href="block__command__table_8c.html#aa8c676311a614f56a48444ffb17f7e87" target="_top" xlink:title="pos の指す場所に packet の内容を保存 (TCP_PRM_HDR_LEN の長さも考慮)">
<polygon fill="white" stroke="black" points="567.5,-312.5 567.5,-331.5 663.5,-331.5 663.5,-312.5 567.5,-312.5"/>
<text text-anchor="middle" x="615.5" y="-319.5" font-family="Helvetica,sans-Serif" font-size="10.00">BCT_save_cmd_</text>
</a>
</g>
</g>
<!-- Node22&#45;&gt;Node24 -->
<g id="edge24" class="edge">
<title>Node22&#45;&gt;Node24</title>
<path fill="none" stroke="midnightblue" d="M520.04,-327.65C532.18,-326.92 545.04,-326.15 557.23,-325.42"/>
<polygon fill="midnightblue" stroke="midnightblue" points="557.51,-328.91 567.29,-324.82 557.1,-321.93 557.51,-328.91"/>
</g>
<!-- Node24&#45;&gt;Node21 -->
<g id="edge25" class="edge">
<title>Node24&#45;&gt;Node21</title>
<path fill="none" stroke="midnightblue" d="M642.9,-331.58C652.13,-335.45 662.34,-340.35 671,-346 689.17,-357.87 688.1,-368.32 707,-379 710.88,-381.19 715.03,-383.15 719.3,-384.9"/>
<polygon fill="midnightblue" stroke="midnightblue" points="718.14,-388.2 728.74,-388.4 720.58,-381.64 718.14,-388.2"/>
</g>
<!-- Node25 -->
<g id="node23" class="node">
<title>Node25</title>
<g id="a_node23"><a xlink:href="block__command__table_8c.html#a5099527d441a777f4656300ab41037da" target="_top" xlink:title=" ">
<polygon fill="white" stroke="black" points="707,-350.5 707,-369.5 838,-369.5 838,-350.5 707,-350.5"/>
<text text-anchor="middle" x="772.5" y="-357.5" font-family="Helvetica,sans-Serif" font-size="10.00">BCT_set_bc_cmd_data_</text>
</a>
</g>
</g>
<!-- Node24&#45;&gt;Node25 -->
<g id="edge26" class="edge">
<title>Node24&#45;&gt;Node25</title>
<path fill="none" stroke="midnightblue" d="M655.61,-331.59C675.97,-336.58 701.07,-342.73 722.69,-348.03"/>
<polygon fill="midnightblue" stroke="midnightblue" points="722.12,-351.5 732.67,-350.48 723.79,-344.7 722.12,-351.5"/>
</g>
<!-- Node26 -->
<g id="node24" class="node">
<title>Node26</title>
<g id="a_node24"><a xlink:href="common__cmd__packet_8h.html#a09b2e0ad8f87be0782c0f8ef2523f44c" target="_top" xlink:title="パケット長を取得">
<polygon fill="white" stroke="black" points="715,-312.5 715,-331.5 830,-331.5 830,-312.5 715,-312.5"/>
<text text-anchor="middle" x="772.5" y="-319.5" font-family="Helvetica,sans-Serif" font-size="10.00">CCP_get_packet_len</text>
</a>
</g>
</g>
<!-- Node24&#45;&gt;Node26 -->
<g id="edge27" class="edge">
<title>Node24&#45;&gt;Node26</title>
<path fill="none" stroke="midnightblue" d="M663.85,-322C676.69,-322 690.84,-322 704.54,-322"/>
<polygon fill="midnightblue" stroke="midnightblue" points="704.9,-325.5 714.9,-322 704.9,-318.5 704.9,-325.5"/>
</g>
<!-- Node26&#45;&gt;Node13 -->
<g id="edge28" class="edge">
<title>Node26&#45;&gt;Node13</title>
<path fill="none" stroke="midnightblue" d="M818.78,-331.53C825.53,-334.01 832.17,-337.12 838,-341 883.4,-371.24 919.17,-426.4 935.82,-455.26"/>
<polygon fill="midnightblue" stroke="midnightblue" points="932.94,-457.29 940.89,-464.29 939.04,-453.86 932.94,-457.29"/>
</g>
<!-- Node27&#45;&gt;Node2 -->
<g id="edge31" class="edge">
<title>Node27&#45;&gt;Node2</title>
<path fill="none" stroke="midnightblue" d="M476.97,-236.44C494.79,-223.75 528.26,-201.5 560,-189 618.03,-166.15 788.43,-133.37 882.25,-116.3"/>
<polygon fill="midnightblue" stroke="midnightblue" points="882.97,-119.73 892.19,-114.5 881.72,-112.84 882.97,-119.73"/>
</g>
<!-- Node28 -->
<g id="node26" class="node">
<title>Node28</title>
<g id="a_node26"><a xlink:href="common__cmd__packet__util_8c.html#ae0f356389f15546c7e067db35bde985d" target="_top" xlink:title="Realtime Command から Timeline Command へ変換">
<polygon fill="white" stroke="black" points="883,-304.5 883,-323.5 1011,-323.5 1011,-304.5 883,-304.5"/>
<text text-anchor="middle" x="947" y="-311.5" font-family="Helvetica,sans-Serif" font-size="10.00">CCP_convert_rtc_to_tlc</text>
</a>
</g>
</g>
<!-- Node27&#45;&gt;Node28 -->
<g id="edge32" class="edge">
<title>Node27&#45;&gt;Node28</title>
<path fill="none" stroke="midnightblue" d="M504.27,-251.68C585.39,-263.13 769.53,-289.1 872.62,-303.65"/>
<polygon fill="midnightblue" stroke="midnightblue" points="872.25,-307.13 882.64,-305.06 873.23,-300.2 872.25,-307.13"/>
</g>
<!-- Node34 -->
<g id="node32" class="node">
<title>Node34</title>
<g id="a_node32"><a xlink:href="common__cmd__packet__util_8c.html#a01b352632ca605771f0cfd66a2a149ba" target="_top" xlink:title="NOP cmd の RTC CCP を作る">
<polygon fill="white" stroke="black" points="560,-198.5 560,-217.5 671,-217.5 671,-198.5 560,-198.5"/>
<text text-anchor="middle" x="615.5" y="-205.5" font-family="Helvetica,sans-Serif" font-size="10.00">CCP_form_nop_rtc_</text>
</a>
</g>
</g>
<!-- Node27&#45;&gt;Node34 -->
<g id="edge39" class="edge">
<title>Node27&#45;&gt;Node34</title>
<path fill="none" stroke="midnightblue" d="M501.98,-236.41C521.66,-231.44 545.89,-225.32 566.82,-220.04"/>
<polygon fill="midnightblue" stroke="midnightblue" points="567.96,-223.36 576.8,-217.52 566.24,-216.57 567.96,-223.36"/>
</g>
<!-- Node36 -->
<g id="node34" class="node">
<title>Node36</title>
<g id="a_node34"><a xlink:href="common__cmd__packet__util_8c.html#a58160242c4b87906597c90a3465c9596" target="_top" xlink:title="RealTime Command を生成する. CCP_form_* の実体.">
<polygon fill="white" stroke="black" points="903,-231.5 903,-250.5 991,-250.5 991,-231.5 903,-231.5"/>
<text text-anchor="middle" x="947" y="-238.5" font-family="Helvetica,sans-Serif" font-size="10.00">CCP_form_rtc_</text>
</a>
</g>
</g>
<!-- Node27&#45;&gt;Node36 -->
<g id="edge66" class="edge">
<title>Node27&#45;&gt;Node36</title>
<path fill="none" stroke="midnightblue" d="M504.27,-245.58C590.93,-244.68 795.16,-242.56 892.54,-241.55"/>
<polygon fill="midnightblue" stroke="midnightblue" points="892.79,-245.05 902.75,-241.45 892.71,-238.05 892.79,-245.05"/>
</g>
<!-- Node29 -->
<g id="node27" class="node">
<title>Node29</title>
<g id="a_node27"><a xlink:href="common__cmd__packet_8h.html#ab4c0b1be76b7097e922a8a354f500b88" target="_top" xlink:title="EXEC_TYPE を設定">
<polygon fill="white" stroke="black" points="1079.5,-342.5 1079.5,-361.5 1190.5,-361.5 1190.5,-342.5 1079.5,-342.5"/>
<text text-anchor="middle" x="1135" y="-349.5" font-family="Helvetica,sans-Serif" font-size="10.00">CCP_set_exec_type</text>
</a>
</g>
</g>
<!-- Node28&#45;&gt;Node29 -->
<g id="edge33" class="edge">
<title>Node28&#45;&gt;Node29</title>
<path fill="none" stroke="midnightblue" d="M994.94,-323.59C1020.03,-328.72 1051.12,-335.07 1077.53,-340.46"/>
<polygon fill="midnightblue" stroke="midnightblue" points="1076.9,-343.91 1087.4,-342.48 1078.3,-337.05 1076.9,-343.91"/>
</g>
<!-- Node32 -->
<g id="node30" class="node">
<title>Node32</title>
<g id="a_node30"><a xlink:href="common__cmd__packet_8h.html#a1fde7575e47a25464d869a3247e1e087" target="_top" xlink:title="TI を設定">
<polygon fill="white" stroke="black" points="1101,-304.5 1101,-323.5 1169,-323.5 1169,-304.5 1101,-304.5"/>
<text text-anchor="middle" x="1135" y="-311.5" font-family="Helvetica,sans-Serif" font-size="10.00">CCP_set_ti</text>
</a>
</g>
</g>
<!-- Node28&#45;&gt;Node32 -->
<g id="edge36" class="edge">
<title>Node28&#45;&gt;Node32</title>
<path fill="none" stroke="midnightblue" d="M1011.23,-314C1037.47,-314 1067.24,-314 1090.89,-314"/>
<polygon fill="midnightblue" stroke="midnightblue" points="1090.96,-317.5 1100.96,-314 1090.96,-310.5 1090.96,-317.5"/>
</g>
<!-- Node30 -->
<g id="node28" class="node">
<title>Node30</title>
<g id="a_node28"><a xlink:href="cmd__space__packet_8c.html#a031c095293173f7bc0fa4a97852b7060" target="_top" xlink:title="Execution Type を設定">
<polygon fill="white" stroke="black" points="1265.5,-440.5 1265.5,-459.5 1375.5,-459.5 1375.5,-440.5 1265.5,-440.5"/>
<text text-anchor="middle" x="1320.5" y="-447.5" font-family="Helvetica,sans-Serif" font-size="10.00">CSP_set_exec_type</text>
</a>
</g>
</g>
<!-- Node29&#45;&gt;Node30 -->
<g id="edge34" class="edge">
<title>Node29&#45;&gt;Node30</title>
<path fill="none" stroke="midnightblue" d="M1153.93,-361.58C1186.27,-378.85 1254.53,-415.3 1292.53,-435.6"/>
<polygon fill="midnightblue" stroke="midnightblue" points="1291.03,-438.76 1301.5,-440.39 1294.33,-432.59 1291.03,-438.76"/>
</g>
<!-- Node31 -->
<g id="node29" class="node">
<title>Node31</title>
<g id="a_node29"><a xlink:href="space__packet_8c.html#a9d4e5051b01d74f88ee13ce05f61b392" target="_top" xlink:title="packet に param を格納">
<polygon fill="white" stroke="red" points="1608,-128 1608,-158 1721,-158 1721,-128 1608,-128"/>
<text text-anchor="start" x="1616" y="-146" font-family="Helvetica,sans-Serif" font-size="10.00">SP_insert_param_to</text>
<text text-anchor="middle" x="1664.5" y="-135" font-family="Helvetica,sans-Serif" font-size="10.00">_packet</text>
</a>
</g>
</g>
<!-- Node30&#45;&gt;Node31 -->
<g id="edge35" class="edge">
<title>Node30&#45;&gt;Node31</title>
<path fill="none" stroke="midnightblue" d="M1358.29,-459.59C1411.47,-471.09 1510.21,-483.3 1572,-435 1656.34,-369.07 1664.6,-226.01 1664.29,-168.09"/>
<polygon fill="midnightblue" stroke="midnightblue" points="1667.79,-167.95 1664.14,-158 1660.79,-168.05 1667.79,-167.95"/>
</g>
<!-- Node33 -->
<g id="node31" class="node">
<title>Node33</title>
<g id="a_node31"><a xlink:href="cmd__space__packet_8c.html#a3b7cf4c50d51882d730ad25b754259fd" target="_top" xlink:title="Time Indicator (TI) を設定">
<polygon fill="white" stroke="black" points="1286.5,-364.5 1286.5,-383.5 1354.5,-383.5 1354.5,-364.5 1286.5,-364.5"/>
<text text-anchor="middle" x="1320.5" y="-371.5" font-family="Helvetica,sans-Serif" font-size="10.00">CSP_set_ti</text>
</a>
</g>
</g>
<!-- Node32&#45;&gt;Node33 -->
<g id="edge37" class="edge">
<title>Node32&#45;&gt;Node33</title>
<path fill="none" stroke="midnightblue" d="M1169.28,-321.09C1183.22,-324.32 1199.51,-328.44 1214,-333 1239.24,-340.94 1267.12,-351.87 1287.88,-360.45"/>
<polygon fill="midnightblue" stroke="midnightblue" points="1286.59,-363.71 1297.17,-364.33 1289.29,-357.25 1286.59,-363.71"/>
</g>
<!-- Node33&#45;&gt;Node31 -->
<g id="edge38" class="edge">
<title>Node33&#45;&gt;Node31</title>
<path fill="none" stroke="midnightblue" d="M1338.32,-383.67C1381.6,-407.13 1498.54,-461.41 1572,-409 1651.03,-352.61 1662.5,-223.38 1663.67,-168.46"/>
<polygon fill="midnightblue" stroke="midnightblue" points="1667.18,-168.25 1663.79,-158.21 1660.18,-168.17 1667.18,-168.25"/>
</g>
<!-- Node35 -->
<g id="node33" class="node">
<title>Node35</title>
<g id="a_node33"><a xlink:href="common__cmd__packet__util_8c.html#af9f77cfe0b19d8078e79f1c32d9b2843" target="_top" xlink:title="Realtime command を生成">
<polygon fill="white" stroke="black" points="731,-198.5 731,-217.5 814,-217.5 814,-198.5 731,-198.5"/>
<text text-anchor="middle" x="772.5" y="-205.5" font-family="Helvetica,sans-Serif" font-size="10.00">CCP_form_rtc</text>
</a>
</g>
</g>
<!-- Node34&#45;&gt;Node35 -->
<g id="edge40" class="edge">
<title>Node34&#45;&gt;Node35</title>
<path fill="none" stroke="midnightblue" d="M671.15,-201.52C687.31,-201.13 704.92,-201.16 720.82,-201.62"/>
<polygon fill="midnightblue" stroke="midnightblue" points="720.86,-205.13 730.98,-201.99 721.11,-198.13 720.86,-205.13"/>
</g>
<!-- Node35&#45;&gt;Node2 -->
<g id="edge41" class="edge">
<title>Node35&#45;&gt;Node2</title>
<path fill="none" stroke="midnightblue" d="M804.44,-198.43C815.34,-194.57 827.48,-189.66 838,-184 871.62,-165.9 906.59,-138.48 927.31,-121.17"/>
<polygon fill="midnightblue" stroke="midnightblue" points="929.66,-123.77 935.03,-114.64 925.13,-118.42 929.66,-123.77"/>
</g>
<!-- Node35&#45;&gt;Node34 -->
<g id="edge42" class="edge">
<title>Node35&#45;&gt;Node34</title>
<path fill="none" stroke="midnightblue" d="M730.98,-214.01C715.85,-214.67 698.25,-214.88 681.47,-214.67"/>
<polygon fill="midnightblue" stroke="midnightblue" points="681.21,-211.17 671.15,-214.48 681.08,-218.16 681.21,-211.17"/>
</g>
<!-- Node35&#45;&gt;Node36 -->
<g id="edge43" class="edge">
<title>Node35&#45;&gt;Node36</title>
<path fill="none" stroke="midnightblue" d="M814.38,-215.82C837.76,-220.29 867.36,-225.96 892.56,-230.78"/>
<polygon fill="midnightblue" stroke="midnightblue" points="892.22,-234.28 902.7,-232.72 893.54,-227.4 892.22,-234.28"/>
</g>
<!-- Node36&#45;&gt;Node29 -->
<g id="edge59" class="edge">
<title>Node36&#45;&gt;Node29</title>
<path fill="none" stroke="midnightblue" d="M962.35,-250.68C977.29,-261.01 1001.1,-278.16 1020,-295 1037.37,-310.48 1035.88,-321.33 1056,-333 1060.22,-335.45 1064.75,-337.59 1069.42,-339.45"/>
<polygon fill="midnightblue" stroke="midnightblue" points="1068.56,-342.85 1079.16,-342.89 1070.9,-336.26 1068.56,-342.85"/>
</g>
<!-- Node36&#45;&gt;Node32 -->
<g id="edge65" class="edge">
<title>Node36&#45;&gt;Node32</title>
<path fill="none" stroke="midnightblue" d="M964.32,-250.62C985.03,-262.48 1022.15,-282.59 1056,-295 1067.13,-299.08 1079.48,-302.55 1091.01,-305.36"/>
<polygon fill="midnightblue" stroke="midnightblue" points="1090.34,-308.8 1100.87,-307.66 1091.93,-301.98 1090.34,-308.8"/>
</g>
<!-- Node37 -->
<g id="node35" class="node">
<title>Node37</title>
<g id="a_node35"><a xlink:href="common__cmd__packet_8h.html#a53e55e3275bb17840514876c95203402" target="_top" xlink:title="共通部分の Header を構築">
<polygon fill="white" stroke="black" points="1072.5,-228.5 1072.5,-247.5 1197.5,-247.5 1197.5,-228.5 1072.5,-228.5"/>
<text text-anchor="middle" x="1135" y="-235.5" font-family="Helvetica,sans-Serif" font-size="10.00">CCP_set_common_hdr</text>
</a>
</g>
</g>
<!-- Node36&#45;&gt;Node37 -->
<g id="edge44" class="edge">
<title>Node36&#45;&gt;Node37</title>
<path fill="none" stroke="midnightblue" d="M991.14,-240.3C1012.27,-239.96 1038.27,-239.54 1062.27,-239.16"/>
<polygon fill="midnightblue" stroke="midnightblue" points="1062.48,-242.65 1072.42,-238.99 1062.36,-235.66 1062.48,-242.65"/>
</g>
<!-- Node53 -->
<g id="node45" class="node">
<title>Node53</title>
<g id="a_node45"><a xlink:href="common__cmd__packet_8h.html#a6ce61d959627cd955de389b10cadca90" target="_top" xlink:title="DEST_TYPE を設定">
<polygon fill="white" stroke="black" points="1080,-152.5 1080,-171.5 1190,-171.5 1190,-152.5 1080,-152.5"/>
<text text-anchor="middle" x="1135" y="-159.5" font-family="Helvetica,sans-Serif" font-size="10.00">CCP_set_dest_type</text>
</a>
</g>
</g>
<!-- Node36&#45;&gt;Node53 -->
<g id="edge56" class="edge">
<title>Node36&#45;&gt;Node53</title>
<path fill="none" stroke="midnightblue" d="M962.41,-231.34C982.55,-218.22 1020.65,-194.84 1056,-181 1062.37,-178.51 1069.16,-176.27 1075.97,-174.29"/>
<polygon fill="midnightblue" stroke="midnightblue" points="1077.22,-177.58 1085.94,-171.56 1075.37,-170.83 1077.22,-177.58"/>
</g>
<!-- Node55 -->
<g id="node47" class="node">
<title>Node55</title>
<g id="a_node47"><a xlink:href="common__cmd__packet_8h.html#ad3a6d476c3b56794c35a15e3a1d0a395" target="_top" xlink:title="CMD ID を設定">
<polygon fill="white" stroke="black" points="1099.5,-190.5 1099.5,-209.5 1170.5,-209.5 1170.5,-190.5 1099.5,-190.5"/>
<text text-anchor="middle" x="1135" y="-197.5" font-family="Helvetica,sans-Serif" font-size="10.00">CCP_set_id</text>
</a>
</g>
</g>
<!-- Node36&#45;&gt;Node55 -->
<g id="edge60" class="edge">
<title>Node36&#45;&gt;Node55</title>
<path fill="none" stroke="midnightblue" d="M991.14,-231.49C1020.61,-224.99 1059.57,-216.41 1089.35,-209.84"/>
<polygon fill="midnightblue" stroke="midnightblue" points="1090.47,-213.18 1099.48,-207.61 1088.96,-206.34 1090.47,-213.18"/>
</g>
<!-- Node57 -->
<g id="node49" class="node">
<title>Node57</title>
<g id="a_node49"><a xlink:href="common__cmd__packet_8h.html#a07200400c567d95965dda94da0f55b67" target="_top" xlink:title="パラメタを設定">
<polygon fill="white" stroke="black" points="1088.5,-266.5 1088.5,-285.5 1181.5,-285.5 1181.5,-266.5 1088.5,-266.5"/>
<text text-anchor="middle" x="1135" y="-273.5" font-family="Helvetica,sans-Serif" font-size="10.00">CCP_set_param</text>
</a>
</g>
</g>
<!-- Node36&#45;&gt;Node57 -->
<g id="edge63" class="edge">
<title>Node36&#45;&gt;Node57</title>
<path fill="none" stroke="midnightblue" d="M991.14,-249.12C1017.14,-254.01 1050.52,-260.29 1078.47,-265.55"/>
<polygon fill="midnightblue" stroke="midnightblue" points="1078.02,-269.03 1088.5,-267.44 1079.32,-262.15 1078.02,-269.03"/>
</g>
<!-- Node38 -->
<g id="node36" class="node">
<title>Node38</title>
<g id="a_node36"><a xlink:href="cmd__space__packet_8c.html#aa4f250d0b768ce918101f7959940b9da" target="_top" xlink:title="共通部分の Header を構築">
<polygon fill="white" stroke="black" points="1258,-228.5 1258,-247.5 1383,-247.5 1383,-228.5 1258,-228.5"/>
<text text-anchor="middle" x="1320.5" y="-235.5" font-family="Helvetica,sans-Serif" font-size="10.00">CSP_set_common_hdr</text>
</a>
</g>
</g>
<!-- Node37&#45;&gt;Node38 -->
<g id="edge45" class="edge">
<title>Node37&#45;&gt;Node38</title>
<path fill="none" stroke="midnightblue" d="M1197.61,-238C1213.65,-238 1231.07,-238 1247.59,-238"/>
<polygon fill="midnightblue" stroke="midnightblue" points="1247.74,-241.5 1257.74,-238 1247.74,-234.5 1247.74,-241.5"/>
</g>
<!-- Node39 -->
<g id="node37" class="node">
<title>Node39</title>
<g id="a_node37"><a xlink:href="cmd__space__packet_8c.html#a33b732036a8d1c3a212769b1c18e280f" target="_top" xlink:title="Secondary Header Flag を設定">
<polygon fill="white" stroke="red" points="1438,-266.5 1438,-285.5 1561,-285.5 1561,-266.5 1438,-266.5"/>
<text text-anchor="middle" x="1499.5" y="-273.5" font-family="Helvetica,sans-Serif" font-size="10.00">CSP_set_2nd_hdr_flag</text>
</a>
</g>
</g>
<!-- Node38&#45;&gt;Node39 -->
<g id="edge46" class="edge">
<title>Node38&#45;&gt;Node39</title>
<path fill="none" stroke="midnightblue" d="M1366.16,-247.59C1389.84,-252.67 1419.11,-258.96 1444.1,-264.32"/>
<polygon fill="midnightblue" stroke="midnightblue" points="1443.64,-267.8 1454.16,-266.48 1445.11,-260.96 1443.64,-267.8"/>
</g>
<!-- Node41 -->
<g id="node38" class="node">
<title>Node41</title>
<g id="a_node38"><a xlink:href="cmd__space__packet_8c.html#ac5e8d588a3737dc6c6d65defd0ef04bd" target="_top" xlink:title="Secondary Header Version No を設定">
<polygon fill="white" stroke="black" points="1439,-114.5 1439,-133.5 1560,-133.5 1560,-114.5 1439,-114.5"/>
<text text-anchor="middle" x="1499.5" y="-121.5" font-family="Helvetica,sans-Serif" font-size="10.00">CSP_set_2nd_hdr_ver</text>
</a>
</g>
</g>
<!-- Node38&#45;&gt;Node41 -->
<g id="edge47" class="edge">
<title>Node38&#45;&gt;Node41</title>
<path fill="none" stroke="midnightblue" d="M1358.47,-228.49C1369.85,-224.23 1381.79,-218.24 1391,-210 1416.18,-187.45 1400.48,-163.96 1427,-143 1429.31,-141.17 1431.79,-139.52 1434.38,-138.02"/>
<polygon fill="midnightblue" stroke="midnightblue" points="1436.11,-141.07 1443.54,-133.52 1433.02,-134.79 1436.11,-141.07"/>
</g>
<!-- Node42 -->
<g id="node39" class="node">
<title>Node42</title>
<g id="a_node39"><a xlink:href="cmd__space__packet_8c.html#ae4cd4ddfdcc558b8c205240147b6f4af" target="_top" xlink:title="APID を設定">
<polygon fill="white" stroke="red" points="1458.5,-228.5 1458.5,-247.5 1540.5,-247.5 1540.5,-228.5 1458.5,-228.5"/>
<text text-anchor="middle" x="1499.5" y="-235.5" font-family="Helvetica,sans-Serif" font-size="10.00">CSP_set_apid</text>
</a>
</g>
</g>
<!-- Node38&#45;&gt;Node42 -->
<g id="edge49" class="edge">
<title>Node38&#45;&gt;Node42</title>
<path fill="none" stroke="midnightblue" d="M1383.41,-238C1404.54,-238 1427.91,-238 1448.04,-238"/>
<polygon fill="midnightblue" stroke="midnightblue" points="1448.24,-241.5 1458.24,-238 1448.24,-234.5 1448.24,-241.5"/>
</g>
<!-- Node44 -->
<g id="node40" class="node">
<title>Node44</title>
<g id="a_node40"><a xlink:href="cmd__space__packet_8c.html#aff5958581af82bafc57755aca719dfb0" target="_top" xlink:title="Command Type を設定">
<polygon fill="white" stroke="black" points="1445,-152.5 1445,-171.5 1554,-171.5 1554,-152.5 1445,-152.5"/>
<text text-anchor="middle" x="1499.5" y="-159.5" font-family="Helvetica,sans-Serif" font-size="10.00">CSP_set_cmd_type</text>
</a>
</g>
</g>
<!-- Node38&#45;&gt;Node44 -->
<g id="edge50" class="edge">
<title>Node38&#45;&gt;Node44</title>
<path fill="none" stroke="midnightblue" d="M1350.8,-228.39C1363.56,-223.65 1378.43,-217.37 1391,-210 1408.72,-199.6 1408.67,-190.29 1427,-181 1431.61,-178.67 1436.53,-176.6 1441.56,-174.76"/>
<polygon fill="midnightblue" stroke="midnightblue" points="1442.91,-178 1451.3,-171.53 1440.71,-171.36 1442.91,-178"/>
</g>
<!-- Node45 -->
<g id="node41" class="node">
<title>Node45</title>
<g id="a_node41"><a xlink:href="cmd__space__packet_8c.html#ad7ef5d2e5412c86b9782acb544bd5078" target="_top" xlink:title="Sequence Count を設定">
<polygon fill="white" stroke="red" points="1444.5,-190.5 1444.5,-209.5 1554.5,-209.5 1554.5,-190.5 1444.5,-190.5"/>
<text text-anchor="middle" x="1499.5" y="-197.5" font-family="Helvetica,sans-Serif" font-size="10.00">CSP_set_seq_count</text>
</a>
</g>
</g>
<!-- Node38&#45;&gt;Node45 -->
<g id="edge52" class="edge">
<title>Node38&#45;&gt;Node45</title>
<path fill="none" stroke="midnightblue" d="M1366.16,-228.41C1389.84,-223.33 1419.11,-217.04 1444.1,-211.68"/>
<polygon fill="midnightblue" stroke="midnightblue" points="1445.11,-215.04 1454.16,-209.52 1443.64,-208.2 1445.11,-215.04"/>
</g>
<!-- Node47 -->
<g id="node42" class="node">
<title>Node47</title>
<g id="a_node42"><a xlink:href="cmd__space__packet_8c.html#a6b0b87dd65e759d3e3832e403ea6ed54" target="_top" xlink:title="Sequence Flag を設定">
<polygon fill="white" stroke="red" points="1449,-380.5 1449,-399.5 1550,-399.5 1550,-380.5 1449,-380.5"/>
<text text-anchor="middle" x="1499.5" y="-387.5" font-family="Helvetica,sans-Serif" font-size="10.00">CSP_set_seq_flag</text>
</a>
</g>
</g>
<!-- Node38&#45;&gt;Node47 -->
<g id="edge53" class="edge">
<title>Node38&#45;&gt;Node47</title>
<path fill="none" stroke="midnightblue" d="M1377.38,-247.66C1382.38,-250.12 1387.03,-253.18 1391,-257 1429.3,-293.83 1388.57,-334.31 1427,-371 1430.74,-374.57 1435.06,-377.48 1439.7,-379.86"/>
<polygon fill="midnightblue" stroke="midnightblue" points="1438.37,-383.1 1448.94,-383.81 1441.12,-376.66 1438.37,-383.1"/>
</g>
<!-- Node49 -->
<g id="node43" class="node">
<title>Node49</title>
<g id="a_node43"><a xlink:href="cmd__space__packet_8c.html#a5188604c87906538891ce687cecbb0d7" target="_top" xlink:title="Packet Type を設定">
<polygon fill="white" stroke="red" points="1458,-342.5 1458,-361.5 1541,-361.5 1541,-342.5 1458,-342.5"/>
<text text-anchor="middle" x="1499.5" y="-349.5" font-family="Helvetica,sans-Serif" font-size="10.00">CSP_set_type</text>
</a>
</g>
</g>
<!-- Node38&#45;&gt;Node49 -->
<g id="edge54" class="edge">
<title>Node38&#45;&gt;Node49</title>
<path fill="none" stroke="midnightblue" d="M1375.47,-247.61C1381.08,-250.06 1386.4,-253.14 1391,-257 1419.64,-281.01 1398.27,-309.09 1427,-333 1433.11,-338.08 1440.44,-341.82 1448.05,-344.56"/>
<polygon fill="midnightblue" stroke="midnightblue" points="1447.18,-347.96 1457.76,-347.53 1449.22,-341.26 1447.18,-347.96"/>
</g>
<!-- Node51 -->
<g id="node44" class="node">
<title>Node51</title>
<g id="a_node44"><a xlink:href="cmd__space__packet_8c.html#a25773dc83ed038765c53de8ac56677b5" target="_top" xlink:title="Version No を設定">
<polygon fill="white" stroke="red" points="1461,-304.5 1461,-323.5 1538,-323.5 1538,-304.5 1461,-304.5"/>
<text text-anchor="middle" x="1499.5" y="-311.5" font-family="Helvetica,sans-Serif" font-size="10.00">CSP_set_ver</text>
</a>
</g>
</g>
<!-- Node38&#45;&gt;Node51 -->
<g id="edge55" class="edge">
<title>Node38&#45;&gt;Node51</title>
<path fill="none" stroke="midnightblue" d="M1370.01,-247.58C1377.32,-250.05 1384.56,-253.14 1391,-257 1410.96,-268.95 1407,-283.12 1427,-295 1434.38,-299.39 1442.78,-302.78 1451.17,-305.39"/>
<polygon fill="midnightblue" stroke="midnightblue" points="1450.37,-308.8 1460.94,-308.12 1452.25,-302.06 1450.37,-308.8"/>
</g>
<!-- Node41&#45;&gt;Node31 -->
<g id="edge48" class="edge">
<title>Node41&#45;&gt;Node31</title>
<path fill="none" stroke="midnightblue" d="M1560.27,-130.97C1572.41,-132.38 1585.24,-133.88 1597.58,-135.32"/>
<polygon fill="midnightblue" stroke="midnightblue" points="1597.46,-138.83 1607.8,-136.51 1598.27,-131.87 1597.46,-138.83"/>
</g>
<!-- Node44&#45;&gt;Node31 -->
<g id="edge51" class="edge">
<title>Node44&#45;&gt;Node31</title>
<path fill="none" stroke="midnightblue" d="M1554.32,-155.73C1568.13,-154.12 1583.14,-152.37 1597.48,-150.7"/>
<polygon fill="midnightblue" stroke="midnightblue" points="1598.25,-154.13 1607.78,-149.5 1597.44,-147.18 1598.25,-154.13"/>
</g>
<!-- Node54 -->
<g id="node46" class="node">
<title>Node54</title>
<g id="a_node46"><a xlink:href="cmd__space__packet_8c.html#a4083ff1a9dbe5894cfacf756d02a50a4" target="_top" xlink:title="Destination Type を設定">
<polygon fill="white" stroke="black" points="1266,-124.5 1266,-143.5 1375,-143.5 1375,-124.5 1266,-124.5"/>
<text text-anchor="middle" x="1320.5" y="-131.5" font-family="Helvetica,sans-Serif" font-size="10.00">CSP_set_dest_type</text>
</a>
</g>
</g>
<!-- Node53&#45;&gt;Node54 -->
<g id="edge57" class="edge">
<title>Node53&#45;&gt;Node54</title>
<path fill="none" stroke="midnightblue" d="M1190.06,-153.75C1210.69,-150.6 1234.39,-146.99 1255.83,-143.72"/>
<polygon fill="midnightblue" stroke="midnightblue" points="1256.47,-147.16 1265.82,-142.19 1255.41,-140.24 1256.47,-147.16"/>
</g>
<!-- Node54&#45;&gt;Node31 -->
<g id="edge58" class="edge">
<title>Node54&#45;&gt;Node31</title>
<path fill="none" stroke="midnightblue" d="M1344.03,-124.4C1357.95,-118.13 1375.96,-109.39 1391,-100 1408.2,-89.27 1407.83,-78.58 1427,-72 1487.96,-51.09 1511.03,-51.12 1572,-72 1599.88,-81.55 1625.82,-103.43 1642.91,-120.4"/>
<polygon fill="midnightblue" stroke="midnightblue" points="1640.63,-123.07 1650.12,-127.79 1645.64,-118.18 1640.63,-123.07"/>
</g>
<!-- Node56 -->
<g id="node48" class="node">
<title>Node56</title>
<g id="a_node48"><a xlink:href="cmd__space__packet_8c.html#a80ab9fe9f6561b18ef7b5a11ea0005b4" target="_top" xlink:title="Command ID を設定">
<polygon fill="white" stroke="black" points="1272.5,-181.5 1272.5,-200.5 1368.5,-200.5 1368.5,-181.5 1272.5,-181.5"/>
<text text-anchor="middle" x="1320.5" y="-188.5" font-family="Helvetica,sans-Serif" font-size="10.00">CSP_set_cmd_id</text>
</a>
</g>
</g>
<!-- Node55&#45;&gt;Node56 -->
<g id="edge61" class="edge">
<title>Node55&#45;&gt;Node56</title>
<path fill="none" stroke="midnightblue" d="M1170.51,-198.31C1196.24,-197.05 1231.96,-195.29 1261.97,-193.82"/>
<polygon fill="midnightblue" stroke="midnightblue" points="1262.51,-197.3 1272.33,-193.31 1262.17,-190.31 1262.51,-197.3"/>
</g>
<!-- Node56&#45;&gt;Node31 -->
<g id="edge62" class="edge">
<title>Node56&#45;&gt;Node31</title>
<path fill="none" stroke="midnightblue" d="M1344.64,-181.41C1358.96,-174.76 1377.18,-164.97 1391,-153 1411.16,-135.54 1403.15,-116.93 1427,-105 1491.51,-72.74 1577.16,-101.64 1625.7,-123.63"/>
<polygon fill="midnightblue" stroke="midnightblue" points="1624.35,-126.86 1634.89,-127.91 1627.31,-120.52 1624.35,-126.86"/>
</g>
<!-- Node58 -->
<g id="node50" class="node">
<title>Node58</title>
<g id="a_node50"><a xlink:href="cmd__space__packet_8c.html#aebe0c42d5d5b6443c55709890b6ad093" target="_top" xlink:title="コマンドパラメタを設定">
<polygon fill="white" stroke="red" points="1274.5,-266.5 1274.5,-285.5 1366.5,-285.5 1366.5,-266.5 1274.5,-266.5"/>
<text text-anchor="middle" x="1320.5" y="-273.5" font-family="Helvetica,sans-Serif" font-size="10.00">CSP_set_param</text>
</a>
</g>
</g>
<!-- Node57&#45;&gt;Node58 -->
<g id="edge64" class="edge">
<title>Node57&#45;&gt;Node58</title>
<path fill="none" stroke="midnightblue" d="M1181.83,-276C1206.76,-276 1237.78,-276 1264.06,-276"/>
<polygon fill="midnightblue" stroke="midnightblue" points="1264.25,-279.5 1274.25,-276 1264.25,-272.5 1264.25,-279.5"/>
</g>
</g>
</svg>
