<?xml version="1.0" encoding="UTF-8" standalone="no"?>
<!DOCTYPE svg PUBLIC "-//W3C//DTD SVG 1.1//EN"
 "http://www.w3.org/Graphics/SVG/1.1/DTD/svg11.dtd">
<!-- Generated by graphviz version 2.43.0 (0)
 -->
<!-- Title: TLM_MGR_get_next_register_cmd_pos_ Pages: 1 -->
<svg width="1129pt" height="235pt"
 viewBox="0.00 0.00 1129.00 235.00" xmlns="http://www.w3.org/2000/svg" xmlns:xlink="http://www.w3.org/1999/xlink">
<g id="graph0" class="graph" transform="scale(1 1) rotate(0) translate(4 231)">
<title>TLM_MGR_get_next_register_cmd_pos_</title>
<polygon fill="white" stroke="transparent" points="-4,4 -4,-231 1125,-231 1125,4 -4,4"/>
<!-- Node1 -->
<g id="node1" class="node">
<title>Node1</title>
<g id="a_node1"><a xlink:title="次に TLM MGR に登録するコマンドの BCT_Pos と TLM_MGR_CmdElem を取得する">
<polygon fill="#bfbfbf" stroke="black" points="965,-98.5 965,-128.5 1121,-128.5 1121,-98.5 965,-98.5"/>
<text text-anchor="start" x="973" y="-116.5" font-family="Helvetica,sans-Serif" font-size="10.00">TLM_MGR_get_next_register</text>
<text text-anchor="middle" x="1043" y="-105.5" font-family="Helvetica,sans-Serif" font-size="10.00">_cmd_pos_</text>
</a>
</g>
</g>
<!-- Node2 -->
<g id="node2" class="node">
<title>Node2</title>
<g id="a_node2"><a xlink:href="telemetry__manager_8c.html#a7d71192aa27a4b4852746a7fa74d0649" target="_top" xlink:title="テレメ生成などのコマンドを TLM MGR に登録する">
<polygon fill="white" stroke="black" points="816,-104 816,-123 929,-123 929,-104 816,-104"/>
<text text-anchor="middle" x="872.5" y="-111" font-family="Helvetica,sans-Serif" font-size="10.00">TLM_MGR_register_</text>
</a>
</g>
</g>
<!-- Node1&#45;&gt;Node2 -->
<g id="edge1" class="edge">
<title>Node1&#45;&gt;Node2</title>
<path fill="none" stroke="midnightblue" d="M954.56,-113.5C945.96,-113.5 937.4,-113.5 929.25,-113.5"/>
<polygon fill="midnightblue" stroke="midnightblue" points="954.65,-117 964.65,-113.5 954.65,-110 954.65,-117"/>
</g>
<!-- Node3 -->
<g id="node3" class="node">
<title>Node3</title>
<g id="a_node3"><a xlink:href="telemetry__manager_8c.html#ab833ad0e89e4ed240426ee6a83e6ea3f" target="_top" xlink:title=" ">
<polygon fill="white" stroke="black" points="634,-196.5 634,-226.5 780,-226.5 780,-196.5 634,-196.5"/>
<text text-anchor="start" x="642" y="-214.5" font-family="Helvetica,sans-Serif" font-size="10.00">Cmd_TLM_MGR_REGISTER</text>
<text text-anchor="middle" x="707" y="-203.5" font-family="Helvetica,sans-Serif" font-size="10.00">_FORWARD_AS_RT_TLM</text>
</a>
</g>
</g>
<!-- Node2&#45;&gt;Node3 -->
<g id="edge2" class="edge">
<title>Node2&#45;&gt;Node3</title>
<path fill="none" stroke="midnightblue" d="M854.03,-130.88C836.58,-147.4 808.34,-171.99 780,-187.5 773.87,-190.85 767.2,-193.85 760.46,-196.49"/>
<polygon fill="midnightblue" stroke="midnightblue" points="856.92,-132.95 861.68,-123.48 852.06,-127.91 856.92,-132.95"/>
</g>
<!-- Node10 -->
<g id="node10" class="node">
<title>Node10</title>
<g id="a_node10"><a xlink:href="telemetry__manager_8c.html#ac1d02dfc61b6fc1d5f86c4613cf349dd" target="_top" xlink:title=" ">
<polygon fill="white" stroke="black" points="634,-147.5 634,-177.5 780,-177.5 780,-147.5 634,-147.5"/>
<text text-anchor="start" x="642" y="-165.5" font-family="Helvetica,sans-Serif" font-size="10.00">Cmd_TLM_MGR_REGISTER</text>
<text text-anchor="middle" x="707" y="-154.5" font-family="Helvetica,sans-Serif" font-size="10.00">_FORWARD_AS_ST_TLM</text>
</a>
</g>
</g>
<!-- Node2&#45;&gt;Node10 -->
<g id="edge10" class="edge">
<title>Node2&#45;&gt;Node10</title>
<path fill="none" stroke="midnightblue" d="M829.94,-125.95C808.1,-132.5 781.17,-140.57 758.17,-147.46"/>
<polygon fill="midnightblue" stroke="midnightblue" points="831.01,-129.29 839.59,-123.06 829,-122.58 831.01,-129.29"/>
</g>
<!-- Node11 -->
<g id="node11" class="node">
<title>Node11</title>
<g id="a_node11"><a xlink:href="telemetry__manager_8c.html#adde40561aa41bf8814c453ccb0121e8e" target="_top" xlink:title=" ">
<polygon fill="white" stroke="black" points="634,-98.5 634,-128.5 780,-128.5 780,-98.5 634,-98.5"/>
<text text-anchor="start" x="642" y="-116.5" font-family="Helvetica,sans-Serif" font-size="10.00">Cmd_TLM_MGR_REGISTER</text>
<text text-anchor="middle" x="707" y="-105.5" font-family="Helvetica,sans-Serif" font-size="10.00">_GENERATE_RT_TLM</text>
</a>
</g>
</g>
<!-- Node2&#45;&gt;Node11 -->
<g id="edge12" class="edge">
<title>Node2&#45;&gt;Node11</title>
<path fill="none" stroke="midnightblue" d="M805.58,-113.5C797.17,-113.5 788.53,-113.5 780.04,-113.5"/>
<polygon fill="midnightblue" stroke="midnightblue" points="805.69,-117 815.69,-113.5 805.69,-110 805.69,-117"/>
</g>
<!-- Node12 -->
<g id="node12" class="node">
<title>Node12</title>
<g id="a_node12"><a xlink:href="telemetry__manager_8c.html#ad699f30afb4ed6b0f9833721bb26596f" target="_top" xlink:title=" ">
<polygon fill="white" stroke="black" points="634,-49.5 634,-79.5 780,-79.5 780,-49.5 634,-49.5"/>
<text text-anchor="start" x="642" y="-67.5" font-family="Helvetica,sans-Serif" font-size="10.00">Cmd_TLM_MGR_REGISTER</text>
<text text-anchor="middle" x="707" y="-56.5" font-family="Helvetica,sans-Serif" font-size="10.00">_GENERATE_ST_TLM</text>
</a>
</g>
</g>
<!-- Node2&#45;&gt;Node12 -->
<g id="edge14" class="edge">
<title>Node2&#45;&gt;Node12</title>
<path fill="none" stroke="midnightblue" d="M829.94,-101.05C808.1,-94.5 781.17,-86.43 758.17,-79.54"/>
<polygon fill="midnightblue" stroke="midnightblue" points="829,-104.42 839.59,-103.94 831.01,-97.71 829,-104.42"/>
</g>
<!-- Node13 -->
<g id="node13" class="node">
<title>Node13</title>
<g id="a_node13"><a xlink:href="telemetry__manager_8c.html#aff849e4ccb83c9d6ed3b361c48e12e7d" target="_top" xlink:title=" ">
<polygon fill="white" stroke="black" points="634,-0.5 634,-30.5 780,-30.5 780,-0.5 634,-0.5"/>
<text text-anchor="start" x="642" y="-18.5" font-family="Helvetica,sans-Serif" font-size="10.00">Cmd_TLM_MGR_REGISTER</text>
<text text-anchor="middle" x="707" y="-7.5" font-family="Helvetica,sans-Serif" font-size="10.00">_REPLAY_TLM</text>
</a>
</g>
</g>
<!-- Node2&#45;&gt;Node13 -->
<g id="edge16" class="edge">
<title>Node2&#45;&gt;Node13</title>
<path fill="none" stroke="midnightblue" d="M854.23,-96.71C836.73,-80.48 808.29,-56.1 780,-40.5 773.28,-36.8 765.91,-33.49 758.53,-30.58"/>
<polygon fill="midnightblue" stroke="midnightblue" points="852.22,-99.63 861.89,-103.96 857.03,-94.54 852.22,-99.63"/>
</g>
<!-- Node4 -->
<g id="node4" class="node">
<title>Node4</title>
<g id="a_node4"><a xlink:href="command__analyze_8h.html#aa375895192b16d8e7f0ff4545b54e6c4" target="_top" xlink:title="Cmd Tableのロード">
<polygon fill="white" stroke="black" points="485,-104 485,-123 598,-123 598,-104 485,-104"/>
<text text-anchor="middle" x="541.5" y="-111" font-family="Helvetica,sans-Serif" font-size="10.00">CA_load_cmd_table</text>
</a>
</g>
</g>
<!-- Node3&#45;&gt;Node4 -->
<g id="edge3" class="edge">
<title>Node3&#45;&gt;Node4</title>
<path fill="none" stroke="midnightblue" d="M644.15,-192.54C640.66,-190.96 637.25,-189.28 634,-187.5 601.03,-169.45 568.18,-139.12 552.32,-123.48"/>
<polygon fill="midnightblue" stroke="midnightblue" points="642.96,-195.84 653.54,-196.49 645.67,-189.38 642.96,-195.84"/>
</g>
<!-- Node5 -->
<g id="node5" class="node">
<title>Node5</title>
<g id="a_node5"><a xlink:href="command__analyze_8c.html#ae6d1f376bf4e1c9c4b63bc3f04924c8a" target="_top" xlink:title="CA の初期化">
<polygon fill="white" stroke="black" points="372,-123 372,-142 449,-142 449,-123 372,-123"/>
<text text-anchor="middle" x="410.5" y="-130" font-family="Helvetica,sans-Serif" font-size="10.00">CA_initialize</text>
</a>
</g>
</g>
<!-- Node4&#45;&gt;Node5 -->
<g id="edge4" class="edge">
<title>Node4&#45;&gt;Node5</title>
<path fill="none" stroke="midnightblue" d="M474.5,-123.22C465.82,-124.5 457.17,-125.77 449.19,-126.95"/>
<polygon fill="midnightblue" stroke="midnightblue" points="475.29,-126.64 484.67,-121.72 474.27,-119.72 475.29,-126.64"/>
</g>
<!-- Node6 -->
<g id="node6" class="node">
<title>Node6</title>
<g id="a_node6"><a xlink:href="c2a__core__main_8c.html#a65ecdc63d8762ffde4db7f6c6e6f07cf" target="_top" xlink:title=" ">
<polygon fill="white" stroke="black" points="253,-123 253,-142 336,-142 336,-123 253,-123"/>
<text text-anchor="middle" x="294.5" y="-130" font-family="Helvetica,sans-Serif" font-size="10.00">C2A_core_init</text>
</a>
</g>
</g>
<!-- Node5&#45;&gt;Node6 -->
<g id="edge5" class="edge">
<title>Node5&#45;&gt;Node6</title>
<path fill="none" stroke="midnightblue" d="M361.72,-132.5C353.25,-132.5 344.5,-132.5 336.24,-132.5"/>
<polygon fill="midnightblue" stroke="midnightblue" points="361.86,-136 371.86,-132.5 361.86,-129 361.86,-136"/>
</g>
<!-- Node9 -->
<g id="node9" class="node">
<title>Node9</title>
<g id="a_node9"><a xlink:href="command__analyze_8c.html#a85d8daea84970ad2895a0209bd350b7b" target="_top" xlink:title=" ">
<polygon fill="white" stroke="black" points="253,-85 253,-104 336,-104 336,-85 253,-85"/>
<text text-anchor="middle" x="294.5" y="-92" font-family="Helvetica,sans-Serif" font-size="10.00">Cmd_CA_INIT</text>
</a>
</g>
</g>
<!-- Node5&#45;&gt;Node9 -->
<g id="edge8" class="edge">
<title>Node5&#45;&gt;Node9</title>
<path fill="none" stroke="midnightblue" d="M371.02,-119.67C355.73,-114.58 338.43,-108.81 324.26,-104.09"/>
<polygon fill="midnightblue" stroke="midnightblue" points="370.14,-123.07 380.73,-122.91 372.35,-116.43 370.14,-123.07"/>
</g>
<!-- Node7 -->
<g id="node7" class="node">
<title>Node7</title>
<g id="a_node7"><a xlink:href="c2a__main_8c.html#a630222a80cd8bffd4426d4a55a215069" target="_top" xlink:title=" ">
<polygon fill="white" stroke="black" points="155,-123 155,-142 217,-142 217,-123 155,-123"/>
<text text-anchor="middle" x="186" y="-130" font-family="Helvetica,sans-Serif" font-size="10.00">C2A_init_</text>
</a>
</g>
</g>
<!-- Node6&#45;&gt;Node7 -->
<g id="edge6" class="edge">
<title>Node6&#45;&gt;Node7</title>
<path fill="none" stroke="midnightblue" d="M242.76,-132.5C234.01,-132.5 225.17,-132.5 217.18,-132.5"/>
<polygon fill="midnightblue" stroke="midnightblue" points="242.93,-136 252.93,-132.5 242.93,-129 242.93,-136"/>
</g>
<!-- Node8 -->
<g id="node8" class="node">
<title>Node8</title>
<g id="a_node8"><a xlink:href="c2a__main_8c.html#ac3344a311adda8f9e7310924bedf81fc" target="_top" xlink:title=" ">
<polygon fill="white" stroke="black" points="0,-123 0,-142 119,-142 119,-123 0,-123"/>
<text text-anchor="middle" x="59.5" y="-130" font-family="Helvetica,sans-Serif" font-size="10.00">address_fixed_main_</text>
</a>
</g>
</g>
<!-- Node7&#45;&gt;Node8 -->
<g id="edge7" class="edge">
<title>Node7&#45;&gt;Node8</title>
<path fill="none" stroke="midnightblue" d="M144.83,-132.5C136.62,-132.5 127.82,-132.5 119.12,-132.5"/>
<polygon fill="midnightblue" stroke="midnightblue" points="144.86,-136 154.86,-132.5 144.86,-129 144.86,-136"/>
</g>
<!-- Node9&#45;&gt;Node4 -->
<g id="edge9" class="edge">
<title>Node9&#45;&gt;Node4</title>
<path fill="none" stroke="midnightblue" d="M346.54,-98.46C386.96,-101.59 443.35,-105.97 484.91,-109.19"/>
<polygon fill="midnightblue" stroke="midnightblue" points="346.61,-94.95 336.37,-97.67 346.07,-101.93 346.61,-94.95"/>
</g>
<!-- Node10&#45;&gt;Node4 -->
<g id="edge11" class="edge">
<title>Node10&#45;&gt;Node4</title>
<path fill="none" stroke="midnightblue" d="M645.8,-144.46C621.62,-137.21 594.73,-129.15 574.45,-123.08"/>
<polygon fill="midnightblue" stroke="midnightblue" points="645.03,-147.88 655.61,-147.4 647.04,-141.18 645.03,-147.88"/>
</g>
<!-- Node11&#45;&gt;Node4 -->
<g id="edge13" class="edge">
<title>Node11&#45;&gt;Node4</title>
<path fill="none" stroke="midnightblue" d="M623.66,-113.5C615,-113.5 606.35,-113.5 598.1,-113.5"/>
<polygon fill="midnightblue" stroke="midnightblue" points="623.81,-117 633.81,-113.5 623.81,-110 623.81,-117"/>
</g>
<!-- Node12&#45;&gt;Node4 -->
<g id="edge15" class="edge">
<title>Node12&#45;&gt;Node4</title>
<path fill="none" stroke="midnightblue" d="M645.8,-82.54C621.62,-89.79 594.73,-97.85 574.45,-103.92"/>
<polygon fill="midnightblue" stroke="midnightblue" points="647.04,-85.82 655.61,-79.6 645.03,-79.12 647.04,-85.82"/>
</g>
<!-- Node13&#45;&gt;Node4 -->
<g id="edge17" class="edge">
<title>Node13&#45;&gt;Node4</title>
<path fill="none" stroke="midnightblue" d="M646.19,-34.47C641.99,-36.35 637.89,-38.36 634,-40.5 601.08,-58.65 567.95,-88.69 552.11,-103.96"/>
<polygon fill="midnightblue" stroke="midnightblue" points="647.6,-37.67 655.47,-30.58 644.9,-31.22 647.6,-37.67"/>
</g>
</g>
</svg>
