<?xml version="1.0" encoding="UTF-8" standalone="no"?>
<!DOCTYPE svg PUBLIC "-//W3C//DTD SVG 1.1//EN"
 "http://www.w3.org/Graphics/SVG/1.1/DTD/svg11.dtd">
<!-- Generated by graphviz version 2.43.0 (0)
 -->
<!-- Title: TLM_MGR_init_3_ Pages: 1 -->
<svg width="2186pt" height="578pt"
 viewBox="0.00 0.00 2186.00 578.17" xmlns="http://www.w3.org/2000/svg" xmlns:xlink="http://www.w3.org/1999/xlink">
<g id="graph0" class="graph" transform="scale(1 1) rotate(0) translate(4 574.17)">
<title>TLM_MGR_init_3_</title>
<polygon fill="white" stroke="transparent" points="-4,4 -4,-574.17 2182,-574.17 2182,4 -4,4"/>
<!-- Node1 -->
<g id="node1" class="node">
<title>Node1</title>
<g id="a_node1"><a xlink:title=" ">
<polygon fill="#bfbfbf" stroke="black" points="0,-227.67 0,-246.67 103,-246.67 103,-227.67 0,-227.67"/>
<text text-anchor="middle" x="51.5" y="-234.67" font-family="Helvetica,sans-Serif" font-size="10.00">TLM_MGR_init_3_</text>
</a>
</g>
</g>
<!-- Node2 -->
<g id="node2" class="node">
<title>Node2</title>
<g id="a_node2"><a xlink:href="telemetry__manager_8c.html#a0b48756e83b551349cf04c30585b1cbf" target="_top" xlink:title="すべてのBCを NOP x TLM_MGR_MAX_TLM_NUM_PER_BC で埋める">
<polygon fill="white" stroke="black" points="139,-222.17 139,-252.17 265,-252.17 265,-222.17 139,-222.17"/>
<text text-anchor="start" x="147" y="-240.17" font-family="Helvetica,sans-Serif" font-size="10.00">TLM_MGR_clear_bc_to</text>
<text text-anchor="middle" x="202" y="-229.17" font-family="Helvetica,sans-Serif" font-size="10.00">_nop_all_</text>
</a>
</g>
</g>
<!-- Node1&#45;&gt;Node2 -->
<g id="edge1" class="edge">
<title>Node1&#45;&gt;Node2</title>
<path fill="none" stroke="midnightblue" d="M103.19,-237.17C111.46,-237.17 120.17,-237.17 128.84,-237.17"/>
<polygon fill="midnightblue" stroke="midnightblue" points="128.98,-240.67 138.98,-237.17 128.98,-233.67 128.98,-240.67"/>
</g>
<!-- Node3 -->
<g id="node3" class="node">
<title>Node3</title>
<g id="a_node3"><a xlink:href="telemetry__manager_8c.html#aca6344c0e7a1eb93e72a2c07f36ba89e" target="_top" xlink:title="指定したBCを NOP x TLM_MGR_MAX_TLM_NUM_PER_BC で埋める">
<polygon fill="white" stroke="black" points="301,-246.67 301,-265.67 456,-265.67 456,-246.67 301,-246.67"/>
<text text-anchor="middle" x="378.5" y="-253.67" font-family="Helvetica,sans-Serif" font-size="10.00">TLM_MGR_clear_bc_to_nop_</text>
</a>
</g>
</g>
<!-- Node2&#45;&gt;Node3 -->
<g id="edge2" class="edge">
<title>Node2&#45;&gt;Node3</title>
<path fill="none" stroke="midnightblue" d="M265.01,-243.92C273.32,-244.83 281.96,-245.77 290.6,-246.71"/>
<polygon fill="midnightblue" stroke="midnightblue" points="290.4,-250.21 300.72,-247.81 291.16,-243.25 290.4,-250.21"/>
</g>
<!-- Node73 -->
<g id="node49" class="node">
<title>Node73</title>
<g id="a_node49"><a xlink:href="watchdog__timer_8c.html#ae9fcaca2f54130f889937deb0c46e817" target="_top" xlink:title="WDTのクリア">
<polygon fill="white" stroke="black" points="332.5,-208.67 332.5,-227.67 424.5,-227.67 424.5,-208.67 332.5,-208.67"/>
<text text-anchor="middle" x="378.5" y="-215.67" font-family="Helvetica,sans-Serif" font-size="10.00">WDT_clear_wdt</text>
</a>
</g>
</g>
<!-- Node2&#45;&gt;Node73 -->
<g id="edge65" class="edge">
<title>Node2&#45;&gt;Node73</title>
<path fill="none" stroke="midnightblue" d="M265.01,-230.42C283.69,-228.39 304.05,-226.17 322.26,-224.19"/>
<polygon fill="midnightblue" stroke="midnightblue" points="322.85,-227.64 332.41,-223.08 322.09,-220.68 322.85,-227.64"/>
</g>
<!-- Node4 -->
<g id="node4" class="node">
<title>Node4</title>
<g id="a_node4"><a xlink:href="block__command__loader_8c.html#a3b8f5d996e5769cd9d42ee4c78e48a43" target="_top" xlink:title="指定されたブロックコマンドIDへの登録を安全に行うためのwrapper関数">
<polygon fill="white" stroke="black" points="690,-227.67 690,-246.67 768,-246.67 768,-227.67 690,-227.67"/>
<text text-anchor="middle" x="729" y="-234.67" font-family="Helvetica,sans-Serif" font-size="10.00">BCL_load_bc</text>
</a>
</g>
</g>
<!-- Node3&#45;&gt;Node4 -->
<g id="edge3" class="edge">
<title>Node3&#45;&gt;Node4</title>
<path fill="none" stroke="midnightblue" d="M456.41,-251.98C524.53,-248.26 621.88,-242.96 679.64,-239.81"/>
<polygon fill="midnightblue" stroke="midnightblue" points="680.15,-243.29 689.95,-239.25 679.77,-236.3 680.15,-243.29"/>
</g>
<!-- Node17 -->
<g id="node17" class="node">
<title>Node17</title>
<g id="a_node17"><a xlink:href="telemetry__manager_8c.html#abb254dddda35d23891f16afbfd91e039" target="_top" xlink:title="NOP で埋められた BCの構築">
<polygon fill="white" stroke="black" points="492,-284.67 492,-303.67 629,-303.67 629,-284.67 492,-284.67"/>
<text text-anchor="middle" x="560.5" y="-291.67" font-family="Helvetica,sans-Serif" font-size="10.00">TLM_MGR_load_nop_bc_</text>
</a>
</g>
</g>
<!-- Node3&#45;&gt;Node17 -->
<g id="edge22" class="edge">
<title>Node3&#45;&gt;Node17</title>
<path fill="none" stroke="midnightblue" d="M424.92,-265.76C449.1,-270.87 479.03,-277.18 504.51,-282.56"/>
<polygon fill="midnightblue" stroke="midnightblue" points="503.9,-286.01 514.41,-284.65 505.34,-279.16 503.9,-286.01"/>
</g>
<!-- Node5 -->
<g id="node5" class="node">
<title>Node5</title>
<g id="a_node5"><a xlink:href="block__command__executor_8c.html#afa74726eddc14b94b624b69408b116f9" target="_top" xlink:title="block_command_table&#45;&gt;pos の BC を activate する">
<polygon fill="white" stroke="black" points="975,-170.67 975,-189.67 1088,-189.67 1088,-170.67 975,-170.67"/>
<text text-anchor="middle" x="1031.5" y="-177.67" font-family="Helvetica,sans-Serif" font-size="10.00">BCE_activate_block</text>
</a>
</g>
</g>
<!-- Node4&#45;&gt;Node5 -->
<g id="edge4" class="edge">
<title>Node4&#45;&gt;Node5</title>
<path fill="none" stroke="midnightblue" d="M749.97,-227.65C769.61,-218.73 800.68,-205.81 829,-199.17 873.53,-188.73 924.87,-184 964.59,-181.86"/>
<polygon fill="midnightblue" stroke="midnightblue" points="964.87,-185.35 974.68,-181.36 964.52,-178.36 964.87,-185.35"/>
</g>
<!-- Node9 -->
<g id="node9" class="node">
<title>Node9</title>
<g id="a_node9"><a xlink:href="block__command__loader_8c.html#ae259ce6d85f2937c0c260c4e70a523a6" target="_top" xlink:title=" ">
<polygon fill="white" stroke="black" points="837,-284.67 837,-303.67 931,-303.67 931,-284.67 837,-284.67"/>
<text text-anchor="middle" x="884" y="-291.67" font-family="Helvetica,sans-Serif" font-size="10.00">BCL_clear_info_</text>
</a>
</g>
</g>
<!-- Node4&#45;&gt;Node9 -->
<g id="edge8" class="edge">
<title>Node4&#45;&gt;Node9</title>
<path fill="none" stroke="midnightblue" d="M754.34,-246.73C774.33,-254.54 803.43,-265.77 829,-275.17 834.5,-277.19 840.33,-279.29 846.04,-281.32"/>
<polygon fill="midnightblue" stroke="midnightblue" points="844.88,-284.62 855.48,-284.65 847.21,-278.02 844.88,-284.62"/>
</g>
<!-- Node10 -->
<g id="node10" class="node">
<title>Node10</title>
<g id="a_node10"><a xlink:href="block__command__table_8c.html#a1ebc0b01cb3816d89903243ac30b882e" target="_top" xlink:title="指定された block の BCT を初期化する">
<polygon fill="white" stroke="black" points="835.5,-132.67 835.5,-151.67 932.5,-151.67 932.5,-132.67 835.5,-132.67"/>
<text text-anchor="middle" x="884" y="-139.67" font-family="Helvetica,sans-Serif" font-size="10.00">BCT_clear_block</text>
</a>
</g>
</g>
<!-- Node4&#45;&gt;Node10 -->
<g id="edge9" class="edge">
<title>Node4&#45;&gt;Node10</title>
<path fill="none" stroke="midnightblue" d="M741.66,-227.6C759.65,-213.12 795.6,-185.3 829,-166.17 835.43,-162.49 842.52,-158.98 849.4,-155.83"/>
<polygon fill="midnightblue" stroke="midnightblue" points="850.83,-159.03 858.56,-151.78 848,-152.62 850.83,-159.03"/>
</g>
<!-- Node15 -->
<g id="node15" class="node">
<title>Node15</title>
<g id="a_node15"><a xlink:href="block__command__table_8c.html#a23bedf8b5329bf20bcd79b3b79db01f7" target="_top" xlink:title="pos を pos_stored から復旧">
<polygon fill="white" stroke="black" points="835,-246.67 835,-265.67 933,-265.67 933,-246.67 835,-246.67"/>
<text text-anchor="middle" x="884" y="-253.67" font-family="Helvetica,sans-Serif" font-size="10.00">BCT_restore_pos</text>
</a>
</g>
</g>
<!-- Node4&#45;&gt;Node15 -->
<g id="edge20" class="edge">
<title>Node4&#45;&gt;Node15</title>
<path fill="none" stroke="midnightblue" d="M768.21,-241.92C785.32,-244.04 805.87,-246.59 824.82,-248.95"/>
<polygon fill="midnightblue" stroke="midnightblue" points="824.5,-252.43 834.86,-250.19 825.36,-245.49 824.5,-252.43"/>
</g>
<!-- Node16 -->
<g id="node16" class="node">
<title>Node16</title>
<g id="a_node16"><a xlink:href="block__command__table_8c.html#ab267a5795fb4b8be5df08ab86465f2a4" target="_top" xlink:title="pos を pos_stored に保存">
<polygon fill="white" stroke="black" points="839.5,-208.67 839.5,-227.67 928.5,-227.67 928.5,-208.67 839.5,-208.67"/>
<text text-anchor="middle" x="884" y="-215.67" font-family="Helvetica,sans-Serif" font-size="10.00">BCT_store_pos</text>
</a>
</g>
</g>
<!-- Node4&#45;&gt;Node16 -->
<g id="edge21" class="edge">
<title>Node4&#45;&gt;Node16</title>
<path fill="none" stroke="midnightblue" d="M768.21,-232.43C786.69,-230.13 809.18,-227.34 829.34,-224.84"/>
<polygon fill="midnightblue" stroke="midnightblue" points="829.83,-228.3 839.33,-223.59 828.97,-221.35 829.83,-228.3"/>
</g>
<!-- Node6 -->
<g id="node6" class="node">
<title>Node6</title>
<g id="a_node6"><a xlink:href="block__command__executor_8c.html#a314a5503ec3307e3e4049d32e54399ee" target="_top" xlink:title=" ">
<polygon fill="white" stroke="black" points="1301,-28.67 1301,-47.67 1444,-47.67 1444,-28.67 1301,-28.67"/>
<text text-anchor="middle" x="1372.5" y="-35.67" font-family="Helvetica,sans-Serif" font-size="10.00">BCE_get_bc_exe_params_</text>
</a>
</g>
</g>
<!-- Node5&#45;&gt;Node6 -->
<g id="edge5" class="edge">
<title>Node5&#45;&gt;Node6</title>
<path fill="none" stroke="midnightblue" d="M1058.31,-170.57C1101.59,-154.27 1191.31,-119.57 1265,-85.17 1281.39,-77.52 1284.57,-73.74 1301,-66.17 1312.19,-61.01 1324.62,-55.88 1335.89,-51.45"/>
<polygon fill="midnightblue" stroke="midnightblue" points="1337.38,-54.63 1345.44,-47.75 1334.85,-48.1 1337.38,-54.63"/>
</g>
<!-- Node7 -->
<g id="node7" class="node">
<title>Node7</title>
<g id="a_node7"><a xlink:href="block__command__executor_8c.html#a458f942c6bfdc924ca92dbf06e1eefdc" target="_top" xlink:title=" ">
<polygon fill="white" stroke="black" points="1301,-75.67 1301,-94.67 1444,-94.67 1444,-75.67 1301,-75.67"/>
<text text-anchor="middle" x="1372.5" y="-82.67" font-family="Helvetica,sans-Serif" font-size="10.00">BCE_set_bc_exe_params_</text>
</a>
</g>
</g>
<!-- Node5&#45;&gt;Node7 -->
<g id="edge6" class="edge">
<title>Node5&#45;&gt;Node7</title>
<path fill="none" stroke="midnightblue" d="M1088.18,-181.84C1136.35,-181.57 1207.15,-176.99 1265,-156.17 1299.21,-143.86 1333.2,-118.28 1353.27,-101.42"/>
<polygon fill="midnightblue" stroke="midnightblue" points="1355.68,-103.97 1360.98,-94.8 1351.12,-98.66 1355.68,-103.97"/>
</g>
<!-- Node8 -->
<g id="node8" class="node">
<title>Node8</title>
<g id="a_node8"><a xlink:href="block__command__table_8c.html#add2db8412ac7b28b2e61d99638daaac5" target="_top" xlink:title="BCT の length の getter">
<polygon fill="white" stroke="black" points="1139.5,-208.67 1139.5,-227.67 1249.5,-227.67 1249.5,-208.67 1139.5,-208.67"/>
<text text-anchor="middle" x="1194.5" y="-215.67" font-family="Helvetica,sans-Serif" font-size="10.00">BCT_get_bc_length</text>
</a>
</g>
</g>
<!-- Node5&#45;&gt;Node8 -->
<g id="edge7" class="edge">
<title>Node5&#45;&gt;Node8</title>
<path fill="none" stroke="midnightblue" d="M1073.13,-189.76C1094.47,-194.8 1120.81,-201.02 1143.41,-206.35"/>
<polygon fill="midnightblue" stroke="midnightblue" points="1142.63,-209.76 1153.17,-208.65 1144.24,-202.95 1142.63,-209.76"/>
</g>
<!-- Node11 -->
<g id="node11" class="node">
<title>Node11</title>
<g id="a_node11"><a xlink:href="block__command__executor_8c.html#a6e05f5a7b995f6a92a38c858792d6cd0" target="_top" xlink:title="指定された block の BCE を初期化">
<polygon fill="white" stroke="black" points="983,-56.67 983,-75.67 1080,-75.67 1080,-56.67 983,-56.67"/>
<text text-anchor="middle" x="1031.5" y="-63.67" font-family="Helvetica,sans-Serif" font-size="10.00">BCE_clear_block</text>
</a>
</g>
</g>
<!-- Node10&#45;&gt;Node11 -->
<g id="edge10" class="edge">
<title>Node10&#45;&gt;Node11</title>
<path fill="none" stroke="midnightblue" d="M903.43,-132.55C928.57,-119.41 973.83,-95.77 1003,-80.54"/>
<polygon fill="midnightblue" stroke="midnightblue" points="1004.98,-83.45 1012.22,-75.72 1001.74,-77.25 1004.98,-83.45"/>
</g>
<!-- Node14 -->
<g id="node14" class="node">
<title>Node14</title>
<g id="a_node14"><a xlink:href="block__command__table_8c.html#a8de02d89c561030741c771739016db35" target="_top" xlink:title=" ">
<polygon fill="white" stroke="black" points="1137.5,-246.67 1137.5,-265.67 1251.5,-265.67 1251.5,-246.67 1137.5,-246.67"/>
<text text-anchor="middle" x="1194.5" y="-253.67" font-family="Helvetica,sans-Serif" font-size="10.00">BCT_set_bc_length_</text>
</a>
</g>
</g>
<!-- Node10&#45;&gt;Node14 -->
<g id="edge19" class="edge">
<title>Node10&#45;&gt;Node14</title>
<path fill="none" stroke="midnightblue" d="M897.41,-151.81C914.16,-164.37 945.31,-186.27 975,-199.17 1024.37,-220.62 1083.64,-235.46 1127.98,-244.61"/>
<polygon fill="midnightblue" stroke="midnightblue" points="1127.57,-248.09 1138.06,-246.64 1128.95,-241.23 1127.57,-248.09"/>
</g>
<!-- Node11&#45;&gt;Node6 -->
<g id="edge11" class="edge">
<title>Node11&#45;&gt;Node6</title>
<path fill="none" stroke="midnightblue" d="M1043.34,-56.53C1059.53,-42.85 1091.61,-18.43 1124,-9.17 1197.39,11.82 1287.19,-9.9 1335.92,-25.43"/>
<polygon fill="midnightblue" stroke="midnightblue" points="1335.08,-28.84 1345.67,-28.63 1337.26,-22.19 1335.08,-28.84"/>
</g>
<!-- Node11&#45;&gt;Node7 -->
<g id="edge18" class="edge">
<title>Node11&#45;&gt;Node7</title>
<path fill="none" stroke="midnightblue" d="M1069.63,-75.68C1086.15,-79.45 1105.92,-83.31 1124,-85.17 1179.47,-90.87 1242.3,-90.79 1290.78,-89.33"/>
<polygon fill="midnightblue" stroke="midnightblue" points="1291.01,-92.82 1300.89,-89 1290.78,-85.83 1291.01,-92.82"/>
</g>
<!-- Node12 -->
<g id="node12" class="node">
<title>Node12</title>
<g id="a_node12"><a xlink:href="block__command__executor_8c.html#a0b8956e904421adc0bdcf7bc5bb6f77c" target="_top" xlink:title=" ">
<polygon fill="white" stroke="black" points="1124,-18.67 1124,-37.67 1265,-37.67 1265,-18.67 1124,-18.67"/>
<text text-anchor="middle" x="1194.5" y="-25.67" font-family="Helvetica,sans-Serif" font-size="10.00">BCE_reset_combiner_info</text>
</a>
</g>
</g>
<!-- Node11&#45;&gt;Node12 -->
<g id="edge12" class="edge">
<title>Node11&#45;&gt;Node12</title>
<path fill="none" stroke="midnightblue" d="M1073.13,-56.58C1094.47,-51.55 1120.81,-45.33 1143.41,-39.99"/>
<polygon fill="midnightblue" stroke="midnightblue" points="1144.24,-43.39 1153.17,-37.69 1142.63,-36.58 1144.24,-43.39"/>
</g>
<!-- Node13 -->
<g id="node13" class="node">
<title>Node13</title>
<g id="a_node13"><a xlink:href="block__command__executor_8c.html#a853db84c8dfb9ec02d82ef44fc98ec18" target="_top" xlink:title=" ">
<polygon fill="white" stroke="black" points="1130.5,-56.67 1130.5,-75.67 1258.5,-75.67 1258.5,-56.67 1130.5,-56.67"/>
<text text-anchor="middle" x="1194.5" y="-63.67" font-family="Helvetica,sans-Serif" font-size="10.00">BCE_reset_rotator_info</text>
</a>
</g>
</g>
<!-- Node11&#45;&gt;Node13 -->
<g id="edge15" class="edge">
<title>Node11&#45;&gt;Node13</title>
<path fill="none" stroke="midnightblue" d="M1080.37,-66.17C1092.85,-66.17 1106.6,-66.17 1120.07,-66.17"/>
<polygon fill="midnightblue" stroke="midnightblue" points="1120.3,-69.67 1130.3,-66.17 1120.3,-62.67 1120.3,-69.67"/>
</g>
<!-- Node12&#45;&gt;Node6 -->
<g id="edge13" class="edge">
<title>Node12&#45;&gt;Node6</title>
<path fill="none" stroke="midnightblue" d="M1265.06,-32.12C1273.49,-32.6 1282.15,-33.09 1290.72,-33.58"/>
<polygon fill="midnightblue" stroke="midnightblue" points="1290.53,-37.08 1300.71,-34.15 1290.93,-30.09 1290.53,-37.08"/>
</g>
<!-- Node12&#45;&gt;Node7 -->
<g id="edge14" class="edge">
<title>Node12&#45;&gt;Node7</title>
<path fill="none" stroke="midnightblue" d="M1232.44,-37.71C1243.01,-40.59 1254.5,-43.87 1265,-47.17 1289.14,-54.77 1315.97,-64.35 1336.66,-71.99"/>
<polygon fill="midnightblue" stroke="midnightblue" points="1335.7,-75.36 1346.29,-75.57 1338.14,-68.8 1335.7,-75.36"/>
</g>
<!-- Node13&#45;&gt;Node6 -->
<g id="edge16" class="edge">
<title>Node13&#45;&gt;Node6</title>
<path fill="none" stroke="midnightblue" d="M1255.58,-56.61C1270.44,-54.25 1286.5,-51.69 1301.78,-49.26"/>
<polygon fill="midnightblue" stroke="midnightblue" points="1302.37,-52.71 1311.69,-47.69 1301.27,-45.8 1302.37,-52.71"/>
</g>
<!-- Node13&#45;&gt;Node7 -->
<g id="edge17" class="edge">
<title>Node13&#45;&gt;Node7</title>
<path fill="none" stroke="midnightblue" d="M1258.54,-72.98C1268.93,-74.1 1279.83,-75.27 1290.58,-76.44"/>
<polygon fill="midnightblue" stroke="midnightblue" points="1290.51,-79.95 1300.83,-77.54 1291.26,-72.99 1290.51,-79.95"/>
</g>
<!-- Node18 -->
<g id="node18" class="node">
<title>Node18</title>
<g id="a_node18"><a xlink:href="block__command__loader_8c.html#adc8e2381948a082e62d72d9971fc203f" target="_top" xlink:title="ブロックコマンドの最後にコマンドを追加する">
<polygon fill="white" stroke="black" points="665,-284.67 665,-303.67 793,-303.67 793,-284.67 665,-284.67"/>
<text text-anchor="middle" x="729" y="-291.67" font-family="Helvetica,sans-Serif" font-size="10.00">BCL_tool_register_cmd</text>
</a>
</g>
</g>
<!-- Node17&#45;&gt;Node18 -->
<g id="edge23" class="edge">
<title>Node17&#45;&gt;Node18</title>
<path fill="none" stroke="midnightblue" d="M629.22,-294.17C637.61,-294.17 646.21,-294.17 654.67,-294.17"/>
<polygon fill="midnightblue" stroke="midnightblue" points="654.91,-297.67 664.91,-294.17 654.91,-290.67 654.91,-297.67"/>
</g>
<!-- Node18&#45;&gt;Node9 -->
<g id="edge24" class="edge">
<title>Node18&#45;&gt;Node9</title>
<path fill="none" stroke="midnightblue" d="M793.11,-294.17C804.22,-294.17 815.71,-294.17 826.61,-294.17"/>
<polygon fill="midnightblue" stroke="midnightblue" points="826.86,-297.67 836.86,-294.17 826.86,-290.67 826.86,-297.67"/>
</g>
<!-- Node19 -->
<g id="node19" class="node">
<title>Node19</title>
<g id="a_node19"><a xlink:href="block__command__loader_8c.html#a34da4d8efe30b2f1872103496dfcf8cb" target="_top" xlink:title=" ">
<polygon fill="white" stroke="black" points="829,-322.67 829,-341.67 939,-341.67 939,-322.67 829,-322.67"/>
<text text-anchor="middle" x="884" y="-329.67" font-family="Helvetica,sans-Serif" font-size="10.00">BCL_register_cmd_</text>
</a>
</g>
</g>
<!-- Node18&#45;&gt;Node19 -->
<g id="edge25" class="edge">
<title>Node18&#45;&gt;Node19</title>
<path fill="none" stroke="midnightblue" d="M768.61,-303.76C788.71,-308.75 813.48,-314.9 834.82,-320.2"/>
<polygon fill="midnightblue" stroke="midnightblue" points="834.12,-323.64 844.67,-322.65 835.81,-316.84 834.12,-323.64"/>
</g>
<!-- Node20 -->
<g id="node20" class="node">
<title>Node20</title>
<g id="a_node20"><a xlink:href="block__command__table_8c.html#af4f041d9c2411d039196e8c2eb786005" target="_top" xlink:title="Cmd を block_command_table&#45;&gt;pos に登録する">
<polygon fill="white" stroke="black" points="979,-284.67 979,-303.67 1084,-303.67 1084,-284.67 979,-284.67"/>
<text text-anchor="middle" x="1031.5" y="-291.67" font-family="Helvetica,sans-Serif" font-size="10.00">BCT_register_cmd</text>
</a>
</g>
</g>
<!-- Node19&#45;&gt;Node20 -->
<g id="edge26" class="edge">
<title>Node19&#45;&gt;Node20</title>
<path fill="none" stroke="midnightblue" d="M921.72,-322.58C940.66,-317.64 963.96,-311.55 984.13,-306.28"/>
<polygon fill="midnightblue" stroke="midnightblue" points="985.26,-309.6 994.05,-303.69 983.49,-302.83 985.26,-309.6"/>
</g>
<!-- Node31 -->
<g id="node26" class="node">
<title>Node31</title>
<g id="a_node26"><a xlink:href="common__cmd__packet__util_8c.html#a3695599b4d05dbb0b510c73dab7cd233" target="_top" xlink:title="Timeline command を生成">
<polygon fill="white" stroke="black" points="990.5,-398.67 990.5,-417.67 1072.5,-417.67 1072.5,-398.67 990.5,-398.67"/>
<text text-anchor="middle" x="1031.5" y="-405.67" font-family="Helvetica,sans-Serif" font-size="10.00">CCP_form_tlc</text>
</a>
</g>
</g>
<!-- Node19&#45;&gt;Node31 -->
<g id="edge35" class="edge">
<title>Node19&#45;&gt;Node31</title>
<path fill="none" stroke="midnightblue" d="M903.43,-341.8C928.57,-354.93 973.83,-378.57 1003,-393.81"/>
<polygon fill="midnightblue" stroke="midnightblue" points="1001.74,-397.1 1012.22,-398.62 1004.98,-390.89 1001.74,-397.1"/>
</g>
<!-- Node20&#45;&gt;Node8 -->
<g id="edge28" class="edge">
<title>Node20&#45;&gt;Node8</title>
<path fill="none" stroke="midnightblue" d="M1045.17,-284.6C1062.25,-272.11 1093.99,-250.29 1124,-237.17 1129.43,-234.8 1135.24,-232.65 1141.09,-230.73"/>
<polygon fill="midnightblue" stroke="midnightblue" points="1142.39,-233.99 1150.93,-227.71 1140.34,-227.3 1142.39,-233.99"/>
</g>
<!-- Node20&#45;&gt;Node14 -->
<g id="edge34" class="edge">
<title>Node20&#45;&gt;Node14</title>
<path fill="none" stroke="midnightblue" d="M1073.13,-284.58C1094.47,-279.55 1120.81,-273.33 1143.41,-267.99"/>
<polygon fill="midnightblue" stroke="midnightblue" points="1144.24,-271.39 1153.17,-265.69 1142.63,-264.58 1144.24,-271.39"/>
</g>
<!-- Node21 -->
<g id="node21" class="node">
<title>Node21</title>
<g id="a_node21"><a xlink:href="block__command__table_8c.html#ae25a57a4a97b49bf13a4caa0b5e8ff76" target="_top" xlink:title="BCT_Pos* の validate">
<polygon fill="white" stroke="black" points="1315.5,-322.67 1315.5,-341.67 1429.5,-341.67 1429.5,-322.67 1315.5,-322.67"/>
<text text-anchor="middle" x="1372.5" y="-329.67" font-family="Helvetica,sans-Serif" font-size="10.00">BCT_check_position</text>
</a>
</g>
</g>
<!-- Node20&#45;&gt;Node21 -->
<g id="edge27" class="edge">
<title>Node20&#45;&gt;Node21</title>
<path fill="none" stroke="midnightblue" d="M1072.84,-303.71C1088.71,-307.16 1107.13,-310.78 1124,-313.17 1185.08,-321.82 1255.23,-326.74 1305.21,-329.39"/>
<polygon fill="midnightblue" stroke="midnightblue" points="1305.08,-332.89 1315.25,-329.91 1305.44,-325.9 1305.08,-332.89"/>
</g>
<!-- Node22 -->
<g id="node22" class="node">
<title>Node22</title>
<g id="a_node22"><a xlink:href="block__command__table_8c.html#aa8c676311a614f56a48444ffb17f7e87" target="_top" xlink:title="pos の指す場所に packet の内容を保存 (TCP_PRM_HDR_LEN の長さも考慮)">
<polygon fill="white" stroke="black" points="1146.5,-284.67 1146.5,-303.67 1242.5,-303.67 1242.5,-284.67 1146.5,-284.67"/>
<text text-anchor="middle" x="1194.5" y="-291.67" font-family="Helvetica,sans-Serif" font-size="10.00">BCT_save_cmd_</text>
</a>
</g>
</g>
<!-- Node20&#45;&gt;Node22 -->
<g id="edge29" class="edge">
<title>Node20&#45;&gt;Node22</title>
<path fill="none" stroke="midnightblue" d="M1084.33,-294.17C1100.85,-294.17 1119.22,-294.17 1136.11,-294.17"/>
<polygon fill="midnightblue" stroke="midnightblue" points="1136.4,-297.67 1146.4,-294.17 1136.4,-290.67 1136.4,-297.67"/>
</g>
<!-- Node22&#45;&gt;Node21 -->
<g id="edge30" class="edge">
<title>Node22&#45;&gt;Node21</title>
<path fill="none" stroke="midnightblue" d="M1239.91,-303.76C1263.45,-308.84 1292.56,-315.13 1317.4,-320.49"/>
<polygon fill="midnightblue" stroke="midnightblue" points="1316.89,-323.96 1327.41,-322.65 1318.37,-317.12 1316.89,-323.96"/>
</g>
<!-- Node23 -->
<g id="node23" class="node">
<title>Node23</title>
<g id="a_node23"><a xlink:href="block__command__table_8c.html#a5099527d441a777f4656300ab41037da" target="_top" xlink:title=" ">
<polygon fill="white" stroke="black" points="1307,-246.67 1307,-265.67 1438,-265.67 1438,-246.67 1307,-246.67"/>
<text text-anchor="middle" x="1372.5" y="-253.67" font-family="Helvetica,sans-Serif" font-size="10.00">BCT_set_bc_cmd_data_</text>
</a>
</g>
</g>
<!-- Node22&#45;&gt;Node23 -->
<g id="edge31" class="edge">
<title>Node22&#45;&gt;Node23</title>
<path fill="none" stroke="midnightblue" d="M1239.91,-284.58C1263.45,-279.5 1292.56,-273.22 1317.4,-267.85"/>
<polygon fill="midnightblue" stroke="midnightblue" points="1318.37,-271.22 1327.41,-265.69 1316.89,-264.38 1318.37,-271.22"/>
</g>
<!-- Node24 -->
<g id="node24" class="node">
<title>Node24</title>
<g id="a_node24"><a xlink:href="common__cmd__packet_8h.html#a09b2e0ad8f87be0782c0f8ef2523f44c" target="_top" xlink:title="パケット長を取得">
<polygon fill="white" stroke="black" points="1315,-284.67 1315,-303.67 1430,-303.67 1430,-284.67 1315,-284.67"/>
<text text-anchor="middle" x="1372.5" y="-291.67" font-family="Helvetica,sans-Serif" font-size="10.00">CCP_get_packet_len</text>
</a>
</g>
</g>
<!-- Node22&#45;&gt;Node24 -->
<g id="edge32" class="edge">
<title>Node22&#45;&gt;Node24</title>
<path fill="none" stroke="midnightblue" d="M1242.66,-294.17C1261.74,-294.17 1284.11,-294.17 1304.8,-294.17"/>
<polygon fill="midnightblue" stroke="midnightblue" points="1304.8,-297.67 1314.8,-294.17 1304.8,-290.67 1304.8,-297.67"/>
</g>
<!-- Node25 -->
<g id="node25" class="node">
<title>Node25</title>
<g id="a_node25"><a xlink:href="cmd__space__packet_8c.html#aee157565d728de693218da48114b5923" target="_top" xlink:title="Packet Length を取得">
<polygon fill="white" stroke="red" points="1496,-284.67 1496,-303.67 1610,-303.67 1610,-284.67 1496,-284.67"/>
<text text-anchor="middle" x="1553" y="-291.67" font-family="Helvetica,sans-Serif" font-size="10.00">CSP_get_packet_len</text>
</a>
</g>
</g>
<!-- Node24&#45;&gt;Node25 -->
<g id="edge33" class="edge">
<title>Node24&#45;&gt;Node25</title>
<path fill="none" stroke="midnightblue" d="M1430.47,-294.17C1448.04,-294.17 1467.53,-294.17 1485.67,-294.17"/>
<polygon fill="midnightblue" stroke="midnightblue" points="1485.88,-297.67 1495.88,-294.17 1485.88,-290.67 1485.88,-297.67"/>
</g>
<!-- Node32 -->
<g id="node27" class="node">
<title>Node32</title>
<g id="a_node27"><a xlink:href="command__analyze_8c.html#ae878a1a8ce00cc7468fbdd5bc5aba864" target="_top" xlink:title="コマンドパラメタ長をチェックする">
<polygon fill="white" stroke="black" points="1480,-322.67 1480,-341.67 1626,-341.67 1626,-322.67 1480,-322.67"/>
<text text-anchor="middle" x="1553" y="-329.67" font-family="Helvetica,sans-Serif" font-size="10.00">CA_ckeck_cmd_param_len</text>
</a>
</g>
</g>
<!-- Node31&#45;&gt;Node32 -->
<g id="edge36" class="edge">
<title>Node31&#45;&gt;Node32</title>
<path fill="none" stroke="midnightblue" d="M1072.9,-399C1088.77,-395.6 1107.19,-391.91 1124,-389.17 1265.36,-366.15 1302.31,-372.03 1444,-351.17 1459.37,-348.91 1475.92,-346.16 1491.33,-343.46"/>
<polygon fill="midnightblue" stroke="midnightblue" points="1492.04,-346.89 1501.27,-341.7 1490.82,-340 1492.04,-346.89"/>
</g>
<!-- Node39 -->
<g id="node34" class="node">
<title>Node39</title>
<g id="a_node34"><a xlink:href="common__cmd__packet__util_8c.html#ae0f356389f15546c7e067db35bde985d" target="_top" xlink:title="Realtime Command から Timeline Command へ変換">
<polygon fill="white" stroke="black" points="1489,-512.67 1489,-531.67 1617,-531.67 1617,-512.67 1489,-512.67"/>
<text text-anchor="middle" x="1553" y="-519.67" font-family="Helvetica,sans-Serif" font-size="10.00">CCP_convert_rtc_to_tlc</text>
</a>
</g>
</g>
<!-- Node31&#45;&gt;Node39 -->
<g id="edge45" class="edge">
<title>Node31&#45;&gt;Node39</title>
<path fill="none" stroke="midnightblue" d="M1051.31,-417.7C1069.48,-426.54 1098.01,-439.47 1124,-447.17 1245.92,-483.32 1392.86,-504.38 1479.01,-514.55"/>
<polygon fill="midnightblue" stroke="midnightblue" points="1478.61,-518.03 1488.95,-515.71 1479.42,-511.07 1478.61,-518.03"/>
</g>
<!-- Node45 -->
<g id="node39" class="node">
<title>Node45</title>
<g id="a_node39"><a xlink:href="common__cmd__packet__util_8c.html#a01b352632ca605771f0cfd66a2a149ba" target="_top" xlink:title="NOP cmd の RTC CCP を作る">
<polygon fill="white" stroke="black" points="1139,-398.67 1139,-417.67 1250,-417.67 1250,-398.67 1139,-398.67"/>
<text text-anchor="middle" x="1194.5" y="-405.67" font-family="Helvetica,sans-Serif" font-size="10.00">CCP_form_nop_rtc_</text>
</a>
</g>
</g>
<!-- Node31&#45;&gt;Node45 -->
<g id="edge50" class="edge">
<title>Node31&#45;&gt;Node45</title>
<path fill="none" stroke="midnightblue" d="M1072.71,-408.17C1089.69,-408.17 1109.88,-408.17 1128.85,-408.17"/>
<polygon fill="midnightblue" stroke="midnightblue" points="1128.94,-411.67 1138.94,-408.17 1128.94,-404.67 1128.94,-411.67"/>
</g>
<!-- Node47 -->
<g id="node41" class="node">
<title>Node47</title>
<g id="a_node41"><a xlink:href="common__cmd__packet__util_8c.html#a58160242c4b87906597c90a3465c9596" target="_top" xlink:title="RealTime Command を生成する. CCP_form_* の実体.">
<polygon fill="white" stroke="black" points="1509,-436.67 1509,-455.67 1597,-455.67 1597,-436.67 1509,-436.67"/>
<text text-anchor="middle" x="1553" y="-443.67" font-family="Helvetica,sans-Serif" font-size="10.00">CCP_form_rtc_</text>
</a>
</g>
</g>
<!-- Node31&#45;&gt;Node47 -->
<g id="edge64" class="edge">
<title>Node31&#45;&gt;Node47</title>
<path fill="none" stroke="midnightblue" d="M1071.45,-417.7C1087.61,-421.27 1106.61,-424.99 1124,-427.17 1258.02,-443.95 1417.27,-446.49 1498.52,-446.54"/>
<polygon fill="midnightblue" stroke="midnightblue" points="1498.98,-450.04 1508.98,-446.54 1498.98,-443.04 1498.98,-450.04"/>
</g>
<!-- Node33 -->
<g id="node28" class="node">
<title>Node33</title>
<g id="a_node28"><a xlink:href="command__analyze_8c.html#ac95557475d470f986e1eb46befbc2ae9" target="_top" xlink:title="最小コマンドパラメタ長を取得する">
<polygon fill="white" stroke="black" points="1662,-284.67 1662,-303.67 1820,-303.67 1820,-284.67 1662,-284.67"/>
<text text-anchor="middle" x="1741" y="-291.67" font-family="Helvetica,sans-Serif" font-size="10.00">CA_get_cmd_param_min_len</text>
</a>
</g>
</g>
<!-- Node32&#45;&gt;Node33 -->
<g id="edge37" class="edge">
<title>Node32&#45;&gt;Node33</title>
<path fill="none" stroke="midnightblue" d="M1600.94,-322.58C1626.03,-317.45 1657.12,-311.1 1683.53,-305.71"/>
<polygon fill="midnightblue" stroke="midnightblue" points="1684.3,-309.12 1693.4,-303.69 1682.9,-302.26 1684.3,-309.12"/>
</g>
<!-- Node36 -->
<g id="node31" class="node">
<title>Node36</title>
<g id="a_node31"><a xlink:href="command__analyze_8c.html#a8b245c2a85084ae21588acd4deb3b3d6" target="_top" xlink:title="RAW パラメタを持っているか？">
<polygon fill="white" stroke="black" points="1684.5,-322.67 1684.5,-341.67 1797.5,-341.67 1797.5,-322.67 1684.5,-322.67"/>
<text text-anchor="middle" x="1741" y="-329.67" font-family="Helvetica,sans-Serif" font-size="10.00">CA_has_raw_param</text>
</a>
</g>
</g>
<!-- Node32&#45;&gt;Node36 -->
<g id="edge40" class="edge">
<title>Node32&#45;&gt;Node36</title>
<path fill="none" stroke="midnightblue" d="M1626.18,-332.17C1642.01,-332.17 1658.69,-332.17 1674.25,-332.17"/>
<polygon fill="midnightblue" stroke="midnightblue" points="1674.3,-335.67 1684.3,-332.17 1674.3,-328.67 1674.3,-335.67"/>
</g>
<!-- Node38 -->
<g id="node33" class="node">
<title>Node38</title>
<g id="a_node33"><a xlink:href="common__cmd__packet_8h.html#a0cb576a77e94553c22d9cb70a6fd50f1" target="_top" xlink:title="CMD パラメタ長の最大値を取得">
<polygon fill="white" stroke="black" points="1670.5,-246.67 1670.5,-265.67 1811.5,-265.67 1811.5,-246.67 1670.5,-246.67"/>
<text text-anchor="middle" x="1741" y="-253.67" font-family="Helvetica,sans-Serif" font-size="10.00">CCP_get_max_param_len</text>
</a>
</g>
</g>
<!-- Node32&#45;&gt;Node38 -->
<g id="edge44" class="edge">
<title>Node32&#45;&gt;Node38</title>
<path fill="none" stroke="midnightblue" d="M1604.63,-322.64C1612.08,-320.17 1619.44,-317.06 1626,-313.17 1646.01,-301.31 1641.88,-286.85 1662,-275.17 1665.73,-273.01 1669.7,-271.09 1673.79,-269.39"/>
<polygon fill="midnightblue" stroke="midnightblue" points="1675.34,-272.55 1683.52,-265.8 1672.92,-265.98 1675.34,-272.55"/>
</g>
<!-- Node34 -->
<g id="node29" class="node">
<title>Node34</title>
<g id="a_node29"><a xlink:href="command__analyze_8c.html#a464f3aa16753a76bc5093100542a361a" target="_top" xlink:title="コマンドパラメタサイズを取得する">
<polygon fill="white" stroke="black" points="1857,-246.67 1857,-265.67 1996,-265.67 1996,-246.67 1857,-246.67"/>
<text text-anchor="middle" x="1926.5" y="-253.67" font-family="Helvetica,sans-Serif" font-size="10.00">CA_get_cmd_param_size</text>
</a>
</g>
</g>
<!-- Node33&#45;&gt;Node34 -->
<g id="edge38" class="edge">
<title>Node33&#45;&gt;Node34</title>
<path fill="none" stroke="midnightblue" d="M1788.3,-284.58C1812.96,-279.48 1843.46,-273.16 1869.44,-267.78"/>
<polygon fill="midnightblue" stroke="midnightblue" points="1870.45,-271.15 1879.53,-265.69 1869.03,-264.29 1870.45,-271.15"/>
</g>
<!-- Node35 -->
<g id="node30" class="node">
<title>Node35</title>
<g id="a_node30"><a xlink:href="command__analyze_8c.html#aa312aeadf3ce336a10385fe14e22f77c" target="_top" xlink:title="コマンドパラメタのサイズ情報を取得">
<polygon fill="white" stroke="black" points="2033,-284.67 2033,-303.67 2178,-303.67 2178,-284.67 2033,-284.67"/>
<text text-anchor="middle" x="2105.5" y="-291.67" font-family="Helvetica,sans-Serif" font-size="10.00">CA_get_param_size_type_</text>
</a>
</g>
</g>
<!-- Node34&#45;&gt;Node35 -->
<g id="edge39" class="edge">
<title>Node34&#45;&gt;Node35</title>
<path fill="none" stroke="midnightblue" d="M1972.16,-265.76C1995.84,-270.84 2025.11,-277.13 2050.1,-282.49"/>
<polygon fill="midnightblue" stroke="midnightblue" points="2049.64,-285.97 2060.16,-284.65 2051.11,-279.13 2049.64,-285.97"/>
</g>
<!-- Node36&#45;&gt;Node35 -->
<g id="edge43" class="edge">
<title>Node36&#45;&gt;Node35</title>
<path fill="none" stroke="midnightblue" d="M1793.22,-322.64C1812.8,-319.26 1835.38,-315.67 1856,-313.17 1911.44,-306.45 1974.14,-301.67 2022.69,-298.59"/>
<polygon fill="midnightblue" stroke="midnightblue" points="2023.07,-302.08 2032.83,-297.96 2022.63,-295.09 2023.07,-302.08"/>
</g>
<!-- Node37 -->
<g id="node32" class="node">
<title>Node37</title>
<g id="a_node32"><a xlink:href="command__analyze_8c.html#a170772c49fb7883a382a30bd38485a6e" target="_top" xlink:title="コマンドパラメタ数を取得する">
<polygon fill="white" stroke="black" points="1856,-322.67 1856,-341.67 1997,-341.67 1997,-322.67 1856,-322.67"/>
<text text-anchor="middle" x="1926.5" y="-329.67" font-family="Helvetica,sans-Serif" font-size="10.00">CA_get_cmd_param_num</text>
</a>
</g>
</g>
<!-- Node36&#45;&gt;Node37 -->
<g id="edge41" class="edge">
<title>Node36&#45;&gt;Node37</title>
<path fill="none" stroke="midnightblue" d="M1797.55,-332.17C1812.75,-332.17 1829.53,-332.17 1845.8,-332.17"/>
<polygon fill="midnightblue" stroke="midnightblue" points="1845.84,-335.67 1855.84,-332.17 1845.84,-328.67 1845.84,-335.67"/>
</g>
<!-- Node37&#45;&gt;Node35 -->
<g id="edge42" class="edge">
<title>Node37&#45;&gt;Node35</title>
<path fill="none" stroke="midnightblue" d="M1972.16,-322.58C1995.84,-317.5 2025.11,-311.22 2050.1,-305.85"/>
<polygon fill="midnightblue" stroke="midnightblue" points="2051.11,-309.21 2060.16,-303.69 2049.64,-302.37 2051.11,-309.21"/>
</g>
<!-- Node40 -->
<g id="node35" class="node">
<title>Node40</title>
<g id="a_node35"><a xlink:href="common__cmd__packet_8h.html#ab4c0b1be76b7097e922a8a354f500b88" target="_top" xlink:title="EXEC_TYPE を設定">
<polygon fill="white" stroke="black" points="1685.5,-550.67 1685.5,-569.67 1796.5,-569.67 1796.5,-550.67 1685.5,-550.67"/>
<text text-anchor="middle" x="1741" y="-557.67" font-family="Helvetica,sans-Serif" font-size="10.00">CCP_set_exec_type</text>
</a>
</g>
</g>
<!-- Node39&#45;&gt;Node40 -->
<g id="edge46" class="edge">
<title>Node39&#45;&gt;Node40</title>
<path fill="none" stroke="midnightblue" d="M1600.94,-531.76C1626.03,-536.89 1657.12,-543.24 1683.53,-548.63"/>
<polygon fill="midnightblue" stroke="midnightblue" points="1682.9,-552.08 1693.4,-550.65 1684.3,-545.22 1682.9,-552.08"/>
</g>
<!-- Node43 -->
<g id="node37" class="node">
<title>Node43</title>
<g id="a_node37"><a xlink:href="common__cmd__packet_8h.html#a1fde7575e47a25464d869a3247e1e087" target="_top" xlink:title="TI を設定">
<polygon fill="white" stroke="black" points="1707,-512.67 1707,-531.67 1775,-531.67 1775,-512.67 1707,-512.67"/>
<text text-anchor="middle" x="1741" y="-519.67" font-family="Helvetica,sans-Serif" font-size="10.00">CCP_set_ti</text>
</a>
</g>
</g>
<!-- Node39&#45;&gt;Node43 -->
<g id="edge48" class="edge">
<title>Node39&#45;&gt;Node43</title>
<path fill="none" stroke="midnightblue" d="M1617.23,-522.17C1643.47,-522.17 1673.24,-522.17 1696.89,-522.17"/>
<polygon fill="midnightblue" stroke="midnightblue" points="1696.96,-525.67 1706.96,-522.17 1696.96,-518.67 1696.96,-525.67"/>
</g>
<!-- Node41 -->
<g id="node36" class="node">
<title>Node41</title>
<g id="a_node36"><a xlink:href="cmd__space__packet_8c.html#a031c095293173f7bc0fa4a97852b7060" target="_top" xlink:title="Execution Type を設定">
<polygon fill="white" stroke="red" points="1871.5,-550.67 1871.5,-569.67 1981.5,-569.67 1981.5,-550.67 1871.5,-550.67"/>
<text text-anchor="middle" x="1926.5" y="-557.67" font-family="Helvetica,sans-Serif" font-size="10.00">CSP_set_exec_type</text>
</a>
</g>
</g>
<!-- Node40&#45;&gt;Node41 -->
<g id="edge47" class="edge">
<title>Node40&#45;&gt;Node41</title>
<path fill="none" stroke="midnightblue" d="M1796.56,-560.17C1816.9,-560.17 1840.17,-560.17 1861.29,-560.17"/>
<polygon fill="midnightblue" stroke="midnightblue" points="1861.47,-563.67 1871.47,-560.17 1861.47,-556.67 1861.47,-563.67"/>
</g>
<!-- Node44 -->
<g id="node38" class="node">
<title>Node44</title>
<g id="a_node38"><a xlink:href="cmd__space__packet_8c.html#a3b7cf4c50d51882d730ad25b754259fd" target="_top" xlink:title="Time Indicator (TI) を設定">
<polygon fill="white" stroke="red" points="1892.5,-512.67 1892.5,-531.67 1960.5,-531.67 1960.5,-512.67 1892.5,-512.67"/>
<text text-anchor="middle" x="1926.5" y="-519.67" font-family="Helvetica,sans-Serif" font-size="10.00">CSP_set_ti</text>
</a>
</g>
</g>
<!-- Node43&#45;&gt;Node44 -->
<g id="edge49" class="edge">
<title>Node43&#45;&gt;Node44</title>
<path fill="none" stroke="midnightblue" d="M1775.23,-522.17C1805.15,-522.17 1849.31,-522.17 1882.02,-522.17"/>
<polygon fill="midnightblue" stroke="midnightblue" points="1882.21,-525.67 1892.21,-522.17 1882.21,-518.67 1882.21,-525.67"/>
</g>
<!-- Node46 -->
<g id="node40" class="node">
<title>Node46</title>
<g id="a_node40"><a xlink:href="common__cmd__packet__util_8c.html#af9f77cfe0b19d8078e79f1c32d9b2843" target="_top" xlink:title="Realtime command を生成">
<polygon fill="white" stroke="black" points="1331,-398.67 1331,-417.67 1414,-417.67 1414,-398.67 1331,-398.67"/>
<text text-anchor="middle" x="1372.5" y="-405.67" font-family="Helvetica,sans-Serif" font-size="10.00">CCP_form_rtc</text>
</a>
</g>
</g>
<!-- Node45&#45;&gt;Node46 -->
<g id="edge51" class="edge">
<title>Node45&#45;&gt;Node46</title>
<path fill="none" stroke="midnightblue" d="M1250.22,-401.87C1272.7,-401.24 1298.57,-401.27 1320.63,-401.99"/>
<polygon fill="midnightblue" stroke="midnightblue" points="1320.67,-405.49 1330.79,-402.38 1320.94,-398.5 1320.67,-405.49"/>
</g>
<!-- Node46&#45;&gt;Node32 -->
<g id="edge52" class="edge">
<title>Node46&#45;&gt;Node32</title>
<path fill="none" stroke="midnightblue" d="M1404.33,-398.57C1416.78,-394.46 1431.2,-389.41 1444,-384.17 1472.19,-372.64 1503.44,-357.3 1525.04,-346.27"/>
<polygon fill="midnightblue" stroke="midnightblue" points="1526.67,-349.37 1533.96,-341.69 1523.47,-343.15 1526.67,-349.37"/>
</g>
<!-- Node46&#45;&gt;Node45 -->
<g id="edge53" class="edge">
<title>Node46&#45;&gt;Node45</title>
<path fill="none" stroke="midnightblue" d="M1330.79,-413.97C1309.94,-414.9 1284.03,-415.15 1260.49,-414.71"/>
<polygon fill="midnightblue" stroke="midnightblue" points="1260.3,-411.21 1250.22,-414.47 1260.14,-418.2 1260.3,-411.21"/>
</g>
<!-- Node46&#45;&gt;Node47 -->
<g id="edge54" class="edge">
<title>Node46&#45;&gt;Node47</title>
<path fill="none" stroke="midnightblue" d="M1414,-416.79C1439.09,-422.13 1471.58,-429.05 1498.73,-434.83"/>
<polygon fill="midnightblue" stroke="midnightblue" points="1498.34,-438.33 1508.85,-436.99 1499.8,-431.48 1498.34,-438.33"/>
</g>
<!-- Node47&#45;&gt;Node40 -->
<g id="edge59" class="edge">
<title>Node47&#45;&gt;Node40</title>
<path fill="none" stroke="midnightblue" d="M1567.2,-455.73C1582,-466.64 1606.47,-485.31 1626,-503.17 1643.16,-518.88 1641.88,-529.5 1662,-541.17 1666.22,-543.62 1670.75,-545.76 1675.42,-547.62"/>
<polygon fill="midnightblue" stroke="midnightblue" points="1674.56,-551.03 1685.16,-551.06 1676.9,-544.43 1674.56,-551.03"/>
</g>
<!-- Node47&#45;&gt;Node43 -->
<g id="edge63" class="edge">
<title>Node47&#45;&gt;Node43</title>
<path fill="none" stroke="midnightblue" d="M1569.17,-455.73C1589.58,-468.21 1627.31,-490.02 1662,-503.17 1673.09,-507.37 1685.42,-510.88 1696.95,-513.69"/>
<polygon fill="midnightblue" stroke="midnightblue" points="1696.28,-517.13 1706.82,-515.98 1697.87,-510.31 1696.28,-517.13"/>
</g>
<!-- Node48 -->
<g id="node42" class="node">
<title>Node48</title>
<g id="a_node42"><a xlink:href="common__cmd__packet_8h.html#a53e55e3275bb17840514876c95203402" target="_top" xlink:title="共通部分の Header を構築">
<polygon fill="white" stroke="black" points="1678.5,-398.67 1678.5,-417.67 1803.5,-417.67 1803.5,-398.67 1678.5,-398.67"/>
<text text-anchor="middle" x="1741" y="-405.67" font-family="Helvetica,sans-Serif" font-size="10.00">CCP_set_common_hdr</text>
</a>
</g>
</g>
<!-- Node47&#45;&gt;Node48 -->
<g id="edge55" class="edge">
<title>Node47&#45;&gt;Node48</title>
<path fill="none" stroke="midnightblue" d="M1597.14,-437.36C1622.75,-432.12 1655.53,-425.43 1683.23,-419.77"/>
<polygon fill="midnightblue" stroke="midnightblue" points="1684.09,-423.17 1693.18,-417.74 1682.69,-416.31 1684.09,-423.17"/>
</g>
<!-- Node64 -->
<g id="node44" class="node">
<title>Node64</title>
<g id="a_node44"><a xlink:href="common__cmd__packet_8h.html#a6ce61d959627cd955de389b10cadca90" target="_top" xlink:title="DEST_TYPE を設定">
<polygon fill="white" stroke="black" points="1686,-360.67 1686,-379.67 1796,-379.67 1796,-360.67 1686,-360.67"/>
<text text-anchor="middle" x="1741" y="-367.67" font-family="Helvetica,sans-Serif" font-size="10.00">CCP_set_dest_type</text>
</a>
</g>
</g>
<!-- Node47&#45;&gt;Node64 -->
<g id="edge57" class="edge">
<title>Node47&#45;&gt;Node64</title>
<path fill="none" stroke="midnightblue" d="M1569.17,-436.61C1589.58,-424.13 1627.31,-402.32 1662,-389.17 1668.72,-386.62 1675.9,-384.33 1683.08,-382.3"/>
<polygon fill="midnightblue" stroke="midnightblue" points="1684.07,-385.65 1692.82,-379.68 1682.25,-378.89 1684.07,-385.65"/>
</g>
<!-- Node66 -->
<g id="node46" class="node">
<title>Node66</title>
<g id="a_node46"><a xlink:href="common__cmd__packet_8h.html#ad3a6d476c3b56794c35a15e3a1d0a395" target="_top" xlink:title="CMD ID を設定">
<polygon fill="white" stroke="black" points="1705.5,-474.67 1705.5,-493.67 1776.5,-493.67 1776.5,-474.67 1705.5,-474.67"/>
<text text-anchor="middle" x="1741" y="-481.67" font-family="Helvetica,sans-Serif" font-size="10.00">CCP_set_id</text>
</a>
</g>
</g>
<!-- Node47&#45;&gt;Node66 -->
<g id="edge60" class="edge">
<title>Node47&#45;&gt;Node66</title>
<path fill="none" stroke="midnightblue" d="M1597.14,-454.98C1626.61,-461.01 1665.57,-468.96 1695.35,-475.05"/>
<polygon fill="midnightblue" stroke="midnightblue" points="1694.98,-478.55 1705.48,-477.12 1696.38,-471.69 1694.98,-478.55"/>
</g>
<!-- Node68 -->
<g id="node48" class="node">
<title>Node68</title>
<g id="a_node48"><a xlink:href="common__cmd__packet_8h.html#a07200400c567d95965dda94da0f55b67" target="_top" xlink:title="パラメタを設定">
<polygon fill="white" stroke="red" points="1694.5,-436.67 1694.5,-455.67 1787.5,-455.67 1787.5,-436.67 1694.5,-436.67"/>
<text text-anchor="middle" x="1741" y="-443.67" font-family="Helvetica,sans-Serif" font-size="10.00">CCP_set_param</text>
</a>
</g>
</g>
<!-- Node47&#45;&gt;Node68 -->
<g id="edge62" class="edge">
<title>Node47&#45;&gt;Node68</title>
<path fill="none" stroke="midnightblue" d="M1597.14,-446.17C1623.14,-446.17 1656.52,-446.17 1684.47,-446.17"/>
<polygon fill="midnightblue" stroke="midnightblue" points="1684.5,-449.67 1694.5,-446.17 1684.5,-442.67 1684.5,-449.67"/>
</g>
<!-- Node49 -->
<g id="node43" class="node">
<title>Node49</title>
<g id="a_node43"><a xlink:href="cmd__space__packet_8c.html#aa4f250d0b768ce918101f7959940b9da" target="_top" xlink:title="共通部分の Header を構築">
<polygon fill="white" stroke="red" points="1864,-398.67 1864,-417.67 1989,-417.67 1989,-398.67 1864,-398.67"/>
<text text-anchor="middle" x="1926.5" y="-405.67" font-family="Helvetica,sans-Serif" font-size="10.00">CSP_set_common_hdr</text>
</a>
</g>
</g>
<!-- Node48&#45;&gt;Node49 -->
<g id="edge56" class="edge">
<title>Node48&#45;&gt;Node49</title>
<path fill="none" stroke="midnightblue" d="M1803.61,-408.17C1819.65,-408.17 1837.07,-408.17 1853.59,-408.17"/>
<polygon fill="midnightblue" stroke="midnightblue" points="1853.74,-411.67 1863.74,-408.17 1853.74,-404.67 1853.74,-411.67"/>
</g>
<!-- Node65 -->
<g id="node45" class="node">
<title>Node65</title>
<g id="a_node45"><a xlink:href="cmd__space__packet_8c.html#a4083ff1a9dbe5894cfacf756d02a50a4" target="_top" xlink:title="Destination Type を設定">
<polygon fill="white" stroke="red" points="1872,-360.67 1872,-379.67 1981,-379.67 1981,-360.67 1872,-360.67"/>
<text text-anchor="middle" x="1926.5" y="-367.67" font-family="Helvetica,sans-Serif" font-size="10.00">CSP_set_dest_type</text>
</a>
</g>
</g>
<!-- Node64&#45;&gt;Node65 -->
<g id="edge58" class="edge">
<title>Node64&#45;&gt;Node65</title>
<path fill="none" stroke="midnightblue" d="M1796.06,-370.17C1816.6,-370.17 1840.18,-370.17 1861.54,-370.17"/>
<polygon fill="midnightblue" stroke="midnightblue" points="1861.82,-373.67 1871.82,-370.17 1861.82,-366.67 1861.82,-373.67"/>
</g>
<!-- Node67 -->
<g id="node47" class="node">
<title>Node67</title>
<g id="a_node47"><a xlink:href="cmd__space__packet_8c.html#a80ab9fe9f6561b18ef7b5a11ea0005b4" target="_top" xlink:title="Command ID を設定">
<polygon fill="white" stroke="red" points="1878.5,-474.67 1878.5,-493.67 1974.5,-493.67 1974.5,-474.67 1878.5,-474.67"/>
<text text-anchor="middle" x="1926.5" y="-481.67" font-family="Helvetica,sans-Serif" font-size="10.00">CSP_set_cmd_id</text>
</a>
</g>
</g>
<!-- Node66&#45;&gt;Node67 -->
<g id="edge61" class="edge">
<title>Node66&#45;&gt;Node67</title>
<path fill="none" stroke="midnightblue" d="M1776.51,-484.17C1802.24,-484.17 1837.96,-484.17 1867.97,-484.17"/>
<polygon fill="midnightblue" stroke="midnightblue" points="1868.33,-487.67 1878.33,-484.17 1868.33,-480.67 1868.33,-487.67"/>
</g>
<!-- Node74 -->
<g id="node50" class="node">
<title>Node74</title>
<g id="a_node50"><a xlink:href="wdt_8h.html#af3567f91375b210554b07571f3a5120b" target="_top" xlink:title="WDTのカウンタクリア">
<polygon fill="white" stroke="black" points="526,-208.67 526,-227.67 595,-227.67 595,-208.67 526,-208.67"/>
<text text-anchor="middle" x="560.5" y="-215.67" font-family="Helvetica,sans-Serif" font-size="10.00">WDT_clear</text>
</a>
</g>
</g>
<!-- Node73&#45;&gt;Node74 -->
<g id="edge66" class="edge">
<title>Node73&#45;&gt;Node74</title>
<path fill="none" stroke="midnightblue" d="M424.92,-218.17C452.72,-218.17 488.11,-218.17 515.62,-218.17"/>
<polygon fill="midnightblue" stroke="midnightblue" points="515.74,-221.67 525.74,-218.17 515.74,-214.67 515.74,-221.67"/>
</g>
</g>
</svg>
