<?xml version="1.0" encoding="UTF-8" standalone="no"?>
<!DOCTYPE svg PUBLIC "-//W3C//DTD SVG 1.1//EN"
 "http://www.w3.org/Graphics/SVG/1.1/DTD/svg11.dtd">
<!-- Generated by graphviz version 2.43.0 (0)
 -->
<!-- Title: Cmd_TLM_MGR_STOP_TLM Pages: 1 -->
<svg width="835pt" height="389pt"
 viewBox="0.00 0.00 835.00 389.00" xmlns="http://www.w3.org/2000/svg" xmlns:xlink="http://www.w3.org/1999/xlink">
<g id="graph0" class="graph" transform="scale(1 1) rotate(0) translate(4 385)">
<title>Cmd_TLM_MGR_STOP_TLM</title>
<polygon fill="white" stroke="transparent" points="-4,4 -4,-385 831,-385 831,4 -4,4"/>
<!-- Node1 -->
<g id="node1" class="node">
<title>Node1</title>
<g id="a_node1"><a xlink:title="TLM送出一時停止">
<polygon fill="#bfbfbf" stroke="black" points="0,-304.5 0,-323.5 149,-323.5 149,-304.5 0,-304.5"/>
<text text-anchor="middle" x="74.5" y="-311.5" font-family="Helvetica,sans-Serif" font-size="10.00">Cmd_TLM_MGR_STOP_TLM</text>
</a>
</g>
</g>
<!-- Node2 -->
<g id="node2" class="node">
<title>Node2</title>
<g id="a_node2"><a xlink:href="block__command__table_8c.html#a2843560950369ecdb9e35801795b54db" target="_top" xlink:title="BCT_Pos* を引数から作る">
<polygon fill="white" stroke="black" points="196.5,-361.5 196.5,-380.5 287.5,-380.5 287.5,-361.5 196.5,-361.5"/>
<text text-anchor="middle" x="242" y="-368.5" font-family="Helvetica,sans-Serif" font-size="10.00">BCT_make_pos</text>
</a>
</g>
</g>
<!-- Node1&#45;&gt;Node2 -->
<g id="edge1" class="edge">
<title>Node1&#45;&gt;Node2</title>
<path fill="none" stroke="midnightblue" d="M103.2,-323.54C130.65,-332.99 172.88,-347.54 203.36,-358.04"/>
<polygon fill="midnightblue" stroke="midnightblue" points="202.61,-361.48 213.21,-361.43 204.89,-354.86 202.61,-361.48"/>
</g>
<!-- Node4 -->
<g id="node4" class="node">
<title>Node4</title>
<g id="a_node4"><a xlink:href="block__command__table_8c.html#a6c68ae4cb7426d4d93eea6d94f4948fd" target="_top" xlink:title="既に登録されている BC の Cmd の中身を外部から上書きする">
<polygon fill="white" stroke="black" points="185,-304.5 185,-323.5 299,-323.5 299,-304.5 185,-304.5"/>
<text text-anchor="middle" x="242" y="-311.5" font-family="Helvetica,sans-Serif" font-size="10.00">BCT_overwrite_cmd</text>
</a>
</g>
</g>
<!-- Node1&#45;&gt;Node4 -->
<g id="edge3" class="edge">
<title>Node1&#45;&gt;Node4</title>
<path fill="none" stroke="midnightblue" d="M149.05,-314C157.52,-314 166.12,-314 174.49,-314"/>
<polygon fill="midnightblue" stroke="midnightblue" points="174.56,-317.5 184.56,-314 174.56,-310.5 174.56,-317.5"/>
</g>
<!-- Node10 -->
<g id="node10" class="node">
<title>Node10</title>
<g id="a_node10"><a xlink:href="common__tlm__cmd__packet__util_8c.html#aa6724382fdc7221804d8649c76ca6d5f" target="_top" xlink:title="Timeline command を生成">
<polygon fill="white" stroke="black" points="201,-133.5 201,-152.5 283,-152.5 283,-133.5 201,-133.5"/>
<text text-anchor="middle" x="242" y="-140.5" font-family="Helvetica,sans-Serif" font-size="10.00">CCP_form_tlc</text>
</a>
</g>
</g>
<!-- Node1&#45;&gt;Node10 -->
<g id="edge11" class="edge">
<title>Node1&#45;&gt;Node10</title>
<path fill="none" stroke="midnightblue" d="M84.87,-304.32C111.95,-276.33 190.56,-195.12 224.77,-159.77"/>
<polygon fill="midnightblue" stroke="midnightblue" points="227.29,-162.2 231.73,-152.58 222.26,-157.33 227.29,-162.2"/>
</g>
<!-- Node3 -->
<g id="node3" class="node">
<title>Node3</title>
<g id="a_node3"><a xlink:href="block__command__table_8c.html#ae25a57a4a97b49bf13a4caa0b5e8ff76" target="_top" xlink:title="BCT_Pos* の validate">
<polygon fill="white" stroke="black" points="536,-342.5 536,-361.5 650,-361.5 650,-342.5 536,-342.5"/>
<text text-anchor="middle" x="593" y="-349.5" font-family="Helvetica,sans-Serif" font-size="10.00">BCT_check_position</text>
</a>
</g>
</g>
<!-- Node2&#45;&gt;Node3 -->
<g id="edge2" class="edge">
<title>Node2&#45;&gt;Node3</title>
<path fill="none" stroke="midnightblue" d="M287.81,-371.45C335.7,-371.61 413.82,-370.93 481,-366 495.56,-364.93 511.14,-363.28 525.88,-361.49"/>
<polygon fill="midnightblue" stroke="midnightblue" points="526.44,-364.95 535.93,-360.23 525.57,-358 526.44,-364.95"/>
</g>
<!-- Node4&#45;&gt;Node3 -->
<g id="edge4" class="edge">
<title>Node4&#45;&gt;Node3</title>
<path fill="none" stroke="midnightblue" d="M283.56,-323.56C299.52,-327.01 318.04,-330.63 335,-333 399.49,-342 473.72,-346.91 525.77,-349.47"/>
<polygon fill="midnightblue" stroke="midnightblue" points="525.72,-352.97 535.88,-349.95 526.06,-345.98 525.72,-352.97"/>
</g>
<!-- Node5 -->
<g id="node5" class="node">
<title>Node5</title>
<g id="a_node5"><a xlink:href="block__command__table_8c.html#add2db8412ac7b28b2e61d99638daaac5" target="_top" xlink:title="BCT の length の getter">
<polygon fill="white" stroke="black" points="353,-304.5 353,-323.5 463,-323.5 463,-304.5 353,-304.5"/>
<text text-anchor="middle" x="408" y="-311.5" font-family="Helvetica,sans-Serif" font-size="10.00">BCT_get_bc_length</text>
</a>
</g>
</g>
<!-- Node4&#45;&gt;Node5 -->
<g id="edge5" class="edge">
<title>Node4&#45;&gt;Node5</title>
<path fill="none" stroke="midnightblue" d="M299.44,-314C313.38,-314 328.42,-314 342.7,-314"/>
<polygon fill="midnightblue" stroke="midnightblue" points="342.95,-317.5 352.95,-314 342.95,-310.5 342.95,-317.5"/>
</g>
<!-- Node6 -->
<g id="node6" class="node">
<title>Node6</title>
<g id="a_node6"><a xlink:href="block__command__table_8c.html#a452f0a76d249ba2bd1d66a0312d71f02" target="_top" xlink:title="pos の指す場所に packet の内容を保存 (TCP_PRM_HDR_LEN の長さも考慮)">
<polygon fill="white" stroke="black" points="360,-266.5 360,-285.5 456,-285.5 456,-266.5 360,-266.5"/>
<text text-anchor="middle" x="408" y="-273.5" font-family="Helvetica,sans-Serif" font-size="10.00">BCT_save_cmd_</text>
</a>
</g>
</g>
<!-- Node4&#45;&gt;Node6 -->
<g id="edge6" class="edge">
<title>Node4&#45;&gt;Node6</title>
<path fill="none" stroke="midnightblue" d="M284.38,-304.41C306.12,-299.37 332.96,-293.16 355.97,-287.82"/>
<polygon fill="midnightblue" stroke="midnightblue" points="356.96,-291.19 365.91,-285.52 355.38,-284.37 356.96,-291.19"/>
</g>
<!-- Node6&#45;&gt;Node3 -->
<g id="edge7" class="edge">
<title>Node6&#45;&gt;Node3</title>
<path fill="none" stroke="midnightblue" d="M456.22,-284.44C464.81,-287.07 473.44,-290.52 481,-295 501.01,-306.87 496.93,-321.23 517,-333 520.72,-335.18 524.68,-337.11 528.76,-338.82"/>
<polygon fill="midnightblue" stroke="midnightblue" points="527.88,-342.22 538.47,-342.43 530.32,-335.66 527.88,-342.22"/>
</g>
<!-- Node7 -->
<g id="node7" class="node">
<title>Node7</title>
<g id="a_node7"><a xlink:href="block__command__table_8c.html#a5099527d441a777f4656300ab41037da" target="_top" xlink:title=" ">
<polygon fill="white" stroke="black" points="527.5,-304.5 527.5,-323.5 658.5,-323.5 658.5,-304.5 527.5,-304.5"/>
<text text-anchor="middle" x="593" y="-311.5" font-family="Helvetica,sans-Serif" font-size="10.00">BCT_set_bc_cmd_data_</text>
</a>
</g>
</g>
<!-- Node6&#45;&gt;Node7 -->
<g id="edge8" class="edge">
<title>Node6&#45;&gt;Node7</title>
<path fill="none" stroke="midnightblue" d="M455.18,-285.59C479.76,-290.69 510.19,-297.01 536.1,-302.39"/>
<polygon fill="midnightblue" stroke="midnightblue" points="535.65,-305.87 546.15,-304.48 537.07,-299.02 535.65,-305.87"/>
</g>
<!-- Node8 -->
<g id="node8" class="node">
<title>Node8</title>
<g id="a_node8"><a xlink:href="common__tlm__cmd__packet_8h.html#ad78165495f290e15c34fba3c5acb1c34" target="_top" xlink:title="CTCP (CCP) のパケット長を取得">
<polygon fill="white" stroke="black" points="535.5,-266.5 535.5,-285.5 650.5,-285.5 650.5,-266.5 535.5,-266.5"/>
<text text-anchor="middle" x="593" y="-273.5" font-family="Helvetica,sans-Serif" font-size="10.00">CCP_get_packet_len</text>
</a>
</g>
</g>
<!-- Node6&#45;&gt;Node8 -->
<g id="edge9" class="edge">
<title>Node6&#45;&gt;Node8</title>
<path fill="none" stroke="midnightblue" d="M456.13,-276C477.16,-276 502.32,-276 525.24,-276"/>
<polygon fill="midnightblue" stroke="midnightblue" points="525.25,-279.5 535.25,-276 525.25,-272.5 525.25,-279.5"/>
</g>
<!-- Node9 -->
<g id="node9" class="node">
<title>Node9</title>
<g id="a_node9"><a xlink:href="_t_c_packet_8c.html#a4088b7a1b29268cecc23866a45238fd6" target="_top" xlink:title="Packet Length を取得">
<polygon fill="white" stroke="black" points="709.5,-361.5 709.5,-380.5 822.5,-380.5 822.5,-361.5 709.5,-361.5"/>
<text text-anchor="middle" x="766" y="-368.5" font-family="Helvetica,sans-Serif" font-size="10.00">TCP_get_packet_len</text>
</a>
</g>
</g>
<!-- Node8&#45;&gt;Node9 -->
<g id="edge10" class="edge">
<title>Node8&#45;&gt;Node9</title>
<path fill="none" stroke="midnightblue" d="M650.59,-285.3C657.14,-287.8 663.46,-290.98 669,-295 693.25,-312.6 681.28,-333.7 705,-352 707.43,-353.87 710.05,-355.57 712.79,-357.09"/>
<polygon fill="midnightblue" stroke="midnightblue" points="711.32,-360.27 721.85,-361.43 714.34,-353.96 711.32,-360.27"/>
</g>
<!-- Node11 -->
<g id="node11" class="node">
<title>Node11</title>
<g id="a_node11"><a xlink:href="command__analyze_8c.html#ae878a1a8ce00cc7468fbdd5bc5aba864" target="_top" xlink:title="コマンドパラメタ長をチェックする">
<polygon fill="white" stroke="black" points="335,-228.5 335,-247.5 481,-247.5 481,-228.5 335,-228.5"/>
<text text-anchor="middle" x="408" y="-235.5" font-family="Helvetica,sans-Serif" font-size="10.00">CA_ckeck_cmd_param_len</text>
</a>
</g>
</g>
<!-- Node10&#45;&gt;Node11 -->
<g id="edge12" class="edge">
<title>Node10&#45;&gt;Node11</title>
<path fill="none" stroke="midnightblue" d="M251.94,-152.73C267.33,-168.91 300.53,-201.31 335,-219 339.56,-221.34 344.43,-223.41 349.4,-225.24"/>
<polygon fill="midnightblue" stroke="midnightblue" points="348.46,-228.61 359.05,-228.46 350.68,-221.97 348.46,-228.61"/>
</g>
<!-- Node13 -->
<g id="node13" class="node">
<title>Node13</title>
<g id="a_node13"><a xlink:href="common__tlm__cmd__packet_8h.html#a2b44a3a9eed1859231570465d73e9ed7" target="_top" xlink:title="共通部分の Header を構築">
<polygon fill="white" stroke="black" points="345.5,-190.5 345.5,-209.5 470.5,-209.5 470.5,-190.5 345.5,-190.5"/>
<text text-anchor="middle" x="408" y="-197.5" font-family="Helvetica,sans-Serif" font-size="10.00">CCP_set_common_hdr</text>
</a>
</g>
</g>
<!-- Node10&#45;&gt;Node13 -->
<g id="edge14" class="edge">
<title>Node10&#45;&gt;Node13</title>
<path fill="none" stroke="midnightblue" d="M263.89,-152.57C282.34,-160.79 310.11,-172.62 335,-181 342.16,-183.41 349.79,-185.71 357.32,-187.82"/>
<polygon fill="midnightblue" stroke="midnightblue" points="356.54,-191.24 367.11,-190.49 358.38,-184.48 356.54,-191.24"/>
</g>
<!-- Node23 -->
<g id="node23" class="node">
<title>Node23</title>
<g id="a_node23"><a xlink:href="common__tlm__cmd__packet_8h.html#a7da518ebeaff8d04bb1317b4a1752f59" target="_top" xlink:title="DEST_TYPE を設定">
<polygon fill="white" stroke="black" points="353,-152.5 353,-171.5 463,-171.5 463,-152.5 353,-152.5"/>
<text text-anchor="middle" x="408" y="-159.5" font-family="Helvetica,sans-Serif" font-size="10.00">CCP_set_dest_type</text>
</a>
</g>
</g>
<!-- Node10&#45;&gt;Node23 -->
<g id="edge24" class="edge">
<title>Node10&#45;&gt;Node23</title>
<path fill="none" stroke="midnightblue" d="M283.12,-147.65C301.05,-149.72 322.63,-152.22 342.72,-154.55"/>
<polygon fill="midnightblue" stroke="midnightblue" points="342.41,-158.04 352.75,-155.71 343.21,-151.09 342.41,-158.04"/>
</g>
<!-- Node25 -->
<g id="node25" class="node">
<title>Node25</title>
<g id="a_node25"><a xlink:href="common__tlm__cmd__packet_8h.html#a0e4a5753372aa95e6d8f0e3e935ed8f2" target="_top" xlink:title="EXEC_TYPE を設定">
<polygon fill="white" stroke="black" points="352.5,-114.5 352.5,-133.5 463.5,-133.5 463.5,-114.5 352.5,-114.5"/>
<text text-anchor="middle" x="408" y="-121.5" font-family="Helvetica,sans-Serif" font-size="10.00">CCP_set_exec_type</text>
</a>
</g>
</g>
<!-- Node10&#45;&gt;Node25 -->
<g id="edge26" class="edge">
<title>Node10&#45;&gt;Node25</title>
<path fill="none" stroke="midnightblue" d="M283.12,-138.35C300.97,-136.28 322.43,-133.8 342.44,-131.48"/>
<polygon fill="midnightblue" stroke="midnightblue" points="342.91,-134.95 352.44,-130.32 342.1,-128 342.91,-134.95"/>
</g>
<!-- Node27 -->
<g id="node27" class="node">
<title>Node27</title>
<g id="a_node27"><a xlink:href="common__tlm__cmd__packet_8h.html#a9f065f596d9b7f58a96e6b46181db85f" target="_top" xlink:title="CMD ID を設定">
<polygon fill="white" stroke="black" points="372.5,-76.5 372.5,-95.5 443.5,-95.5 443.5,-76.5 372.5,-76.5"/>
<text text-anchor="middle" x="408" y="-83.5" font-family="Helvetica,sans-Serif" font-size="10.00">CCP_set_id</text>
</a>
</g>
</g>
<!-- Node10&#45;&gt;Node27 -->
<g id="edge28" class="edge">
<title>Node10&#45;&gt;Node27</title>
<path fill="none" stroke="midnightblue" d="M263.89,-133.43C282.34,-125.21 310.11,-113.38 335,-105 343.82,-102.03 353.37,-99.23 362.54,-96.74"/>
<polygon fill="midnightblue" stroke="midnightblue" points="363.52,-100.1 372.3,-94.16 361.73,-93.33 363.52,-100.1"/>
</g>
<!-- Node29 -->
<g id="node29" class="node">
<title>Node29</title>
<g id="a_node29"><a xlink:href="common__tlm__cmd__packet_8h.html#a8f2922ca6def0a502e00d7014da4c398" target="_top" xlink:title="パラメタを設定">
<polygon fill="white" stroke="black" points="361.5,-38.5 361.5,-57.5 454.5,-57.5 454.5,-38.5 361.5,-38.5"/>
<text text-anchor="middle" x="408" y="-45.5" font-family="Helvetica,sans-Serif" font-size="10.00">CCP_set_param</text>
</a>
</g>
</g>
<!-- Node10&#45;&gt;Node29 -->
<g id="edge30" class="edge">
<title>Node10&#45;&gt;Node29</title>
<path fill="none" stroke="midnightblue" d="M251.94,-133.27C267.33,-117.09 300.53,-84.69 335,-67 340.23,-64.31 345.88,-61.98 351.62,-59.97"/>
<polygon fill="midnightblue" stroke="midnightblue" points="352.88,-63.24 361.34,-56.86 350.75,-56.57 352.88,-63.24"/>
</g>
<!-- Node32 -->
<g id="node32" class="node">
<title>Node32</title>
<g id="a_node32"><a xlink:href="common__tlm__cmd__packet_8h.html#a1a044b1b84588ee16221581830757741" target="_top" xlink:title="TI を設定">
<polygon fill="white" stroke="black" points="374,-0.5 374,-19.5 442,-19.5 442,-0.5 374,-0.5"/>
<text text-anchor="middle" x="408" y="-7.5" font-family="Helvetica,sans-Serif" font-size="10.00">CCP_set_ti</text>
</a>
</g>
</g>
<!-- Node10&#45;&gt;Node32 -->
<g id="edge33" class="edge">
<title>Node10&#45;&gt;Node32</title>
<path fill="none" stroke="midnightblue" d="M247.97,-133.32C259.85,-111.22 292.1,-56.8 335,-29 343.63,-23.41 353.84,-19.46 363.82,-16.67"/>
<polygon fill="midnightblue" stroke="midnightblue" points="364.78,-20.04 373.66,-14.25 363.11,-13.24 364.78,-20.04"/>
</g>
<!-- Node12 -->
<g id="node12" class="node">
<title>Node12</title>
<g id="a_node12"><a xlink:href="common__tlm__cmd__packet_8h.html#a0cb576a77e94553c22d9cb70a6fd50f1" target="_top" xlink:title="CMD パラメタ長の最大値を取得">
<polygon fill="white" stroke="black" points="522.5,-228.5 522.5,-247.5 663.5,-247.5 663.5,-228.5 522.5,-228.5"/>
<text text-anchor="middle" x="593" y="-235.5" font-family="Helvetica,sans-Serif" font-size="10.00">CCP_get_max_param_len</text>
</a>
</g>
</g>
<!-- Node11&#45;&gt;Node12 -->
<g id="edge13" class="edge">
<title>Node11&#45;&gt;Node12</title>
<path fill="none" stroke="midnightblue" d="M481.06,-238C491.27,-238 501.81,-238 512.14,-238"/>
<polygon fill="midnightblue" stroke="midnightblue" points="512.4,-241.5 522.4,-238 512.4,-234.5 512.4,-241.5"/>
</g>
<!-- Node14 -->
<g id="node14" class="node">
<title>Node14</title>
<g id="a_node14"><a xlink:href="_t_c_packet_8c.html#af12da708e39852c835970a582c3de7a6" target="_top" xlink:title="共通部分の Header を構築">
<polygon fill="white" stroke="black" points="517,-190.5 517,-209.5 669,-209.5 669,-190.5 517,-190.5"/>
<text text-anchor="middle" x="593" y="-197.5" font-family="Helvetica,sans-Serif" font-size="10.00">TCP_CMD_set_common_hdr</text>
</a>
</g>
</g>
<!-- Node13&#45;&gt;Node14 -->
<g id="edge15" class="edge">
<title>Node13&#45;&gt;Node14</title>
<path fill="none" stroke="midnightblue" d="M470.7,-200C482.29,-200 494.6,-200 506.76,-200"/>
<polygon fill="midnightblue" stroke="midnightblue" points="506.92,-203.5 516.92,-200 506.92,-196.5 506.92,-203.5"/>
</g>
<!-- Node15 -->
<g id="node15" class="node">
<title>Node15</title>
<g id="a_node15"><a xlink:href="_t_c_packet_8c.html#a39b6f6b6ba2c5dd4578d623eeb4f2daf" target="_top" xlink:title="Format ID を設定">
<polygon fill="white" stroke="black" points="706,-323.5 706,-342.5 826,-342.5 826,-323.5 706,-323.5"/>
<text text-anchor="middle" x="766" y="-330.5" font-family="Helvetica,sans-Serif" font-size="10.00">TCP_CMD_set_fmt_id</text>
</a>
</g>
</g>
<!-- Node14&#45;&gt;Node15 -->
<g id="edge16" class="edge">
<title>Node14&#45;&gt;Node15</title>
<path fill="none" stroke="midnightblue" d="M654.41,-209.59C659.71,-212.07 664.69,-215.16 669,-219 702.7,-249.05 672.2,-282.97 705,-314 706.68,-315.59 708.49,-317.04 710.39,-318.37"/>
<polygon fill="midnightblue" stroke="midnightblue" points="708.87,-321.53 719.28,-323.47 712.35,-315.46 708.87,-321.53"/>
</g>
<!-- Node16 -->
<g id="node16" class="node">
<title>Node16</title>
<g id="a_node16"><a xlink:href="_t_c_packet_8c.html#a12ed3d87d3ffd43cd39b80f9c421b7f8" target="_top" xlink:title="Command Type を設定">
<polygon fill="white" stroke="black" points="711,-285.5 711,-304.5 821,-304.5 821,-285.5 711,-285.5"/>
<text text-anchor="middle" x="766" y="-292.5" font-family="Helvetica,sans-Serif" font-size="10.00">TCP_CMD_set_type</text>
</a>
</g>
</g>
<!-- Node14&#45;&gt;Node16 -->
<g id="edge17" class="edge">
<title>Node14&#45;&gt;Node16</title>
<path fill="none" stroke="midnightblue" d="M651.36,-209.6C657.64,-212.05 663.67,-215.13 669,-219 693.25,-236.6 681.28,-257.7 705,-276 707.43,-277.87 710.05,-279.57 712.79,-281.09"/>
<polygon fill="midnightblue" stroke="midnightblue" points="711.32,-284.27 721.85,-285.43 714.34,-277.96 711.32,-284.27"/>
</g>
<!-- Node17 -->
<g id="node17" class="node">
<title>Node17</title>
<g id="a_node17"><a xlink:href="_t_c_packet_8c.html#a32bccc7ebc63b95774d1fa64beec2840" target="_top" xlink:title="TCP Secondary Header Flag を設定">
<polygon fill="white" stroke="black" points="705,-247.5 705,-266.5 827,-266.5 827,-247.5 705,-247.5"/>
<text text-anchor="middle" x="766" y="-254.5" font-family="Helvetica,sans-Serif" font-size="10.00">TCP_set_2nd_hdr_flag</text>
</a>
</g>
</g>
<!-- Node14&#45;&gt;Node17 -->
<g id="edge18" class="edge">
<title>Node14&#45;&gt;Node17</title>
<path fill="none" stroke="midnightblue" d="M638.96,-209.54C648.99,-212.18 659.47,-215.34 669,-219 685.89,-225.49 688.31,-231.02 705,-238 710.36,-240.24 716.08,-242.37 721.78,-244.34"/>
<polygon fill="midnightblue" stroke="midnightblue" points="720.7,-247.67 731.29,-247.49 722.9,-241.02 720.7,-247.67"/>
</g>
<!-- Node18 -->
<g id="node18" class="node">
<title>Node18</title>
<g id="a_node18"><a xlink:href="_t_c_packet_8c.html#aa1d3b2e538140f4553a267ccd1e4086d" target="_top" xlink:title="APID を設定">
<polygon fill="white" stroke="black" points="725.5,-209.5 725.5,-228.5 806.5,-228.5 806.5,-209.5 725.5,-209.5"/>
<text text-anchor="middle" x="766" y="-216.5" font-family="Helvetica,sans-Serif" font-size="10.00">TCP_set_apid</text>
</a>
</g>
</g>
<!-- Node14&#45;&gt;Node18 -->
<g id="edge19" class="edge">
<title>Node14&#45;&gt;Node18</title>
<path fill="none" stroke="midnightblue" d="M669,-208.33C684.6,-210.07 700.67,-211.85 715.1,-213.46"/>
<polygon fill="midnightblue" stroke="midnightblue" points="714.95,-216.96 725.28,-214.59 715.73,-210 714.95,-216.96"/>
</g>
<!-- Node19 -->
<g id="node19" class="node">
<title>Node19</title>
<g id="a_node19"><a xlink:href="_t_c_packet_8c.html#af3c9a103fe8e323fde490d0fd9ff2524" target="_top" xlink:title="Sequence Count を設定">
<polygon fill="white" stroke="black" points="717,-171.5 717,-190.5 815,-190.5 815,-171.5 717,-171.5"/>
<text text-anchor="middle" x="766" y="-178.5" font-family="Helvetica,sans-Serif" font-size="10.00">TCP_set_seq_cnt</text>
</a>
</g>
</g>
<!-- Node14&#45;&gt;Node19 -->
<g id="edge20" class="edge">
<title>Node14&#45;&gt;Node19</title>
<path fill="none" stroke="midnightblue" d="M669,-191.67C681.62,-190.26 694.55,-188.83 706.67,-187.48"/>
<polygon fill="midnightblue" stroke="midnightblue" points="707.08,-190.96 716.63,-186.37 706.31,-184 707.08,-190.96"/>
</g>
<!-- Node20 -->
<g id="node20" class="node">
<title>Node20</title>
<g id="a_node20"><a xlink:href="_t_c_packet_8c.html#a97376550c537197a526ee85a84bec294" target="_top" xlink:title="Sequence Flag を設定">
<polygon fill="white" stroke="black" points="715.5,-133.5 715.5,-152.5 816.5,-152.5 816.5,-133.5 715.5,-133.5"/>
<text text-anchor="middle" x="766" y="-140.5" font-family="Helvetica,sans-Serif" font-size="10.00">TCP_set_seq_flag</text>
</a>
</g>
</g>
<!-- Node14&#45;&gt;Node20 -->
<g id="edge21" class="edge">
<title>Node14&#45;&gt;Node20</title>
<path fill="none" stroke="midnightblue" d="M638.96,-190.46C648.99,-187.82 659.47,-184.66 669,-181 685.89,-174.51 688.31,-168.98 705,-162 710.36,-159.76 716.08,-157.63 721.78,-155.66"/>
<polygon fill="midnightblue" stroke="midnightblue" points="722.9,-158.98 731.29,-152.51 720.7,-152.33 722.9,-158.98"/>
</g>
<!-- Node21 -->
<g id="node21" class="node">
<title>Node21</title>
<g id="a_node21"><a xlink:href="_t_c_packet_8c.html#af10044126dd5355bb5d2b9eab4bbaeae" target="_top" xlink:title="TCP type を設定">
<polygon fill="white" stroke="black" points="725,-95.5 725,-114.5 807,-114.5 807,-95.5 725,-95.5"/>
<text text-anchor="middle" x="766" y="-102.5" font-family="Helvetica,sans-Serif" font-size="10.00">TCP_set_type</text>
</a>
</g>
</g>
<!-- Node14&#45;&gt;Node21 -->
<g id="edge22" class="edge">
<title>Node14&#45;&gt;Node21</title>
<path fill="none" stroke="midnightblue" d="M651.36,-190.4C657.64,-187.95 663.67,-184.87 669,-181 693.25,-163.4 681.28,-142.3 705,-124 708.22,-121.52 711.77,-119.36 715.48,-117.47"/>
<polygon fill="midnightblue" stroke="midnightblue" points="717.19,-120.55 724.97,-113.35 714.4,-114.13 717.19,-120.55"/>
</g>
<!-- Node22 -->
<g id="node22" class="node">
<title>Node22</title>
<g id="a_node22"><a xlink:href="_t_c_packet_8c.html#ab67ca189d1e2404cc22dcb2a0fbc7b03" target="_top" xlink:title="TCP ver を設定">
<polygon fill="white" stroke="black" points="728,-57.5 728,-76.5 804,-76.5 804,-57.5 728,-57.5"/>
<text text-anchor="middle" x="766" y="-64.5" font-family="Helvetica,sans-Serif" font-size="10.00">TCP_set_ver</text>
</a>
</g>
</g>
<!-- Node14&#45;&gt;Node22 -->
<g id="edge23" class="edge">
<title>Node14&#45;&gt;Node22</title>
<path fill="none" stroke="midnightblue" d="M654.41,-190.41C659.71,-187.93 664.69,-184.84 669,-181 702.7,-150.95 672.2,-117.03 705,-86 708.87,-82.34 713.44,-79.38 718.31,-77"/>
<polygon fill="midnightblue" stroke="midnightblue" points="719.98,-80.09 727.92,-73.08 717.34,-73.61 719.98,-80.09"/>
</g>
<!-- Node24 -->
<g id="node24" class="node">
<title>Node24</title>
<g id="a_node24"><a xlink:href="_t_c_packet_8c.html#a2aec696023015465579550bc71505994" target="_top" xlink:title="CMD_DEST_TYPE を設定">
<polygon fill="white" stroke="black" points="524.5,-152.5 524.5,-171.5 661.5,-171.5 661.5,-152.5 524.5,-152.5"/>
<text text-anchor="middle" x="593" y="-159.5" font-family="Helvetica,sans-Serif" font-size="10.00">TCP_CMD_set_dest_type</text>
</a>
</g>
</g>
<!-- Node23&#45;&gt;Node24 -->
<g id="edge25" class="edge">
<title>Node23&#45;&gt;Node24</title>
<path fill="none" stroke="midnightblue" d="M463.41,-162C479.2,-162 496.77,-162 513.72,-162"/>
<polygon fill="midnightblue" stroke="midnightblue" points="514.17,-165.5 524.17,-162 514.17,-158.5 514.17,-165.5"/>
</g>
<!-- Node26 -->
<g id="node26" class="node">
<title>Node26</title>
<g id="a_node26"><a xlink:href="_t_c_packet_8c.html#a4cefa4f71a3b4a61bed4daac5b4c4810" target="_top" xlink:title="EXEC_TYPE を設定">
<polygon fill="white" stroke="black" points="524,-114.5 524,-133.5 662,-133.5 662,-114.5 524,-114.5"/>
<text text-anchor="middle" x="593" y="-121.5" font-family="Helvetica,sans-Serif" font-size="10.00">TCP_CMD_set_exec_type</text>
</a>
</g>
</g>
<!-- Node25&#45;&gt;Node26 -->
<g id="edge27" class="edge">
<title>Node25&#45;&gt;Node26</title>
<path fill="none" stroke="midnightblue" d="M463.91,-124C479.51,-124 496.82,-124 513.53,-124"/>
<polygon fill="midnightblue" stroke="midnightblue" points="513.84,-127.5 523.84,-124 513.84,-120.5 513.84,-127.5"/>
</g>
<!-- Node28 -->
<g id="node28" class="node">
<title>Node28</title>
<g id="a_node28"><a xlink:href="_t_c_packet_8c.html#af16559aa68f7cd01900db1b8630dc920" target="_top" xlink:title="channel ID を設定">
<polygon fill="white" stroke="black" points="522.5,-76.5 522.5,-95.5 663.5,-95.5 663.5,-76.5 522.5,-76.5"/>
<text text-anchor="middle" x="593" y="-83.5" font-family="Helvetica,sans-Serif" font-size="10.00">TCP_CMD_set_channel_id</text>
</a>
</g>
</g>
<!-- Node27&#45;&gt;Node28 -->
<g id="edge29" class="edge">
<title>Node27&#45;&gt;Node28</title>
<path fill="none" stroke="midnightblue" d="M443.85,-86C463.27,-86 488.3,-86 512.24,-86"/>
<polygon fill="midnightblue" stroke="midnightblue" points="512.41,-89.5 522.41,-86 512.41,-82.5 512.41,-89.5"/>
</g>
<!-- Node30 -->
<g id="node30" class="node">
<title>Node30</title>
<g id="a_node30"><a xlink:href="_t_c_packet_8c.html#a472318d3057151be89449b1e4129d3ad" target="_top" xlink:title="パラメタを設定">
<polygon fill="white" stroke="black" points="533,-38.5 533,-57.5 653,-57.5 653,-38.5 533,-38.5"/>
<text text-anchor="middle" x="593" y="-45.5" font-family="Helvetica,sans-Serif" font-size="10.00">TCP_CMD_set_param</text>
</a>
</g>
</g>
<!-- Node29&#45;&gt;Node30 -->
<g id="edge31" class="edge">
<title>Node29&#45;&gt;Node30</title>
<path fill="none" stroke="midnightblue" d="M454.71,-48C475.18,-48 499.77,-48 522.45,-48"/>
<polygon fill="midnightblue" stroke="midnightblue" points="522.72,-51.5 532.72,-48 522.72,-44.5 522.72,-51.5"/>
</g>
<!-- Node31 -->
<g id="node31" class="node">
<title>Node31</title>
<g id="a_node31"><a xlink:href="_t_c_packet_8c.html#a4046c466cc06ed602ea076f653433979" target="_top" xlink:title="Packet Length を設定">
<polygon fill="white" stroke="black" points="709.5,-19.5 709.5,-38.5 822.5,-38.5 822.5,-19.5 709.5,-19.5"/>
<text text-anchor="middle" x="766" y="-26.5" font-family="Helvetica,sans-Serif" font-size="10.00">TCP_set_packet_len</text>
</a>
</g>
</g>
<!-- Node30&#45;&gt;Node31 -->
<g id="edge32" class="edge">
<title>Node30&#45;&gt;Node31</title>
<path fill="none" stroke="midnightblue" d="M653.33,-41.41C668.06,-39.77 683.94,-38.01 698.98,-36.34"/>
<polygon fill="midnightblue" stroke="midnightblue" points="699.67,-39.78 709.23,-35.2 698.9,-32.82 699.67,-39.78"/>
</g>
<!-- Node33 -->
<g id="node33" class="node">
<title>Node33</title>
<g id="a_node33"><a xlink:href="_t_c_packet_8c.html#a16279dd832680e4678ebeb4ff4767e1a" target="_top" xlink:title="Time Indicator (TI) を設定">
<polygon fill="white" stroke="black" points="545.5,-0.5 545.5,-19.5 640.5,-19.5 640.5,-0.5 545.5,-0.5"/>
<text text-anchor="middle" x="593" y="-7.5" font-family="Helvetica,sans-Serif" font-size="10.00">TCP_CMD_set_ti</text>
</a>
</g>
</g>
<!-- Node32&#45;&gt;Node33 -->
<g id="edge34" class="edge">
<title>Node32&#45;&gt;Node33</title>
<path fill="none" stroke="midnightblue" d="M442.14,-10C468.05,-10 504.68,-10 535.23,-10"/>
<polygon fill="midnightblue" stroke="midnightblue" points="535.34,-13.5 545.34,-10 535.34,-6.5 535.34,-13.5"/>
</g>
</g>
</svg>
