<?xml version="1.0" encoding="UTF-8" standalone="no"?>
<!DOCTYPE svg PUBLIC "-//W3C//DTD SVG 1.1//EN"
 "http://www.w3.org/Graphics/SVG/1.1/DTD/svg11.dtd">
<!-- Generated by graphviz version 2.43.0 (0)
 -->
<!-- Title: Cmd_GENERATE_TLM Pages: 1 -->
<svg width="1595pt" height="732pt"
 viewBox="0.00 0.00 1595.00 731.70" xmlns="http://www.w3.org/2000/svg" xmlns:xlink="http://www.w3.org/1999/xlink">
<g id="graph0" class="graph" transform="scale(1 1) rotate(0) translate(4 727.7)">
<title>Cmd_GENERATE_TLM</title>
<polygon fill="white" stroke="transparent" points="-4,4 -4,-727.7 1591,-727.7 1591,4 -4,4"/>
<!-- Node1 -->
<g id="node1" class="node">
<title>Node1</title>
<g id="a_node1"><a xlink:title=" ">
<polygon fill="#bfbfbf" stroke="black" points="0,-312.7 0,-331.7 122,-331.7 122,-312.7 0,-312.7"/>
<text text-anchor="middle" x="61" y="-319.7" font-family="Helvetica,sans-Serif" font-size="10.00">Cmd_GENERATE_TLM</text>
</a>
</g>
</g>
<!-- Node2 -->
<g id="node2" class="node">
<title>Node2</title>
<g id="a_node2"><a xlink:href="apid__define_8c.html#a4bd093b65066361f2713f85254eb52c3" target="_top" xlink:title="入力した APID が他の OBC で生成された TLM の APID かどうか">
<polygon fill="white" stroke="black" points="158,-616.7 158,-635.7 313,-635.7 313,-616.7 158,-616.7"/>
<text text-anchor="middle" x="235.5" y="-623.7" font-family="Helvetica,sans-Serif" font-size="10.00">APID_is_other_obc_tlm_apid</text>
</a>
</g>
</g>
<!-- Node1&#45;&gt;Node2 -->
<g id="edge1" class="edge">
<title>Node1&#45;&gt;Node2</title>
<path fill="none" stroke="midnightblue" d="M62.12,-331.79C63.17,-372.01 72.77,-528.65 158,-607.2 159.68,-608.75 161.46,-610.17 163.32,-611.48"/>
<polygon fill="midnightblue" stroke="midnightblue" points="161.59,-614.52 171.99,-616.56 165.13,-608.48 161.59,-614.52"/>
</g>
<!-- Node3 -->
<g id="node3" class="node">
<title>Node3</title>
<g id="a_node3"><a xlink:href="common__tlm__packet_8h.html#aea474a8c441c9f2d5cc21033ce4cc5f8" target="_top" xlink:title="APID を取得">
<polygon fill="white" stroke="black" points="194,-578.7 194,-597.7 277,-597.7 277,-578.7 194,-578.7"/>
<text text-anchor="middle" x="235.5" y="-585.7" font-family="Helvetica,sans-Serif" font-size="10.00">CTP_get_apid</text>
</a>
</g>
</g>
<!-- Node1&#45;&gt;Node3 -->
<g id="edge2" class="edge">
<title>Node1&#45;&gt;Node3</title>
<path fill="none" stroke="midnightblue" d="M62.68,-331.77C65.81,-368.59 82.2,-502.48 158,-569.2 165.32,-575.65 174.49,-579.97 183.91,-582.86"/>
<polygon fill="midnightblue" stroke="midnightblue" points="183.21,-586.3 193.76,-585.39 184.94,-579.51 183.21,-586.3"/>
</g>
<!-- Node10 -->
<g id="node10" class="node">
<title>Node10</title>
<g id="a_node10"><a xlink:href="common__tlm__packet_8h.html#a52c7ef7c91bb3b6047d22ec569656899" target="_top" xlink:title="APID を設定">
<polygon fill="white" stroke="black" points="194.5,-312.7 194.5,-331.7 276.5,-331.7 276.5,-312.7 194.5,-312.7"/>
<text text-anchor="middle" x="235.5" y="-319.7" font-family="Helvetica,sans-Serif" font-size="10.00">CTP_set_apid</text>
</a>
</g>
</g>
<!-- Node1&#45;&gt;Node10 -->
<g id="edge9" class="edge">
<title>Node1&#45;&gt;Node10</title>
<path fill="none" stroke="midnightblue" d="M122.33,-322.2C142.59,-322.2 164.95,-322.2 184.35,-322.2"/>
<polygon fill="midnightblue" stroke="midnightblue" points="184.48,-325.7 194.48,-322.2 184.48,-318.7 184.48,-325.7"/>
</g>
<!-- Node14 -->
<g id="node14" class="node">
<title>Node14</title>
<g id="a_node14"><a xlink:href="packet__handler_8c.html#a26d6fa7512d02ca9bb3a0bf700beaad3" target="_top" xlink:title="CTP を解析する">
<polygon fill="white" stroke="black" points="169,-540.7 169,-559.7 302,-559.7 302,-540.7 169,-540.7"/>
<text text-anchor="middle" x="235.5" y="-547.7" font-family="Helvetica,sans-Serif" font-size="10.00">PH_analyze_tlm_packet</text>
</a>
</g>
</g>
<!-- Node1&#45;&gt;Node14 -->
<g id="edge14" class="edge">
<title>Node1&#45;&gt;Node14</title>
<path fill="none" stroke="midnightblue" d="M65.06,-332.02C74.58,-361.31 106.21,-449.43 158,-504.2 170.61,-517.54 187.92,-528.38 202.89,-536.18"/>
<polygon fill="midnightblue" stroke="midnightblue" points="201.33,-539.31 211.84,-540.64 204.45,-533.05 201.33,-539.31"/>
</g>
<!-- Node25 -->
<g id="node25" class="node">
<title>Node25</title>
<g id="a_node25"><a xlink:href="telemetry__frame_8c.html#a601c12bb837251422c9b329f5903a416" target="_top" xlink:title="テレメを実際に生成する関数">
<polygon fill="white" stroke="black" points="173,-426.7 173,-445.7 298,-445.7 298,-426.7 173,-426.7"/>
<text text-anchor="middle" x="235.5" y="-433.7" font-family="Helvetica,sans-Serif" font-size="10.00">TF_generate_contents</text>
</a>
</g>
</g>
<!-- Node1&#45;&gt;Node25 -->
<g id="edge27" class="edge">
<title>Node1&#45;&gt;Node25</title>
<path fill="none" stroke="midnightblue" d="M68.75,-331.7C82.94,-350.97 117.93,-394.7 158,-417.2 162,-419.45 166.27,-421.43 170.66,-423.19"/>
<polygon fill="midnightblue" stroke="midnightblue" points="169.83,-426.61 180.42,-426.66 172.17,-420.01 169.83,-426.61"/>
</g>
<!-- Node26 -->
<g id="node26" class="node">
<title>Node26</title>
<g id="a_node26"><a xlink:href="telemetry__generator_8c.html#a3333d79507f2a1f9ee65fc1d4f1ff515" target="_top" xlink:title=" ">
<polygon fill="white" stroke="black" points="161,-388.7 161,-407.7 310,-407.7 310,-388.7 161,-388.7"/>
<text text-anchor="middle" x="235.5" y="-395.7" font-family="Helvetica,sans-Serif" font-size="10.00">TG_get_next_adu_counter_</text>
</a>
</g>
</g>
<!-- Node1&#45;&gt;Node26 -->
<g id="edge28" class="edge">
<title>Node1&#45;&gt;Node26</title>
<path fill="none" stroke="midnightblue" d="M75.33,-331.84C93.28,-344.41 126.62,-366.32 158,-379.2 164.12,-381.72 170.66,-383.96 177.25,-385.94"/>
<polygon fill="midnightblue" stroke="midnightblue" points="176.3,-389.31 186.88,-388.67 178.21,-382.58 176.3,-389.31"/>
</g>
<!-- Node27 -->
<g id="node27" class="node">
<title>Node27</title>
<g id="a_node27"><a xlink:href="time__manager_8c.html#a576e42803f8f3896524dbb266a47a08f" target="_top" xlink:title="現在の total_cycle を返す">
<polygon fill="white" stroke="black" points="168.5,-465.2 168.5,-495.2 302.5,-495.2 302.5,-465.2 168.5,-465.2"/>
<text text-anchor="start" x="176.5" y="-483.2" font-family="Helvetica,sans-Serif" font-size="10.00">TMGR_get_master_total</text>
<text text-anchor="middle" x="235.5" y="-472.2" font-family="Helvetica,sans-Serif" font-size="10.00">_cycle</text>
</a>
</g>
</g>
<!-- Node1&#45;&gt;Node27 -->
<g id="edge29" class="edge">
<title>Node1&#45;&gt;Node27</title>
<path fill="none" stroke="midnightblue" d="M66.3,-331.84C77.66,-356.2 110.85,-420.78 158,-455.2 160.65,-457.14 163.46,-458.93 166.38,-460.59"/>
<polygon fill="midnightblue" stroke="midnightblue" points="164.89,-463.76 175.39,-465.17 168.06,-457.52 164.89,-463.76"/>
</g>
<!-- Node29 -->
<g id="node29" class="node">
<title>Node29</title>
<g id="a_node29"><a xlink:href="tlm__space__packet_8c.html#ace24297759446caff5a6ccb251193dc0" target="_top" xlink:title="Board Time を設定">
<polygon fill="white" stroke="black" points="725,-274.7 725,-293.7 841,-293.7 841,-274.7 725,-274.7"/>
<text text-anchor="middle" x="783" y="-281.7" font-family="Helvetica,sans-Serif" font-size="10.00">TSP_set_board_time</text>
</a>
</g>
</g>
<!-- Node1&#45;&gt;Node29 -->
<g id="edge31" class="edge">
<title>Node1&#45;&gt;Node29</title>
<path fill="none" stroke="midnightblue" d="M102.41,-312.67C119.46,-309.04 139.6,-305.29 158,-303.2 359.76,-280.32 600.4,-280.76 714.97,-282.63"/>
<polygon fill="midnightblue" stroke="midnightblue" points="714.93,-286.13 724.99,-282.81 715.05,-279.13 714.93,-286.13"/>
</g>
<!-- Node30 -->
<g id="node30" class="node">
<title>Node30</title>
<g id="a_node30"><a xlink:href="tlm__space__packet_8c.html#ae2d93a907d5dfd7df12f9f8b3a661cd9" target="_top" xlink:title="Destination Flags を設定">
<polygon fill="white" stroke="black" points="356,-236.7 356,-255.7 466,-255.7 466,-236.7 356,-236.7"/>
<text text-anchor="middle" x="411" y="-243.7" font-family="Helvetica,sans-Serif" font-size="10.00">TSP_set_dest_flags</text>
</a>
</g>
</g>
<!-- Node1&#45;&gt;Node30 -->
<g id="edge33" class="edge">
<title>Node1&#45;&gt;Node30</title>
<path fill="none" stroke="midnightblue" d="M75.53,-312.57C93.44,-300.38 126.45,-279.81 158,-270.2 219.88,-251.35 293.91,-246.25 345.66,-245.31"/>
<polygon fill="midnightblue" stroke="midnightblue" points="345.75,-248.81 355.7,-245.17 345.65,-241.81 345.75,-248.81"/>
</g>
<!-- Node31 -->
<g id="node31" class="node">
<title>Node31</title>
<g id="a_node31"><a xlink:href="tlm__space__packet_8c.html#ae0432372ddf2ee25f097ee774953e243" target="_top" xlink:title="DR Partition を設定">
<polygon fill="white" stroke="black" points="725,-198.7 725,-217.7 841,-217.7 841,-198.7 725,-198.7"/>
<text text-anchor="middle" x="783" y="-205.7" font-family="Helvetica,sans-Serif" font-size="10.00">TSP_set_dr_partition</text>
</a>
</g>
</g>
<!-- Node1&#45;&gt;Node31 -->
<g id="edge35" class="edge">
<title>Node1&#45;&gt;Node31</title>
<path fill="none" stroke="midnightblue" d="M70.04,-312.51C85.17,-295.06 119.81,-258.73 158,-243.2 257.29,-202.85 574.94,-203.93 714.81,-206.53"/>
<polygon fill="midnightblue" stroke="midnightblue" points="714.9,-210.03 724.97,-206.73 715.04,-203.04 714.9,-210.03"/>
</g>
<!-- Node32 -->
<g id="node32" class="node">
<title>Node32</title>
<g id="a_node32"><a xlink:href="tlm__space__packet_8c.html#a97232cc3b8df6cb21403d7b0f78af673" target="_top" xlink:title="Global Time を設定">
<polygon fill="white" stroke="black" points="352,-160.7 352,-179.7 470,-179.7 470,-160.7 352,-160.7"/>
<text text-anchor="middle" x="411" y="-167.7" font-family="Helvetica,sans-Serif" font-size="10.00">TSP_set_global_time</text>
</a>
</g>
</g>
<!-- Node1&#45;&gt;Node32 -->
<g id="edge37" class="edge">
<title>Node1&#45;&gt;Node32</title>
<path fill="none" stroke="midnightblue" d="M65.84,-312.67C76.34,-288.02 108.09,-222.19 158,-194.2 214.09,-162.75 288.38,-159.41 341.75,-162.32"/>
<polygon fill="midnightblue" stroke="midnightblue" points="341.6,-165.82 351.8,-162.96 342.04,-158.83 341.6,-165.82"/>
</g>
<!-- Node33 -->
<g id="node33" class="node">
<title>Node33</title>
<g id="a_node33"><a xlink:href="tlm__space__packet_8c.html#ab296f31eaf414114853e6221b4fbdda1" target="_top" xlink:title="On&#45;Board Subnetwork Time を設定">
<polygon fill="white" stroke="black" points="509,-122.7 509,-141.7 680,-141.7 680,-122.7 509,-122.7"/>
<text text-anchor="middle" x="594.5" y="-129.7" font-family="Helvetica,sans-Serif" font-size="10.00">TSP_set_on_board_subnet_time</text>
</a>
</g>
</g>
<!-- Node1&#45;&gt;Node33 -->
<g id="edge39" class="edge">
<title>Node1&#45;&gt;Node33</title>
<path fill="none" stroke="midnightblue" d="M64.25,-312.58C71.67,-283.25 98.39,-194.79 158,-158.2 213.01,-124.44 387.79,-124.11 498.49,-127.66"/>
<polygon fill="midnightblue" stroke="midnightblue" points="498.56,-131.16 508.67,-128 498.79,-124.17 498.56,-131.16"/>
</g>
<!-- Node34 -->
<g id="node34" class="node">
<title>Node34</title>
<g id="a_node34"><a xlink:href="tlm__space__packet_8c.html#adfbc7ce2baafa2f87e7bd9f136610eeb" target="_top" xlink:title="Sequence Count を設定">
<polygon fill="white" stroke="black" points="180.5,-84.7 180.5,-103.7 290.5,-103.7 290.5,-84.7 180.5,-84.7"/>
<text text-anchor="middle" x="235.5" y="-91.7" font-family="Helvetica,sans-Serif" font-size="10.00">TSP_set_seq_count</text>
</a>
</g>
</g>
<!-- Node1&#45;&gt;Node34 -->
<g id="edge41" class="edge">
<title>Node1&#45;&gt;Node34</title>
<path fill="none" stroke="midnightblue" d="M63.72,-312.44C69.98,-279.82 94.59,-173.53 158,-118.2 162.75,-114.06 168.21,-110.63 173.99,-107.79"/>
<polygon fill="midnightblue" stroke="midnightblue" points="175.46,-110.97 183.26,-103.8 172.69,-104.54 175.46,-110.97"/>
</g>
<!-- Node36 -->
<g id="node36" class="node">
<title>Node36</title>
<g id="a_node36"><a xlink:href="tlm__space__packet_8c.html#afeebf5c4a5df3148b168acde4eaf85ad" target="_top" xlink:title="Tlm ID を設定">
<polygon fill="white" stroke="black" points="190,-46.7 190,-65.7 281,-65.7 281,-46.7 190,-46.7"/>
<text text-anchor="middle" x="235.5" y="-53.7" font-family="Helvetica,sans-Serif" font-size="10.00">TSP_set_tlm_id</text>
</a>
</g>
</g>
<!-- Node1&#45;&gt;Node36 -->
<g id="edge44" class="edge">
<title>Node1&#45;&gt;Node36</title>
<path fill="none" stroke="midnightblue" d="M62.68,-312.64C65.81,-275.82 82.2,-141.93 158,-75.2 164.35,-69.61 172.09,-65.62 180.19,-62.77"/>
<polygon fill="midnightblue" stroke="midnightblue" points="181.19,-66.12 189.79,-59.92 179.2,-59.41 181.19,-66.12"/>
</g>
<!-- Node37 -->
<g id="node37" class="node">
<title>Node37</title>
<g id="a_node37"><a xlink:href="tlm__space__packet_8c.html#aa687e5632376033a29f4acad3d51c236" target="_top" xlink:title="Primary Header を構築">
<polygon fill="white" stroke="black" points="170,-350.7 170,-369.7 301,-369.7 301,-350.7 170,-350.7"/>
<text text-anchor="middle" x="235.5" y="-357.7" font-family="Helvetica,sans-Serif" font-size="10.00">TSP_setup_primary_hdr</text>
</a>
</g>
</g>
<!-- Node1&#45;&gt;Node37 -->
<g id="edge46" class="edge">
<title>Node1&#45;&gt;Node37</title>
<path fill="none" stroke="midnightblue" d="M105.53,-331.79C128.6,-336.87 157.13,-343.16 181.48,-348.52"/>
<polygon fill="midnightblue" stroke="midnightblue" points="180.77,-351.95 191.28,-350.68 182.27,-345.11 180.77,-351.95"/>
</g>
<!-- Node4 -->
<g id="node4" class="node">
<title>Node4</title>
<g id="a_node4"><a xlink:href="tlm__space__packet_8c.html#a085b2d425273eee803f0a9815bf5829d" target="_top" xlink:title="APID を取得">
<polygon fill="white" stroke="black" points="370,-654.7 370,-673.7 452,-673.7 452,-654.7 370,-654.7"/>
<text text-anchor="middle" x="411" y="-661.7" font-family="Helvetica,sans-Serif" font-size="10.00">TSP_get_apid</text>
</a>
</g>
</g>
<!-- Node3&#45;&gt;Node4 -->
<g id="edge3" class="edge">
<title>Node3&#45;&gt;Node4</title>
<path fill="none" stroke="midnightblue" d="M277.07,-593.8C289.19,-596.62 302.12,-600.86 313,-607.2 333.1,-618.92 329.25,-632.9 349,-645.2 352.6,-647.45 356.49,-649.44 360.49,-651.22"/>
<polygon fill="midnightblue" stroke="midnightblue" points="359.4,-654.55 369.98,-654.97 361.97,-648.04 359.4,-654.55"/>
</g>
<!-- Node5 -->
<g id="node5" class="node">
<title>Node5</title>
<g id="a_node5"><a xlink:href="space__packet_8c.html#a9be42b696c56f6a99d7170a69a03650b" target="_top" xlink:title="APID を取得">
<polygon fill="white" stroke="black" points="556.5,-654.7 556.5,-673.7 632.5,-673.7 632.5,-654.7 556.5,-654.7"/>
<text text-anchor="middle" x="594.5" y="-661.7" font-family="Helvetica,sans-Serif" font-size="10.00">SP_get_apid</text>
</a>
</g>
</g>
<!-- Node4&#45;&gt;Node5 -->
<g id="edge4" class="edge">
<title>Node4&#45;&gt;Node5</title>
<path fill="none" stroke="midnightblue" d="M452.28,-664.2C480,-664.2 516.93,-664.2 546.07,-664.2"/>
<polygon fill="midnightblue" stroke="midnightblue" points="546.42,-667.7 556.42,-664.2 546.42,-660.7 546.42,-667.7"/>
</g>
<!-- Node6 -->
<g id="node6" class="node">
<title>Node6</title>
<g id="a_node6"><a xlink:href="apid__define_8c.html#aa1f9bb843cdcbfc94507bd35d70138e6" target="_top" xlink:title="バイト列から APID を取得">
<polygon fill="white" stroke="black" points="725,-693.2 725,-723.2 841,-723.2 841,-693.2 725,-693.2"/>
<text text-anchor="start" x="733" y="-711.2" font-family="Helvetica,sans-Serif" font-size="10.00">APID_get_apid_from</text>
<text text-anchor="middle" x="783" y="-700.2" font-family="Helvetica,sans-Serif" font-size="10.00">_uint16</text>
</a>
</g>
</g>
<!-- Node5&#45;&gt;Node6 -->
<g id="edge5" class="edge">
<title>Node5&#45;&gt;Node6</title>
<path fill="none" stroke="midnightblue" d="M632.79,-673C656.27,-678.54 687.26,-685.85 714.91,-692.38"/>
<polygon fill="midnightblue" stroke="midnightblue" points="714.39,-695.85 724.93,-694.74 716,-689.04 714.39,-695.85"/>
</g>
<!-- Node7 -->
<g id="node7" class="node">
<title>Node7</title>
<g id="a_node7"><a xlink:href="space__packet_8c.html#a300c7fc3dea91319b0fa2f039f27d5eb" target="_top" xlink:title="packet に格納された param を取得">
<polygon fill="white" stroke="black" points="1205,-584.2 1205,-614.2 1339,-614.2 1339,-584.2 1205,-584.2"/>
<text text-anchor="start" x="1213" y="-602.2" font-family="Helvetica,sans-Serif" font-size="10.00">SP_extract_param_from</text>
<text text-anchor="middle" x="1272" y="-591.2" font-family="Helvetica,sans-Serif" font-size="10.00">_packet</text>
</a>
</g>
</g>
<!-- Node5&#45;&gt;Node7 -->
<g id="edge6" class="edge">
<title>Node5&#45;&gt;Node7</title>
<path fill="none" stroke="midnightblue" d="M632.71,-667.89C725.01,-676 971.29,-691.16 1169,-645.2 1192.42,-639.76 1217.03,-628.83 1236.21,-618.99"/>
<polygon fill="midnightblue" stroke="midnightblue" points="1237.94,-622.03 1245.16,-614.28 1234.68,-615.84 1237.94,-622.03"/>
</g>
<!-- Node8 -->
<g id="node8" class="node">
<title>Node8</title>
<g id="a_node8"><a xlink:href="endian__memcpy_8c.html#a153793f6939a1cb0f6bc3968d953f31e" target="_top" xlink:title=" ">
<polygon fill="white" stroke="black" points="1375,-551.7 1375,-570.7 1473,-570.7 1473,-551.7 1375,-551.7"/>
<text text-anchor="middle" x="1424" y="-558.7" font-family="Helvetica,sans-Serif" font-size="10.00">endian_memcpy</text>
</a>
</g>
</g>
<!-- Node7&#45;&gt;Node8 -->
<g id="edge7" class="edge">
<title>Node7&#45;&gt;Node8</title>
<path fill="none" stroke="midnightblue" d="M1332.28,-584.18C1346.65,-580.55 1361.82,-576.7 1375.56,-573.22"/>
<polygon fill="midnightblue" stroke="midnightblue" points="1376.44,-576.61 1385.28,-570.76 1374.72,-569.82 1376.44,-576.61"/>
</g>
<!-- Node9 -->
<g id="node9" class="node">
<title>Node9</title>
<g id="a_node9"><a xlink:href="endian__conv_8c.html#af8d492c4e43d83c161cd2225a9697b6a" target="_top" xlink:title=" ">
<polygon fill="white" stroke="black" points="1509,-551.7 1509,-570.7 1587,-570.7 1587,-551.7 1509,-551.7"/>
<text text-anchor="middle" x="1548" y="-558.7" font-family="Helvetica,sans-Serif" font-size="10.00">endian_conv</text>
</a>
</g>
</g>
<!-- Node8&#45;&gt;Node9 -->
<g id="edge8" class="edge">
<title>Node8&#45;&gt;Node9</title>
<path fill="none" stroke="midnightblue" d="M1473.22,-561.2C1481.65,-561.2 1490.42,-561.2 1498.84,-561.2"/>
<polygon fill="midnightblue" stroke="midnightblue" points="1498.91,-564.7 1508.91,-561.2 1498.91,-557.7 1498.91,-564.7"/>
</g>
<!-- Node11 -->
<g id="node11" class="node">
<title>Node11</title>
<g id="a_node11"><a xlink:href="tlm__space__packet_8c.html#a79a7575999ff965ea1c95125e6b017fa" target="_top" xlink:title="APID を設定">
<polygon fill="white" stroke="black" points="370.5,-312.7 370.5,-331.7 451.5,-331.7 451.5,-312.7 370.5,-312.7"/>
<text text-anchor="middle" x="411" y="-319.7" font-family="Helvetica,sans-Serif" font-size="10.00">TSP_set_apid</text>
</a>
</g>
</g>
<!-- Node10&#45;&gt;Node11 -->
<g id="edge10" class="edge">
<title>Node10&#45;&gt;Node11</title>
<path fill="none" stroke="midnightblue" d="M276.74,-322.2C301.57,-322.2 333.63,-322.2 360.07,-322.2"/>
<polygon fill="midnightblue" stroke="midnightblue" points="360.28,-325.7 370.28,-322.2 360.28,-318.7 360.28,-325.7"/>
</g>
<!-- Node12 -->
<g id="node12" class="node">
<title>Node12</title>
<g id="a_node12"><a xlink:href="space__packet_8c.html#afa5b380432a9ac74e3e8ed05dbcb2d5b" target="_top" xlink:title="APID を設定">
<polygon fill="white" stroke="black" points="557,-312.7 557,-331.7 632,-331.7 632,-312.7 557,-312.7"/>
<text text-anchor="middle" x="594.5" y="-319.7" font-family="Helvetica,sans-Serif" font-size="10.00">SP_set_apid</text>
</a>
</g>
</g>
<!-- Node11&#45;&gt;Node12 -->
<g id="edge11" class="edge">
<title>Node11&#45;&gt;Node12</title>
<path fill="none" stroke="midnightblue" d="M451.83,-322.2C479.83,-322.2 517.4,-322.2 546.81,-322.2"/>
<polygon fill="midnightblue" stroke="midnightblue" points="546.85,-325.7 556.85,-322.2 546.85,-318.7 546.85,-325.7"/>
</g>
<!-- Node13 -->
<g id="node13" class="node">
<title>Node13</title>
<g id="a_node13"><a xlink:href="space__packet_8c.html#a9d4e5051b01d74f88ee13ce05f61b392" target="_top" xlink:title="packet に param を格納">
<polygon fill="white" stroke="black" points="886,-288.2 886,-318.2 999,-318.2 999,-288.2 886,-288.2"/>
<text text-anchor="start" x="894" y="-306.2" font-family="Helvetica,sans-Serif" font-size="10.00">SP_insert_param_to</text>
<text text-anchor="middle" x="942.5" y="-295.2" font-family="Helvetica,sans-Serif" font-size="10.00">_packet</text>
</a>
</g>
</g>
<!-- Node12&#45;&gt;Node13 -->
<g id="edge12" class="edge">
<title>Node12&#45;&gt;Node13</title>
<path fill="none" stroke="midnightblue" d="M632.2,-320.19C690.05,-317.01 803.29,-310.79 875.52,-306.83"/>
<polygon fill="midnightblue" stroke="midnightblue" points="876.08,-310.3 885.87,-306.26 875.69,-303.31 876.08,-310.3"/>
</g>
<!-- Node13&#45;&gt;Node8 -->
<g id="edge13" class="edge">
<title>Node13&#45;&gt;Node8</title>
<path fill="none" stroke="midnightblue" d="M971.7,-318.38C1057.14,-364.35 1312.37,-501.68 1396.08,-546.72"/>
<polygon fill="midnightblue" stroke="midnightblue" points="1394.51,-549.85 1404.98,-551.5 1397.83,-543.68 1394.51,-549.85"/>
</g>
<!-- Node15 -->
<g id="node15" class="node">
<title>Node15</title>
<g id="a_node15"><a xlink:href="common__tlm__packet_8h.html#a684c8254afbb7793a92c63bdd9462558" target="_top" xlink:title="CTP_DEST_FLAG の &amp; を取った flags を取得">
<polygon fill="white" stroke="black" points="355.5,-578.7 355.5,-597.7 466.5,-597.7 466.5,-578.7 355.5,-578.7"/>
<text text-anchor="middle" x="411" y="-585.7" font-family="Helvetica,sans-Serif" font-size="10.00">CTP_get_dest_flags</text>
</a>
</g>
</g>
<!-- Node14&#45;&gt;Node15 -->
<g id="edge15" class="edge">
<title>Node14&#45;&gt;Node15</title>
<path fill="none" stroke="midnightblue" d="M280.28,-559.79C303.49,-564.87 332.18,-571.16 356.67,-576.52"/>
<polygon fill="midnightblue" stroke="midnightblue" points="356.02,-579.96 366.53,-578.68 357.51,-573.12 356.02,-579.96"/>
</g>
<!-- Node17 -->
<g id="node17" class="node">
<title>Node17</title>
<g id="a_node17"><a xlink:href="common__tlm__packet_8h.html#a285c1dc53d72a80747d8827c38d7aea4" target="_top" xlink:title="有効なパケットかチェックする">
<polygon fill="white" stroke="black" points="353,-616.7 353,-635.7 469,-635.7 469,-616.7 353,-616.7"/>
<text text-anchor="middle" x="411" y="-623.7" font-family="Helvetica,sans-Serif" font-size="10.00">CTP_is_valid_packet</text>
</a>
</g>
</g>
<!-- Node14&#45;&gt;Node17 -->
<g id="edge18" class="edge">
<title>Node14&#45;&gt;Node17</title>
<path fill="none" stroke="midnightblue" d="M291.5,-559.8C299,-562.26 306.38,-565.34 313,-569.2 333.1,-580.92 329.25,-594.9 349,-607.2 352.35,-609.29 355.94,-611.16 359.65,-612.84"/>
<polygon fill="midnightblue" stroke="midnightblue" points="358.44,-616.12 369.02,-616.62 361.06,-609.63 358.44,-616.12"/>
</g>
<!-- Node22 -->
<g id="node22" class="node">
<title>Node22</title>
<g id="a_node22"><a xlink:href="packet__handler_8c.html#a46236f660b6bef7bcd6d440a02b70cfe" target="_top" xlink:title=" ">
<polygon fill="white" stroke="black" points="360.5,-540.7 360.5,-559.7 461.5,-559.7 461.5,-540.7 360.5,-540.7"/>
<text text-anchor="middle" x="411" y="-547.7" font-family="Helvetica,sans-Serif" font-size="10.00">PH_add_ms_tlm_</text>
</a>
</g>
</g>
<!-- Node14&#45;&gt;Node22 -->
<g id="edge24" class="edge">
<title>Node14&#45;&gt;Node22</title>
<path fill="none" stroke="midnightblue" d="M302.09,-550.2C317.92,-550.2 334.74,-550.2 350.28,-550.2"/>
<polygon fill="midnightblue" stroke="midnightblue" points="350.28,-553.7 360.28,-550.2 350.28,-546.7 350.28,-553.7"/>
</g>
<!-- Node16 -->
<g id="node16" class="node">
<title>Node16</title>
<g id="a_node16"><a xlink:href="tlm__space__packet_8c.html#a505c9261fd3b3a66339d43e6b637ccd6" target="_top" xlink:title="Destination Flags を取得">
<polygon fill="white" stroke="black" points="1047,-578.7 1047,-597.7 1157,-597.7 1157,-578.7 1047,-578.7"/>
<text text-anchor="middle" x="1102" y="-585.7" font-family="Helvetica,sans-Serif" font-size="10.00">TSP_get_dest_flags</text>
</a>
</g>
</g>
<!-- Node15&#45;&gt;Node16 -->
<g id="edge16" class="edge">
<title>Node15&#45;&gt;Node16</title>
<path fill="none" stroke="midnightblue" d="M466.64,-588.2C592.43,-588.2 901.98,-588.2 1036.67,-588.2"/>
<polygon fill="midnightblue" stroke="midnightblue" points="1036.83,-591.7 1046.83,-588.2 1036.83,-584.7 1036.83,-591.7"/>
</g>
<!-- Node16&#45;&gt;Node7 -->
<g id="edge17" class="edge">
<title>Node16&#45;&gt;Node7</title>
<path fill="none" stroke="midnightblue" d="M1157.08,-591.74C1169.12,-592.53 1182.09,-593.38 1194.83,-594.22"/>
<polygon fill="midnightblue" stroke="midnightblue" points="1194.76,-597.72 1204.97,-594.88 1195.22,-590.73 1194.76,-597.72"/>
</g>
<!-- Node18 -->
<g id="node18" class="node">
<title>Node18</title>
<g id="a_node18"><a xlink:href="common__tlm__packet_8c.html#ab9f04fbc9871d8fe2639cd46679e33c9" target="_top" xlink:title="パケット長を取得">
<polygon fill="white" stroke="black" points="537.5,-616.7 537.5,-635.7 651.5,-635.7 651.5,-616.7 537.5,-616.7"/>
<text text-anchor="middle" x="594.5" y="-623.7" font-family="Helvetica,sans-Serif" font-size="10.00">CTP_get_packet_len</text>
</a>
</g>
</g>
<!-- Node17&#45;&gt;Node18 -->
<g id="edge19" class="edge">
<title>Node17&#45;&gt;Node18</title>
<path fill="none" stroke="midnightblue" d="M469.43,-626.2C487.83,-626.2 508.35,-626.2 527.32,-626.2"/>
<polygon fill="midnightblue" stroke="midnightblue" points="527.38,-629.7 537.38,-626.2 527.38,-622.7 527.38,-629.7"/>
</g>
<!-- Node19 -->
<g id="node19" class="node">
<title>Node19</title>
<g id="a_node19"><a xlink:href="tlm__space__packet_8c.html#a51745cb62959205762b4b2430f81804f" target="_top" xlink:title="Packet Length を取得">
<polygon fill="white" stroke="black" points="726.5,-616.7 726.5,-635.7 839.5,-635.7 839.5,-616.7 726.5,-616.7"/>
<text text-anchor="middle" x="783" y="-623.7" font-family="Helvetica,sans-Serif" font-size="10.00">TSP_get_packet_len</text>
</a>
</g>
</g>
<!-- Node18&#45;&gt;Node19 -->
<g id="edge20" class="edge">
<title>Node18&#45;&gt;Node19</title>
<path fill="none" stroke="midnightblue" d="M651.71,-626.2C671.99,-626.2 695.05,-626.2 716.09,-626.2"/>
<polygon fill="midnightblue" stroke="midnightblue" points="716.23,-629.7 726.23,-626.2 716.23,-622.7 716.23,-629.7"/>
</g>
<!-- Node20 -->
<g id="node20" class="node">
<title>Node20</title>
<g id="a_node20"><a xlink:href="space__packet_8c.html#a25afed909fb67da49f5ac9921a23744f" target="_top" xlink:title="Packet Length を取得">
<polygon fill="white" stroke="black" points="889,-616.7 889,-635.7 996,-635.7 996,-616.7 889,-616.7"/>
<text text-anchor="middle" x="942.5" y="-623.7" font-family="Helvetica,sans-Serif" font-size="10.00">SP_get_packet_len</text>
</a>
</g>
</g>
<!-- Node19&#45;&gt;Node20 -->
<g id="edge21" class="edge">
<title>Node19&#45;&gt;Node20</title>
<path fill="none" stroke="midnightblue" d="M839.53,-626.2C852.18,-626.2 865.7,-626.2 878.63,-626.2"/>
<polygon fill="midnightblue" stroke="midnightblue" points="878.85,-629.7 888.85,-626.2 878.85,-622.7 878.85,-629.7"/>
</g>
<!-- Node21 -->
<g id="node21" class="node">
<title>Node21</title>
<g id="a_node21"><a xlink:href="space__packet_8c.html#ad5dd44fdb4e6c00e7dbb311d3aaee3d3" target="_top" xlink:title="Packet Data Length を取得">
<polygon fill="white" stroke="black" points="1035,-616.7 1035,-635.7 1169,-635.7 1169,-616.7 1035,-616.7"/>
<text text-anchor="middle" x="1102" y="-623.7" font-family="Helvetica,sans-Serif" font-size="10.00">SP_get_packet_data_len</text>
</a>
</g>
</g>
<!-- Node20&#45;&gt;Node21 -->
<g id="edge22" class="edge">
<title>Node20&#45;&gt;Node21</title>
<path fill="none" stroke="midnightblue" d="M996.38,-626.2C1005.44,-626.2 1015.01,-626.2 1024.54,-626.2"/>
<polygon fill="midnightblue" stroke="midnightblue" points="1024.83,-629.7 1034.83,-626.2 1024.83,-622.7 1024.83,-629.7"/>
</g>
<!-- Node21&#45;&gt;Node7 -->
<g id="edge23" class="edge">
<title>Node21&#45;&gt;Node7</title>
<path fill="none" stroke="midnightblue" d="M1162.23,-616.68C1172.79,-614.99 1183.92,-613.2 1194.88,-611.44"/>
<polygon fill="midnightblue" stroke="midnightblue" points="1195.55,-614.87 1204.86,-609.83 1194.44,-607.96 1195.55,-614.87"/>
</g>
<!-- Node23 -->
<g id="node23" class="node">
<title>Node23</title>
<g id="a_node23"><a xlink:href="packet__list_8c.html#afaf80120b8b97c0fdf3099e13e9019be" target="_top" xlink:title="PacketList の末尾に packet を挿入">
<polygon fill="white" stroke="black" points="552,-540.7 552,-559.7 637,-559.7 637,-540.7 552,-540.7"/>
<text text-anchor="middle" x="594.5" y="-547.7" font-family="Helvetica,sans-Serif" font-size="10.00">PL_push_back</text>
</a>
</g>
</g>
<!-- Node22&#45;&gt;Node23 -->
<g id="edge25" class="edge">
<title>Node22&#45;&gt;Node23</title>
<path fill="none" stroke="midnightblue" d="M461.6,-550.2C486.5,-550.2 516.66,-550.2 541.84,-550.2"/>
<polygon fill="midnightblue" stroke="midnightblue" points="541.95,-553.7 551.95,-550.2 541.95,-546.7 541.95,-553.7"/>
</g>
<!-- Node24 -->
<g id="node24" class="node">
<title>Node24</title>
<g id="a_node24"><a xlink:href="packet__list_8c.html#a16ea3d3b9925532e2772678215e38abb" target="_top" xlink:title="未使用 Node を新規に取得">
<polygon fill="white" stroke="black" points="729,-540.7 729,-559.7 837,-559.7 837,-540.7 729,-540.7"/>
<text text-anchor="middle" x="783" y="-547.7" font-family="Helvetica,sans-Serif" font-size="10.00">PL_get_free_node_</text>
</a>
</g>
</g>
<!-- Node23&#45;&gt;Node24 -->
<g id="edge26" class="edge">
<title>Node23&#45;&gt;Node24</title>
<path fill="none" stroke="midnightblue" d="M637.35,-550.2C661.35,-550.2 691.95,-550.2 718.82,-550.2"/>
<polygon fill="midnightblue" stroke="midnightblue" points="718.92,-553.7 728.92,-550.2 718.92,-546.7 718.92,-553.7"/>
</g>
<!-- Node28 -->
<g id="node28" class="node">
<title>Node28</title>
<g id="a_node28"><a xlink:href="obc__time_8c.html#ac42c1d017a2cbb8dab608771907c97d5" target="_top" xlink:title="引数で指定した ObcTime の total_cycle を返す">
<polygon fill="white" stroke="black" points="349.5,-470.7 349.5,-489.7 472.5,-489.7 472.5,-470.7 349.5,-470.7"/>
<text text-anchor="middle" x="411" y="-477.7" font-family="Helvetica,sans-Serif" font-size="10.00">OBCT_get_total_cycle</text>
</a>
</g>
</g>
<!-- Node27&#45;&gt;Node28 -->
<g id="edge30" class="edge">
<title>Node27&#45;&gt;Node28</title>
<path fill="none" stroke="midnightblue" d="M302.59,-480.2C314.56,-480.2 327.09,-480.2 339.19,-480.2"/>
<polygon fill="midnightblue" stroke="midnightblue" points="339.23,-483.7 349.23,-480.2 339.23,-476.7 339.23,-483.7"/>
</g>
<!-- Node29&#45;&gt;Node13 -->
<g id="edge32" class="edge">
<title>Node29&#45;&gt;Node13</title>
<path fill="none" stroke="midnightblue" d="M841.31,-291.12C852.53,-292.47 864.39,-293.9 875.86,-295.28"/>
<polygon fill="midnightblue" stroke="midnightblue" points="875.47,-298.76 885.81,-296.49 876.31,-291.81 875.47,-298.76"/>
</g>
<!-- Node30&#45;&gt;Node13 -->
<g id="edge34" class="edge">
<title>Node30&#45;&gt;Node13</title>
<path fill="none" stroke="midnightblue" d="M466.05,-242.56C549.54,-238.26 714.4,-235.09 850,-265.2 868.25,-269.25 887.49,-276.71 903.6,-283.96"/>
<polygon fill="midnightblue" stroke="midnightblue" points="902.14,-287.14 912.69,-288.17 905.09,-280.79 902.14,-287.14"/>
</g>
<!-- Node31&#45;&gt;Node13 -->
<g id="edge36" class="edge">
<title>Node31&#45;&gt;Node13</title>
<path fill="none" stroke="midnightblue" d="M816.43,-217.75C827.42,-221.56 839.54,-226.43 850,-232.2 874.88,-245.94 900.18,-266.15 917.85,-281.5"/>
<polygon fill="midnightblue" stroke="midnightblue" points="915.59,-284.18 925.41,-288.17 920.23,-278.93 915.59,-284.18"/>
</g>
<!-- Node32&#45;&gt;Node13 -->
<g id="edge38" class="edge">
<title>Node32&#45;&gt;Node13</title>
<path fill="none" stroke="midnightblue" d="M470.24,-166.88C573.81,-161.93 785.24,-156.4 850,-189.2 888.07,-208.49 915.61,-251.63 930.02,-278.97"/>
<polygon fill="midnightblue" stroke="midnightblue" points="926.92,-280.58 934.57,-287.91 933.16,-277.41 926.92,-280.58"/>
</g>
<!-- Node33&#45;&gt;Node13 -->
<g id="edge40" class="edge">
<title>Node33&#45;&gt;Node13</title>
<path fill="none" stroke="midnightblue" d="M667.24,-122.69C721.41,-119.17 795.46,-122.46 850,-156.2 895.41,-184.3 921.85,-244.17 933.79,-278.2"/>
<polygon fill="midnightblue" stroke="midnightblue" points="930.54,-279.5 937.03,-287.87 937.17,-277.28 930.54,-279.5"/>
</g>
<!-- Node35 -->
<g id="node35" class="node">
<title>Node35</title>
<g id="a_node35"><a xlink:href="space__packet_8c.html#a89427fc91a39c1d05b8bc03135d4b9a1" target="_top" xlink:title="Sequence Count を設定">
<polygon fill="white" stroke="black" points="731,-84.7 731,-103.7 835,-103.7 835,-84.7 731,-84.7"/>
<text text-anchor="middle" x="783" y="-91.7" font-family="Helvetica,sans-Serif" font-size="10.00">SP_set_seq_count</text>
</a>
</g>
</g>
<!-- Node34&#45;&gt;Node35 -->
<g id="edge42" class="edge">
<title>Node34&#45;&gt;Node35</title>
<path fill="none" stroke="midnightblue" d="M290.8,-94.2C393.01,-94.2 613.32,-94.2 720.69,-94.2"/>
<polygon fill="midnightblue" stroke="midnightblue" points="720.72,-97.7 730.72,-94.2 720.72,-90.7 720.72,-97.7"/>
</g>
<!-- Node35&#45;&gt;Node13 -->
<g id="edge43" class="edge">
<title>Node35&#45;&gt;Node13</title>
<path fill="none" stroke="midnightblue" d="M825.42,-103.81C834.25,-107.28 843,-111.94 850,-118.2 899.28,-162.31 925.06,-238.99 935.61,-278.34"/>
<polygon fill="midnightblue" stroke="midnightblue" points="932.26,-279.35 938.14,-288.17 939.04,-277.61 932.26,-279.35"/>
</g>
<!-- Node36&#45;&gt;Node13 -->
<g id="edge45" class="edge">
<title>Node36&#45;&gt;Node13</title>
<path fill="none" stroke="midnightblue" d="M266.87,-46.62C362.79,-18.37 663.97,54.84 850,-75.2 917.93,-122.68 935.45,-229.44 939.95,-278.13"/>
<polygon fill="midnightblue" stroke="midnightblue" points="936.47,-278.45 940.77,-288.13 943.45,-277.88 936.47,-278.45"/>
</g>
<!-- Node37&#45;&gt;Node11 -->
<g id="edge47" class="edge">
<title>Node37&#45;&gt;Node11</title>
<path fill="none" stroke="midnightblue" d="M280.28,-350.61C304.74,-345.26 335.3,-338.56 360.61,-333.02"/>
<polygon fill="midnightblue" stroke="midnightblue" points="361.37,-336.44 370.39,-330.88 359.87,-329.6 361.37,-336.44"/>
</g>
<!-- Node38 -->
<g id="node38" class="node">
<title>Node38</title>
<g id="a_node38"><a xlink:href="tlm__space__packet_8c.html#abba748fe8e777a580261c16ee3ba07e8" target="_top" xlink:title="共通部分の Header を構築">
<polygon fill="white" stroke="black" points="349,-426.7 349,-445.7 473,-445.7 473,-426.7 349,-426.7"/>
<text text-anchor="middle" x="411" y="-433.7" font-family="Helvetica,sans-Serif" font-size="10.00">TSP_set_common_hdr</text>
</a>
</g>
</g>
<!-- Node37&#45;&gt;Node38 -->
<g id="edge48" class="edge">
<title>Node37&#45;&gt;Node38</title>
<path fill="none" stroke="midnightblue" d="M284.11,-369.77C293.83,-372.35 303.88,-375.48 313,-379.2 340.32,-390.35 369.18,-408.19 388.24,-420.94"/>
<polygon fill="midnightblue" stroke="midnightblue" points="386.28,-423.84 396.52,-426.57 390.22,-418.05 386.28,-423.84"/>
</g>
<!-- Node47 -->
<g id="node47" class="node">
<title>Node47</title>
<g id="a_node47"><a xlink:href="tlm__space__packet_8c.html#adc19b780aaf01a516d07c48c4d52c21b" target="_top" xlink:title="Packet Length を設定">
<polygon fill="white" stroke="black" points="354.5,-350.7 354.5,-369.7 467.5,-369.7 467.5,-350.7 354.5,-350.7"/>
<text text-anchor="middle" x="411" y="-357.7" font-family="Helvetica,sans-Serif" font-size="10.00">TSP_set_packet_len</text>
</a>
</g>
</g>
<!-- Node37&#45;&gt;Node47 -->
<g id="edge61" class="edge">
<title>Node37&#45;&gt;Node47</title>
<path fill="none" stroke="midnightblue" d="M301.1,-360.2C315.21,-360.2 330.16,-360.2 344.31,-360.2"/>
<polygon fill="midnightblue" stroke="midnightblue" points="344.45,-363.7 354.45,-360.2 344.45,-356.7 344.45,-363.7"/>
</g>
<!-- Node39 -->
<g id="node39" class="node">
<title>Node39</title>
<g id="a_node39"><a xlink:href="tlm__space__packet_8c.html#a086b20222708c5b7a9aaace514d19500" target="_top" xlink:title="Secondary Header Flag を設定">
<polygon fill="white" stroke="black" points="533.5,-464.7 533.5,-483.7 655.5,-483.7 655.5,-464.7 533.5,-464.7"/>
<text text-anchor="middle" x="594.5" y="-471.7" font-family="Helvetica,sans-Serif" font-size="10.00">TSP_set_2nd_hdr_flag</text>
</a>
</g>
</g>
<!-- Node38&#45;&gt;Node39 -->
<g id="edge49" class="edge">
<title>Node38&#45;&gt;Node39</title>
<path fill="none" stroke="midnightblue" d="M457.8,-445.79C482.18,-450.9 512.36,-457.21 538.06,-462.59"/>
<polygon fill="midnightblue" stroke="midnightblue" points="537.52,-466.06 548.03,-464.68 538.96,-459.21 537.52,-466.06"/>
</g>
<!-- Node41 -->
<g id="node41" class="node">
<title>Node41</title>
<g id="a_node41"><a xlink:href="tlm__space__packet_8c.html#a2dde2d41faea54b0997599427b64796a" target="_top" xlink:title="Sequence Flag を設定">
<polygon fill="white" stroke="black" points="544,-426.7 544,-445.7 645,-445.7 645,-426.7 544,-426.7"/>
<text text-anchor="middle" x="594.5" y="-433.7" font-family="Helvetica,sans-Serif" font-size="10.00">TSP_set_seq_flag</text>
</a>
</g>
</g>
<!-- Node38&#45;&gt;Node41 -->
<g id="edge52" class="edge">
<title>Node38&#45;&gt;Node41</title>
<path fill="none" stroke="midnightblue" d="M473.19,-436.2C492.65,-436.2 514.14,-436.2 533.5,-436.2"/>
<polygon fill="midnightblue" stroke="midnightblue" points="533.72,-439.7 543.72,-436.2 533.72,-432.7 533.72,-439.7"/>
</g>
<!-- Node43 -->
<g id="node43" class="node">
<title>Node43</title>
<g id="a_node43"><a xlink:href="tlm__space__packet_8c.html#a1b92e3806a30d3049d18eea341ee0c26" target="_top" xlink:title="Packet Type を設定">
<polygon fill="white" stroke="black" points="553.5,-388.7 553.5,-407.7 635.5,-407.7 635.5,-388.7 553.5,-388.7"/>
<text text-anchor="middle" x="594.5" y="-395.7" font-family="Helvetica,sans-Serif" font-size="10.00">TSP_set_type</text>
</a>
</g>
</g>
<!-- Node38&#45;&gt;Node43 -->
<g id="edge55" class="edge">
<title>Node38&#45;&gt;Node43</title>
<path fill="none" stroke="midnightblue" d="M457.8,-426.61C483.87,-421.15 516.57,-414.31 543.33,-408.71"/>
<polygon fill="midnightblue" stroke="midnightblue" points="544.21,-412.1 553.28,-406.62 542.77,-405.25 544.21,-412.1"/>
</g>
<!-- Node45 -->
<g id="node45" class="node">
<title>Node45</title>
<g id="a_node45"><a xlink:href="tlm__space__packet_8c.html#a725157c412be020faec3736821be8b6b" target="_top" xlink:title="Version No を設定">
<polygon fill="white" stroke="black" points="556.5,-502.7 556.5,-521.7 632.5,-521.7 632.5,-502.7 556.5,-502.7"/>
<text text-anchor="middle" x="594.5" y="-509.7" font-family="Helvetica,sans-Serif" font-size="10.00">TSP_set_ver</text>
</a>
</g>
</g>
<!-- Node38&#45;&gt;Node45 -->
<g id="edge58" class="edge">
<title>Node38&#45;&gt;Node45</title>
<path fill="none" stroke="midnightblue" d="M440.91,-445.75C451.4,-449.8 463.1,-455.02 473,-461.2 491.16,-472.53 489.95,-483.43 509,-493.2 520.51,-499.1 533.82,-503.19 546.43,-506"/>
<polygon fill="midnightblue" stroke="midnightblue" points="545.84,-509.46 556.34,-508 547.23,-502.59 545.84,-509.46"/>
</g>
<!-- Node40 -->
<g id="node40" class="node">
<title>Node40</title>
<g id="a_node40"><a xlink:href="space__packet_8c.html#aa8abca9ee84afbb20102452e81e48b5b" target="_top" xlink:title="Secondary Header Flag を設定">
<polygon fill="white" stroke="black" points="725,-464.7 725,-483.7 841,-483.7 841,-464.7 725,-464.7"/>
<text text-anchor="middle" x="783" y="-471.7" font-family="Helvetica,sans-Serif" font-size="10.00">SP_set_2nd_hdr_flag</text>
</a>
</g>
</g>
<!-- Node39&#45;&gt;Node40 -->
<g id="edge50" class="edge">
<title>Node39&#45;&gt;Node40</title>
<path fill="none" stroke="midnightblue" d="M655.54,-474.2C674.4,-474.2 695.35,-474.2 714.69,-474.2"/>
<polygon fill="midnightblue" stroke="midnightblue" points="714.93,-477.7 724.93,-474.2 714.93,-470.7 714.93,-477.7"/>
</g>
<!-- Node40&#45;&gt;Node13 -->
<g id="edge51" class="edge">
<title>Node40&#45;&gt;Node13</title>
<path fill="none" stroke="midnightblue" d="M833.23,-464.57C839.22,-462.12 844.99,-459.05 850,-455.2 893.4,-421.89 920.63,-361.63 933.23,-327.85"/>
<polygon fill="midnightblue" stroke="midnightblue" points="936.58,-328.87 936.67,-318.28 929.99,-326.51 936.58,-328.87"/>
</g>
<!-- Node42 -->
<g id="node42" class="node">
<title>Node42</title>
<g id="a_node42"><a xlink:href="space__packet_8c.html#a87c32edde9091b947e50ed99e16e6310" target="_top" xlink:title="Sequence Flag を設定">
<polygon fill="white" stroke="black" points="735.5,-426.7 735.5,-445.7 830.5,-445.7 830.5,-426.7 735.5,-426.7"/>
<text text-anchor="middle" x="783" y="-433.7" font-family="Helvetica,sans-Serif" font-size="10.00">SP_set_seq_flag</text>
</a>
</g>
</g>
<!-- Node41&#45;&gt;Node42 -->
<g id="edge53" class="edge">
<title>Node41&#45;&gt;Node42</title>
<path fill="none" stroke="midnightblue" d="M645.48,-436.2C670.04,-436.2 699.75,-436.2 725.17,-436.2"/>
<polygon fill="midnightblue" stroke="midnightblue" points="725.41,-439.7 735.41,-436.2 725.41,-432.7 725.41,-439.7"/>
</g>
<!-- Node42&#45;&gt;Node13 -->
<g id="edge54" class="edge">
<title>Node42&#45;&gt;Node13</title>
<path fill="none" stroke="midnightblue" d="M830.7,-426.69C837.48,-424.21 844.14,-421.1 850,-417.2 884.99,-393.9 913.01,-353.02 928.43,-327.07"/>
<polygon fill="midnightblue" stroke="midnightblue" points="931.56,-328.65 933.53,-318.24 925.5,-325.15 931.56,-328.65"/>
</g>
<!-- Node44 -->
<g id="node44" class="node">
<title>Node44</title>
<g id="a_node44"><a xlink:href="space__packet_8c.html#ad7ea8fd9875d2c0d682f2deb16a481e1" target="_top" xlink:title="Packet Type を設定">
<polygon fill="white" stroke="black" points="745,-388.7 745,-407.7 821,-407.7 821,-388.7 745,-388.7"/>
<text text-anchor="middle" x="783" y="-395.7" font-family="Helvetica,sans-Serif" font-size="10.00">SP_set_type</text>
</a>
</g>
</g>
<!-- Node43&#45;&gt;Node44 -->
<g id="edge56" class="edge">
<title>Node43&#45;&gt;Node44</title>
<path fill="none" stroke="midnightblue" d="M635.51,-398.2C664.65,-398.2 704.21,-398.2 734.88,-398.2"/>
<polygon fill="midnightblue" stroke="midnightblue" points="734.91,-401.7 744.91,-398.2 734.91,-394.7 734.91,-401.7"/>
</g>
<!-- Node44&#45;&gt;Node13 -->
<g id="edge57" class="edge">
<title>Node44&#45;&gt;Node13</title>
<path fill="none" stroke="midnightblue" d="M821.01,-390.44C830.76,-387.63 841.04,-383.94 850,-379.2 876.59,-365.13 902.55,-342.46 919.99,-325.54"/>
<polygon fill="midnightblue" stroke="midnightblue" points="922.73,-327.74 927.37,-318.22 917.8,-322.77 922.73,-327.74"/>
</g>
<!-- Node46 -->
<g id="node46" class="node">
<title>Node46</title>
<g id="a_node46"><a xlink:href="space__packet_8c.html#a66df39f39c177fae374912fb1eaae377" target="_top" xlink:title="Version No を設定">
<polygon fill="white" stroke="black" points="748,-502.7 748,-521.7 818,-521.7 818,-502.7 748,-502.7"/>
<text text-anchor="middle" x="783" y="-509.7" font-family="Helvetica,sans-Serif" font-size="10.00">SP_set_ver</text>
</a>
</g>
</g>
<!-- Node45&#45;&gt;Node46 -->
<g id="edge59" class="edge">
<title>Node45&#45;&gt;Node46</title>
<path fill="none" stroke="midnightblue" d="M632.79,-512.2C662.97,-512.2 705.56,-512.2 737.52,-512.2"/>
<polygon fill="midnightblue" stroke="midnightblue" points="737.91,-515.7 747.91,-512.2 737.91,-508.7 737.91,-515.7"/>
</g>
<!-- Node46&#45;&gt;Node13 -->
<g id="edge60" class="edge">
<title>Node46&#45;&gt;Node13</title>
<path fill="none" stroke="midnightblue" d="M818.19,-508.04C829.31,-505.29 841.07,-500.74 850,-493.2 902,-449.3 926.73,-368.98 936.37,-328.27"/>
<polygon fill="midnightblue" stroke="midnightblue" points="939.82,-328.89 938.6,-318.36 932.99,-327.35 939.82,-328.89"/>
</g>
<!-- Node48 -->
<g id="node48" class="node">
<title>Node48</title>
<g id="a_node48"><a xlink:href="space__packet_8c.html#addad7908c3c2db6b1ab2546971373bb7" target="_top" xlink:title="Packet Length を設定">
<polygon fill="white" stroke="black" points="541,-350.7 541,-369.7 648,-369.7 648,-350.7 541,-350.7"/>
<text text-anchor="middle" x="594.5" y="-357.7" font-family="Helvetica,sans-Serif" font-size="10.00">SP_set_packet_len</text>
</a>
</g>
</g>
<!-- Node47&#45;&gt;Node48 -->
<g id="edge62" class="edge">
<title>Node47&#45;&gt;Node48</title>
<path fill="none" stroke="midnightblue" d="M467.94,-360.2C487.81,-360.2 510.3,-360.2 530.71,-360.2"/>
<polygon fill="midnightblue" stroke="midnightblue" points="530.85,-363.7 540.85,-360.2 530.85,-356.7 530.85,-363.7"/>
</g>
<!-- Node49 -->
<g id="node49" class="node">
<title>Node49</title>
<g id="a_node49"><a xlink:href="space__packet_8c.html#a03e63eb8f8570b389b15eb44c5071af9" target="_top" xlink:title="Packet Data Length を設定">
<polygon fill="white" stroke="black" points="716,-350.7 716,-369.7 850,-369.7 850,-350.7 716,-350.7"/>
<text text-anchor="middle" x="783" y="-357.7" font-family="Helvetica,sans-Serif" font-size="10.00">SP_set_packet_data_len</text>
</a>
</g>
</g>
<!-- Node48&#45;&gt;Node49 -->
<g id="edge63" class="edge">
<title>Node48&#45;&gt;Node49</title>
<path fill="none" stroke="midnightblue" d="M648.44,-360.2C666.25,-360.2 686.47,-360.2 705.7,-360.2"/>
<polygon fill="midnightblue" stroke="midnightblue" points="705.96,-363.7 715.96,-360.2 705.96,-356.7 705.96,-363.7"/>
</g>
<!-- Node49&#45;&gt;Node13 -->
<g id="edge64" class="edge">
<title>Node49&#45;&gt;Node13</title>
<path fill="none" stroke="midnightblue" d="M810.36,-350.66C832.12,-342.79 863.65,-331.38 890.34,-321.72"/>
<polygon fill="midnightblue" stroke="midnightblue" points="891.71,-324.94 899.92,-318.25 889.33,-318.36 891.71,-324.94"/>
</g>
</g>
</svg>
