<?xml version="1.0" encoding="UTF-8" standalone="no"?>
<!DOCTYPE svg PUBLIC "-//W3C//DTD SVG 1.1//EN"
 "http://www.w3.org/Graphics/SVG/1.1/DTD/svg11.dtd">
<!-- Generated by graphviz version 2.43.0 (0)
 -->
<!-- Title: TLM_MGR_load_master_bc_ Pages: 1 -->
<svg width="2120pt" height="504pt"
 viewBox="0.00 0.00 2120.00 503.67" xmlns="http://www.w3.org/2000/svg" xmlns:xlink="http://www.w3.org/1999/xlink">
<g id="graph0" class="graph" transform="scale(1 1) rotate(0) translate(4 499.67)">
<title>TLM_MGR_load_master_bc_</title>
<polygon fill="white" stroke="transparent" points="-4,4 -4,-499.67 2116,-499.67 2116,4 -4,4"/>
<!-- Node1 -->
<g id="node1" class="node">
<title>Node1</title>
<g id="a_node1"><a xlink:title="BC全体を展開していくmaster BCの構築">
<polygon fill="#bfbfbf" stroke="black" points="0,-99 0,-118 153,-118 153,-99 0,-99"/>
<text text-anchor="middle" x="76.5" y="-106" font-family="Helvetica,sans-Serif" font-size="10.00">TLM_MGR_load_master_bc_</text>
</a>
</g>
</g>
<!-- Node2 -->
<g id="node2" class="node">
<title>Node2</title>
<g id="a_node2"><a xlink:href="block__command__loader_8c.html#a99596019ff3a563f43ebae43ce86a03a" target="_top" xlink:title="ブロックコマンドの最後にコンバイナーの実行コマンドを追加する">
<polygon fill="white" stroke="black" points="189,-61 189,-80 338,-80 338,-61 189,-61"/>
<text text-anchor="middle" x="263.5" y="-68" font-family="Helvetica,sans-Serif" font-size="10.00">BCL_tool_register_combine</text>
</a>
</g>
</g>
<!-- Node1&#45;&gt;Node2 -->
<g id="edge1" class="edge">
<title>Node1&#45;&gt;Node2</title>
<path fill="none" stroke="midnightblue" d="M124.18,-98.91C149.15,-93.78 180.06,-87.43 206.33,-82.04"/>
<polygon fill="midnightblue" stroke="midnightblue" points="207.06,-85.46 216.15,-80.02 205.65,-78.6 207.06,-85.46"/>
</g>
<!-- Node63 -->
<g id="node49" class="node">
<title>Node63</title>
<g id="a_node49"><a xlink:href="block__command__loader_8c.html#a3dab8c3e3aac3833b245e3ba7c597b81" target="_top" xlink:title="ブロックコマンドの最後にブロックコマンドの展開コマンドを追加する">
<polygon fill="white" stroke="black" points="193.5,-137 193.5,-156 333.5,-156 333.5,-137 193.5,-137"/>
<text text-anchor="middle" x="263.5" y="-144" font-family="Helvetica,sans-Serif" font-size="10.00">BCL_tool_register_deploy</text>
</a>
</g>
</g>
<!-- Node1&#45;&gt;Node63 -->
<g id="edge64" class="edge">
<title>Node1&#45;&gt;Node63</title>
<path fill="none" stroke="midnightblue" d="M124.18,-118.09C149.15,-123.22 180.06,-129.57 206.33,-134.96"/>
<polygon fill="midnightblue" stroke="midnightblue" points="205.65,-138.4 216.15,-136.98 207.06,-131.54 205.65,-138.4"/>
</g>
<!-- Node64 -->
<g id="node50" class="node">
<title>Node64</title>
<g id="a_node50"><a xlink:href="block__command__loader_8c.html#a03346645bccaa62a79cee806dfb3609e" target="_top" xlink:title="ブロックコマンドの最後にローテーターの実行コマンドを追加する">
<polygon fill="white" stroke="black" points="195,-99 195,-118 332,-118 332,-99 195,-99"/>
<text text-anchor="middle" x="263.5" y="-106" font-family="Helvetica,sans-Serif" font-size="10.00">BCL_tool_register_rotate</text>
</a>
</g>
</g>
<!-- Node1&#45;&gt;Node64 -->
<g id="edge70" class="edge">
<title>Node1&#45;&gt;Node64</title>
<path fill="none" stroke="midnightblue" d="M153.01,-108.5C163.54,-108.5 174.37,-108.5 184.93,-108.5"/>
<polygon fill="midnightblue" stroke="midnightblue" points="184.95,-112 194.95,-108.5 184.95,-105 184.95,-112"/>
</g>
<!-- Node3 -->
<g id="node3" class="node">
<title>Node3</title>
<g id="a_node3"><a xlink:href="block__command__loader_8c.html#ae259ce6d85f2937c0c260c4e70a523a6" target="_top" xlink:title=" ">
<polygon fill="white" stroke="black" points="396.5,-99 396.5,-118 490.5,-118 490.5,-99 396.5,-99"/>
<text text-anchor="middle" x="443.5" y="-106" font-family="Helvetica,sans-Serif" font-size="10.00">BCL_clear_info_</text>
</a>
</g>
</g>
<!-- Node2&#45;&gt;Node3 -->
<g id="edge2" class="edge">
<title>Node2&#45;&gt;Node3</title>
<path fill="none" stroke="midnightblue" d="M309.42,-80.09C333.33,-85.19 362.92,-91.51 388.12,-96.89"/>
<polygon fill="midnightblue" stroke="midnightblue" points="387.4,-100.31 397.91,-98.98 388.86,-93.47 387.4,-100.31"/>
</g>
<!-- Node4 -->
<g id="node4" class="node">
<title>Node4</title>
<g id="a_node4"><a xlink:href="block__command__loader_8c.html#a34da4d8efe30b2f1872103496dfcf8cb" target="_top" xlink:title=" ">
<polygon fill="white" stroke="black" points="388.5,-187 388.5,-206 498.5,-206 498.5,-187 388.5,-187"/>
<text text-anchor="middle" x="443.5" y="-194" font-family="Helvetica,sans-Serif" font-size="10.00">BCL_register_cmd_</text>
</a>
</g>
</g>
<!-- Node2&#45;&gt;Node4 -->
<g id="edge3" class="edge">
<title>Node2&#45;&gt;Node4</title>
<path fill="none" stroke="midnightblue" d="M322.86,-80.01C328.35,-82.5 333.52,-85.61 338,-89.5 369.58,-116.96 342.85,-148.55 374,-176.5 376.37,-178.62 378.95,-180.52 381.68,-182.22"/>
<polygon fill="midnightblue" stroke="midnightblue" points="380.33,-185.46 390.81,-186.99 383.57,-179.26 380.33,-185.46"/>
</g>
<!-- Node60 -->
<g id="node46" class="node">
<title>Node60</title>
<g id="a_node46"><a xlink:href="block__command__loader_8c.html#a4dabefbcf147b5f3e143df763c7f92a9" target="_top" xlink:title="コマンド登録前にコマンドの引数としてuint16のパラメータを追加する">
<polygon fill="white" stroke="black" points="374,-137.5 374,-167.5 513,-167.5 513,-137.5 374,-137.5"/>
<text text-anchor="start" x="382" y="-155.5" font-family="Helvetica,sans-Serif" font-size="10.00">BCL_tool_prepare_param</text>
<text text-anchor="middle" x="443.5" y="-144.5" font-family="Helvetica,sans-Serif" font-size="10.00">_uint16</text>
</a>
</g>
</g>
<!-- Node2&#45;&gt;Node60 -->
<g id="edge58" class="edge">
<title>Node2&#45;&gt;Node60</title>
<path fill="none" stroke="midnightblue" d="M316.57,-80.05C324.04,-82.52 331.41,-85.62 338,-89.5 358.04,-101.31 354.56,-114.73 374,-127.5 376.95,-129.44 380.06,-131.25 383.28,-132.93"/>
<polygon fill="midnightblue" stroke="midnightblue" points="382,-136.2 392.53,-137.38 385.03,-129.89 382,-136.2"/>
</g>
<!-- Node61 -->
<g id="node47" class="node">
<title>Node61</title>
<g id="a_node47"><a xlink:href="block__command__loader_8c.html#a300daae3b3ad2b7c6b091d8ec34dc906" target="_top" xlink:title="コマンド登録前にコマンドの引数としてuint32のパラメータを追加する">
<polygon fill="white" stroke="black" points="374,-49.5 374,-79.5 513,-79.5 513,-49.5 374,-49.5"/>
<text text-anchor="start" x="382" y="-67.5" font-family="Helvetica,sans-Serif" font-size="10.00">BCL_tool_prepare_param</text>
<text text-anchor="middle" x="443.5" y="-56.5" font-family="Helvetica,sans-Serif" font-size="10.00">_uint32</text>
</a>
</g>
</g>
<!-- Node2&#45;&gt;Node61 -->
<g id="edge60" class="edge">
<title>Node2&#45;&gt;Node61</title>
<path fill="none" stroke="midnightblue" d="M338.18,-68.02C346.55,-67.73 355.1,-67.45 363.53,-67.16"/>
<polygon fill="midnightblue" stroke="midnightblue" points="363.85,-70.65 373.72,-66.82 363.61,-63.66 363.85,-70.65"/>
</g>
<!-- Node62 -->
<g id="node48" class="node">
<title>Node62</title>
<g id="a_node48"><a xlink:href="block__command__loader_8c.html#aa9e8bc0a1b0bb6c9028156288afcbebc" target="_top" xlink:title="コマンド登録前にコマンドの引数としてuint8のパラメータを追加する">
<polygon fill="white" stroke="black" points="374,-0.5 374,-30.5 513,-30.5 513,-0.5 374,-0.5"/>
<text text-anchor="start" x="382" y="-18.5" font-family="Helvetica,sans-Serif" font-size="10.00">BCL_tool_prepare_param</text>
<text text-anchor="middle" x="443.5" y="-7.5" font-family="Helvetica,sans-Serif" font-size="10.00">_uint8</text>
</a>
</g>
</g>
<!-- Node2&#45;&gt;Node62 -->
<g id="edge62" class="edge">
<title>Node2&#45;&gt;Node62</title>
<path fill="none" stroke="midnightblue" d="M295.51,-60.92C319.85,-53.4 354.44,-42.71 383.95,-33.59"/>
<polygon fill="midnightblue" stroke="midnightblue" points="385.22,-36.86 393.74,-30.57 383.16,-30.17 385.22,-36.86"/>
</g>
<!-- Node5 -->
<g id="node5" class="node">
<title>Node5</title>
<g id="a_node5"><a xlink:href="block__command__table_8c.html#af4f041d9c2411d039196e8c2eb786005" target="_top" xlink:title="Cmd を block_command_table&#45;&gt;pos に登録する">
<polygon fill="white" stroke="black" points="549,-187 549,-206 654,-206 654,-187 549,-187"/>
<text text-anchor="middle" x="601.5" y="-194" font-family="Helvetica,sans-Serif" font-size="10.00">BCT_register_cmd</text>
</a>
</g>
</g>
<!-- Node4&#45;&gt;Node5 -->
<g id="edge4" class="edge">
<title>Node4&#45;&gt;Node5</title>
<path fill="none" stroke="midnightblue" d="M498.62,-196.5C511.6,-196.5 525.55,-196.5 538.83,-196.5"/>
<polygon fill="midnightblue" stroke="midnightblue" points="538.84,-200 548.84,-196.5 538.84,-193 538.84,-200"/>
</g>
<!-- Node18 -->
<g id="node14" class="node">
<title>Node18</title>
<g id="a_node14"><a xlink:href="common__cmd__packet__util_8c.html#a3695599b4d05dbb0b510c73dab7cd233" target="_top" xlink:title="Timeline command を生成">
<polygon fill="white" stroke="black" points="560.5,-318 560.5,-337 642.5,-337 642.5,-318 560.5,-318"/>
<text text-anchor="middle" x="601.5" y="-325" font-family="Helvetica,sans-Serif" font-size="10.00">CCP_form_tlc</text>
</a>
</g>
</g>
<!-- Node4&#45;&gt;Node18 -->
<g id="edge14" class="edge">
<title>Node4&#45;&gt;Node18</title>
<path fill="none" stroke="midnightblue" d="M455.97,-206.13C482.45,-228.37 548.1,-283.5 581.02,-311.14"/>
<polygon fill="midnightblue" stroke="midnightblue" points="579.1,-314.1 589.01,-317.85 583.6,-308.74 579.1,-314.1"/>
</g>
<!-- Node6 -->
<g id="node6" class="node">
<title>Node6</title>
<g id="a_node6"><a xlink:href="block__command__table_8c.html#ae25a57a4a97b49bf13a4caa0b5e8ff76" target="_top" xlink:title="BCT_Pos* の validate">
<polygon fill="white" stroke="black" points="848.5,-128 848.5,-147 962.5,-147 962.5,-128 848.5,-128"/>
<text text-anchor="middle" x="905.5" y="-135" font-family="Helvetica,sans-Serif" font-size="10.00">BCT_check_position</text>
</a>
</g>
</g>
<!-- Node5&#45;&gt;Node6 -->
<g id="edge5" class="edge">
<title>Node5&#45;&gt;Node6</title>
<path fill="none" stroke="midnightblue" d="M618.97,-186.9C636.1,-177.42 664,-163.38 690,-156.5 738.52,-143.67 795.13,-139.07 838.01,-137.6"/>
<polygon fill="midnightblue" stroke="midnightblue" points="838.16,-141.09 848.05,-137.3 837.95,-134.1 838.16,-141.09"/>
</g>
<!-- Node7 -->
<g id="node7" class="node">
<title>Node7</title>
<g id="a_node7"><a xlink:href="block__command__table_8c.html#add2db8412ac7b28b2e61d99638daaac5" target="_top" xlink:title="BCT の length の getter">
<polygon fill="white" stroke="black" points="692,-242 692,-261 802,-261 802,-242 692,-242"/>
<text text-anchor="middle" x="747" y="-249" font-family="Helvetica,sans-Serif" font-size="10.00">BCT_get_bc_length</text>
</a>
</g>
</g>
<!-- Node5&#45;&gt;Node7 -->
<g id="edge6" class="edge">
<title>Node5&#45;&gt;Node7</title>
<path fill="none" stroke="midnightblue" d="M624.64,-206.06C642.24,-213.56 667.54,-224.08 690,-232.5 695.54,-234.58 701.43,-236.68 707.22,-238.7"/>
<polygon fill="midnightblue" stroke="midnightblue" points="706.22,-242.05 716.81,-241.99 708.49,-235.43 706.22,-242.05"/>
</g>
<!-- Node8 -->
<g id="node8" class="node">
<title>Node8</title>
<g id="a_node8"><a xlink:href="block__command__table_8c.html#aa8c676311a614f56a48444ffb17f7e87" target="_top" xlink:title="pos の指す場所に packet の内容を保存 (TCP_PRM_HDR_LEN の長さも考慮)">
<polygon fill="white" stroke="black" points="699,-204 699,-223 795,-223 795,-204 699,-204"/>
<text text-anchor="middle" x="747" y="-211" font-family="Helvetica,sans-Serif" font-size="10.00">BCT_save_cmd_</text>
</a>
</g>
</g>
<!-- Node5&#45;&gt;Node8 -->
<g id="edge7" class="edge">
<title>Node5&#45;&gt;Node8</title>
<path fill="none" stroke="midnightblue" d="M654.31,-202.64C665.37,-203.95 677.12,-205.34 688.39,-206.67"/>
<polygon fill="midnightblue" stroke="midnightblue" points="688.22,-210.18 698.57,-207.88 689.05,-203.23 688.22,-210.18"/>
</g>
<!-- Node17 -->
<g id="node13" class="node">
<title>Node17</title>
<g id="a_node13"><a xlink:href="block__command__table_8c.html#a8de02d89c561030741c771739016db35" target="_top" xlink:title=" ">
<polygon fill="white" stroke="black" points="690,-166 690,-185 804,-185 804,-166 690,-166"/>
<text text-anchor="middle" x="747" y="-173" font-family="Helvetica,sans-Serif" font-size="10.00">BCT_set_bc_length_</text>
</a>
</g>
</g>
<!-- Node5&#45;&gt;Node17 -->
<g id="edge13" class="edge">
<title>Node5&#45;&gt;Node17</title>
<path fill="none" stroke="midnightblue" d="M654.31,-188.92C662.62,-187.7 671.31,-186.43 679.9,-185.17"/>
<polygon fill="midnightblue" stroke="midnightblue" points="680.51,-188.62 689.9,-183.71 679.5,-181.69 680.51,-188.62"/>
</g>
<!-- Node8&#45;&gt;Node6 -->
<g id="edge8" class="edge">
<title>Node8&#45;&gt;Node6</title>
<path fill="none" stroke="midnightblue" d="M784.73,-203.9C791.41,-201.37 798.12,-198.27 804,-194.5 823.59,-181.95 820.16,-168.65 840,-156.5 843.43,-154.4 847.1,-152.52 850.9,-150.84"/>
<polygon fill="midnightblue" stroke="midnightblue" points="852.47,-153.98 860.49,-147.07 849.9,-147.47 852.47,-153.98"/>
</g>
<!-- Node9 -->
<g id="node9" class="node">
<title>Node9</title>
<g id="a_node9"><a xlink:href="block__command__table_8c.html#a5099527d441a777f4656300ab41037da" target="_top" xlink:title=" ">
<polygon fill="white" stroke="black" points="840,-204 840,-223 971,-223 971,-204 840,-204"/>
<text text-anchor="middle" x="905.5" y="-211" font-family="Helvetica,sans-Serif" font-size="10.00">BCT_set_bc_cmd_data_</text>
</a>
</g>
</g>
<!-- Node8&#45;&gt;Node9 -->
<g id="edge9" class="edge">
<title>Node8&#45;&gt;Node9</title>
<path fill="none" stroke="midnightblue" d="M795.38,-213.5C806.23,-213.5 818.03,-213.5 829.73,-213.5"/>
<polygon fill="midnightblue" stroke="midnightblue" points="829.95,-217 839.95,-213.5 829.95,-210 829.95,-217"/>
</g>
<!-- Node10 -->
<g id="node10" class="node">
<title>Node10</title>
<g id="a_node10"><a xlink:href="common__cmd__packet_8h.html#a09b2e0ad8f87be0782c0f8ef2523f44c" target="_top" xlink:title="パケット長を取得">
<polygon fill="white" stroke="black" points="848,-166 848,-185 963,-185 963,-166 848,-166"/>
<text text-anchor="middle" x="905.5" y="-173" font-family="Helvetica,sans-Serif" font-size="10.00">CCP_get_packet_len</text>
</a>
</g>
</g>
<!-- Node8&#45;&gt;Node10 -->
<g id="edge10" class="edge">
<title>Node8&#45;&gt;Node10</title>
<path fill="none" stroke="midnightblue" d="M787.49,-203.91C808.14,-198.9 833.61,-192.71 855.51,-187.39"/>
<polygon fill="midnightblue" stroke="midnightblue" points="856.4,-190.78 865.29,-185.02 854.75,-183.98 856.4,-190.78"/>
</g>
<!-- Node11 -->
<g id="node11" class="node">
<title>Node11</title>
<g id="a_node11"><a xlink:href="cmd__space__packet_8c.html#aee157565d728de693218da48114b5923" target="_top" xlink:title="Packet Length を取得">
<polygon fill="white" stroke="black" points="1023,-147 1023,-166 1137,-166 1137,-147 1023,-147"/>
<text text-anchor="middle" x="1080" y="-154" font-family="Helvetica,sans-Serif" font-size="10.00">CSP_get_packet_len</text>
</a>
</g>
</g>
<!-- Node10&#45;&gt;Node11 -->
<g id="edge11" class="edge">
<title>Node10&#45;&gt;Node11</title>
<path fill="none" stroke="midnightblue" d="M963.46,-169.23C979.31,-167.48 996.65,-165.57 1012.97,-163.77"/>
<polygon fill="midnightblue" stroke="midnightblue" points="1013.42,-167.24 1022.98,-162.67 1012.66,-160.29 1013.42,-167.24"/>
</g>
<!-- Node12 -->
<g id="node12" class="node">
<title>Node12</title>
<g id="a_node12"><a xlink:href="space__packet_8c.html#a25afed909fb67da49f5ac9921a23744f" target="_top" xlink:title="Packet Length を取得">
<polygon fill="white" stroke="red" points="1214.5,-128 1214.5,-147 1321.5,-147 1321.5,-128 1214.5,-128"/>
<text text-anchor="middle" x="1268" y="-135" font-family="Helvetica,sans-Serif" font-size="10.00">SP_get_packet_len</text>
</a>
</g>
</g>
<!-- Node11&#45;&gt;Node12 -->
<g id="edge12" class="edge">
<title>Node11&#45;&gt;Node12</title>
<path fill="none" stroke="midnightblue" d="M1137.06,-150.77C1158.2,-148.61 1182.39,-146.14 1204.12,-143.92"/>
<polygon fill="midnightblue" stroke="midnightblue" points="1204.65,-147.39 1214.24,-142.89 1203.94,-140.42 1204.65,-147.39"/>
</g>
<!-- Node19 -->
<g id="node15" class="node">
<title>Node19</title>
<g id="a_node15"><a xlink:href="command__analyze_8c.html#ae878a1a8ce00cc7468fbdd5bc5aba864" target="_top" xlink:title="コマンドパラメタ長をチェックする">
<polygon fill="white" stroke="black" points="1007,-242 1007,-261 1153,-261 1153,-242 1007,-242"/>
<text text-anchor="middle" x="1080" y="-249" font-family="Helvetica,sans-Serif" font-size="10.00">CA_ckeck_cmd_param_len</text>
</a>
</g>
</g>
<!-- Node18&#45;&gt;Node19 -->
<g id="edge15" class="edge">
<title>Node18&#45;&gt;Node19</title>
<path fill="none" stroke="midnightblue" d="M642.9,-318.12C657.67,-314.85 674.55,-311.31 690,-308.5 795.24,-289.39 917.41,-272.31 996.34,-261.95"/>
<polygon fill="midnightblue" stroke="midnightblue" points="997.24,-265.36 1006.71,-260.59 996.34,-258.42 997.24,-265.36"/>
</g>
<!-- Node26 -->
<g id="node22" class="node">
<title>Node26</title>
<g id="a_node22"><a xlink:href="common__cmd__packet__util_8c.html#ae0f356389f15546c7e067db35bde985d" target="_top" xlink:title="Realtime Command から Timeline Command へ変換">
<polygon fill="white" stroke="black" points="1016,-432 1016,-451 1144,-451 1144,-432 1016,-432"/>
<text text-anchor="middle" x="1080" y="-439" font-family="Helvetica,sans-Serif" font-size="10.00">CCP_convert_rtc_to_tlc</text>
</a>
</g>
</g>
<!-- Node18&#45;&gt;Node26 -->
<g id="edge24" class="edge">
<title>Node18&#45;&gt;Node26</title>
<path fill="none" stroke="midnightblue" d="M620.79,-337.14C638.17,-345.93 665.25,-358.71 690,-366.5 797.37,-400.29 926.43,-421.53 1005.58,-432.45"/>
<polygon fill="midnightblue" stroke="midnightblue" points="1005.55,-435.98 1015.93,-433.86 1006.49,-429.04 1005.55,-435.98"/>
</g>
<!-- Node32 -->
<g id="node30" class="node">
<title>Node32</title>
<g id="a_node30"><a xlink:href="common__cmd__packet__util_8c.html#a01b352632ca605771f0cfd66a2a149ba" target="_top" xlink:title="NOP cmd の RTC CCP を作る">
<polygon fill="white" stroke="black" points="691.5,-318 691.5,-337 802.5,-337 802.5,-318 691.5,-318"/>
<text text-anchor="middle" x="747" y="-325" font-family="Helvetica,sans-Serif" font-size="10.00">CCP_form_nop_rtc_</text>
</a>
</g>
</g>
<!-- Node18&#45;&gt;Node32 -->
<g id="edge33" class="edge">
<title>Node18&#45;&gt;Node32</title>
<path fill="none" stroke="midnightblue" d="M642.85,-327.5C654.76,-327.5 668.1,-327.5 681.14,-327.5"/>
<polygon fill="midnightblue" stroke="midnightblue" points="681.49,-331 691.49,-327.5 681.49,-324 681.49,-331"/>
</g>
<!-- Node34 -->
<g id="node32" class="node">
<title>Node34</title>
<g id="a_node32"><a xlink:href="common__cmd__packet__util_8c.html#a58160242c4b87906597c90a3465c9596" target="_top" xlink:title="RealTime Command を生成する. CCP_form_* の実体.">
<polygon fill="white" stroke="black" points="1036,-356 1036,-375 1124,-375 1124,-356 1036,-356"/>
<text text-anchor="middle" x="1080" y="-363" font-family="Helvetica,sans-Serif" font-size="10.00">CCP_form_rtc_</text>
</a>
</g>
</g>
<!-- Node18&#45;&gt;Node34 -->
<g id="edge57" class="edge">
<title>Node18&#45;&gt;Node34</title>
<path fill="none" stroke="midnightblue" d="M639.73,-337C655.18,-340.58 673.36,-344.3 690,-346.5 809.24,-362.25 950.59,-365.28 1025.75,-365.67"/>
<polygon fill="midnightblue" stroke="midnightblue" points="1025.9,-369.17 1035.91,-365.71 1025.92,-362.17 1025.9,-369.17"/>
</g>
<!-- Node20 -->
<g id="node16" class="node">
<title>Node20</title>
<g id="a_node16"><a xlink:href="command__analyze_8c.html#ac95557475d470f986e1eb46befbc2ae9" target="_top" xlink:title="最小コマンドパラメタ長を取得する">
<polygon fill="white" stroke="black" points="1189,-204 1189,-223 1347,-223 1347,-204 1189,-204"/>
<text text-anchor="middle" x="1268" y="-211" font-family="Helvetica,sans-Serif" font-size="10.00">CA_get_cmd_param_min_len</text>
</a>
</g>
</g>
<!-- Node19&#45;&gt;Node20 -->
<g id="edge16" class="edge">
<title>Node19&#45;&gt;Node20</title>
<path fill="none" stroke="midnightblue" d="M1127.94,-241.91C1153.03,-236.78 1184.12,-230.43 1210.53,-225.04"/>
<polygon fill="midnightblue" stroke="midnightblue" points="1211.3,-228.45 1220.4,-223.02 1209.9,-221.59 1211.3,-228.45"/>
</g>
<!-- Node23 -->
<g id="node19" class="node">
<title>Node23</title>
<g id="a_node19"><a xlink:href="command__analyze_8c.html#a8b245c2a85084ae21588acd4deb3b3d6" target="_top" xlink:title="RAW パラメタを持っているか？">
<polygon fill="white" stroke="black" points="1211.5,-166 1211.5,-185 1324.5,-185 1324.5,-166 1211.5,-166"/>
<text text-anchor="middle" x="1268" y="-173" font-family="Helvetica,sans-Serif" font-size="10.00">CA_has_raw_param</text>
</a>
</g>
</g>
<!-- Node19&#45;&gt;Node23 -->
<g id="edge19" class="edge">
<title>Node19&#45;&gt;Node23</title>
<path fill="none" stroke="midnightblue" d="M1096.17,-241.94C1116.58,-229.46 1154.31,-207.65 1189,-194.5 1195.72,-191.95 1202.9,-189.66 1210.08,-187.63"/>
<polygon fill="midnightblue" stroke="midnightblue" points="1211.07,-190.98 1219.82,-185.01 1209.25,-184.22 1211.07,-190.98"/>
</g>
<!-- Node25 -->
<g id="node21" class="node">
<title>Node25</title>
<g id="a_node21"><a xlink:href="common__cmd__packet_8h.html#a0cb576a77e94553c22d9cb70a6fd50f1" target="_top" xlink:title="CMD パラメタ長の最大値を取得">
<polygon fill="white" stroke="black" points="1197.5,-242 1197.5,-261 1338.5,-261 1338.5,-242 1197.5,-242"/>
<text text-anchor="middle" x="1268" y="-249" font-family="Helvetica,sans-Serif" font-size="10.00">CCP_get_max_param_len</text>
</a>
</g>
</g>
<!-- Node19&#45;&gt;Node25 -->
<g id="edge23" class="edge">
<title>Node19&#45;&gt;Node25</title>
<path fill="none" stroke="midnightblue" d="M1153.18,-251.5C1164.28,-251.5 1175.8,-251.5 1187.06,-251.5"/>
<polygon fill="midnightblue" stroke="midnightblue" points="1187.31,-255 1197.31,-251.5 1187.31,-248 1187.31,-255"/>
</g>
<!-- Node21 -->
<g id="node17" class="node">
<title>Node21</title>
<g id="a_node17"><a xlink:href="command__analyze_8c.html#a464f3aa16753a76bc5093100542a361a" target="_top" xlink:title="コマンドパラメタサイズを取得する">
<polygon fill="white" stroke="black" points="1384,-204 1384,-223 1523,-223 1523,-204 1384,-204"/>
<text text-anchor="middle" x="1453.5" y="-211" font-family="Helvetica,sans-Serif" font-size="10.00">CA_get_cmd_param_size</text>
</a>
</g>
</g>
<!-- Node20&#45;&gt;Node21 -->
<g id="edge17" class="edge">
<title>Node20&#45;&gt;Node21</title>
<path fill="none" stroke="midnightblue" d="M1347.09,-213.5C1355.85,-213.5 1364.78,-213.5 1373.56,-213.5"/>
<polygon fill="midnightblue" stroke="midnightblue" points="1373.77,-217 1383.77,-213.5 1373.77,-210 1373.77,-217"/>
</g>
<!-- Node22 -->
<g id="node18" class="node">
<title>Node22</title>
<g id="a_node18"><a xlink:href="command__analyze_8c.html#aa312aeadf3ce336a10385fe14e22f77c" target="_top" xlink:title="コマンドパラメタのサイズ情報を取得">
<polygon fill="white" stroke="black" points="1560,-128 1560,-147 1705,-147 1705,-128 1560,-128"/>
<text text-anchor="middle" x="1632.5" y="-135" font-family="Helvetica,sans-Serif" font-size="10.00">CA_get_param_size_type_</text>
</a>
</g>
</g>
<!-- Node21&#45;&gt;Node22 -->
<g id="edge18" class="edge">
<title>Node21&#45;&gt;Node22</title>
<path fill="none" stroke="midnightblue" d="M1489.38,-203.94C1500.76,-200.18 1513.23,-195.34 1524,-189.5 1541.82,-179.84 1542.14,-171.08 1560,-161.5 1567.96,-157.23 1576.83,-153.51 1585.54,-150.37"/>
<polygon fill="midnightblue" stroke="midnightblue" points="1586.9,-153.6 1595.24,-147.06 1584.64,-146.98 1586.9,-153.6"/>
</g>
<!-- Node23&#45;&gt;Node22 -->
<g id="edge22" class="edge">
<title>Node23&#45;&gt;Node22</title>
<path fill="none" stroke="midnightblue" d="M1324.62,-172.97C1376.39,-170.23 1455.61,-165.07 1524,-156.5 1540.04,-154.49 1557.33,-151.71 1573.26,-148.9"/>
<polygon fill="midnightblue" stroke="midnightblue" points="1574.27,-152.27 1583.49,-147.05 1573.03,-145.38 1574.27,-152.27"/>
</g>
<!-- Node24 -->
<g id="node20" class="node">
<title>Node24</title>
<g id="a_node20"><a xlink:href="command__analyze_8c.html#a170772c49fb7883a382a30bd38485a6e" target="_top" xlink:title="コマンドパラメタ数を取得する">
<polygon fill="white" stroke="black" points="1383,-128 1383,-147 1524,-147 1524,-128 1383,-128"/>
<text text-anchor="middle" x="1453.5" y="-135" font-family="Helvetica,sans-Serif" font-size="10.00">CA_get_cmd_param_num</text>
</a>
</g>
</g>
<!-- Node23&#45;&gt;Node24 -->
<g id="edge20" class="edge">
<title>Node23&#45;&gt;Node24</title>
<path fill="none" stroke="midnightblue" d="M1315.3,-165.91C1339.96,-160.81 1370.46,-154.49 1396.44,-149.11"/>
<polygon fill="midnightblue" stroke="midnightblue" points="1397.45,-152.48 1406.53,-147.02 1396.03,-145.62 1397.45,-152.48"/>
</g>
<!-- Node24&#45;&gt;Node22 -->
<g id="edge21" class="edge">
<title>Node24&#45;&gt;Node22</title>
<path fill="none" stroke="midnightblue" d="M1524.2,-137.5C1532.52,-137.5 1541.08,-137.5 1549.55,-137.5"/>
<polygon fill="midnightblue" stroke="midnightblue" points="1549.83,-141 1559.83,-137.5 1549.83,-134 1549.83,-141"/>
</g>
<!-- Node27 -->
<g id="node23" class="node">
<title>Node27</title>
<g id="a_node23"><a xlink:href="common__cmd__packet_8h.html#ab4c0b1be76b7097e922a8a354f500b88" target="_top" xlink:title="EXEC_TYPE を設定">
<polygon fill="white" stroke="black" points="1212.5,-432 1212.5,-451 1323.5,-451 1323.5,-432 1212.5,-432"/>
<text text-anchor="middle" x="1268" y="-439" font-family="Helvetica,sans-Serif" font-size="10.00">CCP_set_exec_type</text>
</a>
</g>
</g>
<!-- Node26&#45;&gt;Node27 -->
<g id="edge25" class="edge">
<title>Node26&#45;&gt;Node27</title>
<path fill="none" stroke="midnightblue" d="M1144.23,-441.5C1162.89,-441.5 1183.34,-441.5 1202.1,-441.5"/>
<polygon fill="midnightblue" stroke="midnightblue" points="1202.33,-445 1212.33,-441.5 1202.33,-438 1202.33,-445"/>
</g>
<!-- Node30 -->
<g id="node28" class="node">
<title>Node30</title>
<g id="a_node28"><a xlink:href="common__cmd__packet_8h.html#a1fde7575e47a25464d869a3247e1e087" target="_top" xlink:title="TI を設定">
<polygon fill="white" stroke="black" points="1234,-470 1234,-489 1302,-489 1302,-470 1234,-470"/>
<text text-anchor="middle" x="1268" y="-477" font-family="Helvetica,sans-Serif" font-size="10.00">CCP_set_ti</text>
</a>
</g>
</g>
<!-- Node26&#45;&gt;Node30 -->
<g id="edge30" class="edge">
<title>Node26&#45;&gt;Node30</title>
<path fill="none" stroke="midnightblue" d="M1127.94,-451.09C1157.36,-457.1 1195.02,-464.79 1223.72,-470.66"/>
<polygon fill="midnightblue" stroke="midnightblue" points="1223.36,-474.16 1233.86,-472.73 1224.76,-467.3 1223.36,-474.16"/>
</g>
<!-- Node28 -->
<g id="node24" class="node">
<title>Node28</title>
<g id="a_node24"><a xlink:href="cmd__space__packet_8c.html#a031c095293173f7bc0fa4a97852b7060" target="_top" xlink:title="Execution Type を設定">
<polygon fill="white" stroke="black" points="1577.5,-432 1577.5,-451 1687.5,-451 1687.5,-432 1577.5,-432"/>
<text text-anchor="middle" x="1632.5" y="-439" font-family="Helvetica,sans-Serif" font-size="10.00">CSP_set_exec_type</text>
</a>
</g>
</g>
<!-- Node27&#45;&gt;Node28 -->
<g id="edge26" class="edge">
<title>Node27&#45;&gt;Node28</title>
<path fill="none" stroke="midnightblue" d="M1323.66,-441.5C1388.85,-441.5 1497.67,-441.5 1566.94,-441.5"/>
<polygon fill="midnightblue" stroke="midnightblue" points="1567.28,-445 1577.28,-441.5 1567.28,-438 1567.28,-445"/>
</g>
<!-- Node29 -->
<g id="node25" class="node">
<title>Node29</title>
<g id="a_node25"><a xlink:href="space__packet_8c.html#a9d4e5051b01d74f88ee13ce05f61b392" target="_top" xlink:title="packet に param を格納">
<polygon fill="white" stroke="black" points="1741,-236.5 1741,-266.5 1854,-266.5 1854,-236.5 1741,-236.5"/>
<text text-anchor="start" x="1749" y="-254.5" font-family="Helvetica,sans-Serif" font-size="10.00">SP_insert_param_to</text>
<text text-anchor="middle" x="1797.5" y="-243.5" font-family="Helvetica,sans-Serif" font-size="10.00">_packet</text>
</a>
</g>
</g>
<!-- Node28&#45;&gt;Node29 -->
<g id="edge27" class="edge">
<title>Node28&#45;&gt;Node29</title>
<path fill="none" stroke="midnightblue" d="M1678.88,-431.91C1688.2,-428.46 1697.46,-423.79 1705,-417.5 1750.53,-379.5 1777.3,-312.74 1789.16,-276.54"/>
<polygon fill="midnightblue" stroke="midnightblue" points="1792.57,-277.36 1792.24,-266.77 1785.9,-275.26 1792.57,-277.36"/>
</g>
<!-- Node15 -->
<g id="node26" class="node">
<title>Node15</title>
<g id="a_node26"><a xlink:href="endian_8c.html#af3c71c10af16134e94da32e1e0d8d0f8" target="_top" xlink:title="エンディアンを考慮した memcpy">
<polygon fill="white" stroke="black" points="1890,-71 1890,-90 1993,-90 1993,-71 1890,-71"/>
<text text-anchor="middle" x="1941.5" y="-78" font-family="Helvetica,sans-Serif" font-size="10.00">ENDIAN_memcpy</text>
</a>
</g>
</g>
<!-- Node29&#45;&gt;Node15 -->
<g id="edge28" class="edge">
<title>Node29&#45;&gt;Node15</title>
<path fill="none" stroke="midnightblue" d="M1811.1,-236.32C1837.4,-204.66 1897.98,-131.71 1925.91,-98.07"/>
<polygon fill="midnightblue" stroke="midnightblue" points="1928.87,-99.98 1932.57,-90.05 1923.48,-95.51 1928.87,-99.98"/>
</g>
<!-- Node16 -->
<g id="node27" class="node">
<title>Node16</title>
<g id="a_node27"><a xlink:href="endian_8c.html#a3f28de556ac6792695854c7b4f437925" target="_top" xlink:title="エンディアンの変更">
<polygon fill="white" stroke="black" points="2029,-71 2029,-90 2112,-90 2112,-71 2029,-71"/>
<text text-anchor="middle" x="2070.5" y="-78" font-family="Helvetica,sans-Serif" font-size="10.00">ENDIAN_conv</text>
</a>
</g>
</g>
<!-- Node15&#45;&gt;Node16 -->
<g id="edge29" class="edge">
<title>Node15&#45;&gt;Node16</title>
<path fill="none" stroke="midnightblue" d="M1993.06,-80.5C2001.52,-80.5 2010.3,-80.5 2018.76,-80.5"/>
<polygon fill="midnightblue" stroke="midnightblue" points="2018.88,-84 2028.88,-80.5 2018.88,-77 2018.88,-84"/>
</g>
<!-- Node31 -->
<g id="node29" class="node">
<title>Node31</title>
<g id="a_node29"><a xlink:href="cmd__space__packet_8c.html#a3b7cf4c50d51882d730ad25b754259fd" target="_top" xlink:title="Time Indicator (TI) を設定">
<polygon fill="white" stroke="black" points="1419.5,-470 1419.5,-489 1487.5,-489 1487.5,-470 1419.5,-470"/>
<text text-anchor="middle" x="1453.5" y="-477" font-family="Helvetica,sans-Serif" font-size="10.00">CSP_set_ti</text>
</a>
</g>
</g>
<!-- Node30&#45;&gt;Node31 -->
<g id="edge31" class="edge">
<title>Node30&#45;&gt;Node31</title>
<path fill="none" stroke="midnightblue" d="M1302.23,-479.5C1332.15,-479.5 1376.31,-479.5 1409.02,-479.5"/>
<polygon fill="midnightblue" stroke="midnightblue" points="1409.21,-483 1419.21,-479.5 1409.21,-476 1409.21,-483"/>
</g>
<!-- Node31&#45;&gt;Node29 -->
<g id="edge32" class="edge">
<title>Node31&#45;&gt;Node29</title>
<path fill="none" stroke="midnightblue" d="M1487.69,-486.93C1539.32,-496.49 1639.72,-506.8 1705,-460.5 1766.63,-416.78 1787.22,-322.16 1793.71,-276.78"/>
<polygon fill="midnightblue" stroke="midnightblue" points="1797.21,-276.98 1795.04,-266.61 1790.27,-276.07 1797.21,-276.98"/>
</g>
<!-- Node33 -->
<g id="node31" class="node">
<title>Node33</title>
<g id="a_node31"><a xlink:href="common__cmd__packet__util_8c.html#af9f77cfe0b19d8078e79f1c32d9b2843" target="_top" xlink:title="Realtime command を生成">
<polygon fill="white" stroke="black" points="864,-318 864,-337 947,-337 947,-318 864,-318"/>
<text text-anchor="middle" x="905.5" y="-325" font-family="Helvetica,sans-Serif" font-size="10.00">CCP_form_rtc</text>
</a>
</g>
</g>
<!-- Node32&#45;&gt;Node33 -->
<g id="edge34" class="edge">
<title>Node32&#45;&gt;Node33</title>
<path fill="none" stroke="midnightblue" d="M802.74,-321.03C819.22,-320.63 837.24,-320.66 853.48,-321.13"/>
<polygon fill="midnightblue" stroke="midnightblue" points="853.74,-324.64 863.85,-321.5 853.98,-317.64 853.74,-324.64"/>
</g>
<!-- Node33&#45;&gt;Node19 -->
<g id="edge35" class="edge">
<title>Node33&#45;&gt;Node19</title>
<path fill="none" stroke="midnightblue" d="M934.02,-317.89C945.55,-313.71 959.02,-308.6 971,-303.5 998.85,-291.64 1029.93,-276.47 1051.56,-265.58"/>
<polygon fill="midnightblue" stroke="midnightblue" points="1053.17,-268.69 1060.51,-261.05 1050.01,-262.44 1053.17,-268.69"/>
</g>
<!-- Node33&#45;&gt;Node32 -->
<g id="edge36" class="edge">
<title>Node33&#45;&gt;Node32</title>
<path fill="none" stroke="midnightblue" d="M863.85,-333.5C848.27,-334.17 830.08,-334.39 812.79,-334.16"/>
<polygon fill="midnightblue" stroke="midnightblue" points="812.8,-330.66 802.74,-333.97 812.67,-337.66 812.8,-330.66"/>
</g>
<!-- Node33&#45;&gt;Node34 -->
<g id="edge37" class="edge">
<title>Node33&#45;&gt;Node34</title>
<path fill="none" stroke="midnightblue" d="M947.38,-336.51C970.86,-341.68 1000.62,-348.23 1025.9,-353.8"/>
<polygon fill="midnightblue" stroke="midnightblue" points="1025.18,-357.23 1035.7,-355.96 1026.69,-350.39 1025.18,-357.23"/>
</g>
<!-- Node34&#45;&gt;Node27 -->
<g id="edge50" class="edge">
<title>Node34&#45;&gt;Node27</title>
<path fill="none" stroke="midnightblue" d="M1096.17,-375.06C1116.58,-387.54 1154.31,-409.35 1189,-422.5 1195.72,-425.05 1202.9,-427.34 1210.08,-429.37"/>
<polygon fill="midnightblue" stroke="midnightblue" points="1209.25,-432.78 1219.82,-431.99 1211.07,-426.02 1209.25,-432.78"/>
</g>
<!-- Node34&#45;&gt;Node30 -->
<g id="edge56" class="edge">
<title>Node34&#45;&gt;Node30</title>
<path fill="none" stroke="midnightblue" d="M1094.2,-375.06C1109,-385.97 1133.47,-404.63 1153,-422.5 1170.16,-438.2 1168.88,-448.83 1189,-460.5 1199.64,-466.67 1212.22,-470.85 1224.13,-473.67"/>
<polygon fill="midnightblue" stroke="midnightblue" points="1223.42,-477.1 1233.93,-475.74 1224.87,-470.25 1223.42,-477.1"/>
</g>
<!-- Node35 -->
<g id="node33" class="node">
<title>Node35</title>
<g id="a_node33"><a xlink:href="common__cmd__packet_8h.html#a53e55e3275bb17840514876c95203402" target="_top" xlink:title="共通部分の Header を構築">
<polygon fill="white" stroke="black" points="1205.5,-318 1205.5,-337 1330.5,-337 1330.5,-318 1205.5,-318"/>
<text text-anchor="middle" x="1268" y="-325" font-family="Helvetica,sans-Serif" font-size="10.00">CCP_set_common_hdr</text>
</a>
</g>
</g>
<!-- Node34&#45;&gt;Node35 -->
<g id="edge38" class="edge">
<title>Node34&#45;&gt;Node35</title>
<path fill="none" stroke="midnightblue" d="M1124.14,-356.69C1149.75,-351.45 1182.53,-344.76 1210.23,-339.1"/>
<polygon fill="midnightblue" stroke="midnightblue" points="1211.09,-342.5 1220.18,-337.06 1209.69,-335.64 1211.09,-342.5"/>
</g>
<!-- Node51 -->
<g id="node40" class="node">
<title>Node51</title>
<g id="a_node40"><a xlink:href="common__cmd__packet_8h.html#a6ce61d959627cd955de389b10cadca90" target="_top" xlink:title="DEST_TYPE を設定">
<polygon fill="white" stroke="black" points="1213,-280 1213,-299 1323,-299 1323,-280 1213,-280"/>
<text text-anchor="middle" x="1268" y="-287" font-family="Helvetica,sans-Serif" font-size="10.00">CCP_set_dest_type</text>
</a>
</g>
</g>
<!-- Node34&#45;&gt;Node51 -->
<g id="edge47" class="edge">
<title>Node34&#45;&gt;Node51</title>
<path fill="none" stroke="midnightblue" d="M1096.17,-355.94C1116.58,-343.46 1154.31,-321.65 1189,-308.5 1195.72,-305.95 1202.9,-303.66 1210.08,-301.63"/>
<polygon fill="midnightblue" stroke="midnightblue" points="1211.07,-304.98 1219.82,-299.01 1209.25,-298.22 1211.07,-304.98"/>
</g>
<!-- Node53 -->
<g id="node42" class="node">
<title>Node53</title>
<g id="a_node42"><a xlink:href="common__cmd__packet_8h.html#ad3a6d476c3b56794c35a15e3a1d0a395" target="_top" xlink:title="CMD ID を設定">
<polygon fill="white" stroke="black" points="1232.5,-394 1232.5,-413 1303.5,-413 1303.5,-394 1232.5,-394"/>
<text text-anchor="middle" x="1268" y="-401" font-family="Helvetica,sans-Serif" font-size="10.00">CCP_set_id</text>
</a>
</g>
</g>
<!-- Node34&#45;&gt;Node53 -->
<g id="edge51" class="edge">
<title>Node34&#45;&gt;Node53</title>
<path fill="none" stroke="midnightblue" d="M1124.14,-374.31C1153.61,-380.33 1192.57,-388.29 1222.35,-394.38"/>
<polygon fill="midnightblue" stroke="midnightblue" points="1221.98,-397.87 1232.48,-396.45 1223.38,-391.02 1221.98,-397.87"/>
</g>
<!-- Node55 -->
<g id="node44" class="node">
<title>Node55</title>
<g id="a_node44"><a xlink:href="common__cmd__packet_8h.html#a07200400c567d95965dda94da0f55b67" target="_top" xlink:title="パラメタを設定">
<polygon fill="white" stroke="black" points="1221.5,-356 1221.5,-375 1314.5,-375 1314.5,-356 1221.5,-356"/>
<text text-anchor="middle" x="1268" y="-363" font-family="Helvetica,sans-Serif" font-size="10.00">CCP_set_param</text>
</a>
</g>
</g>
<!-- Node34&#45;&gt;Node55 -->
<g id="edge54" class="edge">
<title>Node34&#45;&gt;Node55</title>
<path fill="none" stroke="midnightblue" d="M1124.14,-365.5C1150.14,-365.5 1183.52,-365.5 1211.47,-365.5"/>
<polygon fill="midnightblue" stroke="midnightblue" points="1211.5,-369 1221.5,-365.5 1211.5,-362 1211.5,-369"/>
</g>
<!-- Node36 -->
<g id="node34" class="node">
<title>Node36</title>
<g id="a_node34"><a xlink:href="cmd__space__packet_8c.html#aa4f250d0b768ce918101f7959940b9da" target="_top" xlink:title="共通部分の Header を構築">
<polygon fill="white" stroke="red" points="1391,-299 1391,-318 1516,-318 1516,-299 1391,-299"/>
<text text-anchor="middle" x="1453.5" y="-306" font-family="Helvetica,sans-Serif" font-size="10.00">CSP_set_common_hdr</text>
</a>
</g>
</g>
<!-- Node35&#45;&gt;Node36 -->
<g id="edge39" class="edge">
<title>Node35&#45;&gt;Node36</title>
<path fill="none" stroke="midnightblue" d="M1330.61,-321.12C1346.65,-319.46 1364.07,-317.66 1380.59,-315.95"/>
<polygon fill="midnightblue" stroke="midnightblue" points="1381.15,-319.41 1390.74,-314.9 1380.43,-312.44 1381.15,-319.41"/>
</g>
<!-- Node37 -->
<g id="node35" class="node">
<title>Node37</title>
<g id="a_node35"><a xlink:href="cmd__space__packet_8c.html#a33b732036a8d1c3a212769b1c18e280f" target="_top" xlink:title="Secondary Header Flag を設定">
<polygon fill="white" stroke="red" points="1571,-280 1571,-299 1694,-299 1694,-280 1571,-280"/>
<text text-anchor="middle" x="1632.5" y="-287" font-family="Helvetica,sans-Serif" font-size="10.00">CSP_set_2nd_hdr_flag</text>
</a>
</g>
</g>
<!-- Node36&#45;&gt;Node37 -->
<g id="edge40" class="edge">
<title>Node36&#45;&gt;Node37</title>
<path fill="none" stroke="midnightblue" d="M1516.41,-301.85C1530.74,-300.32 1546.11,-298.67 1560.79,-297.09"/>
<polygon fill="midnightblue" stroke="midnightblue" points="1561.25,-300.56 1570.82,-296.01 1560.51,-293.6 1561.25,-300.56"/>
</g>
<!-- Node39 -->
<g id="node36" class="node">
<title>Node39</title>
<g id="a_node36"><a xlink:href="cmd__space__packet_8c.html#ac5e8d588a3737dc6c6d65defd0ef04bd" target="_top" xlink:title="Secondary Header Version No を設定">
<polygon fill="white" stroke="black" points="1572,-204 1572,-223 1693,-223 1693,-204 1572,-204"/>
<text text-anchor="middle" x="1632.5" y="-211" font-family="Helvetica,sans-Serif" font-size="10.00">CSP_set_2nd_hdr_ver</text>
</a>
</g>
</g>
<!-- Node36&#45;&gt;Node39 -->
<g id="edge41" class="edge">
<title>Node36&#45;&gt;Node39</title>
<path fill="none" stroke="midnightblue" d="M1506.6,-298.91C1512.8,-296.45 1518.77,-293.37 1524,-289.5 1548.08,-271.67 1535.85,-250.24 1560,-232.5 1562.64,-230.56 1565.46,-228.82 1568.41,-227.26"/>
<polygon fill="midnightblue" stroke="midnightblue" points="1569.9,-230.42 1577.54,-223.08 1566.99,-224.06 1569.9,-230.42"/>
</g>
<!-- Node40 -->
<g id="node37" class="node">
<title>Node40</title>
<g id="a_node37"><a xlink:href="cmd__space__packet_8c.html#ae4cd4ddfdcc558b8c205240147b6f4af" target="_top" xlink:title="APID を設定">
<polygon fill="white" stroke="red" points="1591.5,-356 1591.5,-375 1673.5,-375 1673.5,-356 1591.5,-356"/>
<text text-anchor="middle" x="1632.5" y="-363" font-family="Helvetica,sans-Serif" font-size="10.00">CSP_set_apid</text>
</a>
</g>
</g>
<!-- Node36&#45;&gt;Node40 -->
<g id="edge43" class="edge">
<title>Node36&#45;&gt;Node40</title>
<path fill="none" stroke="midnightblue" d="M1479.02,-318.01C1500.28,-326.09 1531.94,-337.74 1560,-346.5 1567.5,-348.84 1575.5,-351.15 1583.33,-353.31"/>
<polygon fill="midnightblue" stroke="midnightblue" points="1582.54,-356.72 1593.11,-355.95 1584.36,-349.96 1582.54,-356.72"/>
</g>
<!-- Node42 -->
<g id="node38" class="node">
<title>Node42</title>
<g id="a_node38"><a xlink:href="cmd__space__packet_8c.html#aff5958581af82bafc57755aca719dfb0" target="_top" xlink:title="Command Type を設定">
<polygon fill="white" stroke="black" points="1578,-242 1578,-261 1687,-261 1687,-242 1578,-242"/>
<text text-anchor="middle" x="1632.5" y="-249" font-family="Helvetica,sans-Serif" font-size="10.00">CSP_set_cmd_type</text>
</a>
</g>
</g>
<!-- Node36&#45;&gt;Node42 -->
<g id="edge44" class="edge">
<title>Node36&#45;&gt;Node42</title>
<path fill="none" stroke="midnightblue" d="M1495.41,-298.92C1504.93,-296.25 1514.93,-293.08 1524,-289.5 1540.83,-282.85 1543.15,-277.09 1560,-270.5 1566.19,-268.08 1572.8,-265.86 1579.4,-263.86"/>
<polygon fill="midnightblue" stroke="midnightblue" points="1580.38,-267.22 1589.02,-261.1 1578.45,-260.5 1580.38,-267.22"/>
</g>
<!-- Node43 -->
<g id="node39" class="node">
<title>Node43</title>
<g id="a_node39"><a xlink:href="cmd__space__packet_8c.html#ad7ef5d2e5412c86b9782acb544bd5078" target="_top" xlink:title="Sequence Count を設定">
<polygon fill="white" stroke="red" points="1577.5,-318 1577.5,-337 1687.5,-337 1687.5,-318 1577.5,-318"/>
<text text-anchor="middle" x="1632.5" y="-325" font-family="Helvetica,sans-Serif" font-size="10.00">CSP_set_seq_count</text>
</a>
</g>
</g>
<!-- Node36&#45;&gt;Node43 -->
<g id="edge46" class="edge">
<title>Node36&#45;&gt;Node43</title>
<path fill="none" stroke="midnightblue" d="M1516.41,-315.15C1532.83,-316.91 1550.61,-318.82 1567.17,-320.59"/>
<polygon fill="midnightblue" stroke="midnightblue" points="1566.98,-324.09 1577.29,-321.68 1567.72,-317.13 1566.98,-324.09"/>
</g>
<!-- Node39&#45;&gt;Node29 -->
<g id="edge42" class="edge">
<title>Node39&#45;&gt;Node29</title>
<path fill="none" stroke="midnightblue" d="M1674.63,-223.09C1691.74,-227.08 1712.02,-231.81 1731.08,-236.25"/>
<polygon fill="midnightblue" stroke="midnightblue" points="1730.38,-239.68 1740.91,-238.54 1731.97,-232.86 1730.38,-239.68"/>
</g>
<!-- Node42&#45;&gt;Node29 -->
<g id="edge45" class="edge">
<title>Node42&#45;&gt;Node29</title>
<path fill="none" stroke="midnightblue" d="M1687.32,-251.5C1701.13,-251.5 1716.14,-251.5 1730.48,-251.5"/>
<polygon fill="midnightblue" stroke="midnightblue" points="1730.78,-255 1740.78,-251.5 1730.78,-248 1730.78,-255"/>
</g>
<!-- Node52 -->
<g id="node41" class="node">
<title>Node52</title>
<g id="a_node41"><a xlink:href="cmd__space__packet_8c.html#a4083ff1a9dbe5894cfacf756d02a50a4" target="_top" xlink:title="Destination Type を設定">
<polygon fill="white" stroke="black" points="1399,-261 1399,-280 1508,-280 1508,-261 1399,-261"/>
<text text-anchor="middle" x="1453.5" y="-268" font-family="Helvetica,sans-Serif" font-size="10.00">CSP_set_dest_type</text>
</a>
</g>
</g>
<!-- Node51&#45;&gt;Node52 -->
<g id="edge48" class="edge">
<title>Node51&#45;&gt;Node52</title>
<path fill="none" stroke="midnightblue" d="M1323.06,-283.9C1343.69,-281.77 1367.39,-279.31 1388.83,-277.09"/>
<polygon fill="midnightblue" stroke="midnightblue" points="1389.24,-280.57 1398.82,-276.06 1388.52,-273.61 1389.24,-280.57"/>
</g>
<!-- Node52&#45;&gt;Node29 -->
<g id="edge49" class="edge">
<title>Node52&#45;&gt;Node29</title>
<path fill="none" stroke="midnightblue" d="M1475.92,-260.95C1490.22,-254.07 1509.07,-244 1524,-232.5 1542.43,-218.3 1538.63,-203.69 1560,-194.5 1619.2,-169.04 1643.04,-176.78 1705,-194.5 1729.43,-201.49 1753.69,-217.1 1771.08,-230.22"/>
<polygon fill="midnightblue" stroke="midnightblue" points="1769,-233.03 1779.04,-236.41 1773.3,-227.51 1769,-233.03"/>
</g>
<!-- Node54 -->
<g id="node43" class="node">
<title>Node54</title>
<g id="a_node43"><a xlink:href="cmd__space__packet_8c.html#a80ab9fe9f6561b18ef7b5a11ea0005b4" target="_top" xlink:title="Command ID を設定">
<polygon fill="white" stroke="black" points="1405.5,-394 1405.5,-413 1501.5,-413 1501.5,-394 1405.5,-394"/>
<text text-anchor="middle" x="1453.5" y="-401" font-family="Helvetica,sans-Serif" font-size="10.00">CSP_set_cmd_id</text>
</a>
</g>
</g>
<!-- Node53&#45;&gt;Node54 -->
<g id="edge52" class="edge">
<title>Node53&#45;&gt;Node54</title>
<path fill="none" stroke="midnightblue" d="M1303.51,-403.5C1329.24,-403.5 1364.96,-403.5 1394.97,-403.5"/>
<polygon fill="midnightblue" stroke="midnightblue" points="1395.33,-407 1405.33,-403.5 1395.33,-400 1395.33,-407"/>
</g>
<!-- Node54&#45;&gt;Node29 -->
<g id="edge53" class="edge">
<title>Node54&#45;&gt;Node29</title>
<path fill="none" stroke="midnightblue" d="M1501.86,-411.43C1555.02,-417.85 1642.05,-420.71 1705,-384.5 1747.31,-360.17 1774.4,-307.39 1787.4,-276.13"/>
<polygon fill="midnightblue" stroke="midnightblue" points="1790.66,-277.38 1791.12,-266.8 1784.16,-274.79 1790.66,-277.38"/>
</g>
<!-- Node56 -->
<g id="node45" class="node">
<title>Node56</title>
<g id="a_node45"><a xlink:href="cmd__space__packet_8c.html#aebe0c42d5d5b6443c55709890b6ad093" target="_top" xlink:title="コマンドパラメタを設定">
<polygon fill="white" stroke="red" points="1407.5,-356 1407.5,-375 1499.5,-375 1499.5,-356 1407.5,-356"/>
<text text-anchor="middle" x="1453.5" y="-363" font-family="Helvetica,sans-Serif" font-size="10.00">CSP_set_param</text>
</a>
</g>
</g>
<!-- Node55&#45;&gt;Node56 -->
<g id="edge55" class="edge">
<title>Node55&#45;&gt;Node56</title>
<path fill="none" stroke="midnightblue" d="M1314.83,-365.5C1339.76,-365.5 1370.78,-365.5 1397.06,-365.5"/>
<polygon fill="midnightblue" stroke="midnightblue" points="1397.25,-369 1407.25,-365.5 1397.25,-362 1397.25,-369"/>
</g>
<!-- Node60&#45;&gt;Node15 -->
<g id="edge59" class="edge">
<title>Node60&#45;&gt;Node15</title>
<path fill="none" stroke="midnightblue" d="M497.38,-137.45C557.2,-121.78 657.78,-99.5 746,-99.5 746,-99.5 746,-99.5 1633.5,-99.5 1719.11,-99.5 1817.9,-92.05 1879.79,-86.48"/>
<polygon fill="midnightblue" stroke="midnightblue" points="1880.13,-89.96 1889.77,-85.57 1879.49,-82.99 1880.13,-89.96"/>
</g>
<!-- Node61&#45;&gt;Node15 -->
<g id="edge61" class="edge">
<title>Node61&#45;&gt;Node15</title>
<path fill="none" stroke="midnightblue" d="M513.05,-63.43C574.16,-62.57 666.04,-61.5 746,-61.5 746,-61.5 746,-61.5 1633.5,-61.5 1719.11,-61.5 1817.9,-68.95 1879.79,-74.52"/>
<polygon fill="midnightblue" stroke="midnightblue" points="1879.49,-78.01 1889.77,-75.43 1880.13,-71.04 1879.49,-78.01"/>
</g>
<!-- Node62&#45;&gt;Node15 -->
<g id="edge63" class="edge">
<title>Node62&#45;&gt;Node15</title>
<path fill="none" stroke="midnightblue" d="M513.05,-17.28C574.15,-18.72 666.03,-20.5 746,-20.5 746,-20.5 746,-20.5 1633.5,-20.5 1731.61,-20.5 1844.13,-50.38 1901.87,-67.97"/>
<polygon fill="midnightblue" stroke="midnightblue" points="1901.07,-71.38 1911.66,-70.99 1903.14,-64.7 1901.07,-71.38"/>
</g>
<!-- Node63&#45;&gt;Node3 -->
<g id="edge65" class="edge">
<title>Node63&#45;&gt;Node3</title>
<path fill="none" stroke="midnightblue" d="M309.42,-136.91C333.33,-131.81 362.92,-125.49 388.12,-120.11"/>
<polygon fill="midnightblue" stroke="midnightblue" points="388.86,-123.53 397.91,-118.02 387.4,-116.69 388.86,-123.53"/>
</g>
<!-- Node63&#45;&gt;Node4 -->
<g id="edge66" class="edge">
<title>Node63&#45;&gt;Node4</title>
<path fill="none" stroke="midnightblue" d="M298.4,-156.02C326.89,-164.02 367.8,-175.52 398.75,-184.21"/>
<polygon fill="midnightblue" stroke="midnightblue" points="397.85,-187.59 408.42,-186.93 399.74,-180.85 397.85,-187.59"/>
</g>
<!-- Node63&#45;&gt;Node60 -->
<g id="edge67" class="edge">
<title>Node63&#45;&gt;Node60</title>
<path fill="none" stroke="midnightblue" d="M333.57,-148.83C343.37,-149.16 353.5,-149.5 363.46,-149.84"/>
<polygon fill="midnightblue" stroke="midnightblue" points="363.65,-153.34 373.76,-150.18 363.88,-146.35 363.65,-153.34"/>
</g>
<!-- Node63&#45;&gt;Node61 -->
<g id="edge68" class="edge">
<title>Node63&#45;&gt;Node61</title>
<path fill="none" stroke="midnightblue" d="M316.57,-136.95C324.04,-134.48 331.41,-131.38 338,-127.5 358.04,-115.69 354.56,-102.27 374,-89.5 376.95,-87.56 380.06,-85.75 383.28,-84.07"/>
<polygon fill="midnightblue" stroke="midnightblue" points="385.03,-87.11 392.53,-79.62 382,-80.8 385.03,-87.11"/>
</g>
<!-- Node63&#45;&gt;Node62 -->
<g id="edge69" class="edge">
<title>Node63&#45;&gt;Node62</title>
<path fill="none" stroke="midnightblue" d="M323.24,-136.84C328.59,-134.38 333.63,-131.31 338,-127.5 369.83,-99.71 343.36,-68.6 374,-39.5 375.26,-38.31 376.58,-37.17 377.95,-36.09"/>
<polygon fill="midnightblue" stroke="midnightblue" points="379.93,-38.98 386.3,-30.51 376.04,-33.16 379.93,-38.98"/>
</g>
<!-- Node64&#45;&gt;Node3 -->
<g id="edge71" class="edge">
<title>Node64&#45;&gt;Node3</title>
<path fill="none" stroke="midnightblue" d="M332.05,-108.5C349.8,-108.5 368.77,-108.5 385.89,-108.5"/>
<polygon fill="midnightblue" stroke="midnightblue" points="386.28,-112 396.28,-108.5 386.28,-105 386.28,-112"/>
</g>
<!-- Node64&#45;&gt;Node4 -->
<g id="edge72" class="edge">
<title>Node64&#45;&gt;Node4</title>
<path fill="none" stroke="midnightblue" d="M318.94,-118.01C325.68,-120.48 332.22,-123.58 338,-127.5 360.38,-142.65 351.86,-161.01 374,-176.5 377.48,-178.94 381.26,-181.08 385.2,-182.96"/>
<polygon fill="midnightblue" stroke="midnightblue" points="384.02,-186.27 394.59,-186.91 386.73,-179.81 384.02,-186.27"/>
</g>
<!-- Node64&#45;&gt;Node60 -->
<g id="edge73" class="edge">
<title>Node64&#45;&gt;Node60</title>
<path fill="none" stroke="midnightblue" d="M303.12,-118.05C323.16,-123 348.29,-129.21 371.66,-134.99"/>
<polygon fill="midnightblue" stroke="midnightblue" points="371.01,-138.43 381.55,-137.43 372.69,-131.64 371.01,-138.43"/>
</g>
<!-- Node64&#45;&gt;Node61 -->
<g id="edge74" class="edge">
<title>Node64&#45;&gt;Node61</title>
<path fill="none" stroke="midnightblue" d="M303.12,-98.95C323.16,-94 348.29,-87.79 371.66,-82.01"/>
<polygon fill="midnightblue" stroke="midnightblue" points="372.69,-85.36 381.55,-79.57 371.01,-78.57 372.69,-85.36"/>
</g>
<!-- Node64&#45;&gt;Node62 -->
<g id="edge75" class="edge">
<title>Node64&#45;&gt;Node62</title>
<path fill="none" stroke="midnightblue" d="M319.36,-98.9C325.95,-96.45 332.34,-93.37 338,-89.5 360.6,-74.04 352.07,-55.89 374,-39.5 375.85,-38.12 377.78,-36.82 379.77,-35.58"/>
<polygon fill="midnightblue" stroke="midnightblue" points="381.76,-38.48 388.86,-30.62 378.41,-32.34 381.76,-38.48"/>
</g>
</g>
</svg>
