<?xml version="1.0" encoding="UTF-8" standalone="no"?>
<!DOCTYPE svg PUBLIC "-//W3C//DTD SVG 1.1//EN"
 "http://www.w3.org/Graphics/SVG/1.1/DTD/svg11.dtd">
<!-- Generated by graphviz version 2.43.0 (0)
 -->
<!-- Title: src/src_core/TlmCmd/telemetry_frame.h Pages: 1 -->
<svg width="1015pt" height="374pt"
 viewBox="0.00 0.00 1015.00 374.00" xmlns="http://www.w3.org/2000/svg" xmlns:xlink="http://www.w3.org/1999/xlink">
<g id="graph0" class="graph" transform="scale(1 1) rotate(0) translate(4 370)">
<title>src/src_core/TlmCmd/telemetry_frame.h</title>
<polygon fill="white" stroke="transparent" points="-4,4 -4,-370 1011,-370 1011,4 -4,4"/>
<!-- Node1 -->
<g id="node1" class="node">
<title>Node1</title>
<g id="a_node1"><a xlink:title="テレメトリの登録，テレメトリ関連処理">
<polygon fill="#bfbfbf" stroke="black" points="503.5,-335.5 503.5,-365.5 622.5,-365.5 622.5,-335.5 503.5,-335.5"/>
<text text-anchor="start" x="511.5" y="-353.5" font-family="Helvetica,sans-Serif" font-size="10.00">src/src_core/TlmCmd</text>
<text text-anchor="middle" x="563" y="-342.5" font-family="Helvetica,sans-Serif" font-size="10.00">/telemetry_frame.h</text>
</a>
</g>
</g>
<!-- Node2 -->
<g id="node2" class="node">
<title>Node2</title>
<g id="a_node2"><a xlink:href="common__tlm__cmd__packet_8h.html" target="_top" xlink:title="CTCP の宣言">
<polygon fill="white" stroke="black" points="396,-274 396,-293 556,-293 556,-274 396,-274"/>
<text text-anchor="middle" x="476" y="-281" font-family="Helvetica,sans-Serif" font-size="10.00">./common_tlm_cmd_packet.h</text>
</a>
</g>
</g>
<!-- Node1&#45;&gt;Node2 -->
<g id="edge1" class="edge">
<title>Node1&#45;&gt;Node2</title>
<path fill="none" stroke="midnightblue" d="M544.12,-335.4C529.89,-324.76 510.4,-310.2 495.92,-299.38"/>
<polygon fill="midnightblue" stroke="midnightblue" points="497.74,-296.38 487.64,-293.19 493.55,-301.98 497.74,-296.38"/>
</g>
<!-- Node16 -->
<g id="node16" class="node">
<title>Node16</title>
<g id="a_node16"><a xlink:href="telemetry__frame__params_8h.html" target="_top" xlink:title="TFのCoreTlmパラメタのオーバーライド用ヘッダー">
<polygon fill="white" stroke="black" points="574.5,-268.5 574.5,-298.5 727.5,-298.5 727.5,-268.5 574.5,-268.5"/>
<text text-anchor="start" x="582.5" y="-286.5" font-family="Helvetica,sans-Serif" font-size="10.00">src_user/Settings/TlmCmd</text>
<text text-anchor="middle" x="651" y="-275.5" font-family="Helvetica,sans-Serif" font-size="10.00">/telemetry_frame_params.h</text>
</a>
</g>
</g>
<!-- Node1&#45;&gt;Node16 -->
<g id="edge21" class="edge">
<title>Node1&#45;&gt;Node16</title>
<path fill="none" stroke="midnightblue" d="M582.09,-335.4C594.32,-326.37 610.37,-314.51 623.9,-304.52"/>
<polygon fill="midnightblue" stroke="midnightblue" points="625.98,-307.33 631.94,-298.58 621.82,-301.7 625.98,-307.33"/>
</g>
<!-- Node3 -->
<g id="node3" class="node">
<title>Node3</title>
<g id="a_node3"><a xlink:title=" ">
<polygon fill="white" stroke="#bfbfbf" points="0,-62 0,-81 56,-81 56,-62 0,-62"/>
<text text-anchor="middle" x="28" y="-69" font-family="Helvetica,sans-Serif" font-size="10.00">stddef.h</text>
</a>
</g>
</g>
<!-- Node2&#45;&gt;Node3 -->
<g id="edge2" class="edge">
<title>Node2&#45;&gt;Node3</title>
<path fill="none" stroke="midnightblue" d="M395.71,-279.07C273.93,-273.04 54.05,-258.58 30,-232 -5.38,-192.88 10.78,-123.68 21.37,-90.81"/>
<polygon fill="midnightblue" stroke="midnightblue" points="24.75,-91.75 24.67,-81.16 18.12,-89.49 24.75,-91.75"/>
</g>
<!-- Node4 -->
<g id="node4" class="node">
<title>Node4</title>
<g id="a_node4"><a xlink:href="obc__time_8h.html" target="_top" xlink:title="OBCの時刻情報の定義と演算">
<polygon fill="white" stroke="black" points="409.5,-196 409.5,-226 542.5,-226 542.5,-196 409.5,-196"/>
<text text-anchor="start" x="417.5" y="-214" font-family="Helvetica,sans-Serif" font-size="10.00">../System/TimeManager</text>
<text text-anchor="middle" x="476" y="-203" font-family="Helvetica,sans-Serif" font-size="10.00">/obc_time.h</text>
</a>
</g>
</g>
<!-- Node2&#45;&gt;Node4 -->
<g id="edge3" class="edge">
<title>Node2&#45;&gt;Node4</title>
<path fill="none" stroke="midnightblue" d="M476,-273.86C476,-264.55 476,-249.33 476,-236.31"/>
<polygon fill="midnightblue" stroke="midnightblue" points="479.5,-236.08 476,-226.08 472.5,-236.08 479.5,-236.08"/>
</g>
<!-- Node5 -->
<g id="node5" class="node">
<title>Node5</title>
<g id="a_node5"><a xlink:href="stdint_8h.html" target="_top" xlink:title=" ">
<polygon fill="white" stroke="black" points="335,-62 335,-81 469,-81 469,-62 335,-62"/>
<text text-anchor="middle" x="402" y="-69" font-family="Helvetica,sans-Serif" font-size="10.00">src_user/Library/stdint.h</text>
</a>
</g>
</g>
<!-- Node2&#45;&gt;Node5 -->
<g id="edge8" class="edge">
<title>Node2&#45;&gt;Node5</title>
<path fill="none" stroke="midnightblue" d="M452.68,-273.91C434.96,-266 411.84,-252.37 401,-232 376.67,-186.28 388.42,-122.23 396.52,-91.04"/>
<polygon fill="midnightblue" stroke="midnightblue" points="399.97,-91.7 399.27,-81.13 393.23,-89.83 399.97,-91.7"/>
</g>
<!-- Node8 -->
<g id="node8" class="node">
<title>Node8</title>
<g id="a_node8"><a xlink:href="command__definitions_8h.html" target="_top" xlink:title="コマンド定義">
<polygon fill="white" stroke="black" points="715.5,-196 715.5,-226 868.5,-226 868.5,-196 715.5,-196"/>
<text text-anchor="start" x="723.5" y="-214" font-family="Helvetica,sans-Serif" font-size="10.00">src_user/TlmCmd/command</text>
<text text-anchor="middle" x="792" y="-203" font-family="Helvetica,sans-Serif" font-size="10.00">_definitions.h</text>
</a>
</g>
</g>
<!-- Node2&#45;&gt;Node8 -->
<g id="edge7" class="edge">
<title>Node2&#45;&gt;Node8</title>
<path fill="none" stroke="midnightblue" d="M515.51,-273.98C561.36,-264.06 639.21,-247.1 706,-232 711.23,-230.82 716.64,-229.58 722.08,-228.34"/>
<polygon fill="midnightblue" stroke="midnightblue" points="722.92,-231.74 731.88,-226.08 721.35,-224.91 722.92,-231.74"/>
</g>
<!-- Node9 -->
<g id="node9" class="node">
<title>Node9</title>
<g id="a_node9"><a xlink:href="app__registry_8h.html" target="_top" xlink:title=" ">
<polygon fill="white" stroke="black" points="887,-196 887,-226 1007,-226 1007,-196 887,-196"/>
<text text-anchor="start" x="895" y="-214" font-family="Helvetica,sans-Serif" font-size="10.00">src_user/Applications</text>
<text text-anchor="middle" x="947" y="-203" font-family="Helvetica,sans-Serif" font-size="10.00">/app_registry.h</text>
</a>
</g>
</g>
<!-- Node2&#45;&gt;Node9 -->
<g id="edge9" class="edge">
<title>Node2&#45;&gt;Node9</title>
<path fill="none" stroke="midnightblue" d="M526.4,-273.97C539.29,-271.9 553.14,-269.78 566,-268 704.27,-248.89 741.15,-259.53 878,-232 882.92,-231.01 887.99,-229.84 893.06,-228.57"/>
<polygon fill="midnightblue" stroke="midnightblue" points="893.95,-231.95 902.73,-226.01 892.17,-225.18 893.95,-231.95"/>
</g>
<!-- Node10 -->
<g id="node10" class="node">
<title>Node10</title>
<g id="a_node10"><a xlink:href="common__tlm__cmd__packet__define_8h.html" target="_top" xlink:title="CTCP型の定義">
<polygon fill="white" stroke="black" points="39,-190.5 39,-231.5 187,-231.5 187,-190.5 39,-190.5"/>
<text text-anchor="start" x="47" y="-219.5" font-family="Helvetica,sans-Serif" font-size="10.00">src_user/Settings/TlmCmd</text>
<text text-anchor="start" x="47" y="-208.5" font-family="Helvetica,sans-Serif" font-size="10.00">/common_tlm_cmd_packet</text>
<text text-anchor="middle" x="113" y="-197.5" font-family="Helvetica,sans-Serif" font-size="10.00">_define.h</text>
</a>
</g>
</g>
<!-- Node2&#45;&gt;Node10 -->
<g id="edge10" class="edge">
<title>Node2&#45;&gt;Node10</title>
<path fill="none" stroke="midnightblue" d="M423.44,-273.96C369.19,-264.93 281.88,-249.81 197.21,-232.2"/>
<polygon fill="midnightblue" stroke="midnightblue" points="197.67,-228.72 187.16,-230.1 196.23,-235.57 197.67,-228.72"/>
</g>
<!-- Node13 -->
<g id="node13" class="node">
<title>Node13</title>
<g id="a_node13"><a xlink:href="common__tlm__cmd__packet__params_8h.html" target="_top" xlink:title="CTCP パラメタのオーバーライド用ヘッダー">
<polygon fill="white" stroke="black" points="205,-190.5 205,-231.5 353,-231.5 353,-190.5 205,-190.5"/>
<text text-anchor="start" x="213" y="-219.5" font-family="Helvetica,sans-Serif" font-size="10.00">src_user/Settings/TlmCmd</text>
<text text-anchor="start" x="213" y="-208.5" font-family="Helvetica,sans-Serif" font-size="10.00">/common_tlm_cmd_packet</text>
<text text-anchor="middle" x="279" y="-197.5" font-family="Helvetica,sans-Serif" font-size="10.00">_params.h</text>
</a>
</g>
</g>
<!-- Node2&#45;&gt;Node13 -->
<g id="edge15" class="edge">
<title>Node2&#45;&gt;Node13</title>
<path fill="none" stroke="midnightblue" d="M452.24,-274C425.46,-264.41 380.82,-248.44 343.56,-235.1"/>
<polygon fill="midnightblue" stroke="midnightblue" points="344.36,-231.67 333.76,-231.6 342,-238.26 344.36,-231.67"/>
</g>
<!-- Node14 -->
<g id="node14" class="node">
<title>Node14</title>
<g id="a_node14"><a xlink:href="block__command__table_8h.html" target="_top" xlink:title="BCTの定義, BCT周りの関数">
<polygon fill="white" stroke="black" points="561,-201.5 561,-220.5 697,-220.5 697,-201.5 561,-201.5"/>
<text text-anchor="middle" x="629" y="-208.5" font-family="Helvetica,sans-Serif" font-size="10.00">block_command_table.h</text>
</a>
</g>
</g>
<!-- Node2&#45;&gt;Node14 -->
<g id="edge17" class="edge">
<title>Node2&#45;&gt;Node14</title>
<path fill="none" stroke="midnightblue" d="M489.87,-274C514.01,-261.66 563.53,-238.73 596.61,-224.48"/>
<polygon fill="midnightblue" stroke="midnightblue" points="598.06,-227.67 605.89,-220.53 595.32,-221.23 598.06,-227.67"/>
</g>
<!-- Node4&#45;&gt;Node5 -->
<g id="edge4" class="edge">
<title>Node4&#45;&gt;Node5</title>
<path fill="none" stroke="midnightblue" d="M465.25,-195.72C457.2,-184.67 446.2,-168.8 438,-154 426.44,-133.14 415.74,-107.83 409.06,-91.01"/>
<polygon fill="midnightblue" stroke="midnightblue" points="412.18,-89.36 405.29,-81.31 405.65,-91.9 412.18,-89.36"/>
</g>
<!-- Node7 -->
<g id="node7" class="node">
<title>Node7</title>
<g id="a_node7"><a xlink:href="obc__time__params_8h.html" target="_top" xlink:title="OBCTのCoreパラメタのオーバーライド用ヘッダー">
<polygon fill="white" stroke="black" points="447,-123.5 447,-153.5 587,-153.5 587,-123.5 447,-123.5"/>
<text text-anchor="start" x="455" y="-141.5" font-family="Helvetica,sans-Serif" font-size="10.00">src_user/Settings/System</text>
<text text-anchor="middle" x="517" y="-130.5" font-family="Helvetica,sans-Serif" font-size="10.00">/obc_time_params.h</text>
</a>
</g>
</g>
<!-- Node4&#45;&gt;Node7 -->
<g id="edge6" class="edge">
<title>Node4&#45;&gt;Node7</title>
<path fill="none" stroke="midnightblue" d="M484.3,-195.73C489.85,-186.18 497.29,-173.39 503.67,-162.42"/>
<polygon fill="midnightblue" stroke="midnightblue" points="506.71,-164.15 508.72,-153.75 500.66,-160.63 506.71,-164.15"/>
</g>
<!-- Node6 -->
<g id="node6" class="node">
<title>Node6</title>
<g id="a_node6"><a xlink:href="sils__define_8h.html" target="_top" xlink:title="Switch the build settings between your real OBC and SILS">
<polygon fill="white" stroke="black" points="337.5,-0.5 337.5,-19.5 466.5,-19.5 466.5,-0.5 337.5,-0.5"/>
<text text-anchor="middle" x="402" y="-7.5" font-family="Helvetica,sans-Serif" font-size="10.00">../Settings/sils_define.h</text>
</a>
</g>
</g>
<!-- Node5&#45;&gt;Node6 -->
<g id="edge5" class="edge">
<title>Node5&#45;&gt;Node6</title>
<path fill="none" stroke="midnightblue" d="M402,-61.98C402,-53.58 402,-40.48 402,-29.66"/>
<polygon fill="midnightblue" stroke="midnightblue" points="405.5,-29.51 402,-19.51 398.5,-29.51 405.5,-29.51"/>
</g>
<!-- Node11 -->
<g id="node11" class="node">
<title>Node11</title>
<g id="a_node11"><a xlink:href="_t_c_packet_8h.html" target="_top" xlink:title=" ">
<polygon fill="white" stroke="black" points="145.5,-123.5 145.5,-153.5 278.5,-153.5 278.5,-123.5 145.5,-123.5"/>
<text text-anchor="start" x="153.5" y="-141.5" font-family="Helvetica,sans-Serif" font-size="10.00">src_core/TlmCmd/Ccsds</text>
<text text-anchor="middle" x="212" y="-130.5" font-family="Helvetica,sans-Serif" font-size="10.00">/TCPacket.h</text>
</a>
</g>
</g>
<!-- Node10&#45;&gt;Node11 -->
<g id="edge11" class="edge">
<title>Node10&#45;&gt;Node11</title>
<path fill="none" stroke="midnightblue" d="M140.58,-190.36C154,-180.8 170.12,-169.33 183.64,-159.69"/>
<polygon fill="midnightblue" stroke="midnightblue" points="185.99,-162.32 192.1,-153.67 181.93,-156.62 185.99,-162.32"/>
</g>
<!-- Node11&#45;&gt;Node3 -->
<g id="edge12" class="edge">
<title>Node11&#45;&gt;Node3</title>
<path fill="none" stroke="midnightblue" d="M172.07,-123.4C139.08,-111.74 92.75,-95.37 61.62,-84.38"/>
<polygon fill="midnightblue" stroke="midnightblue" points="62.68,-81.04 52.08,-81.01 60.34,-87.64 62.68,-81.04"/>
</g>
<!-- Node11&#45;&gt;Node5 -->
<g id="edge13" class="edge">
<title>Node11&#45;&gt;Node5</title>
<path fill="none" stroke="midnightblue" d="M253.23,-123.4C287.3,-111.74 335.14,-95.37 367.29,-84.38"/>
<polygon fill="midnightblue" stroke="midnightblue" points="368.8,-87.56 377.13,-81.01 366.54,-80.93 368.8,-87.56"/>
</g>
<!-- Node12 -->
<g id="node12" class="node">
<title>Node12</title>
<g id="a_node12"><a xlink:href="tcpacket__params_8h.html" target="_top" xlink:title="TCP のユーザー設定">
<polygon fill="white" stroke="black" points="140,-56.5 140,-86.5 284,-86.5 284,-56.5 140,-56.5"/>
<text text-anchor="start" x="148" y="-74.5" font-family="Helvetica,sans-Serif" font-size="10.00">src_user/Settings/TlmCmd</text>
<text text-anchor="middle" x="212" y="-63.5" font-family="Helvetica,sans-Serif" font-size="10.00">/Ccsds/tcpacket_params.h</text>
</a>
</g>
</g>
<!-- Node11&#45;&gt;Node12 -->
<g id="edge14" class="edge">
<title>Node11&#45;&gt;Node12</title>
<path fill="none" stroke="midnightblue" d="M212,-123.4C212,-115.64 212,-105.81 212,-96.86"/>
<polygon fill="midnightblue" stroke="midnightblue" points="215.5,-96.58 212,-86.58 208.5,-96.58 215.5,-96.58"/>
</g>
<!-- Node13&#45;&gt;Node11 -->
<g id="edge16" class="edge">
<title>Node13&#45;&gt;Node11</title>
<path fill="none" stroke="midnightblue" d="M260.34,-190.36C251.75,-181.32 241.52,-170.57 232.7,-161.28"/>
<polygon fill="midnightblue" stroke="midnightblue" points="235.1,-158.73 225.68,-153.89 230.03,-163.55 235.1,-158.73"/>
</g>
<!-- Node14&#45;&gt;Node2 -->
<g id="edge20" class="edge">
<title>Node14&#45;&gt;Node2</title>
<path fill="none" stroke="midnightblue" d="M615.07,-220.53C590.89,-232.88 541.36,-255.82 508.31,-270.05"/>
<polygon fill="midnightblue" stroke="midnightblue" points="506.87,-266.86 499.04,-274 509.61,-273.3 506.87,-266.86"/>
</g>
<!-- Node14&#45;&gt;Node5 -->
<g id="edge18" class="edge">
<title>Node14&#45;&gt;Node5</title>
<path fill="none" stroke="midnightblue" d="M628.29,-201.39C626.39,-183.91 619.56,-144.15 596,-123 564.38,-94.62 518.79,-81.82 479.76,-76.2"/>
<polygon fill="midnightblue" stroke="midnightblue" points="479.83,-72.68 469.46,-74.86 478.93,-79.62 479.83,-72.68"/>
</g>
<!-- Node15 -->
<g id="node15" class="node">
<title>Node15</title>
<g id="a_node15"><a xlink:href="block__command__table__params_8h.html" target="_top" xlink:title="BCTのCoreTlmパラメタのオーバーライド用ヘッダー">
<polygon fill="white" stroke="black" points="643.5,-123.5 643.5,-153.5 824.5,-153.5 824.5,-123.5 643.5,-123.5"/>
<text text-anchor="start" x="651.5" y="-141.5" font-family="Helvetica,sans-Serif" font-size="10.00">src_user/Settings/TlmCmd</text>
<text text-anchor="middle" x="734" y="-130.5" font-family="Helvetica,sans-Serif" font-size="10.00">/block_command_table_params.h</text>
</a>
</g>
</g>
<!-- Node14&#45;&gt;Node15 -->
<g id="edge19" class="edge">
<title>Node14&#45;&gt;Node15</title>
<path fill="none" stroke="midnightblue" d="M641.88,-201.36C657.4,-190.93 683.98,-173.09 704.61,-159.23"/>
<polygon fill="midnightblue" stroke="midnightblue" points="706.68,-162.06 713.04,-153.58 702.78,-156.24 706.68,-162.06"/>
</g>
</g>
</svg>
