<?xml version="1.0" encoding="UTF-8" standalone="no"?>
<!DOCTYPE svg PUBLIC "-//W3C//DTD SVG 1.1//EN"
 "http://www.w3.org/Graphics/SVG/1.1/DTD/svg11.dtd">
<!-- Generated by graphviz version 2.43.0 (0)
 -->
<!-- Title: TF_copy_u32 Pages: 1 -->
<svg width="336pt" height="28pt"
 viewBox="0.00 0.00 336.00 28.00" xmlns="http://www.w3.org/2000/svg" xmlns:xlink="http://www.w3.org/1999/xlink">
<g id="graph0" class="graph" transform="scale(1 1) rotate(0) translate(4 24)">
<title>TF_copy_u32</title>
<polygon fill="white" stroke="transparent" points="-4,4 -4,-24 332,-24 332,4 -4,4"/>
<!-- Node1 -->
<g id="node1" class="node">
<title>Node1</title>
<g id="a_node1"><a xlink:title=" ">
<polygon fill="#bfbfbf" stroke="black" points="0,-0.5 0,-19.5 80,-19.5 80,-0.5 0,-0.5"/>
<text text-anchor="middle" x="40" y="-7.5" font-family="Helvetica,sans-Serif" font-size="10.00">TF_copy_u32</text>
</a>
</g>
</g>
<!-- Node2 -->
<g id="node2" class="node">
<title>Node2</title>
<g id="a_node2"><a xlink:href="endian__memcpy_8c.html#a153793f6939a1cb0f6bc3968d953f31e" target="_top" xlink:title=" ">
<polygon fill="white" stroke="black" points="116,-0.5 116,-19.5 214,-19.5 214,-0.5 116,-0.5"/>
<text text-anchor="middle" x="165" y="-7.5" font-family="Helvetica,sans-Serif" font-size="10.00">endian_memcpy</text>
</a>
</g>
</g>
<!-- Node1&#45;&gt;Node2 -->
<g id="edge1" class="edge">
<title>Node1&#45;&gt;Node2</title>
<path fill="none" stroke="midnightblue" d="M80.26,-10C88.34,-10 97.02,-10 105.62,-10"/>
<polygon fill="midnightblue" stroke="midnightblue" points="105.63,-13.5 115.63,-10 105.63,-6.5 105.63,-13.5"/>
</g>
<!-- Node3 -->
<g id="node3" class="node">
<title>Node3</title>
<g id="a_node3"><a xlink:href="endian__conv_8c.html#af8d492c4e43d83c161cd2225a9697b6a" target="_top" xlink:title=" ">
<polygon fill="white" stroke="black" points="250,-0.5 250,-19.5 328,-19.5 328,-0.5 250,-0.5"/>
<text text-anchor="middle" x="289" y="-7.5" font-family="Helvetica,sans-Serif" font-size="10.00">endian_conv</text>
</a>
</g>
</g>
<!-- Node2&#45;&gt;Node3 -->
<g id="edge2" class="edge">
<title>Node2&#45;&gt;Node3</title>
<path fill="none" stroke="midnightblue" d="M214.22,-10C222.65,-10 231.42,-10 239.84,-10"/>
<polygon fill="midnightblue" stroke="midnightblue" points="239.91,-13.5 249.91,-10 239.91,-6.5 239.91,-13.5"/>
</g>
</g>
</svg>
