<?xml version="1.0" encoding="UTF-8" standalone="no"?>
<!DOCTYPE svg PUBLIC "-//W3C//DTD SVG 1.1//EN"
 "http://www.w3.org/Graphics/SVG/1.1/DTD/svg11.dtd">
<!-- Generated by graphviz version 2.43.0 (0)
 -->
<!-- Title: src/src_core/TlmCmd/telemetry_generator.h Pages: 1 -->
<svg width="728pt" height="385pt"
 viewBox="0.00 0.00 728.00 385.00" xmlns="http://www.w3.org/2000/svg" xmlns:xlink="http://www.w3.org/1999/xlink">
<g id="graph0" class="graph" transform="scale(1 1) rotate(0) translate(4 381)">
<title>src/src_core/TlmCmd/telemetry_generator.h</title>
<polygon fill="white" stroke="transparent" points="-4,4 -4,-381 724,-381 724,4 -4,4"/>
<!-- Node1 -->
<g id="node1" class="node">
<title>Node1</title>
<g id="a_node1"><a xlink:title=" ">
<polygon fill="#bfbfbf" stroke="black" points="306,-346.5 306,-376.5 434,-376.5 434,-346.5 306,-346.5"/>
<text text-anchor="start" x="314" y="-364.5" font-family="Helvetica,sans-Serif" font-size="10.00">src/src_core/TlmCmd</text>
<text text-anchor="middle" x="370" y="-353.5" font-family="Helvetica,sans-Serif" font-size="10.00">/telemetry_generator.h</text>
</a>
</g>
</g>
<!-- Node2 -->
<g id="node2" class="node">
<title>Node2</title>
<g id="a_node2"><a xlink:href="common__cmd__packet_8h.html" target="_top" xlink:title="CCP 関連基本関数の宣言">
<polygon fill="white" stroke="black" points="304,-290.5 304,-309.5 436,-309.5 436,-290.5 304,-290.5"/>
<text text-anchor="middle" x="370" y="-297.5" font-family="Helvetica,sans-Serif" font-size="10.00">common_cmd_packet.h</text>
</a>
</g>
</g>
<!-- Node1&#45;&gt;Node2 -->
<g id="edge1" class="edge">
<title>Node1&#45;&gt;Node2</title>
<path fill="none" stroke="midnightblue" d="M370,-346.4C370,-338.47 370,-328.46 370,-319.86"/>
<polygon fill="midnightblue" stroke="midnightblue" points="373.5,-319.66 370,-309.66 366.5,-319.66 373.5,-319.66"/>
</g>
<!-- Node3 -->
<g id="node3" class="node">
<title>Node3</title>
<g id="a_node3"><a xlink:href="obc__time_8h.html" target="_top" xlink:title="OBCの時刻情報の定義と演算">
<polygon fill="white" stroke="black" points="398.5,-218 398.5,-248 531.5,-248 531.5,-218 398.5,-218"/>
<text text-anchor="start" x="406.5" y="-236" font-family="Helvetica,sans-Serif" font-size="10.00">../System/TimeManager</text>
<text text-anchor="middle" x="465" y="-225" font-family="Helvetica,sans-Serif" font-size="10.00">/obc_time.h</text>
</a>
</g>
</g>
<!-- Node2&#45;&gt;Node3 -->
<g id="edge2" class="edge">
<title>Node2&#45;&gt;Node3</title>
<path fill="none" stroke="midnightblue" d="M382.81,-290.23C396.39,-280.94 418.29,-265.96 436.07,-253.8"/>
<polygon fill="midnightblue" stroke="midnightblue" points="438.13,-256.62 444.41,-248.09 434.18,-250.85 438.13,-256.62"/>
</g>
<!-- Node7 -->
<g id="node7" class="node">
<title>Node7</title>
<g id="a_node7"><a xlink:href="command__definitions_8h.html" target="_top" xlink:title="コマンド定義">
<polygon fill="white" stroke="black" points="188.5,-218 188.5,-248 341.5,-248 341.5,-218 188.5,-218"/>
<text text-anchor="start" x="196.5" y="-236" font-family="Helvetica,sans-Serif" font-size="10.00">src_user/TlmCmd/command</text>
<text text-anchor="middle" x="265" y="-225" font-family="Helvetica,sans-Serif" font-size="10.00">_definitions.h</text>
</a>
</g>
</g>
<!-- Node2&#45;&gt;Node7 -->
<g id="edge6" class="edge">
<title>Node2&#45;&gt;Node7</title>
<path fill="none" stroke="midnightblue" d="M355.84,-290.23C340.69,-280.86 316.19,-265.69 296.44,-253.47"/>
<polygon fill="midnightblue" stroke="midnightblue" points="298.1,-250.38 287.76,-248.09 294.42,-256.33 298.1,-250.38"/>
</g>
<!-- Node8 -->
<g id="node8" class="node">
<title>Node8</title>
<g id="a_node8"><a xlink:href="common__cmd__packet__define_8h.html" target="_top" xlink:title="CCP 型の定義">
<polygon fill="white" stroke="black" points="0,-218 0,-248 170,-248 170,-218 0,-218"/>
<text text-anchor="start" x="8" y="-236" font-family="Helvetica,sans-Serif" font-size="10.00">src_user/Settings/TlmCmd</text>
<text text-anchor="middle" x="85" y="-225" font-family="Helvetica,sans-Serif" font-size="10.00">/common_cmd_packet_define.h</text>
</a>
</g>
</g>
<!-- Node2&#45;&gt;Node8 -->
<g id="edge7" class="edge">
<title>Node2&#45;&gt;Node8</title>
<path fill="none" stroke="midnightblue" d="M332.45,-290.44C287.82,-280.26 212.37,-263.05 156.49,-250.3"/>
<polygon fill="midnightblue" stroke="midnightblue" points="157.17,-246.87 146.64,-248.06 155.62,-253.7 157.17,-246.87"/>
</g>
<!-- Node11 -->
<g id="node11" class="node">
<title>Node11</title>
<g id="a_node11"><a xlink:href="apid__define_8h.html" target="_top" xlink:title="CCSDS の APID を定義する">
<polygon fill="white" stroke="black" points="171.5,-151 171.5,-170 290.5,-170 290.5,-151 171.5,-151"/>
<text text-anchor="middle" x="231" y="-158" font-family="Helvetica,sans-Serif" font-size="10.00">./Ccsds/apid_define.h</text>
</a>
</g>
</g>
<!-- Node2&#45;&gt;Node11 -->
<g id="edge13" class="edge">
<title>Node2&#45;&gt;Node11</title>
<path fill="none" stroke="midnightblue" d="M370.56,-290.48C371.21,-273.53 370.28,-235.18 351,-212 334.81,-192.54 309.82,-180.44 286.83,-172.98"/>
<polygon fill="midnightblue" stroke="midnightblue" points="287.71,-169.6 277.13,-170.07 285.69,-176.3 287.71,-169.6"/>
</g>
<!-- Node12 -->
<g id="node12" class="node">
<title>Node12</title>
<g id="a_node12"><a xlink:href="timeline__command__dispatcher__define_8h.html" target="_top" xlink:title="timeline command dispatcher の各種定義">
<polygon fill="white" stroke="black" points="550,-212.5 550,-253.5 720,-253.5 720,-212.5 550,-212.5"/>
<text text-anchor="start" x="558" y="-241.5" font-family="Helvetica,sans-Serif" font-size="10.00">src_user/Settings/Applications</text>
<text text-anchor="start" x="558" y="-230.5" font-family="Helvetica,sans-Serif" font-size="10.00">/timeline_command_dispatcher</text>
<text text-anchor="middle" x="635" y="-219.5" font-family="Helvetica,sans-Serif" font-size="10.00">_define.h</text>
</a>
</g>
</g>
<!-- Node2&#45;&gt;Node12 -->
<g id="edge14" class="edge">
<title>Node2&#45;&gt;Node12</title>
<path fill="none" stroke="midnightblue" d="M404.92,-290.44C440.55,-281.7 497.31,-267.77 545.54,-255.94"/>
<polygon fill="midnightblue" stroke="midnightblue" points="546.5,-259.31 555.37,-253.53 544.83,-252.51 546.5,-259.31"/>
</g>
<!-- Node4 -->
<g id="node4" class="node">
<title>Node4</title>
<g id="a_node4"><a xlink:href="stdint_8h.html" target="_top" xlink:title="C89 環境用 stdint.h">
<polygon fill="white" stroke="black" points="204.5,-78.5 204.5,-97.5 257.5,-97.5 257.5,-78.5 204.5,-78.5"/>
<text text-anchor="middle" x="231" y="-85.5" font-family="Helvetica,sans-Serif" font-size="10.00">stdint.h</text>
</a>
</g>
</g>
<!-- Node3&#45;&gt;Node4 -->
<g id="edge3" class="edge">
<title>Node3&#45;&gt;Node4</title>
<path fill="none" stroke="midnightblue" d="M468.44,-217.77C472.11,-198.82 475.27,-165.32 458,-145 433.68,-116.4 325.98,-99.89 268.1,-92.93"/>
<polygon fill="midnightblue" stroke="midnightblue" points="268.24,-89.43 257.9,-91.75 267.43,-96.38 268.24,-89.43"/>
</g>
<!-- Node6 -->
<g id="node6" class="node">
<title>Node6</title>
<g id="a_node6"><a xlink:href="obc__time__params_8h.html" target="_top" xlink:title="OBCTのCoreパラメタのオーバーライド用ヘッダー">
<polygon fill="white" stroke="black" points="309,-145.5 309,-175.5 449,-175.5 449,-145.5 309,-145.5"/>
<text text-anchor="start" x="317" y="-163.5" font-family="Helvetica,sans-Serif" font-size="10.00">src_user/Settings/System</text>
<text text-anchor="middle" x="379" y="-152.5" font-family="Helvetica,sans-Serif" font-size="10.00">/obc_time_params.h</text>
</a>
</g>
</g>
<!-- Node3&#45;&gt;Node6 -->
<g id="edge5" class="edge">
<title>Node3&#45;&gt;Node6</title>
<path fill="none" stroke="midnightblue" d="M447.6,-217.73C435.04,-207.44 417.91,-193.4 403.91,-181.92"/>
<polygon fill="midnightblue" stroke="midnightblue" points="406.04,-179.14 396.08,-175.5 401.6,-184.55 406.04,-179.14"/>
</g>
<!-- Node5 -->
<g id="node5" class="node">
<title>Node5</title>
<g id="a_node5"><a xlink:title=" ">
<polygon fill="white" stroke="#bfbfbf" points="168.5,-0.5 168.5,-30.5 293.5,-30.5 293.5,-0.5 168.5,-0.5"/>
<text text-anchor="start" x="176.5" y="-18.5" font-family="Helvetica,sans-Serif" font-size="10.00">src_user/Library/stdint</text>
<text text-anchor="middle" x="231" y="-7.5" font-family="Helvetica,sans-Serif" font-size="10.00">_impl.h</text>
</a>
</g>
</g>
<!-- Node4&#45;&gt;Node5 -->
<g id="edge4" class="edge">
<title>Node4&#45;&gt;Node5</title>
<path fill="none" stroke="midnightblue" d="M231,-78.36C231,-69.05 231,-53.83 231,-40.81"/>
<polygon fill="midnightblue" stroke="midnightblue" points="234.5,-40.58 231,-30.58 227.5,-40.58 234.5,-40.58"/>
</g>
<!-- Node9 -->
<g id="node9" class="node">
<title>Node9</title>
<g id="a_node9"><a xlink:href="space__packet__typedef_8h.html" target="_top" xlink:title="SpacePacket 類 と CommonTlmCmdPacket 類が相互参照するのを回避するためのヘッダ">
<polygon fill="white" stroke="black" points="16.5,-145.5 16.5,-175.5 153.5,-175.5 153.5,-145.5 16.5,-145.5"/>
<text text-anchor="start" x="24.5" y="-163.5" font-family="Helvetica,sans-Serif" font-size="10.00">src_core/TlmCmd/Ccsds</text>
<text text-anchor="middle" x="85" y="-152.5" font-family="Helvetica,sans-Serif" font-size="10.00">/space_packet_typedef.h</text>
</a>
</g>
</g>
<!-- Node8&#45;&gt;Node9 -->
<g id="edge8" class="edge">
<title>Node8&#45;&gt;Node9</title>
<path fill="none" stroke="midnightblue" d="M85,-217.73C85,-208.66 85,-196.66 85,-186.08"/>
<polygon fill="midnightblue" stroke="midnightblue" points="88.5,-185.75 85,-175.75 81.5,-185.75 88.5,-185.75"/>
</g>
<!-- Node8&#45;&gt;Node11 -->
<g id="edge11" class="edge">
<title>Node8&#45;&gt;Node11</title>
<path fill="none" stroke="midnightblue" d="M114.19,-217.9C140.46,-205.22 178.74,-186.73 204.23,-174.42"/>
<polygon fill="midnightblue" stroke="midnightblue" points="205.84,-177.53 213.33,-170.03 202.8,-171.23 205.84,-177.53"/>
</g>
<!-- Node9&#45;&gt;Node4 -->
<g id="edge9" class="edge">
<title>Node9&#45;&gt;Node4</title>
<path fill="none" stroke="midnightblue" d="M114.19,-145.4C140.46,-132.72 178.74,-114.23 204.23,-101.92"/>
<polygon fill="midnightblue" stroke="midnightblue" points="205.84,-105.03 213.33,-97.53 202.8,-98.73 205.84,-105.03"/>
</g>
<!-- Node10 -->
<g id="node10" class="node">
<title>Node10</title>
<g id="a_node10"><a xlink:href="space__packet__typedef__params_8h.html" target="_top" xlink:title="SpacePacketの パケット型に関するユーザー設定">
<polygon fill="white" stroke="black" points="5,-67.5 5,-108.5 165,-108.5 165,-67.5 5,-67.5"/>
<text text-anchor="start" x="13" y="-96.5" font-family="Helvetica,sans-Serif" font-size="10.00">src_user/Settings/TlmCmd</text>
<text text-anchor="start" x="13" y="-85.5" font-family="Helvetica,sans-Serif" font-size="10.00">/Ccsds/space_packet_typedef</text>
<text text-anchor="middle" x="85" y="-74.5" font-family="Helvetica,sans-Serif" font-size="10.00">_params.h</text>
</a>
</g>
</g>
<!-- Node9&#45;&gt;Node10 -->
<g id="edge10" class="edge">
<title>Node9&#45;&gt;Node10</title>
<path fill="none" stroke="midnightblue" d="M85,-145.23C85,-137.57 85,-127.84 85,-118.63"/>
<polygon fill="midnightblue" stroke="midnightblue" points="88.5,-118.59 85,-108.59 81.5,-118.59 88.5,-118.59"/>
</g>
<!-- Node11&#45;&gt;Node4 -->
<g id="edge12" class="edge">
<title>Node11&#45;&gt;Node4</title>
<path fill="none" stroke="midnightblue" d="M231,-150.86C231,-140.18 231,-121.72 231,-107.73"/>
<polygon fill="midnightblue" stroke="midnightblue" points="234.5,-107.72 231,-97.72 227.5,-107.72 234.5,-107.72"/>
</g>
</g>
</svg>
