<?xml version="1.0" encoding="UTF-8" standalone="no"?>
<!DOCTYPE svg PUBLIC "-//W3C//DTD SVG 1.1//EN"
 "http://www.w3.org/Graphics/SVG/1.1/DTD/svg11.dtd">
<!-- Generated by graphviz version 2.43.0 (0)
 -->
<!-- Title: TMGR_clear_master_mode_cycle Pages: 1 -->
<svg width="1228pt" height="104pt"
 viewBox="0.00 0.00 1228.00 104.00" xmlns="http://www.w3.org/2000/svg" xmlns:xlink="http://www.w3.org/1999/xlink">
<g id="graph0" class="graph" transform="scale(1 1) rotate(0) translate(4 100)">
<title>TMGR_clear_master_mode_cycle</title>
<polygon fill="white" stroke="transparent" points="-4,4 -4,-100 1224,-100 1224,4 -4,4"/>
<!-- Node1 -->
<g id="node1" class="node">
<title>Node1</title>
<g id="a_node1"><a xlink:title=" ">
<polygon fill="#bfbfbf" stroke="black" points="1072,-52 1072,-82 1220,-82 1220,-52 1072,-52"/>
<text text-anchor="start" x="1080" y="-70" font-family="Helvetica,sans-Serif" font-size="10.00">TMGR_clear_master_mode</text>
<text text-anchor="middle" x="1146" y="-59" font-family="Helvetica,sans-Serif" font-size="10.00">_cycle</text>
</a>
</g>
</g>
<!-- Node2 -->
<g id="node2" class="node">
<title>Node2</title>
<g id="a_node2"><a xlink:href="mode__manager_8c.html#a47323ca76824c1d3acd39db890aea966" target="_top" xlink:title="Cmd_MM_FINISH_TRANSITIONの実体">
<polygon fill="white" stroke="black" points="913,-76.5 913,-95.5 1036,-95.5 1036,-76.5 913,-76.5"/>
<text text-anchor="middle" x="974.5" y="-83.5" font-family="Helvetica,sans-Serif" font-size="10.00">MM_finish_transition_</text>
</a>
</g>
</g>
<!-- Node1&#45;&gt;Node2 -->
<g id="edge1" class="edge">
<title>Node1&#45;&gt;Node2</title>
<path fill="none" stroke="midnightblue" d="M1061.63,-76.35C1053.07,-77.3 1044.49,-78.27 1036.25,-79.19"/>
<polygon fill="midnightblue" stroke="midnightblue" points="1062.09,-79.82 1071.64,-75.22 1061.31,-72.86 1062.09,-79.82"/>
</g>
<!-- Node10 -->
<g id="node10" class="node">
<title>Node10</title>
<g id="a_node10"><a xlink:href="mode__manager_8c.html#ae4381c1c84d8b5d8aa033e522530436d" target="_top" xlink:title="Cmd_MM_START_TRANSITIONの実体">
<polygon fill="white" stroke="black" points="915,-38.5 915,-57.5 1034,-57.5 1034,-38.5 915,-38.5"/>
<text text-anchor="middle" x="974.5" y="-45.5" font-family="Helvetica,sans-Serif" font-size="10.00">MM_start_transition_</text>
</a>
</g>
</g>
<!-- Node1&#45;&gt;Node10 -->
<g id="edge9" class="edge">
<title>Node1&#45;&gt;Node10</title>
<path fill="none" stroke="midnightblue" d="M1061.61,-57.65C1052.34,-56.61 1043.04,-55.57 1034.17,-54.58"/>
<polygon fill="midnightblue" stroke="midnightblue" points="1061.31,-61.14 1071.64,-58.78 1062.09,-54.18 1061.31,-61.14"/>
</g>
<!-- Node3 -->
<g id="node3" class="node">
<title>Node3</title>
<g id="a_node3"><a xlink:href="mode__manager_8h.html#ac394184090d10b207742dbfe546acf17" target="_top" xlink:title="モード遷移終了を示すコマンド モード遷移のブロックコマンドの最後に入れて使う 入っていない場合、タスクリストが遷移先のモードに置き換わらないので注意">
<polygon fill="white" stroke="black" points="711,-76.5 711,-95.5 877,-95.5 877,-76.5 711,-76.5"/>
<text text-anchor="middle" x="794" y="-83.5" font-family="Helvetica,sans-Serif" font-size="10.00">Cmd_MM_FINISH_TRANSITION</text>
</a>
</g>
</g>
<!-- Node2&#45;&gt;Node3 -->
<g id="edge2" class="edge">
<title>Node2&#45;&gt;Node3</title>
<path fill="none" stroke="midnightblue" d="M902.52,-86C894.18,-86 885.61,-86 877.12,-86"/>
<polygon fill="midnightblue" stroke="midnightblue" points="902.57,-89.5 912.57,-86 902.57,-82.5 902.57,-89.5"/>
</g>
<!-- Node4 -->
<g id="node4" class="node">
<title>Node4</title>
<g id="a_node4"><a xlink:href="command__definitions_8c.html#aa375895192b16d8e7f0ff4545b54e6c4" target="_top" xlink:title="Cmd Tableのロード">
<polygon fill="white" stroke="black" points="562,-38.5 562,-57.5 675,-57.5 675,-38.5 562,-38.5"/>
<text text-anchor="middle" x="618.5" y="-45.5" font-family="Helvetica,sans-Serif" font-size="10.00">CA_load_cmd_table</text>
</a>
</g>
</g>
<!-- Node3&#45;&gt;Node4 -->
<g id="edge3" class="edge">
<title>Node3&#45;&gt;Node4</title>
<path fill="none" stroke="midnightblue" d="M739.34,-74.25C714.81,-68.87 686.12,-62.59 662.97,-57.52"/>
<polygon fill="midnightblue" stroke="midnightblue" points="738.7,-77.69 749.22,-76.41 740.2,-70.85 738.7,-77.69"/>
</g>
<!-- Node5 -->
<g id="node5" class="node">
<title>Node5</title>
<g id="a_node5"><a xlink:href="command__analyze_8h.html#ae6d1f376bf4e1c9c4b63bc3f04924c8a" target="_top" xlink:title="CA の初期化">
<polygon fill="white" stroke="black" points="449,-38.5 449,-57.5 526,-57.5 526,-38.5 449,-38.5"/>
<text text-anchor="middle" x="487.5" y="-45.5" font-family="Helvetica,sans-Serif" font-size="10.00">CA_initialize</text>
</a>
</g>
</g>
<!-- Node4&#45;&gt;Node5 -->
<g id="edge4" class="edge">
<title>Node4&#45;&gt;Node5</title>
<path fill="none" stroke="midnightblue" d="M551.5,-48C542.82,-48 534.17,-48 526.19,-48"/>
<polygon fill="midnightblue" stroke="midnightblue" points="551.67,-51.5 561.67,-48 551.67,-44.5 551.67,-51.5"/>
</g>
<!-- Node6 -->
<g id="node6" class="node">
<title>Node6</title>
<g id="a_node6"><a xlink:href="c2a__core__main_8h.html#a65ecdc63d8762ffde4db7f6c6e6f07cf" target="_top" xlink:title=" ">
<polygon fill="white" stroke="black" points="330,-19.5 330,-38.5 413,-38.5 413,-19.5 330,-19.5"/>
<text text-anchor="middle" x="371.5" y="-26.5" font-family="Helvetica,sans-Serif" font-size="10.00">C2A_core_init</text>
</a>
</g>
</g>
<!-- Node5&#45;&gt;Node6 -->
<g id="edge5" class="edge">
<title>Node5&#45;&gt;Node6</title>
<path fill="none" stroke="midnightblue" d="M438.72,-40.04C430.25,-38.62 421.5,-37.17 413.24,-35.79"/>
<polygon fill="midnightblue" stroke="midnightblue" points="438.42,-43.53 448.86,-41.73 439.57,-36.63 438.42,-43.53"/>
</g>
<!-- Node7 -->
<g id="node7" class="node">
<title>Node7</title>
<g id="a_node7"><a xlink:href="c2a__main_8c.html#a630222a80cd8bffd4426d4a55a215069" target="_top" xlink:title=" ">
<polygon fill="white" stroke="black" points="232,-19.5 232,-38.5 294,-38.5 294,-19.5 232,-19.5"/>
<text text-anchor="middle" x="263" y="-26.5" font-family="Helvetica,sans-Serif" font-size="10.00">C2A_init_</text>
</a>
</g>
</g>
<!-- Node6&#45;&gt;Node7 -->
<g id="edge6" class="edge">
<title>Node6&#45;&gt;Node7</title>
<path fill="none" stroke="midnightblue" d="M319.76,-29C311.01,-29 302.17,-29 294.18,-29"/>
<polygon fill="midnightblue" stroke="midnightblue" points="319.93,-32.5 329.93,-29 319.93,-25.5 319.93,-32.5"/>
</g>
<!-- Node8 -->
<g id="node8" class="node">
<title>Node8</title>
<g id="a_node8"><a xlink:href="c2a__main_8c.html#ac3344a311adda8f9e7310924bedf81fc" target="_top" xlink:title=" ">
<polygon fill="white" stroke="black" points="77,-19.5 77,-38.5 196,-38.5 196,-19.5 77,-19.5"/>
<text text-anchor="middle" x="136.5" y="-26.5" font-family="Helvetica,sans-Serif" font-size="10.00">address_fixed_main_</text>
</a>
</g>
</g>
<!-- Node7&#45;&gt;Node8 -->
<g id="edge7" class="edge">
<title>Node7&#45;&gt;Node8</title>
<path fill="none" stroke="midnightblue" d="M221.83,-29C213.62,-29 204.82,-29 196.12,-29"/>
<polygon fill="midnightblue" stroke="midnightblue" points="221.86,-32.5 231.86,-29 221.86,-25.5 221.86,-32.5"/>
</g>
<!-- Node9 -->
<g id="node9" class="node">
<title>Node9</title>
<g id="a_node9"><a xlink:href="c2a__main_8c.html#a6288eba0f8e8ad3ab1544ad731eb7667" target="_top" xlink:title=" ">
<polygon fill="white" stroke="black" points="0,-19.5 0,-38.5 41,-38.5 41,-19.5 0,-19.5"/>
<text text-anchor="middle" x="20.5" y="-26.5" font-family="Helvetica,sans-Serif" font-size="10.00">main</text>
</a>
</g>
</g>
<!-- Node8&#45;&gt;Node9 -->
<g id="edge8" class="edge">
<title>Node8&#45;&gt;Node9</title>
<path fill="none" stroke="midnightblue" d="M66.64,-29C57.37,-29 48.53,-29 41.18,-29"/>
<polygon fill="midnightblue" stroke="midnightblue" points="66.83,-32.5 76.83,-29 66.83,-25.5 66.83,-32.5"/>
</g>
<!-- Node11 -->
<g id="node11" class="node">
<title>Node11</title>
<g id="a_node11"><a xlink:href="mode__manager_8h.html#aa127fcef7255363d46cf121c9399ce7a" target="_top" xlink:title="モード遷移を開始するコマンド">
<polygon fill="white" stroke="black" points="712.5,-38.5 712.5,-57.5 875.5,-57.5 875.5,-38.5 712.5,-38.5"/>
<text text-anchor="middle" x="794" y="-45.5" font-family="Helvetica,sans-Serif" font-size="10.00">Cmd_MM_START_TRANSITION</text>
</a>
</g>
</g>
<!-- Node10&#45;&gt;Node11 -->
<g id="edge10" class="edge">
<title>Node10&#45;&gt;Node11</title>
<path fill="none" stroke="midnightblue" d="M904.44,-48C894.97,-48 885.19,-48 875.54,-48"/>
<polygon fill="midnightblue" stroke="midnightblue" points="904.56,-51.5 914.56,-48 904.56,-44.5 904.56,-51.5"/>
</g>
<!-- Node12 -->
<g id="node12" class="node">
<title>Node12</title>
<g id="a_node12"><a xlink:href="mode__manager_8h.html#a89fbf516698fe6c690438e21ec8efd82" target="_top" xlink:title="モード遷移を管理する ModeManager 構造体 (mode_manager_) の初期化">
<polygon fill="white" stroke="black" points="577.5,-0.5 577.5,-19.5 659.5,-19.5 659.5,-0.5 577.5,-0.5"/>
<text text-anchor="middle" x="618.5" y="-7.5" font-family="Helvetica,sans-Serif" font-size="10.00">MM_initialize</text>
</a>
</g>
</g>
<!-- Node10&#45;&gt;Node12 -->
<g id="edge12" class="edge">
<title>Node10&#45;&gt;Node12</title>
<path fill="none" stroke="midnightblue" d="M920.85,-36.44C906.67,-33.65 891.3,-30.93 877,-29 800.59,-18.7 710.62,-13.66 659.8,-11.47"/>
<polygon fill="midnightblue" stroke="midnightblue" points="920.44,-39.93 930.93,-38.47 921.82,-33.06 920.44,-39.93"/>
</g>
<!-- Node11&#45;&gt;Node4 -->
<g id="edge11" class="edge">
<title>Node11&#45;&gt;Node4</title>
<path fill="none" stroke="midnightblue" d="M702.32,-48C693.08,-48 683.89,-48 675.19,-48"/>
<polygon fill="midnightblue" stroke="midnightblue" points="702.35,-51.5 712.35,-48 702.35,-44.5 702.35,-51.5"/>
</g>
<!-- Node12&#45;&gt;Node6 -->
<g id="edge13" class="edge">
<title>Node12&#45;&gt;Node6</title>
<path fill="none" stroke="midnightblue" d="M567.07,-13.91C521.52,-17.44 455.34,-22.58 413.11,-25.85"/>
<polygon fill="midnightblue" stroke="midnightblue" points="567.62,-17.38 577.32,-13.12 567.08,-10.4 567.62,-17.38"/>
</g>
</g>
</svg>
