<?xml version="1.0" encoding="UTF-8" standalone="no"?>
<!DOCTYPE svg PUBLIC "-//W3C//DTD SVG 1.1//EN"
 "http://www.w3.org/Graphics/SVG/1.1/DTD/svg11.dtd">
<!-- Generated by graphviz version 2.43.0 (0)
 -->
<!-- Title: TLCD2_dispatch_ Pages: 1 -->
<svg width="1746pt" height="552pt"
 viewBox="0.00 0.00 1746.00 552.43" xmlns="http://www.w3.org/2000/svg" xmlns:xlink="http://www.w3.org/1999/xlink">
<g id="graph0" class="graph" transform="scale(1 1) rotate(0) translate(4 548.43)">
<title>TLCD2_dispatch_</title>
<polygon fill="white" stroke="transparent" points="-4,4 -4,-548.43 1742,-548.43 1742,4 -4,4"/>
<!-- Node1 -->
<g id="node1" class="node">
<title>Node1</title>
<g id="a_node1"><a xlink:title=" ">
<polygon fill="#bfbfbf" stroke="black" points="0,-304.5 0,-323.5 100,-323.5 100,-304.5 0,-304.5"/>
<text text-anchor="middle" x="50" y="-311.5" font-family="Helvetica,sans-Serif" font-size="10.00">TLCD2_dispatch_</text>
</a>
</g>
</g>
<!-- Node2 -->
<g id="node2" class="node">
<title>Node2</title>
<g id="a_node2"><a xlink:href="timeline__command__dispatcher_8c.html#a81ac915e803ac30a27f6488af9ce45ad" target="_top" xlink:title=" ">
<polygon fill="white" stroke="black" points="136,-304.5 136,-323.5 226,-323.5 226,-304.5 136,-304.5"/>
<text text-anchor="middle" x="181" y="-311.5" font-family="Helvetica,sans-Serif" font-size="10.00">tlc_dispatcher_</text>
</a>
</g>
</g>
<!-- Node1&#45;&gt;Node2 -->
<g id="edge1" class="edge">
<title>Node1&#45;&gt;Node2</title>
<path fill="none" stroke="midnightblue" d="M100.14,-314C108.44,-314 117.1,-314 125.53,-314"/>
<polygon fill="midnightblue" stroke="midnightblue" points="125.65,-317.5 135.65,-314 125.65,-310.5 125.65,-317.5"/>
</g>
<!-- Node3 -->
<g id="node3" class="node">
<title>Node3</title>
<g id="a_node3"><a xlink:href="anomaly__logger_8c.html#a0ea6626c89aa7e883a23da90b4c34e66" target="_top" xlink:title=" ">
<polygon fill="white" stroke="black" points="282,-456.5 282,-475.5 382,-475.5 382,-456.5 282,-456.5"/>
<text text-anchor="middle" x="332" y="-463.5" font-family="Helvetica,sans-Serif" font-size="10.00">AL_add_anomaly</text>
</a>
</g>
</g>
<!-- Node2&#45;&gt;Node3 -->
<g id="edge2" class="edge">
<title>Node2&#45;&gt;Node3</title>
<path fill="none" stroke="midnightblue" d="M189.85,-323.51C203.81,-340.28 234.14,-375.99 262,-404 278.14,-420.23 297.62,-437.54 311.76,-449.74"/>
<polygon fill="midnightblue" stroke="midnightblue" points="309.53,-452.44 319.41,-456.28 314.09,-447.12 309.53,-452.44"/>
</g>
<!-- Node9 -->
<g id="node9" class="node">
<title>Node9</title>
<g id="a_node9"><a xlink:href="common__cmd__packet_8h.html#ad1a6be053f894381150410e424ec20ab" target="_top" xlink:title="TI を取得">
<polygon fill="white" stroke="black" points="469,-342.5 469,-361.5 538,-361.5 538,-342.5 469,-342.5"/>
<text text-anchor="middle" x="503.5" y="-349.5" font-family="Helvetica,sans-Serif" font-size="10.00">CCP_get_ti</text>
</a>
</g>
</g>
<!-- Node2&#45;&gt;Node9 -->
<g id="edge9" class="edge">
<title>Node2&#45;&gt;Node9</title>
<path fill="none" stroke="midnightblue" d="M216.82,-323.5C230.77,-326.99 247.05,-330.65 262,-333 330.23,-343.73 410.35,-348.52 458.73,-350.57"/>
<polygon fill="midnightblue" stroke="midnightblue" points="458.72,-354.07 468.85,-350.98 459,-347.08 458.72,-354.07"/>
</g>
<!-- Node14 -->
<g id="node14" class="node">
<title>Node14</title>
<g id="a_node14"><a xlink:href="command__dispatcher_8c.html#a90617acff33923f51c212b8e3034712c" target="_top" xlink:title=" ">
<polygon fill="white" stroke="black" points="262,-228.5 262,-247.5 402,-247.5 402,-228.5 262,-228.5"/>
<text text-anchor="middle" x="332" y="-235.5" font-family="Helvetica,sans-Serif" font-size="10.00">CDIS_dispatch_command</text>
</a>
</g>
</g>
<!-- Node2&#45;&gt;Node14 -->
<g id="edge14" class="edge">
<title>Node2&#45;&gt;Node14</title>
<path fill="none" stroke="midnightblue" d="M200.87,-304.37C226.73,-291.18 273.37,-267.39 303.23,-252.17"/>
<polygon fill="midnightblue" stroke="midnightblue" points="304.96,-255.21 312.28,-247.55 301.78,-248.97 304.96,-255.21"/>
</g>
<!-- Node31 -->
<g id="node27" class="node">
<title>Node31</title>
<g id="a_node27"><a xlink:href="event__logger_8c.html#a25a74a48375dfc1f3f80be68e0ac00ea" target="_top" xlink:title="イベント (EL_Event) を記録">
<polygon fill="white" stroke="black" points="782.5,-319.5 782.5,-338.5 879.5,-338.5 879.5,-319.5 782.5,-319.5"/>
<text text-anchor="middle" x="831" y="-326.5" font-family="Helvetica,sans-Serif" font-size="10.00">EL_record_event</text>
</a>
</g>
</g>
<!-- Node2&#45;&gt;Node31 -->
<g id="edge57" class="edge">
<title>Node2&#45;&gt;Node31</title>
<path fill="none" stroke="midnightblue" d="M196.95,-323.58C212.53,-333.05 237.97,-347.09 262,-354 448.91,-407.74 684.56,-363.95 783.22,-340.92"/>
<polygon fill="midnightblue" stroke="midnightblue" points="784.25,-344.28 793.17,-338.56 782.63,-337.47 784.25,-344.28"/>
</g>
<!-- Node50 -->
<g id="node46" class="node">
<title>Node50</title>
<g id="a_node46"><a xlink:href="packet__list_8c.html#a2b6b5b3ed753070e0ef0b14556311263" target="_top" xlink:title="PacketList の active な先頭 Node を取得">
<polygon fill="white" stroke="black" points="464.5,-114.5 464.5,-133.5 542.5,-133.5 542.5,-114.5 464.5,-114.5"/>
<text text-anchor="middle" x="503.5" y="-121.5" font-family="Helvetica,sans-Serif" font-size="10.00">PL_get_head</text>
</a>
</g>
</g>
<!-- Node2&#45;&gt;Node50 -->
<g id="edge61" class="edge">
<title>Node2&#45;&gt;Node50</title>
<path fill="none" stroke="midnightblue" d="M187.9,-304.37C199.8,-285.64 228.43,-243.96 262,-219 321.11,-175.06 403.23,-148.42 454.59,-134.96"/>
<polygon fill="midnightblue" stroke="midnightblue" points="455.62,-138.31 464.44,-132.44 453.89,-131.52 455.62,-138.31"/>
</g>
<!-- Node52 -->
<g id="node48" class="node">
<title>Node52</title>
<g id="a_node48"><a xlink:href="packet__list_8c.html#a4b32a0b1d3f8d0feffbd6dfba24efd25" target="_top" xlink:title="PacketList の先頭と time を比較">
<polygon fill="white" stroke="black" points="282,-304.5 282,-323.5 382,-323.5 382,-304.5 282,-304.5"/>
<text text-anchor="middle" x="332" y="-311.5" font-family="Helvetica,sans-Serif" font-size="10.00">PL_check_tl_cmd</text>
</a>
</g>
</g>
<!-- Node2&#45;&gt;Node52 -->
<g id="edge58" class="edge">
<title>Node2&#45;&gt;Node52</title>
<path fill="none" stroke="midnightblue" d="M226.3,-314C240.52,-314 256.51,-314 271.62,-314"/>
<polygon fill="midnightblue" stroke="midnightblue" points="271.92,-317.5 281.92,-314 271.92,-310.5 271.92,-317.5"/>
</g>
<!-- Node53 -->
<g id="node49" class="node">
<title>Node53</title>
<g id="a_node49"><a xlink:href="time__manager_8c.html#a576e42803f8f3896524dbb266a47a08f" target="_top" xlink:title="現在の total_cycle を返す">
<polygon fill="white" stroke="black" points="265,-89 265,-119 399,-119 399,-89 265,-89"/>
<text text-anchor="start" x="273" y="-107" font-family="Helvetica,sans-Serif" font-size="10.00">TMGR_get_master_total</text>
<text text-anchor="middle" x="332" y="-96" font-family="Helvetica,sans-Serif" font-size="10.00">_cycle</text>
</a>
</g>
</g>
<!-- Node2&#45;&gt;Node53 -->
<g id="edge62" class="edge">
<title>Node2&#45;&gt;Node53</title>
<path fill="none" stroke="midnightblue" d="M186.11,-304.22C196.6,-279.9 226.05,-215.35 262,-169 274.31,-153.13 290.57,-137.62 304.21,-125.73"/>
<polygon fill="midnightblue" stroke="midnightblue" points="306.55,-128.33 311.89,-119.17 302.01,-123 306.55,-128.33"/>
</g>
<!-- Node3&#45;&gt;Node3 -->
<g id="edge4" class="edge">
<title>Node3&#45;&gt;Node3</title>
<path fill="none" stroke="midnightblue" d="M308.88,-475.76C297.63,-484.57 305.34,-494 332,-494 349.5,-494 358.83,-489.94 360,-484.65"/>
<polygon fill="midnightblue" stroke="midnightblue" points="363,-482.84 355.12,-475.76 356.86,-486.21 363,-482.84"/>
</g>
<!-- Node4 -->
<g id="node4" class="node">
<title>Node4</title>
<g id="a_node4"><a xlink:href="anomaly__logger_8c.html#a0d3195f9dcd9ab90f9672a90ed701932" target="_top" xlink:title=" ">
<polygon fill="white" stroke="black" points="463,-494.5 463,-513.5 544,-513.5 544,-494.5 463,-494.5"/>
<text text-anchor="middle" x="503.5" y="-501.5" font-family="Helvetica,sans-Serif" font-size="10.00">AC_is_equal_</text>
</a>
</g>
</g>
<!-- Node3&#45;&gt;Node4 -->
<g id="edge3" class="edge">
<title>Node3&#45;&gt;Node4</title>
<path fill="none" stroke="midnightblue" d="M375.77,-475.59C399.3,-480.86 428.61,-487.44 453.11,-492.93"/>
<polygon fill="midnightblue" stroke="midnightblue" points="452.42,-496.36 462.94,-495.13 453.95,-489.53 452.42,-496.36"/>
</g>
<!-- Node5 -->
<g id="node5" class="node">
<title>Node5</title>
<g id="a_node5"><a xlink:href="anomaly__logger_8c.html#a20757d941f0e6a6fe45076e1b799d58c" target="_top" xlink:title=" ">
<polygon fill="white" stroke="black" points="444,-456.5 444,-475.5 563,-475.5 563,-456.5 444,-456.5"/>
<text text-anchor="middle" x="503.5" y="-463.5" font-family="Helvetica,sans-Serif" font-size="10.00">AL_get_latest_record</text>
</a>
</g>
</g>
<!-- Node3&#45;&gt;Node5 -->
<g id="edge5" class="edge">
<title>Node3&#45;&gt;Node5</title>
<path fill="none" stroke="midnightblue" d="M382.03,-466C398.21,-466 416.52,-466 433.89,-466"/>
<polygon fill="midnightblue" stroke="midnightblue" points="433.99,-469.5 443.99,-466 433.99,-462.5 433.99,-469.5"/>
</g>
<!-- Node6 -->
<g id="node6" class="node">
<title>Node6</title>
<g id="a_node6"><a xlink:href="anomaly__logger_8c.html#af0545eca5524e201925fa77dd122fd8c" target="_top" xlink:title=" ">
<polygon fill="white" stroke="black" points="440,-418.5 440,-437.5 567,-437.5 567,-418.5 440,-418.5"/>
<text text-anchor="middle" x="503.5" y="-425.5" font-family="Helvetica,sans-Serif" font-size="10.00">AL_is_logging_enable_</text>
</a>
</g>
</g>
<!-- Node3&#45;&gt;Node6 -->
<g id="edge6" class="edge">
<title>Node3&#45;&gt;Node6</title>
<path fill="none" stroke="midnightblue" d="M375.77,-456.41C398.34,-451.35 426.22,-445.1 450.08,-439.75"/>
<polygon fill="midnightblue" stroke="midnightblue" points="451.04,-443.12 460.04,-437.52 449.51,-436.29 451.04,-443.12"/>
</g>
<!-- Node7 -->
<g id="node7" class="node">
<title>Node7</title>
<g id="a_node7"><a xlink:href="time__manager_8c.html#a9d04b4d9b622cbe5a90cf65e58b828bc" target="_top" xlink:title="現在の master_clock_ を取得する">
<polygon fill="white" stroke="black" points="1311,-495.5 1311,-514.5 1448,-514.5 1448,-495.5 1311,-495.5"/>
<text text-anchor="middle" x="1379.5" y="-502.5" font-family="Helvetica,sans-Serif" font-size="10.00">TMGR_get_master_clock</text>
</a>
</g>
</g>
<!-- Node3&#45;&gt;Node7 -->
<g id="edge7" class="edge">
<title>Node3&#45;&gt;Node7</title>
<path fill="none" stroke="midnightblue" d="M346.45,-475.7C365.68,-488.99 402.63,-512.41 438,-523 533.93,-551.72 562.37,-542 662.5,-542 662.5,-542 662.5,-542 1020,-542 1121.98,-542 1239.42,-527 1311.3,-516.1"/>
<polygon fill="midnightblue" stroke="midnightblue" points="1312.21,-519.51 1321.56,-514.53 1311.15,-512.59 1312.21,-519.51"/>
</g>
<!-- Node8 -->
<g id="node8" class="node">
<title>Node8</title>
<g id="a_node8"><a xlink:href="obc__time_8c.html#a70416835a40bdacbb04f6f06b1e6d1e1" target="_top" xlink:title="引数から ObcTime を作成する">
<polygon fill="white" stroke="black" points="1514,-470.5 1514,-489.5 1594,-489.5 1594,-470.5 1514,-470.5"/>
<text text-anchor="middle" x="1554" y="-477.5" font-family="Helvetica,sans-Serif" font-size="10.00">OBCT_create</text>
</a>
</g>
</g>
<!-- Node7&#45;&gt;Node8 -->
<g id="edge8" class="edge">
<title>Node7&#45;&gt;Node8</title>
<path fill="none" stroke="midnightblue" d="M1446.21,-495.48C1465.4,-492.7 1486.03,-489.71 1503.99,-487.1"/>
<polygon fill="midnightblue" stroke="midnightblue" points="1504.56,-490.56 1513.95,-485.66 1503.55,-483.63 1504.56,-490.56"/>
</g>
<!-- Node10 -->
<g id="node10" class="node">
<title>Node10</title>
<g id="a_node10"><a xlink:href="cmd__space__packet_8c.html#a8d726fa3f96fbe2be1a779719445b528" target="_top" xlink:title="Time Indicator (TI) を取得">
<polygon fill="white" stroke="black" points="629.5,-276.5 629.5,-295.5 697.5,-295.5 697.5,-276.5 629.5,-276.5"/>
<text text-anchor="middle" x="663.5" y="-283.5" font-family="Helvetica,sans-Serif" font-size="10.00">CSP_get_ti</text>
</a>
</g>
</g>
<!-- Node9&#45;&gt;Node10 -->
<g id="edge10" class="edge">
<title>Node9&#45;&gt;Node10</title>
<path fill="none" stroke="midnightblue" d="M538.03,-343.36C548.11,-340.43 559.12,-336.9 569,-333 592.6,-323.68 618.28,-310.54 636.74,-300.52"/>
<polygon fill="midnightblue" stroke="midnightblue" points="638.61,-303.49 645.69,-295.61 635.24,-297.35 638.61,-303.49"/>
</g>
<!-- Node11 -->
<g id="node11" class="node">
<title>Node11</title>
<g id="a_node11"><a xlink:href="space__packet_8c.html#a300c7fc3dea91319b0fa2f039f27d5eb" target="_top" xlink:title="packet に格納された param を取得">
<polygon fill="white" stroke="black" points="1312.5,-162 1312.5,-192 1446.5,-192 1446.5,-162 1312.5,-162"/>
<text text-anchor="start" x="1320.5" y="-180" font-family="Helvetica,sans-Serif" font-size="10.00">SP_extract_param_from</text>
<text text-anchor="middle" x="1379.5" y="-169" font-family="Helvetica,sans-Serif" font-size="10.00">_packet</text>
</a>
</g>
</g>
<!-- Node10&#45;&gt;Node11 -->
<g id="edge11" class="edge">
<title>Node10&#45;&gt;Node11</title>
<path fill="none" stroke="midnightblue" d="M697.76,-282.43C789.9,-272.31 1056.14,-241.53 1275,-201 1285.62,-199.03 1296.8,-196.71 1307.73,-194.3"/>
<polygon fill="midnightblue" stroke="midnightblue" points="1308.68,-197.67 1317.67,-192.06 1307.14,-190.84 1308.68,-197.67"/>
</g>
<!-- Node12 -->
<g id="node12" class="node">
<title>Node12</title>
<g id="a_node12"><a xlink:href="endian__memcpy_8c.html#a153793f6939a1cb0f6bc3968d953f31e" target="_top" xlink:title=" ">
<polygon fill="white" stroke="black" points="1505,-167.5 1505,-186.5 1603,-186.5 1603,-167.5 1505,-167.5"/>
<text text-anchor="middle" x="1554" y="-174.5" font-family="Helvetica,sans-Serif" font-size="10.00">endian_memcpy</text>
</a>
</g>
</g>
<!-- Node11&#45;&gt;Node12 -->
<g id="edge12" class="edge">
<title>Node11&#45;&gt;Node12</title>
<path fill="none" stroke="midnightblue" d="M1446.7,-177C1462.45,-177 1479.14,-177 1494.51,-177"/>
<polygon fill="midnightblue" stroke="midnightblue" points="1494.92,-180.5 1504.92,-177 1494.92,-173.5 1494.92,-180.5"/>
</g>
<!-- Node13 -->
<g id="node13" class="node">
<title>Node13</title>
<g id="a_node13"><a xlink:href="endian__conv_8c.html#af8d492c4e43d83c161cd2225a9697b6a" target="_top" xlink:title=" ">
<polygon fill="white" stroke="black" points="1660,-167.5 1660,-186.5 1738,-186.5 1738,-167.5 1660,-167.5"/>
<text text-anchor="middle" x="1699" y="-174.5" font-family="Helvetica,sans-Serif" font-size="10.00">endian_conv</text>
</a>
</g>
</g>
<!-- Node12&#45;&gt;Node13 -->
<g id="edge13" class="edge">
<title>Node12&#45;&gt;Node13</title>
<path fill="none" stroke="midnightblue" d="M1603.01,-177C1618.05,-177 1634.63,-177 1649.69,-177"/>
<polygon fill="midnightblue" stroke="midnightblue" points="1649.82,-180.5 1659.82,-177 1649.82,-173.5 1649.82,-180.5"/>
</g>
<!-- Node14&#45;&gt;Node7 -->
<g id="edge56" class="edge">
<title>Node14&#45;&gt;Node7</title>
<path fill="none" stroke="midnightblue" d="M377.67,-247.57C425.36,-258.06 502.98,-275.97 569,-295 823.56,-368.39 874.51,-431.59 1134,-485 1189.11,-496.34 1252.45,-501.31 1300.85,-503.45"/>
<polygon fill="midnightblue" stroke="midnightblue" points="1300.81,-506.95 1310.94,-503.87 1301.1,-499.96 1300.81,-506.95"/>
</g>
<!-- Node15 -->
<g id="node15" class="node">
<title>Node15</title>
<g id="a_node15"><a xlink:href="common__cmd__packet_8h.html#a5e5c73c5746397c40160652b10398652" target="_top" xlink:title="CMD ID を取得">
<polygon fill="white" stroke="black" points="795.5,-190.5 795.5,-209.5 866.5,-209.5 866.5,-190.5 795.5,-190.5"/>
<text text-anchor="middle" x="831" y="-197.5" font-family="Helvetica,sans-Serif" font-size="10.00">CCP_get_id</text>
</a>
</g>
</g>
<!-- Node14&#45;&gt;Node15 -->
<g id="edge15" class="edge">
<title>Node14&#45;&gt;Node15</title>
<path fill="none" stroke="midnightblue" d="M378.29,-228.47C396.73,-224.94 418.31,-221.25 438,-219 563.17,-204.7 712.03,-201.15 785.06,-200.27"/>
<polygon fill="midnightblue" stroke="midnightblue" points="785.31,-203.77 795.27,-200.16 785.23,-196.77 785.31,-203.77"/>
</g>
<!-- Node17 -->
<g id="node17" class="node">
<title>Node17</title>
<g id="a_node17"><a xlink:href="packet__handler_8c.html#a7b1777e6101ff2eeeef6042166974cdc" target="_top" xlink:title=" ">
<polygon fill="white" stroke="black" points="438,-152.5 438,-171.5 569,-171.5 569,-152.5 438,-152.5"/>
<text text-anchor="middle" x="503.5" y="-159.5" font-family="Helvetica,sans-Serif" font-size="10.00">PH_dispatch_command</text>
</a>
</g>
</g>
<!-- Node14&#45;&gt;Node17 -->
<g id="edge18" class="edge">
<title>Node14&#45;&gt;Node17</title>
<path fill="none" stroke="midnightblue" d="M350.94,-228.4C371.64,-217.5 406.82,-199.48 438,-186 446.78,-182.21 456.37,-178.44 465.42,-175.05"/>
<polygon fill="midnightblue" stroke="midnightblue" points="466.77,-178.28 474.95,-171.54 464.35,-171.71 466.77,-178.28"/>
</g>
<!-- Node48 -->
<g id="node44" class="node">
<title>Node48</title>
<g id="a_node44"><a xlink:href="packet__list_8c.html#ad1429f7199a84346e4e5177b9b2adc62" target="_top" xlink:title="先頭 Node を落とす">
<polygon fill="white" stroke="black" points="451.5,-228.5 451.5,-247.5 555.5,-247.5 555.5,-228.5 451.5,-228.5"/>
<text text-anchor="middle" x="503.5" y="-235.5" font-family="Helvetica,sans-Serif" font-size="10.00">PL_drop_executed</text>
</a>
</g>
</g>
<!-- Node14&#45;&gt;Node48 -->
<g id="edge52" class="edge">
<title>Node14&#45;&gt;Node48</title>
<path fill="none" stroke="midnightblue" d="M402.43,-238C415.22,-238 428.48,-238 441.01,-238"/>
<polygon fill="midnightblue" stroke="midnightblue" points="441.34,-241.5 451.34,-238 441.34,-234.5 441.34,-241.5"/>
</g>
<!-- Node14&#45;&gt;Node50 -->
<g id="edge54" class="edge">
<title>Node14&#45;&gt;Node50</title>
<path fill="none" stroke="midnightblue" d="M354.26,-228.49C368.82,-221.28 387.95,-210.34 402,-197 422.92,-177.14 414.77,-160.1 438,-143 443.06,-139.28 448.84,-136.28 454.82,-133.86"/>
<polygon fill="midnightblue" stroke="midnightblue" points="456.02,-137.15 464.3,-130.54 453.7,-130.55 456.02,-137.15"/>
</g>
<!-- Node51 -->
<g id="node47" class="node">
<title>Node51</title>
<g id="a_node47"><a xlink:href="packet__list_8c.html#afefb37c36db47052d2e2b7e4d6c2274b" target="_top" xlink:title="PacketList が空かどうか">
<polygon fill="white" stroke="black" points="464.5,-304.5 464.5,-323.5 542.5,-323.5 542.5,-304.5 464.5,-304.5"/>
<text text-anchor="middle" x="503.5" y="-311.5" font-family="Helvetica,sans-Serif" font-size="10.00">PL_is_empty</text>
</a>
</g>
</g>
<!-- Node14&#45;&gt;Node51 -->
<g id="edge55" class="edge">
<title>Node14&#45;&gt;Node51</title>
<path fill="none" stroke="midnightblue" d="M350.94,-247.6C371.64,-258.5 406.82,-276.52 438,-290 446.78,-293.79 456.37,-297.56 465.42,-300.95"/>
<polygon fill="midnightblue" stroke="midnightblue" points="464.35,-304.29 474.95,-304.46 466.77,-297.72 464.35,-304.29"/>
</g>
<!-- Node16 -->
<g id="node16" class="node">
<title>Node16</title>
<g id="a_node16"><a xlink:href="cmd__space__packet_8c.html#a45d89842ddfe7dc2c74ae697d6690c89" target="_top" xlink:title="Command ID を取得">
<polygon fill="white" stroke="black" points="970.5,-190.5 970.5,-209.5 1067.5,-209.5 1067.5,-190.5 970.5,-190.5"/>
<text text-anchor="middle" x="1019" y="-197.5" font-family="Helvetica,sans-Serif" font-size="10.00">CSP_get_cmd_id</text>
</a>
</g>
</g>
<!-- Node15&#45;&gt;Node16 -->
<g id="edge16" class="edge">
<title>Node15&#45;&gt;Node16</title>
<path fill="none" stroke="midnightblue" d="M866.55,-200C892.79,-200 929.47,-200 960.16,-200"/>
<polygon fill="midnightblue" stroke="midnightblue" points="960.31,-203.5 970.31,-200 960.31,-196.5 960.31,-203.5"/>
</g>
<!-- Node16&#45;&gt;Node11 -->
<g id="edge17" class="edge">
<title>Node16&#45;&gt;Node11</title>
<path fill="none" stroke="midnightblue" d="M1067.61,-196.95C1127.51,-193.1 1231.14,-186.45 1302.17,-181.9"/>
<polygon fill="midnightblue" stroke="midnightblue" points="1302.65,-185.37 1312.4,-181.24 1302.2,-178.39 1302.65,-185.37"/>
</g>
<!-- Node18 -->
<g id="node18" class="node">
<title>Node18</title>
<g id="a_node18"><a xlink:href="command__analyze_8c.html#a68bd697f2123acd72c8c1a49b7f3652a" target="_top" xlink:title="コマンド実行の本体">
<polygon fill="white" stroke="black" points="613.5,-152.5 613.5,-171.5 713.5,-171.5 713.5,-152.5 613.5,-152.5"/>
<text text-anchor="middle" x="663.5" y="-159.5" font-family="Helvetica,sans-Serif" font-size="10.00">CA_execute_cmd</text>
</a>
</g>
</g>
<!-- Node17&#45;&gt;Node18 -->
<g id="edge19" class="edge">
<title>Node17&#45;&gt;Node18</title>
<path fill="none" stroke="midnightblue" d="M569.22,-162C580.33,-162 591.83,-162 602.8,-162"/>
<polygon fill="midnightblue" stroke="midnightblue" points="603.12,-165.5 613.12,-162 603.12,-158.5 603.12,-165.5"/>
</g>
<!-- Node44 -->
<g id="node40" class="node">
<title>Node44</title>
<g id="a_node40"><a xlink:href="common__cmd__packet_8h.html#aa24f85ec65651169c91ab2ad0fad832f" target="_top" xlink:title="APID を取得">
<polygon fill="white" stroke="black" points="789.5,-76.5 789.5,-95.5 872.5,-95.5 872.5,-76.5 789.5,-76.5"/>
<text text-anchor="middle" x="831" y="-83.5" font-family="Helvetica,sans-Serif" font-size="10.00">CCP_get_apid</text>
</a>
</g>
</g>
<!-- Node17&#45;&gt;Node44 -->
<g id="edge46" class="edge">
<title>Node17&#45;&gt;Node44</title>
<path fill="none" stroke="midnightblue" d="M548.51,-152.43C555.64,-149.94 562.73,-146.84 569,-143 588.84,-130.85 584.03,-115.08 605,-105 660.13,-78.48 731.65,-77.23 779.1,-80.3"/>
<polygon fill="midnightblue" stroke="midnightblue" points="778.91,-83.8 789.14,-81.04 779.42,-76.82 778.91,-83.8"/>
</g>
<!-- Node47 -->
<g id="node43" class="node">
<title>Node47</title>
<g id="a_node43"><a xlink:href="user__packet__handler_8c.html#a2c3c644313071db44127bc7a90be4569" target="_top" xlink:title="PHのcmd_router_のユーザー処理関数">
<polygon fill="white" stroke="black" points="605,-114.5 605,-133.5 722,-133.5 722,-114.5 605,-114.5"/>
<text text-anchor="middle" x="663.5" y="-121.5" font-family="Helvetica,sans-Serif" font-size="10.00">PH_user_cmd_router</text>
</a>
</g>
</g>
<!-- Node17&#45;&gt;Node47 -->
<g id="edge50" class="edge">
<title>Node17&#45;&gt;Node47</title>
<path fill="none" stroke="midnightblue" d="M544.37,-152.41C565.22,-147.4 590.93,-141.21 613.04,-135.89"/>
<polygon fill="midnightblue" stroke="midnightblue" points="614.01,-139.26 622.92,-133.52 612.38,-132.46 614.01,-139.26"/>
</g>
<!-- Node18&#45;&gt;Node15 -->
<g id="edge26" class="edge">
<title>Node18&#45;&gt;Node15</title>
<path fill="none" stroke="midnightblue" d="M706.26,-171.59C730.42,-177.14 760.81,-184.11 785.42,-189.76"/>
<polygon fill="midnightblue" stroke="midnightblue" points="784.71,-193.19 795.24,-192.02 786.27,-186.37 784.71,-193.19"/>
</g>
<!-- Node19 -->
<g id="node19" class="node">
<title>Node19</title>
<g id="a_node19"><a xlink:href="command__analyze_8c.html#ae878a1a8ce00cc7468fbdd5bc5aba864" target="_top" xlink:title="コマンドパラメタ長をチェックする">
<polygon fill="white" stroke="black" points="758,-152.5 758,-171.5 904,-171.5 904,-152.5 758,-152.5"/>
<text text-anchor="middle" x="831" y="-159.5" font-family="Helvetica,sans-Serif" font-size="10.00">CA_ckeck_cmd_param_len</text>
</a>
</g>
</g>
<!-- Node18&#45;&gt;Node19 -->
<g id="edge20" class="edge">
<title>Node18&#45;&gt;Node19</title>
<path fill="none" stroke="midnightblue" d="M713.71,-162C724.39,-162 735.98,-162 747.55,-162"/>
<polygon fill="midnightblue" stroke="midnightblue" points="747.7,-165.5 757.7,-162 747.7,-158.5 747.7,-165.5"/>
</g>
<!-- Node26 -->
<g id="node25" class="node">
<title>Node26</title>
<g id="a_node25"><a xlink:href="common__cmd__packet_8h.html#a6f37129ce7654260af1f8a565f6423fc" target="_top" xlink:title="CMD パラメタ長を取得">
<polygon fill="white" stroke="black" points="774,-114.5 774,-133.5 888,-133.5 888,-114.5 774,-114.5"/>
<text text-anchor="middle" x="831" y="-121.5" font-family="Helvetica,sans-Serif" font-size="10.00">CCP_get_param_len</text>
</a>
</g>
</g>
<!-- Node18&#45;&gt;Node26 -->
<g id="edge27" class="edge">
<title>Node18&#45;&gt;Node26</title>
<path fill="none" stroke="midnightblue" d="M706.26,-152.41C728.2,-147.37 755.28,-141.16 778.51,-135.82"/>
<polygon fill="midnightblue" stroke="midnightblue" points="779.57,-139.17 788.54,-133.52 778.01,-132.35 779.57,-139.17"/>
</g>
<!-- Node18&#45;&gt;Node31 -->
<g id="edge29" class="edge">
<title>Node18&#45;&gt;Node31</title>
<path fill="none" stroke="midnightblue" d="M674.31,-171.64C685.78,-182.94 705.34,-202.26 722,-219 754.62,-251.78 792.4,-290.42 813.52,-312.08"/>
<polygon fill="midnightblue" stroke="midnightblue" points="811.02,-314.53 820.51,-319.24 816.04,-309.64 811.02,-314.53"/>
</g>
<!-- Node20 -->
<g id="node20" class="node">
<title>Node20</title>
<g id="a_node20"><a xlink:href="command__analyze_8c.html#ac95557475d470f986e1eb46befbc2ae9" target="_top" xlink:title="最小コマンドパラメタ長を取得する">
<polygon fill="white" stroke="black" points="940,-114.5 940,-133.5 1098,-133.5 1098,-114.5 940,-114.5"/>
<text text-anchor="middle" x="1019" y="-121.5" font-family="Helvetica,sans-Serif" font-size="10.00">CA_get_cmd_param_min_len</text>
</a>
</g>
</g>
<!-- Node19&#45;&gt;Node20 -->
<g id="edge21" class="edge">
<title>Node19&#45;&gt;Node20</title>
<path fill="none" stroke="midnightblue" d="M878.94,-152.41C904.03,-147.28 935.12,-140.93 961.53,-135.54"/>
<polygon fill="midnightblue" stroke="midnightblue" points="962.3,-138.95 971.4,-133.52 960.9,-132.09 962.3,-138.95"/>
</g>
<!-- Node23 -->
<g id="node22" class="node">
<title>Node23</title>
<g id="a_node22"><a xlink:href="command__analyze_8c.html#a8b245c2a85084ae21588acd4deb3b3d6" target="_top" xlink:title="RAW パラメタを持っているか？">
<polygon fill="white" stroke="red" points="962.5,-76.5 962.5,-95.5 1075.5,-95.5 1075.5,-76.5 962.5,-76.5"/>
<text text-anchor="middle" x="1019" y="-83.5" font-family="Helvetica,sans-Serif" font-size="10.00">CA_has_raw_param</text>
</a>
</g>
</g>
<!-- Node19&#45;&gt;Node23 -->
<g id="edge23" class="edge">
<title>Node19&#45;&gt;Node23</title>
<path fill="none" stroke="midnightblue" d="M882.63,-152.47C890.08,-150 897.44,-146.89 904,-143 924.01,-131.13 919.88,-116.67 940,-105 943.97,-102.7 948.22,-100.67 952.59,-98.89"/>
<polygon fill="midnightblue" stroke="midnightblue" points="954.12,-102.06 962.34,-95.37 951.74,-95.47 954.12,-102.06"/>
</g>
<!-- Node25 -->
<g id="node24" class="node">
<title>Node25</title>
<g id="a_node24"><a xlink:href="common__cmd__packet_8h.html#a0cb576a77e94553c22d9cb70a6fd50f1" target="_top" xlink:title="CMD パラメタ長の最大値を取得">
<polygon fill="white" stroke="black" points="948.5,-152.5 948.5,-171.5 1089.5,-171.5 1089.5,-152.5 948.5,-152.5"/>
<text text-anchor="middle" x="1019" y="-159.5" font-family="Helvetica,sans-Serif" font-size="10.00">CCP_get_max_param_len</text>
</a>
</g>
</g>
<!-- Node19&#45;&gt;Node25 -->
<g id="edge25" class="edge">
<title>Node19&#45;&gt;Node25</title>
<path fill="none" stroke="midnightblue" d="M904.18,-162C915.28,-162 926.8,-162 938.06,-162"/>
<polygon fill="midnightblue" stroke="midnightblue" points="938.31,-165.5 948.31,-162 938.31,-158.5 938.31,-165.5"/>
</g>
<!-- Node21 -->
<g id="node21" class="node">
<title>Node21</title>
<g id="a_node21"><a xlink:href="command__analyze_8c.html#a464f3aa16753a76bc5093100542a361a" target="_top" xlink:title="コマンドパラメタサイズを取得する">
<polygon fill="white" stroke="red" points="1135,-114.5 1135,-133.5 1274,-133.5 1274,-114.5 1135,-114.5"/>
<text text-anchor="middle" x="1204.5" y="-121.5" font-family="Helvetica,sans-Serif" font-size="10.00">CA_get_cmd_param_size</text>
</a>
</g>
</g>
<!-- Node20&#45;&gt;Node21 -->
<g id="edge22" class="edge">
<title>Node20&#45;&gt;Node21</title>
<path fill="none" stroke="midnightblue" d="M1098.09,-124C1106.85,-124 1115.78,-124 1124.56,-124"/>
<polygon fill="midnightblue" stroke="midnightblue" points="1124.77,-127.5 1134.77,-124 1124.77,-120.5 1124.77,-127.5"/>
</g>
<!-- Node24 -->
<g id="node23" class="node">
<title>Node24</title>
<g id="a_node23"><a xlink:href="command__analyze_8c.html#a170772c49fb7883a382a30bd38485a6e" target="_top" xlink:title="コマンドパラメタ数を取得する">
<polygon fill="white" stroke="red" points="1134,-76.5 1134,-95.5 1275,-95.5 1275,-76.5 1134,-76.5"/>
<text text-anchor="middle" x="1204.5" y="-83.5" font-family="Helvetica,sans-Serif" font-size="10.00">CA_get_cmd_param_num</text>
</a>
</g>
</g>
<!-- Node23&#45;&gt;Node24 -->
<g id="edge24" class="edge">
<title>Node23&#45;&gt;Node24</title>
<path fill="none" stroke="midnightblue" d="M1075.55,-86C1090.75,-86 1107.53,-86 1123.8,-86"/>
<polygon fill="midnightblue" stroke="midnightblue" points="1123.84,-89.5 1133.84,-86 1123.84,-82.5 1123.84,-89.5"/>
</g>
<!-- Node27 -->
<g id="node26" class="node">
<title>Node27</title>
<g id="a_node26"><a xlink:href="cmd__space__packet_8c.html#ad01de2632e93794f7c77749eb788ad74" target="_top" xlink:title="Param Length を取得">
<polygon fill="white" stroke="red" points="962.5,-38.5 962.5,-57.5 1075.5,-57.5 1075.5,-38.5 962.5,-38.5"/>
<text text-anchor="middle" x="1019" y="-45.5" font-family="Helvetica,sans-Serif" font-size="10.00">CSP_get_param_len</text>
</a>
</g>
</g>
<!-- Node26&#45;&gt;Node27 -->
<g id="edge28" class="edge">
<title>Node26&#45;&gt;Node27</title>
<path fill="none" stroke="midnightblue" d="M882.63,-114.47C890.08,-112 897.44,-108.89 904,-105 924.01,-93.13 919.88,-78.67 940,-67 943.97,-64.7 948.22,-62.67 952.59,-60.89"/>
<polygon fill="midnightblue" stroke="midnightblue" points="954.12,-64.06 962.34,-57.37 951.74,-57.47 954.12,-64.06"/>
</g>
<!-- Node32 -->
<g id="node28" class="node">
<title>Node32</title>
<g id="a_node28"><a xlink:href="event__logger_8c.html#a80a1b60c587d1e3402b02e3bde1db899" target="_top" xlink:title="イベント (EL_Event) を記録">
<polygon fill="white" stroke="black" points="968,-319.5 968,-338.5 1070,-338.5 1070,-319.5 968,-319.5"/>
<text text-anchor="middle" x="1019" y="-326.5" font-family="Helvetica,sans-Serif" font-size="10.00">EL_record_event_</text>
</a>
</g>
</g>
<!-- Node31&#45;&gt;Node32 -->
<g id="edge30" class="edge">
<title>Node31&#45;&gt;Node32</title>
<path fill="none" stroke="midnightblue" d="M879.9,-329C903.65,-329 932.57,-329 957.79,-329"/>
<polygon fill="midnightblue" stroke="midnightblue" points="957.99,-332.5 967.99,-329 957.99,-325.5 957.99,-332.5"/>
</g>
<!-- Node33 -->
<g id="node29" class="node">
<title>Node33</title>
<g id="a_node29"><a xlink:href="event__logger_8c.html#aeae14f21b4e29006f709a61e7de52d67" target="_top" xlink:title="TLog の wp をチェックし， event を生成する">
<polygon fill="white" stroke="black" points="1149.5,-281.5 1149.5,-300.5 1259.5,-300.5 1259.5,-281.5 1149.5,-281.5"/>
<text text-anchor="middle" x="1204.5" y="-288.5" font-family="Helvetica,sans-Serif" font-size="10.00">EL_check_tlog_wp_</text>
</a>
</g>
</g>
<!-- Node32&#45;&gt;Node33 -->
<g id="edge31" class="edge">
<title>Node32&#45;&gt;Node33</title>
<path fill="none" stroke="midnightblue" d="M1043.61,-319.41C1067.65,-312.57 1105.98,-304.04 1139.08,-297.86"/>
<polygon fill="midnightblue" stroke="midnightblue" points="1139.96,-301.26 1149.17,-296.03 1138.7,-294.38 1139.96,-301.26"/>
</g>
<!-- Node34 -->
<g id="node30" class="node">
<title>Node34</title>
<g id="a_node30"><a xlink:href="event__logger_8c.html#a0b42c2f5d1eafdad83481ec6e63365e2" target="_top" xlink:title="イベント (EL_Event) を初期化">
<polygon fill="white" stroke="black" points="1161,-456.5 1161,-475.5 1248,-475.5 1248,-456.5 1161,-456.5"/>
<text text-anchor="middle" x="1204.5" y="-463.5" font-family="Helvetica,sans-Serif" font-size="10.00">EL_init_event_</text>
</a>
</g>
</g>
<!-- Node32&#45;&gt;Node34 -->
<g id="edge33" class="edge">
<title>Node32&#45;&gt;Node34</title>
<path fill="none" stroke="midnightblue" d="M1026.47,-338.62C1042.14,-361.16 1084.49,-417.68 1134,-447 1139.37,-450.18 1145.28,-452.84 1151.33,-455.07"/>
<polygon fill="midnightblue" stroke="midnightblue" points="1150.28,-458.41 1160.87,-458.22 1152.47,-451.76 1150.28,-458.41"/>
</g>
<!-- Node35 -->
<g id="node31" class="node">
<title>Node35</title>
<g id="a_node31"><a xlink:href="event__logger_8c.html#a50ba2fe43a96f7351951a4109227ba6f" target="_top" xlink:title="event_logger の EL_Event.group が有効か？">
<polygon fill="white" stroke="black" points="1144,-243.5 1144,-262.5 1265,-262.5 1265,-243.5 1144,-243.5"/>
<text text-anchor="middle" x="1204.5" y="-250.5" font-family="Helvetica,sans-Serif" font-size="10.00">EL_is_logging_enable</text>
</a>
</g>
</g>
<!-- Node32&#45;&gt;Node35 -->
<g id="edge35" class="edge">
<title>Node32&#45;&gt;Node35</title>
<path fill="none" stroke="midnightblue" d="M1036.53,-319.43C1058.3,-307.14 1098.04,-285.75 1134,-272 1140.28,-269.6 1146.99,-267.37 1153.66,-265.34"/>
<polygon fill="midnightblue" stroke="midnightblue" points="1154.74,-268.67 1163.37,-262.52 1152.79,-261.95 1154.74,-268.67"/>
</g>
<!-- Node36 -->
<g id="node32" class="node">
<title>Node36</title>
<g id="a_node32"><a xlink:href="event__logger_8c.html#a69fb9dbc85ad467d048f1c9f31d2442c" target="_top" xlink:title="イベント (EL_Event) を CLog に記録">
<polygon fill="white" stroke="black" points="1148.5,-358 1148.5,-388 1260.5,-388 1260.5,-358 1148.5,-358"/>
<text text-anchor="start" x="1156.5" y="-376" font-family="Helvetica,sans-Serif" font-size="10.00">EL_record_event_to</text>
<text text-anchor="middle" x="1204.5" y="-365" font-family="Helvetica,sans-Serif" font-size="10.00">_clog_</text>
</a>
</g>
</g>
<!-- Node32&#45;&gt;Node36 -->
<g id="edge36" class="edge">
<title>Node32&#45;&gt;Node36</title>
<path fill="none" stroke="midnightblue" d="M1059.82,-338.55C1082.81,-344.06 1112.29,-351.13 1138.56,-357.43"/>
<polygon fill="midnightblue" stroke="midnightblue" points="1137.91,-360.87 1148.45,-359.8 1139.54,-354.06 1137.91,-360.87"/>
</g>
<!-- Node42 -->
<g id="node38" class="node">
<title>Node42</title>
<g id="a_node38"><a xlink:href="event__logger_8c.html#a93cb3659efd373de0856c92b3c08896a" target="_top" xlink:title="イベント (EL_Event) を TLog に記録">
<polygon fill="white" stroke="black" points="1148.5,-407 1148.5,-437 1260.5,-437 1260.5,-407 1148.5,-407"/>
<text text-anchor="start" x="1156.5" y="-425" font-family="Helvetica,sans-Serif" font-size="10.00">EL_record_event_to</text>
<text text-anchor="middle" x="1204.5" y="-414" font-family="Helvetica,sans-Serif" font-size="10.00">_tlog_</text>
</a>
</g>
</g>
<!-- Node32&#45;&gt;Node42 -->
<g id="edge44" class="edge">
<title>Node32&#45;&gt;Node42</title>
<path fill="none" stroke="midnightblue" d="M1033.86,-338.72C1054.8,-353.09 1096.09,-380.23 1134,-398 1137.84,-399.8 1141.85,-401.53 1145.92,-403.19"/>
<polygon fill="midnightblue" stroke="midnightblue" points="1144.9,-406.55 1155.49,-406.92 1147.44,-400.03 1144.9,-406.55"/>
</g>
<!-- Node33&#45;&gt;Node32 -->
<g id="edge32" class="edge">
<title>Node33&#45;&gt;Node32</title>
<path fill="none" stroke="midnightblue" d="M1180.19,-300.51C1155.11,-307.66 1114.23,-316.7 1080.05,-322.94"/>
<polygon fill="midnightblue" stroke="midnightblue" points="1079.37,-319.51 1070.14,-324.71 1080.6,-326.4 1079.37,-319.51"/>
</g>
<!-- Node34&#45;&gt;Node7 -->
<g id="edge34" class="edge">
<title>Node34&#45;&gt;Node7</title>
<path fill="none" stroke="midnightblue" d="M1247.82,-475.54C1271.47,-480.87 1301.14,-487.56 1326.23,-493.22"/>
<polygon fill="midnightblue" stroke="midnightblue" points="1325.79,-496.71 1336.32,-495.49 1327.33,-489.88 1325.79,-496.71"/>
</g>
<!-- Node37 -->
<g id="node33" class="node">
<title>Node37</title>
<g id="a_node33"><a xlink:href="event__logger_8c.html#a605a3ff223ddae8830c09ff5aa57cc94" target="_top" xlink:title="該当イベントの CLog を，イベントテーブルの先頭に出す">
<polygon fill="white" stroke="black" points="1320,-358 1320,-388 1439,-388 1439,-358 1320,-358"/>
<text text-anchor="start" x="1328" y="-376" font-family="Helvetica,sans-Serif" font-size="10.00">EL_move_to_front_in</text>
<text text-anchor="middle" x="1379.5" y="-365" font-family="Helvetica,sans-Serif" font-size="10.00">_clog_</text>
</a>
</g>
</g>
<!-- Node36&#45;&gt;Node37 -->
<g id="edge37" class="edge">
<title>Node36&#45;&gt;Node37</title>
<path fill="none" stroke="midnightblue" d="M1260.71,-373C1276.35,-373 1293.57,-373 1309.9,-373"/>
<polygon fill="midnightblue" stroke="midnightblue" points="1309.93,-376.5 1319.93,-373 1309.93,-369.5 1309.93,-376.5"/>
</g>
<!-- Node40 -->
<g id="node36" class="node">
<title>Node40</title>
<g id="a_node36"><a xlink:href="obc__time_8c.html#a02512f745375636ab21f468838587942" target="_top" xlink:title="ObcTime の引き算を行う">
<polygon fill="white" stroke="black" points="1347,-407.5 1347,-426.5 1412,-426.5 1412,-407.5 1347,-407.5"/>
<text text-anchor="middle" x="1379.5" y="-414.5" font-family="Helvetica,sans-Serif" font-size="10.00">OBCT_diff</text>
</a>
</g>
</g>
<!-- Node36&#45;&gt;Node40 -->
<g id="edge41" class="edge">
<title>Node36&#45;&gt;Node40</title>
<path fill="none" stroke="midnightblue" d="M1260.71,-387.04C1285.52,-393.35 1314.3,-400.67 1337.2,-406.5"/>
<polygon fill="midnightblue" stroke="midnightblue" points="1336.39,-409.9 1346.95,-408.97 1338.12,-403.12 1336.39,-409.9"/>
</g>
<!-- Node38 -->
<g id="node34" class="node">
<title>Node38</title>
<g id="a_node34"><a xlink:href="event__logger_8c.html#a60dac03ee61b8b3fb3ac6335babb7209" target="_top" xlink:title="イベントテーブル先頭に該当イベントの CLog をつくる">
<polygon fill="white" stroke="black" points="1484,-322.5 1484,-341.5 1624,-341.5 1624,-322.5 1484,-322.5"/>
<text text-anchor="middle" x="1554" y="-329.5" font-family="Helvetica,sans-Serif" font-size="10.00">EL_create_clog_on_front_</text>
</a>
</g>
</g>
<!-- Node37&#45;&gt;Node38 -->
<g id="edge38" class="edge">
<title>Node37&#45;&gt;Node38</title>
<path fill="none" stroke="midnightblue" d="M1439.38,-359C1460.09,-354.08 1483.14,-348.6 1503.04,-343.87"/>
<polygon fill="midnightblue" stroke="midnightblue" points="1503.92,-347.26 1512.84,-341.55 1502.3,-340.45 1503.92,-347.26"/>
</g>
<!-- Node39 -->
<g id="node35" class="node">
<title>Node39</title>
<g id="a_node35"><a xlink:href="event__logger_8c.html#a987cce8c848158cc3038bb59dc100de3" target="_top" xlink:title="該当イベントの CLog を検索し取得する">
<polygon fill="white" stroke="black" points="1506,-363.5 1506,-382.5 1602,-382.5 1602,-363.5 1506,-363.5"/>
<text text-anchor="middle" x="1554" y="-370.5" font-family="Helvetica,sans-Serif" font-size="10.00">EL_search_clog_</text>
</a>
</g>
</g>
<!-- Node37&#45;&gt;Node39 -->
<g id="edge40" class="edge">
<title>Node37&#45;&gt;Node39</title>
<path fill="none" stroke="midnightblue" d="M1439.38,-373C1457.58,-373 1477.59,-373 1495.68,-373"/>
<polygon fill="midnightblue" stroke="midnightblue" points="1495.79,-376.5 1505.79,-373 1495.79,-369.5 1495.79,-376.5"/>
</g>
<!-- Node38&#45;&gt;Node32 -->
<g id="edge39" class="edge">
<title>Node38&#45;&gt;Node32</title>
<path fill="none" stroke="midnightblue" d="M1483.86,-331.61C1378.65,-331.02 1180.07,-329.9 1080.35,-329.34"/>
<polygon fill="midnightblue" stroke="midnightblue" points="1080.16,-325.84 1070.14,-329.28 1080.12,-332.84 1080.16,-325.84"/>
</g>
<!-- Node40&#45;&gt;Node8 -->
<g id="edge43" class="edge">
<title>Node40&#45;&gt;Node8</title>
<path fill="none" stroke="midnightblue" d="M1412.3,-425.71C1423.65,-429 1436.47,-432.94 1448,-437 1473.34,-445.92 1501.49,-457.54 1522.26,-466.45"/>
<polygon fill="midnightblue" stroke="midnightblue" points="1520.96,-469.71 1531.53,-470.46 1523.74,-463.28 1520.96,-469.71"/>
</g>
<!-- Node41 -->
<g id="node37" class="node">
<title>Node41</title>
<g id="a_node37"><a xlink:href="obc__time_8c.html#a8d70081c0b7615e9381c431ae5f8dca2" target="_top" xlink:title="ObcTime の比較">
<polygon fill="white" stroke="black" points="1508,-407.5 1508,-426.5 1600,-426.5 1600,-407.5 1508,-407.5"/>
<text text-anchor="middle" x="1554" y="-414.5" font-family="Helvetica,sans-Serif" font-size="10.00">OBCT_compare</text>
</a>
</g>
</g>
<!-- Node40&#45;&gt;Node41 -->
<g id="edge42" class="edge">
<title>Node40&#45;&gt;Node41</title>
<path fill="none" stroke="midnightblue" d="M1412.14,-417C1436.05,-417 1469.47,-417 1497.75,-417"/>
<polygon fill="midnightblue" stroke="midnightblue" points="1497.92,-420.5 1507.92,-417 1497.92,-413.5 1497.92,-420.5"/>
</g>
<!-- Node43 -->
<g id="node39" class="node">
<title>Node43</title>
<g id="a_node39"><a xlink:href="event__logger_8c.html#af088469f27d5dfca608a9cacee9fbc17" target="_top" xlink:title="TLog のイベントテーブルの上書きが有効か？">
<polygon fill="white" stroke="black" points="1321,-446 1321,-476 1438,-476 1438,-446 1321,-446"/>
<text text-anchor="start" x="1329" y="-464" font-family="Helvetica,sans-Serif" font-size="10.00">EL_is_tlog_overwrite</text>
<text text-anchor="middle" x="1379.5" y="-453" font-family="Helvetica,sans-Serif" font-size="10.00">_enable</text>
</a>
</g>
</g>
<!-- Node42&#45;&gt;Node43 -->
<g id="edge45" class="edge">
<title>Node42&#45;&gt;Node43</title>
<path fill="none" stroke="midnightblue" d="M1260.71,-434.45C1276.6,-438.03 1294.11,-441.98 1310.67,-445.71"/>
<polygon fill="midnightblue" stroke="midnightblue" points="1310.31,-449.21 1320.83,-448 1311.85,-442.39 1310.31,-449.21"/>
</g>
<!-- Node45 -->
<g id="node41" class="node">
<title>Node45</title>
<g id="a_node41"><a xlink:href="cmd__space__packet_8c.html#a66281beb2903f651ac94e9ea379f94ce" target="_top" xlink:title="APID を取得">
<polygon fill="white" stroke="black" points="977.5,-0.5 977.5,-19.5 1060.5,-19.5 1060.5,-0.5 977.5,-0.5"/>
<text text-anchor="middle" x="1019" y="-7.5" font-family="Helvetica,sans-Serif" font-size="10.00">CSP_get_apid</text>
</a>
</g>
</g>
<!-- Node44&#45;&gt;Node45 -->
<g id="edge47" class="edge">
<title>Node44&#45;&gt;Node45</title>
<path fill="none" stroke="midnightblue" d="M847.17,-76.44C867.58,-63.96 905.31,-42.15 940,-29 948.71,-25.7 958.19,-22.83 967.44,-20.38"/>
<polygon fill="midnightblue" stroke="midnightblue" points="968.49,-23.73 977.34,-17.9 966.79,-16.94 968.49,-23.73"/>
</g>
<!-- Node46 -->
<g id="node42" class="node">
<title>Node46</title>
<g id="a_node42"><a xlink:href="space__packet_8c.html#a9be42b696c56f6a99d7170a69a03650b" target="_top" xlink:title="APID を取得">
<polygon fill="white" stroke="black" points="1166.5,-19.5 1166.5,-38.5 1242.5,-38.5 1242.5,-19.5 1166.5,-19.5"/>
<text text-anchor="middle" x="1204.5" y="-26.5" font-family="Helvetica,sans-Serif" font-size="10.00">SP_get_apid</text>
</a>
</g>
</g>
<!-- Node45&#45;&gt;Node46 -->
<g id="edge48" class="edge">
<title>Node45&#45;&gt;Node46</title>
<path fill="none" stroke="midnightblue" d="M1060.72,-14.22C1088.97,-17.14 1126.66,-21.04 1156.23,-24.11"/>
<polygon fill="midnightblue" stroke="midnightblue" points="1156.01,-27.6 1166.32,-25.15 1156.73,-20.64 1156.01,-27.6"/>
</g>
<!-- Node46&#45;&gt;Node11 -->
<g id="edge49" class="edge">
<title>Node46&#45;&gt;Node11</title>
<path fill="none" stroke="midnightblue" d="M1226.93,-38.53C1241.24,-45.4 1260.09,-55.48 1275,-67 1308.59,-92.97 1341.09,-130.09 1360.45,-153.87"/>
<polygon fill="midnightblue" stroke="midnightblue" points="1357.73,-156.08 1366.72,-161.68 1363.19,-151.69 1357.73,-156.08"/>
</g>
<!-- Node47&#45;&gt;Node44 -->
<g id="edge51" class="edge">
<title>Node47&#45;&gt;Node44</title>
<path fill="none" stroke="midnightblue" d="M706.26,-114.41C728.55,-109.29 756.15,-102.96 779.62,-97.57"/>
<polygon fill="midnightblue" stroke="midnightblue" points="780.43,-100.97 789.39,-95.32 778.87,-94.15 780.43,-100.97"/>
</g>
<!-- Node49 -->
<g id="node45" class="node">
<title>Node49</title>
<g id="a_node45"><a xlink:href="packet__list_8c.html#a73f448f3b619d2a36949a483f3c70d8a" target="_top" xlink:title="先頭 Node を落とす">
<polygon fill="white" stroke="black" points="619,-228.5 619,-247.5 708,-247.5 708,-228.5 619,-228.5"/>
<text text-anchor="middle" x="663.5" y="-235.5" font-family="Helvetica,sans-Serif" font-size="10.00">PL_drop_head_</text>
</a>
</g>
</g>
<!-- Node48&#45;&gt;Node49 -->
<g id="edge53" class="edge">
<title>Node48&#45;&gt;Node49</title>
<path fill="none" stroke="midnightblue" d="M555.8,-238C572.66,-238 591.45,-238 608.51,-238"/>
<polygon fill="midnightblue" stroke="midnightblue" points="608.88,-241.5 618.88,-238 608.88,-234.5 608.88,-241.5"/>
</g>
<!-- Node52&#45;&gt;Node9 -->
<g id="edge59" class="edge">
<title>Node52&#45;&gt;Node9</title>
<path fill="none" stroke="midnightblue" d="M375.77,-323.59C401.23,-329.3 433.44,-336.52 459.02,-342.25"/>
<polygon fill="midnightblue" stroke="midnightblue" points="458.3,-345.68 468.82,-344.45 459.83,-338.85 458.3,-345.68"/>
</g>
<!-- Node52&#45;&gt;Node51 -->
<g id="edge60" class="edge">
<title>Node52&#45;&gt;Node51</title>
<path fill="none" stroke="midnightblue" d="M382.03,-314C404.75,-314 431.67,-314 454.29,-314"/>
<polygon fill="midnightblue" stroke="midnightblue" points="454.35,-317.5 464.35,-314 454.35,-310.5 454.35,-317.5"/>
</g>
<!-- Node54 -->
<g id="node50" class="node">
<title>Node54</title>
<g id="a_node50"><a xlink:href="obc__time_8c.html#ac42c1d017a2cbb8dab608771907c97d5" target="_top" xlink:title="引数で指定した ObcTime の total_cycle を返す">
<polygon fill="white" stroke="black" points="442,-76.5 442,-95.5 565,-95.5 565,-76.5 442,-76.5"/>
<text text-anchor="middle" x="503.5" y="-83.5" font-family="Helvetica,sans-Serif" font-size="10.00">OBCT_get_total_cycle</text>
</a>
</g>
</g>
<!-- Node53&#45;&gt;Node54 -->
<g id="edge63" class="edge">
<title>Node53&#45;&gt;Node54</title>
<path fill="none" stroke="midnightblue" d="M399.02,-96.99C409.73,-95.85 420.85,-94.67 431.67,-93.52"/>
<polygon fill="midnightblue" stroke="midnightblue" points="432.35,-96.97 441.92,-92.43 431.61,-90.01 432.35,-96.97"/>
</g>
</g>
</svg>
