<?xml version="1.0" encoding="UTF-8" standalone="no"?>
<!DOCTYPE svg PUBLIC "-//W3C//DTD SVG 1.1//EN"
 "http://www.w3.org/Graphics/SVG/1.1/DTD/svg11.dtd">
<!-- Generated by graphviz version 2.43.0 (0)
 -->
<!-- Title: TLCD2_dispatch_ Pages: 1 -->
<svg width="1640pt" height="534pt"
 viewBox="0.00 0.00 1640.00 534.00" xmlns="http://www.w3.org/2000/svg" xmlns:xlink="http://www.w3.org/1999/xlink">
<g id="graph0" class="graph" transform="scale(1 1) rotate(0) translate(4 530)">
<title>TLCD2_dispatch_</title>
<polygon fill="white" stroke="transparent" points="-4,4 -4,-530 1636,-530 1636,4 -4,4"/>
<!-- Node1 -->
<g id="node1" class="node">
<title>Node1</title>
<g id="a_node1"><a xlink:title=" ">
<polygon fill="#bfbfbf" stroke="black" points="0,-145.5 0,-164.5 100,-164.5 100,-145.5 0,-145.5"/>
<text text-anchor="middle" x="50" y="-152.5" font-family="Helvetica,sans-Serif" font-size="10.00">TLCD2_dispatch_</text>
</a>
</g>
</g>
<!-- Node2 -->
<g id="node2" class="node">
<title>Node2</title>
<g id="a_node2"><a xlink:href="timeline__command__dispatcher_8c.html#a81ac915e803ac30a27f6488af9ce45ad" target="_top" xlink:title=" ">
<polygon fill="white" stroke="black" points="136,-145.5 136,-164.5 226,-164.5 226,-145.5 136,-145.5"/>
<text text-anchor="middle" x="181" y="-152.5" font-family="Helvetica,sans-Serif" font-size="10.00">tlc_dispatcher_</text>
</a>
</g>
</g>
<!-- Node1&#45;&gt;Node2 -->
<g id="edge1" class="edge">
<title>Node1&#45;&gt;Node2</title>
<path fill="none" stroke="midnightblue" d="M100.14,-155C108.44,-155 117.1,-155 125.53,-155"/>
<polygon fill="midnightblue" stroke="midnightblue" points="125.65,-158.5 135.65,-155 125.65,-151.5 125.65,-158.5"/>
</g>
<!-- Node3 -->
<g id="node3" class="node">
<title>Node3</title>
<g id="a_node3"><a xlink:href="anomaly__logger_8c.html#a0ea6626c89aa7e883a23da90b4c34e66" target="_top" xlink:title=" ">
<polygon fill="white" stroke="black" points="282,-430.5 282,-449.5 382,-449.5 382,-430.5 282,-430.5"/>
<text text-anchor="middle" x="332" y="-437.5" font-family="Helvetica,sans-Serif" font-size="10.00">AL_add_anomaly</text>
</a>
</g>
</g>
<!-- Node2&#45;&gt;Node3 -->
<g id="edge2" class="edge">
<title>Node2&#45;&gt;Node3</title>
<path fill="none" stroke="midnightblue" d="M183.7,-164.68C189.78,-197.2 212.68,-304.6 262,-378 274.39,-396.44 293.46,-413.01 308.41,-424.37"/>
<polygon fill="midnightblue" stroke="midnightblue" points="306.53,-427.33 316.66,-430.43 310.68,-421.69 306.53,-427.33"/>
</g>
<!-- Node9 -->
<g id="node9" class="node">
<title>Node9</title>
<g id="a_node9"><a xlink:href="common__tlm__cmd__packet_8h.html#a0e38126c0eebfaf7ad916bad31cd3348" target="_top" xlink:title="TI を取得">
<polygon fill="white" stroke="black" points="469,-69.5 469,-88.5 538,-88.5 538,-69.5 469,-69.5"/>
<text text-anchor="middle" x="503.5" y="-76.5" font-family="Helvetica,sans-Serif" font-size="10.00">CCP_get_ti</text>
</a>
</g>
</g>
<!-- Node2&#45;&gt;Node9 -->
<g id="edge9" class="edge">
<title>Node2&#45;&gt;Node9</title>
<path fill="none" stroke="midnightblue" d="M191.81,-145.24C205.94,-131.88 233.47,-108.38 262,-98 327.41,-74.2 409.24,-73.29 458.61,-75.59"/>
<polygon fill="midnightblue" stroke="midnightblue" points="458.47,-79.08 468.64,-76.12 458.84,-72.09 458.47,-79.08"/>
</g>
<!-- Node11 -->
<g id="node11" class="node">
<title>Node11</title>
<g id="a_node11"><a xlink:href="command__dispatcher_8c.html#a90617acff33923f51c212b8e3034712c" target="_top" xlink:title=" ">
<polygon fill="white" stroke="black" points="262,-183.5 262,-202.5 402,-202.5 402,-183.5 262,-183.5"/>
<text text-anchor="middle" x="332" y="-190.5" font-family="Helvetica,sans-Serif" font-size="10.00">CDIS_dispatch_command</text>
</a>
</g>
</g>
<!-- Node2&#45;&gt;Node11 -->
<g id="edge11" class="edge">
<title>Node2&#45;&gt;Node11</title>
<path fill="none" stroke="midnightblue" d="M219.6,-164.59C239.08,-169.56 263.07,-175.68 283.8,-180.96"/>
<polygon fill="midnightblue" stroke="midnightblue" points="283.12,-184.4 293.67,-183.48 284.85,-177.62 283.12,-184.4"/>
</g>
<!-- Node25 -->
<g id="node25" class="node">
<title>Node25</title>
<g id="a_node25"><a xlink:href="event__logger_8c.html#a25a74a48375dfc1f3f80be68e0ac00ea" target="_top" xlink:title="イベント (EL_Event) を記録">
<polygon fill="white" stroke="black" points="782.5,-259.5 782.5,-278.5 879.5,-278.5 879.5,-259.5 782.5,-259.5"/>
<text text-anchor="middle" x="831" y="-266.5" font-family="Helvetica,sans-Serif" font-size="10.00">EL_record_event</text>
</a>
</g>
</g>
<!-- Node2&#45;&gt;Node25 -->
<g id="edge54" class="edge">
<title>Node2&#45;&gt;Node25</title>
<path fill="none" stroke="midnightblue" d="M193.67,-164.52C208.8,-176.57 236.3,-197.51 262,-212 336.22,-253.84 354.56,-270.75 438,-288 555.98,-312.38 697.98,-294.02 774.55,-280.33"/>
<polygon fill="midnightblue" stroke="midnightblue" points="775.25,-283.76 784.45,-278.52 773.99,-276.87 775.25,-283.76"/>
</g>
<!-- Node44 -->
<g id="node44" class="node">
<title>Node44</title>
<g id="a_node44"><a xlink:href="packet__list_8c.html#a2b6b5b3ed753070e0ef0b14556311263" target="_top" xlink:title="PacketList の active 先頭ノードを取得">
<polygon fill="white" stroke="black" points="464.5,-145.5 464.5,-164.5 542.5,-164.5 542.5,-145.5 464.5,-145.5"/>
<text text-anchor="middle" x="503.5" y="-152.5" font-family="Helvetica,sans-Serif" font-size="10.00">PL_get_head</text>
</a>
</g>
</g>
<!-- Node2&#45;&gt;Node44 -->
<g id="edge58" class="edge">
<title>Node2&#45;&gt;Node44</title>
<path fill="none" stroke="midnightblue" d="M226.23,-155C285.97,-155 392.07,-155 453.95,-155"/>
<polygon fill="midnightblue" stroke="midnightblue" points="454.23,-158.5 464.23,-155 454.23,-151.5 454.23,-158.5"/>
</g>
<!-- Node46 -->
<g id="node46" class="node">
<title>Node46</title>
<g id="a_node46"><a xlink:href="packet__list_8c.html#ae6462a546e2492c306a9f334c5a2d48d" target="_top" xlink:title="PacketList の先頭と time を比較">
<polygon fill="white" stroke="black" points="282,-107.5 282,-126.5 382,-126.5 382,-107.5 282,-107.5"/>
<text text-anchor="middle" x="332" y="-114.5" font-family="Helvetica,sans-Serif" font-size="10.00">PL_check_tl_cmd</text>
</a>
</g>
</g>
<!-- Node2&#45;&gt;Node46 -->
<g id="edge55" class="edge">
<title>Node2&#45;&gt;Node46</title>
<path fill="none" stroke="midnightblue" d="M219.6,-145.41C239.08,-140.44 263.07,-134.32 283.8,-129.04"/>
<polygon fill="midnightblue" stroke="midnightblue" points="284.85,-132.38 293.67,-126.52 283.12,-125.6 284.85,-132.38"/>
</g>
<!-- Node47 -->
<g id="node47" class="node">
<title>Node47</title>
<g id="a_node47"><a xlink:href="time__manager_8c.html#a576e42803f8f3896524dbb266a47a08f" target="_top" xlink:title=" ">
<polygon fill="white" stroke="black" points="265,-20 265,-50 399,-50 399,-20 265,-20"/>
<text text-anchor="start" x="273" y="-38" font-family="Helvetica,sans-Serif" font-size="10.00">TMGR_get_master_total</text>
<text text-anchor="middle" x="332" y="-27" font-family="Helvetica,sans-Serif" font-size="10.00">_cycle</text>
</a>
</g>
</g>
<!-- Node2&#45;&gt;Node47 -->
<g id="edge59" class="edge">
<title>Node2&#45;&gt;Node47</title>
<path fill="none" stroke="midnightblue" d="M188.41,-145.35C200.75,-127.4 229.5,-88.55 262,-65 267.21,-61.23 272.96,-57.8 278.86,-54.71"/>
<polygon fill="midnightblue" stroke="midnightblue" points="280.74,-57.69 288.19,-50.16 277.67,-51.4 280.74,-57.69"/>
</g>
<!-- Node3&#45;&gt;Node3 -->
<g id="edge4" class="edge">
<title>Node3&#45;&gt;Node3</title>
<path fill="none" stroke="midnightblue" d="M308.88,-449.76C297.63,-458.57 305.34,-468 332,-468 349.5,-468 358.83,-463.94 360,-458.65"/>
<polygon fill="midnightblue" stroke="midnightblue" points="363,-456.84 355.12,-449.76 356.86,-460.21 363,-456.84"/>
</g>
<!-- Node4 -->
<g id="node4" class="node">
<title>Node4</title>
<g id="a_node4"><a xlink:href="anomaly__logger_8c.html#a0d3195f9dcd9ab90f9672a90ed701932" target="_top" xlink:title=" ">
<polygon fill="white" stroke="black" points="463,-506.5 463,-525.5 544,-525.5 544,-506.5 463,-506.5"/>
<text text-anchor="middle" x="503.5" y="-513.5" font-family="Helvetica,sans-Serif" font-size="10.00">AC_is_equal_</text>
</a>
</g>
</g>
<!-- Node3&#45;&gt;Node4 -->
<g id="edge3" class="edge">
<title>Node3&#45;&gt;Node4</title>
<path fill="none" stroke="midnightblue" d="M348.15,-449.56C368.12,-461.84 404.65,-483.21 438,-497 443.53,-499.29 449.43,-501.42 455.33,-503.36"/>
<polygon fill="midnightblue" stroke="midnightblue" points="454.61,-506.81 465.2,-506.46 456.71,-500.13 454.61,-506.81"/>
</g>
<!-- Node5 -->
<g id="node5" class="node">
<title>Node5</title>
<g id="a_node5"><a xlink:href="anomaly__logger_8c.html#a20757d941f0e6a6fe45076e1b799d58c" target="_top" xlink:title=" ">
<polygon fill="white" stroke="black" points="444,-468.5 444,-487.5 563,-487.5 563,-468.5 444,-468.5"/>
<text text-anchor="middle" x="503.5" y="-475.5" font-family="Helvetica,sans-Serif" font-size="10.00">AL_get_latest_record</text>
</a>
</g>
</g>
<!-- Node3&#45;&gt;Node5 -->
<g id="edge5" class="edge">
<title>Node3&#45;&gt;Node5</title>
<path fill="none" stroke="midnightblue" d="M375.77,-449.59C398.34,-454.65 426.22,-460.9 450.08,-466.25"/>
<polygon fill="midnightblue" stroke="midnightblue" points="449.51,-469.71 460.04,-468.48 451.04,-462.88 449.51,-469.71"/>
</g>
<!-- Node6 -->
<g id="node6" class="node">
<title>Node6</title>
<g id="a_node6"><a xlink:href="anomaly__logger_8c.html#af0545eca5524e201925fa77dd122fd8c" target="_top" xlink:title=" ">
<polygon fill="white" stroke="black" points="440,-430.5 440,-449.5 567,-449.5 567,-430.5 440,-430.5"/>
<text text-anchor="middle" x="503.5" y="-437.5" font-family="Helvetica,sans-Serif" font-size="10.00">AL_is_logging_enable_</text>
</a>
</g>
</g>
<!-- Node3&#45;&gt;Node6 -->
<g id="edge6" class="edge">
<title>Node3&#45;&gt;Node6</title>
<path fill="none" stroke="midnightblue" d="M382.03,-440C396.86,-440 413.49,-440 429.54,-440"/>
<polygon fill="midnightblue" stroke="midnightblue" points="429.98,-443.5 439.98,-440 429.98,-436.5 429.98,-443.5"/>
</g>
<!-- Node7 -->
<g id="node7" class="node">
<title>Node7</title>
<g id="a_node7"><a xlink:href="time__manager_8c.html#a9d04b4d9b622cbe5a90cf65e58b828bc" target="_top" xlink:title=" ">
<polygon fill="white" stroke="black" points="1315,-354.5 1315,-373.5 1452,-373.5 1452,-354.5 1315,-354.5"/>
<text text-anchor="middle" x="1383.5" y="-361.5" font-family="Helvetica,sans-Serif" font-size="10.00">TMGR_get_master_clock</text>
</a>
</g>
</g>
<!-- Node3&#45;&gt;Node7 -->
<g id="edge7" class="edge">
<title>Node3&#45;&gt;Node7</title>
<path fill="none" stroke="midnightblue" d="M380.15,-430.49C398.19,-427.11 418.99,-423.52 438,-421 537.27,-407.85 562.37,-402 662.5,-402 662.5,-402 662.5,-402 1020,-402 1124.1,-402 1244.11,-386.31 1316.59,-375.09"/>
<polygon fill="midnightblue" stroke="midnightblue" points="1317.15,-378.54 1326.49,-373.54 1316.07,-371.63 1317.15,-378.54"/>
</g>
<!-- Node8 -->
<g id="node8" class="node">
<title>Node8</title>
<g id="a_node8"><a xlink:href="obc__time_8c.html#a70416835a40bdacbb04f6f06b1e6d1e1" target="_top" xlink:title=" ">
<polygon fill="white" stroke="black" points="1522,-354.5 1522,-373.5 1602,-373.5 1602,-354.5 1522,-354.5"/>
<text text-anchor="middle" x="1562" y="-361.5" font-family="Helvetica,sans-Serif" font-size="10.00">OBCT_create</text>
</a>
</g>
</g>
<!-- Node7&#45;&gt;Node8 -->
<g id="edge8" class="edge">
<title>Node7&#45;&gt;Node8</title>
<path fill="none" stroke="midnightblue" d="M1452.23,-364C1471.99,-364 1493.2,-364 1511.6,-364"/>
<polygon fill="midnightblue" stroke="midnightblue" points="1511.79,-367.5 1521.79,-364 1511.79,-360.5 1511.79,-367.5"/>
</g>
<!-- Node10 -->
<g id="node10" class="node">
<title>Node10</title>
<g id="a_node10"><a xlink:href="_t_c_packet_8c.html#a560bc972b87481b597879c077780a15d" target="_top" xlink:title="Time Indicator (TI) を取得">
<polygon fill="white" stroke="black" points="615.5,-31.5 615.5,-50.5 711.5,-50.5 711.5,-31.5 615.5,-31.5"/>
<text text-anchor="middle" x="663.5" y="-38.5" font-family="Helvetica,sans-Serif" font-size="10.00">TCP_CMD_get_ti</text>
</a>
</g>
</g>
<!-- Node9&#45;&gt;Node10 -->
<g id="edge10" class="edge">
<title>Node9&#45;&gt;Node10</title>
<path fill="none" stroke="midnightblue" d="M538.01,-70.94C559.82,-65.69 588.66,-58.76 613.08,-52.89"/>
<polygon fill="midnightblue" stroke="midnightblue" points="613.99,-56.27 622.9,-50.52 612.36,-49.46 613.99,-56.27"/>
</g>
<!-- Node11&#45;&gt;Node7 -->
<g id="edge53" class="edge">
<title>Node11&#45;&gt;Node7</title>
<path fill="none" stroke="midnightblue" d="M393.69,-202.53C396.63,-204.11 399.43,-205.92 402,-208 432.29,-232.55 406.15,-265.51 438,-288 691.53,-467.03 824.6,-320.5 1134,-345 1191.18,-349.53 1255.78,-354.46 1304.78,-358.17"/>
<polygon fill="midnightblue" stroke="midnightblue" points="1304.76,-361.67 1314.99,-358.94 1305.28,-354.69 1304.76,-361.67"/>
</g>
<!-- Node12 -->
<g id="node12" class="node">
<title>Node12</title>
<g id="a_node12"><a xlink:href="common__tlm__cmd__packet_8h.html#aada6263b578341e6ef88174fbdfc5dd7" target="_top" xlink:title="CMD ID を取得">
<polygon fill="white" stroke="black" points="795.5,-221.5 795.5,-240.5 866.5,-240.5 866.5,-221.5 795.5,-221.5"/>
<text text-anchor="middle" x="831" y="-228.5" font-family="Helvetica,sans-Serif" font-size="10.00">CCP_get_id</text>
</a>
</g>
</g>
<!-- Node11&#45;&gt;Node12 -->
<g id="edge12" class="edge">
<title>Node11&#45;&gt;Node12</title>
<path fill="none" stroke="midnightblue" d="M378.29,-202.53C396.73,-206.06 418.31,-209.75 438,-212 563.17,-226.3 712.03,-229.85 785.06,-230.73"/>
<polygon fill="midnightblue" stroke="midnightblue" points="785.23,-234.23 795.27,-230.84 785.31,-227.23 785.23,-234.23"/>
</g>
<!-- Node14 -->
<g id="node14" class="node">
<title>Node14</title>
<g id="a_node14"><a xlink:href="packet__handler_8c.html#ac0da2642bb88c1a3073922569184413d" target="_top" xlink:title=" ">
<polygon fill="white" stroke="black" points="438,-183.5 438,-202.5 569,-202.5 569,-183.5 438,-183.5"/>
<text text-anchor="middle" x="503.5" y="-190.5" font-family="Helvetica,sans-Serif" font-size="10.00">PH_dispatch_command</text>
</a>
</g>
</g>
<!-- Node11&#45;&gt;Node14 -->
<g id="edge14" class="edge">
<title>Node11&#45;&gt;Node14</title>
<path fill="none" stroke="midnightblue" d="M402.43,-193C410.75,-193 419.27,-193 427.67,-193"/>
<polygon fill="midnightblue" stroke="midnightblue" points="427.81,-196.5 437.81,-193 427.81,-189.5 427.81,-196.5"/>
</g>
<!-- Node42 -->
<g id="node42" class="node">
<title>Node42</title>
<g id="a_node42"><a xlink:href="packet__list_8c.html#afdd75e39baffa930cee6287e9821030b" target="_top" xlink:title="先頭ノードを落とす">
<polygon fill="white" stroke="black" points="451.5,-259.5 451.5,-278.5 555.5,-278.5 555.5,-259.5 451.5,-259.5"/>
<text text-anchor="middle" x="503.5" y="-266.5" font-family="Helvetica,sans-Serif" font-size="10.00">PL_drop_executed</text>
</a>
</g>
</g>
<!-- Node11&#45;&gt;Node42 -->
<g id="edge49" class="edge">
<title>Node11&#45;&gt;Node42</title>
<path fill="none" stroke="midnightblue" d="M350.94,-202.6C371.64,-213.5 406.82,-231.52 438,-245 446.78,-248.79 456.37,-252.56 465.42,-255.95"/>
<polygon fill="midnightblue" stroke="midnightblue" points="464.35,-259.29 474.95,-259.46 466.77,-252.72 464.35,-259.29"/>
</g>
<!-- Node11&#45;&gt;Node44 -->
<g id="edge51" class="edge">
<title>Node11&#45;&gt;Node44</title>
<path fill="none" stroke="midnightblue" d="M375.77,-183.41C399.73,-178.04 429.69,-171.32 454.46,-165.77"/>
<polygon fill="midnightblue" stroke="midnightblue" points="455.38,-169.15 464.37,-163.55 453.84,-162.32 455.38,-169.15"/>
</g>
<!-- Node45 -->
<g id="node45" class="node">
<title>Node45</title>
<g id="a_node45"><a xlink:href="packet__list_8c.html#a4caae06aa17abcc1d983f5e43f7b00ac" target="_top" xlink:title="PacketList が空かどうか">
<polygon fill="white" stroke="black" points="464.5,-107.5 464.5,-126.5 542.5,-126.5 542.5,-107.5 464.5,-107.5"/>
<text text-anchor="middle" x="503.5" y="-114.5" font-family="Helvetica,sans-Serif" font-size="10.00">PL_is_empty</text>
</a>
</g>
</g>
<!-- Node11&#45;&gt;Node45 -->
<g id="edge52" class="edge">
<title>Node11&#45;&gt;Node45</title>
<path fill="none" stroke="midnightblue" d="M348.15,-183.44C368.12,-171.16 404.65,-149.79 438,-136 443.53,-133.71 449.43,-131.58 455.33,-129.64"/>
<polygon fill="midnightblue" stroke="midnightblue" points="456.71,-132.87 465.2,-126.54 454.61,-126.19 456.71,-132.87"/>
</g>
<!-- Node13 -->
<g id="node13" class="node">
<title>Node13</title>
<g id="a_node13"><a xlink:href="_t_c_packet_8c.html#a39f967d198c8041c0e07b8b356b23f83" target="_top" xlink:title="channel ID を取得">
<polygon fill="white" stroke="black" points="948,-221.5 948,-240.5 1090,-240.5 1090,-221.5 948,-221.5"/>
<text text-anchor="middle" x="1019" y="-228.5" font-family="Helvetica,sans-Serif" font-size="10.00">TCP_CMD_get_channel_id</text>
</a>
</g>
</g>
<!-- Node12&#45;&gt;Node13 -->
<g id="edge13" class="edge">
<title>Node12&#45;&gt;Node13</title>
<path fill="none" stroke="midnightblue" d="M866.55,-231C886.59,-231 912.71,-231 937.61,-231"/>
<polygon fill="midnightblue" stroke="midnightblue" points="937.81,-234.5 947.81,-231 937.81,-227.5 937.81,-234.5"/>
</g>
<!-- Node15 -->
<g id="node15" class="node">
<title>Node15</title>
<g id="a_node15"><a xlink:href="command__analyze_8c.html#a2bfd90a24682bbb8a68779d95ef31ee0" target="_top" xlink:title="コマンド実行の本体">
<polygon fill="white" stroke="black" points="613.5,-183.5 613.5,-202.5 713.5,-202.5 713.5,-183.5 613.5,-183.5"/>
<text text-anchor="middle" x="663.5" y="-190.5" font-family="Helvetica,sans-Serif" font-size="10.00">CA_execute_cmd</text>
</a>
</g>
</g>
<!-- Node14&#45;&gt;Node15 -->
<g id="edge15" class="edge">
<title>Node14&#45;&gt;Node15</title>
<path fill="none" stroke="midnightblue" d="M569.22,-193C580.33,-193 591.83,-193 602.8,-193"/>
<polygon fill="midnightblue" stroke="midnightblue" points="603.12,-196.5 613.12,-193 603.12,-189.5 603.12,-196.5"/>
</g>
<!-- Node37 -->
<g id="node37" class="node">
<title>Node37</title>
<g id="a_node37"><a xlink:href="common__tlm__cmd__packet_8h.html#a48c6826da1a25e4e710202c1f75ec71e" target="_top" xlink:title="宛先 (TCPではAPID) を取得">
<polygon fill="white" stroke="black" points="782,-69.5 782,-88.5 880,-88.5 880,-69.5 782,-69.5"/>
<text text-anchor="middle" x="831" y="-76.5" font-family="Helvetica,sans-Serif" font-size="10.00">CCP_get_dest_id</text>
</a>
</g>
</g>
<!-- Node14&#45;&gt;Node37 -->
<g id="edge43" class="edge">
<title>Node14&#45;&gt;Node37</title>
<path fill="none" stroke="midnightblue" d="M548.51,-183.43C555.64,-180.94 562.73,-177.84 569,-174 588.84,-161.85 584.93,-147.77 605,-136 633.04,-119.56 715.08,-101.21 771.94,-89.88"/>
<polygon fill="midnightblue" stroke="midnightblue" points="772.75,-93.28 781.89,-87.92 771.4,-86.42 772.75,-93.28"/>
</g>
<!-- Node39 -->
<g id="node39" class="node">
<title>Node39</title>
<g id="a_node39"><a xlink:href="common__tlm__cmd__packet_8h.html#ab4428b5f4c839c6e0ce2b72e01ccd7db" target="_top" xlink:title="tlm か cmd かを判断">
<polygon fill="white" stroke="black" points="614.5,-145.5 614.5,-164.5 712.5,-164.5 712.5,-145.5 614.5,-145.5"/>
<text text-anchor="middle" x="663.5" y="-152.5" font-family="Helvetica,sans-Serif" font-size="10.00">CTCP_get_tc_dsc</text>
</a>
</g>
</g>
<!-- Node14&#45;&gt;Node39 -->
<g id="edge45" class="edge">
<title>Node14&#45;&gt;Node39</title>
<path fill="none" stroke="midnightblue" d="M544.37,-183.41C565.22,-178.4 590.93,-172.21 613.04,-166.89"/>
<polygon fill="midnightblue" stroke="midnightblue" points="614.01,-170.26 622.92,-164.52 612.38,-163.46 614.01,-170.26"/>
</g>
<!-- Node41 -->
<g id="node41" class="node">
<title>Node41</title>
<g id="a_node41"><a xlink:href="user__packet__handler_8c.html#a1d8901bfc5a2d7cfec42de995ad728b3" target="_top" xlink:title="PHのcmd_router_のユーザー処理関数">
<polygon fill="white" stroke="black" points="605,-69.5 605,-88.5 722,-88.5 722,-69.5 605,-69.5"/>
<text text-anchor="middle" x="663.5" y="-76.5" font-family="Helvetica,sans-Serif" font-size="10.00">PH_user_cmd_router</text>
</a>
</g>
</g>
<!-- Node14&#45;&gt;Node41 -->
<g id="edge47" class="edge">
<title>Node14&#45;&gt;Node41</title>
<path fill="none" stroke="midnightblue" d="M553.21,-183.43C558.9,-180.97 564.33,-177.88 569,-174 596.2,-151.37 579.08,-127.08 605,-103 609.16,-99.14 614.03,-95.85 619.15,-93.06"/>
<polygon fill="midnightblue" stroke="midnightblue" points="621.02,-96.05 628.53,-88.57 618,-89.73 621.02,-96.05"/>
</g>
<!-- Node15&#45;&gt;Node12 -->
<g id="edge25" class="edge">
<title>Node15&#45;&gt;Node12</title>
<path fill="none" stroke="midnightblue" d="M706.26,-202.59C730.42,-208.14 760.81,-215.11 785.42,-220.76"/>
<polygon fill="midnightblue" stroke="midnightblue" points="784.71,-224.19 795.24,-223.02 786.27,-217.37 784.71,-224.19"/>
</g>
<!-- Node16 -->
<g id="node16" class="node">
<title>Node16</title>
<g id="a_node16"><a xlink:href="command__analyze_8c.html#ae878a1a8ce00cc7468fbdd5bc5aba864" target="_top" xlink:title="コマンドパラメタ長をチェックする">
<polygon fill="white" stroke="black" points="758,-145.5 758,-164.5 904,-164.5 904,-145.5 758,-145.5"/>
<text text-anchor="middle" x="831" y="-152.5" font-family="Helvetica,sans-Serif" font-size="10.00">CA_ckeck_cmd_param_len</text>
</a>
</g>
</g>
<!-- Node15&#45;&gt;Node16 -->
<g id="edge16" class="edge">
<title>Node15&#45;&gt;Node16</title>
<path fill="none" stroke="midnightblue" d="M706.26,-183.41C728.2,-178.37 755.28,-172.16 778.51,-166.82"/>
<polygon fill="midnightblue" stroke="midnightblue" points="779.57,-170.17 788.54,-164.52 778.01,-163.35 779.57,-170.17"/>
</g>
<!-- Node23 -->
<g id="node23" class="node">
<title>Node23</title>
<g id="a_node23"><a xlink:href="common__tlm__cmd__packet_8h.html#a38431270f66de04dc2e058d47635a084" target="_top" xlink:title="CMD パラメタ長を取得">
<polygon fill="white" stroke="black" points="774,-183.5 774,-202.5 888,-202.5 888,-183.5 774,-183.5"/>
<text text-anchor="middle" x="831" y="-190.5" font-family="Helvetica,sans-Serif" font-size="10.00">CCP_get_param_len</text>
</a>
</g>
</g>
<!-- Node15&#45;&gt;Node23 -->
<g id="edge26" class="edge">
<title>Node15&#45;&gt;Node23</title>
<path fill="none" stroke="midnightblue" d="M713.71,-193C729.33,-193 746.87,-193 763.51,-193"/>
<polygon fill="midnightblue" stroke="midnightblue" points="763.72,-196.5 773.72,-193 763.72,-189.5 763.72,-196.5"/>
</g>
<!-- Node15&#45;&gt;Node25 -->
<g id="edge28" class="edge">
<title>Node15&#45;&gt;Node25</title>
<path fill="none" stroke="midnightblue" d="M677.47,-202.59C694.94,-215.11 727.39,-236.96 758,-250 763.7,-252.43 769.78,-254.61 775.91,-256.56"/>
<polygon fill="midnightblue" stroke="midnightblue" points="774.95,-259.92 785.53,-259.42 776.95,-253.22 774.95,-259.92"/>
</g>
<!-- Node17 -->
<g id="node17" class="node">
<title>Node17</title>
<g id="a_node17"><a xlink:href="command__analyze_8c.html#ac95557475d470f986e1eb46befbc2ae9" target="_top" xlink:title="最小コマンドパラメタ長を取得する">
<polygon fill="white" stroke="black" points="940,-145.5 940,-164.5 1098,-164.5 1098,-145.5 940,-145.5"/>
<text text-anchor="middle" x="1019" y="-152.5" font-family="Helvetica,sans-Serif" font-size="10.00">CA_get_cmd_param_min_len</text>
</a>
</g>
</g>
<!-- Node16&#45;&gt;Node17 -->
<g id="edge17" class="edge">
<title>Node16&#45;&gt;Node17</title>
<path fill="none" stroke="midnightblue" d="M904.18,-155C912.45,-155 920.96,-155 929.42,-155"/>
<polygon fill="midnightblue" stroke="midnightblue" points="929.7,-158.5 939.7,-155 929.7,-151.5 929.7,-158.5"/>
</g>
<!-- Node20 -->
<g id="node20" class="node">
<title>Node20</title>
<g id="a_node20"><a xlink:href="command__analyze_8c.html#a8b245c2a85084ae21588acd4deb3b3d6" target="_top" xlink:title="RAW パラメタを持っているか？">
<polygon fill="white" stroke="black" points="962.5,-38.5 962.5,-57.5 1075.5,-57.5 1075.5,-38.5 962.5,-38.5"/>
<text text-anchor="middle" x="1019" y="-45.5" font-family="Helvetica,sans-Serif" font-size="10.00">CA_has_raw_param</text>
</a>
</g>
</g>
<!-- Node16&#45;&gt;Node20 -->
<g id="edge20" class="edge">
<title>Node16&#45;&gt;Node20</title>
<path fill="none" stroke="midnightblue" d="M882.63,-145.47C890.08,-143 897.44,-139.89 904,-136 924.01,-124.13 922.08,-112.83 940,-98 956.16,-84.63 976.1,-71.91 991.77,-62.64"/>
<polygon fill="midnightblue" stroke="midnightblue" points="993.55,-65.65 1000.44,-57.61 990.04,-59.6 993.55,-65.65"/>
</g>
<!-- Node22 -->
<g id="node22" class="node">
<title>Node22</title>
<g id="a_node22"><a xlink:href="common__tlm__cmd__packet_8h.html#a0cb576a77e94553c22d9cb70a6fd50f1" target="_top" xlink:title="CMD パラメタ長の最大値を取得">
<polygon fill="white" stroke="black" points="948.5,-107.5 948.5,-126.5 1089.5,-126.5 1089.5,-107.5 948.5,-107.5"/>
<text text-anchor="middle" x="1019" y="-114.5" font-family="Helvetica,sans-Serif" font-size="10.00">CCP_get_max_param_len</text>
</a>
</g>
</g>
<!-- Node16&#45;&gt;Node22 -->
<g id="edge24" class="edge">
<title>Node16&#45;&gt;Node22</title>
<path fill="none" stroke="midnightblue" d="M878.94,-145.41C904.03,-140.28 935.12,-133.93 961.53,-128.54"/>
<polygon fill="midnightblue" stroke="midnightblue" points="962.3,-131.95 971.4,-126.52 960.9,-125.09 962.3,-131.95"/>
</g>
<!-- Node18 -->
<g id="node18" class="node">
<title>Node18</title>
<g id="a_node18"><a xlink:href="command__analyze_8c.html#a464f3aa16753a76bc5093100542a361a" target="_top" xlink:title="コマンドパラメタサイズを取得する">
<polygon fill="white" stroke="black" points="1135,-64.5 1135,-83.5 1274,-83.5 1274,-64.5 1135,-64.5"/>
<text text-anchor="middle" x="1204.5" y="-71.5" font-family="Helvetica,sans-Serif" font-size="10.00">CA_get_cmd_param_size</text>
</a>
</g>
</g>
<!-- Node17&#45;&gt;Node18 -->
<g id="edge18" class="edge">
<title>Node17&#45;&gt;Node18</title>
<path fill="none" stroke="midnightblue" d="M1077.48,-145.4C1084.67,-142.94 1091.7,-139.86 1098,-136 1118.95,-123.14 1113.32,-107.29 1134,-94 1138.01,-91.42 1142.37,-89.17 1146.87,-87.2"/>
<polygon fill="midnightblue" stroke="midnightblue" points="1148.22,-90.43 1156.27,-83.54 1145.68,-83.91 1148.22,-90.43"/>
</g>
<!-- Node19 -->
<g id="node19" class="node">
<title>Node19</title>
<g id="a_node19"><a xlink:href="command__analyze_8c.html#aa312aeadf3ce336a10385fe14e22f77c" target="_top" xlink:title="コマンドパラメタのサイズ情報を取得">
<polygon fill="white" stroke="black" points="1311,-26.5 1311,-45.5 1456,-45.5 1456,-26.5 1311,-26.5"/>
<text text-anchor="middle" x="1383.5" y="-33.5" font-family="Helvetica,sans-Serif" font-size="10.00">CA_get_param_size_type_</text>
</a>
</g>
</g>
<!-- Node18&#45;&gt;Node19 -->
<g id="edge19" class="edge">
<title>Node18&#45;&gt;Node19</title>
<path fill="none" stroke="midnightblue" d="M1250.16,-64.41C1273.84,-59.33 1303.11,-53.04 1328.1,-47.68"/>
<polygon fill="midnightblue" stroke="midnightblue" points="1329.11,-51.04 1338.16,-45.52 1327.64,-44.2 1329.11,-51.04"/>
</g>
<!-- Node20&#45;&gt;Node19 -->
<g id="edge23" class="edge">
<title>Node20&#45;&gt;Node19</title>
<path fill="none" stroke="midnightblue" d="M1061.86,-38.48C1073.61,-35.62 1086.35,-32.36 1098,-29 1114.21,-24.33 1117.35,-19.7 1134,-17 1200.53,-6.2 1278.1,-15.58 1328.64,-24.58"/>
<polygon fill="midnightblue" stroke="midnightblue" points="1328.22,-28.06 1338.69,-26.43 1329.49,-21.17 1328.22,-28.06"/>
</g>
<!-- Node21 -->
<g id="node21" class="node">
<title>Node21</title>
<g id="a_node21"><a xlink:href="command__analyze_8c.html#a170772c49fb7883a382a30bd38485a6e" target="_top" xlink:title="コマンドパラメタ数を取得する">
<polygon fill="white" stroke="black" points="1134,-26.5 1134,-45.5 1275,-45.5 1275,-26.5 1134,-26.5"/>
<text text-anchor="middle" x="1204.5" y="-33.5" font-family="Helvetica,sans-Serif" font-size="10.00">CA_get_cmd_param_num</text>
</a>
</g>
</g>
<!-- Node20&#45;&gt;Node21 -->
<g id="edge21" class="edge">
<title>Node20&#45;&gt;Node21</title>
<path fill="none" stroke="midnightblue" d="M1075.55,-44.37C1090.75,-43.37 1107.53,-42.28 1123.8,-41.21"/>
<polygon fill="midnightblue" stroke="midnightblue" points="1124.09,-44.7 1133.84,-40.56 1123.63,-37.72 1124.09,-44.7"/>
</g>
<!-- Node21&#45;&gt;Node19 -->
<g id="edge22" class="edge">
<title>Node21&#45;&gt;Node19</title>
<path fill="none" stroke="midnightblue" d="M1275.2,-36C1283.52,-36 1292.08,-36 1300.55,-36"/>
<polygon fill="midnightblue" stroke="midnightblue" points="1300.83,-39.5 1310.83,-36 1300.83,-32.5 1300.83,-39.5"/>
</g>
<!-- Node24 -->
<g id="node24" class="node">
<title>Node24</title>
<g id="a_node24"><a xlink:href="_t_c_packet_8c.html#a4088b7a1b29268cecc23866a45238fd6" target="_top" xlink:title="Packet Length を取得">
<polygon fill="white" stroke="black" points="962.5,-183.5 962.5,-202.5 1075.5,-202.5 1075.5,-183.5 962.5,-183.5"/>
<text text-anchor="middle" x="1019" y="-190.5" font-family="Helvetica,sans-Serif" font-size="10.00">TCP_get_packet_len</text>
</a>
</g>
</g>
<!-- Node23&#45;&gt;Node24 -->
<g id="edge27" class="edge">
<title>Node23&#45;&gt;Node24</title>
<path fill="none" stroke="midnightblue" d="M888.06,-193C908.28,-193 931.29,-193 952.26,-193"/>
<polygon fill="midnightblue" stroke="midnightblue" points="952.38,-196.5 962.38,-193 952.38,-189.5 952.38,-196.5"/>
</g>
<!-- Node26 -->
<g id="node26" class="node">
<title>Node26</title>
<g id="a_node26"><a xlink:href="event__logger_8c.html#a80a1b60c587d1e3402b02e3bde1db899" target="_top" xlink:title="イベント (EL_Event) を記録">
<polygon fill="white" stroke="black" points="968,-259.5 968,-278.5 1070,-278.5 1070,-259.5 968,-259.5"/>
<text text-anchor="middle" x="1019" y="-266.5" font-family="Helvetica,sans-Serif" font-size="10.00">EL_record_event_</text>
</a>
</g>
</g>
<!-- Node25&#45;&gt;Node26 -->
<g id="edge29" class="edge">
<title>Node25&#45;&gt;Node26</title>
<path fill="none" stroke="midnightblue" d="M879.9,-269C903.65,-269 932.57,-269 957.79,-269"/>
<polygon fill="midnightblue" stroke="midnightblue" points="957.99,-272.5 967.99,-269 957.99,-265.5 957.99,-272.5"/>
</g>
<!-- Node27 -->
<g id="node27" class="node">
<title>Node27</title>
<g id="a_node27"><a xlink:href="event__logger_8c.html#aeae14f21b4e29006f709a61e7de52d67" target="_top" xlink:title="TLog の wp をチェックし， event を生成する">
<polygon fill="white" stroke="black" points="1149.5,-278.5 1149.5,-297.5 1259.5,-297.5 1259.5,-278.5 1149.5,-278.5"/>
<text text-anchor="middle" x="1204.5" y="-285.5" font-family="Helvetica,sans-Serif" font-size="10.00">EL_check_tlog_wp_</text>
</a>
</g>
</g>
<!-- Node26&#45;&gt;Node27 -->
<g id="edge30" class="edge">
<title>Node26&#45;&gt;Node27</title>
<path fill="none" stroke="midnightblue" d="M1070.14,-268.1C1096.75,-269.95 1129.27,-273.35 1155.54,-277.02"/>
<polygon fill="midnightblue" stroke="midnightblue" points="1155.24,-280.51 1165.65,-278.5 1156.26,-273.59 1155.24,-280.51"/>
</g>
<!-- Node28 -->
<g id="node28" class="node">
<title>Node28</title>
<g id="a_node28"><a xlink:href="event__logger_8c.html#a0b42c2f5d1eafdad83481ec6e63365e2" target="_top" xlink:title="イベント (EL_Event) を初期化">
<polygon fill="white" stroke="black" points="1161,-316.5 1161,-335.5 1248,-335.5 1248,-316.5 1161,-316.5"/>
<text text-anchor="middle" x="1204.5" y="-323.5" font-family="Helvetica,sans-Serif" font-size="10.00">EL_init_event_</text>
</a>
</g>
</g>
<!-- Node26&#45;&gt;Node28 -->
<g id="edge32" class="edge">
<title>Node26&#45;&gt;Node28</title>
<path fill="none" stroke="midnightblue" d="M1047.51,-278.64C1070.51,-286.59 1104.25,-297.98 1134,-307 1141.49,-309.27 1149.47,-311.57 1157.26,-313.74"/>
<polygon fill="midnightblue" stroke="midnightblue" points="1156.39,-317.13 1166.96,-316.42 1158.25,-310.38 1156.39,-317.13"/>
</g>
<!-- Node29 -->
<g id="node29" class="node">
<title>Node29</title>
<g id="a_node29"><a xlink:href="event__logger_8c.html#a50ba2fe43a96f7351951a4109227ba6f" target="_top" xlink:title="event_logger の EL_Event.group が有効か？">
<polygon fill="white" stroke="black" points="1144,-240.5 1144,-259.5 1265,-259.5 1265,-240.5 1144,-240.5"/>
<text text-anchor="middle" x="1204.5" y="-247.5" font-family="Helvetica,sans-Serif" font-size="10.00">EL_is_logging_enable</text>
</a>
</g>
</g>
<!-- Node26&#45;&gt;Node29 -->
<g id="edge34" class="edge">
<title>Node26&#45;&gt;Node29</title>
<path fill="none" stroke="midnightblue" d="M1070.14,-263.81C1089.75,-261.78 1112.57,-259.41 1133.74,-257.22"/>
<polygon fill="midnightblue" stroke="midnightblue" points="1134.38,-260.68 1143.97,-256.16 1133.66,-253.71 1134.38,-260.68"/>
</g>
<!-- Node30 -->
<g id="node30" class="node">
<title>Node30</title>
<g id="a_node30"><a xlink:href="event__logger_8c.html#a69fb9dbc85ad467d048f1c9f31d2442c" target="_top" xlink:title="イベント (EL_Event) を CLog に記録">
<polygon fill="white" stroke="black" points="1148.5,-191 1148.5,-221 1260.5,-221 1260.5,-191 1148.5,-191"/>
<text text-anchor="start" x="1156.5" y="-209" font-family="Helvetica,sans-Serif" font-size="10.00">EL_record_event_to</text>
<text text-anchor="middle" x="1204.5" y="-198" font-family="Helvetica,sans-Serif" font-size="10.00">_clog_</text>
</a>
</g>
</g>
<!-- Node26&#45;&gt;Node30 -->
<g id="edge35" class="edge">
<title>Node26&#45;&gt;Node30</title>
<path fill="none" stroke="midnightblue" d="M1067.18,-259.49C1077.48,-256.87 1088.23,-253.7 1098,-250 1114.92,-243.59 1117.45,-238.3 1134,-231 1138.91,-228.83 1144.08,-226.71 1149.28,-224.66"/>
<polygon fill="midnightblue" stroke="midnightblue" points="1150.55,-227.93 1158.64,-221.09 1148.05,-221.39 1150.55,-227.93"/>
</g>
<!-- Node35 -->
<g id="node35" class="node">
<title>Node35</title>
<g id="a_node35"><a xlink:href="event__logger_8c.html#a93cb3659efd373de0856c92b3c08896a" target="_top" xlink:title="イベント (EL_Event) を TLog に記録">
<polygon fill="white" stroke="black" points="1148.5,-103 1148.5,-133 1260.5,-133 1260.5,-103 1148.5,-103"/>
<text text-anchor="start" x="1156.5" y="-121" font-family="Helvetica,sans-Serif" font-size="10.00">EL_record_event_to</text>
<text text-anchor="middle" x="1204.5" y="-110" font-family="Helvetica,sans-Serif" font-size="10.00">_tlog_</text>
</a>
</g>
</g>
<!-- Node26&#45;&gt;Node35 -->
<g id="edge41" class="edge">
<title>Node26&#45;&gt;Node35</title>
<path fill="none" stroke="midnightblue" d="M1070.21,-264.45C1080.34,-261.55 1090.25,-257.01 1098,-250 1133.66,-217.75 1101.19,-183.13 1134,-148 1137.36,-144.41 1141.21,-141.22 1145.36,-138.41"/>
<polygon fill="midnightblue" stroke="midnightblue" points="1147.4,-141.26 1154.19,-133.13 1143.81,-135.25 1147.4,-141.26"/>
</g>
<!-- Node27&#45;&gt;Node26 -->
<g id="edge31" class="edge">
<title>Node27&#45;&gt;Node26</title>
<path fill="none" stroke="midnightblue" d="M1149.17,-288.6C1123.4,-286.7 1092.87,-283.46 1067.97,-279.98"/>
<polygon fill="midnightblue" stroke="midnightblue" points="1068.42,-276.51 1058.02,-278.53 1067.41,-283.44 1068.42,-276.51"/>
</g>
<!-- Node28&#45;&gt;Node7 -->
<g id="edge33" class="edge">
<title>Node28&#45;&gt;Node7</title>
<path fill="none" stroke="midnightblue" d="M1248.35,-335.2C1272.37,-340.36 1302.58,-346.84 1328.24,-352.35"/>
<polygon fill="midnightblue" stroke="midnightblue" points="1327.69,-355.81 1338.2,-354.49 1329.16,-348.97 1327.69,-355.81"/>
</g>
<!-- Node31 -->
<g id="node31" class="node">
<title>Node31</title>
<g id="a_node31"><a xlink:href="event__logger_8c.html#a605a3ff223ddae8830c09ff5aa57cc94" target="_top" xlink:title="該当イベントの CLog を，イベントテーブルの先頭に出す">
<polygon fill="white" stroke="black" points="1324,-229 1324,-259 1443,-259 1443,-229 1324,-229"/>
<text text-anchor="start" x="1332" y="-247" font-family="Helvetica,sans-Serif" font-size="10.00">EL_move_to_front_in</text>
<text text-anchor="middle" x="1383.5" y="-236" font-family="Helvetica,sans-Serif" font-size="10.00">_clog_</text>
</a>
</g>
</g>
<!-- Node30&#45;&gt;Node31 -->
<g id="edge36" class="edge">
<title>Node30&#45;&gt;Node31</title>
<path fill="none" stroke="midnightblue" d="M1260.53,-217.82C1277.33,-221.42 1296.01,-225.43 1313.61,-229.21"/>
<polygon fill="midnightblue" stroke="midnightblue" points="1313.31,-232.72 1323.82,-231.4 1314.78,-225.88 1313.31,-232.72"/>
</g>
<!-- Node34 -->
<g id="node34" class="node">
<title>Node34</title>
<g id="a_node34"><a xlink:href="obc__time_8c.html#a02512f745375636ab21f468838587942" target="_top" xlink:title=" ">
<polygon fill="white" stroke="black" points="1351,-190.5 1351,-209.5 1416,-209.5 1416,-190.5 1351,-190.5"/>
<text text-anchor="middle" x="1383.5" y="-197.5" font-family="Helvetica,sans-Serif" font-size="10.00">OBCT_diff</text>
</a>
</g>
</g>
<!-- Node30&#45;&gt;Node34 -->
<g id="edge40" class="edge">
<title>Node30&#45;&gt;Node34</title>
<path fill="none" stroke="midnightblue" d="M1260.53,-204.13C1286.43,-203.26 1316.82,-202.23 1340.78,-201.41"/>
<polygon fill="midnightblue" stroke="midnightblue" points="1341.09,-204.91 1350.97,-201.07 1340.85,-197.91 1341.09,-204.91"/>
</g>
<!-- Node32 -->
<g id="node32" class="node">
<title>Node32</title>
<g id="a_node32"><a xlink:href="event__logger_8c.html#a60dac03ee61b8b3fb3ac6335babb7209" target="_top" xlink:title="イベントテーブル先頭に該当イベントの CLog をつくる">
<polygon fill="white" stroke="black" points="1492,-174.5 1492,-193.5 1632,-193.5 1632,-174.5 1492,-174.5"/>
<text text-anchor="middle" x="1562" y="-181.5" font-family="Helvetica,sans-Serif" font-size="10.00">EL_create_clog_on_front_</text>
</a>
</g>
</g>
<!-- Node31&#45;&gt;Node32 -->
<g id="edge37" class="edge">
<title>Node31&#45;&gt;Node32</title>
<path fill="none" stroke="midnightblue" d="M1429.04,-228.86C1458.14,-218.97 1495.73,-206.19 1523.35,-196.8"/>
<polygon fill="midnightblue" stroke="midnightblue" points="1524.69,-200.04 1533.03,-193.51 1522.44,-193.41 1524.69,-200.04"/>
</g>
<!-- Node33 -->
<g id="node33" class="node">
<title>Node33</title>
<g id="a_node33"><a xlink:href="event__logger_8c.html#a987cce8c848158cc3038bb59dc100de3" target="_top" xlink:title="該当イベントの CLog を検索し取得する">
<polygon fill="white" stroke="black" points="1514,-234.5 1514,-253.5 1610,-253.5 1610,-234.5 1514,-234.5"/>
<text text-anchor="middle" x="1562" y="-241.5" font-family="Helvetica,sans-Serif" font-size="10.00">EL_search_clog_</text>
</a>
</g>
</g>
<!-- Node31&#45;&gt;Node33 -->
<g id="edge39" class="edge">
<title>Node31&#45;&gt;Node33</title>
<path fill="none" stroke="midnightblue" d="M1443.27,-244C1462.74,-244 1484.37,-244 1503.72,-244"/>
<polygon fill="midnightblue" stroke="midnightblue" points="1503.91,-247.5 1513.91,-244 1503.91,-240.5 1503.91,-247.5"/>
</g>
<!-- Node32&#45;&gt;Node26 -->
<g id="edge38" class="edge">
<title>Node32&#45;&gt;Node26</title>
<path fill="none" stroke="midnightblue" d="M1491.65,-175.13C1386.34,-163.06 1192.17,-146.75 1134,-182 1104.75,-199.72 1124.99,-229 1098,-250 1092.61,-254.2 1086.42,-257.49 1079.93,-260.06"/>
<polygon fill="midnightblue" stroke="midnightblue" points="1078.62,-256.8 1070.28,-263.33 1080.88,-263.43 1078.62,-256.8"/>
</g>
<!-- Node36 -->
<g id="node36" class="node">
<title>Node36</title>
<g id="a_node36"><a xlink:href="event__logger_8c.html#af088469f27d5dfca608a9cacee9fbc17" target="_top" xlink:title="TLog のイベントテーブルの上書きが有効か？">
<polygon fill="white" stroke="black" points="1325,-103 1325,-133 1442,-133 1442,-103 1325,-103"/>
<text text-anchor="start" x="1333" y="-121" font-family="Helvetica,sans-Serif" font-size="10.00">EL_is_tlog_overwrite</text>
<text text-anchor="middle" x="1383.5" y="-110" font-family="Helvetica,sans-Serif" font-size="10.00">_enable</text>
</a>
</g>
</g>
<!-- Node35&#45;&gt;Node36 -->
<g id="edge42" class="edge">
<title>Node35&#45;&gt;Node36</title>
<path fill="none" stroke="midnightblue" d="M1260.53,-118C1277.66,-118 1296.76,-118 1314.66,-118"/>
<polygon fill="midnightblue" stroke="midnightblue" points="1314.74,-121.5 1324.74,-118 1314.74,-114.5 1314.74,-121.5"/>
</g>
<!-- Node38 -->
<g id="node38" class="node">
<title>Node38</title>
<g id="a_node38"><a xlink:href="_t_c_packet_8c.html#a58270c80e8bf611867892b029a0d32f9" target="_top" xlink:title="APID を取得">
<polygon fill="white" stroke="black" points="978,-0.5 978,-19.5 1060,-19.5 1060,-0.5 978,-0.5"/>
<text text-anchor="middle" x="1019" y="-7.5" font-family="Helvetica,sans-Serif" font-size="10.00">TCP_get_apid</text>
</a>
</g>
</g>
<!-- Node37&#45;&gt;Node38 -->
<g id="edge44" class="edge">
<title>Node37&#45;&gt;Node38</title>
<path fill="none" stroke="midnightblue" d="M849.9,-69.4C870.96,-58.41 907.23,-40.45 940,-29 948.89,-25.89 958.52,-23.1 967.88,-20.68"/>
<polygon fill="midnightblue" stroke="midnightblue" points="969.02,-24 977.88,-18.19 967.33,-17.21 969.02,-24"/>
</g>
<!-- Node40 -->
<g id="node40" class="node">
<title>Node40</title>
<g id="a_node40"><a xlink:href="_t_c_packet_8c.html#aeef51e70e41085a34fe5c6629d3cc2ae" target="_top" xlink:title="TCP type を取得">
<polygon fill="white" stroke="black" points="789.5,-107.5 789.5,-126.5 872.5,-126.5 872.5,-107.5 789.5,-107.5"/>
<text text-anchor="middle" x="831" y="-114.5" font-family="Helvetica,sans-Serif" font-size="10.00">TCP_get_type</text>
</a>
</g>
</g>
<!-- Node39&#45;&gt;Node40 -->
<g id="edge46" class="edge">
<title>Node39&#45;&gt;Node40</title>
<path fill="none" stroke="midnightblue" d="M706.26,-145.41C728.55,-140.29 756.15,-133.96 779.62,-128.57"/>
<polygon fill="midnightblue" stroke="midnightblue" points="780.43,-131.97 789.39,-126.32 778.87,-125.15 780.43,-131.97"/>
</g>
<!-- Node41&#45;&gt;Node37 -->
<g id="edge48" class="edge">
<title>Node41&#45;&gt;Node37</title>
<path fill="none" stroke="midnightblue" d="M722.38,-79C738.29,-79 755.54,-79 771.48,-79"/>
<polygon fill="midnightblue" stroke="midnightblue" points="771.74,-82.5 781.74,-79 771.74,-75.5 771.74,-82.5"/>
</g>
<!-- Node43 -->
<g id="node43" class="node">
<title>Node43</title>
<g id="a_node43"><a xlink:href="packet__list_8c.html#a70aad047c68c6c6683a064418c9d566b" target="_top" xlink:title="先頭ノードを落とす">
<polygon fill="white" stroke="black" points="619,-259.5 619,-278.5 708,-278.5 708,-259.5 619,-259.5"/>
<text text-anchor="middle" x="663.5" y="-266.5" font-family="Helvetica,sans-Serif" font-size="10.00">PL_drop_head_</text>
</a>
</g>
</g>
<!-- Node42&#45;&gt;Node43 -->
<g id="edge50" class="edge">
<title>Node42&#45;&gt;Node43</title>
<path fill="none" stroke="midnightblue" d="M555.8,-269C572.66,-269 591.45,-269 608.51,-269"/>
<polygon fill="midnightblue" stroke="midnightblue" points="608.88,-272.5 618.88,-269 608.88,-265.5 608.88,-272.5"/>
</g>
<!-- Node46&#45;&gt;Node9 -->
<g id="edge56" class="edge">
<title>Node46&#45;&gt;Node9</title>
<path fill="none" stroke="midnightblue" d="M375.77,-107.41C401.23,-101.7 433.44,-94.48 459.02,-88.75"/>
<polygon fill="midnightblue" stroke="midnightblue" points="459.83,-92.15 468.82,-86.55 458.3,-85.32 459.83,-92.15"/>
</g>
<!-- Node46&#45;&gt;Node45 -->
<g id="edge57" class="edge">
<title>Node46&#45;&gt;Node45</title>
<path fill="none" stroke="midnightblue" d="M382.03,-117C404.75,-117 431.67,-117 454.29,-117"/>
<polygon fill="midnightblue" stroke="midnightblue" points="454.35,-120.5 464.35,-117 454.35,-113.5 454.35,-120.5"/>
</g>
<!-- Node48 -->
<g id="node48" class="node">
<title>Node48</title>
<g id="a_node48"><a xlink:href="obc__time_8c.html#ac42c1d017a2cbb8dab608771907c97d5" target="_top" xlink:title=" ">
<polygon fill="white" stroke="black" points="442,-25.5 442,-44.5 565,-44.5 565,-25.5 442,-25.5"/>
<text text-anchor="middle" x="503.5" y="-32.5" font-family="Helvetica,sans-Serif" font-size="10.00">OBCT_get_total_cycle</text>
</a>
</g>
</g>
<!-- Node47&#45;&gt;Node48 -->
<g id="edge60" class="edge">
<title>Node47&#45;&gt;Node48</title>
<path fill="none" stroke="midnightblue" d="M399.02,-35C409.73,-35 420.85,-35 431.67,-35"/>
<polygon fill="midnightblue" stroke="midnightblue" points="431.92,-38.5 441.92,-35 431.92,-31.5 431.92,-38.5"/>
</g>
</g>
</svg>
