<?xml version="1.0" encoding="UTF-8" standalone="no"?>
<!DOCTYPE svg PUBLIC "-//W3C//DTD SVG 1.1//EN"
 "http://www.w3.org/Graphics/SVG/1.1/DTD/svg11.dtd">
<!-- Generated by graphviz version 2.43.0 (0)
 -->
<!-- Title: TMGR_get_unixtime_at_ti0 Pages: 1 -->
<svg width="2390pt" height="309pt"
 viewBox="0.00 0.00 2390.00 308.74" xmlns="http://www.w3.org/2000/svg" xmlns:xlink="http://www.w3.org/1999/xlink">
<g id="graph0" class="graph" transform="scale(1 1) rotate(0) translate(4 304.74)">
<title>TMGR_get_unixtime_at_ti0</title>
<polygon fill="white" stroke="transparent" points="-4,4 -4,-304.74 2386,-304.74 2386,4 -4,4"/>
<!-- Node1 -->
<g id="node1" class="node">
<title>Node1</title>
<g id="a_node1"><a xlink:title="unixtime_at_ti0 を取得する">
<polygon fill="#bfbfbf" stroke="black" points="2233,-118.7 2233,-137.7 2382,-137.7 2382,-118.7 2233,-118.7"/>
<text text-anchor="middle" x="2307.5" y="-125.7" font-family="Helvetica,sans-Serif" font-size="10.00">TMGR_get_unixtime_at_ti0</text>
</a>
</g>
</g>
<!-- Node2 -->
<g id="node2" class="node">
<title>Node2</title>
<g id="a_node2"><a xlink:href="telemetry__definitions_8c.html#ae991503d7e5e3ed1bd65797e3fa8622c" target="_top" xlink:title=" ">
<polygon fill="white" stroke="black" points="1924.5,-241.7 1924.5,-260.7 1984.5,-260.7 1984.5,-241.7 1924.5,-241.7"/>
<text text-anchor="middle" x="1954.5" y="-248.7" font-family="Helvetica,sans-Serif" font-size="10.00">Tlm_HK_</text>
</a>
</g>
</g>
<!-- Node1&#45;&gt;Node2 -->
<g id="edge1" class="edge">
<title>Node1&#45;&gt;Node2</title>
<path fill="none" stroke="midnightblue" d="M2285.88,-143.94C2264.67,-159.4 2230.14,-182.59 2197,-196.2 2123.81,-226.27 2031.07,-241.53 1984.7,-247.73"/>
<polygon fill="midnightblue" stroke="midnightblue" points="2288.16,-146.61 2294.11,-137.84 2283.99,-140.98 2288.16,-146.61"/>
</g>
<!-- Node13 -->
<g id="node13" class="node">
<title>Node13</title>
<g id="a_node13"><a xlink:href="time__manager_8h.html#afebc3ea67f394dbda1a349b4fa2d31fd" target="_top" xlink:title="現在の unixtime を OBC の ti をもとに計算して返す">
<polygon fill="white" stroke="black" points="2042,-118.7 2042,-137.7 2197,-137.7 2197,-118.7 2042,-118.7"/>
<text text-anchor="middle" x="2119.5" y="-125.7" font-family="Helvetica,sans-Serif" font-size="10.00">TMGR_get_current_unixtime</text>
</a>
</g>
</g>
<!-- Node1&#45;&gt;Node13 -->
<g id="edge14" class="edge">
<title>Node1&#45;&gt;Node13</title>
<path fill="none" stroke="midnightblue" d="M2222.96,-128.2C2214.37,-128.2 2205.66,-128.2 2197.14,-128.2"/>
<polygon fill="midnightblue" stroke="midnightblue" points="2222.99,-131.7 2232.99,-128.2 2222.99,-124.7 2222.99,-131.7"/>
</g>
<!-- Node14 -->
<g id="node14" class="node">
<title>Node14</title>
<g id="a_node14"><a xlink:href="time__manager_8h.html#a6c28540819ef9469512a845101805438" target="_top" xlink:title="unixtime を ObcTime に変換する">
<polygon fill="white" stroke="black" points="2046.5,-69.2 2046.5,-99.2 2192.5,-99.2 2192.5,-69.2 2046.5,-69.2"/>
<text text-anchor="start" x="2054.5" y="-87.2" font-family="Helvetica,sans-Serif" font-size="10.00">TMGR_get_obc_time_from</text>
<text text-anchor="middle" x="2119.5" y="-76.2" font-family="Helvetica,sans-Serif" font-size="10.00">_unixtime</text>
</a>
</g>
</g>
<!-- Node1&#45;&gt;Node14 -->
<g id="edge15" class="edge">
<title>Node1&#45;&gt;Node14</title>
<path fill="none" stroke="midnightblue" d="M2256.26,-116.32C2234.07,-111.07 2207.73,-104.84 2184.19,-99.27"/>
<polygon fill="midnightblue" stroke="midnightblue" points="2255.6,-119.76 2266.14,-118.66 2257.22,-112.95 2255.6,-119.76"/>
</g>
<!-- Node15 -->
<g id="node15" class="node">
<title>Node15</title>
<g id="a_node15"><a xlink:href="time__manager_8h.html#adb6317bb3e7f3896ae0f4bd41f8c531b" target="_top" xlink:title="引数で指定された utl_unixtime に対応する TI を返す">
<polygon fill="white" stroke="black" points="2057,-157.2 2057,-187.2 2182,-187.2 2182,-157.2 2057,-157.2"/>
<text text-anchor="start" x="2065" y="-175.2" font-family="Helvetica,sans-Serif" font-size="10.00">TMGR_get_ti_from_utl</text>
<text text-anchor="middle" x="2119.5" y="-164.2" font-family="Helvetica,sans-Serif" font-size="10.00">_unixtime</text>
</a>
</g>
</g>
<!-- Node1&#45;&gt;Node15 -->
<g id="edge16" class="edge">
<title>Node1&#45;&gt;Node15</title>
<path fill="none" stroke="midnightblue" d="M2256.3,-140.08C2233.42,-145.49 2206.11,-151.95 2182.01,-157.65"/>
<polygon fill="midnightblue" stroke="midnightblue" points="2257.22,-143.46 2266.14,-137.75 2255.6,-136.65 2257.22,-143.46"/>
</g>
<!-- Node33 -->
<g id="node33" class="node">
<title>Node33</title>
<g id="a_node33"><a xlink:href="time__manager_8h.html#a8b7c8185e427826dfa88140833410499" target="_top" xlink:title="ObcTime を unixtime に変換する">
<polygon fill="white" stroke="black" points="2047.5,-20.2 2047.5,-50.2 2191.5,-50.2 2191.5,-20.2 2047.5,-20.2"/>
<text text-anchor="start" x="2055.5" y="-38.2" font-family="Helvetica,sans-Serif" font-size="10.00">TMGR_get_unixtime_from</text>
<text text-anchor="middle" x="2119.5" y="-27.2" font-family="Helvetica,sans-Serif" font-size="10.00">_obc_time</text>
</a>
</g>
</g>
<!-- Node1&#45;&gt;Node33 -->
<g id="edge41" class="edge">
<title>Node1&#45;&gt;Node33</title>
<path fill="none" stroke="midnightblue" d="M2285.32,-112.52C2263.92,-97.26 2229.48,-74.22 2197,-59.2 2189.92,-55.93 2182.28,-52.94 2174.66,-50.27"/>
<polygon fill="midnightblue" stroke="midnightblue" points="2283.49,-115.52 2293.65,-118.54 2287.59,-109.85 2283.49,-115.52"/>
</g>
<!-- Node3 -->
<g id="node3" class="node">
<title>Node3</title>
<g id="a_node3"><a xlink:href="telemetry__definitions_8c.html#a91def2fbe43510d233815f51bfa65268" target="_top" xlink:title="Tlm Tableのロード">
<polygon fill="white" stroke="black" points="1745,-244.7 1745,-263.7 1852,-263.7 1852,-244.7 1745,-244.7"/>
<text text-anchor="middle" x="1798.5" y="-251.7" font-family="Helvetica,sans-Serif" font-size="10.00">TF_load_tlm_table</text>
</a>
</g>
</g>
<!-- Node2&#45;&gt;Node3 -->
<g id="edge2" class="edge">
<title>Node2&#45;&gt;Node3</title>
<path fill="none" stroke="midnightblue" d="M1914.15,-251.97C1895.29,-252.34 1872.43,-252.78 1852.1,-253.18"/>
<polygon fill="midnightblue" stroke="midnightblue" points="1914.24,-255.47 1924.17,-251.78 1914.1,-248.47 1914.24,-255.47"/>
</g>
<!-- Node4 -->
<g id="node4" class="node">
<title>Node4</title>
<g id="a_node4"><a xlink:href="telemetry__frame_8h.html#a76cf4c72318af4ce953abdb8b522e787" target="_top" xlink:title="TF の初期化">
<polygon fill="white" stroke="black" points="1046,-247.7 1046,-266.7 1122,-266.7 1122,-247.7 1046,-247.7"/>
<text text-anchor="middle" x="1084" y="-254.7" font-family="Helvetica,sans-Serif" font-size="10.00">TF_initialize</text>
</a>
</g>
</g>
<!-- Node3&#45;&gt;Node4 -->
<g id="edge3" class="edge">
<title>Node3&#45;&gt;Node4</title>
<path fill="none" stroke="midnightblue" d="M1734.78,-254.47C1590.28,-255.08 1237.48,-256.56 1122.15,-257.05"/>
<polygon fill="midnightblue" stroke="midnightblue" points="1734.83,-257.97 1744.82,-254.43 1734.8,-250.97 1734.83,-257.97"/>
</g>
<!-- Node5 -->
<g id="node5" class="node">
<title>Node5</title>
<g id="a_node5"><a xlink:href="c2a__core__main_8h.html#a65ecdc63d8762ffde4db7f6c6e6f07cf" target="_top" xlink:title=" ">
<polygon fill="white" stroke="black" points="330,-259.7 330,-278.7 413,-278.7 413,-259.7 330,-259.7"/>
<text text-anchor="middle" x="371.5" y="-266.7" font-family="Helvetica,sans-Serif" font-size="10.00">C2A_core_init</text>
</a>
</g>
</g>
<!-- Node4&#45;&gt;Node5 -->
<g id="edge4" class="edge">
<title>Node4&#45;&gt;Node5</title>
<path fill="none" stroke="midnightblue" d="M1055.82,-271.39C1038.61,-279.55 1015.61,-289 994,-293.2 935.15,-304.66 557.94,-302.3 449,-288.2 433.94,-286.25 417.55,-282.42 403.83,-278.71"/>
<polygon fill="midnightblue" stroke="midnightblue" points="1057.78,-274.32 1065.22,-266.78 1054.7,-268.04 1057.78,-274.32"/>
</g>
<!-- Node9 -->
<g id="node9" class="node">
<title>Node9</title>
<g id="a_node9"><a xlink:href="telemetry__frame_8h.html#a973c2d15770fc32fed2f9053c1b82c9f" target="_top" xlink:title=" ">
<polygon fill="white" stroke="black" points="860,-215.7 860,-234.7 941,-234.7 941,-215.7 860,-215.7"/>
<text text-anchor="middle" x="900.5" y="-222.7" font-family="Helvetica,sans-Serif" font-size="10.00">Cmd_TF_INIT</text>
</a>
</g>
</g>
<!-- Node4&#45;&gt;Node9 -->
<g id="edge8" class="edge">
<title>Node4&#45;&gt;Node9</title>
<path fill="none" stroke="midnightblue" d="M1035.79,-248.88C1006.39,-243.7 968.99,-237.1 941.13,-232.19"/>
<polygon fill="midnightblue" stroke="midnightblue" points="1035.38,-252.36 1045.83,-250.65 1036.59,-245.47 1035.38,-252.36"/>
</g>
<!-- Node6 -->
<g id="node6" class="node">
<title>Node6</title>
<g id="a_node6"><a xlink:href="c2a__main_8c.html#a630222a80cd8bffd4426d4a55a215069" target="_top" xlink:title=" ">
<polygon fill="white" stroke="black" points="232,-259.7 232,-278.7 294,-278.7 294,-259.7 232,-259.7"/>
<text text-anchor="middle" x="263" y="-266.7" font-family="Helvetica,sans-Serif" font-size="10.00">C2A_init_</text>
</a>
</g>
</g>
<!-- Node5&#45;&gt;Node6 -->
<g id="edge5" class="edge">
<title>Node5&#45;&gt;Node6</title>
<path fill="none" stroke="midnightblue" d="M319.76,-269.2C311.01,-269.2 302.17,-269.2 294.18,-269.2"/>
<polygon fill="midnightblue" stroke="midnightblue" points="319.93,-272.7 329.93,-269.2 319.93,-265.7 319.93,-272.7"/>
</g>
<!-- Node7 -->
<g id="node7" class="node">
<title>Node7</title>
<g id="a_node7"><a xlink:href="c2a__main_8c.html#ac3344a311adda8f9e7310924bedf81fc" target="_top" xlink:title=" ">
<polygon fill="white" stroke="black" points="77,-259.7 77,-278.7 196,-278.7 196,-259.7 77,-259.7"/>
<text text-anchor="middle" x="136.5" y="-266.7" font-family="Helvetica,sans-Serif" font-size="10.00">address_fixed_main_</text>
</a>
</g>
</g>
<!-- Node6&#45;&gt;Node7 -->
<g id="edge6" class="edge">
<title>Node6&#45;&gt;Node7</title>
<path fill="none" stroke="midnightblue" d="M221.83,-269.2C213.62,-269.2 204.82,-269.2 196.12,-269.2"/>
<polygon fill="midnightblue" stroke="midnightblue" points="221.86,-272.7 231.86,-269.2 221.86,-265.7 221.86,-272.7"/>
</g>
<!-- Node8 -->
<g id="node8" class="node">
<title>Node8</title>
<g id="a_node8"><a xlink:href="c2a__main_8c.html#a840291bc02cba5474a4cb46a9b9566fe" target="_top" xlink:title=" ">
<polygon fill="white" stroke="black" points="0,-259.7 0,-278.7 41,-278.7 41,-259.7 0,-259.7"/>
<text text-anchor="middle" x="20.5" y="-266.7" font-family="Helvetica,sans-Serif" font-size="10.00">main</text>
</a>
</g>
</g>
<!-- Node7&#45;&gt;Node8 -->
<g id="edge7" class="edge">
<title>Node7&#45;&gt;Node8</title>
<path fill="none" stroke="midnightblue" d="M66.64,-269.2C57.37,-269.2 48.53,-269.2 41.18,-269.2"/>
<polygon fill="midnightblue" stroke="midnightblue" points="66.83,-272.7 76.83,-269.2 66.83,-265.7 66.83,-272.7"/>
</g>
<!-- Node10 -->
<g id="node10" class="node">
<title>Node10</title>
<g id="a_node10"><a xlink:href="command__definitions_8c.html#aa375895192b16d8e7f0ff4545b54e6c4" target="_top" xlink:title="Cmd Tableのロード">
<polygon fill="white" stroke="black" points="638.5,-139.7 638.5,-158.7 751.5,-158.7 751.5,-139.7 638.5,-139.7"/>
<text text-anchor="middle" x="695" y="-146.7" font-family="Helvetica,sans-Serif" font-size="10.00">CA_load_cmd_table</text>
</a>
</g>
</g>
<!-- Node9&#45;&gt;Node10 -->
<g id="edge9" class="edge">
<title>Node9&#45;&gt;Node10</title>
<path fill="none" stroke="midnightblue" d="M849.72,-217.56C835.69,-214.71 820.56,-210.98 807,-206.2 771.04,-193.54 732.06,-171.35 711.21,-158.71"/>
<polygon fill="midnightblue" stroke="midnightblue" points="849.22,-221.03 859.7,-219.47 850.54,-214.15 849.22,-221.03"/>
</g>
<!-- Node11 -->
<g id="node11" class="node">
<title>Node11</title>
<g id="a_node11"><a xlink:href="command__analyze_8h.html#ae6d1f376bf4e1c9c4b63bc3f04924c8a" target="_top" xlink:title="CA の初期化">
<polygon fill="white" stroke="black" points="477.5,-177.7 477.5,-196.7 554.5,-196.7 554.5,-177.7 477.5,-177.7"/>
<text text-anchor="middle" x="516" y="-184.7" font-family="Helvetica,sans-Serif" font-size="10.00">CA_initialize</text>
</a>
</g>
</g>
<!-- Node10&#45;&gt;Node11 -->
<g id="edge10" class="edge">
<title>Node10&#45;&gt;Node11</title>
<path fill="none" stroke="midnightblue" d="M639.48,-160.91C612.02,-166.8 579.42,-173.8 554.76,-179.1"/>
<polygon fill="midnightblue" stroke="midnightblue" points="640.29,-164.31 649.34,-158.79 638.82,-157.47 640.29,-164.31"/>
</g>
<!-- Node11&#45;&gt;Node5 -->
<g id="edge11" class="edge">
<title>Node11&#45;&gt;Node5</title>
<path fill="none" stroke="midnightblue" d="M489.61,-201.82C460.53,-218.55 413.73,-245.48 389.02,-259.7"/>
<polygon fill="midnightblue" stroke="midnightblue" points="491.45,-204.79 498.37,-196.77 487.96,-198.72 491.45,-204.79"/>
</g>
<!-- Node12 -->
<g id="node12" class="node">
<title>Node12</title>
<g id="a_node12"><a xlink:href="command__analyze_8h.html#aee45638c6cff2c25a997905b209079d0" target="_top" xlink:title=" ">
<polygon fill="white" stroke="black" points="330,-158.7 330,-177.7 413,-177.7 413,-158.7 330,-158.7"/>
<text text-anchor="middle" x="371.5" y="-165.7" font-family="Helvetica,sans-Serif" font-size="10.00">Cmd_CA_INIT</text>
</a>
</g>
</g>
<!-- Node11&#45;&gt;Node12 -->
<g id="edge12" class="edge">
<title>Node11&#45;&gt;Node12</title>
<path fill="none" stroke="midnightblue" d="M467.17,-180.83C449.67,-178.49 430.06,-175.88 413.24,-173.64"/>
<polygon fill="midnightblue" stroke="midnightblue" points="466.81,-184.31 477.19,-182.16 467.74,-177.37 466.81,-184.31"/>
</g>
<!-- Node12&#45;&gt;Node10 -->
<g id="edge13" class="edge">
<title>Node12&#45;&gt;Node10</title>
<path fill="none" stroke="midnightblue" d="M423.34,-165.2C481.91,-161.74 577.84,-156.07 638.37,-152.49"/>
<polygon fill="midnightblue" stroke="midnightblue" points="422.98,-161.71 413.2,-165.8 423.39,-168.7 422.98,-161.71"/>
</g>
<!-- Node16 -->
<g id="node16" class="node">
<title>Node16</title>
<g id="a_node16"><a xlink:href="packet__handler_8c.html#ae2142bcb006e578dcf3c557a2e4e43ae" target="_top" xlink:title="UTL_cmd を TL_cmd に変換して tl_cmd_list に追加する">
<polygon fill="white" stroke="black" points="1903,-156.7 1903,-175.7 2006,-175.7 2006,-156.7 1903,-156.7"/>
<text text-anchor="middle" x="1954.5" y="-163.7" font-family="Helvetica,sans-Serif" font-size="10.00">PH_add_utl_cmd_</text>
</a>
</g>
</g>
<!-- Node15&#45;&gt;Node16 -->
<g id="edge17" class="edge">
<title>Node15&#45;&gt;Node16</title>
<path fill="none" stroke="midnightblue" d="M2046.54,-169.55C2032.89,-169.05 2018.88,-168.54 2006.07,-168.07"/>
<polygon fill="midnightblue" stroke="midnightblue" points="2046.75,-173.07 2056.88,-169.94 2047.01,-166.07 2046.75,-173.07"/>
</g>
<!-- Node17 -->
<g id="node17" class="node">
<title>Node17</title>
<g id="a_node17"><a xlink:href="packet__handler_8h.html#a9d16c8b958f0f983cf15674d6c528b02" target="_top" xlink:title="CCP を解析する">
<polygon fill="white" stroke="black" points="1730,-91.7 1730,-110.7 1867,-110.7 1867,-91.7 1730,-91.7"/>
<text text-anchor="middle" x="1798.5" y="-98.7" font-family="Helvetica,sans-Serif" font-size="10.00">PH_analyze_cmd_packet</text>
</a>
</g>
</g>
<!-- Node16&#45;&gt;Node17 -->
<g id="edge18" class="edge">
<title>Node16&#45;&gt;Node17</title>
<path fill="none" stroke="midnightblue" d="M1921.27,-152.6C1891.56,-140.06 1848.23,-121.77 1822.07,-110.73"/>
<polygon fill="midnightblue" stroke="midnightblue" points="1920.2,-155.95 1930.78,-156.61 1922.92,-149.5 1920.2,-155.95"/>
</g>
<!-- Node18 -->
<g id="node18" class="node">
<title>Node18</title>
<g id="a_node18"><a xlink:href="telemetry__manager_8h.html#a923d6ea9078726984798c4b0800381fe" target="_top" xlink:title="TLM送出用TLをクリア">
<polygon fill="white" stroke="black" points="1332,-6.7 1332,-25.7 1504,-25.7 1504,-6.7 1332,-6.7"/>
<text text-anchor="middle" x="1418" y="-13.7" font-family="Helvetica,sans-Serif" font-size="10.00">Cmd_TLM_MGR_CLEAR_TLM_TL</text>
</a>
</g>
</g>
<!-- Node17&#45;&gt;Node18 -->
<g id="edge19" class="edge">
<title>Node17&#45;&gt;Node18</title>
<path fill="none" stroke="midnightblue" d="M1781.47,-84.49C1762.56,-66.05 1729.21,-37.38 1694,-25.2 1630.35,-3.18 1553.39,-2.69 1497.09,-6.69"/>
<polygon fill="midnightblue" stroke="midnightblue" points="1779.11,-87.08 1788.65,-91.69 1784.07,-82.14 1779.11,-87.08"/>
</g>
<!-- Node19 -->
<g id="node19" class="node">
<title>Node19</title>
<g id="a_node19"><a xlink:href="telemetry__manager_8h.html#ad6f65df0da86f70cbd0f5b1e6cb32dbc" target="_top" xlink:title="TLM送出開始">
<polygon fill="white" stroke="black" points="1540,-72.7 1540,-91.7 1694,-91.7 1694,-72.7 1540,-72.7"/>
<text text-anchor="middle" x="1617" y="-79.7" font-family="Helvetica,sans-Serif" font-size="10.00">Cmd_TLM_MGR_START_TLM</text>
</a>
</g>
</g>
<!-- Node17&#45;&gt;Node19 -->
<g id="edge21" class="edge">
<title>Node17&#45;&gt;Node19</title>
<path fill="none" stroke="midnightblue" d="M1719.7,-92.97C1711.27,-92.08 1702.69,-91.17 1694.27,-90.28"/>
<polygon fill="midnightblue" stroke="midnightblue" points="1719.58,-96.48 1729.89,-94.05 1720.32,-89.51 1719.58,-96.48"/>
</g>
<!-- Node20 -->
<g id="node20" class="node">
<title>Node20</title>
<g id="a_node20"><a xlink:href="divided__cmd__utility_8h.html#a65ad0b8aa0af1c9c0bdd74aa37b15b15" target="_top" xlink:title="次の分割の実行を登録">
<polygon fill="white" stroke="black" points="1030,-110.7 1030,-129.7 1138,-129.7 1138,-110.7 1030,-110.7"/>
<text text-anchor="middle" x="1084" y="-117.7" font-family="Helvetica,sans-Serif" font-size="10.00">DCU_register_next</text>
</a>
</g>
</g>
<!-- Node17&#45;&gt;Node20 -->
<g id="edge23" class="edge">
<title>Node17&#45;&gt;Node20</title>
<path fill="none" stroke="midnightblue" d="M1719.62,-103.28C1573.77,-107.17 1262.97,-115.46 1138.34,-118.78"/>
<polygon fill="midnightblue" stroke="midnightblue" points="1719.92,-106.77 1729.83,-103.01 1719.74,-99.78 1719.92,-106.77"/>
</g>
<!-- Node23 -->
<g id="node23" class="node">
<title>Node23</title>
<g id="a_node23"><a xlink:href="gs_8c.html#a71a6268f1b467c60429c671e47e51e1d" target="_top" xlink:title="地上からの受信データ解析関数">
<polygon fill="white" stroke="black" points="1554,-151.7 1554,-170.7 1680,-170.7 1680,-151.7 1554,-151.7"/>
<text text-anchor="middle" x="1617" y="-158.7" font-family="Helvetica,sans-Serif" font-size="10.00">GS_analyze_rec_data_</text>
</a>
</g>
</g>
<!-- Node17&#45;&gt;Node23 -->
<g id="edge28" class="edge">
<title>Node17&#45;&gt;Node23</title>
<path fill="none" stroke="midnightblue" d="M1759.53,-113.9C1725.77,-125.18 1677.17,-141.43 1646.61,-151.64"/>
<polygon fill="midnightblue" stroke="midnightblue" points="1760.68,-117.2 1769.06,-110.71 1758.46,-110.56 1760.68,-117.2"/>
</g>
<!-- Node32 -->
<g id="node32" class="node">
<title>Node32</title>
<g id="a_node32"><a xlink:href="packet__handler_8h.html#acf757fa72967bf66b39dc5ced7132330" target="_top" xlink:title="CTCP を解析する">
<polygon fill="white" stroke="black" points="1561.5,-34.7 1561.5,-53.7 1672.5,-53.7 1672.5,-34.7 1561.5,-34.7"/>
<text text-anchor="middle" x="1617" y="-41.7" font-family="Helvetica,sans-Serif" font-size="10.00">PH_analyze_packet</text>
</a>
</g>
</g>
<!-- Node17&#45;&gt;Node32 -->
<g id="edge40" class="edge">
<title>Node17&#45;&gt;Node32</title>
<path fill="none" stroke="midnightblue" d="M1764.14,-87.92C1744.01,-80.17 1717.74,-70.51 1694,-63.2 1682.95,-59.8 1670.86,-56.57 1659.64,-53.76"/>
<polygon fill="midnightblue" stroke="midnightblue" points="1762.9,-91.2 1773.49,-91.56 1765.44,-84.67 1762.9,-91.2"/>
</g>
<!-- Node18&#45;&gt;Node10 -->
<g id="edge20" class="edge">
<title>Node18&#45;&gt;Node10</title>
<path fill="none" stroke="midnightblue" d="M1323.48,-5.84C1200.38,4.07 979.42,8.83 807,-59.2 761.77,-77.05 720.73,-120.33 703.98,-139.63"/>
<polygon fill="midnightblue" stroke="midnightblue" points="1323.37,-9.35 1333.63,-6.69 1323.95,-2.37 1323.37,-9.35"/>
</g>
<!-- Node19&#45;&gt;Node10 -->
<g id="edge22" class="edge">
<title>Node19&#45;&gt;Node10</title>
<path fill="none" stroke="midnightblue" d="M1529.82,-79C1452.81,-76.41 1336.89,-73.2 1236,-73.2 1236,-73.2 1236,-73.2 1083,-73.2 960.04,-73.2 925.45,-59.22 807,-92.2 769.64,-102.61 730.26,-126.33 709.95,-139.66"/>
<polygon fill="midnightblue" stroke="midnightblue" points="1529.84,-82.5 1539.95,-79.34 1530.07,-75.51 1529.84,-82.5"/>
</g>
<!-- Node21 -->
<g id="node21" class="node">
<title>Node21</title>
<g id="a_node21"><a xlink:href="telemetry__manager_8h.html#af76453743bae7b361005376190100cbf" target="_top" xlink:title="high_freq_tlm, low_freq_tlm を初期化">
<polygon fill="white" stroke="black" points="807,-101.7 807,-120.7 994,-120.7 994,-101.7 807,-101.7"/>
<text text-anchor="middle" x="900.5" y="-108.7" font-family="Helvetica,sans-Serif" font-size="10.00">Cmd_TLM_MGR_CLEAR_USER_TLM</text>
</a>
</g>
</g>
<!-- Node20&#45;&gt;Node21 -->
<g id="edge24" class="edge">
<title>Node20&#45;&gt;Node21</title>
<path fill="none" stroke="midnightblue" d="M1019.34,-117.05C1011.15,-116.64 1002.63,-116.22 994.09,-115.79"/>
<polygon fill="midnightblue" stroke="midnightblue" points="1019.36,-120.55 1029.53,-117.55 1019.71,-113.56 1019.36,-120.55"/>
</g>
<!-- Node22 -->
<g id="node22" class="node">
<title>Node22</title>
<g id="a_node22"><a xlink:href="telemetry__manager_8h.html#a19d6e76042721fe9e576dbacaf49b365" target="_top" xlink:title="初期化">
<polygon fill="white" stroke="black" points="841.5,-139.7 841.5,-158.7 959.5,-158.7 959.5,-139.7 841.5,-139.7"/>
<text text-anchor="middle" x="900.5" y="-146.7" font-family="Helvetica,sans-Serif" font-size="10.00">Cmd_TLM_MGR_INIT</text>
</a>
</g>
</g>
<!-- Node20&#45;&gt;Node22 -->
<g id="edge26" class="edge">
<title>Node20&#45;&gt;Node22</title>
<path fill="none" stroke="midnightblue" d="M1019.54,-130.34C1000.07,-133.45 978.76,-136.86 959.66,-139.91"/>
<polygon fill="midnightblue" stroke="midnightblue" points="1020.2,-133.78 1029.53,-128.75 1019.1,-126.87 1020.2,-133.78"/>
</g>
<!-- Node21&#45;&gt;Node10 -->
<g id="edge25" class="edge">
<title>Node21&#45;&gt;Node10</title>
<path fill="none" stroke="midnightblue" d="M838.35,-122.62C809.24,-128.06 774.81,-134.49 747.11,-139.66"/>
<polygon fill="midnightblue" stroke="midnightblue" points="839.22,-126.02 848.41,-120.74 837.94,-119.14 839.22,-126.02"/>
</g>
<!-- Node22&#45;&gt;Node10 -->
<g id="edge27" class="edge">
<title>Node22&#45;&gt;Node10</title>
<path fill="none" stroke="midnightblue" d="M831.34,-149.2C805.44,-149.2 776.27,-149.2 751.67,-149.2"/>
<polygon fill="midnightblue" stroke="midnightblue" points="831.46,-152.7 841.46,-149.2 831.46,-145.7 831.46,-152.7"/>
</g>
<!-- Node24 -->
<g id="node24" class="node">
<title>Node24</title>
<g id="a_node24"><a xlink:href="gs_8c.html#a77d8b5e22b2b2615c9046060e50a3308" target="_top" xlink:title="上記初期化の共通部分をまとめた関数">
<polygon fill="white" stroke="black" points="1353,-149.2 1353,-179.2 1483,-179.2 1483,-149.2 1353,-149.2"/>
<text text-anchor="start" x="1361" y="-167.2" font-family="Helvetica,sans-Serif" font-size="10.00">GS_load_default_driver</text>
<text text-anchor="middle" x="1418" y="-156.2" font-family="Helvetica,sans-Serif" font-size="10.00">_super_init_settings_</text>
</a>
</g>
</g>
<!-- Node23&#45;&gt;Node24 -->
<g id="edge29" class="edge">
<title>Node23&#45;&gt;Node24</title>
<path fill="none" stroke="midnightblue" d="M1543.72,-162.3C1523.87,-162.61 1502.48,-162.93 1483.13,-163.23"/>
<polygon fill="midnightblue" stroke="midnightblue" points="1543.99,-165.8 1553.94,-162.15 1543.89,-158.8 1543.99,-165.8"/>
</g>
<!-- Node25 -->
<g id="node25" class="node">
<title>Node25</title>
<g id="a_node25"><a xlink:href="gs_8c.html#a4621f4390191b12c281982f635516f67" target="_top" xlink:title="CCSDS 側 Driver の DS 上での初期化設定">
<polygon fill="white" stroke="black" points="1174,-198.2 1174,-228.2 1296,-228.2 1296,-198.2 1174,-198.2"/>
<text text-anchor="start" x="1182" y="-216.2" font-family="Helvetica,sans-Serif" font-size="10.00">GS_load_ccsds_driver</text>
<text text-anchor="middle" x="1235" y="-205.2" font-family="Helvetica,sans-Serif" font-size="10.00">_super_init_settings_</text>
</a>
</g>
</g>
<!-- Node24&#45;&gt;Node25 -->
<g id="edge30" class="edge">
<title>Node24&#45;&gt;Node25</title>
<path fill="none" stroke="midnightblue" d="M1351.44,-181.95C1331.82,-187.26 1310.51,-193.03 1291.6,-198.15"/>
<polygon fill="midnightblue" stroke="midnightblue" points="1352.48,-185.3 1361.22,-179.31 1350.65,-178.54 1352.48,-185.3"/>
</g>
<!-- Node31 -->
<g id="node31" class="node">
<title>Node31</title>
<g id="a_node31"><a xlink:href="gs_8c.html#a940de224a6d318a15603b46983cf69ea" target="_top" xlink:title="UART 側 Driver の DS 上での初期化設定">
<polygon fill="white" stroke="black" points="1175.5,-149.2 1175.5,-179.2 1294.5,-179.2 1294.5,-149.2 1175.5,-149.2"/>
<text text-anchor="start" x="1183.5" y="-167.2" font-family="Helvetica,sans-Serif" font-size="10.00">GS_load_uart_driver</text>
<text text-anchor="middle" x="1235" y="-156.2" font-family="Helvetica,sans-Serif" font-size="10.00">_super_init_settings_</text>
</a>
</g>
</g>
<!-- Node24&#45;&gt;Node31 -->
<g id="edge38" class="edge">
<title>Node24&#45;&gt;Node31</title>
<path fill="none" stroke="midnightblue" d="M1342.54,-164.2C1326.53,-164.2 1309.84,-164.2 1294.54,-164.2"/>
<polygon fill="midnightblue" stroke="midnightblue" points="1342.93,-167.7 1352.93,-164.2 1342.93,-160.7 1342.93,-167.7"/>
</g>
<!-- Node26 -->
<g id="node26" class="node">
<title>Node26</title>
<g id="a_node26"><a xlink:href="gs_8h.html#a3cda832b6c75f514dfb566fa49b59127" target="_top" xlink:title="Driver の初期化">
<polygon fill="white" stroke="black" points="1058.5,-190.7 1058.5,-209.7 1109.5,-209.7 1109.5,-190.7 1058.5,-190.7"/>
<text text-anchor="middle" x="1084" y="-197.7" font-family="Helvetica,sans-Serif" font-size="10.00">GS_init</text>
</a>
</g>
</g>
<!-- Node25&#45;&gt;Node26 -->
<g id="edge31" class="edge">
<title>Node25&#45;&gt;Node26</title>
<path fill="none" stroke="midnightblue" d="M1163.74,-207.07C1144.32,-205.38 1124.52,-203.65 1109.63,-202.35"/>
<polygon fill="midnightblue" stroke="midnightblue" points="1163.56,-210.57 1173.83,-207.95 1164.17,-203.6 1163.56,-210.57"/>
</g>
<!-- Node27 -->
<g id="node27" class="node">
<title>Node27</title>
<g id="a_node27"><a xlink:href="di__gs_8h.html#ad984c5e8f91942178a36dd46ce0d8a07" target="_top" xlink:title=" ">
<polygon fill="white" stroke="black" points="824.5,-177.7 824.5,-196.7 976.5,-196.7 976.5,-177.7 824.5,-177.7"/>
<text text-anchor="middle" x="900.5" y="-184.7" font-family="Helvetica,sans-Serif" font-size="10.00">Cmd_DI_GS_DRIVER_RESET</text>
</a>
</g>
</g>
<!-- Node26&#45;&gt;Node27 -->
<g id="edge32" class="edge">
<title>Node26&#45;&gt;Node27</title>
<path fill="none" stroke="midnightblue" d="M1048.12,-197.71C1027.82,-196.25 1001.4,-194.36 976.6,-192.58"/>
<polygon fill="midnightblue" stroke="midnightblue" points="1047.92,-201.2 1058.14,-198.42 1048.42,-194.22 1047.92,-201.2"/>
</g>
<!-- Node28 -->
<g id="node28" class="node">
<title>Node28</title>
<g id="a_node28"><a xlink:href="di__gs_8c.html#aac505df7423e0f4abedbc661040be341" target="_top" xlink:title=" ">
<polygon fill="white" stroke="black" points="824.5,-254.2 824.5,-284.2 976.5,-284.2 976.5,-254.2 824.5,-254.2"/>
<text text-anchor="start" x="832.5" y="-272.2" font-family="Helvetica,sans-Serif" font-size="10.00">DI_GS_cmd_packet_handler</text>
<text text-anchor="middle" x="900.5" y="-261.2" font-family="Helvetica,sans-Serif" font-size="10.00">_init_</text>
</a>
</g>
</g>
<!-- Node26&#45;&gt;Node28 -->
<g id="edge34" class="edge">
<title>Node26&#45;&gt;Node28</title>
<path fill="none" stroke="midnightblue" d="M1057.06,-214.71C1039.62,-224.04 1015.9,-235.92 994,-244.2 984.35,-247.85 973.95,-251.2 963.73,-254.18"/>
<polygon fill="midnightblue" stroke="midnightblue" points="1058.93,-217.68 1066.05,-209.83 1055.59,-211.52 1058.93,-217.68"/>
</g>
<!-- Node27&#45;&gt;Node10 -->
<g id="edge33" class="edge">
<title>Node27&#45;&gt;Node10</title>
<path fill="none" stroke="midnightblue" d="M838.35,-175.79C809.24,-170.35 774.81,-163.92 747.11,-158.75"/>
<polygon fill="midnightblue" stroke="midnightblue" points="837.94,-179.27 848.41,-177.66 839.22,-172.39 837.94,-179.27"/>
</g>
<!-- Node29 -->
<g id="node29" class="node">
<title>Node29</title>
<g id="a_node29"><a xlink:href="di__gs_8h.html#a9db482e4676bf373c0f84561058f1f91" target="_top" xlink:title=" ">
<polygon fill="white" stroke="black" points="619,-259.7 619,-278.7 771,-278.7 771,-259.7 619,-259.7"/>
<text text-anchor="middle" x="695" y="-266.7" font-family="Helvetica,sans-Serif" font-size="10.00">DI_GS_cmd_packet_handler</text>
</a>
</g>
</g>
<!-- Node28&#45;&gt;Node29 -->
<g id="edge35" class="edge">
<title>Node28&#45;&gt;Node29</title>
<path fill="none" stroke="midnightblue" d="M814.04,-269.2C799.82,-269.2 785.17,-269.2 771.23,-269.2"/>
<polygon fill="midnightblue" stroke="midnightblue" points="814.3,-272.7 824.3,-269.2 814.3,-265.7 814.3,-272.7"/>
</g>
<!-- Node30 -->
<g id="node30" class="node">
<title>Node30</title>
<g id="a_node30"><a xlink:href="app__registry_8h.html#ab944b1d78a41e427bc2ed57f9c4e9534" target="_top" xlink:title=" ">
<polygon fill="white" stroke="black" points="449,-259.7 449,-278.7 583,-278.7 583,-259.7 449,-259.7"/>
<text text-anchor="middle" x="516" y="-266.7" font-family="Helvetica,sans-Serif" font-size="10.00">AR_load_initial_settings</text>
</a>
</g>
</g>
<!-- Node29&#45;&gt;Node30 -->
<g id="edge36" class="edge">
<title>Node29&#45;&gt;Node30</title>
<path fill="none" stroke="midnightblue" d="M608.86,-269.2C600.24,-269.2 591.59,-269.2 583.21,-269.2"/>
<polygon fill="midnightblue" stroke="midnightblue" points="608.94,-272.7 618.94,-269.2 608.94,-265.7 608.94,-272.7"/>
</g>
<!-- Node30&#45;&gt;Node5 -->
<g id="edge37" class="edge">
<title>Node30&#45;&gt;Node5</title>
<path fill="none" stroke="midnightblue" d="M438.56,-269.2C429.89,-269.2 421.32,-269.2 413.38,-269.2"/>
<polygon fill="midnightblue" stroke="midnightblue" points="438.76,-272.7 448.76,-269.2 438.76,-265.7 438.76,-272.7"/>
</g>
<!-- Node31&#45;&gt;Node26 -->
<g id="edge39" class="edge">
<title>Node31&#45;&gt;Node26</title>
<path fill="none" stroke="midnightblue" d="M1165.14,-180.84C1145.31,-185.63 1124.95,-190.55 1109.71,-194.23"/>
<polygon fill="midnightblue" stroke="midnightblue" points="1166.21,-184.18 1175.11,-178.43 1164.57,-177.38 1166.21,-184.18"/>
</g>
</g>
</svg>
