<?xml version="1.0" encoding="UTF-8" standalone="no"?>
<!DOCTYPE svg PUBLIC "-//W3C//DTD SVG 1.1//EN"
 "http://www.w3.org/Graphics/SVG/1.1/DTD/svg11.dtd">
<!-- Generated by graphviz version 2.43.0 (0)
 -->
<!-- Title: TMGR_conv_tmgr_ack_to_ccp_cmd_ret_ Pages: 1 -->
<svg width="978pt" height="166pt"
 viewBox="0.00 0.00 978.00 165.50" xmlns="http://www.w3.org/2000/svg" xmlns:xlink="http://www.w3.org/1999/xlink">
<g id="graph0" class="graph" transform="scale(1 1) rotate(0) translate(4 161.5)">
<title>TMGR_conv_tmgr_ack_to_ccp_cmd_ret_</title>
<polygon fill="white" stroke="transparent" points="-4,4 -4,-161.5 974,-161.5 974,4 -4,4"/>
<!-- Node1 -->
<g id="node1" class="node">
<title>Node1</title>
<g id="a_node1"><a xlink:title="enum 変換用関数">
<polygon fill="#bfbfbf" stroke="black" points="845,-61 845,-91 970,-91 970,-61 845,-61"/>
<text text-anchor="start" x="853" y="-79" font-family="Helvetica,sans-Serif" font-size="10.00">TMGR_conv_tmgr_ack</text>
<text text-anchor="middle" x="907.5" y="-68" font-family="Helvetica,sans-Serif" font-size="10.00">_to_ccp_cmd_ret_</text>
</a>
</g>
</g>
<!-- Node2 -->
<g id="node2" class="node">
<title>Node2</title>
<g id="a_node2"><a xlink:href="time__manager_8c.html#a20a42983bef938d90dae2d5f8ece4f35" target="_top" xlink:title=" ">
<polygon fill="white" stroke="black" points="655.5,-127 655.5,-157 787.5,-157 787.5,-127 655.5,-127"/>
<text text-anchor="start" x="663.5" y="-145" font-family="Helvetica,sans-Serif" font-size="10.00">Cmd_TMGR_SET_CYCLE</text>
<text text-anchor="middle" x="721.5" y="-134" font-family="Helvetica,sans-Serif" font-size="10.00">_CORRECTION</text>
</a>
</g>
</g>
<!-- Node1&#45;&gt;Node2 -->
<g id="edge1" class="edge">
<title>Node1&#45;&gt;Node2</title>
<path fill="none" stroke="midnightblue" d="M863.88,-95.19C846.97,-102.47 827.24,-110.56 809,-117 799.13,-120.49 788.49,-123.87 778.18,-126.95"/>
<polygon fill="midnightblue" stroke="midnightblue" points="865.71,-98.21 873.48,-91.02 862.92,-91.8 865.71,-98.21"/>
</g>
<!-- Node9 -->
<g id="node9" class="node">
<title>Node9</title>
<g id="a_node9"><a xlink:href="time__manager_8c.html#a7aea131eabdf4a9d056ee152cf2ee6c2" target="_top" xlink:title=" ">
<polygon fill="white" stroke="black" points="658.5,-88.5 658.5,-107.5 784.5,-107.5 784.5,-88.5 658.5,-88.5"/>
<text text-anchor="middle" x="721.5" y="-95.5" font-family="Helvetica,sans-Serif" font-size="10.00">Cmd_TMGR_SET_TIME</text>
</a>
</g>
</g>
<!-- Node1&#45;&gt;Node9 -->
<g id="edge9" class="edge">
<title>Node1&#45;&gt;Node9</title>
<path fill="none" stroke="midnightblue" d="M834.79,-84.57C818.22,-86.56 800.72,-88.65 784.59,-90.58"/>
<polygon fill="midnightblue" stroke="midnightblue" points="835.46,-88.02 844.97,-83.36 834.63,-81.07 835.46,-88.02"/>
</g>
<!-- Node10 -->
<g id="node10" class="node">
<title>Node10</title>
<g id="a_node10"><a xlink:href="time__manager_8c.html#a7db7e3a78afb14c960ad0a46dabe4064" target="_top" xlink:title=" ">
<polygon fill="white" stroke="black" points="634,-39 634,-69 809,-69 809,-39 634,-39"/>
<text text-anchor="start" x="642" y="-57" font-family="Helvetica,sans-Serif" font-size="10.00">Cmd_TMGR_SET_UTL_UNIXTIME</text>
<text text-anchor="middle" x="721.5" y="-46" font-family="Helvetica,sans-Serif" font-size="10.00">_EPOCH</text>
</a>
</g>
</g>
<!-- Node1&#45;&gt;Node10 -->
<g id="edge11" class="edge">
<title>Node1&#45;&gt;Node10</title>
<path fill="none" stroke="midnightblue" d="M834.85,-67.43C826.44,-66.43 817.78,-65.39 809.19,-64.37"/>
<polygon fill="midnightblue" stroke="midnightblue" points="834.63,-70.93 844.97,-68.64 835.46,-63.98 834.63,-70.93"/>
</g>
<!-- Node11 -->
<g id="node11" class="node">
<title>Node11</title>
<g id="a_node11"><a xlink:href="time__manager_8c.html#a7a7ac10f439c3434eaac53f36300ea39" target="_top" xlink:title=" ">
<polygon fill="white" stroke="black" points="635.5,-0.5 635.5,-19.5 807.5,-19.5 807.5,-0.5 635.5,-0.5"/>
<text text-anchor="middle" x="721.5" y="-7.5" font-family="Helvetica,sans-Serif" font-size="10.00">Cmd_TMGR_UPDATE_UNIXTIME</text>
</a>
</g>
</g>
<!-- Node1&#45;&gt;Node11 -->
<g id="edge13" class="edge">
<title>Node1&#45;&gt;Node11</title>
<path fill="none" stroke="midnightblue" d="M870.49,-56.15C852.45,-46.86 830.02,-36.26 809,-29 798.25,-25.28 786.48,-22.13 775.19,-19.52"/>
<polygon fill="midnightblue" stroke="midnightblue" points="869.01,-59.33 879.49,-60.87 872.25,-53.13 869.01,-59.33"/>
</g>
<!-- Node3 -->
<g id="node3" class="node">
<title>Node3</title>
<g id="a_node3"><a xlink:href="command__analyze_8h.html#aa375895192b16d8e7f0ff4545b54e6c4" target="_top" xlink:title="Cmd Tableのロード">
<polygon fill="white" stroke="black" points="485,-66.5 485,-85.5 598,-85.5 598,-66.5 485,-66.5"/>
<text text-anchor="middle" x="541.5" y="-73.5" font-family="Helvetica,sans-Serif" font-size="10.00">CA_load_cmd_table</text>
</a>
</g>
</g>
<!-- Node2&#45;&gt;Node3 -->
<g id="edge2" class="edge">
<title>Node2&#45;&gt;Node3</title>
<path fill="none" stroke="midnightblue" d="M654.71,-124.03C647.68,-121.8 640.66,-119.44 634,-117 608.5,-107.66 580.1,-94.47 561.81,-85.6"/>
<polygon fill="midnightblue" stroke="midnightblue" points="653.7,-127.39 664.29,-127 655.77,-120.7 653.7,-127.39"/>
</g>
<!-- Node4 -->
<g id="node4" class="node">
<title>Node4</title>
<g id="a_node4"><a xlink:href="command__analyze_8c.html#ae6d1f376bf4e1c9c4b63bc3f04924c8a" target="_top" xlink:title="CA の初期化">
<polygon fill="white" stroke="black" points="372,-85.5 372,-104.5 449,-104.5 449,-85.5 372,-85.5"/>
<text text-anchor="middle" x="410.5" y="-92.5" font-family="Helvetica,sans-Serif" font-size="10.00">CA_initialize</text>
</a>
</g>
</g>
<!-- Node3&#45;&gt;Node4 -->
<g id="edge3" class="edge">
<title>Node3&#45;&gt;Node4</title>
<path fill="none" stroke="midnightblue" d="M474.5,-85.72C465.82,-87 457.17,-88.27 449.19,-89.45"/>
<polygon fill="midnightblue" stroke="midnightblue" points="475.29,-89.14 484.67,-84.22 474.27,-82.22 475.29,-89.14"/>
</g>
<!-- Node5 -->
<g id="node5" class="node">
<title>Node5</title>
<g id="a_node5"><a xlink:href="c2a__core__main_8c.html#a65ecdc63d8762ffde4db7f6c6e6f07cf" target="_top" xlink:title=" ">
<polygon fill="white" stroke="black" points="253,-85.5 253,-104.5 336,-104.5 336,-85.5 253,-85.5"/>
<text text-anchor="middle" x="294.5" y="-92.5" font-family="Helvetica,sans-Serif" font-size="10.00">C2A_core_init</text>
</a>
</g>
</g>
<!-- Node4&#45;&gt;Node5 -->
<g id="edge4" class="edge">
<title>Node4&#45;&gt;Node5</title>
<path fill="none" stroke="midnightblue" d="M361.72,-95C353.25,-95 344.5,-95 336.24,-95"/>
<polygon fill="midnightblue" stroke="midnightblue" points="361.86,-98.5 371.86,-95 361.86,-91.5 361.86,-98.5"/>
</g>
<!-- Node8 -->
<g id="node8" class="node">
<title>Node8</title>
<g id="a_node8"><a xlink:href="command__analyze_8c.html#a85d8daea84970ad2895a0209bd350b7b" target="_top" xlink:title=" ">
<polygon fill="white" stroke="black" points="253,-47.5 253,-66.5 336,-66.5 336,-47.5 253,-47.5"/>
<text text-anchor="middle" x="294.5" y="-54.5" font-family="Helvetica,sans-Serif" font-size="10.00">Cmd_CA_INIT</text>
</a>
</g>
</g>
<!-- Node4&#45;&gt;Node8 -->
<g id="edge7" class="edge">
<title>Node4&#45;&gt;Node8</title>
<path fill="none" stroke="midnightblue" d="M371.02,-82.17C355.73,-77.08 338.43,-71.31 324.26,-66.59"/>
<polygon fill="midnightblue" stroke="midnightblue" points="370.14,-85.57 380.73,-85.41 372.35,-78.93 370.14,-85.57"/>
</g>
<!-- Node6 -->
<g id="node6" class="node">
<title>Node6</title>
<g id="a_node6"><a xlink:href="c2a__main_8c.html#a630222a80cd8bffd4426d4a55a215069" target="_top" xlink:title=" ">
<polygon fill="white" stroke="black" points="155,-85.5 155,-104.5 217,-104.5 217,-85.5 155,-85.5"/>
<text text-anchor="middle" x="186" y="-92.5" font-family="Helvetica,sans-Serif" font-size="10.00">C2A_init_</text>
</a>
</g>
</g>
<!-- Node5&#45;&gt;Node6 -->
<g id="edge5" class="edge">
<title>Node5&#45;&gt;Node6</title>
<path fill="none" stroke="midnightblue" d="M242.76,-95C234.01,-95 225.17,-95 217.18,-95"/>
<polygon fill="midnightblue" stroke="midnightblue" points="242.93,-98.5 252.93,-95 242.93,-91.5 242.93,-98.5"/>
</g>
<!-- Node7 -->
<g id="node7" class="node">
<title>Node7</title>
<g id="a_node7"><a xlink:href="c2a__main_8c.html#ac3344a311adda8f9e7310924bedf81fc" target="_top" xlink:title=" ">
<polygon fill="white" stroke="black" points="0,-85.5 0,-104.5 119,-104.5 119,-85.5 0,-85.5"/>
<text text-anchor="middle" x="59.5" y="-92.5" font-family="Helvetica,sans-Serif" font-size="10.00">address_fixed_main_</text>
</a>
</g>
</g>
<!-- Node6&#45;&gt;Node7 -->
<g id="edge6" class="edge">
<title>Node6&#45;&gt;Node7</title>
<path fill="none" stroke="midnightblue" d="M144.83,-95C136.62,-95 127.82,-95 119.12,-95"/>
<polygon fill="midnightblue" stroke="midnightblue" points="144.86,-98.5 154.86,-95 144.86,-91.5 144.86,-98.5"/>
</g>
<!-- Node8&#45;&gt;Node3 -->
<g id="edge8" class="edge">
<title>Node8&#45;&gt;Node3</title>
<path fill="none" stroke="midnightblue" d="M346.54,-60.96C386.96,-64.09 443.35,-68.47 484.91,-71.69"/>
<polygon fill="midnightblue" stroke="midnightblue" points="346.61,-57.45 336.37,-60.17 346.07,-64.43 346.61,-57.45"/>
</g>
<!-- Node9&#45;&gt;Node3 -->
<g id="edge10" class="edge">
<title>Node9&#45;&gt;Node3</title>
<path fill="none" stroke="midnightblue" d="M648.02,-89.04C631.39,-86.99 613.97,-84.83 598.18,-82.88"/>
<polygon fill="midnightblue" stroke="midnightblue" points="647.89,-92.55 658.24,-90.31 648.75,-85.61 647.89,-92.55"/>
</g>
<!-- Node10&#45;&gt;Node3 -->
<g id="edge12" class="edge">
<title>Node10&#45;&gt;Node3</title>
<path fill="none" stroke="midnightblue" d="M623.71,-65.96C615.09,-67.03 606.57,-68.08 598.48,-69.08"/>
<polygon fill="midnightblue" stroke="midnightblue" points="624.35,-69.41 633.85,-64.71 623.49,-62.46 624.35,-69.41"/>
</g>
<!-- Node11&#45;&gt;Node3 -->
<g id="edge14" class="edge">
<title>Node11&#45;&gt;Node3</title>
<path fill="none" stroke="midnightblue" d="M656.95,-21.98C649.13,-24.03 641.32,-26.36 634,-29 606.11,-39.04 575.91,-55.82 558.13,-66.38"/>
<polygon fill="midnightblue" stroke="midnightblue" points="657.96,-25.33 666.82,-19.53 656.27,-18.54 657.96,-25.33"/>
</g>
</g>
</svg>
