<?xml version="1.0" encoding="UTF-8" standalone="no"?>
<!DOCTYPE svg PUBLIC "-//W3C//DTD SVG 1.1//EN"
 "http://www.w3.org/Graphics/SVG/1.1/DTD/svg11.dtd">
<!-- Generated by graphviz version 2.43.0 (0)
 -->
<!-- Title: TLCD1_create_app Pages: 1 -->
<svg width="1677pt" height="750pt"
 viewBox="0.00 0.00 1677.00 750.00" xmlns="http://www.w3.org/2000/svg" xmlns:xlink="http://www.w3.org/1999/xlink">
<g id="graph0" class="graph" transform="scale(1 1) rotate(0) translate(4 746)">
<title>TLCD1_create_app</title>
<polygon fill="white" stroke="transparent" points="-4,4 -4,-746 1673,-746 1673,4 -4,4"/>
<!-- Node1 -->
<g id="node1" class="node">
<title>Node1</title>
<g id="a_node1"><a xlink:title=" ">
<polygon fill="#bfbfbf" stroke="black" points="0,-370.5 0,-389.5 107,-389.5 107,-370.5 0,-370.5"/>
<text text-anchor="middle" x="53.5" y="-377.5" font-family="Helvetica,sans-Serif" font-size="10.00">TLCD1_create_app</text>
</a>
</g>
</g>
<!-- Node2 -->
<g id="node2" class="node">
<title>Node2</title>
<g id="a_node2"><a xlink:href="app__info_8c.html#a0d81b42bb05772083032b2f23bac9202" target="_top" xlink:title="AppInfo を作る">
<polygon fill="white" stroke="black" points="143,-408.5 143,-427.5 253,-427.5 253,-408.5 143,-408.5"/>
<text text-anchor="middle" x="198" y="-415.5" font-family="Helvetica,sans-Serif" font-size="10.00">AI_create_app_info</text>
</a>
</g>
</g>
<!-- Node1&#45;&gt;Node2 -->
<g id="edge1" class="edge">
<title>Node1&#45;&gt;Node2</title>
<path fill="none" stroke="midnightblue" d="M90.46,-389.59C108.94,-394.52 131.66,-400.57 151.36,-405.83"/>
<polygon fill="midnightblue" stroke="midnightblue" points="150.49,-409.22 161.05,-408.41 152.29,-402.46 150.49,-409.22"/>
</g>
<!-- Node3 -->
<g id="node3" class="node">
<title>Node3</title>
<g id="a_node3"><a xlink:href="timeline__command__dispatcher_8c.html#aff4f663a7670bf6eb1be99911bd5cf79" target="_top" xlink:title=" ">
<polygon fill="white" stroke="black" points="148,-370.5 148,-389.5 248,-389.5 248,-370.5 148,-370.5"/>
<text text-anchor="middle" x="198" y="-377.5" font-family="Helvetica,sans-Serif" font-size="10.00">TLCD1_dispatch_</text>
</a>
</g>
</g>
<!-- Node1&#45;&gt;Node3 -->
<g id="edge2" class="edge">
<title>Node1&#45;&gt;Node3</title>
<path fill="none" stroke="midnightblue" d="M107.16,-380C117.15,-380 127.66,-380 137.84,-380"/>
<polygon fill="midnightblue" stroke="midnightblue" points="137.87,-383.5 147.87,-380 137.87,-376.5 137.87,-383.5"/>
</g>
<!-- Node79 -->
<g id="node45" class="node">
<title>Node79</title>
<g id="a_node45"><a xlink:href="timeline__command__dispatcher_8c.html#a841c7edcd93edeab2af7fd9f9b3483a3" target="_top" xlink:title=" ">
<polygon fill="white" stroke="black" points="161,-247.5 161,-266.5 235,-266.5 235,-247.5 161,-247.5"/>
<text text-anchor="middle" x="198" y="-254.5" font-family="Helvetica,sans-Serif" font-size="10.00">TLCD1_init_</text>
</a>
</g>
</g>
<!-- Node1&#45;&gt;Node79 -->
<g id="edge56" class="edge">
<title>Node1&#45;&gt;Node79</title>
<path fill="none" stroke="midnightblue" d="M65.68,-370.35C90.03,-349.33 148.07,-299.23 178.17,-273.25"/>
<polygon fill="midnightblue" stroke="midnightblue" points="180.59,-275.79 185.87,-266.61 176.01,-270.49 180.59,-275.79"/>
</g>
<!-- Node4 -->
<g id="node4" class="node">
<title>Node4</title>
<g id="a_node4"><a xlink:href="timeline__command__dispatcher_8c.html#a81ac915e803ac30a27f6488af9ce45ad" target="_top" xlink:title=" ">
<polygon fill="white" stroke="black" points="289,-475.5 289,-494.5 379,-494.5 379,-475.5 289,-475.5"/>
<text text-anchor="middle" x="334" y="-482.5" font-family="Helvetica,sans-Serif" font-size="10.00">tlc_dispatcher_</text>
</a>
</g>
</g>
<!-- Node3&#45;&gt;Node4 -->
<g id="edge3" class="edge">
<title>Node3&#45;&gt;Node4</title>
<path fill="none" stroke="midnightblue" d="M234.16,-389.59C240.7,-392.13 247.26,-395.24 253,-399 281.13,-417.42 306.21,-447.79 320.5,-467.07"/>
<polygon fill="midnightblue" stroke="midnightblue" points="317.76,-469.25 326.45,-475.31 323.43,-465.15 317.76,-469.25"/>
</g>
<!-- Node5 -->
<g id="node5" class="node">
<title>Node5</title>
<g id="a_node5"><a xlink:href="anomaly__logger_8c.html#a0ea6626c89aa7e883a23da90b4c34e66" target="_top" xlink:title=" ">
<polygon fill="white" stroke="black" points="435,-646.5 435,-665.5 535,-665.5 535,-646.5 435,-646.5"/>
<text text-anchor="middle" x="485" y="-653.5" font-family="Helvetica,sans-Serif" font-size="10.00">AL_add_anomaly</text>
</a>
</g>
</g>
<!-- Node4&#45;&gt;Node5 -->
<g id="edge4" class="edge">
<title>Node4&#45;&gt;Node5</title>
<path fill="none" stroke="midnightblue" d="M339.42,-494.82C349.95,-517.4 378.4,-573.95 415,-611 426.92,-623.07 442.61,-633.62 456.02,-641.46"/>
<polygon fill="midnightblue" stroke="midnightblue" points="454.43,-644.58 464.86,-646.44 457.86,-638.48 454.43,-644.58"/>
</g>
<!-- Node11 -->
<g id="node11" class="node">
<title>Node11</title>
<g id="a_node11"><a xlink:href="common__cmd__packet_8h.html#ad1a6be053f894381150410e424ec20ab" target="_top" xlink:title="TI を取得">
<polygon fill="white" stroke="black" points="622,-532.5 622,-551.5 691,-551.5 691,-532.5 622,-532.5"/>
<text text-anchor="middle" x="656.5" y="-539.5" font-family="Helvetica,sans-Serif" font-size="10.00">CCP_get_ti</text>
</a>
</g>
</g>
<!-- Node4&#45;&gt;Node11 -->
<g id="edge11" class="edge">
<title>Node4&#45;&gt;Node11</title>
<path fill="none" stroke="midnightblue" d="M350.58,-494.51C366.24,-503.56 391.38,-516.69 415,-523 481.91,-540.88 562.73,-543.59 611.57,-543.27"/>
<polygon fill="midnightblue" stroke="midnightblue" points="611.83,-546.76 621.79,-543.15 611.75,-539.76 611.83,-546.76"/>
</g>
<!-- Node16 -->
<g id="node15" class="node">
<title>Node16</title>
<g id="a_node15"><a xlink:href="command__dispatcher_8c.html#a90617acff33923f51c212b8e3034712c" target="_top" xlink:title="CDIS に登録されているコマンドキューからコマンドを実行">
<polygon fill="white" stroke="black" points="415,-418.5 415,-437.5 555,-437.5 555,-418.5 415,-418.5"/>
<text text-anchor="middle" x="485" y="-425.5" font-family="Helvetica,sans-Serif" font-size="10.00">CDIS_dispatch_command</text>
</a>
</g>
</g>
<!-- Node4&#45;&gt;Node16 -->
<g id="edge15" class="edge">
<title>Node4&#45;&gt;Node16</title>
<path fill="none" stroke="midnightblue" d="M357.28,-475.41C373.25,-468.64 395.34,-459.47 415,-452 424.87,-448.25 435.62,-444.4 445.63,-440.92"/>
<polygon fill="midnightblue" stroke="midnightblue" points="447.02,-444.14 455.33,-437.57 444.74,-437.52 447.02,-444.14"/>
</g>
<!-- Node33 -->
<g id="node22" class="node">
<title>Node33</title>
<g id="a_node22"><a xlink:href="event__logger_8c.html#a25a74a48375dfc1f3f80be68e0ac00ea" target="_top" xlink:title="イベント (EL_Event) を記録">
<polygon fill="white" stroke="black" points="943,-152.5 943,-171.5 1040,-171.5 1040,-152.5 943,-152.5"/>
<text text-anchor="middle" x="991.5" y="-159.5" font-family="Helvetica,sans-Serif" font-size="10.00">EL_record_event</text>
</a>
</g>
</g>
<!-- Node4&#45;&gt;Node33 -->
<g id="edge49" class="edge">
<title>Node4&#45;&gt;Node33</title>
<path fill="none" stroke="midnightblue" d="M341.13,-475.35C366.49,-436.29 467.67,-288.66 591,-219 699.96,-157.46 851.35,-154.05 932.92,-157.61"/>
<polygon fill="midnightblue" stroke="midnightblue" points="932.83,-161.11 942.99,-158.1 933.18,-154.11 932.83,-161.11"/>
</g>
<!-- Node74 -->
<g id="node40" class="node">
<title>Node74</title>
<g id="a_node40"><a xlink:href="packet__list_8c.html#a2b6b5b3ed753070e0ef0b14556311263" target="_top" xlink:title="PacketList の active な先頭 Node を取得">
<polygon fill="white" stroke="black" points="617.5,-456.5 617.5,-475.5 695.5,-475.5 695.5,-456.5 617.5,-456.5"/>
<text text-anchor="middle" x="656.5" y="-463.5" font-family="Helvetica,sans-Serif" font-size="10.00">PL_get_head</text>
</a>
</g>
</g>
<!-- Node4&#45;&gt;Node74 -->
<g id="edge53" class="edge">
<title>Node4&#45;&gt;Node74</title>
<path fill="none" stroke="midnightblue" d="M379.23,-482.38C438.97,-478.84 545.07,-472.55 606.95,-468.88"/>
<polygon fill="midnightblue" stroke="midnightblue" points="607.45,-472.35 617.23,-468.27 607.04,-465.37 607.45,-472.35"/>
</g>
<!-- Node76 -->
<g id="node42" class="node">
<title>Node76</title>
<g id="a_node42"><a xlink:href="packet__list_8c.html#a402ee5fb33a96045ba9d8c8f77703f44" target="_top" xlink:title="PacketList の先頭と time を比較">
<polygon fill="white" stroke="black" points="435,-494.5 435,-513.5 535,-513.5 535,-494.5 435,-494.5"/>
<text text-anchor="middle" x="485" y="-501.5" font-family="Helvetica,sans-Serif" font-size="10.00">PL_check_tl_cmd</text>
</a>
</g>
</g>
<!-- Node4&#45;&gt;Node76 -->
<g id="edge50" class="edge">
<title>Node4&#45;&gt;Node76</title>
<path fill="none" stroke="midnightblue" d="M379.3,-490.65C393.52,-492.46 409.51,-494.5 424.62,-496.43"/>
<polygon fill="midnightblue" stroke="midnightblue" points="424.56,-499.95 434.92,-497.74 425.44,-493 424.56,-499.95"/>
</g>
<!-- Node77 -->
<g id="node43" class="node">
<title>Node77</title>
<g id="a_node43"><a xlink:href="time__manager_8c.html#a576e42803f8f3896524dbb266a47a08f" target="_top" xlink:title="現在の total_cycle を返す">
<polygon fill="white" stroke="black" points="418,-571 418,-601 552,-601 552,-571 418,-571"/>
<text text-anchor="start" x="426" y="-589" font-family="Helvetica,sans-Serif" font-size="10.00">TMGR_get_master_total</text>
<text text-anchor="middle" x="485" y="-578" font-family="Helvetica,sans-Serif" font-size="10.00">_cycle</text>
</a>
</g>
</g>
<!-- Node4&#45;&gt;Node77 -->
<g id="edge54" class="edge">
<title>Node4&#45;&gt;Node77</title>
<path fill="none" stroke="midnightblue" d="M344.05,-494.81C358.09,-509.6 386.51,-537.82 415,-556 421.06,-559.86 427.7,-563.45 434.39,-566.71"/>
<polygon fill="midnightblue" stroke="midnightblue" points="432.95,-569.9 443.49,-570.93 435.89,-563.55 432.95,-569.9"/>
</g>
<!-- Node5&#45;&gt;Node5 -->
<g id="edge6" class="edge">
<title>Node5&#45;&gt;Node5</title>
<path fill="none" stroke="midnightblue" d="M461.88,-665.76C450.63,-674.57 458.34,-684 485,-684 502.5,-684 511.83,-679.94 513,-674.65"/>
<polygon fill="midnightblue" stroke="midnightblue" points="516,-672.84 508.12,-665.76 509.86,-676.21 516,-672.84"/>
</g>
<!-- Node6 -->
<g id="node6" class="node">
<title>Node6</title>
<g id="a_node6"><a xlink:href="anomaly__logger_8c.html#a0d3195f9dcd9ab90f9672a90ed701932" target="_top" xlink:title=" ">
<polygon fill="white" stroke="black" points="616,-646.5 616,-665.5 697,-665.5 697,-646.5 616,-646.5"/>
<text text-anchor="middle" x="656.5" y="-653.5" font-family="Helvetica,sans-Serif" font-size="10.00">AC_is_equal_</text>
</a>
</g>
</g>
<!-- Node5&#45;&gt;Node6 -->
<g id="edge5" class="edge">
<title>Node5&#45;&gt;Node6</title>
<path fill="none" stroke="midnightblue" d="M535.03,-656C557.23,-656 583.43,-656 605.71,-656"/>
<polygon fill="midnightblue" stroke="midnightblue" points="605.98,-659.5 615.98,-656 605.98,-652.5 605.98,-659.5"/>
</g>
<!-- Node7 -->
<g id="node7" class="node">
<title>Node7</title>
<g id="a_node7"><a xlink:href="anomaly__logger_8c.html#a20757d941f0e6a6fe45076e1b799d58c" target="_top" xlink:title=" ">
<polygon fill="white" stroke="black" points="597,-722.5 597,-741.5 716,-741.5 716,-722.5 597,-722.5"/>
<text text-anchor="middle" x="656.5" y="-729.5" font-family="Helvetica,sans-Serif" font-size="10.00">AL_get_latest_record</text>
</a>
</g>
</g>
<!-- Node5&#45;&gt;Node7 -->
<g id="edge7" class="edge">
<title>Node5&#45;&gt;Node7</title>
<path fill="none" stroke="midnightblue" d="M501.15,-665.56C521.12,-677.84 557.65,-699.21 591,-713 596.53,-715.29 602.43,-717.42 608.33,-719.36"/>
<polygon fill="midnightblue" stroke="midnightblue" points="607.61,-722.81 618.2,-722.46 609.71,-716.13 607.61,-722.81"/>
</g>
<!-- Node8 -->
<g id="node8" class="node">
<title>Node8</title>
<g id="a_node8"><a xlink:href="anomaly__logger_8c.html#af0545eca5524e201925fa77dd122fd8c" target="_top" xlink:title=" ">
<polygon fill="white" stroke="black" points="593,-684.5 593,-703.5 720,-703.5 720,-684.5 593,-684.5"/>
<text text-anchor="middle" x="656.5" y="-691.5" font-family="Helvetica,sans-Serif" font-size="10.00">AL_is_logging_enable_</text>
</a>
</g>
</g>
<!-- Node5&#45;&gt;Node8 -->
<g id="edge8" class="edge">
<title>Node5&#45;&gt;Node8</title>
<path fill="none" stroke="midnightblue" d="M528.77,-665.59C551.34,-670.65 579.22,-676.9 603.08,-682.25"/>
<polygon fill="midnightblue" stroke="midnightblue" points="602.51,-685.71 613.04,-684.48 604.04,-678.88 602.51,-685.71"/>
</g>
<!-- Node9 -->
<g id="node9" class="node">
<title>Node9</title>
<g id="a_node9"><a xlink:href="time__manager_8c.html#a9d04b4d9b622cbe5a90cf65e58b828bc" target="_top" xlink:title="現在の master_clock_ を取得する">
<polygon fill="white" stroke="black" points="1416,-356.5 1416,-375.5 1553,-375.5 1553,-356.5 1416,-356.5"/>
<text text-anchor="middle" x="1484.5" y="-363.5" font-family="Helvetica,sans-Serif" font-size="10.00">TMGR_get_master_clock</text>
</a>
</g>
</g>
<!-- Node5&#45;&gt;Node9 -->
<g id="edge9" class="edge">
<title>Node5&#45;&gt;Node9</title>
<path fill="none" stroke="midnightblue" d="M533.15,-646.49C551.19,-643.11 571.99,-639.52 591,-637 690.27,-623.85 715.37,-618 815.5,-618 815.5,-618 815.5,-618 1160,-618 1276.86,-618 1292.66,-551.64 1380,-474 1398.63,-457.44 1399,-449.23 1416,-431 1431.96,-413.89 1451.28,-395.5 1465.16,-382.66"/>
<polygon fill="midnightblue" stroke="midnightblue" points="1467.64,-385.14 1472.63,-375.79 1462.9,-379.98 1467.64,-385.14"/>
</g>
<!-- Node10 -->
<g id="node10" class="node">
<title>Node10</title>
<g id="a_node10"><a xlink:href="obc__time_8c.html#a70416835a40bdacbb04f6f06b1e6d1e1" target="_top" xlink:title="引数から ObcTime を作成する">
<polygon fill="white" stroke="black" points="1589,-291.5 1589,-310.5 1669,-310.5 1669,-291.5 1589,-291.5"/>
<text text-anchor="middle" x="1629" y="-298.5" font-family="Helvetica,sans-Serif" font-size="10.00">OBCT_create</text>
</a>
</g>
</g>
<!-- Node9&#45;&gt;Node10 -->
<g id="edge10" class="edge">
<title>Node9&#45;&gt;Node10</title>
<path fill="none" stroke="midnightblue" d="M1506.53,-356.41C1530.63,-345.42 1570.33,-327.31 1597.75,-314.8"/>
<polygon fill="midnightblue" stroke="midnightblue" points="1599.24,-317.96 1606.89,-310.63 1596.34,-311.6 1599.24,-317.96"/>
</g>
<!-- Node12 -->
<g id="node12" class="node">
<title>Node12</title>
<g id="a_node12"><a xlink:href="cmd__space__packet_8c.html#a8d726fa3f96fbe2be1a779719445b528" target="_top" xlink:title="Time Indicator (TI) を取得">
<polygon fill="white" stroke="black" points="1125,-505.5 1125,-524.5 1193,-524.5 1193,-505.5 1125,-505.5"/>
<text text-anchor="middle" x="1159" y="-512.5" font-family="Helvetica,sans-Serif" font-size="10.00">CSP_get_ti</text>
</a>
</g>
</g>
<!-- Node11&#45;&gt;Node12 -->
<g id="edge12" class="edge">
<title>Node11&#45;&gt;Node12</title>
<path fill="none" stroke="midnightblue" d="M691.12,-540.19C779.19,-535.44 1016.63,-522.63 1114.71,-517.34"/>
<polygon fill="midnightblue" stroke="midnightblue" points="1115.06,-520.82 1124.86,-516.79 1114.68,-513.83 1115.06,-520.82"/>
</g>
<!-- Node13 -->
<g id="node13" class="node">
<title>Node13</title>
<g id="a_node13"><a xlink:href="space__packet_8c.html#a300c7fc3dea91319b0fa2f039f27d5eb" target="_top" xlink:title="packet に格納された param を取得">
<polygon fill="white" stroke="black" points="1246,-435 1246,-465 1380,-465 1380,-435 1246,-435"/>
<text text-anchor="start" x="1254" y="-453" font-family="Helvetica,sans-Serif" font-size="10.00">SP_extract_param_from</text>
<text text-anchor="middle" x="1313" y="-442" font-family="Helvetica,sans-Serif" font-size="10.00">_packet</text>
</a>
</g>
</g>
<!-- Node12&#45;&gt;Node13 -->
<g id="edge13" class="edge">
<title>Node12&#45;&gt;Node13</title>
<path fill="none" stroke="midnightblue" d="M1182.43,-505.41C1204.66,-495.9 1239.35,-481.07 1267.24,-469.14"/>
<polygon fill="midnightblue" stroke="midnightblue" points="1268.97,-472.21 1276.78,-465.06 1266.21,-465.77 1268.97,-472.21"/>
</g>
<!-- Node14 -->
<g id="node14" class="node">
<title>Node14</title>
<g id="a_node14"><a xlink:href="endian__memcpy_8c.html#a153793f6939a1cb0f6bc3968d953f31e" target="_top" xlink:title=" ">
<polygon fill="white" stroke="red" points="1435.5,-440.5 1435.5,-459.5 1533.5,-459.5 1533.5,-440.5 1435.5,-440.5"/>
<text text-anchor="middle" x="1484.5" y="-447.5" font-family="Helvetica,sans-Serif" font-size="10.00">endian_memcpy</text>
</a>
</g>
</g>
<!-- Node13&#45;&gt;Node14 -->
<g id="edge14" class="edge">
<title>Node13&#45;&gt;Node14</title>
<path fill="none" stroke="midnightblue" d="M1380.02,-450C1394.83,-450 1410.44,-450 1424.93,-450"/>
<polygon fill="midnightblue" stroke="midnightblue" points="1425.24,-453.5 1435.24,-450 1425.24,-446.5 1425.24,-453.5"/>
</g>
<!-- Node16&#45;&gt;Node9 -->
<g id="edge48" class="edge">
<title>Node16&#45;&gt;Node9</title>
<path fill="none" stroke="midnightblue" d="M536.87,-418.46C601.43,-407.2 716.31,-390 815.5,-390 815.5,-390 815.5,-390 1160,-390 1244.06,-390 1340.08,-381.84 1405.53,-375.04"/>
<polygon fill="midnightblue" stroke="midnightblue" points="1406.18,-378.49 1415.76,-373.96 1405.45,-371.53 1406.18,-378.49"/>
</g>
<!-- Node17 -->
<g id="node16" class="node">
<title>Node17</title>
<g id="a_node16"><a xlink:href="common__cmd__packet_8h.html#a5e5c73c5746397c40160652b10398652" target="_top" xlink:title="CMD ID を取得">
<polygon fill="white" stroke="black" points="956,-418.5 956,-437.5 1027,-437.5 1027,-418.5 956,-418.5"/>
<text text-anchor="middle" x="991.5" y="-425.5" font-family="Helvetica,sans-Serif" font-size="10.00">CCP_get_id</text>
</a>
</g>
</g>
<!-- Node16&#45;&gt;Node17 -->
<g id="edge16" class="edge">
<title>Node16&#45;&gt;Node17</title>
<path fill="none" stroke="midnightblue" d="M555.09,-428C660.12,-428 857.05,-428 945.49,-428"/>
<polygon fill="midnightblue" stroke="midnightblue" points="945.72,-431.5 955.72,-428 945.72,-424.5 945.72,-431.5"/>
</g>
<!-- Node19 -->
<g id="node18" class="node">
<title>Node19</title>
<g id="a_node18"><a xlink:href="packet__handler_8c.html#a7b1777e6101ff2eeeef6042166974cdc" target="_top" xlink:title="CCP をコマンドとして解釈して実行，ないしは別機器へ配送する">
<polygon fill="white" stroke="black" points="591,-304.5 591,-323.5 722,-323.5 722,-304.5 591,-304.5"/>
<text text-anchor="middle" x="656.5" y="-311.5" font-family="Helvetica,sans-Serif" font-size="10.00">PH_dispatch_command</text>
</a>
</g>
</g>
<!-- Node16&#45;&gt;Node19 -->
<g id="edge19" class="edge">
<title>Node16&#45;&gt;Node19</title>
<path fill="none" stroke="midnightblue" d="M500.16,-418.48C529.5,-398.74 597.15,-353.24 632.71,-329.32"/>
<polygon fill="midnightblue" stroke="midnightblue" points="634.68,-332.22 641.02,-323.74 630.77,-326.41 634.68,-332.22"/>
</g>
<!-- Node72 -->
<g id="node38" class="node">
<title>Node72</title>
<g id="a_node38"><a xlink:href="packet__list_8c.html#ad1429f7199a84346e4e5177b9b2adc62" target="_top" xlink:title="先頭 Node を落とす">
<polygon fill="white" stroke="black" points="604.5,-228.5 604.5,-247.5 708.5,-247.5 708.5,-228.5 604.5,-228.5"/>
<text text-anchor="middle" x="656.5" y="-235.5" font-family="Helvetica,sans-Serif" font-size="10.00">PL_drop_executed</text>
</a>
</g>
</g>
<!-- Node16&#45;&gt;Node72 -->
<g id="edge44" class="edge">
<title>Node16&#45;&gt;Node72</title>
<path fill="none" stroke="midnightblue" d="M492.83,-418.17C508.81,-395.45 550.36,-337.96 591,-295 604.82,-280.4 621.92,-265.4 635.05,-254.46"/>
<polygon fill="midnightblue" stroke="midnightblue" points="637.52,-256.95 643.02,-247.9 633.08,-251.55 637.52,-256.95"/>
</g>
<!-- Node16&#45;&gt;Node74 -->
<g id="edge46" class="edge">
<title>Node16&#45;&gt;Node74</title>
<path fill="none" stroke="midnightblue" d="M528.77,-437.59C552.73,-442.96 582.69,-449.68 607.46,-455.23"/>
<polygon fill="midnightblue" stroke="midnightblue" points="606.84,-458.68 617.37,-457.45 608.38,-451.85 606.84,-458.68"/>
</g>
<!-- Node75 -->
<g id="node41" class="node">
<title>Node75</title>
<g id="a_node41"><a xlink:href="packet__list_8c.html#afefb37c36db47052d2e2b7e4d6c2274b" target="_top" xlink:title="PacketList が空かどうか">
<polygon fill="white" stroke="black" points="617.5,-494.5 617.5,-513.5 695.5,-513.5 695.5,-494.5 617.5,-494.5"/>
<text text-anchor="middle" x="656.5" y="-501.5" font-family="Helvetica,sans-Serif" font-size="10.00">PL_is_empty</text>
</a>
</g>
</g>
<!-- Node16&#45;&gt;Node75 -->
<g id="edge47" class="edge">
<title>Node16&#45;&gt;Node75</title>
<path fill="none" stroke="midnightblue" d="M501.15,-437.56C521.12,-449.84 557.65,-471.21 591,-485 596.53,-487.29 602.43,-489.42 608.33,-491.36"/>
<polygon fill="midnightblue" stroke="midnightblue" points="607.61,-494.81 618.2,-494.46 609.71,-488.13 607.61,-494.81"/>
</g>
<!-- Node18 -->
<g id="node17" class="node">
<title>Node18</title>
<g id="a_node17"><a xlink:href="cmd__space__packet_8c.html#a45d89842ddfe7dc2c74ae697d6690c89" target="_top" xlink:title="Command ID を取得">
<polygon fill="white" stroke="black" points="1110.5,-429.5 1110.5,-448.5 1207.5,-448.5 1207.5,-429.5 1110.5,-429.5"/>
<text text-anchor="middle" x="1159" y="-436.5" font-family="Helvetica,sans-Serif" font-size="10.00">CSP_get_cmd_id</text>
</a>
</g>
</g>
<!-- Node17&#45;&gt;Node18 -->
<g id="edge17" class="edge">
<title>Node17&#45;&gt;Node18</title>
<path fill="none" stroke="midnightblue" d="M1027.19,-430.31C1048.34,-431.71 1075.9,-433.54 1100.27,-435.16"/>
<polygon fill="midnightblue" stroke="midnightblue" points="1100.27,-438.67 1110.48,-435.84 1100.74,-431.69 1100.27,-438.67"/>
</g>
<!-- Node18&#45;&gt;Node13 -->
<g id="edge18" class="edge">
<title>Node18&#45;&gt;Node13</title>
<path fill="none" stroke="midnightblue" d="M1207.68,-442.45C1216.66,-443.1 1226.26,-443.79 1235.86,-444.49"/>
<polygon fill="midnightblue" stroke="midnightblue" points="1235.61,-447.98 1245.84,-445.21 1236.12,-441 1235.61,-447.98"/>
</g>
<!-- Node20 -->
<g id="node19" class="node">
<title>Node20</title>
<g id="a_node19"><a xlink:href="command__analyze_8c.html#a68bd697f2123acd72c8c1a49b7f3652a" target="_top" xlink:title="コマンド実行の本体">
<polygon fill="white" stroke="black" points="766.5,-342.5 766.5,-361.5 866.5,-361.5 866.5,-342.5 766.5,-342.5"/>
<text text-anchor="middle" x="816.5" y="-349.5" font-family="Helvetica,sans-Serif" font-size="10.00">CA_execute_cmd</text>
</a>
</g>
</g>
<!-- Node19&#45;&gt;Node20 -->
<g id="edge20" class="edge">
<title>Node19&#45;&gt;Node20</title>
<path fill="none" stroke="midnightblue" d="M697.37,-323.59C718.22,-328.6 743.93,-334.79 766.04,-340.11"/>
<polygon fill="midnightblue" stroke="midnightblue" points="765.38,-343.54 775.92,-342.48 767.01,-336.74 765.38,-343.54"/>
</g>
<!-- Node46 -->
<g id="node32" class="node">
<title>Node46</title>
<g id="a_node32"><a xlink:href="common__cmd__packet_8h.html#aa24f85ec65651169c91ab2ad0fad832f" target="_top" xlink:title="APID を取得">
<polygon fill="white" stroke="black" points="950,-228.5 950,-247.5 1033,-247.5 1033,-228.5 950,-228.5"/>
<text text-anchor="middle" x="991.5" y="-235.5" font-family="Helvetica,sans-Serif" font-size="10.00">CCP_get_apid</text>
</a>
</g>
</g>
<!-- Node19&#45;&gt;Node46 -->
<g id="edge37" class="edge">
<title>Node19&#45;&gt;Node46</title>
<path fill="none" stroke="midnightblue" d="M699.34,-304.45C760.44,-290.51 873.95,-264.6 939.74,-249.58"/>
<polygon fill="midnightblue" stroke="midnightblue" points="940.9,-252.91 949.87,-247.27 939.35,-246.08 940.9,-252.91"/>
</g>
<!-- Node49 -->
<g id="node34" class="node">
<title>Node49</title>
<g id="a_node34"><a xlink:href="common__cmd__packet_8h.html#add63f4e739670d463f6ace1f55fa3d48" target="_top" xlink:title="有効なパケットかチェックする">
<polygon fill="white" stroke="black" points="758.5,-228.5 758.5,-247.5 874.5,-247.5 874.5,-228.5 758.5,-228.5"/>
<text text-anchor="middle" x="816.5" y="-235.5" font-family="Helvetica,sans-Serif" font-size="10.00">CCP_is_valid_packet</text>
</a>
</g>
</g>
<!-- Node19&#45;&gt;Node49 -->
<g id="edge39" class="edge">
<title>Node19&#45;&gt;Node49</title>
<path fill="none" stroke="midnightblue" d="M675.07,-304.35C694.96,-293.56 728.45,-275.79 758,-262 765.67,-258.42 774.01,-254.79 781.91,-251.47"/>
<polygon fill="midnightblue" stroke="midnightblue" points="783.35,-254.67 791.25,-247.61 780.67,-248.2 783.35,-254.67"/>
</g>
<!-- Node51 -->
<g id="node36" class="node">
<title>Node51</title>
<g id="a_node36"><a xlink:href="user__packet__handler_8c.html#a2c3c644313071db44127bc7a90be4569" target="_top" xlink:title="PH の cmd_router_ のユーザー処理関数">
<polygon fill="white" stroke="black" points="758,-304.5 758,-323.5 875,-323.5 875,-304.5 758,-304.5"/>
<text text-anchor="middle" x="816.5" y="-311.5" font-family="Helvetica,sans-Serif" font-size="10.00">PH_user_cmd_router</text>
</a>
</g>
</g>
<!-- Node19&#45;&gt;Node51 -->
<g id="edge41" class="edge">
<title>Node19&#45;&gt;Node51</title>
<path fill="none" stroke="midnightblue" d="M722.22,-314C730.64,-314 739.29,-314 747.76,-314"/>
<polygon fill="midnightblue" stroke="midnightblue" points="747.97,-317.5 757.97,-314 747.97,-310.5 747.97,-317.5"/>
</g>
<!-- Node20&#45;&gt;Node17 -->
<g id="edge22" class="edge">
<title>Node20&#45;&gt;Node17</title>
<path fill="none" stroke="midnightblue" d="M839.41,-361.63C869.83,-374.99 925,-399.23 959.59,-414.42"/>
<polygon fill="midnightblue" stroke="midnightblue" points="958.2,-417.64 968.77,-418.45 961.02,-411.23 958.2,-417.64"/>
</g>
<!-- Node21 -->
<g id="node20" class="node">
<title>Node21</title>
<g id="a_node20"><a xlink:href="command__analyze_8c.html#ae878a1a8ce00cc7468fbdd5bc5aba864" target="_top" xlink:title="コマンドパラメタ長をチェックする">
<polygon fill="white" stroke="red" points="918.5,-304.5 918.5,-323.5 1064.5,-323.5 1064.5,-304.5 918.5,-304.5"/>
<text text-anchor="middle" x="991.5" y="-311.5" font-family="Helvetica,sans-Serif" font-size="10.00">CA_ckeck_cmd_param_len</text>
</a>
</g>
</g>
<!-- Node20&#45;&gt;Node21 -->
<g id="edge21" class="edge">
<title>Node20&#45;&gt;Node21</title>
<path fill="none" stroke="midnightblue" d="M861.16,-342.41C884.29,-337.33 912.9,-331.04 937.33,-325.68"/>
<polygon fill="midnightblue" stroke="midnightblue" points="938.14,-329.08 947.16,-323.52 936.64,-322.25 938.14,-329.08"/>
</g>
<!-- Node28 -->
<g id="node21" class="node">
<title>Node28</title>
<g id="a_node21"><a xlink:href="common__cmd__packet_8h.html#a6f37129ce7654260af1f8a565f6423fc" target="_top" xlink:title="CMD パラメタ長を取得">
<polygon fill="white" stroke="red" points="934.5,-342.5 934.5,-361.5 1048.5,-361.5 1048.5,-342.5 934.5,-342.5"/>
<text text-anchor="middle" x="991.5" y="-349.5" font-family="Helvetica,sans-Serif" font-size="10.00">CCP_get_param_len</text>
</a>
</g>
</g>
<!-- Node20&#45;&gt;Node28 -->
<g id="edge23" class="edge">
<title>Node20&#45;&gt;Node28</title>
<path fill="none" stroke="midnightblue" d="M866.61,-352C884.48,-352 904.98,-352 924.1,-352"/>
<polygon fill="midnightblue" stroke="midnightblue" points="924.25,-355.5 934.25,-352 924.25,-348.5 924.25,-355.5"/>
</g>
<!-- Node20&#45;&gt;Node33 -->
<g id="edge24" class="edge">
<title>Node20&#45;&gt;Node33</title>
<path fill="none" stroke="midnightblue" d="M862.38,-342.42C867.09,-339.96 871.45,-336.87 875,-333 921.92,-281.83 861.96,-230.14 911,-181 917.12,-174.86 924.85,-170.57 933.07,-167.6"/>
<polygon fill="midnightblue" stroke="midnightblue" points="934.29,-170.89 942.88,-164.68 932.3,-164.18 934.29,-170.89"/>
</g>
<!-- Node34 -->
<g id="node23" class="node">
<title>Node34</title>
<g id="a_node23"><a xlink:href="event__logger_8c.html#a80a1b60c587d1e3402b02e3bde1db899" target="_top" xlink:title="イベント (EL_Event) を記録">
<polygon fill="white" stroke="black" points="1108,-198.5 1108,-217.5 1210,-217.5 1210,-198.5 1108,-198.5"/>
<text text-anchor="middle" x="1159" y="-205.5" font-family="Helvetica,sans-Serif" font-size="10.00">EL_record_event_</text>
</a>
</g>
</g>
<!-- Node33&#45;&gt;Node34 -->
<g id="edge25" class="edge">
<title>Node33&#45;&gt;Node34</title>
<path fill="none" stroke="midnightblue" d="M1034.72,-171.51C1046.81,-174.39 1059.96,-177.68 1072,-181 1087.69,-185.33 1104.82,-190.6 1119.64,-195.33"/>
<polygon fill="midnightblue" stroke="midnightblue" points="1118.89,-198.76 1129.48,-198.5 1121.04,-192.1 1118.89,-198.76"/>
</g>
<!-- Node35 -->
<g id="node24" class="node">
<title>Node35</title>
<g id="a_node24"><a xlink:href="event__logger_8c.html#aeae14f21b4e29006f709a61e7de52d67" target="_top" xlink:title="TLog の wp をチェックし， event を生成する">
<polygon fill="white" stroke="black" points="1258,-198.5 1258,-217.5 1368,-217.5 1368,-198.5 1258,-198.5"/>
<text text-anchor="middle" x="1313" y="-205.5" font-family="Helvetica,sans-Serif" font-size="10.00">EL_check_tlog_wp_</text>
</a>
</g>
</g>
<!-- Node34&#45;&gt;Node35 -->
<g id="edge26" class="edge">
<title>Node34&#45;&gt;Node35</title>
<path fill="none" stroke="midnightblue" d="M1210.19,-201.61C1222.15,-201.26 1235.07,-201.17 1247.57,-201.32"/>
<polygon fill="midnightblue" stroke="midnightblue" points="1247.88,-204.83 1257.94,-201.51 1248,-197.83 1247.88,-204.83"/>
</g>
<!-- Node36 -->
<g id="node25" class="node">
<title>Node36</title>
<g id="a_node25"><a xlink:href="event__logger_8c.html#a0b42c2f5d1eafdad83481ec6e63365e2" target="_top" xlink:title="イベント (EL_Event) を初期化">
<polygon fill="white" stroke="black" points="1269.5,-332.5 1269.5,-351.5 1356.5,-351.5 1356.5,-332.5 1269.5,-332.5"/>
<text text-anchor="middle" x="1313" y="-339.5" font-family="Helvetica,sans-Serif" font-size="10.00">EL_init_event_</text>
</a>
</g>
</g>
<!-- Node34&#45;&gt;Node36 -->
<g id="edge28" class="edge">
<title>Node34&#45;&gt;Node36</title>
<path fill="none" stroke="midnightblue" d="M1196.03,-217.52C1201.15,-220 1206.01,-223.11 1210,-227 1240.25,-256.5 1216.12,-285.12 1246,-315 1251.36,-320.36 1257.92,-324.69 1264.81,-328.2"/>
<polygon fill="midnightblue" stroke="midnightblue" points="1263.77,-331.57 1274.33,-332.47 1266.64,-325.18 1263.77,-331.57"/>
</g>
<!-- Node37 -->
<g id="node26" class="node">
<title>Node37</title>
<g id="a_node26"><a xlink:href="event__logger_8c.html#a50ba2fe43a96f7351951a4109227ba6f" target="_top" xlink:title="event_logger の EL_Event.group が有効か？">
<polygon fill="white" stroke="black" points="1252.5,-286.5 1252.5,-305.5 1373.5,-305.5 1373.5,-286.5 1252.5,-286.5"/>
<text text-anchor="middle" x="1313" y="-293.5" font-family="Helvetica,sans-Serif" font-size="10.00">EL_is_logging_enable</text>
</a>
</g>
</g>
<!-- Node34&#45;&gt;Node37 -->
<g id="edge30" class="edge">
<title>Node34&#45;&gt;Node37</title>
<path fill="none" stroke="midnightblue" d="M1193.16,-217.51C1199.09,-220.05 1204.97,-223.18 1210,-227 1231.51,-243.36 1223.94,-260.39 1246,-276 1249.46,-278.45 1253.23,-280.61 1257.16,-282.5"/>
<polygon fill="midnightblue" stroke="midnightblue" points="1255.95,-285.79 1266.52,-286.47 1258.68,-279.34 1255.95,-285.79"/>
</g>
<!-- Node38 -->
<g id="node27" class="node">
<title>Node38</title>
<g id="a_node27"><a xlink:href="event__logger_8c.html#a69fb9dbc85ad467d048f1c9f31d2442c" target="_top" xlink:title="イベント (EL_Event) を CLog に記録">
<polygon fill="white" stroke="black" points="1257,-237 1257,-267 1369,-267 1369,-237 1257,-237"/>
<text text-anchor="start" x="1265" y="-255" font-family="Helvetica,sans-Serif" font-size="10.00">EL_record_event_to</text>
<text text-anchor="middle" x="1313" y="-244" font-family="Helvetica,sans-Serif" font-size="10.00">_clog_</text>
</a>
</g>
</g>
<!-- Node34&#45;&gt;Node38 -->
<g id="edge31" class="edge">
<title>Node34&#45;&gt;Node38</title>
<path fill="none" stroke="midnightblue" d="M1192.98,-217.55C1209.71,-222.39 1230.59,-228.43 1250.17,-234.1"/>
<polygon fill="midnightblue" stroke="midnightblue" points="1249.38,-237.52 1259.96,-236.93 1251.32,-230.79 1249.38,-237.52"/>
</g>
<!-- Node44 -->
<g id="node30" class="node">
<title>Node44</title>
<g id="a_node30"><a xlink:href="event__logger_8c.html#a93cb3659efd373de0856c92b3c08896a" target="_top" xlink:title="イベント (EL_Event) を TLog に記録">
<polygon fill="white" stroke="black" points="1257,-149 1257,-179 1369,-179 1369,-149 1257,-149"/>
<text text-anchor="start" x="1265" y="-167" font-family="Helvetica,sans-Serif" font-size="10.00">EL_record_event_to</text>
<text text-anchor="middle" x="1313" y="-156" font-family="Helvetica,sans-Serif" font-size="10.00">_tlog_</text>
</a>
</g>
</g>
<!-- Node34&#45;&gt;Node44 -->
<g id="edge35" class="edge">
<title>Node34&#45;&gt;Node44</title>
<path fill="none" stroke="midnightblue" d="M1192.98,-198.45C1209.71,-193.61 1230.59,-187.57 1250.17,-181.9"/>
<polygon fill="midnightblue" stroke="midnightblue" points="1251.32,-185.21 1259.96,-179.07 1249.38,-178.48 1251.32,-185.21"/>
</g>
<!-- Node35&#45;&gt;Node34 -->
<g id="edge27" class="edge">
<title>Node35&#45;&gt;Node34</title>
<path fill="none" stroke="midnightblue" d="M1257.94,-214.49C1245.79,-214.79 1232.82,-214.83 1220.43,-214.62"/>
<polygon fill="midnightblue" stroke="midnightblue" points="1220.27,-211.12 1210.19,-214.39 1220.11,-218.12 1220.27,-211.12"/>
</g>
<!-- Node36&#45;&gt;Node9 -->
<g id="edge29" class="edge">
<title>Node36&#45;&gt;Node9</title>
<path fill="none" stroke="midnightblue" d="M1356.77,-348.06C1371.86,-350.19 1389.32,-352.66 1406.36,-355.08"/>
<polygon fill="midnightblue" stroke="midnightblue" points="1405.93,-358.55 1416.33,-356.49 1406.92,-351.62 1405.93,-358.55"/>
</g>
<!-- Node39 -->
<g id="node28" class="node">
<title>Node39</title>
<g id="a_node28"><a xlink:href="event__logger_8c.html#a605a3ff223ddae8830c09ff5aa57cc94" target="_top" xlink:title="該当イベントの CLog を，イベントテーブルの先頭に出す">
<polygon fill="white" stroke="red" points="1425,-281 1425,-311 1544,-311 1544,-281 1425,-281"/>
<text text-anchor="start" x="1433" y="-299" font-family="Helvetica,sans-Serif" font-size="10.00">EL_move_to_front_in</text>
<text text-anchor="middle" x="1484.5" y="-288" font-family="Helvetica,sans-Serif" font-size="10.00">_clog_</text>
</a>
</g>
</g>
<!-- Node38&#45;&gt;Node39 -->
<g id="edge32" class="edge">
<title>Node38&#45;&gt;Node39</title>
<path fill="none" stroke="midnightblue" d="M1369.03,-266.29C1383.86,-270.13 1400.08,-274.34 1415.52,-278.35"/>
<polygon fill="midnightblue" stroke="midnightblue" points="1414.98,-281.83 1425.54,-280.95 1416.74,-275.05 1414.98,-281.83"/>
</g>
<!-- Node42 -->
<g id="node29" class="node">
<title>Node42</title>
<g id="a_node29"><a xlink:href="obc__time_8c.html#a02512f745375636ab21f468838587942" target="_top" xlink:title="ObcTime の引き算を行う">
<polygon fill="white" stroke="red" points="1452,-242.5 1452,-261.5 1517,-261.5 1517,-242.5 1452,-242.5"/>
<text text-anchor="middle" x="1484.5" y="-249.5" font-family="Helvetica,sans-Serif" font-size="10.00">OBCT_diff</text>
</a>
</g>
</g>
<!-- Node38&#45;&gt;Node42 -->
<g id="edge33" class="edge">
<title>Node38&#45;&gt;Node42</title>
<path fill="none" stroke="midnightblue" d="M1369.03,-252C1392.73,-252 1419.98,-252 1441.95,-252"/>
<polygon fill="midnightblue" stroke="midnightblue" points="1441.95,-255.5 1451.95,-252 1441.95,-248.5 1441.95,-255.5"/>
</g>
<!-- Node42&#45;&gt;Node10 -->
<g id="edge34" class="edge">
<title>Node42&#45;&gt;Node10</title>
<path fill="none" stroke="midnightblue" d="M1517.31,-260.21C1528.65,-263.33 1541.47,-267.08 1553,-271 1567.39,-275.89 1583.04,-282.01 1596.3,-287.45"/>
<polygon fill="midnightblue" stroke="midnightblue" points="1595.34,-290.84 1605.92,-291.45 1598.02,-284.38 1595.34,-290.84"/>
</g>
<!-- Node45 -->
<g id="node31" class="node">
<title>Node45</title>
<g id="a_node31"><a xlink:href="event__logger_8c.html#af088469f27d5dfca608a9cacee9fbc17" target="_top" xlink:title="TLog のイベントテーブルの上書きが有効か？">
<polygon fill="white" stroke="black" points="1426,-149 1426,-179 1543,-179 1543,-149 1426,-149"/>
<text text-anchor="start" x="1434" y="-167" font-family="Helvetica,sans-Serif" font-size="10.00">EL_is_tlog_overwrite</text>
<text text-anchor="middle" x="1484.5" y="-156" font-family="Helvetica,sans-Serif" font-size="10.00">_enable</text>
</a>
</g>
</g>
<!-- Node44&#45;&gt;Node45 -->
<g id="edge36" class="edge">
<title>Node44&#45;&gt;Node45</title>
<path fill="none" stroke="midnightblue" d="M1369.03,-164C1383.94,-164 1400.25,-164 1415.77,-164"/>
<polygon fill="midnightblue" stroke="midnightblue" points="1415.83,-167.5 1425.83,-164 1415.83,-160.5 1415.83,-167.5"/>
</g>
<!-- Node47 -->
<g id="node33" class="node">
<title>Node47</title>
<g id="a_node33"><a xlink:href="cmd__space__packet_8c.html#a66281beb2903f651ac94e9ea379f94ce" target="_top" xlink:title="APID を取得">
<polygon fill="white" stroke="red" points="1117.5,-236.5 1117.5,-255.5 1200.5,-255.5 1200.5,-236.5 1117.5,-236.5"/>
<text text-anchor="middle" x="1159" y="-243.5" font-family="Helvetica,sans-Serif" font-size="10.00">CSP_get_apid</text>
</a>
</g>
</g>
<!-- Node46&#45;&gt;Node47 -->
<g id="edge38" class="edge">
<title>Node46&#45;&gt;Node47</title>
<path fill="none" stroke="midnightblue" d="M1033.41,-239.98C1055.67,-241.05 1083.42,-242.39 1107.07,-243.54"/>
<polygon fill="midnightblue" stroke="midnightblue" points="1107.12,-247.04 1117.27,-244.03 1107.45,-240.05 1107.12,-247.04"/>
</g>
<!-- Node50 -->
<g id="node35" class="node">
<title>Node50</title>
<g id="a_node35"><a xlink:href="common__cmd__packet_8c.html#a09b2e0ad8f87be0782c0f8ef2523f44c" target="_top" xlink:title="パケット長を取得">
<polygon fill="white" stroke="red" points="934,-190.5 934,-209.5 1049,-209.5 1049,-190.5 934,-190.5"/>
<text text-anchor="middle" x="991.5" y="-197.5" font-family="Helvetica,sans-Serif" font-size="10.00">CCP_get_packet_len</text>
</a>
</g>
</g>
<!-- Node49&#45;&gt;Node50 -->
<g id="edge40" class="edge">
<title>Node49&#45;&gt;Node50</title>
<path fill="none" stroke="midnightblue" d="M861.16,-228.41C884.29,-223.33 912.9,-217.04 937.33,-211.68"/>
<polygon fill="midnightblue" stroke="midnightblue" points="938.14,-215.08 947.16,-209.52 936.64,-208.25 938.14,-215.08"/>
</g>
<!-- Node51&#45;&gt;Node46 -->
<g id="edge42" class="edge">
<title>Node51&#45;&gt;Node46</title>
<path fill="none" stroke="midnightblue" d="M845.67,-304.5C855.33,-300.66 865.98,-295.77 875,-290 893.29,-278.31 891.83,-267.18 911,-257 919.93,-252.26 930.05,-248.68 940,-245.99"/>
<polygon fill="midnightblue" stroke="midnightblue" points="940.96,-249.36 949.85,-243.59 939.3,-242.56 940.96,-249.36"/>
</g>
<!-- Node52 -->
<g id="node37" class="node">
<title>Node52</title>
<g id="a_node37"><a xlink:href="di__aobc_8c.html#aff7d4f09f3003e15242d14e6ed393059" target="_top" xlink:title="CommonCmdPacket を AOBC に送信する">
<polygon fill="white" stroke="red" points="911,-266.5 911,-285.5 1072,-285.5 1072,-266.5 911,-266.5"/>
<text text-anchor="middle" x="991.5" y="-273.5" font-family="Helvetica,sans-Serif" font-size="10.00">DI_AOBC_dispatch_command</text>
</a>
</g>
</g>
<!-- Node51&#45;&gt;Node52 -->
<g id="edge43" class="edge">
<title>Node51&#45;&gt;Node52</title>
<path fill="none" stroke="midnightblue" d="M861.16,-304.41C884.29,-299.33 912.9,-293.04 937.33,-287.68"/>
<polygon fill="midnightblue" stroke="midnightblue" points="938.14,-291.08 947.16,-285.52 936.64,-284.25 938.14,-291.08"/>
</g>
<!-- Node73 -->
<g id="node39" class="node">
<title>Node73</title>
<g id="a_node39"><a xlink:href="packet__list_8c.html#a73f448f3b619d2a36949a483f3c70d8a" target="_top" xlink:title="先頭 Node を落とす">
<polygon fill="white" stroke="black" points="772,-190.5 772,-209.5 861,-209.5 861,-190.5 772,-190.5"/>
<text text-anchor="middle" x="816.5" y="-197.5" font-family="Helvetica,sans-Serif" font-size="10.00">PL_drop_head_</text>
</a>
</g>
</g>
<!-- Node72&#45;&gt;Node73 -->
<g id="edge45" class="edge">
<title>Node72&#45;&gt;Node73</title>
<path fill="none" stroke="midnightblue" d="M697.37,-228.41C718.22,-223.4 743.93,-217.21 766.04,-211.89"/>
<polygon fill="midnightblue" stroke="midnightblue" points="767.01,-215.26 775.92,-209.52 765.38,-208.46 767.01,-215.26"/>
</g>
<!-- Node76&#45;&gt;Node11 -->
<g id="edge51" class="edge">
<title>Node76&#45;&gt;Node11</title>
<path fill="none" stroke="midnightblue" d="M528.77,-513.59C554.23,-519.3 586.44,-526.52 612.02,-532.25"/>
<polygon fill="midnightblue" stroke="midnightblue" points="611.3,-535.68 621.82,-534.45 612.83,-528.85 611.3,-535.68"/>
</g>
<!-- Node76&#45;&gt;Node75 -->
<g id="edge52" class="edge">
<title>Node76&#45;&gt;Node75</title>
<path fill="none" stroke="midnightblue" d="M535.03,-504C557.75,-504 584.67,-504 607.29,-504"/>
<polygon fill="midnightblue" stroke="midnightblue" points="607.35,-507.5 617.35,-504 607.35,-500.5 607.35,-507.5"/>
</g>
<!-- Node78 -->
<g id="node44" class="node">
<title>Node78</title>
<g id="a_node44"><a xlink:href="obc__time_8c.html#ac42c1d017a2cbb8dab608771907c97d5" target="_top" xlink:title="引数で指定した ObcTime の total_cycle を返す">
<polygon fill="white" stroke="black" points="595,-570.5 595,-589.5 718,-589.5 718,-570.5 595,-570.5"/>
<text text-anchor="middle" x="656.5" y="-577.5" font-family="Helvetica,sans-Serif" font-size="10.00">OBCT_get_total_cycle</text>
</a>
</g>
</g>
<!-- Node77&#45;&gt;Node78 -->
<g id="edge55" class="edge">
<title>Node77&#45;&gt;Node78</title>
<path fill="none" stroke="midnightblue" d="M552.02,-583.66C562.73,-583.28 573.85,-582.89 584.67,-582.51"/>
<polygon fill="midnightblue" stroke="midnightblue" points="585.05,-586 594.92,-582.14 584.8,-579 585.05,-586"/>
</g>
<!-- Node80 -->
<g id="node46" class="node">
<title>Node80</title>
<g id="a_node46"><a xlink:href="command__dispatcher_8c.html#a65fc5bdc13b85016bdfe85d8191b7681" target="_top" xlink:title="CDIS の初期化と取得">
<polygon fill="white" stroke="black" points="303.5,-76.5 303.5,-95.5 364.5,-95.5 364.5,-76.5 303.5,-76.5"/>
<text text-anchor="middle" x="334" y="-83.5" font-family="Helvetica,sans-Serif" font-size="10.00">CDIS_init</text>
</a>
</g>
</g>
<!-- Node79&#45;&gt;Node80 -->
<g id="edge57" class="edge">
<title>Node79&#45;&gt;Node80</title>
<path fill="none" stroke="midnightblue" d="M206.59,-247.32C228.33,-219.57 291.09,-139.48 319.15,-103.67"/>
<polygon fill="midnightblue" stroke="midnightblue" points="322.08,-105.61 325.49,-95.58 316.57,-101.29 322.08,-105.61"/>
</g>
<!-- Node80&#45;&gt;Node33 -->
<g id="edge60" class="edge">
<title>Node80&#45;&gt;Node33</title>
<path fill="none" stroke="midnightblue" d="M364.81,-94.13C379.77,-97.94 398.24,-102.24 415,-105 617.61,-138.36 670.84,-126.09 875,-148 893.81,-150.02 914.32,-152.43 932.76,-154.69"/>
<polygon fill="midnightblue" stroke="midnightblue" points="932.42,-158.17 942.77,-155.92 933.27,-151.22 932.42,-158.17"/>
</g>
<!-- Node81 -->
<g id="node47" class="node">
<title>Node81</title>
<g id="a_node47"><a xlink:href="command__dispatcher_8c.html#ad69bcfd7e12d6c75b7e5ec0841764c6c" target="_top" xlink:title="CDIS_ExecInfo の初期化">
<polygon fill="white" stroke="black" points="422,-0.5 422,-19.5 548,-19.5 548,-0.5 422,-0.5"/>
<text text-anchor="middle" x="485" y="-7.5" font-family="Helvetica,sans-Serif" font-size="10.00">CDIS_clear_exec_info_</text>
</a>
</g>
</g>
<!-- Node80&#45;&gt;Node81 -->
<g id="edge58" class="edge">
<title>Node80&#45;&gt;Node81</title>
<path fill="none" stroke="midnightblue" d="M345.86,-76.34C360.56,-63.75 388.05,-41.82 415,-29 419.91,-26.67 425.16,-24.57 430.48,-22.71"/>
<polygon fill="midnightblue" stroke="midnightblue" points="431.66,-26.01 440.09,-19.6 429.5,-19.35 431.66,-26.01"/>
</g>
<!-- Node83 -->
<g id="node49" class="node">
<title>Node83</title>
<g id="a_node49"><a xlink:href="packet__list_8c.html#a30838b1a60fd841ab737f565a4ad9d69" target="_top" xlink:title="PacketList をクリア">
<polygon fill="white" stroke="black" points="446.5,-76.5 446.5,-95.5 523.5,-95.5 523.5,-76.5 446.5,-76.5"/>
<text text-anchor="middle" x="485" y="-83.5" font-family="Helvetica,sans-Serif" font-size="10.00">PL_clear_list</text>
</a>
</g>
</g>
<!-- Node80&#45;&gt;Node83 -->
<g id="edge61" class="edge">
<title>Node80&#45;&gt;Node83</title>
<path fill="none" stroke="midnightblue" d="M364.79,-86C385.21,-86 412.74,-86 436.2,-86"/>
<polygon fill="midnightblue" stroke="midnightblue" points="436.31,-89.5 446.31,-86 436.31,-82.5 436.31,-89.5"/>
</g>
<!-- Node84 -->
<g id="node50" class="node">
<title>Node84</title>
<g id="a_node50"><a xlink:href="packet__list_8c.html#a851b28b14c9bdadc9dc9e9b4bc8e5681" target="_top" xlink:title="PacketList で使用される packet の型情報 PL_PACKET_TYPE を返す">
<polygon fill="white" stroke="black" points="428.5,-38.5 428.5,-57.5 541.5,-57.5 541.5,-38.5 428.5,-38.5"/>
<text text-anchor="middle" x="485" y="-45.5" font-family="Helvetica,sans-Serif" font-size="10.00">PL_get_packet_type</text>
</a>
</g>
</g>
<!-- Node80&#45;&gt;Node84 -->
<g id="edge62" class="edge">
<title>Node80&#45;&gt;Node84</title>
<path fill="none" stroke="midnightblue" d="M364.79,-78.4C385.38,-73.15 413.19,-66.06 436.77,-60.05"/>
<polygon fill="midnightblue" stroke="midnightblue" points="437.76,-63.41 446.58,-57.54 436.03,-56.62 437.76,-63.41"/>
</g>
<!-- Node82 -->
<g id="node48" class="node">
<title>Node82</title>
<g id="a_node48"><a xlink:href="obc__time_8c.html#af728cdbeae57ea5bf7f25ba5a3776e60" target="_top" xlink:title="ObcTime をクリアし全てゼロにする">
<polygon fill="white" stroke="black" points="620,-0.5 620,-19.5 693,-19.5 693,-0.5 620,-0.5"/>
<text text-anchor="middle" x="656.5" y="-7.5" font-family="Helvetica,sans-Serif" font-size="10.00">OBCT_clear</text>
</a>
</g>
</g>
<!-- Node81&#45;&gt;Node82 -->
<g id="edge59" class="edge">
<title>Node81&#45;&gt;Node82</title>
<path fill="none" stroke="midnightblue" d="M548.15,-10C568.56,-10 590.86,-10 609.81,-10"/>
<polygon fill="midnightblue" stroke="midnightblue" points="609.97,-13.5 619.97,-10 609.97,-6.5 609.97,-13.5"/>
</g>
</g>
</svg>
