<?xml version="1.0" encoding="UTF-8" standalone="no"?>
<!DOCTYPE svg PUBLIC "-//W3C//DTD SVG 1.1//EN"
 "http://www.w3.org/Graphics/SVG/1.1/DTD/svg11.dtd">
<!-- Generated by graphviz version 2.43.0 (0)
 -->
<!-- Title: src/src_user/Settings/Modes/TaskLists/tl_initial.c Pages: 1 -->
<svg width="820pt" height="530pt"
 viewBox="0.00 0.00 819.55 530.00" xmlns="http://www.w3.org/2000/svg" xmlns:xlink="http://www.w3.org/1999/xlink">
<g id="graph0" class="graph" transform="scale(1 1) rotate(0) translate(4 526)">
<title>src/src_user/Settings/Modes/TaskLists/tl_initial.c</title>
<polygon fill="white" stroke="transparent" points="-4,4 -4,-526 815.55,-526 815.55,4 -4,4"/>
<!-- Node1 -->
<g id="node1" class="node">
<title>Node1</title>
<g id="a_node1"><a xlink:title=" ">
<polygon fill="#bfbfbf" stroke="black" points="525.55,-491.5 525.55,-521.5 675.55,-521.5 675.55,-491.5 525.55,-491.5"/>
<text text-anchor="start" x="533.55" y="-509.5" font-family="Helvetica,sans-Serif" font-size="10.00">src/src_user/Settings</text>
<text text-anchor="middle" x="600.55" y="-498.5" font-family="Helvetica,sans-Serif" font-size="10.00">/Modes/TaskLists/tl_initial.c</text>
</a>
</g>
</g>
<!-- Node2 -->
<g id="node2" class="node">
<title>Node2</title>
<g id="a_node2"><a xlink:href="tl__initial_8h.html" target="_top" xlink:title=" ">
<polygon fill="white" stroke="black" points="405.05,-430 405.05,-449 470.05,-449 470.05,-430 405.05,-430"/>
<text text-anchor="middle" x="437.55" y="-437" font-family="Helvetica,sans-Serif" font-size="10.00">tl_initial.h</text>
</a>
</g>
</g>
<!-- Node1&#45;&gt;Node2 -->
<g id="edge1" class="edge">
<title>Node1&#45;&gt;Node2</title>
<path fill="none" stroke="midnightblue" d="M565.18,-491.4C536.33,-479.89 495.97,-463.8 468.41,-452.81"/>
<polygon fill="midnightblue" stroke="midnightblue" points="469.47,-449.46 458.88,-449.01 466.87,-455.96 469.47,-449.46"/>
</g>
<!-- Node3 -->
<g id="node3" class="node">
<title>Node3</title>
<g id="a_node3"><a xlink:href="app__registry_8h.html" target="_top" xlink:title=" ">
<polygon fill="white" stroke="black" points="595.55,-357.5 595.55,-387.5 699.55,-387.5 699.55,-357.5 595.55,-357.5"/>
<text text-anchor="start" x="603.55" y="-375.5" font-family="Helvetica,sans-Serif" font-size="10.00">../../../Applications</text>
<text text-anchor="middle" x="647.55" y="-364.5" font-family="Helvetica,sans-Serif" font-size="10.00">/app_registry.h</text>
</a>
</g>
</g>
<!-- Node1&#45;&gt;Node3 -->
<g id="edge2" class="edge">
<title>Node1&#45;&gt;Node3</title>
<path fill="none" stroke="midnightblue" d="M609.74,-491.43C615.83,-481.58 623.58,-467.91 628.55,-455 635.74,-436.32 640.7,-414.13 643.74,-397.63"/>
<polygon fill="midnightblue" stroke="midnightblue" points="647.2,-398.15 645.47,-387.7 640.3,-396.95 647.2,-398.15"/>
</g>
<!-- Node5 -->
<g id="node5" class="node">
<title>Node5</title>
<g id="a_node5"><a xlink:href="block__command__definitions_8h.html" target="_top" xlink:title="ブロックコマンド定義">
<polygon fill="white" stroke="black" points="675.55,-424.5 675.55,-454.5 811.55,-454.5 811.55,-424.5 675.55,-424.5"/>
<text text-anchor="start" x="683.55" y="-442.5" font-family="Helvetica,sans-Serif" font-size="10.00">../../../TlmCmd/block</text>
<text text-anchor="middle" x="743.55" y="-431.5" font-family="Helvetica,sans-Serif" font-size="10.00">_command_definitions.h</text>
</a>
</g>
</g>
<!-- Node1&#45;&gt;Node5 -->
<g id="edge4" class="edge">
<title>Node1&#45;&gt;Node5</title>
<path fill="none" stroke="midnightblue" d="M631.58,-491.4C652.56,-481.86 680.49,-469.16 703.2,-458.84"/>
<polygon fill="midnightblue" stroke="midnightblue" points="704.92,-461.9 712.58,-454.58 702.03,-455.53 704.92,-461.9"/>
</g>
<!-- Node6 -->
<g id="node6" class="node">
<title>Node6</title>
<g id="a_node6"><a xlink:href="block__command__loader_8h.html" target="_top" xlink:title="ブロックコマンド登録関連のユーティリティ">
<polygon fill="white" stroke="black" points="488.05,-424.5 488.05,-454.5 619.05,-454.5 619.05,-424.5 488.05,-424.5"/>
<text text-anchor="start" x="496.05" y="-442.5" font-family="Helvetica,sans-Serif" font-size="10.00">src_core/TlmCmd/block</text>
<text text-anchor="middle" x="553.55" y="-431.5" font-family="Helvetica,sans-Serif" font-size="10.00">_command_loader.h</text>
</a>
</g>
</g>
<!-- Node1&#45;&gt;Node6 -->
<g id="edge5" class="edge">
<title>Node1&#45;&gt;Node6</title>
<path fill="none" stroke="midnightblue" d="M590.35,-491.4C584.31,-483.05 576.53,-472.29 569.68,-462.81"/>
<polygon fill="midnightblue" stroke="midnightblue" points="572.42,-460.63 563.73,-454.58 566.75,-464.73 572.42,-460.63"/>
</g>
<!-- Node4 -->
<g id="node4" class="node">
<title>Node4</title>
<g id="a_node4"><a xlink:href="timeline__command__dispatcher__define_8h.html" target="_top" xlink:title="timeline command dispatcher の各種定義">
<polygon fill="white" stroke="black" points="566.55,-201.5 566.55,-242.5 736.55,-242.5 736.55,-201.5 566.55,-201.5"/>
<text text-anchor="start" x="574.55" y="-230.5" font-family="Helvetica,sans-Serif" font-size="10.00">src_user/Settings/Applications</text>
<text text-anchor="start" x="574.55" y="-219.5" font-family="Helvetica,sans-Serif" font-size="10.00">/timeline_command_dispatcher</text>
<text text-anchor="middle" x="651.55" y="-208.5" font-family="Helvetica,sans-Serif" font-size="10.00">_define.h</text>
</a>
</g>
</g>
<!-- Node3&#45;&gt;Node4 -->
<g id="edge3" class="edge">
<title>Node3&#45;&gt;Node4</title>
<path fill="none" stroke="midnightblue" d="M656.51,-357.1C662.05,-347.33 668.64,-333.88 671.55,-321 675.65,-302.79 674.73,-297.39 671.55,-279 669.99,-270.01 667.12,-260.55 664.04,-252.01"/>
<polygon fill="midnightblue" stroke="midnightblue" points="667.24,-250.58 660.38,-242.51 660.7,-253.1 667.24,-250.58"/>
</g>
<!-- Node6&#45;&gt;Node3 -->
<g id="edge26" class="edge">
<title>Node6&#45;&gt;Node3</title>
<path fill="none" stroke="midnightblue" d="M573.94,-424.4C587,-415.37 604.14,-403.51 618.6,-393.52"/>
<polygon fill="midnightblue" stroke="midnightblue" points="620.96,-396.14 627.19,-387.58 616.98,-390.39 620.96,-396.14"/>
</g>
<!-- Node7 -->
<g id="node7" class="node">
<title>Node7</title>
<g id="a_node7"><a xlink:href="block__command__table_8h.html" target="_top" xlink:title="BCTの定義, BCT周りの関数">
<polygon fill="white" stroke="black" points="215.55,-363 215.55,-382 357.55,-382 357.55,-363 215.55,-363"/>
<text text-anchor="middle" x="286.55" y="-370" font-family="Helvetica,sans-Serif" font-size="10.00">./block_command_table.h</text>
</a>
</g>
</g>
<!-- Node6&#45;&gt;Node7 -->
<g id="edge6" class="edge">
<title>Node6&#45;&gt;Node7</title>
<path fill="none" stroke="midnightblue" d="M495.94,-424.48C446.63,-412.47 376.63,-395.43 331.4,-384.42"/>
<polygon fill="midnightblue" stroke="midnightblue" points="332.13,-380.99 321.58,-382.03 330.47,-387.79 332.13,-380.99"/>
</g>
<!-- Node12 -->
<g id="node12" class="node">
<title>Node12</title>
<g id="a_node12"><a xlink:href="obc__time_8h.html" target="_top" xlink:title="OBCの時刻情報の定義と演算">
<polygon fill="white" stroke="black" points="415.05,-207 415.05,-237 548.05,-237 548.05,-207 415.05,-207"/>
<text text-anchor="start" x="423.05" y="-225" font-family="Helvetica,sans-Serif" font-size="10.00">../System/TimeManager</text>
<text text-anchor="middle" x="481.55" y="-214" font-family="Helvetica,sans-Serif" font-size="10.00">/obc_time.h</text>
</a>
</g>
</g>
<!-- Node6&#45;&gt;Node12 -->
<g id="edge25" class="edge">
<title>Node6&#45;&gt;Node12</title>
<path fill="none" stroke="midnightblue" d="M548.49,-424.44C540.61,-402.44 525.02,-358.52 512.55,-321 504.19,-295.88 495.11,-266.97 488.95,-247.09"/>
<polygon fill="midnightblue" stroke="midnightblue" points="492.23,-245.85 485.93,-237.32 485.54,-247.91 492.23,-245.85"/>
</g>
<!-- Node19 -->
<g id="node19" class="node">
<title>Node19</title>
<g id="a_node19"><a xlink:href="timeline__command__dispatcher__id__define_8h.html" target="_top" xlink:title="TLCD_ID の定義">
<polygon fill="white" stroke="black" points="521.05,-279.5 521.05,-320.5 662.05,-320.5 662.05,-279.5 521.05,-279.5"/>
<text text-anchor="start" x="529.05" y="-308.5" font-family="Helvetica,sans-Serif" font-size="10.00">../Applications/timeline</text>
<text text-anchor="start" x="529.05" y="-297.5" font-family="Helvetica,sans-Serif" font-size="10.00">_command_dispatcher_id</text>
<text text-anchor="middle" x="591.55" y="-286.5" font-family="Helvetica,sans-Serif" font-size="10.00">_define.h</text>
</a>
</g>
</g>
<!-- Node6&#45;&gt;Node19 -->
<g id="edge23" class="edge">
<title>Node6&#45;&gt;Node19</title>
<path fill="none" stroke="midnightblue" d="M557.47,-424.3C563.55,-402.3 575.38,-359.5 583.37,-330.58"/>
<polygon fill="midnightblue" stroke="midnightblue" points="586.84,-331.19 586.13,-320.62 580.09,-329.32 586.84,-331.19"/>
</g>
<!-- Node8 -->
<g id="node8" class="node">
<title>Node8</title>
<g id="a_node8"><a xlink:href="stdint_8h.html" target="_top" xlink:title=" ">
<polygon fill="white" stroke="black" points="114.55,-67.5 114.55,-86.5 248.55,-86.5 248.55,-67.5 114.55,-67.5"/>
<text text-anchor="middle" x="181.55" y="-74.5" font-family="Helvetica,sans-Serif" font-size="10.00">src_user/Library/stdint.h</text>
</a>
</g>
</g>
<!-- Node7&#45;&gt;Node8 -->
<g id="edge7" class="edge">
<title>Node7&#45;&gt;Node8</title>
<path fill="none" stroke="midnightblue" d="M217.11,-362.97C148.48,-350.26 48.04,-319.01 7.55,-243 -30.18,-172.17 87.57,-114.45 148.04,-90.26"/>
<polygon fill="midnightblue" stroke="midnightblue" points="149.53,-93.44 157.57,-86.54 146.98,-86.92 149.53,-93.44"/>
</g>
<!-- Node10 -->
<g id="node10" class="node">
<title>Node10</title>
<g id="a_node10"><a xlink:href="block__command__table__params_8h.html" target="_top" xlink:title="BCTのCoreTlmパラメタのオーバーライド用ヘッダー">
<polygon fill="white" stroke="black" points="283.05,-285 283.05,-315 464.05,-315 464.05,-285 283.05,-285"/>
<text text-anchor="start" x="291.05" y="-303" font-family="Helvetica,sans-Serif" font-size="10.00">src_user/Settings/TlmCmd</text>
<text text-anchor="middle" x="373.55" y="-292" font-family="Helvetica,sans-Serif" font-size="10.00">/block_command_table_params.h</text>
</a>
</g>
</g>
<!-- Node7&#45;&gt;Node10 -->
<g id="edge9" class="edge">
<title>Node7&#45;&gt;Node10</title>
<path fill="none" stroke="midnightblue" d="M297.22,-362.86C309.85,-352.62 331.32,-335.22 348.27,-321.48"/>
<polygon fill="midnightblue" stroke="midnightblue" points="350.61,-324.09 356.18,-315.08 346.2,-318.65 350.61,-324.09"/>
</g>
<!-- Node11 -->
<g id="node11" class="node">
<title>Node11</title>
<g id="a_node11"><a xlink:href="common__cmd__packet_8h.html" target="_top" xlink:title="CCP 関連基本関数の宣言">
<polygon fill="white" stroke="black" points="132.55,-290.5 132.55,-309.5 264.55,-309.5 264.55,-290.5 132.55,-290.5"/>
<text text-anchor="middle" x="198.55" y="-297.5" font-family="Helvetica,sans-Serif" font-size="10.00">common_cmd_packet.h</text>
</a>
</g>
</g>
<!-- Node7&#45;&gt;Node11 -->
<g id="edge10" class="edge">
<title>Node7&#45;&gt;Node11</title>
<path fill="none" stroke="midnightblue" d="M275.76,-362.86C261.24,-351.23 235.2,-330.36 217.41,-316.11"/>
<polygon fill="midnightblue" stroke="midnightblue" points="219.42,-313.24 209.43,-309.72 215.04,-318.7 219.42,-313.24"/>
</g>
<!-- Node9 -->
<g id="node9" class="node">
<title>Node9</title>
<g id="a_node9"><a xlink:href="sils__define_8h.html" target="_top" xlink:title="Switch the build settings between your real OBC and SILS">
<polygon fill="white" stroke="black" points="117.05,-0.5 117.05,-19.5 246.05,-19.5 246.05,-0.5 117.05,-0.5"/>
<text text-anchor="middle" x="181.55" y="-7.5" font-family="Helvetica,sans-Serif" font-size="10.00">../Settings/sils_define.h</text>
</a>
</g>
</g>
<!-- Node8&#45;&gt;Node9 -->
<g id="edge8" class="edge">
<title>Node8&#45;&gt;Node9</title>
<path fill="none" stroke="midnightblue" d="M181.55,-67.23C181.55,-57.68 181.55,-42.12 181.55,-29.78"/>
<polygon fill="midnightblue" stroke="midnightblue" points="185.05,-29.63 181.55,-19.63 178.05,-29.63 185.05,-29.63"/>
</g>
<!-- Node11&#45;&gt;Node4 -->
<g id="edge22" class="edge">
<title>Node11&#45;&gt;Node4</title>
<path fill="none" stroke="midnightblue" d="M227.57,-290.41C241.66,-286.48 258.88,-282.04 274.55,-279 395.85,-255.43 430.78,-263.76 556.3,-243.13"/>
<polygon fill="midnightblue" stroke="midnightblue" points="557.02,-246.56 566.3,-241.46 555.86,-239.66 557.02,-246.56"/>
</g>
<!-- Node11&#45;&gt;Node12 -->
<g id="edge11" class="edge">
<title>Node11&#45;&gt;Node12</title>
<path fill="none" stroke="midnightblue" d="M230.46,-290.43C276.17,-278.15 361.19,-255.32 419.53,-239.66"/>
<polygon fill="midnightblue" stroke="midnightblue" points="420.62,-242.99 429.37,-237.01 418.81,-236.22 420.62,-242.99"/>
</g>
<!-- Node14 -->
<g id="node14" class="node">
<title>Node14</title>
<g id="a_node14"><a xlink:href="command__definitions_8h.html" target="_top" xlink:title="コマンド定義">
<polygon fill="white" stroke="black" points="17.05,-207 17.05,-237 170.05,-237 170.05,-207 17.05,-207"/>
<text text-anchor="start" x="25.05" y="-225" font-family="Helvetica,sans-Serif" font-size="10.00">src_user/TlmCmd/command</text>
<text text-anchor="middle" x="93.55" y="-214" font-family="Helvetica,sans-Serif" font-size="10.00">_definitions.h</text>
</a>
</g>
</g>
<!-- Node11&#45;&gt;Node14 -->
<g id="edge14" class="edge">
<title>Node11&#45;&gt;Node14</title>
<path fill="none" stroke="midnightblue" d="M186.5,-290.28C170.69,-278.84 142.45,-258.4 121.24,-243.04"/>
<polygon fill="midnightblue" stroke="midnightblue" points="123.07,-240.05 112.92,-237.02 118.97,-245.72 123.07,-240.05"/>
</g>
<!-- Node15 -->
<g id="node15" class="node">
<title>Node15</title>
<g id="a_node15"><a xlink:href="common__cmd__packet__define_8h.html" target="_top" xlink:title="CCP 型の定義">
<polygon fill="white" stroke="black" points="226.55,-207 226.55,-237 396.55,-237 396.55,-207 226.55,-207"/>
<text text-anchor="start" x="234.55" y="-225" font-family="Helvetica,sans-Serif" font-size="10.00">src_user/Settings/TlmCmd</text>
<text text-anchor="middle" x="311.55" y="-214" font-family="Helvetica,sans-Serif" font-size="10.00">/common_cmd_packet_define.h</text>
</a>
</g>
</g>
<!-- Node11&#45;&gt;Node15 -->
<g id="edge15" class="edge">
<title>Node11&#45;&gt;Node15</title>
<path fill="none" stroke="midnightblue" d="M211.51,-290.28C228.68,-278.73 259.46,-258.03 282.36,-242.63"/>
<polygon fill="midnightblue" stroke="midnightblue" points="284.36,-245.5 290.7,-237.02 280.45,-239.7 284.36,-245.5"/>
</g>
<!-- Node18 -->
<g id="node18" class="node">
<title>Node18</title>
<g id="a_node18"><a xlink:href="apid__define_8h.html" target="_top" xlink:title="CCSDS の APID を定義する">
<polygon fill="white" stroke="black" points="122.05,-140 122.05,-159 241.05,-159 241.05,-140 122.05,-140"/>
<text text-anchor="middle" x="181.55" y="-147" font-family="Helvetica,sans-Serif" font-size="10.00">./Ccsds/apid_define.h</text>
</a>
</g>
</g>
<!-- Node11&#45;&gt;Node18 -->
<g id="edge21" class="edge">
<title>Node11&#45;&gt;Node18</title>
<path fill="none" stroke="midnightblue" d="M197.54,-290.16C194.84,-266.58 187.42,-201.81 183.72,-169.44"/>
<polygon fill="midnightblue" stroke="midnightblue" points="187.15,-168.65 182.53,-159.11 180.19,-169.45 187.15,-168.65"/>
</g>
<!-- Node12&#45;&gt;Node8 -->
<g id="edge12" class="edge">
<title>Node12&#45;&gt;Node8</title>
<path fill="none" stroke="midnightblue" d="M473.18,-206.85C460.89,-187.35 436.06,-152.53 405.55,-134 347.68,-98.87 323.17,-114.61 257.55,-98 246.41,-95.18 234.37,-92.05 223.24,-89.12"/>
<polygon fill="midnightblue" stroke="midnightblue" points="223.88,-85.67 213.31,-86.5 222.09,-92.44 223.88,-85.67"/>
</g>
<!-- Node13 -->
<g id="node13" class="node">
<title>Node13</title>
<g id="a_node13"><a xlink:href="obc__time__params_8h.html" target="_top" xlink:title="OBCTのCoreパラメタのオーバーライド用ヘッダー">
<polygon fill="white" stroke="black" points="452.55,-134.5 452.55,-164.5 592.55,-164.5 592.55,-134.5 452.55,-134.5"/>
<text text-anchor="start" x="460.55" y="-152.5" font-family="Helvetica,sans-Serif" font-size="10.00">src_user/Settings/System</text>
<text text-anchor="middle" x="522.55" y="-141.5" font-family="Helvetica,sans-Serif" font-size="10.00">/obc_time_params.h</text>
</a>
</g>
</g>
<!-- Node12&#45;&gt;Node13 -->
<g id="edge13" class="edge">
<title>Node12&#45;&gt;Node13</title>
<path fill="none" stroke="midnightblue" d="M489.84,-206.73C495.4,-197.18 502.84,-184.39 509.22,-173.42"/>
<polygon fill="midnightblue" stroke="midnightblue" points="512.26,-175.15 514.26,-164.75 506.21,-171.63 512.26,-175.15"/>
</g>
<!-- Node16 -->
<g id="node16" class="node">
<title>Node16</title>
<g id="a_node16"><a xlink:href="space__packet__typedef_8h.html" target="_top" xlink:title="SpacePacket 類 と CommonTlmCmdPacket 類が相互参照するのを回避するためのヘッダ">
<polygon fill="white" stroke="black" points="259.05,-134.5 259.05,-164.5 396.05,-164.5 396.05,-134.5 259.05,-134.5"/>
<text text-anchor="start" x="267.05" y="-152.5" font-family="Helvetica,sans-Serif" font-size="10.00">src_core/TlmCmd/Ccsds</text>
<text text-anchor="middle" x="327.55" y="-141.5" font-family="Helvetica,sans-Serif" font-size="10.00">/space_packet_typedef.h</text>
</a>
</g>
</g>
<!-- Node15&#45;&gt;Node16 -->
<g id="edge16" class="edge">
<title>Node15&#45;&gt;Node16</title>
<path fill="none" stroke="midnightblue" d="M314.79,-206.73C316.87,-197.56 319.63,-185.41 322.05,-174.74"/>
<polygon fill="midnightblue" stroke="midnightblue" points="325.51,-175.27 324.31,-164.75 318.69,-173.72 325.51,-175.27"/>
</g>
<!-- Node15&#45;&gt;Node18 -->
<g id="edge19" class="edge">
<title>Node15&#45;&gt;Node18</title>
<path fill="none" stroke="midnightblue" d="M285.55,-206.9C262.47,-194.39 228.98,-176.22 206.29,-163.92"/>
<polygon fill="midnightblue" stroke="midnightblue" points="207.74,-160.72 197.28,-159.03 204.41,-166.88 207.74,-160.72"/>
</g>
<!-- Node16&#45;&gt;Node8 -->
<g id="edge17" class="edge">
<title>Node16&#45;&gt;Node8</title>
<path fill="none" stroke="midnightblue" d="M298.35,-134.4C272.08,-121.72 233.81,-103.23 208.31,-90.92"/>
<polygon fill="midnightblue" stroke="midnightblue" points="209.75,-87.73 199.22,-86.53 206.7,-94.03 209.75,-87.73"/>
</g>
<!-- Node17 -->
<g id="node17" class="node">
<title>Node17</title>
<g id="a_node17"><a xlink:href="space__packet__typedef__params_8h.html" target="_top" xlink:title="SpacePacketの パケット型に関するユーザー設定">
<polygon fill="white" stroke="black" points="266.55,-56.5 266.55,-97.5 426.55,-97.5 426.55,-56.5 266.55,-56.5"/>
<text text-anchor="start" x="274.55" y="-85.5" font-family="Helvetica,sans-Serif" font-size="10.00">src_user/Settings/TlmCmd</text>
<text text-anchor="start" x="274.55" y="-74.5" font-family="Helvetica,sans-Serif" font-size="10.00">/Ccsds/space_packet_typedef</text>
<text text-anchor="middle" x="346.55" y="-63.5" font-family="Helvetica,sans-Serif" font-size="10.00">_params.h</text>
</a>
</g>
</g>
<!-- Node16&#45;&gt;Node17 -->
<g id="edge18" class="edge">
<title>Node16&#45;&gt;Node17</title>
<path fill="none" stroke="midnightblue" d="M331.39,-134.23C333.48,-126.49 336.14,-116.63 338.64,-107.33"/>
<polygon fill="midnightblue" stroke="midnightblue" points="342.05,-108.15 341.27,-97.59 335.29,-106.33 342.05,-108.15"/>
</g>
<!-- Node18&#45;&gt;Node8 -->
<g id="edge20" class="edge">
<title>Node18&#45;&gt;Node8</title>
<path fill="none" stroke="midnightblue" d="M181.55,-139.86C181.55,-129.18 181.55,-110.72 181.55,-96.73"/>
<polygon fill="midnightblue" stroke="midnightblue" points="185.05,-96.72 181.55,-86.72 178.05,-96.72 185.05,-96.72"/>
</g>
<!-- Node19&#45;&gt;Node4 -->
<g id="edge24" class="edge">
<title>Node19&#45;&gt;Node4</title>
<path fill="none" stroke="midnightblue" d="M607,-279.43C613.93,-270.65 622.22,-260.15 629.77,-250.59"/>
<polygon fill="midnightblue" stroke="midnightblue" points="632.7,-252.52 636.15,-242.51 627.21,-248.19 632.7,-252.52"/>
</g>
</g>
</svg>
