<?xml version="1.0" encoding="UTF-8" standalone="no"?>
<!DOCTYPE svg PUBLIC "-//W3C//DTD SVG 1.1//EN"
 "http://www.w3.org/Graphics/SVG/1.1/DTD/svg11.dtd">
<!-- Generated by graphviz version 2.43.0 (0)
 -->
<!-- Title: TSP_get_packet_len Pages: 1 -->
<svg width="2208pt" height="209pt"
 viewBox="0.00 0.00 2208.00 209.00" xmlns="http://www.w3.org/2000/svg" xmlns:xlink="http://www.w3.org/1999/xlink">
<g id="graph0" class="graph" transform="scale(1 1) rotate(0) translate(4 205)">
<title>TSP_get_packet_len</title>
<polygon fill="white" stroke="transparent" points="-4,4 -4,-205 2204,-205 2204,4 -4,4"/>
<!-- Node1 -->
<g id="node1" class="node">
<title>Node1</title>
<g id="a_node1"><a xlink:title="Packet Length を取得">
<polygon fill="#bfbfbf" stroke="black" points="2087,-22.5 2087,-41.5 2200,-41.5 2200,-22.5 2087,-22.5"/>
<text text-anchor="middle" x="2143.5" y="-29.5" font-family="Helvetica,sans-Serif" font-size="10.00">TSP_get_packet_len</text>
</a>
</g>
</g>
<!-- Node2 -->
<g id="node2" class="node">
<title>Node2</title>
<g id="a_node2"><a xlink:href="common__tlm__packet_8h.html#ab9f04fbc9871d8fe2639cd46679e33c9" target="_top" xlink:title="パケット長を取得">
<polygon fill="white" stroke="black" points="1937,-60.5 1937,-79.5 2051,-79.5 2051,-60.5 1937,-60.5"/>
<text text-anchor="middle" x="1994" y="-67.5" font-family="Helvetica,sans-Serif" font-size="10.00">CTP_get_packet_len</text>
</a>
</g>
</g>
<!-- Node1&#45;&gt;Node2 -->
<g id="edge1" class="edge">
<title>Node1&#45;&gt;Node2</title>
<path fill="none" stroke="midnightblue" d="M2095.49,-44.11C2074.94,-49.4 2051.2,-55.52 2031.95,-60.48"/>
<polygon fill="midnightblue" stroke="midnightblue" points="2096.47,-47.47 2105.28,-41.59 2094.72,-40.69 2096.47,-47.47"/>
</g>
<!-- Node27 -->
<g id="node27" class="node">
<title>Node27</title>
<g id="a_node27"><a xlink:href="tcp__to__m__pdu_8c.html#a973ccd708198a0d237a3cbb96cb8b078" target="_top" xlink:title="TCPacket を M_PDU に変換する">
<polygon fill="white" stroke="black" points="922.5,-3.5 922.5,-22.5 1026.5,-22.5 1026.5,-3.5 922.5,-3.5"/>
<text text-anchor="middle" x="974.5" y="-10.5" font-family="Helvetica,sans-Serif" font-size="10.00">T2M_form_m_pdu</text>
</a>
</g>
</g>
<!-- Node1&#45;&gt;Node27 -->
<g id="edge32" class="edge">
<title>Node1&#45;&gt;Node27</title>
<path fill="none" stroke="midnightblue" d="M2076.56,-25.65C2013.46,-20.13 1915.58,-13 1830.5,-13 1830.5,-13 1830.5,-13 1309,-13 1208.98,-13 1092.08,-13 1026.63,-13"/>
<polygon fill="midnightblue" stroke="midnightblue" points="2076.5,-29.16 2086.77,-26.56 2077.11,-22.18 2076.5,-29.16"/>
</g>
<!-- Node3 -->
<g id="node3" class="node">
<title>Node3</title>
<g id="a_node3"><a xlink:href="aobc__telemetry__buffer_8c.html#a37b81adac738069788e1ede005ee5eb5" target="_top" xlink:title=" ">
<polygon fill="white" stroke="black" points="1758,-117.5 1758,-136.5 1901,-136.5 1901,-117.5 1758,-117.5"/>
<text text-anchor="middle" x="1829.5" y="-124.5" font-family="Helvetica,sans-Serif" font-size="10.00">AOBC_pick_up_tlm_buffer</text>
</a>
</g>
</g>
<!-- Node2&#45;&gt;Node3 -->
<g id="edge2" class="edge">
<title>Node2&#45;&gt;Node3</title>
<path fill="none" stroke="midnightblue" d="M1962.81,-83.62C1945.03,-91.35 1921.99,-100.87 1901,-108 1890.92,-111.42 1879.86,-114.65 1869.56,-117.43"/>
<polygon fill="midnightblue" stroke="midnightblue" points="1964.35,-86.76 1972.1,-79.54 1961.54,-80.36 1964.35,-86.76"/>
</g>
<!-- Node15 -->
<g id="node15" class="node">
<title>Node15</title>
<g id="a_node15"><a xlink:href="common__tlm__cmd__packet__for__driver__super_8c.html#ac33606cb83f003e3c3134702e73bf711" target="_top" xlink:title="CommonTlmPacket を受信データからコピーして取得する">
<polygon fill="white" stroke="black" points="1589.5,-41.5 1589.5,-60.5 1721.5,-60.5 1721.5,-41.5 1589.5,-41.5"/>
<text text-anchor="middle" x="1655.5" y="-48.5" font-family="Helvetica,sans-Serif" font-size="10.00">CTP_get_ctp_from_dssc</text>
</a>
</g>
</g>
<!-- Node2&#45;&gt;Node15 -->
<g id="edge17" class="edge">
<title>Node2&#45;&gt;Node15</title>
<path fill="none" stroke="midnightblue" d="M1926.65,-66.25C1867.26,-62.9 1780.68,-58.01 1721.66,-54.68"/>
<polygon fill="midnightblue" stroke="midnightblue" points="1926.5,-69.75 1936.68,-66.82 1926.89,-62.76 1926.5,-69.75"/>
</g>
<!-- Node23 -->
<g id="node23" class="node">
<title>Node23</title>
<g id="a_node23"><a xlink:href="common__tlm__packet_8h.html#a285c1dc53d72a80747d8827c38d7aea4" target="_top" xlink:title="有効なパケットかチェックする">
<polygon fill="white" stroke="black" points="1771.5,-79.5 1771.5,-98.5 1887.5,-98.5 1887.5,-79.5 1771.5,-79.5"/>
<text text-anchor="middle" x="1829.5" y="-86.5" font-family="Helvetica,sans-Serif" font-size="10.00">CTP_is_valid_packet</text>
</a>
</g>
</g>
<!-- Node2&#45;&gt;Node23 -->
<g id="edge26" class="edge">
<title>Node2&#45;&gt;Node23</title>
<path fill="none" stroke="midnightblue" d="M1926.43,-77.78C1913.54,-79.29 1900.15,-80.86 1887.6,-82.32"/>
<polygon fill="midnightblue" stroke="midnightblue" points="1927.1,-81.23 1936.62,-76.59 1926.28,-74.28 1927.1,-81.23"/>
</g>
<!-- Node4 -->
<g id="node4" class="node">
<title>Node4</title>
<g id="a_node4"><a xlink:href="telemetry__definitions_8c.html#a84f310ab422df1969e02ebd4c195fcab" target="_top" xlink:title=" ">
<polygon fill="white" stroke="black" points="1602,-155.5 1602,-174.5 1709,-174.5 1709,-155.5 1602,-155.5"/>
<text text-anchor="middle" x="1655.5" y="-162.5" font-family="Helvetica,sans-Serif" font-size="10.00">Tlm_AOBC_AOBC_</text>
</a>
</g>
</g>
<!-- Node3&#45;&gt;Node4 -->
<g id="edge3" class="edge">
<title>Node3&#45;&gt;Node4</title>
<path fill="none" stroke="midnightblue" d="M1775.3,-138.75C1750.98,-144.13 1722.55,-150.41 1699.59,-155.48"/>
<polygon fill="midnightblue" stroke="midnightblue" points="1776.09,-142.16 1785.1,-136.59 1774.58,-135.33 1776.09,-142.16"/>
</g>
<!-- Node14 -->
<g id="node14" class="node">
<title>Node14</title>
<g id="a_node14"><a xlink:href="telemetry__definitions_8c.html#afd76f547a6dc89a65b11b5aaff7cb47c" target="_top" xlink:title=" ">
<polygon fill="white" stroke="black" points="1609,-117.5 1609,-136.5 1702,-136.5 1702,-117.5 1609,-117.5"/>
<text text-anchor="middle" x="1655.5" y="-124.5" font-family="Helvetica,sans-Serif" font-size="10.00">Tlm_AOBC_HK_</text>
</a>
</g>
</g>
<!-- Node3&#45;&gt;Node14 -->
<g id="edge15" class="edge">
<title>Node3&#45;&gt;Node14</title>
<path fill="none" stroke="midnightblue" d="M1747.4,-127C1731.87,-127 1716.13,-127 1702.22,-127"/>
<polygon fill="midnightblue" stroke="midnightblue" points="1747.55,-130.5 1757.55,-127 1747.55,-123.5 1747.55,-130.5"/>
</g>
<!-- Node5 -->
<g id="node5" class="node">
<title>Node5</title>
<g id="a_node5"><a xlink:href="telemetry__frame_8h.html#a91def2fbe43510d233815f51bfa65268" target="_top" xlink:title="Tlm Tableのロード">
<polygon fill="white" stroke="black" points="1431,-155.5 1431,-174.5 1538,-174.5 1538,-155.5 1431,-155.5"/>
<text text-anchor="middle" x="1484.5" y="-162.5" font-family="Helvetica,sans-Serif" font-size="10.00">TF_load_tlm_table</text>
</a>
</g>
</g>
<!-- Node4&#45;&gt;Node5 -->
<g id="edge4" class="edge">
<title>Node4&#45;&gt;Node5</title>
<path fill="none" stroke="midnightblue" d="M1591.73,-165C1574.06,-165 1555.02,-165 1538.01,-165"/>
<polygon fill="midnightblue" stroke="midnightblue" points="1591.95,-168.5 1601.95,-165 1591.95,-161.5 1591.95,-168.5"/>
</g>
<!-- Node6 -->
<g id="node6" class="node">
<title>Node6</title>
<g id="a_node6"><a xlink:href="telemetry__frame_8c.html#a76cf4c72318af4ce953abdb8b522e787" target="_top" xlink:title="TF の初期化">
<polygon fill="white" stroke="black" points="1272,-155.5 1272,-174.5 1348,-174.5 1348,-155.5 1272,-155.5"/>
<text text-anchor="middle" x="1310" y="-162.5" font-family="Helvetica,sans-Serif" font-size="10.00">TF_initialize</text>
</a>
</g>
</g>
<!-- Node5&#45;&gt;Node6 -->
<g id="edge5" class="edge">
<title>Node5&#45;&gt;Node6</title>
<path fill="none" stroke="midnightblue" d="M1420.56,-165C1396.21,-165 1369.18,-165 1348.07,-165"/>
<polygon fill="midnightblue" stroke="midnightblue" points="1420.81,-168.5 1430.81,-165 1420.81,-161.5 1420.81,-168.5"/>
</g>
<!-- Node7 -->
<g id="node7" class="node">
<title>Node7</title>
<g id="a_node7"><a xlink:href="c2a__core__main_8c.html#a65ecdc63d8762ffde4db7f6c6e6f07cf" target="_top" xlink:title=" ">
<polygon fill="white" stroke="black" points="253,-152.5 253,-171.5 336,-171.5 336,-152.5 253,-152.5"/>
<text text-anchor="middle" x="294.5" y="-159.5" font-family="Helvetica,sans-Serif" font-size="10.00">C2A_core_init</text>
</a>
</g>
</g>
<!-- Node6&#45;&gt;Node7 -->
<g id="edge6" class="edge">
<title>Node6&#45;&gt;Node7</title>
<path fill="none" stroke="midnightblue" d="M1261.77,-173.34C1197.3,-183.97 1078.04,-201 975.5,-201 975.5,-201 975.5,-201 615.5,-201 514.48,-201 396.83,-181.61 336.22,-170.18"/>
<polygon fill="midnightblue" stroke="midnightblue" points="1262.34,-176.79 1271.63,-171.69 1261.19,-169.88 1262.34,-176.79"/>
</g>
<!-- Node10 -->
<g id="node10" class="node">
<title>Node10</title>
<g id="a_node10"><a xlink:href="telemetry__frame_8c.html#a55747c2a23edb7d30417a4616fe99b57" target="_top" xlink:title=" ">
<polygon fill="white" stroke="black" points="1095,-153.5 1095,-172.5 1176,-172.5 1176,-153.5 1095,-153.5"/>
<text text-anchor="middle" x="1135.5" y="-160.5" font-family="Helvetica,sans-Serif" font-size="10.00">Cmd_TF_INIT</text>
</a>
</g>
</g>
<!-- Node6&#45;&gt;Node10 -->
<g id="edge9" class="edge">
<title>Node6&#45;&gt;Node10</title>
<path fill="none" stroke="midnightblue" d="M1261.67,-164.45C1234.83,-164.14 1201.61,-163.75 1176.15,-163.46"/>
<polygon fill="midnightblue" stroke="midnightblue" points="1261.95,-167.95 1271.99,-164.57 1262.04,-160.96 1261.95,-167.95"/>
</g>
<!-- Node8 -->
<g id="node8" class="node">
<title>Node8</title>
<g id="a_node8"><a xlink:href="c2a__main_8c.html#a630222a80cd8bffd4426d4a55a215069" target="_top" xlink:title=" ">
<polygon fill="white" stroke="black" points="155,-152.5 155,-171.5 217,-171.5 217,-152.5 155,-152.5"/>
<text text-anchor="middle" x="186" y="-159.5" font-family="Helvetica,sans-Serif" font-size="10.00">C2A_init_</text>
</a>
</g>
</g>
<!-- Node7&#45;&gt;Node8 -->
<g id="edge7" class="edge">
<title>Node7&#45;&gt;Node8</title>
<path fill="none" stroke="midnightblue" d="M242.76,-162C234.01,-162 225.17,-162 217.18,-162"/>
<polygon fill="midnightblue" stroke="midnightblue" points="242.93,-165.5 252.93,-162 242.93,-158.5 242.93,-165.5"/>
</g>
<!-- Node9 -->
<g id="node9" class="node">
<title>Node9</title>
<g id="a_node9"><a xlink:href="c2a__main_8c.html#ac3344a311adda8f9e7310924bedf81fc" target="_top" xlink:title=" ">
<polygon fill="white" stroke="black" points="0,-152.5 0,-171.5 119,-171.5 119,-152.5 0,-152.5"/>
<text text-anchor="middle" x="59.5" y="-159.5" font-family="Helvetica,sans-Serif" font-size="10.00">address_fixed_main_</text>
</a>
</g>
</g>
<!-- Node8&#45;&gt;Node9 -->
<g id="edge8" class="edge">
<title>Node8&#45;&gt;Node9</title>
<path fill="none" stroke="midnightblue" d="M144.83,-162C136.62,-162 127.82,-162 119.12,-162"/>
<polygon fill="midnightblue" stroke="midnightblue" points="144.86,-165.5 154.86,-162 144.86,-158.5 144.86,-165.5"/>
</g>
<!-- Node11 -->
<g id="node11" class="node">
<title>Node11</title>
<g id="a_node11"><a xlink:href="command__analyze_8h.html#aa375895192b16d8e7f0ff4545b54e6c4" target="_top" xlink:title="Cmd Tableのロード">
<polygon fill="white" stroke="black" points="918,-134.5 918,-153.5 1031,-153.5 1031,-134.5 918,-134.5"/>
<text text-anchor="middle" x="974.5" y="-141.5" font-family="Helvetica,sans-Serif" font-size="10.00">CA_load_cmd_table</text>
</a>
</g>
</g>
<!-- Node10&#45;&gt;Node11 -->
<g id="edge10" class="edge">
<title>Node10&#45;&gt;Node11</title>
<path fill="none" stroke="midnightblue" d="M1084.54,-157.03C1067.59,-155 1048.55,-152.73 1031.19,-150.65"/>
<polygon fill="midnightblue" stroke="midnightblue" points="1084.44,-160.54 1094.79,-158.25 1085.27,-153.59 1084.44,-160.54"/>
</g>
<!-- Node12 -->
<g id="node12" class="node">
<title>Node12</title>
<g id="a_node12"><a xlink:href="command__analyze_8c.html#ae6d1f376bf4e1c9c4b63bc3f04924c8a" target="_top" xlink:title="CA の初期化">
<polygon fill="white" stroke="black" points="766,-152.5 766,-171.5 843,-171.5 843,-152.5 766,-152.5"/>
<text text-anchor="middle" x="804.5" y="-159.5" font-family="Helvetica,sans-Serif" font-size="10.00">CA_initialize</text>
</a>
</g>
</g>
<!-- Node11&#45;&gt;Node12 -->
<g id="edge11" class="edge">
<title>Node11&#45;&gt;Node12</title>
<path fill="none" stroke="midnightblue" d="M907.36,-151.09C885.58,-153.42 862.11,-155.93 843.2,-157.96"/>
<polygon fill="midnightblue" stroke="midnightblue" points="907.99,-154.54 917.56,-149.99 907.24,-147.58 907.99,-154.54"/>
</g>
<!-- Node12&#45;&gt;Node7 -->
<g id="edge12" class="edge">
<title>Node12&#45;&gt;Node7</title>
<path fill="none" stroke="midnightblue" d="M755.68,-162C656.37,-162 429.29,-162 336.33,-162"/>
<polygon fill="midnightblue" stroke="midnightblue" points="755.73,-165.5 765.73,-162 755.73,-158.5 755.73,-165.5"/>
</g>
<!-- Node13 -->
<g id="node13" class="node">
<title>Node13</title>
<g id="a_node13"><a xlink:href="command__analyze_8c.html#a85d8daea84970ad2895a0209bd350b7b" target="_top" xlink:title=" ">
<polygon fill="white" stroke="black" points="575,-114.5 575,-133.5 658,-133.5 658,-114.5 575,-114.5"/>
<text text-anchor="middle" x="616.5" y="-121.5" font-family="Helvetica,sans-Serif" font-size="10.00">Cmd_CA_INIT</text>
</a>
</g>
</g>
<!-- Node12&#45;&gt;Node13 -->
<g id="edge13" class="edge">
<title>Node12&#45;&gt;Node13</title>
<path fill="none" stroke="midnightblue" d="M755.97,-152.29C725.78,-146.12 687.11,-138.22 658.31,-132.34"/>
<polygon fill="midnightblue" stroke="midnightblue" points="755.36,-155.74 765.86,-154.31 756.76,-148.88 755.36,-155.74"/>
</g>
<!-- Node13&#45;&gt;Node11 -->
<g id="edge14" class="edge">
<title>Node13&#45;&gt;Node11</title>
<path fill="none" stroke="midnightblue" d="M668.25,-126.85C734.34,-130.56 849.47,-137.03 917.88,-140.88"/>
<polygon fill="midnightblue" stroke="midnightblue" points="668.26,-123.35 658.08,-126.28 667.87,-130.34 668.26,-123.35"/>
</g>
<!-- Node14&#45;&gt;Node5 -->
<g id="edge16" class="edge">
<title>Node14&#45;&gt;Node5</title>
<path fill="none" stroke="midnightblue" d="M1601.91,-138.82C1578.09,-144.18 1550.29,-150.43 1527.84,-155.48"/>
<polygon fill="midnightblue" stroke="midnightblue" points="1602.87,-142.2 1611.85,-136.59 1601.33,-135.37 1602.87,-142.2"/>
</g>
<!-- Node16 -->
<g id="node16" class="node">
<title>Node16</title>
<g id="a_node16"><a xlink:href="aobc__telemetry__buffer_8c.html#ad9b52088d5f385af72dc6663981f31dc" target="_top" xlink:title=" ">
<polygon fill="white" stroke="black" points="1416,-41.5 1416,-60.5 1553,-60.5 1553,-41.5 1416,-41.5"/>
<text text-anchor="middle" x="1484.5" y="-48.5" font-family="Helvetica,sans-Serif" font-size="10.00">AOBC_buffer_tlm_packet</text>
</a>
</g>
</g>
<!-- Node15&#45;&gt;Node16 -->
<g id="edge18" class="edge">
<title>Node15&#45;&gt;Node16</title>
<path fill="none" stroke="midnightblue" d="M1579.1,-51C1570.47,-51 1561.71,-51 1553.18,-51"/>
<polygon fill="midnightblue" stroke="midnightblue" points="1579.16,-54.5 1589.16,-51 1579.16,-47.5 1579.16,-54.5"/>
</g>
<!-- Node17 -->
<g id="node17" class="node">
<title>Node17</title>
<g id="a_node17"><a xlink:href="aobc_8c.html#abb166b8bf407374a9f89f7cce4dd9f44" target="_top" xlink:title=" ">
<polygon fill="white" stroke="black" points="1240,-49.5 1240,-68.5 1380,-68.5 1380,-49.5 1240,-49.5"/>
<text text-anchor="middle" x="1310" y="-56.5" font-family="Helvetica,sans-Serif" font-size="10.00">AOBC_analyze_rec_data_</text>
</a>
</g>
</g>
<!-- Node16&#45;&gt;Node17 -->
<g id="edge19" class="edge">
<title>Node16&#45;&gt;Node17</title>
<path fill="none" stroke="midnightblue" d="M1405.57,-54.61C1397.11,-55.01 1388.54,-55.4 1380.19,-55.79"/>
<polygon fill="midnightblue" stroke="midnightblue" points="1405.99,-58.1 1415.82,-54.14 1405.67,-51.11 1405.99,-58.1"/>
</g>
<!-- Node18 -->
<g id="node18" class="node">
<title>Node18</title>
<g id="a_node18"><a xlink:href="aobc_8c.html#ace8c524e6d1fe0054e4db53f9fbc0a26" target="_top" xlink:title=" ">
<polygon fill="white" stroke="black" points="1067,-53 1067,-83 1204,-83 1204,-53 1067,-53"/>
<text text-anchor="start" x="1075" y="-71" font-family="Helvetica,sans-Serif" font-size="10.00">AOBC_load_driver_super</text>
<text text-anchor="middle" x="1135.5" y="-60" font-family="Helvetica,sans-Serif" font-size="10.00">_init_settings_</text>
</a>
</g>
</g>
<!-- Node17&#45;&gt;Node18 -->
<g id="edge20" class="edge">
<title>Node17&#45;&gt;Node18</title>
<path fill="none" stroke="midnightblue" d="M1229.58,-63.14C1221.13,-63.58 1212.58,-64.03 1204.28,-64.46"/>
<polygon fill="midnightblue" stroke="midnightblue" points="1230.03,-66.63 1239.83,-62.61 1229.66,-59.63 1230.03,-66.63"/>
</g>
<!-- Node19 -->
<g id="node19" class="node">
<title>Node19</title>
<g id="a_node19"><a xlink:href="aobc_8c.html#a20e32b3490955158653ced576349e612" target="_top" xlink:title="AOBC 初期化">
<polygon fill="white" stroke="black" points="942,-67.5 942,-86.5 1007,-86.5 1007,-67.5 942,-67.5"/>
<text text-anchor="middle" x="974.5" y="-74.5" font-family="Helvetica,sans-Serif" font-size="10.00">AOBC_init</text>
</a>
</g>
</g>
<!-- Node18&#45;&gt;Node19 -->
<g id="edge21" class="edge">
<title>Node18&#45;&gt;Node19</title>
<path fill="none" stroke="midnightblue" d="M1056.41,-72.42C1039.03,-73.4 1021.56,-74.39 1007.33,-75.2"/>
<polygon fill="midnightblue" stroke="midnightblue" points="1056.82,-75.9 1066.61,-71.84 1056.43,-68.91 1056.82,-75.9"/>
</g>
<!-- Node20 -->
<g id="node20" class="node">
<title>Node20</title>
<g id="a_node20"><a xlink:href="di__aobc_8c.html#ac004552dc331c8fea7b0b6f2acd75a15" target="_top" xlink:title=" ">
<polygon fill="white" stroke="black" points="761.5,-76.5 761.5,-95.5 847.5,-95.5 847.5,-76.5 761.5,-76.5"/>
<text text-anchor="middle" x="804.5" y="-83.5" font-family="Helvetica,sans-Serif" font-size="10.00">DI_AOBC_init_</text>
</a>
</g>
</g>
<!-- Node19&#45;&gt;Node20 -->
<g id="edge22" class="edge">
<title>Node19&#45;&gt;Node20</title>
<path fill="none" stroke="midnightblue" d="M931.75,-79.24C906.14,-80.61 873.45,-82.36 847.74,-83.74"/>
<polygon fill="midnightblue" stroke="midnightblue" points="932.1,-82.72 941.9,-78.69 931.73,-75.73 932.1,-82.72"/>
</g>
<!-- Node21 -->
<g id="node21" class="node">
<title>Node21</title>
<g id="a_node21"><a xlink:href="di__aobc_8c.html#a78f30ebb5b71301c1da6d10eac787db4" target="_top" xlink:title="AOBC update アプリ生成関数">
<polygon fill="white" stroke="black" points="567,-76.5 567,-95.5 666,-95.5 666,-76.5 567,-76.5"/>
<text text-anchor="middle" x="616.5" y="-83.5" font-family="Helvetica,sans-Serif" font-size="10.00">DI_AOBC_update</text>
</a>
</g>
</g>
<!-- Node20&#45;&gt;Node21 -->
<g id="edge23" class="edge">
<title>Node20&#45;&gt;Node21</title>
<path fill="none" stroke="midnightblue" d="M751,-86C724.35,-86 692.19,-86 666.11,-86"/>
<polygon fill="midnightblue" stroke="midnightblue" points="751.29,-89.5 761.29,-86 751.29,-82.5 751.29,-89.5"/>
</g>
<!-- Node22 -->
<g id="node22" class="node">
<title>Node22</title>
<g id="a_node22"><a xlink:href="app__registry_8c.html#ab944b1d78a41e427bc2ed57f9c4e9534" target="_top" xlink:title=" ">
<polygon fill="white" stroke="black" points="372,-57.5 372,-76.5 506,-76.5 506,-57.5 372,-57.5"/>
<text text-anchor="middle" x="439" y="-64.5" font-family="Helvetica,sans-Serif" font-size="10.00">AR_load_initial_settings</text>
</a>
</g>
</g>
<!-- Node21&#45;&gt;Node22 -->
<g id="edge24" class="edge">
<title>Node21&#45;&gt;Node22</title>
<path fill="none" stroke="midnightblue" d="M556.24,-79.58C540.09,-77.84 522.5,-75.93 506.01,-74.15"/>
<polygon fill="midnightblue" stroke="midnightblue" points="556.29,-83.11 566.61,-80.71 557.05,-76.15 556.29,-83.11"/>
</g>
<!-- Node22&#45;&gt;Node7 -->
<g id="edge25" class="edge">
<title>Node22&#45;&gt;Node7</title>
<path fill="none" stroke="midnightblue" d="M415.09,-82.27C385.47,-102.02 334.76,-135.82 309.99,-152.34"/>
<polygon fill="midnightblue" stroke="midnightblue" points="417.17,-85.09 423.55,-76.63 413.29,-79.27 417.17,-85.09"/>
</g>
<!-- Node23&#45;&gt;Node15 -->
<g id="edge27" class="edge">
<title>Node23&#45;&gt;Node15</title>
<path fill="none" stroke="midnightblue" d="M1775.3,-77.25C1750.98,-71.87 1722.55,-65.59 1699.59,-60.52"/>
<polygon fill="midnightblue" stroke="midnightblue" points="1774.58,-80.67 1785.1,-79.41 1776.09,-73.84 1774.58,-80.67"/>
</g>
<!-- Node24 -->
<g id="node24" class="node">
<title>Node24</title>
<g id="a_node24"><a xlink:href="packet__handler_8c.html#a26d6fa7512d02ca9bb3a0bf700beaad3" target="_top" xlink:title="CTP を解析する">
<polygon fill="white" stroke="black" points="1589,-79.5 1589,-98.5 1722,-98.5 1722,-79.5 1589,-79.5"/>
<text text-anchor="middle" x="1655.5" y="-86.5" font-family="Helvetica,sans-Serif" font-size="10.00">PH_analyze_tlm_packet</text>
</a>
</g>
</g>
<!-- Node23&#45;&gt;Node24 -->
<g id="edge28" class="edge">
<title>Node23&#45;&gt;Node24</title>
<path fill="none" stroke="midnightblue" d="M1761.1,-89C1748.29,-89 1734.9,-89 1722.15,-89"/>
<polygon fill="midnightblue" stroke="midnightblue" points="1761.23,-92.5 1771.23,-89 1761.23,-85.5 1761.23,-92.5"/>
</g>
<!-- Node25 -->
<g id="node25" class="node">
<title>Node25</title>
<g id="a_node25"><a xlink:href="telemetry__generator_8c.html#a2fcc5d200854a9af5ab4a3d140419093" target="_top" xlink:title=" ">
<polygon fill="white" stroke="black" points="1249,-116.5 1249,-135.5 1371,-135.5 1371,-116.5 1249,-116.5"/>
<text text-anchor="middle" x="1310" y="-123.5" font-family="Helvetica,sans-Serif" font-size="10.00">Cmd_GENERATE_TLM</text>
</a>
</g>
</g>
<!-- Node24&#45;&gt;Node25 -->
<g id="edge29" class="edge">
<title>Node24&#45;&gt;Node25</title>
<path fill="none" stroke="midnightblue" d="M1599.32,-100.48C1584.34,-103.28 1568.09,-106.03 1553,-108 1491.38,-116.03 1420.43,-120.79 1371.36,-123.37"/>
<polygon fill="midnightblue" stroke="midnightblue" points="1600.28,-103.86 1609.45,-98.54 1598.97,-96.98 1600.28,-103.86"/>
</g>
<!-- Node26 -->
<g id="node26" class="node">
<title>Node26</title>
<g id="a_node26"><a xlink:href="packet__handler_8c.html#acf757fa72967bf66b39dc5ced7132330" target="_top" xlink:title="CTCP を解析する">
<polygon fill="white" stroke="black" points="1429,-79.5 1429,-98.5 1540,-98.5 1540,-79.5 1429,-79.5"/>
<text text-anchor="middle" x="1484.5" y="-86.5" font-family="Helvetica,sans-Serif" font-size="10.00">PH_analyze_packet</text>
</a>
</g>
</g>
<!-- Node24&#45;&gt;Node26 -->
<g id="edge31" class="edge">
<title>Node24&#45;&gt;Node26</title>
<path fill="none" stroke="midnightblue" d="M1578.43,-89C1565.55,-89 1552.4,-89 1540.21,-89"/>
<polygon fill="midnightblue" stroke="midnightblue" points="1578.68,-92.5 1588.68,-89 1578.68,-85.5 1578.68,-92.5"/>
</g>
<!-- Node25&#45;&gt;Node11 -->
<g id="edge30" class="edge">
<title>Node25&#45;&gt;Node11</title>
<path fill="none" stroke="midnightblue" d="M1238.93,-129.78C1177.11,-133.12 1088.2,-137.92 1031.15,-141"/>
<polygon fill="midnightblue" stroke="midnightblue" points="1239.19,-133.27 1248.99,-129.24 1238.82,-126.28 1239.19,-133.27"/>
</g>
<!-- Node28 -->
<g id="node28" class="node">
<title>Node28</title>
<g id="a_node28"><a xlink:href="di__gs_8c.html#ab60fae9ad2c806b6ba10cb8a076d07c0" target="_top" xlink:title=" ">
<polygon fill="white" stroke="black" points="727,-38.5 727,-57.5 882,-57.5 882,-38.5 727,-38.5"/>
<text text-anchor="middle" x="804.5" y="-45.5" font-family="Helvetica,sans-Serif" font-size="10.00">DI_GS_mst_packet_handler_</text>
</a>
</g>
</g>
<!-- Node27&#45;&gt;Node28 -->
<g id="edge33" class="edge">
<title>Node27&#45;&gt;Node28</title>
<path fill="none" stroke="midnightblue" d="M917.61,-24.64C896.1,-29.13 871.81,-34.19 851.35,-38.45"/>
<polygon fill="midnightblue" stroke="midnightblue" points="918.52,-28.03 927.59,-22.56 917.09,-21.18 918.52,-28.03"/>
</g>
<!-- Node30 -->
<g id="node30" class="node">
<title>Node30</title>
<g id="a_node30"><a xlink:href="di__gs_8c.html#ab2b3fada377f7de06881f4654946baeb" target="_top" xlink:title=" ">
<polygon fill="white" stroke="black" points="730,-0.5 730,-19.5 879,-19.5 879,-0.5 730,-0.5"/>
<text text-anchor="middle" x="804.5" y="-7.5" font-family="Helvetica,sans-Serif" font-size="10.00">DI_GS_rpt_packet_handler_</text>
</a>
</g>
</g>
<!-- Node27&#45;&gt;Node30 -->
<g id="edge36" class="edge">
<title>Node27&#45;&gt;Node30</title>
<path fill="none" stroke="midnightblue" d="M912.08,-11.9C901.35,-11.71 890.09,-11.51 879.08,-11.31"/>
<polygon fill="midnightblue" stroke="midnightblue" points="912.12,-15.4 922.18,-12.08 912.25,-8.41 912.12,-15.4"/>
</g>
<!-- Node29 -->
<g id="node29" class="node">
<title>Node29</title>
<g id="a_node29"><a xlink:href="di__gs_8c.html#acdcbf3a0e68de63d2078e808e87cd0e7" target="_top" xlink:title=" ">
<polygon fill="white" stroke="black" points="542,-38.5 542,-57.5 691,-57.5 691,-38.5 542,-38.5"/>
<text text-anchor="middle" x="616.5" y="-45.5" font-family="Helvetica,sans-Serif" font-size="10.00">DI_GS_mst_packet_handler</text>
</a>
</g>
</g>
<!-- Node28&#45;&gt;Node29 -->
<g id="edge34" class="edge">
<title>Node28&#45;&gt;Node29</title>
<path fill="none" stroke="midnightblue" d="M716.74,-48C708.15,-48 699.49,-48 691.06,-48"/>
<polygon fill="midnightblue" stroke="midnightblue" points="716.77,-51.5 726.77,-48 716.77,-44.5 716.77,-51.5"/>
</g>
<!-- Node29&#45;&gt;Node22 -->
<g id="edge35" class="edge">
<title>Node29&#45;&gt;Node22</title>
<path fill="none" stroke="midnightblue" d="M531.8,-57.06C523.21,-57.99 514.58,-58.93 506.22,-59.83"/>
<polygon fill="midnightblue" stroke="midnightblue" points="532.27,-60.53 541.84,-55.98 531.52,-53.57 532.27,-60.53"/>
</g>
<!-- Node31 -->
<g id="node31" class="node">
<title>Node31</title>
<g id="a_node31"><a xlink:href="di__gs_8c.html#a3dbaf7df7b7ed796ff4823ca28dca18c" target="_top" xlink:title=" ">
<polygon fill="white" stroke="black" points="544.5,-0.5 544.5,-19.5 688.5,-19.5 688.5,-0.5 544.5,-0.5"/>
<text text-anchor="middle" x="616.5" y="-7.5" font-family="Helvetica,sans-Serif" font-size="10.00">DI_GS_rpt_packet_handler</text>
</a>
</g>
</g>
<!-- Node30&#45;&gt;Node31 -->
<g id="edge37" class="edge">
<title>Node30&#45;&gt;Node31</title>
<path fill="none" stroke="midnightblue" d="M719.69,-10C709.33,-10 698.81,-10 688.66,-10"/>
<polygon fill="midnightblue" stroke="midnightblue" points="719.99,-13.5 729.99,-10 719.99,-6.5 719.99,-13.5"/>
</g>
<!-- Node31&#45;&gt;Node22 -->
<g id="edge38" class="edge">
<title>Node31&#45;&gt;Node22</title>
<path fill="none" stroke="midnightblue" d="M565.94,-22.06C557.89,-24.23 549.69,-26.58 542,-29 514.78,-37.56 484.18,-49.25 463.66,-57.39"/>
<polygon fill="midnightblue" stroke="midnightblue" points="566.84,-25.44 575.62,-19.51 565.05,-18.68 566.84,-25.44"/>
</g>
</g>
</svg>
