<?xml version="1.0" encoding="UTF-8" standalone="no"?>
<!DOCTYPE svg PUBLIC "-//W3C//DTD SVG 1.1//EN"
 "http://www.w3.org/Graphics/SVG/1.1/DTD/svg11.dtd">
<!-- Generated by graphviz version 2.43.0 (0)
 -->
<!-- Title: src/src_core/Applications/utility_counter.c Pages: 1 -->
<svg width="1367pt" height="653pt"
 viewBox="0.00 0.00 1366.84 653.00" xmlns="http://www.w3.org/2000/svg" xmlns:xlink="http://www.w3.org/1999/xlink">
<g id="graph0" class="graph" transform="scale(1 1) rotate(0) translate(4 649)">
<title>src/src_core/Applications/utility_counter.c</title>
<polygon fill="white" stroke="transparent" points="-4,4 -4,-649 1362.84,-649 1362.84,4 -4,4"/>
<!-- Node1 -->
<g id="node1" class="node">
<title>Node1</title>
<g id="a_node1"><a xlink:title=" ">
<polygon fill="#bfbfbf" stroke="black" points="660.84,-614.5 660.84,-644.5 797.84,-644.5 797.84,-614.5 660.84,-614.5"/>
<text text-anchor="start" x="668.84" y="-632.5" font-family="Helvetica,sans-Serif" font-size="10.00">src/src_core/Applications</text>
<text text-anchor="middle" x="729.34" y="-621.5" font-family="Helvetica,sans-Serif" font-size="10.00">/utility_counter.c</text>
</a>
</g>
</g>
<!-- Node2 -->
<g id="node2" class="node">
<title>Node2</title>
<g id="a_node2"><a xlink:href="utility__counter_8h.html" target="_top" xlink:title=" ">
<polygon fill="white" stroke="black" points="650.84,-430 650.84,-449 745.84,-449 745.84,-430 650.84,-430"/>
<text text-anchor="middle" x="698.34" y="-437" font-family="Helvetica,sans-Serif" font-size="10.00">utility_counter.h</text>
</a>
</g>
</g>
<!-- Node1&#45;&gt;Node2 -->
<g id="edge1" class="edge">
<title>Node1&#45;&gt;Node2</title>
<path fill="none" stroke="midnightblue" d="M724.33,-614.08C721.03,-604.07 716.87,-590.36 714.34,-578 705.76,-536.16 701.38,-486.16 699.5,-459.48"/>
<polygon fill="midnightblue" stroke="midnightblue" points="702.98,-459.02 698.83,-449.27 696,-459.48 702.98,-459.02"/>
</g>
<!-- Node8 -->
<g id="node8" class="node">
<title>Node8</title>
<g id="a_node8"><a xlink:href="anomaly__logger_8h.html" target="_top" xlink:title=" ">
<polygon fill="white" stroke="black" points="612.34,-357.5 612.34,-387.5 754.34,-387.5 754.34,-357.5 612.34,-357.5"/>
<text text-anchor="start" x="620.34" y="-375.5" font-family="Helvetica,sans-Serif" font-size="10.00">../System/AnomalyLogger</text>
<text text-anchor="middle" x="683.34" y="-364.5" font-family="Helvetica,sans-Serif" font-size="10.00">/anomaly_logger.h</text>
</a>
</g>
</g>
<!-- Node1&#45;&gt;Node8 -->
<g id="edge51" class="edge">
<title>Node1&#45;&gt;Node8</title>
<path fill="none" stroke="midnightblue" d="M719.03,-614.11C699.25,-585.5 656.57,-518.73 641.34,-455 638.13,-441.6 636.65,-436.96 641.34,-424 645.21,-413.27 652.47,-403.22 659.88,-394.95"/>
<polygon fill="midnightblue" stroke="midnightblue" points="662.53,-397.24 666.92,-387.6 657.48,-392.4 662.53,-397.24"/>
</g>
<!-- Node18 -->
<g id="node18" class="node">
<title>Node18</title>
<g id="a_node18"><a xlink:href="packet__handler_8h.html" target="_top" xlink:title="C2A 全体を流れる Common Packet の配送を制御する">
<polygon fill="white" stroke="black" points="723.34,-558.5 723.34,-577.5 875.34,-577.5 875.34,-558.5 723.34,-558.5"/>
<text text-anchor="middle" x="799.34" y="-565.5" font-family="Helvetica,sans-Serif" font-size="10.00">../TlmCmd/packet_handler.h</text>
</a>
</g>
</g>
<!-- Node1&#45;&gt;Node18 -->
<g id="edge20" class="edge">
<title>Node1&#45;&gt;Node18</title>
<path fill="none" stroke="midnightblue" d="M745.92,-614.4C756.62,-605.31 770.52,-593.49 781.46,-584.19"/>
<polygon fill="midnightblue" stroke="midnightblue" points="783.8,-586.8 789.15,-577.66 779.26,-581.47 783.8,-586.8"/>
</g>
<!-- Node31 -->
<g id="node31" class="node">
<title>Node31</title>
<g id="a_node31"><a xlink:title=" ">
<polygon fill="white" stroke="#bfbfbf" points="893.84,-558.5 893.84,-577.5 946.84,-577.5 946.84,-558.5 893.84,-558.5"/>
<text text-anchor="middle" x="920.34" y="-565.5" font-family="Helvetica,sans-Serif" font-size="10.00">string.h</text>
</a>
</g>
</g>
<!-- Node1&#45;&gt;Node31 -->
<g id="edge52" class="edge">
<title>Node1&#45;&gt;Node31</title>
<path fill="none" stroke="midnightblue" d="M774.6,-614.4C808.05,-603.98 852.98,-589.98 884.08,-580.3"/>
<polygon fill="midnightblue" stroke="midnightblue" points="885.15,-583.63 893.65,-577.31 883.06,-576.95 885.15,-583.63"/>
</g>
<!-- Node3 -->
<g id="node3" class="node">
<title>Node3</title>
<g id="a_node3"><a xlink:href="app__info_8h.html" target="_top" xlink:title="App 情報構造体定義と App 作成">
<polygon fill="white" stroke="black" points="810.84,-357.5 810.84,-387.5 973.84,-387.5 973.84,-357.5 810.84,-357.5"/>
<text text-anchor="start" x="818.84" y="-375.5" font-family="Helvetica,sans-Serif" font-size="10.00">../System/ApplicationManager</text>
<text text-anchor="middle" x="892.34" y="-364.5" font-family="Helvetica,sans-Serif" font-size="10.00">/app_info.h</text>
</a>
</g>
</g>
<!-- Node2&#45;&gt;Node3 -->
<g id="edge2" class="edge">
<title>Node2&#45;&gt;Node3</title>
<path fill="none" stroke="midnightblue" d="M724.1,-429.87C753.71,-419.95 803.07,-403.41 840.69,-390.81"/>
<polygon fill="midnightblue" stroke="midnightblue" points="842.1,-394.02 850.47,-387.53 839.87,-387.39 842.1,-394.02"/>
</g>
<!-- Node2&#45;&gt;Node8 -->
<g id="edge7" class="edge">
<title>Node2&#45;&gt;Node8</title>
<path fill="none" stroke="midnightblue" d="M696.31,-429.73C694.4,-421.46 691.45,-408.66 688.84,-397.37"/>
<polygon fill="midnightblue" stroke="midnightblue" points="692.25,-396.55 686.59,-387.59 685.43,-398.12 692.25,-396.55"/>
</g>
<!-- Node10 -->
<g id="node10" class="node">
<title>Node10</title>
<g id="a_node10"><a xlink:href="common__cmd__packet_8h.html" target="_top" xlink:title="CCP 関連基本関数の宣言">
<polygon fill="white" stroke="black" points="903.34,-218 903.34,-248 1025.34,-248 1025.34,-218 903.34,-218"/>
<text text-anchor="start" x="911.34" y="-236" font-family="Helvetica,sans-Serif" font-size="10.00">../../TlmCmd/common</text>
<text text-anchor="middle" x="964.34" y="-225" font-family="Helvetica,sans-Serif" font-size="10.00">_cmd_packet.h</text>
</a>
</g>
</g>
<!-- Node2&#45;&gt;Node10 -->
<g id="edge19" class="edge">
<title>Node2&#45;&gt;Node10</title>
<path fill="none" stroke="midnightblue" d="M709.91,-429.64C722.96,-419.62 744.78,-402.78 763.34,-388 780.39,-374.42 781.85,-366.77 801.34,-357 860.31,-327.44 899.39,-368.34 945.34,-321 961.34,-304.51 965.17,-277.83 965.56,-258.36"/>
<polygon fill="midnightblue" stroke="midnightblue" points="969.06,-258.1 965.47,-248.13 962.06,-258.16 969.06,-258.1"/>
</g>
<!-- Node4 -->
<g id="node4" class="node">
<title>Node4</title>
<g id="a_node4"><a xlink:href="obc__time_8h.html" target="_top" xlink:title="OBCの時刻情報の定義と演算">
<polygon fill="white" stroke="black" points="757.84,-145.5 757.84,-175.5 870.84,-175.5 870.84,-145.5 757.84,-145.5"/>
<text text-anchor="start" x="765.84" y="-163.5" font-family="Helvetica,sans-Serif" font-size="10.00">../TimeManager/obc</text>
<text text-anchor="middle" x="814.34" y="-152.5" font-family="Helvetica,sans-Serif" font-size="10.00">_time.h</text>
</a>
</g>
</g>
<!-- Node3&#45;&gt;Node4 -->
<g id="edge3" class="edge">
<title>Node3&#45;&gt;Node4</title>
<path fill="none" stroke="midnightblue" d="M886.26,-357.43C881.96,-347.34 876.13,-333.4 871.34,-321 852.87,-273.19 833.12,-216.55 822.4,-185.26"/>
<polygon fill="midnightblue" stroke="midnightblue" points="825.67,-184 819.13,-175.67 819.05,-186.27 825.67,-184"/>
</g>
<!-- Node5 -->
<g id="node5" class="node">
<title>Node5</title>
<g id="a_node5"><a xlink:href="stdint_8h.html" target="_top" xlink:title=" ">
<polygon fill="white" stroke="black" points="669.34,-84 669.34,-103 803.34,-103 803.34,-84 669.34,-84"/>
<text text-anchor="middle" x="736.34" y="-91" font-family="Helvetica,sans-Serif" font-size="10.00">src_user/Library/stdint.h</text>
</a>
</g>
</g>
<!-- Node4&#45;&gt;Node5 -->
<g id="edge4" class="edge">
<title>Node4&#45;&gt;Node5</title>
<path fill="none" stroke="midnightblue" d="M797.41,-145.4C784.77,-134.86 767.51,-120.48 754.56,-109.69"/>
<polygon fill="midnightblue" stroke="midnightblue" points="756.69,-106.91 746.77,-103.19 752.21,-112.29 756.69,-106.91"/>
</g>
<!-- Node7 -->
<g id="node7" class="node">
<title>Node7</title>
<g id="a_node7"><a xlink:href="obc__time__params_8h.html" target="_top" xlink:title="OBCTのCoreパラメタのオーバーライド用ヘッダー">
<polygon fill="white" stroke="black" points="821.34,-78.5 821.34,-108.5 961.34,-108.5 961.34,-78.5 821.34,-78.5"/>
<text text-anchor="start" x="829.34" y="-96.5" font-family="Helvetica,sans-Serif" font-size="10.00">src_user/Settings/System</text>
<text text-anchor="middle" x="891.34" y="-85.5" font-family="Helvetica,sans-Serif" font-size="10.00">/obc_time_params.h</text>
</a>
</g>
</g>
<!-- Node4&#45;&gt;Node7 -->
<g id="edge6" class="edge">
<title>Node4&#45;&gt;Node7</title>
<path fill="none" stroke="midnightblue" d="M831.04,-145.4C841.54,-136.54 855.25,-124.96 866.95,-115.09"/>
<polygon fill="midnightblue" stroke="midnightblue" points="869.28,-117.7 874.66,-108.58 864.76,-112.35 869.28,-117.7"/>
</g>
<!-- Node6 -->
<g id="node6" class="node">
<title>Node6</title>
<g id="a_node6"><a xlink:href="sils__define_8h.html" target="_top" xlink:title="Switch the build settings between your real OBC and SILS">
<polygon fill="white" stroke="black" points="671.84,-11.5 671.84,-30.5 800.84,-30.5 800.84,-11.5 671.84,-11.5"/>
<text text-anchor="middle" x="736.34" y="-18.5" font-family="Helvetica,sans-Serif" font-size="10.00">../Settings/sils_define.h</text>
</a>
</g>
</g>
<!-- Node5&#45;&gt;Node6 -->
<g id="edge5" class="edge">
<title>Node5&#45;&gt;Node6</title>
<path fill="none" stroke="midnightblue" d="M736.34,-83.86C736.34,-73.18 736.34,-54.72 736.34,-40.73"/>
<polygon fill="midnightblue" stroke="midnightblue" points="739.84,-40.72 736.34,-30.72 732.84,-40.72 739.84,-40.72"/>
</g>
<!-- Node8&#45;&gt;Node4 -->
<g id="edge9" class="edge">
<title>Node8&#45;&gt;Node4</title>
<path fill="none" stroke="midnightblue" d="M712.3,-357.45C727.53,-348.79 745.45,-336.39 757.34,-321 789.15,-279.81 804.22,-219.33 810.49,-185.93"/>
<polygon fill="midnightblue" stroke="midnightblue" points="814,-186.16 812.29,-175.7 807.11,-184.95 814,-186.16"/>
</g>
<!-- Node9 -->
<g id="node9" class="node">
<title>Node9</title>
<g id="a_node9"><a xlink:title=" ">
<polygon fill="white" stroke="#bfbfbf" points="880.34,-296 880.34,-315 936.34,-315 936.34,-296 880.34,-296"/>
<text text-anchor="middle" x="908.34" y="-303" font-family="Helvetica,sans-Serif" font-size="10.00">stddef.h</text>
</a>
</g>
</g>
<!-- Node8&#45;&gt;Node9 -->
<g id="edge8" class="edge">
<title>Node8&#45;&gt;Node9</title>
<path fill="none" stroke="midnightblue" d="M737.65,-357.48C774.19,-347.8 823.37,-334.33 866.34,-321 869.1,-320.14 871.95,-319.23 874.81,-318.28"/>
<polygon fill="midnightblue" stroke="midnightblue" points="876.07,-321.55 884.43,-315.04 873.84,-314.92 876.07,-321.55"/>
</g>
<!-- Node8&#45;&gt;Node10 -->
<g id="edge10" class="edge">
<title>Node8&#45;&gt;Node10</title>
<path fill="none" stroke="midnightblue" d="M713.86,-357.32C735.32,-347.29 764.65,-333.48 790.34,-321 838.02,-297.83 892.65,-270.36 927.78,-252.58"/>
<polygon fill="midnightblue" stroke="midnightblue" points="929.37,-255.7 936.71,-248.06 926.2,-249.45 929.37,-255.7"/>
</g>
<!-- Node16 -->
<g id="node16" class="node">
<title>Node16</title>
<g id="a_node16"><a xlink:href="anomaly__group_8h.html" target="_top" xlink:title=" ">
<polygon fill="white" stroke="black" points="602.34,-290.5 602.34,-320.5 748.34,-320.5 748.34,-290.5 602.34,-290.5"/>
<text text-anchor="start" x="610.34" y="-308.5" font-family="Helvetica,sans-Serif" font-size="10.00">src_user/Settings/Anomaly</text>
<text text-anchor="middle" x="675.34" y="-297.5" font-family="Helvetica,sans-Serif" font-size="10.00">Logger/anomaly_group.h</text>
</a>
</g>
</g>
<!-- Node8&#45;&gt;Node16 -->
<g id="edge17" class="edge">
<title>Node8&#45;&gt;Node16</title>
<path fill="none" stroke="midnightblue" d="M681.6,-357.4C680.64,-349.56 679.41,-339.6 678.3,-330.57"/>
<polygon fill="midnightblue" stroke="midnightblue" points="681.76,-330.07 677.07,-320.58 674.82,-330.93 681.76,-330.07"/>
</g>
<!-- Node17 -->
<g id="node17" class="node">
<title>Node17</title>
<g id="a_node17"><a xlink:href="anomaly__logger__params_8h.html" target="_top" xlink:title="ALのCoreパラメタのオーバーライド用ヘッダー">
<polygon fill="white" stroke="black" points="434.84,-290.5 434.84,-320.5 583.84,-320.5 583.84,-290.5 434.84,-290.5"/>
<text text-anchor="start" x="442.84" y="-308.5" font-family="Helvetica,sans-Serif" font-size="10.00">src_user/Settings/System</text>
<text text-anchor="middle" x="509.34" y="-297.5" font-family="Helvetica,sans-Serif" font-size="10.00">/anomaly_logger_params.h</text>
</a>
</g>
</g>
<!-- Node8&#45;&gt;Node17 -->
<g id="edge18" class="edge">
<title>Node8&#45;&gt;Node17</title>
<path fill="none" stroke="midnightblue" d="M645.58,-357.4C619.47,-347.64 584.54,-334.59 556.59,-324.15"/>
<polygon fill="midnightblue" stroke="midnightblue" points="557.61,-320.8 547.02,-320.58 555.16,-327.35 557.61,-320.8"/>
</g>
<!-- Node10&#45;&gt;Node4 -->
<g id="edge11" class="edge">
<title>Node10&#45;&gt;Node4</title>
<path fill="none" stroke="midnightblue" d="M934.34,-217.9C911.14,-207 878.83,-191.81 853.58,-179.94"/>
<polygon fill="midnightblue" stroke="midnightblue" points="854.82,-176.66 844.28,-175.57 851.84,-182.99 854.82,-176.66"/>
</g>
<!-- Node11 -->
<g id="node11" class="node">
<title>Node11</title>
<g id="a_node11"><a xlink:href="command__definitions_8h.html" target="_top" xlink:title="コマンド定義">
<polygon fill="white" stroke="black" points="888.84,-145.5 888.84,-175.5 1041.84,-175.5 1041.84,-145.5 888.84,-145.5"/>
<text text-anchor="start" x="896.84" y="-163.5" font-family="Helvetica,sans-Serif" font-size="10.00">src_user/TlmCmd/command</text>
<text text-anchor="middle" x="965.34" y="-152.5" font-family="Helvetica,sans-Serif" font-size="10.00">_definitions.h</text>
</a>
</g>
</g>
<!-- Node10&#45;&gt;Node11 -->
<g id="edge12" class="edge">
<title>Node10&#45;&gt;Node11</title>
<path fill="none" stroke="midnightblue" d="M964.54,-217.73C964.67,-208.66 964.84,-196.66 964.99,-186.08"/>
<polygon fill="midnightblue" stroke="midnightblue" points="968.49,-185.79 965.13,-175.75 961.49,-185.69 968.49,-185.79"/>
</g>
<!-- Node12 -->
<g id="node12" class="node">
<title>Node12</title>
<g id="a_node12"><a xlink:href="common__cmd__packet__define_8h.html" target="_top" xlink:title="CCP 型の定義">
<polygon fill="white" stroke="black" points="569.34,-145.5 569.34,-175.5 739.34,-175.5 739.34,-145.5 569.34,-145.5"/>
<text text-anchor="start" x="577.34" y="-163.5" font-family="Helvetica,sans-Serif" font-size="10.00">src_user/Settings/TlmCmd</text>
<text text-anchor="middle" x="654.34" y="-152.5" font-family="Helvetica,sans-Serif" font-size="10.00">/common_cmd_packet_define.h</text>
</a>
</g>
</g>
<!-- Node10&#45;&gt;Node12 -->
<g id="edge13" class="edge">
<title>Node10&#45;&gt;Node12</title>
<path fill="none" stroke="midnightblue" d="M903.09,-218.07C852.09,-206.47 779.41,-189.94 725.77,-177.75"/>
<polygon fill="midnightblue" stroke="midnightblue" points="726.51,-174.32 715.98,-175.52 724.96,-181.15 726.51,-174.32"/>
</g>
<!-- Node15 -->
<g id="node15" class="node">
<title>Node15</title>
<g id="a_node15"><a xlink:href="apid__define_8h.html" target="_top" xlink:title="CCSDS の APID を定義する">
<polygon fill="white" stroke="black" points="369.34,-145.5 369.34,-175.5 513.34,-175.5 513.34,-145.5 369.34,-145.5"/>
<text text-anchor="start" x="377.34" y="-163.5" font-family="Helvetica,sans-Serif" font-size="10.00">src_user/Settings/TlmCmd</text>
<text text-anchor="middle" x="441.34" y="-152.5" font-family="Helvetica,sans-Serif" font-size="10.00">/Ccsds/apid_define.h</text>
</a>
</g>
</g>
<!-- Node10&#45;&gt;Node15 -->
<g id="edge16" class="edge">
<title>Node10&#45;&gt;Node15</title>
<path fill="none" stroke="midnightblue" d="M903.32,-223.77C809.34,-211.11 629.05,-186.8 523.62,-172.59"/>
<polygon fill="midnightblue" stroke="midnightblue" points="524.04,-169.12 513.66,-171.25 523.1,-176.05 524.04,-169.12"/>
</g>
<!-- Node13 -->
<g id="node13" class="node">
<title>Node13</title>
<g id="a_node13"><a xlink:href="space__packet__typedef_8h.html" target="_top" xlink:title="SpacePacket 類 と CommonTlmCmdPacket 類が相互参照するのを回避するためのヘッダ">
<polygon fill="white" stroke="black" points="199.84,-78.5 199.84,-108.5 336.84,-108.5 336.84,-78.5 199.84,-78.5"/>
<text text-anchor="start" x="207.84" y="-96.5" font-family="Helvetica,sans-Serif" font-size="10.00">src_core/TlmCmd/Ccsds</text>
<text text-anchor="middle" x="268.34" y="-85.5" font-family="Helvetica,sans-Serif" font-size="10.00">/space_packet_typedef.h</text>
</a>
</g>
</g>
<!-- Node12&#45;&gt;Node13 -->
<g id="edge14" class="edge">
<title>Node12&#45;&gt;Node13</title>
<path fill="none" stroke="midnightblue" d="M571.05,-145.48C504.68,-134.3 412.39,-118.76 347.2,-107.78"/>
<polygon fill="midnightblue" stroke="midnightblue" points="347.42,-104.27 336.98,-106.06 346.26,-111.17 347.42,-104.27"/>
</g>
<!-- Node14 -->
<g id="node14" class="node">
<title>Node14</title>
<g id="a_node14"><a xlink:href="space__packet__typedef__params_8h.html" target="_top" xlink:title="SpacePacketの パケット型に関するユーザー設定">
<polygon fill="white" stroke="black" points="188.34,-0.5 188.34,-41.5 348.34,-41.5 348.34,-0.5 188.34,-0.5"/>
<text text-anchor="start" x="196.34" y="-29.5" font-family="Helvetica,sans-Serif" font-size="10.00">src_user/Settings/TlmCmd</text>
<text text-anchor="start" x="196.34" y="-18.5" font-family="Helvetica,sans-Serif" font-size="10.00">/Ccsds/space_packet_typedef</text>
<text text-anchor="middle" x="268.34" y="-7.5" font-family="Helvetica,sans-Serif" font-size="10.00">_params.h</text>
</a>
</g>
</g>
<!-- Node13&#45;&gt;Node14 -->
<g id="edge15" class="edge">
<title>Node13&#45;&gt;Node14</title>
<path fill="none" stroke="midnightblue" d="M268.34,-78.23C268.34,-70.57 268.34,-60.84 268.34,-51.63"/>
<polygon fill="midnightblue" stroke="midnightblue" points="271.84,-51.59 268.34,-41.59 264.84,-51.59 271.84,-51.59"/>
</g>
<!-- Node19 -->
<g id="node19" class="node">
<title>Node19</title>
<g id="a_node19"><a xlink:href="packet__handler__params_8h.html" target="_top" xlink:title="PHのCoreTlmパラメタのオーバーライド用ヘッダー">
<polygon fill="white" stroke="black" points="726.84,-491.5 726.84,-521.5 871.84,-521.5 871.84,-491.5 726.84,-491.5"/>
<text text-anchor="start" x="734.84" y="-509.5" font-family="Helvetica,sans-Serif" font-size="10.00">src_user/Settings/TlmCmd</text>
<text text-anchor="middle" x="799.34" y="-498.5" font-family="Helvetica,sans-Serif" font-size="10.00">/packet_handler_params.h</text>
</a>
</g>
</g>
<!-- Node18&#45;&gt;Node19 -->
<g id="edge21" class="edge">
<title>Node18&#45;&gt;Node19</title>
<path fill="none" stroke="midnightblue" d="M799.34,-558.48C799.34,-551.47 799.34,-541.19 799.34,-531.7"/>
<polygon fill="midnightblue" stroke="midnightblue" points="802.84,-531.52 799.34,-521.52 795.84,-531.52 802.84,-531.52"/>
</g>
<!-- Node21 -->
<g id="node21" class="node">
<title>Node21</title>
<g id="a_node21"><a xlink:href="common__tlm__cmd__packet_8h.html" target="_top" xlink:title="CTCP 関連基本関数の宣言">
<polygon fill="white" stroke="black" points="262.34,-296 262.34,-315 416.34,-315 416.34,-296 262.34,-296"/>
<text text-anchor="middle" x="339.34" y="-303" font-family="Helvetica,sans-Serif" font-size="10.00">common_tlm_cmd_packet.h</text>
</a>
</g>
</g>
<!-- Node18&#45;&gt;Node21 -->
<g id="edge23" class="edge">
<title>Node18&#45;&gt;Node21</title>
<path fill="none" stroke="midnightblue" d="M783.57,-558.45C767.03,-549.45 740.29,-534.84 717.34,-522 582.76,-446.72 422.45,-354.47 363.02,-320.18"/>
<polygon fill="midnightblue" stroke="midnightblue" points="364.47,-316.97 354.06,-315.01 360.97,-323.04 364.47,-316.97"/>
</g>
<!-- Node26 -->
<g id="node26" class="node">
<title>Node26</title>
<g id="a_node26"><a xlink:href="packet__list_8h.html" target="_top" xlink:title="CTCP, CTP, CCP のリストとしてのデータ構造を定義. 片方向リストとして実装されている">
<polygon fill="white" stroke="black" points="1030.34,-363 1030.34,-382 1108.34,-382 1108.34,-363 1030.34,-363"/>
<text text-anchor="middle" x="1069.34" y="-370" font-family="Helvetica,sans-Serif" font-size="10.00">packet_list.h</text>
</a>
</g>
</g>
<!-- Node18&#45;&gt;Node26 -->
<g id="edge35" class="edge">
<title>Node18&#45;&gt;Node26</title>
<path fill="none" stroke="midnightblue" d="M862.04,-558.49C927.06,-549.11 1020.97,-533.79 1033.34,-522 1069.42,-487.6 1071.93,-423.68 1070.71,-392.12"/>
<polygon fill="midnightblue" stroke="midnightblue" points="1074.2,-391.86 1070.15,-382.07 1067.21,-392.25 1074.2,-391.86"/>
</g>
<!-- Node29 -->
<g id="node29" class="node">
<title>Node29</title>
<g id="a_node29"><a xlink:href="timeline__command__dispatcher_8h.html" target="_top" xlink:title=" ">
<polygon fill="white" stroke="black" points="889.84,-491.5 889.84,-521.5 1024.84,-521.5 1024.84,-491.5 889.84,-491.5"/>
<text text-anchor="start" x="897.84" y="-509.5" font-family="Helvetica,sans-Serif" font-size="10.00">../Applications/timeline</text>
<text text-anchor="middle" x="957.34" y="-498.5" font-family="Helvetica,sans-Serif" font-size="10.00">_command_dispatcher.h</text>
</a>
</g>
</g>
<!-- Node18&#45;&gt;Node29 -->
<g id="edge42" class="edge">
<title>Node18&#45;&gt;Node29</title>
<path fill="none" stroke="midnightblue" d="M817.07,-558.48C838.27,-549.78 874.35,-536.03 904.66,-525"/>
<polygon fill="midnightblue" stroke="midnightblue" points="906.05,-528.21 914.27,-521.52 903.67,-521.63 906.05,-528.21"/>
</g>
<!-- Node20 -->
<g id="node20" class="node">
<title>Node20</title>
<g id="a_node20"><a xlink:href="data__recorder__define_8h.html" target="_top" xlink:title="Data Recorder の各種定義">
<polygon fill="white" stroke="black" points="764.34,-424.5 764.34,-454.5 874.34,-454.5 874.34,-424.5 764.34,-424.5"/>
<text text-anchor="start" x="772.34" y="-442.5" font-family="Helvetica,sans-Serif" font-size="10.00">../Applications/data</text>
<text text-anchor="middle" x="819.34" y="-431.5" font-family="Helvetica,sans-Serif" font-size="10.00">_recorder_define.h</text>
</a>
</g>
</g>
<!-- Node19&#45;&gt;Node20 -->
<g id="edge22" class="edge">
<title>Node19&#45;&gt;Node20</title>
<path fill="none" stroke="midnightblue" d="M803.68,-491.4C806.11,-483.47 809.22,-473.38 812.02,-464.27"/>
<polygon fill="midnightblue" stroke="midnightblue" points="815.41,-465.16 815,-454.58 808.72,-463.1 815.41,-465.16"/>
</g>
<!-- Node21&#45;&gt;Node5 -->
<g id="edge24" class="edge">
<title>Node21&#45;&gt;Node5</title>
<path fill="none" stroke="midnightblue" d="M360.14,-295.94C381.02,-286.91 413.66,-271.58 439.34,-254 454.27,-243.78 544.51,-153.78 560.34,-145 595.51,-125.5 638.9,-112.94 673.8,-105.22"/>
<polygon fill="midnightblue" stroke="midnightblue" points="674.81,-108.58 683.87,-103.07 673.36,-101.74 674.81,-108.58"/>
</g>
<!-- Node21&#45;&gt;Node10 -->
<g id="edge33" class="edge">
<title>Node21&#45;&gt;Node10</title>
<path fill="none" stroke="midnightblue" d="M386.57,-295.98C399.14,-293.87 412.73,-291.72 425.34,-290 592.46,-267.25 789.85,-248.9 893.15,-239.94"/>
<polygon fill="midnightblue" stroke="midnightblue" points="893.49,-243.43 903.16,-239.08 892.89,-236.45 893.49,-243.43"/>
</g>
<!-- Node21&#45;&gt;Node15 -->
<g id="edge34" class="edge">
<title>Node21&#45;&gt;Node15</title>
<path fill="none" stroke="midnightblue" d="M359.76,-295.91C377.03,-287.62 401.17,-273.47 415.34,-254 430,-233.86 436.4,-205.74 439.19,-185.8"/>
<polygon fill="midnightblue" stroke="midnightblue" points="442.69,-186.01 440.4,-175.67 435.74,-185.18 442.69,-186.01"/>
</g>
<!-- Node22 -->
<g id="node22" class="node">
<title>Node22</title>
<g id="a_node22"><a xlink:href="common__tlm__cmd__packet__define_8h.html" target="_top" xlink:title="CTCP 型の定義">
<polygon fill="white" stroke="black" points="10.34,-212.5 10.34,-253.5 158.34,-253.5 158.34,-212.5 10.34,-212.5"/>
<text text-anchor="start" x="18.34" y="-241.5" font-family="Helvetica,sans-Serif" font-size="10.00">src_user/Settings/TlmCmd</text>
<text text-anchor="start" x="18.34" y="-230.5" font-family="Helvetica,sans-Serif" font-size="10.00">/common_tlm_cmd_packet</text>
<text text-anchor="middle" x="84.34" y="-219.5" font-family="Helvetica,sans-Serif" font-size="10.00">_define.h</text>
</a>
</g>
</g>
<!-- Node21&#45;&gt;Node22 -->
<g id="edge25" class="edge">
<title>Node21&#45;&gt;Node22</title>
<path fill="none" stroke="midnightblue" d="M308.58,-296C273.2,-286.21 213.7,-269.77 164.88,-256.27"/>
<polygon fill="midnightblue" stroke="midnightblue" points="165.53,-252.82 154.96,-253.53 163.66,-259.56 165.53,-252.82"/>
</g>
<!-- Node23 -->
<g id="node23" class="node">
<title>Node23</title>
<g id="a_node23"><a xlink:href="common__tlm__packet_8h.html" target="_top" xlink:title="CTP 関連基本関数の宣言">
<polygon fill="white" stroke="black" points="272.34,-223.5 272.34,-242.5 406.34,-242.5 406.34,-223.5 272.34,-223.5"/>
<text text-anchor="middle" x="339.34" y="-230.5" font-family="Helvetica,sans-Serif" font-size="10.00">./common_tlm_packet.h</text>
</a>
</g>
</g>
<!-- Node21&#45;&gt;Node23 -->
<g id="edge27" class="edge">
<title>Node21&#45;&gt;Node23</title>
<path fill="none" stroke="midnightblue" d="M339.34,-295.86C339.34,-285.18 339.34,-266.72 339.34,-252.73"/>
<polygon fill="midnightblue" stroke="midnightblue" points="342.84,-252.72 339.34,-242.72 335.84,-252.72 342.84,-252.72"/>
</g>
<!-- Node22&#45;&gt;Node13 -->
<g id="edge26" class="edge">
<title>Node22&#45;&gt;Node13</title>
<path fill="none" stroke="midnightblue" d="M46.46,-212.36C17.88,-194.99 -13.3,-168.78 6.34,-145 29.23,-117.27 120.75,-104.6 189.21,-98.92"/>
<polygon fill="midnightblue" stroke="midnightblue" points="189.87,-102.38 199.56,-98.1 189.32,-95.4 189.87,-102.38"/>
</g>
<!-- Node23&#45;&gt;Node4 -->
<g id="edge28" class="edge">
<title>Node23&#45;&gt;Node4</title>
<path fill="none" stroke="midnightblue" d="M406.54,-224.47C485.65,-215.24 621.18,-198.25 747.29,-176.1"/>
<polygon fill="midnightblue" stroke="midnightblue" points="748.28,-179.48 757.51,-174.29 747.05,-172.58 748.28,-179.48"/>
</g>
<!-- Node23&#45;&gt;Node15 -->
<g id="edge32" class="edge">
<title>Node23&#45;&gt;Node15</title>
<path fill="none" stroke="midnightblue" d="M351.84,-223.36C366.86,-212.98 392.51,-195.25 412.51,-181.42"/>
<polygon fill="midnightblue" stroke="midnightblue" points="414.73,-184.14 420.97,-175.58 410.75,-178.38 414.73,-184.14"/>
</g>
<!-- Node24 -->
<g id="node24" class="node">
<title>Node24</title>
<g id="a_node24"><a xlink:href="telemetry__definitions_8h.html" target="_top" xlink:title="テレメトリ定義">
<polygon fill="white" stroke="black" points="15.34,-145.5 15.34,-175.5 167.34,-175.5 167.34,-145.5 15.34,-145.5"/>
<text text-anchor="start" x="23.34" y="-163.5" font-family="Helvetica,sans-Serif" font-size="10.00">src_user/TlmCmd/telemetry</text>
<text text-anchor="middle" x="91.34" y="-152.5" font-family="Helvetica,sans-Serif" font-size="10.00">_definitions.h</text>
</a>
</g>
</g>
<!-- Node23&#45;&gt;Node24 -->
<g id="edge29" class="edge">
<title>Node23&#45;&gt;Node24</title>
<path fill="none" stroke="midnightblue" d="M309.42,-223.5C270.17,-212.34 200.4,-192.5 150.34,-178.27"/>
<polygon fill="midnightblue" stroke="midnightblue" points="151.18,-174.87 140.6,-175.51 149.27,-181.61 151.18,-174.87"/>
</g>
<!-- Node25 -->
<g id="node25" class="node">
<title>Node25</title>
<g id="a_node25"><a xlink:href="common__tlm__packet__define_8h.html" target="_top" xlink:title="CTP 型の定義">
<polygon fill="white" stroke="black" points="185.34,-145.5 185.34,-175.5 351.34,-175.5 351.34,-145.5 185.34,-145.5"/>
<text text-anchor="start" x="193.34" y="-163.5" font-family="Helvetica,sans-Serif" font-size="10.00">src_user/Settings/TlmCmd</text>
<text text-anchor="middle" x="268.34" y="-152.5" font-family="Helvetica,sans-Serif" font-size="10.00">/common_tlm_packet_define.h</text>
</a>
</g>
</g>
<!-- Node23&#45;&gt;Node25 -->
<g id="edge30" class="edge">
<title>Node23&#45;&gt;Node25</title>
<path fill="none" stroke="midnightblue" d="M330.63,-223.36C320.51,-213.3 303.43,-196.35 289.72,-182.73"/>
<polygon fill="midnightblue" stroke="midnightblue" points="292.07,-180.14 282.51,-175.58 287.14,-185.11 292.07,-180.14"/>
</g>
<!-- Node25&#45;&gt;Node13 -->
<g id="edge31" class="edge">
<title>Node25&#45;&gt;Node13</title>
<path fill="none" stroke="midnightblue" d="M268.34,-145.4C268.34,-137.64 268.34,-127.81 268.34,-118.86"/>
<polygon fill="midnightblue" stroke="midnightblue" points="271.84,-118.58 268.34,-108.58 264.84,-118.58 271.84,-118.58"/>
</g>
<!-- Node26&#45;&gt;Node9 -->
<g id="edge36" class="edge">
<title>Node26&#45;&gt;Node9</title>
<path fill="none" stroke="midnightblue" d="M1047.96,-362.87C1019.97,-351.57 970.74,-331.7 938.85,-318.82"/>
<polygon fill="midnightblue" stroke="midnightblue" points="940.13,-315.56 929.55,-315.06 937.51,-322.05 940.13,-315.56"/>
</g>
<!-- Node26&#45;&gt;Node10 -->
<g id="edge37" class="edge">
<title>Node26&#45;&gt;Node10</title>
<path fill="none" stroke="midnightblue" d="M1064.24,-362.6C1055.29,-347.24 1035.85,-315.02 1016.34,-290 1006.97,-278 995.55,-265.5 985.81,-255.37"/>
<polygon fill="midnightblue" stroke="midnightblue" points="988.23,-252.84 978.74,-248.13 983.22,-257.73 988.23,-252.84"/>
</g>
<!-- Node27 -->
<g id="node27" class="node">
<title>Node27</title>
<g id="a_node27"><a xlink:href="block__command__table_8h.html" target="_top" xlink:title="BCTの定義, BCT周りの関数">
<polygon fill="white" stroke="black" points="1121.34,-296 1121.34,-315 1257.34,-315 1257.34,-296 1121.34,-296"/>
<text text-anchor="middle" x="1189.34" y="-303" font-family="Helvetica,sans-Serif" font-size="10.00">block_command_table.h</text>
</a>
</g>
</g>
<!-- Node26&#45;&gt;Node27 -->
<g id="edge38" class="edge">
<title>Node26&#45;&gt;Node27</title>
<path fill="none" stroke="midnightblue" d="M1085.52,-362.73C1105.76,-351.77 1140.63,-332.88 1164.32,-320.05"/>
<polygon fill="midnightblue" stroke="midnightblue" points="1166.28,-322.97 1173.41,-315.13 1162.95,-316.81 1166.28,-322.97"/>
</g>
<!-- Node27&#45;&gt;Node5 -->
<g id="edge39" class="edge">
<title>Node27&#45;&gt;Node5</title>
<path fill="none" stroke="midnightblue" d="M1159.6,-295.94C1137.72,-288.23 1108.68,-274.86 1090.34,-254 1056.36,-215.36 1091.07,-177.69 1051.34,-145 1009.86,-110.88 865.28,-118.03 812.34,-109 804.97,-107.74 797.22,-106.35 789.59,-104.93"/>
<polygon fill="midnightblue" stroke="midnightblue" points="790.16,-101.48 779.69,-103.07 788.87,-108.36 790.16,-101.48"/>
</g>
<!-- Node27&#45;&gt;Node10 -->
<g id="edge41" class="edge">
<title>Node27&#45;&gt;Node10</title>
<path fill="none" stroke="midnightblue" d="M1162.2,-296C1126.81,-284.91 1064.08,-265.25 1018.72,-251.04"/>
<polygon fill="midnightblue" stroke="midnightblue" points="1019.62,-247.66 1009.04,-248.01 1017.53,-254.34 1019.62,-247.66"/>
</g>
<!-- Node28 -->
<g id="node28" class="node">
<title>Node28</title>
<g id="a_node28"><a xlink:href="block__command__table__params_8h.html" target="_top" xlink:title="BCTのCoreTlmパラメタのオーバーライド用ヘッダー">
<polygon fill="white" stroke="black" points="1098.84,-218 1098.84,-248 1279.84,-248 1279.84,-218 1098.84,-218"/>
<text text-anchor="start" x="1106.84" y="-236" font-family="Helvetica,sans-Serif" font-size="10.00">src_user/Settings/TlmCmd</text>
<text text-anchor="middle" x="1189.34" y="-225" font-family="Helvetica,sans-Serif" font-size="10.00">/block_command_table_params.h</text>
</a>
</g>
</g>
<!-- Node27&#45;&gt;Node28 -->
<g id="edge40" class="edge">
<title>Node27&#45;&gt;Node28</title>
<path fill="none" stroke="midnightblue" d="M1189.34,-295.86C1189.34,-286.55 1189.34,-271.33 1189.34,-258.31"/>
<polygon fill="midnightblue" stroke="midnightblue" points="1192.84,-258.08 1189.34,-248.08 1185.84,-258.08 1192.84,-258.08"/>
</g>
<!-- Node29&#45;&gt;Node3 -->
<g id="edge50" class="edge">
<title>Node29&#45;&gt;Node3</title>
<path fill="none" stroke="midnightblue" d="M950.38,-491.37C939.24,-468.75 917.27,-424.14 903.79,-396.76"/>
<polygon fill="midnightblue" stroke="midnightblue" points="906.8,-394.95 899.24,-387.52 900.52,-398.04 906.8,-394.95"/>
</g>
<!-- Node29&#45;&gt;Node10 -->
<g id="edge48" class="edge">
<title>Node29&#45;&gt;Node10</title>
<path fill="none" stroke="midnightblue" d="M961.4,-491.18C967.4,-469.21 978.36,-425.75 982.34,-388 987.18,-341.98 977.4,-288.33 970.46,-258.05"/>
<polygon fill="midnightblue" stroke="midnightblue" points="973.78,-256.92 968.06,-248 966.98,-258.54 973.78,-256.92"/>
</g>
<!-- Node29&#45;&gt;Node18 -->
<g id="edge49" class="edge">
<title>Node29&#45;&gt;Node18</title>
<path fill="none" stroke="midnightblue" d="M925.93,-521.52C900.13,-531.74 863.69,-545.42 836.45,-555.1"/>
<polygon fill="midnightblue" stroke="midnightblue" points="835.14,-551.85 826.87,-558.48 837.47,-558.46 835.14,-551.85"/>
</g>
<!-- Node30 -->
<g id="node30" class="node">
<title>Node30</title>
<g id="a_node30"><a xlink:href="command__dispatcher_8h.html" target="_top" xlink:title="各種コマンドの実行管理">
<polygon fill="white" stroke="black" points="1081.84,-430 1081.84,-449 1264.84,-449 1264.84,-430 1081.84,-430"/>
<text text-anchor="middle" x="1173.34" y="-437" font-family="Helvetica,sans-Serif" font-size="10.00">../TlmCmd/command_dispatcher.h</text>
</a>
</g>
</g>
<!-- Node29&#45;&gt;Node30 -->
<g id="edge43" class="edge">
<title>Node29&#45;&gt;Node30</title>
<path fill="none" stroke="midnightblue" d="M1003.94,-491.48C1043.16,-479.67 1098.56,-463 1135.19,-451.98"/>
<polygon fill="midnightblue" stroke="midnightblue" points="1136.43,-455.26 1144.99,-449.03 1134.41,-448.56 1136.43,-455.26"/>
</g>
<!-- Node30&#45;&gt;Node4 -->
<g id="edge44" class="edge">
<title>Node30&#45;&gt;Node4</title>
<path fill="none" stroke="midnightblue" d="M1184.27,-429.93C1223.93,-397.86 1354.54,-283.18 1289.34,-212 1260.01,-179.99 957.66,-182.61 881.22,-175.78"/>
<polygon fill="midnightblue" stroke="midnightblue" points="881.31,-172.27 870.97,-174.6 880.5,-179.22 881.31,-172.27"/>
</g>
<!-- Node30&#45;&gt;Node10 -->
<g id="edge45" class="edge">
<title>Node30&#45;&gt;Node10</title>
<path fill="none" stroke="midnightblue" d="M1168.4,-429.91C1159.34,-414.48 1138.97,-381.41 1117.34,-357 1080.09,-314.97 1027.4,-276.09 994.59,-253.71"/>
<polygon fill="midnightblue" stroke="midnightblue" points="996.54,-250.81 986.29,-248.12 992.62,-256.61 996.54,-250.81"/>
</g>
<!-- Node30&#45;&gt;Node11 -->
<g id="edge47" class="edge">
<title>Node30&#45;&gt;Node11</title>
<path fill="none" stroke="midnightblue" d="M1253.77,-429.93C1279.94,-422.88 1306.34,-410.31 1322.34,-388 1367.91,-324.43 1373.63,-271.06 1322.34,-212 1288.03,-172.5 1146.31,-163.05 1052.08,-161.25"/>
<polygon fill="midnightblue" stroke="midnightblue" points="1052.04,-157.75 1041.98,-161.09 1051.92,-164.75 1052.04,-157.75"/>
</g>
<!-- Node30&#45;&gt;Node26 -->
<g id="edge46" class="edge">
<title>Node30&#45;&gt;Node26</title>
<path fill="none" stroke="midnightblue" d="M1159.31,-429.73C1142,-418.92 1112.35,-400.38 1091.84,-387.57"/>
<polygon fill="midnightblue" stroke="midnightblue" points="1093.47,-384.46 1083.14,-382.13 1089.76,-390.4 1093.47,-384.46"/>
</g>
</g>
</svg>
