<?xml version="1.0" encoding="UTF-8" standalone="no"?>
<!DOCTYPE svg PUBLIC "-//W3C//DTD SVG 1.1//EN"
 "http://www.w3.org/Graphics/SVG/1.1/DTD/svg11.dtd">
<!-- Generated by graphviz version 2.43.0 (0)
 -->
<!-- Title: Cmd_UTIL_COUNTER_SET_PARAM Pages: 1 -->
<svg width="496pt" height="39pt"
 viewBox="0.00 0.00 496.00 39.00" xmlns="http://www.w3.org/2000/svg" xmlns:xlink="http://www.w3.org/1999/xlink">
<g id="graph0" class="graph" transform="scale(1 1) rotate(0) translate(4 35)">
<title>Cmd_UTIL_COUNTER_SET_PARAM</title>
<polygon fill="white" stroke="transparent" points="-4,4 -4,-35 492,-35 492,4 -4,4"/>
<!-- Node1 -->
<g id="node1" class="node">
<title>Node1</title>
<g id="a_node1"><a xlink:title=" ">
<polygon fill="#bfbfbf" stroke="black" points="0,-0.5 0,-30.5 143,-30.5 143,-0.5 0,-0.5"/>
<text text-anchor="start" x="8" y="-18.5" font-family="Helvetica,sans-Serif" font-size="10.00">Cmd_UTIL_COUNTER_SET</text>
<text text-anchor="middle" x="71.5" y="-7.5" font-family="Helvetica,sans-Serif" font-size="10.00">_PARAM</text>
</a>
</g>
</g>
<!-- Node2 -->
<g id="node2" class="node">
<title>Node2</title>
<g id="a_node2"><a xlink:href="common__cmd__packet_8h.html#ac7f988d02cd49f16275dcb893b0e8fda" target="_top" xlink:title="先頭のパラメタのポインタを取得">
<polygon fill="white" stroke="black" points="179,-6 179,-25 302,-25 302,-6 179,-6"/>
<text text-anchor="middle" x="240.5" y="-13" font-family="Helvetica,sans-Serif" font-size="10.00">CCP_get_param_head</text>
</a>
</g>
</g>
<!-- Node1&#45;&gt;Node2 -->
<g id="edge1" class="edge">
<title>Node1&#45;&gt;Node2</title>
<path fill="none" stroke="midnightblue" d="M143.32,-15.5C151.73,-15.5 160.31,-15.5 168.72,-15.5"/>
<polygon fill="midnightblue" stroke="midnightblue" points="168.86,-19 178.86,-15.5 168.86,-12 168.86,-19"/>
</g>
<!-- Node3 -->
<g id="node3" class="node">
<title>Node3</title>
<g id="a_node3"><a xlink:href="_t_c_packet_8c.html#af3416877283ab315ad0ababce5afbfc8" target="_top" xlink:title="先頭のパラメタのポインタを取得">
<polygon fill="white" stroke="black" points="338,-6 338,-25 488,-25 488,-6 338,-6"/>
<text text-anchor="middle" x="413" y="-13" font-family="Helvetica,sans-Serif" font-size="10.00">TCP_CMD_get_param_head</text>
</a>
</g>
</g>
<!-- Node2&#45;&gt;Node3 -->
<g id="edge2" class="edge">
<title>Node2&#45;&gt;Node3</title>
<path fill="none" stroke="midnightblue" d="M302.09,-15.5C310.42,-15.5 319.08,-15.5 327.74,-15.5"/>
<polygon fill="midnightblue" stroke="midnightblue" points="327.87,-19 337.87,-15.5 327.87,-12 327.87,-19"/>
</g>
</g>
</svg>
