<?xml version="1.0" encoding="UTF-8" standalone="no"?>
<!DOCTYPE svg PUBLIC "-//W3C//DTD SVG 1.1//EN"
 "http://www.w3.org/Graphics/SVG/1.1/DTD/svg11.dtd">
<!-- Generated by graphviz version 2.43.0 (0)
 -->
<!-- Title: src/src_core/System/WatchdogTimer/watchdog_timer.h Pages: 1 -->
<svg width="1450pt" height="195pt"
 viewBox="0.00 0.00 1449.50 195.00" xmlns="http://www.w3.org/2000/svg" xmlns:xlink="http://www.w3.org/1999/xlink">
<g id="graph0" class="graph" transform="scale(1 1) rotate(0) translate(4 191)">
<title>src/src_core/System/WatchdogTimer/watchdog_timer.h</title>
<polygon fill="white" stroke="transparent" points="-4,4 -4,-191 1445.5,-191 1445.5,4 -4,4"/>
<!-- Node1 -->
<g id="node1" class="node">
<title>Node1</title>
<g id="a_node1"><a xlink:title="watchdog timer">
<polygon fill="#bfbfbf" stroke="black" points="648.5,-145.5 648.5,-186.5 794.5,-186.5 794.5,-145.5 648.5,-145.5"/>
<text text-anchor="start" x="656.5" y="-174.5" font-family="Helvetica,sans-Serif" font-size="10.00">src/src_core/System</text>
<text text-anchor="start" x="656.5" y="-163.5" font-family="Helvetica,sans-Serif" font-size="10.00">/WatchdogTimer/watchdog</text>
<text text-anchor="middle" x="721.5" y="-152.5" font-family="Helvetica,sans-Serif" font-size="10.00">_timer.h</text>
</a>
</g>
</g>
<!-- Node2 -->
<g id="node2" class="node">
<title>Node2</title>
<g id="a_node2"><a xlink:href="telemetry__manager_8c.html" target="_top" xlink:title="userがテレメトリ詰まりをやTL溢れを防ぎつつ，またCDHなどがテレメトリを管理しやすくするためのApp">
<polygon fill="white" stroke="black" points="0,-73 0,-103 137,-103 137,-73 0,-73"/>
<text text-anchor="start" x="8" y="-91" font-family="Helvetica,sans-Serif" font-size="10.00">src/src_core/Applications</text>
<text text-anchor="middle" x="68.5" y="-80" font-family="Helvetica,sans-Serif" font-size="10.00">/telemetry_manager.c</text>
</a>
</g>
</g>
<!-- Node1&#45;&gt;Node2 -->
<g id="edge1" class="edge">
<title>Node1&#45;&gt;Node2</title>
<path fill="none" stroke="midnightblue" d="M638,-161.01C525.44,-154.69 319.14,-139.79 145.5,-109 136.52,-107.41 127.06,-105.31 117.95,-103.07"/>
<polygon fill="midnightblue" stroke="midnightblue" points="638.08,-164.52 648.26,-161.57 638.47,-157.53 638.08,-164.52"/>
</g>
<!-- Node3 -->
<g id="node3" class="node">
<title>Node3</title>
<g id="a_node3"><a xlink:href="c2a__core__main_8c.html" target="_top" xlink:title=" ">
<polygon fill="white" stroke="black" points="155,-73 155,-103 276,-103 276,-73 155,-73"/>
<text text-anchor="start" x="163" y="-91" font-family="Helvetica,sans-Serif" font-size="10.00">src/src_core/c2a_core</text>
<text text-anchor="middle" x="215.5" y="-80" font-family="Helvetica,sans-Serif" font-size="10.00">_main.c</text>
</a>
</g>
</g>
<!-- Node1&#45;&gt;Node3 -->
<g id="edge2" class="edge">
<title>Node1&#45;&gt;Node3</title>
<path fill="none" stroke="midnightblue" d="M638.27,-158.2C549.88,-150.07 406.37,-134.31 284.5,-109 276.56,-107.35 268.21,-105.25 260.16,-103.03"/>
<polygon fill="midnightblue" stroke="midnightblue" points="637.97,-161.68 648.24,-159.1 638.6,-154.71 637.97,-161.68"/>
</g>
<!-- Node4 -->
<g id="node4" class="node">
<title>Node4</title>
<g id="a_node4"><a xlink:href="app__manager_8c.html" target="_top" xlink:title=" ">
<polygon fill="white" stroke="black" points="294,-67.5 294,-108.5 411,-108.5 411,-67.5 294,-67.5"/>
<text text-anchor="start" x="302" y="-96.5" font-family="Helvetica,sans-Serif" font-size="10.00">src/src_core/System</text>
<text text-anchor="start" x="302" y="-85.5" font-family="Helvetica,sans-Serif" font-size="10.00">/ApplicationManager</text>
<text text-anchor="middle" x="352.5" y="-74.5" font-family="Helvetica,sans-Serif" font-size="10.00">/app_manager.c</text>
</a>
</g>
</g>
<!-- Node1&#45;&gt;Node4 -->
<g id="edge3" class="edge">
<title>Node1&#45;&gt;Node4</title>
<path fill="none" stroke="midnightblue" d="M638.47,-152.06C577.52,-141.96 492.91,-126.71 419.5,-109 416.79,-108.35 414.02,-107.65 411.23,-106.92"/>
<polygon fill="midnightblue" stroke="midnightblue" points="637.99,-155.53 648.42,-153.7 639.12,-148.62 637.99,-155.53"/>
</g>
<!-- Node5 -->
<g id="node5" class="node">
<title>Node5</title>
<g id="a_node5"><a xlink:href="event__logger_8c.html" target="_top" xlink:title="アノマリやエラーなどの各種イベントを記録する">
<polygon fill="white" stroke="black" points="429,-67.5 429,-108.5 550,-108.5 550,-67.5 429,-67.5"/>
<text text-anchor="start" x="437" y="-96.5" font-family="Helvetica,sans-Serif" font-size="10.00">src/src_core/System</text>
<text text-anchor="start" x="437" y="-85.5" font-family="Helvetica,sans-Serif" font-size="10.00">/EventManager/event</text>
<text text-anchor="middle" x="489.5" y="-74.5" font-family="Helvetica,sans-Serif" font-size="10.00">_logger.c</text>
</a>
</g>
</g>
<!-- Node1&#45;&gt;Node5 -->
<g id="edge4" class="edge">
<title>Node1&#45;&gt;Node5</title>
<path fill="none" stroke="midnightblue" d="M652.22,-142.3C619.38,-131.55 580.54,-118.82 549.04,-108.51"/>
<polygon fill="midnightblue" stroke="midnightblue" points="651.16,-145.64 661.75,-145.43 653.34,-138.99 651.16,-145.64"/>
</g>
<!-- Node6 -->
<g id="node6" class="node">
<title>Node6</title>
<g id="a_node6"><a xlink:href="watchdog__timer_8c.html" target="_top" xlink:title="watchdog timer">
<polygon fill="white" stroke="black" points="568.5,-67.5 568.5,-108.5 714.5,-108.5 714.5,-67.5 568.5,-67.5"/>
<text text-anchor="start" x="576.5" y="-96.5" font-family="Helvetica,sans-Serif" font-size="10.00">src/src_core/System</text>
<text text-anchor="start" x="576.5" y="-85.5" font-family="Helvetica,sans-Serif" font-size="10.00">/WatchdogTimer/watchdog</text>
<text text-anchor="middle" x="641.5" y="-74.5" font-family="Helvetica,sans-Serif" font-size="10.00">_timer.c</text>
</a>
</g>
</g>
<!-- Node1&#45;&gt;Node6 -->
<g id="edge5" class="edge">
<title>Node1&#45;&gt;Node6</title>
<path fill="none" stroke="midnightblue" d="M693.6,-138.49C683.22,-128.63 671.63,-117.63 662.03,-108.51"/>
<polygon fill="midnightblue" stroke="midnightblue" points="691.24,-141.08 700.9,-145.43 696.06,-136 691.24,-141.08"/>
</g>
<!-- Node7 -->
<g id="node7" class="node">
<title>Node7</title>
<g id="a_node7"><a xlink:href="block__command__table_8c.html" target="_top" xlink:title="BCTの定義, BCT周りの関数">
<polygon fill="white" stroke="black" points="732.5,-73 732.5,-103 870.5,-103 870.5,-73 732.5,-73"/>
<text text-anchor="start" x="740.5" y="-91" font-family="Helvetica,sans-Serif" font-size="10.00">src/src_core/TlmCmd</text>
<text text-anchor="middle" x="801.5" y="-80" font-family="Helvetica,sans-Serif" font-size="10.00">/block_command_table.c</text>
</a>
</g>
</g>
<!-- Node1&#45;&gt;Node7 -->
<g id="edge6" class="edge">
<title>Node1&#45;&gt;Node7</title>
<path fill="none" stroke="midnightblue" d="M749.58,-138.32C762.02,-126.51 776.15,-113.08 786.53,-103.23"/>
<polygon fill="midnightblue" stroke="midnightblue" points="746.94,-136 742.1,-145.43 751.76,-141.08 746.94,-136"/>
</g>
<!-- Node8 -->
<g id="node8" class="node">
<title>Node8</title>
<g id="a_node8"><a xlink:href="c2a__main_8c.html" target="_top" xlink:title=" ">
<polygon fill="white" stroke="black" points="889,-78.5 889,-97.5 1022,-97.5 1022,-78.5 889,-78.5"/>
<text text-anchor="middle" x="955.5" y="-85.5" font-family="Helvetica,sans-Serif" font-size="10.00">src/src_user/c2a_main.c</text>
</a>
</g>
</g>
<!-- Node1&#45;&gt;Node8 -->
<g id="edge7" class="edge">
<title>Node1&#45;&gt;Node8</title>
<path fill="none" stroke="midnightblue" d="M791.46,-142.28C837.83,-127.22 896.03,-108.32 929.17,-97.55"/>
<polygon fill="midnightblue" stroke="midnightblue" points="790.19,-139.01 781.76,-145.43 792.35,-145.67 790.19,-139.01"/>
</g>
<!-- Node9 -->
<g id="node9" class="node">
<title>Node9</title>
<g id="a_node9"><a xlink:href="src__user_2_library_2print_8c.html" target="_top" xlink:title="HW 依存 Print, つまり ログ情報のフォーマット出力（デバッグ出力）">
<polygon fill="white" stroke="black" points="1040,-73 1040,-103 1151,-103 1151,-73 1040,-73"/>
<text text-anchor="start" x="1048" y="-91" font-family="Helvetica,sans-Serif" font-size="10.00">src/src_user/Library</text>
<text text-anchor="middle" x="1095.5" y="-80" font-family="Helvetica,sans-Serif" font-size="10.00">/print.c</text>
</a>
</g>
</g>
<!-- Node1&#45;&gt;Node9 -->
<g id="edge8" class="edge">
<title>Node1&#45;&gt;Node9</title>
<path fill="none" stroke="midnightblue" d="M804.95,-152.64C867.46,-142.72 954.86,-127.42 1030.5,-109 1037.61,-107.27 1045.09,-105.2 1052.34,-103.06"/>
<polygon fill="midnightblue" stroke="midnightblue" points="804.08,-149.23 794.75,-154.25 805.17,-156.15 804.08,-149.23"/>
</g>
<!-- Node10 -->
<g id="node10" class="node">
<title>Node10</title>
<g id="a_node10"><a xlink:href="command__source_8h.html" target="_top" xlink:title="コマンド定義に必要なヘッダー">
<polygon fill="white" stroke="black" points="1169,-73 1169,-103 1288,-103 1288,-73 1169,-73"/>
<text text-anchor="start" x="1177" y="-91" font-family="Helvetica,sans-Serif" font-size="10.00">src/src_user/TlmCmd</text>
<text text-anchor="middle" x="1228.5" y="-80" font-family="Helvetica,sans-Serif" font-size="10.00">/command_source.h</text>
</a>
</g>
</g>
<!-- Node1&#45;&gt;Node10 -->
<g id="edge9" class="edge">
<title>Node1&#45;&gt;Node10</title>
<path fill="none" stroke="midnightblue" d="M804.52,-158.25C893.09,-150.15 1037.17,-134.39 1159.5,-109 1167.44,-107.35 1175.79,-105.25 1183.84,-103.04"/>
<polygon fill="midnightblue" stroke="midnightblue" points="804.18,-154.76 794.54,-159.15 804.81,-161.74 804.18,-154.76"/>
</g>
<!-- Node12 -->
<g id="node12" class="node">
<title>Node12</title>
<g id="a_node12"><a xlink:href="telemetry__source_8h.html" target="_top" xlink:title="テレメトリ定義に必要なヘッダー">
<polygon fill="white" stroke="black" points="1313,-73 1313,-103 1432,-103 1432,-73 1313,-73"/>
<text text-anchor="start" x="1321" y="-91" font-family="Helvetica,sans-Serif" font-size="10.00">src/src_user/TlmCmd</text>
<text text-anchor="middle" x="1372.5" y="-80" font-family="Helvetica,sans-Serif" font-size="10.00">/telemetry_source.h</text>
</a>
</g>
</g>
<!-- Node1&#45;&gt;Node12 -->
<g id="edge11" class="edge">
<title>Node1&#45;&gt;Node12</title>
<path fill="none" stroke="midnightblue" d="M805.03,-161.17C917.62,-155.04 1123.96,-140.36 1297.5,-109 1306.25,-107.42 1315.48,-105.32 1324.35,-103.08"/>
<polygon fill="midnightblue" stroke="midnightblue" points="804.57,-157.69 794.77,-161.72 804.94,-164.68 804.57,-157.69"/>
</g>
<!-- Node11 -->
<g id="node11" class="node">
<title>Node11</title>
<g id="a_node11"><a xlink:href="command__definitions_8c.html" target="_top" xlink:title="コマンド定義">
<polygon fill="white" stroke="black" points="1158,-0.5 1158,-30.5 1291,-30.5 1291,-0.5 1158,-0.5"/>
<text text-anchor="start" x="1166" y="-18.5" font-family="Helvetica,sans-Serif" font-size="10.00">src/src_user/TlmCmd</text>
<text text-anchor="middle" x="1224.5" y="-7.5" font-family="Helvetica,sans-Serif" font-size="10.00">/command_definitions.c</text>
</a>
</g>
</g>
<!-- Node10&#45;&gt;Node11 -->
<g id="edge10" class="edge">
<title>Node10&#45;&gt;Node11</title>
<path fill="none" stroke="midnightblue" d="M1227.12,-62.73C1226.52,-52.07 1225.83,-39.91 1225.31,-30.75"/>
<polygon fill="midnightblue" stroke="midnightblue" points="1223.63,-62.95 1227.69,-72.73 1230.62,-62.55 1223.63,-62.95"/>
</g>
<!-- Node13 -->
<g id="node13" class="node">
<title>Node13</title>
<g id="a_node13"><a xlink:href="telemetry__definitions_8c.html" target="_top" xlink:title="テレメトリ定義">
<polygon fill="white" stroke="black" points="1309.5,-0.5 1309.5,-30.5 1441.5,-30.5 1441.5,-0.5 1309.5,-0.5"/>
<text text-anchor="start" x="1317.5" y="-18.5" font-family="Helvetica,sans-Serif" font-size="10.00">src/src_user/TlmCmd</text>
<text text-anchor="middle" x="1375.5" y="-7.5" font-family="Helvetica,sans-Serif" font-size="10.00">/telemetry_definitions.c</text>
</a>
</g>
</g>
<!-- Node12&#45;&gt;Node13 -->
<g id="edge12" class="edge">
<title>Node12&#45;&gt;Node13</title>
<path fill="none" stroke="midnightblue" d="M1373.53,-62.73C1373.99,-52.07 1374.5,-39.91 1374.89,-30.75"/>
<polygon fill="midnightblue" stroke="midnightblue" points="1370.04,-62.59 1373.11,-72.73 1377.03,-62.89 1370.04,-62.59"/>
</g>
</g>
</svg>
