<?xml version="1.0" encoding="UTF-8" standalone="no"?>
<!DOCTYPE svg PUBLIC "-//W3C//DTD SVG 1.1//EN"
 "http://www.w3.org/Graphics/SVG/1.1/DTD/svg11.dtd">
<!-- Generated by graphviz version 2.43.0 (0)
 -->
<!-- Title: src/src_core/System/WatchdogTimer/watchdog_timer.c Pages: 1 -->
<svg width="996pt" height="519pt"
 viewBox="0.00 0.00 995.97 519.00" xmlns="http://www.w3.org/2000/svg" xmlns:xlink="http://www.w3.org/1999/xlink">
<g id="graph0" class="graph" transform="scale(1 1) rotate(0) translate(4 515)">
<title>src/src_core/System/WatchdogTimer/watchdog_timer.c</title>
<polygon fill="white" stroke="transparent" points="-4,4 -4,-515 991.97,-515 991.97,4 -4,4"/>
<!-- Node1 -->
<g id="node1" class="node">
<title>Node1</title>
<g id="a_node1"><a xlink:title="watchdog timer">
<polygon fill="#bfbfbf" stroke="black" points="339,-469.5 339,-510.5 485,-510.5 485,-469.5 339,-469.5"/>
<text text-anchor="start" x="347" y="-498.5" font-family="Helvetica,sans-Serif" font-size="10.00">src/src_core/System</text>
<text text-anchor="start" x="347" y="-487.5" font-family="Helvetica,sans-Serif" font-size="10.00">/WatchdogTimer/watchdog</text>
<text text-anchor="middle" x="412" y="-476.5" font-family="Helvetica,sans-Serif" font-size="10.00">_timer.c</text>
</a>
</g>
</g>
<!-- Node2 -->
<g id="node2" class="node">
<title>Node2</title>
<g id="a_node2"><a xlink:href="watchdog__timer_8h.html" target="_top" xlink:title="watchdog timer">
<polygon fill="white" stroke="black" points="299,-413.5 299,-432.5 403,-432.5 403,-413.5 299,-413.5"/>
<text text-anchor="middle" x="351" y="-420.5" font-family="Helvetica,sans-Serif" font-size="10.00">watchdog_timer.h</text>
</a>
</g>
</g>
<!-- Node1&#45;&gt;Node2 -->
<g id="edge1" class="edge">
<title>Node1&#45;&gt;Node2</title>
<path fill="none" stroke="midnightblue" d="M393.7,-469.5C384.89,-460.11 374.45,-448.98 366.09,-440.08"/>
<polygon fill="midnightblue" stroke="midnightblue" points="368.52,-437.55 359.12,-432.65 363.41,-442.34 368.52,-437.55"/>
</g>
<!-- Node20 -->
<g id="node20" class="node">
<title>Node20</title>
<g id="a_node20"><a xlink:href="print_8h.html" target="_top" xlink:title=" ">
<polygon fill="white" stroke="black" points="421.5,-413.5 421.5,-432.5 524.5,-432.5 524.5,-413.5 421.5,-413.5"/>
<text text-anchor="middle" x="473" y="-420.5" font-family="Helvetica,sans-Serif" font-size="10.00">../../Library/print.h</text>
</a>
</g>
</g>
<!-- Node1&#45;&gt;Node20 -->
<g id="edge28" class="edge">
<title>Node1&#45;&gt;Node20</title>
<path fill="none" stroke="midnightblue" d="M430.3,-469.5C439.11,-460.11 449.55,-448.98 457.91,-440.08"/>
<polygon fill="midnightblue" stroke="midnightblue" points="460.59,-442.34 464.88,-432.65 455.48,-437.55 460.59,-442.34"/>
</g>
<!-- Node3 -->
<g id="node3" class="node">
<title>Node3</title>
<g id="a_node3"><a xlink:href="wdt_8h.html" target="_top" xlink:title="watchdog timer の IF wapper">
<polygon fill="white" stroke="black" points="226.5,-352 226.5,-371 339.5,-371 339.5,-352 226.5,-352"/>
<text text-anchor="middle" x="283" y="-359" font-family="Helvetica,sans-Serif" font-size="10.00">../../IfWrapper/wdt.h</text>
</a>
</g>
</g>
<!-- Node2&#45;&gt;Node3 -->
<g id="edge2" class="edge">
<title>Node2&#45;&gt;Node3</title>
<path fill="none" stroke="midnightblue" d="M341.26,-413.48C330.65,-404.2 313.48,-389.17 300.52,-377.83"/>
<polygon fill="midnightblue" stroke="midnightblue" points="302.56,-374.96 292.72,-371.01 297.95,-380.23 302.56,-374.96"/>
</g>
<!-- Node6 -->
<g id="node6" class="node">
<title>Node6</title>
<g id="a_node6"><a xlink:href="common__tlm__cmd__packet_8h.html" target="_top" xlink:title="CTCP 関連基本関数の宣言">
<polygon fill="white" stroke="black" points="583,-346.5 583,-376.5 705,-376.5 705,-346.5 583,-346.5"/>
<text text-anchor="start" x="591" y="-364.5" font-family="Helvetica,sans-Serif" font-size="10.00">../../TlmCmd/common</text>
<text text-anchor="middle" x="644" y="-353.5" font-family="Helvetica,sans-Serif" font-size="10.00">_tlm_cmd_packet.h</text>
</a>
</g>
</g>
<!-- Node2&#45;&gt;Node6 -->
<g id="edge5" class="edge">
<title>Node2&#45;&gt;Node6</title>
<path fill="none" stroke="midnightblue" d="M392.98,-413.48C439.93,-403.94 516.75,-388.34 573.07,-376.9"/>
<polygon fill="midnightblue" stroke="midnightblue" points="573.87,-380.31 582.98,-374.89 572.48,-373.45 573.87,-380.31"/>
</g>
<!-- Node4 -->
<g id="node4" class="node">
<title>Node4</title>
<g id="a_node4"><a xlink:href="stdint_8h.html" target="_top" xlink:title=" ">
<polygon fill="white" stroke="black" points="0,-62 0,-81 134,-81 134,-62 0,-62"/>
<text text-anchor="middle" x="67" y="-69" font-family="Helvetica,sans-Serif" font-size="10.00">src_user/Library/stdint.h</text>
</a>
</g>
</g>
<!-- Node3&#45;&gt;Node4 -->
<g id="edge3" class="edge">
<title>Node3&#45;&gt;Node4</title>
<path fill="none" stroke="midnightblue" d="M231.31,-351.96C168.8,-338.57 66.23,-306.03 20,-232 -9.1,-185.4 31.04,-119.94 53.56,-89.41"/>
<polygon fill="midnightblue" stroke="midnightblue" points="56.6,-91.19 59.88,-81.12 51.04,-86.95 56.6,-91.19"/>
</g>
<!-- Node5 -->
<g id="node5" class="node">
<title>Node5</title>
<g id="a_node5"><a xlink:href="sils__define_8h.html" target="_top" xlink:title="Switch the build settings between your real OBC and SILS">
<polygon fill="white" stroke="black" points="2.5,-0.5 2.5,-19.5 131.5,-19.5 131.5,-0.5 2.5,-0.5"/>
<text text-anchor="middle" x="67" y="-7.5" font-family="Helvetica,sans-Serif" font-size="10.00">../Settings/sils_define.h</text>
</a>
</g>
</g>
<!-- Node4&#45;&gt;Node5 -->
<g id="edge4" class="edge">
<title>Node4&#45;&gt;Node5</title>
<path fill="none" stroke="midnightblue" d="M67,-61.98C67,-53.58 67,-40.48 67,-29.66"/>
<polygon fill="midnightblue" stroke="midnightblue" points="70.5,-29.51 67,-19.51 63.5,-29.51 70.5,-29.51"/>
</g>
<!-- Node7 -->
<g id="node7" class="node">
<title>Node7</title>
<g id="a_node7"><a xlink:href="common__tlm__cmd__packet__define_8h.html" target="_top" xlink:title="CTCP 型の定義">
<polygon fill="white" stroke="black" points="800,-190.5 800,-231.5 948,-231.5 948,-190.5 800,-190.5"/>
<text text-anchor="start" x="808" y="-219.5" font-family="Helvetica,sans-Serif" font-size="10.00">src_user/Settings/TlmCmd</text>
<text text-anchor="start" x="808" y="-208.5" font-family="Helvetica,sans-Serif" font-size="10.00">/common_tlm_cmd_packet</text>
<text text-anchor="middle" x="874" y="-197.5" font-family="Helvetica,sans-Serif" font-size="10.00">_define.h</text>
</a>
</g>
</g>
<!-- Node6&#45;&gt;Node7 -->
<g id="edge6" class="edge">
<title>Node6&#45;&gt;Node7</title>
<path fill="none" stroke="midnightblue" d="M653.2,-346.38C668.45,-323.34 698.78,-279.09 714,-268 727.91,-257.86 762.5,-245.3 795.98,-234.64"/>
<polygon fill="midnightblue" stroke="midnightblue" points="797.35,-237.88 805.84,-231.55 795.25,-231.2 797.35,-237.88"/>
</g>
<!-- Node11 -->
<g id="node11" class="node">
<title>Node11</title>
<g id="a_node11"><a xlink:href="apid__define_8h.html" target="_top" xlink:title="CCSDS の APID を定義する">
<polygon fill="white" stroke="black" points="802,-56.5 802,-86.5 946,-86.5 946,-56.5 802,-56.5"/>
<text text-anchor="start" x="810" y="-74.5" font-family="Helvetica,sans-Serif" font-size="10.00">src_user/Settings/TlmCmd</text>
<text text-anchor="middle" x="874" y="-63.5" font-family="Helvetica,sans-Serif" font-size="10.00">/Ccsds/apid_define.h</text>
</a>
</g>
</g>
<!-- Node6&#45;&gt;Node11 -->
<g id="edge27" class="edge">
<title>Node6&#45;&gt;Node11</title>
<path fill="none" stroke="midnightblue" d="M705.33,-359.08C786.69,-353.34 925.85,-329.05 976,-232 998.65,-188.17 985.19,-162.02 955,-123 944.93,-109.99 930.5,-99.48 916.59,-91.48"/>
<polygon fill="midnightblue" stroke="midnightblue" points="918.04,-88.28 907.58,-86.59 914.7,-94.44 918.04,-88.28"/>
</g>
<!-- Node12 -->
<g id="node12" class="node">
<title>Node12</title>
<g id="a_node12"><a xlink:href="common__tlm__cmd__packet__params_8h.html" target="_top" xlink:title="CTCP パラメタのオーバーライド用ヘッダー">
<polygon fill="white" stroke="black" points="519,-268.5 519,-309.5 667,-309.5 667,-268.5 519,-268.5"/>
<text text-anchor="start" x="527" y="-297.5" font-family="Helvetica,sans-Serif" font-size="10.00">src_user/Settings/TlmCmd</text>
<text text-anchor="start" x="527" y="-286.5" font-family="Helvetica,sans-Serif" font-size="10.00">/common_tlm_cmd_packet</text>
<text text-anchor="middle" x="593" y="-275.5" font-family="Helvetica,sans-Serif" font-size="10.00">_params.h</text>
</a>
</g>
</g>
<!-- Node6&#45;&gt;Node12 -->
<g id="edge13" class="edge">
<title>Node6&#45;&gt;Node12</title>
<path fill="none" stroke="midnightblue" d="M633.68,-346.23C627.78,-338.08 620.18,-327.57 613.15,-317.85"/>
<polygon fill="midnightblue" stroke="midnightblue" points="615.87,-315.64 607.17,-309.59 610.2,-319.74 615.87,-315.64"/>
</g>
<!-- Node13 -->
<g id="node13" class="node">
<title>Node13</title>
<g id="a_node13"><a xlink:href="common__tlm__packet_8h.html" target="_top" xlink:title="CTP 関連基本関数の宣言">
<polygon fill="white" stroke="black" points="723,-279.5 723,-298.5 857,-298.5 857,-279.5 723,-279.5"/>
<text text-anchor="middle" x="790" y="-286.5" font-family="Helvetica,sans-Serif" font-size="10.00">./common_tlm_packet.h</text>
</a>
</g>
</g>
<!-- Node6&#45;&gt;Node13 -->
<g id="edge15" class="edge">
<title>Node6&#45;&gt;Node13</title>
<path fill="none" stroke="midnightblue" d="M673.19,-346.4C699.46,-333.72 737.74,-315.23 763.23,-302.92"/>
<polygon fill="midnightblue" stroke="midnightblue" points="764.84,-306.03 772.33,-298.53 761.8,-299.73 764.84,-306.03"/>
</g>
<!-- Node15 -->
<g id="node15" class="node">
<title>Node15</title>
<g id="a_node15"><a xlink:href="common__cmd__packet_8h.html" target="_top" xlink:title="CCP 関連基本関数の宣言">
<polygon fill="white" stroke="black" points="363,-279.5 363,-298.5 501,-298.5 501,-279.5 363,-279.5"/>
<text text-anchor="middle" x="432" y="-286.5" font-family="Helvetica,sans-Serif" font-size="10.00">./common_cmd_packet.h</text>
</a>
</g>
</g>
<!-- Node6&#45;&gt;Node15 -->
<g id="edge19" class="edge">
<title>Node6&#45;&gt;Node15</title>
<path fill="none" stroke="midnightblue" d="M601.86,-346.49C562.57,-333.42 504.61,-314.15 467.58,-301.83"/>
<polygon fill="midnightblue" stroke="midnightblue" points="468.32,-298.39 457.73,-298.55 466.11,-305.03 468.32,-298.39"/>
</g>
<!-- Node8 -->
<g id="node8" class="node">
<title>Node8</title>
<g id="a_node8"><a xlink:href="_t_c_packet_8h.html" target="_top" xlink:title=" ">
<polygon fill="white" stroke="black" points="388.5,-123.5 388.5,-153.5 521.5,-153.5 521.5,-123.5 388.5,-123.5"/>
<text text-anchor="start" x="396.5" y="-141.5" font-family="Helvetica,sans-Serif" font-size="10.00">src_core/TlmCmd/Ccsds</text>
<text text-anchor="middle" x="455" y="-130.5" font-family="Helvetica,sans-Serif" font-size="10.00">/TCPacket.h</text>
</a>
</g>
</g>
<!-- Node7&#45;&gt;Node8 -->
<g id="edge7" class="edge">
<title>Node7&#45;&gt;Node8</title>
<path fill="none" stroke="midnightblue" d="M799.86,-191.8C796.87,-191.17 793.91,-190.57 791,-190 702.62,-172.74 600.16,-158.11 531.84,-149.11"/>
<polygon fill="midnightblue" stroke="midnightblue" points="531.97,-145.59 521.6,-147.77 531.06,-152.53 531.97,-145.59"/>
</g>
<!-- Node7&#45;&gt;Node11 -->
<g id="edge12" class="edge">
<title>Node7&#45;&gt;Node11</title>
<path fill="none" stroke="midnightblue" d="M874,-190.3C874,-165.63 874,-123.38 874,-96.75"/>
<polygon fill="midnightblue" stroke="midnightblue" points="877.5,-96.72 874,-86.72 870.5,-96.72 877.5,-96.72"/>
</g>
<!-- Node8&#45;&gt;Node4 -->
<g id="edge9" class="edge">
<title>Node8&#45;&gt;Node4</title>
<path fill="none" stroke="midnightblue" d="M388.3,-126.33C315.19,-114.08 198.91,-94.6 128.1,-82.74"/>
<polygon fill="midnightblue" stroke="midnightblue" points="128.44,-79.24 118,-81.04 127.28,-86.15 128.44,-79.24"/>
</g>
<!-- Node9 -->
<g id="node9" class="node">
<title>Node9</title>
<g id="a_node9"><a xlink:title=" ">
<polygon fill="white" stroke="#bfbfbf" points="368,-62 368,-81 424,-81 424,-62 368,-62"/>
<text text-anchor="middle" x="396" y="-69" font-family="Helvetica,sans-Serif" font-size="10.00">stddef.h</text>
</a>
</g>
</g>
<!-- Node8&#45;&gt;Node9 -->
<g id="edge8" class="edge">
<title>Node8&#45;&gt;Node9</title>
<path fill="none" stroke="midnightblue" d="M442.2,-123.4C432.91,-113.16 420.32,-99.3 410.63,-88.62"/>
<polygon fill="midnightblue" stroke="midnightblue" points="413.2,-86.25 403.89,-81.19 408.02,-90.95 413.2,-86.25"/>
</g>
<!-- Node10 -->
<g id="node10" class="node">
<title>Node10</title>
<g id="a_node10"><a xlink:href="tcpacket__params_8h.html" target="_top" xlink:title="TCP のユーザー設定">
<polygon fill="white" stroke="black" points="442,-56.5 442,-86.5 586,-86.5 586,-56.5 442,-56.5"/>
<text text-anchor="start" x="450" y="-74.5" font-family="Helvetica,sans-Serif" font-size="10.00">src_user/Settings/TlmCmd</text>
<text text-anchor="middle" x="514" y="-63.5" font-family="Helvetica,sans-Serif" font-size="10.00">/Ccsds/tcpacket_params.h</text>
</a>
</g>
</g>
<!-- Node8&#45;&gt;Node10 -->
<g id="edge10" class="edge">
<title>Node8&#45;&gt;Node10</title>
<path fill="none" stroke="midnightblue" d="M467.8,-123.4C475.53,-114.88 485.55,-103.85 494.27,-94.23"/>
<polygon fill="midnightblue" stroke="midnightblue" points="497.09,-96.33 501.22,-86.58 491.91,-91.63 497.09,-96.33"/>
</g>
<!-- Node8&#45;&gt;Node11 -->
<g id="edge11" class="edge">
<title>Node8&#45;&gt;Node11</title>
<path fill="none" stroke="midnightblue" d="M521.72,-125.4C526.55,-124.57 531.35,-123.76 536,-123 623.01,-108.71 722.92,-94 791.41,-84.16"/>
<polygon fill="midnightblue" stroke="midnightblue" points="792.31,-87.57 801.71,-82.69 791.31,-80.64 792.31,-87.57"/>
</g>
<!-- Node12&#45;&gt;Node8 -->
<g id="edge14" class="edge">
<title>Node12&#45;&gt;Node8</title>
<path fill="none" stroke="midnightblue" d="M583.68,-268.27C573.04,-247.19 554.08,-213.61 531,-190 519.28,-178.01 504.26,-167.31 490.68,-158.87"/>
<polygon fill="midnightblue" stroke="midnightblue" points="492.38,-155.81 482.01,-153.67 488.78,-161.81 492.38,-155.81"/>
</g>
<!-- Node13&#45;&gt;Node11 -->
<g id="edge18" class="edge">
<title>Node13&#45;&gt;Node11</title>
<path fill="none" stroke="midnightblue" d="M857.2,-283.69C893.04,-277.55 934.32,-263.53 957,-232 990.13,-185.94 934.38,-124.89 899.26,-93.34"/>
<polygon fill="midnightblue" stroke="midnightblue" points="901.52,-90.67 891.69,-86.71 896.9,-95.94 901.52,-90.67"/>
</g>
<!-- Node14 -->
<g id="node14" class="node">
<title>Node14</title>
<g id="a_node14"><a xlink:href="common__tlm__packet__define_8h.html" target="_top" xlink:title="CTP 型の定義">
<polygon fill="white" stroke="black" points="616,-196 616,-226 782,-226 782,-196 616,-196"/>
<text text-anchor="start" x="624" y="-214" font-family="Helvetica,sans-Serif" font-size="10.00">src_user/Settings/TlmCmd</text>
<text text-anchor="middle" x="699" y="-203" font-family="Helvetica,sans-Serif" font-size="10.00">/common_tlm_packet_define.h</text>
</a>
</g>
</g>
<!-- Node13&#45;&gt;Node14 -->
<g id="edge16" class="edge">
<title>Node13&#45;&gt;Node14</title>
<path fill="none" stroke="midnightblue" d="M779.56,-279.28C766.04,-267.99 742.03,-247.94 723.74,-232.66"/>
<polygon fill="midnightblue" stroke="midnightblue" points="725.71,-229.74 715.79,-226.02 721.22,-235.12 725.71,-229.74"/>
</g>
<!-- Node14&#45;&gt;Node8 -->
<g id="edge17" class="edge">
<title>Node14&#45;&gt;Node8</title>
<path fill="none" stroke="midnightblue" d="M650.5,-195.99C611.13,-184.61 555.48,-168.53 513.61,-156.43"/>
<polygon fill="midnightblue" stroke="midnightblue" points="514.4,-153.02 503.82,-153.61 512.46,-159.75 514.4,-153.02"/>
</g>
<!-- Node15&#45;&gt;Node11 -->
<g id="edge26" class="edge">
<title>Node15&#45;&gt;Node11</title>
<path fill="none" stroke="midnightblue" d="M447.01,-279.49C486.41,-257.15 590.87,-198.04 607,-190 683.8,-151.71 775.91,-112.63 829.42,-90.58"/>
<polygon fill="midnightblue" stroke="midnightblue" points="831.03,-93.7 838.95,-86.66 828.37,-87.23 831.03,-93.7"/>
</g>
<!-- Node16 -->
<g id="node16" class="node">
<title>Node16</title>
<g id="a_node16"><a xlink:href="obc__time_8h.html" target="_top" xlink:title="OBCの時刻情報の定義と演算">
<polygon fill="white" stroke="black" points="29.5,-196 29.5,-226 162.5,-226 162.5,-196 29.5,-196"/>
<text text-anchor="start" x="37.5" y="-214" font-family="Helvetica,sans-Serif" font-size="10.00">../System/TimeManager</text>
<text text-anchor="middle" x="96" y="-203" font-family="Helvetica,sans-Serif" font-size="10.00">/obc_time.h</text>
</a>
</g>
</g>
<!-- Node15&#45;&gt;Node16 -->
<g id="edge20" class="edge">
<title>Node15&#45;&gt;Node16</title>
<path fill="none" stroke="midnightblue" d="M389.53,-279.47C337.95,-268.96 248.34,-250.26 172,-232 167.43,-230.91 162.71,-229.75 157.98,-228.56"/>
<polygon fill="midnightblue" stroke="midnightblue" points="158.81,-225.16 148.25,-226.08 157.08,-231.94 158.81,-225.16"/>
</g>
<!-- Node18 -->
<g id="node18" class="node">
<title>Node18</title>
<g id="a_node18"><a xlink:href="command__definitions_8h.html" target="_top" xlink:title="コマンド定義">
<polygon fill="white" stroke="black" points="180.5,-196 180.5,-226 333.5,-226 333.5,-196 180.5,-196"/>
<text text-anchor="start" x="188.5" y="-214" font-family="Helvetica,sans-Serif" font-size="10.00">src_user/TlmCmd/command</text>
<text text-anchor="middle" x="257" y="-203" font-family="Helvetica,sans-Serif" font-size="10.00">_definitions.h</text>
</a>
</g>
</g>
<!-- Node15&#45;&gt;Node18 -->
<g id="edge23" class="edge">
<title>Node15&#45;&gt;Node18</title>
<path fill="none" stroke="midnightblue" d="M412.27,-279.43C384.86,-267.53 334.6,-245.7 298.68,-230.1"/>
<polygon fill="midnightblue" stroke="midnightblue" points="299.99,-226.85 289.42,-226.08 297.2,-233.28 299.99,-226.85"/>
</g>
<!-- Node19 -->
<g id="node19" class="node">
<title>Node19</title>
<g id="a_node19"><a xlink:href="common__cmd__packet__define_8h.html" target="_top" xlink:title="CCP 型の定義">
<polygon fill="white" stroke="black" points="352,-196 352,-226 522,-226 522,-196 352,-196"/>
<text text-anchor="start" x="360" y="-214" font-family="Helvetica,sans-Serif" font-size="10.00">src_user/Settings/TlmCmd</text>
<text text-anchor="middle" x="437" y="-203" font-family="Helvetica,sans-Serif" font-size="10.00">/common_cmd_packet_define.h</text>
</a>
</g>
</g>
<!-- Node15&#45;&gt;Node19 -->
<g id="edge24" class="edge">
<title>Node15&#45;&gt;Node19</title>
<path fill="none" stroke="midnightblue" d="M432.57,-279.28C433.26,-268.8 434.45,-250.79 435.42,-236.03"/>
<polygon fill="midnightblue" stroke="midnightblue" points="438.91,-236.23 436.08,-226.02 431.93,-235.77 438.91,-236.23"/>
</g>
<!-- Node16&#45;&gt;Node4 -->
<g id="edge21" class="edge">
<title>Node16&#45;&gt;Node4</title>
<path fill="none" stroke="midnightblue" d="M93.01,-195.8C87.74,-170.84 76.82,-119.08 70.95,-91.22"/>
<polygon fill="midnightblue" stroke="midnightblue" points="74.32,-90.26 68.84,-81.2 67.47,-91.71 74.32,-90.26"/>
</g>
<!-- Node17 -->
<g id="node17" class="node">
<title>Node17</title>
<g id="a_node17"><a xlink:href="obc__time__params_8h.html" target="_top" xlink:title="OBCTのCoreパラメタのオーバーライド用ヘッダー">
<polygon fill="white" stroke="black" points="95,-123.5 95,-153.5 235,-153.5 235,-123.5 95,-123.5"/>
<text text-anchor="start" x="103" y="-141.5" font-family="Helvetica,sans-Serif" font-size="10.00">src_user/Settings/System</text>
<text text-anchor="middle" x="165" y="-130.5" font-family="Helvetica,sans-Serif" font-size="10.00">/obc_time_params.h</text>
</a>
</g>
</g>
<!-- Node16&#45;&gt;Node17 -->
<g id="edge22" class="edge">
<title>Node16&#45;&gt;Node17</title>
<path fill="none" stroke="midnightblue" d="M109.96,-195.73C119.69,-185.8 132.84,-172.36 143.85,-161.11"/>
<polygon fill="midnightblue" stroke="midnightblue" points="146.56,-163.34 151.06,-153.75 141.56,-158.44 146.56,-163.34"/>
</g>
<!-- Node19&#45;&gt;Node8 -->
<g id="edge25" class="edge">
<title>Node19&#45;&gt;Node8</title>
<path fill="none" stroke="midnightblue" d="M440.64,-195.73C442.98,-186.56 446.09,-174.41 448.81,-163.74"/>
<polygon fill="midnightblue" stroke="midnightblue" points="452.28,-164.3 451.36,-153.75 445.5,-162.57 452.28,-164.3"/>
</g>
</g>
</svg>
