<?xml version="1.0" encoding="UTF-8" standalone="no"?>
<!DOCTYPE svg PUBLIC "-//W3C//DTD SVG 1.1//EN"
 "http://www.w3.org/Graphics/SVG/1.1/DTD/svg11.dtd">
<!-- Generated by graphviz version 2.43.0 (0)
 -->
<!-- Title: WDT_initialize Pages: 1 -->
<svg width="1031pt" height="66pt"
 viewBox="0.00 0.00 1031.00 66.00" xmlns="http://www.w3.org/2000/svg" xmlns:xlink="http://www.w3.org/1999/xlink">
<g id="graph0" class="graph" transform="scale(1 1) rotate(0) translate(4 62)">
<title>WDT_initialize</title>
<polygon fill="white" stroke="transparent" points="-4,4 -4,-62 1027,-62 1027,4 -4,4"/>
<!-- Node1 -->
<g id="node1" class="node">
<title>Node1</title>
<g id="a_node1"><a xlink:title="WDTの初期化">
<polygon fill="#bfbfbf" stroke="black" points="936,-19.5 936,-38.5 1023,-38.5 1023,-19.5 936,-19.5"/>
<text text-anchor="middle" x="979.5" y="-26.5" font-family="Helvetica,sans-Serif" font-size="10.00">WDT_initialize</text>
</a>
</g>
</g>
<!-- Node2 -->
<g id="node2" class="node">
<title>Node2</title>
<g id="a_node2"><a xlink:href="watchdog__timer_8c.html#a945b94824a858411b66630dad7c15840" target="_top" xlink:title=" ">
<polygon fill="white" stroke="black" points="839,-19.5 839,-38.5 900,-38.5 900,-19.5 839,-19.5"/>
<text text-anchor="middle" x="869.5" y="-26.5" font-family="Helvetica,sans-Serif" font-size="10.00">wdt_init_</text>
</a>
</g>
</g>
<!-- Node1&#45;&gt;Node2 -->
<g id="edge1" class="edge">
<title>Node1&#45;&gt;Node2</title>
<path fill="none" stroke="midnightblue" d="M925.64,-29C916.91,-29 908.14,-29 900.24,-29"/>
<polygon fill="midnightblue" stroke="midnightblue" points="925.82,-32.5 935.82,-29 925.82,-25.5 925.82,-32.5"/>
</g>
<!-- Node3 -->
<g id="node3" class="node">
<title>Node3</title>
<g id="a_node3"><a xlink:href="watchdog__timer_8h.html#aae70a2bf9766f4c4e19c3beb62fa9f2d" target="_top" xlink:title=" ">
<polygon fill="white" stroke="black" points="711,-38.5 711,-57.5 803,-57.5 803,-38.5 711,-38.5"/>
<text text-anchor="middle" x="757" y="-45.5" font-family="Helvetica,sans-Serif" font-size="10.00">Cmd_WDT_INIT</text>
</a>
</g>
</g>
<!-- Node2&#45;&gt;Node3 -->
<g id="edge2" class="edge">
<title>Node2&#45;&gt;Node3</title>
<path fill="none" stroke="midnightblue" d="M828.97,-35.8C820.58,-37.24 811.67,-38.77 803.09,-40.25"/>
<polygon fill="midnightblue" stroke="midnightblue" points="829.63,-39.24 838.89,-34.09 828.44,-32.34 829.63,-39.24"/>
</g>
<!-- Node10 -->
<g id="node10" class="node">
<title>Node10</title>
<g id="a_node10"><a xlink:href="watchdog__timer_8h.html#a3b6f1e6b8d84973fe3273975bfbb1908" target="_top" xlink:title="WDTの初期化">
<polygon fill="white" stroke="black" points="588,-0.5 588,-19.5 649,-19.5 649,-0.5 588,-0.5"/>
<text text-anchor="middle" x="618.5" y="-7.5" font-family="Helvetica,sans-Serif" font-size="10.00">WDT_init</text>
</a>
</g>
</g>
<!-- Node2&#45;&gt;Node10 -->
<g id="edge9" class="edge">
<title>Node2&#45;&gt;Node10</title>
<path fill="none" stroke="midnightblue" d="M828.83,-25.97C778.74,-22.15 693.72,-15.66 649,-12.25"/>
<polygon fill="midnightblue" stroke="midnightblue" points="828.72,-29.47 838.96,-26.75 829.25,-22.5 828.72,-29.47"/>
</g>
<!-- Node4 -->
<g id="node4" class="node">
<title>Node4</title>
<g id="a_node4"><a xlink:href="command__definitions_8c.html#aa375895192b16d8e7f0ff4545b54e6c4" target="_top" xlink:title="Cmd Tableのロード">
<polygon fill="white" stroke="black" points="562,-38.5 562,-57.5 675,-57.5 675,-38.5 562,-38.5"/>
<text text-anchor="middle" x="618.5" y="-45.5" font-family="Helvetica,sans-Serif" font-size="10.00">CA_load_cmd_table</text>
</a>
</g>
</g>
<!-- Node3&#45;&gt;Node4 -->
<g id="edge3" class="edge">
<title>Node3&#45;&gt;Node4</title>
<path fill="none" stroke="midnightblue" d="M700.89,-48C692.52,-48 683.87,-48 675.48,-48"/>
<polygon fill="midnightblue" stroke="midnightblue" points="700.93,-51.5 710.93,-48 700.93,-44.5 700.93,-51.5"/>
</g>
<!-- Node5 -->
<g id="node5" class="node">
<title>Node5</title>
<g id="a_node5"><a xlink:href="command__analyze_8h.html#ae6d1f376bf4e1c9c4b63bc3f04924c8a" target="_top" xlink:title="CA の初期化">
<polygon fill="white" stroke="black" points="449,-38.5 449,-57.5 526,-57.5 526,-38.5 449,-38.5"/>
<text text-anchor="middle" x="487.5" y="-45.5" font-family="Helvetica,sans-Serif" font-size="10.00">CA_initialize</text>
</a>
</g>
</g>
<!-- Node4&#45;&gt;Node5 -->
<g id="edge4" class="edge">
<title>Node4&#45;&gt;Node5</title>
<path fill="none" stroke="midnightblue" d="M551.5,-48C542.82,-48 534.17,-48 526.19,-48"/>
<polygon fill="midnightblue" stroke="midnightblue" points="551.67,-51.5 561.67,-48 551.67,-44.5 551.67,-51.5"/>
</g>
<!-- Node6 -->
<g id="node6" class="node">
<title>Node6</title>
<g id="a_node6"><a xlink:href="c2a__core__main_8h.html#a65ecdc63d8762ffde4db7f6c6e6f07cf" target="_top" xlink:title=" ">
<polygon fill="white" stroke="black" points="330,-38.5 330,-57.5 413,-57.5 413,-38.5 330,-38.5"/>
<text text-anchor="middle" x="371.5" y="-45.5" font-family="Helvetica,sans-Serif" font-size="10.00">C2A_core_init</text>
</a>
</g>
</g>
<!-- Node5&#45;&gt;Node6 -->
<g id="edge5" class="edge">
<title>Node5&#45;&gt;Node6</title>
<path fill="none" stroke="midnightblue" d="M438.72,-48C430.25,-48 421.5,-48 413.24,-48"/>
<polygon fill="midnightblue" stroke="midnightblue" points="438.86,-51.5 448.86,-48 438.86,-44.5 438.86,-51.5"/>
</g>
<!-- Node7 -->
<g id="node7" class="node">
<title>Node7</title>
<g id="a_node7"><a xlink:href="c2a__main_8c.html#a630222a80cd8bffd4426d4a55a215069" target="_top" xlink:title=" ">
<polygon fill="white" stroke="black" points="232,-19.5 232,-38.5 294,-38.5 294,-19.5 232,-19.5"/>
<text text-anchor="middle" x="263" y="-26.5" font-family="Helvetica,sans-Serif" font-size="10.00">C2A_init_</text>
</a>
</g>
</g>
<!-- Node6&#45;&gt;Node7 -->
<g id="edge6" class="edge">
<title>Node6&#45;&gt;Node7</title>
<path fill="none" stroke="midnightblue" d="M320.04,-39C311.2,-37.42 302.25,-35.82 294.18,-34.38"/>
<polygon fill="midnightblue" stroke="midnightblue" points="319.47,-42.45 329.93,-40.76 320.7,-35.56 319.47,-42.45"/>
</g>
<!-- Node8 -->
<g id="node8" class="node">
<title>Node8</title>
<g id="a_node8"><a xlink:href="c2a__main_8c.html#ac3344a311adda8f9e7310924bedf81fc" target="_top" xlink:title=" ">
<polygon fill="white" stroke="black" points="77,-19.5 77,-38.5 196,-38.5 196,-19.5 77,-19.5"/>
<text text-anchor="middle" x="136.5" y="-26.5" font-family="Helvetica,sans-Serif" font-size="10.00">address_fixed_main_</text>
</a>
</g>
</g>
<!-- Node7&#45;&gt;Node8 -->
<g id="edge7" class="edge">
<title>Node7&#45;&gt;Node8</title>
<path fill="none" stroke="midnightblue" d="M221.83,-29C213.62,-29 204.82,-29 196.12,-29"/>
<polygon fill="midnightblue" stroke="midnightblue" points="221.86,-32.5 231.86,-29 221.86,-25.5 221.86,-32.5"/>
</g>
<!-- Node9 -->
<g id="node9" class="node">
<title>Node9</title>
<g id="a_node9"><a xlink:href="c2a__main_8c.html#a840291bc02cba5474a4cb46a9b9566fe" target="_top" xlink:title=" ">
<polygon fill="white" stroke="black" points="0,-19.5 0,-38.5 41,-38.5 41,-19.5 0,-19.5"/>
<text text-anchor="middle" x="20.5" y="-26.5" font-family="Helvetica,sans-Serif" font-size="10.00">main</text>
</a>
</g>
</g>
<!-- Node8&#45;&gt;Node9 -->
<g id="edge8" class="edge">
<title>Node8&#45;&gt;Node9</title>
<path fill="none" stroke="midnightblue" d="M66.64,-29C57.37,-29 48.53,-29 41.18,-29"/>
<polygon fill="midnightblue" stroke="midnightblue" points="66.83,-32.5 76.83,-29 66.83,-25.5 66.83,-32.5"/>
</g>
<!-- Node10&#45;&gt;Node7 -->
<g id="edge10" class="edge">
<title>Node10&#45;&gt;Node7</title>
<path fill="none" stroke="midnightblue" d="M577.6,-12.14C506.15,-15.98 357.92,-23.95 294.2,-27.38"/>
<polygon fill="midnightblue" stroke="midnightblue" points="578.17,-15.62 587.97,-11.59 577.8,-8.63 578.17,-15.62"/>
</g>
</g>
</svg>
